<svg width="24" height="24" viewBox="0 0 24 24" xmlns="http://www.w3.org/2000/svg" class="wd-icon wd-icon-paste" role="presentation" data-deprecated="true">
<!-- Deprecated icon: will be removed in the future. Use wd-icon-clipboard.svg instead. -->
<path d="M12.0015 2C12.6377 2.00014 13.203 2.29832 13.5688 2.76172C13.6793 2.90171 13.8407 2.99996 14.019 3H15.5005C15.7766 3 16.0005 3.22386 16.0005 3.5V4H18.5005C18.7766 4 19.0005 4.22386 19.0005 4.5V20.5C19.0005 20.7761 18.7766 21 18.5005 21H5.50049C5.22435 21 5.00049 20.7761 5.00049 20.5V4.5C5.00049 4.22389 5.22439 4.00005 5.50049 4H8.00049V3.5C8.00049 3.22386 8.22435 3 8.50049 3H9.98291C10.1612 2.99996 10.3226 2.9017 10.4331 2.76172C10.7991 2.29819 11.365 2 12.0015 2Z" fill="transparent" class="wd-icon-background"></path>
<path d="M12.1797 1.00488C12.9967 1.05318 13.7235 1.43034 14.2334 2H15.5C16.1529 2 16.707 2.41768 16.9131 3H18.5C19.3284 3.00007 20 3.67161 20 4.5V20.5C20 21.3284 19.3283 21.9999 18.5 22H5.5C4.67163 21.9999 4 21.3284 4 20.5V4.5C4 3.67164 4.67167 3.00011 5.5 3H7.08789C7.29392 2.41768 7.84809 2.00005 8.50098 2H9.76855C10.3156 1.38917 11.1119 1.00004 12.001 1L12.1797 1.00488ZM6 20H18V5H17V6.52734C17 7.35577 16.3284 8.02734 15.5 8.02734H8.50098C7.67261 8.02728 7.00098 7.35573 7.00098 6.52734V5H6V20ZM12.001 3C11.6846 3.00004 11.402 3.14718 11.2168 3.38184C10.9668 3.69825 10.5393 3.99996 9.98242 4H9.00098V6.02734H15V4H14.0186C13.4615 3.99992 13.0341 3.69756 12.7842 3.38086C12.599 3.14629 12.3169 3.00014 12.001 3Z" fill="oklch(0.3523 0 0 / 1)" class="wd-icon-fill"></path>
<g>
<path d="M11.5 14C11.7761 14 12 14.2239 12 14.5V15.5C12 15.7761 11.7761 16 11.5 16H8.5C8.22386 16 8 15.7761 8 15.5V14.5C8 14.2239 8.22386 14 8.5 14H11.5Z" fill="oklch(0.3523 0 0 / 1)" class="wd-icon-accent"></path>
<path d="M15.5 11C15.7761 11 16 11.2239 16 11.5V12.5C16 12.7761 15.7761 13 15.5 13H8.5C8.22386 13 8 12.7761 8 12.5V11.5C8 11.2239 8.22386 11 8.5 11H15.5Z" fill="oklch(0.3523 0 0 / 1)" class="wd-icon-accent"></path>
</g>
</svg>