<svg width="24" height="24" viewBox="0 0 24 24" xmlns="http://www.w3.org/2000/svg" class="wd-icon wd-icon-unlocked" role="presentation" data-deprecated="true">
<!-- Deprecated icon: will be removed in the future. Use wd-icon-lock-keyhole-open.svg instead. -->
<g>
<path d="M5 19.4991C5 19.7752 5.22386 19.9991 5.5 19.9991H18.5C18.7761 19.9991 19 19.7752 19 19.4991L19 10.4998C19 10.2236 18.7762 9.99976 18.5 9.99976H5.50001C5.22387 9.99976 5.00001 10.2236 5.00001 10.4998L5 19.4991Z" fill="transparent" class="wd-icon-background"></path>
<path d="M19 19.4991C19 19.7752 18.7761 19.9991 18.5 19.9991H5.5C5.22386 19.9991 5 19.7752 5 19.4991L5.00001 10.4998C5.00001 10.2236 5.22387 9.99976 5.50001 9.99976H18.5C18.7762 9.99976 19 10.2236 19 10.4998L19 19.4991Z" fill="transparent" class="wd-icon-background"></path>
</g>
<path d="M11.9458 1C15.2891 1.00014 17.9994 3.7104 17.9995 7.05371V9H18.4995C19.3279 9 19.9995 9.67157 19.9995 10.5V19.499C19.9995 20.3274 19.3279 20.999 18.4995 20.999H5.49951C4.67109 20.999 3.99951 20.3275 3.99951 19.499V10.5C3.99951 9.67158 4.67109 9.00001 5.49951 9H15.9995V7.05371C15.9994 4.81497 14.1845 3.00014 11.9458 3C10.6846 3.00005 9.53191 3.58161 8.77979 4.52051C8.49125 4.88074 8.27183 5.29831 8.11084 5.7627C8.02042 6.02356 7.75175 6.18799 7.48389 6.12109L6.51514 5.87891C6.24718 5.81198 6.08246 5.53946 6.1665 5.27637C6.39118 4.57318 6.72627 3.88596 7.21924 3.27051C8.34053 1.87073 10.061 1.00005 11.9458 1ZM5.99951 11V18.999H17.9995V11H5.99951Z" fill="oklch(0.3523 0 0 / 1)" class="wd-icon-fill"></path>
<path d="M12 12C13.1046 12 14 12.8954 14 14C14 14.7398 13.5971 15.3835 13 15.7295V17.5C13 17.7761 12.7761 18 12.5 18H11.5C11.2239 18 11 17.7761 11 17.5V15.7295C10.4029 15.3835 10 14.7398 10 14C10 12.8954 10.8954 12 12 12Z" fill="oklch(0.3523 0 0 / 1)" class="wd-icon-accent"></path>
</svg>