<svg width="24" height="24" viewBox="0 0 24 24" xmlns="http://www.w3.org/2000/svg" class="wd-icon wd-icon-find-transactions" role="presentation" data-deprecated="true">
<!-- Deprecated icon: will be removed in the future. Use wd-icon-receipt-search.svg instead. -->
<path d="M17 13C19.2091 13 21 14.7909 21 17C21 17.7417 20.7971 18.4358 20.4453 19.0312L22.1035 20.6895C22.2985 20.8846 22.2984 21.2012 22.1035 21.3965L21.3965 22.1035C21.2013 22.2987 20.8847 22.2986 20.6895 22.1035L19.0312 20.4453C18.4358 20.7971 17.7417 21 17 21C14.7909 21 13 19.2091 13 17C13 14.7909 14.7909 13 17 13ZM17 15C15.8954 15 15 15.8954 15 17C15 18.1046 15.8954 19 17 19C18.1046 19 19 18.1046 19 17C19 15.8954 18.1046 15 17 15Z" fill="oklch(0.3523 0 0 / 1)" class="wd-icon-accent"></path>
<g>
<path d="M19 1C19.2652 1 19.5195 1.10543 19.707 1.29297C19.8946 1.48051 20 1.73478 20 2V10.5C20 10.7761 19.7761 11 19.5 11H18.5C18.2239 11 18 10.7761 18 10.5V3H6V20.2764L8.00391 19.1318L8.12207 19.0742C8.4045 18.9589 8.72705 18.9781 8.99609 19.1318L12.4961 21.1318L12.6611 21.2266C12.9009 21.3636 12.9846 21.6694 12.8477 21.9092L12.3516 22.7773C12.2145 23.0171 11.9087 23.0999 11.6689 22.9629L10.1875 22.1172C10.1841 22.1152 10.1811 22.1124 10.1777 22.1104L8.5 21.1514L5.49609 22.8682C5.18664 23.045 4.80633 23.0441 4.49805 22.8652C4.18974 22.6863 4.00002 22.3565 4 22V2C4 1.44772 4.44772 1 5 1H19Z" fill="oklch(0.3523 0 0 / 1)" class="wd-icon-fill"></path>
<path d="M11.5 12C11.7761 12 12 12.2239 12 12.5V13.5C12 13.7761 11.7761 14 11.5 14H8.5C8.22386 14 8 13.7761 8 13.5V12.5C8 12.2239 8.22386 12 8.5 12H11.5Z" fill="oklch(0.3523 0 0 / 1)" class="wd-icon-fill"></path>
<path d="M12.5 9C12.7761 9 13 9.22386 13 9.5V10.5C13 10.7761 12.7761 11 12.5 11H8.5C8.22386 11 8 10.7761 8 10.5V9.5C8 9.22386 8.22386 9 8.5 9H12.5Z" fill="oklch(0.3523 0 0 / 1)" class="wd-icon-fill"></path>
<path d="M15.5 9C15.7761 9 16 9.22386 16 9.5V10.5C16 10.7761 15.7761 11 15.5 11H14.5C14.2239 11 14 10.7761 14 10.5V9.5C14 9.22386 14.2239 9 14.5 9H15.5Z" fill="oklch(0.3523 0 0 / 1)" class="wd-icon-fill"></path>
<path d="M12.5 6C12.7761 6 13 6.22386 13 6.5V7.5C13 7.77614 12.7761 8 12.5 8H8.5C8.22386 8 8 7.77614 8 7.5V6.5C8 6.22386 8.22386 6 8.5 6H12.5Z" fill="oklch(0.3523 0 0 / 1)" class="wd-icon-fill"></path>
<path d="M15.5 6C15.7761 6 16 6.22386 16 6.5V7.5C16 7.77614 15.7761 8 15.5 8H14.5C14.2239 8 14 7.77614 14 7.5V6.5C14 6.22386 14.2239 6 14.5 6H15.5Z" fill="oklch(0.3523 0 0 / 1)" class="wd-icon-fill"></path>
</g>
</svg>