<svg width="24" height="24" viewBox="0 0 24 24" xmlns="http://www.w3.org/2000/svg" class="wd-icon wd-icon-time" role="presentation" data-deprecated="true">
<!-- Deprecated icon: will be removed in the future. Use wd-icon-history.svg instead. -->
<path d="M7.57691 2.0311C9.75261 0.958215 12.2444 0.712928 14.5877 1.34067C16.9308 1.96855 18.9664 3.42634 20.3142 5.44321C21.6621 7.46042 22.2305 9.9002 21.9138 12.3055C21.597 14.7103 20.417 16.918 18.5935 18.5174C16.8951 20.0068 14.7461 20.8748 12.4998 20.9872C12.224 21.0009 11.9998 20.775 11.9998 20.4989V19.4998C11.9998 19.2237 12.2242 19.0015 12.4998 18.9842C14.2604 18.874 15.9407 18.1837 17.2742 17.0145C18.7333 15.7349 19.679 13.9679 19.9324 12.0438C20.1856 10.1197 19.7293 8.16917 18.6511 6.55551C17.5728 4.94175 15.9448 3.77366 14.0701 3.27133C12.1955 2.7692 10.2022 2.96675 8.46168 3.82504C6.72118 4.68346 5.35185 6.14539 4.60914 7.93832C3.86658 9.7313 3.80079 11.7335 4.42457 13.5711C4.9446 15.1029 5.91534 16.4319 7.19703 17.3944L6.85621 14.3514C6.82539 14.077 7.0232 13.8295 7.29761 13.7987L8.29078 13.6864C8.56516 13.6556 8.81265 13.8534 8.84351 14.1278L9.51343 20.0907C9.54407 20.365 9.34634 20.6126 9.07203 20.6434L3.11011 21.3123C2.83584 21.3431 2.5884 21.1461 2.55738 20.8719L2.44508 19.8778C2.41428 19.6034 2.61209 19.3559 2.88648 19.325L5.9734 18.9784C4.38211 17.7764 3.1781 16.1198 2.53101 14.2137C1.75132 11.9166 1.83228 9.41392 2.7605 7.1727C3.68887 4.9315 5.40127 3.10414 7.57691 2.0311Z" fill="oklch(0.3523 0 0 / 1)" class="wd-icon-fill"></path>
<path d="M12.5 5C12.7761 5 13 5.22483 13 5.50098V10.001H16.5C16.7761 10.001 17 10.2248 17 10.501V11.501C16.9997 11.7769 16.776 12.001 16.5 12.001H12C11.4479 12.001 11.0003 11.553 11 11.001V5.50098C11 5.22483 11.2239 5 11.5 5H12.5Z" fill="oklch(0.3523 0 0 / 1)" class="wd-icon-accent"></path>
</svg>