<svg width="24" height="24" viewBox="0 0 24 24" xmlns="http://www.w3.org/2000/svg" class="wd-icon wd-icon-transformation-join" role="presentation" data-deprecated="true">
<!-- Deprecated icon: will be removed in the future. Use wd-icon-shrink-horizontal.svg instead. -->
<g>
<path d="M6.70605 7.18283C6.91967 7.00885 7.23451 7.03995 7.40918 7.25314L10.7754 11.3664C10.9635 11.5967 11.0336 11.8907 10.9863 12.1682C10.9581 12.3343 10.887 12.4952 10.7744 12.633L7.4082 16.7453C7.23335 16.9589 6.91875 16.9903 6.70508 16.8156L6.31836 16.4992L5.93164 16.1838C5.71772 16.009 5.6864 15.6935 5.86133 15.4797L7.89062 12.9992H1.5C1.22399 12.9991 1 12.7753 1 12.4992V11.4992C1.00039 11.2235 1.22423 10.9994 1.5 10.9992H7.89062L5.86133 8.51974C5.68673 8.30612 5.71822 7.99147 5.93164 7.81662L6.70605 7.18283Z" fill="oklch(0.3523 0 0 / 1)" class="wd-icon-fill"></path>
<path d="M16.5908 7.25314C16.7655 7.03995 17.0803 7.00885 17.2939 7.18283L18.0684 7.81662C18.2818 7.99147 18.3133 8.30612 18.1387 8.51974L16.1094 10.9992H22.5C22.7758 10.9994 22.9996 11.2235 23 11.4992V12.4992C23 12.7753 22.776 12.9991 22.5 12.9992H16.1094L18.1387 15.4797C18.3136 15.6935 18.2823 16.009 18.0684 16.1838L17.6816 16.4992L17.2949 16.8156C17.0813 16.9903 16.7667 16.9589 16.5918 16.7453L13.2256 12.633C13.113 12.4952 13.0419 12.3343 13.0137 12.1682C12.9664 11.8907 13.0365 11.5967 13.2246 11.3664L16.5908 7.25314Z" fill="oklch(0.3523 0 0 / 1)" class="wd-icon-fill"></path>
</g>
</svg>