<svg width="24" height="24" viewBox="0 0 24 24" xmlns="http://www.w3.org/2000/svg" class="wd-icon wd-icon-contact-card-cost-center" role="presentation" data-deprecated="true">
<!-- Deprecated icon: will be removed in the future. Use wd-icon-buildings.svg instead. -->
<path d="M21 21H4C3.44772 21 3 20.5523 3 20V11C3 10.4477 3.44772 10 4 10H8V3H21V21Z" fill="transparent" class="wd-icon-background"></path>
<path d="M20 2C21.1046 2 22 2.89543 22 4V20C22 21.1046 21.1046 22 20 22H4C2.89543 22 2 21.1046 2 20V11C2 9.89543 2.89543 9 4 9H7V4C7 2.89543 7.89543 2 9 2H20ZM9 9H12C13.1046 9 14 9.89543 14 11V20H20V4H9V9ZM4 20H12V11H4V20Z" fill="oklch(0.3523 0 0 / 1)" class="wd-icon-fill"></path>
<g>
<path d="M9.5 16C9.77614 16 10 16.2239 10 16.5V17.5C10 17.7761 9.77614 18 9.5 18H6.5C6.22386 18 6 17.7761 6 17.5V16.5C6 16.2239 6.22386 16 6.5 16H9.5Z" fill="oklch(0.3523 0 0 / 1)" class="wd-icon-accent"></path>
<path d="M17.5 15C17.7761 15 18 15.2239 18 15.5V16.5C18 16.7761 17.7761 17 17.5 17H15.5C15.2239 17 15 16.7761 15 16.5V15.5C15 15.2239 15.2239 15 15.5 15H17.5Z" fill="oklch(0.3523 0 0 / 1)" class="wd-icon-accent"></path>
<path d="M9.5 13C9.77614 13 10 13.2239 10 13.5V14.5C10 14.7761 9.77614 15 9.5 15H6.5C6.22386 15 6 14.7761 6 14.5V13.5C6 13.2239 6.22386 13 6.5 13H9.5Z" fill="oklch(0.3523 0 0 / 1)" class="wd-icon-accent"></path>
<path d="M17.5 12C17.7761 12 18 12.2239 18 12.5V13.5C18 13.7761 17.7761 14 17.5 14H15.5C15.2239 14 15 13.7761 15 13.5V12.5C15 12.2239 15.2239 12 15.5 12H17.5Z" fill="oklch(0.3523 0 0 / 1)" class="wd-icon-accent"></path>
<path d="M17.5 9C17.7761 9 18 9.22386 18 9.5V10.5C18 10.7761 17.7761 11 17.5 11H15.5C15.2239 11 15 10.7761 15 10.5V9.5C15 9.22386 15.2239 9 15.5 9H17.5Z" fill="oklch(0.3523 0 0 / 1)" class="wd-icon-accent"></path>
<path d="M13.5 6C13.7761 6 14 6.22386 14 6.5V7.5C14 7.77614 13.7761 8 13.5 8H11.5C11.2239 8 11 7.77614 11 7.5V6.5C11 6.22386 11.2239 6 11.5 6H13.5Z" fill="oklch(0.3523 0 0 / 1)" class="wd-icon-accent"></path>
<path d="M17.5 6C17.7761 6 18 6.22386 18 6.5V7.5C18 7.77614 17.7761 8 17.5 8H15.5C15.2239 8 15 7.77614 15 7.5V6.5C15 6.22386 15.2239 6 15.5 6H17.5Z" fill="oklch(0.3523 0 0 / 1)" class="wd-icon-accent"></path>
</g>
</svg>