<svg width="24" height="24" viewBox="0 0 24 24" xmlns="http://www.w3.org/2000/svg" class="wd-icon wd-icon-user-remove" role="presentation" data-deprecated="true">
<!-- Deprecated icon: will be removed in the future. Use wd-icon-user-x.svg instead. -->
<g>
<path d="M12 12C12.1618 12 12.3229 12.0035 12.4834 12.0088C12.4889 12.0088 12.4945 12.0076 12.5 12.0078C12.5368 12.0091 12.5736 12.0121 12.6104 12.0137C12.7482 12.0194 12.8856 12.0255 13.0225 12.0352C13.0812 12.0393 13.1397 12.045 13.1982 12.0498C13.2887 12.0573 13.3788 12.0661 13.4688 12.0752C13.59 12.0874 13.7107 12.101 13.8311 12.1162C13.9126 12.1265 13.9941 12.1368 14.0752 12.1484C14.1539 12.1597 14.2323 12.172 14.3105 12.1846C14.3869 12.1968 14.4631 12.2102 14.5391 12.2236C14.6034 12.235 14.6683 12.2446 14.7324 12.2568C15.0035 12.3087 15.1724 12.5775 15.1113 12.8467L14.8887 13.8223C14.8273 14.0911 14.5603 14.259 14.2891 14.209C13.7823 14.1153 13.2642 14.0531 12.7373 14.0225C12.4933 14.0083 12.2476 14 12 14C8.95518 14 6.16846 15.0895 4 16.8984V20H13.5C13.7761 20 14 20.2239 14 20.5V21.5C14 21.7761 13.7761 22 13.5 22H3.5C2.72334 22 2.08461 21.4097 2.00781 20.6533L2 20.5V16.6611L2.00879 16.5029C2.04773 16.1358 2.2218 15.7869 2.51367 15.5342L2.99902 15.1318C5.47159 13.1717 8.59996 12 12 12Z" fill="oklch(0.3523 0 0 / 1)" class="wd-icon-fill"></path>
<path d="M12 1C14.7614 1 17 3.23858 17 6C17 8.76142 14.7614 11 12 11C9.23858 11 7 8.76142 7 6C7 3.23858 9.23858 1 12 1ZM12 3C10.3431 3 9 4.34315 9 6C9 7.65685 10.3431 9 12 9C13.6569 9 15 7.65685 15 6C15 4.34315 13.6569 3 12 3Z" fill="oklch(0.3523 0 0 / 1)" class="wd-icon-fill"></path>
</g>
<path d="M20.9413 15.6415C21.1366 15.4464 21.4531 15.4464 21.6484 15.6415L22.3564 16.3485C22.5514 16.5437 22.5514 16.8603 22.3564 17.0556L20.4189 18.9931L22.3632 20.9374C22.5583 21.1326 22.5583 21.4492 22.3632 21.6444L21.6562 22.3515C21.461 22.5466 21.1444 22.5466 20.9492 22.3515L19.0048 20.4071L17.0605 22.3515C16.8653 22.5466 16.5487 22.5466 16.3534 22.3515L15.6464 21.6444C15.4512 21.4492 15.4512 21.1327 15.6464 20.9374L17.5898 18.9921L15.6533 17.0556C15.458 16.8603 15.4581 16.5438 15.6533 16.3485L16.3603 15.6415C16.5555 15.4463 16.8721 15.4463 17.0673 15.6415L19.0038 17.578L20.9413 15.6415Z" fill="oklch(0.3523 0 0 / 1)" class="wd-icon-accent"></path>
</svg>