<svg width="24" height="24" viewBox="0 0 24 24" xmlns="http://www.w3.org/2000/svg" class="wd-icon wd-icon-freeze-header" role="presentation" data-deprecated="true">
<!-- Deprecated icon: will be removed in the future. Use wd-icon-table-header-freeze.svg instead. -->
<path d="M20.5 3C21.3284 3 22 3.67157 22 4.5V19.5C22 20.3284 21.3284 21 20.5 21H3.5C2.67157 21 2 20.3284 2 19.5V4.5C2 3.67157 2.67157 3 3.5 3H20.5ZM10 17V19H14V17H10ZM16 17V19H20V17H16ZM10 15H14V13H10V15ZM16 15H20V13H16V15ZM10 11H14V9H10V11ZM16 11H20V9H16V11Z" fill="oklch(0.3523 0 0 / 1)" class="wd-icon-fill"></path>
</svg>