<svg width="24" height="24" viewBox="0 0 24 24" xmlns="http://www.w3.org/2000/svg" class="wd-icon wd-icon-no-connection-cloud" role="presentation" data-deprecated="true">
<!-- Deprecated icon: will be removed in the future. Use wd-icon-cloud-strikethrough.svg instead. -->
<g>
<path d="M2.83398 2.14668C3.02924 1.95143 3.34575 1.95144 3.54102 2.14668L6.37109 4.97676C7.25916 4.36099 8.33729 4.00019 9.5 4.00019C11.2349 4.00019 12.7794 4.805 13.7861 6.05683C14.019 6.01964 14.2575 6.00019 14.5 6.00019C16.4812 6.00019 18.1604 7.28018 18.7617 9.05781C21.1616 9.42465 23 11.4978 23 14.0002C22.9999 16.0566 21.7578 17.8206 19.9834 18.5881L21.835 20.4396C22.0301 20.635 22.0303 20.9515 21.835 21.1467L21.127 21.8537C20.9317 22.0488 20.6151 22.0489 20.4199 21.8537L2.12695 3.56074C1.93178 3.36554 1.93188 3.04898 2.12695 2.85371L2.83398 2.14668ZM9.5 6.00019C8.89224 6.00019 8.3204 6.15453 7.82227 6.42695L18.3711 16.9758C19.8527 16.7929 20.9999 15.5313 21 14.0002C21 12.3433 19.6569 11.0002 18 11.0002C17.9754 11.0002 17.9795 11.0001 17.9727 11.0002L17.0977 11.008L16.9736 10.1418C16.8004 8.93099 15.7583 8.00019 14.5 8.00019C14.2136 8.00019 13.9403 8.0477 13.6865 8.13496L12.9199 8.39863L12.5039 7.7043C11.8905 6.68142 10.7743 6.00019 9.5 6.00019Z" fill="oklch(0.3523 0 0 / 1)" class="wd-icon-fill"></path>
<path d="M3.67188 9.57539C3.91617 9.44661 4.20891 9.57232 4.3125 9.82832L4.6875 10.7541C4.79106 11.01 4.66476 11.2988 4.42969 11.4436C3.57109 11.9722 3.00009 12.9205 3 14.0002C3.00029 15.6568 4.34333 17.0002 6 17.0002H13.5C13.7761 17.0002 14 17.2241 14 17.5002V18.5002C13.9999 18.7763 13.7761 19.0002 13.5 19.0002H6C3.23876 19.0002 1.00029 16.7614 1 14.0002C1.0001 12.0784 2.08473 10.4122 3.67188 9.57539Z" fill="oklch(0.3523 0 0 / 1)" class="wd-icon-fill"></path>
</g>
</svg>