<svg width="24" height="24" viewBox="0 0 24 24" xmlns="http://www.w3.org/2000/svg" class="wd-icon wd-icon-onboarding-home" role="presentation" data-deprecated="true">
<!-- Deprecated icon: will be removed in the future. Use wd-icon-map-location.svg instead. -->
<path d="M12.5 6C12.7761 6 13 6.22386 13 6.5V7.5C13 7.77614 12.7761 8 12.5 8H4V18H20V11.5C20 11.2239 20.2239 11 20.5 11H21.5C21.7761 11 22 11.2239 22 11.5V18.5C22 19.3284 21.3284 20 20.5 20H3.5C2.67157 20 2 19.3284 2 18.5V7.5C2 6.67157 2.67157 6 3.5 6H12.5Z" fill="oklch(0.3523 0 0 / 1)" class="wd-icon-fill"></path>
<g>
<path d="M9.36909 11.2246C9.76187 10.9043 10.3409 10.9269 10.707 11.293L13 13.5859L14.9394 11.6465C15.1347 11.4514 15.4512 11.4513 15.6464 11.6465L16.3535 12.3535C16.5485 12.5487 16.5485 12.8653 16.3535 13.0605L13.707 15.707C13.3165 16.0975 12.6834 16.0975 12.2929 15.707L9.99995 13.4141L7.0605 16.3535C6.86526 16.5487 6.54873 16.5487 6.35347 16.3535L5.64644 15.6465C5.45119 15.4512 5.45119 15.1347 5.64644 14.9395L9.29292 11.293L9.36909 11.2246Z" fill="oklch(0.3523 0 0 / 1)" class="wd-icon-accent"></path>
<path d="M18 4C18.5522 4.00003 19 4.44773 19 5C19 5.55227 18.5522 5.99997 18 6C17.4477 6 17 5.55228 17 5C17 4.44772 17.4477 4 18 4Z" fill="oklch(0.3523 0 0 / 1)" class="wd-icon-accent"></path>
<path d="M18 1C20.2091 1.00003 22 2.79088 22 5C22 6.69446 21.2212 8.0795 20.458 9.03516C19.6909 9.9956 18.8728 10.6083 18.6318 10.7793C18.2523 11.0485 17.7476 11.0485 17.3681 10.7793C17.1271 10.6083 16.309 9.99564 15.5419 9.03516C14.7787 8.0795 14 6.69448 14 5C14 2.79086 15.7908 1 18 1ZM18 3C16.8954 3 16 3.89543 16 5C16 6.06916 16.4944 7.02322 17.1044 7.78711C17.4143 8.17505 17.7372 8.49214 18 8.72461C18.2627 8.49214 18.5856 8.17504 18.8955 7.78711C19.5055 7.02322 20 6.06915 20 5C20 3.89545 19.1045 3.00003 18 3Z" fill="oklch(0.3523 0 0 / 1)" class="wd-icon-accent"></path>
</g>
</svg>