<svg width="24" height="24" viewBox="0 0 24 24" xmlns="http://www.w3.org/2000/svg" class="wd-icon wd-icon-fx-loop" role="presentation" data-deprecated="true">
<!-- Deprecated icon: will be removed in the future. Use wd-icon-formula-loop.svg instead. -->
<g>
<path d="M13.067 14.6221C13.2648 14.3257 13.701 14.326 13.899 14.6221L15.6314 17.2207C15.8529 17.5529 15.6146 17.9979 15.2154 17.998H14.5338C14.5905 18.276 14.6939 18.544 14.8414 18.7891C15.0756 19.1781 15.4118 19.4964 15.8131 19.709C16.2145 19.9215 16.6672 20.0209 17.1207 19.9961C17.4069 19.9803 17.6876 19.9146 17.9498 19.8047C18.2043 19.698 18.5142 19.7524 18.6695 19.9805L18.9508 20.3945L19.232 20.8076C19.3871 21.036 19.3286 21.3496 19.0846 21.4785C18.5126 21.7806 17.8798 21.9574 17.2301 21.9932C16.4137 22.0379 15.6001 21.8591 14.8775 21.4766C14.1549 21.0939 13.5493 20.5218 13.1275 19.8213C12.7921 19.264 12.583 18.6416 12.5113 17.999L11.7506 17.998C11.3514 17.9978 11.1131 17.5529 11.3346 17.2207L13.067 14.6221Z" fill="oklch(0.3523 0 0 / 1)" class="wd-icon-fill"></path>
<path d="M16.7359 13.0068C17.5523 12.962 18.3659 13.1409 19.0885 13.5234C19.8111 13.9061 20.4166 14.4782 20.8385 15.1787C21.1735 15.7352 21.3837 16.3563 21.4557 16.998H22.2154C22.6147 16.9981 22.8528 17.4432 22.6314 17.7754L20.899 20.374C20.7011 20.6709 20.2649 20.6709 20.067 20.374L18.3356 17.7754C18.1144 17.4432 18.3524 16.9982 18.7516 16.998H19.4322C19.3754 16.7213 19.2715 16.455 19.1246 16.2109C18.8903 15.8219 18.5542 15.5036 18.1529 15.291C17.7515 15.0786 17.2988 14.979 16.8453 15.0039C16.5594 15.0197 16.2792 15.0845 16.0172 15.1943C15.7626 15.3011 15.4527 15.2468 15.2975 15.0186L15.0152 14.6055L14.735 14.1914C14.5801 13.963 14.6384 13.6494 14.8824 13.5205C15.4542 13.2186 16.0866 13.0427 16.7359 13.0068Z" fill="oklch(0.3523 0 0 / 1)" class="wd-icon-fill"></path>
<path d="M7.88731 3C8.04527 3.00023 8.16299 3.14502 8.13145 3.2998L7.9293 4.28613C7.90542 4.40219 7.80362 4.48611 7.68516 4.48633H6.85996C6.21251 4.48647 5.77991 4.7909 5.61485 5.59082L5.525 6.01465H6.73789C6.89668 6.01485 7.01493 6.16109 6.98203 6.31641L6.7711 7.30273C6.74642 7.418 6.64484 7.50095 6.52696 7.50098H5.20762L4.07871 12.8018C4.05411 12.9171 3.95246 12.9999 3.83457 13H2.41465C2.25618 12.9995 2.13776 12.8534 2.17051 12.6982L3.27403 7.50098H2.45567C2.2962 7.50045 2.17794 7.3521 2.2125 7.19629L2.43125 6.20996C2.45681 6.09596 2.55856 6.01485 2.67539 6.01465H3.58946L3.77403 5.14648C4.0788 3.73692 4.84113 3.00014 6.41563 3H7.88731Z" fill="oklch(0.3523 0 0 / 1)" class="wd-icon-fill"></path>
<path d="M9.37071 6C9.46823 6 9.55739 6.05697 9.59825 6.14551L10.5025 8.11035H10.5279L12.1285 6.09473C12.1759 6.03511 12.2487 6.00014 12.3248 6H14.1285C14.3455 6 14.4598 6.25741 14.3141 6.41797L11.4303 9.58398L13.0729 12.6318C13.1622 12.7982 13.042 12.9997 12.8531 13H11.3189C11.2238 12.9998 11.1363 12.9458 11.0943 12.8604L10.0836 10.8027H10.0582L8.38047 12.9062C8.33303 12.9654 8.26099 13 8.18516 13H6.35996C6.14284 12.9996 6.02893 12.7413 6.17539 12.5811L9.19493 9.29199L7.61973 6.36914C7.53025 6.20275 7.65156 6.00032 7.84043 6H9.37071Z" fill="oklch(0.3523 0 0 / 1)" class="wd-icon-fill"></path>
</g>
</svg>