<svg width="24" height="24" viewBox="0 0 24 24" xmlns="http://www.w3.org/2000/svg" class="wd-icon wd-icon-document-candidate-inactive" role="presentation" data-deprecated="true">
<!-- Deprecated icon: will be removed in the future. Use wd-icon-document-user-minus.svg instead. -->
<g>
<path d="M18 12C21.3137 12 24 14.6863 24 18C24 21.3137 21.3137 24 18 24C14.6863 24 12 21.3137 12 18C12 14.6863 14.6863 12 18 12ZM15 17V19H21V17H15Z" fill="oklch(0.3523 0 0 / 1)" class="wd-icon-fill"></path>
<path d="M18.5 1C19.3284 1 20 1.67157 20 2.5V9.5C20 9.77614 19.7761 10 19.5 10H18.5C18.2239 10 18 9.77614 18 9.5V3H6V21H10.5C10.7761 21 11 21.2239 11 21.5V22.5C11 22.7761 10.7761 23 10.5 23H5.5C4.67157 23 4 22.3284 4 21.5V2.5C4 1.67157 4.67157 1 5.5 1H18.5Z" fill="oklch(0.3523 0 0 / 1)" class="wd-icon-fill"></path>
<path d="M10.5 17C10.7761 17 11 17.2239 11 17.5V18.5C11 18.7761 10.7761 19 10.5 19H8.5C8.22386 19 8 18.7761 8 18.5V17.5C8 17.2239 8.22386 17 8.5 17H10.5Z" fill="oklch(0.3523 0 0 / 1)" class="wd-icon-fill"></path>
<path d="M10.5 14C10.7761 14 11 14.2239 11 14.5V15.5C11 15.7761 10.7761 16 10.5 16H8.5C8.22386 16 8 15.7761 8 15.5V14.5C8 14.2239 8.22386 14 8.5 14H10.5Z" fill="oklch(0.3523 0 0 / 1)" class="wd-icon-fill"></path>
<path d="M12 10C13.1147 10 14.1584 10.3043 15.0527 10.834C15.3918 11.0349 15.3098 11.5246 14.9551 11.6963C14.3293 11.9992 13.755 12.3925 13.25 12.8594C13.154 12.948 13.0292 13 12.8984 13H8.5L8.39941 12.9902C8.17145 12.9437 8 12.7417 8 12.5V11.751C8.00009 11.6089 8.05973 11.4726 8.16895 11.3818C9.20815 10.5189 10.5436 10 12 10Z" fill="oklch(0.3523 0 0 / 1)" class="wd-icon-fill"></path>
<path d="M12 5C13.1046 5 14 5.89543 14 7C14 8.10457 13.1046 9 12 9C10.8954 9 10 8.10457 10 7C10 5.89543 10.8954 5 12 5Z" fill="oklch(0.3523 0 0 / 1)" class="wd-icon-fill"></path>
</g>
</svg>