<svg width="24" height="24" viewBox="0 0 24 24" xmlns="http://www.w3.org/2000/svg" class="wd-icon wd-icon-inbox-fill" role="presentation" data-deprecated="true">
<!-- Deprecated icon: will be removed in the future. Use wd-icon-inbox.svg instead. -->
<path d="M2 12L6 4H18L22 12V19H2V12Z" fill="transparent" class="wd-icon-background"></path>
<path d="M7.75781 12C8.37572 13.7475 10.0409 15 12 15C13.9591 15 15.6243 13.7475 16.2422 12H22V19H2V12H7.75781Z" fill="oklch(0.3523 0 0 / 1)" class="wd-icon-accent"></path>
<path d="M18.1406 3.00977C18.4628 3.05546 18.7464 3.25641 18.8945 3.55273L22.8887 11.541C22.9061 11.5747 22.921 11.6097 22.9346 11.6455C22.9401 11.66 22.9444 11.6748 22.9492 11.6895C22.9552 11.7078 22.9609 11.7263 22.9658 11.7451C22.9694 11.7587 22.9726 11.7724 22.9756 11.7861C22.981 11.8109 22.9857 11.8359 22.9893 11.8613C22.9908 11.8724 22.992 11.8834 22.9932 11.8945C22.9968 11.9292 23 11.9643 23 12V19C23 19.5523 22.5523 20 22 20H2C1.44772 20 1 19.5523 1 19V12C1 11.8481 1.03411 11.7042 1.09473 11.5752C1.09825 11.5677 1.10175 11.5602 1.10547 11.5527L5.10547 3.55273L5.17676 3.43164C5.36169 3.16367 5.66854 3 6 3H18L18.1406 3.00977ZM3 18H21V13H16.8965C15.9868 14.7789 14.1385 16 12 16C9.86145 16 8.01317 14.7789 7.10352 13H3V18ZM3.61816 11H7.75781L7.91406 11.0127C8.27222 11.0693 8.57658 11.3174 8.7002 11.667C9.18153 13.028 10.4785 14 12 14C13.5215 14 14.8185 13.028 15.2998 11.667L15.3633 11.5234C15.536 11.2046 15.8714 11 16.2422 11H20.3818L17.3818 5H6.61816L3.61816 11Z" fill="oklch(0.3523 0 0 / 1)" class="wd-icon-fill"></path>
</svg>