<svg width="24" height="24" viewBox="0 0 24 24" xmlns="http://www.w3.org/2000/svg" class="wd-icon wd-icon-invisible" role="presentation" data-deprecated="true">
<!-- Deprecated icon: will be removed in the future. Use wd-icon-visible-strikethrough.svg instead. -->
<path d="M12.4271 5.00684C16.8366 5.14987 20.6874 7.49144 22.9271 10.9639C23.3339 11.5947 23.3339 12.4053 22.9271 13.0361C20.6875 16.5087 16.8367 18.8501 12.4271 18.9932L11.9984 19C7.41043 18.9999 3.38148 16.6207 1.06964 13.0361C0.663056 12.4054 0.662911 11.5946 1.06964 10.9639C3.38148 7.37929 7.41043 5.00012 11.9984 5L12.4271 5.00684Z" fill="transparent" class="wd-icon-background"></path>
<g>
<path d="M2.83342 2.14693C3.02868 1.95167 3.34617 1.95168 3.54143 2.14693L7.27971 5.88521C8.74362 5.314 10.3359 5.0005 11.9994 5.00045L12.4282 5.00728C16.838 5.1503 20.6896 7.49146 22.9291 10.9643C23.3358 11.5951 23.3359 12.4058 22.9291 13.0366C21.8309 14.7395 20.3448 16.168 18.5961 17.2006L21.8344 20.4389C22.0297 20.6342 22.0298 20.9517 21.8344 21.1469L21.1274 21.854C20.9322 22.049 20.6156 22.0488 20.4203 21.854L2.12737 3.56099C1.93211 3.36573 1.93211 3.04922 2.12737 2.85396L2.83342 2.14693ZM11.9994 7.00045C10.9044 7.00049 9.84824 7.16006 8.85198 7.45748L10.1391 8.74459C10.6874 8.43038 11.3222 8.25051 11.9994 8.25045C14.0705 8.25045 15.7494 9.92938 15.7494 12.0004C15.7494 12.6775 15.5684 13.3116 15.2543 13.8598L17.1254 15.7309C18.7845 14.8538 20.1937 13.5655 21.2153 11.9995C19.3123 9.08287 16.0697 7.12635 12.3617 7.00631L11.9994 7.00045Z" fill="oklch(0.3523 0 0 / 1)" class="wd-icon-fill"></path>
<path d="M3.56878 8.10787C3.77876 7.92857 4.09393 7.96638 4.26506 8.18306L4.57561 8.57564L4.88518 8.96822C5.05609 9.18495 5.01767 9.49849 4.80901 9.67916C4.11252 10.2822 3.49246 10.9716 2.96526 11.7299C2.85224 11.8926 2.85221 12.1083 2.96526 12.271C4.95341 15.1306 8.25832 17.0004 12.0004 17.0004C12.1405 17.0004 12.2805 16.9979 12.4194 16.9926C12.6951 16.9824 12.9366 17.1855 12.9594 17.4604L13.0414 18.4585C13.064 18.7335 12.8591 18.9757 12.5834 18.9878C12.3901 18.9962 12.1956 19.0004 12.0004 19.0004C7.41232 19.0004 3.38262 16.6213 1.07073 13.0366C0.663924 12.4058 0.663924 11.5951 1.07073 10.9643L1.37346 10.517C2.00261 9.6249 2.74058 8.81506 3.56878 8.10787Z" fill="oklch(0.3523 0 0 / 1)" class="wd-icon-fill"></path>
</g>
</svg>