<svg width="24" height="24" viewBox="0 0 24 24" xmlns="http://www.w3.org/2000/svg" class="wd-icon wd-icon-rows-plus" role="presentation" data-deprecated="true">
<!-- Deprecated icon: will be removed in the future. Use wd-icon-row-plus.svg instead. -->
<path d="M14.5 3C15.3284 3 16 3.67157 16 4.5V13.5C16 13.7761 15.7761 14 15.5 14H14.5C14.2239 14 14 13.7761 14 13.5V13H4V15H12.5C12.7761 15 13 15.2239 13 15.5V16.5C13 16.7761 12.7761 17 12.5 17H3.5C2.67157 17 2 16.3284 2 15.5V4.5C2 3.67157 2.67157 3 3.5 3H14.5ZM4 11H14V9H4V11ZM4 7H14V5H4V7Z" fill="oklch(0.3523 0 0 / 1)" class="wd-icon-fill"></path>
<path d="M19.4951 15C19.7713 15 19.9951 15.2239 19.9951 15.5V17.9951H22.5C22.7761 17.9951 23 18.219 23 18.4951V19.4951C23 19.7713 22.7761 19.9951 22.5 19.9951H19.9951V22.5C19.9951 22.7761 19.7713 23 19.4951 23H18.4951C18.219 23 17.9951 22.7761 17.9951 22.5V19.9951H15.5C15.2239 19.9951 15 19.7713 15 19.4951V18.4951C15 18.219 15.2239 17.9951 15.5 17.9951H17.9951V15.5C17.9951 15.2239 18.219 15 18.4951 15H19.4951Z" fill="oklch(0.3523 0 0 / 1)" class="wd-icon-accent"></path>
</svg>