<svg width="24" height="24" viewBox="0 0 24 24" xmlns="http://www.w3.org/2000/svg" class="wd-icon wd-icon-text-color" role="presentation" data-deprecated="true">
<!-- Deprecated icon: will be removed in the future. Use wd-icon-font-color.svg instead. -->
<path d="M12.7853 2C12.9932 2.00006 13.1796 2.12876 13.253 2.32324L18.1554 15.3232C18.2787 15.6503 18.0371 16 17.6876 16H16.3663C16.1538 15.9999 15.9638 15.8657 15.8937 15.665L14.7911 12.5H9.19055L8.06848 15.667C7.99772 15.8664 7.80941 15.9999 7.59777 16H6.31262C5.96367 15.9997 5.72217 15.651 5.84484 15.3242L10.7296 2.32422C10.8029 2.12931 10.9892 2.00006 11.1974 2H12.7853ZM11.9708 4.40039C11.5709 5.60027 11.1504 6.90002 10.6505 8.33984L9.8507 10.6201H14.131L13.3107 8.2998C12.8108 6.9001 12.3913 5.60017 11.9913 4.40039H11.9708Z" fill="oklch(0.3523 0 0 / 1)" class="wd-icon-fill"></path>
<path d="M20.5 20C20.7761 20 21 20.2239 21 20.5V22.5C21 22.7761 20.7761 23 20.5 23H3.5C3.22386 23 3 22.7761 3 22.5V20.5C3 20.2239 3.22386 20 3.5 20H20.5Z" fill="oklch(0.3523 0 0 / 1)" class="wd-icon-accent"></path>
</svg>