<svg width="24" height="24" viewBox="0 0 24 24" xmlns="http://www.w3.org/2000/svg" class="wd-icon wd-icon-fx" role="presentation" data-deprecated="true">
<!-- Deprecated icon: will be removed in the future. Use wd-icon-formula.svg instead. -->
<g>
<path d="M11.7021 2C12.0194 2 12.2572 2.29199 12.1924 2.60254L11.9834 3.60254C11.935 3.83411 11.7307 3.99981 11.4941 4H10.3808C9.14438 4.00021 8.29815 4.62975 7.97264 6.16992L7.7949 7H9.77244C10.0896 7.00015 10.3265 7.29207 10.2617 7.60254L10.0527 8.60254C10.0042 8.83406 9.80005 8.99998 9.56346 9H7.36815L5.31541 18.6055C5.26604 18.836 5.06196 19.001 4.82615 19.001H3.4619C3.14399 19.0007 2.90723 18.7074 2.97362 18.3965L4.9824 9H3.94432C3.6275 8.99951 3.39033 8.70772 3.45506 8.39746L3.66405 7.39746C3.71251 7.16607 3.91692 7.00029 4.1533 7H5.41014L5.6992 5.64551C6.21999 3.23696 7.47937 2.00011 10.1699 2H11.7021Z" fill="oklch(0.3523 0 0 / 1)" class="wd-icon-fill"></path>
<path d="M13.5586 7C13.7464 7.00006 13.9185 7.10618 14.0039 7.27344L15.9814 11.1455H16.0244L19.5127 7.16992C19.6076 7.0618 19.7448 7.00005 19.8887 7H21.7197C22.158 7 22.3844 7.52376 22.084 7.84277L17.1308 13.0977L19.9775 18.2588C20.1613 18.592 19.9196 19.001 19.539 19.001H18.0215C17.8346 19.001 17.663 18.8964 17.5771 18.7305L15.4814 14.6826H15.4385L11.7471 18.833C11.6522 18.9397 11.5158 19.001 11.373 19.001H9.54686C9.10831 19.001 8.8817 18.4761 9.1826 18.1572L14.3535 12.6855L11.6055 7.74316C11.4203 7.40992 11.6617 7 12.043 7H13.5586Z" fill="oklch(0.3523 0 0 / 1)" class="wd-icon-fill"></path>
</g>
</svg>