<svg width="24" height="24" viewBox="0 0 24 24" xmlns="http://www.w3.org/2000/svg" class="wd-icon wd-icon-sort-up" role="presentation" data-deprecated="true">
<!-- Deprecated icon: will be removed in the future. Use wd-icon-arrow-up-small.svg instead. -->
<path d="M11.3671 4.22475C11.5974 4.03676 11.8914 3.96644 12.1689 4.01381C12.335 4.04206 12.4959 4.11306 12.6337 4.22573L16.746 7.59194C16.9594 7.76675 16.9908 8.08144 16.8163 8.29506L16.4999 8.68178L16.1845 9.0685C16.0097 9.28237 15.6942 9.31362 15.4804 9.13881L12.9999 7.10951V19.5001C12.9998 19.7762 12.776 20.0001 12.4999 20.0001H11.4999C11.2238 20.0001 11 19.7762 10.9999 19.5001V7.10951L8.52042 9.13881C8.30682 9.31344 7.99218 9.28187 7.81729 9.0685L7.1835 8.29408C7.00921 8.08044 7.04046 7.76571 7.25382 7.59096L11.3671 4.22475Z" fill="oklch(0.3523 0 0 / 1)" class="wd-icon-fill"></path>
</svg>