<svg width="24" height="24" viewBox="0 0 24 24" xmlns="http://www.w3.org/2000/svg" class="wd-icon wd-icon-my-referrals" role="presentation" data-deprecated="true">
<!-- Deprecated icon: will be removed in the future. Use wd-icon-user-focus.svg instead. -->
<g>
<path d="M3.5 16C3.77614 16 4 16.2239 4 16.5V20H7.5C7.77614 20 8 20.2239 8 20.5V21.5C8 21.7761 7.77614 22 7.5 22H3.5C2.67157 22 2 21.3284 2 20.5V16.5C2 16.2239 2.22386 16 2.5 16H3.5Z" fill="oklch(0.3523 0 0 / 1)" class="wd-icon-fill"></path>
<path d="M21.5 16C21.7761 16 22 16.2239 22 16.5V20.5C22 21.3284 21.3284 22 20.5 22H16.5C16.2239 22 16 21.7761 16 21.5V20.5C16 20.2239 16.2239 20 16.5 20H20V16.5C20 16.2239 20.2239 16 20.5 16H21.5Z" fill="oklch(0.3523 0 0 / 1)" class="wd-icon-fill"></path>
<path d="M12 6C13.6569 6 15 7.34315 15 9C15 9.91102 14.5922 10.7252 13.9512 11.2754C14.9719 11.571 15.8967 12.0929 16.667 12.7822C16.8788 12.9718 16.9999 13.2431 17 13.5273V16C17 16.5523 16.5523 17 16 17H8C7.44772 17 7 16.5523 7 16V13.5273C7.00013 13.2431 7.12117 12.9718 7.33301 12.7822C8.10304 12.0931 9.02751 11.5711 10.0479 11.2754C9.40715 10.7252 9 9.91075 9 9C9 7.34315 10.3431 6 12 6ZM12 13C10.8736 13 9.83594 13.3718 9 14V15H15V14C14.1641 13.3718 13.1264 13 12 13ZM12 8C11.4477 8 11 8.44772 11 9C11 9.55228 11.4477 10 12 10C12.5523 10 13 9.55228 13 9C13 8.44772 12.5523 8 12 8Z" fill="oklch(0.3523 0 0 / 1)" class="wd-icon-fill"></path>
<path d="M7.5 2C7.77614 2 8 2.22386 8 2.5V3.5C8 3.77614 7.77614 4 7.5 4H4V7.5C4 7.77614 3.77614 8 3.5 8H2.5C2.22386 8 2 7.77614 2 7.5V3.5C2 2.67157 2.67157 2 3.5 2H7.5Z" fill="oklch(0.3523 0 0 / 1)" class="wd-icon-fill"></path>
<path d="M20.5 2C21.3284 2 22 2.67157 22 3.5V7.5C22 7.77614 21.7761 8 21.5 8H20.5C20.2239 8 20 7.77614 20 7.5V4H16.5C16.2239 4 16 3.77614 16 3.5V2.5C16 2.22386 16.2239 2 16.5 2H20.5Z" fill="oklch(0.3523 0 0 / 1)" class="wd-icon-fill"></path>
</g>
</svg>