<svg width="24" height="24" viewBox="0 0 24 24" xmlns="http://www.w3.org/2000/svg" class="wd-icon wd-icon-receipts" role="presentation" data-deprecated="true">
<!-- Deprecated icon: will be removed in the future. Use wd-icon-receipt.svg instead. -->
<g>
<path d="M15.5 12C15.7761 12 16 12.2239 16 12.5V13.5C16 13.7761 15.7761 14 15.5 14H8.5C8.22386 14 8 13.7761 8 13.5V12.5C8 12.2239 8.22386 12 8.5 12H15.5Z" fill="oklch(0.3523 0 0 / 1)" class="wd-icon-accent"></path>
<path d="M12.5 9C12.7761 9 13 9.22386 13 9.5V10.5C13 10.7761 12.7761 11 12.5 11H8.5C8.22386 11 8 10.7761 8 10.5V9.5C8 9.22386 8.22386 9 8.5 9H12.5Z" fill="oklch(0.3523 0 0 / 1)" class="wd-icon-accent"></path>
<path d="M15.5 9C15.7761 9 16 9.22386 16 9.5V10.5C16 10.7761 15.7761 11 15.5 11H14.5C14.2239 11 14 10.7761 14 10.5V9.5C14 9.22386 14.2239 9 14.5 9H15.5Z" fill="oklch(0.3523 0 0 / 1)" class="wd-icon-accent"></path>
<path d="M12.5 6C12.7761 6 13 6.22386 13 6.5V7.5C13 7.77614 12.7761 8 12.5 8H8.5C8.22386 8 8 7.77614 8 7.5V6.5C8 6.22386 8.22386 6 8.5 6H12.5Z" fill="oklch(0.3523 0 0 / 1)" class="wd-icon-accent"></path>
<path d="M15.5 6C15.7761 6 16 6.22386 16 6.5V7.5C16 7.77614 15.7761 8 15.5 8H14.5C14.2239 8 14 7.77614 14 7.5V6.5C14 6.22386 14.2239 6 14.5 6H15.5Z" fill="oklch(0.3523 0 0 / 1)" class="wd-icon-accent"></path>
</g>
<path d="M19 1C19.2652 1 19.5195 1.10543 19.707 1.29297C19.8946 1.48051 20 1.73478 20 2V22C20 22.3565 19.8103 22.6863 19.502 22.8652C19.1937 23.0441 18.8134 23.045 18.5039 22.8682L15.5 21.1514L12.4961 22.8682C12.1887 23.0438 11.8113 23.0438 11.5039 22.8682L8.5 21.1514L5.49609 22.8682C5.18664 23.045 4.80633 23.0441 4.49805 22.8652C4.18974 22.6863 4.00002 22.3565 4 22V2C4 1.44772 4.44772 1 5 1H19ZM6 20.2764L8.00391 19.1318L8.12207 19.0742C8.4045 18.9589 8.72705 18.9781 8.99609 19.1318L12 20.8477L15.0039 19.1318L15.1221 19.0742C15.4045 18.9589 15.7271 18.9781 15.9961 19.1318L18 20.2764V3H6V20.2764Z" fill="oklch(0.3523 0 0 / 1)" class="wd-icon-fill"></path>
</svg>