<svg width="24" height="24" viewBox="0 0 24 24" xmlns="http://www.w3.org/2000/svg" class="wd-icon wd-icon-transformation-groupby" role="presentation" data-deprecated="true">
<!-- Deprecated icon: will be removed in the future. Use wd-icon-group.svg instead. -->
<g>
<path d="M12 14.25C12.9665 14.25 13.75 15.0335 13.75 16C13.75 16.9665 12.9665 17.75 12 17.75C11.0335 17.75 10.25 16.9665 10.25 16C10.25 15.0335 11.0335 14.25 12 14.25Z" fill="oklch(0.3523 0 0 / 1)" class="wd-icon-fill"></path>
<path d="M12 6.25C12.9665 6.25 13.75 7.0335 13.75 8C13.75 8.9665 12.9665 9.75 12 9.75C11.0335 9.75 10.25 8.9665 10.25 8C10.25 7.0335 11.0335 6.25 12 6.25Z" fill="oklch(0.3523 0 0 / 1)" class="wd-icon-fill"></path>
<path d="M16 2C17.1046 2 18 2.89543 18 4V20C18 21.1046 17.1046 22 16 22H8C6.89543 22 6 21.1046 6 20V4C6 2.89543 6.89543 2 8 2H16ZM8 20H16V4H8V20Z" fill="oklch(0.3523 0 0 / 1)" class="wd-icon-fill"></path>
</g>
</svg>