<svg width="24" height="24" viewBox="0 0 24 24" xmlns="http://www.w3.org/2000/svg" class="wd-icon wd-icon-sort-down" role="presentation" data-deprecated="true">
<!-- Deprecated icon: will be removed in the future. Use wd-icon-arrow-down-small.svg instead. -->
<path d="M12.5002 4C12.7762 4.00014 13.0002 4.22395 13.0002 4.5V6.5C13.0002 6.50294 12.9993 6.50586 12.9992 6.50879V16.8906L15.4797 14.8613C15.6935 14.6864 16.009 14.7177 16.1838 14.9316L16.4992 15.3184L16.8156 15.7051C16.9903 15.9187 16.9589 16.2334 16.7453 16.4082L12.633 19.7744C12.4952 19.887 12.3343 19.9581 12.1682 19.9863C11.8907 20.0336 11.5967 19.9635 11.3664 19.7754L7.25314 16.4092C7.03994 16.2345 7.00885 15.9197 7.18283 15.7061L7.81662 14.9316C7.99148 14.7182 8.30612 14.6867 8.51975 14.8613L10.9992 16.8906V5.5C10.9992 5.49683 11.0002 5.49339 11.0002 5.49023V4.5C11.0002 4.22386 11.2241 4 11.5002 4H12.5002Z" fill="oklch(0.3523 0 0 / 1)" class="wd-icon-fill"></path>
</svg>