<svg width="24" height="24" viewBox="0 0 24 24" xmlns="http://www.w3.org/2000/svg" class="wd-icon wd-icon-messaging" role="presentation" data-deprecated="true">
<!-- Deprecated icon: will be removed in the future. Use wd-icon-comment-discussion.svg instead. -->
<path d="M11 9C9.89543 9 9 9.89543 9 11V16C9 17.1046 9.89543 18 11 18H17.1777C17.3737 18.6454 17.7261 19.2534 18.2363 19.7637C19.0047 20.5321 19.9942 20.9443 21 21V17.7295C21.5971 17.3835 22 16.7398 22 16V11C22 9.89543 21.1046 9 20 9H11Z" fill="transparent" class="wd-icon-background"></path>
<g>
<path d="M20 8C21.6569 8 23 9.34315 23 11V16C23 16.89 22.6109 17.6845 22 18.2314V21C22 21.2748 21.8871 21.5377 21.6875 21.7266C21.4879 21.9154 21.2187 22.0132 20.9443 21.998C19.7023 21.9292 18.4781 21.4195 17.5293 20.4707C17.0904 20.0317 16.7479 19.5321 16.4971 19H11C9.34315 19 8 17.6569 8 16V11C8 9.34315 9.34315 8 11 8H20ZM11 10C10.4477 10 10 10.4477 10 11V16C10 16.5177 10.3933 16.9438 10.8975 16.9951L11 17H17.1777C17.563 17 17.9091 17.2203 18.0752 17.5576L18.1348 17.71C18.2844 18.2024 18.5527 18.666 18.9434 19.0566C19.2557 19.369 19.6163 19.6015 20 19.7598V17.7295C20 17.3728 20.1904 17.0431 20.499 16.8643C20.7644 16.7104 20.9493 16.4442 20.9912 16.1348L21 16V11C21 10.4477 20.5523 10 20 10H11Z" fill="oklch(0.3523 0 0 / 1)" class="wd-icon-fill"></path>
<path d="M13 2C14.6569 2 16 3.34315 16 5V5.5C16 5.77614 15.7761 6 15.5 6H14.5C14.2239 6 14 5.77614 14 5.5V5C14 4.44772 13.5523 4 13 4H4C3.44772 4 3 4.44772 3 5V10L3.00879 10.1348C3.05074 10.4442 3.23561 10.7104 3.50098 10.8643C3.80961 11.0431 4 11.3728 4 11.7295V13.7559C4.01968 13.7477 4.03964 13.7401 4.05957 13.7324C4.35801 13.6016 4.63802 13.4281 4.88574 13.2148C5.09491 13.0348 5.4077 13.0051 5.61816 13.1836L6.38184 13.8311C6.59238 14.0098 6.61912 14.3282 6.4209 14.5205C5.86687 15.0579 5.19793 15.4651 4.47168 15.7168C4.46672 15.7185 4.462 15.721 4.45703 15.7227C4.16362 15.8234 3.86127 15.8999 3.55273 15.9473C3.54825 15.948 3.54353 15.9467 3.53906 15.9473C3.37934 15.9714 3.21814 15.989 3.05566 15.998C2.78127 16.0132 2.51213 15.9154 2.3125 15.7266C2.1129 15.5377 2 15.2748 2 15V12.2314C1.38911 11.6845 1 10.89 1 10V5C1 3.34315 2.34315 2 4 2H13Z" fill="oklch(0.3523 0 0 / 1)" class="wd-icon-fill"></path>
</g>
</svg>