<svg width="24" height="24" viewBox="0 0 24 24" xmlns="http://www.w3.org/2000/svg" class="wd-icon wd-icon-prospect" role="presentation" data-deprecated="true">
<!-- Deprecated icon: will be removed in the future. Use wd-icon-id-card-search.svg instead. -->
<g>
<path d="M21.5 4C22.3284 4 23 4.67157 23 5.5V12.5C23 12.7761 22.7761 13 22.5 13H21.5C21.2239 13 21 12.7761 21 12.5V6H3V18H10.5C10.7761 18 11 18.2239 11 18.5V19.5C11 19.7761 10.7761 20 10.5 20H2.5C1.67157 20 1 19.3284 1 18.5V5.5C1 4.67157 1.67157 4 2.5 4H21.5Z" fill="oklch(0.3523 0 0 / 1)" class="wd-icon-fill"></path>
<path d="M9 13C10.2687 13 11.4458 13.3943 12.415 14.0664C12.6231 14.211 12.6654 14.4933 12.5498 14.7188C12.4058 14.9991 12.2877 15.2955 12.1982 15.6035C12.1319 15.8318 11.9291 16 11.6914 16H5.5L5.39941 15.9902C5.17145 15.9437 5 15.7417 5 15.5V14.751C5.00009 14.6089 5.05973 14.4726 5.16895 14.3818C6.20815 13.5189 7.54364 13 9 13Z" fill="oklch(0.3523 0 0 / 1)" class="wd-icon-fill"></path>
<path d="M9 8C10.1046 8 11 8.89543 11 10C11 11.1046 10.1046 12 9 12C7.89543 12 7 11.1046 7 10C7 8.89543 7.89543 8 9 8Z" fill="oklch(0.3523 0 0 / 1)" class="wd-icon-fill"></path>
<path d="M18.5 9C18.7761 9 19 9.22386 19 9.5V10.5C19 10.7761 18.7761 11 18.5 11H14.5C14.2239 11 14 10.7761 14 10.5V9.5C14 9.22386 14.2239 9 14.5 9H18.5Z" fill="oklch(0.3523 0 0 / 1)" class="wd-icon-fill"></path>
</g>
<path d="M17 13C19.2091 13 21 14.7909 21 17C21 17.7417 20.7971 18.4358 20.4453 19.0312L22.1035 20.6895C22.2985 20.8846 22.2984 21.2012 22.1035 21.3965L21.3965 22.1035C21.2013 22.2987 20.8847 22.2986 20.6895 22.1035L19.0312 20.4453C18.4358 20.7971 17.7417 21 17 21C14.7909 21 13 19.2091 13 17C13 14.7909 14.7909 13 17 13ZM17 15C15.8954 15 15 15.8954 15 17C15 18.1046 15.8954 19 17 19C18.1046 19 19 18.1046 19 17C19 15.8954 18.1046 15 17 15Z" fill="oklch(0.3523 0 0 / 1)" class="wd-icon-accent"></path>
</svg>