<svg width="24" height="24" viewBox="0 0 24 24" xmlns="http://www.w3.org/2000/svg" class="wd-icon wd-icon-undo-l" role="presentation" data-deprecated="true">
<!-- Deprecated icon: will be removed in the future. Use wd-icon-undo.svg instead. -->
<path d="M8.99953 2.84654C8.99953 2.37665 8.41037 2.16646 8.11281 2.53014L2.2593 9.68346C2.10886 9.86753 2.1089 10.1322 2.2593 10.3163L8.11281 17.4706C8.41046 17.8338 8.99953 17.6229 8.99953 17.1532V13.1102C10.9558 13.3264 12.8178 13.8555 14.5337 14.6473C16.6089 15.6051 17.9071 17.4716 18.5386 19.6249C18.6029 19.8443 18.8012 19.9998 19.0298 19.9999H19.4995C19.7757 19.9999 19.9995 19.776 19.9995 19.4999V16.829C19.9994 13.4158 18.6303 9.97763 15.565 8.47642C13.5477 7.48853 11.3344 6.84017 8.99953 6.6024V2.84654Z" fill="transparent" class="wd-icon-background"></path>
<path d="M7.33818 1.89772C8.23047 0.807154 9.99931 1.43668 9.99931 2.84694V5.71803C12.1239 6.02982 14.1434 6.66815 16.0042 7.57936C19.5421 9.31209 20.9992 13.2044 20.9993 16.8294V19.5003C20.9992 20.3285 20.3276 21.0003 19.4993 21.0003H19.0296L18.9007 20.9944C18.2655 20.9402 17.7501 20.4914 17.5784 19.9065C17.0053 17.9523 15.8615 16.3622 14.1145 15.5559C12.8227 14.9598 11.4424 14.5235 9.99931 14.2669V17.1536C9.99906 18.5608 8.23328 19.1958 7.33916 18.1047L7.33818 18.1038L1.48467 10.9495L1.40556 10.843C1.03558 10.299 1.0618 9.56888 1.48467 9.05104L7.33916 1.8987L7.33818 1.89772ZM3.29228 9.99928L7.99931 15.7532V13.1106C7.99931 12.8265 8.12076 12.5552 8.33232 12.3655C8.54389 12.1761 8.82645 12.0855 9.10869 12.1165C11.1735 12.3446 13.1403 12.9033 14.9524 13.7395C16.8823 14.6301 18.1983 16.1878 18.9993 17.9846V16.8294C18.9992 13.6282 17.7176 10.6461 15.1253 9.37624C13.2121 8.43932 11.1127 7.82273 8.89775 7.59694C8.38775 7.54467 7.99946 7.11452 7.99931 6.60182V4.24635L3.29228 9.99928Z" fill="oklch(0.3523 0 0 / 1)" class="wd-icon-fill"></path>
</svg>