<svg width="24" height="24" viewBox="0 0 24 24" xmlns="http://www.w3.org/2000/svg" class="wd-icon wd-icon-add-footer-ws" role="presentation" data-deprecated="true">
<!-- Deprecated icon: will be removed in the future. Use wd-icon-plus.svg instead. -->
<path d="M12.4907 4C12.7669 4 12.9907 4.22386 12.9907 4.5V10.9902H19.5005C19.7766 10.9902 20.0005 11.2141 20.0005 11.4902V12.4902C20.0005 12.7664 19.7766 12.9902 19.5005 12.9902H12.9907V19.5C12.9907 19.7761 12.7669 20 12.4907 20H11.4907C11.2146 20 10.9907 19.7761 10.9907 19.5V12.9902H4.50049C4.22435 12.9902 4.00049 12.7664 4.00049 12.4902V11.4902C4.00049 11.2141 4.22435 10.9902 4.50049 10.9902H10.9907V4.5C10.9907 4.22386 11.2146 4 11.4907 4H12.4907Z" fill="oklch(0.3523 0 0 / 1)" class="wd-icon-fill"></path>
</svg>