<svg width="24" height="24" viewBox="0 0 24 24" xmlns="http://www.w3.org/2000/svg" class="wd-icon wd-icon-chevron-2xright" role="presentation" data-deprecated="true">
<!-- Deprecated icon: will be removed in the future. Use wd-icon-chevron-2x-right.svg instead. -->
<g>
<path d="M13.9544 4.25335C13.7796 4.04015 13.4649 4.00857 13.2513 4.18304L12.8636 4.49944L12.4779 4.81585C12.2642 4.99068 12.2318 5.30623 12.4066 5.51995L14.8411 8.49554L14.846 8.49944L17.7083 11.9994L12.4066 18.4799C12.2318 18.6936 12.2642 19.0092 12.4779 19.184L12.8636 19.5004L13.2513 19.8168C13.4649 19.9913 13.7796 19.9597 13.9544 19.7465L16.39 16.77C16.3914 16.7681 16.3924 16.7659 16.3939 16.7641L19.7747 12.6323C20.0755 12.2641 20.0756 11.7348 19.7747 11.3666L13.9544 4.25335Z" fill="oklch(0.3523 0 0 / 1)" class="wd-icon-fill"></path>
<path d="M6.95442 4.25335C6.77957 4.04015 6.46488 4.00857 6.25129 4.18304L5.8636 4.49944L5.47785 4.81585C5.26417 4.99068 5.23179 5.30623 5.40656 5.51995L7.84113 8.49554L7.84602 8.49944L10.7083 11.9994L5.40656 18.4799C5.23178 18.6936 5.26416 19.0092 5.47785 19.184L5.8636 19.5004L6.25129 19.8168C6.46488 19.9913 6.77957 19.9597 6.95442 19.7465L9.38996 16.77C9.39145 16.7681 9.39242 16.7659 9.39387 16.7641L12.7747 12.6323C13.0755 12.2641 13.0756 11.7348 12.7747 11.3666L6.95442 4.25335Z" fill="oklch(0.3523 0 0 / 1)" class="wd-icon-fill"></path>
</g>
</svg>