<svg width="24" height="24" viewBox="0 0 24 24" xmlns="http://www.w3.org/2000/svg" class="wd-icon wd-icon-chart" role="presentation" data-deprecated="true">
<!-- Deprecated icon: will be removed in the future. Use wd-icon-bar-chart.svg instead. -->
<g>
<path d="M7 20H3V8H7V20Z" fill="transparent" class="wd-icon-background"></path>
<path d="M14 20H10V2H14V20Z" fill="transparent" class="wd-icon-background"></path>
<path d="M21 20H17V11H21V20Z" fill="transparent" class="wd-icon-background"></path>
</g>
<g>
<path d="M7 7C7.55228 7 8 7.44772 8 8V20C8 20.5523 7.55228 21 7 21H3C2.44772 21 2 20.5523 2 20V8C2 7.44772 2.44772 7 3 7H7ZM4 19H6V9H4V19Z" fill="oklch(0.3523 0 0 / 1)" class="wd-icon-fill"></path>
<path d="M14 1C14.5523 1 15 1.44772 15 2V20C15 20.5523 14.5523 21 14 21H10C9.44772 21 9 20.5523 9 20V2C9 1.44772 9.44772 1 10 1H14ZM11 19H13V3H11V19Z" fill="oklch(0.3523 0 0 / 1)" class="wd-icon-fill"></path>
<path d="M21 10C21.5523 10 22 10.4477 22 11V20C22 20.5523 21.5523 21 21 21H17C16.4477 21 16 20.5523 16 20V11C16 10.4477 16.4477 10 17 10H21ZM18 19H20V12H18V19Z" fill="oklch(0.3523 0 0 / 1)" class="wd-icon-fill"></path>
</g>
</svg>