<svg width="24" height="24" viewBox="0 0 24 24" xmlns="http://www.w3.org/2000/svg" class="wd-icon wd-icon-autosum" role="presentation" data-deprecated="true">
<!-- Deprecated icon: will be removed in the future. Use wd-icon-auto-sum.svg instead. -->
<path d="M17.5 3C17.7761 3.00003 17.9999 3.22392 18 3.5V4.5C18 4.77612 17.7761 4.99997 17.5 5H7.81348L13.2227 11.2656C13.3796 11.4475 13.3848 11.7153 13.2354 11.9033L7.59082 19H17.5C17.7761 19 17.9999 19.2239 18 19.5V20.5C18 20.7761 17.7761 21 17.5 21H5.5C5.22386 21 5 20.7761 5 20.5V19.4033C5 19.2916 5.03759 19.1827 5.10645 19.0947L10.9697 11.6035L5.12012 4.77832C5.04247 4.68771 5 4.57148 5 4.45215V3.5C5.00005 3.2239 5.22389 3 5.5 3H17.5Z" fill="oklch(0.3523 0 0 / 1)" class="wd-icon-fill"></path>
</svg>