<svg width="24" height="24" viewBox="0 0 24 24" xmlns="http://www.w3.org/2000/svg" class="wd-icon wd-icon-unlink" role="presentation" data-deprecated="true">
<!-- Deprecated icon: will be removed in the future. Use wd-icon-link-strikethrough.svg instead. -->
<g>
<path d="M5.03078 10.173C5.24391 9.99764 5.55668 10.0548 5.71437 10.2814L6.28566 11.1017C6.44348 11.3283 6.38567 11.639 6.17921 11.8224C6.1151 11.8793 6.05227 11.9386 5.99074 12.0001L4.22316 13.7677C2.56343 15.4274 2.56343 18.1187 4.22316 19.7784C5.88283 21.4374 8.5734 21.4376 10.2329 19.7784L12.0015 18.0109C12.0631 17.9492 12.1222 17.8857 12.1792 17.8214C12.3625 17.6148 12.6724 17.5569 12.8989 17.715L13.3091 18.0011L13.7193 18.2853C13.9461 18.4429 14.0031 18.7565 13.8277 18.9698C13.6987 19.1266 13.5615 19.2789 13.4155 19.4249L11.648 21.1925C9.20741 23.633 5.24993 23.6326 2.8091 21.1925C0.368325 18.7517 0.368319 14.7944 2.8091 12.3536L4.57667 10.586C4.72268 10.44 4.87426 10.3019 5.03078 10.173Z" fill="oklch(0.3523 0 0 / 1)" class="wd-icon-fill"></path>
<path d="M2.83449 2.14659C3.02975 1.95143 3.34628 1.95137 3.54152 2.14659L21.8355 20.4396C22.0304 20.6349 22.0297 20.9515 21.8345 21.1466L21.1275 21.8536C20.9322 22.0487 20.6156 22.0487 20.4204 21.8536L2.12745 3.56066C1.93219 3.3654 1.93219 3.04889 2.12745 2.85363L2.83449 2.14659Z" fill="oklch(0.3523 0 0 / 1)" class="wd-icon-fill"></path>
<path d="M8.43995 14.1466C8.63523 13.9515 8.95178 13.9514 9.14699 14.1466L9.85402 14.8536C10.0489 15.0489 10.049 15.3655 9.85402 15.5607L8.11183 17.3028C7.91668 17.498 7.60009 17.4978 7.4048 17.3028L6.69777 16.5958C6.50251 16.4006 6.50251 16.084 6.69777 15.8888L8.43995 14.1466Z" fill="oklch(0.3523 0 0 / 1)" class="wd-icon-fill"></path>
<path d="M12.354 2.80773C14.7947 0.367052 18.7521 0.367249 21.1929 2.80773C23.6332 5.24854 23.6335 9.20596 21.1929 11.6466L19.4253 13.4142C19.2794 13.5601 19.1276 13.6974 18.9712 13.8263C18.758 14.0019 18.4444 13.9446 18.2866 13.7179L18.0015 13.3077L17.7153 12.8976C17.5576 12.6711 17.6157 12.3613 17.8218 12.1778C17.8859 12.1209 17.9497 12.0617 18.0112 12.0001L19.7788 10.2325C21.4384 8.57295 21.4381 5.88156 19.7788 4.22179C18.1192 2.56247 15.4287 2.56248 13.7691 4.22179L12.0005 5.98937C11.9389 6.05098 11.8788 6.11355 11.8218 6.17784C11.6385 6.3845 11.3286 6.44235 11.1021 6.28429L10.6929 5.99913L10.2827 5.71398C10.0557 5.55634 9.99779 5.24284 10.1734 5.02941C10.3023 4.87265 10.4404 4.72131 10.5864 4.57531L12.354 2.80773Z" fill="oklch(0.3523 0 0 / 1)" class="wd-icon-fill"></path>
<path d="M15.8892 6.69738C16.0844 6.50228 16.401 6.50217 16.5962 6.69738L17.3032 7.40441C17.4981 7.59964 17.4982 7.91627 17.3032 8.11144L15.561 9.85363C15.3659 10.0488 15.0493 10.0486 14.854 9.85363L14.147 9.1466C13.9517 8.95133 13.9517 8.63483 14.147 8.43956L15.8892 6.69738Z" fill="oklch(0.3523 0 0 / 1)" class="wd-icon-fill"></path>
</g>
<path d="M2.873 2.14663C3.06828 1.95148 3.38482 1.95141 3.58003 2.14663L21.873 20.4396C22.068 20.6349 22.0681 20.9514 21.873 21.1466L21.166 21.8537C20.9708 22.0488 20.6542 22.0487 20.4589 21.8537L2.16499 3.56069C1.96972 3.36543 1.96976 3.04892 2.16499 2.85366L2.873 2.14663Z" fill="oklch(0.3523 0 0 / 1)" class="wd-icon-accent"></path>
</svg>