<svg width="24" height="24" viewBox="0 0 24 24" xmlns="http://www.w3.org/2000/svg" class="wd-icon wd-icon-instance-mapping" role="presentation" data-deprecated="true">
<!-- Deprecated icon: will be removed in the future. Use wd-icon-instance-search.svg instead. -->
<path d="M16 12C18.2091 12 20 13.7909 20 16C20 16.7417 19.7971 17.4358 19.4453 18.0312L21.1035 19.6895C21.2985 19.8846 21.2984 20.2012 21.1035 20.3965L20.3965 21.1035C20.2013 21.2987 19.8847 21.2986 19.6895 21.1035L18.0312 19.4453C17.4358 19.7971 16.7417 20 16 20C13.7909 20 12 18.2091 12 16C12 13.7909 13.7909 12 16 12ZM16 14C14.8954 14 14 14.8954 14 16C14 17.1046 14.8954 18 16 18C17.1046 18 18 17.1046 18 16C18 14.8954 17.1046 14 16 14Z" fill="oklch(0.3523 0 0 / 1)" class="wd-icon-accent"></path>
<path d="M16.5 1C18.433 1 20 2.567 20 4.5C20 6.433 18.433 8 16.5 8C15.8971 8 15.3302 7.8466 14.835 7.57812L11.8887 10.5244C12.0531 10.7553 12.2009 10.9985 12.332 11.252C10.9136 12.3493 10 14.0678 10 16C10 16.9903 10.2412 17.9238 10.666 18.7471C9.65191 19.5314 8.3812 20 7 20C3.68629 20 1 17.3137 1 14C1 10.6863 3.68629 8 7 8C8.2955 8 9.49393 8.41222 10.4746 9.11035L13.4209 6.16406C13.1528 5.66906 13 5.10247 13 4.5C13 2.567 14.567 1 16.5 1Z" fill="oklch(0.3523 0 0 / 1)" class="wd-icon-fill"></path>
</svg>