<svg width="24" height="24" viewBox="0 0 24 24" xmlns="http://www.w3.org/2000/svg" class="wd-icon wd-icon-media-classroom" role="presentation" data-deprecated="true">
<!-- Deprecated icon: will be removed in the future. Use wd-icon-users.svg instead. -->
<g>
<path d="M9 13C11.6892 13 14.1424 14.0112 16 15.6738V19H2V15.6738C3.85765 14.0112 6.31076 13 9 13Z" fill="transparent" class="wd-icon-background"></path>
<path d="M9 4C10.6569 4 12 5.34315 12 7C12 8.65685 10.6569 10 9 10C7.34315 10 6 8.65685 6 7C6 5.34315 7.34315 4 9 4Z" fill="transparent" class="wd-icon-background"></path>
</g>
<g>
<path d="M9 12C11.9447 12 14.6331 13.1083 16.667 14.9287C16.8788 15.1184 17 15.3894 17 15.6738V19C17 19.5523 16.5523 20 16 20H2C1.44772 20 1 19.5523 1 19V15.6738C1 15.3894 1.12115 15.1184 1.33301 14.9287C3.36691 13.1083 6.05528 12 9 12ZM9 14C6.72381 14 4.63625 14.7992 3 16.1338V18H15V16.1338C13.3637 14.7992 11.2762 14 9 14Z" fill="oklch(0.3523 0 0 / 1)" class="wd-icon-fill"></path>
<path d="M9 3C11.2091 3 13 4.79086 13 7C13 9.20914 11.2091 11 9 11C6.79086 11 5 9.20914 5 7C5 4.79086 6.79086 3 9 3ZM9 5C7.89543 5 7 5.89543 7 7C7 8.10457 7.89543 9 9 9C10.1046 9 11 8.10457 11 7C11 5.89543 10.1046 5 9 5Z" fill="oklch(0.3523 0 0 / 1)" class="wd-icon-fill"></path>
</g>
<g>
<path d="M15 10C17.9447 10 20.6331 11.1083 22.667 12.9287C22.8788 13.1184 23 13.3894 23 13.6738V17C23 17.5523 22.5523 18 22 18H19V15.6738C19 14.8206 18.6367 14.0076 18.001 13.4385C16.7366 12.3068 15.2542 11.4124 13.627 10.8184C13.8306 10.5719 14.014 10.3084 14.1768 10.0312C14.4487 10.012 14.7232 10 15 10Z" fill="oklch(0.3523 0 0 / 1)" class="wd-icon-accent"></path>
<path d="M15 1C17.2091 1 19 2.79086 19 5C19 7.20914 17.2091 9 15 9C14.8858 9 14.7729 8.99375 14.6611 8.98438C14.8792 8.3631 15 7.69584 15 7C15 4.92232 13.9444 3.09056 12.3398 2.01367C13.0468 1.38349 13.9784 1 15 1Z" fill="oklch(0.3523 0 0 / 1)" class="wd-icon-accent"></path>
</g>
</svg>