<svg width="24" height="24" viewBox="0 0 24 24" xmlns="http://www.w3.org/2000/svg" class="wd-icon wd-icon-calculator-locked" role="presentation" data-deprecated="true">
<!-- Deprecated icon: will be removed in the future. Use wd-icon-calculator-lock.svg instead. -->
<g>
<path d="M18.5 11C20.433 11 22 12.567 22 14.5V15L22.0986 15.0049C22.3276 15.0276 22.5429 15.1289 22.707 15.293C22.8944 15.4804 22.9999 15.735 23 16V21C22.9998 21.5175 22.6066 21.9438 22.1025 21.9951L22 22H15C14.7349 22 14.4805 21.8945 14.293 21.707C14.1055 21.5196 14.0001 21.2651 14 21V16C14.0002 15.4825 14.3935 15.0563 14.8975 15.0049L15 15V14.5C15 12.567 16.567 11 18.5 11ZM16 20H21V17H16V20ZM18.5 13C17.6716 13 17 13.6716 17 14.5V15H20V14.5C20 13.6716 19.3284 13 18.5 13Z" fill="oklch(0.3523 0 0 / 1)" class="wd-icon-fill"></path>
<path d="M17.5 1C18.3284 1 19 1.67157 19 2.5V8.5C19 8.77614 18.7761 9 18.5 9H17.5C17.2239 9 17 8.77614 17 8.5V3H5V19H11.5C11.7761 19 12 19.2239 12 19.5V20.5C12 20.7761 11.7761 21 11.5 21H4.5C3.67157 21 3 20.3284 3 19.5V2.5C3 1.67157 3.67157 1 4.5 1H17.5Z" fill="oklch(0.3523 0 0 / 1)" class="wd-icon-fill"></path>
<path d="M8.5 15C8.77614 15 9 15.2239 9 15.5V16.5C9 16.7761 8.77614 17 8.5 17H6.5C6.22386 17 6 16.7761 6 16.5V15.5C6 15.2239 6.22386 15 6.5 15H8.5Z" fill="oklch(0.3523 0 0 / 1)" class="wd-icon-fill"></path>
<path d="M12.5 15C12.7761 15 13 15.2239 13 15.5V16.5C13 16.7761 12.7761 17 12.5 17H10.5C10.2239 17 10 16.7761 10 16.5V15.5C10 15.2239 10.2239 15 10.5 15H12.5Z" fill="oklch(0.3523 0 0 / 1)" class="wd-icon-fill"></path>
<path d="M8.5 12C8.77614 12 9 12.2239 9 12.5V13.5C9 13.7761 8.77614 14 8.5 14H6.5C6.22386 14 6 13.7761 6 13.5V12.5C6 12.2239 6.22386 12 6.5 12H8.5Z" fill="oklch(0.3523 0 0 / 1)" class="wd-icon-fill"></path>
<path d="M12.5 12C12.7761 12 13 12.2239 13 12.5V13.5C13 13.7761 12.7761 14 12.5 14H10.5C10.2239 14 10 13.7761 10 13.5V12.5C10 12.2239 10.2239 12 10.5 12H12.5Z" fill="oklch(0.3523 0 0 / 1)" class="wd-icon-fill"></path>
<path d="M15 4C15.5523 4 16 4.44772 16 5V9C16 9.55228 15.5523 10 15 10H7C6.44772 10 6 9.55228 6 9V5C6 4.44772 6.44772 4 7 4H15ZM8 8H14V6H8V8Z" fill="oklch(0.3523 0 0 / 1)" class="wd-icon-fill"></path>
</g>
<path d="M18.5 11C20.433 11 22 12.567 22 14.5V15L22.0986 15.0049C22.3276 15.0276 22.5429 15.1289 22.707 15.293C22.8944 15.4804 22.9999 15.735 23 16V21C22.9998 21.5175 22.6066 21.9438 22.1025 21.9951L22 22H15C14.7349 22 14.4805 21.8945 14.293 21.707C14.1055 21.5196 14.0001 21.2651 14 21V16C14.0002 15.4825 14.3935 15.0563 14.8975 15.0049L15 15V14.5C15 12.567 16.567 11 18.5 11ZM16 17V20H21V17H16ZM18.5 13C17.6716 13 17 13.6716 17 14.5V15H20V14.5C20 13.6716 19.3284 13 18.5 13Z" fill="oklch(0.3523 0 0 / 1)" class="wd-icon-accent"></path>
</svg>