<svg width="24" height="24" viewBox="0 0 24 24" xmlns="http://www.w3.org/2000/svg" class="wd-icon wd-icon-closedcaption" role="presentation" data-deprecated="true">
<!-- Deprecated icon: will be removed in the future. Use wd-icon-closed-caption.svg instead. -->
<path d="M2 8C2 6.34315 3.34315 5 5 5H19C20.6569 5 22 6.34315 22 8V16C22 17.6569 20.6569 19 19 19H5C3.34315 19 2 17.6569 2 16V8Z" fill="transparent" class="wd-icon-background"></path>
<path d="M19 4C21.2091 4 23 5.79086 23 8V16C23 18.2091 21.2091 20 19 20H5C2.79086 20 1 18.2091 1 16V8C1 5.79086 2.79086 4 5 4H19ZM5 6C3.89543 6 3 6.89543 3 8V16C3 17.1046 3.89543 18 5 18H19C20.1046 18 21 17.1046 21 16V8C21 6.89543 20.1046 6 19 6H5Z" fill="oklch(0.3523 0 0 / 1)" class="wd-icon-fill"></path>
<g>
<path d="M8.62109 8.52832C10.2206 8.52832 11.1909 9.38787 11.5029 10.5195C11.5811 10.8029 11.3467 11.0575 11.0527 11.0576H10.3994C10.1378 11.0576 9.92973 10.8519 9.85059 10.6025C9.69029 10.0975 9.3086 9.72559 8.62109 9.72559C7.70311 9.7256 7.14551 10.3828 7.14551 11.8408C7.14551 13.2988 7.73011 13.9736 8.62109 13.9736C9.30268 13.9736 9.68289 13.6006 9.84668 13.0986C9.92707 12.8525 10.1337 12.6505 10.3926 12.6504H11.0332C11.3341 12.6506 11.5695 12.9176 11.4805 13.2051C11.1393 14.3057 10.1997 15.1709 8.62109 15.1709C6.73111 15.1709 5.45313 13.8748 5.45312 11.8408C5.45312 9.80683 6.64111 8.52833 8.62109 8.52832Z" fill="oklch(0.3523 0 0 / 1)" class="wd-icon-accent"></path>
<path d="M15.5645 8.52832C17.1639 8.52832 18.1342 9.38787 18.4463 10.5195C18.5244 10.8029 18.2901 11.0575 17.9961 11.0576H17.3428C17.0811 11.0576 16.8731 10.8519 16.7939 10.6025C16.6336 10.0975 16.252 9.72559 15.5645 9.72559C14.6465 9.7256 14.0889 10.3828 14.0889 11.8408C14.0889 13.2988 14.6735 13.9736 15.5645 13.9736C16.246 13.9736 16.6263 13.6006 16.79 13.0986C16.8704 12.8525 17.0771 12.6505 17.3359 12.6504H17.9766C18.2774 12.6506 18.5129 12.9176 18.4238 13.2051C18.0826 14.3057 17.1431 15.1709 15.5645 15.1709C13.6745 15.1709 12.3965 13.8748 12.3965 11.8408C12.3965 9.80683 13.5845 8.52833 15.5645 8.52832Z" fill="oklch(0.3523 0 0 / 1)" class="wd-icon-accent"></path>
</g>
</svg>