<svg width="24" height="24" viewBox="0 0 24 24" xmlns="http://www.w3.org/2000/svg" class="wd-icon wd-icon-eraser-font" role="presentation" data-deprecated="true">
<!-- Deprecated icon: will be removed in the future. Use wd-icon-font-erase.svg instead. -->
<path d="M16.8982 11.4139C17.2888 11.0235 17.9218 11.0234 18.3123 11.4139L21.1404 14.2421C21.5309 14.6326 21.5308 15.2656 21.1404 15.6561L15.7976 20.9999H13.7556L11.241 18.4852C10.8506 18.0948 10.8507 17.4617 11.241 17.0712L16.8982 11.4139Z" fill="transparent" class="wd-icon-background"></path>
<path d="M7.3881 2.00293C7.59606 2.00293 7.78236 2.13166 7.85587 2.32617L11.6264 12.3232C11.7497 12.6502 11.508 12.9999 11.1586 13H9.61661C9.40223 13 9.21166 12.8632 9.14298 12.6602L8.47208 10.6748H4.48185L3.79728 12.6631C3.72777 12.8646 3.53777 12.9998 3.32462 13H1.84317C1.49367 13 1.25207 12.6503 1.3754 12.3232L5.14591 2.32617C5.21944 2.13171 5.40575 2.00293 5.61368 2.00293H7.3881ZM6.46134 4.50098C6.25711 5.30215 5.95904 6.32337 5.47208 7.76855L5.12638 8.77441H7.8129L7.43595 7.6582C6.9804 6.32298 6.68118 5.30214 6.47696 4.50098H6.46134Z" fill="oklch(0.3523 0 0 / 1)" class="wd-icon-fill"></path>
<path d="M17.6689 10.1231C17.6901 10.1237 17.7113 10.1237 17.7324 10.125C17.7732 10.1276 17.8139 10.1317 17.8545 10.1367C17.8734 10.1391 17.8923 10.1417 17.9111 10.1446C17.9554 10.1514 17.9992 10.1602 18.043 10.1699C18.056 10.1729 18.0691 10.1756 18.082 10.1787C18.129 10.1902 18.1755 10.2038 18.2217 10.2188C18.2341 10.2228 18.2464 10.2272 18.2588 10.2315C18.3022 10.2464 18.3452 10.2623 18.3877 10.2803C18.4091 10.2894 18.43 10.2997 18.4512 10.3096C18.4868 10.3263 18.5228 10.3425 18.5576 10.3614C18.5729 10.3696 18.5875 10.379 18.6025 10.3877C18.7514 10.4735 18.8923 10.5788 19.0195 10.7061L21.8477 13.5342C21.895 13.5816 21.9389 13.6319 21.9805 13.6826L21.9844 13.6866C22.037 13.751 22.0836 13.8187 22.127 13.8877C22.1485 13.922 22.1702 13.956 22.1895 13.9912C22.4102 14.3955 22.4794 14.8591 22.4004 15.3018C22.384 15.3934 22.3622 15.4842 22.333 15.5733C22.3039 15.6621 22.2665 15.7482 22.2246 15.833C22.2128 15.857 22.2023 15.8817 22.1895 15.9053C22.1772 15.9278 22.1636 15.9496 22.1504 15.9717C22.1013 16.0541 22.0474 16.1349 21.9854 16.211L21.9814 16.2139C21.9582 16.2423 21.9323 16.2686 21.9072 16.2959L21.8477 16.3633L18.2119 20H21.499C21.7752 20 21.999 20.2239 21.999 20.5V21.5C21.9989 21.7761 21.7751 22 21.499 22H9.49902C9.22296 22 8.99916 21.7761 8.99902 21.5V20.5C8.99902 20.2239 9.22288 20 9.49902 20H11.3418L10.5342 19.1924C9.753 18.4112 9.75415 17.145 10.5342 16.3643L12.9912 13.9063C12.9971 13.9002 13.0028 13.8938 13.0088 13.8877L16.1914 10.7061C16.3676 10.5299 16.5688 10.3946 16.7832 10.2979C16.798 10.2912 16.8123 10.2836 16.8271 10.2774C16.8727 10.2582 16.9193 10.2423 16.9658 10.2266C16.976 10.2232 16.9859 10.2191 16.9961 10.2158C17.0095 10.2116 17.0226 10.2062 17.0361 10.2022L17.165 10.1699C17.168 10.1693 17.1709 10.1686 17.1738 10.168C17.225 10.1567 17.2764 10.1479 17.3281 10.1407C17.3356 10.1396 17.3431 10.1387 17.3506 10.1377C17.4 10.1314 17.4494 10.1267 17.499 10.1241C17.5133 10.1233 17.5277 10.1235 17.542 10.1231C17.5843 10.1217 17.6266 10.1217 17.6689 10.1231ZM11.9482 17.7783L14.1699 20H15.3838L15.8379 19.5449L13.0098 16.7168L11.9482 17.7783ZM14.4238 15.3018L17.252 18.1309L20.4326 14.9483L17.6055 12.1211L14.4238 15.3018Z" fill="oklch(0.3523 0 0 / 1)" class="wd-icon-accent"></path>
</svg>