<svg width="24" height="24" viewBox="0 0 24 24" xmlns="http://www.w3.org/2000/svg" class="wd-icon wd-icon-ext-link" role="presentation" data-deprecated="true">
<!-- Deprecated icon: will be removed in the future. Use wd-icon-external-link.svg instead. -->
<g>
<path d="M11.5 3.99976C11.776 3.99976 11.9998 4.22379 12 4.49976V5.49976C12 5.7759 11.7761 5.99976 11.5 5.99976L6 6.00073V18.0007H18V12.4998C18.0002 12.2238 18.224 11.9998 18.5 11.9998H19.5C19.776 11.9998 19.9998 12.2238 20 12.4998V18.5007C19.9997 19.3289 19.3283 20.0007 18.5 20.0007H5.5C4.67173 20.0007 4.00026 19.3289 4 18.5007V5.50073C4 4.6723 4.67157 4.00073 5.5 4.00073H7.49121C7.49414 4.00068 7.49706 3.99976 7.5 3.99976H11.5Z" fill="oklch(0.3523 0 0 / 1)" class="wd-icon-fill"></path>
<path d="M20.5 2.99976C20.7759 2.99992 20.9998 3.22387 21 3.49976V9.49976C21 9.7758 20.776 9.99959 20.5 9.99976H19.5C19.224 9.99959 19 9.7758 19 9.49976V6.41479L11.5605 13.8533C11.3653 14.0484 11.0487 14.0485 10.8535 13.8533L10.1465 13.1462C9.95155 12.951 9.95143 12.6344 10.1465 12.4392L17.5869 4.99976H14.5C14.224 4.99959 14 4.7758 14 4.49976V3.49976C14.0002 3.22387 14.2241 2.99992 14.5 2.99976H20.5Z" fill="oklch(0.3523 0 0 / 1)" class="wd-icon-fill"></path>
</g>
</svg>