<svg width="24" height="24" viewBox="0 0 24 24" xmlns="http://www.w3.org/2000/svg" class="wd-icon wd-icon-arrow-circle" role="presentation" data-deprecated="true">
<!-- Deprecated icon: will be removed in the future. Use wd-icon-arrow-up-circle.svg instead. -->
<g>
<path d="M11.8311 6.01367C12.1085 5.96631 12.4025 6.03668 12.6328 6.22461L16.7461 9.59082C16.9595 9.76557 16.9907 10.0803 16.8164 10.2939L16.1826 11.0684C16.0077 11.2818 15.6931 11.3133 15.4795 11.1387L13 9.10938V17.5C12.9998 17.7759 12.7759 17.9998 12.5 18H11.5C11.2241 17.9998 11.0002 17.7759 11 17.5V9.10938L8.51953 11.1387C8.30572 11.3135 7.99021 11.2822 7.81543 11.0684L7.5 10.6816L7.18359 10.2949C7.00925 10.0813 7.04055 9.76657 7.25391 9.5918L11.3662 6.22559C11.5041 6.11293 11.6649 6.04192 11.8311 6.01367Z" fill="oklch(0.3523 0 0 / 1)" class="wd-icon-fill"></path>
<path d="M12 1C18.0751 1 23 5.92487 23 12C23 18.0751 18.0751 23 12 23C5.92487 23 1 18.0751 1 12C1 5.92487 5.92487 1 12 1ZM12 3C7.02944 3 3 7.02944 3 12C3 16.9706 7.02944 21 12 21C16.9706 21 21 16.9706 21 12C21 7.02944 16.9706 3 12 3Z" fill="oklch(0.3523 0 0 / 1)" class="wd-icon-fill"></path>
</g>
</svg>