<svg width="24" height="24" viewBox="0 0 24 24" xmlns="http://www.w3.org/2000/svg" class="wd-icon wd-icon-thumbs-up-outlined" role="presentation" data-deprecated="true">
<!-- Deprecated icon: will be removed in the future. Use wd-icon-thumbs-up.svg instead. -->
<path d="M12.1533 1.99976C14.2082 1.99976 16.1548 3.6414 15.8926 5.92749C15.8439 6.35103 15.7787 6.77221 15.6982 7.18921C15.5781 7.81137 15.4221 8.41604 15.2354 8.99976H19C20.638 8.99976 22.0518 10.3495 21.877 12.0935C21.727 13.5857 21.385 15.7162 20.5801 17.5017C19.7825 19.2708 18.3757 20.9998 16 20.9998H4.5C3.67157 20.9998 3 20.3282 3 19.4998V10.4998C3.00017 9.67147 3.67167 8.99976 4.5 8.99976H7.5L8.98828 7.01538C9.70806 6.0556 10.2287 4.9616 10.5195 3.79858L10.7793 2.75757L10.835 2.59741C10.9923 2.23937 11.3484 1.99976 11.75 1.99976H12.1533ZM12.4609 4.28296C12.1053 5.70553 11.4671 7.04218 10.5879 8.2146L8.99121 10.3425C8.99661 10.3942 8.99999 10.4466 9 10.4998V18.9998H16C17.1909 18.9998 18.0785 18.184 18.7568 16.6794C19.4275 15.1917 19.7435 13.3191 19.8867 11.8943C19.9321 11.4406 19.5708 10.9998 19 10.9998H13.7949C13.4581 10.9998 13.1439 10.8302 12.959 10.5486C12.7743 10.2669 12.7438 9.91033 12.8779 9.60132C13.2512 8.74131 13.5434 7.80443 13.7354 6.8103C13.8064 6.44233 13.8635 6.07109 13.9062 5.69897C13.9934 4.93733 13.4251 4.19434 12.5225 4.03296L12.4609 4.28296ZM5 18.9998H7V10.9998H5V18.9998Z" fill="oklch(0.3523 0 0 / 1)" class="wd-icon-fill"></path>
</svg>