<svg width="24" height="24" viewBox="0 0 24 24" xmlns="http://www.w3.org/2000/svg" class="wd-icon wd-icon-fx-writeback" role="presentation" data-deprecated="true">
<!-- Deprecated icon: will be removed in the future. Use wd-icon-formula-bolt.svg instead. -->
<g>
<path d="M19.0504 11C19.3826 11 19.6222 11.3183 19.5309 11.6377L18.571 15H21.1374C21.5212 15 21.7622 15.4147 21.5719 15.748L17.6403 22.6289C17.3646 23.1113 16.625 22.8514 16.7116 22.3027L17.5514 17H15.0895C14.7806 17 14.5456 16.7227 14.5963 16.418L15.4294 11.418C15.4695 11.1769 15.6782 11.0001 15.9225 11H19.0504Z" fill="oklch(0.3523 0 0 / 1)" class="wd-icon-fill"></path>
<path d="M8.88736 3C9.04528 3.00023 9.16393 3.14506 9.13248 3.2998L8.93033 4.28613C8.9065 4.40229 8.80376 4.48615 8.68521 4.48633H7.86099C7.21331 4.48633 6.78099 4.79077 6.61588 5.59082L6.52603 6.01465H7.73795C7.89666 6.01487 8.01586 6.16115 7.98306 6.31641L7.77213 7.30273C7.74753 7.41786 7.64565 7.50067 7.52799 7.50098H6.20865L5.07974 12.8018C5.05521 12.9169 4.95327 12.9996 4.8356 13H3.41568C3.25682 12.9999 3.13864 12.8537 3.17154 12.6982L4.27506 7.50098H3.4567C3.29686 7.50086 3.1779 7.35235 3.21256 7.19629L3.43228 6.20996C3.45792 6.09589 3.55945 6.01465 3.67642 6.01465H4.59049L4.77506 5.14648C5.07987 3.73683 5.84189 3 7.41666 3H8.88736Z" fill="oklch(0.3523 0 0 / 1)" class="wd-icon-fill"></path>
<path d="M10.3717 6C10.469 6.00022 10.5575 6.0572 10.5983 6.14551L11.5036 8.11035H11.529L13.1295 6.09473C13.177 6.0351 13.2496 6 13.3258 6H15.1295C15.3464 6.00029 15.46 6.25752 15.3141 6.41797L12.4303 9.58398L14.0739 12.6318C14.163 12.7982 14.042 12.9997 13.8532 13H12.32C12.2247 13 12.1374 12.9458 12.0954 12.8604L11.0846 10.8027H11.0592L9.3815 12.9062C9.33414 12.9655 9.26202 12.9999 9.18619 13H7.36099C7.14343 13 7.02939 12.7414 7.17642 12.5811L10.196 9.29199L8.62076 6.36914C8.53109 6.20271 8.65155 6.00032 8.84049 6H10.3717Z" fill="oklch(0.3523 0 0 / 1)" class="wd-icon-fill"></path>
</g>
</svg>