<svg width="24" height="24" viewBox="0 0 24 24" xmlns="http://www.w3.org/2000/svg" class="wd-icon wd-icon-speech-bubble" role="presentation" data-deprecated="true">
<!-- Deprecated icon: will be removed in the future. Use wd-icon-assistant.svg instead. -->
<path d="M12 2.00073C16.9706 2.00073 21 6.03017 21 11.0007C20.9997 15.9711 16.9704 20.0007 12 20.0007C10.7883 20.0007 9.63322 19.7591 8.57812 19.325C8.53752 19.3683 8.49741 19.4125 8.45508 19.4548C7.49464 20.4153 6.25725 20.9301 5 20.9998V16.6541C3.75035 15.1088 3.00011 13.1428 3 11.0007C3 6.0302 7.02947 2.00077 12 2.00073Z" fill="transparent" class="wd-icon-background"></path>
<path d="M12 1.00073C17.5228 1.0008 22 5.47793 22 11.0007L21.9873 11.5154C21.7192 16.7987 17.3501 21.0007 12 21.0007C10.8877 21.0007 9.81825 20.8144 8.81836 20.4783C7.73279 21.4154 6.40343 21.923 5.05566 21.9978C4.78132 22.013 4.51212 21.9151 4.3125 21.7263C4.11292 21.5375 4.00003 21.2745 4 20.9998V16.9958C2.82937 15.4364 2.10106 13.5232 2.00977 11.4451L2 11.0007C2 5.4779 6.4772 1.00078 12 1.00073ZM12 3.00073C7.58175 3.00077 4 6.58249 4 11.0007L4.00781 11.3562C4.08523 13.1219 4.73553 14.7368 5.77734 16.0251C5.92121 16.2031 6 16.4252 6 16.6541V19.8083C6.63931 19.6074 7.24104 19.2548 7.74805 18.7478C7.77476 18.7211 7.79362 18.6991 7.84766 18.6414C8.13171 18.3378 8.57456 18.242 8.95898 18.4001C9.89657 18.7859 10.9225 19.0007 12 19.0007C16.418 19.0007 19.9997 15.4188 20 11.0007C20 6.5825 16.4182 3.0008 12 3.00073Z" fill="oklch(0.3523 0 0 / 1)" class="wd-icon-fill"></path>
</svg>