<svg width="24" height="24" viewBox="0 0 24 24" xmlns="http://www.w3.org/2000/svg" class="wd-icon wd-icon-rpm" role="presentation" data-deprecated="true">
<!-- Deprecated icon: will be removed in the future. Use wd-icon-gauge.svg instead. -->
<g>
<path d="M11.9998 2C14.175 2.00009 16.3024 2.64514 18.1111 3.85352C19.9198 5.06211 21.3304 6.78037 22.1629 8.79004C22.9953 10.7998 23.2131 13.012 22.7889 15.1455C22.397 17.1154 21.4738 18.9382 20.1238 20.417C19.9377 20.6207 19.6199 20.6198 19.4246 20.4248L18.7176 19.7178C18.5225 19.5225 18.5238 19.2067 18.7078 19.001C19.7791 17.8034 20.5123 16.3377 20.827 14.7559C21.1742 13.0101 20.9954 11.2001 20.3143 9.55566C19.6331 7.91148 18.4795 6.50541 16.9998 5.5166C15.52 4.52801 13.7794 4.00009 11.9998 4C10.2202 4.00012 8.47958 4.528 6.99982 5.5166C5.52013 6.50542 4.36651 7.9115 3.68536 9.55566C3.00426 11.2001 2.82545 13.0101 3.17267 14.7559C3.48736 16.3378 4.22143 17.8033 5.29278 19.001C5.47645 19.2067 5.47694 19.5226 5.28204 19.7178L4.57501 20.4248C4.37989 20.6197 4.06295 20.6203 3.87677 20.417C2.52674 18.9382 1.60262 17.1155 1.21075 15.1455C0.786509 13.012 1.00433 10.7998 1.83673 8.79004C2.66925 6.78038 4.07987 5.06212 5.88849 3.85352C7.69716 2.64512 9.82461 2.00012 11.9998 2Z" fill="oklch(0.3523 0 0 / 1)" class="wd-icon-fill"></path>
<path d="M16.3377 8.05371C16.7174 7.93052 17.0682 8.28144 16.9451 8.66113C16.3811 10.3981 15.0827 14.1593 14.1209 15.1211C12.9493 16.2924 11.0492 16.2926 9.87775 15.1211C8.70661 13.9496 8.70653 12.0494 9.87775 10.8779C10.8395 9.91617 14.6006 8.61778 16.3377 8.05371ZM11.9998 12C11.4477 12.0002 10.9998 12.4479 10.9998 13C10.9999 13.5521 11.4478 13.9998 11.9998 14C12.5519 13.9998 12.9997 13.5521 12.9998 13C12.9998 12.4479 12.5519 12.0002 11.9998 12Z" fill="oklch(0.3523 0 0 / 1)" class="wd-icon-fill"></path>
</g>
</svg>