<svg width="24" height="24" viewBox="0 0 24 24" xmlns="http://www.w3.org/2000/svg" class="wd-icon wd-icon-virtual-version-locked" role="presentation" data-deprecated="true">
<!-- Deprecated icon: will be removed in the future. Use wd-icon-virtual-version-lock.svg instead. -->
<g>
<path d="M5.5 19C5.77614 19 6 19.2239 6 19.5V21H6.5C6.77614 21 7 21.2239 7 21.5V22.5C7 22.7761 6.77614 23 6.5 23H5.5C4.67157 23 4 22.3284 4 21.5V19.5C4 19.2239 4.22386 19 4.5 19H5.5Z" fill="oklch(0.3523 0 0 / 1)" class="wd-icon-fill"></path>
<path d="M11.5 21C11.7761 21 12 21.2239 12 21.5V22.5C12 22.7761 11.7761 23 11.5 23H9.5C9.22386 23 9 22.7761 9 22.5V21.5C9 21.2239 9.22386 21 9.5 21H11.5Z" fill="oklch(0.3523 0 0 / 1)" class="wd-icon-fill"></path>
<path d="M5.5 13C5.77614 13 6 13.2239 6 13.5V16.5C6 16.7761 5.77614 17 5.5 17H4.5C4.22386 17 4 16.7761 4 16.5V13.5C4 13.2239 4.22386 13 4.5 13H5.5Z" fill="oklch(0.3523 0 0 / 1)" class="wd-icon-fill"></path>
<path d="M5.5 7C5.77614 7 6 7.22386 6 7.5V10.5C6 10.7761 5.77614 11 5.5 11H4.5C4.22386 11 4 10.7761 4 10.5V7.5C4 7.22386 4.22386 7 4.5 7H5.5Z" fill="oklch(0.3523 0 0 / 1)" class="wd-icon-fill"></path>
<path d="M12.5 8C12.7761 8 13 8.22386 13 8.5V9.5C13 9.77614 12.7761 10 12.5 10H8.5C8.22386 10 8 9.77614 8 9.5V8.5C8 8.22386 8.22386 8 8.5 8H12.5Z" fill="oklch(0.3523 0 0 / 1)" class="wd-icon-fill"></path>
<path d="M19.5 7C19.7761 7 20 7.22386 20 7.5V9.5C20 9.77614 19.7761 10 19.5 10H18.5C18.2239 10 18 9.77614 18 9.5V7.5C18 7.22386 18.2239 7 18.5 7H19.5Z" fill="oklch(0.3523 0 0 / 1)" class="wd-icon-fill"></path>
<path d="M15.5 5C15.7761 5 16 5.22386 16 5.5V6.5C16 6.77614 15.7761 7 15.5 7H8.5C8.22386 7 8 6.77614 8 6.5V5.5C8 5.22386 8.22386 5 8.5 5H15.5Z" fill="oklch(0.3523 0 0 / 1)" class="wd-icon-fill"></path>
<path d="M7.5 1C7.77614 1 8 1.22386 8 1.5V2.5C8 2.77614 7.77614 3 7.5 3H6V4.5C6 4.77614 5.77614 5 5.5 5H4.5C4.22386 5 4 4.77614 4 4.5V2.5C4 1.67157 4.67157 1 5.5 1H7.5Z" fill="oklch(0.3523 0 0 / 1)" class="wd-icon-fill"></path>
<path d="M18.5 1C19.3284 1 20 1.67157 20 2.5V4.5C20 4.77614 19.7761 5 19.5 5H18.5C18.2239 5 18 4.77614 18 4.5V3H16.5C16.2239 3 16 2.77614 16 2.5V1.5C16 1.22386 16.2239 1 16.5 1H18.5Z" fill="oklch(0.3523 0 0 / 1)" class="wd-icon-fill"></path>
<path d="M13.5 1C13.7761 1 14 1.22386 14 1.5V2.5C14 2.77614 13.7761 3 13.5 3H10.5C10.2239 3 10 2.77614 10 2.5V1.5C10 1.22386 10.2239 1 10.5 1H13.5Z" fill="oklch(0.3523 0 0 / 1)" class="wd-icon-fill"></path>
</g>
<path d="M18.5 12C20.433 12 22 13.567 22 15.5V16L22.0986 16.0049C22.3276 16.0276 22.5429 16.1289 22.707 16.293C22.8944 16.4804 22.9999 16.735 23 17V22C22.9998 22.5175 22.6066 22.9438 22.1025 22.9951L22 23H15C14.7349 23 14.4805 22.8945 14.293 22.707C14.1055 22.5196 14.0001 22.2651 14 22V17C14.0002 16.4825 14.3935 16.0563 14.8975 16.0049L15 16V15.5C15 13.567 16.567 12 18.5 12ZM16 18V21H21V18H16ZM18.5 14C17.6716 14 17 14.6716 17 15.5V16H20V15.5C20 14.6716 19.3284 14 18.5 14Z" fill="oklch(0.3523 0 0 / 1)" class="wd-icon-accent"></path>
</svg>