<svg width="24" height="24" viewBox="0 0 24 24" xmlns="http://www.w3.org/2000/svg" class="wd-icon wd-icon-timeline-performance-input" role="presentation" data-deprecated="true">
<!-- Deprecated icon: will be removed in the future. Use wd-icon-user-star.svg instead. -->
<g>
<path d="M11.9995 12C15.6261 12 18.9436 13.3331 21.4858 15.5342C21.8194 15.823 21.9995 16.2376 21.9995 16.6611V20.5C21.9995 21.3284 21.3279 22 20.4995 22H3.49951C2.72285 22 2.08412 21.4097 2.00732 20.6533L1.99951 20.5V16.6611L2.0083 16.5029C2.04724 16.1358 2.22131 15.7869 2.51318 15.5342L2.99854 15.1318C5.4711 13.1717 8.59947 12 11.9995 12Z" fill="transparent" class="wd-icon-background"></path>
<path d="M11.9995 2C14.2087 2 15.9995 3.79086 15.9995 6C15.9995 8.20914 14.2087 10 11.9995 10C9.79037 10 7.99951 8.20914 7.99951 6C7.99951 3.79086 9.79037 2 11.9995 2Z" fill="transparent" class="wd-icon-background"></path>
</g>
<g>
<path d="M12 12C12.1365 12 12.2726 12.0021 12.4082 12.0059C12.4098 12.0059 12.4115 12.0058 12.4131 12.0059L12.584 12.0127C12.7843 12.0207 12.9835 12.0327 13.1816 12.0488C13.2018 12.0504 13.2221 12.051 13.2422 12.0527C13.2643 12.0546 13.2865 12.0566 13.3086 12.0586C13.319 12.0595 13.3294 12.0606 13.3398 12.0615C13.484 12.0748 13.6276 12.0909 13.7705 12.1084C13.7751 12.109 13.7796 12.1098 13.7842 12.1104C13.8376 12.1169 13.8911 12.1227 13.9443 12.1299C13.9626 12.1323 13.9808 12.1352 13.999 12.1377C14.1294 12.1558 14.2594 12.1748 14.3887 12.1963C14.4105 12.1999 14.4323 12.2033 14.4541 12.207C14.491 12.2133 14.5277 12.221 14.5645 12.2275C14.5804 12.2304 14.5964 12.2334 14.6123 12.2363C14.6426 12.2418 14.6729 12.2472 14.7031 12.2529L14.7012 12.2539C14.804 12.2731 14.9068 12.2919 15.0088 12.3135C15.0502 12.3222 15.0916 12.3308 15.1328 12.3398C15.162 12.3463 15.1916 12.3528 15.2207 12.3594L15.2217 12.3604C15.6063 12.4477 15.9857 12.5503 16.3584 12.667C16.6217 12.7494 16.7586 13.0357 16.667 13.2959L16.334 14.2393C16.242 14.4996 15.9563 14.6349 15.6924 14.5537C15.3641 14.4527 15.0297 14.3654 14.6904 14.291C14.6657 14.2856 14.641 14.2797 14.6162 14.2744C14.3079 14.2088 13.9952 14.1547 13.6787 14.1123C13.3466 14.0678 13.0101 14.0377 12.6699 14.0195C12.4481 14.0075 12.2248 14 12 14C8.95518 14 6.16846 15.0895 4 16.8984V20H13.5C13.7761 20 14 20.2239 14 20.5V21.5C14 21.7761 13.7761 22 13.5 22H3.5C2.72334 22 2.08461 21.4097 2.00781 20.6533L2 20.5V16.6611L2.00879 16.5029C2.04773 16.1358 2.2218 15.7869 2.51367 15.5342L2.99902 15.1318C5.47159 13.1717 8.59996 12 12 12Z" fill="oklch(0.3523 0 0 / 1)" class="wd-icon-fill"></path>
<path d="M12 1C14.7614 1 17 3.23858 17 6C17 8.76142 14.7614 11 12 11C9.23858 11 7 8.76142 7 6C7 3.23858 9.23858 1 12 1ZM12 3C10.3431 3 9 4.34315 9 6C9 7.65685 10.3431 9 12 9C13.6569 9 15 7.65685 15 6C15 4.34315 13.6569 3 12 3Z" fill="oklch(0.3523 0 0 / 1)" class="wd-icon-fill"></path>
</g>
<path d="M18.3076 14.908C18.4913 14.537 19.0207 14.5368 19.2041 14.908L20.2246 16.9773L22.5078 17.3093C22.918 17.3689 23.0819 17.8726 22.7852 18.1619L21.1328 19.7722L21.5235 22.0466C21.5933 22.4549 21.1646 22.7665 20.7979 22.574L18.7559 21.4998L16.7129 22.574C16.3463 22.7663 15.9184 22.4548 15.9883 22.0466L16.378 19.7722L14.7256 18.1619C14.429 17.8726 14.5929 17.3689 15.003 17.3093L17.2862 16.9773L18.3076 14.908Z" fill="oklch(0.3523 0 0 / 1)" class="wd-icon-accent"></path>
</svg>