<svg width="24" height="24" viewBox="0 0 24 24" xmlns="http://www.w3.org/2000/svg" class="wd-icon wd-icon-task-job" role="presentation" data-deprecated="true">
<!-- Deprecated icon: will be removed in the future. Use wd-icon-briefcase.svg instead. -->
<path d="M3 8C3 7.44772 3.44772 7 4 7H20C20.5523 7 21 7.44772 21 8V20C21 20.5523 20.5523 21 20 21H4C3.44772 21 3 20.5523 3 20V8Z" fill="transparent" class="wd-icon-background"></path>
<path d="M12 2C13.6982 2 15.2577 2.6058 16.4697 3.6123C16.823 3.90567 16.9999 4.33176 17 4.75098V6H20C21.1046 6 22 6.89543 22 8V20C22 21.1046 21.1046 22 20 22H4C2.89543 22 2 21.1046 2 20V8C2 6.89543 2.89543 6 4 6H7V4.75098C7.00009 4.33176 7.177 3.90567 7.53027 3.6123L7.76172 3.42871C8.93797 2.53276 10.4079 2 12 2ZM4 20H20V8H4V20ZM12 4C10.8733 4 9.83585 4.37186 9 5V6H15V5C14.1641 4.37186 13.1267 4 12 4Z" fill="oklch(0.3523 0 0 / 1)" class="wd-icon-fill"></path>
<path d="M20 13.5918C17.9674 14.939 15.5764 15.7902 13 15.9658V16.5C13 16.7761 12.7761 17 12.5 17H11.5C11.2239 17 11 16.7761 11 16.5V15.9658C8.42357 15.7902 6.03257 14.939 4 13.5918V11.1035C5.92854 12.7116 8.34682 13.7471 11 13.957V13.5C11 13.2239 11.2239 13 11.5 13H12.5C12.7761 13 13 13.2239 13 13.5V13.957C15.6532 13.7471 18.0715 12.7116 20 11.1035V13.5918Z" fill="oklch(0.3523 0 0 / 1)" class="wd-icon-accent"></path>
</svg>