<svg width="24" height="24" viewBox="0 0 24 24" xmlns="http://www.w3.org/2000/svg" class="wd-icon wd-icon-projects" role="presentation" data-deprecated="true">
<!-- Deprecated icon: will be removed in the future. Use wd-icon-hammer.svg instead. -->
<g>
<path d="M13.0312 2.65598C14.606 1.74682 16.4604 1.78968 18.1895 2.447C18.6255 2.61284 18.9615 2.92821 19.1729 3.29368C19.4552 3.78279 19.4007 4.31542 19.2021 4.70774C19.0083 5.09058 18.651 5.40505 18.1973 5.52805C18.0684 5.5629 17.9412 5.61106 17.8184 5.67161L17.6963 5.73606C17.0115 6.13152 16.5847 6.90095 16.5664 7.82981C16.562 8.0548 16.5051 8.28301 16.4014 8.49387L21.2812 16.945C21.4193 17.1841 21.3376 17.4905 21.0986 17.6286L20.2324 18.1286C19.9933 18.2667 19.6869 18.1842 19.5488 17.945L14.7988 9.71751L13.0664 10.7175L18.3174 19.8113C18.4554 20.0504 18.3729 20.3568 18.1338 20.4949L17.2676 20.9949C17.0285 21.1325 16.7229 21.0502 16.585 20.8113L11.1387 11.3777C11.0319 11.3566 10.9308 11.3273 10.8389 11.2907C10.5611 11.1802 10.2427 11.1941 9.96875 11.3523C9.69552 11.5102 9.52463 11.7782 9.48145 12.074C9.42317 12.4731 9.20388 12.9488 8.72168 13.2273L7.87109 13.7185C6.91451 14.2708 5.69096 13.9426 5.13867 12.9861L3.63867 10.3884C3.08639 9.43182 3.41451 8.20827 4.37109 7.65598L5.22168 7.16477C5.64375 6.92113 6.09567 6.92673 6.45312 7.03196L6.60156 7.08372L6.70605 7.11887C6.95647 7.18823 7.22918 7.16031 7.46875 7.02219C7.74273 6.86401 7.91482 6.59611 7.95801 6.30051L7.98633 6.14719C8.07386 5.78516 8.29494 5.39099 8.7168 5.14719L13.0312 2.65598ZM16.6045 4.06028C15.6244 3.85728 14.7446 3.97658 14.0312 4.38841L9.90332 6.77122C9.73513 7.57408 9.23896 8.30895 8.46875 8.75364C7.69869 9.19805 6.81491 9.26011 6.03613 9.00462L5.37109 9.3884L6.87109 11.9861L7.53613 11.6023C7.70419 10.8001 8.19869 10.0646 8.96875 9.61985C9.7388 9.17526 10.6232 9.11439 11.4023 9.36985L14.5791 7.53587C14.6774 6.14787 15.3556 4.82509 16.6045 4.06028Z" fill="oklch(0.3523 0 0 / 1)" class="wd-icon-fill"></path>
<path d="M8.5 15.9997C8.77604 15.9997 8.99983 16.2237 9 16.4997V17.4997C9 17.7759 8.77614 17.9997 8.5 17.9997H7V20.4997C7 20.7759 6.77614 20.9997 6.5 20.9997H5.5C5.22386 20.9997 5 20.7759 5 20.4997V17.9997H3.5C3.22386 17.9997 3 17.7759 3 17.4997V16.4997C3.00017 16.2237 3.22396 15.9997 3.5 15.9997H8.5Z" fill="oklch(0.3523 0 0 / 1)" class="wd-icon-fill"></path>
</g>
</svg>