<svg width="24" height="24" viewBox="0 0 24 24" xmlns="http://www.w3.org/2000/svg" class="wd-icon wd-icon-at-tag-mention" role="presentation" data-deprecated="true">
<!-- Deprecated icon: will be removed in the future. Use wd-icon-mention.svg instead. -->
<path d="M11.3398 2C17.2732 2.00001 21.0029 5.69329 21.0029 11.3506V15.8457C21.0029 16.1218 20.779 16.3456 20.5029 16.3457H15.79C14.4127 16.3457 13.6709 15.7482 13.6709 14.8516V14.6172H13.6279C13.2887 15.7911 12.145 16.6659 10.5137 16.666C8.24629 16.666 6.27539 14.9368 6.27539 11.7559C6.27552 8.59651 8.24636 6.86719 10.5137 6.86719C11.9121 6.86727 13.0989 7.50779 13.5439 8.85254H13.5859V7.6875C13.586 7.41145 13.8099 7.18755 14.0859 7.1875H15.375C15.6509 7.18771 15.8749 7.41156 15.875 7.6875V13.7207C15.8752 14.19 16.129 14.4248 16.6797 14.4248H18.7139V11.3506C18.7139 6.03486 15.7475 3.9004 11.3398 3.90039C6.88996 3.90039 3.90251 6.63243 3.90234 11.4355C3.90234 16.2176 6.88983 19.0361 11.3398 19.0361H20.5029C20.779 19.0363 21.0029 19.2601 21.0029 19.5361V20.5C21.0029 20.7761 20.779 20.9999 20.5029 21H11.3398C5.36411 21 1.5498 17.1782 1.5498 11.4355C1.54999 5.69308 5.36426 2 11.3398 2ZM11.1914 8.74609C9.68702 8.74614 8.73351 9.96281 8.7334 11.7559C8.7334 13.5918 9.68693 14.7879 11.1914 14.7666C12.6747 14.7453 13.6279 13.4851 13.6279 11.7559C13.6278 10.0482 12.6746 8.76744 11.1914 8.74609Z" fill="oklch(0.3523 0 0 / 1)" class="wd-icon-fill"></path>
</svg>