<svg width="24" height="24" viewBox="0 0 24 24" xmlns="http://www.w3.org/2000/svg" class="wd-icon wd-icon-question-fill" role="presentation" data-deprecated="true">
<!-- Deprecated icon: will be removed in the future. Use wd-icon-question-circle-fill.svg instead. -->
<path d="M12 1C18.0751 1 23 5.92487 23 12C23 18.0751 18.0751 23 12 23C5.92487 23 1 18.0751 1 12C1 5.92487 5.92487 1 12 1ZM12 14.75C11.3098 14.7502 10.75 15.3098 10.75 16C10.75 16.6902 11.3098 17.2498 12 17.25C12.6902 17.2498 13.25 16.6902 13.25 16C13.25 15.3098 12.6902 14.7502 12 14.75ZM12 6C9.96003 6.0002 8.27587 7.52747 8.03027 9.50098C7.99625 9.77483 8.22407 9.99979 8.5 10H9.5C9.77608 9.99996 9.99338 9.77243 10.0615 9.50488C10.2818 8.63989 11.0665 8.00018 12 8H12.4014C13.002 8.00019 13.5515 8.33977 13.8203 8.87695C14.2414 9.71944 13.8398 10.7414 12.958 11.0723L12.293 11.3223C11.5155 11.6141 11 12.358 11 13.1885V13.5C11 13.776 11.224 13.9998 11.5 14H12.5234C12.7865 13.9998 12.9999 13.7866 13 13.5234C13 13.3246 13.1235 13.1459 13.3096 13.0762L13.6611 12.9453C15.6545 12.1973 16.5615 9.88683 15.6094 7.98242C15.0018 6.76767 13.7596 6.00019 12.4014 6H12Z" fill="oklch(0.3523 0 0 / 1)" class="wd-icon-fill"></path>
</svg>