<svg width="24" height="24" viewBox="0 0 24 24" xmlns="http://www.w3.org/2000/svg" class="wd-icon wd-icon-card-view" role="presentation" data-deprecated="true">
<!-- Deprecated icon: will be removed in the future. Use wd-icon-document-view.svg instead. -->
<g>
<path d="M17.5 2C18.3284 2 19 2.67157 19 3.5V20.5C19 21.3284 18.3284 22 17.5 22H6.5C5.67157 22 5 21.3284 5 20.5V3.5C5 2.67157 5.67157 2 6.5 2H17.5ZM7 20H17V4H7V20Z" fill="oklch(0.3523 0 0 / 1)" class="wd-icon-fill"></path>
<path d="M3.5 5C3.77614 5 4 5.22386 4 5.5V18.5C4 18.7761 3.77614 19 3.5 19H2.5C2.22386 19 2 18.7761 2 18.5V5.5C2 5.22386 2.22386 5 2.5 5H3.5Z" fill="oklch(0.3523 0 0 / 1)" class="wd-icon-fill"></path>
<path d="M21.5 5C21.7761 5 22 5.22386 22 5.5V18.5C22 18.7761 21.7761 19 21.5 19H20.5C20.2239 19 20 18.7761 20 18.5V5.5C20 5.22386 20.2239 5 20.5 5H21.5Z" fill="oklch(0.3523 0 0 / 1)" class="wd-icon-fill"></path>
</g>
<g>
<path d="M14.5 13C14.7761 13 15 13.2239 15 13.5V14.5C15 14.7761 14.7761 15 14.5 15H9.5C9.22386 15 9 14.7761 9 14.5V13.5C9 13.2239 9.22386 13 9.5 13H14.5Z" fill="oklch(0.3523 0 0 / 1)" class="wd-icon-accent"></path>
<path d="M14.5 10C14.7761 10 15 10.2239 15 10.5V11.5C15 11.7761 14.7761 12 14.5 12H9.5C9.22386 12 9 11.7761 9 11.5V10.5C9 10.2239 9.22386 10 9.5 10H14.5Z" fill="oklch(0.3523 0 0 / 1)" class="wd-icon-accent"></path>
<path d="M12.5 7C12.7761 7 13 7.22386 13 7.5V8.5C13 8.77614 12.7761 9 12.5 9H9.5C9.22386 9 9 8.77614 9 8.5V7.5C9 7.22386 9.22386 7 9.5 7H12.5Z" fill="oklch(0.3523 0 0 / 1)" class="wd-icon-accent"></path>
</g>
</svg>