<svg width="24" height="24" viewBox="0 0 24 24" xmlns="http://www.w3.org/2000/svg" class="wd-icon wd-icon-fetch-data" role="presentation" data-deprecated="true">
<!-- Deprecated icon: will be removed in the future. Use wd-icon-data-arrow-left.svg instead. -->
<g>
<path d="M16.5918 13.2539C16.7666 13.0406 17.0813 13.0092 17.2949 13.1836L17.6816 13.5L18.0684 13.8154C18.2822 13.9902 18.3135 14.3057 18.1387 14.5195L16.1094 17H22.5C22.7759 17.0002 22.9998 17.2241 23 17.5V18.5C22.9998 18.7759 22.7759 18.9998 22.5 19H16.1094L18.1387 21.4795C18.3133 21.6931 18.2818 22.0077 18.0684 22.1826L17.2939 22.8164C17.0803 22.9907 16.7656 22.9595 16.5908 22.7461L13.2246 18.6328C13.0367 18.4025 12.9663 18.1085 13.0137 17.8311C13.0419 17.6649 13.1129 17.5041 13.2256 17.3662L16.5918 13.2539Z" fill="oklch(0.3523 0 0 / 1)" class="wd-icon-fill"></path>
<path d="M12 2C14.2972 2 16.4215 2.34755 18.0078 2.94238C18.7973 3.23843 19.5062 3.61502 20.0352 4.08398C20.5628 4.5519 21 5.19722 21 6V11.5C21 11.7761 20.7761 12 20.5 12H19.5C19.2239 12 19 11.7761 19 11.5V8.61426C18.6906 8.77802 18.3575 8.92649 18.0078 9.05762C16.4215 9.65245 14.2972 10 12 10C9.70276 10 7.57848 9.65245 5.99219 9.05762C5.64251 8.92649 5.30944 8.77802 5 8.61426V10C5 10.0255 5.01023 10.1701 5.29199 10.4199C5.57269 10.6687 6.03643 10.9378 6.69434 11.1846C8.00342 11.6754 9.8792 12 12 12C12.1522 12 12.3033 11.9985 12.4531 11.9951C12.7291 11.9889 12.9635 12.2009 12.9766 12.4766L13.0234 13.4756C13.0364 13.7515 12.823 13.9864 12.5469 13.9932C12.366 13.9976 12.1836 14 12 14C9.70292 14 7.57842 13.6524 5.99219 13.0576C5.64259 12.9265 5.30941 12.778 5 12.6143V14C5 14.0245 5.00799 14.1472 5.2334 14.3652C5.4618 14.586 5.84651 14.8344 6.4082 15.0713C7.4272 15.501 8.86866 15.8268 10.5479 15.9482C10.8232 15.9683 11.0364 16.2018 11.0234 16.4775L10.9766 17.4766C10.9634 17.7521 10.7294 17.9655 10.4541 17.9463C8.59704 17.8163 6.9127 17.4541 5.63184 16.9141C5.41325 16.8219 5.20217 16.7212 5 16.6143V18C5 18.0255 5.01013 18.17 5.29199 18.4199C5.5727 18.6687 6.03626 18.9378 6.69434 19.1846C7.89957 19.6365 9.58506 19.9476 11.5 19.9941C11.776 20.0009 12 20.2239 12 20.5V21.5C12 21.7761 11.776 22.0002 11.5 21.9941C9.39563 21.9476 7.4627 21.609 5.99219 21.0576C5.20273 20.7616 4.49379 20.385 3.96484 19.916C3.43717 19.4481 3 18.8028 3 18V6C3 5.19722 3.43717 4.5519 3.96484 4.08398C4.49379 3.61502 5.20273 3.23843 5.99219 2.94238C7.57848 2.34755 9.70276 2 12 2ZM12 4C9.87903 4 8.00346 4.32451 6.69434 4.81543C6.03626 5.06222 5.5727 5.33126 5.29199 5.58008C5.01013 5.82998 5 5.97447 5 6C5 6.02553 5.01013 6.17002 5.29199 6.41992C5.5727 6.66874 6.03626 6.93778 6.69434 7.18457C8.00346 7.67549 9.87903 8 12 8C14.121 8 15.9965 7.67549 17.3057 7.18457C17.9637 6.93778 18.4273 6.66874 18.708 6.41992C18.9899 6.17002 19 6.02553 19 6C19 5.97447 18.9899 5.82998 18.708 5.58008C18.4273 5.33126 17.9637 5.06222 17.3057 4.81543C15.9965 4.32451 14.121 4 12 4Z" fill="oklch(0.3523 0 0 / 1)" class="wd-icon-fill"></path>
</g>
</svg>