<svg width="24" height="24" viewBox="0 0 24 24" xmlns="http://www.w3.org/2000/svg" class="wd-icon wd-icon-report-parameter" role="presentation" data-deprecated="true">
<!-- Deprecated icon: will be removed in the future. Use wd-icon-document-gear.svg instead. -->
<path d="M18.5 1C19.3284 1 20 1.67157 20 2.5V10.5C20 10.7761 19.7761 11 19.5 11H18.5C18.2239 11 18 10.7761 18 10.5V3H6V21H11.5C11.7761 21 12 21.2239 12 21.5V22.5C12 22.7761 11.7761 23 11.5 23H5.5C4.67157 23 4 22.3284 4 21.5V2.5C4 1.67157 4.67157 1 5.5 1H18.5Z" fill="oklch(0.3523 0 0 / 1)" class="wd-icon-fill"></path>
<g>
<path d="M18.5908 13C18.8289 13.0003 19.0343 13.1688 19.0811 13.4023L19.2393 14.1982C19.4348 14.2622 19.6237 14.3406 19.8047 14.4326L20.4834 13.9824C20.6815 13.8506 20.9458 13.8768 21.1143 14.0449L21.9531 14.8838C22.121 15.0523 22.1475 15.3166 22.0156 15.5146L21.5625 16.1924C21.6542 16.3729 21.7331 16.5609 21.7969 16.7559L22.5957 16.917C22.8292 16.9639 22.998 17.1691 22.998 17.4072V18.5928C22.9979 18.8309 22.8291 19.0361 22.5957 19.083L21.7969 19.2422C21.7331 19.4374 21.6551 19.6259 21.5635 19.8066L22.0156 20.4854C22.1474 20.6834 22.1211 20.9478 21.9531 21.1162L21.1143 21.9541C20.9458 22.1225 20.6817 22.1486 20.4834 22.0166L19.8066 21.5654C19.6253 21.6578 19.4362 21.7366 19.2402 21.8008L19.0811 22.5977C19.0343 22.8312 18.8289 22.9997 18.5908 23H17.4053C17.1671 22.9999 16.9618 22.8312 16.915 22.5977L16.7559 21.8027C16.5585 21.7385 16.3681 21.6592 16.1855 21.5664L15.5127 22.0166C15.3145 22.1487 15.0504 22.1224 14.8818 21.9541L14.0439 21.1162C13.8754 20.9477 13.8492 20.6837 13.9814 20.4854L14.4287 19.8115C14.3357 19.6288 14.2568 19.4379 14.1924 19.2402L13.4004 19.083C13.1668 19.0363 12.9982 18.831 12.998 18.5928V17.4072C12.9981 17.1689 13.1667 16.9637 13.4004 16.917L14.1924 16.7568C14.2569 16.5595 14.3367 16.3691 14.4297 16.1865L13.9814 15.5146C13.8492 15.3163 13.8754 15.0523 14.0439 14.8838L14.8818 14.0449C15.0504 13.8769 15.3146 13.8504 15.5127 13.9824L16.1865 14.4316C16.3687 14.3391 16.5589 14.2604 16.7559 14.1963L16.915 13.4023C16.9618 13.1688 17.1671 13.0001 17.4053 13H18.5908ZM17.9951 16C16.8906 16 15.9951 16.8955 15.9951 18C15.9951 19.1046 16.8906 20 17.9951 20C19.0997 20 19.9951 19.1046 19.9951 18C19.9951 16.8955 19.0997 16 17.9951 16Z" fill="oklch(0.3523 0 0 / 1)" class="wd-icon-accent"></path>
<path d="M12.5 8C12.7761 8 13 8.22386 13 8.5V9.5C13 9.77614 12.7761 10 12.5 10H8.5C8.22386 10 8 9.77614 8 9.5V8.5C8 8.22386 8.22386 8 8.5 8H12.5Z" fill="oklch(0.3523 0 0 / 1)" class="wd-icon-accent"></path>
<path d="M15.5 5C15.7761 5 16 5.22386 16 5.5V6.5C16 6.77614 15.7761 7 15.5 7H8.5C8.22386 7 8 6.77614 8 6.5V5.5C8 5.22386 8.22386 5 8.5 5H15.5Z" fill="oklch(0.3523 0 0 / 1)" class="wd-icon-accent"></path>
</g>
</svg>