<svg width="24" height="24" viewBox="0 0 24 24" xmlns="http://www.w3.org/2000/svg" class="wd-icon wd-icon-document-locked" role="presentation" data-deprecated="true">
<!-- Deprecated icon: will be removed in the future. Use wd-icon-document-lock.svg instead. -->
<g>
<path d="M18.5 1C19.3284 1 20 1.67157 20 2.5V9.5C20 9.77614 19.7761 10 19.5 10H18.5C18.2239 10 18 9.77614 18 9.5V3H6V21H11.5C11.7761 21 12 21.2239 12 21.5V22.5C12 22.7761 11.7761 23 11.5 23H5.5C4.67157 23 4 22.3284 4 21.5V2.5C4 1.67157 4.67157 1 5.5 1H18.5Z" fill="oklch(0.3523 0 0 / 1)" class="wd-icon-fill"></path>
<path d="M9.5 12C9.77614 12 10 12.2239 10 12.5V13.5C10 13.7761 9.77614 14 9.5 14H8.5C8.22386 14 8 13.7761 8 13.5V12.5C8 12.2239 8.22386 12 8.5 12H9.5Z" fill="oklch(0.3523 0 0 / 1)" class="wd-icon-fill"></path>
<path d="M13.5 12C13.7761 12 14 12.2239 14 12.5V13.5C14 13.7761 13.7761 14 13.5 14H11.5C11.2239 14 11 13.7761 11 13.5V12.5C11 12.2239 11.2239 12 11.5 12H13.5Z" fill="oklch(0.3523 0 0 / 1)" class="wd-icon-fill"></path>
<path d="M9.5 9C9.77614 9 10 9.22386 10 9.5V10.5C10 10.7761 9.77614 11 9.5 11H8.5C8.22386 11 8 10.7761 8 10.5V9.5C8 9.22386 8.22386 9 8.5 9H9.5Z" fill="oklch(0.3523 0 0 / 1)" class="wd-icon-fill"></path>
<path d="M15.5 9C15.7761 9 16 9.22386 16 9.5V10.5C16 10.7761 15.7761 11 15.5 11H11.5C11.2239 11 11 10.7761 11 10.5V9.5C11 9.22386 11.2239 9 11.5 9H15.5Z" fill="oklch(0.3523 0 0 / 1)" class="wd-icon-fill"></path>
<path d="M9.5 6C9.77614 6 10 6.22386 10 6.5V7.5C10 7.77614 9.77614 8 9.5 8H8.5C8.22386 8 8 7.77614 8 7.5V6.5C8 6.22386 8.22386 6 8.5 6H9.5Z" fill="oklch(0.3523 0 0 / 1)" class="wd-icon-fill"></path>
<path d="M15.5 6C15.7761 6 16 6.22386 16 6.5V7.5C16 7.77614 15.7761 8 15.5 8H11.5C11.2239 8 11 7.77614 11 7.5V6.5C11 6.22386 11.2239 6 11.5 6H15.5Z" fill="oklch(0.3523 0 0 / 1)" class="wd-icon-fill"></path>
</g>
<path d="M18.5 12C20.433 12 22 13.567 22 15.5V16L22.0986 16.0049C22.3276 16.0276 22.5429 16.1289 22.707 16.293C22.8944 16.4804 22.9999 16.735 23 17V22C22.9998 22.5175 22.6066 22.9438 22.1025 22.9951L22 23H15C14.7349 23 14.4805 22.8945 14.293 22.707C14.1055 22.5196 14.0001 22.2651 14 22V17C14.0002 16.4825 14.3935 16.0563 14.8975 16.0049L15 16V15.5C15 13.567 16.567 12 18.5 12ZM16 18V21H21V18H16ZM18.5 14C17.6716 14 17 14.6716 17 15.5V16H20V15.5C20 14.6716 19.3284 14 18.5 14Z" fill="oklch(0.3523 0 0 / 1)" class="wd-icon-accent"></path>
</svg>