<svg width="24" height="24" viewBox="0 0 24 24" xmlns="http://www.w3.org/2000/svg" class="wd-icon wd-icon-org-chart" role="presentation" data-deprecated="true">
<!-- Deprecated icon: will be removed in the future. Use wd-icon-organization.svg instead. -->
<g>
<path d="M5.5 16C5.77614 16 6 16.2239 6 16.5V19.5C6 19.7761 5.77614 20 5.5 20H2.5C2.22386 20 2 19.7761 2 19.5V16.5C2 16.2239 2.22386 16 2.5 16H5.5Z" fill="transparent" class="wd-icon-background"></path>
<path d="M13.5 16C13.7761 16 14 16.2239 14 16.5V19.5C14 19.7761 13.7761 20 13.5 20H10.5C10.2239 20 10 19.7761 10 19.5V16.5C10 16.2239 10.2239 16 10.5 16H13.5Z" fill="transparent" class="wd-icon-background"></path>
<path d="M21.5 16C21.7761 16 22 16.2239 22 16.5V19.5C22 19.7761 21.7761 20 21.5 20H18.5C18.2239 20 18 19.7761 18 19.5V16.5C18 16.2239 18.2239 16 18.5 16H21.5Z" fill="transparent" class="wd-icon-background"></path>
<path d="M14.5 2C14.7761 2 15 2.22386 15 2.5V7.5C15 7.77614 14.7761 8 14.5 8H9.5C9.22386 8 9 7.77614 9 7.5V2.5C9 2.22386 9.22386 2 9.5 2H14.5Z" fill="transparent" class="wd-icon-background"></path>
</g>
<path d="M14.5 1C15.3284 1 16 1.67157 16 2.5V7.5C16 8.32843 15.3284 9 14.5 9H13V11H18C19.6569 11 21 12.3431 21 14V15H21.5C22.3284 15 23 15.6716 23 16.5V19.5C23 20.3284 22.3284 21 21.5 21H18.5C17.6716 21 17 20.3284 17 19.5V16.5C17 15.6716 17.6716 15 18.5 15H19V14C19 13.4477 18.5523 13 18 13H13V15H13.5C14.3284 15 15 15.6716 15 16.5V19.5C15 20.3284 14.3284 21 13.5 21H10.5C9.67157 21 9 20.3284 9 19.5V16.5C9 15.6716 9.67157 15 10.5 15H11V13H6C5.44772 13 5 13.4477 5 14V15H5.5C6.32843 15 7 15.6716 7 16.5V19.5C7 20.3284 6.32843 21 5.5 21H2.5C1.67157 21 1 20.3284 1 19.5V16.5C1 15.6716 1.67157 15 2.5 15H3V14C3 12.3431 4.34315 11 6 11H11V9H9.5C8.67157 9 8 8.32843 8 7.5V2.5C8 1.67157 8.67157 1 9.5 1H14.5ZM3 19H5V17H3V19ZM11 19H13V17H11V19ZM19 19H21V17H19V19ZM10 7H14V3H10V7Z" fill="oklch(0.3523 0 0 / 1)" class="wd-icon-fill"></path>
</svg>