<svg width="24" height="24" viewBox="0 0 24 24" xmlns="http://www.w3.org/2000/svg" class="wd-icon wd-icon-hierarchy-right-full" role="presentation" data-deprecated="true">
<!-- Deprecated icon: will be removed in the future. Use wd-icon-hierarchy-partial.svg instead. -->
<path d="M18.5 3C20.433 3 22 4.567 22 6.5C22 8.433 20.433 10 18.5 10C16.7368 10 15.2788 8.6961 15.0361 7H13V17C13 17.5523 13.4477 18 14 18H15.0361C15.2788 16.3039 16.7368 15 18.5 15C20.433 15 22 16.567 22 18.5C22 20.433 20.433 22 18.5 22C17.1038 22 15.8987 21.1825 15.3369 20H14C12.3431 20 11 18.6569 11 17V7H8.96387C8.72121 8.6961 7.2632 10 5.5 10C3.567 10 2 8.433 2 6.5C2 4.567 3.567 3 5.5 3C6.89618 3 8.10135 3.81755 8.66309 5H15.3369C15.8987 3.81755 17.1038 3 18.5 3ZM18.5 17C17.6716 17 17 17.6716 17 18.5C17 19.3284 17.6716 20 18.5 20C19.3284 20 20 19.3284 20 18.5C20 17.6716 19.3284 17 18.5 17ZM5.5 5C4.67157 5 4 5.67157 4 6.5C4 7.32843 4.67157 8 5.5 8C6.32843 8 7 7.32843 7 6.5C7 5.67157 6.32843 5 5.5 5ZM18.5 5C17.6716 5 17 5.67157 17 6.5C17 7.32843 17.6716 8 18.5 8C19.3284 8 20 7.32843 20 6.5C20 5.67157 19.3284 5 18.5 5Z" fill="oklch(0.3523 0 0 / 1)" class="wd-icon-fill"></path>
<path d="M18.5 3C20.433 3 22 4.567 22 6.5C22 8.433 20.433 10 18.5 10C16.7368 10 15.2788 8.6961 15.0361 7H13V17C13 17.5523 13.4477 18 14 18H15.0361C15.2788 16.3039 16.7368 15 18.5 15C20.433 15 22 16.567 22 18.5C22 20.433 20.433 22 18.5 22C17.1038 22 15.8987 21.1825 15.3369 20H14C12.3431 20 11 18.6569 11 17V5H15.3369C15.8987 3.81755 17.1038 3 18.5 3Z" fill="oklch(0.3523 0 0 / 1)" class="wd-icon-accent"></path>
</svg>