<svg width="24" height="24" viewBox="0 0 24 24" xmlns="http://www.w3.org/2000/svg" class="wd-icon wd-icon-chevron-hierarchy-closed" role="presentation" data-deprecated="true">
<!-- Deprecated icon: will be removed in the future. Use wd-icon-hierarchy-chevron.svg instead. -->
<path d="M20 12C20 13.6569 18.6569 15 17 15C15.3431 15 14 13.6569 14 12C14 10.3431 15.3431 9 17 9C18.6569 9 20 10.3431 20 12Z" fill="transparent" class="wd-icon-background"></path>
<g>
<path d="M4.70518 7.18383C4.91872 7.00924 5.23339 7.04091 5.4083 7.25414L8.77451 11.3664C8.88702 11.5042 8.95716 11.6652 8.98545 11.8313C8.99489 11.8867 9.00004 11.9432 9.0001 11.9993C9.00013 12.2238 8.92493 12.4489 8.77451 12.633L5.4083 16.7453C5.23343 16.959 4.91791 16.9905 4.7042 16.8157L4.31846 16.4993L3.93076 16.1828C3.71743 16.0079 3.68568 15.6923 3.86045 15.4787L6.70811 11.9983L3.86045 8.51976C3.68608 8.30596 3.71802 7.9903 3.93174 7.81566L4.31846 7.50023L4.70518 7.18383Z" fill="oklch(0.3523 0 0 / 1)" class="wd-icon-fill"></path>
<path d="M17.0001 8.00023C19.2091 8.00042 21.0001 9.79121 21.0001 12.0002C20.9999 14.2091 19.209 16 17.0001 16.0002C14.7911 16.0002 13.0003 14.2092 13.0001 12.0002C13.0001 9.79109 14.791 8.00023 17.0001 8.00023ZM17.0001 10.0002C15.8955 10.0002 15.0001 10.8957 15.0001 12.0002C15.0003 13.1047 15.8956 14.0002 17.0001 14.0002C18.1044 14 18.9999 13.1046 19.0001 12.0002C19.0001 10.8958 18.1045 10.0004 17.0001 10.0002Z" fill="oklch(0.3523 0 0 / 1)" class="wd-icon-fill"></path>
</g>
</svg>