<svg width="24" height="24" viewBox="0 0 24 24" xmlns="http://www.w3.org/2000/svg" class="wd-icon wd-icon-opportunity-graph" role="presentation" data-deprecated="true">
<!-- Deprecated icon: will be removed in the future. Use wd-icon-donut-chart-user.svg instead. -->
<g>
<path d="M11.5002 1.01173C11.7759 0.999189 12 1.22403 12.0002 1.50001V2.50001C12.0002 2.77603 11.7767 2.99917 11.5012 3.01466C10.3915 3.07628 9.30023 3.34195 8.28536 3.80177C7.1187 4.33044 6.07816 5.10248 5.2336 6.06544C4.38898 7.02856 3.75979 8.16187 3.3879 9.38771C3.01614 10.6134 2.91022 11.9049 3.07735 13.1748C3.24458 14.4447 3.68132 15.6652 4.35762 16.7529C5.03401 17.8405 5.93537 18.7718 7.0002 19.4834C8.06519 20.1949 9.2707 20.6712 10.5344 20.8799C11.6334 21.0613 12.7555 21.037 13.843 20.8096C14.1133 20.753 14.3877 20.91 14.4592 21.1768L14.718 22.1426C14.7893 22.4093 14.6312 22.6849 14.3615 22.7442C12.9983 23.0438 11.5883 23.0813 10.2082 22.8535C8.66364 22.5985 7.19057 22.0162 5.88887 21.1465C4.58725 20.2767 3.48612 19.138 2.65938 17.8086C1.83273 16.4791 1.29834 14.9877 1.09395 13.4356C0.889709 11.8834 1.01942 10.3048 1.47383 8.80665C1.92837 7.30849 2.69743 5.92418 3.72969 4.74708C4.76201 3.56997 6.03409 2.62668 7.46016 1.98048C8.73423 1.40322 10.1059 1.07521 11.5002 1.01173Z" fill="oklch(0.3523 0 0 / 1)" class="wd-icon-fill"></path>
<path d="M21.094 6.75001C21.3331 6.61197 21.6398 6.69332 21.7668 6.93849C22.38 8.12193 22.7743 9.4086 22.9279 10.7354C23.1006 12.2279 22.9657 13.7413 22.5315 15.1797C22.0972 16.6179 21.3721 17.9521 20.4025 19.0996C19.5404 20.1198 18.4999 20.9737 17.3342 21.6201C17.0927 21.754 16.7919 21.6517 16.6691 21.4043L16.2248 20.5088C16.1024 20.2617 16.2039 19.9636 16.4436 19.8272C17.3652 19.3039 18.1895 18.6209 18.8752 17.8096C19.6685 16.8707 20.2621 15.7783 20.6174 14.6016C20.9726 13.4249 21.0828 12.1868 20.9416 10.9658C20.8195 9.91038 20.5107 8.88548 20.0324 7.93947C19.9079 7.69306 19.9887 7.38808 20.2277 7.25001L21.094 6.75001Z" fill="oklch(0.3523 0 0 / 1)" class="wd-icon-fill"></path>
<path d="M12.0002 6.00001C13.657 6.00001 15.0001 7.34321 15.0002 9.00001C15.0002 9.91104 14.5924 10.7252 13.9514 11.2754C14.9721 11.571 15.8969 12.0929 16.6672 12.7822C16.879 12.9718 17 13.2431 17.0002 13.5274V16C17.0002 16.5523 16.5525 17 16.0002 17H8.0002C7.44797 17 7.0002 16.5523 7.0002 16V13.5274C7.00036 13.2431 7.1214 12.9718 7.33321 12.7822C8.10323 12.0931 9.02774 11.5711 10.0481 11.2754C9.40742 10.7252 9.0002 9.91071 9.0002 9.00001C9.00026 7.34324 10.3434 6.00007 12.0002 6.00001ZM12.0002 13C10.8738 13 9.83611 13.3718 9.0002 14V15H15.0002V14C14.1643 13.3718 13.1266 13 12.0002 13ZM12.0002 8.00001C11.448 8.00007 11.0003 8.44781 11.0002 9.00001C11.0002 9.55226 11.448 9.99995 12.0002 10C12.5525 10 13.0002 9.5523 13.0002 9.00001C13.0001 8.44778 12.5525 8.00001 12.0002 8.00001Z" fill="oklch(0.3523 0 0 / 1)" class="wd-icon-fill"></path>
<path d="M14.5871 1.30861C16.6506 1.80798 18.5265 2.89426 19.9865 4.43556C20.1764 4.63604 20.1525 4.95321 19.9436 5.1338L19.5656 5.46095L19.1867 5.7881C18.9778 5.96827 18.6636 5.94352 18.4719 5.74513C17.3077 4.54061 15.8293 3.68501 14.2053 3.27443C13.9374 3.20672 13.7598 2.945 13.8127 2.67384L13.9084 2.18361L14.0031 1.69337C14.0557 1.42228 14.3187 1.24376 14.5871 1.30861Z" fill="oklch(0.3523 0 0 / 1)" class="wd-icon-fill"></path>
</g>
</svg>