<svg width="24" height="24" viewBox="0 0 24 24" xmlns="http://www.w3.org/2000/svg" class="wd-icon wd-icon-c-area-layered" role="presentation" data-deprecated="true">
<!-- Deprecated icon: will be removed in the future. Use wd-icon-area-layer-chart.svg instead. -->
<path d="M8.3061 7.8775L12.7156 6.11371C12.8901 6.0439 13.0891 6.07788 13.2305 6.20167L17 9.5L14.2119 13.6822C14.0868 13.8698 13.8516 13.9505 13.6377 13.8792L8.29316 12.0977C8.11349 12.0378 7.91541 12.0845 7.78149 12.2185L3 17.0001V4.20706C3 3.7616 3.53857 3.53852 3.85355 3.8535L7.76685 7.76682C7.90828 7.90825 8.12039 7.95178 8.3061 7.8775Z" fill="transparent" class="wd-icon-background"></path>
<path d="M2 4.20713C2.00006 2.91272 3.51586 2.24442 4.46973 3.0626L4.56055 3.14658L8.24121 6.82627L12.3438 5.18564L12.5439 5.12119C12.9474 5.02216 13.375 5.09488 13.7227 5.32236L13.8887 5.44932L16.7998 7.99619L19.252 4.31943L19.332 4.20908C20.1933 3.12178 22 3.71368 22 5.15146V20.5001C21.9999 21.3285 21.3284 22.0001 20.5 22.0001H3.5C2.67162 22.0001 2.00008 21.3285 2 20.5001V4.20713ZM15.0439 14.2374C14.6687 14.8 13.9629 15.0421 13.3213 14.8282L8.26953 13.1437L4 17.4142V20.0001H20V6.80283L15.0439 14.2374ZM4 14.586L7.07422 11.5118L7.2334 11.3731C7.56795 11.1215 7.99349 11.0213 8.40527 11.0968L8.60938 11.1495L13.5918 12.8097L15.6807 9.6749L12.8027 7.15537L8.67773 8.80576C8.12065 9.02857 7.48385 8.89795 7.05957 8.47373L4 5.41416V14.586Z" fill="oklch(0.3523 0 0 / 1)" class="wd-icon-fill"></path>
</svg>