<svg width="24" height="24" viewBox="0 0 24 24" xmlns="http://www.w3.org/2000/svg" class="wd-icon wd-icon-c-area-stacked" role="presentation" data-deprecated="true">
<!-- Deprecated icon: will be removed in the future. Use wd-icon-area-stack-chart.svg instead. -->
<path d="M3.14644 10.8537L7.72395 6.27611C7.88619 6.11387 8.13802 6.08287 8.33476 6.20091L12.6328 8.77973C12.8442 8.90654 13.1164 8.86042 13.2742 8.67108L17.7124 3.34521C17.876 3.14891 18.1612 3.10754 18.3738 3.24928L20.7773 4.85163C20.9164 4.94436 21 5.10047 21 5.26765V12.0001L13 16.0001L8 13.0001L3 16.0002V11.2073C3 11.0747 3.05268 10.9475 3.14644 10.8537Z" fill="transparent" class="wd-icon-background"></path>
<path d="M17.04 2.59965C17.5074 2.13557 18.2267 2.03153 18.8066 2.34379L18.9287 2.41703L21.332 4.01957C21.7493 4.29776 22 4.76612 22 5.26762V20.5C22 21.3285 21.3284 22 20.5 22H3.5C2.67157 22 2 21.3285 2 20.5V11.2071C2.00007 10.8093 2.15821 10.4278 2.43945 10.1465L7.0166 5.56938L7.11133 5.48246C7.565 5.09998 8.2034 5.02135 8.73633 5.28227L8.84961 5.34379L12.7803 7.70121L16.9443 2.70512L17.04 2.59965ZM13.4473 16.8946C13.1415 17.0475 12.7785 17.0334 12.4854 16.8575L8 14.1661L4 16.5655V20H20V13.6182L13.4473 16.8946ZM14.042 9.31156C13.5686 9.87927 12.7521 10.0171 12.1182 9.63676L8.1543 7.25883L4 11.4141V14.2334L7.48535 12.1426L7.60742 12.0801C7.89965 11.9554 8.23751 11.9763 8.51465 12.1426L13.043 14.8594L20 11.3809V5.53422L18.1924 4.33012L14.042 9.31156Z" fill="oklch(0.3523 0 0 / 1)" class="wd-icon-fill"></path>
</svg>