<svg width="24" height="24" viewBox="0 0 24 24" xmlns="http://www.w3.org/2000/svg" class="wd-icon wd-icon-documents-check" role="presentation" data-deprecated="true">
<!-- Deprecated icon: will be removed in the future. Use wd-icon-document-stack-check.svg instead. -->
<g>
<path d="M5.5 4C5.77614 4 6 4.22386 6 4.5V21H13.5C13.7761 21 14 21.2239 14 21.5V22.5C14 22.7761 13.7761 23 13.5 23H5.5C4.67157 23 4 22.3284 4 21.5V4.5C4 4.22386 4.22386 4 4.5 4H5.5Z" fill="oklch(0.3523 0 0 / 1)" class="wd-icon-fill"></path>
<path d="M19.5 1C20.3284 1 21 1.67157 21 2.5V14.5C21 14.7761 20.7761 15 20.5 15H19.5C19.2239 15 19 14.7761 19 14.5V3H9V18H13.5C13.7761 18 14 18.2239 14 18.5V19.5C14 19.7761 13.7761 20 13.5 20H8.5C7.67157 20 7 19.3284 7 18.5V2.5C7 1.67157 7.67157 1 8.5 1H19.5Z" fill="oklch(0.3523 0 0 / 1)" class="wd-icon-fill"></path>
</g>
<g>
<path d="M21.9395 16.6465C22.1347 16.4513 22.4512 16.4514 22.6465 16.6465L23.3535 17.3535C23.5487 17.5488 23.5487 17.8653 23.3535 18.0605L18.707 22.707C18.3166 23.0974 17.6835 23.0973 17.293 22.707L15.1465 20.5605C14.9514 20.3653 14.9514 20.0487 15.1465 19.8535L15.8535 19.1465C16.0487 18.9513 16.3653 18.9514 16.5605 19.1465L18 20.5859L21.9395 16.6465Z" fill="oklch(0.3523 0 0 / 1)" class="wd-icon-accent"></path>
<path d="M14.5 8C14.7761 8 15 8.22386 15 8.5V9.5C15 9.77614 14.7761 10 14.5 10H11.5C11.2239 10 11 9.77614 11 9.5V8.5C11 8.22386 11.2239 8 11.5 8H14.5Z" fill="oklch(0.3523 0 0 / 1)" class="wd-icon-accent"></path>
<path d="M16.5 5C16.7761 5 17 5.22386 17 5.5V6.5C17 6.77614 16.7761 7 16.5 7H11.5C11.2239 7 11 6.77614 11 6.5V5.5C11 5.22386 11.2239 5 11.5 5H16.5Z" fill="oklch(0.3523 0 0 / 1)" class="wd-icon-accent"></path>
</g>
</svg>