<svg width="24" height="24" viewBox="0 0 24 24" xmlns="http://www.w3.org/2000/svg" class="wd-icon wd-icon-manage-delivery" role="presentation" data-deprecated="true">
<!-- Deprecated icon: will be removed in the future. Use wd-icon-box-text-user.svg instead. -->
<path d="M22 21H3V4H22V21Z" fill="transparent" class="wd-icon-background"></path>
<path d="M20.5 3C21.3284 3 22 3.67157 22 4.5V12.5C22 12.7761 21.7761 13 21.5 13H20.5C20.2239 13 20 12.7761 20 12.5V5H4V19H11.5C11.7761 19 12 19.2239 12 19.5V20.5C12 20.7761 11.7761 21 11.5 21H3.5C2.67157 21 2 20.3284 2 19.5V4.5C2 3.67157 2.67157 3 3.5 3H20.5Z" fill="oklch(0.3523 0 0 / 1)" class="wd-icon-fill"></path>
<g>
<path d="M18 19C19.4564 19 20.7919 19.5189 21.8311 20.3818C21.9403 20.4726 21.9999 20.6089 22 20.751V21.5C22 21.7761 21.7761 22 21.5 22H14.5C14.2239 22 14 21.7761 14 21.5V20.751C14.0001 20.6089 14.0597 20.4726 14.1689 20.3818C15.2081 19.5189 16.5436 19 18 19Z" fill="oklch(0.3523 0 0 / 1)" class="wd-icon-accent"></path>
<path d="M18 14C19.1046 14 20 14.8954 20 16C20 17.1046 19.1046 18 18 18C16.8954 18 16 17.1046 16 16C16 14.8954 16.8954 14 18 14Z" fill="oklch(0.3523 0 0 / 1)" class="wd-icon-accent"></path>
<path d="M12.5 14C12.7761 14 13 14.2239 13 14.5V15.5C13 15.7761 12.7761 16 12.5 16H7.5C7.22386 16 7 15.7761 7 15.5V14.5C7 14.2239 7.22386 14 7.5 14H12.5Z" fill="oklch(0.3523 0 0 / 1)" class="wd-icon-accent"></path>
<path d="M15.5 11C15.7761 11 16 11.2239 16 11.5V12.5C16 12.7761 15.7761 13 15.5 13H7.5C7.22386 13 7 12.7761 7 12.5V11.5C7 11.2239 7.22386 11 7.5 11H15.5Z" fill="oklch(0.3523 0 0 / 1)" class="wd-icon-accent"></path>
<path d="M16.5 8C16.7761 8 17 8.22386 17 8.5V9.5C17 9.77614 16.7761 10 16.5 10H7.5C7.22386 10 7 9.77614 7 9.5V8.5C7 8.22386 7.22386 8 7.5 8H16.5Z" fill="oklch(0.3523 0 0 / 1)" class="wd-icon-accent"></path>
</g>
</svg>