<svg width="24" height="24" viewBox="0 0 24 24" xmlns="http://www.w3.org/2000/svg" class="wd-icon wd-icon-speech-exclamation" role="presentation" data-deprecated="true">
<!-- Deprecated icon: will be removed in the future. Use wd-icon-comment-exclamation.svg instead. -->
<g>
<path d="M12 12.75C12.6904 12.75 13.25 13.3096 13.25 14C13.25 14.6904 12.6904 15.25 12 15.25C11.3096 15.25 10.75 14.6904 10.75 14C10.75 13.3096 11.3096 12.75 12 12.75Z" fill="oklch(0.3523 0 0 / 1)" class="wd-icon-fill"></path>
<path d="M12.5 6C12.7761 6 13 6.22386 13 6.5V7.83984L12.8301 11.5234C12.8176 11.7902 12.5971 12 12.3301 12H11.6699C11.4029 12 11.1824 11.7902 11.1699 11.5234L11 7.83984V6.5C11 6.22386 11.2239 6 11.5 6H12.5Z" fill="oklch(0.3523 0 0 / 1)" class="wd-icon-fill"></path>
<path d="M18 3C20.2091 3.00003 21.9996 4.79139 22 7V14C21.9997 16.2089 20.2089 18 18 18H10.5752C10.2679 18.7876 9.79729 19.5269 9.16211 20.1621C8.02102 21.3031 6.54867 21.9152 5.05566 21.998C4.78139 22.0132 4.5121 21.9153 4.3125 21.7266C4.11301 21.5378 4.00013 21.2746 4 21V17.457C2.8078 16.767 2.00018 15.4819 2 14V7C2.00035 4.79137 3.79093 3.00004 6 3H18ZM6 5C4.89581 5.00003 4.00026 5.89549 4 7V14C4.00021 14.8665 4.55438 15.6068 5.33398 15.8828C5.73304 16.0243 6 16.4018 6 16.8252V19.8086C6.63925 19.6076 7.24106 19.255 7.74805 18.748C8.31932 18.1767 8.69492 17.4861 8.87793 16.7568L8.93262 16.5967C9.09012 16.2389 9.44634 16 9.84766 16H18C19.1044 16 19.9997 15.1043 20 14V7C19.9997 5.89547 19.1042 5.00003 18 5H6Z" fill="oklch(0.3523 0 0 / 1)" class="wd-icon-fill"></path>
</g>
</svg>