<svg width="24" height="24" viewBox="0 0 24 24" xmlns="http://www.w3.org/2000/svg" class="wd-icon wd-icon-password" role="presentation" data-deprecated="true">
<!-- Deprecated icon: will be removed in the future. Use wd-icon-lock-keyhole.svg instead. -->
<g>
<path d="M5.00049 19.4991C5.00049 19.7752 5.22435 19.9991 5.50049 19.9991H18.5005C18.7766 19.9991 19.0005 19.7752 19.0005 19.4991L19.0005 10.4998C19.0005 10.2236 18.7766 9.99976 18.5005 9.99976H5.5005C5.22436 9.99976 5.0005 10.2236 5.0005 10.4998L5.00049 19.4991Z" fill="transparent" class="wd-icon-background"></path>
<path d="M19.0005 19.4991C19.0005 19.7752 18.7766 19.9991 18.5005 19.9991H5.50049C5.22435 19.9991 5.00049 19.7752 5.00049 19.4991L5.0005 10.4998C5.0005 10.2236 5.22436 9.99976 5.5005 9.99976H18.5005C18.7766 9.99976 19.0005 10.2236 19.0005 10.4998L19.0005 19.4991Z" fill="transparent" class="wd-icon-background"></path>
</g>
<path d="M12 1C15.3137 1 18 3.68629 18 7V9H18.5C19.3284 9 20 9.67157 20 10.5V19.499C20 20.3274 19.3284 20.999 18.5 20.999H5.5C4.67157 20.999 4 20.3275 4 19.499V10.5C4 9.67158 4.67158 9.00001 5.5 9H6V7C6 3.68629 8.68629 1 12 1ZM6 11V18.999H18V11H6ZM12 3C9.79086 3 8 4.79086 8 7V9H16V7C16 4.79086 14.2091 3 12 3Z" fill="oklch(0.3523 0 0 / 1)" class="wd-icon-fill"></path>
<path d="M12 12C13.1046 12 14 12.8954 14 14C14 14.7398 13.5971 15.3835 13 15.7295V17.5C13 17.7761 12.7761 18 12.5 18H11.5C11.2239 18 11 17.7761 11 17.5V15.7295C10.4029 15.3835 10 14.7398 10 14C10 12.8954 10.8954 12 12 12Z" fill="oklch(0.3523 0 0 / 1)" class="wd-icon-accent"></path>
</svg>