<svg width="24" height="24" viewBox="0 0 24 24" xmlns="http://www.w3.org/2000/svg" class="wd-icon wd-icon-mail-letter" role="presentation" data-deprecated="true">
<!-- Deprecated icon: will be removed in the future. Use wd-icon-mail-open.svg instead. -->
<g>
<path d="M11.5 9C11.7761 9 12 9.22386 12 9.5V10.5C12 10.7761 11.7761 11 11.5 11H9.5C9.22386 11 9 10.7761 9 10.5V9.5C9 9.22386 9.22386 9 9.5 9H11.5Z" fill="oklch(0.3523 0 0 / 1)" class="wd-icon-fill"></path>
<path d="M14.5 6C14.7761 6 15 6.22386 15 6.5V7.5C15 7.77614 14.7761 8 14.5 8H9.5C9.22386 8 9 7.77614 9 7.5V6.5C9 6.22386 9.22386 6 9.5 6H14.5Z" fill="oklch(0.3523 0 0 / 1)" class="wd-icon-fill"></path>
<path d="M18 2C18.5523 2 19 2.44772 19 3V8H20.5C21.3284 8 22 8.67157 22 9.5V19.5C22 20.3284 21.3284 21 20.5 21H3.5C2.72334 21 2.08461 20.4097 2.00781 19.6533L2 19.5V9.5C2 8.67157 2.67157 8 3.5 8H5V3L5.00488 2.90137C5.02757 2.67237 5.12883 2.45711 5.29297 2.29297C5.48051 2.10543 5.73478 2 6 2H18ZM10.4131 14.001L5.41406 19H18.5859L13.5869 14.001H10.4131ZM4 17.5859L7.88672 13.6982L4 11.3662V17.5859ZM16.1123 13.6982L20 17.5859V11.3662L16.1123 13.6982ZM7 10.834L8.94434 12.001H15.0557L17 10.834V4H7V10.834Z" fill="oklch(0.3523 0 0 / 1)" class="wd-icon-fill"></path>
</g>
</svg>