<svg width="24" height="24" viewBox="0 0 24 24" xmlns="http://www.w3.org/2000/svg" class="wd-icon wd-icon-notifications-large" role="presentation" data-deprecated="true">
<!-- Deprecated icon: will be removed in the future. Use wd-icon-notifications.svg instead. -->
<path d="M12 1C13.3807 1 14.5 2.11929 14.5 3.5C14.5 3.6034 14.4933 3.70518 14.4806 3.8051C14.4442 4.09091 14.5934 4.38579 14.8651 4.48171C17.1124 5.27512 18.7299 6.97248 18.9678 8.98535C18.9687 8.99343 18.9762 9 18.9844 9C18.9929 9.0002 18.9998 9.00709 19 9.01562V13.0195C19 14.5704 19.9219 15.944 21.1934 16.832C21.4044 16.9794 21.6107 17.1319 21.8125 17.2891C21.9318 17.382 22 17.5255 22 17.6768V18.5C22 18.7761 21.7761 19 21.5 19H2.5L2.39941 18.9902C2.17145 18.9437 2 18.7417 2 18.5V17.6768C2.00001 17.5255 2.06818 17.382 2.1875 17.2891C2.38925 17.1319 2.59564 16.9794 2.80664 16.832C4.07814 15.944 5 14.5704 5 13.0195V9.01562C5.0002 9.00709 5.00709 9.0002 5.01562 9C5.02376 9 5.03127 8.99343 5.03223 8.98535C5.27003 6.97271 6.88715 5.27528 9.13405 4.48173C9.40567 4.3858 9.55508 4.09089 9.51914 3.80508C9.50657 3.70515 9.5 3.60336 9.5 3.5C9.5 2.11929 10.6193 1 12 1Z" fill="transparent" class="wd-icon-background"></path>
<path d="M12 0C13.933 0 15.5 1.567 15.5 3.5C15.5 3.55146 15.4974 3.60253 15.4951 3.65332C17.7761 4.5524 19.5639 6.35697 19.9297 8.64746C19.9715 8.75483 19.9972 8.87062 20 8.99219V13.0195C20 14.1581 20.6836 15.2558 21.7656 16.0117C21.991 16.1692 22.2116 16.3324 22.4268 16.5C22.796 16.7877 23 17.226 23 17.6768V18.5C23 19.3284 22.3284 20 21.5 20H16.2402C16.2287 20.1939 16.2061 20.3875 16.168 20.5791C16.0408 21.2183 15.7688 21.8198 15.3721 22.3369C14.9753 22.854 14.4645 23.2732 13.8799 23.5615C13.2952 23.8498 12.6519 24 12 24C11.3481 24 10.7048 23.8499 10.1201 23.5615C9.53553 23.2732 9.02473 22.854 8.62793 22.3369C8.23124 21.8198 7.95918 21.2183 7.83203 20.5791C7.79392 20.3875 7.77127 20.1939 7.75977 20H2.5C2.46773 20 2.43544 19.9982 2.40332 19.9951L2.30273 19.9854C2.26806 19.982 2.23335 19.9767 2.19922 19.9697C1.51402 19.8297 1 19.2252 1 18.5V17.6768L1.00977 17.5088C1.05374 17.119 1.25006 16.7518 1.57324 16.5C1.78837 16.3324 2.00896 16.1692 2.23438 16.0117C3.31644 15.2558 4 14.1581 4 13.0195V8.99219C4.00285 8.87074 4.02756 8.75474 4.06934 8.64746C4.43507 6.35711 6.22305 4.55157 8.50391 3.65234C8.50167 3.60186 8.5 3.55108 8.5 3.5C8.5 1.567 10.067 0 12 0ZM9.7666 20C9.77361 20.063 9.78057 20.1261 9.79297 20.1885C9.8603 20.527 10.0047 20.8463 10.2148 21.1201C10.4249 21.3938 10.6955 21.615 11.0049 21.7676C11.3144 21.9202 11.6549 22 12 22C12.3451 22 12.6856 21.9202 12.9951 21.7676C13.3045 21.615 13.5751 21.3938 13.7852 21.1201C13.9953 20.8463 14.1397 20.527 14.207 20.1885C14.2194 20.1261 14.2264 20.063 14.2334 20H9.7666ZM12 2C11.1716 2 10.5 2.67157 10.5 3.5C10.5 3.56091 10.5043 3.62138 10.5117 3.68066C10.5951 4.3452 10.2601 5.14462 9.4668 5.4248C7.46924 6.13039 6.20629 7.5722 6.02539 9.10254C6.02002 9.148 6.01097 9.19223 6 9.23535V13.0195C6 14.9826 4.83958 16.6322 3.37891 17.6523C3.25071 17.7419 3.12471 17.8341 3 17.9277V18H21V17.9277C20.8753 17.8341 20.7493 17.7419 20.6211 17.6523C19.1604 16.6322 18 14.9826 18 13.0195V9.23535C17.989 9.19223 17.98 9.148 17.9746 9.10254C17.7937 7.57204 16.5304 6.13027 14.5322 5.4248C13.7382 5.14449 13.4036 4.34405 13.4883 3.67871C13.4958 3.61972 13.5 3.56018 13.5 3.5C13.5 2.67157 12.8284 2 12 2Z" fill="oklch(0.3523 0 0 / 1)" class="wd-icon-fill"></path>
</svg>