<svg width="24" height="24" viewBox="0 0 24 24" xmlns="http://www.w3.org/2000/svg" class="wd-icon wd-icon-discovery-board" role="presentation" data-deprecated="true">
<!-- Deprecated icon: will be removed in the future. Use wd-icon-bar-line-chart.svg instead. -->
<path d="M12 10C12.5523 10 13 10.4477 13 11V13H15C15 12.4478 15.4479 12.0002 16 12H20C20.5523 12 21 12.4477 21 13V20C20.9999 20.5522 20.5522 21 20 21H4C3.44789 20.9998 3.00006 20.5521 3 20V14C3 13.4478 3.44785 13.0002 4 13H7V11C7 10.4478 7.44785 10.0002 8 10H12ZM5 19H7V15H5V19ZM9 19H11V12H9V19ZM13 19H15V15H13V19ZM17 19H19V14H17V19Z" fill="oklch(0.3523 0 0 / 1)" class="wd-icon-fill"></path>
<path d="M9.49543 2.13709C9.8842 1.90944 10.3834 1.96955 10.7073 2.29334L15.1273 6.71326L16.4105 5.85682L16.4134 5.85584L20.0296 3.44471C20.2594 3.29153 20.5708 3.35366 20.7239 3.58338L21.2777 4.41541C21.4307 4.645 21.3693 4.95547 21.14 5.10877L18.554 6.83143L18.555 6.8324L15.555 8.8324C15.1585 9.09666 14.6303 9.04422 14.2933 8.7074L9.89192 4.30604L8.43586 5.3451L8.43391 5.34803L3.9886 8.52283C3.76389 8.68336 3.45184 8.63134 3.29133 8.40662L2.71028 7.59412C2.54984 7.36951 2.60202 7.05742 2.82649 6.89686L9.41926 2.1869L9.49543 2.13709Z" fill="oklch(0.3523 0 0 / 1)" class="wd-icon-accent"></path>
</svg>