<svg width="24" height="24" viewBox="0 0 24 24" xmlns="http://www.w3.org/2000/svg" class="wd-icon wd-icon-rows-check" role="presentation" data-deprecated="true">
<!-- Deprecated icon: will be removed in the future. Use wd-icon-row-check.svg instead. -->
<path d="M14.5 3C15.3284 3 16 3.67157 16 4.5V13.5C16 13.7761 15.7761 14 15.5 14H14.5C14.2239 14 14 13.7761 14 13.5V13H4V15H11.5C11.7761 15 12 15.2239 12 15.5V16.5C12 16.7761 11.7761 17 11.5 17H3.5C2.67157 17 2 16.3284 2 15.5V4.5C2 3.67157 2.67157 3 3.5 3H14.5ZM4 11H14V9H4V11ZM4 7H14V5H4V7Z" fill="oklch(0.3523 0 0 / 1)" class="wd-icon-fill"></path>
<path d="M19.9393 15.6469C20.1346 15.4517 20.4511 15.4517 20.6464 15.6469L21.3534 16.3539C21.5485 16.5492 21.5486 16.8658 21.3534 17.061L16.7069 21.7074C16.3165 22.0978 15.6834 22.0976 15.2929 21.7074L13.1464 19.561C12.9512 19.3657 12.9512 19.0492 13.1464 18.8539L13.8534 18.1469C14.0487 17.9517 14.3652 17.9517 14.5604 18.1469L15.9999 19.5864L19.9393 15.6469Z" fill="oklch(0.3523 0 0 / 1)" class="wd-icon-accent"></path>
</svg>