<svg width="24" height="24" viewBox="0 0 24 24" xmlns="http://www.w3.org/2000/svg" class="wd-icon wd-icon-cell-swap-axis" role="presentation" data-deprecated="true">
<!-- Deprecated icon: will be removed in the future. Use wd-icon-table-swap-axis.svg instead. -->
<path d="M20.5 3C21.3284 3 22 3.67157 22 4.5V11H20V9H16V11H18.5C18.7761 11 19 11.2239 19 11.5V12.5C19 12.7761 18.7761 13 18.5 13H16V16.5C16 16.7761 15.7761 17 15.5 17H10V19H11.5C11.7761 19 12 19.2239 12 19.5V20.5C12 20.7761 11.7761 21 11.5 21H3.5C2.67157 21 2 20.3284 2 19.5V4.5C2 3.67157 2.67157 3 3.5 3H20.5ZM4 19H8V17H4V19ZM4 15H8V13H4V15ZM10 15H14V13H10V15ZM4 11H8V9H4V11ZM10 11H14V9H10V11ZM4 7H8V5H4V7ZM10 7H14V5H10V7ZM16 7H20V5H16V7Z" fill="oklch(0.3523 0 0 / 1)" class="wd-icon-fill"></path>
<path d="M20.584 13.6244C20.7819 13.3277 21.2181 13.3276 21.416 13.6244L23.1484 16.2231C23.3698 16.5553 23.1316 17.0003 22.7324 17.0004H22V20.0004C21.9999 21.1048 21.1044 22.0003 20 22.0004H17V22.7319C17 23.1312 16.5549 23.3693 16.2226 23.1479L13.624 21.4164C13.3271 21.2186 13.3272 20.7823 13.624 20.5844L16.2226 18.852C16.5549 18.6304 17 18.8686 17 19.268V20.0004H20V17.0004H19.2676C18.8684 17.0003 18.6302 16.5553 18.8516 16.2231L20.584 13.6244Z" fill="oklch(0.3523 0 0 / 1)" class="wd-icon-accent"></path>
</svg>