<svg width="24" height="24" viewBox="0 0 24 24" xmlns="http://www.w3.org/2000/svg" class="wd-icon wd-icon-edit-button-bar" role="presentation" data-deprecated="true">
<!-- Deprecated icon: will be removed in the future. Use wd-icon-button-bar.svg instead. -->
<g>
<path d="M8.5 11C8.77614 11 9 11.2239 9 11.5V12.5C9 12.7761 8.77614 13 8.5 13H5.5C5.22386 13 5 12.7761 5 12.5V11.5C5 11.2239 5.22386 11 5.5 11H8.5Z" fill="oklch(0.3523 0 0 / 1)" class="wd-icon-fill"></path>
<path d="M13.5 11C13.7761 11 14 11.2239 14 11.5V12.5C14 12.7761 13.7761 13 13.5 13H10.5C10.2239 13 10 12.7761 10 12.5V11.5C10 11.2239 10.2239 11 10.5 11H13.5Z" fill="oklch(0.3523 0 0 / 1)" class="wd-icon-fill"></path>
<path d="M21.5 7C22.3284 7 23 7.67157 23 8.5V15.5C23 16.3284 22.3284 17 21.5 17H2.5C1.67157 17 1 16.3284 1 15.5V8.5C1 7.67157 1.67157 7 2.5 7H21.5ZM3 15H21V9H3V15Z" fill="oklch(0.3523 0 0 / 1)" class="wd-icon-fill"></path>
</g>
</svg>