<svg width="24" height="24" viewBox="0 0 24 24" xmlns="http://www.w3.org/2000/svg" class="wd-icon wd-icon-star-half" role="presentation" data-deprecated="true">
<!-- Deprecated icon: will be removed in the future. Use wd-icon-star-half-fill.svg instead. -->
<path d="M10.6554 2.96466C11.189 1.88575 12.6959 1.85287 13.2901 2.86309L13.3448 2.96466L15.6026 7.54083L20.6515 8.2752C21.8803 8.45382 22.3743 9.96404 21.4835 10.8328L17.8302 14.3934L18.6925 19.4227L18.7081 19.5369C18.8223 20.7048 17.5823 21.564 16.5167 21.0047L16.5157 21.0037L12.0001 18.6287L7.48545 21.0037C6.3845 21.5825 5.09868 20.6474 5.3087 19.4227L6.17002 14.3934L2.5167 10.8328C1.62619 9.96424 2.11976 8.45393 3.34874 8.2752L8.39756 7.54083L10.6554 2.96466ZM12.0001 16.5008C12.1601 16.5009 12.3202 16.5384 12.4659 16.615L16.5499 18.7625L15.7706 14.2137C15.715 13.8894 15.8222 13.5586 16.0577 13.3289L19.3614 10.1072L14.796 9.44415C14.4703 9.3968 14.1887 9.19236 14.0431 8.89727L12.0001 4.7586V16.5008Z" fill="oklch(0.3523 0 0 / 1)" class="wd-icon-fill"></path>
</svg>