<svg width="24" height="24" viewBox="0 0 24 24" xmlns="http://www.w3.org/2000/svg" class="wd-icon wd-icon-labeled-image" role="presentation" data-deprecated="true">
<!-- Deprecated icon: will be removed in the future. Use wd-icon-image-label.svg instead. -->
<g>
<path d="M21.5 20C21.7761 20 22 20.2239 22 20.5V21.5C22 21.7761 21.7761 22 21.5 22H2.5C2.22386 22 2 21.7761 2 21.5V20.5C2 20.2239 2.22386 20 2.5 20H21.5Z" fill="oklch(0.3523 0 0 / 1)" class="wd-icon-fill"></path>
<path d="M13.5 6C14.3284 6 15 6.67157 15 7.5C15 8.32843 14.3284 9 13.5 9C12.6716 9 12 8.32843 12 7.5C12 6.67157 12.6716 6 13.5 6Z" fill="oklch(0.3523 0 0 / 1)" class="wd-icon-fill"></path>
<path d="M20.5 3C21.3284 3 22 3.67157 22 4.5V17.5C22 18.3284 21.3284 19 20.5 19H3.5C2.67157 19 2 18.3284 2 17.5V4.5C2 3.67157 2.67157 3 3.5 3H20.5ZM4.03516 17H19.9648L16 11.0527L14.2021 13.749L14.8047 14.6523C14.9579 14.8821 14.8958 15.1935 14.666 15.3467L13.834 15.9014C13.6042 16.0548 13.2939 15.9925 13.1406 15.7627L9 9.55273L4.03516 17ZM4 13.4473L7.75195 7.81934L7.87109 7.66309C8.50621 6.93225 9.69135 6.98431 10.248 7.81934L13 11.9473L14.752 9.31934L14.8711 9.16309C15.5062 8.43225 16.6914 8.48431 17.248 9.31934L20 13.4473V5H4V13.4473Z" fill="oklch(0.3523 0 0 / 1)" class="wd-icon-fill"></path>
</g>
</svg>