<svg width="24" height="24" viewBox="0 0 24 24" xmlns="http://www.w3.org/2000/svg" class="wd-icon wd-icon-media-mylearning" role="presentation" data-deprecated="true">
<!-- Deprecated icon: will be removed in the future. Use wd-icon-bookmark.svg instead. -->
<path d="M12.3254 15.2789L18.1746 20.2925C18.4989 20.5705 19 20.3401 19 19.9129V5C19 3.89543 18.1046 3 17 3H7C5.89543 3 5 3.89543 5 5V19.9129C5 20.3401 5.50106 20.5705 5.8254 20.2925L11.6746 15.2789C11.8618 15.1184 12.1382 15.1184 12.3254 15.2789Z" fill="transparent" class="wd-icon-background"></path>
<path d="M17 2C18.6569 2 20 3.34315 20 5V19.9131C19.9998 21.1945 18.4964 21.8857 17.5234 21.0518L12 16.3164L6.47656 21.0518C5.50361 21.8857 4.00015 21.1945 4 19.9131V5C4 3.34315 5.34315 2 7 2H17ZM7 4C6.44772 4 6 4.44772 6 5V18.8252L11.0234 14.5195C11.5501 14.0681 12.3122 14.0396 12.8682 14.4346L12.9766 14.5195L18 18.8252V5C18 4.44772 17.5523 4 17 4H7Z" fill="oklch(0.3523 0 0 / 1)" class="wd-icon-fill"></path>
</svg>