<svg width="24" height="24" viewBox="0 0 24 24" xmlns="http://www.w3.org/2000/svg" class="wd-icon wd-icon-cell-search" role="presentation" data-deprecated="true">
<!-- Deprecated icon: will be removed in the future. Use wd-icon-table-search.svg instead. -->
<path d="M20.5 3C21.3284 3 22 3.67157 22 4.5V12.5C22 12.7761 21.7761 13 21.5 13H20.5C20.2239 13 20 12.7761 20 12.5V9H16V10.5C16 10.7761 15.7761 11 15.5 11H14.5C14.2239 11 14 10.7761 14 10.5V9H10V11H12.5C12.7761 11 13 11.2239 13 11.5V12.5C13 12.7761 12.7761 13 12.5 13H10V15H11.5C11.7761 15 12 15.2239 12 15.5V16.5C12 16.7761 11.7761 17 11.5 17H10V19H11.5C11.7761 19 12 19.2239 12 19.5V20.5C12 20.7761 11.7761 21 11.5 21H3.5C2.67157 21 2 20.3284 2 19.5V4.5C2 3.67157 2.67157 3 3.5 3H20.5ZM4 19H8V17H4V19ZM4 15H8V13H4V15ZM4 11H8V9H4V11ZM4 7H8V5H4V7ZM10 7H14V5H10V7ZM16 7H20V5H16V7Z" fill="oklch(0.3523 0 0 / 1)" class="wd-icon-fill"></path>
<path d="M17 13C19.2091 13 21 14.7909 21 17C21 17.7417 20.7971 18.4358 20.4453 19.0312L22.1035 20.6895C22.2985 20.8846 22.2984 21.2012 22.1035 21.3965L21.3965 22.1035C21.2013 22.2987 20.8847 22.2986 20.6895 22.1035L19.0312 20.4453C18.4358 20.7971 17.7417 21 17 21C14.7909 21 13 19.2091 13 17C13 14.7909 14.7909 13 17 13ZM17 15C15.8954 15 15 15.8954 15 17C15 18.1046 15.8954 19 17 19C18.1046 19 19 18.1046 19 17C19 15.8954 18.1046 15 17 15Z" fill="oklch(0.3523 0 0 / 1)" class="wd-icon-accent"></path>
</svg>