<svg width="24" height="24" viewBox="0 0 24 24" xmlns="http://www.w3.org/2000/svg" class="wd-icon wd-icon-phone-unlock" role="presentation" data-deprecated="true">
<!-- Deprecated icon: will be removed in the future. Use wd-icon-mobile-unlock.svg instead. -->
<g>
<path d="M15 1C17.2091 1 19 2.79086 19 5V9.5C18.9999 9.77601 18.776 9.99998 18.5 10H17.5C17.2239 10 17.0001 9.77603 17 9.5V5C17 3.89543 16.1046 3 15 3H9C7.89543 3 7 3.89543 7 5V19C7 20.1046 7.89543 21 9 21H10.5C10.7761 21 11 21.2239 11 21.5V22.5C11 22.7761 10.7761 23 10.5 23H9C6.79086 23 5 21.2091 5 19V5C5 2.79086 6.79086 1 9 1H15Z" fill="oklch(0.3523 0 0 / 1)" class="wd-icon-fill"></path>
<path d="M17.5 12C19.4328 12.0003 21 13.5672 21 15.5V16L21.0986 16.0049C21.3276 16.0276 21.5429 16.1289 21.707 16.293C21.8944 16.4804 21.9999 16.735 22 17V22C21.9998 22.5175 21.6066 22.9438 21.1025 22.9951L21 23H14C13.7349 23 13.4805 22.8945 13.293 22.707C13.1055 22.5196 13.0001 22.2651 13 22V17C13.0002 16.4479 13.4478 16 14 16H19V15.5C19 14.6717 18.3282 14.0003 17.5 14C17.1891 14.0001 16.9 14.0941 16.6602 14.2568C16.4317 14.4118 16.1211 14.4665 15.9004 14.3008L15.1006 13.7002C14.8798 13.5344 14.833 13.2175 15.0283 13.0225C15.6605 12.3921 16.535 12.0001 17.5 12ZM15 21H20V18H15V21Z" fill="oklch(0.3523 0 0 / 1)" class="wd-icon-fill"></path>
<path d="M13.5 4C13.7761 4 14 4.22386 14 4.5V5.5C14 5.77614 13.7761 6 13.5 6H10.5C10.2239 6 10 5.77614 10 5.5V4.5C10 4.22386 10.2239 4 10.5 4H13.5Z" fill="oklch(0.3523 0 0 / 1)" class="wd-icon-fill"></path>
</g>
</svg>