<svg width="24" height="24" viewBox="0 0 24 24" xmlns="http://www.w3.org/2000/svg" class="wd-icon wd-icon-device-desktop" role="presentation" data-deprecated="true">
<!-- Deprecated icon: will be removed in the future. Use wd-icon-desktop.svg instead. -->
<path d="M2 6C2 5.44772 2.44772 5 3 5H21C21.5523 5 22 5.44772 22 6V16C22 16.5523 21.5523 17 21 17H3C2.44772 17 2 16.5523 2 16V6Z" fill="transparent" class="wd-icon-background"></path>
<g>
<path d="M17.5 20C17.7761 20 18 20.2239 18 20.5V21.5C18 21.7761 17.7761 22 17.5 22H6.5C6.22386 22 6 21.7761 6 21.5V20.5C6 20.2239 6.22386 20 6.5 20H17.5Z" fill="oklch(0.3523 0 0 / 1)" class="wd-icon-fill"></path>
<path d="M21 4C22.1046 4 23 4.89543 23 6V16C23 17.1046 22.1046 18 21 18H3C1.89543 18 1 17.1046 1 16V6C1 4.89543 1.89543 4 3 4H21ZM3 16H21V6H3V16Z" fill="oklch(0.3523 0 0 / 1)" class="wd-icon-fill"></path>
</g>
</svg>