<svg width="24" height="24" viewBox="0 0 24 24" xmlns="http://www.w3.org/2000/svg" class="wd-icon wd-icon-my-learning" role="presentation" data-deprecated="true">
<!-- Deprecated icon: will be removed in the future. Use wd-icon-book-open-bookmark.svg instead. -->
<path d="M17 3C19.085 3.00004 20.997 3.75258 22.4756 4.99902C22.8216 5.29077 22.9999 5.71217 23 6.13281V18.791C23 19.4537 22.5882 19.9395 22.126 20.1621C21.6716 20.3808 21.0722 20.3972 20.5645 20.0635C19.5415 19.3912 18.3179 19 17 19C15.4739 19 14.0727 19.5247 12.9639 20.4043C12.4003 20.8514 11.5997 20.8514 11.0361 20.4043C9.92727 19.5246 8.52615 19 7 19C5.6819 19 4.45767 19.391 3.43457 20.0635C2.92664 20.3973 2.32751 20.381 1.87305 20.1621C1.4109 19.9394 1 19.4536 1 18.791V6.13281C1.00012 5.71214 1.1784 5.29077 1.52441 4.99902L1.80664 4.77051C3.24262 3.66096 5.04542 3.00004 7 3C8.86756 3.00004 10.597 3.60313 12 4.625C13.403 3.60318 15.1325 3.00004 17 3ZM16 5.07715C14.8797 5.24995 13.8545 5.70782 13 6.37598V17.999C14.1926 17.362 15.5547 17 17 17C18.4449 17 19.8071 17.3626 21 18V6.37695C20.407 5.9132 19.7319 5.55102 19 5.31445V8.5C19 8.98051 18.3879 9.18421 18.0996 8.7998L17.5 8L16.9004 8.7998C16.6121 9.18421 16 8.98051 16 8.5V5.07715ZM7 5C5.49042 5.00004 4.10324 5.51414 3 6.37695V17.999C4.19274 17.3618 5.55527 17 7 17C8.44528 17 9.80747 17.3621 11 17.999V6.37598C9.8969 5.51344 8.50965 5.00004 7 5Z" fill="oklch(0.3523 0 0 / 1)" class="wd-icon-fill"></path>
</svg>