<svg width="24" height="24" viewBox="0 0 24 24" xmlns="http://www.w3.org/2000/svg" class="wd-icon wd-icon-chart-visuals-fan" role="presentation" data-deprecated="true">
<!-- Deprecated icon: will be removed in the future. Use wd-icon-fan-chart.svg instead. -->
<path d="M2 16L10 7L14 9L21 3.75V9.625L14 14L10 12L2 16Z" fill="transparent" class="wd-icon-background"></path>
<path d="M20.401 2.94978C20.704 2.72292 21.1093 2.68577 21.4479 2.85505C21.7865 3.02439 22.0004 3.37103 22.0006 3.74958V16.4996C22.0006 16.8782 21.7864 17.2246 21.4479 17.3941L14.4479 20.8941C14.0629 21.0866 13.5979 21.011 13.2936 20.7066L9.58655 16.9996H2.00061C1.60682 16.9996 1.24982 16.768 1.08851 16.4088C0.927523 16.0497 0.992067 15.6297 1.25354 15.3355L9.25354 6.33552L9.37464 6.22028C9.67512 5.97899 10.0942 5.92823 10.4479 6.10505L13.8951 7.82868L20.401 2.94978ZM14.5309 14.8472C14.2355 15.0319 13.8649 15.0498 13.5533 14.8941L10.0006 13.1177L6.23694 14.9996H10.0006C10.2657 14.9997 10.5202 15.1051 10.7076 15.2926L14.1979 18.7828L20.0006 15.8814V11.4283L14.5309 14.8472ZM14.6002 9.79939C14.2973 10.0265 13.8921 10.0634 13.5533 9.89411L10.2379 8.23591L6.19593 12.7828L9.55335 11.1051C9.83478 10.9645 10.1665 10.9644 10.4479 11.1051L13.9459 12.8541L20.0006 9.06989V5.7486L14.6002 9.79939Z" fill="oklch(0.3523 0 0 / 1)" class="wd-icon-fill"></path>
</svg>