<svg width="24" height="24" viewBox="0 0 24 24" xmlns="http://www.w3.org/2000/svg" class="wd-icon wd-icon-rename" role="presentation" data-deprecated="true">
<!-- Deprecated icon: will be removed in the future. Use wd-icon-document-edit.svg instead. -->
<path d="M18.5 1C19.3284 1 20 1.67157 20 2.5V8.5C20 8.77614 19.7761 9 19.5 9H18.5C18.2239 9 18 8.77614 18 8.5V3H6V21H8.5C8.77614 21 9 21.2239 9 21.5V22.5C9 22.7761 8.77614 23 8.5 23H5.5C4.67157 23 4 22.3284 4 21.5V2.5C4 1.67157 4.67157 1 5.5 1H18.5Z" fill="oklch(0.3523 0 0 / 1)" class="wd-icon-fill"></path>
<g>
<path d="M19.499 11C20.3946 10.9989 21.2942 11.3411 21.9785 12.0254C22.6626 12.7097 23.0041 13.6094 23.0029 14.5049C23.0025 14.7696 22.8973 15.0238 22.71 15.2109L15.207 22.707C15.0195 22.8944 14.7651 23 14.5 23H12C11.4478 23 11.0001 22.5522 11 22V19.5C11 19.2348 11.1055 18.9805 11.293 18.793L18.793 11.293L18.8662 11.2266C19.0438 11.081 19.2674 11.0003 19.499 11ZM13 19.9141V21H14.085L18.3369 16.751L17.249 15.6631L13 19.9141ZM18.6631 14.249L19.751 15.3369L20.9561 14.1348C20.8924 13.8799 20.7629 13.6389 20.5635 13.4395C20.3637 13.2397 20.1225 13.1094 19.8672 13.0459L18.6631 14.249Z" fill="oklch(0.3523 0 0 / 1)" class="wd-icon-accent"></path>
<path d="M12.5 8C12.7761 8 13 8.22386 13 8.5V9.5C13 9.77614 12.7761 10 12.5 10H8.5C8.22386 10 8 9.77614 8 9.5V8.5C8 8.22386 8.22386 8 8.5 8H12.5Z" fill="oklch(0.3523 0 0 / 1)" class="wd-icon-accent"></path>
<path d="M15.5 5C15.7761 5 16 5.22386 16 5.5V6.5C16 6.77614 15.7761 7 15.5 7H8.5C8.22386 7 8 6.77614 8 6.5V5.5C8 5.22386 8.22386 5 8.5 5H15.5Z" fill="oklch(0.3523 0 0 / 1)" class="wd-icon-accent"></path>
</g>
</svg>