<svg width="24" height="24" viewBox="0 0 24 24" xmlns="http://www.w3.org/2000/svg" class="wd-icon wd-icon-task-company-property" role="presentation" data-deprecated="true">
<!-- Deprecated icon: will be removed in the future. Use wd-icon-stapler.svg instead. -->
<path d="M6.02441 4.53009L16.9814 6.17365C19.866 6.60636 22 9.08399 22 12.0008V17.0008H16V12.9998H4V9.29279L2.23438 9.02814L2.63281 6.93537C2.93431 5.35306 4.43146 4.29131 6.02441 4.53009Z" fill="transparent" class="wd-icon-background"></path>
<path d="M1.65039 6.74731C2.05257 4.63781 4.04901 3.2219 6.17285 3.54028L17.1299 5.18286C20.5041 5.68897 22.9999 8.58862 23 12.0002V17.0002C23 17.2701 22.8925 17.5147 22.7188 17.6946C22.7148 17.6987 22.711 17.7033 22.707 17.7073C22.6745 17.7398 22.6389 17.7687 22.6025 17.7961C22.485 17.8853 22.3482 17.9495 22.1982 17.9797C22.1895 17.9815 22.1806 17.9821 22.1719 17.9836C22.1159 17.9934 22.0587 18.0002 22 18.0002H1.5C1.22398 18.0002 1.00019 17.7762 1 17.5002V16.5002C1 16.2241 1.22386 16.0002 1.5 16.0002H15V11.9573L2.08594 10.0168C1.817 9.97641 1.57624 9.82757 1.41895 9.60571C1.2617 9.38386 1.2011 9.10722 1.25195 8.84009L1.65039 6.74731ZM5.87598 5.5188C4.81412 5.35969 3.81629 6.06753 3.61523 7.12231L3.41113 8.19263L16.1484 10.1077C16.6378 10.1812 16.9999 10.6021 17 11.0969V16.0002H21V12.0002C20.9999 9.5783 19.2279 7.52057 16.833 7.16138L5.87598 5.5188Z" fill="oklch(0.3523 0 0 / 1)" class="wd-icon-fill"></path>
<path d="M5 10.4553V12.0002H15V14.0002H4C3.44779 14.0002 3.00013 13.5524 3 13.0002V10.1545L5 10.4553Z" fill="oklch(0.3523 0 0 / 1)" class="wd-icon-accent"></path>
</svg>