<svg width="24" height="24" viewBox="0 0 24 24" xmlns="http://www.w3.org/2000/svg" class="wd-icon wd-icon-conclusion-popup" role="presentation" data-deprecated="true">
<!-- Deprecated icon: will be removed in the future. Use wd-icon-document-success.svg instead. -->
<g>
<path d="M15.5 15C15.7761 15 16 15.2239 16 15.5V16.5C16 16.7761 15.7761 17 15.5 17H8.5C8.22386 17 8 16.7761 8 16.5V15.5C8 15.2239 8.22386 15 8.5 15H15.5Z" fill="oklch(0.3523 0 0 / 1)" class="wd-icon-fill"></path>
<path d="M14.9395 6.64648C15.1347 6.45131 15.4512 6.45139 15.6465 6.64648L16.3535 7.35352C16.5487 7.54877 16.5487 7.86529 16.3535 8.06055L11.707 12.707C11.3166 13.0974 10.6835 13.0973 10.293 12.707L8.14648 10.5605C7.95143 10.3653 7.95144 10.0487 8.14648 9.85352L8.85352 9.14648C9.04873 8.95131 9.36528 8.95139 9.56055 9.14648L11 10.5859L14.9395 6.64648Z" fill="oklch(0.3523 0 0 / 1)" class="wd-icon-fill"></path>
<path d="M18 1C19.1046 1 20 1.89543 20 3V21C20 22.1046 19.1046 23 18 23H6C4.89543 23 4 22.1046 4 21V3C4 1.89543 4.89543 1 6 1H18ZM6 21H18V3H6V21Z" fill="oklch(0.3523 0 0 / 1)" class="wd-icon-fill"></path>
</g>
</svg>