<svg width="24" height="24" viewBox="0 0 24 24" xmlns="http://www.w3.org/2000/svg" class="wd-icon wd-icon-course" role="presentation" data-deprecated="true">
<!-- Deprecated icon: will be removed in the future. Use wd-icon-easel.svg instead. -->
<path d="M4 4H20V15H4V4Z" fill="transparent" class="wd-icon-background"></path>
<path d="M21.5 3C21.7761 3 22 3.22386 22 3.5V4.5C22 4.77614 21.7761 5 21.5 5H21V14H21.5C21.7761 14 22 14.2239 22 14.5V15.5C22 15.7761 21.7761 16 21.5 16H13.001V18.4375L17.5928 21.2354C17.8284 21.3792 17.9025 21.6871 17.7588 21.9229L17.499 22.3496L17.2383 22.7764C17.0946 23.012 16.7875 23.0869 16.5518 22.9434L13.001 20.7812V22.5C13.0008 22.776 12.777 23 12.501 23H11.501C11.225 23 11.0011 22.776 11.001 22.5V20.7793L7.44727 22.9443C7.21153 23.0877 6.90438 23.0129 6.76074 22.7773L6.5 22.3506L6.24023 21.9238C6.09648 21.688 6.17146 21.3801 6.40723 21.2363L11.001 18.4365V16H2.5C2.22386 16 2 15.7761 2 15.5V14.5C2 14.2239 2.22386 14 2.5 14H3V5H2.5C2.22386 5 2 4.77614 2 4.5V3.5C2 3.22386 2.22386 3 2.5 3H21.5ZM5 14H19V5H5V14Z" fill="oklch(0.3523 0 0 / 1)" class="wd-icon-fill"></path>
<g>
<path d="M12.5 10C12.7761 10 13 10.2239 13 10.5V11.5C13 11.7761 12.7761 12 12.5 12H7.5C7.22386 12 7 11.7761 7 11.5V10.5C7 10.2239 7.22386 10 7.5 10H12.5Z" fill="oklch(0.3523 0 0 / 1)" class="wd-icon-accent"></path>
<path d="M16.5 7C16.7761 7 17 7.22386 17 7.5V8.5C17 8.77614 16.7761 9 16.5 9H7.5C7.22386 9 7 8.77614 7 8.5V7.5C7 7.22386 7.22386 7 7.5 7H16.5Z" fill="oklch(0.3523 0 0 / 1)" class="wd-icon-accent"></path>
</g>
</svg>