<svg width="24" height="24" viewBox="0 0 24 24" xmlns="http://www.w3.org/2000/svg" class="wd-icon wd-icon-merge-tag" role="presentation" data-deprecated="true">
<!-- Deprecated icon: will be removed in the future. Use wd-icon-tag-merge.svg instead. -->
<g>
<path d="M8.35532 11.1055C10.0365 9.42432 11.8824 9.36108 13.3143 10.793L14.3778 11.8564C14.4754 11.9541 14.4754 12.1123 14.3778 12.21L12.7567 13.8311C12.497 14.0907 12.2325 14.1229 12.0575 13.9482L12.0516 13.9424C12.0253 13.916 12.0044 13.8842 11.9832 13.8525L11.9725 13.8633C12.1368 14.2609 12.0676 14.7113 11.702 15.0771C11.1452 15.6339 10.2488 15.6716 9.44809 14.8711C8.65266 14.0757 8.68922 13.1789 9.24594 12.6221C9.58528 12.2827 10.0045 12.182 10.4393 12.3516L10.45 12.3408C10.3772 12.2851 10.3095 12.2228 10.244 12.1582C10.1458 12.0612 10.1474 11.9013 10.245 11.8037L10.6815 11.3672C10.7791 11.2696 10.9374 11.2697 11.035 11.3672L12.3436 12.6748C12.4708 12.802 12.5769 12.8027 12.7147 12.665L13.16 12.2188L12.5233 11.583C11.2771 10.3369 10.143 10.5385 8.96567 11.7158C7.78314 12.8984 7.71909 14.1917 8.88559 15.3584C10.047 16.5198 11.3309 16.4463 12.5135 15.2637L14.9725 12.8047C15.0701 12.7071 15.2284 12.7071 15.326 12.8047L15.6034 13.082C15.7008 13.1797 15.7009 13.338 15.6034 13.4355L13.1444 15.8945C11.458 17.5808 9.59144 17.6548 8.09067 16.1543C6.58985 14.6535 6.6689 12.7919 8.35532 11.1055ZM11.2137 13.1045C10.8425 12.7334 10.4179 12.6484 10.1209 12.9453C9.82935 13.2369 9.91997 13.6348 10.3016 14.0166C10.6887 14.4037 11.0865 14.4942 11.3729 14.1973C11.6699 13.9003 11.5849 13.4757 11.2137 13.1045Z" fill="oklch(0.3523 0 0 / 1)" class="wd-icon-fill"></path>
<path d="M15.9998 6C17.1043 6.00008 17.9998 6.89548 17.9998 8C17.9998 9.10452 17.1043 9.99992 15.9998 10C14.8953 10 13.9998 9.10457 13.9998 8C13.9998 6.89543 14.8953 6 15.9998 6Z" fill="oklch(0.3523 0 0 / 1)" class="wd-icon-fill"></path>
<path d="M19.4998 3C20.3282 3.00008 20.9998 3.67162 20.9998 4.5V12.293C20.9998 12.6907 20.8416 13.0722 20.5604 13.3535L11.5604 22.3535C10.9746 22.9392 10.0251 22.9392 9.4393 22.3535L1.64633 14.5605C1.0606 13.9748 1.0606 13.0252 1.64633 12.4395L10.6463 3.43945L10.7567 3.33984C11.0235 3.12128 11.3589 3.00002 11.7069 3H19.4998ZM3.41391 13.5L10.4998 20.5859L18.9998 12.0859V5H11.9139L3.41391 13.5Z" fill="oklch(0.3523 0 0 / 1)" class="wd-icon-fill"></path>
</g>
</svg>