<svg width="24" height="24" viewBox="0 0 24 24" xmlns="http://www.w3.org/2000/svg" class="wd-icon wd-icon-workbook" role="presentation" data-deprecated="true">
<!-- Deprecated icon: will be removed in the future. Use wd-icon-book.svg instead. -->
<path d="M18.5 1C19.3284 1 20 1.67157 20 2.5V18.5C20 19.3284 19.3284 20 18.5 20H6.5C6.22386 20 6 20.2239 6 20.5C6 20.7761 6.22386 21 6.5 21H19.5C19.7761 21 20 21.2239 20 21.5V22.5C20 22.7761 19.7761 23 19.5 23H6.5C5.11929 23 4 21.8807 4 20.5V2.5C4 1.67157 4.67157 1 5.5 1H18.5ZM6 18.0498C6.16154 18.017 6.32878 18 6.5 18H18V3H6V18.0498Z" fill="oklch(0.3523 0 0 / 1)" class="wd-icon-fill"></path>
<path d="M15 7.5C15 7.77614 14.7761 8 14.5 8H9.5C9.22386 8 9 7.77614 9 7.5V6.5C9 6.22386 9.22386 6 9.5 6H14.5C14.7761 6 15 6.22386 15 6.5V7.5Z" fill="oklch(0.3523 0 0 / 1)" class="wd-icon-accent"></path>
</svg>