<svg width="24" height="24" viewBox="0 0 24 24" xmlns="http://www.w3.org/2000/svg" class="wd-icon wd-icon-checkboxes" role="presentation" data-deprecated="true">
<!-- Deprecated icon: will be removed in the future. Use wd-icon-checkbox-stack.svg instead. -->
<path d="M7 4C7 3.44772 7.44772 3 8 3H20C20.5523 3 21 3.44772 21 4V16C21 16.5523 20.5523 17 20 17H8C7.44772 17 7 16.5523 7 16V4Z" fill="transparent" class="wd-icon-background"></path>
<g>
<path d="M4.5 6C4.77614 6.00001 5 6.22386 5 6.5V7.5C4.99988 7.77604 4.77606 7.99999 4.5 8H4V20H16V19.5C16 19.2239 16.2239 19 16.5 19H17.5C17.7761 19 18 19.2239 18 19.5V20C18 21.1046 17.1046 22 16 22H4C2.89543 22 2 21.1046 2 20V8C2 6.89543 2.89543 6 4 6H4.5Z" fill="oklch(0.3523 0 0 / 1)" class="wd-icon-fill"></path>
<path d="M20 2C21.1046 2 22 2.89543 22 4V16C22 17.1046 21.1046 18 20 18H8C6.89543 18 6 17.1046 6 16V4C6 2.89543 6.89543 2 8 2H20ZM8 16H20V4H8V16Z" fill="oklch(0.3523 0 0 / 1)" class="wd-icon-fill"></path>
</g>
<path d="M16.9394 6.6464C17.1346 6.45121 17.4512 6.45119 17.6464 6.6464L18.3534 7.35343C18.5486 7.54868 18.5486 7.86522 18.3534 8.06046L13.707 12.7069C13.3165 13.0974 12.6834 13.0972 12.2929 12.7069L10.1464 10.5605C9.9512 10.3652 9.9512 10.0487 10.1464 9.85343L10.8534 9.1464C11.0487 8.95121 11.3652 8.95119 11.5605 9.1464L12.9999 10.5859L16.9394 6.6464Z" fill="oklch(0.3523 0 0 / 1)" class="wd-icon-accent"></path>
</svg>