<svg width="24" height="24" viewBox="0 0 24 24" xmlns="http://www.w3.org/2000/svg" class="wd-icon wd-icon-perspective" role="presentation" data-deprecated="true">
<!-- Deprecated icon: will be removed in the future. Use wd-icon-layers.svg instead. -->
<path d="M10.245 2.49384C11.3524 1.95324 12.6474 1.95321 13.7548 2.49384L22.2685 6.65204C23.3908 7.20014 23.3907 8.79918 22.2685 9.34735L20.9325 9.9997L22.2685 10.652C23.3907 11.2001 23.3906 12.7992 22.2685 13.3474L20.9325 13.9997L22.2685 14.652C23.3907 15.2001 23.3906 16.7992 22.2685 17.3474L13.7548 21.5056C12.6474 22.0462 11.3525 22.0462 10.245 21.5056L1.73137 17.3474C0.609086 16.7992 0.609063 15.2001 1.73137 14.652L3.06633 13.9987L1.73137 13.3474C0.609086 12.7992 0.609063 11.2001 1.73137 10.652L3.06633 9.99872L1.73137 9.34735C0.609086 8.79921 0.609063 7.20015 1.73137 6.65204L10.245 2.49384ZM13.7548 17.5056C12.6474 18.0462 11.3525 18.0462 10.245 17.5056L5.34465 15.112L3.52825 15.9997L11.122 19.7077C11.6758 19.9782 12.324 19.9782 12.8779 19.7077L20.4706 15.9997L18.6532 15.112L13.7548 17.5056ZM13.7548 13.5056C12.6474 14.0462 11.3525 14.0462 10.245 13.5056L5.34465 11.112L3.52825 11.9997L11.122 15.7077C11.6758 15.9782 12.324 15.9782 12.8779 15.7077L20.4706 11.9997L18.6532 11.112L13.7548 13.5056ZM12.8779 4.29169C12.3241 4.02125 11.6758 4.02128 11.122 4.29169L3.52825 7.9997L11.122 11.7077C11.6758 11.9782 12.324 11.9782 12.8779 11.7077L20.4706 7.9997L12.8779 4.29169Z" fill="oklch(0.3523 0 0 / 1)" class="wd-icon-fill"></path>
</svg>