<svg width="24" height="24" viewBox="0 0 24 24" xmlns="http://www.w3.org/2000/svg" class="wd-icon wd-icon-skills" role="presentation" data-deprecated="true">
<!-- Deprecated icon: will be removed in the future. Use wd-icon-bow-compass.svg instead. -->
<path d="M12.5001 1C12.7763 1 13.0001 1.22386 13.0001 1.5V3.12598C14.7254 3.56997 16.0001 5.1361 16.0001 7C16.0001 7.91033 15.6949 8.74866 15.1828 9.4209L18.5812 19.7676C18.5914 19.7987 18.5987 19.8308 18.6027 19.8633L18.9074 22.3936C18.9725 22.9359 18.2448 23.1746 17.9757 22.6992L16.7208 20.4814C16.7047 20.4529 16.6911 20.4227 16.6808 20.3916L15.3732 16.4111C13.4685 17.0936 11.3921 17.1877 9.42006 16.6611C9.15107 16.5893 8.88646 16.5054 8.62611 16.4121L7.32045 20.3916C7.3102 20.4228 7.29655 20.4529 7.28041 20.4814L6.02553 22.6992C5.75644 23.1747 5.02869 22.936 5.09389 22.3936L5.39857 19.8633C5.4025 19.8307 5.40985 19.7987 5.42006 19.7676L6.80678 15.543C5.71567 14.8798 4.75419 14.0116 3.98256 12.9766C3.81747 12.7551 3.88006 12.4438 4.10951 12.29L4.94057 11.7324C5.1699 11.5789 5.47892 11.6421 5.64662 11.8613C6.157 12.5284 6.76787 13.1054 7.45131 13.5781L8.81654 9.4209C8.30467 8.74877 8.00014 7.91005 8.00014 7C8.00014 5.13621 9.27498 3.57007 11.0001 3.12598V1.5C11.0001 1.22391 11.2241 1.00008 11.5001 1H12.5001ZM13.5001 10.707C13.0367 10.8947 12.5308 11 12.0001 11C11.4691 11 10.9628 10.895 10.4992 10.707L9.25014 14.5107C9.47499 14.5931 9.70364 14.6673 9.93666 14.7295C11.5315 15.1552 13.2119 15.0743 14.7492 14.5117L13.5001 10.707ZM12.0001 5C10.8956 5.00008 10.0001 5.89548 10.0001 7C10.0001 8.10452 10.8956 8.99992 12.0001 9C13.1047 9 14.0001 8.10457 14.0001 7C14.0001 5.89543 13.1047 5 12.0001 5Z" fill="oklch(0.3523 0 0 / 1)" class="wd-icon-fill"></path>
</svg>