<svg width="24" height="24" viewBox="0 0 24 24" xmlns="http://www.w3.org/2000/svg" class="wd-icon wd-icon-inventory-search" role="presentation" data-deprecated="true">
<!-- Deprecated icon: will be removed in the future. Use wd-icon-list-check.svg instead. -->
<g>
<path d="M6.19817 14.3937C6.39343 14.1986 6.70999 14.1986 6.9052 14.3937L7.61223 15.1008C7.80709 15.296 7.8072 15.6126 7.61223 15.8078L6.42278 16.9972L7.61223 18.1867C7.80702 18.3819 7.80718 18.6986 7.61223 18.8937L6.9052 19.6008C6.71006 19.7957 6.39341 19.7955 6.19817 19.6008L5.00871 18.4113L3.81926 19.6008C3.6241 19.7957 3.30746 19.7956 3.11223 19.6008L2.4052 18.8937C2.21004 18.6985 2.21014 18.382 2.4052 18.1867L3.59465 16.9972L2.4052 15.8078C2.20999 15.6126 2.21009 15.296 2.4052 15.1008L3.11223 14.3937C3.30751 14.1986 3.62406 14.1985 3.81926 14.3937L5.00871 15.5832L6.19817 14.3937Z" fill="oklch(0.3523 0 0 / 1)" class="wd-icon-fill"></path>
<path d="M22.4999 16.0002C22.776 16.0003 22.9999 16.2241 22.9999 16.5002V17.5002C22.9998 17.7762 22.7759 18.0001 22.4999 18.0002H10.4999C10.2238 18.0002 10 17.7762 9.99992 17.5002V16.5002C9.99992 16.224 10.2238 16.0002 10.4999 16.0002H22.4999Z" fill="oklch(0.3523 0 0 / 1)" class="wd-icon-fill"></path>
<path d="M6.93938 4.14665C7.13463 3.95144 7.45116 3.95144 7.64641 4.14665L8.35344 4.85368C8.54843 5.04896 8.54858 5.36554 8.35344 5.56072L5.20696 8.7072C5.01949 8.89466 4.76503 9.00009 4.49992 9.00017C4.23485 9.00017 3.9804 8.89455 3.79289 8.7072L2.14641 7.06072C1.9512 6.86546 1.9512 6.54894 2.14641 6.35368L2.85344 5.64665C3.04869 5.45144 3.36522 5.45144 3.56047 5.64665L4.49992 6.58611L6.93938 4.14665Z" fill="oklch(0.3523 0 0 / 1)" class="wd-icon-fill"></path>
<path d="M22.4999 6.00017C22.776 6.00025 22.9999 6.22408 22.9999 6.50017V7.50017C22.9998 7.77619 22.7759 8.00009 22.4999 8.00017H10.4999C10.2238 8.00017 10 7.77624 9.99992 7.50017V6.50017C9.99992 6.22403 10.2238 6.00017 10.4999 6.00017H22.4999Z" fill="oklch(0.3523 0 0 / 1)" class="wd-icon-fill"></path>
</g>
</svg>