<svg width="24" height="24" viewBox="0 0 24 24" xmlns="http://www.w3.org/2000/svg" class="wd-icon wd-icon-avatar" role="presentation" data-deprecated="true">
<!-- Deprecated icon: will be removed in the future. Use wd-icon-cloud.svg instead. -->
<path d="M9.5 4C11.2349 4 12.7794 4.8048 13.7861 6.05664C14.019 6.01944 14.2575 6 14.5 6C16.4812 6 18.1604 7.27999 18.7617 9.05762C21.1616 9.42445 23 11.4976 23 14C23 16.7614 20.7614 19 18 19H6C3.23858 19 1 16.7614 1 14C1 11.948 2.23522 10.186 4.00195 9.41504C4.04737 6.41666 6.49081 4 9.5 4ZM9.5 6C7.567 6 6 7.567 6 9.5C6 9.65929 6.01224 9.81902 6.03418 9.97949L6.15527 10.8721L5.28125 11.0859C3.97096 11.4077 3 12.5919 3 14C3 15.6569 4.34315 17 6 17H18C19.6569 17 21 15.6569 21 14C21 12.3431 19.6569 11 18 11C17.9754 11 17.9795 10.9999 17.9727 11L17.0977 11.0078L16.9736 10.1416C16.8004 8.93079 15.7583 8 14.5 8C14.2136 8 13.9403 8.04751 13.6865 8.13477L12.9199 8.39844L12.5039 7.7041C11.8905 6.68122 10.7743 6 9.5 6Z" fill="oklch(0.3523 0 0 / 1)" class="wd-icon-fill"></path>
</svg>