<svg width="24" height="24" viewBox="0 0 24 24" xmlns="http://www.w3.org/2000/svg" class="wd-icon wd-icon-task-contact" role="presentation" data-deprecated="true">
<!-- Deprecated icon: will be removed in the future. Use wd-icon-book-user.svg instead. -->
<path d="M18.5 19H6.5C5.67157 19 5 19.6716 5 20.5V2.5C5 2.22386 5.22386 2 5.5 2H18.5C18.7761 2 19 2.22386 19 2.5V18.5C19 18.7761 18.7761 19 18.5 19Z" fill="transparent" class="wd-icon-background"></path>
<path d="M18.5 1C19.3284 1 20 1.67157 20 2.5V18.5C20 19.3284 19.3284 20 18.5 20H6.5C6.22386 20 6 20.2239 6 20.5C6 20.7761 6.22386 21 6.5 21H19.5C19.7761 21 20 21.2239 20 21.5V22.5C20 22.7761 19.7761 23 19.5 23H6.5C5.11929 23 4 21.8807 4 20.5V2.5C4 1.67157 4.67157 1 5.5 1H18.5ZM6 18.0498C6.16154 18.017 6.32878 18 6.5 18H18V3H6V18.0498Z" fill="oklch(0.3523 0 0 / 1)" class="wd-icon-fill"></path>
<g>
<path d="M12 11C13.4564 11 14.7919 11.5189 15.8311 12.3818C15.9403 12.4726 15.9999 12.6089 16 12.751V13.5C16 13.7761 15.7761 14 15.5 14H8.5L8.39941 13.9902C8.17145 13.9437 8 13.7417 8 13.5V12.751C8.00009 12.6089 8.05973 12.4726 8.16895 12.3818C9.20815 11.5189 10.5436 11 12 11Z" fill="oklch(0.3523 0 0 / 1)" class="wd-icon-accent"></path>
<path d="M12 6C13.1046 6 14 6.89543 14 8C14 9.10457 13.1046 10 12 10C10.8954 10 10 9.10457 10 8C10 6.89543 10.8954 6 12 6Z" fill="oklch(0.3523 0 0 / 1)" class="wd-icon-accent"></path>
</g>
</svg>