<svg width="24" height="24" viewBox="0 0 24 24" xmlns="http://www.w3.org/2000/svg" class="wd-icon wd-icon-as-applied" role="presentation" data-deprecated="true">
<!-- Deprecated icon: will be removed in the future. Use wd-icon-check-square.svg instead. -->
<g>
<path d="M14.5 3C14.7761 3 15 3.22386 15 3.5V4.5C15 4.77614 14.7761 5 14.5 5H5V19H19V12.5C19 12.2239 19.2239 12 19.5 12H20.5C20.7761 12 21 12.2239 21 12.5V19.5C21 20.3284 20.3284 21 19.5 21H4.5C3.67157 21 3 20.3284 3 19.5V4.5C3 3.67157 3.67157 3 4.5 3H14.5Z" fill="oklch(0.3523 0 0 / 1)" class="wd-icon-fill"></path>
<path d="M18.9395 5.64648C19.1347 5.45128 19.4512 5.45131 19.6465 5.64648L20.3535 6.35352C20.5487 6.54877 20.5487 6.86532 20.3535 7.06055L12.707 14.707C12.3166 15.0974 11.6835 15.0973 11.293 14.707L7.64648 11.0605C7.45131 10.8653 7.45129 10.5488 7.64648 10.3535L8.35352 9.64648C8.54876 9.45129 8.86529 9.45131 9.06055 9.64648L12 12.5859L18.9395 5.64648Z" fill="oklch(0.3523 0 0 / 1)" class="wd-icon-fill"></path>
</g>
</svg>