<svg width="24" height="24" viewBox="0 0 24 24" xmlns="http://www.w3.org/2000/svg" class="wd-icon wd-icon-switch" role="presentation" data-deprecated="true">
<!-- Deprecated icon: will be removed in the future. Use wd-icon-arrow-switch.svg instead. -->
<g>
<path d="M4.59147 12.2535C4.76622 12.0402 5.08096 12.0089 5.2946 12.1832L6.06901 12.817C6.2824 12.9919 6.31393 13.3065 6.13932 13.5201L4.11003 15.9996H15.5007C15.7765 15.9998 16.0004 16.2238 16.0007 16.4996V17.4996C16.0006 17.7756 15.7766 17.9994 15.5007 17.9996H4.11003L6.13932 20.4801C6.3142 20.6939 6.28288 21.0094 6.06901 21.1842L5.68229 21.4996L5.29557 21.816C5.08192 21.9907 4.76731 21.9592 4.59245 21.7457L1.22624 17.6334C1.11351 17.4955 1.04254 17.3348 1.01432 17.1685C0.966937 16.8909 1.0371 16.5971 1.22526 16.3668L4.59147 12.2535Z" fill="oklch(0.3523 0 0 / 1)" class="wd-icon-fill"></path>
<path d="M18.7057 2.1832C18.9193 2.00894 19.2341 2.04029 19.4089 2.25351L22.7751 6.36679C22.9632 6.59714 23.0334 6.89093 22.986 7.16855C22.9578 7.33481 22.8868 7.49548 22.7741 7.63339L19.4079 11.7457C19.233 11.9591 18.9184 11.9907 18.7048 11.816L18.318 11.4996L17.9313 11.1842C17.7176 11.0094 17.6863 10.6938 17.861 10.4801L19.8903 7.9996H8.49967C8.22382 7.99927 7.99968 7.77554 7.99967 7.4996V6.4996C7.99988 6.22384 8.22394 5.99993 8.49967 5.9996H19.8903L17.861 3.52011C17.6865 3.30655 17.7181 2.99185 17.9313 2.81699L18.7057 2.1832Z" fill="oklch(0.3523 0 0 / 1)" class="wd-icon-fill"></path>
</g>
</svg>