<svg width="24" height="24" viewBox="0 0 24 24" xmlns="http://www.w3.org/2000/svg" class="wd-icon wd-icon-upload-clip" role="presentation" data-deprecated="true">
<!-- Deprecated icon: will be removed in the future. Use wd-icon-paperclip.svg instead. -->
<path d="M12.8841 2.27667C14.6414 0.51937 17.491 0.519493 19.2484 2.27667C21.0057 4.03403 21.0057 6.88357 19.2484 8.64092L9.70249 18.1868C8.6286 19.2607 6.88776 19.2606 5.81382 18.1868C4.73989 17.1129 4.73992 15.3721 5.81382 14.2982L13.2376 6.87335C13.4329 6.67808 13.7504 6.67808 13.9457 6.87335L14.6527 7.58038C14.8476 7.77562 14.8477 8.09222 14.6527 8.28741L7.22788 15.7122C6.93503 16.0051 6.935 16.4799 7.22788 16.7728C7.52077 17.0655 7.99559 17.0655 8.28843 16.7728L17.8343 7.22686C18.8106 6.25055 18.8106 4.66704 17.8343 3.69073C16.8581 2.71474 15.2754 2.71488 14.2992 3.69073L4.39975 13.5901C2.74003 15.2499 2.74003 17.9412 4.39975 19.6009C6.05949 21.2604 8.74985 21.2605 10.4095 19.6009L18.1878 11.8226C18.3831 11.6275 18.6996 11.6275 18.8949 11.8226L19.6019 12.5296C19.7971 12.7248 19.797 13.0414 19.6019 13.2366L11.8236 21.0149C9.38281 23.4557 5.42549 23.4557 2.98472 21.0149C0.544259 18.5741 0.544055 14.6168 2.98472 12.1761L12.8841 2.27667Z" fill="oklch(0.3523 0 0 / 1)" class="wd-icon-fill"></path>
</svg>