<svg width="24" height="24" viewBox="0 0 24 24" xmlns="http://www.w3.org/2000/svg" class="wd-icon wd-icon-formula-clipboard" role="presentation" data-deprecated="true">
<!-- Deprecated icon: will be removed in the future. Use wd-icon-clipboard-formula.svg instead. -->
<path d="M12.001 2C12.6372 2.00014 13.2025 2.29832 13.5684 2.76172C13.6788 2.90171 13.8402 2.99996 14.0186 3H15.5C15.7761 3 16 3.22386 16 3.5V4H18.5C18.7761 4 19 4.22386 19 4.5V20.5C19 20.7761 18.7761 21 18.5 21H5.5C5.22386 21 5 20.7761 5 20.5V4.5C5 4.22389 5.2239 4.00005 5.5 4H8.00098V3.5C8.00098 3.22386 8.22483 3 8.50098 3H9.98242C10.1608 2.99996 10.3221 2.9017 10.4326 2.76172C10.7986 2.29819 11.3645 2 12.001 2Z" fill="transparent" class="wd-icon-background"></path>
<path d="M12.1797 1.00488C12.9966 1.05318 13.7235 1.43041 14.2334 2H15.5C16.1529 2 16.707 2.41772 16.9131 3H18.5C19.3284 3.00007 20 3.67161 20 4.5V20.5C20 21.3284 19.3283 21.9999 18.5 22H5.5C4.67174 21.9998 4 21.3283 4 20.5V4.5C4 3.67172 4.67178 3.00024 5.5 3H7.08789C7.2939 2.41775 7.84819 2.00015 8.50098 2H9.76855C10.3155 1.38923 11.112 1.00011 12.001 1L12.1797 1.00488ZM6 20H18V5H17V6.52734C17 7.35577 16.3284 8.02734 15.5 8.02734H8.50098C7.67271 8.02715 7.00098 7.35565 7.00098 6.52734V5H6V20ZM12.001 3C11.6847 3.00011 11.402 3.14724 11.2168 3.38184C10.9668 3.69821 10.5392 3.99996 9.98242 4H9.00098V6.02734H15V4H14.0186C13.4616 3.99983 13.0341 3.69752 12.7842 3.38086C12.599 3.14636 12.3169 3.00014 12.001 3Z" fill="oklch(0.3523 0 0 / 1)" class="wd-icon-fill"></path>
<g>
<path d="M11.9733 10C12.1321 10.0001 12.2512 10.1464 12.2184 10.3018L12.0817 10.9473C12.0573 11.0627 11.9555 11.1453 11.8376 11.1455H11.279C10.8406 11.1456 10.5633 11.352 10.4469 11.8799L10.4215 12H11.1901C11.3492 12.0002 11.4678 12.1472 11.4342 12.3027L11.3258 12.8027C11.3009 12.9175 11.1991 12.9998 11.0817 13H10.2096L9.40397 16.8018C9.37953 16.9171 9.27769 16.9997 9.15983 17H8.1403C7.98137 17 7.86324 16.8537 7.89616 16.6982L8.68229 13H8.14713C7.98783 12.9999 7.86937 12.8529 7.90299 12.6973L8.01139 12.1973C8.03634 12.0824 8.138 12.0001 8.25553 12H8.89518L8.99674 11.5215C9.21155 10.528 9.75805 10 10.8678 10H11.9733Z" fill="oklch(0.3523 0 0 / 1)" class="wd-icon-accent"></path>
<path d="M13.1618 12C13.2615 12 13.3517 12.0598 13.3913 12.1514L13.9587 13.4639H13.9772L14.988 12.1006C15.0351 12.0372 15.1101 12 15.1891 12H16.4645C16.681 12 16.795 12.2561 16.6501 12.417L14.6842 14.6006L15.7751 16.6309C15.8646 16.7974 15.7434 16.999 15.5544 16.999H14.4733C14.3776 16.9989 14.2905 16.9445 14.2487 16.8584L13.6188 15.5586H13.6012L12.6022 16.8984C12.555 16.9617 12.48 16.999 12.401 16.999H11.1139C10.897 16.999 10.7826 16.7417 10.9284 16.5811L12.9294 14.377L11.859 12.3682C11.7703 12.2018 11.8903 12.0003 12.0788 12H13.1618Z" fill="oklch(0.3523 0 0 / 1)" class="wd-icon-accent"></path>
</g>
</svg>