<svg width="24" height="24" viewBox="0 0 24 24" xmlns="http://www.w3.org/2000/svg" class="wd-icon wd-icon-interactiongroup" role="presentation" data-deprecated="true">
<!-- Deprecated icon: will be removed in the future. Use wd-icon-copy.svg instead. -->
<path d="M7 3.5C7 3.22386 7.22386 3 7.5 3H20.5C20.7761 3 21 3.22386 21 3.5V16.5C21 16.7761 20.7761 17 20.5 17H7.5C7.22386 17 7 16.7761 7 16.5V3.5Z" fill="transparent" class="wd-icon-background"></path>
<g>
<path d="M4.5 6C4.77614 6 5 6.22386 5 6.5V7.5C5 7.77614 4.77614 8 4.5 8H4V20H16V19.5C16 19.2239 16.2239 19 16.5 19H17.5C17.7761 19 18 19.2239 18 19.5V20.5C18 21.3284 17.3284 22 16.5 22H3.5C2.67157 22 2 21.3284 2 20.5V7.5C2 6.67157 2.67157 6 3.5 6H4.5Z" fill="oklch(0.3523 0 0 / 1)" class="wd-icon-fill"></path>
<path d="M20.5 2C21.3284 2 22 2.67157 22 3.5V16.5C22 17.3284 21.3284 18 20.5 18H7.5C6.67157 18 6 17.3284 6 16.5V3.5C6 2.67157 6.67157 2 7.5 2H20.5ZM8 16H20V4H8V16Z" fill="oklch(0.3523 0 0 / 1)" class="wd-icon-fill"></path>
</g>
</svg>