<svg width="24" height="24" viewBox="0 0 24 24" xmlns="http://www.w3.org/2000/svg" class="wd-icon wd-icon-task-timeoff" role="presentation" data-deprecated="true">
<!-- Deprecated icon: will be removed in the future. Use wd-icon-suitcase.svg instead. -->
<path d="M6 9C6 7.89543 6.89543 7 8 7H16C17.1046 7 18 7.89543 18 9V19C18 20.1046 17.1046 21 16 21H8C6.89543 21 6 20.1046 6 19V9Z" fill="transparent" class="wd-icon-background"></path>
<path d="M14 1C14.5523 1 15 1.44772 15 2V6H16L16.1543 6.00391C17.7394 6.08421 19 7.39489 19 9V19C19 20.3057 18.1645 21.413 17 21.8252V22.5C17 22.7761 16.7761 23 16.5 23H15.5C15.2239 23 15 22.7761 15 22.5V22H9V22.5C9 22.7761 8.77614 23 8.5 23H7.5C7.22386 23 7 22.7761 7 22.5V21.8252C5.83548 21.413 5 20.3057 5 19V9C5 7.34315 6.34315 6 8 6H9V2C9 1.44772 9.44772 1 10 1H14ZM8 8C7.44772 8 7 8.44772 7 9V19C7 19.5523 7.44772 20 8 20H16C16.5523 20 17 19.5523 17 19V9C17 8.48232 16.6067 8.05621 16.1025 8.00488L16 8H8ZM11 6H13V3H11V6Z" fill="oklch(0.3523 0 0 / 1)" class="wd-icon-fill"></path>
<path d="M17 18H7V16H17V18Z" fill="oklch(0.3523 0 0 / 1)" class="wd-icon-accent"></path>
</svg>