<svg width="24" height="24" viewBox="0 0 24 24" xmlns="http://www.w3.org/2000/svg" class="wd-icon wd-icon-media-survey" role="presentation" data-deprecated="true">
<!-- Deprecated icon: will be removed in the future. Use wd-icon-document-survey.svg instead. -->
<path d="M18.5 2H5.5C5.22386 2 5 2.22386 5 2.5V21.5C5 21.7761 5.22386 22 5.5 22H18.5C18.7761 22 19 21.7761 19 21.5V2.5C19 2.22386 18.7761 2 18.5 2Z" fill="transparent" class="wd-icon-background"></path>
<path d="M18.5 1C19.3284 1 20 1.67157 20 2.5V21.5C20 22.3284 19.3284 23 18.5 23H5.5C4.67157 23 4 22.3284 4 21.5V2.5C4 1.67157 4.67157 1 5.5 1H18.5ZM6 21H18V3H6V21Z" fill="oklch(0.3523 0 0 / 1)" class="wd-icon-fill"></path>
<g>
<path d="M12.5 17.0002C12.7761 17.0002 13 17.224 13 17.5002V18.5002C12.9999 18.7762 12.7761 19.0002 12.5 19.0002H8.5C8.22394 19.0002 8.00013 18.7762 8 18.5002V17.5002C8 17.224 8.22386 17.0002 8.5 17.0002H12.5Z" fill="oklch(0.3523 0 0 / 1)" class="wd-icon-accent"></path>
<path d="M15.5 14.0002C15.7761 14.0002 16 14.224 16 14.5002V15.5002C15.9999 15.7762 15.7761 16.0002 15.5 16.0002H8.5C8.22394 16.0002 8.00013 15.7762 8 15.5002V14.5002C8 14.224 8.22386 14.0002 8.5 14.0002H15.5Z" fill="oklch(0.3523 0 0 / 1)" class="wd-icon-accent"></path>
<path d="M14.9395 5.64665C15.1347 5.45144 15.4512 5.45144 15.6465 5.64665L16.3535 6.35368C16.5487 6.54894 16.5487 6.86546 16.3535 7.06071L11.707 11.7072C11.3166 12.0974 10.6834 12.0974 10.293 11.7072L8.14648 9.56071C7.95136 9.36554 7.95151 9.04895 8.14648 8.85368L8.85352 8.14665C9.04877 7.95144 9.36529 7.95144 9.56055 8.14665L11 9.5861L14.9395 5.64665Z" fill="oklch(0.3523 0 0 / 1)" class="wd-icon-accent"></path>
</g>
</svg>