<svg width="24" height="24" viewBox="0 0 24 24" xmlns="http://www.w3.org/2000/svg" class="wd-icon wd-icon-calendar-alt" role="presentation" data-deprecated="true">
<!-- Deprecated icon: will be removed in the future. Use wd-icon-calendar-days.svg instead. -->
<path d="M3.5 4C3.22386 4 3 4.22386 3 4.5V8H21V4.5C21 4.22386 20.7761 4 20.5 4H3.5Z" fill="transparent" class="wd-icon-background"></path>
<path d="M17 10.75C17.6904 10.75 18.25 11.3096 18.25 12C18.25 12.6904 17.6904 13.25 17 13.25C16.3096 13.25 15.75 12.6904 15.75 12C15.75 11.3096 16.3096 10.75 17 10.75Z" fill="oklch(0.3523 0 0 / 1)" class="wd-icon-accent"></path>
<g>
<path d="M7 14.75C7.69036 14.75 8.25 15.3096 8.25 16C8.25 16.6904 7.69036 17.25 7 17.25C6.30964 17.25 5.75 16.6904 5.75 16C5.75 15.3096 6.30964 14.75 7 14.75Z" fill="oklch(0.3523 0 0 / 1)" class="wd-icon-fill"></path>
<path d="M12 14.75C12.6904 14.75 13.25 15.3096 13.25 16C13.25 16.6904 12.6904 17.25 12 17.25C11.3096 17.25 10.75 16.6904 10.75 16C10.75 15.3096 11.3096 14.75 12 14.75Z" fill="oklch(0.3523 0 0 / 1)" class="wd-icon-fill"></path>
<path d="M7 10.75C7.69036 10.75 8.25 11.3096 8.25 12C8.25 12.6904 7.69036 13.25 7 13.25C6.30964 13.25 5.75 12.6904 5.75 12C5.75 11.3096 6.30964 10.75 7 10.75Z" fill="oklch(0.3523 0 0 / 1)" class="wd-icon-fill"></path>
<path d="M12 10.75C12.6904 10.75 13.25 11.3096 13.25 12C13.25 12.6904 12.6904 13.25 12 13.25C11.3096 13.25 10.75 12.6904 10.75 12C10.75 11.3096 11.3096 10.75 12 10.75Z" fill="oklch(0.3523 0 0 / 1)" class="wd-icon-fill"></path>
<path d="M7.5 1C7.77614 1 8 1.22386 8 1.5V3H16V1.5C16 1.22386 16.2239 1 16.5 1H17.5C17.7761 1 18 1.22386 18 1.5V3H20.5C21.3284 3 22 3.67157 22 4.5V19.5C22 20.3284 21.3284 21 20.5 21H3.5C2.67157 21 2 20.3284 2 19.5V4.5C2 3.67157 2.67157 3 3.5 3H6V1.5C6 1.22386 6.22386 1 6.5 1H7.5ZM4 19H20V9H4V19ZM4 7H20V5H4V7Z" fill="oklch(0.3523 0 0 / 1)" class="wd-icon-fill"></path>
</g>
</svg>