<svg width="24" height="24" viewBox="0 0 24 24" xmlns="http://www.w3.org/2000/svg" class="wd-icon wd-icon-transformation-import" role="presentation" data-deprecated="true">
<!-- Deprecated icon: will be removed in the future. Use wd-icon-extend.svg instead. -->
<g>
<path d="M19 4.5C19 4.22386 19.2239 4 19.5 4L20.5 4C20.7761 4 21 4.22386 21 4.5V19.5C21 19.7761 20.7761 20 20.5 20H19.5C19.2239 20 19 19.7761 19 19.5V4.5Z" fill="oklch(0.3523 0 0 / 1)" class="wd-icon-fill"></path>
<path d="M2 11.5C2.00021 11.2241 2.22412 11.0002 2.5 11L13.8906 11L11.8613 8.52051C11.6867 8.30689 11.7182 7.99226 11.9316 7.81738L12.7061 7.18359C12.9197 7.0093 13.2344 7.04055 13.4092 7.25391L16.7754 11.3672C16.9633 11.5975 17.0337 11.8915 16.9863 12.1689C16.9581 12.3351 16.8871 12.4959 16.7744 12.6338L13.4082 16.7461C13.2334 16.9594 12.9187 16.9908 12.7051 16.8164L12.3184 16.5L11.9316 16.1846C11.7178 16.0098 11.6865 15.6943 11.8613 15.4805L13.8906 13L2.5 13C2.22412 12.9998 2.00021 12.7759 2 12.5L2 11.5Z" fill="oklch(0.3523 0 0 / 1)" class="wd-icon-fill"></path>
</g>
</svg>