<svg width="24" height="24" viewBox="0 0 24 24" xmlns="http://www.w3.org/2000/svg" class="wd-icon wd-icon-zoomin" role="presentation" data-deprecated="true">
<!-- Deprecated icon: will be removed in the future. Use wd-icon-zoom-in.svg instead. -->
<g>
<path d="M11.4951 7C11.7713 7 11.9951 7.22386 11.9951 7.5V9.99512H14.5C14.7761 9.99512 15 10.219 15 10.4951V11.4951C15 11.7713 14.7761 11.9951 14.5 11.9951H11.9951V14.5C11.9951 14.7761 11.7713 15 11.4951 15H10.4951C10.219 15 9.99512 14.7761 9.99512 14.5V11.9951H7.5C7.22386 11.9951 7 11.7713 7 11.4951V10.4951C7 10.219 7.22386 9.99512 7.5 9.99512H9.99512V7.5C9.99512 7.22386 10.219 7 10.4951 7H11.4951Z" fill="oklch(0.3523 0 0 / 1)" class="wd-icon-fill"></path>
<path d="M11 2C15.9706 2 20 6.02944 20 11C20 13.125 19.2619 15.0766 18.0303 16.6162L22.3535 20.9395C22.5487 21.1347 22.5487 21.4512 22.3535 21.6465L21.6465 22.3535C21.4512 22.5487 21.1347 22.5487 20.9395 22.3535L16.6162 18.0303C15.0766 19.2619 13.125 20 11 20C6.02944 20 2 15.9706 2 11C2 6.02944 6.02944 2 11 2ZM11 4C7.13401 4 4 7.13401 4 11C4 14.866 7.13401 18 11 18C14.866 18 18 14.866 18 11C18 7.13401 14.866 4 11 4Z" fill="oklch(0.3523 0 0 / 1)" class="wd-icon-fill"></path>
</g>
</svg>