<svg width="24" height="24" viewBox="0 0 24 24" xmlns="http://www.w3.org/2000/svg" class="wd-icon wd-icon-openresponse" role="presentation" data-deprecated="true">
<!-- Deprecated icon: will be removed in the future. Use wd-icon-comment-text.svg instead. -->
<path d="M18 3.99951C19.6567 3.99951 20.9997 5.34288 21 6.99951V13.9995C21 15.6564 19.6569 16.9995 18 16.9995H9.84766C9.62206 17.899 9.15845 18.7512 8.45508 19.4546C7.49464 20.4151 6.25725 20.9299 5 20.9995V16.8247C3.83559 16.4124 3 15.3052 3 13.9995V6.99951C3.00026 5.3429 4.34334 3.99954 6 3.99951H18Z" fill="transparent" class="wd-icon-background"></path>
<path d="M14.5 7C14.7761 7 15 7.22386 15 7.5V8.5C15 8.77614 14.7761 9 14.5 9H13V13.5C13 13.7761 12.7761 14 12.5 14H11.5C11.2239 14 11 13.7761 11 13.5V9H9.5C9.22386 9 9 8.77614 9 8.5V7.5C9 7.22386 9.22386 7 9.5 7H14.5Z" fill="oklch(0.3523 0 0 / 1)" class="wd-icon-accent"></path>
<path d="M18 3C20.2091 3.00003 21.9996 4.79139 22 7V14C21.9997 16.2089 20.2089 18 18 18H10.5752C10.2679 18.7876 9.79729 19.5269 9.16211 20.1621C8.02102 21.3031 6.54867 21.9152 5.05566 21.998C4.78139 22.0132 4.5121 21.9153 4.3125 21.7266C4.11301 21.5378 4.00013 21.2746 4 21V17.457C2.8078 16.767 2.00018 15.4819 2 14V7C2.00035 4.79137 3.79093 3.00004 6 3H18ZM6 5C4.89581 5.00003 4.00026 5.89549 4 7V14C4.00021 14.8665 4.55438 15.6068 5.33398 15.8828C5.73304 16.0243 6 16.4018 6 16.8252V19.8086C6.63925 19.6076 7.24106 19.255 7.74805 18.748C8.31932 18.1767 8.69492 17.4861 8.87793 16.7568L8.93262 16.5967C9.09012 16.2389 9.44634 16 9.84766 16H18C19.1044 16 19.9997 15.1043 20 14V7C19.9997 5.89547 19.1042 5.00003 18 5H6Z" fill="oklch(0.3523 0 0 / 1)" class="wd-icon-fill"></path>
</svg>