<svg width="24" height="24" viewBox="0 0 24 24" xmlns="http://www.w3.org/2000/svg" class="wd-icon wd-icon-viewsite" role="presentation" data-deprecated="true">
<!-- Deprecated icon: will be removed in the future. Use wd-icon-webpage-open.svg instead. -->
<path d="M20.5 8H3.5C3.22386 8 3 8.24421 3 8.54545V19.4545C3 19.7558 3.22386 20 3.5 20H20.5C20.7761 20 21 19.7558 21 19.4545V8.54545C21 8.24421 20.7761 8 20.5 8Z" fill="transparent" class="wd-icon-background"></path>
<path d="M20.5 4C21.3284 4 22 4.67157 22 5.5V19.5C22 20.3284 21.3284 21 20.5 21H3.5C2.72334 21 2.08461 20.4097 2.00781 19.6533L2 19.5V5.5C2 4.67157 2.67157 4 3.5 4H20.5ZM4 19H20V9H4V19ZM4.5 6C4.22386 6 4 6.22386 4 6.5C4 6.77614 4.22386 7 4.5 7H5.5C5.77614 7 6 6.77614 6 6.5C6 6.22386 5.77614 6 5.5 6H4.5ZM7.5 6C7.22386 6 7 6.22386 7 6.5C7 6.77614 7.22386 7 7.5 7H8.5C8.77614 7 9 6.77614 9 6.5C9 6.22386 8.77614 6 8.5 6H7.5ZM10.5 6C10.2239 6 10 6.22386 10 6.5C10 6.77614 10.2239 7 10.5 7H11.5C11.7761 7 12 6.77614 12 6.5C12 6.22386 11.7761 6 11.5 6H10.5Z" fill="oklch(0.3523 0 0 / 1)" class="wd-icon-fill"></path>
<path d="M18.5 10C18.7761 10 19 10.2239 19 10.5V15.5C19 15.7761 18.7761 16 18.5 16H17.5C17.2238 16 17 15.7761 17 15.5V13.4141L13.0605 17.3535C12.8653 17.5487 12.5487 17.5487 12.3535 17.3535L11.6464 16.6465C11.4512 16.4512 11.4512 16.1347 11.6464 15.9395L15.5859 12H13.5C13.2238 12 13 11.7761 13 11.5V10.5C13 10.2239 13.2238 10 13.5 10H18.5Z" fill="oklch(0.3523 0 0 / 1)" class="wd-icon-accent"></path>
</svg>