<svg width="24" height="24" viewBox="0 0 24 24" xmlns="http://www.w3.org/2000/svg" class="wd-icon wd-icon-chevron-2xleft" role="presentation" data-deprecated="true">
<!-- Deprecated icon: will be removed in the future. Use wd-icon-chevron-2x-left.svg instead. -->
<g>
<path d="M10.0459 4.25359C10.2207 4.04039 10.5354 4.00882 10.749 4.18328L11.1367 4.49968L11.5225 4.81609C11.7361 4.99092 11.7685 5.30647 11.5937 5.52019L9.15918 8.49578L9.15429 8.49968L6.29199 11.9997L11.5937 18.4802C11.7685 18.6939 11.7362 19.0094 11.5225 19.1843L11.1367 19.5007L10.749 19.8171C10.5354 19.9915 10.2207 19.96 10.0459 19.7468L7.61035 16.7702C7.60886 16.7684 7.60789 16.7662 7.60644 16.7643L4.22558 12.6325C3.92486 12.2643 3.92475 11.735 4.22558 11.3669L10.0459 4.25359Z" fill="oklch(0.3523 0 0 / 1)" class="wd-icon-fill"></path>
<path d="M17.0459 4.25359C17.2207 4.04039 17.5354 4.00882 17.749 4.18328L18.1367 4.49968L18.5225 4.81609C18.7361 4.99092 18.7685 5.30647 18.5937 5.52019L16.1592 8.49578L16.1543 8.49968L13.292 11.9997L18.5937 18.4802C18.7685 18.6939 18.7362 19.0094 18.5225 19.1843L18.1367 19.5007L17.749 19.8171C17.5354 19.9915 17.2207 19.96 17.0459 19.7468L14.6103 16.7702C14.6089 16.7684 14.6079 16.7662 14.6064 16.7643L11.2256 12.6325C10.9249 12.2643 10.9248 11.735 11.2256 11.3669L17.0459 4.25359Z" fill="oklch(0.3523 0 0 / 1)" class="wd-icon-fill"></path>
</g>
</svg>