<svg width="24" height="24" viewBox="0 0 24 24" xmlns="http://www.w3.org/2000/svg" class="wd-icon wd-icon-no-bid" role="presentation" data-deprecated="true">
<!-- Deprecated icon: will be removed in the future. Use wd-icon-bid-strikethrough.svg instead. -->
<g>
<path d="M4.5004 9.00016C4.77632 9.00042 5.00039 9.22419 5.0004 9.50016V15.0002H12.5004C12.7763 15.0004 13.0004 15.2242 13.0004 15.5002V21.5002C13.0003 21.776 12.7762 21.9999 12.5004 22.0002H11.5004C11.2243 22.0002 11.0005 21.7762 11.0004 21.5002V17.0002H4.0004C3.44821 17.0002 3.00054 16.5523 3.0004 16.0002V9.50016C3.00042 9.22403 3.22427 9.00016 3.5004 9.00016H4.5004Z" fill="oklch(0.3523 0 0 / 1)" class="wd-icon-fill"></path>
<path d="M2.83439 2.14664C3.02965 1.95147 3.34619 1.95142 3.54142 2.14664L4.39494 3.00016H20.0004C20.5525 3.00041 21.0004 3.44804 21.0004 4.00016V16.0002C21.0002 16.5522 20.5524 16.9999 20.0004 17.0002H18.3959L21.8354 20.4396C22.0302 20.6349 22.0304 20.9515 21.8354 21.1466L21.1274 21.8537C20.9321 22.0488 20.6156 22.0487 20.4203 21.8537L2.12736 3.56071C1.93213 3.36548 1.93219 3.04895 2.12736 2.85368L2.83439 2.14664ZM16.3959 15.0002H19.0004V5.00016H6.39494L16.3959 15.0002Z" fill="oklch(0.3523 0 0 / 1)" class="wd-icon-fill"></path>
</g>
</svg>