<svg width="24" height="24" viewBox="0 0 24 24" xmlns="http://www.w3.org/2000/svg" class="wd-icon wd-icon-contact-card-id" role="presentation" data-deprecated="true">
<!-- Deprecated icon: will be removed in the future. Use wd-icon-id-card.svg instead. -->
<path d="M2 5.5C2 5.22386 2.22386 5 2.5 5H21.5C21.7761 5 22 5.22386 22 5.5V18.5C22 18.7761 21.7761 19 21.5 19H2.5C2.22386 19 2 18.7761 2 18.5V5.5Z" fill="transparent" class="wd-icon-background"></path>
<path d="M21.5 4C22.3284 4 23 4.67157 23 5.5V18.5C23 19.3284 22.3284 20 21.5 20H2.5C1.67157 20 1 19.3284 1 18.5V5.5C1 4.67157 1.67157 4 2.5 4H21.5ZM3 18H21V6H3V18Z" fill="oklch(0.3523 0 0 / 1)" class="wd-icon-fill"></path>
<g>
<path d="M9 13C10.4564 13 11.7919 13.5189 12.8311 14.3818C12.9403 14.4726 12.9999 14.6089 13 14.751V15.5C13 15.7761 12.7761 16 12.5 16H5.5L5.39941 15.9902C5.17145 15.9437 5 15.7417 5 15.5V14.751C5.00009 14.6089 5.05973 14.4726 5.16895 14.3818C6.20815 13.5189 7.54364 13 9 13Z" fill="oklch(0.3523 0 0 / 1)" class="wd-icon-accent"></path>
<path d="M18.5 12C18.7761 12 19 12.2239 19 12.5V13.5C19 13.7761 18.7761 14 18.5 14H14.5C14.2239 14 14 13.7761 14 13.5V12.5C14 12.2239 14.2239 12 14.5 12H18.5Z" fill="oklch(0.3523 0 0 / 1)" class="wd-icon-accent"></path>
<path d="M9 8C10.1046 8 11 8.89543 11 10C11 11.1046 10.1046 12 9 12C7.89543 12 7 11.1046 7 10C7 8.89543 7.89543 8 9 8Z" fill="oklch(0.3523 0 0 / 1)" class="wd-icon-accent"></path>
<path d="M18.5 9C18.7761 9 19 9.22386 19 9.5V10.5C19 10.7761 18.7761 11 18.5 11H14.5C14.2239 11 14 10.7761 14 10.5V9.5C14 9.22386 14.2239 9 14.5 9H18.5Z" fill="oklch(0.3523 0 0 / 1)" class="wd-icon-accent"></path>
</g>
</svg>