<svg width="24" height="24" viewBox="0 0 24 24" xmlns="http://www.w3.org/2000/svg" class="wd-icon wd-icon-view-team" role="presentation" data-deprecated="true">
<!-- Deprecated icon: will be removed in the future. Use wd-icon-team.svg instead. -->
<g>
<path d="M9 2.5C9 2.22386 9.22386 2 9.5 2H14.5C14.7761 2 15 2.22386 15 2.5V7.5C15 7.77614 14.7761 8 14.5 8H9.5C9.22386 8 9 7.77614 9 7.5V2.5Z" fill="transparent" class="wd-icon-background"></path>
<path d="M5 16.5C5 16.2239 5.22386 16 5.5 16H8.5C8.77614 16 9 16.2239 9 16.5V19.5C9 19.7761 8.77614 20 8.5 20H5.5C5.22386 20 5 19.7761 5 19.5V16.5Z" fill="transparent" class="wd-icon-background"></path>
<path d="M15 16.5C15 16.2239 15.2239 16 15.5 16H18.5C18.7761 16 19 16.2239 19 16.5V19.5C19 19.7761 18.7761 20 18.5 20H15.5C15.2239 20 15 19.7761 15 19.5V16.5Z" fill="transparent" class="wd-icon-background"></path>
</g>
<path d="M18.5 15C19.3284 15 20 15.6716 20 16.5V19.5C20 20.3284 19.3284 21 18.5 21H15.5C14.6716 21 14 20.3284 14 19.5V16.5C14 15.6716 14.6716 15 15.5 15H16V14C16 13.4477 15.5523 13 15 13H9C8.44772 13 8 13.4477 8 14V15H8.5C9.32843 15 10 15.6716 10 16.5V19.5C10 20.3284 9.32843 21 8.5 21H5.5C4.67157 21 4 20.3284 4 19.5V16.5C4 15.6716 4.67157 15 5.5 15H6V14C6 12.3431 7.34315 11 9 11H11V9H9.5C8.67157 9 8 8.32843 8 7.5V2.5C8 1.67157 8.67157 1 9.5 1H14.5C15.3284 1 16 1.67157 16 2.5V7.5C16 8.32843 15.3284 9 14.5 9H13V11H15C16.6569 11 18 12.3431 18 14V15H18.5ZM6 19H8V17H6V19ZM16 19H18V17H16V19ZM10 7H14V3H10V7Z" fill="oklch(0.3523 0 0 / 1)" class="wd-icon-fill"></path>
</svg>