<svg width="24" height="24" viewBox="0 0 24 24" xmlns="http://www.w3.org/2000/svg" class="wd-icon wd-icon-convert-inventory" role="presentation" data-deprecated="true">
<!-- Deprecated icon: will be removed in the future. Use wd-icon-package-loop.svg instead. -->
<path d="M16.793 1C17.1908 1.00002 17.5722 1.15817 17.8535 1.43945L21.5605 5.14648C21.8418 5.42777 22 5.80923 22 6.20703V12.5C22 12.7761 21.7761 13 21.5 13H20.5C20.2239 13 20 12.7761 20 12.5V7H4V20H9.5C9.77614 20 10 20.2239 10 20.5V21.5C10 21.7761 9.77614 22 9.5 22H3.5C2.67157 22 2 21.3284 2 20.5V6.20703C2.00002 5.80923 2.15817 5.42777 2.43945 5.14648L6.14648 1.43945L6.25684 1.33984C6.52371 1.12123 6.85903 1.00002 7.20703 1H16.793ZM5.41406 5H11V3H7.41406L5.41406 5ZM13 5H18.5859L16.5859 3H13V5Z" fill="oklch(0.3523 0 0 / 1)" class="wd-icon-fill"></path>
<g>
<path d="M13.0672 15.6222C13.265 15.3258 13.7012 15.3261 13.8992 15.6222L15.6317 18.2209C15.8531 18.5531 15.6149 18.9981 15.2156 18.9982H14.534C14.5907 19.2761 14.6941 19.5441 14.8416 19.7892C15.0759 20.1783 15.412 20.4965 15.8133 20.7092C16.2147 20.9217 16.6674 21.0211 17.1209 20.9963C17.4072 20.9805 17.6878 20.9148 17.95 20.8049C18.2045 20.6981 18.5144 20.7526 18.6697 20.9806L18.951 21.3947L19.2322 21.8078C19.3873 22.0362 19.3288 22.3498 19.0848 22.4787C18.5128 22.7807 17.88 22.9576 17.2303 22.9933C16.4139 23.0381 15.6003 22.8593 14.8777 22.4767C14.1551 22.094 13.5495 21.522 13.1277 20.8215C12.7923 20.2642 12.5832 19.6418 12.5115 18.9992L11.7508 18.9982C11.3516 18.998 11.1133 18.5531 11.3348 18.2209L13.0672 15.6222Z" fill="oklch(0.3523 0 0 / 1)" class="wd-icon-accent"></path>
<path d="M16.7361 14.007C17.5525 13.9622 18.3661 14.1411 19.0887 14.5236C19.8114 14.9062 20.4168 15.4784 20.8387 16.1789C21.1737 16.7354 21.3839 17.3564 21.4559 17.9982H22.2156C22.615 17.9982 22.8531 18.4433 22.6317 18.7756L20.8992 21.3742C20.7013 21.6711 20.2651 21.6711 20.0672 21.3742L18.3358 18.7756C18.1145 18.4433 18.3526 17.9983 18.7518 17.9982H19.4324C19.3756 17.7215 19.2717 17.4552 19.1248 17.2111C18.8905 16.8221 18.5545 16.5037 18.1531 16.2912C17.7517 16.0787 17.299 15.9792 16.8455 16.0041C16.5595 16.0199 16.2794 16.0847 16.0174 16.1945C15.7628 16.3012 15.4529 16.247 15.2977 16.0187L15.0154 15.6056L14.7352 15.1916C14.5803 14.9632 14.6386 14.6496 14.8826 14.5207C15.4544 14.2188 16.0867 14.0428 16.7361 14.007Z" fill="oklch(0.3523 0 0 / 1)" class="wd-icon-accent"></path>
</g>
</svg>