<svg width="24" height="24" viewBox="0 0 24 24" xmlns="http://www.w3.org/2000/svg" class="wd-icon wd-icon-chart-config" role="presentation" data-deprecated="true">
<!-- Deprecated icon: will be removed in the future. Use wd-icon-configure.svg instead. -->
<g>
<path d="M2 6.5C2 6.22386 2.22386 6 2.5 6H7.5C7.77614 6 8 6.22386 8 6.5V9.5C8 9.77614 7.77614 10 7.5 10H2.5C2.22386 10 2 9.77614 2 9.5V6.5Z" fill="transparent" class="wd-icon-background"></path>
<path d="M9 14.5C9 14.2239 9.22386 14 9.5 14H14.5C14.7761 14 15 14.2239 15 14.5V17.5C15 17.7761 14.7761 18 14.5 18H9.5C9.22386 18 9 17.7761 9 17.5V14.5Z" fill="transparent" class="wd-icon-background"></path>
<path d="M16 7.5C16 7.22386 16.2239 7 16.5 7H21.5C21.7761 7 22 7.22386 22 7.5V10.5C22 10.7761 21.7761 11 21.5 11H16.5C16.2239 11 16 10.7761 16 10.5V7.5Z" fill="transparent" class="wd-icon-background"></path>
</g>
<g>
<path d="M5.5 3C5.77614 3 6 3.22386 6 3.5V5H7.5C8.32843 5 9 5.67157 9 6.5V9.5C9 10.3284 8.32843 11 7.5 11H6V20.5C6 20.7761 5.77614 21 5.5 21H4.5C4.22386 21 4 20.7761 4 20.5V11H2.5C1.67157 11 1 10.3284 1 9.5V6.5C1 5.67157 1.67157 5 2.5 5H4V3.5C4 3.22386 4.22386 3 4.5 3H5.5ZM3 9H7V7H3V9Z" fill="oklch(0.3523 0 0 / 1)" class="wd-icon-fill"></path>
<path d="M12.5 3C12.7761 3 13 3.22386 13 3.5V13H14.5C15.3284 13 16 13.6716 16 14.5V17.5C16 18.3284 15.3284 19 14.5 19H13V20.5C13 20.7761 12.7761 21 12.5 21H11.5C11.2239 21 11 20.7761 11 20.5V19H9.5C8.67157 19 8 18.3284 8 17.5V14.5C8 13.6716 8.67157 13 9.5 13H11V3.5C11 3.22386 11.2239 3 11.5 3H12.5ZM10 17H14V15H10V17Z" fill="oklch(0.3523 0 0 / 1)" class="wd-icon-fill"></path>
<path d="M19.5 3C19.7761 3 20 3.22386 20 3.5V6H21.5C22.3284 6 23 6.67157 23 7.5V10.5C23 11.3284 22.3284 12 21.5 12H20V20.5C20 20.7761 19.7761 21 19.5 21H18.5C18.2239 21 18 20.7761 18 20.5V12H16.5C15.6716 12 15 11.3284 15 10.5V7.5C15 6.67157 15.6716 6 16.5 6H18V3.5C18 3.22386 18.2239 3 18.5 3H19.5ZM17 10H21V8H17V10Z" fill="oklch(0.3523 0 0 / 1)" class="wd-icon-fill"></path>
</g>
</svg>