<svg width="24" height="24" viewBox="0 0 24 24" xmlns="http://www.w3.org/2000/svg" class="wd-icon wd-icon-heatmap" role="presentation" data-deprecated="true">
<!-- Deprecated icon: will be removed in the future. Use wd-icon-grid-square.svg instead. -->
<path d="M19.5 3C20.3284 3 21 3.67157 21 4.5V19.5C21 20.3284 20.3284 21 19.5 21H4.5C3.67157 21 3 20.3284 3 19.5V4.5C3 3.67157 3.67157 3 4.5 3H19.5ZM5 19H8V16H5V19ZM10 19H14V16H10V19ZM16 19H19V16H16V19ZM5 10V14H8V10H5ZM10 10V14H14V10H10ZM16 10V14H19V10H16ZM5 8H8V5H5V8ZM10 8H14V5H10V8ZM16 8H19V5H16V8Z" fill="oklch(0.3523 0 0 / 1)" class="wd-icon-fill"></path>
</svg>