<svg width="24" height="24" viewBox="0 0 24 24" xmlns="http://www.w3.org/2000/svg" class="wd-icon wd-icon-calculator-refresh" role="presentation" data-deprecated="true">
<!-- Deprecated icon: will be removed in the future. Use wd-icon-calculator-loop.svg instead. -->
<g>
<path d="M17.5 1C18.3284 1 19 1.67157 19 2.5V11.5C19 11.7761 18.7761 12 18.5 12H17.5C17.2239 12 17 11.7761 17 11.5V3H5V19H9.5C9.77614 19 10 19.2239 10 19.5V20.5C10 20.7761 9.77614 21 9.5 21H4.5C3.67157 21 3 20.3284 3 19.5V2.5C3 1.67157 3.67157 1 4.5 1H17.5Z" fill="oklch(0.3523 0 0 / 1)" class="wd-icon-fill"></path>
<path d="M8.5 15C8.77614 15 9 15.2239 9 15.5V16.5C9 16.7761 8.77614 17 8.5 17H6.5C6.22386 17 6 16.7761 6 16.5V15.5C6 15.2239 6.22386 15 6.5 15H8.5Z" fill="oklch(0.3523 0 0 / 1)" class="wd-icon-fill"></path>
<path d="M8.5 12C8.77614 12 9 12.2239 9 12.5V13.5C9 13.7761 8.77614 14 8.5 14H6.5C6.22386 14 6 13.7761 6 13.5V12.5C6 12.2239 6.22386 12 6.5 12H8.5Z" fill="oklch(0.3523 0 0 / 1)" class="wd-icon-fill"></path>
<path d="M12.5 12C12.7761 12 13 12.2239 13 12.5V13.5C13 13.7761 12.7761 14 12.5 14H10.5C10.2239 14 10 13.7761 10 13.5V12.5C10 12.2239 10.2239 12 10.5 12H12.5Z" fill="oklch(0.3523 0 0 / 1)" class="wd-icon-fill"></path>
<path d="M15 4C15.5523 4 16 4.44772 16 5V9C16 9.55228 15.5523 10 15 10H7C6.44772 10 6 9.55228 6 9V5C6 4.44772 6.44772 4 7 4H15ZM8 8H14V6H8V8Z" fill="oklch(0.3523 0 0 / 1)" class="wd-icon-fill"></path>
</g>
<g>
<path d="M13.0667 15.6222C13.2645 15.3257 13.7007 15.326 13.8987 15.6222L15.6312 18.2209C15.8526 18.5531 15.6144 18.9981 15.2151 18.9982H14.5335C14.5902 19.2762 14.6936 19.5441 14.8411 19.7892C15.0754 20.1783 15.4115 20.4965 15.8128 20.7092C16.2142 20.9217 16.6669 21.0211 17.1204 20.9963C17.4067 20.9805 17.6873 20.9148 17.9495 20.8049C18.2041 20.6981 18.514 20.7525 18.6692 20.9806L18.9505 21.3947L19.2317 21.8078C19.3868 22.0362 19.3284 22.3498 19.0843 22.4787C18.5123 22.7807 17.8795 22.9576 17.2298 22.9933C16.4134 23.0381 15.5999 22.8593 14.8773 22.4767C14.1546 22.094 13.549 21.522 13.1273 20.8215C12.7918 20.2642 12.5827 19.6419 12.511 18.9992L11.7503 18.9982C11.3511 18.998 11.1128 18.5531 11.3343 18.2209L13.0667 15.6222Z" fill="oklch(0.3523 0 0 / 1)" class="wd-icon-accent"></path>
<path d="M16.7357 14.007C17.5521 13.9622 18.3656 14.1411 19.0882 14.5236C19.8109 14.9063 20.4163 15.4783 20.8382 16.1789C21.1733 16.7355 21.3834 17.3564 21.4554 17.9982H22.2151C22.6145 17.9982 22.8527 18.4433 22.6312 18.7756L20.8987 21.3742C20.7008 21.6711 20.2646 21.6711 20.0667 21.3742L18.3353 18.7756C18.1139 18.4433 18.3521 17.9983 18.7513 17.9982H19.4319C19.3751 17.7215 19.2712 17.4552 19.1243 17.2111C18.89 16.822 18.554 16.5038 18.1526 16.2912C17.7512 16.0787 17.2985 15.9792 16.845 16.0041C16.559 16.0199 16.2789 16.0847 16.0169 16.1945C15.7624 16.3012 15.4524 16.247 15.2972 16.0187L15.015 15.6056L14.7347 15.1916C14.5797 14.9632 14.6381 14.6496 14.8821 14.5207C15.454 14.2188 16.0862 14.0428 16.7357 14.007Z" fill="oklch(0.3523 0 0 / 1)" class="wd-icon-accent"></path>
</g>
</svg>