<svg width="24" height="24" viewBox="0 0 24 24" xmlns="http://www.w3.org/2000/svg" class="wd-icon wd-icon-job-info" role="presentation" data-deprecated="true">
<!-- Deprecated icon: will be removed in the future. Use wd-icon-briefcase-info.svg instead. -->
<path d="M12 2C13.6982 2 15.2577 2.6058 16.4697 3.6123C16.823 3.90567 16.9999 4.33176 17 4.75098V6H20C21.1046 6 22 6.89543 22 8V10.5C22 10.7761 21.7761 11 21.5 11H20.5C20.2239 11 20 10.7761 20 10.5V8H4V11.1113C4.01532 11.1215 4.03145 11.1307 4.0459 11.1426C5.86325 12.6435 8.11071 13.6404 10.5752 13.9199C10.8496 13.951 11.0573 14.1894 11.0371 14.4648L10.9639 15.4619C10.9435 15.7372 10.7031 15.9446 10.4287 15.915C8.06977 15.6606 5.88099 14.8394 4 13.5928V20H10.5C10.7761 20 11 20.2239 11 20.5V21.5C11 21.7761 10.7761 22 10.5 22H4C2.89543 22 2 21.1046 2 20V8C2 6.89543 2.89543 6 4 6H7V4.75098C7.00009 4.33176 7.177 3.90567 7.53027 3.6123L7.76172 3.42871C8.93797 2.53276 10.4079 2 12 2ZM12 4C10.8733 4 9.83585 4.37186 9 5V6H15V5C14.1641 4.37186 13.1267 4 12 4Z" fill="oklch(0.3523 0 0 / 1)" class="wd-icon-fill"></path>
<path d="M18 12C21.0376 12 23.5 14.4624 23.5 17.5C23.5 20.5376 21.0376 23 18 23C14.9624 23 12.5 20.5376 12.5 17.5C12.5 14.4624 14.9624 12 18 12ZM17.5 17C17.2239 17 17 17.2239 17 17.5V20.5C17 20.7761 17.2239 21 17.5 21H18.5C18.7761 21 19 20.7761 19 20.5V17.5C19 17.2239 18.7761 17 18.5 17H17.5ZM18 13.75C17.3096 13.75 16.75 14.3096 16.75 15C16.75 15.6904 17.3096 16.25 18 16.25C18.6904 16.25 19.25 15.6904 19.25 15C19.25 14.3096 18.6904 13.75 18 13.75Z" fill="oklch(0.3523 0 0 / 1)" class="wd-icon-accent"></path>
</svg>