<svg width="24" height="24" viewBox="0 0 24 24" xmlns="http://www.w3.org/2000/svg" class="wd-icon wd-icon-activity-stream" role="presentation" data-deprecated="true">
<!-- Deprecated icon: will be removed in the future. Use wd-icon-comment.svg instead. -->
<path d="M18 3.99756C19.6567 3.99756 20.9997 5.33995 21 6.99658V13.9966C21 15.6534 19.6569 16.9966 18 16.9966H9.84766C9.62206 17.896 9.15845 18.7482 8.45508 19.4517C7.49464 20.4121 6.25725 20.9269 5 20.9966V16.8218C3.83559 16.4095 3 15.3022 3 13.9966V6.99658C3.00026 5.33997 4.34334 3.99759 6 3.99756H18Z" fill="transparent" class="wd-icon-background"></path>
<g>
<path d="M13 12.5C13 12.7761 12.7761 13 12.5 13H7.5C7.22386 13 7 12.7761 7 12.5V11.5C7 11.2239 7.22386 11 7.5 11H12.5C12.7761 11 13 11.2239 13 11.5V12.5Z" fill="oklch(0.3523 0 0 / 1)" class="wd-icon-accent"></path>
<path d="M17 9.5C17 9.77614 16.7761 10 16.5 10H7.5C7.22386 10 7 9.77614 7 9.5V8.5C7 8.22386 7.22386 8 7.5 8H16.5C16.7761 8 17 8.22386 17 8.5V9.5Z" fill="oklch(0.3523 0 0 / 1)" class="wd-icon-accent"></path>
</g>
<path d="M18 2.99707C20.2087 2.99714 21.9996 4.78806 22 6.99707V13.9971C21.9997 16.2059 20.2089 17.997 18 17.9971H10.5752C10.2679 18.7847 9.7973 19.5239 9.16211 20.1592C8.02104 21.3002 6.54866 21.9123 5.05566 21.9951C4.78141 22.0103 4.5121 21.9123 4.3125 21.7236C4.11301 21.5349 4.00013 21.2717 4 20.9971V17.4541C2.8078 16.764 2.00018 15.4789 2 13.9971V6.99707C2.00035 4.78801 3.79135 2.99711 6 2.99707H18ZM6 4.99805C4.89538 4.99808 4.00026 5.89299 4 6.99707V13.9971C4.00021 14.8635 4.55438 15.6039 5.33398 15.8799C5.73301 16.0214 6 16.3988 6 16.8223V19.8057C6.63926 19.6047 7.24105 19.2521 7.74805 18.7451C8.31933 18.1738 8.69493 17.4832 8.87793 16.7539L8.93262 16.5938C9.09012 16.236 9.44634 15.9971 9.84766 15.9971H18C19.1044 15.997 19.9997 15.1014 20 13.9971V6.99707C19.9997 5.89298 19.1046 4.99811 18 4.99805H6Z" fill="oklch(0.3523 0 0 / 1)" class="wd-icon-fill"></path>
</svg>