<svg width="24" height="24" viewBox="0 0 24 24" xmlns="http://www.w3.org/2000/svg" class="wd-icon wd-icon-doc" role="presentation" data-deprecated="true">
<!-- Deprecated icon: will be removed in the future. Use wd-icon-document.svg instead. -->
<path d="M5 2.5V21.5C5 21.7761 5.22386 22 5.5 22H18.5C18.7761 22 19 21.7761 19 21.5V6.20711C19 6.0745 18.9473 5.94732 18.8536 5.85355L15.1464 2.14645C15.0527 2.05268 14.9255 2 14.7929 2H5.5C5.22386 2 5 2.22386 5 2.5Z" fill="transparent" class="wd-icon-background"></path>
<path d="M14.793 1C15.1908 1.00002 15.5722 1.15817 15.8535 1.43945L19.5605 5.14648C19.8418 5.42777 20 5.80923 20 6.20703V21.5C20 22.3284 19.3284 23 18.5 23H5.5C4.67157 23 4 22.3284 4 21.5V2.5C4 1.67157 4.67157 1 5.5 1H14.793ZM6 21H18V7H14.5C14.2239 7 14 6.77614 14 6.5V3H6V21Z" fill="oklch(0.3523 0 0 / 1)" class="wd-icon-fill"></path>
<g>
<path d="M16 9.5C16 9.77614 15.7761 10 15.5 10H8.5C8.22386 10 8 9.77614 8 9.5V8.5C8 8.22386 8.22386 8 8.5 8H15.5C15.7761 8 16 8.22386 16 8.5V9.5Z" fill="oklch(0.3523 0 0 / 1)" class="wd-icon-accent"></path>
<path d="M13 6.5C13 6.77614 12.7761 7 12.5 7H8.5C8.22386 7 8 6.77614 8 6.5V5.5C8 5.22386 8.22386 5 8.5 5H12.5C12.7761 5 13 5.22386 13 5.5V6.5Z" fill="oklch(0.3523 0 0 / 1)" class="wd-icon-accent"></path>
</g>
</svg>