<svg width="24" height="24" viewBox="0 0 24 24" xmlns="http://www.w3.org/2000/svg" class="wd-icon wd-icon-filter-checked" role="presentation" data-deprecated="true">
<!-- Deprecated icon: will be removed in the future. Use wd-icon-filter-check.svg instead. -->
<g>
<path d="M13.5 17C13.7761 17 14 17.2239 14 17.5V18.5C14 18.7761 13.7761 19 13.5 19H9.5C9.22386 19 9 18.7761 9 18.5V17.5C9 17.2239 9.22386 17 9.5 17H13.5Z" fill="oklch(0.3523 0 0 / 1)" class="wd-icon-fill"></path>
<path d="M16.5 13C16.7761 13 17 13.2239 17 13.5V14.5C17 14.7761 16.7761 15 16.5 15H7.5C7.22386 15 7 14.7761 7 14.5V13.5C7 13.2239 7.22386 13 7.5 13H16.5Z" fill="oklch(0.3523 0 0 / 1)" class="wd-icon-fill"></path>
<path d="M19.5 9C19.7761 9 20 9.22386 20 9.5V10.5C20 10.7761 19.7761 11 19.5 11H4.5C4.22386 11 4 10.7761 4 10.5V9.5C4 9.22386 4.22386 9 4.5 9H19.5Z" fill="oklch(0.3523 0 0 / 1)" class="wd-icon-fill"></path>
<path d="M22.5 5C22.7761 5 23 5.22386 23 5.5V6.5C23 6.77614 22.7761 7 22.5 7H1.5C1.22386 7 1 6.77614 1 6.5V5.5C1 5.22386 1.22386 5 1.5 5H22.5Z" fill="oklch(0.3523 0 0 / 1)" class="wd-icon-fill"></path>
</g>
<path d="M21.9394 16.6466C22.1346 16.4515 22.4512 16.4514 22.6464 16.6466L23.3534 17.3537C23.5486 17.5489 23.5486 17.8655 23.3534 18.0607L18.707 22.7072C18.3165 23.0976 17.6834 23.0975 17.2929 22.7072L15.1464 20.5607C14.9512 20.3655 14.9512 20.0489 15.1464 19.8537L15.8534 19.1466C16.0487 18.9515 16.3652 18.9514 16.5605 19.1466L17.9999 20.5861L21.9394 16.6466Z" fill="oklch(0.3523 0 0 / 1)" class="wd-icon-accent"></path>
</svg>