<svg width="24" height="24" viewBox="0 0 24 24" xmlns="http://www.w3.org/2000/svg" class="wd-icon wd-icon-hide-col" role="presentation" data-deprecated="true">
<!-- Deprecated icon: will be removed in the future. Use wd-icon-column-hide.svg instead. -->
<path d="M3 4.5C3 4.22386 3.22386 4 3.5 4H20.5C20.7761 4 21 4.22386 21 4.5V7.5C21 7.77614 20.7761 8 20.5 8H3.5C3.22386 8 3 7.77614 3 7.5V4.5Z" fill="transparent" class="wd-icon-background"></path>
<path d="M20.5 3C21.3284 3 22 3.67157 22 4.5V19.5C22 20.3284 21.3284 21 20.5 21H3.5C2.67157 21 2 20.3284 2 19.5V4.5C2 3.67157 2.67157 3 3.5 3H20.5ZM11 19H20V9H11V19ZM4 19H9V9H4V19ZM4 7H20V5H4V7Z" fill="oklch(0.3523 0 0 / 1)" class="wd-icon-fill"></path>
<path d="M16.6979 11.3937C16.8931 11.1985 17.2097 11.1986 17.405 11.3937L18.112 12.1007C18.3072 12.296 18.3072 12.6125 18.112 12.8077L16.9225 13.9972L18.112 15.1866C18.3071 15.3819 18.3072 15.6984 18.112 15.8937L17.405 16.6007C17.2097 16.7955 16.8931 16.7957 16.6979 16.6007L15.5085 15.4112L14.319 16.6007C14.1237 16.7955 13.8071 16.7958 13.612 16.6007L12.905 15.8937C12.71 15.6985 12.7102 15.3819 12.905 15.1866L14.0944 13.9972L12.905 12.8077C12.71 12.6126 12.7101 12.2959 12.905 12.1007L13.612 11.3937C13.8072 11.1985 14.1237 11.1986 14.319 11.3937L15.5085 12.5831L16.6979 11.3937Z" fill="oklch(0.3523 0 0 / 1)" class="wd-icon-accent"></path>
</svg>