<svg width="24" height="24" viewBox="0 0 24 24" xmlns="http://www.w3.org/2000/svg" class="wd-icon wd-icon-menu-group" role="presentation" data-deprecated="true">
<!-- Deprecated icon: will be removed in the future. Use wd-icon-stack.svg instead. -->
<g>
<path d="M4.5 8C4.77614 8 5 8.22386 5 8.5V9.5C5 9.77614 4.77614 10 4.5 10H4V18H16V17.5C16 17.2239 16.2239 17 16.5 17H17.5C17.7761 17 18 17.2239 18 17.5V18.5C18 19.3284 17.3284 20 16.5 20H3.5C2.67157 20 2 19.3284 2 18.5V9.5C2.0001 8.67202 2.67107 8.00053 3.49902 8H4.5Z" fill="oklch(0.3523 0 0 / 1)" class="wd-icon-fill"></path>
<path d="M20.5 4C21.3284 4 22 4.67157 22 5.5V14.5C22 15.3284 21.3284 16 20.5 16H7.5C6.67157 16 6 15.3284 6 14.5V5.5C6 4.67157 6.67157 4 7.5 4H20.5ZM8 14H20V6H8V14Z" fill="oklch(0.3523 0 0 / 1)" class="wd-icon-fill"></path>
</g>
</svg>