<svg width="24" height="24" viewBox="0 0 24 24" xmlns="http://www.w3.org/2000/svg" class="wd-icon wd-icon-c-dual-line" role="presentation" data-deprecated="true">
<!-- Deprecated icon: will be removed in the future. Use wd-icon-dual-line-chart.svg instead. -->
<path d="M9 12C10.1046 12 11 12.8954 11 14C11 14.2838 10.9396 14.5533 10.833 14.7979L15 16.8818L19.0059 14.8779C19.069 13.8303 19.9365 13 21 13C22.1046 13 23 13.8954 23 15C23 16.1046 22.1046 17 21 17C20.5927 17 20.2145 16.8771 19.8984 16.668L16.833 18.2012C16.9398 18.446 17 18.7159 17 19C17 20.1046 16.1046 21 15 21C13.8954 21 13 20.1046 13 19C13 18.716 13.0593 18.4459 13.166 18.2012L9 16.1182L4.99316 18.1211C4.93047 19.1692 4.06385 20 3 20C1.89543 20 1 19.1046 1 18C1 16.8954 1.89543 16 3 16C3.40686 16 3.78477 16.1224 4.10059 16.3311L7.16602 14.7979C7.05951 14.5534 7 14.2837 7 14C7 12.8954 7.89543 12 9 12Z" fill="oklch(0.3523 0 0 / 1)" class="wd-icon-fill"></path>
<path d="M21 2C22.1046 2 23 2.89543 23 4C23 5.10457 22.1046 6 21 6C20.7577 6 20.5265 5.95395 20.3115 5.875L16.6729 8.90723C16.8786 9.22158 17 9.59625 17 10C17 11.1046 16.1046 12 15 12C13.8954 12 13 11.1046 13 10C13 9.716 13.0593 9.44586 13.166 9.20117L9.1377 7.18652L4.96875 10.6611C4.9876 10.7714 5 10.8843 5 11C5 12.1046 4.10457 13 3 13C1.89543 13 1 12.1046 1 11C1 9.89543 1.89543 9 3 9C3.24189 9 3.47287 9.04535 3.6875 9.12402L7.3252 6.0918C7.12006 5.77777 7 5.40308 7 5C7 3.89543 7.89543 3 9 3C10.1046 3 11 3.89543 11 5C11 5.28382 10.9396 5.55329 10.833 5.79785L14.8613 7.8125L19.0303 4.33789C19.0116 4.22796 19 4.11527 19 4C19 2.89543 19.8954 2 21 2Z" fill="oklch(0.3523 0 0 / 1)" class="wd-icon-accent"></path>
</svg>