<svg width="24" height="24" viewBox="0 0 24 24" xmlns="http://www.w3.org/2000/svg" class="wd-icon wd-icon-proof-of-delivery" role="presentation" data-deprecated="true">
<!-- Deprecated icon: will be removed in the future. Use wd-icon-package-check.svg instead. -->
<path d="M21 20.5V6.5C21 6.22386 20.7761 6 20.5 6H3.5C3.22386 6 3 6.22386 3 6.5V20.5C3 20.7761 3.22386 21 3.5 21H20.5C20.7761 21 21 20.7761 21 20.5Z" fill="transparent" class="wd-icon-background"></path>
<path d="M16.793 1C17.1907 1.00007 17.5723 1.15821 17.8535 1.43945L21.5605 5.14648C21.8418 5.42774 22 5.80929 22 6.20703V20.5C22 21.3284 21.3283 21.9999 20.5 22H3.5C2.67157 22 2 21.3284 2 20.5V6.20703C2.00005 5.80927 2.15819 5.42775 2.43945 5.14648L6.14648 1.43945L6.25684 1.33984C6.52368 1.12132 6.8591 1.00002 7.20703 1H16.793ZM4 20H20V7H4V20ZM13 5H18.5859L16.5859 3H13V5ZM5.41406 5H11V3H7.41406L5.41406 5Z" fill="oklch(0.3523 0 0 / 1)" class="wd-icon-fill"></path>
<path d="M14.9394 10.6466C15.1346 10.4515 15.4512 10.4514 15.6464 10.6466L16.3534 11.3537C16.5486 11.5489 16.5486 11.8655 16.3534 12.0607L11.707 16.7072C11.3165 17.0976 10.6834 17.0975 10.2929 16.7072L8.14641 14.5607C7.9512 14.3655 7.9512 14.0489 8.14641 13.8537L8.85344 13.1466C9.04869 12.9515 9.36523 12.9514 9.56047 13.1466L10.9999 14.5861L14.9394 10.6466Z" fill="oklch(0.3523 0 0 / 1)" class="wd-icon-accent"></path>
</svg>