<svg width="24" height="24" viewBox="0 0 24 24" xmlns="http://www.w3.org/2000/svg" class="wd-icon wd-icon-inbox-large" role="presentation" data-deprecated="true">
<!-- Deprecated icon: will be removed in the future. Use wd-icon-inbox.svg instead. -->
<path d="M6.70801 12C7.36102 14.3084 9.48254 16 12 16C14.5175 16 16.639 14.3084 17.292 12H23V20H1V12H6.70801Z" fill="transparent" class="wd-icon-background"></path>
<path d="M6.70801 12C7.36102 14.3084 9.48254 16 12 16C14.5175 16 16.639 14.3084 17.292 12H23V20H1V12H6.70801Z" fill="oklch(0.3523 0 0 / 1)" class="wd-icon-accent"></path>
<path d="M18.6406 2.00977C18.9628 2.05546 19.2464 2.25644 19.3945 2.55273L23.8945 11.5527C23.896 11.5556 23.897 11.5587 23.8984 11.5615C23.9118 11.5888 23.9237 11.6169 23.9346 11.6455C23.938 11.6546 23.9412 11.6637 23.9443 11.6729C23.9522 11.6956 23.9586 11.7188 23.9648 11.7422C23.9687 11.7568 23.9724 11.7714 23.9756 11.7861C23.9906 11.8551 24 11.9265 24 12V20C24 20.5523 23.5523 21 23 21H1C0.447775 20.9999 0 20.5522 0 20V12C0 11.8802 0.0219277 11.7656 0.0605469 11.6592C0.0652368 11.6462 0.0689877 11.6329 0.0742188 11.6201C0.0808148 11.6041 0.0892846 11.5889 0.0966797 11.5732C0.0998509 11.5665 0.102143 11.5594 0.105469 11.5527L4.60547 2.55273L4.67676 2.43164C4.86166 2.16371 5.16859 2.00004 5.5 2H18.5L18.6406 2.00977ZM2 19H22V13H18C17.0207 15.348 14.705 17 12 17C9.295 16.9999 6.97929 15.3479 6 13H2V19ZM2.61816 11H6.70801L6.87305 11.0137C7.24947 11.0765 7.56327 11.3511 7.66992 11.7275C8.20442 13.617 9.94203 14.9999 12 15C14.058 15 15.7956 13.617 16.3301 11.7275L16.3877 11.5732C16.5506 11.2278 16.9004 11.0001 17.292 11H21.3818L17.8818 4H6.11816L2.61816 11Z" fill="oklch(0.3523 0 0 / 1)" class="wd-icon-fill"></path>
</svg>