<svg width="24" height="24" viewBox="0 0 24 24" xmlns="http://www.w3.org/2000/svg" class="wd-icon wd-icon-task-pay" role="presentation" data-deprecated="true">
<!-- Deprecated icon: will be removed in the future. Use wd-icon-wallet.svg instead. -->
<path d="M17 7V2L4.97618 4.57653C3.83036 4.82207 3.00982 5.83009 3.00009 7L3 17C3 18.6569 4.34315 20 6 20H21V7H17Z" fill="transparent" class="wd-icon-background"></path>
<path d="M16.79 1.02293C17.0853 0.959654 17.3941 1.03327 17.6289 1.22313C17.8635 1.41298 18 1.69869 18 2.00047V6.00047H21C21.5523 6.00047 22 6.44818 22 7.00047V20.0005C21.9998 20.5526 21.5522 21.0005 21 21.0005H6C3.79099 21.0005 2.00021 19.2094 2 17.0005V7.00047C2 6.96331 2.00191 6.92622 2.00586 6.89012C2.06524 5.296 3.19595 3.93572 4.7666 3.5991L16.79 1.02293ZM4 17.0005C4.00021 18.1049 4.89556 19.0005 6 19.0005H20V17.0005H15.877C15.5738 17.0004 15.2864 16.862 15.0967 16.6255C14.4109 15.7698 14.0001 14.6816 14 13.5005C14 12.3193 14.411 11.2312 15.0967 10.3755C15.2864 10.1388 15.5737 10.0006 15.877 10.0005H20V8.00047H4V17.0005ZM16.4023 12.0005C16.147 12.4415 16 12.953 16 13.5005C16.0001 14.0479 16.1469 14.5594 16.4023 15.0005H20V12.0005H16.4023ZM5.18555 5.55516C4.87578 5.6216 4.6062 5.78119 4.40234 6.00047H16V3.2368L5.18555 5.55516Z" fill="oklch(0.3523 0 0 / 1)" class="wd-icon-fill"></path>
</svg>