<svg width="24" height="24" viewBox="0 0 24 24" xmlns="http://www.w3.org/2000/svg" class="wd-icon wd-icon-fx-brackets" role="presentation" data-deprecated="true">
<!-- Deprecated icon: will be removed in the future. Use wd-icon-formula-brackets.svg instead. -->
<g>
<path d="M16.7496 10C16.8877 10 16.9996 10.1119 16.9996 10.25V11.1699C16.9996 11.3079 16.8877 11.4199 16.7496 11.4199L16.0162 11.4209C15.4321 11.4209 14.9997 11.8396 14.9996 12.5V14.5332C14.9996 15.3585 14.53 15.9803 13.8952 15.9805V16.0312C14.5299 16.0314 14.9995 16.6534 14.9996 17.4785V19.4727C14.9996 20.1331 15.432 20.5527 16.0162 20.5527H16.7496C16.8877 20.5527 16.9996 20.6647 16.9996 20.8027V21.75C16.9996 21.8881 16.8877 22 16.7496 22H15.361C14.1926 22 13.3287 21.1996 13.3287 20.0312V17.7715C13.3287 17.0984 12.8963 16.7549 12.3121 16.7549H12.2496C12.1116 16.7548 11.9996 16.6429 11.9996 16.5049V15.5068C11.9996 15.3688 12.1116 15.2569 12.2496 15.2568H12.3121C12.8963 15.2568 13.3287 14.9133 13.3287 14.2402V11.9688C13.3287 10.8003 14.1926 10 15.361 10H16.7496Z" fill="oklch(0.3523 0 0 / 1)" class="wd-icon-fill"></path>
<path d="M19.6393 10C20.8075 10.0001 21.6705 10.8004 21.6705 11.9688V14.2402C21.6705 14.9133 22.1029 15.2568 22.6871 15.2568H22.7496C22.8877 15.2568 22.9996 15.3688 22.9996 15.5068V16.5049C22.9996 16.643 22.8877 16.7549 22.7496 16.7549H22.6871C22.1029 16.7549 21.6705 17.0984 21.6705 17.7715V20.0322C21.6704 21.2003 20.8074 21.9999 19.6393 22H18.2496C18.1116 21.9999 17.9996 21.888 17.9996 21.75V20.8027C17.9996 20.6647 18.1116 20.5528 18.2496 20.5527H18.984C19.5681 20.5526 19.9996 20.133 19.9996 19.4727V17.4795C19.9996 16.654 20.4701 16.0312 21.1051 16.0312V15.9814C20.4701 15.9814 19.9996 15.3587 19.9996 14.5332V12.5C19.9995 11.8398 19.568 11.421 18.984 11.4209L18.2496 11.4199C18.1116 11.4198 17.9996 11.3079 17.9996 11.1699V10.25C17.9996 10.112 18.1116 10.0001 18.2496 10H19.6393Z" fill="oklch(0.3523 0 0 / 1)" class="wd-icon-fill"></path>
<path d="M6.88734 3C7.04524 3.00029 7.163 3.14506 7.13148 3.2998L6.92933 4.28613C6.9055 4.4022 6.80364 4.48606 6.68519 4.48633H5.86C5.2123 4.48633 4.77998 4.79074 4.61488 5.59082L4.52504 6.01465H5.73793C5.89665 6.01492 6.01494 6.16114 5.98207 6.31641L5.77113 7.30273C5.74649 7.41801 5.64486 7.5009 5.52699 7.50098H4.20765L3.07875 12.8018C3.05418 12.9171 2.95248 12.9999 2.83461 13H1.41469C1.25596 12.9998 1.1377 12.8536 1.17054 12.6982L2.27406 7.50098H1.4557C1.29598 7.50072 1.17787 7.35228 1.21254 7.19629L1.43129 6.20996C1.45688 6.09583 1.55842 6.01465 1.67543 6.01465H2.58949L2.77406 5.14648C3.07886 3.7368 3.84087 3 5.41566 3H6.88734Z" fill="oklch(0.3523 0 0 / 1)" class="wd-icon-fill"></path>
<path d="M8.37074 6C8.46828 6.00005 8.55747 6.05691 8.59828 6.14551L9.50258 8.11035H9.52797L11.1286 6.09473C11.176 6.03503 11.2486 6 11.3248 6H13.1286C13.3454 6.00009 13.4597 6.25744 13.3141 6.41797L10.4303 9.58398L12.0729 12.6318C12.1622 12.7982 12.0419 12.9996 11.8532 13H10.319C10.2237 13 10.1364 12.9459 10.0944 12.8604L9.08363 10.8027H9.05824L7.38051 12.9062C7.33309 12.9655 7.26107 13 7.18519 13H5.36C5.14249 13 5.02856 12.7414 5.17543 12.5811L8.19496 9.29199L6.61976 6.36914C6.53003 6.20258 6.65127 6 6.84047 6H8.37074Z" fill="oklch(0.3523 0 0 / 1)" class="wd-icon-fill"></path>
</g>
</svg>