<svg role="presentation" width="56" height="56" viewBox="0 0 56 56" xmlns="http://www.w3.org/2000/svg" class="wd-expressive wd-expressive-stadium">
<g>
<path d="M15 24.6602C13.9719 25.1012 12.9711 25.5935 12 26.1328V47H6V29.2969C6 28.728 6.2399 28.1833 6.67383 27.8154C7.42096 27.1821 8.19782 26.5832 9 26.0176V24.1514C9 23.5825 9.24025 23.0369 9.67578 22.6709C11.3049 21.3019 13.0903 20.1135 15 19.1328V24.6602Z" fill="oklch(0.3057 0.079 256.22 / 0.13)" class="wd-expressive-accent"></path>
<path d="M25 36C26.9209 36 28.6731 36.7226 30 37.9102V47H23V36.2705C23.6368 36.0947 24.3073 36 25 36Z" fill="oklch(0.3057 0.079 256.22 / 0.13)" class="wd-expressive-accent"></path>
<path d="M28 25C32.2259 25 36.0809 26.5885 39 29.2012V33.2012C36.0809 30.5885 32.2259 29 28 29C23.7741 29 19.9191 30.5885 17 33.2012V29.2012C19.9191 26.5885 23.7741 25 28 25Z" fill="oklch(0.3057 0.079 256.22 / 0.13)" class="wd-expressive-accent"></path>
<path d="M21 11.5L12 15V8L21 11.5Z" fill="oklch(0.3057 0.079 256.22 / 0.13)" class="wd-expressive-accent"></path>
<path d="M48 11.5L39 15V8L48 11.5Z" fill="oklch(0.3057 0.079 256.22 / 0.13)" class="wd-expressive-accent"></path>
<path d="M35 8.5L26 12V5L35 8.5Z" fill="oklch(0.3057 0.079 256.22 / 0.13)" class="wd-expressive-accent"></path>
</g>
<path d="M26.5 3C26.7761 3 27 3.22386 27 3.5V4.31543L35.3623 7.56836C35.7467 7.71784 36 8.08759 36 8.5C36 8.91241 35.7467 9.28216 35.3623 9.43164L27 12.6836V15.0186C27.332 15.0075 27.6653 15 28 15C31.5101 15 34.877 15.6151 38 16.7402V6.5C38 6.22386 38.2239 6 38.5 6H39.5C39.7761 6 40 6.22386 40 6.5V7.31543L48.3623 10.5684C48.7467 10.7178 49 11.0876 49 11.5C49 11.9124 48.7467 12.2822 48.3623 12.4316L40 15.6836V17.5C40 17.5142 39.9963 17.5281 39.9951 17.542C42.5277 18.6705 44.8724 20.1445 46.9678 21.9053C47.6415 22.4715 47.9998 23.303 48 24.1504V25.5039C48.6763 25.9964 49.3351 26.5123 49.9727 27.0527C50.6417 27.62 50.9999 28.4494 51 29.2969V46H51.5C51.7761 46 52 46.2239 52 46.5V47.5C52 47.7761 51.7761 48 51.5 48H4.5C4.22386 48 4 47.7761 4 47.5V46.5C4 46.2239 4.22386 46 4.5 46H5V29.2969C5.00008 28.4494 5.35833 27.62 6.02734 27.0527C6.66489 26.5123 7.32374 25.9964 8 25.5039V24.1504C8.00022 23.303 8.35851 22.4715 9.03223 21.9053C9.66582 21.3729 10.3226 20.8671 11 20.3887V6.5C11 6.22386 11.2239 6 11.5 6H12.5C12.7761 6 13 6.22386 13 6.5V7.31543L21.3623 10.5684C21.7467 10.7178 22 11.0876 22 11.5C22 11.9124 21.7467 12.2822 21.3623 12.4316L13 15.6836V19.0938C16.5824 16.9743 20.6521 15.5916 25 15.1523V3.5C25 3.22386 25.2239 3 25.5 3H26.5ZM16 39.7842C13.0616 40.1979 10.1816 40.7636 7 41.458V46H16V39.7842ZM28 26C24.1881 26 20.6998 27.375 18 29.6572V46H22V35.9102L22.0059 35.8037C22.032 35.5589 22.1477 35.331 22.333 35.165C23.8362 33.8197 25.8236 33 28 33C30.1764 33 32.1638 33.8197 33.667 35.165C33.8788 35.3547 34 35.6258 34 35.9102V46H38V29.6572C35.3002 27.375 31.8119 26 28 26ZM28 35C26.4903 35 25.1034 35.5147 24 36.3779V46H32V36.3779C30.8966 35.5147 29.5097 35 28 35ZM40 46H49V41.6045C45.7952 40.8968 42.9131 40.3132 40 39.8789V46ZM40 37.8604C42.9412 38.2881 45.8289 38.8607 49 39.5557V35.2168C46.0455 33.7401 43.0974 32.5329 40 31.6523V37.8604ZM16 31.5586C12.8972 32.4144 9.94908 33.5986 7 35.0527V39.4121C10.1484 38.7305 13.0341 38.1722 16 37.7646V31.5586ZM28 17C21.2663 17 15.1002 19.4191 10.3193 23.4365C10.1224 23.602 10.0002 23.8606 10 24.1504V26.0156C10 26.3406 9.84169 26.6456 9.57617 26.833C8.79789 27.382 8.04463 27.9642 7.32031 28.5781C7.12188 28.7464 7.00008 29.0071 7 29.2969V32.8301C9.92595 31.4407 12.881 30.3076 16 29.4883V29.2012C16.0001 28.9168 16.1211 28.6457 16.333 28.4561C19.4284 25.6856 23.5186 24 28 24C32.4814 24 36.5716 25.6856 39.667 28.4561C39.8789 28.6457 39.9999 28.9168 40 29.2012V29.5762C43.1147 30.42 46.0692 31.578 49 32.9902V29.2969C48.9999 29.0071 48.8781 28.7464 48.6797 28.5781C47.9554 27.9642 47.2021 27.382 46.4238 26.833C46.1583 26.6456 46 26.3406 46 26.0156V24.1504C45.9998 23.8606 45.8776 23.602 45.6807 23.4365C40.8998 19.4191 34.7337 17 28 17ZM13 13.5381L18.2412 11.5L13 9.46094V13.5381ZM40 13.5381L45.2412 11.5L40 9.46094V13.5381ZM27 10.5381L32.2412 8.5L27 6.46094V10.5381Z" fill="oklch(0.3523 0 0 / 1)" class="wd-expressive-fill"></path>
</svg>