<svg role="presentation" width="56" height="56" viewBox="0 0 56 56" xmlns="http://www.w3.org/2000/svg" class="wd-expressive wd-expressive-touch-id">
<g>
<path d="M27.5406 48.6342C27.8047 48.7149 27.9537 48.9944 27.8702 49.2576C27.4624 50.5432 26.998 51.8103 26.4777 53.0547C26.3712 53.3094 26.0769 53.4262 25.8234 53.3171L25.3634 53.1191L24.9042 52.9208C24.6508 52.8113 24.5343 52.5174 24.6406 52.2627C25.1318 51.0863 25.5709 49.8886 25.9569 48.6736C26.0406 48.4105 26.3197 48.2616 26.5838 48.3422L27.5406 48.6342Z" fill="oklch(0.3523 0 0 / 1)" class="wd-expressive-fill"></path>
<path d="M33.2668 40.2739C33.5418 40.3006 33.7432 40.5453 33.7135 40.82C33.2612 45.0037 32.277 49.1131 30.7853 53.0479C30.6874 53.3061 30.3971 53.4331 30.1398 53.3325L29.2092 52.969C28.9519 52.8685 28.8251 52.5786 28.9229 52.3203C30.348 48.5565 31.289 44.6265 31.7232 40.6254C31.753 40.3508 31.9974 40.1498 32.2723 40.1768L33.2668 40.2739Z" fill="oklch(0.3523 0 0 / 1)" class="wd-expressive-fill"></path>
<path d="M27.7072 19.0049C29.0079 18.9626 30.3032 19.2026 31.5021 19.709C32.7009 20.2153 33.7759 20.9757 34.6525 21.9375C36.3298 23.778 37.1398 26.4894 37.5509 28.9834C37.9674 31.5099 38.0001 33.9898 38.0001 35.5L37.9894 36.5937C37.8811 41.8927 36.9857 47.1473 35.3321 52.185C35.246 52.4473 34.962 52.5875 34.7005 52.4991L33.7527 52.1781C33.4913 52.0894 33.3514 51.8058 33.4374 51.5434C35.0255 46.6994 35.8852 41.6473 35.9894 36.5527L36.0001 35.5C36.0001 34.0102 35.9658 31.666 35.5773 29.3086C35.1834 26.919 34.4507 24.6862 33.174 23.2851C32.4922 22.5371 31.6561 21.9456 30.7238 21.5517C29.7913 21.1579 28.7843 20.971 27.7726 21.0039C26.9277 21.0314 26.0962 21.2115 25.3179 21.5343C25.0629 21.6401 24.7631 21.5422 24.6393 21.2954L24.1909 20.4011C24.0672 20.1542 24.1665 19.8524 24.4199 19.7426C25.458 19.2925 26.5733 19.0418 27.7072 19.0049Z" fill="oklch(0.3523 0 0 / 1)" class="wd-expressive-fill"></path>
<path d="M25.9855 36.6045C25.843 41.9573 24.6658 47.234 22.5169 52.1427C22.4062 52.3957 22.1096 52.5073 21.858 52.3935L20.9469 51.9814C20.6953 51.8676 20.5839 51.5716 20.6945 51.3185C22.7336 46.6528 23.851 41.6383 23.9865 36.5517L24.0001 35.5C24.0001 34.137 23.7812 33.3702 23.5304 32.3672C23.3003 31.4467 23.0666 30.4055 23.0119 28.749L23.0001 28C23.0001 26.787 23.4416 25.6151 24.2414 24.7031C25.0411 23.7913 26.1453 23.2013 27.3478 23.043C28.5503 22.8847 29.77 23.1689 30.7785 23.8428C31.7869 24.5167 32.5163 25.5345 32.8302 26.706C33.4532 29.0311 34.0001 32.9076 34.0001 35.5C34.0001 35.974 33.9934 36.4481 33.9799 36.922C33.972 37.1981 33.7393 37.4131 33.4633 37.4023L32.4635 37.3633C32.1876 37.3525 31.973 37.1201 31.9808 36.8441C31.9936 36.3962 32.0001 35.9481 32.0001 35.5C32.0001 33.0925 31.4781 29.3899 30.8976 27.2236C30.7093 26.5207 30.2721 25.9102 29.6671 25.5058C29.062 25.1015 28.3301 24.9304 27.6085 25.0254C26.8871 25.1204 26.2241 25.4744 25.7443 26.0215C25.3244 26.5003 25.07 27.0988 25.0128 27.7285L25.0001 28C25.0001 29.8942 25.2329 30.9348 25.4699 31.8828C25.7191 32.8797 26.0001 33.8631 26.0001 35.5L25.9855 36.6045Z" fill="oklch(0.3523 0 0 / 1)" class="wd-expressive-fill"></path>
<path d="M22.6964 22.6962C22.8917 22.8915 22.8901 23.207 22.7094 23.4157C22.2184 23.9828 21.8212 24.6263 21.5333 25.3213C21.2255 26.0645 21.0484 26.8545 21.0089 27.6562L21.0001 28C21.0001 29.8942 21.2329 30.9348 21.4699 31.8828C21.7191 32.8797 22.0001 33.8631 22.0001 35.5L21.9874 36.498C21.8591 41.319 20.8017 46.072 18.8721 50.4952C18.7617 50.7483 18.4651 50.8599 18.2135 50.7461L17.3024 50.334C17.0508 50.2202 16.9394 49.9241 17.0496 49.6709C18.8695 45.4907 19.8662 41.0001 19.9874 36.4453L20.0001 35.5C20.0001 34.137 19.7812 33.3702 19.5304 32.3672C19.3003 31.4467 19.0666 30.4055 19.0119 28.749L19.0001 28C19.0001 26.8181 19.2334 25.6476 19.6857 24.5557C20.0741 23.6181 20.6174 22.7537 21.2924 21.999C21.4764 21.7931 21.7942 21.794 21.9894 21.9893L22.6964 22.6962Z" fill="oklch(0.3523 0 0 / 1)" class="wd-expressive-fill"></path>
<path d="M39.7584 23.5777C40.0122 23.469 40.3056 23.5861 40.3984 23.8462C41.0066 25.5503 42.0001 29.6253 42.0001 35.5L41.9923 36.4482C41.917 41.019 41.2971 45.5653 40.1449 49.9902C40.0753 50.2575 39.8006 50.4153 39.5339 50.3433L38.5677 50.0824C38.3012 50.0105 38.1436 49.7361 38.2131 49.4689C39.3225 45.2032 39.9196 40.821 39.9923 36.415L40.0001 35.5C40.0001 29.9249 39.0713 26.1344 38.5561 24.6339C38.4664 24.3727 38.5859 24.0798 38.8398 23.9711L39.7584 23.5777Z" fill="oklch(0.3523 0 0 / 1)" class="wd-expressive-fill"></path>
<path d="M16.7374 42.5551C17.0071 42.6142 17.1783 42.8808 17.1152 43.1497C16.6595 45.0922 16.031 46.9903 15.2375 48.821C15.1277 49.0744 14.8313 49.1862 14.5795 49.0727L13.6682 48.6609C13.4167 48.5472 13.3054 48.2514 13.4149 47.9981C14.1512 46.2943 14.7354 44.5286 15.1609 42.7219C15.2242 42.4531 15.4903 42.2822 15.76 42.3412L16.7374 42.5551Z" fill="oklch(0.3523 0 0 / 1)" class="wd-expressive-fill"></path>
<path d="M35.634 13.3719C35.7618 13.1271 36.0642 13.0316 36.3051 13.1665C38.2206 14.2391 39.9114 15.6737 41.2833 17.3916C45.3073 22.4302 46.0001 29.6481 46.0001 35.5L45.9962 36.2314C45.9547 39.7239 45.6152 43.2066 44.9823 46.6417C44.9323 46.9132 44.6701 47.0906 44.399 47.0386L43.4168 46.8495C43.1457 46.7972 42.9685 46.5351 43.0184 46.2636C43.6288 42.9454 43.9561 39.5814 43.9962 36.208L44.0001 35.5C44.0001 29.68 43.2792 23.0954 39.7208 18.6396C38.5226 17.1392 37.0481 15.884 35.379 14.9408C35.1386 14.805 35.0432 14.5037 35.171 14.2588L35.634 13.3719Z" fill="oklch(0.3523 0 0 / 1)" class="wd-expressive-fill"></path>
<path d="M28.3258 27.1011C28.5914 27.0258 28.8682 27.1801 28.9393 27.4469C29.6439 30.0902 30.0001 32.7904 30.0001 35.5C30.0001 39.0187 29.5923 42.525 28.7846 45.9486C28.7212 46.2173 28.4499 46.3808 28.1818 46.3144L27.2111 46.0742C26.9431 46.0079 26.7798 45.7368 26.8431 45.468C27.612 42.2017 28.0001 38.8567 28.0001 35.5C28.0001 32.9767 27.67 30.46 27.0151 27.9925C26.9443 27.7258 27.098 27.4496 27.3635 27.3741L28.3258 27.1011Z" fill="oklch(0.3523 0 0 / 1)" class="wd-expressive-fill"></path>
<path d="M25.4425 11.1933C27.9413 10.8131 30.4915 10.9953 32.9075 11.7237C33.1718 11.8034 33.3131 12.0873 33.2257 12.3492L32.9093 13.2979C32.822 13.5599 32.5388 13.7007 32.2741 13.622C30.159 12.9934 27.9286 12.8383 25.7433 13.1709C23.3931 13.5286 21.1614 14.4396 19.2326 15.8291C17.3036 17.2187 15.7322 19.047 14.6486 21.1631C13.565 23.2791 13.0001 25.6226 13.0001 28C13.0001 29.8942 13.2329 30.9348 13.4699 31.8828C13.7191 32.8797 14.0001 33.8631 14.0001 35.5C14.0001 39.0497 13.3599 42.5692 12.1108 45.889C12.0136 46.1475 11.7227 46.2731 11.4659 46.1716L10.5352 45.8032C10.2785 45.7015 10.1533 45.4112 10.2502 45.1527C11.4068 42.0672 12.0001 38.7978 12.0001 35.5C12.0001 34.137 11.7812 33.3702 11.5304 32.3672C11.2674 31.3152 11.0001 30.1056 11.0001 28C11.0001 25.3058 11.6404 22.65 12.8683 20.2519C14.0964 17.8537 15.8775 15.7809 18.0636 14.206C20.2497 12.6313 22.779 11.5987 25.4425 11.1933Z" fill="oklch(0.3523 0 0 / 1)" class="wd-expressive-fill"></path>
<path d="M17.4411 11.606C17.5907 11.8381 17.5233 12.1471 17.2951 12.3027C14.8109 13.997 12.7615 16.2583 11.3195 18.9023C9.79754 21.693 9.00015 24.8213 9.00015 28C9.00015 29.8942 9.23288 30.9348 9.46987 31.8828C9.71909 32.8797 10.0001 33.8631 10.0001 35.5C10.0001 37.8731 9.66872 40.2338 9.01641 42.5138C8.94045 42.7793 8.66019 42.9274 8.39623 42.8462L7.44135 42.553C7.17723 42.4719 7.02942 42.1922 7.10495 41.9265C7.69891 39.8369 8.00015 37.6739 8.00015 35.5C8.00015 34.137 7.78119 33.3702 7.53042 32.3672C7.26743 31.3152 7.00015 30.1056 7.00015 28C7.00015 24.4868 7.88154 21.0296 9.56362 17.9453C11.1659 15.0074 13.4465 12.4973 16.212 10.6214C16.4405 10.4664 16.7503 10.5339 16.8998 10.766L17.4411 11.606Z" fill="oklch(0.3523 0 0 / 1)" class="wd-expressive-fill"></path>
<path d="M49.4984 35.0278C49.7745 35.0259 50 35.2481 49.9999 35.5242C49.9993 37.1665 49.9372 38.8084 49.8132 40.446C49.7924 40.7213 49.5505 40.9258 49.2754 40.9028L48.7765 40.8613L48.2782 40.8193C48.0032 40.7961 47.7992 40.5545 47.82 40.2794C47.939 38.702 47.9989 37.1207 47.9999 35.5388C48 35.2627 48.2219 35.0373 48.4979 35.0351L49.4984 35.0278Z" fill="oklch(0.3523 0 0 / 1)" class="wd-expressive-fill"></path>
<path d="M24.2003 15.5674C26.8628 14.7537 29.7167 14.8166 32.341 15.7461C34.8079 16.62 36.95 18.2167 38.4911 20.3225C38.6541 20.5453 38.593 20.8566 38.3642 21.011L37.5347 21.5703C37.3058 21.7246 36.9961 21.6633 36.8315 21.4417C35.531 19.6904 33.7363 18.3617 31.673 17.6308C29.4523 16.8443 27.0372 16.7918 24.7843 17.4805C22.5315 18.1692 20.5596 19.5634 19.1583 21.457C17.757 23.3508 17.0001 25.6441 17.0001 28C17.0001 29.8942 17.2329 30.9348 17.4699 31.8828C17.7191 32.8797 18.0001 33.8631 18.0001 35.5C18.0001 36.8175 17.9227 38.1341 17.7678 39.4422C17.7353 39.7165 17.4833 39.9087 17.2095 39.872L16.2182 39.7392C15.9446 39.7026 15.7529 39.4511 15.7851 39.1769C15.9284 37.9567 16.0001 36.7289 16.0001 35.5C16.0001 34.137 15.7812 33.3702 15.5304 32.3672C15.2674 31.3152 15.0001 30.1056 15.0001 28C15.0001 25.2158 15.8938 22.5046 17.55 20.2666C19.2061 18.0286 21.5379 16.3813 24.2003 15.5674Z" fill="oklch(0.3523 0 0 / 1)" class="wd-expressive-fill"></path>
<path d="M5.60968 20.8648C5.87279 20.9486 6.01756 21.2297 5.93946 21.4946C4.52075 26.3056 4.71363 31.4495 6.48895 36.1406C6.58671 36.3989 6.46334 36.6902 6.20718 36.7934L5.28025 37.1673C5.02416 37.2707 4.73227 37.147 4.63407 36.8889C2.68491 31.7654 2.47321 26.1423 4.03278 20.8871C4.11135 20.6224 4.39312 20.4771 4.65623 20.561L5.60968 20.8648Z" fill="oklch(0.3523 0 0 / 1)" class="wd-expressive-fill"></path>
<path d="M28.1164 6.99999C31.1782 7.01698 34.2002 7.70412 36.9689 9.01171C39.7374 10.3193 42.1866 12.2165 44.1447 14.5703C46.1235 16.9491 47.1772 19.3294 48.2843 22.5703C49.4284 25.9193 49.6853 28.5931 49.8551 31.4442C49.8715 31.7198 49.6605 31.956 49.3849 31.9716L48.3862 32.0283C48.1105 32.0439 47.8744 31.8328 47.8579 31.5571C47.6916 28.7684 47.4484 26.3099 46.3917 23.2168C45.3161 20.0681 44.3584 17.9534 42.6076 15.8486C40.8359 13.719 38.6193 12.0024 36.1144 10.8193C33.6095 9.63634 30.8758 9.01536 28.1056 8.99999C25.5022 8.98559 22.9251 9.5064 20.5343 10.528C20.2804 10.6365 19.9839 10.5271 19.8687 10.2762L19.4517 9.3675C19.3366 9.11652 19.4465 8.81915 19.7002 8.71002C22.3561 7.56715 25.2214 6.98402 28.1164 6.99999Z" fill="oklch(0.3523 0 0 / 1)" class="wd-expressive-fill"></path>
<path d="M31.3268 3.72687C31.3643 3.45326 31.6167 3.26134 31.8895 3.3043C37.8563 4.24403 43.2881 7.31429 47.172 11.9551C51.056 16.5961 53.1216 22.4843 52.9951 28.5236C52.9893 28.7997 52.756 29.0143 52.48 29.0029L51.4801 28.9619C51.2043 28.9506 50.9903 28.7177 50.9957 28.4416C51.1022 22.8996 49.2033 17.4988 45.6388 13.2392C42.0742 8.97975 37.0919 6.15804 31.6178 5.28616C31.3451 5.24273 31.1536 4.99109 31.1911 4.71751L31.3268 3.72687Z" fill="oklch(0.3523 0 0 / 1)" class="wd-expressive-fill"></path>
<path d="M28.125 3.00031C28.4012 3.00168 28.6195 3.23171 28.6124 3.50784L28.5871 4.50721C28.58 4.78318 28.3507 5.00067 28.0746 4.99978C23.7048 4.98566 19.4173 6.21726 15.7169 8.55468C12.0166 10.8922 9.06226 14.2354 7.19791 18.1878C7.08005 18.4376 6.78482 18.5513 6.53253 18.4388L5.62023 18.0324C5.36787 17.9201 5.2539 17.6242 5.3713 17.3742C7.39662 13.061 10.6142 9.41283 14.6486 6.86425C18.683 4.31569 23.36 2.9766 28.125 3.00031Z" fill="oklch(0.3523 0 0 / 1)" class="wd-expressive-fill"></path>
</g>
</svg>