<svg role="presentation" width="56" height="56" viewBox="0 0 56 56" xmlns="http://www.w3.org/2000/svg" class="wd-expressive wd-expressive-cart">
<path d="M16.7695 14.2207L20.3086 29.0186L43.8223 27.1104C43.1815 28.136 42.4552 29.103 41.6523 30L17 32L12.6914 13.9814L16.7695 14.2207Z" fill="oklch(0.3057 0.079 256.22 / 0.13)" class="wd-expressive-accent"></path>
<g>
<path d="M15.5 42C17.433 42 19 43.567 19 45.5C19 47.433 17.433 49 15.5 49C13.567 49 12 47.433 12 45.5C12 43.567 13.567 42 15.5 42ZM15.5 44C14.6716 44 14 44.6716 14 45.5C14 46.3284 14.6716 47 15.5 47C16.3284 47 17 46.3284 17 45.5C17 44.6716 16.3284 44 15.5 44Z" fill="oklch(0.3523 0 0 / 1)" class="wd-expressive-fill"></path>
<path d="M41.5 42C43.433 42 45 43.567 45 45.5C45 47.433 43.433 49 41.5 49C39.567 49 38 47.433 38 45.5C38 43.567 39.567 42 41.5 42ZM41.5 44C40.6716 44 40 44.6716 40 45.5C40 46.3284 40.6716 47 41.5 47C42.3284 47 43 46.3284 43 45.5C43 44.6716 42.3284 44 41.5 44Z" fill="oklch(0.3523 0 0 / 1)" class="wd-expressive-fill"></path>
<path d="M11.5 8C11.9627 8 12.365 8.31757 12.4727 8.76758L13.4912 13.0273L47.0586 15.002C47.5871 15.033 48 15.4706 48 16C48 21.634 45.8805 26.7754 42.3975 30.667C42.2265 30.8579 41.9888 30.9764 41.7334 30.9971L17.6807 32.9482L15.5166 38H43.5C43.776 38.0001 44 38.2239 44 38.5V39.5C44 39.7761 43.776 39.9999 43.5 40H14C13.6639 40 13.3501 39.8313 13.165 39.5508C12.98 39.2702 12.9488 38.9154 13.0811 38.6064L15.9502 31.9102L10.7109 10H5.5C5.22408 9.99974 5 9.77598 5 9.5V8.5C5 8.22386 5.22483 8 5.50098 8H11.5ZM16.8252 26.9717L17.7725 30.9336L22.8926 30.5176L22.1924 26.7861L16.8252 26.9717ZM24.2139 26.7158L24.8955 30.3555L29.9316 29.9463L29.7178 26.5254L24.2139 26.7158ZM31.7178 26.457L31.9258 29.7842L37 29.3721V26.2744L31.7178 26.457ZM39 26.2061V29.21L41.168 29.0352C41.9618 28.1123 42.6724 27.1161 43.2891 26.0586L39 26.2061ZM16.3506 24.9873L21.8193 24.7979L21.1074 21H15.3975L16.3506 24.9873ZM23.8408 24.7285L29.5928 24.5293L29.373 21H23.1416L23.8408 24.7285ZM31.5928 24.4609L37 24.2744V21H31.377L31.5928 24.4609ZM39 24.2051L44.3232 24.0225C44.7485 23.0526 45.0997 22.0431 45.3682 21H39V24.2051ZM14.9189 19H20.7324L20.0596 15.416L13.9766 15.0586L14.9189 19ZM22.7666 19H29.248L29.0566 15.9443L22.1172 15.5371L22.7666 19ZM39 19H45.7744C45.8761 18.3239 45.9453 17.637 45.9775 16.9404L39 16.5293V19ZM31.252 19H37V16.4121L31.0684 16.0635L31.252 19Z" fill="oklch(0.3523 0 0 / 1)" class="wd-expressive-fill"></path>
</g>
</svg>