<svg role="presentation" width="56" height="56" viewBox="0 0 56 56" xmlns="http://www.w3.org/2000/svg" class="wd-expressive wd-expressive-connection-circle">
<g>
<path d="M10.5 34C12.9853 34 15 36.0147 15 38.5C15 40.9853 12.9853 43 10.5 43C8.01472 43 6 40.9853 6 38.5C6 36.0147 8.01472 34 10.5 34Z" fill="oklch(0.3057 0.079 256.22 / 0.13)" class="wd-expressive-accent"></path>
<path d="M42.5 34C44.9853 34 47 36.0147 47 38.5C47 40.9853 44.9853 43 42.5 43C40.0147 43 38 40.9853 38 38.5C38 36.0147 40.0147 34 42.5 34Z" fill="oklch(0.3057 0.079 256.22 / 0.13)" class="wd-expressive-accent"></path>
<path d="M26.5 7C28.9853 7 31 9.01472 31 11.5C31 13.9853 28.9853 16 26.5 16C24.0147 16 22 13.9853 22 11.5C22 9.01472 24.0147 7 26.5 7Z" fill="oklch(0.3057 0.079 256.22 / 0.13)" class="wd-expressive-accent"></path>
</g>
<g>
<path d="M36.5635 43.833C36.8062 43.7017 37.1118 43.7826 37.25 44.0215L37.75 44.8877C37.8879 45.1268 37.8059 45.4334 37.5635 45.5654C34.6315 47.1617 31.3436 48 28 48C24.6562 47.9999 21.3676 47.1619 18.4355 45.5654C18.1931 45.4334 18.112 45.1268 18.25 44.8877L18.75 44.0215C18.8882 43.7829 19.1929 43.702 19.4355 43.833C22.0633 45.2543 25.0073 46 28 46C30.9926 46 33.9358 45.2542 36.5635 43.833Z" fill="oklch(0.3523 0 0 / 1)" class="wd-expressive-fill"></path>
<path d="M12 30C15.866 30 19 33.134 19 37C19 40.866 15.866 44 12 44C8.13401 44 5 40.866 5 37C5 33.134 8.13401 30 12 30ZM12 32C9.23858 32 7 34.2386 7 37C7 39.7614 9.23858 42 12 42C14.7614 42 17 39.7614 17 37C17 34.2386 14.7614 32 12 32Z" fill="oklch(0.3523 0 0 / 1)" class="wd-expressive-fill"></path>
<path d="M44 30C47.866 30 51 33.134 51 37C51 40.866 47.866 44 44 44C40.134 44 37 40.866 37 37C37 33.134 40.134 30 44 30ZM44 32C41.2386 32 39 34.2386 39 37C39 39.7614 41.2386 42 44 42C46.7614 42 49 39.7614 49 37C49 34.2386 46.7614 32 44 32Z" fill="oklch(0.3523 0 0 / 1)" class="wd-expressive-fill"></path>
<path d="M17.5703 10.9346C17.8058 10.7907 18.1119 10.8734 18.25 11.1123L18.5 11.5459L18.75 11.9775C18.8882 12.2167 18.8056 12.5223 18.5703 12.667C16.0257 14.2321 13.9075 16.4084 12.4111 19C10.9149 21.5917 10.0898 24.5138 10.0068 27.5C9.99906 27.7759 9.77607 28 9.5 28H8.5C8.22405 27.9999 8.00006 27.7759 8.00684 27.5C8.09034 24.1626 9.00787 20.8958 10.6797 18C12.3516 15.1043 14.7218 12.6756 17.5703 10.9346Z" fill="oklch(0.3523 0 0 / 1)" class="wd-expressive-fill"></path>
<path d="M37.75 11.1123C37.8882 10.8734 38.1942 10.7906 38.4297 10.9346C41.2782 12.6756 43.6484 15.1043 45.3203 18C46.9921 20.8958 47.9097 24.1626 47.9932 27.5C48 27.7758 47.7759 27.9998 47.5 28H46.5C46.2239 28 45.9999 27.776 45.9922 27.5C45.9092 24.5138 45.0851 21.5917 43.5889 19C42.0926 16.4084 39.9743 14.232 37.4297 12.667C37.1944 12.5223 37.1118 12.2167 37.25 11.9775L37.5 11.5459L37.75 11.1123Z" fill="oklch(0.3523 0 0 / 1)" class="wd-expressive-fill"></path>
<path d="M28 3C31.866 3 35 6.13401 35 10C35 13.866 31.866 17 28 17C24.134 17 21 13.866 21 10C21 6.13401 24.134 3 28 3ZM28 5C25.2386 5 23 7.23858 23 10C23 12.7614 25.2386 15 28 15C30.7614 15 33 12.7614 33 10C33 7.23858 30.7614 5 28 5Z" fill="oklch(0.3523 0 0 / 1)" class="wd-expressive-fill"></path>
</g>
</svg>