<svg role="presentation" width="56" height="56" viewBox="0 0 56 56" xmlns="http://www.w3.org/2000/svg" class="wd-expressive wd-expressive-book-user">
<g>
<path d="M44 45C43.3644 48.8459 43.3749 49.2176 44 53H15C14.6116 53 14.2359 52.9451 13.8809 52.8418C12.2163 52.3577 11 50.8207 11 49C11 47.1793 12.2163 45.6423 13.8809 45.1582C14.2359 45.0549 14.6116 45 15 45H44Z" fill="oklch(0.3057 0.079 256.22 / 0.13)" class="wd-expressive-accent"></path>
<path d="M15 45H11V7C11 4.79086 12.7909 3 15 3V45Z" fill="oklch(0.3057 0.079 256.22 / 0.13)" class="wd-expressive-accent"></path>
<path d="M48.5 29.001C48.7761 29.001 49 29.2248 49 29.501V35.501C49 35.7771 48.7761 36.001 48.5 36.001H45.5C45.2239 36.001 45 35.7771 45 35.501V29.501C45 29.2248 45.2239 29.001 45.5 29.001H48.5Z" fill="oklch(0.3057 0.079 256.22 / 0.13)" class="wd-expressive-accent"></path>
<path d="M26 26C29.3772 26 32.4646 27.2403 34.832 29.29C34.9396 29.3831 35 29.5189 35 29.6611V32H19.5C19.2239 32 19 31.7761 19 31.5V27.9561C21.0412 26.7155 23.4368 26 26 26Z" fill="oklch(0.3057 0.079 256.22 / 0.13)" class="wd-expressive-accent"></path>
<path d="M48.5 17.999C48.7761 17.999 49 18.2229 49 18.499V24.499C49 24.7752 48.7761 24.999 48.5 24.999H45.5C45.2239 24.999 45 24.7752 45 24.499V18.499C45 18.2229 45.2239 17.999 45.5 17.999H48.5Z" fill="oklch(0.3057 0.079 256.22 / 0.13)" class="wd-expressive-accent"></path>
<path d="M26 15C28.2091 15 30 16.7909 30 19C30 19.5868 29.8725 20.1435 29.6455 20.6455C29.1435 20.8725 28.5868 21 28 21C25.7909 21 24 19.2091 24 17C24 16.4132 24.1275 15.8565 24.3545 15.3545C24.8565 15.1275 25.4132 15 26 15Z" fill="oklch(0.3057 0.079 256.22 / 0.13)" class="wd-expressive-accent"></path>
<path d="M48.5 7C48.7761 7 49 7.22386 49 7.5V13.5C49 13.7761 48.7761 14 48.5 14H45.5C45.2239 14 45 13.7761 45 13.5V7.5C45 7.22386 45.2239 7 45.5 7H48.5Z" fill="oklch(0.3057 0.079 256.22 / 0.13)" class="wd-expressive-accent"></path>
</g>
<g>
<path d="M28 23C31.6266 23 34.9441 24.3331 37.4863 26.5342C37.8199 26.823 38 27.2376 38 27.6611V31.5C38 32.3284 37.3284 33 36.5 33H19.5C18.7233 33 18.0846 32.4097 18.0078 31.6533L18 31.5V27.6611L18.0088 27.5029C18.0477 27.1358 18.2218 26.7869 18.5137 26.5342L18.999 26.1318C21.4716 24.1717 24.6 23 28 23ZM28 25C24.9552 25 22.1685 26.0895 20 27.8984V31H36V27.8984C33.8315 26.0895 31.0448 25 28 25Z" fill="oklch(0.3523 0 0 / 1)" class="wd-expressive-fill"></path>
<path d="M28 12C30.7614 12 33 14.2386 33 17C33 19.7614 30.7614 22 28 22C25.2386 22 23 19.7614 23 17C23 14.2386 25.2386 12 28 12ZM28 14C26.3431 14 25 15.3431 25 17C25 18.6569 26.3431 20 28 20C29.6569 20 31 18.6569 31 17C31 15.3431 29.6569 14 28 14Z" fill="oklch(0.3523 0 0 / 1)" class="wd-expressive-fill"></path>
<path d="M44.5 2C45.3284 2 46 2.67157 46 3.5V6H48.5C49.3284 6 50 6.67157 50 7.5V13.5C50 14.3284 49.3284 15 48.5 15H46V16.999H48.5C49.3284 16.999 50 17.6706 50 18.499V24.499C50 25.3274 49.3284 25.999 48.5 25.999H46V28.001H48.5C49.3284 28.001 50 28.6726 50 29.501V35.501C50 36.3294 49.3284 37.001 48.5 37.001H46C46 39.5931 46 42.1852 46 44.7773C46 45 45.9832 45.3549 45.7998 45.5996L45.0498 46.5996C43.9835 48.0218 43.9833 49.9783 45.0498 51.4004L45.499 52C45.7752 52 46 52.2239 46 52.5V53.5C46 53.7761 45.7761 54 45.5 54H15C12.2386 54 10 51.7614 10 49V7C10 4.23858 12.2386 2 15 2H44.5ZM15 46C13.3431 46 12 47.3431 12 49C12 50.6569 13.3431 52 15 52H43.0547C41.9829 50.1459 41.983 47.8541 43.0547 46H15ZM15 4C13.3431 4 12 5.34315 12 7V45C12.8357 44.3722 13.8743 44 15 44H44V4H15ZM46 35.001H48V30.001H46V35.001ZM46 23.999H48V18.999H46V23.999ZM46 13H48V8H46V13Z" fill="oklch(0.3523 0 0 / 1)" class="wd-expressive-fill"></path>
</g>
</svg>