<svg role="presentation" width="56" height="56" viewBox="0 0 56 56" xmlns="http://www.w3.org/2000/svg" class="wd-expressive wd-expressive-calendar-check-account">
<g>
<path d="M49 34C50.1046 34 51 34.8954 51 36V49C51 50.1046 50.1046 51 49 51H28C26.8954 51 26 50.1046 26 49V36C26 34.8954 26.8954 34 28 34H49ZM34 43C32.4634 43 31.0615 43.5774 30 44.5273V47H38V44.5273C36.9385 43.5774 35.5366 43 34 43ZM34 38C32.8954 38 32 38.8954 32 40C32 41.1046 32.8954 42 34 42C35.1046 42 36 41.1046 36 40C36 38.8954 35.1046 38 34 38Z" fill="oklch(0.3057 0.079 256.22 / 0.13)" class="wd-expressive-accent"></path>
<path d="M47 19H10V43H23V46H7V12H47V19Z" fill="oklch(0.3057 0.079 256.22 / 0.13)" class="wd-expressive-accent"></path>
</g>
<g>
<path d="M34 37C35.6569 37 37 38.3431 37 40C37 40.911 36.5922 41.7252 35.9512 42.2754C36.9719 42.571 37.8967 43.0929 38.667 43.7822C38.8788 43.9718 38.9999 44.2431 39 44.5273V47C39 47.5523 38.5523 48 38 48H30C29.4477 48 29 47.5523 29 47V44.5273C29.0001 44.2431 29.1212 43.9718 29.333 43.7822C30.103 43.0931 31.0275 42.5711 32.0479 42.2754C31.4072 41.7252 31 40.9108 31 40C31 38.3431 32.3431 37 34 37ZM34 44C32.8736 44 31.8359 44.3718 31 45V46H37V45C36.1641 44.3718 35.1264 44 34 44ZM34 39C33.4477 39 33 39.4477 33 40C33 40.5523 33.4477 41 34 41C34.5523 41 35 40.5523 35 40C35 39.4477 34.5523 39 34 39Z" fill="oklch(0.3523 0 0 / 1)" class="wd-expressive-fill"></path>
<path d="M45.5 42C45.7761 42 46 42.2239 46 42.5V43.5C46 43.7761 45.7761 44 45.5 44H41.5C41.2239 44 41 43.7761 41 43.5V42.5C41 42.2239 41.2239 42 41.5 42H45.5Z" fill="oklch(0.3523 0 0 / 1)" class="wd-expressive-fill"></path>
<path d="M47.5 38C47.7761 38 48 38.2239 48 38.5V39.5C48 39.7761 47.7761 40 47.5 40H41.5C41.2239 40 41 39.7761 41 39.5V38.5C41 38.2239 41.2239 38 41.5 38H47.5Z" fill="oklch(0.3523 0 0 / 1)" class="wd-expressive-fill"></path>
<path d="M49.1543 33.0039C50.7394 33.0842 52 34.3949 52 36V49C52 50.6569 50.6569 52 49 52H28C26.3431 52 25 50.6569 25 49V36C25 34.3431 26.3431 33 28 33H49L49.1543 33.0039ZM28 35C27.4477 35 27 35.4477 27 36V49C27 49.5523 27.4477 50 28 50H49C49.5523 50 50 49.5523 50 49V36C50 35.4823 49.6067 35.0562 49.1025 35.0049L49 35H28Z" fill="oklch(0.3523 0 0 / 1)" class="wd-expressive-fill"></path>
<path d="M40 5C41.6569 5 43 6.34315 43 8V9H47C48.6569 9 50 10.3431 50 12V30.5C50 30.7761 49.7761 31 49.5 31H48.5C48.2239 31 48 30.7761 48 30.5V20H8V44C8 44.5523 8.44772 45 9 45H22.5C22.7761 45 23 45.2239 23 45.5V46.5C23 46.7761 22.7761 47 22.5 47H9C7.34315 47 6 45.6569 6 44V12C6 10.3431 7.34315 9 9 9H13V8C13 6.34315 14.3431 5 16 5C17.6569 5 19 6.34315 19 8V9H37V8C37 6.34315 38.3431 5 40 5ZM9 11C8.44772 11 8 11.4477 8 12V18H48V12C48 11.4477 47.5523 11 47 11H43C43 12.6569 41.6569 14 40 14C38.3949 14 37.0842 12.7394 37.0039 11.1543L37 11H19C19 12.6569 17.6569 14 16 14C14.3949 14 13.0842 12.7394 13.0039 11.1543L13 11H9ZM16 7C15.4477 7 15 7.44772 15 8V11L15.0049 11.1025C15.0562 11.6067 15.4823 12 16 12C16.5523 12 17 11.5523 17 11V8C17 7.44772 16.5523 7 16 7ZM40 7C39.4477 7 39 7.44772 39 8V11L39.0049 11.1025C39.0562 11.6067 39.4823 12 40 12C40.5523 12 41 11.5523 41 11V8C41 7.44772 40.5523 7 40 7Z" fill="oklch(0.3523 0 0 / 1)" class="wd-expressive-fill"></path>
<path d="M14 37.75C14.9665 37.75 15.75 38.5335 15.75 39.5C15.75 40.4665 14.9665 41.25 14 41.25C13.0335 41.25 12.25 40.4665 12.25 39.5C12.25 38.5335 13.0335 37.75 14 37.75Z" fill="oklch(0.3523 0 0 / 1)" class="wd-expressive-fill"></path>
<path d="M21 37.75C21.9665 37.75 22.75 38.5335 22.75 39.5C22.75 40.4665 21.9665 41.25 21 41.25C20.0335 41.25 19.25 40.4665 19.25 39.5C19.25 38.5335 20.0335 37.75 21 37.75Z" fill="oklch(0.3523 0 0 / 1)" class="wd-expressive-fill"></path>
<path d="M14 32.75C14.9665 32.75 15.75 33.5335 15.75 34.5C15.75 35.4665 14.9665 36.25 14 36.25C13.0335 36.25 12.25 35.4665 12.25 34.5C12.25 33.5335 13.0335 32.75 14 32.75Z" fill="oklch(0.3523 0 0 / 1)" class="wd-expressive-fill"></path>
<path d="M21 32.75C21.9665 32.75 22.75 33.5335 22.75 34.5C22.75 35.4665 21.9665 36.25 21 36.25C20.0335 36.25 19.25 35.4665 19.25 34.5C19.25 33.5335 20.0335 32.75 21 32.75Z" fill="oklch(0.3523 0 0 / 1)" class="wd-expressive-fill"></path>
<path d="M28 27.75C28.9665 27.75 29.75 28.5335 29.75 29.5C29.75 30.4665 28.9665 31.25 28 31.25C27.0335 31.25 26.25 30.4665 26.25 29.5C26.25 28.5335 27.0335 27.75 28 27.75Z" fill="oklch(0.3523 0 0 / 1)" class="wd-expressive-fill"></path>
<path d="M35 27.75C35.9665 27.75 36.75 28.5335 36.75 29.5C36.75 30.4665 35.9665 31.25 35 31.25C34.0335 31.25 33.25 30.4665 33.25 29.5C33.25 28.5335 34.0335 27.75 35 27.75Z" fill="oklch(0.3523 0 0 / 1)" class="wd-expressive-fill"></path>
<path d="M42 27.75C42.9665 27.75 43.75 28.5335 43.75 29.5C43.75 30.4665 42.9665 31.25 42 31.25C41.0335 31.25 40.25 30.4665 40.25 29.5C40.25 28.5335 41.0335 27.75 42 27.75Z" fill="oklch(0.3523 0 0 / 1)" class="wd-expressive-fill"></path>
<path d="M15.9395 26.1465C16.1347 25.9513 16.4512 25.9513 16.6465 26.1465L17.3535 26.8535C17.5487 27.0488 17.5487 27.3653 17.3535 27.5605L14.207 30.707C14.0195 30.8945 13.7652 31 13.5 31C13.2349 31 12.9805 30.8945 12.793 30.707L11.1465 29.0605C10.9513 28.8653 10.9513 28.5488 11.1465 28.3535L11.8535 27.6465C12.0488 27.4513 12.3653 27.4513 12.5605 27.6465L13.5 28.5859L15.9395 26.1465Z" fill="oklch(0.3523 0 0 / 1)" class="wd-expressive-fill"></path>
<path d="M22.9395 26.1465C23.1347 25.9513 23.4512 25.9513 23.6465 26.1465L24.3535 26.8535C24.5487 27.0488 24.5487 27.3653 24.3535 27.5605L21.207 30.707C21.0195 30.8945 20.7652 31 20.5 31C20.2349 31 19.9805 30.8945 19.793 30.707L18.1465 29.0605C17.9513 28.8653 17.9513 28.5488 18.1465 28.3535L18.8535 27.6465C19.0488 27.4513 19.3653 27.4513 19.5605 27.6465L20.5 28.5859L22.9395 26.1465Z" fill="oklch(0.3523 0 0 / 1)" class="wd-expressive-fill"></path>
<path d="M35 22.75C35.9665 22.75 36.75 23.5335 36.75 24.5C36.75 25.4665 35.9665 26.25 35 26.25C34.0335 26.25 33.25 25.4665 33.25 24.5C33.25 23.5335 34.0335 22.75 35 22.75Z" fill="oklch(0.3523 0 0 / 1)" class="wd-expressive-fill"></path>
<path d="M42 22.75C42.9665 22.75 43.75 23.5335 43.75 24.5C43.75 25.4665 42.9665 26.25 42 26.25C41.0335 26.25 40.25 25.4665 40.25 24.5C40.25 23.5335 41.0335 22.75 42 22.75Z" fill="oklch(0.3523 0 0 / 1)" class="wd-expressive-fill"></path>
</g>
</svg>