<svg role="presentation" width="56" height="56" viewBox="0 0 56 56" xmlns="http://www.w3.org/2000/svg" class="wd-expressive wd-expressive-clean-energy">
<g>
<path d="M30 30V54H26V30H30Z" fill="oklch(0.3057 0.079 256.22 / 0.13)" class="wd-expressive-accent"></path>
<path d="M43 35C44.659 35 46.2453 35.3114 47.7041 35.8779C45.4037 43.4607 38.3675 48.9836 30.0371 49C30.012 48.67 30 48.3365 30 48C30 40.8203 35.8203 35 43 35Z" fill="oklch(0.3057 0.079 256.22 / 0.13)" class="wd-expressive-accent"></path>
<path d="M12.7041 31C19.8838 31 25.7041 36.8203 25.7041 44C25.7041 44.3365 25.6921 44.67 25.667 45C17.3367 44.9835 10.3004 39.4607 8 31.8779C9.45877 31.3114 11.0451 31 12.7041 31Z" fill="oklch(0.3057 0.079 256.22 / 0.13)" class="wd-expressive-accent"></path>
</g>
<path d="M34.0002 2C35.657 2 37.0002 3.34315 37.0002 5V14H39.0002C40.657 14 42.0002 15.3431 42.0002 17C42.0002 18.6051 40.7396 19.9158 39.1545 19.9961L39.0002 20H38.7082C38.0888 23.7377 36.4977 27.1473 34.1984 29.9551C33.6687 30.6014 32.8984 30.9544 32.1086 30.9961L31.9504 31H31.0002V40.7861C33.4498 36.7199 37.9072 34.0001 43.0002 34C44.7852 34 46.4945 34.3348 48.0666 34.9453C48.5538 35.1346 48.8129 35.6677 48.6613 36.168C46.3257 43.8665 39.3591 49.5514 31.0002 49.9736V53.5C31.0002 53.7761 30.7763 54 30.5002 54H29.5002C29.2241 53.9999 29.0002 53.7761 29.0002 53.5V31H27.0002V53.5C27.0002 53.7761 26.7763 54 26.5002 54H25.5002C25.2241 53.9999 25.0002 53.7761 25.0002 53.5V45.9863C16.5104 45.6848 9.40611 39.957 7.04313 32.168C6.89164 31.6679 7.15088 31.1347 7.63786 30.9453C9.20988 30.3348 10.9193 30.0001 12.7043 30C18.0093 30 22.6251 32.951 25.0002 37.3008V31H24.05C23.2059 30.9997 22.3668 30.6445 21.8019 29.9551C19.5027 27.1473 17.9115 23.7377 17.2922 20H17.0002C15.3434 19.9999 14.0002 18.6568 14.0002 17C14.0002 15.3432 15.3434 14.0001 17.0002 14H19.0002V5C19.0002 3.34321 20.3434 2.0001 22.0002 2C23.657 2 25.0002 3.34315 25.0002 5V14H31.0002V5C31.0002 3.34321 32.3434 2.0001 34.0002 2ZM43.0002 36C37.156 36.0001 32.2879 40.178 31.2189 45.71C33.0931 42.9241 35.4829 40.5108 38.2697 38.6094C38.4977 38.4543 38.8079 38.5193 38.9591 38.75L39.507 39.5869C39.6579 39.8178 39.593 40.1273 39.3654 40.2832C36.4642 42.2693 34.0303 44.8556 32.2209 47.8594C38.7962 47.0263 44.2315 42.5431 46.4377 36.5029C45.3493 36.1778 44.1961 36 43.0002 36ZM12.7043 32C11.5084 32 10.3551 32.1779 9.26676 32.5029C11.4729 38.543 16.9084 43.0261 23.4836 43.8594C21.6741 40.8556 19.2402 38.2692 16.339 36.2832C16.1117 36.1273 16.0467 35.8177 16.1974 35.5869L16.7453 34.75C16.8964 34.5194 17.2067 34.4545 17.4347 34.6094C20.2215 36.5107 22.6113 38.9241 24.4855 41.71C23.4165 36.178 18.5485 32 12.7043 32ZM17.0002 16C16.448 16.0001 16.0002 16.4478 16.0002 17C16.0002 17.5522 16.448 17.9999 17.0002 18H18.1564C18.6614 18 19.0869 18.3767 19.1486 18.8779C19.6037 22.5737 21.1038 25.9458 23.3488 28.6875C23.5045 28.8775 23.7572 28.9998 24.05 29H31.9504L32.0578 28.9941C32.3046 28.9681 32.5152 28.8538 32.6515 28.6875C34.8965 25.9458 36.3966 22.5737 36.8517 18.8779L36.8673 18.7852C36.9669 18.3309 37.3706 18.0001 37.8439 18H39.0002L39.1027 17.9951C39.6068 17.9438 40.0002 17.5177 40.0002 17C40.0002 16.4477 39.5524 16 39.0002 16H17.0002ZM22.0002 4C21.448 4.0001 21.0002 4.44778 21.0002 5V14H23.0002V5C23.0002 4.44772 22.5524 4 22.0002 4ZM34.0002 4C33.448 4.0001 33.0002 4.44778 33.0002 5V14H35.0002V5C35.0002 4.44772 34.5524 4 34.0002 4Z" fill="oklch(0.3523 0 0 / 1)" class="wd-expressive-fill"></path>
</svg>