<svg role="presentation" width="56" height="56" viewBox="0 0 56 56" xmlns="http://www.w3.org/2000/svg" class="wd-expressive wd-expressive-microphone">
<g>
<path d="M28 48C30.6892 48 33.1424 49.0112 35 50.6738V53H21V50.6738C22.8576 49.0112 25.3108 48 28 48Z" fill="oklch(0.3057 0.079 256.22 / 0.13)" class="wd-expressive-accent"></path>
<path d="M34 29L33.9912 29.3691C33.9489 30.228 33.7585 31.074 33.4287 31.8701C33.0518 32.78 32.5001 33.6073 31.8037 34.3037C31.1073 35.0001 30.28 35.5518 29.3701 35.9287C28.4602 36.3056 27.4849 36.5 26.5 36.5C25.5151 36.5 24.5398 36.3056 23.6299 35.9287C22.72 35.5518 21.8927 35.0001 21.1963 34.3037C20.4999 33.6073 19.9482 32.78 19.5713 31.8701C19.2415 31.074 19.0511 30.228 19.0088 29.3691L19 29V24H34V29Z" fill="oklch(0.3057 0.079 256.22 / 0.13)" class="wd-expressive-accent"></path>
</g>
<g>
<path d="M15.5 21C15.7761 21 16 21.2239 16 21.5V22.5C16 22.7761 15.7761 23 15.5 23H14V28C14 35.732 20.268 42 28 42C35.732 42 42 35.732 42 28V23H40.5C40.2239 23 40 22.7761 40 22.5V21.5C40 21.2239 40.2239 21 40.5 21H43C43.5523 21 44 21.4477 44 22V28C44 36.5007 37.3707 43.4515 29 43.9678V47.0439C31.5512 47.264 33.8658 48.3166 35.667 49.9287C35.8788 50.1184 36 50.3895 36 50.6738V53C36 53.5523 35.5523 54 35 54H21C20.4477 54 20 53.5523 20 53V50.6738C20 50.3895 20.1212 50.1184 20.333 49.9287C22.1342 48.3166 24.4488 47.264 27 47.0439V43.9678C18.6293 43.4515 12 36.5007 12 28V22C12 21.4477 12.4477 21 13 21H15.5ZM28 49C25.7238 49 23.6363 49.7992 22 51.1338V52H34V51.1338C32.3637 49.7992 30.2762 49 28 49Z" fill="oklch(0.3523 0 0 / 1)" class="wd-expressive-fill"></path>
<path d="M23.5 18C23.7761 18 24 18.2239 24 18.5V20.5C24 20.7761 23.7761 21 23.5 21H22.5C22.2239 21 22 20.7761 22 20.5V18.5C22 18.2239 22.2239 18 22.5 18H23.5Z" fill="oklch(0.3523 0 0 / 1)" class="wd-expressive-fill"></path>
<path d="M28.5 18C28.7761 18 29 18.2239 29 18.5V20.5C29 20.7761 28.7761 21 28.5 21H27.5C27.2239 21 27 20.7761 27 20.5V18.5C27 18.2239 27.2239 18 27.5 18H28.5Z" fill="oklch(0.3523 0 0 / 1)" class="wd-expressive-fill"></path>
<path d="M33.5 18C33.7761 18 34 18.2239 34 18.5V20.5C34 20.7761 33.7761 21 33.5 21H32.5C32.2239 21 32 20.7761 32 20.5V18.5C32 18.2239 32.2239 18 32.5 18H33.5Z" fill="oklch(0.3523 0 0 / 1)" class="wd-expressive-fill"></path>
<path d="M23.5 13C23.7761 13 24 13.2239 24 13.5V15.5C24 15.7761 23.7761 16 23.5 16H22.5C22.2239 16 22 15.7761 22 15.5V13.5C22 13.2239 22.2239 13 22.5 13H23.5Z" fill="oklch(0.3523 0 0 / 1)" class="wd-expressive-fill"></path>
<path d="M28.5 13C28.7761 13 29 13.2239 29 13.5V15.5C29 15.7761 28.7761 16 28.5 16H27.5C27.2239 16 27 15.7761 27 15.5V13.5C27 13.2239 27.2239 13 27.5 13H28.5Z" fill="oklch(0.3523 0 0 / 1)" class="wd-expressive-fill"></path>
<path d="M33.5 13C33.7761 13 34 13.2239 34 13.5V15.5C34 15.7761 33.7761 16 33.5 16H32.5C32.2239 16 32 15.7761 32 15.5V13.5C32 13.2239 32.2239 13 32.5 13H33.5Z" fill="oklch(0.3523 0 0 / 1)" class="wd-expressive-fill"></path>
<path d="M23.1895 7.89648C23.3847 7.70163 23.7013 7.70147 23.8965 7.89648L24.6035 8.60352C24.7987 8.79866 24.7984 9.11526 24.6035 9.31055L24.5859 9.32812C24.2113 9.70296 24.0002 10.2122 24 10.7422C24 10.8845 23.8845 10.9999 23.7422 11H22.2578C22.1154 11 22 10.8846 22 10.7422C22.0002 9.6818 22.4222 8.66397 23.1719 7.91406L23.1895 7.89648Z" fill="oklch(0.3523 0 0 / 1)" class="wd-expressive-fill"></path>
<path d="M28.5 8C28.7761 8 29 8.22386 29 8.5V10.5C29 10.7761 28.7761 11 28.5 11H27.5C27.2239 11 27 10.7761 27 10.5V8.5C27 8.22386 27.2239 8 27.5 8H28.5Z" fill="oklch(0.3523 0 0 / 1)" class="wd-expressive-fill"></path>
<path d="M32.1035 7.89648C32.2988 7.70125 32.6153 7.7013 32.8105 7.89648L32.8281 7.91406C33.5781 8.66409 33.9999 9.68152 34 10.7422C34 10.8846 33.8846 11 33.7422 11H32.2578C32.1155 11 32 10.8845 32 10.7422C31.9999 10.212 31.789 9.70308 31.4141 9.32812L31.3965 9.31055C31.2013 9.1153 31.2013 8.79876 31.3965 8.60352L32.1035 7.89648Z" fill="oklch(0.3523 0 0 / 1)" class="wd-expressive-fill"></path>
<path d="M28 2C33.5228 2 38 6.47715 38 12V28C38 33.5228 33.5228 38 28 38C22.4772 38 18 33.5228 18 28V12C18 6.47715 22.4772 2 28 2ZM20 28C20 32.4183 23.5817 36 28 36C32.4183 36 36 32.4183 36 28V25H20V28ZM28 4C23.5817 4 20 7.58172 20 12V23H36V12C36 7.58172 32.4183 4 28 4Z" fill="oklch(0.3523 0 0 / 1)" class="wd-expressive-fill"></path>
</g>
</svg>