<svg role="presentation" width="56" height="56" viewBox="0 0 56 56" xmlns="http://www.w3.org/2000/svg" class="wd-expressive wd-expressive-easel-chart-search">
<g>
<path d="M51.9995 42H42.8794L45.5962 48.6211C45.8655 49.2789 45.3814 50 44.6704 50H42.5093C42.1038 49.9999 41.7385 49.7549 41.5845 49.3799L38.5571 42H17.4438L14.4165 49.3799C14.2625 49.7548 13.897 49.9998 13.4917 50H11.3286C10.6179 49.9997 10.1345 49.2788 10.4038 48.6211L13.1206 42H3.99951V39H51.9995V42Z" fill="oklch(0.3057 0.079 256.22 / 0.13)" class="wd-expressive-accent"></path>
<path d="M19.9995 31H12.9995V26H19.9995V31Z" fill="oklch(0.3057 0.079 256.22 / 0.13)" class="wd-expressive-accent"></path>
<path d="M31.8765 19.875C31.3201 20.7851 30.9995 21.8552 30.9995 23C30.9995 26.3136 33.6859 28.9999 36.9995 29C38.1437 29 39.2127 28.6788 40.1226 28.123C39.0687 29.848 37.1689 31 34.9995 31C31.6859 30.9999 28.9995 28.3136 28.9995 25C28.9995 22.8302 30.151 20.9288 31.8765 19.875Z" fill="oklch(0.3057 0.079 256.22 / 0.13)" class="wd-expressive-accent"></path>
<path d="M33.9995 16.0566C30.8957 16.3999 28.2689 18.3205 26.937 21H12.9995V16H33.9995V16.0566Z" fill="oklch(0.3057 0.079 256.22 / 0.13)" class="wd-expressive-accent"></path>
<path d="M40.9995 9H14.9995V5.99902H40.9995V9Z" fill="oklch(0.3057 0.079 256.22 / 0.13)" class="wd-expressive-accent"></path>
</g>
<g>
<path d="M35 18C38.866 18 42 21.134 42 25C42 26.5723 41.4807 28.0228 40.6055 29.1914L44.8535 33.4395C45.0487 33.6347 45.0486 33.9512 44.8535 34.1465L44.1465 34.8535C43.9512 35.0488 43.6347 35.0488 43.4395 34.8535L39.1914 30.6055C38.0228 31.4807 36.5723 32 35 32C31.134 32 28 28.866 28 25C28 21.134 31.134 18 35 18ZM35 20C32.2386 20 30 22.2386 30 25C30 27.7614 32.2386 30 35 30C37.7614 30 40 27.7614 40 25C40 22.2386 37.7614 20 35 20Z" fill="oklch(0.3523 0 0 / 1)" class="wd-expressive-fill"></path>
<path d="M34.5 15C34.7761 15 35 15.2239 35 15.5V16.5C35 16.7761 34.7761 17 34.5 17H14V20H26.5C26.7761 20 27 20.2239 27 20.5V21.5C27 21.7761 26.7761 22 26.5 22H25V26C25 26.5523 24.5523 27 24 27H21V31C21 31.5177 20.6067 31.9438 20.1025 31.9951L20 32H13C12.4477 32 12 31.5523 12 31V16C12 15.7348 12.1054 15.4805 12.293 15.293C12.4805 15.1054 12.7348 15 13 15H34.5ZM14 30H19V27H14V30ZM14 25H23V22H14V25Z" fill="oklch(0.3523 0 0 / 1)" class="wd-expressive-fill"></path>
<path d="M41 5C41.5522 5 41.9999 5.44778 42 6V7H50.5C51.3284 7 51.9999 7.67164 52 8.5V38L52.1025 38.0049C52.6066 38.0562 52.9999 38.4824 53 39V42C52.9997 42.552 52.5521 43 52 43H44.3711L46.5215 48.2412C47.0609 49.5569 46.0939 50.9996 44.6719 51H42.5098C41.6988 50.9997 40.9681 50.5091 40.6602 49.7588L37.8867 43H18.1152L15.3428 49.7588C15.0348 50.5092 14.3033 50.9998 13.4922 51H11.3301C9.90805 50.9997 8.94015 49.5569 9.47949 48.2412L11.6299 43H4C3.44793 43 3.00034 42.552 3 42V39C3.00007 38.4824 3.39341 38.0562 3.89746 38.0049L4 38V8.5C4.00008 7.67164 4.67162 7 5.5 7H14V6C14.0001 5.44778 14.4478 5 15 5H41ZM11.3301 49H13.4922L15.9541 43H13.792L11.3301 49ZM42.5098 49H44.6719L42.21 43H40.0479L42.5098 49ZM5 41H51V40H5V41ZM6 38H50V9H42L41.9951 9.10156C41.9439 9.60586 41.5178 10 41 10H15C14.4822 10 14.0561 9.60586 14.0049 9.10156L14 9H6V38ZM16 8H40V7H16V8Z" fill="oklch(0.3523 0 0 / 1)" class="wd-expressive-fill"></path>
</g>
</svg>