<svg role="presentation" width="56" height="56" viewBox="0 0 56 56" xmlns="http://www.w3.org/2000/svg" class="wd-expressive wd-expressive-folder-user-receipt">
<g>
<path d="M13 24H9.5C9.22399 24 9.00021 24.224 9 24.5V43C9 44.9032 8.40951 46.6692 7.40137 48.123C7.15517 48.4782 7.39495 49 7.82715 49H5.5C5.22386 49 5 48.7761 5 48.5V13.5C5.00021 13.224 5.22399 13 5.5 13H13V24Z" fill="oklch(0.3057 0.079 256.22 / 0.13)" class="wd-expressive-accent"></path>
<path d="M27 40C29.6892 40 32.1424 41.0112 34 42.6738V44H22V41.2666C23.4868 40.4597 25.1895 40 27 40Z" fill="oklch(0.3057 0.079 256.22 / 0.13)" class="wd-expressive-accent"></path>
<path d="M27 31C28.6569 31 30 32.3431 30 34C30 34.3028 29.9535 34.5946 29.8701 34.8701C29.5946 34.9535 29.3028 35 29 35C27.3431 35 26 33.6569 26 32C26 31.697 26.0454 31.4046 26.1289 31.1289C26.4046 31.0454 26.697 31 27 31Z" fill="oklch(0.3057 0.079 256.22 / 0.13)" class="wd-expressive-accent"></path>
<path d="M46.5 18C46.776 18 46.9998 18.224 47 18.5V24H37V18H46.5Z" fill="oklch(0.3057 0.079 256.22 / 0.13)" class="wd-expressive-accent"></path>
</g>
<g>
<path d="M29 36.9994C31.9447 36.9994 34.6331 38.1078 36.667 39.9281C36.8788 40.1178 36.9999 40.3889 37 40.6732V43.9994C37 44.5517 36.5523 44.9994 36 44.9994H22C21.4477 44.9994 21 44.5517 21 43.9994V40.6732C21.0001 40.3889 21.1212 40.1178 21.333 39.9281C23.3669 38.1078 26.0553 36.9994 29 36.9994ZM29 38.9994C26.7239 38.9994 24.6362 39.7986 23 41.1332V42.9994H35V41.1332C33.3638 39.7986 31.2761 38.9994 29 38.9994Z" fill="oklch(0.3523 0 0 / 1)" class="wd-expressive-fill"></path>
<path d="M29 27.9994C31.2091 27.9994 32.9999 29.7904 33 31.9994C33 34.2085 31.2091 35.9994 29 35.9994C26.7909 35.9994 25 34.2085 25 31.9994C25.0001 29.7904 26.7909 27.9994 29 27.9994ZM29 29.9994C27.8955 29.9994 27.0001 30.8949 27 31.9994C27 33.104 27.8954 33.9994 29 33.9994C30.1046 33.9994 31 33.104 31 31.9994C30.9999 30.8949 30.1045 29.9994 29 29.9994Z" fill="oklch(0.3523 0 0 / 1)" class="wd-expressive-fill"></path>
<path d="M26.5 15.9984C26.7761 15.9984 26.9999 16.2224 27 16.4984V17.4984C27 17.7746 26.7761 17.9984 26.5 17.9984H17.5C17.2239 17.9984 17 17.7746 17 17.4984V16.4984C17.0001 16.2224 17.2239 15.9984 17.5 15.9984H26.5Z" fill="oklch(0.3523 0 0 / 1)" class="wd-expressive-fill"></path>
<path d="M32.5 11.9984C32.7761 11.9984 32.9999 12.2224 33 12.4984V13.4984C33 13.7746 32.7761 13.9984 32.5 13.9984H17.5C17.2239 13.9984 17 13.7746 17 13.4984V12.4984C17.0001 12.2224 17.2239 11.9984 17.5 11.9984H32.5Z" fill="oklch(0.3523 0 0 / 1)" class="wd-expressive-fill"></path>
<path d="M28.252 4.27577C28.7148 4.00964 29.2852 4.00964 29.748 4.27577L32.999 6.14686L35.752 4.56288C36.7519 3.98799 37.9999 4.71028 38 5.86366V16.9994H45C46.6568 16.9994 47.9999 18.3426 48 19.9994V22.9994H49C50.6566 22.9996 51.9999 24.3427 52 25.9994V42.9994C52 45.2024 51.2864 47.2418 50.0781 48.8949C49.5234 49.6538 48.6462 49.9993 47.8145 49.9994H7C5.34315 49.9994 4 48.6562 4 46.9994V14.9994C4.00012 13.3426 5.34322 11.9994 7 11.9994H12V5.86366C12.0001 4.71027 13.2481 3.988 14.248 4.56288L17 6.14686L20.252 4.27577C20.7148 4.00964 21.2852 4.00964 21.748 4.27577L25 6.14686L28.252 4.27577ZM11 24.9994C10.4479 24.9996 10.0001 25.4473 10 25.9994V42.9994C10 44.8206 9.51039 46.5282 8.65918 47.9994H47.8145C48.1198 47.9993 48.3462 47.8745 48.4629 47.7152C49.3689 46.4757 49.927 44.9663 49.9932 43.3285L50 42.9994V25.9994C49.9999 25.4473 49.5521 24.9996 49 24.9994H11ZM7 13.9994C6.44779 13.9994 6.00012 14.4472 6 14.9994V46.9994C6 47.3264 6.15776 47.6158 6.40039 47.7982C7.33352 46.5561 7.91361 45.0352 7.99121 43.3812L8 42.9994V25.9994C8.0001 24.3427 9.34335 22.9996 11 22.9994H12V13.9994H7ZM25.748 8.02284L25.5693 8.11073C25.2048 8.26029 24.7952 8.26029 24.4307 8.11073L24.252 8.02284L21 6.15272L17.748 8.02284L17.5693 8.11073C17.2048 8.26029 16.7952 8.26029 16.4307 8.11073L16.252 8.02284L14 6.72889V22.9994H36V6.72889L33.748 8.02284L33.5693 8.11073C33.2048 8.26029 32.7952 8.26029 32.4307 8.11073L32.252 8.02284L29 6.15272L25.748 8.02284ZM38 22.9994H46V19.9994C45.9999 19.4472 45.5522 18.9994 45 18.9994H38V22.9994Z" fill="oklch(0.3523 0 0 / 1)" class="wd-expressive-fill"></path>
</g>
</svg>