<svg role="presentation" width="56" height="56" viewBox="0 0 56 56" xmlns="http://www.w3.org/2000/svg" class="wd-expressive wd-expressive-easel-scatter-chart">
<g>
<path d="M52 42H42.8799L45.5967 48.6211C45.866 49.2789 45.3818 50 44.6709 50H42.5098C42.1043 49.9999 41.739 49.7549 41.585 49.3799L38.5576 42H17.4443L14.417 49.3799C14.263 49.7548 13.8975 49.9998 13.4922 50H11.3291C10.6184 49.9997 10.135 49.2788 10.4043 48.6211L13.1211 42H4V39H52V42Z" fill="oklch(0.3057 0.079 256.22 / 0.13)" class="wd-expressive-accent"></path>
<path d="M13 29C14.1046 29 15 29.8954 15 31C15 32.1046 14.1046 33 13 33C11.8955 32.9999 11 32.1045 11 31C11 29.8955 11.8955 29.0001 13 29Z" fill="oklch(0.3057 0.079 256.22 / 0.13)" class="wd-expressive-accent"></path>
<path d="M29 28C30.1046 28 31 28.8954 31 30C31 31.1046 30.1046 32 29 32C27.8955 31.9999 27 31.1045 27 30C27 28.8955 27.8955 28.0001 29 28Z" fill="oklch(0.3057 0.079 256.22 / 0.13)" class="wd-expressive-accent"></path>
<path d="M22 27C23.1046 27 24 27.8954 24 29C24 30.1046 23.1046 31 22 31C20.8955 30.9999 20 30.1045 20 29C20 27.8955 20.8955 27.0001 22 27Z" fill="oklch(0.3057 0.079 256.22 / 0.13)" class="wd-expressive-accent"></path>
<path d="M18 22C19.1046 22 20 22.8954 20 24C20 25.1046 19.1046 26 18 26C16.8955 25.9999 16 25.1045 16 24C16 22.8955 16.8955 22.0001 18 22Z" fill="oklch(0.3057 0.079 256.22 / 0.13)" class="wd-expressive-accent"></path>
<path d="M32 22C33.1046 22 34 22.8954 34 24C34 25.1046 33.1046 26 32 26C30.8955 25.9999 30 25.1045 30 24C30 22.8955 30.8955 22.0001 32 22Z" fill="oklch(0.3057 0.079 256.22 / 0.13)" class="wd-expressive-accent"></path>
<path d="M40 22C41.1046 22 42 22.8954 42 24C42 25.1046 41.1046 26 40 26C38.8955 25.9999 38 25.1045 38 24C38 22.8955 38.8955 22.0001 40 22Z" fill="oklch(0.3057 0.079 256.22 / 0.13)" class="wd-expressive-accent"></path>
<path d="M25 21C26.1046 21 27 21.8954 27 23C27 24.1046 26.1046 25 25 25C23.8955 24.9999 23 24.1045 23 23C23 21.8955 23.8955 21.0001 25 21Z" fill="oklch(0.3057 0.079 256.22 / 0.13)" class="wd-expressive-accent"></path>
<path d="M36 16C37.1046 16 38 16.8954 38 18C38 19.1046 37.1046 20 36 20C34.8955 19.9999 34 19.1045 34 18C34 16.8955 34.8955 16.0001 36 16Z" fill="oklch(0.3057 0.079 256.22 / 0.13)" class="wd-expressive-accent"></path>
<path d="M29 15C30.1046 15 31 15.8954 31 17C31 18.1046 30.1046 19 29 19C27.8955 18.9999 27 18.1045 27 17C27 15.8955 27.8955 15.0001 29 15Z" fill="oklch(0.3057 0.079 256.22 / 0.13)" class="wd-expressive-accent"></path>
<path d="M43 14C44.1046 14 45 14.8954 45 16C45 17.1046 44.1046 18 43 18C41.8955 17.9999 41 17.1045 41 16C41 14.8955 41.8955 14.0001 43 14Z" fill="oklch(0.3057 0.079 256.22 / 0.13)" class="wd-expressive-accent"></path>
<path d="M41 9H15V6H41V9Z" fill="oklch(0.3057 0.079 256.22 / 0.13)" class="wd-expressive-accent"></path>
</g>
<g>
<path d="M13 28C14.6569 28 16 29.3431 16 31C16 32.6569 14.6569 34 13 34C11.3431 34 10 32.6569 10 31C10 29.3431 11.3431 28 13 28ZM13 30C12.4477 30 12 30.4477 12 31C12 31.5523 12.4477 32 13 32C13.5523 32 14 31.5523 14 31C14 30.4477 13.5523 30 13 30Z" fill="oklch(0.3523 0 0 / 1)" class="wd-expressive-fill"></path>
<path d="M29 27C30.6569 27 32 28.3431 32 30C32 31.6569 30.6569 33 29 33C27.3431 33 26 31.6569 26 30C26 28.3431 27.3431 27 29 27ZM29 29C28.4477 29 28 29.4477 28 30C28 30.5523 28.4477 31 29 31C29.5523 31 30 30.5523 30 30C30 29.4477 29.5523 29 29 29Z" fill="oklch(0.3523 0 0 / 1)" class="wd-expressive-fill"></path>
<path d="M22 26C23.6569 26 25 27.3431 25 29C25 30.6569 23.6569 32 22 32C20.3431 32 19 30.6569 19 29C19 27.3431 20.3431 26 22 26ZM22 28C21.4477 28 21 28.4477 21 29C21 29.5523 21.4477 30 22 30C22.5523 30 23 29.5523 23 29C23 28.4477 22.5523 28 22 28Z" fill="oklch(0.3523 0 0 / 1)" class="wd-expressive-fill"></path>
<path d="M18 21C19.6569 21 21 22.3431 21 24C21 25.6569 19.6569 27 18 27C16.3431 27 15 25.6569 15 24C15 22.3431 16.3431 21 18 21ZM18 23C17.4477 23 17 23.4477 17 24C17 24.5523 17.4477 25 18 25C18.5523 25 19 24.5523 19 24C19 23.4477 18.5523 23 18 23Z" fill="oklch(0.3523 0 0 / 1)" class="wd-expressive-fill"></path>
<path d="M32 21C33.6569 21 35 22.3431 35 24C35 25.6569 33.6569 27 32 27C30.3431 27 29 25.6569 29 24C29 22.3431 30.3431 21 32 21ZM32 23C31.4477 23 31 23.4477 31 24C31 24.5523 31.4477 25 32 25C32.5523 25 33 24.5523 33 24C33 23.4477 32.5523 23 32 23Z" fill="oklch(0.3523 0 0 / 1)" class="wd-expressive-fill"></path>
<path d="M40 21C41.6569 21 43 22.3431 43 24C43 25.6569 41.6569 27 40 27C38.3431 27 37 25.6569 37 24C37 22.3431 38.3431 21 40 21ZM40 23C39.4477 23 39 23.4477 39 24C39 24.5523 39.4477 25 40 25C40.5523 25 41 24.5523 41 24C41 23.4477 40.5523 23 40 23Z" fill="oklch(0.3523 0 0 / 1)" class="wd-expressive-fill"></path>
<path d="M25 20C26.6569 20 28 21.3431 28 23C28 24.6569 26.6569 26 25 26C23.3431 26 22 24.6569 22 23C22 21.3431 23.3431 20 25 20ZM25 22C24.4477 22 24 22.4477 24 23C24 23.5523 24.4477 24 25 24C25.5523 24 26 23.5523 26 23C26 22.4477 25.5523 22 25 22Z" fill="oklch(0.3523 0 0 / 1)" class="wd-expressive-fill"></path>
<path d="M36 15C37.6569 15 39 16.3431 39 18C39 19.6569 37.6569 21 36 21C34.3431 21 33 19.6569 33 18C33 16.3431 34.3431 15 36 15ZM36 17C35.4477 17 35 17.4477 35 18C35 18.5523 35.4477 19 36 19C36.5523 19 37 18.5523 37 18C37 17.4477 36.5523 17 36 17Z" fill="oklch(0.3523 0 0 / 1)" class="wd-expressive-fill"></path>
<path d="M29 14C30.6569 14 32 15.3431 32 17C32 18.6569 30.6569 20 29 20C27.3431 20 26 18.6569 26 17C26 15.3431 27.3431 14 29 14ZM29 16C28.4477 16 28 16.4477 28 17C28 17.5523 28.4477 18 29 18C29.5523 18 30 17.5523 30 17C30 16.4477 29.5523 16 29 16Z" fill="oklch(0.3523 0 0 / 1)" class="wd-expressive-fill"></path>
<path d="M44 13C45.6569 13 47 14.3431 47 16C47 17.6569 45.6569 19 44 19C42.3431 19 41 17.6569 41 16C41 14.3431 42.3431 13 44 13ZM44 15C43.4477 15 43 15.4477 43 16C43 16.5523 43.4477 17 44 17C44.5523 17 45 16.5523 45 16C45 15.4477 44.5523 15 44 15Z" fill="oklch(0.3523 0 0 / 1)" class="wd-expressive-fill"></path>
<path d="M41 5C41.5522 5 41.9999 5.44778 42 6V7H50.5C51.3284 7 51.9999 7.67164 52 8.5V38L52.1025 38.0049C52.6066 38.0562 52.9999 38.4824 53 39V42C52.9997 42.552 52.5521 43 52 43H44.3711L46.5215 48.2412C47.061 49.557 46.094 50.9997 44.6719 51H42.5098C41.6986 50.9998 40.9671 50.5092 40.6592 49.7588L37.8867 43H18.1152L15.3428 49.7588C15.0348 50.5093 14.3034 50.9999 13.4922 51H11.3291C9.90717 50.9995 8.94009 49.5569 9.47949 48.2412L11.6299 43H4C3.44793 43 3.00034 42.552 3 42V39C3.00007 38.4824 3.39341 38.0562 3.89746 38.0049L4 38V8.5C4.00008 7.67164 4.67162 7 5.5 7H14V6C14.0001 5.44778 14.4478 5 15 5H41ZM11.3291 49H13.4922L15.9541 43H13.791L11.3291 49ZM42.5098 49H44.6719L42.21 43H40.0479L42.5098 49ZM5 41H51V40H5V41ZM6 38H50V9H42L41.9951 9.10156C41.9439 9.60586 41.5178 10 41 10H15C14.4822 10 14.0561 9.60586 14.0049 9.10156L14 9H6V38ZM16 8H40V7H16V8Z" fill="oklch(0.3523 0 0 / 1)" class="wd-expressive-fill"></path>
</g>
</svg>