<svg role="presentation" width="56" height="56" viewBox="0 0 56 56" xmlns="http://www.w3.org/2000/svg" class="wd-expressive wd-expressive-flag-wave">
<path d="M13 3C14.6569 3 16 4.34315 16 6C16 7.13085 15.3733 8.11374 14.4492 8.625C14.7895 8.98357 15 9.46661 15 10V53.5C15 53.7761 14.7761 54 14.5 54H11.5C11.2239 54 11 53.7761 11 53.5V10C11 9.46686 11.2098 8.98352 11.5498 8.625C10.6261 8.11362 10 7.13054 10 6C10 4.34315 11.3431 3 13 3Z" fill="oklch(0.3057 0.079 256.22 / 0.13)" class="wd-expressive-accent"></path>
<path d="M13.0006 2C13.8808 2.00006 14.7367 2.29043 15.4352 2.82617C16.1336 3.3622 16.636 4.11438 16.8639 4.96484C17.0917 5.81521 17.0327 6.71689 16.6959 7.53027C16.4848 8.03981 16.1714 8.49636 15.7799 8.875C15.9207 9.22264 16.0006 9.60185 16.0006 10V10.2637C18.0942 9.44726 20.3714 9 22.7506 9L23.2008 9.00391C27.7895 9.08327 30.4244 10.3715 32.94 11.6016C35.456 12.8318 37.8456 14 42.2506 14L42.6363 13.9951C44.546 13.9505 46.166 13.5739 47.6402 12.9297L47.7477 12.8896C48.0018 12.8118 48.2785 12.8382 48.5152 12.9658C48.7856 13.1118 48.974 13.3739 49.026 13.6768C50.1815 20.4125 50.4474 28.3146 49.4508 35.7871C49.4061 36.122 49.1951 36.412 48.8902 36.5576C47.0571 37.4319 45.0542 37.9347 42.7213 37.9941L42.2506 38C37.3817 38 34.6578 36.6681 32.0611 35.3984C29.7024 34.2451 27.4546 33.1465 23.5533 33.0137L22.7506 33C20.3456 33 18.0623 33.5127 16.0006 34.4326V53.5C16.0006 53.7761 15.7766 53.9999 15.5006 54H14.5006C14.2244 54 14.0006 53.7761 14.0006 53.5V10C14.0006 9.4478 13.5527 9.00014 13.0006 9C12.4483 9 12.0006 9.44772 12.0006 10V53.5C12.0006 53.7761 11.7766 53.9999 11.5006 54H10.5006C10.2244 54 10.0006 53.7761 10.0006 53.5V10C10.0006 9.60204 10.0786 9.2225 10.2193 8.875C9.82817 8.49652 9.51619 8.03945 9.30527 7.53027C8.96842 6.71685 8.90944 5.81526 9.1373 4.96484C9.36521 4.11434 9.86745 3.3622 10.566 2.82617C11.2645 2.29046 12.1203 2 13.0006 2ZM22.7506 11C21.0777 11 19.4634 11.2474 17.942 11.708C18.0613 11.9035 18.1746 12.1087 18.2789 12.3223C18.6403 13.0622 18.9501 13.9624 19.2037 14.9814C19.7108 17.019 19.9863 19.5059 19.9996 22.0566C20.0129 24.6079 19.7632 27.1208 19.2789 29.2061C19.0847 30.042 18.8523 30.8023 18.5885 31.4678C19.9271 31.1616 21.3205 31 22.7506 31C27.6195 31.0001 30.3433 32.3319 32.94 33.6016C35.456 34.8318 37.8456 36 42.2506 36L42.6676 35.9951C44.5168 35.9484 46.0951 35.5875 47.5348 34.9736C48.3638 28.3169 48.1793 21.3282 47.2496 15.2197C45.8575 15.6873 44.3563 15.9558 42.6861 15.9951L42.2506 16C37.3817 16 34.6578 14.6681 32.0611 13.3984C29.5451 12.1682 27.1555 11 22.7506 11ZM16.0006 12.4326V32.0918C16.1766 31.868 16.3718 31.5501 16.568 31.1182C16.8488 30.4998 17.1095 29.7059 17.3307 28.7539C17.7732 26.8487 18.0132 24.4951 18.0006 22.0674C17.988 19.6392 17.7239 17.315 17.2633 15.4639C17.033 14.5388 16.7651 13.7798 16.482 13.2002C16.3187 12.8658 16.1593 12.6126 16.0152 12.4258C16.0103 12.428 16.0055 12.4304 16.0006 12.4326ZM13.0006 4C12.5604 4 12.1321 4.14515 11.7828 4.41309C11.4336 4.68109 11.1829 5.05721 11.0689 5.48242C10.955 5.90769 10.9844 6.35887 11.1529 6.76562C11.2469 6.99247 11.3819 7.19789 11.5484 7.37402C11.9786 7.13565 12.4739 7 13.0006 7C13.5267 7.00004 14.0209 7.13607 14.4508 7.37402C14.6177 7.19771 14.7541 6.99282 14.8482 6.76562C15.0167 6.35892 15.0461 5.90764 14.9322 5.48242C14.8183 5.05725 14.5675 4.68109 14.2184 4.41309C13.8691 4.14512 13.4408 4.00006 13.0006 4Z" fill="oklch(0.3523 0 0 / 1)" class="wd-expressive-fill"></path>
</svg>