<svg role="presentation" width="56" height="56" viewBox="0 0 56 56" xmlns="http://www.w3.org/2000/svg" class="wd-expressive wd-expressive-check">
<path d="M47.5253 11.2322C47.7205 11.0372 48.0371 11.0372 48.2324 11.2322L51.7675 14.7674C51.9627 14.9626 51.9627 15.2791 51.7675 15.4744L21.621 45.6209C20.4495 46.7925 18.5504 46.7924 17.3789 45.6209L3.23237 31.4744C3.03714 31.2791 3.03712 30.9626 3.23237 30.7674L5.30366 28.6961L17.6826 41.075C18.6589 42.0513 20.2414 42.0513 21.2177 41.075L49.0429 13.2498L47.2753 11.4822L47.5253 11.2322Z" fill="oklch(0.3057 0.079 256.22 / 0.13)" class="wd-expressive-accent"></path>
<path d="M46.9321 10.4216C47.4816 9.97353 48.2756 9.97328 48.8256 10.4216L48.9399 10.5251L52.475 14.0602C53.0236 14.6093 53.0578 15.478 52.5776 16.0671L52.475 16.1813L22.3286 46.3278C20.8153 47.8411 18.3918 47.8875 16.8217 46.4694L16.6723 46.3278L13.3305 42.986C13.3265 42.9822 13.3219 42.9784 13.3178 42.9743L2.52484 32.1813C1.93957 31.5955 1.9397 30.6458 2.52484 30.0602L6.06 26.5251L6.17328 26.4216C6.72315 25.9732 7.51715 25.9736 8.06684 26.4216L8.18109 26.5251L14.8178 33.1618C14.8211 33.165 14.8252 33.1683 14.8286 33.1716L19.5004 37.8434L46.8188 10.5251L46.9321 10.4216ZM20.2075 39.9645C19.817 40.355 19.1839 40.3548 18.7934 39.9645L13.4233 34.5944C13.4202 34.5914 13.4166 34.5887 13.4135 34.5856L7.12055 28.2927L4.29242 31.1208L14.7172 41.5456L14.728 41.5554L18.0864 44.9138C18.8676 45.6944 20.1338 45.6945 20.9145 44.9138L50.7075 15.1208L47.8793 12.2927L20.2075 39.9645ZM13.4379 43.0768C13.4399 43.0783 13.4419 43.08 13.4428 43.0808C13.442 43.0802 13.4387 43.0773 13.434 43.0739L13.4164 43.0612C13.4255 43.0682 13.4336 43.0737 13.4379 43.0768ZM13.3803 43.0319C13.3857 43.0365 13.3911 43.0407 13.3959 43.0446C13.388 43.0382 13.3791 43.0304 13.3696 43.0222L13.3803 43.0319ZM14.6772 41.5095C14.6832 41.5146 14.6899 41.5209 14.6967 41.527C14.6912 41.522 14.6861 41.5168 14.6811 41.5124C14.6664 41.4997 14.6532 41.4891 14.643 41.4811L14.6401 41.4792C14.6499 41.4868 14.6628 41.4972 14.6772 41.5095Z" fill="oklch(0.3523 0 0 / 1)" class="wd-expressive-fill"></path>
</svg>