<svg role="presentation" width="56" height="56" viewBox="0 0 56 56" xmlns="http://www.w3.org/2000/svg" class="wd-expressive wd-expressive-hands-heart">
<g>
<path d="M5.14722 18.9277C5.71279 18.8642 6.29056 18.8891 6.85816 19.0049L9.66284 32.5156C9.67768 32.6237 9.72728 32.7246 9.80444 32.8018L19.7488 42.7451C21.1223 44.1188 21.5757 46.1647 20.9119 47.9902L19.8914 51.8662C18.6329 51.7853 18.0652 51.6801 17.5984 51.5801C17.296 51.5153 17.1156 51.1951 17.2205 50.9043L17.9119 48.9922C18.5757 47.1667 18.1221 45.1217 16.7488 43.748L6.80444 33.8037C6.72725 33.7265 6.67766 33.6257 6.66284 33.5176L4.74683 19.4668C4.71114 19.2051 4.88482 18.9574 5.14722 18.9277Z" fill="oklch(0.3057 0.079 256.22 / 0.13)" class="wd-expressive-accent"></path>
<path d="M49.1384 19.0049C49.706 18.8891 50.2838 18.8642 50.8494 18.9277C51.1117 18.9574 51.2854 19.2051 51.2498 19.4668L49.3337 33.5176C49.3189 33.6258 49.2694 33.7265 49.1921 33.8037L39.2478 43.748C37.8745 45.1216 37.4211 47.1668 38.0847 48.9922L38.7761 50.9043C38.881 51.1951 38.7005 51.5153 38.3982 51.5801C37.9314 51.6801 37.3636 51.7853 36.1052 51.8662L35.0847 47.9902C34.421 46.1647 34.8743 44.1187 36.2478 42.7451L46.1921 32.8018C46.2693 32.7246 46.3189 32.6238 46.3337 32.5156L49.1384 19.0049Z" fill="oklch(0.3057 0.079 256.22 / 0.13)" class="wd-expressive-accent"></path>
<path d="M18.9255 7.93555C17.4061 10.3886 17.7522 13.6994 20.0154 15.7676L29.9998 24.8916L38.8171 16.834C38.576 17.1648 38.3005 17.4794 37.9851 17.7676L28.3367 26.583C28.1458 26.7573 27.8528 26.7572 27.6619 26.583L18.0154 17.7676C15.2433 15.2344 15.3457 10.8365 18.2322 8.43457C18.4548 8.24934 18.6873 8.08417 18.9255 7.93555Z" fill="oklch(0.3057 0.079 256.22 / 0.13)" class="wd-expressive-accent"></path>
</g>
<g>
<path d="M5.03483 17.9363C6.44049 17.7783 7.90973 18.0762 9.20183 18.8835C10.663 19.7966 11.6375 21.1973 12.0436 22.741L12.0602 22.8025L12.0671 22.865L12.3581 25.0652C12.9607 24.2708 13.8635 24.0258 14.6803 24.1628C15.4713 24.2958 16.2056 24.779 16.6794 25.4636C17.483 26.6249 18.7098 28.2265 20.32 29.8367C22.4728 31.9895 24.643 33.7242 25.7809 34.5925C26.5329 35.1667 27.0019 36.0641 27.0016 37.0369L26.9997 51.5007C26.9995 51.7766 26.7756 52.0006 26.4997 52.0007H25.4997C25.2238 52.0006 24.9999 51.7766 24.9997 51.5007V42.5007C24.9997 42.4992 25.0005 42.4973 25.0007 42.4958L25.0016 37.0349C25.0014 36.7123 24.8436 36.3932 24.5661 36.1814C23.389 35.2832 21.1444 33.4892 18.9059 31.2507C17.1901 29.5349 15.8879 27.8341 15.0348 26.6013C14.8487 26.3324 14.574 26.1734 14.3483 26.1355C14.1544 26.1031 14.0387 26.1554 13.9479 26.2771C13.5812 26.7689 13.2987 27.3387 13.1286 27.9724C12.9865 28.5023 12.9351 29.0333 12.9645 29.5505L18.3532 34.9412C18.5483 35.1364 18.5483 35.453 18.3532 35.6482L17.6462 36.3552C17.4509 36.5501 17.1343 36.5502 16.9391 36.3552L11.4157 30.8318C11.3868 30.8029 11.3593 30.7723 11.3327 30.741C11.1457 30.5216 11.025 30.252 10.987 29.9646L10.0954 23.199C9.80602 22.1486 9.13842 21.2014 8.14226 20.5789C7.41584 20.125 6.61122 19.9043 5.81413 19.8953L7.63054 33.2166L17.4548 43.0417C19.1029 44.6899 19.6475 47.1442 18.8512 49.3347L18.11 51.3728C18.0155 51.632 17.7278 51.766 17.4684 51.6716L16.529 51.3298C16.2701 51.2353 16.1363 50.9483 16.2301 50.6892L16.9714 48.6511C17.5021 47.1908 17.1393 45.5545 16.0407 44.4558L13.6462 42.0613V42.0593L6.09733 34.5115C5.86568 34.2798 5.71595 33.9786 5.67155 33.6541L3.75456 19.6033C3.65074 18.8419 4.15954 18.0351 5.03483 17.9363Z" fill="oklch(0.3523 0 0 / 1)" class="wd-expressive-fill"></path>
<path d="M46.7975 18.8835C48.0896 18.0762 49.5589 17.7784 50.9645 17.9363C51.84 18.0349 52.3486 18.8418 52.2448 19.6033L50.3278 33.6541C50.2834 33.9786 50.1337 34.2798 49.902 34.5115L42.3532 42.0593V42.0613L39.9587 44.4558C38.8603 45.5545 38.4973 47.191 39.028 48.6511L39.7692 50.6892C39.8632 50.9484 39.7294 51.2353 39.4704 51.3298L38.5309 51.6716C38.2716 51.7657 37.9838 51.632 37.8893 51.3728L37.1481 49.3347C36.3519 47.1443 36.8967 44.6899 38.5446 43.0417L48.3688 33.2166L50.1852 19.8953C49.3882 19.9044 48.5834 20.1251 47.8571 20.5789C46.8611 21.2014 46.1933 22.1487 45.904 23.199L45.0124 29.9646C44.9743 30.252 44.8536 30.5216 44.6667 30.741C44.6401 30.7722 44.6124 30.803 44.5837 30.8318L39.0602 36.3552C38.8649 36.55 38.5483 36.5503 38.3532 36.3552L37.6462 35.6482C37.4511 35.4531 37.4513 35.1364 37.6462 34.9412L43.0348 29.5505C43.0642 29.0333 43.0129 28.5024 42.8708 27.9724C42.7006 27.3386 42.4183 26.7689 42.0514 26.2771C41.9606 26.1554 41.8451 26.103 41.651 26.1355C41.4254 26.1735 41.1506 26.3325 40.9645 26.6013C40.1114 27.8341 38.8091 29.5351 37.0934 31.2507C34.855 33.4891 32.6103 35.2832 31.4333 36.1814C31.156 36.3932 30.998 36.7125 30.9977 37.0349L30.9987 42.4949C30.9988 42.4964 30.9997 42.4982 30.9997 42.4998V51.5007C30.9993 51.7766 30.7756 52.0007 30.4997 52.0007H29.5007C29.2249 52.0006 29.001 51.7765 29.0007 51.5007V43.9998L28.9997 44.0007L28.9977 37.0369C28.9975 36.0643 29.4666 35.1668 30.2184 34.5925C31.3563 33.7242 33.5266 31.9893 35.6794 29.8367C37.2894 28.2266 38.5163 26.6249 39.32 25.4636C39.7936 24.7791 40.5281 24.2959 41.319 24.1628C42.1359 24.0257 43.0386 24.2708 43.6413 25.0652L43.9323 22.865L43.9391 22.8025L43.9557 22.741C44.3618 21.1974 45.3366 19.7966 46.7975 18.8835Z" fill="oklch(0.3523 0 0 / 1)" class="wd-expressive-fill"></path>
<path d="M27.9987 8.95191C30.4202 5.62739 35.1916 4.98982 38.4069 7.6648C41.7595 10.4545 41.8784 15.5623 38.6589 18.5046L29.0114 27.321C28.4384 27.8443 27.5598 27.8445 26.987 27.321L17.3405 18.5046C14.121 15.5624 14.2402 10.4545 17.5925 7.6648C20.8076 4.99018 25.5771 5.62815 27.9987 8.95191ZM37.1276 9.20288C34.7114 7.19259 31.0774 7.7721 29.4069 10.4343L27.9997 12.6804L26.5915 10.4343C24.9209 7.77238 21.2878 7.19288 18.8717 9.20288C16.4515 11.2171 16.3648 14.905 18.6891 17.0291L27.9987 25.5359L37.3102 17.0291C39.6346 14.9049 39.5481 11.217 37.1276 9.20288Z" fill="oklch(0.3523 0 0 / 1)" class="wd-expressive-fill"></path>
</g>
</svg>