<svg role="presentation" width="56" height="56" viewBox="0 0 56 56" xmlns="http://www.w3.org/2000/svg" class="wd-expressive wd-expressive-certificate">
<g>
<path d="M39.6465 43.7188C39.8416 43.9134 40.1583 43.9133 40.3535 43.7188L42.0713 42.001H43.7402L44.8447 49.4551C44.906 49.8724 44.4546 50.1741 44.0928 49.957L40.2568 47.6553C40.0985 47.5603 39.9005 47.5603 39.7422 47.6553L35.9062 49.957C35.5445 50.1733 35.0931 49.8721 35.1543 49.4551L36.2588 42.001H37.9287L39.6465 43.7188Z" fill="oklch(0.3057 0.079 256.22 / 0.13)" class="wd-expressive-accent"></path>
<path d="M6.5 11C6.22386 11 6 11.2239 6 11.5V39.5C6 39.7761 6.22386 40 6.5 40H31V43H3.5C3.22386 43 3 42.7761 3 42.5V11.5C3 11.2239 3.22386 11 3.5 11H6.5Z" fill="oklch(0.3057 0.079 256.22 / 0.13)" class="wd-expressive-accent"></path>
<path d="M53 42.5C53 42.7761 52.7761 43 52.5 43H49V40H52.5C52.7761 40 53 39.7761 53 39.5V42.5Z" fill="oklch(0.3057 0.079 256.22 / 0.13)" class="wd-expressive-accent"></path>
<path d="M40 35.001C41.1046 35.001 42 35.8964 42 37.001C41.9997 38.1053 41.1044 39.001 40 39.001C38.8956 39.001 38.0003 38.1053 38 37.001C38 35.8964 38.8954 35.001 40 35.001Z" fill="oklch(0.3057 0.079 256.22 / 0.13)" class="wd-expressive-accent"></path>
</g>
<g>
<path d="M40 34.0049C41.6565 34.0052 42.9998 35.3484 43 37.0049C42.9997 38.6613 41.6564 40.0046 40 40.0049C38.3435 40.0047 37.0003 38.6613 37 37.0049C37.0002 35.3483 38.3434 34.0051 40 34.0049ZM40 36.0049C39.448 36.0051 39.0002 36.4529 39 37.0049C39.0003 37.5568 39.4481 38.0047 40 38.0049C40.5519 38.0046 40.9997 37.5567 41 37.0049C40.9998 36.4529 40.5519 36.0052 40 36.0049Z" fill="oklch(0.3523 0 0 / 1)" class="wd-expressive-fill"></path>
<path d="M38.9404 29.5801C39.4894 29.0319 40.3581 28.9967 40.9473 29.4775L41.0605 29.5801L42.4854 31.0049H44.501C45.328 31.0059 45.9998 31.6767 46 32.5049V34.5195L47.4258 35.9453C48.0089 36.5305 48.0107 37.4797 47.4258 38.0654L46 39.4902V41.5059C45.9992 42.1979 45.5284 42.778 44.8906 42.9502L45.834 49.3125C46.0188 50.5647 44.6648 51.4688 43.5791 50.8184L40 48.6699L36.4209 50.8184C35.335 51.4693 33.9811 50.5649 34.166 49.3125L35.1074 42.9502C34.4699 42.7776 34.0008 42.1971 34 41.5059V39.4902L32.5752 38.0654C31.9896 37.4795 31.9907 36.5307 32.5752 35.9453L34 34.5195V32.5049C34.0002 31.6767 34.6718 31.005 35.5 31.0049H37.5146L38.9404 29.5801ZM36.2988 48.5586L39.2285 46.8018L39.4111 46.708C39.7867 46.5477 40.2132 46.5478 40.5889 46.708L40.7715 46.8018L43.7002 48.5586L42.8779 43.0049H42.4854L41.0605 44.4297C40.4749 45.0145 39.5257 45.0138 38.9404 44.4307L37.5146 43.0049H37.1211L36.2988 48.5586ZM38.6357 32.7119C38.4484 32.8992 38.1935 33.0046 37.9287 33.0049H36V34.9336C35.9997 35.1984 35.8943 35.4533 35.707 35.6406L34.3428 37.0049L35.707 38.3691C35.8939 38.5565 35.9999 38.8115 36 39.0762V41.0049H37.9287C38.1935 41.0051 38.4484 41.1107 38.6357 41.2979L40 42.6621L41.3643 41.2979C41.5517 41.1104 41.8062 41.005 42.0713 41.0049H44V39.0762C44.0001 38.8111 44.1056 38.5566 44.293 38.3691L45.6572 37.0049L44.293 35.6406C44.1059 35.4534 44.0003 35.1983 44 34.9336V33.0049H42.0713C41.8066 33.0048 41.5516 32.8988 41.3643 32.7119L40 31.3477L38.6357 32.7119Z" fill="oklch(0.3523 0 0 / 1)" class="wd-expressive-fill"></path>
<path d="M51 10C52.6569 10 54 11.3431 54 13V41C54 42.3742 53.0751 43.5296 51.8145 43.8848C51.7283 43.9553 51.6201 44 51.5 44H49.5C49.2239 44 49 43.7761 49 43.5V42.5C49 42.2239 49.2239 42 49.5 42H51C51.5523 42 52 41.5523 52 41V13C52 12.4477 51.5523 12 51 12H5C4.44772 12 4 12.4477 4 13V41C4 41.5523 4.44772 42 5 42H30.5C30.7761 42 31 42.2239 31 42.5V43.5C31 43.7761 30.7761 44 30.5 44H5C3.34315 44 2 42.6569 2 41V13C2 11.3431 3.34315 10 5 10H51Z" fill="oklch(0.3523 0 0 / 1)" class="wd-expressive-fill"></path>
<path d="M17.5 36C17.7761 36 18 36.2239 18 36.5V37.5C18 37.7761 17.7761 38 17.5 38H9.5C9.22386 38 9 37.7761 9 37.5V36.5C9 36.2239 9.22386 36 9.5 36H17.5Z" fill="oklch(0.3523 0 0 / 1)" class="wd-expressive-fill"></path>
<path d="M17.5 32C17.7761 32 18 32.2239 18 32.5V33.5C18 33.7761 17.7761 34 17.5 34H9.5C9.22386 34 9 33.7761 9 33.5V32.5C9 32.2239 9.22386 32 9.5 32H17.5Z" fill="oklch(0.3523 0 0 / 1)" class="wd-expressive-fill"></path>
<path d="M40.5 22C40.7761 22 41 22.2239 41 22.5V23.5C41 23.7761 40.7761 24 40.5 24H15.5C15.2239 24 15 23.7761 15 23.5V22.5C15 22.2239 15.2239 22 15.5 22H40.5Z" fill="oklch(0.3523 0 0 / 1)" class="wd-expressive-fill"></path>
<path d="M46.5 17C46.7761 17 47 17.2239 47 17.5V18.5C47 18.7761 46.7761 19 46.5 19H9.5C9.22386 19 9 18.7761 9 18.5V17.5C9 17.2239 9.22386 17 9.5 17H46.5Z" fill="oklch(0.3523 0 0 / 1)" class="wd-expressive-fill"></path>
</g>
</svg>