<svg role="presentation" width="56" height="56" viewBox="0 0 56 56" xmlns="http://www.w3.org/2000/svg" class="wd-expressive wd-expressive-ocean">
<path d="M30.501 25.001C31.6236 25.001 32.7243 25.0952 33.7949 25.2773C32.9874 26.626 32.7913 28.0599 33.2236 29.4561C33.2964 29.6909 33.3879 29.9231 33.4951 30.1533C29.736 31.5989 26.3067 33.7894 23.5898 36.6709L23.2793 37.0059C19.3167 41.2086 13.8388 43.9395 8.03125 45.0352C5.89572 42.7296 4.33857 39.9694 3.56055 36.9375C8.12349 36.5669 12.5834 34.6373 16.0742 31.1465L16.3584 30.8584C20.2636 26.9532 25.3825 25.001 30.501 25.001Z" fill="oklch(0.3057 0.079 256.22 / 0.13)" class="wd-expressive-accent"></path>
<g>
<path d="M16.0713 36.7568C16.3236 36.6451 16.6188 36.7595 16.7373 37.0088C18.8333 41.4183 22.7472 45.3317 28.0371 48.1992C28.2794 48.3309 28.3739 48.6325 28.2461 48.877L27.7822 49.7637C27.6542 50.0079 27.3521 50.1025 27.1094 49.9717C21.4938 46.9332 17.2185 42.7116 14.9082 37.8193C14.7904 37.5697 14.9049 37.2741 15.1572 37.1621L16.0713 36.7568Z" fill="oklch(0.3523 0 0 / 1)" class="wd-expressive-fill"></path>
<path d="M21.7217 32.6074C21.9917 32.5507 22.2559 32.7234 22.3262 32.9902C23.166 36.1794 25.6243 39.2491 29.5488 41.7324C33.5526 44.2657 38.806 46.009 44.5869 46.6865C44.8608 46.7188 45.06 46.964 45.0313 47.2383L44.9258 48.2334C44.8967 48.5079 44.6502 48.7076 44.376 48.6758C38.3492 47.9722 32.7883 46.149 28.4795 43.4229C24.2362 40.7379 21.3483 37.2596 20.3672 33.4043C20.2992 33.1368 20.4731 32.8706 20.7432 32.8135L21.2324 32.71L21.7217 32.6074Z" fill="oklch(0.3523 0 0 / 1)" class="wd-expressive-fill"></path>
<path d="M9.96875 39.5146C10.2226 39.4064 10.5159 39.5244 10.6309 39.7754C11.5704 41.8276 12.9083 43.8069 14.6211 45.6602C14.8081 45.8629 14.8015 46.1791 14.6025 46.3701L13.8809 47.0625C13.6816 47.2535 13.3644 47.2474 13.1768 47.0449C11.3104 45.0307 9.83307 42.8522 8.79102 40.5615C8.67674 40.3103 8.79513 40.0158 9.04883 39.9072L9.96875 39.5146Z" fill="oklch(0.3523 0 0 / 1)" class="wd-expressive-fill"></path>
<path d="M35.877 39.5771C35.9936 39.3272 36.2906 39.2195 36.543 39.3311C40.3152 40.999 44.8293 41.9346 49.5 41.9971C49.7758 42.001 49.9999 42.2241 50 42.5V43.5C50 43.776 49.7759 44.0003 49.5 43.9971C44.569 43.9345 39.761 42.9471 35.6992 41.1445C35.4468 41.0325 35.3386 40.7347 35.4551 40.4844L35.877 39.5771Z" fill="oklch(0.3523 0 0 / 1)" class="wd-expressive-fill"></path>
<path d="M26.7324 30.0234C27.0012 29.9621 27.2679 30.1307 27.3447 30.3955C28.0335 32.7699 29.751 35.0609 32.4229 36.9941C32.6464 37.156 32.7057 37.4666 32.5498 37.6943L31.9844 38.5195C31.8283 38.7473 31.5161 38.8058 31.292 38.6445C28.2947 36.4862 26.2189 33.8009 25.3945 30.8438C25.3207 30.578 25.489 30.3101 25.7578 30.248L26.7324 30.0234Z" fill="oklch(0.3523 0 0 / 1)" class="wd-expressive-fill"></path>
<path d="M30.501 24C33.5709 24.0001 36.4859 24.6756 39.1025 25.8867C39.3528 26.0027 39.4546 26.3033 39.333 26.5508L39.1123 27L38.8906 27.4492C38.7684 27.6966 38.4685 27.7977 38.2178 27.6826C36.9919 27.1191 35.6931 26.687 34.3398 26.4014C33.9427 27.3272 33.8987 28.2557 34.1787 29.1602C34.5286 30.2899 35.4082 31.4493 36.8691 32.5059C38.3266 33.5597 40.2731 34.4441 42.5684 35.0605C44.7127 35.6363 47.0813 35.9572 49.5 35.9961C49.7757 36.0009 49.9999 36.2242 50 36.5V37.5C50 37.7759 49.7758 37.9999 49.5 37.9961C46.9184 37.9571 44.3743 37.6164 42.0498 36.9922C39.5794 36.3287 37.3956 35.3548 35.6963 34.126C34.0005 32.8995 32.7833 31.4133 32.2686 29.751C31.8891 28.5249 31.9171 27.2815 32.3203 26.0908C31.7216 26.0324 31.1143 26.001 30.5 26.001C25.6363 26.0011 20.7754 27.8556 17.0654 31.5654L16.7871 31.8486L16.7822 31.8535C12.8274 35.8083 7.68482 37.8567 2.50391 37.9971C2.22797 38.0045 2.00303 37.7809 2.00196 37.5049L1.99805 36.5039C1.99719 36.2279 2.2202 36.0043 2.4961 35.9961C7.16771 35.8582 11.7964 34.0084 15.3623 30.4453L15.6455 30.1562L15.6514 30.1514C19.7516 26.0513 25.1283 24 30.501 24Z" fill="oklch(0.3523 0 0 / 1)" class="wd-expressive-fill"></path>
<path d="M47.2402 29.0674C47.3784 28.8284 47.6847 28.7457 47.9238 28.8838L51.3877 30.8838C51.6266 31.0219 51.7082 31.3283 51.5703 31.5674L51.0703 32.4326C50.9323 32.6716 50.6268 32.754 50.3877 32.6162L46.9238 30.6162C46.6847 30.4781 46.6022 30.1718 46.7402 29.9326L47.2402 29.0674Z" fill="oklch(0.3523 0 0 / 1)" class="wd-expressive-fill"></path>
<path d="M31.6348 9.2168C33.7366 8.82799 35.9025 8.96361 37.9395 9.61133C39.9766 10.2593 41.8233 11.4 43.3145 12.9316C44.8056 14.4634 45.8961 16.3397 46.4893 18.3936C47.0823 20.4473 47.1599 22.6162 46.7148 24.707C46.3045 26.6345 45.4609 28.4413 44.252 29.9922C44.0822 30.2099 43.7657 30.2365 43.5547 30.0586L43.1738 29.7363L42.791 29.4141C42.5801 29.236 42.5545 28.9211 42.7227 28.7021C43.7204 27.4034 44.4169 25.896 44.7588 24.29C45.1353 22.5209 45.0701 20.686 44.5684 18.9482C44.0666 17.2106 43.1434 15.6232 41.8818 14.3271C40.6201 13.0312 39.0576 12.0659 37.334 11.5176C35.6104 10.9695 33.7775 10.8547 31.999 11.1836C30.2204 11.5127 28.5492 12.2757 27.1357 13.4043C25.7224 14.533 24.609 15.9936 23.8945 17.6553C23.246 19.1637 22.9435 20.7962 23.0078 22.4326C23.0186 22.7083 22.8158 22.9499 22.541 22.9736L22.043 23.0166L21.5449 23.0586C21.2699 23.0818 21.0265 22.8773 21.0137 22.6016C20.9227 20.6373 21.2792 18.6757 22.0576 16.8652C22.902 14.9015 24.2174 13.1757 25.8877 11.8418C27.5582 10.508 29.5328 9.60575 31.6348 9.2168Z" fill="oklch(0.3523 0 0 / 1)" class="wd-expressive-fill"></path>
<path d="M18.5 21C18.776 21.0002 19 21.224 19 21.5V22.5C18.9999 22.776 18.7759 22.9998 18.5 23H14.5C14.224 22.9999 14.0001 22.776 14 22.5V21.5C14 21.2239 14.224 21.0001 14.5 21H18.5Z" fill="oklch(0.3523 0 0 / 1)" class="wd-expressive-fill"></path>
<path d="M53.5 21C53.776 21.0002 54 21.224 54 21.5V22.5C53.9999 22.776 53.7759 22.9998 53.5 23H49.5C49.2239 23 49.0001 22.7761 49 22.5V21.5C49 21.2239 49.2239 21 49.5 21H53.5Z" fill="oklch(0.3523 0 0 / 1)" class="wd-expressive-fill"></path>
<path d="M16.9297 11.5674C17.0677 11.3285 17.3733 11.2461 17.6123 11.3838L21.0772 13.3838C21.3159 13.522 21.3976 13.8284 21.2598 14.0674L20.7598 14.9326C20.6218 15.1716 20.3162 15.2538 20.0772 15.1162L16.6123 13.1162C16.3733 12.9781 16.2917 12.6717 16.4297 12.4326L16.9297 11.5674Z" fill="oklch(0.3523 0 0 / 1)" class="wd-expressive-fill"></path>
<path d="M50.3877 11.3838C50.6268 11.2461 50.9323 11.3284 51.0703 11.5674L51.5703 12.4326C51.7082 12.6716 51.6266 12.9781 51.3877 13.1162L47.9238 15.1162C47.6847 15.2543 47.3784 15.1716 47.2402 14.9326L46.7402 14.0674C46.6022 13.8282 46.6847 13.5219 46.9238 13.3838L50.3877 11.3838Z" fill="oklch(0.3523 0 0 / 1)" class="wd-expressive-fill"></path>
<path d="M24.4336 4.42969C24.6726 4.29201 24.9782 4.3734 25.1162 4.6123L27.1162 8.07617C27.2541 8.31514 27.1723 8.62159 26.9336 8.75977L26.0674 9.25977C25.8283 9.39781 25.5219 9.3152 25.3838 9.07617L23.3838 5.6123C23.2459 5.3732 23.3283 5.06771 23.5674 4.92969L24.4336 4.42969Z" fill="oklch(0.3523 0 0 / 1)" class="wd-expressive-fill"></path>
<path d="M42.8838 4.6123C43.0219 4.37331 43.3283 4.29165 43.5674 4.42969L44.4326 4.92969C44.6714 5.06776 44.754 5.3733 44.6162 5.6123L42.6162 9.07617C42.4782 9.31523 42.1717 9.39762 41.9326 9.25977L41.0674 8.75977C40.8282 8.62169 40.7457 8.31532 40.8838 8.07617L42.8838 4.6123Z" fill="oklch(0.3523 0 0 / 1)" class="wd-expressive-fill"></path>
<path d="M34.5 2C34.776 2.00019 35 2.22397 35 2.5V6.5C35 6.77602 34.776 6.99981 34.5 7H33.5C33.2239 7 33 6.77614 33 6.5V2.5C33 2.22386 33.2239 2 33.5 2H34.5Z" fill="oklch(0.3523 0 0 / 1)" class="wd-expressive-fill"></path>
</g>
</svg>