<svg role="presentation" width="56" height="56" viewBox="0 0 56 56" xmlns="http://www.w3.org/2000/svg" class="wd-expressive wd-expressive-sigma">
<path d="M14.6094 13.1738C17.1792 13.419 19.7173 13.9247 22.1846 14.6846L32.9658 26.9463L18.3418 45H44V50H12V45.4258L26.6826 27.0068L14.6094 13.1738Z" fill="oklch(0.3057 0.079 256.22 / 0.13)" class="wd-expressive-accent"></path>
<path d="M44 5C44.5521 5.00017 45 5.44782 45 6V11C45 11.5522 44.5521 11.9998 44 12H21.6562L34.2168 26.2861C34.5384 26.6522 34.5498 27.1975 34.2432 27.5762L20.9395 44H44C44.5521 44.0002 45 44.4478 45 45V50C45 50.5522 44.5521 50.9998 44 51H12C11.4477 51 11 50.5523 11 50V45.4258C11 45.1994 11.0768 44.9798 11.2178 44.8027L25.3799 27.0352L11.2471 10.8408C11.0881 10.6587 11 10.4254 11 10.1836V6C11 5.44772 11.4477 5 12 5H44ZM13 9.80859L27.4365 26.3496C27.7536 26.7135 27.7655 27.2523 27.4648 27.6299L13 45.7754V49H43V46H18.8418C18.4564 46 18.1055 45.7784 17.9395 45.4307C17.7735 45.0827 17.8218 44.6697 18.0645 44.3701L32.1572 26.9717L18.6943 11.6602C18.435 11.3652 18.3723 10.9458 18.5342 10.5879C18.6961 10.2301 19.0525 10 19.4453 10H43V7H13V9.80859Z" fill="oklch(0.3523 0 0 / 1)" class="wd-expressive-fill"></path>
</svg>