<svg role="presentation" width="56" height="56" viewBox="0 0 56 56" xmlns="http://www.w3.org/2000/svg" class="wd-expressive wd-expressive-search-user">
<g>
<path d="M18.9125 39.748L8.41253 50.248C7.63143 51.0283 6.36519 51.0288 5.5844 50.248C4.80364 49.4673 4.80416 48.201 5.5844 47.4199L16.0844 36.9199L18.9125 39.748Z" fill="oklch(0.3057 0.079 256.22 / 0.13)" class="wd-expressive-accent"></path>
<path d="M20.0893 10.5762C18.7558 13.0896 18.0004 15.9565 18.0004 19C18.0004 28.9411 26.0593 37 36.0004 37C41.6027 36.9998 46.6065 34.4393 49.9076 30.4258C46.8852 36.1203 40.8966 39.9997 34.0004 40C24.0593 40 16.0004 31.9411 16.0004 22C16.0004 17.6627 17.5342 13.6839 20.0893 10.5762Z" fill="oklch(0.3057 0.079 256.22 / 0.13)" class="wd-expressive-accent"></path>
<path d="M28.1137 24.3477C28.0411 24.4353 28.0004 24.5456 28.0004 24.6611V28.5C28.0004 28.7761 28.2243 29 28.5004 29H43.0004V30.5C43.0004 30.7759 42.7762 30.9996 42.5004 31H25.5004L25.3998 30.9902C25.1717 30.9438 25.0004 30.7418 25.0004 30.5V26.6611C25.0004 26.5189 25.0609 26.3831 25.1684 26.29C26.0564 25.5213 27.0458 24.866 28.1137 24.3477Z" fill="oklch(0.3057 0.079 256.22 / 0.13)" class="wd-expressive-accent"></path>
<path d="M32.3549 12.3545C32.1279 12.8565 32.0004 13.4132 32.0004 14C32.0004 16.2091 33.7913 18 36.0004 18C36.587 17.9999 37.144 17.8724 37.6459 17.6455C37.0184 19.0334 35.6225 19.9997 34.0004 20C31.7913 20 30.0004 18.2091 30.0004 16C30.0004 14.3776 30.9668 12.982 32.3549 12.3545Z" fill="oklch(0.3057 0.079 256.22 / 0.13)" class="wd-expressive-accent"></path>
</g>
<g>
<path d="M33.9993 22C37.6258 22 40.9434 23.3332 43.4856 25.5342C43.8191 25.823 43.9993 26.2376 43.9993 26.6611V30.5C43.9993 31.3284 43.3277 32 42.4993 32H25.4993C24.7228 31.9998 24.0839 31.4096 24.0071 30.6533L23.9993 30.5V26.6611L24.0081 26.5029C24.047 26.1359 24.2212 25.7869 24.5129 25.5342L24.9983 25.1318C27.4708 23.1718 30.5994 22.0001 33.9993 22ZM33.9993 24C30.9546 24.0001 28.1676 25.0896 25.9993 26.8984V30H41.9993V26.8984C39.8308 25.0896 37.044 24 33.9993 24Z" fill="oklch(0.3523 0 0 / 1)" class="wd-expressive-fill"></path>
<path d="M33.9993 11C36.7607 11 38.9993 13.2386 38.9993 16C38.9993 18.7614 36.7607 21 33.9993 21C31.238 20.9998 28.9993 18.7613 28.9993 16C28.9993 13.2387 31.238 11.0002 33.9993 11ZM33.9993 13C32.3426 13.0002 30.9993 14.3433 30.9993 16C30.9993 17.6567 32.3426 18.9998 33.9993 19C35.6561 19 36.9993 17.6569 36.9993 16C36.9993 14.3431 35.6561 13 33.9993 13Z" fill="oklch(0.3523 0 0 / 1)" class="wd-expressive-fill"></path>
<path d="M33.9993 3C44.4927 3 52.9993 11.5066 52.9993 22C52.9993 32.4934 44.4927 41 33.9993 41C29.1121 40.9999 24.6558 39.1548 21.2893 36.123L18.9954 38.417L19.6194 39.041C20.0099 39.4315 20.0099 40.0646 19.6194 40.4551L9.11938 50.9551L9.00707 51.0615C7.82958 52.1244 6.01203 52.0899 4.87719 50.9551C3.74248 49.8202 3.70787 48.0027 4.77075 46.8252L4.87719 46.7129L15.3772 36.2129C15.7433 35.8468 16.3223 35.8243 16.7151 36.1445L16.7913 36.2129L17.5813 37.0029L19.8762 34.708C16.8452 31.3416 14.9993 26.8866 14.9993 22C14.9993 11.5067 23.506 3.00016 33.9993 3ZM6.29125 48.127L6.22289 48.2031C5.90306 48.596 5.92568 49.1753 6.29125 49.541C6.65692 49.9067 7.2362 49.9292 7.62914 49.6094L7.70532 49.541L17.4983 39.748L16.0842 38.334L6.29125 48.127ZM33.9993 5C24.6106 5.00016 16.9993 12.6113 16.9993 22C16.9993 31.3887 24.6106 38.9998 33.9993 39C43.3881 39 50.9993 31.3888 50.9993 22C50.9993 12.6112 43.3881 5 33.9993 5Z" fill="oklch(0.3523 0 0 / 1)" class="wd-expressive-fill"></path>
</g>
</svg>