<svg role="presentation" width="56" height="56" viewBox="0 0 56 56" xmlns="http://www.w3.org/2000/svg" class="wd-expressive wd-expressive-grad-cap">
<g>
<path d="M50.0007 36C51.1052 36.0001 52.0007 36.8955 52.0007 38C52.0007 38.5562 51.7724 39.0584 51.406 39.4209L52.8181 44.3623C52.9093 44.6816 52.6697 44.9999 52.3376 45H47.6638C47.3316 45 47.0911 44.6817 47.1824 44.3623L48.5945 39.4209C48.2282 39.0584 48.0007 38.556 48.0007 38C48.0007 36.8954 48.8961 36 50.0007 36Z" fill="oklch(0.3057 0.079 256.22 / 0.13)" class="wd-expressive-accent"></path>
<path d="M46.6677 13C47.2351 13.0002 47.7505 13.3201 48.0046 13.8203L48.0525 13.9229L52.6355 24.9229C53.047 25.9108 52.3209 26.9998 51.2507 27H45.0007V29C45.0007 29 38.5006 31 28.0007 31C17.5377 31 11.0463 29.014 11.0007 29V27H4.75072C3.68035 27 2.95428 25.9109 3.36595 24.9229L7.94896 13.9229L7.99681 13.8203C8.25096 13.32 8.76629 13.0001 9.33372 13H46.6677ZM5.50072 25H50.5007L46.3337 15H9.66771L5.50072 25Z" fill="oklch(0.3057 0.079 256.22 / 0.13)" class="wd-expressive-accent"></path>
</g>
<path d="M46.6665 13C47.2338 13.0003 47.7493 13.3202 48.0034 13.8203L48.0513 13.9229L52.6343 24.9229C53.0458 25.9107 52.3196 26.9997 51.2495 27H50.9995V35.1709C52.1647 35.5827 52.9995 36.6938 52.9995 38C52.9995 38.6068 52.8159 39.1691 52.5073 39.6396L53.7788 44.0879C54.0518 45.0444 53.3345 46 52.3364 46H47.6626C46.6675 46 45.9454 45.0472 46.2192 44.0879L47.4897 39.6387C47.1817 39.168 46.9995 38.6056 46.9995 38C46.9995 36.6942 47.8349 35.586 48.9995 35.1738V27H45.9995V35.6133C45.9994 36.4596 45.6422 37.2932 44.9634 37.8594C40.3676 41.6927 34.4517 44 27.9995 44C21.5473 44 15.6314 41.6927 11.0356 37.8594C10.3569 37.2932 9.99963 36.4596 9.99952 35.6133V27H4.74952C3.67958 26.9997 2.95357 25.9106 3.36475 24.9229L7.94776 13.9229L7.99561 13.8203C8.24974 13.3204 8.7654 13.0003 9.33252 13H46.6665ZM49.9995 37C49.4473 37 48.9995 37.4477 48.9995 38C48.9995 38.277 49.1115 38.5268 49.2964 38.71C49.5557 38.9666 49.6553 39.3445 49.5552 39.6953L48.3247 44H51.6733L50.4429 39.6953C50.3428 39.3444 50.4422 38.9666 50.7017 38.71C50.8875 38.5261 50.9995 38.2764 50.9995 38C50.9995 37.4823 50.6062 37.0562 50.1021 37.0049L49.9995 37ZM11.9995 35.6133C11.9996 35.9045 12.1222 36.1608 12.3169 36.3232C16.5665 39.8678 22.0326 42 27.9995 42C33.9664 42 39.4325 39.8678 43.6821 36.3232C43.8769 36.1608 43.9994 35.9045 43.9995 35.6133V27H11.9995V35.6133ZM5.49952 25H50.4995L48.8325 21H27.4995C27.2234 21 26.9995 20.7761 26.9995 20.5V19.5C26.9995 19.2239 27.2234 19 27.4995 19H47.9995L46.3325 15H9.66651L5.49952 25Z" fill="oklch(0.3523 0 0 / 1)" class="wd-expressive-fill"></path>
</svg>