<svg role="presentation" width="56" height="56" viewBox="0 0 56 56" xmlns="http://www.w3.org/2000/svg" class="wd-expressive wd-expressive-paper-airplane">
<path d="M22.8789 35.0933L17.9424 48.6567L15 31.0005L15.1562 30.8892L50 6.00049L22.8789 35.0933Z" fill="oklch(0.3057 0.079 256.22 / 0.13)" class="wd-expressive-accent"></path>
<path d="M49.3833 4.86166C50.4602 4.53055 51.5251 5.48147 51.2856 6.60971L43.1167 45.0521C42.9081 46.0332 41.8142 46.5372 40.9331 46.058L28.5981 39.3441L19.4135 48.9671C18.5601 49.8607 17.0524 49.397 16.8491 48.1781L14.0571 31.429L2.97115 25.3949C1.84861 24.7834 1.95609 23.1369 3.14888 22.6771L49.2788 4.8978L49.3833 4.86166ZM20.2768 45.1634L26.7788 38.3539L23.4204 36.5257L20.2768 45.1634ZM16.0874 31.4505L18.3032 44.7406L21.9389 34.7503H21.9409C21.9863 34.6261 22.0554 34.5098 22.1479 34.4105L42.478 12.5999L16.0874 31.4505ZM24.4897 34.8304L41.2993 43.9798L48.7807 8.7728L24.4897 34.8304ZM4.87545 24.1537L15.0835 29.7103L43.9399 9.09799L4.87545 24.1537Z" fill="oklch(0.3523 0 0 / 1)" class="wd-expressive-fill"></path>
</svg>