<svg role="presentation" width="56" height="56" viewBox="0 0 56 56" xmlns="http://www.w3.org/2000/svg" class="wd-expressive wd-expressive-easel-horizontal-chart">
<g>
<path d="M51.9995 42H42.8794L45.5962 48.6211C45.8658 49.279 45.3815 50 44.6704 50H42.5093C42.1037 49.9999 41.7384 49.7551 41.5845 49.3799L38.5571 42H17.4438L14.4165 49.3799C14.2626 49.755 13.8972 49.9998 13.4917 50H11.3286C10.6178 49.9997 10.1342 49.2789 10.4038 48.6211L13.1206 42H3.99951V39H51.9995V42Z" fill="oklch(0.3057 0.079 256.22 / 0.13)" class="wd-expressive-accent"></path>
<path d="M24.9995 31H12.9995V26H24.9995V31Z" fill="oklch(0.3057 0.079 256.22 / 0.13)" class="wd-expressive-accent"></path>
<path d="M42.9995 21H12.9995V16H42.9995V21Z" fill="oklch(0.3057 0.079 256.22 / 0.13)" class="wd-expressive-accent"></path>
<path d="M40.9995 9H14.9995V6H40.9995V9Z" fill="oklch(0.3057 0.079 256.22 / 0.13)" class="wd-expressive-accent"></path>
</g>
<g>
<path d="M43 15C43.2652 15 43.5195 15.1054 43.707 15.293C43.8946 15.4805 44 15.7348 44 16V21C44 21.5523 43.5523 22 43 22H33V26C33 26.5523 32.5523 27 32 27H26V31C26 31.5523 25.5523 32 25 32H13C12.4477 32 12 31.5523 12 31V16C12 15.7348 12.1054 15.4805 12.293 15.293C12.4805 15.1054 12.7348 15 13 15H43ZM14 30H24V27H14V30ZM14 25H31V22H14V25ZM14 20H42V17H14V20Z" fill="oklch(0.3523 0 0 / 1)" class="wd-expressive-fill"></path>
<path d="M41 5C41.5522 5 41.9998 5.4479 42 6V7H50.5C51.3283 7 51.9998 7.67175 52 8.5V38L52.1025 38.0049C52.6065 38.0562 52.9998 38.4825 53 39V42C52.9998 42.5521 52.5522 43 52 43H44.3711L46.5215 48.2412C47.0611 49.557 46.0939 50.9996 44.6719 51H42.5098C41.6986 50.9998 40.9671 50.5093 40.6592 49.7588L37.8857 43H18.1143L15.3418 49.7588C15.0339 50.5093 14.3034 50.9998 13.4922 51H11.3291C9.90715 50.9995 8.93994 49.5569 9.47949 48.2412L11.6299 43H4C3.44785 43 3.00021 42.5521 3 42V39C3.0002 38.4825 3.39348 38.0562 3.89746 38.0049L4 38V8.5C4.00021 7.67175 4.67171 7 5.5 7H14V6C14.0002 5.4479 14.4478 5 15 5H41ZM11.3291 49H13.4922L15.9541 43H13.791L11.3291 49ZM42.5098 49H44.6719L42.21 43H40.0479L42.5098 49ZM5 41H51V40H5V41ZM6 38H50V9H42L41.9951 9.10156C41.944 9.60597 41.5179 10 41 10H15C14.4821 10 14.0559 9.60597 14.0049 9.10156L14 9H6V38ZM16 8H40V7H16V8Z" fill="oklch(0.3523 0 0 / 1)" class="wd-expressive-fill"></path>
</g>
</svg>