<svg role="presentation" width="56" height="56" viewBox="0 0 56 56" xmlns="http://www.w3.org/2000/svg" class="wd-expressive wd-expressive-head-chart">
<g>
<path d="M8.07812 31.1016C7.75839 32.467 8.42751 34.009 9.84473 34.4082L11.7861 34.9551C11.84 37.6604 12.0013 39.6999 12.1787 41.1758C12.4114 43.1114 14.0487 44.4294 16.0176 44.3682C17.2226 44.3306 18.7013 44.244 20.3496 44.0674C21.3686 43.9718 22.2499 44.7656 22.25 45.7783V49.5303C22.2502 49.7896 22.4674 50.0005 22.7295 49.998C33.3175 49.8933 39.6045 46.341 40.9688 45.4844C41.0665 45.4229 41.1297 45.3291 41.1562 45.2246L41.8955 47.6562C41.9579 47.8615 41.8852 48.0813 41.7041 48.1963C40.2684 49.1073 33.6506 52.8866 22.5049 52.998C22.2288 53.0008 22 52.7761 22 52.5V48.5088C21.9999 47.4314 21.0726 46.5878 20 46.6895C18.2648 46.8774 16.708 46.9688 15.4395 47.0088C13.367 47.0739 11.6434 45.6723 11.3984 43.6133C11.2117 42.0431 11.042 39.8734 10.9854 36.9951L8.94141 36.4141C7.03891 35.8725 6.41865 33.3533 7.60254 31.7686C7.763 31.5538 7.92066 31.3301 8.07812 31.1016Z" fill="oklch(0.3057 0.079 256.22 / 0.13)" class="wd-expressive-accent"></path>
<path d="M29.043 3.01562C40.3949 3.37534 47 9.80686 47 20C47 23.2659 46.0734 26.4648 44.3271 29.2246L41.3506 33.9287C39.982 36.0916 39.502 38.6843 39.9824 41.1719L39.5713 39.832C38.7678 37.2158 39.1552 34.383 40.6328 32.0723L43.4609 27.6504C45.1199 25.0561 46 22.0486 46 18.9785C45.9999 9.42697 39.7647 3.38865 29.043 3.01562Z" fill="oklch(0.3057 0.079 256.22 / 0.13)" class="wd-expressive-accent"></path>
<path d="M27.001 23L34.7949 27.5C34.005 28.8682 32.8682 30.004 31.5 30.7939C30.1319 31.5838 28.5797 32 27 32C25.4203 31.9999 23.868 31.5838 22.5 30.7939C21.132 30.004 19.9959 28.868 19.2061 27.5C18.4162 26.1318 18.001 24.5798 18.001 23C18.001 21.4202 18.4162 19.8682 19.2061 18.5C19.996 17.1318 21.1328 15.996 22.501 15.2061C23.8691 14.4162 25.4212 14 27.001 14V23Z" fill="oklch(0.3057 0.079 256.22 / 0.13)" class="wd-expressive-accent"></path>
<path d="M24.8662 3.29688C16.6171 4.88176 9.41308 12.6037 11.1504 22.6455C11.5212 24.7901 10.5811 27.0247 9.37988 28.8857C10.1435 27.302 10.6031 25.5758 10.3164 23.9004C8.47979 13.1721 16.1362 4.93357 24.8662 3.29688Z" fill="oklch(0.3057 0.079 256.22 / 0.13)" class="wd-expressive-accent"></path>
</g>
<g>
<path d="M27.7787 12.0273L28.101 12.0557C29.7054 12.2171 31.259 12.7298 32.6488 13.5615C34.2885 14.543 35.6442 15.9348 36.5824 17.5996C37.5207 19.2648 38.0094 21.1463 37.9994 23.0576C37.9904 24.7853 37.5741 26.4836 36.7885 28.0166C36.3866 28.8006 35.4322 29.0232 34.7269 28.6162L34.2445 28.3379C33.5105 29.3341 32.5772 30.1716 31.4994 30.7939C30.1313 31.5838 28.5791 32 26.9994 32C25.4195 31.9999 23.8666 31.584 22.4984 30.7939C21.1304 30.0039 19.9942 28.8673 19.2045 27.499C18.4148 26.1308 17.9992 24.5788 17.9994 22.999C17.9996 21.4193 18.4154 19.867 19.2055 18.499C19.9955 17.131 21.1322 15.9948 22.5004 15.2051C23.6326 14.5517 24.8914 14.1575 26.1869 14.04L26.1986 13.4814L26.2094 13.3301C26.2956 12.6321 26.8704 12.0512 27.6166 12.0244L27.7787 12.0273ZM26.0004 16.0742C25.1228 16.2008 24.2736 16.4913 23.5004 16.9375C22.4362 17.5517 21.5524 18.435 20.9379 19.499C20.3233 20.5631 19.9996 21.7702 19.9994 22.999C19.9992 24.2277 20.3227 25.4348 20.9369 26.499C21.5512 27.5633 22.4353 28.447 23.4994 29.0615C24.5635 29.6759 25.7707 29.9999 26.9994 30C28.2281 30 29.4353 29.6768 30.4994 29.0625C31.2725 28.6161 31.9469 28.0247 32.4955 27.3281L26.7494 24.0107C26.2852 23.7427 25.9993 23.2469 25.9994 22.7109L26.0004 16.0742ZM28.0111 22.4277L35.2445 26.6055C35.734 25.4861 35.993 24.2756 35.9994 23.0469C36.0075 21.4832 35.6078 19.9444 34.8402 18.582C34.0725 17.2196 32.9633 16.0804 31.6215 15.2773C30.5672 14.6464 29.3979 14.2393 28.1869 14.0781L28.0111 22.4277Z" fill="oklch(0.3523 0 0 / 1)" class="wd-expressive-fill"></path>
<path d="M28.601 2.00488C34.499 2.10617 39.3045 3.77348 42.6742 6.82324C46.1649 9.98255 47.9994 14.5213 47.9994 20C47.9994 23.4551 47.0188 26.8399 45.1713 29.7598L42.1947 34.4639C40.795 36.6762 40.4277 39.388 41.1889 41.8926L42.8519 47.3652C43.0348 47.967 42.8283 48.666 42.2396 49.04C40.6878 50.0248 33.8894 53.8842 22.514 53.998C21.6866 54.0062 20.9994 53.337 20.9994 52.5V48.5088C20.9993 48.0224 20.5816 47.6404 20.098 47.6836C18.3378 47.874 16.7582 47.9672 15.4701 48.0078C12.9093 48.0882 10.7144 46.3347 10.4047 43.7314C10.2302 42.2644 10.073 40.2999 10.0033 37.7559L8.66737 37.376C7.32121 36.9928 6.46976 35.9162 6.14979 34.7461C5.83193 33.5836 6.00674 32.2333 6.80116 31.1699C8.40172 29.0279 9.7304 26.4073 9.33045 24.0693C7.15414 11.3567 17.5777 2.00028 28.0267 2L28.601 2.00488ZM28.0267 4C18.6242 4.00029 9.36549 12.4236 11.3012 23.7314C11.8515 26.9471 10.046 30.1681 8.40272 32.3672C8.01339 32.8885 7.90664 33.5902 8.0785 34.2188C8.24829 34.8396 8.65808 35.2937 9.21424 35.4521L11.2582 36.0332C11.681 36.1535 11.9761 36.5361 11.9848 36.9756C12.0408 39.8247 12.2086 41.9613 12.391 43.4951C12.5712 45.0099 13.8235 46.0595 15.4076 46.0098C16.6543 45.9705 18.1857 45.8801 19.892 45.6953L19.9047 45.6934C21.5642 45.5362 22.9992 46.8421 22.9994 48.5088V51.9873C32.8644 51.7867 38.9684 48.6637 40.8207 47.5635L39.2748 42.4746C38.3443 39.4129 38.7943 36.0974 40.5053 33.3936L43.4818 28.6895C45.1266 26.0898 45.9994 23.0765 45.9994 20C45.9994 14.9854 44.3338 11.024 41.3314 8.30664C38.411 5.66354 34.1168 4.10007 28.5678 4.00488L28.0267 4Z" fill="oklch(0.3523 0 0 / 1)" class="wd-expressive-fill"></path>
</g>
</svg>