<svg role="presentation" width="56" height="56" viewBox="0 0 56 56" xmlns="http://www.w3.org/2000/svg" class="wd-expressive wd-expressive-platform-cart">
<g>
<path d="M12 43C14.2091 43 16 44.7909 16 47C16 49.2091 14.2091 51 12 51C9.79086 51 8 49.2091 8 47C8 44.7909 9.79086 43 12 43Z" fill="oklch(0.3057 0.079 256.22 / 0.13)" class="wd-expressive-accent"></path>
<path d="M46 43C48.2091 43 50 44.7909 50 47C50 49.2091 48.2091 51 46 51C43.7909 51 42 49.2091 42 47C42 44.7909 43.7909 43 46 43Z" fill="oklch(0.3057 0.079 256.22 / 0.13)" class="wd-expressive-accent"></path>
<path d="M19 22H35V25H19V33H46V36H50.5C50.7761 36 51 36.2239 51 36.5V39.5C51 39.7761 50.7761 40 50.5 40H7.5C7.22386 40 7 39.7761 7 39.5V36.5C7 36.2239 7.22386 36 7.5 36H16V14H19V22Z" fill="oklch(0.3057 0.079 256.22 / 0.13)" class="wd-expressive-accent"></path>
</g>
<path d="M8.1543 6.00391C9.73925 6.08434 10.9999 7.39508 11 9V35H15V14C15 13.4477 15.4477 13 16 13H35C35.5523 13 36 13.4477 36 14V24H46C46.5523 24 47 24.4477 47 25V35H50.5C51.3284 35 52 35.6716 52 36.5V39.5C52 40.3284 51.3284 41 50.5 41H47V42.0996C49.2823 42.5628 51 44.581 51 47C51 49.7614 48.7614 52 46 52C43.2386 52 41 49.7614 41 47C41 44.581 42.7177 42.5628 45 42.0996V41H13V42.0996C15.2823 42.5628 17 44.581 17 47C17 49.7614 14.7614 52 12 52C9.23858 52 7 49.7614 7 47C7 44.581 8.71772 42.5628 11 42.0996V41H7.5C6.67157 41 6 40.3284 6 39.5V36.5C6 35.6716 6.67157 35 7.5 35H9V9C8.99989 8.48251 8.60647 8.05632 8.10254 8.00488L8 8H5C4.72386 8 4.5 7.77614 4.5 7.5V6.5C4.5 6.22386 4.72386 6 5 6H8L8.1543 6.00391ZM13 47.5C13 47.7761 12.7761 48 12.5 48H11.5C11.2239 48 11 47.7761 11 47.5V44.1738C9.83532 44.5859 9 45.6941 9 47C9 48.6569 10.3431 50 12 50C13.6569 50 15 48.6569 15 47C15 45.6941 14.1647 44.5859 13 44.1738V47.5ZM47 47.5C47 47.7761 46.7761 48 46.5 48H45.5C45.2239 48 45 47.7761 45 47.5V44.1738C43.8353 44.5859 43 45.6941 43 47C43 48.6569 44.3431 50 46 50C47.6569 50 49 48.6569 49 47C49 45.6941 48.1647 44.5859 47 44.1738V47.5ZM8 39H50V37H8V39ZM17 35H45V26H17V35ZM17 24H34V15H17V24Z" fill="oklch(0.3523 0 0 / 1)" class="wd-expressive-fill"></path>
</svg>