<svg role="presentation" width="56" height="56" viewBox="0 0 56 56" xmlns="http://www.w3.org/2000/svg" class="wd-expressive wd-expressive-quad">
<path d="M28 3C41.8071 3 53 14.1929 53 28C53 41.8071 41.8071 53 28 53C14.1929 53 3 41.8071 3 28C3 14.1929 14.1929 3 28 3ZM28.3535 31.1816C28.1583 30.9866 27.8417 30.9866 27.6465 31.1816L19.8682 38.96C19.673 39.1552 19.6731 39.4717 19.8682 39.667L27.6465 47.4453C27.8417 47.6406 28.1583 47.6406 28.3535 47.4453L36.1318 39.667C36.3269 39.4717 36.327 39.1552 36.1318 38.96L28.3535 31.1816ZM17.04 19.8682C16.8448 19.673 16.5283 19.6731 16.333 19.8682L8.55469 27.6465C8.35943 27.8417 8.35943 28.1583 8.55469 28.3535L16.333 36.1318C16.5283 36.3269 16.8448 36.327 17.04 36.1318L24.8184 28.3535C25.0134 28.1583 25.0134 27.8417 24.8184 27.6465L17.04 19.8682ZM39.667 19.8682C39.4717 19.6731 39.1552 19.673 38.96 19.8682L31.1816 27.6465C30.9866 27.8417 30.9866 28.1583 31.1816 28.3535L38.96 36.1318C39.1552 36.327 39.4717 36.3269 39.667 36.1318L47.4453 28.3535C47.6406 28.1583 47.6406 27.8417 47.4453 27.6465L39.667 19.8682ZM28.3535 8.55469C28.1583 8.35943 27.8417 8.35943 27.6465 8.55469L19.8682 16.333C19.6731 16.5283 19.673 16.8448 19.8682 17.04L27.6465 24.8184C27.8417 25.0134 28.1583 25.0134 28.3535 24.8184L36.1318 17.04C36.327 16.8448 36.3269 16.5283 36.1318 16.333L28.3535 8.55469Z" fill="oklch(0.3057 0.079 256.22 / 0.13)" class="wd-expressive-accent"></path>
<g>
<path d="M26.9393 30.4745C27.5251 29.889 28.4747 29.889 29.0604 30.4745L36.8388 38.2528C37.4245 38.8385 37.4244 39.7881 36.8388 40.3739L29.0604 48.1522C28.4746 48.738 27.5251 48.738 26.9393 48.1522L19.161 40.3739C18.5754 39.7881 18.5753 38.8385 19.161 38.2528L26.9393 30.4745ZM20.9286 39.3134L27.9999 46.3847L35.0712 39.3134L27.9999 32.2421L20.9286 39.3134Z" fill="oklch(0.3523 0 0 / 1)" class="wd-expressive-fill"></path>
<path d="M15.6259 19.161C16.2117 18.5754 17.1612 18.5753 17.747 19.161L25.5253 26.9393C26.1108 27.5251 26.1108 28.4747 25.5253 29.0604L17.747 36.8388C17.1612 37.4245 16.2117 37.4243 15.6259 36.8388L7.84754 29.0604C7.26176 28.4746 7.26176 27.5251 7.84754 26.9393L15.6259 19.161ZM9.61512 27.9999L16.6864 35.0712L23.7577 27.9999L16.6864 20.9286L9.61512 27.9999Z" fill="oklch(0.3523 0 0 / 1)" class="wd-expressive-fill"></path>
<path d="M38.2528 19.161C38.8385 18.5753 39.7881 18.5754 40.3739 19.161L48.1522 26.9393C48.738 27.5251 48.738 28.4746 48.1522 29.0604L40.3739 36.8388C39.7881 37.4244 38.8385 37.4245 38.2528 36.8388L30.4745 29.0604C29.889 28.4747 29.889 27.5251 30.4745 26.9393L38.2528 19.161ZM32.2421 27.9999L39.3134 35.0712L46.3847 27.9999L39.3134 20.9286L32.2421 27.9999Z" fill="oklch(0.3523 0 0 / 1)" class="wd-expressive-fill"></path>
<path d="M26.9393 7.84754C27.5251 7.26176 28.4746 7.26176 29.0604 7.84754L36.8388 15.6259C37.4243 16.2117 37.4245 17.1612 36.8388 17.747L29.0604 25.5253C28.4747 26.1108 27.5251 26.1108 26.9393 25.5253L19.161 17.747C18.5753 17.1612 18.5754 16.2117 19.161 15.6259L26.9393 7.84754ZM20.9286 16.6864L27.9999 23.7577L35.0712 16.6864L27.9999 9.61512L20.9286 16.6864Z" fill="oklch(0.3523 0 0 / 1)" class="wd-expressive-fill"></path>
</g>
</svg>