<svg role="presentation" width="56" height="56" viewBox="0 0 56 56" xmlns="http://www.w3.org/2000/svg" class="wd-expressive wd-expressive-dashboard-chart">
<g>
<path d="M14 41.0006C14 41.5529 13.5522 42.0006 13 42.0006H9V38.0006H14V41.0006Z" fill="oklch(0.3057 0.079 256.22 / 0.13)" class="wd-expressive-accent"></path>
<path d="M22 41.0006C22 41.5529 21.5522 42.0006 21 42.0006H17V38.0006H22V41.0006Z" fill="oklch(0.3057 0.079 256.22 / 0.13)" class="wd-expressive-accent"></path>
<path d="M37 39.9997H32V30.9997H37V39.9997Z" fill="oklch(0.3057 0.079 256.22 / 0.13)" class="wd-expressive-accent"></path>
<path d="M45 39.9997H40V24.9997H45V39.9997Z" fill="oklch(0.3057 0.079 256.22 / 0.13)" class="wd-expressive-accent"></path>
<path d="M14.5 17.0202C14.7751 16.9972 14.9999 17.2236 15 17.4997V22.4997C15 22.7758 15.2239 22.9997 15.5 22.9997H20.5C20.7761 22.9997 21.0025 23.2245 20.9795 23.4997C20.895 24.5101 20.5546 25.486 19.9883 26.3336C19.329 27.3201 18.392 28.0886 17.2959 28.5426C16.1995 28.9967 14.993 29.1159 13.8291 28.8844C12.6653 28.6529 11.5959 28.0819 10.7568 27.2428C9.91778 26.4038 9.34677 25.3344 9.11523 24.1706C8.88372 23.0067 9.00291 21.8001 9.45703 20.7038C9.91109 19.6076 10.6796 18.6706 11.666 18.0114C12.5136 17.445 13.4895 17.1046 14.5 17.0202Z" fill="oklch(0.3057 0.079 256.22 / 0.13)" class="wd-expressive-accent"></path>
</g>
<g>
<path d="M13.5 37C13.7761 37 14 37.2239 14 37.5V38.5C14 38.7761 13.7761 39 13.5 39H10V41.5C10 41.7761 9.77614 42 9.5 42H8.5C8.22386 42 8 41.7761 8 41.5V38C8 37.4477 8.44772 37 9 37H13.5Z" fill="oklch(0.3523 0 0 / 1)" class="wd-expressive-fill"></path>
<path d="M21.5 37C21.7761 37 22 37.2239 22 37.5V38.5C22 38.7761 21.7761 39 21.5 39H18V41.5C18 41.7761 17.7761 42 17.5 42H16.5C16.2239 42 16 41.7761 16 41.5V38C16 37.4477 16.4477 37 17 37H21.5Z" fill="oklch(0.3523 0 0 / 1)" class="wd-expressive-fill"></path>
<path d="M48 21C48.5523 21 49 21.4477 49 22V40C49 40.5523 48.5523 41 48 41H32C31.4477 41 31 40.5523 31 40V28C31 27.4477 31.4477 27 32 27H39V22C39 21.4477 39.4477 21 40 21H48ZM33 39H39V29H33V39ZM41 39H47V23H41V39Z" fill="oklch(0.3523 0 0 / 1)" class="wd-expressive-fill"></path>
<path d="M46.5 15C46.7761 15 47 15.2239 47 15.5V16.5C47 16.7761 46.7761 17 46.5 17H33.5C33.2239 17 33 16.7761 33 16.5V15.5C33 15.2239 33.2239 15 33.5 15H46.5Z" fill="oklch(0.3523 0 0 / 1)" class="wd-expressive-fill"></path>
<path d="M15.5625 14.0176L15.9326 14.0488C16.7945 14.1386 17.6407 14.3527 18.4443 14.6855C19.5361 15.1378 20.5286 15.8001 21.3643 16.6357C22.1999 17.4714 22.8622 18.4639 23.3145 19.5557C23.6948 20.474 23.9205 21.448 23.9824 22.4375C24.0383 23.3303 23.3106 24 22.5 24H21.9277C21.7791 25.0293 21.4027 26.017 20.8203 26.8887C20.0512 28.0398 18.9578 28.937 17.6787 29.4668C16.3997 29.9966 14.9925 30.1352 13.6348 29.8652C12.2769 29.5951 11.0288 28.9292 10.0498 27.9502C9.07084 26.9712 8.40486 25.7231 8.13477 24.3652C7.86476 23.0075 8.00343 21.6003 8.5332 20.3213C9.06302 19.0422 9.9602 17.9488 11.1113 17.1797C11.983 16.5973 12.9707 16.2209 14 16.0723V15.5C14 14.7401 14.5883 14.0525 15.3975 14.0156L15.5625 14.0176ZM14 18.1016C13.368 18.2306 12.7632 18.4809 12.2217 18.8428C11.3996 19.3922 10.7592 20.1734 10.3809 21.0869C10.0025 22.0005 9.90279 23.0057 10.0957 23.9756C10.2886 24.9455 10.7656 25.8359 11.4648 26.5352C12.1641 27.2344 13.0545 27.7114 14.0244 27.9043C14.9943 28.0972 15.9995 27.9975 16.9131 27.6191C17.8266 27.2408 18.6078 26.6004 19.1572 25.7783C19.5191 25.2368 19.7694 24.632 19.8984 24H15.5C14.6716 24 14 23.3284 14 22.5V18.1016ZM16 22H21.9277C21.8447 21.4247 21.6902 20.8607 21.4668 20.3213C21.115 19.472 20.6002 18.6998 19.9502 18.0498C19.3002 17.3998 18.528 16.885 17.6787 16.5332C17.1393 16.3098 16.5753 16.1543 16 16.0713V22Z" fill="oklch(0.3523 0 0 / 1)" class="wd-expressive-fill"></path>
<path d="M51 10C52.6569 10 54 11.3431 54 13V43C54 44.6569 52.6569 46 51 46H5C3.34315 46 2 44.6569 2 43V13C2 11.3431 3.34315 10 5 10H51ZM4 43C4 43.5523 4.44772 44 5 44H26V35H4V43ZM28 44H51C51.5523 44 52 43.5523 52 43V13C52 12.4477 51.5523 12 51 12H28V44ZM5 12C4.44772 12 4 12.4477 4 13V33H26V12H5Z" fill="oklch(0.3523 0 0 / 1)" class="wd-expressive-fill"></path>
</g>
</svg>