<svg role="presentation" width="56" height="56" viewBox="0 0 56 56" xmlns="http://www.w3.org/2000/svg" class="wd-expressive wd-expressive-microscope">
<g>
<path d="M45 53.0004H11.2725C11.122 53.0002 11 52.8775 11 52.7269C11.0001 51.2208 12.2214 50.0004 13.7275 50.0004H45V53.0004Z" fill="oklch(0.3057 0.079 256.22 / 0.13)" class="wd-expressive-accent"></path>
<path d="M25 45.9994H18V39.9994H25V45.9994Z" fill="oklch(0.3057 0.079 256.22 / 0.13)" class="wd-expressive-accent"></path>
<path d="M38.5 40.9994C39.8806 40.9994 40.9997 42.1189 41 43.4994C41 44.8801 39.8807 45.9994 38.5 45.9994C37.1193 45.9994 36 44.8801 36 43.4994C36.0003 42.1189 37.1194 40.9994 38.5 40.9994Z" fill="oklch(0.3057 0.079 256.22 / 0.13)" class="wd-expressive-accent"></path>
<path d="M26 22.9994C26 24.3255 25.4728 25.5979 24.5352 26.5355C24.3672 26.7035 24.1878 26.8575 24 26.9984V31.4994C24 31.7755 23.7761 31.9994 23.5 31.9994H20.5C20.2239 31.9994 20 31.7755 20 31.4994V27.8978C19.6098 27.8182 19.231 27.6936 18.8721 27.5248L16.9824 30.7992L13.5176 28.7992L16.1533 24.2318C16.0518 23.8325 16 23.4184 16 22.9994H26Z" fill="oklch(0.3057 0.079 256.22 / 0.13)" class="wd-expressive-accent"></path>
<path d="M33.0664 3.81288C33.2616 3.61767 33.5782 3.61776 33.7734 3.81288L36.6025 6.64101C36.7976 6.83615 36.7974 7.15277 36.6025 7.34804L27.8154 16.1342C26.447 14.9739 24.7288 14.2133 22.8398 14.0385L33.0664 3.81288Z" fill="oklch(0.3057 0.079 256.22 / 0.13)" class="wd-expressive-accent"></path>
</g>
<g>
<path d="M38.5 39.9995C40.4329 39.9995 41.9998 41.5666 42 43.4995C42 45.4325 40.433 46.9995 38.5 46.9995C36.567 46.9995 35 45.4325 35 43.4995C35.0002 41.5666 36.5671 39.9995 38.5 39.9995ZM38.5 41.9995C37.6717 41.9995 37.0002 42.6712 37 43.4995C37 44.3279 37.6716 44.9995 38.5 44.9995C39.3284 44.9995 40 44.3279 40 43.4995C39.9998 42.6712 39.3283 41.9995 38.5 41.9995Z" fill="oklch(0.3523 0 0 / 1)" class="wd-expressive-fill"></path>
<path d="M32.4736 3.00242C33.0236 2.55427 33.8168 2.5548 34.3662 3.00242L34.4805 3.10594L37.3096 5.93406L37.4131 6.04832C37.8933 6.63773 37.8575 7.50586 37.3105 8.05418L29.334 16.0288L43.9619 26.7847C45.2428 27.7266 45.9998 29.2227 46 30.813V52.4995L45.9922 52.6528C45.9154 53.4091 45.2767 53.9995 44.5 53.9995H11.5C10.7233 53.9995 10.0846 53.4091 10.0078 52.6528L10 52.4995V50.9995C10.0002 47.686 12.6864 44.9995 16 44.9995H17V40.4995C17.0002 39.6712 17.6717 38.9995 18.5 38.9995H24.5C25.3283 38.9995 25.9998 39.6712 26 40.4995V44.9995H31V36.9995H10.5C10.2239 36.9995 10 36.7756 10 36.4995V35.4995C10.0002 35.2235 10.224 34.9995 10.5 34.9995H36V32.3618C35.9999 32.087 35.8866 31.8232 35.6865 31.6343L27.6025 23.9995H26.915C26.7087 25.2197 26.1288 26.355 25.2422 27.2417C25.1637 27.3202 25.0823 27.3956 25 27.4692V31.5005C24.9993 32.3281 24.3281 32.9987 23.501 32.9995H20.499C19.672 32.9987 19.0007 32.3281 19 31.5005V29.3032L18.0986 30.8657C17.6831 31.5852 16.7644 31.8262 16.0498 31.4145L13.4512 29.9145C12.7343 29.4998 12.4887 28.5824 12.9023 27.8657L15.0967 24.0639C15.0337 23.7151 15 23.3589 15 22.9995V17.185C15.0002 16.3533 15.3459 15.476 16.1045 14.9214C17.7575 13.7132 19.7971 12.9995 22 12.9995C22.0075 12.9995 22.015 12.9993 22.0225 12.9995L22.4521 13.0093H22.4541L32.3594 3.10594L32.4736 3.00242ZM21.9873 14.9995C20.2277 15.0022 18.6032 15.5725 17.2842 16.5366C17.1249 16.6533 17.0001 16.8799 17 17.185V21.9995H28C28.2553 21.9995 28.5009 22.0977 28.6865 22.2729L37.0596 30.1811C37.6593 30.7476 37.9999 31.5364 38 32.3618V35.9995C38 36.5518 37.5523 36.9995 37 36.9995H33V45.9995C33 46.5518 32.5523 46.9995 32 46.9995H16C13.791 46.9995 12.0002 48.7905 12 50.9995V51.9995H44V30.813C43.9998 29.8591 43.5451 28.9613 42.7764 28.396L27.4072 17.0952V17.0932C27.3824 17.0749 27.3563 17.0575 27.333 17.0366C27.2828 16.9917 27.231 16.9485 27.1797 16.9048C27.1763 16.902 27.1723 16.8998 27.1689 16.897C26.4171 16.2595 25.5475 15.7587 24.5977 15.4321C24.0927 15.2587 23.5654 15.1343 23.0205 15.0649C22.9301 15.0534 22.8393 15.0431 22.748 15.0347C22.7451 15.0344 22.7422 15.033 22.7393 15.0327C22.6241 15.0222 22.5082 15.0139 22.3916 15.0083L21.9873 14.9995ZM19 44.9995H24V40.9995H19V44.9995ZM23 28.6548C22.5992 28.7966 22.183 28.8955 21.7578 28.9497C21.725 28.9539 21.6921 28.9577 21.6592 28.9614C21.6179 28.966 21.5766 28.9704 21.5352 28.9741C21.465 28.9805 21.3947 28.9859 21.3242 28.9897C21.3122 28.9904 21.3001 28.9911 21.2881 28.9917C21.2734 28.9924 21.2588 28.994 21.2441 28.9946L21 28.9995V30.9995H23V28.6548ZM14.8848 28.4321L16.6162 29.4321L17.5117 27.8794C17.5056 27.875 17.4993 27.8701 17.4932 27.8657C17.4424 27.8291 17.3925 27.7907 17.3428 27.7524C17.3222 27.7367 17.3016 27.7206 17.2812 27.7046C17.2365 27.6692 17.1913 27.6339 17.1475 27.5972C17.1075 27.5638 17.0684 27.5291 17.0293 27.4946C17.0074 27.4753 16.9845 27.4567 16.9629 27.437C16.8932 27.3737 16.8247 27.3085 16.7578 27.2417C16.6777 27.1616 16.6002 27.0788 16.5254 26.9946C16.3562 26.8051 16.2003 26.6054 16.0576 26.3979L14.8848 28.4321ZM17.1279 23.9995C17.2206 24.3583 17.3635 24.7023 17.5508 25.022C17.6056 25.1154 17.6651 25.2064 17.7275 25.2954C17.8596 25.4837 18.0071 25.6628 18.1719 25.8276C18.2584 25.9142 18.3491 25.9961 18.4424 26.0737C18.7049 26.2921 18.9935 26.475 19.2988 26.6186C19.5846 26.753 19.8857 26.8537 20.1963 26.9175C20.1975 26.9177 20.199 26.9182 20.2002 26.9184C20.3716 26.9534 20.5456 26.9754 20.7207 26.9878C20.7477 26.9897 20.7747 26.9933 20.8018 26.9946L21 26.9995L21.3057 26.9858C21.3161 26.985 21.3265 26.9847 21.3369 26.9839C22.0853 26.9203 22.7997 26.6477 23.3994 26.1977C23.4007 26.1968 23.4021 26.1957 23.4033 26.1948C23.5522 26.0828 23.6949 25.9609 23.8281 25.8276C24.3375 25.3182 24.6949 24.6854 24.8721 23.9995H17.1279ZM24.8721 13.4194C24.89 13.4248 24.9079 13.4305 24.9258 13.436C24.9992 13.4585 25.0718 13.4832 25.1445 13.5073C25.204 13.5271 25.2633 13.547 25.3223 13.5679C25.393 13.5928 25.4632 13.6185 25.5332 13.645C25.5881 13.6658 25.6429 13.6867 25.6973 13.7085C25.779 13.7411 25.8598 13.7754 25.9404 13.81C25.9779 13.8262 26.0155 13.8423 26.0527 13.8589C26.1354 13.8956 26.2174 13.9333 26.2988 13.9722C26.3436 13.9936 26.3882 14.0155 26.4326 14.0376C26.5144 14.0781 26.5953 14.1199 26.6758 14.1626C26.7051 14.1782 26.7345 14.1936 26.7637 14.2095C26.8576 14.2605 26.9508 14.3127 27.043 14.3667C27.0581 14.3756 27.0728 14.3851 27.0879 14.394C27.3065 14.5237 27.52 14.6608 27.7275 14.8061L35.541 6.99461L33.4199 4.87254L24.8721 13.4194Z" fill="oklch(0.3523 0 0 / 1)" class="wd-expressive-fill"></path>
</g>
</svg>