<svg role="presentation" width="56" height="56" viewBox="0 0 56 56" xmlns="http://www.w3.org/2000/svg" class="wd-expressive wd-expressive-user-star">
<g>
<path d="M44.7833 42.1762C44.856 42.324 44.9968 42.4265 45.1599 42.4503L49.4944 43.0818C49.9044 43.1415 50.068 43.6453 49.7714 43.9345L48.4674 45.2064C48.3497 45.3213 48.2959 45.4867 48.3238 45.6489L49.1191 50.2824C49.1888 50.6906 48.7602 51.0015 48.3936 50.8088L44.2327 48.6215C44.087 48.545 43.913 48.545 43.7673 48.6215L39.6064 50.8088C39.2398 51.0015 38.8112 50.6907 38.8809 50.2824L39.6762 45.649C39.7041 45.4868 39.6503 45.3212 39.5324 45.2064L36.166 41.925C35.8697 41.6357 36.0334 41.1321 36.4434 41.0725L41.0943 40.3964C41.2572 40.3728 41.398 40.2705 41.4708 40.1229L42.1749 38.6957C42.3584 38.3237 42.8889 38.3241 43.072 38.6963L44.7833 42.1762Z" fill="oklch(0.3057 0.079 256.22 / 0.13)" class="wd-expressive-accent"></path>
<path d="M9.78973 34.7959C9.87764 34.7336 10 34.8075 10 34.9153V44.0002C10.0002 45.0357 10.7874 45.8872 11.7959 45.9895L12 46.0002H35.5C35.7761 46.0002 36 46.2241 36 46.5002V48.5002C36 48.7764 35.7761 49.0002 35.5 49.0002H9L8.7959 48.9895C7.78737 48.8872 7.00023 48.0357 7 47.0002V37.9153C7 37.3465 7.24053 36.8021 7.6748 36.4348C8.35542 35.8594 9.06136 35.3128 9.78973 34.7959Z" fill="oklch(0.3057 0.079 256.22 / 0.13)" class="wd-expressive-accent"></path>
<path d="M20.807 7.05633C21.1808 6.66943 21.7522 7.15548 21.5723 7.66249C21.202 8.70622 21 9.82955 21 11.0002C21.0002 16.5229 25.4773 21.0002 31 21.0002C32.1706 21.0002 33.2936 20.7979 34.3371 20.4273C34.844 20.2473 35.33 20.8184 34.9432 21.1923C33.1452 22.9301 30.6983 24.0002 28 24.0002C22.4773 24.0002 18.0002 19.5229 18 14.0002C18 11.3021 19.0695 8.85465 20.807 7.05633Z" fill="oklch(0.3057 0.079 256.22 / 0.13)" class="wd-expressive-accent"></path>
</g>
<g>
<path d="M42.709 35.3643C43.303 34.3519 44.8116 34.386 45.3447 35.4658L47.3086 39.4453L51.7002 40.084C52.9305 40.2628 53.4225 41.7748 52.5322 42.6426L49.3535 45.7383L50.1045 50.1133C50.3147 51.3386 49.0282 52.2738 47.9277 51.6953L43.999 49.6289L40.0723 51.6953C38.9718 52.2738 37.6853 51.3386 37.8955 50.1133L38.6455 45.7383L35.4678 42.6426C34.5776 41.7749 35.0688 40.2631 36.2988 40.084L40.6904 39.4453L42.6553 35.4658L42.709 35.3643ZM42.252 40.8018C42.1063 41.0968 41.8246 41.3012 41.499 41.3486L37.5889 41.916L40.418 44.6748C40.6536 44.9045 40.7617 45.2352 40.7061 45.5596L40.0381 49.4531L43.5342 47.6152L43.6465 47.5645C43.9121 47.4641 44.2101 47.4813 44.4648 47.6152L47.9609 49.4531L47.2939 45.5596C47.2383 45.2352 47.3464 44.9045 47.582 44.6748L50.4102 41.916L46.501 41.3486C46.1754 41.3012 45.8937 41.0968 45.748 40.8018L44 37.2588L42.252 40.8018Z" fill="oklch(0.3523 0 0 / 1)" class="wd-expressive-fill"></path>
<path d="M28 28C33.009 28 37.7564 29.1343 41.9961 31.1602C42.245 31.2794 42.3456 31.58 42.2227 31.8271L41.7773 32.7227C41.6544 32.9697 41.3546 33.0698 41.1055 32.9512C37.1362 31.0595 32.6931 30 28 30C20.4988 30 13.6325 32.7071 8.32031 37.1982C8.12216 37.3658 8 37.6251 8 37.915V47C8 47.5523 8.44772 48 9 48H35.5C35.7761 48 36 48.2239 36 48.5V49.5C36 49.7761 35.7761 50 35.5 50H9C7.34315 50 6 48.6569 6 47V37.915C6 37.0672 6.35863 36.2379 7.0293 35.6709C12.689 30.886 20.0086 28 28 28Z" fill="oklch(0.3523 0 0 / 1)" class="wd-expressive-fill"></path>
<path d="M28 3C34.0751 3 39 7.92487 39 14C39 20.0751 34.0751 25 28 25C21.9249 25 17 20.0751 17 14C17 7.92487 21.9249 3 28 3ZM28 5C23.0294 5 19 9.02944 19 14C19 18.9706 23.0294 23 28 23C32.9706 23 37 18.9706 37 14C37 9.02944 32.9706 5 28 5Z" fill="oklch(0.3523 0 0 / 1)" class="wd-expressive-fill"></path>
</g>
</svg>