<svg role="presentation" width="56" height="56" viewBox="0 0 56 56" xmlns="http://www.w3.org/2000/svg" class="wd-expressive wd-expressive-cloud-devices">
<g>
<path d="M38 48.5C38 48.7761 38.2239 49 38.5 49H47C47 50.6569 45.6569 52 44 52H38C36.3431 52 35 50.6569 35 49V35C35 33.3431 36.3431 32 38 32V48.5Z" fill="oklch(0.3057 0.079 256.22 / 0.13)" class="wd-expressive-accent"></path>
<path d="M6.5 44H10.5C10.2239 44 10 43.7761 10 43.5V26.5C10 26.2239 10.2239 26 10.5 26H12.5C12.7761 26 13 26.2239 13 26.5V43.5C13 43.7761 13.2239 44 13.5 44H31.5C31.7761 44 32 44.2239 32 44.5V47H8C6.89543 47 6 46.1046 6 45V44.5C6 44.2239 6.22386 44 6.5 44Z" fill="oklch(0.3057 0.079 256.22 / 0.13)" class="wd-expressive-accent"></path>
<path d="M21 6.99902C21.3491 6.99902 21.6944 7.01601 22.0352 7.04785C16.9652 7.53344 13 11.8038 13 17.001C13.0001 18.8227 13.4906 20.529 14.3418 22H12C9.31187 22 7.11939 24.1213 7.00488 26.7812C7.00098 26.8537 7 26.9266 7 27V34C7 34.8475 6.4718 35.5691 5.72754 35.8604C4.03753 34.0697 3.00013 31.6565 3 29C3 24.4878 5.98903 20.6735 10.0947 19.4287C10.034 18.961 10 18.4843 10 18C10 11.925 14.925 6.9992 21 6.99902Z" fill="oklch(0.3057 0.079 256.22 / 0.13)" class="wd-expressive-accent"></path>
<path d="M48.9834 20.9863C49.0534 21.0387 49.1209 21.0943 49.1895 21.1484C49.083 21.0644 48.9752 20.982 48.8652 20.9023L48.9834 20.9863Z" fill="oklch(0.3057 0.079 256.22 / 0.13)" class="wd-expressive-accent"></path>
</g>
<g>
<path d="M42.5 34C42.7761 34 43 34.2239 43 34.5V35.5C43 35.7761 42.7761 36 42.5 36H39.5C39.2239 36 39 35.7761 39 35.5V34.5C39 34.2239 39.2239 34 39.5 34H42.5Z" fill="oklch(0.3523 0 0 / 1)" class="wd-expressive-fill"></path>
<path d="M44 31C46.2091 31 48 32.7909 48 35V49C48 51.2091 46.2091 53 44 53H38C35.7909 53 34 51.2091 34 49V35C34 32.7909 35.7909 31 38 31H44ZM38 33C36.8954 33 36 33.8954 36 35V49C36 50.1046 36.8954 51 38 51H44C45.1046 51 46 50.1046 46 49V35C46 33.8954 45.1046 33 44 33H38Z" fill="oklch(0.3523 0 0 / 1)" class="wd-expressive-fill"></path>
<path d="M37 25C38.1046 25 39 25.8954 39 27V28.5C39 28.7761 38.7761 29 38.5 29H37.5C37.2239 29 37 28.7761 37 28.5V27H11V43H31.5C31.7761 43 32 43.2239 32 43.5V44.5C32 44.7761 31.7761 45 31.5 45H7C7 45.5523 7.44772 46 8 46H31.5C31.7761 46 32 46.2239 32 46.5V47.5C32 47.7761 31.7761 48 31.5 48H8C6.34315 48 5 46.6569 5 45V44.5C5 43.6716 5.67157 43 6.5 43H9V27C9 25.8954 9.89543 25 11 25H37Z" fill="oklch(0.3523 0 0 / 1)" class="wd-expressive-fill"></path>
<path d="M21 6.00098C25.1991 6.00109 28.8903 8.16062 31.0332 11.4229C31.919 11.1495 32.8598 11.002 33.834 11.002C38.216 11.0023 41.8987 13.9689 42.9961 18.002H43C46.7723 18.0021 50.0996 19.9017 52.0811 22.7959C52.0836 22.7994 52.0874 22.8021 52.0898 22.8057C52.0955 22.8139 52.1008 22.8228 52.1064 22.8311C52.1237 22.8565 52.1401 22.8826 52.1572 22.9082C52.2333 23.0223 52.3071 23.1379 52.3789 23.2549C52.3982 23.2864 52.4175 23.3179 52.4365 23.3496C52.5032 23.4607 52.5681 23.5729 52.6309 23.6865C52.65 23.7211 52.6697 23.7553 52.6885 23.79C52.7604 23.9235 52.83 24.0586 52.8965 24.1953C52.9165 24.2366 52.9345 24.2788 52.9541 24.3203C53.0082 24.4352 53.0611 24.5509 53.1113 24.668C53.1276 24.7059 53.1433 24.7441 53.1592 24.7822C53.2036 24.8891 53.246 24.9969 53.2871 25.1055C53.3063 25.1562 53.3262 25.2067 53.3447 25.2578C53.4534 25.558 53.5492 25.8642 53.6318 26.1758C53.6484 26.2383 53.6632 26.3013 53.6787 26.3643C53.703 26.4631 53.7264 26.5623 53.748 26.6621C53.7606 26.7203 53.7735 26.7784 53.7852 26.8369C53.8488 27.1555 53.8981 27.4789 53.9336 27.8066C53.9395 27.8609 53.9451 27.9152 53.9502 27.9697C53.9627 28.1038 53.9728 28.2386 53.9805 28.374C53.9822 28.4056 53.9838 28.4371 53.9854 28.4688C53.9938 28.6455 54 28.8232 54 29.002L53.9863 29.5605C53.8561 32.1578 52.8235 34.5191 51.1982 36.335C51.014 36.5408 50.6962 36.543 50.499 36.3496L49.7852 35.6494C49.5884 35.4561 49.5867 35.141 49.7686 34.9336C51.0715 33.4483 51.8925 31.532 51.9902 29.4258L52 29.002L51.9893 28.5654C51.7618 23.7975 47.8242 20.0021 43 20.002C42.7631 20.002 42.5238 20.0132 42.2822 20.0322L41.375 20.1035L41.2188 19.2061C40.6245 15.7915 37.7223 13.1705 34.1787 13.0098L33.834 13.002C32.8237 13.002 31.8616 13.2023 30.9834 13.5635L30.1641 13.9004L29.7305 13.127C28.0181 10.0673 24.7502 8.00208 21 8.00195C15.4773 8.00213 11 12.4793 11 18.002L11.0059 18.3291C11.0171 18.6555 11.0442 18.9802 11.0859 19.3018L11.1953 20.1416L10.3848 20.3877C6.83726 21.4633 4.21835 24.67 4.01367 28.5156C4.00511 28.6766 4 28.8388 4 29.002C4.00024 31.2746 4.84223 33.3492 6.23242 34.9336C6.41421 35.1412 6.41191 35.4562 6.21484 35.6494L5.50098 36.3496C5.30379 36.543 4.98598 36.5408 4.80176 36.335C3.16943 34.5114 2.13579 32.1378 2.0127 29.5273L2 29.002L2.00781 28.5654C2.02169 28.2095 2.05465 27.8582 2.10156 27.5117C2.10996 27.4498 2.11753 27.3878 2.12695 27.3262C2.13764 27.2562 2.15011 27.1867 2.16211 27.1172C2.17452 27.0453 2.18737 26.9737 2.20117 26.9023C2.21164 26.8482 2.22214 26.7941 2.2334 26.7402C2.2478 26.6713 2.26263 26.6026 2.27832 26.5342C2.29473 26.4626 2.31228 26.3914 2.33008 26.3203C2.34349 26.2668 2.3569 26.2134 2.37109 26.1602C2.3916 26.0833 2.41343 26.0069 2.43555 25.9307C2.455 25.8636 2.4754 25.797 2.49609 25.7305C2.51437 25.6717 2.53252 25.613 2.55176 25.5547C2.56866 25.5034 2.58588 25.4523 2.60352 25.4014C2.63091 25.3223 2.65837 25.2433 2.6875 25.165C2.70178 25.1267 2.71773 25.0889 2.73242 25.0508C2.76644 24.9624 2.80069 24.8743 2.83691 24.7871C2.84737 24.7619 2.8585 24.737 2.86914 24.7119C3.08699 24.1982 3.34261 23.7046 3.63281 23.2344C3.6636 23.1845 3.69402 23.1343 3.72559 23.085C3.7594 23.0321 3.79441 22.98 3.8291 22.9277C3.85611 22.887 3.88263 22.846 3.91016 22.8057C3.91174 22.8033 3.91342 22.8011 3.91504 22.7988C5.16049 20.9787 6.93858 19.5522 9.02441 18.7432C9.00886 18.4989 9.00002 18.2514 9 18.002C9 11.3746 14.3728 6.00117 21 6.00098Z" fill="oklch(0.3523 0 0 / 1)" class="wd-expressive-fill"></path>
</g>
</svg>