<svg role="presentation" width="56" height="56" viewBox="0 0 56 56" xmlns="http://www.w3.org/2000/svg" class="wd-expressive wd-expressive-handshake-plus">
<g>
<path d="M34.602 37.5723C34.212 38.6413 34.0004 39.796 34.0004 41C34.0004 46.5228 38.4776 51 44.0004 51C47.522 50.9999 50.6163 49.1779 52.3979 46.4268C50.9991 50.2618 47.3194 52.9999 43.0004 53C37.4776 53 33.0004 48.5228 33.0004 43C33.0004 40.9988 33.5895 39.1356 34.602 37.5723Z" fill="oklch(0.3057 0.079 256.22 / 0.13)" class="wd-expressive-accent"></path>
<path d="M10.2807 27.6602C11.27 27.7641 12.2315 28.1959 12.9897 28.9541C13.7476 29.7121 14.1786 30.6731 14.2827 31.6621C14.2975 31.8035 14.2434 31.9424 14.143 32.043L15.5571 30.6289C15.6576 30.5284 15.7965 30.4744 15.9379 30.4893C16.9271 30.5933 17.8888 31.0241 18.6469 31.7822C19.4049 32.5403 19.8359 33.502 19.9399 34.4912C19.9546 34.6325 19.8997 34.7716 19.7993 34.8721L19.0922 35.5791C19.1927 35.4786 19.3318 35.4237 19.4731 35.4385C20.4622 35.5425 21.424 35.9734 22.1821 36.7314C22.9402 37.4895 23.371 38.4513 23.475 39.4404C23.4899 39.5818 23.4359 39.7207 23.3354 39.8213L22.6284 40.5283C22.7289 40.4279 22.8679 40.3738 23.0092 40.3887C23.9984 40.4927 24.9601 40.9236 25.7182 41.6816C26.4762 42.4398 26.9072 43.4015 27.0112 44.3906C27.0259 44.532 26.971 44.671 26.8705 44.7715L24.5649 47.0771C24.4644 47.1777 24.3254 47.2326 24.184 47.2178C23.1948 47.1138 22.2332 46.682 21.475 45.9238C20.7171 45.1658 20.2861 44.2048 20.1821 43.2158C20.1672 43.0745 20.2214 42.9355 20.3217 42.835L19.6147 43.542C19.5141 43.6424 19.3751 43.6965 19.2338 43.6816C18.2448 43.5776 17.2839 43.1466 16.5258 42.3887C15.7677 41.6305 15.3359 40.6689 15.2319 39.6797C15.2171 39.5383 15.272 39.3993 15.3725 39.2988C15.272 39.3994 15.133 39.4543 14.9916 39.4395C14.0025 39.3355 13.0408 38.9045 12.2827 38.1465C11.5246 37.3884 11.0937 36.4267 10.9897 35.4375C10.9748 35.2962 11.0289 35.1572 11.1293 35.0566L11.8364 34.3496C11.7358 34.45 11.5968 34.5041 11.4555 34.4893C10.4665 34.3852 9.50551 33.9542 8.7475 33.1963C7.98934 32.4381 7.55755 31.4766 7.45355 30.4873C7.43877 30.3459 7.49367 30.207 7.59418 30.1064L9.89984 27.8008C10.0003 27.7003 10.1394 27.6454 10.2807 27.6602Z" fill="oklch(0.3057 0.079 256.22 / 0.13)" class="wd-expressive-accent"></path>
<path d="M53.0004 27.6094C53.0004 27.8387 52.8439 28.039 52.6215 28.0947L50.3442 28.6641C49.4825 28.8795 48.6943 29.3216 48.06 29.9424C46.4909 29.334 44.7845 29 43.0004 29L38.059 24.0586C36.035 24.426 33.8716 23.8585 32.2631 22.3467C32.1167 22.2093 31.8879 22.2129 31.7455 22.3545L28.0912 26C26.8434 27.1532 25.1743 27.8583 23.3412 27.8584C21.695 27.8583 20.1811 27.289 18.9858 26.3379C18.764 26.1611 18.7588 25.8324 18.9594 25.6318L29.7651 14.8252C30.91 13.6804 32.538 13.162 34.144 13.3672C36.3765 13.6524 39.7598 14 43.0004 14C48.4857 14 52.9766 13.0053 53.0004 13V27.6094Z" fill="oklch(0.3057 0.079 256.22 / 0.13)" class="wd-expressive-accent"></path>
</g>
<g>
<path d="M43.4926 37.0002C43.7686 37.0005 43.9926 37.2242 43.9926 37.5002V41.9934H48.4995C48.7756 41.9934 48.9995 42.2172 48.9995 42.4934V43.4934C48.999 43.7692 48.7753 43.9934 48.4995 43.9934H43.9926V48.5002C43.9925 48.7761 43.7685 49 43.4926 49.0002H42.4926C42.2167 49.0001 41.9928 48.7762 41.9926 48.5002V43.9934H37.4995C37.2237 43.9933 36.9999 43.7691 36.9995 43.4934V42.4934C36.9995 42.2173 37.2234 41.9935 37.4995 41.9934H41.9926V37.5002C41.9926 37.2241 42.2166 37.0003 42.4926 37.0002H43.4926Z" fill="oklch(0.3523 0 0 / 1)" class="wd-expressive-fill"></path>
<path d="M42.9995 32.0002C49.0746 32.0002 53.9995 36.9251 53.9995 43.0002C53.9993 49.0752 49.0745 54.0002 42.9995 54.0002C36.9245 54.0001 31.9996 49.0752 31.9995 43.0002C31.9995 36.9252 36.9244 32.0003 42.9995 32.0002ZM42.9995 34.0002C38.029 34.0003 33.9995 38.0297 33.9995 43.0002C33.9996 47.9706 38.0291 52.0001 42.9995 52.0002C47.9699 52.0002 51.9993 47.9707 51.9995 43.0002C51.9995 38.0297 47.97 34.0002 42.9995 34.0002Z" fill="oklch(0.3523 0 0 / 1)" class="wd-expressive-fill"></path>
<path d="M10.3852 26.6662C11.5939 26.7934 12.7708 27.3204 13.6967 28.2463C14.1951 28.7447 14.577 29.3164 14.8442 29.926L14.8491 29.9221C15.1437 29.6275 15.5749 29.4452 16.0424 29.4944C17.2509 29.6215 18.4272 30.1488 19.353 31.0744C20.2789 32.0003 20.8069 33.1773 20.934 34.386C20.9475 34.5142 20.9412 34.6394 20.9223 34.76C21.6397 35.0272 22.3131 35.4487 22.8891 36.0246C23.8149 36.9505 24.3421 38.1275 24.4692 39.3362C24.4826 39.4641 24.4763 39.5888 24.4575 39.7092C25.175 39.9764 25.8482 40.3987 26.4243 40.9748C27.35 41.9007 27.8782 43.0768 28.0053 44.2854C28.0545 44.7528 27.872 45.1831 27.5776 45.4778L27.3139 45.7405L28.6743 47.1008C28.7898 47.2162 28.9555 47.2708 29.1137 47.2307C29.261 47.1933 29.4062 47.1457 29.5483 47.0891C29.8048 46.9869 30.1098 47.0652 30.2485 47.3039L30.7504 48.1682C30.889 48.407 30.8085 48.7151 30.5581 48.8313C30.0034 49.0886 29.4151 49.2492 28.8198 49.3118C28.3525 49.3606 27.9219 49.1785 27.6274 48.884L25.8989 47.1555L25.271 47.7844C24.9763 48.0789 24.546 48.2613 24.0786 48.2121C22.8699 48.085 21.693 47.557 20.767 46.6311C20.1913 46.0552 19.7696 45.3824 19.5024 44.6653C19.3819 44.6841 19.2565 44.6895 19.1284 44.676C17.9199 44.5488 16.7436 44.0216 15.8178 43.0959C15.0356 42.3137 14.538 41.3523 14.3256 40.344C13.3178 40.1315 12.3566 39.6347 11.5747 38.8528C10.649 37.927 10.1217 36.7507 9.99459 35.5422C9.98108 35.4137 9.98638 35.2881 10.0053 35.1672C9.28831 34.9 8.61526 34.4793 8.03951 33.9035C7.19737 33.0614 6.68586 32.0116 6.50435 30.9192L6.12642 30.5412C5.68748 30.1024 5.15174 29.7708 4.56295 29.5744L3.15767 29.1057C2.89595 29.0182 2.75496 28.7357 2.84224 28.4739L3.15865 27.5256C3.24602 27.2638 3.5286 27.122 3.79049 27.2092L5.19576 27.677C5.99335 27.9429 6.72493 28.3749 7.3442 28.9407L9.19283 27.093C9.48746 26.7986 9.91782 26.6171 10.3852 26.6662ZM21.2124 43.3586C21.3334 44.0394 21.6554 44.6904 22.1821 45.217C22.7088 45.7437 23.3596 46.0658 24.0405 46.1868L25.9799 44.2473C25.8589 43.5666 25.5368 42.9155 25.0102 42.3889C24.4835 41.8622 23.8326 41.5392 23.1518 41.4182L21.2124 43.3586ZM16.2622 39.8225C16.3831 40.5035 16.7051 41.1551 17.2319 41.6819C17.7587 42.2086 18.4104 42.5297 19.0913 42.6506L22.4448 39.2971C22.3238 38.6163 22.0007 37.9654 21.4741 37.4387C20.9476 36.9123 20.2972 36.59 19.6167 36.469L16.2622 39.8225ZM12.02 35.5803C12.141 36.2612 12.463 36.912 12.9897 37.4387C13.5165 37.9654 14.1672 38.2875 14.8481 38.4084L18.9096 34.3469C18.7886 33.6663 18.4654 33.016 17.9389 32.4895C17.4123 31.9628 16.7613 31.6398 16.0805 31.5188L12.02 35.5803ZM8.48384 30.6301C8.60479 31.3111 8.92677 31.9627 9.45357 32.4895C9.98036 33.0162 10.632 33.3373 11.3129 33.4582L13.2524 31.5188C13.1314 30.8381 12.8083 30.187 12.2817 29.6604C11.7552 29.134 11.1048 28.8117 10.4243 28.6907L8.48384 30.6301Z" fill="oklch(0.3523 0 0 / 1)" class="wd-expressive-fill"></path>
<path d="M52.2719 27.1516C52.5399 27.0846 52.8115 27.2479 52.8784 27.5159L53.1206 28.4846C53.1874 28.7523 53.0248 29.0238 52.7573 29.091L50.5854 29.635C49.8823 29.8109 49.2395 30.1743 48.727 30.6868L48.56 30.8537C48.3648 31.0493 48.0484 31.0491 47.853 30.8537L47.146 30.1477C46.9509 29.9526 46.9503 29.636 47.145 29.4407L47.3129 29.2727C48.0817 28.504 49.0454 27.9584 50.1001 27.6946L52.2719 27.1516Z" fill="oklch(0.3523 0 0 / 1)" class="wd-expressive-fill"></path>
<path d="M52.3129 12.1164C52.5841 12.0649 52.8463 12.2394 52.9008 12.51L53.0981 13.4905C53.1526 13.7612 52.9778 14.0256 52.7065 14.0774C51.2316 14.3586 47.455 15.0002 42.9995 15.0002H42.977L42.9741 14.9993C39.6798 14.9974 36.2604 14.6463 34.0161 14.3596C32.7001 14.1915 31.3853 14.6183 30.4711 15.5325L20.0981 25.9055C21.033 26.5075 22.1446 26.8586 23.3403 26.8586C24.9081 26.8586 26.3333 26.2574 27.4028 25.2727L31.0376 21.6467C31.5619 21.1236 32.4069 21.1113 32.9467 21.6184C35.1926 23.7294 38.7095 23.6747 40.8891 21.4953L43.0922 19.2932L44.5063 20.7073L42.3042 22.9094C41.621 23.5925 40.8399 24.1193 40.0063 24.4924L43.9516 28.4397C44.1469 28.6349 44.1469 28.9515 43.9516 29.1467L43.2456 29.8537C43.0503 30.049 42.7328 30.049 42.5376 29.8537L37.7915 25.1067C35.7872 25.3502 33.7034 24.8094 32.0385 23.4729L28.7963 26.7082L28.7827 26.7209L28.769 26.7346C27.3436 28.0518 25.4348 28.8586 23.3403 28.8586C21.4598 28.8586 19.7277 28.2082 18.3618 27.1213C17.6336 26.5416 17.6644 25.5116 18.2504 24.925L26.5581 16.6164L24.562 15.2317C23.5347 14.519 22.176 14.2844 20.8305 14.4885C20.2106 14.5825 19.4745 14.6743 18.6176 14.7551C18.6143 14.7555 18.6112 14.7577 18.6079 14.758C18.5931 14.7594 18.5778 14.7596 18.5629 14.761C18.2266 14.7923 17.8719 14.8212 17.4985 14.8479C17.2168 14.868 16.9246 14.8868 16.6215 14.9035C16.5898 14.9053 16.5579 14.9067 16.5258 14.9084C16.2181 14.9249 15.8995 14.939 15.5698 14.9514C15.5276 14.953 15.4853 14.9557 15.4428 14.9573C15.1065 14.9692 14.7589 14.9776 14.3999 14.9846C14.3171 14.9862 14.2338 14.9881 14.1499 14.9895C13.7787 14.9954 13.3956 15.0002 13.0004 15.0002C7.4494 15.0002 4.97873 14.4999 3.25142 14.0901C2.98273 14.0263 2.81857 13.755 2.88326 13.4866L3.11763 12.5139C3.18231 12.2455 3.45158 12.081 3.72017 12.1448C5.32699 12.5268 7.65508 12.9992 12.9995 12.9993C16.4556 12.9993 18.9325 12.7534 20.5307 12.511C22.2665 12.2477 24.1682 12.5244 25.7016 13.5881L27.9956 15.1789L29.0571 14.1184C30.4326 12.7428 32.373 12.1341 34.269 12.3762C35.9123 12.5862 38.173 12.8268 40.5288 12.9377C40.5369 12.9376 40.545 12.9364 40.5532 12.9368C40.9704 12.9528 41.4587 12.9664 41.894 12.9768C42.2052 12.9842 42.486 12.9905 42.6889 12.9944C42.7903 12.9963 42.8727 12.9983 42.9292 12.9993C42.9439 12.9995 42.957 12.9991 42.9682 12.9993C42.9786 12.9993 42.9891 13.0002 42.9995 13.0002C47.2606 13.0002 50.8842 12.3882 52.3129 12.1164Z" fill="oklch(0.3523 0 0 / 1)" class="wd-expressive-fill"></path>
</g>
</svg>