<svg role="presentation" width="56" height="56" viewBox="0 0 56 56" xmlns="http://www.w3.org/2000/svg" class="wd-expressive wd-expressive-book">
<g>
<path d="M44 53H13C11.8954 53 11 52.1046 11 51V47C11 45.8954 11.8954 45 13 45H11V7C11 5 13 3 15 3V45H44V53Z" fill="oklch(0.3057 0.079 256.22 / 0.13)" class="wd-expressive-accent"></path>
<path d="M28 16.793C27.9999 17.2384 27.4615 17.4614 27.1465 17.1465L24 14L20.8535 17.1465C20.5385 17.4614 20.0001 17.2384 20 16.793V3H28V16.793Z" fill="oklch(0.3057 0.079 256.22 / 0.13)" class="wd-expressive-accent"></path>
</g>
<path d="M44.5 2C45.3284 2 46 2.67157 46 3.5C46 17.2585 46 31.0169 46 44.7754C46 45 45.9837 45.3543 45.7998 45.5996L45.0498 46.5996C43.9833 48.0217 43.9835 49.9782 45.0498 51.4004L45.499 52C45.7752 52 46 52.2239 46 52.5V53.5C46 53.7761 45.7761 54 45.5 54H15C12.2386 54 10 51.7614 10 49V7C10 4.23858 12.2386 2 15 2H44.5ZM15 46C13.3431 46 12 47.3431 12 49C12 50.6569 13.3431 52 15 52H43.0547C41.9831 50.1458 41.9837 47.854 43.0557 46H15ZM15 4C13.3431 4 12 5.34315 12 7V45C12.8357 44.3722 13.8743 44 15 44H44V4H29V16.793C28.9999 18.1293 27.3844 18.7984 26.4395 17.8535L24 15.4141L21.5605 17.8535C20.6451 18.7689 19.1004 18.1694 19.0049 16.916L19 16.793V4H15ZM21 15.5859L24 12.5859L27 15.5859V4H21V15.5859Z" fill="oklch(0.3523 0 0 / 1)" class="wd-expressive-fill"></path>
</svg>