<svg role="presentation" width="56" height="56" viewBox="0 0 56 56" xmlns="http://www.w3.org/2000/svg" class="wd-expressive wd-expressive-car">
<g>
<path d="M8.80273 43C8.93423 43 9.06539 43.0133 9.19434 43.0391L13.8057 43.9609C13.9348 43.9868 14.0666 44 14.1982 44H15V46C15 47.1046 14.1046 48 13 48H10C8.89558 47.9998 8 47.1045 8 46V43H8.80273Z" fill="oklch(0.3057 0.079 256.22 / 0.13)" class="wd-expressive-accent"></path>
<path d="M48 46C48 47.1046 47.1046 48 46 48H43C41.8956 47.9998 41 47.1045 41 46V44H41.8027C41.9342 44 42.0654 43.9867 42.1943 43.9609L46.8057 43.0391C46.9348 43.0132 47.0666 43 47.1982 43H48V46Z" fill="oklch(0.3057 0.079 256.22 / 0.13)" class="wd-expressive-accent"></path>
<path d="M49 37.5605C49 38.4205 48.452 39.1877 47.6279 39.4336C42.2444 41.0398 35.4218 42 28 42C20.578 42 13.7547 41.0399 8.37109 39.4336C7.54753 39.1875 7 38.4202 7 37.5605V37.1465C13.0617 38.3189 20.2682 39 28 39C35.7318 39 42.9382 38.3189 49 37.1465V37.5605Z" fill="oklch(0.3057 0.079 256.22 / 0.13)" class="wd-expressive-accent"></path>
<path d="M17.8125 31.9238C17.6256 32.6214 17.3029 33.2757 16.8633 33.8486C16.4236 34.4215 15.8753 34.9026 15.25 35.2637C14.6246 35.6247 13.9337 35.8589 13.2178 35.9531C12.5019 36.0473 11.7746 35.9993 11.0771 35.8125C10.3795 35.6256 9.72536 35.303 9.15234 34.8633C8.57933 34.4236 8.09844 33.8755 7.7373 33.25C7.37618 32.6245 7.14212 31.9338 7.04785 31.2178C6.95361 30.5017 7.00058 29.7738 7.1875 29.0762L17.8125 31.9238Z" fill="oklch(0.3057 0.079 256.22 / 0.13)" class="wd-expressive-accent"></path>
<path d="M48.8125 29.0762C48.9994 29.7738 49.0474 30.5018 48.9531 31.2178C48.8589 31.9338 48.6247 32.6245 48.2637 33.25C47.9026 33.8754 47.4216 34.4236 46.8486 34.8633C46.2756 35.303 45.6215 35.6256 44.9238 35.8125C44.2262 35.9994 43.4983 36.0474 42.7822 35.9531C42.0662 35.8588 41.3755 35.6248 40.75 35.2637C40.1246 34.9026 39.5764 34.4216 39.1367 33.8486C38.6971 33.2757 38.3744 32.6214 38.1875 31.9238L48.8125 29.0762Z" fill="oklch(0.3057 0.079 256.22 / 0.13)" class="wd-expressive-accent"></path>
<path d="M49 21.001C50.1046 21.0009 51 21.8964 51 23.001V23.8145C50.9999 24.3833 50.7649 24.9358 50.3057 25.2715C49.6324 25.7635 48.8877 26.1627 48.0908 26.4541C47.4137 25.1737 46.3834 24.0034 45.0732 23H45L44.4111 21.0889C44.5973 21.0316 44.7951 21.001 45 21.001H49Z" fill="oklch(0.3057 0.079 256.22 / 0.13)" class="wd-expressive-accent"></path>
<path d="M11 21C11.2046 21 11.402 21.0308 11.5879 21.0879L11 23H10.9268C9.61698 24.0032 8.58725 25.1731 7.91016 26.4531C7.11299 26.1616 6.36773 25.7627 5.69434 25.2705C5.23541 24.9348 5.00007 24.3831 5 23.8145V23C5.00014 21.9646 5.78747 21.1131 6.7959 21.0107L7 21H11Z" fill="oklch(0.3057 0.079 256.22 / 0.13)" class="wd-expressive-accent"></path>
<path d="M42 23C37.8364 24.7217 32.441 25.8173 26.5 25.9766C20.5591 25.8173 15.1635 24.7217 11 23L13.4619 15H39.5381L42 23Z" fill="oklch(0.3057 0.079 256.22 / 0.13)" class="wd-expressive-accent"></path>
</g>
<g>
<path d="M8.5 43C8.77614 43 9 43.2239 9 43.5V46C9 46.5523 9.44772 47 10 47H13C13.5523 47 14 46.5523 14 46V44.5C14 44.2239 14.2239 44 14.5 44H15.5C15.7761 44 16 44.2239 16 44.5V46C16 47.6569 14.6569 49 13 49H10C8.34315 49 7 47.6569 7 46V43.5C7 43.2239 7.22386 43 7.5 43H8.5Z" fill="oklch(0.3523 0 0 / 1)" class="wd-expressive-fill"></path>
<path d="M48.5 43C48.7761 43 49 43.2239 49 43.5V46C49 47.6569 47.6569 49 46 49H43C41.3431 49 40 47.6569 40 46V44.5C40 44.2239 40.2239 44 40.5 44H41.5C41.7761 44 42 44.2239 42 44.5V46C42 46.5523 42.4477 47 43 47H46C46.5523 47 47 46.5523 47 46V43.5C47 43.2239 47.2239 43 47.5 43H48.5Z" fill="oklch(0.3523 0 0 / 1)" class="wd-expressive-fill"></path>
<path d="M34.5 34C34.7761 34 35 34.2239 35 34.5V35.5C35 35.7761 34.7761 36 34.5 36H21.5C21.2239 36 21 35.7761 21 35.5V34.5C21 34.2239 21.2239 34 21.5 34H34.5Z" fill="oklch(0.3523 0 0 / 1)" class="wd-expressive-fill"></path>
<path d="M34.5 31C34.7761 31 35 31.2239 35 31.5V32.5C35 32.7761 34.7761 33 34.5 33H21.5C21.2239 33 21 32.7761 21 32.5V31.5C21 31.2239 21.2239 31 21.5 31H34.5Z" fill="oklch(0.3523 0 0 / 1)" class="wd-expressive-fill"></path>
<path d="M37.3066 9C39.9404 9 42.2672 10.7179 43.042 13.2354L45.123 20.001H49L49.1543 20.0049C50.7394 20.0853 52 21.396 52 23.001V23.8145C51.9999 24.6456 51.6547 25.5241 50.8955 26.0791C50.4345 26.416 49.9424 26.7123 49.4258 26.9668C49.7976 27.9255 50 28.9412 50 30V37.5605L49.9902 37.7998C49.8954 38.9863 49.1009 40.0374 47.9141 40.3916C42.4223 42.0301 35.5013 43 28 43C20.4987 43 13.5777 42.0301 8.08594 40.3916C6.89915 40.0374 6.10462 38.9863 6.00977 37.7998L6 37.5605V30C6 28.9416 6.20183 27.9262 6.57324 26.9678C6.05695 26.7127 5.56548 26.415 5.10449 26.0781C4.34635 25.5236 4.00014 24.6463 4 23.8145V23C4.00026 21.446 5.18179 20.1692 6.69531 20.0156C6.71114 20.014 6.72727 20.0126 6.74316 20.0117L6.94727 20.001C6.96469 20.0001 6.98255 20 7 20H10.876L12.958 13.2354C13.7328 10.7179 16.0596 9 18.6934 9H37.3066ZM44.8721 24.125C40.287 25.9261 34.3977 27 28 27C21.6019 27 15.7122 25.9263 11.127 24.125C9.64568 25.3627 8.65352 26.7968 8.23145 28.3203L18.0713 30.958C18.6048 31.101 18.9213 31.6492 18.7783 32.1826C18.5574 33.0069 18.1767 33.78 17.6572 34.457C17.1376 35.1342 16.4892 35.7021 15.75 36.1289C15.0108 36.5557 14.1948 36.8329 13.3486 36.9443C12.5023 37.0558 11.6419 36.9992 10.8174 36.7783C9.99306 36.5574 9.22004 36.1767 8.54297 35.6572C8.35274 35.5113 8.17228 35.3539 8 35.1885V37.5605L8.0127 37.7207C8.0708 38.0848 8.32413 38.3759 8.6582 38.4756C13.9336 40.0495 20.6575 41 28 41C35.3424 41 42.0664 40.0495 47.3418 38.4756C47.6759 38.3759 47.9292 38.0848 47.9873 37.7207L48 37.5605V35.1885C47.8277 35.3539 47.6473 35.5113 47.457 35.6572C46.78 36.1767 46.0069 36.5574 45.1826 36.7783C44.3581 36.9992 43.4977 37.0558 42.6514 36.9443C41.8052 36.8329 40.9892 36.5557 40.25 36.1289C39.5108 35.7021 38.8624 35.1342 38.3428 34.457C37.8233 33.78 37.4426 33.0069 37.2217 32.1826C37.0787 31.6492 37.3952 31.101 37.9287 30.958L47.7676 28.3203C47.3453 26.7968 46.3536 25.3627 44.8721 24.125ZM8.00391 30.3301C7.99437 30.5823 8.00501 30.8355 8.03809 31.0869C8.11521 31.6728 8.30711 32.2383 8.60254 32.75C8.89801 33.2618 9.29191 33.7106 9.76074 34.0703C10.2294 34.4299 10.7644 34.6937 11.335 34.8467C11.9056 34.9996 12.5012 35.039 13.0869 34.9619C13.6727 34.8848 14.2383 34.6929 14.75 34.3975C15.2618 34.102 15.7106 33.7081 16.0703 33.2393C16.2247 33.0381 16.3597 32.8238 16.4775 32.6006L8.00391 30.3301ZM39.5225 32.6006C39.6403 32.8238 39.7753 33.0381 39.9297 33.2393C40.2894 33.7081 40.7382 34.102 41.25 34.3975C41.7617 34.6929 42.3273 34.8848 42.9131 34.9619C43.4988 35.039 44.0944 34.9996 44.665 34.8467C45.2356 34.6937 45.7706 34.4299 46.2393 34.0703C46.7081 33.7106 47.102 33.2618 47.3975 32.75C47.6929 32.2383 47.8848 31.6728 47.9619 31.0869C47.995 30.8355 48.0056 30.5823 47.9961 30.3301L39.5225 32.6006ZM6.88184 22.0088C6.41713 22.0632 6.04959 22.4366 6.00488 22.9043L6 23V23.8145C6.00013 24.1192 6.12485 24.346 6.28418 24.4629C6.66329 24.74 7.06854 24.9827 7.49414 25.1904C8.18644 24.1348 9.09279 23.1743 10.1582 22.334L10.2607 22H7.03418L6.88184 22.0088ZM45.8408 22.334C46.9063 23.1743 47.8124 24.1349 48.5049 25.1904C48.9308 24.983 49.3366 24.741 49.7158 24.4639C49.8746 24.3475 49.9999 24.1204 50 23.8145V23.001C49.9999 22.4488 49.5521 22.0011 49 22.001H45.7383L45.8408 22.334ZM12.2275 22.4092C16.4894 24.0184 21.9807 25 28 25C34.0189 25 39.5097 24.0183 43.7715 22.4092L41.7998 16H14.2002L12.2275 22.4092ZM18.6934 11C16.9374 11 15.3867 12.1452 14.8701 13.8232L14.8154 14H41.1846L41.1299 13.8232C40.6133 12.1452 39.0626 11 37.3066 11H18.6934Z" fill="oklch(0.3523 0 0 / 1)" class="wd-expressive-fill"></path>
</g>
</svg>