<svg role="presentation" width="56" height="56" viewBox="0 0 56 56" xmlns="http://www.w3.org/2000/svg" class="wd-expressive wd-expressive-inbox">
<g>
<path d="M14.4336 31C17.0763 35.77 22.1606 38.9999 28 39C33.8395 38.9999 38.9247 35.7702 41.5674 31H50V45H3V31H14.4336Z" fill="oklch(0.3057 0.079 256.22 / 0.13)" class="wd-expressive-accent"></path>
<path d="M9 28H3L9 18V28Z" fill="oklch(0.3057 0.079 256.22 / 0.13)" class="wd-expressive-accent"></path>
<path d="M53 28H47V18L53 28Z" fill="oklch(0.3057 0.079 256.22 / 0.13)" class="wd-expressive-accent"></path>
<path d="M43 11H45V15H11V11H13V7H43V11Z" fill="oklch(0.3057 0.079 256.22 / 0.13)" class="wd-expressive-accent"></path>
</g>
<path d="M41 6C42.6568 6.00007 44 7.34319 44 9V10.1738C45.1648 10.5859 46 11.6941 46 13V14.1738C47.1648 14.5859 48 15.6941 48 17V17.7227L53.7861 27.3672C53.9259 27.6002 54 27.8669 54 28.1387V44.5C54 45.3284 53.3284 45.9999 52.5 46H3.5C2.67174 45.9998 2.00004 45.3283 2 44.5V28.1387C2.00001 27.8669 2.07412 27.6002 2.21387 27.3672L8 17.7227V17C8 15.6943 8.83548 14.586 10 14.1738V13C10 11.6943 10.8355 10.586 12 10.1738V9C12 7.34326 13.3433 6.00018 15 6H41ZM4 44H52V29H40.3262C38.2212 33.7113 33.4982 37 28 37C22.5019 36.9999 17.7797 33.7111 15.6748 29H4V44ZM28.8008 28.6768C28.3116 28.9856 27.6884 28.9857 27.1992 28.6768L10 17.8145V27H15.9961C16.5829 27.0001 17.0927 27.3385 17.3428 27.832L17.3896 27.9326L17.5596 28.3184C19.3832 32.2642 23.372 34.9999 28 35C32.7776 35 36.8747 32.0849 38.6113 27.9326C38.8403 27.3851 39.379 27.0001 40.0049 27H46V17.8145L28.8008 28.6768ZM4.76562 27H8V21.6094L4.76562 27ZM48 27H51.2344L48 21.6094V27ZM11 16C10.9607 16 10.9219 16.0024 10.8838 16.0068L28 26.8174L45.1152 16.0068C45.0774 16.0025 45.039 16 45 16H11ZM13 12C12.4479 12.0002 12 12.4478 12 13V14H44V13C44 12.4478 43.5522 12.0001 43 12H13ZM15 8C14.4479 8.00018 14 8.44783 14 9V10H42V9C42 8.44776 41.5522 8.00007 41 8H15Z" fill="oklch(0.3523 0 0 / 1)" class="wd-expressive-fill"></path>
</svg>