<svg role="presentation" width="56" height="56" viewBox="0 0 56 56" xmlns="http://www.w3.org/2000/svg" class="wd-expressive wd-expressive-leaf-sustainability">
<path d="M35.6514 22.4209C36.4623 24.3563 37 26.5587 37 29C37 35.0751 32.9706 39 28 39C23.0294 39 19 35.0751 19 29C19 26.5588 19.5368 24.3562 20.3477 22.4209C20.1264 23.548 20 24.7424 20 26C20 32.0751 23.5817 36 28 36C32.4183 36 36 32.0751 36 26C36 24.7423 35.8726 23.5481 35.6514 22.4209Z" fill="oklch(0.3057 0.079 256.22 / 0.13)" class="wd-expressive-accent"></path>
<path d="M23.3476 4.45288C29.1947 3.29733 35.2634 4.35951 40.371 7.4314C45.4784 10.5035 49.2606 15.3663 50.9804 21.073C52.6999 26.7797 52.2345 32.9229 49.6747 38.3054C47.3023 43.2935 43.2876 47.2971 38.3251 49.6619C39.0927 49.5905 39.8705 49.5505 40.6562 49.5505C42.3945 49.5506 44.0941 49.7276 45.7343 50.0652C46.004 50.1214 46.1731 50.3892 46.1122 50.658L45.8905 51.6345C45.8293 51.9032 45.561 52.071 45.2909 52.0164C43.7948 51.711 42.2442 51.5506 40.6562 51.5505C39.1288 51.5505 37.636 51.6983 36.1933 51.9812C36.1883 51.9822 36.1826 51.9823 36.1776 51.9832C36.1387 51.9902 36.099 51.9944 36.0595 51.9968C36.0473 51.9976 36.0345 51.9994 36.0224 51.9998C35.9773 52.0008 35.9317 51.998 35.8866 51.9929C35.8804 51.9922 35.8734 51.9918 35.8671 51.991C35.818 51.9844 35.7688 51.9737 35.7206 51.9597L35.7167 51.9587C35.6731 51.9458 35.6299 51.929 35.5878 51.9099C35.5803 51.9065 35.5718 51.9037 35.5644 51.9001C35.5534 51.8948 35.541 51.8902 35.5302 51.8845C35.504 51.8706 35.4795 51.8527 35.455 51.8367C35.4459 51.8308 35.4356 51.8253 35.4267 51.8191C35.3959 51.7975 35.3665 51.7734 35.3388 51.7488C35.3257 51.7372 35.3122 51.7249 35.2997 51.7126C35.276 51.6892 35.2534 51.6639 35.2323 51.6384C35.2193 51.6228 35.2063 51.6061 35.1942 51.5896C35.1768 51.5655 35.1606 51.5399 35.1454 51.5144C35.1367 51.4999 35.1262 51.4855 35.1181 51.4705L35.0985 51.4314C35.0907 51.4149 35.0859 51.3965 35.079 51.3796C35.071 51.3601 35.0604 51.3409 35.0536 51.321L35.0419 51.2839C35.0382 51.2714 35.0372 51.2576 35.0341 51.2449C35.0256 51.2112 35.0166 51.1774 35.0116 51.1433C35.009 51.1248 35.0083 51.1054 35.0067 51.0867C35.0038 51.0529 35.0013 51.0188 35.0019 50.9851C35.0022 50.9664 35.0044 50.9473 35.0058 50.9285C35.0082 50.8955 35.0109 50.8624 35.0165 50.8298C35.0177 50.8232 35.0182 50.816 35.0194 50.8093C35.3023 49.3668 35.45 47.8735 35.4501 46.3464C35.4501 44.7585 35.2895 43.2077 34.9843 41.7117C34.9291 41.4413 35.0972 41.1734 35.3661 41.1121L36.3427 40.8904C36.6117 40.8298 36.8798 40.9982 36.9355 41.2683C37.273 42.9085 37.4501 44.6082 37.4501 46.3464C37.4501 46.8642 37.4305 47.3783 37.3993 47.8884C41.9786 45.7248 45.6839 42.0404 47.869 37.446C50.2153 32.5122 50.6415 26.8811 49.0653 21.6501C47.4889 16.4189 44.0217 11.9613 39.3398 9.14527C34.6577 6.32933 29.0952 5.35645 23.7353 6.41577C18.3754 7.47526 13.6013 10.4913 10.3427 14.8767C7.08435 19.262 5.57331 24.703 6.10538 30.1404C6.63774 35.5779 9.17456 40.6244 13.2216 44.2947C17.021 47.7401 21.8969 49.7421 26.9999 49.9744V39.9509C21.8976 39.4544 17.9999 35.1662 17.9999 28.9998C18 24.2367 19.9236 20.3516 22.0028 17.5447C24.0804 14.7401 26.3491 12.9612 27.1425 12.3816C27.6245 12.0295 28.2577 12.0074 28.7587 12.3152L28.8573 12.3816L29.2206 12.655C30.2147 13.4221 32.1791 15.0908 33.997 17.5447C36.0762 20.3516 37.9998 24.2367 37.9999 28.9998C37.9999 35.1665 34.1026 39.4547 28.9999 39.9509V51.4998C28.9999 51.7759 28.7761 51.9998 28.4999 51.9998H27.4999C27.4637 51.9997 27.4285 51.9954 27.3944 51.988C21.6519 51.843 16.143 49.644 11.8778 45.7761C7.46288 41.7721 4.69589 36.2675 4.11514 30.3357C3.53455 24.4038 5.1825 18.4675 8.73721 13.6834C12.2921 8.89938 17.5005 5.60866 23.3476 4.45288ZM27.9999 14.238C27.1044 14.9292 25.2869 16.4704 23.6093 18.7351C21.6957 21.3185 20 24.7947 19.9999 28.9998C19.9999 34.1524 23.1 37.4542 26.9999 37.9363V19.4998C27.0001 19.2239 27.2241 18.9999 27.4999 18.9998H28.4999C28.7759 18.9998 28.9997 19.2238 28.9999 19.4998V37.9363C32.9001 37.4545 35.9999 34.1527 35.9999 28.9998C35.9998 24.7947 34.3041 21.3185 32.3905 18.7351C30.713 16.4706 28.8954 14.9291 27.9999 14.238Z" fill="oklch(0.3523 0 0 / 1)" class="wd-expressive-fill"></path>
</svg>