<svg role="presentation" width="56" height="56" viewBox="0 0 56 56" xmlns="http://www.w3.org/2000/svg" class="wd-expressive wd-expressive-grad-cap-search">
<g>
<path d="M35.1514 33.1533C34.4239 34.2572 34 35.5791 34 37C34 40.8659 37.1342 43.9998 41 44C42.4215 44 43.7435 43.5747 44.8476 42.8467C43.5958 44.7458 41.4447 46 39 46C35.1342 45.9998 32 42.8659 32 39C32 36.5561 33.2533 34.4054 35.1514 33.1533Z" fill="oklch(0.3057 0.079 256.22 / 0.13)" class="wd-expressive-accent"></path>
<path d="M5.00096 29C6.10526 29.0003 7.00096 29.8956 7.00096 31C7.00096 31.6251 6.71277 32.1821 6.26366 32.5488L7.3242 36.3662C7.41265 36.6847 7.1733 36.9999 6.84276 37H3.15819C2.82762 36.9999 2.58826 36.6848 2.67674 36.3662L3.73631 32.5488C3.28753 32.1821 3.00096 31.6248 3.00096 31C3.00096 29.8954 3.89639 29 5.00096 29Z" fill="oklch(0.3057 0.079 256.22 / 0.13)" class="wd-expressive-accent"></path>
<path d="M36.5 21C36.7761 21 37 21.2239 37 21.5V22.0039C37 22.7783 36.5563 23.4899 35.8389 23.7812C32.4072 25.174 28.1329 26 23.5 26C18.8672 26 14.5936 25.174 11.1621 23.7812C10.4445 23.49 9.99998 22.7784 9.99998 22.0039V21.5C9.99998 21.224 10.224 21.0002 10.5 21H36.5Z" fill="oklch(0.3057 0.079 256.22 / 0.13)" class="wd-expressive-accent"></path>
</g>
<g>
<path d="M38.9999 31C43.4181 31 46.9999 34.5817 46.9999 39C46.9999 40.8486 46.3702 42.5487 45.3172 43.9033L51.3534 49.9395C51.5486 50.1347 51.5486 50.4512 51.3534 50.6465L50.6463 51.3535C50.4511 51.5483 50.1344 51.5486 49.9393 51.3535L43.9032 45.3174C42.5486 46.3703 40.8484 47 38.9999 47C34.5816 46.9999 30.9999 43.4182 30.9999 39C30.9999 34.5818 34.5816 31.0001 38.9999 31ZM38.9999 33C35.6862 33.0001 32.9999 35.6863 32.9999 39C32.9999 42.3137 35.6862 44.9999 38.9999 45C42.3136 45 44.9999 42.3137 44.9999 39C44.9999 35.6863 42.3136 33 38.9999 33Z" fill="oklch(0.3523 0 0 / 1)" class="wd-expressive-fill"></path>
<path d="M39.3993 10C39.9995 10.0005 40.5424 10.3591 40.7782 10.9111L44.6219 19.9111C45.044 20.9002 44.3183 21.9992 43.243 22H37.9999V27.5C37.9999 27.7761 37.7759 27.9999 37.4999 28H36.4999C36.2237 28 35.9999 27.7761 35.9999 27.5V22H10.9999V30.0205C10.9999 30.3175 11.1256 30.5736 11.3202 30.7295C14.6575 33.4021 18.891 34.9999 23.4999 35C25.4867 35 27.4031 34.7034 29.2069 34.1523C29.4711 34.0716 29.7542 34.2126 29.8417 34.4746L30.1581 35.4219C30.2454 35.6836 30.1042 35.9673 29.8407 36.0488C27.8354 36.6669 25.7052 37 23.4999 37C18.4204 36.9999 13.7494 35.2373 10.0702 32.291C9.3651 31.7263 8.99986 30.8762 8.99986 30.0205V22H6.00084V28.1738C7.16498 28.5862 7.99986 29.6945 7.99986 31C7.99986 31.6879 7.76576 32.3196 7.37779 32.8242L8.28795 36.0986C8.53661 36.9943 7.92055 37.8817 7.02525 37.9893L6.84264 38H3.15807C2.16532 38 1.4476 37.0536 1.71275 36.0986L2.62193 32.8252C2.23377 32.3205 1.99986 31.6882 1.99986 31C1.99986 29.6938 2.83582 28.5858 4.00084 28.1738V22H3.7567C2.68095 21.9997 1.95545 20.9005 2.37779 19.9111L6.22154 10.9111L6.26939 10.8096C6.52567 10.3154 7.03764 10.0001 7.60045 10H39.3993ZM4.99986 30C4.44751 30.0002 3.99986 30.4481 3.99986 31C3.99986 31.3106 4.14147 31.5885 4.369 31.7744C4.67601 32.0254 4.80609 32.4343 4.70006 32.8164L3.81627 36H6.18443L5.29967 32.8164C5.19358 32.4343 5.32362 32.0254 5.63072 31.7744C5.85808 31.5887 5.99986 31.311 5.99986 31C5.99986 30.4478 5.55206 30.0001 4.99986 30ZM6.64928 15H23.4999C23.776 15 23.9999 15.2239 23.9999 15.5V16.5C23.9999 16.7761 23.776 17 23.4999 17H5.79576L4.51451 20H42.4852L39.0692 12H7.93053L6.64928 15Z" fill="oklch(0.3523 0 0 / 1)" class="wd-expressive-fill"></path>
</g>
</svg>