<svg role="presentation" width="56" height="56" viewBox="0 0 56 56" xmlns="http://www.w3.org/2000/svg" class="wd-expressive wd-expressive-tent">
<g>
<path d="M28 10.0005L14 47.0005H6L28 8.00049V10.0005Z" fill="oklch(0.3057 0.079 256.22 / 0.13)" class="wd-expressive-accent"></path>
<path d="M28 26.9995C28.0078 27.0401 30.5149 40.0115 40 47.0005H16C25.4851 40.0115 27.9922 27.0401 28 26.9995Z" fill="oklch(0.3057 0.079 256.22 / 0.13)" class="wd-expressive-accent"></path>
</g>
<path d="M28.5 3C28.7761 3 29 3.22386 29 3.5V7.73633L50 44.9639V41.5C50 41.2239 50.2239 41 50.5 41H51.5C51.7761 41 52 41.2239 52 41.5V47.5C52 47.7761 51.7761 48 51.5 48H4.5C4.22386 48 4 47.7761 4 47.5V41.5C4 41.2239 4.22386 41 4.5 41H5.5C5.77614 41 6 41.2239 6 41.5V44.9639L27 7.73633V3.5C27 3.22386 27.2239 3 27.5 3H28.5ZM7.71191 46H15.666C20.0711 42.6544 22.9052 37.9377 24.6475 33.9727C25.5323 31.9589 26.1269 30.1578 26.5 28.8633C26.6864 28.2166 26.8169 27.6974 26.9004 27.3428C26.9421 27.1656 26.972 27.0296 26.9912 26.9395C27.0008 26.8943 27.0083 26.8605 27.0127 26.8389C27.0148 26.8283 27.0157 26.8201 27.0166 26.8154L27.0176 26.8115C27.1081 26.3407 27.5205 26 28 26C28.4795 26 28.8919 26.3407 28.9824 26.8115L28.9834 26.8154C28.9843 26.8201 28.9852 26.8283 28.9873 26.8389C28.9917 26.8605 28.9992 26.8943 29.0088 26.9395C29.028 27.0296 29.0579 27.1656 29.0996 27.3428C29.1831 27.6974 29.3136 28.2166 29.5 28.8633C29.8731 30.1578 30.4677 31.9589 31.3525 33.9727C33.0948 37.9377 35.9289 42.6544 40.334 46H48.2881L28 10.0352L7.71191 46ZM28 30.7852C27.6239 31.9381 27.1252 33.3033 26.4775 34.7773C24.9166 38.3297 22.4709 42.5717 18.7705 46H37.2295C33.5291 42.5717 31.0834 38.3297 29.5225 34.7773C28.8748 33.3033 28.3761 31.9381 28 30.7852Z" fill="oklch(0.3523 0 0 / 1)" class="wd-expressive-fill"></path>
</svg>