<svg role="presentation" width="56" height="56" viewBox="0 0 56 56" xmlns="http://www.w3.org/2000/svg" class="wd-expressive wd-expressive-umbrella">
<g>
<path d="M28 27C29.1045 27 29.9998 27.8956 30 29V43C30 44.1045 30.8955 44.9999 32 45C33.1045 45 34 44.1046 34 43C34.0002 41.8956 34.8956 41.0001 36 41C37.1044 41.0001 37.9998 41.8956 38 43C38 46.3136 35.3137 49 32 49C28.6864 48.9999 26 46.3136 26 43V29C26.0002 27.8956 26.8956 27.0001 28 27Z" fill="oklch(0.3057 0.079 256.22 / 0.13)" class="wd-expressive-accent"></path>
<path d="M28 3C23.0294 3 19 14.1929 19 28V28.002C17.1759 25.5724 14.272 24.0001 11 24C7.72862 24.0001 4.82438 25.5714 3 28C3 14.193 14.193 3.00013 28 3Z" fill="oklch(0.3057 0.079 256.22 / 0.13)" class="wd-expressive-accent"></path>
<path d="M28.6445 3.00781C42.1533 3.3498 52.9985 14.4079 52.999 27.999C51.1746 25.5711 48.2708 24.0001 45 24C41.7287 24.0001 38.8233 25.5704 36.999 27.999C36.9988 14.1924 32.9704 3 28 3L28.6445 3.00781Z" fill="oklch(0.3057 0.079 256.22 / 0.13)" class="wd-expressive-accent"></path>
</g>
<g>
<path d="M26.5 27C26.7761 27 27 27.2239 27 27.5V43L27.0068 43.2568C27.1406 45.8987 29.3248 47.9999 32 48C34.7612 47.9999 36.9999 45.7612 37 43C36.9999 42.4478 36.552 42.0001 36 42C35.4885 42.0001 35.0658 42.3855 35.0078 42.8818L34.9883 43.2568C34.9874 43.2727 34.986 43.2888 34.9844 43.3047C34.8308 44.8183 33.5542 45.9999 32 46C30.3951 45.9999 29.0843 44.7393 29.0039 43.1543L29 43V27.5C29 27.2239 29.2239 27 29.5 27H30.5C30.7761 27 31 27.2239 31 27.5V43L31.0049 43.1025C31.0563 43.6065 31.4824 43.9999 32 44C32.5115 43.9999 32.9332 43.6143 32.9912 43.1182L33.0117 42.7432C33.0126 42.7273 33.014 42.7112 33.0156 42.6953C33.1692 41.1818 34.4457 40.0001 36 40C37.6568 40.0001 38.9998 41.3435 39 43C38.9999 46.8658 35.8658 49.9999 32 50C28.255 49.9999 25.1964 47.0587 25.0088 43.3604L25 43V27.5C25 27.2239 25.2239 27 25.5 27H26.5Z" fill="oklch(0.3523 0 0 / 1)" class="wd-expressive-fill"></path>
<path d="M28 2C42.359 2.00013 53.9985 13.6402 53.999 27.999C53.999 28.4292 53.7234 28.8109 53.3154 28.9473C52.9074 29.0834 52.4577 28.9435 52.1992 28.5996C50.5554 26.4122 47.9428 25.0001 45 25C41.7711 25.0001 38.9389 26.7008 37.3496 29.2598C37.1672 29.5535 36.8457 29.7323 36.5 29.7324C36.1542 29.7324 35.8328 29.5535 35.6504 29.2598C34.061 26.7008 31.2289 25.0001 28 25C24.7711 25.0001 21.9389 26.7008 20.3496 29.2598C20.1672 29.5535 19.8457 29.7323 19.5 29.7324C19.1542 29.7324 18.8328 29.5535 18.6504 29.2598C17.061 26.7008 14.2289 25.0001 11 25C8.05656 25.0001 5.4435 26.4126 3.7998 28.6006C3.54143 28.9445 3.09168 29.0843 2.68359 28.9482C2.27543 28.812 2 28.4303 2 28C2 13.6407 13.6407 2.00014 28 2ZM27.8252 4.00195C27.1654 4.03592 26.4308 4.36774 25.6455 5.13672C24.8022 5.96266 23.9586 7.24173 23.1836 8.9873C21.6804 12.3734 20.6052 17.1266 20.1621 22.4951C20.1393 22.7704 19.8995 22.9768 19.624 22.9561L18.6279 22.8818C18.3525 22.8613 18.1453 22.621 18.168 22.3457C18.6219 16.8305 19.7312 11.8346 21.3555 8.17578C22.0241 6.66969 22.7786 5.39492 23.6084 4.40137C13.2844 6.31052 5.27821 14.8271 4.13965 25.4014C6.01993 23.8993 8.40508 23.0001 11 23C14.4262 23.0001 17.4841 24.5684 19.5 27.0215C21.516 24.5684 24.5738 23.0001 28 23C31.4262 23.0001 34.4841 24.5684 36.5 27.0215C38.516 24.5684 41.5738 23.0001 45 23C47.5937 23.0001 49.9777 23.8986 51.8574 25.3994C50.7155 14.8013 42.6763 6.27107 32.3184 4.38867C33.1526 5.38416 33.9113 6.66285 34.583 8.17578C36.2073 11.8346 37.3166 16.8305 37.7705 22.3457C37.7931 22.6208 37.5867 22.8611 37.3115 22.8818L36.3135 22.9561C36.038 22.9768 35.7981 22.7704 35.7754 22.4951C35.3323 17.1265 34.2581 12.3735 32.7549 8.9873C31.9798 7.24147 31.1363 5.96268 30.293 5.13672C29.4575 4.3185 28.68 3.99641 27.9883 4L27.8252 4.00195Z" fill="oklch(0.3523 0 0 / 1)" class="wd-expressive-fill"></path>
</g>
</svg>