<svg role="presentation" width="56" height="56" viewBox="0 0 56 56" xmlns="http://www.w3.org/2000/svg" class="wd-expressive wd-expressive-suitcase">
<g>
<path d="M18.3994 15.0371C18.142 15.6397 18 16.3033 18 17V42H42V45C42 45.8105 41.8052 46.5749 41.4629 47.252C41.4507 47.2761 41.4384 47.3003 41.4258 47.3242C41.3221 47.5212 41.2062 47.7103 41.0781 47.8906C41.0711 47.9005 41.0637 47.9101 41.0566 47.9199C40.9274 48.0991 40.787 48.2694 40.6357 48.4297C40.6168 48.4498 40.5974 48.4695 40.5781 48.4893C40.4295 48.6417 40.2715 48.7845 40.1045 48.917C40.087 48.9308 40.0694 48.9444 40.0518 48.958C39.8816 49.0894 39.7032 49.2104 39.5166 49.3193C39.4927 49.3333 39.4685 49.3468 39.4443 49.3604C39.2579 49.4651 39.0645 49.5581 38.8643 49.6387C38.838 49.6493 38.8117 49.6598 38.7852 49.6699C38.5852 49.7464 38.3793 49.8107 38.168 49.8613C38.1394 49.8682 38.1108 49.8745 38.082 49.8809C37.8659 49.9286 37.6446 49.9617 37.4189 49.9805C37.3933 49.9826 37.3676 49.9846 37.3418 49.9863C37.3135 49.9882 37.2853 49.9917 37.2568 49.9932L37 50H19C18.9139 50 18.8282 49.9975 18.7432 49.9932C16.1011 49.8595 14 47.6753 14 45V20C14 17.4419 15.9212 15.3339 18.3994 15.0371Z" fill="oklch(0.3057 0.079 256.22 / 0.13)" class="wd-expressive-accent"></path>
<path d="M35.793 20C35.9256 20 36.0527 20.0527 36.1465 20.1465L37.8535 21.8535C37.9473 21.9473 38 22.0745 38 22.207V27.5C38 27.7761 37.7761 28 37.5 28H32.5C32.2239 28 32 27.7761 32 27.5V22.207C32 22.0745 32.0527 21.9473 32.1465 21.8535L33.8535 20.1465C33.9473 20.0527 34.0744 20 34.207 20H35.793Z" fill="oklch(0.3057 0.079 256.22 / 0.13)" class="wd-expressive-accent"></path>
</g>
<path d="M31.5 2C32.3284 2 33 2.67157 33 3.5V14H37C40.3137 14 43 16.6863 43 20V45C43 47.6123 41.3302 49.8334 39 50.6572V52.5C39 53.3284 38.3284 54 37.5 54H36.5C35.6716 54 35 53.3284 35 52.5V51H21V52.5C21 53.3284 20.3284 54 19.5 54H18.5C17.6716 54 17 53.3284 17 52.5V50.6572C14.6698 49.8334 13 47.6123 13 45V20C13 16.6863 15.6863 14 19 14H23V3.5C23 2.67157 23.6716 2 24.5 2H31.5ZM15 45C15 47.2091 16.7909 49 19 49H37C39.2091 49 41 47.2091 41 45V43H15V45ZM19 16C16.7909 16 15 17.7909 15 20V41H41V20C41 17.7909 39.2091 16 37 16H36V19.0156C36.3212 19.0605 36.6215 19.2075 36.8535 19.4395L38.5605 21.1465C38.8418 21.4278 39 21.8092 39 22.207V27.5C39 28.3284 38.3284 29 37.5 29H32.5C31.6716 29 31 28.3284 31 27.5V22.207C31 21.8092 31.1582 21.4278 31.4395 21.1465L33.1465 19.4395L33.2568 19.3398C33.4702 19.165 33.7276 19.0537 34 19.0156V16H19ZM33 22.4141V27H37V22.4141L35.5859 21H34.4141L33 22.4141ZM25 14H31V4H25V14Z" fill="oklch(0.3523 0 0 / 1)" class="wd-expressive-fill"></path>
</svg>