<svg role="presentation" width="56" height="56" viewBox="0 0 56 56" xmlns="http://www.w3.org/2000/svg" class="wd-expressive wd-expressive-user-vr">
<g>
<path d="M38.8145 17C39.3832 17 39.9348 17.2352 40.2705 17.6943C41.3579 19.182 42 21.0161 42 23C42 24.0747 41.8104 25.105 41.4648 26.0605C41.3867 26.0979 41.3056 26.1306 41.2217 26.1562C39.6826 26.6272 34.6278 28 28 28C21.3722 28 16.3174 26.6272 14.7783 26.1562C14.4557 26.0575 14.1704 25.8711 13.96 25.6074C12.7335 24.0694 12 22.1201 12 20C12 18.999 12.1632 18.0361 12.4648 17.1367C12.6909 17.0472 12.9362 17 13.1855 17H38.8145Z" fill="oklch(0.3057 0.079 256.22 / 0.13)" class="wd-expressive-accent"></path>
<path d="M28.502 5.00879L31.2002 14H22L24.582 5.39062C25.6799 5.13478 26.8242 5 28 5C28.168 5 28.3353 5.00331 28.502 5.00879Z" fill="oklch(0.3057 0.079 256.22 / 0.13)" class="wd-expressive-accent"></path>
</g>
<g>
<path d="M27.9987 39C37.0229 39.0001 45.3779 41.8815 52.1881 46.7744C52.412 46.9355 52.4591 47.2485 52.2956 47.4707L51.7028 48.2754C51.539 48.4977 51.226 48.5448 51.0016 48.3838C44.5237 43.7357 36.5815 41.0001 27.9987 41C19.4159 41.0001 11.4747 43.7367 4.99673 48.3848C4.77235 48.5458 4.45935 48.4977 4.29556 48.2754L3.99868 47.874L3.70278 47.4707C3.53928 47.2485 3.58628 46.9355 3.81021 46.7744C10.6203 41.8817 18.9747 39.0001 27.9987 39Z" fill="oklch(0.3523 0 0 / 1)" class="wd-expressive-fill"></path>
<path d="M37.3961 29.7021C37.5514 29.4742 37.8589 29.4031 38.0924 29.5498L38.5163 29.8164L38.9391 30.083C39.1726 30.2302 39.2437 30.5397 39.0895 30.7686C37.8411 32.6204 36.245 34.1468 34.4069 35.2275C32.4309 36.3891 30.2343 37 27.9987 37C25.7631 37 23.5664 36.3891 21.5905 35.2275C19.7524 34.1469 18.1562 32.6204 16.9079 30.7686C16.7536 30.5397 16.8248 30.2302 17.0583 30.083L17.4811 29.8164L17.9049 29.5498C18.1385 29.4032 18.446 29.4742 18.6012 29.7021C19.6876 31.2982 21.0556 32.5929 22.6032 33.5029C24.2828 34.4904 26.1316 35 27.9987 35C29.8658 35 31.7145 34.4904 33.3942 33.5029C34.9419 32.5929 36.3098 31.2983 37.3961 29.7021Z" fill="oklch(0.3523 0 0 / 1)" class="wd-expressive-fill"></path>
<path d="M31.4987 17C31.7748 17 31.9987 17.2239 31.9987 17.5V18.5C31.9987 18.7761 31.7748 19 31.4987 19H24.4987C24.2226 18.9999 23.9987 18.7761 23.9987 18.5V17.5C23.9987 17.2239 24.2226 17.0001 24.4987 17H31.4987Z" fill="oklch(0.3523 0 0 / 1)" class="wd-expressive-fill"></path>
<path d="M27.9987 4C29.2507 4 30.4707 4.1441 31.6422 4.41699L32.2067 4.54785L32.3737 5.10352L32.5553 5.71094C34.8163 6.43184 36.8959 7.68435 38.6051 9.39355C39.6869 10.4753 40.5857 11.7056 41.2829 13.0361C41.9623 13.1432 42.6259 13.4876 43.0768 14.1045C43.712 14.9735 44.2088 15.9499 44.5387 17H46.4987C46.7748 17 46.9987 17.2239 46.9987 17.5V18.5C46.9987 18.7761 46.7748 19 46.4987 19H44.9469C44.9796 19.329 44.9987 19.6625 44.9987 20C44.9987 22.3547 44.1836 24.5217 42.8209 26.2305C42.4768 26.662 42.0166 26.9583 41.5133 27.1123C39.9157 27.6012 34.7576 29 27.9987 29C21.2397 29 16.0815 27.6011 14.484 27.1123C13.9808 26.9583 13.5205 26.662 13.1764 26.2305C11.8138 24.5217 10.9987 22.3546 10.9987 20C10.9987 19.6625 11.0177 19.329 11.0504 19H9.49868C9.22262 18.9999 8.99868 18.7761 8.99868 18.5V17.5C8.99868 17.2239 9.22262 17.0001 9.49868 17H11.4586C11.7886 15.9499 12.2854 14.9735 12.9206 14.1045C13.3712 13.488 14.0346 13.1444 14.7135 13.0371C15.4108 11.7061 16.3102 10.4756 17.3922 9.39355C19.1009 7.68491 21.18 6.43299 23.4401 5.71191L23.7897 4.54785L24.3542 4.41699C25.5261 4.14392 26.7464 4.00001 27.9987 4ZM15.1842 15C14.8786 15.0001 14.6514 15.1247 14.5348 15.2842C13.5684 16.6063 12.9987 18.2354 12.9987 20C12.9987 21.8854 13.6497 23.6161 14.7399 24.9834C14.8167 25.0797 14.9268 25.1566 15.069 25.2002C16.5489 25.653 21.5014 27 27.9987 27C34.4958 27 39.4483 25.6531 40.9284 25.2002C41.0706 25.1566 41.1807 25.0797 41.2575 24.9834C42.3477 23.6161 42.9987 21.8854 42.9987 20C42.9987 18.2353 42.429 16.6063 41.4626 15.2842C41.3459 15.1247 41.1188 15 40.8131 15H15.1842ZM22.7165 8.12207C21.2732 8.76399 19.9448 9.66909 18.8063 10.8076C18.1365 11.4774 17.5495 12.214 17.0475 13H21.2545L22.7165 8.12207ZM27.9987 6C27.0981 6.00001 26.2184 6.0853 25.3668 6.24707L23.3424 13H32.6549L30.6286 6.24707C29.7775 6.08547 28.8985 6 27.9987 6ZM34.7428 13H38.9499C38.4479 12.214 37.8608 11.4774 37.1911 10.8076C36.0521 9.66862 34.723 8.76395 33.279 8.12207L34.7428 13Z" fill="oklch(0.3523 0 0 / 1)" class="wd-expressive-fill"></path>
</g>
</svg>