<svg role="presentation" width="56" height="56" viewBox="0 0 56 56" xmlns="http://www.w3.org/2000/svg" class="wd-expressive wd-expressive-high-five">
<g>
<path d="M28.0469 12.9453C29.4659 12.9295 30.7388 13.9257 31.0215 15.3682L31.9883 20.3076C32.2813 21.8034 32.9818 23.1898 34.0117 24.3135C35.5808 26.0249 37.7963 26.9998 40.1182 27H41L41.001 27.001H41.0859C45.5819 27.022 49.6893 28.6902 52.833 31.4346C52.9401 31.5281 53 31.6645 53 31.8066V44.5C52.9999 44.7761 52.7761 45 52.5 45H35.5C35.224 44.9999 35.0001 44.776 35 44.5V32.3945C35 32.1876 34.8721 32.0026 34.6807 31.9238C32.7634 31.1346 31.0201 29.9294 29.5889 28.3682C28.9928 27.7178 28.463 27.0148 28 26.2725C28.9165 24.8031 29.5647 23.1744 29.9004 21.4609L30.1455 20.208C30.1466 20.2026 30.1483 20.1968 30.1494 20.1914L30.8682 16.5205C31.1863 14.8945 30.1259 13.3184 28.5 13C28.3482 12.9703 28.1968 12.9517 28.0469 12.9453Z" fill="oklch(0.3057 0.079 256.22 / 0.13)" class="wd-expressive-accent"></path>
<path d="M44 12C47.3137 12 50 14.6863 50 18C50 21.3137 47.3137 24 44 24C40.6863 24 38 21.3137 38 18C38 14.6863 40.6863 12 44 12Z" fill="oklch(0.3057 0.079 256.22 / 0.13)" class="wd-expressive-accent"></path>
</g>
<g>
<path d="M28.0322 11.9453H28.0361C29.9281 11.9244 31.6257 13.2512 32.0029 15.1758L32.9697 20.1152C33.2274 21.4304 33.8433 22.6496 34.749 23.6377C36.1287 25.1425 38.0767 25.9998 40.1182 26H41C41.0065 26 41.013 26.0008 41.0195 26.001H41.0908C45.8356 26.0233 50.1733 27.7852 53.4912 30.6816C53.8229 30.9715 54 31.3859 54 31.8066V44.5L53.9922 44.6533C53.9153 45.4093 53.277 46 52.5 46H35.5C34.6721 45.9997 34.0003 45.328 34 44.5V32.7197C32.067 31.8753 30.308 30.6326 28.8516 29.0439C28.5513 28.7164 28.2672 28.3766 27.999 28.0264C27.7302 28.3762 27.4481 28.7171 27.1484 29.0439C25.692 30.6326 23.9329 31.8753 22 32.7197V44.5C21.9999 45.3284 21.3284 46 20.5 46H3.5C2.67162 46 2.00006 45.3284 2 44.5V31.8066C2 31.3824 2.18016 30.9694 2.50977 30.6816L2.82422 30.4131C6.09948 27.6765 10.3126 26.0225 14.9092 26.001H14.9805C14.9871 26.0008 14.9943 26 15.001 26H15.8818L16.2637 25.9902C18.1648 25.8904 19.9575 25.0486 21.251 23.6377C22.1567 22.6496 22.7726 21.4304 23.0303 20.1152L23.2744 18.8652L23.2783 18.8457L23.9971 15.1748C24.3785 13.228 26.1129 11.8908 28.0322 11.9453ZM28.0889 13.9512C27.0852 13.8664 26.1579 14.549 25.96 15.5596L24.9932 20.499C24.6647 22.1755 23.8798 23.7301 22.7256 24.9893C21.077 26.7875 18.7917 27.8602 16.3682 27.9873L15.8818 28H15.0205C15.0137 28.0001 15.0069 28.001 15 28.001H14.9189L14.5215 28.0078C10.5123 28.1185 6.8523 29.6158 4 32.0391V44H20V32.3945C20 31.7686 20.3853 31.2268 20.9385 30.999C22.7217 30.2649 24.3429 29.1441 25.6738 27.6924C26.2257 27.0904 26.7163 26.4398 27.1455 25.7529C27.1475 25.7497 27.1494 25.7464 27.1514 25.7432C28.0043 24.3757 28.607 22.8609 28.9189 21.2686L29.1641 20.0156L29.166 20.0039L29.3818 18.9023C29.383 18.8957 29.3835 18.8885 29.3848 18.8818L29.8857 16.3281L29.915 16.126C30.0069 15.132 29.3445 14.2101 28.3535 13.9922C28.3379 13.9887 28.3224 13.9845 28.3066 13.9814C28.2423 13.9689 28.1782 13.9593 28.1143 13.9531C28.1058 13.9523 28.0973 13.9519 28.0889 13.9512ZM30.8818 21.6533C30.8459 21.8366 30.8052 22.0187 30.7627 22.2002C30.7473 22.2658 30.7311 22.3312 30.7148 22.3965C30.6804 22.5352 30.6437 22.6731 30.6055 22.8105C30.5973 22.8398 30.5894 22.8692 30.5811 22.8984C30.5368 23.054 30.4896 23.2085 30.4404 23.3623C30.425 23.4106 30.4095 23.4588 30.3936 23.5068C30.079 24.4592 29.6719 25.3766 29.1787 26.2471C29.5268 26.7541 29.9093 27.2376 30.3262 27.6924C31.6571 29.1442 33.2783 30.2649 35.0615 30.999C35.6148 31.2269 36 31.7687 36 32.3945V44H52V32.0371C49.1479 29.6146 45.4872 28.1185 41.4785 28.0078L41.0811 28.001H41.001C40.9945 28.001 40.988 28.0001 40.9814 28H40.1182C37.516 27.9997 35.0328 26.9073 33.2744 24.9893C32.1766 23.7915 31.4141 22.327 31.0596 20.7441L30.8818 21.6533Z" fill="oklch(0.3523 0 0 / 1)" class="wd-expressive-fill"></path>
<path d="M13 11C16.866 11 20 14.134 20 18C20 21.866 16.866 25 13 25C9.13401 25 6 21.866 6 18C6 14.134 9.13401 11 13 11ZM13 13C10.2386 13 8 15.2386 8 18C8 20.7614 10.2386 23 13 23C15.7614 23 18 20.7614 18 18C18 15.2386 15.7614 13 13 13Z" fill="oklch(0.3523 0 0 / 1)" class="wd-expressive-fill"></path>
<path d="M44 11C47.866 11 51 14.134 51 18C51 21.866 47.866 25 44 25C40.134 25 37 21.866 37 18C37 14.134 40.134 11 44 11ZM44 13C41.2386 13 39 15.2386 39 18C39 20.7614 41.2386 23 44 23C46.7614 23 49 20.7614 49 18C49 15.2386 46.7614 13 44 13Z" fill="oklch(0.3523 0 0 / 1)" class="wd-expressive-fill"></path>
<path d="M21.3535 7.64648C21.5487 7.45127 21.8653 7.45137 22.0605 7.64648L24.3535 9.93945C24.5488 10.1347 24.5488 10.4512 24.3535 10.6465L23.6465 11.3535C23.4512 11.5486 23.1347 11.5487 22.9395 11.3535L20.6465 9.06055C20.4514 8.86532 20.4514 8.54874 20.6465 8.35352L21.3535 7.64648Z" fill="oklch(0.3523 0 0 / 1)" class="wd-expressive-fill"></path>
<path d="M33.9395 7.64648C34.1347 7.45127 34.4512 7.45137 34.6465 7.64648L35.3535 8.35352C35.5488 8.54878 35.5488 8.86528 35.3535 9.06055L33.0605 11.3535C32.8653 11.5486 32.5487 11.5487 32.3535 11.3535L31.6465 10.6465C31.4514 10.4513 31.4514 10.1347 31.6465 9.93945L33.9395 7.64648Z" fill="oklch(0.3523 0 0 / 1)" class="wd-expressive-fill"></path>
<path d="M28.5 5C28.7761 5 29 5.22386 29 5.5V8.5C29 8.77614 28.7761 9 28.5 9H27.5C27.224 8.99988 27 8.77607 27 8.5V5.5C27 5.22393 27.224 5.00012 27.5 5H28.5Z" fill="oklch(0.3523 0 0 / 1)" class="wd-expressive-fill"></path>
</g>
</svg>