<svg role="presentation" width="56" height="56" viewBox="0 0 56 56" xmlns="http://www.w3.org/2000/svg" class="wd-expressive wd-expressive-book-lightbulb">
<g>
<path d="M44.3633 45C42.8104 49.112 42.8441 48.9774 44.3633 53H15C14.6116 53 14.2359 52.9451 13.8809 52.8418C12.2163 52.3577 11 50.8207 11 49C11 47.1793 12.2163 45.6423 13.8809 45.1582C14.2359 45.0549 14.6116 45 15 45H44.3633Z" fill="oklch(0.3057 0.079 256.22 / 0.13)" class="wd-expressive-accent"></path>
<path d="M15 45H11V7C11 4.79086 12.7909 3 15 3V45Z" fill="oklch(0.3057 0.079 256.22 / 0.13)" class="wd-expressive-accent"></path>
<path d="M48.5 29.001C48.7761 29.001 49 29.2248 49 29.501V35.501C49 35.7771 48.7761 36.001 48.5 36.001H45.5C45.2239 36.001 45 35.7771 45 35.501V29.501C45 29.2248 45.2239 29.001 45.5 29.001H48.5Z" fill="oklch(0.3057 0.079 256.22 / 0.13)" class="wd-expressive-accent"></path>
<path d="M32 34.8545C31.2039 35.567 30.1525 36 29 36C27.8475 36 26.7961 35.567 26 34.8545V32H26.5C26.2239 32 26 31.7761 26 31.5C26 30.1718 25.1795 29.0134 24.2109 28.1045C22.8503 26.8278 22 25.0132 22 23C22 20.9089 22.9174 19.0327 24.3711 17.75C24.1314 18.4563 24 19.2127 24 20C24 22.0132 24.8503 23.8278 26.2109 25.1045C27.1795 26.0134 28 27.1718 28 28.5C28 28.7761 28.2239 29 28.5 29H32.9668C32.3983 29.7333 32 30.5753 32 31.5C32 31.7761 31.7761 32 31.5 32H32V34.8545Z" fill="oklch(0.3057 0.079 256.22 / 0.13)" class="wd-expressive-accent"></path>
<path d="M35.6201 25.2705C35.2902 26.2323 34.7581 27.0992 34.0723 27.8203C34.2761 26.8501 34.8934 25.9893 35.6201 25.2705Z" fill="oklch(0.3057 0.079 256.22 / 0.13)" class="wd-expressive-accent"></path>
<path d="M48.5 17.999C48.7761 17.999 49 18.2229 49 18.499V24.499C49 24.7752 48.7761 24.999 48.5 24.999H45.5C45.2239 24.999 45 24.7752 45 24.499V18.499C45 18.2229 45.2239 17.999 45.5 17.999H48.5Z" fill="oklch(0.3057 0.079 256.22 / 0.13)" class="wd-expressive-accent"></path>
<path d="M48.5 7C48.7761 7 49 7.22386 49 7.5V13.5C49 13.7761 48.7761 14 48.5 14H45.5C45.2239 14 45 13.7761 45 13.5V7.5C45 7.22386 45.2239 7 45.5 7H48.5Z" fill="oklch(0.3057 0.079 256.22 / 0.13)" class="wd-expressive-accent"></path>
</g>
<g>
<path d="M29 15C33.4183 15 37 18.5817 37 23C37 25.3007 36.0271 27.3752 34.4736 28.833C33.573 29.6781 33 30.589 33 31.5V35.3008L32.667 35.5996C31.6946 36.4699 30.408 37 29 37C27.592 37 26.3054 36.4699 25.333 35.5996L25 35.3008V31.5C25 30.589 24.427 29.6781 23.5264 28.833C21.9729 27.3752 21 25.3007 21 23C21 18.5817 24.5817 15 29 15ZM27 34.3691C27.5674 34.7656 28.2549 35 29 35C29.7451 35 30.4326 34.7656 31 34.3691V33H27V34.3691ZM29 17C25.6863 17 23 19.6863 23 23C23 24.7254 23.727 26.2794 24.8945 27.375C25.8303 28.253 26.7894 29.4848 26.9678 31H31.0322C31.2106 29.4848 32.1697 28.253 33.1055 27.375C34.273 26.2794 35 24.7254 35 23C35 19.6863 32.3137 17 29 17Z" fill="oklch(0.3523 0 0 / 1)" class="wd-expressive-fill"></path>
<path d="M18.5 22C18.7761 22 19 22.2239 19 22.5V23.5C19 23.7761 18.7761 24 18.5 24H16.5C16.2239 24 16 23.7761 16 23.5V22.5C16 22.2239 16.2239 22 16.5 22H18.5Z" fill="oklch(0.3523 0 0 / 1)" class="wd-expressive-fill"></path>
<path d="M41.5 22C41.7761 22 42 22.2239 42 22.5V23.5C42 23.7761 41.7761 24 41.5 24H39.5C39.2239 24 39 23.7761 39 23.5V22.5C39 22.2239 39.2239 22 39.5 22H41.5Z" fill="oklch(0.3523 0 0 / 1)" class="wd-expressive-fill"></path>
<path d="M20.1611 13.4541C20.3564 13.2589 20.6729 13.2589 20.8682 13.4541L22.2822 14.8682C22.4775 15.0634 22.4775 15.3799 22.2822 15.5752L21.5752 16.2822C21.3799 16.4775 21.0634 16.4775 20.8682 16.2822L19.4541 14.8682C19.2589 14.6729 19.2589 14.3564 19.4541 14.1611L20.1611 13.4541Z" fill="oklch(0.3523 0 0 / 1)" class="wd-expressive-fill"></path>
<path d="M37.1318 13.4541C37.3271 13.2589 37.6436 13.2588 37.8389 13.4541L38.5459 14.1611C38.7411 14.3564 38.7411 14.6729 38.5459 14.8682L37.1318 16.2822C36.9366 16.4775 36.6201 16.4775 36.4248 16.2822L35.7178 15.5752C35.5225 15.3799 35.5225 15.0634 35.7178 14.8682L37.1318 13.4541Z" fill="oklch(0.3523 0 0 / 1)" class="wd-expressive-fill"></path>
<path d="M29.5 10C29.7761 10 30 10.2239 30 10.5V12.5C30 12.7761 29.7761 13 29.5 13H28.5C28.2239 13 28 12.7761 28 12.5V10.5C28 10.2239 28.2239 10 28.5 10H29.5Z" fill="oklch(0.3523 0 0 / 1)" class="wd-expressive-fill"></path>
<path d="M44.5 2C45.3284 2 46 2.67157 46 3.5V6H48.5C49.3284 6 50 6.67157 50 7.5V13.5C50 14.3284 49.3284 15 48.5 15H46V16.999H48.5C49.3284 16.999 50 17.6706 50 18.499V24.499C50 25.3274 49.3284 25.999 48.5 25.999H46V28.001H48.5C49.3284 28.001 50 28.6726 50 29.501V35.501C50 36.3294 49.3284 37.001 48.5 37.001H46C46 39.5921 46 42.1833 46 44.7744C46 45 45.9836 45.3533 45.7998 45.5986L45.0498 46.5986C43.9832 48.0207 43.9835 49.9772 45.0498 51.3994L45.5 52L45.6006 52.0098C45.8286 52.0563 46 52.2583 46 52.5V53.5C46 53.7761 45.7761 54 45.5 54H15C12.2386 54 10 51.7614 10 49V7C10 4.23858 12.2386 2 15 2H44.5ZM15 46C13.3431 46 12 47.3431 12 49C12 50.6569 13.3431 52 15 52H43.0557C41.9836 50.146 41.9831 47.8542 43.0547 46H15ZM15 4C13.3431 4 12 5.34315 12 7V45C12.8357 44.3722 13.8743 44 15 44H44V4H15ZM46 35.001H48V30.001H46V35.001ZM46 23.999H48V18.999H46V23.999ZM46 13H48V8H46V13Z" fill="oklch(0.3523 0 0 / 1)" class="wd-expressive-fill"></path>
</g>
</svg>