<svg role="presentation" width="56" height="56" viewBox="0 0 56 56" xmlns="http://www.w3.org/2000/svg" class="wd-expressive wd-expressive-building-small">
<g>
<path d="M16.5 32C18.5974 32 20.5176 32.7594 22 34.0186V47H14V32.375C14.7905 32.132 15.6298 32 16.5 32Z" fill="oklch(0.3057 0.079 256.22 / 0.13)" class="wd-expressive-accent"></path>
<path d="M39 34C39.5523 34 40 34.4477 40 35V38C40 38.5523 39.5523 39 39 39H31C30.4477 39 30 38.5523 30 38V35C30 34.4477 30.4477 34 31 34H39Z" fill="oklch(0.3057 0.079 256.22 / 0.13)" class="wd-expressive-accent"></path>
<path d="M50 20V22.9814C48.5176 24.2406 46.5974 25 44.5 25C42.4026 25 40.4824 24.2406 39 22.9814C37.5176 24.2406 35.5974 25 33.5 25C31.4026 25 29.4824 24.2406 28 22.9814C26.5176 24.2406 24.5974 25 22.5 25C20.4026 25 18.4824 24.2406 17 22.9814C15.5176 24.2406 13.5974 25 11.5 25C9.40261 25 7.48241 24.2406 6 22.9814V20H50Z" fill="oklch(0.3057 0.079 256.22 / 0.13)" class="wd-expressive-accent"></path>
</g>
<g>
<path d="M42 31C42.5523 31 43 31.4477 43 32V39C43 39.5523 42.5523 40 42 40H30C29.4477 40 29 39.5523 29 39V32C29 31.4477 29.4477 31 30 31H42ZM31 38H35V33H31V38ZM37 38H41V33H37V38Z" fill="oklch(0.3523 0 0 / 1)" class="wd-expressive-fill"></path>
<path d="M43.9014 7.01465C44.3158 7.07328 44.688 7.30295 44.9258 7.64746L45.0322 7.8291L50.8418 19.4473C50.9459 19.6555 51 19.8853 51 20.1182V22.75C51 23.1849 50.8101 23.6174 50.4482 23.9082C49.7142 24.4982 48.8898 24.9802 48 25.333V46H51.5C51.7761 46 52 46.2239 52 46.5V47.5C52 47.7761 51.7761 48 51.5 48H4.5C4.22386 48 4 47.7761 4 47.5V46.5C4 46.2239 4.22386 46 4.5 46H8V25.333C7.11017 24.9802 6.28575 24.4982 5.55176 23.9082C5.23525 23.6538 5.05015 23.2911 5.00879 22.9131L5 22.75V20.1182L5.00977 19.9443C5.02988 19.7717 5.08011 19.6035 5.1582 19.4473L10.9678 7.8291L11.0742 7.64746C11.3515 7.24564 11.8116 7.00014 12.3086 7H43.6914L43.9014 7.01465ZM39 24.2461C37.4476 25.35 35.5485 26 33.5 26C31.4515 26 29.5524 25.35 28 24.2461C26.4476 25.35 24.5485 26 22.5 26C20.4515 26 18.5524 25.35 17 24.2461C15.4476 25.35 13.5485 26 11.5 26C10.9896 26 10.4888 25.9575 10 25.8799V46H13V32.0186L13.0059 31.9102C13.0335 31.6575 13.1567 31.4232 13.3525 31.2568C15.0089 29.8498 17.1565 29 19.5 29C21.8435 29 23.9911 29.8498 25.6475 31.2568C25.871 31.4467 25.9999 31.7253 26 32.0186V46H46V25.8799C45.5112 25.9575 45.0104 26 44.5 26C42.4515 26 40.5524 25.35 39 24.2461ZM19.5 31C17.8103 31 16.2538 31.5587 15 32.501V46H24V32.501C22.7462 31.5587 21.1897 31 19.5 31ZM7 20.2354V22.499C8.25368 23.4411 9.81002 24 11.5 24C13.1902 24 14.7464 23.441 16 22.499V20C16 19.945 16.0047 19.8902 16.0137 19.8359L17.8193 9H12.6182L7 20.2354ZM18 20.082V22.499L18.1797 22.6318C19.4009 23.494 20.8901 24 22.5 24C24.1902 24 25.7464 23.441 27 22.499V9H19.8467L18 20.082ZM29 22.499L29.1797 22.6318C30.4009 23.494 31.8901 24 33.5 24C35.1902 24 36.7464 23.441 38 22.499V20.082L36.1533 9H29V22.499ZM39.9863 19.8359C39.9953 19.8902 40 19.945 40 20V22.499L40.1797 22.6318C41.4009 23.494 42.8901 24 44.5 24C46.19 24 47.7463 23.4411 49 22.499V20.2354L43.3818 9H38.1807L39.9863 19.8359Z" fill="oklch(0.3523 0 0 / 1)" class="wd-expressive-fill"></path>
</g>
</svg>