<svg role="presentation" width="56" height="56" viewBox="0 0 56 56" xmlns="http://www.w3.org/2000/svg" class="wd-expressive wd-expressive-vault">
<path d="M47 51H37V48H19V51H9V48C7.89543 48 7 47.1046 7 46V11.5352C9.11483 11.185 11.2859 11 13.5 11C13.6349 11 13.7697 11.0035 13.9043 11.0049C12.8442 11.0549 12 11.9276 12 13V41C12 42.1046 12.8954 43 14 43H42C43.1046 43 44 42.1046 44 41V25.3975C45.9547 27.7697 47.6356 30.3753 49 33.1641V46C49 47.1046 48.1046 48 47 48V51Z" fill="oklch(0.3057 0.079 256.22 / 0.13)" class="wd-expressive-accent"></path>
<g>
<path d="M27.9395 20.6465C28.1346 20.4514 28.4512 20.4517 28.6465 20.6465L29.3535 21.3535C29.5487 21.5488 29.5487 21.8653 29.3535 22.0605L27.1709 24.2422C27.6947 25.0327 28 25.9807 28 27C28 28.019 27.6944 28.9664 27.1709 29.7568L29.3535 31.9395C29.5487 32.1347 29.5487 32.4513 29.3535 32.6465L28.6465 33.3535C28.4513 33.5487 28.1347 33.5486 27.9395 33.3535L25.7568 31.1709C24.9664 31.6944 24.0191 32 23 32C21.9806 32 21.0328 31.6947 20.2422 31.1709L18.0605 33.3535C17.8653 33.5487 17.5488 33.5486 17.3535 33.3535L16.6465 32.6465C16.4517 32.4512 16.4514 32.1346 16.6465 31.9395L18.8281 29.7559C18.3051 28.9657 18 28.0185 18 27C18 25.9809 18.3045 25.0326 18.8281 24.2422L16.6465 22.0605C16.4517 21.8653 16.4514 21.5486 16.6465 21.3535L17.3535 20.6465C17.5486 20.4514 17.8653 20.4517 18.0605 20.6465L20.2432 22.8291C21.0336 22.3056 21.981 22 23 22C24.0186 22 24.9657 22.3051 25.7559 22.8281L27.9395 20.6465ZM23 24C21.3432 24 20.0001 25.3432 20 27C20 28.6569 21.3431 30 23 30C24.6569 30 26 28.6569 26 27C26 25.3432 24.6568 24 23 24Z" fill="oklch(0.3523 0 0 / 1)" class="wd-expressive-fill"></path>
<path d="M34.5 30C34.7761 30 35 30.2239 35 30.5V31.5C35 31.7761 34.7761 32 34.5 32H32.5C32.2239 32 32 31.7761 32 31.5V30.5C32 30.2239 32.2239 30 32.5 30H34.5Z" fill="oklch(0.3523 0 0 / 1)" class="wd-expressive-fill"></path>
<path d="M39.5 30C39.7761 30 40 30.2239 40 30.5V31.5C40 31.7761 39.7761 32 39.5 32H37.5C37.2239 32 37 31.7761 37 31.5V30.5C37 30.2239 37.2239 30 37.5 30H39.5Z" fill="oklch(0.3523 0 0 / 1)" class="wd-expressive-fill"></path>
<path d="M34.5 26C34.7761 26 35 26.2239 35 26.5V27.5C35 27.7761 34.7761 28 34.5 28H32.5C32.2239 28 32 27.7761 32 27.5V26.5C32 26.2239 32.2239 26 32.5 26H34.5Z" fill="oklch(0.3523 0 0 / 1)" class="wd-expressive-fill"></path>
<path d="M39.5 26C39.7761 26 40 26.2239 40 26.5V27.5C40 27.7761 39.7761 28 39.5 28H37.5C37.2239 28 37 27.7761 37 27.5V26.5C37 26.2239 37.2239 26 37.5 26H39.5Z" fill="oklch(0.3523 0 0 / 1)" class="wd-expressive-fill"></path>
<path d="M34.5 22C34.7761 22 35 22.2239 35 22.5V23.5C35 23.7761 34.7761 24 34.5 24H32.5C32.2239 24 32 23.7761 32 23.5V22.5C32 22.2239 32.2239 22 32.5 22H34.5Z" fill="oklch(0.3523 0 0 / 1)" class="wd-expressive-fill"></path>
<path d="M39.5 22C39.7761 22 40 22.2239 40 22.5V23.5C40 23.7761 39.7761 24 39.5 24H37.5C37.2239 24 37 23.7761 37 23.5V22.5C37 22.2239 37.2239 22 37.5 22H39.5Z" fill="oklch(0.3523 0 0 / 1)" class="wd-expressive-fill"></path>
<path d="M44 10C44.5523 10 45 10.4477 45 11V43C45 43.5523 44.5523 44 44 44H12C11.4477 44 11 43.5523 11 43V38H10.5C10.2239 38 10 37.7761 10 37.5V36.5C10 36.2239 10.2239 36 10.5 36H11V18H10.5C10.2239 18 10 17.7761 10 17.5V16.5C10 16.2239 10.2239 16 10.5 16H11V11C11 10.4477 11.4477 10 12 10H44ZM13 16H13.5C13.7761 16 14 16.2239 14 16.5V17.5C14 17.7761 13.7761 18 13.5 18H13V36H13.5C13.7761 36 14 36.2239 14 36.5V37.5C14 37.7761 13.7761 38 13.5 38H13V42H43V12H13V16Z" fill="oklch(0.3523 0 0 / 1)" class="wd-expressive-fill"></path>
<path d="M47 5C48.6569 5 50 6.34315 50 8V46C50 47.3057 49.1645 48.413 48 48.8252V51C48 51.5523 47.5523 52 47 52H37C36.4477 52 36 51.5523 36 51V49H20V51C20 51.5523 19.5523 52 19 52H9C8.44772 52 8 51.5523 8 51V48.8252C6.83548 48.413 6 47.3057 6 46V8C6 6.34315 7.34315 5 9 5H47ZM10 50H18V49H10V50ZM38 50H46V49H38V50ZM9 7C8.44772 7 8 7.44772 8 8V46C8 46.5523 8.44772 47 9 47H47C47.5523 47 48 46.5523 48 46V8C48 7.44772 47.5523 7 47 7H9Z" fill="oklch(0.3523 0 0 / 1)" class="wd-expressive-fill"></path>
</g>
</svg>