<svg role="presentation" width="56" height="56" viewBox="0 0 56 56" xmlns="http://www.w3.org/2000/svg" class="wd-expressive wd-expressive-playbook">
<g>
<path d="M13 43C15.2091 43 17 44.7909 17 47C17 49.2091 15.2091 51 13 51C10.7909 51 9 49.2091 9 47C9 44.7909 10.7909 43 13 43Z" fill="oklch(0.3057 0.079 256.22 / 0.13)" class="wd-expressive-accent"></path>
<path d="M20.5 12C27.4036 12 33 17.5964 33 24.5C33 31.4036 27.4036 37 20.5 37C13.5964 37 8 31.4036 8 24.5C8 17.5964 13.5964 12 20.5 12Z" fill="oklch(0.3057 0.079 256.22 / 0.13)" class="wd-expressive-accent"></path>
<path d="M42 7C44.2091 7 46 8.79086 46 11C46 13.2091 44.2091 15 42 15C39.7909 15 38 13.2091 38 11C38 8.79086 39.7909 7 42 7Z" fill="oklch(0.3057 0.079 256.22 / 0.13)" class="wd-expressive-accent"></path>
</g>
<g>
<path d="M14 40C17.3136 40.0001 20 42.6863 20 46C20 49.3137 17.3136 51.9999 14 52C10.6863 52 8 49.3137 8 46C8 42.6863 10.6863 40 14 40ZM14 42C11.7909 42 10 43.7909 10 46C10 48.2091 11.7909 50 14 50C16.2091 49.9999 18 48.2091 18 46C18 43.7909 16.2091 42.0001 14 42Z" fill="oklch(0.3523 0 0 / 1)" class="wd-expressive-fill"></path>
<path d="M42.999 18.6309C43.3004 18.631 43.5866 18.7679 43.7764 19.002C43.9245 19.1852 44.076 19.3676 44.2295 19.5469C44.6382 20.0236 45.067 20.4859 45.5127 20.9316C46.7561 22.175 48.1251 23.2771 49.5918 24.2207C49.8235 24.3701 49.8971 24.6771 49.7529 24.9121L49.4912 25.3389L49.2285 25.7646C49.0837 25.9994 48.7752 26.0737 48.543 25.9248C46.944 24.8995 45.4529 23.6999 44.0986 22.3457C44.065 22.312 44.0325 22.277 43.999 22.2432V26C43.999 28.7575 43.4556 31.4885 42.4004 34.0361C41.3451 36.5838 39.7985 38.8997 37.8486 40.8496C35.8987 42.7994 33.5828 44.3461 31.0352 45.4014C28.6416 46.3927 26.0861 46.9325 23.499 46.9941C23.2233 47.0005 22.9992 46.7759 22.999 46.5V45.5C22.9992 45.2242 23.2233 45.0016 23.499 44.9941C25.8234 44.9329 28.1187 44.4445 30.2695 43.5537C32.5745 42.599 34.6694 41.1987 36.4336 39.4346C38.1978 37.6704 39.5979 35.5755 40.5527 33.2705C41.5074 30.9656 41.999 28.4948 41.999 26V22.2441C41.9657 22.2779 41.933 22.3131 41.8994 22.3467C40.545 23.7011 39.0533 24.9004 37.4541 25.9258C37.2218 26.0743 36.9132 26.0004 36.7686 25.7656L36.5068 25.3398L36.2451 24.9131C36.1012 24.6781 36.1747 24.3701 36.4062 24.2207C37.873 23.2771 39.2419 22.176 40.4854 20.9326C41.099 20.319 41.6782 19.6741 42.2207 19.0029L42.2217 19.002C42.3165 18.8849 42.4357 18.7919 42.5684 18.7285C42.6012 18.7129 42.6355 18.6985 42.6699 18.6865C42.7742 18.6502 42.8861 18.631 42.999 18.6309Z" fill="oklch(0.3523 0 0 / 1)" class="wd-expressive-fill"></path>
<path d="M19.4395 24.1465C19.6347 23.9513 19.9512 23.9512 20.1465 24.1465L20.8535 24.8535C21.0486 25.0488 21.0487 25.3653 20.8535 25.5605L16.9141 29.5L20.8535 33.4395C21.0484 33.6347 21.0485 33.9513 20.8535 34.1465L20.1465 34.8535C19.9513 35.0487 19.6347 35.0485 19.4395 34.8535L15.5 30.9141L11.5605 34.8535C11.3653 35.0487 11.0488 35.0486 10.8535 34.8535L10.1465 34.1465C9.95125 33.9512 9.9513 33.6347 10.1465 33.4395L14.0859 29.5L10.1465 25.5605C9.95122 25.3653 9.95122 25.0488 10.1465 24.8535L10.8535 24.1465C11.0488 23.9514 11.3654 23.9513 11.5605 24.1465L15.5 28.0859L19.4395 24.1465Z" fill="oklch(0.3523 0 0 / 1)" class="wd-expressive-fill"></path>
<path d="M29.4395 7.14648C29.6347 6.95131 29.9513 6.95125 30.1465 7.14648L30.8535 7.85352C31.0486 8.04876 31.0486 8.36533 30.8535 8.56055L26.9141 12.5L30.8535 16.4395C31.0484 16.6347 31.0485 16.9513 30.8535 17.1465L30.1465 17.8535C29.9513 18.0487 29.6347 18.0485 29.4395 17.8535L25.5 13.9141L21.5605 17.8535C21.3653 18.0486 21.0488 18.0486 20.8535 17.8535L20.1465 17.1465C19.9512 16.9512 19.9513 16.6347 20.1465 16.4395L24.0859 12.5L20.1465 8.56055C19.9512 8.36528 19.9512 8.04878 20.1465 7.85352L20.8535 7.14648C21.0488 6.95144 21.3654 6.95129 21.5605 7.14648L25.5 11.0859L29.4395 7.14648Z" fill="oklch(0.3523 0 0 / 1)" class="wd-expressive-fill"></path>
<path d="M43 4C46.3136 4.00009 49 6.68634 49 10C49 13.3137 46.3136 15.9999 43 16C39.6863 16 37 13.3137 37 10C37 6.68629 39.6863 4 43 4ZM43 6C40.7909 6 39 7.79086 39 10C39 12.2091 40.7909 14 43 14C45.2091 13.9999 47 12.2091 47 10C47 7.79091 45.2091 6.00009 43 6Z" fill="oklch(0.3523 0 0 / 1)" class="wd-expressive-fill"></path>
</g>
</svg>