<svg role="presentation" width="56" height="56" viewBox="0 0 56 56" xmlns="http://www.w3.org/2000/svg" class="wd-expressive wd-expressive-team-organization">
<g>
<path d="M13.001 49C15.6848 49.0002 18.134 50.0072 19.9902 51.6641C18.5213 52.5119 16.8179 53 15 53C12.3167 52.9999 9.88197 51.9409 8.08594 50.2207C9.55236 49.4424 11.2252 49 13.001 49Z" fill="oklch(0.3057 0.079 256.22 / 0.13)" class="wd-expressive-accent"></path>
<path d="M39.001 49C41.6848 49.0002 44.134 50.0072 45.9902 51.6641C44.5213 52.5119 42.8179 53 41 53C38.3167 52.9999 35.882 51.9409 34.0859 50.2207C35.5524 49.4424 37.2252 49 39.001 49Z" fill="oklch(0.3057 0.079 256.22 / 0.13)" class="wd-expressive-accent"></path>
<path d="M13.001 40C14.6575 40.0004 16.001 41.3434 16.001 43C16.001 43.3028 15.9536 43.5946 15.8701 43.8701C15.5947 43.9535 15.3026 44 15 44C13.3433 43.9999 12 42.6568 12 41C12 40.697 12.0454 40.4046 12.1289 40.1289C12.4047 40.0453 12.6979 40 13.001 40Z" fill="oklch(0.3057 0.079 256.22 / 0.13)" class="wd-expressive-accent"></path>
<path d="M39.001 40C40.6575 40.0004 42.001 41.3434 42.001 43C42.001 43.3028 41.9536 43.5946 41.8701 43.8701C41.5947 43.9535 41.3026 44 41 44C39.3433 43.9999 38 42.6568 38 41C38 40.697 38.0454 40.4046 38.1289 40.1289C38.4047 40.0453 38.6979 40 39.001 40Z" fill="oklch(0.3057 0.079 256.22 / 0.13)" class="wd-expressive-accent"></path>
<path d="M26.001 19C28.6848 19.0002 31.134 20.0072 32.9902 21.6641C31.5213 22.5119 29.8179 23 28 23C25.3167 22.9999 22.882 21.9409 21.0859 20.2207C22.5524 19.4424 24.2252 19 26.001 19Z" fill="oklch(0.3057 0.079 256.22 / 0.13)" class="wd-expressive-accent"></path>
<path d="M26.001 10C27.6575 10.0004 29.001 11.3434 29.001 13C29.001 13.3028 28.9536 13.5946 28.8701 13.8701C28.5947 13.9535 28.3026 14 28 14C26.3433 13.9999 25 12.6568 25 11C25 10.697 25.0454 10.4046 25.1289 10.1289C25.4047 10.0453 25.6979 10 26.001 10Z" fill="oklch(0.3057 0.079 256.22 / 0.13)" class="wd-expressive-accent"></path>
</g>
<g>
<path d="M15 37C17.2091 37 19 38.7909 19 41C19 43.2091 17.2091 45 15 45C12.7909 45 11 43.2091 11 41C11 38.7909 12.7909 37 15 37ZM15 39C13.8954 39 13 39.8954 13 41C13 42.1046 13.8954 43 15 43C16.1046 43 17 42.1046 17 41C17 39.8954 16.1046 39 15 39Z" fill="oklch(0.3523 0 0 / 1)" class="wd-expressive-fill"></path>
<path d="M15 32C21.0751 32 26 36.9249 26 43C26 49.0751 21.0751 54 15 54C8.92487 54 4 49.0751 4 43C4 36.9249 8.92487 32 15 32ZM15 48C12.842 48 10.8538 48.7187 9.25879 49.9307C10.8169 51.2228 12.8176 52 15 52C17.1821 52 19.1822 51.2226 20.7402 49.9307C19.1453 48.719 17.1577 48 15 48ZM15 34C10.0294 34 6 38.0294 6 43C6 45.0643 6.69652 46.965 7.86523 48.4834C9.82571 46.9303 12.3048 46 15 46C17.695 46 20.1734 46.9306 22.1338 48.4834C23.3027 46.9649 24 45.0645 24 43C24 38.0294 19.9706 34 15 34Z" fill="oklch(0.3523 0 0 / 1)" class="wd-expressive-fill"></path>
<path d="M41 37C43.2091 37 45 38.7909 45 41C45 43.2091 43.2091 45 41 45C38.7909 45 37 43.2091 37 41C37 38.7909 38.7909 37 41 37ZM41 39C39.8954 39 39 39.8954 39 41C39 42.1046 39.8954 43 41 43C42.1046 43 43 42.1046 43 41C43 39.8954 42.1046 39 41 39Z" fill="oklch(0.3523 0 0 / 1)" class="wd-expressive-fill"></path>
<path d="M41 32C47.0751 32 52 36.9249 52 43C52 49.0751 47.0751 54 41 54C34.9249 54 30 49.0751 30 43C30 36.9249 34.9249 32 41 32ZM41 48C38.842 48 36.8538 48.7187 35.2588 49.9307C36.8169 51.2228 38.8176 52 41 52C43.1821 52 45.1822 51.2226 46.7402 49.9307C45.1453 48.719 43.1577 48 41 48ZM41 34C36.0294 34 32 38.0294 32 43C32 45.0643 32.6965 46.965 33.8652 48.4834C35.8257 46.9303 38.3048 46 41 46C43.695 46 46.1734 46.9306 48.1338 48.4834C49.3027 46.9649 50 45.0645 50 43C50 38.0294 45.9706 34 41 34Z" fill="oklch(0.3523 0 0 / 1)" class="wd-expressive-fill"></path>
<path d="M28 7C30.2091 7 32 8.79086 32 11C32 13.2091 30.2091 15 28 15C25.7909 15 24 13.2091 24 11C24 8.79086 25.7909 7 28 7ZM28 9C26.8954 9 26 9.89543 26 11C26 12.1046 26.8954 13 28 13C29.1046 13 30 12.1046 30 11C30 9.89543 29.1046 9 28 9Z" fill="oklch(0.3523 0 0 / 1)" class="wd-expressive-fill"></path>
<path d="M28 2C34.0751 2 39 6.92487 39 13C39 18.738 34.6064 23.4468 29 23.9521V26H39C40.6569 26 42 27.3431 42 29V29.5C42 29.7761 41.7761 30 41.5 30H40.5C40.2239 30 40 29.7761 40 29.5V29C40 28.4477 39.5523 28 39 28H17C16.4477 28 16 28.4477 16 29V29.5C16 29.7761 15.7761 30 15.5 30H14.5C14.2239 30 14 29.7761 14 29.5V29C14 27.3431 15.3431 26 17 26H27V23.9521C21.3936 23.4468 17 18.738 17 13C17 6.92487 21.9249 2 28 2ZM28 18C25.842 18 23.8538 18.7187 22.2588 19.9307C23.8169 21.2228 25.8176 22 28 22C30.1821 22 32.1822 21.2226 33.7402 19.9307C32.1453 18.719 30.1577 18 28 18ZM28 4C23.0294 4 19 8.02944 19 13C19 15.0643 19.6965 16.965 20.8652 18.4834C22.8257 16.9303 25.3048 16 28 16C30.695 16 33.1734 16.9306 35.1338 18.4834C36.3027 16.9649 37 15.0645 37 13C37 8.02944 32.9706 4 28 4Z" fill="oklch(0.3523 0 0 / 1)" class="wd-expressive-fill"></path>
</g>
</svg>