<svg role="presentation" width="56" height="56" viewBox="0 0 56 56" xmlns="http://www.w3.org/2000/svg" class="wd-expressive wd-expressive-jacks">
<path d="M28 3C41.8071 3 53 14.1929 53 28C53 41.8071 41.8071 53 28 53C14.1929 53 3 41.8071 3 28C3 14.1929 14.1929 3 28 3ZM28 9C25.2388 9.00022 23 11.2387 23 14C23 15.9336 24.0979 17.6097 25.7041 18.4414C25.8805 18.5328 26 18.7105 26 18.9092V23.6689C26 24.0537 25.5832 24.2945 25.25 24.1025L21.1279 21.7217C20.9559 21.6223 20.861 21.4309 20.8701 21.2324C20.9528 19.4258 20.0502 17.6367 18.376 16.6699C15.9846 15.2893 12.9267 16.1087 11.5459 18.5C10.1652 20.8915 10.9845 23.9494 13.376 25.3301C15.0504 26.2967 17.051 26.184 18.5742 25.209C18.7415 25.102 18.9549 25.0872 19.127 25.1865L23.248 27.5664C23.5814 27.7588 23.5814 28.2392 23.248 28.4316L19.127 30.8125C18.955 30.9118 18.7415 30.897 18.5742 30.79C17.051 29.8154 15.0502 29.7035 13.376 30.6699C10.9846 32.0507 10.1652 35.1086 11.5459 37.5C12.9267 39.8913 15.9846 40.7107 18.376 39.3301C20.0506 38.3631 20.9532 36.5736 20.8701 34.7666C20.861 34.5681 20.9558 34.3757 21.1279 34.2764L25.25 31.8965C25.5832 31.7046 26 31.9454 26 32.3301V37.0898C26 37.2886 25.8806 37.4663 25.7041 37.5576C24.0978 38.3894 23 40.0663 23 42C23 44.7613 25.2388 46.9998 28 47C30.7612 46.9998 33 44.7613 33 42C33 40.0659 31.9017 38.3882 30.2949 37.5566C30.1185 37.4653 30 37.2876 30 37.0889V32.3301C30 31.9452 30.4167 31.704 30.75 31.8965L34.8711 34.2764C35.0432 34.3757 35.138 34.5681 35.1289 34.7666C35.0459 36.5737 35.9502 38.3631 37.625 39.3301C40.0164 40.7104 43.0745 39.8913 44.4551 37.5C45.8354 35.1088 45.0159 32.0507 42.625 30.6699C40.9507 29.7032 38.9492 29.8153 37.4258 30.79C37.2586 30.897 37.045 30.9115 36.873 30.8125L32.75 28.4316C32.4167 28.2392 32.4167 27.7588 32.75 27.5664L36.8721 25.1865C37.0441 25.0872 37.2585 25.1019 37.4258 25.209C38.9492 26.1841 40.9505 26.2969 42.625 25.3301C45.016 23.9493 45.8355 20.8912 44.4551 18.5C43.0745 16.1087 40.0164 15.2896 37.625 16.6699C35.9505 17.6367 35.0463 19.4256 35.1289 21.2324C35.138 21.4307 35.0438 21.6222 34.8721 21.7217L30.75 24.1025C30.4167 24.295 30 24.0539 30 23.6689V18.9102C30 18.7115 30.1185 18.5337 30.2949 18.4424C31.9016 17.6108 33 15.934 33 14C33 11.2387 30.7612 9.00023 28 9Z" fill="oklch(0.3057 0.079 256.22 / 0.13)" class="wd-expressive-accent"></path>
<path d="M27.9991 8C31.3128 8 33.9991 10.6863 33.9991 14C33.9991 16.2218 32.7896 18.1562 30.9991 19.1924V22.8027L34.126 20.9971C34.1287 18.9287 35.2005 16.9143 37.1241 15.8037C39.9937 14.1471 43.6635 15.1303 45.3204 18C46.9253 20.78 46.0526 24.3109 43.3878 26.0352L43.1241 26.1963C41.1998 27.3072 38.9195 27.226 37.127 26.1934L33.9991 27.999L37.127 29.8047C38.9196 28.7726 41.2003 28.6931 43.1241 29.8037C45.9038 31.4088 46.9135 34.9028 45.4678 37.7285L45.3204 38C43.7153 40.78 40.2213 41.7894 37.3956 40.3438L37.1241 40.1963C35.1999 39.0853 34.1281 37.0701 34.126 35.001L30.9991 33.1953V36.8057C32.7902 37.842 33.9991 39.7781 33.9991 42C33.9991 45.3137 31.3128 48 27.9991 48C24.6857 47.9997 21.9991 45.3136 21.9991 42C21.9991 39.7781 23.2087 37.8429 24.9991 36.8066V33.1953L21.8712 35.001C21.8693 37.0698 20.7995 39.0852 18.8751 40.1963C16.0053 41.853 12.3356 40.8697 10.6788 38C9.02203 35.1303 10.0054 31.4606 12.8751 29.8037L13.0645 29.6992C14.9469 28.6996 17.1363 28.8069 18.8702 29.8047L21.9971 27.999L18.8702 26.1934C17.078 27.2253 14.799 27.3071 12.8751 26.1963C10.0054 24.5394 9.02202 20.8697 10.6788 18C12.3356 15.1303 16.0053 14.147 18.8751 15.8037C20.7989 16.9145 21.8686 18.929 21.8712 20.9971L24.9991 22.8027V19.1914C23.2093 18.1553 21.9991 16.2218 21.9991 14C21.9991 10.6864 24.6857 8.0003 27.9991 8ZM27.9991 10C25.7901 10.0003 23.9991 11.7911 23.9991 14C23.9991 15.5448 24.8761 16.8858 26.1641 17.5527C26.6389 17.7987 26.9991 18.3007 26.9991 18.9092V23.6689C26.9991 24.8237 25.7491 25.5452 24.7491 24.9678L20.627 22.5879C20.1001 22.2836 19.8457 21.7206 19.8702 21.1865C19.9364 19.738 19.213 18.3086 17.8751 17.5361C15.9619 16.4316 13.5158 17.0869 12.4112 19C11.3067 20.9131 11.962 23.3593 13.8751 24.4639C15.213 25.2363 16.8128 25.148 18.0342 24.3662L18.21 24.2695C18.6061 24.083 19.0901 24.0571 19.5264 24.2676L19.626 24.3213L23.7481 26.7002C24.7479 27.2775 24.7479 28.7204 23.7481 29.2979L19.626 31.6777C19.0991 31.982 18.4846 31.921 18.0342 31.6328C16.8893 30.9002 15.4117 30.7774 14.129 31.4014L13.8751 31.5361C11.962 32.6408 11.3067 35.0869 12.4112 37C13.5158 38.9131 15.9619 39.5684 17.8751 38.4639C19.2133 37.6912 19.9368 36.2613 19.8702 34.8125C19.8456 34.2784 20.1001 33.7155 20.627 33.4111L24.7491 31.0312L24.9395 30.9375C25.9007 30.5456 26.9991 31.2477 26.9991 32.3301V37.0898C26.9991 37.6985 26.638 38.2004 26.1631 38.4463C24.8756 39.1132 23.9991 40.455 23.9991 42C23.9991 44.2089 25.7901 45.9997 27.9991 46C30.2082 46 31.9991 44.2091 31.9991 42C31.9991 40.4542 31.1227 39.1119 29.835 38.4453C29.3601 38.1995 28.9991 37.6976 28.9991 37.0889V32.3301C28.9991 31.2477 30.0975 30.5457 31.0587 30.9375L31.2491 31.0312L35.3712 33.4111C35.8981 33.7155 36.1525 34.2784 36.128 34.8125C36.0615 36.261 36.7856 37.691 38.1241 38.4639L38.3047 38.5625C40.1887 39.5264 42.5179 38.8532 43.5879 37L43.6866 36.8193C44.6505 34.9356 43.9772 32.6063 42.1241 31.5361C40.7859 30.7635 39.1852 30.8513 37.9639 31.6328C37.5136 31.9209 36.8991 31.9819 36.3721 31.6777L32.2491 29.2979C31.2495 28.7204 31.2495 27.2776 32.2491 26.7002L36.3721 24.3203C36.899 24.0163 37.5137 24.0781 37.9639 24.3662C39.1853 25.1482 40.7859 25.2364 42.1241 24.4639L42.2999 24.3564C44.0763 23.2068 44.6579 20.8532 43.5879 19C42.4834 17.087 40.0372 16.4317 38.1241 17.5361C36.7859 18.3088 36.0619 19.7384 36.128 21.1865C36.1524 21.7206 35.8981 22.2836 35.3712 22.5879L31.2491 24.9678C30.2491 25.5451 28.9991 24.8236 28.9991 23.6689V18.9102C28.9991 18.3015 29.3601 17.7996 29.835 17.5537L30.0713 17.4209C31.2287 16.7185 31.9991 15.4489 31.9991 14C31.9991 11.7909 30.2082 10 27.9991 10Z" fill="oklch(0.3523 0 0 / 1)" class="wd-expressive-fill"></path>
</svg>