<svg role="presentation" width="56" height="56" viewBox="0 0 56 56" xmlns="http://www.w3.org/2000/svg" class="wd-expressive wd-expressive-rabbit">
<g>
<path d="M17.3901 41.9505C17.5885 42.9425 18.0767 43.8294 18.767 44.5159C14.9491 45.5289 11.2737 46.3688 8.8549 46.8968C7.51708 47.1888 6.34901 45.9888 6.65666 44.6546C7.15027 42.5156 9.05523 41.0003 11.2504 41.0003H12.4994C15.4712 41.0003 16.9715 40.0187 16.9994 40.0003L17.3901 41.9505Z" fill="oklch(0.3057 0.079 256.22 / 0.13)" class="wd-expressive-accent"></path>
<path d="M21.7953 26.0003C28.9998 31.5003 30.9999 38.5 40.9994 37.0003C33.0135 42.8584 25.5061 42.8684 25.4799 42.8684C24.6773 42.4481 24.226 41.5215 24.3891 40.597C24.6699 39.0054 24.9994 36.5853 24.9994 34.0003C24.9994 30.7882 22.9619 27.5758 21.7953 26.0003Z" fill="oklch(0.3057 0.079 256.22 / 0.13)" class="wd-expressive-accent"></path>
<path d="M3.10295 21.7053C3.03972 21.364 3.35151 21.1013 3.68108 21.2102C5.26061 21.7325 9.24782 23.2487 11.9994 26.0003C16.4994 30.5002 17.9994 40.0003 17.9994 40.0003L15.9994 37.0003L7.99944 31.0003V29.0003C7.99944 27.8957 7.05161 27.0581 6.0678 26.5559C4.04506 25.5236 3.33451 22.9551 3.10295 21.7053Z" fill="oklch(0.3057 0.079 256.22 / 0.13)" class="wd-expressive-accent"></path>
<path d="M27.6518 7.81863C28.7134 7.61054 30.9544 7.5208 33.4994 9.50027C37.9866 12.9904 38.7452 21.0541 38.7494 21.0999C38.2669 21.0355 37.8256 20.7938 37.5112 20.4221L27.4379 8.51785C27.2205 8.26088 27.3216 7.88355 27.6518 7.81863Z" fill="oklch(0.3057 0.079 256.22 / 0.13)" class="wd-expressive-accent"></path>
</g>
<g>
<path d="M44.9998 22.0001C46.1042 22.0002 46.9997 22.8957 46.9998 24.0001C46.9998 25.1046 46.1043 26 44.9998 26.0001C43.8952 26.0001 42.9998 25.1047 42.9998 24.0001C42.9999 22.8956 43.8953 22.0001 44.9998 22.0001Z" fill="oklch(0.3523 0 0 / 1)" class="wd-expressive-fill"></path>
<path d="M28.0096 3.99328C30.1379 4.12586 32.8331 4.5182 34.9568 5.61047C37.2441 6.78697 38.9292 9.03184 40.1277 11.2267C41.3384 13.4438 42.1253 15.7452 42.5564 17.2042C42.7 17.6901 43.151 18.0759 43.6922 18.1486C44.9942 18.3233 46.9549 18.7178 48.5096 19.6398C49.6936 20.3421 50.7068 21.478 51.5223 22.6251C52.347 23.7853 53.0222 25.0324 53.5105 26.0362C54.2967 27.6527 53.9962 29.5037 52.9715 30.8702L52.7928 31.1095C51.6451 32.6397 49.672 33.3029 47.8328 32.7775C47.0147 32.5438 46.0789 32.7235 45.1541 33.256C44.2304 33.7879 43.4087 34.6254 42.8846 35.5177C42.0838 36.881 40.8921 38.3664 39.1248 39.7804C37.9651 40.7081 35.8932 41.5786 33.4842 42.38C32.559 42.6878 31.5622 42.9884 30.5184 43.2862L34.2264 44.3253C36.1395 44.861 37.6456 46.3393 38.2166 48.2423C38.7781 50.115 37.3757 51.9998 35.4207 52.0001H34.4549C32.9465 52.0001 31.4929 51.4314 30.3846 50.4083L29.4803 49.5734C29.003 49.1328 28.4252 48.815 27.7977 48.6476L20.7469 46.7677C20.1533 46.6094 19.5993 46.3616 19.0955 46.0441C15.0856 46.8883 11.384 47.5745 8.98027 48.0011C6.91541 48.3675 5.20387 46.5006 5.66777 44.4903C6.27442 41.8622 8.61503 40.0003 11.3123 40.0001H12.4998C13.8863 40.0001 14.9048 39.7697 15.5584 39.5519C15.6715 39.5142 15.7734 39.4755 15.865 39.4396C15.6577 38.5293 15.1396 37.7179 14.3963 37.1495L9.14824 33.1368C7.79417 32.1012 6.9998 30.4939 6.9998 28.7892C6.99956 28.4084 6.63833 27.9105 5.85137 27.5607C4.47718 26.9498 3.60613 25.813 3.05937 24.7394C2.51111 23.6625 2.24298 22.5606 2.11601 21.8693C1.92369 20.8202 2.82432 20.0568 3.73711 20.1652L3.91972 20.1993L7.52617 21.1007C8.00627 21.2204 8.65321 20.9705 9.07304 20.3878C10.612 18.252 14.1169 15.0001 20.9998 15.0001C27.6034 15.0002 32.5549 19.0644 35.1453 21.7941C35.3599 22.0202 35.7024 22.1286 36.0496 22.0734C36.3907 22.0189 36.6205 21.8294 36.7117 21.5861C36.7987 21.3534 36.7512 21.0913 36.5877 20.9044L25.8494 8.63293C25.0526 7.72214 24.9189 6.53603 25.3416 5.57824C25.7711 4.60575 26.7582 3.91549 28.0096 3.99328ZM27.8855 5.98937C27.5015 5.96548 27.2759 6.15019 27.1717 6.38586C27.0611 6.63654 27.0731 6.99293 27.3553 7.31554L38.0926 19.588C38.7409 20.329 38.9301 21.3662 38.5848 22.2882C38.1967 23.3232 37.282 23.9027 36.3641 24.0489C35.4519 24.1942 34.4195 23.9354 33.6941 23.171C31.2311 20.5756 26.7746 17.0002 20.9998 17.0001C14.8664 17.0001 11.9251 19.8497 10.6951 21.5568C9.93399 22.6132 8.52081 23.411 7.04082 23.0411L4.27715 22.3497C4.40546 22.8124 4.58718 23.3314 4.8416 23.8312C5.27061 24.6737 5.86044 25.3754 6.66387 25.7325C7.6825 26.1854 8.99959 27.1937 8.9998 28.7892C8.9998 29.8709 9.50392 30.8908 10.3631 31.548L15.6111 35.5616C16.7681 36.4465 17.5636 37.7222 17.8494 39.1505L18.3709 41.754C18.6696 43.2477 19.7907 44.4426 21.2625 44.8351L28.3133 46.715C29.2546 46.966 30.1208 47.4429 30.8367 48.1036L31.742 48.9386C32.4809 49.6206 33.4493 50.0001 34.4549 50.0001H35.4207C36.0362 49.9998 36.4775 49.4061 36.3006 48.8165C35.9265 47.5702 34.9403 46.602 33.6873 46.2511L25.6033 43.9874C24.0344 43.5481 23.1324 41.9632 23.4041 40.423C23.646 39.0519 23.922 37.0615 23.9852 34.8956C23.9938 34.6 23.9998 34.3009 23.9998 34.0001C23.9996 31.3696 22.4337 28.6368 21.283 27.0001C21.1243 26.7742 21.1715 26.4623 21.3934 26.298L22.1971 25.7032C22.419 25.539 22.732 25.5842 22.8914 25.8097C24.1091 27.5321 25.9997 30.715 25.9998 34.0001C25.9998 34.3135 25.9939 34.6247 25.9852 34.9318C25.9836 34.9862 25.9811 35.0406 25.9793 35.0948C25.9709 35.3467 25.9604 35.596 25.9471 35.8419C25.9425 35.9253 25.9375 36.0083 25.9324 36.0909C25.9197 36.3 25.9052 36.5065 25.8895 36.7101C25.8844 36.7748 25.8801 36.8393 25.8748 36.9034C25.8693 36.97 25.8649 37.0367 25.8592 37.1027C25.8583 37.1123 25.8547 37.1215 25.8533 37.131C25.7281 38.5504 25.5433 39.8104 25.3738 40.7706C25.2695 41.3628 25.6261 41.9171 26.1424 42.0616L26.7469 42.2306C28.9601 41.6676 31.053 41.0801 32.8523 40.4816C35.2729 39.6764 37.0258 38.8981 37.8748 38.2189C39.4468 36.9612 40.4794 35.6629 41.16 34.504C41.8521 33.3258 42.919 32.235 44.1561 31.5226C45.3921 30.8109 46.8918 30.4287 48.3826 30.8546C49.4247 31.1522 50.542 30.7763 51.1922 29.9093L51.3719 29.671C52.0017 28.831 52.1317 27.7751 51.7117 26.9112C51.2512 25.9646 50.6302 24.8225 49.8914 23.7833C49.1433 22.731 48.3247 21.8546 47.49 21.3595C46.2915 20.6486 44.6588 20.2954 43.4266 20.13C42.1432 19.9578 41.0165 19.0502 40.6385 17.7706C40.2281 16.3819 39.4889 14.2297 38.3728 12.1857C37.2443 10.119 35.8005 8.293 34.0428 7.38879C32.2946 6.48957 29.936 6.1171 27.8855 5.98937ZM16.1912 41.4484C15.3448 41.7305 14.1129 42.0001 12.4998 42.0001H11.3123C9.54629 42.0003 8.01417 43.2197 7.61699 44.9405C7.46798 45.5869 8.01103 46.1421 8.63066 46.0323C10.7544 45.6554 13.8872 45.0713 17.3445 44.3605C16.8947 43.7043 16.5707 42.9551 16.409 42.1466L16.2635 41.422C16.2395 41.4302 16.2158 41.4401 16.1912 41.4484Z" fill="oklch(0.3523 0 0 / 1)" class="wd-expressive-fill"></path>
<path d="M22.4998 10.0001C22.7758 10.0002 22.9997 10.2241 22.9998 10.5001V11.5001C22.9998 11.7762 22.7759 12 22.4998 12.0001H8.4998C8.22366 12.0001 7.9998 11.7763 7.9998 11.5001V10.5001C7.99986 10.224 8.2237 10.0001 8.4998 10.0001H22.4998Z" fill="oklch(0.3523 0 0 / 1)" class="wd-expressive-fill"></path>
<path d="M22.4998 6.00011C22.7758 6.00021 22.9997 6.22409 22.9998 6.50011V7.50011C22.9998 7.7762 22.7759 8.00001 22.4998 8.00011H15.4998C15.2237 8.00011 14.9998 7.77626 14.9998 7.50011V6.50011C14.9999 6.22402 15.2237 6.00011 15.4998 6.00011H22.4998Z" fill="oklch(0.3523 0 0 / 1)" class="wd-expressive-fill"></path>
</g>
</svg>