<svg role="presentation" width="56" height="56" viewBox="0 0 56 56" xmlns="http://www.w3.org/2000/svg" class="wd-expressive wd-expressive-receipt-account">
<g>
<path d="M49 34C50.1046 34 51 34.8954 51 36V49C51 50.1046 50.1046 51 49 51H28C26.8954 51 26 50.1046 26 49V36C26 34.8954 26.8954 34 28 34H49ZM34 43C32.4634 43 31.0615 43.5774 30 44.5273V47H38V44.5273C36.9385 43.5774 35.5366 43 34 43ZM34 38C32.8954 38 32 38.8954 32 40C32 41.1046 32.8954 42 34 42C35.1046 42 36 41.1046 36 40C36 38.8954 35.1046 38 34 38Z" fill="oklch(0.3057 0.079 256.22 / 0.13)" class="wd-expressive-accent"></path>
<path d="M13 42.7002L17 45L19.9707 43.291L22 46.7002L18 49L14 46.7002L10 49V5H13V42.7002Z" fill="oklch(0.3057 0.079 256.22 / 0.13)" class="wd-expressive-accent"></path>
</g>
<g>
<path d="M34 37C35.6569 37 37 38.3431 37 40C37 40.911 36.5922 41.7252 35.9512 42.2754C36.9719 42.571 37.8967 43.0929 38.667 43.7822C38.8788 43.9718 38.9999 44.2431 39 44.5273V47C39 47.5523 38.5523 48 38 48H30C29.4478 48 29 47.5523 29 47V44.5273C29.0001 44.2431 29.1212 43.9718 29.333 43.7822C30.103 43.0931 31.0275 42.5711 32.0479 42.2754C31.4072 41.7252 31 40.9107 31 40C31 38.3432 32.3432 37 34 37ZM34 44C32.8736 44 31.8359 44.3718 31 45V46H37V45C36.1641 44.3718 35.1264 44 34 44ZM34 39C33.4478 39 33 39.4477 33 40C33 40.5523 33.4478 41 34 41C34.5523 41 35 40.5523 35 40C35 39.4477 34.5523 39 34 39Z" fill="oklch(0.3523 0 0 / 1)" class="wd-expressive-fill"></path>
<path d="M45.5 42C45.7761 42 46 42.2239 46 42.5V43.5C46 43.7761 45.7761 44 45.5 44H41.5C41.2239 44 41 43.7761 41 43.5V42.5C41 42.2239 41.2239 42 41.5 42H45.5Z" fill="oklch(0.3523 0 0 / 1)" class="wd-expressive-fill"></path>
<path d="M47.5 38C47.7761 38 48 38.2239 48 38.5V39.5C48 39.7761 47.7761 40 47.5 40H41.5C41.2239 40 41 39.7761 41 39.5V38.5C41 38.2239 41.2239 38 41.5 38H47.5Z" fill="oklch(0.3523 0 0 / 1)" class="wd-expressive-fill"></path>
<path d="M49.1543 33.0039C50.7394 33.0842 52 34.3949 52 36V49C52 50.6569 50.6569 52 49 52H28C26.3432 52 25 50.6568 25 49V36C25 34.3432 26.3432 33 28 33H49L49.1543 33.0039ZM28 35C27.4478 35 27 35.4477 27 36V49C27 49.5523 27.4478 50 28 50H49C49.5523 50 50 49.5523 50 49V36C50 35.4823 49.6067 35.0562 49.1025 35.0049L49 35H28Z" fill="oklch(0.3523 0 0 / 1)" class="wd-expressive-fill"></path>
<path d="M40 4C41.6569 4 43 5.34315 43 7V30.5C43 30.7761 42.7761 31 42.5 31H41.5C41.2239 31 41 30.7761 41 30.5V7C41 6.44772 40.5523 6 40 6H12C11.4478 6.00005 11 6.44775 11 7V47.2705L13.252 45.9766L13.4307 45.8887C13.7952 45.7391 14.2048 45.7391 14.5693 45.8887L14.748 45.9766L18 47.8467L21.0684 46.082C21.3078 45.9444 21.6134 46.0271 21.751 46.2666L22 46.7002L22.25 47.1338C22.3875 47.3731 22.3047 47.6788 22.0654 47.8164L19.2734 49.4219L19.2695 49.4229L18.748 49.7236C18.2851 49.9898 17.7149 49.9898 17.252 49.7236L14 47.8525L11.248 49.4365C10.2481 50.0114 9 49.2892 9 48.1357V7C9 5.34318 10.3432 4.00005 12 4H40Z" fill="oklch(0.3523 0 0 / 1)" class="wd-expressive-fill"></path>
<path d="M22.5 32C22.7761 32 23 32.2239 23 32.5V33.5C23 33.7761 22.7761 34 22.5 34H15.5C15.2239 34 15 33.7761 15 33.5V32.5C15 32.2239 15.2239 32 15.5 32H22.5Z" fill="oklch(0.3523 0 0 / 1)" class="wd-expressive-fill"></path>
<path d="M27.5 27C27.7761 27 28 27.2239 28 27.5V28.5C28 28.7761 27.7761 29 27.5 29H15.5C15.2239 29 15 28.7761 15 28.5V27.5C15 27.2239 15.2239 27 15.5 27H27.5Z" fill="oklch(0.3523 0 0 / 1)" class="wd-expressive-fill"></path>
<path d="M36.5 27C36.7761 27 37 27.2239 37 27.5V28.5C37 28.7761 36.7761 29 36.5 29H32.5C32.2239 29 32 28.7761 32 28.5V27.5C32 27.2239 32.2239 27 32.5 27H36.5Z" fill="oklch(0.3523 0 0 / 1)" class="wd-expressive-fill"></path>
<path d="M27.5 22C27.7761 22 28 22.2239 28 22.5V23.5C28 23.7761 27.7761 24 27.5 24H15.5C15.2239 24 15 23.7761 15 23.5V22.5C15 22.2239 15.2239 22 15.5 22H27.5Z" fill="oklch(0.3523 0 0 / 1)" class="wd-expressive-fill"></path>
<path d="M36.5 22C36.7761 22 37 22.2239 37 22.5V23.5C37 23.7761 36.7761 24 36.5 24H32.5C32.2239 24 32 23.7761 32 23.5V22.5C32 22.2239 32.2239 22 32.5 22H36.5Z" fill="oklch(0.3523 0 0 / 1)" class="wd-expressive-fill"></path>
<path d="M31.5 14C31.7761 14 32 14.2239 32 14.5V15.5C32 15.7761 31.7761 16 31.5 16H15.5C15.2239 16 15 15.7761 15 15.5V14.5C15 14.2239 15.2239 14 15.5 14H31.5Z" fill="oklch(0.3523 0 0 / 1)" class="wd-expressive-fill"></path>
<path d="M36.5 9C36.7761 9 37 9.22386 37 9.5V10.5C37 10.7761 36.7761 11 36.5 11H15.5C15.2239 11 15 10.7761 15 10.5V9.5C15 9.22389 15.2239 9.00005 15.5 9H36.5Z" fill="oklch(0.3523 0 0 / 1)" class="wd-expressive-fill"></path>
</g>
</svg>