<svg role="presentation" width="56" height="56" viewBox="0 0 56 56" xmlns="http://www.w3.org/2000/svg" class="wd-expressive wd-expressive-package-location">
<g>
<path d="M38.7145 37.918C38.786 37.7723 39.0008 37.8367 39.0008 37.999L39.0057 38.3721C39.1075 42.2149 40.7806 45.8806 43.6874 48.6055C44.3235 49.2018 45.0084 49.7426 45.7323 50.2246C45.8941 50.3322 46.1056 50.3323 46.2674 50.2246C46.9949 49.7405 47.6805 49.1996 48.3143 48.6055C49.0129 47.9506 49.6431 47.2377 50.1985 46.4769C50.4282 46.1622 50.9406 46.3828 50.7831 46.7393C49.979 48.5588 48.7999 50.2128 47.3143 51.6055C46.6805 52.1996 45.9949 52.7405 45.2674 53.2246C45.1056 53.3323 44.8941 53.3322 44.7323 53.2246C44.0084 52.7426 43.3235 52.2018 42.6874 51.6055C39.7806 48.8806 38.1075 45.2149 38.0057 41.3721L38.0008 41C38.0009 39.8943 38.2577 38.8477 38.7145 37.918Z" fill="oklch(0.3057 0.079 256.22 / 0.13)" class="wd-expressive-accent"></path>
<path d="M32.0008 43.5C32.0008 43.7761 31.777 44 31.5008 44H11.5008C11.2247 44 11.0008 43.7761 11.0008 43.5V35.5C11.0008 35.2239 11.2247 35 11.5008 35H31.5008C31.777 35 32.0008 35.2239 32.0008 35.5V43.5Z" fill="oklch(0.3057 0.079 256.22 / 0.13)" class="wd-expressive-accent"></path>
<path d="M45.0008 38C46.6575 38.0002 48.0008 39.3434 48.0008 41C48.0007 42.6565 46.6574 43.9998 45.0008 44C43.3441 44 42.001 42.6566 42.0008 41C42.0008 39.3433 43.344 38 45.0008 38Z" fill="oklch(0.3057 0.079 256.22 / 0.13)" class="wd-expressive-accent"></path>
<path d="M48.2611 13.1678C48.5477 13.4903 48.3188 14 47.8874 14H8.11426C7.68284 14 7.45393 13.4903 7.74055 13.1678L14.8517 5.16782C14.9465 5.06107 15.0826 5 15.2254 5H40.7763C40.9191 5 41.0551 5.06107 41.15 5.16782L48.2611 13.1678Z" fill="oklch(0.3057 0.079 256.22 / 0.13)" class="wd-expressive-accent"></path>
</g>
<g>
<path d="M45 37C47.2091 37 49 38.7909 49 41C48.9998 43.2089 47.2089 45 45 45C42.7912 44.9998 41.0002 43.2088 41 41C41 38.791 42.7911 37.0002 45 37ZM45 39C43.8955 39.0002 43 39.8958 43 41C43.0002 42.104 43.8957 42.9998 45 43C46.1045 43 46.9998 42.1042 47 41C47 39.8956 46.1046 39 45 39Z" fill="oklch(0.3523 0 0 / 1)" class="wd-expressive-fill"></path>
<path d="M45 33C49.418 33 52.9997 36.5812 53 40.999V41.0137L52.9951 41.3828V41.3955C52.9432 43.3705 52.5031 45.3198 51.6973 47.1436C50.8376 49.089 49.5783 50.8527 47.9971 52.335C47.3215 52.9682 46.5922 53.543 45.8203 54.0566C45.3229 54.3875 44.6753 54.3879 44.1777 54.0566C43.4092 53.5449 42.6805 52.9701 42.0029 52.335C38.9085 49.4341 37.114 45.518 37.0049 41.3984V41.3848L37 41.0127V40.999L37.0107 40.5869C37.2254 36.3607 40.7203 33.0002 45 33ZM45 35C41.6865 35.0002 39.0002 37.686 39 40.999L39.0049 41.3457L39.0176 41.6797C39.1972 45.1243 40.7364 48.4069 43.3701 50.876C43.8798 51.3537 44.4264 51.7907 44.999 52.1914C45.5747 51.789 46.122 51.352 46.6299 50.876C48.0198 49.573 49.1187 48.0286 49.8672 46.335C50.5687 44.7474 50.9501 43.0548 50.9951 41.3428L51 40.999C50.9998 37.6859 48.3136 35 45 35Z" fill="oklch(0.3523 0 0 / 1)" class="wd-expressive-fill"></path>
<path d="M40.1025 4C40.9592 4.00013 41.7755 4.36662 42.3447 5.00684L49.2432 12.7676C49.7311 13.3167 50.001 14.0262 50.001 14.7607L50 30.5C50 30.7761 49.7761 31 49.5 31H48.5C48.224 30.9998 48 30.776 48 30.5V21.5C48 21.4967 48.0009 21.4935 48.001 21.4902V15H8.00098V47C8.00098 47.5523 8.44869 48 9.00098 48H35.5C35.7761 48 36 48.2239 36 48.5V49.5C36 49.7761 35.7761 50 35.5 50H9.00098C7.34412 50 6.00098 48.6569 6.00098 47V14.7607C6.00098 14.0261 6.27073 13.3167 6.75879 12.7676L13.6572 5.00684C14.2265 4.36665 15.0427 4 15.8994 4H40.1025ZM15.8994 6C15.6139 6 15.3411 6.12259 15.1514 6.33594L9.22754 13H27V6H15.8994ZM29 13H46.7744L40.8506 6.33594C40.6609 6.12257 40.388 6.00013 40.1025 6H29V13Z" fill="oklch(0.3523 0 0 / 1)" class="wd-expressive-fill"></path>
<path d="M12.5 35C12.7761 35 13 35.2239 13 35.5V43.5C13 43.7761 12.7761 44 12.5 44H11.5C11.224 43.9998 11 43.776 11 43.5V35.5C11 35.224 11.224 35.0002 11.5 35H12.5Z" fill="oklch(0.3523 0 0 / 1)" class="wd-expressive-fill"></path>
<path d="M15.5 35C15.7761 35 16 35.2239 16 35.5V43.5C16 43.7761 15.7761 44 15.5 44H14.5C14.224 43.9998 14 43.776 14 43.5V35.5C14 35.224 14.224 35.0002 14.5 35H15.5Z" fill="oklch(0.3523 0 0 / 1)" class="wd-expressive-fill"></path>
<path d="M19.5 35C19.7761 35 20 35.2239 20 35.5V43.5C20 43.7761 19.7761 44 19.5 44H18.5C18.224 43.9998 18 43.776 18 43.5V35.5C18 35.224 18.224 35.0002 18.5 35H19.5Z" fill="oklch(0.3523 0 0 / 1)" class="wd-expressive-fill"></path>
<path d="M24.5 35C24.7761 35 25 35.2239 25 35.5V43.5C25 43.7761 24.7761 44 24.5 44H23.5C23.224 43.9998 23 43.776 23 43.5V35.5C23 35.224 23.224 35.0002 23.5 35H24.5Z" fill="oklch(0.3523 0 0 / 1)" class="wd-expressive-fill"></path>
<path d="M27.5 35C27.7761 35 28 35.2239 28 35.5V43.5C28 43.7761 27.7761 44 27.5 44H26.5C26.224 43.9998 26 43.776 26 43.5V35.5C26 35.224 26.224 35.0002 26.5 35H27.5Z" fill="oklch(0.3523 0 0 / 1)" class="wd-expressive-fill"></path>
<path d="M31.5 35C31.7761 35 32 35.2239 32 35.5V43.5C32 43.7761 31.7761 44 31.5 44H30.5C30.224 43.9998 30 43.776 30 43.5V35.5C30 35.224 30.224 35.0002 30.5 35H31.5Z" fill="oklch(0.3523 0 0 / 1)" class="wd-expressive-fill"></path>
</g>
</svg>