<svg role="presentation" width="56" height="56" viewBox="0 0 56 56" xmlns="http://www.w3.org/2000/svg" class="wd-expressive wd-expressive-tie-gear">
<g>
<path d="M23 9H26.2695L25.4229 11H24C23.5699 11.4035 23.1801 11.8505 22.835 12.333L23.3691 12H25C25.524 12.4916 25.9882 13.0474 26.3838 13.6543L21.1836 16.9033L20.7373 22.6426L27.8389 18.2061L28.1006 21.5801L20.4482 26.3623L20.002 32.1025L28.5059 26.7891L28.7686 30.1631L19.7129 35.8213L19.2666 41.5625L25.0791 37.9307C25.0917 38.1311 25.122 38.3255 25.167 38.5127C24.8858 38.6848 24.6203 38.9029 24.3848 39.1719L24.2441 39.3428C23.5098 40.2972 23.0547 41.4826 23.0049 42.7646L19.165 45.165L22.5254 48.5254L24.7168 47.1562C24.8607 47.2808 25.0111 47.3918 25.167 47.4873C25.0741 47.8733 25.0448 48.29 25.1016 48.7266C25.1673 49.2316 25.2976 49.7306 25.4922 50.21L24.7031 50.7031L25 51L23 53L16 46L18.1943 17.7773C18.2186 17.4997 18.2552 17.226 18.3037 16.957C18.3158 16.8899 18.3302 16.8234 18.3438 16.7568C18.3582 16.686 18.3716 16.6151 18.3877 16.5449C18.4049 16.4695 18.4252 16.395 18.4443 16.3203C18.4574 16.2695 18.4695 16.2184 18.4834 16.168C18.506 16.0856 18.5308 16.0042 18.5557 15.9229C18.5711 15.8724 18.5853 15.8216 18.6016 15.7715C18.6295 15.6856 18.661 15.6012 18.6914 15.5166C18.7058 15.4767 18.7185 15.4362 18.7334 15.3965C18.7605 15.3243 18.7895 15.2529 18.8184 15.1816C18.8403 15.1275 18.8618 15.0732 18.8848 15.0195C18.9188 14.94 18.955 14.8615 18.9912 14.7832C19.0014 14.7611 19.0111 14.7388 19.0215 14.7168L19.0225 14.7158C19.5098 13.6848 20.1839 12.7656 21 12L18 4.91016C18.7531 4.23608 19.6438 3.71309 20.624 3.38574L23 9Z" fill="oklch(0.3057 0.079 256.22 / 0.13)" class="wd-expressive-accent"></path>
<path d="M30.6611 35.0762C30.802 35.0579 30.9405 35.1134 31.041 35.2139L32.0332 36.2051C32.1922 36.3641 32.4367 36.3957 32.6377 36.2949C32.6716 36.2779 32.706 36.2616 32.7402 36.2451C32.2654 37.2295 32 38.3339 32 39.5C32 40.8706 32.3697 42.1541 33.0117 43.2598C33.136 44.709 34.2902 45.8625 35.7393 45.9873C36.8451 46.6298 38.1289 47 39.5 47C40.6647 47 41.7675 46.7345 42.751 46.2607C42.7348 46.2942 42.7198 46.3282 42.7031 46.3613C42.6021 46.5623 42.6339 46.8077 42.793 46.9668L43.7871 47.96C43.8876 48.0605 43.9422 48.1998 43.9238 48.3408C43.8413 48.9738 43.5575 49.586 43.0713 50.0723C42.5848 50.5586 41.9721 50.8433 41.3389 50.9258C41.198 50.944 41.0595 50.8885 40.959 50.7881L39.9639 49.7939C39.8049 49.6349 39.5603 49.6032 39.3594 49.7041C39.0402 49.8645 38.7075 50.0031 38.3643 50.1172C38.1511 50.1883 38.001 50.3837 38.001 50.6084V52.0127C38.001 52.1549 37.9408 52.2922 37.8281 52.3789C37.3222 52.7681 36.6885 52.9998 36.001 53C35.3132 53 34.6789 52.7682 34.1729 52.3789C34.0601 52.2922 34.001 52.1549 34.001 52.0127V50.6084C34.001 50.3837 33.8499 50.1882 33.6367 50.1172C33.2929 50.0031 32.9593 49.8647 32.6396 49.7041C32.4386 49.6033 32.1941 49.6349 32.0352 49.7939L31.041 50.7881C30.9406 50.8885 30.802 50.944 30.6611 50.9258C30.0281 50.8433 29.4161 50.5584 28.9297 50.0723C28.4432 49.5858 28.1586 48.9732 28.0762 48.3398C28.0578 48.1989 28.1125 48.0595 28.2129 47.959L29.2051 46.9658C29.3639 46.8067 29.3957 46.5613 29.2949 46.3604C29.1346 46.0407 28.9967 45.708 28.8828 45.3643C28.8121 45.1509 28.6164 45.0001 28.3916 45H26.9873C26.8452 44.9999 26.7078 44.9407 26.6211 44.8281C26.2317 44.322 26.001 43.688 26.001 43C26.001 42.312 26.2317 41.678 26.6211 41.1719C26.7078 41.0593 26.8452 41.0001 26.9873 41H28.3916C28.6164 40.9999 28.8121 40.8491 28.8828 40.6357C28.9968 40.2917 29.1345 39.9586 29.2949 39.6387C29.3957 39.4376 29.3641 39.1923 29.2051 39.0332L28.2129 38.042C28.1124 37.9414 28.0578 37.8021 28.0762 37.6611C28.1587 37.028 28.4434 36.416 28.9297 35.9297C29.4161 35.4435 30.028 35.1586 30.6611 35.0762Z" fill="oklch(0.3057 0.079 256.22 / 0.13)" class="wd-expressive-accent"></path>
<path d="M45.9893 43.2568C45.9392 43.8454 45.7195 44.3857 45.3789 44.8281C45.2922 44.9407 45.1548 44.9999 45.0127 45H44.5977C45.144 44.4933 45.6129 43.9055 45.9893 43.2568Z" fill="oklch(0.3057 0.079 256.22 / 0.13)" class="wd-expressive-accent"></path>
<path d="M35.7402 33.0117C35.093 33.3876 34.5067 33.8561 34.001 34.4014V33.9873C34.001 33.8451 34.0601 33.7078 34.1729 33.6211C34.6143 33.2816 35.1533 33.0623 35.7402 33.0117Z" fill="oklch(0.3057 0.079 256.22 / 0.13)" class="wd-expressive-accent"></path>
</g>
<g>
<path d="M23 2C25.1764 2 27.1639 2.81971 28.667 4.16504C28.9854 4.45014 29.0875 4.90623 28.9209 5.2998L26.1817 11.7725C27.5353 13.2345 28.4647 15.1105 28.7491 17.2158L28.8018 17.6904L28.8028 17.7002L29.3887 25.2461C29.389 25.2487 29.3905 25.2513 29.3907 25.2539L29.8614 31.3125C29.8828 31.5879 29.6768 31.8283 29.4014 31.8496L28.4043 31.9268C28.1293 31.9478 27.8888 31.7427 27.8672 31.4678L27.8516 31.2676L27.8506 31.2686L26.8096 17.8643C26.643 15.9608 25.8241 14.2733 24.5909 13H21.4092C20.1781 14.2711 19.359 15.955 19.1905 17.8545L17.0323 45.6182L23 51.5859L24.0205 50.5635L24.9395 49.6465C25.1347 49.4513 25.4513 49.4513 25.6465 49.6465L26.3536 50.3535C26.5488 50.5488 26.5488 50.8653 26.3536 51.0605L23.7071 53.707C23.5195 53.8945 23.2652 54 23 54C22.7349 54 22.4805 53.8946 22.293 53.707L15.293 46.707C15.0866 46.5005 14.9805 46.214 15.003 45.9229L17.1973 17.7002L17.1983 17.6904C17.3993 15.3929 18.3642 13.3444 19.8184 11.7734L17.0791 5.2998C16.9126 4.90625 17.0148 4.45014 17.3331 4.16504C18.8362 2.81971 20.8237 2.00002 23 2ZM23 4C21.5868 4.00002 20.2812 4.45122 19.2149 5.2168L21.6631 11H24.337L26.7842 5.2168C25.718 4.45151 24.413 4 23 4Z" fill="oklch(0.3523 0 0 / 1)" class="wd-expressive-fill"></path>
<path d="M36 39C38.2092 39 40 40.7909 40 43C40 45.2091 38.2092 47 36 47C33.7909 47 32 45.2091 32 43C32 40.7909 33.7909 39 36 39ZM36 41C34.8955 41 34 41.8954 34 43C34 44.1046 34.8955 45 36 45C37.1046 45 38 44.1046 38 43C38 41.8954 37.1046 41 36 41Z" fill="oklch(0.3523 0 0 / 1)" class="wd-expressive-fill"></path>
<path d="M36.3418 32.0146C37.1268 32.0814 37.8497 32.3751 38.4395 32.8291C38.8287 33.1291 39.001 33.5773 39.001 33.9883V35.0479C39.1706 35.112 39.338 35.1815 39.502 35.2559L40.252 34.5068C40.5063 34.2527 40.8738 34.072 41.2881 34.0732L41.4688 34.0859L41.7842 34.1396C42.5149 34.295 43.2117 34.657 43.7784 35.2236C44.4258 35.8713 44.8061 36.689 44.9161 37.5332C44.9793 38.0208 44.7849 38.4594 44.4942 38.75L43.7442 39.499C43.8185 39.6633 43.8892 39.8304 43.9532 40H45.0127C45.3724 40.0001 45.7607 40.1318 46.0528 40.4258L46.1719 40.5615L46.3565 40.8223C46.7635 41.4486 47.0009 42.1981 47.001 43C47.0009 43.9167 46.6909 44.7643 46.1719 45.4385C45.8721 45.8279 45.4238 45.9999 45.0127 46H43.9532C43.8889 46.1702 43.8178 46.3373 43.7432 46.502L44.4942 47.2529C44.7847 47.5437 44.9795 47.9823 44.9161 48.4697C44.806 49.314 44.4261 50.1315 43.7784 50.7793C43.1306 51.427 42.3131 51.807 41.4688 51.917C40.9813 51.9805 40.5427 51.7856 40.252 51.4951L39.501 50.7441C39.3371 50.8184 39.1704 50.8882 39.001 50.9521V52.0127C39.0009 52.4237 38.8282 52.872 38.4385 53.1719C37.8481 53.6261 37.1255 53.919 36.3409 53.9854L36.001 54C35.0853 54 34.2382 53.6907 33.5635 53.1719C33.1738 52.872 33.0011 52.4237 33.001 52.0127V50.9521C32.8312 50.8881 32.6635 50.8185 32.4991 50.7441L31.7491 51.4951C31.4585 51.7858 31.0199 51.9803 30.5323 51.917C29.6881 51.807 28.8704 51.4267 28.2227 50.7793C27.575 50.1316 27.1951 49.3139 27.085 48.4697C27.0215 47.9822 27.2154 47.5437 27.5059 47.2529L28.2559 46.502C28.1815 46.3375 28.1119 46.1698 28.0479 46H26.9883C26.5773 46 26.1291 45.827 25.8291 45.4375C25.3101 44.7628 25.0001 43.9157 25 43C25.0002 42.0844 25.31 41.2374 25.8291 40.5625L25.9483 40.4258C26.2406 40.1317 26.6286 40 26.9883 40H28.0479C28.1118 39.8302 28.1806 39.6626 28.2549 39.498L27.5069 38.75C27.2162 38.4594 27.0217 38.0208 27.085 37.5332L27.1387 37.2178C27.294 36.4869 27.6559 35.7904 28.2227 35.2236C28.8706 34.5758 29.6878 34.1959 30.5323 34.0859L30.7129 34.0732C31.0679 34.0723 31.3885 34.2054 31.6329 34.4033L31.7491 34.5078L32.4971 35.2559C32.6622 35.1811 32.8304 35.1112 33.001 35.0469V33.9883C33.001 33.5771 33.173 33.129 33.5625 32.8291L33.8233 32.6445C34.4497 32.2374 35.1987 32 36.001 32L36.3418 32.0146ZM36.001 34C35.6359 34 35.2953 34.0988 35.001 34.2695V35.3906C35.0008 36.0755 34.5454 36.6338 33.9522 36.8311C33.6542 36.93 33.3652 37.0502 33.0879 37.1895C32.5287 37.4704 31.8109 37.3974 31.3262 36.9131L30.5332 36.1201C30.2051 36.2075 29.8952 36.3793 29.6368 36.6377C29.3783 36.8961 29.2066 37.206 29.1192 37.5342L29.9122 38.3271C30.3964 38.8118 30.4697 39.529 30.1895 40.0879C30.0509 40.3643 29.9308 40.6524 29.8321 40.9502C29.6351 41.5441 29.0765 41.9998 28.3916 42H27.2696C27.0994 42.2939 27.0011 42.6345 27.001 43C27.0011 43.3654 27.0994 43.7062 27.2696 44H28.3916C29.0338 44.0002 29.5649 44.4003 29.7911 44.9395L29.8321 45.0498L29.9102 45.2715C29.992 45.491 30.0853 45.7056 30.1895 45.9131C30.4698 46.4721 30.3983 47.1893 29.9141 47.6738L29.1192 48.4678C29.2066 48.7961 29.3783 49.1068 29.6368 49.3652C29.895 49.6232 30.2055 49.7934 30.5332 49.8809L31.3272 49.0879L31.4209 49.002C31.869 48.6227 32.4762 48.556 32.9815 48.7627L33.0879 48.8115L33.2979 48.9121C33.5096 49.0089 33.728 49.0949 33.9512 49.1689C34.5449 49.3661 35.001 49.9243 35.001 50.6094V51.7305C35.295 51.9007 35.6355 52 36.001 52L36.1719 51.9932C36.4729 51.9677 36.7534 51.8739 37.001 51.7305V50.6094C37.001 49.9241 37.4564 49.3661 38.0498 49.1689L38.2705 49.0908C38.4899 49.009 38.7045 48.9158 38.9122 48.8115L39.0186 48.7627C39.524 48.5559 40.1312 48.6227 40.5791 49.002L40.6729 49.0879L41.4668 49.8818C41.7951 49.7944 42.1058 49.6237 42.3643 49.3652C42.6228 49.1067 42.7935 48.7961 42.8809 48.4678L42.087 47.6738C41.6023 47.1892 41.5295 46.4716 41.8106 45.9121L41.9112 45.7021C42.0083 45.4902 42.0948 45.2721 42.169 45.0488L42.21 44.9395C42.4362 44.4004 42.9669 44 43.6094 44H44.7315C44.9022 43.7058 45.0009 43.365 45.001 43C45.0009 42.6351 44.902 42.2942 44.7315 42H43.6094C42.9245 42 42.3663 41.5445 42.169 40.9512C42.0703 40.6539 41.9504 40.3654 41.8116 40.0889C41.5306 39.5294 41.603 38.8118 42.0879 38.3271L42.8799 37.5342C42.7925 37.2064 42.6223 36.8959 42.3643 36.6377C42.1058 36.3792 41.7951 36.2075 41.4668 36.1201L40.6739 36.9141C40.1894 37.3982 39.4715 37.4704 38.9122 37.1895C38.6352 37.0502 38.347 36.9299 38.0498 36.8311C37.4567 36.6339 37.0012 36.0757 37.001 35.3906V34.2695C36.753 34.1256 36.4718 34.0322 36.1709 34.0068L36.001 34Z" fill="oklch(0.3523 0 0 / 1)" class="wd-expressive-fill"></path>
</g>
</svg>