<svg role="presentation" width="56" height="56" viewBox="0 0 56 56" xmlns="http://www.w3.org/2000/svg" class="wd-expressive wd-expressive-clipboard-user">
<g>
<path d="M45 50H11C11 46.5858 11.7079 43.2042 13.084 40.0498C13.6253 38.809 14.2674 37.6133 15 36.4717V44H41V21.1406C42.031 21.0453 43.0337 21 44 21H45V50Z" fill="oklch(0.3057 0.079 256.22 / 0.13)" class="wd-expressive-accent"></path>
<path d="M26.001 32C28.6899 32.0002 31.1435 33.0113 33.001 34.6738V36H21V33.2666C22.4868 32.4597 24.1904 32 26.001 32Z" fill="oklch(0.3057 0.079 256.22 / 0.13)" class="wd-expressive-accent"></path>
<path d="M26.001 23C27.6575 23.0004 29.001 24.3434 29.001 26C29.001 26.3028 28.9536 26.5946 28.8701 26.8701C28.5947 26.9535 28.3026 27 28 27C26.3433 26.9999 25 25.6568 25 24C25 23.697 25.0454 23.4046 25.1289 23.1289C25.4047 23.0453 25.6979 23 26.001 23Z" fill="oklch(0.3057 0.079 256.22 / 0.13)" class="wd-expressive-accent"></path>
<path d="M28 3C29.9339 3 31.6107 4.09857 32.4424 5.70508C32.5338 5.88125 32.7116 6 32.9102 6H36.5C36.7761 6 37 6.22386 37 6.5V12.5C36.9999 12.776 36.7761 13 36.5 13H19.5C19.2239 13 19.0001 12.776 19 12.5V6.5C19 6.22386 19.2239 6 19.5 6H23.0898C23.2884 6 23.4662 5.88125 23.5576 5.70508C24.3893 4.09857 26.0661 3 28 3Z" fill="oklch(0.3057 0.079 256.22 / 0.13)" class="wd-expressive-accent"></path>
</g>
<g>
<path d="M28 29C30.9447 29 33.6331 30.1083 35.667 31.9287C35.8788 32.1184 36 32.3895 36 32.6738V36C36 36.5523 35.5523 37 35 37H21C20.4477 37 20 36.5523 20 36V32.6738C20 32.3895 20.1212 32.1184 20.333 31.9287C22.3669 30.1083 25.0553 29 28 29ZM28 31C25.7238 31 23.6363 31.7992 22 33.1338V35H34V33.1338C32.3637 31.7992 30.2762 31 28 31Z" fill="oklch(0.3523 0 0 / 1)" class="wd-expressive-fill"></path>
<path d="M28 20C30.2091 20 32 21.7909 32 24C32 26.2091 30.2091 28 28 28C25.7909 28 24 26.2091 24 24C24 21.7909 25.7909 20 28 20ZM28 22C26.8954 22 26 22.8954 26 24C26 25.1046 26.8954 26 28 26C29.1046 26 30 25.1046 30 24C30 22.8954 29.1046 22 28 22Z" fill="oklch(0.3523 0 0 / 1)" class="wd-expressive-fill"></path>
<path d="M28 2C30.2218 2 32.1561 3.20968 33.1924 5H36.5C37.1529 5 37.707 5.41766 37.9131 6H43C44.6568 6.00001 46 7.34315 46 9V48C46 49.6568 44.6568 50.9999 43 51H13C11.3431 51 10 49.6568 10 48V9C10 7.34322 11.3432 6.00011 13 6H18.0869C18.293 5.41766 18.8471 5 19.5 5H22.8076C23.8439 3.20968 25.7782 2 28 2ZM13 8C12.4478 8.00011 12 8.44778 12 9V48C12 48.5523 12.4477 49 13 49H43C43.5522 48.9999 44 48.5522 44 48V9C44 8.44772 43.5523 8.00001 43 8H38V10H41C41.2652 10 41.5195 10.1054 41.707 10.293C41.8946 10.4805 42 10.7348 42 11V44C42 44.5522 41.5522 44.9999 41 45H15C14.7348 45 14.4805 44.8946 14.293 44.707C14.1054 44.5195 14 44.2652 14 44V11C14 10.4478 14.4478 10.0001 15 10H18V8H13ZM16 43H40V12H38V12.5C38 13.3284 37.3284 14 36.5 14H19.5C18.6716 14 18 13.3284 18 12.5V12H16V43ZM28 4C26.4548 4 25.1131 4.8764 24.4463 6.16406C24.2004 6.63899 23.6985 7 23.0898 7H20V12H36V7H32.9102C32.3015 7 31.7996 6.63899 31.5537 6.16406C30.8869 4.8764 29.5452 4 28 4Z" fill="oklch(0.3523 0 0 / 1)" class="wd-expressive-fill"></path>
</g>
</svg>