<svg role="presentation" width="56" height="56" viewBox="0 0 56 56" xmlns="http://www.w3.org/2000/svg" class="wd-expressive wd-expressive-prerequisite">
<g>
<path d="M17 46C18.6566 46.0002 20 47.3433 20 49C20 50.6567 18.6566 51.9998 17 52C15.3431 52 14 50.6569 14 49C14 47.3431 15.3431 46 17 46Z" fill="oklch(0.3057 0.079 256.22 / 0.13)" class="wd-expressive-accent"></path>
<path d="M42 46C43.6566 46.0002 45 47.3433 45 49C45 50.6567 43.6566 51.9998 42 52C40.3431 52 39 50.6569 39 49C39 47.3431 40.3431 46 42 46Z" fill="oklch(0.3057 0.079 256.22 / 0.13)" class="wd-expressive-accent"></path>
<path d="M51.0518 35.04L43 38.8379V31.2432L51.0518 35.04Z" fill="oklch(0.3057 0.079 256.22 / 0.13)" class="wd-expressive-accent"></path>
<path d="M27 24C28.6566 24.0002 30 25.3433 30 27C30 28.6567 28.6566 29.9998 27 30C25.3431 30 24 28.6569 24 27C24 25.3431 25.3431 24 27 24Z" fill="oklch(0.3057 0.079 256.22 / 0.13)" class="wd-expressive-accent"></path>
<path d="M12 12H7V7H12V12Z" fill="oklch(0.3057 0.079 256.22 / 0.13)" class="wd-expressive-accent"></path>
<path d="M19 12H14V7H19V12Z" fill="oklch(0.3057 0.079 256.22 / 0.13)" class="wd-expressive-accent"></path>
<path d="M39 6C40.6569 6 42 7.34315 42 9C42 10.6569 40.6569 12 39 12C37.3431 12 36 10.6569 36 9C36 7.34315 37.3431 6 39 6Z" fill="oklch(0.3057 0.079 256.22 / 0.13)" class="wd-expressive-accent"></path>
</g>
<path d="M40 3C42.7612 3.00025 45 5.23873 45 8C45 8.11327 44.9937 8.22552 44.9863 8.33691C47.9828 10.0664 50 13.3023 50 17.0107C49.9999 22.5394 45.5179 27.0215 39.9893 27.0215H32.8955C32.424 29.2929 30.4112 30.9998 28 31C25.5887 31 23.5761 29.293 23.1045 27.0215H16.9893C11.4723 27.0216 7 31.4938 7 37.0107C7.00007 41.2235 9.6093 44.8231 13.2988 46.291C13.997 44.3711 15.8388 43 18 43C20.4187 43.0002 22.4362 44.7179 22.8994 47H38.1006C38.4984 45.0408 40.0407 43.4971 42 43.0996V29.5C42 29.2239 42.2239 29 42.5 29H43.5C43.7761 29 44 29.2239 44 29.5V30.6084L51.4775 34.1357C51.8273 34.3009 52.0516 34.6533 52.0518 35.04C52.0518 35.427 51.8274 35.7801 51.4775 35.9453L44 39.4717V43.0996C46.2821 43.563 48 45.5812 48 48C48 50.7613 45.7612 52.9998 43 53C40.5811 53 38.5639 51.2821 38.1006 49H22.8994C22.4362 51.2821 20.4187 52.9998 18 53C15.3458 53 13.1744 50.932 13.0098 48.3193C8.34493 46.6781 5.00007 42.2368 5 37.0107C5 30.3892 10.3678 25.0216 16.9893 25.0215H23.0967C23.5517 22.7287 25.5736 21 28 21C30.4263 21.0002 32.4484 22.7287 32.9033 25.0215H39.9893C44.4133 25.0215 47.9999 21.4348 48 17.0107C48 14.2249 46.5769 11.7729 44.4189 10.3379C43.5798 11.9209 41.9164 12.9998 40 13C37.5813 12.9998 35.564 11.282 35.1006 9H22V12C22 12.5521 21.5521 12.9998 21 13H7C6.44772 13 6 12.5523 6 12V5C6 4.44772 6.44772 4 7 4H21C21.5521 4.00025 22 4.44787 22 5V7H35.1006C35.564 4.718 37.5813 3.00022 40 3ZM18 45C16.3431 45 15 46.3431 15 48C15 49.6569 16.3431 51 18 51C19.6566 50.9998 21 49.6567 21 48C21 46.3433 19.6566 45.0002 18 45ZM43 45C41.3431 45 40 46.3431 40 48C40 49.6569 41.3431 51 43 51C44.6566 50.9998 46 49.6567 46 48C46 46.3433 44.6566 45.0002 43 45ZM44 37.2598L48.7061 35.04L44 32.8203V37.2598ZM28 23C26.3431 23 25 24.3431 25 26C25 27.6569 26.3431 29 28 29C29.6566 28.9998 31 27.6567 31 26C31 24.3433 29.6566 23.0002 28 23ZM8 11H13V6H8V11ZM15 11H20V6H15V11ZM40 5C38.3434 5.00025 37 6.3433 37 8C37 9.6567 38.3434 10.9998 40 11C41.6566 10.9998 43 9.6567 43 8C43 6.3433 41.6566 5.00025 40 5Z" fill="oklch(0.3523 0 0 / 1)" class="wd-expressive-fill"></path>
</svg>