<svg role="presentation" width="56" height="56" viewBox="0 0 56 56" xmlns="http://www.w3.org/2000/svg" class="wd-expressive wd-expressive-history">
<path d="M28 50.999C20.2334 50.999 13.3666 47.149 9.20215 41.2539L12.0635 39.2373C12.289 39.0784 12.5996 39.1325 12.7646 39.3535C16.2288 43.9942 21.7636 46.999 28 46.999C38.4933 46.9989 47 38.4924 47 27.999C47 17.5057 38.4933 8.99914 28 8.99902C17.5067 8.99914 9 17.5057 9 27.999C9 29.5155 9.17873 30.9905 9.51465 32.4043C9.57832 32.6728 9.41999 32.9466 9.15332 33.0176L5.77051 33.918C5.26892 32.0293 5 30.0456 5 27.999C5 15.2965 15.2975 4.99902 28 4.99902C40.7025 4.99902 51 15.2965 51 27.999C51 40.7016 40.7025 50.999 28 50.999Z" fill="oklch(0.3057 0.079 256.22 / 0.13)" class="wd-expressive-accent"></path>
<g>
<path d="M20.2856 5.2713C26.0553 3.31282 32.3556 3.623 37.9057 6.13751C43.4555 8.65231 47.8414 13.1841 50.1733 18.8133C52.505 24.4428 52.6086 30.7492 50.4623 36.452C48.3159 42.1545 44.0804 46.8282 38.6156 49.5233C33.1509 52.218 26.8643 52.7333 21.0336 50.9647C15.878 49.4005 11.4186 46.154 8.34903 41.7752C8.41339 42.5043 8.45055 43.242 8.45059 43.9871C8.45055 45.7253 8.27346 47.4251 7.93595 49.0652C7.8801 49.3351 7.61199 49.5037 7.34317 49.4432L6.36661 49.2215C6.09786 49.1601 5.92986 48.8921 5.98477 48.6219C6.29001 47.1259 6.45055 45.5749 6.4506 43.9871C6.45051 42.4601 6.30276 40.9666 6.01993 39.5242C6.01871 39.5177 6.01813 39.5102 6.017 39.5037C6.01221 39.4761 6.00971 39.4477 6.00724 39.4197C6.00484 39.3928 6.00254 39.3655 6.00235 39.3387C6.00223 39.3167 6.00397 39.2943 6.00528 39.2723C6.00709 39.242 6.00856 39.2113 6.0131 39.1815C6.01715 39.155 6.0235 39.1285 6.0297 39.1024C6.0349 39.0802 6.0396 39.0576 6.0463 39.0359C6.05574 39.0056 6.06803 38.9757 6.08048 38.9461C6.08892 38.9259 6.09709 38.9052 6.10685 38.8856C6.11057 38.878 6.11363 38.8696 6.11759 38.8621C6.12626 38.8459 6.13745 38.8308 6.14688 38.8152C6.16155 38.7909 6.17605 38.766 6.19278 38.743C6.20505 38.7262 6.21965 38.711 6.23282 38.6951C6.25504 38.6682 6.27803 38.6416 6.30313 38.617C6.31281 38.6076 6.32339 38.5986 6.33341 38.5897C6.36156 38.5643 6.391 38.5396 6.42227 38.5174C6.43735 38.5067 6.45354 38.4969 6.46915 38.4871C6.48931 38.4744 6.50941 38.4604 6.53067 38.449C6.53968 38.4443 6.5499 38.4408 6.55899 38.4363C6.57322 38.4294 6.5884 38.4231 6.60294 38.4168C6.63826 38.4015 6.67405 38.3868 6.71036 38.3758C6.71945 38.3731 6.72952 38.3714 6.73868 38.369C6.78116 38.3574 6.82442 38.3484 6.86759 38.3426C6.87417 38.3417 6.8815 38.3414 6.8881 38.3406C6.93347 38.3356 6.97943 38.3327 7.02481 38.3338C7.03337 38.334 7.04262 38.3353 7.05118 38.3358C7.09389 38.338 7.13707 38.3418 7.17911 38.3494C7.1834 38.3502 7.18851 38.3506 7.19278 38.3514C8.63535 38.6342 10.1285 38.782 11.6557 38.782C13.2437 38.782 14.7943 38.6215 16.2904 38.3162C16.5607 38.2613 16.8287 38.4302 16.89 38.699L17.1117 39.6746C17.1729 39.9438 17.0041 40.2125 16.7338 40.2684C15.0936 40.6059 13.394 40.782 11.6557 40.782C11.1195 40.782 10.587 40.7639 10.059 40.7303C12.8703 44.6919 16.9284 47.6291 21.6137 49.0506C26.9585 50.6719 32.7215 50.1994 37.7309 47.7293C42.7402 45.2589 46.6227 40.9742 48.5902 35.7469C50.5575 30.5194 50.463 24.7392 48.3256 19.5789C46.188 14.4186 42.1671 10.264 37.0795 7.9588C31.9921 5.65405 26.2179 5.3707 20.9291 7.16583C15.6404 8.96134 11.231 12.7011 8.59806 17.6268C6.04386 22.4056 5.34688 27.9546 6.62735 33.2078C6.69271 33.476 6.53447 33.7505 6.26798 33.8221L5.78458 33.951L5.30118 34.0809C5.03448 34.1523 4.75965 33.9935 4.69376 33.7254C3.28229 27.9817 4.04085 21.911 6.83438 16.6844C9.70668 11.3109 14.516 7.23008 20.2856 5.2713Z" fill="oklch(0.3523 0 0 / 1)" class="wd-expressive-fill"></path>
<path d="M28.5004 13.0008C28.7765 13.0009 29.0004 13.2247 29.0004 13.5008V27.0008H38.5004C38.7765 27.0009 39.0004 27.2247 39.0004 27.5008V28.5008C39.0002 28.7767 38.7764 29.0007 38.5004 29.0008H28.0004C27.4483 29.0008 27.0008 28.5528 27.0004 28.0008V13.5008C27.0004 13.2247 27.2243 13.0008 27.5004 13.0008H28.5004Z" fill="oklch(0.3523 0 0 / 1)" class="wd-expressive-fill"></path>
</g>
</svg>