<svg role="presentation" width="56" height="56" viewBox="0 0 56 56" xmlns="http://www.w3.org/2000/svg" class="wd-expressive wd-expressive-laptop-media">
<g>
<path d="M52.6367 40C52.8373 40.0002 52.9998 40.1627 53 40.3633C53 42.3716 51.3716 44 49.3633 44H6.63672C4.62841 44 3 42.3716 3 40.3633C3.00019 40.1627 3.16273 40.0002 3.36328 40H52.6367Z" fill="oklch(0.3057 0.079 256.22 / 0.13)" class="wd-expressive-accent"></path>
<path d="M10 36.5C10 36.7761 9.77614 37 9.5 37H7V13C7 11.8954 7.89543 11 9 11H10V36.5Z" fill="oklch(0.3057 0.079 256.22 / 0.13)" class="wd-expressive-accent"></path>
<path d="M34 27.332L24.7773 33.4814C24.4452 33.7028 24.0002 33.4645 24 33.0654V20.666L34 27.332Z" fill="oklch(0.3057 0.079 256.22 / 0.13)" class="wd-expressive-accent"></path>
</g>
<g>
<path d="M24.6445 39.0039C24.8282 39.0175 25.0026 39.0645 25.1611 39.1367L25.3438 39.2354L25.6387 39.4072C26.3417 39.7852 27.1447 40 28 40C28.9775 40 29.8866 39.7194 30.6562 39.2354L30.8389 39.1367C31.029 39.0501 31.2424 39 31.4668 39H52.6377L52.7773 39.0068C53.4638 39.0773 53.9993 39.6574 54 40.3623C54 42.9229 51.9239 45 49.3633 45H6.63672C4.07613 45 2 42.9239 2 40.3633L2.00684 40.2227C2.07733 39.5362 2.65737 39.0007 3.3623 39H24.5332L24.6445 39.0039ZM4.08105 41C4.36624 42.1481 5.40053 43 6.63672 43H49.3633C50.5995 43 51.6338 42.1481 51.9189 41H31.6025C30.5498 41.6335 29.317 42 28 42C26.683 42 25.4502 41.6335 24.3975 41H4.08105Z" fill="oklch(0.3523 0 0 / 1)" class="wd-expressive-fill"></path>
<path d="M47 10C48.6569 10 50 11.3431 50 13V36.5C50 36.7761 49.7761 37 49.5 37H48.5C48.2239 37 48 36.7761 48 36.5V13C48 12.4477 47.5523 12 47 12H9C8.44771 12 8 12.4477 8 13V36.5C8 36.7761 7.77614 37 7.5 37H6.5C6.22386 37 6 36.7761 6 36.5V13C6 11.3431 7.34315 10 9 10H47Z" fill="oklch(0.3523 0 0 / 1)" class="wd-expressive-fill"></path>
<path d="M23 18.9336C23.0002 17.7732 24.2528 17.0662 25.2373 17.627L25.332 17.6855L35.9307 24.751C36.8212 25.3447 36.8211 26.6533 35.9307 27.2471L25.332 34.3125C24.3352 34.9771 23 34.2625 23 33.0645V18.9336ZM25 32.1299L34.1973 25.999L25 19.8672V32.1299Z" fill="oklch(0.3523 0 0 / 1)" class="wd-expressive-fill"></path>
</g>
</svg>