<svg role="presentation" width="56" height="56" viewBox="0 0 56 56" xmlns="http://www.w3.org/2000/svg" class="wd-expressive wd-expressive-celebration">
<g>
<path d="M12 29.0482C11.9916 32.0457 13.7691 35.8445 16.9619 39.0375C20.1655 42.2411 23.9794 44.0198 26.9815 43.9994H27.9453L9.39259 49.9418C8.75791 50.1483 7.78519 49.79 6.99708 49.0023C6.20904 48.2146 5.85082 47.243 6.05763 46.6088L12 28.0258V29.0482Z" fill="oklch(0.3057 0.079 256.22 / 0.13)" class="wd-expressive-accent"></path>
<path d="M21.5879 12.6098C26.9933 10.5235 33.9128 12.1136 38.8994 17.1C43.3913 21.5919 45.1251 27.6519 43.9004 32.7611C42.9598 32.5889 41.9904 32.4984 41 32.4984C38.0976 32.4984 35.3754 33.2715 33.0283 34.6224L33.5029 35.4389C31.7548 36.4551 30.3554 37.6181 29.4336 38.5736C29.4296 38.5776 29.4259 38.5823 29.4219 38.5863C28.2728 39.7354 26.5369 39.7577 24.9629 39.2836C23.344 38.7958 21.6086 37.7173 20.0938 36.2025C18.5789 34.6876 17.5004 32.9523 17.0127 31.3334C16.7069 30.3179 16.6088 29.2355 16.8858 28.2865L16.876 28.2846C17.0189 27.6364 17.3739 27.1174 17.6436 26.7914C17.784 26.6216 17.9163 26.4849 18.0156 26.39C18.0656 26.3423 18.1087 26.3037 18.1406 26.2758C18.1564 26.262 18.1703 26.2503 18.1807 26.2416C18.1856 26.2375 18.1907 26.2338 18.1943 26.2308C18.196 26.2295 18.1992 26.226 18.1992 26.226L18.2031 26.224L18.249 26.1879C19.458 25.3172 22 22.475 22 18.4281H22.9912C22.9967 18.2857 23 18.1422 23 17.9984C22.9999 16.0401 22.485 14.2026 21.5879 12.6098Z" fill="oklch(0.3057 0.079 256.22 / 0.13)" class="wd-expressive-accent"></path>
</g>
<g>
<path d="M35.0004 47C36.1049 47 37.0004 47.8954 37.0004 49C37.0004 50.1046 36.1049 51 35.0004 51C33.8959 50.9999 33.0004 50.1045 33.0004 49C33.0004 47.8955 33.8959 47.0001 35.0004 47Z" fill="oklch(0.3523 0 0 / 1)" class="wd-expressive-fill"></path>
<path d="M15.351 23.1973C15.6197 23.1338 15.8766 23.3211 15.9203 23.5938L16.0785 24.5811C16.122 24.8537 15.9348 25.1065 15.6683 25.1787C15.0257 25.353 14.4904 25.6555 14.0697 26.0762C13.035 27.1115 12.6916 28.9042 13.2972 31.2061C13.896 33.4808 15.3865 36.054 17.6683 38.3359C19.9503 40.6179 22.5234 42.1083 24.7982 42.707C26.1536 43.0637 27.3318 43.0885 28.2836 42.8398L28.6947 42.709V42.7109C29.1796 42.5296 29.5943 42.2693 29.9291 41.9346C30.5178 41.3458 30.8801 40.5253 30.975 39.4961C31.0003 39.2212 31.2234 38.9986 31.4994 39.001L31.9994 39.0049L32.4994 39.0098C32.7754 39.0125 32.9995 39.2393 32.9799 39.5146C32.8757 40.9772 32.3656 42.3261 31.3431 43.3486C30.6185 44.0732 29.7368 44.5388 28.764 44.7861L9.70154 50.8916C9.09117 51.0903 8.44121 50.9887 7.89295 50.7773C7.3281 50.5596 6.77218 50.1904 6.29041 49.709C5.80864 49.2275 5.43899 48.6721 5.22107 48.1074C5.00951 47.5591 4.90674 46.9084 5.10584 46.2979L11.3754 26.6943L11.3832 26.6963C11.6519 25.9384 12.0688 25.248 12.6556 24.6611C13.4036 23.9133 14.3313 23.4381 15.351 23.1973ZM7.00916 46.9131L7.00818 46.918C7.00043 46.9418 6.97334 47.0949 7.08631 47.3877C7.19297 47.6641 7.39742 47.9879 7.7035 48.2939C8.00969 48.6 8.33472 48.8043 8.6117 48.9111C8.90423 49.0239 9.05751 48.9982 9.0824 48.9902L9.08728 48.9893L23.4506 44.3877C21.023 43.5735 18.4832 41.9788 16.2543 39.75C14.0179 37.5135 12.4194 34.9643 11.6078 32.5293L7.00916 46.9131Z" fill="oklch(0.3523 0 0 / 1)" class="wd-expressive-fill"></path>
<path d="M41.8109 30.999C47.1287 31.0003 49.4991 34.9798 49.4994 37.999C49.4994 42.8722 45.0373 45.4273 41.5531 44.4941C38.7888 43.7534 37.0856 41.1357 37.434 38.7314C37.4736 38.4582 37.7503 38.2998 38.017 38.3711L38.9828 38.6299C39.2495 38.7014 39.4032 38.977 39.3929 39.2529C39.3456 40.5307 40.2938 42.0864 42.0707 42.5625C44.3818 43.1813 47.5003 41.4583 47.5004 37.999C47.5001 35.9229 45.8695 33 41.8109 32.999C37.6103 32.9983 34.0289 35.0325 30.4887 37.5254C30.2629 37.6843 29.9509 37.6328 29.7904 37.4082L29.2094 36.5938C29.0491 36.369 29.1009 36.0565 29.3265 35.8975C32.9237 33.3622 36.9509 30.9982 41.8109 30.999Z" fill="oklch(0.3523 0 0 / 1)" class="wd-expressive-fill"></path>
<path d="M25.5004 2.0166C28.4674 2.20189 30.6335 4.02525 32.0228 6.27832C33.479 8.64024 34.1655 11.5844 34.1234 14.0264C34.052 18.1569 32.4281 22.2109 30.1029 25.833C27.8708 29.31 24.9576 32.4456 22.0228 34.9473C21.8127 35.1262 21.4974 35.0968 21.3207 34.8848L20.6801 34.1162C20.5032 33.9041 20.5315 33.5884 20.7416 33.4092C23.5489 31.0138 26.3168 28.0295 28.4203 24.7529C30.6225 21.3225 32.0604 17.63 32.1234 13.9922C32.1595 11.8968 31.5572 9.33533 30.3197 7.32812C29.1815 5.48234 27.5764 4.20007 25.4994 4.02246C25.2245 3.99875 25.0004 3.77697 25.0004 3.50098V2.50098C25.0006 2.22502 25.2249 1.9994 25.5004 2.0166Z" fill="oklch(0.3523 0 0 / 1)" class="wd-expressive-fill"></path>
<path d="M32.3383 27.6309C37.6133 22.6657 45.6815 21.6029 52.0619 25.0332C52.3051 25.164 52.3874 25.4708 52.2494 25.71L51.7494 26.5762C51.6114 26.8153 51.3056 26.8962 51.0619 26.7666C45.465 23.7876 38.3874 24.7187 33.7523 29.0449C33.5505 29.2333 33.2347 29.2343 33.0394 29.0391L32.3324 28.332C32.1372 28.1368 32.1372 27.8201 32.3383 27.6309Z" fill="oklch(0.3523 0 0 / 1)" class="wd-expressive-fill"></path>
<path d="M14.6674 7.99902C19.4424 7.99967 24.0002 12.363 24.0004 18.4277C24.0002 22.9133 21.4402 26.1423 19.8109 27.5049C19.5992 27.6819 19.2868 27.6292 19.1254 27.4053L18.8334 26.999L18.5414 26.5938C18.3801 26.3697 18.431 26.0574 18.639 25.876C19.9315 24.7489 22.0002 22.0782 22.0004 18.4277C22.0002 13.351 18.2248 9.99969 14.6674 9.99902C11.0358 9.99902 9.00059 12.5686 9.00037 14.999C9.00054 16.8383 10.2579 18.1563 11.5043 18.4414C11.7733 18.5029 12.0002 18.7231 12.0004 18.999V19.999C12.0004 20.2751 11.7755 20.5021 11.5013 20.4697C9.08885 20.184 7.00055 17.8608 7.00037 14.999C7.00059 11.4297 9.96596 7.99902 14.6674 7.99902Z" fill="oklch(0.3523 0 0 / 1)" class="wd-expressive-fill"></path>
<path d="M40.9994 8C42.1039 8.00008 42.9994 8.89548 42.9994 10C42.9994 11.1045 42.1039 11.9999 40.9994 12C39.8948 12 38.9994 11.1046 38.9994 10C38.9994 8.89543 39.8948 8 40.9994 8Z" fill="oklch(0.3523 0 0 / 1)" class="wd-expressive-fill"></path>
<path d="M18.9994 1.99902C20.104 1.99902 20.9994 2.89445 20.9994 3.99902C20.9994 5.10359 20.104 5.99902 18.9994 5.99902C17.8949 5.99889 16.9994 5.10351 16.9994 3.99902C16.9994 2.89454 17.8949 1.99916 18.9994 1.99902Z" fill="oklch(0.3523 0 0 / 1)" class="wd-expressive-fill"></path>
</g>
</svg>