<svg role="presentation" width="56" height="56" viewBox="0 0 56 56" xmlns="http://www.w3.org/2000/svg" class="wd-expressive wd-expressive-play-circle">
<g>
<path d="M22 18.874C22.0001 18.4874 22.4206 18.2473 22.7539 18.4434L38.2676 27.5693C38.5958 27.7627 38.5958 28.2373 38.2676 28.4307L22.7539 37.5566C22.4206 37.7527 22.0001 37.5126 22 37.126V18.874Z" fill="oklch(0.3057 0.079 256.22 / 0.13)" class="wd-expressive-accent"></path>
<path d="M28 4C41.2548 4 52 14.7452 52 28C52 41.2548 41.2548 52 28 52C14.7452 52 4 41.2548 4 28C4 14.7452 14.7452 4 28 4ZM28 9C17.5066 9 9 17.5066 9 28C9 38.4934 17.5066 47 28 47C38.4934 47 47 38.4934 47 28C47 17.5066 38.4934 9 28 9Z" fill="oklch(0.3057 0.079 256.22 / 0.13)" class="wd-expressive-accent"></path>
</g>
<g>
<path d="M21 18.874C21.0001 17.7865 22.1079 17.0851 23.0703 17.4863L23.2607 17.5811L38.7744 26.707C39.7604 27.287 39.7604 28.713 38.7744 29.293L23.2607 38.4189C22.2608 39.0071 21.0001 38.286 21 37.126V18.874ZM23 36.251L37.0283 28L23 19.748V36.251Z" fill="oklch(0.3523 0 0 / 1)" class="wd-expressive-fill"></path>
<path d="M28 3C41.8071 3 53 14.1929 53 28C53 41.8071 41.8071 53 28 53C14.1929 53 3 41.8071 3 28C3 14.1929 14.1929 3 28 3ZM28 5C15.2975 5 5 15.2975 5 28C5 40.7025 15.2975 51 28 51C40.7025 51 51 40.7025 51 28C51 15.2975 40.7025 5 28 5Z" fill="oklch(0.3523 0 0 / 1)" class="wd-expressive-fill"></path>
</g>
</svg>