<svg role="presentation" width="56" height="56" viewBox="0 0 56 56" xmlns="http://www.w3.org/2000/svg" class="wd-expressive wd-expressive-it">
<g>
<path d="M12 45C13.6569 45 15 46.3431 15 48C15 49.6569 13.6569 51 12 51C10.3431 51 9 49.6569 9 48C9 46.3431 10.3431 45 12 45Z" fill="oklch(0.3057 0.079 256.22 / 0.13)" class="wd-expressive-accent"></path>
<path d="M32 45C33.6569 45 35 46.3431 35 48C35 49.6569 33.6569 51 32 51C30.3431 51 29 49.6569 29 48C29 46.3431 30.3431 45 32 45Z" fill="oklch(0.3057 0.079 256.22 / 0.13)" class="wd-expressive-accent"></path>
<path d="M44 45C45.6569 45 47 46.3431 47 48C47 49.6569 45.6569 51 44 51C42.3431 51 41 49.6569 41 48C41 46.3431 42.3431 45 44 45Z" fill="oklch(0.3057 0.079 256.22 / 0.13)" class="wd-expressive-accent"></path>
<path d="M12 33C13.6569 33 15 34.3431 15 36C15 37.6569 13.6569 39 12 39C10.3431 39 9 37.6569 9 36C9 34.3431 10.3431 33 12 33Z" fill="oklch(0.3057 0.079 256.22 / 0.13)" class="wd-expressive-accent"></path>
<path d="M44 33C45.6569 33 47 34.3431 47 36C47 37.6569 45.6569 39 44 39C42.3431 39 41 37.6569 41 36C41 34.3431 42.3431 33 44 33Z" fill="oklch(0.3057 0.079 256.22 / 0.13)" class="wd-expressive-accent"></path>
<path d="M19.1328 23.3779C19.0467 23.906 19 24.4476 19 25C19 30.5228 23.4772 35 29 35C32.855 35 36.1972 32.8168 37.8662 29.6211C37.0914 34.3728 32.9707 38 28 38C22.4772 38 18 33.5228 18 28C18 26.332 18.4106 24.7606 19.1328 23.3779Z" fill="oklch(0.3057 0.079 256.22 / 0.13)" class="wd-expressive-accent"></path>
<path d="M12 17C13.6569 17 15 18.3431 15 20C15 21.6569 13.6569 23 12 23C10.3431 23 9 21.6569 9 20C9 18.3431 10.3431 17 12 17Z" fill="oklch(0.3057 0.079 256.22 / 0.13)" class="wd-expressive-accent"></path>
<path d="M44 17C45.6569 17 47 18.3431 47 20C47 21.6569 45.6569 23 44 23C42.3431 23 41 21.6569 41 20C41 18.3431 42.3431 17 44 17Z" fill="oklch(0.3057 0.079 256.22 / 0.13)" class="wd-expressive-accent"></path>
<path d="M12 5C13.6569 5 15 6.34315 15 8C15 9.65685 13.6569 11 12 11C10.3431 11 9 9.65685 9 8C9 6.34315 10.3431 5 12 5Z" fill="oklch(0.3057 0.079 256.22 / 0.13)" class="wd-expressive-accent"></path>
<path d="M32 5C33.6569 5 35 6.34315 35 8C35 9.65685 33.6569 11 32 11C30.3431 11 29 9.65685 29 8C29 6.34315 30.3431 5 32 5Z" fill="oklch(0.3057 0.079 256.22 / 0.13)" class="wd-expressive-accent"></path>
<path d="M44 5C45.6569 5 47 6.34315 47 8C47 9.65685 45.6569 11 44 11C42.3431 11 41 9.65685 41 8C41 6.34315 42.3431 5 44 5Z" fill="oklch(0.3057 0.079 256.22 / 0.13)" class="wd-expressive-accent"></path>
</g>
<g>
<path d="M12 4C14.2091 4 16 5.79086 16 8C16 10.2091 14.2091 12 12 12C11.258 12 10.5634 11.7974 9.96777 11.4453L6.29297 15.1211C6.1055 15.3086 6.00008 15.563 6 15.8281V40.1709C6 40.4361 6.10543 40.6914 6.29297 40.8789L9.96777 44.5537C10.5633 44.2018 11.2581 44 12 44C14.2091 44 16 45.7909 16 48C16 50.2091 14.2091 52 12 52C9.79086 52 8 50.2091 8 48C8 47.2581 8.20177 46.5633 8.55371 45.9678L4.87891 42.293C4.3163 41.7304 4 40.9665 4 40.1709V15.8281C4.00008 15.0326 4.31637 14.2696 4.87891 13.707L8.55371 10.0312C8.20203 9.43587 8 8.74157 8 8C8 5.79086 9.79086 4 12 4ZM12 46C10.8954 46 10 46.8954 10 48C10 49.1046 10.8954 50 12 50C13.1046 50 14 49.1046 14 48C14 46.8954 13.1046 46 12 46ZM12 6C10.8954 6 10 6.89543 10 8C10 9.10457 10.8954 10 12 10C13.1046 10 14 9.10457 14 8C14 6.89543 13.1046 6 12 6Z" fill="oklch(0.3523 0 0 / 1)" class="wd-expressive-fill"></path>
<path d="M12 32C14.2091 32 16 33.7909 16 36C16 36.7417 15.7971 37.4358 15.4453 38.0312L24.1211 46.707C24.3086 46.8945 24.563 46.9999 24.8281 47H28.126C28.57 45.2748 30.1362 44 32 44C34.2091 44 36 45.7909 36 48C36 50.2091 34.2091 52 32 52C30.1362 52 28.57 50.7252 28.126 49H24.8281C24.0326 48.9999 23.2696 48.6836 22.707 48.1211L14.0312 39.4453C13.4358 39.7971 12.7417 40 12 40C9.79086 40 8 38.2091 8 36C8 33.7909 9.79086 32 12 32ZM32 46C30.8954 46 30 46.8954 30 48C30 49.1046 30.8954 50 32 50C33.1046 50 34 49.1046 34 48C34 46.8954 33.1046 46 32 46ZM12 34C10.8954 34 10 34.8954 10 36C10 37.1046 10.8954 38 12 38C13.1046 38 14 37.1046 14 36C14 34.8954 13.1046 34 12 34Z" fill="oklch(0.3523 0 0 / 1)" class="wd-expressive-fill"></path>
<path d="M44 4C46.2091 4 48 5.79086 48 8C48 8.74175 47.7971 9.43577 47.4453 10.0312L51.1211 13.707C51.6836 14.2696 51.9999 15.0326 52 15.8281V40.1719C51.9999 40.9674 51.6836 41.7304 51.1211 42.293L47.4453 45.9678C47.7974 46.5634 48 47.258 48 48C48 50.2091 46.2091 52 44 52C41.7909 52 40 50.2091 40 48C40 45.7909 41.7909 44 44 44C44.7416 44 45.4359 44.202 46.0312 44.5537L49.707 40.8789C49.8945 40.6914 49.9999 40.437 50 40.1719V15.8281C49.9999 15.563 49.8945 15.3086 49.707 15.1211L46.0312 11.4453C45.4358 11.7971 44.7417 12 44 12C41.7909 12 40 10.2091 40 8C40 5.79086 41.7909 4 44 4ZM44 46C42.8954 46 42 46.8954 42 48C42 49.1046 42.8954 50 44 50C45.1046 50 46 49.1046 46 48C46 46.8954 45.1046 46 44 46ZM44 6C42.8954 6 42 6.89543 42 8C42 9.10457 42.8954 10 44 10C45.1046 10 46 9.10457 46 8C46 6.89543 45.1046 6 44 6Z" fill="oklch(0.3523 0 0 / 1)" class="wd-expressive-fill"></path>
<path d="M44 16C46.2091 16 48 17.7909 48 20C48 21.8638 46.7252 23.43 45 23.874V32.126C46.7252 32.57 48 34.1362 48 36C48 38.2091 46.2091 40 44 40C41.7909 40 40 38.2091 40 36C40 34.1362 41.2748 32.57 43 32.126V23.874C41.2748 23.43 40 21.8638 40 20C40 17.7909 41.7909 16 44 16ZM44 34C42.8954 34 42 34.8954 42 36C42 37.1046 42.8954 38 44 38C45.1046 38 46 37.1046 46 36C46 34.8954 45.1046 34 44 34ZM44 18C42.8954 18 42 18.8954 42 20C42 21.1046 42.8954 22 44 22C45.1046 22 46 21.1046 46 20C46 18.8954 45.1046 18 44 18Z" fill="oklch(0.3523 0 0 / 1)" class="wd-expressive-fill"></path>
<path d="M28.625 26C28.9011 26 29.125 26.2239 29.125 26.5V32.5C29.125 32.7761 28.9011 33 28.625 33H27.375C27.0989 33 26.875 32.7761 26.875 32.5V26.5C26.875 26.2239 27.0989 26 27.375 26H28.625Z" fill="oklch(0.3523 0 0 / 1)" class="wd-expressive-fill"></path>
<path d="M28 22C28.8284 22 29.5 22.6716 29.5 23.5C29.5 24.3284 28.8284 25 28 25C27.1716 25 26.5 24.3284 26.5 23.5C26.5 22.6716 27.1716 22 28 22Z" fill="oklch(0.3523 0 0 / 1)" class="wd-expressive-fill"></path>
<path d="M28 17C34.0751 17 39 21.9249 39 28C39 34.0751 34.0751 39 28 39C21.9249 39 17 34.0751 17 28C17 21.9249 21.9249 17 28 17ZM28 19C23.0294 19 19 23.0294 19 28C19 32.9706 23.0294 37 28 37C32.9706 37 37 32.9706 37 28C37 23.0294 32.9706 19 28 19Z" fill="oklch(0.3523 0 0 / 1)" class="wd-expressive-fill"></path>
<path d="M32 4C34.2091 4 36 5.79086 36 8C36 10.2091 34.2091 12 32 12C30.1362 12 28.57 10.7252 28.126 9H24.8281C24.563 9.00008 24.3086 9.1055 24.1211 9.29297L15.4453 17.9678C15.7974 18.5634 16 19.258 16 20C16 22.2091 14.2091 24 12 24C9.79086 24 8 22.2091 8 20C8 17.7909 9.79086 16 12 16C12.7416 16 13.4359 16.202 14.0312 16.5537L22.707 7.87891C23.2696 7.31637 24.0326 7.00008 24.8281 7H28.126C28.57 5.27477 30.1362 4 32 4ZM12 18C10.8954 18 10 18.8954 10 20C10 21.1046 10.8954 22 12 22C13.1046 22 14 21.1046 14 20C14 18.8954 13.1046 18 12 18ZM32 6C30.8954 6 30 6.89543 30 8C30 9.10457 30.8954 10 32 10C33.1046 10 34 9.10457 34 8C34 6.89543 33.1046 6 32 6Z" fill="oklch(0.3523 0 0 / 1)" class="wd-expressive-fill"></path>
</g>
</svg>