<svg role="presentation" width="56" height="56" viewBox="0 0 56 56" xmlns="http://www.w3.org/2000/svg" class="wd-expressive wd-expressive-calendar-pie-chart">
<g>
<path d="M42 44H50C50 45.5823 49.5304 47.1287 48.6514 48.4443C47.7724 49.7599 46.5232 50.7851 45.0615 51.3906C43.5998 51.9961 41.9912 52.1553 40.4395 51.8467C38.8876 51.538 37.4616 50.776 36.3428 49.6572C35.224 48.5384 34.462 47.1124 34.1533 45.5605C33.8447 44.0088 34.0039 42.4002 34.6094 40.9385C35.2149 39.4768 36.2401 38.2276 37.5557 37.3486C38.8713 36.4696 40.4178 36 42 36V44Z" fill="oklch(0.3057 0.079 256.22 / 0.13)" class="wd-expressive-accent"></path>
<path d="M47 19H10V43H30.0459C30.1361 44.0464 30.3643 45.0526 30.7158 46H7V12H47V19Z" fill="oklch(0.3057 0.079 256.22 / 0.13)" class="wd-expressive-accent"></path>
</g>
<g>
<path d="M43.0205 33.0479C44.1151 33.1498 45.1907 33.4147 46.21 33.8369C47.5444 34.3897 48.7569 35.2003 49.7783 36.2217C50.7997 37.2431 51.6103 38.4556 52.1631 39.79C52.6456 40.955 52.9234 42.1935 52.9863 43.4502C53.0304 44.3302 52.3144 45 51.5 45H50.9434C50.7839 46.4261 50.286 47.7988 49.4834 49C48.4945 50.4799 47.0887 51.6332 45.4443 52.3145C43.7998 52.9956 41.99 53.1744 40.2441 52.8271C38.4983 52.4799 36.8944 51.6229 35.6357 50.3643C34.3771 49.1056 33.5201 47.5017 33.1729 45.7559C32.8256 44.01 33.0044 42.2002 33.6855 40.5557C34.3668 38.9113 35.5201 37.5055 37 36.5166C38.2012 35.714 39.5739 35.2161 41 35.0566V34.5C41 33.6856 41.6698 32.9696 42.5498 33.0137L43.0205 33.0479ZM41 37.0723C39.9707 37.2208 38.983 37.5973 38.1113 38.1797C36.9602 38.9488 36.063 40.0422 35.5332 41.3213C35.0034 42.6003 34.8648 44.0075 35.1348 45.3652C35.4049 46.7231 36.0708 47.9712 37.0498 48.9502C38.0288 49.9292 39.2769 50.5951 40.6348 50.8652C41.9925 51.1352 43.3997 50.9966 44.6787 50.4668C45.9578 49.937 47.0512 49.0398 47.8203 47.8887C48.4027 47.017 48.7792 46.0293 48.9277 45H42.5C41.6716 45 41 44.3284 41 43.5V37.0723ZM43 43H50.9424C50.8486 42.1615 50.6386 41.3382 50.3145 40.5557C49.8622 39.4639 49.1999 38.4714 48.3643 37.6357C47.5286 36.8001 46.5361 36.1378 45.4443 35.6855C44.6618 35.3614 43.8385 35.1514 43 35.0576V43Z" fill="oklch(0.3523 0 0 / 1)" class="wd-expressive-fill"></path>
<path d="M40 5C41.6569 5 43 6.34315 43 8V9H47C48.6569 9 50 10.3431 50 12V31.5C50 31.7761 49.7761 32 49.5 32H48.5C48.2239 32 48 31.7761 48 31.5V28.5C48 28.4319 48.0134 28.3668 48.0381 28.3076C48.0254 28.305 48.0127 28.3024 48 28.2998V20H8V44C8 44.5523 8.44772 45 9 45H30.5C30.7761 45 31 45.2239 31 45.5V46.5C31 46.7629 30.7969 46.9761 30.5391 46.9961L30.541 47H9C7.34315 47 6 45.6569 6 44V12C6 10.3431 7.34315 9 9 9H13V8C13 6.34315 14.3431 5 16 5C17.6569 5 19 6.34315 19 8V9H37V8C37 6.34315 38.3431 5 40 5ZM9 11C8.44772 11 8 11.4477 8 12V18H48V12C48 11.4477 47.5523 11 47 11H43C43 12.6569 41.6569 14 40 14C38.3949 14 37.0842 12.7394 37.0039 11.1543L37 11H19C19 12.6569 17.6569 14 16 14C14.3949 14 13.0842 12.7394 13.0039 11.1543L13 11H9ZM16 7C15.4477 7 15 7.44772 15 8V11L15.0049 11.1025C15.0562 11.6067 15.4823 12 16 12C16.5523 12 17 11.5523 17 11V8C17 7.44772 16.5523 7 16 7ZM40 7C39.4477 7 39 7.44772 39 8V11L39.0049 11.1025C39.0562 11.6067 39.4823 12 40 12C40.5523 12 41 11.5523 41 11V8C41 7.44772 40.5523 7 40 7Z" fill="oklch(0.3523 0 0 / 1)" class="wd-expressive-fill"></path>
<path d="M14 37.75C14.9665 37.75 15.75 38.5335 15.75 39.5C15.75 40.4665 14.9665 41.25 14 41.25C13.0335 41.25 12.25 40.4665 12.25 39.5C12.25 38.5335 13.0335 37.75 14 37.75Z" fill="oklch(0.3523 0 0 / 1)" class="wd-expressive-fill"></path>
<path d="M21 37.75C21.9665 37.75 22.75 38.5335 22.75 39.5C22.75 40.4665 21.9665 41.25 21 41.25C20.0335 41.25 19.25 40.4665 19.25 39.5C19.25 38.5335 20.0335 37.75 21 37.75Z" fill="oklch(0.3523 0 0 / 1)" class="wd-expressive-fill"></path>
<path d="M28 37.75C28.9665 37.75 29.75 38.5335 29.75 39.5C29.75 40.4665 28.9665 41.25 28 41.25C27.0335 41.25 26.25 40.4665 26.25 39.5C26.25 38.5335 27.0335 37.75 28 37.75Z" fill="oklch(0.3523 0 0 / 1)" class="wd-expressive-fill"></path>
<path d="M14 32.75C14.9665 32.75 15.75 33.5335 15.75 34.5C15.75 35.4665 14.9665 36.25 14 36.25C13.0335 36.25 12.25 35.4665 12.25 34.5C12.25 33.5335 13.0335 32.75 14 32.75Z" fill="oklch(0.3523 0 0 / 1)" class="wd-expressive-fill"></path>
<path d="M21 32.75C21.9665 32.75 22.75 33.5335 22.75 34.5C22.75 35.4665 21.9665 36.25 21 36.25C20.0335 36.25 19.25 35.4665 19.25 34.5C19.25 33.5335 20.0335 32.75 21 32.75Z" fill="oklch(0.3523 0 0 / 1)" class="wd-expressive-fill"></path>
<path d="M28 32.75C28.9665 32.75 29.75 33.5335 29.75 34.5C29.75 35.4665 28.9665 36.25 28 36.25C27.0335 36.25 26.25 35.4665 26.25 34.5C26.25 33.5335 27.0335 32.75 28 32.75Z" fill="oklch(0.3523 0 0 / 1)" class="wd-expressive-fill"></path>
<path d="M14 27.75C14.9665 27.75 15.75 28.5335 15.75 29.5C15.75 30.4665 14.9665 31.25 14 31.25C13.0335 31.25 12.25 30.4665 12.25 29.5C12.25 28.5335 13.0335 27.75 14 27.75Z" fill="oklch(0.3523 0 0 / 1)" class="wd-expressive-fill"></path>
<path d="M21 27.75C21.9665 27.75 22.75 28.5335 22.75 29.5C22.75 30.4665 21.9665 31.25 21 31.25C20.0335 31.25 19.25 30.4665 19.25 29.5C19.25 28.5335 20.0335 27.75 21 27.75Z" fill="oklch(0.3523 0 0 / 1)" class="wd-expressive-fill"></path>
<path d="M28 27.75C28.9665 27.75 29.75 28.5335 29.75 29.5C29.75 30.4665 28.9665 31.25 28 31.25C27.0335 31.25 26.25 30.4665 26.25 29.5C26.25 28.5335 27.0335 27.75 28 27.75Z" fill="oklch(0.3523 0 0 / 1)" class="wd-expressive-fill"></path>
<path d="M35 27.75C35.9665 27.75 36.75 28.5335 36.75 29.5C36.75 30.4665 35.9665 31.25 35 31.25C34.0335 31.25 33.25 30.4665 33.25 29.5C33.25 28.5335 34.0335 27.75 35 27.75Z" fill="oklch(0.3523 0 0 / 1)" class="wd-expressive-fill"></path>
<path d="M42 27.75C42.9665 27.75 43.75 28.5335 43.75 29.5C43.75 30.4665 42.9665 31.25 42 31.25C41.0335 31.25 40.25 30.4665 40.25 29.5C40.25 28.5335 41.0335 27.75 42 27.75Z" fill="oklch(0.3523 0 0 / 1)" class="wd-expressive-fill"></path>
<path d="M35 22.75C35.9665 22.75 36.75 23.5335 36.75 24.5C36.75 25.4665 35.9665 26.25 35 26.25C34.0335 26.25 33.25 25.4665 33.25 24.5C33.25 23.5335 34.0335 22.75 35 22.75Z" fill="oklch(0.3523 0 0 / 1)" class="wd-expressive-fill"></path>
<path d="M42 22.75C42.9665 22.75 43.75 23.5335 43.75 24.5C43.75 25.4665 42.9665 26.25 42 26.25C41.0335 26.25 40.25 25.4665 40.25 24.5C40.25 23.5335 41.0335 22.75 42 22.75Z" fill="oklch(0.3523 0 0 / 1)" class="wd-expressive-fill"></path>
</g>
</svg>