<svg role="presentation" width="56" height="56" viewBox="0 0 56 56" xmlns="http://www.w3.org/2000/svg" class="wd-expressive wd-expressive-head-lightbulb">
<g>
<path d="M8.07812 31.1016C7.75839 32.467 8.42751 34.009 9.84473 34.4082L11.7861 34.9551C11.84 37.6604 12.0013 39.6999 12.1787 41.1758C12.4114 43.1114 14.0487 44.4294 16.0176 44.3682C17.2226 44.3306 18.7013 44.244 20.3496 44.0674C21.3686 43.9718 22.2499 44.7656 22.25 45.7783V49.5303C22.2502 49.7896 22.4674 50.0005 22.7295 49.998C33.3175 49.8933 39.6045 46.341 40.9688 45.4844C41.0665 45.4229 41.1297 45.3291 41.1562 45.2246L41.8955 47.6562C41.9579 47.8615 41.8852 48.0813 41.7041 48.1963C40.2684 49.1073 33.6506 52.8866 22.5049 52.998C22.2288 53.0008 22 52.7761 22 52.5V48.5088C21.9999 47.4314 21.0726 46.5878 20 46.6895C18.2648 46.8774 16.708 46.9688 15.4395 47.0088C13.367 47.0739 11.6434 45.6723 11.3984 43.6133C11.2117 42.0431 11.042 39.8734 10.9854 36.9951L8.94141 36.4141C7.03891 35.8725 6.41865 33.3533 7.60254 31.7686C7.763 31.5538 7.92066 31.3301 8.07812 31.1016Z" fill="oklch(0.3057 0.079 256.22 / 0.13)" class="wd-expressive-accent"></path>
<path d="M29.043 3.01562C40.3949 3.37534 47 9.80686 47 20C47 23.2659 46.0734 26.4648 44.3271 29.2246L41.3506 33.9287C39.982 36.0916 39.502 38.6843 39.9824 41.1719L39.5713 39.832C38.7678 37.2158 39.1552 34.383 40.6328 32.0723L43.4609 27.6504C45.1199 25.0561 46 22.0486 46 18.9785C45.9999 9.42697 39.7647 3.38865 29.043 3.01562Z" fill="oklch(0.3057 0.079 256.22 / 0.13)" class="wd-expressive-accent"></path>
<path d="M31.001 32.1045C30.205 32.817 29.1533 33.2499 28.001 33.25C26.8487 33.25 25.7971 32.8168 25.001 32.1045V29.25H25.501C25.2248 29.25 25.001 29.0261 25.001 28.75C25.001 27.4219 24.1804 26.2633 23.2119 25.3545C21.8513 24.0778 21.001 22.2632 21.001 20.25C21.001 18.1589 21.9184 16.2827 23.3721 15C23.1324 15.7063 23.001 16.4627 23.001 17.25C23.001 19.2632 23.8513 21.0778 25.2119 22.3545C26.1804 23.2633 27.001 24.4219 27.001 25.75C27.001 26.0261 27.2248 26.25 27.501 26.25H31.9678C31.3993 26.9833 31.001 27.8253 31.001 28.75C31.001 29.026 30.7769 29.2497 30.501 29.25H31.001V32.1045Z" fill="oklch(0.3057 0.079 256.22 / 0.13)" class="wd-expressive-accent"></path>
<path d="M24.8662 3.29688C16.6171 4.88176 9.41308 12.6037 11.1504 22.6455C11.5212 24.7901 10.5811 27.0247 9.37988 28.8857C10.1435 27.302 10.6031 25.5758 10.3164 23.9004C8.47979 13.1721 16.1362 4.93357 24.8662 3.29688Z" fill="oklch(0.3057 0.079 256.22 / 0.13)" class="wd-expressive-accent"></path>
</g>
<g>
<path d="M28.0003 12C32.4184 12.0002 36.0003 15.5819 36.0003 20C36.0003 22.3006 35.0273 24.3752 33.474 25.833C32.5733 26.6781 32.0003 27.589 32.0003 28.5V32.3008L31.6673 32.5996C30.695 33.4698 29.4081 33.9999 28.0003 34C26.5925 34 25.3057 33.4697 24.3333 32.5996L24.0003 32.3008V28.5C24.0003 27.5891 23.4272 26.678 22.5267 25.833C20.9732 24.3752 20.0003 22.3007 20.0003 20C20.0003 15.5817 23.5821 12 28.0003 12ZM26.0003 30V31.3691C26.5676 31.7655 27.2554 32 28.0003 32C28.7453 31.9999 29.4331 31.7656 30.0003 31.3691V30H26.0003ZM28.0003 14C24.6866 14 22.0003 16.6863 22.0003 20C22.0003 21.7254 22.7273 23.2794 23.8949 24.375C24.8305 25.253 25.7897 26.4849 25.9681 28H30.0326C30.211 26.4848 31.1701 25.253 32.1058 24.375C33.2732 23.2794 34.0003 21.7253 34.0003 20C34.0003 16.6864 31.3138 14.0002 28.0003 14Z" fill="oklch(0.3523 0 0 / 1)" class="wd-expressive-fill"></path>
<path d="M28.6009 2.00488C34.499 2.10612 39.3044 3.77353 42.6742 6.82324C46.1649 9.98255 47.9994 14.5213 47.9994 20C47.9994 23.4551 47.0188 26.8399 45.1712 29.7598L42.1947 34.4639C40.795 36.6761 40.4278 39.3881 41.1888 41.8926L42.8519 47.3652C43.0348 47.967 42.8284 48.666 42.2396 49.04C40.6874 50.025 33.889 53.8843 22.514 53.998C21.6867 54.006 20.9994 53.3369 20.9994 52.5V48.5088C20.9993 48.0223 20.5817 47.6402 20.098 47.6836C18.3378 47.874 16.7582 47.9672 15.4701 48.0078C12.9094 48.088 10.7143 46.3346 10.4046 43.7314C10.2301 42.2644 10.073 40.2999 10.0033 37.7559L8.66733 37.376C7.3213 36.9927 6.46968 35.9161 6.14975 34.7461C5.83194 33.5837 6.00681 32.2333 6.80112 31.1699C8.40173 29.0279 9.73039 26.4074 9.33041 24.0693C7.15415 11.3569 17.5777 2.00046 28.0267 2L28.6009 2.00488ZM28.0267 4C18.6243 4.00047 9.36551 12.4237 11.3011 23.7314C11.8515 26.9472 10.0459 30.1681 8.40268 32.3672C8.01345 32.8885 7.90664 33.5903 8.07846 34.2188C8.24821 34.8396 8.65816 35.2936 9.2142 35.4521L11.2581 36.0332C11.6811 36.1534 11.9761 36.536 11.9847 36.9756C12.0408 39.8247 12.2085 41.9613 12.391 43.4951C12.5711 45.0098 13.8236 46.0594 15.4076 46.0098C16.6543 45.9705 18.1856 45.8801 19.8919 45.6953L19.9046 45.6934C21.5642 45.536 22.9992 46.842 22.9994 48.5088V51.9873C32.8641 51.7868 38.9681 48.6638 40.8206 47.5635L39.2747 42.4746C38.3443 39.413 38.7943 36.0973 40.5052 33.3936L43.4818 28.6895C45.1266 26.0898 45.9994 23.0765 45.9994 20C45.9994 14.9853 44.3338 11.024 41.3314 8.30664C38.4109 5.66359 34.1168 4.10002 28.5677 4.00488L28.0267 4Z" fill="oklch(0.3523 0 0 / 1)" class="wd-expressive-fill"></path>
</g>
</svg>