<svg role="presentation" width="56" height="56" viewBox="0 0 56 56" xmlns="http://www.w3.org/2000/svg" class="wd-expressive wd-expressive-donut-bar-chart">
<g>
<path d="M25.0002 9.23633C15.9324 10.6748 9.00019 18.5275 9.00019 28C9.00019 38.4933 17.5069 46.9999 28.0002 47C32.164 46.9999 36.0139 45.6582 39.1447 43.3867L43.4279 47.6699C40.9979 49.5758 38.2289 51.0223 35.257 51.9238C31.3231 53.1171 27.1552 53.3215 23.1232 52.5195C19.0911 51.7175 15.3188 49.9332 12.1408 47.3252C8.96287 44.7171 6.47683 41.3655 4.90351 37.5674C3.33023 33.7691 2.71738 29.6412 3.1203 25.5498C3.52328 21.4583 4.92996 17.5287 7.21405 14.1104C9.49803 10.6924 12.5896 7.89006 16.215 5.95215C18.9539 4.48823 21.9343 3.55128 25.0002 3.18066V9.23633Z" fill="oklch(0.3057 0.079 256.22 / 0.13)" class="wd-expressive-accent"></path>
<path d="M21.0002 36H16.0002V32H21.0002V36Z" fill="oklch(0.3057 0.079 256.22 / 0.13)" class="wd-expressive-accent"></path>
<path d="M29.0002 36H24.0002V28H29.0002V36Z" fill="oklch(0.3057 0.079 256.22 / 0.13)" class="wd-expressive-accent"></path>
<path d="M37.0002 36H32.0002V22H37.0002V36Z" fill="oklch(0.3057 0.079 256.22 / 0.13)" class="wd-expressive-accent"></path>
</g>
<g>
<path d="M24.876 3.19326C25.1605 3.15779 25.4472 3.24573 25.6621 3.43545C25.877 3.62524 26 3.89872 26 4.18545V9.23623C26 9.72802 25.642 10.1465 25.1562 10.2235C16.5666 11.5862 10.0001 19.0271 10 27.9999C10 37.941 18.0589 45.9999 28 45.9999C31.9457 45.9999 35.5914 44.7292 38.5576 42.577L38.6338 42.5272C39.0232 42.2955 39.5257 42.3538 39.8516 42.6796L43.4229 46.2509C43.6257 46.4537 43.7317 46.7341 43.7139 47.0204C43.6959 47.3066 43.5555 47.571 43.3291 47.747C39.096 51.0376 33.7764 52.9999 28 52.9999C14.1929 52.9999 3 41.807 3 27.9999C3.00007 15.2505 12.5429 4.73131 24.876 3.19326ZM24 5.34658C13.2047 7.23924 5.00007 16.6621 5 27.9999C5 40.7024 15.2975 50.9999 28 50.9999C32.9077 50.9999 37.4525 49.4612 41.1865 46.8427L39.0264 44.6825C35.865 46.7764 32.0751 47.9999 28 47.9999C16.9543 47.9999 8 39.0456 8 27.9999C8.00006 18.3236 14.871 10.2549 24 8.40127V5.34658Z" fill="oklch(0.3523 0 0 / 1)" class="wd-expressive-fill"></path>
<path d="M31.124 3.19326C43.4571 4.73131 52.9999 15.2505 53 27.9999C53 33.7763 51.0377 39.0959 47.7471 43.329C47.5711 43.5554 47.3067 43.6958 47.0205 43.7138C46.7342 43.7316 46.4538 43.6256 46.251 43.4228L42.6797 39.8515C42.3322 39.5039 42.2887 38.9554 42.5771 38.5575C44.7293 35.5913 46 31.9455 46 27.9999C45.9999 19.0271 39.4334 11.5862 30.8438 10.2235C30.358 10.1465 30 9.72802 30 9.23623V4.18545C30 3.89872 30.123 3.62524 30.3379 3.43545C30.5528 3.24573 30.8395 3.15779 31.124 3.19326ZM32 8.40127C41.129 10.2549 47.9999 18.3236 48 27.9999C48 32.075 46.7765 35.8649 44.6826 39.0263L46.8428 41.1864C49.4613 37.4524 51 32.9075 51 27.9999C50.9999 16.6621 42.7953 7.23924 32 5.34658V8.40127Z" fill="oklch(0.3523 0 0 / 1)" class="wd-expressive-fill"></path>
<path d="M40 17.9999C40.5522 17.9999 40.9999 18.4477 41 18.9999V35.9999C41 36.5522 40.5523 36.9999 40 36.9999H16C15.4477 36.9999 15 36.5522 15 35.9999V28.9999C15.0001 28.4477 15.4478 27.9999 16 27.9999H23V24.9999C23.0001 24.4477 23.4478 23.9999 24 23.9999H31V18.9999C31.0001 18.4477 31.4478 17.9999 32 17.9999H40ZM17 34.9999H23V29.9999H17V34.9999ZM25 34.9999H31V25.9999H25V34.9999ZM33 34.9999H39V19.9999H33V34.9999Z" fill="oklch(0.3523 0 0 / 1)" class="wd-expressive-fill"></path>
</g>
</svg>