<svg role="presentation" width="56" height="56" viewBox="0 0 56 56" xmlns="http://www.w3.org/2000/svg" class="wd-expressive wd-expressive-check-circle">
<path d="M28 4C41.2548 4 52 14.7452 52 28C52 41.2548 41.2548 52 28 52C14.7452 52 4 41.2548 4 28C4 14.7452 14.7452 4 28 4ZM28 9C17.5066 9 9 17.5066 9 28C9 38.4934 17.5066 47 28 47C38.4934 47 47 38.4934 47 28C47 17.5066 38.4934 9 28 9Z" fill="oklch(0.3057 0.079 256.22 / 0.13)" class="wd-expressive-accent"></path>
<g>
<path d="M37.9395 19.6465C38.1347 19.4512 38.4512 19.4513 38.6465 19.6465L39.3535 20.3535C39.5488 20.5488 39.5488 20.8653 39.3535 21.0605L24.207 36.207C23.8165 36.5976 23.1835 36.5976 22.793 36.207L15.6465 29.0605C15.4513 28.8653 15.4513 28.5488 15.6465 28.3535L16.3535 27.6465C16.5488 27.4512 16.8653 27.4513 17.0605 27.6465L23.5 34.0859L37.9395 19.6465Z" fill="oklch(0.3523 0 0 / 1)" class="wd-expressive-fill"></path>
<path d="M28 3C41.8071 3 53 14.1929 53 28C53 41.8071 41.8071 53 28 53C14.1929 53 3 41.8071 3 28C3 14.1929 14.1929 3 28 3ZM28 5C15.2975 5 5 15.2975 5 28C5 40.7025 15.2975 51 28 51C40.7025 51 51 40.7025 51 28C51 15.2975 40.7025 5 28 5Z" fill="oklch(0.3523 0 0 / 1)" class="wd-expressive-fill"></path>
</g>
</svg>