<svg role="presentation" width="56" height="56" viewBox="0 0 56 56" xmlns="http://www.w3.org/2000/svg" class="wd-expressive wd-expressive-inbox-tray">
<g>
<path d="M14.4336 31C17.0763 35.7701 22.1606 38.9999 28 39C33.8396 38.9999 38.9247 35.7702 41.5674 31H50V45H3V31H14.4336Z" fill="oklch(0.3057 0.079 256.22 / 0.13)" class="wd-expressive-accent"></path>
<path d="M14 17H42V11H42.5166C42.6921 11 42.8549 11.0927 42.9453 11.2432L52.5449 27.2432C52.7448 27.5764 52.5048 28 52.1162 28H45.5L42 20H14L10.5 28H3.88281C3.49456 27.9997 3.2546 27.5763 3.4541 27.2432L13.0537 11.2432C13.144 11.0927 13.307 11.0002 13.4824 11H14V17Z" fill="oklch(0.3057 0.079 256.22 / 0.13)" class="wd-expressive-accent"></path>
</g>
<path d="M42.5166 10C43.0434 10 43.5316 10.2768 43.8027 10.7285L53.7861 27.3672C53.9259 27.6002 54 27.8669 54 28.1387V44.5C54 45.3284 53.3284 46 52.5 46H3.5C2.67169 45.9999 2.00005 45.3283 2 44.5V28.1387C2.00001 27.8669 2.0741 27.6002 2.21387 27.3672L12.1973 10.7285L12.3086 10.5674C12.5908 10.2119 13.0225 10.0001 13.4834 10H42.5166ZM4 44H52V29H40.3262C38.2212 33.7113 33.4982 37 28 37C22.5019 36.9999 17.7797 33.7111 15.6748 29H4V44ZM14.6533 21L12.0127 27H15.9961C16.5829 27.0001 17.0927 27.3385 17.3428 27.832L17.3896 27.9326L17.5596 28.3184C19.3832 32.2642 23.372 34.9999 28 35C32.7776 35 36.8747 32.0849 38.6113 27.9326C38.8403 27.3851 39.379 27.0001 40.0049 27H43.9883L41.3477 21H14.6533ZM43 19.7881L46.1729 27H51.2344L43 13.2773V19.7881ZM4.76562 27H9.82812L13 19.79V13.2773L4.76562 27ZM15 19H41V12H15V19Z" fill="oklch(0.3523 0 0 / 1)" class="wd-expressive-fill"></path>
</svg>