<svg role="presentation" width="56" height="56" viewBox="0 0 56 56" xmlns="http://www.w3.org/2000/svg" class="wd-expressive wd-expressive-hand-leaf">
<g>
<path d="M51.9736 33.827C52.2138 33.6321 52.574 33.7001 52.6895 33.9871C52.9234 34.5685 53.0286 35.1841 53.0107 35.7938C53.0069 35.9255 52.9443 36.0481 52.8447 36.1346L38.1406 48.8777C38.0497 48.9564 37.9337 48.9998 37.8135 48.9998H4.5C4.22386 48.9998 4 48.776 4 48.4998V47.9998C4.00021 46.8954 4.89556 45.9998 6 45.9998H35.2236C36.3725 45.9998 37.4865 45.6044 38.3779 44.8797L51.9736 33.827Z" fill="oklch(0.3057 0.079 256.22 / 0.13)" class="wd-expressive-accent"></path>
<path d="M33.0723 36.9998C33.2113 36.9998 33.3009 37.1469 33.2314 37.2674C32.4574 38.6081 31.2438 39.537 29.8779 39.9773C29.8304 39.9926 29.7804 39.9998 29.7305 39.9998H19.5C19.2239 39.9998 19 39.776 19 39.4998V38.9998C19.0002 37.8954 19.8956 36.9998 21 36.9998H33.0723Z" fill="oklch(0.3057 0.079 256.22 / 0.13)" class="wd-expressive-accent"></path>
<path d="M27.7412 4.17559C27.9002 4.06387 28.0998 4.06386 28.2588 4.17559C29.6323 5.14212 36 10.0391 36 17.7498C35.9999 23.0003 32.4633 25.9998 28 25.9998C23.5367 25.9998 20.0002 22.9992 20 17.7488C20 10.0382 26.3677 5.14196 27.7412 4.17559ZM28.248 5.15801C28.0947 5.05662 27.9053 5.05663 27.752 5.15801C26.5071 5.98105 21.0001 9.97666 21 16.2488C21 20.5448 24.0946 22.9998 28 22.9998C31.9054 22.9998 35 20.5458 35 16.2498C35 9.97756 29.4928 5.98119 28.248 5.15801Z" fill="oklch(0.3057 0.079 256.22 / 0.13)" class="wd-expressive-accent"></path>
</g>
<g>
<path d="M49.6151 30.2827L49.7704 30.311L49.993 30.3677C51.0996 30.6761 52.1215 31.3335 52.8749 32.3139C53.5117 33.1429 53.8764 34.0989 53.9813 35.0698C54.0833 36.014 53.5986 36.8051 53.0331 37.2954L40.0653 48.5347C38.9746 49.4799 37.5789 50.0004 36.1356 50.0005H4.50084C4.22474 50.0005 4.00091 49.7766 4.00084 49.5005V48.5005C4.00084 48.2243 4.2247 48.0005 4.50084 48.0005H36.1356C37.0978 48.0004 38.0286 47.6531 38.7557 47.0229L51.7235 35.7847C51.9553 35.5836 52.0043 35.3899 51.993 35.2847C51.9264 34.6686 51.6957 34.0622 51.2889 33.5327C50.8253 32.9294 50.2042 32.5221 49.5282 32.3179L37.7987 40.0161C36.8209 40.6578 35.6763 41.0004 34.5067 41.0005H19.0008V39.0005H29.6454C30.7541 38.624 31.7347 37.8614 32.3661 36.7681C32.7038 36.1831 32.9091 35.5602 32.993 34.9331C33.0129 34.7845 32.9665 34.6606 32.8065 34.5425C32.6234 34.4075 32.3255 34.3223 32.0116 34.3696C30.0948 34.6595 26.9046 35.0005 22.5008 35.0005C17.3572 35.0005 13.8244 34.5352 12.0594 34.23C11.6287 34.1555 11.2116 34.3102 10.9657 34.605L5.08873 41.6567C4.91211 41.8683 4.59764 41.8972 4.38561 41.7212L3.61608 41.0806C3.404 40.9038 3.37589 40.5886 3.5526 40.3764L9.42858 33.3247C10.1655 32.4405 11.3185 32.0722 12.4003 32.2593C14.0594 32.5462 17.4782 33.0005 22.5008 33.0005C26.8011 33.0005 29.8916 32.6675 31.7128 32.3921C32.5198 32.2702 33.359 32.4647 33.994 32.9331C34.6519 33.4185 35.1059 34.2233 34.9755 35.1987C34.8575 36.0801 34.569 36.9531 34.0985 37.7681C33.8374 38.2202 33.5312 38.6307 33.1922 39.0005H34.5067C35.2863 39.0004 36.0492 38.7719 36.701 38.3442L48.6278 30.5171L48.7508 30.4448C49.005 30.3108 49.3056 30.245 49.6151 30.2827Z" fill="oklch(0.3523 0 0 / 1)" class="wd-expressive-fill"></path>
<path d="M27.1659 3.35887C27.6387 3.02644 28.2493 3.00535 28.7391 3.29637L28.8358 3.35887L29.1678 3.60008C30.072 4.27264 31.8237 5.71126 33.4403 7.82762C35.2894 10.2486 37.0008 13.609 37.0008 17.7505C37.0008 20.6092 36.0318 22.9422 34.3729 24.56C32.9469 25.9505 31.0668 26.756 29.0008 26.9516V29.4985C29.0007 29.7743 28.7766 29.9981 28.5008 29.9985H27.5008C27.2248 29.9985 27.0009 29.7746 27.0008 29.4985V26.9516C24.9347 26.7561 23.0548 25.9507 21.6288 24.56C19.9696 22.9419 19.0009 20.6085 19.0008 17.7495C19.0009 13.6079 20.7122 10.2474 22.5614 7.82664C24.4085 5.40876 26.4317 3.87547 27.1659 3.35887ZM28.0008 5.22411C27.1889 5.83065 25.607 7.13509 24.1512 9.04051C22.4736 11.2367 21.0009 14.1808 21.0008 17.7495C21.0009 20.1408 21.8004 21.9338 23.0253 23.1284C24.0466 24.1243 25.4175 24.7536 27.0008 24.9399V10.5005C27.0009 10.2244 27.2247 10.0005 27.5008 10.0005H28.5008C28.7766 10.0009 29.0008 10.2247 29.0008 10.5005V24.9399C30.5842 24.7535 31.9551 24.1242 32.9764 23.1284C34.2011 21.9341 35.0008 20.1416 35.0008 17.7505C35.0008 14.1818 33.5281 11.238 31.8505 9.04149C30.3947 7.13571 28.813 5.8309 28.0008 5.22411Z" fill="oklch(0.3523 0 0 / 1)" class="wd-expressive-fill"></path>
</g>
</svg>