<svg role="presentation" width="56" height="56" viewBox="0 0 56 56" xmlns="http://www.w3.org/2000/svg" class="wd-expressive wd-expressive-globe-coin">
<path d="M9.33789 12.9102C8.47061 15.4475 8 18.1688 8 21C8 34.8071 19.1929 46 33 46C33.3353 46 33.6689 45.9916 34.001 45.9785C34.0008 45.9857 34 45.9928 34 46C34 47.6569 37.5817 49 42 49C42.5127 49 43.0141 48.9809 43.5 48.9463C39.7987 48.683 37 47.4646 37 46V43.3408C35.1713 42.791 34 41.9473 34 41V37C34 38.6569 37.5817 40 42 40C46.4183 40 50 38.6569 50 37V41C50 42.6569 46.4183 44 42 44C40.6856 44 39.4456 43.8796 38.3516 43.6689C39.7873 44.4716 42.2291 45 45 45C49.4183 45 53 43.6569 53 42V46C53 46.9473 51.8287 47.791 50 48.3408V50C50 51.6569 46.4183 53 42 53C38.6083 53 35.7108 52.2072 34.5469 51.0898C34.5485 51.0914 34.5501 51.0931 34.5518 51.0947C32.4692 51.6844 30.2714 52 28 52C14.7452 52 4 41.2548 4 28C4 22.2825 6.00028 17.0328 9.33789 12.9102Z" fill="oklch(0.3057 0.079 256.22 / 0.13)" class="wd-expressive-accent"></path>
<g>
<path d="M41.9999 33C44.297 33 46.4215 33.3476 48.0077 33.9424C48.797 34.2384 49.5062 34.6151 50.0351 35.084C50.5626 35.5519 50.9999 36.1974 50.9999 37V38.9395C51.0024 38.9404 51.0052 38.9415 51.0077 38.9424C51.797 39.2384 52.5062 39.6151 53.0351 40.084C53.5626 40.5519 53.9999 41.1974 53.9999 42V46C53.9998 46.8026 53.5627 47.4481 53.0351 47.916C52.5062 48.3849 51.7971 48.7616 51.0077 49.0576C51.0053 49.0585 51.0024 49.0587 50.9999 49.0596V50C50.9998 50.8026 50.5627 51.4481 50.0351 51.916C49.5062 52.3849 48.7971 52.7616 48.0077 53.0576C46.4215 53.6524 44.297 54 41.9999 54C39.7028 54 37.5784 53.6524 35.9921 53.0576C35.2028 52.7616 34.4937 52.3849 33.9648 51.916C33.4371 51.4481 33 50.8027 32.9999 50V46C32.9999 45.1972 33.4371 44.5519 33.9648 44.084C34.206 43.8702 34.4853 43.6765 34.7919 43.5C34.4854 43.3235 34.2059 43.1298 33.9648 42.916C33.4371 42.4481 33 41.8027 32.9999 41V37C32.9999 36.1972 33.4371 35.5519 33.9648 35.084C34.4937 34.6151 35.2027 34.2384 35.9921 33.9424C37.5784 33.3476 39.7028 33 41.9999 33ZM34.9999 50C35 50.0261 35.0108 50.1707 35.2919 50.4199C35.5726 50.6687 36.0364 50.9379 36.6943 51.1846C37.7934 51.5967 39.2923 51.8887 40.9999 51.9727V49.9766C39.0904 49.8913 37.3453 49.565 35.9921 49.0576C35.6426 48.9265 35.3093 48.7779 34.9999 48.6143V50ZM42.9999 49.9766V51.9727C43.7068 51.9379 44.3782 51.869 44.9999 51.7686V50C44.4881 50 43.9846 49.9816 43.4941 49.9482C43.3308 49.9593 43.1658 49.9692 42.9999 49.9766ZM48.9999 49.6201C48.3712 49.7477 47.7002 49.8449 46.9999 49.9092V51.291C47.1047 51.256 47.2071 51.2215 47.3056 51.1846C47.9635 50.9378 48.4272 50.6687 48.7079 50.4199C48.989 50.1707 48.9999 50.0261 48.9999 50V49.6201ZM47.9999 45.791C47.059 45.926 46.0474 46 44.9999 46V48C46.0772 48 47.0913 47.9153 47.9999 47.7686V45.791ZM37.9999 46C38 46.0261 38.0108 46.1707 38.2919 46.4199C38.5726 46.6687 39.0364 46.9379 39.6943 47.1846C40.5731 47.5141 41.7078 47.7648 42.9999 47.8965V45.9092C41.4834 45.77 40.1051 45.4749 38.9921 45.0576C38.6494 44.9291 38.3227 44.783 38.0185 44.623C38.0125 44.6218 38.0059 44.6213 37.9999 44.6201V46ZM51.9999 44.6143C51.6905 44.778 51.3573 44.9265 51.0077 45.0576C50.6923 45.1759 50.355 45.2829 49.9999 45.3809V47.291C50.1047 47.256 50.2071 47.2215 50.3056 47.1846C50.9635 46.9378 51.4272 46.6687 51.7079 46.4199C51.989 46.1707 51.9999 46.0261 51.9999 46V44.6143ZM35.9999 45.1182C35.696 45.2733 35.4608 45.4304 35.2919 45.5801C35.01 45.83 34.9999 45.9745 34.9999 46C35 46.0261 35.0108 46.1707 35.2919 46.4199C35.5028 46.6068 35.8171 46.8054 36.2392 46.9971C36.0906 46.6987 36 46.3656 35.9999 46V45.1182ZM50.996 41.1162C50.9562 41.8651 50.537 42.471 50.0351 42.916C49.7769 43.145 49.4749 43.3508 49.1425 43.5371C49.5662 43.4328 49.9564 43.3155 50.3056 43.1846C50.9635 42.9378 51.4272 42.6687 51.7079 42.4199C51.989 42.1707 51.9999 42.0261 51.9999 42C51.9999 41.9745 51.9895 41.8298 51.7079 41.5801C51.5383 41.4298 51.3016 41.2719 50.996 41.1162ZM44.9999 40.791C44.059 40.926 43.0474 41 41.9999 41C41.3147 41 40.6446 40.9684 39.9999 40.9092V42.8965C40.6325 42.961 41.3029 43 41.9999 43C43.0772 43 44.0913 42.9153 44.9999 42.7686V40.791ZM34.9999 41C35 41.0261 35.0108 41.1707 35.2919 41.4199C35.5726 41.6687 36.0364 41.9379 36.6943 42.1846C37.0821 42.33 37.521 42.4572 37.9999 42.5693V40.6201C37.2672 40.4714 36.5911 40.2822 35.9921 40.0576C35.6426 39.9265 35.3093 39.7779 34.9999 39.6143V41ZM48.9999 39.6143C48.6905 39.778 48.3573 39.9265 48.0077 40.0576C47.6923 40.1759 47.355 40.2829 46.9999 40.3809V42.291C47.1047 42.256 47.2071 42.2215 47.3056 42.1846C47.9635 41.9378 48.4272 41.6687 48.7079 41.4199C48.989 41.1707 48.9999 41.0261 48.9999 41V39.6143ZM41.9999 35C39.8791 35 38.0034 35.3246 36.6943 35.8154C36.0362 36.0622 35.5726 36.3313 35.2919 36.5801C35.01 36.83 34.9999 36.9745 34.9999 37C35 37.0261 35.0108 37.1707 35.2919 37.4199C35.5726 37.6687 36.0364 37.9379 36.6943 38.1846C38.0034 38.6754 39.8791 39 41.9999 39C44.1208 39 45.9965 38.6755 47.3056 38.1846C47.9635 37.9378 48.4272 37.6687 48.7079 37.4199C48.989 37.1707 48.9999 37.0261 48.9999 37C48.9999 36.9745 48.9895 36.8298 48.7079 36.5801C48.4273 36.3313 47.9635 36.0622 47.3056 35.8154C45.9965 35.3245 44.1208 35 41.9999 35Z" fill="oklch(0.3523 0 0 / 1)" class="wd-expressive-fill"></path>
<path d="M28.9999 3.01953C33.1229 3.18481 37.1602 4.36993 40.7411 6.49121C45.3204 9.20409 48.9144 13.3081 50.9999 18.2051C52.1936 21.0083 52.8574 23.9878 52.9784 26.9951H53.0048V28.9951H52.9794C52.9229 30.4134 52.7459 31.8309 52.4462 33.2314C52.3883 33.5012 52.1182 33.6675 51.8495 33.6045L50.8759 33.376C50.607 33.3128 50.4406 33.0436 50.498 32.7734C50.7631 31.5239 50.9217 30.2602 50.9765 28.9951H40.9872C40.9774 29.4799 40.9627 29.9648 40.9384 30.4492C40.9245 30.725 40.6867 30.9347 40.411 30.918L39.413 30.8574C39.1375 30.8406 38.9276 30.6038 38.9413 30.3281C38.9634 29.8839 38.9778 29.4394 38.9872 28.9951H28.9999V40H30.4989C30.7751 40 30.9989 40.2239 30.9989 40.5V41.5C30.9989 41.7761 30.7751 42 30.4989 42H28.9999V50.9775C29.4481 50.958 29.8966 50.9268 30.3446 50.8809C30.6192 50.8527 30.869 51.0464 30.9032 51.3203L31.0263 52.3125C31.0603 52.5864 30.8663 52.8366 30.5917 52.8652C30.0613 52.9205 29.5305 52.9573 28.9999 52.9785V53H26.9999V52.9785C23.0915 52.8219 19.2536 51.7506 15.8056 49.8242C11.1592 47.2281 7.46153 43.2167 5.25284 38.374C3.89866 35.4047 3.14867 32.2176 3.02042 28.9951H3.0048V28.4492C2.99957 28.158 2.99983 27.8667 3.0048 27.5752V26.9951H3.0214C3.07656 25.6249 3.2428 24.255 3.5253 22.8994C4.61129 17.6889 7.33178 12.9605 11.2909 9.40332C15.2503 5.84622 20.2423 3.64495 25.539 3.12109C26.0258 3.07296 26.5132 3.039 26.9999 3.01953V3H28.9999V3.01953ZM19.3193 42C20.0677 44.0066 20.9688 45.7516 21.9882 47.1602C23.5721 49.3484 25.3076 50.5549 26.9999 50.8955V42H19.3193ZM9.75382 42C11.648 44.4689 14.0334 46.5438 16.7812 48.0791C18.4189 48.9941 20.1528 49.6991 21.9413 50.1875C21.3903 49.6385 20.8642 49.0175 20.3681 48.332C19.1075 46.5901 18.0395 44.4385 17.1943 42H9.75382ZM5.02238 28.9951C5.1499 31.9326 5.83847 34.8367 7.07316 37.5439C7.46183 38.3961 7.90125 39.2202 8.38663 40.0127C8.42273 40.0044 8.46032 40 8.49894 40H16.5683C16.2704 38.9369 16.011 37.8306 15.7948 36.6895C15.3251 34.2095 15.0649 31.6112 15.0116 28.9951H5.02238ZM17.0116 28.9951C17.0644 31.488 17.3134 33.9613 17.7597 36.3174C18.0039 37.6062 18.3039 38.8374 18.6503 40H26.9999V28.9951H17.0116ZM8.37882 16C7.00996 18.2381 6.02428 20.7074 5.48234 23.3076C5.22798 24.5282 5.07525 25.7614 5.0214 26.9951H15.0107C15.0441 25.362 15.1577 23.7317 15.3554 22.1289C15.62 19.9838 16.0294 17.9235 16.5683 16H8.37882ZM18.6503 16C18.0655 17.9621 17.6203 20.1075 17.3407 22.374C17.153 23.8962 17.0449 25.4446 17.0116 26.9951H26.9999V16H18.6503ZM28.9999 26.9951H38.9872C38.9132 23.5483 38.4614 20.1652 37.6562 17.0977C37.5583 16.7247 37.4536 16.3591 37.3466 16H28.9999V26.9951ZM39.5907 16.5898C40.4416 19.8313 40.914 23.3862 40.9882 26.9951H50.9765C50.8568 24.2555 50.2477 21.5423 49.1601 18.9883C48.7183 17.9511 48.2021 16.9532 47.6191 16H39.4286C39.4833 16.1953 39.5387 16.3916 39.5907 16.5898ZM21.9394 5.81348C18.4996 6.75317 15.3065 8.48412 12.6278 10.8906C11.5699 11.8411 10.6087 12.8832 9.75187 14H17.1943C17.7566 12.3779 18.4172 10.8788 19.1718 9.54199C19.9935 8.08647 20.9226 6.82765 21.9394 5.81348ZM26.789 5.14648C24.7496 5.64182 22.6672 7.41982 20.914 10.5254C20.3239 11.5707 19.7925 12.7368 19.3212 14H26.9999V5.10254C26.9297 5.11658 26.8589 5.12951 26.789 5.14648ZM28.9999 14H36.6796C35.6474 11.2321 34.3325 8.99299 32.8515 7.43848C31.5949 6.11969 30.2901 5.36052 28.9999 5.10254V14ZM34.2987 6.05859C36.1415 7.99275 37.6725 10.7341 38.8046 14H46.247C44.4715 11.6861 42.2611 9.71638 39.7216 8.21191C37.9371 7.15482 36.0294 6.35088 34.0526 5.81152C34.1345 5.89301 34.218 5.97387 34.2987 6.05859Z" fill="oklch(0.3523 0 0 / 1)" class="wd-expressive-fill"></path>
</g>
</svg>