<svg role="presentation" width="56" height="56" viewBox="0 0 56 56" xmlns="http://www.w3.org/2000/svg" class="wd-expressive wd-expressive-document-forward">
<g>
<path d="M14 49.5C14 49.7761 14.2239 50 14.5 50H29V53H11.5C11.2239 53 11 52.7761 11 52.5V3.5C11 3.22386 11.2239 3 11.5 3H14V49.5Z" fill="oklch(0.3057 0.079 256.22 / 0.13)" class="wd-expressive-accent"></path>
<path d="M43 34.5C43 34.0301 43.5892 33.8199 43.8867 34.1836L49.7402 41.3369C49.8907 41.521 49.8906 41.7856 49.7402 41.9697L43.8867 49.124C43.5892 49.4872 43.0004 49.2771 43 48.8076V44.7637C41.0437 44.9801 39.1818 45.5099 37.4658 46.3018C35.3909 47.2594 34.0933 49.1253 33.4619 51.2783C33.3976 51.4977 33.1993 51.6532 32.9707 51.6533H32.5C32.2239 51.6533 32 51.4295 32 51.1533V48.4834C32 45.0701 33.3691 41.6321 36.4346 40.1309C38.4519 39.1429 40.665 38.4929 43 38.2549V34.5Z" fill="oklch(0.3057 0.079 256.22 / 0.13)" class="wd-expressive-accent"></path>
<path d="M20.5 21C21.8807 21 23 22.1193 23 23.5C23 24.8807 21.8807 26 20.5 26C19.1193 26 18 24.8807 18 23.5C18 22.1193 19.1193 21 20.5 21Z" fill="oklch(0.3057 0.079 256.22 / 0.13)" class="wd-expressive-accent"></path>
<path d="M29.5 21C30.8807 21 32 22.1193 32 23.5C32 24.8807 30.8807 26 29.5 26C28.1193 26 27 24.8807 27 23.5C27 22.1193 28.1193 21 29.5 21Z" fill="oklch(0.3057 0.079 256.22 / 0.13)" class="wd-expressive-accent"></path>
</g>
<g>
<path d="M43 2C44.6569 2 46 3.34315 46 5V29.5C46 29.7761 45.7761 30 45.5 30H44.5C44.2239 30 44 29.7761 44 29.5V5C44 4.44772 43.5523 4 43 4H13C12.4477 4 12 4.44772 12 5V51C12 51.5523 12.4477 52 13 52H28.5C28.7761 52 29 52.2239 29 52.5V53.5C29 53.7761 28.7761 54 28.5 54H13C11.3431 54 10 52.6569 10 51V5C10 3.34315 11.3431 2 13 2H43Z" fill="oklch(0.3523 0 0 / 1)" class="wd-expressive-fill"></path>
<path d="M42 34.5C42 33.0897 43.7688 32.4602 44.6611 33.5508L44.6602 33.5518L50.5146 40.7041C50.9382 41.2223 50.9636 41.9522 50.5938 42.4961L50.5146 42.6025L44.6611 49.7568L44.6602 49.7578C43.7676 50.8472 42.0013 50.217 42 48.8086V45.9209C40.557 46.1778 39.1767 46.6137 37.8848 47.21C36.1381 48.0162 34.995 49.6056 34.4219 51.5596C34.2502 52.1448 33.735 52.5935 33.0996 52.6475L32.9707 52.6533H32.5C31.6716 52.6533 31 51.9817 31 51.1533V48.4834C31 44.8583 32.4569 40.9652 35.9951 39.2324C37.856 38.3212 39.8753 37.6829 42 37.3711V34.5ZM44 38.2549C44 38.7679 43.6119 39.1979 43.1016 39.25C40.8865 39.4758 38.7873 40.0923 36.874 41.0293C34.2816 42.2992 33 45.282 33 48.4834V49.6396C33.8008 47.8424 35.1166 46.2845 37.0469 45.3936C38.8587 44.5574 40.8248 43.998 42.8896 43.7695C43.1722 43.7383 43.4552 43.8289 43.667 44.0186C43.8788 44.2083 44 44.4793 44 44.7637V47.4062L48.707 41.6523L44 35.8994V38.2549Z" fill="oklch(0.3523 0 0 / 1)" class="wd-expressive-fill"></path>
<path d="M32.5 35C32.7761 35 33 35.2239 33 35.5V36.5C33 36.7761 32.7761 37 32.5 37H17.5C17.2239 37 17 36.7761 17 36.5V35.5C17 35.2239 17.2239 35 17.5 35H32.5Z" fill="oklch(0.3523 0 0 / 1)" class="wd-expressive-fill"></path>
<path d="M32.5 30C32.7761 30 33 30.2239 33 30.5V31.5C33 31.7761 32.7761 32 32.5 32H17.5C17.2239 32 17 31.7761 17 31.5V30.5C17 30.2239 17.2239 30 17.5 30H32.5Z" fill="oklch(0.3523 0 0 / 1)" class="wd-expressive-fill"></path>
<path d="M20.5 20C22.433 20 24 21.567 24 23.5C24 25.433 22.433 27 20.5 27C18.567 27 17 25.433 17 23.5C17 21.567 18.567 20 20.5 20ZM20.5 22C19.6716 22 19 22.6716 19 23.5C19 24.3284 19.6716 25 20.5 25C21.3284 25 22 24.3284 22 23.5C22 22.6716 21.3284 22 20.5 22Z" fill="oklch(0.3523 0 0 / 1)" class="wd-expressive-fill"></path>
<path d="M29.5 20C31.433 20 33 21.567 33 23.5C33 25.433 31.433 27 29.5 27C27.567 27 26 25.433 26 23.5C26 21.567 27.567 20 29.5 20ZM29.5 22C28.6716 22 28 22.6716 28 23.5C28 24.3284 28.6716 25 29.5 25C30.3284 25 31 24.3284 31 23.5C31 22.6716 30.3284 22 29.5 22Z" fill="oklch(0.3523 0 0 / 1)" class="wd-expressive-fill"></path>
<path d="M32.5 15C32.7761 15 33 15.2239 33 15.5V16.5C33 16.7761 32.7761 17 32.5 17H17.5C17.2239 17 17 16.7761 17 16.5V15.5C17 15.2239 17.2239 15 17.5 15H32.5Z" fill="oklch(0.3523 0 0 / 1)" class="wd-expressive-fill"></path>
<path d="M38.5 10C38.7761 10 39 10.2239 39 10.5V11.5C39 11.7761 38.7761 12 38.5 12H17.5C17.2239 12 17 11.7761 17 11.5V10.5C17 10.2239 17.2239 10 17.5 10H38.5Z" fill="oklch(0.3523 0 0 / 1)" class="wd-expressive-fill"></path>
</g>
</svg>