<svg role="presentation" width="56" height="56" viewBox="0 0 56 56" xmlns="http://www.w3.org/2000/svg" class="wd-expressive wd-expressive-ribbon">
<path d="M22.121 6.00146L24.413 6.61572L24.8095 6.21826C33.4163 7.56707 40.0009 15.015 40.0009 24.0005C40.0008 25.893 39.7065 27.7167 39.1649 29.4302L37.7977 29.7974L36.6151 34.2144C36.5436 34.4807 36.2693 34.6389 36.0028 34.5679L31.5858 33.3843L28.3544 36.6167C28.2568 36.7142 28.1287 36.7632 28.0009 36.7632V48.0728C27.9176 48.0728 27.8339 48.0936 27.7587 48.1353L19.744 52.5874C19.411 52.7722 19.0014 52.5316 19.0009 52.1509V32.7778L18.202 29.7974L13.787 28.6147C13.5203 28.5433 13.3621 28.2691 13.4335 28.0024L14.6161 23.5864L11.3837 20.354C11.1885 20.1588 11.1886 19.8422 11.3837 19.647L14.6161 16.4136L13.4335 11.9976C13.3621 11.7309 13.5203 11.4567 13.787 11.3853L18.202 10.2017L19.2723 6.20557C20.162 6.07031 21.0734 6.00049 22.0009 6.00049C22.0409 6.00049 22.081 6.0012 22.121 6.00146ZM28.0009 10.0005C22.478 10.0005 18.0009 14.4777 18.0009 20.0005C18.0011 25.5231 22.4782 30.0005 28.0009 30.0005C33.5232 30.0001 38.0006 25.5229 38.0009 20.0005C38.0009 14.4779 33.5234 10.0008 28.0009 10.0005Z" fill="oklch(0.3057 0.079 256.22 / 0.13)" class="wd-expressive-accent"></path>
<g>
<path d="M24.5 38.9998C24.776 38.9999 24.9999 39.2238 25 39.4998V45.4998C25 45.7759 24.7761 45.9997 24.5 45.9998H23.5C23.2239 45.9998 23 45.7759 23 45.4998V39.4998C23.0001 39.2238 23.2239 38.9998 23.5 38.9998H24.5Z" fill="oklch(0.3523 0 0 / 1)" class="wd-expressive-fill"></path>
<path d="M32.5 38.9998C32.776 38.9999 32.9999 39.2238 33 39.4998V45.4998C33 45.7759 32.7761 45.9997 32.5 45.9998H31.5C31.2239 45.9998 31 45.7759 31 45.4998V39.4998C31.0001 39.2238 31.2239 38.9998 31.5 38.9998H32.5Z" fill="oklch(0.3523 0 0 / 1)" class="wd-expressive-fill"></path>
<path d="M28 8.9998C34.075 8.99983 38.9998 13.9248 39 19.9998C39 26.0749 34.0751 30.9998 28 30.9998C21.9249 30.9998 17 26.0749 17 19.9998C17.0002 13.9248 21.925 8.9998 28 8.9998ZM28 10.9998C23.0295 10.9998 19.0002 15.0294 19 19.9998C19 24.9704 23.0294 28.9998 28 28.9998C32.9705 28.9998 37 24.9703 37 19.9998C36.9998 15.0294 32.9704 10.9998 28 10.9998Z" fill="oklch(0.3523 0 0 / 1)" class="wd-expressive-fill"></path>
<path d="M26.9395 2.67655C27.5251 2.09111 28.4747 2.09067 29.0606 2.67655L31.8838 5.4998L35.7432 4.46659L35.8936 4.43437C36.5945 4.32093 37.2802 4.71883 37.5322 5.38066L37.5801 5.52616L38.6133 9.38554L42.4727 10.4197C43.2733 10.6343 43.7465 11.4567 43.5332 12.2557L42.499 16.115L45.3252 18.9412C45.8719 19.4895 45.908 20.3576 45.4277 20.9471L45.3242 21.0613L42.499 23.8855L43.5332 27.7439L43.5654 27.8943C43.6786 28.5946 43.2819 29.282 42.6191 29.534L42.4727 29.5809L38.6133 30.6141L38 32.9041V52.1512C37.9994 53.2942 36.7709 54.0174 35.7715 53.4627L28 49.1443L20.2285 53.4627C19.2291 54.0174 18.0006 53.2942 18 52.1512V32.91L17.3848 30.6141L13.5273 29.5809C12.7273 29.3664 12.2527 28.544 12.4668 27.7439L13.5 23.8855L10.6758 21.0613C10.0898 20.4754 10.0911 19.5257 10.6758 18.9402L13.5 16.115L12.4668 12.2566C12.2527 11.4569 12.7271 10.6343 13.5273 10.4197L17.3848 9.38554L18.419 5.52812L18.4658 5.38163C18.736 4.6707 19.5069 4.26746 20.2559 4.46757L24.1133 5.50077L26.9395 2.67655ZM29.0606 37.324C28.5115 37.8727 27.6428 37.9075 27.0537 37.4275L26.9395 37.324L24.1143 34.4998L20.2559 35.534C20.171 35.5566 20.0846 35.5684 20 35.576V51.3006L27.2715 47.2615L27.4453 47.1785C27.8011 47.037 28.1989 47.0369 28.5547 47.1785L28.7285 47.2615L36 51.3006V35.5779C35.9148 35.5703 35.8287 35.5569 35.7432 35.534L31.8838 34.4998L29.0606 37.324ZM25.1191 7.32304C24.8665 7.57528 24.4982 7.6742 24.1533 7.58183L20.2207 6.52812L19.167 10.4607C19.0744 10.8055 18.8048 11.0753 18.46 11.1678L14.5273 12.2215L15.5811 16.1551C15.6733 16.5 15.5747 16.8684 15.3223 17.1209L12.4424 19.9998L15.3223 22.8797C15.5748 23.1323 15.6735 23.5005 15.5811 23.8455L14.5273 27.7781L18.46 28.8318L18.5859 28.8748C18.8698 28.9931 19.0861 29.237 19.167 29.5389L20.2207 33.4725L24.1543 32.4187L24.2842 32.3924C24.5893 32.3527 24.899 32.4565 25.1201 32.6775L27.999 35.5564L30.8779 32.6775L30.9775 32.5896C31.222 32.4028 31.5418 32.3379 31.8438 32.4187L35.7773 33.4725L36.8311 29.5389L36.874 29.4129C36.9923 29.1291 37.2364 28.9128 37.5381 28.8318L41.4717 27.7781L40.418 23.8455C40.3255 23.5005 40.4243 23.1323 40.6768 22.8797L43.5557 19.9998L40.6768 17.1209C40.4242 16.8684 40.3257 16.5 40.418 16.1551L41.4717 12.2215L37.5381 11.1678C37.1931 11.0753 36.9236 10.8056 36.8311 10.4607L35.7773 6.52714L31.8438 7.58085C31.4988 7.6731 31.1304 7.5745 30.8779 7.32206L27.999 4.44316L25.1191 7.32304Z" fill="oklch(0.3523 0 0 / 1)" class="wd-expressive-fill"></path>
</g>
</svg>