<svg role="presentation" width="56" height="56" viewBox="0 0 56 56" xmlns="http://www.w3.org/2000/svg" class="wd-expressive wd-expressive-inbox-documents-user">
<g>
<path d="M15.0381 39C17.8083 43.2158 22.5785 46 28 46C33.4215 46 38.1917 43.2158 40.9619 39H47.5C47.7761 39 48 39.2239 48 39.5V50.5C48 50.7761 47.7761 51 47.5 51H6.5C6.22386 51 6 50.7761 6 50.5V39.5C6 39.2239 6.22386 39 6.5 39H15.0381Z" fill="oklch(0.3057 0.079 256.22 / 0.13)" class="wd-expressive-accent"></path>
<path d="M11 35.5C11 35.7761 11.2239 36 11.5 36H5L11 26.0186V35.5Z" fill="oklch(0.3057 0.079 256.22 / 0.13)" class="wd-expressive-accent"></path>
<path d="M51 36H44.5C44.7761 36 45 35.7761 45 35.5V26.0186L51 36Z" fill="oklch(0.3057 0.079 256.22 / 0.13)" class="wd-expressive-accent"></path>
<path d="M26.001 28C28.6899 28.0002 31.1435 29.0113 33.001 30.6738V31H21V29.2666C22.4868 28.4597 24.1904 28 26.001 28Z" fill="oklch(0.3057 0.079 256.22 / 0.13)" class="wd-expressive-accent"></path>
<path d="M26.001 19C27.5995 19.0004 28.9056 20.251 28.9951 21.8271C28.6835 21.9368 28.3491 22 28 22C26.4009 21.9999 25.0939 20.7487 25.0049 19.1719C25.3166 19.0622 25.6517 19 26.001 19Z" fill="oklch(0.3057 0.079 256.22 / 0.13)" class="wd-expressive-accent"></path>
<path d="M41.5 7C41.7761 7 42 7.22386 42 7.5V10.5C42 10.7761 41.7761 11 41.5 11H14.5C14.2239 11 14 10.7761 14 10.5V7.5C14 7.22386 14.2239 7 14.5 7H17.5C17.2239 7 17 6.77614 17 6.5V3.5C17 3.22386 17.2239 3 17.5 3H38.5C38.7761 3 39 3.22386 39 3.5V6.5C39 6.77614 38.7761 7 38.5 7H41.5Z" fill="oklch(0.3057 0.079 256.22 / 0.13)" class="wd-expressive-accent"></path>
</g>
<g>
<path d="M28 25C30.9447 25 33.6331 26.1083 35.667 27.9287C35.8788 28.1184 36 28.3895 36 28.6738V32C36 32.5523 35.5523 33 35 33H21C20.4477 33 20 32.5523 20 32V28.6738C20 28.3895 20.1212 28.1184 20.333 27.9287C22.3669 26.1083 25.0553 25 28 25ZM28 27C25.7238 27 23.6363 27.7992 22 29.1338V31H34V29.1338C32.3637 27.7992 30.2762 27 28 27Z" fill="oklch(0.3523 0 0 / 1)" class="wd-expressive-fill"></path>
<path d="M28 16C30.2091 16 32 17.7909 32 20C32 22.2091 30.2091 24 28 24C25.7909 24 24 22.2091 24 20C24 17.7909 25.7909 16 28 16ZM28 18C26.8954 18 26 18.8954 26 20C26 21.1046 26.8954 22 28 22C29.1046 22 30 21.1046 30 20C30 18.8954 29.1046 18 28 18Z" fill="oklch(0.3523 0 0 / 1)" class="wd-expressive-fill"></path>
<path d="M37 2C38.6569 2 40 3.34315 40 5V6C41.6569 6 43 7.34315 43 9V10C44.6569 10 46 11.3431 46 13V25.7227L51.8574 35.4854C51.9507 35.6408 52 35.8188 52 36V50.5L51.9922 50.6533C51.9154 51.4097 51.2767 52 50.5 52H5.5C4.72334 52 4.08461 51.4097 4.00781 50.6533L4 50.5V36C4 35.8188 4.04933 35.6408 4.14258 35.4854L10 25.7227V13C10 11.3431 11.3431 10 13 10V9C13 7.34315 14.3431 6 16 6V5C16 3.34315 17.3431 2 19 2H37ZM6 50H50V37H40.124C37.7048 41.1818 33.1832 44 28 44C22.8168 44 18.2952 41.1818 15.876 37H6V50ZM13 12C12.4477 12 12 12.4477 12 13V35H16.1631L16.3711 35.0146C16.7795 35.0718 17.1396 35.2938 17.377 35.6152L17.4854 35.7842L17.6816 36.1289C19.7756 39.6465 23.6135 42 28 42C32.5281 42 36.4705 39.4916 38.5146 35.7842L38.623 35.6152C38.9 35.2402 39.3438 35.0002 39.8369 35H44V13C44 12.4477 43.5523 12 43 12H13ZM6.76562 35H10V29.6094L6.76562 35ZM46 35H49.2344L46 29.6094V35ZM16 8C15.4477 8 15 8.44772 15 9V10H41V9C41 8.44772 40.5523 8 40 8H16ZM19 4C18.4477 4 18 4.44772 18 5V6H38V5C38 4.44771 37.5523 4 37 4H19Z" fill="oklch(0.3523 0 0 / 1)" class="wd-expressive-fill"></path>
</g>
</svg>