<svg role="presentation" width="56" height="56" viewBox="0 0 56 56" xmlns="http://www.w3.org/2000/svg" class="wd-expressive wd-expressive-document-list-lock">
<g>
<path d="M14 49.5C14 49.7761 14.2239 50 14.5 50H31V53H11.5C11.2239 53 11 52.7761 11 52.5V3.5C11 3.22386 11.2239 3 11.5 3H14V49.5Z" fill="oklch(0.3057 0.079 256.22 / 0.13)" class="wd-expressive-accent"></path>
<path d="M37 51H49V53H35V43H37V51Z" fill="oklch(0.3057 0.079 256.22 / 0.13)" class="wd-expressive-accent"></path>
</g>
<g>
<path d="M43 2C44.6567 2.00018 46 3.34326 46 5V30.5C46 30.776 45.776 30.9998 45.5 31H44.5C44.2239 31 44 30.7761 44 30.5V5C44 4.44783 43.5521 4.00018 43 4H13C12.4477 4 12 4.44772 12 5V51C12.0001 51.5522 12.4478 52 13 52H30.5C30.776 52.0002 31 52.224 31 52.5V53.5C31 53.776 30.776 53.9998 30.5 54H13C11.3432 54 10.0001 52.6567 10 51V5C10 3.34315 11.3431 2 13 2H43Z" fill="oklch(0.3523 0 0 / 1)" class="wd-expressive-fill"></path>
<path d="M42 34C45.3136 34.0002 48 36.6864 48 40V42H48.5C49.3283 42.0002 50 42.6717 50 43.5V52.499C50 53.3273 49.3283 53.9988 48.5 53.999H35.5C34.6716 53.999 34 53.3274 34 52.499V43.5C34 42.6716 34.6716 42 35.5 42H36V40C36 36.6863 38.6863 34 42 34ZM36 51.999H48V44H36V51.999ZM42 36C39.7909 36 38 37.7909 38 40V42H46V40C46 37.791 44.209 36.0002 42 36Z" fill="oklch(0.3523 0 0 / 1)" class="wd-expressive-fill"></path>
<path d="M23.9395 29.6465C24.1347 29.4513 24.4512 29.4513 24.6465 29.6465L25.3535 30.3535C25.5487 30.5488 25.5487 30.8653 25.3535 31.0605L20.707 35.707C20.3166 36.0975 19.6835 36.0973 19.293 35.707L17.1465 33.5605C16.9513 33.3653 16.9513 33.0488 17.1465 32.8535L17.8535 32.1465C18.0488 31.9513 18.3653 31.9513 18.5605 32.1465L20 33.5859L23.9395 29.6465Z" fill="oklch(0.3523 0 0 / 1)" class="wd-expressive-fill"></path>
<path d="M30.499 32.001C30.7752 32.001 30.999 32.2248 30.999 32.501V33.5C30.999 33.7761 30.7752 34.001 30.499 34.001H27.499C27.2232 34.0008 26.9993 33.7768 26.999 33.501V32.501C26.999 32.2249 27.223 32.0011 27.499 32.001H30.499Z" fill="oklch(0.3523 0 0 / 1)" class="wd-expressive-fill"></path>
<path d="M23.9395 19.6465C24.1347 19.4513 24.4512 19.4513 24.6465 19.6465L25.3535 20.3535C25.5487 20.5488 25.5487 20.8653 25.3535 21.0605L20.707 25.707C20.3166 26.0975 19.6835 26.0973 19.293 25.707L17.1465 23.5605C16.9513 23.3653 16.9513 23.0488 17.1465 22.8535L17.8535 22.1465C18.0488 21.9513 18.3653 21.9513 18.5605 22.1465L20 23.5859L23.9395 19.6465Z" fill="oklch(0.3523 0 0 / 1)" class="wd-expressive-fill"></path>
<path d="M38.499 22.001C38.7752 22.001 38.999 22.2248 38.999 22.501V23.501C38.9988 23.7769 38.775 24.001 38.499 24.001H27.499C27.2232 24.0008 26.9993 23.7768 26.999 23.501V22.501C26.999 22.2249 27.223 22.0011 27.499 22.001H38.499Z" fill="oklch(0.3523 0 0 / 1)" class="wd-expressive-fill"></path>
<path d="M23.9395 9.64648C24.1347 9.45132 24.4512 9.45129 24.6465 9.64648L25.3535 10.3535C25.5487 10.5488 25.5487 10.8653 25.3535 11.0605L20.707 15.707C20.3166 16.0975 19.6835 16.0973 19.293 15.707L17.1465 13.5605C16.9513 13.3653 16.9513 13.0488 17.1465 12.8535L17.8535 12.1465C18.0488 11.9513 18.3653 11.9513 18.5605 12.1465L20 13.5859L23.9395 9.64648Z" fill="oklch(0.3523 0 0 / 1)" class="wd-expressive-fill"></path>
<path d="M38.499 12C38.7752 12 38.999 12.2239 38.999 12.5V13.5C38.999 13.7761 38.7752 14.001 38.499 14.001H27.499C27.223 14.0008 26.999 13.7761 26.999 13.5V12.5C26.999 12.2239 27.223 12.0001 27.499 12H38.499Z" fill="oklch(0.3523 0 0 / 1)" class="wd-expressive-fill"></path>
</g>
</svg>