<svg role="presentation" width="56" height="56" viewBox="0 0 56 56" xmlns="http://www.w3.org/2000/svg" class="wd-expressive wd-expressive-document-list-check">
<g>
<path d="M14 49.5C14 49.7761 14.2239 50 14.5 50H29V53H11.5C11.2239 53 11 52.7761 11 52.5V3.5C11 3.22386 11.2239 3 11.5 3H14V49.5Z" fill="oklch(0.3057 0.079 256.22 / 0.13)" class="wd-expressive-accent"></path>
<path d="M34.999 35C33.7437 36.6713 33 38.7488 33 41C33 46.5228 37.4772 51 43 51C45.2514 51 47.3286 50.2555 49 49C47.1756 51.4287 44.2715 53 41 53C35.4772 53 31 48.5228 31 43C31 39.7288 32.5707 36.8245 34.999 35Z" fill="oklch(0.3057 0.079 256.22 / 0.13)" class="wd-expressive-accent"></path>
</g>
<g>
<path d="M43 2C44.6567 2.00018 46 3.34326 46 5V28.5C46 28.776 45.776 28.9998 45.5 29H44.5C44.2239 29 44 28.7761 44 28.5V5C44 4.44783 43.5521 4.00018 43 4H13C12.4477 4 12 4.44772 12 5V51C12.0001 51.5522 12.4478 52 13 52H28.5C28.776 52.0002 29 52.224 29 52.5V53.5C29 53.776 28.776 53.9998 28.5 54H13C11.3432 54 10.0001 52.6567 10 51V5C10 3.34315 11.3431 2 13 2H43Z" fill="oklch(0.3523 0 0 / 1)" class="wd-expressive-fill"></path>
<path d="M44.9385 38.6465C45.1337 38.4513 45.4503 38.4513 45.6455 38.6465L46.3525 39.3535C46.5476 39.5488 46.5477 39.8653 46.3525 40.0605L45.7061 40.7061L45.707 40.707L39.707 46.707C39.3166 47.0971 38.6834 47.0972 38.293 46.707L36.9434 45.3574C36.9419 45.356 36.9399 45.3549 36.9385 45.3535L35.1455 43.5605C34.9504 43.3654 34.9506 43.0488 35.1455 42.8535L35.8525 42.1465C36.0478 41.9513 36.3643 41.9513 36.5596 42.1465L39 44.5859L44.9385 38.6465Z" fill="oklch(0.3523 0 0 / 1)" class="wd-expressive-fill"></path>
<path d="M41 32C47.075 32.0002 52 36.925 52 43C52 49.075 47.075 53.9998 41 54C34.9249 54 30 49.0751 30 43C30 36.9249 34.9249 32 41 32ZM41 34C36.0294 34 32 38.0294 32 43C32 47.9706 36.0294 52 41 52C45.9704 51.9998 50 47.9705 50 43C50 38.0295 45.9704 34.0002 41 34Z" fill="oklch(0.3523 0 0 / 1)" class="wd-expressive-fill"></path>
<path d="M23.9395 29.6465C24.1347 29.4513 24.4513 29.4513 24.6465 29.6465L25.3535 30.3535C25.5486 30.5488 25.5486 30.8653 25.3535 31.0605L20.707 35.707C20.3166 36.0975 19.6835 36.0973 19.293 35.707L17.1465 33.5605C16.9513 33.3653 16.9513 33.0488 17.1465 32.8535L17.8535 32.1465C18.0488 31.9513 18.3653 31.9513 18.5605 32.1465L20 33.5859L23.9395 29.6465Z" fill="oklch(0.3523 0 0 / 1)" class="wd-expressive-fill"></path>
<path d="M30.499 32.001C30.7752 32.001 30.999 32.2248 30.999 32.501V33.5C30.999 33.7761 30.7752 34.001 30.499 34.001H27.499C27.2232 34.0008 26.9993 33.7768 26.999 33.501V32.501C26.999 32.2249 27.223 32.0011 27.499 32.001H30.499Z" fill="oklch(0.3523 0 0 / 1)" class="wd-expressive-fill"></path>
<path d="M23.9395 19.6465C24.1347 19.4513 24.4513 19.4513 24.6465 19.6465L25.3535 20.3535C25.5486 20.5488 25.5486 20.8653 25.3535 21.0605L20.707 25.707C20.3166 26.0975 19.6835 26.0973 19.293 25.707L17.1465 23.5605C16.9513 23.3653 16.9513 23.0488 17.1465 22.8535L17.8535 22.1465C18.0488 21.9513 18.3653 21.9513 18.5605 22.1465L20 23.5859L23.9395 19.6465Z" fill="oklch(0.3523 0 0 / 1)" class="wd-expressive-fill"></path>
<path d="M38.499 22.001C38.7752 22.001 38.999 22.2248 38.999 22.501V23.501C38.9988 23.7769 38.775 24.001 38.499 24.001H27.499C27.2232 24.0008 26.9993 23.7768 26.999 23.501V22.501C26.999 22.2249 27.223 22.0011 27.499 22.001H38.499Z" fill="oklch(0.3523 0 0 / 1)" class="wd-expressive-fill"></path>
<path d="M23.9395 9.64648C24.1347 9.45133 24.4513 9.45129 24.6465 9.64648L25.3535 10.3535C25.5486 10.5488 25.5486 10.8653 25.3535 11.0605L20.707 15.707C20.3166 16.0975 19.6835 16.0973 19.293 15.707L17.1465 13.5605C16.9513 13.3653 16.9513 13.0488 17.1465 12.8535L17.8535 12.1465C18.0488 11.9513 18.3653 11.9513 18.5605 12.1465L20 13.5859L23.9395 9.64648Z" fill="oklch(0.3523 0 0 / 1)" class="wd-expressive-fill"></path>
<path d="M38.499 12.001C38.7752 12.001 38.999 12.2248 38.999 12.501V13.501C38.9988 13.7769 38.775 14.001 38.499 14.001H27.499C27.2232 14.0008 26.9993 13.7768 26.999 13.501V12.501C26.999 12.2249 27.223 12.0011 27.499 12.001H38.499Z" fill="oklch(0.3523 0 0 / 1)" class="wd-expressive-fill"></path>
</g>
</svg>