<svg role="presentation" width="56" height="56" viewBox="0 0 56 56" xmlns="http://www.w3.org/2000/svg" class="wd-expressive wd-expressive-easel-list">
<g>
<path d="M52.0005 42H42.8804L45.5972 48.6211C45.8662 49.2787 45.382 49.9996 44.6714 50H42.5103C42.1048 50 41.7396 49.7548 41.5854 49.3799L38.5581 42H17.4448L14.4175 49.3799C14.2636 49.7548 13.8979 49.9996 13.4927 50H11.3296C10.6187 49.9998 10.1353 49.2789 10.4048 48.6211L13.1216 42H4.00049V39H52.0005V42Z" fill="oklch(0.3057 0.079 256.22 / 0.13)" class="wd-expressive-accent"></path>
<path d="M16.0005 28C17.6571 28.0003 19.0005 29.3433 19.0005 31C19.0005 32.6567 17.6571 33.9997 16.0005 34C14.3436 34 13.0005 32.6569 13.0005 31C13.0005 29.3431 14.3436 28 16.0005 28Z" fill="oklch(0.3057 0.079 256.22 / 0.13)" class="wd-expressive-accent"></path>
<path d="M16.0005 16C17.6571 16.0003 19.0005 17.3433 19.0005 19C19.0005 20.6567 17.6571 21.9997 16.0005 22C14.3436 22 13.0005 20.6569 13.0005 19C13.0005 17.3431 14.3436 16 16.0005 16Z" fill="oklch(0.3057 0.079 256.22 / 0.13)" class="wd-expressive-accent"></path>
<path d="M41.0005 9H15.0005V6H41.0005V9Z" fill="oklch(0.3057 0.079 256.22 / 0.13)" class="wd-expressive-accent"></path>
</g>
<g>
<path d="M16 27C18.2091 27 20 28.7909 20 31C20 33.2091 18.2091 35 16 35C13.7909 35 12 33.2091 12 31C12 28.7909 13.7909 27 16 27ZM16 29C14.8954 29 14 29.8954 14 31C14 32.1046 14.8954 33 16 33C17.1046 33 18 32.1046 18 31C18 29.8954 17.1046 29 16 29Z" fill="oklch(0.3523 0 0 / 1)" class="wd-expressive-fill"></path>
<path d="M37.5 32C37.7761 32 38 32.2239 38 32.5V33.5C38 33.7761 37.7761 34 37.5 34H23.5C23.2239 34 23 33.7761 23 33.5V32.5C23 32.2239 23.2239 32 23.5 32H37.5Z" fill="oklch(0.3523 0 0 / 1)" class="wd-expressive-fill"></path>
<path d="M43.5 28C43.7761 28 44 28.2239 44 28.5V29.5C44 29.7761 43.7761 30 43.5 30H23.5C23.2239 30 23 29.7761 23 29.5V28.5C23 28.2239 23.2239 28 23.5 28H43.5Z" fill="oklch(0.3523 0 0 / 1)" class="wd-expressive-fill"></path>
<path d="M16 15C18.2091 15 20 16.7909 20 19C20 21.2091 18.2091 23 16 23C13.7909 23 12 21.2091 12 19C12 16.7909 13.7909 15 16 15ZM16 17C14.8954 17 14 17.8954 14 19C14 20.1046 14.8954 21 16 21C17.1046 21 18 20.1046 18 19C18 17.8954 17.1046 17 16 17Z" fill="oklch(0.3523 0 0 / 1)" class="wd-expressive-fill"></path>
<path d="M40.5 20C40.7761 20 41 20.2239 41 20.5V21.5C41 21.7761 40.7761 22 40.5 22H23.5C23.2239 22 23 21.7761 23 21.5V20.5C23 20.2239 23.2239 20 23.5 20H40.5Z" fill="oklch(0.3523 0 0 / 1)" class="wd-expressive-fill"></path>
<path d="M34.5 16C34.7761 16 35 16.2239 35 16.5V17.5C35 17.7761 34.7761 18 34.5 18H23.5C23.2239 18 23 17.7761 23 17.5V16.5C23 16.2239 23.2239 16 23.5 16H34.5Z" fill="oklch(0.3523 0 0 / 1)" class="wd-expressive-fill"></path>
<path d="M41 5C41.5522 5 41.9999 5.44778 42 6V7H50.5C51.3284 7 51.9999 7.67164 52 8.5V38L52.1025 38.0049C52.6066 38.0562 52.9999 38.4824 53 39V42C52.9997 42.552 52.5521 43 52 43H44.3711L46.5215 48.2412C47.0609 49.5569 46.0938 50.9996 44.6719 51H42.5098C41.6987 50.9998 40.9671 50.5092 40.6592 49.7588L37.8857 43H18.1143L15.3418 49.7588C15.0338 50.5092 14.3033 50.9998 13.4922 51H11.3291C9.90723 50.9995 8.94013 49.5569 9.47949 48.2412L11.6299 43H4C3.44793 43 3.00034 42.552 3 42V39C3.00007 38.4824 3.39341 38.0562 3.89746 38.0049L4 38V8.5C4.00008 7.67164 4.67162 7 5.5 7H14V6C14.0001 5.44778 14.4478 5 15 5H41ZM11.3291 49H13.4922L15.9541 43H13.791L11.3291 49ZM42.5098 49H44.6719L42.21 43H40.0479L42.5098 49ZM5 41H51V40H5V41ZM6 38H50V9H42L41.9951 9.10156C41.9439 9.60586 41.5178 10 41 10H15C14.4822 10 14.0561 9.60586 14.0049 9.10156L14 9H6V38ZM16 8H40V7H16V8Z" fill="oklch(0.3523 0 0 / 1)" class="wd-expressive-fill"></path>
</g>
</svg>