<svg role="presentation" width="56" height="56" viewBox="0 0 56 56" xmlns="http://www.w3.org/2000/svg" class="wd-expressive wd-expressive-phone">
<g>
<path d="M10.6189 10.3823C10.503 10.8758 10.4687 11.3899 10.531 11.9067C11.4974 19.9106 15.0524 27.6623 21.1951 33.8052C27.3352 39.9452 35.0826 43.5 43.0828 44.4683C44.5032 44.6401 45.9029 44.0921 46.9148 43.0806L49.6638 40.3315C49.7114 40.898 49.5198 41.4812 49.0867 41.9146L43.5916 47.4087C42.5797 48.4203 41.18 48.9681 39.7595 48.7964C31.7593 47.8281 24.012 44.2733 17.8718 38.1333C11.7291 31.9904 8.17413 24.2389 7.20777 16.2349C7.03652 14.8147 7.58495 13.4163 8.59644 12.4048L10.6189 10.3823Z" fill="oklch(0.3057 0.079 256.22 / 0.13)" class="wd-expressive-accent"></path>
<path d="M23.9968 14.6636C24.0445 15.2299 23.8528 15.8131 23.4197 16.2466L21.4714 18.1938C21.3816 17.9465 21.2946 17.6982 21.2126 17.4487L23.9968 14.6636Z" fill="oklch(0.3057 0.079 256.22 / 0.13)" class="wd-expressive-accent"></path>
</g>
<g>
<path d="M13.3796 6.20826C14.5512 5.03672 16.4502 5.03668 17.6218 6.20826L24.1257 12.7112C25.2974 13.8828 25.2971 15.7828 24.1257 16.9544L19.4656 21.6145C19.1915 21.8887 19.1153 22.2689 19.2341 22.5794C20.4331 25.7104 22.2954 28.6454 24.8279 31.178C27.358 33.7081 30.2907 35.5678 33.4187 36.7669C33.7292 36.8857 34.1083 36.8104 34.3826 36.5364L39.0456 31.8743C40.2172 30.7028 42.1163 30.7029 43.2878 31.8743L49.7937 38.3792L49.9001 38.4915C50.9633 39.6689 50.9287 41.4873 49.7937 42.6223L44.2986 48.1165C43.1684 49.2463 41.6067 49.9153 39.9685 49.8196L39.6394 49.7903C31.4251 48.7961 23.4686 45.1447 17.1648 38.8411C10.8584 32.5345 7.20697 24.5737 6.21459 16.3557C6.00267 14.5989 6.68463 12.9034 7.8894 11.6985L13.3796 6.20826ZM16.2078 7.62232C15.8172 7.23181 15.1842 7.2318 14.7937 7.62232L9.30346 13.1126C8.48553 13.9306 8.07036 15.0322 8.20092 16.1155C9.14152 23.905 12.6 31.448 18.5789 37.427C24.5553 43.4032 32.0938 46.8616 39.8796 47.804L40.0828 47.8225C41.1001 47.882 42.1175 47.4691 42.8845 46.7024L48.3796 41.2083C48.7453 40.8426 48.7682 40.2625 48.448 39.8694L48.3796 39.7932L41.8738 33.2883C41.4832 32.8979 40.8502 32.8979 40.4597 33.2883L35.7966 37.9504C35.0037 38.7431 33.8014 39.0559 32.7029 38.635C29.3174 37.3373 26.1458 35.324 23.4138 32.592C20.6795 29.8576 18.6647 26.6832 17.3669 23.2942C16.9463 22.1957 17.2589 20.9931 18.0515 20.2004L22.7117 15.5403C23.1022 15.1496 23.1021 14.5156 22.7117 14.1252L16.2078 7.62232Z" fill="oklch(0.3523 0 0 / 1)" class="wd-expressive-fill"></path>
<path d="M30.4997 6.00709C32.9556 6.06851 35.3808 6.58257 37.6531 7.52369C40.0795 8.52876 42.2852 10.0016 44.1423 11.8586C45.9994 13.7158 47.4722 15.9214 48.4773 18.3479C49.4184 20.6202 49.9325 23.0453 49.9939 25.5012C50.0007 25.7772 49.7758 26.0012 49.4997 26.0012H48.4997C48.2239 26.001 48.0007 25.777 47.9929 25.5012C47.932 23.3079 47.4703 21.1423 46.6296 19.1126C45.7251 16.9289 44.3986 14.945 42.7273 13.2737C41.056 11.6024 39.0721 10.2759 36.8884 9.37134C34.8587 8.53066 32.693 8.06899 30.4997 8.00806C30.224 8.00019 29.9999 7.77713 29.9997 7.50123V6.50123C29.9997 6.22522 30.2239 6.00042 30.4997 6.00709Z" fill="oklch(0.3523 0 0 / 1)" class="wd-expressive-fill"></path>
<path d="M30.4997 12.009C32.1675 12.0686 33.8129 12.4261 35.3572 13.0657C37.0556 13.7692 38.5992 14.8009 39.8992 16.1008C41.1991 17.4008 42.2308 18.9443 42.9343 20.6428C43.574 22.1871 43.9314 23.8324 43.991 25.5002C44.0007 25.7762 43.7759 26.0002 43.4997 26.0002H42.4997C42.2239 26 42.0015 25.776 41.99 25.5002C41.9314 24.0952 41.6257 22.71 41.0867 21.4085C40.4836 19.9526 39.5994 18.6292 38.4851 17.5149C37.3708 16.4007 36.0474 15.5164 34.5915 14.9133C33.29 14.3743 31.9047 14.0686 30.4997 14.01C30.2241 13.9983 29.9999 13.7762 29.9997 13.5002V12.5002C29.9997 12.2242 30.2239 11.9994 30.4997 12.009Z" fill="oklch(0.3523 0 0 / 1)" class="wd-expressive-fill"></path>
<path d="M30.4997 18.0149C31.3792 18.07 32.245 18.2706 33.0613 18.6086C34.0316 19.0106 34.9143 19.5995 35.657 20.342C36.3996 21.0847 36.9883 21.9675 37.3904 22.9377C37.7285 23.754 37.9289 24.6206 37.9841 25.5002C38.0012 25.7757 37.7758 25.9993 37.4997 25.9993H36.4997C36.2239 25.999 36.0023 25.7752 35.9792 25.5002C35.9276 24.8835 35.7803 24.2769 35.5427 23.7034C35.2412 22.9757 34.7989 22.314 34.2419 21.7571C33.6849 21.2002 33.0234 20.7577 32.2956 20.4563C31.7222 20.2189 31.1163 20.0724 30.4997 20.0208C30.2246 19.9977 29.9997 19.7754 29.9997 19.4993V18.4993C29.9999 18.2233 30.2243 17.9977 30.4997 18.0149Z" fill="oklch(0.3523 0 0 / 1)" class="wd-expressive-fill"></path>
</g>
</svg>