<svg role="presentation" width="56" height="56" viewBox="0 0 56 56" xmlns="http://www.w3.org/2000/svg" class="wd-expressive wd-expressive-folder-cloud">
<g>
<path d="M19.8975 10C21.5288 10.0002 23.0586 10.7964 23.9941 12.1328L25.8516 14.7871C25.9451 14.9204 26.0979 14.9999 26.2607 15H46.501C46.7768 15.0003 47.001 15.2241 47.001 15.5V21H9.50098C9.22483 21 9.00098 21.2239 9.00098 21.5V40C9.00098 41.9032 8.40953 43.6692 7.40137 45.123C7.1556 45.4782 7.39608 46 7.82812 46H5.50098C5.22483 46 5.00098 45.7761 5.00098 45.5V10.5C5.00098 10.2239 5.22483 10 5.50098 10H19.8975Z" fill="oklch(0.3057 0.079 256.22 / 0.13)" class="wd-expressive-accent"></path>
<path d="M27.5 27C29.1403 27 30.5749 27.8782 31.3613 29.1895C31.7182 29.0667 32.1015 29 32.5 29C34.2632 29 35.7212 30.3039 35.9639 32C35.9758 31.9999 35.9881 32 36 32C38.2091 32 40 33.7909 40 36C40 38.2091 38.2091 40 36 40H24C21.791 39.9998 20 38.209 20 36C20 34.1208 21.2961 32.5443 23.043 32.1152C23.0155 31.914 23 31.7087 23 31.5C23 29.0148 25.0149 27.0002 27.5 27Z" fill="oklch(0.3057 0.079 256.22 / 0.13)" class="wd-expressive-accent"></path>
</g>
<g>
<path d="M27.5 26C29.2349 26 30.7794 26.8048 31.7861 28.0566C32.019 28.0194 32.2575 28 32.5 28C34.4812 28 36.1604 29.28 36.7617 31.0576C39.1616 31.4244 41 33.4976 41 36C41 38.7614 38.7614 41 36 41H24C21.2386 41 19 38.7614 19 36C19 33.948 20.2352 32.186 22.002 31.415C22.0474 28.4167 24.4908 26 27.5 26ZM27.5 28C25.567 28 24 29.567 24 31.5C24 31.6593 24.0122 31.819 24.0342 31.9795L24.1553 32.8721L23.2812 33.0859C21.971 33.4077 21 34.5919 21 36C21 37.6569 22.3431 39 24 39H36C37.6569 39 39 37.6569 39 36C39 34.3431 37.6569 33 36 33C35.9754 33 35.9795 32.9999 35.9727 33L35.0977 33.0078L34.9736 32.1416C34.8004 30.9308 33.7583 30 32.5 30C32.2136 30 31.9403 30.0475 31.6865 30.1348L30.9199 30.3984L30.5039 29.7041C29.8905 28.6812 28.7743 28 27.5 28Z" fill="oklch(0.3523 0 0 / 1)" class="wd-expressive-fill"></path>
<path d="M19.8965 9C21.8543 9 23.6897 9.9556 24.8125 11.5596L26.2217 13.5732C26.4087 13.8405 26.7148 13.9999 27.041 14H45C46.6568 14 47.9999 15.3432 48 17V20H49C50.6567 20.0002 52 21.3433 52 23V40C52 42.203 51.2864 44.2424 50.0781 45.8955C49.5234 46.6543 48.6462 46.9999 47.8145 47H7C5.34315 47 4 45.6569 4 44V12C4.00006 10.3432 5.34318 9 7 9H19.8965ZM11 22C10.4479 22.0002 10 22.4478 10 23V40C10 41.8213 9.51044 43.5288 8.65918 45H47.8145C48.1197 44.9999 48.3462 44.875 48.4629 44.7158C49.3689 43.4763 49.927 41.9669 49.9932 40.3291L50 40V23C50 22.4478 49.5521 22.0002 49 22H11ZM7 11C6.44775 11 6.00006 11.4478 6 12V44C6 44.327 6.1577 44.6164 6.40039 44.7988C7.33357 43.5567 7.9136 42.0358 7.99121 40.3818L8 40V23C8 21.3432 9.34329 20.0002 11 20H46V17C45.9999 16.4478 45.5522 16 45 16H27.041C26.0623 15.9999 25.1453 15.5224 24.584 14.7207L23.1738 12.7061C22.4253 11.637 21.2017 11 19.8965 11H7Z" fill="oklch(0.3523 0 0 / 1)" class="wd-expressive-fill"></path>
</g>
</svg>