<svg role="presentation" width="56" height="56" viewBox="0 0 56 56" xmlns="http://www.w3.org/2000/svg" class="wd-expressive wd-expressive-scale">
<g>
<path d="M28 44C32.2888 44 36.2272 45.5 39.3193 48.0039C39.7614 48.3619 40 48.9087 40 49.4775V49.5C40 49.7761 39.7761 50 39.5 50H16.5L16.3994 49.9902C16.1714 49.9437 16 49.7417 16 49.5V49.4775C16 48.9087 16.2386 48.3619 16.6807 48.0039C19.7728 45.5 23.7112 44 28 44Z" fill="oklch(0.3057 0.079 256.22 / 0.13)" class="wd-expressive-accent"></path>
<path d="M19 31C19 34.866 15.866 38 12 38C8.13401 38 5 34.866 5 31H19Z" fill="oklch(0.3057 0.079 256.22 / 0.13)" class="wd-expressive-accent"></path>
<path d="M51 31C51 34.866 47.866 38 44 38C40.134 38 37 34.866 37 31H51Z" fill="oklch(0.3057 0.079 256.22 / 0.13)" class="wd-expressive-accent"></path>
<path d="M25.7686 7C25.2923 7.53103 25 8.23053 25 9C25 9.76947 25.2923 10.469 25.7686 11H10.5C10.2239 11 10 10.7761 10 10.5V9C10 7.89543 10.8954 7 12 7H25.7686Z" fill="oklch(0.3057 0.079 256.22 / 0.13)" class="wd-expressive-accent"></path>
<path d="M44 7C45.1046 7 46 7.89543 46 9V10.5C46 10.7761 45.7761 11 45.5 11H30.2314C30.7077 10.469 31 9.76947 31 9C31 8.23053 30.7077 7.53103 30.2314 7H44Z" fill="oklch(0.3057 0.079 256.22 / 0.13)" class="wd-expressive-accent"></path>
</g>
<path d="M28 5C29.0141 5 29.9395 5.37802 30.6445 6H44L44.1543 6.00391C45.7394 6.08428 47 7.39494 47 9V10.5L46.9922 10.6533C46.9205 11.3592 46.3593 11.9205 45.6533 11.9922L45.5 12H45.3438L50.7441 30H51C51.5523 30 52 30.4477 52 31C52 35.4183 48.4183 39 44 39C39.5817 39 36 35.4183 36 31C36 30.4477 36.4477 30 37 30H37.2559L42.6562 12H31V43.2354C34.3562 43.768 37.4206 45.1799 39.9482 47.2266C40.6452 47.7909 41 48.6342 41 49.4775V49.5C41 50.3284 40.3284 51 39.5 51H16.5C15.6716 51 15 50.3284 15 49.5V49.4775C15 48.6342 15.3548 47.7909 16.0518 47.2266C18.5794 45.1799 21.6438 43.768 25 43.2354V12H13.3438L18.7441 30H19C19.5523 30 20 30.4477 20 31C20 35.4183 16.4183 39 12 39C7.58172 39 4 35.4183 4 31C4 30.4477 4.44772 30 5 30H5.25586L10.6562 12H10.5C9.72342 11.9999 9.08463 11.4096 9.00781 10.6533L9 10.5V9C9 7.34318 10.3432 6.00008 12 6H25.3555C26.0605 5.37802 26.9859 5 28 5ZM28 45C23.9486 45 20.2302 46.4163 17.3096 48.7812C17.2369 48.8402 17.1748 48.9145 17.125 49H38.875C38.8252 48.9145 38.7631 48.8402 38.6904 48.7812C35.7698 46.4163 32.0514 45 28 45ZM29 12.874C28.6804 12.9563 28.3453 13 28 13C27.6547 13 27.3196 12.9563 27 12.874V43H29V12.874ZM6.08496 32C6.56117 34.8376 9.02712 37 12 37C14.9729 37 17.4388 34.8376 17.915 32H6.08496ZM38.085 32C38.5612 34.8376 41.0271 37 44 37C46.9729 37 49.4388 34.8376 49.915 32H38.085ZM7.34375 30H16.6562L12 14.4805L7.34375 30ZM39.3438 30H48.6562L44 14.4805L39.3438 30ZM28 7C26.8954 7 26 7.89543 26 9C26 10.1046 26.8954 11 28 11C29.1046 11 30 10.1046 30 9C30 7.89543 29.1046 7 28 7ZM12 8C11.4478 8.00008 11 8.44777 11 9V10H24.126C24.0437 9.68038 24 9.3453 24 9C24 8.6547 24.0437 8.31962 24.126 8H12ZM31.874 8C31.9563 8.31962 32 8.6547 32 9C32 9.3453 31.9563 9.68038 31.874 10H45V9C45 8.48237 44.6066 8.05628 44.1025 8.00488L44 8H31.874Z" fill="oklch(0.3523 0 0 / 1)" class="wd-expressive-fill"></path>
</svg>