<svg role="presentation" width="56" height="56" viewBox="0 0 56 56" xmlns="http://www.w3.org/2000/svg" class="wd-expressive wd-expressive-easel-user">
<g>
<path d="M51.9995 42H42.8794L45.5962 48.6211C45.8658 49.279 45.3815 50 44.6704 50H42.5093C42.1037 49.9999 41.7384 49.7551 41.5845 49.3799L38.5571 42H17.4438L14.4165 49.3799C14.2626 49.755 13.8972 49.9998 13.4917 50H11.3286C10.6178 49.9997 10.1342 49.2789 10.4038 48.6211L13.1206 42H3.99951V39H51.9995V42Z" fill="oklch(0.3057 0.079 256.22 / 0.13)" class="wd-expressive-accent"></path>
<path d="M17.0005 28C19.6895 28.0001 22.143 29.0113 24.0005 30.6738V32H11.9995V29.2666C13.4864 28.4596 15.1898 28 17.0005 28Z" fill="oklch(0.3057 0.079 256.22 / 0.13)" class="wd-expressive-accent"></path>
<path d="M17.0005 19C18.6571 19.0003 20.0005 20.3433 20.0005 22C20.0005 22.3028 19.9531 22.5945 19.8696 22.8701C19.5942 22.9535 19.3022 23 18.9995 23C17.3428 22.9999 15.9995 21.6568 15.9995 20C15.9995 19.697 16.0449 19.4046 16.1284 19.1289C16.4043 19.0453 16.6973 19 17.0005 19Z" fill="oklch(0.3057 0.079 256.22 / 0.13)" class="wd-expressive-accent"></path>
<path d="M36.9995 22H31.9995V17H36.9995V22Z" fill="oklch(0.3057 0.079 256.22 / 0.13)" class="wd-expressive-accent"></path>
<path d="M40.9995 9H14.9995V6H40.9995V9Z" fill="oklch(0.3057 0.079 256.22 / 0.13)" class="wd-expressive-accent"></path>
</g>
<g>
<path d="M19 25C21.9447 25 24.6331 26.1083 26.667 27.9287C26.8788 28.1184 27 28.3895 27 28.6738V32C27 32.5523 26.5523 33 26 33H12C11.4477 33 11 32.5523 11 32V28.6738C11 28.3895 11.1212 28.1184 11.333 27.9287C13.3669 26.1083 16.0553 25 19 25ZM19 27C16.7238 27 14.6363 27.7992 13 29.1338V31H25V29.1338C23.3637 27.7992 21.2762 27 19 27Z" fill="oklch(0.3523 0 0 / 1)" class="wd-expressive-fill"></path>
<path d="M37.5 29C37.7761 29 38 29.2239 38 29.5V30.5C38 30.7761 37.7761 31 37.5 31H31.5C31.2239 31 31 30.7761 31 30.5V29.5C31 29.2239 31.2239 29 31.5 29H37.5Z" fill="oklch(0.3523 0 0 / 1)" class="wd-expressive-fill"></path>
<path d="M45.5 25C45.7761 25 46 25.2239 46 25.5V26.5C46 26.7761 45.7761 27 45.5 27H31.5C31.2239 27 31 26.7761 31 26.5V25.5C31 25.2239 31.2239 25 31.5 25H45.5Z" fill="oklch(0.3523 0 0 / 1)" class="wd-expressive-fill"></path>
<path d="M19 16C21.2091 16 23 17.7909 23 20C23 22.2091 21.2091 24 19 24C16.7909 24 15 22.2091 15 20C15 17.7909 16.7909 16 19 16ZM19 18C17.8954 18 17 18.8954 17 20C17 21.1046 17.8954 22 19 22C20.1046 22 21 21.1046 21 20C21 18.8954 20.1046 18 19 18Z" fill="oklch(0.3523 0 0 / 1)" class="wd-expressive-fill"></path>
<path d="M37 16C37.5523 16 38 16.4477 38 17V22C38 22.5523 37.5523 23 37 23H32C31.4477 23 31 22.5523 31 22V17C31 16.4477 31.4477 16 32 16H37ZM33 21H36V18H33V21Z" fill="oklch(0.3523 0 0 / 1)" class="wd-expressive-fill"></path>
<path d="M45.5 21C45.7761 21 46 21.2239 46 21.5V22.5C46 22.7761 45.7761 23 45.5 23H40.5C40.2239 23 40 22.7761 40 22.5V21.5C40 21.2239 40.2239 21 40.5 21H45.5Z" fill="oklch(0.3523 0 0 / 1)" class="wd-expressive-fill"></path>
<path d="M45.5 17C45.7761 17 46 17.2239 46 17.5V18.5C46 18.7761 45.7761 19 45.5 19H40.5C40.2239 19 40 18.7761 40 18.5V17.5C40 17.2239 40.2239 17 40.5 17H45.5Z" fill="oklch(0.3523 0 0 / 1)" class="wd-expressive-fill"></path>
<path d="M41 5C41.5522 5 41.9998 5.4479 42 6V7H50.5C51.3283 7 51.9998 7.67175 52 8.5V38L52.1025 38.0049C52.6065 38.0562 52.9998 38.4825 53 39V42C52.9998 42.5521 52.5522 43 52 43H44.3711L46.5215 48.2412C47.0611 49.557 46.0939 50.9996 44.6719 51H42.5098C41.6987 50.9997 40.968 50.5092 40.6602 49.7588L37.8867 43H18.1152L15.3428 49.7588C15.0348 50.5093 14.3034 50.9998 13.4922 51H11.3301C9.90798 50.9997 8.93997 49.557 9.47949 48.2412L11.6299 43H4C3.44785 43 3.00021 42.5521 3 42V39C3.0002 38.4825 3.39348 38.0562 3.89746 38.0049L4 38V8.5C4.00021 7.67175 4.67171 7 5.5 7H14V6C14.0002 5.4479 14.4478 5 15 5H41ZM11.3301 49H13.4922L15.9541 43H13.792L11.3301 49ZM42.5098 49H44.6719L42.21 43H40.0479L42.5098 49ZM5 41H51V40H5V41ZM6 38H50V9H42L41.9951 9.10156C41.944 9.60597 41.5179 10 41 10H15C14.4821 10 14.0559 9.60597 14.0049 9.10156L14 9H6V38ZM16 8H40V7H16V8Z" fill="oklch(0.3523 0 0 / 1)" class="wd-expressive-fill"></path>
</g>
</svg>