<svg role="presentation" width="56" height="56" viewBox="0 0 56 56" xmlns="http://www.w3.org/2000/svg" class="wd-expressive wd-expressive-recorder">
<g>
<path d="M19.2979 3.29883C19.1057 3.82994 19 4.40257 19 5V45C19 47.7614 21.2386 50 24 50H38C38.5975 50 39.17 49.8934 39.7012 49.7012C39.005 51.6248 37.1639 53 35 53H21C18.2386 53 16 50.7614 16 48V8C16 5.83645 17.3747 3.99528 19.2979 3.29883Z" fill="oklch(0.3057 0.079 256.22 / 0.13)" class="wd-expressive-accent"></path>
<path d="M23.5 24C24.8807 24 26 25.1193 26 26.5C26 27.8807 24.8807 29 23.5 29C22.1193 29 21 27.8807 21 26.5C21 25.1193 22.1193 24 23.5 24Z" fill="oklch(0.3057 0.079 256.22 / 0.13)" class="wd-expressive-accent"></path>
<path d="M32.5 24C33.8807 24 35 25.1193 35 26.5C35 27.8807 33.8807 29 32.5 29C31.1193 29 30 27.8807 30 26.5C30 25.1193 31.1193 24 32.5 24Z" fill="oklch(0.3057 0.079 256.22 / 0.13)" class="wd-expressive-accent"></path>
<path d="M34.5 12C34.7761 12 35 12.2239 35 12.5V19.5C35 19.7761 34.7761 20 34.5 20H21.5C21.2239 20 21 19.7761 21 19.5V12.5C21 12.2239 21.2239 12 21.5 12H34.5Z" fill="oklch(0.3057 0.079 256.22 / 0.13)" class="wd-expressive-accent"></path>
</g>
<g>
<path d="M27.4395 42.1465C27.6347 41.9513 27.9512 41.9513 28.1465 42.1465L28.8535 42.8535C29.0488 43.0488 29.0488 43.3653 28.8535 43.5605L23.5605 48.8535C23.3653 49.0487 23.0488 49.0487 22.8535 48.8535L22.1465 48.1465C21.9513 47.9512 21.9513 47.6347 22.1465 47.4395L27.4395 42.1465Z" fill="oklch(0.3523 0 0 / 1)" class="wd-expressive-fill"></path>
<path d="M32.4395 42.1465C32.6347 41.9513 32.9512 41.9513 33.1465 42.1465L33.8535 42.8535C34.0488 43.0488 34.0488 43.3653 33.8535 43.5605L28.5605 48.8535C28.3653 49.0487 28.0488 49.0487 27.8535 48.8535L27.1465 48.1465C26.9513 47.9512 26.9513 47.6347 27.1465 47.4395L32.4395 42.1465Z" fill="oklch(0.3523 0 0 / 1)" class="wd-expressive-fill"></path>
<path d="M34.4395 45.1465C34.6347 44.9513 34.9512 44.9513 35.1465 45.1465L35.8535 45.8535C36.0488 46.0488 36.0488 46.3653 35.8535 46.5605L33.5605 48.8535C33.3653 49.0487 33.0488 49.0487 32.8535 48.8535L32.1465 48.1465C31.9513 47.9512 31.9513 47.6347 32.1465 47.4395L34.4395 45.1465Z" fill="oklch(0.3523 0 0 / 1)" class="wd-expressive-fill"></path>
<path d="M22.4395 42.1465C22.6347 41.9513 22.9512 41.9513 23.1465 42.1465L23.8535 42.8535C24.0488 43.0488 24.0488 43.3653 23.8535 43.5605L21.5605 45.8535C21.3653 46.0487 21.0488 46.0487 20.8535 45.8535L20.1465 45.1465C19.9513 44.9512 19.9513 44.6347 20.1465 44.4395L22.4395 42.1465Z" fill="oklch(0.3523 0 0 / 1)" class="wd-expressive-fill"></path>
<path d="M23.5 23C25.433 23 27 24.567 27 26.5C27 28.433 25.433 30 23.5 30C21.567 30 20 28.433 20 26.5C20 24.567 21.567 23 23.5 23ZM23.5 25C22.6716 25 22 25.6716 22 26.5C22 27.3284 22.6716 28 23.5 28C24.3284 28 25 27.3284 25 26.5C25 25.6716 24.3284 25 23.5 25Z" fill="oklch(0.3523 0 0 / 1)" class="wd-expressive-fill"></path>
<path d="M32.5 23C34.433 23 36 24.567 36 26.5C36 28.433 34.433 30 32.5 30C30.567 30 29 28.433 29 26.5C29 24.567 30.567 23 32.5 23ZM32.5 25C31.6716 25 31 25.6716 31 26.5C31 27.3284 31.6716 28 32.5 28C33.3284 28 34 27.3284 34 26.5C34 25.6716 33.3284 25 32.5 25Z" fill="oklch(0.3523 0 0 / 1)" class="wd-expressive-fill"></path>
<path d="M34.5 11C35.3284 11 36 11.6716 36 12.5V19.5C36 20.3284 35.3284 21 34.5 21H21.5C20.6716 21 20 20.3284 20 19.5V12.5C20 11.6716 20.6716 11 21.5 11H34.5ZM22 19H34V13H22V19Z" fill="oklch(0.3523 0 0 / 1)" class="wd-expressive-fill"></path>
<path d="M35 2C38.3137 2 41 4.68629 41 8V48C41 51.3137 38.3137 54 35 54H21C17.7898 54 15.1684 51.4789 15.0078 48.3086L15 48V8C15 4.68629 17.6863 2 21 2H35ZM23 7.5C23 7.77614 22.7761 8 22.5 8H21.5C21.2239 8 21 7.77614 21 7.5V4C18.7909 4 17 5.79086 17 8V48L17.0049 48.2061C17.1121 50.3194 18.86 52 21 52H35C37.2091 52 39 50.2091 39 48V8C39 5.79086 37.2091 4 35 4V7.5C35 7.77614 34.7761 8 34.5 8H33.5C33.2239 8 33 7.77614 33 7.5V4H31V7.5C31 7.77614 30.7761 8 30.5 8H29.5C29.2239 8 29 7.77614 29 7.5V4H27V7.5C27 7.77614 26.7761 8 26.5 8H25.5C25.2239 8 25 7.77614 25 7.5V4H23V7.5Z" fill="oklch(0.3523 0 0 / 1)" class="wd-expressive-fill"></path>
</g>
</svg>