<svg role="presentation" width="56" height="56" viewBox="0 0 56 56" xmlns="http://www.w3.org/2000/svg" class="wd-expressive wd-expressive-card-chart-clock">
<g>
<path d="M34.999 35C33.7437 36.6713 33 38.7488 33 41C33 46.5228 37.4772 51 43 51C45.2514 51 47.3286 50.2555 49 49C47.1756 51.4287 44.2715 53 41 53C35.4772 53 31 48.5228 31 43C31 39.7288 32.5707 36.8245 34.999 35Z" fill="oklch(0.3057 0.079 256.22 / 0.13)" class="wd-expressive-accent"></path>
<path d="M8 39C8 40.1046 8.89543 41 10 41H28V44H5V12H8V39Z" fill="oklch(0.3057 0.079 256.22 / 0.13)" class="wd-expressive-accent"></path>
<path d="M18.502 20.0156C18.7776 19.9984 19.002 20.2239 19.002 20.5L19 27.7109C19 27.8896 19.0953 28.0552 19.25 28.1445L25.4951 31.75C25.7342 31.888 25.8176 32.1948 25.665 32.4248C24.9831 33.4519 24.0716 34.3101 23 34.9287C21.7839 35.6308 20.4042 36 19 36C17.5956 35.9999 16.2152 35.63 14.999 34.9277C13.783 34.2255 12.7733 33.2152 12.0713 31.999C11.3693 30.7828 10.9998 29.4033 11 27.999C11.0002 26.5947 11.3699 25.2151 12.0723 23.999C12.7746 22.783 13.7848 21.7732 15.001 21.0713C16.0727 20.4528 17.2715 20.0924 18.502 20.0156Z" fill="oklch(0.3057 0.079 256.22 / 0.13)" class="wd-expressive-accent"></path>
</g>
<g>
<path d="M41.5 36C41.7761 36 42 36.2239 42 36.5V42H45.5C45.7761 42 46 42.2239 46 42.5V43.5C46 43.7761 45.7761 44 45.5 44H41C40.4477 44 40 43.5523 40 43V36.5C40 36.2239 40.2239 36 40.5 36H41.5Z" fill="oklch(0.3523 0 0 / 1)" class="wd-expressive-fill"></path>
<path d="M41 32C47.0751 32 52 36.9249 52 43C52 49.0751 47.0751 54 41 54C34.9249 54 30 49.0751 30 43C30 36.9249 34.9249 32 41 32ZM41 34C36.0294 34 32 38.0294 32 43C32 47.9706 36.0294 52 41 52C45.9706 52 50 47.9706 50 43C50 38.0294 45.9706 34 41 34Z" fill="oklch(0.3523 0 0 / 1)" class="wd-expressive-fill"></path>
<path d="M49 11C50.6569 11 52 12.3431 52 14V31.5C52 31.7761 51.7761 32 51.5 32H50.5C50.2239 32 50 31.7761 50 31.5V14C50 13.4477 49.5523 13 49 13H7C6.44772 13 6 13.4477 6 14V42C6 42.5523 6.44772 43 7 43H27.5C27.7761 43 28 43.2239 28 43.5V44.5C28 44.7761 27.7761 45 27.5 45H7C5.34315 45 4 43.6569 4 42V14C4 12.3431 5.34315 11 7 11H49Z" fill="oklch(0.3523 0 0 / 1)" class="wd-expressive-fill"></path>
<path d="M19.7793 17.0273L20.1016 17.0557C21.706 17.2172 23.2596 17.7298 24.6494 18.5615C26.2891 19.543 27.6448 20.9348 28.583 22.5996C29.5213 24.2648 30.01 26.1463 30 28.0576C29.991 29.7853 29.5747 31.4836 28.7891 33.0166C28.3872 33.8006 27.4328 34.0232 26.7275 33.6162L26.2451 33.3379C25.5111 34.3341 24.5778 35.1716 23.5 35.7939C22.1319 36.5838 20.5797 37 19 37C17.4201 36.9999 15.8672 36.584 14.499 35.7939C13.131 35.0039 11.9948 33.8673 11.2051 32.499C10.4154 31.1308 9.99983 29.5788 10 27.999C10.0002 26.4193 10.416 24.8671 11.2061 23.499C11.9961 22.131 13.1328 20.9948 14.501 20.2051C15.6332 19.5517 16.892 19.1575 18.1875 19.04L18.1992 18.4814L18.21 18.3301C18.2962 17.6321 18.871 17.0512 19.6172 17.0244L19.7793 17.0273ZM18.001 21.0742C17.1234 21.2008 16.2742 21.4913 15.501 21.9375C14.4368 22.5517 13.553 23.435 12.9385 24.499C12.3239 25.5631 12.0002 26.7702 12 27.999C11.9998 29.2278 12.3233 30.4348 12.9375 31.499C13.5518 32.5633 14.4359 33.447 15.5 34.0615C16.5641 34.6759 17.7713 34.9999 19 35C20.2287 35 21.4359 34.6768 22.5 34.0625C23.2732 33.6161 23.9475 33.0247 24.4961 32.3281L18.75 29.0107C18.2858 28.7427 17.9999 28.2469 18 27.7109L18.001 21.0742ZM20.0117 27.4277L27.2451 31.6055C27.7346 30.4861 27.9936 29.2756 28 28.0469C28.0081 26.4832 27.6084 24.9444 26.8408 23.582C26.0731 22.2196 24.9639 21.0804 23.6221 20.2773C22.5678 19.6464 21.3985 19.2393 20.1875 19.0781L20.0117 27.4277Z" fill="oklch(0.3523 0 0 / 1)" class="wd-expressive-fill"></path>
<path d="M45.5 26C45.7761 26 46 26.2239 46 26.5V27.5C46 27.7761 45.7761 28 45.5 28H33.5C33.2239 28 33 27.7761 33 27.5V26.5C33 26.2239 33.2239 26 33.5 26H45.5Z" fill="oklch(0.3523 0 0 / 1)" class="wd-expressive-fill"></path>
<path d="M45.5 21C45.7761 21 46 21.2239 46 21.5V22.5C46 22.7761 45.7761 23 45.5 23H33.5C33.2239 23 33 22.7761 33 22.5V21.5C33 21.2239 33.2239 21 33.5 21H45.5Z" fill="oklch(0.3523 0 0 / 1)" class="wd-expressive-fill"></path>
</g>
</svg>