<svg role="presentation" width="56" height="56" viewBox="0 0 56 56" xmlns="http://www.w3.org/2000/svg" class="wd-expressive wd-expressive-exclamation-circle">
<path d="M28 4C41.2548 4 52 14.7452 52 28C52 41.2548 41.2548 52 28 52C14.7452 52 4 41.2548 4 28C4 14.7452 14.7452 4 28 4ZM28 9C17.5066 9 9 17.5066 9 28C9 38.4934 17.5066 47 28 47C38.4934 47 47 38.4934 47 28C47 17.5066 38.4934 9 28 9Z" fill="oklch(0.3057 0.079 256.22 / 0.13)" class="wd-expressive-accent"></path>
<g>
<path d="M28 37C29.1046 37 30 37.8954 30 39C30 40.1046 29.1046 41 28 41C26.8954 41 26 40.1046 26 39C26 37.8954 26.8954 37 28 37Z" fill="oklch(0.3523 0 0 / 1)" class="wd-expressive-fill"></path>
<path d="M28.5996 15.0049C28.8304 15.0281 29.0476 15.1313 29.2119 15.2979C29.3997 15.4885 29.5039 15.747 29.5 16.0146L29.25 33.0146C29.242 33.561 28.7964 33.9998 28.25 34H27.75C27.2036 33.9998 26.758 33.561 26.75 33.0146L26.5 16.0146C26.4961 15.747 26.6003 15.4885 26.7881 15.2979C26.9759 15.1075 27.2326 15.0001 27.5 15H28.5L28.5996 15.0049Z" fill="oklch(0.3523 0 0 / 1)" class="wd-expressive-fill"></path>
<path d="M28 3C41.8071 3 53 14.1929 53 28C53 41.8071 41.8071 53 28 53C14.1929 53 3 41.8071 3 28C3 14.1929 14.1929 3 28 3ZM28 5C15.2975 5 5 15.2975 5 28C5 40.7025 15.2975 51 28 51C40.7025 51 51 40.7025 51 28C51 15.2975 40.7025 5 28 5Z" fill="oklch(0.3523 0 0 / 1)" class="wd-expressive-fill"></path>
</g>
</svg>