<svg role="presentation" width="56" height="56" viewBox="0 0 56 56" xmlns="http://www.w3.org/2000/svg" class="wd-expressive wd-expressive-user-flag">
<g>
<path d="M8 38.0052V43.0003C8.00004 44.0359 8.78725 44.8873 9.7959 44.9896L10 45.0003H37V46.0003C37 47.1049 36.1045 48.0003 35 48.0003H7L6.7959 47.9896C5.78725 47.8873 5.00004 47.0359 5 46.0003V41.0052C5.00008 40.4365 5.2393 39.8911 5.67676 39.5277C6.41778 38.9123 7.19646 38.3406 8.00879 37.8167C8.00294 37.8791 8.00001 37.9421 8 38.0052Z" fill="oklch(0.3057 0.079 256.22 / 0.13)" class="wd-expressive-accent"></path>
<path d="M16.3711 17.7513C16.1316 18.4573 16 19.2134 16 20.0003C16 23.8663 19.134 27.0003 23 27.0003C24.7749 27.0003 26.3941 26.338 27.6279 25.2493C26.6909 28.0116 24.0789 30.0003 21 30.0003C17.134 30.0003 14 26.8663 14 23.0003C14 20.9095 14.9177 19.034 16.3711 17.7513Z" fill="oklch(0.3057 0.079 256.22 / 0.13)" class="wd-expressive-accent"></path>
<path d="M36.2256 9.27279C37.4111 8.97169 38.6792 8.91184 39.9619 9.13802C42.2078 9.53427 44.1084 10.7396 45.415 12.4017C46.7218 14.0639 48.6221 15.2702 50.8682 15.6663C51.3321 15.7481 51.7943 15.7917 52.251 15.8001C52.5721 15.8061 52.8251 16.0913 52.7695 16.4076L50.8857 27.0921C50.8453 27.3215 50.6518 27.4936 50.4189 27.4954C49.8877 27.4992 49.3484 27.4562 48.8066 27.3607C46.5604 26.9646 44.6594 25.7593 43.3525 24.097C42.0458 22.4347 40.1456 21.2285 37.8994 20.8324C36.7889 20.6365 35.6899 20.6558 34.6455 20.8597C34.2819 20.9307 33.9396 20.622 34.0039 20.2572L35.8721 9.66048C35.9052 9.4732 36.0413 9.3197 36.2256 9.27279Z" fill="oklch(0.3057 0.079 256.22 / 0.13)" class="wd-expressive-accent"></path>
</g>
<g>
<path d="M21 32.9999C27.0673 32.9999 32.6323 35.1623 36.9619 38.7577C37.6434 39.3236 37.9999 40.1589 38 41.0047V45.9999C38 47.6567 36.6569 48.9999 35 48.9999H7C5.39489 48.9999 4.08421 47.7393 4.00391 46.1542L4 45.9999V41.0047C4.00008 40.1588 4.35656 39.3236 5.03809 38.7577C9.36774 35.1623 14.9327 32.9999 21 32.9999ZM21 34.9999C15.4164 34.9999 10.2994 36.9884 6.31543 40.2967C6.12199 40.4576 6.00008 40.7132 6 41.0047V45.9999L6.00488 46.1024C6.05621 46.6065 6.48232 46.9999 7 46.9999H35C35.5523 46.9999 36 46.5521 36 45.9999V41.0047C35.9999 40.7132 35.878 40.4576 35.6846 40.2967C31.7006 36.9884 26.5836 34.9999 21 34.9999Z" fill="oklch(0.3523 0 0 / 1)" class="wd-expressive-fill"></path>
<path d="M36.0928 5.5272L37.0781 5.70103C37.3498 5.74919 37.5313 6.00833 37.4834 6.28013L37.165 8.07993C38.1301 7.95765 39.1288 7.97486 40.1348 8.1522L40.5986 8.24497C42.8944 8.7621 44.8389 10.0502 46.2012 11.7831C47.3618 13.2593 49.0474 14.3288 51.042 14.6805L51.3506 14.7293C51.6584 14.7711 51.9655 14.7931 52.2695 14.7987L52.4346 14.8114C53.2489 14.9162 53.9139 15.6733 53.7539 16.5809L51.8701 27.2645C51.7506 27.9423 51.1681 28.4906 50.4258 28.496C49.9832 28.4991 49.5353 28.472 49.085 28.4139L48.6328 28.3446C46.135 27.9041 44.0194 26.562 42.5664 24.7137C41.4785 23.33 39.9294 22.3033 38.0967 21.8905L37.7256 21.8163C36.7377 21.6421 35.7624 21.659 34.8369 21.8397C34.8039 21.8461 34.7704 21.8482 34.7373 21.8524L33.0049 31.6805C32.9569 31.9525 32.6968 32.1347 32.4248 32.0868L31.4404 31.9129C31.1685 31.865 30.9873 31.6057 31.0352 31.3338L35.5137 5.93247C35.5616 5.66059 35.8209 5.47932 36.0928 5.5272ZM39.3604 10.0585C38.4833 9.95184 37.6204 9.99397 36.7979 10.1659L35.1035 19.7733C36.0686 19.6512 37.0677 19.6692 38.0732 19.8465L38.5371 19.9393C40.8328 20.4565 42.7765 21.7455 44.1387 23.4784C45.2993 24.9546 46.9858 26.0231 48.9805 26.3749L49.3408 26.4295C49.5537 26.457 49.7663 26.4742 49.9775 26.4842L51.6895 16.7723C51.4877 16.7575 51.285 16.7383 51.082 16.7108L50.6953 16.6502C48.1976 16.2098 46.0819 14.8676 44.6289 13.0194C43.4685 11.5432 41.7827 10.4738 39.7881 10.1219L39.3604 10.0585Z" fill="oklch(0.3523 0 0 / 1)" class="wd-expressive-fill"></path>
<path d="M21 14.9999C25.4183 14.9999 29 18.5816 29 22.9999C29 27.4181 25.4183 30.9999 21 30.9999C16.5817 30.9999 13 27.4181 13 22.9999C13 18.5816 16.5817 14.9999 21 14.9999ZM21 16.9999C17.6863 16.9999 15 19.6861 15 22.9999C15 26.3136 17.6863 28.9999 21 28.9999C24.3137 28.9999 27 26.3136 27 22.9999C27 19.6861 24.3137 16.9999 21 16.9999Z" fill="oklch(0.3523 0 0 / 1)" class="wd-expressive-fill"></path>
</g>
</svg>