<svg role="presentation" width="56" height="56" viewBox="0 0 56 56" xmlns="http://www.w3.org/2000/svg" class="wd-expressive wd-expressive-globe">
<path d="M10.2471 11.8496C8.80599 14.9326 8 18.3721 8 22C8 35.2548 18.7452 46 32 46C39.0349 46 45.3622 42.9727 49.752 38.1504C45.9279 46.3312 37.6268 52 28 52C14.7452 52 4 41.2548 4 28C4 21.7803 6.36606 16.1132 10.2471 11.8496Z" fill="oklch(0.3057 0.079 256.22 / 0.13)" class="wd-expressive-accent"></path>
<path d="M29 3.02051C42.3435 3.54543 53 14.5278 53 28C53 41.4722 42.3435 52.4536 29 52.9785V53H27V52.9785C13.6565 52.4536 3 41.4722 3 28C3 14.5278 13.6565 3.54543 27 3.02051V3H29V3.02051ZM19.3174 42C19.6518 42.8954 20.0169 43.7388 20.4092 44.5234C22.2688 48.2426 24.6088 50.4222 27 50.8994V42H19.3174ZM29 42V50.8994C31.3912 50.4222 33.7312 48.2426 35.5908 44.5234C35.9831 43.7388 36.3482 42.8954 36.6826 42H29ZM9.75195 42C12.7706 45.9288 17.0288 48.8543 21.9424 50.1924C20.6724 48.9227 19.5546 47.2869 18.6201 45.418C18.0933 44.3644 17.616 43.2203 17.1924 42H9.75195ZM38.8076 42C38.384 43.2203 37.9067 44.3644 37.3799 45.418C36.4453 47.2872 35.3268 48.9226 34.0566 50.1924C38.9706 48.8544 43.2292 45.929 46.248 42H38.8076ZM5.02246 28.9902C5.19292 33.0141 6.39661 36.77 8.37598 40H16.5664C15.6416 36.7044 15.0889 32.9614 15.0098 28.9922L5.02246 28.9902ZM17.0107 28.9922C17.0944 33.0247 17.6858 36.7757 18.6484 40H27V28.9941L17.0107 28.9922ZM29 40H37.3516C38.3138 36.777 38.9042 33.0277 38.9883 28.9971L29 28.9951V40ZM40.9883 28.9971C40.9088 32.9645 40.358 36.7058 39.4336 40H47.624C49.6019 36.7723 50.8047 33.0196 50.9766 28.999L40.9883 28.9971ZM39.4336 16C40.3576 19.2926 40.9084 23.0319 40.9883 26.9971L50.9766 26.999C50.8044 22.9792 49.6016 19.2271 47.624 16H39.4336ZM29 26.9951L38.9883 26.9971C38.9038 22.9687 38.3133 19.2215 37.3516 16H29V26.9951ZM18.6484 16C17.6871 19.2202 17.0956 22.9657 17.0107 26.9922L27 26.9941V16H18.6484ZM8.37598 16C6.39981 19.2248 5.19696 22.9737 5.02344 26.9902L15.0107 26.9922C15.091 23.0288 15.6428 19.2912 16.5664 16H8.37598ZM21.9424 5.80664C17.0287 7.14466 12.7707 10.0712 9.75195 14H17.1924C17.616 12.7797 18.0933 11.6356 18.6201 10.582C19.5547 8.71284 20.6722 7.07643 21.9424 5.80664ZM27 5.09961C24.6087 5.57673 22.2689 7.75726 20.4092 11.4766C20.0169 12.2612 19.6518 13.1046 19.3174 14H27V5.09961ZM29 14H36.6826C36.3482 13.1046 35.9831 12.2612 35.5908 11.4766C33.7311 7.75726 31.3913 5.57673 29 5.09961V14ZM34.0566 5.80664C35.327 7.0765 36.4452 8.7126 37.3799 10.582C37.9067 11.6356 38.384 12.7797 38.8076 14H46.248C43.2291 10.0709 38.9707 7.14455 34.0566 5.80664Z" fill="oklch(0.3523 0 0 / 1)" class="wd-expressive-fill"></path>
</svg>