<svg role="presentation" width="56" height="56" viewBox="0 0 56 56" xmlns="http://www.w3.org/2000/svg" class="wd-expressive wd-expressive-document-list">
<path d="M14 49.5C14 49.7761 14.2239 50 14.5 50H45V52.5C45 52.7761 44.7761 53 44.5 53H11.5C11.2239 53 11 52.7761 11 52.5V3.5C11 3.22386 11.2239 3 11.5 3H14V49.5Z" fill="oklch(0.3057 0.079 256.22 / 0.13)" class="wd-expressive-accent"></path>
<g>
<path d="M23.9395 29.6465C24.1347 29.4513 24.4513 29.4513 24.6465 29.6465L25.3535 30.3535C25.5486 30.5488 25.5486 30.8653 25.3535 31.0605L20.707 35.707C20.3166 36.0975 19.6835 36.0973 19.293 35.707L17.1465 33.5605C16.9513 33.3653 16.9513 33.0488 17.1465 32.8535L17.8535 32.1465C18.0488 31.9513 18.3653 31.9513 18.5605 32.1465L20 33.5859L23.9395 29.6465Z" fill="oklch(0.3523 0 0 / 1)" class="wd-expressive-fill"></path>
<path d="M38.499 32C38.775 32 38.9988 32.224 38.999 32.5V33.5C38.999 33.7761 38.7752 34 38.499 34H27.499C27.223 33.9998 26.999 33.776 26.999 33.5V32.5C26.9992 32.2241 27.2232 32.0002 27.499 32H38.499Z" fill="oklch(0.3523 0 0 / 1)" class="wd-expressive-fill"></path>
<path d="M23.9395 19.6465C24.1347 19.4513 24.4513 19.4513 24.6465 19.6465L25.3535 20.3535C25.5486 20.5488 25.5486 20.8653 25.3535 21.0605L20.707 25.707C20.3166 26.0975 19.6835 26.0973 19.293 25.707L17.1465 23.5605C16.9513 23.3653 16.9513 23.0488 17.1465 22.8535L17.8535 22.1465C18.0488 21.9513 18.3653 21.9513 18.5605 22.1465L20 23.5859L23.9395 19.6465Z" fill="oklch(0.3523 0 0 / 1)" class="wd-expressive-fill"></path>
<path d="M38.499 22C38.775 22 38.9988 22.224 38.999 22.5V23.5C38.999 23.7761 38.7752 24 38.499 24H27.499C27.223 23.9998 26.999 23.776 26.999 23.5V22.5C26.9992 22.2241 27.2232 22.0002 27.499 22H38.499Z" fill="oklch(0.3523 0 0 / 1)" class="wd-expressive-fill"></path>
<path d="M23.9395 9.64648C24.1347 9.45133 24.4513 9.45129 24.6465 9.64648L25.3535 10.3535C25.5486 10.5488 25.5486 10.8653 25.3535 11.0605L20.707 15.707C20.3166 16.0975 19.6835 16.0973 19.293 15.707L17.1465 13.5605C16.9513 13.3653 16.9513 13.0488 17.1465 12.8535L17.8535 12.1465C18.0488 11.9513 18.3653 11.9513 18.5605 12.1465L20 13.5859L23.9395 9.64648Z" fill="oklch(0.3523 0 0 / 1)" class="wd-expressive-fill"></path>
<path d="M38.499 12C38.775 12 38.9988 12.224 38.999 12.5V13.5C38.999 13.7761 38.7752 14 38.499 14H27.499C27.223 13.9998 26.999 13.776 26.999 13.5V12.5C26.9992 12.2241 27.2232 12.0002 27.499 12H38.499Z" fill="oklch(0.3523 0 0 / 1)" class="wd-expressive-fill"></path>
<path d="M43 2C44.6567 2.00018 46 3.34326 46 5V51C45.9999 52.6566 44.6566 53.9998 43 54H13C11.3432 54 10.0001 52.6567 10 51V5C10 3.34315 11.3431 2 13 2H43ZM13 4C12.4477 4 12 4.44772 12 5V51C12.0001 51.5522 12.4478 52 13 52H43C43.552 51.9998 43.9999 51.5521 44 51V5C44 4.44783 43.5521 4.00018 43 4H13Z" fill="oklch(0.3523 0 0 / 1)" class="wd-expressive-fill"></path>
</g>
</svg>