<svg role="presentation" width="56" height="56" viewBox="0 0 56 56" xmlns="http://www.w3.org/2000/svg" class="wd-expressive wd-expressive-document-list-coin">
<g>
<path d="M14 49.5C14 49.7761 14.2239 50 14.5 50H31V52.5C31 52.7761 30.7761 53 30.5 53H11.5C11.2239 53 11 52.7761 11 52.5V3.5C11 3.22386 11.2239 3 11.5 3H14V49.5Z" fill="oklch(0.3057 0.079 256.22 / 0.13)" class="wd-expressive-accent"></path>
<path d="M50 41C50 42.6569 46.4183 44 42 44C40.6856 44 39.4456 43.8796 38.3516 43.6689C39.7873 44.4716 42.2291 45 45 45C49.4183 45 53 43.6569 53 42V46C53 46.9473 51.8287 47.791 50 48.3408V50C50 51.6569 46.4183 53 42 53C37.5817 53 34 51.6569 34 50V46C34 47.6569 37.5817 49 42 49C42.5127 49 43.0141 48.9809 43.5 48.9463C39.7987 48.683 37 47.4646 37 46V43.3408C35.1713 42.791 34 41.9473 34 41V37C34 38.6569 37.5817 40 42 40C46.4183 40 50 38.6569 50 37V41Z" fill="oklch(0.3057 0.079 256.22 / 0.13)" class="wd-expressive-accent"></path>
</g>
<g>
<path d="M43 2C44.6567 2.00018 46 3.34326 46 5V29.5C46 29.7761 45.7761 30 45.5 30H44.5C44.2239 30 44 29.7761 44 29.5V5C44 4.44783 43.5521 4.00018 43 4H13C12.4477 4 12 4.44772 12 5V51C12 51.5523 12.4477 52 13 52H19.4902C19.4935 51.9999 19.4967 51.999 19.5 51.999L30.5 52C30.7761 52 31 52.2239 31 52.5V53.5C31 53.7761 30.7761 54 30.5 54H13C11.3431 54 10 52.6569 10 51V5C10 3.34315 11.3431 2 13 2H43Z" fill="oklch(0.3523 0 0 / 1)" class="wd-expressive-fill"></path>
<path d="M42 33C44.2972 33 46.4215 33.3475 48.0078 33.9424C48.7973 34.2384 49.5062 34.615 50.0352 35.084C50.5628 35.5519 51 36.1972 51 37V38.9395C51.0026 38.9404 51.0052 38.9414 51.0078 38.9424C51.7973 39.2384 52.5062 39.615 53.0352 40.084C53.5628 40.5519 54 41.1972 54 42V46C54 46.8028 53.5628 47.4481 53.0352 47.916C52.5062 48.385 51.7973 48.7616 51.0078 49.0576C51.0053 49.0586 51.0025 49.0586 51 49.0596V50C51 50.8028 50.5628 51.4481 50.0352 51.916C49.5062 52.385 48.7973 52.7616 48.0078 53.0576C46.4215 53.6525 44.2972 54 42 54C39.7028 54 37.5785 53.6525 35.9922 53.0576C35.2027 52.7616 34.4938 52.385 33.9648 51.916C33.4372 51.4481 33 50.8028 33 50V46C33 45.1972 33.4372 44.5519 33.9648 44.084C34.2061 43.8701 34.4853 43.6766 34.792 43.5C34.4853 43.3234 34.2061 43.1299 33.9648 42.916C33.4372 42.4481 33 41.8028 33 41V37C33 36.1972 33.4372 35.5519 33.9648 35.084C34.4938 34.615 35.2027 34.2384 35.9922 33.9424C37.5785 33.3475 39.7028 33 42 33ZM35 50C35 50.0255 35.0101 50.17 35.292 50.4199C35.5727 50.6687 36.0363 50.9378 36.6943 51.1846C37.7935 51.5968 39.2922 51.8887 41 51.9727V49.9766C39.0903 49.8913 37.3454 49.5651 35.9922 49.0576C35.6425 48.9265 35.3094 48.778 35 48.6143V50ZM43 49.9766V51.9727C43.707 51.9379 44.3782 51.869 45 51.7686V50C44.4881 50 43.9848 49.9816 43.4941 49.9482C43.3308 49.9593 43.166 49.9692 43 49.9766ZM49 49.6201C48.3712 49.7477 47.7004 49.8449 47 49.9092V51.291C47.1048 51.256 47.2071 51.2215 47.3057 51.1846C47.9637 50.9378 48.4273 50.6687 48.708 50.4199C48.9899 50.17 49 50.0255 49 50V49.6201ZM48 45.791C47.059 45.9261 46.0476 46 45 46V48C46.0774 48 47.0913 47.9153 48 47.7686V45.791ZM38 46C38 46.0255 38.0101 46.17 38.292 46.4199C38.5727 46.6687 39.0363 46.9378 39.6943 47.1846C40.5732 47.5141 41.7077 47.7647 43 47.8965V45.9092C41.4833 45.7699 40.1053 45.475 38.9922 45.0576C38.6493 44.929 38.3229 44.783 38.0186 44.623C38.0124 44.6218 38.0061 44.6214 38 44.6201V46ZM52 44.6143C51.6906 44.778 51.3575 44.9265 51.0078 45.0576C50.6923 45.1759 50.3552 45.2829 50 45.3809V47.291C50.1048 47.256 50.2071 47.2215 50.3057 47.1846C50.9637 46.9378 51.4273 46.6687 51.708 46.4199C51.9899 46.17 52 46.0255 52 46V44.6143ZM36 45.1182C35.6961 45.2733 35.4609 45.4303 35.292 45.5801C35.0101 45.83 35 45.9745 35 46C35 46.0255 35.0101 46.17 35.292 46.4199C35.5029 46.6069 35.817 46.8053 36.2393 46.9971C36.0906 46.6986 36 46.3656 36 46V45.1182ZM50.9961 41.1162C50.9563 41.8652 50.5371 42.4709 50.0352 42.916C49.7769 43.145 49.4751 43.3508 49.1426 43.5371C49.5664 43.4328 49.9564 43.3155 50.3057 43.1846C50.9637 42.9378 51.4273 42.6687 51.708 42.4199C51.9899 42.17 52 42.0255 52 42C52 41.9745 51.9899 41.83 51.708 41.5801C51.5384 41.4297 51.3019 41.272 50.9961 41.1162ZM45 40.791C44.059 40.9261 43.0476 41 42 41C41.3147 41 40.6448 40.9684 40 40.9092V42.8965C40.6327 42.961 41.3029 43 42 43C43.0774 43 44.0913 42.9153 45 42.7686V40.791ZM35 41C35 41.0255 35.0101 41.17 35.292 41.4199C35.5727 41.6687 36.0363 41.9378 36.6943 42.1846C37.0823 42.3301 37.5209 42.4572 38 42.5693V40.6201C37.2671 40.4714 36.5913 40.2823 35.9922 40.0576C35.6425 39.9265 35.3094 39.778 35 39.6143V41ZM49 39.6143C48.6906 39.778 48.3575 39.9265 48.0078 40.0576C47.6923 40.1759 47.3552 40.2829 47 40.3809V42.291C47.1048 42.256 47.2071 42.2215 47.3057 42.1846C47.9637 41.9378 48.4273 41.6687 48.708 41.4199C48.9899 41.17 49 41.0255 49 41V39.6143ZM42 35C39.879 35 38.0035 35.3245 36.6943 35.8154C36.0363 36.0622 35.5727 36.3313 35.292 36.5801C35.0101 36.83 35 36.9745 35 37C35 37.0255 35.0101 37.17 35.292 37.4199C35.5727 37.6687 36.0363 37.9378 36.6943 38.1846C38.0035 38.6755 39.879 39 42 39C44.121 39 45.9965 38.6755 47.3057 38.1846C47.9637 37.9378 48.4273 37.6687 48.708 37.4199C48.9899 37.17 49 37.0255 49 37C49 36.9745 48.9899 36.83 48.708 36.5801C48.4273 36.3313 47.9637 36.0622 47.3057 35.8154C45.9965 35.3245 44.121 35 42 35Z" fill="oklch(0.3523 0 0 / 1)" class="wd-expressive-fill"></path>
<path d="M23.9395 29.6465C24.1347 29.4513 24.4512 29.4513 24.6465 29.6465L25.3535 30.3535C25.5487 30.5488 25.5487 30.8653 25.3535 31.0605L20.707 35.707C20.3166 36.0975 19.6835 36.0973 19.293 35.707L17.1465 33.5605C16.9513 33.3653 16.9513 33.0488 17.1465 32.8535L17.8535 32.1465C18.0488 31.9513 18.3653 31.9513 18.5605 32.1465L20 33.5859L23.9395 29.6465Z" fill="oklch(0.3523 0 0 / 1)" class="wd-expressive-fill"></path>
<path d="M31.499 31.9951C31.7752 31.9951 31.999 32.219 31.999 32.4951V33.4941C31.999 33.7703 31.7752 33.9951 31.499 33.9951H27.499C27.2232 33.995 26.9993 33.7709 26.999 33.4951V32.4951C26.999 32.2191 27.223 31.9953 27.499 31.9951H31.499Z" fill="oklch(0.3523 0 0 / 1)" class="wd-expressive-fill"></path>
<path d="M23.9395 19.6465C24.1347 19.4513 24.4512 19.4513 24.6465 19.6465L25.3535 20.3535C25.5487 20.5488 25.5487 20.8653 25.3535 21.0605L20.707 25.707C20.3166 26.0975 19.6835 26.0973 19.293 25.707L17.1465 23.5605C16.9513 23.3653 16.9513 23.0488 17.1465 22.8535L17.8535 22.1465C18.0488 21.9513 18.3653 21.9513 18.5605 22.1465L20 23.5859L23.9395 19.6465Z" fill="oklch(0.3523 0 0 / 1)" class="wd-expressive-fill"></path>
<path d="M38.499 22.001C38.7752 22.001 38.999 22.2248 38.999 22.501V23.501C38.9988 23.7769 38.775 24.001 38.499 24.001H27.499C27.2232 24.0008 26.9993 23.7768 26.999 23.501V22.501C26.999 22.2249 27.223 22.0011 27.499 22.001H38.499Z" fill="oklch(0.3523 0 0 / 1)" class="wd-expressive-fill"></path>
<path d="M23.9395 9.64648C24.1347 9.45132 24.4512 9.45129 24.6465 9.64648L25.3535 10.3535C25.5487 10.5488 25.5487 10.8653 25.3535 11.0605L20.707 15.707C20.3166 16.0975 19.6835 16.0973 19.293 15.707L17.1465 13.5605C16.9513 13.3653 16.9513 13.0488 17.1465 12.8535L17.8535 12.1465C18.0488 11.9513 18.3653 11.9513 18.5605 12.1465L20 13.5859L23.9395 9.64648Z" fill="oklch(0.3523 0 0 / 1)" class="wd-expressive-fill"></path>
<path d="M38.499 12.001C38.7752 12.001 38.999 12.2248 38.999 12.501V13.501C38.9988 13.7769 38.775 14.001 38.499 14.001H27.499C27.2232 14.0008 26.9993 13.7768 26.999 13.501V12.501C26.999 12.2249 27.223 12.0011 27.499 12.001H38.499Z" fill="oklch(0.3523 0 0 / 1)" class="wd-expressive-fill"></path>
</g>
</svg>