<svg role="presentation" width="56" height="56" viewBox="0 0 56 56" xmlns="http://www.w3.org/2000/svg" class="wd-expressive wd-expressive-puzzle-piece">
<g>
<path d="M15.0656 32.2363C16.4612 33.6328 15.7126 35.6978 14.3039 36.3516C12.93 36.9888 11.9836 38.3779 11.9836 39.9834C11.9838 42.192 13.7746 43.9832 15.9836 43.9834C17.5887 43.9832 18.9774 43.0372 19.6144 41.6631L19.6798 41.5332C20.3732 40.2516 22.25 39.5913 23.5968 40.7764L23.7306 40.9004L27.9992 45.1699L32.3625 40.8057C33.0895 41.6901 34.0648 42.3631 35.1818 42.7178C35.4183 42.793 35.5719 43.0096 35.5939 43.2334L29.7677 49.0596C28.7916 50.0356 27.2089 50.0353 26.2326 49.0596L22.1945 45.0225C22.1539 45.0724 22.1093 45.119 22.0675 45.168L20.5968 43.6973C20.3098 43.4102 19.8058 43.5663 19.674 43.9502C18.9684 46.0051 17.1785 47.5548 14.9875 47.918C11.4132 47.4737 8.57065 44.675 8.06461 41.1201C8.39398 38.8801 9.96092 37.0428 12.049 36.3252C12.4325 36.1933 12.5883 35.6894 12.3019 35.4023L10.7961 33.8955C10.8451 33.8537 10.8935 33.8111 10.9435 33.7705L5.84879 28.6758C5.59643 27.9704 5.75073 27.1519 6.31559 26.5869L7.86539 25.0361L15.0656 32.2363Z" fill="oklch(0.3057 0.079 256.22 / 0.13)" class="wd-expressive-accent"></path>
<path d="M41.8488 8.15137C45.1623 8.15149 47.8486 10.8379 47.8488 14.1514C47.8485 16.7088 46.2481 18.8919 43.9943 19.7549C43.6244 19.8966 43.4837 20.3859 43.7638 20.666L49.6847 26.5859C50.2496 27.151 50.4031 27.9701 50.1506 28.6758L44.8752 33.9531C44.1588 34.6695 43.2813 34.8196 42.5041 34.6162C41.8478 33.1019 40.5869 31.9111 39.0246 31.3506C38.6393 31.1638 38.2152 31.0447 37.7677 31.0107L37.5002 31.001C37.4295 31.001 37.3588 31.0027 37.2892 31.0068C37.1935 31.0023 37.097 30.999 37.0002 30.999C33.6868 30.999 31.0007 33.6858 31.0002 36.999C31.0002 37.549 31.0754 38.082 31.214 38.5879C30.4477 37.4131 30.0003 36.0103 30.0002 34.501C30.0004 30.3592 33.3582 27.0011 37.5002 27.001L37.7892 27.0068C40.0418 27.0924 42.0367 28.1721 43.3537 29.8154L47.9279 25.2412L42.7297 20.043C41.3645 18.6777 42.0442 16.6244 43.4621 15.9502C44.9477 15.2439 45.8496 13.8801 45.8498 12.4199C45.8496 10.4233 44.1028 8.54186 41.5949 8.42578L41.3498 8.41992C39.6445 8.41992 38.2157 9.25784 37.4572 10.416C37.2466 10.7376 36.9562 11.0041 36.6232 11.2031C37.6529 9.38159 39.607 8.1515 41.8488 8.15137Z" fill="oklch(0.3057 0.079 256.22 / 0.13)" class="wd-expressive-accent"></path>
<path d="M23.757 9.14453C26.2929 10.6153 28.0002 13.3574 28.0002 16.5L27.9894 16.9375C27.7613 21.4279 24.0475 24.9998 19.5002 25C19.3954 25 19.2905 24.9979 19.1867 24.9941C22.4137 24.8953 25 22.25 25.0002 18.999C24.9999 17.7062 24.5895 16.5095 23.8937 15.5303C23.5382 13.9116 22.3122 12.6198 20.7306 12.1709L23.757 9.14453Z" fill="oklch(0.3057 0.079 256.22 / 0.13)" class="wd-expressive-accent"></path>
<path d="M12.3507 20.5518C12.6425 20.2604 13.1574 20.4273 13.2824 20.8203C13.7968 22.4376 14.9788 23.756 16.5041 24.4551C14.6598 23.7598 13.1218 22.4416 12.1447 20.7568L12.3507 20.5518Z" fill="oklch(0.3057 0.079 256.22 / 0.13)" class="wd-expressive-accent"></path>
<path d="M28.4767 5.79102C28.8198 5.87501 29.1461 6.04841 29.4142 6.31641L34.5802 11.4814C34.2095 11.3699 33.8506 11.1638 33.5324 10.8457L28.4767 5.79102Z" fill="oklch(0.3057 0.079 256.22 / 0.13)" class="wd-expressive-accent"></path>
</g>
<path d="M25.8772 5.60903C27.0487 4.43765 28.9487 4.43758 30.1203 5.60903L35.5686 11.0573C36.7099 8.74498 39.091 7.15248 41.8469 7.152C45.7127 7.15226 48.8479 10.2862 48.8479 14.152C48.8474 16.9082 47.253 19.2874 44.9406 20.4284L50.3908 25.8786C51.5619 27.0501 51.5621 28.9513 50.3908 30.1227L44.3547 36.1569C43.9076 36.6036 43.3052 36.6733 42.8313 36.5309C42.3663 36.391 41.9349 36.0265 41.7629 35.485C41.121 33.4628 39.2294 31.9997 36.9983 31.9997C34.2376 32.0001 31.9995 34.2386 31.9992 36.9997C31.9996 39.2308 33.4622 41.1223 35.4836 41.7643C36.0252 41.9364 36.3896 42.3675 36.5295 42.8327C36.6719 43.3067 36.6025 43.9091 36.1555 44.3561L30.1203 50.3932C28.9488 51.5641 27.0476 51.5646 25.8762 50.3932L20.3723 44.8883C19.2733 47.3111 16.8361 49.0004 13.9992 49.0006C10.1337 49.0004 6.99982 45.8659 6.99923 42.0006C6.99923 39.1642 8.68608 36.7245 11.1086 35.6247L5.60665 30.1227C4.43544 28.9514 4.43617 27.052 5.60665 25.8805L11.6418 19.8454L11.7277 19.7653C12.1638 19.3901 12.7209 19.338 13.1652 19.4713C13.5722 19.5936 13.9532 19.8876 14.1574 20.3219L14.2336 20.5172L14.2971 20.7047C14.9942 22.6272 16.8373 23.9983 18.9983 23.9987C21.7594 23.9985 23.9988 21.7606 23.9992 18.9997C23.999 16.7691 22.5366 14.8775 20.5158 14.235C19.9744 14.0628 19.6097 13.6317 19.4699 13.1666C19.3276 12.6927 19.3964 12.0901 19.843 11.6432L25.8772 5.60903ZM28.7053 7.02407C28.3148 6.63373 27.6827 6.63366 27.2922 7.02407L21.7512 12.5641C24.2472 13.6327 25.9988 16.1092 25.9992 18.9987C25.9988 22.8641 22.8645 25.9992 18.9992 25.9997C16.11 25.9993 13.6315 24.2485 12.5627 21.7526L7.02169 27.2946C6.63159 27.6852 6.63146 28.3183 7.02169 28.7086L13.007 34.695C13.446 35.134 13.5219 35.7252 13.3869 36.1969C13.2543 36.6599 12.9007 37.0895 12.3723 37.2711C10.4082 37.9465 8.99923 39.8103 8.99923 42.0006C8.99982 44.7613 11.2377 46.9992 13.9983 46.9997C16.1884 46.9996 18.0519 45.5897 18.7268 43.6247L18.8059 43.4352C19.0159 43.0117 19.3949 42.7261 19.8 42.61C20.2718 42.475 20.863 42.551 21.302 42.9899L27.2912 48.9782C27.6815 49.3685 28.3157 49.3683 28.7063 48.9782L34.2473 43.4352C31.7506 42.3668 29.9995 39.8896 29.9992 36.9997C29.9999 33.1345 33.1337 29.9999 36.9992 29.9997L37.2902 30.0055C40.0553 30.1189 42.4019 31.8367 43.4338 34.2497L48.9758 28.7077C49.3662 28.3171 49.3662 27.6841 48.9758 27.2936L43.0559 21.3727C42.1801 20.4969 42.7034 19.1783 43.635 18.8209L43.9817 18.6735C45.6768 17.8727 46.8474 16.148 46.8479 14.152C46.8479 11.3907 44.6091 9.15226 41.8479 9.152C39.7185 9.15229 37.897 10.4834 37.177 12.3629C36.8197 13.2945 35.5011 13.8188 34.6252 12.943L28.7053 7.02407Z" fill="oklch(0.3523 0 0 / 1)" class="wd-expressive-fill"></path>
</svg>