<svg role="presentation" width="56" height="56" viewBox="0 0 56 56" xmlns="http://www.w3.org/2000/svg" class="wd-expressive wd-expressive-exclamation-triangle">
<path d="M26.2669 3.96677C27.0367 2.63346 28.962 2.63349 29.7318 3.96677L52.2669 43C53.0126 44.2916 52.1334 45.8959 50.6781 45.9951L50.5355 46H5.46323L5.32065 45.9951C3.86558 45.8958 2.98634 44.2915 3.73178 43L26.2669 3.96677ZM8.92807 42H47.0706L27.9994 8.96677L8.92807 42Z" fill="oklch(0.3057 0.079 256.22 / 0.13)" class="wd-expressive-accent"></path>
<g>
<path d="M28 35.0003C29.1046 35.0003 30 35.8957 30 37.0003C30 38.1049 29.1046 39.0003 28 39.0003C26.8955 39.0002 26 38.1048 26 37.0003C26 35.8958 26.8955 35.0004 28 35.0003Z" fill="oklch(0.3523 0 0 / 1)" class="wd-expressive-fill"></path>
<path d="M28.6006 19.0052C28.8323 19.0286 29.0505 19.1333 29.2149 19.3011C29.4025 19.493 29.5055 19.7525 29.5 20.0208L29.25 32.0208C29.2386 32.5647 28.7941 33.0002 28.25 33.0003H27.75C27.2061 33.0001 26.7615 32.5647 26.75 32.0208L26.5 20.0208C26.4945 19.7525 26.5976 19.493 26.7852 19.3011C26.9732 19.1091 27.2313 19.0004 27.5 19.0003H28.5L28.6006 19.0052Z" fill="oklch(0.3523 0 0 / 1)" class="wd-expressive-fill"></path>
<path d="M25.4024 3.46711C26.5571 1.46734 29.443 1.46734 30.5977 3.46711L53.1338 42.5003C54.2884 44.5002 52.8454 47.0001 50.5362 47.0003H5.46391C3.15484 47 1.71185 44.5001 2.86625 42.5003L25.4024 3.46711ZM28.8662 4.46711C28.4813 3.80044 27.5187 3.80044 27.1338 4.46711L4.5977 43.5003C4.2133 44.1668 4.69452 45 5.46391 45.0003H50.5362C51.3057 45.0001 51.787 44.1669 51.4024 43.5003L28.8662 4.46711Z" fill="oklch(0.3523 0 0 / 1)" class="wd-expressive-fill"></path>
</g>
</svg>