<svg role="presentation" width="56" height="56" viewBox="0 0 56 56" xmlns="http://www.w3.org/2000/svg" class="wd-expressive wd-expressive-mail-education">
<g>
<path d="M14 26.6992L9.96191 24.2197C13.0104 35.0559 22.9646 42.9999 34.7754 43H49V46.5C48.9998 46.776 48.776 47 48.5 47H7.5C7.22397 47 7.00018 46.776 7 46.5V22L14 16.666V26.6992Z" fill="oklch(0.3057 0.079 256.22 / 0.13)" class="wd-expressive-accent"></path>
<path d="M49 22V22.4004L42 26.7002V16.666L49 22Z" fill="oklch(0.3057 0.079 256.22 / 0.13)" class="wd-expressive-accent"></path>
<path d="M34 17.708C32.4077 19.1331 30.3051 20 28 20C25.6949 20 23.5923 19.1331 22 17.708V14H34V17.708Z" fill="oklch(0.3057 0.079 256.22 / 0.13)" class="wd-expressive-accent"></path>
</g>
<g>
<path d="M32.5 26.0005C32.7761 26.0005 33 26.2243 33 26.5005V27.5005C32.9999 27.7765 32.7761 28.0005 32.5 28.0005H23.5C23.2239 28.0005 23.0001 27.7765 23 27.5005V26.5005C23 26.2243 23.2239 26.0005 23.5 26.0005H32.5Z" fill="oklch(0.3523 0 0 / 1)" class="wd-expressive-fill"></path>
<path d="M37.5 23.0005C37.7761 23.0005 38 23.2243 38 23.5005V24.5005C37.9999 24.7765 37.7761 25.0005 37.5 25.0005H18.5C18.2239 25.0005 18.0001 24.7765 18 24.5005V23.5005C18 23.2243 18.2239 23.0005 18.5 23.0005H37.5Z" fill="oklch(0.3523 0 0 / 1)" class="wd-expressive-fill"></path>
<path d="M34.6914 9.00049C35.1884 9.00068 35.6485 9.24617 35.9258 9.64795L36.0322 9.82959L37.5322 12.8306C38.0301 13.8276 37.3059 15.0011 36.1914 15.0015H35V17.7075C35 17.9917 34.8786 18.263 34.667 18.4526C32.8985 20.0355 30.5605 20.9995 28 20.9995C25.4395 20.9995 23.1015 20.0355 21.333 18.4526C21.1214 18.263 21 17.9917 21 17.7075V15.0015H20V18.4995C19.9999 18.7755 19.776 18.9994 19.5 18.9995H18.5C18.224 18.9994 18.0001 18.7755 18 18.4995V14.0005C18.0001 13.8457 18.0363 13.6917 18.1055 13.5532L19.8818 9.99951C19.8831 9.99699 19.8844 9.99419 19.8857 9.9917L19.9678 9.82959L20.0742 9.64795C20.3515 9.24617 20.8116 9.00068 21.3086 9.00049H34.6914ZM23 17.0044C23.0001 17.1559 23.0685 17.2998 23.1895 17.3911C24.5286 18.401 26.1933 18.9995 28 18.9995C29.8067 18.9995 31.4714 18.401 32.8105 17.3911C32.9316 17.2998 32.9999 17.156 33 17.0044V15.0015H23V17.0044ZM20.6172 13.0015H35.3828L34.3828 11.0005H21.6172L20.6172 13.0015Z" fill="oklch(0.3523 0 0 / 1)" class="wd-expressive-fill"></path>
<path d="M40 5.00049C41.6569 5.00049 43 6.34363 43 8.00049V16.1724L49.4092 21.0552C49.7813 21.3389 50 21.7805 50 22.2485V46.5005C49.9998 47.3288 49.3283 48.0005 48.5 48.0005H7.5C6.67169 48.0005 6.00019 47.3288 6 46.5005V22.2485C6 21.7805 6.21865 21.3389 6.59082 21.0552L13 16.1724V8.00049C13 6.34363 14.3431 5.00049 16 5.00049H40ZM8.41406 46.0005H47.5859L33.5859 32.0005H22.4141L8.41406 46.0005ZM8 43.5864L20.0156 31.5698L8 24.189V43.5864ZM35.9834 31.5698L48 43.5864V24.189L35.9834 31.5698ZM16 7.00049C15.4477 7.00049 15 7.4482 15 8.00049V26.1401L21.2832 30.0005H34.7168L41 26.1401V8.00049C41 7.4482 40.5523 7.00049 40 7.00049H16ZM8.47461 22.1323L13 24.9116V18.6851L8.47461 22.1323ZM43 24.9116L47.5244 22.1323L43 18.6851V24.9116Z" fill="oklch(0.3523 0 0 / 1)" class="wd-expressive-fill"></path>
</g>
</svg>