<svg role="presentation" width="56" height="56" viewBox="0 0 56 56" xmlns="http://www.w3.org/2000/svg" class="wd-expressive wd-expressive-document-stack-user">
<g>
<path d="M16.667 44.6758C16.6672 44.9517 16.891 45.1758 17.167 45.1758H40V49C40 50.1046 39.1046 51 38 51H12C10.8954 51 10 50.1046 10 49V12C10 10.8954 10.8954 10 12 10H16.667V44.6758Z" fill="oklch(0.3057 0.079 256.22 / 0.13)" class="wd-expressive-accent"></path>
<path d="M27.5 18C29.2288 18 30.8058 18.7226 32 19.9102V22H23V19.9102C24.1941 18.7226 25.7713 18.0001 27.5 18Z" fill="oklch(0.3057 0.079 256.22 / 0.13)" class="wd-expressive-accent"></path>
<path d="M27.5 12C28.8807 12 30 13.1193 30 14.5C30 15.8807 28.8807 17 27.5 17C26.1194 16.9999 25 15.8806 25 14.5C25 13.1194 26.1194 12.0001 27.5 12Z" fill="oklch(0.3057 0.079 256.22 / 0.13)" class="wd-expressive-accent"></path>
</g>
<g>
<path d="M13.501 10.001C13.7769 10.0012 14.001 10.225 14.001 10.501V11.501C14.001 11.777 13.7769 12.0008 13.501 12.001H12.001C11.4487 12.001 11.001 12.4487 11.001 13.001V49C11.001 49.5523 11.4487 50 12.001 50H37.999L38 48.499C38.0001 48.223 38.2239 47.999 38.5 47.999H39.5C39.7761 47.9991 40 48.2229 40 48.499L39.999 49.999L40 50C40 51.1044 39.1044 51.9998 38 52H12.001C10.3441 52 9.00098 50.6569 9.00098 49V13.001C9.00098 11.3441 10.3441 10.001 12.001 10.001H13.501Z" fill="oklch(0.3523 0 0 / 1)" class="wd-expressive-fill"></path>
<path d="M24.5 36C24.7761 36 25 36.2239 25 36.5V37.5C25 37.7761 24.7761 38 24.5 38H22.5C22.224 37.9999 22 37.7761 22 37.5V36.5C22 36.2239 22.224 36.0001 22.5 36H24.5Z" fill="oklch(0.3523 0 0 / 1)" class="wd-expressive-fill"></path>
<path d="M33.5 36C33.7761 36 34 36.2239 34 36.5V37.5C34 37.7761 33.7761 38 33.5 38H27.5C27.224 37.9999 27 37.7761 27 37.5V36.5C27 36.2239 27.224 36.0001 27.5 36H33.5Z" fill="oklch(0.3523 0 0 / 1)" class="wd-expressive-fill"></path>
<path d="M24.5 31C24.7761 31 25 31.2239 25 31.5V32.5C25 32.7761 24.7761 33 24.5 33H22.5C22.224 32.9999 22 32.7761 22 32.5V31.5C22 31.2239 22.224 31.0001 22.5 31H24.5Z" fill="oklch(0.3523 0 0 / 1)" class="wd-expressive-fill"></path>
<path d="M40.5 31C40.7761 31 41 31.2239 41 31.5V32.5C41 32.7761 40.7761 33 40.5 33H27.5C27.224 32.9999 27 32.7761 27 32.5V31.5C27 31.2239 27.224 31.0001 27.5 31H40.5Z" fill="oklch(0.3523 0 0 / 1)" class="wd-expressive-fill"></path>
<path d="M24.5 26C24.7761 26 25 26.2239 25 26.5V27.5C25 27.7761 24.7761 28 24.5 28H22.5C22.224 27.9999 22 27.7761 22 27.5V26.5C22 26.2239 22.224 26.0001 22.5 26H24.5Z" fill="oklch(0.3523 0 0 / 1)" class="wd-expressive-fill"></path>
<path d="M40.5 26C40.7761 26 41 26.2239 41 26.5V27.5C41 27.7761 40.7761 28 40.5 28H27.5C27.224 27.9999 27 27.7761 27 27.5V26.5C27 26.2239 27.224 26.0001 27.5 26H40.5Z" fill="oklch(0.3523 0 0 / 1)" class="wd-expressive-fill"></path>
<path d="M27.5 10C29.433 10 31 11.567 31 13.5C31 14.6525 30.4425 15.6738 29.583 16.3115C30.7661 16.6725 31.8305 17.3306 32.7051 18.2002C32.8938 18.3879 33 18.644 33 18.9102V21C33 21.5523 32.5523 22 32 22H23C22.4478 21.9999 22 21.5522 22 21V18.9102C22 18.644 22.1063 18.3879 22.2949 18.2002C23.1692 17.3309 24.2334 16.6726 25.416 16.3115C24.5571 15.6737 24 14.652 24 13.5C24 11.5671 25.5671 10.0001 27.5 10ZM27.5 18C26.1942 18.0001 24.9794 18.4937 24 19.3457V20H31V19.3457C30.0205 18.4938 28.8058 18 27.5 18ZM27.5 12C26.6717 12.0001 26 12.6717 26 13.5C26 14.3283 26.6717 14.9999 27.5 15C28.3284 15 29 14.3284 29 13.5C29 12.6716 28.3284 12 27.5 12Z" fill="oklch(0.3523 0 0 / 1)" class="wd-expressive-fill"></path>
<path d="M40.5 20C40.7761 20 41 20.2239 41 20.5V21.5C41 21.7761 40.7761 22 40.5 22H35.5C35.224 21.9999 35 21.7761 35 21.5V20.5C35 20.2239 35.224 20.0001 35.5 20H40.5Z" fill="oklch(0.3523 0 0 / 1)" class="wd-expressive-fill"></path>
<path d="M40.5 16C40.7761 16 41 16.2239 41 16.5V17.5C41 17.7761 40.7761 18 40.5 18H35.5C35.224 17.9999 35 17.7761 35 17.5V16.5C35 16.2239 35.224 16.0001 35.5 16H40.5Z" fill="oklch(0.3523 0 0 / 1)" class="wd-expressive-fill"></path>
<path d="M43.999 4C45.6559 4 46.999 5.34315 46.999 7V42.999C46.999 44.6559 45.6559 45.999 43.999 45.999H19C17.3949 45.9989 16.0841 44.7385 16.0039 43.1533L16 42.999V7C16 5.34325 17.3433 4.00016 19 4H43.999ZM19 6C18.4479 6.00016 18 6.44782 18 7V42.999L18.0049 43.1016C18.0561 43.6057 18.4824 43.9989 19 43.999H43.999C44.5513 43.999 44.999 43.5513 44.999 42.999V7C44.999 6.44772 44.5513 6 43.999 6H19Z" fill="oklch(0.3523 0 0 / 1)" class="wd-expressive-fill"></path>
</g>
</svg>