<svg role="presentation" width="56" height="56" viewBox="0 0 56 56" xmlns="http://www.w3.org/2000/svg" class="wd-expressive wd-expressive-document">
<path d="M14 49.5C14 49.7761 14.2239 50 14.5 50H45V52.5C45 52.7761 44.7761 53 44.5 53H11.5C11.2239 53 11 52.7761 11 52.5V3.5C11 3.22386 11.2239 3 11.5 3H14V49.5Z" fill="oklch(0.3057 0.079 256.22 / 0.13)" class="wd-expressive-accent"></path>
<g>
<path d="M33.499 39C33.775 39 33.9988 39.224 33.999 39.5V40.5C33.999 40.7761 33.7752 41 33.499 41H17.499C17.223 40.9998 16.999 40.776 16.999 40.5V39.5C16.9992 39.2241 17.2231 39.0002 17.499 39H33.499Z" fill="oklch(0.3523 0 0 / 1)" class="wd-expressive-fill"></path>
<path d="M38.499 34C38.775 34 38.9988 34.224 38.999 34.5V35.5C38.999 35.7761 38.7752 36 38.499 36H17.499C17.223 35.9998 16.999 35.776 16.999 35.5V34.5C16.9992 34.2241 17.2231 34.0002 17.499 34H38.499Z" fill="oklch(0.3523 0 0 / 1)" class="wd-expressive-fill"></path>
<path d="M38.499 29C38.775 29 38.9988 29.224 38.999 29.5V30.5C38.999 30.7761 38.7752 31 38.499 31H17.499C17.223 30.9998 16.999 30.776 16.999 30.5V29.5C16.9992 29.2241 17.2231 29.0002 17.499 29H38.499Z" fill="oklch(0.3523 0 0 / 1)" class="wd-expressive-fill"></path>
<path d="M38.499 24C38.775 24 38.9988 24.224 38.999 24.5V25.5C38.999 25.7761 38.7752 26 38.499 26H17.499C17.223 25.9998 16.999 25.776 16.999 25.5V24.5C16.9992 24.2241 17.2231 24.0002 17.499 24H38.499Z" fill="oklch(0.3523 0 0 / 1)" class="wd-expressive-fill"></path>
<path d="M36.499 15C36.775 15 36.9988 15.224 36.999 15.5V16.5C36.999 16.7761 36.7752 17 36.499 17H17.499C17.223 16.9998 16.999 16.776 16.999 16.5V15.5C16.9992 15.2241 17.2231 15.0002 17.499 15H36.499Z" fill="oklch(0.3523 0 0 / 1)" class="wd-expressive-fill"></path>
<path d="M30.499 11C30.775 11 30.9988 11.224 30.999 11.5V12.5C30.999 12.7761 30.7752 13 30.499 13H17.499C17.223 12.9998 16.999 12.776 16.999 12.5V11.5C16.9992 11.2241 17.2231 11.0002 17.499 11H30.499Z" fill="oklch(0.3523 0 0 / 1)" class="wd-expressive-fill"></path>
<path d="M37.793 2C38.1906 2.00011 38.5723 2.15824 38.8535 2.43945L45.5605 9.14648C45.8417 9.42774 46 9.80937 46 10.207V51C45.9999 52.6566 44.6566 53.9998 43 54H13C11.3432 54 10.0001 52.6567 10 51V5C10 3.34315 11.3431 2 13 2H37.793ZM13 4C12.4477 4 12 4.44772 12 5V51C12.0001 51.5522 12.4478 52 13 52H43C43.552 51.9998 43.9999 51.5521 44 51V12H38.999C37.3426 11.9997 35.9993 10.6564 35.999 9V4H13ZM37.999 9C37.9993 9.55186 38.4472 9.99967 38.999 10H43.5859L37.999 4.41309V9Z" fill="oklch(0.3523 0 0 / 1)" class="wd-expressive-fill"></path>
</g>
</svg>