<svg role="presentation" width="56" height="56" viewBox="0 0 56 56" xmlns="http://www.w3.org/2000/svg" class="wd-expressive wd-expressive-comment-education">
<g>
<path d="M10.9131 9.11914C10.338 9.9335 10 10.9272 10 12V34C10 36.4189 11.7178 38.4361 14 38.8994V44C15.7601 43.9025 17.4923 43.1816 18.8369 41.8369C19.6637 41.0101 20.2531 40.0363 20.6084 39H47C47.3731 39 47.7362 38.9574 48.0859 38.8799C47.1807 40.1619 45.6887 41 44 41H20.3906C19.8785 42.4269 19.0532 43.767 17.9102 44.9102C15.9893 46.8311 13.5145 47.8607 11 48V40.8994C8.71782 40.4361 7 38.4189 7 36V14C7 11.6119 8.67436 9.61547 10.9131 9.11914Z" fill="oklch(0.3057 0.079 256.22 / 0.13)" class="wd-expressive-accent"></path>
<path d="M41.2822 30C41.5087 30 41.7072 30.1523 41.7656 30.3711L42.832 34.3711C42.9166 34.6884 42.6779 34.9997 42.3496 35H39.6504C39.3221 34.9997 39.0834 34.6884 39.168 34.3711L40.2344 30.3711C40.2928 30.1523 40.4913 30 40.7178 30H41.2822Z" fill="oklch(0.3057 0.079 256.22 / 0.13)" class="wd-expressive-accent"></path>
<path d="M36.5 25C36.7761 25 37 25.2239 37 25.5V25.6514C37 26.3724 36.6162 27.0475 35.9619 27.3506C33.7206 28.3889 30.971 29 28 29C25.029 29 22.2794 28.3889 20.0381 27.3506C19.3838 27.0475 19 26.3724 19 25.6514V25.5C19 25.2239 19.2239 25 19.5 25H36.5Z" fill="oklch(0.3057 0.079 256.22 / 0.13)" class="wd-expressive-accent"></path>
</g>
<g>
<path d="M38.4639 17.0049C38.9921 17.0452 39.4613 17.3625 39.6953 17.8379L39.7412 17.9414L42.1523 23.9414C42.3504 24.4351 42.2671 24.951 42.001 25.3428V29.1826C42.3528 29.3748 42.6227 29.7059 42.7314 30.1133L43.7988 34.1133C44.0527 35.0654 43.3349 35.9997 42.3496 36H39.6504C38.6651 35.9997 37.9473 35.0654 38.2012 34.1133L39.2686 30.1133L39.3057 29.9932C39.4321 29.6404 39.6835 29.3554 40.001 29.1826V26.001H38.001V30.668C38.0009 31.5074 37.6487 32.3622 36.9316 32.9238C34.4703 34.8505 31.368 35.9998 28.001 36C24.6338 36 21.5318 34.8504 19.0703 32.9238C18.3528 32.3622 18.001 31.5076 18.001 30.668V26.001H15.2393C14.1778 26.0004 13.4525 24.9265 13.8477 23.9414L16.2588 17.9414L16.3047 17.8379C16.5555 17.3285 17.0761 17.0002 17.6504 17H38.3496L38.4639 17.0049ZM20.001 30.668C20.001 30.9658 20.1245 31.209 20.3027 31.3486C22.4249 33.0097 25.0963 34 28.001 34C30.9056 33.9998 33.5772 33.0098 35.6992 31.3486C35.8771 31.209 36.0009 30.9655 36.001 30.668V26.001H20.001V30.668ZM40.3018 34H41.6982L41 31.3789L40.3018 34ZM15.9795 24.001H40.0205L39.6123 22.9863C39.5761 22.9947 39.5387 23 39.5 23H28.5C28.2239 23 28 22.7761 28 22.5V21.5C28 21.2239 28.2239 21 28.5 21H38.8145L38.0117 19.001H17.9883L15.9795 24.001Z" fill="oklch(0.3523 0 0 / 1)" class="wd-expressive-fill"></path>
<path d="M44.3086 8.00781C47.4789 8.16843 50 10.7898 50 14V37C50 40.3137 47.3137 43 44 43H21.0703C20.5057 44.3137 19.6891 45.5452 18.6172 46.6172C16.5156 48.7188 13.806 49.8456 11.0557 49.998C10.7813 50.0132 10.5121 49.9154 10.3125 49.7266C10.1129 49.5377 10 49.2748 10 49V42.6562C7.75092 41.861 6.11651 39.7655 6.00586 37.2705L6 37V14C6 10.6863 8.68629 8 12 8H44L44.3086 8.00781ZM12 10C9.79086 10 8 11.7909 8 14V37L8.00391 37.1807C8.08634 39.0337 9.43088 40.5599 11.1992 40.9189C11.6652 41.0136 12 41.4239 12 41.8994V47.8818C13.9055 47.5639 15.7329 46.6734 17.2031 45.2031C18.2389 44.1673 18.9855 42.9541 19.4492 41.6621C19.5918 41.2649 19.9686 41 20.3906 41H44L44.2061 40.9951C46.3194 40.8879 48 39.14 48 37V14C48 11.86 46.3194 10.1121 44.2061 10.0049L44 10H12Z" fill="oklch(0.3523 0 0 / 1)" class="wd-expressive-fill"></path>
</g>
</svg>