<svg role="presentation" width="56" height="56" viewBox="0 0 56 56" xmlns="http://www.w3.org/2000/svg" class="wd-expressive wd-expressive-user-search">
<g>
<path d="M9.79004 34.7965C9.87792 34.7343 9.99996 34.8079 10 34.9156V44.0006C10.0002 45.036 10.7874 45.8876 11.7959 45.9898L12 46.0006H34.3965C34.6192 46.0006 34.7307 46.2698 34.5732 46.4273L33.8789 47.1217C33.4288 47.5718 33.1377 48.1511 33.0391 48.7721C33.0185 48.9005 32.9114 49.0005 32.7812 49.0006H9L8.7959 48.9898C7.78737 48.8876 7.00022 48.036 7 47.0006V37.9156C7.00002 37.3468 7.24054 36.8024 7.6748 36.4351C8.35542 35.8597 9.06167 35.3133 9.79004 34.7965Z" fill="oklch(0.3057 0.079 256.22 / 0.13)" class="wd-expressive-accent"></path>
<path d="M42.1514 35.1539C41.4239 36.2578 41 37.5797 41 39.0006C41.0001 42.8664 44.1342 46.0004 48 46.0006C49.4215 46.0005 50.7435 45.5753 51.8477 44.8473C50.5958 46.7463 48.4447 48.0005 46 48.0006C42.1342 48.0004 39.0001 44.8664 39 41.0006C39 38.5566 40.2533 36.4059 42.1514 35.1539Z" fill="oklch(0.3057 0.079 256.22 / 0.13)" class="wd-expressive-accent"></path>
<path d="M21.6562 6.27303C21.864 6.10236 22.1398 6.35597 22.0215 6.59725C21.3681 7.9257 21 9.42019 21 11.0006C21.0002 16.5232 25.4773 21.0006 31 21.0006C32.5804 21.0006 34.0741 20.6318 35.4023 19.9781C35.6436 19.8596 35.8972 20.1355 35.7266 20.3433C33.8931 22.5754 31.114 24.0006 28 24.0006C22.4773 24.0006 18.0002 19.5232 18 14.0006C18 10.8867 19.4245 8.10667 21.6562 6.27303Z" fill="oklch(0.3057 0.079 256.22 / 0.13)" class="wd-expressive-accent"></path>
</g>
<g>
<path d="M46 33C50.4183 33 54 36.5817 54 41C54 45.4183 50.4183 49 46 49C44.1514 49 42.4513 48.3703 41.0967 47.3174L35.0605 53.3535C34.8654 53.5486 34.5488 53.5484 34.3535 53.3535L33.6465 52.6465C33.4512 52.4512 33.4512 52.1347 33.6465 51.9395L39.6826 45.9033C38.6297 44.5487 38 42.8486 38 41C38 36.5817 41.5817 33 46 33ZM46 35C42.6863 35 40 37.6863 40 41C40 44.3137 42.6863 47 46 47C49.3137 47 52 44.3137 52 41C52 37.6863 49.3137 35 46 35Z" fill="oklch(0.3523 0 0 / 1)" class="wd-expressive-fill"></path>
<path d="M28 28C32.205 28 36.2259 28.7985 39.917 30.2539C40.1738 30.3552 40.2956 30.6481 40.1904 30.9033L39.8096 31.8281C39.7044 32.0835 39.4123 32.2046 39.1553 32.1035C35.7016 30.7457 31.9388 30 28 30C20.4989 30 13.6325 32.7072 8.32031 37.1982C8.12236 37.3658 8.0001 37.6254 8 37.915V47C8.0002 47.5521 8.44784 48 9 48H32.5C32.7761 48 33 48.2239 33 48.5V49.5C32.9998 49.776 32.776 50 32.5 50H9C7.34327 50 6.0002 48.6567 6 47V37.915C6.0001 37.0674 6.35885 36.2378 7.0293 35.6709C12.6889 30.8861 20.0087 28 28 28Z" fill="oklch(0.3523 0 0 / 1)" class="wd-expressive-fill"></path>
<path d="M28 3C34.0751 3 39 7.92487 39 14C39 20.0751 34.0751 25 28 25C21.9249 25 17 20.0751 17 14C17 7.92487 21.9249 3 28 3ZM28 5C23.0294 5 19 9.02944 19 14C19 18.9706 23.0294 23 28 23C32.9706 23 37 18.9706 37 14C37 9.02944 32.9706 5 28 5Z" fill="oklch(0.3523 0 0 / 1)" class="wd-expressive-fill"></path>
</g>
</svg>