<svg role="presentation" width="56" height="56" viewBox="0 0 56 56" xmlns="http://www.w3.org/2000/svg" class="wd-expressive wd-expressive-calendar-check-user">
<g>
<path d="M41.001 49C43.6848 49.0002 46.134 50.0072 47.9902 51.6641C46.5213 52.5119 44.8179 53 43 53C40.3167 52.9999 37.882 51.9409 36.0859 50.2207C37.5524 49.4424 39.2252 49 41.001 49Z" fill="oklch(0.3057 0.079 256.22 / 0.13)" class="wd-expressive-accent"></path>
<path d="M47 19H10V43H29.0381C29.1171 44.0389 29.318 45.0437 29.627 46H7V12H47V19Z" fill="oklch(0.3057 0.079 256.22 / 0.13)" class="wd-expressive-accent"></path>
<path d="M41.001 40C42.6575 40.0004 44.001 41.3434 44.001 43C44.001 43.3028 43.9536 43.5946 43.8701 43.8701C43.5947 43.9535 43.3026 44 43 44C41.3433 43.9999 40 42.6568 40 41C40 40.697 40.0454 40.4046 40.1289 40.1289C40.4047 40.0453 40.6979 40 41.001 40Z" fill="oklch(0.3057 0.079 256.22 / 0.13)" class="wd-expressive-accent"></path>
</g>
<g>
<path d="M43 37C45.2091 37 47 38.7909 47 41C47 43.2091 45.2091 45 43 45C40.7909 45 39 43.2091 39 41C39 38.7909 40.7909 37 43 37ZM43 39C41.8954 39 41 39.8954 41 41C41 42.1046 41.8954 43 43 43C44.1046 43 45 42.1046 45 41C45 39.8954 44.1046 39 43 39Z" fill="oklch(0.3523 0 0 / 1)" class="wd-expressive-fill"></path>
<path d="M43 32C49.0751 32 54 36.9249 54 43C54 49.0751 49.0751 54 43 54C36.9249 54 32 49.0751 32 43C32 36.9249 36.9249 32 43 32ZM43 48C40.842 48 38.8538 48.7187 37.2588 49.9307C38.8169 51.2228 40.8176 52 43 52C45.1821 52 47.1822 51.2226 48.7402 49.9307C47.1453 48.719 45.1577 48 43 48ZM43 34C38.0294 34 34 38.0294 34 43C34 45.0643 34.6965 46.965 35.8652 48.4834C37.8257 46.9303 40.3048 46 43 46C45.695 46 48.1734 46.9306 50.1338 48.4834C51.3027 46.9649 52 45.0645 52 43C52 38.0294 47.9706 34 43 34Z" fill="oklch(0.3523 0 0 / 1)" class="wd-expressive-fill"></path>
<path d="M40 5C41.6569 5 43 6.34315 43 8V9H47C48.6569 9 50 10.3431 50 12V30.5C50 30.7761 49.7761 31 49.5 31H48.5C48.2239 31 48 30.7761 48 30.5V20H8V44C8 44.5523 8.44772 45 9 45H27.2998C27.3024 45.0127 27.305 45.0254 27.3076 45.0381C27.3668 45.0134 27.4319 45 27.5 45H29.5C29.7761 45 30 45.2239 30 45.5V46.5C30 46.7761 29.7761 47 29.5 47H9C7.34315 47 6 45.6569 6 44V12C6 10.3431 7.34315 9 9 9H13V8C13 6.34315 14.3431 5 16 5C17.6569 5 19 6.34315 19 8V9H37V8C37 6.34315 38.3431 5 40 5ZM9 11C8.44772 11 8 11.4477 8 12V18H48V12C48 11.4477 47.5523 11 47 11H43C43 12.6569 41.6569 14 40 14C38.3949 14 37.0842 12.7394 37.0039 11.1543L37 11H19C19 12.6569 17.6569 14 16 14C14.3949 14 13.0842 12.7394 13.0039 11.1543L13 11H9ZM16 7C15.4477 7 15 7.44772 15 8V11L15.0049 11.1025C15.0562 11.6067 15.4823 12 16 12C16.5523 12 17 11.5523 17 11V8C17 7.44772 16.5523 7 16 7ZM40 7C39.4477 7 39 7.44772 39 8V11L39.0049 11.1025C39.0562 11.6067 39.4823 12 40 12C40.5523 12 41 11.5523 41 11V8C41 7.44772 40.5523 7 40 7Z" fill="oklch(0.3523 0 0 / 1)" class="wd-expressive-fill"></path>
<path d="M14 37.75C14.9665 37.75 15.75 38.5335 15.75 39.5C15.75 40.4665 14.9665 41.25 14 41.25C13.0335 41.25 12.25 40.4665 12.25 39.5C12.25 38.5335 13.0335 37.75 14 37.75Z" fill="oklch(0.3523 0 0 / 1)" class="wd-expressive-fill"></path>
<path d="M21 37.75C21.9665 37.75 22.75 38.5335 22.75 39.5C22.75 40.4665 21.9665 41.25 21 41.25C20.0335 41.25 19.25 40.4665 19.25 39.5C19.25 38.5335 20.0335 37.75 21 37.75Z" fill="oklch(0.3523 0 0 / 1)" class="wd-expressive-fill"></path>
<path d="M28 37.75C28.9665 37.75 29.75 38.5335 29.75 39.5C29.75 40.4665 28.9665 41.25 28 41.25C27.0335 41.25 26.25 40.4665 26.25 39.5C26.25 38.5335 27.0335 37.75 28 37.75Z" fill="oklch(0.3523 0 0 / 1)" class="wd-expressive-fill"></path>
<path d="M14 32.75C14.9665 32.75 15.75 33.5335 15.75 34.5C15.75 35.4665 14.9665 36.25 14 36.25C13.0335 36.25 12.25 35.4665 12.25 34.5C12.25 33.5335 13.0335 32.75 14 32.75Z" fill="oklch(0.3523 0 0 / 1)" class="wd-expressive-fill"></path>
<path d="M21 32.75C21.9665 32.75 22.75 33.5335 22.75 34.5C22.75 35.4665 21.9665 36.25 21 36.25C20.0335 36.25 19.25 35.4665 19.25 34.5C19.25 33.5335 20.0335 32.75 21 32.75Z" fill="oklch(0.3523 0 0 / 1)" class="wd-expressive-fill"></path>
<path d="M28 32.75C28.9665 32.75 29.75 33.5335 29.75 34.5C29.75 35.4665 28.9665 36.25 28 36.25C27.0335 36.25 26.25 35.4665 26.25 34.5C26.25 33.5335 27.0335 32.75 28 32.75Z" fill="oklch(0.3523 0 0 / 1)" class="wd-expressive-fill"></path>
<path d="M28 27.75C28.9665 27.75 29.75 28.5335 29.75 29.5C29.75 30.4665 28.9665 31.25 28 31.25C27.0335 31.25 26.25 30.4665 26.25 29.5C26.25 28.5335 27.0335 27.75 28 27.75Z" fill="oklch(0.3523 0 0 / 1)" class="wd-expressive-fill"></path>
<path d="M35 27.75C35.9665 27.75 36.75 28.5335 36.75 29.5C36.75 30.4665 35.9665 31.25 35 31.25C34.0335 31.25 33.25 30.4665 33.25 29.5C33.25 28.5335 34.0335 27.75 35 27.75Z" fill="oklch(0.3523 0 0 / 1)" class="wd-expressive-fill"></path>
<path d="M15.9395 26.1465C16.1347 25.9513 16.4512 25.9513 16.6465 26.1465L17.3535 26.8535C17.5487 27.0488 17.5487 27.3653 17.3535 27.5605L14.207 30.707C14.0195 30.8945 13.7652 31 13.5 31C13.2349 31 12.9805 30.8945 12.793 30.707L11.1465 29.0605C10.9513 28.8653 10.9513 28.5488 11.1465 28.3535L11.8535 27.6465C12.0488 27.4513 12.3653 27.4513 12.5605 27.6465L13.5 28.5859L15.9395 26.1465Z" fill="oklch(0.3523 0 0 / 1)" class="wd-expressive-fill"></path>
<path d="M22.9395 26.1465C23.1347 25.9513 23.4512 25.9513 23.6465 26.1465L24.3535 26.8535C24.5487 27.0488 24.5487 27.3653 24.3535 27.5605L21.207 30.707C21.0195 30.8945 20.7652 31 20.5 31C20.2349 31 19.9805 30.8945 19.793 30.707L18.1465 29.0605C17.9513 28.8653 17.9513 28.5488 18.1465 28.3535L18.8535 27.6465C19.0488 27.4513 19.3653 27.4513 19.5605 27.6465L20.5 28.5859L22.9395 26.1465Z" fill="oklch(0.3523 0 0 / 1)" class="wd-expressive-fill"></path>
<path d="M35 22.75C35.9665 22.75 36.75 23.5335 36.75 24.5C36.75 25.4665 35.9665 26.25 35 26.25C34.0335 26.25 33.25 25.4665 33.25 24.5C33.25 23.5335 34.0335 22.75 35 22.75Z" fill="oklch(0.3523 0 0 / 1)" class="wd-expressive-fill"></path>
<path d="M42 22.75C42.9665 22.75 43.75 23.5335 43.75 24.5C43.75 25.4665 42.9665 26.25 42 26.25C41.0335 26.25 40.25 25.4665 40.25 24.5C40.25 23.5335 41.0335 22.75 42 22.75Z" fill="oklch(0.3523 0 0 / 1)" class="wd-expressive-fill"></path>
</g>
</svg>