<svg role="presentation" width="56" height="56" viewBox="0 0 56 56" xmlns="http://www.w3.org/2000/svg" class="wd-expressive wd-expressive-face-id">
<g>
<path d="M5.5 38C5.77614 38 6 38.2239 6 38.5V44C6 47.3137 8.68629 50 12 50H17.5C17.7761 50 18 50.2239 18 50.5V51.5C18 51.7761 17.7761 52 17.5 52H12C7.58172 52 4 48.4183 4 44V38.5C4 38.2239 4.22386 38 4.5 38H5.5Z" fill="oklch(0.3523 0 0 / 1)" class="wd-expressive-fill"></path>
<path d="M51.5 38C51.7761 38 52 38.2239 52 38.5V44C52 48.4183 48.4183 52 44 52H38.5C38.2239 52 38 51.7761 38 51.5V50.5C38 50.2239 38.2239 50 38.5 50H44C47.3137 50 50 47.3137 50 44V38.5C50 38.2239 50.2239 38 50.5 38H51.5Z" fill="oklch(0.3523 0 0 / 1)" class="wd-expressive-fill"></path>
<path d="M35.2412 37.3662C35.4548 37.1911 35.7704 37.2087 35.9541 37.415L36.2861 37.7881L36.6201 38.1621C36.8036 38.3683 36.7856 38.6851 36.5732 38.8613C34.1295 40.8888 31.1156 42.0009 28 42.001C24.8846 42.0009 21.8714 40.8886 19.4277 38.8613C19.2152 38.685 19.1973 38.3683 19.3809 38.1621L19.7139 37.7881L20.0469 37.415C20.2305 37.2087 20.5462 37.1911 20.7598 37.3662C22.8465 39.0773 25.3897 40.0009 28 40.001C30.6105 40.0009 33.1544 39.0775 35.2412 37.3662Z" fill="oklch(0.3523 0 0 / 1)" class="wd-expressive-fill"></path>
<path d="M29.5 21C29.7761 21.0001 30 21.2239 30 21.5V31C30 32.1655 29.3792 32.9746 28.5479 33.4365C27.7766 33.8649 26.8341 34 26 34H25.5C25.2239 34 25 33.7761 25 33.5V32.5C25 32.2239 25.2239 32 25.5 32H26C26.6656 32 27.2235 31.8849 27.5771 31.6885C27.8706 31.5254 28 31.3344 28 31V21.5C28 21.2239 28.2239 21 28.5 21H29.5Z" fill="oklch(0.3523 0 0 / 1)" class="wd-expressive-fill"></path>
<path d="M18.5 21C18.7761 21 19 21.2239 19 21.5V26.5C19 26.7761 18.7761 27 18.5 27H17.5C17.2239 27 17 26.7761 17 26.5V21.5C17 21.2239 17.2239 21 17.5 21H18.5Z" fill="oklch(0.3523 0 0 / 1)" class="wd-expressive-fill"></path>
<path d="M38.5 21C38.7761 21 39 21.2239 39 21.5V26.5C39 26.7761 38.7761 27 38.5 27H37.5C37.2239 27 37 26.7761 37 26.5V21.5C37 21.2239 37.2239 21 37.5 21H38.5Z" fill="oklch(0.3523 0 0 / 1)" class="wd-expressive-fill"></path>
<path d="M17.5 4C17.7761 4 18 4.22386 18 4.5V5.5C18 5.77614 17.7761 6 17.5 6H12C8.68629 6 6 8.68629 6 12V17.5C6 17.7761 5.77614 18 5.5 18H4.5C4.22386 18 4 17.7761 4 17.5V12C4 7.58172 7.58172 4 12 4H17.5Z" fill="oklch(0.3523 0 0 / 1)" class="wd-expressive-fill"></path>
<path d="M44 4C48.4183 4 52 7.58172 52 12V17.5C52 17.7761 51.7761 18 51.5 18H50.5C50.2239 18 50 17.7761 50 17.5V12C50 8.68629 47.3137 6 44 6H38.5C38.2239 6 38 5.77614 38 5.5V4.5C38 4.22386 38.2239 4 38.5 4H44Z" fill="oklch(0.3523 0 0 / 1)" class="wd-expressive-fill"></path>
</g>
</svg>