<svg role="presentation" width="56" height="56" viewBox="0 0 56 56" xmlns="http://www.w3.org/2000/svg" class="wd-expressive wd-expressive-clipboard-exclamation">
<g>
<path d="M40.1943 31.0576L31.6982 46.0117C30.9407 47.345 31.904 49 33.4375 49H51.0664C51.0643 50.0435 50.2283 50.9988 49.0635 50.999H30.9375C29.404 50.999 28.4407 49.344 29.1982 48.0107L38.2617 32.0596C38.6816 31.3205 39.4548 30.987 40.1943 31.0576Z" fill="oklch(0.3057 0.079 256.22 / 0.13)" class="wd-expressive-accent"></path>
<path d="M13 44H26.8779L25.7197 46.0381C24.9888 47.3247 24.7943 48.7112 25.0166 50H9C9.00005 46.5859 9.70799 43.2041 11.084 40.0498C11.6253 38.8091 12.2674 37.6133 13 36.4717V44Z" fill="oklch(0.3057 0.079 256.22 / 0.13)" class="wd-expressive-accent"></path>
<path d="M20 29C21.1046 29 22 29.8954 22 31C22 32.1046 21.1046 33 20 33C18.8954 33 18 32.1046 18 31C18 29.8954 18.8954 29 20 29Z" fill="oklch(0.3057 0.079 256.22 / 0.13)" class="wd-expressive-accent"></path>
<path d="M43 27.8428C41.782 27.1442 40.5 27 39 27V21.1406C40.0309 21.0453 41.0338 21 42 21H43V27.8428Z" fill="oklch(0.3057 0.079 256.22 / 0.13)" class="wd-expressive-accent"></path>
<path d="M26 3C27.9337 3.00004 29.6107 4.09869 30.4424 5.70508C30.5338 5.88113 30.7117 5.99996 30.9102 6H34.5C34.776 6.00005 34.9999 6.22397 35 6.5V12.5C34.9998 12.7759 34.776 12.9999 34.5 13H17.5C17.224 12.9999 17.0002 12.7759 17 12.5V6.5C17.0001 6.22397 17.224 6.00005 17.5 6H21.0898C21.2883 5.99996 21.4662 5.88117 21.5576 5.70508C22.3893 4.09865 24.0662 3.00004 26 3Z" fill="oklch(0.3057 0.079 256.22 / 0.13)" class="wd-expressive-accent"></path>
</g>
<g>
<path d="M40 44.75C40.6904 44.75 41.25 45.3096 41.25 46C41.25 46.6904 40.6904 47.25 40 47.25C39.3096 47.25 38.75 46.6904 38.75 46C38.75 45.3096 39.3096 44.75 40 44.75Z" fill="oklch(0.3523 0 0 / 1)" class="wd-expressive-fill"></path>
<path d="M40.5 38C40.7761 38 41 38.2239 41 38.5V39.8398L40.8301 43.5234C40.8176 43.7902 40.5971 44 40.3301 44H39.6699C39.4029 44 39.1824 43.7902 39.1699 43.5234L39 39.8398V38.5C39 38.2239 39.2239 38 39.5 38H40.5Z" fill="oklch(0.3523 0 0 / 1)" class="wd-expressive-fill"></path>
<path d="M37.3916 31.5664C38.5416 29.5425 41.4584 29.5425 42.6084 31.5664L51.6719 47.5176C52.8082 49.5175 51.3636 51.9999 49.0635 52H30.9365C28.6364 51.9999 27.1918 49.5175 28.3281 47.5176L37.3916 31.5664ZM40.8691 32.5547C40.4858 31.88 39.5142 31.88 39.1309 32.5547L30.0674 48.5059C29.6886 49.1725 30.1699 49.9999 30.9365 50H49.0635C49.8301 49.9999 50.3114 49.1725 49.9326 48.5059L40.8691 32.5547Z" fill="oklch(0.3523 0 0 / 1)" class="wd-expressive-fill"></path>
<path d="M26 2C28.2217 2.00007 30.1562 3.20976 31.1924 5H34.5C35.1528 5.00008 35.707 5.41774 35.9131 6H41C42.6568 6.00011 44 7.34323 44 9V27.5C44 27.7761 43.7761 28 43.5 28H42.5C42.2239 28 42 27.7761 42 27.5V9C42 8.4478 41.5522 8.00011 41 8H36V10H39C39.2651 10.0001 39.5195 10.1055 39.707 10.293C39.8945 10.4805 40 10.7348 40 11V26.5C40 26.7761 39.7761 27 39.5 27H38.5C38.2239 27 38 26.7761 38 26.5V12H36V12.5C36 13.3284 35.3283 13.9999 34.5 14H17.5C16.6717 13.9999 16 13.3284 16 12.5V12H14V43H26.5C26.7761 43 27 43.2239 27 43.5V44.5C27 44.7761 26.7761 45 26.5 45H13C12.7349 45 12.4805 44.8945 12.293 44.707C12.1055 44.5195 12 44.2652 12 44V11C12 10.4478 12.4479 10.0002 13 10H16V8H11C10.4479 8.00021 10 8.44786 10 9V48C10 48.5522 10.4478 48.9999 11 49H24.5C24.7761 49 25 49.2239 25 49.5V50.5C25 50.7761 24.7761 51 24.5 51H11C9.34325 50.9999 8.00002 49.6568 8 48V9C8.00002 7.34329 9.34334 6.00021 11 6H16.0869C16.293 5.41776 16.8472 5.00008 17.5 5H20.8076C21.8438 3.20978 23.7784 2.00007 26 2ZM26 4C24.4549 4.00007 23.1131 4.87651 22.4463 6.16406C22.2004 6.63889 21.6984 6.99992 21.0898 7H18V12H34V7H30.9102C30.3016 6.99992 29.7996 6.63891 29.5537 6.16406C28.8869 4.87648 27.5451 4.00007 26 4Z" fill="oklch(0.3523 0 0 / 1)" class="wd-expressive-fill"></path>
<path d="M20 28C21.6569 28 23 29.3431 23 31C23 32.6569 21.6569 34 20 34C18.3431 34 17 32.6569 17 31C17 29.3431 18.3431 28 20 28ZM20 30C19.4477 30 19 30.4477 19 31C19 31.5523 19.4477 32 20 32C20.5523 32 21 31.5523 21 31C21 30.4477 20.5523 30 20 30Z" fill="oklch(0.3523 0 0 / 1)" class="wd-expressive-fill"></path>
<path d="M28.5 31C28.7761 31 29 31.2239 29 31.5V32.5C29 32.7761 28.7761 33 28.5 33H25.5C25.2239 33 25 32.7761 25 32.5V31.5C25 31.2239 25.2239 31 25.5 31H28.5Z" fill="oklch(0.3523 0 0 / 1)" class="wd-expressive-fill"></path>
<path d="M32.5 28C32.7761 28 33 28.2239 33 28.5V29.5C33 29.7761 32.7761 30 32.5 30H25.5C25.2239 30 25 29.7761 25 29.5V28.5C25 28.2239 25.2239 28 25.5 28H32.5Z" fill="oklch(0.3523 0 0 / 1)" class="wd-expressive-fill"></path>
<path d="M21.9395 19.1465C22.1347 18.9513 22.4512 18.9513 22.6465 19.1465L23.3535 19.8535C23.5487 20.0488 23.5487 20.3653 23.3535 20.5605L20.207 23.707C20.0195 23.8945 19.7652 24 19.5 24C19.2349 24 18.9805 23.8945 18.793 23.707L17.1465 22.0605C16.9513 21.8653 16.9513 21.5488 17.1465 21.3535L17.8535 20.6465C18.0488 20.4513 18.3653 20.4513 18.5605 20.6465L19.5 21.5859L21.9395 19.1465Z" fill="oklch(0.3523 0 0 / 1)" class="wd-expressive-fill"></path>
<path d="M29.5 22C29.7761 22 30 22.2239 30 22.5V23.5C30 23.7761 29.7761 24 29.5 24H25.5C25.2239 24 25 23.7761 25 23.5V22.5C25 22.2239 25.2239 22 25.5 22H29.5Z" fill="oklch(0.3523 0 0 / 1)" class="wd-expressive-fill"></path>
<path d="M34.5 19C34.7761 19 35 19.2239 35 19.5V20.5C35 20.7761 34.7761 21 34.5 21H25.5C25.2239 21 25 20.7761 25 20.5V19.5C25 19.2239 25.2239 19 25.5 19H34.5Z" fill="oklch(0.3523 0 0 / 1)" class="wd-expressive-fill"></path>
</g>
</svg>