<svg role="presentation" width="56" height="56" viewBox="0 0 56 56" xmlns="http://www.w3.org/2000/svg" class="wd-expressive wd-expressive-touchpoints">
<g>
<path d="M11 13C13.2091 13 15 14.7909 15 17C15 19.2091 13.2091 21 11 21C8.79086 21 7 19.2091 7 17C7 14.7909 8.79086 13 11 13Z" fill="oklch(0.3057 0.079 256.22 / 0.13)" class="wd-expressive-accent"></path>
<path d="M43 10C45.2091 10 47 11.7909 47 14C47 16.2091 45.2091 18 43 18C40.7909 18 39 16.2091 39 14C39 11.7909 40.7909 10 43 10Z" fill="oklch(0.3057 0.079 256.22 / 0.13)" class="wd-expressive-accent"></path>
<path d="M25 4C28.3137 4 31 6.68629 31 10C31 12.2205 29.7929 14.1578 28 15.1953V12.04C28 11.4711 27.7696 10.9077 27.2793 10.6191C26.6108 10.2257 25.8318 10 25 10C24.1682 10 23.3892 10.2257 22.7207 10.6191C22.2304 10.9077 21.9999 11.4819 21.999 12.0508C21.9973 13.1427 21.9912 14.187 21.9834 15.1855C20.1997 14.1456 19 12.2136 19 10C19 6.68629 21.6863 4 25 4Z" fill="oklch(0.3057 0.079 256.22 / 0.13)" class="wd-expressive-accent"></path>
</g>
<path d="M25 3C28.866 3 32 6.13401 32 10C32 10.1767 31.9933 10.3519 31.9805 10.5254L38.4346 11.96C39.2152 10.2156 40.9653 9 43 9C45.7614 9 48 11.2386 48 14C48 16.7614 45.7614 19 43 19C40.2386 19 38 16.7614 38 14C38 13.971 38.0015 13.942 38.002 13.9131L31.5479 12.4785C31.0443 13.8074 30.1477 14.9425 29 15.7432V27.1904L38.2568 29.1748C41.0232 29.7677 43 32.2128 43 35.042V38.6396C43 40.3472 42.6025 42.0313 41.8389 43.5586L39.4219 48.3916C39.1443 48.947 39 49.5598 39 50.1807V53.5C39 53.7761 38.7761 54 38.5 54H37.5C37.2239 54 37 53.7761 37 53.5V50.1807C37 49.2492 37.2172 48.3302 37.6338 47.4971L40.0498 42.6641C40.6746 41.4145 41 40.0367 41 38.6396V35.042C41 33.1559 39.6821 31.5261 37.8379 31.1309L28.1855 29.0625C27.4941 28.9143 27.0001 28.3029 27 27.5957V12.04C27 11.7073 26.8677 11.5366 26.7725 11.4805C26.2535 11.175 25.6486 11 25 11C24.3514 11 23.7465 11.175 23.2275 11.4805C23.1372 11.5337 22.9997 11.7106 22.999 12.0518C22.9763 26.0907 22.4282 32.3017 22.1465 34.5762C21.979 35.9256 20.3416 36.276 19.5566 35.3027L15.0322 29.6914C14.3254 29.0643 13.3984 28.6846 12.3799 28.6846C11.7852 28.6846 11.2235 28.8141 10.7188 29.0449C10.6224 29.089 10.5572 29.1632 10.5273 29.3037C10.4936 29.4627 10.5175 29.6837 10.6328 29.8936L20.2568 47.3926C20.744 48.2784 21 49.2732 21 50.2842V53.5C21 53.7761 20.7761 54 20.5 54H19.5C19.2239 54 19 53.7761 19 53.5V50.2842C19 49.6102 18.8297 48.947 18.5049 48.3564L8.88086 30.8574C8.26592 29.7393 8.33364 27.9359 9.88672 27.2256C10.6472 26.8778 11.4924 26.6846 12.3799 26.6846C13.9271 26.6846 15.339 27.2719 16.4023 28.2334C16.4324 28.2606 16.4608 28.2882 16.4873 28.3164L16.5615 28.4014L20.2988 33.0371C20.5511 30.4196 20.893 25.2099 20.9785 15.7285C20.3056 15.2552 19.7188 14.6677 19.249 13.9922L15.8291 15.7021C15.9401 16.1161 16 16.551 16 17C16 19.7614 13.7614 22 11 22C8.23858 22 6 19.7614 6 17C6 14.2386 8.23858 12 11 12C12.5965 12 14.0172 12.7491 14.9326 13.9141L18.3545 12.2031C18.1249 11.5103 18 10.7698 18 10C18 6.13401 21.134 3 25 3ZM11 14C9.34315 14 8 15.3431 8 17C8 18.6569 9.34315 20 11 20C12.6569 20 14 18.6569 14 17C14 15.3431 12.6569 14 11 14ZM43 11C41.3431 11 40 12.3431 40 14C40 15.6569 41.3431 17 43 17C44.6569 17 46 15.6569 46 14C46 12.3431 44.6569 11 43 11ZM25 5C22.2386 5 20 7.23858 20 10C20 11.1225 20.3704 12.158 20.9951 12.9922C20.9962 12.6818 20.9985 12.3673 20.999 12.0488C21.0003 11.2526 21.3238 10.2817 22.2139 9.75781C23.0318 9.2764 23.9851 9 25 9C26.015 9 26.9691 9.27633 27.7871 9.75781C28.672 10.279 29 11.2352 29 12.04V12.999C29.6278 12.1637 30 11.1255 30 10C30 7.23858 27.7614 5 25 5Z" fill="oklch(0.3523 0 0 / 1)" class="wd-expressive-fill"></path>
</svg>