<svg role="presentation" width="56" height="56" viewBox="0 0 56 56" xmlns="http://www.w3.org/2000/svg" class="wd-expressive wd-expressive-question-circle">
<path d="M28 4C41.2548 4 52 14.7452 52 28C52 41.2548 41.2548 52 28 52C14.7452 52 4 41.2548 4 28C4 14.7452 14.7452 4 28 4ZM28 9C17.5066 9 9 17.5066 9 28C9 38.4934 17.5066 47 28 47C38.4934 47 47 38.4934 47 28C47 17.5066 38.4934 9 28 9Z" fill="oklch(0.3057 0.079 256.22 / 0.13)" class="wd-expressive-accent"></path>
<g>
<path d="M28 37C29.1044 37.0002 30 37.8956 30 39C30 40.1044 29.1044 40.9998 28 41C26.8956 40.9998 26 40.1044 26 39C26 37.8956 26.8956 37.0002 28 37Z" fill="oklch(0.3523 0 0 / 1)" class="wd-expressive-fill"></path>
<path d="M28.5 15C31.3402 15.0001 33.4962 15.9291 34.9414 17.4062C36.3678 18.8644 37 20.7536 37 22.5C37 24.613 36.4477 26.1146 35.4619 27.2256C34.5382 28.2663 33.3225 28.8375 32.4277 29.2852C31.4524 29.7731 30.7585 30.1543 30.2539 30.7686C29.836 31.2775 29.4579 32.0681 29.3867 33.5C29.3729 33.7756 29.1509 33.9998 28.875 34H27.125C26.849 33.9999 26.6243 33.7758 26.6348 33.5C26.7106 31.5411 27.2379 30.1084 28.1289 29.0234C29.0538 27.8975 30.2667 27.2917 31.1973 26.8262C32.2082 26.3204 32.8996 25.9701 33.4053 25.4004C33.849 24.9003 34.25 24.0996 34.25 22.5C34.25 21.395 33.8473 20.2214 32.9756 19.3301C32.1223 18.458 30.7145 17.7501 28.5 17.75C26.6548 17.7501 25.2729 18.1732 24.3525 19.0283C23.5094 19.8119 22.8416 21.1569 22.7588 23.5C22.749 23.7758 22.5259 23.9998 22.25 24H20.5C20.224 23.9999 19.9998 23.7758 20.0078 23.5C20.0932 20.6277 20.9229 18.4612 22.4805 17.0137C24.1085 15.5011 26.2903 15.0001 28.5 15Z" fill="oklch(0.3523 0 0 / 1)" class="wd-expressive-fill"></path>
<path d="M28 3C41.8071 3 53 14.1929 53 28C53 41.8071 41.8071 53 28 53C14.1929 53 3 41.8071 3 28C3 14.1929 14.1929 3 28 3ZM28 5C15.2975 5 5 15.2975 5 28C5 40.7025 15.2975 51 28 51C40.7025 51 51 40.7025 51 28C51 15.2975 40.7025 5 28 5Z" fill="oklch(0.3523 0 0 / 1)" class="wd-expressive-fill"></path>
</g>
</svg>