<svg role="presentation" width="56" height="56" viewBox="0 0 56 56" xmlns="http://www.w3.org/2000/svg" class="wd-expressive wd-expressive-purchase">
<g>
<path d="M35 42.3896C32.8854 43.4202 30.5106 44 28 44C26.6187 44 25.2785 43.8242 24 43.4951V39.3135C25.2514 39.7559 26.597 40 28 40C30.6134 40 33.0294 39.1615 35 37.7432V42.3896Z" fill="oklch(0.3057 0.079 256.22 / 0.13)" class="wd-expressive-accent"></path>
<path d="M37.8965 15.4268C41.6137 18.3566 44 22.8997 44 28C44 28.6774 43.9567 29.3448 43.875 30H39.833C39.9421 29.3495 40 28.6815 40 28C40 24.6416 38.6189 21.6068 36.3955 19.4287C37.1636 18.2434 37.6879 16.8867 37.8965 15.4268Z" fill="oklch(0.3057 0.079 256.22 / 0.13)" class="wd-expressive-accent"></path>
<path d="M18.1025 15.4268C18.3111 16.8865 18.8356 18.2434 19.6035 19.4287C17.3804 21.6068 16 24.6418 16 28H12C12 22.9 14.3857 18.3566 18.1025 15.4268Z" fill="oklch(0.3057 0.079 256.22 / 0.13)" class="wd-expressive-accent"></path>
<path d="M28 18C30.6892 18 33.1424 19.0112 35 20.6738V21.1387C33.1961 22.9077 30.7261 24 28 24C25.2739 24 22.8039 22.9077 21 21.1387V20.6738C22.8576 19.0112 25.3108 18 28 18Z" fill="oklch(0.3057 0.079 256.22 / 0.13)" class="wd-expressive-accent"></path>
<path d="M28 9C29.6569 9 31 10.3431 31 12C31 13.6569 29.6569 15 28 15C26.3431 15 25 13.6569 25 12C25 10.3431 26.3431 9 28 9Z" fill="oklch(0.3057 0.079 256.22 / 0.13)" class="wd-expressive-accent"></path>
</g>
<g>
<path d="M8.5 45C9.32843 45 10 45.6716 10 46.5C10 47.3284 9.32843 48 8.5 48C7.67157 48 7 47.3284 7 46.5C7 45.6716 7.67157 45 8.5 45Z" fill="oklch(0.3523 0 0 / 1)" class="wd-expressive-fill"></path>
<path d="M18.5 45C19.3284 45 20 45.6716 20 46.5C20 47.3284 19.3284 48 18.5 48C17.6716 48 17 47.3284 17 46.5C17 45.6716 17.6716 45 18.5 45Z" fill="oklch(0.3523 0 0 / 1)" class="wd-expressive-fill"></path>
<path d="M28 8C30.2091 8 32 9.79086 32 12C32 14.2091 30.2091 16 28 16C25.7909 16 24 14.2091 24 12C24 9.79086 25.7909 8 28 8ZM28 10C26.8954 10 26 10.8954 26 12C26 13.1046 26.8954 14 28 14C29.1046 14 30 13.1046 30 12C30 10.8954 29.1046 10 28 10Z" fill="oklch(0.3523 0 0 / 1)" class="wd-expressive-fill"></path>
<path d="M28 3C34.0751 3 39 7.92487 39 14C39 14.3378 38.982 14.6719 38.9521 15.002C42.6495 18.1202 45 22.7846 45 28C45 28.3357 44.9894 28.6691 44.9697 29H46.793L46.9414 29.0078C47.2847 29.042 47.6074 29.1934 47.8535 29.4395L51.5605 33.1465C51.8418 33.4278 52 33.8092 52 34.207V46.5C52 47.3284 51.3284 48 50.5 48H35.5C34.6716 48 34 47.3284 34 46.5V43.9082C32.134 44.6124 30.1124 45 28 45C27.6606 45 27.3237 44.9886 26.9893 44.9688L26.9844 44.9697C26.9434 44.9673 26.9023 44.9627 26.8613 44.96C26.7228 44.9507 26.5848 44.9403 26.4473 44.9277C26.3922 44.9227 26.3372 44.9167 26.2822 44.9111C26.1542 44.8982 26.0266 44.8849 25.8994 44.8691C25.8551 44.8636 25.8109 44.8565 25.7666 44.8506C25.6205 44.8313 25.475 44.8111 25.3301 44.7881C25.3105 44.785 25.291 44.7815 25.2715 44.7783C25.1059 44.7515 24.9413 44.722 24.7773 44.6904C24.7614 44.6874 24.7454 44.6848 24.7295 44.6816C24.5596 44.6484 24.3907 44.6124 24.2227 44.5742C24.2129 44.572 24.2031 44.5696 24.1934 44.5674C24.1289 44.5526 24.0641 44.5399 24 44.5244V44.5195C23.523 44.4041 23.05 44.2708 22.584 44.1143C22.3223 44.0262 22.1904 43.7375 22.2861 43.4785L22.459 43.0098L22.6328 42.541C22.7285 42.2822 23.0154 42.1505 23.2773 42.2373C23.7271 42.3865 24.1835 42.5134 24.6445 42.6191C25.7235 42.8662 26.8461 43 28 43C30.1337 43 32.1624 42.5524 34 41.749V34.207C34 33.8092 34.1582 33.4278 34.4395 33.1465L38.1465 29.4395L38.2568 29.3398C38.5237 29.1212 38.859 29 39.207 29H42.9658C42.9877 28.6695 43 28.3361 43 28C43 23.8039 41.2761 20.0113 38.499 17.2891C37.1006 21.7574 32.9293 25 28 25C23.0702 25 18.898 21.757 17.5 17.2881C15.5001 19.2487 14.0474 21.765 13.3906 24.5869C13.3896 24.592 13.3899 24.5974 13.3887 24.6025C13.246 25.2163 13.1434 25.8383 13.0791 26.4639C13.0287 26.9595 13.001 27.462 13 27.9707C12.9997 28.1207 13.0016 28.2708 13.0059 28.4209C13.0136 28.6968 12.8047 28.934 12.5293 28.9512L11.5312 29.0127C11.2556 29.0297 11.0176 28.82 11.0088 28.5439C10.9984 28.2193 10.9987 27.8946 11.0068 27.5703C11.0125 27.3429 11.0216 27.1167 11.0361 26.8916C11.0389 26.8496 11.0419 26.8076 11.0449 26.7656C11.3833 22.0517 13.6439 17.8711 17.0469 15.001C17.0171 14.6712 17 14.3375 17 14C17 7.92487 21.9249 3 28 3ZM36 46H50V35H36V46ZM37.4141 33H42V31H39.4141L37.4141 33ZM44 33H48.5859L46.5859 31H44V33ZM28 19C25.842 19 23.8538 19.7187 22.2588 20.9307C23.8169 22.2228 25.8176 23 28 23C30.1821 23 32.1822 22.2226 33.7402 20.9307C32.1453 19.719 30.1577 19 28 19ZM28 5C23.0294 5 19 9.02944 19 14C19 16.0643 19.6965 17.965 20.8652 19.4834C22.8257 17.9303 25.3048 17 28 17C30.695 17 33.1734 17.9306 35.1338 19.4834C36.3027 17.9649 37 16.0645 37 14C37 9.02944 32.9706 5 28 5Z" fill="oklch(0.3523 0 0 / 1)" class="wd-expressive-fill"></path>
<path d="M7 29C7.4687 29 7.87489 29.3257 7.97656 29.7832L8.25293 31.0273L21.0371 31.501C21.5746 31.5209 22 31.9622 22 32.5L21.9893 32.9775C21.8776 35.3506 20.937 37.509 19.4531 39.167C19.2754 39.3655 19.0259 39.4853 18.7598 39.499L9.78906 39.9609L9.28027 42H19.5C19.7761 42 20 42.2239 20 42.5V43.5C20 43.7761 19.7761 44 19.5 44H8C7.69206 44 7.40142 43.858 7.21191 43.6152C7.02249 43.3726 6.95569 43.0565 7.03027 42.7578L7.97266 38.9883L6.19727 31H3.5C3.22386 31 3 30.7761 3 30.5V29.5C3 29.2239 3.22386 29 3.5 29H7ZM9.79297 37.957L18.2256 37.5225C19.1456 36.3837 19.7576 34.9892 19.9404 33.4609L8.70117 33.0439L9.79297 37.957Z" fill="oklch(0.3523 0 0 / 1)" class="wd-expressive-fill"></path>
</g>
</svg>