<svg role="presentation" width="56" height="56" viewBox="0 0 56 56" xmlns="http://www.w3.org/2000/svg" class="wd-expressive wd-expressive-card-user-chart">
<g>
<path d="M6 37.0957V40C6 41.0357 6.78722 41.887 7.7959 41.9893L8 42H25V45H3V39.2012C3.91437 38.3828 4.92033 37.6645 6.00098 37.0645C6.00082 37.0749 6 37.0853 6 37.0957Z" fill="oklch(0.3057 0.079 256.22 / 0.13)" class="wd-expressive-accent"></path>
<path d="M34 35H30V25H34V35Z" fill="oklch(0.3057 0.079 256.22 / 0.13)" class="wd-expressive-accent"></path>
<path d="M40 35H36V19H40V35Z" fill="oklch(0.3057 0.079 256.22 / 0.13)" class="wd-expressive-accent"></path>
<path d="M46 35H42V27H46V35Z" fill="oklch(0.3057 0.079 256.22 / 0.13)" class="wd-expressive-accent"></path>
<path d="M11.6084 22.6084C11.2207 23.3189 11 24.1336 11 25C11 27.7614 13.2386 30 16 30C16.8662 30 17.6802 29.7782 18.3906 29.3906C17.5426 30.9448 15.8952 32 14 32C11.2386 32 9 29.7614 9 27C9 25.105 10.0544 23.4565 11.6084 22.6084Z" fill="oklch(0.3057 0.079 256.22 / 0.13)" class="wd-expressive-accent"></path>
</g>
<g>
<path d="M14 34C18.4814 34 22.5716 35.6856 25.667 38.4561C25.8789 38.6457 25.9999 38.9168 26 39.2012V45C26 45.5523 25.5523 46 25 46H3C2.73478 46 2.48051 45.8946 2.29297 45.707C2.10543 45.5195 2 45.2652 2 45V39.2012C2.00007 38.9168 2.12112 38.6457 2.33301 38.4561C5.42842 35.6856 9.51861 34 14 34ZM14 36C10.1881 36 6.69978 37.375 4 39.6572V44H24V39.6572C21.3002 37.375 17.8119 36 14 36Z" fill="oklch(0.3523 0 0 / 1)" class="wd-expressive-fill"></path>
<path d="M51 10C52.6569 10 54 11.3431 54 13V39C54 40.6569 52.6569 42 51 42H29.5C29.2239 42 29 41.7761 29 41.5V40.5C29 40.2239 29.2239 40 29.5 40H51C51.5523 40 52 39.5523 52 39V13C52 12.4477 51.5523 12 51 12H11C10.4477 12 10 12.4477 10 13V18.5C10 18.7761 9.77614 19 9.5 19H8.5C8.22389 19 8 18.7761 8 18.5V13C8 11.3431 9.34315 10 11 10H51Z" fill="oklch(0.3523 0 0 / 1)" class="wd-expressive-fill"></path>
<path d="M42 16C42.5523 16 43 16.4477 43 17V24H48C48.5523 24 49 24.4477 49 25V35C49 35.5523 48.5523 36 48 36H30C29.4477 36 29 35.5523 29 35V23C29 22.7348 29.1054 22.4805 29.293 22.293C29.4805 22.1054 29.7348 22 30 22H35V17C35 16.4477 35.4477 16 36 16H42ZM31 34H35V24H31V34ZM37 34H41V18H37V34ZM43 34H47V26H43V34Z" fill="oklch(0.3523 0 0 / 1)" class="wd-expressive-fill"></path>
<path d="M14 21C17.3137 21 20 23.6863 20 27C20 30.3137 17.3137 33 14 33C10.6863 33 8 30.3137 8 27C8 23.6863 10.6863 21 14 21ZM14 23C11.7909 23 10 24.7909 10 27C10 29.2091 11.7909 31 14 31C16.2091 31 18 29.2091 18 27C18 24.7909 16.2091 23 14 23Z" fill="oklch(0.3523 0 0 / 1)" class="wd-expressive-fill"></path>
</g>
</svg>