<svg role="presentation" width="56" height="56" viewBox="0 0 56 56" xmlns="http://www.w3.org/2000/svg" class="wd-expressive wd-expressive-users">
<g>
<path d="M6 34.2539V39.249C6 40.2847 6.78722 41.136 7.7959 41.2383L8 41.249H35V42.249C35 43.3536 34.1046 44.249 33 44.249H5L4.7959 44.2383C3.78722 44.136 3 43.2847 3 42.249V37.2539C3.00008 36.6852 3.23927 36.1397 3.67676 35.7764C4.41779 35.161 5.19645 34.5894 6.00879 34.0654C6.00293 34.1278 6.00001 34.1907 6 34.2539Z" fill="oklch(0.3057 0.079 256.22 / 0.13)" class="wd-expressive-accent"></path>
<path d="M42 25.3916C46.2259 25.3916 50.0809 26.9801 53 29.5928V35.3916H38.3457C38.1194 34.5488 37.6471 33.7668 36.9492 33.165C35.2236 31.6773 33.3097 30.4008 31.249 29.374C34.1367 26.8916 37.8933 25.3916 42 25.3916Z" fill="oklch(0.3057 0.079 256.22 / 0.13)" class="wd-expressive-accent"></path>
<path d="M14.3711 14C14.1316 14.706 14 15.4621 14 16.249C14 20.115 17.134 23.249 21 23.249C22.7749 23.249 24.394 22.5868 25.6279 21.498C24.6909 24.2603 22.0789 26.249 19 26.249C15.134 26.249 12 23.115 12 19.249C12 17.1582 12.9177 15.2827 14.3711 14Z" fill="oklch(0.3057 0.079 256.22 / 0.13)" class="wd-expressive-accent"></path>
<path d="M42 12.3916C44.7614 12.3916 47 14.6302 47 17.3916C47 20.153 44.7614 22.3916 42 22.3916C39.2386 22.3916 37 20.153 37 17.3916C37 14.6302 39.2386 12.3916 42 12.3916Z" fill="oklch(0.3057 0.079 256.22 / 0.13)" class="wd-expressive-accent"></path>
</g>
<g>
<path d="M19 29C25.2348 29 30.9389 31.2834 35.3174 35.0586C35.7606 35.4408 36 35.9933 36 36.5586V43C36 44.1046 35.1046 45 34 45H4C2.89543 45 2 44.1046 2 43V36.5586C2 35.9933 2.2394 35.4408 2.68262 35.0586L3.09668 34.709C7.41783 31.1428 12.96 29 19 29ZM19 31C13.2679 31 8.02764 33.0954 4 36.5635V43H34V36.5635C29.9724 33.0954 24.7321 31 19 31Z" fill="oklch(0.3523 0 0 / 1)" class="wd-expressive-fill"></path>
<path d="M42 24C46.3107 24 50.2599 25.5596 53.3096 28.1445C53.7617 28.5277 54 29.0848 54 29.6484V34C54 35.1046 53.1046 36 52 36H38.5C38.2239 36 38 35.7761 38 35.5V34.5C38 34.2239 38.2239 34 38.5 34H52V29.6572C49.3003 27.3751 45.8121 26 42 26C41.6 26 41.2037 26.0152 40.8115 26.0449C40.3979 26.0763 39.9889 26.1243 39.585 26.1875C38.4668 26.3625 37.3889 26.6565 36.3643 27.0566L36.3633 27.0557C34.7808 27.6736 33.3252 28.5452 32.0449 29.6191C31.8334 29.7966 31.5172 29.7799 31.333 29.5742L30.666 28.8281C30.4823 28.6224 30.4993 28.3061 30.71 28.1279C32.2319 26.8418 33.9772 25.8106 35.8789 25.1006C35.9603 25.0702 36.0421 25.0409 36.124 25.0117C36.3281 24.939 36.5337 24.869 36.7412 24.8037C36.7847 24.79 36.8284 24.777 36.8721 24.7637C36.9477 24.7405 37.0235 24.7175 37.0996 24.6953C37.1505 24.6805 37.2018 24.6667 37.2529 24.6523C37.3293 24.6309 37.4057 24.6093 37.4824 24.5889C37.5311 24.5759 37.58 24.5634 37.6289 24.5508C37.7081 24.5304 37.7875 24.5105 37.8672 24.4912C37.9091 24.4811 37.9512 24.4718 37.9932 24.4619C38.0727 24.4433 38.1524 24.4248 38.2324 24.4072C38.2906 24.3945 38.3488 24.3813 38.4072 24.3691C38.4725 24.3555 38.538 24.343 38.6035 24.3301C38.6689 24.3172 38.7342 24.3041 38.7998 24.292C38.8609 24.2807 38.9221 24.2704 38.9834 24.2598C39.0432 24.2494 39.103 24.2383 39.1631 24.2285C39.2614 24.2125 39.3601 24.198 39.459 24.1836C39.4867 24.1796 39.5143 24.1748 39.542 24.1709C39.6316 24.1583 39.7215 24.147 39.8115 24.1357C39.8574 24.13 39.9032 24.1235 39.9492 24.1182C40.2128 24.0874 40.4781 24.0629 40.7451 24.0439C40.7568 24.0431 40.7686 24.0428 40.7803 24.042C40.9046 24.0334 41.0293 24.0255 41.1543 24.0195C41.1751 24.0185 41.196 24.0185 41.2168 24.0176C41.3109 24.0134 41.4055 24.0095 41.5 24.0068C41.5023 24.0068 41.5046 24.0069 41.5068 24.0068C41.6707 24.0023 41.8351 24 42 24Z" fill="oklch(0.3523 0 0 / 1)" class="wd-expressive-fill"></path>
<path d="M19 11C23.4183 11 27 14.5817 27 19C27 23.4183 23.4183 27 19 27C14.5817 27 11 23.4183 11 19C11 14.5817 14.5817 11 19 11ZM19 13C15.6863 13 13 15.6863 13 19C13 22.3137 15.6863 25 19 25C22.3137 25 25 22.3137 25 19C25 15.6863 22.3137 13 19 13Z" fill="oklch(0.3523 0 0 / 1)" class="wd-expressive-fill"></path>
<path d="M42 11C45.3137 11 48 13.6863 48 17C48 20.3137 45.3137 23 42 23C38.6863 23 36 20.3137 36 17C36 13.6863 38.6863 11 42 11ZM42 13C39.7909 13 38 14.7909 38 17C38 19.2091 39.7909 21 42 21C44.2091 21 46 19.2091 46 17C46 14.7909 44.2091 13 42 13Z" fill="oklch(0.3523 0 0 / 1)" class="wd-expressive-fill"></path>
</g>
</svg>