<svg role="presentation" width="56" height="56" viewBox="0 0 56 56" xmlns="http://www.w3.org/2000/svg" class="wd-expressive wd-expressive-soccer-ball">
<g>
<path d="M35.6934 42.1636C36.1987 41.7478 36.8759 41.6056 37.5059 41.7827L43.041 43.3394C43.4223 43.4466 43.7513 43.6605 44 43.9429V45.8862C40.5278 48.9944 36.1463 51.1052 31.3027 51.772C31.1816 51.6385 31.0769 51.4882 30.9941 51.3228L29.2021 47.7397C29.3247 47.4874 29.5028 47.2583 29.7305 47.0708L35.6934 42.1636Z" fill="oklch(0.3057 0.079 256.22 / 0.13)" class="wd-expressive-accent"></path>
<path d="M7.58008 32.8032C7.83878 32.7926 8.10433 32.8311 8.36328 32.9282L14.6836 35.2983C15.2992 35.5292 15.7624 36.0482 15.9219 36.686L17.6113 43.4438C17.6724 43.6881 17.6838 43.9348 17.6543 44.1733L13.8193 46.0913C13.3735 46.3142 12.8634 46.36 12.3887 46.228C9.73655 43.9545 7.5852 41.1131 6.12598 37.8911L7.58008 32.8032Z" fill="oklch(0.3057 0.079 256.22 / 0.13)" class="wd-expressive-accent"></path>
<path d="M50.792 20.4653C51.575 22.8351 52 25.3683 52 28.0005C52 30.8869 51.4897 33.654 50.5557 36.2173C50.1261 36.0149 49.7771 35.6639 49.5801 35.2202L46.0078 27.1743C46.0557 26.727 46.2036 26.2893 46.4502 25.897L50 20.2495L50.792 20.4653Z" fill="oklch(0.3057 0.079 256.22 / 0.13)" class="wd-expressive-accent"></path>
<path d="M30.8438 18.5112C31.6774 18.2081 32.6115 18.4905 33.1377 19.2046L38.4072 26.356C38.4653 26.4348 38.5164 26.5174 38.5615 26.6021L34.3984 32.688C33.8726 33.4562 32.8855 33.7596 32.0186 33.4204L23.2715 29.9976C22.5049 29.6976 22.0001 28.9585 22 28.1353V21.8403C22.1672 21.7063 22.3574 21.597 22.5664 21.521L30.8438 18.5112Z" fill="oklch(0.3057 0.079 256.22 / 0.13)" class="wd-expressive-accent"></path>
<path d="M14.7891 9.57764C14.9279 9.8553 15 10.1617 15 10.4722V15.9517C15 16.6078 14.678 17.2226 14.1387 17.5962L9.40234 20.8745C9.18147 20.9563 8.9471 21.0004 8.70898 21.0005H5.03809C6.60987 15.8378 9.87401 11.4127 14.1855 8.37256L14.7891 9.57764Z" fill="oklch(0.3057 0.079 256.22 / 0.13)" class="wd-expressive-accent"></path>
<path d="M30.084 6.35107C33.9733 6.72083 37.5645 8.11288 40.584 10.2583L36.0723 11.2612C35.4049 11.4095 34.7071 11.2065 34.2236 10.7231L30.5273 7.02588C30.3283 6.82667 30.1813 6.59604 30.084 6.35107Z" fill="oklch(0.3057 0.079 256.22 / 0.13)" class="wd-expressive-accent"></path>
</g>
<path d="M28 3C28.907 3 29.8026 3.04939 30.6846 3.14355C30.6888 3.14395 30.693 3.14408 30.6973 3.14453C30.7794 3.15335 30.8614 3.16324 30.9434 3.17285C31.1286 3.19457 31.3131 3.21839 31.4971 3.24414C31.5547 3.25222 31.6124 3.26009 31.6699 3.26855C31.7763 3.2842 31.8824 3.3004 31.9883 3.31738C32.0744 3.33119 32.1603 3.34566 32.2461 3.36035C32.3462 3.37748 32.4462 3.39477 32.5459 3.41309C32.6056 3.42406 32.6651 3.43587 32.7246 3.44727C32.907 3.48214 33.0886 3.5188 33.2695 3.55762C33.3648 3.57806 33.4599 3.59859 33.5547 3.62012C33.6526 3.64234 33.7501 3.66608 33.8477 3.68945C33.907 3.70367 33.9663 3.71778 34.0254 3.73242C34.6006 3.87478 35.1678 4.03734 35.7266 4.21875C35.7372 4.22222 35.7481 4.22503 35.7588 4.22852C36.3321 4.41551 36.896 4.62313 37.4502 4.84961C37.4655 4.85585 37.4808 4.86189 37.4961 4.86816C43.4653 7.32126 48.2745 12.017 50.877 17.9072C50.891 17.9391 50.905 17.971 50.9189 18.0029C51.2926 18.8585 51.6209 19.7384 51.8984 20.6406C51.9054 20.6634 51.912 20.6862 51.9189 20.709C51.9815 20.9146 52.0412 21.1213 52.0986 21.3291C52.107 21.3593 52.1148 21.3897 52.123 21.4199C52.1727 21.6024 52.22 21.7857 52.2656 21.9697C52.2817 22.0347 52.2969 22.0999 52.3125 22.165C52.3539 22.3382 52.3939 22.512 52.4316 22.6865C52.4419 22.7341 52.4529 22.7815 52.4629 22.8291C52.5596 23.2889 52.6448 23.753 52.7158 24.2217C52.7219 24.2616 52.7265 24.3018 52.7324 24.3418C52.7604 24.5325 52.7859 24.7239 52.8096 24.916C52.8185 24.9882 52.8267 25.0605 52.835 25.1328C52.8515 25.2777 52.8678 25.4228 52.8818 25.5684C52.8914 25.6671 52.8998 25.7661 52.9082 25.8652C52.9214 26.0214 52.933 26.178 52.9434 26.335C52.9481 26.4072 52.9529 26.4794 52.957 26.5518C52.9685 26.753 52.9777 26.9548 52.9844 27.1572C52.9855 27.192 52.9873 27.2269 52.9883 27.2617C52.9954 27.507 53 27.753 53 28C53 28.1975 52.9977 28.3944 52.9932 28.5908C52.9916 28.6573 52.9884 28.7237 52.9863 28.79C52.9822 28.9215 52.9778 29.0527 52.9717 29.1836C52.9673 29.2785 52.9615 29.3732 52.9561 29.4678C52.9496 29.5787 52.9424 29.6893 52.9346 29.7998C52.9284 29.8859 52.922 29.9718 52.915 30.0576C52.9069 30.1571 52.8979 30.2563 52.8887 30.3555C52.8796 30.4523 52.8705 30.549 52.8604 30.6455C52.8504 30.7401 52.8391 30.8344 52.8281 30.9287C52.8158 31.0347 52.8037 31.1405 52.79 31.2461C52.7789 31.3319 52.7669 31.4174 52.7549 31.5029C52.7053 31.8566 52.6482 32.2079 52.584 32.5566C52.5584 32.6954 52.5318 32.8337 52.5039 32.9717C52.4889 33.046 52.4737 33.1202 52.458 33.1943C52.4311 33.3214 52.4028 33.4479 52.374 33.5742C52.3554 33.6558 52.3358 33.7371 52.3164 33.8184C52.2956 33.9058 52.2747 33.993 52.2529 34.0801C52.2269 34.1841 52.2011 34.2881 52.1738 34.3916C52.1593 34.4467 52.1448 34.5017 52.1299 34.5566C52.0897 34.7047 52.0477 34.852 52.0049 34.999C51.9933 35.0388 51.9815 35.0785 51.9697 35.1182C48.904 45.4573 39.3339 53 28 53C20.5701 53 13.8984 49.7578 9.31934 44.6123C9.29741 44.5877 9.27574 44.5628 9.25391 44.5381C9.14286 44.4123 9.03334 44.2852 8.9248 44.1572C8.89029 44.1165 8.85555 44.0761 8.82129 44.0352C8.25333 43.3566 7.72003 42.6481 7.22559 41.9111C7.19243 41.8617 7.16074 41.8114 7.12793 41.7617C7.03783 41.6253 6.94784 41.4888 6.86035 41.3506C6.84479 41.326 6.82993 41.301 6.81445 41.2764C6.71743 41.1219 6.62203 40.9663 6.52832 40.8096C6.49394 40.7521 6.45971 40.6945 6.42578 40.6367C6.35582 40.5175 6.28678 40.3978 6.21875 40.2773C6.16872 40.1888 6.11929 40.0999 6.07031 40.0107C6.02211 39.9229 5.97491 39.8345 5.92773 39.7461C5.87341 39.6443 5.81955 39.5421 5.7666 39.4395C3.99923 36.0114 3 32.1226 3 28C3 23.6562 4.10908 19.5719 6.05762 16.0127C6.07433 15.9822 6.09058 15.9514 6.10742 15.9209C6.29346 15.5844 6.48663 15.2525 6.6875 14.9258C6.71876 14.8749 6.75159 14.825 6.7832 14.7744C6.85998 14.6515 6.93678 14.5287 7.01562 14.4072C7.05244 14.3505 7.09066 14.2947 7.12793 14.2383C7.20261 14.1252 7.27706 14.0121 7.35352 13.9004C7.38615 13.8527 7.41919 13.8053 7.45215 13.7578C7.54502 13.6241 7.63898 13.4912 7.73438 13.3594C7.75392 13.3324 7.77332 13.3052 7.79297 13.2783C7.8916 13.1432 7.99152 13.009 8.09277 12.876C8.12258 12.8368 8.15259 12.7978 8.18262 12.7588C8.27968 12.6328 8.37814 12.5079 8.47754 12.3838C8.51717 12.3343 8.55765 12.2855 8.59766 12.2363C8.67692 12.1389 8.75622 12.0415 8.83691 11.9453C8.89568 11.8752 8.95513 11.8057 9.01465 11.7363C9.10267 11.6337 9.1916 11.5319 9.28125 11.4307C9.3149 11.3927 9.34796 11.3542 9.38184 11.3164C9.48506 11.2013 9.59 11.0878 9.69531 10.9746C9.73925 10.9274 9.78286 10.8799 9.82715 10.833C9.92061 10.7341 10.0153 10.6364 10.1104 10.5391C10.1512 10.4972 10.1913 10.4546 10.2324 10.4131C10.3383 10.3061 10.4459 10.2008 10.5537 10.0957C10.5984 10.0522 10.6425 10.008 10.6875 9.96484C10.9522 9.71066 11.2233 9.46314 11.499 9.2207C11.5323 9.19146 11.5652 9.16188 11.5986 9.13281C12.6945 8.17935 13.8739 7.31953 15.125 6.56641C15.1657 6.54188 15.2071 6.51844 15.248 6.49414C15.3809 6.41517 15.514 6.33632 15.6484 6.25977C15.7054 6.22733 15.7631 6.19606 15.8203 6.16406C15.9441 6.09486 16.0683 6.02613 16.1934 5.95898C16.2543 5.92628 16.3157 5.89452 16.377 5.8623C16.5065 5.79414 16.6367 5.72707 16.7676 5.66113C16.784 5.65288 16.8 5.64396 16.8164 5.63574C16.8228 5.63254 16.8295 5.63001 16.8359 5.62695C20.1964 3.94685 23.9874 3 28 3ZM19.7285 44.1084C19.5806 44.2481 19.4191 44.3762 19.2412 44.4854L19.0127 44.6123L14.7012 46.7676C18.4558 49.433 23.0449 51 28 51C28.5663 51 29.1276 50.9777 29.6836 50.9375L27.8184 47.2061C27.6902 46.9496 27.6039 46.6814 27.5537 46.4102L19.7285 44.1084ZM36.7354 39.9951C36.4214 39.9068 36.0825 39.9781 35.8291 40.1865L29.8662 45.0928C29.5067 45.3889 29.399 45.8943 29.6074 46.3115L31.793 50.6846C36.0321 49.9813 39.8796 48.1209 43 45.4336V42.5146C42.9998 42.0673 42.702 41.6742 42.2705 41.5527L36.7354 39.9951ZM10.0117 31.8643C9.46555 31.6598 8.86081 31.9648 8.7002 32.5264L7.19043 37.8047C8.54661 40.6776 10.4807 43.2246 12.8438 45.2969C13.025 45.312 13.2078 45.2784 13.3721 45.1963L18.1182 42.8232L18.2656 42.7334C18.5866 42.4962 18.7411 42.0835 18.6416 41.6855L16.9521 34.9287L16.915 34.8115C16.813 34.5466 16.6012 34.3353 16.332 34.2344L10.0117 31.8643ZM18.6367 33.7764C18.7465 33.9854 18.833 34.2084 18.8916 34.4424L20.5811 41.2012C20.6726 41.5674 20.6896 41.9372 20.6455 42.2949L27.874 44.4209C28.0532 44.0943 28.2933 43.796 28.5947 43.5479L34.5576 38.6416C34.6438 38.5707 34.7337 38.5056 34.8262 38.4453L32.665 34.5557C32.326 34.5464 31.9843 34.4807 31.6543 34.3516L22.9072 30.9287C22.5771 30.7995 22.2803 30.6149 22.0234 30.3896L18.6367 33.7764ZM44.6865 41.1846C44.887 41.5888 44.9999 42.0411 45 42.5146V43.4912C46.8323 41.4816 48.3117 39.1456 49.3438 36.5811C49.2656 36.5069 49.191 36.4291 49.1211 36.3467L44.6865 41.1846ZM40.5098 25C40.443 25.4341 40.2826 25.8574 40.0234 26.2363L35.2236 33.252C35.0468 33.5103 34.8331 33.7307 34.5967 33.916L36.8564 37.9844C36.9972 38.0029 37.1376 38.0303 37.2764 38.0693L42.8115 39.627C42.9643 39.6699 43.1111 39.7254 43.252 39.79L48.1445 34.4521L44.334 25.8652C44.2097 25.5851 44.1212 25.2945 44.0645 25H40.5098ZM5.79199 22C5.27643 23.9129 5 25.9242 5 28C5 30.3335 5.34804 32.5857 5.99414 34.708L6.77637 31.9756C6.98132 31.2593 7.42814 30.6823 8 30.3027V22H5.79199ZM46.2969 23.1787C45.9427 23.7422 45.8921 24.4459 46.1621 25.0547L50.1787 34.1055C50.4409 33.1511 50.6428 32.1718 50.7812 31.1719C50.7855 31.141 50.7898 31.1101 50.7939 31.0791C50.8581 30.6012 50.9061 30.1186 50.9404 29.6318C50.9782 29.0927 51 28.5487 51 28C51 26.1213 50.7726 24.2958 50.3477 22.5479C50.2659 22.2119 50.1773 21.8788 50.0811 21.5488C49.8026 20.5942 49.4638 19.6655 49.0693 18.7666L46.2969 23.1787ZM32.0938 16.4072L31.9355 16.4502L23.6582 19.4609C23.2631 19.6047 23.0002 19.9803 23 20.4004V28.1348L23.0117 28.2871C23.0654 28.6351 23.3004 28.934 23.6357 29.0654L32.3828 32.4883C32.8168 32.6581 33.3107 32.5065 33.5732 32.123L38.373 25.1074C38.6128 24.7567 38.6049 24.2917 38.3525 23.9492L33.083 16.7969C32.8528 16.4845 32.4659 16.3378 32.0938 16.4072ZM17.877 16.291C17.8221 16.3351 17.7664 16.3785 17.708 16.4189L10.416 21.4668C10.2838 21.5583 10.1439 21.6364 10 21.7051V29.8193C10.2386 29.8467 10.4781 29.9029 10.7139 29.9912L17.0352 32.3613C17.0804 32.3783 17.1248 32.397 17.1689 32.416L21.0303 28.5547C21.0108 28.4169 21 28.2767 21 28.1348V20.4004C21.0001 20.1039 21.0448 19.8153 21.127 19.541L17.877 16.291ZM36.2881 12.2383C36.0148 12.299 35.7383 12.3184 35.4658 12.3027L34.1094 15.0166C34.3263 15.1839 34.5238 15.3817 34.6924 15.6104L39.9619 22.7637C40.0183 22.8402 40.0689 22.9197 40.1172 23H44.1885C44.289 22.6923 44.4273 22.3946 44.6035 22.1143L48.0215 16.6758C46.7444 14.4228 45.0994 12.4061 43.166 10.709L36.2881 12.2383ZM16.8281 7.89258C12.068 10.5432 8.3484 14.8344 6.43164 20H8.70898L8.85938 19.9883C9.00877 19.9655 9.15183 19.9091 9.27734 19.8223L16.5693 14.7744C16.805 14.6112 16.9576 14.3556 16.9922 14.0742L17 13.9521V8.47168C16.9999 8.31613 16.9633 8.16317 16.8945 8.02539L16.8281 7.89258ZM28 5C24.6576 5 21.4818 5.713 18.6162 6.99512L18.6836 7.12891C18.8921 7.54593 18.9999 8.00702 19 8.47168V13.9521L18.9941 14.1357C18.986 14.2684 18.9676 14.3994 18.9424 14.5283L22.3262 17.9121C22.5252 17.7783 22.7422 17.6666 22.9746 17.582L31.252 14.5713L31.4883 14.4961C31.7188 14.4332 31.9528 14.3997 32.1855 14.3926L33.6182 11.5254C33.584 11.4943 33.5494 11.4635 33.5166 11.4307L29.8203 7.73438C29.0796 6.99346 28.8133 5.96938 29.0029 5.02246C28.6704 5.00819 28.3361 5 28 5ZM31.0312 5.19824C30.8644 5.56494 30.9294 6.01521 31.2344 6.32031L34.9307 10.0166C35.1723 10.2582 35.5207 10.3593 35.8545 10.2852L41.125 9.11328C39.3025 7.844 37.2885 6.83165 35.1348 6.12891C34.8968 6.05134 34.6573 5.97718 34.416 5.90723C33.9938 5.78472 33.5666 5.67373 33.1348 5.5752C32.4449 5.41789 31.7432 5.29197 31.0312 5.19824Z" fill="oklch(0.3523 0 0 / 1)" class="wd-expressive-fill"></path>
</svg>