<svg role="presentation" width="56" height="56" viewBox="0 0 56 56" xmlns="http://www.w3.org/2000/svg" class="wd-expressive wd-expressive-shield-benefits-forward">
<g>
<path d="M10.6748 9.2041C10.2401 9.57067 10.0001 10.115 10 10.6836V20.2461C10 28.0763 13.1107 35.5863 18.6475 41.123C21.4867 43.9623 24.8459 46.1603 28.5 47.6309V50.1562C28.5005 50.819 28.663 51.4442 28.9492 51.9951C28.8465 52.0339 28.7448 52.0756 28.6416 52.1133C28.2267 52.2648 27.7714 52.2649 27.3564 52.1133C23.1586 50.5787 19.3002 48.141 16.0791 44.9199C10.2657 39.1063 7 31.2215 7 23V12.915C7 12.3461 7.24035 11.8009 7.6748 11.4336C8.65332 10.6064 9.68341 9.8384 10.7588 9.13379C10.7309 9.15716 10.7026 9.18063 10.6748 9.2041Z" fill="oklch(0.3057 0.079 256.22 / 0.13)" class="wd-expressive-accent"></path>
<path d="M43 34.5C43 34.0301 43.5892 33.8199 43.8867 34.1836L49.7402 41.3369C49.8907 41.521 49.8906 41.7856 49.7402 41.9697L43.8867 49.124C43.5892 49.4872 43.0004 49.2771 43 48.8076V44.7646C41.0437 44.9808 39.1817 45.5099 37.4658 46.3018C35.3906 47.2595 34.0924 49.126 33.4609 51.2793C33.3965 51.4985 33.1982 51.6542 32.9697 51.6543H32.5C32.2239 51.6543 32.0002 51.4303 32 51.1543V48.4834C32 45.0701 33.3692 41.6321 36.4346 40.1309C38.4519 39.1429 40.6651 38.4936 43 38.2559V34.5Z" fill="oklch(0.3057 0.079 256.22 / 0.13)" class="wd-expressive-accent"></path>
<path d="M20.3535 29.3545C20.1267 29.8564 20.001 30.4135 20.001 31C20.001 33.2091 21.7918 35 24.001 35C24.5878 34.9999 25.1444 34.8717 25.6465 34.6445C25.0191 36.0329 23.6235 36.9998 22.001 37C19.7918 37 18.001 35.2091 18.001 33C18.001 31.3783 18.9663 29.9824 20.3535 29.3545Z" fill="oklch(0.3057 0.079 256.22 / 0.13)" class="wd-expressive-accent"></path>
<path d="M32.3535 29.3545C32.1267 29.8564 32.001 30.4135 32.001 31C32.001 33.2091 33.7918 35 36.001 35C36.5878 34.9999 37.1444 34.8717 37.6465 34.6445C37.0191 36.0329 35.6235 36.9998 34.001 37C31.7918 37 30.001 35.2091 30.001 33C30.001 31.3783 30.9663 29.9824 32.3535 29.3545Z" fill="oklch(0.3057 0.079 256.22 / 0.13)" class="wd-expressive-accent"></path>
<path d="M47.8965 31.1885C47.804 31.5262 47.7054 31.8621 47.6016 32.1963L47.5156 32.0918C47.6467 31.7924 47.7754 31.492 47.8965 31.1885Z" fill="oklch(0.3057 0.079 256.22 / 0.13)" class="wd-expressive-accent"></path>
<path d="M32.002 15.1367C32.0639 17.1414 33.5 17.4784 33.5 20.6602C33.5 21.5357 34 22.1602 35 22.1602V21.5C36 23 37 23.5 38.5 22.5C38.5 22.5 38.5 23.0521 38.5 23.6602C38.5 24.5357 38 25.1602 37 25.1602C36 25.1602 35 24.1602 35 23.1602C35 24.1602 34 25.1602 33 25.1602C32 25.1602 31.5 24.5357 31.5 23.6602C31.5 20.4084 30.0001 20.128 30 18.002C30 16.6571 30.8418 15.5186 32.002 15.1367Z" fill="oklch(0.3057 0.079 256.22 / 0.13)" class="wd-expressive-accent"></path>
<path d="M17.2119 15.1494C16.8707 16.2308 17.1391 17.4682 18.0312 18.3105L22.999 23.001L26.4219 19.7686C26.2942 19.9616 26.143 20.1441 25.9668 20.3105L20.999 25.001L16.0312 20.3105C14.7062 19.0594 14.7557 16.936 16.1377 15.748C16.4639 15.4678 16.8301 15.2702 17.2119 15.1494Z" fill="oklch(0.3057 0.079 256.22 / 0.13)" class="wd-expressive-accent"></path>
</g>
<g>
<path d="M28.0117 2.95703L28.7656 2.96582H28.7783C36.4771 3.1467 43.5163 6.00159 48.999 10.6367C49.6798 11.2123 50.0438 12.0543 50.0439 12.9141V23C50.0439 23.0075 50.0422 23.015 50.042 23.0225C50.0419 23.1782 50.0395 23.3338 50.0371 23.4893C50.0371 23.4928 50.0381 23.4964 50.0381 23.5C50.0378 23.5202 50.0365 23.5404 50.0361 23.5605C50.0355 23.5947 50.0349 23.6289 50.0342 23.6631C50.0307 23.8306 50.0256 23.9979 50.0195 24.165C50.0184 24.1957 50.0168 24.2262 50.0156 24.2568C50.0019 24.6063 49.9831 24.9549 49.958 25.3027C49.9562 25.3284 49.955 25.3542 49.9531 25.3799C49.9119 25.9338 49.8548 26.4852 49.7852 27.0342C49.7803 27.0722 49.7765 27.1104 49.7715 27.1484C49.5409 28.9142 49.1649 30.6517 48.6494 32.3428C48.5687 32.6065 48.2871 32.7505 48.0244 32.666L46.9902 32.334C46.7273 32.2494 46.5828 31.9674 46.6631 31.7031C46.8046 31.2371 46.934 30.7671 47.0527 30.2939C47.6467 27.9283 47.955 25.4801 47.9551 23C47.9551 22.9938 47.9559 22.9876 47.9561 22.9814V12.9141C47.9559 12.6364 47.8392 12.3893 47.6514 12.2305C42.5193 7.89182 35.9347 5.22106 28.7295 5.05176L28 5.04297C20.5097 5.04297 13.6532 7.74608 8.34863 12.2305C8.16069 12.3894 8.04395 12.6372 8.04395 12.915V23L8.05273 23.7441C8.24323 31.4193 11.3753 38.7394 16.8174 44.1816C19.746 47.1103 23.2201 49.3683 27 50.8604C27.237 50.9539 27.4745 51.0463 27.7139 51.1338C27.8971 51.2006 28.0989 51.2004 28.2822 51.1338C28.4741 51.0637 28.6883 51.1596 28.7607 51.3506L29.2295 52.5869C29.3066 52.7907 29.2038 53.0189 28.999 53.0938C28.3529 53.3297 27.6432 53.3299 26.9971 53.0938C26.7335 52.9974 26.4718 52.8962 26.2109 52.793C26.1963 52.7872 26.1817 52.7812 26.167 52.7754C25.1114 52.356 24.0785 51.8802 23.0723 51.3506C23.0492 51.3385 23.026 51.3266 23.0029 51.3145C22.515 51.0561 22.0332 50.7855 21.5586 50.502C21.5338 50.4871 21.5092 50.4719 21.4844 50.457C21.2641 50.3246 21.0453 50.1896 20.8281 50.0518C20.8084 50.0392 20.7883 50.0272 20.7686 50.0146C20.5534 49.8775 20.34 49.7372 20.1279 49.5947C20.0651 49.5526 20.003 49.5094 19.9404 49.4668C19.7801 49.3575 19.6204 49.2471 19.4619 49.1348C19.4076 49.0963 19.3529 49.0584 19.2988 49.0195C19.1172 48.889 18.9369 48.7565 18.7578 48.6221C18.7539 48.6192 18.7508 48.6153 18.7471 48.6123C17.5508 47.7136 16.4112 46.7286 15.3408 45.6582C9.33173 39.6489 5.95606 31.4983 5.95605 23V12.915C5.95605 12.0551 6.32002 11.2124 7.00098 10.6367C12.6682 5.8457 19.9982 2.95605 28 2.95605L28.0117 2.95703ZM48.6895 22.0029C48.6845 22.0045 48.6797 22.0062 48.6748 22.0078C48.7119 21.9955 48.7501 21.9855 48.7891 21.9775L48.6895 22.0029Z" fill="oklch(0.3523 0 0 / 1)" class="wd-expressive-fill"></path>
<path d="M42 34.5C42 33.0897 43.7688 32.4602 44.6611 33.5508L44.6602 33.5518L50.5146 40.7041C50.9382 41.2223 50.9636 41.9522 50.5938 42.4961L50.5146 42.6025L44.6611 49.7568L44.6602 49.7578C43.7676 50.8472 42.0013 50.217 42 48.8086V45.9209C40.5569 46.1775 39.1766 46.6138 37.8848 47.21C36.1377 48.0164 34.9939 49.6063 34.4209 51.5605C34.2492 52.1456 33.734 52.5944 33.0986 52.6484L32.9697 52.6543H32.5C31.7233 52.6543 31.0846 52.064 31.0078 51.3076L31 51.1543V48.4834C31 44.8583 32.4569 40.9652 35.9951 39.2324C37.8561 38.3211 39.8754 37.6836 42 37.3721V34.5ZM44 38.2559C44 38.7688 43.6119 39.1989 43.1016 39.251C40.8864 39.4765 38.7871 40.0924 36.874 41.0293C34.2816 42.2992 33 45.282 33 48.4834V49.6387C33.801 47.8418 35.1171 46.2842 37.0469 45.3936C38.8591 44.5573 40.8257 43.9987 42.8906 43.7705C43.173 43.7394 43.4553 43.8301 43.667 44.0195C43.8788 44.2092 44 44.4803 44 44.7646V47.4062L48.707 41.6523L44 35.8994V38.2559Z" fill="oklch(0.3523 0 0 / 1)" class="wd-expressive-fill"></path>
<path d="M22 28C24.1363 28 25.9577 29.3405 26.6738 31.2256C27.0891 31.0797 27.5355 31 28 31C28.4642 31 28.9102 31.0799 29.3252 31.2256C29.4391 30.9253 29.5826 30.6349 29.7539 30.3594C30.3055 29.4724 31.1219 28.7806 32.0869 28.3809C33.052 27.9812 34.1185 27.8937 35.1357 28.1309C36.1528 28.3681 37.0701 28.918 37.7588 29.7031C37.8431 29.7992 37.9237 29.8983 38 30H40.5C40.7761 30 41 30.2239 41 30.5V31.5C41 31.7761 40.7761 32 40.5 32H38.8975C38.9318 32.168 38.9587 32.338 38.9756 32.5098C39.0615 33.3829 38.9158 34.261 38.5576 35.0557C38.4441 35.3072 38.1356 35.388 37.8965 35.25L37.0303 34.75C36.7915 34.6119 36.7143 34.3074 36.8105 34.0488C36.9695 33.6226 37.0303 33.163 36.9854 32.7061C36.9239 32.0824 36.6691 31.4927 36.2559 31.0215C35.8427 30.5504 35.2919 30.2205 34.6816 30.0781C34.0713 29.9358 33.4306 29.9887 32.8516 30.2285C32.2728 30.4684 31.783 30.884 31.4521 31.416C31.1214 31.9481 30.9659 32.5711 31.0068 33.1963C31.0479 33.8216 31.2832 34.4189 31.6807 34.9033C31.972 35.2583 32.34 35.5396 32.7539 35.7285C33.005 35.8432 33.1652 36.1142 33.0938 36.3809L32.835 37.3477C32.7634 37.6141 32.4885 37.7743 32.2305 37.6768C31.4152 37.3681 30.6914 36.8501 30.1348 36.1719C29.4722 35.3644 29.0791 34.3694 29.0107 33.3271C29.0096 33.3092 29.0088 33.2913 29.0078 33.2734C28.7118 33.1001 28.3684 33 28 33C27.6313 33 27.2874 33.0999 26.9912 33.2734C26.8492 35.9077 24.6697 38 22 38C19.2386 38 17 35.7614 17 33C17 32.6575 17.035 32.3231 17.1006 32H15.5C15.2239 32 15 31.7761 15 31.5V30.5C15 30.2239 15.2239 30 15.5 30H18C18.9122 28.7857 20.3643 28 22 28ZM22 30C20.3431 30 19 31.3431 19 33C19 34.6569 20.3431 36 22 36C23.6569 36 25 34.6569 25 33C25 31.3431 23.6569 30 22 30Z" fill="oklch(0.3523 0 0 / 1)" class="wd-expressive-fill"></path>
<path d="M37.1426 13.8398C39.3188 13.8398 41 15.6788 41 17.8418C40.9999 19.1866 40.4919 20.0078 40.1426 20.6992C39.8172 21.3432 39.5 22.0714 39.5 23.5C39.5 24.1222 39.3208 24.7672 38.8535 25.2637C38.3765 25.7704 37.7148 26 37 26C36.2166 26 35.5107 25.6349 35 25.1572C34.4893 25.6349 33.7834 26 33 26C32.2852 26 31.6235 25.7704 31.1465 25.2637C30.6792 24.7672 30.5 24.1222 30.5 23.5C30.5 22.0714 30.1828 21.3432 29.8574 20.6992C29.5081 20.0078 29.0001 19.1866 29 17.8418C29 15.6788 30.6812 13.8398 32.8574 13.8398C33.2778 13.8399 33.71 13.8838 34.1299 14.002C34.6447 14.1468 35.3553 14.1468 35.8701 14.002C36.29 13.8838 36.7222 13.8399 37.1426 13.8398ZM37.1426 15.8398C36.8581 15.8399 36.6154 15.8706 36.4121 15.9277C35.543 16.1723 34.457 16.1723 33.5879 15.9277C33.3846 15.8706 33.1419 15.8399 32.8574 15.8398C31.8777 15.8398 31 16.6892 31 17.8418C31 18.6228 31.2419 19.0048 31.6426 19.7979C32.0672 20.6385 32.5 21.6768 32.5 23.5C32.5 23.7532 32.571 23.858 32.6035 23.8926C32.6266 23.917 32.7149 24 33 24C33.1748 24 33.4333 23.9026 33.668 23.668C33.9026 23.4333 34 23.1748 34 23V21.5C34 21.2239 34.2239 21 34.5 21H35.5C35.7761 21 36 21.2239 36 21.5V23C36 23.1748 36.0974 23.4333 36.332 23.668C36.5667 23.9026 36.8252 24 37 24C37.2851 24 37.3734 23.917 37.3965 23.8926C37.429 23.858 37.5 23.7532 37.5 23.5C37.5 21.6768 37.9328 20.6385 38.3574 19.7979C38.7581 19.0048 39 18.6228 39 17.8418C39 16.6892 38.1223 15.8398 37.1426 15.8398Z" fill="oklch(0.3523 0 0 / 1)" class="wd-expressive-fill"></path>
<path d="M20.9307 15.1729C22.3966 13.7224 24.7993 13.5685 26.4453 14.9834C28.2775 16.5586 28.3414 19.3741 26.585 21.0322L21.6172 25.7227C21.2319 26.0862 20.6294 26.0862 20.2441 25.7227L15.2764 21.0322C13.5197 19.3737 13.586 16.5582 15.418 14.9834C17.0639 13.5693 19.465 13.7226 20.9307 15.1729ZM19.8418 16.9961C19.1778 15.9029 17.6907 15.6674 16.7207 16.501C15.7892 17.3022 15.7561 18.7336 16.6494 19.5771L20.9307 23.6191L25.2119 19.5771C26.1058 18.7331 26.0722 17.3019 25.1406 16.501C24.1707 15.6673 22.6836 15.9028 22.0195 16.9961L21.7852 17.3828C21.6037 17.6811 21.2798 17.8633 20.9307 17.8633C20.5815 17.8633 20.2576 17.6811 20.0762 17.3828L19.8418 16.9961Z" fill="oklch(0.3523 0 0 / 1)" class="wd-expressive-fill"></path>
</g>
</svg>