<svg role="presentation" width="56" height="56" viewBox="0 0 56 56" xmlns="http://www.w3.org/2000/svg" class="wd-expressive wd-expressive-happy-face">
<path d="M5.30273 20.1807C5.10383 21.4245 5 22.7001 5 24C5 37.2548 15.7452 48 29 48C39.5173 48 48.4533 41.2344 51.6963 31.8184C49.8672 43.2583 39.9552 52 28 52C14.7452 52 4 41.2548 4 28C4 25.2623 4.45851 22.6317 5.30273 20.1807Z" fill="oklch(0.3057 0.079 256.22 / 0.13)" class="wd-expressive-accent"></path>
<g>
<path d="M40.0742 31.2344L40.5566 31.3643L41.041 31.4932C41.3077 31.5646 41.4666 31.8396 41.3857 32.1035C40.5336 34.8825 38.8348 37.333 36.5225 39.1074C34.0777 40.9832 31.0815 41.9999 28 42C24.9185 41.9999 21.9224 40.9832 19.4775 39.1074C17.1651 37.3329 15.4673 34.8825 14.6152 32.1035C14.5343 31.8395 14.6932 31.5646 14.96 31.4932L15.4434 31.3643L15.9268 31.2344C16.1934 31.1631 16.4663 31.3225 16.5488 31.5859C17.2859 33.9397 18.7322 36.0141 20.6953 37.5205C22.7908 39.1283 25.3588 39.9999 28 40C30.6412 39.9999 33.2092 39.1282 35.3047 37.5205C37.2677 36.0141 38.7151 33.9396 39.4521 31.5859C39.5347 31.3224 39.8075 31.1629 40.0742 31.2344Z" fill="oklch(0.3523 0 0 / 1)" class="wd-expressive-fill"></path>
<path d="M19 18C22.1453 18.0001 24.7254 20.4203 24.9795 23.5C25.0022 23.7752 24.7761 23.9999 24.5 24H23.5C23.2239 24 23.0029 23.775 22.9688 23.501C22.7231 21.5274 21.0401 20.0001 19 20C16.9599 20.0001 15.2759 21.5274 15.0303 23.501C14.9962 23.7749 14.7761 23.9999 14.5 24H13.5C13.2239 24 12.9978 23.7752 13.0205 23.5C13.2746 20.4203 15.8547 18.0001 19 18Z" fill="oklch(0.3523 0 0 / 1)" class="wd-expressive-fill"></path>
<path d="M37 18C40.1451 18.0002 42.7254 20.4204 42.9795 23.5C43.0022 23.7752 42.7761 24 42.5 24H41.5C41.2241 23.9998 41.0038 23.7749 40.9697 23.501C40.7241 21.5275 39.04 20.0002 37 20C34.96 20.0002 33.2768 21.5275 33.0312 23.501C32.9971 23.775 32.7761 24 32.5 24H31.5C31.2241 23.9998 30.9978 23.7751 31.0205 23.5C31.2746 20.4204 33.8549 18.0002 37 18Z" fill="oklch(0.3523 0 0 / 1)" class="wd-expressive-fill"></path>
<path d="M28 3C41.8071 3 53 14.1929 53 28C53 41.8071 41.8071 53 28 53C14.1929 53 3 41.8071 3 28C3 14.1929 14.1929 3 28 3ZM28 5C15.2975 5 5 15.2975 5 28C5 40.7025 15.2975 51 28 51C40.7025 51 51 40.7025 51 28C51 15.2975 40.7025 5 28 5Z" fill="oklch(0.3523 0 0 / 1)" class="wd-expressive-fill"></path>
</g>
</svg>