<svg role="presentation" width="56" height="56" viewBox="0 0 56 56" xmlns="http://www.w3.org/2000/svg" class="wd-expressive wd-expressive-folder-documents-user">
<g>
<path d="M12 23.5C12 23.776 12.224 23.9998 12.5 24H9.5C9.22401 24.0002 9 24.224 9 24.5V43C9 44.9033 8.4096 46.6691 7.40137 48.123C7.15535 48.4782 7.39504 49 7.82715 49H5.5C5.22401 48.9998 5 48.776 5 48.5V13.5C5 13.224 5.22401 13.0002 5.5 13H12V23.5Z" fill="oklch(0.3057 0.079 256.22 / 0.13)" class="wd-expressive-accent"></path>
<path d="M17.5 10C17.7761 10 18 10.2239 18 10.5V23.5L18.0098 23.6006C18.0563 23.8284 18.2584 23.9998 18.5 24H13.5C13.224 23.9999 13 23.7761 13 23.5V10.5C13 10.2239 13.224 10.0001 13.5 10H17.5Z" fill="oklch(0.3057 0.079 256.22 / 0.13)" class="wd-expressive-accent"></path>
<path d="M46.5 18C46.7761 18.0001 47 18.2239 47 18.5V24H41.5C41.7761 23.9999 42 23.7761 42 23.5V18H46.5Z" fill="oklch(0.3057 0.079 256.22 / 0.13)" class="wd-expressive-accent"></path>
<path d="M27 16C28.5365 16 29.9385 16.5775 31 17.5273V20H23V17.5273C24.0614 16.5774 25.4634 16.0001 27 16Z" fill="oklch(0.3057 0.079 256.22 / 0.13)" class="wd-expressive-accent"></path>
<path d="M27 11C28.1046 11 29 11.8954 29 13C29 14.1046 28.1046 15 27 15C25.8955 14.9999 25 14.1045 25 13C25 11.8955 25.8955 11.0001 27 11Z" fill="oklch(0.3057 0.079 256.22 / 0.13)" class="wd-expressive-accent"></path>
</g>
<g>
<path d="M26 10C27.6569 10 29 11.3431 29 13C29 13.911 28.5922 14.7252 27.9512 15.2754C28.9719 15.571 29.8967 16.0929 30.667 16.7822C30.8788 16.9718 30.9999 17.2431 31 17.5273V20C31 20.5523 30.5523 21 30 21H22C21.4477 21 21 20.5523 21 20V17.5273C21.0001 17.2431 21.1212 16.9718 21.333 16.7822C22.103 16.0931 23.0275 15.5711 24.0479 15.2754C23.4072 14.7252 23 13.9108 23 13C23 11.3431 24.3431 10 26 10ZM26 17C24.8736 17 23.8359 17.3718 23 18V19H29V18C28.1641 17.3718 27.1264 17 26 17ZM26 12C25.4477 12 25 12.4477 25 13C25 13.5523 25.4477 14 26 14C26.5523 14 27 13.5523 27 13C27 12.4477 26.5523 12 26 12Z" fill="oklch(0.3523 0 0 / 1)" class="wd-expressive-fill"></path>
<path d="M38.5 19C38.7761 19 39 19.2239 39 19.5V20.5C39 20.7761 38.7761 21 38.5 21H33.5C33.2239 21 33 20.7761 33 20.5V19.5C33 19.2239 33.2239 19 33.5 19H38.5Z" fill="oklch(0.3523 0 0 / 1)" class="wd-expressive-fill"></path>
<path d="M38.5 15C38.7761 15 39 15.2239 39 15.5V16.5C39 16.7761 38.7761 17 38.5 17H33.5C33.2239 17 33 16.7761 33 16.5V15.5C33 15.2239 33.2239 15 33.5 15H38.5Z" fill="oklch(0.3523 0 0 / 1)" class="wd-expressive-fill"></path>
<path d="M41 6C42.1046 6 43 6.89543 43 8V17H45C46.6568 17 47.9999 18.3432 48 20V23H49C50.6567 23.0002 52 24.3433 52 26V43C52 45.203 51.2864 47.2424 50.0781 48.8955C49.5234 49.6543 48.6462 49.9999 47.8145 50H7C5.34315 50 4 48.6569 4 47V15C4.00006 13.3432 5.34318 12 7 12H12V11C12 9.89543 12.8954 9 14 9H17V8C17 6.89543 17.8954 6 19 6H41ZM11 25C10.4479 25.0002 10 25.4478 10 26V43C10 44.8213 9.51044 46.5288 8.65918 48H47.8145C48.1197 47.9999 48.3462 47.875 48.4629 47.7158C49.3689 46.4763 49.927 44.9669 49.9932 43.3291L50 43V26C50 25.4478 49.5521 25.0002 49 25H11ZM7 14C6.44775 14 6.00006 14.4478 6 15V47C6 47.327 6.1577 47.6164 6.40039 47.7988C7.33357 46.5567 7.9136 45.0358 7.99121 43.3818L8 43V26C8 24.3432 9.34329 23.0002 11 23H12V14H7ZM19 23H41V8H19V23ZM43 23H46V20C45.9999 19.4478 45.5522 19 45 19H43V23ZM14 23H17V11H14V23Z" fill="oklch(0.3523 0 0 / 1)" class="wd-expressive-fill"></path>
</g>
</svg>