<svg role="presentation" width="56" height="56" viewBox="0 0 56 56" xmlns="http://www.w3.org/2000/svg" class="wd-expressive wd-expressive-calendar">
<path d="M47 19H10V43H49V46H7V12H47V19Z" fill="oklch(0.3057 0.079 256.22 / 0.13)" class="wd-expressive-accent"></path>
<g>
<path d="M14 37.75C14.9665 37.75 15.75 38.5335 15.75 39.5C15.75 40.4665 14.9665 41.25 14 41.25C13.0335 41.25 12.25 40.4665 12.25 39.5C12.25 38.5335 13.0335 37.75 14 37.75Z" fill="oklch(0.3523 0 0 / 1)" class="wd-expressive-fill"></path>
<path d="M21 37.75C21.9665 37.75 22.75 38.5335 22.75 39.5C22.75 40.4665 21.9665 41.25 21 41.25C20.0335 41.25 19.25 40.4665 19.25 39.5C19.25 38.5335 20.0335 37.75 21 37.75Z" fill="oklch(0.3523 0 0 / 1)" class="wd-expressive-fill"></path>
<path d="M28 37.75C28.9665 37.75 29.75 38.5335 29.75 39.5C29.75 40.4665 28.9665 41.25 28 41.25C27.0335 41.25 26.25 40.4665 26.25 39.5C26.25 38.5335 27.0335 37.75 28 37.75Z" fill="oklch(0.3523 0 0 / 1)" class="wd-expressive-fill"></path>
<path d="M14 32.75C14.9665 32.75 15.75 33.5335 15.75 34.5C15.75 35.4665 14.9665 36.25 14 36.25C13.0335 36.25 12.25 35.4665 12.25 34.5C12.25 33.5335 13.0335 32.75 14 32.75Z" fill="oklch(0.3523 0 0 / 1)" class="wd-expressive-fill"></path>
<path d="M21 32.75C21.9665 32.75 22.75 33.5335 22.75 34.5C22.75 35.4665 21.9665 36.25 21 36.25C20.0335 36.25 19.25 35.4665 19.25 34.5C19.25 33.5335 20.0335 32.75 21 32.75Z" fill="oklch(0.3523 0 0 / 1)" class="wd-expressive-fill"></path>
<path d="M28 32.75C28.9665 32.75 29.75 33.5335 29.75 34.5C29.75 35.4665 28.9665 36.25 28 36.25C27.0335 36.25 26.25 35.4665 26.25 34.5C26.25 33.5335 27.0335 32.75 28 32.75Z" fill="oklch(0.3523 0 0 / 1)" class="wd-expressive-fill"></path>
<path d="M35 32.75C35.9665 32.75 36.75 33.5335 36.75 34.5C36.75 35.4665 35.9665 36.25 35 36.25C34.0335 36.25 33.25 35.4665 33.25 34.5C33.25 33.5335 34.0335 32.75 35 32.75Z" fill="oklch(0.3523 0 0 / 1)" class="wd-expressive-fill"></path>
<path d="M42 32.75C42.9665 32.75 43.75 33.5335 43.75 34.5C43.75 35.4665 42.9665 36.25 42 36.25C41.0335 36.25 40.25 35.4665 40.25 34.5C40.25 33.5335 41.0335 32.75 42 32.75Z" fill="oklch(0.3523 0 0 / 1)" class="wd-expressive-fill"></path>
<path d="M14 27.75C14.9665 27.75 15.75 28.5335 15.75 29.5C15.75 30.4665 14.9665 31.25 14 31.25C13.0335 31.25 12.25 30.4665 12.25 29.5C12.25 28.5335 13.0335 27.75 14 27.75Z" fill="oklch(0.3523 0 0 / 1)" class="wd-expressive-fill"></path>
<path d="M21 27.75C21.9665 27.75 22.75 28.5335 22.75 29.5C22.75 30.4665 21.9665 31.25 21 31.25C20.0335 31.25 19.25 30.4665 19.25 29.5C19.25 28.5335 20.0335 27.75 21 27.75Z" fill="oklch(0.3523 0 0 / 1)" class="wd-expressive-fill"></path>
<path d="M28 27.75C28.9665 27.75 29.75 28.5335 29.75 29.5C29.75 30.4665 28.9665 31.25 28 31.25C27.0335 31.25 26.25 30.4665 26.25 29.5C26.25 28.5335 27.0335 27.75 28 27.75Z" fill="oklch(0.3523 0 0 / 1)" class="wd-expressive-fill"></path>
<path d="M35 27.75C35.9665 27.75 36.75 28.5335 36.75 29.5C36.75 30.4665 35.9665 31.25 35 31.25C34.0335 31.25 33.25 30.4665 33.25 29.5C33.25 28.5335 34.0335 27.75 35 27.75Z" fill="oklch(0.3523 0 0 / 1)" class="wd-expressive-fill"></path>
<path d="M42 27.75C42.9665 27.75 43.75 28.5335 43.75 29.5C43.75 30.4665 42.9665 31.25 42 31.25C41.0335 31.25 40.25 30.4665 40.25 29.5C40.25 28.5335 41.0335 27.75 42 27.75Z" fill="oklch(0.3523 0 0 / 1)" class="wd-expressive-fill"></path>
<path d="M35 22.75C35.9665 22.75 36.75 23.5335 36.75 24.5C36.75 25.4665 35.9665 26.25 35 26.25C34.0335 26.25 33.25 25.4665 33.25 24.5C33.25 23.5335 34.0335 22.75 35 22.75Z" fill="oklch(0.3523 0 0 / 1)" class="wd-expressive-fill"></path>
<path d="M42 22.75C42.9665 22.75 43.75 23.5335 43.75 24.5C43.75 25.4665 42.9665 26.25 42 26.25C41.0335 26.25 40.25 25.4665 40.25 24.5C40.25 23.5335 41.0335 22.75 42 22.75Z" fill="oklch(0.3523 0 0 / 1)" class="wd-expressive-fill"></path>
<path d="M40 5C41.6569 5 43 6.34315 43 8V9H47C48.6569 9 50 10.3431 50 12V44C50 45.6569 48.6569 47 47 47H9C7.34315 47 6 45.6569 6 44V12C6 10.3431 7.34315 9 9 9H13V8C13 6.34315 14.3431 5 16 5C17.6569 5 19 6.34315 19 8V9H37V8C37 6.34315 38.3431 5 40 5ZM8 44C8 44.5523 8.44772 45 9 45H47C47.5523 45 48 44.5523 48 44V20H8V44ZM9 11C8.44772 11 8 11.4477 8 12V18H48V12C48 11.4477 47.5523 11 47 11H43C43 12.6569 41.6569 14 40 14C38.3949 14 37.0842 12.7394 37.0039 11.1543L37 11H19C19 12.6569 17.6569 14 16 14C14.3949 14 13.0842 12.7394 13.0039 11.1543L13 11H9ZM16 7C15.4477 7 15 7.44772 15 8V11L15.0049 11.1025C15.0562 11.6067 15.4823 12 16 12C16.5523 12 17 11.5523 17 11V8C17 7.44772 16.5523 7 16 7ZM40 7C39.4477 7 39 7.44772 39 8V11L39.0049 11.1025C39.0562 11.6067 39.4823 12 40 12C40.5523 12 41 11.5523 41 11V8C41 7.44772 40.5523 7 40 7Z" fill="oklch(0.3523 0 0 / 1)" class="wd-expressive-fill"></path>
</g>
</svg>