<svg role="presentation" width="56" height="56" viewBox="0 0 56 56" xmlns="http://www.w3.org/2000/svg" class="wd-expressive wd-expressive-team-survey">
<g>
<path d="M16 41C18.6892 41 21.1424 42.0112 23 43.6738V44.1387C21.1961 45.9077 18.7261 47 16 47C13.2739 47 10.8039 45.9077 9 44.1387V43.6738C10.8576 42.0112 13.3108 41 16 41Z" fill="oklch(0.3057 0.079 256.22 / 0.13)" class="wd-expressive-accent"></path>
<path d="M41 41C43.6892 41 46.1424 42.0112 48 43.6738V44.1387C46.1961 45.9077 43.7262 47 41 47C38.2739 47 35.8039 45.9077 34 44.1387V43.6738C35.8576 42.0112 38.3108 41 41 41Z" fill="oklch(0.3057 0.079 256.22 / 0.13)" class="wd-expressive-accent"></path>
<path d="M31.3232 39.5303C31.6728 40.8709 32.2951 42.1007 33.125 43.1602C31.5159 43.7039 29.7926 44 28 44C26.5014 44 25.0514 43.7925 23.6758 43.4072C24.5562 42.3536 25.2217 41.1162 25.6104 39.7607C26.3827 39.9168 27.1816 40 28 40C29.1533 40 30.2676 39.834 31.3232 39.5303Z" fill="oklch(0.3057 0.079 256.22 / 0.13)" class="wd-expressive-accent"></path>
<path d="M16 32C17.6569 32 19 33.3431 19 35C19 36.6569 17.6569 38 16 38C14.3431 38 13 36.6569 13 35C13 33.3431 14.3431 32 16 32Z" fill="oklch(0.3057 0.079 256.22 / 0.13)" class="wd-expressive-accent"></path>
<path d="M41 32C42.6569 32 44 33.3431 44 35C44 36.6569 42.6569 38 41 38C39.3431 38 38 36.6569 38 35C38 33.3431 39.3431 32 41 32Z" fill="oklch(0.3057 0.079 256.22 / 0.13)" class="wd-expressive-accent"></path>
<path d="M21 18.2559C18.2266 20.2518 16.3378 23.3997 16.041 27.001C16.0273 27.0009 16.0137 27 16 27C14.5783 27 13.2265 27.2982 12.002 27.833C12.0659 21.5778 15.7187 16.1832 21 13.6094V18.2559Z" fill="oklch(0.3057 0.079 256.22 / 0.13)" class="wd-expressive-accent"></path>
<path d="M36 14.1406C40.6348 16.8218 43.7984 21.761 43.9893 27.4541C43.0454 27.1588 42.0412 27 41 27C40.6495 27 40.3031 27.0175 39.9619 27.0527C39.7143 23.8817 38.2342 21.0577 36 19.0576V14.1406Z" fill="oklch(0.3057 0.079 256.22 / 0.13)" class="wd-expressive-accent"></path>
</g>
<g>
<path d="M16 31C18.2091 31 20 32.7909 20 35C20 37.2091 18.2091 39 16 39C13.7909 39 12 37.2091 12 35C12 32.7909 13.7909 31 16 31ZM16 33C14.8954 33 14 33.8954 14 35C14 36.1046 14.8954 37 16 37C17.1046 37 18 36.1046 18 35C18 33.8954 17.1046 33 16 33Z" fill="oklch(0.3523 0 0 / 1)" class="wd-expressive-fill"></path>
<path d="M41 31C43.2091 31 45 32.7909 45 35C45 37.2091 43.2091 39 41 39C38.7909 39 37 37.2091 37 35C37 32.7909 38.7909 31 41 31ZM41 33C39.8954 33 39 33.8954 39 35C39 36.1046 39.8954 37 41 37C42.1046 37 43 36.1046 43 35C43 33.8954 42.1046 33 41 33Z" fill="oklch(0.3523 0 0 / 1)" class="wd-expressive-fill"></path>
<path d="M30.5 18C30.7761 18 31 18.2239 31 18.5V19.5C31 19.7761 30.7761 20 30.5 20H26.5C26.2239 20 26 19.7761 26 19.5V18.5C26 18.2239 26.2239 18 26.5 18H30.5Z" fill="oklch(0.3523 0 0 / 1)" class="wd-expressive-fill"></path>
<path d="M32.5 15C32.7761 15 33 15.2239 33 15.5V16.5C33 16.7761 32.7761 17 32.5 17H24.5C24.2239 17 24 16.7761 24 16.5V15.5C24 15.2239 24.2239 15 24.5 15H32.5Z" fill="oklch(0.3523 0 0 / 1)" class="wd-expressive-fill"></path>
<path d="M30.9395 6.64648C31.1347 6.45131 31.4512 6.45139 31.6465 6.64648L32.3535 7.35352C32.5487 7.54877 32.5487 7.86529 32.3535 8.06055L27.707 12.707C27.3166 13.0974 26.6835 13.0973 26.293 12.707L24.1465 10.5605C23.9514 10.3653 23.9514 10.0487 24.1465 9.85352L24.8535 9.14648C25.0487 8.95131 25.3653 8.95139 25.5605 9.14648L27 10.5859L30.9395 6.64648Z" fill="oklch(0.3523 0 0 / 1)" class="wd-expressive-fill"></path>
<path d="M35.6533 2.00781C35.7019 2.01274 35.7498 2.01985 35.7969 2.0293C35.8242 2.03479 35.8511 2.04187 35.8779 2.04883C35.8959 2.05351 35.9139 2.05815 35.9316 2.06348C35.9541 2.07021 35.976 2.07819 35.998 2.08594C36.0237 2.09496 36.0492 2.1039 36.0742 2.11426C36.0911 2.12125 36.1075 2.12914 36.124 2.13672C36.148 2.14773 36.172 2.15868 36.1953 2.1709C36.2186 2.18311 36.2411 2.19658 36.2637 2.20996C36.281 2.22026 36.2985 2.23024 36.3154 2.24121C36.3343 2.25347 36.3528 2.26623 36.3711 2.2793C36.3951 2.29647 36.4185 2.31448 36.4414 2.33301C36.4509 2.34071 36.4604 2.34851 36.4697 2.35645C36.4959 2.37869 36.5213 2.40182 36.5459 2.42578C36.5561 2.43574 36.5662 2.44581 36.5762 2.45605C36.5972 2.47774 36.617 2.50052 36.6367 2.52344C36.6507 2.53976 36.6644 2.55633 36.6777 2.57324C36.6898 2.58859 36.7014 2.60429 36.7129 2.62012C36.7294 2.64284 36.7455 2.66579 36.7607 2.68945C36.7714 2.70593 36.782 2.72235 36.792 2.73926C36.8054 2.76195 36.8179 2.78515 36.8301 2.80859C36.8401 2.82783 36.8492 2.84748 36.8584 2.86719C36.8689 2.88975 36.8792 2.91239 36.8887 2.93555C36.8968 2.95547 36.9039 2.97576 36.9111 2.99609C36.9197 3.02 36.9282 3.04391 36.9355 3.06836C36.9437 3.09567 36.9504 3.12342 36.957 3.15137C36.9612 3.16868 36.9672 3.18559 36.9707 3.20312C36.978 3.23936 36.9817 3.27635 36.9863 3.31348C36.9939 3.37467 37 3.43675 37 3.5V13.5762C41.4671 16.3694 44.5401 21.1799 44.9492 26.7324C49.073 28.3196 52 32.3171 52 37C52 43.0751 47.0751 48 41 48C37.7341 48 34.8017 46.5756 32.7871 44.3154C31.2687 44.7604 29.6624 45 28 45C26.6279 45 25.2945 44.8346 24.0166 44.5273C22.01 46.6635 19.1621 48 16 48C9.92487 48 5 43.0751 5 37C5 32.7177 7.44844 29.0096 11.0205 27.1924C11.3084 21.0378 14.8677 15.7396 20 12.9971V3.5C20 2.67157 20.6716 2 21.5 2H35.5L35.6533 2.00781ZM16 42C13.842 42 11.8538 42.7187 10.2588 43.9307C11.8169 45.2228 13.8176 46 16 46C18.1821 46 20.1822 45.2226 21.7402 43.9307C20.1453 42.719 18.1577 42 16 42ZM41 42C38.842 42 36.8538 42.7187 35.2588 43.9307C36.8169 45.2228 38.8176 46 41 46C43.1821 46 45.1822 45.2226 46.7402 43.9307C45.1453 42.719 43.1577 42 41 42ZM20 15.3115C16.2218 17.6987 13.5831 21.7249 13.0859 26.3926C14.0142 26.1381 14.9909 26 16 26C22.0751 26 27 30.9249 27 37C27 39.1152 26.4009 41.0896 25.3662 42.7666C26.2214 42.9186 27.1012 43 28 43C29.2131 43 30.3919 42.8532 31.5215 42.5811C30.5559 40.9447 30 39.0376 30 37C30 30.9249 34.9249 26 41 26C41.6431 26 42.2729 26.0582 42.8857 26.1641C42.3795 22.0153 40.1814 18.3899 37 16V22.5C37 23.3284 36.3284 24 35.5 24H21.5C20.6716 24 20 23.3284 20 22.5V15.3115ZM16 28C11.0294 28 7 32.0294 7 37C7 39.0643 7.69652 40.965 8.86523 42.4834C10.8257 40.9303 13.3048 40 16 40C18.695 40 21.1734 40.9306 23.1338 42.4834C24.3027 40.9649 25 39.0645 25 37C25 32.0294 20.9706 28 16 28ZM41 28C36.0294 28 32 32.0294 32 37C32 39.0643 32.6965 40.965 33.8652 42.4834C35.8257 40.9303 38.3048 40 41 40C43.695 40 46.1734 40.9306 48.1338 42.4834C49.3027 40.9649 50 39.0645 50 37C50 32.0294 45.9706 28 41 28ZM22 22H35V4H22V22Z" fill="oklch(0.3523 0 0 / 1)" class="wd-expressive-fill"></path>
</g>
</svg>