<svg role="presentation" width="56" height="56" viewBox="0 0 56 56" xmlns="http://www.w3.org/2000/svg" class="wd-expressive wd-expressive-map-location">
<g>
<path d="M15 51H10C8.34315 51 7 49.6569 7 48V47C7 45.3431 8.34315 44 10 44H15V51Z" fill="oklch(0.3057 0.079 256.22 / 0.13)" class="wd-expressive-accent"></path>
<path d="M46.4287 5C47.8488 5.00008 48.9999 6.15124 49 7.57129V39.5713C48.9999 38.1512 47.8488 37.0001 46.4287 37C46.192 37 46 36.808 46 36.5713V5.42871C46 5.19202 46.192 5 46.4287 5Z" fill="oklch(0.3057 0.079 256.22 / 0.13)" class="wd-expressive-accent"></path>
<path d="M29 16C32.866 16 36 19.134 36 23C36 24.9698 35.5863 26.9204 34.7822 28.7402C33.9782 30.5601 32.7992 32.2136 31.3135 33.6064C30.6794 34.2009 29.9943 34.7422 29.2666 35.2266C29.1047 35.3344 28.8933 35.3344 28.7314 35.2266C28.0074 34.7442 27.3229 34.2031 26.6865 33.6064C23.6859 30.7934 22 26.9782 22 23C22 19.134 25.134 16 29 16ZM29 20C27.3431 20 26 21.3431 26 23C26 24.6569 27.3431 26 29 26C30.6569 26 32 24.6569 32 23C32 21.3431 30.6569 20 29 20Z" fill="oklch(0.3057 0.079 256.22 / 0.13)" class="wd-expressive-accent"></path>
</g>
<g>
<path d="M19.2861 37.7344C19.4394 37.5049 19.7489 37.4455 19.9951 37.5703C20.5349 37.8445 21.1339 38.0079 21.7471 38.0801C22.0215 38.1123 22.2367 38.3431 22.2256 38.6191L22.1865 39.6182C22.1757 39.8942 21.9428 40.1112 21.668 40.084C20.7396 39.9922 19.7715 39.7384 18.8799 39.2422C18.6385 39.1078 18.5779 38.7951 18.7314 38.5654L19.0088 38.1504L19.2861 37.7344Z" fill="oklch(0.3523 0 0 / 1)" class="wd-expressive-fill"></path>
<path d="M25.5 37.3818C25.747 37.2583 26.0474 37.3585 26.1709 37.6055L26.6182 38.5C26.7417 38.747 26.6415 39.0474 26.3945 39.1709L25.9473 39.3945C25.5461 39.5951 25.0712 39.763 24.5557 39.8867C24.2872 39.951 24.0268 39.7679 23.9785 39.4961L23.8916 39.0039L23.8037 38.5107C23.7556 38.2389 23.938 37.9818 24.2051 37.9121C24.5435 37.8238 24.8313 37.7162 25.0527 37.6055L25.5 37.3818Z" fill="oklch(0.3523 0 0 / 1)" class="wd-expressive-fill"></path>
<path d="M17.168 33.8623C17.4428 33.8362 17.6842 34.039 17.7285 34.3115C17.7765 34.6063 17.8446 34.8898 17.9424 35.1641C18.0496 35.4647 18.1751 35.7342 18.3145 35.9756C18.4525 36.2149 18.409 36.5273 18.1875 36.6924L17.3867 37.29C17.1655 37.4554 16.8501 37.4116 16.7031 37.1777C16.4498 36.7747 16.233 36.3279 16.0576 35.8359C15.8953 35.3807 15.7972 34.9303 15.7344 34.501C15.6947 34.2279 15.898 33.9832 16.1729 33.957L16.6699 33.9102L17.168 33.8623Z" fill="oklch(0.3523 0 0 / 1)" class="wd-expressive-fill"></path>
<path d="M29 20C31.2091 20 33 21.7909 33 24C33 26.2091 31.2091 28 29 28C26.7909 28 25 26.2091 25 24C25 21.7909 26.7909 20 29 20ZM29 22C27.8954 22 27 22.8954 27 24C27 25.1046 27.8954 26 29 26C30.1046 26 31 25.1046 31 24C31 22.8954 30.1046 22 29 22Z" fill="oklch(0.3523 0 0 / 1)" class="wd-expressive-fill"></path>
<path d="M29 16C33.4183 16 37 19.5817 37 24L36.9951 24.3955C36.9433 26.3709 36.5033 28.3203 35.6973 30.1445C34.8376 32.0903 33.5783 33.8535 31.9971 35.3359C31.3215 35.9692 30.5927 36.5444 29.8203 37.0586C29.3228 37.3897 28.6754 37.3899 28.1777 37.0586C27.4087 36.5464 26.6805 35.9711 26.0029 35.3359C22.9083 32.4347 21.114 28.5189 21.0049 24.3994L21 24C21 19.5817 24.5817 16 29 16ZM29 18C25.6863 18 23 20.6863 23 24L23.0049 24.3457C23.0993 27.9126 24.6513 31.3279 27.3701 33.877C27.8802 34.3551 28.4265 34.7925 28.999 35.1934C29.5746 34.7908 30.1216 34.3535 30.6299 33.877C32.02 32.5737 33.1188 31.0298 33.8672 29.3359C34.6156 27.6421 35 25.8292 35 24C35 20.6863 32.3137 18 29 18Z" fill="oklch(0.3523 0 0 / 1)" class="wd-expressive-fill"></path>
<path d="M15.4121 29.0957C15.5377 28.8499 15.8415 28.7492 16.0684 28.9062C16.6064 29.2796 16.9701 29.757 17.2012 30.3018C17.3985 30.7672 17.4896 31.2609 17.5381 31.7275C17.5665 32.0021 17.3537 32.2384 17.0781 32.2549L16.0801 32.3145C15.8046 32.3308 15.5717 32.1207 15.5391 31.8467C15.5018 31.5323 15.4463 31.2857 15.3604 31.083C15.3052 30.953 15.2343 30.8333 15.1318 30.7236C14.9434 30.5219 14.8314 30.2321 14.957 29.9863L15.4121 29.0957Z" fill="oklch(0.3523 0 0 / 1)" class="wd-expressive-fill"></path>
<path d="M12 28C12.4569 28 12.8782 28.0174 13.2666 28.0518C13.5416 28.0761 13.733 28.3291 13.6953 28.6025L13.5586 29.5938C13.5207 29.8671 13.2683 30.0577 12.9932 30.0361C12.6979 30.0129 12.368 30 12 30H11.5C11.2239 30 11 29.7761 11 29.5V28.5C11 28.2239 11.2239 28 11.5 28H12Z" fill="oklch(0.3523 0 0 / 1)" class="wd-expressive-fill"></path>
<path d="M46 4C48.2091 4 50 5.79086 50 8V41C50 43.2091 48.2091 45 46 45H16V50.5C16 51.3284 15.3284 52 14.5 52H10C7.79086 52 6 50.2091 6 48V15C6 12.7909 7.79086 11 10 11H40V5.5C40 4.67157 40.6716 4 41.5 4H46ZM10 45C8.89543 45 8 45.8954 8 47V48C8 49.1046 8.89543 50 10 50H14V45H10ZM10 13C8.89543 13 8 13.8954 8 15V43.5361C8.58845 43.1956 9.27125 43 10 43H46C47.1046 43 48 42.1046 48 41V40C48 38.8954 47.1046 38 46 38H41.5C40.6716 38 40 37.3284 40 36.5V13H10ZM42 36H46C46.7288 36 47.4116 36.1956 48 36.5361V8C48 6.89543 47.1046 6 46 6H42V36Z" fill="oklch(0.3523 0 0 / 1)" class="wd-expressive-fill"></path>
</g>
</svg>