<svg role="presentation" width="56" height="56" viewBox="0 0 56 56" xmlns="http://www.w3.org/2000/svg" class="wd-expressive wd-expressive-buildings">
<g>
<path d="M8.5 25C9.32843 25 10 25.6716 10 26.5V47H7V26.5C7 25.6716 7.67157 25 8.5 25Z" fill="oklch(0.3057 0.079 256.22 / 0.13)" class="wd-expressive-accent"></path>
<path d="M18 38C18.5523 38 19 38.4477 19 39V41C19 41.5523 18.5523 42 18 42H13C12.4477 42 12 41.5523 12 41V39C12 38.4477 12.4477 38 13 38H18Z" fill="oklch(0.3057 0.079 256.22 / 0.13)" class="wd-expressive-accent"></path>
<path d="M28 38C28.5523 38 29 38.4477 29 39V41C29 41.5523 28.5523 42 28 42H23C22.4477 42 22 41.5523 22 41V39C22 38.4477 22.4477 38 23 38H28Z" fill="oklch(0.3057 0.079 256.22 / 0.13)" class="wd-expressive-accent"></path>
<path d="M43 38C43.5523 38 44 38.4477 44 39V41C44 41.5523 43.5523 42 43 42H38C37.4477 42 37 41.5523 37 41V39C37 38.4477 37.4477 38 38 38H43Z" fill="oklch(0.3057 0.079 256.22 / 0.13)" class="wd-expressive-accent"></path>
<path d="M18 31C18.5523 31 19 31.4477 19 32V34C19 34.5523 18.5523 35 18 35H13C12.4477 35 12 34.5523 12 34V32C12 31.4477 12.4477 31 13 31H18Z" fill="oklch(0.3057 0.079 256.22 / 0.13)" class="wd-expressive-accent"></path>
<path d="M28 31C28.5523 31 29 31.4477 29 32V34C29 34.5523 28.5523 35 28 35H23C22.4477 35 22 34.5523 22 34V32C22 31.4477 22.4477 31 23 31H28Z" fill="oklch(0.3057 0.079 256.22 / 0.13)" class="wd-expressive-accent"></path>
<path d="M43 31C43.5523 31 44 31.4477 44 32V34C44 34.5523 43.5523 35 43 35H38C37.4477 35 37 34.5523 37 34V32C37 31.4477 37.4477 31 38 31H43Z" fill="oklch(0.3057 0.079 256.22 / 0.13)" class="wd-expressive-accent"></path>
<path d="M43 24C43.5523 24 44 24.4477 44 25V27C44 27.5523 43.5523 28 43 28H38C37.4477 28 37 27.5523 37 27V25C37 24.4477 37.4477 24 38 24H43Z" fill="oklch(0.3057 0.079 256.22 / 0.13)" class="wd-expressive-accent"></path>
<path d="M24 25H20V8C20 5.79086 21.7909 4 24 4V25Z" fill="oklch(0.3057 0.079 256.22 / 0.13)" class="wd-expressive-accent"></path>
<path d="M33 17C33.5523 17 34 17.4477 34 18V20C34 20.5523 33.5523 21 33 21H28C27.4477 21 27 20.5523 27 20V18C27 17.4477 27.4477 17 28 17H33Z" fill="oklch(0.3057 0.079 256.22 / 0.13)" class="wd-expressive-accent"></path>
<path d="M43 17C43.5523 17 44 17.4477 44 18V20C44 20.5523 43.5523 21 43 21H38C37.4477 21 37 20.5523 37 20V18C37 17.4477 37.4477 17 38 17H43Z" fill="oklch(0.3057 0.079 256.22 / 0.13)" class="wd-expressive-accent"></path>
<path d="M33 10C33.5523 10 34 10.4477 34 11V13C34 13.5523 33.5523 14 33 14H28C27.4477 14 27 13.5523 27 13V11C27 10.4477 27.4477 10 28 10H33Z" fill="oklch(0.3057 0.079 256.22 / 0.13)" class="wd-expressive-accent"></path>
<path d="M43 10C43.5523 10 44 10.4477 44 11V13C44 13.5523 43.5523 14 43 14H38C37.4477 14 37 13.5523 37 13V11C37 10.4477 37.4477 10 38 10H43Z" fill="oklch(0.3057 0.079 256.22 / 0.13)" class="wd-expressive-accent"></path>
</g>
<g>
<path d="M18.5 38C18.7761 38 19 38.2239 19 38.5V39.5C19 39.7761 18.7761 40 18.5 40H14V41.5C14 41.7761 13.7761 42 13.5 42H12.5C12.2239 42 12 41.7761 12 41.5V39C12 38.4477 12.4477 38 13 38H18.5Z" fill="oklch(0.3523 0 0 / 1)" class="wd-expressive-fill"></path>
<path d="M28.5 38C28.7761 38 29 38.2239 29 38.5V39.5C29 39.7761 28.7761 40 28.5 40H24V41.5C24 41.7761 23.7761 42 23.5 42H22.5C22.2239 42 22 41.7761 22 41.5V39C22 38.4477 22.4477 38 23 38H28.5Z" fill="oklch(0.3523 0 0 / 1)" class="wd-expressive-fill"></path>
<path d="M18.5 31C18.7761 31 19 31.2239 19 31.5V32.5C19 32.7761 18.7761 33 18.5 33H14V34.5C14 34.7761 13.7761 35 13.5 35H12.5C12.2239 35 12 34.7761 12 34.5V32C12 31.4477 12.4477 31 13 31H18.5Z" fill="oklch(0.3523 0 0 / 1)" class="wd-expressive-fill"></path>
<path d="M28.5 31C28.7761 31 29 31.2239 29 31.5V32.5C29 32.7761 28.7761 33 28.5 33H24V34.5C24 34.7761 23.7761 35 23.5 35H22.5C22.2239 35 22 34.7761 22 34.5V32C22 31.4477 22.4477 31 23 31H28.5Z" fill="oklch(0.3523 0 0 / 1)" class="wd-expressive-fill"></path>
<path d="M46 4C47.6569 4 49 5.34315 49 7V46H51.5C51.7761 46 52 46.2239 52 46.5V47.5C52 47.7761 51.7761 48 51.5 48H4.5C4.22386 48 4 47.7761 4 47.5V46.5C4 46.2239 4.22386 46 4.5 46H6V27C6 25.3431 7.34315 24 9 24H31C32.6569 24 34 25.3431 34 27V46H47V7C47 6.44772 46.5523 6 46 6H23C22.4477 6 22 6.44772 22 7V21.5C22 21.7761 21.7761 22 21.5 22H20.5C20.2239 22 20 21.7761 20 21.5V7C20 5.34315 21.3431 4 23 4H46ZM9 26C8.44771 26 8 26.4477 8 27V46H32V27C32 26.4477 31.5523 26 31 26H9Z" fill="oklch(0.3523 0 0 / 1)" class="wd-expressive-fill"></path>
<path d="M43.5 38C43.7761 38 44 38.2239 44 38.5V39.5C44 39.7761 43.7761 40 43.5 40H39V41.5C39 41.7761 38.7761 42 38.5 42H37.5C37.2239 42 37 41.7761 37 41.5V39C37 38.4477 37.4477 38 38 38H43.5Z" fill="oklch(0.3523 0 0 / 1)" class="wd-expressive-fill"></path>
<path d="M43.5 31C43.7761 31 44 31.2239 44 31.5V32.5C44 32.7761 43.7761 33 43.5 33H39V34.5C39 34.7761 38.7761 35 38.5 35H37.5C37.2239 35 37 34.7761 37 34.5V32C37 31.4477 37.4477 31 38 31H43.5Z" fill="oklch(0.3523 0 0 / 1)" class="wd-expressive-fill"></path>
<path d="M43.5 24C43.7761 24 44 24.2239 44 24.5V25.5C44 25.7761 43.7761 26 43.5 26H39V27.5C39 27.7761 38.7761 28 38.5 28H37.5C37.2239 28 37 27.7761 37 27.5V25C37 24.4477 37.4477 24 38 24H43.5Z" fill="oklch(0.3523 0 0 / 1)" class="wd-expressive-fill"></path>
<path d="M33.5 17C33.7761 17 34 17.2239 34 17.5V18.5C34 18.7761 33.7761 19 33.5 19H29V20.5C29 20.7761 28.7761 21 28.5 21H27.5C27.2239 21 27 20.7761 27 20.5V18C27 17.4477 27.4477 17 28 17H33.5Z" fill="oklch(0.3523 0 0 / 1)" class="wd-expressive-fill"></path>
<path d="M43.5 17C43.7761 17 44 17.2239 44 17.5V18.5C44 18.7761 43.7761 19 43.5 19H39V20.5C39 20.7761 38.7761 21 38.5 21H37.5C37.2239 21 37 20.7761 37 20.5V18C37 17.4477 37.4477 17 38 17H43.5Z" fill="oklch(0.3523 0 0 / 1)" class="wd-expressive-fill"></path>
<path d="M33.5 10C33.7761 10 34 10.2239 34 10.5V11.5C34 11.7761 33.7761 12 33.5 12H29V13.5C29 13.7761 28.7761 14 28.5 14H27.5C27.2239 14 27 13.7761 27 13.5V11C27 10.4477 27.4477 10 28 10H33.5Z" fill="oklch(0.3523 0 0 / 1)" class="wd-expressive-fill"></path>
<path d="M43.5 10C43.7761 10 44 10.2239 44 10.5V11.5C44 11.7761 43.7761 12 43.5 12H39V13.5C39 13.7761 38.7761 14 38.5 14H37.5C37.2239 14 37 13.7761 37 13.5V11C37 10.4477 37.4477 10 38 10H43.5Z" fill="oklch(0.3523 0 0 / 1)" class="wd-expressive-fill"></path>
</g>
</svg>