<svg role="presentation" width="56" height="56" viewBox="0 0 56 56" xmlns="http://www.w3.org/2000/svg" class="wd-expressive wd-expressive-heartbeat">
<path d="M16.9337 10.0434C15.368 10.441 13.8597 11.1865 12.5235 12.2983C7.28859 16.6542 7.10293 24.629 12.13 29.2231L30.9229 46.3969L30.1905 47.0669L30.1915 47.0727L28.0001 49.0737L8.40534 31.1674C2.96534 26.1961 3.16547 17.5658 8.83015 12.852C11.2112 10.8708 14.0977 9.96347 16.9337 10.0434Z" fill="oklch(0.3057 0.079 256.22 / 0.13)" class="wd-expressive-accent"></path>
<path d="M28.2529 15.1992C32.4839 8.4549 41.6894 6.98592 47.8095 12.0781C53.9405 17.1796 54.1572 26.5199 48.2695 31.9004L30.0234 48.5742C28.8775 49.6208 27.1223 49.621 25.9765 48.5742L7.73043 31.9004C1.84322 26.5199 2.05989 17.1796 8.19039 12.0781C14.3105 6.98568 23.5168 8.45503 27.748 15.1992L28 15.6015L28.2529 15.1992ZM46.5302 13.6152C41.3407 9.29753 33.535 10.5432 29.9472 16.2617L28 19.3652L26.0537 16.2617C22.4658 10.5431 14.6592 9.29715 9.46969 13.6152C5.41546 16.9889 4.41171 22.5488 6.53414 26.997H16.5L18.7998 23.9306C19.3998 23.1306 20.6002 23.1306 21.2002 23.9306L23.5 26.997H27.6914C28.2593 26.9972 28.7781 27.3182 29.0322 27.8261L30.8144 31.3906L34.5771 20.1035C35.0332 18.7364 36.9668 18.7364 37.4228 20.1035L40.0058 27.8545C40.2515 27.336 40.776 26.9972 41.3603 26.997H44L44.5 26.998C44.7761 26.998 45 27.2219 45 27.498V28.498C44.9998 28.774 44.776 28.998 44.5 28.998H42.5C42.497 28.998 42.4941 28.9971 42.4912 28.997H41.7207L41.4228 29.8906C40.981 31.215 39.1523 31.2565 38.624 30.0146L38.5771 29.8906L35.999 22.1601L32.33 33.1679L32.2871 33.2832C31.8158 34.4047 30.2502 34.5161 29.625 33.4726L29.5654 33.3642L27.3818 28.997H23.25C22.778 28.997 22.333 28.7749 22.0498 28.3974L20 25.665L17.9502 28.3974L17.8369 28.5312C17.5556 28.8268 17.1631 28.997 16.75 28.997H7.76657C8.15547 29.5001 8.5926 29.9783 9.08004 30.4238L27.3252 47.0976C27.7071 47.4466 28.2928 47.4466 28.6748 47.0976L46.9199 30.4238C51.9125 25.8614 51.7291 17.9411 46.5302 13.6152Z" fill="oklch(0.3523 0 0 / 1)" class="wd-expressive-fill"></path>
</svg>