<svg role="presentation" width="56" height="56" viewBox="0 0 56 56" xmlns="http://www.w3.org/2000/svg" class="wd-expressive wd-expressive-building-flag">
<g>
<path d="M41 28L39.4004 24H47L50 32H48V47H45V32H39V28H17V32H11V47H8V32H6L9 24H16.5996L15 28L19 18H37L41 28Z" fill="oklch(0.3057 0.079 256.22 / 0.13)" class="wd-expressive-accent"></path>
<path d="M26 39C26.5523 39 27 39.4477 27 40V42C27 42.5523 26.5523 43 26 43H22C21.4477 43 21 42.5523 21 42V40C21 39.4477 21.4477 39 22 39H26Z" fill="oklch(0.3057 0.079 256.22 / 0.13)" class="wd-expressive-accent"></path>
<path d="M34 39C34.5523 39 35 39.4477 35 40V42C35 42.5523 34.5523 43 34 43H30C29.4477 43 29 42.5523 29 42V40C29 39.4477 29.4477 39 30 39H34Z" fill="oklch(0.3057 0.079 256.22 / 0.13)" class="wd-expressive-accent"></path>
<path d="M26 32C26.5523 32 27 32.4477 27 33V35C27 35.5523 26.5523 36 26 36H22C21.4477 36 21 35.5523 21 35V33C21 32.4477 21.4477 32 22 32H26Z" fill="oklch(0.3057 0.079 256.22 / 0.13)" class="wd-expressive-accent"></path>
<path d="M34 32C34.5523 32 35 32.4477 35 33V35C35 35.5523 34.5523 36 34 36H30C29.4477 36 29 35.5523 29 35V33C29 32.4477 29.4477 32 30 32H34Z" fill="oklch(0.3057 0.079 256.22 / 0.13)" class="wd-expressive-accent"></path>
<path d="M29.75 5C30.7404 5 31.6493 5.3672 32.3604 5.97949L32.6396 6.23145C33.3507 6.84377 34.2596 7.21094 35.25 7.21094C35.8758 7.21094 36.4686 7.06329 37 6.80078V12.5898C36.4686 12.8523 35.8758 13 35.25 13C34.2596 13 33.3507 12.6328 32.6396 12.0205L32.3604 11.7686C31.6493 11.1562 30.7404 10.7891 29.75 10.7891C29.1243 10.7891 28.5313 10.9359 28 11.1982V5.41016C28.5314 5.14766 29.1242 5 29.75 5Z" fill="oklch(0.3057 0.079 256.22 / 0.13)" class="wd-expressive-accent"></path>
</g>
<g>
<path d="M26.5 39C26.7761 39 27 39.2239 27 39.5V40.5C27 40.7761 26.7761 41 26.5 41H23V42.5C23 42.7761 22.7761 43 22.5 43H21.5C21.2239 43 21 42.7761 21 42.5V40C21 39.4477 21.4477 39 22 39H26.5Z" fill="oklch(0.3523 0 0 / 1)" class="wd-expressive-fill"></path>
<path d="M34.5 39C34.7761 39 35 39.2239 35 39.5V40.5C35 40.7761 34.7761 41 34.5 41H31V42.5C31 42.7761 30.7761 43 30.5 43H29.5C29.2239 43 29 42.7761 29 42.5V40C29 39.4477 29.4477 39 30 39H34.5Z" fill="oklch(0.3523 0 0 / 1)" class="wd-expressive-fill"></path>
<path d="M26.5 32C26.7761 32 27 32.2239 27 32.5V33.5C27 33.7761 26.7761 34 26.5 34H23V35.5C23 35.7761 22.7761 36 22.5 36H21.5C21.2239 36 21 35.7761 21 35.5V33C21 32.4477 21.4477 32 22 32H26.5Z" fill="oklch(0.3523 0 0 / 1)" class="wd-expressive-fill"></path>
<path d="M34.5 32C34.7761 32 35 32.2239 35 32.5V33.5C35 33.7761 34.7761 34 34.5 34H31V35.5C31 35.7761 30.7761 36 30.5 36H29.5C29.2239 36 29 35.7761 29 35.5V33C29 32.4477 29.4477 32 30 32H34.5Z" fill="oklch(0.3523 0 0 / 1)" class="wd-expressive-fill"></path>
<path d="M28.5 3C28.7761 3 29 3.22386 29 3.5V4.05859C29.2449 4.02096 29.4952 4 29.75 4C30.9938 4 32.1311 4.46259 33.0127 5.22168C33.0185 5.2267 33.0246 5.23216 33.0303 5.2373L33.292 5.47363C33.8325 5.93907 34.5132 6.21094 35.25 6.21094C35.7162 6.21094 36.1577 6.10129 36.5566 5.9043C36.8665 5.75125 37.2338 5.76895 37.5273 5.95117C37.821 6.13364 38 6.45506 38 6.80078V12.5898C38 12.9702 37.7843 13.3177 37.4434 13.4863C36.7796 13.8142 36.0353 14 35.25 14C34.0062 14 32.8689 13.5374 31.9873 12.7783C31.9815 12.7733 31.9754 12.7678 31.9697 12.7627L31.708 12.5264L31.499 12.3613C30.9965 11.9973 30.3949 11.7891 29.75 11.7891C29.4912 11.7891 29.2403 11.8234 29 11.8867V17H36.6611C37.2745 17 37.8259 17.3739 38.0537 17.9434L40.0771 23H46.6533C47.2375 23 47.7672 23.3392 48.0127 23.8652L48.0586 23.9727L50.6836 30.9727C51.0518 31.9545 50.3243 33 49.2783 33H49V46H51.5C51.7761 46 52 46.2239 52 46.5V47.5C52 47.7761 51.7761 48 51.5 48H4.5C4.22386 48 4 47.7761 4 47.5V46.5C4 46.2239 4.22386 46 4.5 46H7V33H6.72168C5.67571 33 4.9482 31.9545 5.31641 30.9727L7.94141 23.9727L7.9873 23.8652C8.23282 23.3391 8.76246 23 9.34668 23H15.9229L17.9463 17.9434L17.9922 17.8389C18.2427 17.3284 18.7637 17 19.3389 17H27V3.5C27 3.22386 27.2239 3 27.5 3H28.5ZM9 46H16V33H9V46ZM18 46H38V29H18V46ZM40 46H47V33H40V46ZM7.44336 31H16V29H15C14.6682 29 14.3579 28.8353 14.1719 28.5605C13.986 28.2859 13.9482 27.9369 14.0713 27.6289L15.1221 25H9.69336L7.44336 31ZM41.9287 27.6289C42.0518 27.9369 42.014 28.2859 41.8281 28.5605C41.6421 28.8353 41.3318 29 41 29H40V31H48.5566L46.3066 25H40.877L41.9287 27.6289ZM16.4775 27H39.5225L38.4746 24.3799L38.4736 24.3789L36.3232 19H19.6768L16.4775 27ZM29.75 6C29.4914 6 29.2404 6.034 29 6.09766V9.84766C29.2449 9.81013 29.4952 9.78906 29.75 9.78906C30.9938 9.78906 32.1311 10.2516 33.0127 11.0107C33.0185 11.0158 33.0246 11.0212 33.0303 11.0264L33.292 11.2627C33.8325 11.7281 34.5132 12 35.25 12C35.5087 12 35.7595 11.9651 36 11.9014V8.15137C35.7551 8.18902 35.5049 8.21094 35.25 8.21094C34.0062 8.21094 32.8689 7.74839 31.9873 6.98926C31.9815 6.98425 31.9754 6.97878 31.9697 6.97363L31.708 6.7373L31.499 6.57227C30.9965 6.20828 30.3948 6 29.75 6Z" fill="oklch(0.3523 0 0 / 1)" class="wd-expressive-fill"></path>
</g>
</svg>