<svg role="presentation" width="56" height="56" viewBox="0 0 56 56" xmlns="http://www.w3.org/2000/svg" class="wd-expressive wd-expressive-recycle">
<g>
<path d="M17.7397 22.0566C18.2641 24.1638 19.0556 26.1657 20.0766 28.0234L13.5463 39.5176C12.4102 41.5173 13.8548 43.9996 16.1547 44H50.6733C51.354 45.8949 49.9634 47.9999 47.8451 48H8.15471C5.85482 47.9996 4.41017 45.5173 5.54631 43.5176L17.7397 22.0566Z" fill="oklch(0.3057 0.079 256.22 / 0.13)" class="wd-expressive-accent"></path>
<path d="M25.392 8.58983C26.5421 6.56698 29.4576 6.56715 30.6078 8.58983L30.8637 9.04003L23.5238 21.956C22.5513 19.9647 21.8351 17.825 21.4194 15.5801L25.392 8.58983Z" fill="oklch(0.3057 0.079 256.22 / 0.13)" class="wd-expressive-accent"></path>
</g>
<g>
<path d="M46.4025 35.3776C46.6426 35.2411 46.9477 35.326 47.0842 35.5661L51.3224 43.0241C52.837 45.6906 50.9107 48.9997 47.8439 48.9997H26.4973C27.4912 50.0871 28.3458 51.3005 29.0344 52.6139C29.1624 52.8582 29.0584 53.1577 28.8107 53.279L27.9123 53.7174C27.6641 53.8385 27.3657 53.7349 27.2365 53.4909C26.2769 51.6777 24.9606 50.0798 23.3713 48.7917C23.2145 48.6646 23.1035 48.4935 23.0461 48.3044C23.0178 48.2417 23.0012 48.1724 23.0012 48.0993V47.9001C23.0012 47.8279 23.0175 47.7589 23.0451 47.6969C23.1024 47.5072 23.2141 47.3352 23.3713 47.2077C24.9604 45.9196 26.277 44.3216 27.2365 42.5085C27.3658 42.2647 27.6643 42.1608 27.9123 42.2819L28.8107 42.7204C29.0582 42.8416 29.1619 43.1412 29.0344 43.3854C28.3463 44.6981 27.4931 45.9124 26.5002 46.9997H47.8439C49.3774 46.9997 50.3407 45.3447 49.5832 44.0114L45.3459 36.5534C45.2098 36.3134 45.2936 36.0082 45.5334 35.8717L46.4025 35.3776Z" fill="oklch(0.3523 0 0 / 1)" class="wd-expressive-fill"></path>
<path d="M17.2892 20.9254C17.4784 20.8531 17.6831 20.8419 17.8762 20.8874C17.9436 20.8945 18.0109 20.9148 18.0734 20.9508L18.2463 21.0504C18.3097 21.0871 18.3614 21.1362 18.4016 21.1921C18.5366 21.3363 18.6287 21.5182 18.6603 21.7174C18.9813 23.7379 19.7075 25.677 20.798 27.4147C20.9444 27.6485 20.885 27.9586 20.6564 28.1129L19.8273 28.6715C19.5984 28.8258 19.2865 28.7661 19.1389 28.5329C18.3898 27.3495 17.7916 26.0826 17.3527 24.7624L6.4162 44.0124C5.65904 45.3456 6.62213 47.0006 8.15546 47.0006H16.5002C16.7762 47.0008 17.0002 47.2246 17.0002 47.5006V48.5006C17 48.7765 16.7761 49.0005 16.5002 49.0006H8.15546C5.08885 49.0006 3.16276 45.6915 4.67694 43.0251L15.7844 23.4753C14.2709 23.831 12.7112 23.9824 11.1476 23.9186C10.872 23.9073 10.6639 23.6674 10.6828 23.3922L10.7521 22.3952C10.7713 22.1198 11.0104 21.9135 11.2863 21.9235C13.3365 21.9991 15.379 21.6578 17.2892 20.9254Z" fill="oklch(0.3523 0 0 / 1)" class="wd-expressive-fill"></path>
<path d="M24.5226 8.09635C26.0561 5.39832 29.9444 5.39813 31.4777 8.09635L42.3098 27.1618C42.7522 25.7947 43.3652 24.4836 44.1389 23.2614C44.2865 23.0282 44.5984 22.9685 44.8273 23.1227L45.6564 23.6813C45.885 23.8358 45.9446 24.1458 45.798 24.3796C44.7075 26.1172 43.9813 28.0563 43.6603 30.0768C43.6287 30.276 43.5366 30.458 43.4016 30.6022C43.3614 30.658 43.3097 30.7072 43.2463 30.7438L43.0734 30.8434C43.011 30.8794 42.9435 30.8998 42.8762 30.9069C42.6832 30.9523 42.4783 30.9412 42.2892 30.8688C40.379 30.1365 38.3365 29.7951 36.2863 29.8708C36.0105 29.8808 35.7714 29.6744 35.7521 29.3991L35.6828 28.402C35.6639 28.1269 35.872 27.887 36.1476 27.8756C37.6648 27.8138 39.1784 27.9535 40.6496 28.2868L29.7394 9.08463C28.9728 7.73551 27.0277 7.7357 26.2609 9.08463L22.0851 16.4342C21.9487 16.6742 21.6435 16.758 21.4035 16.6217L20.5344 16.1276C20.2944 15.9911 20.2105 15.686 20.3469 15.446L24.5226 8.09635Z" fill="oklch(0.3523 0 0 / 1)" class="wd-expressive-fill"></path>
</g>
</svg>