<svg role="presentation" width="56" height="56" viewBox="0 0 56 56" xmlns="http://www.w3.org/2000/svg" class="wd-expressive wd-expressive-handshake-heart">
<g>
<path d="M23.0083 42.3886C23.9975 42.4926 24.9591 42.9235 25.7173 43.6816C26.4753 44.4397 26.9062 45.4014 27.0102 46.3906C27.025 46.5319 26.9701 46.671 26.8696 46.7715L24.5639 49.0771C24.4634 49.1777 24.3245 49.2326 24.1831 49.2177C23.1939 49.1137 22.2322 48.6819 21.4741 47.9238C20.7163 47.1658 20.2852 46.2048 20.1811 45.2158C20.1663 45.0743 20.2212 44.9355 20.3218 44.8349L22.6274 42.5283C22.728 42.4278 22.8669 42.3738 23.0083 42.3886Z" fill="oklch(0.3057 0.079 256.22 / 0.13)" class="wd-expressive-accent"></path>
<path d="M19.4731 37.4384C20.4621 37.5425 21.4231 37.9736 22.1811 38.7314C22.9393 39.4895 23.3711 40.4512 23.4751 41.4404C23.4899 41.5818 23.435 41.7207 23.3345 41.8213L19.6147 45.542C19.5143 45.6424 19.3752 45.6963 19.2339 45.6816C18.2447 45.5776 17.283 45.1467 16.5249 44.3886C15.7667 43.6305 15.3349 42.6689 15.2309 41.6797C15.2162 41.5383 15.2711 41.3993 15.3716 41.2988L19.0923 37.5791C19.1928 37.4785 19.3317 37.4236 19.4731 37.4384Z" fill="oklch(0.3057 0.079 256.22 / 0.13)" class="wd-expressive-accent"></path>
<path d="M15.937 32.4892C16.9262 32.5932 17.8878 33.024 18.646 33.7822C19.4041 34.5403 19.835 35.502 19.9389 36.4912C19.9537 36.6325 19.8998 36.7716 19.7993 36.872L15.3716 41.2988C15.271 41.3994 15.1321 41.4543 14.9907 41.4394C14.0015 41.3354 13.0398 40.9045 12.2817 40.1465C11.5236 39.3884 11.0928 38.4266 10.9888 37.4375C10.9739 37.296 11.0288 37.1572 11.1294 37.0566L15.5561 32.6289C15.6567 32.5283 15.7956 32.4744 15.937 32.4892Z" fill="oklch(0.3057 0.079 256.22 / 0.13)" class="wd-expressive-accent"></path>
<path d="M10.2807 29.6601C11.2699 29.7642 12.2307 30.196 12.9888 30.9541C13.7468 31.7122 14.1787 32.6729 14.2827 33.6621C14.2976 33.8035 14.2426 33.9424 14.1421 34.0429L11.8364 36.3496C11.7359 36.4501 11.5969 36.504 11.4555 36.4892C10.4663 36.3852 9.50471 35.9544 8.74656 35.1963C7.98841 34.4381 7.55759 33.4765 7.45359 32.4873C7.43878 32.3459 7.49271 32.2069 7.59324 32.1064L9.89988 29.8008C10.0004 29.7002 10.1393 29.6453 10.2807 29.6601Z" fill="oklch(0.3057 0.079 256.22 / 0.13)" class="wd-expressive-accent"></path>
<path d="M29.1196 16.8047C33.1039 10.4544 41.7718 9.07132 47.5346 13.8662C53.3076 18.6699 53.512 27.4648 47.9682 32.5312L46.3618 34L38.3579 25.997C36.2497 26.4799 33.9504 25.9336 32.2622 24.3467C32.1157 24.2092 31.8859 24.2125 31.7436 24.3545L28.0903 28C26.8424 29.1534 25.1736 29.8584 23.3403 29.8584C21.7237 29.8583 20.2352 29.31 19.0503 28.3896C18.8029 28.1975 18.8209 27.827 19.0688 27.6357C20.7401 26.3466 26.3072 21.8996 27.9995 18.5918L29.1196 16.8047Z" fill="oklch(0.3057 0.079 256.22 / 0.13)" class="wd-expressive-accent"></path>
</g>
<path d="M28.2726 16.2734C32.5783 9.41019 41.9467 7.91572 48.1749 13.0976C54.4137 18.2891 54.6349 27.7939 48.6437 33.2695L47.6573 34.1689C47.8639 34.4483 47.9819 34.8067 47.9415 35.1913C47.8145 36.4001 47.2863 37.5769 46.3605 38.5029C45.7844 39.0789 45.1109 39.4994 44.3937 39.7665C44.4125 39.8872 44.4188 40.0123 44.4054 40.1406C44.2783 41.3494 43.7513 42.5271 42.8253 43.4531C42.0428 44.2355 41.0807 44.7312 40.0724 44.9433C39.8602 45.9517 39.3653 46.914 38.5831 47.6962C37.6572 48.6222 36.4794 49.1483 35.2706 49.2753C34.8032 49.3244 34.3728 49.1431 34.0782 48.8486L33.2794 48.0497C33.0121 48.6598 32.6307 49.2326 32.1319 49.7314C31.2061 50.657 30.0299 51.1844 28.8214 51.3115C28.3538 51.3606 27.9237 51.1783 27.629 50.8837L25.9005 49.1552L25.2716 49.7841C24.9769 50.0787 24.5467 50.261 24.0792 50.2119C22.8705 50.0847 21.6945 49.5567 20.7687 48.6308C20.1927 48.0548 19.7702 47.3823 19.503 46.665C19.3827 46.6838 19.2579 46.6901 19.13 46.6767C17.9213 46.5496 16.7444 46.0215 15.8185 45.0956C15.0362 44.3133 14.5386 43.3521 14.3263 42.3437C13.3187 42.1312 12.3581 41.6351 11.5763 40.8535C10.6504 39.9276 10.1223 38.7506 9.99522 37.5419C9.98171 37.4134 9.98699 37.2878 10.006 37.1669C9.28897 36.8997 8.61587 36.479 8.04014 35.9033C7.11428 34.9774 6.58718 33.8004 6.46007 32.5917C6.44904 32.4866 6.45003 32.3834 6.46104 32.2831C1.45893 26.7203 1.92933 18.0032 7.82432 13.0976C13.9553 7.99664 23.1295 9.36522 27.5216 15.956L27.7267 16.2734L27.9991 16.7079L28.2726 16.2734ZM26.0323 17.3359C22.3697 11.4985 14.4012 10.227 9.10362 14.6347C4.21329 18.7042 3.70972 25.8722 7.66612 30.6191L9.19346 29.0937C9.48808 28.7992 9.91839 28.6169 10.3858 28.666C11.5945 28.7931 12.7715 29.3202 13.6974 30.246C14.196 30.7446 14.5776 31.3169 14.8448 31.9267L14.8507 31.9218C15.1453 31.6273 15.5756 31.4449 16.0431 31.4941C17.2517 31.6212 18.4278 32.1493 19.3536 33.0751C20.2795 34.001 20.8075 35.1771 20.9347 36.3857C20.9481 36.5139 20.9418 36.6391 20.923 36.7597C21.6404 37.0269 22.3137 37.4483 22.8898 38.0244C23.8157 38.9503 24.3427 40.1272 24.4698 41.3359C24.4833 41.4641 24.478 41.5893 24.4591 41.7099C25.1763 41.9771 25.8491 42.3987 26.4249 42.9746C27.3507 43.9004 27.8788 45.0765 28.006 46.2851C28.0551 46.7526 27.8728 47.1838 27.5782 47.4785L27.3146 47.7412L28.8595 49.2861C29.5404 49.1651 30.1911 48.8431 30.7179 48.3163C31.2447 47.7895 31.5667 47.1389 31.6876 46.458L28.5714 43.3417C28.3764 43.1465 28.3763 42.8299 28.5714 42.6347L29.2784 41.9277C29.4736 41.7325 29.7902 41.7326 29.9855 41.9277L35.3087 47.2499C35.9898 47.129 36.6412 46.8081 37.1681 46.2812C37.695 45.7543 38.0159 45.1029 38.1368 44.4218L32.796 39.081C32.601 38.8858 32.601 38.5692 32.796 38.374L33.503 37.6669C33.6982 37.4717 34.0148 37.4719 34.2101 37.6669L39.5489 43.0048C40.231 42.8843 40.8841 42.5652 41.4112 42.038C41.938 41.5112 42.2591 40.8596 42.38 40.1787L36.3321 34.1308C36.1369 33.9355 36.1369 33.619 36.3321 33.4238L37.0392 32.7167C37.2344 32.5215 37.551 32.5215 37.7462 32.7167L43.0851 38.0556C43.7669 37.9348 44.4193 37.6149 44.9464 37.0878C45.473 36.561 45.7952 35.9103 45.9161 35.2294L37.7931 27.1074C35.7886 27.3509 33.7043 26.8094 32.0392 25.4726L28.797 28.7079L28.7833 28.7216L28.7696 28.7343C27.3442 30.0516 25.4355 30.8583 23.3409 30.8583C21.4947 30.8583 19.7917 30.2313 18.4376 29.1796C17.6208 28.545 17.748 27.3924 18.4591 26.8437L19.2413 26.2304C20.1736 25.4873 21.5105 24.3814 22.8458 23.1386C24.4631 21.6333 25.9884 20.0056 26.836 18.6181L26.0323 17.3359ZM23.1524 43.4179L21.213 45.3583C21.334 46.0392 21.656 46.69 22.1827 47.2167C22.7095 47.7435 23.3602 48.0655 24.0411 48.1865L25.9806 46.247C25.8596 45.5662 25.5375 44.9153 25.0108 44.3886C24.4842 43.8619 23.8332 43.5389 23.1524 43.4179ZM16.2628 41.8222C16.3837 42.5032 16.7057 43.1548 17.2325 43.6816C17.7593 44.2084 18.4109 44.5304 19.0919 44.6513L21.921 41.8212L21.922 41.8193L22.4454 41.2968C22.3244 40.6161 22.0023 39.965 21.4757 39.4384C20.9491 38.9118 20.298 38.5898 19.6173 38.4687L16.2628 41.8222ZM14.8566 34.7431C14.8544 34.7452 14.8528 34.7478 14.8507 34.7499L12.0206 37.58C12.1416 38.2609 12.4636 38.9117 12.9903 39.4384C13.5171 39.9652 14.1678 40.2872 14.8487 40.4081L18.9103 36.3476C18.7892 35.6668 18.4662 35.0159 17.9396 34.4892C17.4129 33.9626 16.7619 33.6395 16.0812 33.5185L14.8566 34.7431ZM8.48448 32.6298C8.60542 33.3108 8.92744 33.9624 9.45421 34.4892C9.98101 35.016 10.6326 35.338 11.3136 35.4589L13.253 33.5185C13.132 32.838 12.8096 32.1876 12.2833 31.6611C11.7567 31.1345 11.1056 30.8114 10.4249 30.6904L8.48448 32.6298ZM46.8956 14.6347C41.5979 10.227 33.6293 11.499 29.9669 17.3369L29.9659 17.3359L28.8595 19.1025C27.9153 20.9128 26.0042 22.9308 24.2081 24.6025C22.7004 26.0057 21.1966 27.2334 20.2355 27.9921C21.1411 28.5414 22.2031 28.8583 23.3409 28.8583C24.9088 28.8583 26.3339 28.2572 27.4034 27.2724L31.0382 23.6464C31.5625 23.1234 32.4075 23.1112 32.9474 23.6181C35.1931 25.7291 38.7101 25.6751 40.8898 23.496L43.0929 21.2929L44.5069 22.707L42.3048 24.9101C41.6218 25.593 40.8412 26.1201 40.0079 26.4931L46.256 32.7412L47.2941 31.7939C52.3904 27.1365 52.2027 19.0508 46.8956 14.6347Z" fill="oklch(0.3523 0 0 / 1)" class="wd-expressive-fill"></path>
</svg>