<svg role="presentation" width="56" height="56" viewBox="0 0 56 56" xmlns="http://www.w3.org/2000/svg" class="wd-expressive wd-expressive-clipboard-pie-chart-forward">
<g>
<path d="M46.0005 35.501C46.0005 35.0311 46.5897 34.8209 46.8872 35.1846L52.7407 42.3379C52.891 42.5219 52.8909 42.7867 52.7407 42.9707L46.8872 50.125C46.5896 50.4882 46.0005 50.2774 46.0005 49.8076V45.7656C44.0443 45.9818 42.1822 46.5109 40.4663 47.3027C38.3913 48.2605 37.0929 50.1262 36.4614 52.2793C36.3971 52.4986 36.1987 52.655 35.9702 52.6553H35.5005C35.2245 52.6553 35.0007 52.4312 35.0005 52.1553V49.4844C35.0005 46.0711 36.3697 42.6332 39.4351 41.1318C41.4523 40.144 43.6657 39.4946 46.0005 39.2568V35.501Z" fill="oklch(0.3057 0.079 256.22 / 0.13)" class="wd-expressive-accent"></path>
<path d="M13.0005 44H32.5083C31.8534 45.6697 31.547 47.4399 31.5054 49.0918L31.5005 49.4834V50H9.00049C9.00053 46.5858 9.70846 43.2041 11.0845 40.0498C11.6258 38.8091 12.2679 37.6132 13.0005 36.4717V44Z" fill="oklch(0.3057 0.079 256.22 / 0.13)" class="wd-expressive-accent"></path>
<path d="M43.0005 33.5361C42.6868 34.0973 42.5005 34.758 42.5005 35.501V36.3174C41.2941 36.6134 40.1243 37.0045 39.0005 37.4824V21.1406C40.0313 21.0453 41.0343 21 42.0005 21H43.0005V33.5361Z" fill="oklch(0.3057 0.079 256.22 / 0.13)" class="wd-expressive-accent"></path>
<path d="M23.0005 25L26.5356 28.5352C25.9542 29.1166 25.2385 29.5465 24.4517 29.7852C23.6649 30.0238 22.8313 30.0646 22.0249 29.9043C21.2186 29.7439 20.4642 29.3867 19.8286 28.8652C19.193 28.3436 18.695 27.6728 18.3804 26.9131C18.0658 26.1535 17.9433 25.3279 18.0239 24.5098C18.1045 23.6915 18.3865 22.9053 18.8433 22.2217C19.3 21.5383 19.9182 20.9783 20.6431 20.5908C21.3682 20.2032 22.1782 20 23.0005 20V25Z" fill="oklch(0.3057 0.079 256.22 / 0.13)" class="wd-expressive-accent"></path>
<path d="M26.0005 3C27.9342 3.00013 29.6113 4.09866 30.4429 5.70508C30.5343 5.88118 30.7122 6 30.9106 6H34.5005C34.7764 6.00018 35.0004 6.22402 35.0005 6.5V12.5C35.0003 12.7759 34.7764 12.9998 34.5005 13H17.5005C17.2245 13 17.0007 12.776 17.0005 12.5V6.5C17.0006 6.22391 17.2244 6 17.5005 6H21.0903C21.2887 5.99986 21.4667 5.8811 21.5581 5.70508C22.3898 4.09869 24.0667 3 26.0005 3Z" fill="oklch(0.3057 0.079 256.22 / 0.13)" class="wd-expressive-accent"></path>
</g>
<g>
<path d="M45 35.501C45 34.0907 46.7688 33.4612 47.6611 34.5518L47.6602 34.5527L53.5137 41.7051C53.9369 42.223 53.9638 42.9529 53.5938 43.4971L53.5146 43.6035L47.6611 50.7578L47.6602 50.7588C46.766 51.8499 45 51.215 45 49.8076V46.9209C43.5569 47.1775 42.1766 47.6138 40.8848 48.21C39.1378 49.0162 37.994 50.6063 37.4209 52.5605C37.2492 53.1456 36.734 53.5944 36.0986 53.6484L35.9697 53.6543H35.5C34.6716 53.6543 34 52.9827 34 52.1543V49.4834C34.0001 45.8584 35.4572 41.9661 38.9951 40.2334C40.856 39.3221 42.8753 38.6839 45 38.3721V35.501ZM47 39.2559C47 39.7688 46.6119 40.1989 46.1016 40.251C43.8865 40.4768 41.7873 41.0933 39.874 42.0303C37.2817 43.3001 36.0001 46.2823 36 49.4834V50.6387C36.801 48.8418 38.117 47.2842 40.0469 46.3936C41.859 45.5573 43.8257 44.9987 45.8906 44.7705C46.173 44.7394 46.4553 44.8301 46.667 45.0195C46.8788 45.2092 47 45.4803 47 45.7646V48.4072L51.707 42.6533L47 36.9004V39.2559Z" fill="oklch(0.3523 0 0 / 1)" class="wd-expressive-fill"></path>
<path d="M26 2.00098C28.2218 2.00098 30.1561 3.21065 31.1924 5.00098H34.5C35.1529 5.00098 35.707 5.41864 35.9131 6.00098H41C42.6568 6.00098 44 7.34413 44 9.00098V33.5C44 33.7761 43.7761 34 43.5 34H42.5C42.2239 34 42 33.7761 42 33.5V9.00098C42 8.4487 41.5523 8.00098 41 8.00098H36V10.001H39C39.2652 10.001 39.5195 10.1064 39.707 10.2939C39.8945 10.4815 40 10.7358 40 11.001V37.5C40 37.7761 39.7761 38 39.5 38H38.5C38.2239 38 38 37.7761 38 37.5V12.001H36V12.501C35.9999 13.3293 35.3284 14.001 34.5 14.001H17.5C16.6716 14.001 16.0001 13.3293 16 12.501V12.001H14V43.001H27.4902C27.4935 43.0009 27.4967 43 27.5 43H29.5C29.5033 43 29.5065 43.0009 29.5098 43.001H30.4902C30.4935 43.0009 30.4967 43 30.5 43H32.5C32.7761 43 33 43.2239 33 43.5V44.5C33 44.7761 32.7761 45 32.5 45L13 45.001C12.7348 45.001 12.4805 44.8955 12.293 44.708C12.1055 44.5205 12.0001 44.2661 12 44.001V11.001C12 10.4487 12.4478 10.0011 13 10.001H16V8.00098H11C10.4478 8.00108 10 8.44876 10 9.00098V48.001C10.0001 48.5532 10.4478 49.001 11 49.001H27.4902C27.4935 49.0009 27.4967 49 27.5 49H31.5C31.7761 49 32 49.2239 32 49.5V50.5C32 50.7761 31.7761 51 31.5 51L11 51.001C9.34322 51.001 8.00012 49.6577 8 48.001V9.00098C8.00001 7.34419 9.34324 6.00108 11 6.00098H16.0869C16.293 5.41864 16.8471 5.00098 17.5 5.00098H20.8076C21.8439 3.21065 23.7782 2.00098 26 2.00098ZM26 4.00098C24.4548 4.00098 23.1131 4.87738 22.4463 6.16504C22.2004 6.63988 21.6984 7.00097 21.0898 7.00098H18V12.001H34V7.00098H30.9102C30.3016 7.00097 29.7996 6.63988 29.5537 6.16504C28.8869 4.87738 27.5452 4.00098 26 4.00098Z" fill="oklch(0.3523 0 0 / 1)" class="wd-expressive-fill"></path>
<path d="M27.5 36C27.7761 36 28 36.2239 28 36.5V37.5C28 37.7761 27.7761 38 27.5 38H17.5C17.2239 38 17 37.7761 17 37.5V36.5C17 36.2239 17.2239 36 17.5 36H27.5Z" fill="oklch(0.3523 0 0 / 1)" class="wd-expressive-fill"></path>
<path d="M31.5 33C31.7761 33 32 33.2239 32 33.5V34.5C32 34.7761 31.7761 35 31.5 35H17.5C17.2239 35 17 34.7761 17 34.5V33.5C17 33.2239 17.2239 33 17.5 33H31.5Z" fill="oklch(0.3523 0 0 / 1)" class="wd-expressive-fill"></path>
<path d="M23 19C24.1865 19 25.3464 19.3517 26.333 20.0107C27.3197 20.67 28.0888 21.6077 28.543 22.7041C28.9971 23.8004 29.1163 25.007 28.8848 26.1709C28.6532 27.3347 28.0812 28.4032 27.2422 29.2422C26.5446 29.9398 25.6862 30.4548 24.7422 30.7412C23.798 31.0276 22.7968 31.0773 21.8291 30.8848C20.8615 30.6922 19.956 30.2636 19.1934 29.6377C18.4308 29.0118 17.8346 28.2074 17.457 27.2959C17.0795 26.3844 16.9326 25.394 17.0293 24.4121C17.126 23.4303 17.4628 22.4873 18.0107 21.667C18.5589 20.8466 19.3017 20.1731 20.1719 19.708C21.042 19.243 22.0134 19 23 19ZM22 21.1279C21.6934 21.2071 21.3957 21.3222 21.1143 21.4727C20.5343 21.7827 20.0392 22.2305 19.6738 22.7773C19.3084 23.3243 19.084 23.9538 19.0195 24.6084C18.9552 25.2628 19.0531 25.9228 19.3047 26.5303C19.5564 27.138 19.9544 27.6745 20.4629 28.0918C20.9713 28.509 21.5746 28.7945 22.2197 28.9229C22.8648 29.0512 23.5317 29.019 24.1611 28.8281C24.4664 28.7355 24.7575 28.6051 25.0303 28.4443L22.293 25.707C22.1054 25.5195 22 25.2652 22 25V21.1279ZM24 24.5859L26.4434 27.0293C26.6703 26.6443 26.8347 26.2233 26.9229 25.7803C27.0772 25.0045 26.9979 24.2005 26.6953 23.4697C26.3926 22.7389 25.8804 22.1133 25.2227 21.6738C24.847 21.4228 24.433 21.2406 24 21.1289V24.5859Z" fill="oklch(0.3523 0 0 / 1)" class="wd-expressive-fill"></path>
<path d="M34.5 22C34.7761 22 35 22.2239 35 22.5V23.5C35 23.7761 34.7761 24 34.5 24H31.5C31.2239 24 31 23.7761 31 23.5V22.5C31 22.2239 31.2239 22 31.5 22H34.5Z" fill="oklch(0.3523 0 0 / 1)" class="wd-expressive-fill"></path>
<path d="M34.5 19C34.7761 19 35 19.2239 35 19.5V20.5C35 20.7761 34.7761 21 34.5 21H31.5C31.2239 21 31 20.7761 31 20.5V19.5C31 19.2239 31.2239 19 31.5 19H34.5Z" fill="oklch(0.3523 0 0 / 1)" class="wd-expressive-fill"></path>
</g>
</svg>