<svg role="presentation" width="56" height="56" viewBox="0 0 56 56" xmlns="http://www.w3.org/2000/svg" class="wd-expressive wd-expressive-document-worksheets">
<g>
<path d="M14 49.5C14 49.7761 14.2239 50 14.5 50H45V52.5C45 52.7761 44.7761 53 44.5 53H11.5C11.2239 53 11 52.7761 11 52.5V3.5C11 3.22386 11.2239 3 11.5 3H14V49.5Z" fill="oklch(0.3057 0.079 256.22 / 0.13)" class="wd-expressive-accent"></path>
<path d="M38 32H31V16H38V32Z" fill="oklch(0.3057 0.079 256.22 / 0.13)" class="wd-expressive-accent"></path>
</g>
<g>
<path d="M38 15C38.5523 15 39 15.4477 39 16V32C39 32.5523 38.5523 33 38 33H32V40C32 40.5523 31.5523 41 31 41H18C17.4479 40.9998 17 40.5522 17 40V16C17 15.4478 17.4479 15.0002 18 15H38ZM19 39H30V33H19V39ZM19 25V31H30V25H19ZM32 25V31H37V25H32ZM19 23H30V17H19V23ZM32 23H37V17H32V23Z" fill="oklch(0.3523 0 0 / 1)" class="wd-expressive-fill"></path>
<path d="M43 2C44.6569 2 46 3.34315 46 5V51C46 52.6569 44.6569 54 43 54H13C11.3431 54 10 52.6569 10 51V5C10 3.34315 11.3431 2 13 2H43ZM13 4C12.4477 4 12 4.44772 12 5V51C12 51.5523 12.4477 52 13 52H43C43.5523 52 44 51.5523 44 51V5C44 4.44772 43.5523 4 43 4H13Z" fill="oklch(0.3523 0 0 / 1)" class="wd-expressive-fill"></path>
</g>
</svg>