<svg role="presentation" width="56" height="56" viewBox="0 0 56 56" xmlns="http://www.w3.org/2000/svg" class="wd-expressive wd-expressive-user-gear">
<g>
<path d="M38.6611 35.0768C38.802 35.0586 38.9405 35.1141 39.041 35.2145L40.0332 36.2058C40.1922 36.3645 40.4368 36.3962 40.6377 36.2956C40.6714 36.2787 40.7073 36.3147 40.6915 36.3488C40.2474 37.3069 40 38.3752 40 39.5007C40.0001 40.8311 40.3485 42.08 40.9562 43.1632C40.9923 43.2275 41.0143 43.2987 41.0234 43.3718C41.1913 44.7313 42.2685 45.8081 43.6279 45.9763C43.701 45.9853 43.7722 46.0074 43.8364 46.0435C44.92 46.6517 46.169 47.0007 47.5 47.0007C48.6251 47.0007 49.6925 46.7529 50.6503 46.309C50.6837 46.2935 50.7197 46.3291 50.7031 46.362C50.6023 46.5629 50.634 46.8085 50.793 46.9675L51.7871 47.9606C51.8875 48.0612 51.9422 48.2006 51.9238 48.3415C51.8412 48.9743 51.5574 49.5868 51.0713 50.0729C50.5849 50.5592 49.972 50.844 49.3389 50.9265C49.1981 50.9446 49.0594 50.889 48.959 50.7888L47.9639 49.7946C47.8049 49.6356 47.5603 49.6039 47.3594 49.7048C47.0402 49.8652 46.7074 50.0038 46.3643 50.1179C46.1512 50.189 46.001 50.3844 46.001 50.6091V52.0134C46.0008 52.1554 45.9407 52.2929 45.8281 52.3796C45.3222 52.7687 44.6884 53.0005 44.001 53.0007C43.3133 53.0007 42.6789 52.7687 42.1729 52.3796C42.0602 52.2929 42.0011 52.1555 42.001 52.0134V50.6091C42.001 50.3844 41.8498 50.1889 41.6367 50.1179C41.293 50.0038 40.9593 49.8653 40.6396 49.7048C40.4386 49.604 40.1941 49.6356 40.0352 49.7946L39.041 50.7888C38.9406 50.889 38.8019 50.9446 38.6611 50.9265C38.0282 50.844 37.416 50.5589 36.9297 50.0729C36.4433 49.5866 36.1587 48.9737 36.0762 48.3405C36.0579 48.1997 36.1126 48.0602 36.2129 47.9597L37.2051 46.9665C37.3638 46.8075 37.3955 46.5619 37.2949 46.361C37.1347 46.0415 36.9967 45.7085 36.8828 45.3649C36.8121 45.1515 36.6164 45.0008 36.3916 45.0007H34.9873C34.8453 45.0006 34.7078 44.9412 34.6211 44.8288C34.2318 44.3228 34.0011 43.6885 34.001 43.0007C34.001 42.3128 34.2318 41.6786 34.6211 41.1725C34.7078 41.0599 34.8452 41.0008 34.9873 41.0007H36.3916C36.6162 41.0005 36.812 40.8496 36.8828 40.6364C36.9967 40.2925 37.1346 39.9592 37.2949 39.6393C37.3957 39.4383 37.364 39.193 37.2051 39.0339L36.2129 38.0427C36.1125 37.9422 36.058 37.8027 36.0762 37.6618C36.1587 37.0288 36.4435 36.4167 36.9297 35.9304C37.4161 35.4442 38.0281 35.1593 38.6611 35.0768Z" fill="oklch(0.3057 0.079 256.22 / 0.13)" class="wd-expressive-accent"></path>
<path d="M9.78973 34.7954C9.87763 34.733 10 34.807 10 34.9147V43.9997C10 45.0353 10.7872 45.8867 11.7959 45.989L12 45.9997H31.5C31.7761 45.9997 32 46.2236 32 46.4997V48.4997C32 48.7758 31.7761 48.9997 31.5 48.9997H9L8.7959 48.989C7.78724 48.8867 7 48.0353 7 46.9997V37.9147C7.00008 37.346 7.24046 36.8015 7.6748 36.4343C8.35544 35.8588 9.06134 35.3122 9.78973 34.7954Z" fill="oklch(0.3057 0.079 256.22 / 0.13)" class="wd-expressive-accent"></path>
<path d="M53.1629 44.4159C53.3861 44.1583 53.7226 44.3076 53.5411 44.5961C53.4907 44.6763 53.4365 44.754 53.3789 44.8288C53.2922 44.9412 53.1547 45.0006 53.0127 45.0007C52.8647 45.0007 52.7912 44.8167 52.894 44.7101C52.9862 44.6145 53.0759 44.5164 53.1629 44.4159Z" fill="oklch(0.3057 0.079 256.22 / 0.13)" class="wd-expressive-accent"></path>
<path d="M42.4037 33.4608C42.6915 33.2797 42.8407 33.6155 42.5839 33.8383C42.4838 33.9251 42.3861 34.0145 42.2908 34.1064C42.1845 34.209 42.001 34.1357 42.001 33.988C42.001 33.8458 42.0602 33.7085 42.1729 33.6218C42.2471 33.5646 42.3242 33.5109 42.4037 33.4608Z" fill="oklch(0.3057 0.079 256.22 / 0.13)" class="wd-expressive-accent"></path>
<path d="M20.8069 7.05584C21.1808 6.66894 21.7521 7.15501 21.5722 7.66202C21.202 8.70573 21 9.82903 21 10.9997C21 16.5225 25.4772 20.9997 31 20.9997C32.1707 20.9997 33.2937 20.7974 34.3372 20.4268C34.8441 20.2467 35.3301 20.8179 34.9433 21.1917C33.1453 22.9297 30.6984 23.9997 28 23.9997C22.4772 23.9997 18 19.5225 18 13.9997C18.0001 11.3016 19.0695 8.85415 20.8069 7.05584Z" fill="oklch(0.3057 0.079 256.22 / 0.13)" class="wd-expressive-accent"></path>
</g>
<g>
<path d="M44 39C46.2091 39 48 40.7909 48 43C48 45.14 46.3194 46.8879 44.2061 46.9951L44 47C41.7909 47 40 45.2091 40 43C40 40.7909 41.7909 39 44 39ZM44 41C42.8954 41 42 41.8954 42 43C42 44.1046 42.8954 45 44 45L44.2041 44.9893C45.2128 44.887 46 44.0356 46 43C46 41.9644 45.2128 41.113 44.2041 41.0107L44 41Z" fill="oklch(0.3523 0 0 / 1)" class="wd-expressive-fill"></path>
<path d="M44.3398 32.0146C45.1247 32.081 45.8471 32.3741 46.4375 32.8281C46.8275 33.1282 47 33.5763 47 33.9873V35.0469C47.1699 35.1109 47.3373 35.1804 47.502 35.2549L48.2529 34.5059C48.5054 34.254 48.871 34.0715 49.2861 34.0723L49.4678 34.085L49.7832 34.1387C50.5143 34.2941 51.2108 34.6563 51.7773 35.2227L52.0078 35.4727C52.5161 36.0746 52.8187 36.7934 52.915 37.5322C52.9786 38.0205 52.7836 38.4587 52.4932 38.749L51.7432 39.4971C51.8178 39.662 51.8879 39.8296 51.9521 40H53.0137C53.4233 40.0004 53.8708 40.1719 54.1709 40.5615C54.6904 41.2365 55 42.0839 55 43C55 43.9161 54.6904 44.7635 54.1709 45.4385C53.8708 45.8281 53.4233 45.9996 53.0137 46H51.9521C51.8878 46.1703 51.8169 46.3373 51.7422 46.502L52.4941 47.2529L52.5996 47.3701C52.8315 47.6573 52.9702 48.0463 52.915 48.4697C52.8187 49.2085 52.5161 49.9274 52.0078 50.5293L51.7773 50.7793C51.1298 51.4265 50.3123 51.807 49.4678 51.917C48.9784 51.9804 48.5408 51.7838 48.252 51.4951L47.5 50.7441C47.3361 50.8184 47.1693 50.8872 47 50.9512V52.0127C47 52.4237 46.8275 52.8718 46.4375 53.1719C45.8471 53.6259 45.1247 53.919 44.3398 53.9854L44 54C43.084 53.9999 42.2377 53.6903 41.5635 53.1719C41.1769 52.8745 41 52.4286 41 52.0127V50.9512C40.8302 50.8871 40.6633 50.8176 40.499 50.7432L39.748 51.4951C39.458 51.7852 39.0197 51.9806 38.5312 51.917C37.7928 51.8207 37.0744 51.5176 36.4727 51.0098L36.2217 50.7793C35.5733 50.1308 35.1948 49.312 35.085 48.4688C35.022 47.9848 35.212 47.5452 35.5049 47.252L36.2549 46.501C36.1806 46.3367 36.1117 46.1696 36.0479 46H34.9863C34.5764 45.9996 34.1282 45.8284 33.8281 45.4385C33.3091 44.7638 33 43.916 33 43C33 42.0837 33.3089 41.2363 33.8281 40.5615C34.1282 40.1716 34.5764 40.0004 34.9863 40H36.0479C36.1118 39.8299 36.1804 39.662 36.2549 39.4971L35.5059 38.749C35.2125 38.4556 35.022 38.0163 35.085 37.5322L35.1387 37.2168C35.2938 36.4867 35.6547 35.7897 36.2217 35.2227L36.4727 34.9922C37.0749 34.484 37.7937 34.1812 38.5322 34.085L38.5332 34.084C38.9609 34.0288 39.3488 34.1729 39.6328 34.4033L39.748 34.5068L40.4971 35.2549C40.662 35.1803 40.8298 35.111 41 35.0469V33.9873C41 33.5714 41.1769 33.1255 41.5635 32.8281L41.8242 32.6436C42.4503 32.237 43.1986 32.0001 44 32L44.3398 32.0146ZM44 34C43.6349 34.0001 43.2942 34.098 43 34.2686V35.3906C43 36.0759 42.5444 36.6342 41.9502 36.8311C41.7264 36.9052 41.5079 36.9909 41.2959 37.0879L41.0859 37.1885C40.5268 37.4688 39.8107 37.3965 39.3262 36.9121L38.5322 36.1191C38.2557 36.1929 37.9922 36.3268 37.7617 36.5215L37.6357 36.6367C37.3777 36.8948 37.2065 37.2052 37.1191 37.5342L37.9121 38.3262L37.998 38.4199C38.4045 38.9004 38.451 39.5633 38.1885 40.0869C38.0499 40.3633 37.9309 40.6517 37.832 40.9502C37.635 41.545 37.0763 41.9994 36.3926 42H35.2686C35.0982 42.294 35 42.6345 35 43C35 43.3655 35.0982 43.706 35.2686 44H36.3926C37.0336 44.0006 37.5647 44.3999 37.791 44.9395L37.832 45.0498L37.9102 45.2715C37.9919 45.491 38.0846 45.7049 38.1885 45.9121C38.469 46.4713 38.3968 47.1885 37.9131 47.6729L37.1191 48.4658C37.2064 48.7956 37.3774 49.1068 37.6357 49.3652L37.7617 49.4805C37.9923 49.6752 38.2559 49.8081 38.5322 49.8818L39.3281 49.0869L39.4219 49.001C39.9019 48.5949 40.5648 48.5477 41.0889 48.8105C41.3657 48.9496 41.6541 49.0693 41.9512 49.168C42.5444 49.365 43 49.9229 43 50.6084V51.7305C43.2943 51.9012 43.6347 51.9999 44 52L44.1699 51.9932C44.4713 51.9679 44.752 51.8742 45 51.7305V50.6084C45 49.9219 45.4578 49.365 46.0488 49.168C46.3457 49.0693 46.6337 48.9495 46.9102 48.8105C47.4347 48.5473 48.0975 48.5952 48.5771 49.001L48.6709 49.0869L49.4668 49.8818C49.7946 49.7944 50.1048 49.6236 50.3633 49.3652L50.4785 49.2393C50.6738 49.0082 50.8062 48.7439 50.8799 48.4668L50.0859 47.6738C49.6015 47.1893 49.5283 46.4718 49.8096 45.9121C49.9492 45.6344 50.0692 45.3461 50.168 45.0488C50.3651 44.4556 50.9235 44.0003 51.6084 44H52.7314C52.9018 43.7061 53 43.3656 53 43C53 42.6344 52.9018 42.2939 52.7314 42H51.6084C50.9237 41.9997 50.365 41.5443 50.168 40.9502C50.0692 40.6525 49.9496 40.3639 49.8105 40.0869C49.5303 39.5282 49.6019 38.8111 50.0869 38.3262L50.8799 37.5332C50.8062 37.2568 50.6734 36.9933 50.4785 36.7627L50.3633 36.6367C50.1045 36.378 49.7941 36.2065 49.4658 36.1191L48.6719 36.9131C48.1878 37.3962 47.4725 37.4692 46.9131 37.1885C46.7057 37.0843 46.4904 36.9911 46.2705 36.9092L46.0488 36.8311C45.457 36.6341 45 36.0767 45 35.3906V34.2686C44.7521 34.125 44.4711 34.0321 44.1699 34.0068L44 34Z" fill="oklch(0.3523 0 0 / 1)" class="wd-expressive-fill"></path>
<path d="M28 28C32.2051 28 36.2258 28.7994 39.917 30.2549C40.1738 30.3561 40.2954 30.6481 40.1904 30.9033L39.8096 31.8281C39.7044 32.0835 39.4123 32.2054 39.1553 32.1045C35.7015 30.7466 31.9388 30 28 30C20.4988 30 13.6325 32.7071 8.32031 37.1982C8.12216 37.3658 8 37.6251 8 37.915V47C8 47.5523 8.44772 48 9 48H31.5C31.7761 48 32 48.2239 32 48.5V49.5C32 49.7761 31.7761 50 31.5 50H9C7.34315 50 6 48.6569 6 47V37.915C6 37.0672 6.35863 36.2379 7.0293 35.6709C12.689 30.886 20.0086 28 28 28Z" fill="oklch(0.3523 0 0 / 1)" class="wd-expressive-fill"></path>
<path d="M28 3C34.0751 3 39 7.92487 39 14C39 20.0751 34.0751 25 28 25C21.9249 25 17 20.0751 17 14C17 7.92487 21.9249 3 28 3ZM28 5C23.0294 5 19 9.02944 19 14C19 18.9706 23.0294 23 28 23C32.9706 23 37 18.9706 37 14C37 9.02944 32.9706 5 28 5Z" fill="oklch(0.3523 0 0 / 1)" class="wd-expressive-fill"></path>
</g>
</svg>