<svg role="presentation" width="56" height="56" viewBox="0 0 56 56" xmlns="http://www.w3.org/2000/svg" class="wd-expressive wd-expressive-data-refresh">
<g>
<path d="M28 4.99902C40.7025 4.99902 51 15.2965 51 27.999C51 40.7016 40.7025 50.999 28 50.999C20.2334 50.999 13.3666 47.149 9.20215 41.2539L12.0635 39.2373C12.289 39.0784 12.5996 39.1325 12.7646 39.3535C16.2288 43.9942 21.7636 46.999 28 46.999C38.4933 46.9989 47 38.4924 47 27.999C47 17.5057 38.4933 8.99914 28 8.99902C17.5067 8.99914 9 17.5057 9 27.999C9 29.5155 9.17873 30.9905 9.51465 32.4043C9.57832 32.6728 9.41999 32.9466 9.15332 33.0176L5.77051 33.918C5.26892 32.0293 5 30.0456 5 27.999C5 15.2965 15.2975 4.99902 28 4.99902Z" fill="oklch(0.3057 0.079 256.22 / 0.13)" class="wd-expressive-accent"></path>
<path d="M19 30.499C19 32.432 23.0295 33.999 28 33.999C30.8274 33.999 33.35 33.4913 35 32.6982V37.6963C33.35 38.4893 30.8274 38.9971 28 38.9971C23.0296 38.9971 19.0002 37.43 19 35.4971V30.499Z" fill="oklch(0.3057 0.079 256.22 / 0.13)" class="wd-expressive-accent"></path>
<path d="M19 20.498C19 22.431 23.0295 23.998 28 23.998C30.8274 23.998 33.35 23.4903 35 22.6973V27.6982C33.35 28.4913 30.8274 28.999 28 28.999C23.0295 28.999 19 27.432 19 25.499V20.498Z" fill="oklch(0.3057 0.079 256.22 / 0.13)" class="wd-expressive-accent"></path>
</g>
<g>
<path d="M20.2856 5.27032C26.0554 3.31184 32.3556 3.62202 37.9057 6.13654C43.4555 8.65135 47.8414 13.1832 50.1733 18.8123C52.505 24.4418 52.6087 30.7482 50.4623 36.451C48.3159 42.1536 44.0804 46.8272 38.6156 49.5223C33.1509 52.217 26.8643 52.7323 21.0336 50.9637C15.878 49.3996 11.4186 46.153 8.34904 41.7742C8.4134 42.5034 8.45057 43.241 8.45061 43.9861C8.45056 45.7244 8.27349 47.4241 7.93596 49.0643C7.88012 49.3341 7.61196 49.5026 7.34318 49.4422L6.36662 49.2205C6.09787 49.1591 5.92987 48.8911 5.98479 48.6209C6.29004 47.1249 6.45056 45.574 6.45061 43.9861C6.45053 42.4592 6.30276 40.9657 6.01994 39.5233C6.01872 39.5168 6.01813 39.5092 6.01701 39.5027C6.01221 39.4751 6.00972 39.4467 6.00725 39.4188C6.00485 39.3918 6.00256 39.3646 6.00236 39.3377C6.00223 39.3157 6.00398 39.2934 6.00529 39.2713C6.0071 39.2409 6.00856 39.2104 6.01311 39.1805C6.01716 39.154 6.0235 39.1276 6.02971 39.1014C6.03493 39.0792 6.0396 39.0567 6.04631 39.035C6.05576 39.0046 6.06802 38.9748 6.08049 38.9451C6.08895 38.9249 6.09708 38.9042 6.10686 38.8846C6.11061 38.877 6.11362 38.8686 6.1176 38.8611C6.12628 38.8449 6.13744 38.8299 6.14689 38.8143C6.16158 38.7899 6.17604 38.7651 6.19279 38.742C6.20507 38.7252 6.21964 38.71 6.23283 38.6942C6.25508 38.6672 6.27801 38.6406 6.30314 38.616C6.31284 38.6066 6.32338 38.5977 6.33342 38.5887C6.36159 38.5633 6.39099 38.5387 6.42229 38.5164C6.43737 38.5058 6.45353 38.4959 6.46916 38.4861C6.48933 38.4734 6.5094 38.4594 6.53068 38.4481C6.5397 38.4433 6.5499 38.4398 6.559 38.4354C6.57324 38.4284 6.5884 38.4221 6.60295 38.4158C6.63827 38.4005 6.67406 38.3858 6.71037 38.3748C6.71946 38.3721 6.72953 38.3704 6.73869 38.368C6.78116 38.3565 6.82444 38.3474 6.8676 38.3416C6.87417 38.3408 6.88153 38.3404 6.88811 38.3397C6.93347 38.3346 6.97945 38.3317 7.02482 38.3328C7.03336 38.3331 7.04265 38.3343 7.05119 38.3348C7.09388 38.337 7.1371 38.3408 7.17912 38.3484C7.18339 38.3492 7.18855 38.3496 7.19279 38.3504C8.63533 38.6333 10.1285 38.781 11.6557 38.7811C13.2437 38.781 14.7944 38.6205 16.2905 38.3152C16.5607 38.2603 16.8287 38.4292 16.8901 38.6981L17.1117 39.6736C17.1728 39.9428 17.004 40.2115 16.7338 40.2674C15.0936 40.605 13.394 40.781 11.6557 40.7811C11.1195 40.781 10.5869 40.7629 10.059 40.7293C12.8703 44.6908 16.9285 47.6281 21.6137 49.0496C26.9585 50.6708 32.7215 50.1984 37.7309 47.7283C42.7402 45.2579 46.6227 40.9733 48.5903 35.7459C50.5576 30.5185 50.463 24.7382 48.3256 19.5779C46.1881 14.4177 42.1671 10.2631 37.0795 7.95782C31.9921 5.65308 26.2179 5.36972 20.9291 7.16486C15.6404 8.96037 11.231 12.7001 8.59807 17.6258C6.04386 22.4047 5.34687 27.9536 6.62736 33.2068C6.69264 33.475 6.53443 33.7495 6.26799 33.8211L5.78459 33.95L5.30119 34.0799C5.03453 34.1513 4.75972 33.9925 4.69377 33.7244C3.28228 27.9807 4.04085 21.9101 6.83439 16.6834C9.70668 11.3098 14.516 7.22912 20.2856 5.27032Z" fill="oklch(0.3523 0 0 / 1)" class="wd-expressive-fill"></path>
<path d="M28.0004 15.9979C30.5773 15.9979 32.9562 16.402 34.727 17.0906C35.6091 17.4337 36.3915 17.8672 36.9701 18.3992C37.5496 18.932 38.0003 19.6404 38.0004 20.4979V35.4988C37.9999 36.3558 37.5494 37.0639 36.9701 37.5965C36.3915 38.1285 35.609 38.5611 34.727 38.9041C32.9562 39.5928 30.5773 39.9978 28.0004 39.9979C25.4236 39.9979 23.0447 39.5927 21.2738 38.9041C20.3919 38.5611 19.6093 38.1283 19.0307 37.5965C18.4875 37.0971 18.0571 36.4432 18.0053 35.657L18.0004 35.4979V20.4979C18.0005 19.6404 18.4512 18.932 19.0307 18.3992C19.6094 17.8673 20.3917 17.4337 21.2738 17.0906C23.0447 16.402 25.4235 15.9979 28.0004 15.9979ZM36.0004 33.2986C35.6121 33.5255 35.1831 33.7277 34.727 33.9051C32.9562 34.5937 30.5773 34.9978 28.0004 34.9979C25.4235 34.9979 23.0447 34.5937 21.2738 33.9051C20.8178 33.7277 20.3887 33.5254 20.0004 33.2986V35.4988C20.0009 35.6081 20.0546 35.8207 20.3842 36.1238C20.7163 36.4291 21.2524 36.7507 21.9985 37.0408C23.4849 37.6188 25.6071 37.9979 28.0004 37.9979C30.3938 37.9978 32.516 37.6189 34.0024 37.0408C34.7485 36.7506 35.2845 36.4292 35.6166 36.1238C35.9462 35.8207 35.9999 35.6081 36.0004 35.4988V33.2986ZM36.0004 28.2986C35.6121 28.5255 35.1831 28.7277 34.727 28.9051C32.9562 29.5937 30.5773 29.9978 28.0004 29.9979C25.4235 29.9979 23.0447 29.5937 21.2738 28.9051C20.8178 28.7277 20.3887 28.5254 20.0004 28.2986V30.4979L20.0131 30.5994C20.0435 30.7194 20.1361 30.8957 20.3842 31.1238C20.7163 31.4292 21.2523 31.7506 21.9985 32.0408C23.4849 32.6189 25.607 32.9979 28.0004 32.9979C30.3938 32.9978 32.516 32.6189 34.0024 32.0408C34.7484 31.7506 35.2846 31.4291 35.6166 31.1238C35.8644 30.8959 35.9563 30.7194 35.9867 30.5994L36.0004 30.4979V28.2986ZM36.0004 23.2986C35.6121 23.5255 35.1831 23.7277 34.727 23.9051C32.9562 24.5937 30.5773 24.9978 28.0004 24.9979C25.4235 24.9979 23.0447 24.5937 21.2738 23.9051C20.8178 23.7277 20.3887 23.5254 20.0004 23.2986V25.4979L20.0131 25.5994C20.0435 25.7194 20.1361 25.8957 20.3842 26.1238C20.7163 26.4292 21.2523 26.7506 21.9985 27.0408C23.4849 27.6189 25.607 27.9979 28.0004 27.9979C30.3938 27.9978 32.516 27.6189 34.0024 27.0408C34.7484 26.7506 35.2846 26.4291 35.6166 26.1238C35.8644 25.8959 35.9563 25.7194 35.9867 25.5994L36.0004 25.4979V23.2986ZM28.0004 17.9979C25.6071 17.9979 23.4849 18.3769 21.9985 18.9549C21.2524 19.245 20.7163 19.5666 20.3842 19.8719C20.0534 20.1761 20.0005 20.389 20.0004 20.4979C20.0004 20.6067 20.0532 20.8194 20.3842 21.1238C20.7163 21.4292 21.2523 21.7506 21.9985 22.0408C23.4849 22.6189 25.607 22.9979 28.0004 22.9979C30.3938 22.9978 32.516 22.6189 34.0024 22.0408C34.7484 21.7506 35.2846 21.4291 35.6166 21.1238C35.9474 20.8195 36.0004 20.6067 36.0004 20.4979C36.0003 20.389 35.9474 20.1761 35.6166 19.8719C35.2846 19.5666 34.7485 19.2451 34.0024 18.9549C32.516 18.3768 30.3938 17.9979 28.0004 17.9979Z" fill="oklch(0.3523 0 0 / 1)" class="wd-expressive-fill"></path>
</g>
</svg>