<svg role="presentation" width="56" height="56" viewBox="0 0 56 56" xmlns="http://www.w3.org/2000/svg" class="wd-expressive wd-expressive-chair">
<g>
<path d="M41.5 36C42.3284 36 43 36.6716 43 37.5C43 38.3284 42.3284 39 41.5 39H14.5C13.6716 39 13 38.3284 13 37.5C13 36.6716 13.6716 36 14.5 36H41.5Z" fill="oklch(0.3057 0.079 256.22 / 0.13)" class="wd-expressive-accent"></path>
<path d="M30 33H26V27H21.4346C18.5094 27 16.2084 24.5 16.4512 21.585L17.6182 7.58496C17.698 6.62654 18.0443 5.7496 18.5811 5.02539L17.4512 18.585C17.2084 21.5 19.5094 24 22.4346 24H33.5664C36.4914 23.9998 38.7916 21.4998 38.5488 18.585L37.418 5.02539C37.9549 5.7497 38.3019 6.62632 38.3818 7.58496L39.5488 21.585C39.7916 24.4998 37.4914 26.9998 34.5664 27H30V33Z" fill="oklch(0.3057 0.079 256.22 / 0.13)" class="wd-expressive-accent"></path>
</g>
<g>
<path d="M18 50C19.1046 50 20 50.8954 20 52C20 53.1046 19.1046 54 18 54C16.8954 54 16 53.1046 16 52C16 50.8954 16.8954 50 18 50Z" fill="oklch(0.3523 0 0 / 1)" class="wd-expressive-fill"></path>
<path d="M28 50C29.1046 50 30 50.8954 30 52C30 53.1046 29.1046 54 28 54C26.8954 54 26 53.1046 26 52C26 50.8954 26.8954 50 28 50Z" fill="oklch(0.3523 0 0 / 1)" class="wd-expressive-fill"></path>
<path d="M39 50C40.1046 50 41 50.8954 41 52C41 53.1046 40.1046 54 39 54C37.8954 54 37 53.1046 37 52C37 50.8954 37.8954 50 39 50Z" fill="oklch(0.3523 0 0 / 1)" class="wd-expressive-fill"></path>
<path d="M33.6904 2.00684C36.6801 2.15014 39.1279 4.48942 39.3789 7.50195L40.5449 21.502C40.8363 24.9999 38.0764 27.9998 34.5664 28H31V32H41C42.6569 32 44 33.3431 44 35V37C44 38.6569 42.6569 40 41 40H29V43.2891L40.8135 46.8975C41.0776 46.9781 41.2262 47.2584 41.1455 47.5225L40.8535 48.4775C40.7729 48.7416 40.4936 48.8902 40.2295 48.8096L29 45.3789V48.5C29 48.7761 28.7761 49 28.5 49H27.5C27.2239 49 27 48.7761 27 48.5V45.3584L16.792 48.7891C16.5303 48.8769 16.2471 48.7354 16.1592 48.4736L15.8408 47.5254C15.753 47.2637 15.8936 46.9805 16.1553 46.8926L27 43.248V40H15C13.3431 40 12 38.6569 12 37V35C12 33.3431 13.3431 32 15 32H25V28H21.4336C17.9236 27.9998 15.1637 24.9999 15.4551 21.502L16.6211 7.50195C16.8802 4.39223 19.4801 2.00004 22.6006 2H33.3994L33.6904 2.00684ZM15 34C14.4477 34 14 34.4477 14 35V37C14 37.5523 14.4477 38 15 38H41C41.5523 38 42 37.5523 42 37V35C42 34.4477 41.5523 34 41 34H15ZM27 32H29V28H27V32ZM22.4062 4.00488C20.4133 4.10059 18.7816 5.65974 18.6143 7.66797L17.4482 21.668C17.254 23.9999 19.0937 25.9998 21.4336 26H34.5664C36.9063 25.9998 38.746 23.9999 38.5518 21.668L37.3857 7.66797C37.2184 5.65974 35.5867 4.10059 33.5938 4.00488L33.3994 4H22.6006L22.4062 4.00488Z" fill="oklch(0.3523 0 0 / 1)" class="wd-expressive-fill"></path>
</g>
</svg>