<svg role="presentation" width="56" height="56" viewBox="0 0 56 56" xmlns="http://www.w3.org/2000/svg" class="wd-expressive wd-expressive-card-tools">
<g>
<path d="M7.9998 44.9998C7.99987 46.1043 8.89532 46.9998 9.9998 46.9998H50.9998V47.9998C50.9997 49.1043 50.1042 49.9997 48.9998 49.9998H6.9998C5.89532 49.9998 4.99987 49.1043 4.9998 47.9998V27.9998C4.99999 26.8955 5.8954 25.9999 6.9998 25.9998H7.9998V44.9998Z" fill="oklch(0.3057 0.079 256.22 / 0.13)" class="wd-expressive-accent"></path>
<path d="M4.01054 10.6463C4.59639 10.0613 5.54709 10.0608 6.13261 10.6463L17.6326 22.1463C17.9474 22.4612 17.7242 22.9995 17.2791 22.9998H11.7225C11.5899 22.9998 11.4627 22.9471 11.3689 22.8534L2.64726 14.1317C2.06154 13.546 2.06165 12.5954 2.64726 12.0096L4.01054 10.6463Z" fill="oklch(0.3057 0.079 256.22 / 0.13)" class="wd-expressive-accent"></path>
<path d="M22.3387 7.76449C22.3809 7.30133 22.9779 7.14203 23.2459 7.5223L26.3064 11.8651C26.4077 12.009 26.4844 12.1707 26.5301 12.3407L29.2156 22.3709C29.3005 22.6883 29.0616 22.9995 28.7332 22.9998H24.6892C24.463 22.9998 24.2645 22.8482 24.2059 22.6297L21.8748 13.9276C21.8294 13.7577 21.8132 13.5803 21.8289 13.4051L22.3387 7.76449Z" fill="oklch(0.3057 0.079 256.22 / 0.13)" class="wd-expressive-accent"></path>
<path d="M43.076 10.9998C43.544 11.0005 43.9509 11.3261 44.0525 11.783L44.3572 13.1629C44.394 13.3291 44.5138 13.4641 44.6707 13.5301C44.675 13.5319 44.6791 13.5342 44.6834 13.536C44.8402 13.6023 45.0202 13.5912 45.1639 13.4998L46.3601 12.7391C46.7554 12.4882 47.2731 12.5448 47.6043 12.8758L48.9637 14.2342C49.2873 14.5584 49.3492 15.0628 49.1141 15.4559L48.4012 16.6405C48.3129 16.7871 48.3069 16.9681 48.3777 17.1239C48.4083 17.191 48.4381 17.2587 48.4666 17.327C48.532 17.4838 48.666 17.6035 48.8318 17.6405L50.2176 17.9481C50.6743 18.0501 51.0005 18.4566 51.0008 18.9246V20.8465C51.0005 21.3048 50.6873 21.7046 50.243 21.8162L49.3728 22.0321C49.1541 22.0865 49.001 22.2833 49.0008 22.5086C49.0008 22.7798 48.7807 22.9998 48.5096 22.9998H45.9617C45.5011 22.9998 45.242 22.3793 45.4705 21.9793C45.8041 21.3957 45.9958 20.72 45.9959 19.9998C45.9955 17.7914 44.2042 16.0005 41.9959 15.9998C39.7871 15.9999 37.9963 17.7911 37.9959 19.9998C37.996 20.72 38.1861 21.3958 38.5193 21.9793C38.7478 22.3794 38.4888 22.9998 38.0281 22.9998H34.9314C34.8988 22.9998 34.8736 22.9717 34.8768 22.9393V22.4852C34.8766 22.2557 34.7196 22.0563 34.4969 22.0008L33.7586 21.8162C33.3136 21.705 33.001 21.3052 33.0008 20.8465V18.9246C33.0011 18.4563 33.3267 18.0497 33.784 17.9481L35.157 17.6424C35.323 17.6054 35.4578 17.4859 35.5232 17.3289C35.5531 17.2574 35.5839 17.1864 35.616 17.1161C35.6871 16.9604 35.6816 16.7794 35.5935 16.6327L34.8875 15.4559C34.6518 15.0626 34.7137 14.5586 35.0379 14.2342L36.3973 12.8758C36.7287 12.5452 37.2463 12.4877 37.6414 12.7391L38.8318 13.4969C38.9754 13.5882 39.1551 13.5992 39.3123 13.534C39.3824 13.505 39.453 13.4769 39.5242 13.45C39.684 13.3898 39.8078 13.2582 39.8494 13.0926L40.1844 11.7577C40.2958 11.3129 40.6956 11 41.1541 10.9998H43.076Z" fill="oklch(0.3057 0.079 256.22 / 0.13)" class="wd-expressive-accent"></path>
</g>
<g>
<path d="M16.9999 35.0006C18.1041 35.001 18.9999 35.8963 18.9999 37.0006C18.9997 38.1047 18.104 39.0002 16.9999 39.0006C15.8954 39.0006 15.0001 38.105 14.9999 37.0006C14.9999 35.896 15.8953 35.0006 16.9999 35.0006Z" fill="oklch(0.3523 0 0 / 1)" class="wd-expressive-fill"></path>
<path d="M16.9999 31.0006C20.8655 31.001 23.9999 34.1348 23.9999 38.0006C23.9997 41.8661 20.8654 45.0002 16.9999 45.0006C13.134 45.0006 10.0001 41.8664 9.99988 38.0006C9.99988 34.1346 13.1339 31.0006 16.9999 31.0006ZM16.9999 33.0006C14.2385 33.0006 11.9999 35.2392 11.9999 38.0006C12 39.2712 12.4739 40.4311 13.2548 41.3131C14.2812 40.492 15.5833 40.0006 16.9999 40.0006L17.2714 40.0064C18.582 40.065 19.7828 40.5452 20.743 41.3131C21.5241 40.431 21.9998 39.2714 21.9999 38.0006C21.9999 35.2394 19.761 33.001 16.9999 33.0006Z" fill="oklch(0.3523 0 0 / 1)" class="wd-expressive-fill"></path>
<path d="M42.4999 41.0006C42.7759 41.0007 42.9999 41.2245 42.9999 41.5006V42.5006C42.9997 42.7765 42.7758 43.0004 42.4999 43.0006H27.4999C27.2239 43.0006 27.0001 42.7766 26.9999 42.5006V41.5006C26.9999 41.2244 27.2237 41.0006 27.4999 41.0006H42.4999Z" fill="oklch(0.3523 0 0 / 1)" class="wd-expressive-fill"></path>
<path d="M37.4999 37.0006C37.7759 37.0007 37.9999 37.2245 37.9999 37.5006V38.5006C37.9997 38.7765 37.7758 39.0004 37.4999 39.0006H27.4999C27.2239 39.0006 27.0001 38.7766 26.9999 38.5006V37.5006C26.9999 37.2244 27.2237 37.0006 27.4999 37.0006H37.4999Z" fill="oklch(0.3523 0 0 / 1)" class="wd-expressive-fill"></path>
<path d="M46.4999 33.0006C46.7759 33.0007 46.9999 33.2245 46.9999 33.5006V34.5006C46.9997 34.7765 46.7758 35.0004 46.4999 35.0006H27.4999C27.2239 35.0006 27.0001 34.7766 26.9999 34.5006V33.5006C26.9999 33.2244 27.2237 33.0006 27.4999 33.0006H46.4999Z" fill="oklch(0.3523 0 0 / 1)" class="wd-expressive-fill"></path>
<path d="M48.9999 25.0006C50.6566 25.0007 51.9999 26.3438 51.9999 28.0006V48.0006C51.9997 49.6572 50.6565 51.0004 48.9999 51.0006H6.99988C5.34315 51.0006 4.00008 49.6573 3.99988 48.0006V28.0006C3.99988 26.3437 5.34303 25.0006 6.99988 25.0006H48.9999ZM6.99988 27.0006C6.4476 27.0006 5.99988 27.4483 5.99988 28.0006V48.0006C6.00008 48.5527 6.44772 49.0006 6.99988 49.0006H48.9999C49.5519 49.0004 49.9997 48.5526 49.9999 48.0006V28.0006C49.9999 27.4484 49.552 27.0007 48.9999 27.0006H6.99988Z" fill="oklch(0.3523 0 0 / 1)" class="wd-expressive-fill"></path>
<path d="M8.93934 5.64706C9.52512 5.06131 10.4747 5.06128 11.0604 5.64706L14.0546 8.6412C14.0563 8.64292 14.0587 8.64433 14.0604 8.64608L20.3534 14.9391C20.5484 15.1343 20.5485 15.4509 20.3534 15.6461L19.6464 16.3531C19.4512 16.5483 19.1346 16.5481 18.9393 16.3531L9.99988 7.41464L4.41395 13.0006L7.27723 15.8639L10.4247 12.7174C10.62 12.5225 10.9366 12.5222 11.1317 12.7174L11.8388 13.4244C12.0339 13.6195 12.0336 13.9361 11.8388 14.1314L8.69129 17.2779L11.5204 20.106L14.6669 16.9605C14.8621 16.7653 15.1786 16.7653 15.3739 16.9605L16.0809 17.6676C16.2762 17.8628 16.2762 18.1793 16.0809 18.3746L12.9345 21.5211L13.3534 21.94C13.5485 22.1352 13.5484 22.4518 13.3534 22.6471L12.6464 23.3541C12.4511 23.5493 12.1346 23.5493 11.9393 23.3541L8.64539 20.0611C8.6436 20.0593 8.64227 20.0571 8.64051 20.0553L2.64637 14.0611C2.06059 13.4753 2.06058 12.5248 2.64637 11.9391L8.93934 5.64706Z" fill="oklch(0.3523 0 0 / 1)" class="wd-expressive-fill"></path>
<path d="M22.743 3.30136C22.8691 1.91133 24.6587 1.43183 25.4628 2.57284L31.3055 10.8658C31.4071 11.01 31.4835 11.171 31.5292 11.3414L32.3729 14.4937C32.4444 14.7604 32.2861 15.0345 32.0194 15.106L31.0536 15.3648C30.7868 15.4363 30.5127 15.2781 30.4413 15.0113L30.0233 13.4488L29.9384 13.525C29.4674 13.9426 28.8275 14.1149 28.2108 13.9889L26.9999 13.7408L26.0751 14.5611C25.6041 14.9787 24.9632 15.1502 24.3466 15.024L24.2304 14.9996L24.6864 16.7017C24.6867 16.7028 24.6881 16.7036 24.6884 16.7047L26.1766 22.2584C26.2481 22.525 26.0895 22.799 25.8231 22.8707L24.8563 23.1295C24.5897 23.2008 24.3155 23.0426 24.244 22.776L22.7557 17.2223C22.7552 17.2203 22.7553 17.2183 22.7548 17.2164L21.8739 13.9283C21.8283 13.758 21.8121 13.5805 21.828 13.4049L22.743 3.30136ZM24.122 10.2476L23.8837 12.8873L24.7479 13.0641L25.6727 12.2437C26.1436 11.8263 26.7838 11.6549 27.4003 11.7808L28.6112 12.0289L29.2684 11.4459L27.7401 9.27792L24.122 10.2476ZM24.3134 8.12558L26.5126 7.53671L24.6112 4.83847L24.3134 8.12558Z" fill="oklch(0.3523 0 0 / 1)" class="wd-expressive-fill"></path>
<path d="M43.2489 10.0084C44.0532 10.0784 44.7395 10.6279 44.9823 11.399L45.0282 11.567L45.1893 12.2984L45.8222 11.8961C46.6134 11.3926 47.648 11.5074 48.3104 12.1695L49.6698 13.5279L49.785 13.6539C50.3311 14.302 50.4125 15.234 49.9706 15.9713L49.9696 15.9723L49.493 16.7623L50.4335 16.9723C51.3485 17.1758 51.9997 17.9886 51.9999 18.9254V20.8473L51.993 21.0182C51.9207 21.863 51.318 22.5782 50.4843 22.7867L50.4833 22.7877L49.9989 22.9078L49.9979 22.9088L49.829 22.9508L49.6786 22.9869L49.3602 23.067C49.0922 23.1337 48.8205 22.9707 48.7538 22.7027L48.5126 21.732C48.446 21.4642 48.6091 21.1923 48.8768 21.1256L49.1962 21.0465L49.9999 20.8463V18.9254L48.3485 18.5582L47.8153 18.4391L47.6268 17.9273C47.5521 17.7243 47.4637 17.5231 47.3641 17.3238L47.118 16.8316L47.4022 16.3609L48.2567 14.941L48.2557 14.942L46.8964 13.5836L45.0077 14.7838L44.5126 14.5543C44.3605 14.4838 44.2138 14.4217 44.0702 14.3687L43.5575 14.1793L43.0751 12.0006H41.1532L40.7518 13.6021L40.619 14.1344L40.0985 14.3082C39.8867 14.3788 39.6801 14.4595 39.4813 14.5514L38.9852 14.7808L37.1034 13.5836L35.744 14.942L36.8749 16.8258L36.6278 17.317C36.5263 17.5195 36.4368 17.724 36.3612 17.9293L36.1727 18.441L35.6405 18.5601L34.0009 18.9254L33.9999 20.8463L34.5741 20.9889L35.1102 21.1226C35.3781 21.1893 35.5411 21.4612 35.4745 21.7291L35.2333 22.6998C35.1666 22.9676 34.8957 23.1305 34.6278 23.0641L34.0009 22.9088C33.9985 22.9082 33.9964 22.9065 33.994 22.9058L33.5165 22.7877L33.5155 22.7867C32.6261 22.5644 32.0004 21.7652 31.9999 20.8473V18.9254C32 17.9886 32.6506 17.1759 33.5653 16.9723L34.5038 16.7623L34.0292 15.9713C33.5577 15.1847 33.6816 14.1767 34.33 13.5279L35.6893 12.1695L35.8182 12.0514C36.4807 11.4953 37.4361 11.4241 38.1776 11.8961L38.9882 12.4117L39.2138 11.5152C39.4365 10.6258 40.2358 10.001 41.1532 10.0006H43.0751L43.2489 10.0084Z" fill="oklch(0.3523 0 0 / 1)" class="wd-expressive-fill"></path>
<path d="M41.995 16.0006C44.2038 16.0008 45.9949 17.7917 45.995 20.0006L45.9891 20.2223C45.9386 21.1429 45.5756 21.9816 45.0067 22.6324C44.8249 22.8403 44.5058 22.8202 44.3222 22.6139L43.9901 22.2408L43.6571 21.8678C43.4734 21.6616 43.4986 21.3475 43.6532 21.1187C43.8305 20.8565 43.9472 20.5505 43.9833 20.2203L43.995 20.0006C43.9949 18.8963 43.0993 18.0008 41.995 18.0006C40.8905 18.0007 39.9951 18.8962 39.995 20.0006L40.0067 20.2203C40.0428 20.5505 40.1586 20.8565 40.3358 21.1187C40.4905 21.3475 40.5157 21.6616 40.3319 21.8678L39.9999 22.2408L39.6669 22.6139C39.4832 22.82 39.1641 22.8403 38.9823 22.6324C38.4134 21.9816 38.0514 21.143 38.0009 20.2223L37.995 20.0006C37.9951 17.7916 39.7861 16.0007 41.995 16.0006Z" fill="oklch(0.3523 0 0 / 1)" class="wd-expressive-fill"></path>
</g>
</svg>