<svg role="presentation" width="56" height="56" viewBox="0 0 56 56" xmlns="http://www.w3.org/2000/svg" class="wd-expressive wd-expressive-backpack">
<path d="M12.7285 20.9229C13.4742 21.4813 14.2519 21.9991 15.0576 22.4746C15.3397 26.823 15.5 31.5 18.7344 35.0195C19.4514 35.1321 20 35.7514 20 36.5V48H39L38.9738 47C41.6492 47 44.3246 47 47 47C48.1046 47 49 46.1046 49 45V48C49 49.1046 47.1046 51 46 51H11C9 51 7 49 7 47V34.0205C8.24775 32.9038 9.58525 31.8852 11 30.9766V26C11 24.068 11.5489 22.265 12.498 20.7363C12.5722 20.8009 12.6489 20.8633 12.7285 20.9229Z" fill="oklch(0.3057 0.079 256.22 / 0.13)" class="wd-expressive-accent"></path>
<g>
<path d="M35.5 39C35.7761 39 36 39.2239 36 39.5V40.5C36 40.7761 35.7761 41 35.5 41H33V43.5C33 43.7761 32.7761 44 32.5 44H31.5C31.2239 44 31 43.7761 31 43.5V41H20.5C20.2239 41 20 40.7761 20 40.5V39.5C20 39.2239 20.2239 39 20.5 39H35.5Z" fill="oklch(0.3523 0 0 / 1)" class="wd-expressive-fill"></path>
<path d="M28 2C30.4711 2 32.7347 2.89808 34.4795 4.38379C34.8209 4.67452 35 5.09376 35 5.51562V7H40C43.3137 7 46 9.68629 46 13V17.2715C46 18.5712 45.5821 19.8735 44.7393 20.8926C45.5423 22.419 46 24.1554 46 26V30.4365C47.0335 31.1253 48.0253 31.8716 48.9707 32.6709C49.6414 33.2379 50 34.0672 50 34.915V46C50 49.3137 47.3137 52 44 52H12C8.68629 52 6 49.3137 6 46V34.915C6 34.0672 6.35863 33.2379 7.0293 32.6709C7.97474 31.8716 8.96655 31.1253 10 30.4365V26C10 24.1553 10.4567 22.4182 11.2598 20.8916C10.4175 19.8727 10 18.5708 10 17.2715V13C10 9.68629 12.6863 7 16 7H21V5.51562C21 5.09376 21.1791 4.67452 21.5205 4.38379L21.8535 4.11133C23.5489 2.78869 25.6835 2 28 2ZM12.8262 22.2275C12.2958 23.3749 12 24.6529 12 26V49C12 49.5523 12.4477 50 13 50H16V37C16 35.3431 17.3431 34 19 34H37C38.6569 34 40 35.3431 40 37V50H43C43.5523 50 44 49.5523 44 49V26C44 24.6529 43.7024 23.3758 43.1719 22.2285C39.6465 24.6943 35.4929 26.3228 31 26.8291V29.5C31 30.3284 30.3284 31 29.5 31H26.5C25.6716 31 25 30.3284 25 29.5V26.8291C20.5063 26.3228 16.3519 24.694 12.8262 22.2275ZM19 36C18.4477 36 18 36.4477 18 37V50H38V37C38 36.4477 37.5523 36 37 36H19ZM10 32.8799C9.425 33.3007 8.86363 33.7389 8.32031 34.1982C8.12216 34.3658 8 34.6251 8 34.915V46C8 47.4956 8.82238 48.7963 10.0381 49.4824C10.0127 49.3254 10 49.1642 10 49V32.8799ZM46 49C46 49.1642 45.9863 49.3253 45.9609 49.4824C47.1771 48.7965 48 47.4959 48 46V34.915C48 34.6251 47.8778 34.3658 47.6797 34.1982C47.1364 33.7389 46.575 33.3007 46 32.8799V49ZM27 29H29V24H27V29ZM16 9C13.7909 9 12 10.7909 12 13V17.2715C12 18.4279 12.4788 19.4869 13.3281 20.123C16.6633 22.6209 20.6555 24.2862 25 24.8164V23.5C25 22.6716 25.6716 22 26.5 22H29.5C30.3284 22 31 22.6716 31 23.5V24.8164C35.3445 24.2862 39.3367 22.6209 42.6719 20.123C43.5212 19.4869 44 18.4279 44 17.2715V13C44 10.7909 42.2091 9 40 9H16ZM28 4C26.1069 4 24.37 4.65717 23 5.75586V7H33V5.75586C31.63 4.65717 29.8931 4 28 4Z" fill="oklch(0.3523 0 0 / 1)" class="wd-expressive-fill"></path>
</g>
</svg>