<svg role="presentation" width="56" height="56" viewBox="0 0 56 56" xmlns="http://www.w3.org/2000/svg" class="wd-expressive wd-expressive-triangle">
<path d="M28 3C41.8071 3 53 14.1929 53 28C53 41.8071 41.8071 53 28 53C14.1929 53 3 41.8071 3 28C3 14.1929 14.1929 3 28 3ZM29.7324 10.0918C28.9626 8.75847 27.0374 8.75847 26.2676 10.0918L10.7324 37C9.96266 38.3333 10.9244 40.0008 12.4639 40.001H43.5361C45.0756 40.0008 46.0373 38.3333 45.2676 37L29.7324 10.0918Z" fill="oklch(0.3057 0.079 256.22 / 0.13)" class="wd-expressive-accent"></path>
<path d="M25.4025 9.59212C26.5572 7.59234 29.4431 7.59234 30.5978 9.59212L46.1339 36.5003C47.2885 38.5002 45.8455 41.0011 43.5363 41.0013H12.464C10.1548 41.0011 8.71177 38.5002 9.86634 36.5003L25.4025 9.59212ZM28.8663 10.5921C28.4814 9.92546 27.5188 9.92546 27.1339 10.5921L11.5978 37.5003C11.213 38.1669 11.6944 39.0011 12.464 39.0013H43.5363C44.3059 39.0011 44.7873 38.1669 44.4025 37.5003L28.8663 10.5921Z" fill="oklch(0.3523 0 0 / 1)" class="wd-expressive-fill"></path>
</svg>