<svg role="presentation" width="56" height="56" viewBox="0 0 56 56" xmlns="http://www.w3.org/2000/svg" class="wd-expressive wd-expressive-document-account">
<g>
<path d="M14 49.5C14 49.7761 14.2239 50 14.5 50H46V52.5C46 52.7761 45.7761 53 45.5 53H11.5C11.2239 53 11 52.7761 11 52.5V3.5C11 3.22386 11.2239 3 11.5 3H14V49.5Z" fill="oklch(0.3057 0.079 256.22 / 0.13)" class="wd-expressive-accent"></path>
<path d="M49 32C50.1046 32 51 32.8954 51 34V45C51 46.1046 50.1046 47 49 47H31C29.8954 47 29 46.1046 29 45V34C29 32.8954 29.8954 32 31 32H49ZM36 40C34.4634 40 33.0615 40.5774 32 41.5273V44H40V41.5273C38.9385 40.5774 37.5366 40 36 40ZM36 35C34.8954 35 34 35.8954 34 37C34 38.1046 34.8954 39 36 39C37.1046 39 38 38.1046 38 37C38 35.8954 37.1046 35 36 35Z" fill="oklch(0.3057 0.079 256.22 / 0.13)" class="wd-expressive-accent"></path>
</g>
<g>
<path d="M43 2C44.6569 2 46 3.34315 46 5V27.5C46 27.7761 45.7761 28 45.5 28H44.5C44.2239 28 44 27.7761 44 27.5V5C44 4.44772 43.5523 4 43 4H13C12.4477 4 12 4.44772 12 5V51C12 51.5523 12.4477 52 13 52H45.5C45.7761 52 46 52.2239 46 52.5V53.5C46 53.7761 45.7761 54 45.5 54H13C11.3431 54 10 52.6569 10 51V5C10 3.34315 11.3431 2 13 2H43Z" fill="oklch(0.3523 0 0 / 1)" class="wd-expressive-fill"></path>
<path d="M36 34C37.6569 34 39 35.3431 39 37C39 37.911 38.5922 38.7252 37.9512 39.2754C38.9719 39.571 39.8967 40.0929 40.667 40.7822C40.8788 40.9718 40.9999 41.2431 41 41.5273V44C41 44.5523 40.5523 45 40 45H32C31.4477 45 31 44.5523 31 44V41.5273C31.0001 41.2431 31.1212 40.9718 31.333 40.7822C32.103 40.0931 33.0275 39.5711 34.0479 39.2754C33.4072 38.7252 33 37.9108 33 37C33 35.3431 34.3431 34 36 34ZM36 41C34.8736 41 33.8359 41.3718 33 42V43H39V42C38.1641 41.3718 37.1264 41 36 41ZM36 36C35.4477 36 35 36.4477 35 37C35 37.5523 35.4477 38 36 38C36.5523 38 37 37.5523 37 37C37 36.4477 36.5523 36 36 36Z" fill="oklch(0.3523 0 0 / 1)" class="wd-expressive-fill"></path>
<path d="M47.5 40C47.7761 40 48 40.2239 48 40.5V41.5C48 41.7761 47.7761 42 47.5 42H43.5C43.2239 42 43 41.7761 43 41.5V40.5C43 40.2239 43.2239 40 43.5 40H47.5Z" fill="oklch(0.3523 0 0 / 1)" class="wd-expressive-fill"></path>
<path d="M47.5 37C47.7761 37 48 37.2239 48 37.5V38.5C48 38.7761 47.7761 39 47.5 39H43.5C43.2239 39 43 38.7761 43 38.5V37.5C43 37.2239 43.2239 37 43.5 37H47.5Z" fill="oklch(0.3523 0 0 / 1)" class="wd-expressive-fill"></path>
<path d="M49 31C50.6569 31 52 32.3431 52 34V45C52 46.6569 50.6569 48 49 48H31C29.3949 48 28.0842 46.7394 28.0039 45.1543L28 45V34C28 32.3431 29.3431 31 31 31H49ZM31 33C30.4477 33 30 33.4477 30 34V45L30.0049 45.1025C30.0562 45.6067 30.4823 46 31 46H49C49.5523 46 50 45.5523 50 45V34C50 33.4477 49.5523 33 49 33H31Z" fill="oklch(0.3523 0 0 / 1)" class="wd-expressive-fill"></path>
<path d="M24.5 42C24.7761 42 25 42.2239 25 42.5V43.5C25 43.7761 24.7761 44 24.5 44H17.5C17.2239 44 17 43.7761 17 43.5V42.5C17 42.2239 17.2239 42 17.5 42H24.5Z" fill="oklch(0.3523 0 0 / 1)" class="wd-expressive-fill"></path>
<path d="M24.5 37C24.7761 37 25 37.2239 25 37.5V38.5C25 38.7761 24.7761 39 24.5 39H17.5C17.2239 39 17 38.7761 17 38.5V37.5C17 37.2239 17.2239 37 17.5 37H24.5Z" fill="oklch(0.3523 0 0 / 1)" class="wd-expressive-fill"></path>
<path d="M24.5 32C24.7761 32 25 32.2239 25 32.5V33.5C25 33.7761 24.7761 34 24.5 34H17.5C17.2239 34 17 33.7761 17 33.5V32.5C17 32.2239 17.2239 32 17.5 32H24.5Z" fill="oklch(0.3523 0 0 / 1)" class="wd-expressive-fill"></path>
<path d="M26.5 27C26.7761 27 27 27.2239 27 27.5V28.5C27 28.7761 26.7761 29 26.5 29H17.5C17.2239 29 17 28.7761 17 28.5V27.5C17 27.2239 17.2239 27 17.5 27H26.5Z" fill="oklch(0.3523 0 0 / 1)" class="wd-expressive-fill"></path>
<path d="M35.5 15C35.7761 15 36 15.2239 36 15.5V16.5C36 16.7761 35.7761 17 35.5 17H20.5C20.2239 17 20 16.7761 20 16.5V15.5C20 15.2239 20.2239 15 20.5 15H35.5Z" fill="oklch(0.3523 0 0 / 1)" class="wd-expressive-fill"></path>
<path d="M38.5 10C38.7761 10 39 10.2239 39 10.5V11.5C39 11.7761 38.7761 12 38.5 12H17.5C17.2239 12 17 11.7761 17 11.5V10.5C17 10.2239 17.2239 10 17.5 10H38.5Z" fill="oklch(0.3523 0 0 / 1)" class="wd-expressive-fill"></path>
</g>
</svg>