<svg role="presentation" width="56" height="56" viewBox="0 0 56 56" xmlns="http://www.w3.org/2000/svg" class="wd-expressive wd-expressive-user">
<g>
<path d="M10.0215 34.6328C10.0083 34.7258 10 34.82 10 34.915V44C10 45.0357 10.7872 45.887 11.7959 45.9893L12 46H49V47C49 48.1046 48.1046 49 47 49H9L8.7959 48.9893C7.78722 48.887 7 48.0357 7 47V37.915C7 37.3462 7.24039 36.8019 7.6748 36.4346C8.42744 35.7983 9.21082 35.1973 10.0215 34.6328Z" fill="oklch(0.3057 0.079 256.22 / 0.13)" class="wd-expressive-accent"></path>
<path d="M22.5908 5.59082C21.5855 7.15049 21 9.00643 21 11C21 16.5228 25.4772 21 31 21C32.9935 21 34.8486 20.4134 36.4082 19.4082C34.6285 22.1695 31.5294 24 28 24C22.4772 24 18 19.5228 18 14C18 10.4707 19.8297 7.37059 22.5908 5.59082Z" fill="oklch(0.3057 0.079 256.22 / 0.13)" class="wd-expressive-accent"></path>
</g>
<g>
<path d="M28 28C35.9914 28 43.311 30.886 48.9707 35.6709C49.6414 36.2379 50 37.0672 50 37.915V47C50 48.6569 48.6569 50 47 50H9C7.34315 50 6 48.6569 6 47V37.915C6 37.0672 6.35863 36.2379 7.0293 35.6709C12.689 30.886 20.0086 28 28 28ZM28 30C20.4988 30 13.6325 32.7071 8.32031 37.1982C8.12216 37.3658 8 37.6251 8 37.915V47C8 47.5523 8.44772 48 9 48H47C47.5523 48 48 47.5523 48 47V37.915C48 37.6251 47.8778 37.3658 47.6797 37.1982C42.3675 32.7071 35.5012 30 28 30Z" fill="oklch(0.3523 0 0 / 1)" class="wd-expressive-fill"></path>
<path d="M28 3C34.0751 3 39 7.92487 39 14C39 20.0751 34.0751 25 28 25C21.9249 25 17 20.0751 17 14C17 7.92487 21.9249 3 28 3ZM28 5C23.0294 5 19 9.02944 19 14C19 18.9706 23.0294 23 28 23C32.9706 23 37 18.9706 37 14C37 9.02944 32.9706 5 28 5Z" fill="oklch(0.3523 0 0 / 1)" class="wd-expressive-fill"></path>
</g>
</svg>