<svg role="presentation" width="56" height="56" viewBox="0 0 56 56" xmlns="http://www.w3.org/2000/svg" class="wd-expressive wd-expressive-mail-benefits">
<g>
<path d="M12 19.0005C12.0001 21.6813 12.7188 24.288 14.0479 26.564L10 23.981V42.5005C10.0003 42.7764 10.224 43.0005 10.5 43.0005H49V45.5005C48.9997 45.7764 48.776 46.0005 48.5 46.0005H7.5C7.22403 46.0005 7.00026 45.7764 7 45.5005V21.2388C7.00011 21.0882 7.06853 20.945 7.18555 20.8501L12 16.9527V19.0005Z" fill="oklch(0.3057 0.079 256.22 / 0.13)" class="wd-expressive-accent"></path>
<path d="M37.3057 9.56691L39.7344 10.1607C40.0023 10.2264 40.166 10.4971 40.1006 10.7652L35.1641 30.9302C35.0984 31.1982 34.8277 31.3619 34.5596 31.2964L32.1309 30.7027C31.8628 30.6369 31.6991 30.3662 31.7646 30.0982L36.7012 9.93312C36.7669 9.66512 37.0376 9.5014 37.3057 9.56691Z" fill="oklch(0.3057 0.079 256.22 / 0.13)" class="wd-expressive-accent"></path>
<path d="M26.668 31.0005H25.999C26.2846 30.7864 26.5621 30.5599 26.833 30.3247L26.668 31.0005Z" fill="oklch(0.3057 0.079 256.22 / 0.13)" class="wd-expressive-accent"></path>
<path d="M22.2373 18.4946C23.2332 16.8545 25.4628 16.4999 26.918 17.7505C28.3162 18.9524 28.3661 21.101 27.0254 22.3667L22.5518 26.5884L22.5527 26.5894L22 27.1109L16.9736 22.3667C15.6329 21.101 15.6838 18.9524 17.082 17.7505C18.5372 16.5 20.7668 16.8546 21.7627 18.4946L22 18.8853L22.2373 18.4946Z" fill="oklch(0.3057 0.079 256.22 / 0.13)" class="wd-expressive-accent"></path>
<path d="M48.8145 20.8501C48.9315 20.945 48.9999 21.0881 49 21.2388V22.0679L48.3076 22.5093L48.7305 20.7818L48.8145 20.8501Z" fill="oklch(0.3057 0.079 256.22 / 0.13)" class="wd-expressive-accent"></path>
<path d="M27.6855 4.25539C27.869 4.10693 28.131 4.10693 28.3145 4.25539L32.4053 7.56691L30.6465 14.7466C28.2023 13.0188 25.2208 12.0005 22 12.0005C20.2876 12.0005 18.6423 12.2875 17.1094 12.8159L27.6855 4.25539Z" fill="oklch(0.3057 0.079 256.22 / 0.13)" class="wd-expressive-accent"></path>
</g>
<g>
<path d="M16.4297 16.9922C18.093 15.5629 20.5219 15.7199 22 17.1904C23.4778 15.7202 25.906 15.5629 27.5693 16.9922C29.3599 18.5313 29.4785 21.2446 27.873 22.9336L27.7119 23.0938L22.6865 27.8389C22.3012 28.2021 21.6987 28.2023 21.3135 27.8389L20.7607 27.3174C20.7576 27.3144 20.7551 27.3107 20.752 27.3076L16.2871 23.0938C14.5157 21.4211 14.5816 18.582 16.4287 16.9932L16.4297 16.9922ZM20.9082 19.0137C20.2328 17.9016 18.7194 17.6614 17.7324 18.5098C16.7854 19.3248 16.7516 20.7805 17.6602 21.6387L22 25.7344L26.3389 21.6387L26.498 21.4717C27.2402 20.6016 27.1551 19.274 26.2666 18.5098C25.2798 17.6616 23.7673 17.9016 23.0918 19.0137L22.8545 19.4043C22.6731 19.7024 22.349 19.8848 22 19.8848C21.651 19.8847 21.3269 19.7025 21.1455 19.4043L20.9082 19.0137Z" fill="oklch(0.3523 0 0 / 1)" class="wd-expressive-fill"></path>
<path d="M27.1621 3.39942C27.704 3.03394 28.4274 3.06002 28.9434 3.47754L31.8086 5.79688L31.9346 5.28614C32.0662 4.75026 32.6075 4.42174 33.1436 4.55274L51.5986 9.07227C52.1348 9.20373 52.4632 9.74501 52.332 10.2813L49.8213 20.5332C49.9359 20.748 50 20.989 50 21.2383V45.5C49.9999 46.3284 49.3284 47 48.5 47H7.5C6.67163 47 6.00009 46.3284 6 45.5V21.2383C6.00008 20.7858 6.20495 20.357 6.55664 20.0723L11 16.4746V15.8193C11 15.5349 11.1211 15.2639 11.333 15.0742C12.8583 13.709 14.6478 12.6317 16.6152 11.9287L27.0566 3.47754L27.1621 3.39942ZM9.41406 45H46.5859L33.5869 32.001H22.4131L9.41406 45ZM35.9766 31.5625L48 43.5859V24.7676L48.2539 23.7285L35.9766 31.5625ZM8 43.585L20.0225 31.5625L8 23.8906V43.585ZM22 13C18.5714 13 15.4343 14.2334 13 16.2793V19L13.0039 19.3477C13.061 21.6486 13.686 23.88 14.7969 25.8564L21.293 30.001H25.6562C26.0898 29.6603 26.5055 29.2933 26.8994 28.8994C29.525 26.2739 31 22.713 31 19V16.2793C28.5657 14.2334 25.4286 13 22 13ZM31.7773 14.335C32.0827 14.571 32.3798 14.8172 32.667 15.0742C32.8789 15.2639 33 15.5349 33 15.8193V19C33 23.098 31.4274 27.0335 28.6172 30.001H34.707L41.8574 25.4385C41.8247 25.3124 41.7873 25.1874 41.7432 25.0645C41.2385 24.8909 40.7391 24.5895 40.2666 24.2266C39.728 23.8127 39.3136 23.408 39.0381 23.0352C38.902 22.8509 38.7776 22.6424 38.6973 22.4209C38.6267 22.2259 38.5334 21.8628 38.6865 21.4727C38.8767 20.9889 39.3067 20.7817 39.6553 20.7412C39.9559 20.7065 40.2319 20.781 40.4277 20.8535C40.8376 21.0056 41.2921 21.3016 41.7607 21.6992C42.2171 22.0866 42.5995 22.5189 42.9121 22.9795C42.9219 22.964 42.9342 22.9483 42.9443 22.9307C43.0666 22.7178 43.1872 22.4012 43.2939 21.9658C43.6556 20.4887 43.0279 19.593 42.4629 19.0518C42.1363 18.7387 42.0607 18.2443 42.2783 17.8477C42.4962 17.4513 42.9542 17.2499 43.3936 17.3574C43.6942 17.43 44.4609 17.2037 44.7217 16.1387C44.9698 15.1249 44.4715 14.2467 44.0938 13.624L43.6191 12.8428C43.4762 12.6069 43.5516 12.2996 43.7871 12.1563L44.6426 11.6367C44.8785 11.4941 45.186 11.5699 45.3291 11.8057L45.9111 12.7637C45.9138 12.7682 45.9145 12.7747 45.917 12.7793C46.3277 13.4689 47.085 14.8944 46.6641 16.6143C46.4016 17.6862 45.7342 18.5536 44.9004 19.0147C45.3394 19.8802 45.5854 21.0174 45.2363 22.4424C45.1451 22.8145 45.0293 23.1747 44.8848 23.5068L47.4316 21.8809L50.1514 10.7764L33.6396 6.7334L31.7773 14.335ZM8 21.4766V21.5186L11.7812 23.9316C11.3093 22.4769 11.0435 20.9511 11.0049 19.3975L11 19.0469L8 21.4766ZM20.8926 11.0371C21.2585 11.0121 21.6278 11 22 11C24.9174 11 27.6532 11.782 30.0088 13.1465L31.2832 7.94336L28 5.28614L20.8926 11.0371Z" fill="oklch(0.3523 0 0 / 1)" class="wd-expressive-fill"></path>
</g>
</svg>