<svg role="presentation" width="56" height="56" viewBox="0 0 56 56" xmlns="http://www.w3.org/2000/svg" class="wd-expressive wd-expressive-layers-code">
<g>
<path d="M49.4224 32.7119C50.8964 33.449 50.8964 35.553 49.4224 36.29L30.2358 45.8828C28.8283 46.5865 27.1717 46.5866 25.7642 45.8828L6.57763 36.29C5.10368 35.553 5.10368 33.449 6.57763 32.7119L9.99951 31.001L25.7642 38.8828C27.1717 39.5866 28.8283 39.5865 30.2358 38.8828L45.9995 31.001L49.4224 32.7119Z" fill="oklch(0.3057 0.079 256.22 / 0.13)" class="wd-expressive-accent"></path>
<path d="M47.4224 23.7109C48.8964 24.448 48.8964 26.552 47.4224 27.2891L30.2358 35.8818C28.8283 36.5855 27.1717 36.5856 25.7642 35.8818L8.57763 27.2891C7.10368 26.552 7.10367 24.448 8.57763 23.7109L8.99951 23.499L25.7642 31.8818C27.1716 32.5855 28.8283 32.5854 30.2358 31.8818L46.9995 23.499L47.4224 23.7109Z" fill="oklch(0.3057 0.079 256.22 / 0.13)" class="wd-expressive-accent"></path>
</g>
<g>
<path d="M22.8613 15.0709C23.0349 14.9841 23.2434 15.0053 23.3955 15.1256L34.5176 23.9459C34.8041 24.1732 34.7577 24.6211 34.4307 24.7848L33.4443 25.2789C33.2706 25.3657 33.0613 25.3439 32.9092 25.2233L21.7891 16.402C21.5027 16.1747 21.5491 15.7268 21.876 15.5631L22.8613 15.0709Z" fill="oklch(0.3523 0 0 / 1)" class="wd-expressive-fill"></path>
<path d="M18.9414 20.4879C19.0758 20.2641 19.3602 20.1818 19.5938 20.2985L20.4912 20.7467C20.7516 20.8769 20.8458 21.2011 20.6963 21.4508L20.3564 22.0153L20.3574 22.0162L19.7666 23.0016H22.4912C22.494 23.0015 22.4972 23.0007 22.5 23.0006H24.8818C24.959 23.0007 25.0354 23.0189 25.1045 23.0533L27.1045 24.0533C27.5763 24.2892 27.4091 25.0002 26.8818 25.0006L18 25.0016C17.6401 25.0015 17.3074 24.8079 17.1299 24.4947C16.9524 24.1813 16.9574 23.7958 17.1426 23.4869L18.1455 21.8141C18.1467 21.812 18.1481 21.8094 18.1494 21.8072L18.9414 20.4879Z" fill="oklch(0.3523 0 0 / 1)" class="wd-expressive-fill"></path>
<path d="M38 16.0006C38.36 16.0007 38.6925 16.1943 38.8701 16.5074C39.0476 16.8208 39.0426 17.2064 38.8574 17.5153L37.8516 19.1901C37.8511 19.1911 37.8512 19.193 37.8506 19.194L37.1729 20.3219C37.0383 20.5455 36.754 20.6281 36.5205 20.5113L35.624 20.0631C35.3638 19.9328 35.2693 19.6076 35.4189 19.358L36.2334 18.0006H31.6172C31.5398 18.0005 31.4628 17.9825 31.3936 17.9479L29.3936 16.9479C28.9225 16.7117 29.0902 16.0011 29.6172 16.0006H38Z" fill="oklch(0.3523 0 0 / 1)" class="wd-expressive-fill"></path>
<path d="M25.3164 8.22326C27.0055 7.37869 28.9944 7.37872 30.6836 8.22326L49.8691 17.816C52.0803 18.9216 52.0803 22.0776 49.8691 23.1832L48.2354 23.9996L49.8701 24.817C52.0803 25.9229 52.0806 29.0786 49.8701 30.1842L48.2363 31.0006L49.8691 31.817C52.0803 32.9226 52.0803 36.0786 49.8691 37.1842L30.6836 46.777C28.9945 47.6214 27.0055 47.6215 25.3164 46.777L6.13086 37.1842C3.91992 36.0786 3.92 32.9227 6.13086 31.817L7.76367 30.9996L6.13184 30.1842C3.92069 29.0786 3.92069 25.9226 6.13184 24.817L7.76465 23.9996L6.13086 23.1832C3.91987 22.0776 3.91997 18.9217 6.13086 17.816L25.3164 8.22326ZM7.02539 33.6061C6.28862 33.9747 6.28855 35.0266 7.02539 35.3951L26.2109 44.9879C27.337 45.5509 28.663 45.5508 29.7891 44.9879L48.9746 35.3951C49.7117 35.0266 49.7116 33.9746 48.9746 33.6061L46 32.1188L30.6846 39.777C28.9957 40.6214 27.0064 40.6211 25.3174 39.777L10 32.1178L7.02539 33.6061ZM30.6836 32.776C28.9945 33.6205 27.0055 33.6205 25.3164 32.776L10.001 25.1178L7.02637 26.6061C6.28932 26.9746 6.28932 28.0266 7.02637 28.3951L26.2119 37.9879C27.3378 38.5506 28.6642 38.5508 29.79 37.9879L48.9756 28.3951C49.7119 28.0266 49.7117 26.9749 48.9756 26.6061L45.999 25.1178L30.6836 32.776ZM29.7891 10.0123C28.663 9.44931 27.337 9.44928 26.2109 10.0123L7.02539 19.6051C6.28859 19.9737 6.28851 21.0256 7.02539 21.3942L26.2109 30.9869C27.337 31.5499 28.663 31.5499 29.7891 30.9869L48.9746 21.3942C49.7117 21.0256 49.7117 19.9736 48.9746 19.6051L29.7891 10.0123Z" fill="oklch(0.3523 0 0 / 1)" class="wd-expressive-fill"></path>
</g>
</svg>