<svg role="presentation" width="56" height="56" viewBox="0 0 56 56" xmlns="http://www.w3.org/2000/svg" class="wd-expressive wd-expressive-paw">
<g>
<path d="M28.0001 28.0006C32.643 28.0006 38.0001 35.9519 38.0001 40.2711C38.0001 43.5256 34.7476 45.777 31.7013 44.6314L30.7472 44.273C28.9767 43.6072 27.0245 43.6073 25.254 44.273L24.2989 44.6314C21.2526 45.777 18.0001 43.5256 18.0001 40.2711C18.0001 35.9519 23.3573 28.0007 28.0001 28.0006Z" fill="oklch(0.3057 0.079 256.22 / 0.13)" class="wd-expressive-accent"></path>
<path d="M10.5069 21.4459C12.0957 20.3686 14.2763 21.3105 15.3771 23.5494C16.4778 25.7884 16.082 28.477 14.4933 29.5543C12.9045 30.6315 10.7239 29.6898 9.62315 27.4508C8.52254 25.2118 8.9183 22.5232 10.5069 21.4459Z" fill="oklch(0.3057 0.079 256.22 / 0.13)" class="wd-expressive-accent"></path>
<path d="M40.6231 23.5494C41.7239 21.3104 43.9045 20.3688 45.4933 21.4459C47.082 22.5231 47.4778 25.2117 46.3771 27.4508C45.2763 29.6898 43.0957 30.6315 41.5069 29.5543C39.9184 28.4769 39.5225 25.7883 40.6231 23.5494Z" fill="oklch(0.3057 0.079 256.22 / 0.13)" class="wd-expressive-accent"></path>
<path d="M21.172 11.0543C23.3327 10.6529 25.4559 12.5415 25.9132 15.273C26.3704 18.0047 24.9891 20.5454 22.8282 20.9468C20.6674 21.3482 18.5453 19.4588 18.088 16.7271C17.6308 13.9956 19.0114 11.4559 21.172 11.0543Z" fill="oklch(0.3057 0.079 256.22 / 0.13)" class="wd-expressive-accent"></path>
<path d="M30.088 15.273C30.5454 12.5415 32.6675 10.6529 34.8282 11.0543C36.989 11.4557 38.3704 13.9955 37.9132 16.7271C37.456 19.4588 35.3328 21.3482 33.172 20.9468C31.0113 20.5452 29.6308 18.0046 30.088 15.273Z" fill="oklch(0.3057 0.079 256.22 / 0.13)" class="wd-expressive-accent"></path>
</g>
<g>
<path d="M27.9995 22.9998C29.7689 22.9998 31.5266 23.7012 33.1254 24.7488C34.7312 25.8012 36.241 27.2441 37.5375 28.8338C38.8355 30.4253 39.9419 32.1914 40.727 33.9119C41.5056 35.6185 41.9994 37.3491 41.9995 38.8543C41.9992 43.5238 37.3881 46.7949 32.9809 45.2518L31.1196 44.5994C29.0999 43.8923 26.899 43.8922 24.8793 44.5994L23.018 45.2518C18.6109 46.7946 13.9997 43.5237 13.9995 38.8543C13.9995 37.3491 14.4933 35.6184 15.2719 33.9119C16.057 32.1914 17.1634 30.4254 18.4614 28.8338C19.7579 27.2441 21.2678 25.8012 22.8735 24.7488C24.4722 23.7011 26.23 22.9999 27.9995 22.9998ZM27.9995 24.9998C26.7514 24.9999 25.3744 25.5015 23.9702 26.4217C22.5729 27.3374 21.21 28.6285 20.0112 30.0985C18.8138 31.5667 17.8006 33.1874 17.0913 34.742C16.3755 36.3107 15.9995 37.7453 15.9995 38.8543C15.9997 42.1458 19.2502 44.4515 22.3569 43.3641L24.2182 42.7117C26.6657 41.8547 29.3331 41.8548 31.7807 42.7117L33.642 43.3641C36.7488 44.4518 39.9992 42.146 39.9995 38.8543C39.9994 37.7453 39.6234 36.3107 38.9077 34.742C38.1983 33.1875 37.1851 31.5667 35.9877 30.0985C34.7889 28.6285 33.426 27.3374 32.0288 26.4217C30.6245 25.5015 29.2475 24.9998 27.9995 24.9998Z" fill="oklch(0.3523 0 0 / 1)" class="wd-expressive-fill"></path>
<path d="M7.65082 18.6795C10.543 17.0021 14.2182 18.5594 15.976 21.618C17.7331 24.6762 17.2358 28.6449 14.3481 30.3201C11.4558 31.9975 7.78055 30.4405 6.02289 27.3817C4.26614 24.3236 4.76337 20.3547 7.65082 18.6795ZM14.2416 22.6141C12.8544 20.2004 10.3006 19.4546 8.65375 20.41C7.00268 21.3682 6.37007 23.9709 7.75727 26.3856C9.14442 28.7995 11.6982 29.5449 13.3452 28.5897C14.9965 27.6315 15.6292 25.0289 14.2416 22.6141Z" fill="oklch(0.3523 0 0 / 1)" class="wd-expressive-fill"></path>
<path d="M40.0229 21.618C41.7805 18.5592 45.4558 17.0024 48.3481 18.6795C51.2358 20.3547 51.7331 24.3235 49.976 27.3817C48.2183 30.4405 44.5431 31.9976 41.6508 30.3201C38.7634 28.6448 38.2659 24.676 40.0229 21.618ZM47.3452 20.41C45.6982 19.4549 43.1444 20.2002 41.7573 22.6141C40.3698 25.0287 41.0028 27.6313 42.6538 28.5897C44.3007 29.5451 46.8544 28.7995 48.2416 26.3856C49.6292 23.9707 48.9965 21.3682 47.3452 20.41Z" fill="oklch(0.3523 0 0 / 1)" class="wd-expressive-fill"></path>
<path d="M19.7895 7.0799C23.2057 6.47098 26.2414 9.31993 26.8754 12.9559C27.5093 16.5913 25.6209 20.3114 22.2094 20.9197C18.7934 21.5284 15.7574 18.6797 15.1235 15.0438C14.4898 11.4086 16.3783 7.68848 19.7895 7.0799ZM24.9047 13.2996C24.3956 10.3798 22.1257 8.69455 20.1401 9.04865C18.1498 9.40391 16.5852 11.7797 17.0942 14.7C17.6032 17.6198 19.8732 19.3048 21.8588 18.951C23.8494 18.596 25.4139 16.2203 24.9047 13.2996Z" fill="oklch(0.3523 0 0 / 1)" class="wd-expressive-fill"></path>
<path d="M29.1235 12.9559C29.7574 9.32001 32.7934 6.47129 36.2094 7.0799C39.6209 7.68827 41.5092 11.4084 40.8754 15.0438C40.2415 18.6798 37.2057 21.5287 33.7895 20.9197C30.3783 20.3111 28.4897 16.5911 29.1235 12.9559ZM35.8588 9.04865C33.8732 8.69488 31.6032 10.38 31.0942 13.2996C30.5851 16.2201 32.1497 18.5957 34.1401 18.951C36.1258 19.3051 38.3956 17.62 38.9047 14.7C39.4138 11.7794 37.8494 9.40368 35.8588 9.04865Z" fill="oklch(0.3523 0 0 / 1)" class="wd-expressive-fill"></path>
</g>
</svg>