<svg role="presentation" width="56" height="56" viewBox="0 0 56 56" xmlns="http://www.w3.org/2000/svg" class="wd-expressive wd-expressive-laptop-loop">
<g>
<path d="M52.6367 40C52.8373 40.0002 52.9998 40.1627 53 40.3633C53 42.3716 51.3716 44 49.3633 44H6.63672C4.62841 44 3 42.3716 3 40.3633C3.00019 40.1627 3.16273 40.0002 3.36328 40H52.6367Z" fill="oklch(0.3057 0.079 256.22 / 0.13)" class="wd-expressive-accent"></path>
<path d="M10 11V36.5C10 36.7761 9.77614 37 9.5 37H7V13C7 11.8954 7.89543 11 9 11H10Z" fill="oklch(0.3057 0.079 256.22 / 0.13)" class="wd-expressive-accent"></path>
</g>
<g>
<path d="M24.6445 39.0039C24.8282 39.0175 25.0026 39.0645 25.1611 39.1367L25.3438 39.2354L25.6387 39.4072C26.3417 39.7852 27.1447 40 28 40C28.9775 40 29.8866 39.7194 30.6562 39.2354L30.8389 39.1367C31.029 39.0501 31.2424 39 31.4668 39H52.6377L52.7773 39.0068C53.4638 39.0773 53.9993 39.6574 54 40.3623C54 42.9229 51.9239 45 49.3633 45H6.63672C4.07613 45 2 42.9239 2 40.3633L2.00684 40.2227C2.07733 39.5362 2.65737 39.0007 3.3623 39H24.5332L24.6445 39.0039ZM4.08105 41C4.36624 42.1481 5.40053 43 6.63672 43H49.3633C50.5995 43 51.6338 42.1481 51.9189 41H31.6025C30.5498 41.6335 29.317 42 28 42C26.683 42 25.4502 41.6335 24.3975 41H4.08105Z" fill="oklch(0.3523 0 0 / 1)" class="wd-expressive-fill"></path>
<path d="M47 10C48.6569 10 50 11.3431 50 13V36.5C50 36.7761 49.7761 37 49.5 37H48.5C48.2239 37 48 36.7761 48 36.5V13C48 12.4477 47.5523 12 47 12H9C8.44771 12 8 12.4477 8 13V36.5C8 36.7761 7.77614 37 7.5 37H6.5C6.22386 37 6 36.7761 6 36.5V13C6 11.3431 7.34315 10 9 10H47Z" fill="oklch(0.3523 0 0 / 1)" class="wd-expressive-fill"></path>
<path d="M24.5 27C24.7761 27 25 27.2239 25 27.5V28.5C25 28.7761 24.7761 29 24.5 29H21.6748C22.1478 29.9974 22.8532 30.8745 23.7383 31.5537C24.9607 32.4917 26.4592 33 28 33C29.5408 33 31.0393 32.4917 32.2617 31.5537C33.3515 30.7174 34.1683 29.5804 34.6152 28.2891C34.7057 28.0283 34.9785 27.869 35.2451 27.9404L36.2109 28.1992C36.4775 28.2708 36.6369 28.5463 36.5508 28.8086C35.987 30.5248 34.9176 32.0363 33.4785 33.1406C31.9069 34.3464 29.9809 35 28 35C26.0191 35 24.0931 34.3464 22.5215 33.1406C21.4621 32.3277 20.6044 31.2935 20 30.1201V33.5C20 33.7761 19.7761 34 19.5 34H18.5C18.2239 34 18 33.7761 18 33.5V27.5C18 27.2239 18.2239 27 18.5 27H24.5Z" fill="oklch(0.3523 0 0 / 1)" class="wd-expressive-fill"></path>
<path d="M28 17C29.9809 17 31.9069 17.6536 33.4785 18.8594C34.5376 19.6721 35.3956 20.7058 36 21.8789V18.5C36 18.2239 36.2239 18 36.5 18H37.5C37.7761 18 38 18.2239 38 18.5V24.5C38 24.7761 37.7761 25 37.5 25H31.5C31.2239 25 31 24.7761 31 24.5V23.5C31 23.2239 31.2239 23 31.5 23H34.3252C33.8522 22.0026 33.1468 21.1255 32.2617 20.4463C31.0393 19.5083 29.5408 19 28 19C26.4592 19 24.9607 19.5083 23.7383 20.4463C22.6485 21.2826 21.8317 22.4196 21.3848 23.7109C21.2943 23.9715 21.0224 24.1298 20.7559 24.0586L19.79 23.8008C19.5233 23.7293 19.3631 23.4537 19.4492 23.1914C20.013 21.4752 21.0823 19.9637 22.5215 18.8594C24.0931 17.6536 26.0191 17 28 17Z" fill="oklch(0.3523 0 0 / 1)" class="wd-expressive-fill"></path>
</g>
</svg>