<svg role="presentation" width="56" height="56" viewBox="0 0 56 56" xmlns="http://www.w3.org/2000/svg" class="wd-expressive wd-expressive-globe-desk">
<g>
<path d="M29.0008 42.001L29.8758 48.1299C32.593 48.5076 35.0521 49.6943 37.0008 51.4385V53.001H19.0008V51.4385C20.9496 49.6943 23.4077 48.5075 26.1249 48.1299L27.0008 42L29.0008 42.001Z" fill="oklch(0.3057 0.079 256.22 / 0.13)" class="wd-expressive-accent"></path>
<path d="M17.7567 14.4551C16.8804 17.001 16.7282 19.8276 17.4774 22.624C19.4788 30.0922 27.1555 34.5245 34.6239 32.5234C37.2577 31.8177 39.5125 30.4044 41.242 28.5449C39.7779 32.798 36.2954 36.2706 31.6239 37.5225C24.1554 39.5236 16.4786 35.0916 14.4774 27.623C13.1823 22.789 14.5826 17.868 17.7567 14.4551Z" fill="oklch(0.3057 0.079 256.22 / 0.13)" class="wd-expressive-accent"></path>
</g>
<g>
<path d="M22.8552 2.87067C23.1219 2.79921 23.3969 2.9575 23.4684 3.22419L24.3073 6.35407C24.4501 6.88736 24.1334 7.43557 23.6003 7.57868C14.5316 10.0086 9.14934 19.3303 11.5788 28.399C14.0088 37.4679 23.3312 42.8505 32.4001 40.4205C32.9333 40.2778 33.4816 40.5944 33.6247 41.1275L34.4636 44.2584C34.5349 44.525 34.3757 44.7992 34.1091 44.8707L33.1442 45.1295C32.8776 45.2009 32.6035 45.0425 32.5319 44.7759L32.1139 43.2174L32.113 43.2144L31.945 42.5855C31.3419 42.7141 30.738 42.8106 30.1364 42.8795L30.7624 47.2652C33.3848 47.7714 35.756 48.982 37.6677 50.6929C37.8794 50.8826 38.0007 51.1537 38.0007 51.4381V53.0006C38.0006 53.5527 37.5528 54.0004 37.0007 54.0006H19.0007C18.4484 54.0006 18.0007 53.5528 18.0007 53.0006V51.4381C18.0007 51.1536 18.1218 50.8826 18.3337 50.6929C20.245 48.9823 22.6149 47.7714 25.237 47.2652L25.863 42.8824C18.3306 42.0281 11.7281 36.6831 9.64715 28.9175C7.01832 19.1059 12.5708 9.02919 22.1227 5.93122L21.5358 3.74177C21.4645 3.47519 21.6229 3.20109 21.8893 3.12946L22.8552 2.87067ZM27.8669 43.0025L27.1149 48.2711C27.0518 48.7122 26.7037 49.0582 26.2624 49.1197C23.9007 49.4479 21.7494 50.4369 20.0007 51.8951V52.0006H36.0007V51.8951C34.252 50.4369 32.0997 49.448 29.738 49.1197C29.2965 49.0583 28.9486 48.7123 28.8854 48.2711L28.1325 43.0015C28.0439 43.0022 27.9553 43.0031 27.8669 43.0025Z" fill="oklch(0.3523 0 0 / 1)" class="wd-expressive-fill"></path>
<path d="M24.1179 9.5113C32.1198 7.36732 40.3448 12.1158 42.4889 20.1177C44.633 28.1196 39.8843 36.3446 31.8825 38.4888C23.8806 40.6329 15.6556 35.8843 13.5114 27.8824C11.3673 19.8804 16.1159 11.6554 24.1179 9.5113ZM18.4108 32.7808C20.5097 35.069 23.3828 36.5505 26.4909 36.9146C25.9823 36.4991 25.4929 36.0251 25.0329 35.5064C24.0977 34.4517 23.2249 33.163 22.4528 31.6978L18.4108 32.7808ZM24.4372 31.1666C25.0838 32.3328 25.7922 33.3494 26.529 34.1802C27.893 35.7183 29.2175 36.4885 30.3464 36.6207L28.5866 30.0543L24.4372 31.1666ZM30.5182 29.5367L32.278 36.1031C33.1896 35.4242 33.9517 34.0948 34.3639 32.0806C34.5865 30.9928 34.6907 29.7585 34.6677 28.4254L30.5182 29.5367ZM36.652 27.8931C36.716 29.5482 36.6046 31.101 36.322 32.482C36.1828 33.1617 35.9953 33.8167 35.7624 34.4312C38.2728 32.5619 40.0203 29.8417 40.694 26.8101L36.652 27.8931ZM15.0134 23.3375C14.9461 24.6604 15.0817 26.0163 15.443 27.3648C15.8042 28.7125 16.3646 29.9534 17.0837 31.065L21.5798 29.8609C21.073 28.6753 20.6297 27.4051 20.2721 26.0709C19.9145 24.7362 19.6634 23.4139 19.5095 22.1334L15.0134 23.3375ZM21.4596 21.6109C21.5967 22.8757 21.8425 24.2012 22.2048 25.5533C22.567 26.9049 23.0164 28.1749 23.53 29.3384L28.069 28.1217L25.9987 20.3941L21.4596 21.6109ZM27.9294 19.8775L29.9997 27.605L34.5388 26.3892C34.4017 25.1244 34.1579 23.7989 33.7956 22.4468C33.4333 21.0946 32.9822 19.8247 32.4684 18.6607L27.9294 19.8775ZM34.4196 18.1383C34.9265 19.3241 35.3696 20.5947 35.7272 21.9293C36.0848 23.2636 36.336 24.5856 36.4899 25.8658L40.985 24.6617C41.0521 23.339 40.9185 21.9835 40.5573 20.6353C40.196 19.2871 39.6342 18.0461 38.9147 16.9341L34.4196 18.1383ZM20.236 13.5679C17.726 15.4371 15.9782 18.1578 15.3044 21.189L19.3464 20.106C19.2825 18.4513 19.3949 16.8989 19.6774 15.5181C19.8166 14.8383 20.003 14.1826 20.236 13.5679ZM23.7214 11.8951C22.8094 12.5738 22.0487 13.9049 21.6364 15.9195C21.4138 17.0074 21.3077 18.2416 21.3307 19.5748L25.4811 18.4625L23.7214 11.8951ZM27.4118 17.9449L31.5612 16.8326C30.9148 15.6669 30.2079 14.6505 29.4714 13.8199C28.1071 12.2814 26.7821 11.5105 25.653 11.3785L27.4118 17.9449ZM29.5075 11.0845C30.0165 11.5003 30.5061 11.9746 30.9665 12.4937C31.9015 13.5481 32.7736 14.8366 33.5456 16.3013L37.5876 15.2183C35.4885 12.9304 32.6156 11.4483 29.5075 11.0845Z" fill="oklch(0.3523 0 0 / 1)" class="wd-expressive-fill"></path>
</g>
</svg>