<svg role="presentation" width="56" height="56" viewBox="0 0 56 56" xmlns="http://www.w3.org/2000/svg" class="wd-expressive wd-expressive-megaphone">
<path d="M49 7C50.1046 7 51 7.89543 51 9V47C51 48.1046 50.1046 49 49 49C47.8954 49 47 48.1046 47 47V44.9365L6.98438 32.2344C6.86823 33.2284 6.0252 34 5 34C3.89543 34 3 33.1046 3 32V24C3 22.8954 3.89543 22 5 22C6.10457 22 7 22.8954 7 24V30.1191L47 36.4678V9C47 7.89543 47.8954 7 49 7Z" fill="oklch(0.3057 0.079 256.22 / 0.13)" class="wd-expressive-accent"></path>
<path d="M49 6C50.6569 6 52 7.34315 52 9V47C52 48.6569 50.6569 50 49 50C47.3431 50 46 48.6569 46 47V45.667L30.709 40.8135L30.1074 42.7139C29.6069 44.2924 27.9215 45.1683 26.3418 44.668L18.7158 42.25C17.137 41.749 16.2637 40.063 16.7637 38.4844L17.3672 36.5791L7.60645 33.4805C7.09035 34.3871 6.11786 35 5 35C3.34315 35 2 33.6569 2 32V24C2 22.3431 3.34315 21 5 21C6.11661 21 7.08795 21.6116 7.60449 22.5166L46 10.3301V9C46 7.34315 47.3431 6 49 6ZM49 8C48.4477 8 48 8.44772 48 9V47C48 47.5523 48.4477 48 49 48C49.5523 48 50 47.5523 50 47V9C50 8.44772 49.5523 8 49 8ZM8 24.4893V31.5068L46 43.5684V12.4277L8 24.4893ZM18.6699 39.0879C18.5031 39.6144 18.7952 40.1769 19.3213 40.3438L26.9463 42.7617C27.4717 42.9277 28.034 42.6368 28.2012 42.1104L28.8027 40.21L19.2725 37.1846L18.6699 39.0879ZM5 23C4.44772 23 4 23.4477 4 24V32C4 32.5523 4.44772 33 5 33C5.55228 33 6 32.5523 6 32V24C6 23.4477 5.55228 23 5 23Z" fill="oklch(0.3523 0 0 / 1)" class="wd-expressive-fill"></path>
</svg>