<svg role="presentation" width="56" height="56" viewBox="0 0 56 56" xmlns="http://www.w3.org/2000/svg" class="wd-expressive wd-expressive-building-large">
<g>
<path d="M47.5 14C47.7761 14 48 14.2239 48 14.5V17H41V22H48V25H41V30H48V33H41V38H38V33H31V38H28V33H21V38H18V33H11V38H9.5C9.77614 38 10 38.2239 10 38.5V47H7V38.5C7 38.2239 7.22386 38 7.5 38H8V14.5C8 14.2239 8.22386 14 8.5 14H12C10.8954 14 10 13.1046 10 12C10 10.8954 10.8954 10 12 10H35V6.5C35 6.22386 35.2239 6 35.5 6H38.5C38.7761 6 39 6.22386 39 6.5V10H44C45.1046 10 46 10.8954 46 12C46 13.1046 45.1046 14 44 14H47.5ZM11 30H18V25H11V30ZM21 30H28V25H21V30ZM31 30H38V25H31V30ZM11 22H18V17H11V22ZM21 22H28V17H21V22ZM31 22H38V17H31V22Z" fill="oklch(0.3057 0.079 256.22 / 0.13)" class="wd-expressive-accent"></path>
<path d="M26 43C27.5366 43 28.9385 43.5774 30 44.5273V47H24V43.5273C24.1187 43.4211 24.2422 43.3203 24.3691 43.2236C24.8876 43.0775 25.4348 43 26 43Z" fill="oklch(0.3057 0.079 256.22 / 0.13)" class="wd-expressive-accent"></path>
</g>
<path d="M38.5 5C39.3284 5 40 5.67157 40 6.5V9H44C45.6569 9 47 10.3431 47 12V13H47.5C48.3284 13 49 13.6716 49 14.5V37.0869C49.5823 37.293 50 37.8471 50 38.5V46H51.5C51.7761 46 52 46.2239 52 46.5V47.5C52 47.7761 51.7761 48 51.5 48H4.5C4.22386 48 4 47.7761 4 47.5V46.5C4 46.2239 4.22386 46 4.5 46H6V38.5C6 37.8471 6.41766 37.293 7 37.0869V14.5C7 13.6716 7.67157 13 8.5 13H9V12C9 10.3431 10.3431 9 12 9H34V6.5C34 5.67157 34.6716 5 35.5 5H38.5ZM8 46H23V43.5273C23.0001 43.2431 23.1212 42.9718 23.333 42.7822C24.5708 41.6745 26.2079 41 28 41C29.7921 41 31.4292 41.6745 32.667 42.7822C32.8788 42.9718 32.9999 43.2431 33 43.5273V46H48V39H8V46ZM28 43C26.8736 43 25.8359 43.3718 25 44V46H31V44C30.1641 43.3718 29.1264 43 28 43ZM9 37H17V31H9V37ZM29 37H37V31H29V37ZM39 37H47V31H39V37ZM19 37H27V31H19V37ZM9 29H17V23H9V29ZM29 29H37V23H29V29ZM39 29H47V23H39V29ZM19 29H27V23H19V29ZM9 21H17V15H9V21ZM29 21H37V15H29V21ZM39 21H47V15H39V21ZM19 21H27V15H19V21ZM12 11C11.4477 11 11 11.4477 11 12V13H45V12C45 11.4477 44.5523 11 44 11H12ZM36 9H38V7H36V9Z" fill="oklch(0.3523 0 0 / 1)" class="wd-expressive-fill"></path>
</svg>