<svg role="presentation" width="56" height="56" viewBox="0 0 56 56" xmlns="http://www.w3.org/2000/svg" class="wd-expressive wd-expressive-related-actions">
<g>
<path d="M9 26C11.7614 26 14 28.2386 14 31C14 31.3731 13.9574 31.7362 13.8799 32.0859C13.0656 32.6609 12.0727 33 11 33C8.23858 33 6 30.7614 6 28C6 27.6267 6.04155 27.2631 6.11914 26.9131C6.9335 26.338 7.92724 26 9 26Z" fill="oklch(0.3057 0.079 256.22 / 0.13)" class="wd-expressive-accent"></path>
<path d="M26 26C28.7614 26 31 28.2386 31 31C31 31.3731 30.9574 31.7362 30.8799 32.0859C30.0656 32.6609 29.0727 33 28 33C25.2386 33 23 30.7614 23 28C23 27.6267 23.0416 27.2631 23.1191 26.9131C23.9335 26.338 24.9272 26 26 26Z" fill="oklch(0.3057 0.079 256.22 / 0.13)" class="wd-expressive-accent"></path>
<path d="M43 26C45.7614 26 48 28.2386 48 31C48 31.3731 47.9574 31.7362 47.8799 32.0859C47.0656 32.6609 46.0727 33 45 33C42.2386 33 40 30.7614 40 28C40 27.6267 40.0416 27.2631 40.1191 26.9131C40.9335 26.338 41.9272 26 43 26Z" fill="oklch(0.3057 0.079 256.22 / 0.13)" class="wd-expressive-accent"></path>
</g>
<g>
<path d="M11 22C14.3137 22 17 24.6863 17 28C17 31.3137 14.3137 34 11 34C7.68629 34 5 31.3137 5 28C5 24.6863 7.68629 22 11 22ZM11 24C8.79086 24 7 25.7909 7 28C7 30.2091 8.79086 32 11 32C13.2091 32 15 30.2091 15 28C15 25.7909 13.2091 24 11 24Z" fill="oklch(0.3523 0 0 / 1)" class="wd-expressive-fill"></path>
<path d="M28 22C31.3137 22 34 24.6863 34 28C34 31.3137 31.3137 34 28 34C24.6863 34 22 31.3137 22 28C22 24.6863 24.6863 22 28 22ZM28 24C25.7909 24 24 25.7909 24 28C24 30.2091 25.7909 32 28 32C30.2091 32 32 30.2091 32 28C32 25.7909 30.2091 24 28 24Z" fill="oklch(0.3523 0 0 / 1)" class="wd-expressive-fill"></path>
<path d="M45 22C48.3137 22 51 24.6863 51 28C51 31.3137 48.3137 34 45 34C41.6863 34 39 31.3137 39 28C39 24.6863 41.6863 22 45 22ZM45 24C42.7909 24 41 25.7909 41 28C41 30.2091 42.7909 32 45 32C47.2091 32 49 30.2091 49 28C49 25.7909 47.2091 24 45 24Z" fill="oklch(0.3523 0 0 / 1)" class="wd-expressive-fill"></path>
</g>
</svg>