<svg role="presentation" width="56" height="56" viewBox="0 0 56 56" xmlns="http://www.w3.org/2000/svg" class="wd-expressive wd-expressive-document-user-search">
<g>
<path d="M14 49.5C14 49.7761 14.2239 50 14.5 50H41V52.5C41 52.7761 40.7761 53 40.5 53H11.5C11.2239 53 11 52.7761 11 52.5V3.5C11 3.22386 11.2239 3 11.5 3H14V49.5Z" fill="oklch(0.3057 0.079 256.22 / 0.13)" class="wd-expressive-accent"></path>
<path d="M36.1514 34.1533C35.4239 35.2572 35 36.5791 35 38C35 41.8659 38.1341 44.9999 42 45C43.4215 45 44.7435 44.5747 45.8477 43.8467C44.5958 45.7458 42.4447 46.9999 40 47C36.1341 46.9999 33 43.8659 33 40C33 37.556 34.2533 35.4054 36.1514 34.1533Z" fill="oklch(0.3057 0.079 256.22 / 0.13)" class="wd-expressive-accent"></path>
<path d="M26.001 21C28.6899 21.0002 31.1435 22.0113 33.001 23.6738V25H21V22.2666C22.4868 21.4597 24.1904 21 26.001 21Z" fill="oklch(0.3057 0.079 256.22 / 0.13)" class="wd-expressive-accent"></path>
<path d="M26.001 12C27.6575 12.0004 29.001 13.3434 29.001 15C29.001 15.3028 28.9536 15.5946 28.8701 15.8701C28.5947 15.9535 28.3026 16 28 16C26.3433 15.9999 25 14.6568 25 13C25 12.697 25.0454 12.4046 25.1289 12.1289C25.4047 12.0453 25.6979 12 26.001 12Z" fill="oklch(0.3057 0.079 256.22 / 0.13)" class="wd-expressive-accent"></path>
</g>
<g>
<path d="M43 2C44.6567 2.00018 46 3.34326 46 5V29.5C46 29.7761 45.7761 30 45.5 30H44.5C44.2239 30 44 29.7761 44 29.5V5C44 4.44783 43.5521 4.00018 43 4H13C12.4477 4 12 4.44772 12 5V51C12.0001 51.5522 12.4478 52 13 52H40.5C40.7761 52 41 52.2239 41 52.5V53.5C40.9999 53.776 40.7761 54 40.5 54H13C11.3432 54 10.0001 52.6567 10 51V5C10 3.34315 11.3431 2 13 2H43Z" fill="oklch(0.3523 0 0 / 1)" class="wd-expressive-fill"></path>
<path d="M40 32C44.4182 32.0001 48 35.5818 48 40C47.9999 41.8485 47.3703 43.5487 46.3174 44.9033L52.3535 50.9395C52.5485 51.1347 52.5487 51.4513 52.3535 51.6465L51.6465 52.3535C51.4513 52.5483 51.1346 52.5484 50.9395 52.3535L44.9033 46.3174C43.5487 47.3703 41.8485 47.9999 40 48C35.5818 48 32.0001 44.4182 32 40C32 35.5817 35.5817 32 40 32ZM40 34C36.6863 34 34 36.6863 34 40C34.0001 43.3136 36.6864 46 40 46C43.3135 45.9999 45.9999 43.3135 46 40C46 36.6864 43.3136 34.0001 40 34Z" fill="oklch(0.3523 0 0 / 1)" class="wd-expressive-fill"></path>
<path d="M29.499 40.999C29.775 40.999 29.9988 41.2231 29.999 41.499V42.499C29.999 42.7752 29.7752 42.999 29.499 42.999H17.499C17.223 42.9989 16.999 42.7751 16.999 42.499V41.499C16.9992 41.2232 17.2232 40.9992 17.499 40.999H29.499Z" fill="oklch(0.3523 0 0 / 1)" class="wd-expressive-fill"></path>
<path d="M29.499 35.999C29.775 35.999 29.9988 36.2231 29.999 36.499V37.499C29.999 37.7752 29.7752 37.999 29.499 37.999H17.499C17.223 37.9989 16.999 37.7751 16.999 37.499V36.499C16.9992 36.2232 17.2232 35.9992 17.499 35.999H29.499Z" fill="oklch(0.3523 0 0 / 1)" class="wd-expressive-fill"></path>
<path d="M31.499 30.999C31.775 30.999 31.9988 31.2231 31.999 31.499V32.499C31.999 32.7752 31.7752 32.999 31.499 32.999H17.499C17.223 32.9989 16.999 32.7751 16.999 32.499V31.499C16.9992 31.2232 17.2232 30.9992 17.499 30.999H31.499Z" fill="oklch(0.3523 0 0 / 1)" class="wd-expressive-fill"></path>
<path d="M28 18C30.9446 18.0001 33.6332 19.1084 35.667 20.9287C35.8786 21.1184 36 21.3896 36 21.6738V25C35.9999 25.552 35.552 25.9998 35 26H21C20.4478 26 20.0001 25.5522 20 25V21.6738C20 21.3895 20.1212 21.1184 20.333 20.9287C22.3669 19.1084 25.0553 18 28 18ZM28 20C25.7239 20 23.6362 20.7992 22 22.1338V24H34V22.1338C32.3638 20.7992 30.276 20.0001 28 20Z" fill="oklch(0.3523 0 0 / 1)" class="wd-expressive-fill"></path>
<path d="M28 9C30.209 9.0002 32 10.791 32 13C31.9999 15.2089 30.2089 16.9998 28 17C25.7909 17 24.0001 15.209 24 13C24 10.7909 25.7909 9 28 9ZM28 11C26.8954 11 26 11.8954 26 13C26.0001 14.1045 26.8955 15 28 15C29.1043 14.9998 29.9999 14.1043 30 13C30 11.8956 29.1044 11.0002 28 11Z" fill="oklch(0.3523 0 0 / 1)" class="wd-expressive-fill"></path>
</g>
</svg>