<svg role="presentation" width="56" height="56" viewBox="0 0 56 56" xmlns="http://www.w3.org/2000/svg" class="wd-expressive wd-expressive-loop">
<g>
<path d="M49 28C49 39.598 39.598 49 28 49C20.9509 49 14.7131 45.5267 10.9043 40.1982L11.4609 39.8018C11.5574 39.7329 11.6757 39.7009 11.7939 39.71C12.4082 39.7573 13.029 39.7832 13.6553 39.7832C14.2517 39.7832 14.8432 39.7614 15.4287 39.7188C15.5798 39.7077 15.7281 39.7647 15.834 39.873C18.9211 43.0358 23.2312 44.9999 28 45C37.2421 44.9999 44.7616 37.6246 44.9941 28.4385C44.9974 28.1955 45.1955 28.0001 45.4385 28H49Z" fill="oklch(0.3057 0.079 256.22 / 0.13)" class="wd-expressive-accent"></path>
<path d="M28 7C35.0326 7 41.2571 10.4574 45.0684 15.7646L44.4736 16.1914C44.3774 16.2603 44.2596 16.2919 44.1416 16.2832C43.5484 16.2393 42.9491 16.2168 42.3447 16.2168C41.748 16.2168 41.1562 16.2377 40.5703 16.2803C40.4192 16.2912 40.2709 16.2344 40.165 16.126C37.078 12.9637 32.7684 11.0001 28 11C18.7789 11.0001 11.2729 18.3421 11.0078 27.499C10.9997 27.775 10.7761 28 10.5 28H7C7 16.402 16.402 7 28 7Z" fill="oklch(0.3057 0.079 256.22 / 0.13)" class="wd-expressive-accent"></path>
</g>
<g>
<path d="M50.5011 28C50.777 28.0002 51.0012 28.224 50.9952 28.5C50.889 33.3861 49.2285 38.1176 46.2482 42.0019C43.1662 46.0182 38.8442 48.9052 33.9542 50.2158C29.0639 51.5261 23.8768 51.1863 19.1993 49.249C15.2257 47.603 11.8074 44.8818 9.31652 41.4121C9.40358 42.2593 9.45028 43.1189 9.45031 43.9882C9.45025 45.7265 9.27323 47.4262 8.93566 49.0664C8.87978 49.3361 8.61162 49.5047 8.34289 49.4443L7.36633 49.2226C7.09734 49.1614 6.92962 48.8933 6.98449 48.623C7.28978 47.127 7.45025 45.5762 7.45031 43.9882C7.45026 42.4612 7.30247 40.9678 7.01965 39.5253C7.01837 39.5188 7.01784 39.5114 7.01672 39.5048C7.01188 39.4771 7.00944 39.4489 7.00695 39.4209C7.00455 39.3938 7.00227 39.3667 7.00207 39.3398C7.00192 39.3177 7.00368 39.2955 7.005 39.2734C7.00682 39.2429 7.00827 39.2125 7.01281 39.1826C7.01686 39.156 7.02319 39.1298 7.02941 39.1035C7.03466 39.0812 7.03929 39.0588 7.04602 39.0371C7.05547 39.0066 7.0677 38.977 7.0802 38.9472C7.0887 38.9269 7.09675 38.9064 7.10656 38.8867C7.11037 38.879 7.11328 38.8708 7.11731 38.8632C7.12601 38.8469 7.1371 38.832 7.1466 38.8164C7.16133 38.7919 7.17569 38.7672 7.1925 38.7441C7.2048 38.7272 7.21931 38.7122 7.23254 38.6962C7.25482 38.6693 7.27767 38.6428 7.30285 38.6181C7.31259 38.6086 7.32304 38.5998 7.33313 38.5908C7.36136 38.5653 7.39062 38.5408 7.42199 38.5185C7.43715 38.5078 7.45317 38.4981 7.46887 38.4882C7.48912 38.4755 7.50901 38.4615 7.53039 38.4501C7.53949 38.4453 7.54953 38.442 7.55871 38.4375C7.57304 38.4304 7.58801 38.4243 7.60266 38.4179C7.63809 38.4025 7.67364 38.3879 7.71008 38.3769C7.71927 38.3741 7.72913 38.3726 7.7384 38.3701C7.78101 38.3585 7.824 38.3495 7.86731 38.3437C7.87399 38.3428 7.8811 38.3425 7.88781 38.3418C7.93332 38.3367 7.979 38.3337 8.02453 38.3349C8.0332 38.3352 8.04221 38.3364 8.0509 38.3369C8.09374 38.3391 8.13666 38.3428 8.17883 38.3505C8.18322 38.3513 8.18812 38.3516 8.1925 38.3525C9.63516 38.6354 11.1281 38.7831 12.6554 38.7832C14.2435 38.7831 15.794 38.6227 17.2902 38.3173C17.5605 38.2623 17.8286 38.431 17.8898 38.7001L18.1114 39.6757C18.1724 39.9448 18.0037 40.2137 17.7335 40.2695C16.0932 40.6071 14.3938 40.7831 12.6554 40.7832C12.204 40.7831 11.7553 40.7661 11.3097 40.7421C13.5476 43.6734 16.5286 45.9779 19.965 47.4013C24.2357 49.1701 28.9716 49.4805 33.4366 48.2841C37.9013 47.0875 41.8473 44.4512 44.6613 40.7841C47.3736 37.2491 48.8883 32.9458 48.9943 28.5C49.0008 28.2239 49.225 28 49.5011 28H50.5011Z" fill="oklch(0.3523 0 0 / 1)" class="wd-expressive-fill"></path>
<path d="M22.047 5.78316C26.9372 4.47293 32.1245 4.81266 36.8019 6.74996C40.7748 8.39568 44.192 11.117 46.6827 14.5859C46.5958 13.7393 46.55 12.8803 46.5499 12.0117C46.55 10.2734 46.727 8.57376 47.0646 6.93355C47.1204 6.66373 47.3886 6.49518 47.6573 6.55562L48.6339 6.7773C48.9029 6.83847 49.0706 7.10659 49.0157 7.37691C48.7105 8.87297 48.55 10.4237 48.5499 12.0117C48.55 13.5388 48.6978 15.0321 48.9806 16.4746C48.9819 16.4811 48.9824 16.4885 48.9835 16.4951C48.9884 16.5228 48.9908 16.551 48.9933 16.5791C48.9957 16.6062 48.998 16.6332 48.9982 16.6601C48.9983 16.6822 48.9966 16.7044 48.9952 16.7265C48.9934 16.757 48.992 16.7874 48.9874 16.8173C48.9834 16.8439 48.9771 16.8701 48.9708 16.8964C48.9656 16.9187 48.961 16.9411 48.9542 16.9628C48.9448 16.9933 48.9325 17.0229 48.92 17.0527C48.9115 17.073 48.9035 17.0935 48.8937 17.1132C48.8899 17.1209 48.8869 17.1291 48.8829 17.1367C48.8742 17.153 48.8631 17.1679 48.8536 17.1835C48.8389 17.208 48.8245 17.2327 48.8077 17.2558C48.7954 17.2727 48.7809 17.2877 48.7677 17.3037C48.7454 17.3306 48.7226 17.3572 48.6974 17.3818C48.6876 17.3913 48.6772 17.4001 48.6671 17.4091C48.6389 17.4346 48.6096 17.4591 48.5782 17.4814C48.5631 17.4921 48.5471 17.5018 48.5314 17.5117C48.5111 17.5244 48.4912 17.5384 48.4698 17.5498C48.4607 17.5546 48.4507 17.5579 48.4415 17.5625C48.4272 17.5695 48.4122 17.5756 48.3976 17.582C48.3621 17.5974 48.3266 17.612 48.2902 17.623C48.281 17.6258 48.2711 17.6273 48.2618 17.6298C48.2192 17.6414 48.1762 17.6504 48.1329 17.6562C48.1262 17.6571 48.1191 17.6574 48.1124 17.6582C48.0669 17.6632 48.0212 17.6662 47.9757 17.665C47.967 17.6648 47.958 17.6635 47.9493 17.663C47.9065 17.6608 47.8636 17.6571 47.8214 17.6494C47.817 17.6486 47.8121 17.6483 47.8077 17.6474C46.3651 17.3645 44.8721 17.2168 43.3448 17.2168C41.7567 17.2168 40.2063 17.3772 38.7101 17.6826C38.4397 17.7376 38.1716 17.5689 38.1105 17.2998L37.8888 16.3242C37.8278 16.055 37.9965 15.7862 38.2667 15.7304C39.907 15.3928 41.6064 15.2168 43.3448 15.2168C43.7962 15.2168 44.245 15.2329 44.6905 15.2568C42.4527 12.3257 39.4723 10.0209 36.0363 8.59761C31.7657 6.82886 27.0295 6.51854 22.5646 7.7148C18.0999 8.91128 14.154 11.5478 11.34 15.2148C8.6275 18.7497 7.11199 23.0531 7.00598 27.499C6.9994 27.7749 6.77607 27.9988 6.50012 27.999H5.50012C5.22397 27.999 4.99899 27.7751 5.005 27.499C5.11136 22.6128 6.77255 17.8813 9.75305 13.997C12.8351 9.9808 17.157 7.09359 22.047 5.78316Z" fill="oklch(0.3523 0 0 / 1)" class="wd-expressive-fill"></path>
</g>
</svg>