<svg role="presentation" width="56" height="56" viewBox="0 0 56 56" xmlns="http://www.w3.org/2000/svg" class="wd-expressive wd-expressive-team-coin">
<g>
<path d="M48 41C48 42.6569 44.4183 44 40 44C38.6856 44 37.4456 43.8796 36.3516 43.6689C37.7873 44.4716 40.2291 45 43 45C47.4183 45 51 43.6569 51 42V46C51 46.9473 49.8287 47.791 48 48.3408V50C48 51.6569 44.4183 53 40 53C35.5817 53 32 51.6569 32 50V46C32 47.6569 35.5817 49 40 49C40.5127 49 41.0141 48.9809 41.5 48.9463C37.7987 48.683 35 47.4646 35 46V43.3408C33.1713 42.791 32 41.9473 32 41V37C32 38.6569 35.5817 40 40 40C44.4183 40 48 38.6569 48 37V41Z" fill="oklch(0.3057 0.079 256.22 / 0.13)" class="wd-expressive-accent"></path>
<path d="M13.001 34C15.6848 34.0002 18.134 35.0072 19.9902 36.6641C18.5213 37.5119 16.8179 38 15 38C12.3167 37.9999 9.88197 36.9409 8.08594 35.2207C9.55236 34.4424 11.2252 34 13.001 34Z" fill="oklch(0.3057 0.079 256.22 / 0.13)" class="wd-expressive-accent"></path>
<path d="M13.001 25C14.6575 25.0004 16.001 26.3434 16.001 28C16.001 28.3028 15.9536 28.5946 15.8701 28.8701C15.5947 28.9535 15.3026 29 15 29C13.3433 28.9999 12 27.6568 12 26C12 25.697 12.0454 25.4046 12.1289 25.1289C12.4047 25.0453 12.6979 25 13.001 25Z" fill="oklch(0.3057 0.079 256.22 / 0.13)" class="wd-expressive-accent"></path>
<path d="M27.001 19C29.6845 19.0003 32.1332 20.0075 33.9893 21.6641C32.5592 22.4893 30.9072 22.972 29.1436 22.9971C28.6317 21.55 27.9057 20.2044 27.001 19Z" fill="oklch(0.3057 0.079 256.22 / 0.13)" class="wd-expressive-accent"></path>
<path d="M27 10C28.6567 10.0001 30 11.3432 30 13C30 13.3028 29.9535 13.5946 29.8701 13.8701C29.5947 13.9535 29.3026 14 29 14C27.3433 13.9999 26 12.6568 26 11C26 10.697 26.0454 10.4046 26.1289 10.1289C26.4046 10.0454 26.6971 10 27 10Z" fill="oklch(0.3057 0.079 256.22 / 0.13)" class="wd-expressive-accent"></path>
</g>
<g>
<path d="M40 32.9993C42.2972 32.9993 44.4215 33.3469 46.0078 33.9417C46.7972 34.2377 47.5062 34.6144 48.0352 35.0833C48.5628 35.5511 48.9999 36.1967 49 36.9993V38.9388C49.0026 38.9397 49.0052 38.9407 49.0078 38.9417C49.7972 39.2377 50.5062 39.6144 51.0352 40.0833C51.5628 40.5511 51.9999 41.1967 52 41.9993V45.9993C52 46.802 51.5628 47.4474 51.0352 47.9153C50.5062 48.3843 49.7972 48.7609 49.0078 49.0569C49.0053 49.0578 49.0025 49.058 49 49.0589V49.9993C49 50.802 48.5628 51.4474 48.0352 51.9153C47.5062 52.3843 46.7972 52.7609 46.0078 53.0569C44.4215 53.6518 42.2972 53.9993 40 53.9993C37.7028 53.9993 35.5785 53.6518 33.9922 53.0569C33.2028 52.7609 32.4938 52.3843 31.9648 51.9153C31.4372 51.4474 31 50.802 31 49.9993V45.9993C31.0001 45.1967 31.4372 44.5511 31.9648 44.0833C32.206 43.8695 32.4854 43.6758 32.792 43.4993C32.4854 43.3228 32.206 43.1292 31.9648 42.9153C31.4372 42.4474 31 41.802 31 40.9993V36.9993C31.0001 36.1967 31.4372 35.5511 31.9648 35.0833C32.4938 34.6144 33.2028 34.2377 33.9922 33.9417C35.5785 33.3469 37.7028 32.9993 40 32.9993ZM33 49.9993C33 50.0248 33.0103 50.1694 33.292 50.4192C33.5727 50.668 34.0363 50.9371 34.6943 51.1839C35.7935 51.5961 37.2922 51.888 39 51.972V49.9759C37.0903 49.8906 35.3454 49.5644 33.9922 49.0569C33.6425 48.9258 33.3094 48.7773 33 48.6136V49.9993ZM41 49.9759V51.972C41.707 51.9372 42.3782 51.8683 43 51.7679V49.9993C42.4881 49.9993 41.9848 49.981 41.4941 49.9475C41.3308 49.9586 41.166 49.9685 41 49.9759ZM47 49.6194C46.3712 49.747 45.7004 49.8442 45 49.9085V51.2903C45.1048 51.2553 45.2071 51.2208 45.3057 51.1839C45.9637 50.9371 46.4273 50.668 46.708 50.4192C46.9897 50.1694 47 50.0248 47 49.9993V49.6194ZM46 45.7903C45.059 45.9254 44.0476 45.9993 43 45.9993V47.9993C44.0774 47.9993 45.0913 47.9146 46 47.7679V45.7903ZM36 45.9993C36 46.0248 36.0103 46.1694 36.292 46.4192C36.5727 46.668 37.0363 46.9371 37.6943 47.1839C38.5732 47.5134 39.7077 47.764 41 47.8958V45.9085C39.4833 45.7692 38.1053 45.4743 36.9922 45.0569C36.6494 44.9284 36.3228 44.7823 36.0186 44.6224C36.0124 44.6211 36.0061 44.6207 36 44.6194V45.9993ZM50 44.6136C49.6906 44.7773 49.3575 44.9258 49.0078 45.0569C48.6924 45.1752 48.3551 45.2822 48 45.3802V47.2903C48.1048 47.2553 48.2071 47.2208 48.3057 47.1839C48.9637 46.9371 49.4273 46.668 49.708 46.4192C49.9897 46.1694 50 46.0248 50 45.9993V44.6136ZM34 45.1175C33.6962 45.2726 33.4609 45.4297 33.292 45.5794C33.0112 45.8283 33.0001 45.9729 33 45.9993C33 46.0248 33.0103 46.1694 33.292 46.4192C33.5029 46.6062 33.817 46.8046 34.2393 46.9964C34.0907 46.698 34 46.3648 34 45.9993V45.1175ZM48.9961 41.1155C48.9563 41.8644 48.537 42.4702 48.0352 42.9153C47.7769 43.1443 47.475 43.3501 47.1426 43.5364C47.5663 43.4321 47.9564 43.3148 48.3057 43.1839C48.9637 42.9371 49.4273 42.668 49.708 42.4192C49.9897 42.1694 50 42.0248 50 41.9993C49.9999 41.9729 49.9888 41.8283 49.708 41.5794C49.5384 41.429 49.3018 41.2712 48.9961 41.1155ZM43 40.7903C42.059 40.9254 41.0476 40.9993 40 40.9993C39.3147 40.9993 38.6448 40.9677 38 40.9085V42.8958C38.6327 42.9603 39.3029 42.9993 40 42.9993C41.0774 42.9993 42.0913 42.9146 43 42.7679V40.7903ZM33 40.9993C33 41.0248 33.0103 41.1694 33.292 41.4192C33.5727 41.668 34.0363 41.9371 34.6943 42.1839C35.0823 42.3294 35.5209 42.4565 36 42.5686V40.6194C35.2671 40.4707 34.5912 40.2816 33.9922 40.0569C33.6425 39.9258 33.3094 39.7773 33 39.6136V40.9993ZM47 39.6136C46.6906 39.7773 46.3575 39.9258 46.0078 40.0569C45.6924 40.1752 45.3551 40.2822 45 40.3802V42.2903C45.1048 42.2553 45.2071 42.2208 45.3057 42.1839C45.9637 41.9371 46.4273 41.668 46.708 41.4192C46.9897 41.1694 47 41.0248 47 40.9993V39.6136ZM40 34.9993C37.8791 34.9993 36.0035 35.3238 34.6943 35.8147C34.0364 36.0615 33.5727 36.3306 33.292 36.5794C33.0112 36.8283 33.0001 36.9729 33 36.9993C33 37.0248 33.0103 37.1694 33.292 37.4192C33.5727 37.668 34.0363 37.9371 34.6943 38.1839C36.0035 38.6748 37.879 38.9993 40 38.9993C42.121 38.9993 43.9965 38.6748 45.3057 38.1839C45.9637 37.9371 46.4273 37.668 46.708 37.4192C46.9897 37.1694 47 37.0248 47 36.9993C46.9999 36.9729 46.9888 36.8283 46.708 36.5794C46.4273 36.3306 45.9636 36.0615 45.3057 35.8147C43.9965 35.3238 42.1209 34.9993 40 34.9993Z" fill="oklch(0.3523 0 0 / 1)" class="wd-expressive-fill"></path>
<path d="M15.5 39.9993C15.776 39.9993 15.9998 40.2233 16 40.4993V45.9993C16 46.5516 16.4477 46.9993 17 46.9993H28.5C28.776 46.9993 28.9998 47.2233 29 47.4993V48.4993C29 48.7754 28.7761 48.9993 28.5 48.9993H17C15.3431 48.9993 14 47.6562 14 45.9993V40.4993C14.0002 40.2233 14.224 39.9993 14.5 39.9993H15.5Z" fill="oklch(0.3523 0 0 / 1)" class="wd-expressive-fill"></path>
<path d="M15 21.9993C17.209 21.9993 18.9998 23.7903 19 25.9993C19 28.2084 17.2091 29.9993 15 29.9993C12.7909 29.9993 11 28.2084 11 25.9993C11.0002 23.7903 12.791 21.9993 15 21.9993ZM15 23.9993C13.8955 23.9993 13.0002 24.8949 13 25.9993C13 27.1039 13.8954 27.9993 15 27.9993C16.1046 27.9993 17 27.1039 17 25.9993C16.9998 24.8949 16.1045 23.9993 15 23.9993Z" fill="oklch(0.3523 0 0 / 1)" class="wd-expressive-fill"></path>
<path d="M15 16.9993C21.075 16.9993 25.9998 21.9243 26 27.9993C26 34.0744 21.0751 38.9993 15 38.9993C8.92487 38.9993 4 34.0744 4 27.9993C4.00016 21.9243 8.92497 16.9993 15 16.9993ZM15 32.9993C12.8418 32.9993 10.8539 33.7189 9.25879 34.9309C10.8169 36.223 12.8178 36.9993 15 36.9993C17.182 36.9993 19.1822 36.2227 20.7402 34.9309C19.1452 33.7192 17.1579 32.9993 15 32.9993ZM15 18.9993C10.0295 18.9993 6.00016 23.0289 6 27.9993C6 30.0635 6.69661 31.9643 7.86523 33.4827C9.82568 31.9296 12.3048 30.9993 15 30.9993C17.6949 30.9993 20.1734 31.9299 22.1338 33.4827C23.3026 31.9642 24 30.0637 24 27.9993C23.9998 23.0289 19.9705 18.9993 15 18.9993Z" fill="oklch(0.3523 0 0 / 1)" class="wd-expressive-fill"></path>
<path d="M23.3955 3.53446C25.3438 2.38085 27.6011 1.85592 29.8584 2.03251C32.1156 2.20921 34.2637 3.07829 36.0088 4.52079C37.7539 5.96342 39.0113 7.91026 39.6094 10.094C40.2074 12.2778 40.1171 14.5935 39.3506 16.7239C38.584 18.8543 37.1783 20.6962 35.3262 21.9983C33.6104 23.2044 31.5882 23.8926 29.5 23.9876C29.2241 24.0001 29 23.7754 29 23.4993V22.4993C29.0001 22.2232 29.2243 22.001 29.5 21.9856C31.1762 21.8924 32.7969 21.3318 34.1758 20.3626C34.3699 20.2261 34.5574 20.0815 34.7393 19.9309C33.1445 18.7197 31.1572 17.9994 29 17.9993C27.894 17.9994 26.8327 18.1873 25.8477 18.5335C25.5874 18.6248 25.2958 18.5052 25.1904 18.2503L24.8096 17.3255C24.7048 17.0704 24.8257 16.7769 25.085 16.6829C26.3078 16.2402 27.6272 15.9994 29 15.9993C31.6949 15.9994 34.1744 16.9298 36.1348 18.4827C36.6991 17.7483 37.1515 16.9278 37.4688 16.0462C38.0958 14.3032 38.1699 12.4089 37.6807 10.6224C37.1913 8.83571 36.1621 7.24309 34.7344 6.06278C33.3066 4.88252 31.549 4.1712 29.7021 4.02665C27.8553 3.88217 26.0081 4.31131 24.4141 5.25517C22.8202 6.19905 21.5562 7.6123 20.7949 9.30107C20.1024 10.8376 19.8573 12.5347 20.0811 14.1985C20.1178 14.4721 19.941 14.7344 19.6699 14.7864L18.6875 14.9749C18.4162 15.0269 18.1528 14.8488 18.1133 14.5755C17.8139 12.5066 18.1099 10.3908 18.9717 8.4788C19.9022 6.41471 21.4473 4.68807 23.3955 3.53446Z" fill="oklch(0.3523 0 0 / 1)" class="wd-expressive-fill"></path>
<path d="M29 6.99931C31.2088 6.99955 32.9998 8.79046 33 10.9993C33 13.2083 31.2089 14.9991 29 14.9993C26.7911 14.9991 25 13.2083 25 10.9993C25.0002 8.79046 26.7912 6.99955 29 6.99931ZM29 8.99931C27.8957 8.99955 27.0002 9.89502 27 10.9993C27 12.1037 27.8956 12.9991 29 12.9993C30.1044 12.9991 31 12.1037 31 10.9993C30.9998 9.89503 30.1043 8.99955 29 8.99931Z" fill="oklch(0.3523 0 0 / 1)" class="wd-expressive-fill"></path>
</g>
</svg>