<svg role="presentation" width="56" height="56" viewBox="0 0 56 56" xmlns="http://www.w3.org/2000/svg" class="wd-expressive wd-expressive-data-server-cloud">
<g>
<path d="M35 41H53V44H32V11H35V19H53V22H35V30H53V33H35V41Z" fill="oklch(0.3057 0.079 256.22 / 0.13)" class="wd-expressive-accent"></path>
<path d="M5.0293 24.5205C5.01048 24.6777 5 24.8377 5 25C5 27.2091 6.79086 29 9 29H21C21.7164 29 22.3881 28.8103 22.9697 28.4805C22.7323 30.463 21.0465 32 19 32H7C4.79086 32 3 30.2091 3 28C3 26.5078 3.81806 25.208 5.0293 24.5205Z" fill="oklch(0.3057 0.079 256.22 / 0.13)" class="wd-expressive-accent"></path>
</g>
<g>
<path d="M30.5 5C30.7761 5 31 5.22386 31 5.5V6.5C31 6.77614 30.7761 7 30.5 7H28V48H30.5C30.7761 48 31 48.2239 31 48.5V49.5C31 49.7761 30.7761 50 30.5 50H27.5C26.6716 50 26 49.3284 26 48.5V29H23.8994C23.4361 31.2822 21.4189 33 19 33H7C4.23858 33 2 30.7614 2 28C2 25.948 3.23522 24.186 5.00195 23.415C5.04737 20.4167 7.49081 18 10.5 18C12.2349 18 13.7794 18.8048 14.7861 20.0566C15.019 20.0194 15.2575 20 15.5 20C17.4812 20 19.1604 21.28 19.7617 23.0576C21.8331 23.3742 23.4847 24.9622 23.8984 27H26V6.5C26 5.67157 26.6716 5 27.5 5H30.5ZM10.5 20C8.567 20 7 21.567 7 23.5C7 23.6593 7.01224 23.819 7.03418 23.9795L7.15527 24.8721L6.28125 25.0859C4.97096 25.4077 4 26.5919 4 28C4 29.6569 5.34315 31 7 31H19C20.6569 31 22 29.6569 22 28C22 26.3431 20.6569 25 19 25C18.9754 25 18.9795 24.9999 18.9727 25L18.0977 25.0078L17.9736 24.1416C17.8004 22.9308 16.7583 22 15.5 22C15.2136 22 14.9403 22.0475 14.6865 22.1348L13.9199 22.3984L13.5039 21.7041C12.8905 20.6812 11.7743 20 10.5 20Z" fill="oklch(0.3523 0 0 / 1)" class="wd-expressive-fill"></path>
<path d="M38.5 36C38.7761 36 39 36.2239 39 36.5V37.5C39 37.7761 38.7761 38 38.5 38H35.5C35.2239 38 35 37.7761 35 37.5V36.5C35 36.2239 35.2239 36 35.5 36H38.5Z" fill="oklch(0.3523 0 0 / 1)" class="wd-expressive-fill"></path>
<path d="M38.5 25C38.7761 25 39 25.2239 39 25.5V26.5C39 26.7761 38.7761 27 38.5 27H35.5C35.2239 27 35 26.7761 35 26.5V25.5C35 25.2239 35.2239 25 35.5 25H38.5Z" fill="oklch(0.3523 0 0 / 1)" class="wd-expressive-fill"></path>
<path d="M38.5 14C38.7761 14 39 14.2239 39 14.5V15.5C39 15.7761 38.7761 16 38.5 16H35.5C35.2239 16 35 15.7761 35 15.5V14.5C35 14.2239 35.2239 14 35.5 14H38.5Z" fill="oklch(0.3523 0 0 / 1)" class="wd-expressive-fill"></path>
<path d="M52.5 10C53.3284 10 54 10.6716 54 11.5V43.5C54 44.3284 53.3284 45 52.5 45H32.5C31.6716 45 31 44.3284 31 43.5V11.5C31 10.6716 31.6716 10 32.5 10H52.5ZM33 43H52V34H33V43ZM33 32H52V23H33V32ZM33 21H52V12H33V21Z" fill="oklch(0.3523 0 0 / 1)" class="wd-expressive-fill"></path>
</g>
</svg>