<svg role="presentation" width="56" height="56" viewBox="0 0 56 56" xmlns="http://www.w3.org/2000/svg" class="wd-expressive wd-expressive-package">
<g>
<path d="M32.0008 43.5C32.0008 43.7761 31.777 44 31.5008 44H11.5008C11.2247 44 11.0008 43.7761 11.0008 43.5V35.5C11.0008 35.2239 11.2247 35 11.5008 35H31.5008C31.777 35 32.0008 35.2239 32.0008 35.5V43.5Z" fill="oklch(0.3057 0.079 256.22 / 0.13)" class="wd-expressive-accent"></path>
<path d="M48.2611 13.1678C48.5477 13.4903 48.3188 14 47.8874 14H8.11426C7.68284 14 7.45393 13.4903 7.74055 13.1678L14.8517 5.16782C14.9465 5.06107 15.0826 5 15.2254 5H40.7763C40.9191 5 41.0551 5.06107 41.15 5.16782L48.2611 13.1678Z" fill="oklch(0.3057 0.079 256.22 / 0.13)" class="wd-expressive-accent"></path>
</g>
<g>
<path d="M12.5 35C12.7761 35 13 35.2239 13 35.5V43.5C13 43.7761 12.7761 44 12.5 44H11.5C11.224 43.9998 11 43.776 11 43.5V35.5C11 35.224 11.224 35.0002 11.5 35H12.5Z" fill="oklch(0.3523 0 0 / 1)" class="wd-expressive-fill"></path>
<path d="M15.5 35C15.7761 35 16 35.2239 16 35.5V43.5C16 43.7761 15.7761 44 15.5 44H14.5C14.224 43.9998 14 43.776 14 43.5V35.5C14 35.224 14.224 35.0002 14.5 35H15.5Z" fill="oklch(0.3523 0 0 / 1)" class="wd-expressive-fill"></path>
<path d="M19.5 35C19.7761 35 20 35.2239 20 35.5V43.5C20 43.7761 19.7761 44 19.5 44H18.5C18.224 43.9998 18 43.776 18 43.5V35.5C18 35.224 18.224 35.0002 18.5 35H19.5Z" fill="oklch(0.3523 0 0 / 1)" class="wd-expressive-fill"></path>
<path d="M24.5 35C24.7761 35 25 35.2239 25 35.5V43.5C25 43.7761 24.7761 44 24.5 44H23.5C23.224 43.9998 23 43.776 23 43.5V35.5C23 35.224 23.224 35.0002 23.5 35H24.5Z" fill="oklch(0.3523 0 0 / 1)" class="wd-expressive-fill"></path>
<path d="M27.5 35C27.7761 35 28 35.2239 28 35.5V43.5C28 43.7761 27.7761 44 27.5 44H26.5C26.224 43.9998 26 43.776 26 43.5V35.5C26 35.224 26.224 35.0002 26.5 35H27.5Z" fill="oklch(0.3523 0 0 / 1)" class="wd-expressive-fill"></path>
<path d="M31.5 35C31.7761 35 32 35.2239 32 35.5V43.5C32 43.7761 31.7761 44 31.5 44H30.5C30.224 43.9998 30 43.776 30 43.5V35.5C30 35.224 30.224 35.0002 30.5 35H31.5Z" fill="oklch(0.3523 0 0 / 1)" class="wd-expressive-fill"></path>
<path d="M40.1016 4C40.9583 4 41.7745 4.36661 42.3438 5.00684L49.2422 12.7676C49.7303 13.3167 50 14.0261 50 14.7607V47C50 48.6569 48.6569 50 47 50H9C7.3433 49.9998 6 48.6567 6 47V14.7607C6 14.0261 6.26985 13.3167 6.75781 12.7676L13.6562 5.00684C14.2255 4.36659 15.0417 4.0001 15.8984 4H40.1016ZM8 47C8 47.5522 8.44787 47.9998 9 48H47C47.5523 48 48 47.5523 48 47V15H8V47ZM15.8984 6C15.6129 6.0001 15.3401 6.12253 15.1504 6.33594L9.22656 13H27V6H15.8984ZM29 13H46.7734L40.8496 6.33594C40.6598 6.12256 40.3871 6 40.1016 6H29V13Z" fill="oklch(0.3523 0 0 / 1)" class="wd-expressive-fill"></path>
</g>
</svg>