<svg role="presentation" width="56" height="56" viewBox="0 0 56 56" xmlns="http://www.w3.org/2000/svg" class="wd-expressive wd-expressive-data-server-arrow-up">
<g>
<path d="M34.6016 36.5723C34.2116 37.6413 34 38.796 34 40C34 45.5228 38.4772 50 44 50C47.5217 50 50.6159 48.178 52.3975 45.4268C50.9986 49.2619 47.3191 52 43 52C37.4772 52 33 47.5228 33 42C33 39.9988 33.5891 38.1356 34.6016 36.5723Z" fill="oklch(0.3057 0.079 256.22 / 0.13)" class="wd-expressive-accent"></path>
<path d="M10.5 21C10.7761 21 11 21.2239 11 21.5V31.5C11 31.7761 11.2239 32 11.5 32H30.5C30.7761 32 31 32.2239 31 32.5V34.5C31 34.7761 30.7761 35 30.5 35H10.5C10.7761 35 11 35.2239 11 35.5V45.5C11 45.7761 11.2239 46 11.5 46H30.5C30.7761 46 31 46.2239 31 46.5V48.5C31 48.7761 30.7761 49 30.5 49H8.5C8.22386 49 8 48.7761 8 48.5V35.5C8 35.2583 8.17145 35.0563 8.39941 35.0098L8.5 35C8.22386 35 8 34.7761 8 34.5V21.5C8 21.2583 8.17145 21.0563 8.39941 21.0098L8.5 21C8.22386 21 8 20.7761 8 20.5V7.5C8 7.22386 8.22386 7 8.5 7H10.5C10.7761 7 11 7.22386 11 7.5V17.5C11 17.7761 11.2239 18 11.5 18H47.5C47.7761 18 48 18.2239 48 18.5V20.5C48 20.7761 47.7761 21 47.5 21H10.5Z" fill="oklch(0.3057 0.079 256.22 / 0.13)" class="wd-expressive-accent"></path>
</g>
<g>
<path d="M43.0996 36.001C43.1728 36.001 43.242 36.0176 43.3047 36.0459C43.4938 36.1033 43.6649 36.2143 43.792 36.3711C45.0801 37.9604 46.678 39.2767 48.4912 40.2363C48.7353 40.3655 48.8388 40.6639 48.7178 40.9121L48.2793 41.8105C48.1581 42.0585 47.8587 42.1623 47.6143 42.0342C46.3008 41.3456 45.0874 40.491 44 39.4971V47.5C44 47.7761 43.7761 48 43.5 48H42.5C42.2239 48 42 47.7761 42 47.5V39.499C40.9126 40.4922 39.6988 41.3459 38.3857 42.0342C38.1414 42.162 37.8419 42.0582 37.7207 41.8105L37.2822 40.9121C37.1612 40.664 37.2648 40.3656 37.5088 40.2363C39.322 39.2768 40.9199 37.9604 42.208 36.3711C42.3356 36.2138 42.5074 36.1021 42.6973 36.0449C42.7593 36.0173 42.8281 36.001 42.9004 36.001H43.0996Z" fill="oklch(0.3523 0 0 / 1)" class="wd-expressive-fill"></path>
<path d="M43 31C49.0751 31 54 35.9249 54 42C54 48.0751 49.0751 53 43 53C36.9249 53 32 48.0751 32 42C32 35.9249 36.9249 31 43 31ZM43 33C38.0294 33 34 37.0294 34 42C34 46.9706 38.0294 51 43 51C47.9706 51 52 46.9706 52 42C52 37.0294 47.9706 33 43 33Z" fill="oklch(0.3523 0 0 / 1)" class="wd-expressive-fill"></path>
<path d="M16.5 15C16.7761 15 17 15.2239 17 15.5V16.5C17 16.7761 16.7761 17 16.5 17H12.5C12.2239 17 12 16.7761 12 16.5V15.5C12 15.2239 12.2239 15 12.5 15H16.5Z" fill="oklch(0.3523 0 0 / 1)" class="wd-expressive-fill"></path>
<path d="M16.5 11C16.7761 11 17 11.2239 17 11.5V12.5C17 12.7761 16.7761 13 16.5 13H12.5C12.2239 13 12 12.7761 12 12.5V11.5C12 11.2239 12.2239 11 12.5 11H16.5Z" fill="oklch(0.3523 0 0 / 1)" class="wd-expressive-fill"></path>
<path d="M47.6533 6.00781C48.4097 6.08461 49 6.72334 49 7.5V28.5C49 28.7761 48.7761 29 48.5 29H47.5C47.2239 29 47 28.7761 47 28.5V22H9V34H30.5C30.7761 34 31 34.2239 31 34.5V35.5C31 35.7761 30.7761 36 30.5 36H9V48H30.5C30.7761 48 31 48.2239 31 48.5V49.5C31 49.7761 30.7761 50 30.5 50H8.5C7.72334 50 7.08461 49.4097 7.00781 48.6533L7 48.5V7.5C7 6.67157 7.67157 6 8.5 6H47.5L47.6533 6.00781ZM9 20H47V8H9V20Z" fill="oklch(0.3523 0 0 / 1)" class="wd-expressive-fill"></path>
<path d="M16.5 43C16.7761 43 17 43.2239 17 43.5V44.5C17 44.7761 16.7761 45 16.5 45H12.5C12.2239 45 12 44.7761 12 44.5V43.5C12 43.2239 12.2239 43 12.5 43H16.5Z" fill="oklch(0.3523 0 0 / 1)" class="wd-expressive-fill"></path>
<path d="M16.5 39C16.7761 39 17 39.2239 17 39.5V40.5C17 40.7761 16.7761 41 16.5 41H12.5C12.2239 41 12 40.7761 12 40.5V39.5C12 39.2239 12.2239 39 12.5 39H16.5Z" fill="oklch(0.3523 0 0 / 1)" class="wd-expressive-fill"></path>
<path d="M16.5 29C16.7761 29 17 29.2239 17 29.5V30.5C17 30.7761 16.7761 31 16.5 31H12.5C12.2239 31 12 30.7761 12 30.5V29.5C12 29.2239 12.2239 29 12.5 29H16.5Z" fill="oklch(0.3523 0 0 / 1)" class="wd-expressive-fill"></path>
<path d="M16.5 25C16.7761 25 17 25.2239 17 25.5V26.5C17 26.7761 16.7761 27 16.5 27H12.5C12.2239 27 12 26.7761 12 26.5V25.5C12 25.2239 12.2239 25 12.5 25H16.5Z" fill="oklch(0.3523 0 0 / 1)" class="wd-expressive-fill"></path>
</g>
</svg>