<svg role="presentation" width="56" height="56" viewBox="0 0 56 56" xmlns="http://www.w3.org/2000/svg" class="wd-expressive wd-expressive-lotus-flower">
<g>
<path d="M48.665 31.0117C49.7636 31.0477 50.8398 31.1717 51.8867 31.3779C49.544 37.3063 43.7614 41.5 37 41.5C36.7848 41.5 36.5706 41.4948 36.3574 41.4863C35.0688 43.9118 31.9481 45.8273 28 46.6123C24.0516 45.8273 20.9301 43.912 19.6416 41.4863C19.4288 41.4948 19.2149 41.5 19 41.5C12.2386 41.5 6.456 37.3063 4.11328 31.3779C5.16018 31.1717 6.23636 31.0477 7.33496 31.0117C9.85675 35.0179 14.1066 37.8229 19.0381 38.3896C19.1051 37.8446 19.2605 37.3148 19.4961 36.8057C19.7767 37.4123 20.1716 37.9887 20.6641 38.5273C21.4552 39.3923 22.4994 40.1578 23.7363 40.7852C24.9838 41.4181 26.426 41.9117 28 42.2246C29.5792 41.9106 31.0252 41.4143 32.2754 40.7783C33.4971 40.1572 34.5292 39.4005 35.3154 38.5469C35.8166 38.0025 36.2187 37.4199 36.5029 36.8057C36.7386 37.3149 36.8936 37.8446 36.9609 38.3896C41.8928 37.8232 46.1431 35.0182 48.665 31.0117Z" fill="oklch(0.3057 0.079 256.22 / 0.13)" class="wd-expressive-accent"></path>
<path d="M48 21C48.4764 21 48.9489 21.018 49.417 21.0508C47.1509 30.6966 38.5374 37.8939 28.2246 37.9971C28.2666 37.7183 28.3158 37.4418 28.3691 37.167C28.2474 37.2434 28.1246 37.3185 28 37.3906C27.8717 37.3164 27.7454 37.239 27.6201 37.1602C27.6241 37.1627 27.6279 37.1655 27.6318 37.168C27.6852 37.4424 27.7335 37.7187 27.7754 37.9971C17.4626 37.8939 8.84906 30.6966 6.58301 21.0508C7.05111 21.018 7.52356 21 8 21C8.12135 21 8.24244 21.0018 8.36328 21.0039C11.4417 26.3226 16.684 30.2281 22.8857 31.5264C22.5827 30.7835 22.3508 30.0039 22.2012 29.1953C22.8495 25.6926 25.0197 22.7245 28 21C30.9802 22.7245 33.1495 25.6926 33.7979 29.1953C33.6435 30.0295 33.4013 30.8327 33.084 31.5967C33.0877 31.5878 33.092 31.5792 33.0957 31.5703C39.3903 30.3172 44.7169 26.3819 47.8301 21.002C47.8867 21.0015 47.9433 21 48 21Z" fill="oklch(0.3057 0.079 256.22 / 0.13)" class="wd-expressive-accent"></path>
<path d="M13.0312 17.0381C17.0493 17.3306 20.5945 19.3205 22.959 22.292C22.3753 23.658 22.0392 25.1545 22.0039 26.7256C19.6525 24.417 16.7339 22.6844 13.4746 21.7588C13.1646 20.5577 13 19.2981 13 18C13 17.6768 13.011 17.3561 13.0312 17.0381Z" fill="oklch(0.3057 0.079 256.22 / 0.13)" class="wd-expressive-accent"></path>
<path d="M25.5 11C28.6219 12.5966 30.9471 15.5278 31.7207 19.042C33.8419 17.7476 36.3332 17 39 17C39.1546 17 39.3085 17.0028 39.4619 17.0078C39.812 18.279 40 19.6175 40 21C40 21.5776 39.9649 22.1474 39.9014 22.708C37.6932 23.6872 35.6958 25.0548 33.9951 26.7236C33.8973 22.3984 31.5115 18.6403 28 16.6084C26.8202 17.2911 25.7676 18.1688 24.8857 19.1973C24.1187 18.2501 23.2307 17.405 22.2451 16.6855C22.7152 14.4939 23.8384 12.5452 25.4014 11.0518C25.4343 11.0345 25.4669 11.0169 25.5 11Z" fill="oklch(0.3057 0.079 256.22 / 0.13)" class="wd-expressive-accent"></path>
</g>
<path d="M27.6542 8.2647C27.9142 8.16894 28.205 8.18485 28.4549 8.31256C31.1984 9.71556 33.3307 12.1452 34.3465 15.0958C36.5869 13.7641 39.2045 13.0001 41.9999 13.0001C42.1664 13.0001 42.3316 13.0036 42.494 13.0088C42.8767 13.0214 43.2138 13.2502 43.37 13.5899L43.4256 13.7422C43.7992 15.0986 43.9998 16.5266 43.9999 18.0001C43.9999 18.8062 43.9374 19.5981 43.8221 20.3721C45.1024 20.1283 46.4239 20.0001 47.7753 20.0001C48.2768 20.0001 48.7732 20.0185 49.2626 20.0528C49.5548 20.0734 49.8231 20.2222 49.9969 20.4581C50.1707 20.694 50.2328 20.9941 50.1659 21.2794C49.3992 24.543 47.9362 27.5377 45.9442 30.1006C46.6205 30.0348 47.3062 30.0001 47.9999 30.0001C49.3952 30.0001 50.7596 30.1365 52.0799 30.3965C52.3711 30.4539 52.6222 30.638 52.7645 30.8985C52.9067 31.1589 52.9252 31.4692 52.8163 31.7452C50.3278 38.0424 44.1853 42.5 36.9999 42.5001C36.9732 42.5001 36.9465 42.4982 36.9198 42.4981C36.4401 43.2388 35.8215 43.9185 35.0975 44.5206C33.3458 45.9774 30.932 47.0486 28.1952 47.5928C28.0665 47.6184 27.9333 47.6184 27.8046 47.5928C25.0677 47.0486 22.654 45.9774 20.9022 44.5206C20.1781 43.9184 19.5587 43.239 19.079 42.4981C19.0526 42.4982 19.0262 42.5001 18.9999 42.5001C11.8144 42.5001 5.67195 38.0424 3.18346 31.7452C3.07446 31.4692 3.09297 31.1589 3.23522 30.8985C3.37755 30.638 3.62857 30.4539 3.91979 30.3965C5.24011 30.1365 6.60452 30.0001 7.99987 30.0001C8.61124 30.0001 9.21626 30.0289 9.81432 30.0801C7.83057 27.5218 6.37389 24.5342 5.60924 21.2794C5.54234 20.9941 5.6044 20.694 5.77819 20.4581C5.95204 20.2223 6.22032 20.0734 6.51256 20.0528C7.00189 20.0185 7.49828 20.0001 7.99987 20.0001C9.4321 20.0001 10.8309 20.1439 12.1825 20.417C12.063 19.6288 11.9999 18.8217 11.9999 18.0001C11.9999 16.5266 12.2005 15.0986 12.5741 13.7422L12.6297 13.5899C12.786 13.2503 13.123 13.0213 13.5057 13.0088C13.6681 13.0036 13.8333 13.0001 13.9999 13.0001C16.7947 13.0001 19.4112 13.7645 21.6512 15.0958C22.6672 12.145 24.8011 9.71562 27.5448 8.31256L27.6542 8.2647ZM35.7411 37.5811C33.3285 38.4718 30.7256 38.9699 28.0096 38.9971C27.9686 38.9975 27.9279 38.9939 27.8876 38.9893C27.8472 38.9939 27.8065 38.9975 27.7655 38.9971C25.1237 38.9707 22.5891 38.4978 20.2323 37.6524C20.0783 38.0962 19.9999 38.5472 19.9999 39.0001C19.9999 40.3991 20.7391 41.7835 22.1805 42.9825C23.5851 44.1506 25.6007 45.0853 27.9999 45.5899C30.399 45.0853 32.4147 44.1506 33.8192 42.9825C35.2606 41.7835 35.9999 40.3991 35.9999 39.0001C35.9999 38.5228 35.9118 38.0481 35.7411 37.5811ZM7.99987 32.0001C7.171 32.0001 6.35487 32.0544 5.55455 32.1573C7.8941 36.8728 12.6402 40.1785 18.1844 40.4756C18.0649 39.9995 17.9999 39.507 17.9999 39.0001C17.9999 38.2656 18.1364 37.5625 18.3817 36.8956C15.9571 35.7779 13.7602 34.2514 11.8797 32.4034C10.6272 32.1419 9.33014 32.0001 7.99987 32.0001ZM47.9999 32.0001C46.5695 32.0001 45.1764 32.1586 43.8368 32.459C42.0187 34.2334 39.9084 35.7091 37.5839 36.8067C37.8504 37.5 37.9999 38.2328 37.9999 39.0001C37.9999 39.5071 37.9339 39.9994 37.8143 40.4756C43.359 40.1788 48.1055 36.8731 50.4452 32.1573C49.6449 32.0543 48.8287 32.0001 47.9999 32.0001ZM7.87096 22.002C10.2255 29.911 17.1147 35.8627 25.5223 36.8506C22.7899 34.4982 21.045 31.029 21.0018 27.1475C17.6032 23.9557 13.03 22.0001 7.99987 22.0001C7.95692 22.0001 7.91387 22.0017 7.87096 22.002ZM47.7753 22.0001C42.8552 22.0001 38.3721 23.8709 34.9979 26.9395C34.998 26.9597 34.9999 26.9799 34.9999 27.0001C34.9999 30.9235 33.2593 34.4367 30.5135 36.8184C38.8026 35.7391 45.574 29.829 47.9042 22.002C47.8613 22.0017 47.8182 22.0001 47.7753 22.0001ZM27.9999 17.7823C24.9882 19.7465 22.9999 23.1409 22.9999 27.0001C22.9999 30.8588 24.9885 34.2516 27.9999 36.2159C31.0111 34.2516 32.9999 30.8587 32.9999 27.0001C32.9998 23.1409 31.0115 19.7465 27.9999 17.7823ZM14.3231 15.003C14.1124 15.9681 13.9999 16.9707 13.9999 18.0001C13.9999 19.0191 14.1122 20.012 14.3202 20.9688C16.8587 21.769 19.1878 23.0397 21.2079 24.6768C21.5725 22.6579 22.4035 20.8022 23.5848 19.2237C21.2763 16.7025 17.9892 15.0925 14.3231 15.003ZM41.6766 15.003C38.0101 15.0925 34.7217 16.702 32.413 19.2237C33.564 20.7615 34.3819 22.5619 34.7606 24.5206C36.7995 22.9077 39.1447 21.6649 41.6952 20.8946C41.8925 19.9606 41.9999 18.9928 41.9999 18.0001C41.9999 16.9707 41.8873 15.9681 41.6766 15.003ZM27.9999 10.3428C25.7691 11.6338 24.084 13.7586 23.3719 16.2901C23.9173 16.7272 24.4302 17.2029 24.909 17.711C25.6845 16.9524 26.5542 16.2899 27.4989 15.7432C27.8087 15.564 28.1911 15.564 28.5008 15.7432C29.445 16.2896 30.3137 16.952 31.0887 17.71C31.5676 17.2023 32.0807 16.7271 32.6258 16.2901C31.9139 13.7587 30.2305 11.6338 27.9999 10.3428Z" fill="oklch(0.3523 0 0 / 1)" class="wd-expressive-fill"></path>
</svg>