<svg role="presentation" width="56" height="56" viewBox="0 0 56 56" xmlns="http://www.w3.org/2000/svg" class="wd-expressive wd-expressive-elevator">
<g>
<path d="M20.4414 25.0088C22.6388 25.0997 24.662 25.8669 26.3086 27.1064C26.763 27.4486 26.9999 27.9986 27 28.5674V36.4365C27 36.6197 26.9003 36.7895 26.7373 36.873C26.6856 36.8995 26.6333 36.9257 26.5811 36.9512C26.5147 36.9836 26.441 37 26.3672 37H23.5C23.2239 37 23 37.2239 23 37.5V48.5C23 48.776 22.7759 48.9998 22.5 49H19.5C19.2239 49 19 48.7761 19 48.5V37.9395C19 37.7183 18.8541 37.5248 18.6445 37.4541C17.5718 37.0927 16.5765 36.5626 15.6904 35.8955C15.2361 35.5534 15.0001 35.0033 15 34.4346V26.5674C15 26.5439 15.0001 26.5204 15.001 26.4971C15.0071 26.3412 15.1071 26.2065 15.2461 26.1357C16.6734 25.4096 18.289 25.0001 20 25L20.4414 25.0088Z" fill="oklch(0.3057 0.079 256.22 / 0.13)" class="wd-expressive-accent"></path>
<path d="M20 16C21.6567 16.0002 23 17.3433 23 19C23 19.2095 22.9779 19.4141 22.9365 19.6113C22.9022 19.7747 22.7747 19.9022 22.6113 19.9365C22.4141 19.9779 22.2095 20 22 20C20.3431 20 19 18.6569 19 17C19 16.7902 19.0214 16.5853 19.0625 16.3877C19.0966 16.2243 19.2243 16.0966 19.3877 16.0625C19.5853 16.0214 19.7902 16 20 16Z" fill="oklch(0.3057 0.079 256.22 / 0.13)" class="wd-expressive-accent"></path>
</g>
<g>
<path d="M41.5654 30C41.9648 30 42.203 30.4451 41.9814 30.7773L38.916 35.376C38.7181 35.6726 38.282 35.6725 38.084 35.376L35.0176 30.7773C34.7966 30.4453 35.0349 30.0006 35.4336 30H41.5654Z" fill="oklch(0.3523 0 0 / 1)" class="wd-expressive-fill"></path>
<path d="M38.084 20.624C38.2818 20.3273 38.718 20.3275 38.916 20.624L41.9814 25.2227C42.2028 25.5549 41.9647 26 41.5654 26H35.4336C35.0349 25.9994 34.7967 25.5547 35.0176 25.2227L38.084 20.624Z" fill="oklch(0.3523 0 0 / 1)" class="wd-expressive-fill"></path>
<path d="M22 13C24.2091 13 26 14.7909 26 17C26 19.2091 24.2091 21 22 21C19.7909 21 18 19.2091 18 17C18 14.7909 19.7909 13 22 13ZM22 15C20.8954 15 20 15.8954 20 17C20 18.1046 20.8954 19 22 19C23.1046 19 24 18.1046 24 17C24 15.8954 23.1046 15 22 15Z" fill="oklch(0.3523 0 0 / 1)" class="wd-expressive-fill"></path>
<path d="M47.6533 6.00781C48.4097 6.08461 49 6.72334 49 7.5V48H51.5C51.7761 48 52 48.2239 52 48.5V49.5C52 49.7761 51.7761 50 51.5 50H4.5C4.22386 50 4 49.7761 4 49.5V48.5C4 48.2239 4.22386 48 4.5 48H7V7.5C7 6.67157 7.67157 6 8.5 6H47.5L47.6533 6.00781ZM9 48H18V38.2842C17.0933 37.9478 16.2399 37.5025 15.458 36.9609L15.0889 36.6943C14.3944 36.1713 14.045 35.3771 14.0039 34.5918L14 34.4346V26.5674C14.0001 25.7323 14.348 24.8656 15.0889 24.3076L15.4551 24.043C17.3129 22.7551 19.5696 22 22 22C24.5924 22 26.9873 22.8592 28.9111 24.3076L29.0459 24.416C29.6943 24.974 29.9999 25.7846 30 26.5674V34.4346L29.9961 34.5918C29.9578 35.3246 29.651 36.0652 29.0459 36.5859L28.9111 36.6943C28.0311 37.3569 27.0515 37.8941 26 38.2842V48H47V8H9V48ZM22 24C19.9906 24 18.1289 24.623 16.5947 25.6865L16.292 25.9053C16.1243 26.0316 16.0001 26.2651 16 26.5674V34.4346L16.0059 34.5449C16.032 34.7937 16.1453 34.9862 16.292 35.0967L16.5967 35.3174C17.3194 35.818 18.1152 36.2199 18.9639 36.5059C19.5603 36.7068 20 37.2683 20 37.9395V48H24V37.9395C24 37.2683 24.4397 36.7068 25.0361 36.5059L25.3965 36.376C26.2294 36.0571 27.0065 35.6248 27.708 35.0967L27.7686 35.0439C27.8851 34.9296 27.9717 34.758 27.9941 34.5449L28 34.4346V26.5674C27.9999 26.303 27.9046 26.0915 27.7686 25.958L27.708 25.9053C26.1189 24.7089 24.1435 24 22 24Z" fill="oklch(0.3523 0 0 / 1)" class="wd-expressive-fill"></path>
</g>
</svg>