<svg role="presentation" width="56" height="56" viewBox="0 0 56 56" xmlns="http://www.w3.org/2000/svg" class="wd-expressive wd-expressive-bar-line-chart">
<g>
<path d="M15 47H8V38H15V47Z" fill="oklch(0.3057 0.079 256.22 / 0.13)" class="wd-expressive-accent"></path>
<path d="M25 47H18V31H25V47Z" fill="oklch(0.3057 0.079 256.22 / 0.13)" class="wd-expressive-accent"></path>
<path d="M35 47H28V40H35V47Z" fill="oklch(0.3057 0.079 256.22 / 0.13)" class="wd-expressive-accent"></path>
<path d="M45 47H38V35H45V47Z" fill="oklch(0.3057 0.079 256.22 / 0.13)" class="wd-expressive-accent"></path>
<path d="M9 21C10.6569 21 12 22.3431 12 24C12 24.722 11.7442 25.3837 11.3193 25.9014C11.0564 25.9645 10.7823 26 10.5 26C8.567 26 7 24.433 7 22.5C7 22.2174 7.03443 21.9429 7.09766 21.6797C7.61533 21.2548 8.278 21 9 21Z" fill="oklch(0.3057 0.079 256.22 / 0.13)" class="wd-expressive-accent"></path>
<path d="M33 18C34.6569 18 36 19.3431 36 21C36 21.722 35.7442 22.3837 35.3193 22.9014C35.0564 22.9645 34.7823 23 34.5 23C32.567 23 31 21.433 31 19.5C31 19.2174 31.0344 18.9429 31.0977 18.6797C31.6153 18.2548 32.278 18 33 18Z" fill="oklch(0.3057 0.079 256.22 / 0.13)" class="wd-expressive-accent"></path>
<path d="M20 9C21.6569 9 23 10.3431 23 12C23 12.722 22.7442 13.3837 22.3193 13.9014C22.0564 13.9645 21.7823 14 21.5 14C19.567 14 18 12.433 18 10.5C18 10.2174 18.0344 9.94288 18.0977 9.67969C18.6153 9.25477 19.278 9 20 9Z" fill="oklch(0.3057 0.079 256.22 / 0.13)" class="wd-expressive-accent"></path>
<path d="M44 8C45.6569 8 47 9.34315 47 11C47 11.722 46.7442 12.3837 46.3193 12.9014C46.0564 12.9645 45.7823 13 45.5 13C43.567 13 42 11.433 42 9.5C42 9.21741 42.0344 8.94288 42.0977 8.67969C42.6153 8.25477 43.278 8 44 8Z" fill="oklch(0.3057 0.079 256.22 / 0.13)" class="wd-expressive-accent"></path>
</g>
<g>
<path d="M28 27C28.5523 27 29 27.4477 29 28V36H37V32C37 31.4477 37.4477 31 38 31H48C48.5523 31 49 31.4477 49 32V47C49 47.5523 48.5523 48 48 48H8C7.44772 48 7 47.5523 7 47V35C7 34.4477 7.44772 34 8 34H17V28C17 27.4477 17.4477 27 18 27H28ZM9 46H17V36H9V46ZM19 46H27V29H19V46ZM29 46H37V38H29V46ZM39 46H47V33H39V46Z" fill="oklch(0.3523 0 0 / 1)" class="wd-expressive-fill"></path>
<path d="M45.5 5C47.9853 5 50 7.01472 50 9.5C50 11.9853 47.9853 14 45.5 14C44.5425 14 43.6553 13.7002 42.9258 13.1904L38.418 17.2881C38.7876 17.9415 39 18.6957 39 19.5C39 21.9853 36.9853 24 34.5 24C32.0147 24 30 21.9853 30 19.5C30 18.9076 30.1152 18.3422 30.3232 17.8242L24.5371 13.8184C23.7366 14.5515 22.6711 15 21.5 15C20.689 15 19.9286 14.7846 19.2715 14.4092L14.2002 19.9414C14.7036 20.6681 15 21.5491 15 22.5C15 24.9853 12.9853 27 10.5 27C8.01472 27 6 24.9853 6 22.5C6 20.0147 8.01472 18 10.5 18C11.3099 18 12.0691 18.2154 12.7256 18.5898L17.7979 13.0566C17.2954 12.3304 17 11.4499 17 10.5C17 8.01472 19.0147 6 21.5 6C23.9853 6 26 8.01472 26 10.5C26 11.0922 25.8837 11.6569 25.6758 12.1748L31.4619 16.1797C32.2624 15.4468 33.3291 15 34.5 15C35.4563 15 36.3423 15.299 37.0713 15.8076L41.5801 11.71C41.2112 11.0571 41 10.3033 41 9.5C41 7.01472 43.0147 5 45.5 5ZM10.5 20C9.11929 20 8 21.1193 8 22.5C8 23.8807 9.11929 25 10.5 25C11.8807 25 13 23.8807 13 22.5C13 21.1193 11.8807 20 10.5 20ZM34.5 17C33.1193 17 32 18.1193 32 19.5C32 20.8807 33.1193 22 34.5 22C35.8807 22 37 20.8807 37 19.5C37 18.1193 35.8807 17 34.5 17ZM21.5 8C20.1193 8 19 9.11929 19 10.5C19 11.8807 20.1193 13 21.5 13C22.8807 13 24 11.8807 24 10.5C24 9.11929 22.8807 8 21.5 8ZM45.5 7C44.1193 7 43 8.11929 43 9.5C43 10.8807 44.1193 12 45.5 12C46.8807 12 48 10.8807 48 9.5C48 8.11929 46.8807 7 45.5 7Z" fill="oklch(0.3523 0 0 / 1)" class="wd-expressive-fill"></path>
</g>
</svg>