<svg role="presentation" width="56" height="56" viewBox="0 0 56 56" xmlns="http://www.w3.org/2000/svg" class="wd-expressive wd-expressive-document-list-refresh">
<g>
<path d="M40.6709 36.3066C42.5845 35.794 44.614 35.9265 46.4443 36.6846C48.2747 37.4427 49.8033 38.7843 50.7939 40.5L49.9385 40.9932C49.431 40.9352 48.919 40.9053 48.4053 40.9053C47.6394 40.9053 46.8782 40.9724 46.1289 41.1006C45.2723 40.4124 44.1844 40 43 40C40.2386 40 38.0001 42.2387 38 45C38 47.7614 40.2386 50 43 50C44.8507 50 46.4646 48.9935 47.3291 47.499L50.7939 49.5C49.8034 51.2155 48.2745 52.5563 46.4443 53.3145C44.614 54.0726 42.5845 54.206 40.6709 53.6934C38.7572 53.1806 37.0654 52.0503 35.8594 50.4785C34.6535 48.9068 34 46.981 34 45C34 43.0189 34.6533 41.0923 35.8594 39.5205C37.0654 37.9488 38.7573 36.8194 40.6709 36.3066Z" fill="oklch(0.3057 0.079 256.22 / 0.13)" class="wd-expressive-accent"></path>
<path d="M14 49.5C14 49.7761 14.2239 50 14.5 50H33V52.5C33 52.7761 32.7761 53 32.5 53H11.5C11.2239 53 11 52.7761 11 52.5V3.5C11 3.22386 11.2239 3 11.5 3H14V49.5Z" fill="oklch(0.3057 0.079 256.22 / 0.13)" class="wd-expressive-accent"></path>
</g>
<g>
<path d="M44.3232 51.875C44.5943 51.8228 44.8689 51.9786 44.9404 52.2451L45.1992 53.2109C45.2706 53.4777 45.1121 53.754 44.8418 53.8105C43.6267 54.0646 42.3714 54.0647 41.1562 53.8105C40.8861 53.754 40.7285 53.4776 40.7998 53.2109L41.0586 52.2451C41.1303 51.9787 41.4039 51.8229 41.6748 51.875C42.5494 52.0434 43.4487 52.0434 44.3232 51.875Z" fill="oklch(0.3523 0 0 / 1)" class="wd-expressive-fill"></path>
<path d="M43 2C44.6567 2.00018 46 3.34326 46 5V32.5C46 32.7761 45.7761 33 45.5 33H44.5C44.2239 33 44 32.7761 44 32.5V5C44 4.44783 43.5521 4.00018 43 4H13C12.4477 4 12 4.44772 12 5V51C12.0001 51.5522 12.4478 52 13 52H19.4912C19.4941 51.9999 19.4971 51.999 19.5 51.999L32.5 52C32.7761 52 32.9999 52.224 33 52.5V53.5C33 53.7762 32.7762 54 32.5 54H13C11.3432 54 10.0001 52.6567 10 51V5C10 3.34315 11.3431 2 13 2H43Z" fill="oklch(0.3523 0 0 / 1)" class="wd-expressive-fill"></path>
<path d="M35.7549 46.9414C36.0213 46.8703 36.2934 47.0294 36.3838 47.29C36.6292 47.9991 36.9874 48.6659 37.4453 49.2627C37.9032 49.8593 38.4541 50.3774 39.0752 50.7979C39.3038 50.9526 39.3869 51.257 39.249 51.4961L38.749 52.3613C38.6109 52.6003 38.3043 52.6841 38.0732 52.5332C37.2258 51.979 36.4762 51.2846 35.8584 50.4795C35.2408 49.6745 34.7642 48.7714 34.4482 47.8096C34.3621 47.5473 34.5225 47.2718 34.7891 47.2002L35.7549 46.9414Z" fill="oklch(0.3523 0 0 / 1)" class="wd-expressive-fill"></path>
<path d="M48.7959 48.9248C48.9507 48.6961 49.256 48.6128 49.4951 48.751L49.9268 49.001L50.3604 49.251C50.5992 49.3891 50.6822 49.6958 50.5312 49.9268C49.8517 50.9657 48.9638 51.8537 47.9248 52.5332C47.6937 52.6839 47.387 52.6003 47.249 52.3613L46.749 51.4961C46.6112 51.2571 46.6944 50.9527 46.9229 50.7979C47.6605 50.2985 48.2965 49.6624 48.7959 48.9248Z" fill="oklch(0.3523 0 0 / 1)" class="wd-expressive-fill"></path>
<path d="M50.0342 35.2578L50.9883 35.5537C51.252 35.6355 51.3993 35.9158 51.3281 36.1826C51.0487 37.2296 50.9053 38.3135 50.9053 39.4062C50.9053 39.9009 50.9351 40.3946 50.9932 40.8828C51.0204 41.1133 50.9649 41.3437 50.8428 41.5361C50.8202 41.5781 50.7942 41.6198 50.7588 41.6553L50.7139 41.6992C50.7114 41.7018 50.7095 41.7055 50.707 41.708L50.6553 41.7598C50.6151 41.7999 50.5678 41.8289 50.5195 41.8525C50.3303 41.9677 50.1062 42.0197 49.8818 41.9932C49.3936 41.9351 48.9 41.9053 48.4053 41.9053C47.3125 41.9053 46.2285 42.0487 45.1816 42.3281C44.9149 42.3992 44.6345 42.2519 44.5527 41.9883L44.2568 41.0332C44.1755 40.7697 44.3229 40.4888 44.5889 40.416C45.6376 40.1299 46.7188 39.9626 47.8115 39.918C47.1947 39.3342 46.4727 38.8635 45.6777 38.5342C44.2543 37.9447 42.6757 37.8405 41.1875 38.2393C39.6994 38.6382 38.3832 39.517 37.4453 40.7393C36.6093 41.829 36.1141 43.1382 36.0166 44.501C35.9968 44.7763 35.7751 45.001 35.499 45.001H34.499C34.223 45.0008 33.9975 44.7765 34.0127 44.501C34.113 42.6977 34.7545 40.9615 35.8584 39.5225C37.0643 37.9509 38.7565 36.8205 40.6699 36.3076C42.5834 35.795 44.6131 35.9285 46.4434 36.6865C47.3667 37.069 48.2126 37.6006 48.9521 38.2529C49.0243 37.3509 49.1798 36.4591 49.417 35.5898C49.4898 35.3238 49.7706 35.1762 50.0342 35.2578Z" fill="oklch(0.3523 0 0 / 1)" class="wd-expressive-fill"></path>
<path d="M23.9395 29.6465C24.1347 29.4513 24.4512 29.4513 24.6465 29.6465L25.3535 30.3535C25.5487 30.5488 25.5487 30.8653 25.3535 31.0605L20.707 35.707C20.3166 36.0975 19.6835 36.0973 19.293 35.707L17.1465 33.5605C16.9513 33.3653 16.9513 33.0488 17.1465 32.8535L17.8535 32.1465C18.0488 31.9513 18.3653 31.9513 18.5605 32.1465L20 33.5859L23.9395 29.6465Z" fill="oklch(0.3523 0 0 / 1)" class="wd-expressive-fill"></path>
<path d="M35.499 32C35.7752 32 35.999 32.2239 35.999 32.5V33.499C35.999 33.7752 35.7752 34 35.499 34H27.499C27.2232 33.9998 26.9993 33.7758 26.999 33.5V32.5C26.999 32.224 27.223 32.0002 27.499 32H35.499Z" fill="oklch(0.3523 0 0 / 1)" class="wd-expressive-fill"></path>
<path d="M23.9395 19.6465C24.1347 19.4513 24.4512 19.4513 24.6465 19.6465L25.3535 20.3535C25.5487 20.5488 25.5487 20.8653 25.3535 21.0605L20.707 25.707C20.3166 26.0975 19.6835 26.0973 19.293 25.707L17.1465 23.5605C16.9513 23.3653 16.9513 23.0488 17.1465 22.8535L17.8535 22.1465C18.0488 21.9513 18.3653 21.9513 18.5605 22.1465L20 23.5859L23.9395 19.6465Z" fill="oklch(0.3523 0 0 / 1)" class="wd-expressive-fill"></path>
<path d="M38.499 22C38.7752 22 38.999 22.2239 38.999 22.5V23.5C38.9988 23.7759 38.775 24 38.499 24H27.499C27.2232 23.9998 26.9993 23.7758 26.999 23.5V22.5C26.999 22.224 27.223 22.0002 27.499 22H38.499Z" fill="oklch(0.3523 0 0 / 1)" class="wd-expressive-fill"></path>
<path d="M23.9395 9.64648C24.1347 9.45132 24.4512 9.45129 24.6465 9.64648L25.3535 10.3535C25.5487 10.5488 25.5487 10.8653 25.3535 11.0605L20.707 15.707C20.3166 16.0975 19.6835 16.0973 19.293 15.707L17.1465 13.5605C16.9513 13.3653 16.9513 13.0488 17.1465 12.8535L17.8535 12.1465C18.0488 11.9513 18.3653 11.9513 18.5605 12.1465L20 13.5859L23.9395 9.64648Z" fill="oklch(0.3523 0 0 / 1)" class="wd-expressive-fill"></path>
<path d="M38.499 12C38.7752 12 38.999 12.2239 38.999 12.5V13.5C38.9988 13.7759 38.775 14 38.499 14H27.499C27.2232 13.9998 26.9993 13.7758 26.999 13.5V12.5C26.999 12.224 27.223 12.0002 27.499 12H38.499Z" fill="oklch(0.3523 0 0 / 1)" class="wd-expressive-fill"></path>
</g>
</svg>