<svg role="presentation" width="56" height="56" viewBox="0 0 56 56" xmlns="http://www.w3.org/2000/svg" class="wd-expressive wd-expressive-arrow-left-circle">
<path d="M28 4C41.2548 4 52 14.7452 52 28C52 41.2548 41.2548 52 28 52C14.7452 52 4 41.2548 4 28C4 14.7452 14.7452 4 28 4ZM28 9C17.5066 9 9 17.5066 9 28C9 38.4934 17.5066 47 28 47C38.4934 47 47 38.4934 47 28C47 17.5066 38.4934 9 28 9Z" fill="oklch(0.3057 0.079 256.22 / 0.13)" class="wd-expressive-accent"></path>
<g>
<path d="M23.9268 17.9951C24.0551 17.7509 24.355 17.6515 24.6016 17.7754L25.4951 18.2246C25.7414 18.3486 25.8413 18.649 25.7139 18.8936C24.135 21.9153 22.0785 24.6501 19.6357 27H39.5C39.7759 27.0001 39.9998 27.2241 40 27.5V28.5C39.9999 28.776 39.776 28.9999 39.5 29H19.6348C22.0777 31.3497 24.1349 34.0837 25.7139 37.1055C25.8414 37.35 25.7414 37.6513 25.4951 37.7754L24.6016 38.2246C24.3549 38.3486 24.055 38.2483 23.9268 38.0039C22.0602 34.441 19.4865 31.3023 16.3711 28.7773C16.3405 28.7525 16.3113 28.7252 16.2842 28.6973C16.2719 28.6846 16.2606 28.6705 16.249 28.6572C16.2132 28.6162 16.1789 28.5734 16.1504 28.5273C16.138 28.5073 16.1271 28.4857 16.1162 28.4648C16.1095 28.452 16.1019 28.4389 16.0957 28.4258C16.0717 28.3746 16.0532 28.3203 16.0381 28.2656C16.0337 28.2499 16.028 28.2338 16.0244 28.2178C16.0118 28.1609 16.0055 28.1019 16.0029 28.043C16.0024 28.0312 16.0011 28.0187 16.001 28.0068V27.9922C16.0011 27.9803 16.0024 27.9679 16.0029 27.9561C16.0056 27.8968 16.0116 27.8374 16.0244 27.7803C16.0286 27.762 16.0349 27.7436 16.04 27.7256C16.045 27.7081 16.0497 27.69 16.0557 27.6729C16.0746 27.6179 16.0988 27.5644 16.127 27.5137C16.1504 27.4715 16.1766 27.4301 16.2061 27.3916L16.2148 27.3799C16.2602 27.3223 16.3131 27.2687 16.3711 27.2217C19.4864 24.6967 22.0603 21.558 23.9268 17.9951Z" fill="oklch(0.3523 0 0 / 1)" class="wd-expressive-fill"></path>
<path d="M28 3C41.8068 3.00018 52.9998 14.1932 53 28C52.9998 41.8068 41.8068 52.9998 28 53C14.1932 52.9998 3.0002 41.8068 3 28C3.0002 14.1932 14.1932 3.00018 28 3ZM28 5C15.2977 5.00018 5.0002 15.2977 5 28C5.0002 40.7023 15.2977 50.9998 28 51C40.7023 50.9998 50.9998 40.7023 51 28C50.9998 15.2977 40.7023 5.00018 28 5Z" fill="oklch(0.3523 0 0 / 1)" class="wd-expressive-fill"></path>
</g>
</svg>