<svg role="presentation" width="56" height="56" viewBox="0 0 56 56" xmlns="http://www.w3.org/2000/svg" class="wd-expressive wd-expressive-document-list-search">
<g>
<path d="M14 49.5C14 49.7761 14.2239 50 14.5 50H41V52.5C41 52.7761 40.7761 53 40.5 53H11.5C11.2239 53 11 52.7761 11 52.5V3.5C11 3.22386 11.2239 3 11.5 3H14V49.5Z" fill="oklch(0.3057 0.079 256.22 / 0.13)" class="wd-expressive-accent"></path>
<path d="M36.1514 34.1533C35.4239 35.2572 35 36.5791 35 38C35 41.8659 38.1341 44.9999 42 45C43.4215 45 44.7435 44.5747 45.8477 43.8467C44.5958 45.7458 42.4447 46.9999 40 47C36.1341 46.9999 33 43.8659 33 40C33 37.556 34.2533 35.4054 36.1514 34.1533Z" fill="oklch(0.3057 0.079 256.22 / 0.13)" class="wd-expressive-accent"></path>
</g>
<g>
<path d="M43 2C44.6567 2.00018 46 3.34326 46 5V29.5C46 29.7761 45.7761 30 45.5 30H44.5C44.2239 30 44 29.7761 44 29.5V5C44 4.44783 43.5521 4.00018 43 4H13C12.4477 4 12 4.44772 12 5V51C12.0001 51.5522 12.4478 52 13 52H40.5C40.7761 52 41 52.2239 41 52.5V53.5C40.9999 53.776 40.7761 54 40.5 54H13C11.3432 54 10.0001 52.6567 10 51V5C10 3.34315 11.3431 2 13 2H43Z" fill="oklch(0.3523 0 0 / 1)" class="wd-expressive-fill"></path>
<path d="M40 32C44.4181 32.0002 48 35.5818 48 40C48 41.8485 47.3703 43.5487 46.3174 44.9033L52.3535 50.9395C52.5485 51.1347 52.5486 51.4513 52.3535 51.6465L51.6465 52.3535C51.4513 52.5484 51.1346 52.5485 50.9395 52.3535L44.9033 46.3174C43.5488 47.3703 41.8485 47.9999 40 48C35.5817 48 32 44.4183 32 40C32 35.5817 35.5817 32 40 32ZM40 34C36.6863 34 34 36.6863 34 40C34 43.3137 36.6863 46 40 46C43.3136 45.9998 46 43.3136 46 40C46 36.6864 43.3136 34.0002 40 34Z" fill="oklch(0.3523 0 0 / 1)" class="wd-expressive-fill"></path>
<path d="M23.9395 29.6465C24.1347 29.4513 24.4513 29.4513 24.6465 29.6465L25.3535 30.3535C25.5486 30.5488 25.5486 30.8653 25.3535 31.0605L20.707 35.707C20.3166 36.0975 19.6835 36.0973 19.293 35.707L17.1465 33.5605C16.9513 33.3653 16.9513 33.0488 17.1465 32.8535L17.8535 32.1465C18.0488 31.9513 18.3653 31.9513 18.5605 32.1465L20 33.5859L23.9395 29.6465Z" fill="oklch(0.3523 0 0 / 1)" class="wd-expressive-fill"></path>
<path d="M30.499 32.001C30.7752 32.001 30.999 32.2248 30.999 32.501V33.5C30.999 33.7761 30.7752 34.001 30.499 34.001H27.499C27.2232 34.0008 26.9993 33.7768 26.999 33.501V32.501C26.999 32.2249 27.223 32.0011 27.499 32.001H30.499Z" fill="oklch(0.3523 0 0 / 1)" class="wd-expressive-fill"></path>
<path d="M23.9395 19.6465C24.1347 19.4513 24.4513 19.4513 24.6465 19.6465L25.3535 20.3535C25.5486 20.5488 25.5486 20.8653 25.3535 21.0605L20.707 25.707C20.3166 26.0975 19.6835 26.0973 19.293 25.707L17.1465 23.5605C16.9513 23.3653 16.9513 23.0488 17.1465 22.8535L17.8535 22.1465C18.0488 21.9513 18.3653 21.9513 18.5605 22.1465L20 23.5859L23.9395 19.6465Z" fill="oklch(0.3523 0 0 / 1)" class="wd-expressive-fill"></path>
<path d="M38.499 22.001C38.7752 22.001 38.999 22.2248 38.999 22.501V23.501C38.9988 23.7769 38.775 24.001 38.499 24.001H27.499C27.2232 24.0008 26.9993 23.7768 26.999 23.501V22.501C26.999 22.2249 27.223 22.0011 27.499 22.001H38.499Z" fill="oklch(0.3523 0 0 / 1)" class="wd-expressive-fill"></path>
<path d="M23.9395 9.64648C24.1347 9.45133 24.4513 9.45129 24.6465 9.64648L25.3535 10.3535C25.5486 10.5488 25.5486 10.8653 25.3535 11.0605L20.707 15.707C20.3166 16.0975 19.6835 16.0973 19.293 15.707L17.1465 13.5605C16.9513 13.3653 16.9513 13.0488 17.1465 12.8535L17.8535 12.1465C18.0488 11.9513 18.3653 11.9513 18.5605 12.1465L20 13.5859L23.9395 9.64648Z" fill="oklch(0.3523 0 0 / 1)" class="wd-expressive-fill"></path>
<path d="M38.499 12C38.7752 12 38.999 12.2239 38.999 12.5V13.5C38.999 13.7761 38.7752 14.001 38.499 14.001H27.499C27.223 14.0008 26.999 13.7761 26.999 13.5V12.5C26.999 12.2239 27.223 12.0001 27.499 12H38.499Z" fill="oklch(0.3523 0 0 / 1)" class="wd-expressive-fill"></path>
</g>
</svg>