<svg role="presentation" width="56" height="56" viewBox="0 0 56 56" xmlns="http://www.w3.org/2000/svg" class="wd-expressive wd-expressive-prism">
<path d="M27.5655 3.75974C27.7574 3.42384 28.2417 3.42384 28.4337 3.75974L51.5723 44.2519C51.7627 44.5852 51.5216 45 51.1378 45H4.86139C4.47754 45 4.23653 44.5852 4.42682 44.2519L27.5655 3.75974ZM9.16998 42H46.8301L28.0001 9.04685L9.16998 42Z" fill="oklch(0.3057 0.079 256.22 / 0.13)" class="wd-expressive-accent"></path>
<path d="M26.8151 3.08653C27.4088 2.31477 28.5903 2.31505 29.1842 3.08653L29.3024 3.26329L52.4401 43.7555C53.0114 44.7554 52.2899 45.9994 51.1383 45.9996H4.86097C3.70964 45.9991 2.98791 44.7553 3.55921 43.7555L26.6969 3.26329L26.8151 3.08653ZM7.73304 43.9996H48.277L28.0094 32.2984L7.73304 43.9996ZM6.70179 42.2857L27.0104 30.5641L27.0055 6.75352L6.70179 42.2857ZM29.0104 30.567L49.2907 42.276L29.0055 6.77598L29.0104 30.567Z" fill="oklch(0.3523 0 0 / 1)" class="wd-expressive-fill"></path>
</svg>