<svg role="presentation" width="56" height="56" viewBox="0 0 56 56" xmlns="http://www.w3.org/2000/svg" class="wd-expressive wd-expressive-webpage-code-forward">
<g>
<path d="M46 35.501C46 35.0311 46.5892 34.8209 46.8867 35.1846L52.7402 42.3379C52.8906 42.522 52.8906 42.7866 52.7402 42.9707L46.8867 50.125C46.5891 50.488 46.0001 50.2772 46 49.8076V45.7646C44.0437 45.9808 42.1817 46.5099 40.4658 47.3018C38.3907 48.2595 37.0924 50.1261 36.4609 52.2793C36.3966 52.4987 36.1983 52.6542 35.9697 52.6543H35.5C35.2239 52.6543 35.0001 52.4304 35 52.1543V49.4834C35.0001 46.0702 36.3693 42.6321 39.4346 41.1309C41.4519 40.143 43.6651 39.4946 46 39.2568V35.501Z" fill="oklch(0.3057 0.079 256.22 / 0.13)" class="wd-expressive-accent"></path>
<path d="M51 11C52.1046 11 53 11.8954 53 13V18H3V13C3 11.8954 3.89543 11 5 11H51Z" fill="oklch(0.3057 0.079 256.22 / 0.13)" class="wd-expressive-accent"></path>
</g>
<g>
<path d="M45 35.501C45 34.0907 46.7688 33.4612 47.6611 34.5518L47.6602 34.5527L53.5137 41.7051C53.9369 42.223 53.9638 42.9529 53.5938 43.4971L53.5146 43.6035L47.6611 50.7578L47.6602 50.7588C46.766 51.8499 45 51.215 45 49.8076V46.9219C43.5569 47.1785 42.1766 47.6138 40.8848 48.21C39.1378 49.0163 37.994 50.6063 37.4209 52.5605C37.2378 53.185 36.6634 53.654 35.9697 53.6543H35.5C34.6716 53.6543 34 52.9827 34 52.1543V49.4834C34.0001 45.8585 35.457 41.9652 38.9951 40.2324C40.856 39.3212 42.8754 38.6836 45 38.3721V35.501ZM47 39.2559C47 39.7688 46.6119 40.1989 46.1016 40.251C43.8864 40.4766 41.787 41.0925 39.874 42.0293C37.2818 43.2991 36.0001 46.2821 36 49.4834V50.6387C36.801 48.8418 38.1171 47.2842 40.0469 46.3936C41.859 45.5573 43.8258 44.9987 45.8906 44.7705C46.173 44.7394 46.4553 44.8301 46.667 45.0195C46.8788 45.2092 47 45.4803 47 45.7646V48.4072L51.707 42.6533L47 36.9004V39.2559Z" fill="oklch(0.3523 0 0 / 1)" class="wd-expressive-fill"></path>
<path d="M7.5 13C8.32843 13 9 13.6716 9 14.5C9 15.3284 8.32843 16 7.5 16C6.67157 16 6 15.3284 6 14.5C6 13.6716 6.67157 13 7.5 13Z" fill="oklch(0.3523 0 0 / 1)" class="wd-expressive-fill"></path>
<path d="M12.5 13C13.3284 13 14 13.6716 14 14.5C14 15.3284 13.3284 16 12.5 16C11.6716 16 11 15.3284 11 14.5C11 13.6716 11.6716 13 12.5 13Z" fill="oklch(0.3523 0 0 / 1)" class="wd-expressive-fill"></path>
<path d="M17.5 13C18.3284 13 19 13.6716 19 14.5C19 15.3284 18.3284 16 17.5 16C16.6716 16 16 15.3284 16 14.5C16 13.6716 16.6716 13 17.5 13Z" fill="oklch(0.3523 0 0 / 1)" class="wd-expressive-fill"></path>
<path d="M51 10C52.6569 10 54 11.3431 54 13V35.5C54 35.7761 53.7761 36 53.5 36H52.5C52.2239 36 52 35.7761 52 35.5V19H4V43C4 43.5523 4.44772 44 5 44H31.5C31.7761 44 32 44.2239 32 44.5V45.5C32 45.7761 31.7761 46 31.5 46H5C3.34315 46 2 44.6569 2 43V13C2 11.3431 3.34315 10 5 10H51ZM5 12C4.44772 12 4 12.4477 4 13V17H52V13C52 12.4477 51.5523 12 51 12H5Z" fill="oklch(0.3523 0 0 / 1)" class="wd-expressive-fill"></path>
<path d="M10.5 34C10.7761 34 11 34.2239 11 34.5V35.5C11 35.7761 10.7761 36 10.5 36H7.5C7.22386 36 7 35.7761 7 35.5V34.5C7 34.2239 7.22386 34 7.5 34H10.5Z" fill="oklch(0.3523 0 0 / 1)" class="wd-expressive-fill"></path>
<path d="M22.5 34C22.7761 34 23 34.2239 23 34.5V35.5C23 35.7761 22.7761 36 22.5 36H13.5C13.2239 36 13 35.7761 13 35.5V34.5C13 34.2239 13.2239 34 13.5 34H22.5Z" fill="oklch(0.3523 0 0 / 1)" class="wd-expressive-fill"></path>
<path d="M37.8896 22.6279C37.984 22.3684 38.2708 22.2338 38.5303 22.3281L39.4697 22.6699C39.7291 22.7644 39.8629 23.0521 39.7686 23.3115L36.1104 33.3711C36.016 33.6306 35.7283 33.7643 35.4688 33.6699L34.5303 33.3281C34.2708 33.2337 34.1371 32.947 34.2314 32.6875L37.8896 22.6279Z" fill="oklch(0.3523 0 0 / 1)" class="wd-expressive-fill"></path>
<path d="M30.9395 22.6465C31.1347 22.4513 31.4512 22.4512 31.6465 22.6465L32.3535 23.3535C32.5485 23.5488 32.5486 23.8654 32.3535 24.0605L28.4141 28L32.3535 31.9395C32.5485 32.1347 32.5486 32.4513 32.3535 32.6465L31.6465 33.3535C31.4513 33.5486 31.1347 33.5485 30.9395 33.3535L26.6465 29.0605C26.0608 28.4748 26.0608 27.5252 26.6465 26.9395L30.9395 22.6465Z" fill="oklch(0.3523 0 0 / 1)" class="wd-expressive-fill"></path>
<path d="M43.3535 22.6465C43.5488 22.4517 43.8654 22.4514 44.0605 22.6465L48.3535 26.9395C48.9391 27.5251 48.9388 28.4747 48.3535 29.0605L44.0605 33.3535C43.8653 33.5487 43.5488 33.5486 43.3535 33.3535L42.6465 32.6465C42.4512 32.4512 42.4513 32.1347 42.6465 31.9395L46.5859 28L42.6465 24.0605C42.4512 23.8653 42.4513 23.5488 42.6465 23.3535L43.3535 22.6465Z" fill="oklch(0.3523 0 0 / 1)" class="wd-expressive-fill"></path>
<path d="M12.5 30C12.7761 30 13 30.2239 13 30.5V31.5C13 31.7761 12.7761 32 12.5 32H7.5C7.22386 32 7 31.7761 7 31.5V30.5C7 30.2239 7.22386 30 7.5 30H12.5Z" fill="oklch(0.3523 0 0 / 1)" class="wd-expressive-fill"></path>
<path d="M20.5 30C20.7761 30 21 30.2239 21 30.5V31.5C21 31.7761 20.7761 32 20.5 32H15.5C15.2239 32 15 31.7761 15 31.5V30.5C15 30.2239 15.2239 30 15.5 30H20.5Z" fill="oklch(0.3523 0 0 / 1)" class="wd-expressive-fill"></path>
<path d="M22.5 26C22.7761 26 23 26.2239 23 26.5V27.5C23 27.7761 22.7761 28 22.5 28H11.5C11.2239 28 11 27.7761 11 27.5V26.5C11 26.2239 11.2239 26 11.5 26H22.5Z" fill="oklch(0.3523 0 0 / 1)" class="wd-expressive-fill"></path>
<path d="M19.5 22C19.7761 22 20 22.2239 20 22.5V23.5C20 23.7761 19.7761 24 19.5 24H7.5C7.22386 24 7 23.7761 7 23.5V22.5C7 22.2239 7.22386 22 7.5 22H19.5Z" fill="oklch(0.3523 0 0 / 1)" class="wd-expressive-fill"></path>
</g>
</svg>