<svg role="presentation" width="56" height="56" viewBox="0 0 56 56" xmlns="http://www.w3.org/2000/svg" class="wd-expressive wd-expressive-gavel">
<g>
<path d="M5 48.9277C5.00018 47.2934 7.07515 45.9643 8.65137 46.3965C12.7203 47.5121 20.8792 48.9043 36.3848 48.9951C37.2688 49.0003 37.9999 49.7166 38 50.6006C38 50.8215 37.8214 51.0008 37.6006 51.001H5.5C5.22403 51.0008 5 50.777 5 50.501V48.9277Z" fill="oklch(0.3057 0.079 256.22 / 0.13)" class="wd-expressive-accent"></path>
<path d="M29.3643 41.001C31.3724 41.0011 33 42.6295 33 44.6377C32.9998 44.8384 32.8374 45.001 32.6367 45.001H10.3643C10.1635 45.001 10.0002 44.8384 10 44.6377C10 42.6294 11.6284 41.001 13.6367 41.001H29.3643Z" fill="oklch(0.3057 0.079 256.22 / 0.13)" class="wd-expressive-accent"></path>
<path d="M34.415 20.0029C34.7899 20.378 35 20.8867 35 21.417V22.0029C40.7613 27.7642 47.0211 32.609 50.5566 36.1445C51.9592 37.5471 54.2024 40.9841 52.3242 42.8623C50.4462 44.7402 47.0101 42.4973 45.6074 41.0947C42.0719 37.5592 37.2263 31.2995 31.4648 25.5381H30.8789C30.3485 25.538 29.8399 25.3272 29.4648 24.9521L28.1064 23.5938L33.0557 18.6436L34.415 20.0029Z" fill="oklch(0.3057 0.079 256.22 / 0.13)" class="wd-expressive-accent"></path>
<path d="M24.3936 25.5391L23.6865 26.2461L24.3936 28.3672L21.5645 31.1953L11.665 21.2959L14.4941 18.4678L16.6152 19.1748L17.3223 18.4678L24.3936 25.5391Z" fill="oklch(0.3057 0.079 256.22 / 0.13)" class="wd-expressive-accent"></path>
<path d="M33.8076 15.1533L35.2314 15.6279L35.707 17.0537C35.666 17.0676 33.5548 17.792 30.4043 20.9424C27.2397 24.1071 26.5223 26.2234 26.5146 26.2461L25.0898 25.7705L24.6152 24.3457C24.6131 24.3226 24.4011 21.975 27.9189 18.457C31.422 14.954 33.765 15.1494 33.8076 15.1533Z" fill="oklch(0.3057 0.079 256.22 / 0.13)" class="wd-expressive-accent"></path>
<path d="M40.6572 12.1035L37.8281 14.9316L35.707 14.2246L35 14.9316L27.9287 7.86035L28.6357 7.15332L27.9287 5.03223L30.7568 2.2041L40.6572 12.1035Z" fill="oklch(0.3057 0.079 256.22 / 0.13)" class="wd-expressive-accent"></path>
</g>
<g>
<path d="M29.2568 40.0076C31.5843 40.1254 33.4908 41.8349 33.9121 44.0691C36.7929 44.5084 38.9998 46.9973 39 50.0008V50.5008C39 51.3292 38.3284 52.0008 37.5 52.0008H5.5C4.67157 52.0008 4 51.3292 4 50.5008V50.0008C4.00018 46.9973 6.20711 44.5084 9.08789 44.0691C9.52462 41.7532 11.5572 40.0008 14 40.0008H29L29.2568 40.0076ZM10 46.0008C7.79099 46.0008 6.0002 47.7918 6 50.0008H37C36.9998 47.7918 35.209 46.0008 33 46.0008H10ZM13.8457 42.0047C12.6073 42.0674 11.5697 42.8824 11.1738 44.0008H31.8262C31.4303 42.8824 30.3927 42.0674 29.1543 42.0047L29 42.0008H14L13.8457 42.0047Z" fill="oklch(0.3523 0 0 / 1)" class="wd-expressive-fill"></path>
<path d="M28.6357 2.91091C29.8073 1.73933 31.7073 1.73933 32.8789 2.91091L39.9502 9.9822C41.1213 11.1537 41.1214 13.0529 39.9502 14.2244L39.3262 14.8484C38.5738 15.6006 37.4605 15.8635 36.4512 15.5271L36.3398 15.489C36.2808 15.4693 36.2196 15.4602 36.1592 15.4588C36.3142 16.7803 35.5986 18.0573 34.5908 18.7644L35.1211 19.2957C35.6835 19.8582 35.9999 20.6213 36 21.4168L35.999 21.5847C38.7644 24.3275 41.6367 26.8626 44.2695 29.1541C46.9793 31.5125 49.4645 33.6381 51.2637 35.4373C52.0388 36.2124 53.0382 37.5341 53.6006 38.9578C54.1492 40.3466 54.403 42.1972 53.0312 43.5691C51.6593 44.941 49.8087 44.687 48.4199 44.1384C46.9962 43.5761 45.6745 42.5766 44.8994 41.8015C43.1002 40.0024 40.9737 37.5172 38.6152 34.8074C36.3239 32.1747 33.7895 29.3021 31.0469 26.5369L30.8789 26.5379C30.0835 26.5379 29.3204 26.2222 28.7578 25.6599L28.2266 25.1287C27.5194 26.1368 26.2418 26.8533 24.9199 26.698C24.9215 26.7581 24.9316 26.8189 24.9512 26.8777L24.9883 26.99C25.3246 27.9993 25.0618 29.1117 24.3096 29.864L23.6865 30.4881C22.5149 31.6596 20.6149 31.6596 19.4434 30.4881L12.373 23.4168C11.2015 22.2452 11.2015 20.3462 12.373 19.1746L12.9121 18.6345C13.7155 17.8311 14.9045 17.5498 15.9824 17.909L16.2207 17.9881C16.1857 17.4034 16.3118 16.8305 16.5264 16.3269C16.838 15.5956 17.3677 14.9353 18.0195 14.4871C18.8032 13.9482 19.8671 13.0936 21.2109 11.7498C22.5551 10.4056 23.4103 9.34111 23.9492 8.55739C24.3975 7.90545 25.0577 7.37589 25.7891 7.06423C26.2924 6.84977 26.8648 6.72464 27.4492 6.75954L27.3711 6.52126C27.0119 5.44341 27.2924 4.25441 28.0957 3.45095L28.6357 2.91091ZM32.9619 19.9646C32.4046 20.421 31.7841 20.9764 31.1113 21.6492C30.4384 22.3222 29.8832 22.9433 29.4268 23.5007L30.1719 24.2459C30.3594 24.4331 30.6139 24.5379 30.8789 24.5379H31.4648C31.7299 24.538 31.9844 24.6434 32.1719 24.8308C35.079 27.7379 37.7502 30.7663 40.125 33.4949C42.5131 36.2388 44.5772 38.6512 46.3135 40.3875C46.9409 41.0149 48.0395 41.8377 49.1543 42.2781C50.304 42.7323 51.111 42.6612 51.6172 42.155C52.1232 41.6489 52.1941 40.8425 51.7402 39.6931C51.2999 38.5785 50.477 37.4798 49.8496 36.8523C48.1133 35.116 45.7 33.0511 42.9561 30.6629C40.2276 28.2881 37.1999 25.6167 34.293 22.7097C34.1055 22.5222 34 22.2679 34 22.0027V21.4168C33.9999 21.1517 33.8944 20.8972 33.707 20.7097L32.9619 19.9646ZM15.3506 19.8064C14.9913 19.6867 14.595 19.7809 14.3271 20.0486L13.7871 20.5886C13.3966 20.9792 13.3966 21.6122 13.7871 22.0027L20.8574 29.074C21.2479 29.4645 21.8819 29.4645 22.2725 29.074L22.8955 28.45C23.1122 28.2333 23.1877 27.9125 23.0908 27.6218L23.0537 27.5105C22.8507 26.9015 22.8827 26.2521 23.1201 25.6795L17.3223 19.8806C17.0544 20.1483 16.6581 20.2426 16.2988 20.1228L15.3506 19.8064ZM27.4209 8.76638C27.1755 8.73268 26.8843 8.7716 26.5732 8.90407C26.1768 9.07306 25.8211 9.36293 25.5967 9.68923C24.9784 10.5885 24.0429 11.7469 22.626 13.1638C21.209 14.5808 20.0506 15.5172 19.1514 16.1355C18.8251 16.3599 18.5342 16.7147 18.3652 17.1111C18.233 17.4216 18.1942 17.7126 18.2275 17.9578L24.9336 24.6638L25.0342 24.6912C25.5512 24.804 26.2336 24.5318 26.6201 23.9402C27.2499 22.9762 28.2225 21.709 29.6963 20.2351C31.1704 18.761 32.4382 17.7878 33.4023 17.158C33.9936 16.7716 34.2658 16.0899 34.1533 15.573L34.126 15.4715L27.4209 8.76638ZM31.4648 4.32497C31.0743 3.93444 30.4403 3.93444 30.0498 4.32497L29.5098 4.86501C29.2422 5.13281 29.1489 5.52926 29.2686 5.88845L29.585 6.83669C29.7047 7.19602 29.6106 7.59229 29.3428 7.86013L35.1406 13.658C35.7132 13.4204 36.3626 13.3887 36.9717 13.5916L37.084 13.6297C37.3747 13.7265 37.6955 13.65 37.9121 13.4334L38.5352 12.8103C38.9257 12.4198 38.9257 11.7868 38.5352 11.3963L31.4648 4.32497Z" fill="oklch(0.3523 0 0 / 1)" class="wd-expressive-fill"></path>
</g>
</svg>