<svg role="presentation" width="56" height="56" viewBox="0 0 56 56" xmlns="http://www.w3.org/2000/svg" class="wd-expressive wd-expressive-lightbulb-bright">
<g>
<path d="M20.4302 15.4312C18.9009 17.5631 18.0006 20.1767 18.0006 23.0005C18.0006 26.0539 19.0535 28.8615 20.816 31.0797C22.9057 33.7095 25.0006 36.6416 25.0006 40.0005C25.0008 41.1049 25.8961 42.0005 27.0006 42.0005H33.0006C33.4112 42.0005 33.7924 41.875 34.1099 41.6627C34.0387 42.1009 34.0006 42.547 34.0006 43.0005C34.0003 44.1048 33.1048 45.0003 32.0006 45.0005H24.5006C24.5195 45.0506 26.0385 49.0005 32.0006 49.0005V49.4722C30.9391 50.4222 29.5371 51.0004 28.0006 51.0005C26.4639 51.0005 25.062 50.4222 24.0006 49.4722V45.0005C22.8961 45.0005 22.0008 44.1049 22.0006 43.0005C22.0006 39.6416 19.9057 36.7095 17.816 34.0797C16.0535 31.8615 15.0006 29.0539 15.0006 26.0005C15.0006 21.6452 17.1425 17.7903 20.4302 15.4312Z" fill="oklch(0.3057 0.079 256.22 / 0.13)" class="wd-expressive-accent"></path>
<path d="M41.7808 39.0826C41.976 38.8874 42.2926 38.8875 42.4879 39.0826L45.317 41.9107C45.5121 42.1059 45.5119 42.4225 45.317 42.6177L44.6099 43.3248C44.4147 43.5199 44.0981 43.5198 43.9029 43.3248L41.0748 40.4966C40.8795 40.3014 40.8795 39.9839 41.0748 39.7886L41.7808 39.0826Z" fill="oklch(0.3057 0.079 256.22 / 0.13)" class="wd-expressive-accent"></path>
<path d="M13.5006 39.0718C13.6957 38.8768 14.0123 38.877 14.2076 39.0718L14.9156 39.7798C15.1106 39.9751 15.1108 40.2917 14.9156 40.4869L12.0875 43.315C11.8922 43.5103 11.5747 43.5102 11.3795 43.315L10.6724 42.608C10.4772 42.4128 10.4773 42.0962 10.6724 41.9009L13.5006 39.0718Z" fill="oklch(0.3057 0.079 256.22 / 0.13)" class="wd-expressive-accent"></path>
<path d="M46.1226 29.8248L49.0211 30.6011C49.2875 30.6726 49.4457 30.9469 49.3746 31.2134L49.1158 32.1802C49.0442 32.4466 48.77 32.6049 48.5035 32.5338L45.605 31.7574C45.3384 31.6858 45.1801 31.4108 45.2515 31.1441L45.5103 30.1783C45.5818 29.9118 45.8561 29.7536 46.1226 29.8248Z" fill="oklch(0.3057 0.079 256.22 / 0.13)" class="wd-expressive-accent"></path>
<path d="M9.87164 29.815C10.1383 29.7437 10.4125 29.9019 10.4839 30.1685L10.7427 31.1343C10.814 31.4009 10.6558 31.6752 10.3892 31.7466L7.49078 32.523C7.22418 32.5944 6.95009 32.436 6.87848 32.1695L6.61969 31.2037C6.54826 30.9369 6.70647 30.6628 6.97321 30.5914L9.87164 29.815Z" fill="oklch(0.3057 0.079 256.22 / 0.13)" class="wd-expressive-accent"></path>
<path d="M7.49371 19.4634L10.3912 20.2398C10.6579 20.3113 10.8162 20.5854 10.7447 20.8521L10.4859 21.8179C10.4144 22.0847 10.1403 22.2429 9.8736 22.1714L6.97614 21.3951C6.70941 21.3236 6.55116 21.0495 6.62262 20.7828L6.88141 19.817C6.95288 19.5502 7.22698 19.392 7.49371 19.4634Z" fill="oklch(0.3057 0.079 256.22 / 0.13)" class="wd-expressive-accent"></path>
<path d="M48.5025 19.4625C48.7693 19.391 49.0434 19.5502 49.1148 19.817L49.3736 20.7828C49.445 21.0495 49.2868 21.3236 49.0201 21.3951L46.1226 22.1714C45.8559 22.2428 45.5818 22.0846 45.5103 21.8179L45.2515 20.8521C45.1801 20.5855 45.3385 20.3114 45.605 20.2398L48.5025 19.4625Z" fill="oklch(0.3057 0.079 256.22 / 0.13)" class="wd-expressive-accent"></path>
<path d="M12.8004 10.0865C12.9955 9.89132 13.3121 9.89062 13.5074 10.0855L15.6295 12.2076C15.8247 12.4028 15.8247 12.7193 15.6295 12.9146L14.9224 13.6216C14.7272 13.8169 14.4107 13.8169 14.2154 13.6216L12.0933 11.5005C11.8981 11.3053 11.8981 10.9888 12.0933 10.7935L12.8004 10.0865Z" fill="oklch(0.3057 0.079 256.22 / 0.13)" class="wd-expressive-accent"></path>
<path d="M42.4888 10.0845C42.6841 9.88926 43.0016 9.88923 43.1968 10.0845L43.9029 10.7916C44.0981 10.9868 44.0981 11.3034 43.9029 11.4986L41.7818 13.6197C41.5866 13.8148 41.27 13.8148 41.0748 13.6197L40.3677 12.9127C40.1727 12.7174 40.1727 12.4009 40.3677 12.2056L42.4888 10.0845Z" fill="oklch(0.3057 0.079 256.22 / 0.13)" class="wd-expressive-accent"></path>
<path d="M33.2134 4.62457L34.1793 4.88336C34.446 4.95485 34.6042 5.22895 34.5328 5.49567L33.7564 8.39313C33.6849 8.65983 33.4108 8.81808 33.1441 8.74664L32.1783 8.48785C31.9116 8.41639 31.7533 8.14227 31.8248 7.87555L32.6011 4.97809C32.6726 4.71136 32.9467 4.5531 33.2134 4.62457Z" fill="oklch(0.3057 0.079 256.22 / 0.13)" class="wd-expressive-accent"></path>
<path d="M22.7828 4.62262C23.0494 4.55117 23.3235 4.70951 23.3951 4.97614L24.1714 7.8736C24.2429 8.1403 24.0846 8.4144 23.8179 8.4859L22.8531 8.74469C22.5863 8.81621 22.3123 8.65793 22.2408 8.39118L21.4634 5.49371C21.3922 5.22722 21.5506 4.95302 21.817 4.88141L22.7828 4.62262Z" fill="oklch(0.3057 0.079 256.22 / 0.13)" class="wd-expressive-accent"></path>
</g>
<g>
<path d="M28 12C35.7318 12.0003 42 18.2682 42 26C42 29.8975 40.4061 33.425 37.8369 35.9619C35.7093 38.0627 34 40.407 34 43L33.9961 43.1543C33.9543 43.9794 33.5765 44.7142 33 45.2314V48.5781C33 49.3971 32.6633 50.3121 31.8418 50.8525C30.7386 51.5779 29.4167 51.9999 28 52C26.5832 52 25.2614 51.5779 24.1582 50.8525C23.3365 50.3121 23 49.3972 23 48.5781V45.2324C22.3872 44.6831 22 43.8877 22 43C22 40.4071 20.2906 38.0617 18.1631 35.9609C15.594 33.424 14 29.8974 14 26C14 18.268 20.2681 12 28 12ZM25 48.5781C25 48.8966 25.1281 49.0968 25.2568 49.1816C26.0438 49.699 26.9856 50 28 50C29.0144 49.9999 29.9563 49.6991 30.7432 49.1816C30.8718 49.0967 31 48.8964 31 48.5781V46H25V48.5781ZM23.9365 42C23.9777 42.3274 24 42.6608 24 43L24.0049 43.1025C24.0562 43.6067 24.4823 44 25 44H31L31.1025 43.9951C31.5727 43.947 31.9472 43.5728 31.9951 43.1025L32 43C32 42.6608 32.0214 42.3274 32.0625 42H23.9365ZM28 14C21.3726 14 16 19.3726 16 26C16 29.341 17.3641 32.3615 19.5684 34.5381C21.0809 36.0316 22.6272 37.8629 23.4326 40H27V29.9482C25.0082 29.7503 23.1867 28.9698 21.7129 27.7773C21.4984 27.6037 21.482 27.2868 21.666 27.0811L22.333 26.3359C22.5172 26.1302 22.832 26.1141 23.0488 26.2852C24.4109 27.3598 26.1294 27.9999 27.999 28C29.8689 28 31.588 27.3598 32.9502 26.2852C33.167 26.1142 33.4819 26.1302 33.666 26.3359L34.333 27.0811C34.5169 27.2867 34.5005 27.6037 34.2861 27.7773C32.8126 28.9696 30.9913 29.7501 29 29.9482V40H32.5664C33.3718 37.8628 34.919 36.0316 36.4316 34.5381C38.6357 32.3615 40 29.3409 40 26C40 19.3728 34.6272 14.0003 28 14Z" fill="oklch(0.3523 0 0 / 1)" class="wd-expressive-fill"></path>
<path d="M17.3945 42.3916C17.5326 42.1525 17.838 42.0701 18.0771 42.208L18.9434 42.708C19.1825 42.8461 19.265 43.1525 19.127 43.3916L17.127 46.8555C16.9889 47.0946 16.6825 47.1771 16.4434 47.0391L15.5771 46.5381C15.3382 46.3999 15.2565 46.0945 15.3945 45.8555L17.3945 42.3916Z" fill="oklch(0.3523 0 0 / 1)" class="wd-expressive-fill"></path>
<path d="M37.9404 42.2012C38.1796 42.0631 38.486 42.1456 38.624 42.3848L40.624 45.8486C40.762 46.0878 40.6795 46.3932 40.4404 46.5312L39.5742 47.0322C39.3351 47.1701 39.0296 47.0876 38.8916 46.8486L36.8916 43.3848C36.7535 43.1456 36.835 42.8392 37.0742 42.7012L37.9404 42.2012Z" fill="oklch(0.3523 0 0 / 1)" class="wd-expressive-fill"></path>
<path d="M11.4873 34.3887C11.7265 34.2506 12.0328 34.3331 12.1709 34.5723L12.6709 35.4385C12.8089 35.6776 12.7264 35.983 12.4873 36.1211L8.15723 38.6211C7.91811 38.7591 7.6127 38.6775 7.47461 38.4385L6.97461 37.5723C6.83657 37.3331 6.91809 37.0267 7.15723 36.8887L11.4873 34.3887Z" fill="oklch(0.3523 0 0 / 1)" class="wd-expressive-fill"></path>
<path d="M43.8428 34.5635C43.9808 34.3245 44.2863 34.2421 44.5254 34.3799L48.8555 36.8799C49.0946 37.0179 49.1771 37.3243 49.0391 37.5635L48.5391 38.4297C48.401 38.6689 48.0946 38.7504 47.8555 38.6123L43.5254 36.1123C43.2864 35.9742 43.2048 35.6688 43.3428 35.4297L43.8428 34.5635Z" fill="oklch(0.3523 0 0 / 1)" class="wd-expressive-fill"></path>
<path d="M9.5 25C9.77585 25.0002 9.99976 25.2242 10 25.5V26.5C10 26.776 9.776 26.9998 9.5 27H4.5C4.22386 27 4 26.7761 4 26.5V25.5C4.00024 25.2241 4.22401 25 4.5 25H9.5Z" fill="oklch(0.3523 0 0 / 1)" class="wd-expressive-fill"></path>
<path d="M51.5 25C51.7759 25.0002 51.9998 25.2242 52 25.5V26.5C52 26.776 51.776 26.9998 51.5 27H46.5C46.2239 27 46 26.7761 46 26.5V25.5C46.0002 25.2241 46.224 25 46.5 25H51.5Z" fill="oklch(0.3523 0 0 / 1)" class="wd-expressive-fill"></path>
<path d="M7.46973 13.5742C7.60774 13.3352 7.91325 13.2528 8.15234 13.3906L12.4824 15.8906C12.7216 16.0287 12.8041 16.3351 12.666 16.5742L12.166 17.4404C12.028 17.6796 11.7216 17.7611 11.4824 17.623L7.15234 15.123C6.91338 14.9849 6.83173 14.6795 6.96973 14.4404L7.46973 13.5742Z" fill="oklch(0.3523 0 0 / 1)" class="wd-expressive-fill"></path>
<path d="M47.8506 13.3828C48.0897 13.2448 48.3961 13.3272 48.5342 13.5664L49.0342 14.4326C49.1722 14.6718 49.0897 14.9772 48.8506 15.1152L44.5205 17.6152C44.2814 17.7533 43.976 17.6717 43.8379 17.4326L43.3379 16.5664C43.1998 16.3273 43.2814 16.0209 43.5205 15.8828L47.8506 13.3828Z" fill="oklch(0.3523 0 0 / 1)" class="wd-expressive-fill"></path>
<path d="M16.4336 4.97266C16.6727 4.83453 16.9791 4.9161 17.1172 5.15527L19.6172 9.48535C19.7552 9.72447 19.6727 10.0299 19.4336 10.168L18.5684 10.668C18.3293 10.8061 18.0239 10.7244 17.8857 10.4854L15.3857 6.15527C15.2477 5.91615 15.3293 5.60977 15.5684 5.47168L16.4336 4.97266Z" fill="oklch(0.3523 0 0 / 1)" class="wd-expressive-fill"></path>
<path d="M38.8828 5.15137C39.0208 4.91232 39.3263 4.82989 39.5654 4.96777L40.4316 5.46777C40.6708 5.60582 40.7533 5.91222 40.6152 6.15137L38.1152 10.4805C37.9772 10.7196 37.6708 10.8021 37.4316 10.6641L36.5654 10.1631C36.3265 10.0249 36.2448 9.71952 36.3828 9.48047L38.8828 5.15137Z" fill="oklch(0.3523 0 0 / 1)" class="wd-expressive-fill"></path>
<path d="M28.5 2C28.7759 2.00016 28.9998 2.22416 29 2.5V7.5C29 7.77604 28.776 7.99984 28.5 8H27.5C27.2239 8 27 7.77614 27 7.5V2.5C27.0002 2.22406 27.224 2 27.5 2H28.5Z" fill="oklch(0.3523 0 0 / 1)" class="wd-expressive-fill"></path>
</g>
</svg>