<svg role="presentation" width="56" height="56" viewBox="0 0 56 56" xmlns="http://www.w3.org/2000/svg" class="wd-expressive wd-expressive-handshake">
<g>
<path d="M23.0093 40.3887C23.9985 40.4927 24.9601 40.9235 25.7182 41.6816C26.4763 42.4398 26.9072 43.4015 27.0112 44.3906C27.026 44.532 26.9711 44.671 26.8706 44.7715L24.5649 47.0771C24.4644 47.1777 24.3255 47.2326 24.1841 47.2178C23.1948 47.1138 22.2332 46.682 21.4751 45.9238C20.7172 45.1658 20.2862 44.2048 20.1821 43.2158C20.1672 43.0744 20.2222 42.9355 20.3227 42.835L22.6284 40.5283C22.729 40.4278 22.8679 40.3738 23.0093 40.3887Z" fill="oklch(0.3057 0.079 256.22 / 0.13)" class="wd-expressive-accent"></path>
<path d="M19.4741 35.4385C20.463 35.5425 21.4241 35.9736 22.1821 36.7314C22.9402 37.4896 23.372 38.4512 23.4761 39.4404C23.4909 39.5818 23.436 39.7207 23.3354 39.8213L19.6147 43.542C19.5142 43.6423 19.3752 43.6965 19.2339 43.6816C18.2449 43.5776 17.2839 43.1466 16.5259 42.3887C15.7677 41.6305 15.3359 40.6689 15.2319 39.6797C15.2171 39.5383 15.272 39.3993 15.3725 39.2988L19.0932 35.5791C19.1938 35.4786 19.3327 35.4236 19.4741 35.4385Z" fill="oklch(0.3057 0.079 256.22 / 0.13)" class="wd-expressive-accent"></path>
<path d="M15.938 30.4893C16.9272 30.5933 17.8888 31.0241 18.647 31.7822C19.405 32.5404 19.8359 33.502 19.9399 34.4912C19.9547 34.6325 19.9008 34.7716 19.8003 34.8721L15.3725 39.2988C15.272 39.3994 15.1331 39.4543 14.9917 39.4395C14.0025 39.3355 13.0408 38.9046 12.2827 38.1465C11.5246 37.3884 11.0938 36.4267 10.9897 35.4375C10.9749 35.2961 11.0298 35.1572 11.1304 35.0566L15.5571 30.6289C15.6577 30.5284 15.7966 30.4744 15.938 30.4893Z" fill="oklch(0.3057 0.079 256.22 / 0.13)" class="wd-expressive-accent"></path>
<path d="M10.2817 27.6602C11.2708 27.7642 12.2317 28.1961 12.9897 28.9541C13.7478 29.7122 14.1796 30.673 14.2837 31.6621C14.2985 31.8035 14.2435 31.9424 14.143 32.043L11.8374 34.3496C11.7369 34.4501 11.5979 34.504 11.4565 34.4893C10.4673 34.3853 9.50568 33.9544 8.74754 33.1963C7.98938 32.4381 7.55856 31.4766 7.45457 30.4873C7.43976 30.3459 7.49369 30.207 7.59422 30.1064L9.90086 27.8008C10.0014 27.7003 10.1403 27.6453 10.2817 27.6602Z" fill="oklch(0.3057 0.079 256.22 / 0.13)" class="wd-expressive-accent"></path>
<path d="M53.0005 27.6094C53.0005 27.8388 52.8441 28.0391 52.6216 28.0947L50.3442 28.6641C49.4652 28.8839 48.6617 29.3388 48.021 29.9795L46.354 31.6465C46.1587 31.8416 45.8422 31.8417 45.647 31.6465L38.0591 24.0586C36.0349 24.4261 33.8717 23.8587 32.2632 22.3467C32.1166 22.2091 31.8869 22.2125 31.7446 22.3545L28.0913 26C26.8434 27.1533 25.1745 27.8584 23.3413 27.8584C21.6949 27.8584 20.1812 27.2891 18.9858 26.3379C18.764 26.1611 18.7588 25.8325 18.9595 25.6318L29.7651 14.8252C30.91 13.6802 32.5379 13.162 34.144 13.3672C36.3766 13.6524 39.7597 14 43.0005 14C48.5004 14 53.0005 13 53.0005 13V27.6094Z" fill="oklch(0.3057 0.079 256.22 / 0.13)" class="wd-expressive-accent"></path>
</g>
<path d="M52.3128 12.1164C52.5839 12.0649 52.846 12.2396 52.9007 12.51L53.098 13.4914C53.1522 13.762 52.9775 14.0257 52.7064 14.0774C51.2313 14.3587 47.4546 15.0012 42.9993 15.0012H42.9769C42.9729 15.0011 42.9666 15.0004 42.9593 15.0002C42.9512 15.0001 42.941 14.9994 42.929 14.9993C39.6487 14.9943 36.25 14.645 34.0159 14.3596C32.7001 14.1916 31.385 14.6184 30.471 15.5325L20.098 25.9055C21.0328 26.5075 22.1445 26.8585 23.3401 26.8586C24.9079 26.8586 26.3331 26.2574 27.4026 25.2727L31.0374 21.6467C31.5617 21.1236 32.4067 21.1116 32.9466 21.6184C35.1925 23.7294 38.7094 23.6747 40.889 21.4953L43.0921 19.2932L44.5062 20.7073L42.304 22.9094C41.6209 23.5924 40.8406 24.1203 40.0071 24.4934L46.0491 30.5354L47.3138 29.2727C48.0825 28.504 49.0462 27.9583 50.1009 27.6946L52.2728 27.1516C52.5406 27.0847 52.8122 27.2471 52.8792 27.5149L53.1214 28.4846C53.1883 28.7524 53.0249 29.024 52.7571 29.091L50.5862 29.635C49.8832 29.8108 49.2403 30.1743 48.7278 30.6868L47.4632 31.9494L47.513 31.9993C47.8075 32.2938 47.9897 32.7242 47.9407 33.1916C47.8137 34.4004 47.2855 35.5772 46.3597 36.5032C45.7836 37.0792 45.1101 37.4997 44.3929 37.7668C44.4118 37.8875 44.418 38.0126 44.4046 38.1409C44.2775 39.3496 43.7505 40.5274 42.8245 41.4534C42.0422 42.2356 41.0806 42.7314 40.0726 42.9436C39.8604 43.9521 39.3646 44.9142 38.5823 45.6965C37.6564 46.6225 36.4786 47.1495 35.2698 47.2766C34.8024 47.3256 34.372 47.1434 34.0775 46.8489L33.2796 46.051C33.0124 46.6609 32.6308 47.233 32.1321 47.7317C31.2062 48.6576 30.0294 49.1847 28.8206 49.3118C28.3532 49.3609 27.9229 49.1794 27.6282 48.885L25.8987 47.1555L25.2708 47.7844C24.9762 48.0789 24.5459 48.2613 24.0784 48.2121C22.8698 48.085 21.6937 47.5569 20.7679 46.6311C20.1919 46.0551 19.7694 45.3826 19.5023 44.6653C19.3819 44.684 19.2571 44.6904 19.1292 44.677C17.9205 44.5499 16.7436 44.0218 15.8177 43.0959C15.0355 42.3137 14.5388 41.3523 14.3265 40.344C13.3186 40.1316 12.3575 39.6356 11.5755 38.8537C10.6496 37.9278 10.1216 36.7509 9.99445 35.5422C9.98093 35.4137 9.98621 35.2881 10.0052 35.1672C9.28824 34.9 8.61506 34.4792 8.03937 33.9035C7.19749 33.0616 6.68581 32.0123 6.50421 30.9201L6.12628 30.5422C5.68726 30.1033 5.15177 29.7718 4.56281 29.5754L3.15753 29.1067C2.89567 29.0193 2.75398 28.7367 2.84113 28.4748L3.15753 27.5266C3.2449 27.2648 3.52846 27.123 3.79034 27.2102L5.19562 27.678C5.99314 27.9438 6.72386 28.3759 7.34308 28.9416L9.19269 27.094C9.48727 26.7995 9.91767 26.6172 10.3851 26.6662C11.5937 26.7934 12.7707 27.3205 13.6966 28.2463C14.1952 28.7449 14.5768 29.3172 14.8441 29.927L14.8499 29.9221C15.1446 29.6276 15.5748 29.4452 16.0423 29.4944C17.2509 29.6215 18.427 30.1496 19.3528 31.0754C20.2787 32.0013 20.8067 33.1774 20.9339 34.386C20.9474 34.5141 20.941 34.6394 20.9222 34.76C21.6396 35.0272 22.3129 35.4486 22.889 36.0246C23.8149 36.9505 24.3419 38.1275 24.4691 39.3362C24.4825 39.4644 24.4772 39.5896 24.4583 39.7102C25.1755 39.9774 25.8483 40.399 26.4241 40.9748C27.35 41.9007 27.878 43.0768 28.0052 44.2854C28.0543 44.7529 27.872 45.1841 27.5775 45.4787L27.3138 45.7414L28.8587 47.2864C29.5395 47.1654 30.1904 46.8442 30.7171 46.3176C31.244 45.7907 31.5659 45.1393 31.6868 44.4582L28.5706 41.342C28.3758 41.1468 28.3756 40.8301 28.5706 40.635L29.2786 39.928C29.4739 39.733 29.7905 39.7328 29.9857 39.928L35.3079 45.2512C35.989 45.1303 36.6414 44.8093 37.1683 44.2825C37.6951 43.7556 38.0161 43.1032 38.137 42.4221L32.7952 37.0813C32.6004 36.886 32.6002 36.5694 32.7952 36.3743L33.5032 35.6672C33.6985 35.4723 34.0151 35.4721 34.2103 35.6672L39.5491 41.0061C40.2309 40.8855 40.8835 40.5662 41.4105 40.0393C41.9374 39.5124 42.2583 38.8601 42.3792 38.1789L36.3314 32.1311C36.1363 31.9358 36.1362 31.6193 36.3314 31.4241L37.0384 30.717C37.2336 30.5219 37.5502 30.522 37.7454 30.717L43.0843 36.0559C43.7661 35.9352 44.4186 35.6161 44.9456 35.0891C45.4724 34.5622 45.7945 33.9107 45.9153 33.2297L37.7913 25.1067C35.7871 25.3502 33.7032 24.8093 32.0384 23.4729L28.7962 26.7082L28.7825 26.7209L28.7689 26.7346C27.3435 28.0518 25.4346 28.8586 23.3401 28.8586C21.4598 28.8585 19.7275 28.2082 18.3616 27.1213C17.6338 26.5416 17.6643 25.5115 18.2503 24.925L26.5579 16.6164L24.5618 15.2317C23.5346 14.5192 22.1758 14.2844 20.8304 14.4885C20.2097 14.5826 19.4727 14.6753 18.6146 14.7561C18.612 14.7564 18.6094 14.7578 18.6068 14.758C18.5931 14.7593 18.5794 14.7597 18.5657 14.761C18.2438 14.7909 17.905 14.8182 17.5491 14.844C17.2531 14.8654 16.9452 14.8858 16.6253 14.9035C16.5896 14.9055 16.5538 14.9075 16.5179 14.9094C15.8605 14.9446 15.1532 14.9707 14.3948 14.9856C14.3166 14.9871 14.2378 14.9892 14.1585 14.9905C13.7844 14.9965 13.3979 15.0012 12.9993 15.0012C7.44836 15.0012 4.97854 14.4999 3.25128 14.0901C2.98264 14.0263 2.81758 13.756 2.88214 13.4875L3.11652 12.5139C3.1813 12.2456 3.45149 12.0809 3.72003 12.1448C5.22649 12.5029 7.36656 12.9419 12.0325 12.9953L12.9993 13.0012C16.4553 13.0012 18.9324 12.7534 20.5306 12.511C22.2662 12.2477 24.1681 12.5246 25.7015 13.5881L27.9954 15.1789L29.0569 14.1184C30.4324 12.7429 32.373 12.1342 34.2689 12.3762C35.9137 12.5864 38.1773 12.828 40.5355 12.9387C40.5415 12.9387 40.5479 12.9375 40.554 12.9377C40.9711 12.9537 41.4587 12.9673 41.8939 12.9778C42.2049 12.9852 42.4859 12.9914 42.6888 12.9953C42.7376 12.9963 42.7824 12.9965 42.8216 12.9973C42.8809 12.9975 42.9401 13.0002 42.9993 13.0002C47.2603 13.0002 50.8839 12.3882 52.3128 12.1164ZM23.1517 41.4182L21.2122 43.3586C21.3332 44.0395 21.6552 44.6903 22.1819 45.217C22.7087 45.7437 23.3595 46.0658 24.0403 46.1868L25.9808 44.2473C25.8597 43.5665 25.5367 42.9156 25.0101 42.3889C24.4834 41.8623 23.8324 41.5392 23.1517 41.4182ZM16.262 39.8225C16.383 40.5034 16.705 41.1551 17.2318 41.6819C17.7586 42.2087 18.4101 42.5306 19.0911 42.6516L22.4446 39.2971C22.3236 38.6164 22.0015 37.9653 21.4749 37.4387C20.9483 36.9121 20.2972 36.59 19.6165 36.469L16.262 39.8225ZM12.0198 35.5803C12.1408 36.2612 12.4628 36.9119 12.9896 37.4387C13.5163 37.9654 14.1671 38.2874 14.848 38.4084L18.9095 34.3479C18.7885 33.6671 18.4654 33.0161 17.9388 32.4895C17.4122 31.963 16.762 31.6399 16.0814 31.5188L12.0198 35.5803ZM8.48468 30.6301C8.60562 31.311 8.92671 31.9627 9.45343 32.4895C9.98024 33.0163 10.6318 33.3383 11.3128 33.4592L13.2523 31.5188C13.1312 30.8383 12.8089 30.1879 12.2825 29.6614C11.7559 29.1347 11.1049 28.8117 10.4241 28.6907L8.48468 30.6301Z" fill="oklch(0.3523 0 0 / 1)" class="wd-expressive-fill"></path>
</svg>