<svg role="presentation" width="56" height="56" viewBox="0 0 56 56" xmlns="http://www.w3.org/2000/svg" class="wd-expressive wd-expressive-briefcase">
<path d="M49.8213 13.1787C50.5157 13.4923 51 14.1886 51 15V20.9805C50.9999 22.4025 50.4065 23.7731 49.2881 24.6514C44.1625 28.6756 37.8688 31.2795 31 31.8711V29H25V31.8711C19.0597 31.3594 13.55 29.342 8.85352 26.2031C8.97599 26.4383 9.05474 26.6968 9.07617 26.9678L10.1367 40.3936C10.3421 42.9942 12.5123 45 15.1211 45H50V46C50 47.1046 49.1046 48 48 48H8C6.89543 48 6 47.1046 6 46V24L6.1084 24.0723C5.38165 23.2257 5.00007 22.1199 5 20.9805V15C5 14.1889 5.48377 13.4925 6.17773 13.1787C6.06455 13.4295 6 13.707 6 14V18.1768C6.0001 19.7085 6.68973 21.1752 7.95996 22.0312C13.5159 25.7753 20.4628 28 28 28C35.5372 28 42.4841 25.7753 48.04 22.0312C49.3103 21.1752 49.9999 19.7085 50 18.1768V14C50 13.7069 49.9346 13.4296 49.8213 13.1787Z" fill="oklch(0.3057 0.079 256.22 / 0.13)" class="wd-expressive-accent"></path>
<path d="M28 5C31.3674 5 34.4691 6.14931 36.9307 8.07617C37.6482 8.6379 38 9.49232 38 10.332V12H49C50.6568 12.0001 52 13.3432 52 15V20.9805C51.9999 22.1479 51.6635 23.3066 51 24.2705V46C51 47.6569 49.6569 49 48 49H8C6.3949 49 5.08421 47.7394 5.00391 46.1543L5 46V24.2705C4.33655 23.3066 4.00006 22.1478 4 20.9805V15C4 13.3432 5.3432 12.0001 7 12H18V10.332C18 9.49232 18.3518 8.6379 19.0693 8.07617C21.5309 6.14931 24.6326 5 28 5ZM49 26.123C44.1312 29.7009 38.3159 32.066 32 32.7744V34.8545C31.9999 35.1388 31.8789 35.41 31.667 35.5996C30.6946 36.4699 29.408 37 28 37C26.592 37 25.3054 36.4699 24.333 35.5996C24.1211 35.41 24.0001 35.1388 24 34.8545V32.7744C17.684 32.066 11.8688 29.7009 7 26.123V46L7.00488 46.1025C7.05621 46.6067 7.48232 47 8 47H48C48.5523 47 49 46.5523 49 46V26.123ZM26 34.3691C26.5674 34.7656 27.2549 35 28 35C28.7451 35 29.4326 34.7656 30 34.3691V29H26V34.3691ZM7 14C6.44777 14.0001 6 14.4478 6 15V20.9805C6.00009 22.1314 6.4799 23.1967 7.33008 23.8643C12.0355 27.5587 17.7536 30.0177 24 30.7607V28C24 27.4477 24.4477 27 25 27H31C31.5523 27 32 27.4477 32 28V30.7607C38.2465 30.0177 43.9645 27.5587 48.6699 23.8643C49.5201 23.1967 49.9999 22.1314 50 20.9805V15C50 14.4478 49.5522 14.0001 49 14H7ZM28 7C25.095 7 22.424 7.99005 20.3018 9.65137C20.1235 9.79101 20 10.034 20 10.332V12H36V10.332C36 10.034 35.8765 9.79101 35.6982 9.65137C33.576 7.99005 30.905 7 28 7Z" fill="oklch(0.3523 0 0 / 1)" class="wd-expressive-fill"></path>
</svg>