<svg role="presentation" width="56" height="56" viewBox="0 0 56 56" xmlns="http://www.w3.org/2000/svg" class="wd-expressive wd-expressive-calculator-goal">
<g>
<path d="M39.0488 33.1924C41.4283 32.7191 43.8989 33.1268 46 34.3398L42.2939 38.1709C41.2309 37.8861 40.1037 37.9597 39.0869 38.3809C38.0701 38.802 37.2203 39.5468 36.6699 40.5C36.1197 41.4531 35.8994 42.5612 36.043 43.6523C36.1866 44.7436 36.6866 45.7578 37.4648 46.5361C38.2431 47.3142 39.2566 47.8134 40.3477 47.957C41.4388 48.1006 42.5469 47.8804 43.5 47.3301C44.4532 46.7797 45.1979 45.9299 45.6191 44.9131C46.0402 43.8963 46.1149 42.7691 45.8301 41.7061L49.6602 38C50.8732 40.101 51.2809 42.5717 50.8076 44.9512C50.3343 47.3305 49.0125 49.4568 47.0879 50.9336C45.1632 52.4105 42.7666 53.1372 40.3457 52.9785C37.9249 52.8198 35.6441 51.7867 33.9287 50.0713C32.2133 48.3559 31.1802 46.0751 31.0215 43.6543C30.8628 41.2334 31.5895 38.8368 33.0664 36.9121C34.5432 34.9875 36.6696 33.6657 39.0488 33.1924Z" fill="oklch(0.3057 0.079 256.22 / 0.13)" class="wd-expressive-accent"></path>
<path d="M37 6C38.1043 6.00016 38.9999 6.89564 39 8V29.1426C37.9586 29.2916 36.9543 29.5559 36 29.9209V23H14V41H27.1426C27.0491 41.6532 27 42.321 27 43C27 44.3899 27.2039 45.7326 27.5811 47H10C8.89565 46.9998 8.00013 46.1044 8 45V6H37ZM14 17H36V9H14V17Z" fill="oklch(0.3057 0.079 256.22 / 0.13)" class="wd-expressive-accent"></path>
</g>
<g>
<path d="M38.8535 32.2109C41.307 31.723 43.8493 32.0869 46.0615 33.2334C46.3065 33.3605 46.3879 33.6681 46.25 33.9072L45.75 34.7734C45.6119 35.0123 45.3068 35.093 45.0605 34.9688C43.2696 34.0634 41.2217 33.7795 39.2441 34.1729C37.1028 34.5989 35.1885 35.7894 33.8594 37.5215C32.5306 39.2535 31.8768 41.4105 32.0195 43.5889C32.1625 45.7673 33.0921 47.8205 34.6357 49.3643C36.1795 50.9079 38.2326 51.8376 40.4111 51.9805C42.5896 52.1232 44.7464 51.4695 46.4785 50.1406C48.2106 48.8115 49.4011 46.8971 49.8271 44.7559C50.2204 42.7786 49.9374 40.7312 49.0322 38.9404C48.9077 38.694 48.9884 38.388 49.2275 38.25L50.0938 37.75C50.3328 37.6123 50.6395 37.6937 50.7666 37.9385C51.913 40.1505 52.2768 42.6923 51.7891 45.1455C51.2684 47.7627 49.8133 50.102 47.6963 51.7266C45.5792 53.351 42.9431 54.151 40.2803 53.9766C37.6176 53.8019 35.1086 52.6651 33.2217 50.7783C31.3349 48.8915 30.1981 46.3824 30.0234 43.7197C29.849 41.057 30.649 38.4208 32.2734 36.3037C33.8979 34.1868 36.2365 32.7317 38.8535 32.2109Z" fill="oklch(0.3523 0 0 / 1)" class="wd-expressive-fill"></path>
<path d="M38.3213 36.5332C39.5903 36.0076 40.9826 35.8676 42.3242 36.126C42.5952 36.1783 42.753 36.455 42.6816 36.7217L42.4229 37.6865C42.3514 37.9531 42.078 38.1086 41.8057 38.0645C40.8912 37.9154 39.949 38.0239 39.0869 38.3809C38.0702 38.8021 37.2202 39.547 36.6699 40.5C36.1197 41.453 35.8994 42.5613 36.043 43.6523C36.1867 44.7435 36.6866 45.7569 37.4648 46.5352C38.2431 47.3134 39.2565 47.8133 40.3477 47.957C41.4387 48.1006 42.547 47.8802 43.5 47.3301C44.453 46.7798 45.198 45.9298 45.6191 44.9131C45.9762 44.051 46.0836 43.1088 45.9346 42.1943C45.8904 41.9221 46.0461 41.6477 46.3125 41.5762L47.2783 41.3174C47.545 41.2461 47.8218 41.4047 47.874 41.6758C48.1324 43.0174 47.9924 44.4097 47.4668 45.6787C46.8771 47.1021 45.8343 48.2921 44.5 49.0625C43.1657 49.8328 41.6135 50.1415 40.0859 49.9404C38.5584 49.7392 37.1393 49.0396 36.0498 47.9502C34.9603 46.8607 34.2608 45.4416 34.0596 43.9141C33.8585 42.3865 34.1672 40.8344 34.9375 39.5C35.7079 38.1657 36.8979 37.1229 38.3213 36.5332Z" fill="oklch(0.3523 0 0 / 1)" class="wd-expressive-fill"></path>
<path d="M40 2C41.6566 2.00016 42.9998 3.34339 43 5V29.5C43 29.7761 42.7761 30 42.5 30H41.5C41.224 29.9998 41 29.776 41 29.5V5C40.9998 4.44796 40.552 4.00016 40 4H10C9.44796 4.00016 9.00017 4.44796 9 5V45C9.00017 45.552 9.44796 45.9998 10 46H27.5C27.7761 46 28 46.2239 28 46.5V47.5C28 47.7761 27.7761 48 27.5 48H10C8.34339 47.9998 7.00017 46.6566 7 45V5C7.00017 3.34339 8.34339 2.00016 10 2H40Z" fill="oklch(0.3523 0 0 / 1)" class="wd-expressive-fill"></path>
<path d="M50.1465 30.3535C50.4615 30.0386 50.9999 30.2616 51 30.707V33H53.293C53.7384 33.0001 53.9614 33.5385 53.6465 33.8535L51.6465 35.8535C51.5527 35.9473 51.4255 36 51.293 36H49.4141L42.9297 42.4834C42.9738 42.6484 43 42.8211 43 43C43 44.1046 42.1046 45 41 45C39.8954 45 39 44.1046 39 43C39 41.8954 39.8954 41 41 41C41.1785 41 41.351 41.0255 41.5156 41.0693L48 34.585V32.707C48 32.5744 48.0527 32.4473 48.1465 32.3535L50.1465 30.3535Z" fill="oklch(0.3523 0 0 / 1)" class="wd-expressive-fill"></path>
<path d="M36 22C36.5523 22 37 22.4477 37 23V30.5C37 30.7761 36.7761 31 36.5 31H35.5C35.224 30.9998 35 30.776 35 30.5V24H31V32.5C31 32.7761 30.7761 33 30.5 33H29.5C29.224 32.9998 29 32.776 29 32.5V30H23V34H27.7705C27.7573 34.0194 27.7446 34.0391 27.7314 34.0586C27.8908 34.1422 28 34.3076 28 34.5V35.5C28 35.7761 27.7761 36 27.5 36H23V40H27.5C27.7761 40 28 40.2239 28 40.5V41.5C28 41.7761 27.7761 42 27.5 42H14C13.4477 42 13 41.5523 13 41V23C13 22.4477 13.4477 22 14 22H36ZM15 40H21V36H15V40ZM15 34H21V30H15V34ZM15 28H21V24H15V28ZM23 28H29V24H23V28Z" fill="oklch(0.3523 0 0 / 1)" class="wd-expressive-fill"></path>
<path d="M36 8C36.552 8.00016 36.9998 8.44796 37 9V17C36.9998 17.552 36.552 17.9998 36 18H14C13.448 17.9998 13.0002 17.552 13 17V9C13.0002 8.44796 13.448 8.00016 14 8H36ZM15 16H35V10H15V16Z" fill="oklch(0.3523 0 0 / 1)" class="wd-expressive-fill"></path>
</g>
</svg>