<svg role="presentation" width="56" height="56" viewBox="0 0 56 56" xmlns="http://www.w3.org/2000/svg" class="wd-expressive wd-expressive-catalog">
<g>
<path d="M9 47.5C9 47.7761 9.22386 48 9.5 48H51V50.5C51 50.7761 50.7761 51 50.5 51H5.5C5.22386 51 5 50.7761 5 50.5V32.5C5 32.2239 5.22386 32 5.5 32H9V47.5Z" fill="oklch(0.3057 0.079 256.22 / 0.13)" class="wd-expressive-accent"></path>
<path d="M45.5 5C45.7761 5 46 5.22386 46 5.5V31.5C46 31.7761 45.7761 32 45.5 32H41.5C41.7761 32 42 31.7761 42 31.5V16.5C42 16.2239 41.7761 16 41.5 16H39V12.5C39 12.2239 38.7761 12 38.5 12H17.5C17.2239 12 17 12.2239 17 12.5V16H14.5C14.2239 16 14 16.2239 14 16.5V31.5C14 31.7761 14.2239 32 14.5 32H10.5C10.2239 32 10 31.7761 10 31.5V5.5C10 5.22386 10.2239 5 10.5 5H45.5Z" fill="oklch(0.3057 0.079 256.22 / 0.13)" class="wd-expressive-accent"></path>
</g>
<g>
<path d="M20.5 39C20.7761 39 21 39.2239 21 39.5V42H35V39.5C35 39.2239 35.2239 39 35.5 39H36.5C36.7761 39 37 39.2239 37 39.5V42.5C37 43.3284 36.3284 44 35.5 44H20.5C19.6716 44 19 43.3284 19 42.5V39.5C19 39.2239 19.2239 39 19.5 39H20.5Z" fill="oklch(0.3523 0 0 / 1)" class="wd-expressive-fill"></path>
<path d="M30.5 25C30.7761 25 31 25.2239 31 25.5V26.5C31 26.7761 30.7761 27 30.5 27H18.5C18.2239 27 18 26.7761 18 26.5V25.5C18 25.2239 18.2239 25 18.5 25H30.5Z" fill="oklch(0.3523 0 0 / 1)" class="wd-expressive-fill"></path>
<path d="M37.5 21C37.7761 21 38 21.2239 38 21.5V22.5C38 22.7761 37.7761 23 37.5 23H18.5C18.2239 23 18 22.7761 18 22.5V21.5C18 21.2239 18.2239 21 18.5 21H37.5Z" fill="oklch(0.3523 0 0 / 1)" class="wd-expressive-fill"></path>
<path d="M45.5 4C46.3284 4 47 4.67157 47 5.5V31H50.5C51.3284 31 52 31.6716 52 32.5V50.5C52 51.3284 51.3284 52 50.5 52H5.5C4.72334 52 4.08461 51.4097 4.00781 50.6533L4 50.5V32.5C4 31.6716 4.67157 31 5.5 31H9V5.5C9 4.67157 9.67157 4 10.5 4H45.5ZM6 50H50V33H6V50ZM11 31H13V18C13 16.3431 14.3431 15 16 15V14C16 12.3431 17.3431 11 19 11H37C38.6569 11 40 12.3431 40 14V15C41.6569 15 43 16.3431 43 18V31H45V6H11V31ZM16 17C15.4477 17 15 17.4477 15 18V31H41V18C41 17.4477 40.5523 17 40 17H16ZM19 13C18.4477 13 18 13.4477 18 14V15H38V14C38 13.4477 37.5523 13 37 13H19Z" fill="oklch(0.3523 0 0 / 1)" class="wd-expressive-fill"></path>
</g>
</svg>