<svg role="presentation" width="56" height="56" viewBox="0 0 56 56" xmlns="http://www.w3.org/2000/svg" class="wd-expressive wd-expressive-accounting">
<g>
<path d="M10 25.502C10 27.4349 14.0295 29.0019 19 29.002C21.3054 29.002 23.4077 28.6629 25 28.1084V33.1064C23.9766 33.4629 22.7422 33.7275 21.3789 33.873L21.7002 35.4795L23.9717 33.9668C24.3683 33.7025 24.8964 33.7548 25.2334 34.0918L26.9092 35.7676C27.2462 36.1046 27.2985 36.6327 27.0342 37.0293L25.5215 39.2979L28.1963 39.833C28.6636 39.9266 29 40.3369 29 40.8135V43.1846C28.9998 43.661 28.6635 44.0715 28.1963 44.165L25.5195 44.7002L27.0342 46.9717C27.2986 47.3683 27.2461 47.8963 26.9092 48.2334L25.2334 49.9102C24.8964 50.2471 24.3683 50.2993 23.9717 50.0352L21.7002 48.5205L21.166 51.1963C21.0725 51.6636 20.6621 52 20.1855 52H17.8145C17.338 51.9998 16.9275 51.6635 16.834 51.1963L16.2979 48.5215L14.0293 50.0352C13.6328 50.2995 13.1047 50.247 12.7676 49.9102L11.0908 48.2334C10.754 47.8963 10.7015 47.3682 10.9658 46.9717L12.4795 44.6992L9.80371 44.165C9.33649 44.0715 9.00022 43.661 9 43.1846V40.8135C9.00005 40.3369 9.33641 39.9266 9.80371 39.833L12.4775 39.2979L10.9658 37.0293C10.7016 36.6327 10.7538 36.1046 11.0908 35.7676L12.7676 34.0918C13.1046 33.7548 13.6327 33.7024 14.0293 33.9668L16.2988 35.4795L16.834 32.8037L16.6191 33.875C12.8042 33.469 10.0002 32.1124 10 30.5V25.502ZM18.9951 38C16.786 38 14.9951 39.7909 14.9951 42C14.9951 44.2091 16.786 46 18.9951 46C21.2043 46 22.9951 44.2091 22.9951 42C22.9951 39.7909 21.2043 38 18.9951 38Z" fill="oklch(0.3057 0.079 256.22 / 0.13)" class="wd-expressive-accent"></path>
<path d="M31.5 42C31.7761 42 32 42.2239 32 42.5V45.5C32 45.7761 31.7761 46 31.5 46H30.5C30.2239 46 30 45.7761 30 45.5V42.5C30 42.2239 30.2239 42 30.5 42H31.5Z" fill="oklch(0.3057 0.079 256.22 / 0.13)" class="wd-expressive-accent"></path>
<path d="M36.5 38C36.7761 38 37 38.2239 37 38.5V45.5C37 45.7761 36.7761 46 36.5 46H35.5C35.2239 46 35 45.7761 35 45.5V38.5C35 38.2239 35.2239 38 35.5 38H36.5Z" fill="oklch(0.3057 0.079 256.22 / 0.13)" class="wd-expressive-accent"></path>
<path d="M41.5 33C41.7761 33 42 33.2239 42 33.5V45.5C42 45.7761 41.7761 46 41.5 46H40.5C40.2239 46 40 45.7761 40 45.5V33.5C40 33.2239 40.2239 33 40.5 33H41.5Z" fill="oklch(0.3057 0.079 256.22 / 0.13)" class="wd-expressive-accent"></path>
<path d="M10 15.501C10 17.434 14.0294 19.001 19 19.001C21.3055 19.001 23.4077 18.662 25 18.1074V23.1084C23.4077 23.6629 21.3054 24.002 19 24.002C14.0295 24.0019 10 22.4349 10 20.502V15.501Z" fill="oklch(0.3057 0.079 256.22 / 0.13)" class="wd-expressive-accent"></path>
<path d="M26 8.50098C26 10.434 30.0294 12.001 35 12.001C37.8275 12.001 40.3501 11.4932 42 10.7002V15.7012C41.7813 15.8063 41.5469 15.9054 41.2988 16H28.7012C28.4531 15.9054 28.2187 15.8063 28 15.7012V15.501C28 14.6675 27.2508 13.9019 26 13.3008V8.50098Z" fill="oklch(0.3057 0.079 256.22 / 0.13)" class="wd-expressive-accent"></path>
</g>
<g>
<path d="M18.9951 37C21.7565 37 23.9951 39.2386 23.9951 42C23.9951 44.7614 21.7565 47 18.9951 47C16.2337 47 13.9951 44.7614 13.9951 42C13.9951 39.2386 16.2337 37 18.9951 37ZM18.9951 39C17.3383 39 15.9951 40.3431 15.9951 42C15.9951 43.6569 17.3383 45 18.9951 45C20.652 45 21.9951 43.6569 21.9951 42C21.9951 40.3431 20.652 39 18.9951 39Z" fill="oklch(0.3523 0 0 / 1)" class="wd-expressive-fill"></path>
<path d="M33.5 40C33.7761 40 34 40.2239 34 40.5V45.5C34 45.7761 33.7761 46 33.5 46H32.5C32.2239 46 32 45.7761 32 45.5V40.5C32 40.2239 32.2239 40 32.5 40H33.5Z" fill="oklch(0.3523 0 0 / 1)" class="wd-expressive-fill"></path>
<path d="M38.5 36C38.7761 36 39 36.2239 39 36.5V45.5C39 45.7761 38.7761 46 38.5 46H37.5C37.2239 46 37 45.7761 37 45.5V36.5C37 36.2239 37.2239 36 37.5 36H38.5Z" fill="oklch(0.3523 0 0 / 1)" class="wd-expressive-fill"></path>
<path d="M43.5 30C43.7761 30 44 30.2239 44 30.5V45.5C44 45.7761 43.7761 46 43.5 46H42.5C42.2239 46 42 45.7761 42 45.5V30.5C42 30.2239 42.2239 30 42.5 30H43.5Z" fill="oklch(0.3523 0 0 / 1)" class="wd-expressive-fill"></path>
<path d="M35.5 25C35.7761 25 36 25.2239 36 25.5V26.5C36 26.7761 35.7761 27 35.5 27H29.5C29.2239 27 29 26.7761 29 26.5V25.5C29 25.2239 29.2239 25 29.5 25H35.5Z" fill="oklch(0.3523 0 0 / 1)" class="wd-expressive-fill"></path>
<path d="M43.5 21C43.7761 21 44 21.2239 44 21.5V22.5C44 22.7761 43.7761 23 43.5 23H29.5C29.2239 23 29 22.7761 29 22.5V21.5C29 21.2239 29.2239 21 29.5 21H43.5Z" fill="oklch(0.3523 0 0 / 1)" class="wd-expressive-fill"></path>
<path d="M35 4.00098C37.577 4.00098 39.9557 4.40507 41.7266 5.09375C42.6088 5.43685 43.391 5.87027 43.9697 6.40234C44.5493 6.9352 45 7.64337 45 8.50098V15H46C47.6569 15 49 16.3431 49 18V48C49 49.6569 47.6569 51 46 51H25.4033C24.8301 51.2796 24.1453 51.2732 23.5693 50.959L23.417 50.8672L22.5283 50.2744C22.4704 50.2992 22.4121 50.3231 22.3535 50.3467L22.1465 51.3916C21.9711 52.2679 21.2387 52.9149 20.3623 52.9922L20.1855 53H17.8145C16.8625 52.9996 16.041 52.328 15.8535 51.3936L15.6436 50.3516C15.5843 50.3277 15.5254 50.3034 15.4668 50.2783L14.585 50.8672C13.8411 51.3631 12.8654 51.3015 12.1914 50.7373L12.0605 50.6172L10.3838 48.9404C9.75251 48.3087 9.61999 47.3407 10.042 46.5684L10.1338 46.417L10.7197 45.5361C10.6935 45.4751 10.6685 45.4134 10.6436 45.3516L9.6084 45.1455C8.73201 44.9701 8.08558 44.2377 8.00781 43.3623L8 43.1846V40.8135C8.0001 39.8607 8.6723 39.04 9.60645 38.8525L10.6445 38.6436C10.669 38.583 10.694 38.5228 10.7197 38.4629L10.1338 37.584C9.60561 36.7911 9.7096 35.7347 10.3838 35.0605L11.7568 33.6875C11.0868 33.3842 10.4929 33.024 10.0303 32.5986C9.48712 32.0992 9.05662 31.4453 9.00488 30.6592L9 30.5V15.501C9 14.6434 9.45073 13.9352 10.0303 13.4023C10.609 12.8703 11.3912 12.4369 12.2734 12.0938C14.0443 11.4051 16.423 11.001 19 11.001C21.2393 11.001 23.3289 11.3061 25 11.8379V8.50098C25 7.64337 25.4507 6.9352 26.0303 6.40234C26.609 5.87027 27.3912 5.43685 28.2734 5.09375C30.0443 4.40507 32.423 4.00098 35 4.00098ZM17.3809 35.1621L16.8252 35.3438C16.4826 35.4554 16.1504 35.5941 15.8301 35.7568L15.3086 36.0215L13.4746 34.7988L11.7979 36.4746L13.0195 38.3086L12.7549 38.8301C12.5918 39.1503 12.4518 39.4823 12.3398 39.8252L12.1592 40.3799L10.001 40.8135L10 43.1846L12.1582 43.6152L12.3398 44.1719C12.4518 44.5152 12.5914 44.8478 12.7549 45.1689L13.0195 45.6904L11.7979 47.5254L13.4736 49.2021L14.8223 48.3027L15.3096 47.9785L15.8311 48.2432C16.1505 48.4054 16.482 48.5437 16.8242 48.6553L17.3799 48.8369L17.8145 50.999L20.1855 51L20.6172 48.834L21.1729 48.6523C21.5156 48.5402 21.8467 48.4018 22.1641 48.2402L22.6855 47.9756L24.5264 49.2031L26.2021 47.5264L24.9736 45.6846L25.2383 45.1631C25.3996 44.8453 25.5379 44.5147 25.6494 44.1729L25.8301 43.6172L28 43.1846V40.8135L25.8291 40.3779L25.6484 39.8232C25.5372 39.4831 25.3993 39.154 25.2383 38.8369L24.9736 38.3154L25.2979 37.8281L26.2012 36.4736L24.5264 34.7988L23.1709 35.7002L22.6846 36.0244L22.1641 35.7598C21.8452 35.5975 21.5143 35.4583 21.1729 35.3467L20.6172 35.165L20.1855 33H17.8145L17.3809 35.1621ZM27 17C26.4477 17 26 17.4477 26 18V33.4443L27.6162 35.0605C28.2903 35.7346 28.3948 36.7908 27.8662 37.584L27.2725 38.4727C27.2964 38.5287 27.3199 38.585 27.3428 38.6416L28.3926 38.8525L28.5645 38.8945C29.4086 39.1423 29.9999 39.9198 30 40.8135V43.1846L29.9922 43.3623C29.9144 44.2377 29.269 44.9701 28.3926 45.1455L27.3447 45.3535C27.3213 45.4118 27.2971 45.4697 27.2725 45.5273L27.8662 46.417L27.958 46.5684C28.38 47.3406 28.2479 48.3086 27.6162 48.9404L27.5566 49H46C46.5523 49 47 48.5523 47 48V18C47 17.4477 46.5523 17 46 17H27ZM11 30.501C11.0004 30.6102 11.054 30.8227 11.3838 31.126C11.7159 31.4313 12.2519 31.7527 12.998 32.043C13.7806 32.3473 14.7395 32.5952 15.8213 32.7627L15.8535 32.6074L15.8955 32.4355C16.1433 31.5912 16.9216 31.0004 17.8145 31H20.1855L20.3623 31.0078C21.2387 31.0851 21.9711 31.7311 22.1465 32.6074L22.1758 32.7607C22.8332 32.6593 23.4453 32.5292 24 32.373V29.4414C22.5263 29.7998 20.8124 30.001 19 30.001C16.423 30.001 14.0443 29.5969 12.2734 28.9082C11.8173 28.7308 11.3883 28.5286 11 28.3018V30.501ZM11 25.501C11 25.6098 11.0527 25.8225 11.3838 26.127C11.7159 26.4323 12.2518 26.7537 12.998 27.0439C14.4845 27.622 16.6065 28.001 19 28.001C20.8981 28.001 22.625 27.7612 24 27.374V24.4414C22.5263 24.7998 20.8124 25.001 19 25.001C16.423 25.001 14.0443 24.5969 12.2734 23.9082C11.8173 23.7308 11.3883 23.5286 11 23.3018V25.501ZM11 20.501C11 20.6098 11.0527 20.8225 11.3838 21.127C11.7159 21.4323 12.2518 21.7537 12.998 22.0439C14.4845 22.622 16.6065 23.001 19 23.001C20.8981 23.001 22.625 22.7612 24 22.374V19.4414C22.5263 19.7998 20.8124 20.001 19 20.001C16.423 20.001 14.0443 19.5969 12.2734 18.9082C11.8173 18.7308 11.3883 18.5286 11 18.3018V20.501ZM19 13.001C16.6065 13.001 14.4845 13.3799 12.998 13.958C12.2518 14.2482 11.7159 14.5697 11.3838 14.875C11.0527 15.1795 11 15.3921 11 15.501C11 15.6098 11.0527 15.8225 11.3838 16.127C11.7159 16.4323 12.2518 16.7537 12.998 17.0439C14.4845 17.622 16.6065 18.001 19 18.001C20.9306 18.001 22.6841 17.7534 24.0703 17.3545C24.3483 16.087 25.4272 15.1199 26.75 15.0107C26.7112 14.968 26.6675 14.9222 26.6162 14.875C26.2841 14.5697 25.7482 14.2482 25.002 13.958C23.5155 13.3799 21.3935 13.001 19 13.001ZM43 11.3018C42.6117 11.5286 42.1827 11.7308 41.7266 11.9082C39.9557 12.5969 37.577 13.001 35 13.001C32.423 13.001 30.0443 12.5969 28.2734 11.9082C27.8173 11.7308 27.3883 11.5286 27 11.3018V12.6992C27.363 12.9112 27.6901 13.1453 27.9697 13.4023C28.4322 13.8275 28.8105 14.3647 28.9453 15H41.1094C41.7996 14.7212 42.3003 14.4174 42.6162 14.127C42.9473 13.8225 43 13.6098 43 13.501V11.3018ZM35 6.00098C32.6065 6.00098 30.4845 6.37993 28.998 6.95801C28.2518 7.24824 27.7159 7.56966 27.3838 7.875C27.0527 8.17946 27 8.39213 27 8.50098C27 8.60982 27.0527 8.82249 27.3838 9.12695C27.7159 9.43229 28.2518 9.75371 28.998 10.0439C30.4845 10.622 32.6065 11.001 35 11.001C37.3935 11.001 39.5155 10.622 41.002 10.0439C41.7482 9.75371 42.2841 9.43229 42.6162 9.12695C42.9473 8.82249 43 8.60982 43 8.50098C43 8.39213 42.9473 8.17946 42.6162 7.875C42.2841 7.56966 41.7482 7.24824 41.002 6.95801C39.5155 6.37993 37.3935 6.00098 35 6.00098Z" fill="oklch(0.3523 0 0 / 1)" class="wd-expressive-fill"></path>
</g>
</svg>