<svg role="presentation" width="56" height="56" viewBox="0 0 56 56" xmlns="http://www.w3.org/2000/svg" class="wd-expressive wd-expressive-hand-coin">
<g>
<path d="M51.9736 33.8276C52.2138 33.6324 52.5739 33.6997 52.6895 33.9868C52.9234 34.5682 53.0286 35.1838 53.0107 35.7935C53.0069 35.9252 52.9442 36.0479 52.8447 36.1343L38.1406 48.8774C38.0497 48.9561 37.9337 48.9995 37.8135 48.9995H4.5C4.22386 48.9995 4 48.7757 4 48.4995V47.9995C4.00021 46.8951 4.89556 45.9995 6 45.9995H35.2236C36.3725 45.9995 37.4865 45.6041 38.3779 44.8794L51.9736 33.8276Z" fill="oklch(0.3057 0.079 256.22 / 0.13)" class="wd-expressive-accent"></path>
<path d="M33.0723 36.9995C33.2113 36.9995 33.3009 37.1466 33.2314 37.2671C32.4574 38.6078 31.2438 39.5367 29.8779 39.9771C29.8304 39.9923 29.7804 39.9995 29.7305 39.9995H19.5C19.2239 39.9995 19 39.7757 19 39.4995V38.9995C19.0002 37.8951 19.8956 36.9995 21 36.9995H33.0723Z" fill="oklch(0.3057 0.079 256.22 / 0.13)" class="wd-expressive-accent"></path>
<path d="M41 14.5464V19.4546C40.9995 23.0693 35.1794 26.0005 28 26.0005C20.8206 26.0005 15.0005 23.0693 15 19.4546V14.5464C15 14.5309 15.0008 14.515 15.001 14.4995C15.0495 18.0935 20.8504 21.0005 28 21.0005C35.1497 21.0005 40.9495 18.0936 40.998 14.4995C40.9983 14.515 41 14.5309 41 14.5464Z" fill="oklch(0.3057 0.079 256.22 / 0.13)" class="wd-expressive-accent"></path>
</g>
<g>
<path d="M49.6142 30.2822L49.7694 30.3105L49.9921 30.3672C51.0989 30.6756 52.1204 31.3329 52.8739 32.3135C53.5108 33.1424 53.8754 34.0984 53.9804 35.0693C54.0823 36.0136 53.5977 36.8047 53.0321 37.2949L40.0644 48.5342C38.9735 49.4794 37.578 50 36.1347 50H4.50088C4.22486 50 4.00108 49.776 4.00088 49.5V48.5C4.00088 48.2239 4.22474 48 4.50088 48H36.1347C37.0969 48 38.0276 47.6526 38.7548 47.0225L51.7226 35.7842C51.9544 35.5832 52.0033 35.3895 51.9921 35.2842C51.9255 34.6681 51.6948 34.0618 51.288 33.5322C50.8243 32.9288 50.2034 32.5216 49.5272 32.3174L37.7978 40.0156C36.8198 40.6573 35.6754 41 34.5058 41H18.9999V39H29.6444C30.7532 38.6236 31.7337 37.8609 32.3651 36.7676C32.7028 36.1827 32.9082 35.5597 32.9921 34.9326C33.012 34.784 32.9658 34.6602 32.8056 34.542C32.6223 34.407 32.3247 34.3216 32.0106 34.3691C30.0938 34.659 26.9038 35 22.4999 35C17.3559 35 13.8233 34.5347 12.0585 34.2295C11.6277 34.155 11.2106 34.3096 10.9647 34.6045L6.76846 39.6406L6.76651 39.6396L5.0878 41.6553C4.91106 41.8671 4.59579 41.8962 4.38369 41.7197L3.99991 41.3994L3.61514 41.0791C3.40303 40.9023 3.37488 40.5871 3.55166 40.375L9.42764 33.3242C10.1645 32.4399 11.3176 32.0717 12.3993 32.2588C14.0583 32.5457 17.4769 33 22.4999 33C26.8003 33 29.8905 32.667 31.7118 32.3916C32.519 32.2696 33.3579 32.4642 33.9931 32.9326C34.6511 33.418 35.105 34.2227 34.9745 35.1982C34.8565 36.0796 34.568 36.9527 34.0976 37.7676C33.8365 38.2196 33.5311 38.6303 33.1923 39H34.5058C35.2854 39 36.0482 38.7714 36.7001 38.3438L48.6269 30.5166L48.7499 30.4443C49.0041 30.3102 49.3046 30.2445 49.6142 30.2822Z" fill="oklch(0.3523 0 0 / 1)" class="wd-expressive-fill"></path>
<path d="M28.1825 10.999C30.0179 10.9991 31.8255 11.2266 33.329 11.6592C34.5718 12.0169 35.6912 12.5401 36.4013 13.2617C36.5946 13.4586 36.5409 13.7731 36.3163 13.9336L35.5028 14.5146C35.2782 14.675 34.9591 14.6245 34.7382 14.459C34.3537 14.171 33.7161 13.8516 32.7763 13.5811C31.4858 13.2097 29.8688 13.0001 28.1825 13C26.4962 13 24.8793 13.2098 23.5888 13.5811C22.6485 13.8516 22.0103 14.1709 21.6259 14.459C21.4049 14.6246 21.0859 14.6751 20.8612 14.5146L20.0478 13.9336C19.8233 13.773 19.7702 13.4585 19.9638 13.2617C20.6738 12.54 21.793 12.0169 23.036 11.6592C24.5396 11.2266 26.3472 10.999 28.1825 10.999Z" fill="oklch(0.3523 0 0 / 1)" class="wd-expressive-fill"></path>
<path d="M27.9999 7C31.7123 7 35.1232 7.75589 37.6425 9.02441C40.1037 10.2639 41.9999 12.1594 41.9999 14.5459V19.4541C41.9999 21.8406 40.1037 23.7361 37.6425 24.9756C35.1232 26.2441 31.7123 27 27.9999 27C24.2875 27 20.8766 26.2441 18.3573 24.9756C15.8962 23.7362 13.9999 21.8405 13.9999 19.4541V14.5459C13.9999 12.1595 15.8962 10.2638 18.3573 9.02441C20.8766 7.75588 24.2875 7.00004 27.9999 7ZM32.9999 21.5547C31.4427 21.8418 29.7554 22 27.9999 22C26.614 22 25.2704 21.9027 23.9999 21.7207V24.668C25.2477 24.8806 26.5925 25 27.9999 25C29.7917 25 31.4825 24.8088 32.9999 24.4736V21.5547ZM19.9999 23.5303C20.6134 23.7917 21.2825 24.0264 21.9999 24.2256V21.3486C21.2996 21.188 20.6308 21.0007 19.9999 20.7871V23.5303ZM39.9999 18.6826C39.3125 19.2512 38.4932 19.7433 37.6112 20.1504C36.8224 20.5144 35.9457 20.831 34.9999 21.0957V23.915C35.6286 23.6987 36.2121 23.4563 36.7421 23.1895C38.9857 22.0597 39.9999 20.6824 39.9999 19.4541V18.6826ZM15.9999 19.4541C15.9999 20.4229 16.6326 21.4818 17.9999 22.4414V19.9619C17.266 19.5944 16.585 19.1667 15.9999 18.6826V19.4541ZM27.9999 9C24.5329 9.00004 21.4435 9.71002 19.2577 10.8105C17.0142 11.9403 15.9999 13.3176 15.9999 14.5459V15C15.9999 16.0317 16.9479 17.2833 19.2265 18.335C21.4201 19.3474 24.5212 20 27.9999 20C31.4786 20 34.5797 19.3474 36.7733 18.335C39.052 17.2833 39.9999 16.0317 39.9999 15V14.5459C39.9999 13.3176 38.9857 11.9403 36.7421 10.8105C34.5563 9.71004 31.4669 9 27.9999 9Z" fill="oklch(0.3523 0 0 / 1)" class="wd-expressive-fill"></path>
</g>
</svg>