<svg role="presentation" width="56" height="56" viewBox="0 0 56 56" xmlns="http://www.w3.org/2000/svg" class="wd-expressive wd-expressive-tablet-text">
<path d="M13 46C13 47.1046 13.8954 48 15 48H45.583C44.8114 49.7657 43.0502 51 41 51H15C12.2386 51 10 48.7614 10 46V10C10 7.94968 11.2341 6.18757 13 5.41602V46Z" fill="oklch(0.3057 0.079 256.22 / 0.13)" class="wd-expressive-accent"></path>
<g>
<path d="M31.5 46C31.7761 46 32 46.2239 32 46.5V47.5C32 47.7761 31.7761 48 31.5 48H24.5C24.2239 48 24 47.7761 24 47.5V46.5C24 46.2239 24.2239 46 24.5 46H31.5Z" fill="oklch(0.3523 0 0 / 1)" class="wd-expressive-fill"></path>
<path d="M28.5 32.001C28.776 32.0012 29 32.2249 29 32.501V33.5C29 33.776 28.776 34.0008 28.5 34.001H16.5C16.224 34.001 16.0003 33.7769 16 33.501V32.501C16 32.2248 16.2239 32.001 16.5 32.001H28.5Z" fill="oklch(0.3523 0 0 / 1)" class="wd-expressive-fill"></path>
<path d="M35.5 27.001C35.776 27.0012 36 27.2249 36 27.501V28.5C36 28.776 35.776 29.0008 35.5 29.001H16.5C16.224 29.001 16.0003 28.7769 16 28.501V27.501C16 27.2248 16.2239 27.001 16.5 27.001H35.5Z" fill="oklch(0.3523 0 0 / 1)" class="wd-expressive-fill"></path>
<path d="M39.5 22.001C39.776 22.0012 40 22.2249 40 22.501V23.501C39.9997 23.7768 39.7758 24.0008 39.5 24.001H16.5C16.224 24.001 16.0003 23.7769 16 23.501V22.501C16 22.2248 16.2239 22.001 16.5 22.001H39.5Z" fill="oklch(0.3523 0 0 / 1)" class="wd-expressive-fill"></path>
<path d="M35.5 17.001C35.776 17.0012 36 17.2249 36 17.501V18.501C35.9997 18.7768 35.7758 19.0008 35.5 19.001H16.5C16.224 19.001 16.0003 18.7769 16 18.501V17.501C16 17.2248 16.2239 17.001 16.5 17.001H35.5Z" fill="oklch(0.3523 0 0 / 1)" class="wd-expressive-fill"></path>
<path d="M39.5 12.001C39.776 12.0012 40 12.2249 40 12.501V13.501C39.9997 13.7768 39.7758 14.0008 39.5 14.001H16.5C16.224 14.001 16.0003 13.7769 16 13.501V12.501C16 12.2248 16.2239 12.001 16.5 12.001H39.5Z" fill="oklch(0.3523 0 0 / 1)" class="wd-expressive-fill"></path>
<path d="M41 4C44.3137 4 47 6.68629 47 10V46C47 49.3137 44.3137 52 41 52H15C11.6863 52 9 49.3137 9 46V10C9 6.68629 11.6863 4 15 4H41ZM15 6C12.7909 6 11 7.79086 11 10V46C11 48.2091 12.7909 50 15 50H41C43.2091 50 45 48.2091 45 46V10C45 7.79086 43.2091 6 41 6H15Z" fill="oklch(0.3523 0 0 / 1)" class="wd-expressive-fill"></path>
</g>
</svg>