<svg role="presentation" width="56" height="56" viewBox="0 0 56 56" xmlns="http://www.w3.org/2000/svg" class="wd-expressive wd-expressive-benefit-elections">
<g>
<path d="M46.9999 51H8.99988V33H46.9999V51ZM27.9999 37.001C26.1595 37.001 24.4738 37.6637 23.1688 38.7637C23.0602 38.8552 23 38.9917 22.9999 39.1338V41.001C22.9999 44.2663 25.0872 47.0425 27.9999 48.0723C30.9125 47.0425 32.9999 44.2663 32.9999 41.001V39.1338C32.9998 38.9917 32.9395 38.8552 32.8309 38.7637C31.526 37.6637 29.8402 37.001 27.9999 37.001Z" fill="oklch(0.3057 0.079 256.22 / 0.13)" class="wd-expressive-accent"></path>
<path d="M42.9999 11.5459C43.0001 14.0568 44.9999 14.1593 44.9999 18C44.9999 19.0341 45.6427 20 46.4999 20L46.9999 18.5C47.5 19 48.5 21.5 51.0614 19.918C51.0228 20.243 50.9999 20.6013 50.9999 21C50.9999 22.0341 50.357 22.9999 49.4999 23C46.9999 23 46.9999 19 46.9999 19C46.9999 19 46.9998 22.9999 44.4999 23C43.6427 23 42.9999 22.0341 42.9999 21C42.9999 17.1593 41.0001 17.0568 40.9999 14.5459C40.9999 13.1121 41.8235 11.8779 43.0077 11.3193C43.0031 11.3941 42.9999 11.4699 42.9999 11.5459Z" fill="oklch(0.3057 0.079 256.22 / 0.13)" class="wd-expressive-accent"></path>
<path d="M6.21179 12.1494C5.87055 13.2308 6.13902 14.4682 7.03113 15.3105L11.9989 20.001L15.4218 16.7686C15.2941 16.9615 15.1429 17.1442 14.9667 17.3105L9.9989 22.001L5.03113 17.3105C3.7061 16.0594 3.75554 13.936 5.13757 12.748C5.46376 12.4678 5.83003 12.2702 6.21179 12.1494Z" fill="oklch(0.3057 0.079 256.22 / 0.13)" class="wd-expressive-accent"></path>
<path d="M20.3524 3.35449C20.1255 3.85641 19.9989 4.4134 19.9989 5C19.9989 7.20909 21.7908 8.99992 23.9999 9C24.5867 8.9999 25.1433 8.87161 25.6454 8.64453C25.0179 10.0328 23.6223 10.9998 21.9999 11C19.7909 10.9998 17.9989 9.209 17.9989 7C17.9989 5.37833 18.965 3.98243 20.3524 3.35449Z" fill="oklch(0.3057 0.079 256.22 / 0.13)" class="wd-expressive-accent"></path>
<path d="M32.3544 3.35449C32.1274 3.85652 31.9999 4.41323 31.9999 5C31.9999 7.20909 33.7908 8.99992 35.9999 9C36.5867 8.9999 37.1433 8.87161 37.6454 8.64453C37.0179 10.0328 35.6223 10.9998 33.9999 11C31.7909 10.9998 29.9999 9.209 29.9999 7C29.9999 5.37775 30.9665 3.9821 32.3544 3.35449Z" fill="oklch(0.3057 0.079 256.22 / 0.13)" class="wd-expressive-accent"></path>
</g>
<g>
<path d="M27.9998 36C30.0846 36 31.9967 36.7517 33.4754 37.998L33.5975 38.1133C33.8632 38.395 33.9995 38.764 33.9998 39.1318V41C33.9998 44.7027 31.6321 47.8472 28.3328 49.0137C28.1173 49.0898 27.8824 49.0898 27.6668 49.0137C24.3676 47.8472 21.9998 44.7026 21.9998 41V39.1318L22.0086 38.9746C22.0477 38.6082 22.2216 38.2532 22.5242 37.998L22.8065 37.7705C24.2425 36.6609 26.0452 36 27.9998 36ZM27.9998 38C26.4903 38 25.103 38.5134 23.9998 39.376V41C23.9998 43.7016 25.65 46.0177 27.9998 46.998C30.3496 46.0177 31.9998 43.7017 31.9998 41V39.376C30.8966 38.5134 29.5093 38 27.9998 38Z" fill="oklch(0.3523 0 0 / 1)" class="wd-expressive-fill"></path>
<path d="M33.4998 27C33.776 27 33.9998 27.2239 33.9998 27.5V28.5C33.9998 28.7761 33.776 29 33.4998 29H22.4998C22.2237 29 21.9998 28.7761 21.9998 28.5V27.5C21.9998 27.2239 22.2237 27 22.4998 27H33.4998Z" fill="oklch(0.3523 0 0 / 1)" class="wd-expressive-fill"></path>
<path d="M38.1014 23C38.9582 23 39.7743 23.3665 40.3436 24.0068L47.242 31.7676C47.7301 32.3167 47.9998 33.0261 47.9998 33.7607V49C47.9998 50.6569 46.6567 52 44.9998 52H10.9998C9.34299 52 7.99981 50.6568 7.99981 49V33.7607C7.99981 33.0261 8.26958 32.3167 8.75763 31.7676L15.6561 24.0068C16.2253 23.3665 17.0415 23 17.8982 23H38.1014ZM9.99981 49C9.99981 49.5523 10.4476 50 10.9998 50H44.9998C45.5521 50 45.9998 49.5523 45.9998 49V34H9.99981V49ZM17.8982 25C17.6126 25 17.34 25.1225 17.1502 25.3359L11.2264 32H44.7733L38.8494 25.3359C38.6597 25.1225 38.387 25 38.1014 25H17.8982Z" fill="oklch(0.3523 0 0 / 1)" class="wd-expressive-fill"></path>
<path d="M44.4256 10C44.9152 10 45.4136 10.0505 45.8943 10.1836C46.55 10.3652 47.4437 10.3651 48.0994 10.1836C48.5801 10.0505 49.0785 10 49.5682 10C52.0453 10 53.9969 12.0674 53.9969 14.5459C53.9968 16.1325 53.3165 17.031 52.8504 17.7949C52.4199 18.5007 51.9969 19.3081 51.9969 21C51.9969 21.7127 51.778 22.421 51.3787 22.9736C50.9791 23.5265 50.3317 24 49.4969 24C48.2868 23.9999 47.5009 23.381 46.9969 22.6504C46.4928 23.381 45.7071 24 44.4969 24C43.6622 23.9999 43.0146 23.5265 42.615 22.9736C42.2158 22.421 41.9969 21.7127 41.9969 21C41.9969 19.308 41.5739 18.5007 41.1434 17.7949C40.6773 17.031 39.997 16.1324 39.9969 14.5459C39.9969 12.9025 40.8557 11.4407 42.1561 10.6416C42.1643 10.6366 42.1722 10.631 42.1805 10.626C42.5479 10.4035 42.95 10.2341 43.3777 10.1279C43.3923 10.1243 43.4071 10.1216 43.4217 10.1182C43.6232 10.0704 43.8301 10.0361 44.0418 10.0176C44.0655 10.0155 44.0893 10.0134 44.1131 10.0117C44.2163 10.0044 44.3204 10 44.4256 10ZM44.4236 12C43.1147 12.0013 41.9969 13.109 41.9969 14.5459C41.997 15.4699 42.3168 15.8783 42.8504 16.7529C43.4198 17.6863 43.9969 18.8512 43.9969 21C43.9969 21.3212 44.0998 21.6129 44.2361 21.8018C44.3716 21.9893 44.4741 21.9999 44.4969 22C45.045 22 45.4468 21.6091 45.7303 20.7021C45.8602 20.2865 45.9288 19.8565 45.9637 19.5215C45.9809 19.3564 45.9888 19.2197 45.993 19.127C45.995 19.0811 45.9964 19.0463 45.9969 19.0244V18.998C45.9979 18.4468 46.4454 18.0002 46.9969 18C47.5485 18 47.9958 18.4467 47.9969 18.998V19.0244C47.9973 19.0463 47.9987 19.0811 48.0008 19.127C48.0049 19.2197 48.0129 19.3564 48.0301 19.5215C48.065 19.8565 48.1336 20.2865 48.2635 20.7021C48.5469 21.609 48.9489 21.9999 49.4969 22C49.5191 22 49.6216 21.99 49.7576 21.8018C49.894 21.6129 49.9969 21.3213 49.9969 21C49.9969 18.8513 50.574 17.6863 51.1434 16.7529C51.677 15.8782 51.9968 15.47 51.9969 14.5459C51.9969 13.1082 50.8781 12 49.5682 12C49.2121 12 48.8997 12.0374 48.6326 12.1113C48.3634 12.1859 48.0754 12.2379 47.7791 12.2725C47.9927 12.5792 48.2477 12.786 48.5115 12.8984C48.7656 13.0067 48.9979 13.2248 48.9979 13.501V14.501C48.9979 14.777 48.7724 15.005 48.4998 14.9629C47.3371 14.7818 46.4042 13.9783 45.866 12.9727C45.5284 12.3416 44.9409 12.0009 44.4275 12H44.4236Z" fill="oklch(0.3523 0 0 / 1)" class="wd-expressive-fill"></path>
<path d="M9.99884 12.1797C11.4116 10.7819 13.6938 10.5886 15.3309 11.8428L15.5125 11.9902L15.5135 11.9912C17.3447 13.5665 17.4093 16.3812 15.6531 18.0391L10.6854 22.7295C10.3002 23.0929 9.69763 23.0927 9.31231 22.7295L4.34454 18.0391C2.58767 16.3805 2.65407 13.565 4.48614 11.9902C6.13215 10.576 8.53323 10.7295 9.99884 12.1797ZM14.0213 13.3633C13.0563 12.7066 11.7102 12.9781 11.0877 14.0029L10.8533 14.3896C10.672 14.6878 10.3478 14.87 9.99884 14.8701C9.64984 14.8701 9.3258 14.6877 9.14434 14.3896L8.90997 14.0039C8.24588 12.9106 6.75878 12.6743 5.78887 13.5078C4.85724 14.3091 4.82418 15.7404 5.71759 16.584L9.99884 20.626L14.2801 16.584C15.1736 15.7403 15.1404 14.3089 14.2098 13.5078L14.0213 13.3633Z" fill="oklch(0.3523 0 0 / 1)" class="wd-expressive-fill"></path>
<path d="M33.9998 2C35.6355 2 37.0876 2.78567 37.9998 4H40.4998C40.776 4 40.9998 4.22386 40.9998 4.5V5.5C40.9998 5.77614 40.776 6 40.4998 6H38.8992C38.9648 6.32315 38.9998 6.65749 38.9998 7C38.9998 9.76142 36.7612 12 33.9998 12C31.3302 12 29.1496 9.90767 29.0076 7.27344C28.7116 7.10015 28.3682 7 27.9998 7C27.6311 7.00001 27.2872 7.09986 26.991 7.27344C26.849 9.90766 24.6695 12 21.9998 12C19.2384 12 16.9998 9.7614 16.9998 7C16.9998 6.6575 17.0348 6.32314 17.1004 6H15.4998C15.2237 5.99997 14.9998 5.77612 14.9998 5.5V4.5C14.9998 4.22388 15.2237 4.00003 15.4998 4H17.9998C18.912 2.78565 20.3641 2.00002 21.9998 2C24.1361 2 25.9576 3.34048 26.6736 5.22559C27.0889 5.0797 27.5353 5.00001 27.9998 5C28.464 5 28.91 5.07991 29.325 5.22559C30.041 3.3403 31.8634 2.00003 33.9998 2ZM21.9998 4C20.343 4.00003 18.9998 5.34317 18.9998 7C18.9998 8.65683 20.343 9.99997 21.9998 10C23.6567 10 24.9998 8.65685 24.9998 7C24.9998 5.34315 23.6567 4 21.9998 4ZM33.9998 4C32.343 4.00003 30.9998 5.34317 30.9998 7C30.9998 8.65683 32.343 9.99997 33.9998 10C35.6567 10 36.9998 8.65685 36.9998 7C36.9998 5.34315 35.6567 4 33.9998 4Z" fill="oklch(0.3523 0 0 / 1)" class="wd-expressive-fill"></path>
</g>
</svg>