<svg role="presentation" width="56" height="56" viewBox="0 0 56 56" xmlns="http://www.w3.org/2000/svg" class="wd-expressive wd-expressive-hand-money">
<path d="M23.3926 3.94033C23.8069 3.22327 24.7241 2.97754 25.4414 3.3915L41.0283 12.3905C41.2929 12.5433 41.4924 12.7651 41.6191 13.0194L35.9707 9.75869L35.1045 11.2587C33.9245 13.3024 34.0716 15.7469 35.2754 17.5985L28.4385 13.6522C28.1926 13.5103 27.8769 13.6009 27.7637 13.8612C27.1543 15.262 26.9968 16.8707 27.4229 18.4608C27.8974 20.2317 29.0102 21.6614 30.4473 22.5683L34.9131 25.1542C35.0871 25.255 35.1498 25.4761 35.0547 25.6532C34.9667 25.8172 34.8866 25.9835 34.8135 26.1513L21.9922 48.3622C21.5779 49.0793 20.6606 49.3251 19.9434 48.911L4.35645 39.912C4.14308 39.7888 3.97259 39.6204 3.84766 39.4267L9.33887 42.5966L10.1855 41.1317C11.4867 38.8781 11.1368 36.1255 9.51367 34.2704C10.345 33.8965 11.0719 33.2685 11.5625 32.4188C12.0984 31.4904 12.2659 30.45 12.1104 29.4677C12.088 29.3273 11.999 29.2077 11.876 29.1366L9.60156 27.8231L12.7422 29.6366C12.8653 29.7077 13.0138 29.7247 13.1465 29.6737C14.0751 29.3172 14.8916 28.6511 15.4277 27.7226C15.9637 26.7941 16.1321 25.7538 15.9766 24.7714C15.9542 24.6311 15.8652 24.5114 15.7422 24.4403L16.2842 24.7528C16.1004 25.3018 16 25.8891 16 26.4999C16 29.5374 18.4625 31.9999 21.5 31.9999C24.5374 31.9998 27 29.5374 27 26.4999C27 23.4624 24.5375 21 21.5 20.9999C20.9337 20.9999 20.3871 21.0851 19.873 21.244C19.9137 20.8526 19.9026 20.46 19.8418 20.0761C19.8196 19.9356 19.7315 19.8152 19.6084 19.744L17.8789 18.745C18.0015 18.8149 18.1484 18.8317 18.2803 18.7811C19.2089 18.4247 20.0264 17.7595 20.5625 16.831C21.0985 15.9025 21.2658 14.8621 21.1104 13.8798C21.0881 13.7393 20.9991 13.6189 20.876 13.5478L18.6025 12.2343L23.3926 3.94033ZM22.7129 42.4345C20.481 41.146 17.6276 41.9108 16.3389 44.1425L15.6719 45.2978L20.8682 48.2978L23.8682 43.1015L22.7129 42.4345ZM21.3232 9.14541L22.5752 9.86806C24.9952 11.2651 28.0901 10.4364 29.4873 8.0165L30.21 6.76455L24.5762 3.51162L21.3232 9.14541Z" fill="oklch(0.3057 0.079 256.22 / 0.13)" class="wd-expressive-accent"></path>
<g>
<path d="M27.2769 44.0845C27.43 43.8548 27.7405 43.7929 27.9702 43.9459L29.5728 45.0142C30.0891 45.3583 30.6788 45.5778 31.2944 45.6549L32.2583 45.775C33.7017 45.9558 35.0301 46.6555 35.9966 47.7428L38.4146 50.4625C38.598 50.6688 38.5798 50.9851 38.3735 51.1685L37.6265 51.8326C37.4202 52.016 37.1039 51.9978 36.9204 51.7916L34.5015 49.0709C33.8571 48.3463 32.9715 47.8798 32.0093 47.7594L31.0464 47.6392C30.1227 47.5236 29.238 47.1946 28.4634 46.6783L26.8609 45.6099C26.6314 45.4567 26.5692 45.1462 26.7222 44.9166L27.2769 44.0845Z" fill="oklch(0.3523 0 0 / 1)" class="wd-expressive-fill"></path>
<path d="M23.3833 3.93318C23.7975 3.21579 24.7147 2.97016 25.4321 3.38435L41.0191 12.3834C41.7363 12.7977 41.982 13.7149 41.5679 14.4322L41.1206 15.2056C41.1197 15.2073 41.1196 15.2098 41.1187 15.2115L40.3052 16.6207C40.1671 16.8598 39.8607 16.9413 39.6216 16.8033L38.7554 16.3033C38.5165 16.1652 38.4348 15.8597 38.5728 15.6207L39.5855 13.8648L36.1226 11.8648L35.9566 12.1539C35.7094 12.582 35.5584 13.038 35.4966 13.4976C35.4598 13.7714 35.2396 13.9977 34.9634 13.9986L33.9634 14.0015C33.6876 14.0022 33.4607 13.7793 33.4839 13.5045C33.5523 12.7 33.7949 11.8973 34.2241 11.1539L34.3902 10.8648L30.061 8.3658L29.8941 8.65486C28.3293 11.3651 24.8641 12.2947 22.1538 10.7301L22.1528 10.7291L21.8638 10.5621L20.8237 12.3629L21.3765 12.6822C21.7371 12.8906 22.0246 13.259 22.0982 13.7232C22.2882 14.9236 22.0829 16.1967 21.4282 17.3306C21.0757 17.9412 20.6219 18.4576 20.1021 18.8736L20.1079 18.8775C20.4687 19.0859 20.7561 19.4552 20.8296 19.9195C21.0196 21.1199 20.8144 22.393 20.1597 23.5269C19.505 24.6607 18.5051 25.4752 17.3706 25.9107C17.2502 25.9569 17.1278 25.9837 17.0064 25.9967C16.9339 26.7585 16.7016 27.518 16.2944 28.2232C15.6397 29.3571 14.639 30.1714 13.5044 30.607C13.384 30.6532 13.2615 30.68 13.1401 30.6929C13.0677 31.4546 12.8352 32.2135 12.4282 32.9185C11.7736 34.0524 10.7736 34.8667 9.63917 35.3023C9.20042 35.4708 8.73728 35.4069 8.37648 35.1988L7.82472 34.8795L5.78175 38.4185L9.27199 40.4332L9.43409 40.1539C9.86683 39.4041 10.0053 38.5658 9.88429 37.7711C9.84278 37.4981 9.99052 37.2202 10.2554 37.1422L11.2134 36.8599C11.4783 36.7816 11.7594 36.9328 11.814 37.2037C12.0765 38.5073 11.8839 39.9109 11.1665 41.1539L11.0044 41.4332L15.311 43.9205L15.4722 43.6431C17.037 40.9328 20.5031 40.0041 23.2134 41.5689L23.4956 41.732L29.8833 30.6705C30.0214 30.4314 30.3278 30.3489 30.5669 30.4869L30.9995 30.7379L31.4321 30.9869C31.6712 31.125 31.7528 31.4314 31.6148 31.6705L27.8765 38.1441L27.8775 38.1451L21.9849 48.3512C21.5706 49.0683 20.6534 49.314 19.936 48.9L4.34913 39.901C3.63176 39.4868 3.38624 38.5695 3.80031 37.8521L6.0923 33.8804L5.55128 33.5679C5.19055 33.3596 4.90313 32.9902 4.8296 32.526C4.63967 31.3257 4.84489 30.0524 5.49952 28.9185C5.90667 28.2134 6.44735 27.6317 7.07081 27.1881C7.02161 27.0768 6.98451 26.9575 6.96437 26.8306C6.77432 25.6303 6.97962 24.3572 7.63429 23.2232C8.18725 22.2655 8.98619 21.536 9.9048 21.0699C9.84913 20.0413 10.0813 18.9847 10.6343 18.0269C11.289 16.8929 12.2887 16.0788 13.4234 15.6431C13.5435 15.597 13.6655 15.5692 13.7866 15.5562C13.8591 14.7946 14.0925 14.0357 14.4995 13.3306C15.1542 12.1968 16.1541 11.3825 17.2886 10.9469C17.7274 10.7784 18.1905 10.8431 18.5513 11.0513L19.0923 11.3629L23.3833 3.93318ZM22.2134 43.3004C20.4597 42.288 18.2171 42.8895 17.2046 44.6431L17.0435 44.9205L20.5025 46.9176L22.4956 43.4635L22.2134 43.3004ZM8.77589 28.5015C8.14978 28.7946 7.60433 29.2737 7.23195 29.9185C6.85944 30.5637 6.71745 31.2763 6.77687 31.9654L9.15187 33.3375C9.77813 33.0444 10.3234 32.5636 10.6958 31.9185C11.0681 31.2736 11.2112 30.5615 11.1519 29.8726L11.1362 29.8638L8.77589 28.5015ZM10.9097 22.8053C10.2835 23.0984 9.7381 23.5783 9.36574 24.2232C8.99342 24.8683 8.85128 25.5802 8.91066 26.2691L12.3765 28.2701C12.3789 28.2715 12.3809 28.2736 12.3833 28.275L13.0181 28.6412C13.6442 28.3481 14.1896 27.8681 14.562 27.2232C14.9344 26.5782 15.0774 25.8653 15.0181 25.1763L10.9097 22.8053ZM13.9107 17.609C13.2842 17.902 12.7382 18.3817 12.3657 19.0269C11.9934 19.672 11.8513 20.3839 11.9107 21.0728L16.2427 23.5738C16.2451 23.5752 16.2471 23.5773 16.2495 23.5787L16.8843 23.9449C17.5105 23.6518 18.0558 23.1719 18.4282 22.5269C18.8006 21.882 18.9435 21.1698 18.8843 20.481L14.5513 17.9791C14.5503 17.9785 14.5494 17.9777 14.5484 17.9771L13.9107 17.609ZM17.7769 12.9127C17.1504 13.2058 16.6045 13.6854 16.2319 14.3306C15.8596 14.9757 15.7175 15.6876 15.7769 16.3765L18.1519 17.7476C18.778 17.4546 19.3234 16.9755 19.6958 16.3306C20.0682 15.6857 20.2111 14.9736 20.1519 14.2847L17.7769 12.9127ZM22.8648 8.83064L23.1538 8.99763L23.3198 9.08846C25.0467 9.97174 27.1818 9.35365 28.1626 7.65486L28.3296 7.3658L24.8648 5.3658L22.8648 8.83064Z" fill="oklch(0.3523 0 0 / 1)" class="wd-expressive-fill"></path>
<path d="M26.8462 13.4615C27.2178 12.6085 28.2199 12.3716 28.938 12.7857L42.1743 20.4273C43.8591 21.4 44.9497 23.1175 45.2066 25.0113C45.4735 26.9803 45.9261 29.823 46.604 32.5933C46.7241 33.0838 46.9847 33.5399 47.356 33.9137L51.356 37.941C51.5505 38.1368 51.5497 38.4534 51.354 38.648L50.645 39.3521C50.4492 39.5468 50.1327 39.546 49.938 39.3502L45.937 35.3238C45.325 34.7077 44.8713 33.9347 44.6597 33.0699C44.2918 31.5664 43.9897 30.0489 43.7466 28.6588C43.7454 28.652 43.7455 28.645 43.7446 28.6383C43.5252 27.3826 43.3527 26.2293 43.2241 25.2808C43.0458 23.9661 42.2928 22.805 41.1734 22.1588L28.4693 14.8248C28.1299 15.8836 28.0798 17.0479 28.3892 18.2027C28.7951 19.7172 29.744 20.9382 30.9722 21.7164L35.4146 24.2887L35.5308 24.3638C36.0456 24.7349 36.2387 25.4153 35.9956 26.0015L35.936 26.1256L35.8062 26.3824C34.5399 29.0511 35.5244 32.272 38.1099 33.7652L40.8081 35.3238L39.8091 37.0553L37.1109 35.4986C33.683 33.5195 32.3411 29.292 33.9097 25.7281L29.9458 23.4342L29.9292 23.4244L29.9136 23.4137C28.2722 22.3778 26.9987 20.7435 26.4566 18.7203C25.9699 16.9038 26.1498 15.0622 26.8462 13.4615Z" fill="oklch(0.3523 0 0 / 1)" class="wd-expressive-fill"></path>
<path d="M22.6519 21.1226C23.3916 21.2811 24.0933 21.5911 24.7105 22.0347C25.4632 22.576 26.0677 23.2993 26.4663 24.1363C26.8647 24.9733 27.0451 25.8984 26.9907 26.8238C26.9362 27.7492 26.6487 28.6467 26.1548 29.4312C25.6609 30.2156 24.9764 30.8629 24.1655 31.3121C23.3546 31.7612 22.4422 31.998 21.5152 32.0006C20.588 32.003 19.6743 31.7706 18.8609 31.3258C18.1939 30.9609 17.6116 30.4616 17.1489 29.8629C16.9804 29.6445 17.0503 29.3346 17.2827 29.1861L18.1265 28.649C18.3594 28.5007 18.6662 28.5715 18.8462 28.7808C19.1201 29.0995 19.4499 29.368 19.8208 29.5709C20.3383 29.8538 20.9195 30.002 21.5093 30.0006C22.0991 29.9989 22.6798 29.8478 23.1958 29.5621C23.7119 29.2762 24.1481 28.8641 24.4624 28.3648C24.7766 27.8656 24.96 27.2944 24.9946 26.7056C25.0292 26.1169 24.9142 25.5282 24.6607 24.9957C24.4071 24.4632 24.0223 24.0031 23.5435 23.6588C23.2002 23.412 22.8155 23.2299 22.4097 23.1207C22.143 23.0489 21.9459 22.8031 21.979 22.5289L22.0396 22.0328L22.0991 21.5367C22.1323 21.2627 22.382 21.0651 22.6519 21.1226Z" fill="oklch(0.3523 0 0 / 1)" class="wd-expressive-fill"></path>
</g>
</svg>