<svg role="presentation" width="56" height="56" viewBox="0 0 56 56" xmlns="http://www.w3.org/2000/svg" class="wd-expressive wd-expressive-scroll-list-coin">
<g>
<path d="M50 41C50 42.6569 46.4183 44 42 44C40.6856 44 39.4456 43.8796 38.3516 43.6689C39.7873 44.4716 42.2291 45 45 45C49.4183 45 53 43.6569 53 42V46C53 46.9473 51.8287 47.791 50 48.3408V50C50 51.6569 46.4183 53 42 53C37.5817 53 34 51.6569 34 50V46C34 47.6569 37.5817 49 42 49C42.5127 49 43.0141 48.9809 43.5 48.9463C39.7987 48.683 37 47.4646 37 46V43.3408C35.1713 42.791 34 41.9473 34 41V37C34 38.6569 37.5817 40 42 40C46.4183 40 50 38.6569 50 37V41Z" fill="oklch(0.3057 0.079 256.22 / 0.13)" class="wd-expressive-accent"></path>
<path d="M30 51H10C7.23858 51 5 48.7614 5 46H30V51Z" fill="oklch(0.3057 0.079 256.22 / 0.13)" class="wd-expressive-accent"></path>
<path d="M19 29C20.1046 29 21 29.8954 21 31C21 32.1046 20.1046 33 19 33C17.8954 33 17 32.1046 17 31C17 29.8954 17.8954 29 19 29Z" fill="oklch(0.3057 0.079 256.22 / 0.13)" class="wd-expressive-accent"></path>
<path d="M19 21C20.1046 21 21 21.8954 21 23C21 24.1046 20.1046 25 19 25C17.8954 25 17 24.1046 17 23C17 21.8954 17.8954 21 19 21Z" fill="oklch(0.3057 0.079 256.22 / 0.13)" class="wd-expressive-accent"></path>
<path d="M19 13C20.1046 13 21 13.8954 21 15C21 16.1046 20.1046 17 19 17C17.8954 17 17 16.1046 17 15C17 13.8954 17.8954 13 19 13Z" fill="oklch(0.3057 0.079 256.22 / 0.13)" class="wd-expressive-accent"></path>
<path d="M45.5 5C47.7091 5.00001 49 6.79087 49 9C49.1534 11.0059 49.5 10.134 49 11L43 10.5C43 8.29086 43.2909 5 45.5 5Z" fill="oklch(0.3057 0.079 256.22 / 0.13)" class="wd-expressive-accent"></path>
</g>
<g>
<path d="M42 33C44.2972 33 46.4215 33.3476 48.0078 33.9424C48.7973 34.2384 49.5062 34.615 50.0352 35.084C50.5628 35.5519 50.9999 36.1973 51 37V38.9395C51.0026 38.9404 51.0052 38.9414 51.0078 38.9424C51.7973 39.2384 52.5062 39.615 53.0352 40.084C53.5628 40.5519 53.9999 41.1973 54 42V46C54 46.8027 53.5628 47.4481 53.0352 47.916C52.5062 48.385 51.7972 48.7616 51.0078 49.0576C51.0054 49.0585 51.0025 49.0587 51 49.0596V50C51 50.8027 50.5628 51.4481 50.0352 51.916C49.5062 52.385 48.7972 52.7616 48.0078 53.0576C46.4215 53.6524 44.2972 54 42 54C39.7028 54 37.5785 53.6525 35.9922 53.0576C35.2027 52.7616 34.4938 52.385 33.9648 51.916C33.4372 51.4481 33 50.8028 33 50V46C33.0001 45.1973 33.4372 44.5519 33.9648 44.084C34.206 43.8702 34.4854 43.6765 34.792 43.5C34.4854 43.3234 34.2061 43.1299 33.9648 42.916C33.4372 42.4481 33 41.8028 33 41V37C33.0001 36.1973 33.4372 35.5519 33.9648 35.084C34.4938 34.6151 35.2028 34.2384 35.9922 33.9424C37.5785 33.3476 39.7028 33 42 33ZM35 50C35 50.0255 35.0102 50.17 35.292 50.4199C35.5727 50.6687 36.0363 50.9378 36.6943 51.1846C37.7935 51.5968 39.2922 51.8887 41 51.9727V49.9766C39.0903 49.8913 37.3454 49.5651 35.9922 49.0576C35.6425 48.9265 35.3094 48.778 35 48.6143V50ZM43 49.9766V51.9727C43.707 51.9379 44.3782 51.869 45 51.7686V50C44.4881 50 43.9848 49.9816 43.4941 49.9482C43.3308 49.9593 43.166 49.9692 43 49.9766ZM49 49.6201C48.3712 49.7477 47.7004 49.8449 47 49.9092V51.291C47.1048 51.256 47.2071 51.2215 47.3057 51.1846C47.9637 50.9378 48.4273 50.6687 48.708 50.4199C48.9898 50.1701 49 50.0255 49 50V49.6201ZM48 45.791C47.059 45.9261 46.0476 46 45 46V48C46.0774 48 47.0913 47.9153 48 47.7686V45.791ZM38 46C38 46.0255 38.0102 46.17 38.292 46.4199C38.5727 46.6687 39.0363 46.9378 39.6943 47.1846C40.5732 47.5141 41.7077 47.7647 43 47.8965V45.9092C41.4833 45.7699 40.1053 45.475 38.9922 45.0576C38.6493 44.929 38.3229 44.783 38.0186 44.623C38.0124 44.6218 38.0061 44.6214 38 44.6201V46ZM52 44.6143C51.6906 44.778 51.3575 44.9265 51.0078 45.0576C50.6924 45.1759 50.3551 45.2829 50 45.3809V47.291C50.1048 47.256 50.2071 47.2215 50.3057 47.1846C50.9637 46.9378 51.4273 46.6687 51.708 46.4199C51.9898 46.1701 52 46.0255 52 46V44.6143ZM36 45.1182C35.6961 45.2733 35.4609 45.4304 35.292 45.5801C35.0107 45.8295 35 45.974 35 46C35 46.0255 35.0102 46.17 35.292 46.4199C35.5029 46.6069 35.817 46.8053 36.2393 46.9971C36.0907 46.6987 36 46.3656 36 46V45.1182ZM50.9961 41.1162C50.9563 41.8652 50.5371 42.4709 50.0352 42.916C49.7769 43.145 49.475 43.3508 49.1426 43.5371C49.5663 43.4328 49.9564 43.3155 50.3057 43.1846C50.9637 42.9378 51.4273 42.6687 51.708 42.4199C51.9898 42.1701 52 42.0255 52 42C52 41.974 51.9893 41.8295 51.708 41.5801C51.5384 41.4297 51.3019 41.272 50.9961 41.1162ZM45 40.791C44.059 40.9261 43.0476 41 42 41C41.3147 41 40.6448 40.9684 40 40.9092V42.8965C40.6327 42.961 41.3029 43 42 43C43.0774 43 44.0913 42.9153 45 42.7686V40.791ZM35 41C35 41.0255 35.0102 41.17 35.292 41.4199C35.5727 41.6687 36.0363 41.9378 36.6943 42.1846C37.0823 42.3301 37.5209 42.4572 38 42.5693V40.6201C37.2671 40.4714 36.5913 40.2823 35.9922 40.0576C35.6425 39.9265 35.3094 39.778 35 39.6143V41ZM49 39.6143C48.6906 39.778 48.3575 39.9265 48.0078 40.0576C47.6924 40.1759 47.3551 40.2829 47 40.3809V42.291C47.1048 42.256 47.2071 42.2215 47.3057 42.1846C47.9637 41.9378 48.4273 41.6687 48.708 41.4199C48.9898 41.1701 49 41.0255 49 41V39.6143ZM42 35C39.8791 35 38.0035 35.3245 36.6943 35.8154C36.0363 36.0622 35.5727 36.3313 35.292 36.5801C35.0107 36.8295 35 36.974 35 37C35 37.0255 35.0102 37.17 35.292 37.4199C35.5727 37.6687 36.0363 37.9378 36.6943 38.1846C38.0035 38.6755 39.879 39 42 39C44.1209 39 45.9966 38.6755 47.3057 38.1846C47.9637 37.9378 48.4273 37.6687 48.708 37.4199C48.9898 37.1701 49 37.0255 49 37C49 36.974 48.9893 36.8295 48.708 36.5801C48.4273 36.3313 47.9637 36.0622 47.3057 35.8154C45.9966 35.3245 44.1209 35 42 35Z" fill="oklch(0.3523 0 0 / 1)" class="wd-expressive-fill"></path>
<path d="M46 4L46.2061 4.00488C48.3194 4.11218 50 5.86 50 8V10.5C50 11.3284 49.3284 11.9999 48.5 12H44V29.5C44 29.7761 43.7761 30 43.5 30H42.5C42.2239 30 42 29.7761 42 29.5V8C42 7.27122 42.1956 6.58846 42.5361 6H16C14.5399 6 13.0001 7.57118 13 10V42H29.5C29.776 42.0001 29.9999 42.224 30 42.5V43.5C30 43.7761 29.7761 43.9999 29.5 44H7.0127C6.38993 44.6331 6.00004 45.5162 6 46.5C6.00005 48.4603 7.53633 49.9999 9.37109 50H29.5C29.776 50 29.9999 50.224 30 50.5V51.5C30 51.7761 29.7761 52 29.5 52H9.37109C6.37757 51.9999 4.00005 49.5099 4 46.5C4.00005 44.783 4.77008 43.2421 5.9834 42.2314L6.26172 42H11V10C11.0001 6.90611 13.0419 4 16 4H46ZM46 6C44.8954 6 44 6.89543 44 8V10H48V8C48 6.89547 47.1045 6.00007 46 6Z" fill="oklch(0.3523 0 0 / 1)" class="wd-expressive-fill"></path>
<path d="M19 28C20.6568 28.0001 22 29.3432 22 31C22 32.6568 20.6568 33.9999 19 34C17.3431 34 16 32.6569 16 31C16 29.3431 17.3431 28 19 28ZM19 30C18.4477 30 18 30.4477 18 31C18 31.5523 18.4477 32 19 32C19.5522 31.9999 20 31.5522 20 31C20 30.4478 19.5522 30.0001 19 30Z" fill="oklch(0.3523 0 0 / 1)" class="wd-expressive-fill"></path>
<path d="M32.5 30C32.776 30 32.9999 30.224 33 30.5V31.5C33 31.7761 32.7761 32 32.5 32H25.5C25.2239 32 25 31.7761 25 31.5V30.5C25.0001 30.2239 25.2239 30 25.5 30H32.5Z" fill="oklch(0.3523 0 0 / 1)" class="wd-expressive-fill"></path>
<path d="M19 20C20.6568 20.0001 22 21.3432 22 23C22 24.6568 20.6568 25.9999 19 26C17.3431 26 16 24.6569 16 23C16 21.3431 17.3431 20 19 20ZM19 22C18.4477 22 18 22.4477 18 23C18 23.5523 18.4477 24 19 24C19.5522 23.9999 20 23.5522 20 23C20 22.4478 19.5522 22.0001 19 22Z" fill="oklch(0.3523 0 0 / 1)" class="wd-expressive-fill"></path>
<path d="M36.5 22C36.7761 22 36.9999 22.224 37 22.5V23.5C37 23.7761 36.7761 24 36.5 24H25.5C25.2239 24 25 23.7761 25 23.5V22.5C25.0001 22.2239 25.2239 22 25.5 22H36.5Z" fill="oklch(0.3523 0 0 / 1)" class="wd-expressive-fill"></path>
<path d="M19 12C20.6568 12.0001 22 13.3432 22 15C22 16.6568 20.6568 17.9999 19 18C17.3431 18 16 16.6569 16 15C16 13.3431 17.3431 12 19 12ZM19 14C18.4477 14 18 14.4477 18 15C18 15.5523 18.4477 16 19 16C19.5522 15.9999 20 15.5522 20 15C20 14.4478 19.5522 14.0001 19 14Z" fill="oklch(0.3523 0 0 / 1)" class="wd-expressive-fill"></path>
<path d="M36.5 14C36.7761 14 36.9999 14.224 37 14.5V15.5C37 15.7761 36.7761 16 36.5 16H25.5C25.2239 16 25 15.7761 25 15.5V14.5C25.0001 14.2239 25.2239 14 25.5 14H36.5Z" fill="oklch(0.3523 0 0 / 1)" class="wd-expressive-fill"></path>
</g>
</svg>