<svg role="presentation" width="56" height="56" viewBox="0 0 56 56" xmlns="http://www.w3.org/2000/svg" class="wd-expressive wd-expressive-globe-earth">
<g>
<path d="M37.9873 6.1709C39.282 6.76422 40.5143 7.46986 41.6729 8.27441L39.7148 13.6592C39.0798 15.4057 40.1696 17.3043 41.998 17.6367L42.1348 17.6611C43.3366 17.8797 44.4172 18.5307 45.1719 19.4912L51.9971 28.1787C51.9041 40.9304 41.8686 51.3161 29.2568 51.9668L41.3467 41.7178C44.2266 39.276 43.6172 34.6737 40.2012 33.0654C39.4473 32.7106 38.9085 32.0094 38.7549 31.1904C38.0834 27.6096 34.482 25.3463 30.9736 26.3281L27.2041 27.3828C25.9027 27.7471 24.5177 27.1968 23.8223 26.0381L23.4619 25.4355C22.611 24.0175 20.8802 23.3922 19.3193 23.9385L18.7324 24.1445C17.8861 24.4407 17.0003 23.8125 17 22.916C17 21.7341 17.6407 20.6444 18.6738 20.0703L19.2217 19.7666C20.5702 19.0175 22.2519 19.253 23.3428 20.3438L24.915 21.915C25.1809 22.1807 25.6341 22.0697 25.7461 21.7109L26.876 18.0811C27.4848 16.1261 28.9199 14.5354 30.8018 13.7285L31.916 13.251C32.2132 13.1231 32.3123 12.7502 32.1182 12.4912L31.165 11.2207C30.346 10.1286 30.8377 8.55473 32.1328 8.12305L37.9873 6.1709Z" fill="oklch(0.3057 0.079 256.22 / 0.13)" class="wd-expressive-accent"></path>
<path d="M13.5645 12.1699C13.8477 14.0111 13.5528 15.8953 12.7197 17.5615C10.9626 21.0757 12.4799 25.3466 16.0605 26.9639L22.6797 29.9521C23.8424 30.4776 24.1794 31.9701 23.3555 32.9443C21.3747 35.2853 22.0643 38.8581 24.7744 40.293L26.6162 41.2676C27.429 41.6982 27.8432 42.6282 27.6201 43.5205L25.5312 51.874C13.4363 50.6381 4 40.4213 4 28C4 20.3731 7.55816 13.5777 13.1045 9.18164L13.5645 12.1699Z" fill="oklch(0.3057 0.079 256.22 / 0.13)" class="wd-expressive-accent"></path>
<path d="M28 4C28.7601 4 29.5119 4.03635 30.2539 4.10547L29.4902 5.39746C28.415 7.21423 26.7921 8.64424 24.8545 9.48242L24.3877 9.68457C23.622 10.0157 22.8111 9.31846 23.0234 8.51172L24.1279 4.31152C25.3884 4.10706 26.6817 4 28 4Z" fill="oklch(0.3057 0.079 256.22 / 0.13)" class="wd-expressive-accent"></path>
</g>
<path d="M28 3C28.7487 3 29.4897 3.03417 30.2217 3.09863C30.2455 3.10071 30.2692 3.10332 30.293 3.10547C30.4506 3.1198 30.6079 3.13509 30.7646 3.15234C30.8083 3.15711 30.8519 3.162 30.8955 3.16699C31.0316 3.18269 31.1673 3.1999 31.3027 3.21777C31.3702 3.22664 31.4376 3.23571 31.5049 3.24512C31.6321 3.26297 31.7591 3.28102 31.8857 3.30078C31.8874 3.30104 31.889 3.3015 31.8906 3.30176C43.8504 5.17016 53 15.516 53 28C53 41.527 42.2566 52.5429 28.8369 52.9844C28.8317 52.9846 28.8265 52.9852 28.8213 52.9854C28.5486 52.9942 28.2748 53 28 53C14.1929 53 3 41.8071 3 28C3 20.2659 6.51215 13.3524 12.0283 8.7666C12.0384 8.75819 12.0485 8.74961 12.0586 8.74121C12.1579 8.65896 12.2588 8.57879 12.3594 8.49805C12.4061 8.46053 12.452 8.42195 12.499 8.38477C12.6273 8.28325 12.7574 8.184 12.8877 8.08496C12.9049 8.07193 12.9213 8.05791 12.9385 8.04492C15.9432 5.77351 19.477 4.16635 23.3223 3.43848L23.3232 3.4375C23.3518 3.43209 23.3806 3.42719 23.4092 3.42188C23.5245 3.40048 23.64 3.38016 23.7559 3.36035C23.8335 3.34703 23.9113 3.3339 23.9893 3.32129C24.0913 3.30483 24.1935 3.28865 24.2959 3.27344C24.4232 3.25445 24.5508 3.23678 24.6787 3.21973C24.7376 3.21191 24.7965 3.20369 24.8555 3.19629C25.0181 3.1758 25.1812 3.15694 25.3447 3.13965C25.3825 3.13566 25.4202 3.13077 25.458 3.12695C25.4632 3.12643 25.4684 3.1265 25.4736 3.12598C26.3047 3.04254 27.1469 3 28 3ZM30.3506 5.90723C29.1678 7.90543 27.3822 9.47849 25.251 10.4004L24.7842 10.6025C23.2533 11.264 21.6328 9.87078 22.0566 8.25781L22.7539 5.60059C19.5971 6.33703 16.6899 7.72348 14.1816 9.61133L14.5527 12.0186C14.8673 14.0642 14.5399 16.1586 13.6143 18.0098C12.1117 21.016 13.4097 24.6693 16.4727 26.0527L23.0908 29.041C24.859 29.84 25.3716 32.1095 24.1182 33.5908C22.5503 35.4443 23.0968 38.273 25.2422 39.4092L27.083 40.3838C28.3023 41.0296 28.9245 42.4251 28.5898 43.7637L26.7871 50.9678C27.1888 50.9886 27.5931 51 28 51C28.292 51 28.5827 50.9922 28.8721 50.9814L40.7002 40.9551C43.0247 38.9838 42.5319 35.269 39.7744 33.9707C38.7282 33.4781 37.984 32.5069 37.7715 31.375C37.207 28.3649 34.1795 26.4689 31.2422 27.291L27.4736 28.3467C25.7388 28.8321 23.892 28.0973 22.9648 26.5527L22.6035 25.9512C21.9967 24.9399 20.7626 24.4933 19.6494 24.8828L19.0625 25.0889C17.5663 25.6122 16.0005 24.501 16 22.916C16 21.3711 16.8382 19.9478 18.1885 19.1973L18.7363 18.8926C20.475 17.9269 22.6433 18.2305 24.0498 19.6367L25.0361 20.623L25.9209 17.7842C26.6166 15.5501 28.2568 13.7328 30.4072 12.8105L30.9365 12.583L30.3652 11.8213C29.1368 10.1833 29.8742 7.82258 31.8164 7.1748L35.041 6.09863C33.6743 5.6596 32.252 5.34492 30.7871 5.16797L30.3506 5.90723ZM12.3887 11.1104C7.84519 15.312 5 21.3235 5 28C5 39.608 13.5997 49.2053 24.7754 50.7734L26.6504 43.2783C26.7619 42.8323 26.5536 42.3667 26.1475 42.1514L24.3066 41.1768C21.0327 39.4432 20.1992 35.1271 22.5918 32.2988C22.9867 31.8318 22.8247 31.1164 22.2676 30.8643L15.6494 27.875C11.5516 26.0242 9.81486 21.1371 11.8252 17.1152C12.5655 15.6345 12.8277 13.9595 12.5762 12.3232L12.3887 11.1104ZM32.4482 9.07227C31.8014 9.28856 31.5555 10.0753 31.9648 10.6211L32.918 11.8926C33.5003 12.6699 33.2023 13.7879 32.3096 14.1709L31.1953 14.6484C29.5826 15.3401 28.3529 16.7035 27.8311 18.3789L26.7012 22.0088C26.3653 23.0849 25.0056 23.4199 24.208 22.623L22.6357 21.0508C21.8606 20.2759 20.6652 20.1084 19.707 20.6406L19.1602 20.9453C18.4447 21.343 18 22.0974 18 22.916C18.0005 23.1232 18.2056 23.2691 18.4014 23.2012L18.9893 22.9951C20.9977 22.2924 23.2235 23.0973 24.3184 24.9219L24.6797 25.5234C25.1433 26.2954 26.0673 26.6634 26.9346 26.4209L30.7031 25.3652C34.7825 24.2234 38.9588 26.8553 39.7373 31.0068C39.8324 31.5118 40.1653 31.9441 40.626 32.1611C44.7004 34.0792 45.4281 39.568 41.9932 42.4805L32.4521 50.5674C42.8596 48.5259 50.7495 39.4669 50.9922 28.5195L44.3848 20.1094C43.7811 19.3414 42.9162 18.8204 41.9551 18.6455L41.8184 18.6211C39.3811 18.1775 37.9291 15.6467 38.7754 13.3184L40.4648 8.66797C39.6518 8.14266 38.804 7.66631 37.9248 7.24512L32.4482 9.07227ZM40.6543 14.002C40.2316 15.1659 40.9583 16.4315 42.1768 16.6533L42.3135 16.6777C43.7555 16.9401 45.0524 17.7215 45.958 18.874L50.8125 25.0527C50.0256 18.9009 46.8086 13.5089 42.1543 9.87012L40.6543 14.002ZM28 5C26.9579 5 25.9321 5.06985 24.9268 5.2041L23.9902 8.7666L24.457 8.56445C26.1578 7.8287 27.5873 6.58469 28.5547 5.00684C28.3703 5.00247 28.1854 5 28 5Z" fill="oklch(0.3523 0 0 / 1)" class="wd-expressive-fill"></path>
</svg>