<svg role="presentation" width="56" height="56" viewBox="0 0 56 56" xmlns="http://www.w3.org/2000/svg" class="wd-expressive wd-expressive-easel-table">
<g>
<path d="M51.9995 42H42.8794L45.5962 48.6211C45.8655 49.2789 45.3814 50 44.6704 50H42.5093C42.1038 49.9999 41.7385 49.7549 41.5845 49.3799L38.5571 42H17.4438L14.4165 49.3799C14.2625 49.7548 13.897 49.9998 13.4917 50H11.3286C10.6179 49.9997 10.1345 49.2788 10.4038 48.6211L13.1206 42H3.99951V39H51.9995V42Z" fill="oklch(0.3057 0.079 256.22 / 0.13)" class="wd-expressive-accent"></path>
<path d="M43.9995 27H35.9995V33H12.9995V27H27.9995V21H35.9995V15H43.9995V27Z" fill="oklch(0.3057 0.079 256.22 / 0.13)" class="wd-expressive-accent"></path>
<path d="M27.9995 21H19.9995V15H27.9995V21Z" fill="oklch(0.3057 0.079 256.22 / 0.13)" class="wd-expressive-accent"></path>
<path d="M40.9995 9H14.9995V5.99902H40.9995V9Z" fill="oklch(0.3057 0.079 256.22 / 0.13)" class="wd-expressive-accent"></path>
</g>
<g>
<path d="M44 14C44.5523 14 45 14.4477 45 15V33C45 33.5523 44.5523 34 44 34H12C11.4477 34 11 33.5523 11 33V15C11 14.4477 11.4477 14 12 14H44ZM13 32H19V28H13V32ZM21 32H27V28H21V32ZM29 32H35V28H29V32ZM37 32H43V28H37V32ZM13 26H19V22H13V26ZM21 26H27V22H21V26ZM29 26H35V22H29V26ZM37 26H43V22H37V26ZM13 20H19V16H13V20ZM21 20H27V16H21V20ZM29 20H35V16H29V20ZM37 20H43V16H37V20Z" fill="oklch(0.3523 0 0 / 1)" class="wd-expressive-fill"></path>
<path d="M41 5C41.5522 5 41.9999 5.44778 42 6V7H50.5C51.3284 7 51.9999 7.67164 52 8.5V38L52.1025 38.0049C52.6066 38.0562 52.9999 38.4824 53 39V42C52.9997 42.552 52.5521 43 52 43H44.3711L46.5215 48.2412C47.0609 49.5569 46.0938 50.9996 44.6719 51H42.5098C41.6987 50.9998 40.9671 50.5092 40.6592 49.7588L37.8857 43H18.1143L15.3418 49.7588C15.0338 50.5092 14.3033 50.9998 13.4922 51H11.3291C9.90723 50.9995 8.94013 49.5569 9.47949 48.2412L11.6299 43H4C3.44793 43 3.00034 42.552 3 42V39C3.00007 38.4824 3.39341 38.0562 3.89746 38.0049L4 38V8.5C4.00008 7.67164 4.67162 7 5.5 7H14V6C14.0001 5.44778 14.4478 5 15 5H41ZM11.3291 49H13.4922L15.9541 43H13.791L11.3291 49ZM42.5098 49H44.6719L42.21 43H40.0479L42.5098 49ZM5 41H51V40H5V41ZM6 38H50V9H42L41.9951 9.10156C41.9439 9.60586 41.5178 10 41 10H15C14.4822 10 14.0561 9.60586 14.0049 9.10156L14 9H6V38ZM16 8H40V7H16V8Z" fill="oklch(0.3523 0 0 / 1)" class="wd-expressive-fill"></path>
</g>
</svg>