<svg role="presentation" width="56" height="56" viewBox="0 0 56 56" xmlns="http://www.w3.org/2000/svg" class="wd-expressive wd-expressive-user-clipboard">
<g>
<path d="M40 49.4997C40.0001 49.7758 40.2239 50.0007 40.5 50.0007H50.5C50.7761 50.0007 51 50.2245 51 50.5007V52.5007C50.9997 52.7765 50.7759 53.0006 50.5 53.0007H37.5C37.2239 53.0007 37.0001 52.7758 37 52.4997V36.4997C37.0003 36.2238 37.2241 36.0007 37.5 36.0007H39.5C39.7761 36.0007 40 36.2245 40 36.5007V49.4997Z" fill="oklch(0.3057 0.079 256.22 / 0.13)" class="wd-expressive-accent"></path>
<path d="M9.78973 34.7954C9.87763 34.733 10 34.807 10 34.9147V43.9997C10 45.0353 10.7872 45.8867 11.7959 45.9889L12 45.9997H33.5C33.7761 45.9997 34 46.2235 34 46.4997V48.4997C34 48.7758 33.7761 48.9997 33.5 48.9997H9L8.7959 48.9889C7.78724 48.8867 7 48.0353 7 46.9997V37.9147C7.0001 37.346 7.24048 36.8015 7.6748 36.4343C8.35543 35.8588 9.06135 35.3122 9.78973 34.7954Z" fill="oklch(0.3057 0.079 256.22 / 0.13)" class="wd-expressive-accent"></path>
<path d="M44.001 33.9997C44.6373 33.9998 45.2025 34.2989 45.5684 34.7624C45.6788 34.9023 45.8403 34.9996 46.0186 34.9997H47.5C47.776 34.9997 47.9997 35.2238 48 35.4997V38.527C48 38.8032 47.7761 39.027 47.5 39.027H40.501C40.2249 39.027 40.001 38.8031 40.001 38.527V35.4997C40.0012 35.2238 40.2251 34.9998 40.501 34.9997H41.9824C42.1607 34.9997 42.3221 34.9023 42.4326 34.7624C42.7986 34.2988 43.3645 33.9997 44.001 33.9997Z" fill="oklch(0.3057 0.079 256.22 / 0.13)" class="wd-expressive-accent"></path>
<path d="M20.807 7.05584C21.1808 6.66894 21.7521 7.15501 21.5722 7.66202C21.202 8.70573 21 9.82905 21 10.9997C21 16.5225 25.4772 20.9997 31 20.9997C32.1707 20.9997 33.2937 20.7974 34.3372 20.4268C34.8441 20.2467 35.3301 20.8178 34.9433 21.1917C33.1453 22.9297 30.6984 23.9997 28 23.9997C22.4772 23.9997 18 19.5225 18 13.9997C18.0001 11.3016 19.0695 8.85416 20.807 7.05584Z" fill="oklch(0.3057 0.079 256.22 / 0.13)" class="wd-expressive-accent"></path>
</g>
<g>
<path d="M44.1797 33.0049C44.9967 33.0532 45.7235 33.4303 46.2334 34H47.5C48.1529 34 48.707 34.4177 48.9131 35H50.5C51.3284 35.0001 52 35.6716 52 36.5V52.5C52 53.3284 51.3283 53.9999 50.5 54H37.5C36.6716 53.9999 36 53.3284 36 52.5V36.5C36 35.6716 36.6717 35.0001 37.5 35H39.0879C39.2939 34.4177 39.8481 34.0001 40.501 34H41.7686C42.3156 33.3892 43.1119 33 44.001 33L44.1797 33.0049ZM38 52H50V37H49V38.5273C49 39.3558 48.3284 40.0273 47.5 40.0273H40.501C39.6726 40.0273 39.001 39.3557 39.001 38.5273V37H38V52ZM44.001 35C43.6846 35 43.402 35.1472 43.2168 35.3818C42.9668 35.6982 42.5393 36 41.9824 36H41.001V38.0273H47V36H46.0186C45.4615 35.9999 45.0341 35.6976 44.7842 35.3809C44.599 35.1463 44.3169 35.0001 44.001 35Z" fill="oklch(0.3523 0 0 / 1)" class="wd-expressive-fill"></path>
<path d="M28 28C32.2051 28 36.2258 28.7994 39.917 30.2549C40.1738 30.3561 40.2954 30.6481 40.1904 30.9033L39.8096 31.8281C39.7044 32.0835 39.4123 32.2054 39.1553 32.1045C35.7015 30.7466 31.9388 30 28 30C20.4988 30 13.6325 32.7071 8.32031 37.1982C8.12216 37.3658 8 37.6251 8 37.915V47C8 47.5523 8.44772 48 9 48H33.5C33.7761 48 34 48.2239 34 48.5V49.5C34 49.7761 33.7761 50 33.5 50H9C7.34315 50 6 48.6569 6 47V37.915C6 37.0672 6.35863 36.2379 7.0293 35.6709C12.689 30.886 20.0086 28 28 28Z" fill="oklch(0.3523 0 0 / 1)" class="wd-expressive-fill"></path>
<path d="M28 3C34.0751 3 39 7.92487 39 14C39 20.0751 34.0751 25 28 25C21.9249 25 17 20.0751 17 14C17 7.92487 21.9249 3 28 3ZM28 5C23.0294 5 19 9.02944 19 14C19 18.9706 23.0294 23 28 23C32.9706 23 37 18.9706 37 14C37 9.02944 32.9706 5 28 5Z" fill="oklch(0.3523 0 0 / 1)" class="wd-expressive-fill"></path>
</g>
</svg>