<svg role="presentation" width="56" height="56" viewBox="0 0 56 56" xmlns="http://www.w3.org/2000/svg" class="wd-expressive wd-expressive-lifesaver">
<g>
<path d="M23 37.7959C24.5006 38.5634 26.1988 39 28 39C29.0404 39 30.046 38.8519 31 38.582V51H23V37.7959Z" fill="oklch(0.3057 0.079 256.22 / 0.13)" class="wd-expressive-accent"></path>
<path d="M49.7949 25C49.9287 25.981 50 26.9823 50 28C50 29.7199 49.802 31.3936 49.4287 33H37.7969C38.5642 31.4995 39 29.801 39 28C39 26.9596 38.8519 25.954 38.582 25H49.7949Z" fill="oklch(0.3057 0.079 256.22 / 0.13)" class="wd-expressive-accent"></path>
<path d="M17.418 25C17.1481 25.954 17 26.9596 17 28C17 29.801 17.4358 31.4995 18.2031 33H5V25H17.418Z" fill="oklch(0.3057 0.079 256.22 / 0.13)" class="wd-expressive-accent"></path>
<path d="M28 6C29.0177 6 30.019 6.07034 31 6.2041V17.417C30.0461 17.1471 29.0403 17 28 17C26.199 17 24.5005 17.4358 23 18.2031V6.57031C24.6063 6.19706 26.2801 6 28 6Z" fill="oklch(0.3057 0.079 256.22 / 0.13)" class="wd-expressive-accent"></path>
</g>
<g>
<path d="M28 3C29.639 3 31.242 3.15836 32.7939 3.45996C33.5058 3.59836 34 4.22326 34 4.92773V5.79102C41.8808 7.91505 48.0839 14.1194 50.208 22H51.0723C51.7326 22 52.3225 22.4345 52.5078 23.0752L52.54 23.2061L52.6465 23.791C52.8788 25.1597 53 26.566 53 28C53 29.639 52.8416 31.242 52.54 32.7939C52.4016 33.5058 51.7768 34 51.0723 34H50.208C48.084 41.8806 41.8805 48.0829 34 50.207V51.0713C34 51.7758 33.5057 52.4006 32.7939 52.5391C31.2422 52.8408 29.6394 53 28 53C26.3606 53 24.7578 52.8408 23.2061 52.5391C22.4943 52.4006 22 51.7758 22 51.0713V50.207C14.1195 48.0829 7.91599 41.8805 5.79199 34H4.92773C4.22326 34 3.59836 33.5058 3.45996 32.7939C3.15836 31.242 3 29.639 3 28C3 26.361 3.15836 24.758 3.45996 23.2061L3.49219 23.0752C3.67748 22.4345 4.26737 22 4.92773 22H5.79199C7.91604 14.1194 14.1193 7.91509 22 5.79102V4.92773C22 4.22328 22.4943 3.59838 23.2061 3.45996L23.791 3.35352C25.1597 3.12116 26.566 3 28 3ZM32 39.3105C30.7484 39.7545 29.4027 40 28 40C26.5973 40 25.2516 39.7545 24 39.3105V50.6504C25.299 50.8786 26.6352 51 28 51C29.3648 51 30.701 50.8786 32 50.6504V39.3105ZM7.87305 34C9.88868 40.7718 15.2282 46.1113 22 48.127V38.3867C20.1806 37.3338 18.6644 35.8197 17.6113 34H7.87305ZM38.3887 34C37.3356 35.8197 35.8195 37.3338 34 38.3867V48.127C40.7719 46.1113 46.1113 40.7719 48.127 34H38.3887ZM28 18C26.6259 18 25.3191 18.2791 24.1289 18.7803C24.0673 18.8062 24.0045 18.8265 23.9414 18.8438L23.4551 19.0938C21.5821 20.0517 20.0517 21.5821 19.0938 23.4551L18.8438 23.9414C18.8265 24.0045 18.8062 24.0673 18.7803 24.1289C18.2791 25.3191 18 26.6259 18 28C18 29.3741 18.2791 30.6809 18.7803 31.8711C18.8061 31.9323 18.8265 31.9949 18.8438 32.0576L19.0938 32.5449C20.0515 34.4175 21.5821 35.9472 23.4551 36.9053L23.9414 37.1543C23.9437 37.1549 23.946 37.1556 23.9482 37.1562L24.1289 37.2197L24.5811 37.3965C25.6473 37.7859 26.7978 38 28 38C29.374 38 30.6807 37.7212 31.8711 37.2197L32.0518 37.1562C32.0537 37.1557 32.0557 37.1548 32.0576 37.1543L32.5449 36.9053C34.418 35.9472 35.9485 34.4176 36.9062 32.5449L37.1553 32.0576C37.1725 31.9948 37.1939 31.9324 37.2197 31.8711C37.7209 30.6809 38 29.3742 38 28C38 26.6259 37.7209 25.3191 37.2197 24.1289C37.1938 24.0673 37.1725 24.0046 37.1553 23.9414L36.9062 23.4551C35.9483 21.5821 34.4179 20.0516 32.5449 19.0938L32.0576 18.8438C31.9949 18.8265 31.9323 18.8061 31.8711 18.7803C30.6809 18.2791 29.3741 18 28 18ZM5.34863 24C5.12073 25.2987 5 26.6351 5 28C5 29.3649 5.12073 30.7013 5.34863 32H16.6885C16.2448 30.7483 16 29.4024 16 28C16 26.5976 16.2448 25.2517 16.6885 24H5.34863ZM39.3115 24C39.7552 25.2517 40 26.5976 40 28C40 29.4024 39.7552 30.7483 39.3115 32H50.6514C50.8793 30.7013 51 29.3649 51 28C51 26.6351 50.8793 25.2987 50.6514 24H39.3115ZM22 7.87109C15.228 9.8867 9.88873 15.2279 7.87305 22H17.6113C18.6644 20.1801 20.1801 18.6644 22 17.6113V7.87109ZM34 17.6113C35.8199 18.6644 37.3356 20.1801 38.3887 22H48.127C46.1113 15.2279 40.772 9.88668 34 7.87109V17.6113ZM28 5C26.6351 5 25.2987 5.11977 24 5.34766V16.6875C25.2516 16.2439 26.5977 16 28 16C29.4023 16 30.7484 16.2439 32 16.6875V5.34766C30.7013 5.11978 29.3649 5 28 5Z" fill="oklch(0.3523 0 0 / 1)" class="wd-expressive-fill"></path>
<path d="M5.75488 41.0586L6.7207 41.3174C6.98728 41.3888 7.14348 41.663 7.09473 41.9346C6.93822 42.8024 6.97487 43.697 7.2041 44.5527C7.47668 45.57 8.01317 46.4975 8.75781 47.2422C9.50249 47.9868 10.4301 48.5233 11.4473 48.7959C12.3028 49.0251 13.1967 49.0617 14.0645 48.9053C14.336 48.8563 14.6099 49.012 14.6816 49.2783L14.9404 50.2441C15.0119 50.5109 14.8537 50.7871 14.583 50.8418C13.375 51.0857 12.1244 51.0476 10.9297 50.7275C9.57337 50.3641 8.33569 49.6501 7.34277 48.6572C6.34989 47.6643 5.63591 46.4267 5.27246 45.0703C4.95235 43.8754 4.91422 42.6242 5.1582 41.416C5.21302 41.1458 5.48846 40.9876 5.75488 41.0586Z" fill="oklch(0.3523 0 0 / 1)" class="wd-expressive-fill"></path>
<path d="M50.2441 41.0586C50.5107 40.9872 50.7869 41.1456 50.8418 41.416C51.0858 42.6242 51.0477 43.8754 50.7275 45.0703C50.3641 46.4267 49.6502 47.6642 48.6572 48.6572C47.6642 49.6502 46.4267 50.3641 45.0703 50.7275C43.8754 51.0477 42.6242 51.0858 41.416 50.8418C41.1456 50.7869 40.9872 50.5107 41.0586 50.2441L41.3174 49.2783C41.389 49.012 41.6631 48.8565 41.9346 48.9053C42.8025 49.0618 43.697 49.0251 44.5527 48.7959C45.5701 48.5233 46.4975 47.9869 47.2422 47.2422C47.9869 46.4975 48.5233 45.5701 48.7959 44.5527C49.0251 43.697 49.0618 42.8025 48.9053 41.9346C48.8565 41.6631 49.012 41.389 49.2783 41.3174L50.2441 41.0586Z" fill="oklch(0.3523 0 0 / 1)" class="wd-expressive-fill"></path>
<path d="M10.9297 5.27246C12.1246 4.95232 13.3758 4.91422 14.584 5.1582C14.8544 5.21304 15.0118 5.48926 14.9404 5.75586L14.6826 6.7207C14.6112 6.98729 14.337 7.1435 14.0654 7.09473C13.1975 6.93822 12.303 6.97484 11.4473 7.2041C10.43 7.4767 9.50254 8.01309 8.75781 8.75781C8.01309 9.50254 7.4767 10.43 7.2041 11.4473C6.97484 12.303 6.93822 13.1975 7.09473 14.0654C7.1435 14.337 6.98729 14.6112 6.7207 14.6826L5.75586 14.9404C5.48926 15.0118 5.21304 14.8544 5.1582 14.584C4.91422 13.3758 4.95232 12.1246 5.27246 10.9297C5.63592 9.57326 6.3498 8.33575 7.34277 7.34277C8.33575 6.3498 9.57326 5.63592 10.9297 5.27246Z" fill="oklch(0.3523 0 0 / 1)" class="wd-expressive-fill"></path>
<path d="M41.416 5.1582C42.6242 4.91422 43.8754 4.95235 45.0703 5.27246C46.4267 5.63591 47.6643 6.34989 48.6572 7.34277C49.6501 8.33569 50.3641 9.57337 50.7275 10.9297C51.0476 12.1244 51.0857 13.375 50.8418 14.583C50.7871 14.8537 50.5109 15.0119 50.2441 14.9404L49.2783 14.6816C49.012 14.6099 48.8563 14.336 48.9053 14.0645C49.0617 13.1967 49.0251 12.3028 48.7959 11.4473C48.5233 10.4301 47.9868 9.50249 47.2422 8.75781C46.4975 8.01317 45.57 7.47668 44.5527 7.2041C43.697 6.97487 42.8024 6.93822 41.9346 7.09473C41.663 7.14348 41.3888 6.98728 41.3174 6.7207L41.0586 5.75488C40.9876 5.48846 41.1458 5.21302 41.416 5.1582Z" fill="oklch(0.3523 0 0 / 1)" class="wd-expressive-fill"></path>
</g>
</svg>