<svg role="presentation" width="56" height="56" viewBox="0 0 56 56" xmlns="http://www.w3.org/2000/svg" class="wd-expressive wd-expressive-webpage">
<g>
<path d="M49 38H23V31H49V38Z" fill="oklch(0.3057 0.079 256.22 / 0.13)" class="wd-expressive-accent"></path>
<path d="M13.5 31C13.7761 31 14 31.2239 14 31.5V35.5C14 35.7761 13.7761 36 13.5 36H7.5C7.22386 36 7 35.7761 7 35.5V31.5C7 31.2239 7.22386 31 7.5 31H13.5Z" fill="oklch(0.3057 0.079 256.22 / 0.13)" class="wd-expressive-accent"></path>
<path d="M13.5 22C13.7761 22 14 22.2239 14 22.5V26.5C14 26.7761 13.7761 27 13.5 27H7.5C7.22386 27 7 26.7761 7 26.5V22.5C7 22.2239 7.22386 22 7.5 22H13.5Z" fill="oklch(0.3057 0.079 256.22 / 0.13)" class="wd-expressive-accent"></path>
<path d="M51 11C52.1046 11 53 11.8954 53 13V18H3V13C3 11.8954 3.89543 11 5 11H51Z" fill="oklch(0.3057 0.079 256.22 / 0.13)" class="wd-expressive-accent"></path>
</g>
<g>
<path d="M13.5 30C14.3284 30 15 30.6716 15 31.5V35.5C15 36.3284 14.3284 37 13.5 37H7.5C6.67157 37 6 36.3284 6 35.5V31.5C6 30.6716 6.67157 30 7.5 30H13.5ZM8 35H13V32H8V35Z" fill="oklch(0.3523 0 0 / 1)" class="wd-expressive-fill"></path>
<path d="M13.5 21C14.3284 21 15 21.6716 15 22.5V26.5C15 27.3284 14.3284 28 13.5 28H7.5C6.67157 28 6 27.3284 6 26.5V22.5C6 21.6716 6.67157 21 7.5 21H13.5ZM8 26H13V23H8V26Z" fill="oklch(0.3523 0 0 / 1)" class="wd-expressive-fill"></path>
<path d="M48.5 30C48.7761 30 49 30.2239 49 30.5V31.5C49 31.7761 48.7761 32 48.5 32H24V37.5C24 37.7761 23.7761 38 23.5 38H22.5C22.2239 38 22 37.7761 22 37.5V31.5C22 30.6716 22.6716 30 23.5 30H48.5Z" fill="oklch(0.3523 0 0 / 1)" class="wd-expressive-fill"></path>
<path d="M33.5 25C33.7761 25 34 25.2239 34 25.5V26.5C34 26.7761 33.7761 27 33.5 27H22.5C22.2239 27 22 26.7761 22 26.5V25.5C22 25.2239 22.2239 25 22.5 25H33.5Z" fill="oklch(0.3523 0 0 / 1)" class="wd-expressive-fill"></path>
<path d="M48.5 21C48.7761 21 49 21.2239 49 21.5V22.5C49 22.7761 48.7761 23 48.5 23H22.5C22.2239 23 22 22.7761 22 22.5V21.5C22 21.2239 22.2239 21 22.5 21H48.5Z" fill="oklch(0.3523 0 0 / 1)" class="wd-expressive-fill"></path>
<path d="M7.5 13C8.32843 13 9 13.6716 9 14.5C9 15.3284 8.32843 16 7.5 16C6.67157 16 6 15.3284 6 14.5C6 13.6716 6.67157 13 7.5 13Z" fill="oklch(0.3523 0 0 / 1)" class="wd-expressive-fill"></path>
<path d="M12.5 13C13.3284 13 14 13.6716 14 14.5C14 15.3284 13.3284 16 12.5 16C11.6716 16 11 15.3284 11 14.5C11 13.6716 11.6716 13 12.5 13Z" fill="oklch(0.3523 0 0 / 1)" class="wd-expressive-fill"></path>
<path d="M17.5 13C18.3284 13 19 13.6716 19 14.5C19 15.3284 18.3284 16 17.5 16C16.6716 16 16 15.3284 16 14.5C16 13.6716 16.6716 13 17.5 13Z" fill="oklch(0.3523 0 0 / 1)" class="wd-expressive-fill"></path>
<path d="M51 10C52.6569 10 54 11.3431 54 13V43C54 44.6569 52.6569 46 51 46H5C3.34315 46 2 44.6569 2 43V13C2 11.3431 3.34315 10 5 10H51ZM4 43C4 43.5523 4.44772 44 5 44H17V19H4V43ZM19 44H51C51.5523 44 52 43.5523 52 43V19H19V44ZM5 12C4.44772 12 4 12.4477 4 13V17H52V13C52 12.4477 51.5523 12 51 12H5Z" fill="oklch(0.3523 0 0 / 1)" class="wd-expressive-fill"></path>
</g>
</svg>