<svg role="presentation" width="56" height="56" viewBox="0 0 56 56" xmlns="http://www.w3.org/2000/svg" class="wd-expressive wd-expressive-glasses">
<g>
<path d="M7.2832 21.6387C7.09982 22.396 7 23.1863 7 24C7 29.5228 11.4772 34 17 34C20.1063 34 22.8817 32.5835 24.7158 30.3613C23.6544 34.7441 19.7091 38 15 38C9.47715 38 5 33.5228 5 28C5 25.5837 5.8566 23.3673 7.2832 21.6387Z" fill="oklch(0.3057 0.079 256.22 / 0.13)" class="wd-expressive-accent"></path>
<path d="M33.8105 21.0518C33.2894 22.2631 33 23.5977 33 25C33 30.5228 37.4772 35 43 35C45.8228 35 48.3702 33.8283 50.1885 31.9473C48.6573 35.5068 45.1207 38 41 38C35.4772 38 31 33.5228 31 28C31 25.2999 32.0713 22.851 33.8105 21.0518Z" fill="oklch(0.3057 0.079 256.22 / 0.13)" class="wd-expressive-accent"></path>
</g>
<g>
<path d="M14.501 21.0176C14.7764 20.9979 15.001 21.2239 15.001 21.5V22.5C15.0008 22.776 14.7756 22.9968 14.501 23.0244C14.0159 23.0732 13.5399 23.1937 13.0879 23.3809C12.4814 23.6321 11.9301 24.0007 11.4658 24.4648C11.0015 24.9291 10.6331 25.4803 10.3818 26.0869C10.1945 26.5391 10.0742 27.0158 10.0254 27.501C9.99757 27.7754 9.77673 27.9997 9.50098 28H8.50098C8.22483 28 7.99881 27.7754 8.01855 27.5C8.07219 26.7518 8.24632 26.0163 8.53418 25.3213C8.88596 24.4721 9.40081 23.6998 10.0508 23.0498C10.7007 22.3999 11.4731 21.8849 12.3223 21.5332C13.0171 21.2455 13.7529 21.0712 14.501 21.0176Z" fill="oklch(0.3523 0 0 / 1)" class="wd-expressive-fill"></path>
<path d="M40.4814 20.998C40.7569 20.9783 40.9814 21.2043 40.9814 21.4805V22.4805C40.9814 22.7564 40.757 22.978 40.4824 23.0059C39.9973 23.0546 39.5205 23.1741 39.0684 23.3613C38.4618 23.6126 37.9105 23.9811 37.4463 24.4453C36.982 24.9096 36.6136 25.4608 36.3623 26.0674C36.175 26.5196 36.0547 26.9962 36.0059 27.4814C35.9781 27.756 35.7574 27.9803 35.4814 27.9805H34.4814C34.2053 27.9805 33.9793 27.7559 33.999 27.4805C34.0527 26.7324 34.2268 25.9967 34.5146 25.3018C34.8664 24.4526 35.3813 23.6802 36.0312 23.0303C36.6812 22.3804 37.4536 21.8654 38.3027 21.5137C38.9977 21.2259 39.7333 21.0517 40.4814 20.998Z" fill="oklch(0.3523 0 0 / 1)" class="wd-expressive-fill"></path>
<path d="M41 17C44.4163 17 47.4688 18.5575 49.4863 21.001C49.4909 21.0009 49.4954 21 49.5 21H53.5C53.7761 21 54 21.2239 54 21.5V22.5C54 22.7761 53.7761 23 53.5 23H50.7969C51.5642 24.5005 52 26.199 52 28C52 34.0751 47.0751 39 41 39C34.9249 39 30 34.0751 30 28C30 27.5551 30.0287 27.1166 30.0801 26.6855C29.4983 26.2546 28.7799 26 28 26C27.2198 26 26.5009 26.2543 25.9189 26.6855C25.9703 27.1167 26 27.5551 26 28C26 34.0751 21.0751 39 15 39C8.92487 39 4 34.0751 4 28C4 26.199 4.43578 24.5005 5.20312 23H2.5C2.22386 23 2 22.7761 2 22.5V21.5C2 21.2239 2.22386 21 2.5 21H6.5C6.50425 21 6.50847 21.0009 6.5127 21.001C8.53027 18.5572 11.5835 17 15 17C19.8946 17 24.0406 20.1975 25.4678 24.6172C26.2259 24.2234 27.0873 24 28 24C28.9124 24 29.7733 24.2237 30.5312 24.6172C31.9584 20.1974 36.1053 17 41 17ZM15 19C10.0294 19 6 23.0294 6 28C6 32.9706 10.0294 37 15 37C19.9706 37 24 32.9706 24 28C24 23.0294 19.9706 19 15 19ZM41 19C36.0294 19 32 23.0294 32 28C32 32.9706 36.0294 37 41 37C45.9706 37 50 32.9706 50 28C50 23.0294 45.9706 19 41 19Z" fill="oklch(0.3523 0 0 / 1)" class="wd-expressive-fill"></path>
</g>
</svg>