<svg role="presentation" width="56" height="56" viewBox="0 0 56 56" xmlns="http://www.w3.org/2000/svg" class="wd-expressive wd-expressive-target">
<g>
<path d="M23.0457 10.6953C26.9355 9.58177 31.0826 9.81187 34.8182 11.3408C35.0736 11.4454 35.1875 11.7416 35.076 11.9941L31.8406 19.3115C31.7288 19.5638 31.4338 19.6767 31.1756 19.5791C30.1879 19.2059 29.1181 19 27.9998 19C23.0292 19 18.9998 23.0294 18.9998 28C18.9998 32.9706 23.0292 37 27.9998 37C32.9704 37 36.9998 32.9706 36.9998 28C36.9998 26.8315 36.7756 25.7156 36.3699 24.6914C36.2682 24.4346 36.3759 24.1372 36.6268 24.0215L43.8924 20.6728C44.1431 20.5573 44.441 20.667 44.5496 20.9209C46.1371 24.632 46.433 28.7748 45.3807 32.6816C44.2849 36.7496 41.7962 40.3041 38.3494 42.7266C34.9027 45.1488 30.7158 46.2854 26.5174 45.9385C22.3187 45.5914 18.3742 43.7827 15.3719 40.8271C12.3699 37.8718 10.4997 33.957 10.0867 29.7646C9.67379 25.5721 10.7442 21.3672 13.1121 17.8828C15.4801 14.3984 18.9955 11.8548 23.0457 10.6953Z" fill="oklch(0.3057 0.079 256.22 / 0.13)" class="wd-expressive-accent"></path>
<path d="M47.1463 3.61133C47.4613 3.29634 47.9998 3.51939 47.9998 3.96484V7.5C47.9998 7.77614 48.2237 8 48.4998 8H52.035C52.4804 8 52.7035 8.53853 52.3885 8.85351L46.8279 14.4141C46.4529 14.7891 45.9443 15 45.4139 15H41.4998L41.3992 14.9902C41.1713 14.9437 40.9998 14.7417 40.9998 14.5V10.5859C40.9998 10.0555 41.2107 9.54694 41.5857 9.17187L47.1463 3.61133Z" fill="oklch(0.3057 0.079 256.22 / 0.13)" class="wd-expressive-accent"></path>
</g>
<g>
<path d="M21.1193 3.96581C26.584 2.4015 32.414 2.74746 37.6486 4.93749C37.9034 5.04406 38.018 5.34022 37.9065 5.59277L37.5022 6.50683C37.3905 6.75934 37.0949 6.87272 36.84 6.76659C32.0337 4.76558 26.6848 4.45318 21.6701 5.88866C16.4951 7.37022 12.0035 10.6202 8.97775 15.0723C5.95223 19.5243 4.58316 24.897 5.11056 30.2539C5.63827 35.611 8.02928 40.6142 11.8654 44.3906C15.7017 48.1669 20.7409 50.4784 26.1057 50.9219C31.4704 51.3652 36.8216 49.9126 41.2258 46.8174C45.6296 43.7221 48.8081 39.179 50.2082 33.9814C51.5646 28.9451 51.168 23.6022 49.092 18.8281C48.9819 18.5749 49.0913 18.2777 49.342 18.1621L50.2492 17.7432C50.5 17.6276 50.7978 17.7372 50.9084 17.9902C53.1803 23.1897 53.618 29.0135 52.1399 34.5019C50.618 40.1516 47.1622 45.0896 42.3752 48.4541C37.5881 51.8184 31.7718 53.397 25.9406 52.915C20.1095 52.433 14.6319 49.9209 10.4621 45.8164C6.29237 41.7116 3.69392 36.2732 3.12032 30.4502C2.54697 24.6274 4.03482 18.7875 7.32345 13.9482C10.6123 9.10909 15.4944 5.57625 21.1193 3.96581Z" fill="oklch(0.3523 0 0 / 1)" class="wd-expressive-fill"></path>
<path d="M23.0461 10.6953C26.9359 9.5818 31.083 9.81185 34.8186 11.3408C35.0741 11.4454 35.188 11.7416 35.0764 11.9941L34.6721 12.9092C34.5603 13.1614 34.2648 13.2745 34.009 13.1709C30.702 11.8309 27.0364 11.6336 23.5969 12.6182C19.9967 13.6488 16.8717 15.9097 14.7668 19.0068C12.6621 22.104 11.7104 25.8418 12.0774 29.5684C12.4445 33.295 14.107 36.7753 16.7756 39.4023C19.4442 42.0293 22.95 43.6368 26.6818 43.9453C30.4138 44.2537 34.1366 43.244 37.2004 41.0908C40.2641 38.9376 42.4754 35.7769 43.4494 32.1611C44.3798 28.7065 44.1245 25.0443 42.7326 21.7588C42.6249 21.5046 42.7339 21.2074 42.9846 21.0918L43.8928 20.6728C44.1435 20.5573 44.4414 20.667 44.55 20.9209C46.1373 24.6319 46.4333 28.775 45.3811 32.6816C44.2853 36.7494 41.7965 40.3041 38.3498 42.7266C34.9032 45.1488 30.7161 46.2854 26.5178 45.9385C22.3192 45.5914 18.3746 43.7825 15.3723 40.8271C12.3704 37.8718 10.5002 33.9568 10.0871 29.7646C9.67427 25.5723 10.7448 21.3671 13.1125 17.8828C15.4805 14.3985 18.996 11.8548 23.0461 10.6953Z" fill="oklch(0.3523 0 0 / 1)" class="wd-expressive-fill"></path>
<path d="M24.9729 17.4248C27.2872 16.7624 29.7513 16.8781 31.9865 17.7471C32.2441 17.8472 32.3573 18.1448 32.2453 18.3975L32.0432 18.8535L31.841 19.3115C31.7293 19.5638 31.4342 19.6765 31.176 19.5791C29.37 18.898 27.3877 18.8142 25.5236 19.3476C23.4987 19.9274 21.7408 21.1994 20.5568 22.9414C19.373 24.6835 18.8368 26.7857 19.0432 28.8818C19.2496 30.9781 20.1856 32.9363 21.6867 34.4141C23.1878 35.8915 25.16 36.7962 27.259 36.9697C29.358 37.1431 31.4518 36.5743 33.175 35.3633C34.8982 34.1521 36.1428 32.3746 36.6906 30.3408C37.1949 28.4684 37.0799 26.4876 36.3703 24.6924C36.2689 24.4357 36.3766 24.1391 36.6272 24.0234L37.5354 23.6035C37.7862 23.4878 38.0846 23.5977 38.1887 23.8535C39.0927 26.075 39.2474 28.5368 38.6213 30.8613C37.9516 33.347 36.4315 35.5197 34.3254 37C32.2192 38.4802 29.6596 39.1749 27.094 38.9629C24.5283 38.7507 22.1181 37.6448 20.2834 35.8389C18.4488 34.0327 17.3053 31.6402 17.0529 29.0781C16.8006 26.5161 17.4555 23.9467 18.9026 21.8174C20.3496 19.6882 22.4979 18.1334 24.9729 17.4248Z" fill="oklch(0.3523 0 0 / 1)" class="wd-expressive-fill"></path>
<path d="M46.4397 2.90429C47.3846 1.95934 49.0002 2.62849 49.0002 3.96484V6.99999H52.0354C53.3717 7 54.0408 8.6156 53.0959 9.56054L47.5354 15.1221C46.9729 15.6843 46.2096 15.9999 45.4143 16H41.5002L41.4182 15.9951L31.4455 25.9678C31.7976 26.5634 32.0002 27.258 32.0002 28C32.0002 30.2091 30.2093 31.9999 28.0002 32C25.7911 32 24.0002 30.2091 24.0002 28C24.0002 25.7909 25.7911 24 28.0002 24C28.7418 24 29.4361 24.202 30.0315 24.5537L40.0031 14.581C40.0017 14.5542 40.0002 14.5272 40.0002 14.5V10.5859C40.0003 9.79058 40.3159 9.02735 40.8781 8.46484L46.4397 2.90429ZM42.2932 9.8789C42.1059 10.0664 42.0003 10.3209 42.0002 10.5859V12.585L44.9397 9.64648C45.1348 9.45133 45.4514 9.45152 45.6467 9.64648L46.3537 10.3535C46.549 10.5488 46.549 10.8653 46.3537 11.0605L43.4143 14H45.4143C45.6793 13.9999 45.9339 13.8943 46.1213 13.707L50.8283 8.99999H48.5002L48.3469 8.99218C47.5906 8.91536 47.0003 8.27655 47.0002 7.49999V5.17187L42.2932 9.8789Z" fill="oklch(0.3523 0 0 / 1)" class="wd-expressive-fill"></path>
</g>
</svg>