<svg role="presentation" width="56" height="56" viewBox="0 0 56 56" xmlns="http://www.w3.org/2000/svg" class="wd-expressive wd-expressive-atomic">
<g>
<path d="M25.7677 4.60551C28.0436 3.35472 30.4304 4.05486 32.5138 6.58403C33.95 8.32756 35.1788 10.8649 36.1085 13.9571C36.229 13.9287 36.3491 13.899 36.4689 13.8721C41.0597 12.8418 44.8111 13.0028 47.0704 14.3262C49.3298 15.6497 49.9543 18.0522 48.8351 21.1163C47.7158 24.1803 44.9237 27.712 40.9445 31.0967C39.9269 31.9622 38.8473 32.8029 37.7218 33.6123C37.6842 33.9876 37.644 34.3615 37.5987 34.7334C36.9437 40.1121 35.5243 44.7708 33.588 47.9024C31.6517 51.034 29.3203 52.4409 26.9972 51.8789C24.6741 51.317 22.5062 48.822 20.8693 44.8262L22.003 41.4776C18.9019 42.4003 16.0249 42.8583 13.6036 42.792C9.90742 42.6908 7.50796 41.3802 6.82336 39.0879C6.1389 36.7956 7.21226 33.6663 9.85656 30.2452L12.6349 32.0166C11.5664 34.3875 11.6759 36.391 12.9454 37.7071C14.215 39.023 16.5719 39.5762 19.6407 39.2793C22.7098 38.9824 26.3151 37.8524 29.882 36.0684C31.954 35.0321 33.9429 33.8081 35.7472 32.4727C36.188 28.6063 36.0476 24.5135 35.34 20.8409C35.0758 19.4698 34.7366 18.1884 34.337 17.0206C34.1708 17.0532 34.0031 17.0881 33.8341 17.125C30.4868 17.8562 26.7996 19.3777 23.3605 21.4483L21.9425 19.9659C25.6903 17.694 29.6493 15.8828 33.3917 14.7071C32.8598 13.6145 32.2624 12.6795 31.6105 11.9375C29.9438 10.0409 28.0346 9.51601 26.214 10.4541C24.3932 11.3924 22.7754 13.7351 21.6417 17.0752C20.508 20.4154 19.93 24.543 20.007 28.7422L18.0089 28.9893C17.9127 23.3904 18.6357 17.8872 20.0528 13.4336C21.47 8.9801 23.4917 5.85657 25.7677 4.60551ZM35.3224 35.2442C32.6967 36.9312 29.8894 38.4294 27.0558 39.6416C25.5444 40.2882 24.0538 40.84 22.6085 41.294C23.8756 43.8964 25.4828 45.5202 27.1974 45.9092C29.0559 46.3307 30.9218 45.2755 32.4708 42.9268C33.7312 41.0156 34.7163 38.3459 35.3224 35.2442ZM41.8321 17.4141C40.573 16.7842 38.853 16.5379 36.8165 16.6817C36.9451 17.2588 37.0658 17.8498 37.1749 18.4541C37.8757 22.3336 38.132 26.5647 37.9347 30.7188C38.4189 30.2971 38.8835 29.869 39.3243 29.4346C41.8762 26.9202 43.5095 24.3708 43.964 22.1924C44.4183 20.0142 43.6678 18.3324 41.8321 17.4141Z" fill="oklch(0.3057 0.079 256.22 / 0.13)" class="wd-expressive-accent"></path>
<path d="M46.2325 30.3614C49.1927 34.2359 50.1104 37.7032 48.7843 40C47.4582 42.2968 43.9967 43.2357 39.1612 42.6094L39.6573 39.2354C41.5386 38.9542 42.8867 38.1937 43.5743 37.0245C44.2619 35.8552 44.2663 34.3161 43.588 32.5518L46.2325 30.3614Z" fill="oklch(0.3057 0.079 256.22 / 0.13)" class="wd-expressive-accent"></path>
<path d="M8.48742 14.6143C10.2559 13.3365 13.1822 12.9115 16.88 13.3965L16.7179 16.7149C14.6341 16.948 13.1473 17.7346 12.4171 18.9903C11.6869 20.2462 11.7407 21.9243 12.5734 23.8438C13.4061 25.7633 14.9863 27.8519 17.1437 29.8858C19.3011 31.9197 21.9546 33.8223 24.8195 35.3887L24.1193 37.2901C19.8616 34.9571 15.943 32.1077 12.882 29.1192C9.82075 26.1305 7.76143 23.1429 6.97668 20.5528C6.19197 17.9627 6.71894 15.8922 8.48742 14.6143Z" fill="oklch(0.3057 0.079 256.22 / 0.13)" class="wd-expressive-accent"></path>
<path d="M28.0001 24C30.2092 24.0001 32.0001 25.7909 32.0001 28C32.0001 30.2091 30.2092 32 28.0001 32C25.791 32 24.0001 30.2092 24.0001 28C24.0001 25.7909 25.791 24 28.0001 24Z" fill="oklch(0.3057 0.079 256.22 / 0.13)" class="wd-expressive-accent"></path>
</g>
<g>
<path d="M25.2862 3.72975C26.6396 2.98593 28.0791 2.80318 29.4942 3.21803C30.8841 3.62569 32.1594 4.58185 33.2852 5.9485C34.6815 7.64364 35.8651 9.99015 36.7871 12.7825C41.2218 11.862 45.0802 12.0013 47.5762 13.4632C48.9149 14.2475 49.8175 15.3893 50.1885 16.8167C50.5529 18.2192 50.381 19.801 49.7754 21.4592C48.5714 24.7552 45.6321 28.4218 41.5928 31.8577C40.6645 32.6473 39.6846 33.4145 38.668 34.1585C38.6427 34.3911 38.619 34.6234 38.5908 34.8548C37.9258 40.3146 36.4789 45.1304 34.4395 48.429C32.4218 51.692 29.723 53.567 26.7617 52.8508C24.0537 52.1954 21.7866 49.4871 20.1367 45.6673C20.0272 45.4137 20.1506 45.1205 20.4063 45.0159L21.332 44.637C21.5876 44.5322 21.8794 44.655 21.9893 44.9085C23.5634 48.5397 25.4755 50.4824 27.2324 50.9075C28.917 51.3147 30.8837 50.3766 32.7383 47.3772C34.4451 44.6166 35.7653 40.5214 36.46 35.6936C33.6165 37.5709 30.5491 39.2347 27.4492 40.5608C22.3787 42.7299 17.4692 43.8986 13.5772 43.7923C9.7283 43.6869 6.73809 42.2964 5.86525 39.3743C5.06668 36.6999 6.27725 33.376 8.76271 30.0315C8.9275 29.8101 9.24257 29.7699 9.46096 29.9387L10.252 30.551C10.4702 30.72 10.5091 31.0344 10.3447 31.2561C7.98505 34.4406 7.26508 37.0699 7.78224 38.802C8.27892 40.4642 10.0884 41.6962 13.6319 41.7932C17.1324 41.8889 21.7437 40.8274 26.6631 38.7229C30.176 37.2201 33.6471 35.2671 36.7676 33.0628C37.2098 28.2358 37.0122 23.1816 36.1904 18.6321C35.9699 17.4112 35.7078 16.252 35.4121 15.1624C31.4128 16.22 27.0378 18.0985 22.8887 20.5637C22.6515 20.7045 22.3444 20.6295 22.2012 20.3938L21.6826 19.5383C21.5399 19.3023 21.6155 18.9948 21.8526 18.8538C26.1154 16.3192 30.6399 14.3642 34.8321 13.2473C33.9784 10.7082 32.9217 8.65196 31.7422 7.21999C30.7848 6.05776 29.8246 5.39896 28.9317 5.13698C28.064 4.88263 27.1711 4.97592 26.249 5.48268C24.3204 6.54316 22.4015 9.351 21.0059 13.7366C19.6693 17.9372 18.9575 23.1356 19.002 28.4719C19.0043 28.748 18.7848 28.9758 18.5088 28.9807L17.5088 28.9983C17.2327 29.0032 17.0044 28.7833 17.002 28.5071C16.9543 22.9921 17.6865 17.5712 19.0996 13.1301C20.5381 8.60975 22.6633 5.17165 25.2862 3.72975ZM46.5654 15.1887C44.7394 14.1192 41.5504 13.8593 37.3604 14.7053C37.6666 15.8415 37.935 17.0354 38.1592 18.2766C38.9139 22.4551 39.1598 27.0253 38.8926 31.4798C39.3719 31.1027 39.8415 30.7216 40.2969 30.3342C44.2151 27.0013 46.862 23.6054 47.8965 20.7737C48.4098 19.3684 48.4855 18.215 48.2529 17.3196C48.0267 16.4493 47.4854 15.7277 46.5654 15.1887Z" fill="oklch(0.3523 0 0 / 1)" class="wd-expressive-fill"></path>
<path d="M46.6299 30.0579C46.8493 29.8903 47.1638 29.932 47.3272 30.1546C48.6946 32.0172 49.6359 33.8313 50.0821 35.5159C50.5613 37.326 50.4832 39.0578 49.6504 40.5003C48.8176 41.9426 47.357 42.8755 45.5498 43.3655C43.8678 43.8214 41.8261 43.9133 39.5293 43.6604C39.2552 43.63 39.0626 43.3793 39.0977 43.1057L39.2256 42.1135C39.2611 41.8397 39.5116 41.6473 39.7862 41.677C41.9 41.9063 43.6641 41.8054 45.0274 41.4358C46.4909 41.039 47.4247 40.3544 47.918 39.5003C48.4112 38.6459 48.5377 37.4938 48.1494 36.0276C47.7878 34.6624 46.9926 33.085 45.7373 31.3694C45.5742 31.1465 45.6154 30.8319 45.835 30.6643L46.6299 30.0579Z" fill="oklch(0.3523 0 0 / 1)" class="wd-expressive-fill"></path>
<path d="M7.90236 13.804C9.89059 12.3675 12.9437 11.9457 16.5147 12.345C16.789 12.3759 16.9823 12.6279 16.9463 12.9016L16.8154 13.8928C16.7795 14.1664 16.5282 14.3584 16.2539 14.3284C12.9001 13.9586 10.4627 14.4213 9.07326 15.4251C8.37138 15.9324 7.93866 16.5735 7.74416 17.3382C7.54565 18.1188 7.57918 19.0941 7.93361 20.2639C8.64919 22.625 10.5775 25.4721 13.5811 28.4046C16.4646 31.2197 20.1441 33.9239 24.1621 36.1721C24.4032 36.307 24.4922 36.6106 24.3594 36.8528L23.8799 37.7288C23.7473 37.9708 23.4431 38.0595 23.2022 37.9251C19.0442 35.6002 15.2128 32.7915 12.1846 29.8352C9.06615 26.7906 6.87471 23.662 6.02053 20.843C5.59033 19.423 5.49498 18.0667 5.80568 16.845C6.12049 15.6075 6.83613 14.5744 7.90236 13.804Z" fill="oklch(0.3523 0 0 / 1)" class="wd-expressive-fill"></path>
<path d="M28 23.0003C30.7614 23.0003 33 25.2389 33 28.0003C32.9999 30.7616 30.7613 33.0002 28 33.0003C25.2387 33.0003 23.0002 30.7616 23 28.0003C23 25.2388 25.2386 23.0003 28 23.0003ZM28 25.0003C26.3432 25.0003 25 26.3434 25 28.0003C25.0002 29.657 26.3432 31.0003 28 31.0003C29.6568 31.0002 30.9999 29.657 31 28.0003C31 26.3434 29.6569 25.0003 28 25.0003Z" fill="oklch(0.3523 0 0 / 1)" class="wd-expressive-fill"></path>
</g>
</svg>