<svg role="presentation" width="56" height="56" viewBox="0 0 56 56" xmlns="http://www.w3.org/2000/svg" class="wd-expressive wd-expressive-loading-circles">
<g>
<path d="M26.5 47C28.433 47 30 48.567 30 50.5C30 50.6637 29.9876 50.8247 29.9658 50.9824C29.3331 51.6109 28.4623 52 27.5 52C25.567 52 24 50.433 24 48.5C24 48.336 24.0114 48.1746 24.0332 48.0166C24.6659 47.3881 25.5377 47 26.5 47Z" fill="oklch(0.3057 0.079 256.22 / 0.13)" class="wd-expressive-accent"></path>
<path d="M39 42C41.2091 42 43 43.7909 43 46C43 46.5868 42.8725 47.1435 42.6455 47.6455C42.1435 47.8725 41.5868 48 41 48C38.7909 48 37 46.2091 37 44C37 43.4132 37.1275 42.8565 37.3545 42.3545C37.8565 42.1275 38.4132 42 39 42Z" fill="oklch(0.3057 0.079 256.22 / 0.13)" class="wd-expressive-accent"></path>
<path d="M13 42C14.6569 42 16 43.3431 16 45C16 45.0812 15.9956 45.1616 15.9893 45.2412C15.4595 45.7117 14.7642 46 14 46C12.3431 46 11 44.6569 11 43C11 42.9185 11.0034 42.8377 11.0098 42.7578C11.5395 42.2873 12.2357 42 13 42Z" fill="oklch(0.3057 0.079 256.22 / 0.13)" class="wd-expressive-accent"></path>
<path d="M46.5 27C48.9853 27 51 29.0147 51 31.5C51 32.2268 50.8265 32.9128 50.5205 33.5205C49.9128 33.8265 49.2268 34 48.5 34C46.0147 34 44 31.9853 44 29.5C44 28.773 44.1724 28.0863 44.4785 27.4785C45.0863 27.1724 45.773 27 46.5 27Z" fill="oklch(0.3057 0.079 256.22 / 0.13)" class="wd-expressive-accent"></path>
<path d="M7.5 30C8.87941 30 9.99691 31.1172 9.99902 32.4961C9.58096 32.8105 9.06341 33 8.5 33C7.12026 33 6.00158 31.8823 6 30.5029C6.41809 30.1884 6.93653 30 7.5 30Z" fill="oklch(0.3057 0.079 256.22 / 0.13)" class="wd-expressive-accent"></path>
<path d="M41 13C43.7614 13 46 15.2386 46 18C46 18.8662 45.7782 19.6802 45.3906 20.3906C44.6802 20.7782 43.8662 21 43 21C40.2386 21 38 18.7614 38 16C38 15.1336 38.2207 14.3189 38.6084 13.6084C39.3189 13.2207 40.1336 13 41 13Z" fill="oklch(0.3057 0.079 256.22 / 0.13)" class="wd-expressive-accent"></path>
<path d="M12 15C13.1046 15 14 15.8954 14 17C14 18.1046 13.1046 19 12 19C10.8954 19 10 18.1046 10 17C10 15.8954 10.8954 15 12 15Z" fill="oklch(0.3057 0.079 256.22 / 0.13)" class="wd-expressive-accent"></path>
<path d="M26 6C29.3137 6 32 8.68629 32 12C32 13.1442 31.6789 14.2132 31.123 15.123C30.2132 15.6789 29.1442 16 28 16C24.6863 16 22 13.3137 22 10C22 8.85564 22.32 7.78589 22.876 6.87598C23.7859 6.32003 24.8556 6 26 6Z" fill="oklch(0.3057 0.079 256.22 / 0.13)" class="wd-expressive-accent"></path>
</g>
<g>
<path d="M27.5 44C29.9853 44 32 46.0147 32 48.5C32 50.9853 29.9853 53 27.5 53C25.0147 53 23 50.9853 23 48.5C23 46.0147 25.0147 44 27.5 44ZM27.5 46C26.1193 46 25 47.1193 25 48.5C25 49.8807 26.1193 51 27.5 51C28.8807 51 30 49.8807 30 48.5C30 47.1193 28.8807 46 27.5 46Z" fill="oklch(0.3523 0 0 / 1)" class="wd-expressive-fill"></path>
<path d="M41 39C43.7614 39 46 41.2386 46 44C46 46.7614 43.7614 49 41 49C38.2386 49 36 46.7614 36 44C36 41.2386 38.2386 39 41 39ZM41 41C39.3431 41 38 42.3431 38 44C38 45.6569 39.3431 47 41 47C42.6569 47 44 45.6569 44 44C44 42.3431 42.6569 41 41 41Z" fill="oklch(0.3523 0 0 / 1)" class="wd-expressive-fill"></path>
<path d="M14 39C16.2091 39 18 40.7909 18 43C18 45.2091 16.2091 47 14 47C11.7909 47 10 45.2091 10 43C10 40.7909 11.7909 39 14 39ZM14 41C12.8954 41 12 41.8954 12 43C12 44.1046 12.8954 45 14 45C15.1046 45 16 44.1046 16 43C16 41.8954 15.1046 41 14 41Z" fill="oklch(0.3523 0 0 / 1)" class="wd-expressive-fill"></path>
<path d="M48.5 24C51.5376 24 54 26.4624 54 29.5C54 32.5376 51.5376 35 48.5 35C45.4624 35 43 32.5376 43 29.5C43 26.4624 45.4624 24 48.5 24ZM48.5 26C46.567 26 45 27.567 45 29.5C45 31.433 46.567 33 48.5 33C50.433 33 52 31.433 52 29.5C52 27.567 50.433 26 48.5 26Z" fill="oklch(0.3523 0 0 / 1)" class="wd-expressive-fill"></path>
<path d="M8.5 27C10.433 27 12 28.567 12 30.5C12 32.433 10.433 34 8.5 34C6.567 34 5 32.433 5 30.5C5 28.567 6.567 27 8.5 27ZM8.5 29C7.67157 29 7 29.6716 7 30.5C7 31.3284 7.67157 32 8.5 32C9.32843 32 10 31.3284 10 30.5C10 29.6716 9.32843 29 8.5 29Z" fill="oklch(0.3523 0 0 / 1)" class="wd-expressive-fill"></path>
<path d="M43 10C46.3137 10 49 12.6863 49 16C49 19.3137 46.3137 22 43 22C39.6863 22 37 19.3137 37 16C37 12.6863 39.6863 10 43 10ZM43 12C40.7909 12 39 13.7909 39 16C39 18.2091 40.7909 20 43 20C45.2091 20 47 18.2091 47 16C47 13.7909 45.2091 12 43 12Z" fill="oklch(0.3523 0 0 / 1)" class="wd-expressive-fill"></path>
<path d="M12 14C13.6569 14 15 15.3431 15 17C15 18.6569 13.6569 20 12 20C10.3431 20 9 18.6569 9 17C9 15.3431 10.3431 14 12 14ZM12 16C11.4477 16 11 16.4477 11 17C11 17.5523 11.4477 18 12 18C12.5523 18 13 17.5523 13 17C13 16.4477 12.5523 16 12 16Z" fill="oklch(0.3523 0 0 / 1)" class="wd-expressive-fill"></path>
<path d="M28 3C31.866 3 35 6.13401 35 10C35 13.866 31.866 17 28 17C24.134 17 21 13.866 21 10C21 6.13401 24.134 3 28 3ZM28 5C25.2386 5 23 7.23858 23 10C23 12.7614 25.2386 15 28 15C30.7614 15 33 12.7614 33 10C33 7.23858 30.7614 5 28 5Z" fill="oklch(0.3523 0 0 / 1)" class="wd-expressive-fill"></path>
</g>
</svg>