<svg role="presentation" width="56" height="56" viewBox="0 0 56 56" xmlns="http://www.w3.org/2000/svg" class="wd-expressive wd-expressive-book-gears">
<g>
<path d="M44.3633 45C42.8104 49.112 42.8441 48.9774 44.3633 53H15C14.6116 53 14.2359 52.9451 13.8809 52.8418C12.2163 52.3577 11 50.8207 11 49C11 47.1793 12.2163 45.6423 13.8809 45.1582C14.2359 45.0549 14.6116 45 15 45H44.3633Z" fill="oklch(0.3057 0.079 256.22 / 0.13)" class="wd-expressive-accent"></path>
<path d="M15 45H11V7C11 4.79086 12.7909 3 15 3V45Z" fill="oklch(0.3057 0.079 256.22 / 0.13)" class="wd-expressive-accent"></path>
<path d="M25.0928 10C25.3308 10.0003 25.5363 10.1689 25.583 10.4023L25.8672 11.8262C26.4846 12.0491 27.0507 12.3798 27.543 12.7949L28.9229 12.3281C29.1484 12.2522 29.3975 12.3457 29.5166 12.5518L30.6084 14.4443C30.7273 14.6505 30.6845 14.913 30.5059 15.0703L29.4131 16.0303C29.4691 16.3451 29.5 16.669 29.5 17C29.5 17.33 29.4688 17.6528 29.4131 17.9668L30.5078 18.9268C30.6864 19.0841 30.7292 19.3465 30.6104 19.5527L29.5176 21.4453C29.3985 21.6512 29.1502 21.7448 28.9248 21.6689L27.5459 21.2031C27.0537 21.6187 26.4877 21.9505 25.8701 22.1738L25.6191 23.4258C25.6649 23.3393 25.7228 23.2577 25.7949 23.1855L27.1865 21.7939C27.5236 21.4572 28.0518 21.4046 28.4482 21.6689L29.8115 22.5801C29.9436 22.5201 30.0782 22.4643 30.2148 22.4131L30.5361 20.8047C30.6295 20.3373 31.04 20.0002 31.5166 20H33.4854C33.9617 20.0005 34.3726 20.3375 34.4658 20.8047L34.7861 22.417C34.9208 22.4678 35.0533 22.5237 35.1836 22.583L36.5527 21.6689C36.9493 21.4047 37.4784 21.4569 37.8154 21.7939L39.207 23.1855C39.5434 23.5225 39.596 24.051 39.332 24.4473L38.416 25.8193C38.4746 25.9486 38.5298 26.0802 38.5801 26.2139L40.1963 26.5352C40.6634 26.6288 41.0008 27.0392 41.001 27.5156V29.4844C41.0005 29.9606 40.6632 30.3713 40.1963 30.4648L38.5791 30.7881C38.5289 30.9216 38.4746 31.0535 38.416 31.1826L39.332 32.5527C39.5959 32.9491 39.5436 33.4775 39.207 33.8145L37.8154 35.2061C37.4785 35.5428 36.9502 35.5949 36.5537 35.3311L35.1836 34.418C35.0533 34.4772 34.9208 34.5332 34.7861 34.584L34.4658 36.1953C34.3724 36.6624 33.9616 36.9995 33.4854 37H31.5166C31.0401 36.9998 30.6297 36.6625 30.5361 36.1953L30.2139 34.5879C30.0779 34.5369 29.944 34.4806 29.8125 34.4209L28.4482 35.3311C28.0519 35.5953 27.5236 35.5425 27.1865 35.2061L25.7949 33.8145C25.4578 33.4773 25.4054 32.9484 25.6699 32.5518L26.5781 31.1904C26.5178 31.058 26.4607 30.9232 26.4092 30.7861L24.8057 30.4648C24.3383 30.3716 24.0014 29.9608 24.001 29.4844V27.5156C24.0012 27.0389 24.3381 26.6284 24.8057 26.5352L26.4082 26.2168C26.4599 26.079 26.5175 25.9437 26.5781 25.8105L25.6699 24.4473C25.534 24.2434 25.4826 24.0049 25.5098 23.7754C25.4192 23.9111 25.2667 23.9996 25.0957 24H22.9102C22.6719 24 22.4667 23.8313 22.4199 23.5977L22.1348 22.1748C21.5163 21.9518 20.949 21.6209 20.4561 21.2051L19.0791 21.6709C18.8535 21.7472 18.6046 21.6533 18.4854 21.4473L17.3936 19.5547C17.2744 19.3483 17.3171 19.086 17.4961 18.9287L18.5869 17.9707C18.5308 17.6555 18.5 17.3313 18.5 17C18.5 16.6701 18.5303 16.3471 18.5859 16.0332L17.4951 15.0732C17.3161 14.9159 17.2734 14.6537 17.3926 14.4473L18.4854 12.5547C18.6046 12.3487 18.8526 12.2548 19.0781 12.3311L20.4541 12.7979C20.9468 12.3817 21.5135 12.0505 22.1318 11.8271L22.417 10.4023C22.4638 10.1688 22.6691 10.0001 22.9072 10H25.0928ZM32.4951 26C31.1145 26.0002 29.9951 27.1194 29.9951 28.5C29.9954 29.8804 31.1147 30.9998 32.4951 31C33.8755 30.9998 34.9948 29.8804 34.9951 28.5C34.9951 27.1194 33.8757 26.0002 32.4951 26ZM24.0029 15C22.8984 15 22.0029 15.8954 22.0029 17C22.0029 18.1046 22.8984 19 24.0029 19C25.1071 18.9995 26.0029 18.1042 26.0029 17C26.0029 15.8958 25.1071 15.0005 24.0029 15Z" fill="oklch(0.3057 0.079 256.22 / 0.13)" class="wd-expressive-accent"></path>
</g>
<g>
<path d="M32.4951 25C34.428 25.0002 35.9951 26.5671 35.9951 28.5C35.9948 30.4326 34.4279 31.9998 32.4951 32C30.5626 31.9998 28.9954 30.4327 28.9951 28.5C28.9951 26.567 30.5625 25.0002 32.4951 25ZM32.4951 27C31.6667 27.0002 30.9951 27.6718 30.9951 28.5C30.9954 29.328 31.6669 29.9998 32.4951 30C33.3232 29.9998 33.9948 29.3282 33.9951 28.5C33.9951 27.6717 33.3234 27.0002 32.4951 27Z" fill="oklch(0.3523 0 0 / 1)" class="wd-expressive-fill"></path>
<path d="M24.1572 14.0039C25.7417 14.0847 27.0029 15.395 27.0029 17C27.0029 18.6567 25.659 19.9994 24.0029 20C22.3461 20 21.0029 18.6569 21.0029 17C21.0029 15.3431 22.3461 14 24.0029 14L24.1572 14.0039ZM24.0029 16C23.4506 16 23.0029 16.4477 23.0029 17C23.0029 17.5523 23.4506 18 24.0029 18L24.1055 17.9951C24.6094 17.9433 25.0029 17.5171 25.0029 17C25.0029 16.4829 24.6094 16.0567 24.1055 16.0049L24.0029 16Z" fill="oklch(0.3523 0 0 / 1)" class="wd-expressive-fill"></path>
<path d="M25.0928 9L25.2256 9.00586C25.8833 9.06424 26.4322 9.5499 26.5635 10.2061L26.7422 11.1064C27.0888 11.2681 27.4189 11.4595 27.7285 11.6768L28.6025 11.3809L28.7305 11.3438C29.3709 11.1888 30.0475 11.4715 30.3828 12.0518L31.4746 13.9443C31.8087 14.5234 31.7178 15.2511 31.2617 15.7295L31.166 15.8213L30.4736 16.4297C30.4904 16.617 30.5 16.8072 30.5 17C30.5 17.1924 30.4904 17.3819 30.4736 17.5684L31.167 18.1748L31.168 18.1758C31.4206 18.398 31.5817 18.6896 31.6455 19H33.4863C34.439 19.001 35.2597 19.6747 35.4463 20.6094L35.5498 21.1357L35.9971 20.8369C36.7902 20.3083 37.8483 20.4128 38.5225 21.0869L39.9141 22.4785L40.0342 22.6094C40.5981 23.2835 40.6593 24.2585 40.1641 25.002L39.8652 25.4502L40.3916 25.5547C41.2665 25.7299 41.9153 26.4613 41.9932 27.3379L42.001 27.5156V29.4854C42.0001 30.4386 41.3257 31.2584 40.3926 31.4453L39.8643 31.5518L40.1631 31.9971L40.1641 31.998C40.6593 32.7416 40.5982 33.7166 40.0342 34.3906L39.9141 34.5215L38.5225 35.9131C37.8484 36.587 36.7918 36.691 35.999 36.1631L35.5508 35.8652L35.4463 36.3906C35.2713 37.2668 34.5389 37.9141 33.6631 37.9922L33.4863 38H31.5166C30.6226 37.9997 29.8452 37.407 29.5977 36.5635L29.5557 36.3916L29.4492 35.8652L29.0029 36.1631C28.259 36.659 27.2842 36.597 26.6104 36.0332L26.4795 35.9131L25.0879 34.5215C24.4141 33.8477 24.3087 32.7907 24.8379 31.9971L25.1348 31.5508L24.6094 31.4453C23.7335 31.2703 23.0868 30.5381 23.0088 29.6621L23.001 29.4854V27.5156L23.0088 27.3379C23.0866 26.4614 23.7341 25.7295 24.6104 25.5547L25.1357 25.4502L24.8379 25.002L24.8369 25H22.9102C22.2386 25 21.6562 24.5549 21.4707 23.9229L21.4395 23.7939L21.2588 22.8955C20.9116 22.7338 20.5808 22.5419 20.2705 22.3242L19.3994 22.6182L19.2715 22.6553C18.6736 22.8002 18.0453 22.5633 17.6914 22.0596L17.6191 21.9473L16.5273 20.0547C16.1708 19.4371 16.2976 18.6509 16.8359 18.1777L17.5254 17.5723C17.5086 17.3843 17.5 17.1934 17.5 17C17.5 16.8084 17.5089 16.6192 17.5254 16.4326L16.835 15.8242C16.2966 15.351 16.1698 14.5649 16.5264 13.9473L17.6191 12.0547L17.6201 12.0537C17.9772 11.437 18.7204 11.1545 19.3984 11.3838L20.2686 11.6797C20.5785 11.4619 20.9089 11.2703 21.2559 11.1084L21.4365 10.2061C21.5767 9.5062 22.1912 9.0006 22.9062 9H25.0928ZM31.5166 21.001L31.0869 23.1543L30.5654 23.3496C30.4503 23.3928 30.3363 23.4395 30.2246 23.4902L29.7188 23.7207L27.8936 22.501L26.5547 23.8389C26.5472 23.8709 26.5387 23.9024 26.5293 23.9336L27.7188 25.7188L27.4883 26.2246C27.4344 26.3431 27.3864 26.4573 27.3447 26.5684L27.1494 27.0889L25.001 27.5156V29.4844L27.1504 29.915L27.3457 30.4346C27.3876 30.546 27.4353 30.66 27.4883 30.7764L27.7188 31.2822L26.502 33.1064L27.8936 34.499L29.7197 33.2803L30.2256 33.5107C30.3401 33.5627 30.4531 33.6096 30.5645 33.6514L31.085 33.8467L31.5166 35.999L33.4854 36L33.9141 33.8438L34.4336 33.6484C34.5438 33.6069 34.6555 33.5597 34.7695 33.5078L35.2754 33.2773L37.1084 34.499L38.5 33.1074L38.501 33.1084L37.585 31.7383L37.2754 31.2764L37.5059 30.7695C37.5546 30.6622 37.6004 30.5503 37.6436 30.4355L37.8389 29.916L40 29.4844L40.001 29.4834V27.5156L37.8398 27.0859L37.6436 26.5654C37.6021 26.4553 37.5556 26.3442 37.5049 26.2324L37.2754 25.7266L38.499 23.8926L37.1084 22.501L35.2764 23.7236L34.7695 23.4932C34.6557 23.4414 34.5439 23.3941 34.4336 23.3525L33.9141 23.1572L33.4854 21L31.5166 21.001ZM23.3174 11L23.002 12.5762L22.4717 12.7676L22.2842 12.8398C21.8519 13.0184 21.4528 13.2633 21.0996 13.5615L20.668 13.9268L20.1328 13.7451L19.1455 13.4111L18.4629 14.5938L19.6689 15.6543L19.5703 16.208C19.5244 16.467 19.5 16.7315 19.5 17C19.5 17.2691 19.5249 17.5344 19.5713 17.7949L19.6699 18.3506L18.4639 19.4092L19.1465 20.5928L20.6699 20.0771L21.1006 20.4404C21.5044 20.781 21.9686 21.0523 22.4736 21.2344L23.0049 21.4258L23.1152 21.9785L23.3203 23H24.6855L25 21.4248L25.5303 21.2334C26.0334 21.0514 26.4965 20.7805 26.9004 20.4395L27.332 20.0752L28.8555 20.5908L29.5391 19.4082L28.3301 18.3467L28.4287 17.792C28.475 17.531 28.5 17.2667 28.5 17C28.5 16.7314 28.4751 16.4658 28.4287 16.2051L28.3301 15.6504L29.5371 14.5908L28.8545 13.4072L27.3291 13.9229L26.8984 13.5596C26.4948 13.2192 26.0311 12.9485 25.5273 12.7666L24.9971 12.5752L24.6826 11H23.3174Z" fill="oklch(0.3523 0 0 / 1)" class="wd-expressive-fill"></path>
<path d="M44.5 2C45.3284 2 46 2.67157 46 3.5C46 17.2581 46 31.0163 46 44.7744C46 45.0703 45.9836 45.3533 45.7998 45.5986L45.0498 46.5986C43.9832 48.0207 43.9835 49.9772 45.0498 51.3994L45.5 52L45.6006 52.0098C45.8286 52.0563 46 52.2583 46 52.5V53.5C46 53.7761 45.7761 54 45.5 54H15C12.2386 54 10 51.7614 10 49V7C10 4.23858 12.2386 2 15 2H44.5ZM15 46C13.3431 46 12 47.3431 12 49C12 50.6569 13.3431 52 15 52H43.0557C41.9836 50.146 41.9831 47.8542 43.0547 46H15ZM15 4C13.3431 4 12 5.34315 12 7V45C12.8357 44.3722 13.8743 44 15 44H44V4H15Z" fill="oklch(0.3523 0 0 / 1)" class="wd-expressive-fill"></path>
</g>
</svg>