<svg role="presentation" width="56" height="56" viewBox="0 0 56 56" xmlns="http://www.w3.org/2000/svg" class="wd-expressive wd-expressive-arrow-right-circle">
<path d="M28 4C41.2548 4 52 14.7452 52 28C52 41.2548 41.2548 52 28 52C14.7452 52 4 41.2548 4 28C4 14.7452 14.7452 4 28 4ZM28 9C17.5066 9 9 17.5066 9 28C9 38.4934 17.5066 47 28 47C38.4934 47 47 38.4934 47 28C47 17.5066 38.4934 9 28 9Z" fill="oklch(0.3057 0.079 256.22 / 0.13)" class="wd-expressive-accent"></path>
<g>
<path d="M31.3984 17.7754C31.6451 17.6515 31.9451 17.7516 32.0732 17.9961C33.9398 21.5591 36.5134 24.6976 39.6289 27.2227C39.6596 27.2475 39.6886 27.2747 39.7158 27.3027C39.7282 27.3155 39.7393 27.3294 39.751 27.3428C39.7869 27.3839 39.821 27.4265 39.8496 27.4727C39.8621 27.4928 39.8728 27.5142 39.8838 27.5352C39.8906 27.5481 39.8981 27.561 39.9043 27.5742C39.9284 27.6255 39.9468 27.6796 39.9619 27.7344C39.9663 27.7502 39.972 27.7661 39.9756 27.7822C39.9883 27.8392 39.9945 27.898 39.9971 27.957C39.9976 27.9689 39.9989 27.9813 39.999 27.9932V28.0078C39.9989 28.0197 39.9976 28.0321 39.9971 28.0439C39.9944 28.1033 39.9884 28.1625 39.9756 28.2197C39.9714 28.238 39.9651 28.2564 39.96 28.2744C39.955 28.2919 39.9502 28.31 39.9443 28.3271C39.9254 28.3821 39.9012 28.4356 39.873 28.4863C39.8496 28.5285 39.8234 28.5699 39.7939 28.6084L39.7852 28.6201C39.7398 28.6777 39.6869 28.7313 39.6289 28.7783C36.5137 31.3033 33.9397 34.442 32.0732 38.0049C31.9449 38.2491 31.645 38.3486 31.3984 38.2246L30.5049 37.7754C30.2585 37.6514 30.1587 37.351 30.2861 37.1064C31.8648 34.085 33.9208 31.3497 36.3633 29H16.5C16.224 28.9999 16.0001 28.776 16 28.5V27.5C16.0001 27.224 16.224 27.0001 16.5 27H36.3643C33.9215 24.6503 31.865 21.9162 30.2861 18.8945C30.1584 18.65 30.2586 18.3487 30.5049 18.2246L31.3984 17.7754Z" fill="oklch(0.3523 0 0 / 1)" class="wd-expressive-fill"></path>
<path d="M28 3C41.8068 3.00018 52.9998 14.1932 53 28C52.9998 41.8068 41.8068 52.9998 28 53C14.1932 52.9998 3.0002 41.8068 3 28C3.0002 14.1932 14.1932 3.00018 28 3ZM28 5C15.2977 5.00018 5.0002 15.2977 5 28C5.0002 40.7023 15.2977 50.9998 28 51C40.7023 50.9998 50.9998 40.7023 51 28C50.9998 15.2977 40.7023 5.00018 28 5Z" fill="oklch(0.3523 0 0 / 1)" class="wd-expressive-fill"></path>
</g>
</svg>