<svg role="presentation" width="56" height="56" viewBox="0 0 56 56" xmlns="http://www.w3.org/2000/svg" class="wd-expressive wd-expressive-easel-arrow-right">
<g>
<path d="M52 42H42.8799L45.5967 48.6211C45.866 49.2789 45.3818 50 44.6709 50H42.5098C42.1043 49.9999 41.739 49.7549 41.585 49.3799L38.5576 42H17.4443L14.417 49.3799C14.263 49.7548 13.8975 49.9998 13.4922 50H11.3291C10.6184 49.9997 10.135 49.2788 10.4043 48.6211L13.1211 42H4V39H52V42Z" fill="oklch(0.3057 0.079 256.22 / 0.13)" class="wd-expressive-accent"></path>
<path d="M41 9H15V6H41V9Z" fill="oklch(0.3057 0.079 256.22 / 0.13)" class="wd-expressive-accent"></path>
</g>
<g>
<path d="M33.209 17.0244C33.4556 16.9007 33.7563 17.0005 33.8857 17.2441C35.3136 19.9359 37.2692 22.3084 39.6299 24.2217C39.7338 24.3059 39.817 24.4103 39.8789 24.5254C39.9567 24.6694 39.9999 24.8324 40 25C39.9997 25.301 39.8636 25.5877 39.6299 25.7773C37.2694 27.6905 35.3135 30.0634 33.8857 32.7549C33.7561 32.9982 33.4564 33.0983 33.21 32.9746L32.3164 32.5254C32.0699 32.4015 31.9702 32.1005 32.0986 31.8564C33.2402 29.6953 34.6955 27.7232 36.4082 26H15.5C15.224 26 15.0002 25.776 15 25.5V24.5C15.0002 24.224 15.224 24 15.5 24H36.4102C34.6963 22.2764 33.2397 20.3047 32.0977 18.1426C31.9693 17.8987 32.0693 17.5977 32.3154 17.4736L33.209 17.0244Z" fill="oklch(0.3523 0 0 / 1)" class="wd-expressive-fill"></path>
<path d="M41 5C41.5522 5 41.9999 5.44778 42 6V7H50.5C51.3284 7 51.9999 7.67164 52 8.5V38L52.1025 38.0049C52.6066 38.0562 52.9999 38.4824 53 39V42C52.9997 42.552 52.5521 43 52 43H44.3711L46.5215 48.2412C47.0609 49.5569 46.0938 50.9996 44.6719 51H42.5098C41.6987 50.9998 40.9671 50.5092 40.6592 49.7588L37.8857 43H18.1143L15.3418 49.7588C15.0338 50.5092 14.3033 50.9998 13.4922 51H11.3291C9.90723 50.9995 8.94013 49.5569 9.47949 48.2412L11.6299 43H4C3.44793 43 3.00034 42.552 3 42V39C3.00007 38.4824 3.39341 38.0562 3.89746 38.0049L4 38V8.5C4.00008 7.67164 4.67162 7 5.5 7H14V6C14.0001 5.44778 14.4478 5 15 5H41ZM11.3291 49H13.4922L15.9541 43H13.791L11.3291 49ZM42.5098 49H44.6719L42.21 43H40.0479L42.5098 49ZM5 41H51V40H5V41ZM6 38H50V9H42L41.9951 9.10156C41.9439 9.60586 41.5178 10 41 10H15C14.4822 10 14.0561 9.60586 14.0049 9.10156L14 9H6V38ZM16 8H40V7H16V8Z" fill="oklch(0.3523 0 0 / 1)" class="wd-expressive-fill"></path>
</g>
</svg>