<svg role="presentation" width="56" height="56" viewBox="0 0 56 56" xmlns="http://www.w3.org/2000/svg" class="wd-expressive wd-expressive-clipboard">
<g>
<path d="M45 50H11C11 46.5858 11.7079 43.2042 13.084 40.0498C13.6253 38.809 14.2674 37.6133 15 36.4717V44H41V21.1406C42.031 21.0453 43.0337 21 44 21H45V50Z" fill="oklch(0.3057 0.079 256.22 / 0.13)" class="wd-expressive-accent"></path>
<path d="M22 29C23.1046 29 24 29.8954 24 31C24 32.1046 23.1046 33 22 33C20.8954 33 20 32.1046 20 31C20 29.8954 20.8954 29 22 29Z" fill="oklch(0.3057 0.079 256.22 / 0.13)" class="wd-expressive-accent"></path>
<path d="M28 3C29.9339 3 31.6107 4.09857 32.4424 5.70508C32.5338 5.88125 32.7116 6 32.9102 6H36.5C36.7761 6 37 6.22386 37 6.5V12.5C36.9999 12.776 36.7761 13 36.5 13H19.5C19.2239 13 19.0001 12.776 19 12.5V6.5C19 6.22386 19.2239 6 19.5 6H23.0898C23.2884 6 23.4662 5.88125 23.5576 5.70508C24.3893 4.09857 26.0661 3 28 3Z" fill="oklch(0.3057 0.079 256.22 / 0.13)" class="wd-expressive-accent"></path>
</g>
<g>
<path d="M22 28C23.6569 28 25 29.3431 25 31C25 32.6569 23.6569 34 22 34C20.3431 34 19 32.6569 19 31C19 29.3431 20.3431 28 22 28ZM22 30C21.4477 30 21 30.4477 21 31C21 31.5523 21.4477 32 22 32C22.5523 32 23 31.5523 23 31C23 30.4477 22.5523 30 22 30Z" fill="oklch(0.3523 0 0 / 1)" class="wd-expressive-fill"></path>
<path d="M30.5 31C30.7761 31 31 31.2239 31 31.5V32.5C31 32.7761 30.7761 33 30.5 33H27.5C27.2239 33 27 32.7761 27 32.5V31.5C27 31.2239 27.2239 31 27.5 31H30.5Z" fill="oklch(0.3523 0 0 / 1)" class="wd-expressive-fill"></path>
<path d="M34.5 28C34.7761 28 35 28.2239 35 28.5V29.5C35 29.7761 34.7761 30 34.5 30H27.5C27.2239 30 27 29.7761 27 29.5V28.5C27 28.2239 27.2239 28 27.5 28H34.5Z" fill="oklch(0.3523 0 0 / 1)" class="wd-expressive-fill"></path>
<path d="M23.9395 19.1465C24.1347 18.9513 24.4512 18.9513 24.6465 19.1465L25.3535 19.8535C25.5487 20.0488 25.5487 20.3653 25.3535 20.5605L22.207 23.707C22.0195 23.8945 21.7652 24 21.5 24C21.2349 24 20.9805 23.8945 20.793 23.707L19.1465 22.0605C18.9513 21.8653 18.9513 21.5488 19.1465 21.3535L19.8535 20.6465C20.0488 20.4513 20.3653 20.4513 20.5605 20.6465L21.5 21.5859L23.9395 19.1465Z" fill="oklch(0.3523 0 0 / 1)" class="wd-expressive-fill"></path>
<path d="M31.5 22C31.7761 22 32 22.2239 32 22.5V23.5C32 23.7761 31.7761 24 31.5 24H27.5C27.2239 24 27 23.7761 27 23.5V22.5C27 22.2239 27.2239 22 27.5 22H31.5Z" fill="oklch(0.3523 0 0 / 1)" class="wd-expressive-fill"></path>
<path d="M36.5 19C36.7761 19 37 19.2239 37 19.5V20.5C37 20.7761 36.7761 21 36.5 21H27.5C27.2239 21 27 20.7761 27 20.5V19.5C27 19.2239 27.2239 19 27.5 19H36.5Z" fill="oklch(0.3523 0 0 / 1)" class="wd-expressive-fill"></path>
<path d="M28 2C30.2218 2 32.1561 3.20968 33.1924 5H36.5C37.1529 5 37.707 5.41766 37.9131 6H43C44.6568 6.00001 46 7.34315 46 9V48C46 49.6568 44.6568 50.9999 43 51H13C11.3431 51 10 49.6568 10 48V9C10 7.34322 11.3432 6.00011 13 6H18.0869C18.293 5.41766 18.8471 5 19.5 5H22.8076C23.8439 3.20968 25.7782 2 28 2ZM13 8C12.4478 8.00011 12 8.44778 12 9V48C12 48.5523 12.4477 49 13 49H43C43.5522 48.9999 44 48.5522 44 48V9C44 8.44772 43.5523 8.00001 43 8H38V10H41C41.2652 10 41.5195 10.1054 41.707 10.293C41.8946 10.4805 42 10.7348 42 11V44C42 44.5522 41.5522 44.9999 41 45H15C14.7348 45 14.4805 44.8946 14.293 44.707C14.1054 44.5195 14 44.2652 14 44V11C14 10.4478 14.4478 10.0001 15 10H18V8H13ZM16 43H40V12H38V12.5C38 13.3284 37.3284 14 36.5 14H19.5C18.6716 14 18 13.3284 18 12.5V12H16V43ZM28 4C26.4548 4 25.1131 4.8764 24.4463 6.16406C24.2004 6.63899 23.6985 7 23.0898 7H20V12H36V7H32.9102C32.3015 7 31.7996 6.63899 31.5537 6.16406C30.8869 4.8764 29.5452 4 28 4Z" fill="oklch(0.3523 0 0 / 1)" class="wd-expressive-fill"></path>
</g>
</svg>