<svg role="presentation" width="56" height="56" viewBox="0 0 56 56" xmlns="http://www.w3.org/2000/svg" class="wd-expressive wd-expressive-headset">
<g>
<path d="M30.5 46C30.7761 46 31 46.2239 31 46.5V49.5C31 49.7761 30.7761 50 30.5 50H25C23.8954 50 23 49.1046 23 48V46.5C23 46.2239 23.2239 46 23.5 46H30.5Z" fill="oklch(0.3057 0.079 256.22 / 0.13)" class="wd-expressive-accent"></path>
<path d="M9.5 24C9.77614 24 10 24.2239 10 24.5V38H8.2793L8.17383 37.9893C8.07136 37.9672 7.9778 37.9127 7.9082 37.832C6.09592 35.7301 5 32.9931 5 30C5 27.8137 5.58691 25.7653 6.6084 24H9.5Z" fill="oklch(0.3057 0.079 256.22 / 0.13)" class="wd-expressive-accent"></path>
<path d="M46.7207 24C46.8629 24 46.9989 24.0603 47.0918 24.168C48.9041 26.2699 50 29.0069 50 32C50 33.5266 49.7132 34.986 49.1934 36.3291C48.864 36.8585 48.4971 37.362 48.0918 37.832C47.9989 37.9397 47.8629 38 47.7207 38H44.5L44.3994 37.9902C44.1714 37.9437 44 37.7417 44 37.5V24H46.7207Z" fill="oklch(0.3057 0.079 256.22 / 0.13)" class="wd-expressive-accent"></path>
</g>
<g>
<path d="M47.7207 21C48.1438 21 48.5603 21.1791 48.8496 21.5146C50.8125 23.7912 52 26.7583 52 30C52 33.039 50.9558 35.8362 49.208 38.0498L48.8496 38.4854C48.5603 38.8209 48.1438 39 47.7207 39H45V41.9043C45 42.7465 44.6466 43.5925 43.9443 44.1562C41.1905 46.3657 37.7522 47.7591 34 47.9707V48C34 49.6569 32.6569 51 31 51H25C23.3431 51 22 49.6569 22 48V46C22 44.3431 23.3431 43 25 43H31C32.6451 43 33.9802 44.3242 33.999 45.9648C37.2792 45.7563 40.2807 44.5317 42.6924 42.5967C42.8772 42.4484 43 42.1997 43 41.9043V22.5C43 21.6716 43.6716 21 44.5 21H47.7207ZM25 45C24.4477 45 24 45.4477 24 46V48C24 48.5523 24.4477 49 25 49H31C31.5523 49 32 48.5523 32 48V46C32 45.4477 31.5523 45 31 45H25ZM45 37H47.4824C49.0544 35.0975 50 32.6609 50 30C50 27.3391 49.0544 24.9025 47.4824 23H45V37Z" fill="oklch(0.3523 0 0 / 1)" class="wd-expressive-fill"></path>
<path d="M11.5 21C12.3284 21 13 21.6716 13 22.5V37.5C13 38.3284 12.3284 39 11.5 39H8.2793C7.8562 39 7.43968 38.8209 7.15039 38.4854L6.79199 38.0498C5.04424 35.8362 4 33.039 4 30C4 26.7583 5.18753 23.7912 7.15039 21.5146C7.43968 21.1791 7.8562 21 8.2793 21H11.5ZM8.51758 23C6.94555 24.9025 6 27.3391 6 30C6 32.6609 6.94555 35.0975 8.51758 37H11V23H8.51758Z" fill="oklch(0.3523 0 0 / 1)" class="wd-expressive-fill"></path>
<path d="M28 5C31.9622 5.00007 35.8145 6.30773 38.958 8.71973C41.9688 11.0301 44.1696 14.2304 45.251 17.8594C45.3298 18.124 45.171 18.3992 44.9043 18.4707L44.4209 18.5996L43.9385 18.7295C43.6717 18.8011 43.3982 18.6424 43.3184 18.3779C42.3515 15.1741 40.4018 12.3491 37.7402 10.3066C34.9461 8.16266 31.5219 7.00007 28 7C24.4781 7.00007 21.0539 8.16266 18.2598 10.3066C15.5983 12.349 13.6495 15.1741 12.6826 18.3779C12.6028 18.6425 12.3284 18.8013 12.0615 18.7295L11.5791 18.5996L11.0967 18.4707C10.8299 18.3992 10.6711 18.124 10.75 17.8594C11.8314 14.2305 14.0312 11.0301 17.042 8.71973C20.1855 6.30773 24.0378 5.00007 28 5Z" fill="oklch(0.3523 0 0 / 1)" class="wd-expressive-fill"></path>
</g>
</svg>