<svg role="presentation" width="56" height="56" viewBox="0 0 56 56" xmlns="http://www.w3.org/2000/svg" class="wd-expressive wd-expressive-money-search">
<g>
<path d="M36.1514 34.1533C35.4239 35.2572 35 36.5791 35 38C35 41.8659 38.1341 44.9999 42 45C43.4215 45 44.7435 44.5747 45.8477 43.8467C44.5958 45.7458 42.4447 46.9999 40 47C36.1341 46.9999 33 43.8659 33 40C33 37.556 34.2533 35.4054 36.1514 34.1533Z" fill="oklch(0.3057 0.079 256.22 / 0.13)" class="wd-expressive-accent"></path>
<path d="M5 30C8.86599 30 12 33.134 12 37V39H3V30H5Z" fill="oklch(0.3057 0.079 256.22 / 0.13)" class="wd-expressive-accent"></path>
<path d="M26 18C26.9193 18 27.8294 18.1814 28.6787 18.5332C29.528 18.885 30.3002 19.3998 30.9502 20.0498C31.6002 20.6998 32.115 21.472 32.4668 22.3213C32.8186 23.1706 33 24.0807 33 25C33 25.9193 32.8186 26.8294 32.4668 27.6787C32.115 28.528 31.6002 29.3002 30.9502 29.9502C30.4402 30.4602 29.8534 30.8845 29.2148 31.2148C29.3055 31.0396 29.3911 30.8616 29.4668 30.6787C29.8186 29.8294 30 28.9193 30 28C30 27.0807 29.8186 26.1706 29.4668 25.3213C29.115 24.472 28.6002 23.6998 27.9502 23.0498C27.3002 22.3998 26.528 21.885 25.6787 21.5332C24.8294 21.1814 23.9193 21 23 21C22.0807 21 21.1706 21.1814 20.3213 21.5332C20.1383 21.609 19.9595 21.6935 19.7842 21.7842C20.1145 21.1457 20.5399 20.5597 21.0498 20.0498C21.6998 19.3998 22.472 18.885 23.3213 18.5332C24.1706 18.1814 25.0807 18 26 18Z" fill="oklch(0.3057 0.079 256.22 / 0.13)" class="wd-expressive-accent"></path>
<path d="M12 13C12 16.866 8.86599 20 5 20H3V11H12V13Z" fill="oklch(0.3057 0.079 256.22 / 0.13)" class="wd-expressive-accent"></path>
<path d="M49 20H47C43.134 20 40 16.866 40 13V11H49V20Z" fill="oklch(0.3057 0.079 256.22 / 0.13)" class="wd-expressive-accent"></path>
</g>
<g>
<path d="M40.0005 31.9995C44.4185 31.9996 48.0003 35.5815 48.0005 39.9995C48.0005 41.8515 47.3684 43.5548 46.312 44.9106C46.3476 44.9377 46.3821 44.967 46.4146 44.9995L52.0005 50.5854C52.3909 50.9758 52.3907 51.609 52.0005 51.9995C51.61 52.3897 50.9768 52.3899 50.5864 51.9995L45.0005 46.4136C44.9682 46.3813 44.9395 46.3464 44.9126 46.311C43.5567 47.3678 41.8528 47.9995 40.0005 47.9995C35.5822 47.9995 32.0005 44.4178 32.0005 39.9995C32.0007 35.5814 35.5823 31.9995 40.0005 31.9995ZM40.0005 33.9995C36.6869 33.9995 34.0007 36.686 34.0005 39.9995C34.0005 43.3132 36.6868 45.9995 40.0005 45.9995C43.3141 45.9994 46.0005 43.3131 46.0005 39.9995C46.0003 36.6861 43.314 33.9996 40.0005 33.9995Z" fill="oklch(0.3523 0 0 / 1)" class="wd-expressive-fill"></path>
<path d="M48.5005 9.99951C49.3286 9.99969 50.0003 10.6714 50.0005 11.4995V34.5005C50.0004 34.7764 49.7764 35.0003 49.5005 35.0005H48.5005C48.2244 35.0005 48.0006 34.7765 48.0005 34.5005V20.9995H47.0005C42.5822 20.9995 39.0005 17.4178 39.0005 12.9995V11.9995H13.0005V12.9995C13.0005 17.4177 9.41861 20.9993 5.00049 20.9995H4.00049V28.9995H5.00049C9.41849 28.9997 13.0003 32.5815 13.0005 36.9995V37.9995H27.4995C27.7756 37.9995 27.9995 38.2234 27.9995 38.4995V39.4995C27.9995 39.7757 27.7757 39.9995 27.4995 39.9995H3.50049C2.67206 39.9995 2.00049 39.3279 2.00049 38.4995V11.4995C2.00069 10.6713 2.67218 9.99951 3.50049 9.99951H48.5005ZM4.00049 37.9995H11.0005V36.9995C11.0003 33.6861 8.31392 30.9997 5.00049 30.9995H4.00049V37.9995ZM4.00049 18.9995H5.00049C8.31404 18.9993 11.0005 16.3131 11.0005 12.9995V11.9995H4.00049V18.9995ZM41.0005 12.9995C41.0005 16.3132 43.6868 18.9995 47.0005 18.9995H48.0005V11.9995H41.0005V12.9995Z" fill="oklch(0.3523 0 0 / 1)" class="wd-expressive-fill"></path>
<path d="M25.9995 16.9995C27.0498 16.9995 28.0906 17.207 29.061 17.6089C30.0313 18.0108 30.914 18.5997 31.6567 19.3423C32.3994 20.085 32.9881 20.9677 33.3901 21.938C33.7921 22.9085 33.9995 23.9491 33.9995 24.9995L33.9897 25.3931C33.9446 26.3091 33.7418 27.2119 33.3901 28.061C32.9881 29.0315 32.3995 29.9139 31.6567 30.6567C30.9139 31.3995 30.0315 31.9881 29.061 32.3901C28.0905 32.7921 27.0499 32.9995 25.9995 32.9995C24.9492 32.9994 23.9084 32.7921 22.938 32.3901C21.9677 31.9881 21.0849 31.3994 20.3423 30.6567C19.5997 29.914 19.0108 29.0313 18.6089 28.061C18.207 27.0906 17.9995 26.0499 17.9995 24.9995C17.9996 23.9491 18.2069 22.9084 18.6089 21.938C19.0109 20.9676 19.5996 20.085 20.3423 19.3423C21.085 18.5996 21.9676 18.0109 22.938 17.6089C23.9084 17.2069 24.9492 16.9996 25.9995 16.9995ZM25.9995 18.9995C25.2118 18.9996 24.4314 19.1551 23.7036 19.4565C22.9758 19.7581 22.3144 20.2003 21.7573 20.7573C21.2003 21.3144 20.758 21.9758 20.4565 22.7036C20.1551 23.4314 19.9996 24.2118 19.9995 24.9995C19.9995 25.7872 20.1552 26.5676 20.4565 27.2954C20.758 28.0231 21.2004 28.6847 21.7573 29.2417C22.3143 29.7987 22.9759 30.241 23.7036 30.5425C24.4314 30.8439 25.2118 30.9994 25.9995 30.9995C26.7873 30.9995 27.5676 30.8439 28.2954 30.5425C29.0233 30.241 29.6846 29.7988 30.2417 29.2417C30.7988 28.6846 31.241 28.0233 31.5425 27.2954C31.8439 26.5675 31.9995 25.7873 31.9995 24.9995L31.9927 24.7046C31.9588 24.0176 31.8063 23.3405 31.5425 22.7036C31.241 21.9759 30.7987 21.3143 30.2417 20.7573C29.6847 20.2004 29.0231 19.758 28.2954 19.4565C27.5677 19.1552 26.7872 18.9995 25.9995 18.9995Z" fill="oklch(0.3523 0 0 / 1)" class="wd-expressive-fill"></path>
</g>
</svg>