<svg role="presentation" width="56" height="56" viewBox="0 0 56 56" xmlns="http://www.w3.org/2000/svg" class="wd-expressive wd-expressive-receipt">
<path d="M15 44.7002L19 47L23 44.7002L27 47L31 44.7002L35 47L39 44.7002L43 47H44V51L40 48.7002L36 51L32 48.7002L28 51L24 48.7002L20 51L16 48.7002L12 51V5H15V44.7002Z" fill="oklch(0.3057 0.079 256.22 / 0.13)" class="wd-expressive-accent"></path>
<g>
<path d="M38.5 40C38.7761 40 39 40.2239 39 40.5V41.5C39 41.7761 38.7761 42 38.5 42H31.5C31.2239 42 31 41.7761 31 41.5V40.5C31 40.2239 31.2239 40 31.5 40H38.5Z" fill="oklch(0.3523 0 0 / 1)" class="wd-expressive-fill"></path>
<path d="M29.5 32C29.7761 32 30 32.2239 30 32.5V33.5C30 33.7761 29.7761 34 29.5 34H17.5C17.2239 34 17 33.7761 17 33.5V32.5C17 32.2239 17.2239 32 17.5 32H29.5Z" fill="oklch(0.3523 0 0 / 1)" class="wd-expressive-fill"></path>
<path d="M38.5 32C38.7761 32 39 32.2239 39 32.5V33.5C39 33.7761 38.7761 34 38.5 34H34.5C34.2239 34 34 33.7761 34 33.5V32.5C34 32.2239 34.2239 32 34.5 32H38.5Z" fill="oklch(0.3523 0 0 / 1)" class="wd-expressive-fill"></path>
<path d="M29.5 27C29.7761 27 30 27.2239 30 27.5V28.5C30 28.7761 29.7761 29 29.5 29H17.5C17.2239 29 17 28.7761 17 28.5V27.5C17 27.2239 17.2239 27 17.5 27H29.5Z" fill="oklch(0.3523 0 0 / 1)" class="wd-expressive-fill"></path>
<path d="M38.5 27C38.7761 27 39 27.2239 39 27.5V28.5C39 28.7761 38.7761 29 38.5 29H34.5C34.2239 29 34 28.7761 34 28.5V27.5C34 27.2239 34.2239 27 34.5 27H38.5Z" fill="oklch(0.3523 0 0 / 1)" class="wd-expressive-fill"></path>
<path d="M29.5 22C29.7761 22 30 22.2239 30 22.5V23.5C30 23.7761 29.7761 24 29.5 24H17.5C17.2239 24 17 23.7761 17 23.5V22.5C17 22.2239 17.2239 22 17.5 22H29.5Z" fill="oklch(0.3523 0 0 / 1)" class="wd-expressive-fill"></path>
<path d="M38.5 22C38.7761 22 39 22.2239 39 22.5V23.5C39 23.7761 38.7761 24 38.5 24H34.5C34.2239 24 34 23.7761 34 23.5V22.5C34 22.2239 34.2239 22 34.5 22H38.5Z" fill="oklch(0.3523 0 0 / 1)" class="wd-expressive-fill"></path>
<path d="M33.5 14C33.7761 14 34 14.2239 34 14.5V15.5C34 15.7761 33.7761 16 33.5 16H17.5C17.2239 16 17 15.7761 17 15.5V14.5C17 14.2239 17.2239 14 17.5 14H33.5Z" fill="oklch(0.3523 0 0 / 1)" class="wd-expressive-fill"></path>
<path d="M38.5 9C38.7761 9 39 9.22386 39 9.5V10.5C39 10.7761 38.7761 11 38.5 11H17.5C17.2239 11 17 10.7761 17 10.5V9.5C17 9.22386 17.2239 9 17.5 9H38.5Z" fill="oklch(0.3523 0 0 / 1)" class="wd-expressive-fill"></path>
<path d="M42 4C43.6569 4 45 5.34315 45 7V50.1357C45 51.2893 43.752 52.0115 42.752 51.4365L39.999 49.8525L36.748 51.7236C36.2851 51.9898 35.7149 51.9898 35.252 51.7236L32 49.8525L28.748 51.7236C28.2851 51.9898 27.7149 51.9898 27.252 51.7236L24 49.8525L20.748 51.7236C20.2851 51.9898 19.7149 51.9898 19.252 51.7236L16 49.8525L13.248 51.4365C12.2481 52.0115 11 51.2893 11 50.1357V7C11 5.34315 12.3431 4 14 4H42ZM14 6C13.4477 6 13 6.44772 13 7V49.2705L15.252 47.9766L15.4307 47.8887C15.7952 47.7391 16.2048 47.7391 16.5693 47.8887L16.748 47.9766L20 49.8467L23.252 47.9766L23.4307 47.8887C23.7952 47.7391 24.2048 47.7391 24.5693 47.8887L24.748 47.9766L28 49.8467L31.252 47.9766L31.4307 47.8887C31.7952 47.7391 32.2048 47.7391 32.5693 47.8887L32.748 47.9766L36 49.8467L39.252 47.9766L39.4307 47.8887C39.7952 47.7391 40.2048 47.7391 40.5693 47.8887L40.748 47.9766L43 49.2705V7C43 6.44772 42.5523 6 42 6H14Z" fill="oklch(0.3523 0 0 / 1)" class="wd-expressive-fill"></path>
</g>
</svg>