<svg role="presentation" width="56" height="56" viewBox="0 0 56 56" xmlns="http://www.w3.org/2000/svg" class="wd-expressive wd-expressive-calendar-check-clock">
<g>
<path d="M36.999 35C35.7437 36.6713 35 38.7488 35 41C35 46.5228 39.4772 51 45 51C47.2514 51 49.3286 50.2555 51 49C49.1756 51.4287 46.2715 53 43 53C37.4772 53 33 48.5228 33 43C33 39.7288 34.5707 36.8245 36.999 35Z" fill="oklch(0.3057 0.079 256.22 / 0.13)" class="wd-expressive-accent"></path>
<path d="M47 19H10V43H29.0381C29.1171 44.0389 29.318 45.0437 29.627 46H7V12H47V19Z" fill="oklch(0.3057 0.079 256.22 / 0.13)" class="wd-expressive-accent"></path>
</g>
<g>
<path d="M43.5 37C43.7758 37.0002 43.9999 37.2241 44 37.5V43H47.5C47.7759 43.0003 47.999 43.224 47.999 43.5V44.5C47.999 44.7761 47.7752 45 47.499 45H43C42.4479 44.9998 42 44.5521 42 44V37.5C42.0001 37.2241 42.2241 37.0002 42.5 37H43.5Z" fill="oklch(0.3523 0 0 / 1)" class="wd-expressive-fill"></path>
<path d="M43 32C49.0751 32 54 36.9249 54 43C54 49.0751 49.0751 54 43 54C36.9249 54 32 49.0751 32 43C32 36.9249 36.9249 32 43 32ZM43 34C38.0294 34 34 38.0294 34 43C34 47.9706 38.0294 52 43 52C47.9705 52 52 47.9705 52 43C52 38.0295 47.9705 34 43 34Z" fill="oklch(0.3523 0 0 / 1)" class="wd-expressive-fill"></path>
<path d="M40 5C41.6568 5.00004 43 6.34317 43 8V9H47C48.6568 9.00004 50 10.3432 50 12V29.5C50 29.7761 49.7761 30 49.5 30H48.5C48.2239 30 48 29.7761 48 29.5V20H8V44C8 44.5523 8.44772 45 9 45H29.5C29.7761 45 30 45.2239 30 45.5V46.5C30 46.7761 29.7761 47 29.5 47H9C7.34315 47 6 45.6569 6 44V12C6 10.3431 7.34315 9 9 9H13V8C13 6.34315 14.3431 5 16 5C17.6568 5.00004 19 6.34317 19 8V9H37V8C37 6.34315 38.3431 5 40 5ZM9 11C8.44772 11 8 11.4477 8 12V18H48V12C48 11.4477 47.5522 11 47 11H43C43 12.6568 41.6568 14 40 14C38.3949 14 37.0842 12.7394 37.0039 11.1543L37 11H19C19 12.6568 17.6568 14 16 14C14.3949 14 13.0842 12.7394 13.0039 11.1543L13 11H9ZM16 7C15.4477 7 15 7.44772 15 8V11L15.0049 11.1025C15.0562 11.6067 15.4823 12 16 12C16.5522 12 17 11.5523 17 11V8C17 7.44774 16.5522 7.00004 16 7ZM40 7C39.4477 7 39 7.44772 39 8V11L39.0049 11.1025C39.0562 11.6067 39.4823 12 40 12C40.5522 12 41 11.5523 41 11V8C41 7.44774 40.5522 7.00004 40 7Z" fill="oklch(0.3523 0 0 / 1)" class="wd-expressive-fill"></path>
<path d="M14 37.75C14.9665 37.75 15.75 38.5335 15.75 39.5C15.75 40.4665 14.9665 41.25 14 41.25C13.0335 41.25 12.25 40.4665 12.25 39.5C12.25 38.5335 13.0335 37.75 14 37.75Z" fill="oklch(0.3523 0 0 / 1)" class="wd-expressive-fill"></path>
<path d="M21 37.75C21.9665 37.75 22.75 38.5335 22.75 39.5C22.75 40.4665 21.9665 41.25 21 41.25C20.0335 41.25 19.25 40.4665 19.25 39.5C19.25 38.5335 20.0335 37.75 21 37.75Z" fill="oklch(0.3523 0 0 / 1)" class="wd-expressive-fill"></path>
<path d="M28 37.75C28.9665 37.75 29.75 38.5335 29.75 39.5C29.75 40.4665 28.9665 41.25 28 41.25C27.0335 41.25 26.25 40.4665 26.25 39.5C26.25 38.5335 27.0335 37.75 28 37.75Z" fill="oklch(0.3523 0 0 / 1)" class="wd-expressive-fill"></path>
<path d="M14 32.75C14.9665 32.75 15.75 33.5335 15.75 34.5C15.75 35.4665 14.9665 36.25 14 36.25C13.0335 36.25 12.25 35.4665 12.25 34.5C12.25 33.5335 13.0335 32.75 14 32.75Z" fill="oklch(0.3523 0 0 / 1)" class="wd-expressive-fill"></path>
<path d="M21 32.75C21.9665 32.75 22.75 33.5335 22.75 34.5C22.75 35.4665 21.9665 36.25 21 36.25C20.0335 36.25 19.25 35.4665 19.25 34.5C19.25 33.5335 20.0335 32.75 21 32.75Z" fill="oklch(0.3523 0 0 / 1)" class="wd-expressive-fill"></path>
<path d="M28 32.75C28.9665 32.75 29.75 33.5335 29.75 34.5C29.75 35.4665 28.9665 36.25 28 36.25C27.0335 36.25 26.25 35.4665 26.25 34.5C26.25 33.5335 27.0335 32.75 28 32.75Z" fill="oklch(0.3523 0 0 / 1)" class="wd-expressive-fill"></path>
<path d="M28 27.75C28.9665 27.75 29.75 28.5335 29.75 29.5C29.75 30.4665 28.9665 31.25 28 31.25C27.0335 31.25 26.25 30.4665 26.25 29.5C26.25 28.5335 27.0335 27.75 28 27.75Z" fill="oklch(0.3523 0 0 / 1)" class="wd-expressive-fill"></path>
<path d="M35 27.75C35.9665 27.75 36.75 28.5335 36.75 29.5C36.75 30.4665 35.9665 31.25 35 31.25C34.0335 31.25 33.25 30.4665 33.25 29.5C33.25 28.5335 34.0335 27.75 35 27.75Z" fill="oklch(0.3523 0 0 / 1)" class="wd-expressive-fill"></path>
<path d="M15.9395 26.1465C16.1347 25.9513 16.4512 25.9513 16.6465 26.1465L17.3535 26.8535C17.5486 27.0488 17.5487 27.3653 17.3535 27.5605L14.207 30.707C14.0195 30.8945 13.7651 30.9999 13.5 31C13.2349 31 12.9805 30.8944 12.793 30.707L11.1465 29.0605C10.9513 28.8653 10.9513 28.5488 11.1465 28.3535L11.8535 27.6465C12.0488 27.4513 12.3653 27.4513 12.5605 27.6465L13.5 28.5859L15.9395 26.1465Z" fill="oklch(0.3523 0 0 / 1)" class="wd-expressive-fill"></path>
<path d="M22.9395 26.1465C23.1347 25.9513 23.4512 25.9513 23.6465 26.1465L24.3535 26.8535C24.5486 27.0488 24.5487 27.3653 24.3535 27.5605L21.207 30.707C21.0195 30.8945 20.7651 30.9999 20.5 31C20.2349 31 19.9805 30.8944 19.793 30.707L18.1465 29.0605C17.9513 28.8653 17.9513 28.5488 18.1465 28.3535L18.8535 27.6465C19.0488 27.4513 19.3653 27.4513 19.5605 27.6465L20.5 28.5859L22.9395 26.1465Z" fill="oklch(0.3523 0 0 / 1)" class="wd-expressive-fill"></path>
<path d="M35 22.75C35.9665 22.75 36.75 23.5335 36.75 24.5C36.75 25.4665 35.9665 26.25 35 26.25C34.0335 26.25 33.25 25.4665 33.25 24.5C33.25 23.5335 34.0335 22.75 35 22.75Z" fill="oklch(0.3523 0 0 / 1)" class="wd-expressive-fill"></path>
<path d="M42 22.75C42.9665 22.75 43.75 23.5335 43.75 24.5C43.75 25.4665 42.9665 26.25 42 26.25C41.0335 26.25 40.25 25.4665 40.25 24.5C40.25 23.5335 41.0335 22.75 42 22.75Z" fill="oklch(0.3523 0 0 / 1)" class="wd-expressive-fill"></path>
</g>
</svg>