<svg role="presentation" width="56" height="56" viewBox="0 0 56 56" xmlns="http://www.w3.org/2000/svg" class="wd-expressive wd-expressive-webpage-code">
<path d="M51 11C52.1046 11 53 11.8954 53 13V18H3V13C3 11.8954 3.89543 11 5 11H51Z" fill="oklch(0.3057 0.079 256.22 / 0.13)" class="wd-expressive-accent"></path>
<g>
<path d="M41.8896 26C42.2149 26 42.4538 26.3056 42.375 26.6211L38.625 41.6211C38.5694 41.8437 38.3691 42 38.1396 42H37.1094C36.7842 42 36.5453 41.6944 36.624 41.3789L40.374 26.3789C40.4297 26.1563 40.6299 26 40.8594 26H41.8896Z" fill="oklch(0.3523 0 0 / 1)" class="wd-expressive-fill"></path>
<path d="M11.5 36C11.7761 36 12 36.2239 12 36.5V37.5C12 37.7761 11.7761 38 11.5 38H8.5C8.22386 38 8 37.7761 8 37.5V36.5C8 36.2239 8.22386 36 8.5 36H11.5Z" fill="oklch(0.3523 0 0 / 1)" class="wd-expressive-fill"></path>
<path d="M23.5 36C23.7761 36 24 36.2239 24 36.5V37.5C24 37.7761 23.7761 38 23.5 38H14.5C14.2239 38 14 37.7761 14 37.5V36.5C14 36.2239 14.2239 36 14.5 36H23.5Z" fill="oklch(0.3523 0 0 / 1)" class="wd-expressive-fill"></path>
<path d="M34.2344 30.1172C34.5673 29.908 35 30.1477 35 30.541V31.7207C34.9999 31.8924 34.9119 32.0521 34.7666 32.1436L33.6514 32.8447L33.6523 32.8467L32 33.8857V34.1152L34.7666 35.8564C34.9118 35.948 35 36.1076 35 36.2793V37.4609C35 37.8543 34.5664 38.0933 34.2334 37.8838L31.3906 36.0957C31.3879 36.094 31.3855 36.0916 31.3828 36.0898L30.4678 35.5137C30.1769 35.3306 30 35.0107 30 34.667V33.334C30 32.9903 30.1769 32.6704 30.4678 32.4873L34.2344 30.1172Z" fill="oklch(0.3523 0 0 / 1)" class="wd-expressive-fill"></path>
<path d="M44 30.541C44 30.1476 44.4336 29.9078 44.7666 30.1172L48.5332 32.4873C48.8239 32.6704 49 32.9904 49 33.334V34.667C49 35.0105 48.8239 35.3306 48.5332 35.5137L47.6143 36.0918C47.6126 36.0929 47.6111 36.0946 47.6094 36.0957L44.7666 37.8838C44.4336 38.0933 44 37.8543 44 37.4609V36.2793C44 36.1076 44.0882 35.948 44.2334 35.8564L47 34.1152V33.8857L45.3486 32.8467V32.8447L44.2344 32.1436C44.089 32.0521 44.0001 31.8924 44 31.7207V30.541Z" fill="oklch(0.3523 0 0 / 1)" class="wd-expressive-fill"></path>
<path d="M15.5 32C15.7761 32 16 32.2239 16 32.5V33.5C16 33.7761 15.7761 34 15.5 34H8.5C8.22386 34 8 33.7761 8 33.5V32.5C8 32.2239 8.22386 32 8.5 32H15.5Z" fill="oklch(0.3523 0 0 / 1)" class="wd-expressive-fill"></path>
<path d="M21.5 32C21.7761 32 22 32.2239 22 32.5V33.5C22 33.7761 21.7761 34 21.5 34H18.5C18.2239 34 18 33.7761 18 33.5V32.5C18 32.2239 18.2239 32 18.5 32H21.5Z" fill="oklch(0.3523 0 0 / 1)" class="wd-expressive-fill"></path>
<path d="M27.5 28C27.7761 28 28 28.2239 28 28.5V29.5C28 29.7761 27.7761 30 27.5 30H8.5C8.22386 30 8 29.7761 8 29.5V28.5C8 28.2239 8.22386 28 8.5 28H27.5Z" fill="oklch(0.3523 0 0 / 1)" class="wd-expressive-fill"></path>
<path d="M15.5 24C15.7761 24 16 24.2239 16 24.5V25.5C16 25.7761 15.7761 26 15.5 26H8.5C8.22386 26 8 25.7761 8 25.5V24.5C8 24.2239 8.22386 24 8.5 24H15.5Z" fill="oklch(0.3523 0 0 / 1)" class="wd-expressive-fill"></path>
<path d="M22.5 24C22.7761 24 23 24.2239 23 24.5V25.5C23 25.7761 22.7761 26 22.5 26H18.5C18.2239 26 18 25.7761 18 25.5V24.5C18 24.2239 18.2239 24 18.5 24H22.5Z" fill="oklch(0.3523 0 0 / 1)" class="wd-expressive-fill"></path>
<path d="M34.5 24C34.7761 24 35 24.2239 35 24.5V25.5C35 25.7761 34.7761 26 34.5 26H25.5C25.2239 26 25 25.7761 25 25.5V24.5C25 24.2239 25.2239 24 25.5 24H34.5Z" fill="oklch(0.3523 0 0 / 1)" class="wd-expressive-fill"></path>
<path d="M7.5 13C8.32843 13 9 13.6716 9 14.5C9 15.3284 8.32843 16 7.5 16C6.67157 16 6 15.3284 6 14.5C6 13.6716 6.67157 13 7.5 13Z" fill="oklch(0.3523 0 0 / 1)" class="wd-expressive-fill"></path>
<path d="M12.5 13C13.3284 13 14 13.6716 14 14.5C14 15.3284 13.3284 16 12.5 16C11.6716 16 11 15.3284 11 14.5C11 13.6716 11.6716 13 12.5 13Z" fill="oklch(0.3523 0 0 / 1)" class="wd-expressive-fill"></path>
<path d="M17.5 13C18.3284 13 19 13.6716 19 14.5C19 15.3284 18.3284 16 17.5 16C16.6716 16 16 15.3284 16 14.5C16 13.6716 16.6716 13 17.5 13Z" fill="oklch(0.3523 0 0 / 1)" class="wd-expressive-fill"></path>
<path d="M51 10C52.6569 10 54 11.3431 54 13V43C54 44.6569 52.6569 46 51 46H5C3.34315 46 2 44.6569 2 43V13C2 11.3431 3.34315 10 5 10H51ZM4 43C4 43.5523 4.44772 44 5 44H51C51.5523 44 52 43.5523 52 43V19H4V43ZM5 12C4.44772 12 4 12.4477 4 13V17H52V13C52 12.4477 51.5523 12 51 12H5Z" fill="oklch(0.3523 0 0 / 1)" class="wd-expressive-fill"></path>
</g>
</svg>