<svg role="presentation" width="56" height="56" viewBox="0 0 56 56" xmlns="http://www.w3.org/2000/svg" class="wd-expressive wd-expressive-mountains">
<g>
<path d="M8.34471 31.4551C10.0397 33.1719 12.0149 34.6105 14.1963 35.6982L16.5088 31.5615C20.5397 36.1231 26.4339 39 33 39C36.3849 38.9999 39.5905 38.2339 42.4551 36.8682L46.584 44.2568C46.7695 44.59 46.529 45 46.1474 45H9.85154C9.4702 44.9998 9.22962 44.5899 9.41502 44.2568L11.2344 41H3.8535C3.4715 41 3.23033 40.5891 3.41697 40.2559L8.34471 31.4551Z" fill="oklch(0.3057 0.079 256.22 / 0.13)" class="wd-expressive-accent"></path>
<path d="M40.2666 32.9502C42.8456 34.8659 46.0404 36 49.5 36C49.7312 36 49.9616 35.9934 50.1904 35.9834L52.583 40.2559C52.7692 40.589 52.5281 40.9997 52.1465 41H44.7646L40.2666 32.9502Z" fill="oklch(0.3057 0.079 256.22 / 0.13)" class="wd-expressive-accent"></path>
</g>
<path d="M26.6908 11.2931C27.2275 10.3327 28.5571 10.2728 29.1927 11.1134L29.3099 11.2931L34.8929 21.2843L37.6918 16.2901L37.8089 16.1104C38.4447 15.2721 39.7719 15.3319 40.3089 16.2901L53.4564 39.7677C54.0151 40.7671 53.292 41.9995 52.1468 42.0001H46.4691L47.4574 43.7686C48.0155 44.7683 47.2928 45.9998 46.1478 46.0001H9.85289C8.70761 46.0001 7.98484 44.7685 8.54332 43.7686L9.5316 42.0001H3.85387C2.70853 41.9998 1.98554 40.7672 2.5443 39.7677L15.6918 16.2901L15.8089 16.1104C16.4447 15.2721 17.7719 15.3319 18.3089 16.2901L21.1058 21.2852L26.6908 11.2931ZM27.4584 29.4659C27.0348 29.2012 26.5277 29.104 26.0365 29.1944L18.1683 30.6436L10.7054 44.0001H45.2953L37.0502 29.2442L32.7572 30.8956C31.5843 31.3467 30.2673 31.2206 29.2015 30.5548L27.4584 29.4659ZM17.1488 27.0518C16.9241 26.9022 16.6481 26.8496 16.3841 26.9063L11.4427 27.9688L4.70641 40.0001H10.6488L17.6849 27.4083L17.1488 27.0518ZM39.1498 27.0509C38.9251 26.9012 38.6481 26.8487 38.3841 26.9054L38.0716 26.9718L45.3519 40.0001H51.2943L44.1918 27.3175L43.7494 27.6612C42.7305 28.4492 41.3212 28.4985 40.2494 27.7843L39.1498 27.0509ZM19.4349 28.3761L25.6742 27.2276C26.6567 27.0467 27.6717 27.2401 28.5189 27.7696L30.2611 28.8585C30.794 29.1914 31.453 29.255 32.0394 29.0294L36.0638 27.4806L28.0004 13.0489L19.4349 28.3761ZM36.0384 23.3341L37.0511 25.1466L37.9632 24.9503C38.7557 24.7798 39.5847 24.9373 40.2591 25.3868L41.3587 26.1202C41.7159 26.358 42.1862 26.3416 42.5257 26.0792L43.2035 25.5538L39.0004 18.047L36.0384 23.3341ZM12.7455 25.6427L15.9632 24.9513C16.7556 24.7808 17.5837 24.9383 18.2582 25.3878L18.6634 25.6573L19.9613 23.335L17.0004 18.047L12.7455 25.6427Z" fill="oklch(0.3523 0 0 / 1)" class="wd-expressive-fill"></path>
</svg>