<svg role="presentation" width="56" height="56" viewBox="0 0 56 56" xmlns="http://www.w3.org/2000/svg" class="wd-expressive wd-expressive-video">
<g>
<path d="M6 32.2305C6 32.7993 6.2397 33.3447 6.67578 33.71C7.53122 34.4263 8.43226 35.09 9.37305 35.6973C9.68443 35.8983 10.0493 36 10.4199 36H37.5811C37.9515 35.9999 38.3157 35.8982 38.627 35.6973C38.7481 35.6191 38.8666 35.5371 38.9863 35.457C38.9314 35.9419 38.702 36.3936 38.3242 36.71C37.3244 37.5472 36.2625 38.3127 35.1475 39H35V41C35 42.1046 34.1046 43 33 43H9C7.89543 43 7 42.1046 7 41V39H6.85254C5.73747 38.3127 4.67556 37.5472 3.67578 36.71C3.2397 36.3447 3 35.7993 3 35.2305V16C3 14.8954 3.89543 14 5 14H6V32.2305Z" fill="oklch(0.3057 0.079 256.22 / 0.13)" class="wd-expressive-accent"></path>
<path d="M49.4785 37.6279C49.8176 37.87 50.224 37.9999 50.6406 38H51C52.1046 38 53 37.1046 53 36V40C53 41.1046 52.1046 42 51 42H50.6406C50.224 41.9999 49.8176 41.87 49.4785 41.6279L39 34.1426V30.1426L49.4785 37.6279Z" fill="oklch(0.3057 0.079 256.22 / 0.13)" class="wd-expressive-accent"></path>
</g>
<g>
<path d="M32.5 20C32.7761 20 33 20.2239 33 20.5V21.5C33 21.7761 32.7761 22 32.5 22H9.5C9.22386 22 9 21.7761 9 21.5V20.5C9 20.2239 9.22386 20 9.5 20H32.5Z" fill="oklch(0.3523 0 0 / 1)" class="wd-expressive-fill"></path>
<path d="M37 13C38.6569 13 40 14.3431 40 16V19.9131L48.8975 13.5586C49.4065 13.1951 50.0162 13.0001 50.6406 13H51C52.6569 13 54 14.3431 54 16V40L53.9961 40.1543C53.9158 41.7394 52.6051 43 51 43H50.6406C50.0162 42.9999 49.4065 42.8049 48.8975 42.4414L39.8965 36.0107C39.7456 36.5705 39.4314 37.0867 38.9658 37.4766C38.0277 38.2621 37.0362 38.9859 36 39.6445V41C36 42.6569 34.6569 44 33 44H9C7.34315 44 6 42.6569 6 41V39.6445C4.96375 38.9859 3.9723 38.2621 3.03418 37.4766C2.35768 36.91 2 36.0771 2 35.2305V16C2 14.3431 3.34315 13 5 13H37ZM8 41C8 41.5523 8.44772 42 9 42H33C33.5523 42 34 41.5523 34 41V40H8V41ZM50.6406 15C50.4319 15.0001 50.2286 15.0649 50.0596 15.1855L40 22.3701V33.6279L50.0596 40.8145C50.2286 40.9351 50.4319 40.9999 50.6406 41H51L51.1025 40.9951C51.573 40.9472 51.9472 40.573 51.9951 40.1025L52 40V16C52 15.4477 51.5523 15 51 15H50.6406ZM5 15C4.44772 15 4 15.4477 4 16V35.2305C4 35.5214 4.12187 35.7795 4.31738 35.9434C5.20889 36.6899 6.15287 37.3765 7.14062 38H34.8594C35.8471 37.3765 36.7911 36.6899 37.6826 35.9434C37.8781 35.7795 38 35.5214 38 35.2305V16C38 15.4823 37.6067 15.0562 37.1025 15.0049L37 15H5Z" fill="oklch(0.3523 0 0 / 1)" class="wd-expressive-fill"></path>
</g>
</svg>