<svg role="presentation" width="56" height="56" viewBox="0 0 56 56" xmlns="http://www.w3.org/2000/svg" class="wd-expressive wd-expressive-bus">
<g>
<path d="M17 48C17 49.1046 16.1046 50 15 50H12C10.8954 50 10 49.1046 10 48V46H17V48Z" fill="oklch(0.3057 0.079 256.22 / 0.13)" class="wd-expressive-accent"></path>
<path d="M46 48C46 49.1046 45.1046 50 44 50H41C39.8954 50 39 49.1046 39 48V46H46V48Z" fill="oklch(0.3057 0.079 256.22 / 0.13)" class="wd-expressive-accent"></path>
<path d="M47 41C47 42.1046 46.1046 43 45 43H11C9.89543 43 9 42.1046 9 41V40H47V41Z" fill="oklch(0.3057 0.079 256.22 / 0.13)" class="wd-expressive-accent"></path>
<path d="M9 32C13.1455 32 16.9337 33.5291 19.832 36.0537C19.9392 36.1471 20 36.2826 20 36.4248V37.5C20 37.7761 19.7761 38 19.5 38H9V32Z" fill="oklch(0.3057 0.079 256.22 / 0.13)" class="wd-expressive-accent"></path>
<path d="M47 38H36.5C36.2239 38 36 37.7761 36 37.5V36.4248C36 36.2826 36.0608 36.1471 36.168 36.0537C39.0663 33.5291 42.8545 32 47 32V38Z" fill="oklch(0.3057 0.079 256.22 / 0.13)" class="wd-expressive-accent"></path>
<path d="M41.9639 13C43.2741 16.0707 44 19.4505 44 23V27H9V30H7C5.89543 30 5 29.1046 5 28V26C5 24.8954 5.89543 24 7 24H9V23C9 19.4505 9.7257 16.0706 11.0361 13H41.9639Z" fill="oklch(0.3057 0.079 256.22 / 0.13)" class="wd-expressive-accent"></path>
<path d="M49 24C50.1046 24 51 24.8954 51 26V28C51 29.1046 50.1046 30 49 30H47V24H49Z" fill="oklch(0.3057 0.079 256.22 / 0.13)" class="wd-expressive-accent"></path>
</g>
<g>
<path d="M10.5 46C10.7761 46 11 46.2239 11 46.5V48C11 48.5523 11.4477 49 12 49H15C15.5523 49 16 48.5523 16 48V46.5C16 46.2239 16.2239 46 16.5 46H17.5C17.7761 46 18 46.2239 18 46.5V48C18 49.6569 16.6569 51 15 51H12C10.3431 51 9 49.6569 9 48V46.5C9 46.2239 9.22386 46 9.5 46H10.5Z" fill="oklch(0.3523 0 0 / 1)" class="wd-expressive-fill"></path>
<path d="M39.5 46C39.7761 46 40 46.2239 40 46.5V48C40 48.5523 40.4477 49 41 49H44C44.5523 49 45 48.5523 45 48V46.5C45 46.2239 45.2239 46 45.5 46H46.5C46.7761 46 47 46.2239 47 46.5V48C47 49.6569 45.6569 51 44 51H41C39.3431 51 38 49.6569 38 48V46.5C38 46.2239 38.2239 46 38.5 46H39.5Z" fill="oklch(0.3523 0 0 / 1)" class="wd-expressive-fill"></path>
<path d="M31.5 36C31.7761 36 32 36.2239 32 36.5V37.5C32 37.7761 31.7761 38 31.5 38H24.5C24.2239 38 24 37.7761 24 37.5V36.5C24 36.2239 24.2239 36 24.5 36H31.5Z" fill="oklch(0.3523 0 0 / 1)" class="wd-expressive-fill"></path>
<path d="M31.5 33C31.7761 33 32 33.2239 32 33.5V34.5C32 34.7761 31.7761 35 31.5 35H24.5C24.2239 35 24 34.7761 24 34.5V33.5C24 33.2239 24.2239 33 24.5 33H31.5Z" fill="oklch(0.3523 0 0 / 1)" class="wd-expressive-fill"></path>
<path d="M38.2725 5C39.9604 5.00019 41.6557 5.70176 42.7246 7.12891C45.4732 10.7989 47.29 15.2068 47.8301 20H49C50.6569 20 52 21.3431 52 23V28C52 29.6569 50.6569 31 49 31H48V41C48 42.6567 46.6567 43.9998 45 44H11C9.34315 44 8 42.6569 8 41V31H7C5.34315 31 4 29.6569 4 28V23C4 21.3431 5.34315 20 7 20H8.16895C8.70927 15.2067 10.5277 10.7989 13.2764 7.12891C14.3454 5.70174 16.0404 5.00001 17.7285 5H38.2725ZM10 30.0283C14.0043 30.2541 17.6504 31.827 20.4893 34.2998C20.8198 34.5878 21 35.0008 21 35.4248V36.5C21 37.3284 20.3284 38 19.5 38H10V41C10 41.5523 10.4477 42 11 42H45C45.5521 41.9998 46 41.5522 46 41V38H36.5C35.6716 38 35 37.3284 35 36.5V35.4248C35 35.0008 35.1802 34.5878 35.5107 34.2998C38.3496 31.827 41.9957 30.2541 46 30.0283V28H10V30.0283ZM10 36H19V35.6611C16.5379 33.5792 13.4216 32.249 10 32.0312V36ZM46 32.0312C42.5784 32.249 39.4621 33.5792 37 35.6611V36H46V32.0312ZM7 22C6.44772 22 6 22.4477 6 23V28C6 28.5523 6.44772 29 7 29H8V23C8 22.6652 8.00624 22.3318 8.01855 22H7ZM47.9805 22C47.9928 22.3318 48 22.6652 48 23V29H49C49.5523 29 50 28.5523 50 28V23C50 22.4477 49.5523 22 49 22H47.9805ZM11.707 14C10.6058 16.7859 10 19.8216 10 23V26H27V14H11.707ZM29 26H46V23L45.9951 22.4854C45.9335 19.494 45.3362 16.6349 44.2949 14H29V26ZM17.7285 7C16.5724 7.00001 15.5141 7.4789 14.8779 8.32812C14.0166 9.47813 13.2538 10.7063 12.6025 12H43.3965C42.7453 10.7065 41.9842 9.47793 41.123 8.32812C40.5268 7.53212 39.5593 7.06176 38.4883 7.00586L38.2725 7H17.7285Z" fill="oklch(0.3523 0 0 / 1)" class="wd-expressive-fill"></path>
</g>
</svg>