<svg role="presentation" width="56" height="56" viewBox="0 0 56 56" xmlns="http://www.w3.org/2000/svg" class="wd-expressive wd-expressive-mobile-media">
<g>
<path d="M17 48C17 49.1046 17.8954 50 19 50H41.583C40.8114 51.7657 39.0502 53 37 53H19C16.2386 53 14 50.7614 14 48V8C14 5.94968 15.2341 4.18757 17 3.41602V48Z" fill="oklch(0.3057 0.079 256.22 / 0.13)" class="wd-expressive-accent"></path>
<path d="M33.999 29.332L24.7773 35.4805C24.4451 35.702 24 35.4638 24 35.0645V22.666L33.999 29.332Z" fill="oklch(0.3057 0.079 256.22 / 0.13)" class="wd-expressive-accent"></path>
</g>
<g>
<path d="M23 20.9336C23.0002 19.7732 24.2528 19.0662 25.2373 19.627L25.332 19.6855L35.9307 26.751C36.8212 27.3447 36.8211 28.6533 35.9307 29.2471L25.332 36.3125C24.3352 36.9771 23 36.2625 23 35.0645V20.9336ZM25 34.1299L34.1973 27.999L25 21.8672V34.1299Z" fill="oklch(0.3523 0 0 / 1)" class="wd-expressive-fill"></path>
<path d="M31.5 6C31.7761 6 32 6.22386 32 6.5V7.5C32 7.77614 31.7761 8 31.5 8H24.5C24.2239 8 24 7.77614 24 7.5V6.5C24 6.22386 24.2239 6 24.5 6H31.5Z" fill="oklch(0.3523 0 0 / 1)" class="wd-expressive-fill"></path>
<path d="M37 2C40.3137 2 43 4.68629 43 8V48C43 51.3137 40.3137 54 37 54H19C15.7898 54 13.1684 51.4789 13.0078 48.3086L13 48V8C13 4.68629 15.6863 2 19 2H37ZM19 4C16.7909 4 15 5.79086 15 8V48L15.0049 48.2061C15.1121 50.3194 16.86 52 19 52H37C39.2091 52 41 50.2091 41 48V8C41 5.79086 39.2091 4 37 4H19Z" fill="oklch(0.3523 0 0 / 1)" class="wd-expressive-fill"></path>
</g>
</svg>