<svg role="presentation" width="56" height="56" viewBox="0 0 56 56" xmlns="http://www.w3.org/2000/svg" class="wd-expressive wd-expressive-electric-plug">
<path d="M22 19H19C14.5817 19 11 22.5817 11 27C11 31.4183 14.5817 35 19 35H34C37.866 35 41 38.134 41 42C41 45.866 37.866 49 34 49H10V45H34C35.6569 45 37 43.6569 37 42C37 40.3431 35.6569 39 34 39H19C12.3726 39 7 33.6274 7 27C7 20.3726 12.3726 15 19 15H22V19Z" fill="oklch(0.3057 0.079 256.22 / 0.13)" class="wd-expressive-accent"></path>
<path d="M35 3C36.6569 3 38 4.34315 38 6V8H47C48.6569 8 50 9.34315 50 11C50 12.6569 48.6569 14 47 14H38V20H47C48.6569 20 50 21.3431 50 23C50 24.6569 48.6569 26 47 26H38V28C38 29.6569 36.6569 31 35 31C33.3949 31 32.0842 29.7394 32.0039 28.1543L32 28V27.708C28.2623 27.0887 24.8527 25.4975 22.0449 23.1982C21.3985 22.6686 21.0456 21.8982 21.0039 21.1084L21 20.9502V20H19L18.6396 20.0088C14.9411 20.1963 12 23.2549 12 27L12.0088 27.3604C12.1903 30.9395 15.0605 33.8097 18.6396 33.9912L19 34H34C38.4183 34 42 37.5817 42 42C42 46.4183 38.4183 50 34 50H10.5C10.2239 50 10 49.7761 10 49.5V48.5C10 48.2239 10.2239 48 10.5 48H34C37.3137 48 40 45.3137 40 42C40 38.6863 37.3137 36 34 36H19L18.5371 35.9883C13.935 35.7551 10.2449 32.065 10.0117 27.4629L10 27C10 22.0294 14.0294 18 19 18H21V16H19L18.4336 16.0146C12.6217 16.3094 8 21.1148 8 27L8.01465 27.5664C8.29993 33.1907 12.8093 37.7001 18.4336 37.9854L19 38H34C36.2091 38 38 39.7909 38 42C38 44.2091 36.2091 46 34 46H10.5C10.2239 46 10 45.7761 10 45.5V44.5C10 44.2239 10.2239 44 10.5 44H34C35.1046 44 36 43.1046 36 42C36 40.8954 35.1046 40 34 40H19C11.9326 40 6.18208 34.3604 6.00391 27.3359L6 27C6 19.9326 11.6396 14.1821 18.6641 14.0039L19 14H21V13.0498C21.0002 12.2057 21.3555 11.3667 22.0449 10.8018C24.8527 8.5025 28.2623 6.91135 32 6.29199V6C32 4.34315 33.3431 3 35 3ZM35 5C34.4477 5 34 5.44772 34 6V7.15625C34 7.66127 33.6233 8.08671 33.1221 8.14844C29.4262 8.60358 26.0542 10.1036 23.3125 12.3486C23.1225 12.5043 23.0001 12.7569 23 13.0498V20.9502L23.0059 21.0576C23.0319 21.3044 23.1461 21.5151 23.3125 21.6514C26.0542 23.8964 29.4262 25.3964 33.1221 25.8516L33.2148 25.8672C33.6691 25.9667 34 26.3704 34 26.8438V28C34 28.5523 34.4477 29 35 29C35.5523 29 36 28.5523 36 28V6C36 5.44772 35.5523 5 35 5ZM38 24H47C47.5523 24 48 23.5523 48 23C48 22.4477 47.5523 22 47 22H38V24ZM38 12H47C47.5523 12 48 11.5523 48 11C48 10.4477 47.5523 10 47 10H38V12Z" fill="oklch(0.3523 0 0 / 1)" class="wd-expressive-fill"></path>
</svg>