<svg role="presentation" width="56" height="56" viewBox="0 0 56 56" xmlns="http://www.w3.org/2000/svg" class="wd-expressive wd-expressive-notification">
<g>
<path d="M32.583 44C32.8507 44.6126 33 45.2888 33 46C33 48.7614 30.7614 51 28 51C25.2386 51 23 48.7614 23 46C23 45.2888 23.1493 44.6126 23.417 44H32.583Z" fill="oklch(0.3057 0.079 256.22 / 0.13)" class="wd-expressive-accent"></path>
<path d="M28 11C23.5817 11 20 16.3726 20 23V31.9971C20 33.444 19.3481 34.7987 18.3789 35.873C17.5659 36.7742 16.7968 37.7865 16.0791 38.8975C16.0274 38.9775 16 39.0717 16 39.167V43.5C16 43.7417 16.1714 43.9437 16.3994 43.9902L16.5 44H7.5C7.22386 44 7 43.7761 7 43.5V39.2441C7.00007 39.102 7.06041 38.9661 7.16699 38.8721C8.45445 37.736 9.83612 36.7036 11.2979 35.7881C12.9063 34.7805 14 33.0748 14 31.1768V23C14 16.3726 20.268 11 28 11Z" fill="oklch(0.3057 0.079 256.22 / 0.13)" class="wd-expressive-accent"></path>
<path d="M26.3545 3.35449C26.1275 3.85652 26 4.41324 26 5C26 7.20914 27.7909 9 30 9C30.5868 9 31.1435 8.87247 31.6455 8.64551C31.018 10.0336 29.6224 11 28 11C25.7909 11 24 9.20914 24 7C24 5.37762 24.9664 3.98203 26.3545 3.35449Z" fill="oklch(0.3057 0.079 256.22 / 0.13)" class="wd-expressive-accent"></path>
</g>
<path d="M28 3C28.9889 3 29.9561 3.29337 30.7783 3.84277C31.6004 4.39217 32.2408 5.17342 32.6191 6.08691C32.9975 7.00049 33.0972 8.00575 32.9043 8.97559C32.7935 9.53268 32.5854 10.0614 32.2988 10.5449C38.4145 12.1317 43 17.0189 43 23V31.1768C43 32.6782 43.8693 34.0871 45.2334 34.9414C46.7414 35.8859 48.167 36.9501 49.4951 38.1221C49.8201 38.4089 49.9997 38.8194 50 39.2432V43.5L49.9922 43.6533C49.9154 44.4097 49.2767 45 48.5 45H33.915C33.97 45.3254 34 45.6594 34 46C34 49.3137 31.3137 52 28 52C24.6863 52 22 49.3137 22 46C22 45.6594 22.03 45.3254 22.085 45H7.5C6.67158 45 6 44.3284 6 43.5V39.2432L6.00879 39.0859C6.04772 38.7194 6.22031 38.3733 6.50488 38.1221L7.00781 37.6875C8.19091 36.6857 9.44715 35.7678 10.7666 34.9414C12.1307 34.0871 13 32.6782 13 31.1768V23C13 17.0192 17.585 12.132 23.7002 10.5449C23.4138 10.0615 23.2065 9.53251 23.0957 8.97559C22.9028 8.00575 23.0025 7.00049 23.3809 6.08691C23.7592 5.17342 24.3996 4.39217 25.2217 3.84277C26.0439 3.29337 27.0111 3 28 3ZM24.127 45C24.0446 45.3193 24 45.6541 24 46C24 48.2091 25.7909 50 28 50C30.2091 50 32 48.2091 32 46C32 45.6541 31.9554 45.3193 31.873 45H24.127ZM8 40V43H48V40H8ZM28 12C20.6701 12 15 17.0639 15 23V31.1768C15 33.4717 13.6815 35.4749 11.8281 36.6357C11.1439 37.0643 10.4782 37.5197 9.83203 38H46.168C45.5218 37.5197 44.8561 37.0643 44.1719 36.6357C42.3185 35.4749 41 33.4717 41 31.1768V23C41 17.0639 35.3299 12 28 12ZM28 5C27.4067 5 26.8264 5.17622 26.333 5.50586C25.8399 5.83542 25.4556 6.30367 25.2285 6.85156C25.0015 7.39965 24.9419 8.00311 25.0576 8.58496C25.1734 9.1669 25.4593 9.70154 25.8789 10.1211L25.8672 10.1318C26.5655 10.0451 27.2777 10 28 10C28.7219 10 29.4338 10.0452 30.1318 10.1318L30.1211 10.1211C30.5407 9.70154 30.8266 9.1669 30.9424 8.58496C31.0581 8.00311 30.9985 7.39965 30.7715 6.85156C30.5444 6.30367 30.1601 5.83542 29.667 5.50586C29.1736 5.17622 28.5933 5 28 5Z" fill="oklch(0.3523 0 0 / 1)" class="wd-expressive-fill"></path>
</svg>