<svg role="presentation" width="56" height="56" viewBox="0 0 56 56" xmlns="http://www.w3.org/2000/svg" class="wd-expressive wd-expressive-cloud-users">
<g>
<path d="M13.4912 38.8037C13.1712 39.1512 13 39.6153 13 40.0957V43C13 44.0357 13.7872 44.887 14.7959 44.9893L15 45H32V47H10V41.2012C11.0512 40.2604 12.2237 39.4526 13.4912 38.8037Z" fill="oklch(0.3057 0.079 256.22 / 0.13)" class="wd-expressive-accent"></path>
<path d="M45.5 45C45.776 45 45.9997 45.2241 46 45.5V46.5C45.9997 46.7759 45.776 47 45.5 47H35.5C35.2239 47 35 46.7761 35 46.5V45.5C35.0003 45.2241 35.224 45 35.5 45H45.5Z" fill="oklch(0.3057 0.079 256.22 / 0.13)" class="wd-expressive-accent"></path>
<path d="M52.8066 30.0439C52.9323 30.6769 53 31.3311 53 32.001C52.9998 35.5054 51.1964 38.5875 48.4678 40.373C48.3182 40.1797 48.1493 39.9978 47.959 39.833C47.308 39.2694 46.6125 38.7553 45.8789 38.2959C49.4214 36.9597 52.092 33.8475 52.8066 30.0439Z" fill="oklch(0.3057 0.079 256.22 / 0.13)" class="wd-expressive-accent"></path>
<path d="M21 10.001C21.3451 10.001 21.6865 10.0177 22.0234 10.0488C16.959 10.54 13 14.8087 13 20.002C13.0001 21.099 13.1794 22.154 13.5059 23.1416C9.80178 23.8415 7 27.0934 7 31.001C7 33.4799 8.12824 35.6947 9.89844 37.1621C9.17328 37.6556 8.48323 38.1965 7.83203 38.7793C7.45678 39.1152 7.17003 39.5299 6.98633 39.9873C4.56628 38.1623 3.00016 35.2654 3 32.001C3 27.4887 5.98903 23.6745 10.0947 22.4297C10.034 21.9619 10 21.4853 10 21.001C10 14.926 14.925 10.0012 21 10.001Z" fill="oklch(0.3057 0.079 256.22 / 0.13)" class="wd-expressive-accent"></path>
<path d="M34.2588 29.0889C34.5944 28.7733 35.06 29.171 35.0176 29.6299C35.0063 29.7517 35 29.8752 35 30C35.0003 32.2089 36.791 34 39 34C39.1481 34 39.2946 33.9915 39.4385 33.9756C39.4794 33.9711 39.5206 33.9711 39.5615 33.9756C39.7054 33.9915 39.8519 34 40 34C40.1996 34 40.3363 34.2135 40.2178 34.374C39.4895 35.3601 38.3199 36 37 36C34.791 36 33.0003 34.2089 33 32C33.0001 30.8523 33.4842 29.8179 34.2588 29.0889Z" fill="oklch(0.3057 0.079 256.22 / 0.13)" class="wd-expressive-accent"></path>
<path d="M19.8193 24.1406C18.7078 25.0577 18 26.4465 18 28C18 30.7614 20.2386 33 23 33C23.4065 33 23.8013 32.9499 24.1797 32.8584C23.3155 33.5714 22.2079 34 21 34C18.2386 34 16 31.7614 16 29C16 26.6453 17.6278 24.6712 19.8193 24.1406Z" fill="oklch(0.3057 0.079 256.22 / 0.13)" class="wd-expressive-accent"></path>
</g>
<g>
<path d="M21 36C25.4814 36 29.5716 37.6856 32.667 40.4561C32.8789 40.6457 32.9999 40.9168 33 41.2012V47C33 47.5523 32.5523 48 32 48H10C9.73478 48 9.4805 47.8946 9.29297 47.707C9.10543 47.5195 9 47.2652 9 47V41.2012C9.00007 40.9168 9.12112 40.6457 9.33301 40.4561C12.4284 37.6856 16.5186 36 21 36ZM21 38C17.1881 38 13.6998 39.375 11 41.6572V46H31V41.6572C28.3002 39.375 24.8119 38 21 38Z" fill="oklch(0.3523 0 0 / 1)" class="wd-expressive-fill"></path>
<path d="M37 38C37.185 38 37.3694 38.0039 37.5527 38.0107C37.597 38.0124 37.6413 38.0136 37.6855 38.0156C37.7423 38.0183 37.7989 38.0221 37.8555 38.0254C37.9109 38.0286 37.9662 38.0313 38.0215 38.0352C38.0636 38.0381 38.1055 38.0426 38.1475 38.0459C38.2241 38.0519 38.3007 38.0573 38.377 38.0645C38.3942 38.0661 38.4115 38.0676 38.4287 38.0693C38.5214 38.0784 38.6139 38.0888 38.7061 38.0996C38.7883 38.1093 38.8703 38.1198 38.9521 38.1309C38.9707 38.1334 38.9893 38.1351 39.0078 38.1377C39.1012 38.1506 39.1943 38.165 39.2871 38.1797C39.305 38.1825 39.323 38.1846 39.3408 38.1875C39.4719 38.2088 39.6025 38.2321 39.7324 38.2568C39.7415 38.2586 39.75 38.2624 39.7588 38.2646C42.2997 38.7545 44.6054 39.9057 46.4863 41.5342C46.8199 41.823 47 42.2376 47 42.6611V46.5C47 47.3284 46.3284 48 45.5 48H35.5C35.2239 48 35 47.7761 35 47.5V46.5C35 46.2239 35.2239 46 35.5 46H45V42.8984C42.8315 41.0895 40.0448 40 37 40C36.2176 40 35.4523 40.0719 34.7109 40.209C34.4396 40.259 34.1725 40.0913 34.1113 39.8223L34 39.335L33.8896 38.8467C33.8287 38.5775 33.9974 38.3086 34.2686 38.2568C35.1538 38.088 36.0673 38 37 38Z" fill="oklch(0.3523 0 0 / 1)" class="wd-expressive-fill"></path>
<path d="M21 8.99902C25.0644 8.99913 28.6531 11.0234 30.8223 14.1113C30.9502 14.2933 31.1795 14.3754 31.3945 14.3184C32.1734 14.1116 32.9912 14.001 33.834 14.001C38.2146 14.0013 41.8964 16.966 42.9951 20.9971C42.9957 20.9993 42.9977 21.001 43 21.001C49.075 21.0012 54 25.926 54 32.001L53.9951 32.3369C53.8963 35.6191 52.3586 38.5403 49.9951 40.4902C49.7821 40.6659 49.4677 40.6211 49.3018 40.4004L48.7012 39.6006C48.5357 39.3799 48.581 39.0674 48.792 38.8896C50.6896 37.2922 51.9164 34.9278 51.9961 32.2754L52 32.001C52 27.0305 47.9704 23.0012 43 23.001C42.7631 23.001 42.5238 23.0122 42.2822 23.0312L41.8291 23.0664C41.572 23.0866 41.3412 22.9084 41.2969 22.6543L41.2188 22.2051C40.6245 18.7905 37.7223 16.1695 34.1787 16.0088L33.834 16.001C32.8237 16.001 31.8616 16.2014 30.9834 16.5625L30.5742 16.7305C30.3404 16.8266 30.0709 16.7332 29.9473 16.5127L29.7305 16.126C28.018 13.0662 24.7501 11.0001 21 11C15.4774 11.0002 11 15.4782 11 21.001L11.0059 21.3281C11.0171 21.6545 11.0442 21.9792 11.0859 22.3008L11.1406 22.7207C11.1722 22.963 11.0239 23.1927 10.79 23.2637L10.3848 23.3867C6.68885 24.5073 4 27.9416 4 32.001C4.00015 34.765 5.24543 37.2384 7.20898 38.8906C7.42013 39.0683 7.46621 39.3808 7.30078 39.6016L6.69922 40.4023C6.53331 40.6227 6.21974 40.6677 6.00684 40.4922C3.56173 38.4761 2.00015 35.4205 2 32.001C2 27.4564 4.75616 23.5575 8.68555 21.8799C8.88579 21.7942 9.01421 21.5937 9.00684 21.376C9.00263 21.2516 9.00001 21.1265 9 21.001C9 14.3738 14.3727 8.99922 21 8.99902Z" fill="oklch(0.3523 0 0 / 1)" class="wd-expressive-fill"></path>
<path d="M37 27C39.7614 27 42 29.2386 42 32C42 34.7614 39.7614 37 37 37C34.2386 37 32 34.7614 32 32C32 29.2386 34.2386 27 37 27ZM37 29C35.3431 29 34 30.3431 34 32C34 33.6569 35.3431 35 37 35C38.6569 35 40 33.6569 40 32C40 30.3431 38.6569 29 37 29Z" fill="oklch(0.3523 0 0 / 1)" class="wd-expressive-fill"></path>
<path d="M21 23C24.3137 23 27 25.6863 27 29C27 32.3137 24.3137 35 21 35C17.6863 35 15 32.3137 15 29C15 25.6863 17.6863 23 21 23ZM21 25C18.7909 25 17 26.7909 17 29C17 31.2091 18.7909 33 21 33C23.2091 33 25 31.2091 25 29C25 26.7909 23.2091 25 21 25Z" fill="oklch(0.3523 0 0 / 1)" class="wd-expressive-fill"></path>
</g>
</svg>