<svg role="presentation" width="56" height="56" viewBox="0 0 56 56" xmlns="http://www.w3.org/2000/svg" class="wd-expressive wd-expressive-cloud-puzzle-lightbulb">
<g>
<path d="M38.3711 34.75C38.1314 35.4563 38 36.2127 38 37C38 39.0132 38.8503 40.8278 40.2109 42.1045C41.1795 43.0134 42 44.1718 42 45.5C42 45.7761 42.2239 46 42.5 46H46.6611C46.2655 46.3497 46 46.83 46 47.3613C45.9998 48.2663 45.2662 48.9998 44.3613 49H46V51.8545C45.2039 52.567 44.1524 53 43 53C41.8476 53 40.7961 52.5669 40 51.8545V49H41.6387C40.7337 48.9998 40.0002 48.2663 40 47.3613C40 46.7287 39.6256 46.1664 39.1006 45.8135C37.2306 44.5569 36 42.4223 36 40C36 37.9089 36.9174 36.0327 38.3711 34.75Z" fill="oklch(0.3057 0.079 256.22 / 0.13)" class="wd-expressive-accent"></path>
<path d="M49.6191 42.2715C49.2895 43.2319 48.7578 44.0969 48.0732 44.8174C48.2776 43.8488 48.8936 42.9893 49.6191 42.2715Z" fill="oklch(0.3057 0.079 256.22 / 0.13)" class="wd-expressive-accent"></path>
<path d="M11.6484 28C12.0809 28.0002 12.3427 28.5474 12.1904 28.9521C12.0678 29.2783 12 29.6317 12 30.001C12.0003 31.6576 13.3434 33.0009 15 33.001C16.6566 33.0009 17.9997 31.6575 18 30.001C18 29.6319 17.933 29.2783 17.8105 28.9521C17.6585 28.5474 17.9193 28.0004 18.3516 28H24V31.6494C24.0004 32.0814 24.5466 32.3422 24.9512 32.1904C25.2772 32.0679 25.6309 32.001 26 32.001C27.6568 32.0011 29 33.3442 29 35.001C28.9997 36.6575 27.6566 38.0009 26 38.001C25.631 38.001 25.2772 37.9339 24.9512 37.8115C24.5464 37.6598 24 37.9212 24 38.3535V42.002H13L12.4854 41.9883C7.20216 41.7203 3.00051 37.3516 3 32.002C3 30.579 3.29819 29.2254 3.83398 28H11.6484Z" fill="oklch(0.3057 0.079 256.22 / 0.13)" class="wd-expressive-accent"></path>
<path d="M24 13.0479C25.8816 13.7584 27.4471 15.1177 28.4219 16.8594L29.5049 18.7939L31.5547 17.9512C32.256 17.6628 33.024 17.502 33.834 17.502L34.1094 17.5078C36.9421 17.6363 39.266 19.7324 39.7412 22.4639L40.1309 24.7061L42.4004 24.5273C42.6105 24.5108 42.8095 24.502 43 24.502C45.6703 24.5021 48.013 25.8983 49.3418 28H38.3516C37.9191 27.9999 37.6573 27.4527 37.8096 27.0479C37.9323 26.7216 38 26.3684 38 25.999C38 24.3422 36.6567 22.9991 35 22.999C33.3432 22.9991 32 24.3422 32 25.999C32 26.3683 32.0669 26.7216 32.1895 27.0479C32.3415 27.4526 32.0806 27.9995 31.6484 28H24V22.3506C24 21.9182 23.4536 21.6576 23.0488 21.8096C22.7228 21.9321 22.3691 21.999 22 21.999C20.3432 21.9989 19 20.6558 19 18.999C19 17.3422 20.3432 15.9991 22 15.999C22.369 15.999 22.7228 16.0661 23.0488 16.1885C23.4536 16.3401 24 16.0787 24 15.6465V13.0479Z" fill="oklch(0.3057 0.079 256.22 / 0.13)" class="wd-expressive-accent"></path>
</g>
<g>
<path d="M43 32C47.4183 32 51 35.5817 51 40C51 42.3008 50.0271 44.3752 48.4736 45.833C47.573 46.6781 47 47.589 47 48.5V52.3008L46.667 52.5996C45.6946 53.4699 44.408 54 43 54C41.592 54 40.3054 53.4699 39.333 52.5996L39 52.3008V48.5C39 47.589 38.427 46.6781 37.5264 45.833C35.9729 44.3752 35 42.3008 35 40C35 35.5817 38.5817 32 43 32ZM41 51.3691C41.5674 51.7656 42.2549 52 43 52C43.7451 52 44.4326 51.7656 45 51.3691V50H41V51.3691ZM43 34C39.6863 34 37 36.6863 37 40C37 41.7254 37.727 43.2794 38.8945 44.375C39.8303 45.253 40.7894 46.4848 40.9678 48H45.0322C45.2106 46.4848 46.1697 45.253 47.1055 44.375C48.273 43.2794 49 41.7254 49 40C49 36.6863 46.3137 34 43 34Z" fill="oklch(0.3523 0 0 / 1)" class="wd-expressive-fill"></path>
<path d="M21 9.00195C25.1991 9.00207 28.8903 11.1606 31.0332 14.4229C31.919 14.1495 32.8598 14.002 33.834 14.002C38.216 14.0023 41.8987 16.9689 42.9961 21.002H43C49.075 21.0021 54 25.9269 54 32.002L53.9863 32.5625C53.984 32.6092 53.9785 32.6556 53.9756 32.7021C53.9719 32.7612 53.9685 32.8201 53.9639 32.8789C53.9602 32.9255 53.9564 32.9721 53.9521 33.0186C53.9293 33.2678 53.8976 33.5145 53.8584 33.7588C53.8538 33.7871 53.8495 33.8155 53.8447 33.8438C53.8301 33.9304 53.8145 34.0166 53.7979 34.1025C53.7917 34.1345 53.7858 34.1664 53.7793 34.1982C53.7369 34.4074 53.6898 34.6146 53.6357 34.8193C53.5652 35.0862 53.2829 35.2329 53.0195 35.1504L52.543 35.001L52.0654 34.8506C51.8022 34.7678 51.6571 34.4882 51.7246 34.2207C51.7597 34.0822 51.7917 33.9419 51.8203 33.8008C51.9086 33.3656 51.9653 32.9184 51.9883 32.4619L52 32.002C52 30.9491 51.8176 29.939 51.4854 29H38.3516C37.668 29 37.2027 28.5631 36.9805 28.1484C36.7617 27.7398 36.6842 27.2011 36.874 26.6963C36.955 26.4807 37 26.2465 37 26C36.9998 24.8956 36.1044 24 35 24C33.8956 24 33.0002 24.8956 33 26C33 26.2468 33.045 26.4815 33.126 26.6973C33.3153 27.202 33.2383 27.74 33.0195 28.1484C32.7973 28.563 32.3311 29 31.6475 29H25V31.1279C25.3202 31.045 25.6553 31 26 31C28.209 31 29.9998 32.791 30 35C30 37.2091 28.2091 39 26 39C25.6552 39 25.3201 38.9551 25 38.8721V41.002H32.5C32.7761 41.002 33 41.2258 33 41.502V42.502C33 42.7781 32.7761 43.002 32.5 43.002H12.9736L12.459 42.9883L12.4463 42.9873H12.4346C6.80407 42.7016 2.29092 38.1831 2.01367 32.5508L2 32.002C2 27.3277 4.91531 23.3369 9.02441 21.7432C9.00886 21.4989 9.00002 21.2514 9 21.002C9 14.3746 14.3728 9.00215 21 9.00195ZM4.51465 29C4.18234 29.9392 4 30.9493 4 32.002L4.01074 32.4502C4.23719 37.0559 7.9268 40.7514 12.5293 40.9883L13.0264 41.002H23V38.3516C23.0001 37.6682 23.437 37.2027 23.8516 36.9805C24.2602 36.7616 24.7988 36.6842 25.3037 36.874C25.5194 36.9551 25.7533 37 26 37C27.1046 37 28 36.1046 28 35C27.9998 33.8956 27.1045 33 26 33C25.7531 33 25.5185 33.045 25.3027 33.126C24.7979 33.3154 24.26 33.2384 23.8516 33.0195C23.4371 32.7973 23 32.3311 23 31.6475V29H18.8721C18.955 29.32 19 29.6553 19 30C19 32.2091 17.2091 34 15 34C12.7909 34 11 32.2091 11 30C11 29.6554 11.045 29.32 11.1279 29H4.51465ZM21 11.002C15.4773 11.0021 11 15.4793 11 21.002L11.0059 21.3291C11.0171 21.6555 11.0442 21.9802 11.0859 22.3018L11.1953 23.1416L10.3848 23.3877C8.37416 23.9973 6.66331 25.2928 5.51953 27H11.6475C12.3309 27 12.7973 27.4371 13.0195 27.8516C13.2383 28.2599 13.3152 28.798 13.126 29.3027C13.045 29.5184 13.0001 29.7532 13 30L13.0107 30.2041C13.113 31.2128 13.9643 32 15 32C16.0357 32 16.887 31.2128 16.9893 30.2041L17 30C17 29.8151 16.9745 29.637 16.9277 29.4688L16.874 29.3037L16.8154 29.1133C16.7059 28.6664 16.7889 28.2092 16.9805 27.8516C17.2028 27.437 17.6682 27 18.3516 27H23V22.8721C22.6799 22.9551 22.3448 23 22 23C19.7909 23 18 21.2091 18 19C18.0002 16.791 19.791 15 22 15C22.3447 15 22.6798 15.045 23 15.1279V11.2021C22.3538 11.0709 21.6849 11.002 21 11.002ZM25 15.6475C25 16.3311 24.5629 16.7973 24.1484 17.0195C23.74 17.2384 23.2021 17.3154 22.6973 17.126C22.4815 17.045 22.2469 17 22 17C20.8955 17 20.0002 17.8956 20 19C20 20.1046 20.8954 21 22 21C22.1851 21 22.3629 20.9746 22.5312 20.9277L22.6963 20.874L22.8867 20.8154C23.3337 20.7058 23.7908 20.7889 24.1484 20.9805C24.563 21.2027 24.9999 21.6682 25 22.3516V27H31.1279C31.0451 26.6799 31 26.3446 31 26C31.0002 23.7911 32.791 22 35 22C37.209 22 38.9998 23.7911 39 26L38.9961 26.1836C38.9833 26.4638 38.9402 26.7371 38.8721 27H50.4824C48.8677 24.5894 46.1193 23.0021 43 23.002C42.7631 23.002 42.5238 23.0132 42.2822 23.0322L41.375 23.1035L41.2188 22.2061C40.6245 18.7915 37.7223 16.1705 34.1787 16.0098L33.834 16.002C32.8237 16.002 31.8616 16.2023 30.9834 16.5635L30.1641 16.9004L29.7305 16.127C28.6675 14.2276 27.005 12.7118 25 11.835V15.6475Z" fill="oklch(0.3523 0 0 / 1)" class="wd-expressive-fill"></path>
</g>
</svg>