<svg role="presentation" width="56" height="56" viewBox="0 0 56 56" xmlns="http://www.w3.org/2000/svg" class="wd-expressive wd-expressive-clipboard-x">
<g>
<path d="M34.6016 36.5723C34.2116 37.6413 34 38.796 34 40C34 45.5228 38.4772 50 44 50C47.5217 50 50.6159 48.178 52.3975 45.4268C50.9986 49.2619 47.3191 52 43 52C37.4772 52 33 47.5228 33 42C33 39.9988 33.5891 38.1356 34.6016 36.5723Z" fill="oklch(0.3057 0.079 256.22 / 0.13)" class="wd-expressive-accent"></path>
<path d="M13 44H29.1426C29.4585 46.2083 30.2899 48.2499 31.5107 50H9C9.00003 46.5858 9.70793 43.2042 11.084 40.0498C11.6253 38.809 12.2674 37.6133 13 36.4717V44Z" fill="oklch(0.3057 0.079 256.22 / 0.13)" class="wd-expressive-accent"></path>
<path d="M20 29C21.1046 29 22 29.8954 22 31C22 32.1046 21.1046 33 20 33C18.8954 33 18 32.1046 18 31C18 29.8954 18.8954 29 20 29Z" fill="oklch(0.3057 0.079 256.22 / 0.13)" class="wd-expressive-accent"></path>
<path d="M43 28C41.6099 28 40.2675 28.2038 39 28.5811V21.1406C40.031 21.0453 41.0337 21 42 21H43V28Z" fill="oklch(0.3057 0.079 256.22 / 0.13)" class="wd-expressive-accent"></path>
<path d="M26 3C27.9339 3 29.6107 4.09857 30.4424 5.70508C30.5338 5.88125 30.7116 6 30.9102 6H34.5C34.7761 6 35 6.22386 35 6.5V12.5C34.9999 12.776 34.7761 13 34.5 13H17.5C17.2239 13 17.0001 12.776 17 12.5V6.5C17 6.22386 17.2239 6 17.5 6H21.0898C21.2884 6 21.4662 5.88125 21.5576 5.70508C22.3893 4.09857 24.0661 3 26 3Z" fill="oklch(0.3057 0.079 256.22 / 0.13)" class="wd-expressive-accent"></path>
</g>
<g>
<path d="M46.4434 37.1396C46.6386 36.9444 46.9551 36.9444 47.1504 37.1396L47.8574 37.8467C48.0525 38.042 48.0526 38.3585 47.8574 38.5537L44.4209 41.9893L47.8682 45.4365C48.0633 45.6318 48.0634 45.9483 47.8682 46.1436L47.1621 46.8506C46.9669 47.0455 46.6493 47.0456 46.4541 46.8506L43.0068 43.4033L39.5605 46.8506C39.3653 47.0454 39.0487 47.0455 38.8535 46.8506L38.1465 46.1436C37.9513 45.9484 37.9516 45.6318 38.1465 45.4365L41.5928 41.9893L38.1582 38.5537C37.963 38.3586 37.9632 38.042 38.1582 37.8467L38.8643 37.1396C39.0595 36.9444 39.377 36.9444 39.5723 37.1396L43.0068 40.5752L46.4434 37.1396Z" fill="oklch(0.3523 0 0 / 1)" class="wd-expressive-fill"></path>
<path d="M43 31C49.0751 31 54 35.9249 54 42C54 48.0751 49.0751 53 43 53C36.9249 53 32 48.0751 32 42C32 35.9249 36.9249 31 43 31ZM43 33C38.0294 33 34 37.0294 34 42C34 46.9706 38.0294 51 43 51C47.9706 51 52 46.9706 52 42C52 37.0294 47.9706 33 43 33Z" fill="oklch(0.3523 0 0 / 1)" class="wd-expressive-fill"></path>
<path d="M26 2C28.2218 2 30.1561 3.20968 31.1924 5H34.5C35.1529 5 35.707 5.41766 35.9131 6H41C42.6568 6.00001 44 7.34315 44 9V28.5C44 28.7761 43.7761 29 43.5 29H42.5C42.2239 29 42 28.7761 42 28.5V9C42 8.44772 41.5523 8.00001 41 8H36V10H39C39.2652 10 39.5195 10.1054 39.707 10.293C39.8946 10.4805 40 10.7348 40 11V29.5C40 29.7761 39.7761 30 39.5 30H38.5C38.2239 30 38 29.7761 38 29.5V12H36V12.5C36 13.3284 35.3284 14 34.5 14H17.5C16.6716 14 16 13.3284 16 12.5V12H14V43H29.5C29.7761 43 30 43.2239 30 43.5V44.5C30 44.7761 29.7761 45 29.5 45H13C12.7348 45 12.4805 44.8946 12.293 44.707C12.1054 44.5195 12 44.2652 12 44V11C12 10.4478 12.4478 10.0001 13 10H16V8H11C10.4478 8.00011 10 8.44778 10 9V48C10 48.5523 10.4477 49 11 49H31.5C31.7761 49 32 49.2239 32 49.5V50.5C32 50.7761 31.7761 51 31.5 51H11C9.34315 51 8 49.6568 8 48V9C8.00001 7.34322 9.34324 6.00011 11 6H16.0869C16.293 5.41766 16.8471 5 17.5 5H20.8076C21.8439 3.20968 23.7782 2 26 2ZM26 4C24.4548 4 23.1131 4.8764 22.4463 6.16406C22.2004 6.63899 21.6985 7 21.0898 7H18V12H34V7H30.9102C30.3015 7 29.7996 6.63899 29.5537 6.16406C28.8869 4.8764 27.5452 4 26 4Z" fill="oklch(0.3523 0 0 / 1)" class="wd-expressive-fill"></path>
<path d="M20 28C21.6569 28 23 29.3431 23 31C23 32.6569 21.6569 34 20 34C18.3431 34 17 32.6569 17 31C17 29.3431 18.3431 28 20 28ZM20 30C19.4477 30 19 30.4477 19 31C19 31.5523 19.4477 32 20 32C20.5523 32 21 31.5523 21 31C21 30.4477 20.5523 30 20 30Z" fill="oklch(0.3523 0 0 / 1)" class="wd-expressive-fill"></path>
<path d="M28.5 31C28.7761 31 29 31.2239 29 31.5V32.5C29 32.7761 28.7761 33 28.5 33H25.5C25.2239 33 25 32.7761 25 32.5V31.5C25 31.2239 25.2239 31 25.5 31H28.5Z" fill="oklch(0.3523 0 0 / 1)" class="wd-expressive-fill"></path>
<path d="M32.5 28C32.7761 28 33 28.2239 33 28.5V29.5C33 29.7761 32.7761 30 32.5 30H25.5C25.2239 30 25 29.7761 25 29.5V28.5C25 28.2239 25.2239 28 25.5 28H32.5Z" fill="oklch(0.3523 0 0 / 1)" class="wd-expressive-fill"></path>
<path d="M21.9395 19.1465C22.1347 18.9513 22.4512 18.9513 22.6465 19.1465L23.3535 19.8535C23.5487 20.0488 23.5487 20.3653 23.3535 20.5605L20.207 23.707C20.0195 23.8945 19.7652 24 19.5 24C19.2349 24 18.9805 23.8945 18.793 23.707L17.1465 22.0605C16.9513 21.8653 16.9513 21.5488 17.1465 21.3535L17.8535 20.6465C18.0488 20.4513 18.3653 20.4513 18.5605 20.6465L19.5 21.5859L21.9395 19.1465Z" fill="oklch(0.3523 0 0 / 1)" class="wd-expressive-fill"></path>
<path d="M29.5 22C29.7761 22 30 22.2239 30 22.5V23.5C30 23.7761 29.7761 24 29.5 24H25.5C25.2239 24 25 23.7761 25 23.5V22.5C25 22.2239 25.2239 22 25.5 22H29.5Z" fill="oklch(0.3523 0 0 / 1)" class="wd-expressive-fill"></path>
<path d="M34.5 19C34.7761 19 35 19.2239 35 19.5V20.5C35 20.7761 34.7761 21 34.5 21H25.5C25.2239 21 25 20.7761 25 20.5V19.5C25 19.2239 25.2239 19 25.5 19H34.5Z" fill="oklch(0.3523 0 0 / 1)" class="wd-expressive-fill"></path>
</g>
</svg>