<svg role="presentation" width="56" height="56" viewBox="0 0 56 56" xmlns="http://www.w3.org/2000/svg" class="wd-expressive wd-expressive-arrow-up-circle">
<path d="M28 4C41.2548 4 52 14.7452 52 28C52 41.2548 41.2548 52 28 52C14.7452 52 4 41.2548 4 28C4 14.7452 14.7452 4 28 4ZM28 9C17.5066 9 9 17.5066 9 28C9 38.4934 17.5066 47 28 47C38.4934 47 47 38.4934 47 28C47 17.5066 38.4934 9 28 9Z" fill="oklch(0.3057 0.079 256.22 / 0.13)" class="wd-expressive-accent"></path>
<g>
<path d="M28.043 16.0029C28.1019 16.0055 28.1609 16.0118 28.2178 16.0244C28.2337 16.028 28.2499 16.0337 28.2656 16.0381C28.3203 16.0532 28.3746 16.0717 28.4258 16.0957C28.4389 16.1019 28.452 16.1095 28.4648 16.1162C28.4857 16.1271 28.5073 16.138 28.5273 16.1504C28.5733 16.1789 28.6162 16.2132 28.6572 16.249C28.6704 16.2606 28.6846 16.2719 28.6973 16.2842C28.7252 16.3113 28.7525 16.3405 28.7773 16.3711C31.3023 19.4865 34.441 22.0602 38.0039 23.9268C38.2483 24.055 38.3486 24.3549 38.2246 24.6016L37.7754 25.4951C37.6513 25.7413 37.35 25.8414 37.1055 25.7139C34.0836 24.1349 31.3488 22.0778 28.999 19.6348V39.5C28.9989 39.776 28.7751 40 28.499 40H27.499C27.2234 39.9995 26.9992 39.7757 26.999 39.5V19.6357C24.6493 22.0783 21.9151 24.1351 18.8936 25.7139C18.649 25.8413 18.3486 25.7414 18.2246 25.4951L17.7754 24.6016C17.6515 24.355 17.751 24.0551 17.9951 23.9268C21.558 22.0603 24.6967 19.4863 27.2217 16.3711C27.2687 16.3131 27.3223 16.2602 27.3799 16.2148L27.3916 16.2061C27.4301 16.1766 27.4715 16.1504 27.5137 16.127C27.5644 16.0988 27.618 16.0746 27.6729 16.0557C27.6899 16.0498 27.7082 16.045 27.7256 16.04C27.7435 16.0349 27.762 16.0286 27.7803 16.0244C27.8374 16.0116 27.8968 16.0056 27.9561 16.0029C27.9678 16.0024 27.9804 16.0011 27.9922 16.001H28.0068C28.0186 16.0011 28.0312 16.0024 28.043 16.0029Z" fill="oklch(0.3523 0 0 / 1)" class="wd-expressive-fill"></path>
<path d="M28 3C41.8068 3.00018 52.9998 14.1932 53 28C52.9998 41.8068 41.8068 52.9998 28 53C14.1932 52.9998 3.0002 41.8068 3 28C3.0002 14.1932 14.1932 3.00018 28 3ZM28 5C15.2977 5.00018 5.0002 15.2977 5 28C5.0002 40.7023 15.2977 50.9998 28 51C40.7023 50.9998 50.9998 40.7023 51 28C50.9998 15.2977 40.7023 5.00018 28 5Z" fill="oklch(0.3523 0 0 / 1)" class="wd-expressive-fill"></path>
</g>
</svg>