<svg role="presentation" width="56" height="56" viewBox="0 0 56 56" xmlns="http://www.w3.org/2000/svg" class="wd-expressive wd-expressive-workday-assistant">
<path d="M10.9131 9.11914C10.338 9.9335 10 10.9272 10 12V34C10 36.4189 11.7178 38.4361 14 38.8994V44C15.7601 43.9025 17.4923 43.1816 18.8369 41.8369C19.6637 41.0101 20.2531 40.0363 20.6084 39H47C47.3731 39 47.7362 38.9574 48.0859 38.8799C47.1807 40.1619 45.6887 41 44 41H20.3906C19.8785 42.4269 19.0532 43.767 17.9102 44.9102C15.9893 46.8311 13.5145 47.8607 11 48V40.8994C8.71782 40.4361 7 38.4189 7 36V14C7 11.6119 8.67436 9.61547 10.9131 9.11914Z" fill="oklch(0.3057 0.079 256.22 / 0.13)" class="wd-expressive-accent"></path>
<g>
<path d="M22.3779 24.4658C22.6726 24.4658 22.8691 24.619 22.9238 24.8809C23.3387 27.1628 23.8301 29.5107 24.4961 31.8145L26.418 24.8809C26.4944 24.6082 26.6908 24.4659 26.9854 24.4658H29.1475C29.4421 24.4658 29.6383 24.6191 29.7148 24.8809L31.6367 31.8145C32.3027 29.5107 32.7941 27.1628 33.209 24.8809C33.2527 24.6081 33.4603 24.4659 33.7549 24.4658H35.3604C35.6985 24.4659 35.8515 24.6845 35.7754 25.0117C35.1094 28.2327 34.3224 31.4326 33.165 34.6426C33.0667 34.937 32.8923 35.0576 32.5977 35.0576H30.7959C30.5232 35.0575 30.305 34.937 30.2285 34.6426L28.0664 27.0107L25.9043 34.6426C25.8278 34.9371 25.6097 35.0576 25.3369 35.0576H23.5352C23.2406 35.0575 23.066 34.937 22.9678 34.6426C21.8104 31.4216 21.0244 28.2217 20.3584 25.0117C20.2822 24.6844 20.4351 24.4658 20.7734 24.4658H22.3779Z" fill="oklch(0.3523 0 0 / 1)" class="wd-expressive-fill"></path>
<path d="M28.0664 15C30.2173 15 32.2372 15.8408 33.7549 17.3584C34.7047 18.3082 35.3815 19.4545 35.7637 20.71C35.8401 20.9828 35.6333 21.2556 35.3496 21.2559H33.6572C33.4826 21.2559 33.3292 21.1471 33.2637 20.9834C32.9908 20.2848 32.5653 19.6406 32.0195 19.0947C30.9714 18.0356 29.5622 17.457 28.0664 17.457C26.5707 17.468 25.1625 18.0465 24.1035 19.1055C23.5576 19.6514 23.1314 20.2954 22.8584 20.9941C22.7929 21.1578 22.6404 21.2674 22.4658 21.2676H20.7734V21.2559C20.4896 21.2559 20.282 20.9829 20.3584 20.71C20.7297 19.4545 21.4174 18.3082 22.3672 17.3584C23.8957 15.8408 25.9155 15 28.0664 15Z" fill="oklch(0.3523 0 0 / 1)" class="wd-expressive-fill"></path>
<path d="M44.3086 8.00781C47.4789 8.16843 50 10.7898 50 14V37C50 40.3137 47.3137 43 44 43H21.0703C20.5057 44.3137 19.6891 45.5452 18.6172 46.6172C16.5156 48.7188 13.806 49.8456 11.0557 49.998C10.7813 50.0132 10.5121 49.9154 10.3125 49.7266C10.1129 49.5377 10 49.2748 10 49V42.6562C7.75092 41.861 6.11651 39.7655 6.00586 37.2705L6 37V14C6 10.6863 8.68629 8 12 8H44L44.3086 8.00781ZM12 10C9.79086 10 8 11.7909 8 14V37L8.00391 37.1807C8.08634 39.0337 9.43088 40.5599 11.1992 40.9189C11.6652 41.0136 12 41.4239 12 41.8994V47.8818C13.9055 47.5639 15.7329 46.6734 17.2031 45.2031C18.2389 44.1673 18.9855 42.9541 19.4492 41.6621C19.5918 41.2649 19.9686 41 20.3906 41H44L44.2061 40.9951C46.3194 40.8879 48 39.14 48 37V14C48 11.86 46.3194 10.1121 44.2061 10.0049L44 10H12Z" fill="oklch(0.3523 0 0 / 1)" class="wd-expressive-fill"></path>
</g>
</svg>