<svg role="presentation" width="56" height="56" viewBox="0 0 56 56" xmlns="http://www.w3.org/2000/svg" class="wd-expressive wd-expressive-calculator">
<path d="M39.9995 8.99951C41.104 8.99951 41.9993 9.89508 41.9995 10.9995V49.9995H12.9995C11.8951 49.9993 10.9995 49.104 10.9995 47.9995V8.99951H39.9995ZM16.9995 25.9995V43.9995H38.9995V25.9995H16.9995ZM16.9995 19.9995H38.9995V11.9995H16.9995V19.9995Z" fill="oklch(0.3057 0.079 256.22 / 0.13)" class="wd-expressive-accent"></path>
<g>
<path d="M39 25C39.5523 25 40 25.4477 40 26V44C40 44.5523 39.5523 45 39 45H17C16.4477 45 16 44.5523 16 44V26C16 25.4477 16.4477 25 17 25H39ZM18 43H24V39H18V43ZM26 43H32V39H26V43ZM34 43H38V27H34V43ZM18 37H24V33H18V37ZM26 37H32V33H26V37ZM18 31H24V27H18V31ZM26 31H32V27H26V31Z" fill="oklch(0.3523 0 0 / 1)" class="wd-expressive-fill"></path>
<path d="M39 11C39.552 11.0002 39.9998 11.448 40 12V20C39.9998 20.552 39.552 20.9998 39 21H17C16.448 20.9998 16.0002 20.552 16 20V12C16.0002 11.448 16.448 11.0002 17 11H39ZM18 19H38V13H18V19Z" fill="oklch(0.3523 0 0 / 1)" class="wd-expressive-fill"></path>
<path d="M43 5C44.6566 5.00016 45.9998 6.34339 46 8V48C45.9998 49.6566 44.6566 50.9998 43 51H13C11.3434 50.9998 10.0002 49.6566 10 48V8C10.0002 6.34339 11.3434 5.00016 13 5H43ZM13 7C12.448 7.00016 12.0002 7.44796 12 8V48C12.0002 48.552 12.448 48.9998 13 49H43C43.552 48.9998 43.9998 48.552 44 48V8C43.9998 7.44796 43.552 7.00016 43 7H13Z" fill="oklch(0.3523 0 0 / 1)" class="wd-expressive-fill"></path>
</g>
</svg>