<svg role="presentation" width="56" height="56" viewBox="0 0 56 56" xmlns="http://www.w3.org/2000/svg" class="wd-expressive wd-expressive-cocktail">
<g>
<path d="M27 46.0005C27.0001 46.071 27.0359 53.0003 34 53.0005H19.1191C18.5918 53.0003 18.424 52.2893 18.8955 52.0532L25 49.0005L27 46.0005Z" fill="oklch(0.3057 0.079 256.22 / 0.13)" class="wd-expressive-accent"></path>
<path d="M38.0136 19.0005C38.4229 19.0007 38.6587 19.4652 38.417 19.7954L32.0322 28.5015C30.0344 31.2254 25.9655 31.2256 23.9677 28.5015L17.5839 19.7954C17.3418 19.4652 17.5779 19.0007 17.9873 19.0005H38.0136Z" fill="oklch(0.3057 0.079 256.22 / 0.13)" class="wd-expressive-accent"></path>
<path d="M43.1181 2.22512C44.8656 1.80221 46.705 1.97973 48.3388 2.73C49.9725 3.48023 51.3059 4.75906 52.124 6.35988C52.942 7.96092 53.197 9.79155 52.8476 11.5552C52.4982 13.3187 51.5648 14.9134 50.1982 16.0816C48.8316 17.2497 47.1108 17.923 45.3144 17.9937C43.518 18.0643 41.75 17.5283 40.2959 16.4712L45 10.0005L37 10.021C36.9954 8.2231 37.597 6.47542 38.707 5.06105C39.8169 3.64687 41.3709 2.64809 43.1181 2.22512Z" fill="oklch(0.3057 0.079 256.22 / 0.13)" class="wd-expressive-accent"></path>
</g>
<path d="M45 2C49.4183 2 53 5.58172 53 10C53 14.2503 49.6853 17.7262 45.5 17.9844C45.2244 18.0013 45 17.7761 45 17.5V16.5C45 16.2239 45.2248 16.0022 45.5 15.9795C48.5798 15.7254 51 13.1453 51 10C51 6.68629 48.3137 4 45 4C42.0271 4.00002 39.5612 6.16246 39.085 9H44.0332L44.1455 9.00391C45.2928 9.08532 45.9394 10.4044 45.2578 11.3672L31.7363 30.4551C31.2575 31.131 31 31.9393 31 32.7676V45.6895C31.0001 47.2577 31.9172 48.6809 33.3447 49.3301L37.3125 51.1348C38.7817 51.8029 38.3034 54 36.6914 54H19.3086C17.6967 53.9999 17.2184 51.8029 18.6875 51.1348L22.6553 49.3301C24.0829 48.6809 24.9999 47.2577 25 45.6895V32.7676C25 31.9392 24.7425 31.131 24.2637 30.4551L10.7422 11.3672C10.0387 10.3735 10.7501 9.0002 11.9668 9H37.0645C37.5567 5.05385 40.9205 2.00002 45 2ZM19.3096 20L25.8965 29.2988C26.6147 30.3127 27 31.5251 27 32.7676V45.6895C26.9999 48.0419 25.6249 50.1776 23.4834 51.1514L21.6162 52H34.3838L32.5166 51.1514C30.3752 50.1776 29.0001 48.0419 29 45.6895V32.7676C29 31.5251 29.3853 30.3127 30.1035 29.2988L36.6904 20H19.3096ZM17.8926 18H38.1074L39.5967 15.8965C38.234 14.647 37.3045 12.9312 37.0635 11H12.9336L17.8926 18ZM39.084 11C39.2951 12.2588 39.898 13.3842 40.7646 14.248L43.0664 11H39.084Z" fill="oklch(0.3523 0 0 / 1)" class="wd-expressive-fill"></path>
</svg>