<svg role="presentation" width="56" height="56" viewBox="0 0 56 56" xmlns="http://www.w3.org/2000/svg" class="wd-expressive wd-expressive-building-medium">
<g>
<path d="M33.5 39C35.2135 39 36.7832 39.6155 38 40.6377V47H31V39.46C31.7764 39.163 32.6192 39 33.5 39Z" fill="oklch(0.3057 0.079 256.22 / 0.13)" class="wd-expressive-accent"></path>
<path d="M25 36C25.5523 36 26 36.4477 26 37V41C26 41.5523 25.5523 42 25 42H16C15.4477 42 15 41.5523 15 41V37C15 36.4477 15.4477 36 16 36H25Z" fill="oklch(0.3057 0.079 256.22 / 0.13)" class="wd-expressive-accent"></path>
<path d="M25 26C25.5523 26 26 26.4477 26 27V31C26 31.5523 25.5523 32 25 32H16C15.4477 32 15 31.5523 15 31V27C15 26.4477 15.4477 26 16 26H25Z" fill="oklch(0.3057 0.079 256.22 / 0.13)" class="wd-expressive-accent"></path>
<path d="M40 26C40.5523 26 41 26.4477 41 27V31C41 31.5523 40.5523 32 40 32H31C30.4477 32 30 31.5523 30 31V27C30 26.4477 30.4477 26 31 26H40Z" fill="oklch(0.3057 0.079 256.22 / 0.13)" class="wd-expressive-accent"></path>
<path d="M25 16C25.5523 16 26 16.4477 26 17V21C26 21.5523 25.5523 22 25 22H16C15.4477 22 15 21.5523 15 21V17C15 16.4477 15.4477 16 16 16H25Z" fill="oklch(0.3057 0.079 256.22 / 0.13)" class="wd-expressive-accent"></path>
<path d="M40 16C40.5523 16 41 16.4477 41 17V21C41 21.5523 40.5523 22 40 22H31C30.4477 22 30 21.5523 30 21V17C30 16.4477 30.4477 16 31 16H40Z" fill="oklch(0.3057 0.079 256.22 / 0.13)" class="wd-expressive-accent"></path>
<path d="M46.5 7C46.7761 7 47 7.22386 47 7.5V11H9V7.5C9 7.22386 9.22386 7 9.5 7H46.5Z" fill="oklch(0.3057 0.079 256.22 / 0.13)" class="wd-expressive-accent"></path>
</g>
<g>
<path d="M25.5 36C25.7761 36 26 36.2239 26 36.5V37.5C26 37.7761 25.7761 38 25.5 38H17V41.5C17 41.7761 16.7761 42 16.5 42H15.5C15.2239 42 15 41.7761 15 41.5V37C15 36.4477 15.4477 36 16 36H25.5Z" fill="oklch(0.3523 0 0 / 1)" class="wd-expressive-fill"></path>
<path d="M25.5 26C25.7761 26 26 26.2239 26 26.5V27.5C26 27.7761 25.7761 28 25.5 28H17V31.5C17 31.7761 16.7761 32 16.5 32H15.5C15.2239 32 15 31.7761 15 31.5V27C15 26.4477 15.4477 26 16 26H25.5Z" fill="oklch(0.3523 0 0 / 1)" class="wd-expressive-fill"></path>
<path d="M40.5 26C40.7761 26 41 26.2239 41 26.5V27.5C41 27.7761 40.7761 28 40.5 28H32V31.5C32 31.7761 31.7761 32 31.5 32H30.5C30.2239 32 30 31.7761 30 31.5V27C30 26.4477 30.4477 26 31 26H40.5Z" fill="oklch(0.3523 0 0 / 1)" class="wd-expressive-fill"></path>
<path d="M25.5 16C25.7761 16 26 16.2239 26 16.5V17.5C26 17.7761 25.7761 18 25.5 18H17V21.5C17 21.7761 16.7761 22 16.5 22H15.5C15.2239 22 15 21.7761 15 21.5V17C15 16.4477 15.4477 16 16 16H25.5Z" fill="oklch(0.3523 0 0 / 1)" class="wd-expressive-fill"></path>
<path d="M40.5 16C40.7761 16 41 16.2239 41 16.5V17.5C41 17.7761 40.7761 18 40.5 18H32V21.5C32 21.7761 31.7761 22 31.5 22H30.5C30.2239 22 30 21.7761 30 21.5V17C30 16.4477 30.4477 16 31 16H40.5Z" fill="oklch(0.3523 0 0 / 1)" class="wd-expressive-fill"></path>
<path d="M46.5 6C47.3284 6 48 6.67157 48 7.5V11C48 11.5523 47.5523 12 47 12H46V46H51.5C51.7761 46 52 46.2239 52 46.5V47.5C52 47.7761 51.7761 48 51.5 48H4.5C4.22386 48 4 47.7761 4 47.5V46.5C4 46.2239 4.22386 46 4.5 46H10V12H9C8.44772 12 8 11.5523 8 11V7.5C8 6.67157 8.67157 6 9.5 6H46.5ZM12 46H30V38.6377C30.0001 38.3424 30.1304 38.062 30.3564 37.8721C31.7466 36.7042 33.5425 36 35.5 36C37.4575 36 39.2534 36.7042 40.6436 37.8721C40.8696 38.062 40.9999 38.3424 41 38.6377V46H44V12H12V46ZM35.5 38C34.1927 38 32.9853 38.4178 32 39.127V46H39V39.127C38.0147 38.4178 36.8073 38 35.5 38ZM10 10H46V8H10V10Z" fill="oklch(0.3523 0 0 / 1)" class="wd-expressive-fill"></path>
</g>
</svg>