<svg role="presentation" width="56" height="56" viewBox="0 0 56 56" xmlns="http://www.w3.org/2000/svg" class="wd-expressive wd-expressive-bar-chart-arrow">
<g>
<path d="M14 47H8V39H14V47Z" fill="oklch(0.3057 0.079 256.22 / 0.13)" class="wd-expressive-accent"></path>
<path d="M30 47H25V36H30V47Z" fill="oklch(0.3057 0.079 256.22 / 0.13)" class="wd-expressive-accent"></path>
<path d="M46 47H40V23H46V47Z" fill="oklch(0.3057 0.079 256.22 / 0.13)" class="wd-expressive-accent"></path>
</g>
<g>
<path d="M48 20.0006C48.5523 20.0006 49 20.4483 49 21.0006V47.0006C48.9998 47.5527 48.5522 48.0006 48 48.0006H8C7.44786 48.0006 7.00022 47.5527 7 47.0006V37.0006C7 36.4483 7.44772 36.0006 8 36.0006H15V31.0006C15 30.4483 15.4477 30.0006 16 30.0006H24C24.5523 30.0006 25 30.4483 25 31.0006V33.0006H31V29.0006C31.0001 28.4484 31.4478 28.0006 32 28.0006H39V21.0006C39 20.4483 39.4478 20.0006 40 20.0006H48ZM9 46.0006H15V38.0006H9V46.0006ZM17 46.0006H23V32.0006H17V46.0006ZM25 46.0006H31V35.0006H25V46.0006ZM33 46.0006H39V30.0006H33V46.0006ZM41 46.0006H47V22.0006H41V46.0006Z" fill="oklch(0.3523 0 0 / 1)" class="wd-expressive-fill"></path>
<path d="M36.71 4.98397C38.2061 5.28931 39.7566 5.44975 41.3447 5.44979C42.872 5.44976 44.3649 5.30201 45.8076 5.01913C45.812 5.01827 45.8169 5.01795 45.8213 5.01718C45.8635 5.00947 45.9064 5.00575 45.9492 5.0035C45.9579 5.00306 45.9669 5.0018 45.9756 5.00155C46.0211 5.00038 46.0668 5.00331 46.1123 5.00839C46.119 5.00914 46.1262 5.00948 46.1328 5.01034C46.1761 5.01609 46.2192 5.02519 46.2617 5.03671C46.2709 5.03921 46.2809 5.04082 46.29 5.04354C46.3264 5.05456 46.3621 5.0692 46.3975 5.08456C46.412 5.09087 46.4272 5.09711 46.4414 5.10409C46.4505 5.10857 46.4607 5.11206 46.4697 5.11679C46.491 5.12812 46.5111 5.14216 46.5312 5.15487C46.5468 5.16465 46.5631 5.17451 46.5781 5.18514C46.6094 5.20736 46.6389 5.23208 46.667 5.25741C46.677 5.26635 46.6876 5.27541 46.6973 5.28475C46.7223 5.30928 46.7454 5.33604 46.7676 5.36288C46.7807 5.37868 46.7954 5.39405 46.8076 5.41073C46.8243 5.43373 46.8389 5.45871 46.8535 5.483C46.8629 5.49852 46.8741 5.51374 46.8828 5.52987C46.8867 5.53726 46.8899 5.54583 46.8936 5.55331C46.9033 5.57288 46.9115 5.59368 46.9199 5.61386C46.9324 5.64347 46.9447 5.67341 46.9541 5.7037C46.9608 5.72533 46.9655 5.74801 46.9707 5.77011C46.9769 5.79629 46.9833 5.82278 46.9873 5.84921C46.9918 5.87905 46.9933 5.90968 46.9951 5.94003C46.9964 5.96208 46.9982 5.9844 46.998 6.00643C46.9979 6.03329 46.9956 6.06047 46.9932 6.08749C46.9907 6.11551 46.9882 6.14377 46.9834 6.17147C46.9823 6.17798 46.9817 6.18546 46.9805 6.19198C46.6976 7.63441 46.5499 9.12787 46.5498 10.6549C46.5499 12.2427 46.7104 13.7937 47.0156 15.2896C47.0706 15.56 46.9028 15.8281 46.6338 15.8892L45.6572 16.1109C45.3884 16.1714 45.1203 16.0029 45.0645 15.733C44.7269 14.0929 44.5499 12.393 44.5498 10.6549C44.5498 10.0283 44.5753 9.407 44.6211 8.79159L28.707 24.7066C28.3349 25.0788 27.738 25.0989 27.3418 24.7525L20.0449 18.3678L15.2324 23.1793C15.2303 23.1814 15.2297 23.185 15.2275 23.1871L9.06055 29.3541C8.86531 29.5493 8.54877 29.5492 8.35352 29.3541L7.64648 28.6471C7.45124 28.4518 7.45127 28.1353 7.64648 27.94L19.293 16.2926L19.3652 16.2271C19.739 15.9195 20.2868 15.9227 20.6582 16.2476L27.9541 22.6305L43.2051 7.3785C42.5908 7.42409 41.9703 7.44978 41.3447 7.44979C39.6063 7.44975 37.9069 7.27373 36.2666 6.93612C35.9964 6.88021 35.8275 6.61152 35.8887 6.34237L36.1104 5.36679C36.1716 5.09791 36.4397 4.92909 36.71 4.98397Z" fill="oklch(0.3523 0 0 / 1)" class="wd-expressive-fill"></path>
</g>
</svg>