<svg role="presentation" width="56" height="56" viewBox="0 0 56 56" xmlns="http://www.w3.org/2000/svg" class="wd-expressive wd-expressive-clipboard-refresh">
<g>
<path d="M28.5215 35.7871C28.4994 36.1556 28.4937 36.5268 28.5059 36.8984C28.5968 39.6728 29.6465 42.3309 31.4766 44.418C33.3069 46.5049 35.8052 47.8934 38.5439 48.3457C39.8467 48.5607 41.1655 48.5549 42.4492 48.3428L44.25 51.4619C41.9461 52.792 39.2517 53.2829 36.627 52.8496C34.0021 52.4162 31.6077 51.0851 29.8535 49.085C28.0997 47.0848 27.093 44.5376 27.0059 41.8789C26.9358 39.7373 27.4664 37.6292 28.5215 35.7871Z" fill="oklch(0.3057 0.079 256.22 / 0.13)" class="wd-expressive-accent"></path>
<path d="M13 44H22.6953C23.0369 46.1769 23.8173 48.2078 24.9434 50H9C9.00003 46.5858 9.70793 43.2042 11.084 40.0498C11.6253 38.809 12.2674 37.6133 13 36.4717V44Z" fill="oklch(0.3057 0.079 256.22 / 0.13)" class="wd-expressive-accent"></path>
<path d="M49.4443 46.082L47.915 48.377C47.7171 48.6735 47.2809 48.6735 47.083 48.377L42.0176 40.7783C41.7967 40.4461 42.0346 40.0011 42.4336 40.001H44.8232C44.7276 39.598 44.5938 39.2021 44.4209 38.8203C44.3452 38.6532 44.2618 38.4901 44.1729 38.3311L49.4443 46.082Z" fill="oklch(0.3057 0.079 256.22 / 0.13)" class="wd-expressive-accent"></path>
<path d="M43.5342 37.3916C43.5138 37.3666 43.4925 37.3421 43.4717 37.3174L43.4805 37.3125L43.5342 37.3916Z" fill="oklch(0.3057 0.079 256.22 / 0.13)" class="wd-expressive-accent"></path>
<path d="M20 29C21.1046 29 22 29.8954 22 31C22 32.1046 21.1046 33 20 33C18.8954 33 18 32.1046 18 31C18 29.8954 18.8954 29 20 29Z" fill="oklch(0.3057 0.079 256.22 / 0.13)" class="wd-expressive-accent"></path>
<path d="M43 26.1426C41.7253 25.7697 40.3849 25.5503 39 25.5078V21.1406C40.031 21.0453 41.0337 21 42 21H43V26.1426Z" fill="oklch(0.3057 0.079 256.22 / 0.13)" class="wd-expressive-accent"></path>
<path d="M26 3C27.9339 3 29.6107 4.09857 30.4424 5.70508C30.5338 5.88125 30.7116 6 30.9102 6H34.5C34.7761 6 35 6.22386 35 6.5V12.5C34.9999 12.776 34.7761 13 34.5 13H17.5C17.2239 13 17.0001 12.776 17 12.5V6.5C17 6.22386 17.2239 6 17.5 6H21.0898C21.2884 6 21.4662 5.88125 21.5576 5.70508C22.3893 4.09857 24.0661 3 26 3Z" fill="oklch(0.3057 0.079 256.22 / 0.13)" class="wd-expressive-accent"></path>
</g>
<g>
<path d="M35.6611 29.3271C38.4769 28.6707 41.4348 29.0104 44.0283 30.2891C46.6216 31.5681 48.6923 33.7073 49.8857 36.3408C50.2742 37.1983 50.5608 38.0912 50.7461 39.001H52.5664C53.7249 39.002 54.4332 40.2532 53.8721 41.2383L53.8135 41.333L48.7471 48.9316C48.1535 49.8196 46.8451 49.8221 46.251 48.9316L41.1855 41.333L41.127 41.2383C40.5844 40.2857 41.2288 39.082 42.3223 39.0049L42.4336 39.001H43.3994C42.8618 37.9473 41.9973 37.0915 40.9326 36.5664C39.7921 36.0042 38.4908 35.855 37.252 36.1436C36.0127 36.4326 34.9101 37.1423 34.1357 38.1514C33.3617 39.1603 32.9614 40.4087 33.0029 41.6807C33.0447 42.9522 33.5266 44.1706 34.3652 45.127C35.204 46.083 36.3495 46.7194 37.6045 46.9268C38.7196 47.1107 39.8621 46.9446 40.876 46.459L41.0049 46.4043C41.6614 46.1617 42.4697 46.3747 42.8662 47.0615L44.8662 50.5254C45.2491 51.1887 45.0736 52.0645 44.4121 52.5039L44.2734 52.5859C41.8785 53.8332 39.138 54.2743 36.4639 53.833C33.6109 53.3618 31.0081 51.915 29.1016 49.7412C27.1956 47.5674 26.1017 44.7989 26.0068 41.9092C25.9125 39.0195 26.8229 36.1846 28.583 33.8906C30.3434 31.5965 32.8454 29.9839 35.6611 29.3271ZM43.1436 32.082C40.9655 31.0083 38.4815 30.7231 36.1162 31.2744C33.7505 31.8261 31.6475 33.1806 30.1689 35.1074C28.6906 37.0342 27.9257 39.4153 28.0049 41.8428C28.0844 44.2701 29.0042 46.5966 30.6055 48.4229C32.2071 50.2489 34.3938 51.4646 36.79 51.8604C38.8556 52.2012 40.9682 51.9141 42.8594 51.0508L41.3496 48.4355C40.0682 48.9621 38.6586 49.1272 37.2783 48.8994C35.5671 48.6167 34.0052 47.7493 32.8613 46.4453C31.7177 45.141 31.0619 43.4795 31.0049 41.7461C30.9484 40.0128 31.4936 38.3112 32.5498 36.9346C33.6061 35.5581 35.1078 34.5904 36.7969 34.1963C38.4859 33.8027 40.2614 34.0063 41.8174 34.7734C43.3732 35.5408 44.616 36.8244 45.332 38.4043C45.5325 38.8469 45.6867 39.3051 45.7969 39.7705C45.8673 40.068 45.798 40.3813 45.6084 40.6211C45.4187 40.8608 45.1299 41.001 44.8242 41.001H43.3682L47.5 47.1992L51.6318 41.001H49.9004C49.3988 41.0009 48.9749 40.6291 48.9092 40.1318C48.7753 39.114 48.4926 38.1143 48.0635 37.167C47.0609 34.9546 45.3219 33.1563 43.1436 32.082Z" fill="oklch(0.3523 0 0 / 1)" class="wd-expressive-fill"></path>
<path d="M26 2C28.2218 2 30.1561 3.20968 31.1924 5H34.5C35.1529 5 35.707 5.41766 35.9131 6H41C42.6568 6.00001 44 7.34315 44 9V26.5C44 26.7761 43.7761 27 43.5 27H42.5C42.2239 27 42 26.7761 42 26.5V9C42 8.44772 41.5523 8.00001 41 8H36V10H39C39.2652 10 39.5195 10.1054 39.707 10.293C39.8946 10.4805 40 10.7348 40 11V25.5C40 25.7761 39.7761 26 39.5 26H38.5C38.2239 26 38 25.7761 38 25.5V12H36V12.5C36 13.3284 35.3284 14 34.5 14H17.5C16.6716 14 16 13.3284 16 12.5V12H14V43H22.5C22.7761 43 23 43.2239 23 43.5V44.5C23 44.7761 22.7761 45 22.5 45H13C12.7348 45 12.4805 44.8946 12.293 44.707C12.1054 44.5195 12 44.2652 12 44V11C12 10.4478 12.4478 10.0001 13 10H16V8H11C10.4478 8.00011 10 8.44778 10 9V48C10 48.5523 10.4477 49 11 49H24.5C24.7761 49 25 49.2239 25 49.5V50.5C25 50.7761 24.7761 51 24.5 51H11C9.34315 51 8 49.6568 8 48V9C8.00001 7.34322 9.34324 6.00011 11 6H16.0869C16.293 5.41766 16.8471 5 17.5 5H20.8076C21.8439 3.20968 23.7782 2 26 2ZM26 4C24.4548 4 23.1131 4.8764 22.4463 6.16406C22.2004 6.63899 21.6985 7 21.0898 7H18V12H34V7H30.9102C30.3015 7 29.7996 6.63899 29.5537 6.16406C28.8869 4.8764 27.5452 4 26 4Z" fill="oklch(0.3523 0 0 / 1)" class="wd-expressive-fill"></path>
<path d="M20 28C21.6569 28 23 29.3431 23 31C23 32.6569 21.6569 34 20 34C18.3431 34 17 32.6569 17 31C17 29.3431 18.3431 28 20 28ZM20 30C19.4477 30 19 30.4477 19 31C19 31.5523 19.4477 32 20 32C20.5523 32 21 31.5523 21 31C21 30.4477 20.5523 30 20 30Z" fill="oklch(0.3523 0 0 / 1)" class="wd-expressive-fill"></path>
<path d="M29.5 28C29.7761 28 30 28.2239 30 28.5V29.5C30 29.7761 29.7761 30 29.5 30H25.5C25.2239 30 25 29.7761 25 29.5V28.5C25 28.2239 25.2239 28 25.5 28H29.5Z" fill="oklch(0.3523 0 0 / 1)" class="wd-expressive-fill"></path>
<path d="M21.9395 19.1465C22.1347 18.9513 22.4512 18.9513 22.6465 19.1465L23.3535 19.8535C23.5487 20.0488 23.5487 20.3653 23.3535 20.5605L20.207 23.707C20.0195 23.8945 19.7652 24 19.5 24C19.2349 24 18.9805 23.8945 18.793 23.707L17.1465 22.0605C16.9513 21.8653 16.9513 21.5488 17.1465 21.3535L17.8535 20.6465C18.0488 20.4513 18.3653 20.4513 18.5605 20.6465L19.5 21.5859L21.9395 19.1465Z" fill="oklch(0.3523 0 0 / 1)" class="wd-expressive-fill"></path>
<path d="M29.5 22C29.7761 22 30 22.2239 30 22.5V23.5C30 23.7761 29.7761 24 29.5 24H25.5C25.2239 24 25 23.7761 25 23.5V22.5C25 22.2239 25.2239 22 25.5 22H29.5Z" fill="oklch(0.3523 0 0 / 1)" class="wd-expressive-fill"></path>
<path d="M34.5 19C34.7761 19 35 19.2239 35 19.5V20.5C35 20.7761 34.7761 21 34.5 21H25.5C25.2239 21 25 20.7761 25 20.5V19.5C25 19.2239 25.2239 19 25.5 19H34.5Z" fill="oklch(0.3523 0 0 / 1)" class="wd-expressive-fill"></path>
</g>
</svg>