<svg role="presentation" width="56" height="56" viewBox="0 0 56 56" xmlns="http://www.w3.org/2000/svg" class="wd-expressive wd-expressive-shield-check">
<path d="M7.66309 11.4434C9.03248 12.8635 10.523 14.1656 12.1172 15.335C12.0411 15.5475 12.0001 15.774 12 16.0049V23C12 29.8956 14.7393 36.5088 19.6152 41.3848C21.8396 43.6091 24.426 45.3883 27.2354 46.666C27.7207 46.8867 28.2773 46.8866 28.7627 46.666C31.5726 45.3883 34.1601 43.6094 36.3848 41.3848C41.2605 36.5089 44 29.8955 44 23V20.0332C45.7343 19.4201 47.4056 18.6746 49 17.8047V23L48.999 23.001C48.9988 31.2222 45.7331 39.1066 39.9199 44.9199C36.6986 48.1412 32.8399 50.5787 28.6416 52.1133C28.2267 52.2648 27.7714 52.2649 27.3564 52.1133C23.1586 50.5787 19.3002 48.141 16.0791 44.9199C10.2657 39.1063 7 31.2215 7 23V12.915C7 12.3512 7.23596 11.8105 7.66309 11.4434Z" fill="oklch(0.3057 0.079 256.22 / 0.13)" class="wd-expressive-accent"></path>
<g>
<path d="M35.9395 20.6465C36.1347 20.4515 36.4513 20.4513 36.6465 20.6465L37.3535 21.3535C37.5484 21.5487 37.5484 21.8654 37.3535 22.0605L25.708 33.7061C25.3177 34.0964 24.6845 34.096 24.2939 33.7061L21.4492 30.8613C21.4463 30.8585 21.4424 30.8563 21.4395 30.8535L18.6465 28.0605C18.4512 27.8653 18.4513 27.5488 18.6465 27.3535L19.3535 26.6465C19.5488 26.4515 19.8654 26.4513 20.0605 26.6465L21.707 28.293L21.708 28.292L25.001 31.585L35.9395 20.6465Z" fill="oklch(0.3523 0 0 / 1)" class="wd-expressive-fill"></path>
<path d="M28.0127 7.95703L28.5869 7.96387H28.5986C34.4437 8.10114 39.7952 10.2419 43.9893 13.7246C44.6813 14.2993 45.0438 15.147 45.0439 16.0049V23C45.0439 30.1722 42.1944 37.0515 37.123 42.123C34.809 44.437 32.1176 46.2873 29.1953 47.6162C28.4354 47.9617 27.5627 47.9618 26.8027 47.6162C23.8808 46.2872 21.1906 44.4366 18.877 42.123C13.8054 37.0514 10.9561 30.1723 10.9561 23V16.0049C10.9562 15.147 11.3187 14.2993 12.0107 13.7246C16.3478 10.1231 21.9223 7.95608 28 7.95605L28.0127 7.95703ZM28 10.043C22.4271 10.043 17.3201 12.0281 13.3438 15.3301C13.1608 15.4821 13.0441 15.7254 13.0439 16.0049V23L13.0508 23.6201C13.2095 30.0142 15.8197 36.1126 20.3535 40.6465C22.4885 42.7815 24.9704 44.4903 27.667 45.7168C27.8779 45.8127 28.1201 45.8126 28.3311 45.7168C31.0284 44.4902 33.5113 42.7816 35.6465 40.6465C40.3265 35.9662 42.9561 29.6187 42.9561 23V16.0049C42.9559 15.7253 42.8393 15.4821 42.6562 15.3301C38.8108 12.1368 33.9081 10.1757 28.5498 10.0498L28 10.043Z" fill="oklch(0.3523 0 0 / 1)" class="wd-expressive-fill"></path>
<path d="M28.0117 2.95703L28.7656 2.96582H28.7783C36.477 3.1467 43.5163 6.00162 48.999 10.6367C49.6798 11.2123 50.0438 12.0543 50.0439 12.9141V23C50.0439 23.0075 50.0422 23.015 50.042 23.0225C50.036 31.5126 46.662 39.6542 40.6582 45.6582C37.3282 48.9882 33.3392 51.5067 29 53.0928C28.3536 53.329 27.6445 53.3291 26.998 53.0928C22.6593 51.5067 18.6706 48.9879 15.3408 45.6582C9.33177 39.6489 5.95606 31.4982 5.95605 23V12.915C5.95605 12.0551 6.32006 11.2124 7.00098 10.6367C12.6682 5.84572 19.9982 2.95608 28 2.95605L28.0117 2.95703ZM28 5.04297C20.5098 5.043 13.6532 7.7461 8.34863 12.2305C8.16073 12.3894 8.04395 12.6372 8.04395 12.915V23L8.05273 23.7441C8.24323 31.4192 11.3754 38.7394 16.8174 44.1816C19.9298 47.294 23.6579 49.6497 27.7148 51.1328C27.8984 51.1998 28.0997 51.1998 28.2832 51.1328C32.3405 49.6498 36.069 47.2942 39.1816 44.1816C44.7992 38.5639 47.955 30.9446 47.9551 23C47.9551 22.9938 47.9559 22.9876 47.9561 22.9814V12.9141C47.9559 12.6364 47.8392 12.3893 47.6514 12.2305C42.5193 7.89186 35.9347 5.22106 28.7295 5.05176L28 5.04297ZM48.6895 22.0029C48.6845 22.0045 48.6797 22.0062 48.6748 22.0078C48.7119 21.9955 48.7501 21.9855 48.7891 21.9775L48.6895 22.0029Z" fill="oklch(0.3523 0 0 / 1)" class="wd-expressive-fill"></path>
</g>
</svg>