<svg role="presentation" width="56" height="56" viewBox="0 0 56 56" xmlns="http://www.w3.org/2000/svg" class="wd-expressive wd-expressive-money-refresh">
<g>
<path d="M35.8887 30.3008C38.4793 29.6968 41.2 30.0092 43.5859 31.1855C45.9718 32.3622 47.8766 34.3309 48.9746 36.7539C49.445 37.7922 49.7538 38.8869 49.9004 40.001H52.5654C52.9646 40.0012 53.2029 40.4461 52.9814 40.7783L47.915 48.377C47.717 48.6731 47.2808 48.6734 47.083 48.377L42.0176 40.7783C41.7961 40.4461 42.0344 40.0011 42.4336 40.001H44.8242C44.7285 39.5968 44.5943 39.2002 44.4209 38.8174C43.8003 37.448 42.7234 36.335 41.375 35.6699C40.0266 35.0051 38.4886 34.8287 37.0244 35.1699C35.5601 35.5114 34.2581 36.3501 33.3428 37.543C32.4276 38.7358 31.9548 40.2102 32.0039 41.7129C32.0533 43.2155 32.6221 44.6557 33.6133 45.7861C34.6046 46.9163 35.9582 47.6681 37.4414 47.9131C38.7599 48.1306 40.1096 47.9351 41.3076 47.3613C41.5566 47.2422 41.862 47.3225 42 47.5615L44 51.0254C44.138 51.2645 44.0563 51.5716 43.8115 51.6992C41.6081 52.8467 39.087 53.2527 36.627 52.8467C34.0023 52.4132 31.6076 51.082 29.8535 49.082C28.0998 47.0819 27.093 44.5346 27.0059 41.876C26.919 39.2172 27.7566 36.6096 29.376 34.499C30.9955 32.3884 33.2978 30.905 35.8887 30.3008Z" fill="oklch(0.3057 0.079 256.22 / 0.13)" class="wd-expressive-accent"></path>
<path d="M5 30C8.86599 30 12 33.134 12 37V39H3V30H5Z" fill="oklch(0.3057 0.079 256.22 / 0.13)" class="wd-expressive-accent"></path>
<path d="M25.3135 18.0332C26.6135 17.9052 27.9241 18.144 29.0957 18.7217C30.2672 19.2994 31.2545 20.1936 31.9443 21.3027C32.4575 22.128 32.7914 23.0489 32.9287 24.0039C33.0073 24.5506 32.5523 25 32 25H29.957C29.571 24.9999 29.2247 24.7748 29.0283 24.4424C28.7295 23.9361 28.3668 23.4674 27.9492 23.0498C27.2994 22.4001 26.5277 21.8839 25.6787 21.5322C24.8297 21.1807 23.9189 21.0001 23 21C22.0809 21.0001 21.1694 21.1805 20.3203 21.5322C20.1506 21.6023 19.9806 21.425 20.0781 21.2695C20.5175 20.5717 21.0782 19.9528 21.7383 19.4463C22.7747 18.651 24.0134 18.1613 25.3135 18.0332Z" fill="oklch(0.3057 0.079 256.22 / 0.13)" class="wd-expressive-accent"></path>
<path d="M12 13C12 16.866 8.86599 20 5 20H3V11H12V13Z" fill="oklch(0.3057 0.079 256.22 / 0.13)" class="wd-expressive-accent"></path>
<path d="M49 20H47C43.134 20 40 16.866 40 13V11H49V20Z" fill="oklch(0.3057 0.079 256.22 / 0.13)" class="wd-expressive-accent"></path>
</g>
<g>
<path d="M35.6616 29.3271C38.4774 28.6707 41.4353 29.0104 44.0288 30.2891C46.622 31.5681 48.6928 33.7073 49.8862 36.3408C50.2747 37.1982 50.5612 38.0912 50.7466 39.001H52.5669C53.7253 39.0021 54.4335 40.2533 53.8726 41.2383L53.814 41.333L48.7476 48.9316C48.1541 49.8198 46.8457 49.8222 46.2515 48.9316L41.186 41.333L41.1274 41.2383C40.5667 40.2538 41.2736 39.001 42.4341 39.001H43.3999C42.8623 37.9473 41.9977 37.0915 40.9331 36.5664C39.7926 36.0042 38.4913 35.855 37.2524 36.1436C36.0131 36.4326 34.9106 37.1423 34.1362 38.1514C33.3621 39.1603 32.9619 40.4087 33.0034 41.6807C33.0452 42.9522 33.5271 44.1705 34.3657 45.127C35.2045 46.083 36.3499 46.7195 37.605 46.9268C38.7202 47.1107 39.8625 46.9447 40.8765 46.459L41.0054 46.4043C41.6618 46.1617 42.4702 46.3748 42.8667 47.0615L44.8667 50.5254C45.2496 51.1887 45.074 52.0645 44.4126 52.5039L44.2739 52.5859C41.879 53.8333 39.1385 54.2743 36.4644 53.833C33.6113 53.3618 31.0086 51.9151 29.1021 49.7412C27.196 47.5673 26.1021 44.7989 26.0073 41.9092C25.913 39.0194 26.8233 36.1846 28.5835 33.8906C30.344 31.5965 32.8458 29.9839 35.6616 29.3271ZM43.144 32.082C40.966 31.0082 38.4819 30.7231 36.1167 31.2744C33.7509 31.8261 31.6481 33.1806 30.1694 35.1074C28.691 37.0342 27.9262 39.4153 28.0054 41.8428C28.0849 44.2702 29.0047 46.5966 30.606 48.4229C32.2076 50.249 34.3942 51.4646 36.7905 51.8604C38.8561 52.2012 40.9687 51.9141 42.8599 51.0508L41.3501 48.4355C40.0686 48.9621 38.6592 49.1272 37.2788 48.8994C35.5675 48.6167 34.0058 47.7494 32.8618 46.4453C31.7182 45.141 31.0624 43.4796 31.0054 41.7461C30.9489 40.0128 31.494 38.3112 32.5503 36.9346C33.6066 35.5581 35.1082 34.5903 36.7974 34.1963C38.4864 33.8027 40.2619 34.0063 41.8179 34.7734C43.3736 35.5408 44.6165 36.8244 45.3325 38.4043C45.533 38.8469 45.6872 39.3052 45.7974 39.7705C45.8678 40.068 45.7984 40.3813 45.6089 40.6211C45.4193 40.8609 45.1304 41.0009 44.8247 41.001H43.3687L47.5005 47.1992L51.6323 41.001H49.9009C49.3992 41.001 48.9753 40.6292 48.9097 40.1318C48.7758 39.114 48.4931 38.1143 48.064 37.167C47.0614 34.9546 45.3223 33.1563 43.144 32.082Z" fill="oklch(0.3523 0 0 / 1)" class="wd-expressive-fill"></path>
<path d="M48.5005 10C49.3286 10.0002 50.0003 10.6719 50.0005 11.5V29.501C50.0003 29.7769 49.7764 30.0008 49.5005 30.001H48.5005C48.2244 30.001 48.0006 29.777 48.0005 29.501V21H47.0005C42.5822 21 39.0005 17.4183 39.0005 13V12H13.0005V13C13.0005 17.4182 9.41861 20.9998 5.00049 21H4.00049V29H5.00049C9.41849 29.0002 13.0003 32.582 13.0005 37V38H22.4995C22.7756 38 22.9995 38.2239 22.9995 38.5V39.5C22.9995 39.7761 22.7757 40 22.4995 40H3.50049C2.67206 40 2.00049 39.3284 2.00049 38.5V11.5C2.00069 10.6717 2.67218 10 3.50049 10H48.5005ZM4.00049 38H11.0005V37C11.0003 33.6866 8.31392 31.0002 5.00049 31H4.00049V38ZM4.00049 19H5.00049C8.31404 18.9998 11.0005 16.3136 11.0005 13V12H4.00049V19ZM41.0005 13C41.0005 16.3137 43.6868 19 47.0005 19H48.0005V12H41.0005V13Z" fill="oklch(0.3523 0 0 / 1)" class="wd-expressive-fill"></path>
<path d="M25.2163 17.0391C26.7021 16.8928 28.1995 17.1659 29.5386 17.8262C30.8776 18.4866 32.006 19.5085 32.7944 20.7764C33.4945 21.9024 33.9024 23.1828 33.9849 24.501C34.0021 24.7764 33.7764 25.0007 33.5005 25.001H32.5005C32.2243 25.001 32.002 24.7762 31.979 24.501C31.8999 23.5566 31.5981 22.6419 31.0952 21.833C30.5039 20.8822 29.658 20.1154 28.6538 19.6201C27.6496 19.125 26.5268 18.9206 25.4126 19.0303C24.2982 19.1401 23.2365 19.5596 22.3481 20.2412C21.4598 20.9229 20.7797 21.8397 20.3853 22.8877C19.9909 23.9357 19.8973 25.0737 20.1157 26.1719C20.3343 27.2699 20.8562 28.2854 21.6216 29.1025C22.2728 29.7976 23.0783 30.3267 23.9702 30.6475C24.23 30.7409 24.3892 31.0127 24.3179 31.2793L24.0591 32.2451C23.9876 32.5119 23.7124 32.672 23.4507 32.584C22.1988 32.1631 21.068 31.4373 20.1616 30.4697C19.141 29.38 18.4452 28.0258 18.1538 26.5615C17.8626 25.0972 17.9873 23.5799 18.5132 22.1826C19.0391 20.7854 19.946 19.5632 21.1304 18.6543C22.3149 17.7454 23.7304 17.1854 25.2163 17.0391Z" fill="oklch(0.3523 0 0 / 1)" class="wd-expressive-fill"></path>
</g>
</svg>