<svg role="presentation" width="56" height="56" viewBox="0 0 56 56" xmlns="http://www.w3.org/2000/svg" class="wd-expressive wd-expressive-webpage-users">
<g>
<path d="M9.87598 25.876C9.32003 26.7859 9 27.8556 9 29C9 32.3137 11.6863 35 15 35C16.1442 35 17.2132 34.6789 18.123 34.123C17.0692 35.8481 15.1695 37 13 37C9.68629 37 7 34.3137 7 31C7 28.8307 8.15107 26.9299 9.87598 25.876Z" fill="oklch(0.3057 0.079 256.22 / 0.13)" class="wd-expressive-accent"></path>
<path d="M24.876 25.876C24.32 26.7859 24 27.8556 24 29C24 32.3137 26.6863 35 30 35C31.1442 35 32.2132 34.6789 33.123 34.123C32.0692 35.8481 30.1695 37 28 37C24.6863 37 22 34.3137 22 31C22 28.8307 23.1511 26.9299 24.876 25.876Z" fill="oklch(0.3057 0.079 256.22 / 0.13)" class="wd-expressive-accent"></path>
<path d="M39.876 25.876C39.32 26.7859 39 27.8556 39 29C39 32.3137 41.6863 35 45 35C46.1442 35 47.2132 34.6789 48.123 34.123C47.0692 35.8481 45.1695 37 43 37C39.6863 37 37 34.3137 37 31C37 28.8307 38.1511 26.9299 39.876 25.876Z" fill="oklch(0.3057 0.079 256.22 / 0.13)" class="wd-expressive-accent"></path>
<path d="M51 11C52.1046 11 53 11.8954 53 13V18H3V13C3 11.8954 3.89543 11 5 11H51Z" fill="oklch(0.3057 0.079 256.22 / 0.13)" class="wd-expressive-accent"></path>
</g>
<g>
<path d="M13.001 28C14.1053 28.0003 15.001 28.8956 15.001 30C15.001 31.1044 14.1053 31.9997 13.001 32C11.8964 32 11.001 31.1046 11.001 30C11.001 28.8954 11.8964 28 13.001 28Z" fill="oklch(0.3523 0 0 / 1)" class="wd-expressive-fill"></path>
<path d="M13.001 24C16.8667 24.0003 20.001 27.1342 20.001 31C20.001 34.8658 16.8667 37.9997 13.001 38C9.13498 38 6 34.866 6 31C6 27.134 9.13498 24 13.001 24ZM13.001 26C10.2396 26 8.00098 28.2386 8.00098 31C8.00098 32.2707 8.47496 33.4304 9.25586 34.3125C10.2823 33.4915 11.5843 33 13.001 33L13.2725 33.0059C14.5833 33.0643 15.7838 33.5446 16.7441 34.3125C17.5253 33.4303 18.001 32.271 18.001 31C18.001 28.2387 15.7622 26.0003 13.001 26Z" fill="oklch(0.3523 0 0 / 1)" class="wd-expressive-fill"></path>
<path d="M28 28C29.1043 28.0003 30 28.8956 30 30C30 31.1044 29.1043 31.9997 28 32C26.8954 32 26 31.1046 26 30C26 28.8954 26.8954 28 28 28Z" fill="oklch(0.3523 0 0 / 1)" class="wd-expressive-fill"></path>
<path d="M28 24C31.8658 24.0003 35 27.1342 35 31C35 34.8658 31.8658 37.9997 28 38C24.134 38 21 34.866 21 31C21 27.134 24.134 24 28 24ZM28 26C25.2386 26 23 28.2386 23 31C23 32.2707 23.474 33.4304 24.2549 34.3125C25.2813 33.4915 26.5834 33 28 33L28.2715 33.0059C29.5823 33.0643 30.7829 33.5446 31.7432 34.3125C32.5243 33.4303 33 32.271 33 31C33 28.2387 30.7612 26.0003 28 26Z" fill="oklch(0.3523 0 0 / 1)" class="wd-expressive-fill"></path>
<path d="M43.5 28C43.7761 28 44 28.2239 44 28.5V29.9951H45.5049C45.781 29.9951 46.0049 30.219 46.0049 30.4951V31.4951C46.0049 31.7713 45.781 31.9951 45.5049 31.9951H44V33.5C44 33.7761 43.7761 34 43.5 34H42.5C42.2239 34 42 33.7761 42 33.5V31.9951H40.5049C40.2287 31.9951 40.0049 31.7713 40.0049 31.4951V30.4951C40.0049 30.219 40.2287 29.9951 40.5049 29.9951H42V28.5C42 28.2239 42.2239 28 42.5 28H43.5Z" fill="oklch(0.3523 0 0 / 1)" class="wd-expressive-fill"></path>
<path d="M43 24C46.866 24 50 27.134 50 31C50 34.866 46.866 38 43 38C39.134 38 36 34.866 36 31C36 27.134 39.134 24 43 24ZM43 26C40.2386 26 38 28.2386 38 31C38 33.7614 40.2386 36 43 36C45.7614 36 48 33.7614 48 31C48 28.2386 45.7614 26 43 26Z" fill="oklch(0.3523 0 0 / 1)" class="wd-expressive-fill"></path>
<path d="M7.5 13C8.32843 13 9 13.6716 9 14.5C9 15.3284 8.32843 16 7.5 16C6.67157 16 6 15.3284 6 14.5C6 13.6716 6.67157 13 7.5 13Z" fill="oklch(0.3523 0 0 / 1)" class="wd-expressive-fill"></path>
<path d="M12.5 13C13.3284 13 14 13.6716 14 14.5C14 15.3284 13.3284 16 12.5 16C11.6716 16 11 15.3284 11 14.5C11 13.6716 11.6716 13 12.5 13Z" fill="oklch(0.3523 0 0 / 1)" class="wd-expressive-fill"></path>
<path d="M17.5 13C18.3284 13 19 13.6716 19 14.5C19 15.3284 18.3284 16 17.5 16C16.6716 16 16 15.3284 16 14.5C16 13.6716 16.6716 13 17.5 13Z" fill="oklch(0.3523 0 0 / 1)" class="wd-expressive-fill"></path>
<path d="M51 10C52.6569 10 54 11.3431 54 13V43C54 44.6569 52.6569 46 51 46H5C3.34315 46 2 44.6569 2 43V13C2 11.3431 3.34315 10 5 10H51ZM4 43C4 43.5523 4.44772 44 5 44H51C51.5523 44 52 43.5523 52 43V19H4V43ZM5 12C4.44772 12 4 12.4477 4 13V17H52V13C52 12.4477 51.5523 12 51 12H5Z" fill="oklch(0.3523 0 0 / 1)" class="wd-expressive-fill"></path>
</g>
</svg>