<svg role="presentation" width="56" height="56" viewBox="0 0 56 56" xmlns="http://www.w3.org/2000/svg" class="wd-expressive wd-expressive-cloud-binary">
<path d="M22 4C22.5295 4 23.0484 4.0451 23.5527 4.13281C19.8254 4.81399 17 8.07694 17 12.001C17.0001 13.0675 17.211 14.0843 17.5898 15.0146C14.4674 15.2255 12 17.8251 12 21.001C12.0003 24.211 14.5213 26.8326 17.6914 26.9932L18 27.001H39V26.9844C39.1655 26.994 39.3321 27.001 39.5 27.001C43.5849 27.001 46.9944 24.1187 47.8115 20.2773C47.9334 20.8323 48 21.4084 48 22C47.9997 26.28 44.6389 29.775 40.4121 29.9893L40 30H16L15.5889 29.9893C11.362 29.7751 8.00026 26.2801 8 22C8 18.5925 10.1313 15.6833 13.1328 14.5303C13.0476 14.0328 13 13.5218 13 13C13 8.02955 17.0296 4.00018 22 4Z" fill="oklch(0.3057 0.079 256.22 / 0.13)" class="wd-expressive-accent"></path>
<g>
<path d="M27.5 43.9414C29.469 43.9414 30.6016 45.404 30.6016 48C30.6016 50.596 29.469 52.0586 27.5 52.0586C25.531 52.0586 24.3984 50.596 24.3984 48C24.3984 45.404 25.531 43.9414 27.5 43.9414ZM27.5 45.3047C26.719 45.3047 26.3779 46.13 26.3779 48C26.3779 49.87 26.719 50.6953 27.5 50.6953C28.292 50.6953 28.6221 49.87 28.6221 48C28.6221 46.13 28.292 45.3047 27.5 45.3047Z" fill="oklch(0.3523 0 0 / 1)" class="wd-expressive-fill"></path>
<path d="M19.5 44.1504C19.776 44.1504 19.9997 44.3735 20 44.6494V51.3496C20 51.6258 19.7761 51.8496 19.5 51.8496H18.6631C18.3869 51.8496 18.1631 51.6258 18.1631 51.3496V46.5264H18.1406C17.9535 47.043 17.5577 47.252 16.9639 47.252H16.9141C16.6379 47.252 16.4141 47.0281 16.4141 46.752V46.2998C16.4141 46.0237 16.638 45.7998 16.9141 45.7998H17.0518C17.8437 45.7998 18.1738 45.4149 18.1738 44.667V44.6494C18.1741 44.3736 18.3979 44.1505 18.6738 44.1504H19.5Z" fill="oklch(0.3523 0 0 / 1)" class="wd-expressive-fill"></path>
<path d="M37.5 44.1504C37.776 44.1504 37.9997 44.3735 38 44.6494V51.3496C38 51.6258 37.7761 51.8496 37.5 51.8496H36.6631C36.3869 51.8496 36.1631 51.6258 36.1631 51.3496V46.5264H36.1406C35.9535 47.043 35.5577 47.252 34.9639 47.252H34.9141C34.6379 47.252 34.4141 47.0281 34.4141 46.752V46.2998C34.4141 46.0237 34.638 45.7998 34.9141 45.7998H35.0518C35.8437 45.7998 36.1738 45.4149 36.1738 44.667V44.6494C36.1741 44.3736 36.3979 44.1505 36.6738 44.1504H37.5Z" fill="oklch(0.3523 0 0 / 1)" class="wd-expressive-fill"></path>
<path d="M22.5 33.9414C24.469 33.9414 25.6016 35.404 25.6016 38C25.6016 40.596 24.469 42.0586 22.5 42.0586C20.531 42.0586 19.3984 40.596 19.3984 38C19.3984 35.404 20.531 33.9414 22.5 33.9414ZM22.5 35.3047C21.719 35.3047 21.3779 36.13 21.3779 38C21.3779 39.87 21.719 40.6953 22.5 40.6953C23.292 40.6953 23.6221 39.87 23.6221 38C23.6221 36.13 23.292 35.3047 22.5 35.3047Z" fill="oklch(0.3523 0 0 / 1)" class="wd-expressive-fill"></path>
<path d="M40.5 33.9414C42.469 33.9414 43.6016 35.404 43.6016 38C43.6016 40.596 42.469 42.0586 40.5 42.0586C38.531 42.0586 37.3984 40.596 37.3984 38C37.3984 35.404 38.531 33.9414 40.5 33.9414ZM40.5 35.3047C39.719 35.3047 39.3779 36.13 39.3779 38C39.3779 39.87 39.719 40.6953 40.5 40.6953C41.292 40.6953 41.6221 39.87 41.6221 38C41.6221 36.13 41.292 35.3047 40.5 35.3047Z" fill="oklch(0.3523 0 0 / 1)" class="wd-expressive-fill"></path>
<path d="M14.5 34.1504C14.776 34.1504 14.9997 34.3735 15 34.6494V41.3496C15 41.6258 14.7761 41.8496 14.5 41.8496H13.6631C13.3869 41.8496 13.1631 41.6258 13.1631 41.3496V36.5264H13.1406C12.9535 37.043 12.5577 37.252 11.9639 37.252H11.9141C11.6379 37.252 11.4141 37.0281 11.4141 36.752V36.2998C11.4141 36.0237 11.638 35.7998 11.9141 35.7998H12.0518C12.8437 35.7998 13.1738 35.4149 13.1738 34.667V34.6494C13.1741 34.3736 13.3979 34.1505 13.6738 34.1504H14.5Z" fill="oklch(0.3523 0 0 / 1)" class="wd-expressive-fill"></path>
<path d="M32.5 34.1504C32.776 34.1504 32.9997 34.3735 33 34.6494V41.3496C33 41.6258 32.7761 41.8496 32.5 41.8496H31.6631C31.3869 41.8496 31.1631 41.6258 31.1631 41.3496V36.5264H31.1406C30.9535 37.043 30.5577 37.252 29.9639 37.252H29.9141C29.6379 37.252 29.4141 37.0281 29.4141 36.752V36.2998C29.4141 36.0237 29.638 35.7998 29.9141 35.7998H30.0518C30.8437 35.7998 31.1738 35.4149 31.1738 34.667V34.6494C31.1741 34.3736 31.3979 34.1505 31.6738 34.1504H32.5Z" fill="oklch(0.3523 0 0 / 1)" class="wd-expressive-fill"></path>
<path d="M22 3C25.474 3.00011 28.5318 4.77343 30.3232 7.45898C31.1611 7.16173 32.0627 7.00102 33 7.00098C36.74 7.00113 39.8763 9.56706 40.7529 13.0342C45.3709 13.4169 49 17.2842 49 22.001L48.9893 22.4502C48.7623 27.0582 45.0698 30.7555 40.4629 30.9893H40.4502L40.4385 30.9902L40.0264 31.001H15.9736L15.5625 30.9902L15.5508 30.9893H15.5381C10.931 30.7558 7.23775 27.0585 7.01074 22.4502L7 22.001C7 18.4486 9.05865 15.3806 12.0439 13.917C12.0158 13.6164 12 13.3106 12 13.001C12 7.47835 16.4772 3.0002 22 3ZM22 5C17.582 5.00018 14 8.58272 14 13.001L14.0078 13.3457C14.0232 13.6886 14.0609 14.0281 14.1182 14.3623L14.2568 15.1709L13.4912 15.4648C10.863 16.4746 9 19.0213 9 22.001L9.00879 22.3496C9.185 25.931 12.0533 28.805 15.6318 28.9902L16.0264 29.001H39.9736L40.3682 28.9902C43.9468 28.8052 46.815 25.9313 46.9912 22.3496L47 22.001C47 18.1351 43.8658 15.0012 40 15.001C39.9693 15.001 40.003 15.0014 39.9365 15.002L39.0615 15.0098L38.9375 14.1436C38.5221 11.2362 36.0218 9.00114 33 9.00098C32.0493 9.00103 31.1532 9.22111 30.3574 9.6123L29.4951 10.0361L29.0371 9.19141C27.6816 6.69313 25.0373 5.00012 22 5Z" fill="oklch(0.3523 0 0 / 1)" class="wd-expressive-fill"></path>
</g>
</svg>