<svg role="presentation" width="56" height="56" viewBox="0 0 56 56" xmlns="http://www.w3.org/2000/svg" class="wd-expressive wd-expressive-grad-cap-finance">
<g>
<path d="M26 46C28.2091 46 30 47.7909 30 50V51H25V46H26Z" fill="oklch(0.3057 0.079 256.22 / 0.13)" class="wd-expressive-accent"></path>
<path d="M53 51H48V50C48 47.791 49.791 46.0002 52 46H53V51Z" fill="oklch(0.3057 0.079 256.22 / 0.13)" class="wd-expressive-accent"></path>
<path d="M38.9961 39.0654C41.2052 39.0654 42.9961 40.8563 42.9961 43.0654C42.9961 45.2746 41.2052 47.0654 38.9961 47.0654C36.7872 47.0651 34.9961 45.2744 34.9961 43.0654C34.9961 40.8565 36.7872 39.0658 38.9961 39.0654Z" fill="oklch(0.3057 0.079 256.22 / 0.13)" class="wd-expressive-accent"></path>
<path d="M30 36C30 38.2091 28.2091 40 26 40H25V35H30V36Z" fill="oklch(0.3057 0.079 256.22 / 0.13)" class="wd-expressive-accent"></path>
<path d="M53 40H52C49.791 39.9998 48 38.209 48 36V35H53V40Z" fill="oklch(0.3057 0.079 256.22 / 0.13)" class="wd-expressive-accent"></path>
<path d="M36.5 21C36.7761 21 37 21.2239 37 21.5V22.0039C37 22.7783 36.5564 23.4899 35.8389 23.7812C32.4073 25.174 28.1329 26 23.5 26C18.8672 26 14.5936 25.174 11.1621 23.7812C10.4445 23.49 10 22.7784 10 22.0039V21.5C10 21.224 10.224 21.0002 10.5 21H36.5Z" fill="oklch(0.3057 0.079 256.22 / 0.13)" class="wd-expressive-accent"></path>
</g>
<g>
<path d="M38.9969 38.0654C39.6534 38.0654 40.3034 38.1951 40.91 38.4463C41.5166 38.6976 42.0678 39.066 42.5321 39.5303C42.9963 39.9946 43.3648 40.5457 43.616 41.1523C43.8672 41.7589 43.9969 42.4089 43.9969 43.0654C43.9969 43.722 43.8672 44.372 43.616 44.9785C43.3648 45.5851 42.9963 46.1363 42.5321 46.6006C42.0678 47.0649 41.5166 47.4333 40.91 47.6846C40.3034 47.9358 39.6534 48.0654 38.9969 48.0654C38.3404 48.0654 37.6904 47.9358 37.0838 47.6846C36.4772 47.4333 35.926 47.0648 35.4617 46.6006C34.9975 46.1363 34.629 45.5851 34.3778 44.9785C34.1265 44.3719 33.9969 43.722 33.9969 43.0654C33.9969 42.4089 34.1265 41.7589 34.3778 41.1523C34.629 40.5457 34.9975 39.9946 35.4617 39.5303C35.926 39.066 36.4772 38.6976 37.0838 38.4463C37.6904 38.1951 38.3404 38.0654 38.9969 38.0654ZM38.9969 40.0654C38.603 40.0654 38.2124 40.1432 37.8485 40.2939C37.4847 40.4447 37.1543 40.6659 36.8758 40.9443C36.5973 41.2228 36.3762 41.5532 36.2254 41.917C36.0746 42.281 35.9969 42.6715 35.9969 43.0654C35.9969 43.4594 36.0746 43.8499 36.2254 44.2139C36.3762 44.5777 36.5973 44.9081 36.8758 45.1865C37.1543 45.465 37.4847 45.6862 37.8485 45.8369C38.2124 45.9877 38.603 46.0654 38.9969 46.0654C39.3908 46.0654 39.7814 45.9877 40.1453 45.8369C40.5091 45.6862 40.8395 45.465 41.118 45.1865C41.3964 44.9081 41.6176 44.5777 41.7684 44.2139C41.9191 43.8499 41.9969 43.4594 41.9969 43.0654L41.9823 42.7715C41.9534 42.4784 41.8815 42.1901 41.7684 41.917C41.6176 41.5532 41.3964 41.2228 41.118 40.9443C40.8395 40.6659 40.5091 40.4447 40.1453 40.2939C39.7814 40.1432 39.3908 40.0654 38.9969 40.0654Z" fill="oklch(0.3523 0 0 / 1)" class="wd-expressive-fill"></path>
<path d="M52.6541 34.0078C53.4104 34.0848 54.0008 34.7235 54.0008 35.5V50.5C54.0008 51.3283 53.3291 51.9998 52.5008 52H25.5008C24.6724 52 24.0008 51.3284 24.0008 50.5V35.5C24.0008 34.6716 24.6724 34 25.5008 34H52.5008L52.6541 34.0078ZM26.0008 50H29.0008C29.0008 48.3433 27.6575 47.0002 26.0008 47V50ZM31.0008 36C31.0008 38.7613 28.7621 40.9998 26.0008 41V45C28.7621 45.0002 31.0008 47.2387 31.0008 50H47.0008C47.0008 47.2386 49.2394 45 52.0008 45V41C49.2394 41 47.0008 38.7614 47.0008 36H31.0008ZM52.0008 47C50.344 47 49.0008 48.3431 49.0008 50H52.0008V47ZM26.0008 39C27.6058 38.9998 28.9166 37.7393 28.9969 36.1543L29.0008 36H26.0008V39ZM49.0047 36.1543C49.085 37.7394 50.3957 39 52.0008 39V36H49.0008L49.0047 36.1543Z" fill="oklch(0.3523 0 0 / 1)" class="wd-expressive-fill"></path>
<path d="M39.3992 10C39.9996 10.0003 40.5423 10.359 40.7781 10.9111L44.6219 19.9111C45.0441 20.9004 44.3185 21.9994 43.243 22H37.9998V30.0205C37.9998 30.8763 37.6347 31.7263 36.9295 32.291C36.8406 32.3622 36.7512 32.433 36.661 32.5029C36.4426 32.6721 36.1287 32.6245 35.9647 32.4023L35.3709 31.5977C35.207 31.3756 35.2547 31.0632 35.4725 30.8936C35.542 30.8394 35.6108 30.7845 35.6795 30.7295C35.8742 30.5736 35.9998 30.3176 35.9998 30.0205V22H10.9998V30.0205C10.9999 30.3173 11.1258 30.5736 11.3201 30.7295C14.1873 33.0256 17.7159 34.529 21.574 34.9072C21.8489 34.9342 22.0559 35.1728 22.036 35.4482L21.9637 36.4443C21.9437 36.7197 21.7044 36.9276 21.4295 36.9014C17.1541 36.4926 13.243 34.8319 10.0701 32.291C9.36517 31.7263 8.99989 30.8761 8.99983 30.0205V22H6.00081V28.1738C7.16516 28.5861 7.99983 29.6944 7.99983 31C7.99983 31.6879 7.76577 32.3196 7.37776 32.8242L8.28792 36.0986C8.53663 36.9944 7.92063 37.8818 7.02522 37.9893L6.8426 38H3.15803C2.16546 37.9998 1.44764 37.0535 1.71272 36.0986L2.6219 32.8252C2.2338 32.3205 1.99983 31.6882 1.99983 31C1.99983 29.6939 2.83599 28.5859 4.00081 28.1738V22H3.75667C2.68105 21.9996 1.95558 20.9005 2.37776 19.9111L6.22151 10.9111L6.26936 10.8096C6.52562 10.3155 7.03765 10.0002 7.60042 10H39.3992ZM4.99983 30C4.4476 30.0004 3.99983 30.4482 3.99983 31C3.99983 31.3105 4.14153 31.5885 4.36897 31.7744C4.67607 32.0254 4.80609 32.4343 4.70002 32.8164L3.81624 36H6.1844L5.29963 32.8164C5.1936 32.4343 5.32372 32.0254 5.63069 31.7744C5.85811 31.5887 5.99983 31.311 5.99983 31C5.99983 30.4477 5.55211 30 4.99983 30ZM6.64924 15H23.5008C23.7768 15.0002 24.0008 15.224 24.0008 15.5V16.5C24.0008 16.776 23.7768 16.9998 23.5008 17H5.79573L4.51448 20H42.4852L39.0692 12H7.93049L6.64924 15Z" fill="oklch(0.3523 0 0 / 1)" class="wd-expressive-fill"></path>
</g>
</svg>