<svg role="presentation" width="56" height="56" viewBox="0 0 56 56" xmlns="http://www.w3.org/2000/svg" class="wd-expressive wd-expressive-ram">
<g>
<path d="M52.5 35C52.7761 35 53 35.2239 53 35.5V39.5C53 39.7761 52.7761 40 52.5 40H30C30 38.8954 29.1046 38 28 38C26.8954 38 26 38.8954 26 40H3.5C3.22386 40 3 39.7761 3 39.5V35.5C3 35.2239 3.22386 35 3.5 35H52.5Z" fill="oklch(0.3057 0.079 256.22 / 0.13)" class="wd-expressive-accent"></path>
<path d="M14.5 21C14.7761 21 15 21.2239 15 21.5V32H8.5C8.22386 32 8 31.7761 8 31.5V21H14.5Z" fill="oklch(0.3057 0.079 256.22 / 0.13)" class="wd-expressive-accent"></path>
<path d="M29.5 21C29.7761 21 30 21.2239 30 21.5V32H23.5C23.2239 32 23 31.7761 23 31.5V21H29.5Z" fill="oklch(0.3057 0.079 256.22 / 0.13)" class="wd-expressive-accent"></path>
<path d="M44.5 21C44.7761 21 45 21.2239 45 21.5V32H38.5C38.2239 32 38 31.7761 38 31.5V21H44.5Z" fill="oklch(0.3057 0.079 256.22 / 0.13)" class="wd-expressive-accent"></path>
</g>
<g>
<path d="M17.5 19C18.3284 19 19 19.6716 19 20.5V31.5C19 32.3284 18.3284 33 17.5 33H8.5C7.67157 33 7 32.3284 7 31.5V20.5C7 19.6716 7.67157 19 8.5 19H17.5ZM9 31H17V21H9V31Z" fill="oklch(0.3523 0 0 / 1)" class="wd-expressive-fill"></path>
<path d="M32.5 19C33.3284 19 34 19.6716 34 20.5V31.5C34 32.3284 33.3284 33 32.5 33H23.5C22.6716 33 22 32.3284 22 31.5V20.5C22 19.6716 22.6716 19 23.5 19H32.5ZM24 31H32V21H24V31Z" fill="oklch(0.3523 0 0 / 1)" class="wd-expressive-fill"></path>
<path d="M47.5 19C48.3284 19 49 19.6716 49 20.5V31.5C49 32.3284 48.3284 33 47.5 33H38.5C37.6716 33 37 32.3284 37 31.5V20.5C37 19.6716 37.6716 19 38.5 19H47.5ZM39 31H47V21H39V31Z" fill="oklch(0.3523 0 0 / 1)" class="wd-expressive-fill"></path>
<path d="M51 15C52.6569 15 54 16.3431 54 18V38C54 39.6569 52.6569 41 51 41H30.5C29.6284 41 29.1116 40.3129 28.9688 39.752C28.8586 39.3192 28.4655 39 28 39C27.5345 39 27.1414 39.3192 27.0312 39.752C26.8884 40.3129 26.3716 41 25.5 41H5C3.34315 41 2 39.6569 2 38V18C2 16.3431 3.34315 15 5 15H51ZM5 17C4.44772 17 4 17.4477 4 18V38C4 38.5523 4.44772 39 5 39H7V36.5C7 36.2239 7.22386 36 7.5 36H8.5C8.77614 36 9 36.2239 9 36.5V39H12V36.5C12 36.2239 12.2239 36 12.5 36H13.5C13.7761 36 14 36.2239 14 36.5V39H17V36.5C17 36.2239 17.2239 36 17.5 36H18.5C18.7761 36 19 36.2239 19 36.5V39H22V36.5C22 36.2239 22.2239 36 22.5 36H23.5C23.7761 36 24 36.2239 24 36.5V39H25.1719C25.5838 37.8354 26.6929 37 28 37C29.3071 37 30.4162 37.8354 30.8281 39H32V36.5C32 36.2239 32.2239 36 32.5 36H33.5C33.7761 36 34 36.2239 34 36.5V39H37V36.5C37 36.2239 37.2239 36 37.5 36H38.5C38.7761 36 39 36.2239 39 36.5V39H42V36.5C42 36.2239 42.2239 36 42.5 36H43.5C43.7761 36 44 36.2239 44 36.5V39H47V36.5C47 36.2239 47.2239 36 47.5 36H48.5C48.7761 36 49 36.2239 49 36.5V39H51C51.5523 39 52 38.5523 52 38V18C52 17.4477 51.5523 17 51 17H5Z" fill="oklch(0.3523 0 0 / 1)" class="wd-expressive-fill"></path>
</g>
</svg>