<svg role="presentation" width="56" height="56" viewBox="0 0 56 56" xmlns="http://www.w3.org/2000/svg" class="wd-expressive wd-expressive-clipboard-team">
<g>
<path d="M45 50H11C11 46.5858 11.7079 43.2042 13.084 40.0498C13.6253 38.809 14.2674 37.6133 15 36.4717V44H41V21.1406C42.031 21.0453 43.0337 21 44 21H45V50Z" fill="oklch(0.3057 0.079 256.22 / 0.13)" class="wd-expressive-accent"></path>
<path d="M20 36C21.1046 36 22 36.8954 22 38C22 39.1046 21.1046 40 20 40C18.8954 40 18 39.1046 18 38C18 36.8954 18.8954 36 20 36Z" fill="oklch(0.3057 0.079 256.22 / 0.13)" class="wd-expressive-accent"></path>
<path d="M28 36C29.1046 36 30 36.8954 30 38C30 39.1046 29.1046 40 28 40C26.8954 40 26 39.1046 26 38C26 36.8954 26.8954 36 28 36Z" fill="oklch(0.3057 0.079 256.22 / 0.13)" class="wd-expressive-accent"></path>
<path d="M36 36C37.1046 36 38 36.8954 38 38C38 39.1046 37.1046 40 36 40C34.8954 40 34 39.1046 34 38C34 36.8954 34.8954 36 36 36Z" fill="oklch(0.3057 0.079 256.22 / 0.13)" class="wd-expressive-accent"></path>
<path d="M28 3C29.9339 3 31.6107 4.09857 32.4424 5.70508C32.5338 5.88125 32.7116 6 32.9102 6H36.5C36.7761 6 37 6.22386 37 6.5V12.5C36.9999 12.776 36.7761 13 36.5 13H19.5C19.2239 13 19.0001 12.776 19 12.5V6.5C19 6.22386 19.2239 6 19.5 6H23.0898C23.2884 6 23.4662 5.88125 23.5576 5.70508C24.3893 4.09857 26.0661 3 28 3Z" fill="oklch(0.3057 0.079 256.22 / 0.13)" class="wd-expressive-accent"></path>
</g>
<g>
<path d="M28.001 20C29.1051 20.0005 30.001 20.8958 30.001 22C30.001 23.1042 29.1051 23.9995 28.001 24C26.8964 24 26.001 23.1046 26.001 22C26.001 20.8954 26.8964 20 28.001 20Z" fill="oklch(0.3523 0 0 / 1)" class="wd-expressive-fill"></path>
<path d="M28.001 16C31.8665 16.0005 35.001 19.1343 35.001 23C35.001 26.5264 32.3922 29.4414 29 29.9268V31H34C35.3739 31 36.5293 31.9244 36.8848 33.1846C36.9556 33.2708 37 33.3797 37 33.5V35.1738C38.1647 35.5859 39 36.6941 39 38C39 39.6569 37.6569 41 36 41C34.3431 41 33 39.6569 33 38C33 36.6941 33.8353 35.5859 35 35.1738V34C35 33.4477 34.5523 33 34 33H29V35.1738C30.1647 35.5859 31 36.6941 31 38C31 39.6569 29.6569 41 28 41C26.3431 41 25 39.6569 25 38C25 36.6941 25.8353 35.5859 27 35.1738V33H22C21.4477 33 21 33.4477 21 34V35.1738C22.1647 35.5859 23 36.6941 23 38C23 39.6569 21.6569 41 20 41C18.3431 41 17 39.6569 17 38C17 36.6941 17.8353 35.5859 19 35.1738V33.5C19 33.3799 19.0437 33.2708 19.1143 33.1846C19.4697 31.9243 20.626 31 22 31H27V29.9268C23.6081 29.4412 21.001 26.5262 21.001 23C21.001 19.134 24.135 16 28.001 16ZM20 37C19.4477 37 19 37.4477 19 38C19 38.5523 19.4477 39 20 39C20.5523 39 21 38.5523 21 38C21 37.4477 20.5523 37 20 37ZM28 37C27.4477 37 27 37.4477 27 38C27 38.5523 27.4477 39 28 39C28.5523 39 29 38.5523 29 38C29 37.4477 28.5523 37 28 37ZM36 37C35.4477 37 35 37.4477 35 38C35 38.5523 35.4477 39 36 39C36.5523 39 37 38.5523 37 38C37 37.4477 36.5523 37 36 37ZM28.001 18C25.2396 18 23.001 20.2386 23.001 23C23.001 24.2707 23.475 25.4304 24.2559 26.3125C25.2822 25.4916 26.5845 25 28.001 25L28.2725 25.0059C29.5831 25.0644 30.784 25.5447 31.7441 26.3125C32.5252 25.4304 33.001 24.2709 33.001 23C33.001 20.2389 30.762 18.0005 28.001 18Z" fill="oklch(0.3523 0 0 / 1)" class="wd-expressive-fill"></path>
<path d="M28 2C30.2218 2 32.1561 3.20968 33.1924 5H36.5C37.1529 5 37.707 5.41766 37.9131 6H43C44.6568 6.00001 46 7.34315 46 9V48C46 49.6568 44.6568 50.9999 43 51H13C11.3431 51 10 49.6568 10 48V9C10 7.34322 11.3432 6.00011 13 6H18.0869C18.293 5.41766 18.8471 5 19.5 5H22.8076C23.8439 3.20968 25.7782 2 28 2ZM13 8C12.4478 8.00011 12 8.44778 12 9V48C12 48.5523 12.4477 49 13 49H43C43.5522 48.9999 44 48.5522 44 48V9C44 8.44772 43.5523 8.00001 43 8H38V10H41C41.2652 10 41.5195 10.1054 41.707 10.293C41.8946 10.4805 42 10.7348 42 11V44C42 44.5522 41.5522 44.9999 41 45H15C14.7348 45 14.4805 44.8946 14.293 44.707C14.1054 44.5195 14 44.2652 14 44V11C14 10.4478 14.4478 10.0001 15 10H18V8H13ZM16 43H40V12H38V12.5C38 13.3284 37.3284 14 36.5 14H19.5C18.6716 14 18 13.3284 18 12.5V12H16V43ZM28 4C26.4548 4 25.1131 4.8764 24.4463 6.16406C24.2004 6.63899 23.6985 7 23.0898 7H20V12H36V7H32.9102C32.3015 7 31.7996 6.63899 31.5537 6.16406C30.8869 4.8764 29.5452 4 28 4Z" fill="oklch(0.3523 0 0 / 1)" class="wd-expressive-fill"></path>
</g>
</svg>