<svg role="presentation" width="56" height="56" viewBox="0 0 56 56" xmlns="http://www.w3.org/2000/svg" class="wd-expressive wd-expressive-diamond">
<path d="M28 3C41.8071 3 53 14.1929 53 28C53 41.8071 41.8071 53 28 53C14.1929 53 3 41.8071 3 28C3 14.1929 14.1929 3 28 3ZM28 10C26.8954 10 26.0134 10.9 25.877 11.9961C24.9759 19.2367 19.2367 24.9759 11.9961 25.877C10.9 26.0134 10 26.8954 10 28C10 29.1046 10.9 29.9866 11.9961 30.123C19.2367 31.0241 24.9759 36.7633 25.877 44.0039C26.0134 45.1 26.8954 46 28 46C29.1046 46 29.9866 45.1 30.123 44.0039C31.0241 36.7634 36.7634 31.0243 44.0039 30.123C45.1 29.9866 46 29.1046 46 28C46 26.8954 45.1 26.0134 44.0039 25.877C36.7634 24.9757 31.0241 19.2366 30.123 11.9961C29.9866 10.9 29.1046 10 28 10Z" fill="oklch(0.3057 0.079 256.22 / 0.13)" class="wd-expressive-accent"></path>
<path d="M28 9C29.6841 9 30.9261 10.3538 31.1152 11.8721C31.9598 18.6582 37.3417 24.0401 44.1279 24.8848C45.6462 25.0739 47 26.316 47 28C47 29.684 45.6462 30.9261 44.1279 31.1152C37.3417 31.9599 31.9598 37.3418 31.1152 44.1279C30.9261 45.6462 29.6841 47 28 47C26.3159 47 25.0739 45.6462 24.8848 44.1279C24.0403 37.3417 18.6583 31.9597 11.8721 31.1152C10.3538 30.9261 9 29.6841 9 28C9 26.3159 10.3538 25.0739 11.8721 24.8848C18.6583 24.0403 24.0403 18.6583 24.8848 11.8721C25.0739 10.3538 26.3159 9 28 9ZM28 11C27.4752 11 26.9531 11.4456 26.8691 12.1191C25.9115 19.8142 19.8142 25.9115 12.1191 26.8691C11.4456 26.9531 11 27.4752 11 28C11 28.5248 11.4456 29.0469 12.1191 29.1309C19.8142 30.0885 25.9115 36.1858 26.8691 43.8809C26.9531 44.5544 27.4752 45 28 45C28.5248 45 29.0469 44.5544 29.1309 43.8809C30.0885 36.1859 36.186 30.0886 43.8809 29.1309C44.5544 29.0469 45 28.5248 45 28C45 27.4752 44.5544 26.9531 43.8809 26.8691C36.186 25.9114 30.0885 19.8141 29.1309 12.1191C29.0469 11.4456 28.5248 11 28 11Z" fill="oklch(0.3523 0 0 / 1)" class="wd-expressive-fill"></path>
</svg>