<svg role="presentation" width="56" height="56" viewBox="0 0 56 56" xmlns="http://www.w3.org/2000/svg" class="wd-expressive wd-expressive-utensils">
<g>
<path d="M37.4756 43.3047C34.7232 45.0124 31.4773 46 28 46C24.8916 46 21.9676 45.2113 19.416 43.8242L28.7051 34.5342L37.4756 43.3047Z" fill="oklch(0.3057 0.079 256.22 / 0.13)" class="wd-expressive-accent"></path>
<path d="M45.4258 23.4727C45.8005 24.9192 46 26.4363 46 28C46 33.014 43.9483 37.5477 40.6406 40.8115L31.5342 31.7051L31.6797 31.5605C32.3435 30.897 33.359 30.5827 34.543 30.4951C37.8202 30.2528 40.5585 28.3409 42.8525 26.0469L45.4258 23.4727Z" fill="oklch(0.3057 0.079 256.22 / 0.13)" class="wd-expressive-accent"></path>
<path d="M11.2734 21.3379C12.023 22.9847 13.1013 24.5867 14.333 25.8184C16.3879 27.8731 18.3876 28.4164 20.1689 27.9766C21.043 27.7607 22.0186 27.8477 22.6553 28.4844L24.4629 30.292L14.7354 40.0195C14.7117 40.0432 14.6887 40.0675 14.666 40.0918C11.7666 36.8965 10 32.6545 10 28C10 25.6464 10.452 23.3985 11.2734 21.3379Z" fill="oklch(0.3057 0.079 256.22 / 0.13)" class="wd-expressive-accent"></path>
<path d="M28 10C31.1977 10 34.2001 10.8348 36.8027 12.2969L32.9531 16.1475L32.5273 16.582C30.4266 18.7846 28.7325 21.3832 28.5049 24.4551C28.4171 25.6388 28.1018 26.6537 27.4385 27.3174L27.292 27.4629L25.4844 25.6553C24.8477 25.0186 24.7607 24.043 24.9766 23.1689C25.4164 21.3876 24.8731 19.3879 22.8184 17.333C21.2562 15.7709 19.0988 14.4559 17.0088 13.7451C20.0493 11.3973 23.8613 10 28 10Z" fill="oklch(0.3057 0.079 256.22 / 0.13)" class="wd-expressive-accent"></path>
</g>
<g>
<path d="M28.001 9C31.3777 9.00007 34.66 9.90187 37.5312 11.5674L38.2529 10.8467C38.4481 10.6517 38.7647 10.6518 38.96 10.8467L39.667 11.5547C39.8622 11.75 39.8622 12.0665 39.667 12.2617L34.3672 17.5615L33.9688 17.9697C32.019 20.0156 30.6785 22.1944 30.5 24.6025C30.4144 25.7576 30.1288 27.052 29.3652 28.1221L30.876 29.6328C31.9459 28.8697 33.2405 28.5854 34.3955 28.5C36.9648 28.3099 39.2735 26.7967 41.4375 24.6328L46.7383 19.332C46.9335 19.137 47.2501 19.1371 47.4453 19.332L48.1523 20.0391C48.3476 20.2343 48.3476 20.5518 48.1523 20.7471L46.2334 22.665C46.7365 24.383 47.001 26.1776 47.001 28C47.001 32.8171 45.1694 37.4439 41.8955 40.9551C42.3674 42.0505 42.1584 43.3689 41.2637 44.2637C40.1932 45.3341 38.5152 45.4258 37.3398 44.54C34.5143 46.1359 31.3032 46.9999 28.001 47C24.6974 47 21.4846 46.1359 18.6582 44.5391C17.4828 45.4241 15.8056 45.3329 14.7354 44.2627C13.8406 43.3678 13.6312 42.0487 14.1035 40.9531C10.8309 37.4423 9.00098 32.8161 9.00098 28C9.00101 25.4571 9.51152 22.9671 10.4746 20.666C10.1261 19.5054 9.94338 18.3298 10.0215 17.25C10.1017 16.1417 10.4629 15.0703 11.2666 14.2666L11.4209 14.1211C12.205 13.419 13.2119 13.0966 14.251 13.0215C14.8693 12.9769 15.5185 13.0196 16.1787 13.1279C19.5233 10.4687 23.6862 9 28.001 9ZM20.1592 43.0811C22.5596 44.3292 25.2454 45 28.001 45C30.7552 44.9999 33.4394 44.3292 35.8389 43.082L27.998 35.2412L20.1592 43.0811ZM14.3945 15.0166C13.708 15.0663 13.1925 15.256 12.8281 15.5488L12.6807 15.6807C12.3129 16.0484 12.0734 16.6096 12.0166 17.3945C11.9596 18.1825 12.0948 19.1326 12.4111 20.1621C13.0454 22.2256 14.352 24.4241 15.9033 25.9756L16.2559 26.3135C18.0016 27.9092 19.5459 28.2043 20.8213 27.8916C21.8698 27.6345 23.2679 27.6819 24.251 28.665L38.4355 42.8496C38.8261 43.2397 39.4592 43.24 39.8496 42.8496C40.2401 42.4591 40.2401 41.8251 39.8496 41.4346L25.6641 27.249C24.6815 26.2661 24.6337 24.8695 24.8906 23.8213C25.2241 22.4611 24.8662 20.7949 22.9756 18.9043C21.4241 17.3528 19.2256 16.0456 17.1621 15.4111C16.1327 15.0947 15.1824 14.9597 14.3945 15.0166ZM16.1494 41.4346C15.7596 41.8251 15.7593 42.4583 16.1494 42.8486C16.5398 43.239 17.1739 43.2388 17.5645 42.8486L26.584 33.8262L25.1699 32.4131L16.1494 41.4346ZM42.8525 26.0469C40.5585 28.3408 37.8201 30.2528 34.543 30.4951C33.6936 30.5579 32.9315 30.7385 32.3232 31.0801L40.625 39.3818C43.4336 36.2669 45.001 32.2148 45.001 28C45.001 26.7476 44.8603 25.51 44.5918 24.3066L42.8525 26.0469ZM11.624 23.4463C11.2147 24.9164 11.001 26.447 11.001 28C11.001 32.2141 12.5664 36.2661 15.374 39.3809L23.7559 30.998L22.8369 30.0791C22.5482 29.7904 21.9963 29.6637 21.2979 29.835C19.2242 30.3434 17.0285 29.7233 14.9121 27.7939L14.4893 27.3906C13.3792 26.2805 12.3894 24.9005 11.624 23.4463ZM28.001 11C24.6502 11 21.4028 11.9916 18.6465 13.8086C20.7327 14.6038 22.8278 15.9284 24.3896 17.4902L24.793 17.9131C26.7221 20.0293 27.3415 22.2244 26.833 24.2979C26.662 24.9957 26.7898 25.5463 27.0781 25.835L27.918 26.6748C28.2605 26.0666 28.4429 25.3048 28.5059 24.4551C28.7335 21.3833 30.4267 18.7855 32.5273 16.583L32.9521 16.1475L36.0625 13.0361C33.6068 11.7129 30.8411 11.0001 28.001 11Z" fill="oklch(0.3523 0 0 / 1)" class="wd-expressive-fill"></path>
<path d="M43.9102 16.5039C44.1054 16.3088 44.422 16.3087 44.6172 16.5039L45.3242 17.2109C45.5194 17.4062 45.5193 17.7227 45.3242 17.918L38.1318 25.1104C37.9366 25.3055 37.62 25.3056 37.4248 25.1104L36.7178 24.4033C36.5226 24.2081 36.5226 23.8916 36.7178 23.6963L43.9102 16.5039Z" fill="oklch(0.3523 0 0 / 1)" class="wd-expressive-fill"></path>
<path d="M41.0811 13.6758C41.2763 13.4805 41.5938 13.4805 41.7891 13.6758L42.4961 14.3828C42.6911 14.5781 42.6911 14.8947 42.4961 15.0898L35.3027 22.2822C35.1074 22.4772 34.7909 22.4774 34.5957 22.2822L33.8887 21.5752C33.6937 21.38 33.6937 21.0634 33.8887 20.8682L41.0811 13.6758Z" fill="oklch(0.3523 0 0 / 1)" class="wd-expressive-fill"></path>
<path d="M28 3C41.8071 3 53 14.1929 53 28C53 41.8071 41.8071 53 28 53C14.1929 53 3 41.8071 3 28C3 14.1929 14.1929 3 28 3ZM28 5C15.2975 5 5 15.2975 5 28C5 40.7025 15.2975 51 28 51C40.7025 51 51 40.7025 51 28C51 15.2975 40.7025 5 28 5Z" fill="oklch(0.3523 0 0 / 1)" class="wd-expressive-fill"></path>
</g>
</svg>