<svg role="presentation" width="56" height="56" viewBox="0 0 56 56" xmlns="http://www.w3.org/2000/svg" class="wd-expressive wd-expressive-circuit-board">
<g>
<path d="M40 37C41.6569 37 43 38.3431 43 40C43 41.6569 41.6569 43 40 43C38.3431 43 37 41.6569 37 40C37 38.3431 38.3431 37 40 37Z" fill="oklch(0.3057 0.079 256.22 / 0.13)" class="wd-expressive-accent"></path>
<path d="M16 33C17.6569 33 19 34.3431 19 36C19 37.6569 17.6569 39 16 39C14.3431 39 13 37.6569 13 36C13 34.3431 14.3431 33 16 33Z" fill="oklch(0.3057 0.079 256.22 / 0.13)" class="wd-expressive-accent"></path>
<path d="M32 29C33.6569 29 35 30.3431 35 32C35 33.6569 33.6569 35 32 35C30.3431 35 29 33.6569 29 32C29 30.3431 30.3431 29 32 29Z" fill="oklch(0.3057 0.079 256.22 / 0.13)" class="wd-expressive-accent"></path>
<path d="M24 21C25.6569 21 27 22.3431 27 24C27 25.6569 25.6569 27 24 27C22.3431 27 21 25.6569 21 24C21 22.3431 22.3431 21 24 21Z" fill="oklch(0.3057 0.079 256.22 / 0.13)" class="wd-expressive-accent"></path>
<path d="M40 17C41.6569 17 43 18.3431 43 20C43 21.6569 41.6569 23 40 23C38.3431 23 37 21.6569 37 20C37 18.3431 38.3431 17 40 17Z" fill="oklch(0.3057 0.079 256.22 / 0.13)" class="wd-expressive-accent"></path>
<path d="M16 13C17.6569 13 19 14.3431 19 16C19 17.6569 17.6569 19 16 19C14.3431 19 13 17.6569 13 16C13 14.3431 14.3431 13 16 13Z" fill="oklch(0.3057 0.079 256.22 / 0.13)" class="wd-expressive-accent"></path>
<path d="M47 7C48.1046 7 49 7.89543 49 9V47C49 48.1046 48.1046 49 47 49H9C7.89543 49 7 48.1046 7 47V9C7 7.89543 7.89543 7 9 7H47ZM10.5 10C10.2239 10 10 10.2239 10 10.5V45.5C10 45.7761 10.2239 46 10.5 46H45.5C45.7761 46 46 45.7761 46 45.5V10.5C46 10.2239 45.7761 10 45.5 10H10.5Z" fill="oklch(0.3057 0.079 256.22 / 0.13)" class="wd-expressive-accent"></path>
</g>
<g>
<path d="M16 32C18.2091 32 20 33.7909 20 36C20 37.8638 18.7252 39.43 17 39.874V43.5C17 43.7761 16.7761 44 16.5 44H15.5C15.2239 44 15 43.7761 15 43.5V39.874C13.2748 39.43 12 37.8638 12 36C12 33.7909 13.7909 32 16 32ZM16 34C14.8954 34 14 34.8954 14 36C14 37.1046 14.8954 38 16 38C17.1046 38 18 37.1046 18 36C18 34.8954 17.1046 34 16 34Z" fill="oklch(0.3523 0 0 / 1)" class="wd-expressive-fill"></path>
<path d="M16 12C18.2091 12 20 13.7909 20 16C20 17.8638 18.7252 19.43 17 19.874V25.5859L24.5605 33.1465C24.8418 33.4278 25 33.8092 25 34.207V43.5C25 43.7761 24.7761 44 24.5 44H23.5C23.2239 44 23 43.7761 23 43.5V34.4141L15.4395 26.8535C15.1582 26.5722 15 26.1908 15 25.793V19.874C13.2748 19.43 12 17.8638 12 16C12 13.7909 13.7909 12 16 12ZM16 14C14.8954 14 14 14.8954 14 16C14 17.1046 14.8954 18 16 18C17.1046 18 18 17.1046 18 16C18 14.8954 17.1046 14 16 14Z" fill="oklch(0.3523 0 0 / 1)" class="wd-expressive-fill"></path>
<path d="M32 28C34.2091 28 36 29.7909 36 32C36 33.8638 34.7252 35.43 33 35.874V43.5C33 43.7761 32.7761 44 32.5 44H31.5C31.2239 44 31 43.7761 31 43.5V35.874C29.2748 35.43 28 33.8638 28 32C28 29.7909 29.7909 28 32 28ZM32 30C30.8954 30 30 30.8954 30 32C30 33.1046 30.8954 34 32 34C33.1046 34 34 33.1046 34 32C34 30.8954 33.1046 30 32 30Z" fill="oklch(0.3523 0 0 / 1)" class="wd-expressive-fill"></path>
<path d="M32.5 12C32.7761 12 33 12.2239 33 12.5V21.5859L40.5605 29.1465C40.8418 29.4278 41 29.8092 41 30.207V36.126C42.7252 36.57 44 38.1362 44 40C44 42.2091 42.2091 44 40 44C37.7909 44 36 42.2091 36 40C36 38.1362 37.2748 36.57 39 36.126V30.4141L31.4395 22.8535C31.1582 22.5722 31 22.1908 31 21.793V12.5C31 12.2239 31.2239 12 31.5 12H32.5ZM40 38C38.8954 38 38 38.8954 38 40C38 41.1046 38.8954 42 40 42C41.1046 42 42 41.1046 42 40C42 38.8954 41.1046 38 40 38Z" fill="oklch(0.3523 0 0 / 1)" class="wd-expressive-fill"></path>
<path d="M24.5 12C24.7761 12 25 12.2239 25 12.5V20.126C26.7252 20.57 28 22.1362 28 24C28 26.2091 26.2091 28 24 28C21.7909 28 20 26.2091 20 24C20 22.1362 21.2748 20.57 23 20.126V12.5C23 12.2239 23.2239 12 23.5 12H24.5ZM24 22C22.8954 22 22 22.8954 22 24C22 25.1046 22.8954 26 24 26C25.1046 26 26 25.1046 26 24C26 22.8954 25.1046 22 24 22Z" fill="oklch(0.3523 0 0 / 1)" class="wd-expressive-fill"></path>
<path d="M40.5 12C40.7761 12 41 12.2239 41 12.5V16.126C42.7252 16.57 44 18.1362 44 20C44 22.2091 42.2091 24 40 24C37.7909 24 36 22.2091 36 20C36 18.1362 37.2748 16.57 39 16.126V12.5C39 12.2239 39.2239 12 39.5 12H40.5ZM40 18C38.8954 18 38 18.8954 38 20C38 21.1046 38.8954 22 40 22C41.1046 22 42 21.1046 42 20C42 18.8954 41.1046 18 40 18Z" fill="oklch(0.3523 0 0 / 1)" class="wd-expressive-fill"></path>
<path d="M47 6C48.6569 6 50 7.34315 50 9V47C50 48.6569 48.6569 50 47 50H9C7.34315 50 6 48.6569 6 47V9C6 7.34315 7.34315 6 9 6H47ZM9 8C8.44772 8 8 8.44772 8 9V47C8 47.5523 8.44772 48 9 48H47C47.5523 48 48 47.5523 48 47V9C48 8.44772 47.5523 8 47 8H9Z" fill="oklch(0.3523 0 0 / 1)" class="wd-expressive-fill"></path>
</g>
</svg>