<svg role="presentation" width="56" height="56" viewBox="0 0 56 56" xmlns="http://www.w3.org/2000/svg" class="wd-expressive wd-expressive-folder-receipts">
<g>
<path d="M16.5 11L18 10.1426V24H9.5C9.22386 24 9 24.2239 9 24.5V43C9 44.9033 8.40957 46.6691 7.40137 48.123C7.15517 48.4782 7.39495 49 7.82715 49H5.5C5.22386 49 5 48.7761 5 48.5V13.5C5 13.2239 5.22386 13 5.5 13H13V9L16.5 11Z" fill="oklch(0.3057 0.079 256.22 / 0.13)" class="wd-expressive-accent"></path>
<path d="M46.5 18C46.776 18.0001 47 18.2239 47 18.5V24H42V18H46.5Z" fill="oklch(0.3057 0.079 256.22 / 0.13)" class="wd-expressive-accent"></path>
</g>
<g>
<path d="M31.5 15.9994C31.7761 15.9994 31.9999 16.2233 32 16.4994V17.4994C32 17.7755 31.7761 17.9994 31.5 17.9994H22.5C22.2239 17.9994 22 17.7755 22 17.4994V16.4994C22.0001 16.2233 22.2239 15.9994 22.5 15.9994H31.5Z" fill="oklch(0.3523 0 0 / 1)" class="wd-expressive-fill"></path>
<path d="M37.5 11.9994C37.7761 11.9994 37.9999 12.2233 38 12.4994V13.4994C38 13.7755 37.7761 13.9994 37.5 13.9994H22.5C22.2239 13.9994 22 13.7755 22 13.4994V12.4994C22.0001 12.2233 22.2239 11.9994 22.5 11.9994H37.5Z" fill="oklch(0.3523 0 0 / 1)" class="wd-expressive-fill"></path>
<path d="M33.252 4.27674C33.7148 4.01062 34.2852 4.01062 34.748 4.27674L37.999 6.14784L40.752 4.56385C41.7519 3.98897 42.9999 4.71125 43 5.86463V17.0004H45C46.6568 17.0004 47.9999 18.3436 48 20.0004V23.0004H49C50.6566 23.0005 51.9999 24.3437 52 26.0004V43.0004C52 45.2033 51.2864 47.2428 50.0781 48.8959C49.5234 49.6547 48.6462 50.0002 47.8145 50.0004H7C5.34329 50.0004 4.00024 48.657 4 47.0004V15.0004C4.00006 13.3436 5.34318 12.0004 7 12.0004H12V9.8617C12.0003 8.71026 13.2443 7.98869 14.2441 8.55995L16.499 9.84803L17 9.5619V5.86463C17.0001 4.71125 18.2481 3.98897 19.248 4.56385L22 6.14784L25.252 4.27674C25.7148 4.01062 26.2852 4.01062 26.748 4.27674L30 6.14784L33.252 4.27674ZM11 25.0004C10.4479 25.0005 10.0001 25.4483 10 26.0004V43.0004C10 44.8216 9.51039 46.5292 8.65918 48.0004H47.8145C48.1198 48.0002 48.3462 47.8755 48.4629 47.7162C49.3689 46.4766 49.927 44.9673 49.9932 43.3295L50 43.0004V26.0004C49.9999 25.4483 49.5521 25.0005 49 25.0004H11ZM7 14.0004C6.44775 14.0004 6.00006 14.4481 6 15.0004V47.0004C6.00014 47.3273 6.15769 47.6168 6.40039 47.7992C7.33352 46.5571 7.91361 45.0362 7.99121 43.3822L8 43.0004V26.0004C8.0001 24.3437 9.34335 23.0005 11 23.0004H12V14.0004H7ZM14 23.0004H17V11.8353C16.5926 11.9798 16.1387 11.9456 15.7559 11.7269L14 10.723V23.0004ZM30.748 8.02381L30.5693 8.1117C30.2048 8.26127 29.7952 8.26127 29.4307 8.1117L29.252 8.02381L26 6.1537L22.748 8.02381L22.5693 8.1117C22.2048 8.26127 21.7952 8.26127 21.4307 8.1117L21.252 8.02381L19 6.72987V23.0004H41V6.72987L38.748 8.02381L38.5693 8.1117C38.2048 8.26127 37.7952 8.26127 37.4307 8.1117L37.252 8.02381L34 6.1537L30.748 8.02381ZM43 23.0004H46V20.0004C45.9999 19.4481 45.5522 19.0004 45 19.0004H43V23.0004Z" fill="oklch(0.3523 0 0 / 1)" class="wd-expressive-fill"></path>
</g>
</svg>