<svg role="presentation" width="56" height="56" viewBox="0 0 56 56" xmlns="http://www.w3.org/2000/svg" class="wd-expressive wd-expressive-scroll">
<g>
<path d="M39.7257 36.0404C42.3804 32.1691 47.1184 30.8038 50.3067 32.9896C53.4947 35.1761 53.9271 40.087 51.2725 43.9584C50.1349 45.6174 48.6137 46.8136 46.9972 47.4701C45.8823 47.854 44.7063 47.7715 43.7725 47.1312C42.0254 45.9326 41.7882 43.2405 43.2432 41.1185C43.7989 40.3082 44.5212 39.6976 45.2989 39.3197L39.9874 35.6771C39.8984 35.7958 39.8115 35.9176 39.7266 36.0414L39.7257 36.0404Z" fill="oklch(0.3057 0.079 256.22 / 0.13)" class="wd-expressive-accent"></path>
<path d="M17.7393 20.9642C20.3942 17.0926 25.131 15.7262 28.3194 17.9125L37.3106 24.0668C34.1224 21.8887 29.3919 23.2555 26.7393 27.1234C24.0846 30.995 24.517 35.9058 27.7052 38.0922L27.1026 37.6801C27.3924 37.8787 27.3926 38.3067 27.1026 38.5053L14.6251 47.0443C14.3289 47.2471 13.9223 47.081 13.8526 46.7289L12.9981 42.4144C12.9551 42.1972 12.7743 42.0335 12.5538 42.0131L6.37899 41.4408C5.91318 41.3974 5.75678 40.7951 6.14266 40.5306L18.4229 32.1254C18.5905 32.0109 18.8105 32.0094 18.9796 32.1205L18.7052 31.933C15.5168 29.7467 15.0847 24.8358 17.7393 20.9642Z" fill="oklch(0.3057 0.079 256.22 / 0.13)" class="wd-expressive-accent"></path>
</g>
<path d="M3.90249 11.4757C6.76198 7.30557 12.0867 5.56868 15.8732 8.1651L28.8712 17.0782C28.8757 17.0812 28.8804 17.0839 28.8849 17.087L37.6037 23.0655C37.6981 23.1238 37.7923 23.1836 37.8849 23.2471L37.8791 23.2549L50.8732 32.1651L51.2179 32.4171C54.6749 35.1096 54.8679 40.4848 52.0978 44.5245C50.9554 46.1903 49.4191 47.4664 47.7453 48.2344L47.7521 48.2501C47.616 48.3098 47.4769 48.3618 47.3371 48.4102C45.0594 49.331 42.5702 49.3151 40.4875 48.0655L40.1281 47.835L27.6964 39.3106L15.1906 47.8702C14.3022 48.4779 13.0817 47.9796 12.8722 46.9239L12.09 42.9737L6.28726 42.4366C4.88922 42.3067 4.41991 40.4985 5.57827 39.7051L16.9347 31.9307L5.12808 23.835C1.34164 21.2386 1.04302 15.6457 3.90249 11.4757ZM49.7414 33.8145C47.4494 32.2431 43.938 32.8418 41.4621 35.4757L45.8664 38.4952C46.1597 38.6965 46.3242 39.0388 46.298 39.3936C46.2715 39.7487 46.0577 40.0641 45.7375 40.2198C45.1198 40.5199 44.5288 41.0134 44.0685 41.6846C42.8185 43.5081 43.1897 45.5183 44.339 46.3067C44.9684 46.7383 45.8133 46.8267 46.6886 46.5196C48.0808 45.9439 49.4159 44.8984 50.4484 43.3926C52.8985 39.8195 52.3317 35.5907 49.7414 33.8145ZM40.2541 37.0714C38.1555 40.5395 38.7799 44.4857 41.2589 46.1856C41.4691 46.3297 41.6902 46.4539 41.9191 46.5616C40.9128 44.8116 41.1504 42.4045 42.4191 40.5538C42.7414 40.0837 43.1143 39.6676 43.5216 39.3126L40.2541 37.0714ZM7.85073 40.5723L12.6466 41.0176C13.3081 41.079 13.8505 41.5683 13.9796 42.2198L14.6867 45.7911L25.9269 38.0967L23.2003 36.2266L17.3302 40.2452C17.1023 40.4012 16.7908 40.3432 16.6349 40.1153L16.0705 39.2901C15.9147 39.0622 15.9735 38.7507 16.2013 38.5948L21.4318 35.0147L18.7042 33.1446L7.85073 40.5723ZM36.4933 24.7296C33.8924 23.1885 29.934 24.2342 27.5646 27.6895C25.1147 31.2626 25.6814 35.4915 28.2716 37.2676L28.2658 37.2755L37.2003 43.4024C36.6333 40.8665 37.2225 37.9256 38.9025 35.4757C40.5826 33.0255 43.1137 31.4161 45.6837 31.0313L36.4933 24.7296ZM27.7345 18.7237C25.1429 16.9659 21.0086 17.9652 18.5646 21.5294C16.1146 25.1025 16.6814 29.3313 19.2716 31.1075L19.714 31.4122C19.1764 29.0173 19.6711 26.2604 21.1417 23.8965C21.2876 23.6621 21.5996 23.6047 21.8273 23.7608L22.2394 24.043L22.6525 24.3253C22.8803 24.4814 22.9363 24.7929 22.7921 25.0284C20.7799 28.314 21.2222 32.041 23.3751 33.8829C23.4101 33.9128 23.4386 33.9483 23.465 33.9844L24.216 34.4991C23.6437 31.9602 24.2323 29.0132 25.9152 26.5587C27.5921 24.1132 30.1169 22.5052 32.6818 22.1163L27.7345 18.7237ZM14.7414 9.81452C12.151 8.03851 8.00201 9.03352 5.5519 12.6065C3.10173 16.1797 3.66859 20.4094 6.25894 22.1856L15.214 28.3262C14.6466 25.7901 15.235 22.8489 16.9152 20.3985C18.595 17.9487 21.1259 16.3394 23.6955 15.9542L14.7414 9.81452Z" fill="oklch(0.3523 0 0 / 1)" class="wd-expressive-fill"></path>
</svg>