<svg role="presentation" width="56" height="56" viewBox="0 0 56 56" xmlns="http://www.w3.org/2000/svg" class="wd-expressive wd-expressive-user-megaphone">
<g>
<path d="M9.78973 34.7959C9.87764 34.7336 10 34.8075 10 34.9153V44.0002C10.0002 45.0357 10.7873 45.8872 11.7959 45.9895L12 46.0002H32.5C32.7761 46.0002 33 46.2241 33 46.5002V48.5002C33 48.7764 32.7761 49.0002 32.5 49.0002H9L8.7959 48.9895C7.78733 48.8872 7.00017 48.0357 7 47.0002V37.9153C7 37.3465 7.24049 36.8021 7.6748 36.4348C8.35544 35.8594 9.06135 35.3128 9.78973 34.7959Z" fill="oklch(0.3057 0.079 256.22 / 0.13)" class="wd-expressive-accent"></path>
<path d="M50.578 43.9336C50.821 43.972 51 44.1814 51 44.4275V47.8482C51 48.1864 50.6711 48.4271 50.3487 48.3247L32.3487 42.6109C32.1411 42.545 32 42.3522 32 42.1343V41.5854C32 41.2781 32.2745 41.0436 32.578 41.0915L50.578 43.9336Z" fill="oklch(0.3057 0.079 256.22 / 0.13)" class="wd-expressive-accent"></path>
<path d="M20.807 7.05632C21.1808 6.66943 21.7521 7.15548 21.5723 7.6625C21.202 8.70621 21 9.82953 21 11.0002C21.0002 16.5229 25.4773 21.0002 31 21.0002C32.1707 21.0002 33.2937 20.7979 34.3371 20.4273C34.8441 20.2473 35.3301 20.8184 34.9432 21.1923C33.1452 22.9301 30.6983 24.0002 28 24.0002C22.4773 24.0002 18.0002 19.5229 18 14.0002C18 11.302 19.0695 8.85464 20.807 7.05632Z" fill="oklch(0.3057 0.079 256.22 / 0.13)" class="wd-expressive-accent"></path>
</g>
<g>
<path d="M51.5 32C51.7761 32 52 32.2239 52 32.5V49.5C52 49.7761 51.7761 50 51.5 50H50.5C50.2239 50 50 49.7761 50 49.5V49.2627L43.9404 47.3389L43.4893 48.7646C43.1551 49.817 42.0315 50.3994 40.9795 50.0664L37.167 48.8574C36.1153 48.5232 35.5328 47.4002 35.8662 46.3477L36.3174 44.9199L32.875 43.8271C32.7833 43.9321 32.6503 44 32.5 44H31.5C31.2239 44 31 43.7761 31 43.5V38.5C31 38.2239 31.2239 38 31.5 38H32.5C32.6503 38 32.7833 38.0679 32.875 38.1729L50 32.7363V32.5C50 32.2239 50.2239 32 50.5 32H51.5ZM37.7725 46.9512L41.583 48.1592L42.0332 46.7334L38.2227 45.5244L37.7725 46.9512ZM33 40.2314V41.7676L43.5928 45.1299C43.5941 45.1303 43.5954 45.1304 43.5967 45.1309L50 47.1641V34.835L33 40.2314Z" fill="oklch(0.3523 0 0 / 1)" class="wd-expressive-fill"></path>
<path d="M28 28C33.009 28 37.7564 29.1343 41.9961 31.1602C42.245 31.2794 42.3456 31.58 42.2227 31.8271L41.7773 32.7227C41.6544 32.9697 41.3546 33.0698 41.1055 32.9512C37.1362 31.0595 32.6931 30 28 30C20.4988 30 13.6325 32.7071 8.32031 37.1982C8.12216 37.3658 8 37.6251 8 37.915V47C8 47.5523 8.44772 48 9 48H32.5C32.7761 48 33 48.2239 33 48.5V49.5C33 49.7761 32.7761 50 32.5 50H9C7.34315 50 6 48.6569 6 47V37.915C6 37.0672 6.35863 36.2379 7.0293 35.6709C12.689 30.886 20.0086 28 28 28Z" fill="oklch(0.3523 0 0 / 1)" class="wd-expressive-fill"></path>
<path d="M28 3C34.0751 3 39 7.92487 39 14C39 20.0751 34.0751 25 28 25C21.9249 25 17 20.0751 17 14C17 7.92487 21.9249 3 28 3ZM28 5C23.0294 5 19 9.02944 19 14C19 18.9706 23.0294 23 28 23C32.9706 23 37 18.9706 37 14C37 9.02944 32.9706 5 28 5Z" fill="oklch(0.3523 0 0 / 1)" class="wd-expressive-fill"></path>
</g>
</svg>