<svg role="presentation" width="56" height="56" viewBox="0 0 56 56" xmlns="http://www.w3.org/2000/svg" class="wd-expressive wd-expressive-data-server">
<path d="M10.5 21C10.7761 21 11 21.2239 11 21.5V31.5C11 31.7761 11.2239 32 11.5 32H47.5C47.7761 32 48 32.2239 48 32.5V34.5C48 34.7761 47.7761 35 47.5 35H10.5C10.7761 35 11 35.2239 11 35.5V45.5C11 45.7761 11.2239 46 11.5 46H47.5C47.7761 46 48 46.2239 48 46.5V48.5C48 48.7761 47.7761 49 47.5 49H8.5C8.22386 49 8 48.7761 8 48.5V35.5C8 35.2583 8.17145 35.0563 8.39941 35.0098L8.5 35C8.22386 35 8 34.7761 8 34.5V21.5C8 21.2583 8.17145 21.0563 8.39941 21.0098L8.5 21C8.22386 21 8 20.7761 8 20.5V7.5C8 7.22386 8.22386 7 8.5 7H10.5C10.7761 7 11 7.22386 11 7.5V17.5C11 17.7761 11.2239 18 11.5 18H47.5C47.7761 18 48 18.2239 48 18.5V20.5C48 20.7761 47.7761 21 47.5 21H10.5Z" fill="oklch(0.3057 0.079 256.22 / 0.13)" class="wd-expressive-accent"></path>
<g>
<path d="M16.5 43C16.7761 43 17 43.2239 17 43.5V44.5C17 44.7761 16.7761 45 16.5 45H12.5C12.2239 45 12 44.7761 12 44.5V43.5C12 43.2239 12.2239 43 12.5 43H16.5Z" fill="oklch(0.3523 0 0 / 1)" class="wd-expressive-fill"></path>
<path d="M16.5 39C16.7761 39 17 39.2239 17 39.5V40.5C17 40.7761 16.7761 41 16.5 41H12.5C12.2239 41 12 40.7761 12 40.5V39.5C12 39.2239 12.2239 39 12.5 39H16.5Z" fill="oklch(0.3523 0 0 / 1)" class="wd-expressive-fill"></path>
<path d="M16.5 29C16.7761 29 17 29.2239 17 29.5V30.5C17 30.7761 16.7761 31 16.5 31H12.5C12.2239 31 12 30.7761 12 30.5V29.5C12 29.2239 12.2239 29 12.5 29H16.5Z" fill="oklch(0.3523 0 0 / 1)" class="wd-expressive-fill"></path>
<path d="M16.5 25C16.7761 25 17 25.2239 17 25.5V26.5C17 26.7761 16.7761 27 16.5 27H12.5C12.2239 27 12 26.7761 12 26.5V25.5C12 25.2239 12.2239 25 12.5 25H16.5Z" fill="oklch(0.3523 0 0 / 1)" class="wd-expressive-fill"></path>
<path d="M16.5 15C16.7761 15 17 15.2239 17 15.5V16.5C17 16.7761 16.7761 17 16.5 17H12.5C12.2239 17 12 16.7761 12 16.5V15.5C12 15.2239 12.2239 15 12.5 15H16.5Z" fill="oklch(0.3523 0 0 / 1)" class="wd-expressive-fill"></path>
<path d="M16.5 11C16.7761 11 17 11.2239 17 11.5V12.5C17 12.7761 16.7761 13 16.5 13H12.5C12.2239 13 12 12.7761 12 12.5V11.5C12 11.2239 12.2239 11 12.5 11H16.5Z" fill="oklch(0.3523 0 0 / 1)" class="wd-expressive-fill"></path>
<path d="M47.6533 6.00781C48.4097 6.08461 49 6.72334 49 7.5V48.5C49 49.3284 48.3284 50 47.5 50H8.5C7.72334 50 7.08461 49.4097 7.00781 48.6533L7 48.5V7.5C7 6.67157 7.67157 6 8.5 6H47.5L47.6533 6.00781ZM9 48H47V36H9V48ZM9 34H47V22H9V34ZM9 20H47V8H9V20Z" fill="oklch(0.3523 0 0 / 1)" class="wd-expressive-fill"></path>
</g>
</svg>