<svg role="presentation" width="56" height="56" viewBox="0 0 56 56" xmlns="http://www.w3.org/2000/svg" class="wd-expressive wd-expressive-calendar-coin">
<g>
<path d="M50 41C50 42.6569 46.4183 44 42 44C40.6856 44 39.4456 43.8796 38.3516 43.6689C39.7873 44.4716 42.2291 45 45 45C49.4183 45 53 43.6569 53 42V46C53 46.9473 51.8287 47.791 50 48.3408V50C50 51.6569 46.4183 53 42 53C37.5817 53 34 51.6569 34 50V46C34 47.6569 37.5817 49 42 49C42.5127 49 43.0141 48.9809 43.5 48.9463C39.7987 48.683 37 47.4646 37 46V43.3408C35.1713 42.791 34 41.9473 34 41V37C34 38.6569 37.5817 40 42 40C46.4183 40 50 38.6569 50 37V41Z" fill="oklch(0.3057 0.079 256.22 / 0.13)" class="wd-expressive-accent"></path>
<path d="M47 19H10V43H29.0381C29.1171 44.0389 29.318 45.0437 29.627 46H7V12H47V19Z" fill="oklch(0.3057 0.079 256.22 / 0.13)" class="wd-expressive-accent"></path>
</g>
<g>
<path d="M42 33C44.2972 33 46.4215 33.3475 48.0078 33.9424C48.7973 34.2384 49.5062 34.615 50.0352 35.084C50.5628 35.5519 51 36.1972 51 37V38.9395C51.0026 38.9404 51.0052 38.9414 51.0078 38.9424C51.7973 39.2384 52.5062 39.615 53.0352 40.084C53.5628 40.5519 54 41.1972 54 42V46C54 46.8028 53.5628 47.4481 53.0352 47.916C52.5062 48.385 51.7973 48.7616 51.0078 49.0576C51.0053 49.0586 51.0025 49.0586 51 49.0596V50C51 50.8028 50.5628 51.4481 50.0352 51.916C49.5062 52.385 48.7973 52.7616 48.0078 53.0576C46.4215 53.6525 44.2972 54 42 54C39.7028 54 37.5785 53.6525 35.9922 53.0576C35.2027 52.7616 34.4938 52.385 33.9648 51.916C33.4372 51.4481 33 50.8028 33 50V46C33 45.1972 33.4372 44.5519 33.9648 44.084C34.2061 43.8701 34.4853 43.6766 34.792 43.5C34.4853 43.3234 34.2061 43.1299 33.9648 42.916C33.4372 42.4481 33 41.8028 33 41V37C33 36.1972 33.4372 35.5519 33.9648 35.084C34.4938 34.615 35.2027 34.2384 35.9922 33.9424C37.5785 33.3475 39.7028 33 42 33ZM35 50C35 50.0255 35.0101 50.17 35.292 50.4199C35.5727 50.6687 36.0363 50.9378 36.6943 51.1846C37.7935 51.5968 39.2922 51.8887 41 51.9727V49.9766C39.0903 49.8913 37.3454 49.5651 35.9922 49.0576C35.6425 48.9265 35.3094 48.778 35 48.6143V50ZM43 49.9766V51.9727C43.707 51.9379 44.3782 51.869 45 51.7686V50C44.4881 50 43.9848 49.9816 43.4941 49.9482C43.3308 49.9593 43.166 49.9692 43 49.9766ZM49 49.6201C48.3712 49.7477 47.7004 49.8449 47 49.9092V51.291C47.1048 51.256 47.2071 51.2215 47.3057 51.1846C47.9637 50.9378 48.4273 50.6687 48.708 50.4199C48.9899 50.17 49 50.0255 49 50V49.6201ZM48 45.791C47.059 45.9261 46.0476 46 45 46V48C46.0774 48 47.0913 47.9153 48 47.7686V45.791ZM38 46C38 46.0255 38.0101 46.17 38.292 46.4199C38.5727 46.6687 39.0363 46.9378 39.6943 47.1846C40.5732 47.5141 41.7077 47.7647 43 47.8965V45.9092C41.4833 45.7699 40.1053 45.475 38.9922 45.0576C38.6493 44.929 38.3229 44.783 38.0186 44.623C38.0124 44.6218 38.0061 44.6214 38 44.6201V46ZM52 44.6143C51.6906 44.778 51.3575 44.9265 51.0078 45.0576C50.6923 45.1759 50.3552 45.2829 50 45.3809V47.291C50.1048 47.256 50.2071 47.2215 50.3057 47.1846C50.9637 46.9378 51.4273 46.6687 51.708 46.4199C51.9899 46.17 52 46.0255 52 46V44.6143ZM36 45.1182C35.6961 45.2733 35.4609 45.4303 35.292 45.5801C35.0101 45.83 35 45.9745 35 46C35 46.0255 35.0101 46.17 35.292 46.4199C35.5029 46.6069 35.817 46.8053 36.2393 46.9971C36.0906 46.6986 36 46.3656 36 46V45.1182ZM50.9961 41.1162C50.9563 41.8652 50.5371 42.4709 50.0352 42.916C49.7769 43.145 49.4751 43.3508 49.1426 43.5371C49.5664 43.4328 49.9564 43.3155 50.3057 43.1846C50.9637 42.9378 51.4273 42.6687 51.708 42.4199C51.9899 42.17 52 42.0255 52 42C52 41.9745 51.9899 41.83 51.708 41.5801C51.5384 41.4297 51.3019 41.272 50.9961 41.1162ZM45 40.791C44.059 40.9261 43.0476 41 42 41C41.3147 41 40.6448 40.9684 40 40.9092V42.8965C40.6327 42.961 41.3029 43 42 43C43.0774 43 44.0913 42.9153 45 42.7686V40.791ZM35 41C35 41.0255 35.0101 41.17 35.292 41.4199C35.5727 41.6687 36.0363 41.9378 36.6943 42.1846C37.0823 42.3301 37.5209 42.4572 38 42.5693V40.6201C37.2671 40.4714 36.5913 40.2823 35.9922 40.0576C35.6425 39.9265 35.3094 39.778 35 39.6143V41ZM49 39.6143C48.6906 39.778 48.3575 39.9265 48.0078 40.0576C47.6923 40.1759 47.3552 40.2829 47 40.3809V42.291C47.1048 42.256 47.2071 42.2215 47.3057 42.1846C47.9637 41.9378 48.4273 41.6687 48.708 41.4199C48.9899 41.17 49 41.0255 49 41V39.6143ZM42 35C39.879 35 38.0035 35.3245 36.6943 35.8154C36.0363 36.0622 35.5727 36.3313 35.292 36.5801C35.0101 36.83 35 36.9745 35 37C35 37.0255 35.0101 37.17 35.292 37.4199C35.5727 37.6687 36.0363 37.9378 36.6943 38.1846C38.0035 38.6755 39.879 39 42 39C44.121 39 45.9965 38.6755 47.3057 38.1846C47.9637 37.9378 48.4273 37.6687 48.708 37.4199C48.9899 37.17 49 37.0255 49 37C49 36.9745 48.9899 36.83 48.708 36.5801C48.4273 36.3313 47.9637 36.0622 47.3057 35.8154C45.9965 35.3245 44.121 35 42 35Z" fill="oklch(0.3523 0 0 / 1)" class="wd-expressive-fill"></path>
<path d="M40 5C41.6569 5 43 6.34315 43 8V9H47C48.6569 9 50 10.3431 50 12V29.5C50 29.7761 49.7761 30 49.5 30H48.5C48.2239 30 48 29.7761 48 29.5V20H8V44C8 44.5523 8.44772 45 9 45H27.2998C27.3024 45.0127 27.305 45.0254 27.3076 45.0381C27.3668 45.0134 27.4319 45 27.5 45H29.5C29.7761 45 30 45.2239 30 45.5V46.5C30 46.7761 29.7761 47 29.5 47H9C7.34315 47 6 45.6569 6 44V12C6 10.3431 7.34315 9 9 9H13V8C13 6.34315 14.3431 5 16 5C17.6569 5 19 6.34315 19 8V9H37V8C37 6.34315 38.3431 5 40 5ZM9 11C8.44772 11 8 11.4477 8 12V18H48V12C48 11.4477 47.5523 11 47 11H43C43 12.6569 41.6569 14 40 14C38.3949 14 37.0842 12.7394 37.0039 11.1543L37 11H19C19 12.6569 17.6569 14 16 14C14.3949 14 13.0842 12.7394 13.0039 11.1543L13 11H9ZM16 7C15.4477 7 15 7.44772 15 8V11L15.0049 11.1025C15.0562 11.6067 15.4823 12 16 12C16.5523 12 17 11.5523 17 11V8C17 7.44772 16.5523 7 16 7ZM40 7C39.4477 7 39 7.44772 39 8V11L39.0049 11.1025C39.0562 11.6067 39.4823 12 40 12C40.5523 12 41 11.5523 41 11V8C41 7.44772 40.5523 7 40 7Z" fill="oklch(0.3523 0 0 / 1)" class="wd-expressive-fill"></path>
<path d="M14 37.75C14.9665 37.75 15.75 38.5335 15.75 39.5C15.75 40.4665 14.9665 41.25 14 41.25C13.0335 41.25 12.25 40.4665 12.25 39.5C12.25 38.5335 13.0335 37.75 14 37.75Z" fill="oklch(0.3523 0 0 / 1)" class="wd-expressive-fill"></path>
<path d="M21 37.75C21.9665 37.75 22.75 38.5335 22.75 39.5C22.75 40.4665 21.9665 41.25 21 41.25C20.0335 41.25 19.25 40.4665 19.25 39.5C19.25 38.5335 20.0335 37.75 21 37.75Z" fill="oklch(0.3523 0 0 / 1)" class="wd-expressive-fill"></path>
<path d="M28 37.75C28.9665 37.75 29.75 38.5335 29.75 39.5C29.75 40.4665 28.9665 41.25 28 41.25C27.0335 41.25 26.25 40.4665 26.25 39.5C26.25 38.5335 27.0335 37.75 28 37.75Z" fill="oklch(0.3523 0 0 / 1)" class="wd-expressive-fill"></path>
<path d="M14 32.75C14.9665 32.75 15.75 33.5335 15.75 34.5C15.75 35.4665 14.9665 36.25 14 36.25C13.0335 36.25 12.25 35.4665 12.25 34.5C12.25 33.5335 13.0335 32.75 14 32.75Z" fill="oklch(0.3523 0 0 / 1)" class="wd-expressive-fill"></path>
<path d="M21 32.75C21.9665 32.75 22.75 33.5335 22.75 34.5C22.75 35.4665 21.9665 36.25 21 36.25C20.0335 36.25 19.25 35.4665 19.25 34.5C19.25 33.5335 20.0335 32.75 21 32.75Z" fill="oklch(0.3523 0 0 / 1)" class="wd-expressive-fill"></path>
<path d="M28 32.75C28.9665 32.75 29.75 33.5335 29.75 34.5C29.75 35.4665 28.9665 36.25 28 36.25C27.0335 36.25 26.25 35.4665 26.25 34.5C26.25 33.5335 27.0335 32.75 28 32.75Z" fill="oklch(0.3523 0 0 / 1)" class="wd-expressive-fill"></path>
<path d="M14 27.75C14.9665 27.75 15.75 28.5335 15.75 29.5C15.75 30.4665 14.9665 31.25 14 31.25C13.0335 31.25 12.25 30.4665 12.25 29.5C12.25 28.5335 13.0335 27.75 14 27.75Z" fill="oklch(0.3523 0 0 / 1)" class="wd-expressive-fill"></path>
<path d="M21 27.75C21.9665 27.75 22.75 28.5335 22.75 29.5C22.75 30.4665 21.9665 31.25 21 31.25C20.0335 31.25 19.25 30.4665 19.25 29.5C19.25 28.5335 20.0335 27.75 21 27.75Z" fill="oklch(0.3523 0 0 / 1)" class="wd-expressive-fill"></path>
<path d="M28 27.75C28.9665 27.75 29.75 28.5335 29.75 29.5C29.75 30.4665 28.9665 31.25 28 31.25C27.0335 31.25 26.25 30.4665 26.25 29.5C26.25 28.5335 27.0335 27.75 28 27.75Z" fill="oklch(0.3523 0 0 / 1)" class="wd-expressive-fill"></path>
<path d="M35 27.75C35.9665 27.75 36.75 28.5335 36.75 29.5C36.75 30.4665 35.9665 31.25 35 31.25C34.0335 31.25 33.25 30.4665 33.25 29.5C33.25 28.5335 34.0335 27.75 35 27.75Z" fill="oklch(0.3523 0 0 / 1)" class="wd-expressive-fill"></path>
<path d="M42 27.75C42.9665 27.75 43.75 28.5335 43.75 29.5C43.75 30.4665 42.9665 31.25 42 31.25C41.0335 31.25 40.25 30.4665 40.25 29.5C40.25 28.5335 41.0335 27.75 42 27.75Z" fill="oklch(0.3523 0 0 / 1)" class="wd-expressive-fill"></path>
<path d="M35 22.75C35.9665 22.75 36.75 23.5335 36.75 24.5C36.75 25.4665 35.9665 26.25 35 26.25C34.0335 26.25 33.25 25.4665 33.25 24.5C33.25 23.5335 34.0335 22.75 35 22.75Z" fill="oklch(0.3523 0 0 / 1)" class="wd-expressive-fill"></path>
<path d="M42 22.75C42.9665 22.75 43.75 23.5335 43.75 24.5C43.75 25.4665 42.9665 26.25 42 26.25C41.0335 26.25 40.25 25.4665 40.25 24.5C40.25 23.5335 41.0335 22.75 42 22.75Z" fill="oklch(0.3523 0 0 / 1)" class="wd-expressive-fill"></path>
</g>
</svg>