<svg role="presentation" width="56" height="56" viewBox="0 0 56 56" xmlns="http://www.w3.org/2000/svg" class="wd-expressive wd-expressive-clipboard-chart-compass">
<g>
<path d="M34.6016 36.5723C34.2116 37.6413 34 38.796 34 40C34 45.5228 38.4772 50 44 50C47.5217 50 50.6159 48.178 52.3975 45.4268C50.9986 49.2619 47.3191 52 43 52C37.4772 52 33 47.5228 33 42C33 39.9988 33.5891 38.1356 34.6016 36.5723Z" fill="oklch(0.3057 0.079 256.22 / 0.13)" class="wd-expressive-accent"></path>
<path d="M13 44H29.1426C29.4585 46.2083 30.2899 48.2499 31.5107 50H9C9.00003 46.5858 9.70793 43.2042 11.084 40.0498C11.6253 38.809 12.2674 37.6133 13 36.4717V44Z" fill="oklch(0.3057 0.079 256.22 / 0.13)" class="wd-expressive-accent"></path>
<path d="M48.6123 38.2188C49.068 38.1429 49.3746 38.6735 49.0811 39.0303L45.2148 43.7295C44.754 44.2896 44.1051 44.6642 43.3896 44.7832L37.3867 45.7822C36.931 45.858 36.6254 45.3275 36.9189 44.9707L40.7852 40.2715C41.2459 39.7114 41.894 39.3368 42.6094 39.2178L48.6123 38.2188Z" fill="oklch(0.3057 0.079 256.22 / 0.13)" class="wd-expressive-accent"></path>
<path d="M21 39H17V29H21V39Z" fill="oklch(0.3057 0.079 256.22 / 0.13)" class="wd-expressive-accent"></path>
<path d="M27 39H23V23H27V39Z" fill="oklch(0.3057 0.079 256.22 / 0.13)" class="wd-expressive-accent"></path>
<path d="M33 32.2031C31.1939 34.0464 29.8939 36.3866 29.3232 39H29V31H33V32.2031Z" fill="oklch(0.3057 0.079 256.22 / 0.13)" class="wd-expressive-accent"></path>
<path d="M43 28C41.6099 28 40.2675 28.2038 39 28.5811V21.1406C40.031 21.0453 41.0337 21 42 21H43V28Z" fill="oklch(0.3057 0.079 256.22 / 0.13)" class="wd-expressive-accent"></path>
<path d="M26 3C27.9339 3 29.6107 4.09857 30.4424 5.70508C30.5338 5.88125 30.7116 6 30.9102 6H34.5C34.7761 6 35 6.22386 35 6.5V12.5C34.9999 12.776 34.7761 13 34.5 13H17.5C17.2239 13 17.0001 12.776 17 12.5V6.5C17 6.22386 17.2239 6 17.5 6H21.0898C21.2884 6 21.4662 5.88125 21.5576 5.70508C22.3893 4.09857 24.0661 3 26 3Z" fill="oklch(0.3057 0.079 256.22 / 0.13)" class="wd-expressive-accent"></path>
</g>
<g>
<path d="M47.7441 37.7383C48.9283 37.7019 49.686 39.0141 49.0625 40.0215L48.9951 40.1221L46.0918 44.1094C45.4261 45.0237 44.404 45.6132 43.2793 45.7324L38.375 46.2529C37.0824 46.3896 36.239 44.9289 37.0039 43.8779L39.9062 39.8906C40.5718 38.9763 41.5942 38.386 42.7188 38.2666L47.624 37.7471L47.7441 37.7383ZM42.1416 40.5127C41.9018 40.6511 41.6899 40.8397 41.5234 41.0684L39.2832 44.1455L43.0684 43.7441C43.3496 43.7143 43.6187 43.6257 43.8584 43.4873L42.1416 40.5127Z" fill="oklch(0.3523 0 0 / 1)" class="wd-expressive-fill"></path>
<path d="M43 31C49.0751 31 54 35.9249 54 42C54 48.0751 49.0751 53 43 53C36.9249 53 32 48.0751 32 42C32 35.9249 36.9249 31 43 31ZM43 33C40.0266 33 37.3907 34.4424 35.752 36.665L37.0068 37.3896C37.2459 37.5277 37.3283 37.8331 37.1904 38.0723L36.6904 38.9385C36.5524 39.1776 36.246 39.2592 36.0068 39.1211L34.752 38.3965C34.2692 39.5 34 40.7184 34 42C34 44.9749 35.4443 47.6114 37.6689 49.25L38.3936 47.9971C38.5316 47.7579 38.838 47.6764 39.0771 47.8145L39.9434 48.3145C40.1821 48.4526 40.264 48.7581 40.126 48.9971L39.4023 50.25C40.5044 50.7312 41.7206 51 43 51C45.9747 51 48.6104 49.5554 50.249 47.3311L49.0029 46.6123C48.7638 46.4742 48.6822 46.1679 48.8203 45.9287L49.3203 45.0635C49.4584 44.8243 49.7638 44.7418 50.0029 44.8799L51.249 45.5986C51.7306 44.4963 52 43.2798 52 42C52 39.0276 50.5583 36.3928 48.3369 34.7539L47.6162 36.002C47.4782 36.2409 47.1727 36.3232 46.9336 36.1855L46.0674 35.6855C45.8282 35.5475 45.7457 35.2411 45.8838 35.002L46.6045 33.7529C45.5007 33.2698 44.282 33 43 33Z" fill="oklch(0.3523 0 0 / 1)" class="wd-expressive-fill"></path>
<path d="M26 2C28.2218 2 30.1561 3.20968 31.1924 5H34.5C35.1529 5 35.707 5.41766 35.9131 6H41C42.6568 6.00001 44 7.34315 44 9V28.5C44 28.7761 43.7761 29 43.5 29H42.5C42.2239 29 42 28.7761 42 28.5V9C42 8.44772 41.5523 8.00001 41 8H36V10H39C39.2652 10 39.5195 10.1054 39.707 10.293C39.8946 10.4805 40 10.7348 40 11V29.5C40 29.7761 39.7761 30 39.5 30H38.5C38.2239 30 38 29.7761 38 29.5V12H36V12.5C36 13.3284 35.3284 14 34.5 14H17.5C16.6716 14 16 13.3284 16 12.5V12H14V43H29.5C29.7761 43 30 43.2239 30 43.5V44.5C30 44.7761 29.7761 45 29.5 45H13C12.7348 45 12.4805 44.8946 12.293 44.707C12.1054 44.5195 12 44.2652 12 44V11C12 10.4478 12.4478 10.0001 13 10H16V8H11C10.4478 8.00011 10 8.44778 10 9V48C10 48.5523 10.4477 49 11 49H31.5C31.7761 49 32 49.2239 32 49.5V50.5C32 50.7761 31.7761 51 31.5 51H11C9.34315 51 8 49.6568 8 48V9C8.00001 7.34322 9.34324 6.00011 11 6H16.0869C16.293 5.41766 16.8471 5 17.5 5H20.8076C21.8439 3.20968 23.7782 2 26 2ZM26 4C24.4548 4 23.1131 4.8764 22.4463 6.16406C22.2004 6.63899 21.6985 7 21.0898 7H18V12H34V7H30.9102C30.3015 7 29.7996 6.63899 29.5537 6.16406C28.8869 4.8764 27.5452 4 26 4Z" fill="oklch(0.3523 0 0 / 1)" class="wd-expressive-fill"></path>
<path d="M29 20C29.5523 20 30 20.4477 30 21V28H35.5C35.7761 28 36 28.2239 36 28.5V29.5C36 29.7761 35.7761 30 35.5 30H30V39C30 39.5523 29.5523 40 29 40H17C16.7348 40 16.4805 39.8946 16.293 39.707C16.1054 39.5195 16 39.2652 16 39V27C16 26.7348 16.1054 26.4805 16.293 26.293C16.4805 26.1054 16.7348 26 17 26H22V21C22 20.4477 22.4477 20 23 20H29ZM18 38H22V28H18V38ZM24 38H28V22H24V38Z" fill="oklch(0.3523 0 0 / 1)" class="wd-expressive-fill"></path>
</g>
</svg>