<svg role="presentation" width="56" height="56" viewBox="0 0 56 56" xmlns="http://www.w3.org/2000/svg" class="wd-expressive wd-expressive-circle">
<path d="M28 3C41.8071 3 53 14.1929 53 28C53 41.8071 41.8071 53 28 53C14.1929 53 3 41.8071 3 28C3 14.1929 14.1929 3 28 3ZM28 11C18.6112 11 11 18.6112 11 28C11 37.3888 18.6112 45 28 45C37.3888 45 45 37.3888 45 28C45 18.6112 37.3888 11 28 11Z" fill="oklch(0.3057 0.079 256.22 / 0.13)" class="wd-expressive-accent"></path>
<path d="M28 10C37.9411 10 46 18.0589 46 28C46 37.9411 37.9411 46 28 46C18.0589 46 10 37.9411 10 28C10 18.0589 18.0589 10 28 10ZM28 12C19.1634 12 12 19.1634 12 28C12 36.8366 19.1634 44 28 44C36.8366 44 44 36.8366 44 28C44 19.1634 36.8366 12 28 12Z" fill="oklch(0.3523 0 0 / 1)" class="wd-expressive-fill"></path>
</svg>