<svg role="presentation" width="56" height="56" viewBox="0 0 56 56" xmlns="http://www.w3.org/2000/svg" class="wd-expressive wd-expressive-mail-template">
<g>
<path d="M14 26.6992L9.96191 24.2197C13.0104 35.0559 22.9646 42.9999 34.7754 43H49V46.5C48.9998 46.776 48.776 47 48.5 47H7.5C7.22397 47 7.00018 46.776 7 46.5V22L14 16.666V26.6992Z" fill="oklch(0.3057 0.079 256.22 / 0.13)" class="wd-expressive-accent"></path>
<path d="M49 22V22.4004L42 26.7002V16.666L49 22Z" fill="oklch(0.3057 0.079 256.22 / 0.13)" class="wd-expressive-accent"></path>
<path d="M27.5 10C28.3284 10 29 10.6716 29 11.5V19.5C29 20.3284 28.3284 21 27.5 21H19.5C18.6716 21 18 20.3284 18 19.5V11.5C18 10.6716 18.6716 10 19.5 10H27.5Z" fill="oklch(0.3057 0.079 256.22 / 0.13)" class="wd-expressive-accent"></path>
</g>
<g>
<path d="M37.5 23C37.7761 23 38 23.2239 38 23.5V24.5C38 24.7761 37.7761 25 37.5 25H18.5C18.2239 25 18 24.7761 18 24.5V23.5C18 23.2239 18.2239 23 18.5 23H37.5Z" fill="oklch(0.3523 0 0 / 1)" class="wd-expressive-fill"></path>
<path d="M19.5 18C19.7761 18 20 18.2239 20 18.5V19H20.5C20.7761 19 21 19.2239 21 19.5V20.5C21 20.7761 20.7761 21 20.5 21H19.5C18.6716 21 18 20.3284 18 19.5V18.5C18 18.2239 18.2239 18 18.5 18H19.5Z" fill="oklch(0.3523 0 0 / 1)" class="wd-expressive-fill"></path>
<path d="M24.5 19C24.7761 19 25 19.2239 25 19.5V20.5C25 20.7761 24.7761 21 24.5 21H22.5C22.2239 21 22 20.7761 22 20.5V19.5C22 19.2239 22.2239 19 22.5 19H24.5Z" fill="oklch(0.3523 0 0 / 1)" class="wd-expressive-fill"></path>
<path d="M28.5 18C28.7761 18 29 18.2239 29 18.5V19.5C29 20.3284 28.3284 21 27.5 21H26.5C26.2239 21 26 20.7761 26 20.5V19.5C26 19.2239 26.2239 19 26.5 19H27V18.5C27 18.2239 27.2239 18 27.5 18H28.5Z" fill="oklch(0.3523 0 0 / 1)" class="wd-expressive-fill"></path>
<path d="M37.5 19C37.7761 19 38 19.2239 38 19.5V20.5C38 20.7761 37.7761 21 37.5 21H31.5C31.2239 21 31 20.7761 31 20.5V19.5C31 19.2239 31.2239 19 31.5 19H37.5Z" fill="oklch(0.3523 0 0 / 1)" class="wd-expressive-fill"></path>
<path d="M19.5 14C19.7761 14 20 14.2239 20 14.5V16.5C20 16.7761 19.7761 17 19.5 17H18.5C18.2239 17 18 16.7761 18 16.5V14.5C18 14.2239 18.2239 14 18.5 14H19.5Z" fill="oklch(0.3523 0 0 / 1)" class="wd-expressive-fill"></path>
<path d="M28.5 14C28.7761 14 29 14.2239 29 14.5V16.5C29 16.7761 28.7761 17 28.5 17H27.5C27.2239 17 27 16.7761 27 16.5V14.5C27 14.2239 27.2239 14 27.5 14H28.5Z" fill="oklch(0.3523 0 0 / 1)" class="wd-expressive-fill"></path>
<path d="M37.5 15C37.7761 15 38 15.2239 38 15.5V16.5C38 16.7761 37.7761 17 37.5 17H31.5C31.2239 17 31 16.7761 31 16.5V15.5C31 15.2239 31.2239 15 31.5 15H37.5Z" fill="oklch(0.3523 0 0 / 1)" class="wd-expressive-fill"></path>
<path d="M20.5 10C20.7761 10 21 10.2239 21 10.5V11.5C21 11.7761 20.7761 12 20.5 12H20V12.5C20 12.7761 19.7761 13 19.5 13H18.5C18.2239 13 18 12.7761 18 12.5V11.5C18 10.6716 18.6716 10 19.5 10H20.5Z" fill="oklch(0.3523 0 0 / 1)" class="wd-expressive-fill"></path>
<path d="M27.5 10C28.3284 10 29 10.6716 29 11.5V12.5C29 12.7761 28.7761 13 28.5 13H27.5C27.2239 13 27 12.7761 27 12.5V12H26.5C26.2239 12 26 11.7761 26 11.5V10.5C26 10.2239 26.2239 10 26.5 10H27.5Z" fill="oklch(0.3523 0 0 / 1)" class="wd-expressive-fill"></path>
<path d="M37.5 11C37.7761 11 38 11.2239 38 11.5V12.5C38 12.7761 37.7761 13 37.5 13H31.5C31.2239 13 31 12.7761 31 12.5V11.5C31 11.2239 31.2239 11 31.5 11H37.5Z" fill="oklch(0.3523 0 0 / 1)" class="wd-expressive-fill"></path>
<path d="M24.5 10C24.7761 10 25 10.2239 25 10.5V11.5C25 11.7761 24.7761 12 24.5 12H22.5C22.2239 12 22 11.7761 22 11.5V10.5C22 10.2239 22.2239 10 22.5 10H24.5Z" fill="oklch(0.3523 0 0 / 1)" class="wd-expressive-fill"></path>
<path d="M40 5C41.6569 5 43 6.34315 43 8V16.1719L49.4092 21.0547C49.7814 21.3384 50 21.78 50 22.248V46.5C50 47.3284 49.3284 48 48.5 48H7.5C6.67157 48 6 47.3284 6 46.5V22.248C6 21.78 6.21855 21.3384 6.59082 21.0547L13 16.1719V8C13 6.34315 14.3431 5 16 5H40ZM8.41406 46H47.5859L33.5859 32H22.4141L8.41406 46ZM8 43.5859L20.0156 31.5693L8 24.1885V43.5859ZM35.9834 31.5693L48 43.5859V24.1885L35.9834 31.5693ZM16 7C15.4477 7 15 7.44772 15 8V26.1396L21.2832 30H34.7168L41 26.1396V8C41 7.44772 40.5523 7 40 7H16ZM8.47461 22.1318L13 24.9111V18.6846L8.47461 22.1318ZM43 24.9111L47.5244 22.1318L43 18.6846V24.9111Z" fill="oklch(0.3523 0 0 / 1)" class="wd-expressive-fill"></path>
</g>
</svg>