<svg role="presentation" width="56" height="56" viewBox="0 0 56 56" xmlns="http://www.w3.org/2000/svg" class="wd-expressive wd-expressive-ballot-box">
<g>
<path d="M34.0002 45H22.0002V40H34.0002V45Z" fill="oklch(0.3057 0.079 256.22 / 0.13)" class="wd-expressive-accent"></path>
<path d="M23.0002 22H36.0002V18H39.9328C40.0759 18.0001 40.212 18.0617 40.3068 18.1689L48.2648 27.1689C48.55 27.4916 48.3212 27.9996 47.8908 28H8.10954C7.67884 28 7.4495 27.4917 7.73454 27.1689L15.6926 18.1689C15.7875 18.0616 15.9243 18 16.0676 18H20.0002V5H23.0002V22Z" fill="oklch(0.3057 0.079 256.22 / 0.13)" class="wd-expressive-accent"></path>
</g>
<g>
<path d="M31.5 39C33.433 39 35 40.567 35 42.5C35 44.433 33.433 46 31.5 46H24.5C22.567 46 21 44.433 21 42.5C21 40.567 22.567 39 24.5 39H31.5ZM24.5 41C23.6716 41 23 41.6716 23 42.5C23 43.3284 23.6716 44 24.5 44H31.5C32.3284 44 33 43.3284 33 42.5C33 41.6716 32.3284 41 31.5 41H24.5Z" fill="oklch(0.3523 0 0 / 1)" class="wd-expressive-fill"></path>
<path d="M29.5 13C29.7761 13 30 13.2239 30 13.5V14.5C30 14.7761 29.7761 15 29.5 15H23.5C23.2239 15 23 14.7761 23 14.5V13.5C23 13.2239 23.2239 13 23.5 13H29.5Z" fill="oklch(0.3523 0 0 / 1)" class="wd-expressive-fill"></path>
<path d="M32.5 9C32.7761 9 33 9.22386 33 9.5V10.5C33 10.7761 32.7761 11 32.5 11H23.5C23.2239 11 23 10.7761 23 10.5V9.5C23 9.22386 23.2239 9 23.5 9H32.5Z" fill="oklch(0.3523 0 0 / 1)" class="wd-expressive-fill"></path>
<path d="M35 4C36.1046 4 37 4.89543 37 6V17H39.9326C40.3089 17 40.6694 17.1413 40.9443 17.3926L41.0566 17.5068L49.624 27.1953C49.8665 27.4695 50 27.8234 50 28.1895V33.5C50 34.3284 49.3284 35 48.5 35H48V50.5C48 51.3284 47.3284 52 46.5 52H9.5C8.67157 52 8 51.3284 8 50.5V35H7.5C6.67157 35 6 34.3284 6 33.5V28.1895C6 27.8234 6.13352 27.4695 6.37598 27.1953L14.9434 17.5068C15.2281 17.1848 15.6376 17 16.0674 17H19V6C19 4.89543 19.8954 4 21 4H35ZM10 50H46V35H10V50ZM8 33H48V29H8V33ZM16.293 19L9.21973 27H46.7803L39.707 19H37V21H38.5C38.7761 21 39 21.2239 39 21.5V22.5C39 22.7761 38.7761 23 38.5 23H17.5C17.2239 23 17 22.7761 17 22.5V21.5C17 21.2239 17.2239 21 17.5 21H19V19H16.293ZM21 21H35V6H21V21Z" fill="oklch(0.3523 0 0 / 1)" class="wd-expressive-fill"></path>
</g>
</svg>