<svg role="presentation" width="56" height="56" viewBox="0 0 56 56" xmlns="http://www.w3.org/2000/svg" class="wd-expressive wd-expressive-card-community">
<g>
<path d="M28 3C31.7844 3 35.372 3.84161 38.5869 5.34668C37.6106 6.2592 37 7.55818 37 9C37 11.6522 38.1588 14.1959 40.2217 16.0713C40.6934 16.5001 41.2046 16.884 41.7461 17.2236C41.9007 17.3206 42.0973 17.3205 42.252 17.2236C42.7964 16.8824 43.3084 16.4985 43.7783 16.0713C44.7997 15.1427 45.6103 14.0404 46.1631 12.8271C46.3764 12.359 46.5483 11.8775 46.6807 11.3877C49.7475 14.8339 51.8743 19.1336 52.6611 23.8867C52.3021 23.3521 51.6924 23 51 23H39C37.8954 23 37 23.8954 37 25V31C37 32.1046 37.8954 33 39 33H51C51.6927 33 52.3022 32.6473 52.6611 32.1123C52.0918 35.5519 50.8214 38.754 49 41.5674V41C49 39.8954 48.1046 39 47 39H38C36.8954 39 36 39.8954 36 41V46C36 47.1046 36.8954 48 38 48H43.001C38.8224 51.1391 33.6287 53 28 53C21.2624 53 15.1481 50.3338 10.6523 46H29C30.1046 46 31 45.1046 31 44V13C31 11.8954 30.1046 11 29 11H9.67188C14.2375 6.07997 20.7586 3 28 3Z" fill="oklch(0.3057 0.079 256.22 / 0.13)" class="wd-expressive-accent"></path>
<path d="M15.001 34C17.6848 34.0002 20.134 35.0072 21.9902 36.6641C20.5213 37.5119 18.8179 38 17 38C14.3167 37.9999 11.882 36.9409 10.0859 35.2207C11.5524 34.4424 13.2252 34 15.001 34Z" fill="oklch(0.3057 0.079 256.22 / 0.13)" class="wd-expressive-accent"></path>
<path d="M15.001 25C16.6575 25.0004 18.001 26.3434 18.001 28C18.001 28.3028 17.9536 28.5946 17.8701 28.8701C17.5947 28.9535 17.3026 29 17 29C15.3433 28.9999 14 27.6568 14 26C14 25.697 14.0454 25.4046 14.1289 25.1289C14.4047 25.0453 14.6979 25 15.001 25Z" fill="oklch(0.3057 0.079 256.22 / 0.13)" class="wd-expressive-accent"></path>
</g>
<g>
<path d="M17.9131 49.2256C18.0315 48.9761 18.3291 48.8705 18.5811 48.9834C23.2535 51.0807 28.4941 51.5576 33.4688 50.3398C33.737 50.2742 34.0116 50.4324 34.083 50.6992L34.2119 51.1826L34.3418 51.665C34.4131 51.9317 34.2543 52.2073 33.9863 52.2734C28.5525 53.6134 22.8245 53.0898 17.7227 50.7891C17.4712 50.6754 17.3659 50.3762 17.4844 50.127L17.9131 49.2256Z" fill="oklch(0.3523 0 0 / 1)" class="wd-expressive-fill"></path>
<path d="M45.5 42C45.7761 42 46 42.2239 46 42.5V43.5C46 43.7761 45.7761 44 45.5 44H39.5C39.2239 44 39 43.7761 39 43.5V42.5C39 42.2239 39.2239 42 39.5 42H45.5Z" fill="oklch(0.3523 0 0 / 1)" class="wd-expressive-fill"></path>
<path d="M47 38C48.6568 38 49.9999 39.3432 50 41V46C50 46.8899 49.6109 47.6845 49 48.2314V51C49 51.2748 48.8871 51.5377 48.6875 51.7266C48.4879 51.9154 48.2187 52.0132 47.9443 51.998C46.7023 51.9292 45.4781 51.4195 44.5293 50.4707C44.0904 50.0317 43.7479 49.5321 43.4971 49H38C36.3431 49 35 47.6569 35 46V41C35.0001 39.3432 36.3432 38 38 38H47ZM38 40C37.4477 40 37.0001 40.4478 37 41V46C37 46.5177 37.3933 46.9438 37.8975 46.9951L38 47H44.1777C44.563 47 44.909 47.2203 45.0752 47.5576L45.1348 47.71C45.2844 48.2024 45.5527 48.666 45.9434 49.0566C46.2557 49.369 46.6163 49.6015 47 49.7598V47.7295C47 47.3728 47.1904 47.0431 47.499 46.8643C47.7644 46.7104 47.9493 46.4442 47.9912 46.1348L48 46V41C47.9999 40.4478 47.5523 40 47 40H38Z" fill="oklch(0.3523 0 0 / 1)" class="wd-expressive-fill"></path>
<path d="M17 22C19.2091 22 20.9999 23.7909 21 26C21 28.2091 19.2091 30 17 30C14.7909 30 13 28.2091 13 26C13.0001 23.7909 14.7909 22 17 22ZM17 24C15.8955 24 15.0001 24.8955 15 26C15 27.1046 15.8954 28 17 28C18.1046 28 19 27.1046 19 26C18.9999 24.8955 18.1045 24 17 24Z" fill="oklch(0.3523 0 0 / 1)" class="wd-expressive-fill"></path>
<path d="M17 17C23.0751 17 27.9999 21.9249 28 28C28 34.0751 23.0751 39 17 39C10.9249 39 6 34.0751 6 28C6.00005 21.9249 10.9249 17 17 17ZM17 33C14.842 33 12.8538 33.7188 11.2588 34.9307C12.8169 36.2229 14.8176 37 17 37C19.1822 37 21.1822 36.2226 22.7402 34.9307C21.1453 33.719 19.1577 33 17 33ZM17 19C12.0295 19 8.00005 23.0295 8 28C8 30.0642 8.69655 31.965 9.86523 33.4834C11.8257 31.9303 14.3048 31 17 31C19.6949 31 22.1734 31.9306 24.1338 33.4834C25.3027 31.9649 26 30.0644 26 28C25.9999 23.0295 21.9705 19 17 19Z" fill="oklch(0.3523 0 0 / 1)" class="wd-expressive-fill"></path>
<path d="M29 10C30.6568 10 31.9999 11.3432 32 13V44C32 45.6569 30.6569 47 29 47H5C3.34315 47 2 45.6569 2 44V13C2.00005 11.3432 3.34318 10 5 10H29ZM5 12C4.44775 12 4.00005 12.4478 4 13V44C4 44.5523 4.44772 45 5 45H29C29.5523 45 30 44.5523 30 44V13C29.9999 12.4478 29.5523 12 29 12H5Z" fill="oklch(0.3523 0 0 / 1)" class="wd-expressive-fill"></path>
<path d="M42 26C43.1046 26 44 26.8954 44 28C44 29.1046 43.1046 30 42 30C40.8954 30 40 29.1046 40 28C40 26.8954 40.8954 26 42 26Z" fill="oklch(0.3523 0 0 / 1)" class="wd-expressive-fill"></path>
<path d="M49.5 27C49.7761 27 50 27.2239 50 27.5V28.5C50 28.7761 49.7761 29 49.5 29H45.5C45.2239 29 45 28.7761 45 28.5V27.5C45 27.2239 45.2239 27 45.5 27H49.5Z" fill="oklch(0.3523 0 0 / 1)" class="wd-expressive-fill"></path>
<path d="M51 22C52.6568 22 53.9999 23.3432 54 25V31C54 32.6569 52.6569 34 51 34H39C37.3431 34 36 32.6569 36 31V25C36.0001 23.3432 37.3432 22 39 22H51ZM39 24C38.4477 24 38.0001 24.4478 38 25V31C38 31.5523 38.4477 32 39 32H51C51.5523 32 52 31.5523 52 31V25C51.9999 24.4478 51.5523 24 51 24H39Z" fill="oklch(0.3523 0 0 / 1)" class="wd-expressive-fill"></path>
<path d="M42 7C43.1045 7 43.9999 7.89547 44 9C44 10.1046 43.1046 11 42 11C40.8954 11 40 10.1046 40 9C40.0001 7.89547 40.8955 7 42 7Z" fill="oklch(0.3523 0 0 / 1)" class="wd-expressive-fill"></path>
<path d="M42 3C45.3137 3 47.9999 5.68634 48 9L47.9854 9.5459C47.9166 10.8171 47.6081 12.0683 47.0732 13.2422C46.4622 14.5832 45.5691 15.7952 44.4512 16.8115C43.9347 17.281 43.3748 17.7006 42.7832 18.0713C42.3038 18.3717 41.6944 18.372 41.2148 18.0713C40.6259 17.7019 40.0668 17.2824 39.5488 16.8115C37.3602 14.8218 36.0818 12.1246 36.0039 9.27637L36 9C36.0001 5.68634 38.6863 3 42 3ZM42 5C39.7909 5 38.0001 6.7909 38 9L38.0117 9.44043C38.1315 11.6372 39.1448 13.7403 40.8945 15.3311C41.2388 15.644 41.6089 15.9307 41.999 16.1934C42.3916 15.9295 42.7624 15.6429 43.1055 15.3311C44.0302 14.4904 44.7584 13.4974 45.2529 12.4121C45.7471 11.3273 46 10.168 46 9C45.9999 6.7909 44.2091 5 42 5Z" fill="oklch(0.3523 0 0 / 1)" class="wd-expressive-fill"></path>
<path d="M24.5215 3.24316C27.6799 2.7994 30.8927 2.96461 33.9863 3.72754C34.2544 3.7937 34.4133 4.06826 34.3418 4.33496L34.082 5.30078C34.0105 5.56735 33.7369 5.72571 33.4688 5.66016C30.6346 4.96638 27.6923 4.81724 24.7998 5.22363C21.9073 5.6301 19.1193 6.58326 16.5859 8.03125C16.3465 8.16797 16.0398 8.0926 15.8975 7.85645L15.3818 6.99902C15.24 6.76249 15.3166 6.4549 15.5557 6.31738C18.3194 4.73128 21.363 3.687 24.5215 3.24316Z" fill="oklch(0.3523 0 0 / 1)" class="wd-expressive-fill"></path>
</g>
</svg>