<svg role="presentation" width="56" height="56" viewBox="0 0 56 56" xmlns="http://www.w3.org/2000/svg" class="wd-expressive wd-expressive-search">
<g>
<path d="M18.9136 39.748L8.41364 50.248C7.63266 51.0285 6.36642 51.0286 5.58552 50.248C4.80466 49.4672 4.80499 48.201 5.58552 47.4199L16.0855 36.9199L18.9136 39.748Z" fill="oklch(0.3057 0.079 256.22 / 0.13)" class="wd-expressive-accent"></path>
<path d="M20.0894 10.5762C18.7559 13.0896 18.0006 15.9565 18.0006 19C18.0006 28.9411 26.0594 37 36.0006 37C41.603 36.9999 46.6066 34.4394 49.9078 30.4258C46.8853 36.1204 40.8969 39.9999 34.0006 40C24.0594 40 16.0006 31.9411 16.0006 22C16.0006 17.6627 17.5343 13.6839 20.0894 10.5762Z" fill="oklch(0.3057 0.079 256.22 / 0.13)" class="wd-expressive-accent"></path>
</g>
<g>
<path d="M34.4992 8.00879C36.167 8.06838 37.8124 8.42588 39.3566 9.06543C41.055 9.76894 42.5987 10.8007 43.8986 12.1006C45.1985 13.4005 46.2302 14.9442 46.9338 16.6426C47.5734 18.1869 47.9308 19.8322 47.9904 21.5C48.0002 21.7759 47.7753 22 47.4992 22H46.4992C46.2231 21.9999 46 21.7758 45.9885 21.5C45.9299 20.095 45.6252 18.7097 45.0861 17.4082C44.4831 15.9525 43.5987 14.6289 42.4846 13.5146C41.3703 12.4005 40.0468 11.5161 38.591 10.9131C37.2895 10.3741 35.9041 10.0683 34.4992 10.0098C34.2234 9.99819 33.9993 9.77601 33.9992 9.5V8.5C33.9992 8.22391 34.2233 7.99902 34.4992 8.00879Z" fill="oklch(0.3523 0 0 / 1)" class="wd-expressive-fill"></path>
<path d="M33.9992 3C44.4926 3 52.9992 11.5066 52.9992 22C52.9992 32.4934 44.4926 41 33.9992 41C29.1121 40.9999 24.6558 39.1548 21.2893 36.123L18.9953 38.417L19.6193 39.041C20.0099 39.4315 20.0099 40.0646 19.6193 40.4551L9.11933 50.9551L9.00702 51.0615C7.82953 52.1244 6.01196 52.0899 4.87714 50.9551C3.74249 49.8203 3.70789 48.0026 4.7707 46.8252L4.87714 46.7129L15.3771 36.2129C15.7432 35.8468 16.3223 35.8244 16.715 36.1445L16.7912 36.2129L17.5812 37.0029L19.8762 34.708C16.8451 31.3416 14.9992 26.8866 14.9992 22C14.9992 11.5067 23.506 3.00022 33.9992 3ZM6.2912 48.127L6.22285 48.2031C5.90307 48.596 5.92569 49.1753 6.2912 49.541C6.65685 49.9067 7.23615 49.9292 7.6291 49.6094L7.70527 49.541L17.4982 39.748L16.0842 38.334L6.2912 48.127ZM33.9992 5C24.6106 5.00022 16.9992 12.6113 16.9992 22C16.9992 31.3887 24.6106 38.9998 33.9992 39C43.3881 39 50.9992 31.3888 50.9992 22C50.9992 12.6112 43.3881 5 33.9992 5Z" fill="oklch(0.3523 0 0 / 1)" class="wd-expressive-fill"></path>
</g>
</svg>