<svg role="presentation" width="56" height="56" viewBox="0 0 56 56" xmlns="http://www.w3.org/2000/svg" class="wd-expressive wd-expressive-tooth">
<path d="M10.1914 10.8535C10.0656 11.55 10 12.2673 10 13C10 21.5 13.876 21.7109 16.876 30.2109C19.8759 38.7108 18.3294 43.1402 22.749 43.0742C22.749 43.0742 23.0411 28.4962 29.541 28.4961C33.4999 28.4961 35.5713 31.7204 36.0713 36.2139C36.5713 40.7072 37.1605 43 40 43C40.3901 43 40.7287 42.9029 41.0264 42.7295C41.0091 43.1428 41 43.5661 41 44C41 47.5 40 51 37 51C29.8063 51 34.5 32 28 32C21.5 32 26.1937 51 19 51C16 51 15 47.5 15 44C15 31 7 27.5 7 19C7 15.8547 8.21143 12.9934 10.1914 10.8535Z" fill="oklch(0.3057 0.079 256.22 / 0.13)" class="wd-expressive-accent"></path>
<g>
<path d="M18.4756 10.0771C18.76 10.0466 18.9999 10.2755 19 10.5615V11.5703C18.9999 11.8335 18.7952 12.0499 18.5342 12.084C17.2793 12.2475 16.0477 12.7395 14.9736 13.585C13.3549 14.8597 12.438 16.658 12.2354 18.5244C12.2065 18.7906 11.9875 19.002 11.7197 19.002H10.7148C10.4322 19.002 10.2036 18.7678 10.2285 18.4863C10.4466 16.0442 11.6227 13.6776 13.7373 12.0127C15.1634 10.8902 16.8073 10.2572 18.4756 10.0771Z" fill="oklch(0.3523 0 0 / 1)" class="wd-expressive-fill"></path>
<path d="M37 6C44.1797 6 50 11.8203 50 19C50 23.5704 47.8219 26.8286 45.8721 30.3018C43.9102 33.7963 42 37.7455 42 44C42 45.8186 41.7444 47.7383 41.0283 49.2422C40.2916 50.7892 38.9975 52 37 52C35.8548 52 34.9011 51.6118 34.1426 50.9238C33.4088 50.2582 32.904 49.3557 32.5371 48.3848C31.8113 46.464 31.5116 43.955 31.2461 41.6123C30.9718 39.1917 30.7329 36.9408 30.1865 35.2812C29.9161 34.4601 29.5995 33.8804 29.2432 33.5156C28.9166 33.1815 28.5336 33 28 33C27.4664 33 27.0834 33.1815 26.7568 33.5156C26.4005 33.8804 26.0839 34.4601 25.8135 35.2812C25.2671 36.9408 25.0282 39.1917 24.7539 41.6123C24.4884 43.955 24.1887 46.464 23.4629 48.3848C23.096 49.3557 22.5912 50.2582 21.8574 50.9238C21.0989 51.6118 20.1452 52 19 52C17.0025 52 15.7084 50.7892 14.9717 49.2422C14.2556 47.7383 14 45.8186 14 44C14 37.7455 12.0898 33.7963 10.1279 30.3018C8.17807 26.8286 6 23.5704 6 19C6 12.234 11.169 6.67571 17.7734 6.05762C17.8416 6.0236 17.9182 6.00394 18 6.00586C18.1032 6.00832 18.206 6.01361 18.3086 6.01758C18.5375 6.00558 18.7681 6 19 6C20.5452 6 22.0537 6.15573 23.4668 6.53418C26.2035 7.26699 29.7965 7.26699 32.5332 6.53418C33.9463 6.15573 35.4548 6 37 6ZM37 8C35.5838 8 34.256 8.14304 33.0508 8.46582C31.3284 8.92707 29.3318 9.12956 27.3682 9.07422C28.9899 10.1476 31.532 10.9153 34.5 10.9932C34.7759 11.0006 35 11.224 35 11.5V12.5C34.9999 12.776 34.7759 13.0006 34.5 12.9941C30.8996 12.9083 27.645 11.8984 25.625 10.2803C24.1103 9.06696 21.4813 8.16045 18.3457 8.02051C12.5752 8.35906 8 13.1446 8 19C8 22.9295 9.82196 25.6715 11.8721 29.3232C13.9102 32.9536 16 37.2546 16 44C16 45.6812 16.2445 47.2618 16.7783 48.3828C17.2916 49.4605 17.9976 50 19 50C19.6531 50 20.1266 49.7943 20.5137 49.4434C20.9253 49.07 21.2856 48.4879 21.5918 47.6777C22.2122 46.0361 22.4938 43.7948 22.7666 41.3877C23.0306 39.0585 23.2867 36.5591 23.9131 34.6562C24.229 33.6966 24.6682 32.7914 25.3271 32.1172C26.0161 31.4123 26.9087 31 28 31C29.0913 31 29.9839 31.4123 30.6729 32.1172C31.3318 32.7914 31.771 33.6966 32.0869 34.6562C32.7133 36.5591 32.9694 39.0585 33.2334 41.3877C33.5062 43.7948 33.7878 46.0361 34.4082 47.6777C34.7144 48.4879 35.0747 49.07 35.4863 49.4434C35.8734 49.7943 36.3469 50 37 50C38.0024 50 38.7084 49.4605 39.2217 48.3828C39.7555 47.2618 40 45.6812 40 44C40 37.2546 42.0898 32.9536 44.1279 29.3232C46.178 25.6715 48 22.9295 48 19C48 12.9249 43.0751 8 37 8Z" fill="oklch(0.3523 0 0 / 1)" class="wd-expressive-fill"></path>
</g>
</svg>