<svg role="presentation" width="56" height="56" viewBox="0 0 56 56" xmlns="http://www.w3.org/2000/svg" class="wd-expressive wd-expressive-cloud-loader">
<g>
<path d="M8.21875 23.2158C7.4425 24.637 7 26.2667 7 28C7.00026 33.3499 11.202 37.7183 16.4854 37.9863L17 38H47L47.5146 37.9863C49.0552 37.9083 50.502 37.4783 51.7812 36.7803C50.1625 39.7473 47.0876 41.8053 43.5146 41.9863L43 42H13L12.4854 41.9863C7.202 41.7183 3.00026 37.3499 3 32C3 28.2093 5.10981 24.9117 8.21875 23.2158Z" fill="oklch(0.3057 0.079 256.22 / 0.13)" class="wd-expressive-accent"></path>
<path d="M30 29C31.6569 29 33 30.3431 33 32C33 33.6569 31.6569 35 30 35H15C13.3431 35 12 33.6569 12 32C12 30.3431 13.3431 29 15 29H30Z" fill="oklch(0.3057 0.079 256.22 / 0.13)" class="wd-expressive-accent"></path>
</g>
<g>
<path d="M41 28C43.2091 28 45 29.7909 45 32C45 34.2091 43.2091 36 41 36H15C12.7909 36 11 34.2091 11 32C11 29.7909 12.7909 28 15 28H41ZM33.4648 30C33.8052 30.5884 34 31.2714 34 32C34 32.7288 33.8044 33.4116 33.4639 34H41C42.1046 34 43 33.1046 43 32C43 30.8954 42.1046 30 41 30H33.4648ZM15 30C13.8954 30 13 30.8954 13 32C13 33.1046 13.8954 34 15 34H30C31.1046 34 32 33.1046 32 32C32 30.9643 31.2128 30.113 30.2041 30.0107L30 30H15Z" fill="oklch(0.3523 0 0 / 1)" class="wd-expressive-fill"></path>
<path d="M21 9.00098C25.1991 9.00109 28.8903 11.1606 31.0332 14.4229C31.919 14.1495 32.8598 14.002 33.834 14.002C38.216 14.0023 41.8987 16.9689 42.9961 21.002H43C49.075 21.0021 54 25.9269 54 32.002L53.9863 32.5508C53.7091 38.1831 49.1962 42.7018 43.5654 42.9873H43.5537L43.541 42.9883L43.0264 43.002H12.9736L12.459 42.9883L12.4463 42.9873H12.4346C6.80407 42.7016 2.29092 38.1831 2.01367 32.5508L2 32.002C2 27.3277 4.91531 23.3369 9.02441 21.7432C9.00886 21.4989 9.00002 21.2514 9 21.002C9 14.3746 14.3728 9.00117 21 9.00098ZM21 11.002C15.4773 11.0021 11 15.4793 11 21.002L11.0059 21.3291C11.0171 21.6555 11.0442 21.9802 11.0859 22.3018L11.1953 23.1416L10.3848 23.3877C6.68885 24.5083 4 27.9425 4 32.002L4.01074 32.4502C4.23719 37.0559 7.9268 40.7514 12.5293 40.9883L13.0264 41.002H42.9736L43.4697 40.9883C48.0728 40.752 51.7628 37.0564 51.9893 32.4502L52 32.002C52 27.0315 47.9704 23.0021 43 23.002C42.7631 23.002 42.5238 23.0132 42.2822 23.0322L41.375 23.1035L41.2188 22.2061C40.6245 18.7915 37.7223 16.1705 34.1787 16.0098L33.834 16.002C32.8237 16.002 31.8616 16.2023 30.9834 16.5635L30.1641 16.9004L29.7305 16.127C28.0181 13.0673 24.7502 11.0021 21 11.002Z" fill="oklch(0.3523 0 0 / 1)" class="wd-expressive-fill"></path>
</g>
</svg>