<svg role="presentation" width="56" height="56" viewBox="0 0 56 56" xmlns="http://www.w3.org/2000/svg" class="wd-expressive wd-expressive-lock-keyhole">
<g>
<path d="M14 45.7998C14 46.4211 14.4721 46.9326 15.0771 46.9941L15.2002 47H46V48.7998C46 49.4625 45.4625 50 44.7998 50H11.2002L11.0771 49.9941C10.4721 49.9326 10 49.4211 10 48.7998V25.2002C10 24.5375 10.5375 24 11.2002 24H14V45.7998Z" fill="oklch(0.3057 0.079 256.22 / 0.13)" class="wd-expressive-accent"></path>
<path d="M28 31C30.2091 31 32 32.7909 32 35C32 36.5364 31.133 37.869 29.8623 38.5391L30.4189 42.4297C30.4617 42.7306 30.2278 42.9998 29.9238 43H26.0762C25.7722 42.9998 25.5383 42.7306 25.5811 42.4297L26.1367 38.5391C24.8664 37.8689 24 36.5361 24 35C24 32.7909 25.7909 31 28 31Z" fill="oklch(0.3057 0.079 256.22 / 0.13)" class="wd-expressive-accent"></path>
<path d="M28 4C35.1797 4 41 9.8203 41 17V24H36V17C36 12.5817 32.4183 9 28 9C23.5817 9 20 12.5817 20 17V24H15V17C15 9.8203 20.8203 4 28 4Z" fill="oklch(0.3057 0.079 256.22 / 0.13)" class="wd-expressive-accent"></path>
</g>
<g>
<path d="M28 30C30.7614 30 33 32.2386 33 35C33 36.6618 32.1871 38.1293 30.9434 39.0371L31.4092 42.2881C31.5375 43.1918 30.8356 43.9992 29.9248 44H26.0752C25.1644 43.9992 24.4625 43.1927 24.5908 42.2891L25.0547 39.0371C23.8116 38.129 23 36.6611 23 35C23 32.2386 25.2386 30 28 30ZM28 32C26.3431 32 25 33.3431 25 35C25 36.1501 25.6478 37.1501 26.6035 37.6543L27.2266 37.9834L26.6533 42H29.3467L28.7725 37.9834L29.3955 37.6543C30.3518 37.1501 31 36.1501 31 35C31 33.3431 29.6569 32 28 32Z" fill="oklch(0.3523 0 0 / 1)" class="wd-expressive-fill"></path>
<path d="M28 3C35.732 3 42 9.26801 42 17V23H44.7998C46.0148 23 47 23.9852 47 25.2002V48.7998C47 50.0148 46.0148 51 44.7998 51H11.2002C9.98517 51 9 50.0148 9 48.7998V25.2002C9 23.9852 9.98517 23 11.2002 23H14V17C14 9.26801 20.268 3 28 3ZM11.2002 25C11.0897 25 11 25.0897 11 25.2002V48.7998C11 48.9103 11.0897 49 11.2002 49H44.7998C44.9103 49 45 48.9103 45 48.7998V25.2002C45 25.0897 44.9103 25 44.7998 25H11.2002ZM28 5C21.3726 5 16 10.3726 16 17V23H19V17C19 12.0294 23.0294 8 28 8C32.9706 8 37 12.0294 37 17V23H40V17C40 10.3726 34.6274 5 28 5ZM28 10C24.134 10 21 13.134 21 17V23H35V17C35 13.134 31.866 10 28 10Z" fill="oklch(0.3523 0 0 / 1)" class="wd-expressive-fill"></path>
</g>
</svg>