<svg role="presentation" width="56" height="56" viewBox="0 0 56 56" xmlns="http://www.w3.org/2000/svg" class="wd-expressive wd-expressive-platform">
<g>
<path d="M26.3545 35.3545C26.1276 35.8565 26 36.4133 26 37C26.0001 39.2091 27.7909 41 30 41C30.5867 41 31.1435 40.8725 31.6455 40.6455C31.0572 41.9467 29.794 42.8769 28.3018 42.9883L28 43V46.7871L47 39.5293V16.4688L28 9.20996L21.4658 11.7051L20.7373 11.4258C20.9064 10.9828 21 10.5024 21 10C21 9.56301 20.9284 9.14265 20.7988 8.74902L28 5.99902L50 14.4033V41.5957L28 49.999L6 41.5967V17L28 25.4033V35L26.3545 35.3545Z" fill="oklch(0.3057 0.079 256.22 / 0.13)" class="wd-expressive-accent"></path>
<path d="M36.3545 17.3545C36.1276 17.8565 36 18.4133 36 19C36.0001 21.2091 37.7909 23 40 23C40.5867 23 41.1435 22.8725 41.6455 22.6455C41.0179 24.0335 39.6223 25 38 25C35.7909 25 34.0001 23.2091 34 21C34 19.3776 34.9664 17.982 36.3545 17.3545Z" fill="oklch(0.3057 0.079 256.22 / 0.13)" class="wd-expressive-accent"></path>
<path d="M15.3545 6.35449C15.1276 6.85649 15 7.41328 15 8C15.0001 10.2091 16.7909 12 19 12C19.5867 12 20.1435 11.8725 20.6455 11.6455C20.0179 13.0335 18.6223 14 17 14C14.7909 14 13.0001 12.2091 13 10C13 8.37765 13.9664 6.98204 15.3545 6.35449Z" fill="oklch(0.3057 0.079 256.22 / 0.13)" class="wd-expressive-accent"></path>
</g>
<path d="M17 5C18.8427 5 20.4511 5.99765 21.3184 7.48145L26.9297 5.33887C27.619 5.07556 28.381 5.07555 29.0703 5.33887L49.0703 12.9795C50.2321 13.4233 50.9999 14.5376 51 15.7812V40.2197C51 41.4636 50.2323 42.5786 49.0703 43.0225L29.0703 50.6611C28.381 50.9244 27.619 50.9244 26.9297 50.6611L6.92969 43.0225C5.76771 42.5786 5 41.4636 5 40.2197V17.7266C5 16.741 5.92571 16.042 6.85059 16.2676L7.03516 16.3252L28 24.332L33.1855 22.3516C33.0651 21.9216 33 21.4684 33 21C33 18.2386 35.2386 16 38 16C40.7614 16 43 18.2386 43 21C43 23.7614 40.7614 26 38 26C36.428 26 35.026 25.2741 34.1094 24.1396L29 26.0908V34.0996C31.2823 34.5628 33 36.581 33 39C33 41.7614 30.7614 44 28 44C25.2386 44 23 41.7614 23 39C23 36.581 24.7177 34.5628 27 34.0996V26.0908L7 18.4521V40.2197C7 40.6343 7.25623 41.0064 7.64355 41.1543L27.6436 48.793C27.8732 48.8806 28.1268 48.8806 28.3564 48.793L48.3564 41.1543C48.7438 41.0064 49 40.6343 49 40.2197V15.7812C48.9999 15.3668 48.7436 14.9956 48.3564 14.8477L28.3564 7.20703C28.1268 7.11939 27.8732 7.11939 27.6436 7.20703L21.96 9.37793C21.9853 9.5818 22 9.78927 22 10C22 12.7614 19.7614 15 17 15C14.2386 15 12 12.7614 12 10C12 7.23858 14.2386 5 17 5ZM28 36C26.3431 36 25 37.3431 25 39C25 40.6569 26.3431 42 28 42C29.6569 42 31 40.6569 31 39C31 37.3431 29.6569 36 28 36ZM38 18C36.3431 18 35 19.3431 35 21C35 22.6569 36.3431 24 38 24C39.6569 24 41 22.6569 41 21C41 19.3431 39.6569 18 38 18ZM17 7C15.3431 7 14 8.34315 14 10C14 11.6569 15.3431 13 17 13C18.6569 13 20 11.6569 20 10C20 8.34315 18.6569 7 17 7Z" fill="oklch(0.3523 0 0 / 1)" class="wd-expressive-fill"></path>
</svg>