<svg role="presentation" width="56" height="56" viewBox="0 0 56 56" xmlns="http://www.w3.org/2000/svg" class="wd-expressive wd-expressive-puzzle">
<g>
<path d="M10 35.9998C10 36.5302 10.1045 37.0365 10.292 37.4998C10.1041 37.9628 10 38.4692 10 38.9998C10 41.2088 11.791 42.9996 14 42.9998C16.2091 42.9998 18 41.2089 18 38.9998C18 38.4689 17.896 37.9622 17.708 37.4988C17.8954 37.0357 18 36.53 18 35.9998H22.5C22.776 35.9998 22.9998 36.2238 23 36.4998V41.033C23 41.4935 23.6205 41.7524 24.0205 41.5242C24.6039 41.1908 25.2798 40.9998 26 40.9998C27.6784 40.9998 29.1144 42.0343 29.708 43.4998C29.1145 44.9654 27.6785 45.9998 26 45.9998C25.2799 45.9997 24.604 45.8096 24.0205 45.4763C23.6206 45.2483 23.0005 45.5064 23 45.9666V50.4998C23 50.7759 22.7761 50.9998 22.5 50.9998H5.5C5.22396 50.9996 5.00001 50.7758 5 50.4998V36.4998C5.00016 36.2238 5.22406 35.9999 5.5 35.9998H10Z" fill="oklch(0.3057 0.079 256.22 / 0.13)" class="wd-expressive-accent"></path>
<path d="M36.9873 3.89039C37.1254 3.65132 37.4318 3.56972 37.6709 3.70777L52.1631 12.075L44.9014 24.655C44.7634 24.8941 44.4569 24.9765 44.2178 24.8386L40.9824 22.9695C40.9867 22.9622 40.9919 22.9553 40.9961 22.948C41.4479 22.1654 41.6038 21.2934 41.501 20.4607C41.6165 20.3134 41.7249 20.1569 41.8213 19.99C42.9255 18.077 42.2693 15.6307 40.3564 14.5261C38.4434 13.4218 35.9972 14.0771 34.8926 15.99C34.5325 16.6137 34.3596 17.2946 34.3564 17.9666C34.354 18.4269 33.8197 18.8342 33.4209 18.6043L29.7236 16.4705L30.7539 14.6863C30.9385 14.3661 30.7117 13.9596 30.377 13.8103L31.5791 11.7293C31.8093 11.3304 31.401 10.796 30.9404 10.7937C30.2687 10.7908 29.5884 10.6184 28.9648 10.2586C27.8337 9.60547 27.1421 8.48274 26.9941 7.27906C28.2032 5.73731 30.3937 5.27984 32.1396 6.28785C32.7631 6.64792 33.2532 7.15101 33.5918 7.73121C33.8243 8.12852 34.4904 8.21471 34.7207 7.81617L36.9873 3.89039Z" fill="oklch(0.3057 0.079 256.22 / 0.13)" class="wd-expressive-accent"></path>
</g>
<g>
<path d="M22.5 14C23.3284 14 24 14.6715 24 15.5V20.0332C23.9997 20.7663 23.5018 21.2421 23.0547 21.4463C22.6126 21.648 22.0118 21.6942 21.4834 21.3926C21.0468 21.1432 20.5416 21 20 21C18.3431 21 17 22.3431 17 24C17.0002 25.6567 18.3432 27 20 27C20.5414 27 21.0469 26.8569 21.4834 26.6074C22.0119 26.3055 22.6125 26.3509 23.0547 26.5527C23.502 26.7569 24 27.2333 24 27.9668V32H27.4189C27.1507 31.3867 27 30.7101 27 30C27 27.2386 29.2386 25 32 25C34.7614 25 37 27.2386 37 30C37 30.7104 36.8485 31.3868 36.5801 32H40.5C41.3284 32 42 32.6715 42 33.5V49C41.9998 50.6567 40.6568 52 39 52H7C5.34324 52 4.00016 50.6567 4 49V17C4 15.3431 5.34315 14 7 14H22.5ZM6 49C6.00016 49.5521 6.44781 50 7 50H22V45.9668C22 45.2333 22.498 44.7569 22.9453 44.5527C23.3599 44.3635 23.9139 44.3116 24.417 44.5547L24.5166 44.6074C24.9531 44.8569 25.4586 45 26 45C27.6568 45 28.9998 43.6567 29 42C29 40.3431 27.6569 39 26 39C25.4584 39 24.9532 39.1432 24.5166 39.3926C23.9882 39.6942 23.3874 39.648 22.9453 39.4463C22.4982 39.2421 22.0003 38.7663 22 38.0332V34H18.5801C18.8485 34.6132 19 35.2896 19 36C18.9998 38.7613 16.7613 41 14 41C11.2387 41 9.00016 38.7613 9 36C9 35.2898 9.15072 34.6132 9.41895 34H6V49ZM32 27C30.3431 27 29 28.3431 29 30C29.0001 30.5415 29.1433 31.0469 29.3926 31.4834C29.6942 32.0118 29.6481 32.6126 29.4463 33.0547C29.242 33.5017 28.7664 33.9998 28.0332 34H24V37.4189C24.6133 37.1506 25.2897 37 26 37C28.7614 37 31 39.2386 31 42C30.9998 44.7613 28.7613 47 26 47C25.2895 47 24.6133 46.8485 24 46.5801V50H39C39.5522 50 39.9998 49.5521 40 49V34H35.9668C35.2334 34 34.757 33.5019 34.5527 33.0547C34.3636 32.6401 34.3117 32.086 34.5547 31.583L34.6074 31.4834C34.8569 31.0469 34.9999 30.5414 35 30C35 28.3431 33.6569 27 32 27ZM7 16C6.44772 16 6 16.4477 6 17V32H10.0332C10.7665 32.0001 11.2421 32.4981 11.4463 32.9453C11.648 33.3874 11.6943 33.9882 11.3926 34.5166C11.1433 34.9531 11 35.4585 11 36C11.0002 37.6567 12.3432 39 14 39C15.6568 39 16.9998 37.6567 17 36C17 35.4586 16.8569 34.9531 16.6074 34.5166C16.3056 33.9882 16.351 33.3875 16.5527 32.9453C16.7569 32.498 17.2333 32 17.9668 32H22V28.5801C21.3867 28.8485 20.7105 29 20 29C17.2387 29 15.0002 26.7613 15 24C15 21.2386 17.2386 19 20 19C20.7103 19 21.3867 19.1506 22 19.4189V16H7Z" fill="oklch(0.3523 0 0 / 1)" class="wd-expressive-fill"></path>
<path d="M36.1211 3.38865C36.5354 2.67144 37.4526 2.42576 38.1699 2.83982L52.8926 11.3398C53.6099 11.754 53.8555 12.6712 53.4414 13.3886L44.9414 28.1113C44.5272 28.8287 43.61 29.0743 42.8926 28.6601L38.9668 26.3935C38.3316 26.0268 38.168 25.3576 38.2148 24.8681C38.2612 24.3843 38.5222 23.8419 39.0479 23.5351C39.4822 23.2819 39.8582 22.9151 40.1289 22.4463C40.9573 21.0114 40.466 19.1771 39.0312 18.3486C37.5964 17.5202 35.7621 18.0115 34.9336 19.4463C34.6967 19.8567 34.568 20.2976 34.5381 20.7383L34.5312 20.9277C34.5281 21.5361 34.1878 22.0325 33.792 22.3144C33.3916 22.5996 32.7308 22.7932 32.0957 22.4267L28.1699 20.1601C27.4527 19.7459 27.2069 18.8287 27.6211 18.1113L29.5811 14.7168C28.9157 14.6427 28.254 14.4353 27.6387 14.0801C25.2474 12.6993 24.4279 9.64133 25.8086 7.24997C27.1893 4.85862 30.2473 4.03941 32.6387 5.4199C33.2538 5.77503 33.7641 6.24416 34.1611 6.78318L36.1211 3.38865ZM35.5869 8.31443C35.2202 8.94927 34.5508 9.11301 34.0615 9.06638C33.5777 9.0201 33.0344 8.75895 32.7275 8.23337C32.4741 7.79921 32.1076 7.42307 31.6387 7.15232C30.2039 6.32402 28.3695 6.81527 27.541 8.24997C26.7126 9.68484 27.2038 11.5202 28.6387 12.3486C29.1076 12.6194 29.6173 12.7478 30.1201 12.75C30.7286 12.7528 31.2258 13.0925 31.5078 13.4883C31.7931 13.8887 31.9867 14.5503 31.6201 15.1855L29.6035 18.6787L32.5635 20.3877C32.6378 19.7224 32.8461 19.0613 33.2012 18.4463C34.5819 16.0548 37.6398 15.2355 40.0312 16.6162C42.4227 17.9969 43.242 21.0548 41.8613 23.4463C41.5062 24.0613 41.0379 24.5719 40.499 24.9687L43.46 26.6787L51.46 12.8222L37.6035 4.82224L35.5869 8.31443Z" fill="oklch(0.3523 0 0 / 1)" class="wd-expressive-fill"></path>
</g>
</svg>