<svg role="presentation" width="56" height="56" viewBox="0 0 56 56" xmlns="http://www.w3.org/2000/svg" class="wd-expressive wd-expressive-lightbulb">
<path d="M23.5 43C23.5 43 25.0003 48 33 48C33 48.0574 32.9759 48.1126 32.9326 48.1504C31.6141 49.3024 29.8884 50 28 50C26.4003 50 24.9177 49.4989 23.7002 48.6455C23.2344 48.319 23 47.7652 23 47.1963V43H22.5C22.2239 43 22 42.7761 22 42.5V42.293C21.9999 38.3185 19.3855 34.9033 16.7539 31.9248C14.4178 29.2805 13 25.8061 13 22C13 17.0938 15.3554 12.7377 18.9971 10.001C17.1147 12.5077 16 15.6239 16 19C16 23.0915 17.6385 26.8001 20.2949 29.5059C22.7417 31.9981 25 35.0074 25 38.5C25 38.7761 25.2239 39 25.5 39H34.5879C34.2172 40.0534 34 41.1499 34 42.293V42.5C34 42.7761 33.7761 43 33.5 43H23.5Z" fill="oklch(0.3057 0.079 256.22 / 0.13)" class="wd-expressive-accent"></path>
<path d="M28 6C36.8365 6.00003 44 13.1635 44 22C44 26.556 42.094 30.6678 39.0391 33.5801C36.7779 35.7355 35 38.2396 35 41L34.9961 41.1543C34.9543 41.9795 34.5767 42.7142 34 43.2314V47.1963C34 48.0233 33.6581 48.9152 32.874 49.4648C31.4938 50.4323 29.8117 51 28 51C26.1883 51 24.5062 50.4323 23.126 49.4648C22.3419 48.9152 22 48.0233 22 47.1963V43.2314C21.3876 42.6822 21 41.8874 21 41C21 38.2396 19.2221 35.7355 16.9609 33.5801C13.906 30.6678 12 26.556 12 22C12 13.1635 19.1635 6.00004 28 6ZM24 47.1963C24 47.5071 24.1268 47.7237 24.2744 47.8271C25.3291 48.5664 26.6124 49 28 49C29.3876 49 30.6709 48.5664 31.7256 47.8271C31.8732 47.7237 32 47.5071 32 47.1963V44H24V47.1963ZM22.9414 40C22.98 40.3279 23 40.6613 23 41L23.0049 41.1025C23.0562 41.6067 23.4823 42 24 42H32L32.1025 41.9951C32.5729 41.9472 32.9472 41.5729 32.9951 41.1025L33 41C33 40.6613 33.02 40.3279 33.0586 40H22.9414ZM28 8C20.268 8.00003 14 14.268 14 22C14 25.9866 15.6652 29.5822 18.3408 32.1328C20.0103 33.7243 21.6521 35.6977 22.4678 38H27V26.9561C24.6247 26.7512 22.4546 25.8245 20.7129 24.3965C20.4995 24.2215 20.4822 23.905 20.666 23.6992L21.333 22.9531C21.5171 22.7475 21.8328 22.7313 22.0479 22.9043C23.6768 24.2156 25.746 24.9999 28 25C30.2539 24.9999 32.3232 24.2155 33.9521 22.9043C34.1671 22.7316 34.4819 22.7479 34.666 22.9531L35.333 23.6992C35.517 23.905 35.5005 24.2214 35.2871 24.3965C33.5455 25.8245 31.3752 26.7512 29 26.9561V38H33.5312C34.3469 35.6976 35.9896 33.7243 37.6592 32.1328C40.3348 29.5822 42 25.9866 42 22C42 14.268 35.732 8.00003 28 8Z" fill="oklch(0.3523 0 0 / 1)" class="wd-expressive-fill"></path>
</svg>