<svg role="presentation" width="56" height="56" viewBox="0 0 56 56" xmlns="http://www.w3.org/2000/svg" class="wd-expressive wd-expressive-easel-pie-chart">
<g>
<path d="M52 42H42.8799L45.5967 48.6211C45.866 49.2789 45.3818 50 44.6709 50H42.5098C42.1043 49.9999 41.739 49.7549 41.585 49.3799L38.5576 42H17.4443L14.417 49.3799C14.263 49.7548 13.8975 49.9998 13.4922 50H11.3291C10.6184 49.9997 10.135 49.2788 10.4043 48.6211L13.1211 42H4V39H52V42Z" fill="oklch(0.3057 0.079 256.22 / 0.13)" class="wd-expressive-accent"></path>
<path d="M26 25L33.7949 29.5C33.005 30.8682 31.8682 32.004 30.5 32.7939C29.1318 33.5838 27.5798 34 26 34C24.4203 34 22.8681 33.5838 21.5 32.7939C20.132 32.004 18.9959 30.8681 18.2061 29.5C17.4161 28.1318 17 26.5798 17 25C17 23.4202 17.4161 21.8682 18.2061 20.5C18.9959 19.1319 20.132 17.996 21.5 17.2061C22.8681 16.4162 24.4203 16 26 16V25Z" fill="oklch(0.3057 0.079 256.22 / 0.13)" class="wd-expressive-accent"></path>
<path d="M41 9H15V5.99902H41V9Z" fill="oklch(0.3057 0.079 256.22 / 0.13)" class="wd-expressive-accent"></path>
</g>
<g>
<path d="M26 15C26.5523 15 27 15.4477 27 16V24.4219L34.2939 28.6338C34.7722 28.9099 34.9363 29.5217 34.6602 30C33.7825 31.5202 32.5202 32.7825 31 33.6602C29.4798 34.5378 27.7554 35 26 35C24.2446 35 22.5202 34.5378 21 33.6602C19.4798 32.7825 18.2175 31.5202 17.3398 30C16.4622 28.4798 16 26.7554 16 25C16 23.2446 16.4622 21.5202 17.3398 20C18.2175 18.4798 19.4798 17.2175 21 16.3398C22.5202 15.4622 24.2446 15 26 15ZM25 17.0625C23.9461 17.1953 22.9257 17.5378 22 18.0723C20.784 18.7744 19.7744 19.784 19.0723 21C18.3701 22.2162 18 23.5957 18 25C18 26.4043 18.3701 27.7838 19.0723 29C19.7744 30.216 20.784 31.2256 22 31.9277C23.2162 32.6299 24.5957 33 26 33C27.4043 33 28.7838 32.6299 30 31.9277C30.9256 31.3933 31.7311 30.6803 32.373 29.834L25.5 25.8662C25.1906 25.6876 25 25.3573 25 25V17.0625Z" fill="oklch(0.3523 0 0 / 1)" class="wd-expressive-fill"></path>
<path d="M30 13C31.5798 13 33.1318 13.4161 34.5 14.2061C35.8681 14.9959 37.0041 16.1319 37.7939 17.5C38.5839 18.8682 39 20.4202 39 22C39 23.5798 38.5839 25.1318 37.7939 26.5C37.5178 26.9782 36.906 27.1423 36.4277 26.8662L29.5 22.8662C29.1906 22.6876 29 22.3573 29 22V14C29 13.7348 29.1054 13.4805 29.293 13.293C29.4805 13.1054 29.7348 13 30 13ZM31 21.4219L36.4971 24.5967C36.8262 23.7732 37 22.8929 37 22C37 20.7713 36.6768 19.5641 36.0625 18.5C35.4481 17.4359 34.5641 16.5519 33.5 15.9375C32.7268 15.4911 31.8776 15.2009 31 15.0742V21.4219Z" fill="oklch(0.3523 0 0 / 1)" class="wd-expressive-fill"></path>
<path d="M41 5C41.5522 5 41.9999 5.44778 42 6V7H50.5C51.3284 7 51.9999 7.67164 52 8.5V38L52.1025 38.0049C52.6066 38.0562 52.9999 38.4824 53 39V42C52.9997 42.552 52.5521 43 52 43H44.3711L46.5215 48.2412C47.0609 49.5569 46.0938 50.9996 44.6719 51H42.5098C41.6987 50.9998 40.9671 50.5092 40.6592 49.7588L37.8857 43H18.1143L15.3418 49.7588C15.0338 50.5092 14.3033 50.9998 13.4922 51H11.3291C9.90723 50.9995 8.94013 49.5569 9.47949 48.2412L11.6299 43H4C3.44793 43 3.00034 42.552 3 42V39C3.00007 38.4824 3.39341 38.0562 3.89746 38.0049L4 38V8.5C4.00008 7.67164 4.67162 7 5.5 7H14V6C14.0001 5.44778 14.4478 5 15 5H41ZM11.3291 49H13.4922L15.9541 43H13.791L11.3291 49ZM42.5098 49H44.6719L42.21 43H40.0479L42.5098 49ZM5 41H51V40H5V41ZM6 38H50V9H42L41.9951 9.10156C41.9439 9.60586 41.5178 10 41 10H15C14.4822 10 14.0561 9.60586 14.0049 9.10156L14 9H6V38ZM16 8H40V7H16V8Z" fill="oklch(0.3523 0 0 / 1)" class="wd-expressive-fill"></path>
</g>
</svg>