<svg role="presentation" width="56" height="56" viewBox="0 0 56 56" xmlns="http://www.w3.org/2000/svg" class="wd-expressive wd-expressive-desktop-gear">
<g>
<path d="M32.5 43C32.7761 43 33 43.2239 33 43.5V50.5C33 50.7761 32.7761 51 32.5 51H23.5C23.2239 51 23 50.7761 23 50.5V43.5C23 43.2239 23.2239 43 23.5 43H3.5C3.22386 43 3 42.7761 3 42.5V11.5C3 11.2239 3.22386 11 3.5 11H6V39.5C6 39.7761 6.22386 40 6.5 40H53V42.5C53 42.7761 52.7761 43 52.5 43H32.5Z" fill="oklch(0.3057 0.079 256.22 / 0.13)" class="wd-expressive-accent"></path>
<path d="M28.9502 18.001C29.4187 18.0012 29.8251 18.3268 29.9268 18.7842L30.2812 20.3838C30.4785 20.4519 30.6715 20.5294 30.8604 20.6143L32.2354 19.7402C32.6307 19.4887 33.1481 19.5456 33.4795 19.877L34.8379 21.2354C35.1616 21.5598 35.2241 22.0639 34.9883 22.457L34.2021 23.7646C34.3446 24.0374 34.4701 24.3209 34.5762 24.6133L36.0918 24.9502C36.549 25.052 36.8759 25.4573 36.876 25.9258V27.8477C36.8755 28.3059 36.5627 28.706 36.1182 28.8174L34.6455 29.1846C34.5483 29.4806 34.4329 29.7688 34.2988 30.0459L35.1357 31.3604C35.3867 31.7555 35.3308 32.2733 35 32.6045L33.6406 33.9639C33.3163 34.2876 32.8121 34.3497 32.4189 34.1143L31.0576 33.2959C30.8071 33.418 30.5475 33.5242 30.2812 33.6162L29.9268 35.2178C29.8249 35.6747 29.4184 36.0007 28.9502 36.001H27.0293C26.5708 36.0009 26.1702 35.6878 26.0586 35.2432L25.6465 33.5957C25.3558 33.4922 25.0743 33.3689 24.8027 33.2295L23.332 34.1143C22.939 34.3499 22.4348 34.2874 22.1104 33.9639L20.751 32.6045C20.4199 32.2732 20.364 31.7556 20.6152 31.3604L21.5908 29.8262C21.5078 29.6382 21.4328 29.4453 21.3662 29.249L19.6328 28.8174C19.1882 28.7061 18.8765 28.306 18.876 27.8477V25.9258C18.8761 25.4571 19.2016 25.0518 19.6592 24.9502L21.4346 24.5547C21.5073 24.3596 21.5885 24.1679 21.6777 23.9814L20.7627 22.458C20.5266 22.0647 20.5889 21.5599 20.9131 21.2354L22.2715 19.877C22.6029 19.5456 23.1203 19.4887 23.5156 19.7402L24.9893 20.6777C25.2025 20.5762 25.422 20.4852 25.6465 20.4053L26.0586 18.7588C26.1698 18.3135 26.5704 18.001 27.0293 18.001H28.9502ZM27.9951 24.001C26.3383 24.001 24.9951 25.3441 24.9951 27.001C24.9956 28.6574 26.3386 30.0009 27.9951 30.001C29.6516 30.0009 30.9946 28.6574 30.9951 27.001C30.9951 25.3441 29.6519 24.001 27.9951 24.001Z" fill="oklch(0.3057 0.079 256.22 / 0.13)" class="wd-expressive-accent"></path>
</g>
<g>
<path d="M24.5 46C24.7761 46 25 46.2239 25 46.5V50H31V46.5C31 46.2239 31.2239 46 31.5 46H32.5C32.7761 46 33 46.2239 33 46.5V50H36.5C36.7761 50 37 50.2239 37 50.5V51.5C37 51.7761 36.7761 52 36.5 52H19.5C19.2239 52 19 51.7761 19 51.5V50.5C19 50.2239 19.2239 50 19.5 50H23V46.5C23 46.2239 23.2239 46 23.5 46H24.5Z" fill="oklch(0.3523 0 0 / 1)" class="wd-expressive-fill"></path>
<path d="M27.9951 23.001C30.2042 23.001 31.9951 24.7919 31.9951 27.001L31.9902 27.207C31.8825 29.3198 30.1349 31.0009 27.9951 31.001C25.7863 31.0009 23.9957 29.2095 23.9951 27.001C23.9951 24.7919 25.786 23.001 27.9951 23.001ZM27.9951 25.001C26.8906 25.001 25.9951 25.8964 25.9951 27.001L26.0059 27.2051C26.1086 28.2134 26.9599 29.0009 27.9951 29.001C29.0992 29.0009 29.9946 28.1052 29.9951 27.001C29.9951 25.8964 29.0996 25.001 27.9951 25.001Z" fill="oklch(0.3523 0 0 / 1)" class="wd-expressive-fill"></path>
<path d="M29.125 17.0088C29.9862 17.0841 30.7126 17.7093 30.9033 18.5674L31.0654 19.2988L31.6982 18.8965L31.8496 18.8096C32.6173 18.41 33.5652 18.5486 34.1865 19.1699L35.5449 20.5283C36.1923 21.1769 36.3177 22.1848 35.8457 22.9717L35.3691 23.7646L36.3086 23.9736C37.2207 24.1767 37.8758 24.9862 37.876 25.9258V27.8477L37.8691 28.0186C37.7966 28.8634 37.1939 29.5784 36.3613 29.7871L36.3604 29.7881L35.4619 30.0117L35.9795 30.8232C36.4495 31.5632 36.3817 32.5195 35.8252 33.1826L35.707 33.3115L34.3477 34.6709C33.699 35.3188 32.6916 35.4427 31.9053 34.9717H31.9033L31.1104 34.4951L30.9033 35.4336C30.7124 36.2913 29.9861 36.9179 29.125 36.9932L28.9502 37.001H27.0293C26.1119 37.0009 25.312 36.3756 25.0889 35.4863L24.8145 34.3887L23.8477 34.9707L23.8467 34.9717C23.0595 35.4438 22.0524 35.3182 21.4043 34.6719L20.0439 33.3115C19.381 32.6481 19.2692 31.613 19.7715 30.8232L20.2881 30.0107L19.3916 29.7881L19.3896 29.7871C18.4997 29.5642 17.8767 28.7637 17.876 27.8477V25.9258L17.8838 25.751C17.959 24.8886 18.585 24.164 19.4424 23.9736L20.3809 23.7646L19.9053 22.9727C19.4329 22.1857 19.5575 21.1773 20.2061 20.5283L21.5645 19.1699C22.2271 18.5074 23.2619 18.3934 24.0527 18.8965L24.8643 19.4121L25.0889 18.5156C25.3117 17.6252 26.1121 17.001 27.0293 17.001H28.9502L29.125 17.0088ZM27.0283 19.002L26.4863 21.168L25.9824 21.3477C25.7896 21.4163 25.601 21.4943 25.4189 21.5811L24.9199 21.8184L24.4521 21.5215L22.9785 20.584L21.6201 21.9424L22.5352 23.4668L22.8125 23.9277L22.5801 24.4131C22.5042 24.5716 22.4338 24.7361 22.3711 24.9043L22.1816 25.4131L21.6523 25.5303L19.877 25.9258L19.876 25.9268V27.8467L22.1377 28.4102L22.3135 28.9277C22.3707 29.0964 22.435 29.2615 22.5059 29.4219L22.7217 29.9111L21.459 31.8965L21.458 31.8975L22.8174 33.2568L24.7646 32.0859L25.2598 32.3398C25.377 32.4 25.496 32.4565 25.6162 32.5088L25.9824 32.6533L26.4863 32.833L27.0283 35L27.0293 35.001H28.9502L29.4258 32.8535L29.9551 32.6709C30.1861 32.591 30.408 32.5003 30.6191 32.3975L31.1074 32.1592L32.9336 33.2559L34.292 31.8975L33.1553 30.1123L33.3984 29.6104C33.5121 29.3755 33.6113 29.1288 33.6953 28.873L33.8672 28.3477L35.876 27.8467V25.9277L35.875 25.9268L33.8232 25.4707L33.6357 24.9541C33.5452 24.7046 33.4377 24.4616 33.3154 24.2275L33.0557 23.7305L34.1299 21.9414L32.7725 20.584L30.9424 21.7471L30.4502 21.5264C30.2863 21.4527 30.1213 21.3866 29.9551 21.3291L29.4258 21.1465L28.9502 19.001L27.0283 19.002Z" fill="oklch(0.3523 0 0 / 1)" class="wd-expressive-fill"></path>
<path d="M52.6533 10.0078C53.4097 10.0846 54 10.7233 54 11.5V42.5C54 43.3284 53.3284 44 52.5 44H3.5C2.72333 44 2.08461 43.4097 2.00781 42.6533L2 42.5V11.5C2 10.6716 2.67157 10 3.5 10H52.5L52.6533 10.0078ZM4 42H52V12H4V42Z" fill="oklch(0.3523 0 0 / 1)" class="wd-expressive-fill"></path>
</g>
</svg>