<svg role="presentation" width="56" height="56" viewBox="0 0 56 56" xmlns="http://www.w3.org/2000/svg" class="wd-expressive wd-expressive-user-microphone">
<g>
<path d="M9.78973 34.7959C9.87763 34.7336 10 34.8075 10 34.9153V44.0002C10.0001 45.0358 10.7873 45.8872 11.7959 45.9895L12 46.0002H37.5C37.7761 46.0002 38 46.2241 38 46.5002V48.5002C38 48.7764 37.7761 49.0002 37.5 49.0002H9L8.7959 48.9895C7.78729 48.8872 7.0001 48.0358 7 47.0002V37.9153C7 37.3464 7.24045 36.8021 7.6748 36.4348C8.35546 35.8593 9.06133 35.3128 9.78973 34.7959Z" fill="oklch(0.3057 0.079 256.22 / 0.13)" class="wd-expressive-accent"></path>
<path d="M43 32.9992C45.2091 32.9992 47 34.7901 47 36.9992V41.9992C46.9999 42.6259 46.8545 43.2186 46.5972 43.7465C46.5276 43.8893 46.3865 43.9832 46.228 43.993C46.1525 43.9977 46.0765 44.0002 46 44.0002C43.791 44.0002 42.0003 42.2091 42 40.0002V35.0002C42 34.3734 42.1447 33.7801 42.4019 33.2519C42.4714 33.1092 42.6125 33.0153 42.771 33.006C42.8468 33.0016 42.9231 32.9992 43 32.9992Z" fill="oklch(0.3057 0.079 256.22 / 0.13)" class="wd-expressive-accent"></path>
<path d="M20.807 7.05632C21.1808 6.66943 21.7521 7.15549 21.5722 7.6625C21.2019 8.7062 21 9.8295 21 11.0002C21.0001 16.523 25.4772 21.0002 31 21.0002C32.1707 21.0002 33.2937 20.7979 34.3372 20.4273C34.8441 20.2473 35.3301 20.8184 34.9433 21.1922C33.1452 22.9302 30.6984 24.0002 28 24.0002C22.4772 24.0002 18.0001 19.523 18 14.0002C18 11.302 19.0695 8.85463 20.807 7.05632Z" fill="oklch(0.3057 0.079 256.22 / 0.13)" class="wd-expressive-accent"></path>
</g>
<g>
<path d="M39.5 39C39.776 39.0001 39.9999 39.224 40 39.5V40C40 43.3136 42.6865 45.9998 46 46C49.3136 45.9999 52 43.3136 52 40V39.5C52.0001 39.2239 52.2239 39 52.5 39H53.5C53.776 39.0001 53.9999 39.224 54 39.5V40C54 44.0794 50.946 47.4432 47 47.9355V50H48.5C48.776 50.0001 48.9999 50.224 49 50.5V51.5C49 51.7761 48.776 51.9999 48.5 52H43.5C43.2239 52 43 51.7761 43 51.5V50.5C43.0001 50.2239 43.2239 50 43.5 50H45V47.9355C41.0539 47.4432 38 44.0795 38 40V39.5C38.0001 39.2239 38.2239 39 38.5 39H39.5Z" fill="oklch(0.3523 0 0 / 1)" class="wd-expressive-fill"></path>
<path d="M28 28C31.814 28 35.4772 28.6578 38.8799 29.8662C39.1399 29.9588 39.2714 30.2472 39.1748 30.5059L38.8252 31.4424C38.7287 31.7011 38.4409 31.8323 38.1807 31.7402C34.998 30.6136 31.5717 30 28 30C20.4988 30 13.6325 32.7072 8.32031 37.1982C8.12228 37.3658 8.00006 37.6253 8 37.915V47C8.00012 47.5522 8.44779 48 9 48H37.5C37.7761 48 38 48.2239 38 48.5V49.5C37.9999 49.776 37.7761 50 37.5 50H9C7.34322 50 6.00012 48.6567 6 47V37.915C6.00006 37.0674 6.35876 36.2379 7.0293 35.6709C12.689 30.8861 20.0087 28 28 28Z" fill="oklch(0.3523 0 0 / 1)" class="wd-expressive-fill"></path>
<path d="M46 30C48.7614 30 51 32.2386 51 35V40C51 42.7614 48.7614 45 46 45C43.2386 45 41 42.7614 41 40V35C41 32.2386 43.2386 30 46 30ZM46 32C44.3432 32 43 33.3432 43 35V40C43 41.6568 44.3432 43 46 43C47.6568 43 49 41.6568 49 40V35C49 33.3432 47.6568 32 46 32Z" fill="oklch(0.3523 0 0 / 1)" class="wd-expressive-fill"></path>
<path d="M28 3C34.0751 3 39 7.92487 39 14C39 20.0751 34.0751 25 28 25C21.9249 25 17 20.0751 17 14C17 7.92487 21.9249 3 28 3ZM28 5C23.0294 5 19 9.02944 19 14C19 18.9706 23.0294 23 28 23C32.9706 23 37 18.9706 37 14C37 9.02944 32.9706 5 28 5Z" fill="oklch(0.3523 0 0 / 1)" class="wd-expressive-fill"></path>
</g>
</svg>