<svg role="presentation" width="56" height="56" viewBox="0 0 56 56" xmlns="http://www.w3.org/2000/svg" class="wd-expressive wd-expressive-organization">
<g>
<path d="M14 47H4V37H14V47Z" fill="oklch(0.3057 0.079 256.22 / 0.13)" class="wd-expressive-accent"></path>
<path d="M32 47H22V37H32V47Z" fill="oklch(0.3057 0.079 256.22 / 0.13)" class="wd-expressive-accent"></path>
<path d="M50 47H40V37H50V47Z" fill="oklch(0.3057 0.079 256.22 / 0.13)" class="wd-expressive-accent"></path>
<path d="M33 18H21V6H33V18Z" fill="oklch(0.3057 0.079 256.22 / 0.13)" class="wd-expressive-accent"></path>
</g>
<g>
<path d="M10 42C11.0722 42 12.057 42.375 12.8301 43.001C12.9405 43.0904 12.9999 43.2271 13 43.3691V43.5C13 43.7761 12.7761 44 12.5 44H7.5L7.39941 43.9902C7.17145 43.9437 7 43.7417 7 43.5V43.3691C7.00006 43.2271 7.05954 43.0904 7.16992 43.001C7.94296 42.375 8.92781 42 10 42Z" fill="oklch(0.3523 0 0 / 1)" class="wd-expressive-fill"></path>
<path d="M10 38C10.8284 38 11.5 38.6716 11.5 39.5C11.5 40.3284 10.8284 41 10 41C9.17157 41 8.5 40.3284 8.5 39.5C8.5 38.6716 9.17157 38 10 38Z" fill="oklch(0.3523 0 0 / 1)" class="wd-expressive-fill"></path>
<path d="M28 42C29.0722 42 30.057 42.375 30.8301 43.001C30.9405 43.0904 30.9999 43.2271 31 43.3691V43.5C31 43.7761 30.7761 44 30.5 44H25.5L25.3994 43.9902C25.1714 43.9437 25 43.7417 25 43.5V43.3691C25.0001 43.2271 25.0595 43.0904 25.1699 43.001C25.943 42.375 26.9278 42 28 42Z" fill="oklch(0.3523 0 0 / 1)" class="wd-expressive-fill"></path>
<path d="M28 38C28.8284 38 29.5 38.6716 29.5 39.5C29.5 40.3284 28.8284 41 28 41C27.1716 41 26.5 40.3284 26.5 39.5C26.5 38.6716 27.1716 38 28 38Z" fill="oklch(0.3523 0 0 / 1)" class="wd-expressive-fill"></path>
<path d="M46 42C47.0722 42 48.057 42.375 48.8301 43.001C48.9405 43.0904 48.9999 43.2271 49 43.3691V43.5C49 43.7761 48.7761 44 48.5 44H43.5L43.3994 43.9902C43.1714 43.9437 43 43.7417 43 43.5V43.3691C43.0001 43.2271 43.0595 43.0904 43.1699 43.001C43.943 42.375 44.9278 42 46 42Z" fill="oklch(0.3523 0 0 / 1)" class="wd-expressive-fill"></path>
<path d="M46 38C46.8284 38 47.5 38.6716 47.5 39.5C47.5 40.3284 46.8284 41 46 41C45.1716 41 44.5 40.3284 44.5 39.5C44.5 38.6716 45.1716 38 46 38Z" fill="oklch(0.3523 0 0 / 1)" class="wd-expressive-fill"></path>
<path d="M28 12C29.4564 12 30.7919 12.5189 31.8311 13.3818C31.9403 13.4726 31.9999 13.6089 32 13.751V14.5C32 14.7761 31.7761 15 31.5 15H24.5C24.2239 15 24 14.7761 24 14.5V13.751C24.0001 13.6089 24.0597 13.4726 24.1689 13.3818C25.2081 12.5189 26.5436 12 28 12Z" fill="oklch(0.3523 0 0 / 1)" class="wd-expressive-fill"></path>
<path d="M28 7C29.1046 7 30 7.89543 30 9C30 10.1046 29.1046 11 28 11C26.8954 11 26 10.1046 26 9C26 7.89543 26.8954 7 28 7Z" fill="oklch(0.3523 0 0 / 1)" class="wd-expressive-fill"></path>
<path d="M33 3C34.6569 3 36 4.34315 36 6V16C36 17.6569 34.6569 19 33 19H29V26H41C44.3137 26 47 28.6863 47 32V34H50L50.1543 34.0039C51.7394 34.0842 53 35.3949 53 37V45C53 46.6569 51.6569 48 50 48H42C40.3949 48 39.0842 46.7394 39.0039 45.1543L39 45V37C39 35.3431 40.3431 34 42 34H45V32C45 29.7909 43.2091 28 41 28H29V34H32L32.1543 34.0039C33.7394 34.0842 35 35.3949 35 37V45C35 46.6569 33.6569 48 32 48H24C22.3949 48 21.0842 46.7394 21.0039 45.1543L21 45V37C21 35.3431 22.3431 34 24 34H27V28H15C12.7909 28 11 29.7909 11 32V34H14L14.1543 34.0039C15.7394 34.0842 17 35.3949 17 37V45C17 46.6569 15.6569 48 14 48H6C4.39489 48 3.08421 46.7394 3.00391 45.1543L3 45V37C3 35.3431 4.34315 34 6 34H9V32C9 28.6863 11.6863 26 15 26H27V19H23C21.3431 19 20 17.6569 20 16V6C20 4.34315 21.3431 3 23 3H33ZM6 36C5.44772 36 5 36.4477 5 37V45L5.00488 45.1025C5.05621 45.6067 5.48232 46 6 46H14C14.5523 46 15 45.5523 15 45V37C15 36.4823 14.6067 36.0562 14.1025 36.0049L14 36H6ZM24 36C23.4477 36 23 36.4477 23 37V45L23.0049 45.1025C23.0562 45.6067 23.4823 46 24 46H32C32.5523 46 33 45.5523 33 45V37C33 36.4823 32.6067 36.0562 32.1025 36.0049L32 36H24ZM42 36C41.4477 36 41 36.4477 41 37V45L41.0049 45.1025C41.0562 45.6067 41.4823 46 42 46H50C50.5523 46 51 45.5523 51 45V37C51 36.4823 50.6067 36.0562 50.1025 36.0049L50 36H42ZM23 5C22.4477 5 22 5.44772 22 6V16C22 16.5523 22.4477 17 23 17H33C33.5523 17 34 16.5523 34 16V6C34 5.44772 33.5523 5 33 5H23Z" fill="oklch(0.3523 0 0 / 1)" class="wd-expressive-fill"></path>
</g>
</svg>