<svg role="presentation" width="56" height="56" viewBox="0 0 56 56" xmlns="http://www.w3.org/2000/svg" class="wd-expressive wd-expressive-book-open-bookmark">
<g>
<path d="M7 41.8291C7.00033 42.2578 7.51062 42.4932 7.85254 42.2344C10.5347 40.2043 13.8769 39 17.5 39C21.3613 39.0001 24.9037 40.3679 27.668 42.6455C27.8605 42.8041 28.1395 42.8041 28.332 42.6455C31.0964 40.3679 34.6386 39 38.5 39C42.1231 39.0001 45.4653 40.2043 48.1475 42.2344C48.4894 42.4932 48.9997 42.2578 49 41.8291V16H51C52.1046 16 53 16.8954 53 18V44C53 45.1046 52.1046 46 51 46H33.4033C32.7346 46.0001 32.1101 46.3342 31.7393 46.8906L31.5938 47.1094C31.2229 47.6658 30.5984 47.9999 29.9297 48H26.0703C25.4016 47.9999 24.7771 47.6658 24.4062 47.1094L24.2607 46.8906C23.8899 46.3342 23.2654 46.0001 22.5967 46H5C3.89543 46 3 45.1046 3 44V18C3 16.8954 3.89543 16 5 16H7V41.8291Z" fill="oklch(0.3057 0.079 256.22 / 0.13)" class="wd-expressive-accent"></path>
<path d="M17.2695 32C19.7571 32 22.123 32.5352 24.2549 33.4971C24.5066 33.6107 24.6093 33.9109 24.4883 34.1592L24.0498 35.0586C23.9287 35.3066 23.6299 35.4094 23.3779 35.2969C21.5132 34.4643 19.4467 34 17.2695 34C15.0924 34.0001 13.0259 34.4642 11.1611 35.2969C10.9091 35.4093 10.6103 35.3066 10.4893 35.0586L10.0508 34.1592C9.92982 33.911 10.0325 33.6107 10.2842 33.4971C12.4161 32.5351 14.7819 32.0001 17.2695 32Z" fill="oklch(0.3057 0.079 256.22 / 0.13)" class="wd-expressive-accent"></path>
<path d="M38.7295 32C41.2173 32 43.5838 32.535 45.7158 33.4971C45.9674 33.6107 46.07 33.9111 45.9492 34.1592L45.7295 34.6084L45.5107 35.0586C45.3898 35.3066 45.0909 35.4091 44.8389 35.2969C42.9741 34.4642 40.9067 34 38.7295 34C36.5524 34.0001 34.4858 34.4642 32.6211 35.2969C32.3691 35.4092 32.0702 35.3066 31.9492 35.0586L31.5107 34.1592C31.3898 33.911 31.4924 33.6106 31.7441 33.4971C33.876 32.5351 36.2419 32.0001 38.7295 32Z" fill="oklch(0.3057 0.079 256.22 / 0.13)" class="wd-expressive-accent"></path>
<path d="M17.2705 26C19.7581 26 22.124 26.5351 24.2559 27.4971C24.5076 27.6107 24.6103 27.9109 24.4893 28.1592L24.0508 29.0586C23.9297 29.3066 23.6309 29.4094 23.3789 29.2969C21.5141 28.4642 19.4477 28 17.2705 28C15.0933 28 13.0269 28.4642 11.1621 29.2969C10.9101 29.4094 10.6113 29.3066 10.4902 29.0586L10.0518 28.1592C9.93075 27.9109 10.0334 27.6107 10.2852 27.4971C12.4171 26.5351 14.7829 26 17.2705 26Z" fill="oklch(0.3057 0.079 256.22 / 0.13)" class="wd-expressive-accent"></path>
<path d="M38.7305 26C41.218 26.0001 43.584 26.5351 45.7158 27.4971C45.9675 27.6106 46.0701 27.911 45.9492 28.1592L45.5107 29.0586C45.3898 29.3066 45.0909 29.4092 44.8389 29.2969C42.9742 28.4643 40.9075 28.0001 38.7305 28C36.5533 28 34.4859 28.4642 32.6211 29.2969C32.3691 29.4091 32.0701 29.3066 31.9492 29.0586L31.7305 28.6084L31.5107 28.1592C31.3899 27.911 31.4926 27.6107 31.7441 27.4971C33.8761 26.5351 36.2427 26 38.7305 26Z" fill="oklch(0.3057 0.079 256.22 / 0.13)" class="wd-expressive-accent"></path>
<path d="M17.2705 20C19.7581 20.0001 22.124 20.5351 24.2559 21.4971C24.5075 21.6107 24.6101 21.911 24.4893 22.1592L24.0508 23.0586C23.9298 23.3066 23.6309 23.4092 23.3789 23.2969C21.5142 22.4643 19.4476 22.0001 17.2705 22C15.0933 22 13.0259 22.4642 11.1611 23.2969C10.9091 23.4091 10.6102 23.3066 10.4893 23.0586L10.2705 22.6084L10.0508 22.1592C9.92994 21.911 10.0326 21.6107 10.2842 21.4971C12.4162 20.535 14.7827 20 17.2705 20Z" fill="oklch(0.3057 0.079 256.22 / 0.13)" class="wd-expressive-accent"></path>
<path d="M38.5 9C39.7023 9 40.8735 9.13337 42 9.38477V22L39 20L36 22V9.19434C36.8146 9.06652 37.6495 9 38.5 9Z" fill="oklch(0.3057 0.079 256.22 / 0.13)" class="wd-expressive-accent"></path>
<path d="M17.2705 14C19.758 14.0001 22.124 14.5352 24.2559 15.4971C24.5076 15.6107 24.6103 15.9109 24.4893 16.1592L24.0508 17.0586C23.9297 17.3066 23.6309 17.4094 23.3789 17.2969C21.5142 16.4642 19.4477 16.0001 17.2705 16C15.0934 16 13.0269 16.4643 11.1621 17.2969C10.9101 17.4093 10.6113 17.3066 10.4902 17.0586L10.0518 16.1592C9.93078 15.911 10.0334 15.6107 10.2852 15.4971C12.4171 14.5352 14.7829 14 17.2705 14Z" fill="oklch(0.3057 0.079 256.22 / 0.13)" class="wd-expressive-accent"></path>
</g>
<path d="M38.5 8L38.8906 8.00488C38.9026 8.00515 38.9148 8.00557 38.9268 8.00586C38.9864 8.00734 39.046 8.00962 39.1055 8.01172C39.1896 8.01467 39.2736 8.01829 39.3574 8.02246C39.4187 8.02553 39.4799 8.02851 39.541 8.03223C39.6199 8.037 39.6987 8.04201 39.7773 8.04785C39.8507 8.05334 39.924 8.05901 39.9971 8.06543C40.2721 8.08943 40.5453 8.12028 40.8164 8.15723C40.8532 8.16226 40.89 8.16758 40.9268 8.17285C41.0394 8.18896 41.1517 8.2063 41.2637 8.22461C41.291 8.2291 41.3184 8.23366 41.3457 8.23828C41.4662 8.2586 41.5864 8.2799 41.7061 8.30273C41.7354 8.30835 41.7646 8.31455 41.7939 8.32031C44.6827 8.8875 47.31 10.1855 49.4727 12.0146C49.8135 12.3029 50 12.7232 50 13.1543V15H51L51.1543 15.0039C52.7394 15.0842 54 16.3949 54 18V44C54 45.6569 52.6569 47 51 47H33.4033C33.0693 47.0001 32.7577 47.1669 32.5723 47.4443L32.4268 47.6631L32.4258 47.6641C31.9042 48.4465 31.0484 48.9359 30.1172 48.9941L29.9297 49H26.0703C25.0674 48.9999 24.1306 48.4987 23.5742 47.6641L23.5732 47.6631L23.4277 47.4443C23.2654 47.202 23.0064 47.0435 22.7207 47.0078L22.5967 47H5C3.39489 47 2.08421 45.7394 2.00391 44.1543L2 44V18C2 16.3431 3.34315 15 5 15H6V13.1543C6.00005 12.7233 6.18664 12.3029 6.52734 12.0146C9.4879 9.51068 13.3192 8.00008 17.5 8L17.8838 8.00391C21.698 8.08853 25.2027 9.4336 28 11.6338C30.2274 9.88183 32.9037 8.67284 35.8271 8.20996C35.833 8.20893 35.8388 8.20699 35.8447 8.20605C35.8646 8.20294 35.8845 8.20031 35.9043 8.19727C36.0702 8.17179 36.2369 8.14954 36.4043 8.12891C36.4615 8.12187 36.5188 8.11486 36.5762 8.1084C36.7525 8.08849 36.9295 8.07111 37.1074 8.05664C37.1471 8.05343 37.1868 8.04982 37.2266 8.04688C37.4149 8.03289 37.604 8.02146 37.7939 8.01367C37.8265 8.01235 37.859 8.01189 37.8916 8.01074C38.0935 8.00362 38.2963 8 38.5 8ZM5 17C4.44772 17 4 17.4477 4 18V44L4.00488 44.1025C4.05621 44.6067 4.48232 45 5 45H22.5967C23.5995 45.0001 24.5364 45.5013 25.0928 46.3359L25.0938 46.3369L25.2383 46.5547C25.4236 46.8328 25.7359 46.9999 26.0703 47H29.9297L30.0537 46.9922C30.3401 46.9564 30.5995 46.798 30.7617 46.5547L30.9072 46.3359C31.4636 45.5013 32.4005 45.0001 33.4033 45H51L51.1025 44.9951C51.6067 44.9438 52 44.5177 52 44V18C52 17.4823 51.6067 17.0562 51.1025 17.0049L51 17H50V41.8291C49.9997 43.1469 48.4937 43.7511 47.5439 43.0322C45.1866 41.248 42.2868 40.1437 39.1338 40.0127L38.5 40C34.8792 40.0001 31.5595 41.2816 28.9678 43.417C28.4059 43.8798 27.594 43.8799 27.0322 43.417C24.6023 41.415 21.5326 40.1632 18.1748 40.0146L17.5 40C14.1022 40.0001 10.9705 41.129 8.45605 43.0322C7.50625 43.7509 6.00032 43.1468 6 41.8291V17H5ZM17.5 10C13.8934 10.0001 10.5874 11.274 8 13.3945V40.9033C10.7127 39.072 13.9821 38.0001 17.5 38C21.019 38.0001 24.2874 39.0747 27 40.9072V13.3906C24.5752 11.404 21.5178 10.1626 18.1748 10.0146L17.5 10ZM35 10.4131C32.7641 10.9474 30.7221 11.9797 29 13.3906V40.9072C31.7125 39.0746 34.981 38.0001 38.5 38C42.0178 38.0001 45.2873 39.072 48 40.9033V13.3945C46.5377 12.196 44.8459 11.2679 43 10.6875V22C43 22.3688 42.7968 22.7078 42.4717 22.8818C42.1466 23.0557 41.7521 23.0366 41.4453 22.832L39 21.2012L36.5547 22.832C36.2479 23.0366 35.8534 23.0557 35.5283 22.8818C35.2032 22.7078 35 22.3688 35 22V10.4131ZM38.5 10C37.9936 10 37.4934 10.0272 37 10.0762V20.1309L38.4453 19.168L38.5752 19.0947C38.8887 18.9475 39.2606 18.9719 39.5547 19.168L41 20.1309V10.21C40.1871 10.0734 39.352 10 38.5 10Z" fill="oklch(0.3523 0 0 / 1)" class="wd-expressive-fill"></path>
</svg>