<svg role="presentation" width="56" height="56" viewBox="0 0 56 56" xmlns="http://www.w3.org/2000/svg" class="wd-expressive wd-expressive-handshake-heart-coin">
<g>
<path d="M49.9995 41C49.9995 42.6569 46.4178 44 41.9995 44C40.6852 44 39.445 43.8796 38.3511 43.669C39.7867 44.4716 42.2287 45 44.9995 45C49.4178 45 52.9995 43.6569 52.9995 42V46C52.9995 46.9474 51.8282 47.791 49.9995 48.3408V50C49.9995 51.6569 46.4178 53 41.9995 53C37.5813 53 33.9995 51.6568 33.9995 50V46C33.9995 47.6568 37.5813 49 41.9995 49C42.5121 49 43.0137 48.9809 43.4995 48.9463C39.7984 48.683 36.9995 47.4646 36.9995 46V43.3408C35.1709 42.791 33.9995 41.9473 33.9995 41V37C33.9995 38.6568 37.5813 40 41.9995 40C46.4178 40 49.9995 38.6569 49.9995 37V41Z" fill="oklch(0.3057 0.079 256.22 / 0.13)" class="wd-expressive-accent"></path>
<path d="M23.0083 38.3887C23.9975 38.4927 24.9591 38.9235 25.7173 39.6817C26.4754 40.4398 26.9062 41.4014 27.0102 42.3906C27.025 42.532 26.9711 42.671 26.8706 42.7715L24.5639 45.0772C24.4634 45.1777 24.3245 45.2327 24.1831 45.2178C23.194 45.1137 22.2331 44.6819 21.4751 43.9238C20.717 43.1658 20.2852 42.205 20.1811 41.2158C20.1663 41.0745 20.2213 40.9355 20.3218 40.835L22.6274 38.5283C22.7279 38.4278 22.8669 38.3739 23.0083 38.3887Z" fill="oklch(0.3057 0.079 256.22 / 0.13)" class="wd-expressive-accent"></path>
<path d="M19.4731 33.4385C20.4623 33.5425 21.424 33.9733 22.1821 34.7315C22.9402 35.4896 23.3711 36.4512 23.4751 37.4405C23.4899 37.5819 23.435 37.7207 23.3344 37.8213L19.6147 41.542C19.5142 41.6425 19.3752 41.6965 19.2339 41.6817C18.2446 41.5777 17.283 41.1468 16.5249 40.3887C15.7667 39.6305 15.3359 38.669 15.2319 37.6797C15.2171 37.5383 15.2711 37.3994 15.3716 37.2988L19.0923 33.5791C19.1928 33.4786 19.3317 33.4236 19.4731 33.4385Z" fill="oklch(0.3057 0.079 256.22 / 0.13)" class="wd-expressive-accent"></path>
<path d="M15.937 28.4893C16.9262 28.5933 17.8878 29.0241 18.646 29.7822C19.4041 30.5404 19.8359 31.502 19.9399 32.4912C19.9546 32.6325 19.8998 32.7716 19.7993 32.8721L15.3716 37.2988C15.271 37.3994 15.1321 37.4543 14.9907 37.4395C14.0016 37.3354 13.0408 36.9036 12.2827 36.1455C11.5246 35.3874 11.0928 34.4267 10.9887 33.4375C10.9739 33.2961 11.0288 33.1572 11.1294 33.0567L15.5571 28.6289C15.6576 28.5286 15.7958 28.4746 15.937 28.4893Z" fill="oklch(0.3057 0.079 256.22 / 0.13)" class="wd-expressive-accent"></path>
<path d="M10.2807 25.6602C11.2699 25.7642 12.2316 26.1951 12.9897 26.9531C13.7478 27.7112 14.1786 28.673 14.2827 29.6621C14.2976 29.8036 14.2426 29.9424 14.1421 30.043L11.8364 32.3496C11.7358 32.4501 11.5969 32.5041 11.4555 32.4893C10.4663 32.3853 9.50471 31.9545 8.74656 31.1963C7.98845 30.4382 7.55758 29.4765 7.45359 28.4873C7.43878 28.346 7.49278 28.207 7.59324 28.1065L9.89988 25.8008C10.0004 25.7002 10.1393 25.6453 10.2807 25.6602Z" fill="oklch(0.3057 0.079 256.22 / 0.13)" class="wd-expressive-accent"></path>
<path d="M29.1196 12.8047C33.1038 6.45437 41.7717 5.07134 47.5346 9.86623C53.3077 14.67 53.5122 23.4648 47.9682 28.5313L46.3618 30L38.3589 21.9971C36.2505 22.4801 33.9505 21.9337 32.2622 20.3467C32.1157 20.2094 31.8869 20.2129 31.7446 20.3545L28.0903 24C26.8424 25.1533 25.1735 25.8584 23.3403 25.8584C21.7238 25.8583 20.2352 25.31 19.0503 24.3897C18.8031 24.1975 18.8218 23.827 19.0698 23.6358C20.7415 22.3463 26.3072 17.8994 27.9995 14.5918L29.1196 12.8047Z" fill="oklch(0.3057 0.079 256.22 / 0.13)" class="wd-expressive-accent"></path>
</g>
<g>
<path d="M41.9996 32.9999C44.2967 32.9999 46.4212 33.3475 48.0074 33.9423C48.7968 34.2384 49.5058 34.615 50.0348 35.0839C50.5624 35.5518 50.9996 36.1972 50.9996 36.9999V38.9394C51.0021 38.9403 51.0049 38.9414 51.0074 38.9423C51.7968 39.2384 52.5058 39.615 53.0348 40.0839C53.5624 40.5518 53.9996 41.1972 53.9996 41.9999V45.9999C53.9996 46.8027 53.5624 47.4481 53.0348 47.916C52.5058 48.3848 51.7968 48.7616 51.0074 49.0576C51.005 49.0584 51.002 49.0586 50.9996 49.0595V49.9999C50.9996 50.8027 50.5624 51.4481 50.0348 51.916C49.5058 52.3848 48.7968 52.7616 48.0074 53.0576C46.4212 53.6523 44.2967 53.9999 41.9996 53.9999C39.7025 53.9999 37.578 53.6524 35.9918 53.0576C35.2024 52.7615 34.4933 52.3849 33.9644 51.916C33.4368 51.4481 32.9997 50.8026 32.9996 49.9999V45.9999C32.9996 45.1973 33.4369 44.5518 33.9644 44.0839C34.2056 43.8701 34.4851 43.6765 34.7916 43.4999C34.485 43.3234 34.2056 43.1298 33.9644 42.916C33.4368 42.4481 32.9997 41.8026 32.9996 40.9999V36.9999C32.9996 36.1973 33.4369 35.5518 33.9644 35.0839C34.4933 34.615 35.2024 34.2384 35.9918 33.9423C37.578 33.3475 39.7025 33 41.9996 32.9999ZM34.9996 49.9999C34.9996 50.0258 35.0103 50.1705 35.2916 50.4199C35.5723 50.6687 36.036 50.9378 36.6939 51.1845C37.7931 51.5967 39.2919 51.8886 40.9996 51.9726V49.9765C39.09 49.8912 37.345 49.565 35.9918 49.0576C35.6422 48.9265 35.309 48.7779 34.9996 48.6142V49.9999ZM42.9996 49.9765V51.9726C43.7065 51.9378 44.3779 51.8689 44.9996 51.7685V49.9999C44.4878 49.9999 43.9843 49.9816 43.4937 49.9482C43.3305 49.9593 43.1655 49.9691 42.9996 49.9765ZM48.9996 49.6201C48.3709 49.7476 47.6999 49.8448 46.9996 49.9091V51.291C47.1043 51.256 47.2068 51.2214 47.3053 51.1845C47.9632 50.9378 48.4269 50.6686 48.7076 50.4199C48.989 50.1704 48.9996 50.0259 48.9996 49.9999V49.6201ZM47.9996 45.791C47.0587 45.926 46.0471 45.9999 44.9996 45.9999V47.9999C46.0769 47.9999 47.091 47.9152 47.9996 47.7685V45.791ZM37.9996 45.9999C37.9996 46.0258 38.0103 46.1705 38.2916 46.4199C38.5723 46.6687 39.036 46.9378 39.6939 47.1845C40.5727 47.5141 41.7074 47.7647 42.9996 47.8964V45.9091C41.483 45.7699 40.1048 45.4749 38.9918 45.0576C38.649 44.929 38.3224 44.7829 38.0182 44.623C38.0121 44.6218 38.0056 44.6213 37.9996 44.6201V45.9999ZM51.9996 44.6142C51.6902 44.7779 51.357 44.9265 51.0074 45.0576C50.692 45.1758 50.3547 45.2829 49.9996 45.3808V47.291C50.1043 47.256 50.2068 47.2214 50.3053 47.1845C50.9632 46.9378 51.4269 46.6686 51.7076 46.4199C51.989 46.1704 51.9996 46.0259 51.9996 45.9999V44.6142ZM35.9996 45.1181C35.6958 45.2732 35.4605 45.4303 35.2916 45.58C35.01 45.8298 34.9996 45.9744 34.9996 45.9999C34.9996 46.0258 35.0103 46.1705 35.2916 46.4199C35.5025 46.6068 35.8167 46.8053 36.2389 46.997C36.0903 46.6986 35.9996 46.3655 35.9996 45.9999V45.1181ZM50.9957 41.1162C50.9559 41.8651 50.5367 42.4709 50.0348 42.916C49.7766 43.1449 49.4746 43.3508 49.1422 43.5371C49.5659 43.4328 49.9561 43.3154 50.3053 43.1845C50.9632 42.9378 51.4269 42.6686 51.7076 42.4199C51.989 42.1704 51.9996 42.0259 51.9996 41.9999C51.9996 41.9744 51.9895 41.8299 51.7076 41.58C51.538 41.4297 51.3014 41.2719 50.9957 41.1162ZM44.9996 40.791C44.0587 40.926 43.0471 40.9999 41.9996 40.9999C41.3144 40.9999 40.6443 40.9683 39.9996 40.9091V42.8964C40.6322 42.9609 41.3026 42.9999 41.9996 42.9999C43.0769 42.9999 44.091 42.9152 44.9996 42.7685V40.791ZM34.9996 40.9999C34.9996 41.0258 35.0103 41.1705 35.2916 41.4199C35.5723 41.6687 36.036 41.9378 36.6939 42.1845C37.0818 42.33 37.5206 42.4572 37.9996 42.5693V40.6201C37.2668 40.4714 36.5908 40.2822 35.9918 40.0576C35.6422 39.9265 35.309 39.7779 34.9996 39.6142V40.9999ZM48.9996 39.6142C48.6902 39.7779 48.357 39.9265 48.0074 40.0576C47.692 40.1758 47.3547 40.2829 46.9996 40.3808V42.291C47.1043 42.256 47.2068 42.2214 47.3053 42.1845C47.9632 41.9378 48.4269 41.6686 48.7076 41.4199C48.989 41.1704 48.9996 41.0259 48.9996 40.9999V39.6142ZM41.9996 34.9999C39.8788 35 38.003 35.3245 36.6939 35.8154C36.036 36.0621 35.5723 36.3312 35.2916 36.58C35.01 36.8298 34.9996 36.9744 34.9996 36.9999C34.9996 37.0259 35.0103 37.1705 35.2916 37.4199C35.5723 37.6687 36.036 37.9378 36.6939 38.1845C38.003 38.6754 39.8788 38.9999 41.9996 38.9999C44.1204 38.9999 45.9962 38.6754 47.3053 38.1845C47.9632 37.9378 48.4269 37.6686 48.7076 37.4199C48.989 37.1704 48.9996 37.0259 48.9996 36.9999C48.9996 36.9744 48.9895 36.8299 48.7076 36.58C48.4269 36.3312 47.9633 36.0621 47.3053 35.8154C45.9962 35.3245 44.1205 34.9999 41.9996 34.9999Z" fill="oklch(0.3523 0 0 / 1)" class="wd-expressive-fill"></path>
<path d="M28.2721 12.2734C32.5778 5.41019 41.9462 3.91572 48.1744 9.0976C54.4132 14.2891 54.6344 23.7939 48.6432 29.2695L47.6568 30.1689C47.8631 30.4482 47.9812 30.8062 47.941 31.1904C47.9187 31.403 47.8835 31.6154 47.8365 31.8251C47.7761 32.0943 47.4927 32.2386 47.2301 32.1542L46.1002 31.789C45.9356 31.7357 45.8461 31.5586 45.8834 31.3896C45.9053 31.2897 45.8718 31.1866 45.7994 31.1142L37.7935 23.1064C35.7887 23.3503 33.7041 22.8097 32.0387 21.4726L28.7965 24.708L28.7828 24.7216L28.7691 24.7343C27.3437 26.0516 25.435 26.8583 23.3404 26.8583C21.4942 26.8583 19.7912 26.2313 18.4371 25.1796C17.6203 24.545 17.7476 23.3924 18.4586 22.8437L19.2408 22.2304C20.1731 21.4873 21.51 20.3814 22.8453 19.1386C24.4626 17.6334 25.9879 16.0056 26.8355 14.6181L26.0318 13.3359C22.3692 7.49844 14.4007 6.22696 9.10312 10.6347C4.21283 14.7042 3.70921 21.8723 7.66562 26.6191L9.19296 25.0927C9.48756 24.7983 9.91801 24.6169 10.3853 24.666C11.594 24.7931 12.771 25.3202 13.6969 26.246C14.1955 26.7447 14.5771 27.3168 14.8443 27.9267L14.8502 27.9218C15.1448 27.6273 15.5751 27.4449 16.0426 27.4941C17.2512 27.6212 18.4273 28.1493 19.3531 29.0751C20.279 30.001 20.807 31.1771 20.9342 32.3857C20.9477 32.5139 20.9413 32.6391 20.9225 32.7597C21.6399 33.0269 22.3132 33.4483 22.8893 34.0244C23.8151 34.9503 24.3422 36.1272 24.4693 37.3359C24.4828 37.4638 24.4773 37.5886 24.4586 37.7089C25.1759 37.9761 25.8485 38.3986 26.4244 38.9746C27.3502 39.9004 27.8783 41.0765 28.0055 42.2851C28.0546 42.7525 27.8722 43.1829 27.5777 43.4775L27.3141 43.7412L28.8658 45.2929C28.8879 45.2858 28.9102 45.279 28.9332 45.2744C29.2931 45.2022 29.6438 45.0733 29.9703 44.8876C30.2103 44.7512 30.5235 44.7869 30.693 45.0048L31.3062 45.7939C31.4758 46.012 31.4373 46.3286 31.2047 46.4775C30.5742 46.8809 29.8794 47.1407 29.1666 47.2617L29.1676 47.2646C29.1467 47.2681 29.125 47.2691 29.1041 47.2724C29.0848 47.2755 29.0658 47.2803 29.0465 47.2831C29.0388 47.2843 29.0306 47.2824 29.023 47.2831C28.9556 47.2926 28.8885 47.3044 28.8209 47.3115C28.3534 47.3606 27.9231 47.1783 27.6285 46.8837L25.9 45.1552L25.2711 45.7841C24.9764 46.0787 24.5462 46.261 24.0787 46.2119C22.8701 46.0847 21.694 45.5566 20.7682 44.6308C20.1922 44.0548 19.7697 43.3823 19.5025 42.665C19.3822 42.6838 19.2574 42.6901 19.1295 42.6767C17.9208 42.5496 16.7439 42.0215 15.818 41.0956C15.0357 40.3134 14.5381 39.352 14.3258 38.3437C13.318 38.1312 12.3576 37.6343 11.5758 36.8525C10.6499 35.9266 10.1219 34.7506 9.99472 33.5419C9.98121 33.4134 9.98649 33.2878 10.0055 33.1669C9.28847 32.8997 8.61537 32.479 8.03964 31.9033C7.11376 30.9774 6.58668 29.8004 6.45956 28.5917C6.44853 28.4866 6.44953 28.3834 6.46054 28.2832C1.45842 22.7204 1.92888 14.0032 7.82382 9.0976C13.9548 3.99664 23.129 5.3652 27.5211 11.956L27.7262 12.2734L27.9986 12.708L28.2721 12.2734ZM23.1519 39.4179L21.2125 41.3583C21.3335 42.0392 21.6555 42.69 22.1822 43.2167C22.709 43.7435 23.3597 44.0655 24.0406 44.1865L25.9801 42.247C25.8591 41.5663 25.537 40.9153 25.0103 40.3886C24.4837 39.862 23.8327 39.5389 23.1519 39.4179ZM16.2623 37.8222C16.3832 38.5032 16.7052 39.1548 17.232 39.6816C17.7588 40.2084 18.4104 40.5304 19.0914 40.6513L21.9205 37.8212L21.9215 37.8193L22.4449 37.2968C22.3239 36.6161 22.0018 35.965 21.4752 35.4384C20.9486 34.9118 20.2975 34.5898 19.6168 34.4687L16.2623 37.8222ZM14.856 30.7431C14.8539 30.7452 14.8523 30.7478 14.8502 30.7499L12.0201 33.58C12.1411 34.2609 12.4631 34.9117 12.9898 35.4384C13.5166 35.9652 14.1673 36.2872 14.8482 36.4082L18.9098 32.3476C18.7887 31.6668 18.4657 31.0159 17.9391 30.4892C17.4124 29.9625 16.7614 29.6395 16.0807 29.5185L14.856 30.7431ZM8.48496 28.6298C8.6059 29.3108 8.92693 29.9624 9.45371 30.4892C9.98051 31.016 10.6321 31.338 11.3131 31.4589L13.2525 29.5185C13.1315 28.8378 12.8094 28.1867 12.2828 27.6601C11.7562 27.1335 11.1051 26.8114 10.4244 26.6904L8.48496 28.6298ZM46.8951 10.6347C41.5974 6.22698 33.6288 7.49902 29.9664 13.3369L29.9654 13.3359L28.859 15.1025C27.9148 16.9127 26.0037 18.9309 24.2076 20.6025C22.7 22.0057 21.196 23.2334 20.235 23.9921C21.1406 24.5414 22.2026 24.8583 23.3404 24.8583C24.9083 24.8583 26.3334 24.2572 27.4029 23.2724L31.0377 19.6464C31.562 19.1234 32.407 19.1112 32.9469 19.6181C35.1926 21.7291 38.7096 21.675 40.8893 19.496L43.0924 17.2929L44.5064 18.707L42.3043 20.9101C41.6214 21.5929 40.8406 22.1191 40.0074 22.4921L46.2564 28.7412L47.2935 27.7939C52.3899 23.1365 52.2022 15.0508 46.8951 10.6347Z" fill="oklch(0.3523 0 0 / 1)" class="wd-expressive-fill"></path>
</g>
</svg>