<svg role="presentation" width="56" height="56" viewBox="0 0 56 56" xmlns="http://www.w3.org/2000/svg" class="wd-expressive wd-expressive-book-open">
<g>
<path d="M7 41.8291C7.00033 42.2578 7.51062 42.4932 7.85254 42.2344C10.5347 40.2043 13.8769 39 17.5 39C21.3613 39.0001 24.9037 40.3679 27.668 42.6455C27.8605 42.8041 28.1395 42.8041 28.332 42.6455C31.0964 40.3679 34.6386 39 38.5 39C42.1231 39.0001 45.4653 40.2043 48.1475 42.2344C48.4894 42.4932 48.9997 42.2578 49 41.8291V16H51C52.1046 16 53 16.8954 53 18V44C53 45.1046 52.1046 46 51 46H33.4033C32.7346 46.0001 32.1101 46.3342 31.7393 46.8906L31.5938 47.1094C31.2229 47.6658 30.5984 47.9999 29.9297 48H26.0703C25.4016 47.9999 24.7771 47.6658 24.4062 47.1094L24.2607 46.8906C23.8899 46.3342 23.2654 46.0001 22.5967 46H5C3.89543 46 3 45.1046 3 44V18C3 16.8954 3.89543 16 5 16H7V41.8291Z" fill="oklch(0.3057 0.079 256.22 / 0.13)" class="wd-expressive-accent"></path>
<path d="M17.2705 32C19.758 32.0001 22.124 32.5351 24.2559 33.4971C24.5076 33.6107 24.6102 33.911 24.4893 34.1592L24.0508 35.0586C23.9298 35.3066 23.6309 35.4093 23.3789 35.2969C21.5142 34.4642 19.4476 34.0001 17.2705 34C15.0934 34 13.0269 34.4643 11.1621 35.2969C10.9101 35.4094 10.6113 35.3066 10.4902 35.0586L10.0518 34.1592C9.93071 33.9109 10.0334 33.6107 10.2852 33.4971C12.417 32.5352 14.783 32 17.2705 32Z" fill="oklch(0.3057 0.079 256.22 / 0.13)" class="wd-expressive-accent"></path>
<path d="M38.7305 32C41.2181 32.0001 43.5839 32.5351 45.7158 33.4971C45.9675 33.6106 46.0701 33.911 45.9492 34.1592L45.5107 35.0586C45.3898 35.3066 45.0909 35.4092 44.8389 35.2969C42.9742 34.4642 40.9076 34.0001 38.7305 34C36.5532 34 34.4859 34.4642 32.6211 35.2969C32.3691 35.4091 32.0701 35.3066 31.9492 35.0586L31.7305 34.6084L31.5107 34.1592C31.3899 33.9111 31.4926 33.6107 31.7441 33.4971C33.8762 32.535 36.2427 32 38.7305 32Z" fill="oklch(0.3057 0.079 256.22 / 0.13)" class="wd-expressive-accent"></path>
<path d="M17.2705 26C19.7582 26 22.1239 26.5351 24.2559 27.4971C24.5076 27.6107 24.6102 27.911 24.4893 28.1592L24.0508 29.0586C23.9298 29.3066 23.6309 29.4092 23.3789 29.2969C21.5142 28.4642 19.4477 28 17.2705 28C15.0933 28 13.0269 28.4642 11.1621 29.2969C10.91 29.4095 10.6103 29.3068 10.4893 29.0586L10.2705 28.6084L10.0508 28.1592C9.93001 27.9111 10.0327 27.6107 10.2842 27.4971C12.4162 26.535 14.7827 26 17.2705 26Z" fill="oklch(0.3057 0.079 256.22 / 0.13)" class="wd-expressive-accent"></path>
<path d="M38.7295 26C41.217 26 43.583 26.5352 45.7148 27.4971C45.9666 27.6107 46.0692 27.911 45.9482 28.1592L45.5098 29.0586C45.3888 29.3066 45.0899 29.4093 44.8379 29.2969C42.9732 28.4643 40.9066 28 38.7295 28C36.5524 28.0001 34.4858 28.4643 32.6211 29.2969C32.369 29.4094 32.0692 29.3068 31.9482 29.0586L31.5107 28.1592C31.3897 27.9109 31.4924 27.6107 31.7441 27.4971C33.876 26.5352 36.242 26.0001 38.7295 26Z" fill="oklch(0.3057 0.079 256.22 / 0.13)" class="wd-expressive-accent"></path>
<path d="M17.2695 20C19.757 20 22.123 20.5352 24.2549 21.4971C24.5065 21.6106 24.61 21.911 24.4893 22.1592L24.2695 22.6084L24.0508 23.0586C23.9298 23.3068 23.63 23.4094 23.3779 23.2969C21.5132 22.4643 19.4466 22 17.2695 22C15.0925 22.0001 13.0258 22.4643 11.1611 23.2969C10.9091 23.4093 10.6103 23.3066 10.4893 23.0586L10.0508 22.1592C9.92984 21.911 10.0325 21.6107 10.2842 21.4971C12.416 20.5351 14.782 20.0001 17.2695 20Z" fill="oklch(0.3057 0.079 256.22 / 0.13)" class="wd-expressive-accent"></path>
<path d="M38.7295 20C41.2173 20 43.5838 20.535 45.7158 21.4971C45.9673 21.6107 46.07 21.9111 45.9492 22.1592L45.7295 22.6084L45.5107 23.0586C45.3897 23.3068 45.09 23.4095 44.8379 23.2969C42.9731 22.4643 40.9067 22 38.7295 22C36.5523 22 34.4858 22.4642 32.6211 23.2969C32.3691 23.4092 32.0702 23.3066 31.9492 23.0586L31.5107 22.1592C31.3898 21.911 31.4924 21.6106 31.7441 21.4971C33.8761 20.5351 36.2418 20 38.7295 20Z" fill="oklch(0.3057 0.079 256.22 / 0.13)" class="wd-expressive-accent"></path>
<path d="M17.2705 14C19.7582 14 22.1239 14.5351 24.2559 15.4971C24.5076 15.6107 24.6102 15.911 24.4893 16.1592L24.0508 17.0586C23.9298 17.3066 23.6309 17.4093 23.3789 17.2969C21.5142 16.4642 19.4477 16 17.2705 16C15.0933 16 13.0269 16.4642 11.1621 17.2969C10.91 17.4094 10.6103 17.3068 10.4893 17.0586L10.0518 16.1592C9.93069 15.9109 10.0334 15.6107 10.2852 15.4971C12.4171 14.5352 14.7829 14 17.2705 14Z" fill="oklch(0.3057 0.079 256.22 / 0.13)" class="wd-expressive-accent"></path>
<path d="M38.7305 14C41.218 14.0001 43.5839 14.5351 45.7158 15.4971C45.9675 15.6107 46.0702 15.911 45.9492 16.1592L45.5107 17.0586C45.3897 17.3066 45.0909 17.4093 44.8389 17.2969C42.9741 16.4642 40.9076 16.0001 38.7305 16C36.5533 16 34.4868 16.4643 32.6221 17.2969C32.3701 17.4094 32.0713 17.3066 31.9502 17.0586L31.5117 16.1592C31.3907 15.9109 31.4934 15.6107 31.7451 15.4971C33.877 14.5352 36.2429 14 38.7305 14Z" fill="oklch(0.3057 0.079 256.22 / 0.13)" class="wd-expressive-accent"></path>
</g>
<path d="M38.8906 8.00488C42.9192 8.09586 46.6045 9.58886 49.4727 12.0146C49.8135 12.3029 50 12.7232 50 13.1543V15H51L51.1543 15.0039C52.7394 15.0842 54 16.3949 54 18V44C54 45.6569 52.6569 47 51 47H33.4033C33.0693 47.0001 32.7577 47.1669 32.5723 47.4443L32.4268 47.6631L32.4258 47.6641C31.9042 48.4465 31.0484 48.9359 30.1172 48.9941L29.9297 49H26.0703C25.0674 48.9999 24.1306 48.4987 23.5742 47.6641L23.5732 47.6631L23.4277 47.4443C23.2654 47.202 23.0064 47.0435 22.7207 47.0078L22.5967 47H5C3.39489 47 2.08421 45.7394 2.00391 44.1543L2 44V18C2 16.3431 3.34315 15 5 15H6V13.1543C6.00005 12.7233 6.18664 12.3029 6.52734 12.0146C9.4879 9.51068 13.3192 8.00008 17.5 8L17.8838 8.00391C21.698 8.08853 25.2027 9.4336 28 11.6338C30.8909 9.36 34.5374 8.00008 38.5 8L38.8906 8.00488ZM5 17C4.44772 17 4 17.4477 4 18V44L4.00488 44.1025C4.05621 44.6067 4.48232 45 5 45H22.5967C23.5995 45.0001 24.5364 45.5013 25.0928 46.3359L25.0938 46.3369L25.2383 46.5547C25.4236 46.8328 25.7359 46.9999 26.0703 47H29.9297L30.0537 46.9922C30.3401 46.9564 30.5995 46.798 30.7617 46.5547L30.9072 46.3359C31.4636 45.5013 32.4005 45.0001 33.4033 45H51L51.1025 44.9951C51.6067 44.9438 52 44.5177 52 44V18C52 17.4823 51.6067 17.0562 51.1025 17.0049L51 17H50V41.8291C49.9997 43.1469 48.4937 43.7511 47.5439 43.0322C45.1866 41.248 42.2868 40.1437 39.1338 40.0127L38.5 40C34.8792 40.0001 31.5595 41.2816 28.9678 43.417C28.4059 43.8798 27.594 43.8799 27.0322 43.417C24.6023 41.415 21.5326 40.1632 18.1748 40.0146L17.5 40C14.1022 40.0001 10.9705 41.129 8.45605 43.0322C7.50625 43.7509 6.00032 43.1468 6 41.8291V17H5ZM17.5 10C13.8934 10.0001 10.5874 11.274 8 13.3945V40.9033C10.7127 39.072 13.9821 38.0001 17.5 38C21.019 38.0001 24.2874 39.0747 27 40.9072V13.3906C24.5752 11.404 21.5178 10.1626 18.1748 10.0146L17.5 10ZM38.5 10C34.8942 10.0001 31.587 11.2711 29 13.3906V40.9072C31.7125 39.0746 34.981 38.0001 38.5 38C42.0178 38.0001 45.2873 39.072 48 40.9033V13.3945C45.4127 11.274 42.1067 10.0001 38.5 10Z" fill="oklch(0.3523 0 0 / 1)" class="wd-expressive-fill"></path>
</svg>