<svg role="presentation" width="56" height="56" viewBox="0 0 56 56" xmlns="http://www.w3.org/2000/svg" class="wd-expressive wd-expressive-burst">
<path d="M28 3C41.8071 3 53 14.1929 53 28C53 41.8071 41.8071 53 28 53C14.1929 53 3 41.8071 3 28C3 14.1929 14.1929 3 28 3ZM28.4609 9.10156C28.2895 8.6926 27.7105 8.6926 27.5391 9.10156L24.5654 16.2031C24.4473 16.4852 24.1061 16.5963 23.8447 16.4375L17.2646 12.4395C16.8856 12.2096 16.4167 12.5508 16.5186 12.9824L18.2881 20.4756C18.358 20.7731 18.1464 21.0637 17.8418 21.0889L10.1689 21.7217C9.72708 21.7583 9.54791 22.3092 9.88379 22.5986L15.7197 27.6211C15.9514 27.8206 15.9514 28.1794 15.7197 28.3789L9.88379 33.4014C9.54791 33.6908 9.72708 34.2417 10.1689 34.2783L17.8418 34.9111C18.1464 34.9363 18.358 35.2269 18.2881 35.5244L16.5186 43.0176C16.4167 43.4492 16.8856 43.7904 17.2646 43.5605L23.8447 39.5625C24.1061 39.4037 24.4473 39.5148 24.5654 39.7969L27.5391 46.8984C27.7105 47.3074 28.2895 47.3074 28.4609 46.8984L31.4346 39.7969C31.5527 39.5148 31.8939 39.4037 32.1553 39.5625L38.7354 43.5605C39.1144 43.7904 39.5833 43.4492 39.4814 43.0176L37.7119 35.5244C37.642 35.2269 37.8536 34.9363 38.1582 34.9111L45.8311 34.2783C46.2729 34.2417 46.4521 33.6908 46.1162 33.4014L40.2803 28.3789C40.0486 28.1794 40.0486 27.8206 40.2803 27.6211L46.1162 22.5986C46.4521 22.3092 46.2729 21.7583 45.8311 21.7217L38.1582 21.0889C37.8536 21.0637 37.642 20.7731 37.7119 20.4756L39.4814 12.9824C39.5833 12.5508 39.1144 12.2096 38.7354 12.4395L32.1553 16.4375C31.8939 16.5963 31.5527 16.4852 31.4346 16.2031L28.4609 9.10156Z" fill="oklch(0.3057 0.079 256.22 / 0.13)" class="wd-expressive-accent"></path>
<path d="M26.6678 8.60451C27.2192 7.52509 28.7806 7.52503 29.3319 8.60451L29.3837 8.71584L32.1317 15.2813L38.2157 11.585L38.3231 11.5254C39.4393 10.9586 40.7501 11.9573 40.454 13.2119L38.8182 20.1387L45.913 20.7246C47.2391 20.8341 47.7766 22.4882 46.7684 23.3565L41.3719 28L46.7684 32.6436C47.7767 33.5118 47.2391 35.1659 45.913 35.2754L38.8182 35.8604L40.454 42.7881C40.7598 44.0833 39.353 45.1059 38.2157 44.4151L32.1317 40.7178L29.3837 47.2842C28.8697 48.5119 27.13 48.5119 26.6161 47.2842L23.8671 40.7178L17.7841 44.4151C16.6467 45.106 15.24 44.0833 15.5458 42.7881L17.1805 35.8604L10.0868 35.2754C8.76053 35.166 8.223 33.5118 9.23132 32.6436L14.6268 28L9.23132 23.3565C8.22299 22.4882 8.76054 20.8341 10.0868 20.7246L17.1805 20.1387L15.5458 13.2119C15.24 11.9167 16.6467 10.8941 17.7841 11.585L23.8671 15.2813L26.6161 8.71584L26.6678 8.60451ZM25.4882 16.5899C25.1339 17.4361 24.1091 17.7684 23.3251 17.292L17.7665 13.9141L19.2606 20.2451C19.4714 21.1379 18.8388 22.0093 17.9247 22.085L11.4403 22.6192L16.3719 26.8633C17.067 27.4617 17.067 28.5383 16.3719 29.1367L11.4403 33.3799L17.9247 33.9151C18.8387 33.9907 19.4713 34.8622 19.2606 35.7549L17.7665 42.085L23.3251 38.708L23.4745 38.6279C24.1838 38.2983 25.0338 38.5743 25.4139 39.2578L25.4882 39.4102L27.9999 45.4102L30.5116 39.4102C30.8438 38.6167 31.7654 38.2747 32.5253 38.6279L32.6747 38.708L38.2323 42.085L36.7391 35.7549C36.5284 34.8621 37.1609 33.9907 38.0751 33.9151L44.5585 33.3799L39.6278 29.1367C38.9326 28.5383 38.9326 27.4617 39.6278 26.8633L44.5585 22.6192L38.0751 22.085C37.1609 22.0094 36.5284 21.1379 36.7391 20.2451L38.2323 13.9141L32.6747 17.292C31.8906 17.7684 30.8659 17.4361 30.5116 16.5899L27.9999 10.5889L25.4882 16.5899Z" fill="oklch(0.3523 0 0 / 1)" class="wd-expressive-fill"></path>
</svg>