<svg role="presentation" width="56" height="56" viewBox="0 0 56 56" xmlns="http://www.w3.org/2000/svg" class="wd-expressive wd-expressive-weights">
<g>
<path d="M14 37H20V45H14V41H8V34H14V37Z" fill="oklch(0.3057 0.079 256.22 / 0.13)" class="wd-expressive-accent"></path>
<path d="M48 41H42V45H36V37H42V34H48V41Z" fill="oklch(0.3057 0.079 256.22 / 0.13)" class="wd-expressive-accent"></path>
<path d="M8 31H3.5C3.22386 31 3 30.7761 3 30.5V28.5C3 28.2239 3.22386 28 3.5 28H8V31Z" fill="oklch(0.3057 0.079 256.22 / 0.13)" class="wd-expressive-accent"></path>
<path d="M36 31H20V28H36V31Z" fill="oklch(0.3057 0.079 256.22 / 0.13)" class="wd-expressive-accent"></path>
<path d="M52.5 28C52.7761 28 53 28.2239 53 28.5V30.5C53 30.7761 52.7761 31 52.5 31H48V28H52.5Z" fill="oklch(0.3057 0.079 256.22 / 0.13)" class="wd-expressive-accent"></path>
</g>
<path d="M18 10C19.6569 10 21 11.3431 21 13V24H35V13C35 11.3431 36.3431 10 38 10H40L40.1543 10.0039C41.7394 10.0842 43 11.3949 43 13V15H46C47.6569 15 49 16.3431 49 18V24H52.5C53.3284 24 54 24.6716 54 25.5V30.5C54 31.3284 53.3284 32 52.5 32H49V38C49 39.6569 47.6569 41 46 41H43V43C43 44.6569 41.6569 46 40 46H38C36.3431 46 35 44.6569 35 43V32H21V43C21 44.6569 19.6569 46 18 46H16C14.3431 46 13 44.6569 13 43V41H10C8.39489 41 7.08421 39.7394 7.00391 38.1543L7 38V32H3.5C2.72334 32 2.08461 31.4097 2.00781 30.6533L2 30.5V25.5C2 24.6716 2.67157 24 3.5 24H7V18C7 16.3431 8.34315 15 10 15H13V13C13 11.3431 14.3431 10 16 10H18ZM16 12C15.4477 12 15 12.4477 15 13V43L15.0049 43.1025C15.0562 43.6067 15.4823 44 16 44H18L18.1025 43.9951C18.6067 43.9438 19 43.5177 19 43V13C19 12.4477 18.5523 12 18 12H16ZM38 12C37.4477 12 37 12.4477 37 13V43C37 43.5523 37.4477 44 38 44H40C40.5177 44 40.9438 43.6067 40.9951 43.1025L41 43V13C41 12.4823 40.6067 12.0562 40.1025 12.0049L40 12H38ZM43 39H46L46.1025 38.9951C46.573 38.9472 46.9472 38.573 46.9951 38.1025L47 38V18C47 17.4823 46.6067 17.0562 46.1025 17.0049L46 17H43V39ZM10 17C9.44772 17 9 17.4477 9 18V38L9.00488 38.1025C9.05621 38.6067 9.48232 39 10 39H13V17H10ZM4 30H7V26H4V30ZM21 30H35V26H21V30ZM49 30H52V26H49V30Z" fill="oklch(0.3523 0 0 / 1)" class="wd-expressive-fill"></path>
</svg>