<svg role="presentation" width="56" height="56" viewBox="0 0 56 56" xmlns="http://www.w3.org/2000/svg" class="wd-expressive wd-expressive-document-stack">
<path d="M16.667 44.6758C16.6672 44.9517 16.891 45.1758 17.167 45.1758H40V49C40 50.1046 39.1046 51 38 51H12C10.8954 51 10 50.1046 10 49V12C10 10.8954 10.8954 10 12 10H16.667V44.6758Z" fill="oklch(0.3057 0.079 256.22 / 0.13)" class="wd-expressive-accent"></path>
<g>
<path d="M13.501 10.001C13.7769 10.0012 14.001 10.225 14.001 10.501V11.501C14.001 11.777 13.7769 12.0008 13.501 12.001H12.001C11.4487 12.001 11.001 12.4487 11.001 13.001V49C11.001 49.5523 11.4487 50 12.001 50H37.999L38 48.499C38.0001 48.223 38.2239 47.999 38.5 47.999H39.5C39.7761 47.9991 40 48.2229 40 48.499L39.999 49.999L40 50C40 51.1044 39.1044 51.9998 38 52H12.001C10.3441 52 9.00098 50.6569 9.00098 49V13.001C9.00098 11.3441 10.3441 10.001 12.001 10.001H13.501Z" fill="oklch(0.3523 0 0 / 1)" class="wd-expressive-fill"></path>
<path d="M33.5 31C33.7761 31 34 31.2239 34 31.5V32.5C34 32.7761 33.7761 33 33.5 33H22.5C22.2239 32.9999 22 32.7761 22 32.5V31.5C22 31.2239 22.2239 31.0001 22.5 31H33.5Z" fill="oklch(0.3523 0 0 / 1)" class="wd-expressive-fill"></path>
<path d="M40.499 26C40.7752 26 40.999 26.2239 40.999 26.5V27.5C40.999 27.7761 40.7752 28 40.499 28H22.5C22.2239 27.9999 22 27.7761 22 27.5V26.5C22 26.2239 22.2239 26.0001 22.5 26H40.499Z" fill="oklch(0.3523 0 0 / 1)" class="wd-expressive-fill"></path>
<path d="M40.499 21C40.7752 21 40.999 21.2239 40.999 21.5V22.5C40.999 22.7761 40.7752 23 40.499 23H22.5C22.2239 22.9999 22 22.7761 22 22.5V21.5C22 21.2239 22.2239 21.0001 22.5 21H40.499Z" fill="oklch(0.3523 0 0 / 1)" class="wd-expressive-fill"></path>
<path d="M36.5 13C36.7761 13 37 13.2239 37 13.5V14.5C37 14.7761 36.7761 15 36.5 15H26.5C26.2239 15 26 14.7761 26 14.5V13.5C26 13.2239 26.2239 13 26.5 13H36.5Z" fill="oklch(0.3523 0 0 / 1)" class="wd-expressive-fill"></path>
<path d="M43.999 4C45.6559 4 46.999 5.34315 46.999 7V42.999C46.999 44.6559 45.6559 45.999 43.999 45.999H19C17.3949 45.9989 16.0841 44.7385 16.0039 43.1533L16 42.999V7C16 5.34325 17.3433 4.00016 19 4H43.999ZM19 6C18.4479 6.00016 18 6.44782 18 7V42.999L18.0049 43.1016C18.0561 43.6057 18.4824 43.9989 19 43.999H43.999C44.5513 43.999 44.999 43.5513 44.999 42.999V7C44.999 6.44772 44.5513 6 43.999 6H19Z" fill="oklch(0.3523 0 0 / 1)" class="wd-expressive-fill"></path>
</g>
</svg>