<svg role="presentation" width="56" height="56" viewBox="0 0 56 56" xmlns="http://www.w3.org/2000/svg" class="wd-expressive wd-expressive-universal">
<g>
<path d="M47.8018 33.3066L50.6992 34.083C50.9659 34.1544 51.1248 34.4282 51.0479 34.6934C50.0688 38.0645 48.3612 41.1819 46.0439 43.8242C43.6168 46.5919 40.5855 48.7641 37.1846 50.1729C33.7836 51.5816 30.104 52.189 26.4307 51.9482C22.9237 51.7184 19.5116 50.7208 16.4355 49.0293C16.1939 48.8962 16.1122 48.5906 16.25 48.3516L17.75 45.7529C17.8882 45.514 18.1941 45.4325 18.4365 45.5645C20.9808 46.9497 23.7977 47.7673 26.6924 47.957C29.7533 48.1576 32.8193 47.6514 35.6533 46.4775C38.4876 45.3036 41.0144 43.493 43.0371 41.1865C44.9495 39.0057 46.3631 36.4365 47.1826 33.6582C47.2607 33.3933 47.535 33.2352 47.8018 33.3066Z" fill="oklch(0.3057 0.079 256.22 / 0.13)" class="wd-expressive-accent"></path>
<path d="M10.6797 11.3867C10.8708 11.1875 11.1876 11.1876 11.3828 11.3828L13.5039 13.5039C13.6991 13.6992 13.6991 14.0158 13.5088 14.2158C9.9767 17.9289 8 22.8626 8 28C8 33.1374 9.9767 38.0711 13.5088 41.7842C13.6991 41.9842 13.6991 42.3008 13.5039 42.4961L11.3828 44.6172C11.1876 44.8124 10.8708 44.8125 10.6797 44.6133C6.3979 40.1494 4 34.1983 4 28C4 21.8017 6.3979 15.8506 10.6797 11.3867Z" fill="oklch(0.3057 0.079 256.22 / 0.13)" class="wd-expressive-accent"></path>
<path d="M17.1748 34.25C17.4139 34.1122 17.7183 34.1947 17.8662 34.4277C18.6197 35.6154 19.5775 36.6628 20.6953 37.5205C21.9454 38.4797 23.3725 39.183 24.8945 39.5908C26.4166 39.9986 28.0041 40.1031 29.5664 39.8975C30.9632 39.7136 32.3154 39.2855 33.5615 38.6338C33.8061 38.5059 34.1118 38.5863 34.25 38.8252L35.75 41.4238C35.8878 41.6629 35.8065 41.9691 35.5635 42.0996C33.8614 43.0126 32.0065 43.6108 30.0889 43.8633C28.0059 44.1375 25.8888 43.9988 23.8594 43.4551C21.8298 42.9113 19.9267 41.9725 18.2598 40.6934C16.7252 39.5158 15.418 38.0704 14.4004 36.4287C14.2552 36.1941 14.3373 35.8881 14.5762 35.75L17.1748 34.25Z" fill="oklch(0.3057 0.079 256.22 / 0.13)" class="wd-expressive-accent"></path>
<path d="M32.6211 12.6816C35.1453 13.4433 37.4455 14.8185 39.3135 16.6865C41.2994 18.6725 42.7282 21.1465 43.4551 23.8594C44.1818 26.5719 44.1818 29.4281 43.4551 32.1406C42.7713 34.6924 41.4664 37.0324 39.6611 38.9541C39.4721 39.1554 39.1552 39.1552 38.96 38.96L36.8389 36.8389C36.6436 36.6436 36.6441 36.3272 36.8311 36.124C38.1408 34.7002 39.0888 32.9789 39.5908 31.1055C40.1359 29.071 40.1359 26.929 39.5908 24.8945C39.0456 22.8599 37.9748 21.0041 36.4854 19.5146C35.114 18.1433 33.4321 17.1269 31.5859 16.5488C31.3224 16.4663 31.1629 16.1925 31.2344 15.9258L32.0107 13.0283C32.0822 12.7617 32.3569 12.6022 32.6211 12.6816Z" fill="oklch(0.3057 0.079 256.22 / 0.13)" class="wd-expressive-accent"></path>
<path d="M25 23C29.4183 23 33 26.5817 33 31C33 32.4385 32.6177 33.7867 31.9531 34.9531C30.7867 35.6177 29.4385 36 28 36C23.5817 36 20 32.4183 20 28C20 26.5614 20.3812 25.2124 21.0459 24.0459C22.2124 23.3812 23.5614 23 25 23Z" fill="oklch(0.3057 0.079 256.22 / 0.13)" class="wd-expressive-accent"></path>
<path d="M27.5 12.0078C27.776 11.9992 28 12.2239 28 12.5V15.5C28 15.7761 27.7759 15.9992 27.5 16.0107C25.8314 16.0803 24.1935 16.497 22.6924 17.2373C21.0416 18.0514 19.6 19.235 18.4795 20.6953C17.3591 22.1555 16.5895 23.8541 16.2305 25.6592C15.904 27.3006 15.9254 28.9905 16.29 30.6201C16.3502 30.8895 16.1925 31.163 15.9258 31.2344L13.0283 32.0107C12.7616 32.0822 12.4859 31.9241 12.4229 31.6553C11.9013 29.4326 11.8615 27.1219 12.3076 24.8789C12.7864 22.4719 13.8126 20.2068 15.3066 18.2598C16.8006 16.3128 18.7228 14.7358 20.9238 13.6504C22.9752 12.6388 25.2177 12.0792 27.5 12.0078Z" fill="oklch(0.3057 0.079 256.22 / 0.13)" class="wd-expressive-accent"></path>
<path d="M28 4C32.2129 4 36.3515 5.10938 40 7.21582C43.6483 9.32222 46.6778 12.3517 48.7842 16C50.8072 19.504 51.9109 23.4602 51.9951 27.5C52.0009 27.7761 51.7761 28 51.5 28H48.5C48.2239 28 48.001 27.7761 47.9941 27.5C47.9107 24.1624 46.9923 20.8959 45.3203 18C43.565 14.9597 41.0403 12.435 38 10.6797C34.9596 8.92432 31.5107 8 28 8C24.6561 8 21.3686 8.83905 18.4365 10.4355C18.1941 10.5675 17.8882 10.486 17.75 10.2471L16.25 7.64844C16.1122 7.40943 16.1939 7.10379 16.4355 6.9707C19.9762 5.02368 23.9539 4 28 4Z" fill="oklch(0.3057 0.079 256.22 / 0.13)" class="wd-expressive-accent"></path>
</g>
<g>
<path d="M50.6982 34.082L51.665 34.3408C51.9317 34.4123 52.0912 34.687 52.0146 34.9521C50.9958 38.4714 49.2143 41.7258 46.7959 44.4834C44.2676 47.3664 41.11 49.6292 37.5674 51.0967C34.0247 52.5641 30.1916 53.197 26.3652 52.9463C22.7052 52.7064 19.1445 51.6645 15.9355 49.8965C15.6938 49.7633 15.6122 49.4569 15.75 49.2178L16.25 48.3516C16.3882 48.1126 16.6936 48.0313 16.9355 48.1641C19.8787 49.779 23.1421 50.7313 26.4961 50.9512C30.0163 51.1818 33.5425 50.599 36.8018 49.249C40.061 47.899 42.9659 45.8173 45.292 43.165C47.5081 40.6381 49.1419 37.6575 50.0811 34.4346C50.1582 34.1697 50.4317 34.011 50.6982 34.082Z" fill="oklch(0.3523 0 0 / 1)" class="wd-expressive-fill"></path>
<path d="M9.97266 10.6797C10.164 10.4807 10.4805 10.4806 10.6758 10.6758L11.3828 11.3828C11.578 11.5781 11.5776 11.8943 11.3867 12.0938C7.29237 16.3699 5 22.0669 5 28C5 33.9331 7.29237 39.6301 11.3867 43.9062C11.5776 44.1057 11.578 44.4219 11.3828 44.6172L10.6758 45.3242C10.4805 45.5194 10.164 45.5193 9.97266 45.3203C5.50342 40.6688 3 34.4635 3 28C3 21.5365 5.50342 15.3312 9.97266 10.6797Z" fill="oklch(0.3523 0 0 / 1)" class="wd-expressive-fill"></path>
<path d="M14.5771 35.75C14.8162 35.6122 15.1207 35.6945 15.2666 35.9287C16.2181 37.4569 17.4378 38.8028 18.8682 39.9004C20.4309 41.0995 22.2155 41.9794 24.1182 42.4893C26.0207 42.999 28.0052 43.1292 29.958 42.8721C31.7454 42.6367 33.4744 42.081 35.0625 41.2334C35.306 41.1034 35.6119 41.1839 35.75 41.4229L36.25 42.29C36.3878 42.5291 36.3063 42.8348 36.0635 42.9658C34.2474 43.9442 32.2667 44.5849 30.2188 44.8545C28.0054 45.1459 25.756 44.9987 23.5996 44.4209C21.4435 43.8431 19.4223 42.8461 17.6514 41.4873C16.0127 40.2299 14.6177 38.6849 13.5342 36.9297C13.3892 36.6948 13.471 36.3881 13.71 36.25L14.5771 35.75Z" fill="oklch(0.3523 0 0 / 1)" class="wd-expressive-fill"></path>
<path d="M32.8809 11.7158C35.5745 12.5233 38.0284 13.9874 40.0205 15.9795C42.1305 18.0895 43.6485 20.7173 44.4209 23.5996C45.1932 26.4821 45.1932 29.5179 44.4209 32.4004C43.6917 35.1215 42.2982 37.6162 40.3691 39.6621C40.1797 39.863 39.8623 39.8622 39.667 39.667L38.96 38.96C38.7647 38.7647 38.7655 38.4487 38.9541 38.2471C40.6354 36.4498 41.851 34.264 42.4893 31.8818C43.1706 29.3388 43.1706 26.6612 42.4893 24.1182C41.8078 21.5748 40.4683 19.2554 38.6064 17.3936C36.8626 15.6497 34.717 14.3643 32.3623 13.6484C32.0982 13.5681 31.9403 13.294 32.0117 13.0273L32.1406 12.5449L32.2705 12.0615C32.3422 11.795 32.6165 11.6366 32.8809 11.7158Z" fill="oklch(0.3523 0 0 / 1)" class="wd-expressive-fill"></path>
<path d="M28 19C29.1819 19 30.3524 19.2333 31.4443 19.6855C32.5361 20.1378 33.5286 20.8001 34.3643 21.6357C35.1999 22.4714 35.8622 23.4639 36.3145 24.5557C36.7667 25.6476 37 26.8181 37 28C37 29.1819 36.7667 30.3524 36.3145 31.4443C35.8622 32.5361 35.1999 33.5286 34.3643 34.3643C33.5286 35.1999 32.5361 35.8622 31.4443 36.3145C30.3524 36.7667 29.1819 37 28 37C26.8181 37 25.6476 36.7667 24.5557 36.3145C23.4639 35.8622 22.4714 35.1999 21.6357 34.3643C20.8001 33.5286 20.1378 32.5361 19.6855 31.4443C19.2333 30.3524 19 29.1819 19 28C19 26.8181 19.2333 25.6476 19.6855 24.5557C20.1378 23.4639 20.8001 22.4714 21.6357 21.6357C22.4714 20.8001 23.4639 20.1378 24.5557 19.6855C25.6476 19.2333 26.8181 19 28 19ZM28 21C27.0807 21 26.1706 21.1814 25.3213 21.5332C24.472 21.885 23.6998 22.3998 23.0498 23.0498C22.3998 23.6998 21.885 24.472 21.5332 25.3213C21.1814 26.1706 21 27.0807 21 28C21 28.9193 21.1814 29.8294 21.5332 30.6787C21.885 31.528 22.3998 32.3002 23.0498 32.9502C23.6998 33.6002 24.472 34.115 25.3213 34.4668C26.1706 34.8186 27.0807 35 28 35C28.9193 35 29.8294 34.8186 30.6787 34.4668C31.528 34.115 32.3002 33.6002 32.9502 32.9502C33.6002 32.3002 34.115 31.528 34.4668 30.6787C34.8186 29.8294 35 28.9193 35 28L34.9912 27.6562C34.9518 26.8544 34.7747 26.0645 34.4668 25.3213C34.115 24.472 33.6002 23.6998 32.9502 23.0498C32.3002 22.3998 31.528 21.885 30.6787 21.5332C29.8294 21.1814 28.9193 21 28 21Z" fill="oklch(0.3523 0 0 / 1)" class="wd-expressive-fill"></path>
<path d="M27.5 11.0078C27.776 10.9997 28 11.2239 28 11.5V12.5C28 12.7761 27.776 12.9996 27.5 13.0088C25.371 13.0798 23.2791 13.603 21.3652 14.5469C19.3019 15.5645 17.5002 17.043 16.0996 18.8682C14.699 20.6934 13.737 22.8168 13.2881 25.0732C12.8718 27.166 12.9074 29.3218 13.3896 31.3965C13.4522 31.6654 13.2941 31.9403 13.0273 32.0117L12.5449 32.1406L12.0625 32.2705C11.7957 32.3423 11.5207 32.1839 11.457 31.915C10.8959 29.5438 10.8501 27.0773 11.3262 24.6836C11.8349 22.1262 12.9254 19.72 14.5127 17.6514C16.1001 15.5826 18.1428 13.9062 20.4814 12.7529C22.6704 11.6735 25.0643 11.0795 27.5 11.0078Z" fill="oklch(0.3523 0 0 / 1)" class="wd-expressive-fill"></path>
<path d="M28 3C32.3884 3 36.6995 4.1554 40.5 6.34961C44.3004 8.54379 47.4562 11.6996 49.6504 15.5C51.7612 19.156 52.9108 23.2846 52.9951 27.5C53.0006 27.7761 52.7761 28 52.5 28H51.5C51.2239 28 51.0001 27.7761 50.9941 27.5C50.9102 23.6358 49.8542 19.8519 47.9189 16.5C45.9003 13.0036 42.9964 10.0997 39.5 8.08105C36.0036 6.06244 32.0373 5 28 5C24.1294 5 20.3241 5.97658 16.9355 7.83594C16.6936 7.96868 16.3882 7.88735 16.25 7.64844L15.75 6.78223C15.6122 6.54312 15.6938 6.23672 15.9355 6.10352C19.6283 4.0689 23.7785 3 28 3Z" fill="oklch(0.3523 0 0 / 1)" class="wd-expressive-fill"></path>
</g>
</svg>