<svg role="presentation" width="56" height="56" viewBox="0 0 56 56" xmlns="http://www.w3.org/2000/svg" class="wd-expressive wd-expressive-ribbon-star">
<g>
<path d="M28.8994 20.4131L34.4961 21.2285L32.2793 23.3906L33.1191 28.2832C33.1885 28.6911 32.7601 29.0019 32.3936 28.8096L28 26.5L23.6064 28.8096C23.2399 29.0021 22.8114 28.6913 22.8809 28.2832L23.7207 23.3906L20.166 19.9258C19.8698 19.6365 20.0336 19.133 20.4434 19.0732L25.3545 18.3594L26.624 15.7861L28.8994 20.4131Z" fill="oklch(0.3057 0.079 256.22 / 0.13)" class="wd-expressive-accent"></path>
<path d="M28 6.00098C28.4139 6.001 28.8255 6.01598 29.2314 6.04688C31.1273 6.19118 32.9313 6.6664 34.585 7.41406C34.703 7.46742 34.821 7.522 34.9375 7.57812C35.287 7.74655 35.63 7.9276 35.9648 8.12012C36.1879 8.24842 36.4079 8.3829 36.624 8.52148C37.1648 8.86822 37.684 9.24686 38.1777 9.6543C38.9678 10.3064 39.6947 11.0332 40.3467 11.8232C40.7541 12.317 41.1328 12.8362 41.4795 13.377C41.5487 13.4849 41.6169 13.5944 41.6836 13.7041C42.2179 14.5836 42.6705 15.5191 43.0293 16.499C43.0742 16.6215 43.1182 16.7452 43.1602 16.8691C43.3697 17.4885 43.5426 18.1256 43.6758 18.7764C43.7023 18.9061 43.7276 19.0371 43.751 19.168C43.8683 19.8246 43.945 20.4959 43.9795 21.1777C43.9933 21.45 44 21.7253 44 22.001C43.9999 23.6254 43.7578 25.1937 43.3076 26.6709C43.0814 27.4131 42.8015 28.1321 42.4746 28.8242C42.2738 29.2493 42.0555 29.6648 41.8193 30.0684C41.5802 30.4771 41.3242 30.8751 41.0508 31.2598C40.8837 31.4948 40.7095 31.7248 40.5303 31.9502C40.4466 32.0554 40.3616 32.1597 40.2754 32.2627C39.9288 32.6768 39.5609 33.0723 39.1748 33.4492C38.9313 33.687 38.6788 33.9153 38.4209 34.1377L45.6211 41.9795L39.1885 41.9521C39.0085 41.9515 38.8413 42.0478 38.752 42.2041L37.1816 44.9512C37.0041 44.9527 36.8394 45.0488 36.751 45.2031L33.3281 51.1914C33.1239 51.192 32.9201 51.0714 32.8477 50.8428L28.8057 37.9795C28.6736 37.986 28.541 37.9918 28.4082 37.9951C28.273 37.9985 28.137 38 28.001 38C27.9825 38 27.9638 37.9991 27.9453 37.999L23.9102 50.8428C23.7791 51.2579 23.216 51.3185 22.999 50.9414L18.0059 42.2031C17.9165 42.0473 17.7489 41.9508 17.5693 41.9512L10.8047 41.9805L17.8184 34.3408C14.2657 31.4062 12.0012 26.9678 12.001 22C12.0011 19.3771 12.6322 16.9013 13.751 14.7168C13.8111 14.5995 13.8727 14.4828 13.9355 14.3672C14.0955 14.0731 14.2649 13.7846 14.4424 13.502C14.537 13.3513 14.6339 13.2019 14.7334 13.0547C15.0208 12.6292 15.3283 12.2182 15.6543 11.8232C15.9392 11.4781 16.2384 11.1452 16.5508 10.8252C17.0817 10.2813 17.6515 9.77568 18.2549 9.31152C18.7825 8.9057 19.3354 8.53094 19.9121 8.19238C22.2852 6.7992 25.0494 6.00113 28 6.00098ZM28.001 10C21.3738 10 16.0013 15.3729 16.001 22C16.0013 28.6272 21.3738 34 28.001 34C34.6277 33.9995 40.0007 28.6268 40.001 22C40.0007 15.3732 34.6277 10.0005 28.001 10Z" fill="oklch(0.3057 0.079 256.22 / 0.13)" class="wd-expressive-accent"></path>
</g>
<g>
<path d="M26.7091 13.3643C27.3032 12.3523 28.8117 12.3862 29.3448 13.4658L31.3087 17.4453L35.7003 18.084C36.9303 18.2629 37.4222 19.7748 36.5323 20.6426L33.3536 23.7383L34.1046 28.1133C34.3145 29.3385 33.0281 30.2736 31.9278 29.6953L27.9991 27.6289L24.0723 29.6953C22.972 30.2736 21.6856 29.3384 21.8956 28.1133L22.6456 23.7383L19.4678 20.6426C18.5777 19.7749 19.069 18.2631 20.2989 18.084L24.6905 17.4453L26.6553 13.4658L26.7091 13.3643ZM26.252 18.8018C26.1064 19.0966 25.8244 19.3011 25.4991 19.3486L21.5889 19.916L24.418 22.6748C24.6536 22.9044 24.7616 23.2353 24.7061 23.5596L24.0382 27.4531L27.5343 25.6152L27.6466 25.5645C27.9121 25.4642 28.2102 25.4814 28.4649 25.6152L31.961 27.4531L31.294 23.5596C31.2385 23.2353 31.3466 22.9045 31.5821 22.6748L34.4102 19.916L30.501 19.3486C30.1755 19.3012 29.8938 19.0967 29.7481 18.8018L28.0001 15.2588L26.252 18.8018Z" fill="oklch(0.3523 0 0 / 1)" class="wd-expressive-fill"></path>
<path d="M28.0001 5C37.3887 5.00018 44.9999 12.6114 45.0001 22C45 25.5155 43.9326 28.7814 42.1046 31.4922L50.3585 40.4814C51.243 41.4456 50.5547 43.0007 49.2462 42.9951L39.4737 42.9512L34.626 51.4365C33.9766 52.5725 32.2853 52.3907 31.8927 51.1426L28.378 39.957L24.8634 51.1426C24.4706 52.3906 22.7793 52.5726 22.13 51.4365L17.2813 42.9512L7.50886 42.9951C6.20079 43.0003 5.51333 41.4454 6.39753 40.4814L14.2208 31.957C12.195 29.1585 11.0001 25.7189 11.0001 22C11.0002 12.6113 18.6114 5.00005 28.0001 5ZM40.8712 33.1045C38.1911 36.208 34.4082 38.3312 30.1309 38.8662L33.4571 49.4502L37.8829 41.7061C38.1512 41.2373 38.6514 40.948 39.1915 40.9502L48.1114 40.9893L40.8712 33.1045ZM8.6446 40.9893L17.5635 40.9502C18.1039 40.9478 18.6048 41.237 18.8731 41.7061L23.2989 49.4492L26.5997 38.9414C22.2198 38.5842 18.3101 36.5678 15.5001 33.5205L8.6446 40.9893ZM28.0001 7C19.7159 7.00005 13.0002 13.7159 13.0001 22C13.0002 30.2841 19.7159 36.9999 28.0001 37C36.2841 36.9998 42.9999 30.284 43.0001 22C42.9999 13.716 36.2841 7.00018 28.0001 7Z" fill="oklch(0.3523 0 0 / 1)" class="wd-expressive-fill"></path>
</g>
</svg>