<svg role="presentation" width="56" height="56" viewBox="0 0 56 56" xmlns="http://www.w3.org/2000/svg" class="wd-expressive wd-expressive-learning-media">
<g>
<path d="M10 45C10 46.6569 11.3431 48 13 48H26C26 49.6569 24.6569 51 23 51H10C8.34315 51 7 49.6569 7 48V22C7 20.3949 8.26055 19.0842 9.8457 19.0039L10 19V45Z" fill="oklch(0.3057 0.079 256.22 / 0.13)" class="wd-expressive-accent"></path>
<path d="M50 44C50 45.1046 49.1046 46 48 46H29.5C29.2239 46 29 45.7761 29 45.5V43.5C29 43.2239 29.2239 43 29.5 43H48C49.1046 43 50 42.1046 50 41V44Z" fill="oklch(0.3057 0.079 256.22 / 0.13)" class="wd-expressive-accent"></path>
<path d="M45.2227 30.5186C45.5549 30.297 46 30.5352 46 30.9346V39.0654C46 39.4648 45.5549 39.703 45.2227 39.4814L41.2227 36.8154C41.0837 36.7228 41.0001 36.5665 41 36.3994V38.5C41 38.7761 40.7761 39 40.5 39H32.5C32.2239 39 32 38.7761 32 38.5V31.5C32 31.2239 32.2239 31 32.5 31H40.5C40.7761 31 41 31.2239 41 31.5V33.6006C41.0001 33.4335 41.0837 33.2772 41.2227 33.1846L45.2227 30.5186Z" fill="oklch(0.3057 0.079 256.22 / 0.13)" class="wd-expressive-accent"></path>
<path d="M19.5 4C20.3284 4 21 4.67157 21 5.5V15.5C21 15.7761 20.7761 16 20.5 16H18.5C18.2239 16 18 15.7761 18 15.5V5.5C18 4.67157 18.6716 4 19.5 4Z" fill="oklch(0.3057 0.079 256.22 / 0.13)" class="wd-expressive-accent"></path>
</g>
<g>
<path d="M18.5 45C18.7761 45 19 45.2239 19 45.5V46.5C19 46.7761 18.7761 47 18.5 47H11.5C11.2239 47 11 46.7761 11 46.5V45.5C11 45.2239 11.2239 45 11.5 45H18.5Z" fill="oklch(0.3523 0 0 / 1)" class="wd-expressive-fill"></path>
<path d="M22.5 41C22.7761 41 23 41.2239 23 41.5V42.5C23 42.7761 22.7761 43 22.5 43H11.5C11.2239 43 11 42.7761 11 42.5V41.5C11 41.2239 11.2239 41 11.5 41H22.5Z" fill="oklch(0.3523 0 0 / 1)" class="wd-expressive-fill"></path>
<path d="M17.5 26C18.3284 26 19 26.6716 19 27.5C19 28.3284 18.3284 29 17.5 29C16.6716 29 16 28.3284 16 27.5C16 26.6716 16.6716 26 17.5 26Z" fill="oklch(0.3523 0 0 / 1)" class="wd-expressive-fill"></path>
<path d="M18.5 22C18.7761 22 19 22.2239 19 22.5V23.5C19 23.7761 18.7761 24 18.5 24H14.5C14.2239 24 14 23.7761 14 23.5V22.5C14 22.2239 14.2239 22 14.5 22H18.5Z" fill="oklch(0.3523 0 0 / 1)" class="wd-expressive-fill"></path>
<path d="M23 18C25.2091 18 27 19.7909 27 22V48C27 50.2091 25.2091 52 23 52H10C7.79086 52 6 50.2091 6 48V22C6 19.7909 7.79086 18 10 18H23ZM8 38.0527V48C8 49.1046 8.89543 50 10 50H23C24.1046 50 25 49.1046 25 48V38.0527L21 32.0527L18.7012 35.5L19.5547 36.7793C19.7078 37.0089 19.6454 37.3194 19.416 37.4727L18.584 38.0273C18.3542 38.1805 18.0438 38.1184 17.8906 37.8887L13 30.5527L8 38.0527ZM10 20C8.89543 20 8 20.8954 8 22V34.4473L11.752 28.8193L11.8711 28.6631C12.5062 27.9322 13.6914 27.9843 14.248 28.8193L17.5 33.6973L19.752 30.3193C20.3457 29.429 21.6543 29.4289 22.248 30.3193L25 34.4473V22C25 20.8954 24.1046 20 23 20H10Z" fill="oklch(0.3523 0 0 / 1)" class="wd-expressive-fill"></path>
<path d="M49 23C50.6569 23 52 24.3431 52 26V44C52 45.6569 50.6569 47 49 47H29.5C29.2239 47 29 46.7761 29 46.5V45.5C29 45.2239 29.2239 45 29.5 45H49C49.5523 45 50 44.5523 50 44V26C50 25.4477 49.5523 25 49 25H29.5C29.2239 25 29 24.7761 29 24.5V23.5C29 23.2239 29.2239 23 29.5 23H49Z" fill="oklch(0.3523 0 0 / 1)" class="wd-expressive-fill"></path>
<path d="M44.7627 29.6279C45.7472 29.0671 47 29.7741 47 30.9346V39.0654C47 40.2635 45.6648 40.978 44.668 40.3135L41.998 38.5332C41.9804 39.3463 41.3173 40 40.5 40H32.5C31.6716 40 31 39.3284 31 38.5V31.5C31 30.6716 31.6716 30 32.5 30H40.5C41.317 30 41.9799 30.6532 41.998 31.4658L44.668 29.6865L44.7627 29.6279ZM42 33.8682V36.1309L45 38.1309V31.8682L42 33.8682ZM33 38H40V32H33V38Z" fill="oklch(0.3523 0 0 / 1)" class="wd-expressive-fill"></path>
<path d="M39 3C40.6569 3 42 4.34315 42 6V20.5C42 20.7761 41.7761 21 41.5 21H40.5C40.2239 21 40 20.7761 40 20.5V6C40 5.44771 39.5523 5 39 5H20C19.4477 5 19 5.44772 19 6V15.5C19 15.7761 18.7761 16 18.5 16H17.5C17.2239 16 17 15.7761 17 15.5V6C17 4.34315 18.3431 3 20 3H39Z" fill="oklch(0.3523 0 0 / 1)" class="wd-expressive-fill"></path>
<path d="M29.5 13C29.7761 13 30 13.2239 30 13.5V14.5C30 14.7761 29.7761 15 29.5 15H22.5C22.2239 15 22 14.7761 22 14.5V13.5C22 13.2239 22.2239 13 22.5 13H29.5Z" fill="oklch(0.3523 0 0 / 1)" class="wd-expressive-fill"></path>
<path d="M36.5 9C36.7761 9 37 9.22386 37 9.5V10.5C37 10.7761 36.7761 11 36.5 11H22.5C22.2239 11 22 10.7761 22 10.5V9.5C22 9.22386 22.2239 9 22.5 9H36.5Z" fill="oklch(0.3523 0 0 / 1)" class="wd-expressive-fill"></path>
</g>
</svg>