<svg role="presentation" width="56" height="56" viewBox="0 0 56 56" xmlns="http://www.w3.org/2000/svg" class="wd-expressive wd-expressive-users-discussion">
<g>
<path d="M13.4912 41.8037C12.2237 42.4526 11.0512 43.2604 10 44.2012V50H32V48H15L14.7959 47.9893C13.7872 47.887 13 47.0357 13 46V43.0957C13 42.6153 13.1712 42.1512 13.4912 41.8037Z" fill="oklch(0.3057 0.079 256.22 / 0.13)" class="wd-expressive-accent"></path>
<path d="M35.5 47.999C35.224 47.999 35.0002 48.2231 35 48.499V49.499C35 49.7752 35.2239 49.999 35.5 49.999H45.5C45.7761 49.999 46 49.7752 46 49.499V48.499C45.9998 48.2231 45.776 47.999 45.5 47.999H35.5Z" fill="oklch(0.3057 0.079 256.22 / 0.13)" class="wd-expressive-accent"></path>
<path d="M35.0176 32.6289C35.0599 32.1701 34.5944 31.7724 34.2588 32.0879C33.4843 32.8169 33.0002 33.8515 33 34.999C33 37.2082 34.7909 38.999 37 38.999C38.3201 38.999 39.4895 38.3592 40.2178 37.373C40.3363 37.2125 40.1996 36.999 40 36.999C39.8519 36.999 39.7054 36.9905 39.5615 36.9746C39.5206 36.9701 39.4794 36.9701 39.4385 36.9746C39.2946 36.9905 39.1481 36.999 39 36.999C36.7909 36.999 35 35.2082 35 32.999C35 32.8743 35.0063 32.7507 35.0176 32.6289Z" fill="oklch(0.3057 0.079 256.22 / 0.13)" class="wd-expressive-accent"></path>
<path d="M19.8193 27.1406C17.6278 27.6712 16 29.6453 16 32C16 34.7614 18.2386 37 21 37C22.2079 37 23.3155 36.5714 24.1797 35.8584C23.8013 35.9499 23.4065 36 23 36C20.2386 36 18 33.7614 18 31C18 29.4465 18.7078 28.0577 19.8193 27.1406Z" fill="oklch(0.3057 0.079 256.22 / 0.13)" class="wd-expressive-accent"></path>
<path d="M46.9902 20.2412C46.4604 20.712 45.7645 21 45 21H33C32.6419 21 32.2998 20.9334 31.9814 20.8184C31.3384 21.3503 30.5863 21.7537 29.7646 21.9951C30.314 22.6102 31.1104 23 32 23H35.1523C35.3779 23.8995 35.8415 24.7516 36.5449 25.4551C37.5054 26.4156 38.7428 26.9304 40 27V23H44C45.5756 23 46.8674 21.7853 46.9902 20.2412Z" fill="oklch(0.3057 0.079 256.22 / 0.13)" class="wd-expressive-accent"></path>
<path d="M11.1299 4.12988C9.8976 4.50297 9 5.64592 9 7V16C9 17.6569 10.3431 19 12 19H17V23C18.5085 22.9164 19.993 22.2988 21.1455 21.1465C21.7777 20.5143 22.248 19.7812 22.5586 19H28C29.3542 19 30.4981 18.1025 30.8711 16.8701C30.5953 16.9537 30.3031 17 30 17H14C12.3431 17 11 15.6569 11 14V5C11 4.69723 11.0465 4.40542 11.1299 4.12988Z" fill="oklch(0.3057 0.079 256.22 / 0.13)" class="wd-expressive-accent"></path>
</g>
<g>
<path d="M36.6514 41.0039C35.8393 41.0231 35.0424 41.1091 34.2676 41.2568C33.9966 41.3087 33.8287 41.5776 33.8896 41.8467L34 42.335L34.1113 42.8223C34.1725 43.0913 34.4396 43.259 34.7109 43.209C35.4523 43.0719 36.2175 43 37 43C37.1948 43 37.3886 43.0039 37.5811 43.0127C40.3988 43.1417 42.9702 44.2052 45 45.8984V49H35.5C35.2239 49 35 49.2239 35 49.5V50.5C35 50.7761 35.2239 51 35.5 51H45.5C46.3284 51 47 50.3284 47 49.5V45.6611C47 45.2376 46.8199 44.823 46.4863 44.5342C44.6056 42.9059 42.3003 41.7546 39.7598 41.2646C39.7506 41.2623 39.7418 41.2586 39.7324 41.2568C39.6051 41.2326 39.4771 41.2104 39.3486 41.1895C39.3181 41.1845 39.2875 41.1796 39.2568 41.1748C39.1763 41.1622 39.0956 41.1499 39.0146 41.1387C38.9805 41.1339 38.9463 41.1295 38.9121 41.125C38.8439 41.116 38.7755 41.1076 38.707 41.0996C38.6148 41.0888 38.5224 41.0784 38.4297 41.0693C38.4124 41.0676 38.3952 41.0661 38.3779 41.0645C38.3016 41.0573 38.2251 41.0519 38.1484 41.0459C38.1065 41.0426 38.0645 41.0381 38.0225 41.0352C37.9672 41.0313 37.9118 41.0286 37.8564 41.0254C37.7999 41.0221 37.7433 41.0183 37.6865 41.0156C37.6394 41.0134 37.5922 41.0125 37.5449 41.0107C37.3641 41.0041 37.1824 41 37 41L36.6514 41.0039Z" fill="oklch(0.3523 0 0 / 1)" class="wd-expressive-fill"></path>
<path d="M21 39C16.5186 39 12.4284 40.6856 9.33301 43.4561C9.12112 43.6457 9.00007 43.9168 9 44.2012V50C9 50.2652 9.10543 50.5195 9.29297 50.707C9.48051 50.8946 9.73478 51 10 51H32C32.5523 51 33 50.5523 33 50V44.2012C32.9999 43.9168 32.8789 43.6457 32.667 43.4561C29.5716 40.6856 25.4814 39 21 39ZM21 41C24.8119 41 28.3002 42.375 31 44.6572V49H11V44.6572C13.6998 42.375 17.1881 41 21 41Z" fill="oklch(0.3523 0 0 / 1)" class="wd-expressive-fill"></path>
<path d="M37 30C34.2386 30 32 32.2386 32 35C32 37.7614 34.2386 40 37 40C39.7614 40 42 37.7614 42 35C42 32.2386 39.7614 30 37 30ZM37 32C38.6569 32 40 33.3431 40 35C40 36.6569 38.6569 38 37 38C35.3431 38 34 36.6569 34 35C34 33.3431 35.3431 32 37 32Z" fill="oklch(0.3523 0 0 / 1)" class="wd-expressive-fill"></path>
<path d="M21 26C17.6863 26 15 28.6863 15 32C15 35.3137 17.6863 38 21 38C24.3137 38 27 35.3137 27 32C27 28.6863 24.3137 26 21 26ZM21 28C23.2091 28 25 29.7909 25 32C25 34.2091 23.2091 36 21 36C18.7909 36 17 34.2091 17 32C17 29.7909 18.7909 28 21 28Z" fill="oklch(0.3523 0 0 / 1)" class="wd-expressive-fill"></path>
<path d="M34.5 9C34.2239 9 34 9.22386 34 9.5V10.5C34 10.7761 34.2239 11 34.5 11H44L44.2041 11.0107C45.2128 11.113 46 11.9643 46 13V20L45.9893 20.2041C45.8938 21.1457 45.1457 21.8938 44.2041 21.9893L44 22H40C39.4477 22 39 22.4477 39 23V25.8086C38.3607 25.6076 37.759 25.2551 37.252 24.748C36.6806 24.1766 36.305 23.4863 36.1221 22.7568C36.0105 22.312 35.6109 22 35.1523 22H32L31.8467 21.9941C31.4923 21.9673 31.1638 21.848 30.8848 21.6602C30.6557 21.5061 30.3414 21.4819 30.1357 21.666L29.3906 22.333C29.185 22.5171 29.166 22.8363 29.374 23.0176C30.0321 23.5902 30.8813 23.952 31.8125 23.9951L32 24H34.4248C34.7321 24.7878 35.2026 25.5268 35.8379 26.1621C36.979 27.3033 38.4512 27.9152 39.9443 27.998C40.2187 28.0132 40.4879 27.9154 40.6875 27.7266C40.8871 27.5377 41 27.2748 41 27V24H44L44.2061 23.9951C46.2512 23.8913 47.8913 22.2512 47.9951 20.2061L48 20V13C48 10.86 46.3194 9.11211 44.2061 9.00488L44 9H34.5Z" fill="oklch(0.3523 0 0 / 1)" class="wd-expressive-fill"></path>
<path d="M11.7939 3.00488C9.68056 3.11211 8 4.85996 8 7V16L8.00488 16.2061C8.11211 18.3194 9.85996 20 12 20H16V23C16 23.2748 16.1129 23.5377 16.3125 23.7266C16.5121 23.9154 16.7813 24.0132 17.0557 23.998C18.8001 23.9013 20.5194 23.1865 21.8525 21.8535C22.4108 21.2953 22.8597 20.6679 23.2012 20H28C30.14 20 31.8879 18.3194 31.9951 16.2061L32 16V7C32 4.79086 30.2091 3 28 3H12L11.7939 3.00488ZM28 5C29.1046 5 30 5.89543 30 7V16L29.9893 16.2041C29.887 17.2128 29.0357 18 28 18H22.5586C22.1489 18 21.7803 18.2502 21.6289 18.6309C21.3673 19.2888 20.9717 19.9062 20.4385 20.4395C19.7383 21.1395 18.8933 21.603 18 21.835V19C18 18.4477 17.5523 18 17 18H12C10.9643 18 10.113 17.2128 10.0107 16.2041L10 16V7C10 5.96435 10.7872 5.113 11.7959 5.01074L12 5H28Z" fill="oklch(0.3523 0 0 / 1)" class="wd-expressive-fill"></path>
</g>
</svg>