<svg role="presentation" width="56" height="56" viewBox="0 0 56 56" xmlns="http://www.w3.org/2000/svg" class="wd-expressive wd-expressive-trash-strikethrough">
<g>
<path d="M10.8633 11.1982C8.11435 15.1021 6.5 19.8625 6.5 25C6.5 38.2548 17.2452 49 30.5 49C37.2126 49 43.2801 46.2427 47.6357 41.8008C43.2924 47.9692 36.1174 52 28 52C14.7452 52 4 41.2548 4 28C4 21.4578 6.61818 15.5274 10.8633 11.1982Z" fill="oklch(0.3057 0.079 256.22 / 0.13)" class="wd-expressive-accent"></path>
<path d="M18.6064 24.7803C20.4083 31.7333 26.0485 37.1403 33.1309 38.6055L37.0234 42.3096C36.8923 42.7125 36.5154 42.9999 36.0742 43H19.9258C19.4035 42.9999 18.969 42.5979 18.9287 42.0771L17.5186 23.7451L18.6064 24.7803Z" fill="oklch(0.3057 0.079 256.22 / 0.13)" class="wd-expressive-accent"></path>
<path d="M18.2031 17.2129L17.9951 17.0039C18.0231 17.0016 18.0515 17 18.0801 17H18.2363C18.2251 17.0709 18.2136 17.1418 18.2031 17.2129Z" fill="oklch(0.3057 0.079 256.22 / 0.13)" class="wd-expressive-accent"></path>
</g>
<g>
<path d="M17.96 22.9609C18.2354 22.9396 18.4759 23.1465 18.4971 23.4219L19.1904 32.4248C19.1907 32.4287 19.1892 32.4327 19.1895 32.4365L19.9258 42H36.5C36.7761 42 37 42.2239 37 42.5V43.5C37 43.7761 36.7761 44 36.5 44H19.9258C18.8809 43.9998 18.0118 43.1952 17.9316 42.1533L16.8486 28.0771L16.8496 28.0762L16.5029 23.5752C16.4818 23.3001 16.6878 23.0595 16.9629 23.0381L17.96 22.9609Z" fill="oklch(0.3523 0 0 / 1)" class="wd-expressive-fill"></path>
<path d="M25 29.252V35.5C25 35.7761 24.7761 36 24.5 36H23.5C23.2239 36 23 35.7761 23 35.5V27.252L25 29.252Z" fill="oklch(0.3523 0 0 / 1)" class="wd-expressive-fill"></path>
<path d="M28 3C41.8071 3 53 14.1929 53 28C53 41.8071 41.8071 53 28 53C14.1929 53 3 41.8071 3 28C3 14.1929 14.1929 3 28 3ZM11.0449 12.459C7.29114 16.5521 5 22.0084 5 28C5 40.7025 15.2975 51 28 51C33.9915 51 39.4469 48.7079 43.54 44.9541L11.0449 12.459ZM28 5C22.0084 5 16.5521 7.29114 12.459 11.0449L17.4209 16.0068C17.4467 16.0027 17.4731 16 17.5 16H22V14.1328C22.0001 13.7121 22.1784 13.2908 22.5244 12.999L22.8066 12.7705C24.2427 11.6609 26.0453 11 28 11C30.0851 11 31.9969 11.7525 33.4756 12.999C33.8216 13.2908 33.9999 13.7121 34 14.1328V16H42.5C42.7761 16 43 16.2239 43 16.5V17.5C43 17.7761 42.7761 18 42.5 18H39.9258L38.46 37.0459L44.9541 43.54C48.7079 39.4469 51 33.9915 51 28C51 15.2975 40.7025 5 28 5ZM31 29.5859V24.5C31 24.2239 31.2239 24 31.5 24H32.5C32.7761 24 33 24.2239 33 24.5V31.5C33 31.5267 32.9962 31.5526 32.9922 31.5781L36.5977 35.1836L37.9199 18H19.4141L31 29.5859ZM28 13C26.4903 13 25.1033 13.5141 24 14.377V16H32V14.377C30.8967 13.5141 29.5097 13 28 13Z" fill="oklch(0.3523 0 0 / 1)" class="wd-expressive-fill"></path>
</g>
</svg>