<svg role="presentation" width="56" height="56" viewBox="0 0 56 56" xmlns="http://www.w3.org/2000/svg" class="wd-expressive wd-expressive-media-stack">
<g>
<path d="M23 23.8945C23.0002 23.5036 23.4287 23.2641 23.7617 23.4688L35.3076 30.5742C35.6249 30.7695 35.6249 31.2305 35.3076 31.4258L23.7617 38.5312C23.4287 38.7359 23.0002 38.4964 23 38.1055V23.8945Z" fill="oklch(0.3057 0.079 256.22 / 0.13)" class="wd-expressive-accent"></path>
<path d="M40 7C41.1046 7 42 7.89543 42 9V11H45C46.1046 11 47 11.8954 47 13V15H9V13C9 11.8954 9.89543 11 11 11H14V9C14 7.89543 14.8954 7 16 7H40Z" fill="oklch(0.3057 0.079 256.22 / 0.13)" class="wd-expressive-accent"></path>
</g>
<g>
<path d="M22 23.8945C22.0002 22.7945 23.1309 22.0941 24.0957 22.5176L24.2861 22.6172L35.832 29.7227C36.7838 30.3084 36.7838 31.6916 35.832 32.2773L24.2861 39.3828C23.2868 39.9977 22.0002 39.2788 22 38.1055V23.8945ZM24 37.21L34.0918 31L24 24.7891V37.21Z" fill="oklch(0.3523 0 0 / 1)" class="wd-expressive-fill"></path>
<path d="M45 10C46.6569 10 48 11.3431 48 13V14H49C50.6569 14 52 15.3431 52 17V45C52 46.6569 50.6569 48 49 48H7C5.34315 48 4 46.6569 4 45V17C4 15.3431 5.34315 14 7 14H8V13C8 11.3431 9.34315 10 11 10H13V9C13 7.34315 14.3431 6 16 6H40C41.6569 6 43 7.34315 43 9V10H45ZM41 10V9C41 8.44772 40.5523 8 40 8H16C15.4477 8 15 8.44772 15 9V10H41ZM7 16C6.44772 16 6 16.4477 6 17V45C6 45.5523 6.44772 46 7 46H49C49.5523 46 50 45.5523 50 45V17C50 16.4477 49.5523 16 49 16H7ZM11 12C10.4477 12 10 12.4477 10 13V14H46V13C46 12.4477 45.5523 12 45 12H11Z" fill="oklch(0.3523 0 0 / 1)" class="wd-expressive-fill"></path>
</g>
</svg>