<svg role="presentation" width="56" height="56" viewBox="0 0 56 56" xmlns="http://www.w3.org/2000/svg" class="wd-expressive wd-expressive-double-diamond">
<g>
<path d="M14.9999 39.7924C14.9999 40.2378 14.4614 40.4609 14.1464 40.1459L4.35348 30.353C4.15822 30.1578 4.15822 29.8412 4.35348 29.6459L14.1464 19.853C14.4614 19.538 14.9999 19.7611 14.9999 20.2066V39.7924Z" fill="oklch(0.3057 0.079 256.22 / 0.13)" class="wd-expressive-accent"></path>
<path d="M40.9999 39.7924C40.9999 40.2378 40.4614 40.4609 40.1464 40.1459L30.3535 30.353C30.1582 30.1578 30.1582 29.8412 30.3535 29.6459L40.1464 19.853C40.4614 19.538 40.9999 19.7611 40.9999 20.2066V39.7924Z" fill="oklch(0.3057 0.079 256.22 / 0.13)" class="wd-expressive-accent"></path>
</g>
<path d="M38.8791 15.7063C40.0506 14.5355 41.9499 14.5353 43.1213 15.7063L53.2932 25.8782C54.4644 27.0495 54.4641 28.9488 53.2932 30.1203L43.1213 40.2922C41.9498 41.4636 40.0507 41.4636 38.8791 40.2922L30.6467 32.0598C30.4516 31.8645 30.4515 31.548 30.6467 31.3528L31.3537 30.6457C31.549 30.4508 31.8656 30.4507 32.0608 30.6457L40.0002 38.5852V17.4133L27.0608 30.3528C27.0592 30.3543 27.0565 30.3551 27.0549 30.3567L17.1203 40.2922C15.9488 41.4636 14.0497 41.4636 12.8782 40.2922L2.70628 30.1203C1.53566 28.9487 1.53516 27.0494 2.70628 25.8782L12.8782 15.7063C14.0494 14.5352 15.9487 14.5357 17.1203 15.7063L25.3528 23.9387C25.548 24.1339 25.548 24.4505 25.3528 24.6457L24.6457 25.3528C24.4505 25.548 24.134 25.548 23.9387 25.3528L16.0002 17.4143V38.5842L38.8791 15.7063ZM4.12034 27.2922C3.73027 27.6825 3.73077 28.3157 4.12034 28.7063L14.0002 38.5862V17.4123L4.12034 27.2922ZM42.0002 38.5852L51.8791 28.7063C52.269 28.3158 52.2693 27.6825 51.8791 27.2922L42.0002 17.4133V38.5852Z" fill="oklch(0.3523 0 0 / 1)" class="wd-expressive-fill"></path>
</svg>