<svg role="presentation" width="56" height="56" viewBox="0 0 56 56" xmlns="http://www.w3.org/2000/svg" class="wd-expressive wd-expressive-team-plus">
<g>
<path d="M16 41C18.6892 41 21.1424 42.0112 23 43.6738V44.1387C21.1961 45.9077 18.7261 47 16 47C13.2739 47 10.8039 45.9077 9 44.1387V43.6738C10.8576 42.0112 13.3108 41 16 41Z" fill="oklch(0.3057 0.079 256.22 / 0.13)" class="wd-expressive-accent"></path>
<path d="M31.3232 39.5303C31.6728 40.8709 32.2951 42.1007 33.125 43.1602C31.5159 43.7039 29.7926 44 28 44C26.5014 44 25.0514 43.7925 23.6758 43.4072C24.5562 42.3536 25.2217 41.1162 25.6104 39.7607C26.3827 39.9168 27.1816 40 28 40C29.1533 40 30.2676 39.834 31.3232 39.5303Z" fill="oklch(0.3057 0.079 256.22 / 0.13)" class="wd-expressive-accent"></path>
<path d="M16 32C17.6569 32 19 33.3431 19 35C19 36.6569 17.6569 38 16 38C14.3431 38 13 36.6569 13 35C13 33.3431 14.3431 32 16 32Z" fill="oklch(0.3057 0.079 256.22 / 0.13)" class="wd-expressive-accent"></path>
<path d="M18.1025 15.4268C18.3111 16.8865 18.8356 18.2434 19.6035 19.4287C17.6031 21.3886 16.2849 24.0422 16.041 27.001C16.0273 27.0009 16.0137 27 16 27C14.5783 27 13.2265 27.2982 12.002 27.833C12.0534 22.8009 14.4263 18.3246 18.1025 15.4268Z" fill="oklch(0.3057 0.079 256.22 / 0.13)" class="wd-expressive-accent"></path>
<path d="M37.8965 15.4268C41.4805 18.2516 43.8257 22.5763 43.9893 27.4541C43.0454 27.1588 42.0412 27 41 27C40.6495 27 40.3031 27.0175 39.9619 27.0527C39.7292 24.0729 38.4079 21.4 36.3955 19.4287C37.1636 18.2434 37.6879 16.8867 37.8965 15.4268Z" fill="oklch(0.3057 0.079 256.22 / 0.13)" class="wd-expressive-accent"></path>
<path d="M28 18C30.6892 18 33.1424 19.0112 35 20.6738V21.1387C33.1961 22.9077 30.7261 24 28 24C25.2739 24 22.8039 22.9077 21 21.1387V20.6738C22.8576 19.0112 25.3108 18 28 18Z" fill="oklch(0.3057 0.079 256.22 / 0.13)" class="wd-expressive-accent"></path>
<path d="M28 9C29.6569 9 31 10.3431 31 12C31 13.6569 29.6569 15 28 15C26.3431 15 25 13.6569 25 12C25 10.3431 26.3431 9 28 9Z" fill="oklch(0.3057 0.079 256.22 / 0.13)" class="wd-expressive-accent"></path>
</g>
<g>
<path d="M41.4941 32C41.7703 32 41.9941 32.2239 41.9941 32.5V35.9941H45.5C45.7761 35.9941 46 36.218 46 36.4941V37.4941C46 37.7703 45.7761 37.9941 45.5 37.9941H41.9941V41.5C41.9941 41.7761 41.7703 42 41.4941 42H40.4941C40.218 42 39.9941 41.7761 39.9941 41.5V37.9941H36.5C36.2239 37.9941 36 37.7703 36 37.4941V36.4941C36 36.218 36.2239 35.9941 36.5 35.9941H39.9941V32.5C39.9941 32.2239 40.218 32 40.4941 32H41.4941Z" fill="oklch(0.3523 0 0 / 1)" class="wd-expressive-fill"></path>
<path d="M16 31C18.2091 31 20 32.7909 20 35C20 37.2091 18.2091 39 16 39C13.7909 39 12 37.2091 12 35C12 32.7909 13.7909 31 16 31ZM16 33C14.8954 33 14 33.8954 14 35C14 36.1046 14.8954 37 16 37C17.1046 37 18 36.1046 18 35C18 33.8954 17.1046 33 16 33Z" fill="oklch(0.3523 0 0 / 1)" class="wd-expressive-fill"></path>
<path d="M28 8C30.2091 8 32 9.79086 32 12C32 14.2091 30.2091 16 28 16C25.7909 16 24 14.2091 24 12C24 9.79086 25.7909 8 28 8ZM28 10C26.8954 10 26 10.8954 26 12C26 13.1046 26.8954 14 28 14C29.1046 14 30 13.1046 30 12C30 10.8954 29.1046 10 28 10Z" fill="oklch(0.3523 0 0 / 1)" class="wd-expressive-fill"></path>
<path d="M28 3C34.0751 3 39 7.92487 39 14C39 14.3378 38.982 14.6719 38.9521 15.002C42.3472 17.8654 44.604 22.0327 44.9502 26.7334C49.0733 28.3208 52 32.3175 52 37C52 43.0751 47.0751 48 41 48C37.7341 48 34.8017 46.5756 32.7871 44.3154C31.2687 44.7604 29.6624 45 28 45C26.6279 45 25.2945 44.8346 24.0166 44.5273C22.01 46.6635 19.1621 48 16 48C9.92487 48 5 43.0751 5 37C5 32.7177 7.44844 29.0096 11.0205 27.1924C11.2492 22.3044 13.5416 17.9574 17.0469 15.001C17.0171 14.6712 17 14.3375 17 14C17 7.92487 21.9249 3 28 3ZM16 42C13.842 42 11.8538 42.7187 10.2588 43.9307C11.8169 45.2228 13.8176 46 16 46C18.1821 46 20.1822 45.2226 21.7402 43.9307C20.1453 42.719 18.1577 42 16 42ZM41 28C36.0294 28 32 32.0294 32 37C32 41.9706 36.0294 46 41 46C45.9706 46 50 41.9706 50 37C50 32.0294 45.9706 28 41 28ZM17.5 17.2881C15.0825 19.6581 13.4653 22.8401 13.0869 26.3926C14.0149 26.1383 14.9913 26 16 26C22.0751 26 27 30.9249 27 37C27 39.1152 26.4009 41.0896 25.3662 42.7666C26.2214 42.9186 27.1012 43 28 43C29.2131 43 30.3919 42.8532 31.5215 42.5811C30.5559 40.9447 30 39.0376 30 37C30 30.9249 34.9249 26 41 26C41.6431 26 42.2729 26.0582 42.8857 26.1641C42.4635 22.7038 40.8645 19.608 38.499 17.2891C37.1006 21.7574 32.9293 25 28 25C23.0702 25 18.898 21.757 17.5 17.2881ZM16 28C11.0294 28 7 32.0294 7 37C7 39.0643 7.69652 40.965 8.86523 42.4834C10.8257 40.9303 13.3048 40 16 40C18.695 40 21.1734 40.9306 23.1338 42.4834C24.3027 40.9649 25 39.0645 25 37C25 32.0294 20.9706 28 16 28ZM28 19C25.842 19 23.8538 19.7187 22.2588 20.9307C23.8169 22.2228 25.8176 23 28 23C30.1821 23 32.1822 22.2226 33.7402 20.9307C32.1453 19.719 30.1577 19 28 19ZM28 5C23.0294 5 19 9.02944 19 14C19 16.0643 19.6965 17.965 20.8652 19.4834C22.8257 17.9303 25.3048 17 28 17C30.695 17 33.1734 17.9306 35.1338 19.4834C36.3027 17.9649 37 16.0645 37 14C37 9.02944 32.9706 5 28 5Z" fill="oklch(0.3523 0 0 / 1)" class="wd-expressive-fill"></path>
</g>
</svg>