<svg role="presentation" width="56" height="56" viewBox="0 0 56 56" xmlns="http://www.w3.org/2000/svg" class="wd-expressive wd-expressive-chevron-left">
<path d="M32.1885 7.09795C32.3145 6.8525 32.6147 6.75274 32.8613 6.87627L37.3291 9.12139C37.5758 9.24534 37.6756 9.54555 37.5498 9.79131C34.0258 16.6708 29.2935 22.8345 23.6016 28.0003C29.2935 33.1661 34.0257 39.3298 37.5498 46.2093C37.6757 46.4551 37.5759 46.7552 37.3291 46.8792L32.8613 49.1243C32.6147 49.248 32.3145 49.1482 32.1885 48.9026C28.6598 42.0279 23.7997 35.9433 17.9092 30.9925C17.9049 30.9892 17.8997 30.9872 17.8955 30.9837L17.3203 30.5052C17.2505 30.4481 17.1814 30.3901 17.1113 30.3333C16.7542 30.0438 16.4734 29.6794 16.2832 29.2728C16.2781 29.2618 16.2736 29.2506 16.2686 29.2396C16.0972 28.8614 16.003 28.4479 16 28.0228V27.9788C16.0029 27.5554 16.0957 27.1428 16.2656 26.7659C16.2717 26.7525 16.2779 26.7392 16.2842 26.7259C16.4744 26.3202 16.7548 25.9572 17.1113 25.6683C17.1687 25.6217 17.225 25.5734 17.2822 25.5267L17.8945 25.0169C17.9016 25.011 17.9098 25.0067 17.917 25.0013C23.8039 20.0517 28.6614 13.9695 32.1885 7.09795Z" fill="oklch(0.3057 0.079 256.22 / 0.13)" class="wd-expressive-accent"></path>
<path d="M31.2988 6.64077C31.674 5.91098 32.5694 5.61226 33.3096 5.98354L37.7783 8.22768C38.5167 8.59884 38.8207 9.50386 38.4395 10.2482C35.0272 16.9092 30.4991 22.909 25.0752 28.0001C30.4993 33.0915 35.0271 39.0918 38.4395 45.7531C38.8206 46.4974 38.5167 47.4025 37.7783 47.7736L33.3105 50.0177C32.568 50.3902 31.6727 50.0872 31.2988 49.3595C27.8332 42.6076 23.0606 36.6306 17.2764 31.7667L17.2559 31.7521L16.6875 31.2794L16.4814 31.1105C15.8316 30.5838 15.3711 29.8726 15.1494 29.0851L15.1328 29.0236C15.0481 28.703 15.0024 28.3689 15 28.0294V27.9718L15.0068 27.7609C15.0362 27.27 15.1564 26.7929 15.3545 26.3537C15.3637 26.3332 15.3728 26.314 15.3789 26.3009L15.4795 26.1017C15.7272 25.6419 16.0651 25.2282 16.4814 24.8908C16.56 24.8271 16.5692 24.8181 16.6689 24.7365L17.2549 24.2492L17.2773 24.2316C23.0608 19.368 27.8335 13.392 31.2988 6.64077ZM32.8496 7.99038C29.2802 14.8037 24.4205 20.8411 18.5547 25.7716L18.5381 25.7853L18.5205 25.799C18.5152 25.803 18.5096 25.8062 18.5049 25.8097L17.9414 26.2794L17.9346 26.2853C17.9066 26.3082 17.7903 26.4057 17.7412 26.4455C17.5635 26.5896 17.4132 26.761 17.2959 26.9523L17.1895 27.1505C17.1832 27.1639 17.1794 27.172 17.1768 27.1779C17.0634 27.4295 17.0019 27.7042 17 27.9855V28.0158L17.0049 28.1417C17.0138 28.2672 17.0345 28.3911 17.0664 28.5119L17.0752 28.5421C17.1863 28.937 17.4171 29.2931 17.7412 29.5558C17.8081 29.61 17.9013 29.6882 17.9531 29.7306L17.96 29.7365L18.499 30.1847L18.5244 30.2033L18.5381 30.215L18.5527 30.2267C24.4197 35.1577 29.2807 41.1955 32.8506 48.0099L36.4258 46.214C32.9825 39.6239 28.4086 33.7121 22.9307 28.7404L22.1143 28.0001L22.9307 27.2599C28.4087 22.2881 32.9826 16.3763 36.4258 9.78628L32.8496 7.99038ZM18.4287 30.1378C18.4333 30.1407 18.4386 30.144 18.4443 30.1476C18.4412 30.1456 18.4383 30.1435 18.4355 30.1417C18.4241 30.1345 18.4142 30.1287 18.4082 30.1251C18.4052 30.1234 18.4022 30.1223 18.4004 30.1212L18.4287 30.1378ZM17.3438 24.1828C17.3468 24.1807 17.3495 24.1796 17.3506 24.1789L17.3516 24.1769C17.3506 24.1776 17.3474 24.1803 17.3438 24.1828Z" fill="oklch(0.3523 0 0 / 1)" class="wd-expressive-fill"></path>
</svg>