<svg role="presentation" width="56" height="56" viewBox="0 0 56 56" xmlns="http://www.w3.org/2000/svg" class="wd-expressive wd-expressive-gauge">
<path d="M33.1378 6.96443L35.0694 7.482C35.3359 7.55365 35.4944 7.82769 35.4229 8.09431L35.3887 8.22029C37.2834 8.86302 39.0969 9.75301 40.7784 10.8765C41.6173 11.4371 42.4152 12.0501 43.168 12.7105L43.2598 12.6197C43.4551 12.4246 43.7716 12.4246 43.9669 12.6197L45.3809 14.0338C45.5762 14.229 45.5762 14.5455 45.3809 14.7408L45.2891 14.8316C46.9399 16.7131 48.282 18.8616 49.2501 21.1988C49.4429 21.6644 49.6182 22.1358 49.7794 22.6109L49.9063 22.5777C50.173 22.5063 50.4472 22.6645 50.5186 22.9312L51.0362 24.8629C51.1076 25.1296 50.9493 25.4046 50.6827 25.4761L50.5567 25.5093C51.1438 28.4586 51.151 31.509 50.5587 34.4869L50.5567 34.4918L50.6827 34.5259C50.9492 34.5976 51.1076 34.8716 51.0362 35.1383L50.5186 37.0689C50.4472 37.3356 50.173 37.4938 49.9063 37.4224L49.7774 37.3873C48.8077 40.2456 47.2841 42.8894 45.2872 45.1656L45.3809 45.2593C45.5762 45.4546 45.5762 45.7711 45.3809 45.9664L43.9669 47.3804C43.7716 47.5756 43.455 47.5757 43.2598 47.3804L38.5919 42.7125C38.3836 42.5042 38.4 42.162 38.6202 41.9664C39.0952 41.5445 39.545 41.0948 39.9669 40.6197C40.1625 40.3995 40.5047 40.3831 40.713 40.5914L42.4532 42.3316C43.9463 40.5834 45.1282 38.5617 45.9122 36.3511L43.5333 35.7144C43.2488 35.6382 43.092 35.3338 43.1846 35.0543C43.3833 34.4564 43.5471 33.8423 43.6749 33.2154C43.7337 32.9265 44.0219 32.7408 44.3067 32.817L46.6856 33.4537C46.8913 32.3338 47.001 31.1799 47.001 30.0006C47.001 28.8202 46.8916 27.6653 46.6856 26.5445L44.3067 27.1822C44.022 27.2584 43.7339 27.0735 43.6749 26.7847C43.547 26.1574 43.3826 25.5432 43.1837 24.9449C43.0906 24.6652 43.2476 24.361 43.5323 24.2847L45.9102 23.647C45.1262 21.4372 43.946 19.4153 42.4532 17.6676L40.713 19.4088C40.5297 19.5919 40.2434 19.6002 40.044 19.4498C38.4089 23.5201 34.9854 31.5002 32.2432 34.2427C29.9001 36.5859 26.101 36.5859 23.7579 34.2427L39.3135 18.6861C39.0887 18.4613 38.857 18.243 38.6192 18.0318C38.3992 17.8362 38.3828 17.4949 38.5909 17.2867L40.3311 15.5465C38.583 14.0537 36.561 12.8731 34.3507 12.0894L33.7139 14.4674C33.6376 14.7519 33.3333 14.908 33.0538 14.815C32.4558 14.6161 31.8419 14.4517 31.2149 14.3238C30.926 14.2648 30.7401 13.9768 30.8165 13.692L31.4532 11.314C30.3337 11.1085 29.1799 11.0006 28.001 11.0006C26.8213 11.0006 25.6662 11.1082 24.546 11.314L25.1827 13.692C25.2589 13.9767 25.073 14.2648 24.7842 14.3238C24.1573 14.4517 23.5433 14.6161 22.9454 14.815C22.6659 14.908 22.3616 14.7518 22.2852 14.4674L21.6475 12.0894C19.4377 12.8733 17.4158 14.0538 15.668 15.5465L17.4092 17.2877C17.6171 17.4959 17.6009 17.8373 17.3809 18.0328C16.9056 18.4546 16.4545 18.9045 16.0323 19.3795C15.8366 19.5991 15.4953 19.6156 15.2872 19.4078L13.5469 17.6676C12.0542 19.4153 10.8738 21.4372 10.0899 23.647L12.4669 24.2847C12.7514 24.3611 12.9084 24.6653 12.8155 24.9449C12.6167 25.5433 12.452 26.1573 12.3243 26.7847C12.2655 27.0737 11.9773 27.2595 11.6924 27.1832L9.31354 26.5455C9.10773 27.6658 9.00104 28.8207 9.00104 30.0006C9.00108 31.1798 9.10891 32.3339 9.31452 33.4537L11.6924 32.816C11.9773 32.7396 12.2654 32.9254 12.3243 33.2144C12.452 33.8417 12.6167 34.456 12.8155 35.0543C12.9081 35.3337 12.7513 35.6382 12.4669 35.7144L10.088 36.3511C10.8717 38.5617 12.0539 40.5833 13.5469 42.3316L15.2872 40.5914C15.4954 40.3831 15.8367 40.3995 16.0323 40.6197C16.4543 41.0949 16.9048 41.5444 17.3799 41.9664C17.6001 42.1619 17.6165 42.5042 17.4083 42.7125L12.7403 47.3814C12.545 47.5765 12.2285 47.5766 12.0333 47.3814L10.6192 45.9674C10.4242 45.7721 10.4241 45.4555 10.6192 45.2603L10.712 45.1666C8.71517 42.8905 7.19147 40.2464 6.22175 37.3883L6.09479 37.4224C5.82804 37.494 5.55397 37.3357 5.48249 37.0689L4.96491 35.1383C4.89345 34.8716 5.05175 34.5975 5.31843 34.5259L5.44343 34.4918L5.44245 34.4869C4.85016 31.5091 4.8554 28.4585 5.44245 25.5093L5.31843 25.4761C5.05182 25.4047 4.8937 25.1305 4.96491 24.8638L5.48249 22.9312C5.55394 22.6645 5.82805 22.5063 6.09479 22.5777L6.21979 22.6109C6.38105 22.1356 6.55813 21.6646 6.75104 21.1988C7.71913 18.8617 9.06023 16.713 10.711 14.8316L10.6192 14.7398C10.4242 14.5446 10.4242 14.228 10.6192 14.0328L12.0333 12.6187C12.2285 12.4235 12.545 12.4237 12.7403 12.6187L12.8321 12.7105C13.585 12.05 14.3837 11.4372 15.2227 10.8765C16.9042 9.75307 18.7167 8.862 20.6114 8.21931L20.5782 8.09431C20.507 7.82776 20.6652 7.55351 20.9317 7.482L22.8633 6.96443C23.13 6.89309 23.4042 7.05123 23.4757 7.31794L23.5089 7.44294C24.9809 7.14985 26.4856 7.00056 28.001 7.00056C29.5161 7.00061 31.0197 7.15092 32.4913 7.44392L32.5255 7.31794C32.5969 7.05123 32.871 6.89296 33.1378 6.96443Z" fill="oklch(0.3057 0.079 256.22 / 0.13)" class="wd-expressive-accent"></path>
<g>
<path d="M28.0002 6C33.2834 6.00002 38.4191 7.74376 42.6105 10.96C46.8018 14.1761 49.8154 18.6851 51.1828 23.7881C52.5502 28.8913 52.1948 34.3035 50.173 39.1846C48.7569 42.6033 46.5786 45.628 43.8283 48.041L42.509 46.5381C45.0303 44.326 47.0272 41.5529 48.3254 38.4189C50.1787 33.9447 50.5036 28.9836 49.2502 24.3057C47.9967 19.6279 45.2348 15.494 41.3928 12.5459C37.5507 9.59785 32.843 8.00002 28.0002 8C23.1574 8 18.4497 9.59785 14.6076 12.5459C10.7655 15.494 8.00367 19.6279 6.75017 24.3057C5.49673 28.9836 5.82167 33.9447 7.67498 38.4189C8.97312 41.5529 10.9701 44.326 13.4914 46.5381L12.172 48.041C9.42174 45.628 7.24345 42.6033 5.82732 39.1846C3.80552 34.3035 3.45016 28.8913 4.81756 23.7881C6.18494 18.6851 9.19854 14.1761 13.3898 10.96C17.5813 7.74376 22.717 6 28.0002 6Z" fill="oklch(0.3523 0 0 / 1)" class="wd-expressive-fill"></path>
<path d="M28.0002 27C29.657 27 31.0002 28.3431 31.0002 30C31.0002 31.6569 29.657 33 28.0002 33C26.3433 33 25.0002 31.6569 25.0002 30C25.0002 28.3431 26.3433 27 28.0002 27Z" fill="oklch(0.3523 0 0 / 1)" class="wd-expressive-fill"></path>
<path d="M38.6017 16.8574C40.2115 16.2176 41.7826 17.7887 41.1428 19.3984C40.3596 21.3663 39.0661 24.4865 37.6076 27.4775C36.171 30.4237 34.5043 33.395 32.9504 34.9492C30.2167 37.6829 25.7846 37.6829 23.051 34.9492C20.3174 32.2155 20.3173 27.7834 23.051 25.0498C24.6051 23.4959 27.5765 21.8293 30.5226 20.3926C33.5136 18.9341 36.6339 17.6406 38.6017 16.8574ZM39.2463 18.7539C37.2956 19.5319 34.2795 20.786 31.3996 22.1904C28.4284 23.6393 25.7509 25.179 24.465 26.4648C22.5126 28.4174 22.5125 31.5826 24.465 33.5352C26.4176 35.4878 29.5837 35.4878 31.5363 33.5352C32.8221 32.2491 34.3621 29.5724 35.8107 26.6016C37.2151 23.7215 38.4683 20.7047 39.2463 18.7539Z" fill="oklch(0.3523 0 0 / 1)" class="wd-expressive-fill"></path>
</g>
</svg>