<svg role="presentation" width="56" height="56" viewBox="0 0 56 56" xmlns="http://www.w3.org/2000/svg" class="wd-expressive wd-expressive-clipboard-star">
<g>
<path d="M44.8994 43.4131L50.4961 44.2285L48.2793 46.3906L49.1191 51.2832C49.1887 51.6913 48.7602 52.0022 48.3936 51.8096L44 49.5L39.6064 51.8096C39.2398 52.0022 38.8113 51.6913 38.8809 51.2832L39.7207 46.3906L36.166 42.9258C35.8695 42.6365 36.0333 42.1328 36.4434 42.0732L41.3545 41.3594L42.624 38.7861L44.8994 43.4131Z" fill="oklch(0.3057 0.079 256.22 / 0.13)" class="wd-expressive-accent"></path>
<path d="M13 44H32.3105C32.5395 44.5313 32.8707 45.0231 33.2998 45.4414L35.8857 47.9609L35.5352 50H9C9.00003 46.5858 9.70793 43.2042 11.084 40.0498C11.6253 38.809 12.2674 37.6133 13 36.4717V44Z" fill="oklch(0.3057 0.079 256.22 / 0.13)" class="wd-expressive-accent"></path>
<path d="M43 31.9688C42.2248 32.3535 41.5653 32.9596 41.1162 33.7275L40.9648 34.0088L39.3662 37.2461L39 37.2988V21.1406C40.0309 21.0453 41.0338 21 42 21H43V31.9688Z" fill="oklch(0.3057 0.079 256.22 / 0.13)" class="wd-expressive-accent"></path>
<path d="M20 29C21.1046 29 22 29.8954 22 31C22 32.1046 21.1046 33 20 33C18.8954 33 18 32.1046 18 31C18 29.8954 18.8954 29 20 29Z" fill="oklch(0.3057 0.079 256.22 / 0.13)" class="wd-expressive-accent"></path>
<path d="M26 3C27.9338 3.00003 29.6107 4.09861 30.4424 5.70508C30.5338 5.88121 30.7117 5.99997 30.9102 6H34.5C34.7761 6.00005 35 6.22389 35 6.5V12.5C34.9999 12.776 34.776 13 34.5 13H17.5C17.224 13 17.0001 12.776 17 12.5V6.5C17 6.22388 17.2239 6.00004 17.5 6H21.0898C21.2883 5.99996 21.4662 5.88123 21.5576 5.70508C22.3893 4.09859 24.0662 3.00003 26 3Z" fill="oklch(0.3057 0.079 256.22 / 0.13)" class="wd-expressive-accent"></path>
</g>
<g>
<path d="M42.709 36.3643C43.303 35.3519 44.8116 35.386 45.3447 36.4658L47.3086 40.4453L51.7002 41.084C52.9305 41.2628 53.4225 42.7748 52.5322 43.6426L49.3535 46.7383L50.1045 51.1133C50.3147 52.3386 49.0282 53.2738 47.9277 52.6953L43.999 50.6289L40.0723 52.6953C38.9718 53.2738 37.6853 52.3386 37.8955 51.1133L38.6455 46.7383L35.4678 43.6426C34.5776 42.7749 35.0688 41.2631 36.2988 41.084L40.6904 40.4453L42.6553 36.4658L42.709 36.3643ZM42.252 41.8018C42.1063 42.0968 41.8246 42.3012 41.499 42.3486L37.5889 42.916L40.418 45.6748C40.6536 45.9045 40.7617 46.2352 40.7061 46.5596L40.0381 50.4531L43.5342 48.6152L43.6465 48.5645C43.9121 48.4641 44.2101 48.4813 44.4648 48.6152L47.9609 50.4531L47.2939 46.5596C47.2383 46.2352 47.3464 45.9045 47.582 45.6748L50.4102 42.916L46.501 42.3486C46.1754 42.3012 45.8937 42.0968 45.748 41.8018L44 38.2588L42.252 41.8018Z" fill="oklch(0.3523 0 0 / 1)" class="wd-expressive-fill"></path>
<path d="M26 2C28.2215 2.00017 30.1562 3.20991 31.1924 5H34.5C35.1527 5.0002 35.707 5.41787 35.9131 6H41C42.6566 6.00025 44 7.3433 44 9V32.5C44 32.7761 43.7761 33 43.5 33H42.5C42.2239 33 42 32.7761 42 32.5V9C42 8.44787 41.5521 8.00025 41 8H36V10H39C39.2649 10.0001 39.5196 10.1057 39.707 10.293C39.8944 10.4805 40 10.7349 40 11V37.5C40 37.7761 39.7761 38 39.5 38H38.5C38.2239 38 38 37.7761 38 37.5V12H36V12.5C36 13.3283 35.3282 13.9998 34.5 14H17.5C16.6718 13.9998 16 13.3283 16 12.5V12H14V43H32.5C32.7761 43 33 43.2239 33 43.5V44.5C33 44.7761 32.7761 45 32.5 45H13C12.7351 44.9999 12.4804 44.8943 12.293 44.707C12.1056 44.5195 12 44.2651 12 44V11C12 10.4479 12.448 10.0003 13 10H16V8H11C10.448 8.00036 10 8.44794 10 9V48C10 48.5521 10.4479 48.9997 11 49H35.5C35.7761 49 36 49.2239 36 49.5V50.5C36 50.7761 35.7761 51 35.5 51H11C9.34336 50.9997 8 49.6567 8 48V9C8.00001 7.34337 9.34345 6.00036 11 6H16.0869C16.293 5.41787 16.8473 5.0002 17.5 5H20.8076C21.8438 3.20991 23.7785 2.00017 26 2ZM26 4C24.4551 4.00017 23.1131 4.87663 22.4463 6.16406C22.2005 6.63877 21.6982 6.99982 21.0898 7H18V12H34V7H30.9102C30.3018 6.99982 29.7995 6.63878 29.5537 6.16406C28.8869 4.87663 27.5449 4.00017 26 4Z" fill="oklch(0.3523 0 0 / 1)" class="wd-expressive-fill"></path>
<path d="M20 28C21.6569 28 23 29.3431 23 31C23 32.6569 21.6569 34 20 34C18.3431 34 17 32.6569 17 31C17 29.3431 18.3431 28 20 28ZM20 30C19.4477 30 19 30.4477 19 31C19 31.5523 19.4477 32 20 32C20.5523 32 21 31.5523 21 31C21 30.4477 20.5523 30 20 30Z" fill="oklch(0.3523 0 0 / 1)" class="wd-expressive-fill"></path>
<path d="M28.5 31C28.7761 31 29 31.2239 29 31.5V32.5C29 32.7761 28.7761 33 28.5 33H25.5C25.2239 33 25 32.7761 25 32.5V31.5C25 31.2239 25.2239 31 25.5 31H28.5Z" fill="oklch(0.3523 0 0 / 1)" class="wd-expressive-fill"></path>
<path d="M32.5 28C32.7761 28 33 28.2239 33 28.5V29.5C33 29.7761 32.7761 30 32.5 30H25.5C25.2239 30 25 29.7761 25 29.5V28.5C25 28.2239 25.2239 28 25.5 28H32.5Z" fill="oklch(0.3523 0 0 / 1)" class="wd-expressive-fill"></path>
<path d="M21.9395 19.1465C22.1347 18.9513 22.4512 18.9513 22.6465 19.1465L23.3535 19.8535C23.5487 20.0488 23.5487 20.3653 23.3535 20.5605L20.207 23.707C20.0195 23.8945 19.7652 24 19.5 24C19.2349 24 18.9805 23.8945 18.793 23.707L17.1465 22.0605C16.9513 21.8653 16.9513 21.5488 17.1465 21.3535L17.8535 20.6465C18.0488 20.4513 18.3653 20.4513 18.5605 20.6465L19.5 21.5859L21.9395 19.1465Z" fill="oklch(0.3523 0 0 / 1)" class="wd-expressive-fill"></path>
<path d="M29.5 22C29.7761 22 30 22.2239 30 22.5V23.5C30 23.7761 29.7761 24 29.5 24H25.5C25.2239 24 25 23.7761 25 23.5V22.5C25 22.2239 25.2239 22 25.5 22H29.5Z" fill="oklch(0.3523 0 0 / 1)" class="wd-expressive-fill"></path>
<path d="M34.5 19C34.7761 19 35 19.2239 35 19.5V20.5C35 20.7761 34.7761 21 34.5 21H25.5C25.2239 21 25 20.7761 25 20.5V19.5C25 19.2239 25.2239 19 25.5 19H34.5Z" fill="oklch(0.3523 0 0 / 1)" class="wd-expressive-fill"></path>
</g>
</svg>