<svg role="presentation" width="56" height="56" viewBox="0 0 56 56" xmlns="http://www.w3.org/2000/svg" class="wd-expressive wd-expressive-calendar-comment">
<g>
<path d="M48 34.999L38 35C36.3431 35 35 36.3431 35 38V44C35 45.6569 36.3431 47 38 47H48C49.6569 47 51 45.6569 51 44V45.999C51 47.6559 49.6569 49 48 49H39.4863C39.234 49.5255 38.8907 50.0185 38.4551 50.4541C37.4946 51.4146 36.2572 51.9294 35 51.999V48.8242C33.8356 48.412 33 47.3047 33 45.999V38C33 36.3432 34.3432 34.9991 36 34.999H48Z" fill="oklch(0.3057 0.079 256.22 / 0.13)" class="wd-expressive-accent"></path>
<path d="M47 19H10V43H30V46H7V12H47V19Z" fill="oklch(0.3057 0.079 256.22 / 0.13)" class="wd-expressive-accent"></path>
</g>
<g>
<path d="M48 34C50.2091 34 52 35.7909 52 38V45.999C52 48.2077 50.2096 50 48 50H40.0771C39.8236 50.4131 39.5193 50.8039 39.1621 51.1611C38.021 52.3023 36.5488 52.9143 35.0557 52.9971C34.7813 53.0123 34.5121 52.9145 34.3125 52.7256C34.1129 52.5367 34 52.2738 34 51.999V49.4561C32.8077 48.7659 32 47.4811 32 45.999V38C32 35.7909 33.7909 34 36 34H48ZM36 36C34.8954 36 34 36.8955 34 38V45.999C34 46.8657 34.5542 47.6058 35.334 47.8818C35.7332 48.0233 36 48.4007 36 48.8242V50.8076C36.6393 50.6066 37.241 50.2541 37.748 49.7471C38.1021 49.393 38.3804 48.9933 38.585 48.5674L38.6553 48.4434C38.8391 48.1688 39.1498 48 39.4863 48H48C49.1041 48 50 47.104 50 45.999V38C50 36.8954 49.1046 36 48 36H36Z" fill="oklch(0.3523 0 0 / 1)" class="wd-expressive-fill"></path>
<path d="M40 5C41.6569 5 43 6.34315 43 8V9H47C48.6569 9 50 10.3431 50 12V31.5C50 31.7761 49.7761 32 49.5 32H48.5C48.2239 32 48 31.7761 48 31.5V20H8V44C8 44.5523 8.44772 45 9 45H29.5C29.7761 45 30 45.2239 30 45.5V46.5C30 46.7761 29.7761 47 29.5 47H9C7.34315 47 6 45.6569 6 44V12C6 10.3431 7.34315 9 9 9H13V8C13 6.34315 14.3431 5 16 5C17.6569 5 19 6.34315 19 8V9H37V8C37 6.34315 38.3431 5 40 5ZM9 11C8.44772 11 8 11.4477 8 12V18H48V12C48 11.4477 47.5523 11 47 11H43C43 12.6569 41.6569 14 40 14C38.3949 14 37.0842 12.7394 37.0039 11.1543L37 11H19C19 12.6569 17.6569 14 16 14C14.3949 14 13.0842 12.7394 13.0039 11.1543L13 11H9ZM16 7C15.4477 7 15 7.44772 15 8V11L15.0049 11.1025C15.0562 11.6067 15.4823 12 16 12C16.5523 12 17 11.5523 17 11V8C17 7.44772 16.5523 7 16 7ZM40 7C39.4477 7 39 7.44772 39 8V11L39.0049 11.1025C39.0562 11.6067 39.4823 12 40 12C40.5523 12 41 11.5523 41 11V8C41 7.44772 40.5523 7 40 7Z" fill="oklch(0.3523 0 0 / 1)" class="wd-expressive-fill"></path>
<path d="M14 37.75C14.9665 37.75 15.75 38.5335 15.75 39.5C15.75 40.4665 14.9665 41.25 14 41.25C13.0335 41.25 12.25 40.4665 12.25 39.5C12.25 38.5335 13.0335 37.75 14 37.75Z" fill="oklch(0.3523 0 0 / 1)" class="wd-expressive-fill"></path>
<path d="M21 37.75C21.9665 37.75 22.75 38.5335 22.75 39.5C22.75 40.4665 21.9665 41.25 21 41.25C20.0335 41.25 19.25 40.4665 19.25 39.5C19.25 38.5335 20.0335 37.75 21 37.75Z" fill="oklch(0.3523 0 0 / 1)" class="wd-expressive-fill"></path>
<path d="M28 37.75C28.9665 37.75 29.75 38.5335 29.75 39.5C29.75 40.4665 28.9665 41.25 28 41.25C27.0335 41.25 26.25 40.4665 26.25 39.5C26.25 38.5335 27.0335 37.75 28 37.75Z" fill="oklch(0.3523 0 0 / 1)" class="wd-expressive-fill"></path>
<path d="M14 32.75C14.9665 32.75 15.75 33.5335 15.75 34.5C15.75 35.4665 14.9665 36.25 14 36.25C13.0335 36.25 12.25 35.4665 12.25 34.5C12.25 33.5335 13.0335 32.75 14 32.75Z" fill="oklch(0.3523 0 0 / 1)" class="wd-expressive-fill"></path>
<path d="M21 32.75C21.9665 32.75 22.75 33.5335 22.75 34.5C22.75 35.4665 21.9665 36.25 21 36.25C20.0335 36.25 19.25 35.4665 19.25 34.5C19.25 33.5335 20.0335 32.75 21 32.75Z" fill="oklch(0.3523 0 0 / 1)" class="wd-expressive-fill"></path>
<path d="M28 32.75C28.9665 32.75 29.75 33.5335 29.75 34.5C29.75 35.4665 28.9665 36.25 28 36.25C27.0335 36.25 26.25 35.4665 26.25 34.5C26.25 33.5335 27.0335 32.75 28 32.75Z" fill="oklch(0.3523 0 0 / 1)" class="wd-expressive-fill"></path>
<path d="M14 27.75C14.9665 27.75 15.75 28.5335 15.75 29.5C15.75 30.4665 14.9665 31.25 14 31.25C13.0335 31.25 12.25 30.4665 12.25 29.5C12.25 28.5335 13.0335 27.75 14 27.75Z" fill="oklch(0.3523 0 0 / 1)" class="wd-expressive-fill"></path>
<path d="M21 27.75C21.9665 27.75 22.75 28.5335 22.75 29.5C22.75 30.4665 21.9665 31.25 21 31.25C20.0335 31.25 19.25 30.4665 19.25 29.5C19.25 28.5335 20.0335 27.75 21 27.75Z" fill="oklch(0.3523 0 0 / 1)" class="wd-expressive-fill"></path>
<path d="M28 27.75C28.9665 27.75 29.75 28.5335 29.75 29.5C29.75 30.4665 28.9665 31.25 28 31.25C27.0335 31.25 26.25 30.4665 26.25 29.5C26.25 28.5335 27.0335 27.75 28 27.75Z" fill="oklch(0.3523 0 0 / 1)" class="wd-expressive-fill"></path>
<path d="M35 27.75C35.9665 27.75 36.75 28.5335 36.75 29.5C36.75 30.4665 35.9665 31.25 35 31.25C34.0335 31.25 33.25 30.4665 33.25 29.5C33.25 28.5335 34.0335 27.75 35 27.75Z" fill="oklch(0.3523 0 0 / 1)" class="wd-expressive-fill"></path>
<path d="M42 27.75C42.9665 27.75 43.75 28.5335 43.75 29.5C43.75 30.4665 42.9665 31.25 42 31.25C41.0335 31.25 40.25 30.4665 40.25 29.5C40.25 28.5335 41.0335 27.75 42 27.75Z" fill="oklch(0.3523 0 0 / 1)" class="wd-expressive-fill"></path>
<path d="M35 22.75C35.9665 22.75 36.75 23.5335 36.75 24.5C36.75 25.4665 35.9665 26.25 35 26.25C34.0335 26.25 33.25 25.4665 33.25 24.5C33.25 23.5335 34.0335 22.75 35 22.75Z" fill="oklch(0.3523 0 0 / 1)" class="wd-expressive-fill"></path>
<path d="M42 22.75C42.9665 22.75 43.75 23.5335 43.75 24.5C43.75 25.4665 42.9665 26.25 42 26.25C41.0335 26.25 40.25 25.4665 40.25 24.5C40.25 23.5335 41.0335 22.75 42 22.75Z" fill="oklch(0.3523 0 0 / 1)" class="wd-expressive-fill"></path>
</g>
</svg>