<svg role="presentation" width="56" height="56" viewBox="0 0 56 56" xmlns="http://www.w3.org/2000/svg" class="wd-expressive wd-expressive-hand-heart">
<g>
<path d="M51.9736 33.8271C52.2138 33.632 52.5739 33.6993 52.6895 33.9863C52.9235 34.5679 53.0286 35.1841 53.0107 35.7939C53.0068 35.9257 52.9444 36.0484 52.8447 36.1348L38.1406 48.877C38.0497 48.9557 37.9338 48.999 37.8135 48.999H4.5C4.22386 48.999 4 48.7752 4 48.499V48C4 46.8954 4.89543 46 6 46H35.2236C36.3723 46 37.4866 45.6044 38.3779 44.8799L51.9736 33.8271Z" fill="oklch(0.3057 0.079 256.22 / 0.13)" class="wd-expressive-accent"></path>
<path d="M33.0723 37C33.2114 37 33.301 37.1471 33.2314 37.2676C32.4574 38.6081 31.2436 39.5372 29.8779 39.9775C29.8305 39.9928 29.7803 40 29.7305 40H19.5C19.2239 40 19.0001 39.776 19 39.5V39C19 37.8954 19.8954 37 21 37H33.0723Z" fill="oklch(0.3057 0.079 256.22 / 0.13)" class="wd-expressive-accent"></path>
<path d="M18.9248 7.93555C17.4054 10.3885 17.7526 13.6995 20.0156 15.7676L29.999 24.8916L28.3369 26.583C28.1459 26.7575 27.8531 26.7575 27.6621 26.583L18.0156 17.7676C15.2436 15.2344 15.3459 10.8365 18.2324 8.43457C18.4549 8.2495 18.6868 8.08407 18.9248 7.93555Z" fill="oklch(0.3057 0.079 256.22 / 0.13)" class="wd-expressive-accent"></path>
</g>
<g>
<path d="M49.615 30.282L49.7703 30.3103L49.9929 30.3669C51.0996 30.6754 52.1214 31.3327 52.8748 32.3132C53.5117 33.1422 53.8762 34.0981 53.9812 35.0691C54.0833 36.0133 53.5984 36.8044 53.033 37.2947L40.0652 48.5339C38.9745 49.4792 37.5789 49.9997 36.1355 49.9998H4.50076C4.22463 49.9997 4.00076 49.7759 4.00076 49.4998V48.4998C4.00088 48.2237 4.22471 47.9998 4.50076 47.9998H36.1355C37.0978 47.9997 38.0285 47.6524 38.7556 47.0222L51.7234 35.7839C51.9553 35.5828 52.0043 35.3891 51.9929 35.2839C51.9263 34.6679 51.6957 34.0615 51.2888 33.532C50.8252 32.9286 50.2042 32.5213 49.5281 32.3171L37.7986 40.0154C36.8207 40.6571 35.6763 40.9997 34.5066 40.9998H19.0008V38.9998H29.6453C30.754 38.6233 31.7346 37.8607 32.366 36.7673C32.7036 36.1825 32.9091 35.5594 32.9929 34.9324C33.0127 34.7839 32.9665 34.6599 32.8064 34.5417C32.6233 34.4068 32.3254 34.3215 32.0115 34.3689C30.0947 34.6588 26.9046 34.9997 22.5008 34.9998C17.3571 34.9998 13.8242 34.5344 12.0594 34.2292C11.6287 34.1548 11.2115 34.3096 10.9656 34.6042L6.76932 39.6404L6.76834 39.6394L5.08963 41.655C4.91294 41.867 4.59768 41.896 4.38553 41.7195L4.00076 41.4001L3.61599 41.0789C3.40416 40.902 3.37581 40.5868 3.55252 40.3748L9.42849 33.324C10.1654 32.4399 11.3185 32.0715 12.4002 32.2585C14.0593 32.5454 17.478 32.9998 22.5008 32.9998C26.8011 32.9997 29.8915 32.6668 31.7127 32.3914C32.5198 32.2695 33.3589 32.464 33.9939 32.9324C34.6519 33.4177 35.1057 34.2226 34.9754 35.198C34.8574 36.0793 34.5688 36.9525 34.0984 37.7673C33.8374 38.2194 33.531 38.63 33.1922 38.9998H34.5066C35.2862 38.9997 36.0491 38.7712 36.701 38.3435L48.6277 30.5164L48.7508 30.4441C49.0049 30.3101 49.3055 30.2443 49.615 30.282Z" fill="oklch(0.3523 0 0 / 1)" class="wd-expressive-fill"></path>
<path d="M27.9998 8.95191C30.4213 5.62739 35.1927 4.98982 38.408 7.6648C41.7602 10.4545 41.8793 15.5624 38.6599 18.5046L29.0125 27.321C28.4396 27.8445 27.561 27.8443 26.9881 27.321L17.3416 18.5046C14.122 15.5623 14.2409 10.4544 17.5935 7.6648C20.8087 4.99022 25.5782 5.62816 27.9998 8.95191ZM37.1287 9.20288C34.7125 7.19259 31.0785 7.7721 29.408 10.4343L28.0008 12.6804L26.5926 10.4343C24.922 7.7724 21.2889 7.19293 18.8728 9.20288C16.4522 11.217 16.3658 14.9049 18.6902 17.0291L27.9998 25.5359L37.3113 17.0291C39.6355 14.905 39.5489 11.217 37.1287 9.20288Z" fill="oklch(0.3523 0 0 / 1)" class="wd-expressive-fill"></path>
</g>
</svg>