<svg role="presentation" width="56" height="56" viewBox="0 0 56 56" xmlns="http://www.w3.org/2000/svg" class="wd-expressive wd-expressive-tie">
<path d="M28 10H30.8467L30.4229 11H29C28.5699 11.4035 28.1801 11.8505 27.835 12.333L28.3691 12H30C30.524 12.4916 30.9882 13.0474 31.3838 13.6543L26.1836 16.9033L25.7373 22.6426L32.8389 18.2061L33.1006 21.5801L25.4482 26.3623L25.002 32.1025L33.5059 26.7891L33.7686 30.1631L24.7129 35.8213L24.2666 41.5625L34.1729 35.3721L34.4355 38.7461L24.165 45.165L27.5254 48.5254L34.8408 43.9551L35 46L31.2812 49.7178L29.7031 50.7031L30 51L28 53L21 46L23.1943 17.7773C23.2186 17.4997 23.2552 17.226 23.3037 16.957C23.3158 16.8899 23.3302 16.8234 23.3438 16.7568C23.3582 16.686 23.3716 16.6151 23.3877 16.5449C23.4049 16.4695 23.4252 16.395 23.4443 16.3203C23.4574 16.2695 23.4695 16.2184 23.4834 16.168C23.506 16.0856 23.5308 16.0042 23.5557 15.9229C23.5711 15.8724 23.5853 15.8216 23.6016 15.7715C23.6295 15.6856 23.661 15.6012 23.6914 15.5166C23.7058 15.4767 23.7185 15.4362 23.7334 15.3965C23.7605 15.3243 23.7895 15.2529 23.8184 15.1816C23.8403 15.1275 23.8618 15.0732 23.8848 15.0195C23.9188 14.94 23.955 14.8615 23.9912 14.7832C24.0014 14.7611 24.0111 14.7388 24.0215 14.7168L24.0225 14.7158C24.5098 13.6848 25.1839 12.7656 26 12L23 4.91016C23.6581 4.32114 24.4208 3.84639 25.2568 3.51758L28 10Z" fill="oklch(0.3057 0.079 256.22 / 0.13)" class="wd-expressive-accent"></path>
<path d="M28 2C30.1764 2 32.1639 2.8197 33.667 4.16504C33.9854 4.45014 34.0875 4.90623 33.9209 5.2998L31.1817 11.7725C32.5353 13.2345 33.4647 15.1105 33.7491 17.2158L33.8018 17.6904L33.8028 17.7002L35.9971 45.9229C36.0196 46.214 35.9136 46.5005 35.7071 46.707L28.7071 53.707C28.5195 53.8946 28.2652 54 28 54C27.7348 54 27.4805 53.8946 27.293 53.707L20.293 46.707C20.0865 46.5005 19.9805 46.214 20.003 45.9229L22.1973 17.7002L22.1983 17.6904C22.3993 15.3929 23.3642 13.3444 24.8184 11.7734L22.0791 5.2998C21.9126 4.90624 22.0148 4.45014 22.3331 4.16504C23.8362 2.8197 25.8237 2.00001 28 2ZM26.4092 13C25.1781 14.2711 24.359 15.955 24.1905 17.8545L22.0323 45.6182L28 51.5859L33.9668 45.6182L31.8096 17.8643C31.643 15.9608 30.8241 14.2733 29.5909 13H26.4092ZM28 4C26.5868 4.00001 25.2812 4.45121 24.2149 5.2168L26.6631 11H29.337L31.7842 5.2168C30.718 4.4515 29.413 4 28 4Z" fill="oklch(0.3523 0 0 / 1)" class="wd-expressive-fill"></path>
</svg>