<svg role="presentation" width="56" height="56" viewBox="0 0 56 56" xmlns="http://www.w3.org/2000/svg" class="wd-expressive wd-expressive-location">
<g>
<path d="M17.5723 7.57422C15.3337 10.4532 14.0001 14.0708 14 18C14 22.5959 14.9572 27.1474 16.8164 31.3936C18.6758 35.6397 21.4014 39.4991 24.8369 42.749C26.419 44.2456 28.1392 45.5982 29.9717 46.7949C30.597 47.2031 31.4031 47.2032 32.0283 46.7949C33.5439 45.8051 34.9809 44.707 36.3281 43.5107C35.6413 44.2842 34.9206 45.0324 34.1631 45.749C32.5809 47.2457 30.8609 48.5981 29.0283 49.7949C28.4031 50.2032 27.597 50.2031 26.9717 49.7949C25.1392 48.5982 23.419 47.2456 21.8369 45.749C18.4014 42.4991 15.6758 38.6397 13.8164 34.3936C11.9572 30.1474 11 25.5959 11 21C11.0001 15.5416 13.5733 10.6847 17.5723 7.57422Z" fill="oklch(0.3057 0.079 256.22 / 0.13)" class="wd-expressive-accent"></path>
<path d="M26 17C29.866 17 33 20.134 33 24C33 24.7871 32.8675 25.5429 32.6279 26.249C31.394 27.3377 29.7749 28 28 28C24.134 28 21 24.866 21 21C21 20.2127 21.1314 19.4563 21.3711 18.75C22.605 17.6612 24.2251 17 26 17Z" fill="oklch(0.3057 0.079 256.22 / 0.13)" class="wd-expressive-accent"></path>
</g>
<g>
<path d="M28.001 13C32.4191 13.0002 36.001 16.5818 36.001 21C36.0008 25.4181 32.419 28.9998 28.001 29C23.5828 29 20.0011 25.4182 20.001 21C20.001 16.5817 23.5827 13 28.001 13ZM28.001 15C24.6873 15 22.001 17.6863 22.001 21C22.0011 24.3136 24.6873 27 28.001 27C31.3144 26.9998 34.0008 24.3135 34.001 21C34.001 17.6864 31.3145 15.0002 28.001 15Z" fill="oklch(0.3523 0 0 / 1)" class="wd-expressive-fill"></path>
<path d="M28 2.99902C37.9409 2.99902 45.9996 11.0582 46 20.999L45.9893 21.873V21.8867C45.8739 26.3195 44.894 30.6959 43.0996 34.7939C41.1854 39.1653 38.3815 43.1345 34.8506 46.4746C33.224 48.0132 31.4568 49.403 29.5752 50.6318C28.6177 51.257 27.3823 51.2571 26.4248 50.6318C24.5434 49.4031 22.7758 48.0131 21.1494 46.4746C17.6188 43.1346 14.8145 39.1651 12.9004 34.7939C11.1061 30.6959 10.1271 26.3192 10.0117 21.8867L10 20.999C10.0004 11.0584 18.0594 2.99938 28 2.99902ZM28 4.99902C19.1639 4.99937 12.0004 12.163 12 20.999L12.0107 21.834C12.1193 26.0061 13.041 30.128 14.7324 33.9912C16.5369 38.1122 19.1843 41.8617 22.5244 45.0215C24.0622 46.4761 25.7351 47.7923 27.5186 48.957C27.8116 49.1483 28.1884 49.1483 28.4814 48.957C30.2651 47.7922 31.9376 46.4763 33.4756 45.0215C36.816 41.8616 39.463 38.1124 41.2676 33.9912C42.9591 30.1279 43.8807 26.006 43.9893 21.834L43.9941 21.4482V21.4346C43.998 21.2914 44 21.1457 44 20.999C43.9996 12.1627 36.8363 4.99902 28 4.99902Z" fill="oklch(0.3523 0 0 / 1)" class="wd-expressive-fill"></path>
</g>
</svg>