<svg role="presentation" width="56" height="56" viewBox="0 0 56 56" xmlns="http://www.w3.org/2000/svg" class="wd-expressive wd-expressive-line-chart">
<g>
<path d="M6 40C7.65685 40 9 41.3431 9 43C9 43.722 8.74421 44.3837 8.31934 44.9014C8.05636 44.9645 7.78233 45 7.5 45C5.567 45 4 43.433 4 41.5C4 41.2174 4.03443 40.9429 4.09766 40.6797C4.61533 40.2548 5.278 40 6 40Z" fill="oklch(0.3057 0.079 256.22 / 0.13)" class="wd-expressive-accent"></path>
<path d="M33 34C34.6569 34 36 35.3431 36 37C36 37.722 35.7442 38.3837 35.3193 38.9014C35.0564 38.9645 34.7823 39 34.5 39C32.567 39 31 37.433 31 35.5C31 35.2174 31.0344 34.9429 31.0977 34.6797C31.6153 34.2548 32.278 34 33 34Z" fill="oklch(0.3057 0.079 256.22 / 0.13)" class="wd-expressive-accent"></path>
<path d="M18 22C19.6569 22 21 23.3431 21 25C21 25.722 20.7442 26.3837 20.3193 26.9014C20.0564 26.9645 19.7823 27 19.5 27C17.567 27 16 25.433 16 23.5C16 23.2174 16.0344 22.9429 16.0977 22.6797C16.6153 22.2548 17.278 22 18 22Z" fill="oklch(0.3057 0.079 256.22 / 0.13)" class="wd-expressive-accent"></path>
<path d="M44 8C45.6569 8 47 9.34315 47 11C47 11.722 46.7442 12.3837 46.3193 12.9014C46.0564 12.9645 45.7823 13 45.5 13C43.567 13 42 11.433 42 9.5C42 9.21741 42.0344 8.94288 42.0977 8.67969C42.6153 8.25477 43.278 8 44 8Z" fill="oklch(0.3057 0.079 256.22 / 0.13)" class="wd-expressive-accent"></path>
</g>
<path d="M45.5 5C47.9853 5 50 7.01472 50 9.5C50 11.9853 47.9853 14 45.5 14C45.2303 14 44.9666 13.9742 44.71 13.9287L37.1289 31.8486C38.2619 32.6658 39 33.9964 39 35.5C39 37.9853 36.9853 40 34.5 40C32.0147 40 30 37.9853 30 35.5C30 34.7973 30.16 34.1316 30.4473 33.5391L22.2998 27.0205C21.5312 27.6326 20.5589 28 19.5 28C18.9349 28 18.3948 27.8943 17.8965 27.7041L10.7637 38.4043C11.5291 39.211 12 40.3001 12 41.5C12 43.9853 9.98528 46 7.5 46C5.01472 46 3 43.9853 3 41.5C3 39.0147 5.01472 37 7.5 37C8.06387 37 8.6032 37.1046 9.10059 37.2939L16.2334 26.5938C15.4693 25.7873 15 24.6987 15 23.5C15 21.0147 17.0147 19 19.5 19C21.9853 19 24 21.0147 24 23.5C24 24.2026 23.8389 24.8675 23.5518 25.46L31.6992 31.9775C32.4678 31.3656 33.4412 31 34.5 31C34.7686 31 35.0315 31.0242 35.2871 31.0693L42.8691 13.1494C41.7374 12.3321 41 11.0027 41 9.5C41 7.01472 43.0147 5 45.5 5ZM7.5 39C6.11929 39 5 40.1193 5 41.5C5 42.8807 6.11929 44 7.5 44C8.88071 44 10 42.8807 10 41.5C10 40.1193 8.88071 39 7.5 39ZM34.5 33C33.1193 33 32 34.1193 32 35.5C32 36.8807 33.1193 38 34.5 38C35.8807 38 37 36.8807 37 35.5C37 34.1193 35.8807 33 34.5 33ZM19.5 21C18.1193 21 17 22.1193 17 23.5C17 24.8807 18.1193 26 19.5 26C20.8807 26 22 24.8807 22 23.5C22 22.1193 20.8807 21 19.5 21ZM45.5 7C44.1193 7 43 8.11929 43 9.5C43 10.8807 44.1193 12 45.5 12C46.8807 12 48 10.8807 48 9.5C48 8.11929 46.8807 7 45.5 7Z" fill="oklch(0.3523 0 0 / 1)" class="wd-expressive-fill"></path>
</svg>