<svg role="presentation" width="56" height="56" viewBox="0 0 56 56" xmlns="http://www.w3.org/2000/svg" class="wd-expressive wd-expressive-team-mountain">
<g>
<path d="M16 41C18.6892 41 21.1424 42.0112 23 43.6738V44.1387C21.1961 45.9077 18.7261 47 16 47C13.2739 47 10.8039 45.9077 9 44.1387V43.6738C10.8576 42.0112 13.3108 41 16 41Z" fill="oklch(0.3057 0.079 256.22 / 0.13)" class="wd-expressive-accent"></path>
<path d="M41 41C43.6892 41 46.1424 42.0112 48 43.6738V44.1387C46.1961 45.9077 43.7262 47 41 47C38.2739 47 35.8039 45.9077 34 44.1387V43.6738C35.8576 42.0112 38.3108 41 41 41Z" fill="oklch(0.3057 0.079 256.22 / 0.13)" class="wd-expressive-accent"></path>
<path d="M31.3232 39.5303C31.6728 40.8709 32.2951 42.1007 33.125 43.1602C31.5159 43.7039 29.7926 44 28 44C26.5014 44 25.0514 43.7925 23.6758 43.4072C24.5562 42.3536 25.2217 41.1162 25.6104 39.7607C26.3827 39.9168 27.1816 40 28 40C29.1533 40 30.2676 39.834 31.3232 39.5303Z" fill="oklch(0.3057 0.079 256.22 / 0.13)" class="wd-expressive-accent"></path>
<path d="M16 32C17.6569 32 19 33.3431 19 35C19 36.6569 17.6569 38 16 38C14.3431 38 13 36.6569 13 35C13 33.3431 14.3431 32 16 32Z" fill="oklch(0.3057 0.079 256.22 / 0.13)" class="wd-expressive-accent"></path>
<path d="M41 32C42.6569 32 44 33.3431 44 35C44 36.6569 42.6569 38 41 38C39.3431 38 38 36.6569 38 35C38 33.3431 39.3431 32 41 32Z" fill="oklch(0.3057 0.079 256.22 / 0.13)" class="wd-expressive-accent"></path>
<path d="M36.8018 18.7354C37.3474 17.7239 37.7274 16.6102 37.8965 15.4268C41.4805 18.2516 43.8257 22.5763 43.9893 27.4541C43.0454 27.1588 42.0412 27 41 27C40.6495 27 40.3031 27.0175 39.9619 27.0527C39.7292 24.0729 38.4079 21.4 36.3955 19.4287C34.6138 22.1788 31.5208 24 28 24C24.4788 24 21.3842 22.1793 19.6025 19.4287C17.6024 21.3885 16.2849 24.0424 16.041 27.001C16.0273 27.0009 16.0137 27 16 27C14.5783 27 13.2265 27.2982 12.002 27.833C12.0534 22.8009 14.4263 18.3246 18.1025 15.4268C18.2715 16.6096 18.651 17.7232 19.1963 18.7344L21.999 14.999L26.1875 14.1621C26.7076 14.0581 27.2481 14.1657 27.6895 14.46L28.8906 15.2607C29.5623 15.7084 30.4377 15.7084 31.1094 15.2607L33.167 13.8887L36.8018 18.7354Z" fill="oklch(0.3057 0.079 256.22 / 0.13)" class="wd-expressive-accent"></path>
</g>
<g>
<path d="M16 31C18.2091 31 20 32.7909 20 35C20 37.2091 18.2091 39 16 39C13.7909 39 12 37.2091 12 35C12 32.7909 13.7909 31 16 31ZM16 33C14.8954 33 14 33.8954 14 35C14 36.1046 14.8954 37 16 37C17.1046 37 18 36.1046 18 35C18 33.8954 17.1046 33 16 33Z" fill="oklch(0.3523 0 0 / 1)" class="wd-expressive-fill"></path>
<path d="M41 31C43.2091 31 45 32.7909 45 35C45 37.2091 43.2091 39 41 39C38.7909 39 37 37.2091 37 35C37 32.7909 38.7909 31 41 31ZM41 33C39.8954 33 39 33.8954 39 35C39 36.1046 39.8954 37 41 37C42.1046 37 43 36.1046 43 35C43 33.8954 42.1046 33 41 33Z" fill="oklch(0.3523 0 0 / 1)" class="wd-expressive-fill"></path>
<path d="M28 3C34.0751 3 39 7.92487 39 14C39 14.3378 38.982 14.6719 38.9521 15.002C42.3472 17.8654 44.604 22.0327 44.9502 26.7334C49.0733 28.3208 52 32.3175 52 37C52 43.0751 47.0751 48 41 48C37.7341 48 34.8017 46.5756 32.7871 44.3154C31.2687 44.7604 29.6624 45 28 45C26.6279 45 25.2945 44.8346 24.0166 44.5273C22.01 46.6635 19.1621 48 16 48C9.92487 48 5 43.0751 5 37C5 32.7177 7.44844 29.0096 11.0205 27.1924C11.2492 22.3044 13.5416 17.9574 17.0469 15.001C17.0171 14.6712 17 14.3375 17 14C17 7.92487 21.9249 3 28 3ZM16 42C13.842 42 11.8538 42.7187 10.2588 43.9307C11.8169 45.2228 13.8176 46 16 46C18.1821 46 20.1822 45.2226 21.7402 43.9307C20.1453 42.719 18.1577 42 16 42ZM41 42C38.842 42 36.8538 42.7187 35.2588 43.9307C36.8169 45.2228 38.8176 46 41 46C43.1821 46 45.1822 45.2226 46.7402 43.9307C45.1453 42.719 43.1577 42 41 42ZM17.5 17.2881C15.0825 19.6581 13.4653 22.8401 13.0869 26.3926C14.0149 26.1383 14.9913 26 16 26C22.0751 26 27 30.9249 27 37C27 39.1152 26.4009 41.0896 25.3662 42.7666C26.2214 42.9186 27.1012 43 28 43C29.2131 43 30.3919 42.8532 31.5215 42.5811C30.5559 40.9447 30 39.0376 30 37C30 30.9249 34.9249 26 41 26C41.6431 26 42.2729 26.0582 42.8857 26.1641C42.4635 22.7038 40.8645 19.608 38.499 17.2891C37.1006 21.7574 32.9293 25 28 25C23.0702 25 18.898 21.757 17.5 17.2881ZM16 28C11.0294 28 7 32.0294 7 37C7 39.0643 7.69652 40.965 8.86523 42.4834C10.8257 40.9303 13.3048 40 16 40C18.695 40 21.1734 40.9306 23.1338 42.4834C24.3027 40.9649 25 39.0645 25 37C25 32.0294 20.9706 28 16 28ZM41 28C36.0294 28 32 32.0294 32 37C32 39.0643 32.6965 40.965 33.8652 42.4834C35.8257 40.9303 38.3048 40 41 40C43.695 40 46.1734 40.9306 48.1338 42.4834C49.3027 40.9649 50 39.0645 50 37C50 32.0294 45.9706 28 41 28ZM27.1348 15.292C26.9141 15.1449 26.6438 15.0906 26.3838 15.1426L22.5693 15.9053L20.3926 18.8076C21.9878 21.3266 24.7978 23 28 23C31.202 23 34.0112 21.3264 35.6064 18.8076L32.9336 15.2451L31.6641 16.0928C30.6564 16.7644 29.3436 16.7644 28.3359 16.0928L27.1348 15.292ZM28 5C23.0294 5 19 9.02944 19 14C19 14.9621 19.1521 15.8886 19.4316 16.7578L26.7998 6.93359C27.3624 6.18349 28.4527 6.13642 29.0811 6.79297L29.2002 6.93359L36.5674 16.7578C36.847 15.8885 37 14.9622 37 14C37 9.02944 32.9706 5 28 5ZM24.3691 13.5059L25.9912 13.1816C26.7714 13.0256 27.5821 13.1866 28.2441 13.6279L29.4453 14.4287C29.7811 14.6525 30.2189 14.6525 30.5547 14.4287L31.7324 13.6426L28 8.66699L24.3691 13.5059Z" fill="oklch(0.3523 0 0 / 1)" class="wd-expressive-fill"></path>
</g>
</svg>