<svg role="presentation" width="56" height="56" viewBox="0 0 56 56" xmlns="http://www.w3.org/2000/svg" class="wd-expressive wd-expressive-chevron-right">
<path d="M23.1385 6.87784C23.3852 6.75412 23.6853 6.85396 23.8113 7.09952C27.3382 13.9706 32.1954 20.0525 38.0819 25.0019C38.0892 25.0073 38.0982 25.0115 38.1053 25.0175L38.7733 25.5741C38.8118 25.6055 38.8499 25.6376 38.8885 25.6689C39.1557 25.8854 39.3796 26.144 39.5555 26.4306C39.5628 26.4425 39.5698 26.4547 39.577 26.4667C39.5982 26.5024 39.6188 26.5385 39.6385 26.5751C39.6487 26.5941 39.658 26.6135 39.6678 26.6327C39.6837 26.6638 39.6998 26.6948 39.7147 26.7265C39.7215 26.741 39.7276 26.7558 39.7342 26.7704C39.773 26.8567 39.8082 26.9444 39.8387 27.0341C39.8397 27.037 39.8406 27.0399 39.8416 27.0429C39.8571 27.0887 39.8714 27.1349 39.8846 27.1815C39.8907 27.203 39.8966 27.2244 39.9022 27.246C39.9247 27.3329 39.9441 27.4207 39.9588 27.5097C39.9613 27.5246 39.9634 27.5396 39.9656 27.5546C39.9866 27.6943 39.9988 27.8362 39.9998 27.9794C39.9999 27.9866 39.9988 27.9937 39.9988 28.0009C39.9988 28.008 39.9999 28.0152 39.9998 28.0224C39.9989 28.1563 39.988 28.2889 39.9696 28.4198C39.9662 28.4437 39.9627 28.4674 39.9588 28.4911C39.9441 28.5801 39.9247 28.6679 39.9022 28.7548C39.8966 28.7764 39.8907 28.7978 39.8846 28.8192C39.8446 28.9602 39.794 29.0972 39.7342 29.2304C39.7276 29.245 39.7215 29.2598 39.7147 29.2743C39.6998 29.306 39.6837 29.3369 39.6678 29.3681C39.6583 29.3866 39.6494 29.4054 39.6395 29.4237C39.4534 29.7693 39.2007 30.0799 38.8885 30.3329C38.8461 30.3673 38.8039 30.4019 38.7615 30.4364L38.1043 30.9843C38.0987 30.989 38.0915 30.9916 38.0858 30.996C32.1974 35.946 27.3391 42.0294 23.8113 48.9023C23.6853 49.1478 23.3852 49.2477 23.1385 49.1239L18.6707 46.8798C18.424 46.7558 18.3241 46.4547 18.45 46.2089C21.9738 39.3301 26.7051 33.1664 32.3963 28.0009C26.7051 22.8354 21.9738 16.6717 18.45 9.79288C18.3241 9.5471 18.424 9.24594 18.6707 9.12198L23.1385 6.87784Z" fill="oklch(0.3057 0.079 256.22 / 0.13)" class="wd-expressive-accent"></path>
<path d="M22.6904 5.98427C23.3863 5.6355 24.216 5.87949 24.625 6.51161L24.7011 6.64247L25.0302 7.27333C28.4643 13.7628 33.1151 19.5153 38.7138 24.2255C38.7234 24.2328 38.7342 24.2408 38.7451 24.2499L39.3379 24.7431C39.4137 24.8051 39.4536 24.8389 39.5185 24.8915C39.9956 25.2782 40.3684 25.7645 40.6211 26.3036L40.6367 26.3388C40.6371 26.3397 40.6374 26.3411 40.6377 26.3417C40.6893 26.4549 40.738 26.573 40.7802 26.6952L40.8154 26.8017C40.8211 26.8199 40.8358 26.8676 40.8486 26.913L40.8672 26.9843C40.8689 26.9916 40.8694 26.9932 40.8701 26.996C40.8738 27.0103 40.8897 27.0687 40.9013 27.12L40.9209 27.2147C40.9427 27.3238 40.9615 27.438 40.9746 27.5546L40.9902 27.7362L40.998 27.913L40.999 27.9237L41 27.9725L40.999 27.994L41 28.0302C40.9917 29.2267 40.448 30.3579 39.5185 31.1112C39.4502 31.1666 39.3875 31.218 39.3115 31.2802L38.7451 31.7528L38.7441 31.7548C38.7352 31.7622 38.7243 31.7667 38.7158 31.7733C33.1158 36.4839 28.4649 42.2387 25.0302 48.7294L24.7011 49.3612C24.3275 50.0884 23.4332 50.3918 22.6904 50.0194L18.2217 47.7743C17.4839 47.4035 17.1797 46.4994 17.5605 45.7548C20.9727 39.0938 25.5 33.0931 30.9238 28.0018C25.5 22.9106 20.9727 16.9099 17.5605 10.2489C17.1787 9.50355 17.4843 8.60001 18.2217 8.22938L22.6904 5.98427ZM19.5742 9.78798C23.0174 16.378 27.5914 22.2899 33.0693 27.2616C33.278 27.4511 33.3974 27.7199 33.3974 28.0018C33.3974 28.2838 33.2781 28.5526 33.0693 28.7421C27.5916 33.7136 23.0173 39.625 19.5742 46.2147L23.1484 48.0116C26.7181 41.1973 31.5794 35.1595 37.4463 30.2284C37.4562 30.2201 37.4663 30.2119 37.4765 30.204C37.4849 30.1975 37.493 30.1912 37.5009 30.1854L38.0381 29.7382L38.0459 29.7313C38.1097 29.6791 38.1868 29.6149 38.2588 29.5565C38.7215 29.1815 38.9925 28.6195 38.999 28.0243V27.9794C38.9987 27.973 38.9982 27.9656 38.998 27.9579C38.9966 27.8937 38.9925 27.8342 38.9863 27.7792C38.9802 27.725 38.9716 27.6676 38.9599 27.6093L38.9502 27.5614C38.9479 27.5512 38.9465 27.5461 38.9345 27.4999L38.9267 27.4667C38.9258 27.4628 38.9245 27.4587 38.9238 27.4559C38.9231 27.453 38.9223 27.451 38.9218 27.4491V27.4472C38.9194 27.4392 38.9148 27.4276 38.9072 27.4032L38.8896 27.3495C38.8696 27.2916 38.8456 27.2317 38.8183 27.1718C38.8156 27.1657 38.8132 27.1591 38.8115 27.1552L38.8105 27.1532C38.6828 26.8806 38.4949 26.6377 38.2588 26.4462C38.1976 26.3966 38.1119 26.3248 38.0644 26.286L38.0566 26.2802L37.4824 25.8017L37.4424 25.7704C31.5775 20.84 26.7173 14.8039 23.1484 7.9911L19.5742 9.78798ZM38.6592 24.1854C38.6547 24.1823 38.651 24.1794 38.6484 24.1776L38.6445 24.1757C38.647 24.1773 38.6524 24.1808 38.6592 24.1854Z" fill="oklch(0.3523 0 0 / 1)" class="wd-expressive-fill"></path>
</svg>