<svg role="presentation" width="56" height="56" viewBox="0 0 56 56" xmlns="http://www.w3.org/2000/svg" class="wd-expressive wd-expressive-bitcoin-circle">
<path d="M28 4C41.2548 4 52 14.7452 52 28C52 41.2548 41.2548 52 28 52C14.7452 52 4 41.2548 4 28C4 14.7452 14.7452 4 28 4ZM28 8C16.9543 8 8 16.9543 8 28C8 39.0457 16.9543 48 28 48C39.0457 48 48 39.0457 48 28C48 16.9543 39.0457 8 28 8Z" fill="oklch(0.3057 0.079 256.22 / 0.13)" class="wd-expressive-accent"></path>
<g>
<path d="M25.5 14C25.7761 14 26 14.2239 26 14.5V18H29V14.5C29 14.2239 29.2239 14 29.5 14H30.5C30.7761 14 31 14.2239 31 14.5V18H32C34.7614 18 37 20.2386 37 23C37 24.5003 36.3384 25.8452 35.292 26.7617C36.9124 27.7186 38 29.4819 38 31.5C38 34.5376 35.5376 37 32.5 37H31V40.5C31 40.7761 30.7761 41 30.5 41H29.5C29.2239 41 29 40.7761 29 40.5V37H26V40.5C25.9999 40.776 25.776 40.9998 25.5 41H24.5C24.2239 41 24.0001 40.7761 24 40.5V37H19.5C19.2239 37 19.0001 36.7761 19 36.5V35.5C19 35.2239 19.2239 35 19.5 35H20V20H19.5C19.2239 20 19.0001 19.7761 19 19.5V18.5C19 18.2239 19.2239 18 19.5 18H24V14.5C24 14.2239 24.2239 14 24.5 14H25.5ZM22 35H32.5C34.433 35 36 33.433 36 31.5C36 29.567 34.433 28 32.5 28H22V35ZM22 26H32C33.6569 26 35 24.6569 35 23C35 21.3431 33.6569 20 32 20H22V26Z" fill="oklch(0.3523 0 0 / 1)" class="wd-expressive-fill"></path>
<path d="M28 3C41.8071 3 53 14.1929 53 28C53 41.8071 41.8071 53 28 53C14.1929 53 3 41.8071 3 28C3 14.1929 14.1929 3 28 3ZM28 5C15.2975 5 5 15.2975 5 28C5 40.7025 15.2975 51 28 51C40.7025 51 51 40.7025 51 28C51 15.2975 40.7025 5 28 5Z" fill="oklch(0.3523 0 0 / 1)" class="wd-expressive-fill"></path>
</g>
</svg>