<svg role="presentation" width="56" height="56" viewBox="0 0 56 56" xmlns="http://www.w3.org/2000/svg" class="wd-expressive wd-expressive-briefcase-clock">
<g>
<path d="M36.999 34C35.7437 35.6713 35 37.7488 35 40C35 45.5228 39.4772 50 45 50C47.2514 50 49.3286 49.2555 51 48C49.1756 50.4287 46.2715 52 43 52C37.4772 52 33 47.5228 33 42C33 38.7288 34.5707 35.8245 36.999 34Z" fill="oklch(0.3057 0.079 256.22 / 0.13)" class="wd-expressive-accent"></path>
<path d="M47.8213 11.1787C48.5157 11.4923 49 12.1886 49 13V18.9805C48.9999 20.4025 48.4065 21.7731 47.2881 22.6514C42.1625 26.6756 35.8688 29.2795 29 29.8711V27H23V29.8711C17.0597 29.3594 11.55 27.342 6.85352 24.2031C6.97599 24.4383 7.05474 24.6968 7.07617 24.9678L8.13672 38.3936C8.34207 40.9942 10.5123 43 13.1211 43H29.5C29.7761 43 30 43.2239 30 43.5V46H6C4.89543 46 4 45.1046 4 44V22L4.1084 22.0723C3.38165 21.2257 3.00007 20.1199 3 18.9805V13C3 12.1889 3.48377 11.4925 4.17773 11.1787C4.06455 11.4295 4 11.707 4 12V16.1768C4.0001 17.7085 4.68973 19.1752 5.95996 20.0312C11.5159 23.7753 18.4628 26 26 26C33.5372 26 40.4841 23.7753 46.04 20.0312C47.3103 19.1752 47.9999 17.7085 48 16.1768V12C48 11.7069 47.9346 11.4296 47.8213 11.1787Z" fill="oklch(0.3057 0.079 256.22 / 0.13)" class="wd-expressive-accent"></path>
</g>
<g>
<path d="M43.5 35C43.7761 35 44 35.2239 44 35.5V41H47.5C47.7761 41 48 41.2239 48 41.5V42.5C48 42.7761 47.7761 43 47.5 43H43C42.4477 43 42 42.5523 42 42V35.5C42 35.2239 42.2239 35 42.5 35H43.5Z" fill="oklch(0.3523 0 0 / 1)" class="wd-expressive-fill"></path>
<path d="M43 31C49.0751 31 54 35.9249 54 42C54 48.0751 49.0751 53 43 53C36.9249 53 32 48.0751 32 42C32 35.9249 36.9249 31 43 31ZM43 33C38.0294 33 34 37.0294 34 42C34 46.9706 38.0294 51 43 51C47.9706 51 52 46.9706 52 42C52 37.0294 47.9706 33 43 33Z" fill="oklch(0.3523 0 0 / 1)" class="wd-expressive-fill"></path>
<path d="M26 3C29.3674 3 32.4691 4.14931 34.9307 6.07617C35.6482 6.6379 36 7.49232 36 8.33203V10H47C48.6568 10.0001 50 11.3432 50 13V18.9805C49.9999 20.1676 49.6508 21.3449 48.9648 22.3184C48.9869 22.3748 49 22.4358 49 22.5V29.5C49 29.7761 48.7761 30 48.5 30H47.5C47.2239 30 47 29.7761 47 29.5V24.123C42.1312 27.7009 36.3159 30.066 30 30.7744V32.8545C29.9999 33.1388 29.8789 33.41 29.667 33.5996C28.6946 34.4699 27.408 35 26 35C24.592 35 23.3054 34.4699 22.333 33.5996C22.1211 33.41 22.0001 33.1388 22 32.8545V30.7744C15.684 30.066 9.86883 27.7009 5 24.123V44C5 44.5523 5.44772 45 6 45H29.5C29.7761 45 30 45.2239 30 45.5V46.5C30 46.7761 29.7761 47 29.5 47H6C4.34315 47 3 45.6569 3 44V22.5C3 22.4359 3.0122 22.3747 3.03418 22.3184C2.34849 21.345 2.00006 20.1674 2 18.9805V13C2 11.3432 3.3432 10.0001 5 10H16V8.33203C16 7.49232 16.3518 6.6379 17.0693 6.07617C19.5309 4.14931 22.6326 3 26 3ZM24 32.3691C24.5674 32.7656 25.2549 33 26 33C26.7451 33 27.4326 32.7656 28 32.3691V27H24V32.3691ZM5 12C4.44777 12.0001 4 12.4478 4 13V18.9805C4.00009 20.1314 4.4799 21.1967 5.33008 21.8643C10.0355 25.5587 15.7536 28.0177 22 28.7607V26C22 25.4477 22.4477 25 23 25H29C29.5523 25 30 25.4477 30 26V28.7607C36.2465 28.0177 41.9645 25.5587 46.6699 21.8643C47.5201 21.1967 47.9999 20.1314 48 18.9805V13C48 12.4478 47.5522 12.0001 47 12H5ZM26 5C23.095 5 20.424 5.99005 18.3018 7.65137C18.1235 7.79101 18 8.03404 18 8.33203V10H34V8.33203C34 8.03404 33.8765 7.79101 33.6982 7.65137C31.576 5.99005 28.905 5 26 5Z" fill="oklch(0.3523 0 0 / 1)" class="wd-expressive-fill"></path>
</g>
</svg>