<svg role="presentation" width="56" height="56" viewBox="0 0 56 56" xmlns="http://www.w3.org/2000/svg" class="wd-expressive wd-expressive-clipboard-hierarchy">
<g>
<path d="M45 50H11C11 46.5858 11.7079 43.2042 13.084 40.0498C13.6253 38.809 14.2674 37.6133 15 36.4717V44H41V21.1406C42.031 21.0453 43.0337 21 44 21H45V50Z" fill="oklch(0.3057 0.079 256.22 / 0.13)" class="wd-expressive-accent"></path>
<path d="M25 38H19V33H25V38Z" fill="oklch(0.3057 0.079 256.22 / 0.13)" class="wd-expressive-accent"></path>
<path d="M37 38H31V33H37V38Z" fill="oklch(0.3057 0.079 256.22 / 0.13)" class="wd-expressive-accent"></path>
<path d="M28 3C29.9339 3 31.6107 4.09857 32.4424 5.70508C32.5338 5.88125 32.7116 6 32.9102 6H36.5C36.7761 6 37 6.22386 37 6.5V12.5C36.9999 12.776 36.7761 13 36.5 13H19.5C19.2239 13 19.0001 12.776 19 12.5V6.5C19 6.22386 19.2239 6 19.5 6H23.0898C23.2884 6 23.4662 5.88125 23.5576 5.70508C24.3893 4.09857 26.0661 3 28 3Z" fill="oklch(0.3057 0.079 256.22 / 0.13)" class="wd-expressive-accent"></path>
</g>
<g>
<path d="M33 19C33.5523 19 34 19.4477 34 20V25C34 25.5523 33.5523 26 33 26H29V28H32L32.1543 28.0039C33.7394 28.0842 35 29.3949 35 31V32H37C37.5523 32 38 32.4477 38 33V38C38 38.5523 37.5523 39 37 39H31C30.4477 39 30 38.5523 30 38V33C30 32.4477 30.4477 32 31 32H33V31C33 30.4823 32.6067 30.0562 32.1025 30.0049L32 30H24C23.4477 30 23 30.4477 23 31V32H25C25.5523 32 26 32.4477 26 33V38C26 38.5523 25.5523 39 25 39H19C18.4477 39 18 38.5523 18 38V33C18 32.4477 18.4477 32 19 32H21V31C21 29.3431 22.3431 28 24 28H27V26H23C22.4477 26 22 25.5523 22 25V20C22 19.4477 22.4477 19 23 19H33ZM20 37H24V34H20V37ZM32 37H36V34H32V37ZM24 24H32V21H24V24Z" fill="oklch(0.3523 0 0 / 1)" class="wd-expressive-fill"></path>
<path d="M28 2C30.2218 2 32.1561 3.20968 33.1924 5H36.5C37.1529 5 37.707 5.41766 37.9131 6H43C44.6568 6.00001 46 7.34315 46 9V48C46 49.6568 44.6568 50.9999 43 51H13C11.3431 51 10 49.6568 10 48V9C10 7.34322 11.3432 6.00011 13 6H18.0869C18.293 5.41766 18.8471 5 19.5 5H22.8076C23.8439 3.20968 25.7782 2 28 2ZM13 8C12.4478 8.00011 12 8.44778 12 9V48C12 48.5523 12.4477 49 13 49H43C43.5522 48.9999 44 48.5522 44 48V9C44 8.44772 43.5523 8.00001 43 8H38V10H41C41.2652 10 41.5195 10.1054 41.707 10.293C41.8946 10.4805 42 10.7348 42 11V44C42 44.5522 41.5522 44.9999 41 45H15C14.7348 45 14.4805 44.8946 14.293 44.707C14.1054 44.5195 14 44.2652 14 44V11C14 10.4478 14.4478 10.0001 15 10H18V8H13ZM16 43H40V12H38V12.5C38 13.3284 37.3284 14 36.5 14H19.5C18.6716 14 18 13.3284 18 12.5V12H16V43ZM28 4C26.4548 4 25.1131 4.8764 24.4463 6.16406C24.2004 6.63899 23.6985 7 23.0898 7H20V12H36V7H32.9102C32.3015 7 31.7996 6.63899 31.5537 6.16406C30.8869 4.8764 29.5452 4 28 4Z" fill="oklch(0.3523 0 0 / 1)" class="wd-expressive-fill"></path>
</g>
</svg>