<svg role="presentation" width="56" height="56" viewBox="0 0 56 56" xmlns="http://www.w3.org/2000/svg" class="wd-expressive wd-expressive-pipeline">
<g>
<path d="M35.5 47C36.8807 47.0001 38 48.1193 38 49.5C38 50.8807 36.8807 51.9999 35.5 52C34.1193 51.9999 33 50.8807 33 49.5C33 48.1193 34.1193 47.0001 35.5 47Z" fill="oklch(0.3057 0.079 256.22 / 0.13)" class="wd-expressive-accent"></path>
<path d="M21.2666 43.8037C22.9596 44.4267 24.7624 44.8218 26.6387 44.9512C26.8695 45.4182 27 45.9438 27 46.5C27 48.433 25.4329 49.9999 23.5 50C21.5671 49.9999 20 48.433 20 46.5C20 45.4157 20.4924 44.4457 21.2666 43.8037Z" fill="oklch(0.3057 0.079 256.22 / 0.13)" class="wd-expressive-accent"></path>
<path d="M22 34C24.2091 34.0001 26 35.7909 26 38C26 38.3101 25.9632 38.6116 25.8965 38.9014C23.1587 38.6475 20.5638 37.902 18.1992 36.7559C18.7226 35.1562 20.2255 34.0001 22 34Z" fill="oklch(0.3057 0.079 256.22 / 0.13)" class="wd-expressive-accent"></path>
<path d="M36.6016 30.5107C36.8535 30.9499 37 31.4574 37 32C37 33.6568 35.6568 34.9999 34 35C32.3432 34.9999 31 33.6568 31 32C31 31.941 31.0015 31.8824 31.0049 31.8242C32.9456 31.5964 34.8193 31.1493 36.6016 30.5107Z" fill="oklch(0.3057 0.079 256.22 / 0.13)" class="wd-expressive-accent"></path>
<path d="M21.7109 18.3691C23.1938 18.6696 24.7142 18.866 26.2646 18.9502C27.3205 19.7737 28 21.0573 28 22.5C28 23.8871 27.3715 25.1267 26.3848 25.9521C24.0347 25.8208 21.7608 25.4061 19.5967 24.7393C19.2175 24.0797 19 23.3154 19 22.5C19 20.6504 20.1157 19.061 21.7109 18.3691Z" fill="oklch(0.3057 0.079 256.22 / 0.13)" class="wd-expressive-accent"></path>
<path d="M34 5C36.7614 5.00007 39 7.23862 39 10C39 10.4352 38.9434 10.8572 38.8389 11.2598C36.0217 12.1913 33.0443 12.7697 29.958 12.9424C29.3559 12.1167 29 11.1001 29 10C29 7.23862 31.2386 5.00007 34 5Z" fill="oklch(0.3057 0.079 256.22 / 0.13)" class="wd-expressive-accent"></path>
</g>
<g>
<path d="M35.5007 46C37.4335 46.0002 39.0007 47.5671 39.0007 49.5C39.0007 51.4329 37.4335 52.9998 35.5007 53C33.5677 52.9999 32.0007 51.433 32.0007 49.5C32.0007 47.567 33.5677 46.0001 35.5007 46ZM35.5007 48C34.6723 48.0001 34.0007 48.6716 34.0007 49.5C34.0007 50.3284 34.6723 50.9999 35.5007 51C36.329 50.9998 37.0007 50.3283 37.0007 49.5C37.0007 48.6717 36.329 48.0002 35.5007 48Z" fill="oklch(0.3523 0 0 / 1)" class="wd-expressive-fill"></path>
<path d="M42.3337 32.5254C42.6668 32.2273 43.158 32.1868 43.5358 32.4258C43.9131 32.6649 44.0862 33.1253 43.9597 33.5537L41.9597 40.3184C41.907 40.4961 41.8057 40.6556 41.6677 40.7793C38.0415 44.0248 33.2504 46 28.0007 46C27.991 46 27.9811 45.999 27.9714 45.999C27.9899 46.1635 28.0007 46.3306 28.0007 46.5C28.0007 48.9852 25.9858 50.9998 23.5007 51C21.0155 50.9999 19.0007 48.9852 19.0007 46.5C19.0007 45.6656 19.227 44.8838 19.6228 44.2139C17.6807 43.3431 15.8986 42.1799 14.3337 40.7793C14.1956 40.6556 14.0943 40.4961 14.0417 40.3184L12.0417 33.5537C11.9152 33.1252 12.0881 32.6649 12.4655 32.4258C12.8433 32.1868 13.3346 32.2272 13.6677 32.5254C14.9037 33.6317 16.2691 34.5954 17.737 35.3945C18.6155 33.9594 20.1947 33 22.0007 33C24.7538 33.0002 26.9866 35.2255 26.9997 37.9756C27.3314 37.9908 27.6652 38 28.0007 38C33.5078 38 38.5293 35.9304 42.3337 32.5254ZM21.5329 44.957C21.1991 45.3818 21.0007 45.9178 21.0007 46.5C21.0007 47.8807 22.12 48.9999 23.5007 49C24.8812 48.9998 26.0007 47.8806 26.0007 46.5C26.0007 46.2907 25.9713 46.0885 25.9226 45.8945C24.4044 45.7416 22.9352 45.423 21.5329 44.957ZM41.1589 35.9717C37.4045 38.5134 32.8755 40 28.0007 40C23.1256 40 18.5961 38.5137 14.8415 35.9717L15.8767 39.4727C19.1242 42.293 23.3619 44 28.0007 44C32.6392 44 36.8763 42.2928 40.1237 39.4727L41.1589 35.9717ZM22.0007 35C20.9869 35 20.0912 35.5034 19.5485 36.2734C21.2602 37.0061 23.0856 37.5232 24.9919 37.79C24.8841 36.2313 23.5868 35.0002 22.0007 35Z" fill="oklch(0.3523 0 0 / 1)" class="wd-expressive-fill"></path>
<path d="M34.0007 4C37.2433 4.00017 39.8832 6.57266 39.9948 9.78809C43.2885 8.52451 46.3323 6.75627 49.031 4.57715L49.1423 4.49512C49.7047 4.11613 50.3717 4.19671 50.8249 4.49023C51.3117 4.80573 51.6781 5.45192 51.4606 6.1875L49.9997 11.127C49.921 11.3928 49.7692 11.6341 49.5583 11.8213C43.9139 16.8278 36.5117 19.8982 28.3962 19.9951C28.7815 20.7465 29.0007 21.5975 29.0007 22.5C29.0007 23.3987 28.7834 24.2462 28.4011 24.9951C35.2877 24.8968 41.5602 22.2704 46.3337 17.998C46.6668 17.7 47.158 17.6594 47.5358 17.8984C47.9131 18.1375 48.0862 18.598 47.9597 19.0264L45.9597 25.791C45.907 25.9687 45.8057 26.1283 45.6677 26.252C43.3956 28.2855 40.7688 29.9309 37.8933 31.0889C37.9619 31.3816 38.0007 31.6863 38.0007 32C38.0007 34.209 36.2097 35.9998 34.0007 36C32.1066 35.9999 30.5211 34.683 30.1071 32.915C29.4121 32.9697 28.7097 33 28.0007 33C21.2142 33 15.0214 30.4475 10.3337 26.252C10.1956 26.1283 10.0943 25.9688 10.0417 25.791L8.0417 19.0264C7.91516 18.5979 8.08814 18.1375 8.46552 17.8984C8.84333 17.6595 9.33456 17.6999 9.66767 17.998C12.1059 20.1803 14.9353 21.9333 18.0378 23.1396C18.0133 22.9298 18.0007 22.7164 18.0007 22.5C18.0007 21.0964 18.5269 19.8164 19.3923 18.8447C14.5246 17.5107 10.1122 15.0757 6.44306 11.8213C6.23214 11.6341 6.08038 11.3929 6.00166 11.127L4.54072 6.1875C4.3232 5.45183 4.68961 4.80571 5.17646 4.49023C5.65992 4.17716 6.38681 4.10607 6.97041 4.57715C12.72 9.21983 20.0345 12 28.0007 12C28.1151 12 28.2293 11.9972 28.3435 11.9961C28.1224 11.3716 28.0007 10.7003 28.0007 10C28.0007 6.68634 30.687 4.00008 34.0007 4ZM35.986 31.7734C34.735 32.1684 33.4443 32.473 32.1208 32.6797C32.3992 33.4493 33.135 33.9999 34.0007 34C35.1051 33.9998 36.0007 33.1045 36.0007 32C36.0007 31.9233 35.9945 31.8478 35.986 31.7734ZM45.1384 21.5127C40.3078 24.9661 34.3911 27 28.0007 27C21.61 27 15.6927 24.9664 10.862 21.5127L11.8767 24.9453C16.186 28.7156 21.8252 31 28.0007 31C34.1759 31 39.8144 28.7153 44.1237 24.9453L45.1384 21.5127ZM21.8435 19.416C20.7461 20.0068 20.0007 21.1664 20.0007 22.5C20.0007 22.9994 20.1052 23.4744 20.2936 23.9043C22.1295 24.4392 24.0444 24.7882 26.0173 24.9287C26.6251 24.2994 27.0007 23.4442 27.0007 22.5C27.0007 21.4831 26.5662 20.5682 25.8737 19.9287C24.5055 19.8403 23.1604 19.6686 21.8435 19.416ZM49.1247 7.03223C43.222 11.4093 35.9127 14 28.0007 14C20.0883 14 12.7785 11.4095 6.87568 7.03223L7.87763 10.418C13.2486 15.1378 20.2888 18 28.0007 18C35.7122 18 42.7519 15.1375 48.1227 10.418L49.1247 7.03223ZM34.0007 6C31.7916 6.00008 30.0007 7.79091 30.0007 10C30.0007 10.6908 30.1756 11.3404 30.4841 11.9072C33.0718 11.7176 35.5776 11.2354 37.9685 10.4912C37.9884 10.3302 38.0007 10.1664 38.0007 10C38.0007 7.79097 36.2097 6.00018 34.0007 6Z" fill="oklch(0.3523 0 0 / 1)" class="wd-expressive-fill"></path>
</g>
</svg>