<svg role="presentation" width="56" height="56" viewBox="0 0 56 56" xmlns="http://www.w3.org/2000/svg" class="wd-expressive wd-expressive-flag-triangle">
<path d="M13 3C14.6569 3 16 4.34315 16 6C16 7.13085 15.3733 8.11374 14.4492 8.625C14.7895 8.98357 15 9.46661 15 10V53.5C15 53.7761 14.7761 54 14.5 54H11.5C11.2239 54 11 53.7761 11 53.5V10C11 9.46686 11.2098 8.98352 11.5498 8.625C10.6261 8.11362 10 7.13054 10 6C10 4.34315 11.3431 3 13 3Z" fill="oklch(0.3057 0.079 256.22 / 0.13)" class="wd-expressive-accent"></path>
<path d="M12.9996 2C13.8798 2 14.7357 2.29049 15.4341 2.82617C16.1327 3.36219 16.6349 4.11435 16.8629 4.96484C17.0907 5.81526 17.0317 6.71685 16.6949 7.53027C16.4839 8.03967 16.1713 8.49642 15.7798 8.875C15.8284 8.99491 15.867 9.11906 15.9 9.24609L52.8931 21.5771C54.2602 22.0332 54.2602 23.9668 52.8931 24.4229L15.9996 36.7197V53.5C15.9996 53.7761 15.7757 54 15.4996 54H14.4996C14.2236 53.9998 13.9996 53.776 13.9996 53.5V10C13.9996 9.44772 13.5519 9 12.9996 9C12.4474 9.00018 11.9996 9.44783 11.9996 10V53.5C11.9996 53.7761 11.7757 54 11.4996 54H10.4996C10.2236 53.9998 9.99958 53.776 9.99958 53.5V10C9.99958 9.60199 10.0786 9.22254 10.2193 8.875C9.82802 8.49646 9.51522 8.03957 9.30426 7.53027C8.96747 6.71691 8.90846 5.8152 9.13629 4.96484C9.36417 4.1144 9.86654 3.3622 10.565 2.82617C11.2634 2.29045 12.1194 2.00008 12.9996 2ZM15.9996 34.6123L17.9996 33.9453V12.0527L15.9996 11.3867V34.6123ZM19.9996 33.2783L50.8365 23L19.9996 12.7197V33.2783ZM12.9996 4C12.5594 4.00008 12.131 4.14514 11.7818 4.41309C11.4327 4.68109 11.1819 5.05727 11.0679 5.48242C10.954 5.90762 10.9835 6.35893 11.1519 6.76562C11.246 6.99259 11.3817 7.19782 11.5484 7.37402C11.9785 7.1358 12.4731 7.00006 12.9996 7C13.5259 7 14.0207 7.13593 14.4507 7.37402C14.6175 7.19778 14.7531 6.99269 14.8472 6.76562C15.0157 6.35887 15.0452 5.90769 14.9312 5.48242C14.8173 5.05721 14.5666 4.68108 14.2173 4.41309C13.8681 4.14517 13.4398 4 12.9996 4Z" fill="oklch(0.3523 0 0 / 1)" class="wd-expressive-fill"></path>
</svg>