<svg role="presentation" width="56" height="56" viewBox="0 0 56 56" xmlns="http://www.w3.org/2000/svg" class="wd-expressive wd-expressive-user-arrows">
<g>
<path d="M42.3156 36.7319C42.3919 36.8464 42.3099 36.9997 42.1723 36.9997C42.0771 36.9997 42 37.0768 42 37.172V40.8399C42 41.2666 42.506 41.5037 42.8499 41.251C43.1511 41.0297 43.4397 40.835 43.7079 40.665C43.7861 40.6154 43.8118 40.5131 43.7655 40.433C43.6971 40.3146 43.7883 40.1678 43.9248 40.1766L50.947 40.6301C51.303 40.6531 51.5211 41.0308 51.363 41.3506L48.5166 47.1081C48.3394 47.4656 47.8354 47.482 47.6357 47.1364L46.6124 45.3634C46.4698 45.1164 46.1491 45.0375 45.9172 45.2035C45.55 45.4663 45.1491 45.7901 44.75 46.1813C43.4538 47.4521 42.1409 49.4417 42.0106 52.4991C41.9988 52.775 41.7762 52.9997 41.5 52.9997H37.3096C37.1378 52.9997 36.9978 52.8619 36.9951 52.6901C36.9125 49.5244 35.573 47.4784 34.25 46.1813C33.8506 45.7898 33.4494 45.466 33.082 45.2033C32.85 45.0374 32.5293 45.1164 32.3867 45.3634L31.3633 47.1374C31.1636 47.4832 30.6594 47.467 30.4824 47.1091L27.6352 41.3507C27.477 41.0309 27.6952 40.6531 28.0512 40.6302L35.1266 40.1741C35.2934 40.1634 35.4438 40.07 35.5274 39.9252L36.4336 38.3561C36.4322 38.3586 36.4311 38.3615 36.4297 38.3639L35.394 40.1569C35.2588 40.3909 35.3344 40.6891 35.5595 40.8386C35.7491 40.9646 35.9468 41.1021 36.1502 41.2517C36.494 41.5045 37 41.2675 37 40.8408V37.172C37 37.0768 36.9229 36.9997 36.8277 36.9997C36.6901 36.9997 36.6081 36.8464 36.6844 36.7319L39.0839 33.1317C39.2819 32.8348 39.7181 32.8348 39.9161 33.1317L42.3156 36.7319Z" fill="oklch(0.3057 0.079 256.22 / 0.13)" class="wd-expressive-accent"></path>
<path d="M9.78973 34.7954C9.87763 34.733 10 34.807 10 34.9147V43.9997C10 45.0353 10.7872 45.8867 11.7959 45.9889L12 45.9997H26.5C26.7761 45.9997 27 46.2235 27 46.4997V48.4997C27 48.7758 26.7761 48.9997 26.5 48.9997H9L8.7959 48.9889C7.78724 48.8867 7 48.0353 7 46.9997V37.9147C7.00011 37.346 7.24049 36.8015 7.6748 36.4343C8.35543 35.8588 9.06135 35.3122 9.78973 34.7954Z" fill="oklch(0.3057 0.079 256.22 / 0.13)" class="wd-expressive-accent"></path>
<path d="M26.8428 38.2038C26.8454 38.2036 26.848 38.203 26.8506 38.2028L35.9639 37.6149C35.9661 37.6148 35.9684 37.615 35.9707 37.6149L26.8428 38.2038Z" fill="oklch(0.3057 0.079 256.22 / 0.13)" class="wd-expressive-accent"></path>
<path d="M52.1484 38.2009C52.1557 38.2013 52.1628 38.203 52.1699 38.2038L43.0146 37.613C43.0214 37.6131 43.0283 37.6125 43.0352 37.613L52.1484 38.2009Z" fill="oklch(0.3057 0.079 256.22 / 0.13)" class="wd-expressive-accent"></path>
<path d="M34.0098 36.235C34.0123 36.231 34.0149 36.2264 34.0176 36.2223L39.083 28.6237C39.085 28.6207 39.0878 28.6179 39.0898 28.6149L34.0098 36.235Z" fill="oklch(0.3057 0.079 256.22 / 0.13)" class="wd-expressive-accent"></path>
<path d="M20.807 7.05584C21.1808 6.66894 21.7521 7.155 21.5723 7.66202C21.202 8.70573 21 9.82905 21 10.9997C21 16.5225 25.4772 20.9997 31 20.9997C32.1707 20.9997 33.2937 20.7974 34.3372 20.4268C34.8441 20.2467 35.3301 20.8178 34.9433 21.1917C33.1453 22.9297 30.6984 23.9997 28 23.9997C22.4772 23.9997 18 19.5225 18 13.9997C18.0001 11.3016 19.0695 8.85416 20.807 7.05584Z" fill="oklch(0.3057 0.079 256.22 / 0.13)" class="wd-expressive-accent"></path>
</g>
<g>
<path d="M38.3711 27.9131C39.0062 27.1824 40.1914 27.2344 40.748 28.0693L45.8135 35.668C46.0977 36.0949 46.1278 36.5842 45.9766 37.0039L51.9932 37.002L52.1895 37.0146C53.1483 37.1378 53.7639 38.1504 53.3789 39.0771L49.8701 47.5088C49.4106 48.6132 47.9034 48.7632 47.2373 47.7656L46.3467 46.4307C46.0537 46.7229 45.7496 47.0442 45.4473 47.3896C43.9829 49.0632 42.9206 50.896 42.7695 52.5898C42.7075 53.2785 42.1717 53.915 41.4072 53.9922L41.251 54H37.7324C36.9111 54 36.2998 53.3584 36.2217 52.625C36.0195 50.726 34.942 48.9752 33.5547 47.3896C33.2573 47.0499 32.9577 46.7337 32.6689 46.4453L31.8066 47.7568C31.146 48.7587 29.6378 48.616 29.1719 47.5156L25.6133 39.1055C25.1961 38.1186 25.9178 37.0276 26.9863 37.0215L33.0176 36.9873C32.873 36.5712 32.9056 36.0895 33.1865 35.668L38.252 28.0693L38.3711 27.9131ZM35.3691 36H38.251V45.832L36.5166 43.9561C35.7392 43.1152 34.9904 42.4249 34.4082 41.9258C34.4041 41.9222 34.3977 41.9181 34.3857 41.9082C34.3756 41.8998 34.3571 41.8847 34.3389 41.8691L33.666 41.2959L35.1943 38.9756L27.7471 39.0166L30.6494 45.877L32.293 43.3809L33.1572 44.1553C33.7173 44.6573 34.3908 45.3078 35.0605 46.0732C36.4713 47.6857 37.7879 49.6767 38.1543 52H40.8271C41.1507 49.8281 42.4681 47.7571 43.9414 46.0732C44.6152 45.3033 45.2917 44.6493 45.8545 44.1455L46.7139 43.377L48.3828 45.8789L51.2432 39.002L43.7949 39.0049L45.3271 41.3018L44.6504 41.8779C44.6217 41.9023 44.6144 41.9081 44.5938 41.9258C44.0114 42.425 43.2624 43.1147 42.4854 43.9551L40.751 45.8311V36H43.6309L39.5 29.8027L35.3691 36Z" fill="oklch(0.3523 0 0 / 1)" class="wd-expressive-fill"></path>
<path d="M28 28C29.9429 28 31.8468 28.1708 33.6973 28.498C33.9692 28.5461 34.1471 28.8089 34.0947 29.0801L33.9053 30.0615C33.853 30.3325 33.5911 30.5094 33.3193 30.4619C31.5928 30.1583 29.815 30 28 30C20.4988 30 13.6325 32.7072 8.32031 37.1982C8.12226 37.3658 8.00005 37.6252 8 37.915V47C8.0001 47.5522 8.44778 48 9 48H26.5C26.7761 48 27 48.2239 27 48.5V49.5C26.9999 49.7761 26.7761 50 26.5 50H9C7.34321 50 6.0001 48.6568 6 47V37.915C6.00005 37.0673 6.35874 36.2379 7.0293 35.6709C12.689 30.8861 20.0086 28 28 28Z" fill="oklch(0.3523 0 0 / 1)" class="wd-expressive-fill"></path>
<path d="M28 3C34.0751 3 39 7.92487 39 14C39 20.0751 34.0751 25 28 25C21.9249 25 17 20.0751 17 14C17 7.92487 21.9249 3 28 3ZM28 5C23.0294 5 19 9.02944 19 14C19 18.9706 23.0294 23 28 23C32.9706 23 37 18.9706 37 14C37 9.02944 32.9706 5 28 5Z" fill="oklch(0.3523 0 0 / 1)" class="wd-expressive-fill"></path>
</g>
</svg>