<svg role="presentation" width="56" height="56" viewBox="0 0 56 56" xmlns="http://www.w3.org/2000/svg" class="wd-expressive wd-expressive-comment">
<path d="M10.9131 9.11914C10.338 9.9335 10 10.9272 10 12V34C10 36.4189 11.7178 38.4361 14 38.8994V44C15.7601 43.9025 17.4923 43.1816 18.8369 41.8369C19.6637 41.0101 20.2531 40.0363 20.6084 39H47C47.3731 39 47.7362 38.9574 48.0859 38.8799C47.1807 40.1619 45.6887 41 44 41H20.3906C19.8785 42.4269 19.0532 43.767 17.9102 44.9102C15.9893 46.8311 13.5145 47.8607 11 48V40.8994C8.71782 40.4361 7 38.4189 7 36V14C7 11.6119 8.67436 9.61547 10.9131 9.11914Z" fill="oklch(0.3057 0.079 256.22 / 0.13)" class="wd-expressive-accent"></path>
<g>
<path d="M29.5 28C29.7761 28 30 28.2239 30 28.5V29.5C30 29.7761 29.7761 30 29.5 30H15.5C15.2239 30 15 29.7761 15 29.5V28.5C15 28.2239 15.2239 28 15.5 28H29.5Z" fill="oklch(0.3523 0 0 / 1)" class="wd-expressive-fill"></path>
<path d="M40.5 21C40.7761 21 41 21.2239 41 21.5V22.5C41 22.7761 40.7761 23 40.5 23H15.5C15.2239 23 15 22.7761 15 22.5V21.5C15 21.2239 15.2239 21 15.5 21H40.5Z" fill="oklch(0.3523 0 0 / 1)" class="wd-expressive-fill"></path>
<path d="M44.3086 8.00781C47.4789 8.16843 50 10.7898 50 14V37C50 40.3137 47.3137 43 44 43H21.0703C20.5057 44.3137 19.6891 45.5452 18.6172 46.6172C16.5156 48.7188 13.806 49.8456 11.0557 49.998C10.7813 50.0132 10.5121 49.9154 10.3125 49.7266C10.1129 49.5377 10 49.2748 10 49V42.6562C7.75092 41.861 6.11651 39.7655 6.00586 37.2705L6 37V14C6 10.6863 8.68629 8 12 8H44L44.3086 8.00781ZM12 10C9.79086 10 8 11.7909 8 14V37L8.00391 37.1807C8.08634 39.0337 9.43088 40.5599 11.1992 40.9189C11.6652 41.0136 12 41.4239 12 41.8994V47.8818C13.9055 47.5639 15.7329 46.6734 17.2031 45.2031C18.2389 44.1673 18.9855 42.9541 19.4492 41.6621C19.5918 41.2649 19.9686 41 20.3906 41H44L44.2061 40.9951C46.3194 40.8879 48 39.14 48 37V14C48 11.86 46.3194 10.1121 44.2061 10.0049L44 10H12Z" fill="oklch(0.3523 0 0 / 1)" class="wd-expressive-fill"></path>
</g>
</svg>