<svg role="presentation" width="56" height="56" viewBox="0 0 56 56" xmlns="http://www.w3.org/2000/svg" class="wd-expressive wd-expressive-ping-pong">
<g>
<path d="M27.2514 39.2515C24.291 38.7767 21.6048 38.6376 19.2211 41.021C17.0997 43.1424 14.392 46.6457 13.1713 48.2642C12.7638 48.804 12.1083 49.1339 11.4506 48.9761C10.4115 48.7265 9.42565 48.1962 8.61464 47.3853C7.80349 46.574 7.27228 45.5877 7.02284 44.5483C6.86517 43.8906 7.19584 43.2351 7.73573 42.8276C9.35419 41.6069 12.8565 38.9001 14.9779 36.7788C17.3621 34.3947 17.2224 31.7086 16.7475 28.7476L27.2514 39.2515Z" fill="oklch(0.3057 0.079 256.22 / 0.13)" class="wd-expressive-accent"></path>
<path d="M40.1185 34.9146C40.0412 35.2641 39.9994 35.6277 39.9994 36.0005C39.9997 38.7616 42.2383 41.0004 44.9994 41.0005C46.0721 41.0005 47.065 40.6605 47.8793 40.0854C47.3834 42.3247 45.3879 44.0005 42.9994 44.0005C40.2383 44.0004 37.9997 41.7616 37.9994 39.0005C37.9994 37.3122 38.8371 35.8199 40.1185 34.9146Z" fill="oklch(0.3057 0.079 256.22 / 0.13)" class="wd-expressive-accent"></path>
</g>
<g>
<path d="M31.1347 6.22596C35.7457 5.45927 40.741 6.53737 45.1025 10.8988C48.5364 14.3329 49.9456 18.1733 50 21.9281C50.0513 25.4792 48.8915 28.8956 47.1972 31.7816C47.0574 32.0196 46.7486 32.0924 46.5136 31.9476L46.0888 31.6849L45.6621 31.4222C45.4275 31.2773 45.3552 30.97 45.4941 30.7318C47.0367 28.0921 48.0446 25.0465 48 21.9574C47.9532 18.7264 46.7563 15.3818 43.6875 12.3129C39.8155 8.44108 35.4842 7.52997 31.4629 8.19861C27.3935 8.87537 23.6052 11.1825 20.9902 13.7972C18.7227 16.0648 17.679 18.1926 17.2529 20.1801C17.0039 21.3417 16.9605 22.4817 17.0273 23.6137L32.3886 38.975C33.1032 39.0172 33.8268 39.0166 34.5674 38.9428C34.8419 38.9155 35.0947 39.1042 35.1338 39.3773L35.205 39.8715L35.2754 40.3676C35.3139 40.6406 35.1238 40.8945 34.8496 40.9232C31.729 41.2476 28.7527 40.4601 26.3779 40.1312C23.808 39.7755 21.7755 39.8807 19.9287 41.7269C17.8635 43.7921 15.1953 47.243 13.9707 48.8666C13.393 49.632 12.3632 50.2234 11.2177 49.9486C10.0044 49.6572 8.8533 49.0372 7.90818 48.0922C6.96316 47.147 6.34307 45.9955 6.05173 44.7816C5.77698 43.6355 6.36966 42.6058 7.13474 42.0287C8.75841 40.804 12.2064 38.1366 14.2715 36.0717C15.5767 34.7663 15.9972 33.3863 16.0283 31.8363C16.0611 30.1956 15.6678 28.4753 15.3379 26.3959C15.018 24.38 14.7879 22.1387 15.2978 19.7601C15.8125 17.3602 17.0625 14.8959 19.5752 12.3832C22.4206 9.53789 26.5721 6.98475 31.1347 6.22596ZM17.4443 26.8588C17.7288 28.5182 18.0607 30.2546 18.0283 31.8763C17.9888 33.8437 17.4213 35.7507 15.6865 37.4857C13.5092 39.663 9.95252 42.4082 8.33884 43.6254C8.02403 43.8629 7.9556 44.1453 7.99607 44.3148L8.08493 44.6371C8.31776 45.3828 8.7306 46.0854 9.32321 46.6781C10 47.3548 10.8198 47.7956 11.6845 48.0033C11.8546 48.044 12.1368 47.9758 12.374 47.6615L13.541 46.139C14.9288 44.356 16.8817 41.9468 18.5146 40.3138L18.7519 40.0844C21.2142 37.7907 23.968 37.7791 26.6523 38.1508C27.495 38.2674 28.3203 38.4147 29.1406 38.5551L17.4443 26.8588Z" fill="oklch(0.3523 0 0 / 1)" class="wd-expressive-fill"></path>
<path d="M43 33.0004C46.3137 33.0004 49 35.6867 49 39.0004C48.9999 42.314 46.3136 45.0004 43 45.0004C39.6863 45.0004 37 42.314 37 39.0004C37 35.6867 39.6863 33.0004 43 33.0004ZM43 35.0004C40.7908 35.0004 39 36.7912 39 39.0004C39 41.2094 40.7909 43.0004 43 43.0004C45.2091 43.0004 46.9999 41.2094 47 39.0004C47 36.7912 45.2091 35.0004 43 35.0004Z" fill="oklch(0.3523 0 0 / 1)" class="wd-expressive-fill"></path>
</g>
</svg>