<svg role="presentation" width="56" height="56" viewBox="0 0 56 56" xmlns="http://www.w3.org/2000/svg" class="wd-expressive wd-expressive-guidance-question">
<g>
<path d="M35.8103 36.0521C35.2893 37.2633 34.9998 38.5981 34.9998 40.0003C35 45.5229 39.4772 50.0002 44.9998 50.0003C47.8224 50.0003 50.37 48.8284 52.1883 46.9476C50.657 50.5069 47.1203 53.0003 42.9998 53.0003C37.4772 53.0002 33 48.5229 32.9998 43.0003C32.9998 40.3004 34.0713 37.8513 35.8103 36.0521Z" fill="oklch(0.3057 0.079 256.22 / 0.13)" class="wd-expressive-accent"></path>
<path d="M8.99978 25.9993C9.55202 25.9993 9.99971 26.4471 9.99978 26.9993V44.9993C9.99978 46.1038 10.8953 46.9992 11.9998 46.9993H29.4998C30.3282 46.9993 30.9997 47.671 30.9998 48.4993C30.9998 49.3278 30.3282 49.9993 29.4998 49.9993H8.99978C7.89534 49.9992 6.99978 49.1038 6.99978 47.9993V39.2689C6.99968 38.6754 6.73595 38.1126 6.28006 37.7327L3.46072 35.3831C3.22148 35.1832 3.22127 34.8153 3.46072 34.6155L6.28103 32.265C6.73666 31.885 6.99978 31.3221 6.99978 30.7288V27.9993C7.00005 26.8951 7.8955 25.9995 8.99978 25.9993Z" fill="oklch(0.3057 0.079 256.22 / 0.13)" class="wd-expressive-accent"></path>
<path d="M4.01052 10.6468C4.59633 10.0613 5.54692 10.0612 6.13259 10.6468L17.6316 22.1458C17.9465 22.4607 17.7233 22.9991 17.2781 22.9993H11.7215C11.5889 22.9993 11.4617 22.9466 11.3679 22.8528L2.64724 14.1321C2.06155 13.5464 2.06164 12.5959 2.64724 12.0101L4.01052 10.6468Z" fill="oklch(0.3057 0.079 256.22 / 0.13)" class="wd-expressive-accent"></path>
<path d="M22.3386 7.76495C22.3809 7.30186 22.9779 7.14251 23.2459 7.52276L26.3064 11.8655C26.4077 12.0095 26.4845 12.1711 26.5301 12.3411L29.2156 22.3704C29.3005 22.6878 29.0617 22.9991 28.7332 22.9993H24.6892C24.463 22.9993 24.2645 22.8477 24.2058 22.6292L21.8748 13.928C21.8293 13.7581 21.8132 13.5808 21.8289 13.4056L22.3386 7.76495Z" fill="oklch(0.3057 0.079 256.22 / 0.13)" class="wd-expressive-accent"></path>
<path d="M43.076 11.0003C43.5442 11.0008 43.9509 11.3264 44.0525 11.7835L44.3572 13.1634C44.394 13.3296 44.5138 13.4646 44.6707 13.5306C44.675 13.5324 44.6791 13.5346 44.6834 13.5364C44.8402 13.6028 45.0202 13.5917 45.1638 13.5003L46.3601 12.7396C46.7554 12.4883 47.273 12.5451 47.6043 12.8763L48.9636 14.2347C49.2873 14.559 49.3495 15.0633 49.114 15.4564L48.4011 16.6409C48.3129 16.7875 48.307 16.9686 48.3777 17.1243C48.4082 17.1915 48.4381 17.2592 48.4666 17.3275C48.532 17.4844 48.6668 17.604 48.8328 17.6409L50.2176 17.9485C50.6745 18.0505 51.0006 18.4568 51.0008 18.9251V20.847C51.0004 21.3053 50.6875 21.7052 50.2429 21.8167L49.3728 22.0335C49.1542 22.0878 49.0008 22.2838 49.0008 22.5091C49.0008 22.78 48.7804 22.9993 48.5095 22.9993H45.9627C45.5023 22.9991 45.2441 22.3787 45.4724 21.9788C45.8053 21.3955 45.9958 20.7199 45.9959 20.0003C45.9957 17.7916 44.2045 16.0008 41.9959 16.0003C39.7869 16.0004 37.996 17.7914 37.9959 20.0003C37.996 20.7201 38.1863 21.3954 38.5193 21.9788C38.7477 22.3788 38.4887 22.9993 38.0281 22.9993H34.9304C34.8984 22.9993 34.8736 22.9717 34.8767 22.9398V22.4857C34.8765 22.2562 34.7195 22.0567 34.4969 22.0013L33.7586 21.8167C33.3136 21.7055 33.0011 21.3056 33.0008 20.847V18.9251C33.0009 18.4566 33.3266 18.0502 33.784 17.9485L35.157 17.6429C35.323 17.6059 35.4578 17.4864 35.5232 17.3294C35.553 17.2579 35.5839 17.1868 35.616 17.1165C35.6871 16.9609 35.6816 16.7798 35.5935 16.6331L34.8875 15.4564C34.6518 15.0631 34.7137 14.559 35.0379 14.2347L36.3972 12.8763C36.7287 12.5452 37.2461 12.488 37.6414 12.7396L38.8318 13.4974C38.9754 13.5887 39.1551 13.5997 39.3123 13.5345C39.3824 13.5054 39.453 13.4773 39.5242 13.4505C39.684 13.3903 39.8078 13.2587 39.8494 13.0931L40.1844 11.7581C40.2956 11.3131 40.6954 11.0005 41.1541 11.0003H43.076Z" fill="oklch(0.3057 0.079 256.22 / 0.13)" class="wd-expressive-accent"></path>
</g>
<g>
<path d="M42.9999 45.7506C43.6901 45.7507 44.2499 46.3103 44.2499 47.0006C44.2497 47.6907 43.69 48.2504 42.9999 48.2506C42.3097 48.2506 41.7501 47.6908 41.7499 47.0006C41.7499 46.3102 42.3095 45.7506 42.9999 45.7506Z" fill="oklch(0.3523 0 0 / 1)" class="wd-expressive-fill"></path>
<path d="M43.4013 37.0006C44.7594 37.0009 46.0017 37.7683 46.6093 38.983C47.561 40.8873 46.6542 43.1979 44.661 43.9459L44.3104 44.0767C44.1241 44.1464 43.9999 44.3251 43.9999 44.524C43.9996 44.787 43.7863 45.0004 43.5233 45.0006H42.4999C42.224 45.0004 42.0001 44.7764 41.9999 44.5006V44.1891C41.9999 43.3585 42.5153 42.6146 43.2929 42.3228L43.9579 42.0728C44.8395 41.742 45.241 40.7199 44.8202 39.8775C44.5514 39.3404 44.0019 39.0009 43.4013 39.0006H42.9999C42.0664 39.0007 41.2827 39.6405 41.0624 40.5055C40.9942 40.7729 40.7758 41.0004 40.4999 41.0006H39.4999C39.224 41.0004 38.9973 40.7753 39.0311 40.5016C39.2767 38.528 40.9599 37.0008 42.9999 37.0006H43.4013Z" fill="oklch(0.3523 0 0 / 1)" class="wd-expressive-fill"></path>
<path d="M42.9999 32.0006C49.0749 32.0007 53.9999 36.9255 53.9999 43.0006C53.9997 49.0754 49.0748 54.0004 42.9999 54.0006C36.9249 54.0006 32.0001 49.0755 31.9999 43.0006C31.9999 36.9254 36.9248 32.0006 42.9999 32.0006ZM42.9999 34.0006C38.0293 34.0006 33.9999 38.03 33.9999 43.0006C34.0001 47.971 38.0294 52.0006 42.9999 52.0006C47.9702 52.0004 51.9997 47.9709 51.9999 43.0006C51.9999 38.0301 47.9703 34.0007 42.9999 34.0006Z" fill="oklch(0.3523 0 0 / 1)" class="wd-expressive-fill"></path>
<path d="M46.9999 25.0006C48.9507 25.0007 50.5745 26.3977 50.9276 28.2457C50.9722 28.3205 50.9999 28.4072 50.9999 28.5006V30.5006C50.9997 30.7765 50.7758 31.0004 50.4999 31.0006H49.4999C49.2239 31.0006 49.0001 30.7765 48.9999 30.5006V29.0006C48.9999 27.8961 48.1043 27.0008 46.9999 27.0006H9.99988C8.89532 27.0006 7.99988 27.896 7.99988 29.0006V32.1353L4.56238 34.9996L7.99988 37.8648V47.0006C8.00008 48.105 8.89544 49.0006 9.99988 49.0006H30.4999C30.7759 49.0007 30.9999 49.2245 30.9999 49.5006V50.5006C30.9997 50.7765 30.7758 51.0004 30.4999 51.0006H9.99988C7.7909 51.0006 6.00008 49.2095 5.99988 47.0006V38.8023L2.8202 36.1529C2.10149 35.5532 2.10133 34.4478 2.8202 33.8482L5.99988 31.1969V29.0006C5.99988 26.7914 7.79078 25.0006 9.99988 25.0006H46.9999Z" fill="oklch(0.3523 0 0 / 1)" class="wd-expressive-fill"></path>
<path d="M24.4999 40.0006C24.7759 40.0007 24.9999 40.2245 24.9999 40.5006V41.5006C24.9997 41.7765 24.7758 42.0004 24.4999 42.0006H13.4999C13.2239 42.0006 13.0001 41.7765 12.9999 41.5006V40.5006C12.9999 40.2244 13.2237 40.0006 13.4999 40.0006H24.4999Z" fill="oklch(0.3523 0 0 / 1)" class="wd-expressive-fill"></path>
<path d="M31.4999 34.0006C31.7759 34.0007 31.9999 34.2245 31.9999 34.5006V35.5006C31.9997 35.7765 31.7758 36.0004 31.4999 36.0006H13.4999C13.2239 36.0006 13.0001 35.7765 12.9999 35.5006V34.5006C12.9999 34.2244 13.2237 34.0006 13.4999 34.0006H31.4999Z" fill="oklch(0.3523 0 0 / 1)" class="wd-expressive-fill"></path>
<path d="M8.93934 5.64706C9.52512 5.06131 10.4747 5.06128 11.0604 5.64706L14.0546 8.6412C14.0563 8.64292 14.0587 8.64433 14.0604 8.64608L20.3534 14.9391C20.5484 15.1343 20.5485 15.4509 20.3534 15.6461L19.6464 16.3531C19.4512 16.5483 19.1346 16.5481 18.9393 16.3531L9.99988 7.41464L4.41395 13.0006L7.27723 15.8639L10.4247 12.7174C10.62 12.5225 10.9366 12.5222 11.1317 12.7174L11.8388 13.4244C12.0339 13.6195 12.0336 13.9361 11.8388 14.1314L8.69129 17.2779L11.5204 20.106L14.6669 16.9605C14.8621 16.7653 15.1786 16.7653 15.3739 16.9605L16.0809 17.6676C16.2762 17.8628 16.2762 18.1793 16.0809 18.3746L12.9345 21.5211L13.3534 21.94C13.5485 22.1352 13.5484 22.4518 13.3534 22.6471L12.6464 23.3541C12.4511 23.5493 12.1346 23.5493 11.9393 23.3541L8.64539 20.0611C8.6436 20.0593 8.64227 20.0571 8.64051 20.0553L2.64637 14.0611C2.06059 13.4753 2.06058 12.5248 2.64637 11.9391L8.93934 5.64706Z" fill="oklch(0.3523 0 0 / 1)" class="wd-expressive-fill"></path>
<path d="M22.743 3.30136C22.8691 1.91133 24.6587 1.43183 25.4628 2.57284L31.3055 10.8658C31.4071 11.01 31.4835 11.171 31.5292 11.3414L32.3729 14.4937C32.4444 14.7604 32.2861 15.0345 32.0194 15.106L31.0536 15.3648C30.7868 15.4363 30.5127 15.2781 30.4413 15.0113L30.0233 13.4488L29.9384 13.525C29.4674 13.9426 28.8275 14.1149 28.2108 13.9889L26.9999 13.7408L26.0751 14.5611C25.6041 14.9787 24.9632 15.1502 24.3466 15.024L24.2304 14.9996L24.6864 16.7017C24.6867 16.7028 24.6881 16.7036 24.6884 16.7047L26.1766 22.2584C26.2481 22.525 26.0895 22.799 25.8231 22.8707L24.8563 23.1295C24.5897 23.2008 24.3155 23.0426 24.244 22.776L22.7557 17.2223C22.7552 17.2203 22.7553 17.2183 22.7548 17.2164L21.8739 13.9283C21.8283 13.758 21.8121 13.5805 21.828 13.4049L22.743 3.30136ZM24.122 10.2476L23.8837 12.8873L24.7479 13.0641L25.6727 12.2437C26.1436 11.8263 26.7838 11.6549 27.4003 11.7808L28.6112 12.0289L29.2684 11.4459L27.7401 9.27792L24.122 10.2476ZM24.3134 8.12558L26.5126 7.53671L24.6112 4.83847L24.3134 8.12558Z" fill="oklch(0.3523 0 0 / 1)" class="wd-expressive-fill"></path>
<path d="M43.2489 10.0084C44.0532 10.0784 44.7395 10.6279 44.9823 11.399L45.0282 11.567L45.1893 12.2984L45.8222 11.8961C46.6134 11.3926 47.648 11.5074 48.3104 12.1695L49.6698 13.5279L49.785 13.6539C50.3311 14.302 50.4125 15.234 49.9706 15.9713L49.9696 15.9723L49.493 16.7623L50.4335 16.9723C51.3485 17.1758 51.9997 17.9886 51.9999 18.9254V20.8473L51.993 21.0182C51.9207 21.863 51.318 22.5782 50.4843 22.7867L50.4833 22.7877L49.6786 22.9869L49.3602 23.067C49.0922 23.1337 48.8204 22.9698 48.7538 22.7017L48.5126 21.731C48.4461 21.4632 48.6091 21.1923 48.8768 21.1256L49.5145 20.9664C49.5167 20.9659 49.5192 20.965 49.5214 20.9644L49.9999 20.8463V18.9254L48.3485 18.5582L47.8153 18.4391L47.6268 17.9273C47.5521 17.7243 47.4637 17.5231 47.3641 17.3238L47.118 16.8316L47.4022 16.3609L48.2567 14.941L48.2557 14.942L46.8964 13.5836L45.0077 14.7838L44.5126 14.5543C44.3605 14.4838 44.2138 14.4217 44.0702 14.3687L43.5575 14.1793L43.0751 12.0006H41.1532L40.7518 13.6021L40.619 14.1344L40.0985 14.3082C39.8867 14.3788 39.6801 14.4595 39.4813 14.5514L38.9852 14.7808L37.1034 13.5836L35.744 14.942L36.8749 16.8258L36.6278 17.317C36.5263 17.5195 36.4368 17.724 36.3612 17.9293L36.1727 18.441L35.6405 18.5601L34.0009 18.9254L33.9999 20.8463L34.4755 20.9644C34.4783 20.9651 34.4815 20.9657 34.4843 20.9664L35.1102 21.1226C35.378 21.1894 35.541 21.4603 35.4745 21.7281L35.2333 22.6988C35.1667 22.9669 34.8949 23.1308 34.6268 23.0641L34.3143 22.9859L33.5165 22.7877L33.5155 22.7867C32.6261 22.5644 32.0004 21.7652 31.9999 20.8473V18.9254C32 17.9886 32.6506 17.1759 33.5653 16.9723L34.5038 16.7623L34.0292 15.9713C33.5577 15.1847 33.6816 14.1767 34.33 13.5279L35.6893 12.1695L35.8182 12.0514C36.4807 11.4953 37.4361 11.4241 38.1776 11.8961L38.9882 12.4117L39.2138 11.5152C39.4365 10.6258 40.2358 10.001 41.1532 10.0006H43.0751L43.2489 10.0084Z" fill="oklch(0.3523 0 0 / 1)" class="wd-expressive-fill"></path>
<path d="M41.995 16.0006C44.2038 16.0008 45.9949 17.7917 45.995 20.0006L45.9891 20.2223C45.9386 21.1429 45.5756 21.9816 45.0067 22.6324C44.8249 22.8403 44.5058 22.8202 44.3222 22.6139L43.9901 22.2408L43.6571 21.8678C43.4734 21.6616 43.4986 21.3475 43.6532 21.1187C43.8305 20.8565 43.9472 20.5505 43.9833 20.2203L43.995 20.0006C43.9949 18.8963 43.0993 18.0008 41.995 18.0006C40.8905 18.0007 39.9951 18.8962 39.995 20.0006L40.0067 20.2203C40.0428 20.5505 40.1586 20.8565 40.3358 21.1187C40.4905 21.3475 40.5157 21.6616 40.3319 21.8678L39.9999 22.2408L39.6669 22.6139C39.4832 22.82 39.1641 22.8403 38.9823 22.6324C38.4134 21.9816 38.0514 21.143 38.0009 20.2223L37.995 20.0006C37.9951 17.7916 39.7861 16.0007 41.995 16.0006Z" fill="oklch(0.3523 0 0 / 1)" class="wd-expressive-fill"></path>
</g>
</svg>