<svg role="presentation" width="56" height="56" viewBox="0 0 56 56" xmlns="http://www.w3.org/2000/svg" class="wd-expressive wd-expressive-bolt">
<path d="M42.8738 23.9995C43.7436 23.9998 44.2357 24.9973 43.7068 25.688L23.2049 52.4663C22.5313 53.3458 21.131 52.7181 21.3397 51.6304L25.3856 30.5942C25.4448 30.2859 25.2083 29.9995 24.8943 29.9995H13.1277C12.2576 29.9994 11.7654 29.0017 12.2947 28.311L13.2996 27.0005H22.8943C25.0924 27.0005 26.747 29.0031 26.3318 31.1616L23.1756 47.5688L41.2215 23.9995H42.8738Z" fill="oklch(0.3057 0.079 256.22 / 0.13)" class="wd-expressive-accent"></path>
<path d="M30.5301 2.88143C31.8429 1.16985 34.5698 2.38629 34.1727 4.50643L30.7049 22.9996H42.8739C44.5721 23 45.5329 24.9469 44.5008 26.2955L23.9989 53.0738C22.6837 54.7916 19.9498 53.5654 20.3583 51.441L24.2889 30.9996H13.1278C11.4287 30.9995 10.4674 29.0512 11.5008 27.7027L30.5301 2.88143ZM32.1356 4.07869C32.132 4.08197 32.1256 4.08834 32.118 4.09822L13.0887 28.9195C13.0817 28.9287 13.078 28.9348 13.077 28.9371C13.0763 28.939 13.076 28.9429 13.076 28.9429C13.0757 28.9476 13.0766 28.9583 13.0829 28.9713C13.0893 28.9843 13.0974 28.9919 13.1014 28.9947C13.1014 28.9947 13.105 28.997 13.1073 28.9976C13.1095 28.9983 13.1158 28.9996 13.1278 28.9996H24.8944C25.8361 28.9997 26.5455 29.858 26.368 30.7828L22.3221 51.8189C22.3198 51.831 22.3193 51.8403 22.3192 51.8453V51.8502C22.3211 51.8527 22.3296 51.8642 22.3504 51.8736C22.37 51.8824 22.3841 51.8817 22.3885 51.8814C22.3885 51.8814 22.3917 51.8801 22.3934 51.8785C22.3971 51.875 22.4034 51.868 22.411 51.858L42.9129 25.0797C42.9201 25.0702 42.9229 25.0641 42.9237 25.0621C42.9245 25.0601 42.9256 25.0562 42.9256 25.0562C42.9259 25.0514 42.925 25.0406 42.9188 25.0279C42.9122 25.0147 42.9032 25.007 42.8993 25.0045C42.8993 25.0045 42.8964 25.0022 42.8944 25.0015C42.8924 25.0009 42.886 24.9996 42.8739 24.9996H30.1024C29.1632 24.9996 28.4548 24.1463 28.6278 23.2232L32.2069 4.13826C32.2091 4.12608 32.2097 4.11678 32.2098 4.11189C32.2098 4.10884 32.2088 4.10506 32.2088 4.10506C32.2057 4.10118 32.1963 4.09093 32.1776 4.0826C32.1575 4.07368 32.1433 4.07447 32.1395 4.07478C32.1395 4.07478 32.1372 4.07715 32.1356 4.07869Z" fill="oklch(0.3523 0 0 / 1)" class="wd-expressive-fill"></path>
</svg>