<svg role="presentation" width="56" height="56" viewBox="0 0 56 56" xmlns="http://www.w3.org/2000/svg" class="wd-expressive wd-expressive-phone-wrench">
<g>
<path d="M11.7589 36.4434C12.8627 37.8923 14.0742 39.2862 15.3973 40.6094C16.7114 41.9233 18.0955 43.1273 19.5336 44.225L15.6148 48.1438C13.6623 50.0959 10.4963 50.096 8.54377 48.1438L7.83666 47.4367C5.88449 45.4842 5.88456 42.3182 7.83666 40.3656L11.7589 36.4434Z" fill="oklch(0.3057 0.079 256.22 / 0.13)" class="wd-expressive-accent"></path>
<path d="M49.6651 40.3297C49.7127 40.8962 49.5203 41.4797 49.0871 41.9131L43.5925 47.4077C42.5807 48.4191 41.181 48.9666 39.7607 48.795C31.7605 47.8267 24.0124 44.2718 17.8722 38.1317C11.7296 31.9889 8.17534 24.2373 7.20897 16.2335C7.03771 14.8134 7.58614 13.4146 8.59763 12.4031L10.6202 10.3806C10.5043 10.874 10.4695 11.3884 10.5318 11.9053C11.4982 19.9091 15.0537 27.6606 21.1964 33.8035C27.3366 39.9435 35.0835 43.4984 43.0836 44.4667C44.5041 44.6386 45.9041 44.0903 46.916 43.0787L49.6651 40.3297Z" fill="oklch(0.3057 0.079 256.22 / 0.13)" class="wd-expressive-accent"></path>
<path d="M47.1108 15.9601C47.3879 15.6829 47.8566 15.8191 47.9104 16.2073C47.969 16.6301 48.0002 17.0626 48.0002 17.5013C47.9997 22.7475 43.746 27.0015 38.4998 27.0017C37.9088 27.0017 37.3305 26.9434 36.7693 26.8401C36.5845 27.1219 36.3686 27.39 36.1209 27.6377L30.9557 32.8029C29.4044 31.8811 27.9374 30.7526 26.5957 29.411C25.2446 28.0597 24.109 26.5822 23.1831 25.0192L28.3428 19.8595C28.5946 19.6077 28.8672 19.3883 29.1541 19.2014C29.0544 18.6498 28.9995 18.0817 28.9995 17.5013C28.9995 12.2548 33.2533 8.00115 38.4998 8.00098C38.9376 8.00099 39.3686 8.03157 39.7904 8.09006C40.1785 8.14406 40.3153 8.61325 40.0383 8.89038L35.873 13.0557C35.7728 13.1562 35.7181 13.2947 35.7301 13.4362C35.875 15.1367 36.5985 16.7987 37.8997 18.1C39.201 19.4011 40.8625 20.1241 42.5629 20.269C42.7044 20.281 42.8436 20.227 42.9441 20.1268L47.1108 15.9601Z" fill="oklch(0.3057 0.079 256.22 / 0.13)" class="wd-expressive-accent"></path>
</g>
<g>
<path d="M11.2489 36.957C11.4442 36.7618 11.7607 36.7618 11.956 36.957L12.663 37.6641C12.858 37.8593 12.8582 38.1759 12.663 38.3711L10.2509 40.7832C10.247 40.7869 10.2411 40.7893 10.2372 40.793L8.89736 42.1348C7.53086 43.5016 7.53064 45.7173 8.89736 47.084C10.2641 48.4504 12.4798 48.4504 13.8466 47.084L16.6386 44.293L16.6395 44.2939L17.6132 43.3213C17.8084 43.126 18.125 43.126 18.3202 43.3213L19.0272 44.0283C19.2222 44.2236 19.2224 44.5402 19.0272 44.7354L16.6151 47.1475C16.6096 47.1529 16.6023 47.1569 16.5966 47.1621L15.2606 48.498C13.1128 50.6455 9.63109 50.6455 7.4833 48.498C5.33554 46.3503 5.33575 42.8686 7.4833 40.7207L10.2743 37.9287L10.2753 37.9297L11.2489 36.957Z" fill="oklch(0.3523 0 0 / 1)" class="wd-expressive-fill"></path>
<path d="M13.3798 6.20801C14.5514 5.03658 16.4504 5.03647 17.622 6.20801L24.1259 12.7109C25.2974 13.8825 25.2971 15.7826 24.1259 16.9541L19.4657 21.6143C19.1915 21.8885 19.1154 22.2686 19.2343 22.5791C20.4332 25.7101 22.2955 28.6451 24.828 31.1777C27.3582 33.7078 30.2908 35.5676 33.4188 36.7666C33.7293 36.8854 34.1085 36.8102 34.3827 36.5361L39.0458 31.874C40.2174 30.7026 42.1165 30.7027 43.288 31.874L49.7938 38.3789L49.9003 38.4912C50.9633 39.6687 50.9287 41.4871 49.7938 42.6221L44.2987 48.1162C43.1686 49.2461 41.6068 49.915 39.9687 49.8193L39.6395 49.79C31.4252 48.7959 23.4688 45.1444 17.1649 38.8408C10.8585 32.5342 7.2071 24.5735 6.21474 16.3555C6.00281 14.5985 6.68466 12.9032 7.88955 11.6982L13.3798 6.20801ZM16.2079 7.62207C15.8174 7.2316 15.1844 7.23166 14.7938 7.62207L9.30361 13.1123C8.48556 13.9304 8.0705 15.0319 8.20107 16.1152C9.14165 23.9048 12.6001 31.4477 18.579 37.4268C24.5554 43.4029 32.0939 46.8614 39.8798 47.8037L40.0829 47.8223C41.1003 47.8816 42.1177 47.4689 42.8847 46.7021L48.3798 41.208C48.7454 40.8423 48.7682 40.2622 48.4481 39.8691L48.3798 39.793L41.8739 33.2881C41.4834 32.8977 40.8503 32.8978 40.4599 33.2881L35.7968 37.9502C35.0039 38.7429 33.8015 39.0555 32.703 38.6348C29.3175 37.3371 26.146 35.3237 23.414 32.5918C20.6796 29.8574 18.6648 26.683 17.3671 23.2939C16.9464 22.1954 17.259 20.9929 18.0517 20.2002L22.7118 15.54C23.1022 15.1494 23.1021 14.5154 22.7118 14.125L16.2079 7.62207Z" fill="oklch(0.3523 0 0 / 1)" class="wd-expressive-fill"></path>
<path d="M40.3651 4.00684C41.2159 4.0327 42.0451 4.14822 42.8427 4.34277C44.0259 4.63171 44.2893 6.0523 43.5204 6.82129L37.0536 13.2891C36.8341 13.5087 36.7695 13.7512 36.8007 13.9287C37.0238 15.1974 37.6254 16.4125 38.6063 17.3936C39.5872 18.3741 40.8018 18.9752 42.0702 19.1982C42.2476 19.2293 42.4904 19.1654 42.7099 18.9463L49.1786 12.4775L49.33 12.3457C50.1207 11.7454 51.3861 12.046 51.6571 13.1553C51.8798 14.0674 51.9999 15.0208 51.9999 16.001C51.9994 22.6277 46.6266 28.0005 39.9999 28.001C39.7165 28.001 39.4348 27.9903 39.1562 27.9707C37.3036 27.8404 35.5781 28.1818 34.4853 29.2744L34.3319 29.4268C34.3291 29.4299 34.3271 29.4345 34.3241 29.4375L31.2343 32.5273C31.0391 32.7222 30.7224 32.7222 30.5272 32.5273L29.8202 31.8203C29.6251 31.6252 29.6253 31.3086 29.8202 31.1133L31.2938 29.6387L31.2929 29.6377L33.0712 27.8604C34.7683 26.1634 37.2138 25.829 39.2968 25.9756C39.5287 25.9919 39.7636 26.001 39.9999 26.001C45.5221 26.0006 49.9995 21.5232 49.9999 16.001C49.9999 15.5202 49.9644 15.0473 49.8983 14.585L44.1239 20.3604C43.5393 20.9447 42.667 21.3334 41.7245 21.168C40.0647 20.8761 38.4723 20.0884 37.1913 18.8076C35.9106 17.5268 35.1229 15.935 34.831 14.2754C34.6652 13.3325 35.0549 12.4598 35.6395 11.875L41.411 6.10156C40.9501 6.03587 40.4781 6.001 39.9989 6.00098C34.4768 6.00165 30.0002 10.4788 29.9999 16.001C29.9999 16.2314 30.0079 16.4603 30.0233 16.6865C30.1652 18.765 29.8283 21.2037 28.1356 22.8965L27.9638 23.0674C27.9624 23.069 27.9614 23.0717 27.9599 23.0732L24.87 26.1631C24.6748 26.3579 24.3581 26.358 24.163 26.1631L23.456 25.4561C23.2608 25.2609 23.2611 24.9443 23.456 24.749L24.9296 23.2754L24.9286 23.2744L26.7206 21.4824C27.8107 20.3923 28.1543 18.6712 28.0282 16.8232C28.0097 16.5517 27.9999 16.277 27.9999 16.001C28.0004 9.37445 33.3724 4.00165 39.9989 4.00098L40.3651 4.00684Z" fill="oklch(0.3523 0 0 / 1)" class="wd-expressive-fill"></path>
</g>
</svg>