<svg role="presentation" width="56" height="56" viewBox="0 0 56 56" xmlns="http://www.w3.org/2000/svg" class="wd-expressive wd-expressive-leaves">
<g>
<path d="M32.6867 22.3386C31.239 25.8897 32.3171 29.743 33.7697 31.1872C37.5417 34.9371 43.1991 34.9371 46.9709 31.1872C47.1224 31.0366 47.2674 30.8793 47.4104 30.7194C46.7594 32.0257 45.9571 33.2068 44.9709 34.1872C41.1991 37.9371 35.5417 37.9371 31.7697 34.1872C29.8878 32.3161 28.6318 26.4003 32.6867 22.3386Z" fill="oklch(0.3057 0.079 256.22 / 0.13)" class="wd-expressive-accent"></path>
<path d="M6.72971 10.0437C7.17145 10.0848 7.60613 10.1296 8.03342 10.1794C7.83894 15.4815 8.50249 21.5491 11.6233 25.3484C14.4048 28.7345 18.9758 29.902 22.6291 28.2653C22.5244 28.3812 22.4169 28.4972 22.3059 28.6111C18.7152 32.2922 12.7481 31.5574 9.4426 27.5144C5.9654 23.261 5.69547 16.0291 6.19065 10.4909C6.215 10.2186 6.45743 10.0183 6.72971 10.0437Z" fill="oklch(0.3057 0.079 256.22 / 0.13)" class="wd-expressive-accent"></path>
</g>
<path d="M6.8226 9.04785L7.49154 9.11426C14.3573 9.83137 19.6941 11.6363 23.3333 16.0879C25.241 18.4214 26.1112 20.8004 25.9896 23.1152C25.8681 25.4254 24.7667 27.5215 23.0228 29.3096C22.8308 29.5064 22.6329 29.6918 22.43 29.8662C24.1225 33.6379 25.5077 37.8426 26.307 42.4219C27.208 39.4533 28.5472 36.5584 30.2455 33.8232C29.5119 32.5876 29.034 30.8839 29.0023 29.0879C28.9591 26.6367 29.7407 23.8578 32.0081 21.6035C36.2837 17.3529 42.111 16.0578 49.4915 16.002C50.3215 15.9957 51.0058 16.6692 50.9974 17.5098C50.9691 20.3392 50.6998 23.6098 49.9203 26.6953C49.1432 29.7706 47.838 32.7472 45.6761 34.8965C41.695 38.8544 35.7706 39.0244 31.6205 35.4102C28.9383 39.8965 27.2879 44.7814 27.0335 49.6338C27.0414 49.9204 27.0472 50.2082 27.0501 50.4971C27.0529 50.7731 26.8291 50.9998 26.5531 51H25.9984L25.4984 51.001C25.2225 51.0015 24.997 50.7788 25.0013 50.5029C25.0061 50.2075 25.0171 49.9116 25.0316 49.6162C24.8294 42.6452 23.115 36.3809 20.7445 31.0039C16.7649 33.0736 11.6684 31.817 8.6683 28.1475C6.76876 25.8239 5.79055 22.7503 5.33725 19.6279C4.88223 16.4936 4.94286 13.2175 5.19467 10.4014L5.21615 10.249C5.35123 9.55011 5.96493 9.04767 6.67026 9.04199L6.8226 9.04785ZM48.9867 18.0078C42.0507 18.1193 37.043 19.4188 33.4183 23.0225C31.5998 24.8305 30.966 27.0511 31.0013 29.0527C31.0203 30.1291 31.2322 31.1 31.5296 31.8818C34.8078 27.2182 39.1308 23.1093 44.054 20.0166C44.2878 19.87 44.5955 19.9443 44.7396 20.1797L45.2611 21.0312C45.4054 21.2668 45.3309 21.5746 45.097 21.7217C40.1392 24.8397 35.8592 29.0093 32.7074 33.6992C36.0838 36.8373 40.9604 36.7646 44.266 33.4785C46.0702 31.6848 47.251 29.0982 47.9818 26.2061C48.6643 23.5048 48.9328 20.6103 48.9867 18.0078ZM7.14682 11.0889C6.94167 13.6856 6.91774 16.5924 7.31674 19.3408C7.74376 22.282 8.63957 24.9511 10.2171 26.8809C12.7205 29.9429 16.8126 30.8257 19.9007 29.1807C17.1055 23.4255 13.6185 18.796 10.6117 15.5479C10.4245 15.3452 10.4365 15.0323 10.6371 14.8428L11.3626 14.1562C11.5633 13.9667 11.8771 13.9726 12.0648 14.1748C15.1136 17.4659 18.6559 22.1458 21.5326 27.9688C21.5516 27.9497 21.5723 27.9324 21.5912 27.9131C23.087 26.3794 23.9016 24.7198 23.9915 23.0107C24.0812 21.3063 23.4577 19.4002 21.7845 17.3535C18.6193 13.4819 13.8851 11.776 7.14682 11.0889Z" fill="oklch(0.3523 0 0 / 1)" class="wd-expressive-fill"></path>
</svg>