<svg role="presentation" width="56" height="56" viewBox="0 0 56 56" xmlns="http://www.w3.org/2000/svg" class="wd-expressive wd-expressive-calendar-user">
<g>
<path d="M41.001 49C43.6848 49.0002 46.134 50.0072 47.9902 51.6641C46.5213 52.5119 44.8179 53 43 53C40.3167 52.9999 37.882 51.9409 36.0859 50.2207C37.5524 49.4424 39.2252 49 41.001 49Z" fill="oklch(0.3057 0.079 256.22 / 0.13)" class="wd-expressive-accent"></path>
<path d="M47 19H10V43H29.0381C29.1171 44.0389 29.318 45.0437 29.627 46H7V12H47V19Z" fill="oklch(0.3057 0.079 256.22 / 0.13)" class="wd-expressive-accent"></path>
<path d="M41.001 40C42.6575 40.0004 44.001 41.3434 44.001 43C44.001 43.3028 43.9536 43.5946 43.8701 43.8701C43.5947 43.9535 43.3026 44 43 44C41.3433 43.9999 40 42.6568 40 41C40 40.697 40.0454 40.4046 40.1289 40.1289C40.4047 40.0453 40.6979 40 41.001 40Z" fill="oklch(0.3057 0.079 256.22 / 0.13)" class="wd-expressive-accent"></path>
</g>
<g>
<path d="M43 37C45.2091 37 47 38.7909 47 41C47 43.2091 45.2091 45 43 45C40.7909 45 39 43.2091 39 41C39 38.7909 40.7909 37 43 37ZM43 39C41.8954 39 41 39.8954 41 41C41 42.1046 41.8954 43 43 43C44.1046 43 45 42.1046 45 41C45 39.8954 44.1046 39 43 39Z" fill="oklch(0.3523 0 0 / 1)" class="wd-expressive-fill"></path>
<path d="M43 32C49.0751 32 54 36.9249 54 43C54 49.0751 49.0751 54 43 54C36.9249 54 32 49.0751 32 43C32 36.9249 36.9249 32 43 32ZM43 48C40.842 48 38.8538 48.7187 37.2588 49.9307C38.8169 51.2228 40.8176 52 43 52C45.1821 52 47.1822 51.2226 48.7402 49.9307C47.1453 48.719 45.1577 48 43 48ZM43 34C38.0294 34 34 38.0294 34 43C34 45.0643 34.6965 46.965 35.8652 48.4834C37.8257 46.9303 40.3048 46 43 46C45.695 46 48.1734 46.9306 50.1338 48.4834C51.3027 46.9649 52 45.0645 52 43C52 38.0294 47.9706 34 43 34Z" fill="oklch(0.3523 0 0 / 1)" class="wd-expressive-fill"></path>
<path d="M40 5C41.6569 5 43 6.34315 43 8V9H47C48.6569 9 50 10.3431 50 12V30.5C50 30.7761 49.7761 31 49.5 31H48.5C48.2239 31 48 30.7761 48 30.5V20H8V44C8 44.5523 8.44772 45 9 45H29.5C29.7761 45 30 45.2239 30 45.5V46.5C30 46.7761 29.7761 47 29.5 47H9C7.34315 47 6 45.6569 6 44V12C6 10.3431 7.34315 9 9 9H13V8C13 6.34315 14.3431 5 16 5C17.6569 5 19 6.34315 19 8V9H37V8C37 6.34315 38.3431 5 40 5ZM9 11C8.44772 11 8 11.4477 8 12V18H48V12C48 11.4477 47.5523 11 47 11H43C43 12.6569 41.6569 14 40 14C38.3949 14 37.0842 12.7394 37.0039 11.1543L37 11H19C19 12.6569 17.6569 14 16 14C14.3949 14 13.0842 12.7394 13.0039 11.1543L13 11H9ZM16 7C15.4477 7 15 7.44772 15 8V11L15.0049 11.1025C15.0562 11.6067 15.4823 12 16 12C16.5523 12 17 11.5523 17 11V8C17 7.44772 16.5523 7 16 7ZM40 7C39.4477 7 39 7.44772 39 8V11L39.0049 11.1025C39.0562 11.6067 39.4823 12 40 12C40.5523 12 41 11.5523 41 11V8C41 7.44772 40.5523 7 40 7Z" fill="oklch(0.3523 0 0 / 1)" class="wd-expressive-fill"></path>
<path d="M14 37.75C14.9665 37.75 15.75 38.5335 15.75 39.5C15.75 40.4665 14.9665 41.25 14 41.25C13.0335 41.25 12.25 40.4665 12.25 39.5C12.25 38.5335 13.0335 37.75 14 37.75Z" fill="oklch(0.3523 0 0 / 1)" class="wd-expressive-fill"></path>
<path d="M21 37.75C21.9665 37.75 22.75 38.5335 22.75 39.5C22.75 40.4665 21.9665 41.25 21 41.25C20.0335 41.25 19.25 40.4665 19.25 39.5C19.25 38.5335 20.0335 37.75 21 37.75Z" fill="oklch(0.3523 0 0 / 1)" class="wd-expressive-fill"></path>
<path d="M28 37.75C28.9665 37.75 29.75 38.5335 29.75 39.5C29.75 40.4665 28.9665 41.25 28 41.25C27.0335 41.25 26.25 40.4665 26.25 39.5C26.25 38.5335 27.0335 37.75 28 37.75Z" fill="oklch(0.3523 0 0 / 1)" class="wd-expressive-fill"></path>
<path d="M14 32.75C14.9665 32.75 15.75 33.5335 15.75 34.5C15.75 35.4665 14.9665 36.25 14 36.25C13.0335 36.25 12.25 35.4665 12.25 34.5C12.25 33.5335 13.0335 32.75 14 32.75Z" fill="oklch(0.3523 0 0 / 1)" class="wd-expressive-fill"></path>
<path d="M21 32.75C21.9665 32.75 22.75 33.5335 22.75 34.5C22.75 35.4665 21.9665 36.25 21 36.25C20.0335 36.25 19.25 35.4665 19.25 34.5C19.25 33.5335 20.0335 32.75 21 32.75Z" fill="oklch(0.3523 0 0 / 1)" class="wd-expressive-fill"></path>
<path d="M28 32.75C28.054 32.75 28.1074 32.753 28.1602 32.7578C28.1735 32.759 28.1869 32.7602 28.2002 32.7617C28.2446 32.7668 28.2887 32.7729 28.332 32.7812C28.3402 32.7828 28.3483 32.7845 28.3564 32.7861C28.4088 32.797 28.4602 32.8108 28.5107 32.8262C28.514 32.8272 28.5173 32.8281 28.5205 32.8291L28.5879 32.8516C28.6113 32.8599 28.6342 32.8696 28.6572 32.8789C28.6678 32.8832 28.679 32.8861 28.6895 32.8906C28.7321 32.9089 28.7736 32.9296 28.8145 32.9512C28.8327 32.9608 28.8503 32.9712 28.8682 32.9814C28.8931 32.9957 28.9173 33.0109 28.9414 33.0264C28.9536 33.0342 28.9665 33.0407 28.9785 33.0488L28.999 33.0635C29.0338 33.0877 29.0677 33.113 29.1006 33.1396C29.1544 33.1832 29.2047 33.2307 29.2529 33.2803C29.2606 33.2882 29.2678 33.2966 29.2754 33.3047C29.3152 33.3472 29.3532 33.3912 29.3887 33.4375C29.4059 33.46 29.4233 33.4825 29.4395 33.5059C29.4453 33.5143 29.4513 33.5227 29.457 33.5312C29.484 33.5718 29.5096 33.6134 29.5332 33.6562C29.6712 33.9065 29.75 34.194 29.75 34.5C29.75 35.4665 28.9665 36.25 28 36.25C27.0335 36.25 26.25 35.4665 26.25 34.5C26.25 33.5335 27.0335 32.75 28 32.75Z" fill="oklch(0.3523 0 0 / 1)" class="wd-expressive-fill"></path>
<path d="M14 27.75C14.9665 27.75 15.75 28.5335 15.75 29.5C15.75 30.4665 14.9665 31.25 14 31.25C13.0335 31.25 12.25 30.4665 12.25 29.5C12.25 28.5335 13.0335 27.75 14 27.75Z" fill="oklch(0.3523 0 0 / 1)" class="wd-expressive-fill"></path>
<path d="M21 27.75C21.9665 27.75 22.75 28.5335 22.75 29.5C22.75 30.4665 21.9665 31.25 21 31.25C20.0335 31.25 19.25 30.4665 19.25 29.5C19.25 28.5335 20.0335 27.75 21 27.75Z" fill="oklch(0.3523 0 0 / 1)" class="wd-expressive-fill"></path>
<path d="M28 27.75C28.9665 27.75 29.75 28.5335 29.75 29.5C29.75 30.4665 28.9665 31.25 28 31.25C27.0335 31.25 26.25 30.4665 26.25 29.5C26.25 28.5335 27.0335 27.75 28 27.75Z" fill="oklch(0.3523 0 0 / 1)" class="wd-expressive-fill"></path>
<path d="M35 27.75C35.0557 27.75 35.1107 27.7527 35.165 27.7578C35.1923 27.7604 35.2192 27.7648 35.2461 27.7686C35.2762 27.7728 35.3063 27.7764 35.3359 27.7822C35.364 27.7877 35.3914 27.7959 35.4189 27.8027C35.4441 27.8089 35.4694 27.814 35.4941 27.8213C35.5199 27.8289 35.5451 27.838 35.5703 27.8467C35.597 27.8559 35.6234 27.8655 35.6494 27.876C35.6792 27.8879 35.7084 27.9006 35.7373 27.9141C35.7534 27.9216 35.7693 27.9295 35.7852 27.9375C35.8687 27.9795 35.9483 28.0277 36.0234 28.082C36.0293 28.0863 36.0352 28.0904 36.041 28.0947C36.0764 28.121 36.1103 28.1489 36.1436 28.1777C36.1457 28.1796 36.1483 28.1808 36.1504 28.1826C36.5178 28.5034 36.75 28.974 36.75 29.5C36.75 30.4665 35.9665 31.25 35 31.25C34.0858 31.25 33.3354 30.549 33.2568 29.6553C33.252 29.6042 33.25 29.5523 33.25 29.5C33.25 28.5335 34.0335 27.75 35 27.75Z" fill="oklch(0.3523 0 0 / 1)" class="wd-expressive-fill"></path>
<path d="M35 22.75C35.9665 22.75 36.75 23.5335 36.75 24.5C36.75 25.4665 35.9665 26.25 35 26.25C34.0335 26.25 33.25 25.4665 33.25 24.5C33.25 23.5335 34.0335 22.75 35 22.75Z" fill="oklch(0.3523 0 0 / 1)" class="wd-expressive-fill"></path>
<path d="M42 22.75C42.9665 22.75 43.75 23.5335 43.75 24.5C43.75 25.4665 42.9665 26.25 42 26.25C41.0335 26.25 40.25 25.4665 40.25 24.5C40.25 23.5335 41.0335 22.75 42 22.75Z" fill="oklch(0.3523 0 0 / 1)" class="wd-expressive-fill"></path>
</g>
</svg>