<svg role="presentation" width="56" height="56" viewBox="0 0 56 56" xmlns="http://www.w3.org/2000/svg" class="wd-expressive wd-expressive-cloud-shield">
<g>
<path d="M8.21875 23.2158C7.4425 24.637 7 26.2667 7 28C7.00026 33.3499 11.202 37.7183 16.4854 37.9863L17 38H47L47.5146 37.9863C49.0552 37.9083 50.502 37.4783 51.7812 36.7803C50.1625 39.7473 47.0876 41.8053 43.5146 41.9863L43 42H13L12.4854 41.9863C7.202 41.7183 3.00026 37.3499 3 32C3 28.2093 5.10981 24.9117 8.21875 23.2158Z" fill="oklch(0.3057 0.079 256.22 / 0.13)" class="wd-expressive-accent"></path>
<path d="M24 24C24 26.2543 24.8952 28.4167 26.4893 30.0107C27.4785 31 28.687 31.7189 30 32.123C31.2684 31.7326 32.4383 31.0473 33.4082 30.1094C32.9849 31.1862 32.3447 32.1768 31.5107 33.0107C30.5215 34 29.313 34.7189 28 35.123C26.687 34.7189 25.4785 34 24.4893 33.0107C22.8952 31.4167 22 29.2543 22 27V24.5156C22 24.3735 22.0598 24.2367 22.168 24.1445C22.7242 23.6709 23.3393 23.2648 24 22.9365V24Z" fill="oklch(0.3057 0.079 256.22 / 0.13)" class="wd-expressive-accent"></path>
</g>
<g>
<path d="M25.5 27C25.7761 27 25.997 27.2246 26.0273 27.499C26.1271 28.4026 26.4949 29.2365 27.0615 29.8662C27.3184 30.1517 27.6082 30.3852 27.917 30.5645C28.1557 30.7032 28.2847 30.9911 28.1836 31.248L27.8174 32.1787C27.7163 32.4356 27.4239 32.5634 27.1777 32.4385C26.582 32.1362 26.0387 31.7191 25.5752 31.2041C24.6665 30.1943 24.1253 28.8799 24.0195 27.5C23.9985 27.2247 24.2239 27.0001 24.5 27H25.5Z" fill="oklch(0.3523 0 0 / 1)" class="wd-expressive-fill"></path>
<path d="M28 21C30.3166 21 32.4519 21.7885 34.1475 23.1113L34.4805 23.3828C34.8236 23.6753 35 24.0968 35 24.5156V27C35 29.5194 33.9995 31.9361 32.2178 33.7178C31.1117 34.8239 29.7606 35.6277 28.2939 36.0791C28.1024 36.138 27.8976 36.138 27.7061 36.0791C26.2394 35.6277 24.8883 34.8239 23.7822 33.7178C22.1118 32.0473 21.1281 29.8188 21.0117 27.4707L21 27V24.5156C21 24.0968 21.1764 23.6763 21.5195 23.3838C23.2644 21.8981 25.529 21 28 21ZM28 23C26.1069 23 24.37 23.6573 23 24.7559V27L23.0088 27.3721C23.1008 29.2259 23.8778 30.9852 25.1963 32.3037C25.994 33.1014 26.9551 33.6969 28 34.0664C29.0449 33.6969 30.006 33.1014 30.8037 32.3037C32.2101 30.8973 33 28.9893 33 27V24.7559C31.63 23.6573 29.8931 23 28 23Z" fill="oklch(0.3523 0 0 / 1)" class="wd-expressive-fill"></path>
<path d="M21 9.00195C25.1991 9.00207 28.8903 11.1606 31.0332 14.4229C31.919 14.1495 32.8598 14.002 33.834 14.002C38.216 14.0023 41.8987 16.9689 42.9961 21.002C42.9973 21.002 42.9988 21.002 43 21.002C49.075 21.0021 54 25.9269 54 32.002L53.9863 32.5508C53.7091 38.1831 49.1962 42.7018 43.5654 42.9873H43.5537L43.541 42.9883L43.0264 43.002H12.9736L12.459 42.9883L12.4463 42.9873H12.4346C6.80407 42.7016 2.29092 38.1831 2.01367 32.5508L2 32.002C2 27.3277 4.91531 23.3369 9.02441 21.7432C9.00886 21.4989 9.00002 21.2514 9 21.002C9 14.3746 14.3728 9.00215 21 9.00195ZM21 11.002C15.4773 11.0021 11 15.4793 11 21.002L11.0059 21.3291C11.0171 21.6555 11.0442 21.9802 11.0859 22.3018L11.1953 23.1416L10.3848 23.3877C6.68885 24.5083 4 27.9425 4 32.002L4.01074 32.4502C4.23719 37.0559 7.9268 40.7514 12.5293 40.9883L13.0264 41.002H42.9736L43.4697 40.9883C48.0728 40.752 51.7628 37.0564 51.9893 32.4502L52 32.002C52 27.0315 47.9704 23.0021 43 23.002C42.7631 23.002 42.5238 23.0132 42.2822 23.0322L41.375 23.1035L41.2188 22.2061C40.6245 18.7915 37.7223 16.1705 34.1787 16.0098L33.834 16.002C32.8237 16.002 31.8616 16.2023 30.9834 16.5635L30.1641 16.9004L29.7305 16.127C28.0181 13.0673 24.7502 11.0021 21 11.002Z" fill="oklch(0.3523 0 0 / 1)" class="wd-expressive-fill"></path>
</g>
</svg>