<svg role="presentation" width="56" height="56" viewBox="0 0 56 56" xmlns="http://www.w3.org/2000/svg" class="wd-expressive wd-expressive-globe-location">
<g>
<path d="M38.0312 37.3418C38.0111 37.5582 38 37.7774 38 37.999L38.0049 38.3721C38.1067 42.2149 39.7798 45.8806 42.6865 48.6055C43.3228 49.2019 44.0075 49.7425 44.7314 50.2246C44.8934 50.3324 45.1047 50.3324 45.2666 50.2246C45.9942 49.7404 46.6796 49.1997 47.3135 48.6055C48.742 47.2663 49.8848 45.6846 50.6855 43.9473C50.4816 44.9009 50.1811 45.8364 49.7822 46.7393C48.9782 48.5589 47.7991 50.2128 46.3135 51.6055C45.6796 52.1997 44.9942 52.7404 44.2666 53.2246C44.1047 53.3324 43.8934 53.3324 43.7314 53.2246C43.0075 52.7425 42.3228 52.2019 41.6865 51.6055C38.7798 48.8806 37.1067 45.2149 37.0049 41.3721L37 41C37.0001 39.6594 37.3775 38.4061 38.0312 37.3418Z" fill="oklch(0.3057 0.079 256.22 / 0.13)" class="wd-expressive-accent"></path>
<path d="M10.2471 11.8496C8.80599 14.9326 8 18.3721 8 22C8 35.2548 18.7452 46 32 46C32.7401 46 33.4722 45.964 34.1953 45.8984C34.6673 47.5292 35.3728 49.087 36.2871 50.5303C33.7041 51.4807 30.9128 52 28 52C14.7452 52 4 41.2548 4 28C4 21.7803 6.36606 16.1132 10.2471 11.8496Z" fill="oklch(0.3057 0.079 256.22 / 0.13)" class="wd-expressive-accent"></path>
<path d="M44 38C45.6569 38 47 39.3433 47 41C46.9999 42.6566 45.6568 44 44 44C42.3432 44 41.0001 42.6566 41 41C41 39.3433 42.3431 38 44 38Z" fill="oklch(0.3057 0.079 256.22 / 0.13)" class="wd-expressive-accent"></path>
</g>
<g>
<path d="M44.0002 37C46.2092 37 48.0002 38.7909 48.0002 41C47.9999 43.2089 46.2091 45 44.0002 45C41.7913 45 40.0004 43.2089 40.0002 41C40.0002 38.7909 41.7911 37 44.0002 37ZM44.0002 39C42.8955 39 42.0002 39.8956 42.0002 41C42.0004 42.1042 42.8957 43 44.0002 43C45.1047 43 45.9999 42.1042 46.0002 41C46.0002 39.8956 45.1048 39 44.0002 39Z" fill="oklch(0.3523 0 0 / 1)" class="wd-expressive-fill"></path>
<path d="M44.0002 33C48.4182 33 51.9999 36.5812 52.0002 40.999V41.0137L51.9953 41.3828V41.3955C51.9433 43.3705 51.5033 45.3198 50.6974 47.1436C49.8378 49.089 48.5785 50.8527 46.9972 52.335C46.3216 52.9683 45.5925 53.5429 44.8205 54.0566C44.323 54.3877 43.6755 54.3879 43.1779 54.0566C42.4093 53.5448 41.6808 52.9702 41.0031 52.335C37.9086 49.4341 36.1142 45.5181 36.0051 41.3984V41.3848L36.0002 41.0127V40.999L36.0109 40.5869C36.2256 36.3606 39.7203 33 44.0002 33ZM44.0002 35C40.6865 35 38.0004 37.6859 38.0002 40.999L38.0051 41.3457L38.0178 41.6797C38.1973 45.1244 39.7365 48.4069 42.3703 50.876C42.88 51.3538 43.4265 51.7906 43.9992 52.1914C44.575 51.7889 45.1221 51.3521 45.6301 50.876C47.0201 49.5729 48.1189 48.0287 48.8674 46.335C49.5688 44.7474 49.9503 43.0548 49.9953 41.3428L50.0002 40.999C50 37.6859 47.3138 35 44.0002 35Z" fill="oklch(0.3523 0 0 / 1)" class="wd-expressive-fill"></path>
<path d="M29.0002 3.02051C32.6351 3.16613 36.2177 4.10365 39.4885 5.7959C44.4232 8.34924 48.3669 12.4743 50.6965 17.5186C52.956 22.4113 53.5724 27.8987 52.4611 33.1631C52.4041 33.4332 52.1344 33.6004 51.8654 33.5381L51.3791 33.4258L50.8918 33.3125C50.6229 33.25 50.4553 32.9812 50.5119 32.7109C50.769 31.4826 50.9237 30.2412 50.9777 28.999L40.9875 28.9971C40.9752 29.6022 40.954 30.208 40.9191 30.8125C40.9031 31.0879 40.6642 31.2959 40.3889 31.2773L39.3908 31.209C39.1157 31.1899 38.9084 30.9521 38.924 30.6768C38.9561 30.1172 38.9746 29.5566 38.9865 28.9971L29.0002 28.9951V40H33.5002C33.7763 40 34.0002 40.2239 34.0002 40.5V41.5C34.0002 41.7761 33.7763 42 33.5002 42H29.0002V50.8975C30.6682 50.5617 32.3702 49.3872 33.9308 47.2686C34.0947 47.0465 34.4058 46.988 34.633 47.1445L35.0451 47.4287L35.4562 47.7129C35.6835 47.8696 35.7412 48.1815 35.5783 48.4043C35.0967 49.0622 34.5869 49.6586 34.0549 50.1885C34.4741 50.0741 34.8911 49.9482 35.3049 49.8096C35.5667 49.7219 35.8531 49.8563 35.9465 50.1162L36.2844 51.0566C36.3776 51.3163 36.243 51.6031 35.9816 51.6914C33.7142 52.4553 31.3627 52.8838 29.0002 52.9785V53H28.0959C28.0588 53.0005 28.0217 53.0001 27.9846 53H27.0002V52.9785C24.7158 52.8872 22.4397 52.484 20.2375 51.7646C14.9559 50.0394 10.3998 46.6032 7.28827 42C4.17683 37.3969 2.687 31.8886 3.05487 26.3447C3.42282 20.8009 5.62719 15.5373 9.31952 11.3857C13.0121 7.2341 17.9832 4.43009 23.4465 3.41797C24.6256 3.19954 25.8131 3.06703 27.0002 3.01953V3H29.0002V3.02051ZM19.3215 42C19.7543 43.1604 20.2388 44.2405 20.7746 45.2217C22.6208 48.6024 24.8411 50.4655 27.0002 50.9004V42H19.3215ZM9.75213 42C12.5698 45.6726 16.4382 48.4193 20.8586 49.8633C21.2165 49.9802 21.5769 50.0867 21.9387 50.1855C20.8588 49.1076 19.8776 47.7525 19.0187 46.1797C18.3269 44.9127 17.7175 43.5091 17.1945 42H9.75213ZM5.02264 28.9902C5.19027 32.8822 6.34391 36.6771 8.3869 40.0127C8.42328 40.0043 8.46123 40 8.50018 40H16.5715C15.8387 37.3839 15.3466 34.5191 15.1291 31.54C15.0672 30.6925 15.0301 29.8421 15.0129 28.9922L5.02264 28.9902ZM17.0119 28.9922C17.0288 29.793 17.0649 30.5948 17.1232 31.3945C17.3481 34.4749 17.8752 37.3947 18.6515 40H27.0002V28.9941L17.0119 28.9922ZM39.4308 16C40.3816 19.3939 40.9088 23.1626 40.9875 26.9971L50.9767 26.999C50.8474 24.0287 50.1441 21.0915 48.881 18.3564C48.5057 17.5437 48.0837 16.7576 47.6203 16H39.4308ZM29.0002 26.9951L38.9875 26.9971C38.9047 23.1256 38.3438 19.3424 37.3478 16H29.0002V26.9951ZM18.6506 16C17.6545 19.3432 17.096 23.1253 17.0129 26.9922L27.0002 26.9941V16H18.6506ZM8.38006 16C6.45047 19.1548 5.29858 22.7464 5.05096 26.4766C5.03959 26.6478 5.03016 26.8191 5.02264 26.9902L15.0119 26.9922C15.0908 23.1609 15.6196 19.3942 16.5705 16H8.38006ZM21.9426 5.81152C17.6561 6.98184 13.7858 9.3743 10.8146 12.7148C10.4444 13.1311 10.0914 13.5604 9.75409 14H17.1965C18.3791 10.5888 19.9946 7.75262 21.9426 5.81152ZM27.0002 5.10156C26.1772 5.26659 25.3399 5.63732 24.506 6.24023C22.5027 7.68911 20.6777 10.3637 19.3215 14H27.0002V5.10156ZM29.0002 14H36.6808C35.3011 10.3003 33.4367 7.60223 31.3986 6.17188C30.5963 5.60892 29.792 5.25832 29.0002 5.09961V14ZM34.0597 5.81348C36.0065 7.75439 37.6217 10.5896 38.8039 14H46.2472C44.2032 11.336 41.5883 9.13423 38.5695 7.57227C37.1238 6.82423 35.6115 6.23726 34.0597 5.81348Z" fill="oklch(0.3523 0 0 / 1)" class="wd-expressive-fill"></path>
</g>
</svg>