<svg role="presentation" width="56" height="56" viewBox="0 0 56 56" xmlns="http://www.w3.org/2000/svg" class="wd-expressive wd-expressive-connection-square">
<g>
<path d="M26.5 43C28.9853 43 31 45.0147 31 47.5C31 49.9853 28.9853 52 26.5 52C24.0147 52 22 49.9853 22 47.5C22 45.0147 24.0147 43 26.5 43Z" fill="oklch(0.3057 0.079 256.22 / 0.13)" class="wd-expressive-accent"></path>
<path d="M8.5 25C10.9853 25 13 27.0147 13 29.5C13 31.9853 10.9853 34 8.5 34C6.01472 34 4 31.9853 4 29.5C4 27.0147 6.01472 25 8.5 25Z" fill="oklch(0.3057 0.079 256.22 / 0.13)" class="wd-expressive-accent"></path>
<path d="M44.5 25C46.9853 25 49 27.0147 49 29.5C49 31.9853 46.9853 34 44.5 34C42.0147 34 40 31.9853 40 29.5C40 27.0147 42.0147 25 44.5 25Z" fill="oklch(0.3057 0.079 256.22 / 0.13)" class="wd-expressive-accent"></path>
<path d="M26.5 7C28.9853 7 31 9.01472 31 11.5C31 13.9853 28.9853 16 26.5 16C24.0147 16 22 13.9853 22 11.5C22 9.01472 24.0147 7 26.5 7Z" fill="oklch(0.3057 0.079 256.22 / 0.13)" class="wd-expressive-accent"></path>
</g>
<g>
<path d="M17.3535 34.6465C17.5488 34.4513 17.8653 34.4513 18.0605 34.6465L23.8076 40.3936C24.9762 39.5183 26.4276 39 28 39C31.866 39 35 42.134 35 46C35 49.866 31.866 53 28 53C24.134 53 21 49.866 21 46C21 44.4276 21.5183 42.9762 22.3936 41.8076L16.6465 36.0605C16.4513 35.8653 16.4513 35.5488 16.6465 35.3535L17.3535 34.6465ZM28 41C25.2386 41 23 43.2386 23 46C23 48.7614 25.2386 51 28 51C30.7614 51 33 48.7614 33 46C33 43.2386 30.7614 41 28 41Z" fill="oklch(0.3523 0 0 / 1)" class="wd-expressive-fill"></path>
<path d="M46 21C49.866 21 53 24.134 53 28C53 31.866 49.866 35 46 35C44.4271 35 42.9754 34.4812 41.8066 33.6055L36.0605 39.3535C35.8653 39.5487 35.5488 39.5487 35.3535 39.3535L34.6465 38.6465C34.4513 38.4512 34.4513 38.1347 34.6465 37.9395L40.3926 32.1914C39.5178 31.023 39 29.5719 39 28C39 24.134 42.134 21 46 21ZM46 23C43.2386 23 41 25.2386 41 28C41 30.7614 43.2386 33 46 33C48.7614 33 51 30.7614 51 28C51 25.2386 48.7614 23 46 23Z" fill="oklch(0.3523 0 0 / 1)" class="wd-expressive-fill"></path>
<path d="M19.9395 16.6465C20.1347 16.4513 20.4512 16.4513 20.6465 16.6465L21.3535 17.3535C21.5488 17.5488 21.5488 17.8653 21.3535 18.0605L15.6055 23.8066C16.4812 24.9754 17 26.4271 17 28C17 31.866 13.866 35 10 35C6.13401 35 3 31.866 3 28C3 24.134 6.13401 21 10 21C11.5719 21 13.023 21.5178 14.1914 22.3926L19.9395 16.6465ZM10 23C7.23858 23 5 25.2386 5 28C5 30.7614 7.23858 33 10 33C12.7614 33 15 30.7614 15 28C15 25.2386 12.7614 23 10 23Z" fill="oklch(0.3523 0 0 / 1)" class="wd-expressive-fill"></path>
<path d="M28 3C31.866 3 35 6.13401 35 10C35 11.5723 34.4807 13.0228 33.6055 14.1914L39.3535 19.9395C39.5488 20.1347 39.5488 20.4512 39.3535 20.6465L38.6465 21.3535C38.4512 21.5487 38.1347 21.5487 37.9395 21.3535L32.1914 15.6055C31.0228 16.4807 29.5723 17 28 17C24.134 17 21 13.866 21 10C21 6.13401 24.134 3 28 3ZM28 5C25.2386 5 23 7.23858 23 10C23 12.7614 25.2386 15 28 15C30.7614 15 33 12.7614 33 10C33 7.23858 30.7614 5 28 5Z" fill="oklch(0.3523 0 0 / 1)" class="wd-expressive-fill"></path>
</g>
</svg>