<svg role="presentation" width="56" height="56" viewBox="0 0 56 56" xmlns="http://www.w3.org/2000/svg" class="wd-expressive wd-expressive-user-refresh">
<g>
<path d="M28.0163 36.7768C28.1295 36.5258 28.4969 36.623 28.5059 36.8982C28.5968 39.6726 29.6464 42.3305 31.4766 44.4177C33.3069 46.5047 35.8052 47.8931 38.5439 48.3454C39.731 48.5414 40.9318 48.5539 42.107 48.3941C42.3133 48.366 42.5182 48.4619 42.6223 48.6422L44 51.0286C44.1381 51.2678 44.0566 51.5746 43.8117 51.7022C41.6082 52.8496 39.0869 53.2553 36.627 52.8493C34.0022 52.4159 31.6076 51.0848 29.8535 49.0847C28.0997 47.0845 27.0929 44.5374 27.0059 41.8786C26.9481 40.1117 27.2991 38.3676 28.0163 36.7768Z" fill="oklch(0.3057 0.079 256.22 / 0.13)" class="wd-expressive-accent"></path>
<path d="M9.78973 34.7964C9.87764 34.7341 10 34.808 10 34.9158V44.0007C10.0002 45.0361 10.7874 45.8877 11.7959 45.99L12 46.0007H24.5C24.7761 46.0007 25 46.2246 25 46.5007V48.5007C25 48.7769 24.7761 49.0007 24.5 49.0007H9L8.7959 48.99C7.78737 48.8877 7.00024 48.0361 7 47.0007V37.9158C7 37.347 7.24053 36.8026 7.6748 36.4353C8.35542 35.8599 9.06136 35.3132 9.78973 34.7964Z" fill="oklch(0.3057 0.079 256.22 / 0.13)" class="wd-expressive-accent"></path>
<path d="M49.2551 45.8044C49.3695 45.9727 49.3705 46.1935 49.2577 46.3628L47.916 48.3767C47.7181 48.6735 47.282 48.6734 47.084 48.3767L42.0176 40.779C41.7964 40.4469 42.0347 40.0021 42.4336 40.0017H44.1907C44.5135 40.0017 44.7524 39.6997 44.6481 39.3942C44.5819 39.1999 44.5062 39.0083 44.4209 38.82C44.3454 38.6533 44.2626 38.4905 44.1738 38.3318L49.2551 45.8044Z" fill="oklch(0.3057 0.079 256.22 / 0.13)" class="wd-expressive-accent"></path>
<path d="M43.5342 37.3913C43.515 37.3678 43.495 37.3447 43.4754 37.3215C43.4735 37.3192 43.4741 37.3158 43.4767 37.3143C43.4788 37.3131 43.4815 37.3138 43.4829 37.3158L43.5342 37.3913Z" fill="oklch(0.3057 0.079 256.22 / 0.13)" class="wd-expressive-accent"></path>
<path d="M20.807 7.05681C21.1808 6.66992 21.7522 7.15597 21.5723 7.66298C21.202 8.70671 21 9.83004 21 11.0007C21.0003 16.5233 25.4773 21.0007 31 21.0007C32.1706 21.0007 33.2936 20.7984 34.3371 20.4278C34.844 20.2478 35.33 20.8189 34.9432 21.1927C33.1452 22.9306 30.6983 24.0007 28 24.0007C22.4773 24.0007 18.0003 19.5233 18 14.0007C18 11.3026 19.0695 8.85514 20.807 7.05681Z" fill="oklch(0.3057 0.079 256.22 / 0.13)" class="wd-expressive-accent"></path>
</g>
<g>
<path d="M35.6611 29.3271C38.4769 28.6707 41.4348 29.0104 44.0283 30.2891C46.6216 31.5681 48.6923 33.7073 49.8857 36.3408C50.2742 37.1983 50.5608 38.0912 50.7461 39.001H52.5664C53.7249 39.002 54.4332 40.2532 53.8721 41.2383L53.8135 41.333L48.7471 48.9316C48.1535 49.8196 46.8451 49.8221 46.251 48.9316L41.1855 41.333L41.127 41.2383C40.5844 40.2857 41.2288 39.082 42.3223 39.0049L42.4336 39.001H43.3994C42.8618 37.9473 41.9973 37.0915 40.9326 36.5664C39.7921 36.0042 38.4908 35.855 37.252 36.1436C36.0127 36.4326 34.9101 37.1423 34.1357 38.1514C33.3617 39.1603 32.9614 40.4087 33.0029 41.6807C33.0447 42.9522 33.5266 44.1706 34.3652 45.127C35.204 46.083 36.3495 46.7194 37.6045 46.9268C38.7196 47.1107 39.8621 46.9446 40.876 46.459L41.0049 46.4043C41.6614 46.1617 42.4697 46.3747 42.8662 47.0615L44.8662 50.5254C45.2491 51.1887 45.0736 52.0645 44.4121 52.5039L44.2734 52.5859C41.8785 53.8332 39.138 54.2743 36.4639 53.833C33.6109 53.3618 31.0081 51.915 29.1016 49.7412C27.1956 47.5674 26.1017 44.7989 26.0068 41.9092C25.9125 39.0195 26.8229 36.1846 28.583 33.8906C30.3434 31.5965 32.8454 29.9839 35.6611 29.3271ZM43.1436 32.082C40.9655 31.0083 38.4814 30.7231 36.1162 31.2744C33.7505 31.8261 31.6475 33.1806 30.1689 35.1074C28.6906 37.0342 27.9257 39.4153 28.0049 41.8428C28.0844 44.2701 29.0042 46.5966 30.6055 48.4229C32.2071 50.2489 34.3938 51.4646 36.79 51.8604C38.8556 52.2012 40.9682 51.9141 42.8594 51.0508L41.3496 48.4355C40.0682 48.9621 38.6586 49.1272 37.2783 48.8994C35.5671 48.6167 34.0052 47.7493 32.8613 46.4453C31.7177 45.141 31.0619 43.4795 31.0049 41.7461C30.9484 40.0128 31.4936 38.3112 32.5498 36.9346C33.6061 35.5581 35.1078 34.5904 36.7969 34.1963C38.4859 33.8027 40.2614 34.0063 41.8174 34.7734C43.3732 35.5408 44.616 36.8244 45.332 38.4043C45.5325 38.8469 45.6867 39.3051 45.7969 39.7705C45.8673 40.068 45.798 40.3813 45.6084 40.6211C45.4187 40.8608 45.1299 41.001 44.8242 41.001H43.3682L47.5 47.1992L51.6318 41.001H49.9004C49.3988 41.0009 48.9749 40.6291 48.9092 40.1318C48.7753 39.114 48.4926 38.1143 48.0635 37.167C47.0609 34.9546 45.3219 33.1563 43.1436 32.082Z" fill="oklch(0.3523 0 0 / 1)" class="wd-expressive-fill"></path>
<path d="M28 28C28.524 28 29.0454 28.0126 29.5635 28.0371C29.8392 28.0503 30.0485 28.2879 30.0312 28.5635L29.9688 29.5615C29.9515 29.837 29.7142 30.0459 29.4385 30.0332C28.9619 30.0111 28.4822 30 28 30C20.4988 30 13.6325 32.7071 8.32031 37.1982C8.12216 37.3658 8 37.6251 8 37.915V47C8 47.5523 8.44772 48 9 48H24.5C24.7761 48 25 48.2239 25 48.5V49.5C25 49.7761 24.7761 50 24.5 50H9C7.34315 50 6 48.6569 6 47V37.915C6 37.0672 6.35863 36.2379 7.0293 35.6709C12.689 30.886 20.0086 28 28 28Z" fill="oklch(0.3523 0 0 / 1)" class="wd-expressive-fill"></path>
<path d="M28 3C34.0751 3 39 7.92487 39 14C39 20.0751 34.0751 25 28 25C21.9249 25 17 20.0751 17 14C17 7.92487 21.9249 3 28 3ZM28 5C23.0294 5 19 9.02944 19 14C19 18.9706 23.0294 23 28 23C32.9706 23 37 18.9706 37 14C37 9.02944 32.9706 5 28 5Z" fill="oklch(0.3523 0 0 / 1)" class="wd-expressive-fill"></path>
</g>
</svg>