<svg role="presentation" width="56" height="56" viewBox="0 0 56 56" xmlns="http://www.w3.org/2000/svg" class="wd-expressive wd-expressive-star">
<g>
<path d="M50.6186 19.7646C52.2591 20.003 52.9141 22.0187 51.727 23.1758L41.5024 33.1426C41.3848 33.2574 41.3312 33.423 41.3589 33.5849L43.7729 47.6582C44.0528 49.2918 42.3377 50.5378 40.8706 49.7666L28.2319 43.122C28.0863 43.0457 27.9126 43.0455 27.7671 43.122L15.1284 49.7666C13.6613 50.5375 11.9471 49.2917 12.227 47.6582L14.6401 33.5849C14.6679 33.4229 14.6143 33.2574 14.4966 33.1426L4.27196 23.1758C3.08528 22.0187 3.74021 20.0032 5.38036 19.7646L7.03953 19.5234C7.0108 20.0608 7.19711 20.6169 7.64305 21.0517L16.1821 29.376C16.2998 29.4908 16.3534 29.6563 16.3257 29.8183L14.31 41.5713C14.0299 43.205 15.7452 44.4509 17.2124 43.6797L27.7671 38.1308C27.9126 38.0543 28.0863 38.0545 28.2319 38.1308L38.7876 43.6797C40.2548 44.4507 41.9691 43.205 41.6889 41.5713L39.6733 29.8183C39.6456 29.6564 39.6994 29.4908 39.8169 29.376L48.3559 21.0517C48.802 20.6169 48.9872 20.0609 48.9585 19.5234L50.6186 19.7646Z" fill="oklch(0.3057 0.079 256.22 / 0.13)" class="wd-expressive-accent"></path>
<path d="M26.2065 4.63377C26.9401 3.14741 29.0597 3.14753 29.7934 4.63377L35.353 15.8994C35.2316 15.8563 35.129 15.7701 35.0708 15.6523L29.7934 4.95896C29.0597 3.47274 26.9402 3.47265 26.2065 4.95896L20.9282 15.6523C20.8699 15.7702 20.7676 15.8564 20.646 15.8994L26.2065 4.63377Z" fill="oklch(0.3057 0.079 256.22 / 0.13)" class="wd-expressive-accent"></path>
</g>
<path d="M25.3095 4.19103C26.4099 1.96161 29.5887 1.96182 30.6893 4.19103L36.8915 16.7584L50.7626 18.775C53.2232 19.1326 54.2062 22.1566 52.4257 23.8922L42.3886 33.6744L44.7577 47.4889C45.178 49.9396 42.606 51.8081 40.4052 50.651L27.9989 44.1295L15.5936 50.651C13.3928 51.808 10.8208 49.9396 11.2411 47.4889L13.6102 33.6744L3.57411 23.8922C1.79402 22.1567 2.77605 19.1329 5.23622 18.775L19.1063 16.7584L25.3095 4.19103ZM28.8964 5.0758C28.5293 4.33321 27.4693 4.33299 27.1024 5.0758L20.7841 17.8805C20.5656 18.3232 20.1427 18.6298 19.6542 18.7008L5.5243 20.7545C4.70443 20.8738 4.37678 21.881 4.96962 22.4596L15.1942 32.4264C15.5476 32.7708 15.7091 33.2671 15.6259 33.7535L13.2118 47.8268C13.0717 48.6435 13.9294 49.2668 14.663 48.8815L27.3016 42.2369L27.4686 42.1617C27.8104 42.0323 28.1883 42.0325 28.5302 42.1617L28.6972 42.2369L41.3358 48.8815C42.0695 49.2671 42.9271 48.6437 42.787 47.8268L40.3729 33.7535C40.2898 33.2672 40.4513 32.7708 40.8046 32.4264L51.0292 22.4596C51.6225 21.8812 51.2953 20.874 50.4755 20.7545L36.3446 18.7008C35.8564 18.6297 35.4342 18.3229 35.2157 17.8805L28.8964 5.0758Z" fill="oklch(0.3523 0 0 / 1)" class="wd-expressive-fill"></path>
</svg>