<svg role="presentation" width="56" height="56" viewBox="0 0 56 56" xmlns="http://www.w3.org/2000/svg" class="wd-expressive wd-expressive-laptop-education">
<g>
<path d="M52.5 41C52.7761 41 53 41.2239 53 41.5V43C53 44.1046 52.1046 45 51 45H5C3.89543 45 3 44.1046 3 43V41.5C3 41.2239 3.22386 41 3.5 41H52.5Z" fill="oklch(0.3057 0.079 256.22 / 0.13)" class="wd-expressive-accent"></path>
<path d="M9.5 13C10.3284 13 11 13.6716 11 14.5V39H8V14.5C8 13.6716 8.67157 13 9.5 13Z" fill="oklch(0.3057 0.079 256.22 / 0.13)" class="wd-expressive-accent"></path>
<path d="M17 36H13L14.333 31H15.667L17 36Z" fill="oklch(0.3057 0.079 256.22 / 0.13)" class="wd-expressive-accent"></path>
<path d="M37 27.8184C34.5969 29.1766 31.4476 30 28 30C24.5524 30 21.4031 29.1766 19 27.8184V26H37V27.8184Z" fill="oklch(0.3057 0.079 256.22 / 0.13)" class="wd-expressive-accent"></path>
</g>
<g>
<path d="M52.5 40C53.3284 40 54 40.6716 54 41.5V43C54 44.6569 52.6569 46 51 46H5C3.34315 46 2 44.6569 2 43V41.5C2 40.6716 2.67157 40 3.5 40H52.5ZM4 43C4 43.5523 4.44772 44 5 44H51C51.5523 44 52 43.5523 52 43V42H4V43Z" fill="oklch(0.3523 0 0 / 1)" class="wd-expressive-fill"></path>
<path d="M46 12C47.6569 12 49 13.3431 49 15V38.5C49 38.7761 48.7761 39 48.5 39H47.5C47.2239 39 47 38.7761 47 38.5V15C47 14.4477 46.5523 14 46 14H10C9.44772 14 9 14.4477 9 15V38.5C9 38.7761 8.77614 39 8.5 39H7.5C7.22386 39 7 38.7761 7 38.5V15C7 13.3431 8.34315 12 10 12H46Z" fill="oklch(0.3523 0 0 / 1)" class="wd-expressive-fill"></path>
<path d="M38.4639 18.0049C38.9921 18.0452 39.4613 18.3625 39.6953 18.8379L39.7412 18.9414L42.1523 24.9414C42.5475 25.9265 41.8222 27.0005 40.7607 27.001H38.001V31.668C38.0009 32.5074 37.6487 33.3622 36.9316 33.9238C34.4703 35.8505 31.368 36.9998 28.001 37C24.6338 37 21.5318 35.8504 19.0703 33.9238C18.3528 33.3622 18.001 32.5076 18.001 31.668V27.001H16V30.1826C16.3522 30.3747 16.6226 30.7056 16.7314 31.1133L17.7988 35.1133C18.0527 36.0654 17.3349 36.9997 16.3496 37H13.6504C12.6651 36.9997 11.9473 36.0654 12.2012 35.1133L13.2686 31.1133L13.3057 30.9932C13.432 30.6408 13.6831 30.3565 14 30.1836V26.3447C13.7329 25.9527 13.6493 25.4359 13.8477 24.9414L16.2588 18.9414L16.3047 18.8379C16.5555 18.3285 17.0761 18.0011 17.6504 18.001H38.3496L38.4639 18.0049ZM14.3018 35H15.6982L15 32.3789L14.3018 35ZM20.001 31.668C20.001 31.9658 20.1245 32.209 20.3027 32.3486C22.4249 34.0097 25.0963 35 28.001 35C30.9056 34.9998 33.5772 34.0098 35.6992 32.3486C35.8771 32.209 36.0009 31.9655 36.001 31.668V27.001H20.001V31.668ZM17.1855 22H27.5C27.7761 22 28 22.2239 28 22.5V23.5C28 23.7761 27.7761 24 27.5 24H16.5C16.461 24 16.4232 23.9948 16.3867 23.9863L15.9795 25.001H40.0205L38.0117 20.001H17.9883L17.1855 22Z" fill="oklch(0.3523 0 0 / 1)" class="wd-expressive-fill"></path>
</g>
</svg>