<svg role="presentation" width="56" height="56" viewBox="0 0 56 56" xmlns="http://www.w3.org/2000/svg" class="wd-expressive wd-expressive-control-panel">
<g>
<path d="M6.26953 10C6.09906 10.2944 6 10.6354 6 11V37.0537C6 37.6115 6.23145 38.1464 6.65039 38.5146C12.6709 43.8064 20.4742 47 29 47C37.5258 47 45.3291 43.8064 51.3496 38.5146C51.7686 38.1464 52 37.6115 52 37.0537V11C52 10.7066 51.9348 10.4288 51.8213 10.1777C52.5159 10.4913 53 11.1884 53 12V39.5576C52.9999 40.1264 52.7598 40.6709 52.3271 41.04C45.7785 46.6274 37.283 50 28 50C18.717 50 10.2215 46.6274 3.67285 41.04C3.24015 40.6709 3.00009 40.1264 3 39.5576V12C3 10.8954 3.89543 10 5 10H6.26953Z" fill="oklch(0.3057 0.079 256.22 / 0.13)" class="wd-expressive-accent"></path>
<path d="M30.5 32C30.7761 32 31 32.2239 31 32.5V35.5C31 35.7761 30.7761 36 30.5 36H23.5C23.2239 36 23 35.7761 23 35.5V32.5C23 32.2239 23.2239 32 23.5 32H30.5Z" fill="oklch(0.3057 0.079 256.22 / 0.13)" class="wd-expressive-accent"></path>
<path d="M44.5 23C44.7761 23 45 23.2239 45 23.5V26.5C45 26.7761 44.7761 27 44.5 27H37.5C37.2239 27 37 26.7761 37 26.5V23.5C37 23.2239 37.2239 23 37.5 23H44.5Z" fill="oklch(0.3057 0.079 256.22 / 0.13)" class="wd-expressive-accent"></path>
<path d="M16.5 21C16.7761 21 17 21.2239 17 21.5V24.5C17 24.7761 16.7761 25 16.5 25H9.5C9.22386 25 9 24.7761 9 24.5V21.5C9 21.2239 9.22386 21 9.5 21H16.5Z" fill="oklch(0.3057 0.079 256.22 / 0.13)" class="wd-expressive-accent"></path>
</g>
<g>
<path d="M14.5 14C14.7761 14 15 14.2239 15 14.5V18H18.5C19.3284 18 20 18.6716 20 19.5V24.5C20 25.3284 19.3284 26 18.5 26H15V40.5C15 40.7761 14.7761 41 14.5 41H13.5C13.2239 41 13 40.7761 13 40.5V26H9.5C8.67157 26 8 25.3284 8 24.5V19.5C8 18.6716 8.67157 18 9.5 18H13V14.5C13 14.2239 13.2239 14 13.5 14H14.5ZM10 24H18V20H10V24Z" fill="oklch(0.3523 0 0 / 1)" class="wd-expressive-fill"></path>
<path d="M28.5 14C28.7761 14 29 14.2239 29 14.5V29H32.5C33.3284 29 34 29.6716 34 30.5V35.5C34 36.3284 33.3284 37 32.5 37H29V40.5C29 40.7761 28.7761 41 28.5 41H27.5C27.2239 41 27 40.7761 27 40.5V37H23.5C22.6716 37 22 36.3284 22 35.5V30.5C22 29.6716 22.6716 29 23.5 29H27V14.5C27 14.2239 27.2239 14 27.5 14H28.5ZM24 35H32V31H24V35Z" fill="oklch(0.3523 0 0 / 1)" class="wd-expressive-fill"></path>
<path d="M42.5 14C42.7761 14 43 14.2239 43 14.5V20H46.5C47.3284 20 48 20.6716 48 21.5V26.5C48 27.3284 47.3284 28 46.5 28H43V40.5C43 40.7761 42.7761 41 42.5 41H41.5C41.2239 41 41 40.7761 41 40.5V28H37.5C36.6716 28 36 27.3284 36 26.5V21.5C36 20.6716 36.6716 20 37.5 20H41V14.5C41 14.2239 41.2239 14 41.5 14H42.5ZM38 26H46V22H38V26Z" fill="oklch(0.3523 0 0 / 1)" class="wd-expressive-fill"></path>
<path d="M51 9C52.6569 9 54 10.3431 54 12V39.5576C53.9999 40.4062 53.6406 41.2334 52.9756 41.8008C46.2528 47.5365 37.5296 51 28 51C18.4704 51 9.74715 47.5365 3.02441 41.8008C2.35943 41.2334 2.00009 40.4062 2 39.5576V12C2 10.3431 3.34315 9 5 9H51ZM5 11C4.44772 11 4 11.4477 4 12V39.5576C4.00009 39.8465 4.12185 40.1083 4.32227 40.2793C10.6967 45.7179 18.9638 49 28 49C37.0362 49 45.3033 45.7179 51.6777 40.2793C51.8781 40.1083 51.9999 39.8465 52 39.5576V12C52 11.4477 51.5523 11 51 11H5Z" fill="oklch(0.3523 0 0 / 1)" class="wd-expressive-fill"></path>
</g>
</svg>