<svg role="presentation" width="56" height="56" viewBox="0 0 56 56" xmlns="http://www.w3.org/2000/svg" class="wd-expressive wd-expressive-book-user-group">
<g>
<path d="M44.3633 45C42.8104 49.112 42.8441 48.9774 44.3633 53H15C14.6116 53 14.2359 52.9451 13.8809 52.8418C12.2163 52.3577 11 50.8207 11 49C11 47.1793 12.2163 45.6423 13.8809 45.1582C14.2359 45.0549 14.6116 45 15 45H44.3633Z" fill="oklch(0.3057 0.079 256.22 / 0.13)" class="wd-expressive-accent"></path>
<path d="M15 45H11V7C11 4.79086 12.7909 3 15 3V45Z" fill="oklch(0.3057 0.079 256.22 / 0.13)" class="wd-expressive-accent"></path>
<path d="M48.5 29.001C48.7761 29.001 49 29.2248 49 29.501V35.501C49 35.7771 48.7761 36.001 48.5 36.001H45.5C45.2239 36.001 45 35.7771 45 35.501V29.501C45 29.2248 45.2239 29.001 45.5 29.001H48.5Z" fill="oklch(0.3057 0.079 256.22 / 0.13)" class="wd-expressive-accent"></path>
<path d="M22 29C23.5366 29 24.9385 29.5774 26 30.5273V33H18V30.5273C19.0615 29.5774 20.4634 29 22 29Z" fill="oklch(0.3057 0.079 256.22 / 0.13)" class="wd-expressive-accent"></path>
<path d="M34 29C35.5366 29 36.9385 29.5774 38 30.5273V33H30V30.5273C31.0615 29.5774 32.4634 29 34 29Z" fill="oklch(0.3057 0.079 256.22 / 0.13)" class="wd-expressive-accent"></path>
<path d="M22 24C23.1046 24 24 24.8954 24 26C24 27.1046 23.1046 28 22 28C20.8954 28 20 27.1046 20 26C20 24.8954 20.8954 24 22 24Z" fill="oklch(0.3057 0.079 256.22 / 0.13)" class="wd-expressive-accent"></path>
<path d="M34 24C35.1046 24 36 24.8954 36 26C36 27.1046 35.1046 28 34 28C32.8954 28 32 27.1046 32 26C32 24.8954 32.8954 24 34 24Z" fill="oklch(0.3057 0.079 256.22 / 0.13)" class="wd-expressive-accent"></path>
<path d="M48.5 17.999C48.7761 17.999 49 18.2229 49 18.499V24.499C49 24.7752 48.7761 24.999 48.5 24.999H45.5C45.2239 24.999 45 24.7752 45 24.499V18.499C45 18.2229 45.2239 17.999 45.5 17.999H48.5Z" fill="oklch(0.3057 0.079 256.22 / 0.13)" class="wd-expressive-accent"></path>
<path d="M28 17C29.5366 17 30.9385 17.5774 32 18.5273V21H24V18.5273C25.0615 17.5774 26.4634 17 28 17Z" fill="oklch(0.3057 0.079 256.22 / 0.13)" class="wd-expressive-accent"></path>
<path d="M28 12C29.1046 12 30 12.8954 30 14C30 15.1046 29.1046 16 28 16C26.8954 16 26 15.1046 26 14C26 12.8954 26.8954 12 28 12Z" fill="oklch(0.3057 0.079 256.22 / 0.13)" class="wd-expressive-accent"></path>
<path d="M48.5 7C48.7761 7 49 7.22386 49 7.5V13.5C49 13.7761 48.7761 14 48.5 14H45.5C45.2239 14 45 13.7761 45 13.5V7.5C45 7.22386 45.2239 7 45.5 7H48.5Z" fill="oklch(0.3057 0.079 256.22 / 0.13)" class="wd-expressive-accent"></path>
</g>
<g>
<path d="M22 23C23.6569 23 25 24.3431 25 26C25 26.911 24.5922 27.7252 23.9512 28.2754C24.9719 28.571 25.8967 29.0929 26.667 29.7822C26.8788 29.9718 26.9999 30.2431 27 30.5273V33C27 33.5523 26.5523 34 26 34H18C17.4477 34 17 33.5523 17 33V30.5273C17.0001 30.2431 17.1212 29.9718 17.333 29.7822C18.103 29.0931 19.0275 28.5711 20.0479 28.2754C19.4071 27.7252 19 26.9108 19 26C19 24.3431 20.3431 23 22 23ZM22 30C20.8736 30 19.8359 30.3718 19 31V32H25V31C24.1641 30.3718 23.1264 30 22 30ZM22 25C21.4477 25 21 25.4477 21 26C21 26.5523 21.4477 27 22 27C22.5523 27 23 26.5523 23 26C23 25.4477 22.5523 25 22 25Z" fill="oklch(0.3523 0 0 / 1)" class="wd-expressive-fill"></path>
<path d="M34 23C35.6569 23 37 24.3431 37 26C37 26.911 36.5922 27.7252 35.9512 28.2754C36.9719 28.571 37.8967 29.0929 38.667 29.7822C38.8788 29.9718 38.9999 30.2431 39 30.5273V33C39 33.5523 38.5523 34 38 34H30C29.4477 34 29 33.5523 29 33V30.5273C29.0001 30.2431 29.1212 29.9718 29.333 29.7822C30.103 29.0931 31.0275 28.5711 32.0479 28.2754C31.4072 27.7252 31 26.9108 31 26C31 24.3431 32.3431 23 34 23ZM34 30C32.8736 30 31.8359 30.3718 31 31V32H37V31C36.1641 30.3718 35.1264 30 34 30ZM34 25C33.4477 25 33 25.4477 33 26C33 26.5523 33.4477 27 34 27C34.5523 27 35 26.5523 35 26C35 25.4477 34.5523 25 34 25Z" fill="oklch(0.3523 0 0 / 1)" class="wd-expressive-fill"></path>
<path d="M28 11C29.6569 11 31 12.3431 31 14C31 14.911 30.5922 15.7252 29.9512 16.2754C30.9719 16.571 31.8967 17.0929 32.667 17.7822C32.8788 17.9718 32.9999 18.2431 33 18.5273V21C33 21.5523 32.5523 22 32 22H24C23.4477 22 23 21.5523 23 21V18.5273C23.0001 18.2431 23.1212 17.9718 23.333 17.7822C24.103 17.0931 25.0275 16.5711 26.0479 16.2754C25.4071 15.7252 25 14.9108 25 14C25 12.3431 26.3431 11 28 11ZM28 18C26.8736 18 25.8359 18.3718 25 19V20H31V19C30.1641 18.3718 29.1264 18 28 18ZM28 13C27.4477 13 27 13.4477 27 14C27 14.5523 27.4477 15 28 15C28.5523 15 29 14.5523 29 14C29 13.4477 28.5523 13 28 13Z" fill="oklch(0.3523 0 0 / 1)" class="wd-expressive-fill"></path>
<path d="M44.5 2C45.3284 2 46 2.67157 46 3.5V6H48.5C49.3284 6 50 6.67157 50 7.5V13.5C50 14.3284 49.3284 15 48.5 15H46V16.999H48.5C49.3284 16.999 50 17.6706 50 18.499V24.499C50 25.3274 49.3284 25.999 48.5 25.999H46V28.001H48.5C49.3284 28.001 50 28.6726 50 29.501V35.501C50 36.3294 49.3284 37.001 48.5 37.001H46C46 39.5921 46 42.1833 46 44.7744C46 45 45.9836 45.3533 45.7998 45.5986L45.0498 46.5986C43.9832 48.0207 43.9835 49.9772 45.0498 51.3994L45.5 52L45.6006 52.0098C45.8286 52.0563 46 52.2583 46 52.5V53.5C46 53.7761 45.7761 54 45.5 54H15C12.2386 54 10 51.7614 10 49V7C10 4.23858 12.2386 2 15 2H44.5ZM15 46C13.3431 46 12 47.3431 12 49C12 50.6569 13.3431 52 15 52H43.0557C41.9836 50.146 41.9831 47.8542 43.0547 46H15ZM15 4C13.3431 4 12 5.34315 12 7V45C12.8357 44.3722 13.8743 44 15 44H44V4H15ZM46 35.001H48V30.001H46V35.001ZM46 23.999H48V18.999H46V23.999ZM46 13H48V8H46V13Z" fill="oklch(0.3523 0 0 / 1)" class="wd-expressive-fill"></path>
</g>
</svg>