<svg role="presentation" width="56" height="56" viewBox="0 0 56 56" xmlns="http://www.w3.org/2000/svg" class="wd-expressive wd-expressive-grad-cap-apple">
<g>
<path d="M37.1367 35.7598C37.0487 36.1501 37 36.5643 37 37C37 43.9703 40.5295 47.9997 43.5 48C44.9998 48 45.1271 47.5001 46 47.5C46.8731 47.5 47.0003 47.9999 48.5 48C49.5807 48 50.7338 47.4645 51.7656 46.4502C50.4736 49.3913 48.3763 51 46.5 51C45.0003 50.9999 44.8731 50.5 44 50.5C43.1271 50.5001 42.9998 51 41.5 51C38.5295 50.9997 35 46.9703 35 40C35 38.1 35.9033 36.6034 37.1367 35.7598Z" fill="oklch(0.3057 0.079 256.22 / 0.13)" class="wd-expressive-accent"></path>
<path d="M5.00096 29C6.10528 29.0003 7.00096 29.8956 7.00096 31C7.00096 31.6251 6.71278 32.1821 6.26366 32.5488L7.3242 36.3662C7.41266 36.6847 7.17332 36.9999 6.84276 37H3.15819C2.82762 36.9999 2.58826 36.6848 2.67674 36.3662L3.73631 32.5488C3.28753 32.1821 3.00096 31.6248 3.00096 31C3.00096 29.8954 3.89639 29 5.00096 29Z" fill="oklch(0.3057 0.079 256.22 / 0.13)" class="wd-expressive-accent"></path>
<path d="M51 28C51 31.866 47.866 35 44 35C44 31.1341 47.1342 28.0002 51 28Z" fill="oklch(0.3057 0.079 256.22 / 0.13)" class="wd-expressive-accent"></path>
<path d="M36.5 21C36.7761 21 37 21.2239 37 21.5V22.0039C37 22.7783 36.5563 23.4899 35.8389 23.7812C32.4072 25.174 28.1329 26 23.5 26C18.8672 26 14.5936 25.174 11.1621 23.7812C10.4445 23.49 9.99998 22.7784 9.99998 22.0039V21.5C9.99998 21.224 10.224 21.0002 10.5 21H36.5Z" fill="oklch(0.3057 0.079 256.22 / 0.13)" class="wd-expressive-accent"></path>
</g>
<g>
<path d="M50.9999 27C51.5521 27 51.9999 27.4477 51.9999 28C51.9999 30.4208 50.9224 32.5877 49.2235 34.0547C51.7716 34.436 53.9999 36.7819 53.9999 40C53.9999 43.6493 53.0758 46.6 51.6952 48.6689C50.3332 50.7098 48.4378 52 46.4999 52C45.6103 52 45.0828 51.8459 44.659 51.6846C44.2711 51.5369 44.2126 51.5 43.9999 51.5C43.7872 51.5 43.7287 51.5369 43.3407 51.6846C42.9169 51.8459 42.3894 52 41.4999 52C39.562 51.9999 37.6665 50.7098 36.3046 48.6689C34.924 46.6 33.9999 43.6492 33.9999 40C33.9999 36.4811 36.6645 34.0049 39.4979 34H39.4999C41.0244 34 42.1578 34.266 42.9862 34.6104C42.8771 32.9102 42.0619 31.4021 40.826 30.3779C40.6134 30.2017 40.5557 29.8915 40.7137 29.665L41.286 28.8447C41.444 28.6182 41.7573 28.5616 41.9735 28.7334C42.7961 29.3871 43.4855 30.2012 43.9989 31.127C45.3632 28.6661 47.9868 27.0001 50.9999 27ZM48.4979 36C46.8965 36.0003 45.9397 36.3422 45.4159 36.6279C45.1516 36.7721 44.9867 36.9074 44.8983 36.9912C44.8538 37.0333 44.8284 37.064 44.8182 37.0762C44.8167 37.0779 44.8143 37.0801 44.8143 37.0801C44.8156 37.0784 44.8174 37.0753 44.8202 37.0713C44.8216 37.0693 44.8233 37.067 44.8251 37.0645L44.829 37.0596L44.8309 37.0557C44.6454 37.3332 44.3337 37.5 43.9999 37.5C43.667 37.5 43.3555 37.3346 43.1698 37.0586L43.1708 37.0596L43.1747 37.0645C43.1764 37.067 43.1782 37.0693 43.1796 37.0713C43.1824 37.0753 43.1842 37.0784 43.1854 37.0801C43.1854 37.0801 43.183 37.0779 43.1815 37.0762C43.1713 37.0639 43.1458 37.0333 43.1014 36.9912C43.013 36.9074 42.8481 36.7721 42.5838 36.6279C42.0599 36.3422 41.1028 36.0001 39.5008 36C37.8346 36.0032 35.9999 37.5196 35.9999 40C35.9999 43.3211 36.841 45.8701 37.9676 47.5586C39.1129 49.2749 40.4673 49.9999 41.4999 50C42.1099 50 42.396 49.904 42.6288 49.8154C42.8974 49.7132 43.3395 49.5 43.9999 49.5C44.6602 49.5 45.1023 49.7131 45.371 49.8154C45.6038 49.904 45.8898 50 46.4999 50C47.5324 50 48.8867 49.2749 50.0321 47.5586C51.1587 45.8701 51.9999 43.3211 51.9999 40C51.9999 37.5192 50.1643 36.0027 48.4979 36ZM49.8973 29.1025C47.4683 29.5539 45.5551 31.4676 45.1034 33.8965C47.5323 33.4448 49.446 31.5316 49.8973 29.1025Z" fill="oklch(0.3523 0 0 / 1)" class="wd-expressive-fill"></path>
<path d="M39.3993 10C39.9995 10.0005 40.5424 10.3591 40.7782 10.9111L44.6219 19.9111C45.0439 20.9002 44.3183 21.9992 43.243 22H37.9999V30.0205C37.9999 30.8763 37.6347 31.7263 36.9296 32.291C33.2503 35.2373 28.5793 37 23.4999 37C18.4204 36.9999 13.7494 35.2373 10.0702 32.291C9.36513 31.7263 8.99986 30.8762 8.99986 30.0205V22H6.00084V28.1738C7.16497 28.5862 7.99986 29.6945 7.99986 31C7.99986 31.6879 7.76576 32.3196 7.37779 32.8242L8.28795 36.0986C8.53661 36.9943 7.92054 37.8817 7.02525 37.9893L6.84264 38H3.15807C2.16532 38 1.4476 37.0536 1.71275 36.0986L2.62193 32.8252C2.23377 32.3205 1.99986 31.6882 1.99986 31C1.99986 29.6938 2.83581 28.5857 4.00084 28.1738V22H3.7567C2.68095 21.9997 1.95544 20.9005 2.37779 19.9111L6.22154 10.9111L6.26939 10.8096C6.52567 10.3154 7.03764 10.0001 7.60045 10H39.3993ZM4.99986 30C4.44751 30.0002 3.99986 30.4481 3.99986 31C3.99986 31.3106 4.14147 31.5885 4.369 31.7744C4.676 32.0254 4.80609 32.4343 4.70006 32.8164L3.81627 36H6.18443L5.29967 32.8164C5.19358 32.4343 5.32362 32.0254 5.63072 31.7744C5.85807 31.5887 5.99986 31.311 5.99986 31C5.99986 30.4478 5.55206 30.0001 4.99986 30ZM10.9999 30.0205C10.9999 30.3174 11.1257 30.5736 11.3202 30.7295C14.6575 33.4021 18.891 34.9999 23.4999 35C28.1088 35 32.3422 33.4021 35.6796 30.7295C35.8741 30.5736 35.9999 30.3175 35.9999 30.0205V22H10.9999V30.0205ZM6.64928 15H23.4999C23.776 15 23.9999 15.2239 23.9999 15.5V16.5C23.9999 16.7761 23.776 17 23.4999 17H5.79576L4.51451 20H42.4852L39.0692 12H7.93053L6.64928 15Z" fill="oklch(0.3523 0 0 / 1)" class="wd-expressive-fill"></path>
</g>
</svg>