<svg role="presentation" width="56" height="56" viewBox="0 0 56 56" xmlns="http://www.w3.org/2000/svg" class="wd-expressive wd-expressive-basket">
<path d="M38 32.5049C34.0595 29.6701 29.2249 28 24 28C21.9283 28 19.9177 28.2623 18 28.7559V25H9.41702L10.6182 39.415C10.8341 42.0064 13.0003 43.9999 15.6006 44H46.3994C46.9955 44 47.5684 43.8939 48.1006 43.7012C47.4008 45.6373 45.5491 47 43.3994 47H12.6006C10.0003 46.9999 7.83414 45.0064 7.61819 42.415L6.16702 25H4.94143C4.68947 25 4.47682 24.8124 4.44534 24.5625L4.07034 21.5625C4.03304 21.2641 4.26573 21.0001 4.56643 21H51.4336C51.7344 21 51.967 21.2641 51.9297 21.5625L51.5547 24.5625C51.5232 24.8125 51.3106 25 51.0586 25H38V32.5049Z" fill="oklch(0.3057 0.079 256.22 / 0.13)" class="wd-expressive-accent"></path>
<g>
<path d="M13.5006 37.0003C13.7765 37.0005 14.0006 37.2243 14.0006 37.5003V41.5003C14.0005 41.7763 13.7765 42.0001 13.5006 42.0003H12.5006C12.2244 42.0003 12.0006 41.7764 12.0006 41.5003V37.5003C12.0006 37.2242 12.2244 37.0003 12.5006 37.0003H13.5006Z" fill="oklch(0.3523 0 0 / 1)" class="wd-expressive-fill"></path>
<path d="M18.5006 37.0003C18.7765 37.0005 19.0006 37.2243 19.0006 37.5003V41.5003C19.0005 41.7763 18.7765 42.0001 18.5006 42.0003H17.5006C17.2244 42.0003 17.0006 41.7764 17.0006 41.5003V37.5003C17.0006 37.2242 17.2244 37.0003 17.5006 37.0003H18.5006Z" fill="oklch(0.3523 0 0 / 1)" class="wd-expressive-fill"></path>
<path d="M23.5006 37.0003C23.7765 37.0005 24.0006 37.2243 24.0006 37.5003V41.5003C24.0005 41.7763 23.7765 42.0001 23.5006 42.0003H22.5006C22.2244 42.0003 22.0006 41.7764 22.0006 41.5003V37.5003C22.0006 37.2242 22.2244 37.0003 22.5006 37.0003H23.5006Z" fill="oklch(0.3523 0 0 / 1)" class="wd-expressive-fill"></path>
<path d="M28.5006 37.0003C28.7765 37.0005 29.0006 37.2243 29.0006 37.5003V41.5003C29.0005 41.7763 28.7765 42.0001 28.5006 42.0003H27.5006C27.2244 42.0003 27.0006 41.7764 27.0006 41.5003V37.5003C27.0006 37.2242 27.2244 37.0003 27.5006 37.0003H28.5006Z" fill="oklch(0.3523 0 0 / 1)" class="wd-expressive-fill"></path>
<path d="M33.5006 37.0003C33.7765 37.0005 34.0006 37.2243 34.0006 37.5003V41.5003C34.0005 41.7763 33.7765 42.0001 33.5006 42.0003H32.5006C32.2244 42.0003 32.0006 41.7764 32.0006 41.5003V37.5003C32.0006 37.2242 32.2244 37.0003 32.5006 37.0003H33.5006Z" fill="oklch(0.3523 0 0 / 1)" class="wd-expressive-fill"></path>
<path d="M38.5006 37.0003C38.7765 37.0005 39.0006 37.2243 39.0006 37.5003V41.5003C39.0005 41.7763 38.7765 42.0001 38.5006 42.0003H37.5006C37.2244 42.0003 37.0006 41.7764 37.0006 41.5003V37.5003C37.0006 37.2242 37.2244 37.0003 37.5006 37.0003H38.5006Z" fill="oklch(0.3523 0 0 / 1)" class="wd-expressive-fill"></path>
<path d="M43.5006 37.0003C43.7765 37.0005 44.0006 37.2243 44.0006 37.5003V41.5003C44.0005 41.7763 43.7765 42.0001 43.5006 42.0003H42.5006C42.2244 42.0003 42.0006 41.7764 42.0006 41.5003V37.5003C42.0006 37.2242 42.2244 37.0003 42.5006 37.0003H43.5006Z" fill="oklch(0.3523 0 0 / 1)" class="wd-expressive-fill"></path>
<path d="M13.5006 29.0003C13.7765 29.0005 14.0006 29.2243 14.0006 29.5003V33.5003C14.0005 33.7763 13.7765 34.0001 13.5006 34.0003H12.5006C12.2244 34.0003 12.0006 33.7764 12.0006 33.5003V29.5003C12.0006 29.2242 12.2244 29.0003 12.5006 29.0003H13.5006Z" fill="oklch(0.3523 0 0 / 1)" class="wd-expressive-fill"></path>
<path d="M43.5006 29.0003C43.7765 29.0005 44.0006 29.2243 44.0006 29.5003V33.5003C44.0005 33.7763 43.7765 34.0001 43.5006 34.0003H42.5006C42.2244 34.0003 42.0006 33.7764 42.0006 33.5003V29.5003C42.0006 29.2242 42.2244 29.0003 42.5006 29.0003H43.5006Z" fill="oklch(0.3523 0 0 / 1)" class="wd-expressive-fill"></path>
<path d="M31.4888 2.8919C31.7583 2.83208 32.0255 3.00143 32.0855 3.2708L35.7974 20.0003H51.4332C52.3367 20.0003 53.0332 20.7928 52.9215 21.6868L52.5465 24.6868C52.4518 25.4366 51.814 26.0003 51.0582 26.0003H50.7525L49.3775 42.4983C49.1182 45.6078 46.5195 48.0003 43.399 48.0003H12.6002C9.47993 48 6.8809 45.6077 6.62165 42.4983L5.24665 26.0003H4.94099C4.1857 25.9999 3.54729 25.4377 3.4527 24.6878L3.0777 21.6868C2.96595 20.7928 3.66307 20.0007 4.56599 20.0003H20.2037L23.9156 3.27178C23.9754 3.00233 24.2418 2.8323 24.5113 2.8919L25.4888 3.10869C25.7584 3.16853 25.9285 3.4358 25.8687 3.70537L22.2525 20.0003H33.7486L30.1324 3.7044C30.0728 3.4351 30.2421 3.16874 30.5113 3.10869L31.4888 2.8919ZM8.61384 42.3323C8.78672 44.4052 10.5203 46 12.6002 46.0003H43.399C45.4791 46.0003 47.2124 44.4055 47.3853 42.3323L48.7467 26.0003H39.0006V33.0003C39.0005 33.5524 38.5526 34.0001 38.0006 34.0003H18.0006C17.4483 34.0003 17.0006 33.5525 17.0006 33.0003V26.0003H7.25251L8.61384 42.3323ZM19.0006 32.0003H37.0006V26.0003H19.0006V32.0003ZM5.38239 24.0003H50.6168L50.8668 22.0003H5.13239L5.38239 24.0003Z" fill="oklch(0.3523 0 0 / 1)" class="wd-expressive-fill"></path>
</g>
</svg>