<svg role="presentation" width="56" height="56" viewBox="0 0 56 56" xmlns="http://www.w3.org/2000/svg" class="wd-expressive wd-expressive-document-stack-loop">
<path d="M18 44.5C18 44.7761 18.2239 45 18.5 45H34V51H12C10.8954 51 10 50.1046 10 49V12C10 10.8954 10.8954 10 12 10H18V44.5Z" fill="oklch(0.3057 0.079 256.22 / 0.13)" class="wd-expressive-accent"></path>
<g>
<path d="M13.5 10C13.7761 10 14 10.2239 14 10.5V11.5C14 11.7761 13.7761 12 13.5 12H12C11.4477 12 11 12.4477 11 13V49C11 49.5523 11.4477 50 12 50H33.5C33.7761 50 34 50.2239 34 50.5V51.5C34 51.7761 33.7761 52 33.5 52H12C10.3431 52 9 50.6569 9 49V13C9 11.3431 10.3431 10 12 10H13.5Z" fill="oklch(0.3523 0 0 / 1)" class="wd-expressive-fill"></path>
<path d="M42.5 44C42.776 44 42.9998 44.224 43 44.5V45.5C42.9998 45.776 42.776 46 42.5 46H39.418C39.7109 46.6705 40.1486 47.2723 40.7031 47.7588C41.4466 48.4107 42.3673 48.8279 43.3477 48.957C44.3279 49.086 45.3251 48.9216 46.2119 48.4844C46.9486 48.121 47.5819 47.5817 48.0586 46.9189C48.2199 46.6952 48.5237 46.6122 48.7627 46.75L49.6289 47.25C49.868 47.388 49.9514 47.6952 49.7969 47.9238C49.1176 48.927 48.1873 49.74 47.0957 50.2783C45.8542 50.8904 44.4583 51.1211 43.0859 50.9404C41.7136 50.7597 40.4255 50.1753 39.3848 49.2627C38.8365 48.7818 38.3714 48.2192 38 47.6006V50.5C37.9998 50.776 37.776 51 37.5 51H36.5C36.224 51 36.0002 50.776 36 50.5V44.5C36.0002 44.224 36.224 44 36.5 44H42.5Z" fill="oklch(0.3523 0 0 / 1)" class="wd-expressive-fill"></path>
<path d="M44.1543 4.00391C45.7394 4.08421 47 5.3949 47 7V34.5C47 34.7761 46.7761 35 46.5 35H45.5C45.2239 35 45 34.7761 45 34.5V7C45 6.48232 44.6067 6.05621 44.1025 6.00488L44 6H19C18.4477 6 18 6.44772 18 7V43C18 43.5523 18.4477 44 19 44H33.5C33.7761 44 34 44.2239 34 44.5V45.5C34 45.7761 33.7761 46 33.5 46H19C17.3431 46 16 44.6569 16 43V7C16 5.34315 17.3431 4 19 4H44L44.1543 4.00391Z" fill="oklch(0.3523 0 0 / 1)" class="wd-expressive-fill"></path>
<path d="M51.5 37C51.776 37 51.9998 37.224 52 37.5V43.5C51.9998 43.776 51.776 44 51.5 44H45.5C45.224 44 45.0002 43.776 45 43.5V42.5C45.0002 42.224 45.224 42 45.5 42H48.5811C48.2442 41.229 47.7177 40.5503 47.0439 40.0332C46.1708 39.3633 45.1005 39 44 39C42.8995 39 41.8292 39.3633 40.9561 40.0332C40.2158 40.6013 39.6513 41.3638 39.3232 42.2305C39.2254 42.4885 38.9531 42.6486 38.6865 42.5771L37.7217 42.3184C37.4551 42.2469 37.2948 41.9718 37.3848 41.7109C37.8317 40.4196 38.6485 39.2826 39.7383 38.4463C40.9607 37.5084 42.4592 37 44 37C45.5408 37 47.0393 37.5084 48.2617 38.4463C48.9629 38.9844 49.5507 39.6476 50 40.3955V37.5C50.0002 37.224 50.224 37 50.5 37H51.5Z" fill="oklch(0.3523 0 0 / 1)" class="wd-expressive-fill"></path>
<path d="M33.5 31C33.7761 31 34 31.2239 34 31.5V32.5C34 32.7761 33.7761 33 33.5 33H22.5C22.2239 33 22 32.7761 22 32.5V31.5C22 31.2239 22.2239 31 22.5 31H33.5Z" fill="oklch(0.3523 0 0 / 1)" class="wd-expressive-fill"></path>
<path d="M40.5 26C40.7761 26 41 26.2239 41 26.5V27.5C41 27.7761 40.7761 28 40.5 28H22.5C22.2239 28 22 27.7761 22 27.5V26.5C22 26.2239 22.2239 26 22.5 26H40.5Z" fill="oklch(0.3523 0 0 / 1)" class="wd-expressive-fill"></path>
<path d="M40.5 21C40.7761 21 41 21.2239 41 21.5V22.5C41 22.7761 40.7761 23 40.5 23H22.5C22.2239 23 22 22.7761 22 22.5V21.5C22 21.2239 22.2239 21 22.5 21H40.5Z" fill="oklch(0.3523 0 0 / 1)" class="wd-expressive-fill"></path>
<path d="M36.5 13C36.7761 13 37 13.2239 37 13.5V14.5C37 14.7761 36.7761 15 36.5 15H26.5C26.2239 15 26 14.7761 26 14.5V13.5C26 13.2239 26.2239 13 26.5 13H36.5Z" fill="oklch(0.3523 0 0 / 1)" class="wd-expressive-fill"></path>
</g>
</svg>