<svg role="presentation" width="56" height="56" viewBox="0 0 56 56" xmlns="http://www.w3.org/2000/svg" class="wd-expressive wd-expressive-easel-area-chart">
<g>
<path d="M51.9995 42H42.8794L45.5962 48.6211C45.8655 49.2789 45.3814 50 44.6704 50H42.5093C42.1038 49.9999 41.7385 49.7549 41.5845 49.3799L38.5571 42H17.4438L14.4165 49.3799C14.2625 49.7548 13.897 49.9998 13.4917 50H11.3286C10.6179 49.9997 10.1345 49.2788 10.4038 48.6211L13.1206 42H3.99951V39H51.9995V42Z" fill="oklch(0.3057 0.079 256.22 / 0.13)" class="wd-expressive-accent"></path>
<path d="M38.9995 33H16.9995V28L22.9995 25L28.9995 28L38.9995 23V33Z" fill="oklch(0.3057 0.079 256.22 / 0.13)" class="wd-expressive-accent"></path>
<path d="M40.9995 9H14.9995V5.99902H40.9995V9Z" fill="oklch(0.3057 0.079 256.22 / 0.13)" class="wd-expressive-accent"></path>
</g>
<g>
<path d="M34.4316 13.1768C34.7218 12.9764 35.101 12.942 35.4268 13.0957L39.4268 14.9844C39.7765 15.1495 39.9999 15.5019 40 15.8887V33C40 33.5523 39.5523 34 39 34H17C16.4477 34 16 33.5523 16 33V21.5557L16.0068 21.4414C16.0371 21.1781 16.1711 20.9354 16.3818 20.7695L22.3818 16.0479L22.498 15.9688C22.7796 15.8052 23.1269 15.7873 23.4268 15.9287L28.8086 18.4707L34.3135 13.2734L34.4316 13.1768ZM29.4473 28.8945C29.1658 29.0353 28.8342 29.0353 28.5527 28.8945L23 26.1182L18 28.6182V32H38V24.6182L29.4473 28.8945ZM29.6865 20.3936C29.3873 20.6762 28.9455 20.7469 28.5732 20.5713L23.1318 18.001L18 22.041V26.3818L22.5527 24.1055C22.8342 23.9647 23.1658 23.9647 23.4473 24.1055L29 26.8818L38 22.3818V16.5215L35.1895 15.1953L29.6865 20.3936Z" fill="oklch(0.3523 0 0 / 1)" class="wd-expressive-fill"></path>
<path d="M41 5C41.5522 5 41.9999 5.44778 42 6V7H50.5C51.3284 7 51.9999 7.67164 52 8.5V38L52.1025 38.0049C52.6066 38.0562 52.9999 38.4824 53 39V42C52.9997 42.552 52.5521 43 52 43H44.3711L46.5215 48.2412C47.061 49.5569 46.0939 50.9996 44.6719 51H42.5098C41.6987 50.9998 40.9671 50.5092 40.6592 49.7588L37.8857 43H18.1143L15.3418 49.7588C15.0338 50.5092 14.3033 50.9998 13.4922 51H11.3291C9.9072 50.9995 8.94005 49.5569 9.47949 48.2412L11.6299 43H4C3.44789 43 3.00029 42.552 3 42V39C3.00007 38.4824 3.3934 38.0562 3.89746 38.0049L4 38V8.5C4.00008 7.67164 4.67162 7 5.5 7H14V6C14.0001 5.44778 14.4478 5 15 5H41ZM11.3291 49H13.4922L15.9541 43H13.791L11.3291 49ZM42.5098 49H44.6719L42.21 43H40.0479L42.5098 49ZM5 41H51V40H5V41ZM6 38H50V9H42L41.9951 9.10156C41.944 9.6059 41.5178 10 41 10H15C14.4822 10 14.056 9.6059 14.0049 9.10156L14 9H6V38ZM16 8H40V7H16V8Z" fill="oklch(0.3523 0 0 / 1)" class="wd-expressive-fill"></path>
</g>
</svg>