<svg role="presentation" width="56" height="56" viewBox="0 0 56 56" xmlns="http://www.w3.org/2000/svg" class="wd-expressive wd-expressive-health-finance">
<g>
<path d="M37 51C37 52.1046 36.1046 53 35 53H21C19.8954 53 19 52.1046 19 51V38H37V51Z" fill="oklch(0.3057 0.079 256.22 / 0.13)" class="wd-expressive-accent"></path>
<path d="M16.5547 21.4502C16.5253 21.7445 16.7569 22 17.0527 22H19V23C19 25.2091 17.2091 27 15 27H14V33H15C17.2091 33 19 34.7909 19 37V38H14V37H5C3.89543 37 3 36.1046 3 35V21C3 19.8954 3.89543 19 5 19H16.7998L16.5547 21.4502Z" fill="oklch(0.3057 0.079 256.22 / 0.13)" class="wd-expressive-accent"></path>
<path d="M51 19C52.1046 19 53 19.8954 53 21V35C53 36.1046 52.1046 37 51 37H42V38H37V37C37 34.7909 38.7909 33 41 33H42V27H41C38.7909 27 37 25.2091 37 23V22H42V20.3545C42 20.1421 41.8656 19.953 41.665 19.8828L39.1426 19H51Z" fill="oklch(0.3057 0.079 256.22 / 0.13)" class="wd-expressive-accent"></path>
<path d="M27.9961 26C30.2052 26 31.996 27.791 31.9961 30C31.9961 30.0107 31.9952 30.0216 31.9951 30.0322C31.9952 30.0433 31.9961 30.0543 31.9961 30.0654C31.9961 32.2746 30.2052 34.0654 27.9961 34.0654C25.7871 34.0653 23.9961 32.2745 23.9961 30.0654V30C23.9962 27.791 25.7871 26.0001 27.9961 26Z" fill="oklch(0.3057 0.079 256.22 / 0.13)" class="wd-expressive-accent"></path>
<path d="M35 3C36.1046 3 37 3.89543 37 5V18.249L22.543 13.1895C22.2563 13.0891 21.9474 13.2657 21.8877 13.5635L21.1016 17.4912L19 17.2393V5C19 3.89543 19.8954 3 21 3H35Z" fill="oklch(0.3057 0.079 256.22 / 0.13)" class="wd-expressive-accent"></path>
</g>
<g>
<path d="M20.5 41C20.7761 41 21 41.2239 21 41.5V51C21 51.5523 21.4477 52 22 52H34C34.5523 52 35 51.5523 35 51V41.5C35 41.2239 35.2239 41 35.5 41H36.5C36.7761 41 37 41.2239 37 41.5V51C37 52.6569 35.6569 54 34 54H22C20.3431 54 19 52.6569 19 51V41.5C19 41.2239 19.2239 41 19.5 41H20.5Z" fill="oklch(0.3523 0 0 / 1)" class="wd-expressive-fill"></path>
<path d="M27.9961 25.0654C28.6526 25.0654 29.3027 25.1951 29.9092 25.4463C30.5158 25.6975 31.067 26.066 31.5312 26.5303C31.9955 26.9945 32.364 27.5457 32.6152 28.1523C32.8665 28.7589 32.9961 29.4089 32.9961 30.0654C32.9961 30.722 32.8665 31.3719 32.6152 31.9785C32.364 32.5851 31.9955 33.1363 31.5312 33.6006C31.067 34.0648 30.5158 34.4333 29.9092 34.6846C29.3027 34.9357 28.6526 35.0654 27.9961 35.0654C27.3396 35.0654 26.6895 34.9358 26.083 34.6846C25.4765 34.4333 24.9252 34.0648 24.4609 33.6006C23.9967 33.1363 23.6282 32.5851 23.377 31.9785C23.1258 31.372 22.9961 30.7219 22.9961 30.0654C22.9961 29.4089 23.1258 28.7589 23.377 28.1523C23.6282 27.5458 23.9967 26.9945 24.4609 26.5303C24.9252 26.066 25.4765 25.6976 26.083 25.4463C26.6895 25.1951 27.3396 25.0655 27.9961 25.0654ZM27.9961 27.0654C27.6022 27.0655 27.2116 27.1432 26.8477 27.2939C26.4839 27.4447 26.1534 27.6659 25.875 27.9443C25.5966 28.2228 25.3753 28.5532 25.2246 28.917C25.0739 29.2809 24.9961 29.6715 24.9961 30.0654C24.9961 30.4594 25.0739 30.8499 25.2246 31.2139C25.3753 31.5776 25.5966 31.9081 25.875 32.1865C26.1534 32.4649 26.4839 32.6862 26.8477 32.8369C27.2116 32.9876 27.6022 33.0654 27.9961 33.0654C28.39 33.0654 28.7806 32.9876 29.1445 32.8369C29.5083 32.6862 29.8387 32.4649 30.1172 32.1865C30.3956 31.9081 30.6168 31.5777 30.7676 31.2139C30.9183 30.8499 30.9961 30.4594 30.9961 30.0654L30.9814 29.7715C30.9526 29.4784 30.8807 29.1901 30.7676 28.917C30.6168 28.5532 30.3956 28.2228 30.1172 27.9443C29.8387 27.6659 29.5083 27.4447 29.1445 27.2939C28.7806 27.1432 28.39 27.0654 27.9961 27.0654Z" fill="oklch(0.3523 0 0 / 1)" class="wd-expressive-fill"></path>
<path d="M20.9072 13.3682C21.086 12.4747 22.013 11.9451 22.873 12.2461L41.9961 18.9395L42.1055 18.9824C42.6096 19.2048 42.9518 19.6871 42.9951 20.2363L43 20.3545V37.5C43 38.3284 42.3284 39 41.5 39H14.5C13.6716 39 13 38.3284 13 37.5V22.5C13 21.6716 13.6716 21 14.5 21H15.5947L15.9541 17.4072C16.038 16.5718 16.7913 15.9686 17.625 16.0684L20.3018 16.3896L20.9072 13.3682ZM15 37H18C18 35.3431 16.6569 34 15 34V37ZM20 23C20 25.7614 17.7614 28 15 28V32C17.7614 32 20 34.2386 20 37H36C36 34.2386 38.2386 32 41 32V28C38.2386 28 36 25.7614 36 23H20ZM41 34C39.3431 34 38 35.3431 38 37H41V34ZM15 26C16.6569 26 18 24.6569 18 23H15V26ZM38 23C38 24.6569 39.3431 26 41 26V23H38ZM17.6055 21H40.999V20.8867L17.8936 18.1143L17.6055 21ZM22.293 16.6279L33.0225 17.916L22.7549 14.3223L22.293 16.6279Z" fill="oklch(0.3523 0 0 / 1)" class="wd-expressive-fill"></path>
<path d="M10.5 19C10.7761 19 11 19.2239 11 19.5V20.5C11 20.7761 10.7761 21 10.5 21H5C4.44772 21 4 21.4477 4 22V34C4 34.5523 4.44772 35 5 35H10.5C10.7761 35 11 35.2239 11 35.5V36.5C11 36.7761 10.7761 37 10.5 37H5C3.34315 37 2 35.6569 2 34V22C2 20.3431 3.34315 19 5 19H10.5Z" fill="oklch(0.3523 0 0 / 1)" class="wd-expressive-fill"></path>
<path d="M51 19C52.6569 19 54 20.3431 54 22V34C54 35.6569 52.6569 37 51 37H45.5C45.2239 37 45 36.7761 45 36.5V35.5C45 35.2239 45.2239 35 45.5 35H51C51.5523 35 52 34.5523 52 34V22C52 21.4477 51.5523 21 51 21H45.5C45.2239 21 45 20.7761 45 20.5V19.5C45 19.2239 45.2239 19 45.5 19H51Z" fill="oklch(0.3523 0 0 / 1)" class="wd-expressive-fill"></path>
<path d="M34 2C35.6569 2 37 3.34315 37 5V12.5C37 12.7761 36.7761 13 36.5 13H35.5C35.2239 13 35 12.7761 35 12.5V5C35 4.44772 34.5523 4 34 4H22C21.4477 4 21 4.44772 21 5V10.5C21 10.7761 20.7761 11 20.5 11H19.5C19.2239 11 19 10.7761 19 10.5V5C19 3.34315 20.3431 2 22 2H34Z" fill="oklch(0.3523 0 0 / 1)" class="wd-expressive-fill"></path>
</g>
</svg>