<svg role="presentation" width="56" height="56" viewBox="0 0 56 56" xmlns="http://www.w3.org/2000/svg" class="wd-expressive wd-expressive-factory">
<g>
<path d="M12.4834 16C12.2138 16.0003 11.9931 16.2148 11.9844 16.4844L11 47H7L9.95605 16.4521C9.98086 16.1959 10.1966 16 10.4541 16H12.4834Z" fill="oklch(0.3057 0.079 256.22 / 0.13)" class="wd-expressive-accent"></path>
<path d="M20 27.3223L21.8076 46L19 47L17.1924 28.3223L20 27.3223Z" fill="oklch(0.3057 0.079 256.22 / 0.13)" class="wd-expressive-accent"></path>
<path d="M30 39C30.5521 39.0001 31 39.4478 31 40V42C31 42.5522 30.5522 42.9999 30 43H24C23.4477 43 23 42.5523 23 42V40C23 39.4478 23.4477 39 24 39H30Z" fill="oklch(0.3057 0.079 256.22 / 0.13)" class="wd-expressive-accent"></path>
<path d="M43 39C43.5522 39.0001 44 39.4478 44 40V42C44 42.5522 43.5522 42.9999 43 43H37C36.4477 43 36 42.5523 36 42V40C36 39.4478 36.4477 39 37 39H43Z" fill="oklch(0.3057 0.079 256.22 / 0.13)" class="wd-expressive-accent"></path>
<path d="M30 32C30.5521 32.0001 31 32.4478 31 33V35C31 35.5522 30.5522 35.9999 30 36H24C23.4477 36 23 35.5523 23 35V33C23 32.4478 23.4477 32 24 32H30Z" fill="oklch(0.3057 0.079 256.22 / 0.13)" class="wd-expressive-accent"></path>
<path d="M43 32C43.5522 32.0001 44 32.4478 44 33V35C44 35.5522 43.5522 35.9999 43 36H37C36.4477 36 36 35.5523 36 35V33C36 32.4478 36.4477 32 37 32H43Z" fill="oklch(0.3057 0.079 256.22 / 0.13)" class="wd-expressive-accent"></path>
<path d="M40 2C43.9999 2.00004 47 3.00004 49 5C49 6.5913 48.3674 8.11795 47.2422 9.24316C46.1171 10.3681 44.5911 10.9999 43 11H18C17.4697 11 16.961 11.211 16.5859 11.5859C16.2109 11.961 16 12.4696 16 13H11C11 11.4089 11.6318 9.88297 12.7568 8.75781C13.8821 7.63259 15.4087 7 17 7H35C36.3259 6.99993 37.5976 6.47358 38.5352 5.53613C39.4728 4.59845 40 3.32608 40 2Z" fill="oklch(0.3057 0.079 256.22 / 0.13)" class="wd-expressive-accent"></path>
</g>
<g>
<path d="M30.5 39C30.7761 39 31 39.2239 31 39.5V40.5C31 40.7761 30.7761 41 30.5 41H25V42.5C25 42.7761 24.7761 43 24.5 43H23.5C23.2239 43 23 42.7761 23 42.5V40C23 39.4477 23.4477 39 24 39H30.5Z" fill="oklch(0.3523 0 0 / 1)" class="wd-expressive-fill"></path>
<path d="M43.5 39C43.7761 39 44 39.2239 44 39.5V40.5C44 40.7761 43.7761 41 43.5 41H38V42.5C38 42.7761 37.7761 43 37.5 43H36.5C36.2239 43 36 42.7761 36 42.5V40C36 39.4477 36.4477 39 37 39H43.5Z" fill="oklch(0.3523 0 0 / 1)" class="wd-expressive-fill"></path>
<path d="M30.5 32C30.7761 32 31 32.2239 31 32.5V33.5C31 33.7761 30.7761 34 30.5 34H25V35.5C25 35.7761 24.7761 36 24.5 36H23.5C23.2239 36 23 35.7761 23 35.5V33C23 32.4477 23.4477 32 24 32H30.5Z" fill="oklch(0.3523 0 0 / 1)" class="wd-expressive-fill"></path>
<path d="M43.5 32C43.7761 32 44 32.2239 44 32.5V33.5C44 33.7761 43.7761 34 43.5 34H38V35.5C38 35.7761 37.7761 36 37.5 36H36.5C36.2239 36 36 35.7761 36 35.5V33C36 32.4477 36.4477 32 37 32H43.5Z" fill="oklch(0.3523 0 0 / 1)" class="wd-expressive-fill"></path>
<path d="M15.5459 15C16.3183 15 16.9646 15.5866 17.0391 16.3555L18.0586 26.8994L31.9434 21.3457L32.1279 21.2852C33.0576 21.0436 33.9999 21.7434 34 22.7383V26.5225L46.9434 21.3457L47.1279 21.2852C48.0576 21.0437 48.9999 21.7434 49 22.7383V46H51.5C51.7761 46 52 46.2239 52 46.5V47.5C52 47.7761 51.7761 48 51.5 48H4.5C4.22386 48 4 47.7761 4 47.5V46.5C4 46.2239 4.22386 46 4.5 46H6.09277L8.96094 16.3555L8.98145 16.2139C9.11646 15.5157 9.72982 15 10.4541 15H15.5459ZM8.10156 46H17.8984L15.0928 17H10.9072L8.10156 46ZM34.0566 28.6543C33.0715 29.048 32.0002 28.3226 32 27.2617V23.4766L18.2598 28.9717L19.9072 46H47V23.4766L34.0566 28.6543Z" fill="oklch(0.3523 0 0 / 1)" class="wd-expressive-fill"></path>
<path d="M40.5 2C40.776 2.00013 41.0015 2.22394 40.9785 2.49902C40.8608 3.90729 40.249 5.23531 39.2422 6.24219C38.117 7.36731 36.5912 7.99994 35 8H17C15.674 8.00006 14.4025 8.52726 13.4648 9.46484C12.6457 10.284 12.1392 11.3584 12.0244 12.501C11.9966 12.7754 11.7759 12.9999 11.5 13H10.5C10.2238 13 9.99788 12.7754 10.0176 12.5C10.1373 10.8261 10.8554 9.2442 12.0498 8.0498C13.3625 6.73715 15.1436 6.00006 17 6H35C36.0607 5.99994 37.078 5.57817 37.8281 4.82812C38.4597 4.19651 38.8585 3.37494 38.9688 2.49805C39.0033 2.22421 39.224 2 39.5 2H40.5Z" fill="oklch(0.3523 0 0 / 1)" class="wd-expressive-fill"></path>
<path d="M49.5 5C49.776 5.00013 50.001 5.22375 49.9814 5.49902C49.8618 7.17298 49.1447 8.75571 47.9502 9.9502C46.6375 11.2629 44.8564 11.9999 43 12H18C17.7349 12.0001 17.4804 12.1055 17.293 12.293C17.225 12.361 17.1674 12.4376 17.1221 12.5205C16.9898 12.7627 16.776 13 16.5 13H15.5C15.2239 13 14.9952 12.7742 15.041 12.502C15.1439 11.8911 15.4351 11.3227 15.8789 10.8789C16.4415 10.3164 17.2045 10.0001 18 10H43C44.326 9.99994 45.5975 9.47274 46.5352 8.53516C47.3543 7.71594 47.8599 6.6416 47.9746 5.49902C48.0022 5.22426 48.2239 5 48.5 5H49.5Z" fill="oklch(0.3523 0 0 / 1)" class="wd-expressive-fill"></path>
</g>
</svg>