<svg role="presentation" width="56" height="56" viewBox="0 0 56 56" xmlns="http://www.w3.org/2000/svg" class="wd-expressive wd-expressive-user-loop">
<g>
<path d="M49 28C49 39.598 39.598 49 28 49C20.9509 49 14.7131 45.5267 10.9043 40.1982L11.4609 39.8018C11.5574 39.7329 11.6758 39.7009 11.7939 39.71C12.4081 39.7573 13.0291 39.7832 13.6553 39.7832C14.2516 39.7832 14.8432 39.7614 15.4287 39.7188C15.5798 39.7077 15.7281 39.7647 15.834 39.873C18.9211 43.0358 23.2313 44.9999 28 45C37.2421 44.9999 44.7616 37.6246 44.9941 28.4385C44.9974 28.1955 45.1955 28.0002 45.4385 28H49Z" fill="oklch(0.3057 0.079 256.22 / 0.13)" class="wd-expressive-accent"></path>
<path d="M22 32.499C22 32.7407 22.1715 32.9427 22.3994 32.9893L22.5 33H37V35.5C36.9997 35.7759 36.776 36 36.5 36H19.5L19.3994 35.9893C19.1715 35.9427 19 35.7407 19 35.499V31.6602C19.0001 31.5181 19.0606 31.3821 19.168 31.2891C20.0243 30.5477 20.9756 29.9134 22 29.4043V32.499Z" fill="oklch(0.3057 0.079 256.22 / 0.13)" class="wd-expressive-accent"></path>
<path d="M28 7C35.0326 7 41.2571 10.4574 45.0684 15.7646L44.4736 16.1914C44.3774 16.2603 44.2596 16.2919 44.1416 16.2832C43.5485 16.2393 42.9491 16.2168 42.3447 16.2168C41.748 16.2168 41.1562 16.2377 40.5703 16.2803C40.4192 16.2912 40.2709 16.2344 40.165 16.126C37.078 12.9637 32.7683 11.0001 28 11C18.779 11.0002 11.2729 18.3421 11.0078 27.499C10.9997 27.775 10.7761 28 10.5 28H7C7 16.4021 16.4021 7.00007 28 7Z" fill="oklch(0.3057 0.079 256.22 / 0.13)" class="wd-expressive-accent"></path>
<path d="M26.3545 17.3545C26.1275 17.8565 26 18.4133 26 19C26.0003 21.2089 27.7911 22.9999 30 23C30.5867 23 31.1435 22.8725 31.6455 22.6455C31.0179 24.0335 29.6222 25 28 25C25.7911 24.9999 24.0003 23.2089 24 21C24 19.3777 24.9665 17.982 26.3545 17.3545Z" fill="oklch(0.3057 0.079 256.22 / 0.13)" class="wd-expressive-accent"></path>
</g>
<g>
<path d="M50.5001 28.0005C50.7762 28.0005 51.0012 28.2245 50.9952 28.5005C50.889 33.3869 49.2278 38.1181 46.2472 42.0025C43.1651 46.0189 38.8434 48.9059 33.9532 50.2164C29.0628 51.5267 23.8759 51.187 19.1984 49.2496C15.2253 47.6038 11.8073 44.8836 9.31652 41.4146C9.40341 42.2609 9.45027 43.1194 9.45031 43.9879C9.45027 45.726 9.27318 47.4259 8.93566 49.066C8.87982 49.3358 8.61169 49.5044 8.34289 49.4439L7.36633 49.2222C7.0973 49.161 6.92955 48.893 6.98449 48.6226C7.28973 47.1267 7.45027 45.5757 7.45031 43.9879C7.45023 42.4608 7.30248 40.9674 7.01965 39.525C7.0184 39.5184 7.01786 39.511 7.01672 39.5045C7.0119 39.4767 7.00943 39.4485 7.00695 39.4205C7.00456 39.3934 7.00226 39.3663 7.00207 39.3394C7.00194 39.3174 7.00368 39.2951 7.005 39.273C7.00681 39.2427 7.00828 39.212 7.01281 39.1822C7.01686 39.1558 7.02322 39.1293 7.02941 39.1031C7.03462 39.081 7.03932 39.0583 7.04602 39.0367C7.05546 39.0064 7.06776 38.9765 7.0802 38.9468C7.08862 38.9267 7.09682 38.9059 7.10656 38.8863C7.11025 38.8788 7.11337 38.8702 7.1173 38.8629C7.12597 38.8467 7.1372 38.8315 7.1466 38.816C7.16123 38.7917 7.1758 38.7667 7.1925 38.7437C7.20474 38.727 7.21942 38.7117 7.23254 38.6959C7.25472 38.669 7.27779 38.6423 7.30285 38.6177C7.31249 38.6084 7.32315 38.5993 7.33313 38.5904C7.36125 38.5651 7.39074 38.5403 7.42199 38.5181C7.43705 38.5075 7.45328 38.4976 7.46887 38.4879C7.48901 38.4751 7.50912 38.4611 7.53039 38.4498C7.53941 38.445 7.54963 38.4415 7.55871 38.4371C7.57295 38.4301 7.58811 38.4238 7.60266 38.4175C7.638 38.4022 7.67373 38.3875 7.71008 38.3765C7.7192 38.3738 7.7292 38.3722 7.7384 38.3697C7.78094 38.3582 7.82407 38.3491 7.8673 38.3433C7.87395 38.3425 7.88114 38.3421 7.88781 38.3414C7.93328 38.3363 7.97904 38.3334 8.02453 38.3345C8.03319 38.3348 8.04222 38.336 8.0509 38.3365C8.09373 38.3387 8.13666 38.3425 8.17883 38.3502C8.18323 38.3509 8.1881 38.3512 8.1925 38.3521C9.63518 38.635 11.1281 38.7827 12.6554 38.7828C14.2435 38.7827 15.794 38.6223 17.2902 38.317C17.5604 38.2621 17.8285 38.4309 17.8898 38.6998L18.1114 39.6754C18.1726 39.9445 18.0037 40.2132 17.7335 40.2691C16.0932 40.6067 14.3938 40.7827 12.6554 40.7828C12.2041 40.7828 11.7553 40.7667 11.3097 40.7427C13.5476 43.6739 16.5278 45.9785 19.964 47.4019C24.2348 49.1708 28.9705 49.4811 33.4357 48.2847C37.9006 47.0882 41.8462 44.4519 44.6603 40.7847C47.3728 37.2496 48.8883 32.9466 48.9943 28.5005C49.0009 28.2246 49.2241 28.0006 49.5001 28.0005H50.5001Z" fill="oklch(0.3523 0 0 / 1)" class="wd-expressive-fill"></path>
<path d="M28.0001 27.0005C31.6267 27.0006 34.9442 28.3337 37.4864 30.5347C37.8199 30.8235 38.0001 31.2383 38.0001 31.6617V35.5005C37.9999 36.3288 37.3284 37.0005 36.5001 37.0005H19.5001C18.7236 37.0005 18.0849 36.4101 18.0079 35.6539L18.0001 35.5005V31.6617L18.0089 31.5035C18.0478 31.1365 18.222 30.7874 18.5138 30.5347L18.9991 30.1324C21.4717 28.1723 24.6001 27.0005 28.0001 27.0005ZM28.0001 29.0005C24.9553 29.0005 22.1686 30.0901 20.0001 31.899V35.0005H36.0001V31.899C33.8317 30.0901 31.0449 29.0006 28.0001 29.0005Z" fill="oklch(0.3523 0 0 / 1)" class="wd-expressive-fill"></path>
<path d="M22.047 5.78375C26.9374 4.4734 32.1243 4.81308 36.8019 6.75055C40.7748 8.3962 44.192 11.1168 46.6827 14.5855C46.5959 13.7392 46.55 12.8806 46.5499 12.0123C46.55 10.274 46.727 8.57431 47.0646 6.93414C47.1204 6.66424 47.3885 6.49568 47.6573 6.55621L48.6339 6.77789C48.9029 6.83907 49.0707 7.10716 49.0157 7.3775C48.7105 8.87352 48.55 10.4244 48.5499 12.0123C48.55 13.5393 48.6977 15.0327 48.9806 16.4752C48.9819 16.4817 48.9824 16.4891 48.9835 16.4957C48.9883 16.5234 48.9908 16.5516 48.9933 16.5796C48.9957 16.6067 48.998 16.6338 48.9982 16.6607C48.9983 16.6828 48.9966 16.705 48.9952 16.7271C48.9934 16.7575 48.992 16.788 48.9874 16.8179C48.9834 16.8444 48.977 16.8708 48.9708 16.897C48.9656 16.9192 48.9609 16.9417 48.9542 16.9634C48.9448 16.9938 48.9325 17.0236 48.92 17.0533C48.9116 17.0735 48.9034 17.0942 48.8937 17.1138C48.8899 17.1214 48.8869 17.1298 48.8829 17.1373C48.8742 17.1535 48.8631 17.1686 48.8536 17.1841C48.839 17.2085 48.8245 17.2333 48.8077 17.2564C48.7955 17.2732 48.7809 17.2884 48.7677 17.3043C48.7455 17.3312 48.7225 17.3578 48.6974 17.3824C48.6877 17.3918 48.6771 17.4007 48.6671 17.4097C48.6389 17.4351 48.6096 17.4597 48.5782 17.482C48.5631 17.4927 48.547 17.5024 48.5314 17.5123C48.5112 17.525 48.4912 17.539 48.4698 17.5504C48.4608 17.5551 48.4507 17.5585 48.4415 17.563C48.4272 17.5701 48.4122 17.5762 48.3976 17.5826C48.3622 17.598 48.3266 17.6126 48.2902 17.6236C48.281 17.6263 48.2711 17.6279 48.2618 17.6304C48.2192 17.642 48.1762 17.651 48.1329 17.6568C48.1262 17.6577 48.1192 17.658 48.1124 17.6588C48.0669 17.6638 48.0212 17.6668 47.9757 17.6656C47.967 17.6653 47.9581 17.6641 47.9493 17.6636C47.9065 17.6614 47.8636 17.6577 47.8214 17.65C47.817 17.6492 47.8122 17.6489 47.8077 17.648C46.365 17.3651 44.8722 17.2174 43.3448 17.2173C41.7567 17.2174 40.2063 17.3778 38.7101 17.6832C38.4397 17.7382 38.1717 17.5694 38.1105 17.3004L37.8888 16.3248C37.8276 16.0556 37.9964 15.7869 38.2667 15.731C39.9071 15.3934 41.6064 15.2174 43.3448 15.2173C43.7959 15.2174 44.2443 15.2325 44.6896 15.2564C42.4518 12.3258 39.4721 10.0214 36.0363 8.5982C31.7655 6.82927 27.0297 6.51901 22.5646 7.71539C18.0997 8.91187 14.154 11.5483 11.34 15.2154C8.62742 18.7504 7.11192 23.0536 7.00598 27.4996C6.9994 27.7756 6.7762 27.9995 6.50012 27.9996H5.50012C5.22397 27.9996 4.999 27.7757 5.005 27.4996C5.11129 22.6132 6.77248 17.882 9.75305 13.9976C12.8351 9.98122 17.1568 7.09417 22.047 5.78375Z" fill="oklch(0.3523 0 0 / 1)" class="wd-expressive-fill"></path>
<path d="M28.0001 16.0005C30.7615 16.0006 33.0001 18.2391 33.0001 21.0005C32.9999 23.7618 30.7614 26.0005 28.0001 26.0005C25.2388 26.0005 23.0003 23.7618 23.0001 21.0005C23.0001 18.2391 25.2387 16.0005 28.0001 16.0005ZM28.0001 18.0005C26.3433 18.0005 25.0001 19.3437 25.0001 21.0005C25.0003 22.6572 26.3434 24.0005 28.0001 24.0005C29.6568 24.0005 30.9999 22.6572 31.0001 21.0005C31.0001 19.3437 29.657 18.0006 28.0001 18.0005Z" fill="oklch(0.3523 0 0 / 1)" class="wd-expressive-fill"></path>
</g>
</svg>