<svg role="presentation" width="56" height="56" viewBox="0 0 56 56" xmlns="http://www.w3.org/2000/svg" class="wd-expressive wd-expressive-lock-check">
<g>
<path d="M14 45.7998C14 46.4211 14.4721 46.9326 15.0771 46.9941L15.2002 47H46V48.7998C46 49.4625 45.4625 50 44.7998 50H11.2002L11.0771 49.9941C10.4721 49.9326 10 49.4211 10 48.7998V25.2002C10 24.5375 10.5375 24 11.2002 24H14V45.7998Z" fill="oklch(0.3057 0.079 256.22 / 0.13)" class="wd-expressive-accent"></path>
<path d="M28 4C35.1797 4 41 9.8203 41 17V24H36V17C36 12.5817 32.4183 9 28 9C23.5817 9 20 12.5817 20 17V24H15V17C15 9.8203 20.8203 4 28 4Z" fill="oklch(0.3057 0.079 256.22 / 0.13)" class="wd-expressive-accent"></path>
</g>
<g>
<path d="M34.9395 30.6465C35.1347 30.4513 35.4512 30.4513 35.6465 30.6465L36.3535 31.3535C36.5487 31.5488 36.5487 31.8653 36.3535 32.0605L26.707 41.707C26.3166 42.0974 25.6835 42.0973 25.293 41.707L20.6465 37.0605C20.4513 36.8653 20.4513 36.5487 20.6465 36.3535L21.3535 35.6465C21.5487 35.4513 21.8653 35.4513 22.0605 35.6465L26 39.5859L34.9395 30.6465Z" fill="oklch(0.3523 0 0 / 1)" class="wd-expressive-fill"></path>
<path d="M28 3C35.732 3 42 9.26801 42 17V23H44.7998C46.0148 23 47 23.9852 47 25.2002V48.7998C47 50.0148 46.0148 51 44.7998 51H11.2002C9.98517 51 9 50.0148 9 48.7998V25.2002C9 23.9852 9.98517 23 11.2002 23H14V17C14 9.26801 20.268 3 28 3ZM11.2002 25C11.0897 25 11 25.0897 11 25.2002V48.7998C11 48.9103 11.0897 49 11.2002 49H44.7998C44.9103 49 45 48.9103 45 48.7998V25.2002C45 25.0897 44.9103 25 44.7998 25H11.2002ZM28 5C21.3726 5 16 10.3726 16 17V23H19V17C19 12.0294 23.0294 8 28 8C32.9706 8 37 12.0294 37 17V23H40V17C40 10.3726 34.6274 5 28 5ZM28 10C24.134 10 21 13.134 21 17V23H35V17C35 13.134 31.866 10 28 10Z" fill="oklch(0.3523 0 0 / 1)" class="wd-expressive-fill"></path>
</g>
</svg>