<svg role="presentation" width="56" height="56" viewBox="0 0 56 56" xmlns="http://www.w3.org/2000/svg" class="wd-expressive wd-expressive-cloud-empty">
<path d="M8.21875 23.2158C7.4425 24.637 7 26.2667 7 28C7.00026 33.3499 11.202 37.7183 16.4854 37.9863L17 38H47L47.5146 37.9863C49.0552 37.9083 50.502 37.4783 51.7812 36.7803C50.1625 39.7473 47.0876 41.8053 43.5146 41.9863L43 42H13L12.4854 41.9863C7.202 41.7183 3.00026 37.3499 3 32C3 28.2093 5.10981 24.9117 8.21875 23.2158Z" fill="oklch(0.3057 0.079 256.22 / 0.13)" class="wd-expressive-accent"></path>
<g>
<path d="M10.8965 40.7549C11.5707 40.9161 12.2756 41.0017 13 41.002H16V43.002H13C12.1178 43.0017 11.257 42.8976 10.4316 42.7002L10.8965 40.7549Z" fill="oklch(0.3523 0 0 / 1)" class="wd-expressive-fill"></path>
<path d="M26 43.002H20V41.002H26V43.002Z" fill="oklch(0.3523 0 0 / 1)" class="wd-expressive-fill"></path>
<path d="M36 43.002H30V41.002H36V43.002Z" fill="oklch(0.3523 0 0 / 1)" class="wd-expressive-fill"></path>
<path d="M45.5684 42.7002C44.8462 42.8729 44.0971 42.9742 43.3301 42.9971L43 43.002H40V41.002H43L43.2705 40.998C43.9 40.9793 44.5135 40.896 45.1035 40.7549L45.5684 42.7002Z" fill="oklch(0.3523 0 0 / 1)" class="wd-expressive-fill"></path>
<path d="M5.32129 36.7061C6.06434 37.9164 7.08672 38.9363 8.2959 39.6777L7.25 41.3828C5.77331 40.4773 4.52546 39.2315 3.61719 37.752L4.46973 37.2295L5.32129 36.7061Z" fill="oklch(0.3523 0 0 / 1)" class="wd-expressive-fill"></path>
<path d="M51.5303 37.2295L52.3828 37.752C51.4746 39.2317 50.2269 40.4772 48.75 41.3828L47.7041 39.6777C48.9134 38.9362 49.9357 37.9166 50.6787 36.7061L51.5303 37.2295Z" fill="oklch(0.3523 0 0 / 1)" class="wd-expressive-fill"></path>
<path d="M4.64941 28.6396C4.23125 29.6771 4 30.8114 4 32.002L4.00391 32.2734C4.02248 32.9043 4.10578 33.5178 4.24609 34.1064L2.2998 34.5703C2.12796 33.8494 2.02747 33.1 2.00488 32.332L2 32.002C2 30.5508 2.28158 29.1627 2.79395 27.8916L4.64941 28.6396Z" fill="oklch(0.3523 0 0 / 1)" class="wd-expressive-fill"></path>
<path d="M53.6562 29.3076C53.8799 30.1705 54 31.0737 54 32.002L53.9951 32.332C53.9725 33.1 53.872 33.8494 53.7002 34.5703L52.7275 34.3379L51.7539 34.1064C51.8942 33.5178 51.9775 32.9044 51.9961 32.2734L52 32.002C52 31.246 51.9026 30.5113 51.7207 29.8096L53.6562 29.3076Z" fill="oklch(0.3523 0 0 / 1)" class="wd-expressive-fill"></path>
<path d="M48.2373 22.374C49.8217 23.2497 51.183 24.5038 52.1836 26.0137L50.5166 27.1191C49.6942 25.8782 48.5737 24.8443 47.2705 24.124L48.2373 22.374Z" fill="oklch(0.3523 0 0 / 1)" class="wd-expressive-fill"></path>
<path d="M11.0908 19.7715C10.981 20.5947 10.9746 21.4435 11.0859 22.3018C11.1485 22.7862 10.8522 23.2459 10.3848 23.3877C9.26978 23.7258 8.24527 24.2748 7.3584 24.9893L6.10352 23.4316C6.97685 22.7281 7.96201 22.1578 9.02637 21.7451C8.98141 20.9878 9.01075 20.2387 9.1084 19.5068L11.0908 19.7715Z" fill="oklch(0.3523 0 0 / 1)" class="wd-expressive-fill"></path>
<path d="M42.4131 19.4453C42.6514 19.9397 42.847 20.4615 42.9961 21.0059C43.6212 21.0073 44.2376 21.0628 44.8389 21.1689L44.4912 23.1377C43.7761 23.0115 43.0352 22.9729 42.2822 23.0322C41.7681 23.0725 41.3074 22.7141 41.2188 22.2061C41.1014 21.532 40.8942 20.8984 40.6123 20.3135L42.4131 19.4453Z" fill="oklch(0.3523 0 0 / 1)" class="wd-expressive-fill"></path>
<path d="M36.0439 14.3125C37.6802 14.7231 39.2012 15.5583 40.4258 16.7246L39.0459 18.1729C38.0728 17.246 36.8604 16.58 35.5576 16.2529L36.0439 14.3125Z" fill="oklch(0.3523 0 0 / 1)" class="wd-expressive-fill"></path>
<path d="M29.1172 12.166C29.8449 12.8353 30.4892 13.5947 31.0342 14.4248C31.5796 14.2583 32.1319 14.1443 32.6846 14.082L32.9082 16.0703C32.2602 16.1433 31.6131 16.3045 30.9834 16.5635C30.5157 16.7556 29.9776 16.568 29.7305 16.127C29.2095 15.1961 28.5436 14.3561 27.7637 13.6387L29.1172 12.166Z" fill="oklch(0.3523 0 0 / 1)" class="wd-expressive-fill"></path>
<path d="M15.4316 12.752C14.029 13.72 12.8777 15.0346 12.1016 16.5518L11.2119 16.0957L10.3213 15.6406C11.2478 13.8296 12.6199 12.2621 14.2959 11.1055L15.4316 12.752Z" fill="oklch(0.3523 0 0 / 1)" class="wd-expressive-fill"></path>
<path d="M21 9.00195C22.3108 9.00199 23.5747 9.21251 24.7578 9.60254L24.1318 11.502C23.1483 11.1777 22.0954 11.002 21 11.002C20.1324 11.002 19.2918 11.1174 18.4912 11.332L17.9736 9.40039C18.9403 9.14125 19.9546 9.00198 21 9.00195Z" fill="oklch(0.3523 0 0 / 1)" class="wd-expressive-fill"></path>
</g>
</svg>