<svg role="presentation" width="56" height="56" viewBox="0 0 56 56" xmlns="http://www.w3.org/2000/svg" class="wd-expressive wd-expressive-easel-bar-chart">
<g>
<path d="M51.9995 42H42.8794L45.5962 48.6211C45.8655 49.2789 45.3814 50 44.6704 50H42.5093C42.1038 49.9999 41.7385 49.7549 41.5845 49.3799L38.5571 42H17.4438L14.4165 49.3799C14.2625 49.7548 13.897 49.9998 13.4917 50H11.3286C10.6179 49.9997 10.1345 49.2788 10.4038 48.6211L13.1206 42H3.99951V39H51.9995V42Z" fill="oklch(0.3057 0.079 256.22 / 0.13)" class="wd-expressive-accent"></path>
<path d="M21.9995 33H15.9995V28H21.9995V33Z" fill="oklch(0.3057 0.079 256.22 / 0.13)" class="wd-expressive-accent"></path>
<path d="M29.9995 33H23.9995V24H29.9995V33Z" fill="oklch(0.3057 0.079 256.22 / 0.13)" class="wd-expressive-accent"></path>
<path d="M37.9995 33H31.9995V18H37.9995V33Z" fill="oklch(0.3057 0.079 256.22 / 0.13)" class="wd-expressive-accent"></path>
<path d="M40.9995 9H14.9995V6H40.9995V9Z" fill="oklch(0.3057 0.079 256.22 / 0.13)" class="wd-expressive-accent"></path>
</g>
<g>
<path d="M40 15C40.5523 15 41 15.4477 41 16V33C41 33.5523 40.5523 34 40 34H16C15.4477 34 15 33.5523 15 33V26C15 25.4477 15.4477 25 16 25H23V22C23 21.4477 23.4477 21 24 21H31V16C31 15.4477 31.4477 15 32 15H40ZM17 32H23V27H17V32ZM25 32H31V23H25V32ZM33 32H39V17H33V32Z" fill="oklch(0.3523 0 0 / 1)" class="wd-expressive-fill"></path>
<path d="M41 5C41.5522 5 41.9999 5.44778 42 6V7H50.5C51.3284 7 51.9999 7.67164 52 8.5V38L52.1025 38.0049C52.6066 38.0562 52.9999 38.4824 53 39V42C52.9997 42.552 52.5521 43 52 43H44.3711L46.5215 48.2412C47.0609 49.5569 46.0938 50.9996 44.6719 51H42.5098C41.6987 50.9998 40.9671 50.5092 40.6592 49.7588L37.8857 43H18.1143L15.3418 49.7588C15.0338 50.5092 14.3033 50.9998 13.4922 51H11.3291C9.90723 50.9995 8.94013 49.5569 9.47949 48.2412L11.6299 43H4C3.44793 43 3.00034 42.552 3 42V39C3.00007 38.4824 3.39341 38.0562 3.89746 38.0049L4 38V8.5C4.00008 7.67164 4.67162 7 5.5 7H14V6C14.0001 5.44778 14.4478 5 15 5H41ZM11.3291 49H13.4922L15.9541 43H13.791L11.3291 49ZM42.5098 49H44.6719L42.21 43H40.0479L42.5098 49ZM5 41H51V40H5V41ZM6 38H50V9H42L41.9951 9.10156C41.9439 9.60586 41.5178 10 41 10H15C14.4822 10 14.0561 9.60586 14.0049 9.10156L14 9H6V38ZM16 8H40V7H16V8Z" fill="oklch(0.3523 0 0 / 1)" class="wd-expressive-fill"></path>
</g>
</svg>