<svg role="presentation" width="56" height="56" viewBox="0 0 56 56" xmlns="http://www.w3.org/2000/svg" class="wd-expressive wd-expressive-radio-tower">
<path d="M26.3545 11.3545C26.1275 11.8565 26 12.4132 26 13C26 15.2091 27.7909 17 30 17C30.5868 17 31.1435 16.8725 31.6455 16.6455C31.1937 17.6448 30.3428 18.4223 29.2969 18.7812C29.3061 18.7781 29.316 18.7767 29.3252 18.7734L29.5889 19.5244L18.1797 52H15L26.6738 18.7734C25.1167 18.2262 24 16.7441 24 15C24 13.3776 24.9664 11.982 26.3545 11.3545Z" fill="oklch(0.3057 0.079 256.22 / 0.13)" class="wd-expressive-accent"></path>
<g>
<path d="M28 10.0001C30.7614 10.0001 33 12.2387 33 15.0001C33 16.8232 32.0241 18.4175 30.5664 19.2911L41.7783 51.1973C41.8699 51.4579 41.7321 51.7435 41.4717 51.835L40.5283 52.1661C40.2681 52.257 39.9832 52.1204 39.8916 51.8604L37.832 46.0001H18.168L16.1094 51.8595C16.0178 52.1198 15.7321 52.2564 15.4717 52.1651L14.5283 51.835C14.2681 51.7435 14.1314 51.4577 14.2227 51.1973L25.4316 19.2901C23.9753 18.4162 23 16.8222 23 15.0001C23 12.2388 25.2388 10.0003 28 10.0001ZM22.0312 35.0001L18.8701 44.0001H37.1289L33.9668 35.0001H22.0312ZM28.6787 19.9522C28.4568 19.9823 28.2302 20.0001 28 20.0001C27.7684 20.0001 27.5406 19.9827 27.3174 19.9522L22.7344 33.0001H33.2637L28.6787 19.9522ZM28 12.0001C26.3433 12.0003 25 13.3434 25 15.0001C25 16.6568 26.3433 17.9999 28 18.0001C29.6568 18.0001 31 16.6569 31 15.0001C31 13.3432 29.6569 12.0001 28 12.0001Z" fill="oklch(0.3523 0 0 / 1)" class="wd-expressive-fill"></path>
<path d="M14.1279 3.71102C14.3062 3.50009 14.6233 3.48288 14.8291 3.66707L15.5742 4.33406C15.7799 4.5182 15.7965 4.83346 15.6191 5.045C13.3598 7.73834 12.0002 11.2097 12 15.0001C12 18.7907 13.3598 22.2627 15.6191 24.9561C15.7964 25.1677 15.7799 25.483 15.5742 25.6671L14.8291 26.3341C14.6233 26.5183 14.3062 26.501 14.1279 26.2901C11.5533 23.2432 10 19.3015 10 15.0001C10.0002 10.6989 11.5534 6.75773 14.1279 3.71102Z" fill="oklch(0.3523 0 0 / 1)" class="wd-expressive-fill"></path>
<path d="M41.1719 3.66609C41.3776 3.482 41.6948 3.49915 41.873 3.71004C44.4478 6.75691 46.0009 10.6986 46.001 15.0001C46.0009 19.3013 44.4475 23.2423 41.873 26.2891C41.6948 26.5001 41.3776 26.5173 41.1719 26.3331L40.4268 25.6661C40.2212 25.4819 40.2044 25.1667 40.3818 24.9552C42.6411 22.2617 44.0009 18.7906 44.001 15.0001C44.0009 11.2096 42.6411 7.73842 40.3818 5.045C40.2044 4.83345 40.221 4.51725 40.4268 4.33309L41.1719 3.66609Z" fill="oklch(0.3523 0 0 / 1)" class="wd-expressive-fill"></path>
<path d="M18.9844 6.71199C19.1605 6.49931 19.4778 6.48288 19.6836 6.66707L20.4287 7.33406C20.6342 7.51821 20.651 7.83318 20.4766 8.04695C18.9285 9.94237 18 12.3619 18 15.0001C18.0001 17.6382 18.9284 20.0578 20.4766 21.9532C20.651 22.167 20.6341 22.4819 20.4287 22.6661L19.6836 23.3331C19.4778 23.5173 19.1605 23.5008 18.9844 23.2882C17.1212 21.0388 16.0001 18.149 16 15.0001C16 11.8511 17.1212 8.9614 18.9844 6.71199Z" fill="oklch(0.3523 0 0 / 1)" class="wd-expressive-fill"></path>
<path d="M36.3174 6.66707C36.5231 6.48295 36.8394 6.49954 37.0156 6.71199C38.8789 8.96142 40 11.851 40 15.0001C40 18.1492 38.8789 21.0387 37.0156 23.2882C36.8394 23.5006 36.5231 23.5172 36.3174 23.3331L35.5723 22.6661C35.3667 22.4819 35.3499 22.167 35.5244 21.9532C37.0726 20.0578 38 17.6382 38 15.0001C38 12.3619 37.0726 9.94237 35.5244 8.04695C35.3499 7.83315 35.3667 7.51822 35.5723 7.33406L36.3174 6.66707Z" fill="oklch(0.3523 0 0 / 1)" class="wd-expressive-fill"></path>
</g>
</svg>