<svg role="presentation" width="56" height="56" viewBox="0 0 56 56" xmlns="http://www.w3.org/2000/svg" class="wd-expressive wd-expressive-api">
<g>
<path d="M25.3213 30.0797C25.6486 29.9547 25.9999 30.1961 26 30.5465V41.8355C26 42.0428 25.8723 42.2293 25.6787 42.3033L16.1787 45.9313C16.0638 45.9751 15.9362 45.9751 15.8213 45.9313L6.32129 42.3033C6.12773 42.2293 6 42.0428 6 41.8355V30.5465C6.00006 30.1962 6.35141 29.9547 6.67871 30.0797L15.8213 33.5709C15.9362 33.6148 16.0638 33.6148 16.1787 33.5709L25.3213 30.0797Z" fill="oklch(0.3057 0.079 256.22 / 0.13)" class="wd-expressive-accent"></path>
<path d="M49.3213 30.0797C49.6486 29.9547 50 30.1961 50 30.5465V41.8355C50 42.0428 49.8723 42.2293 49.6787 42.3033L40.1787 45.9313C40.0638 45.9751 39.9362 45.9751 39.8213 45.9313L30.3213 42.3033C30.1277 42.2293 30 42.0428 30 41.8355V30.5465C30 30.1961 30.3514 29.9547 30.6787 30.0797L39.8213 33.5709C39.9362 33.6148 40.0638 33.6148 40.1787 33.5709L49.3213 30.0797Z" fill="oklch(0.3057 0.079 256.22 / 0.13)" class="wd-expressive-accent"></path>
<path d="M37.3213 10.0787C37.6486 9.95372 38 10.1961 38 10.5465V21.8355C38 22.0427 37.8722 22.2283 37.6787 22.3023L28.1787 25.9313C28.0638 25.9751 27.9362 25.9751 27.8213 25.9313L18.3213 22.3023C18.1278 22.2283 18 22.0427 18 21.8355V10.5465C18 10.1961 18.3514 9.95372 18.6787 10.0787L27.8213 13.5709C27.9362 13.6148 28.0638 13.6148 28.1787 13.5709L37.3213 10.0787Z" fill="oklch(0.3057 0.079 256.22 / 0.13)" class="wd-expressive-accent"></path>
</g>
<g>
<path d="M15.5957 25.0911C15.8601 25.0171 16.1399 25.0171 16.4043 25.0911L16.5352 25.1341L26.0352 28.764C26.6159 28.9859 26.9998 29.5427 27 30.1644V41.8363C26.9998 42.458 26.616 43.0158 26.0352 43.2376L16.5352 46.8656C16.1906 46.9971 15.8094 46.9971 15.4648 46.8656L5.96484 43.2376C5.38403 43.0158 5.0002 42.458 5 41.8363V30.1644C5.00016 29.5427 5.38412 28.9859 5.96484 28.764L15.4648 25.1341L15.5957 25.0911ZM7 41.4915L15 44.5462V34.3275L7 31.2718V41.4915ZM17 34.3275V44.5462L25 41.4915V31.2718L17 34.3275ZM8.80273 29.8197L16 32.5687L23.1963 29.8197L16 27.0697L8.80273 29.8197Z" fill="oklch(0.3523 0 0 / 1)" class="wd-expressive-fill"></path>
<path d="M39.5957 25.0911C39.8601 25.0171 40.1399 25.0171 40.4043 25.0911L40.5352 25.1341L50.0352 28.764C50.6159 28.9859 50.9998 29.5427 51 30.1644V41.8363C50.9998 42.458 50.616 43.0158 50.0352 43.2376L40.5352 46.8656C40.1906 46.9971 39.8094 46.9971 39.4648 46.8656L29.9648 43.2376C29.384 43.0158 29.0002 42.458 29 41.8363V30.1644C29.0002 29.5427 29.3841 28.9859 29.9648 28.764L39.4648 25.1341L39.5957 25.0911ZM31 41.4915L39 44.5462V34.3275L31 31.2718V41.4915ZM41 34.3275V44.5462L49 41.4915V31.2718L41 34.3275ZM32.8027 29.8197L40 32.5687L47.1963 29.8197L40 27.0697L32.8027 29.8197Z" fill="oklch(0.3523 0 0 / 1)" class="wd-expressive-fill"></path>
<path d="M27.5957 5.09114C27.8601 5.01715 28.1399 5.01715 28.4043 5.09114L28.5352 5.13411L38.0352 8.76399C38.6159 8.98593 38.9998 9.54271 39 10.1644V21.8363C38.9998 22.458 38.616 23.0158 38.0352 23.2376L28.5352 26.8656C28.1906 26.9971 27.8094 26.9971 27.4648 26.8656L17.9648 23.2376C17.384 23.0158 17.0002 22.458 17 21.8363V10.1644C17.0002 9.54271 17.3841 8.98593 17.9648 8.76399L27.4648 5.13411L27.5957 5.09114ZM19 21.4915L27 24.5462V14.3275L19 11.2718V21.4915ZM29 14.3275V24.5462L37 21.4915V11.2718L29 14.3275ZM20.8027 9.81965L28 12.5687L35.1963 9.81965L28 7.06965L20.8027 9.81965Z" fill="oklch(0.3523 0 0 / 1)" class="wd-expressive-fill"></path>
</g>
</svg>