<svg role="presentation" width="56" height="56" viewBox="0 0 56 56" xmlns="http://www.w3.org/2000/svg" class="wd-expressive wd-expressive-worksheets">
<g>
<path d="M26 38H16V30H26V38Z" fill="oklch(0.3057 0.079 256.22 / 0.13)" class="wd-expressive-accent"></path>
<path d="M48 19H6V12H48V19Z" fill="oklch(0.3057 0.079 256.22 / 0.13)" class="wd-expressive-accent"></path>
</g>
<path d="M48 9C49.6569 9 51 10.3431 51 12V44C51 45.6569 49.6569 47 48 47H8C6.34315 47 5 45.6569 5 44V12C5 10.3431 6.34315 9 8 9H48ZM7 44C7 44.5523 7.44772 45 8 45H16V38H7V44ZM18 45H27V38H18V45ZM40 45H48C48.5523 45 49 44.5523 49 44V38H40V45ZM29 45H38V38H29V45ZM7 36H16V29H7V36ZM18 36H27V29H18V36ZM40 36H49V29H40V36ZM29 36H38V29H29V36ZM7 27H16V20H7V27ZM18 27H27V20H18V27ZM40 27H49V20H40V27ZM29 27H38V20H29V27ZM8 11C7.44772 11 7 11.4477 7 12V18H49V12C49 11.4477 48.5523 11 48 11H8Z" fill="oklch(0.3523 0 0 / 1)" class="wd-expressive-fill"></path>
</svg>