<svg role="presentation" width="56" height="56" viewBox="0 0 56 56" xmlns="http://www.w3.org/2000/svg" class="wd-expressive wd-expressive-clipboard-pie-chart">
<g>
<path d="M45 50H11C11 46.5858 11.7079 43.2042 13.084 40.0498C13.6253 38.809 14.2674 37.6133 15 36.4717V44H41V21.1406C42.031 21.0453 43.0337 21 44 21H45V50Z" fill="oklch(0.3057 0.079 256.22 / 0.13)" class="wd-expressive-accent"></path>
<path d="M25 25L28.5352 28.5352C27.9537 29.1166 27.238 29.5465 26.4512 29.7852C25.6644 30.0237 24.8307 30.0647 24.0244 29.9043C23.218 29.7439 22.4637 29.3868 21.8281 28.8652C21.1925 28.3436 20.6955 27.6728 20.3809 26.9131C20.0663 26.1535 19.9438 25.328 20.0244 24.5098C20.105 23.6915 20.386 22.9053 20.8428 22.2217C21.2995 21.5383 21.9178 20.9783 22.6426 20.5908C23.3677 20.2032 24.1777 20 25 20V25Z" fill="oklch(0.3057 0.079 256.22 / 0.13)" class="wd-expressive-accent"></path>
<path d="M28 3C29.9339 3 31.6107 4.09857 32.4424 5.70508C32.5338 5.88125 32.7116 6 32.9102 6H36.5C36.7761 6 37 6.22386 37 6.5V12.5C36.9999 12.776 36.7761 13 36.5 13H19.5C19.2239 13 19.0001 12.776 19 12.5V6.5C19 6.22386 19.2239 6 19.5 6H23.0898C23.2884 6 23.4662 5.88125 23.5576 5.70508C24.3893 4.09857 26.0661 3 28 3Z" fill="oklch(0.3057 0.079 256.22 / 0.13)" class="wd-expressive-accent"></path>
</g>
<g>
<path d="M29.5 36C29.7761 36 30 36.2239 30 36.5V37.5C30 37.7761 29.7761 38 29.5 38H19.5C19.2239 38 19 37.7761 19 37.5V36.5C19 36.2239 19.2239 36 19.5 36H29.5Z" fill="oklch(0.3523 0 0 / 1)" class="wd-expressive-fill"></path>
<path d="M36.5 33C36.7761 33 37 33.2239 37 33.5V34.5C37 34.7761 36.7761 35 36.5 35H19.5C19.2239 35 19 34.7761 19 34.5V33.5C19 33.2239 19.2239 33 19.5 33H36.5Z" fill="oklch(0.3523 0 0 / 1)" class="wd-expressive-fill"></path>
<path d="M25 19C26.1865 19 27.3464 19.3517 28.333 20.0107C29.3197 20.67 30.0888 21.6077 30.543 22.7041C30.9971 23.8004 31.1163 25.007 30.8848 26.1709C30.6532 27.3347 30.0812 28.4032 29.2422 29.2422C28.5446 29.9398 27.6862 30.4548 26.7422 30.7412C25.798 31.0276 24.7968 31.0773 23.8291 30.8848C22.8615 30.6922 21.956 30.2636 21.1934 29.6377C20.4308 29.0118 19.8346 28.2074 19.457 27.2959C19.0795 26.3844 18.9326 25.394 19.0293 24.4121C19.126 23.4303 19.4628 22.4873 20.0107 21.667C20.5589 20.8466 21.3017 20.1731 22.1719 19.708C23.042 19.243 24.0134 19 25 19ZM24 21.1279C23.6934 21.2071 23.3957 21.3222 23.1143 21.4727C22.5343 21.7827 22.0392 22.2305 21.6738 22.7773C21.3084 23.3243 21.084 23.9538 21.0195 24.6084C20.9552 25.2628 21.0531 25.9228 21.3047 26.5303C21.5564 27.138 21.9544 27.6745 22.4629 28.0918C22.9713 28.509 23.5746 28.7945 24.2197 28.9229C24.8648 29.0512 25.5317 29.019 26.1611 28.8281C26.4664 28.7355 26.7575 28.6051 27.0303 28.4443L24.293 25.707C24.1054 25.5195 24 25.2652 24 25V21.1279ZM26 24.5859L28.4434 27.0293C28.6703 26.6443 28.8347 26.2233 28.9229 25.7803C29.0772 25.0045 28.9979 24.2005 28.6953 23.4697C28.3926 22.7389 27.8804 22.1133 27.2227 21.6738C26.847 21.4228 26.433 21.2406 26 21.1289V24.5859Z" fill="oklch(0.3523 0 0 / 1)" class="wd-expressive-fill"></path>
<path d="M36.5 22C36.7761 22 37 22.2239 37 22.5V23.5C37 23.7761 36.7761 24 36.5 24H33.5C33.2239 24 33 23.7761 33 23.5V22.5C33 22.2239 33.2239 22 33.5 22H36.5Z" fill="oklch(0.3523 0 0 / 1)" class="wd-expressive-fill"></path>
<path d="M36.5 19C36.7761 19 37 19.2239 37 19.5V20.5C37 20.7761 36.7761 21 36.5 21H33.5C33.2239 21 33 20.7761 33 20.5V19.5C33 19.2239 33.2239 19 33.5 19H36.5Z" fill="oklch(0.3523 0 0 / 1)" class="wd-expressive-fill"></path>
<path d="M28 2C30.2218 2 32.1561 3.20968 33.1924 5H36.5C37.1529 5 37.707 5.41766 37.9131 6H43C44.6568 6.00001 46 7.34315 46 9V48C46 49.6568 44.6568 50.9999 43 51H13C11.3431 51 10 49.6568 10 48V9C10 7.34322 11.3432 6.00011 13 6H18.0869C18.293 5.41766 18.8471 5 19.5 5H22.8076C23.8439 3.20968 25.7782 2 28 2ZM13 8C12.4478 8.00011 12 8.44778 12 9V48C12 48.5523 12.4477 49 13 49H43C43.5522 48.9999 44 48.5522 44 48V9C44 8.44772 43.5523 8.00001 43 8H38V10H41C41.2652 10 41.5195 10.1054 41.707 10.293C41.8946 10.4805 42 10.7348 42 11V44C42 44.5522 41.5522 44.9999 41 45H15C14.7348 45 14.4805 44.8946 14.293 44.707C14.1054 44.5195 14 44.2652 14 44V11C14 10.4478 14.4478 10.0001 15 10H18V8H13ZM16 43H40V12H38V12.5C38 13.3284 37.3284 14 36.5 14H19.5C18.6716 14 18 13.3284 18 12.5V12H16V43ZM28 4C26.4548 4 25.1131 4.8764 24.4463 6.16406C24.2004 6.63899 23.6985 7 23.0898 7H20V12H36V7H32.9102C32.3015 7 31.7996 6.63899 31.5537 6.16406C30.8869 4.8764 29.5452 4 28 4Z" fill="oklch(0.3523 0 0 / 1)" class="wd-expressive-fill"></path>
</g>
</svg>