<svg role="presentation" width="56" height="56" viewBox="0 0 56 56" xmlns="http://www.w3.org/2000/svg" class="wd-expressive wd-expressive-money-coin">
<g>
<path d="M50 41C50 42.6569 46.4183 44 42 44C40.6856 44 39.4456 43.8796 38.3516 43.6689C39.7873 44.4716 42.2291 45 45 45C49.4183 45 53 43.6569 53 42V46C53 46.9473 51.8287 47.791 50 48.3408V50C50 51.6569 46.4183 53 42 53C37.5817 53 34 51.6569 34 50V46C34 47.6569 37.5817 49 42 49C42.5127 49 43.0141 48.9809 43.5 48.9463C39.7987 48.683 37 47.4646 37 46V43.3408C35.1713 42.791 34 41.9473 34 41V37C34 38.6569 37.5817 40 42 40C46.4183 40 50 38.6569 50 37V41Z" fill="oklch(0.3057 0.079 256.22 / 0.13)" class="wd-expressive-accent"></path>
<path d="M5 30C8.86599 30 12 33.134 12 37V39H3V30H5Z" fill="oklch(0.3057 0.079 256.22 / 0.13)" class="wd-expressive-accent"></path>
<path d="M26 18C29.8659 18.0001 33 21.1341 33 25C33 27.4943 31.6937 29.6815 29.7295 30.9209C29.5736 31.0188 29.3973 30.849 29.4678 30.6787C29.8195 29.8295 30 28.9191 30 28C30 27.0809 29.8195 26.1705 29.4678 25.3213C29.1161 24.4722 28.6 23.7007 27.9502 23.0508C27.3002 22.4008 26.5279 21.885 25.6787 21.5332C24.8295 21.1815 23.9191 21 23 21C22.0809 21 21.1705 21.1815 20.3213 21.5332C20.1509 21.6038 19.9797 21.4245 20.0781 21.2686C21.3178 19.3049 23.5061 18.0001 26 18Z" fill="oklch(0.3057 0.079 256.22 / 0.13)" class="wd-expressive-accent"></path>
<path d="M12 13C12 16.866 8.86599 20 5 20H3V11H12V13Z" fill="oklch(0.3057 0.079 256.22 / 0.13)" class="wd-expressive-accent"></path>
<path d="M49 20H47C43.134 20 40 16.866 40 13V11H49V20Z" fill="oklch(0.3057 0.079 256.22 / 0.13)" class="wd-expressive-accent"></path>
</g>
<g>
<path d="M42.0005 33C44.2976 33 46.4221 33.3476 48.0083 33.9424C48.7977 34.2384 49.5068 34.6151 50.0356 35.084C50.5632 35.5518 51.0004 36.1974 51.0005 37V38.9395C51.003 38.9404 51.0058 38.9414 51.0083 38.9424C51.7977 39.2384 52.5068 39.6151 53.0356 40.084C53.5632 40.5518 54.0004 41.1974 54.0005 42V46C54.0005 46.8026 53.5632 47.4481 53.0356 47.916C52.5068 48.3849 51.7976 48.7616 51.0083 49.0576C51.0059 49.0585 51.0029 49.0588 51.0005 49.0596V50C51.0005 50.8026 50.5632 51.4481 50.0356 51.916C49.5068 52.3849 48.7976 52.7616 48.0083 53.0576C46.4221 53.6524 44.2976 54 42.0005 54C39.7034 54 37.5789 53.6524 35.9927 53.0576C35.2033 52.7616 34.4943 52.3849 33.9653 51.916C33.4377 51.4481 33.0005 50.8028 33.0005 50V46C33.0006 45.1973 33.4377 44.5518 33.9653 44.084C34.2065 43.8702 34.486 43.6765 34.7925 43.5C34.4859 43.3235 34.2065 43.1298 33.9653 42.916C33.4377 42.4481 33.0005 41.8028 33.0005 41V37C33.0006 36.1973 33.4377 35.5519 33.9653 35.084C34.4942 34.6152 35.2034 34.2384 35.9927 33.9424C37.5789 33.3476 39.7034 33 42.0005 33ZM35.0005 50C35.0005 50.0255 35.0106 50.17 35.2925 50.4199C35.5732 50.6687 36.0368 50.9378 36.6948 51.1846C37.794 51.5967 39.2928 51.8887 41.0005 51.9727V49.9766C39.0909 49.8913 37.3459 49.565 35.9927 49.0576C35.6431 48.9265 35.3099 48.778 35.0005 48.6143V50ZM43.0005 49.9766V51.9727C43.7074 51.9379 44.3788 51.869 45.0005 51.7686V50C44.4887 50 43.9852 49.9816 43.4946 49.9482C43.3314 49.9593 43.1664 49.9692 43.0005 49.9766ZM49.0005 49.6201C48.3718 49.7477 47.7007 49.8449 47.0005 49.9092V51.291C47.1052 51.2561 47.2077 51.2215 47.3062 51.1846C47.964 50.9378 48.4278 50.6687 48.7085 50.4199C48.99 50.1702 49.0005 50.0255 49.0005 50V49.6201ZM48.0005 45.791C47.0596 45.926 46.0479 46 45.0005 46V48C46.0778 48 47.0919 47.9153 48.0005 47.7686V45.791ZM38.0005 46C38.0005 46.0255 38.0106 46.17 38.2925 46.4199C38.5732 46.6687 39.0368 46.9378 39.6948 47.1846C40.5736 47.5141 41.7083 47.7648 43.0005 47.8965V45.9092C41.4839 45.77 40.1057 45.475 38.9927 45.0576C38.6499 44.9291 38.3233 44.783 38.019 44.623C38.013 44.6218 38.0065 44.6213 38.0005 44.6201V46ZM52.0005 44.6143C51.6912 44.778 51.3578 44.9265 51.0083 45.0576C50.6929 45.1759 50.3555 45.2829 50.0005 45.3809V47.291C50.1052 47.2561 50.2077 47.2215 50.3062 47.1846C50.964 46.9378 51.4278 46.6687 51.7085 46.4199C51.99 46.1702 52.0005 46.0255 52.0005 46V44.6143ZM36.0005 45.1182C35.6968 45.2732 35.4614 45.4304 35.2925 45.5801C35.0115 45.8292 35.0006 45.9738 35.0005 46C35.0005 46.0255 35.0106 46.17 35.2925 46.4199C35.5034 46.6068 35.8175 46.8053 36.2397 46.9971C36.0911 46.6987 36.0005 46.3656 36.0005 46V45.1182ZM50.9966 41.1162C50.9568 41.8651 50.5375 42.4709 50.0356 42.916C49.7775 43.1449 49.4754 43.3509 49.1431 43.5371C49.5667 43.4329 49.957 43.3155 50.3062 43.1846C50.964 42.9378 51.4278 42.6687 51.7085 42.4199C51.99 42.1702 52.0005 42.0255 52.0005 42C52.0004 41.9738 51.9894 41.8292 51.7085 41.5801C51.5389 41.4297 51.3023 41.272 50.9966 41.1162ZM45.0005 40.791C44.0596 40.926 43.0479 41 42.0005 41C41.3153 41 40.6452 40.9684 40.0005 40.9092V42.8965C40.6331 42.961 41.3035 43 42.0005 43C43.0778 43 44.0919 42.9153 45.0005 42.7686V40.791ZM35.0005 41C35.0005 41.0255 35.0106 41.17 35.2925 41.4199C35.5732 41.6687 36.0368 41.9378 36.6948 42.1846C37.0827 42.33 37.5215 42.4572 38.0005 42.5693V40.6201C37.2677 40.4714 36.5917 40.2822 35.9927 40.0576C35.6431 39.9265 35.3099 39.778 35.0005 39.6143V41ZM49.0005 39.6143C48.6912 39.778 48.3578 39.9265 48.0083 40.0576C47.6929 40.1759 47.3555 40.2829 47.0005 40.3809V42.291C47.1052 42.2561 47.2077 42.2215 47.3062 42.1846C47.964 41.9378 48.4278 41.6687 48.7085 41.4199C48.99 41.1702 49.0005 41.0255 49.0005 41V39.6143ZM42.0005 35C39.8797 35 38.0039 35.3246 36.6948 35.8154C36.037 36.0621 35.5732 36.3313 35.2925 36.5801C35.0115 36.8292 35.0006 36.9738 35.0005 37C35.0005 37.0255 35.0106 37.17 35.2925 37.4199C35.5732 37.6687 36.0368 37.9378 36.6948 38.1846C38.0039 38.6754 39.8796 39 42.0005 39C44.1213 39 45.9971 38.6755 47.3062 38.1846C47.964 37.9378 48.4278 37.6687 48.7085 37.4199C48.99 37.1702 49.0005 37.0255 49.0005 37C49.0004 36.9738 48.9894 36.8292 48.7085 36.5801C48.4278 36.3313 47.9641 36.0622 47.3062 35.8154C45.9971 35.3245 44.1213 35 42.0005 35Z" fill="oklch(0.3523 0 0 / 1)" class="wd-expressive-fill"></path>
<path d="M48.5005 10C49.3286 10.0002 50.0003 10.6719 50.0005 11.5V29.501C50.0003 29.7769 49.7764 30.0008 49.5005 30.001H48.5005C48.2244 30.001 48.0006 29.777 48.0005 29.501V21H47.0005C42.5822 21 39.0005 17.4183 39.0005 13V12H13.0005V13C13.0005 17.4182 9.41861 20.9998 5.00049 21H4.00049V29H5.00049C9.41849 29.0002 13.0003 32.582 13.0005 37V38H29.4995C29.7756 38 29.9995 38.2239 29.9995 38.5V39.5C29.9995 39.7761 29.7757 40 29.4995 40H3.50049C2.67206 40 2.00049 39.3284 2.00049 38.5V11.5C2.00069 10.6717 2.67218 10 3.50049 10H48.5005ZM4.00049 38H11.0005V37C11.0003 33.6866 8.31392 31.0002 5.00049 31H4.00049V38ZM4.00049 19H5.00049C8.31404 18.9998 11.0005 16.3136 11.0005 13V12H4.00049V19ZM41.0005 13C41.0005 16.3137 43.6868 19 47.0005 19H48.0005V12H41.0005V13Z" fill="oklch(0.3523 0 0 / 1)" class="wd-expressive-fill"></path>
<path d="M25.9995 17C27.0498 17 28.0906 17.2075 29.061 17.6094C30.0313 18.0113 30.914 18.6002 31.6567 19.3428C32.3994 20.0854 32.9881 20.9682 33.3901 21.9385C33.7921 22.9089 33.9994 23.9496 33.9995 25L33.9897 25.3936C33.9446 26.3096 33.7418 27.2124 33.3901 28.0615C32.9881 29.032 32.3995 29.9144 31.6567 30.6572C30.9139 31.4 30.0315 31.9886 29.061 32.3906C28.0905 32.7926 27.05 33 25.9995 33C24.9492 32.9999 23.9084 32.7926 22.938 32.3906C21.9677 31.9886 21.0849 31.3999 20.3423 30.6572C19.5997 29.9145 19.0108 29.0318 18.6089 28.0615C18.207 27.0911 17.9995 26.0503 17.9995 25C17.9996 23.9496 18.2069 22.9089 18.6089 21.9385C19.0109 20.9681 19.5996 20.0855 20.3423 19.3428C21.085 18.6001 21.9676 18.0114 22.938 17.6094C23.9084 17.2074 24.9492 17.0001 25.9995 17ZM25.9995 19C25.2118 19.0001 24.4314 19.1556 23.7036 19.457C22.9758 19.7585 22.3144 20.2008 21.7573 20.7578C21.2003 21.3149 20.758 21.9763 20.4565 22.7041C20.1551 23.4319 19.9996 24.2123 19.9995 25C19.9995 25.7877 20.1552 26.5681 20.4565 27.2959C20.758 28.0236 21.2004 28.6852 21.7573 29.2422C22.3143 29.7992 22.9759 30.2414 23.7036 30.543C24.4314 30.8444 25.2118 30.9999 25.9995 31C26.7873 31 27.5676 30.8444 28.2954 30.543C29.0233 30.2415 29.6846 29.7993 30.2417 29.2422C30.7988 28.685 31.241 28.0238 31.5425 27.2959C31.8439 26.568 31.9995 25.7878 31.9995 25L31.9927 24.7051C31.9588 24.0181 31.8063 23.3409 31.5425 22.7041C31.241 21.9764 30.7987 21.3148 30.2417 20.7578C29.6847 20.2009 29.0231 19.7585 28.2954 19.457C27.5677 19.1557 26.7872 19 25.9995 19Z" fill="oklch(0.3523 0 0 / 1)" class="wd-expressive-fill"></path>
</g>
</svg>