<svg role="presentation" width="56" height="56" viewBox="0 0 56 56" xmlns="http://www.w3.org/2000/svg" class="wd-expressive wd-expressive-document-ribbon">
<g>
<path d="M14 49.5C14 49.7761 14.2239 50 14.5 50H45V52.5C45 52.7761 44.7761 53 44.5 53H11.5C11.2239 53 11 52.7761 11 52.5V3.5C11 3.22386 11.2239 3 11.5 3H14V49.5Z" fill="oklch(0.3057 0.079 256.22 / 0.13)" class="wd-expressive-accent"></path>
<path d="M33.6465 40.7188C33.8416 40.9134 34.1583 40.9133 34.3535 40.7188L36.0713 39.001H37.7402L38.8447 46.4551C38.906 46.8724 38.4546 47.1741 38.0928 46.957L34.2568 44.6553C34.0985 44.5603 33.9005 44.5603 33.7422 44.6553L29.9062 46.957C29.5445 47.1733 29.0931 46.8721 29.1543 46.4551L30.2588 39.001H31.9287L33.6465 40.7188Z" fill="oklch(0.3057 0.079 256.22 / 0.13)" class="wd-expressive-accent"></path>
<path d="M34 32.001C35.1046 32.001 36 32.8964 36 34.001C35.9997 35.1053 35.1044 36.001 34 36.001C32.8956 36.001 32.0003 35.1053 32 34.001C32 32.8964 32.8954 32.001 34 32.001Z" fill="oklch(0.3057 0.079 256.22 / 0.13)" class="wd-expressive-accent"></path>
</g>
<g>
<path d="M34 31C35.6565 31.0003 36.9998 32.3435 37 34C37 35.6567 35.6566 36.9997 34 37C32.3433 36.9998 31 35.6567 31 34C31.0002 32.3435 32.3434 31.0002 34 31ZM34 33C33.448 33.0002 33.0002 33.448 33 34C33 34.5521 33.4479 34.9998 34 35C34.552 34.9997 35 34.5521 35 34C34.9998 33.448 34.5519 33.0003 34 33Z" fill="oklch(0.3523 0 0 / 1)" class="wd-expressive-fill"></path>
<path d="M32.9404 26.5752C33.4894 26.0271 34.3581 25.9919 34.9473 26.4727L35.0605 26.5752L36.4854 28H38.501C39.328 28.001 39.9998 28.6718 40 29.5V31.5146L41.4258 32.9404C42.0091 33.5256 42.0107 34.4748 41.4258 35.0605L40 36.4854V38.501C39.9994 39.1932 39.5285 39.7731 38.8906 39.9453L39.834 46.3076C40.0192 47.5601 38.665 48.4643 37.5791 47.8135L34 45.665L30.4209 47.8135C29.3349 48.4646 27.9806 47.5603 28.166 46.3076L29.1074 39.9453C28.4697 39.7727 28.0006 39.1925 28 38.501V36.4854L26.5752 35.0605C25.9895 34.4745 25.9905 33.5258 26.5752 32.9404L28 31.5146V29.5C28.0002 28.6718 28.6718 28.0002 29.5 28H31.5146L32.9404 26.5752ZM30.2988 45.5537L33.2285 43.7969L33.4111 43.7031C33.7867 43.5429 34.2133 43.5429 34.5889 43.7031L34.7715 43.7969L37.7002 45.5537L36.8779 40H36.4854L35.0605 41.4248C34.4748 42.0099 33.5257 42.0092 32.9404 41.4258L31.5146 40H31.1211L30.2988 45.5537ZM32.6357 29.707C32.4484 29.8944 32.1936 29.9998 31.9287 30H30V31.9287C29.9999 32.1937 29.8943 32.4483 29.707 32.6357L28.3428 34L29.707 35.3643C29.8941 35.5517 29.9999 35.8065 30 36.0713V38H31.9287C32.1935 38.0002 32.4484 38.1058 32.6357 38.293L34 39.6572L35.3643 38.293C35.5517 38.1056 35.8063 38.0001 36.0713 38H38V36.0713C38.0001 35.8062 38.1055 35.5517 38.293 35.3643L39.6572 34L38.293 32.6357C38.1057 32.4483 38.0001 32.1936 38 31.9287V30H36.0713C35.8065 29.9999 35.5517 29.8941 35.3643 29.707L34 28.3428L32.6357 29.707Z" fill="oklch(0.3523 0 0 / 1)" class="wd-expressive-fill"></path>
<path d="M24.5 44C24.7761 44 25 44.2239 25 44.5V45.5C25 45.7761 24.7761 46 24.5 46H17.5C17.2239 46 17 45.7761 17 45.5V44.5C17 44.2239 17.2239 44 17.5 44H24.5Z" fill="oklch(0.3523 0 0 / 1)" class="wd-expressive-fill"></path>
<path d="M24.5 39C24.7761 39 25 39.2239 25 39.5V40.5C25 40.7761 24.7761 41 24.5 41H17.5C17.2239 41 17 40.7761 17 40.5V39.5C17 39.2239 17.2239 39 17.5 39H24.5Z" fill="oklch(0.3523 0 0 / 1)" class="wd-expressive-fill"></path>
<path d="M30.5 20C30.7761 20 31 20.2239 31 20.5V21.5C31 21.7761 30.7761 22 30.5 22H17.5C17.2239 22 17 21.7761 17 21.5V20.5C17 20.2239 17.2239 20 17.5 20H30.5Z" fill="oklch(0.3523 0 0 / 1)" class="wd-expressive-fill"></path>
<path d="M38.5 15C38.7761 15 39 15.2239 39 15.5V16.5C39 16.7761 38.7761 17 38.5 17H17.5C17.2239 17 17 16.7761 17 16.5V15.5C17 15.2239 17.2239 15 17.5 15H38.5Z" fill="oklch(0.3523 0 0 / 1)" class="wd-expressive-fill"></path>
<path d="M38.5 10C38.7761 10 39 10.2239 39 10.5V11.5C39 11.7761 38.7761 12 38.5 12H17.5C17.2239 12 17 11.7761 17 11.5V10.5C17 10.2239 17.2239 10 17.5 10H38.5Z" fill="oklch(0.3523 0 0 / 1)" class="wd-expressive-fill"></path>
<path d="M43 2C44.6569 2 46 3.34315 46 5V51C46 52.6569 44.6569 54 43 54H13C11.3431 54 10 52.6569 10 51V5C10 3.34315 11.3431 2 13 2H43ZM13 4C12.4477 4 12 4.44772 12 5V51C12 51.5523 12.4477 52 13 52H43C43.5523 52 44 51.5523 44 51V5C44 4.44772 43.5523 4 43 4H13Z" fill="oklch(0.3523 0 0 / 1)" class="wd-expressive-fill"></path>
</g>
</svg>