<svg role="presentation" width="56" height="56" viewBox="0 0 56 56" xmlns="http://www.w3.org/2000/svg" class="wd-expressive wd-expressive-folder-media">
<g>
<path d="M19.8975 10C21.5288 10.0002 23.0586 10.7964 23.9941 12.1328L25.8516 14.7871C25.9451 14.9204 26.0979 14.9999 26.2607 15H46.501C46.7768 15.0003 47.001 15.2241 47.001 15.5V21H9.50098C9.22483 21 9.00098 21.2239 9.00098 21.5V40C9.00098 41.9032 8.40953 43.6692 7.40137 45.123C7.1556 45.4782 7.39608 46 7.82812 46H5.50098C5.22483 46 5.00098 45.7761 5.00098 45.5V10.5C5.00098 10.2239 5.22483 10 5.50098 10H19.8975Z" fill="oklch(0.3057 0.079 256.22 / 0.13)" class="wd-expressive-accent"></path>
<path d="M24 27.8896C24 27.4996 24.4276 27.2601 24.7607 27.4629L34.7988 33.5732C35.1185 33.7681 35.1185 34.2319 34.7988 34.4268L24.7607 40.5371C24.4276 40.7399 24 40.5004 24 40.1104V27.8896Z" fill="oklch(0.3057 0.079 256.22 / 0.13)" class="wd-expressive-accent"></path>
</g>
<g>
<path d="M23 27.8896C23 26.7925 24.1255 26.0915 25.0898 26.5098L25.2803 26.6084L35.3184 32.7188C36.2784 33.3032 36.2784 34.6968 35.3184 35.2812L25.2803 41.3916C24.2807 42 23 41.2805 23 40.1104V27.8896ZM25 39.2207L33.5771 34L25 28.7783V39.2207Z" fill="oklch(0.3523 0 0 / 1)" class="wd-expressive-fill"></path>
<path d="M19.8965 9C21.8543 9 23.6897 9.9556 24.8125 11.5596L26.2217 13.5732C26.4087 13.8405 26.7148 13.9999 27.041 14H45C46.6568 14 47.9999 15.3432 48 17V20H49C50.6567 20.0002 52 21.3433 52 23V40C52 42.203 51.2864 44.2424 50.0781 45.8955C49.5234 46.6543 48.6462 46.9999 47.8145 47H7C5.34315 47 4 45.6569 4 44V12C4.00006 10.3432 5.34318 9 7 9H19.8965ZM11 22C10.4479 22.0002 10 22.4478 10 23V40C10 41.8213 9.51044 43.5288 8.65918 45H47.8145C48.1197 44.9999 48.3462 44.875 48.4629 44.7158C49.3689 43.4763 49.927 41.9669 49.9932 40.3291L50 40V23C50 22.4478 49.5521 22.0002 49 22H11ZM7 11C6.44775 11 6.00006 11.4478 6 12V44C6 44.327 6.1577 44.6164 6.40039 44.7988C7.33357 43.5567 7.9136 42.0358 7.99121 40.3818L8 40V23C8 21.3432 9.34329 20.0002 11 20H46V17C45.9999 16.4478 45.5522 16 45 16H27.041C26.0623 15.9999 25.1453 15.5224 24.584 14.7207L23.1738 12.7061C22.4253 11.637 21.2017 11 19.8965 11H7Z" fill="oklch(0.3523 0 0 / 1)" class="wd-expressive-fill"></path>
</g>
</svg>