<svg role="presentation" width="56" height="56" viewBox="0 0 56 56" xmlns="http://www.w3.org/2000/svg" class="wd-expressive wd-expressive-tag">
<g>
<path d="M46.0008 29.1729C46.0007 29.7031 45.7897 30.2119 45.4148 30.5869L23.9148 52.0869C23.1339 52.8678 21.8678 52.8676 21.0867 52.0869L3.91483 34.915C3.13386 34.134 3.13386 32.8679 3.91483 32.0869L4.4998 31.501L21.0857 48.0869C21.8668 48.8679 23.1338 48.8679 23.9148 48.0869L45.4148 26.5869C45.7898 26.2119 46.0007 25.7031 46.0008 25.1729V29.1729Z" fill="oklch(0.3057 0.079 256.22 / 0.13)" class="wd-expressive-accent"></path>
<path d="M34.5008 18.001C36.4336 18.0012 38.0008 19.5681 38.0008 21.501C38.0008 23.4338 36.4336 25.0007 34.5008 25.001C32.5678 25.001 31.0008 23.434 31.0008 21.501C31.0008 19.568 32.5678 18.001 34.5008 18.001Z" fill="oklch(0.3057 0.079 256.22 / 0.13)" class="wd-expressive-accent"></path>
</g>
<g>
<path d="M12.8542 31.1483C13.0495 30.9532 13.366 30.9531 13.5612 31.1483L24.8542 42.4412C25.0491 42.6365 25.0492 42.9531 24.8542 43.1483L24.1472 43.8553C23.952 44.0505 23.6354 44.0502 23.4401 43.8553L12.1472 32.5623C11.9519 32.3671 11.9519 32.0506 12.1472 31.8553L12.8542 31.1483Z" fill="oklch(0.3523 0 0 / 1)" class="wd-expressive-fill"></path>
<path d="M15.8542 28.1483C16.0495 27.9532 16.366 27.9531 16.5612 28.1483L27.8542 39.4412C28.0491 39.6365 28.0492 39.9531 27.8542 40.1483L27.1472 40.8553C26.952 41.0505 26.6354 41.0502 26.4401 40.8553L15.1472 29.5623C14.9519 29.3671 14.9519 29.0506 15.1472 28.8553L15.8542 28.1483Z" fill="oklch(0.3523 0 0 / 1)" class="wd-expressive-fill"></path>
<path d="M18.8542 25.1483C19.0495 24.9532 19.366 24.9531 19.5612 25.1483L30.8542 36.4412C31.0491 36.6365 31.0492 36.9531 30.8542 37.1483L30.1472 37.8553C29.952 38.0505 29.6354 38.0502 29.4401 37.8553L18.1472 26.5623C17.9519 26.3671 17.9519 26.0506 18.1472 25.8553L18.8542 25.1483Z" fill="oklch(0.3523 0 0 / 1)" class="wd-expressive-fill"></path>
<path d="M45.5895 8.01448C47.8607 7.90866 50.0769 8.41993 51.7194 9.71663C53.6097 11.2092 54.2916 13.3892 53.8884 15.618C53.4914 17.8112 52.0623 20.0147 49.82 21.785C48.9404 22.4794 47.9879 23.0631 47.0007 23.5369V29.1727L46.986 29.4696C46.9177 30.1562 46.6138 30.8017 46.1218 31.2938L24.6218 52.7938C23.4868 53.9286 21.6694 53.9636 20.4919 52.9002L20.3796 52.7938L3.2077 35.6219C2.03624 34.4503 2.03623 32.5513 3.2077 31.3797L24.7077 9.87972C25.2701 9.31732 26.033 9.00085 26.8288 9.00081H37.1716C37.9495 9.00083 38.6956 9.30482 39.2546 9.84456C41.2713 8.73777 43.4906 8.11239 45.5895 8.01448ZM26.8288 11.0008C26.5639 11.0008 26.3094 11.1061 26.1218 11.2938L4.62176 32.7938C4.23131 33.1843 4.23131 33.8173 4.62176 34.2078L21.7936 51.3797L21.8698 51.4481C22.2627 51.7683 22.8418 51.7456 23.2077 51.3797L44.7077 29.8797C44.8718 29.7156 44.973 29.5001 44.9958 29.2713L45.0007 29.1727V24.3299C44.0915 24.618 43.1731 24.8168 42.2692 24.9188C40.7224 25.0932 39.1786 24.9902 37.7917 24.5672C37.0193 25.3958 35.939 25.9337 34.7321 25.9949L34.5007 26.0008C32.0154 26.0008 30.0007 23.9861 30.0007 21.5008C30.0007 19.0155 32.0154 17.0008 34.5007 17.0008C36.9857 17.001 39.0007 19.0156 39.0007 21.5008C39.0007 21.9436 38.9353 22.371 38.8161 22.7752C39.7832 23.0046 40.8796 23.063 42.0456 22.9315C43.0197 22.8216 44.0199 22.5813 45.0007 22.2176V18.8289C45.0006 18.564 44.8952 18.3094 44.7077 18.1219L37.8796 11.2938C37.6922 11.1064 37.437 11.0008 37.1716 11.0008H26.8288ZM33.0593 19.4598C32.4193 19.9125 32.0007 20.6573 32.0007 21.5008C32.0007 22.8815 33.12 24.0008 34.5007 24.0008L34.7565 23.9881C35.1307 23.95 35.479 23.827 35.7858 23.6424C35.6133 23.5297 35.4438 23.4128 35.2819 23.285C33.9924 22.267 33.2615 20.9239 33.0593 19.4598ZM35.0251 19.0575C35.134 20.0888 35.6236 21.0071 36.5212 21.7157C36.6553 21.8215 36.7979 21.9192 36.946 22.0125C36.9804 21.8472 37.0007 21.6763 37.0007 21.5008C37.0007 20.3002 36.1538 19.2987 35.0251 19.0575ZM45.6823 10.0125C44.0749 10.0875 42.353 10.5314 40.7399 11.326L46.1218 16.7078C46.6842 17.2703 47.0005 18.0334 47.0007 18.8289V21.2801C47.548 20.9661 48.0786 20.6121 48.5807 20.2157C50.535 18.6728 51.6297 16.869 51.9206 15.2625C52.2049 13.6916 51.7371 12.2785 50.4802 11.286C49.3227 10.3723 47.6286 9.92179 45.6823 10.0125Z" fill="oklch(0.3523 0 0 / 1)" class="wd-expressive-fill"></path>
</g>
</svg>