<svg role="presentation" width="56" height="56" viewBox="0 0 56 56" xmlns="http://www.w3.org/2000/svg" class="wd-expressive wd-expressive-pie-chart-star">
<g>
<path d="M25.0004 28C25.0004 28.7955 25.3169 29.5585 25.8793 30.1211L42.7133 46.9551C40.4035 48.7484 37.7807 50.1131 34.9662 50.9668C31.1896 52.1123 27.1885 52.309 23.3178 51.5391C19.4471 50.7691 15.8256 49.0563 12.7748 46.5527C10.7535 44.8938 9.02529 42.9195 7.64887 40.7168C7.32099 40.0941 7.02097 39.4549 6.75043 38.8018C5.30309 35.3074 4.74006 31.5091 5.11078 27.7451C5.4816 23.9812 6.77516 20.3664 8.87641 17.2217C10.9777 14.077 13.8221 11.4988 17.1577 9.71582C19.606 8.40716 22.2642 7.55921 25.0004 7.19922V28Z" fill="oklch(0.3057 0.079 256.22 / 0.13)" class="wd-expressive-accent"></path>
<path d="M51.812 31C51.5448 33.1208 50.9947 35.2014 50.1733 37.1846C48.9672 40.0962 47.1995 42.7422 44.9711 44.9707L31.0004 31H51.812Z" fill="oklch(0.3057 0.079 256.22 / 0.13)" class="wd-expressive-accent"></path>
<path d="M44.8998 10.4131L50.4965 11.2285L48.2797 13.3906L49.1196 18.2832C49.1892 18.6913 48.7606 19.0021 48.394 18.8096L44.0004 16.5L39.6069 18.8096C39.2402 19.0023 38.8116 18.6914 38.8813 18.2832L39.7211 13.3906L36.1664 9.92578C35.8699 9.63649 36.0337 9.13282 36.4438 9.07324L41.3549 8.35938L42.6245 5.78613L44.8998 10.4131Z" fill="oklch(0.3057 0.079 256.22 / 0.13)" class="wd-expressive-accent"></path>
</g>
<g>
<path d="M20.5385 4.14067C25.7267 2.51818 31.2978 2.63275 36.4086 4.45805C36.6686 4.55091 36.7985 4.83963 36.7006 5.0977L36.5229 5.56547L36.3461 6.03227C36.248 6.29032 35.9588 6.41961 35.6986 6.32719C33.5301 5.55699 31.2721 5.12118 29.0004 5.0225V27H50.9779C50.9153 25.5624 50.7184 24.1266 50.3842 22.712C50.3207 22.4433 50.4813 22.17 50.7484 22.1006L51.7152 21.8497C51.9825 21.7803 52.2567 21.9414 52.3207 22.21C52.6968 23.7898 52.9156 25.394 52.9799 27H53.0004V29H52.9799C52.8563 32.0893 52.1607 35.1505 50.9047 38.0215C48.6589 43.1544 44.7533 47.3843 39.8158 50.0323C34.8782 52.6802 29.1935 53.5933 23.6752 52.6241C18.1568 51.6546 13.1229 48.8588 9.38321 44.6866C5.6439 40.5144 3.41408 35.2062 3.05215 29.6153C2.69041 24.0241 4.21847 18.473 7.38907 13.8536C10.5599 9.23407 15.1909 5.81318 20.5385 4.14067ZM27.0004 5.02348C25.0221 5.1097 23.0501 5.45096 21.1352 6.04985C16.2155 7.58857 11.9546 10.7355 9.0375 14.9854C6.12069 19.2352 4.71545 24.3426 5.04825 29.4864C5.38129 34.6301 7.43315 39.5132 10.8734 43.3516C14.3139 47.19 18.944 49.7625 24.0209 50.6543C29.0977 51.5461 34.3279 50.7066 38.8705 48.2705C40.5707 47.3587 42.1375 46.242 43.5414 44.9551L27.2934 28.7071C27.1058 28.5195 27.0004 28.2653 27.0004 28V5.02348ZM44.9555 43.5411C46.6546 41.6873 48.0508 39.5554 49.0727 37.2198C50.2174 34.6032 50.8556 31.8149 50.9779 29H30.4145L44.9555 43.5411Z" fill="oklch(0.3523 0 0 / 1)" class="wd-expressive-fill"></path>
<path d="M42.7094 3.3643C43.3035 2.35225 44.812 2.38625 45.3451 3.46586L47.309 7.44535L51.7006 8.08403C52.9307 8.26292 53.4225 9.77483 52.5326 10.6426L49.3539 13.7383L50.1049 18.1133C50.315 19.3386 49.0285 20.2737 47.9281 19.6954L43.9994 17.6289L40.0727 19.6954C38.9722 20.2739 37.6857 19.3387 37.8959 18.1133L38.6459 13.7383L35.4682 10.6426C34.578 9.77492 35.0692 8.2631 36.2992 8.08403L40.6908 7.44535L42.6557 3.46586L42.7094 3.3643ZM42.2523 8.8018C42.1068 9.09675 41.8249 9.30117 41.4994 9.34867L37.5893 9.91606L40.4184 12.6748C40.6539 12.9045 40.762 13.2354 40.7065 13.5596L40.0385 17.4532L43.5346 15.6153L43.6469 15.5645C43.9125 15.4642 44.2105 15.4814 44.4652 15.6153L47.9613 17.4532L47.2943 13.5596C47.2388 13.2353 47.3468 12.9045 47.5824 12.6748L50.4106 9.91606L46.5014 9.34867C46.1758 9.30128 45.8941 9.09687 45.7484 8.8018L44.0004 5.25883L42.2523 8.8018Z" fill="oklch(0.3523 0 0 / 1)" class="wd-expressive-fill"></path>
</g>
</svg>