<svg role="presentation" width="56" height="56" viewBox="0 0 56 56" xmlns="http://www.w3.org/2000/svg" class="wd-expressive wd-expressive-square">
<path d="M28 3C41.8071 3 53 14.1929 53 28C53 41.8071 41.8071 53 28 53C14.1929 53 3 41.8071 3 28C3 14.1929 14.1929 3 28 3ZM15 13C13.8954 13 13 13.8954 13 15V41C13 42.1046 13.8954 43 15 43H41C42.1046 43 43 42.1046 43 41V15C43 13.8954 42.1046 13 41 13H15Z" fill="oklch(0.3057 0.079 256.22 / 0.13)" class="wd-expressive-accent"></path>
<path d="M41 12C42.6569 12 44 13.3431 44 15V41C44 42.6569 42.6569 44 41 44H15C13.3431 44 12 42.6569 12 41V15C12 13.3431 13.3431 12 15 12H41ZM15 14C14.4477 14 14 14.4477 14 15V41C14 41.5523 14.4477 42 15 42H41C41.5523 42 42 41.5523 42 41V15C42 14.4477 41.5523 14 41 14H15Z" fill="oklch(0.3523 0 0 / 1)" class="wd-expressive-fill"></path>
</svg>