<svg role="presentation" width="56" height="56" viewBox="0 0 56 56" xmlns="http://www.w3.org/2000/svg" class="wd-expressive wd-expressive-layers">
<g>
<path d="M49.4228 32.7119C50.8969 33.449 50.8969 35.553 49.4228 36.29L30.2363 45.8828C28.8288 46.5865 27.1722 46.5866 25.7646 45.8828L6.57812 36.29C5.10417 35.553 5.10417 33.449 6.57812 32.7119L10 31.001L25.7646 38.8828C27.1722 39.5866 28.8288 39.5865 30.2363 38.8828L46 31.001L49.4228 32.7119Z" fill="oklch(0.3057 0.079 256.22 / 0.13)" class="wd-expressive-accent"></path>
<path d="M47.4228 23.7109C48.8969 24.448 48.8969 26.552 47.4228 27.2891L30.2363 35.8818C28.8288 36.5855 27.1722 36.5856 25.7646 35.8818L8.57812 27.2891C7.10416 26.552 7.10416 24.448 8.57812 23.7109L9 23.499L25.7646 31.8818C27.1721 32.5855 28.8288 32.5854 30.2363 31.8818L47 23.499L47.4228 23.7109Z" fill="oklch(0.3057 0.079 256.22 / 0.13)" class="wd-expressive-accent"></path>
</g>
<path d="M25.3164 8.22273C27.0055 7.37819 28.9945 7.37827 30.6836 8.22273L49.8691 17.8155C52.0803 18.9211 52.0803 22.0771 49.8691 23.1827L48.2354 23.9991L49.8701 24.8165C52.0804 25.9223 52.0805 29.0779 49.8701 30.1837L48.2363 31.0001L49.8691 31.8165C52.0803 32.922 52.0802 36.0781 49.8691 37.1837L30.6836 46.7764C28.9945 47.621 27.0055 47.621 25.3164 46.7764L6.13086 37.1837C3.92002 36.078 3.91993 32.9221 6.13086 31.8165L7.76367 30.9991L6.13184 30.1837C3.92069 29.0781 3.92069 25.9221 6.13184 24.8165L7.76465 23.9991L6.13086 23.1827C3.91998 22.077 3.91986 18.9211 6.13086 17.8155L25.3164 8.22273ZM7.02539 33.6055C6.28855 33.9741 6.28865 35.026 7.02539 35.3946L26.2109 44.9874C27.337 45.5504 28.663 45.5504 29.7891 44.9874L48.9746 35.3946C49.7116 35.0261 49.7116 33.9741 48.9746 33.6055L46 32.1182L30.6846 39.7764C28.9956 40.6209 27.0064 40.6207 25.3174 39.7764L10 32.1173L7.02539 33.6055ZM30.6836 32.7755C28.9944 33.62 27.0056 33.62 25.3164 32.7755L10.001 25.1173L7.02637 26.6055C6.28932 26.9741 6.28932 28.0261 7.02637 28.3946L26.2119 37.9874C27.3379 38.5501 28.6642 38.5503 29.79 37.9874L48.9756 28.3946C49.7118 28.0259 49.7118 26.9743 48.9756 26.6055L45.999 25.1173L30.6836 32.7755ZM29.7891 10.0118C28.663 9.44886 27.337 9.44878 26.2109 10.0118L7.02539 19.6046C6.28849 19.9731 6.28861 21.025 7.02539 21.3936L26.2109 30.9864C27.337 31.5494 28.663 31.5494 29.7891 30.9864L48.9746 21.3936C49.7117 21.0251 49.7117 19.9731 48.9746 19.6046L29.7891 10.0118Z" fill="oklch(0.3523 0 0 / 1)" class="wd-expressive-fill"></path>
</svg>