<svg role="presentation" width="56" height="56" viewBox="0 0 56 56" xmlns="http://www.w3.org/2000/svg" class="wd-expressive wd-expressive-check-in">
<g>
<path d="M18.5 26C20.6109 26 22.7129 26.1792 24.7842 26.5312C23.2619 27.0486 21.9039 27.9207 20.8105 29.0518C20.2894 30.2631 20 31.5977 20 33C20 38.5228 24.4772 43 30 43C32.8228 43 35.3702 41.8283 37.1885 39.9473C37.7095 38.7361 38 37.4022 38 36C38 33.9827 37.4005 32.1062 36.373 30.5352C39.5368 32.2505 42.4441 34.4141 45 36.9668V49C45 50.1046 44.1046 51 43 51H13C11.8954 51 11 50.1046 11 49V26.7598C13.4624 26.2571 15.9747 26 18.5 26Z" fill="oklch(0.3057 0.079 256.22 / 0.13)" class="wd-expressive-accent"></path>
<path d="M20 16.5C20 16.7761 20.2239 17 20.5 17H38V18.5C38 18.7761 37.7761 19 37.5 19H18.5C18.2239 19 18 18.7761 18 18.5V3.5C18 3.22386 18.2239 3 18.5 3H20V16.5Z" fill="oklch(0.3057 0.079 256.22 / 0.13)" class="wd-expressive-accent"></path>
</g>
<g>
<path d="M28.5 28C28.7761 28 29 28.2239 29 28.5V34H32.5C32.7761 34 33 34.2239 33 34.5V35.5C33 35.7761 32.7761 36 32.5 36H28C27.4477 36 27 35.5523 27 35V28.5C27 28.2239 27.2239 28 27.5 28H28.5Z" fill="oklch(0.3523 0 0 / 1)" class="wd-expressive-fill"></path>
<path d="M28 24C34.0751 24 39 28.9249 39 35C39 41.0751 34.0751 46 28 46C21.9249 46 17 41.0751 17 35C17 28.9249 21.9249 24 28 24ZM28 26C23.0294 26 19 30.0294 19 35C19 39.9706 23.0294 44 28 44C32.9706 44 37 39.9706 37 35C37 30.0294 32.9706 26 28 26Z" fill="oklch(0.3523 0 0 / 1)" class="wd-expressive-fill"></path>
<path d="M26.5 14C26.7761 14 27 14.2239 27 14.5V15.5C27 15.7761 26.7761 16 26.5 16H22.5C22.2239 16 22 15.7761 22 15.5V14.5C22 14.2239 22.2239 14 22.5 14H26.5Z" fill="oklch(0.3523 0 0 / 1)" class="wd-expressive-fill"></path>
<path d="M33.5 14C33.7761 14 34 14.2239 34 14.5V15.5C34 15.7761 33.7761 16 33.5 16H29.5C29.2239 16 29 15.7761 29 15.5V14.5C29 14.2239 29.2239 14 29.5 14H33.5Z" fill="oklch(0.3523 0 0 / 1)" class="wd-expressive-fill"></path>
<path d="M26.5 10C26.7761 10 27 10.2239 27 10.5V11.5C27 11.7761 26.7761 12 26.5 12H22.5C22.2239 12 22 11.7761 22 11.5V10.5C22 10.2239 22.2239 10 22.5 10H26.5Z" fill="oklch(0.3523 0 0 / 1)" class="wd-expressive-fill"></path>
<path d="M33.5 10C33.7761 10 34 10.2239 34 10.5V11.5C34 11.7761 33.7761 12 33.5 12H29.5C29.2239 12 29 11.7761 29 11.5V10.5C29 10.2239 29.2239 10 29.5 10H33.5Z" fill="oklch(0.3523 0 0 / 1)" class="wd-expressive-fill"></path>
<path d="M26.5 6C26.7761 6 27 6.22386 27 6.5V7.5C27 7.77614 26.7761 8 26.5 8H22.5C22.2239 8 22 7.77614 22 7.5V6.5C22 6.22386 22.2239 6 22.5 6H26.5Z" fill="oklch(0.3523 0 0 / 1)" class="wd-expressive-fill"></path>
<path d="M33.5 6C33.7761 6 34 6.22386 34 6.5V7.5C34 7.77614 33.7761 8 33.5 8H29.5C29.2239 8 29 7.77614 29 7.5V6.5C29 6.22386 29.2239 6 29.5 6H33.5Z" fill="oklch(0.3523 0 0 / 1)" class="wd-expressive-fill"></path>
<path d="M37.5 2C38.3284 2 39 2.67157 39 3.5V18H43C44.6569 18 46 19.3431 46 21V49C46 50.6569 44.6569 52 43 52H13C11.3431 52 10 50.6569 10 49V21C10 19.3431 11.3431 18 13 18H17V3.5C17 2.67157 17.6716 2 18.5 2H37.5ZM13 20C12.4477 20 12 20.4477 12 21V49C12 49.5523 12.4477 50 13 50H43C43.5523 50 44 49.5523 44 49V21C44 20.4477 43.5523 20 43 20H13ZM19 18H37V4H19V18Z" fill="oklch(0.3523 0 0 / 1)" class="wd-expressive-fill"></path>
</g>
</svg>