<svg role="presentation" width="56" height="56" viewBox="0 0 56 56" xmlns="http://www.w3.org/2000/svg" class="wd-expressive wd-expressive-shield-security">
<g>
<path d="M28 47C29.6569 47 31 48.3431 31 50C31 51.6569 29.6569 53 28 53C26.3431 53 25 51.6569 25 50C25 48.3431 26.3431 47 28 47Z" fill="oklch(0.3057 0.079 256.22 / 0.13)" class="wd-expressive-accent"></path>
<path d="M25.3652 14.1768C22.8825 14.7876 20.611 15.9358 18.6816 17.4912C18.2389 17.8482 18.0001 18.3951 18 18.9639V21.6396C18 26.801 20.0506 31.7517 23.7002 35.4014C25.1748 36.8759 26.8621 38.0883 28.6895 39.0107C29.1987 39.2678 29.7993 39.2678 30.3086 39.0107C32.1363 38.0883 33.824 36.8761 35.2988 35.4014C38.9483 31.7519 40.9988 26.8017 40.999 21.6406L41 21.6396V23C41 28.8347 38.6814 34.4309 34.5557 38.5566C32.8604 40.2519 30.916 41.6404 28.8096 42.6895C28.2989 42.9438 27.6991 42.9438 27.1885 42.6895C25.0824 41.6403 23.1384 40.2516 21.4434 38.5566C17.3176 34.4308 15 28.8347 15 23V19.8594C15 19.2905 15.2389 18.7435 15.6797 18.3838C18.3959 16.1674 21.721 14.669 25.3652 14.1768Z" fill="oklch(0.3057 0.079 256.22 / 0.13)" class="wd-expressive-accent"></path>
<path d="M28 21C30.2091 21 32 22.7909 32 25C32 26.5364 31.133 27.869 29.8623 28.5391L30.4189 32.4297C30.4617 32.7306 30.2278 32.9998 29.9238 33H26.0762C25.7722 32.9998 25.5383 32.7306 25.5811 32.4297L26.1367 28.5391C24.8664 27.8689 24 26.5361 24 25C24 22.7909 25.7909 21 28 21Z" fill="oklch(0.3057 0.079 256.22 / 0.13)" class="wd-expressive-accent"></path>
<path d="M6 25C7.65685 25 9 26.3431 9 28C9 29.6569 7.65685 31 6 31C4.34315 31 3 29.6569 3 28C3 26.3431 4.34315 25 6 25Z" fill="oklch(0.3057 0.079 256.22 / 0.13)" class="wd-expressive-accent"></path>
<path d="M50 25C51.6569 25 53 26.3431 53 28C53 29.6569 51.6569 31 50 31C48.3431 31 47 29.6569 47 28C47 26.3431 48.3431 25 50 25Z" fill="oklch(0.3057 0.079 256.22 / 0.13)" class="wd-expressive-accent"></path>
<path d="M28 3C29.6569 3 31 4.34315 31 6C31 7.65685 29.6569 9 28 9C26.3431 9 25 7.65685 25 6C25 4.34315 26.3431 3 28 3Z" fill="oklch(0.3057 0.079 256.22 / 0.13)" class="wd-expressive-accent"></path>
</g>
<g>
<path d="M28 20C30.7614 20 33 22.2386 33 25C33 26.6618 32.1871 28.1293 30.9434 29.0371L31.4092 32.2881C31.5375 33.1918 30.8356 33.9992 29.9248 34H26.0752C25.1644 33.9992 24.4625 33.1927 24.5908 32.2891L25.0547 29.0371C23.8116 28.129 23 26.6611 23 25C23 22.2386 25.2386 20 28 20ZM28 22C26.3431 22 25 23.3431 25 25C25 26.1501 25.6478 27.1501 26.6035 27.6543L27.2266 27.9834L26.6533 32H29.3467L28.7725 27.9834L29.3955 27.6543C30.3518 27.1501 31 26.1501 31 25C31 23.3431 29.6569 22 28 22Z" fill="oklch(0.3523 0 0 / 1)" class="wd-expressive-fill"></path>
<path d="M28.0127 12.957L28.4795 12.9629H28.4912C33.2226 13.0741 37.5607 14.7847 40.9805 17.5752C41.6835 18.1489 42.0438 19.0024 42.0439 19.8584V23C42.0439 29.1115 39.6153 34.9735 35.2939 39.2949C33.518 41.0708 31.4805 42.5253 29.2744 43.624C28.471 44.024 27.527 44.0241 26.7236 43.624C24.5179 42.5252 22.4808 41.0706 20.7051 39.2949C16.3836 34.9734 13.9561 29.1114 13.9561 23V19.8594C13.9561 19.0032 14.3164 18.149 15.0195 17.5752C18.5575 14.6882 23.0782 12.9561 28 12.9561L28.0127 12.957ZM28 15.043C23.5763 15.043 19.5179 16.5983 16.3389 19.1924C16.1607 19.3379 16.0439 19.5779 16.0439 19.8594V23L16.0498 23.5205C16.183 28.8899 18.3745 34.0111 22.1816 37.8184C23.796 39.4327 25.647 40.7564 27.6533 41.7559C27.8709 41.8642 28.1271 41.8642 28.3447 41.7559C30.3514 40.7564 32.2028 39.4329 33.8174 37.8184C37.7475 33.8882 39.9561 28.5579 39.9561 23V19.8584C39.9559 19.5771 39.8392 19.3378 39.6611 19.1924C36.5882 16.6849 32.6937 15.1487 28.4424 15.0488L28 15.043Z" fill="oklch(0.3523 0 0 / 1)" class="wd-expressive-fill"></path>
<path d="M28 2C29.9832 2 31.6284 3.44342 31.9443 5.33691C41.4855 6.98587 49.0107 14.5137 50.6602 24.0547C52.5551 24.3694 54 26.0158 54 28C54 29.9839 52.5556 31.6291 50.6611 31.9443C49.0121 41.4857 41.4857 49.0121 31.9443 50.6611C31.6291 52.5556 29.9839 54 28 54C26.0158 54 24.3694 52.5551 24.0547 50.6602C14.5137 49.0107 6.98587 41.4855 5.33691 31.9443C3.44342 31.6284 2 29.9832 2 28C2 26.0164 3.44385 24.3702 5.33789 24.0547C6.98725 14.5139 14.5139 6.98725 24.0547 5.33789C24.3702 3.44385 26.0164 2 28 2ZM28 48C26.8954 48 26 48.8954 26 50C26 51.1046 26.8954 52 28 52C29.1046 52 30 51.1046 30 50C30 48.8954 29.1046 48 28 48ZM31.7686 7.33789C31.218 8.88873 29.7397 10 28 10C26.2602 10 24.781 8.88889 24.2305 7.33789C15.6544 8.89227 8.89227 15.6544 7.33789 24.2305C8.88889 24.781 10 26.2602 10 28C10 29.7397 8.88873 31.218 7.33789 31.7686C8.89192 40.3449 15.6542 47.1057 24.2305 48.6602C24.7815 47.1101 26.2609 46 28 46C29.739 46 31.2175 47.1102 31.7686 48.6602C40.3451 47.106 47.106 40.3451 48.6602 31.7686C47.1102 31.2175 46 29.739 46 28C46 26.2609 47.1101 24.7815 48.6602 24.2305C47.1057 15.6542 40.3449 8.89192 31.7686 7.33789ZM6 26C4.89543 26 4 26.8954 4 28C4 29.1046 4.89543 30 6 30C7.10457 30 8 29.1046 8 28C8 26.8954 7.10457 26 6 26ZM50 26C48.8954 26 48 26.8954 48 28C48 29.1046 48.8954 30 50 30C51.1046 30 52 29.1046 52 28C52 26.8954 51.1046 26 50 26ZM28 4C26.8954 4 26 4.89543 26 6C26 7.10457 26.8954 8 28 8C29.1046 8 30 7.10457 30 6C30 4.89543 29.1046 4 28 4Z" fill="oklch(0.3523 0 0 / 1)" class="wd-expressive-fill"></path>
</g>
</svg>