<svg role="presentation" width="56" height="56" viewBox="0 0 56 56" xmlns="http://www.w3.org/2000/svg" class="wd-expressive wd-expressive-sun">
<g>
<path d="M22.8579 45.2573L23.8238 45.5161C24.0905 45.5876 24.2487 45.8617 24.1773 46.1284L22.8833 50.9585C22.8118 51.225 22.5376 51.3833 22.271 51.312L21.3052 51.0532C21.0386 50.9818 20.8804 50.7075 20.9517 50.4409L22.2456 45.6108C22.3172 45.3442 22.5912 45.1858 22.8579 45.2573Z" fill="oklch(0.3057 0.079 256.22 / 0.13)" class="wd-expressive-accent"></path>
<path d="M33.1421 45.2524C33.4088 45.1811 33.683 45.3393 33.7544 45.6059L35.0484 50.435C35.1198 50.7017 34.9615 50.9758 34.6949 51.0473L33.729 51.3061C33.4623 51.3776 33.1882 51.2193 33.1167 50.9526L31.8228 46.1235C31.7513 45.8568 31.9096 45.5827 32.1763 45.5112L33.1421 45.2524Z" fill="oklch(0.3057 0.079 256.22 / 0.13)" class="wd-expressive-accent"></path>
<path d="M14.2115 40.3755C14.4066 40.1804 14.7232 40.1806 14.9185 40.3755L15.6255 41.0825C15.8208 41.2778 15.8208 41.5952 15.6255 41.7905L12.0904 45.3257C11.8951 45.5209 11.5786 45.5209 11.3833 45.3257L10.6763 44.6186C10.4811 44.4234 10.4811 44.1069 10.6763 43.9116L14.2115 40.3755Z" fill="oklch(0.3057 0.079 256.22 / 0.13)" class="wd-expressive-accent"></path>
<path d="M41.0796 40.3706C41.2749 40.1755 41.5915 40.1754 41.7867 40.3706L45.3218 43.9067C45.5169 44.102 45.517 44.4185 45.3218 44.6137L44.6148 45.3208C44.4195 45.5158 44.103 45.5159 43.9077 45.3208L40.3726 41.7846C40.1773 41.5894 40.1773 41.2729 40.3726 41.0776L41.0796 40.3706Z" fill="oklch(0.3057 0.079 256.22 / 0.13)" class="wd-expressive-accent"></path>
<path d="M38.7486 22.6684C39.5471 24.2751 39.9995 26.0846 39.9995 28.0005C39.9994 34.6277 34.6269 40.0005 27.9995 40.0005C21.3724 40.0003 15.9997 34.6276 15.9995 28.0005C15.9995 26.0848 16.4512 24.2749 17.2495 22.6684C17.0873 23.4201 16.9995 24.2003 16.9995 25.0005C16.9997 31.0753 21.9247 36.0003 27.9995 36.0005C34.0746 36.0005 38.9994 31.0754 38.9995 25.0005C38.9995 24.2001 38.9109 23.4202 38.7486 22.6684Z" fill="oklch(0.3057 0.079 256.22 / 0.13)" class="wd-expressive-accent"></path>
<path d="M9.87064 31.8237C10.1374 31.7522 10.4115 31.9105 10.4829 32.1772L10.7417 33.143C10.8131 33.4097 10.6549 33.6839 10.3882 33.7553L5.55912 35.0493C5.29244 35.1207 5.01835 34.9624 4.94681 34.6958L4.68802 33.73C4.61655 33.4632 4.77481 33.1891 5.04154 33.1177L9.87064 31.8237Z" fill="oklch(0.3057 0.079 256.22 / 0.13)" class="wd-expressive-accent"></path>
<path d="M46.1275 31.8178L50.9576 33.1128C51.224 33.1844 51.3825 33.4585 51.3111 33.7251L51.0523 34.6909C50.9808 34.9574 50.7065 35.1156 50.44 35.0444L45.6099 33.7505C45.3433 33.679 45.1852 33.4048 45.2564 33.1382L45.5152 32.1714C45.5868 31.9049 45.8609 31.7465 46.1275 31.8178Z" fill="oklch(0.3057 0.079 256.22 / 0.13)" class="wd-expressive-accent"></path>
<path d="M50.44 20.9526C50.7065 20.8814 50.9807 21.0397 51.0523 21.3061L51.3111 22.2719C51.3825 22.5387 51.2242 22.8137 50.9576 22.8852L46.1275 24.1792C45.8609 24.2504 45.5867 24.0921 45.5152 23.8257L45.2564 22.8598C45.1849 22.5931 45.3432 22.318 45.6099 22.2466L50.44 20.9526Z" fill="oklch(0.3057 0.079 256.22 / 0.13)" class="wd-expressive-accent"></path>
<path d="M5.55912 20.9477L10.3882 22.2417C10.6549 22.3131 10.813 22.5873 10.7417 22.854L10.4829 23.8198C10.4115 24.0865 10.1373 24.2457 9.87064 24.1743L5.04056 22.8794C4.77416 22.8077 4.61562 22.5336 4.68705 22.2671L4.94584 21.3012C5.01733 21.0345 5.2924 20.8763 5.55912 20.9477Z" fill="oklch(0.3057 0.079 256.22 / 0.13)" class="wd-expressive-accent"></path>
<path d="M11.3804 10.6782C11.5757 10.4829 11.8932 10.4829 12.0884 10.6782L15.6236 14.2134C15.8188 14.4086 15.8188 14.7251 15.6236 14.9204L14.9165 15.6274C14.7213 15.8227 14.4048 15.8226 14.2095 15.6274L10.6734 12.0923C10.4783 11.8971 10.4785 11.5805 10.6734 11.3852L11.3804 10.6782Z" fill="oklch(0.3057 0.079 256.22 / 0.13)" class="wd-expressive-accent"></path>
<path d="M43.9097 10.6772C44.105 10.482 44.4224 10.482 44.6177 10.6772L45.3247 11.3843C45.5198 11.5794 45.5197 11.896 45.3247 12.0913L41.7886 15.6274C41.5933 15.8224 41.2768 15.8225 41.0816 15.6274L40.3745 14.9204C40.1794 14.7252 40.1796 14.4086 40.3745 14.2134L43.9097 10.6772Z" fill="oklch(0.3057 0.079 256.22 / 0.13)" class="wd-expressive-accent"></path>
<path d="M33.729 4.68699L34.6949 4.94578C34.9614 5.01737 35.1198 5.29145 35.0484 5.55808L33.7544 10.3872C33.683 10.6538 33.4088 10.812 33.1421 10.7407L32.1753 10.4819C31.9089 10.4102 31.7504 10.1362 31.8218 9.8696L33.1167 5.0405C33.1882 4.77377 33.4623 4.61552 33.729 4.68699Z" fill="oklch(0.3057 0.079 256.22 / 0.13)" class="wd-expressive-accent"></path>
<path d="M22.271 4.68406C22.5376 4.61282 22.8118 4.7711 22.8833 5.03757L24.1773 9.86765C24.2487 10.1343 24.0904 10.4085 23.8238 10.48L22.8579 10.7387C22.5913 10.8102 22.3172 10.6519 22.2456 10.3852L20.9517 5.55515C20.8804 5.2885 21.0386 5.01429 21.3052 4.94285L22.271 4.68406Z" fill="oklch(0.3057 0.079 256.22 / 0.13)" class="wd-expressive-accent"></path>
</g>
<g>
<path d="M28.5 46C28.776 46.0002 29 46.224 29 46.5V53.5C29 53.776 28.776 53.9998 28.5 54H27.5C27.2239 54 27 53.7761 27 53.5V46.5C27 46.2239 27.2239 46 27.5 46H28.5Z" fill="oklch(0.3523 0 0 / 1)" class="wd-expressive-fill"></path>
<path d="M17.8838 43.5225C18.0219 43.2835 18.3283 43.2018 18.5674 43.3398L19.4326 43.8398C19.6716 43.9778 19.754 44.2834 19.6162 44.5225L16.1162 50.585C15.9781 50.8241 15.6718 50.9057 15.4326 50.7676L14.5674 50.2676C14.3282 50.1295 14.2457 49.8241 14.3838 49.585L17.8838 43.5225Z" fill="oklch(0.3523 0 0 / 1)" class="wd-expressive-fill"></path>
<path d="M37.4316 43.3398C37.6708 43.2018 37.9762 43.2833 38.1143 43.5225L41.6143 49.585C41.7521 49.824 41.6706 50.1295 41.4316 50.2676L40.5654 50.7676C40.3264 50.9056 40.021 50.8237 39.8828 50.585L36.3828 44.5225C36.2448 44.2834 36.3264 43.978 36.5654 43.8398L37.4316 43.3398Z" fill="oklch(0.3523 0 0 / 1)" class="wd-expressive-fill"></path>
<path d="M11.4785 36.3848C11.7175 36.247 12.0231 36.3286 12.1611 36.5674L12.6611 37.4336C12.7992 37.6727 12.7175 37.9791 12.4785 38.1172L6.41602 41.6172C6.17688 41.7552 5.87048 41.6727 5.73242 41.4336L5.23242 40.5674C5.09474 40.3283 5.17703 40.0227 5.41602 39.8848L11.4785 36.3848Z" fill="oklch(0.3523 0 0 / 1)" class="wd-expressive-fill"></path>
<path d="M43.8369 36.5674C43.975 36.3284 44.2814 36.2467 44.5205 36.3848L50.582 39.8848C50.821 40.0228 50.9034 40.3283 50.7656 40.5674L50.2656 41.4336C50.1276 41.6727 49.8212 41.7553 49.582 41.6172L43.5205 38.1172C43.2814 37.9791 43.1988 37.6727 43.3369 37.4336L43.8369 36.5674Z" fill="oklch(0.3523 0 0 / 1)" class="wd-expressive-fill"></path>
<path d="M28 15C35.1797 15 41 20.8203 41 28C41 35.1797 35.1797 41 28 41C20.8203 41 15 35.1797 15 28C15 20.8203 20.8203 15 28 15ZM28 17C21.9249 17 17 21.9249 17 28C17 34.0751 21.9249 39 28 39C34.0751 39 39 34.0751 39 28C39 21.9249 34.0751 17 28 17Z" fill="oklch(0.3523 0 0 / 1)" class="wd-expressive-fill"></path>
<path d="M9.49902 27.001C9.77517 27.001 9.99902 27.2248 9.99902 27.501V28.501C9.99902 28.7771 9.77517 29.001 9.49902 29.001H2.49902C2.22293 29.0009 1.99902 28.7771 1.99902 28.501V27.501C1.99902 27.2249 2.22293 27.001 2.49902 27.001H9.49902Z" fill="oklch(0.3523 0 0 / 1)" class="wd-expressive-fill"></path>
<path d="M53.499 27.001C53.7752 27.001 53.999 27.2248 53.999 27.501V28.501C53.999 28.7771 53.7752 29.001 53.499 29.001H46.499C46.2229 29.0009 45.999 28.7771 45.999 28.501V27.501C45.999 27.2249 46.2229 27.001 46.499 27.001H53.499Z" fill="oklch(0.3523 0 0 / 1)" class="wd-expressive-fill"></path>
<path d="M5.73242 14.5674C5.87062 14.3286 6.17605 14.2468 6.41504 14.3848L12.4775 17.8848C12.7164 18.0229 12.798 18.3284 12.6602 18.5674L12.1602 19.4336C12.0222 19.6726 11.7166 19.7549 11.4775 19.6172L5.41504 16.1172C5.17589 15.9791 5.09435 15.6727 5.23242 15.4336L5.73242 14.5674Z" fill="oklch(0.3523 0 0 / 1)" class="wd-expressive-fill"></path>
<path d="M49.583 14.3848C49.8221 14.2467 50.1285 14.3283 50.2666 14.5674L50.7666 15.4336C50.9047 15.6727 50.8221 15.9791 50.583 16.1172L44.5215 19.6172C44.2823 19.7553 43.976 19.6727 43.8379 19.4336L43.3379 18.5674C43.2001 18.3283 43.2825 18.0228 43.5215 17.8848L49.583 14.3848Z" fill="oklch(0.3523 0 0 / 1)" class="wd-expressive-fill"></path>
<path d="M15.4316 5.23438C15.6707 5.09644 15.9761 5.17811 16.1143 5.41699L19.6143 11.4795C19.7523 11.7185 19.6706 12.024 19.4316 12.1621L18.5654 12.6621C18.3264 12.8001 18.0209 12.7185 17.8828 12.4795L14.3828 6.41699C14.2448 6.17787 14.3263 5.87245 14.5654 5.73438L15.4316 5.23438Z" fill="oklch(0.3523 0 0 / 1)" class="wd-expressive-fill"></path>
<path d="M39.8838 5.41602C40.0219 5.17721 40.3274 5.09554 40.5664 5.2334L41.4326 5.7334C41.6717 5.87145 41.7532 6.17689 41.6152 6.41602L38.1152 12.4785C37.9771 12.7176 37.6717 12.7992 37.4326 12.6611L36.5664 12.1611C36.3275 12.023 36.2458 11.7175 36.3838 11.4785L39.8838 5.41602Z" fill="oklch(0.3523 0 0 / 1)" class="wd-expressive-fill"></path>
<path d="M28.5 2C28.776 2.00019 29 2.22397 29 2.5V9.5C29 9.77603 28.776 9.99981 28.5 10H27.5C27.2239 10 27 9.77614 27 9.5V2.5C27 2.22386 27.2239 2 27.5 2H28.5Z" fill="oklch(0.3523 0 0 / 1)" class="wd-expressive-fill"></path>
</g>
</svg>