<svg role="presentation" width="56" height="56" viewBox="0 0 56 56" xmlns="http://www.w3.org/2000/svg" class="wd-expressive wd-expressive-video-camera">
<g>
<path d="M36 44C36 45.1046 35.1046 46 34 46H12C10.8954 46 10 45.1046 10 44V42H36V44Z" fill="oklch(0.3057 0.079 256.22 / 0.13)" class="wd-expressive-accent"></path>
<path d="M49 38H53V42H48L42 38H39V34H42L49 38Z" fill="oklch(0.3057 0.079 256.22 / 0.13)" class="wd-expressive-accent"></path>
<path d="M5.03711 11C5.67294 11 6.30317 11.1213 6.89355 11.3574L11 13H35V17H30V24H26V17H17.3545L16.2256 19.8223L18.7148 23.9707L18.666 24H14.0674L10.0859 17.3652L6.89355 18.6426C6.30317 18.8787 5.67294 19 5.03711 19H5C3.89554 18.9999 3 18.1045 3 17V13C3 11.8955 3.89554 11.0001 5 11H5.03711Z" fill="oklch(0.3057 0.079 256.22 / 0.13)" class="wd-expressive-accent"></path>
</g>
<g>
<path d="M20.5 34C20.7761 34 21 34.2239 21 34.5V35.5C21 35.7761 20.7761 36 20.5 36H13.5C13.2239 36 13 35.7761 13 35.5V34.5C13 34.2239 13.2239 34 13.5 34H20.5Z" fill="oklch(0.3523 0 0 / 1)" class="wd-expressive-fill"></path>
<path d="M20.5 30C20.7761 30 21 30.2239 21 30.5V31.5C21 31.7761 20.7761 32 20.5 32H13.5C13.2239 32 13 31.7761 13 31.5V30.5C13 30.2239 13.2239 30 13.5 30H20.5Z" fill="oklch(0.3523 0 0 / 1)" class="wd-expressive-fill"></path>
<path d="M5.32324 10.0068C5.98854 10.0386 6.64488 10.1809 7.26465 10.4287L11.1934 12H34.7695C35.3202 11.3872 36.118 11.0009 37.0107 11.0098C41.3262 11.0526 45.1798 11.2224 47.5615 11.3506C49.5086 11.4554 51 13.0699 51 15C51 16.9301 49.5086 18.5446 47.5615 18.6494C45.1798 18.7776 41.3262 18.9474 37.0107 18.9902C36.118 18.9991 35.3202 18.6128 34.7695 18H31V23H37C38.6569 23 40 24.3431 40 26V27H41.6973L46.9414 23.5039C47.4341 23.1754 48.0132 23 48.6055 23H52.5L52.6533 23.0078C53.4097 23.0846 54 23.7233 54 24.5V41.5C54 42.2767 53.4097 42.9154 52.6533 42.9922L52.5 43H48.6055C48.0132 43 47.4341 42.8246 46.9414 42.4961L41.6973 39H40C39.9986 39.8438 39.6422 40.6772 38.9619 41.2422C38.3334 41.7641 37.6772 42.2519 37 42.71V44C37 45.6569 35.6569 47 34 47H12C10.3431 47 9 45.6569 9 44V42.71C8.32284 42.2519 7.66655 41.7641 7.03809 41.2422C6.39907 40.7114 6.04556 39.9439 6.00391 39.1533L6 38.9951V26C6 24.3431 7.34315 23 9 23H12.3008L9.66602 18.6094L7.26465 19.5713C6.64488 19.8191 5.98854 19.9614 5.32324 19.9932L5.03711 20H5C3.34335 19.9998 2 18.6568 2 17V13C2 11.3432 3.34335 10.0002 5 10H5.03711L5.32324 10.0068ZM11 44L11.0049 44.1025C11.0562 44.6067 11.4823 45 12 45H34L34.1025 44.9951C34.6067 44.9438 35 44.5177 35 44V43H11V44ZM9 25C8.44772 25 8 25.4477 8 26V38.9951L8.00586 39.1025C8.03189 39.3492 8.14631 39.5625 8.31543 39.7031C8.86735 40.1615 9.44288 40.5935 10.0381 41H35.9619C36.5571 40.5935 37.1326 40.1615 37.6846 39.7031C37.8778 39.5425 37.9999 39.2869 38 38.9951V26C38 25.4477 37.5523 25 37 25H9ZM48.6055 25C48.4081 25 48.2151 25.0584 48.0508 25.168L42.5547 28.832C42.3904 28.9415 42.1974 29 42 29H40V37H42C42.1974 37 42.3904 37.0585 42.5547 37.168L48.0508 40.832C48.2151 40.9416 48.4081 41 48.6055 41H52V25H48.6055ZM5 12C4.44775 12.0001 4 12.4479 4 13V17C4 17.5521 4.44775 17.9999 5 18H5.03711L5.22754 17.9951C5.6713 17.9739 6.10926 17.8791 6.52246 17.7139L9.71484 16.4365L9.80078 16.4072C10.2343 16.2778 10.7066 16.4561 10.9434 16.8506L14.6338 23H16.9658L15.3682 20.3369C15.2075 20.0691 15.181 19.7412 15.2969 19.4512L16.4258 16.6289L16.4932 16.4922C16.6709 16.1905 16.9969 16 17.3545 16H26C26.5523 16 27 16.4477 27 17V23H29V17C29 16.4478 29.4478 16.0001 30 16H34V14H11C10.8729 14 10.7469 13.9759 10.6289 13.9287L6.52246 12.2861C6.10926 12.1209 5.6713 12.0261 5.22754 12.0049L5.03711 12H5ZM17.3379 19.7324L19.2988 23H25V18H18.0312L17.3379 19.7324ZM36.9912 13.0098C36.4486 13.0044 36 13.4458 36 14V16C36 16.5542 36.4486 16.9956 36.9912 16.9902C41.2686 16.9478 45.0912 16.7795 47.4541 16.6523C48.3202 16.6057 49 15.8872 49 15C49 14.1128 48.3202 13.3943 47.4541 13.3477C45.0912 13.2205 41.2686 13.0522 36.9912 13.0098Z" fill="oklch(0.3523 0 0 / 1)" class="wd-expressive-fill"></path>
</g>
</svg>