<svg role="presentation" width="56" height="56" viewBox="0 0 56 56" xmlns="http://www.w3.org/2000/svg" class="wd-expressive wd-expressive-coffee">
<path d="M50.5741 41C51.0466 41 51.2438 41.58 50.8534 41.8457C47.8369 43.8946 44.2648 45 40.5966 45H13.4032C9.73494 45 6.16288 43.8946 3.14637 41.8457C2.75585 41.58 2.95317 41 3.42567 41H20.1561C20.1001 41 20.0439 40.9904 19.9911 40.9717C13.0047 38.4981 7.99989 31.8339 7.99989 24V20.5C7.99989 20.2239 8.22376 20 8.49989 20H11.9999C11.9999 29.9411 20.0588 38 29.9999 38C33.9491 38 37.6004 36.7268 40.5682 34.5703C38.4471 37.4883 35.4721 39.7454 32.0087 40.9717C31.9558 40.9904 31.8997 41 31.8436 41H50.5741Z" fill="oklch(0.3057 0.079 256.22 / 0.13)" class="wd-expressive-accent"></path>
<g>
<path d="M43.5004 18.9998C44.3286 19 45.0003 19.6716 45.0004 20.4998V21.2332L45.6937 20.8182C47.73 19.5966 50.3242 19.8382 52.099 21.4159C53.6532 22.7975 54.2703 24.9632 53.7172 26.9549C52.5513 31.1514 49.2949 34.7058 44.8636 35.495C43.5107 35.7358 42.0755 35.9272 40.7406 35.9823C39.467 37.5468 37.952 38.9066 36.2484 39.9998H50.5746C51.2648 39.9999 51.7986 40.4433 51.9867 41.0067C52.1777 41.5795 52.0069 42.2718 51.4154 42.6737C48.2337 44.8347 44.4661 45.9998 40.597 45.9998H13.4037C9.53456 45.9998 5.76703 44.8347 2.58533 42.6737C1.99371 42.2718 1.82306 41.5795 2.01404 41.0067C2.20213 40.4433 2.73589 39.9998 3.42615 39.9998H15.7513C10.4886 36.6223 7.00037 30.7196 7.00037 23.9998V20.4998C7.00048 19.6715 7.67201 18.9998 8.50037 18.9998H43.5004ZM5.34119 41.9998C7.81154 43.3055 10.5772 43.9998 13.4037 43.9998H40.597C43.4235 43.9998 46.1892 43.3055 48.6595 41.9998H5.34119ZM9.00037 23.9998C9.00037 31.3676 13.6887 37.6413 20.2474 39.9998H31.7533C38.3119 37.6412 43.0004 31.3675 43.0004 23.9998V20.9998H9.00037V23.9998ZM50.7699 22.911C49.6484 21.9141 48.0088 21.7612 46.722 22.5331L45.0004 23.5653V23.9998C45.0004 27.6107 43.992 30.9853 42.2435 33.8592C42.9886 33.7758 43.7556 33.6611 44.5131 33.5262C48.0487 32.8965 50.7901 30.0203 51.7904 26.4198C52.1426 25.1514 51.7444 23.7773 50.7699 22.911Z" fill="oklch(0.3523 0 0 / 1)" class="wd-expressive-fill"></path>
<path d="M25.0287 3.65512C25.1057 3.53982 25.2618 3.50818 25.3773 3.58481L26.6234 4.41586C26.7389 4.49284 26.7698 4.64911 26.6927 4.7645C25.7416 6.1916 25.6279 8.01956 26.3949 9.55356C27.4826 11.7295 27.3215 14.3224 25.972 16.3465C25.8948 16.4616 25.7388 16.4928 25.6234 16.4159L24.3773 15.5848C24.2624 15.5078 24.2313 15.3523 24.308 15.2372C25.2593 13.8102 25.3725 11.9821 24.6058 10.4481C23.5179 8.27215 23.6794 5.6794 25.0287 3.65512Z" fill="oklch(0.3523 0 0 / 1)" class="wd-expressive-fill"></path>
<path d="M18.891 5.86215C19.0442 5.6324 19.3546 5.57032 19.5844 5.72348L20.4164 6.27817C20.6461 6.43134 20.7082 6.74176 20.5551 6.97153L20.2191 7.47543C19.6236 8.36913 19.6558 9.54203 20.3002 10.4012C21.4529 11.9388 21.5117 14.0365 20.4457 15.6356L20.1097 16.1395C19.9565 16.3689 19.646 16.4313 19.4164 16.2782L18.5844 15.7235C18.3547 15.5704 18.2929 15.2598 18.4457 15.0301L18.7816 14.5262C19.3773 13.6327 19.3447 12.4597 18.7006 11.6004C17.5475 10.0629 17.4892 7.96525 18.5551 6.36606L18.891 5.86215Z" fill="oklch(0.3523 0 0 / 1)" class="wd-expressive-fill"></path>
<path d="M30.891 5.86215C31.0442 5.6324 31.3546 5.57032 31.5844 5.72348L32.4164 6.27817C32.6461 6.43134 32.7082 6.74176 32.5551 6.97153L32.2191 7.47543C31.6236 8.36913 31.6558 9.54203 32.3002 10.4012C33.4529 11.9388 33.5117 14.0365 32.4457 15.6356L32.1097 16.1395C31.9565 16.3689 31.646 16.4313 31.4164 16.2782L30.5844 15.7235C30.3547 15.5704 30.2929 15.2598 30.4457 15.0301L30.7816 14.5262C31.3773 13.6326 31.3447 12.4597 30.7006 11.6004C29.5475 10.0629 29.4892 7.96525 30.5551 6.36606L30.891 5.86215Z" fill="oklch(0.3523 0 0 / 1)" class="wd-expressive-fill"></path>
</g>
</svg>