<svg role="presentation" width="56" height="56" viewBox="0 0 56 56" xmlns="http://www.w3.org/2000/svg" class="wd-expressive wd-expressive-reports-coin">
<g>
<path d="M50 41C50 42.6569 46.4183 44 42 44C40.6856 44 39.4456 43.8796 38.3516 43.6689C39.7873 44.4716 42.2291 45 45 45C49.4183 45 53 43.6569 53 42V46C53 46.9473 51.8287 47.791 50 48.3408V50C50 51.6569 46.4183 53 42 53C37.5817 53 34 51.6569 34 50V46C34 47.6569 37.5817 49 42 49C42.5127 49 43.0141 48.9809 43.5 48.9463C39.7987 48.683 37 47.4646 37 46V43.3408C35.1713 42.791 34 41.9473 34 41V37C34 38.6569 37.5817 40 42 40C46.4183 40 50 38.6569 50 37V41Z" fill="oklch(0.3057 0.079 256.22 / 0.13)" class="wd-expressive-accent"></path>
<path d="M40.5 28C40.7761 28 41 28.2239 41 28.5V30.5C41 30.7761 40.7761 31 40.5 31H9.5C9.22386 31 9 30.7761 9 30.5V28.5C9 28.2239 9.22386 28 9.5 28H40.5Z" fill="oklch(0.3057 0.079 256.22 / 0.13)" class="wd-expressive-accent"></path>
<path d="M40 10H43V14H7V10H10V6H40V10Z" fill="oklch(0.3057 0.079 256.22 / 0.13)" class="wd-expressive-accent"></path>
</g>
<g>
<path d="M42 33C44.2972 33 46.4215 33.3475 48.0078 33.9424C48.7973 34.2384 49.5062 34.615 50.0352 35.084C50.5628 35.5519 51 36.1972 51 37V38.9395C51.0026 38.9404 51.0052 38.9414 51.0078 38.9424C51.7973 39.2384 52.5062 39.615 53.0352 40.084C53.5628 40.5519 54 41.1972 54 42V46C54 46.8028 53.5628 47.4481 53.0352 47.916C52.5062 48.385 51.7973 48.7616 51.0078 49.0576C51.0053 49.0586 51.0025 49.0586 51 49.0596V50C51 50.8028 50.5628 51.4481 50.0352 51.916C49.5062 52.385 48.7973 52.7616 48.0078 53.0576C46.4215 53.6525 44.2972 54 42 54C39.7028 54 37.5785 53.6525 35.9922 53.0576C35.2027 52.7616 34.4938 52.385 33.9648 51.916C33.4372 51.4481 33 50.8028 33 50V46C33 45.1972 33.4372 44.5519 33.9648 44.084C34.2061 43.8701 34.4853 43.6766 34.792 43.5C34.4853 43.3234 34.2061 43.1299 33.9648 42.916C33.4372 42.4481 33 41.8028 33 41V37C33 36.1972 33.4372 35.5519 33.9648 35.084C34.4938 34.615 35.2027 34.2384 35.9922 33.9424C37.5785 33.3475 39.7028 33 42 33ZM35 50C35 50.0255 35.0101 50.17 35.292 50.4199C35.5727 50.6687 36.0363 50.9378 36.6943 51.1846C37.7935 51.5968 39.2922 51.8887 41 51.9727V49.9766C39.0903 49.8913 37.3454 49.5651 35.9922 49.0576C35.6425 48.9265 35.3094 48.778 35 48.6143V50ZM43 49.9766V51.9727C43.707 51.9379 44.3782 51.869 45 51.7686V50C44.4881 50 43.9848 49.9816 43.4941 49.9482C43.3308 49.9593 43.166 49.9692 43 49.9766ZM49 49.6201C48.3712 49.7477 47.7004 49.8449 47 49.9092V51.291C47.1048 51.256 47.2071 51.2215 47.3057 51.1846C47.9637 50.9378 48.4273 50.6687 48.708 50.4199C48.9899 50.17 49 50.0255 49 50V49.6201ZM48 45.791C47.059 45.9261 46.0476 46 45 46V48C46.0774 48 47.0913 47.9153 48 47.7686V45.791ZM38 46C38 46.0255 38.0101 46.17 38.292 46.4199C38.5727 46.6687 39.0363 46.9378 39.6943 47.1846C40.5732 47.5141 41.7077 47.7647 43 47.8965V45.9092C41.4833 45.7699 40.1053 45.475 38.9922 45.0576C38.6493 44.929 38.3229 44.783 38.0186 44.623C38.0124 44.6218 38.0061 44.6214 38 44.6201V46ZM52 44.6143C51.6906 44.778 51.3575 44.9265 51.0078 45.0576C50.6923 45.1759 50.3552 45.2829 50 45.3809V47.291C50.1048 47.256 50.2071 47.2215 50.3057 47.1846C50.9637 46.9378 51.4273 46.6687 51.708 46.4199C51.9899 46.17 52 46.0255 52 46V44.6143ZM36 45.1182C35.6961 45.2733 35.4609 45.4303 35.292 45.5801C35.0101 45.83 35 45.9745 35 46C35 46.0255 35.0101 46.17 35.292 46.4199C35.5029 46.6069 35.817 46.8053 36.2393 46.9971C36.0906 46.6986 36 46.3656 36 46V45.1182ZM50.9961 41.1162C50.9563 41.8652 50.5371 42.4709 50.0352 42.916C49.7769 43.145 49.4751 43.3508 49.1426 43.5371C49.5664 43.4328 49.9564 43.3155 50.3057 43.1846C50.9637 42.9378 51.4273 42.6687 51.708 42.4199C51.9899 42.17 52 42.0255 52 42C52 41.9745 51.9899 41.83 51.708 41.5801C51.5384 41.4297 51.3019 41.272 50.9961 41.1162ZM45 40.791C44.059 40.9261 43.0476 41 42 41C41.3147 41 40.6448 40.9684 40 40.9092V42.8965C40.6327 42.961 41.3029 43 42 43C43.0774 43 44.0913 42.9153 45 42.7686V40.791ZM35 41C35 41.0255 35.0101 41.17 35.292 41.4199C35.5727 41.6687 36.0363 41.9378 36.6943 42.1846C37.0823 42.3301 37.5209 42.4572 38 42.5693V40.6201C37.2671 40.4714 36.5913 40.2823 35.9922 40.0576C35.6425 39.9265 35.3094 39.778 35 39.6143V41ZM49 39.6143C48.6906 39.778 48.3575 39.9265 48.0078 40.0576C47.6923 40.1759 47.3552 40.2829 47 40.3809V42.291C47.1048 42.256 47.2071 42.2215 47.3057 42.1846C47.9637 41.9378 48.4273 41.6687 48.708 41.4199C48.9899 41.17 49 41.0255 49 41V39.6143ZM42 35C39.879 35 38.0035 35.3245 36.6943 35.8154C36.0363 36.0622 35.5727 36.3313 35.292 36.5801C35.0101 36.83 35 36.9745 35 37C35 37.0255 35.0101 37.17 35.292 37.4199C35.5727 37.6687 36.0363 37.9378 36.6943 38.1846C38.0035 38.6755 39.879 39 42 39C44.121 39 45.9965 38.6755 47.3057 38.1846C47.9637 37.9378 48.4273 37.6687 48.708 37.4199C48.9899 37.17 49 37.0255 49 37C49 36.9745 48.9899 36.83 48.708 36.5801C48.4273 36.3313 47.9637 36.0622 47.3057 35.8154C45.9965 35.3245 44.121 35 42 35Z" fill="oklch(0.3523 0 0 / 1)" class="wd-expressive-fill"></path>
<path d="M38 5C39.6569 5 41 6.34315 41 8V9C42.6569 9 44 10.3431 44 12V13C45.6569 13 47 14.3431 47 16V29.5C47 29.7761 46.7761 30 46.5 30H45.5C45.2239 30 45 29.7761 45 29.5V16C45 15.4477 44.5523 15 44 15H6C5.44771 15 5 15.4477 5 16V41C5 41.5523 5.44772 42 6 42H29.5C29.7761 42 30 42.2239 30 42.5V43.5C30 43.7761 29.7761 44 29.5 44H6C4.34315 44 3 42.6569 3 41V16C3 14.3431 4.34315 13 6 13V12C6 10.3431 7.34315 9 9 9V8C9 6.34315 10.3431 5 12 5H38ZM9 11C8.44772 11 8 11.4477 8 12V13H42V12C42 11.4477 41.5523 11 41 11H9ZM12 7C11.4477 7 11 7.44772 11 8V9H39V8C39 7.44772 38.5523 7 38 7H12Z" fill="oklch(0.3523 0 0 / 1)" class="wd-expressive-fill"></path>
<path d="M14.8838 33.4082C15.399 33.4778 15.7019 33.8459 15.8242 34.1748C15.9296 34.4588 15.9233 34.7445 15.8994 34.9521C15.8492 35.3865 15.6694 35.8974 15.3945 36.4473C15.1268 36.9828 14.798 37.4568 14.4248 37.8701C14.4424 37.8759 14.4606 37.8839 14.4805 37.8896C14.7163 37.9578 15.0515 37.9999 15.5 38C17.0216 38.0003 17.7424 37.1777 18.1338 36.5C18.3601 36.1084 18.8218 35.9172 19.2588 36.0342C19.6959 36.1513 19.9999 36.5485 20 37.001C20.0008 37.3101 20.4032 38.001 21.5 38.001C22.544 38.001 23.2779 37.308 23.793 36.793L24.4395 36.1465C24.6347 35.9514 24.9512 35.9514 25.1465 36.1465L25.8535 36.8535C26.0487 37.0487 26.0487 37.3653 25.8535 37.5605L25.0605 38.3535C25.0568 38.3573 25.0517 38.3597 25.0479 38.3633C24.4758 38.9261 23.2711 40.001 21.5 40.001C20.3961 40.001 19.3951 39.5589 18.749 38.8584C18.0126 39.4908 16.9674 40.0003 15.5 40C14.9489 39.9999 14.4085 39.951 13.9258 39.8115C13.5172 39.6934 13.1061 39.4961 12.7734 39.1719C11.7632 39.7254 10.6254 40 9.5 40H8.5C8.22397 40 8.00018 39.776 8 39.5V38.5C8.00009 38.2239 8.22391 38 8.5 38H9.5C10.4354 38 11.3528 37.7398 12.1221 37.2305C12.1706 36.699 12.3448 36.143 12.585 35.5977C12.8589 34.9759 13.1535 34.4774 13.4502 34.1211C13.5968 33.9451 13.7687 33.7743 13.9648 33.6436C14.1374 33.5286 14.4681 33.3522 14.8838 33.4082Z" fill="oklch(0.3523 0 0 / 1)" class="wd-expressive-fill"></path>
<path d="M30.5 23C30.7761 23 31 23.2239 31 23.5V24.5C31 24.7761 30.7761 25 30.5 25H19.5C19.2239 25 19 24.7761 19 24.5V23.5C19 23.2239 19.2239 23 19.5 23H30.5Z" fill="oklch(0.3523 0 0 / 1)" class="wd-expressive-fill"></path>
<path d="M34.5 19C34.7761 19 35 19.2239 35 19.5V20.5C35 20.7761 34.7761 21 34.5 21H15.5C15.2239 21 15 20.7761 15 20.5V19.5C15 19.2239 15.2239 19 15.5 19H34.5Z" fill="oklch(0.3523 0 0 / 1)" class="wd-expressive-fill"></path>
</g>
</svg>