<svg role="presentation" width="56" height="56" viewBox="0 0 56 56" xmlns="http://www.w3.org/2000/svg" class="wd-expressive wd-expressive-money-forward">
<g>
<path d="M45 34.8408C45 34.3709 45.5892 34.1607 45.8867 34.5244L51.7402 41.6777C51.8906 41.8618 51.8907 42.1265 51.7402 42.3105L45.8867 49.4648C45.5891 49.828 45 49.6172 45 49.1475V45.1045C43.0437 45.3207 41.1817 45.8497 39.4658 46.6416C37.3906 47.5994 36.0923 49.4658 35.4609 51.6191C35.3965 51.8384 35.1983 51.9941 34.9697 51.9941H34.5C34.2239 51.9941 34.0001 51.7702 34 51.4941V48.8232C34 45.4099 35.3691 41.972 38.4346 40.4707C40.4519 39.4827 42.6651 38.8335 45 38.5957V34.8408Z" fill="oklch(0.3057 0.079 256.22 / 0.13)" class="wd-expressive-accent"></path>
<path d="M5 30C8.86599 30 12 33.134 12 37V39H3V30H5Z" fill="oklch(0.3057 0.079 256.22 / 0.13)" class="wd-expressive-accent"></path>
<path d="M26 18C29.8659 18.0001 33 21.1341 33 25C33 27.4941 31.6945 29.6814 29.7305 30.9209C29.5747 31.0192 29.3964 30.8489 29.4668 30.6787C29.8186 29.8295 30 28.9192 30 28C30 27.0808 29.8186 26.1706 29.4668 25.3213C29.115 24.4721 28.5992 23.7008 27.9492 23.0508C27.2993 22.4009 26.5279 21.885 25.6787 21.5332C24.8295 21.1815 23.9191 21 23 21C22.0809 21 21.1705 21.1815 20.3213 21.5332C20.151 21.6035 19.9797 21.4244 20.0781 21.2686C21.3177 19.3048 23.5061 18.0001 26 18Z" fill="oklch(0.3057 0.079 256.22 / 0.13)" class="wd-expressive-accent"></path>
<path d="M12 13C12 16.866 8.86599 20 5 20H3V11H12V13Z" fill="oklch(0.3057 0.079 256.22 / 0.13)" class="wd-expressive-accent"></path>
<path d="M49 20H47C43.134 20 40 16.866 40 13V11H49V20Z" fill="oklch(0.3057 0.079 256.22 / 0.13)" class="wd-expressive-accent"></path>
</g>
<g>
<path d="M44.0005 34.8418C44.0005 33.4315 45.7693 32.802 46.6616 33.8926L46.6606 33.8936L52.5142 41.0459C52.9368 41.5636 52.9644 42.2937 52.5942 42.8379L52.5151 42.9443L46.6616 50.0986L46.6606 50.0996C45.7667 51.19 44.0009 50.5557 44.0005 49.1484V46.2617C42.5575 46.5187 41.1772 46.9546 39.8853 47.5508C38.1386 48.357 36.9955 49.9464 36.4224 51.9004C36.2506 52.4855 35.7352 52.9342 35.1001 52.9883L34.9712 52.9941H34.5005C33.6722 52.9941 33.0008 52.3223 33.0005 51.4941V48.8242C33.0005 45.1992 34.4574 41.306 37.9956 39.5732C39.8564 38.662 41.8758 38.0237 44.0005 37.7119V34.8418ZM46.0005 38.5957C46.0002 39.1084 45.6121 39.5386 45.1021 39.5908C42.887 39.8166 40.7877 40.4332 38.8745 41.3701C36.2821 42.64 35.0005 45.6228 35.0005 48.8242V49.9805C35.8012 48.1832 37.1171 46.6253 39.0474 45.7344C40.8592 44.8983 42.8253 44.3388 44.8901 44.1104C45.1726 44.0792 45.4557 44.1698 45.6675 44.3594C45.8791 44.5491 46.0005 44.8203 46.0005 45.1045V47.748L50.7075 41.9941L46.0005 36.2412V38.5957Z" fill="oklch(0.3523 0 0 / 1)" class="wd-expressive-fill"></path>
<path d="M48.5005 10C49.3286 10.0002 50.0003 10.6719 50.0005 11.5V31.501C50.0003 31.7769 49.7764 32.0008 49.5005 32.001H48.5005C48.2244 32.001 48.0006 31.777 48.0005 31.501V21H47.0005C42.5822 21 39.0005 17.4183 39.0005 13V12H13.0005V13C13.0005 17.4182 9.41861 20.9998 5.00049 21H4.00049V29H5.00049C9.41849 29.0002 13.0003 32.582 13.0005 37V38H32.4995C32.7756 38 32.9995 38.2239 32.9995 38.5V39.5C32.9995 39.7761 32.7757 40 32.4995 40H3.50049C2.67206 40 2.00049 39.3284 2.00049 38.5V11.5C2.00069 10.6717 2.67218 10 3.50049 10H48.5005ZM4.00049 38H11.0005V37C11.0003 33.6866 8.31392 31.0002 5.00049 31H4.00049V38ZM4.00049 19H5.00049C8.31404 18.9998 11.0005 16.3136 11.0005 13V12H4.00049V19ZM41.0005 13C41.0005 16.3137 43.6868 19 47.0005 19H48.0005V12H41.0005V13Z" fill="oklch(0.3523 0 0 / 1)" class="wd-expressive-fill"></path>
<path d="M25.9995 17C27.0498 17 28.0906 17.2075 29.061 17.6094C30.0313 18.0113 30.914 18.6002 31.6567 19.3428C32.3994 20.0854 32.9881 20.9682 33.3901 21.9385C33.7921 22.9089 33.9994 23.9496 33.9995 25L33.9897 25.3936C33.9446 26.3096 33.7418 27.2124 33.3901 28.0615C32.9881 29.032 32.3995 29.9144 31.6567 30.6572C30.9139 31.4 30.0315 31.9886 29.061 32.3906C28.0905 32.7926 27.05 33 25.9995 33C24.9492 32.9999 23.9084 32.7926 22.938 32.3906C21.9677 31.9886 21.0849 31.3999 20.3423 30.6572C19.5997 29.9145 19.0108 29.0318 18.6089 28.0615C18.207 27.0911 17.9995 26.0503 17.9995 25C17.9996 23.9496 18.2069 22.9089 18.6089 21.9385C19.0109 20.9681 19.5996 20.0855 20.3423 19.3428C21.085 18.6001 21.9676 18.0114 22.938 17.6094C23.9084 17.2074 24.9492 17.0001 25.9995 17ZM25.9995 19C25.2118 19.0001 24.4314 19.1556 23.7036 19.457C22.9758 19.7585 22.3144 20.2008 21.7573 20.7578C21.2003 21.3149 20.758 21.9763 20.4565 22.7041C20.1551 23.4319 19.9996 24.2123 19.9995 25C19.9995 25.7877 20.1552 26.5681 20.4565 27.2959C20.758 28.0236 21.2004 28.6852 21.7573 29.2422C22.3143 29.7992 22.9759 30.2414 23.7036 30.543C24.4314 30.8444 25.2118 30.9999 25.9995 31C26.7873 31 27.5676 30.8444 28.2954 30.543C29.0233 30.2415 29.6846 29.7993 30.2417 29.2422C30.7988 28.685 31.241 28.0238 31.5425 27.2959C31.8439 26.568 31.9995 25.7878 31.9995 25L31.9927 24.7051C31.9588 24.0181 31.8063 23.3409 31.5425 22.7041C31.241 21.9764 30.7987 21.3148 30.2417 20.7578C29.6847 20.2009 29.0231 19.7585 28.2954 19.457C27.5677 19.1557 26.7872 19 25.9995 19Z" fill="oklch(0.3523 0 0 / 1)" class="wd-expressive-fill"></path>
</g>
</svg>