<svg role="presentation" width="56" height="56" viewBox="0 0 56 56" xmlns="http://www.w3.org/2000/svg" class="wd-expressive wd-expressive-leaf">
<path d="M48.9999 7C36.5538 7.00019 27.2192 9.06394 20.4774 15.7666C13.7355 22.4696 15.8099 32.2656 18.9218 35.3594C25.1454 41.5467 34.4806 41.5467 40.704 35.3594C47.2292 28.872 48.8956 17.0707 48.996 7.9043C48.896 18.2912 47.035 31.7157 39.6679 39.083C32.6679 46.083 22.168 46.0832 15.1679 39.083C11.6677 35.5829 9.33474 24.5003 16.9179 16.917C24.5012 9.33369 35.001 6.99904 49.0009 6.99902L48.9999 7Z" fill="oklch(0.3057 0.079 256.22 / 0.13)" class="wd-expressive-accent"></path>
<path d="M50.0012 7C50.0012 12.2976 49.5604 18.5072 48.1506 24.3691C46.7437 30.2192 44.3494 35.8157 40.3752 39.79C33.2869 46.8783 22.756 47.1679 15.386 40.6592C12.9106 43.9122 10.5755 47.2786 8.38891 50.75C8.24171 50.9837 7.93266 51.0556 7.69848 50.9092L6.84984 50.3789C6.61597 50.2326 6.54488 49.924 6.69164 49.6904C8.95905 46.0903 11.3838 42.6007 13.9573 39.2324C12.2236 37.1214 10.9553 33.502 10.886 29.5479C10.8094 25.1688 12.1963 20.2239 16.2112 16.209C24.081 8.33952 34.9205 6 49.0012 6H50.0012V7ZM47.9944 8.00488C34.5911 8.11664 24.7449 10.5038 17.6252 17.623C14.0571 21.1912 12.817 25.5805 12.886 29.5137C12.9457 32.9174 13.9831 35.8673 15.2268 37.5986C22.6953 28.1151 31.3565 19.6219 41.0022 12.334C41.2227 12.1674 41.5358 12.2124 41.7014 12.4336L42.301 13.2324C42.4666 13.4533 42.4217 13.7671 42.2014 13.9336C32.6147 21.1777 24.0144 29.6295 16.6116 39.0723C23.2006 44.976 32.5919 44.7441 38.9602 38.376C42.5689 34.7673 44.8415 29.5721 46.2053 23.9014C47.4794 18.6036 47.9406 12.9706 47.9944 8.00488Z" fill="oklch(0.3523 0 0 / 1)" class="wd-expressive-fill"></path>
</svg>