<svg role="presentation" width="56" height="56" viewBox="0 0 56 56" xmlns="http://www.w3.org/2000/svg" class="wd-expressive wd-expressive-blockchain">
<g>
<path d="M26.3213 34.0797C26.6486 33.9547 27 34.1971 27 34.5475V45.8365C27 46.0437 26.8722 46.2293 26.6787 46.3033L17.1787 49.9322C17.0638 49.9761 16.9362 49.9761 16.8213 49.9322L7.32129 46.3033C7.12784 46.2293 7.00002 46.0437 7 45.8365V34.5475C7 34.1971 7.35139 33.9547 7.67871 34.0797L16.8213 37.5719C16.9362 37.6157 17.0638 37.6157 17.1787 37.5719L26.3213 34.0797Z" fill="oklch(0.3057 0.079 256.22 / 0.13)" class="wd-expressive-accent"></path>
<path d="M50.3213 20.2594C50.6486 20.1344 51 20.3768 51 20.7272V32.0162C51 32.2234 50.8722 32.409 50.6787 32.483L41.1787 36.1119C41.0638 36.1558 40.9362 36.1558 40.8213 36.1119L31.3213 32.483C31.1278 32.409 31 32.2234 31 32.0162V20.7272C31 20.3768 31.3514 20.1344 31.6787 20.2594L40.8213 23.7516C40.9362 23.7954 41.0638 23.7954 41.1787 23.7516L50.3213 20.2594Z" fill="oklch(0.3057 0.079 256.22 / 0.13)" class="wd-expressive-accent"></path>
<path d="M26.3213 10.0787C26.6486 9.95372 27 10.1961 27 10.5465V21.8355C27 22.0427 26.8722 22.2283 26.6787 22.3023L17.1787 25.9313C17.0638 25.9751 16.9362 25.9751 16.8213 25.9313L7.32129 22.3023C7.12784 22.2283 7 22.0427 7 21.8355V10.5465C7 10.1961 7.35139 9.95372 7.67871 10.0787L16.8213 13.5709C16.9362 13.6148 17.0638 13.6148 17.1787 13.5709L26.3213 10.0787Z" fill="oklch(0.3057 0.079 256.22 / 0.13)" class="wd-expressive-accent"></path>
</g>
<path d="M16.5957 5.09114C16.8601 5.01715 17.1399 5.01715 17.4043 5.09114L17.5352 5.13411L27.0352 8.76399C27.6159 8.98593 27.9998 9.54271 28 10.1644V20.1302L30 20.8939V20.3304C30.0002 19.7088 30.3841 19.1519 30.9648 18.93L40.4648 15.3001L40.5957 15.2572C40.86 15.1832 41.14 15.1832 41.4043 15.2572L41.5352 15.3001L51.0352 18.93C51.6158 19.1519 51.9998 19.7088 52 20.3304V32.0023C51.9999 32.6241 51.616 33.1817 51.0352 33.4036L41.5352 37.0316C41.1905 37.1632 40.8095 37.1632 40.4648 37.0316L30.9648 33.4036C30.384 33.1817 30.0001 32.6241 30 32.0023V23.0345L27.9404 22.2484C27.8126 22.6946 27.4834 23.0664 27.0352 23.2376L18 26.6878V29.3109L27.0352 32.764C27.6159 32.9859 27.9998 33.5427 28 34.1644V45.8363C27.9999 46.458 27.616 47.0157 27.0352 47.2376L17.5352 50.8656C17.1906 50.9971 16.8094 50.9971 16.4648 50.8656L6.96484 47.2376C6.38398 47.0157 6.00013 46.458 6 45.8363V34.1644C6.00016 33.5427 6.38412 32.9859 6.96484 32.764L16 29.3109V26.6878L6.96484 23.2376C6.38403 23.0158 6.0002 22.458 6 21.8363V10.1644C6.00016 9.54271 6.38412 8.98593 6.96484 8.76399L16.4648 5.13411L16.5957 5.09114ZM8 45.4915L16 48.5462V38.3275L8 35.2718V45.4915ZM18 38.3275V48.5462L26 45.4915V35.2718L18 38.3275ZM18 33.5003C18 33.7765 17.7761 34.0003 17.5 34.0003H16.5C16.2239 34.0003 16 33.7765 16 33.5003V31.4515L9.80273 33.8197L17 36.5687L24.1963 33.8197L18 31.4515V33.5003ZM32 31.6575L40 34.7122V24.5081L32 21.4525V31.6575ZM42 24.5081V34.7122L50 31.6575V21.4525L42 24.5081ZM8 21.4915L16 24.5462V14.3275L8 11.2718V21.4915ZM18 14.3275V24.5462L25.9775 21.4993L22.1104 20.0228C21.8526 19.9242 21.7239 19.6351 21.8223 19.3773L22.1787 18.4427C22.2772 18.1846 22.5662 18.0551 22.8242 18.1536L26 19.3665V11.2718L18 14.3275ZM33.7842 19.9925L41 22.7493L48.2148 19.9925L41 17.2357L33.7842 19.9925ZM9.80273 9.81965L17 12.5687L24.1963 9.81965L17 7.06965L9.80273 9.81965Z" fill="oklch(0.3523 0 0 / 1)" class="wd-expressive-fill"></path>
</svg>