<svg role="presentation" width="56" height="56" viewBox="0 0 56 56" xmlns="http://www.w3.org/2000/svg" class="wd-expressive wd-expressive-bar-chart-growth">
<g>
<path d="M13 47H6V37H13V47Z" fill="oklch(0.3057 0.079 256.22 / 0.13)" class="wd-expressive-accent"></path>
<path d="M30 47H23V33H30V47Z" fill="oklch(0.3057 0.079 256.22 / 0.13)" class="wd-expressive-accent"></path>
<path d="M47 47H40V29H47V47Z" fill="oklch(0.3057 0.079 256.22 / 0.13)" class="wd-expressive-accent"></path>
</g>
<g>
<path d="M16 33.0001C16.5523 33.0001 17 33.4479 17 34.0001V47.0001C17 47.5524 16.5523 48.0001 16 48.0001H6C5.44772 48.0001 5 47.5524 5 47.0001V34.0001C5.00004 33.4479 5.44774 33.0001 6 33.0001H16ZM7 46.0001H15V35.0001H7V46.0001Z" fill="oklch(0.3523 0 0 / 1)" class="wd-expressive-fill"></path>
<path d="M33 29.0001C33.5523 29.0001 34 29.4479 34 30.0001V47.0001C34 47.5524 33.5523 48.0001 33 48.0001H23C22.4477 48.0001 22 47.5524 22 47.0001V30.0001C22 29.4479 22.4477 29.0001 23 29.0001H33ZM24 46.0001H32V31.0001H24V46.0001Z" fill="oklch(0.3523 0 0 / 1)" class="wd-expressive-fill"></path>
<path d="M50 25.0001C50.5523 25.0001 51 25.4479 51 26.0001V47.0001C51 47.5524 50.5523 48.0001 50 48.0001H40C39.4477 48.0001 39 47.5524 39 47.0001V26.0001C39 25.4479 39.4477 25.0001 40 25.0001H50ZM41 46.0001H49V27.0001H41V46.0001Z" fill="oklch(0.3523 0 0 / 1)" class="wd-expressive-fill"></path>
<path d="M39.71 4.9845C41.2062 5.28984 42.7566 5.45027 44.3447 5.45032C45.872 5.45029 47.365 5.30253 48.8076 5.01966C48.812 5.0188 48.8169 5.01847 48.8213 5.0177C48.8635 5.01 48.9064 5.00628 48.9492 5.00403C48.9579 5.00359 48.9669 5.00232 48.9756 5.00208C49.0211 5.00091 49.0668 5.00383 49.1123 5.00892C49.119 5.00968 49.1261 5.00999 49.1328 5.01087C49.1761 5.01663 49.2191 5.02569 49.2617 5.03724C49.271 5.03975 49.2809 5.04132 49.29 5.04407C49.3265 5.05511 49.362 5.06969 49.3975 5.08509C49.4121 5.09143 49.4271 5.09759 49.4414 5.10462C49.4506 5.10914 49.4606 5.11251 49.4697 5.11731C49.4911 5.1287 49.511 5.14264 49.5312 5.1554C49.5469 5.16525 49.563 5.17496 49.5781 5.18567C49.6095 5.20797 49.6388 5.23251 49.667 5.25794C49.6771 5.26698 49.6875 5.27582 49.6973 5.28528C49.7224 5.30992 49.7453 5.33644 49.7676 5.36341C49.7808 5.37934 49.7953 5.39441 49.8076 5.41126C49.8244 5.4344 49.8388 5.45909 49.8535 5.48352C49.863 5.4992 49.8741 5.51407 49.8828 5.5304C49.8868 5.53795 49.8897 5.54622 49.8936 5.55384C49.9034 5.57357 49.9114 5.59404 49.9199 5.61438C49.9324 5.64416 49.9446 5.67376 49.9541 5.70423C49.9608 5.72601 49.9655 5.74839 49.9707 5.77063C49.9769 5.79695 49.9833 5.82317 49.9873 5.84974C49.9918 5.87969 49.9933 5.9101 49.9951 5.94056C49.9964 5.9627 49.9982 5.98484 49.998 6.00696C49.9978 6.03389 49.9956 6.06092 49.9932 6.08802C49.9907 6.11608 49.9882 6.14425 49.9834 6.172C49.9823 6.17855 49.9817 6.18597 49.9805 6.19251C49.6976 7.635 49.5499 9.12833 49.5498 10.6554C49.5499 12.2433 49.7103 13.7941 50.0156 15.2902C50.0705 15.5605 49.9028 15.8286 49.6338 15.8898L48.6572 16.1115C48.3885 16.1719 48.1203 16.0033 48.0645 15.7335C47.7269 14.0933 47.5499 12.3937 47.5498 10.6554C47.5498 9.903 47.5877 9.15808 47.6533 8.422C36.974 19.7587 22.0471 26.8576 5.50098 26.9982C5.22489 27.0005 5 26.7762 5 26.5001V25.5001C5.00024 25.2242 5.22503 25.0006 5.50098 24.9982C21.2937 24.8592 35.5672 18.1552 45.8662 7.40052C45.3629 7.43107 44.8555 7.45031 44.3447 7.45032C42.6063 7.45027 40.9069 7.27426 39.2666 6.93665C38.9964 6.88082 38.8277 6.61201 38.8887 6.3429L39.1104 5.36731C39.1715 5.09821 39.4396 4.92951 39.71 4.9845Z" fill="oklch(0.3523 0 0 / 1)" class="wd-expressive-fill"></path>
</g>
</svg>