<svg role="presentation" width="56" height="56" viewBox="0 0 56 56" xmlns="http://www.w3.org/2000/svg" class="wd-expressive wd-expressive-clipboard-gauge">
<g>
<path d="M12.1271 37.9355C12.3685 37.4986 13.0001 37.6776 13.0001 38.1768V43.5C13.0001 43.7761 13.224 43.9999 13.5001 44H29.2169C29.4645 44.0002 29.6737 44.1821 29.7179 44.4258C30.0302 46.1472 30.6687 47.7551 31.5675 49.1826C31.786 49.5296 31.5459 49.9999 31.1358 50H9.5001C9.22404 49.9999 8.99939 49.776 9.00498 49.5C9.07069 46.256 9.77525 43.0501 11.0841 40.0498C11.3984 39.3293 11.7468 38.6239 12.1271 37.9355Z" fill="oklch(0.3057 0.079 256.22 / 0.13)" class="wd-expressive-accent"></path>
<path d="M43.0001 32C48.5229 32 53.0001 36.4772 53.0001 42C53.0001 44.416 52.1432 46.6318 50.7169 48.3604C50.9001 47.6033 51.0001 46.8133 51.0001 46C51.0001 40.4772 46.5229 36 41.0001 36C37.8936 36 35.1174 37.4163 33.2833 39.6387C34.3447 35.2558 38.291 32 43.0001 32Z" fill="oklch(0.3057 0.079 256.22 / 0.13)" class="wd-expressive-accent"></path>
<path d="M20.0001 29C21.1047 29 22.0001 29.8954 22.0001 31C22.0001 32.1046 21.1047 33 20.0001 33C18.8956 32.9999 18.0001 32.1045 18.0001 31C18.0001 29.8955 18.8956 29.0001 20.0001 29Z" fill="oklch(0.3057 0.079 256.22 / 0.13)" class="wd-expressive-accent"></path>
<path d="M42.5001 21C42.7762 21 43.0001 21.2239 43.0001 21.5V28C43.0001 28.2761 42.7761 28.4988 42.5001 28.5088C41.5211 28.5443 40.5685 28.6838 39.6534 28.917C39.3271 29.0002 39.0001 28.7596 39.0001 28.4229V21.5967C39.0001 21.3385 39.1969 21.122 39.4542 21.1016C40.3258 21.0328 41.1764 21 42.0001 21H42.5001Z" fill="oklch(0.3057 0.079 256.22 / 0.13)" class="wd-expressive-accent"></path>
<path d="M26.0001 3C27.9339 3.00003 29.6108 4.09863 30.4425 5.70508C30.5339 5.88118 30.7118 5.99992 30.9103 6H34.5001C34.7762 6.00004 35.0001 6.22388 35.0001 6.5V12.5C35 12.776 34.7761 13 34.5001 13H17.5001C17.2241 12.9999 17.0002 12.776 17.0001 12.5V6.5C17.0001 6.22392 17.224 6.0001 17.5001 6H21.0899C21.2884 5.99997 21.4663 5.88121 21.5577 5.70508C22.3893 4.09862 24.0663 3.00007 26.0001 3Z" fill="oklch(0.3057 0.079 256.22 / 0.13)" class="wd-expressive-accent"></path>
</g>
<g>
<path d="M26 2C28.2218 2 30.1561 3.20968 31.1924 5H34.5C35.1529 5 35.707 5.41766 35.9131 6H41C42.6568 6.00001 44 7.34315 44 9V28.5C44 28.7761 43.7761 29 43.5 29H42.5C42.2239 29 42 28.7761 42 28.5V9C42 8.44772 41.5523 8.00001 41 8H36V10H39C39.2652 10 39.5195 10.1054 39.707 10.293C39.8946 10.4805 40 10.7348 40 11V28.5C40 28.7761 39.7761 29 39.5 29H38.5C38.2239 29 38 28.7761 38 28.5V12H36V12.5C36 13.3284 35.3284 14 34.5 14H17.5C16.6716 14 16 13.3284 16 12.5V12H14V43H29.5C29.7761 43 30 43.2239 30 43.5V44.5C30 44.7761 29.7761 45 29.5 45H13C12.7348 45 12.4805 44.8946 12.293 44.707C12.1054 44.5195 12 44.2652 12 44V11C12 10.4478 12.4478 10.0001 13 10H16V8H11C10.4478 8.00011 10 8.44778 10 9V48C10 48.5523 10.4477 49 11 49H31.5C31.7761 49 32 49.2239 32 49.5V50.5C32 50.7761 31.7761 51 31.5 51H11C9.34315 51 8 49.6568 8 48V9C8.00001 7.34322 9.34324 6.00011 11 6H16.0869C16.293 5.41766 16.8471 5 17.5 5H20.8076C21.8439 3.20968 23.7782 2 26 2ZM26 4C24.4548 4 23.1131 4.8764 22.4463 6.16406C22.2004 6.63899 21.6985 7 21.0898 7H18V12H34V7H30.9102C30.3015 7 29.7996 6.63899 29.5537 6.16406C28.8869 4.8764 27.5452 4 26 4Z" fill="oklch(0.3523 0 0 / 1)" class="wd-expressive-fill"></path>
<path d="M43.001 31C45.1761 31.0001 47.3037 31.6453 49.1123 32.8535C50.9209 34.0621 52.3315 35.7804 53.1641 37.79C53.9965 39.7998 54.2143 42.012 53.79 44.1455C53.3982 46.1154 52.4749 47.9383 51.125 49.417C50.9388 49.6205 50.621 49.6197 50.4258 49.4248L49.7188 48.7178C49.524 48.5226 49.5252 48.2066 49.709 48.001C50.7802 46.8034 51.5134 45.3377 51.8281 43.7559C52.1754 42.0101 51.9965 40.2001 51.3154 38.5557C50.6343 36.9116 49.4806 35.5054 48.001 34.5166C46.5213 33.5282 44.7805 33.0001 43.001 33C41.2215 33.0002 39.4806 33.5281 38.001 34.5166C36.5214 35.5054 35.3676 36.9116 34.6865 38.5557C34.0055 40.2 33.8266 42.0102 34.1738 43.7559C34.4885 45.3377 35.2227 46.8034 36.2939 48.001C36.4776 48.2067 36.4781 48.5226 36.2832 48.7178L35.5762 49.4248C35.381 49.6195 35.064 49.6203 34.8779 49.417C33.528 47.9383 32.6038 46.1154 32.2119 44.1455C31.7877 42.0121 32.0056 39.7997 32.8379 37.79C33.6704 35.7805 35.0812 34.0621 36.8896 32.8535C38.6982 31.6452 40.8259 31.0002 43.001 31Z" fill="oklch(0.3523 0 0 / 1)" class="wd-expressive-fill"></path>
<path d="M47.3389 37.0537C47.7186 36.9305 48.0694 37.2814 47.9463 37.6611C47.3822 39.3982 46.0839 43.1593 45.1221 44.1211C43.9505 45.2922 42.0503 45.2925 40.8789 44.1211C39.7081 42.9496 39.708 41.0493 40.8789 39.8779C41.8406 38.9163 45.6015 37.6179 47.3389 37.0537ZM43.001 41C42.4491 41.0005 42.001 41.448 42.001 42C42.001 42.5519 42.4491 42.9995 43.001 43C43.5531 42.9998 44.0009 42.5521 44.001 42C44.0009 41.4479 43.5531 41.0002 43.001 41Z" fill="oklch(0.3523 0 0 / 1)" class="wd-expressive-fill"></path>
<path d="M20 28C21.6569 28 23 29.3431 23 31C23 32.6569 21.6569 34 20 34C18.3431 34 17 32.6569 17 31C17 29.3431 18.3431 28 20 28ZM20 30C19.4477 30 19 30.4477 19 31C19 31.5523 19.4477 32 20 32C20.5523 32 21 31.5523 21 31C21 30.4477 20.5523 30 20 30Z" fill="oklch(0.3523 0 0 / 1)" class="wd-expressive-fill"></path>
<path d="M28.5 31C28.7761 31 29 31.2239 29 31.5V32.5C29 32.7761 28.7761 33 28.5 33H25.5C25.2239 33 25 32.7761 25 32.5V31.5C25 31.2239 25.2239 31 25.5 31H28.5Z" fill="oklch(0.3523 0 0 / 1)" class="wd-expressive-fill"></path>
<path d="M32.5 28C32.7761 28 33 28.2239 33 28.5V29.5C33 29.7761 32.7761 30 32.5 30H25.5C25.2239 30 25 29.7761 25 29.5V28.5C25 28.2239 25.2239 28 25.5 28H32.5Z" fill="oklch(0.3523 0 0 / 1)" class="wd-expressive-fill"></path>
<path d="M21.9395 19.1465C22.1347 18.9513 22.4512 18.9513 22.6465 19.1465L23.3535 19.8535C23.5487 20.0488 23.5487 20.3653 23.3535 20.5605L20.207 23.707C20.0195 23.8945 19.7652 24 19.5 24C19.2349 24 18.9805 23.8945 18.793 23.707L17.1465 22.0605C16.9513 21.8653 16.9513 21.5488 17.1465 21.3535L17.8535 20.6465C18.0488 20.4513 18.3653 20.4513 18.5605 20.6465L19.5 21.5859L21.9395 19.1465Z" fill="oklch(0.3523 0 0 / 1)" class="wd-expressive-fill"></path>
<path d="M29.5 22C29.7761 22 30 22.2239 30 22.5V23.5C30 23.7761 29.7761 24 29.5 24H25.5C25.2239 24 25 23.7761 25 23.5V22.5C25 22.2239 25.2239 22 25.5 22H29.5Z" fill="oklch(0.3523 0 0 / 1)" class="wd-expressive-fill"></path>
<path d="M34.5 19C34.7761 19 35 19.2239 35 19.5V20.5C35 20.7761 34.7761 21 34.5 21H25.5C25.2239 21 25 20.7761 25 20.5V19.5C25 19.2239 25.2239 19 25.5 19H34.5Z" fill="oklch(0.3523 0 0 / 1)" class="wd-expressive-fill"></path>
</g>
</svg>