<svg role="presentation" width="56" height="56" viewBox="0 0 56 56" xmlns="http://www.w3.org/2000/svg" class="wd-expressive wd-expressive-desk">
<path d="M12.9668 5C13.9786 5.00015 14.8253 5.76839 14.9238 6.77539L16.6074 23.9883C16.8364 26.3294 18.6666 28.1945 21.0029 28.4678L36.3418 30.2607C37.2872 30.3712 38 31.1722 38 32.124C38 33.1601 37.1601 34 36.124 34H16C13.2386 34 11 31.7614 11 29V6.9668C11 5.88073 11.8807 5 12.9668 5Z" fill="oklch(0.3057 0.079 256.22 / 0.13)" class="wd-expressive-accent"></path>
<path d="M12.9668 3.99951C14.493 3.99967 15.7702 5.15827 15.9189 6.67725L17.6025 23.8911C17.7859 25.7638 19.2503 27.2554 21.1191 27.4741L34.3887 29.0249L40.3252 17.9995H24.5C24.224 17.9994 24 17.7756 24 17.4995V16.4995C24.0002 16.2236 24.2241 15.9997 24.5 15.9995H50.5C50.776 15.9995 50.9998 16.2235 51 16.4995V17.4995C51 17.7757 50.7761 17.9995 50.5 17.9995H42.5977L36.5234 29.2778C37.9399 29.476 38.9999 30.6865 39 32.1235C39 33.7119 37.7124 34.9995 36.124 34.9995H33.832C34.3644 35.5941 34.7845 36.2996 35.0498 37.0894L39.79 51.2075C39.8778 51.4693 39.7363 51.7525 39.4746 51.8403L38.5264 52.1587C38.2646 52.2466 37.9815 52.1059 37.8936 51.8442L35.2598 43.9995H15.7422L13.1084 51.8442C13.0205 52.106 12.7364 52.2466 12.4746 52.1587L11.5264 51.8403C11.2647 51.7524 11.124 51.4693 11.2119 51.2075L15.9521 37.0894C16.2174 36.2997 16.6367 35.594 17.1689 34.9995H16C12.6864 34.9994 10 32.3131 10 28.9995V6.96631C10.0002 5.32819 11.3287 3.99967 12.9668 3.99951ZM21.6396 34.9995C19.9215 34.9997 18.3948 36.0974 17.8477 37.7261L16.4131 41.9995H34.5889L33.1543 37.7261C32.6073 36.0974 31.0803 34.9999 29.3623 34.9995H21.6396ZM12.9668 5.99951C12.4332 5.99967 12.0002 6.43276 12 6.96631V28.9995C12 31.2086 13.791 32.9994 16 32.9995H36.124C36.6078 32.9995 37 32.6073 37 32.1235C36.9999 31.6792 36.6669 31.305 36.2256 31.2534L20.8877 29.4604C18.084 29.1326 15.8872 26.8949 15.6123 24.0854L13.9287 6.87158C13.88 6.37701 13.4638 5.99967 12.9668 5.99951Z" fill="oklch(0.3523 0 0 / 1)" class="wd-expressive-fill"></path>
</svg>