<svg role="presentation" width="56" height="56" viewBox="0 0 56 56" xmlns="http://www.w3.org/2000/svg" class="wd-expressive wd-expressive-user-group">
<g>
<path d="M20 41.096V44.0003C20.0001 45.0359 20.7873 45.8873 21.7959 45.9895L22 46.0003H39V49.0003H17V43.2015C17.9144 42.3831 18.9204 41.6648 20.001 41.0647C20.0008 41.0751 20 41.0856 20 41.096Z" fill="oklch(0.3057 0.079 256.22 / 0.13)" class="wd-expressive-accent"></path>
<path d="M25.6084 26.6097C25.221 27.3199 25 28.1343 25 29.0003C25.0001 31.7616 27.2386 34.0003 30 34.0003C30.8662 34.0003 31.6803 33.7785 32.3906 33.3909C31.5426 34.945 29.8951 36.0003 28 36.0003C25.2386 36.0003 23.0001 33.7616 23 31.0003C23 29.1054 24.0547 27.4578 25.6084 26.6097Z" fill="oklch(0.3057 0.079 256.22 / 0.13)" class="wd-expressive-accent"></path>
<path d="M6.97363 24.0804C6.98571 24.0738 7 24.0832 7 24.097V27.0013C7.00052 28.0365 7.78756 28.8883 8.7959 28.9905L9 29.0013H19.6074C19.9337 29.0015 20.1723 29.3095 20.1172 29.6311C20.0404 30.0762 20 30.5344 20 31.0013C20 31.1476 20.0044 31.2934 20.0127 31.4378C20.0297 31.7378 19.7986 32.0013 19.498 32.0013H4.5C4.22389 32.0013 4.00006 31.7774 4 31.5013V26.4261C4 26.2838 4.06073 26.1474 4.16797 26.054C5.02922 25.3038 5.96919 24.6407 6.97363 24.0804Z" fill="oklch(0.3057 0.079 256.22 / 0.13)" class="wd-expressive-accent"></path>
<path d="M51.5 28.0013C51.7761 28.0013 52 28.2251 52 28.5013V30.5013C51.9999 30.7774 51.7761 31.0013 51.5 31.0013H36.5C36.2239 31.0013 36.0015 30.7769 35.9844 30.5013C35.9456 29.8791 35.8352 29.2761 35.6621 28.7005C35.5602 28.3609 35.8037 28.0013 36.1582 28.0013H51.5Z" fill="oklch(0.3057 0.079 256.22 / 0.13)" class="wd-expressive-accent"></path>
<path d="M32.9736 23.0804C32.9857 23.0738 33 23.0832 33 23.097V23.8743C32.9999 24.2297 32.5833 24.4349 32.2832 24.2444C32.0133 24.0728 31.9888 23.6733 32.2598 23.5032C32.4937 23.3565 32.7319 23.2152 32.9736 23.0804Z" fill="oklch(0.3057 0.079 256.22 / 0.13)" class="wd-expressive-accent"></path>
<path d="M11.2803 10.6604C11.6138 10.2896 12.1404 10.7197 12.0625 11.2122C12.0217 11.4691 12 11.733 12 12.0013C12.0006 14.7622 14.2389 17.0013 17 17.0013C17.2684 17.0013 17.5322 16.9797 17.7891 16.9388C18.2815 16.8607 18.7114 17.3864 18.3408 17.72C17.4556 18.5164 16.2844 19.0013 15 19.0013C12.2389 19.0013 10.0006 16.7622 10 14.0013C10 12.717 10.4842 11.5457 11.2803 10.6604Z" fill="oklch(0.3057 0.079 256.22 / 0.13)" class="wd-expressive-accent"></path>
<path d="M37.2803 9.66045C37.6138 9.28943 38.1408 9.71948 38.0625 10.2122C38.0217 10.4693 38 10.7329 38 11.0013C38.0006 13.7622 40.2389 16.0013 43 16.0013C43.2684 16.0013 43.5322 15.9797 43.7891 15.9388C44.2815 15.8607 44.7114 16.3864 44.3408 16.72C43.4556 17.5164 42.2844 18.0013 41 18.0013C38.2389 18.0013 36.0006 15.7622 36 13.0013C36 11.7171 36.4844 10.5459 37.2803 9.66045Z" fill="oklch(0.3057 0.079 256.22 / 0.13)" class="wd-expressive-accent"></path>
</g>
<g>
<path d="M28 38C32.4814 38 36.5716 39.6856 39.667 42.4561C39.8789 42.6457 39.9999 42.9168 40 43.2012V49C40 49.5523 39.5523 50 39 50H17C16.7348 50 16.4805 49.8946 16.293 49.707C16.1054 49.5195 16 49.2652 16 49V43.2012C16.0001 42.9168 16.1211 42.6457 16.333 42.4561C19.4284 39.6856 23.5186 38 28 38ZM28 40C24.1881 40 20.6998 41.375 18 43.6572V48H38V43.6572C35.3002 41.375 31.8119 40 28 40Z" fill="oklch(0.3523 0 0 / 1)" class="wd-expressive-fill"></path>
<path d="M28 25C31.3137 25 34 27.6863 34 31C34 34.3137 31.3137 37 28 37C24.6863 37 22 34.3137 22 31C22 27.6863 24.6863 25 28 25ZM28 27C25.7909 27 24 28.7909 24 31C24 33.2091 25.7909 35 28 35C30.2091 35 32 33.2091 32 31C32 28.7909 30.2091 27 28 27Z" fill="oklch(0.3523 0 0 / 1)" class="wd-expressive-fill"></path>
<path d="M15 21C17.8987 21 20.6354 21.7057 23.0449 22.9551C23.29 23.0822 23.3762 23.3875 23.2422 23.6289L22.7578 24.502C22.6237 24.7434 22.3189 24.8303 22.0732 24.7041C19.9535 23.615 17.5499 23 15 23C11.2716 23 7.85293 24.3157 5.17871 26.5088C5.06492 26.6021 5 26.7425 5 26.8896V30.5C5 30.7761 5.22386 31 5.5 31H19.5C19.7761 31 20 31.2239 20 31.5V32.5C20 32.7761 19.7761 33 19.5 33H4C3.73478 33 3.48051 32.8946 3.29297 32.707C3.10543 32.5195 3 32.2652 3 32V26.2012C3.00007 25.9168 3.12112 25.6457 3.33301 25.4561C6.42842 22.6856 10.5186 21 15 21Z" fill="oklch(0.3523 0 0 / 1)" class="wd-expressive-fill"></path>
<path d="M41 20C45.4813 20 49.5716 21.6857 52.667 24.4561C52.8788 24.6457 52.9999 24.9169 53 25.2012V31C53 31.5522 52.5522 31.9999 52 32H36.5C36.2239 32 36 31.7761 36 31.5V30.5C36 30.2239 36.2239 30 36.5 30H50.5C50.7761 29.9999 51 29.7761 51 29.5V25.8896C51 25.7425 50.9351 25.6021 50.8213 25.5088C48.1471 23.3157 44.7283 22 41 22C38.0586 22 35.3103 22.818 32.9688 24.2393C32.7326 24.3825 32.4232 24.3183 32.2725 24.0869L32 23.668L31.7275 23.25C31.5767 23.0187 31.6414 22.7077 31.877 22.5635C34.5339 20.9374 37.659 20 41 20Z" fill="oklch(0.3523 0 0 / 1)" class="wd-expressive-fill"></path>
<path d="M15 8C18.3137 8 21 10.6863 21 14C21 17.3137 18.3137 20 15 20C11.6863 20 9 17.3137 9 14C9 10.6863 11.6863 8 15 8ZM15 10C12.7909 10 11 11.7909 11 14C11 16.2091 12.7909 18 15 18C17.2091 18 19 16.2091 19 14C19 11.7909 17.2091 10 15 10Z" fill="oklch(0.3523 0 0 / 1)" class="wd-expressive-fill"></path>
<path d="M41 7C44.3137 7 47 9.68629 47 13C47 16.3137 44.3137 19 41 19C37.6863 19 35 16.3137 35 13C35 9.68629 37.6863 7 41 7ZM41 9C38.7909 9 37 10.7909 37 13C37 15.2091 38.7909 17 41 17C43.2091 17 45 15.2091 45 13C45 10.7909 43.2091 9 41 9Z" fill="oklch(0.3523 0 0 / 1)" class="wd-expressive-fill"></path>
</g>
</svg>