<svg role="presentation" width="56" height="56" viewBox="0 0 56 56" xmlns="http://www.w3.org/2000/svg" class="wd-expressive wd-expressive-document-user">
<g>
<path d="M14 49.5C14 49.7761 14.2239 50 14.5 50H45V52.5C45 52.7761 44.7761 53 44.5 53H11.5C11.2239 53 11 52.7761 11 52.5V3.5C11 3.22386 11.2239 3 11.5 3H14V49.5Z" fill="oklch(0.3057 0.079 256.22 / 0.13)" class="wd-expressive-accent"></path>
<path d="M26.001 21C28.6899 21.0002 31.1435 22.0113 33.001 23.6738V25H21V22.2666C22.4868 21.4597 24.1904 21 26.001 21Z" fill="oklch(0.3057 0.079 256.22 / 0.13)" class="wd-expressive-accent"></path>
<path d="M26.001 12C27.6575 12.0004 29.001 13.3434 29.001 15C29.001 15.3028 28.9536 15.5946 28.8701 15.8701C28.5947 15.9535 28.3026 16 28 16C26.3433 15.9999 25 14.6568 25 13C25 12.697 25.0454 12.4046 25.1289 12.1289C25.4047 12.0453 25.6979 12 26.001 12Z" fill="oklch(0.3057 0.079 256.22 / 0.13)" class="wd-expressive-accent"></path>
</g>
<g>
<path d="M30.499 40.9995C30.775 40.9995 30.9988 41.2236 30.999 41.4995V42.4995C30.999 42.7757 30.7752 42.9995 30.499 42.9995H17.499C17.223 42.9993 16.999 42.7756 16.999 42.4995V41.4995C16.9992 41.2237 17.2232 40.9997 17.499 40.9995H30.499Z" fill="oklch(0.3523 0 0 / 1)" class="wd-expressive-fill"></path>
<path d="M38.499 35.9995C38.775 35.9995 38.9988 36.2236 38.999 36.4995V37.4995C38.999 37.7757 38.7752 37.9995 38.499 37.9995H17.499C17.223 37.9993 16.999 37.7756 16.999 37.4995V36.4995C16.9992 36.2237 17.2232 35.9997 17.499 35.9995H38.499Z" fill="oklch(0.3523 0 0 / 1)" class="wd-expressive-fill"></path>
<path d="M38.499 30.9995C38.775 30.9995 38.9988 31.2236 38.999 31.4995V32.4995C38.999 32.7757 38.7752 32.9995 38.499 32.9995H17.499C17.223 32.9993 16.999 32.7756 16.999 32.4995V31.4995C16.9992 31.2237 17.2232 30.9997 17.499 30.9995H38.499Z" fill="oklch(0.3523 0 0 / 1)" class="wd-expressive-fill"></path>
<path d="M28 18.0005C30.9446 18.0006 33.6332 19.1089 35.667 20.9292C35.8787 21.1189 36 21.3901 36 21.6743V25.0005C35.9999 25.5525 35.552 26.0003 35 26.0005H21C20.4478 26.0005 20.0001 25.5527 20 25.0005V21.6743C20 21.3899 20.1212 21.1189 20.333 20.9292C22.3669 19.1088 25.0553 18.0005 28 18.0005ZM28 20.0005C25.7238 20.0005 23.6362 20.7997 22 22.1343V24.0005H34V22.1343C32.3638 20.7997 30.2761 20.0006 28 20.0005Z" fill="oklch(0.3523 0 0 / 1)" class="wd-expressive-fill"></path>
<path d="M28 9.00049C30.209 9.00067 32 10.7915 32 13.0005C31.9999 15.2094 30.2089 17.0003 28 17.0005C25.7909 17.0005 24.0001 15.2095 24 13.0005C24 10.7913 25.7909 9.00049 28 9.00049ZM28 11.0005C26.8954 11.0005 26 11.8959 26 13.0005C26.0001 14.1049 26.8955 15.0005 28 15.0005C29.1043 15.0003 29.9999 14.1048 30 13.0005C30 11.896 29.1044 11.0007 28 11.0005Z" fill="oklch(0.3523 0 0 / 1)" class="wd-expressive-fill"></path>
<path d="M43 2.00049C44.6567 2.00067 46 3.34375 46 5.00049V51.0005C45.9999 52.6571 44.6566 54.0003 43 54.0005H13C11.3432 54.0005 10.0001 52.6572 10 51.0005V5.00049C10 3.34364 11.3431 2.00049 13 2.00049H43ZM13 4.00049C12.4477 4.00049 12 4.4482 12 5.00049V51.0005C12.0001 51.5527 12.4478 52.0005 13 52.0005H43C43.552 52.0003 43.9999 51.5525 44 51.0005V5.00049C44 4.44832 43.5521 4.00067 43 4.00049H13Z" fill="oklch(0.3523 0 0 / 1)" class="wd-expressive-fill"></path>
</g>
</svg>