<svg role="presentation" width="56" height="56" viewBox="0 0 56 56" xmlns="http://www.w3.org/2000/svg" class="wd-expressive wd-expressive-sunburst-chart-user">
<g>
<path d="M45.0921 35.0811C45.3468 35.1868 45.4686 35.4795 45.3567 35.7315C43.4474 40.0183 40.0175 43.4481 35.7307 45.3575C35.4786 45.4696 35.185 45.3478 35.0794 45.0928L32.5921 39.0879C32.6635 39.0583 32.7333 39.0242 32.804 38.9932C31.3328 39.6384 29.7087 40 27.9993 40C24.421 39.9999 21.2105 38.4317 19.012 35.9473C21.0503 34.7117 23.4417 34.0001 25.9993 34C29.3764 34 32.4639 35.2405 34.8313 37.2901C34.9388 37.3832 34.9993 37.519 34.9993 37.6612V37.7413C36.7986 36.4464 38.2265 34.669 39.0872 32.5938L45.0921 35.0811Z" fill="oklch(0.3057 0.079 256.22 / 0.13)" class="wd-expressive-accent"></path>
<path d="M46.9446 20.1543C47.1983 20.0525 47.4881 20.1733 47.5872 20.4288C49.4707 25.3006 49.4706 30.7015 47.5872 35.5733C47.4874 35.8305 47.1947 35.9513 46.9397 35.8458L39.0872 32.5938C39.6737 31.1791 40.0002 29.6278 40.0003 28.001C40.0003 26.3739 39.6739 24.8231 39.0872 23.4082L46.9446 20.1543Z" fill="oklch(0.3057 0.079 256.22 / 0.13)" class="wd-expressive-accent"></path>
<path d="M25.9993 23C28.2084 23 29.9993 24.7909 29.9993 27C29.9993 27.5869 29.8709 28.1434 29.6438 28.6456C29.1421 28.8721 28.5855 29 27.9993 29C25.7904 28.9998 23.9994 27.2089 23.9993 25C23.9993 24.4134 24.1269 23.8565 24.3538 23.3545C24.8557 23.1276 25.4126 23.0001 25.9993 23Z" fill="oklch(0.3057 0.079 256.22 / 0.13)" class="wd-expressive-accent"></path>
<path d="M34.3137 12.7559C34.4196 12.5017 34.7127 12.3799 34.9641 12.4922C38.7613 14.1974 41.8027 17.2382 43.5081 21.0352C43.6211 21.287 43.4983 21.5808 43.2434 21.6866L39.0872 23.4082C37.8705 20.4749 35.5247 18.1292 32.5911 16.9131L34.3137 12.7559Z" fill="oklch(0.3057 0.079 256.22 / 0.13)" class="wd-expressive-accent"></path>
<path d="M21.0354 12.4922C21.2833 12.3813 21.5704 12.4982 21.68 12.7452L23.4065 16.9131C20.4741 18.1294 18.1278 20.4739 16.9114 23.4063L12.7561 21.6856C12.5012 21.5799 12.3796 21.287 12.4925 21.0352C14.1978 17.2383 17.2385 14.1975 21.0354 12.4922Z" fill="oklch(0.3057 0.079 256.22 / 0.13)" class="wd-expressive-accent"></path>
</g>
<g>
<path d="M28.0001 20.0002C30.7615 20.0002 33 22.2388 33.0001 25.0002C33.0001 27.7616 30.7615 30.0002 28.0001 30.0002C25.2389 30 23.0001 27.7615 23.0001 25.0002C23.0002 22.2389 25.2389 20.0004 28.0001 20.0002ZM28.0001 22.0002C26.3435 22.0004 25.0002 23.3435 25.0001 25.0002C25.0001 26.6569 26.3434 28 28.0001 28.0002C29.657 28.0002 31.0001 26.657 31.0001 25.0002C31 23.3434 29.6569 22.0002 28.0001 22.0002Z" fill="oklch(0.3523 0 0 / 1)" class="wd-expressive-fill"></path>
<path d="M19.4659 4.50309C25.1622 2.43412 31.4257 2.50421 37.0841 4.7111C37.8756 5.02001 38.2318 5.91271 37.9171 6.67302L36.9503 9.00407L36.962 9.00993C41.3707 11.0901 44.9196 14.6409 46.9972 19.0509L49.3292 18.0851C50.042 17.7902 50.8713 18.0854 51.2267 18.7756L51.2911 18.9191L51.4991 19.4689C53.5678 25.165 53.498 31.4279 51.2911 37.0861C50.9821 37.8773 50.0894 38.2338 49.3292 37.9191L46.0714 36.5695C44.095 40.7382 40.7363 44.0971 36.5675 46.0734L37.9171 49.3312C38.2316 50.0914 37.8755 50.9842 37.0841 51.2931C31.2433 53.571 24.7579 53.5711 18.9171 51.2931C18.1258 50.9843 17.7698 50.0914 18.0841 49.3312L22.1154 39.5949C17.8931 37.4475 15.0001 33.0616 15.0001 28.0002C15.0001 26.5915 15.2253 25.2353 15.6398 23.965L9.60169 21.464C8.84324 21.1495 8.45898 20.2642 8.80481 19.4836L9.00794 19.0412C11.0879 14.6329 14.6393 11.0837 19.049 9.00602L18.0831 6.67302C17.7685 5.91284 18.1259 5.02014 18.9171 4.7111L19.4659 4.50309ZM20.131 49.6134C25.2129 51.4642 30.7872 51.4638 35.8693 49.6134L32.0363 40.3605C30.7657 40.7751 29.4091 41.0002 28.0001 41.0002C26.5903 41.0001 25.2333 40.7746 23.962 40.3595L20.131 49.6134ZM39.5939 33.8859C38.3451 36.3409 36.3401 38.3464 33.8849 39.5949L35.7306 44.0529L35.8019 44.2228C39.4816 42.4532 42.4501 39.4826 44.2198 35.8029L39.5939 33.8859ZM28.0001 33.0002C25.0435 33.0002 22.3316 34.0295 20.1915 35.7453C22.1845 37.7546 24.9464 39.0001 28.0001 39.0002C31.0538 39.0002 33.8157 37.7545 35.8087 35.7453C33.6686 34.0296 30.9567 33.0002 28.0001 33.0002ZM40.3595 23.9631C40.7744 25.234 41.0001 26.5906 41.0001 28.0002C41.0001 29.41 40.7746 30.767 40.3595 32.0382L49.6115 35.8713C51.4621 30.7891 51.4622 25.2151 49.6115 20.133L40.3595 23.9631ZM28.0001 17.0002C21.9252 17.0004 17.0002 21.9252 17.0001 28.0002C17.0001 30.3007 17.7077 32.4357 18.9152 34.2013L18.9991 34.132C21.4716 32.172 24.6002 31.0002 28.0001 31.0002C31.4392 31.0002 34.5995 32.2005 37.0851 34.2013C38.2927 32.4356 39.0001 30.3008 39.0001 28.0002C39 21.9251 34.0752 17.0002 28.0001 17.0002ZM19.8146 10.8556C15.8908 12.7287 12.7266 15.8937 10.8536 19.8175L16.4054 22.1164C17.6537 19.6612 19.6586 17.6554 22.1134 16.4064L19.8146 10.8556ZM33.8849 16.4045C36.3402 17.6529 38.345 19.6593 39.5939 22.1144L45.1456 19.8156C43.3309 16.0142 40.305 12.9263 36.5499 11.0343L36.1847 10.8547L33.8849 16.4045ZM35.8693 6.38981C30.7872 4.53937 25.213 4.53918 20.131 6.38981L23.9611 15.6408C25.2325 15.2255 26.59 15.0002 28.0001 15.0002C29.4091 15.0002 30.7657 15.2253 32.0363 15.6398L35.8693 6.38981Z" fill="oklch(0.3523 0 0 / 1)" class="wd-expressive-fill"></path>
</g>
</svg>