<svg role="presentation" width="56" height="56" viewBox="0 0 56 56" xmlns="http://www.w3.org/2000/svg" class="wd-expressive wd-expressive-fingerprint-android">
<g>
<path d="M28.0003 16C30.4952 16 32.9658 16.4916 35.2708 17.4463C37.5759 18.4011 39.6706 19.8012 41.4349 21.5654C43.1991 23.3297 44.5992 25.4244 45.554 27.7295C46.5087 30.0345 47.0003 32.5051 47.0003 35C47.0003 35.9192 46.8188 36.8295 46.4671 37.6787C46.1153 38.5279 45.6004 39.3002 44.9505 39.9502C44.3006 40.6001 43.5282 41.115 42.679 41.4668C41.8298 41.8185 40.9194 42 40.0003 42C39.0811 42 38.1708 41.8185 37.3216 41.4668C36.4724 41.115 35.7001 40.6001 35.0501 39.9502C34.4001 39.3002 33.8853 38.5279 33.5335 37.6787C33.1817 36.8294 33.0003 35.9193 33.0003 35C33.0003 34.3435 32.8706 33.6935 32.6194 33.0869C32.3682 32.4803 31.9997 31.9291 31.5354 31.4648C31.0712 31.0006 30.5199 30.6321 29.9134 30.3809C29.3069 30.1297 28.6567 30 28.0003 30C27.3438 30 26.6937 30.1297 26.0872 30.3809C25.4806 30.6321 24.9294 31.0006 24.4651 31.4648C24.0009 31.9291 23.6324 32.4803 23.3811 33.0869C23.1299 33.6935 23.0003 34.3435 23.0003 35C23.0003 38.333 23.98 41.5924 25.8177 44.373C27.5633 47.0143 30.0103 49.1131 32.8792 50.4365C33.13 50.5522 33.2491 50.8456 33.1409 51.0996L32.7483 52.0195C32.64 52.2735 32.3461 52.3922 32.095 52.2773C28.8656 50.7998 26.1116 48.4449 24.1497 45.4766C22.0957 42.3687 21.0003 38.7253 21.0003 35C21.0003 34.0807 21.1817 33.1706 21.5335 32.3213C21.8853 31.4721 22.4001 30.6998 23.0501 30.0498C23.7001 29.3999 24.4724 28.885 25.3216 28.5332C26.1708 28.1815 27.0811 28 28.0003 28C28.9194 28 29.8298 28.1815 30.679 28.5332C31.5282 28.885 32.3006 29.3999 32.9505 30.0498C33.6004 30.6998 34.1153 31.4721 34.4671 32.3213C34.8188 33.1705 35.0003 34.0808 35.0003 35C35.0003 35.6565 35.1299 36.3065 35.3811 36.9131C35.6324 37.5197 36.0009 38.0709 36.4651 38.5352C36.9294 38.9994 37.4806 39.3679 38.0872 39.6191C38.6937 39.8703 39.3438 40 40.0003 40C40.6567 40 41.3069 39.8703 41.9134 39.6191C42.5199 39.3679 43.0712 38.9994 43.5354 38.5352C43.9997 38.0709 44.3682 37.5197 44.6194 36.9131C44.8706 36.3065 45.0003 35.6565 45.0003 35C45.0003 32.7676 44.5606 30.5566 43.7063 28.4941C42.852 26.4317 41.5993 24.558 40.0208 22.9795C38.4423 21.401 36.5685 20.1483 34.5061 19.2939C32.4437 18.4397 30.2327 18 28.0003 18C25.7679 18 23.5569 18.4397 21.4944 19.2939C19.432 20.1482 17.5583 21.401 15.9798 22.9795C14.4013 24.558 13.1486 26.4317 12.2942 28.4941C11.4399 30.5567 11.0003 32.7675 11.0003 35C11.0003 38.6766 11.6786 42.23 12.9114 45.1543C13.0187 45.4087 12.9071 45.7046 12.6556 45.8184L11.7444 46.2305C11.4928 46.3441 11.196 46.2327 11.0882 45.9785C9.72479 42.7653 9.00029 38.9235 9.00029 35C9.00029 32.505 9.49185 30.0346 10.4466 27.7295C11.4014 25.4243 12.8014 23.3297 14.5657 21.5654C16.33 19.8012 18.4247 18.4011 20.7298 17.4463C23.0348 16.4916 25.5054 16 28.0003 16Z" fill="oklch(0.3523 0 0 / 1)" class="wd-expressive-fill"></path>
<path d="M28.0003 22C29.7072 22.0001 31.3979 22.3361 32.9749 22.9893C34.552 23.6426 35.9856 24.6006 37.1927 25.8076C38.3997 27.0147 39.3578 28.4483 40.011 30.0254C40.6642 31.6025 41.0003 33.293 41.0003 35V35.5C41.0003 35.776 40.7763 35.9998 40.5003 36H39.5003C39.2241 36 39.0003 35.7761 39.0003 35.5V35C39.0003 33.5555 38.7161 32.1246 38.1634 30.79C37.6106 29.4557 36.7999 28.243 35.7786 27.2217C34.7573 26.2004 33.5446 25.3897 32.2102 24.8369C30.8758 24.2842 29.4447 24.0001 28.0003 24C26.5559 24 25.1248 24.2842 23.7903 24.8369C22.456 25.3897 21.2433 26.2004 20.222 27.2217C19.2006 28.243 18.39 29.4556 17.8372 30.79C17.3535 31.9578 17.0749 33.1992 17.013 34.459L17.0003 35C17.0003 40.4152 18.9106 45.6512 22.386 49.79C22.5635 50.0015 22.5437 50.3169 22.3362 50.499L21.5843 51.1592C21.3767 51.3411 21.06 51.3204 20.8821 51.1094C17.0868 46.6054 15.0003 40.9005 15.0003 35C15.0003 33.2929 15.3363 31.6025 15.9895 30.0254C16.6429 28.4482 17.6008 27.0147 18.8079 25.8076C20.015 24.6006 21.4486 23.6425 23.0257 22.9893C24.6027 22.3362 26.2934 22 28.0003 22Z" fill="oklch(0.3523 0 0 / 1)" class="wd-expressive-fill"></path>
<path d="M28.5003 34C28.7763 34.0001 29.0003 34.2239 29.0003 34.5V35C29.0003 36.7223 29.4047 38.4206 30.181 39.958C30.9574 41.4955 32.0839 42.8301 33.47 43.8525C34.8561 44.8749 36.4633 45.5578 38.1614 45.8457C39.6951 46.1057 41.265 46.0368 42.7669 45.6465C43.0339 45.5772 43.3132 45.7238 43.3948 45.9873L43.5433 46.4648L43.6907 46.9434C43.772 47.2071 43.6244 47.4883 43.3577 47.5596C41.5562 48.0412 39.6698 48.1297 37.8274 47.8174C35.8207 47.4772 33.9215 46.6701 32.2835 45.4619C30.6455 44.2536 29.3134 42.6773 28.3958 40.8604C27.4782 39.0433 27.0003 37.0356 27.0003 35V34.5C27.0003 34.2239 27.2241 34 27.5003 34H28.5003Z" fill="oklch(0.3523 0 0 / 1)" class="wd-expressive-fill"></path>
<path d="M28.0003 10C32.3885 10.0001 36.7 11.1555 40.5003 13.3496C44.156 15.4603 47.2152 18.4612 49.3958 22.0693C49.5386 22.3057 49.4563 22.6119 49.2171 22.75L48.3519 23.25C48.1127 23.3881 47.8076 23.3054 47.6644 23.0693C45.6595 19.765 42.8521 17.0163 39.5003 15.0811C36.004 13.0626 32.0374 12.0001 28.0003 12C23.9632 12 19.9966 13.0626 16.5003 15.0811C13.1484 17.0163 10.3401 19.7649 8.33525 23.0693C8.19196 23.3054 7.88688 23.3881 7.64775 23.25L7.21611 23L6.78251 22.75C6.54336 22.6119 6.46097 22.3057 6.6038 22.0693C8.78445 18.461 11.8444 15.4604 15.5003 13.3496C19.3006 11.1555 23.6121 10 28.0003 10Z" fill="oklch(0.3523 0 0 / 1)" class="wd-expressive-fill"></path>
<path d="M27.9993 4C32.4513 4.00004 36.8498 4.95925 40.8948 6.80957C41.146 6.92445 41.2511 7.22342 41.1321 7.47266L40.7015 8.375C40.5825 8.62401 40.2846 8.72969 40.0335 8.61523C36.2574 6.89302 32.1534 6.00004 27.9993 6C23.8452 6 19.7412 6.89304 15.9651 8.61523C15.7139 8.72974 15.4151 8.62415 15.2962 8.375L14.8665 7.47266C14.7475 7.22341 14.8527 6.92445 15.1038 6.80957C19.1489 4.95928 23.5473 4 27.9993 4Z" fill="oklch(0.3523 0 0 / 1)" class="wd-expressive-fill"></path>
</g>
</svg>