<svg role="presentation" width="56" height="56" viewBox="0 0 56 56" xmlns="http://www.w3.org/2000/svg" class="wd-expressive wd-expressive-mail-admission">
<g>
<path d="M14 26.6992L9.96191 24.2197C13.0104 35.0559 22.9646 42.9999 34.7754 43H49V46.5C48.9998 46.776 48.776 47 48.5 47H7.5C7.22397 47 7.00018 46.776 7 46.5V22L14 16.666V26.6992Z" fill="oklch(0.3057 0.079 256.22 / 0.13)" class="wd-expressive-accent"></path>
<path d="M49 22V22.4004L42 26.7002V16.666L49 22Z" fill="oklch(0.3057 0.079 256.22 / 0.13)" class="wd-expressive-accent"></path>
</g>
<g>
<path d="M34.5 24C34.7761 24 35 24.2239 35 24.5V25.5C34.9998 25.776 34.776 26 34.5 26H18.5C18.224 26 18.0002 25.776 18 25.5V24.5C18 24.2239 18.2239 24 18.5 24H34.5Z" fill="oklch(0.3523 0 0 / 1)" class="wd-expressive-fill"></path>
<path d="M37.5 20C37.7761 20 38 20.2239 38 20.5V21.5C37.9998 21.776 37.776 22 37.5 22H18.5C18.224 22 18.0002 21.776 18 21.5V20.5C18 20.2239 18.2239 20 18.5 20H37.5Z" fill="oklch(0.3523 0 0 / 1)" class="wd-expressive-fill"></path>
<path d="M33.5791 9.09863C33.8538 9.01835 34.1462 9.01835 34.4209 9.09863L34.5566 9.14551L38.9072 10.8857C39.1634 10.9883 39.2878 11.2789 39.1855 11.5352L38.8145 12.4639C38.712 12.7202 38.4214 12.8454 38.165 12.7432L38 12.6768V15H38.5C38.7761 15 39 15.2239 39 15.5V16.5C38.9999 16.7761 38.7761 17 38.5 17H29.5C29.2239 17 29.0001 16.7761 29 16.5V15.5C29 15.2239 29.2239 15 29.5 15H30V12.6768L29.8359 12.7432C29.5795 12.8457 29.288 12.7204 29.1855 12.4639L28.8145 11.5352C28.7123 11.279 28.8367 10.9883 29.0928 10.8857L33.4434 9.14551L33.5791 9.09863ZM32 12V15H33V12H32ZM35 12V15H36V12H35Z" fill="oklch(0.3523 0 0 / 1)" class="wd-expressive-fill"></path>
<path d="M22.5 13C22.7761 13 23 13.2239 23 13.5V14.5C22.9998 14.776 22.776 15 22.5 15H18.5C18.224 15 18.0002 14.776 18 14.5V13.5C18 13.2239 18.2239 13 18.5 13H22.5Z" fill="oklch(0.3523 0 0 / 1)" class="wd-expressive-fill"></path>
<path d="M25.5 10C25.7761 10 26 10.2239 26 10.5V11.5C25.9998 11.776 25.776 12 25.5 12H18.5C18.224 12 18.0002 11.776 18 11.5V10.5C18 10.2239 18.2239 10 18.5 10H25.5Z" fill="oklch(0.3523 0 0 / 1)" class="wd-expressive-fill"></path>
<path d="M40 5C41.6569 5 43 6.34315 43 8V16.1719L49.4092 21.0547C49.7813 21.3384 50 21.78 50 22.248V46.5C49.9998 47.3283 49.3283 48 48.5 48H7.5C6.67169 48 6.00019 47.3283 6 46.5V22.248C6 21.78 6.21865 21.3384 6.59082 21.0547L13 16.1719V8C13 6.34315 14.3431 5 16 5H40ZM8.41406 46H47.5859L33.5859 32H22.4141L8.41406 46ZM8 43.5859L20.0156 31.5693L8 24.1885V43.5859ZM35.9834 31.5693L48 43.5859V24.1885L35.9834 31.5693ZM16 7C15.4477 7 15 7.44772 15 8V26.1396L21.2832 30H34.7168L41 26.1396V8C41 7.44772 40.5523 7 40 7H16ZM8.47461 22.1318L13 24.9111V18.6846L8.47461 22.1318ZM43 24.9111L47.5244 22.1318L43 18.6846V24.9111Z" fill="oklch(0.3523 0 0 / 1)" class="wd-expressive-fill"></path>
</g>
</svg>