<svg role="presentation" width="56" height="56" viewBox="0 0 56 56" xmlns="http://www.w3.org/2000/svg" class="wd-expressive wd-expressive-user-briefcase">
<g>
<path d="M47 39.0007C48.1046 39.0007 49 39.8961 49 41.0007V49.0007C48.9998 50.105 48.1044 51.0007 47 51.0007H35C33.8956 51.0007 33.0002 50.105 33 49.0007V41.0007C33 39.8961 33.8954 39.0007 35 39.0007H47Z" fill="oklch(0.3057 0.079 256.22 / 0.13)" class="wd-expressive-accent"></path>
<path d="M9.78973 34.7954C9.87763 34.733 10 34.807 10 34.9147V43.9997C10 45.0353 10.7872 45.8867 11.7959 45.9889L12 45.9997H29.5C29.7761 45.9997 30 46.2235 30 46.4997V48.4997C30 48.7758 29.7761 48.9997 29.5 48.9997H9L8.7959 48.9889C7.78724 48.8867 7 48.0353 7 46.9997V37.9147C7.00012 37.346 7.24049 36.8015 7.6748 36.4343C8.35543 35.8589 9.06135 35.3122 9.78973 34.7954Z" fill="oklch(0.3057 0.079 256.22 / 0.13)" class="wd-expressive-accent"></path>
<path d="M20.807 7.05584C21.1808 6.66894 21.7521 7.15501 21.5723 7.66202C21.202 8.70574 21 9.82905 21 10.9997C21 16.5225 25.4772 20.9997 31 20.9997C32.1707 20.9997 33.2937 20.7974 34.3372 20.4268C34.8441 20.2467 35.3301 20.8178 34.9433 21.1917C33.1453 22.9297 30.6984 23.9997 28 23.9997C22.4772 23.9997 18 19.5225 18 13.9997C18.0001 11.3016 19.0695 8.85416 20.807 7.05584Z" fill="oklch(0.3057 0.079 256.22 / 0.13)" class="wd-expressive-accent"></path>
</g>
<g>
<path d="M42 32C43.6982 32 45.2577 32.6058 46.4697 33.6123C46.823 33.9057 46.9999 34.3318 47 34.751V36H50.5C51.3284 36 52 36.6716 52 37.5V50.5C52 51.3284 51.3284 52 50.5 52H33.5C32.6716 52 32 51.3284 32 50.5V37.5C32 36.6716 32.6716 36 33.5 36H37V34.751C37.0001 34.3318 37.177 33.9057 37.5303 33.6123L37.7617 33.4287C38.938 32.5328 40.4079 32 42 32ZM50 43.5918C47.9674 44.939 45.5764 45.7902 43 45.9658V46.5C43 46.7761 42.7761 47 42.5 47H41.5C41.2239 47 41 46.7761 41 46.5V45.9658C38.4236 45.7902 36.0326 44.939 34 43.5918V50H50V43.5918ZM34 41.1025C35.9286 42.7112 38.3466 43.7471 41 43.957V43.5C41 43.2239 41.2239 43 41.5 43H42.5C42.7761 43 43 43.2239 43 43.5V43.957C45.6534 43.7471 48.0714 42.7112 50 41.1025V38H34V41.1025ZM42 34C40.8733 34 39.8358 34.3719 39 35V36H45V35C44.1642 34.3719 43.1267 34 42 34Z" fill="oklch(0.3523 0 0 / 1)" class="wd-expressive-fill"></path>
<path d="M28 28C31.05 28 34.0034 28.4204 36.8047 29.207C37.0705 29.2817 37.2213 29.5606 37.1426 29.8252L36.8574 30.7832C36.7786 31.0479 36.5003 31.1984 36.2344 31.124C33.6161 30.3917 30.8546 30 28 30C20.4988 30 13.6325 32.7071 8.32031 37.1982C8.12216 37.3658 8 37.6251 8 37.915V47C8 47.5523 8.44772 48 9 48H29.5C29.7761 48 30 48.2239 30 48.5V49.5C30 49.7761 29.7761 50 29.5 50H9C7.34315 50 6 48.6569 6 47V37.915C6 37.0672 6.35863 36.2379 7.0293 35.6709C12.689 30.886 20.0086 28 28 28Z" fill="oklch(0.3523 0 0 / 1)" class="wd-expressive-fill"></path>
<path d="M28 3C34.0751 3 39 7.92487 39 14C39 20.0751 34.0751 25 28 25C21.9249 25 17 20.0751 17 14C17 7.92487 21.9249 3 28 3ZM28 5C23.0294 5 19 9.02944 19 14C19 18.9706 23.0294 23 28 23C32.9706 23 37 18.9706 37 14C37 9.02944 32.9706 5 28 5Z" fill="oklch(0.3523 0 0 / 1)" class="wd-expressive-fill"></path>
</g>
</svg>