<svg role="presentation" width="56" height="56" viewBox="0 0 56 56" xmlns="http://www.w3.org/2000/svg" class="wd-expressive wd-expressive-flag">
<path d="M13 3C14.6569 3 16 4.34315 16 6C16 7.13085 15.3733 8.11374 14.4492 8.625C14.7895 8.98357 15 9.46661 15 10V53.5C15 53.7761 14.7761 54 14.5 54H11.5C11.2239 54 11 53.7761 11 53.5V10C11 9.46686 11.2098 8.98352 11.5498 8.625C10.6261 8.11362 10 7.13054 10 6C10 4.34315 11.3431 3 13 3Z" fill="oklch(0.3057 0.079 256.22 / 0.13)" class="wd-expressive-accent"></path>
<path d="M12.9996 2C13.8799 2.00002 14.7357 2.2904 15.4342 2.82617C16.1327 3.36221 16.635 4.11433 16.8629 4.96484C17.0907 5.81525 17.0318 6.71686 16.6949 7.53027C16.4839 8.03963 16.1703 8.49545 15.7789 8.87402C15.92 9.2219 15.9996 9.6015 15.9996 10H50.9996C51.5519 10 51.9996 10.4477 51.9996 11V34C51.9996 34.5523 51.5519 35 50.9996 35H15.9996V53.5C15.9996 53.7761 15.7757 54 15.4996 54H14.4996C14.2235 54 13.9996 53.7761 13.9996 53.5V10C13.9996 9.44774 13.5519 9.00004 12.9996 9C12.4473 9 11.9996 9.44772 11.9996 10V53.5C11.9996 53.7761 11.7757 54 11.4996 54H10.4996C10.2235 54 9.99961 53.7761 9.99961 53.5V10C9.99961 9.60206 10.0777 9.22248 10.2184 8.875C9.82722 8.49652 9.5152 8.03943 9.3043 7.53027C8.96745 6.71685 8.90846 5.81526 9.13633 4.96484C9.36423 4.11432 9.86647 3.3622 10.565 2.82617C11.2635 2.29041 12.1193 2 12.9996 2ZM19.9996 33H49.9996V12H19.9996V33ZM15.9996 33H17.9996V12H15.9996V33ZM12.9996 4C12.5594 4 12.1311 4.14509 11.7818 4.41309C11.4326 4.6811 11.1819 5.05719 11.068 5.48242C10.954 5.90769 10.9835 6.35887 11.152 6.76562C11.2461 6.99289 11.3815 7.19865 11.5484 7.375C11.9786 7.1367 12.473 7 12.9996 7C13.5259 7.00001 14.0198 7.13692 14.4498 7.375C14.617 7.19855 14.753 6.99308 14.8473 6.76562C15.0157 6.35889 15.0452 5.90767 14.9312 5.48242C14.8173 5.0572 14.5666 4.6811 14.2174 4.41309C13.8681 4.14508 13.4398 4.00002 12.9996 4Z" fill="oklch(0.3523 0 0 / 1)" class="wd-expressive-fill"></path>
</svg>