<svg role="presentation" width="56" height="56" viewBox="0 0 56 56" xmlns="http://www.w3.org/2000/svg" class="wd-expressive wd-expressive-map">
<g>
<path d="M32.7148 40C33.1705 40.0002 33.3883 40.56 33.0527 40.8682L22.8379 50.2324C22.5172 50.5261 22 50.2982 22 49.8633V40.5C22 40.2239 22.2239 40 22.5 40H32.7148Z" fill="oklch(0.3057 0.079 256.22 / 0.13)" class="wd-expressive-accent"></path>
<path d="M21 13C24.866 13 28 16.134 28 20C28 21.9698 27.5863 23.9204 26.7822 25.7402C25.9782 27.5601 24.7992 29.2136 23.3135 30.6064C22.6794 31.2009 21.9943 31.7422 21.2666 32.2266C21.1047 32.3344 20.8933 32.3344 20.7314 32.2266C20.0074 31.7442 19.3229 31.2031 18.6865 30.6064C15.6859 27.7934 14 23.9782 14 20C14 16.134 17.134 13 21 13ZM21 17C19.3431 17 18 18.3431 18 20C18 21.6569 19.3431 23 21 23C22.6569 23 24 21.6569 24 20C24 18.3431 22.6569 17 21 17Z" fill="oklch(0.3057 0.079 256.22 / 0.13)" class="wd-expressive-accent"></path>
</g>
<g>
<path d="M21 15C23.2091 15 25 16.7909 25 19C25 21.2091 23.2091 23 21 23C18.7909 23 17 21.2091 17 19C17 16.7909 18.7909 15 21 15ZM21 17C19.8954 17 19 17.8954 19 19C19 20.1046 19.8954 21 21 21C22.1046 21 23 20.1046 23 19C23 17.8954 22.1046 17 21 17Z" fill="oklch(0.3523 0 0 / 1)" class="wd-expressive-fill"></path>
<path d="M21 11C25.4183 11 29 14.5817 29 19L28.9951 19.3955C28.9433 21.3709 28.5033 23.3203 27.6973 25.1445C26.8376 27.0903 25.5783 28.8535 23.9971 30.3359C23.3215 30.9692 22.5927 31.5444 21.8203 32.0586C21.3228 32.3897 20.6754 32.3899 20.1777 32.0586C19.4087 31.5464 18.6805 30.9711 18.0029 30.3359C14.9083 27.4347 13.114 23.5189 13.0049 19.3994L13 19C13 14.5817 16.5817 11 21 11ZM21 13C17.6863 13 15 15.6863 15 19L15.0049 19.3457C15.0993 22.9126 16.6513 26.3279 19.3701 28.877C19.8802 29.3551 20.4265 29.7925 20.999 30.1934C21.5746 29.7908 22.1216 29.3535 22.6299 28.877C24.02 27.5737 25.1188 26.0298 25.8672 24.3359C26.6156 22.6421 27 20.8292 27 19C27 15.6863 24.3137 13 21 13Z" fill="oklch(0.3523 0 0 / 1)" class="wd-expressive-fill"></path>
<path d="M32 4C33.6569 4 35 5.34315 35 7V15H46L46.1543 15.0039C47.7394 15.0842 49 16.3949 49 18V49C49 50.6569 47.6569 52 46 52H24C23.5375 52 23.1012 51.892 22.71 51.7051L22.6836 51.7305L22.6182 51.6611C21.6572 51.1611 21 50.1581 21 49V41H10C8.34315 41 7 39.6569 7 38V7C7 5.34315 8.34315 4 10 4H32ZM35 39.5488C35 39.9638 34.8283 40.3609 34.5254 40.6445L24.5322 50H46C46.5523 50 47 49.5523 47 49V18C47 17.4823 46.6067 17.0562 46.1025 17.0049L46 17H35V39.5488ZM23 48.6934L31.2178 41H23V48.6934ZM10 6C9.44772 6 9 6.44772 9 7V38C9 38.5523 9.44772 39 10 39H32C32.5523 39 33 38.5523 33 38V7C33 6.44772 32.5523 6 32 6H10Z" fill="oklch(0.3523 0 0 / 1)" class="wd-expressive-fill"></path>
</g>
</svg>