<svg role="presentation" width="56" height="56" viewBox="0 0 56 56" xmlns="http://www.w3.org/2000/svg" class="wd-expressive wd-expressive-data-migration">
<g>
<path d="M32 42.501C32 44.434 36.0295 46.001 41 46.001C43.8274 46.001 46.3501 45.4932 48 44.7002V49.6982C46.35 50.4913 43.8274 50.999 41 50.999C36.0296 50.999 32.0002 49.4319 32 47.499V42.501Z" fill="oklch(0.3057 0.079 256.22 / 0.13)" class="wd-expressive-accent"></path>
<path d="M32 32.5C32 34.433 36.0294 36 41 36C43.8275 36 46.3501 35.4923 48 34.6992V39.7002C46.3501 40.4932 43.8274 41.001 41 41.001C36.0295 41.001 32 39.434 32 37.501V32.5Z" fill="oklch(0.3057 0.079 256.22 / 0.13)" class="wd-expressive-accent"></path>
<path d="M6 19.501C6 21.434 10.0295 23.001 15 23.001C17.8274 23.001 20.3501 22.4932 22 21.7002V26.6982C20.35 27.4913 17.8274 27.999 15 27.999C10.0296 27.999 6.00024 26.4319 6 24.499V19.501Z" fill="oklch(0.3057 0.079 256.22 / 0.13)" class="wd-expressive-accent"></path>
<path d="M6 9.5C6 11.433 10.0294 13 15 13C17.8275 13 20.3501 12.4923 22 11.6992V16.7002C20.3501 17.4932 17.8274 18.001 15 18.001C10.0295 18.001 6 16.434 6 14.501V9.5Z" fill="oklch(0.3057 0.079 256.22 / 0.13)" class="wd-expressive-accent"></path>
</g>
<g>
<path d="M41 28C43.577 28 45.9557 28.4041 47.7266 29.0928C48.6087 29.4359 49.3911 29.8693 49.9697 30.4014C50.5492 30.9342 51 31.6424 51 32.5V47.5C50.9996 48.3569 50.5489 49.0651 49.9697 49.5977C49.3912 50.1296 48.6085 50.5622 47.7266 50.9053C45.9557 51.5939 43.577 51.999 41 51.999C38.423 51.999 36.0443 51.5939 34.2734 50.9053C33.3913 50.5622 32.6089 50.1297 32.0303 49.5977C31.4871 49.0982 31.0566 48.4444 31.0049 47.6582L31 47.499V32.5C31 31.6424 31.4507 30.9342 32.0303 30.4014C32.609 29.8693 33.3912 29.4359 34.2734 29.0928C36.0443 28.4041 38.423 28 41 28ZM49 45.3008C48.6117 45.5276 48.1827 45.7298 47.7266 45.9072C45.9557 46.5959 43.577 47 41 47C38.423 47 36.0443 46.5959 34.2734 45.9072C33.8174 45.7299 33.3883 45.5276 33 45.3008V47.5C33.0004 47.6092 33.0539 47.8216 33.3838 48.125C33.7159 48.4304 34.2518 48.7518 34.998 49.042C36.4845 49.6201 38.6065 49.999 41 49.999C43.3934 49.999 45.5155 49.62 47.002 49.042C47.748 48.7518 48.2842 48.4303 48.6162 48.125C48.9459 47.8217 48.9996 47.6092 49 47.5V45.3008ZM49 40.3008C48.6117 40.5276 48.1827 40.7298 47.7266 40.9072C45.9557 41.5959 43.577 42 41 42C38.423 42 36.0443 41.5959 34.2734 40.9072C33.8174 40.7299 33.3883 40.5276 33 40.3008V42.5L33.0137 42.6006C33.044 42.7206 33.1354 42.8975 33.3838 43.126C33.7159 43.4313 34.2519 43.7528 34.998 44.043C36.4845 44.621 38.6066 45 41 45C43.3934 45 45.5155 44.621 47.002 44.043C47.7481 43.7528 48.2841 43.4313 48.6162 43.126C48.8646 42.8975 48.9561 42.7206 48.9863 42.6006L49 42.5V40.3008ZM49 35.3008C48.6117 35.5276 48.1827 35.7298 47.7266 35.9072C45.9557 36.5959 43.577 37 41 37C38.423 37 36.0443 36.5959 34.2734 35.9072C33.8174 35.7299 33.3883 35.5276 33 35.3008V37.5L33.0137 37.6006C33.044 37.7206 33.1354 37.8975 33.3838 38.126C33.7159 38.4313 34.2519 38.7528 34.998 39.043C36.4845 39.621 38.6066 40 41 40C43.3934 40 45.5155 39.621 47.002 39.043C47.7481 38.7528 48.2841 38.4313 48.6162 38.126C48.8646 37.8975 48.9561 37.7206 48.9863 37.6006L49 37.5V35.3008ZM41 30C38.6066 30 36.4845 30.379 34.998 30.957C34.2519 31.2472 33.7159 31.5687 33.3838 31.874C33.0527 32.1785 33 32.3912 33 32.5C33 32.6088 33.0527 32.8215 33.3838 33.126C33.7159 33.4313 34.2519 33.7528 34.998 34.043C36.4845 34.621 38.6066 35 41 35C43.3934 35 45.5155 34.621 47.002 34.043C47.7481 33.7528 48.2841 33.4313 48.6162 33.126C48.9471 32.8216 49 32.6088 49 32.5C49 32.3912 48.9471 32.1784 48.6162 31.874C48.2841 31.5687 47.7481 31.2472 47.002 30.957C45.5155 30.379 43.3934 30 41 30Z" fill="oklch(0.3523 0 0 / 1)" class="wd-expressive-fill"></path>
<path d="M14.0996 32.001C14.1727 32.001 14.2421 32.0177 14.3047 32.0459C14.4937 32.1033 14.665 32.2144 14.792 32.3711C16.0801 33.9603 17.678 35.2768 19.4912 36.2363C19.7352 36.3655 19.8388 36.664 19.7178 36.9121L19.2793 37.8105C19.1582 38.0585 18.8587 38.1621 18.6143 38.0342C17.3011 37.3457 16.0873 36.4917 15 35.498V41C15 43.2091 16.791 44.9999 19 45H26.5C26.776 45.0001 27 45.2239 27 45.5V46.5C27 46.7761 26.776 46.9999 26.5 47H19C15.6864 46.9999 13 44.3136 13 41V35.499C11.9126 36.4922 10.6988 37.3459 9.38574 38.0342C9.14145 38.162 8.84194 38.0581 8.7207 37.8105L8.28223 36.9121C8.16118 36.664 8.26482 36.3655 8.50879 36.2363C10.322 35.2768 11.9199 33.9604 13.208 32.3711C13.3356 32.2138 13.5074 32.1021 13.6973 32.0449C13.7593 32.0173 13.8282 32.001 13.9004 32.001H14.0996Z" fill="oklch(0.3523 0 0 / 1)" class="wd-expressive-fill"></path>
<path d="M15 5C17.577 5.00002 19.9557 5.40411 21.7266 6.09277C22.6087 6.43586 23.3911 6.86933 23.9697 7.40137C24.5492 7.93422 25 8.64245 25 9.5V24.5C24.9996 25.3569 24.5489 26.0651 23.9697 26.5977C23.3912 27.1296 22.6085 27.5622 21.7266 27.9053C19.9557 28.5939 17.577 28.999 15 28.999C12.423 28.999 10.0443 28.5939 8.27344 27.9053C7.39133 27.5622 6.6089 27.1296 6.03027 26.5977C5.48706 26.0982 5.05662 25.4444 5.00488 24.6582L5 24.499V9.5C5 8.64239 5.45073 7.93423 6.03027 7.40137C6.60896 6.86934 7.39124 6.43585 8.27344 6.09277C10.0443 5.40414 12.4231 5 15 5ZM23 22.3008C22.6117 22.5276 22.1827 22.7298 21.7266 22.9072C19.9557 23.5959 17.577 24 15 24C12.4231 24 10.0443 23.5959 8.27344 22.9072C7.81737 22.7299 7.3883 22.5276 7 22.3008V24.5C7.00037 24.6092 7.05394 24.8216 7.38379 25.125C7.71589 25.4303 8.25178 25.7517 8.99805 26.042C10.4845 26.6201 12.6065 26.999 15 26.999C17.3934 26.999 19.5155 26.62 21.002 26.042C21.748 25.7518 22.2842 25.4303 22.6162 25.125C22.9459 24.8217 22.9996 24.6092 23 24.5V22.3008ZM23 17.3008C22.6117 17.5276 22.1827 17.7298 21.7266 17.9072C19.9557 18.5959 17.577 19 15 19C12.4231 19 10.0443 18.5959 8.27344 17.9072C7.81737 17.7299 7.3883 17.5276 7 17.3008V19.5L7.01367 19.6006C7.04397 19.7206 7.13537 19.8975 7.38379 20.126C7.71589 20.4313 8.2519 20.7528 8.99805 21.043C10.4845 21.621 12.6066 22 15 22C17.3934 22 19.5155 21.621 21.002 21.043C21.7481 20.7528 22.2841 20.4313 22.6162 20.126C22.8646 19.8975 22.9561 19.7206 22.9863 19.6006L23 19.5V17.3008ZM23 12.3008C22.6117 12.5276 22.1827 12.7298 21.7266 12.9072C19.9557 13.5959 17.577 14 15 14C12.4231 14 10.0443 13.5959 8.27344 12.9072C7.81737 12.7299 7.3883 12.5276 7 12.3008V14.5L7.01367 14.6006C7.04397 14.7206 7.13537 14.8975 7.38379 15.126C7.71589 15.4313 8.2519 15.7528 8.99805 16.043C10.4845 16.621 12.6066 17 15 17C17.3934 17 19.5155 16.621 21.002 16.043C21.7481 15.7528 22.2841 15.4313 22.6162 15.126C22.8646 14.8975 22.9561 14.7206 22.9863 14.6006L23 14.5V12.3008ZM15 7C12.6066 7 10.4845 7.379 8.99805 7.95703C8.2519 8.24723 7.71589 8.56871 7.38379 8.87402C7.05275 9.17849 7 9.39115 7 9.5C7 9.60885 7.05275 9.82151 7.38379 10.126C7.71589 10.4313 8.2519 10.7528 8.99805 11.043C10.4845 11.621 12.6066 12 15 12C17.3934 12 19.5155 11.621 21.002 11.043C21.7481 10.7528 22.2841 10.4313 22.6162 10.126C22.9471 9.82157 23 9.60884 23 9.5C23 9.39116 22.9471 9.17843 22.6162 8.87402C22.2841 8.56871 21.7481 8.24725 21.002 7.95703C19.5155 7.37897 17.3934 7.00002 15 7Z" fill="oklch(0.3523 0 0 / 1)" class="wd-expressive-fill"></path>
<path d="M37 9C40.3136 9.00011 43 11.6864 43 15V20.5C44.0873 19.507 45.3014 18.654 46.6143 17.9658C46.8586 17.8381 47.1581 17.9418 47.2793 18.1895L47.7178 19.0879C47.8388 19.3359 47.735 19.6344 47.4912 19.7637C45.678 20.7232 44.0801 22.0397 42.792 23.6289C42.6645 23.7862 42.4925 23.8978 42.3027 23.9551C42.2408 23.9827 42.1718 23.999 42.0996 23.999H41.9004C41.8273 23.999 41.7579 23.9823 41.6953 23.9541C41.5063 23.8967 41.3351 23.7856 41.208 23.6289C39.9199 22.0397 38.322 20.7233 36.5088 19.7637C36.2647 19.6345 36.1612 19.3361 36.2822 19.0879L36.7207 18.1895C36.8419 17.9416 37.1413 17.8378 37.3857 17.9658C38.699 18.6543 39.9127 19.5082 41 20.502V15C41 12.7909 39.209 11.0001 37 11H29.5C29.2239 11 29 10.7761 29 10.5V9.5C29 9.22386 29.2239 9 29.5 9H37Z" fill="oklch(0.3523 0 0 / 1)" class="wd-expressive-fill"></path>
</g>
</svg>