<svg role="presentation" width="56" height="56" viewBox="0 0 56 56" xmlns="http://www.w3.org/2000/svg" class="wd-expressive wd-expressive-webpage-plus">
<g>
<path d="M36.999 35C35.7437 36.6713 35 38.7488 35 41C35 46.5228 39.4772 51 45 51C47.2514 51 49.3286 50.2555 51 49C49.1756 51.4287 46.2715 53 43 53C37.4772 53 33 48.5228 33 43C33 39.7288 34.5707 36.8245 36.999 35Z" fill="oklch(0.3057 0.079 256.22 / 0.13)" class="wd-expressive-accent"></path>
<path d="M11 32C11 33.1046 11.8954 34 13 34H32.2773C31.2836 35.1828 30.4815 36.5317 29.9199 38H9C7.89543 38 7 37.1046 7 36V24C7 22.8954 7.89543 22 9 22H11V32Z" fill="oklch(0.3057 0.079 256.22 / 0.13)" class="wd-expressive-accent"></path>
<path d="M51 11C52.1046 11 53 11.8954 53 13V18H3V13C3 11.8954 3.89543 11 5 11H51Z" fill="oklch(0.3057 0.079 256.22 / 0.13)" class="wd-expressive-accent"></path>
</g>
<g>
<path d="M43.4941 38C43.7703 38 43.9941 38.2239 43.9941 38.5V41.9941H47.5C47.7761 41.9941 48 42.218 48 42.4941V43.4941C48 43.7703 47.7761 43.9941 47.5 43.9941H43.9941V47.5C43.9941 47.7761 43.7703 48 43.4941 48H42.4941C42.218 48 41.9941 47.7761 41.9941 47.5V43.9941H38.5C38.2239 43.9941 38 43.7703 38 43.4941V42.4941C38 42.218 38.2239 41.9941 38.5 41.9941H41.9941V38.5C41.9941 38.2239 42.218 38 42.4941 38H43.4941Z" fill="oklch(0.3523 0 0 / 1)" class="wd-expressive-fill"></path>
<path d="M43 32C49.0751 32 54 36.9249 54 43C54 49.0751 49.0751 54 43 54C36.9249 54 32 49.0751 32 43C32 36.9249 36.9249 32 43 32ZM43 34C38.0294 34 34 38.0294 34 43C34 47.9706 38.0294 52 43 52C47.9706 52 52 47.9706 52 43C52 38.0294 47.9706 34 43 34Z" fill="oklch(0.3523 0 0 / 1)" class="wd-expressive-fill"></path>
<path d="M7.5 13C8.32843 13 9 13.6716 9 14.5C9 15.3284 8.32843 16 7.5 16C6.67157 16 6 15.3284 6 14.5C6 13.6716 6.67157 13 7.5 13Z" fill="oklch(0.3523 0 0 / 1)" class="wd-expressive-fill"></path>
<path d="M12.5 13C13.3284 13 14 13.6716 14 14.5C14 15.3284 13.3284 16 12.5 16C11.6716 16 11 15.3284 11 14.5C11 13.6716 11.6716 13 12.5 13Z" fill="oklch(0.3523 0 0 / 1)" class="wd-expressive-fill"></path>
<path d="M17.5 13C18.3284 13 19 13.6716 19 14.5C19 15.3284 18.3284 16 17.5 16C16.6716 16 16 15.3284 16 14.5C16 13.6716 16.6716 13 17.5 13Z" fill="oklch(0.3523 0 0 / 1)" class="wd-expressive-fill"></path>
<path d="M51 10C52.6569 10 54 11.3431 54 13V32.5C54 32.7761 53.7761 33 53.5 33H52.5C52.2239 33 52 32.7761 52 32.5V19H4V43C4 43.5523 4.44772 44 5 44H29.5C29.7761 44 30 44.2239 30 44.5V45.5C30 45.7761 29.7761 46 29.5 46H5C3.34315 46 2 44.6569 2 43V13C2 11.3431 3.34315 10 5 10H51ZM5 12C4.44772 12 4 12.4477 4 13V17H52V13C52 12.4477 51.5523 12 51 12H5Z" fill="oklch(0.3523 0 0 / 1)" class="wd-expressive-fill"></path>
<path d="M8.5 34C8.77614 34 9 34.2239 9 34.5V36H10.5C10.7761 36 11 36.2239 11 36.5V37.5C11 37.7761 10.7761 38 10.5 38H8.5C7.67157 38 7 37.3284 7 36.5V34.5C7 34.2239 7.22386 34 7.5 34H8.5Z" fill="oklch(0.3523 0 0 / 1)" class="wd-expressive-fill"></path>
<path d="M16.5 36C16.7761 36 17 36.2239 17 36.5V37.5C17 37.7761 16.7761 38 16.5 38H13.5C13.2239 38 13 37.7761 13 37.5V36.5C13 36.2239 13.2239 36 13.5 36H16.5Z" fill="oklch(0.3523 0 0 / 1)" class="wd-expressive-fill"></path>
<path d="M23.5 36C23.7761 36 24 36.2239 24 36.5V37.5C24 37.7761 23.7761 38 23.5 38H19.5C19.2239 38 19 37.7761 19 37.5V36.5C19 36.2239 19.2239 36 19.5 36H23.5Z" fill="oklch(0.3523 0 0 / 1)" class="wd-expressive-fill"></path>
<path d="M29.5 36C29.7761 36 30 36.2239 30 36.5V37.5C30 37.7761 29.7761 38 29.5 38H26.5C26.2239 38 26 37.7761 26 37.5V36.5C26 36.2239 26.2239 36 26.5 36H29.5Z" fill="oklch(0.3523 0 0 / 1)" class="wd-expressive-fill"></path>
<path d="M8.5 28C8.77614 28 9 28.2239 9 28.5V31.5C9 31.7761 8.77614 32 8.5 32H7.5C7.22386 32 7 31.7761 7 31.5V28.5C7 28.2239 7.22386 28 7.5 28H8.5Z" fill="oklch(0.3523 0 0 / 1)" class="wd-expressive-fill"></path>
<path d="M48.5 28C48.7761 28 49 28.2239 49 28.5V30.5C49 30.7761 48.7761 31 48.5 31H47.5C47.2239 31 47 30.7761 47 30.5V28.5C47 28.2239 47.2239 28 47.5 28H48.5Z" fill="oklch(0.3523 0 0 / 1)" class="wd-expressive-fill"></path>
<path d="M10.5 22C10.7761 22 11 22.2239 11 22.5V23.5C11 23.7761 10.7761 24 10.5 24H9V25.5C9 25.7761 8.77614 26 8.5 26H7.5C7.22386 26 7 25.7761 7 25.5V23.5C7 22.6716 7.67157 22 8.5 22H10.5Z" fill="oklch(0.3523 0 0 / 1)" class="wd-expressive-fill"></path>
<path d="M47.5 22C48.3284 22 49 22.6716 49 23.5V25.5C49 25.7761 48.7761 26 48.5 26H47.5C47.2239 26 47 25.7761 47 25.5V24H45.5C45.2239 24 45 23.7761 45 23.5V22.5C45 22.2239 45.2239 22 45.5 22H47.5Z" fill="oklch(0.3523 0 0 / 1)" class="wd-expressive-fill"></path>
<path d="M16.5 22C16.7761 22 17 22.2239 17 22.5V23.5C17 23.7761 16.7761 24 16.5 24H13.5C13.2239 24 13 23.7761 13 23.5V22.5C13 22.2239 13.2239 22 13.5 22H16.5Z" fill="oklch(0.3523 0 0 / 1)" class="wd-expressive-fill"></path>
<path d="M23.5 22C23.7761 22 24 22.2239 24 22.5V23.5C24 23.7761 23.7761 24 23.5 24H19.5C19.2239 24 19 23.7761 19 23.5V22.5C19 22.2239 19.2239 22 19.5 22H23.5Z" fill="oklch(0.3523 0 0 / 1)" class="wd-expressive-fill"></path>
<path d="M29.5 22C29.7761 22 30 22.2239 30 22.5V23.5C30 23.7761 29.7761 24 29.5 24H26.5C26.2239 24 26 23.7761 26 23.5V22.5C26 22.2239 26.2239 22 26.5 22H29.5Z" fill="oklch(0.3523 0 0 / 1)" class="wd-expressive-fill"></path>
<path d="M36.5 22C36.7761 22 37 22.2239 37 22.5V23.5C37 23.7761 36.7761 24 36.5 24H32.5C32.2239 24 32 23.7761 32 23.5V22.5C32 22.2239 32.2239 22 32.5 22H36.5Z" fill="oklch(0.3523 0 0 / 1)" class="wd-expressive-fill"></path>
<path d="M42.5 22C42.7761 22 43 22.2239 43 22.5V23.5C43 23.7761 42.7761 24 42.5 24H39.5C39.2239 24 39 23.7761 39 23.5V22.5C39 22.2239 39.2239 22 39.5 22H42.5Z" fill="oklch(0.3523 0 0 / 1)" class="wd-expressive-fill"></path>
</g>
</svg>