<svg role="presentation" width="56" height="56" viewBox="0 0 56 56" xmlns="http://www.w3.org/2000/svg" class="wd-expressive wd-expressive-head-memory">
<g>
<path d="M8.07812 31.1016C7.75839 32.467 8.42751 34.009 9.84473 34.4082L11.7861 34.9551C11.84 37.6604 12.0013 39.6999 12.1787 41.1758C12.4114 43.1114 14.0487 44.4294 16.0176 44.3682C17.2226 44.3306 18.7013 44.244 20.3496 44.0674C21.3686 43.9718 22.2499 44.7656 22.25 45.7783V49.5303C22.2502 49.7896 22.4674 50.0005 22.7295 49.998C33.3175 49.8933 39.6045 46.341 40.9688 45.4844C41.0665 45.4229 41.1297 45.3291 41.1562 45.2246L41.8955 47.6562C41.9579 47.8615 41.8852 48.0813 41.7041 48.1963C40.2684 49.1073 33.6506 52.8866 22.5049 52.998C22.2288 53.0008 22 52.7761 22 52.5V48.5088C21.9999 47.4314 21.0726 46.5878 20 46.6895C18.2648 46.8774 16.708 46.9688 15.4395 47.0088C13.367 47.0739 11.6434 45.6723 11.3984 43.6133C11.2117 42.0431 11.042 39.8734 10.9854 36.9951L8.94141 36.4141C7.03891 35.8725 6.41865 33.3533 7.60254 31.7686C7.763 31.5538 7.92066 31.3301 8.07812 31.1016Z" fill="oklch(0.3057 0.079 256.22 / 0.13)" class="wd-expressive-accent"></path>
<path d="M29.043 3.01562C40.3949 3.37534 47 9.80686 47 20C47 23.2659 46.0734 26.4648 44.3271 29.2246L41.3506 33.9287C39.982 36.0916 39.502 38.6843 39.9824 41.1719L39.5713 39.832C38.7678 37.2158 39.1552 34.383 40.6328 32.0723L43.4609 27.6504C45.1199 25.0561 46 22.0486 46 18.9785C45.9999 9.42697 39.7647 3.38865 29.043 3.01562Z" fill="oklch(0.3057 0.079 256.22 / 0.13)" class="wd-expressive-accent"></path>
<path d="M24.8662 3.29688C16.6171 4.88176 9.41308 12.6037 11.1504 22.6455C11.5212 24.7901 10.5811 27.0247 9.37988 28.8857C10.1435 27.302 10.6031 25.5758 10.3164 23.9004C8.47979 13.1721 16.1362 4.93357 24.8662 3.29688Z" fill="oklch(0.3057 0.079 256.22 / 0.13)" class="wd-expressive-accent"></path>
</g>
<g>
<path d="M23.5765 13.0312C25.7521 11.9584 28.2442 11.7132 30.5873 12.3408C32.9304 12.9687 34.966 14.4266 36.3139 16.4434C37.6617 18.4606 38.2301 20.9003 37.9135 23.3057C37.5966 25.7104 36.4167 27.9182 34.5931 29.5176C32.8948 31.0068 30.7457 31.8749 28.4994 31.9873C28.2238 32.0008 27.9994 31.775 27.9994 31.499V30.5C27.9994 30.224 28.224 30.0018 28.4994 29.9844C30.26 29.8742 31.9404 29.1838 33.2738 28.0146C34.7329 26.735 35.6786 24.9681 35.932 23.0439C36.1853 21.1199 35.7289 19.1693 34.6508 17.5557C33.5725 15.942 31.9444 14.7738 30.0697 14.2715C28.1953 13.7695 26.2017 13.967 24.4613 14.8252C22.7209 15.6836 21.3514 17.1456 20.6088 18.9385C19.8663 20.7314 19.8005 22.7337 20.4242 24.5713C20.9442 26.103 21.9151 27.4321 23.1967 28.3945L22.8558 25.3516C22.8251 25.0774 23.0222 24.8299 23.2963 24.7988L24.2904 24.6865C24.5647 24.6558 24.8123 24.8536 24.8431 25.1279L25.5121 31.0908C25.5427 31.365 25.3459 31.6126 25.0717 31.6436L19.1088 32.3125C18.8347 32.3431 18.587 32.1461 18.556 31.8721L18.4447 30.8779C18.4139 30.6036 18.6119 30.3562 18.8861 30.3252L21.973 29.9785C20.3819 28.7765 19.1777 27.1199 18.5306 25.2139C17.751 22.9168 17.832 20.414 18.7601 18.1729C19.6885 15.9317 21.401 14.1043 23.5765 13.0312Z" fill="oklch(0.3523 0 0 / 1)" class="wd-expressive-fill"></path>
<path d="M28.4994 16C28.7755 16 28.9994 16.2239 28.9994 16.5V21H31.4994C31.7755 21 31.9994 21.2239 31.9994 21.5V22.5C31.9994 22.7761 31.7755 23 31.4994 23H28.4994C27.6711 22.9999 26.9994 22.3284 26.9994 21.5V16.5C26.9994 16.2239 27.2234 16.0001 27.4994 16H28.4994Z" fill="oklch(0.3523 0 0 / 1)" class="wd-expressive-fill"></path>
<path d="M28.601 2.00488C34.4991 2.10616 39.3045 3.77347 42.6742 6.82324C46.1649 9.98255 47.9994 14.5213 47.9994 20C47.9994 23.4551 47.0188 26.8399 45.1713 29.7598L42.1947 34.4639C40.795 36.6762 40.4277 39.388 41.1889 41.8926L42.8519 47.3652C43.0348 47.967 42.8283 48.666 42.2396 49.04C40.6878 50.0248 33.8895 53.8842 22.514 53.998C21.6866 54.0062 20.9994 53.337 20.9994 52.5V48.5088C20.9993 48.0224 20.5817 47.6403 20.098 47.6836C18.3378 47.874 16.7582 47.9672 15.4701 48.0078C12.9093 48.0882 10.7144 46.3347 10.4047 43.7314C10.2302 42.2644 10.073 40.2999 10.0033 37.7559L8.66737 37.376C7.3212 36.9928 6.46976 35.9162 6.14979 34.7461C5.83193 33.5836 6.00674 32.2333 6.80116 31.1699C8.40173 29.0279 9.73041 26.4073 9.33045 24.0693C7.15414 11.3567 17.5777 2.00028 28.0267 2L28.601 2.00488ZM28.0267 4C18.6242 4.00029 9.36549 12.4236 11.3012 23.7314C11.8515 26.9471 10.046 30.1681 8.40272 32.3672C8.01339 32.8885 7.90664 33.5902 8.0785 34.2188C8.24829 34.8396 8.65807 35.2937 9.21424 35.4521L11.2582 36.0332C11.681 36.1535 11.9761 36.536 11.9848 36.9756C12.0408 39.8247 12.2086 41.9613 12.391 43.4951C12.5712 45.0099 13.8235 46.0595 15.4076 46.0098C16.6543 45.9705 18.1856 45.8801 19.892 45.6953L19.9047 45.6934C21.5642 45.5362 22.9992 46.8421 22.9994 48.5088V51.9873C32.8645 51.7867 38.9684 48.6637 40.8207 47.5635L39.2748 42.4746C38.3443 39.4129 38.7943 36.0974 40.5053 33.3936L43.4818 28.6895C45.1266 26.0898 45.9994 23.0765 45.9994 20C45.9994 14.9854 44.3338 11.024 41.3314 8.30664C38.411 5.66353 34.1168 4.10006 28.5678 4.00488L28.0267 4Z" fill="oklch(0.3523 0 0 / 1)" class="wd-expressive-fill"></path>
</g>
</svg>