<svg role="presentation" width="56" height="56" viewBox="0 0 56 56" xmlns="http://www.w3.org/2000/svg" class="wd-expressive wd-expressive-flow">
<g>
<path d="M49 48H39V42H49V48Z" fill="oklch(0.3057 0.079 256.22 / 0.13)" class="wd-expressive-accent"></path>
<path d="M15 32H5V26H15V32Z" fill="oklch(0.3057 0.079 256.22 / 0.13)" class="wd-expressive-accent"></path>
<path d="M49 32H39V26H49V32Z" fill="oklch(0.3057 0.079 256.22 / 0.13)" class="wd-expressive-accent"></path>
</g>
<path d="M37 7C38.6569 7 40 8.34315 40 10V14C40 15.6569 38.6569 17 37 17H23V19H43C44.6569 19 46 20.3431 46 22V23H49L49.1543 23.0039C50.7394 23.0842 52 24.3949 52 26V30C52 31.6569 50.6569 33 49 33H46V39H49L49.1543 39.0039C50.7394 39.0842 52 40.3949 52 42V46C52 47.6569 50.6569 49 49 49H41C39.3431 49 38 47.6569 38 46V42C38 40.3431 39.3431 39 41 39H44V33H41C39.3431 33 38 31.6569 38 30V26C38 24.3431 39.3431 23 41 23H44V22C44 21.4477 43.5523 21 43 21H29V23H32L32.1543 23.0039C33.7394 23.0842 35 24.3949 35 26V30C35 31.6569 33.6569 33 32 33H24C22.3431 33 21 31.6569 21 30V26C21 24.3431 22.3431 23 24 23H27V21H11C10.4477 21 10 21.4477 10 22V23H15L15.1543 23.0039C16.7394 23.0842 18 24.3949 18 26V30C18 31.6569 16.6569 33 15 33H10V34.0908C10 34.6431 10.4477 35.0908 11 35.0908H15C16.6568 35.0908 18 36.434 18 38.0908V39H27C28.6569 39 30 40.3431 30 42V46C30 47.6569 28.6569 49 27 49H7C5.34315 49 4 47.6569 4 46V42C4 40.3431 5.34315 39 7 39H16V38.0908C16 37.5386 15.5523 37.0908 15 37.0908H11C9.34315 37.0908 8 35.7477 8 34.0908V33H7C5.34315 33 4 31.6569 4 30V26C4 24.3431 5.34315 23 7 23H8V22C8 20.3431 9.34315 19 11 19H21V17H7C5.34315 17 4 15.6569 4 14V10C4 8.34315 5.34315 7 7 7H37ZM7 41C6.44772 41 6 41.4477 6 42V46C6 46.5523 6.44772 47 7 47H27C27.5523 47 28 46.5523 28 46V42C28 41.4477 27.5523 41 27 41H7ZM41 41C40.4477 41 40 41.4477 40 42V46C40 46.5523 40.4477 47 41 47H49C49.5523 47 50 46.5523 50 46V42C50 41.4823 49.6067 41.0562 49.1025 41.0049L49 41H41ZM7 25C6.44772 25 6 25.4477 6 26V30C6 30.5523 6.44772 31 7 31H15C15.5523 31 16 30.5523 16 30V26C16 25.4823 15.6067 25.0562 15.1025 25.0049L15 25H7ZM24 25C23.4477 25 23 25.4477 23 26V30C23 30.5523 23.4477 31 24 31H32C32.5523 31 33 30.5523 33 30V26C33 25.4823 32.6067 25.0562 32.1025 25.0049L32 25H24ZM41 25C40.4477 25 40 25.4477 40 26V30C40 30.5523 40.4477 31 41 31H49C49.5523 31 50 30.5523 50 30V26C50 25.4823 49.6067 25.0562 49.1025 25.0049L49 25H41ZM7 9C6.44772 9 6 9.44772 6 10V14C6 14.5523 6.44772 15 7 15H37C37.5523 15 38 14.5523 38 14V10C38 9.44772 37.5523 9 37 9H7Z" fill="oklch(0.3523 0 0 / 1)" class="wd-expressive-fill"></path>
</svg>