<svg role="presentation" width="56" height="56" viewBox="0 0 56 56" xmlns="http://www.w3.org/2000/svg" class="wd-expressive wd-expressive-office-tools">
<g>
<path d="M11 13V46H44L47 49H8V10L11 13Z" fill="oklch(0.3057 0.079 256.22 / 0.13)" class="wd-expressive-accent"></path>
<path d="M37.5 3C37.7761 3 38 3.22388 38 3.5V35.0508L35 32.0508V3.5C35 3.22388 35.2239 3 35.5 3H37.5Z" fill="oklch(0.3057 0.079 256.22 / 0.13)" class="wd-expressive-accent"></path>
<path d="M29.4961 14.5C29.772 14.5003 29.9961 14.724 29.9961 15V27.0469L22 19.0508V15C22 14.7239 22.2239 14.5 22.5 14.5H29.4961Z" fill="oklch(0.3057 0.079 256.22 / 0.13)" class="wd-expressive-accent"></path>
<path d="M25.5283 4.27734C25.6889 3.84108 26.3061 3.84119 26.4668 4.27734L28.3223 9.32715C28.4421 9.6535 28.2002 10 27.8525 10H24.1426C23.7951 9.99977 23.554 9.65339 23.6738 9.32715L25.5283 4.27734Z" fill="oklch(0.3057 0.079 256.22 / 0.13)" class="wd-expressive-accent"></path>
</g>
<g>
<path d="M14 28.1074C14.0002 26.8132 15.5159 26.1449 16.4697 26.9629L16.5605 27.0469L29.9531 40.4395C30.898 41.3844 30.2289 42.9999 28.8926 43H15.5C14.6716 43 14 42.3284 14 41.5V28.1074ZM16 41H27.6855L16 29.3145V41Z" fill="oklch(0.3523 0 0 / 1)" class="wd-expressive-fill"></path>
<path d="M7 11.207C7.00026 9.87097 8.61565 9.20184 9.56055 10.1465L46.8535 47.4395C47.7984 48.3844 47.1293 49.9999 45.793 50H8.5C7.67157 50 7 49.3284 7 48.5V11.207ZM9 48H44.5859L9 12.4141V48Z" fill="oklch(0.3523 0 0 / 1)" class="wd-expressive-fill"></path>
<path d="M44.5 2C45.3284 2.00001 46 2.67158 46 3.5V41.5C46 41.7761 45.7761 42 45.5 42H44.5C44.2239 42 44 41.7761 44 41.5V4H36V8H40.5C40.7761 8 41 8.22386 41 8.5V9.5C41 9.77614 40.7761 10 40.5 10H36V14H40.5C40.7761 14 41 14.2239 41 14.5V15.5C41 15.7761 40.7761 16 40.5 16H36V20H40.5C40.7761 20 41 20.2239 41 20.5V21.5C41 21.7761 40.7761 22 40.5 22H36V26H40.5C40.7761 26 41 26.2239 41 26.5V27.5C41 27.7761 40.7761 28 40.5 28H36V31.5C36 31.7761 35.7761 32 35.5 32H34.5C34.2239 32 34 31.7761 34 31.5V3.5C34 2.67157 34.6716 2 35.5 2H44.5Z" fill="oklch(0.3523 0 0 / 1)" class="wd-expressive-fill"></path>
<path d="M24.5898 3.93262C25.0713 2.62257 26.9249 2.62246 27.4062 3.93262L30.9033 13.4551C30.9642 13.6207 30.9961 13.7962 30.9961 13.9727V22.459C30.9972 22.4726 31 22.4861 31 22.5V26.5C31 26.7761 30.7761 27 30.5 27H29.5C29.2239 27 29 26.7761 29 26.5V22.5156L28.9961 22.5117V15.6201L28.8945 15.6709C28.3315 15.9524 27.6685 15.9524 27.1055 15.6709L26 15.1182L24.8945 15.6709C24.3315 15.9524 23.6685 15.9524 23.1055 15.6709L23 15.6182V18.5C23 18.7761 22.7761 19 22.5 19H21.5C21.2239 19 21 18.7761 21 18.5V13.9727C21 13.7962 21.031 13.6207 21.0918 13.4551L24.5898 3.93262ZM23.2109 13.4873L24 13.8818L25.1055 13.3291C25.6685 13.0476 26.3315 13.0476 26.8945 13.3291L28 13.8818L28.7842 13.4893L27.8701 11H24.124L23.2109 13.4873ZM24.8584 9H27.1357L25.9971 5.90039L24.8584 9Z" fill="oklch(0.3523 0 0 / 1)" class="wd-expressive-fill"></path>
</g>
</svg>