<svg role="presentation" width="56" height="56" viewBox="0 0 56 56" xmlns="http://www.w3.org/2000/svg" class="wd-expressive wd-expressive-board">
<g>
<path d="M44.5 30C44.7761 30 45 30.2239 45 30.5V31.5C45 31.7761 44.7761 32 44.5 32H37.5C37.2239 32 37 31.7761 37 31.5V30.5C37 30.2239 37.2239 30 37.5 30H44.5Z" fill="oklch(0.3057 0.079 256.22 / 0.13)" class="wd-expressive-accent"></path>
<path d="M53 42H29V21C29 20.4477 28.5523 20 28 20H10C9.44772 20 9 20.4477 9 21V42H3V11H53V42ZM34.5 20C34.2239 20 34 20.2239 34 20.5V36.5C34 36.7761 34.2239 37 34.5 37H47.5C47.7761 37 48 36.7761 48 36.5V20.5C48 20.2239 47.7761 20 47.5 20H34.5Z" fill="oklch(0.3057 0.079 256.22 / 0.13)" class="wd-expressive-accent"></path>
<path d="M19.5 37C19.7761 37 20 37.2239 20 37.5V38.5C20 38.7761 19.7761 39 19.5 39H13.5C13.2239 39 13 38.7761 13 38.5V37.5C13 37.2239 13.2239 37 13.5 37H19.5Z" fill="oklch(0.3057 0.079 256.22 / 0.13)" class="wd-expressive-accent"></path>
<path d="M24.5 33C24.7761 33 25 33.2239 25 33.5V34.5C25 34.7761 24.7761 35 24.5 35H13.5C13.2239 35 13 34.7761 13 34.5V33.5C13 33.2239 13.2239 33 13.5 33H24.5Z" fill="oklch(0.3057 0.079 256.22 / 0.13)" class="wd-expressive-accent"></path>
</g>
<g>
<path d="M20.5 28C20.7761 28 21 28.2239 21 28.5V29.5C21 29.7761 20.7761 30 20.5 30H13.5C13.2239 30 13 29.7761 13 29.5V28.5C13 28.2239 13.2239 28 13.5 28H20.5Z" fill="oklch(0.3523 0 0 / 1)" class="wd-expressive-fill"></path>
<path d="M24.5 24C24.7761 24 25 24.2239 25 24.5V25.5C25 25.7761 24.7761 26 24.5 26H13.5C13.2239 26 13 25.7761 13 25.5V24.5C13 24.2239 13.2239 24 13.5 24H24.5Z" fill="oklch(0.3523 0 0 / 1)" class="wd-expressive-fill"></path>
<path d="M18.0537 13.5439C18.6429 13.0635 19.5114 13.0974 20.0605 13.6465L25.4141 19H28C29.1046 19 30 19.8954 30 21V49C30 50.1046 29.1046 51 28 51H10C8.89543 51 8 50.1046 8 49V21C8 19.8954 8.89543 19 10 19H12.5859L17.9395 13.6465L18.0537 13.5439ZM10 49H28V21H10V49ZM15.4141 19H22.5859L19 15.4141L15.4141 19Z" fill="oklch(0.3523 0 0 / 1)" class="wd-expressive-fill"></path>
<path d="M52.5 10C53.3284 10 54 10.6716 54 11.5V44.5C54 45.3284 53.3284 46 52.5 46H32.5C32.2239 46 32 45.7761 32 45.5V44.5C32 44.2239 32.2239 44 32.5 44H52V42H32.5C32.2239 42 32 41.7761 32 41.5V40.5C32 40.2239 32.2239 40 32.5 40H52V12H4V40H5.5C5.77614 40 6 40.2239 6 40.5V41.5C6 41.7761 5.77614 42 5.5 42H4V44H5.5C5.77614 44 6 44.2239 6 44.5V45.5C6 45.7761 5.77614 46 5.5 46H3.5C2.67157 46 2 45.3284 2 44.5V11.5C2 10.6716 2.67157 10 3.5 10H52.5Z" fill="oklch(0.3523 0 0 / 1)" class="wd-expressive-fill"></path>
<path d="M42.5 26C42.7761 26 43 26.2239 43 26.5V27.5C43 27.7761 42.7761 28 42.5 28H39.5C39.2239 28 39 27.7761 39 27.5V26.5C39 26.2239 39.2239 26 39.5 26H42.5Z" fill="oklch(0.3523 0 0 / 1)" class="wd-expressive-fill"></path>
<path d="M44.5 23C44.7761 23 45 23.2239 45 23.5V24.5C45 24.7761 44.7761 25 44.5 25H37.5C37.2239 25 37 24.7761 37 24.5V23.5C37 23.2239 37.2239 23 37.5 23H44.5Z" fill="oklch(0.3523 0 0 / 1)" class="wd-expressive-fill"></path>
<path d="M39.9658 13.6943C40.5424 13.1433 41.4576 13.1433 42.0342 13.6943L42.1523 13.8203L46.4688 19H47.5C48.3284 19 49 19.6716 49 20.5V36.5C49 37.3284 48.3284 38 47.5 38H34.5C33.6716 38 33 37.3284 33 36.5V20.5C33 19.6716 33.6716 19 34.5 19H35.5312L39.8477 13.8203L39.9658 13.6943ZM35 36H47V21H35V36ZM38.1357 19H43.8643L41 15.5615L38.1357 19Z" fill="oklch(0.3523 0 0 / 1)" class="wd-expressive-fill"></path>
</g>
</svg>