<svg role="presentation" width="56" height="56" viewBox="0 0 56 56" xmlns="http://www.w3.org/2000/svg" class="wd-expressive wd-expressive-comment-discussion">
<g>
<path d="M22.9141 24.1201C22.3391 24.9344 22 25.9273 22 27V39C22 41.7614 24.2386 44 27 44H39.4414C39.752 44.7812 40.2223 45.5143 40.8545 46.1465C42.007 47.2988 43.4915 47.9164 45 48V44H49C49.203 44 49.403 43.9864 49.5996 43.9629C48.9631 45.4521 47.6247 46.5696 46 46.8994V53C43.9886 52.8886 42.0093 52.0648 40.4727 50.5283C39.4521 49.5077 38.7474 48.2909 38.3555 47H24C21.2386 47 19 44.7614 19 42V29C19 26.6116 20.675 24.6162 22.9141 24.1201Z" fill="oklch(0.3057 0.079 256.22 / 0.13)" class="wd-expressive-accent"></path>
<path d="M9.91309 6.11914C9.338 6.9335 9 7.92724 9 9V21C9 23.0502 10.2343 24.8114 12 25.583V30C12.6812 29.9623 13.3569 29.8142 14 29.5586V33.7393C12.7731 34.5016 11.3947 34.9227 10 35V28.8994C7.71782 28.4361 6 26.4189 6 24V11C6 8.6119 7.67436 6.61547 9.91309 6.11914Z" fill="oklch(0.3057 0.079 256.22 / 0.13)" class="wd-expressive-accent"></path>
</g>
<g>
<path d="M45 23C48.3137 23 51 25.6863 51 29V42L50.9941 42.2705C50.8835 44.7655 49.2491 46.861 47 47.6562V53C47 53.2748 46.8871 53.5377 46.6875 53.7266C46.4879 53.9154 46.2187 54.0132 45.9443 53.998C43.9482 53.8874 41.9813 53.0692 40.4561 51.5439C39.4328 50.5206 38.7285 49.2974 38.3418 48H24C20.6863 48 18 45.3137 18 42V29C18 25.7898 20.5211 23.1684 23.6914 23.0078L24 23H45ZM23.7939 25.0049C21.6806 25.1121 20 26.86 20 29V42L20.0049 42.2061C20.1121 44.3194 21.86 46 24 46H39.124C39.5732 46 39.963 46.2987 40.085 46.7236L40.1055 46.8105C40.3401 48.0266 40.9274 49.1871 41.8701 50.1299C42.7632 51.023 43.8529 51.5962 45 51.8535V46.8994C45 46.4239 45.3348 46.0136 45.8008 45.9189C47.5691 45.5599 48.9137 44.0337 48.9961 42.1807L49 42V29C49 26.7909 47.2091 25 45 25H24L23.7939 25.0049Z" fill="oklch(0.3523 0 0 / 1)" class="wd-expressive-fill"></path>
<path d="M32.3086 5.00781C35.4789 5.16843 38 7.78979 38 11V20.5C38 20.7761 37.7761 21 37.5 21H36.5C36.2239 21 36 20.7761 36 20.5V11C36 8.85996 34.3194 7.11211 32.2061 7.00488L32 7H11C8.79086 7 7 8.79086 7 11V24L7.00391 24.1807C7.08634 26.0337 8.43088 27.5599 10.1992 27.9189C10.6652 28.0136 11 28.4239 11 28.8994V33.8525C11.0039 33.8517 11.0078 33.8505 11.0117 33.8496C11.7061 33.6925 12.379 33.42 13 33.0303C13.2646 32.8641 13.5204 32.6783 13.7637 32.4697C13.9733 32.2901 14.2881 32.2882 14.4834 32.4834L15.1904 33.1904C15.3855 33.3856 15.3868 33.7032 15.1807 33.8867C14.4167 34.5661 13.5575 35.0811 12.6504 35.4346C12.6397 35.4387 12.6288 35.4422 12.6182 35.4463C12.522 35.4833 12.4253 35.5184 12.3281 35.5518C12.2943 35.5634 12.2605 35.5748 12.2266 35.5859C12.1387 35.6148 12.0505 35.642 11.9619 35.668C11.9371 35.6752 11.9126 35.6834 11.8877 35.6904C11.8099 35.7124 11.7316 35.7322 11.6533 35.752C11.6058 35.764 11.5585 35.7769 11.5107 35.7881C11.2886 35.84 11.0648 35.8823 10.8398 35.916C10.7934 35.923 10.7467 35.9284 10.7002 35.9346C10.6513 35.9411 10.6027 35.9494 10.5537 35.9551C10.5495 35.9556 10.5452 35.9547 10.541 35.9551C10.3795 35.9734 10.2178 35.9891 10.0557 35.998C9.78127 36.0132 9.51213 35.9154 9.3125 35.7266C9.1129 35.5377 9 35.2748 9 35V29.6562C6.75092 28.861 5.11651 26.7655 5.00586 24.2705L5 24V11C5 7.68629 7.68629 5 11 5H32L32.3086 5.00781Z" fill="oklch(0.3523 0 0 / 1)" class="wd-expressive-fill"></path>
</g>
</svg>