<svg role="presentation" width="56" height="56" viewBox="0 0 56 56" xmlns="http://www.w3.org/2000/svg" class="wd-expressive wd-expressive-team-documents">
<g>
<path d="M16 41C18.6892 41 21.1424 42.0112 23 43.6738V44.1387C21.1961 45.9077 18.7261 47 16 47C13.2739 47 10.8039 45.9077 9 44.1387V43.6738C10.8576 42.0112 13.3108 41 16 41Z" fill="oklch(0.3057 0.079 256.22 / 0.13)" class="wd-expressive-accent"></path>
<path d="M41 41C43.6892 41 46.1424 42.0112 48 43.6738V44.1387C46.1961 45.9077 43.7262 47 41 47C38.2739 47 35.8039 45.9077 34 44.1387V43.6738C35.8576 42.0112 38.3108 41 41 41Z" fill="oklch(0.3057 0.079 256.22 / 0.13)" class="wd-expressive-accent"></path>
<path d="M31.3232 39.5303C31.6728 40.8709 32.2951 42.1007 33.125 43.1602C31.5159 43.7039 29.7926 44 28 44C26.5014 44 25.0514 43.7925 23.6758 43.4072C24.5562 42.3536 25.2217 41.1162 25.6104 39.7607C26.3827 39.9168 27.1816 40 28 40C29.1533 40 30.2676 39.834 31.3232 39.5303Z" fill="oklch(0.3057 0.079 256.22 / 0.13)" class="wd-expressive-accent"></path>
<path d="M16 32C17.6569 32 19 33.3431 19 35C19 36.6569 17.6569 38 16 38C14.3431 38 13 36.6569 13 35C13 33.3431 14.3431 32 16 32Z" fill="oklch(0.3057 0.079 256.22 / 0.13)" class="wd-expressive-accent"></path>
<path d="M41 32C42.6569 32 44 33.3431 44 35C44 36.6569 42.6569 38 41 38C39.3431 38 38 36.6569 38 35C38 33.3431 39.3431 32 41 32Z" fill="oklch(0.3057 0.079 256.22 / 0.13)" class="wd-expressive-accent"></path>
<path d="M19 20.0664C17.3404 21.9476 16.2594 24.3514 16.041 27.001C16.0273 27.0009 16.0137 27 16 27C14.5783 27 13.2265 27.2982 12.002 27.833C12.0575 22.4026 14.8173 17.6203 19 14.7695V20.0664Z" fill="oklch(0.3057 0.079 256.22 / 0.13)" class="wd-expressive-accent"></path>
<path d="M35.5 3C35.7761 3 36 3.22386 36 3.5V14.1436C40.6338 16.8247 43.7984 21.7616 43.9893 27.4541C43.0454 27.1588 42.0412 27 41 27C40.6495 27 40.3031 27.0175 39.9619 27.0527C39.7143 23.8819 38.2337 21.059 36 19.0596V19.5C36 19.7761 35.7761 20 35.5 20H32V7.5C32 7.22386 31.7761 7 31.5 7H23V3.5C23 3.22386 23.2239 3 23.5 3H35.5Z" fill="oklch(0.3057 0.079 256.22 / 0.13)" class="wd-expressive-accent"></path>
</g>
<g>
<path d="M16 31C18.2091 31 20 32.7909 20 35C20 37.2091 18.2091 39 16 39C13.7909 39 12 37.2091 12 35C12 32.7909 13.7909 31 16 31ZM16 33C14.8954 33 14 33.8954 14 35C14 36.1046 14.8954 37 16 37C17.1046 37 18 36.1046 18 35C18 33.8954 17.1046 33 16 33Z" fill="oklch(0.3523 0 0 / 1)" class="wd-expressive-fill"></path>
<path d="M41 31C43.2091 31 45 32.7909 45 35C45 37.2091 43.2091 39 41 39C38.7909 39 37 37.2091 37 35C37 32.7909 38.7909 31 41 31ZM41 33C39.8954 33 39 33.8954 39 35C39 36.1046 39.8954 37 41 37C42.1046 37 43 36.1046 43 35C43 33.8954 42.1046 33 41 33Z" fill="oklch(0.3523 0 0 / 1)" class="wd-expressive-fill"></path>
<path d="M26.5 14C26.7761 14 27 14.2239 27 14.5V15.5C27 15.7761 26.7761 16 26.5 16H22.5C22.2239 16 22 15.7761 22 15.5V14.5C22 14.2239 22.2239 14 22.5 14H26.5Z" fill="oklch(0.3523 0 0 / 1)" class="wd-expressive-fill"></path>
<path d="M28.5 11C28.7761 11 29 11.2239 29 11.5V12.5C29 12.7761 28.7761 13 28.5 13H22.5C22.2239 13 22 12.7761 22 12.5V11.5C22 11.2239 22.2239 11 22.5 11H28.5Z" fill="oklch(0.3523 0 0 / 1)" class="wd-expressive-fill"></path>
<path d="M35.6533 2.00781C36.4097 2.08461 37 2.72334 37 3.5V13.5762C41.4671 16.3694 44.5401 21.1799 44.9492 26.7324C49.073 28.3196 52 32.3171 52 37C52 43.0751 47.0751 48 41 48C37.7341 48 34.8017 46.5756 32.7871 44.3154C31.2687 44.7604 29.6624 45 28 45C26.6279 45 25.2945 44.8346 24.0166 44.5273C22.01 46.6635 19.1621 48 16 48C9.92487 48 5 43.0751 5 37C5 32.7177 7.44844 29.0096 11.0205 27.1924C11.2693 21.8738 13.9609 17.1949 18 14.252V7.5C18 6.67157 18.6716 6 19.5 6H22V3.5C22 2.67157 22.6716 2 23.5 2H35.5L35.6533 2.00781ZM16 42C13.842 42 11.8538 42.7187 10.2588 43.9307C11.8169 45.2228 13.8176 46 16 46C18.1821 46 20.1822 45.2226 21.7402 43.9307C20.1453 42.719 18.1577 42 16 42ZM41 42C38.842 42 36.8538 42.7187 35.2588 43.9307C36.8169 45.2228 38.8176 46 41 46C43.1821 46 45.1822 45.2226 46.7402 43.9307C45.1453 42.719 43.1577 42 41 42ZM37 19.5L36.9922 19.6533C36.9154 20.4097 36.2767 21 35.5 21H33V23.5C33 24.3284 32.3284 25 31.5 25H19.5C18.6716 25 18 24.3284 18 23.5V16.8193C15.3066 19.2303 13.4908 22.6003 13.0869 26.3926C14.0149 26.1383 14.9913 26 16 26C22.0751 26 27 30.9249 27 37C27 39.1152 26.4009 41.0896 25.3662 42.7666C26.2214 42.9186 27.1012 43 28 43C29.2131 43 30.3919 42.8532 31.5215 42.5811C30.5559 40.9447 30 39.0376 30 37C30 30.9249 34.9249 26 41 26C41.6431 26 42.2729 26.0582 42.8857 26.1641C42.3795 22.0153 40.1814 18.3899 37 16V19.5ZM16 28C11.0294 28 7 32.0294 7 37C7 39.0643 7.69652 40.965 8.86523 42.4834C10.8257 40.9303 13.3048 40 16 40C18.695 40 21.1734 40.9306 23.1338 42.4834C24.3027 40.9649 25 39.0645 25 37C25 32.0294 20.9706 28 16 28ZM41 28C36.0294 28 32 32.0294 32 37C32 39.0643 32.6965 40.965 33.8652 42.4834C35.8257 40.9303 38.3048 40 41 40C43.695 40 46.1734 40.9306 48.1338 42.4834C49.3027 40.9649 50 39.0645 50 37C50 32.0294 45.9706 28 41 28ZM20 23H31V8H20V23ZM24 6H31.5C32.3284 6 33 6.67157 33 7.5V19H35V4H24V6Z" fill="oklch(0.3523 0 0 / 1)" class="wd-expressive-fill"></path>
</g>
</svg>