<svg role="presentation" width="56" height="56" viewBox="0 0 56 56" xmlns="http://www.w3.org/2000/svg" class="wd-expressive wd-expressive-hand-gear">
<g>
<path d="M51.9736 33.8271C52.2137 33.6322 52.5738 33.6995 52.6895 33.9863C52.9235 34.5679 53.0286 35.1841 53.0107 35.7939C53.0069 35.9258 52.9444 36.0483 52.8447 36.1348L38.1406 48.8779C38.0498 48.9565 37.9336 49 37.8135 49H4.5C4.22397 49 4.00018 48.776 4 48.5V48C4 46.8954 4.89543 46 6 46H35.2236C36.3724 46 37.4865 45.6045 38.3779 44.8799L51.9736 33.8271Z" fill="oklch(0.3057 0.079 256.22 / 0.13)" class="wd-expressive-accent"></path>
<path d="M33.0723 37C33.2114 37 33.301 37.1471 33.2314 37.2676C32.4574 38.6081 31.2437 39.5372 29.8779 39.9775C29.8305 39.9928 29.7803 40 29.7305 40H19.5C19.2239 40 19 39.7761 19 39.5V39C19 37.8954 19.8954 37 21 37H33.0723Z" fill="oklch(0.3057 0.079 256.22 / 0.13)" class="wd-expressive-accent"></path>
<path d="M29.1855 6C29.6621 6.00005 30.0725 6.33641 30.166 6.80371L30.4834 8.39746C30.8757 8.52578 31.2542 8.68346 31.6172 8.86816L32.9717 7.96484C33.3683 7.70073 33.8964 7.75289 34.2334 8.08984L35.9092 9.7666C36.2461 10.1037 36.2986 10.6317 36.0342 11.0283L35.1299 12.3838C35.3141 12.7465 35.4717 13.1246 35.5996 13.5166L37.1963 13.835C37.6635 13.9285 37.9998 14.339 38 14.8154V17.1865C38 17.6631 37.6636 18.0734 37.1963 18.167L35.5986 18.4873C35.4709 18.8779 35.3135 19.2547 35.1299 19.6162L36.0342 20.9707C36.2985 21.3673 36.2462 21.8954 35.9092 22.2324L34.2334 23.9082C33.8964 24.2452 33.3683 24.2975 32.9717 24.0332L31.6172 23.1318C31.2541 23.3166 30.8758 23.4752 30.4834 23.6035L30.166 25.1963C30.0725 25.6636 29.6621 26 29.1855 26H26.8145C26.338 25.9998 25.9275 25.6635 25.834 25.1963L25.5156 23.6074C25.1215 23.4791 24.7415 23.32 24.377 23.1348L23.0293 24.0332C22.6327 24.2976 22.1046 24.2452 21.7676 23.9082L20.0908 22.2324C19.7538 21.8954 19.7016 21.3673 19.9658 20.9707L20.8633 19.624C20.6777 19.2595 20.5184 18.8795 20.3896 18.4854L18.8037 18.167C18.3364 18.0734 18 17.6631 18 17.1865V14.8154C18.0002 14.339 18.3365 13.9285 18.8037 13.835L20.3887 13.5186C20.5175 13.1234 20.6773 12.7424 20.8633 12.377L19.9658 11.0283C19.7015 10.6318 19.754 10.1037 20.0908 9.7666L21.7676 8.08984C22.1047 7.75304 22.6328 7.70051 23.0293 7.96484L24.3779 8.86523C24.7419 8.68035 25.1213 8.52176 25.5146 8.39355L25.834 6.80371C25.9275 6.33649 26.338 6.00022 26.8145 6H29.1855ZM27.9951 12C25.786 12 23.9951 13.7909 23.9951 16C23.9951 18.2091 25.786 20 27.9951 20C30.2043 20 31.9951 18.2091 31.9951 16C31.9951 13.7909 30.2043 12 27.9951 12Z" fill="oklch(0.3057 0.079 256.22 / 0.13)" class="wd-expressive-accent"></path>
</g>
<g>
<path d="M49.6147 30.2822L49.77 30.3105L49.9926 30.3672C51.0992 30.6757 52.1211 31.333 52.8745 32.3135C53.5112 33.1424 53.8759 34.0984 53.9809 35.0693C54.0828 36.0135 53.5981 36.8047 53.0327 37.2949L40.0649 48.5342C38.9741 49.4794 37.5785 49.9999 36.1352 50H4.50043C4.22435 50 4.00053 49.7761 4.00043 49.5V48.5C4.00043 48.2239 4.22428 48 4.50043 48H36.1352C37.0974 47.9999 38.0282 47.6526 38.7553 47.0225L51.7231 35.7842C51.9549 35.5832 52.0039 35.3894 51.9926 35.2842C51.926 34.6681 51.6952 34.0618 51.2885 33.5322C50.8249 32.9289 50.2038 32.5216 49.5278 32.3174L37.7983 40.0156C36.8204 40.6574 35.6759 40.9999 34.5063 41H19.0004V39H29.645C30.7537 38.6235 31.7343 37.861 32.3657 36.7676C32.7034 36.1827 32.9087 35.5597 32.9926 34.9326C33.0125 34.7841 32.9661 34.6601 32.8061 34.542C32.623 34.4071 32.325 34.3218 32.0112 34.3691C30.0944 34.659 26.9042 35 22.5004 35C17.3569 35 13.824 34.5347 12.059 34.2295C11.6283 34.155 11.2111 34.3097 10.9653 34.6045L5.08832 41.6562C4.91156 41.868 4.59626 41.8962 4.38422 41.7197L4.00043 41.4004L3.61566 41.0791C3.40367 40.9023 3.37446 40.5871 3.55121 40.375L9.42816 33.3242C10.1651 32.44 11.3181 32.0717 12.3998 32.2588C14.059 32.5457 17.4778 33 22.5004 33C26.8007 33 29.8911 32.667 31.7123 32.3916C32.5194 32.2697 33.3586 32.4642 33.9936 32.9326C34.6515 33.4181 35.1055 34.2229 34.975 35.1982C34.8571 36.0796 34.5686 36.9527 34.0981 37.7676C33.837 38.2198 33.5308 38.6302 33.1918 39H34.5063C35.2859 38.9999 36.0488 38.7715 36.7006 38.3438L48.6274 30.5166L48.7504 30.4443C49.0046 30.3103 49.3052 30.2445 49.6147 30.2822Z" fill="oklch(0.3523 0 0 / 1)" class="wd-expressive-fill"></path>
<path d="M27.9955 11C30.7568 11.0002 32.9955 13.2387 32.9955 16C32.9954 18.7612 30.7567 20.9998 27.9955 21C25.2342 21 22.9957 18.7613 22.9955 16C22.9955 13.2386 25.2341 11 27.9955 11ZM27.9955 13C26.3387 13 24.9955 14.3431 24.9955 16C24.9957 17.6568 26.3388 19 27.9955 19C29.6521 18.9998 30.9954 17.6566 30.9955 16C30.9955 14.3433 29.6522 13.0002 27.9955 13Z" fill="oklch(0.3523 0 0 / 1)" class="wd-expressive-fill"></path>
<path d="M29.186 5L29.3627 5.00781C30.2389 5.08526 30.9715 5.73124 31.1469 6.60742L31.3539 7.65332C31.4123 7.67684 31.471 7.70088 31.5287 7.72559L32.4174 7.13281L32.5698 7.04102C33.3414 6.62022 34.3089 6.75087 34.9409 7.38281L36.6166 9.05957C37.248 9.69143 37.3803 10.6595 36.9584 11.4316L36.8666 11.583L36.2729 12.4727C36.2975 12.5302 36.3217 12.5883 36.3452 12.6465L37.392 12.8545C38.2682 13.0301 38.9149 13.7624 38.9926 14.6377L39.0004 14.8154V17.1865C39.0003 18.08 38.4088 18.8576 37.5649 19.1055L37.393 19.1475L36.3432 19.3584C36.3203 19.415 36.2968 19.4713 36.2729 19.5273L36.8666 20.415C37.3949 21.2081 37.2905 22.2654 36.6166 22.9395L34.9409 24.6152C34.3089 25.2472 33.3408 25.3785 32.5688 24.957L32.4174 24.8652L31.5307 24.2754C31.4723 24.3005 31.4131 24.3248 31.3539 24.3486L31.1469 25.3916C30.9715 26.2677 30.2389 26.9148 29.3627 26.9922L29.186 27H26.8149C25.9221 26.9996 25.1438 26.4087 24.8959 25.5645L24.8539 25.3926L24.645 24.3535C24.5848 24.3293 24.5247 24.3038 24.4653 24.2783L23.5844 24.8652C22.7911 25.3941 21.7349 25.2887 21.061 24.6152L19.3842 22.9395C18.71 22.2653 18.606 21.2089 19.1342 20.416L19.7202 19.5371C19.6945 19.4774 19.6694 19.4169 19.645 19.3564L18.6069 19.1475C17.6728 18.96 17.0006 18.1392 17.0004 17.1865V14.8154L17.0082 14.6377C17.086 13.7623 17.7315 13.0299 18.6078 12.8545L19.644 12.6484C19.6689 12.5866 19.6939 12.5249 19.7202 12.4639L19.1342 11.583L19.0424 11.4316C18.6204 10.6593 18.7529 9.69129 19.3842 9.05957L21.061 7.38281L21.1918 7.2627C21.8659 6.69858 22.8406 6.63692 23.5844 7.13281L24.4672 7.72168C24.5257 7.69667 24.5848 7.67226 24.644 7.64844L24.8539 6.60645C25.0414 5.67198 25.8629 5.00044 26.8149 5H29.186ZM26.8149 7L26.3803 9.16309L25.8246 9.34473C25.4825 9.45624 25.1509 9.59462 24.8315 9.75684L24.31 10.0215L23.8227 9.69727L22.4741 8.79785L20.7983 10.4736L21.6957 11.8232L22.02 12.3096L21.7553 12.8311C21.5919 13.1522 21.4522 13.4848 21.3403 13.8281L21.1586 14.3848L18.9994 14.8154L19.0004 17.1865L21.1596 17.6201L21.3403 18.1748C21.4522 18.5175 21.5923 18.8498 21.7553 19.1699L22.02 19.6914L20.7983 21.5254L22.475 23.2012L24.309 21.9785L24.8305 22.2432C25.1507 22.4058 25.4831 22.5447 25.8256 22.6562L26.3813 22.8379L26.8149 25H29.186L29.6176 22.835L30.1733 22.6533C30.5146 22.5417 30.8458 22.4024 31.1645 22.2402L31.685 21.9756L33.5258 23.2012L35.2016 21.5264L34.2983 20.1719L33.9741 19.6846L34.2387 19.1631C34.3997 18.846 34.5377 18.5169 34.6489 18.1768L34.8295 17.6221L37.0004 17.1865V14.8154L34.8305 14.3828L34.6498 13.8271C34.5383 13.4854 34.4 13.1545 34.2387 12.8369L33.9741 12.3154L35.2026 10.4736L33.5268 8.79688L31.686 10.0244L31.1645 9.75977C30.8472 9.59832 30.5158 9.45974 30.1733 9.34766L29.6176 9.16602L29.186 7H26.8149Z" fill="oklch(0.3523 0 0 / 1)" class="wd-expressive-fill"></path>
</g>
</svg>