<svg role="presentation" width="56" height="56" viewBox="0 0 56 56" xmlns="http://www.w3.org/2000/svg" class="wd-expressive wd-expressive-stopwatch">
<path d="M28.0005 10.0938C29.4076 10.0938 30.7822 10.2331 32.1118 10.4971C32.2184 10.4423 32.3444 10.4235 32.4692 10.457L34.4009 10.9756C34.5219 11.0081 34.6191 11.0834 34.6841 11.1797C37.3499 12.074 39.7765 13.4894 41.8442 15.3037C41.952 15.3164 42.0565 15.3626 42.1392 15.4453L43.5532 16.8594C43.6321 16.9383 43.6778 17.0371 43.6929 17.1396C45.5502 19.2268 46.9971 21.6868 47.9077 24.3936C47.9597 24.4507 48.0016 24.5189 48.0229 24.5986L48.5405 26.5312C48.5599 26.6034 48.5603 26.676 48.5483 26.7451C48.8438 28.1482 49.0005 29.6027 49.0005 31.0938C49.0005 42.6917 39.5984 52.0937 28.0005 52.0938C17.9071 52.0937 9.47781 44.9725 7.46045 35.4805L7.45752 35.4678C7.45554 35.4604 7.45524 35.4527 7.45361 35.4453C7.15772 34.0412 7.00049 32.5858 7.00049 31.0938C7.00049 29.6052 7.15615 28.1529 7.45068 26.752C7.43718 26.6805 7.43745 26.6052 7.45752 26.5303L7.9751 24.5977C7.99726 24.5152 8.03952 24.4439 8.09424 24.3857C9.00447 21.6836 10.4503 19.228 12.3042 17.1436C12.3185 17.0394 12.3638 16.9386 12.4438 16.8584L13.8579 15.4443C13.9417 15.3605 14.0483 15.3146 14.1577 15.3027C16.2247 13.4893 18.6503 12.0749 21.3149 11.1807C21.3799 11.0839 21.4777 11.0082 21.5991 10.9756L23.5308 10.457C23.6554 10.4238 23.7808 10.4425 23.8872 10.4971C25.2174 10.2329 26.5927 10.0938 28.0005 10.0938ZM28.0005 14C26.9991 14 26.0178 14.0868 25.064 14.2529L25.6304 16.3652C25.707 16.6514 25.5193 16.9402 25.229 16.999C24.6057 17.1253 23.9976 17.2932 23.4077 17.5C23.1254 17.599 22.8132 17.4433 22.7358 17.1543L22.1655 15.0264C20.297 15.7091 18.5825 16.7118 17.0864 17.9658L18.6997 19.5791C18.907 19.7864 18.892 20.126 18.6753 20.3232C18.2085 20.7473 17.7701 21.203 17.3647 21.6865C17.171 21.9175 16.8192 21.9408 16.606 21.7275L14.9653 20.0869C13.7116 21.5829 12.7104 23.2977 12.0278 25.166L14.4038 25.8027C14.6858 25.8783 14.8424 26.1784 14.7554 26.457C14.569 27.0534 14.4219 27.667 14.3169 28.2949C14.2668 28.5942 13.9723 28.7933 13.6792 28.7148L11.2534 28.0645C11.0874 29.0181 11.0005 29.9989 11.0005 31C11.0005 32.0001 11.0868 32.9799 11.2524 33.9326L13.8306 33.2422C14.1127 33.1667 14.3988 33.3477 14.4624 33.6328C14.6009 34.2536 14.7809 34.859 14.9995 35.4453C15.1053 35.7294 14.9495 36.0484 14.6567 36.127L12.0269 36.8311C12.7091 38.6995 13.7108 40.4139 14.9644 41.9102L16.9829 39.8926C17.1903 39.6851 17.5308 39.7008 17.728 39.918C18.152 40.3847 18.6079 40.8222 19.0913 41.2275C19.322 41.4212 19.345 41.7722 19.1323 41.9854L17.0854 44.0322C18.5815 45.2865 20.296 46.2887 22.1646 46.9717L22.9341 44.1016C23.0108 43.8157 23.3174 43.659 23.5981 43.7529C24.1908 43.9512 24.801 44.1111 25.4263 44.2285C25.7204 44.2837 25.9129 44.5752 25.8354 44.8643L25.063 47.7461C26.0172 47.9123 26.9987 48 28.0005 48C29.0003 48 29.9797 47.9117 30.9321 47.7461L30.1597 44.8643C30.0823 44.5752 30.2748 44.2837 30.5688 44.2285C31.1942 44.1114 31.8052 43.9529 32.3979 43.7549C32.6787 43.6612 32.9854 43.8176 33.062 44.1035L33.8306 46.9727C35.6999 46.2901 37.4149 45.2884 38.9116 44.0342L36.8657 41.9883C36.6525 41.7751 36.6757 41.4232 36.9067 41.2295C37.3905 40.8243 37.8467 40.3865 38.271 39.9199C38.4683 39.7033 38.8079 39.6882 39.0151 39.8955L41.0327 41.9131C42.2874 40.4163 43.2903 38.7015 43.9731 36.832L41.3433 36.1279C41.0504 36.0494 40.8945 35.7304 41.0005 35.4463C41.2193 34.8599 41.3999 34.2546 41.5386 33.6338C41.6023 33.3487 41.8883 33.1675 42.1704 33.2432L44.7466 33.9336C44.9124 32.9805 45.0005 32.0005 45.0005 31C45.0005 29.9988 44.9126 29.0181 44.7466 28.0645L42.3208 28.7148C42.0277 28.7932 41.7331 28.5942 41.6831 28.2949C41.5781 27.6667 41.4311 27.0527 41.2446 26.4561C41.1576 26.1774 41.3142 25.8773 41.5962 25.8018L43.9722 25.165C43.2892 23.2962 42.2872 21.5812 41.0327 20.085L39.6167 21.501C37.8632 25.7678 34.7646 32.7201 32.2427 35.2422C29.8995 37.5853 26.1005 37.5853 23.7573 35.2422L38.0093 20.9902C37.7884 20.76 37.5599 20.5368 37.3237 20.3223C37.1069 20.1251 37.0913 19.7855 37.2983 19.5781L38.9116 17.9639C37.4153 16.7101 35.7002 15.7087 33.8315 15.0264L33.2612 17.1533C33.1838 17.442 32.8724 17.5986 32.5903 17.5C32.0006 17.2932 31.3921 17.1243 30.769 16.998C30.4788 16.9391 30.291 16.6504 30.3677 16.3643L30.9331 14.2529C29.9804 14.0872 29.0006 14 28.0005 14Z" fill="oklch(0.3057 0.079 256.22 / 0.13)" class="wd-expressive-accent"></path>
<g>
<path d="M27.9997 28C29.6565 28 30.9997 29.3431 30.9997 31C30.9997 32.6569 29.6565 34 27.9997 34C26.3429 33.9999 24.9997 32.6568 24.9997 31C24.9997 29.3432 26.3429 28.0001 27.9997 28Z" fill="oklch(0.3523 0 0 / 1)" class="wd-expressive-fill"></path>
<path d="M38.6012 17.8584C40.2112 17.2181 41.7826 18.7894 41.1423 20.3994C40.3591 22.3673 39.0655 25.4866 37.6071 28.4775C36.1703 31.424 34.5039 34.396 32.9499 35.9502C30.2162 38.6838 25.7841 38.6838 23.0505 35.9502C20.3168 33.2165 20.3168 28.7845 23.0505 26.0508C24.6045 24.4968 27.5758 22.8294 30.5221 21.3926C33.5131 19.9341 36.6334 18.6416 38.6012 17.8584ZM39.2458 19.7549C37.2951 20.5329 34.2789 21.7861 31.3991 23.1904C28.4279 24.6393 25.7504 26.179 24.4645 27.4648C22.5119 29.4175 22.5119 32.5835 24.4645 34.5361C26.4171 36.4887 29.5832 36.4887 31.5358 34.5361C32.8217 33.2502 34.3614 30.5727 35.8102 27.6016C37.2144 24.7218 38.4678 21.7056 39.2458 19.7549Z" fill="oklch(0.3523 0 0 / 1)" class="wd-expressive-fill"></path>
<path d="M27.9997 2C30.8562 2 33.4714 3.04324 35.4821 4.76758C35.8201 5.05749 35.9997 5.47488 35.9997 5.89746V6.5C35.9997 7.32843 35.3281 8 34.4997 8H28.9997V9.02246C40.6859 9.54516 49.9997 19.1848 49.9997 31C49.9997 43.1503 40.1499 53 27.9997 53C15.8495 52.9999 5.99967 43.1502 5.99967 31C5.99967 26.9556 7.09152 23.1663 8.99576 19.9102L6.14616 17.0605C5.56072 16.4748 5.56059 15.5251 6.14616 14.9395L11.4391 9.64648C12.0248 9.0608 12.9744 9.06102 13.5602 9.64648L16.2878 12.374C19.4152 10.4033 23.0734 9.19814 26.9997 9.02246V8H21.4997C20.7231 7.99992 20.0843 7.40967 20.0075 6.65332L19.9997 6.5V5.89746L20.0085 5.73926C20.0473 5.37232 20.2215 5.02126 20.5172 4.76758L20.901 4.45215C22.8556 2.91675 25.3217 2.00003 27.9997 2ZM27.9997 11C16.9541 11.0001 7.99967 19.9544 7.99967 31C7.99967 42.0456 16.9541 50.9999 27.9997 51C39.0454 51 47.9997 42.0457 47.9997 31C47.9997 19.9543 39.0454 11 27.9997 11ZM7.91373 16L10.1081 18.1943C11.3748 16.4276 12.8976 14.8572 14.6208 13.5352L12.4997 11.4141L7.91373 16ZM27.9997 4C25.8008 4.00003 23.7785 4.74633 22.1686 6H33.8307C32.2208 4.74634 30.1985 4 27.9997 4Z" fill="oklch(0.3523 0 0 / 1)" class="wd-expressive-fill"></path>
</g>
</svg>