<svg role="presentation" width="56" height="56" viewBox="0 0 56 56" xmlns="http://www.w3.org/2000/svg" class="wd-expressive wd-expressive-laptop-lock-check">
<g>
<path d="M52.6367 40C52.8373 40.0002 52.9998 40.1627 53 40.3633C53 42.3716 51.3716 44 49.3633 44H6.63672C4.62841 44 3 42.3716 3 40.3633C3.00019 40.1627 3.16273 40.0002 3.36328 40H52.6367Z" fill="oklch(0.3057 0.079 256.22 / 0.13)" class="wd-expressive-accent"></path>
<path d="M10 11V36.5C10 36.7761 9.77614 37 9.5 37H7V13C7 11.8954 7.89543 11 9 11H10Z" fill="oklch(0.3057 0.079 256.22 / 0.13)" class="wd-expressive-accent"></path>
<path d="M23 32H35V34H21V24H23V32Z" fill="oklch(0.3057 0.079 256.22 / 0.13)" class="wd-expressive-accent"></path>
</g>
<g>
<path d="M24.6445 39.0039C24.8282 39.0175 25.0026 39.0645 25.1611 39.1367L25.3438 39.2354L25.6387 39.4072C26.3417 39.7852 27.1447 40 28 40C28.9775 40 29.8866 39.7194 30.6562 39.2354L30.8389 39.1367C31.029 39.0501 31.2424 39 31.4668 39H52.6377L52.7773 39.0068C53.4638 39.0773 53.9993 39.6574 54 40.3623C54 42.9229 51.9239 45 49.3633 45H6.63672C4.07613 45 2 42.9239 2 40.3633L2.00684 40.2227C2.07733 39.5362 2.65737 39.0007 3.3623 39H24.5332L24.6445 39.0039ZM4.08105 41C4.36624 42.1481 5.40053 43 6.63672 43H49.3633C50.5995 43 51.6338 42.1481 51.9189 41H31.6025C30.5498 41.6335 29.317 42 28 42C26.683 42 25.4502 41.6335 24.3975 41H4.08105Z" fill="oklch(0.3523 0 0 / 1)" class="wd-expressive-fill"></path>
<path d="M47 10C48.6569 10 50 11.3431 50 13V36.5C50 36.7761 49.7761 37 49.5 37H48.5C48.2239 37 48 36.7761 48 36.5V13C48 12.4477 47.5523 12 47 12H9C8.44771 12 8 12.4477 8 13V36.5C8 36.7761 7.77614 37 7.5 37H6.5C6.22386 37 6 36.7761 6 36.5V13C6 11.3431 7.34315 10 9 10H47Z" fill="oklch(0.3523 0 0 / 1)" class="wd-expressive-fill"></path>
<path d="M29.9395 26.6465C30.1347 26.4513 30.4512 26.4513 30.6465 26.6465L31.3535 27.3535C31.5487 27.5488 31.5487 27.8653 31.3535 28.0605L28.207 31.207C28.0195 31.3945 27.7652 31.5 27.5 31.5C27.2349 31.5 26.9805 31.3945 26.793 31.207L25.1465 29.5605C24.9513 29.3653 24.9513 29.0488 25.1465 28.8535L25.8535 28.1465C26.0488 27.9513 26.3653 27.9513 26.5605 28.1465L27.5 29.0859L29.9395 26.6465Z" fill="oklch(0.3523 0 0 / 1)" class="wd-expressive-fill"></path>
<path d="M28 15C31.3137 15 34 17.6863 34 21V23H34.5C35.3284 23 36 23.6716 36 24.5V33.499C36 34.3274 35.3284 34.999 34.5 34.999H21.5C20.6716 34.999 20 34.3275 20 33.499V24.5C20 23.6716 20.6716 23 21.5 23H22V21C22 17.6863 24.6863 15 28 15ZM22 32.999H34V25H22V32.999ZM28 17C25.7909 17 24 18.7909 24 21V23H32V21C32 18.7909 30.2091 17 28 17Z" fill="oklch(0.3523 0 0 / 1)" class="wd-expressive-fill"></path>
</g>
</svg>