<svg role="presentation" width="56" height="56" viewBox="0 0 56 56" xmlns="http://www.w3.org/2000/svg" class="wd-expressive wd-expressive-lightbulb-bolt">
<g>
<path d="M18.9971 10.001C17.1147 12.5077 16 15.6239 16 19C16 23.6201 18.0892 27.7519 21.374 30.5029C23.8345 32.5637 26 35.2905 26 38.5C26 38.7761 26.2239 39 26.5 39H34.5879C34.2172 40.0534 34 41.1499 34 42.293V42.5C34 42.7761 33.7761 43 33.5 43H23.5C23.5 43 25.0003 48 33 48C33 48.0574 32.9759 48.1126 32.9326 48.1504C31.6141 49.3024 29.8884 50 28 50C26.4003 50 24.9177 49.4989 23.7002 48.6455C23.2344 48.319 23 47.7652 23 47.1963V43H22.5C22.2239 43 22 42.7761 22 42.5V42.293C21.9999 38.3185 19.3855 34.9033 16.7539 31.9248C14.4178 29.2805 13 25.8061 13 22C13 17.0938 15.3554 12.7377 18.9971 10.001Z" fill="oklch(0.3057 0.079 256.22 / 0.13)" class="wd-expressive-accent"></path>
<path d="M28.3564 12.7051C28.9389 11.79 30.3571 12.3271 30.1875 13.3984L28.9844 21H33.6602C34.4479 21 34.9267 21.8684 34.5059 22.5342L27.7334 33.2393C27.1526 34.1569 25.7306 33.6206 25.9004 32.5479L27.2539 24H22.9883C22.1993 23.9998 21.7218 23.1285 22.1455 22.4629L28.3564 12.7051Z" fill="oklch(0.3057 0.079 256.22 / 0.13)" class="wd-expressive-accent"></path>
</g>
<g>
<path d="M27.5537 12.1934C28.6911 10.4073 31.46 11.4563 31.1289 13.5479L30.0996 20.0479H33.6611C35.1989 20.0484 36.1328 21.7442 35.3105 23.0439L28.5381 33.748C27.4043 35.5401 24.6288 34.4938 24.96 32.3994L26.1396 24.9521H22.9893C21.4487 24.9521 20.5148 23.2518 21.3418 21.9521L27.5537 12.1934ZM29.1768 13.1953C29.1734 13.199 29.1672 13.2058 29.1602 13.2168L22.9492 22.9746C22.9436 22.9834 22.9411 22.9891 22.9404 22.9912C22.9398 22.9933 22.9395 22.9971 22.9395 22.9971C22.9394 23.002 22.9411 23.0123 22.9473 23.0234C22.9533 23.0342 22.9607 23.0404 22.9648 23.043C22.9648 23.043 22.9686 23.0453 22.9707 23.0459C22.9731 23.0466 22.9794 23.0479 22.9893 23.0479H28.3691L26.8418 32.6973C26.8398 32.7099 26.8388 32.7186 26.8389 32.7236V32.7285C26.842 32.7319 26.8523 32.7416 26.8721 32.749C26.8912 32.7561 26.9046 32.7544 26.9092 32.7539L26.9121 32.752C26.9155 32.7482 26.9216 32.7407 26.9287 32.7295L33.7012 22.0254C33.7066 22.0168 33.7083 22.011 33.709 22.0088C33.7096 22.0067 33.71 22.0029 33.71 22.0029C33.71 21.9981 33.7082 21.9877 33.7021 21.9766C33.6962 21.9659 33.6887 21.9597 33.6846 21.957C33.6846 21.957 33.6808 21.9548 33.6787 21.9541C33.6765 21.9535 33.6708 21.9522 33.6611 21.9521H27.8701L29.248 13.25C29.2501 13.2371 29.2501 13.2277 29.25 13.2227C29.25 13.2201 29.249 13.2168 29.249 13.2168C29.2452 13.2129 29.2355 13.2041 29.2178 13.1973C29.1983 13.1899 29.1844 13.1909 29.1797 13.1914L29.1768 13.1953Z" fill="oklch(0.3523 0 0 / 1)" class="wd-expressive-fill"></path>
<path d="M28 6C36.8365 6.00003 44 13.1635 44 22C44 26.556 42.094 30.6678 39.0391 33.5801C36.7779 35.7355 35 38.2396 35 41L34.9961 41.1543C34.9543 41.9795 34.5767 42.7142 34 43.2314V47.1963C34 48.0233 33.6581 48.9152 32.874 49.4648C31.4938 50.4323 29.8117 51 28 51C26.1883 51 24.5062 50.4323 23.126 49.4648C22.3419 48.9152 22 48.0233 22 47.1963V43.2314C21.3876 42.6822 21 41.8874 21 41C21 38.2396 19.2221 35.7355 16.9609 33.5801C13.906 30.6678 12 26.556 12 22C12 13.1635 19.1635 6.00004 28 6ZM24 47.1963C24 47.5071 24.1268 47.7237 24.2744 47.8271C25.3291 48.5664 26.6124 49 28 49C29.3876 49 30.6709 48.5664 31.7256 47.8271C31.8732 47.7237 32 47.5071 32 47.1963V44H24V47.1963ZM22.9414 40C22.98 40.3279 23 40.6613 23 41L23.0049 41.1025C23.0562 41.6067 23.4823 42 24 42H32L32.1025 41.9951C32.5729 41.9472 32.9472 41.5729 32.9951 41.1025L33 41C33 40.6613 33.02 40.3279 33.0586 40H22.9414ZM28 8C20.268 8.00003 14 14.268 14 22C14 25.9866 15.6652 29.5822 18.3408 32.1328C20.0103 33.7243 21.6521 35.6977 22.4678 38H33.5312C34.3469 35.6976 35.9896 33.7243 37.6592 32.1328C40.3348 29.5822 42 25.9866 42 22C42 14.268 35.732 8.00003 28 8Z" fill="oklch(0.3523 0 0 / 1)" class="wd-expressive-fill"></path>
</g>
</svg>