<svg role="presentation" width="56" height="56" viewBox="0 0 56 56" xmlns="http://www.w3.org/2000/svg" class="wd-expressive wd-expressive-data-clock">
<g>
<path d="M35.999 32.999C34.7434 34.6704 34 36.7486 34 39C34 44.5228 38.4772 49 44 49C46.2514 49 48.3286 48.2555 50 47C48.1756 49.4287 45.2715 51 42 51C36.4772 51 32 46.5228 32 41C32 37.7286 33.5704 34.8235 35.999 32.999Z" fill="oklch(0.3057 0.079 256.22 / 0.13)" class="wd-expressive-accent"></path>
<path d="M9 32C9 35.3137 17.5066 38 28 38C28.3354 38 28.6688 37.9966 29 37.9912V41C29 43.5454 29.7317 45.9199 30.9961 47.9248C30.0201 47.9736 29.0195 48 28 48C17.5066 48 9 45.3137 9 42V32Z" fill="oklch(0.3057 0.079 256.22 / 0.13)" class="wd-expressive-accent"></path>
<path d="M9 16.9551C10.292 17.8488 11.9157 18.5523 13.6611 19.1035C17.4644 20.3046 22.5337 21 28 21C33.4663 21 38.5356 20.3046 42.3389 19.1035C42.9084 18.9237 43.4636 18.7243 44 18.5107V25.2334C42.5742 25.9349 40.6999 26.5389 38.5029 27H29V27.9912C28.6688 27.9966 28.3354 28 28 28C17.5066 28 9 25.3137 9 22V16.9551Z" fill="oklch(0.3057 0.079 256.22 / 0.13)" class="wd-expressive-accent"></path>
</g>
<g>
<path d="M42.501 35C42.7766 35.0005 43.0008 35.2243 43.001 35.5V41H46.501C46.7767 41.0005 47 41.2242 47 41.5V42.5C47 42.776 46.7759 42.9997 46.5 43H42.001C41.4487 43 41.001 42.5523 41.001 42V35.5C41.0011 35.224 41.2249 35 41.501 35H42.501Z" fill="oklch(0.3523 0 0 / 1)" class="wd-expressive-fill"></path>
<path d="M42 30C48.0751 30 53 34.9249 53 41C53 47.0751 48.0751 52 42 52C35.9249 52 31 47.0751 31 41C31 34.9249 35.9249 30 42 30ZM42 32C37.0294 32 33 36.0294 33 41C33 45.9706 37.0294 50 42 50C46.9706 50 51 45.9706 51 41C51 36.0294 46.9706 32 42 32Z" fill="oklch(0.3523 0 0 / 1)" class="wd-expressive-fill"></path>
<path d="M28 5C33.3199 5 38.1764 5.67951 41.7363 6.80371C43.5104 7.36396 45.0191 8.05217 46.1055 8.86328C47.1737 9.66089 48 10.7101 48 12C48 12.1207 47.9906 12.239 47.9766 12.3555C47.9905 12.4014 48 12.4495 48 12.5V27.5C48 27.7761 47.7761 28 47.5 28H46.5C46.2239 28 46 27.7761 46 27.5V25.2119C44.9223 25.9898 43.4543 26.6538 41.7363 27.1963C38.1764 28.3205 33.3199 29 28 29C22.6801 29 17.8236 28.3205 14.2637 27.1963C12.5457 26.6538 11.0777 25.9898 10 25.2119V32.2852C10.0474 32.3462 10.0883 32.4126 10.1211 32.4805C10.2661 32.7807 10.5591 33.1365 11.0918 33.5342C11.9283 34.1586 13.2023 34.7636 14.8662 35.2891C18.1829 36.3364 22.8266 37 28 37C28.1616 37 28.3228 36.9993 28.4834 36.998C28.7595 36.9959 28.9866 37.2161 28.9912 37.4922L29 37.9912L29.0078 38.4912C29.0124 38.7673 28.7927 38.9955 28.5166 38.998C28.345 38.9996 28.1726 39 28 39C22.6802 39 17.8236 38.3204 14.2637 37.1963C12.5458 36.6538 11.0777 35.9898 10 35.2119V42C10 42.3669 10.2372 42.8962 11.0918 43.5342C11.9283 44.1586 13.2022 44.7636 14.8662 45.2891C18.1829 46.3364 22.8265 47 28 47C28.8307 47 29.6487 46.9824 30.4502 46.9492C30.726 46.9378 30.9606 47.1502 30.9746 47.4258L31.0254 48.4258C31.039 48.7013 30.8264 48.9356 30.5508 48.9473C29.7159 48.9819 28.8643 49 28 49C22.6801 49 17.8236 48.3205 14.2637 47.1963C12.4896 46.636 10.9809 45.9478 9.89453 45.1367C8.82631 44.3391 8 43.2899 8 42V12.5C8 12.4496 8.0086 12.4013 8.02246 12.3555C8.00848 12.239 8 12.1206 8 12C8 10.7101 8.82631 9.66089 9.89453 8.86328C10.9809 8.05217 12.4896 7.36396 14.2637 6.80371C17.8236 5.67951 22.6801 5 28 5ZM10 22C10 22.3669 10.2372 22.8962 11.0918 23.5342C11.9283 24.1586 13.2022 24.7636 14.8662 25.2891C18.1829 26.3364 22.8265 27 28 27C33.1735 27 37.8171 26.3364 41.1338 25.2891C42.7978 24.7636 44.0717 24.1586 44.9082 23.5342C45.7628 22.8962 46 22.3669 46 22V15.2119C44.9223 15.9898 43.4543 16.6538 41.7363 17.1963C38.1764 18.3205 33.3199 19 28 19C22.6801 19 17.8236 18.3205 14.2637 17.1963C12.5457 16.6538 11.0777 15.9898 10 15.2119V22ZM28 7C22.8265 7 18.1829 7.66359 14.8662 8.71094C13.2022 9.23641 11.9283 9.84136 11.0918 10.4658C10.2372 11.1038 10 11.6331 10 12C10 12.3669 10.2372 12.8962 11.0918 13.5342C11.9283 14.1586 13.2022 14.7636 14.8662 15.2891C18.1829 16.3364 22.8265 17 28 17C33.1735 17 37.8171 16.3364 41.1338 15.2891C42.7978 14.7636 44.0717 14.1586 44.9082 13.5342C45.7628 12.8962 46 12.3669 46 12C46 11.6331 45.7628 11.1038 44.9082 10.4658C44.0717 9.84136 42.7978 9.23641 41.1338 8.71094C37.8171 7.66359 33.1735 7 28 7Z" fill="oklch(0.3523 0 0 / 1)" class="wd-expressive-fill"></path>
</g>
</svg>