<svg role="presentation" width="56" height="56" viewBox="0 0 56 56" xmlns="http://www.w3.org/2000/svg" class="wd-expressive wd-expressive-magnet-users">
<g>
<path d="M11.6465 31.3535C11.8417 31.1583 12.1583 31.1583 12.3535 31.3535L15.1455 34.1455C15.3408 34.3408 15.3407 34.6573 15.1455 34.8525L11.2422 38.7568C10.4467 39.5524 10.0001 40.6318 10 41.7568C10 44.0998 11.8993 45.9998 14.2422 46C15.3674 46 16.4465 45.5524 17.2422 44.7568L21.1455 40.8525C21.3407 40.6573 21.6573 40.6574 21.8525 40.8525L24.6465 43.6465C24.8417 43.8417 24.8417 44.1583 24.6465 44.3535L20.6924 48.3076C18.9685 50.0314 16.6303 51 14.1924 51C9.11566 51 5.00014 46.8843 5 41.8076C5 39.3697 5.96856 37.0315 7.69238 35.3076L11.6465 31.3535Z" fill="oklch(0.3057 0.079 256.22 / 0.13)" class="wd-expressive-accent"></path>
<path d="M42.876 31.876C42.32 32.7859 42 33.8556 42 35C42 38.3137 44.6863 41 48 41C49.1442 41 50.2132 40.6789 51.123 40.123C50.0692 41.8481 48.1695 43 46 43C42.6863 43 40 40.3137 40 37C40 34.8307 41.1511 32.9299 42.876 31.876Z" fill="oklch(0.3057 0.079 256.22 / 0.13)" class="wd-expressive-accent"></path>
<path d="M39.001 21C41.6848 21.0002 44.134 22.0072 45.9902 23.6641C44.5213 24.5119 42.8179 25 41 25C38.3167 24.9999 35.882 23.9409 34.0859 22.2207C35.5524 21.4424 37.2252 21 39.001 21Z" fill="oklch(0.3057 0.079 256.22 / 0.13)" class="wd-expressive-accent"></path>
<path d="M16.876 5.87598C16.32 6.78589 16 7.85564 16 9C16 12.3137 18.6863 15 22 15C23.1442 15 24.2132 14.6789 25.123 14.123C24.0692 15.8481 22.1695 17 20 17C16.6863 17 14 14.3137 14 11C14 8.83066 15.1511 6.92987 16.876 5.87598Z" fill="oklch(0.3057 0.079 256.22 / 0.13)" class="wd-expressive-accent"></path>
<path d="M39.001 12C40.6575 12.0004 42.001 13.3434 42.001 15C42.001 15.3028 41.9536 15.5946 41.8701 15.8701C41.5947 15.9535 41.3026 16 41 16C39.3433 15.9999 38 14.6568 38 13C38 12.697 38.0454 12.4046 38.1289 12.1289C38.4047 12.0453 38.6979 12 39.001 12Z" fill="oklch(0.3057 0.079 256.22 / 0.13)" class="wd-expressive-accent"></path>
</g>
<g>
<path d="M15.0537 26.5439C15.6428 26.0635 16.5114 26.0974 17.0605 26.6465L19.8525 29.4385C20.4383 30.0242 20.4382 30.9738 19.8525 31.5596L11.9492 39.4639C11.3415 40.0716 11.0001 40.8966 11 41.7568C11 43.5477 12.4517 44.9998 14.2422 45C15.1019 45 15.9268 44.6581 16.5352 44.0498L24.4385 36.1455L24.5518 36.043C25.1016 35.5941 25.8953 35.5944 26.4453 36.043L26.5596 36.1455L29.3535 38.9395C29.9392 39.5252 29.9392 40.4748 29.3535 41.0605L21.3994 49.0146C19.488 50.9261 16.8956 52 14.1924 52C8.73919 52 4.28666 47.7174 4.01367 42.332L4 41.8076C4.00002 39.1045 5.07396 36.512 6.98535 34.6006L14.9395 26.6465L15.0537 26.5439ZM8.39941 36.0146C6.86308 37.551 6.00002 39.6349 6 41.8076L6.01074 42.2295C6.23035 46.5579 9.80938 50 14.1924 50C16.3651 50 18.449 49.1369 19.9854 47.6006L23.5859 44L21.499 41.9131L17.9492 45.4639C16.9663 46.4468 15.6329 47 14.2422 47C11.3469 46.9997 9 44.6519 9 41.7568L9.00684 41.4971C9.07113 40.2017 9.61326 38.9717 10.5352 38.0498L14.085 34.499L12 32.4141L8.39941 36.0146ZM22.9131 40.499L25 42.5859L27.5859 40L25.499 37.9131L22.9131 40.499ZM13.4141 31L15.499 33.085L18.085 30.499L16 28.4141L13.4141 31Z" fill="oklch(0.3523 0 0 / 1)" class="wd-expressive-fill"></path>
<path d="M30.0098 45.3037C30.205 45.1085 30.5215 45.1086 30.7168 45.3037L32.8389 47.4248C33.0342 47.6201 33.0342 47.9366 32.8389 48.1318L32.1318 48.8389C31.9366 49.034 31.62 49.034 31.4248 48.8389L29.3027 46.7178C29.1077 46.5226 29.1078 46.206 29.3027 46.0107L30.0098 45.3037Z" fill="oklch(0.3523 0 0 / 1)" class="wd-expressive-fill"></path>
<path d="M46.001 34C47.1053 34.0003 48.001 34.8956 48.001 36C48.001 37.1044 47.1053 37.9997 46.001 38C44.8964 38 44.001 37.1046 44.001 36C44.001 34.8954 44.8964 34 46.001 34Z" fill="oklch(0.3523 0 0 / 1)" class="wd-expressive-fill"></path>
<path d="M46.001 30C49.8667 30.0003 53.001 33.1342 53.001 37C53.001 40.8658 49.8667 43.9997 46.001 44C42.135 44 39.001 40.866 39.001 37C39.001 33.134 42.135 30 46.001 30ZM46.001 32C43.2396 32 41.001 34.2386 41.001 37C41.001 38.2707 41.475 39.4304 42.2559 40.3125C43.2823 39.4915 44.5843 39 46.001 39L46.2725 39.0059C47.5833 39.0643 48.7838 39.5446 49.7441 40.3125C50.5253 39.4303 51.001 38.271 51.001 37C51.001 34.2387 48.7622 32.0003 46.001 32Z" fill="oklch(0.3523 0 0 / 1)" class="wd-expressive-fill"></path>
<path d="M35.5 39C35.7761 39 36 39.2239 36 39.5V40.5C36 40.7761 35.7761 41 35.5 41H32.5C32.2239 41 32 40.7761 32 40.5V39.5C32 39.2239 32.2239 39 32.5 39H35.5Z" fill="oklch(0.3523 0 0 / 1)" class="wd-expressive-fill"></path>
<path d="M31.4248 31.1611C31.62 30.966 31.9366 30.966 32.1318 31.1611L32.8389 31.8682C33.0342 32.0634 33.0342 32.3799 32.8389 32.5752L30.7168 34.6963C30.5215 34.8914 30.205 34.8915 30.0098 34.6963L29.3027 33.9893C29.1078 33.794 29.1077 33.4774 29.3027 33.2822L31.4248 31.1611Z" fill="oklch(0.3523 0 0 / 1)" class="wd-expressive-fill"></path>
<path d="M7.86816 23.1611C8.06338 22.9659 8.37993 22.966 8.5752 23.1611L10.6963 25.2822C10.8915 25.4775 10.8915 25.794 10.6963 25.9893L9.98926 26.6963C9.79399 26.8915 9.47747 26.8915 9.28223 26.6963L7.16113 24.5752C6.96603 24.3799 6.96598 24.0634 7.16113 23.8682L7.86816 23.1611Z" fill="oklch(0.3523 0 0 / 1)" class="wd-expressive-fill"></path>
<path d="M23.4238 23.1611C23.619 22.966 23.9356 22.9661 24.1309 23.1611L24.8389 23.8682C25.0342 24.0634 25.0342 24.3799 24.8389 24.5752L22.7168 26.6963C22.5215 26.8914 22.205 26.8915 22.0098 26.6963L21.3027 25.9893C21.1078 25.794 21.1077 25.4774 21.3027 25.2822L23.4238 23.1611Z" fill="oklch(0.3523 0 0 / 1)" class="wd-expressive-fill"></path>
<path d="M41 9C43.2091 9 45 10.7909 45 13C45 15.2091 43.2091 17 41 17C38.7909 17 37 15.2091 37 13C37 10.7909 38.7909 9 41 9ZM41 11C39.8954 11 39 11.8954 39 13C39 14.1046 39.8954 15 41 15C42.1046 15 43 14.1046 43 13C43 11.8954 42.1046 11 41 11Z" fill="oklch(0.3523 0 0 / 1)" class="wd-expressive-fill"></path>
<path d="M41 4C47.0751 4 52 8.92487 52 15C52 21.0751 47.0751 26 41 26C34.9249 26 30 21.0751 30 15C30 8.92487 34.9249 4 41 4ZM41 20C38.842 20 36.8538 20.7187 35.2588 21.9307C36.8169 23.2228 38.8176 24 41 24C43.1821 24 45.1822 23.2226 46.7402 21.9307C45.1453 20.719 43.1577 20 41 20ZM41 6C36.0294 6 32 10.0294 32 15C32 17.0643 32.6965 18.965 33.8652 20.4834C35.8257 18.9303 38.3048 18 41 18C43.695 18 46.1734 18.9306 48.1338 20.4834C49.3027 18.9649 50 17.0645 50 15C50 10.0294 45.9706 6 41 6Z" fill="oklch(0.3523 0 0 / 1)" class="wd-expressive-fill"></path>
<path d="M16.5 20C16.7761 20 17 20.2239 17 20.5V23.5C17 23.7761 16.7761 24 16.5 24H15.5C15.2239 24 15 23.7761 15 23.5V20.5C15 20.2239 15.2239 20 15.5 20H16.5Z" fill="oklch(0.3523 0 0 / 1)" class="wd-expressive-fill"></path>
<path d="M20 8C21.1043 8.00026 22 8.89559 22 10C22 11.1044 21.1043 11.9997 20 12C18.8954 12 18 11.1046 18 10C18 8.89543 18.8954 8 20 8Z" fill="oklch(0.3523 0 0 / 1)" class="wd-expressive-fill"></path>
<path d="M20 4C23.8658 4.00026 27 7.13417 27 11C27 14.8658 23.8658 17.9997 20 18C16.134 18 12.999 14.866 12.999 11C12.999 7.13401 16.134 4 20 4ZM20 6C17.2386 6 15 8.23858 15 11C15 12.2707 15.474 13.4304 16.2549 14.3125C17.2813 13.4915 18.5834 13 20 13L20.2715 13.0059C21.5823 13.0643 22.7829 13.5446 23.7432 14.3125C24.5243 13.4303 25 12.271 25 11C25 8.23874 22.7612 6.00026 20 6Z" fill="oklch(0.3523 0 0 / 1)" class="wd-expressive-fill"></path>
</g>
</svg>