<svg role="presentation" width="56" height="56" viewBox="0 0 56 56" xmlns="http://www.w3.org/2000/svg" class="wd-expressive wd-expressive-curriculum">
<g>
<path d="M45 47V50H9.5C8.67157 50 8 49.3284 8 48.5C8 47.6716 8.67157 47 9.5 47H45Z" fill="oklch(0.3057 0.079 256.22 / 0.13)" class="wd-expressive-accent"></path>
<path d="M45 44H9.5C8.67157 44 8 43.3284 8 42.5C8 41.6716 8.67157 41 9.5 41H45V44Z" fill="oklch(0.3057 0.079 256.22 / 0.13)" class="wd-expressive-accent"></path>
<path d="M12.1016 6.10254C12.0354 6.39107 12 6.6914 12 7V31C12 33.2091 13.7909 35 16 35H31V36C31 36.6445 31.306 37.2163 31.7793 37.582C31.2432 37.8488 30.6394 38 30 38H13C10.7909 38 9 36.2091 9 34V10C9 8.09987 10.3252 6.51036 12.1016 6.10254Z" fill="oklch(0.3057 0.079 256.22 / 0.13)" class="wd-expressive-accent"></path>
<path d="M45.5 18C45.7761 18 46 18.2239 46 18.5V37.5C46 37.7761 45.7761 38 45.5 38H44C42.8954 38 42 37.1046 42 36V20C42 18.8954 42.8954 18 44 18H45.5Z" fill="oklch(0.3057 0.079 256.22 / 0.13)" class="wd-expressive-accent"></path>
</g>
<g>
<path d="M30 5C32.7614 5 35 7.23858 35 10V14.5C35 14.7761 34.7761 15 34.5 15H33.5C33.2239 15 33 14.7761 33 14.5V10C33 8.34315 31.6569 7 30 7H13C11.3431 7 10 8.34315 10 10V34C10 35.6569 11.3431 37 13 37H30.1738C30.0631 36.6869 30 36.351 30 36V20C30 18.3431 31.3431 17 33 17H45.5C46.3284 17 47 17.6716 47 18.5V37H48.5C48.7761 37 49 37.2239 49 37.5V38.5C49 38.7761 48.7761 39 48.5 39H46.6309C46.2344 39.5674 46 40.2549 46 41C46 41.7451 46.2344 42.4326 46.6309 43H48.5C48.7761 43 49 43.2239 49 43.5V44.5C49 44.7761 48.7761 45 48.5 45H46.6309C46.2344 45.5674 46 46.2549 46 47C46 47.7451 46.2344 48.4326 46.6309 49H48.5C48.7761 49 49 49.2239 49 49.5V50.5C49 50.7761 48.7761 51 48.5 51H10C8.34315 51 7 49.6569 7 48V46C7 45.2308 7.29156 44.531 7.76758 44C7.29156 43.469 7 42.7692 7 42V40C7 38.6546 7.88539 37.5153 9.10547 37.1348C8.41433 36.2772 8 35.1872 8 34V10C8 7.23858 10.2386 5 13 5H30ZM10 45C9.44772 45 9 45.4477 9 46V48C9 48.5523 9.44772 49 10 49H44.375C44.1329 48.3799 44 47.7052 44 47C44 46.2948 44.1329 45.6201 44.375 45H10ZM10 39C9.44772 39 9 39.4477 9 40V42C9 42.5523 9.44772 43 10 43H44.375C44.1329 42.3799 44 41.7052 44 41C44 40.2948 44.1329 39.6201 44.375 39H10ZM43 37H45V19H43V37ZM33 19C32.4477 19 32 19.4477 32 20V36C32 36.5523 32.4477 37 33 37H41V19H33Z" fill="oklch(0.3523 0 0 / 1)" class="wd-expressive-fill"></path>
<path d="M23.5 33C23.7761 33 24 33.2239 24 33.5V34.5C24 34.7761 23.7761 35 23.5 35H19.5C19.2239 35 19 34.7761 19 34.5V33.5C19 33.2239 19.2239 33 19.5 33H23.5Z" fill="oklch(0.3523 0 0 / 1)" class="wd-expressive-fill"></path>
<path d="M17.9395 25.1465C18.1347 24.9513 18.4512 24.9513 18.6465 25.1465L19.3535 25.8535C19.5487 26.0488 19.5487 26.3653 19.3535 26.5605L16.207 29.707C16.0195 29.8945 15.7652 30 15.5 30C15.2349 30 14.9805 29.8945 14.793 29.707L13.1465 28.0605C12.9513 27.8653 12.9513 27.5488 13.1465 27.3535L13.8535 26.6465C14.0488 26.4513 14.3653 26.4513 14.5605 26.6465L15.5 27.5859L17.9395 25.1465Z" fill="oklch(0.3523 0 0 / 1)" class="wd-expressive-fill"></path>
<path d="M27.5 27C27.7761 27 28 27.2239 28 27.5V28.5C28 28.7761 27.7761 29 27.5 29H21.5C21.2239 29 21 28.7761 21 28.5V27.5C21 27.2239 21.2239 27 21.5 27H27.5Z" fill="oklch(0.3523 0 0 / 1)" class="wd-expressive-fill"></path>
<path d="M17.9395 18.1465C18.1347 17.9513 18.4512 17.9513 18.6465 18.1465L19.3535 18.8535C19.5487 19.0488 19.5487 19.3653 19.3535 19.5605L16.207 22.707C16.0195 22.8945 15.7652 23 15.5 23C15.2349 23 14.9805 22.8945 14.793 22.707L13.1465 21.0605C12.9513 20.8653 12.9513 20.5488 13.1465 20.3535L13.8535 19.6465C14.0488 19.4513 14.3653 19.4513 14.5605 19.6465L15.5 20.5859L17.9395 18.1465Z" fill="oklch(0.3523 0 0 / 1)" class="wd-expressive-fill"></path>
<path d="M27.5 20C27.7761 20 28 20.2239 28 20.5V21.5C28 21.7761 27.7761 22 27.5 22H21.5C21.2239 22 21 21.7761 21 21.5V20.5C21 20.2239 21.2239 20 21.5 20H27.5Z" fill="oklch(0.3523 0 0 / 1)" class="wd-expressive-fill"></path>
<path d="M17.9395 11.1465C18.1347 10.9513 18.4512 10.9513 18.6465 11.1465L19.3535 11.8535C19.5487 12.0488 19.5487 12.3653 19.3535 12.5605L16.207 15.707C16.0195 15.8945 15.7652 16 15.5 16C15.2349 16 14.9805 15.8945 14.793 15.707L13.1465 14.0605C12.9513 13.8653 12.9513 13.5488 13.1465 13.3535L13.8535 12.6465C14.0488 12.4513 14.3653 12.4513 14.5605 12.6465L15.5 13.5859L17.9395 11.1465Z" fill="oklch(0.3523 0 0 / 1)" class="wd-expressive-fill"></path>
<path d="M29.5 13C29.7761 13 30 13.2239 30 13.5V14.5C30 14.7761 29.7761 15 29.5 15H21.5C21.2239 15 21 14.7761 21 14.5V13.5C21 13.2239 21.2239 13 21.5 13H29.5Z" fill="oklch(0.3523 0 0 / 1)" class="wd-expressive-fill"></path>
</g>
</svg>