<svg role="presentation" width="56" height="56" viewBox="0 0 56 56" xmlns="http://www.w3.org/2000/svg" class="wd-expressive wd-expressive-document-clock">
<g>
<path d="M14 49.5C14 49.7761 14.2239 50 14.5 50H29V53H11.5C11.2239 53 11 52.7761 11 52.5V3.5C11 3.22386 11.2239 3 11.5 3H14V49.5Z" fill="oklch(0.3057 0.079 256.22 / 0.13)" class="wd-expressive-accent"></path>
<path d="M34.999 35C33.7437 36.6713 33 38.7488 33 41C33 46.5228 37.4772 51 43 51C45.2514 51 47.3286 50.2555 49 49C47.1756 51.4287 44.2715 53 41 53C35.4772 53 31 48.5228 31 43C31 39.7288 32.5707 36.8245 34.999 35Z" fill="oklch(0.3057 0.079 256.22 / 0.13)" class="wd-expressive-accent"></path>
</g>
<g>
<path d="M43 2C44.6567 2.00018 46 3.34326 46 5V27.5C46 27.776 45.776 27.9998 45.5 28H44.5C44.2239 28 44 27.7761 44 27.5V5C44 4.44783 43.5521 4.00018 43 4H13C12.4477 4 12 4.44772 12 5V51C12.0001 51.5522 12.4478 52 13 52H28.5C28.776 52.0002 29 52.224 29 52.5V53.5C29 53.776 28.776 53.9998 28.5 54H13C11.3432 54 10.0001 52.6567 10 51V5C10 3.34315 11.3431 2 13 2H43Z" fill="oklch(0.3523 0 0 / 1)" class="wd-expressive-fill"></path>
<path d="M41.5 36C41.776 36.0002 42 36.224 42 36.5V42H45.5C45.776 42.0002 46 42.224 46 42.5V43.5C46 43.776 45.776 43.9998 45.5 44H41C40.4477 44 40 43.5523 40 43V36.5C40 36.2239 40.2239 36 40.5 36H41.5Z" fill="oklch(0.3523 0 0 / 1)" class="wd-expressive-fill"></path>
<path d="M41 32C47.075 32.0002 52 36.925 52 43C52 49.075 47.075 53.9998 41 54C34.9249 54 30 49.0751 30 43C30 36.9249 34.9249 32 41 32ZM41 34C36.0294 34 32 38.0294 32 43C32 47.9706 36.0294 52 41 52C45.9704 51.9998 50 47.9705 50 43C50 38.0295 45.9704 34.0002 41 34Z" fill="oklch(0.3523 0 0 / 1)" class="wd-expressive-fill"></path>
<path d="M28.499 20C28.775 20 28.9988 20.224 28.999 20.5V21.5C28.999 21.7761 28.7752 22 28.499 22H17.499C17.223 21.9998 16.999 21.776 16.999 21.5V20.5C16.9992 20.2241 17.2232 20.0002 17.499 20H28.499Z" fill="oklch(0.3523 0 0 / 1)" class="wd-expressive-fill"></path>
<path d="M38.499 15C38.775 15 38.9988 15.224 38.999 15.5V16.5C38.999 16.7761 38.7752 17 38.499 17H17.499C17.223 16.9998 16.999 16.776 16.999 16.5V15.5C16.9992 15.2241 17.2232 15.0002 17.499 15H38.499Z" fill="oklch(0.3523 0 0 / 1)" class="wd-expressive-fill"></path>
<path d="M38.499 9.99902C38.775 9.99902 38.9988 10.2231 38.999 10.499V11.5C38.999 11.7761 38.7752 12 38.499 12H17.499C17.223 11.9998 16.999 11.776 16.999 11.5V10.499C16.9992 10.2232 17.2232 9.99919 17.499 9.99902H38.499Z" fill="oklch(0.3523 0 0 / 1)" class="wd-expressive-fill"></path>
</g>
</svg>