<svg role="presentation" width="56" height="56" viewBox="0 0 56 56" xmlns="http://www.w3.org/2000/svg" class="wd-expressive wd-expressive-bar-chart-growth-coin">
<g>
<path d="M50 41C49.9996 42.6567 46.4181 44 42 44C40.6856 44 39.4456 43.8796 38.3516 43.6689C39.7873 44.4715 42.2291 45 45 45C49.4181 45 52.9996 43.6567 53 42V46C52.9998 46.9472 51.8286 47.7911 50 48.3408V50C49.9996 51.6567 46.4181 53 42 53C37.5819 53 34.0004 51.6567 34 50V46C34.0004 47.6567 37.5819 49 42 49C42.5127 49 43.0141 48.9809 43.5 48.9463C39.799 48.683 37.0003 47.4645 37 46V43.3408C35.1714 42.7911 34.0002 41.9472 34 41V37C34.0004 38.6567 37.5819 40 42 40C46.4181 40 49.9996 38.6567 50 37V41Z" fill="oklch(0.3057 0.079 256.22 / 0.13)" class="wd-expressive-accent"></path>
<path d="M13 45H6V35H13V45Z" fill="oklch(0.3057 0.079 256.22 / 0.13)" class="wd-expressive-accent"></path>
<path d="M27 45H20V31H27V45Z" fill="oklch(0.3057 0.079 256.22 / 0.13)" class="wd-expressive-accent"></path>
<path d="M41 30.3945C38.8307 30.4811 36.762 30.85 35.0703 31.4844C34.7187 31.6162 34.358 31.7694 34 31.9473V27H41V30.3945Z" fill="oklch(0.3057 0.079 256.22 / 0.13)" class="wd-expressive-accent"></path>
</g>
<g>
<path d="M42 32.9996C44.2972 32.9996 46.4215 33.3472 48.0078 33.942C48.7972 34.238 49.5062 34.6147 50.0352 35.0836C50.5628 35.5515 50.9999 36.197 51 36.9996V38.9391C51.0026 38.94 51.0052 38.941 51.0078 38.942C51.7972 39.238 52.5062 39.6147 53.0352 40.0836C53.5628 40.5515 53.9999 41.197 54 41.9996V45.9996C54 46.8023 53.5628 47.4477 53.0352 47.9156C52.5062 48.3846 51.7972 48.7612 51.0078 49.0572C51.0053 49.0582 51.0025 49.0583 51 49.0592V49.9996C51 50.8023 50.5628 51.4477 50.0352 51.9156C49.5062 52.3846 48.7972 52.7612 48.0078 53.0572C46.4215 53.6521 44.2972 53.9996 42 53.9996C39.7028 53.9996 37.5785 53.6521 35.9922 53.0572C35.2028 52.7612 34.4938 52.3846 33.9648 51.9156C33.4372 51.4477 33 50.8023 33 49.9996V45.9996C33.0001 45.197 33.4372 44.5515 33.9648 44.0836C34.206 43.8698 34.4854 43.6761 34.792 43.4996C34.4854 43.3231 34.206 43.1295 33.9648 42.9156C33.4372 42.4477 33 41.8023 33 40.9996V36.9996C33.0001 36.197 33.4372 35.5515 33.9648 35.0836C34.4938 34.6147 35.2028 34.238 35.9922 33.942C37.5785 33.3472 39.7028 32.9996 42 32.9996ZM35 49.9996C35 50.0251 35.0103 50.1697 35.292 50.4195C35.5727 50.6683 36.0363 50.9374 36.6943 51.1842C37.7935 51.5964 39.2922 51.8883 41 51.9723V49.9762C39.0903 49.8909 37.3454 49.5647 35.9922 49.0572C35.6425 48.9261 35.3094 48.7776 35 48.6139V49.9996ZM43 49.9762V51.9723C43.707 51.9375 44.3782 51.8686 45 51.7682V49.9996C44.4881 49.9996 43.9848 49.9813 43.4941 49.9479C43.3308 49.9589 43.166 49.9688 43 49.9762ZM49 49.6197C48.3712 49.7473 47.7004 49.8445 47 49.9088V51.2906C47.1048 51.2556 47.2071 51.2211 47.3057 51.1842C47.9637 50.9374 48.4273 50.6683 48.708 50.4195C48.9897 50.1697 49 50.0251 49 49.9996V49.6197ZM48 45.7906C47.059 45.9257 46.0476 45.9996 45 45.9996V47.9996C46.0774 47.9996 47.0913 47.9149 48 47.7682V45.7906ZM38 45.9996C38 46.0251 38.0103 46.1697 38.292 46.4195C38.5727 46.6683 39.0363 46.9374 39.6943 47.1842C40.5732 47.5138 41.7077 47.7644 43 47.8961V45.9088C41.4833 45.7696 40.1053 45.4746 38.9922 45.0572C38.6494 44.9287 38.3228 44.7826 38.0186 44.6227C38.0124 44.6214 38.0061 44.621 38 44.6197V45.9996ZM52 44.6139C51.6906 44.7776 51.3575 44.9261 51.0078 45.0572C50.6924 45.1755 50.3551 45.2825 50 45.3805V47.2906C50.1048 47.2556 50.2071 47.2211 50.3057 47.1842C50.9637 46.9374 51.4273 46.6683 51.708 46.4195C51.9897 46.1697 52 46.0251 52 45.9996V44.6139ZM36 45.1178C35.6962 45.2729 35.4609 45.43 35.292 45.5797C35.0112 45.8286 35.0001 45.9733 35 45.9996C35 46.0251 35.0103 46.1697 35.292 46.4195C35.5029 46.6065 35.817 46.8049 36.2393 46.9967C36.0907 46.6983 36 46.3652 36 45.9996V45.1178ZM50.9961 41.1158C50.9563 41.8648 50.537 42.4705 50.0352 42.9156C49.7769 43.1446 49.475 43.3504 49.1426 43.5367C49.5663 43.4324 49.9564 43.3152 50.3057 43.1842C50.9637 42.9374 51.4273 42.6683 51.708 42.4195C51.9897 42.1697 52 42.0251 52 41.9996C51.9999 41.9733 51.9888 41.8286 51.708 41.5797C51.5384 41.4294 51.3018 41.2716 50.9961 41.1158ZM45 40.7906C44.059 40.9257 43.0476 40.9996 42 40.9996C41.3147 40.9996 40.6448 40.968 40 40.9088V42.8961C40.6327 42.9606 41.3029 42.9996 42 42.9996C43.0774 42.9996 44.0913 42.9149 45 42.7682V40.7906ZM35 40.9996C35 41.0251 35.0103 41.1697 35.292 41.4195C35.5727 41.6683 36.0363 41.9374 36.6943 42.1842C37.0823 42.3297 37.5209 42.4568 38 42.569V40.6197C37.2671 40.471 36.5912 40.2819 35.9922 40.0572C35.6425 39.9261 35.3094 39.7776 35 39.6139V40.9996ZM49 39.6139C48.6906 39.7776 48.3575 39.9261 48.0078 40.0572C47.6924 40.1755 47.3551 40.2825 47 40.3805V42.2906C47.1048 42.2556 47.2071 42.2211 47.3057 42.1842C47.9637 41.9374 48.4273 41.6683 48.708 41.4195C48.9897 41.1697 49 41.0251 49 40.9996V39.6139ZM42 34.9996C39.8791 34.9996 38.0035 35.3241 36.6943 35.815C36.0364 36.0618 35.5727 36.3309 35.292 36.5797C35.0112 36.8286 35.0001 36.9733 35 36.9996C35 37.0251 35.0103 37.1697 35.292 37.4195C35.5727 37.6683 36.0363 37.9374 36.6943 38.1842C38.0035 38.6751 39.879 38.9996 42 38.9996C44.121 38.9996 45.9965 38.6751 47.3057 38.1842C47.9637 37.9374 48.4273 37.6683 48.708 37.4195C48.9897 37.1697 49 37.0251 49 36.9996C48.9999 36.9733 48.9888 36.8286 48.708 36.5797C48.4273 36.3309 47.9636 36.0618 47.3057 35.815C45.9965 35.3241 44.1209 34.9996 42 34.9996Z" fill="oklch(0.3523 0 0 / 1)" class="wd-expressive-fill"></path>
<path d="M16 30.9996C16.5522 30.9996 16.9998 31.4475 17 31.9996V44.9996C17 45.5519 16.5523 45.9996 16 45.9996H6C5.44772 45.9996 5 45.5519 5 44.9996V31.9996C5.00022 31.4475 5.44785 30.9996 6 30.9996H16ZM7 43.9996H15V32.9996H7V43.9996Z" fill="oklch(0.3523 0 0 / 1)" class="wd-expressive-fill"></path>
<path d="M30 26.9996C30.5522 26.9996 30.9998 27.4475 31 27.9996V44.9996C31 45.5519 30.5523 45.9996 30 45.9996H20C19.4477 45.9996 19 45.5519 19 44.9996V27.9996C19.0002 27.4475 19.4478 26.9996 20 26.9996H30ZM21 43.9996H29V28.9996H21V43.9996Z" fill="oklch(0.3523 0 0 / 1)" class="wd-expressive-fill"></path>
<path d="M44 22.9996C44.5522 22.9996 44.9999 23.4474 45 23.9996V30.5006C44.9998 30.7765 44.776 31.0006 44.5 31.0006H43.5C43.224 31.0006 43.0002 30.7765 43 30.5006V24.9996H35V31.5006C34.9998 31.7765 34.776 32.0006 34.5 32.0006H33.5C33.224 32.0006 33.0002 31.7765 33 31.5006V23.9996C33.0001 23.4474 33.4478 22.9996 34 22.9996H44Z" fill="oklch(0.3523 0 0 / 1)" class="wd-expressive-fill"></path>
<path d="M34.71 4.98399C36.2062 5.28933 37.7566 5.44976 39.3447 5.44981C40.872 5.44978 42.3649 5.30203 43.8076 5.01915C43.812 5.01828 43.8169 5.01796 43.8213 5.01719C43.8635 5.00949 43.9064 5.00577 43.9492 5.00352C43.9579 5.00308 43.9669 5.00181 43.9756 5.00157C44.0211 5.0004 44.0668 5.00332 44.1123 5.0084C44.119 5.00916 44.1261 5.00949 44.1328 5.01036C44.1761 5.01611 44.2192 5.0252 44.2617 5.03672C44.2709 5.03923 44.2809 5.04083 44.29 5.04356C44.3264 5.05458 44.3621 5.06921 44.3975 5.08458C44.412 5.0909 44.4271 5.09711 44.4414 5.10411C44.4505 5.1086 44.4607 5.11205 44.4697 5.1168C44.491 5.12815 44.5111 5.14217 44.5312 5.15489C44.5469 5.16469 44.563 5.1745 44.5781 5.18516C44.6094 5.2074 44.6388 5.23207 44.667 5.25743C44.677 5.2664 44.6876 5.27539 44.6973 5.28477C44.7224 5.30933 44.7454 5.33602 44.7676 5.3629C44.7807 5.37874 44.7954 5.39402 44.8076 5.41075C44.8243 5.43379 44.8389 5.45868 44.8535 5.48301C44.8629 5.49858 44.8741 5.5137 44.8828 5.52989C44.8868 5.53733 44.8898 5.5458 44.8936 5.55333C44.9033 5.57295 44.9115 5.59365 44.9199 5.61387C44.9324 5.64354 44.9447 5.67337 44.9541 5.70372C44.9608 5.72541 44.9655 5.74797 44.9707 5.77012C44.9769 5.79637 44.9833 5.82273 44.9873 5.84922C44.9919 5.87913 44.9933 5.90964 44.9951 5.94004C44.9964 5.96215 44.9982 5.98436 44.998 6.00645C44.9979 6.03337 44.9956 6.06042 44.9932 6.0875C44.9907 6.11558 44.9882 6.14373 44.9834 6.17149C44.9823 6.17805 44.9817 6.18543 44.9805 6.192C44.6976 7.63448 44.5499 9.12782 44.5498 10.6549C44.5499 12.2428 44.7104 13.7936 45.0156 15.2897C45.0706 15.56 44.9028 15.8281 44.6338 15.8893L43.6572 16.1109C43.3884 16.1714 43.1203 16.0029 43.0645 15.733C42.7269 14.0929 42.5499 12.3931 42.5498 10.6549C42.5498 9.9111 42.5863 9.17473 42.6504 8.44688C33.2055 18.5378 20.0637 24.8559 5.50098 24.9977C5.22493 25.0003 5.0001 24.7766 5 24.5006V23.5006C5 23.2245 5.22485 23.0005 5.50098 22.9977C19.3187 22.8576 31.819 16.9273 40.8877 7.40001C40.3773 7.43142 39.8627 7.4498 39.3447 7.44981C37.6063 7.44976 35.9069 7.27375 34.2666 6.93614C33.9964 6.88025 33.8275 6.61156 33.8887 6.34239L34.1104 5.3668C34.1716 5.09782 34.4397 4.92906 34.71 4.98399Z" fill="oklch(0.3523 0 0 / 1)" class="wd-expressive-fill"></path>
</g>
</svg>