<svg role="presentation" width="56" height="56" viewBox="0 0 56 56" xmlns="http://www.w3.org/2000/svg" class="wd-expressive wd-expressive-shield-benefits">
<g>
<path d="M10.6748 9.2041C10.2401 9.57067 10.0001 10.115 10 10.6836V20.2461C10 28.0763 13.1107 35.5863 18.6475 41.123C21.7074 44.1829 25.3704 46.4998 29.3564 47.9619C29.7714 48.1141 30.2267 48.1141 30.6416 47.9619C34.6282 46.4998 38.2924 44.1832 41.3525 41.123C44.2132 38.2623 46.4257 34.8747 47.8965 31.1885C46.4866 36.3359 43.7598 41.0799 39.9199 44.9199C36.6986 48.1413 32.8399 50.5787 28.6416 52.1133C28.2267 52.2648 27.7714 52.2649 27.3564 52.1133C23.1586 50.5787 19.3002 48.141 16.0791 44.9199C10.2657 39.1063 7 31.2215 7 23V12.915C7 12.3461 7.24035 11.8009 7.6748 11.4336C8.65332 10.6064 9.68341 9.8384 10.7588 9.13379C10.7309 9.15715 10.7026 9.18064 10.6748 9.2041Z" fill="oklch(0.3057 0.079 256.22 / 0.13)" class="wd-expressive-accent"></path>
<path d="M20.3535 29.3545C20.1267 29.8564 20.001 30.4135 20.001 31C20.001 33.2091 21.7918 35 24.001 35C24.5878 34.9999 25.1444 34.8717 25.6465 34.6445C25.0191 36.0329 23.6235 36.9998 22.001 37C19.7918 37 18.001 35.2091 18.001 33C18.001 31.3783 18.9663 29.9824 20.3535 29.3545Z" fill="oklch(0.3057 0.079 256.22 / 0.13)" class="wd-expressive-accent"></path>
<path d="M32.3535 29.3545C32.1267 29.8564 32.001 30.4135 32.001 31C32.001 33.2091 33.7918 35 36.001 35C36.5878 34.9999 37.1444 34.8717 37.6465 34.6445C37.0191 36.0329 35.6235 36.9998 34.001 37C31.7918 37 30.001 35.2091 30.001 33C30.001 31.3783 30.9663 29.9824 32.3535 29.3545Z" fill="oklch(0.3057 0.079 256.22 / 0.13)" class="wd-expressive-accent"></path>
<path d="M32.002 15.1367C32.0639 17.1414 33.5 17.4784 33.5 20.6602C33.5 21.5357 34 22.1602 35 22.1602V21.5C36 23 37 23.5 38.5 22.5C38.5 22.5 38.5 23.0521 38.5 23.6602C38.5 24.5357 38 25.1601 37 25.1602C36 25.1602 35 24.1602 35 23.1602C35 24.1601 34 25.1601 33 25.1602C32 25.1602 31.5 24.5357 31.5 23.6602C31.5 20.4084 30.0001 20.128 30 18.002C30 16.6571 30.8418 15.5186 32.002 15.1367Z" fill="oklch(0.3057 0.079 256.22 / 0.13)" class="wd-expressive-accent"></path>
<path d="M17.2119 15.1494C16.8705 16.2309 17.1389 17.4691 18.0312 18.3115L22.999 23.002L26.4209 19.7705C26.2934 19.9629 26.1426 20.1456 25.9668 20.3115L20.999 25.002L16.0312 20.3115C14.706 19.0605 14.7558 16.9371 16.1377 15.749C16.4639 15.4687 16.8301 15.2702 17.2119 15.1494Z" fill="oklch(0.3057 0.079 256.22 / 0.13)" class="wd-expressive-accent"></path>
</g>
<g>
<path d="M34 28C35.6357 28 37.0878 28.7857 38 30H40.5C40.7761 30 41 30.2239 41 30.5V31.5C41 31.7761 40.7761 32 40.5 32H38.8994C38.965 32.3231 39 32.6575 39 33C39 35.7614 36.7614 38 34 38C31.3303 38 29.1498 35.9077 29.0078 33.2734C28.7118 33.1001 28.3684 33 28 33C27.6313 33 27.2874 33.0999 26.9912 33.2734C26.8492 35.9076 24.6696 38 22 38C19.2386 38 17 35.7614 17 33C17 32.6575 17.035 32.3231 17.1006 32H15.5C15.2239 32 15 31.7761 15 31.5V30.5C15 30.2239 15.2239 30 15.5 30H18C18.9122 28.7857 20.3643 28 22 28C24.1363 28 25.9578 29.3405 26.6738 31.2256C27.0891 31.0797 27.5355 31 28 31C28.4642 31 28.9102 31.0799 29.3252 31.2256C30.0412 29.3403 31.8636 28 34 28ZM22 30C20.3431 30 19 31.3431 19 33C19 34.6569 20.3431 36 22 36C23.6568 36 25 34.6568 25 33C25 31.3432 23.6568 30 22 30ZM34 30C32.3431 30 31 31.3431 31 33C31 34.6569 32.3431 36 34 36C35.6568 36 37 34.6568 37 33C37 31.3432 35.6568 30 34 30Z" fill="oklch(0.3523 0 0 / 1)" class="wd-expressive-fill"></path>
<path d="M37.1426 13.8398C39.3187 13.8399 41 15.6788 41 17.8418C40.9999 19.1865 40.4919 20.0078 40.1426 20.6992C39.8172 21.3432 39.5 22.0714 39.5 23.5C39.5 24.1222 39.3208 24.7672 38.8535 25.2637C38.3765 25.7704 37.7147 26 37 26C36.2166 26 35.5106 25.6349 35 25.1572C34.4894 25.6349 33.7834 26 33 26C32.2853 26 31.6235 25.7704 31.1465 25.2637C30.6792 24.7672 30.5 24.1222 30.5 23.5C30.5 22.0714 30.1827 21.3432 29.8574 20.6992C29.5081 20.0078 29.0001 19.1866 29 17.8418C29 15.6788 30.6812 13.8398 32.8574 13.8398C33.2778 13.8399 33.71 13.8838 34.1299 14.002C34.6447 14.1468 35.3553 14.1468 35.8701 14.002C36.29 13.8838 36.7222 13.8399 37.1426 13.8398ZM37.1426 15.8398C36.8582 15.8399 36.6154 15.8706 36.4121 15.9277C35.543 16.1723 34.457 16.1723 33.5879 15.9277C33.3846 15.8706 33.1418 15.8399 32.8574 15.8398C31.8777 15.8398 31 16.6892 31 17.8418C31 18.6228 31.2419 19.0048 31.6426 19.7979C32.0672 20.6385 32.5 21.6768 32.5 23.5C32.5 23.7532 32.571 23.858 32.6035 23.8926C32.6266 23.9171 32.7151 24 33 24C33.1748 24 33.4333 23.9026 33.668 23.668C33.9026 23.4333 34 23.1748 34 23V21.5C34 21.2239 34.2239 21 34.5 21H35.5C35.7761 21 36 21.2239 36 21.5V23C36 23.1748 36.0974 23.4333 36.332 23.668C36.5667 23.9026 36.8252 24 37 24C37.285 24 37.3734 23.917 37.3965 23.8926C37.429 23.858 37.5 23.7531 37.5 23.5C37.5 21.6768 37.9328 20.6385 38.3574 19.7979C38.758 19.0048 39 18.6228 39 17.8418C39 16.6892 38.1223 15.8399 37.1426 15.8398Z" fill="oklch(0.3523 0 0 / 1)" class="wd-expressive-fill"></path>
<path d="M20.9307 15.1729C22.3963 13.7227 24.7974 13.5694 26.4434 14.9834C28.2754 16.5582 28.3418 19.3737 26.585 21.0322L21.6172 25.7227C21.2319 26.0862 20.6294 26.0862 20.2441 25.7227L15.2764 21.0322C13.5196 19.3737 13.5859 16.5582 15.418 14.9834C17.0639 13.5692 19.465 13.7227 20.9307 15.1729ZM19.8418 16.9961C19.1777 15.9029 17.6906 15.6674 16.7207 16.501C15.7891 17.3023 15.7561 18.7336 16.6494 19.5771L20.9307 23.6191L25.2119 19.5771C26.1053 18.7336 26.0723 17.3023 25.1406 16.501C24.1707 15.6675 22.6835 15.903 22.0195 16.9961L21.7852 17.3828C21.6038 17.6812 21.2798 17.8633 20.9307 17.8633C20.5815 17.8633 20.2576 17.6812 20.0762 17.3828L19.8418 16.9961Z" fill="oklch(0.3523 0 0 / 1)" class="wd-expressive-fill"></path>
<path d="M28.0117 2.95703L28.7656 2.96582H28.7783C36.477 3.1467 43.5163 6.00162 48.999 10.6367C49.6798 11.2123 50.0438 12.0543 50.0439 12.9141V23C50.0439 23.0075 50.0422 23.015 50.042 23.0225C50.036 31.5126 46.662 39.6542 40.6582 45.6582C37.3282 48.9882 33.3392 51.5067 29 53.0928C28.3536 53.329 27.6445 53.3291 26.998 53.0928C22.6593 51.5067 18.6706 48.9879 15.3408 45.6582C9.33177 39.6489 5.95606 31.4982 5.95605 23V12.915C5.95605 12.0551 6.32006 11.2124 7.00098 10.6367C12.6682 5.84572 19.9982 2.95608 28 2.95605L28.0117 2.95703ZM28 5.04297C20.5098 5.043 13.6532 7.7461 8.34863 12.2305C8.16073 12.3894 8.04395 12.6372 8.04395 12.915V23L8.05273 23.7441C8.24323 31.4192 11.3754 38.7394 16.8174 44.1816C19.9298 47.294 23.6579 49.6497 27.7148 51.1328C27.8984 51.1998 28.0997 51.1998 28.2832 51.1328C32.3405 49.6498 36.069 47.2942 39.1816 44.1816C44.7992 38.5639 47.955 30.9446 47.9551 23C47.9551 22.9938 47.9559 22.9876 47.9561 22.9814V12.9141C47.9559 12.6364 47.8392 12.3893 47.6514 12.2305C42.5193 7.89186 35.9347 5.22106 28.7295 5.05176L28 5.04297ZM48.6895 22.0029C48.6845 22.0045 48.6797 22.0062 48.6748 22.0078C48.7119 21.9955 48.7501 21.9855 48.7891 21.9775L48.6895 22.0029Z" fill="oklch(0.3523 0 0 / 1)" class="wd-expressive-fill"></path>
</g>
</svg>