<svg role="presentation" width="56" height="56" viewBox="0 0 56 56" xmlns="http://www.w3.org/2000/svg" class="wd-expressive wd-expressive-webpage-link-forward">
<g>
<path d="M46 35.501C46 35.0311 46.5892 34.8209 46.8867 35.1846L52.7402 42.3379C52.8906 42.522 52.8906 42.7866 52.7402 42.9707L46.8867 50.125C46.5891 50.488 46.0001 50.2772 46 49.8076V45.7646C44.0437 45.9808 42.1817 46.5099 40.4658 47.3018C38.3907 48.2595 37.0924 50.1261 36.4609 52.2793C36.3966 52.4987 36.1983 52.6542 35.9697 52.6543H35.5C35.2239 52.6543 35.0001 52.4304 35 52.1543V49.4834C35.0001 46.0702 36.3693 42.6321 39.4346 41.1309C41.4519 40.143 43.6651 39.4946 46 39.2568V35.501Z" fill="oklch(0.3057 0.079 256.22 / 0.13)" class="wd-expressive-accent"></path>
<path d="M51 11C52.1046 11 53 11.8954 53 13V18H3V13C3 11.8954 3.89543 11 5 11H51Z" fill="oklch(0.3057 0.079 256.22 / 0.13)" class="wd-expressive-accent"></path>
</g>
<g>
<path d="M45 35.501C45 34.0907 46.7688 33.4612 47.6611 34.5518L47.6602 34.5527L53.5137 41.7051C53.9369 42.223 53.9638 42.9529 53.5938 43.4971L53.5146 43.6035L47.6611 50.7578L47.6602 50.7588C46.766 51.8499 45 51.215 45 49.8076V46.9219C43.5569 47.1785 42.1766 47.6138 40.8848 48.21C39.1378 49.0163 37.994 50.6063 37.4209 52.5605C37.2378 53.185 36.6634 53.654 35.9697 53.6543H35.5C34.6716 53.6543 34 52.9827 34 52.1543V49.4834C34.0001 45.8585 35.457 41.9652 38.9951 40.2324C40.856 39.3212 42.8754 38.6836 45 38.3721V35.501ZM47 39.2559C47 39.7688 46.6119 40.1989 46.1016 40.251C43.8864 40.4766 41.787 41.0925 39.874 42.0293C37.2818 43.2991 36.0001 46.2821 36 49.4834V50.6387C36.801 48.8418 38.1171 47.2842 40.0469 46.3936C41.859 45.5573 43.8258 44.9987 45.8906 44.7705C46.173 44.7394 46.4553 44.8301 46.667 45.0195C46.8788 45.2092 47 45.4803 47 45.7646V48.4072L51.707 42.6533L47 36.9004V39.2559Z" fill="oklch(0.3523 0 0 / 1)" class="wd-expressive-fill"></path>
<path d="M7.5 13C8.32843 13 9 13.6716 9 14.5C9 15.3284 8.32843 16 7.5 16C6.67157 16 6 15.3284 6 14.5C6 13.6716 6.67157 13 7.5 13Z" fill="oklch(0.3523 0 0 / 1)" class="wd-expressive-fill"></path>
<path d="M12.5 13C13.3284 13 14 13.6716 14 14.5C14 15.3284 13.3284 16 12.5 16C11.6716 16 11 15.3284 11 14.5C11 13.6716 11.6716 13 12.5 13Z" fill="oklch(0.3523 0 0 / 1)" class="wd-expressive-fill"></path>
<path d="M17.5 13C18.3284 13 19 13.6716 19 14.5C19 15.3284 18.3284 16 17.5 16C16.6716 16 16 15.3284 16 14.5C16 13.6716 16.6716 13 17.5 13Z" fill="oklch(0.3523 0 0 / 1)" class="wd-expressive-fill"></path>
<path d="M51 10C52.6569 10 54 11.3431 54 13V35.5C54 35.7761 53.7761 36 53.5 36H52.5C52.2239 36 52 35.7761 52 35.5V19H4V43C4 43.5523 4.44772 44 5 44H31.5C31.7761 44 32 44.2239 32 44.5V45.5C32 45.7761 31.7761 46 31.5 46H5C3.34315 46 2 44.6569 2 43V13C2 11.3431 3.34315 10 5 10H51ZM5 12C4.44772 12 4 12.4477 4 13V17H52V13C52 12.4477 51.5523 12 51 12H5Z" fill="oklch(0.3523 0 0 / 1)" class="wd-expressive-fill"></path>
<path d="M24.5 29.0244C24.7748 28.9969 25 29.2238 25 29.5V30.5C25 30.7761 24.7743 30.9955 24.502 31.041C23.907 31.1405 23.3378 31.42 22.8789 31.8789L21.8789 32.8789C20.7075 34.0504 20.7076 35.9495 21.8789 37.1211C23.0505 38.2924 24.9496 38.2925 26.1211 37.1211L27.1211 36.1211C27.5796 35.6625 27.8584 35.0933 27.958 34.499C28.0037 34.227 28.2232 34.0021 28.499 34.002H29.5C29.776 34.0023 30.0022 34.2273 29.9746 34.502C29.8633 35.6085 29.3832 36.687 28.5352 37.5352L27.5352 38.5352C25.5826 40.4876 22.4175 40.4875 20.4648 38.5352C18.5125 36.5825 18.5124 33.4174 20.4648 31.4648L21.4648 30.4648C22.3135 29.6162 23.3926 29.1353 24.5 29.0244Z" fill="oklch(0.3523 0 0 / 1)" class="wd-expressive-fill"></path>
<path d="M30.8887 26.6963C31.0839 26.5011 31.4004 26.5011 31.5957 26.6963L32.3037 27.4033C32.4989 27.5985 32.4988 27.9151 32.3037 28.1104L25.1104 35.3027C24.9151 35.498 24.5986 35.498 24.4033 35.3027L23.6963 34.5957C23.5011 34.4004 23.5011 34.0839 23.6963 33.8887L30.8887 26.6963Z" fill="oklch(0.3523 0 0 / 1)" class="wd-expressive-fill"></path>
<path d="M28.4648 23.4648C30.4174 21.5124 33.5826 21.5125 35.5352 23.4648C37.4876 25.4174 37.4876 28.5826 35.5352 30.5352L34.5352 31.5352C33.687 32.3833 32.6085 32.8633 31.502 32.9746C31.2273 33.0022 31.0022 32.7761 31.002 32.5V31.5C31.002 31.224 31.2268 31.0037 31.499 30.958C32.0934 30.8583 32.6625 30.5797 33.1211 30.1211L34.1211 29.1211C35.2925 27.9496 35.2924 26.0505 34.1211 24.8789C32.9495 23.7077 31.0504 23.7075 29.8789 24.8789L28.8789 25.8789C28.42 26.3378 28.1405 26.9071 28.041 27.502C27.9955 27.7742 27.776 27.9999 27.5 28H26.5C26.224 28 25.9971 27.7756 26.0244 27.501C26.1353 26.3934 26.616 25.3136 27.4648 24.4648L28.4648 23.4648Z" fill="oklch(0.3523 0 0 / 1)" class="wd-expressive-fill"></path>
</g>
</svg>