<svg role="presentation" width="56" height="56" viewBox="0 0 56 56" xmlns="http://www.w3.org/2000/svg" class="wd-expressive wd-expressive-apple">
<g>
<path d="M18.5 19.001C19.2238 19.001 19.897 19.0316 20.5225 19.0859C16.5927 19.6332 13 22.7586 13 27.7607C13.0001 40.586 19.8627 47.9998 25.6387 48C28.5553 48 28.802 47.1211 30.5 47.1211C32.198 47.1211 32.4447 48 35.3613 48C38.8144 47.9999 42.6542 45.3492 45.1855 40.4775C42.5905 47.9023 37.6481 52.001 33.2773 52.001C30.1111 52.0009 29.8434 51.001 28 51.001C26.1566 51.001 25.8889 52.0009 22.7227 52.001C16.4515 52.001 9 43.5643 9 28.9697C9 22.6885 13.75 19.0087 18.5 19.001Z" fill="oklch(0.3057 0.079 256.22 / 0.13)" class="wd-expressive-accent"></path>
<path d="M41 6C42.659 6 44.2453 6.31141 45.7041 6.87793C43.4037 14.4607 36.3675 19.9836 28.0371 20C28.012 19.67 28 19.3365 28 19C28 11.8203 33.8203 6 41 6Z" fill="oklch(0.3057 0.079 256.22 / 0.13)" class="wd-expressive-accent"></path>
</g>
<path d="M41 5.00049C42.785 5.00049 44.4943 5.33533 46.0664 5.9458C46.5537 6.13509 46.8127 6.66821 46.6611 7.16846C45.2804 11.7193 42.2803 15.5649 38.332 18.0376C43.2983 18.4492 47.9998 22.4571 48 28.9692C48 36.4321 46.0952 42.392 43.3203 46.5161C40.5636 50.6132 36.8618 53.0005 33.2773 53.0005C31.5626 53.0004 30.589 52.7241 29.8037 52.4409C29.0548 52.1708 28.709 52.0005 28 52.0005C27.2911 52.0006 26.9455 52.1707 26.1963 52.4409C25.411 52.7241 24.4375 53.0004 22.7227 53.0005C19.1384 53.0003 15.4363 50.613 12.6797 46.5161C9.90499 42.392 8 36.4318 8 28.9692C8.00025 22.0953 13.2394 18.0094 18.498 18.0005H18.5C22.34 18.0005 24.8828 18.8177 26.4971 19.6909C26.6766 19.788 26.844 19.8869 27 19.9839V19.7153C27 15.3079 24.8894 11.3926 21.6191 8.92725C21.3988 8.76104 21.3422 8.45056 21.5 8.22412L22.0723 7.40381C22.2301 7.17751 22.5424 7.12091 22.7637 7.28564C25.0498 8.99222 26.8482 11.3175 27.915 14.0122C29.9246 8.74317 35.0252 5.00067 41 5.00049ZM37.498 20.0005C33.951 20.0008 31.7433 20.7538 30.4551 21.4507C29.8085 21.8005 29.383 22.1415 29.1299 22.3794C29.0032 22.4985 28.9191 22.5928 28.8711 22.6499C28.8472 22.6783 28.8318 22.6978 28.8252 22.7065C28.823 22.7095 28.8213 22.7114 28.8213 22.7114L28.8271 22.7036L28.8281 22.7017L28.8291 22.7007L28.8281 22.6997C28.6423 22.9753 28.3325 23.1411 28 23.1411C27.7092 23.141 27.4355 23.0146 27.2471 22.7983L27.1729 22.7036L27.1787 22.7114C27.1787 22.7114 27.1765 22.7088 27.1748 22.7065C27.168 22.6976 27.1524 22.6779 27.1289 22.6499C27.0809 22.5928 26.9965 22.4982 26.8701 22.3794C26.6169 22.1415 26.1912 21.8003 25.5449 21.4507C24.2565 20.7538 22.0484 20.0006 18.501 20.0005C14.2605 20.0079 10.0002 23.2821 10 28.9692C10 36.1006 11.8206 41.657 14.3389 45.3999C16.8753 49.1696 20.036 51.0003 22.7227 51.0005C24.1731 51.0004 24.9168 50.7767 25.5176 50.5601C26.1545 50.3303 26.866 50.0006 28 50.0005C29.134 50.0005 29.8455 50.3303 30.4824 50.5601C31.0832 50.7767 31.827 51.0004 33.2773 51.0005C35.9641 51.0005 39.1245 49.1698 41.6611 45.3999C44.1795 41.657 46 36.1008 46 28.9692C45.9998 23.2816 41.7389 20.0073 37.498 20.0005ZM41 7.00049C35.1559 7.00069 30.2877 11.1786 29.2188 16.7104C31.0928 13.9247 33.4829 11.5112 36.2695 9.60986C36.4975 9.45472 36.8078 9.51975 36.959 9.75049L37.5068 10.5874C37.6576 10.8183 37.5928 11.1278 37.3652 11.2837C34.4642 13.2697 32.0301 15.8562 30.2207 18.8599C36.7958 18.0268 42.2312 13.5433 44.4375 7.50342C43.3491 7.17835 42.1959 7.00049 41 7.00049Z" fill="oklch(0.3523 0 0 / 1)" class="wd-expressive-fill"></path>
</svg>