<svg role="presentation" width="56" height="56" viewBox="0 0 56 56" xmlns="http://www.w3.org/2000/svg" class="wd-expressive wd-expressive-webpage-code-clock">
<g>
<path d="M36.999 35C35.7437 36.6713 35 38.7488 35 41C35 46.5228 39.4772 51 45 51C47.2514 51 49.3286 50.2555 51 49C49.1756 51.4287 46.2715 53 43 53C37.4772 53 33 48.5228 33 43C33 39.7288 34.5707 36.8245 36.999 35Z" fill="oklch(0.3057 0.079 256.22 / 0.13)" class="wd-expressive-accent"></path>
<path d="M51 11C52.1046 11 53 11.8954 53 13V18H3V13C3 11.8954 3.89543 11 5 11H51Z" fill="oklch(0.3057 0.079 256.22 / 0.13)" class="wd-expressive-accent"></path>
</g>
<g>
<path d="M43.5 36C43.7761 36 44 36.2239 44 36.5V42H47.5C47.7761 42 48 42.2239 48 42.5V43.5C48 43.7761 47.7761 44 47.5 44H43C42.4477 44 42 43.5523 42 43V36.5C42 36.2239 42.2239 36 42.5 36H43.5Z" fill="oklch(0.3523 0 0 / 1)" class="wd-expressive-fill"></path>
<path d="M43 32C49.0751 32 54 36.9249 54 43C54 49.0751 49.0751 54 43 54C36.9249 54 32 49.0751 32 43C32 36.9249 36.9249 32 43 32ZM43 34C38.0294 34 34 38.0294 34 43C34 47.9706 38.0294 52 43 52C47.9706 52 52 47.9706 52 43C52 38.0294 47.9706 34 43 34Z" fill="oklch(0.3523 0 0 / 1)" class="wd-expressive-fill"></path>
<path d="M7.5 13C8.32843 13 9 13.6716 9 14.5C9 15.3284 8.32843 16 7.5 16C6.67157 16 6 15.3284 6 14.5C6 13.6716 6.67157 13 7.5 13Z" fill="oklch(0.3523 0 0 / 1)" class="wd-expressive-fill"></path>
<path d="M12.5 13C13.3284 13 14 13.6716 14 14.5C14 15.3284 13.3284 16 12.5 16C11.6716 16 11 15.3284 11 14.5C11 13.6716 11.6716 13 12.5 13Z" fill="oklch(0.3523 0 0 / 1)" class="wd-expressive-fill"></path>
<path d="M17.5 13C18.3284 13 19 13.6716 19 14.5C19 15.3284 18.3284 16 17.5 16C16.6716 16 16 15.3284 16 14.5C16 13.6716 16.6716 13 17.5 13Z" fill="oklch(0.3523 0 0 / 1)" class="wd-expressive-fill"></path>
<path d="M51 10C52.6569 10 54 11.3431 54 13V32.5C54 32.7761 53.7761 33 53.5 33H52.5C52.2239 33 52 32.7761 52 32.5V19H4V43C4 43.5523 4.44772 44 5 44H29.5C29.7761 44 30 44.2239 30 44.5V45.5C30 45.7761 29.7761 46 29.5 46H5C3.34315 46 2 44.6569 2 43V13C2 11.3431 3.34315 10 5 10H51ZM5 12C4.44772 12 4 12.4477 4 13V17H52V13C52 12.4477 51.5523 12 51 12H5Z" fill="oklch(0.3523 0 0 / 1)" class="wd-expressive-fill"></path>
<path d="M10.5 34C10.7761 34 11 34.2239 11 34.5V35.5C11 35.7761 10.7761 36 10.5 36H7.5C7.22386 36 7 35.7761 7 35.5V34.5C7 34.2239 7.22386 34 7.5 34H10.5Z" fill="oklch(0.3523 0 0 / 1)" class="wd-expressive-fill"></path>
<path d="M22.5 34C22.7761 34 23 34.2239 23 34.5V35.5C23 35.7761 22.7761 36 22.5 36H13.5C13.2239 36 13 35.7761 13 35.5V34.5C13 34.2239 13.2239 34 13.5 34H22.5Z" fill="oklch(0.3523 0 0 / 1)" class="wd-expressive-fill"></path>
<path d="M30.9395 22.6465C31.1347 22.4513 31.4512 22.4512 31.6465 22.6465L32.3535 23.3535C32.5485 23.5488 32.5486 23.8654 32.3535 24.0605L28.4141 28L32.3535 31.9395C32.5485 32.1347 32.5486 32.4513 32.3535 32.6465L31.6465 33.3535C31.4513 33.5486 31.1347 33.5485 30.9395 33.3535L26.6465 29.0605C26.0608 28.4748 26.0608 27.5252 26.6465 26.9395L30.9395 22.6465Z" fill="oklch(0.3523 0 0 / 1)" class="wd-expressive-fill"></path>
<path d="M12.5 30C12.7761 30 13 30.2239 13 30.5V31.5C13 31.7761 12.7761 32 12.5 32H7.5C7.22386 32 7 31.7761 7 31.5V30.5C7 30.2239 7.22386 30 7.5 30H12.5Z" fill="oklch(0.3523 0 0 / 1)" class="wd-expressive-fill"></path>
<path d="M20.5 30C20.7761 30 21 30.2239 21 30.5V31.5C21 31.7761 20.7761 32 20.5 32H15.5C15.2239 32 15 31.7761 15 31.5V30.5C15 30.2239 15.2239 30 15.5 30H20.5Z" fill="oklch(0.3523 0 0 / 1)" class="wd-expressive-fill"></path>
<path d="M37.8896 22.6279C37.984 22.3684 38.2707 22.2347 38.5303 22.3291L39.4697 22.6699C39.7291 22.7644 39.8629 23.0521 39.7686 23.3115L37.0195 30.8711C36.9252 31.1306 36.6375 31.2643 36.3779 31.1699L35.4395 30.8291C35.18 30.7347 35.0463 30.447 35.1406 30.1875L37.8896 22.6279Z" fill="oklch(0.3523 0 0 / 1)" class="wd-expressive-fill"></path>
<path d="M43.3535 22.6465C43.5488 22.4517 43.8654 22.4514 44.0605 22.6465L48.3535 26.9395C48.9363 27.5222 48.9381 28.4643 48.3613 29.0508C48.3588 29.0535 48.357 29.0578 48.3545 29.0605L47.0615 30.3525C46.8663 30.5478 46.5498 30.5478 46.3545 30.3525L45.6475 29.6465C45.4522 29.4512 45.4522 29.1337 45.6475 28.9385L46.5859 28L42.6465 24.0605C42.4512 23.8653 42.4513 23.5488 42.6465 23.3535L43.3535 22.6465Z" fill="oklch(0.3523 0 0 / 1)" class="wd-expressive-fill"></path>
<path d="M22.5 26C22.7761 26 23 26.2239 23 26.5V27.5C23 27.7761 22.7761 28 22.5 28H11.5C11.2239 28 11 27.7761 11 27.5V26.5C11 26.2239 11.2239 26 11.5 26H22.5Z" fill="oklch(0.3523 0 0 / 1)" class="wd-expressive-fill"></path>
<path d="M19.5 22C19.7761 22 20 22.2239 20 22.5V23.5C20 23.7761 19.7761 24 19.5 24H7.5C7.22386 24 7 23.7761 7 23.5V22.5C7 22.2239 7.22386 22 7.5 22H19.5Z" fill="oklch(0.3523 0 0 / 1)" class="wd-expressive-fill"></path>
</g>
</svg>