<svg role="presentation" width="56" height="56" viewBox="0 0 56 56" xmlns="http://www.w3.org/2000/svg" class="wd-expressive wd-expressive-card-user-clock">
<g>
<path d="M34.999 35C33.7437 36.6713 33 38.7488 33 41C33 46.5228 37.4772 51 43 51C45.2514 51 47.3286 50.2555 49 49C47.1756 51.4287 44.2715 53 41 53C35.4772 53 31 48.5228 31 43C31 39.7288 32.5707 36.8245 34.999 35Z" fill="oklch(0.3057 0.079 256.22 / 0.13)" class="wd-expressive-accent"></path>
<path d="M8 39C8 40.1046 8.89543 41 10 41H28V44H5V12H8V39Z" fill="oklch(0.3057 0.079 256.22 / 0.13)" class="wd-expressive-accent"></path>
<path d="M18 32C21.3772 32 24.4646 33.2403 26.832 35.29C26.9396 35.3831 27 35.5189 27 35.6611V38H11.5C11.2239 38 11 37.7761 11 37.5V33.9561C13.0412 32.7155 15.4368 32 18 32Z" fill="oklch(0.3057 0.079 256.22 / 0.13)" class="wd-expressive-accent"></path>
<path d="M18 21C20.2091 21 22 22.7909 22 25C22 25.5868 21.8725 26.1435 21.6455 26.6455C21.1435 26.8725 20.5868 27 20 27C17.7909 27 16 25.2091 16 23C16 22.4132 16.1275 21.8565 16.3545 21.3545C16.8565 21.1275 17.4132 21 18 21Z" fill="oklch(0.3057 0.079 256.22 / 0.13)" class="wd-expressive-accent"></path>
</g>
<g>
<path d="M41.5 36C41.7761 36 42 36.2239 42 36.5V42H45.5C45.7761 42 46 42.2239 46 42.5V43.5C46 43.7761 45.7761 44 45.5 44H41C40.4477 44 40 43.5523 40 43V36.5C40 36.2239 40.2239 36 40.5 36H41.5Z" fill="oklch(0.3523 0 0 / 1)" class="wd-expressive-fill"></path>
<path d="M41 32C47.0751 32 52 36.9249 52 43C52 49.0751 47.0751 54 41 54C34.9249 54 30 49.0751 30 43C30 36.9249 34.9249 32 41 32ZM41 34C36.0294 34 32 38.0294 32 43C32 47.9706 36.0294 52 41 52C45.9706 52 50 47.9706 50 43C50 38.0294 45.9706 34 41 34Z" fill="oklch(0.3523 0 0 / 1)" class="wd-expressive-fill"></path>
<path d="M49 11C50.6569 11 52 12.3431 52 14V32.5C52 32.7761 51.7761 33 51.5 33H50.5C50.2239 33 50 32.7761 50 32.5V14C50 13.4477 49.5523 13 49 13H7C6.44772 13 6 13.4477 6 14V42C6 42.5523 6.44772 43 7 43H27.5C27.7761 43 28 43.2239 28 43.5V44.5C28 44.7761 27.7761 45 27.5 45H7C5.34315 45 4 43.6569 4 42V14C4 12.3431 5.34315 11 7 11H49Z" fill="oklch(0.3523 0 0 / 1)" class="wd-expressive-fill"></path>
<path d="M20 29C20.1667 29 20.3327 29.0032 20.498 29.0088H20.5C20.5071 29.009 20.5143 29.0095 20.5215 29.0098C20.6685 29.015 20.815 29.0227 20.9609 29.0322C21.0249 29.0364 21.0887 29.0409 21.1523 29.0459C21.2654 29.0548 21.3779 29.0657 21.4902 29.0771C21.5355 29.0818 21.5808 29.0858 21.626 29.0908C21.9532 29.1274 22.2773 29.1744 22.5977 29.2324C22.6529 29.2424 22.7077 29.254 22.7627 29.2646C22.8708 29.2855 22.9787 29.3068 23.0859 29.3301C23.1349 29.3407 23.1836 29.3522 23.2324 29.3633C23.3731 29.3953 23.5132 29.4287 23.6523 29.4648C23.6659 29.4684 23.6798 29.471 23.6934 29.4746C24.0072 29.5571 24.3168 29.6503 24.6221 29.7529C24.6803 29.7725 24.738 29.7932 24.7959 29.8135C24.9072 29.8525 25.0179 29.8929 25.1279 29.9346C25.1552 29.9449 25.1828 29.9544 25.21 29.9648C25.3428 30.016 25.4746 30.0691 25.6055 30.124C25.6312 30.1348 25.657 30.1453 25.6826 30.1562C25.8288 30.2186 25.9735 30.2837 26.1172 30.3506C26.1449 30.3635 26.1726 30.3766 26.2002 30.3896C26.2822 30.4285 26.3641 30.4675 26.4453 30.5078L26.4434 30.5098C27.1149 30.8435 27.7579 31.2256 28.3652 31.6553C28.5907 31.8148 28.633 32.1298 28.4658 32.3496L28.1631 32.7471L27.8613 33.1445C27.6942 33.3645 27.3807 33.4063 27.1543 33.248C26.5986 32.8595 26.0093 32.5161 25.3926 32.2207C23.7609 31.4391 21.9332 31 20 31C16.9552 31 14.1685 32.0895 12 33.8984V37H27.5C27.7761 37 28 37.2239 28 37.5V38.5C28 38.7761 27.7761 39 27.5 39H11.5C10.7233 39 10.0846 38.4097 10.0078 37.6533L10 37.5V33.6611L10.0088 33.5029C10.0477 33.1358 10.2218 32.7869 10.5137 32.5342L10.999 32.1318C13.4716 30.1717 16.6 29 20 29Z" fill="oklch(0.3523 0 0 / 1)" class="wd-expressive-fill"></path>
<path d="M20 18C22.7614 18 25 20.2386 25 23C25 25.7614 22.7614 28 20 28C17.2386 28 15 25.7614 15 23C15 20.2386 17.2386 18 20 18ZM20 20C18.3431 20 17 21.3431 17 23C17 24.6569 18.3431 26 20 26C21.6569 26 23 24.6569 23 23C23 21.3431 21.6569 20 20 20Z" fill="oklch(0.3523 0 0 / 1)" class="wd-expressive-fill"></path>
<path d="M45.5 25C45.7761 25 46 25.2239 46 25.5V26.5C46 26.7761 45.7761 27 45.5 27H33.5C33.2239 27 33 26.7761 33 26.5V25.5C33 25.2239 33.2239 25 33.5 25H45.5Z" fill="oklch(0.3523 0 0 / 1)" class="wd-expressive-fill"></path>
<path d="M45.5 20C45.7761 20 46 20.2239 46 20.5V21.5C46 21.7761 45.7761 22 45.5 22H33.5C33.2239 22 33 21.7761 33 21.5V20.5C33 20.2239 33.2239 20 33.5 20H45.5Z" fill="oklch(0.3523 0 0 / 1)" class="wd-expressive-fill"></path>
</g>
</svg>