<svg role="presentation" width="56" height="56" viewBox="0 0 56 56" xmlns="http://www.w3.org/2000/svg" class="wd-expressive wd-expressive-card-user-search">
<g>
<path d="M35.1514 33.1533C34.4239 34.2572 34 35.5791 34 37C34 40.8659 37.1341 43.9999 41 44C42.4215 44 43.7435 43.5747 44.8477 42.8467C43.5958 44.7458 41.4447 45.9999 39 46C35.1341 45.9999 32 42.8659 32 39C32 36.556 33.2533 34.4054 35.1514 33.1533Z" fill="oklch(0.3057 0.079 256.22 / 0.13)" class="wd-expressive-accent"></path>
<path d="M8 39C8 40.1046 8.89543 41 10 41H28V44H5V12H8V39Z" fill="oklch(0.3057 0.079 256.22 / 0.13)" class="wd-expressive-accent"></path>
<path d="M18 32C21.3772 32 24.4646 33.2403 26.832 35.29C26.9396 35.3831 27 35.5189 27 35.6611V38H11.5C11.2239 38 11 37.7761 11 37.5V33.9561C13.0412 32.7155 15.4368 32 18 32Z" fill="oklch(0.3057 0.079 256.22 / 0.13)" class="wd-expressive-accent"></path>
<path d="M18 21C20.2091 21 22 22.7909 22 25C22 25.5868 21.8725 26.1435 21.6455 26.6455C21.1435 26.8725 20.5868 27 20 27C17.7909 27 16 25.2091 16 23C16 22.4132 16.1275 21.8565 16.3545 21.3545C16.8565 21.1275 17.4132 21 18 21Z" fill="oklch(0.3057 0.079 256.22 / 0.13)" class="wd-expressive-accent"></path>
</g>
<g>
<path d="M39 31C43.4183 31 47 34.5817 47 39C47 40.8486 46.3703 42.5487 45.3174 43.9033L51.3535 49.9395C51.5488 50.1347 51.5488 50.4512 51.3535 50.6465L50.6465 51.3535C50.4512 51.5484 50.1346 51.5486 49.9395 51.3535L43.9033 45.3174C42.5487 46.3703 40.8486 47 39 47C34.5817 47 31 43.4183 31 39C31 34.5817 34.5817 31 39 31ZM39 33C35.6863 33 33 35.6863 33 39C33 42.3137 35.6863 45 39 45C42.3137 45 45 42.3137 45 39C45 35.6863 42.3137 33 39 33Z" fill="oklch(0.3523 0 0 / 1)" class="wd-expressive-fill"></path>
<path d="M49 11C50.6569 11 52 12.3431 52 14V43.5C52 43.7761 51.7761 44 51.5 44H50.5C50.2239 44 50 43.7761 50 43.5V14C50 13.4477 49.5523 13 49 13H7C6.44772 13 6 13.4477 6 14V42C6 42.5523 6.44772 43 7 43H27.5C27.7761 43 28 43.2239 28 43.5V44.5C28 44.7761 27.7761 45 27.5 45H7C5.34315 45 4 43.6569 4 42V14C4 12.3431 5.34315 11 7 11H49Z" fill="oklch(0.3523 0 0 / 1)" class="wd-expressive-fill"></path>
<path d="M20 29C20.3368 29 20.6708 29.0125 21.002 29.0352C21.0332 29.0373 21.0645 29.0397 21.0957 29.042C21.2569 29.0541 21.4174 29.0686 21.5771 29.0859C21.581 29.0864 21.585 29.0865 21.5889 29.0869C21.9404 29.1253 22.2882 29.1762 22.6318 29.2393C22.6478 29.2422 22.6637 29.2451 22.6797 29.248C22.8352 29.2771 22.9898 29.3088 23.1436 29.3428C23.1589 29.3462 23.1741 29.3501 23.1895 29.3535C23.3463 29.3887 23.5023 29.4256 23.6572 29.4658C23.6689 29.4689 23.6807 29.4715 23.6924 29.4746C24.019 29.5604 24.3409 29.6581 24.6582 29.7656C24.6873 29.7755 24.7161 29.7859 24.7451 29.7959C24.8758 29.8411 25.0058 29.8877 25.1348 29.9365C25.1593 29.9458 25.1836 29.9554 25.208 29.9648C25.6302 30.1274 26.0432 30.308 26.4453 30.5078L26.4434 30.5098C27.115 30.8435 27.7577 31.2265 28.3652 31.6562C28.5906 31.8157 28.6329 32.1298 28.4658 32.3496L27.8613 33.1455C27.6942 33.3654 27.3807 33.4073 27.1543 33.249C26.448 32.7551 25.6884 32.3324 24.8857 31.9912C24.6047 31.8717 24.3185 31.7621 24.0273 31.6631C23.7583 31.5716 23.485 31.4893 23.208 31.416C23.0375 31.3709 22.8657 31.329 22.6924 31.291C22.1373 31.1692 21.5684 31.0844 20.9883 31.0391C20.6623 31.0136 20.3327 31 20 31C16.9552 31 14.1685 32.0895 12 33.8984V37H27.5C27.7761 37 28 37.2239 28 37.5V38.5C28 38.7761 27.7761 39 27.5 39H11.5C10.7233 39 10.0846 38.4097 10.0078 37.6533L10 37.5V33.6611L10.0088 33.5029C10.0477 33.1358 10.2218 32.7869 10.5137 32.5342L10.999 32.1318C13.4716 30.1717 16.6 29 20 29Z" fill="oklch(0.3523 0 0 / 1)" class="wd-expressive-fill"></path>
<path d="M20 18C22.7614 18 25 20.2386 25 23C25 25.7614 22.7614 28 20 28C17.2386 28 15 25.7614 15 23C15 20.2386 17.2386 18 20 18ZM20 20C18.3431 20 17 21.3431 17 23C17 24.6569 18.3431 26 20 26C21.6569 26 23 24.6569 23 23C23 21.3431 21.6569 20 20 20Z" fill="oklch(0.3523 0 0 / 1)" class="wd-expressive-fill"></path>
<path d="M45.5 25C45.7761 25 46 25.2239 46 25.5V26.5C46 26.7761 45.7761 27 45.5 27H33.5C33.2239 27 33 26.7761 33 26.5V25.5C33 25.2239 33.2239 25 33.5 25H45.5Z" fill="oklch(0.3523 0 0 / 1)" class="wd-expressive-fill"></path>
<path d="M45.5 20C45.7761 20 46 20.2239 46 20.5V21.5C46 21.7761 45.7761 22 45.5 22H33.5C33.2239 22 33 21.7761 33 21.5V20.5C33 20.2239 33.2239 20 33.5 20H45.5Z" fill="oklch(0.3523 0 0 / 1)" class="wd-expressive-fill"></path>
</g>
</svg>