<svg role="presentation" width="56" height="56" viewBox="0 0 56 56" xmlns="http://www.w3.org/2000/svg" class="wd-expressive wd-expressive-balloons">
<path d="M28.7148 6.71582C27.009 9.03568 26 11.8997 26 15L26.0039 15.3936C26.0463 17.3606 26.4058 19.3031 27.0654 21.123C27.769 23.0642 28.8006 24.8278 30.1006 26.3135C31.4006 27.7992 32.944 28.9782 34.6426 29.7822C36.3411 30.5862 38.1616 31 40 31C41.8384 31 43.6589 30.5862 45.3574 29.7822C46.1501 29.407 46.9079 28.9486 47.624 28.417C47.3924 28.7255 47.1516 29.0252 46.8994 29.3135C45.5994 30.7992 44.056 31.9782 42.3574 32.7822C41.1693 33.3447 39.9213 33.7152 38.6494 33.8877L41 38H33L35.3496 33.8877C34.078 33.7152 32.8304 33.3445 31.6426 32.7822C29.944 31.9782 28.4006 30.7992 27.1006 29.3135C26.6177 28.7616 26.1723 28.1712 25.7666 27.5479C25.6156 28.3665 25.3924 29.1699 25.0977 29.9463C24.9565 30.3179 24.7978 30.681 24.626 31.0361C24.589 31.0776 24.5532 31.1202 24.5156 31.1611C23.406 32.3716 22.0838 33.3374 20.6221 33.998C19.8296 34.3561 19.0049 34.6192 18.1631 34.7861L20 38H12L13.8359 34.7861C12.9944 34.6192 12.1701 34.356 11.3779 33.998C9.91616 33.3374 8.59396 32.3716 7.48438 31.1611C6.37472 29.9506 5.49873 28.517 4.90234 26.9463C4.38053 25.5717 4.08134 24.1132 4.01465 22.6348V22.624L4.01367 22.6133L4 22.0234V22C4 20.1835 4.40548 18.4621 5.12793 16.9189C7.32264 14.5108 10.4851 13 14 13C17.6008 13 20.8288 14.5881 23.0283 17.0996C23.2989 12.8393 25.4761 9.09783 28.7148 6.71582Z" fill="oklch(0.3057 0.079 256.22 / 0.13)" class="wd-expressive-accent"></path>
<g>
<path d="M40.1465 7.9668C40.2273 7.70301 40.5075 7.55326 40.7676 7.64551C43.8635 8.74364 46.3362 11.155 47.5156 14.2109C47.615 14.4685 47.4727 14.7529 47.2109 14.8408L46.2627 15.1592C46.0009 15.2471 45.7182 15.1053 45.6162 14.8486C44.6448 12.4027 42.6603 10.4668 40.1826 9.56055C39.9232 9.46568 39.7738 9.187 39.8545 8.92285L40.1465 7.9668Z" fill="oklch(0.3523 0 0 / 1)" class="wd-expressive-fill"></path>
<path d="M37 3C45.2843 3 52 9.71573 52 18L51.9951 18.415C51.9505 20.4891 51.5724 22.5397 50.875 24.4639C50.1311 26.5162 49.0375 28.3885 47.6523 29.9717C46.2668 31.5552 44.6139 32.8208 42.7852 33.6865C41.9521 34.0808 41.0901 34.3864 40.2109 34.6045L41.4404 36.7559C42.0117 37.7558 41.2894 39 40.1377 39H38.3594L38.8438 40.5469C39.1762 41.6117 38.8903 42.7736 38.1016 43.5625L37.3711 44.293C36.9809 44.6833 36.9812 45.3165 37.3711 45.707L38.0469 46.3818C38.8783 47.2135 39.1471 48.4554 38.7344 49.5566L37.8613 51.8828C37.7643 52.1413 37.4763 52.2728 37.2178 52.1758L36.2812 51.8232C36.0228 51.7262 35.8913 51.4382 35.9883 51.1797L36.8613 48.8545C36.9987 48.4876 36.9087 48.0741 36.6318 47.7969L35.957 47.1211C34.7861 45.9495 34.7858 44.0503 35.957 42.8789L36.6875 42.1484C36.9501 41.8856 37.0451 41.4983 36.9346 41.1436L36.2646 39H33.8613C32.7098 38.9997 31.9883 37.7557 32.5596 36.7559L33.7881 34.6045C32.9092 34.3864 32.0476 34.0807 31.2148 33.6865C29.3861 32.8208 27.7332 31.5552 26.3477 29.9717C24.9625 28.3885 23.8689 26.5162 23.125 24.4639C22.4276 22.5396 22.0486 20.489 22.0039 18.415V18.4033L22 18.0098V18C22 9.71573 28.7157 3 37 3ZM38.1055 34.9531C37.7382 34.9838 37.3696 35 37 35C36.8273 35 36.6547 34.995 36.4824 34.9883C36.4577 34.9873 36.4329 34.9865 36.4082 34.9854C36.2357 34.9776 36.0635 34.9675 35.8916 34.9531L34.7236 37H39.2764L38.1055 34.9531ZM37 5C29.8203 5 24 10.8203 24 18L24.0039 18.3721L24.0332 19.0684C24.1336 20.689 24.4618 22.2811 25.0059 23.7822C25.669 25.612 26.6388 27.2671 27.8535 28.6553C29.0678 30.043 30.5022 31.1356 32.0703 31.8779C33.4085 32.5114 34.8246 32.8799 36.2598 32.9746C36.3213 32.9786 36.3828 32.9824 36.4443 32.9854C36.6293 32.9945 36.8146 33 37 33C38.6871 33 40.3619 32.6201 41.9297 31.8779C43.4978 31.1356 44.9322 30.043 46.1465 28.6553C47.3612 27.2671 48.331 25.612 48.9941 23.7822C49.6574 21.9523 50 19.9871 50 18C50 10.8203 44.1797 5 37 5Z" fill="oklch(0.3523 0 0 / 1)" class="wd-expressive-fill"></path>
<path d="M16 10C17.6079 10 19.1441 10.3173 20.5479 10.8926C20.8033 10.9973 20.9131 11.295 20.7979 11.5459L20.3799 12.4541C20.2645 12.7048 19.9682 12.8134 19.7119 12.7109C18.5654 12.2524 17.3131 12 16 12C10.4811 12 6.00633 16.4708 6 21.9883L6.0127 22.5449L6.04297 23.0195C6.13651 24.1255 6.38176 25.2108 6.77148 26.2373C7.28068 27.5782 8.02587 28.7916 8.95898 29.8096C9.89208 30.8275 10.9951 31.6303 12.2021 32.1758C13.0876 32.5758 14.0183 32.8311 14.9648 32.9395L15.0654 32.9512C15.1814 32.9631 15.2977 32.971 15.4141 32.9785C15.6091 32.991 15.8044 33 16 33C16.1278 33 16.2553 32.9946 16.3828 32.9893C16.615 32.9794 16.8465 32.9611 17.0771 32.9336C18.0092 32.8225 18.9255 32.5699 19.7979 32.1758C20.8587 31.6964 21.839 31.0181 22.6943 30.1699C22.8903 29.9755 23.2056 29.9611 23.4092 30.1475L24.1475 30.8232C24.3507 31.0097 24.365 31.3266 24.1709 31.5225C23.136 32.5645 21.9351 33.4046 20.6221 33.998C20.1491 34.2117 19.6645 34.391 19.1719 34.5371L20.4404 36.7559C21.0118 37.7557 20.2902 38.9997 19.1387 39H16.499L14.7803 41.293C14.4955 41.6732 14.5175 42.2015 14.833 42.5566L16.793 44.7617C17.6483 45.724 17.7938 47.1252 17.1553 48.2432L16.1318 50.0352C16.0457 50.1861 16.0001 50.3575 16 50.5312V51.5C15.9999 51.776 15.7761 52 15.5 52H14.5C14.2241 51.9999 14.0001 51.7759 14 51.5V50.5312C14.0001 50.0094 14.1367 49.4961 14.3955 49.043L15.4189 47.251C15.6316 46.8784 15.5829 46.4115 15.2979 46.0908L13.3379 43.8857C12.3905 42.8197 12.3251 41.2338 13.1807 40.0928L14 39H12.8613C11.71 38.9995 10.9882 37.7556 11.5596 36.7559L12.8262 34.5371C12.3342 34.3911 11.8503 34.2115 11.3779 33.998C9.91616 33.3374 8.59396 32.3716 7.48438 31.1611C6.37472 29.9506 5.49873 28.517 4.90234 26.9463C4.38053 25.5717 4.08134 24.1132 4.01465 22.6348V22.624L4.01367 22.6133L4 22.0234V22C4 15.3726 9.37258 10 16 10ZM13.7236 37H18.2764L17.1016 34.9443C16.9917 34.9553 16.8817 34.964 16.7715 34.9717C16.7471 34.9734 16.7227 34.975 16.6982 34.9766C16.5961 34.983 16.4939 34.9886 16.3916 34.9922C16.38 34.9926 16.368 34.9938 16.3564 34.9941H16.3408C16.2273 34.9976 16.1137 35 16 35C15.8213 35 15.6429 34.9949 15.4648 34.9863C15.4567 34.9859 15.4486 34.9858 15.4404 34.9854C15.26 34.9762 15.08 34.9622 14.9004 34.9443H14.8975L13.7236 37Z" fill="oklch(0.3523 0 0 / 1)" class="wd-expressive-fill"></path>
</g>
</svg>