<svg role="presentation" width="56" height="56" viewBox="0 0 56 56" xmlns="http://www.w3.org/2000/svg" class="wd-expressive wd-expressive-receipt-forward">
<g>
<path d="M42 34.8408C42.0002 34.3712 42.5892 34.161 42.8867 34.5244L48.7402 41.6777C48.8906 41.8618 48.8905 42.1265 48.7402 42.3105L42.8867 49.4648C42.5891 49.828 42 49.6172 42 49.1475V45.1045C40.0437 45.3207 38.1817 45.8497 36.4658 46.6416C34.3907 47.5994 33.0924 49.4659 32.4609 51.6191C32.3965 51.8383 32.1982 51.9941 31.9697 51.9941H31.5C31.224 51.9941 31.0002 51.7701 31 51.4941V48.8232C31.0001 45.41 32.3693 41.972 35.4346 40.4707C37.4519 39.4828 39.6651 38.8335 42 38.5957V34.8408Z" fill="oklch(0.3057 0.079 256.22 / 0.13)" class="wd-expressive-accent"></path>
<path d="M13 42.7002L17 45L21 42.7002L25 45L26.4287 44.1777L28 47.0137V47.8496L26 49L22 46.7002L18 49L14 46.7002L10 49V5H13V42.7002Z" fill="oklch(0.3057 0.079 256.22 / 0.13)" class="wd-expressive-accent"></path>
</g>
<g>
<path d="M41 34.8408C41.0002 33.4308 42.7688 32.8014 43.6611 33.8916L43.6602 33.8926L49.5137 41.0449C49.9366 41.5626 49.9639 42.2926 49.5938 42.8369L49.5146 42.9434L43.6611 50.0977L43.6602 50.0986C42.7661 51.1893 41 50.5551 41 49.1475V46.2607C39.5569 46.5174 38.1766 46.9536 36.8848 47.5498C35.1382 48.356 33.995 49.9456 33.4219 51.8994C33.2502 52.4843 32.7351 52.9333 32.0996 52.9873L31.9707 52.9932H31.5C30.7233 52.9931 30.0846 52.4028 30.0078 51.6465L30 51.4932V48.8232C30.0001 45.1982 31.457 41.305 34.9951 39.5723C36.856 38.661 38.8753 38.0227 41 37.7109V34.8408ZM43 38.5947C43 39.1077 42.6119 39.5378 42.1016 39.5898C39.8865 39.8157 37.7872 40.4322 35.874 41.3691C33.2817 42.639 32.0001 45.6219 32 48.8232V49.9795C32.8008 48.1823 34.1167 46.6243 36.0469 45.7334C37.859 44.8971 39.8258 44.3385 41.8906 44.1104C42.1729 44.0793 42.4553 44.17 42.667 44.3594C42.8787 44.549 42.9999 44.8202 43 45.1045V47.7471L47.707 41.9932L43 36.2402V38.5947Z" fill="oklch(0.3523 0 0 / 1)" class="wd-expressive-fill"></path>
<path d="M40 4C41.6569 4 43 5.34315 43 7V30.5C43 30.7761 42.7761 31 42.5 31H41.5C41.2239 31 41 30.7761 41 30.5V7C41 6.44772 40.5523 6 40 6H12C11.4477 6 11 6.44772 11 7V47.2705L13.252 45.9766L13.4307 45.8887C13.7952 45.7391 14.2048 45.7391 14.5693 45.8887L14.748 45.9766L18 47.8467L21.252 45.9766L21.4307 45.8887C21.7952 45.7391 22.2048 45.7391 22.5693 45.8887L22.748 45.9766L25.999 47.8467L27.4971 46.9854C27.7364 46.8479 28.042 46.9307 28.1797 47.1699L28.4297 47.6035L28.6787 48.0371C28.8162 48.2765 28.7334 48.5821 28.4941 48.7197L27.2734 49.4219C27.272 49.4227 27.27 49.423 27.2686 49.4238L26.748 49.7236C26.2851 49.9898 25.7149 49.9898 25.252 49.7236L22 47.8525L18.748 49.7236C18.2851 49.9898 17.7149 49.9898 17.252 49.7236L14 47.8525L11.248 49.4365C10.2481 50.0115 9 49.2893 9 48.1357V7C9 5.34315 10.3431 4 12 4H40Z" fill="oklch(0.3523 0 0 / 1)" class="wd-expressive-fill"></path>
<path d="M27.5 32C27.7761 32 28 32.2239 28 32.5V33.5C28 33.7761 27.7761 34 27.5 34H15.5C15.2239 34 15 33.7761 15 33.5V32.5C15 32.2239 15.2239 32 15.5 32H27.5Z" fill="oklch(0.3523 0 0 / 1)" class="wd-expressive-fill"></path>
<path d="M36.5 32C36.7761 32 37 32.2239 37 32.5V33.5C37 33.7761 36.7761 34 36.5 34H32.5C32.2239 34 32 33.7761 32 33.5V32.5C32 32.2239 32.2239 32 32.5 32H36.5Z" fill="oklch(0.3523 0 0 / 1)" class="wd-expressive-fill"></path>
<path d="M27.5 27C27.7761 27 28 27.2239 28 27.5V28.5C28 28.7761 27.7761 29 27.5 29H15.5C15.2239 29 15 28.7761 15 28.5V27.5C15 27.2239 15.2239 27 15.5 27H27.5Z" fill="oklch(0.3523 0 0 / 1)" class="wd-expressive-fill"></path>
<path d="M36.5 27C36.7761 27 37 27.2239 37 27.5V28.5C37 28.7761 36.7761 29 36.5 29H32.5C32.2239 29 32 28.7761 32 28.5V27.5C32 27.2239 32.2239 27 32.5 27H36.5Z" fill="oklch(0.3523 0 0 / 1)" class="wd-expressive-fill"></path>
<path d="M27.5 22C27.7761 22 28 22.2239 28 22.5V23.5C28 23.7761 27.7761 24 27.5 24H15.5C15.2239 24 15 23.7761 15 23.5V22.5C15 22.2239 15.2239 22 15.5 22H27.5Z" fill="oklch(0.3523 0 0 / 1)" class="wd-expressive-fill"></path>
<path d="M36.5 22C36.7761 22 37 22.2239 37 22.5V23.5C37 23.7761 36.7761 24 36.5 24H32.5C32.2239 24 32 23.7761 32 23.5V22.5C32 22.2239 32.2239 22 32.5 22H36.5Z" fill="oklch(0.3523 0 0 / 1)" class="wd-expressive-fill"></path>
<path d="M31.5 14C31.7761 14 32 14.2239 32 14.5V15.5C32 15.7761 31.7761 16 31.5 16H15.5C15.2239 16 15 15.7761 15 15.5V14.5C15 14.2239 15.2239 14 15.5 14H31.5Z" fill="oklch(0.3523 0 0 / 1)" class="wd-expressive-fill"></path>
<path d="M36.5 9C36.7761 9 37 9.22386 37 9.5V10.5C37 10.7761 36.7761 11 36.5 11H15.5C15.2239 11 15 10.7761 15 10.5V9.5C15 9.22386 15.2239 9 15.5 9H36.5Z" fill="oklch(0.3523 0 0 / 1)" class="wd-expressive-fill"></path>
</g>
</svg>