<svg role="presentation" width="56" height="56" viewBox="0 0 56 56" xmlns="http://www.w3.org/2000/svg" class="wd-expressive wd-expressive-card-user">
<g>
<path d="M8 39C8 40.1046 8.89543 41 10 41H51V42C51 43.1046 50.1046 44 49 44H7C5.89543 44 5 43.1046 5 42V14C5 12.8954 5.89543 12 7 12H8V39Z" fill="oklch(0.3057 0.079 256.22 / 0.13)" class="wd-expressive-accent"></path>
<path d="M18 32C21.3772 32 24.4646 33.2403 26.832 35.29C26.9396 35.3831 27 35.5189 27 35.6611V38H11.5C11.2239 38 11 37.7761 11 37.5V33.9561C13.0412 32.7155 15.4368 32 18 32Z" fill="oklch(0.3057 0.079 256.22 / 0.13)" class="wd-expressive-accent"></path>
<path d="M18 21C20.2091 21 22 22.7909 22 25C22 25.5868 21.8725 26.1435 21.6455 26.6455C21.1435 26.8725 20.5868 27 20 27C17.7909 27 16 25.2091 16 23C16 22.4132 16.1275 21.8565 16.3545 21.3545C16.8565 21.1275 17.4132 21 18 21Z" fill="oklch(0.3057 0.079 256.22 / 0.13)" class="wd-expressive-accent"></path>
</g>
<g>
<path d="M20 29C23.6266 29 26.9441 30.3331 29.4863 32.5342C29.8199 32.823 30 33.2376 30 33.6611V37.5C30 38.3284 29.3284 39 28.5 39H11.5C10.7233 39 10.0846 38.4097 10.0078 37.6533L10 37.5V33.6611L10.0088 33.5029C10.0477 33.1358 10.2218 32.7869 10.5137 32.5342L10.999 32.1318C13.4716 30.1717 16.6 29 20 29ZM20 31C16.9552 31 14.1685 32.0895 12 33.8984V37H28V33.8984C25.8315 32.0895 23.0448 31 20 31Z" fill="oklch(0.3523 0 0 / 1)" class="wd-expressive-fill"></path>
<path d="M40.5 30C40.7761 30 41 30.2239 41 30.5V31.5C41 31.7761 40.7761 32 40.5 32H33.5C33.2239 32 33 31.7761 33 31.5V30.5C33 30.2239 33.2239 30 33.5 30H40.5Z" fill="oklch(0.3523 0 0 / 1)" class="wd-expressive-fill"></path>
<path d="M20 18C22.7614 18 25 20.2386 25 23C25 25.7614 22.7614 28 20 28C17.2386 28 15 25.7614 15 23C15 20.2386 17.2386 18 20 18ZM20 20C18.3431 20 17 21.3431 17 23C17 24.6569 18.3431 26 20 26C21.6569 26 23 24.6569 23 23C23 21.3431 21.6569 20 20 20Z" fill="oklch(0.3523 0 0 / 1)" class="wd-expressive-fill"></path>
<path d="M45.5 25C45.7761 25 46 25.2239 46 25.5V26.5C46 26.7761 45.7761 27 45.5 27H33.5C33.2239 27 33 26.7761 33 26.5V25.5C33 25.2239 33.2239 25 33.5 25H45.5Z" fill="oklch(0.3523 0 0 / 1)" class="wd-expressive-fill"></path>
<path d="M45.5 20C45.7761 20 46 20.2239 46 20.5V21.5C46 21.7761 45.7761 22 45.5 22H33.5C33.2239 22 33 21.7761 33 21.5V20.5C33 20.2239 33.2239 20 33.5 20H45.5Z" fill="oklch(0.3523 0 0 / 1)" class="wd-expressive-fill"></path>
<path d="M49 11C50.6569 11 52 12.3431 52 14V42C52 43.6569 50.6569 45 49 45H7C5.34315 45 4 43.6569 4 42V14C4 12.3431 5.34315 11 7 11H49ZM7 13C6.44772 13 6 13.4477 6 14V42C6 42.5523 6.44772 43 7 43H49C49.5523 43 50 42.5523 50 42V14C50 13.4477 49.5523 13 49 13H7Z" fill="oklch(0.3523 0 0 / 1)" class="wd-expressive-fill"></path>
</g>
</svg>