<svg role="presentation" width="56" height="56" viewBox="0 0 56 56" xmlns="http://www.w3.org/2000/svg" class="wd-expressive wd-expressive-satellite">
<g>
<path d="M15.96 10.6553C14.2368 15.3901 14.4644 20.6168 16.5938 25.1836C18.7235 29.7502 22.5807 33.2835 27.3154 35.0068C30.1716 36.0463 33.2056 36.373 36.166 36.0029L37.2275 38.2793C37.6017 39.0817 37.2024 40.0668 36.3145 40.3359C32.4074 41.5182 28.1971 41.4195 24.3154 40.0068C23.9077 39.8584 23.5064 39.6962 23.1123 39.5215L22.1406 35.1543C22.0498 34.7467 21.839 34.3689 21.5 34.125C20.7706 33.6005 19.9184 33.2362 18.9951 33.082C18.1323 33.2276 17.3316 33.5572 16.6357 34.0293C16.2077 34.3198 15.9788 34.8142 15.9404 35.3301L15 47.998L11 47.999L13.8604 35.1543C13.9512 34.7467 14.1619 34.3689 14.501 34.125C14.8531 33.8718 15.2343 33.6565 15.6377 33.4834C15.6185 33.4916 15.5992 33.4994 15.5801 33.5078C14.8121 32.4777 14.145 31.3646 13.5938 30.1826C11.4644 25.6158 11.2366 20.3892 12.96 15.6543C13.7171 13.5743 14.8239 11.6638 16.2139 9.99512C16.1253 10.2129 16.0407 10.4336 15.96 10.6553Z" fill="oklch(0.3057 0.079 256.22 / 0.13)" class="wd-expressive-accent"></path>
<path d="M35.2354 16.2363C35.0838 16.628 35 17.0539 35 17.499C35.0001 19.4317 36.5673 20.9987 38.5 20.999C38.946 20.999 39.3724 20.9138 39.7646 20.7617C39.2584 22.0713 37.9882 23.001 36.5 23.001C34.5673 23.0007 33.0001 21.4337 33 19.501C33 18.0141 33.9277 16.7435 35.2354 16.2363Z" fill="oklch(0.3057 0.079 256.22 / 0.13)" class="wd-expressive-accent"></path>
</g>
<g>
<path d="M18 36.5044C18.8283 36.5044 19.4997 37.1762 19.5 38.0044C19.5 38.8329 18.8284 39.5044 18 39.5044C17.1716 39.5044 16.5 38.8329 16.5 38.0044C16.5003 37.1762 17.1717 36.5044 18 36.5044Z" fill="oklch(0.3523 0 0 / 1)" class="wd-expressive-fill"></path>
<path d="M18 32.0044C19.5221 32.0044 20.9337 32.4915 22.083 33.3179C22.6646 33.7362 22.9848 34.3524 23.1162 34.9419L25.8018 46.9995H29.5C29.7761 46.9995 30 47.2234 30 47.4995V48.4995C30 48.7757 29.7761 48.9995 29.5 48.9995H26.2461L26.2471 49.0044H9.75293L9.75391 48.9995H7.5C7.22386 48.9995 7 48.7757 7 48.4995V47.4995C7.00004 47.2234 7.22388 46.9995 7.5 46.9995H10.1982L12.8838 34.9419C13.0152 34.3524 13.3354 33.7362 13.917 33.3179C15.0663 32.4915 16.4779 32.0044 18 32.0044ZM18 34.0044C16.9107 34.0044 15.9054 34.352 15.085 34.9419C14.9885 35.0113 14.8873 35.1509 14.8369 35.3765L12.249 46.9995H23.751L21.1631 35.3765C21.1127 35.1509 21.0115 35.0113 20.915 34.9419C20.0946 34.352 19.0893 34.0044 18 34.0044Z" fill="oklch(0.3523 0 0 / 1)" class="wd-expressive-fill"></path>
<path d="M20.5693 6.16458C21.2717 5.81123 22.112 6.07915 22.5059 6.72806L22.583 6.87259L29.4844 21.6695L32.1016 20.4497C32.0357 20.1434 32 19.8256 32 19.4995C32 17.0143 34.0147 14.9995 36.5 14.9995C38.9853 14.9995 41 17.0143 41 19.4995C41 21.9848 38.9853 23.9995 36.5 23.9995C35.0559 23.9995 33.7717 23.3187 32.9482 22.2613L30.3291 23.4829L37.2285 38.2798C37.6024 39.0821 37.2031 40.0673 36.3154 40.3365C35.1205 40.6981 33.8967 40.9395 32.6631 41.0601C32.6504 41.0623 32.638 41.0666 32.625 41.0679C30.8459 41.2382 29.0451 41.1573 27.2783 40.8228C27.0068 40.7714 26.8357 40.5039 26.8945 40.2339L27.001 39.7456L27.1064 39.2583C27.1648 38.9883 27.4306 38.8172 27.7021 38.8677C28.1328 38.9478 28.5659 39.0087 29 39.0552V39.0523C31.0623 39.2723 33.1519 39.1162 35.1631 38.5835L21.0225 8.25931C18.2039 10.2451 16.0332 13.0556 14.8379 16.3394C14.6819 16.768 14.5441 17.2017 14.4238 17.6382C14.3625 17.8607 14.306 18.084 14.2539 18.3081C14.2191 18.4579 14.1869 18.608 14.1562 18.7583C14.0302 19.3765 13.9393 19.9994 13.8828 20.6245C13.6585 23.1129 13.9829 25.6333 14.8506 28.0015C15.0161 28.4533 15.2004 28.8999 15.4053 29.3394C15.4633 29.4637 15.4116 29.6126 15.2881 29.6724L13.9609 30.314C13.8233 30.3807 13.6574 30.3237 13.5928 30.1851C13.1225 29.1765 12.7462 28.1353 12.4619 27.0747C12.4015 26.8492 12.344 26.6232 12.292 26.396C12.2784 26.3366 12.266 26.2769 12.2529 26.2173C12.2389 26.1532 12.2253 26.0891 12.2119 26.0249C12.1938 25.9381 12.176 25.8512 12.1592 25.7642C12.1498 25.7157 12.1408 25.6672 12.1318 25.6187C12.1178 25.5429 12.1039 25.4671 12.0908 25.3911C12.0755 25.3027 12.0609 25.2141 12.0469 25.1255C12.0372 25.0643 12.0267 25.0032 12.0176 24.9419C12.0105 24.8942 12.0048 24.8462 11.998 24.7984C11.9376 24.3682 11.8921 23.9363 11.8613 23.5034C11.8566 23.4367 11.8517 23.37 11.8477 23.3033C11.8343 23.0824 11.825 22.8613 11.8193 22.6402C11.8181 22.5933 11.8173 22.5464 11.8164 22.4995C11.815 22.4201 11.8139 22.3407 11.8135 22.2613C11.8128 22.1431 11.8129 22.0249 11.8145 21.9068C11.8148 21.882 11.815 21.8573 11.8154 21.8326C11.8182 21.6672 11.8239 21.5018 11.8311 21.3365C11.8402 21.1251 11.853 20.9138 11.8691 20.7027C11.8719 20.6669 11.874 20.631 11.877 20.5952C11.8951 20.3753 11.9166 20.1555 11.9424 19.9361C11.9504 19.8676 11.96 19.7994 11.9688 19.731C11.9764 19.6717 11.984 19.6125 11.9922 19.5533C12.0024 19.4797 12.0124 19.406 12.0234 19.3326C12.034 19.2625 12.0453 19.1926 12.0566 19.1226C12.0706 19.0362 12.0854 18.95 12.1006 18.8638C12.2177 18.198 12.3696 17.5365 12.5586 16.8824C12.5794 16.8103 12.6013 16.7385 12.623 16.6665C12.6424 16.6023 12.6625 16.5382 12.6826 16.4742C12.7037 16.407 12.7253 16.34 12.7471 16.273C12.7627 16.225 12.7769 16.1763 12.793 16.1284C12.7943 16.1244 12.7964 16.1207 12.7979 16.1167C12.8495 15.9628 12.9033 15.8088 12.959 15.6558C14.372 11.7738 17.0031 8.4827 20.4209 6.24954L20.5693 6.16458ZM36.5 16.9995C35.1193 16.9995 34 18.1189 34 19.4995C34 20.8803 35.1193 21.9995 36.5 21.9995C37.8807 21.9995 39 20.8803 39 19.4995C39 18.1189 37.8807 16.9995 36.5 16.9995Z" fill="oklch(0.3523 0 0 / 1)" class="wd-expressive-fill"></path>
<path d="M42.417 6.81107C42.5337 6.56102 42.8312 6.45163 43.0771 6.57669C44.6231 7.3636 46.0167 8.42274 47.1904 9.70364C48.4768 11.1075 49.4747 12.7513 50.126 14.5406C50.7771 16.3297 51.0694 18.2302 50.9863 20.1324C50.9105 21.8678 50.5231 23.5742 49.8447 25.1704C49.7367 25.4245 49.4387 25.5331 49.1885 25.4165L48.7354 25.2046L48.2822 24.9937C48.0322 24.877 47.925 24.5803 48.0312 24.3257C48.5994 22.9677 48.924 21.5176 48.9883 20.0445C49.0598 18.4047 48.8075 16.7665 48.2461 15.2242C47.6847 13.6817 46.8247 12.2644 45.7158 11.0542C44.7196 9.96714 43.5395 9.0661 42.2314 8.39114C41.9862 8.26458 41.8777 7.96754 41.9941 7.71732L42.2051 7.26419L42.417 6.81107Z" fill="oklch(0.3523 0 0 / 1)" class="wd-expressive-fill"></path>
<path d="M40.3027 11.3423C40.4195 11.0921 40.7182 10.9831 40.9619 11.1128C41.9137 11.6194 42.7739 12.2849 43.5039 13.0816C44.3467 14.0014 45.0001 15.0782 45.4268 16.2505C45.8534 17.4227 46.0456 18.6674 45.9912 19.9136C45.9441 20.9929 45.713 22.0555 45.3096 23.0552C45.2063 23.3112 44.9074 23.4197 44.6572 23.3033L44.2041 23.0913L43.751 22.8804C43.5005 22.7639 43.3934 22.4671 43.4932 22.2095C43.7879 21.4489 43.9575 20.6437 43.9932 19.8267C44.0361 18.8428 43.8847 17.8596 43.5479 16.9341C43.211 16.0087 42.6946 15.1582 42.0293 14.4322C41.4767 13.8292 40.8299 13.3214 40.1152 12.9283C39.8735 12.7953 39.7635 12.4997 39.8799 12.2495L40.3027 11.3423Z" fill="oklch(0.3523 0 0 / 1)" class="wd-expressive-fill"></path>
</g>
</svg>