<svg role="presentation" width="56" height="56" viewBox="0 0 56 56" xmlns="http://www.w3.org/2000/svg" class="wd-expressive wd-expressive-mobile-lock-check">
<g>
<path d="M17 48C17 49.1046 17.8954 50 19 50H41.583C40.8114 51.7657 39.0502 53 37 53H19C16.2386 53 14 50.7614 14 48V8C14 5.94968 15.2341 4.18757 17 3.41602V48Z" fill="oklch(0.3057 0.079 256.22 / 0.13)" class="wd-expressive-accent"></path>
<path d="M23 34H35V36H21V26H23V34Z" fill="oklch(0.3057 0.079 256.22 / 0.13)" class="wd-expressive-accent"></path>
</g>
<g>
<path d="M29.9395 28.6465C30.1347 28.4513 30.4512 28.4513 30.6465 28.6465L31.3535 29.3535C31.5487 29.5488 31.5487 29.8653 31.3535 30.0605L28.207 33.207C28.0195 33.3945 27.7652 33.5 27.5 33.5C27.2349 33.5 26.9805 33.3945 26.793 33.207L25.1465 31.5605C24.9513 31.3653 24.9513 31.0488 25.1465 30.8535L25.8535 30.1465C26.0488 29.9513 26.3653 29.9513 26.5605 30.1465L27.5 31.0859L29.9395 28.6465Z" fill="oklch(0.3523 0 0 / 1)" class="wd-expressive-fill"></path>
<path d="M28 17C31.3137 17 34 19.6863 34 23V25H34.5C35.3284 25 36 25.6716 36 26.5V35.499C36 36.3274 35.3284 36.999 34.5 36.999H21.5C20.6716 36.999 20 36.3274 20 35.499V26.5C20 25.6716 20.6716 25 21.5 25H22V23C22 19.6863 24.6863 17 28 17ZM22 34.999H34V27H22V34.999ZM28 19C25.7909 19 24 20.7909 24 23V25H32V23C32 20.7909 30.2091 19 28 19Z" fill="oklch(0.3523 0 0 / 1)" class="wd-expressive-fill"></path>
<path d="M31.5 6C31.7761 6 32 6.22386 32 6.5V7.5C32 7.77614 31.7761 8 31.5 8H24.5C24.2239 8 24 7.77614 24 7.5V6.5C24 6.22386 24.2239 6 24.5 6H31.5Z" fill="oklch(0.3523 0 0 / 1)" class="wd-expressive-fill"></path>
<path d="M37 2C40.3137 2 43 4.68629 43 8V48C43 51.3137 40.3137 54 37 54H19C15.7898 54 13.1684 51.4789 13.0078 48.3086L13 48V8C13 4.68629 15.6863 2 19 2H37ZM19 4C16.7909 4 15 5.79086 15 8V48L15.0049 48.2061C15.1121 50.3194 16.86 52 19 52H37C39.2091 52 41 50.2091 41 48V8C41 5.79086 39.2091 4 37 4H19Z" fill="oklch(0.3523 0 0 / 1)" class="wd-expressive-fill"></path>
</g>
</svg>