<svg role="presentation" width="56" height="56" viewBox="0 0 56 56" xmlns="http://www.w3.org/2000/svg" class="wd-expressive wd-expressive-mail-checklist">
<g>
<path d="M14 26.6992L9.96191 24.2197C13.0104 35.0559 22.9646 42.9999 34.7754 43H49V46.5C48.9998 46.776 48.776 47 48.5 47H7.5C7.22397 47 7.00018 46.776 7 46.5V22L14 16.666V26.6992Z" fill="oklch(0.3057 0.079 256.22 / 0.13)" class="wd-expressive-accent"></path>
<path d="M49 22V22.4004L42 26.7002V16.666L49 22Z" fill="oklch(0.3057 0.079 256.22 / 0.13)" class="wd-expressive-accent"></path>
</g>
<g>
<path d="M23.1973 19.3936C23.3925 19.1984 23.709 19.1985 23.9043 19.3936L24.6113 20.1006C24.8066 20.2959 24.8066 20.6124 24.6113 20.8076L23.4219 21.9971L24.6113 23.1865C24.8065 23.3818 24.8066 23.6983 24.6113 23.8936L23.9043 24.6006C23.709 24.7954 23.3924 24.7956 23.1973 24.6006L22.0078 23.4111L20.8184 24.6006C20.6231 24.7954 20.3064 24.7957 20.1113 24.6006L19.4043 23.8936C19.2094 23.6984 19.2096 23.3817 19.4043 23.1865L20.5938 21.9971L19.4043 20.8076C19.2094 20.6125 19.2095 20.2958 19.4043 20.1006L20.1113 19.3936C20.3065 19.1984 20.6231 19.1985 20.8184 19.3936L22.0078 20.583L23.1973 19.3936Z" fill="oklch(0.3523 0 0 / 1)" class="wd-expressive-fill"></path>
<path d="M36.5 21C36.7761 21.0001 37 21.2239 37 21.5V22.5C36.9999 22.776 36.776 22.9999 36.5 23H27.5C27.2239 23 27.0001 22.7761 27 22.5V21.5C27 21.2239 27.2239 21 27.5 21H36.5Z" fill="oklch(0.3523 0 0 / 1)" class="wd-expressive-fill"></path>
<path d="M23.9395 11.1465C24.1347 10.9513 24.4512 10.9513 24.6465 11.1465L25.3535 11.8535C25.5485 12.0488 25.5486 12.3654 25.3535 12.5605L22.207 15.707C22.0196 15.8945 21.7651 15.9999 21.5 16C21.2349 16 20.9805 15.8944 20.793 15.707L19.1465 14.0605C18.9513 13.8653 18.9513 13.5488 19.1465 13.3535L19.8535 12.6465C20.0488 12.4513 20.3653 12.4513 20.5605 12.6465L21.5 13.5859L23.9395 11.1465Z" fill="oklch(0.3523 0 0 / 1)" class="wd-expressive-fill"></path>
<path d="M36.5 13C36.7761 13.0001 37 13.2239 37 13.5V14.5C36.9999 14.776 36.776 14.9999 36.5 15H27.5C27.2239 15 27.0001 14.7761 27 14.5V13.5C27 13.2239 27.2239 13 27.5 13H36.5Z" fill="oklch(0.3523 0 0 / 1)" class="wd-expressive-fill"></path>
<path d="M40 5C41.6568 5.0001 43 6.34321 43 8V16.1719L49.4092 21.0547C49.7813 21.3384 50 21.7801 50 22.248V46.5C49.9999 47.3283 49.3283 47.9999 48.5 48H7.5C6.67161 48 6.00006 47.3284 6 46.5V22.248C6 21.78 6.21855 21.3384 6.59082 21.0547L13 16.1719V8C13 6.34315 14.3431 5 16 5H40ZM8.41406 46H47.5859L33.5859 32H22.4141L8.41406 46ZM8 43.5859L20.0156 31.5693L8 24.1885V43.5859ZM35.9834 31.5693L48 43.5859V24.1885L35.9834 31.5693ZM16 7C15.4477 7 15 7.44772 15 8V26.1396L21.2832 30H34.7168L41 26.1396V8C41 7.44778 40.5522 7.0001 40 7H16ZM8.47461 22.1318L13 24.9111V18.6846L8.47461 22.1318ZM43 24.9111L47.5244 22.1318L43 18.6846V24.9111Z" fill="oklch(0.3523 0 0 / 1)" class="wd-expressive-fill"></path>
</g>
</svg>