<svg role="presentation" width="56" height="56" viewBox="0 0 56 56" xmlns="http://www.w3.org/2000/svg" class="wd-expressive wd-expressive-smart-speaker">
<path d="M21.9913 22.2412L20.7198 38H35.21L36.0655 48.5977C36.2094 50.382 35.4 52.0082 34.0802 53H21.92C20.6825 52.9998 19.5582 52.5501 18.6895 51.8125C18.6809 51.8052 18.6718 51.7984 18.6632 51.791C18.4905 51.6424 18.3287 51.482 18.1778 51.3115C18.172 51.305 18.166 51.2986 18.1602 51.292C17.9394 51.0398 17.7433 50.7661 17.5763 50.4736C17.5629 50.4502 17.5492 50.427 17.5362 50.4033C17.4339 50.2171 17.344 50.0236 17.2657 49.8242C17.2555 49.7982 17.2452 49.7723 17.2354 49.7461C17.1597 49.5433 17.096 49.3349 17.047 49.1211C17.0407 49.0939 17.0352 49.0665 17.0294 49.0391C17.0104 48.9494 16.9937 48.8589 16.9796 48.7676C16.9775 48.7539 16.9747 48.7403 16.9727 48.7266L16.964 48.665C16.9516 48.5717 16.9418 48.4776 16.9347 48.3828C16.9326 48.3552 16.9324 48.3275 16.9308 48.2998C16.9252 48.2044 16.9221 48.1084 16.922 48.0117C16.9219 47.9932 16.9218 47.9746 16.922 47.9561C16.9231 47.8374 16.9269 47.7179 16.9366 47.5977L18.8526 23.8389C18.9193 23.0145 19.4802 22.3417 20.2296 22.0986L21.9913 22.2412Z" fill="oklch(0.3057 0.079 256.22 / 0.13)" class="wd-expressive-accent"></path>
<g>
<path d="M22.4991 46C22.7752 46 22.9991 46.2239 22.9991 46.5V48.5C22.9991 48.7761 22.7752 49 22.4991 49H21.4991C21.2231 48.9997 20.9991 48.776 20.9991 48.5V46.5C20.9991 46.224 21.2231 46.0003 21.4991 46H22.4991Z" fill="oklch(0.3523 0 0 / 1)" class="wd-expressive-fill"></path>
<path d="M26.4991 46C26.7752 46 26.9991 46.2239 26.9991 46.5V48.5C26.9991 48.7761 26.7752 49 26.4991 49H25.4991C25.2231 48.9997 24.9991 48.776 24.9991 48.5V46.5C24.9991 46.224 25.2231 46.0003 25.4991 46H26.4991Z" fill="oklch(0.3523 0 0 / 1)" class="wd-expressive-fill"></path>
<path d="M30.4991 46C30.7752 46 30.9991 46.2239 30.9991 46.5V48.5C30.9991 48.7761 30.7752 49 30.4991 49H29.4991C29.2231 48.9997 28.9991 48.776 28.9991 48.5V46.5C28.9991 46.224 29.2231 46.0003 29.4991 46H30.4991Z" fill="oklch(0.3523 0 0 / 1)" class="wd-expressive-fill"></path>
<path d="M34.4991 46C34.7752 46 34.9991 46.2239 34.9991 46.5V48.5C34.9991 48.7761 34.7752 49 34.4991 49H33.4991C33.2231 48.9997 32.9991 48.776 32.9991 48.5V46.5C32.9991 46.224 33.2231 46.0003 33.4991 46H34.4991Z" fill="oklch(0.3523 0 0 / 1)" class="wd-expressive-fill"></path>
<path d="M24.4991 41C24.7752 41 24.9991 41.2239 24.9991 41.5V43.5C24.9991 43.7761 24.7752 44 24.4991 44H23.4991C23.2231 43.9997 22.9991 43.776 22.9991 43.5V41.5C22.9991 41.224 23.2231 41.0003 23.4991 41H24.4991Z" fill="oklch(0.3523 0 0 / 1)" class="wd-expressive-fill"></path>
<path d="M28.4991 41C28.7752 41 28.9991 41.2239 28.9991 41.5V43.5C28.9991 43.7761 28.7752 44 28.4991 44H27.4991C27.2231 43.9997 26.9991 43.776 26.9991 43.5V41.5C26.9991 41.224 27.2231 41.0003 27.4991 41H28.4991Z" fill="oklch(0.3523 0 0 / 1)" class="wd-expressive-fill"></path>
<path d="M32.4991 41C32.7752 41 32.9991 41.2239 32.9991 41.5V43.5C32.9991 43.7761 32.7752 44 32.4991 44H31.4991C31.2231 43.9997 30.9991 43.776 30.9991 43.5V41.5C30.9991 41.224 31.2231 41.0003 31.4991 41H32.4991Z" fill="oklch(0.3523 0 0 / 1)" class="wd-expressive-fill"></path>
<path d="M30.4991 25C30.7752 25 30.9991 25.2239 30.9991 25.5V26.5C30.9991 26.7761 30.7752 27 30.4991 27H25.4991C25.2231 26.9997 24.9991 26.776 24.9991 26.5V25.5C24.9991 25.224 25.2231 25.0003 25.4991 25H30.4991Z" fill="oklch(0.3523 0 0 / 1)" class="wd-expressive-fill"></path>
<path d="M35.1543 21C36.7174 21.0002 38.0189 22.2007 38.1446 23.7588L40.0606 47.5176C40.3422 51.0101 37.583 54 34.0791 54H21.919C18.4153 53.9997 15.6559 51.0099 15.9375 47.5176L17.8536 23.7588C17.9792 22.2008 19.2809 21.0005 20.8438 21H35.1543ZM17.9317 47.6787C17.7441 50.0068 19.5834 51.9997 21.919 52H34.0791C36.415 52 38.2541 50.007 38.0664 47.6787L37.2862 38H18.7119L17.9317 47.6787ZM20.8438 23C20.3231 23.0005 19.8896 23.4008 19.8477 23.9199L18.8731 36H37.125L36.1504 23.9199C36.1085 23.4007 35.6752 23.0002 35.1543 23H20.8438Z" fill="oklch(0.3523 0 0 / 1)" class="wd-expressive-fill"></path>
<path d="M27.4991 13C30.4334 13 33.134 14.0127 35.2666 15.7061C35.4828 15.8778 35.5053 16.1941 35.3252 16.4033L34.6739 17.1611C34.4937 17.3704 34.1785 17.3926 33.961 17.2227C32.179 15.8295 29.9365 15 27.4991 15C25.0618 15.0001 22.8199 15.8296 21.0381 17.2227C20.8206 17.3927 20.5054 17.3704 20.3252 17.1611L19.6729 16.4033C19.4929 16.1941 19.5163 15.8777 19.7325 15.7061C21.865 14.0128 24.5648 13.0001 27.4991 13Z" fill="oklch(0.3523 0 0 / 1)" class="wd-expressive-fill"></path>
<path d="M27.5 8C31.973 8.00012 36.0769 9.58969 39.2754 12.2324C39.4883 12.4083 39.5098 12.7246 39.3282 12.9326L38.6709 13.6855C38.4894 13.8935 38.1744 13.9144 37.961 13.7393C35.1136 11.4021 31.4713 10.0001 27.5 10C23.5287 10 19.8866 11.4022 17.0391 13.7393C16.8256 13.9145 16.5097 13.8938 16.3282 13.6855L16 13.3086L15.6719 12.9326C15.4904 12.7246 15.511 12.4084 15.7237 12.2324C18.9223 9.58966 23.0269 8 27.5 8Z" fill="oklch(0.3523 0 0 / 1)" class="wd-expressive-fill"></path>
<path d="M28 3C34.2223 3.00012 39.9162 5.27459 44.291 9.03613C44.5004 9.21617 44.5172 9.5335 44.333 9.73926L43.666 10.4844C43.482 10.6897 43.1666 10.7066 42.9571 10.5273C38.9352 7.08124 33.7114 5.00012 28 5C22.2885 5 17.0649 7.08119 13.043 10.5273C12.8334 10.7069 12.5172 10.69 12.333 10.4844L11.6661 9.73926C11.4819 9.5335 11.4996 9.21617 11.709 9.03613C16.0839 5.27472 21.7777 3 28 3Z" fill="oklch(0.3523 0 0 / 1)" class="wd-expressive-fill"></path>
</g>
</svg>