<svg role="presentation" width="56" height="56" viewBox="0 0 56 56" xmlns="http://www.w3.org/2000/svg" class="wd-expressive wd-expressive-birthday-cake">
<g>
<path d="M37.6943 32.8506C37.8764 32.7184 38.1236 32.7184 38.3057 32.8506C40.775 34.6466 43.7617 35.773 47 35.9668V45H9V35.9668C12.2383 35.773 15.225 34.6466 17.6943 32.8506C17.8764 32.7184 18.1236 32.7184 18.3057 32.8506C21.0273 34.8301 24.3771 35.999 28 35.999C31.6229 35.999 34.9727 34.8301 37.6943 32.8506Z" fill="oklch(0.3057 0.079 256.22 / 0.13)" class="wd-expressive-accent"></path>
<path d="M17.5 15C17.7761 15 18 15.2239 18 15.5V22.5C18 22.7761 17.7761 23 17.5 23H14.5C14.2239 23 14 22.7761 14 22.5V15.5C14 15.2239 14.2239 15 14.5 15H17.5Z" fill="oklch(0.3057 0.079 256.22 / 0.13)" class="wd-expressive-accent"></path>
<path d="M29.5 15C29.7761 15 30 15.2239 30 15.5V22.5C30 22.7761 29.7761 23 29.5 23H26.5C26.2239 23 26 22.7761 26 22.5V15.5C26 15.2239 26.2239 15 26.5 15H29.5Z" fill="oklch(0.3057 0.079 256.22 / 0.13)" class="wd-expressive-accent"></path>
<path d="M41.5 15C41.7761 15 42 15.2239 42 15.5V22.5C42 22.7761 41.7761 23 41.5 23H38.5C38.2239 23 38 22.7761 38 22.5V15.5C38 15.2239 38.2239 15 38.5 15H41.5Z" fill="oklch(0.3057 0.079 256.22 / 0.13)" class="wd-expressive-accent"></path>
</g>
<g>
<path d="M17.5 14C18.3284 14 19 14.6716 19 15.5V22H25V15.5C25 14.6716 25.6716 14 26.5 14H29.5C30.3284 14 31 14.6716 31 15.5V22H37V15.5C37 14.6716 37.6716 14 38.5 14H41.5C42.3284 14 43 14.6716 43 15.5V22H46C47.6569 22 49 23.3431 49 25V35.499C49 36.1406 48.5892 36.7048 48 36.9092V44H49C50.6569 44 52 45.3431 52 47V48.5C52 49.3284 51.3284 50 50.5 50H5.5C4.67157 50 4 49.3284 4 48.5V47C4 45.3431 5.34315 44 7 44H8V36.9092C7.41078 36.7048 7 36.1406 7 35.499V25C7 23.3431 8.34315 22 10 22H13V15.5C13 14.6716 13.6716 14 14.5 14H17.5ZM7 46C6.44772 46 6 46.4477 6 47V48H50V47C50 46.4477 49.5523 46 49 46H7ZM37.999 33.8564C35.1641 35.8344 31.7178 36.999 28 36.999C24.2819 36.999 20.8351 35.8347 18 33.8564C15.6809 35.4747 12.952 36.5458 10 36.8828V44H46V36.8828C43.0476 36.5459 40.3183 35.475 37.999 33.8564ZM10 24C9.44772 24 9 24.4477 9 25V34.9658C12.0189 34.7736 14.801 33.7181 17.1055 32.042C17.6051 31.6786 18.2716 31.6566 18.792 31.9746L18.8945 32.042L19.3799 32.3818C21.8445 34.0347 24.8083 34.999 28 34.999C31.4043 34.999 34.5489 33.9014 37.1055 32.042C37.6051 31.6786 38.2716 31.6566 38.792 31.9746L38.8945 32.042L39.3574 32.3662C41.5676 33.8541 44.1806 34.7863 47 34.9658V25C47 24.4477 46.5523 24 46 24H10ZM15 22H17V16H15V22ZM27 22H29V16H27V22ZM39 22H41V16H39V22Z" fill="oklch(0.3523 0 0 / 1)" class="wd-expressive-fill"></path>
<path d="M16.1582 4.00684C16.9341 4.07112 17.46 4.60092 17.7744 5.06738C18.1187 5.57826 18.3572 6.21703 18.5254 6.81543C18.8636 8.01885 19 9.35999 19 10C19 11.6569 17.6569 13 16 13C14.3431 13 13 11.6569 13 10C13 9.35999 13.1364 8.01885 13.4746 6.81543C13.6428 6.21703 13.8813 5.57826 14.2256 5.06738C14.561 4.56988 15.1368 4 16 4L16.1582 4.00684ZM16 6.03711C15.9712 6.06681 15.932 6.11304 15.8838 6.18457C15.7126 6.43856 15.5447 6.84301 15.4004 7.35645C15.1136 8.37682 15 9.53549 15 10C15 10.5523 15.4477 11 16 11C16.5523 11 17 10.5523 17 10C17 9.53549 16.8864 8.37682 16.5996 7.35645C16.4553 6.84301 16.2874 6.43856 16.1162 6.18457C16.068 6.11304 16.0288 6.06681 16 6.03711Z" fill="oklch(0.3523 0 0 / 1)" class="wd-expressive-fill"></path>
<path d="M28.1582 4.00684C28.9341 4.07112 29.46 4.60092 29.7744 5.06738C30.1187 5.57826 30.3572 6.21703 30.5254 6.81543C30.8636 8.01885 31 9.35999 31 10C31 11.6569 29.6569 13 28 13C26.3431 13 25 11.6569 25 10C25 9.35999 25.1364 8.01885 25.4746 6.81543C25.6428 6.21703 25.8813 5.57826 26.2256 5.06738C26.561 4.56988 27.1368 4 28 4L28.1582 4.00684ZM28 6.03711C27.9712 6.06681 27.932 6.11304 27.8838 6.18457C27.7126 6.43856 27.5447 6.84301 27.4004 7.35645C27.1136 8.37682 27 9.53549 27 10C27 10.5523 27.4477 11 28 11C28.5523 11 29 10.5523 29 10C29 9.53549 28.8864 8.37682 28.5996 7.35645C28.4553 6.84301 28.2874 6.43856 28.1162 6.18457C28.068 6.11304 28.0288 6.06681 28 6.03711Z" fill="oklch(0.3523 0 0 / 1)" class="wd-expressive-fill"></path>
<path d="M40.1582 4.00684C40.9341 4.07112 41.46 4.60092 41.7744 5.06738C42.1187 5.57826 42.3572 6.21703 42.5254 6.81543C42.8636 8.01885 43 9.35999 43 10C43 11.6569 41.6569 13 40 13C38.3431 13 37 11.6569 37 10C37 9.35999 37.1364 8.01885 37.4746 6.81543C37.6428 6.21703 37.8813 5.57826 38.2256 5.06738C38.561 4.56988 39.1368 4 40 4L40.1582 4.00684ZM40 6.03711C39.9712 6.06681 39.932 6.11304 39.8838 6.18457C39.7126 6.43856 39.5447 6.84301 39.4004 7.35645C39.1136 8.37682 39 9.53549 39 10C39 10.5523 39.4477 11 40 11C40.5523 11 41 10.5523 41 10C41 9.53549 40.8864 8.37682 40.5996 7.35645C40.4553 6.84301 40.2874 6.43856 40.1162 6.18457C40.068 6.11304 40.0288 6.06681 40 6.03711Z" fill="oklch(0.3523 0 0 / 1)" class="wd-expressive-fill"></path>
</g>
</svg>