<svg role="presentation" width="56" height="56" viewBox="0 0 56 56" xmlns="http://www.w3.org/2000/svg" class="wd-expressive wd-expressive-shield-user-blocks">
<g>
<path d="M49.3271 37.3031C49.6535 37.183 50 37.4251 50 37.7729V46.6C50 46.8072 49.8721 46.9927 49.6787 47.0668L42.1787 49.9321C42.0638 49.9759 41.9362 49.9759 41.8213 49.9321L34.3213 47.0668C34.1279 46.9927 34 46.8072 34 46.6V37.7729C34 37.4251 34.3464 37.183 34.6729 37.3031L41.8271 39.9369C41.9386 39.978 42.0614 39.978 42.1729 39.9369L49.3271 37.3031Z" fill="oklch(0.3057 0.079 256.22 / 0.13)" class="wd-expressive-accent"></path>
<path d="M15 31.0004C17.6892 31.0004 20.1424 32.0116 22 33.6742V35.0004H9V32.8852C10.701 31.6983 12.7686 31.0004 15 31.0004Z" fill="oklch(0.3057 0.079 256.22 / 0.13)" class="wd-expressive-accent"></path>
<path d="M15 22.0004C16.6569 22.0004 18 23.3436 18 25.0004C18 25.0815 17.9956 25.1621 17.9893 25.2416C17.4596 25.712 16.7642 26.0004 16 26.0004C14.3433 26.0004 13.0002 24.6571 13 23.0004C13 22.919 13.0034 22.838 13.0098 22.7582C13.5395 22.2877 14.2357 22.0004 15 22.0004Z" fill="oklch(0.3057 0.079 256.22 / 0.13)" class="wd-expressive-accent"></path>
<path d="M49.3271 9.30314C49.6535 9.18301 50 9.42506 50 9.77287V18.6C50 18.8072 49.8721 18.9927 49.6787 19.0668L42.1787 21.9321C42.0638 21.9759 41.9362 21.9759 41.8213 21.9321L34.3213 19.0668C34.1279 18.9927 34 18.8072 34 18.6V9.77287C34 9.42506 34.3464 9.18301 34.6729 9.30314L41.8271 11.9369C41.9386 11.978 42.0614 11.978 42.1729 11.9369L49.3271 9.30314Z" fill="oklch(0.3057 0.079 256.22 / 0.13)" class="wd-expressive-accent"></path>
</g>
<g>
<path d="M16 28.0003C18.9447 28.0003 21.6331 29.1087 23.667 30.9291C23.8788 31.1187 24 31.3898 24 31.6742V35.0003C23.9999 35.5526 23.5522 36.0003 23 36.0003H9C8.44776 36.0003 8.00008 35.5526 8 35.0003V31.6742C8 31.3898 8.1212 31.1187 8.33301 30.9291C10.3669 29.1087 13.0553 28.0003 16 28.0003ZM16 30.0003C13.7238 30.0003 11.6363 30.7995 10 32.1341V34.0003H22V32.1341C20.3637 30.7995 18.2762 30.0003 16 30.0003Z" fill="oklch(0.3523 0 0 / 1)" class="wd-expressive-fill"></path>
<path d="M16 19.0003C18.2091 19.0003 20 20.7912 20 23.0003C19.9999 25.2094 18.2091 27.0003 16 27.0003C13.7909 27.0003 12.0001 25.2094 12 23.0003C12 20.7912 13.7909 19.0003 16 19.0003ZM16 21.0003C14.8954 21.0003 14 21.8958 14 23.0003C14.0001 24.1048 14.8955 25.0003 16 25.0003C17.1045 25.0003 17.9999 24.1048 18 23.0003C18 21.8958 17.1046 21.0003 16 21.0003Z" fill="oklch(0.3523 0 0 / 1)" class="wd-expressive-fill"></path>
<path d="M41.5957 5.09116C41.8601 5.01714 42.1399 5.01714 42.4043 5.09116L42.5352 5.13413L50.0352 7.99936C50.6159 8.22128 50.9998 8.77806 51 9.39975V18.6009C50.9997 19.2225 50.6159 19.7795 50.0352 20.0013L42.5352 22.8666C42.1906 22.9981 41.8094 22.9981 41.4648 22.8666L34.1162 20.0589L30.0439 22.096V26.0003C30.0439 28.5005 29.5979 30.9544 28.752 33.2572L34.1182 35.9398L41.4648 33.1341L41.5957 33.0912C41.8601 33.0171 42.1399 33.0171 42.4043 33.0912L42.5352 33.1341L50.0352 35.9994C50.6159 36.2213 50.9998 36.7781 51 37.3998V46.6009C50.9997 47.2225 50.6159 47.7795 50.0352 48.0013L42.5352 50.8666C42.1906 50.9981 41.8094 50.9981 41.4648 50.8666L33.9648 48.0013C33.3841 47.7795 33.0003 47.2225 33 46.6009V37.6175L27.9717 35.1039C26.9531 37.2269 25.5775 39.1845 23.8809 40.8812C21.919 42.843 19.6081 44.3755 17.0967 45.4222C16.395 45.7145 15.605 45.7146 14.9033 45.4222C12.3918 44.3755 10.081 42.843 8.11914 40.8812C4.17277 36.9348 1.95609 31.5812 1.95605 26.0003V20.8949C1.95605 20.0388 2.31655 19.1845 3.01953 18.6107C6.55738 15.7236 11.0779 13.9907 16 13.9906H16.0127L16.4795 13.9974H16.4912C21.2228 14.1086 25.5608 15.8201 28.9805 18.6107C29.4168 18.9667 29.7215 19.4305 29.8896 19.9359L33 18.3812V9.39975C33.0002 8.77806 33.3841 8.22128 33.9648 7.99936L41.4648 5.13413L41.5957 5.09116ZM35 46.2552L41 48.5472V40.8001L35 38.5082V46.2552ZM43 40.8001V48.5472L49 46.2552V38.5082L43 40.8001ZM16 16.0775C11.5763 16.0776 7.51797 17.6335 4.33887 20.2279C4.16081 20.3735 4.04395 20.6135 4.04395 20.8949V26.0003L4.04883 26.471C4.16934 31.328 6.15191 35.9608 9.5957 39.4046C11.3624 41.1713 13.4428 42.5532 15.7061 43.4964C15.8939 43.5747 16.106 43.5746 16.2939 43.4964C18.5572 42.5532 20.6376 41.1713 22.4043 39.4046C25.848 35.9608 27.8306 31.328 27.9512 26.471L27.9561 26.0003V20.8949C27.9561 20.6133 27.8393 20.3734 27.6611 20.2279C24.5881 17.7202 20.6937 16.1833 16.4424 16.0833L16 16.0775ZM36.8018 37.055L42 39.0404L47.1973 37.055L42 35.0697L36.8018 37.055ZM35 18.2552L41 20.5472V12.8001L35 10.5082V18.2552ZM43 12.8001V20.5472L49 18.2552V10.5082L43 12.8001ZM36.8018 9.05503L42 11.0404L47.1973 9.05503L42 7.06968L36.8018 9.05503Z" fill="oklch(0.3523 0 0 / 1)" class="wd-expressive-fill"></path>
</g>
</svg>