<svg role="presentation" width="56" height="56" viewBox="0 0 56 56" xmlns="http://www.w3.org/2000/svg" class="wd-expressive wd-expressive-lock">
<g>
<path d="M14 45.7998C14 46.4211 14.4721 46.9326 15.0771 46.9941L15.2002 47H46V48.7998C46 49.4625 45.4625 50 44.7998 50H11.2002L11.0771 49.9941C10.4721 49.9326 10 49.4211 10 48.7998V25.2002C10 24.5375 10.5375 24 11.2002 24H14V45.7998Z" fill="oklch(0.3057 0.079 256.22 / 0.13)" class="wd-expressive-accent"></path>
<path d="M28 4C35.1797 4 41 9.8203 41 17V24H36V17C36 12.5817 32.4183 9 28 9C23.5817 9 20 12.5817 20 17V24H15V17C15 9.8203 20.8203 4 28 4Z" fill="oklch(0.3057 0.079 256.22 / 0.13)" class="wd-expressive-accent"></path>
</g>
<g>
<path d="M39.5 42C39.7761 42 40 42.2239 40 42.5V43.5C40 43.7761 39.7761 44 39.5 44H16.5C16.2239 44 16 43.7761 16 43.5V42.5C16 42.2239 16.2239 42 16.5 42H39.5Z" fill="oklch(0.3523 0 0 / 1)" class="wd-expressive-fill"></path>
<path d="M39.5 36C39.7761 36 40 36.2239 40 36.5V37.5C40 37.7761 39.7761 38 39.5 38H16.5C16.2239 38 16 37.7761 16 37.5V36.5C16 36.2239 16.2239 36 16.5 36H39.5Z" fill="oklch(0.3523 0 0 / 1)" class="wd-expressive-fill"></path>
<path d="M39.5 30C39.7761 30 40 30.2239 40 30.5V31.5C40 31.7761 39.7761 32 39.5 32H16.5C16.2239 32 16 31.7761 16 31.5V30.5C16 30.2239 16.2239 30 16.5 30H39.5Z" fill="oklch(0.3523 0 0 / 1)" class="wd-expressive-fill"></path>
<path d="M28 3C35.732 3 42 9.26801 42 17V23H44.7998C46.0148 23 47 23.9852 47 25.2002V48.7998C47 50.0148 46.0148 51 44.7998 51H11.2002C9.98517 51 9 50.0148 9 48.7998V25.2002C9 23.9852 9.98517 23 11.2002 23H14V17C14 9.26801 20.268 3 28 3ZM11.2002 25C11.0897 25 11 25.0897 11 25.2002V48.7998C11 48.9103 11.0897 49 11.2002 49H44.7998C44.9103 49 45 48.9103 45 48.7998V25.2002C45 25.0897 44.9103 25 44.7998 25H11.2002ZM28 5C21.3726 5 16 10.3726 16 17V23H19V17C19 12.0294 23.0294 8 28 8C32.9706 8 37 12.0294 37 17V23H40V17C40 10.3726 34.6274 5 28 5ZM28 10C24.134 10 21 13.134 21 17V23H35V17C35 13.134 31.866 10 28 10Z" fill="oklch(0.3523 0 0 / 1)" class="wd-expressive-fill"></path>
</g>
</svg>