<svg role="presentation" width="56" height="56" viewBox="0 0 56 56" xmlns="http://www.w3.org/2000/svg" class="wd-expressive wd-expressive-clipboard-pie-chart-user">
<g>
<path d="M41.0015 49C43.6852 49.0002 46.1346 50.0072 47.9907 51.6641C46.5219 52.5119 44.8183 52.9999 43.0005 53C40.3172 52.9999 37.8825 51.9409 36.0864 50.2207C37.5528 49.4425 39.2257 49 41.0015 49Z" fill="oklch(0.3057 0.079 256.22 / 0.13)" class="wd-expressive-accent"></path>
<path d="M13.0005 44H29.8735C29.3488 44.7136 29.0521 45.5595 29.0063 46.4238L29.0005 46.6611V50H9.00049C9.00052 46.5858 9.70842 43.2042 11.0845 40.0498C11.6258 38.8091 12.2679 37.6133 13.0005 36.4717V44Z" fill="oklch(0.3057 0.079 256.22 / 0.13)" class="wd-expressive-accent"></path>
<path d="M41.0015 40C42.6579 40.0005 44.0015 41.3435 44.0015 43C44.0015 43.3028 43.954 43.5946 43.8706 43.8701C43.5953 43.9535 43.303 44 43.0005 44C41.3437 43.9999 40.0005 42.6568 40.0005 41C40.0005 40.697 40.0459 40.4046 40.1294 40.1289C40.4051 40.0454 40.6985 40 41.0015 40Z" fill="oklch(0.3057 0.079 256.22 / 0.13)" class="wd-expressive-accent"></path>
<path d="M23.0005 25L26.5356 28.5352C25.9542 29.1166 25.2385 29.5465 24.4517 29.7852C23.6649 30.0238 22.8313 30.0646 22.0249 29.9043C21.2186 29.7439 20.4642 29.3867 19.8286 28.8652C19.193 28.3436 18.695 27.6728 18.3804 26.9131C18.0658 26.1535 17.9433 25.3279 18.0239 24.5098C18.1045 23.6915 18.3865 22.9053 18.8433 22.2217C19.3 21.5383 19.9182 20.9783 20.6431 20.5908C21.3682 20.2032 22.1782 20 23.0005 20V25Z" fill="oklch(0.3057 0.079 256.22 / 0.13)" class="wd-expressive-accent"></path>
<path d="M43.0005 28.0635C42.6729 28.0226 42.3391 28 42.0005 28C40.9395 28 39.927 28.2079 39.0005 28.583V21.1406C40.0313 21.0453 41.0343 21 42.0005 21H43.0005V28.0635Z" fill="oklch(0.3057 0.079 256.22 / 0.13)" class="wd-expressive-accent"></path>
<path d="M26.0005 3C27.9342 3.00013 29.6113 4.09866 30.4429 5.70508C30.5343 5.88118 30.7122 6 30.9106 6H34.5005C34.7765 6.00018 35.0005 6.22397 35.0005 6.5V12.5C35.0004 12.7759 34.7764 12.9998 34.5005 13H17.5005C17.2244 13 17.0006 12.776 17.0005 12.5V6.5C17.0005 6.22386 17.2243 6 17.5005 6H21.0903C21.2887 5.99986 21.4667 5.88115 21.5581 5.70508C22.3898 4.09864 24.0667 3 26.0005 3Z" fill="oklch(0.3057 0.079 256.22 / 0.13)" class="wd-expressive-accent"></path>
</g>
<g>
<path d="M43 37C45.2091 37 47 38.7909 47 41C47 43.2091 45.2091 45 43 45C40.7909 45 39 43.2091 39 41C39 38.7909 40.7909 37 43 37ZM43 39C41.8954 39 41 39.8954 41 41C41 42.1046 41.8954 43 43 43C44.1046 43 45 42.1046 45 41C45 39.8954 44.1046 39 43 39Z" fill="oklch(0.3523 0 0 / 1)" class="wd-expressive-fill"></path>
<path d="M43 32C49.0751 32 54 36.9249 54 43C54 49.0751 49.0751 54 43 54C36.9249 54 32 49.0751 32 43C32 36.9249 36.9249 32 43 32ZM43 48C40.842 48 38.8538 48.7187 37.2588 49.9307C38.8169 51.2228 40.8176 52 43 52C45.1821 52 47.1822 51.2226 48.7402 49.9307C47.1453 48.719 45.1577 48 43 48ZM43 34C38.0294 34 34 38.0294 34 43C34 45.0643 34.6965 46.965 35.8652 48.4834C37.8257 46.9303 40.3048 46 43 46C45.695 46 48.1734 46.9306 50.1338 48.4834C51.3027 46.9649 52 45.0645 52 43C52 38.0294 47.9706 34 43 34Z" fill="oklch(0.3523 0 0 / 1)" class="wd-expressive-fill"></path>
<path d="M26 2C28.2218 2 30.1561 3.20968 31.1924 5H34.5C35.1529 5 35.707 5.41766 35.9131 6H41C42.6568 6.00001 44 7.34315 44 9V28.5C44 28.7761 43.7761 29 43.5 29H42.5C42.2239 29 42 28.7761 42 28.5V9C42 8.44772 41.5523 8.00001 41 8H36V10H39C39.2652 10 39.5195 10.1054 39.707 10.293C39.8946 10.4805 40 10.7348 40 11V29.5C40 29.7761 39.7761 30 39.5 30H38.5C38.2239 30 38 29.7761 38 29.5V12H36V12.5C36 13.3284 35.3284 14 34.5 14H17.5C16.6716 14 16 13.3284 16 12.5V12H14V43H29.5C29.7761 43 30 43.2239 30 43.5V44.5C30 44.7761 29.7761 45 29.5 45H13C12.7348 45 12.4805 44.8946 12.293 44.707C12.1054 44.5195 12 44.2652 12 44V11C12 10.4478 12.4478 10.0001 13 10H16V8H11C10.4478 8.00011 10 8.44778 10 9V48C10 48.5523 10.4477 49 11 49H29.5C29.7761 49 30 49.2239 30 49.5V50.5C30 50.7761 29.7761 51 29.5 51H11C9.34315 51 8 49.6568 8 48V9C8.00001 7.34322 9.34324 6.00011 11 6H16.0869C16.293 5.41766 16.8471 5 17.5 5H20.8076C21.8439 3.20968 23.7782 2 26 2ZM26 4C24.4548 4 23.1131 4.8764 22.4463 6.16406C22.2004 6.63899 21.6985 7 21.0898 7H18V12H34V7H30.9102C30.3015 7 29.7996 6.63899 29.5537 6.16406C28.8869 4.8764 27.5452 4 26 4Z" fill="oklch(0.3523 0 0 / 1)" class="wd-expressive-fill"></path>
<path d="M27.5 36C27.7761 36 28 36.2239 28 36.5V37.5C28 37.7761 27.7761 38 27.5 38H17.5C17.2239 38 17 37.7761 17 37.5V36.5C17 36.2239 17.2239 36 17.5 36H27.5Z" fill="oklch(0.3523 0 0 / 1)" class="wd-expressive-fill"></path>
<path d="M31.5 33C31.7761 33 32 33.2239 32 33.5V34.5C32 34.7761 31.7761 35 31.5 35H17.5C17.2239 35 17 34.7761 17 34.5V33.5C17 33.2239 17.2239 33 17.5 33H31.5Z" fill="oklch(0.3523 0 0 / 1)" class="wd-expressive-fill"></path>
<path d="M23 19C24.1865 19 25.3464 19.3517 26.333 20.0107C27.3197 20.67 28.0888 21.6077 28.543 22.7041C28.9971 23.8004 29.1163 25.007 28.8848 26.1709C28.6532 27.3347 28.0812 28.4032 27.2422 29.2422C26.5446 29.9398 25.6862 30.4548 24.7422 30.7412C23.798 31.0276 22.7968 31.0773 21.8291 30.8848C20.8615 30.6922 19.956 30.2636 19.1934 29.6377C18.4308 29.0118 17.8346 28.2074 17.457 27.2959C17.0795 26.3844 16.9326 25.394 17.0293 24.4121C17.126 23.4303 17.4628 22.4873 18.0107 21.667C18.5589 20.8466 19.3017 20.1731 20.1719 19.708C21.042 19.243 22.0134 19 23 19ZM22 21.1279C21.6934 21.2071 21.3957 21.3222 21.1143 21.4727C20.5343 21.7827 20.0392 22.2305 19.6738 22.7773C19.3084 23.3243 19.084 23.9538 19.0195 24.6084C18.9552 25.2628 19.0531 25.9228 19.3047 26.5303C19.5564 27.138 19.9544 27.6745 20.4629 28.0918C20.9713 28.509 21.5746 28.7945 22.2197 28.9229C22.8648 29.0512 23.5317 29.019 24.1611 28.8281C24.4664 28.7355 24.7575 28.6051 25.0303 28.4443L22.293 25.707C22.1054 25.5195 22 25.2652 22 25V21.1279ZM24 24.5859L26.4434 27.0293C26.6703 26.6443 26.8347 26.2233 26.9229 25.7803C27.0772 25.0045 26.9979 24.2005 26.6953 23.4697C26.3926 22.7389 25.8804 22.1133 25.2227 21.6738C24.847 21.4228 24.433 21.2406 24 21.1289V24.5859Z" fill="oklch(0.3523 0 0 / 1)" class="wd-expressive-fill"></path>
<path d="M34.5 22C34.7761 22 35 22.2239 35 22.5V23.5C35 23.7761 34.7761 24 34.5 24H31.5C31.2239 24 31 23.7761 31 23.5V22.5C31 22.2239 31.2239 22 31.5 22H34.5Z" fill="oklch(0.3523 0 0 / 1)" class="wd-expressive-fill"></path>
<path d="M34.5 19C34.7761 19 35 19.2239 35 19.5V20.5C35 20.7761 34.7761 21 34.5 21H31.5C31.2239 21 31 20.7761 31 20.5V19.5C31 19.2239 31.2239 19 31.5 19H34.5Z" fill="oklch(0.3523 0 0 / 1)" class="wd-expressive-fill"></path>
</g>
</svg>