<svg role="presentation" width="56" height="56" viewBox="0 0 56 56" xmlns="http://www.w3.org/2000/svg" class="wd-expressive wd-expressive-comment-chart">
<path d="M9 28C9 29.1046 9.89543 30 11 30H21V27.8799C21 25.4915 22.675 23.4961 24.9141 23C24.3391 23.8143 24 24.8072 24 25.8799V37.8799C24 39.5154 24.7859 40.9667 26 41.8789V46.8799C27.5085 46.7963 28.993 46.1787 30.1455 45.0264C30.7777 44.3942 31.248 43.6611 31.5586 42.8799H51C51.203 42.8799 51.403 42.8663 51.5996 42.8428C50.8366 44.6284 49.0646 45.8799 47 45.8799H32.6445C32.2526 47.1708 31.5479 48.3876 30.5273 49.4082C28.9907 50.9447 27.0114 51.7685 25 51.8799V45.7793C22.7178 45.316 21 43.2988 21 40.8799V34H8C6.89543 34 6 33.1046 6 32V8C6 6.89543 6.89543 6 8 6H9V28Z" fill="oklch(0.3057 0.079 256.22 / 0.13)" class="wd-expressive-accent"></path>
<g>
<path d="M38.5 36C38.7761 36 39 36.2239 39 36.5V37.5C39 37.7761 38.7761 38 38.5 38H27.5C27.2239 38 27 37.7761 27 37.5V36.5C27 36.2239 27.2239 36 27.5 36H38.5Z" fill="oklch(0.3523 0 0 / 1)" class="wd-expressive-fill"></path>
<path d="M46.5 31C46.7761 31 47 31.2239 47 31.5V32.5C47 32.7761 46.7761 33 46.5 33H27.5C27.2239 33 27 32.7761 27 32.5V31.5C27 31.2239 27.2239 31 27.5 31H46.5Z" fill="oklch(0.3523 0 0 / 1)" class="wd-expressive-fill"></path>
<path d="M47.3086 22.0078C50.4789 22.1684 53 24.7898 53 28V41C53 44.3137 50.3137 47 47 47H32.6582C32.2716 48.2974 31.5672 49.5206 30.5439 50.5439C29.0187 52.0692 27.0518 52.8874 25.0557 52.998C24.7813 53.0132 24.5121 52.9154 24.3125 52.7266C24.1129 52.5377 24 52.2748 24 52V46.6562C21.7509 45.861 20.1165 43.7655 20.0059 41.2705L20 41V28C20 24.6863 22.6863 22 26 22H47L47.3086 22.0078ZM26 24C23.7909 24 22 25.7909 22 28V41L22.0039 41.1807C22.0863 43.0337 23.4309 44.5599 25.1992 44.9189C25.6652 45.0136 26 45.4239 26 45.8994V50.8535C27.1471 50.5962 28.2368 50.023 29.1299 49.1299C30.0726 48.1871 30.6599 47.0266 30.8945 45.8105L30.915 45.7236C31.037 45.2987 31.4268 45 31.876 45H47C49.14 45 50.8879 43.3194 50.9951 41.2061L51 41V28C51 25.86 49.3194 24.1121 47.2061 24.0049L47 24H26Z" fill="oklch(0.3523 0 0 / 1)" class="wd-expressive-fill"></path>
<path d="M38 5C39.6569 5 41 6.34315 41 8V19.5C41 19.7761 40.7761 20 40.5 20H39.5C39.2239 20 39 19.7761 39 19.5V8C39 7.44772 38.5523 7 38 7H8C7.44772 7 7 7.44772 7 8V31C7 31.5523 7.44772 32 8 32H17.5C17.7761 32 18 32.2239 18 32.5V33.5C18 33.7761 17.7761 34 17.5 34H8C6.34315 34 5 32.6569 5 31V8C5 6.34315 6.34315 5 8 5H38Z" fill="oklch(0.3523 0 0 / 1)" class="wd-expressive-fill"></path>
<path d="M35.417 9.2207C35.5982 9.01255 35.9137 8.99077 36.1221 9.17188L36.877 9.82812C37.0853 10.0092 37.1077 10.3248 36.9268 10.5332L32.3164 15.8379C32.3107 15.8445 32.3029 15.8493 32.2969 15.8555L31.0283 17.3369C30.5601 17.8831 29.7702 18.0199 29.1455 17.6631L23.3486 14.3506L17.0664 24.6719C16.6965 25.2796 15.9502 25.5439 15.2803 25.3047L9.13477 23.1094C8.87484 23.0165 8.7394 22.7307 8.83203 22.4707L9.16797 21.5293C9.26083 21.2693 9.54665 21.1338 9.80664 21.2266L15.5684 23.2832L21.8926 12.8955C22.2885 12.245 23.1029 12.0006 23.7842 12.3047L23.918 12.373L29.7783 15.7207L32.2412 12.8496L32.2539 12.8604L35.417 9.2207Z" fill="oklch(0.3523 0 0 / 1)" class="wd-expressive-fill"></path>
</g>
</svg>