<svg role="presentation" width="56" height="56" viewBox="0 0 56 56" xmlns="http://www.w3.org/2000/svg" class="wd-expressive wd-expressive-cupcake">
<path d="M40 51.0005H16L11 32.9995H45L40 51.0005Z" fill="oklch(0.3057 0.079 256.22 / 0.13)" class="wd-expressive-accent"></path>
<path d="M26.302 3.72322C27.2485 3.18962 28.4473 3.66953 28.7639 4.70954L29.3118 6.51326C29.7782 8.04694 31.2183 9.07561 32.8206 9.02204C36.496 8.89865 39.255 12.3189 38.3899 15.8687L39.9387 16.2838C42.8727 17.0699 44.6133 20.0862 43.8274 23.0201C43.6922 23.5246 43.4895 23.994 43.2337 24.4215C45.9989 25.318 47.6068 28.2355 46.846 31.0758C46.6672 31.7427 46.3724 32.3465 45.9905 32.8736C46.0072 33.0039 46.0001 33.1374 45.9641 33.2672L41.3704 49.8023C41.0097 51.1008 39.8274 51.9996 38.4797 51.9996H17.5208C16.1732 51.9995 14.9908 51.1007 14.6301 49.8023L10.1672 33.7408C8.54653 32.4784 7.71382 30.3626 8.16627 28.2515L8.23268 27.9761C8.75361 26.0328 10.2524 24.6142 12.0559 24.1051C11.9313 23.355 11.9599 22.5663 12.1692 21.7847C12.6984 19.8102 14.2376 18.3769 16.0803 17.8892C15.9654 17.1536 15.9977 16.3818 16.2024 15.6177C16.7538 13.5608 18.4012 12.0925 20.345 11.6676C20.9847 8.41065 23.0166 5.57559 25.9329 3.93122L26.302 3.72322ZM16.5569 49.2672C16.6771 49.6999 17.0716 49.9995 17.5208 49.9996H18.7981L16.5159 37.6734C16.4657 37.402 16.645 37.1417 16.9163 37.0914L17.8997 36.9097C18.1711 36.8596 18.4324 37.0387 18.4827 37.3101L20.8323 49.9996H22.9046L21.7542 37.5894C21.7287 37.3145 21.9314 37.071 22.2063 37.0455L23.2034 36.9537C23.4781 36.9286 23.7209 37.1311 23.7463 37.4058L24.9124 49.9996H27.0003V37.4996C27.0004 37.2236 27.2242 36.9997 27.5003 36.9996H28.5003C28.7763 36.9996 29.0002 37.2235 29.0003 37.4996V49.9996H31.0881L32.2551 37.4058C32.2806 37.1309 32.5242 36.9283 32.7991 36.9537L33.7942 37.0455C34.0692 37.0708 34.2718 37.3144 34.2463 37.5894L33.0969 49.9996H35.1682L37.5178 37.3101C37.5681 37.0387 37.8294 36.8596 38.1008 36.9097L39.0842 37.0914C39.3557 37.1416 39.5348 37.4019 39.4846 37.6734L37.2024 49.9996H38.4797C38.929 49.9996 39.3234 49.7 39.4436 49.2672L43.6838 33.9996H12.3167L16.5569 49.2672ZM26.9163 5.67341C24.5779 6.9918 22.9273 9.23828 22.3528 11.8306L26.2551 12.8765C26.5216 12.9481 26.6799 13.2223 26.6087 13.4888L26.3499 14.4547C26.2784 14.7213 26.0042 14.8794 25.7376 14.8082L21.1057 13.567C19.724 13.7305 18.5166 14.7127 18.135 16.1353L18.0706 16.4205C17.9757 16.9425 18.0044 17.4622 18.135 17.9478L24.4426 19.6383C24.7093 19.7097 24.8684 19.9839 24.7971 20.2506L24.5374 21.2164C24.4657 21.4829 24.1917 21.6413 23.9251 21.5699L17.0676 19.732C15.6885 19.8971 14.483 20.8804 14.1018 22.3023L14.0374 22.5904C13.9249 23.2134 13.9885 23.8327 14.1926 24.3961L22.5667 26.6412C22.8332 26.7127 22.9914 26.9869 22.9202 27.2535L22.6614 28.2193C22.5898 28.4859 22.3157 28.6442 22.0491 28.5728L12.5813 26.0347C11.4398 26.3631 10.4938 27.2648 10.1643 28.4937L10.1223 28.6685C9.85286 29.925 10.299 31.1843 11.2014 31.9996H44.1282C44.4297 31.6673 44.6713 31.2735 44.8294 30.8297L44.9143 30.5582C45.4144 28.6912 44.3057 26.7713 42.4387 26.2711L41.2229 25.9459C41.2054 25.9411 41.1883 25.9329 41.1712 25.9273C41.1596 25.9252 41.1465 25.9255 41.135 25.9224L37.9963 25.0806C37.7301 25.0089 37.5714 24.7348 37.6428 24.4683L37.9016 23.5025C37.9733 23.2364 38.2476 23.0781 38.5139 23.149L41.1809 23.8638C41.5075 23.481 41.7565 23.0221 41.8958 22.5025L41.9378 22.3277C42.3258 20.5172 41.2298 18.7011 39.4212 18.2164L36.9104 17.5435L36.9046 17.5416L32.5637 16.3785C32.2974 16.3067 32.1388 16.0327 32.2102 15.7662L32.469 14.8004C32.5406 14.5341 32.8149 14.3759 33.0813 14.4468L36.4573 15.3511L36.4788 15.2633C36.9315 13.0436 35.1905 10.9449 32.888 11.022C30.3808 11.106 28.1285 9.49455 27.3987 7.09431L26.9592 5.64802L26.9163 5.67341Z" fill="oklch(0.3523 0 0 / 1)" class="wd-expressive-fill"></path>
</svg>