<svg role="presentation" width="56" height="56" viewBox="0 0 56 56" xmlns="http://www.w3.org/2000/svg" class="wd-expressive wd-expressive-home">
<g>
<path d="M26.741 4.98241C27.4683 4.40692 28.4961 4.40689 29.2234 4.98241L51.573 22.6758C51.7893 22.8472 51.8253 23.1615 51.6541 23.3779L49.8347 25.6768C49.6633 25.893 49.349 25.9291 49.1326 25.7578L28.2927 9.25976C28.1109 9.11579 27.8535 9.11579 27.6716 9.25976L10.9998 22.458V44H31.9998V35.3144C32.6254 35.0933 33.2984 34.9727 33.9998 34.9726L34.2859 34.9795C35.7101 35.0464 37.0045 35.6092 37.9998 36.5V47H7.99976V24.833L6.83179 25.7578C6.6154 25.9291 6.30111 25.893 6.12964 25.6768L4.31031 23.3779C4.139 23.1615 4.17498 22.8472 4.39136 22.6758L26.741 4.98241Z" fill="oklch(0.3057 0.079 256.22 / 0.13)" class="wd-expressive-accent"></path>
<path d="M47.9998 47H39.9998V44H47.9998V47Z" fill="oklch(0.3057 0.079 256.22 / 0.13)" class="wd-expressive-accent"></path>
<path d="M23.9998 40H13.9998V36H23.9998V40Z" fill="oklch(0.3057 0.079 256.22 / 0.13)" class="wd-expressive-accent"></path>
<path d="M31.9998 27H21.9998V23H31.9998V27Z" fill="oklch(0.3057 0.079 256.22 / 0.13)" class="wd-expressive-accent"></path>
</g>
<g>
<path d="M25.9996 33.0004C26.5519 33.0004 26.9996 33.4481 26.9996 34.0004V40.0004C26.9995 40.5526 26.5518 41.0004 25.9996 41.0004H13.9996C13.4476 41.0002 12.9997 40.5524 12.9996 40.0004V34.0004C12.9996 33.4482 13.4475 33.0006 13.9996 33.0004H25.9996ZM14.9996 39.0004H18.9996V35.0004H14.9996V39.0004ZM20.9996 39.0004H24.9996V35.0004H20.9996V39.0004Z" fill="oklch(0.3523 0 0 / 1)" class="wd-expressive-fill"></path>
<path d="M33.9996 20.0004C34.5519 20.0004 34.9996 20.4481 34.9996 21.0004V27.0004C34.9995 27.5526 34.5518 28.0004 33.9996 28.0004H21.9996C21.4476 28.0002 20.9997 27.5524 20.9996 27.0004V21.0004C20.9996 20.4482 21.4475 20.0006 21.9996 20.0004H33.9996ZM28.9996 26.0004H32.9996V22.0004H28.9996V26.0004ZM22.9996 26.0004H26.9996V22.0004H22.9996V26.0004Z" fill="oklch(0.3523 0 0 / 1)" class="wd-expressive-fill"></path>
<path d="M26.1197 4.19961C27.2108 3.3358 28.7532 3.33582 29.8443 4.19961L52.193 21.892C52.8425 22.4062 52.9523 23.3499 52.4381 23.9994L50.6187 26.2973C50.223 26.7969 49.5739 26.9752 48.9996 26.7973V46.0004H51.4996C51.7757 46.0004 51.9996 46.2242 51.9996 46.5004V47.5004C51.9994 47.7764 51.7756 48.0004 51.4996 48.0004H4.49961C4.22373 48.0002 3.99977 47.7763 3.99961 47.5004V46.5004C3.99961 46.2244 4.22363 46.0006 4.49961 46.0004H6.99961V26.7855C6.41672 26.9816 5.74896 26.8071 5.34531 26.2973L3.52597 23.9994C3.01185 23.35 3.12186 22.4063 3.77109 21.892L26.1197 4.19961ZM8.99961 25.3168V46.0004H30.9996V34.4994C30.9998 34.2153 31.1209 33.9438 31.3326 33.7543C32.5703 32.6466 34.2076 31.9722 35.9996 31.9721C37.7915 31.9721 39.4289 32.6467 40.6666 33.7543C40.8784 33.9438 40.9994 34.2152 40.9996 34.4994V46.0004H46.9996V25.3441L27.982 10.2895L8.99961 25.3168ZM35.9996 33.9721C34.8733 33.9721 33.8355 34.3439 32.9996 34.9721V45.9994H38.9996V34.9721C38.1637 34.344 37.1259 33.9721 35.9996 33.9721ZM28.6031 5.76699C28.2394 5.47908 27.7246 5.47906 27.3609 5.76699L5.4039 23.1498L6.60214 24.6625L27.0514 8.47597L27.1559 8.3998C27.6562 8.06922 28.3078 8.0693 28.8082 8.3998L28.9127 8.47597L49.3609 24.6635L50.5592 23.1498L28.6031 5.76699Z" fill="oklch(0.3523 0 0 / 1)" class="wd-expressive-fill"></path>
</g>
</svg>