<svg role="presentation" width="56" height="56" viewBox="0 0 56 56" xmlns="http://www.w3.org/2000/svg" class="wd-expressive wd-expressive-connection">
<g>
<path d="M39.5 38C41.9853 38 44 40.0147 44 42.5C44 44.9853 41.9853 47 39.5 47C37.0147 47 35 44.9853 35 42.5C35 40.0147 37.0147 38 39.5 38Z" fill="oklch(0.3057 0.079 256.22 / 0.13)" class="wd-expressive-accent"></path>
<path d="M26.5 25C28.9853 25 31 27.0147 31 29.5C31 31.9853 28.9853 34 26.5 34C24.0147 34 22 31.9853 22 29.5C22 27.0147 24.0147 25 26.5 25Z" fill="oklch(0.3057 0.079 256.22 / 0.13)" class="wd-expressive-accent"></path>
<path d="M13.5 12C15.9853 12 18 14.0147 18 16.5C18 18.9853 15.9853 21 13.5 21C11.0147 21 9 18.9853 9 16.5C9 14.0147 11.0147 12 13.5 12Z" fill="oklch(0.3057 0.079 256.22 / 0.13)" class="wd-expressive-accent"></path>
</g>
<path d="M17.3926 8.41953C20.2933 4.06884 26.1134 2.66149 30.7061 5.31308C35.489 8.07452 37.1276 14.1913 34.3662 18.9742L32.3291 22.5006C33.9551 23.7823 34.9999 25.7685 35 27.9996C35 31.8656 31.866 34.9996 28 34.9996C27.0815 34.9996 26.205 34.8212 25.4014 34.4996L23.3662 38.026C21.1571 41.8523 22.4677 46.7455 26.2939 48.9547C29.9121 51.0436 34.4823 49.9832 36.8369 46.6266C35.1161 45.3512 34 43.306 34 40.9996C34.0002 37.1338 37.1341 33.9996 41 33.9996C44.8659 33.9996 47.9998 37.1338 48 40.9996C48 44.8656 44.866 47.9996 41 47.9996C40.1593 47.9996 39.3533 47.8514 38.6064 47.5797C35.7058 51.9304 29.8867 53.3377 25.2939 50.6861C20.5113 47.9246 18.8725 41.8088 21.6338 37.026L23.6689 33.4977C22.044 32.2158 21 30.2299 21 27.9996C21.0002 24.1338 24.1341 20.9996 28 20.9996C28.9178 20.9996 29.7935 21.1785 30.5967 21.4996L32.6338 17.9742C34.8429 14.1479 33.5322 9.2547 29.7061 7.04551C26.0883 4.95681 21.518 6.01606 19.1631 9.37168C20.8843 10.6469 21.9999 12.693 22 14.9996C22 18.8656 18.866 21.9996 15 21.9996C11.134 21.9996 8 18.8656 8 14.9996C8.00021 11.1338 11.1341 7.99961 15 7.99961C15.8403 7.99961 16.6461 8.14805 17.3926 8.41953ZM41 35.9996C38.2387 35.9996 36.0002 38.2384 36 40.9996C36 43.761 38.2386 45.9996 41 45.9996C43.7614 45.9996 46 43.761 46 40.9996C45.9998 38.2384 43.7613 35.9996 41 35.9996ZM28 22.9996C25.2387 22.9996 23.0002 25.2384 23 27.9996C23 30.761 25.2386 32.9996 28 32.9996C30.7614 32.9996 33 30.761 33 27.9996C32.9998 25.2384 30.7613 22.9996 28 22.9996ZM15 9.99961C12.2387 9.99961 10.0002 12.2384 10 14.9996C10 17.761 12.2386 19.9996 15 19.9996C17.7614 19.9996 20 17.761 20 14.9996C19.9998 12.2384 17.7613 9.99961 15 9.99961Z" fill="oklch(0.3523 0 0 / 1)" class="wd-expressive-fill"></path>
</svg>