<svg role="presentation" width="56" height="56" viewBox="0 0 56 56" xmlns="http://www.w3.org/2000/svg" class="wd-expressive wd-expressive-webpage-edit">
<g>
<path d="M38.75 24.25L26.5 36.5L22.5 32.5L34.75 20.25L38.75 24.25Z" fill="oklch(0.3057 0.079 256.22 / 0.13)" class="wd-expressive-accent"></path>
<path d="M51 11C52.1046 11 53 11.8954 53 13V19H42.582C42.3389 18.4429 41.9907 17.9204 41.5352 17.4648C40.5591 16.4888 39.278 16 38 16C37.768 16.0001 37.5441 16.0808 37.3662 16.2266L37.293 16.293L34.5859 19H3V13C3 11.8955 3.89557 11.0002 5 11H51Z" fill="oklch(0.3057 0.079 256.22 / 0.13)" class="wd-expressive-accent"></path>
</g>
<g>
<path d="M38 16C39.278 16 40.5601 16.4888 41.5361 17.4648C42.5119 18.4409 43 19.7222 43 21C43 21.2652 42.8945 21.5195 42.707 21.707L26.457 37.957C26.3485 38.0655 26.2166 38.148 26.0713 38.1973L20.9805 39.9219C20.783 39.9888 20.5869 40.0118 20.3994 40H8.5C8.22386 40 8 39.7761 8 39.5V38.5C8 38.2239 8.22386 38 8.5 38H19.085L20.8027 32.9287C20.852 32.7834 20.9345 32.6515 21.043 32.543L37.293 16.293C37.4804 16.1055 37.7349 16.0001 38 16ZM21.2969 37.7021L25.0244 36.4385L22.5596 33.9736L21.2969 37.7021ZM23.9131 32.499L26.499 35.085L37.335 24.249L34.749 21.6631L23.9131 32.499ZM36.1631 20.249L38.749 22.835L40.9717 20.6133C40.8897 19.9785 40.6084 19.3663 40.1211 18.8789C39.6334 18.3913 39.0209 18.1091 38.3857 18.0273L36.1631 20.249Z" fill="oklch(0.3523 0 0 / 1)" class="wd-expressive-fill"></path>
<path d="M16.5 33C16.7761 33 17 33.2239 17 33.5V34.5C17 34.7761 16.7761 35 16.5 35H8.5C8.22386 35 8 34.7761 8 34.5V33.5C8 33.2239 8.22386 33 8.5 33H16.5Z" fill="oklch(0.3523 0 0 / 1)" class="wd-expressive-fill"></path>
<path d="M47.5 33C47.7761 33 48 33.2239 48 33.5V34.5C48 34.7761 47.7761 35 47.5 35H35.5C35.2239 35 35 34.7761 35 34.5V33.5C35 33.2239 35.2239 33 35.5 33H47.5Z" fill="oklch(0.3523 0 0 / 1)" class="wd-expressive-fill"></path>
<path d="M20.5 28C20.7761 28 21 28.2239 21 28.5V29.5C21 29.7761 20.7761 30 20.5 30H8.5C8.22386 30 8 29.7761 8 29.5V28.5C8 28.2239 8.22386 28 8.5 28H20.5Z" fill="oklch(0.3523 0 0 / 1)" class="wd-expressive-fill"></path>
<path d="M47.5 28C47.7761 28 48 28.2239 48 28.5V29.5C48 29.7761 47.7761 30 47.5 30H40.5C40.2239 30 40 29.7761 40 29.5V28.5C40 28.2239 40.2239 28 40.5 28H47.5Z" fill="oklch(0.3523 0 0 / 1)" class="wd-expressive-fill"></path>
<path d="M25.5 23C25.7761 23 26 23.2239 26 23.5V24.5C26 24.7761 25.7761 25 25.5 25H8.5C8.22386 25 8 24.7761 8 24.5V23.5C8 23.2239 8.22386 23 8.5 23H25.5Z" fill="oklch(0.3523 0 0 / 1)" class="wd-expressive-fill"></path>
<path d="M7.5 13C8.32843 13 9 13.6716 9 14.5C9 15.3284 8.32843 16 7.5 16C6.67157 16 6 15.3284 6 14.5C6 13.6716 6.67157 13 7.5 13Z" fill="oklch(0.3523 0 0 / 1)" class="wd-expressive-fill"></path>
<path d="M12.5 13C13.3284 13 14 13.6716 14 14.5C14 15.3284 13.3284 16 12.5 16C11.6716 16 11 15.3284 11 14.5C11 13.6716 11.6716 13 12.5 13Z" fill="oklch(0.3523 0 0 / 1)" class="wd-expressive-fill"></path>
<path d="M17.5 13C18.3284 13 19 13.6716 19 14.5C19 15.3284 18.3284 16 17.5 16C16.6716 16 16 15.3284 16 14.5C16 13.6716 16.6716 13 17.5 13Z" fill="oklch(0.3523 0 0 / 1)" class="wd-expressive-fill"></path>
<path d="M51 10C52.6569 10 54 11.3431 54 13V43C54 44.6569 52.6569 46 51 46H5C3.34315 46 2 44.6569 2 43V13C2 11.3431 3.34315 10 5 10H51ZM5 12C4.44772 12 4 12.4477 4 13V17H30.5C30.7761 17 31 17.2239 31 17.5V18.5C31 18.7761 30.7761 19 30.5 19H4V43C4 43.5523 4.44772 44 5 44H51C51.5523 44 52 43.5523 52 43V19H45.5C45.2239 19 45 18.7761 45 18.5V17.5C45 17.2239 45.2239 17 45.5 17H52V13C52 12.4477 51.5523 12 51 12H5Z" fill="oklch(0.3523 0 0 / 1)" class="wd-expressive-fill"></path>
</g>
</svg>