<svg role="presentation" width="56" height="56" viewBox="0 0 56 56" xmlns="http://www.w3.org/2000/svg" class="wd-expressive wd-expressive-quotes-simple">
<g>
<path d="M25.5 7C25.7761 7 26 7.22386 26 7.5V10C17.8814 10 11 16.6003 11 24.5V44H24V46.5C24 46.7761 23.7761 47 23.5 47H8.5C8.22386 47 8 46.7761 8 46.5V24.5C8 14.835 15.835 7 25.5 7Z" fill="oklch(0.3057 0.079 256.22 / 0.13)" class="wd-expressive-accent"></path>
<path d="M47.5 7C47.7761 7 48 7.22386 48 7.5V10C39.8814 10 33 16.6003 33 24.5V44H46V46.5C46 46.7761 45.7761 47 45.5 47H30.5C30.2239 47 30 46.7761 30 46.5V24.5C30 14.835 37.835 7 47.5 7Z" fill="oklch(0.3057 0.079 256.22 / 0.13)" class="wd-expressive-accent"></path>
</g>
<g>
<path d="M25.5 6C26.3284 6 27 6.67157 27 7.5V13.5L26.9922 13.6533C26.9154 14.4097 26.2767 15 25.5 15C20.2533 15 16 19.2533 16 24.5V29H23.5C24.3284 29 25 29.6716 25 30.5V46.5C25 47.3284 24.3284 48 23.5 48H8.5C7.72334 48 7.08461 47.4097 7.00781 46.6533L7 46.5V24.5C7 14.2827 15.2827 6 25.5 6ZM25 8.00781C16.1186 8.27215 9 15.5546 9 24.5V46H23V31H15.5C14.6716 31 14 30.3284 14 29.5V24.5C14 18.3163 18.8807 13.2735 25 13.0117V8.00781Z" fill="oklch(0.3523 0 0 / 1)" class="wd-expressive-fill"></path>
<path d="M47.5 6C48.3284 6 49 6.67157 49 7.5V13.5L48.9922 13.6533C48.9154 14.4097 48.2767 15 47.5 15C42.2533 15 38 19.2533 38 24.5V29H45.5C46.3284 29 47 29.6716 47 30.5V46.5C47 47.3284 46.3284 48 45.5 48H30.5C29.7233 48 29.0846 47.4097 29.0078 46.6533L29 46.5V24.5C29 14.2827 37.2827 6 47.5 6ZM47 8.00781C38.1186 8.27215 31 15.5546 31 24.5V46H45V31H37.5C36.6716 31 36 30.3284 36 29.5V24.5C36 18.3163 40.8807 13.2735 47 13.0117V8.00781Z" fill="oklch(0.3523 0 0 / 1)" class="wd-expressive-fill"></path>
</g>
</svg>