<svg role="presentation" width="56" height="56" viewBox="0 0 56 56" xmlns="http://www.w3.org/2000/svg" class="wd-expressive wd-expressive-sparkles">
<g>
<path d="M6.95605 39.0439C9.52302 39.2678 11.942 40.3854 13.7783 42.2217C15.6144 44.0577 16.731 46.4764 16.9551 49.043C16.6746 49.5931 16.1484 49.9918 15.5195 50H15.4805C14.6611 49.9894 14.0129 49.3166 13.8604 48.5088C13.5723 46.9828 12.8372 45.5247 11.6562 44.3438C10.4755 43.1631 9.01785 42.4278 7.49219 42.1396C6.67791 41.9858 6 41.3287 6 40.5C6 39.8629 6.40079 39.3275 6.95605 39.0439Z" fill="oklch(0.3057 0.079 256.22 / 0.13)" class="wd-expressive-accent"></path>
<path d="M16.2656 21.0029C18.539 21.0365 20.7866 21.4994 22.8887 22.3701C25.0724 23.2747 27.0562 24.6011 28.7275 26.2725C30.3989 27.9438 31.7253 29.9276 32.6299 32.1113C33.5004 34.213 33.9624 36.4603 33.9961 38.7334C33.7048 38.8994 33.3739 38.9968 33.0186 39H32.9814C31.8856 38.9899 31.0123 38.0946 30.8672 37.0059C30.4473 33.8561 29.0277 30.814 26.6074 28.3936C24.1868 25.973 21.1441 24.5527 17.9941 24.1328C16.8992 23.9869 16 23.1036 16 21.999C16.0001 21.637 16.0972 21.2991 16.2656 21.0029Z" fill="oklch(0.3057 0.079 256.22 / 0.13)" class="wd-expressive-accent"></path>
</g>
<g>
<path d="M15.499 30.001C16.9154 30.001 17.8997 31.1347 18.1211 32.3066C18.3734 33.641 19.0157 34.916 20.0498 35.9502C21.084 36.9842 22.3588 37.6259 23.6934 37.8779C24.8659 38.0993 26 39.0841 26 40.501C25.9995 41.9174 24.8657 42.9018 23.6934 43.123C22.3589 43.3751 21.0839 44.0167 20.0498 45.0508C19.0155 46.0853 18.3731 47.3607 18.1211 48.6953C17.8997 49.867 16.9159 51.0007 15.5 51.001C14.084 51.0008 13.0992 49.8672 12.8779 48.6953C12.6261 47.3604 11.9845 46.0852 10.9502 45.0508C9.91618 44.0168 8.6414 43.3751 7.30664 43.123C6.1344 42.9016 5.00052 41.9172 5 40.501C5 39.0843 6.13419 38.0995 7.30664 37.8779C8.64121 37.6259 9.91626 36.984 10.9502 35.9502C11.9841 34.9161 12.6258 33.641 12.8779 32.3066C13.0992 31.1348 14.0832 30.0014 15.499 30.001ZM15.499 32.001C15.2591 32.0015 14.9287 32.2228 14.8428 32.6777C14.5184 34.3947 13.6914 36.0369 12.3643 37.3643C11.0369 38.6915 9.39467 39.5186 7.67773 39.8428C7.22199 39.929 7 40.2605 7 40.501C7.0006 40.7414 7.22248 41.0721 7.67773 41.1582C9.39485 41.4825 11.0368 42.3092 12.3643 43.6367C13.6919 44.9646 14.5197 46.6075 14.8438 48.3252C14.9299 48.7798 15.2603 49.0008 15.5 49.001C15.7398 49.0007 16.0692 48.7791 16.1553 48.3242C16.4796 46.6067 17.3084 44.9644 18.6357 43.6367C19.9632 42.3094 21.6052 41.4825 23.3223 41.1582C23.7777 41.0722 23.9994 40.7414 24 40.501C24 40.2605 23.7783 39.9289 23.3223 39.8428C21.6052 39.5185 19.9632 38.6916 18.6357 37.3643C17.3085 36.0369 16.4808 34.3949 16.1562 32.6777C16.0702 32.2221 15.739 32.001 15.499 32.001Z" fill="oklch(0.3523 0 0 / 1)" class="wd-expressive-fill"></path>
<path d="M33 4C34.6844 4.0002 35.9236 5.35413 36.125 6.86328C36.5174 9.80237 37.842 12.6398 40.1016 14.8994C42.3612 17.1588 45.1985 18.4829 48.1377 18.875C49.6472 19.0765 51 20.3159 51 22C50.9997 23.6839 49.647 24.9235 48.1377 25.125C45.1984 25.5172 42.3612 26.8412 40.1016 29.1006C37.8416 31.3606 36.5161 34.1987 36.124 37.1387C35.9226 38.6475 34.6851 40.0005 33.001 40.001C31.3165 40.001 30.0784 38.6478 29.877 37.1387C29.4851 34.1988 28.1601 31.3605 25.9004 29.1006C23.6406 26.8408 20.8023 25.516 17.8623 25.124C16.3528 24.9228 15.0003 23.6842 15 22C15 20.3156 16.3527 19.0772 17.8623 18.876C20.8023 18.484 23.6405 17.1592 25.9004 14.8994C28.1596 12.6399 29.4837 9.80242 29.876 6.86328C30.0773 5.35412 31.3157 4.00026 33 4ZM33 6.00098C32.4757 6.00125 31.9492 6.44695 31.8584 7.12695C31.4102 10.4862 29.895 13.7326 27.3145 16.3135C24.7332 18.8947 21.4859 20.4105 18.126 20.8584C17.446 20.9492 17 21.4753 17 22C17.0003 22.5245 17.4463 23.0508 18.126 23.1416C21.4858 23.5895 24.7332 25.1053 27.3145 27.6865C29.8955 30.2678 31.4115 33.5152 31.8594 36.875C31.9504 37.5549 32.4767 38.001 33.001 38.001C33.5249 38.0005 34.0505 37.5546 34.1416 36.875C34.5897 33.5149 36.1063 30.2678 38.6875 27.6865C41.2685 25.1058 44.5146 23.5907 47.874 23.1426C48.5536 23.0517 48.9997 22.5245 49 22C49 21.4754 48.5537 20.9484 47.874 20.8574C44.5147 20.4094 41.2685 18.8942 38.6875 16.3135C36.1067 13.7327 34.591 10.4863 34.1426 7.12695C34.0517 6.44688 33.5243 6.00118 33 6.00098Z" fill="oklch(0.3523 0 0 / 1)" class="wd-expressive-fill"></path>
</g>
</svg>