<svg role="presentation" width="56" height="56" viewBox="0 0 56 56" xmlns="http://www.w3.org/2000/svg" class="wd-expressive wd-expressive-comment-question">
<path d="M10.9131 9.11914C10.338 9.9335 10 10.9272 10 12V34C10 36.4189 11.7178 38.4361 14 38.8994V44C15.7601 43.9025 17.4923 43.1816 18.8369 41.8369C19.6637 41.0101 20.2531 40.0363 20.6084 39H47C47.3731 39 47.7362 38.9574 48.0859 38.8799C47.1807 40.1619 45.6887 41 44 41H20.3906C19.8785 42.4269 19.0532 43.767 17.9102 44.9102C15.9893 46.8311 13.5145 47.8607 11 48V40.8994C8.71782 40.4361 7 38.4189 7 36V14C7 11.6119 8.67436 9.61547 10.9131 9.11914Z" fill="oklch(0.3057 0.079 256.22 / 0.13)" class="wd-expressive-accent"></path>
<g>
<path d="M28.5 32C28.7761 32.0001 29 32.2239 29 32.5V34.5C29 34.7761 28.7761 34.9999 28.5 35H27.5C27.2239 34.9999 27 34.7761 27 34.5V32.5C27 32.2239 27.2239 32.0001 27.5 32H28.5Z" fill="oklch(0.3523 0 0 / 1)" class="wd-expressive-fill"></path>
<path d="M28.5 16C30.4376 16 32.0675 16.5558 33.2266 17.5859C34.3941 18.6238 35 20.0711 35 21.667C34.9999 23.3098 34.5708 24.475 33.8057 25.3252C33.0803 26.1311 32.1334 26.5489 31.4062 26.8721C30.6113 27.2254 30.0586 27.4755 29.6572 27.8916C29.3639 28.1958 29.0958 28.6549 29.0205 29.5C28.996 29.775 28.7761 30 28.5 30H27.5C27.2239 29.9999 26.998 29.7755 27.0156 29.5C27.1 28.1842 27.5244 27.223 28.2178 26.5039C28.9413 25.7537 29.8889 25.3582 30.5938 25.0449C31.3664 24.7015 31.9198 24.4312 32.3193 23.9873C32.679 23.5876 32.9999 22.9403 33 21.667C33 20.5964 32.6055 19.7098 31.8984 19.0811C31.1826 18.4448 30.062 18 28.5 18C26.9395 18 25.8631 18.4412 25.167 19.1836C24.5269 19.8664 24.088 20.9315 24.0117 22.5C23.9983 22.7758 23.7761 23 23.5 23H22.5C22.224 22.9999 21.9986 22.7758 22.0098 22.5C22.0882 20.5694 22.6308 18.9656 23.708 17.8164C24.8869 16.559 26.5609 16 28.5 16Z" fill="oklch(0.3523 0 0 / 1)" class="wd-expressive-fill"></path>
<path d="M44.3086 8.00781C47.4789 8.16843 50 10.7898 50 14V37C50 40.3137 47.3137 43 44 43H21.0703C20.5057 44.3137 19.6891 45.5452 18.6172 46.6172C16.5156 48.7188 13.806 49.8456 11.0557 49.998C10.7813 50.0132 10.5121 49.9154 10.3125 49.7266C10.1129 49.5377 10 49.2748 10 49V42.6562C7.75092 41.861 6.11651 39.7655 6.00586 37.2705L6 37V14C6 10.6863 8.68629 8 12 8H44L44.3086 8.00781ZM12 10C9.79086 10 8 11.7909 8 14V37L8.00391 37.1807C8.08634 39.0337 9.43088 40.5599 11.1992 40.9189C11.6652 41.0136 12 41.4239 12 41.8994V47.8818C13.9055 47.5639 15.7329 46.6734 17.2031 45.2031C18.2389 44.1673 18.9855 42.9541 19.4492 41.6621C19.5918 41.2649 19.9686 41 20.3906 41H44L44.2061 40.9951C46.3194 40.8879 48 39.14 48 37V14C48 11.86 46.3194 10.1121 44.2061 10.0049L44 10H12Z" fill="oklch(0.3523 0 0 / 1)" class="wd-expressive-fill"></path>
</g>
</svg>