<svg role="presentation" width="56" height="56" viewBox="0 0 56 56" xmlns="http://www.w3.org/2000/svg" class="wd-expressive wd-expressive-pencil-ruler">
<g>
<path d="M44.7062 48.293C44.8937 48.4805 44.9991 48.7348 44.9991 49C44.9991 49.2651 44.8936 49.5196 44.7062 49.707L44.1202 50.293C42.9487 51.4638 41.0494 51.4641 39.8781 50.293L29.3283 39.7432L32.7423 36.3291L44.7062 48.293Z" fill="oklch(0.3057 0.079 256.22 / 0.13)" class="wd-expressive-accent"></path>
<path d="M11.8702 47.8701L7.40345 49.9229C6.5603 50.3101 5.6901 49.4398 6.07728 48.5967L8.13001 44.1299L11.8702 47.8701Z" fill="oklch(0.3057 0.079 256.22 / 0.13)" class="wd-expressive-accent"></path>
<path d="M46.714 6.82031C47.2158 7.10372 47.6889 7.45837 48.1163 7.88574C49.1471 8.91647 49.7572 10.2049 49.9503 11.5439C49.9918 11.8317 49.8815 12.1177 49.6759 12.3232L45.7072 16.292C45.3166 16.6824 44.6826 16.6825 44.2921 16.292C44.6826 16.6825 44.6836 17.3165 44.2931 17.707L16.757 45.2432C16.3665 45.6333 15.7333 45.6334 15.3429 45.2432L14.757 44.6572C14.3666 44.2668 14.3668 43.6337 14.757 43.2432L42.2931 15.707C42.6836 15.3165 43.3166 15.3165 43.7072 15.707L40.7677 12.7676L46.714 6.82031Z" fill="oklch(0.3057 0.079 256.22 / 0.13)" class="wd-expressive-accent"></path>
<path d="M6.36829 11.2246C6.76093 10.9044 7.34004 10.9272 7.70618 11.293L19.671 23.2578L16.257 26.6719L5.70618 16.1211C4.53538 14.9497 4.5355 13.0504 5.70618 11.8789L6.29212 11.293L6.36829 11.2246Z" fill="oklch(0.3057 0.079 256.22 / 0.13)" class="wd-expressive-accent"></path>
</g>
<g>
<path d="M38.6459 28.9398C38.8411 28.7446 39.1576 28.7446 39.3529 28.9398L50.2924 39.8783C51.4637 41.0499 51.4637 42.949 50.2924 44.1205L44.1205 50.2924C42.949 51.4637 41.0498 51.4637 39.8783 50.2924L29.2933 39.7064C28.9029 39.3159 28.9028 38.6829 29.2933 38.2924L33.9398 33.6459C34.1351 33.4511 34.4517 33.4508 34.6469 33.6459L35.3539 34.3529C35.5489 34.548 35.5487 34.8647 35.3539 35.06L31.4144 38.9994L33.7074 41.2924L33.9994 41.5854L37.9389 37.6459C38.1341 37.4506 38.4516 37.4506 38.6469 37.6459L39.3529 38.3529C39.5482 38.5482 39.5482 38.8647 39.3529 39.06L35.4135 42.9994L37.9994 45.5854L41.9398 41.6469C42.1351 41.4516 42.4516 41.4516 42.6469 41.6469L43.3539 42.3529C43.5492 42.5482 43.5492 42.8657 43.3539 43.0609L39.4135 46.9994L41.2924 48.8783C41.6828 49.2686 42.3159 49.2686 42.7064 48.8783L48.8783 42.7064C49.2686 42.316 49.2686 41.6829 48.8783 41.2924L42.9437 35.3578C42.9422 35.3564 42.9403 35.3554 42.9389 35.3539L37.9389 30.3539C37.7436 30.1587 37.7438 29.8421 37.9389 29.6469L38.6459 28.9398Z" fill="oklch(0.3523 0 0 / 1)" class="wd-expressive-fill"></path>
<path d="M44.4789 5.04629L44.598 5.05898L44.8871 5.10683C46.329 5.37287 47.7093 6.06409 48.8236 7.17812C48.9821 7.33658 49.1316 7.50178 49.2728 7.67031C49.2968 7.69895 49.3206 7.72832 49.3441 7.75723C49.3893 7.8128 49.4346 7.86865 49.4779 7.92519C49.5057 7.9615 49.5329 7.99885 49.5599 8.03555C49.5927 8.08 49.625 8.12531 49.6566 8.17031C49.6907 8.2187 49.7244 8.26779 49.7572 8.3168C49.7829 8.35522 49.8085 8.39422 49.8334 8.43301C49.8637 8.48021 49.8941 8.52786 49.9232 8.57558C49.9559 8.6291 49.9877 8.68355 50.0189 8.73769C50.0383 8.77131 50.0577 8.80541 50.0765 8.83926C50.1004 8.88221 50.1239 8.92582 50.1469 8.96914C50.1767 9.02542 50.2064 9.08219 50.2347 9.13906C50.2474 9.16448 50.2595 9.19067 50.2719 9.21621C50.6875 10.0755 50.9318 10.9972 51.0004 11.9291L50.9359 11.933C50.8736 12.3604 50.6693 12.7445 50.3832 13.0307L16.8832 46.5297C16.7156 46.6973 16.5195 46.834 16.3041 46.933L7.82069 50.8305C6.13416 51.6053 4.39346 49.8646 5.16834 48.1781L9.0658 39.6947C9.16476 39.4794 9.30158 39.2832 9.46912 39.1156L42.9691 5.61562L43.1273 5.47305C43.4898 5.18082 43.9667 5.00557 44.4789 5.04629ZM6.98572 49.0131L10.1449 47.56L8.4369 45.852L6.98572 49.0131ZM9.32752 43.9145L12.0834 46.6703L14.6312 45.4994L14.3236 44.8842L12.9574 44.6107C12.1659 44.4522 11.5464 43.8329 11.3881 43.0414L11.1146 41.6752L10.4984 41.3666L9.32752 43.9145ZM11.6869 39.725L12.0092 39.8861C12.5609 40.162 12.9543 40.6778 13.0756 41.2826L13.349 42.6498L14.7162 42.9232C15.321 43.0443 15.8366 43.438 16.1127 43.9896L16.2728 44.3109L43.5844 16.9984L38.9994 12.4135L11.6869 39.725ZM40.4135 10.9994L44.9984 15.5844L48.9506 11.6332C48.8428 10.9344 48.6023 10.2534 48.225 9.63125C48.2013 9.59232 48.1764 9.5535 48.1517 9.51504C48.1304 9.48179 48.1084 9.44831 48.0863 9.41543C48.069 9.38976 48.0513 9.36372 48.0336 9.33828C48 9.29017 47.9654 9.24199 47.9301 9.19473C47.9186 9.17944 47.9065 9.16402 47.8949 9.14883C47.8634 9.10761 47.8311 9.0663 47.7982 9.02578C47.7764 8.99881 47.7543 8.97137 47.7318 8.94473C47.6304 8.82434 47.523 8.70664 47.4096 8.59316C46.5503 7.73408 45.4798 7.21941 44.3656 7.04726L40.4135 10.9994Z" fill="oklch(0.3523 0 0 / 1)" class="wd-expressive-fill"></path>
<path d="M11.8783 5.70644C13.0497 4.53522 14.9489 4.53549 16.1205 5.70644L27.0599 16.6469C27.2552 16.8421 27.2552 17.1586 27.0599 17.3539L26.3529 18.0609C26.1576 18.256 25.8411 18.2561 25.6459 18.0609L20.6459 13.0609C20.6441 13.0591 20.6428 13.0569 20.641 13.0551L14.7064 7.12051C14.3159 6.7306 13.6827 6.73033 13.2924 7.12051L7.12049 13.2924C6.73034 13.6827 6.73059 14.3159 7.12049 14.7064L8.9994 16.5854L12.9388 12.6459C13.1341 12.4506 13.4516 12.4506 13.6469 12.6459L14.3529 13.3529C14.5482 13.5482 14.5482 13.8647 14.3529 14.06L10.4135 17.9994L13.0004 20.5863L16.9398 16.6469C17.1351 16.4516 17.4516 16.4516 17.6469 16.6469L18.3539 17.3539C18.5489 17.5492 18.549 17.8658 18.3539 18.0609L14.4144 22.0004L17.0004 24.5854L20.9398 20.6459C21.1351 20.4507 21.4516 20.4506 21.6469 20.6459L22.3539 21.3529C22.5489 21.5482 22.549 21.8648 22.3539 22.06L17.7074 26.7064C17.3169 27.0969 16.6839 27.0969 16.2933 26.7064L5.70643 16.1205C4.53548 14.949 4.53523 13.0497 5.70643 11.8783L11.8783 5.70644Z" fill="oklch(0.3523 0 0 / 1)" class="wd-expressive-fill"></path>
</g>
</svg>