<svg role="presentation" width="56" height="56" viewBox="0 0 56 56" xmlns="http://www.w3.org/2000/svg" class="wd-expressive wd-expressive-heart">
<path d="M16.9337 10.0439C15.368 10.4414 13.8598 11.187 12.5235 12.2988C7.28861 16.6546 7.10295 24.6294 12.13 29.2236L30.9249 46.3994L30.1905 47.0712L30.1915 47.0722L28.0011 49.0742L8.40538 31.1679C2.96531 26.1965 3.16549 17.5662 8.83018 12.8525C11.2112 10.8713 14.0976 9.96416 16.9337 10.0439Z" fill="oklch(0.3057 0.079 256.22 / 0.13)" class="wd-expressive-accent"></path>
<g>
<path d="M15.476 13.0742C15.7602 13.0438 16.0002 13.2728 16.0005 13.5586V14.5674C16.0005 14.8307 15.7957 15.0469 15.5346 15.0811C14.2794 15.2445 13.0473 15.7374 11.9731 16.583C10.3546 17.8577 9.43838 19.6561 9.23581 21.5225C9.20683 21.7885 8.98785 22 8.72019 22H7.71433C7.43174 21.9998 7.20389 21.7649 7.22898 21.4834C7.44707 19.0415 8.62248 16.6755 10.7368 15.0107C12.1631 13.8881 13.8074 13.2542 15.476 13.0742Z" fill="oklch(0.3523 0 0 / 1)" class="wd-expressive-fill"></path>
<path d="M28.2524 15.4014C32.4835 8.65706 41.6889 7.18803 47.8091 12.2803C53.9401 17.3818 54.1567 26.7221 48.269 32.1025L30.0229 48.7764C28.877 49.8229 27.1218 49.8231 25.976 48.7764L7.72995 32.1025C1.84267 26.7222 2.05945 17.3818 8.18991 12.2803C14.31 7.18784 23.5164 8.65712 27.7475 15.4014L27.9995 15.8037L28.2524 15.4014ZM46.5298 13.8174C41.3402 9.49963 33.5345 10.7453 29.9468 16.4639L27.9995 19.5674L26.0532 16.4639C22.4653 10.7452 14.6588 9.49931 9.46921 13.8174C4.27075 18.1433 4.08727 26.0636 9.07956 30.626L27.3247 47.2998C27.7066 47.6488 28.2923 47.6487 28.6743 47.2998L46.9194 30.626C51.912 26.0636 51.7286 18.1433 46.5298 13.8174Z" fill="oklch(0.3523 0 0 / 1)" class="wd-expressive-fill"></path>
</g>
</svg>