<svg role="presentation" width="56" height="56" viewBox="0 0 56 56" xmlns="http://www.w3.org/2000/svg" class="wd-expressive wd-expressive-tablet-lock-check">
<g>
<path d="M13 46C13 47.1046 13.8954 48 15 48H45.583C44.8114 49.7657 43.0502 51 41 51H15C12.2386 51 10 48.7614 10 46V10C10 7.94968 11.2341 6.18757 13 5.41602V46Z" fill="oklch(0.3057 0.079 256.22 / 0.13)" class="wd-expressive-accent"></path>
<path d="M23 34H35V36H21V26H23V34Z" fill="oklch(0.3057 0.079 256.22 / 0.13)" class="wd-expressive-accent"></path>
</g>
<g>
<path d="M31.5 46C31.7761 46 32 46.2239 32 46.5V47.5C32 47.7761 31.7761 48 31.5 48H24.5C24.2239 48 24 47.7761 24 47.5V46.5C24 46.2239 24.2239 46 24.5 46H31.5Z" fill="oklch(0.3523 0 0 / 1)" class="wd-expressive-fill"></path>
<path d="M29.9395 28.6465C30.1347 28.4513 30.4512 28.4513 30.6465 28.6465L31.3535 29.3535C31.5487 29.5488 31.5487 29.8653 31.3535 30.0605L28.207 33.207C28.0195 33.3945 27.7652 33.5 27.5 33.5C27.2349 33.5 26.9805 33.3945 26.793 33.207L25.1465 31.5605C24.9513 31.3653 24.9513 31.0488 25.1465 30.8535L25.8535 30.1465C26.0488 29.9513 26.3653 29.9513 26.5605 30.1465L27.5 31.0859L29.9395 28.6465Z" fill="oklch(0.3523 0 0 / 1)" class="wd-expressive-fill"></path>
<path d="M28 17C31.3137 17 34 19.6863 34 23V25H34.5C35.3284 25 36 25.6716 36 26.5V35.499C36 36.3274 35.3284 36.999 34.5 36.999H21.5C20.6716 36.999 20 36.3274 20 35.499V26.5C20 25.6716 20.6716 25 21.5 25H22V23C22 19.6863 24.6863 17 28 17ZM22 34.999H34V27H22V34.999ZM28 19C25.7909 19 24 20.7909 24 23V25H32V23C32 20.7909 30.2091 19 28 19Z" fill="oklch(0.3523 0 0 / 1)" class="wd-expressive-fill"></path>
<path d="M41 4C44.3137 4 47 6.68629 47 10V46C47 49.3137 44.3137 52 41 52H15C11.6863 52 9 49.3137 9 46V10C9 6.68629 11.6863 4 15 4H41ZM15 6C12.7909 6 11 7.79086 11 10V46C11 48.2091 12.7909 50 15 50H41C43.2091 50 45 48.2091 45 46V10C45 7.79086 43.2091 6 41 6H15Z" fill="oklch(0.3523 0 0 / 1)" class="wd-expressive-fill"></path>
</g>
</svg>