<svg role="presentation" width="56" height="56" viewBox="0 0 56 56" xmlns="http://www.w3.org/2000/svg" class="wd-expressive wd-expressive-coin-strikethrough">
<g>
<path d="M6.4502 17.4248C6.74244 16.8305 7.52874 16.7221 7.99707 17.1904L9.52148 18.7148C9.82345 19.017 9.89756 19.477 9.72363 19.8672C8.61613 22.352 8 25.1039 8 28C8 39.0457 16.9543 48 28 48C30.8959 48 33.6473 47.3829 36.1318 46.2754C36.522 46.1014 36.982 46.1756 37.2842 46.4775L38.8086 48.002C39.2769 48.4703 39.1686 49.2566 38.5742 49.5488C35.384 51.1177 31.7952 52 28 52C14.7452 52 4 41.2548 4 28C4 24.2046 4.88145 20.6153 6.4502 17.4248Z" fill="oklch(0.3057 0.079 256.22 / 0.13)" class="wd-expressive-accent"></path>
<path d="M28 4C41.2548 4 52 14.7452 52 28C52 34.2677 49.5975 39.9744 45.6631 44.249C45.2891 44.6554 44.6542 44.6541 44.2637 44.2637L42.8496 42.8496C42.4592 42.4591 42.4614 41.8274 42.832 41.418C46.044 37.8696 48 33.1631 48 28C48 16.9543 39.0457 8 28 8C22.8367 8 18.1295 9.95583 14.5811 13.168C14.1716 13.5386 13.54 13.5408 13.1494 13.1504L11.7354 11.7363C11.3449 11.3458 11.3437 10.7109 11.75 10.3369C16.0248 6.40225 21.732 4 28 4Z" fill="oklch(0.3057 0.079 256.22 / 0.13)" class="wd-expressive-accent"></path>
<path d="M12.0703 27C12.1024 27.0001 12.1304 27.0217 12.1387 27.0527C13.007 30.354 17.9005 33.0192 24.2744 33.7793C24.5012 33.8063 24.7145 33.9079 24.876 34.0693L29.1699 38.3633C29.7709 38.9649 29.3924 39.9802 28.542 39.9951C28.3621 39.9983 28.1814 40 28 40C19.1634 40 12 36.4183 12 32V27.0703C12 27.0316 12.0316 27 12.0703 27Z" fill="oklch(0.3057 0.079 256.22 / 0.13)" class="wd-expressive-accent"></path>
<path d="M43.9297 27C43.9684 27 44 27.0316 44 27.0703V32C44 34.3403 41.9899 36.4454 38.7861 37.9082C38.4187 38.076 37.9878 37.9877 37.7021 37.7021L34.8564 34.8564C34.287 34.2866 34.5904 33.3024 35.3701 33.0996C39.9044 31.9211 43.1676 29.6901 43.8613 27.0527C43.8696 27.0217 43.8976 27.0001 43.9297 27Z" fill="oklch(0.3057 0.079 256.22 / 0.13)" class="wd-expressive-accent"></path>
</g>
<g>
<path d="M6.10437 15.9355C6.23764 15.6937 6.54396 15.612 6.78308 15.75L7.64832 16.25C7.88731 16.3881 7.96861 16.6935 7.83582 16.9355C5.48465 21.2203 4.5572 26.1477 5.19617 31.002C5.85703 36.0216 8.15623 40.6836 11.7362 44.2637C15.3163 47.8437 19.9783 50.1428 24.9979 50.8037C29.8522 51.4427 34.7795 50.5152 39.0643 48.1641C39.3063 48.0313 39.6117 48.1126 39.7499 48.3516L40.2499 49.2178C40.3877 49.4569 40.3061 49.7623 40.0643 49.8955C35.3981 52.4666 30.0279 53.4826 24.7372 52.7861C19.2811 52.0677 14.2135 49.5691 10.3221 45.6777C6.43085 41.7863 3.93207 36.7188 3.21375 31.2627C2.51737 25.972 3.53331 20.6017 6.10437 15.9355Z" fill="oklch(0.3523 0 0 / 1)" class="wd-expressive-fill"></path>
<path d="M27.9999 3C31.2828 3 34.5342 3.64706 37.5673 4.90332C40.6002 6.15964 43.3563 8.001 45.6776 10.3223C47.9989 12.6436 49.8402 15.3997 51.0966 18.4326C52.3529 21.4658 52.9999 24.717 52.9999 28C52.9999 31.283 52.3529 34.5342 51.0966 37.5674C49.8402 40.6003 47.9989 43.3564 45.6776 45.6777C45.4901 45.8651 45.2356 45.9707 44.9706 45.9707C44.7056 45.9706 44.451 45.8651 44.2636 45.6777L10.3221 11.7363C10.1348 11.5488 10.0292 11.2943 10.0292 11.0293C10.0292 10.7642 10.1348 10.5097 10.3221 10.3223C12.6434 8.00099 15.3997 6.15968 18.4325 4.90332C21.4655 3.64701 24.717 3.00006 27.9999 3ZM27.9999 5C24.9796 5.00006 21.9885 5.59518 19.1981 6.75098C16.7162 7.77911 14.4355 9.23313 12.4589 11.0449L19.5702 18.1562C22.0621 17.4174 24.9446 17 27.9999 17C32.5394 17 36.6991 17.9177 39.7606 19.4482C42.7624 20.9491 44.9999 23.208 44.9999 26V32C44.9999 34.75 42.828 36.9798 39.8944 38.4805L44.954 43.54C46.7658 41.5634 48.2208 39.2838 49.2489 36.8018C50.4048 34.0113 50.9999 31.0204 50.9999 28C50.9999 24.9796 50.4048 21.9887 49.2489 19.1982C48.093 16.4079 46.3992 13.872 44.2636 11.7363C42.1279 9.60072 39.592 7.90679 36.8016 6.75098C34.0113 5.59522 31.0201 5 27.9999 5ZM42.9999 30.3037C42.1223 31.1728 41.0077 31.9282 39.7606 32.5518C38.5105 33.1768 37.0762 33.6953 35.5087 34.0947L38.3983 36.9844C38.5575 36.9119 38.7139 36.8388 38.8661 36.7627C41.6552 35.3681 42.9999 33.6263 42.9999 32V30.3037ZM27.9999 19C25.543 19 23.2352 19.2856 21.1991 19.7852L23.0096 21.5957C23.0753 21.5263 23.1623 21.4758 23.2636 21.4551C24.5332 21.1965 25.9126 21.0457 27.3192 21.0088C28.909 20.9671 30.5065 21.0726 31.9901 21.3184C33.4701 21.5636 34.8227 21.9465 35.9335 22.4531C36.8426 22.8678 37.6322 23.3848 38.1845 24.0127C38.3668 24.2201 38.3045 24.5328 38.0751 24.6865L37.243 25.2432C37.0137 25.3963 36.7014 25.3339 36.4989 25.1465C36.1941 24.8644 35.7386 24.5622 35.1034 24.2725C34.1916 23.8566 33.0169 23.5153 31.663 23.291C30.3127 23.0673 28.8429 22.9693 27.372 23.0078C26.4355 23.0324 25.5198 23.1112 24.6542 23.2402L33.8427 32.4287C35.753 32.0389 37.4576 31.4669 38.8661 30.7627C41.6552 29.3681 42.9999 27.6263 42.9999 26C42.9999 24.3737 41.6552 22.6319 38.8661 21.2373C36.1368 19.8728 32.2963 19 27.9999 19Z" fill="oklch(0.3523 0 0 / 1)" class="wd-expressive-fill"></path>
<path d="M14.3387 20.5791C14.5637 20.4194 14.8743 20.485 15.0253 20.7158L15.2987 21.1348L15.5712 21.5537C15.7218 21.7849 15.6554 22.0935 15.4315 22.2549C14.2451 23.1104 13.5296 24.0164 13.2059 24.8906C13.2003 24.9059 13.1947 24.9213 13.1893 24.9365C13.1376 25.0822 13.0986 25.2276 13.0682 25.3711C13.024 25.5821 12.9999 25.7918 12.9999 26C12.9999 27.6263 14.3447 29.3682 17.1337 30.7627C18.1867 31.2892 19.4056 31.7411 20.7518 32.0986C20.754 32.0992 20.7565 32.1 20.7587 32.1006C20.9565 32.1531 21.1571 32.2029 21.3593 32.251C22.5187 32.5266 23.7642 32.7333 25.0731 32.8584C25.4857 32.8981 25.9025 32.9313 26.3221 32.9541C26.5979 32.9691 26.8131 33.2016 26.8026 33.4775L26.7841 33.9766L26.7645 34.4766C26.754 34.7525 26.5217 34.9679 26.246 34.9531C25.5205 34.9143 24.8015 34.85 24.0936 34.7637C24.0751 34.7614 24.0564 34.7591 24.038 34.7568C23.9195 34.7422 23.8013 34.7259 23.6835 34.71C23.5764 34.6955 23.4694 34.6805 23.3632 34.665C23.2556 34.6493 23.1479 34.634 23.0409 34.6172C22.8399 34.5856 22.6401 34.5528 22.4423 34.5176C22.3692 34.5045 22.2962 34.4901 22.2235 34.4766C22.1489 34.4627 22.074 34.449 21.9999 34.4346V38.3945C22.6974 38.5413 23.4212 38.6647 24.1649 38.7598C26.6901 39.0824 29.3376 39.0803 31.8554 38.7568C32.1292 38.7216 32.3836 38.9105 32.4237 39.1836L32.5682 40.1729C32.6082 40.4461 32.4193 40.7008 32.1454 40.7363C29.4472 41.0861 26.6156 41.0888 23.911 40.7432C22.8925 40.613 21.9005 40.4341 20.9491 40.21C20.8896 40.1959 20.8305 40.1804 20.7714 40.166C20.6645 40.1401 20.5578 40.114 20.452 40.0869C20.3427 40.0589 20.2338 40.0302 20.1259 40.001C20.0297 39.975 19.9339 39.9479 19.8387 39.9209C19.7752 39.9029 19.7113 39.8856 19.6483 39.8672C19.4655 39.8138 19.2844 39.7581 19.1054 39.7012C19.0525 39.6843 18.9997 39.6666 18.9471 39.6494C18.8047 39.603 18.6632 39.5555 18.5233 39.5068C18.4883 39.4946 18.4527 39.4831 18.4178 39.4707C18.239 39.4074 18.0619 39.3424 17.8876 39.2754C17.8533 39.2622 17.8192 39.2477 17.785 39.2344C17.6496 39.1815 17.5152 39.1274 17.3827 39.0723C17.3304 39.0505 17.2783 39.028 17.2264 39.0059C17.0719 38.94 16.9187 38.8736 16.7684 38.8047C16.763 38.8022 16.7573 38.7994 16.7518 38.7969C16.7315 38.7875 16.7105 38.7789 16.6903 38.7695C16.6847 38.7669 16.6792 38.7626 16.6737 38.7598C16.5268 38.6914 16.3813 38.6229 16.2391 38.5518C13.2375 37.0509 10.9999 34.7919 10.9999 32V26C10.9999 25.8376 11.0094 25.6772 11.0243 25.5186C11.0246 25.5128 11.0237 25.5068 11.0243 25.501C11.0258 25.4861 11.0285 25.4709 11.0302 25.4561C11.0389 25.3738 11.0498 25.2922 11.0624 25.2109C11.0656 25.1902 11.0676 25.1692 11.0712 25.1484L11.0858 25.0635C11.1798 24.5551 11.3488 24.0668 11.5829 23.6006L11.5897 23.6016C12.1586 22.4725 13.1127 21.4506 14.3387 20.5791ZM16.9999 36.6924C17.0444 36.7152 17.0884 36.7401 17.1337 36.7627C17.9868 37.1892 18.9495 37.5654 19.9999 37.8838V33.9658C18.9267 33.6696 17.9209 33.3153 16.9999 32.9082V36.6924ZM12.9999 32C12.9999 33.135 13.6562 34.3249 14.9999 35.415V31.8574C14.2517 31.3911 13.5744 30.8726 12.9999 30.3037V32Z" fill="oklch(0.3523 0 0 / 1)" class="wd-expressive-fill"></path>
</g>
</svg>