<svg role="presentation" width="56" height="56" viewBox="0 0 56 56" xmlns="http://www.w3.org/2000/svg" class="wd-expressive wd-expressive-heart-gear">
<g>
<path d="M37.6605 33.0758C37.8012 33.0576 37.9399 33.1133 38.0404 33.2135L39.0326 34.2047C39.1915 34.3636 39.4361 34.3951 39.6371 34.2946C39.6709 34.2776 39.7055 34.2612 39.7396 34.2447C39.2648 35.2291 38.9994 36.3336 38.9994 37.4996C38.9994 38.8701 39.3691 40.1539 40.0111 41.2594C40.1354 42.7085 41.2898 43.8619 42.7386 43.9869C43.8444 44.6293 45.1285 44.9995 46.4994 44.9996C47.664 44.9996 48.7669 44.7341 49.7503 44.2604C49.7342 44.2938 49.7192 44.3278 49.7025 44.361C49.6016 44.5618 49.6336 44.8074 49.7923 44.9664L50.7865 45.9596C50.887 46.0602 50.9415 46.1995 50.9232 46.3405C50.8406 46.9735 50.5568 47.5856 50.0707 48.0719C49.5842 48.5582 48.9714 48.843 48.3382 48.9254C48.1975 48.9435 48.0587 48.888 47.9584 48.7877L46.9632 47.7936C46.8042 47.6348 46.5596 47.6029 46.3587 47.7037C46.0396 47.8641 45.7068 48.0027 45.3636 48.1168C45.1507 48.188 45.0004 48.3835 45.0003 48.608V50.0123C45.0003 50.1546 44.9402 50.2918 44.8275 50.3785C44.3216 50.7676 43.6878 50.9994 43.0003 50.9996C42.3128 50.9995 41.6782 50.7677 41.1722 50.3785C41.0597 50.2918 41.0003 50.1544 41.0003 50.0123V48.608C41.0003 48.3834 40.8492 48.1878 40.6361 48.1168C40.2924 48.0027 39.9586 47.8642 39.639 47.7037C39.4381 47.6032 39.1934 47.6347 39.0345 47.7936L38.0404 48.7877C37.9399 48.8881 37.8013 48.9436 37.6605 48.9254C37.0276 48.8428 36.4153 48.5579 35.9291 48.0719C35.4428 47.5855 35.158 46.9727 35.0755 46.3395C35.0573 46.1987 35.112 46.0591 35.2123 45.9586L36.2045 44.9655C36.3633 44.8064 36.3951 44.5609 36.2943 44.36C36.134 44.0404 35.9961 43.7075 35.8822 43.3639C35.8114 43.1507 35.6156 42.9998 35.391 42.9996H33.9867C33.8448 42.9994 33.707 42.9403 33.6205 42.8278C33.2312 42.3217 33.0003 41.6875 33.0003 40.9996C33.0004 40.3118 33.2311 39.6775 33.6205 39.1715C33.707 39.059 33.8448 38.9999 33.9867 38.9996H35.391C35.6157 38.9995 35.8115 38.8488 35.8822 38.6354C35.9961 38.2913 36.1339 37.9582 36.2943 37.6383C36.3951 37.4372 36.3635 37.1919 36.2045 37.0328L35.2123 36.0416C35.112 35.9411 35.0572 35.8016 35.0755 35.6608C35.1581 35.0278 35.4428 34.4156 35.9291 33.9293C36.4154 33.4432 37.0276 33.1583 37.6605 33.0758Z" fill="oklch(0.3057 0.079 256.22 / 0.13)" class="wd-expressive-accent"></path>
<path d="M16.9398 10.0406C15.3718 10.4377 13.8609 11.1842 12.5228 12.2975C7.28803 16.6532 7.10266 24.6281 12.1293 29.2223L30.9232 46.3971L30.1898 47.068L30.1908 47.069L28.0003 49.0709L8.40464 31.1647C2.96487 26.1934 3.16512 17.563 8.82945 12.8492C11.2122 10.8667 14.1017 9.95939 16.9398 10.0406Z" fill="oklch(0.3057 0.079 256.22 / 0.13)" class="wd-expressive-accent"></path>
</g>
<g>
<path d="M43 36.9999C45.209 37.0001 47 38.7909 47 40.9999C47 43.2089 45.209 44.9997 43 44.9999C40.791 44.9998 39 43.209 39 40.9999C39 38.7909 40.791 37.0001 43 36.9999ZM43 38.9999C41.8956 39.0001 41 39.8954 41 40.9999C41 42.1044 41.8956 42.9998 43 42.9999C44.1044 42.9997 45 42.1044 45 40.9999C45 39.8955 44.1044 39.0001 43 38.9999Z" fill="oklch(0.3523 0 0 / 1)" class="wd-expressive-fill"></path>
<path d="M43 29.9999C43.9157 30 44.7628 30.3091 45.4375 30.8281C45.8272 31.128 46 31.5762 46 31.9872V33.0468C46.1699 33.1108 46.3375 33.1804 46.502 33.2548L47.252 32.5058C47.5063 32.2518 47.8739 32.071 48.2881 32.0722L48.4688 32.0849L48.7842 32.1386C49.5149 32.294 50.2117 32.6559 50.7783 33.2226C51.426 33.8703 51.806 34.6881 51.916 35.5322C51.9795 36.0198 51.7848 36.4582 51.4942 36.749L50.7442 37.498C50.8187 37.6624 50.8879 37.83 50.9522 37.9999H52.0127C52.3723 38 52.7606 38.1317 53.0527 38.4257L53.1719 38.5624L53.3565 38.8232C53.7634 39.4498 54 40.1986 54 40.9999L53.9854 41.3398C53.9192 42.1246 53.6261 42.8469 53.1719 43.4374C52.872 43.8271 52.4237 43.9998 52.0127 43.9999H50.9522C50.888 44.1697 50.8176 44.3367 50.7432 44.5009L51.4942 45.2519C51.7847 45.5426 51.9794 45.9812 51.916 46.4687C51.8062 47.3128 51.4263 48.1311 50.7783 48.7792C50.1307 49.4268 49.3129 49.8068 48.4688 49.9169C47.9811 49.9804 47.5427 49.7857 47.252 49.4951L46.5 48.7431C46.3361 48.8173 46.1693 48.8871 46 48.9511V50.0126C46 50.4237 45.8272 50.8718 45.4375 51.1718C44.7629 51.6907 43.9158 51.9998 43 51.9999C42.0844 51.9999 41.2373 51.6909 40.5625 51.1718C40.1727 50.8718 40 50.4238 40 50.0126V48.9511C39.8304 48.8871 39.6633 48.8174 39.499 48.7431L38.749 49.4941C38.4584 49.7851 38.0201 49.9803 37.5322 49.9169C36.7937 49.8207 36.0753 49.5174 35.4736 49.0097L35.2227 48.7792C34.5751 48.1316 34.1941 47.3135 34.084 46.4687C34.0205 45.9811 34.2145 45.5425 34.5049 45.2519L35.2549 44.5009C35.1807 44.3367 35.1117 44.1694 35.0479 43.9999H33.9883C33.5772 43.9999 33.1291 43.8279 32.8291 43.4384C32.375 42.8485 32.0813 42.1261 32.0147 41.3408L32 40.9999C32 40.0831 32.3099 39.2358 32.8291 38.5615L32.9483 38.4257C33.2405 38.1318 33.6286 37.9999 33.9883 37.9999H35.0479C35.1118 37.8302 35.1805 37.6625 35.2549 37.498L34.5059 36.749C34.2152 36.4582 34.0205 36.0199 34.084 35.5322L34.1377 35.2167C34.2931 34.486 34.6551 33.7893 35.2217 33.2226C35.8698 32.5746 36.6881 32.1948 37.5322 32.0849L37.7129 32.0722C38.0678 32.0713 38.3885 32.2044 38.6328 32.4023L38.749 32.5068L39.4971 33.2548C39.6618 33.1803 39.8299 33.1109 40 33.0468V31.9872C40 31.5761 40.1727 31.128 40.5625 30.8281L40.8233 30.6435C41.4499 30.2366 42.1988 30 43 29.9999ZM43 31.9999C42.6346 32 42.2938 32.0984 42 32.2685V33.3906C42 34.0756 41.544 34.6339 40.9502 34.831C40.6524 34.9298 40.3637 35.0495 40.0869 35.1884C39.5278 35.469 38.8109 35.3966 38.3262 34.912L37.5342 34.1201C37.2053 34.2074 36.8942 34.3783 36.6358 34.6367C36.3774 34.8951 36.2066 35.2058 36.1192 35.5341L36.9121 36.3271C37.3965 36.8117 37.4696 37.5289 37.1895 38.0878C37.0508 38.3643 36.9308 38.6523 36.832 38.9501C36.6352 39.5442 36.0766 39.9997 35.3916 39.9999H34.2695C34.0987 40.2942 34 40.6347 34 40.9999L34.0068 41.1699C34.0321 41.4709 34.1255 41.7518 34.2695 41.9999H35.3916C36.0336 42.0001 36.5648 42.4001 36.791 42.9394L36.832 43.0497L36.9102 43.2714C36.9919 43.491 37.0855 43.7048 37.1895 43.912C37.4696 44.4708 37.3972 45.1881 36.9131 45.6728L36.1192 46.4658C36.2067 46.7946 36.3778 47.1062 36.6367 47.3652L36.7627 47.4804C36.9932 47.675 37.2571 47.8071 37.5332 47.8808L38.3272 47.0878L38.4199 47.0009C38.868 46.6214 39.476 46.5549 39.9815 46.7617L40.0889 46.8105L40.2979 46.9111C40.5095 47.008 40.728 47.0938 40.9512 47.1679C41.5445 47.3652 42 47.9234 42 48.6083V49.7304C42.294 49.9007 42.6344 49.9999 43 49.9999C43.3655 49.9999 43.706 49.9008 44 49.7304V48.6083C44.0001 47.9231 44.4555 47.3651 45.0488 47.1679L45.2705 47.0898C45.4895 47.008 45.7038 46.9146 45.9111 46.8105L46.0176 46.7617C46.5228 46.555 47.1303 46.6212 47.5781 46.9999L47.6719 47.0868L48.4658 47.8808C48.7943 47.7934 49.1057 47.6237 49.3643 47.3652C49.6228 47.1066 49.7926 46.7949 49.8799 46.4658L49.0869 45.6728C48.6023 45.1881 48.5292 44.4706 48.8106 43.9111C48.9499 43.634 49.0701 43.346 49.169 43.0488L49.21 42.9394C49.4362 42.4005 49.9669 41.9999 50.6094 41.9999H51.7315C51.8748 41.7524 51.9679 41.4718 51.9932 41.1708L52 40.9999C52 40.6344 51.9017 40.2938 51.7315 39.9999H50.6094C49.9241 39.9999 49.3662 39.5443 49.169 38.9511C49.0702 38.6539 48.9499 38.3659 48.8106 38.0888C48.5292 37.5291 48.6021 36.8117 49.0869 36.3271L49.8799 35.5331C49.7924 35.2052 49.6223 34.8948 49.3643 34.6367C49.1056 34.378 48.7944 34.2074 48.4658 34.1201L47.6738 34.913C47.1892 35.3973 46.4721 35.4689 45.9131 35.1884C45.6363 35.0494 45.3477 34.9298 45.0498 34.831C44.4559 34.634 44 34.0758 44 33.3906V32.2685C43.7061 32.0983 43.3654 32 43 31.9999Z" fill="oklch(0.3523 0 0 / 1)" class="wd-expressive-fill"></path>
<path d="M28.2529 15.4023C32.4841 8.65811 41.6895 7.18885 47.8096 12.2812C47.9311 12.3823 48.0482 12.4874 48.1651 12.5917C48.1725 12.5976 48.1813 12.6019 48.1885 12.6083C48.3594 12.7616 48.5247 12.9191 48.6856 13.079C48.6945 13.088 48.704 13.0965 48.7129 13.1054C49.0515 13.4439 49.3653 13.7987 49.6592 14.164C49.7269 14.2481 49.7951 14.3315 49.8604 14.4169C49.924 14.5002 49.9845 14.5854 50.0459 14.6699C50.1026 14.7479 50.16 14.8252 50.2149 14.9042C50.2636 14.9745 50.3102 15.0461 50.3574 15.1171C50.4212 15.2131 50.4849 15.3089 50.5459 15.4062C50.5971 15.4877 50.6452 15.5709 50.6943 15.6533C50.746 15.7397 50.7982 15.8256 50.8477 15.913C50.8925 15.9922 50.9355 16.0723 50.9785 16.1523C51.025 16.2385 51.0708 16.3249 51.1152 16.412C51.1684 16.5163 51.2203 16.6211 51.2705 16.7265C51.3031 16.7949 51.3349 16.8637 51.3662 16.9326C51.4139 17.0372 51.4601 17.1423 51.5049 17.248C51.5382 17.3267 51.5698 17.406 51.6016 17.4853C51.6393 17.5794 51.6765 17.6736 51.7119 17.7685C51.7441 17.8545 51.7754 17.9407 51.8057 18.0273C51.8403 18.1263 51.874 18.2255 51.9063 18.3251C51.9343 18.4117 51.9602 18.4988 51.9863 18.5859C52.0145 18.6796 52.0433 18.7729 52.0693 18.8671C52.0918 18.9482 52.112 19.0298 52.1328 19.1113C52.162 19.2251 52.1917 19.3386 52.2178 19.4531C52.2253 19.4862 52.232 19.5195 52.2393 19.5527C52.2813 19.744 52.3181 19.9361 52.3516 20.1288C52.384 20.3155 52.4132 20.5026 52.4375 20.6904C52.496 21.1416 52.5302 21.5953 52.542 22.0497C52.5437 22.1155 52.5462 22.1812 52.5469 22.247C52.548 22.3427 52.5469 22.4384 52.5459 22.5341C52.5449 22.6315 52.5442 22.7288 52.541 22.8261C52.5376 22.9313 52.5304 23.0364 52.5244 23.1415C52.5196 23.2275 52.5153 23.3135 52.5088 23.3993C52.5009 23.5027 52.4908 23.6058 52.4805 23.7089C52.4717 23.7965 52.4636 23.8842 52.4531 23.9716C52.4406 24.0763 52.4262 24.1807 52.4111 24.2851C52.3989 24.3698 52.386 24.4545 52.3721 24.539C52.3546 24.6457 52.3356 24.752 52.3154 24.8583C52.3009 24.9353 52.2855 25.0121 52.2695 25.0888C52.2474 25.1954 52.225 25.302 52.2002 25.4081C52.1792 25.498 52.1558 25.5872 52.1328 25.6767C52.1086 25.7713 52.084 25.8658 52.0576 25.9599C52.0316 26.0527 52.0037 26.1449 51.9756 26.2372C51.9463 26.3334 51.9173 26.4297 51.8858 26.5253C51.8623 26.5966 51.8372 26.6673 51.8125 26.7382C51.7728 26.8522 51.7324 26.966 51.6895 27.079C51.6711 27.1274 51.6518 27.1754 51.6328 27.2236C51.5808 27.3556 51.5281 27.4875 51.4717 27.6181C51.4622 27.64 51.452 27.6616 51.4424 27.6835C51.0524 28.5727 50.5612 29.4288 49.9639 30.2314C49.7991 30.4528 49.4827 30.4865 49.2676 30.3134L48.8779 29.9999L48.4893 29.6865C48.2743 29.5133 48.2411 29.1991 48.4043 28.9765C48.6092 28.6972 48.7992 28.4101 48.9746 28.1171H48.9717C51.3667 24.1188 51.0237 18.948 48.0049 15.2978C47.673 14.8965 47.3095 14.5132 46.9131 14.1523C46.7885 14.0389 46.6612 13.9272 46.5303 13.8183C41.3408 9.50045 33.5352 10.7464 29.9473 16.4648L28 19.5683L26.0537 16.4648C22.466 10.7461 14.6594 9.50045 9.46974 13.8183C4.27129 18.1443 4.08768 26.0646 9.08009 30.6269L27.3252 47.3007C27.7014 47.6442 28.2742 47.6485 28.6563 47.3154L30.9561 45.2148C31.1599 45.0285 31.4758 45.0432 31.6621 45.247L32.3379 45.9853C32.5239 46.1891 32.5093 46.5051 32.3057 46.6913L30.2949 48.5283L30.0234 48.7773C30.0211 48.7794 30.018 48.781 30.0156 48.7831L29.9404 48.8525C29.9155 48.8752 29.8882 48.8943 29.8604 48.9111C28.7162 49.8187 27.0701 49.776 25.9766 48.7773L7.73048 32.1034C1.84308 26.7231 2.05999 17.3828 8.19044 12.2812C14.3106 7.18897 23.517 8.65803 27.7481 15.4023L28 15.8046L28.2529 15.4023Z" fill="oklch(0.3523 0 0 / 1)" class="wd-expressive-fill"></path>
<path d="M15.4756 13.0761C15.7601 13.0454 16 13.2743 16 13.5605V14.5693C15.9998 14.8325 15.7953 15.0489 15.5342 15.0829C14.2791 15.2464 13.0468 15.7384 11.9727 16.5839C10.3543 17.8585 9.43889 19.6571 9.23634 21.5234C9.20746 21.7896 8.98846 22.0009 8.72071 22.0009H7.71485C7.43214 22.0008 7.20436 21.7659 7.2295 21.4843C7.44762 19.0425 8.62222 16.6764 10.7363 15.0117C12.1625 13.8891 13.8071 13.2562 15.4756 13.0761Z" fill="oklch(0.3523 0 0 / 1)" class="wd-expressive-fill"></path>
</g>
</svg>