<svg role="presentation" width="56" height="56" viewBox="0 0 56 56" xmlns="http://www.w3.org/2000/svg" class="wd-expressive wd-expressive-dashboard-user-gear">
<g>
<path d="M13.001 27C15.5951 27 17.8808 28.3175 19.2275 30.3193C18.2403 30.7552 17.1495 31 16.001 31C13.7732 31 11.7591 30.0884 10.3086 28.6191C10.8417 27.9982 11.4738 27.4647 12.1816 27.0449C12.4508 27.0157 12.7241 27 13.001 27Z" fill="oklch(0.3057 0.079 256.22 / 0.13)" class="wd-expressive-accent"></path>
<path d="M42.0957 15C42.3335 15.0006 42.5393 15.169 42.5859 15.4023L42.8701 16.8262C43.4877 17.0495 44.0537 17.3813 44.5459 17.7969L45.9248 17.3311C46.1502 17.2552 46.3985 17.3488 46.5176 17.5547L47.6104 19.4473C47.7292 19.6535 47.6864 19.9159 47.5078 20.0732L46.4131 21.0332C46.4688 21.3472 46.5 21.67 46.5 22C46.5 22.331 46.4691 22.6549 46.4131 22.9697L47.5059 23.9297C47.6845 24.087 47.7273 24.3495 47.6084 24.5557L46.5166 26.4482C46.3975 26.6543 46.1484 26.7478 45.9229 26.6719L44.543 26.2051C44.0507 26.6202 43.4846 26.9509 42.8672 27.1738L42.583 28.5977C42.5363 28.8311 42.3308 28.9997 42.0928 29H39.9072C39.6691 28.9999 39.4638 28.8312 39.417 28.5977L39.1318 27.1729C38.5135 26.9495 37.9468 26.6183 37.4541 26.2021L36.0781 26.6689C35.8526 26.7452 35.6046 26.6513 35.4854 26.4453L34.3926 24.5527C34.2734 24.3463 34.3161 24.0841 34.4951 23.9268L35.5859 22.9668C35.5303 22.6529 35.5 22.3299 35.5 22C35.5 21.6687 35.5308 21.3445 35.5869 21.0293L34.4961 20.0713C34.3171 19.914 34.2744 19.6517 34.3936 19.4453L35.4854 17.5527C35.6046 17.3467 35.8535 17.2528 36.0791 17.3291L37.4561 17.7949C37.949 17.3791 38.5163 17.0482 39.1348 16.8252L39.4199 15.4023C39.4667 15.1687 39.6719 15 39.9102 15H42.0957ZM41.0029 20C39.8984 20 39.0029 20.8954 39.0029 22C39.0029 23.1046 39.8984 24 41.0029 24C42.107 23.9995 43.0029 23.1042 43.0029 22C43.0029 20.8958 42.107 20.0005 41.0029 20Z" fill="oklch(0.3057 0.079 256.22 / 0.13)" class="wd-expressive-accent"></path>
<path d="M14.001 21C15.6578 21 17.001 22.3431 17.001 24C17.001 24.3028 16.9545 24.5946 16.8711 24.8701C16.5956 24.9535 16.3037 25 16.001 25C14.3441 25 13.001 23.6569 13.001 22C13.001 21.697 13.0463 21.4046 13.1299 21.1289C13.4056 21.0454 13.698 21 14.001 21Z" fill="oklch(0.3057 0.079 256.22 / 0.13)" class="wd-expressive-accent"></path>
</g>
<g>
<path d="M19.5 39C19.7761 39 20 39.2239 20 39.5V40.5C20 40.7761 19.7761 41 19.5 41H8.5C8.22386 41 8 40.7761 8 40.5V39.5C8 39.2239 8.22386 39 8.5 39H19.5Z" fill="oklch(0.3523 0 0 / 1)" class="wd-expressive-fill"></path>
<path d="M23.5 35C23.7761 35 24 35.2239 24 35.5V36.5C24 36.7761 23.7761 37 23.5 37H8.5C8.22386 37 8 36.7761 8 36.5V35.5C8 35.2239 8.22386 35 8.5 35H23.5Z" fill="oklch(0.3523 0 0 / 1)" class="wd-expressive-fill"></path>
<path d="M16 14C20.9706 14 25 18.0294 25 23C25 27.9706 20.9706 32 16 32C11.0294 32 7 27.9706 7 23C7 18.0294 11.0294 14 16 14ZM16 27C14.381 27 12.9013 27.5928 11.7637 28.5723C12.9398 29.4678 14.4076 30 16 30C17.5918 30 19.0584 29.4672 20.2344 28.5723C19.097 27.5932 17.6185 27 16 27ZM16 16C12.134 16 9 19.134 9 23C9 24.5513 9.50534 25.9842 10.3594 27.1445C11.3192 26.2923 12.4724 25.6532 13.7461 25.3037C12.6922 24.5833 12 23.3729 12 22C12 19.7909 13.7909 18 16 18C18.2091 18 20 19.7909 20 22C20 23.3732 19.3072 24.5834 18.2529 25.3037C19.5267 25.653 20.6799 26.2923 21.6396 27.1445C22.4939 25.9841 23 24.5515 23 23C23 19.134 19.866 16 16 16ZM16 20C14.8954 20 14 20.8954 14 22C14 23.1046 14.8954 24 16 24C17.1046 24 18 23.1046 18 22C18 20.8954 17.1046 20 16 20Z" fill="oklch(0.3523 0 0 / 1)" class="wd-expressive-fill"></path>
<path d="M36.9395 37.1465C37.1347 36.9513 37.4512 36.9513 37.6465 37.1465L38.3535 37.8535C38.5487 38.0488 38.5487 38.3653 38.3535 38.5605L35.207 41.707C35.0195 41.8945 34.7652 42 34.5 42C34.2349 42 33.9805 41.8945 33.793 41.707L32.1465 40.0605C31.9513 39.8653 31.9513 39.5488 32.1465 39.3535L32.8535 38.6465C33.0488 38.4513 33.3653 38.4513 33.5605 38.6465L34.5 39.5859L36.9395 37.1465Z" fill="oklch(0.3523 0 0 / 1)" class="wd-expressive-fill"></path>
<path d="M49.5 38C49.7761 38 50 38.2239 50 38.5V39.5C50 39.7761 49.7761 40 49.5 40H40.5C40.2239 40 40 39.7761 40 39.5V38.5C40 38.2239 40.2239 38 40.5 38H49.5Z" fill="oklch(0.3523 0 0 / 1)" class="wd-expressive-fill"></path>
<path d="M41.0029 19C42.659 19.0006 44.0029 20.3433 44.0029 22C44.0029 23.605 42.7417 24.9153 41.1572 24.9961L41.0029 25C39.3461 25 38.0029 23.6569 38.0029 22C38.0029 20.3431 39.3461 19 41.0029 19ZM41.0029 21C40.4506 21 40.0029 21.4477 40.0029 22C40.0029 22.5523 40.4506 23 41.0029 23L41.1055 22.9951C41.6094 22.9433 42.0029 22.5171 42.0029 22C42.0029 21.4829 41.6094 21.0567 41.1055 21.0049L41.0029 21Z" fill="oklch(0.3523 0 0 / 1)" class="wd-expressive-fill"></path>
<path d="M42.2295 14.0059C42.8858 14.0648 43.435 14.5494 43.5664 15.2061L43.7451 16.1064C44.0919 16.2684 44.422 16.4602 44.7314 16.6777L45.6055 16.3838C46.2825 16.1557 47.0257 16.4366 47.3828 17.0537L47.3838 17.0547L48.4766 18.9473L48.5381 19.0654C48.8154 19.6622 48.672 20.3808 48.168 20.8242L48.167 20.8252L47.4736 21.4316C47.4904 21.6181 47.5 21.8076 47.5 22C47.5 22.1928 47.4904 22.383 47.4736 22.5703L48.166 23.1787L48.2617 23.2705C48.7178 23.7489 48.8087 24.4766 48.4746 25.0557L47.3828 26.9482C47.0475 27.5285 46.3709 27.8112 45.7305 27.6562L45.6025 27.6191L44.7285 27.3232C44.4189 27.5405 44.0888 27.7319 43.7422 27.8936L43.5635 28.793C43.4322 29.4491 42.8833 29.9358 42.2256 29.9941L42.0928 30H39.9062C39.1912 29.9994 38.5767 29.4938 38.4365 28.7939L38.2559 27.8916C37.9089 27.7297 37.5785 27.5381 37.2686 27.3203L36.3994 27.6162C35.7213 27.8455 34.9772 27.563 34.6201 26.9463L34.6191 26.9453L33.5264 25.0527C33.1698 24.4351 33.2966 23.649 33.835 23.1758L34.5254 22.5674C34.5089 22.3808 34.5 22.1916 34.5 22C34.5 21.8066 34.5086 21.6157 34.5254 21.4277L33.8359 20.8223C33.2976 20.3491 33.1708 19.5629 33.5273 18.9453L34.6191 17.0527L34.6914 16.9404C35.0453 16.4367 35.6736 16.1998 36.2715 16.3447L36.3994 16.3818L37.2705 16.6758C37.5808 16.4581 37.9116 16.2662 38.2588 16.1045L38.4395 15.2061L38.4707 15.0771C38.6562 14.4451 39.2386 14 39.9102 14H42.0967L42.2295 14.0059ZM40.1152 17.0215L40.0049 17.5742L39.4736 17.7656C38.9686 17.9477 38.5044 18.219 38.1006 18.5596L37.6699 18.9229L36.1465 18.4072L35.4639 19.5908L36.6699 20.6494L36.5713 21.2051C36.5249 21.4656 36.5 21.7309 36.5 22C36.5 22.2685 36.5244 22.533 36.5703 22.792L36.6689 23.3457L35.4629 24.4062L36.1455 25.5889L37.1328 25.2549L37.668 25.0732L38.0996 25.4385C38.4528 25.7367 38.8519 25.9816 39.2842 26.1602L39.4717 26.2324L40.002 26.4238L40.3174 28H41.6826L41.9971 26.4248L42.5273 26.2334C43.0311 26.0515 43.4948 25.7808 43.8984 25.4404L44.3291 25.0771L45.8545 25.5928L46.5371 24.4092L45.3301 23.3496L45.4287 22.7949C45.4751 22.5342 45.5 22.2686 45.5 22C45.5 21.7333 45.475 21.469 45.4287 21.208L45.3301 20.6533L46.5391 19.5918L45.8555 18.4092L44.332 18.9248L43.9004 18.5605C43.4965 18.2195 43.0334 17.9486 42.5303 17.7666L42 17.5752L41.6855 16H40.3203L40.1152 17.0215Z" fill="oklch(0.3523 0 0 / 1)" class="wd-expressive-fill"></path>
<path d="M51 10C52.6569 10 54 11.3431 54 13V43C54 44.6569 52.6569 46 51 46H5C3.34315 46 2 44.6569 2 43V13C2 11.3431 3.34315 10 5 10H51ZM5 12C4.44772 12 4 12.4477 4 13V43C4 43.5523 4.44772 44 5 44H28V12H5ZM30 44H51C51.5523 44 52 43.5523 52 43V34H30V44ZM30 32H52V13C52 12.4477 51.5523 12 51 12H30V32Z" fill="oklch(0.3523 0 0 / 1)" class="wd-expressive-fill"></path>
</g>
</svg>