<svg role="presentation" width="56" height="56" viewBox="0 0 56 56" xmlns="http://www.w3.org/2000/svg" class="wd-expressive wd-expressive-procurement">
<g>
<path d="M16 41C18.6892 41 21.1424 42.0112 23 43.6738V44.1387C21.1961 45.9077 18.7261 47 16 47C13.2739 47 10.8039 45.9077 9 44.1387V43.6738C10.8576 42.0112 13.3108 41 16 41Z" fill="oklch(0.3057 0.079 256.22 / 0.13)" class="wd-expressive-accent"></path>
<path d="M37 42C38.1046 42 39 42.8954 39 44C39 45.1046 38.1046 46 37 46C35.8954 46 35 45.1046 35 44C35 42.8954 35.8954 42 37 42Z" fill="oklch(0.3057 0.079 256.22 / 0.13)" class="wd-expressive-accent"></path>
<path d="M33 41.5C33 41.7761 33.2239 42 33.5 42H35.75C33.4539 43.2738 30.8119 44 28 44C26.5014 44 25.0514 43.7925 23.6758 43.4072C24.5562 42.3536 25.2217 41.1162 25.6104 39.7607C26.3827 39.9168 27.1816 40 28 40C29.7851 40 31.4774 39.6063 33 38.9072V41.5Z" fill="oklch(0.3057 0.079 256.22 / 0.13)" class="wd-expressive-accent"></path>
<path d="M49.4424 34C50.1938 34.0001 50.882 34.4215 51.2236 35.0908L52.7812 38.1436C52.9249 38.425 53 38.7368 53 39.0527V41.5C53 41.7761 52.7761 42 52.5 42H47V34H49.4424ZM49 42C50.1046 42 51 42.8954 51 44C51 45.1046 50.1046 46 49 46C47.8954 46 47 45.1046 47 44C47 42.8954 47.8954 42 49 42Z" fill="oklch(0.3057 0.079 256.22 / 0.13)" class="wd-expressive-accent"></path>
<path d="M16 32C17.6569 32 19 33.3431 19 35C19 36.6569 17.6569 38 16 38C14.3431 38 13 36.6569 13 35C13 33.3431 14.3431 32 16 32Z" fill="oklch(0.3057 0.079 256.22 / 0.13)" class="wd-expressive-accent"></path>
<path d="M35 13.6094C40.3283 16.206 44 21.6739 44 28C44 29.0255 43.9021 30.0282 43.7178 31H39.6221C39.8689 30.0411 40 29.0359 40 28C40 23.9857 38.0271 20.4343 35 18.2559V13.6094Z" fill="oklch(0.3057 0.079 256.22 / 0.13)" class="wd-expressive-accent"></path>
<path d="M21 18.2559C18.2266 20.2518 16.3378 23.3997 16.041 27.001C16.0273 27.0009 16.0137 27 16 27C14.5783 27 13.2265 27.2982 12.002 27.833C12.0659 21.5778 15.7187 16.1832 21 13.6094V18.2559Z" fill="oklch(0.3057 0.079 256.22 / 0.13)" class="wd-expressive-accent"></path>
</g>
<g>
<path d="M16 31C18.2091 31 20 32.7909 20 35C20 37.2091 18.2091 39 16 39C13.7909 39 12 37.2091 12 35C12 32.7909 13.7909 31 16 31ZM16 33C14.8954 33 14 33.8954 14 35C14 36.1046 14.8954 37 16 37C17.1046 37 18 36.1046 18 35C18 33.8954 17.1046 33 16 33Z" fill="oklch(0.3523 0 0 / 1)" class="wd-expressive-fill"></path>
<path d="M26.5 15C26.7761 15 27 15.2239 27 15.5V16.5C27 16.7761 26.7761 17 26.5 17H24.5C24.2239 17 24 16.7761 24 16.5V15.5C24 15.2239 24.2239 15 24.5 15H26.5Z" fill="oklch(0.3523 0 0 / 1)" class="wd-expressive-fill"></path>
<path d="M31.5 15C31.7761 15 32 15.2239 32 15.5V16.5C32 16.7761 31.7761 17 31.5 17H29.5C29.2239 17 29 16.7761 29 16.5V15.5C29 15.2239 29.2239 15 29.5 15H31.5Z" fill="oklch(0.3523 0 0 / 1)" class="wd-expressive-fill"></path>
<path d="M26.5 12C26.7761 12 27 12.2239 27 12.5V13.5C27 13.7761 26.7761 14 26.5 14H24.5C24.2239 14 24 13.7761 24 13.5V12.5C24 12.2239 24.2239 12 24.5 12H26.5Z" fill="oklch(0.3523 0 0 / 1)" class="wd-expressive-fill"></path>
<path d="M31.5 12C31.7761 12 32 12.2239 32 12.5V13.5C32 13.7761 31.7761 14 31.5 14H29.5C29.2239 14 29 13.7761 29 13.5V12.5C29 12.2239 29.2239 12 29.5 12H31.5Z" fill="oklch(0.3523 0 0 / 1)" class="wd-expressive-fill"></path>
<path d="M26.5 9C26.7761 9 27 9.22386 27 9.5V10.5C27 10.7761 26.7761 11 26.5 11H24.5C24.2239 11 24 10.7761 24 10.5V9.5C24 9.22386 24.2239 9 24.5 9H26.5Z" fill="oklch(0.3523 0 0 / 1)" class="wd-expressive-fill"></path>
<path d="M31.5 9C31.7761 9 32 9.22386 32 9.5V10.5C32 10.7761 31.7761 11 31.5 11H29.5C29.2239 11 29 10.7761 29 10.5V9.5C29 9.22386 29.2239 9 29.5 9H31.5Z" fill="oklch(0.3523 0 0 / 1)" class="wd-expressive-fill"></path>
<path d="M26.5 6C26.7761 6 27 6.22386 27 6.5V7.5C27 7.77614 26.7761 8 26.5 8H24.5C24.2239 8 24 7.77614 24 7.5V6.5C24 6.22386 24.2239 6 24.5 6H26.5Z" fill="oklch(0.3523 0 0 / 1)" class="wd-expressive-fill"></path>
<path d="M31.5 6C31.7761 6 32 6.22386 32 6.5V7.5C32 7.77614 31.7761 8 31.5 8H29.5C29.2239 8 29 7.77614 29 7.5V6.5C29 6.22386 29.2239 6 29.5 6H31.5Z" fill="oklch(0.3523 0 0 / 1)" class="wd-expressive-fill"></path>
<path d="M34.5 2C35.3284 2 36 2.67157 36 3.5V12.9971C41.3555 15.8588 45 21.5035 45 28C45 28.6767 44.9596 29.344 44.8828 30H46.5C47.3284 30 48 30.6716 48 31.5V33H49.4424C50.5695 33.0001 51.6017 33.6319 52.1143 34.6357L53.6719 37.6885C53.8874 38.1108 54 38.5786 54 39.0527V41.5C54 42.3284 53.3284 43 52.5 43H51.8262C51.9369 43.3131 52 43.649 52 44C52 45.6569 50.6569 47 49 47C47.3431 47 46 45.6569 46 44C46 43.649 46.0631 43.3131 46.1738 43H39.8262C39.9369 43.3131 40 43.649 40 44C40 45.6569 38.6569 47 37 47C35.3431 47 34 45.6569 34 44C34 43.9683 34.0029 43.9367 34.0039 43.9053C32.1368 44.6109 30.1141 45 28 45C26.6279 45 25.2945 44.8346 24.0166 44.5273C22.01 46.6635 19.1621 48 16 48C9.92487 48 5 43.0751 5 37C5 32.7177 7.44844 29.0096 11.0205 27.1924C11.3084 21.0378 14.8677 15.7396 20 12.9971V3.5C20 2.67157 20.6716 2 21.5 2H34.5ZM16 42C13.842 42 11.8538 42.7187 10.2588 43.9307C11.8169 45.2228 13.8176 46 16 46C18.1821 46 20.1822 45.2226 21.7402 43.9307C20.1453 42.719 18.1577 42 16 42ZM37 43C36.4477 43 36 43.4477 36 44C36 44.5523 36.4477 45 37 45C37.5523 45 38 44.5523 38 44C38 43.4477 37.5523 43 37 43ZM49 43C48.4477 43 48 43.4477 48 44C48 44.5523 48.4477 45 49 45C49.5523 45 50 44.5523 50 44C50 43.4477 49.5523 43 49 43ZM36 20.5C36 21.3284 35.3284 22 34.5 22H21.5C20.6716 22 20 21.3284 20 20.5V15.3115C16.2218 17.6987 13.5831 21.7249 13.0859 26.3926C14.0142 26.1381 14.9909 26 16 26C22.0751 26 27 30.9249 27 37C27 39.1152 26.4009 41.0896 25.3662 42.7666C26.2214 42.9186 27.1012 43 28 43C29.4887 43 30.9258 42.7802 32.2832 42.376C32.1336 42.1684 32.035 41.9215 32.0078 41.6533L32 41.5V31.5C32 30.6716 32.6716 30 33.5 30H42.8672C42.9543 29.3457 43 28.6781 43 28C43 22.6571 40.206 17.9677 36 15.3105V20.5ZM16 28C11.0294 28 7 32.0294 7 37C7 39.0643 7.69652 40.965 8.86523 42.4834C10.8257 40.9303 13.3048 40 16 40C18.695 40 21.1734 40.9306 23.1338 42.4834C24.3027 40.9649 25 39.0645 25 37C25 32.0294 20.9706 28 16 28ZM34 41H46V32H34V41ZM48 41H52V39.0527C52 38.8947 51.9625 38.7384 51.8906 38.5977L50.333 35.5449C50.1622 35.2105 49.8179 35.0001 49.4424 35H48V41ZM22 20H34V4H22V20Z" fill="oklch(0.3523 0 0 / 1)" class="wd-expressive-fill"></path>
</g>
</svg>