<svg role="presentation" width="56" height="56" viewBox="0 0 56 56" xmlns="http://www.w3.org/2000/svg" class="wd-expressive wd-expressive-package-conveyor">
<g>
<path d="M16 33.5C16 33.7761 16.2239 34 16.5 34H39.5C39.7761 34 40 33.7761 40 33.5V31.5C40 31.2239 40.2239 31 40.5 31H41.3984C41.9556 31.0001 42.4878 31.2327 42.8662 31.6416L49.9316 39.2783C49.2012 38.4917 48.1581 37.9991 47 37.999C44.7911 37.9993 43 39.79 43 41.999C43 44.139 44.6806 45.8868 46.7939 45.9941L46.9995 45.999L28 46C30.2091 46 32 44.2091 32 42C32 39.7909 30.2091 38 28 38C25.7911 38.0002 24 39.791 24 42C24 44.209 25.7911 45.9998 28 46H9C11.2091 46 13 44.2091 13 42C13 39.7909 11.2091 38 9 38C7.83997 38.0001 6.79501 38.4942 6.06445 39.2832L13.1338 31.6416C13.5122 31.2327 14.0444 31.0002 14.6016 31H15.5C15.7761 31 16 31.2239 16 31.5V33.5Z" fill="oklch(0.3057 0.079 256.22 / 0.13)" class="wd-expressive-accent"></path>
<path d="M39.2232 12.1604C39.5194 12.4806 39.2924 13 38.8562 13H17.1438C16.7076 13 16.4806 12.4806 16.7768 12.1604L20.4775 8.16044C20.5722 8.05815 20.7052 8 20.8446 8H35.1554C35.2948 8 35.4278 8.05815 35.5225 8.16044L39.2232 12.1604Z" fill="oklch(0.3057 0.079 256.22 / 0.13)" class="wd-expressive-accent"></path>
</g>
<path d="M34.501 7C35.3369 7.00015 36.1354 7.3493 36.7031 7.96289L40.2031 11.7461C40.7159 12.3005 41.001 13.028 41.001 13.7832V30H41.3984C42.2339 30.0001 43.0334 30.3488 43.6016 30.9629L50.6709 38.6035C50.6744 38.6073 50.6773 38.6115 50.6807 38.6152C51.4997 39.5057 52 40.6938 52 41.999C52 44.7604 49.7614 46.999 47 46.999L9 47C6.23874 46.9998 4 44.7613 4 42C4 40.6842 4.50897 39.4875 5.33984 38.5947L12.4004 30.9629C12.9681 30.3496 13.7666 30 14.6025 30H15.001V13.7832C15.001 13.028 15.286 12.3005 15.7988 11.7461L19.2979 7.96289C19.8656 7.3492 20.664 7.00011 21.5 7H34.501ZM9 39C8.86794 39 8.7379 39.0088 8.61035 39.0254C8.53056 39.0357 8.45171 39.0489 8.37402 39.0654C7.01782 39.3535 6 40.5579 6 42C6 43.6567 7.34331 44.9998 9 45C10.6569 45 12 43.6569 12 42C12 40.3431 10.6569 39 9 39ZM13 39C13.6278 39.8357 14 40.8742 14 42C14 43.1258 13.6278 44.1643 13 45H24.001C23.3731 44.1643 23 43.1258 23 42C23 40.8742 23.3731 39.8357 24.001 39H13ZM28 39C26.3433 39.0002 25 40.3433 25 42C25 43.6567 26.3433 44.9998 28 45C29.6569 45 31 43.6569 31 42C31 40.3431 29.6569 39 28 39ZM32 39C32.6278 39.8357 33 40.8742 33 42C33 43.1258 32.6278 44.1643 32 45H43.001C42.3727 44.1641 42 43.1252 42 41.999C42 40.8739 42.3718 39.8355 42.999 39H32ZM47 39H46.9609C45.3222 39.021 44 40.3553 44 41.999C44 43.6558 45.3432 44.9989 47 44.999C48.6569 44.999 50 43.6559 50 41.999C50 41.1872 49.6762 40.4522 49.1523 39.9121C49.1259 39.8848 49.0987 39.8583 49.0713 39.832C48.5327 39.3171 47.804 39 47 39ZM14.6025 32L14.499 32.0059C14.2589 32.0309 14.0348 32.1423 13.8691 32.3213L9.53906 36.999H46.4609L42.1328 32.3203C41.944 32.1165 41.6775 32.0001 41.3984 32H41.001L40.9971 32.1543C40.9168 33.7394 39.606 34.9999 38.001 35H18.001C16.3441 35 15.001 33.6569 15.001 32H14.6025ZM17.001 32C17.001 32.5523 17.4487 33 18.001 33H38.001C38.5532 32.9999 39.001 32.5522 39.001 32V14H17.001V32ZM21.5 9C21.2215 9.00011 20.9558 9.11684 20.7666 9.32129L18.2881 12H27V9H21.5ZM29 12H37.7129L35.2344 9.32129C35.0452 9.11684 34.7795 9.00015 34.501 9H29V12Z" fill="oklch(0.3523 0 0 / 1)" class="wd-expressive-fill"></path>
</svg>