<svg role="presentation" width="56" height="56" viewBox="0 0 56 56" xmlns="http://www.w3.org/2000/svg" class="wd-expressive wd-expressive-escalator">
<g>
<path d="M51.9785 19.832C52.6309 21.0782 53 22.496 53 24C53 25.504 52.6309 26.9218 51.9785 28.168C51.3189 29.428 49.8949 30 48.4727 30H44.3994C43.4843 30 42.5859 30.2507 41.8037 30.7256L17.3916 45.5479C15.8272 46.4976 14.0323 47 12.2021 47H7.52734C6.10511 47 4.68115 46.428 4.02148 45.168C3.5591 44.2848 3.239 43.3153 3.0918 42.29C3.77779 43.4642 5.15232 44 6.52734 44H11.2021C13.0323 44 14.8272 43.4976 16.3916 42.5479L40.8037 27.7256C41.5859 27.2507 42.4843 27 43.3994 27H47.4727C48.8949 27 50.3189 26.428 50.9785 25.168C51.6309 23.9218 52 22.504 52 21C52 20.5619 51.9677 20.1313 51.9072 19.71C51.9309 19.7504 51.9565 19.7901 51.9785 19.832Z" fill="oklch(0.3057 0.079 256.22 / 0.13)" class="wd-expressive-accent"></path>
<path d="M19.5 21C21.2135 21 22.7832 21.6155 24 22.6377V24.8115L15.4551 30H15V22.6377C16.2168 21.6155 17.7865 21 19.5 21Z" fill="oklch(0.3057 0.079 256.22 / 0.13)" class="wd-expressive-accent"></path>
<path d="M32.5 13C34.2135 13 35.7832 13.6155 37 14.6377V16.9189L28.6318 22H28V14.6377C29.2168 13.6155 30.7865 13 32.5 13Z" fill="oklch(0.3057 0.079 256.22 / 0.13)" class="wd-expressive-accent"></path>
<path d="M19.5 15C20.8807 15 22 16.1193 22 17.5C22 18.8807 20.8807 20 19.5 20C18.1193 20 17 18.8807 17 17.5C17 16.1193 18.1193 15 19.5 15Z" fill="oklch(0.3057 0.079 256.22 / 0.13)" class="wd-expressive-accent"></path>
<path d="M32.5 7C33.8807 7 35 8.11929 35 9.5C35 10.8807 33.8807 12 32.5 12C31.1193 12 30 10.8807 30 9.5C30 8.11929 31.1193 7 32.5 7Z" fill="oklch(0.3057 0.079 256.22 / 0.13)" class="wd-expressive-accent"></path>
</g>
<g>
<path d="M48.4727 17C50.1155 17 51.9716 17.6631 52.8643 19.3682C53.5898 20.754 54 22.3305 54 24C54 25.6695 53.5898 27.246 52.8643 28.6318C51.9716 30.3369 50.1155 31 48.4727 31H44.3994C43.6673 31 42.949 31.2011 42.3232 31.5811L17.9111 46.4023C16.1903 47.4471 14.2153 48 12.2021 48H7.52734C5.88447 48 4.02843 47.3369 3.13574 45.6318C2.41021 44.246 2 42.6695 2 41C2 39.3305 2.41021 37.754 3.13574 36.3682C4.02843 34.6631 5.88447 34 7.52734 34H11.6006C12.3327 34 13.051 33.7989 13.6768 33.4189L38.0889 18.5977C39.8097 17.5529 41.7847 17 43.7979 17H48.4727ZM43.7979 19C42.1507 19 40.5349 19.4518 39.127 20.3066L14.7148 35.1289C13.7762 35.6988 12.6987 36 11.6006 36H7.52734C6.32576 36 5.33387 36.481 4.90723 37.2959C4.328 38.4023 4 39.6614 4 41L4.00391 41.25C4.04207 42.4953 4.3642 43.6668 4.90723 44.7041C5.33387 45.519 6.32576 46 7.52734 46H12.2021C13.8493 46 15.4651 45.5482 16.873 44.6934L41.2852 29.8711C42.2238 29.3012 43.3013 29 44.3994 29H48.4727C49.6742 29 50.6661 28.519 51.0928 27.7041C51.672 26.5977 52 25.3386 52 24C52 22.6614 51.672 21.4023 51.0928 20.2959C50.6661 19.481 49.6742 19 48.4727 19H43.7979Z" fill="oklch(0.3523 0 0 / 1)" class="wd-expressive-fill"></path>
<path d="M19.5 14C21.433 14 23 15.567 23 17.5C23 18.6366 22.4576 19.6458 21.6182 20.2852C22.6571 20.5698 23.6125 21.0572 24.4365 21.7041C24.8081 21.9958 25 22.4346 25 22.8711V24.5C25 24.7761 24.7761 25 24.5 25H23.5C23.2239 25 23 24.7761 23 24.5V23.125C22.015 22.4163 20.8072 22 19.5 22C18.1928 22 16.985 22.4163 16 23.125V29.5C16 29.7761 15.7761 30 15.5 30H14.5C14.2239 30 14 29.7761 14 29.5V22.8711C14 22.4346 14.1919 21.9958 14.5635 21.7041C15.3873 21.0574 16.3422 20.5699 17.3809 20.2852C16.5418 19.6458 16 18.6363 16 17.5C16 15.567 17.567 14 19.5 14ZM19.5 16C18.6716 16 18 16.6716 18 17.5C18 18.3284 18.6716 19 19.5 19C20.3284 19 21 18.3284 21 17.5C21 16.6716 20.3284 16 19.5 16Z" fill="oklch(0.3523 0 0 / 1)" class="wd-expressive-fill"></path>
<path d="M32.5 6C34.433 6 36 7.567 36 9.5C36 10.6366 35.4576 11.6458 34.6182 12.2852C35.6571 12.5698 36.6125 13.0572 37.4365 13.7041C37.8081 13.9958 38 14.4346 38 14.8711V16.5C38 16.7761 37.7761 17 37.5 17H36.5C36.2239 17 36 16.7761 36 16.5V15.125C35.015 14.4163 33.8072 14 32.5 14C31.1928 14 29.985 14.4163 29 15.125V21.5C29 21.7761 28.7761 22 28.5 22H27.5C27.2239 22 27 21.7761 27 21.5V14.8711C27 14.4346 27.1919 13.9958 27.5635 13.7041C28.3873 13.0574 29.3422 12.5699 30.3809 12.2852C29.5418 11.6458 29 10.6363 29 9.5C29 7.567 30.567 6 32.5 6ZM32.5 8C31.6716 8 31 8.67157 31 9.5C31 10.3284 31.6716 11 32.5 11C33.3284 11 34 10.3284 34 9.5C34 8.67157 33.3284 8 32.5 8Z" fill="oklch(0.3523 0 0 / 1)" class="wd-expressive-fill"></path>
</g>
</svg>