<svg role="presentation" width="56" height="56" viewBox="0 0 56 56" xmlns="http://www.w3.org/2000/svg" class="wd-expressive wd-expressive-arrow-down-circle">
<path d="M28 4C41.2548 4 52 14.7452 52 28C52 41.2548 41.2548 52 28 52C14.7452 52 4 41.2548 4 28C4 14.7452 14.7452 4 28 4ZM28 9C17.5066 9 9 17.5066 9 28C9 38.4934 17.5066 47 28 47C38.4934 47 47 38.4934 47 28C47 17.5066 38.4934 9 28 9Z" fill="oklch(0.3057 0.079 256.22 / 0.13)" class="wd-expressive-accent"></path>
<g>
<path d="M28.5 16C28.776 16.0001 28.9999 16.224 29 16.5V36.3643C31.3496 33.9216 34.084 31.8649 37.1055 30.2861C37.35 30.1585 37.6513 30.2586 37.7754 30.5049L38.2246 31.3984C38.3485 31.6451 38.2483 31.945 38.0039 32.0732C34.441 33.9398 31.3023 36.5135 28.7773 39.6289C28.7526 39.6595 28.7251 39.6887 28.6973 39.7158C28.6846 39.7281 28.6704 39.7395 28.6572 39.751C28.6162 39.7868 28.5733 39.8211 28.5273 39.8496C28.5073 39.862 28.4857 39.8728 28.4648 39.8838C28.452 39.8905 28.4389 39.8981 28.4258 39.9043C28.3745 39.9284 28.3204 39.9468 28.2656 39.9619C28.2498 39.9663 28.2338 39.972 28.2178 39.9756C28.1608 39.9883 28.102 39.9945 28.043 39.9971C28.031 39.9976 28.0188 39.9989 28.0068 39.999H27.9922C27.9802 39.9989 27.968 39.9976 27.9561 39.9971C27.8966 39.9944 27.8376 39.9885 27.7803 39.9756C27.7618 39.9714 27.7437 39.9651 27.7256 39.96C27.708 39.9549 27.6901 39.9503 27.6729 39.9443C27.6178 39.9253 27.5645 39.9013 27.5137 39.873C27.4714 39.8496 27.4302 39.8235 27.3916 39.7939L27.3799 39.7852C27.3222 39.7398 27.2687 39.6869 27.2217 39.6289C24.6967 36.5136 21.558 33.9407 17.9951 32.0742C17.7509 31.9461 17.6519 31.646 17.7754 31.3994L18.2246 30.5059C18.3486 30.2592 18.6489 30.1593 18.8936 30.2871C21.9153 31.866 24.6501 33.9215 27 36.3643V16.5C27.0001 16.224 27.224 16.0001 27.5 16H28.5Z" fill="oklch(0.3523 0 0 / 1)" class="wd-expressive-fill"></path>
<path d="M28 3C41.8068 3.00018 52.9998 14.1932 53 28C52.9998 41.8068 41.8068 52.9998 28 53C14.1932 52.9998 3.0002 41.8068 3 28C3.0002 14.1932 14.1932 3.00018 28 3ZM28 5C15.2977 5.00018 5.0002 15.2977 5 28C5.0002 40.7023 15.2977 50.9998 28 51C40.7023 50.9998 50.9998 40.7023 51 28C50.9998 15.2977 40.7023 5.00018 28 5Z" fill="oklch(0.3523 0 0 / 1)" class="wd-expressive-fill"></path>
</g>
</svg>