<svg role="presentation" width="56" height="56" viewBox="0 0 56 56" xmlns="http://www.w3.org/2000/svg" class="wd-expressive wd-expressive-analytics-user">
<g>
<path d="M39.001 47C41.6848 47.0002 44.134 48.0072 45.9902 49.6641C44.5213 50.5119 42.8179 51 41 51C38.3167 50.9999 35.882 49.9409 34.0859 48.2207C35.5524 47.4424 37.2252 47 39.001 47Z" fill="oklch(0.3057 0.079 256.22 / 0.13)" class="wd-expressive-accent"></path>
<path d="M16 40C17.6569 40 19 41.3431 19 43C19 43.0812 18.9956 43.1616 18.9893 43.2412C18.4595 43.7117 17.7642 44 17 44C15.3431 44 14 42.6569 14 41C14 40.9185 14.0034 40.8377 14.0098 40.7578C14.5395 40.2873 15.2357 40 16 40Z" fill="oklch(0.3057 0.079 256.22 / 0.13)" class="wd-expressive-accent"></path>
<path d="M39.001 38C40.6575 38.0004 42.001 39.3434 42.001 41C42.001 41.3028 41.9536 41.5946 41.8701 41.8701C41.5947 41.9535 41.3026 42 41 42C39.3433 41.9999 38 40.6568 38 39C38 38.697 38.0454 38.4046 38.1289 38.1289C38.4047 38.0453 38.6979 38 39.001 38Z" fill="oklch(0.3057 0.079 256.22 / 0.13)" class="wd-expressive-accent"></path>
<path d="M6 21C7.65685 21 9 22.3431 9 24C9 24.0812 8.99559 24.1616 8.98926 24.2412C8.45953 24.7117 7.76425 25 7 25C5.34315 25 4 23.6569 4 22C4 21.9185 4.00338 21.8377 4.00977 21.7578C4.5395 21.2873 5.23572 21 6 21Z" fill="oklch(0.3057 0.079 256.22 / 0.13)" class="wd-expressive-accent"></path>
<path d="M26 21C27.6569 21 29 22.3431 29 24C29 24.0812 28.9956 24.1616 28.9893 24.2412C28.4595 24.7117 27.7642 25 27 25C25.3431 25 24 23.6569 24 22C24 21.9185 24.0034 21.8377 24.0098 21.7578C24.5395 21.2873 25.2357 21 26 21Z" fill="oklch(0.3057 0.079 256.22 / 0.13)" class="wd-expressive-accent"></path>
<path d="M42 21C43.6569 21 45 22.3431 45 24C45 24.0812 44.9956 24.1616 44.9893 24.2412C44.4595 24.7117 43.7642 25 43 25C41.3431 25 40 23.6569 40 22C40 21.9185 40.0034 21.8377 40.0098 21.7578C40.5395 21.2873 41.2357 21 42 21Z" fill="oklch(0.3057 0.079 256.22 / 0.13)" class="wd-expressive-accent"></path>
<path d="M13 6C14.6569 6 16 7.34315 16 9C16 9.08123 15.9956 9.16161 15.9893 9.24121C15.4595 9.71173 14.7642 10 14 10C12.3431 10 11 8.65685 11 7C11 6.91847 11.0034 6.8377 11.0098 6.75781C11.5395 6.28726 12.2357 6 13 6Z" fill="oklch(0.3057 0.079 256.22 / 0.13)" class="wd-expressive-accent"></path>
<path d="M34 6C35.6569 6 37 7.34315 37 9C37 9.08123 36.9956 9.16161 36.9893 9.24121C36.4595 9.71173 35.7642 10 35 10C33.3431 10 32 8.65685 32 7C32 6.91847 32.0034 6.8377 32.0098 6.75781C32.5395 6.28726 33.2357 6 34 6Z" fill="oklch(0.3057 0.079 256.22 / 0.13)" class="wd-expressive-accent"></path>
</g>
<g>
<path d="M41 35C43.2091 35 45 36.7909 45 39C45 41.2091 43.2091 43 41 43C38.7909 43 37 41.2091 37 39C37 36.7909 38.7909 35 41 35ZM41 37C39.8954 37 39 37.8954 39 39C39 40.1046 39.8954 41 41 41C42.1046 41 43 40.1046 43 39C43 37.8954 42.1046 37 41 37Z" fill="oklch(0.3523 0 0 / 1)" class="wd-expressive-fill"></path>
<path d="M41 30C47.0751 30 52 34.9249 52 41C52 47.0751 47.0751 52 41 52C34.9249 52 30 47.0751 30 41C30 34.9249 34.9249 30 41 30ZM41 46C38.842 46 36.8538 46.7187 35.2588 47.9307C36.8169 49.2228 38.8176 50 41 50C43.1821 50 45.1822 49.2226 46.7402 47.9307C45.1453 46.719 43.1577 46 41 46ZM41 32C36.0294 32 32 36.0294 32 41C32 43.0643 32.6965 44.965 33.8652 46.4834C35.8257 44.9303 38.3048 44 41 44C43.695 44 46.1734 44.9306 48.1338 46.4834C49.3027 44.9649 50 43.0645 50 41C50 36.0294 45.9706 32 41 32Z" fill="oklch(0.3523 0 0 / 1)" class="wd-expressive-fill"></path>
<path d="M35 3C37.2091 3 39 4.79086 39 7C39 8.16596 38.5 9.21418 37.7041 9.94531L42.0596 18.1113C42.3612 18.0386 42.6761 18 43 18C45.2091 18 47 19.7909 47 22C47 24.2091 45.2091 26 43 26C42.0364 26 41.1524 25.6593 40.4619 25.0918L20.7158 39.5215C20.898 39.979 21 40.4775 21 41C21 43.2091 19.2091 45 17 45C14.7909 45 13 43.2091 13 41C13 39.8261 13.5052 38.7698 14.3105 38.0381L7.91797 25.8926C7.6231 25.9618 7.31601 26 7 26C4.79086 26 3 24.2091 3 22C3 19.7909 4.79086 18 7 18C7.24954 18 7.49358 18.0237 7.73047 18.0674L11.4541 10.0859C10.5658 9.35227 10 8.24207 10 7C10 4.79086 11.7909 3 14 3C15.8638 3 17.43 4.27477 17.874 6H31.126C31.57 4.27477 33.1362 3 35 3ZM17 39C15.8954 39 15 39.8954 15 41C15 42.1046 15.8954 43 17 43C18.1046 43 19 42.1046 19 41C19 39.8954 18.1046 39 17 39ZM30.874 23C30.43 24.7252 28.8638 26 27 26C26.6826 26 26.3742 25.9615 26.0781 25.8916L19.8955 37.6436L39.2822 23.4756C39.221 23.3214 39.1679 23.1629 39.126 23H30.874ZM16.415 23L17.6543 37.0537C17.7426 37.0682 17.8298 37.0862 17.916 37.1064L24.3096 24.96C23.7419 24.4436 23.3232 23.7663 23.126 23H16.415ZM10.874 23C10.6766 23.767 10.257 24.4444 9.68848 24.9609L15.5664 36.1299L14.4082 23H10.874ZM7 20C5.89543 20 5 20.8954 5 22C5 23.1046 5.89543 24 7 24C8.10457 24 9 23.1046 9 22C9 20.8954 8.10457 20 7 20ZM27 20C25.8954 20 25 20.8954 25 22C25 23.1046 25.8954 24 27 24C28.1046 24 29 23.1046 29 22C29 20.8954 28.1046 20 27 20ZM43 20C41.8954 20 41 20.8954 41 22C41 23.1046 41.8954 24 43 24C44.1046 24 45 23.1046 45 22C45 20.8954 44.1046 20 43 20ZM29.7041 19.0527C30.2648 19.5675 30.6784 20.2399 30.874 21H38.8896L30.877 16.8555L29.7041 19.0527ZM16.001 18.3125L16.2383 21H23.126C23.2446 20.539 23.4439 20.1104 23.707 19.7295L20.4248 15.9424L16.001 18.3125ZM10.9854 21H14.2314L14.084 19.3389L10.9854 21ZM31.8184 15.0898L40.0195 19.332C40.1065 19.2349 40.198 19.1419 40.2939 19.0537L35.9385 10.8877C35.6374 10.9601 35.3233 11 35 11C34.6753 11 34.3599 10.9598 34.0576 10.8867L31.8184 15.0898ZM9.54199 18.9111C9.68312 19.0274 9.81551 19.1538 9.93945 19.2881L13.8936 17.1719L13.3438 10.9453C13.3179 10.9411 13.2922 10.9364 13.2666 10.9316L9.54199 18.9111ZM22.2344 14.9736L25.2188 18.418C25.7552 18.1507 26.36 18 27 18C27.3229 18 27.6367 18.0391 27.9375 18.1113L29.0996 15.9355L24.6934 13.6562L22.2344 14.9736ZM15.7793 10.582C15.6359 10.6534 15.4875 10.7155 15.335 10.7695L15.8096 16.1445L19.0811 14.3916L15.7793 10.582ZM26.8311 12.5107L30.041 14.1709L32.2939 9.94531C32.2122 9.87019 32.1338 9.79158 32.0586 9.70996L26.8311 12.5107ZM20.8906 13.4229L22.5371 12.541L18.168 10.2812L20.8906 13.4229ZM24.6748 11.3955L31.0146 8H18.1104L24.6748 11.3955ZM14 5C12.8954 5 12 5.89543 12 7C12 8.10457 12.8954 9 14 9C15.1046 9 16 8.10457 16 7C16 5.89543 15.1046 5 14 5ZM35 5C33.8954 5 33 5.89543 33 7C33 8.10457 33.8954 9 35 9C36.1046 9 37 8.10457 37 7C37 5.89543 36.1046 5 35 5Z" fill="oklch(0.3523 0 0 / 1)" class="wd-expressive-fill"></path>
</g>
</svg>