<svg role="presentation" width="56" height="56" viewBox="0 0 56 56" xmlns="http://www.w3.org/2000/svg" class="wd-expressive wd-expressive-donut-chart-user">
<g>
<path d="M24.4375 4.2642C24.7349 4.21995 24.9999 4.45283 25 4.75346V8.80912C25 9.05502 24.8201 9.26415 24.5781 9.30814C15.7181 10.9196 9.00015 18.6746 9 27.9996C9.00003 38.4929 17.5066 46.9995 28 46.9995C37.3252 46.9995 45.081 40.2817 46.6924 31.4214C46.7364 31.1796 46.9447 30.9996 47.1904 30.9996H51.248C51.5487 30.9996 51.7816 31.2646 51.7373 31.5621C50.0165 43.1276 40.0445 51.9995 28 51.9995C14.7452 51.9995 4 41.2544 4 27.9996C4.00023 15.9555 12.8724 5.9852 24.4375 4.2642Z" fill="oklch(0.3057 0.079 256.22 / 0.13)" class="wd-expressive-accent"></path>
<path d="M26.6309 34.0142C29.7611 34.1582 32.6138 35.3682 34.833 37.2896C34.9402 37.3826 35.0009 37.5187 35.001 37.6607V37.7427C33.0303 39.1612 30.6135 39.9995 28 39.9995C24.4219 39.9995 21.2122 38.431 19.0137 35.9468C21.0519 34.7115 23.4436 33.9996 26.001 33.9996L26.6309 34.0142Z" fill="oklch(0.3057 0.079 256.22 / 0.13)" class="wd-expressive-accent"></path>
<path d="M26.001 22.9996C28.2096 23.0001 30.0008 24.7909 30.001 26.9996C30.001 27.5858 29.8731 28.1424 29.6465 28.6441C29.1443 28.8713 28.5871 28.9995 28 28.9996C25.791 28.9994 24 27.2086 24 24.9996C24 24.4131 24.1267 23.8559 24.3535 23.354C24.8558 23.1268 25.4139 22.9996 26.001 22.9996Z" fill="oklch(0.3057 0.079 256.22 / 0.13)" class="wd-expressive-accent"></path>
</g>
<g>
<path d="M24.4609 3.25882C25.3017 3.22884 25.9998 3.91103 26 4.75296V8.80863C25.9999 9.55331 25.4586 10.1634 24.7568 10.291C16.3638 11.8176 10.0002 19.167 10 28L10.0059 28.4649C10.2527 38.191 18.2145 46 28 46C36.8329 46 44.1812 39.6361 45.708 31.2432L45.7373 31.1133C45.9123 30.4757 46.4923 30.0001 47.1904 30H51.248C52.1462 30 52.8623 30.7946 52.7266 31.709C50.9338 43.7572 40.5471 53 28 53C14.4088 53 3.35033 42.1542 3.00781 28.6455L3 28C3.00016 15.453 12.2429 5.06713 24.291 3.27445L24.4609 3.25882ZM24 5.34769C13.2046 7.2403 5.00016 16.6625 5 28L5.00781 28.5938C5.32289 41.0218 15.4961 51 28 51C39.3376 51 48.7595 42.7953 50.6523 32H47.5986C45.7448 41.1287 37.6763 48 28 48C16.9544 48 8.00028 39.0455 8 28C8.00015 18.3237 14.871 10.253 24 8.39945V5.34769Z" fill="oklch(0.3523 0 0 / 1)" class="wd-expressive-fill"></path>
<path d="M28 20C30.7614 20 33 22.2386 33 25C33 27.7615 30.7614 30 28 30C25.2386 30 23 27.7615 23 25C23 22.2386 25.2386 20 28 20ZM28 22C26.3432 22 25 23.3432 25 25C25 26.6569 26.3431 28 28 28C29.6569 28 31 26.6569 31 25C31 23.3432 29.6568 22 28 22Z" fill="oklch(0.3523 0 0 / 1)" class="wd-expressive-fill"></path>
<path d="M28 15C35.1797 15 41 20.8204 41 28C41 35.1797 35.1797 41 28 41C20.8203 41 15 35.1797 15 28C15 20.8204 20.8203 15 28 15ZM28 33C25.043 33 22.3307 34.0291 20.1904 35.7452C22.1835 37.7547 24.946 39 28 39C31.0537 39 33.8155 37.7545 35.8086 35.7452C33.6684 34.0294 30.9567 33 28 33ZM28 17C21.9249 17 17 21.9249 17 28C17 30.3006 17.7075 32.4355 18.915 34.2012L18.999 34.1319C21.4716 32.1718 24.6 31 28 31C31.4389 31 34.5984 32.2005 37.084 34.2012C38.2917 32.4354 39 30.3008 39 28C39 21.9249 34.0751 17 28 17Z" fill="oklch(0.3523 0 0 / 1)" class="wd-expressive-fill"></path>
<path d="M45.9736 12.8662C46.572 12.3869 47.4586 12.4311 47.9951 13.0078L48.1045 13.1397L48.541 13.7491C50.6822 16.8293 52.1498 20.4151 52.7266 24.292C52.8629 25.2094 52.1435 26 51.248 26H47.1904C46.4474 25.9999 45.8359 25.4614 45.708 24.7578C45.2429 22.2002 44.2366 19.8309 42.8115 17.7715C42.4046 17.1833 42.4564 16.3708 42.9814 15.8457L45.8506 12.9766L45.9736 12.8662ZM44.6826 16.9717C46.0727 19.0701 47.0789 21.4459 47.5977 24H50.6523C50.0609 20.6275 48.7341 17.5081 46.8428 14.8116L44.6826 16.9717Z" fill="oklch(0.3523 0 0 / 1)" class="wd-expressive-fill"></path>
<path d="M31.708 3.27445C35.8427 3.8895 39.6467 5.51638 42.8594 7.89457C43.6052 8.44672 43.6552 9.51526 43.0225 10.1485L40.1543 13.0166C39.6292 13.5417 38.8168 13.5936 38.2285 13.1866C36.1694 11.7618 33.7998 10.7561 31.2422 10.291C30.5387 10.1631 30.0001 9.55162 30 8.80863V4.75296C30.0002 3.85768 30.7908 3.13817 31.708 3.27445ZM32 8.40042C34.5534 8.91897 36.9291 9.92499 39.0273 11.3145L41.1855 9.15628C38.4896 7.26611 35.3717 5.93983 32 5.34867V8.40042Z" fill="oklch(0.3523 0 0 / 1)" class="wd-expressive-fill"></path>
</g>
</svg>