<svg role="presentation" width="56" height="56" viewBox="0 0 56 56" xmlns="http://www.w3.org/2000/svg" class="wd-expressive wd-expressive-rocket">
<g>
<path d="M48.64 7.19971C48.7639 7.27205 48.8481 7.39909 48.8626 7.5542C49.0857 9.93116 49.7332 22.2322 40.4994 31.4663C37.7583 34.2074 34.981 36.2354 32.4046 37.7368C32.5891 37.6293 32.7749 37.5197 32.9613 37.4067L32.4281 46.4829C32.3829 47.2503 32.1894 47.9891 31.8734 48.6665L28.306 50.8071C27.715 51.1611 26.9506 50.8257 26.8119 50.1509L24.9408 41.019C22.7971 41.6693 21.2691 41.884 20.721 41.9448C20.5773 41.9606 20.4406 41.9074 20.3382 41.8052L14.1947 35.6616C14.0922 35.5592 14.039 35.4219 14.055 35.2778C14.1071 34.8091 14.2709 33.6233 14.724 31.9487L21.5531 38.7778C24.3943 38.2304 31.4834 36.2401 38.3783 29.3452C47.3052 20.4181 45.9209 8.13721 45.847 7.55518L48.64 7.19971Z" fill="oklch(0.3057 0.079 256.22 / 0.13)" class="wd-expressive-accent"></path>
<path d="M10.0589 40.4194C10.2363 40.1883 10.575 40.1819 10.7005 40.4448C11.1955 41.4818 11.1344 43.3707 11.0599 44.3589C11.0353 44.6845 11.3144 44.9634 11.64 44.939C12.6282 44.8644 14.518 44.8033 15.555 45.2983C15.8177 45.424 15.8105 45.7627 15.5794 45.9399C14.8016 46.5365 13.9336 47.0215 12.9994 47.3706C11.9101 47.7776 10.7306 48.0005 9.49936 48.0005C9.15221 48.0005 8.80902 47.9816 8.47104 47.9468C8.24906 47.9239 8.07381 47.7489 8.05111 47.5269C8.01663 47.1894 7.99937 46.847 7.99936 46.5005C7.99936 45.2693 8.2213 44.0897 8.62826 43.0005C8.9774 42.0662 9.4623 41.1973 10.0589 40.4194Z" fill="oklch(0.3057 0.079 256.22 / 0.13)" class="wd-expressive-accent"></path>
<path d="M18.7142 22.8394C16.8309 25.9045 15.6981 28.7256 15.0208 30.9233L5.6683 29.0063C4.99352 28.8676 4.65805 28.1042 5.01205 27.5132L7.34604 23.6206C7.64659 23.5286 7.96081 23.4715 8.28158 23.4526L18.7142 22.8394Z" fill="oklch(0.3057 0.079 256.22 / 0.13)" class="wd-expressive-accent"></path>
<path d="M31.9994 19.0005C34.7606 19.0007 36.9994 21.2392 36.9994 24.0005C36.9993 24.8666 36.7775 25.6808 36.39 26.3911C35.6797 26.7787 34.8655 27.0004 33.9994 27.0005C31.238 27.0005 28.9995 24.7618 28.9994 22.0005C28.9994 21.1338 29.2198 20.3185 29.6078 19.6079C30.3181 19.2204 31.1332 19.0005 31.9994 19.0005Z" fill="oklch(0.3057 0.079 256.22 / 0.13)" class="wd-expressive-accent"></path>
</g>
<g>
<path d="M34.0004 16.0002C37.3139 16.0005 40.0004 18.6867 40.0004 22.0002C40.0002 25.3136 37.3138 28 34.0004 28.0002C30.6868 28.0002 28.0006 25.3138 28.0004 22.0002C28.0004 18.6865 30.6867 16.0002 34.0004 16.0002ZM34.0004 18.0002C31.7913 18.0002 30.0004 19.7911 30.0004 22.0002C30.0006 24.2092 31.7914 26.0002 34.0004 26.0002C36.2092 26 38.0002 24.2091 38.0004 22.0002C38.0004 19.7912 36.2093 18.0005 34.0004 18.0002Z" fill="oklch(0.3523 0 0 / 1)" class="wd-expressive-fill"></path>
<path d="M23.8266 14.7922C33.392 5.22714 46.0936 5.91036 48.5395 6.13987C49.2006 6.20192 49.7237 6.68789 49.8412 7.32932L49.8588 7.46018L49.9047 8.03537C50.1339 11.4807 50.1743 23.2052 41.2065 32.1731C39.7612 33.6183 38.3053 34.8707 36.8725 35.9563L36.4272 43.5412C36.2912 45.8496 35.0242 47.9422 33.0414 49.1321L28.8217 51.6643C27.6393 52.3729 26.1104 51.701 25.8334 50.3508L24.1781 42.2756C22.515 42.7175 21.3283 42.8836 20.8324 42.9387C20.361 42.991 19.9296 42.8103 19.6313 42.5119L13.4877 36.3684C13.1895 36.07 13.0086 35.6386 13.0609 35.1672L13.1127 34.7629C13.2014 34.1277 13.3871 33.0624 13.7602 31.6838L5.46817 29.9856C4.11687 29.7082 3.4467 28.1789 4.15567 26.9973L7.22989 21.8723C8.08004 20.4558 9.57549 19.5513 11.224 19.4543L20.1967 18.927C21.2467 17.5588 22.4485 16.1703 23.8266 14.7922ZM34.7826 37.4338C31.5502 39.5716 28.524 40.8897 26.101 41.6985L27.7924 49.9485L32.0121 47.4172C33.4283 46.5673 34.3339 45.0728 34.4311 43.424L34.7826 37.4338ZM47.9027 8.09592C44.7823 7.87778 33.6681 7.77986 25.2406 16.2072C16.9459 24.5022 15.3499 33.1072 15.0805 35.1321L20.8647 40.9172C22.8843 40.6489 31.4936 39.0576 39.7924 30.759C48.2207 22.3306 48.1209 11.2149 47.9027 8.09592ZM11.3412 21.4504C10.3516 21.5087 9.45452 22.0522 8.94474 22.9016L5.87052 28.0266L14.3461 29.7619C15.1753 27.312 16.5213 24.2634 18.6967 21.0168L11.3412 21.4504Z" fill="oklch(0.3523 0 0 / 1)" class="wd-expressive-fill"></path>
<path d="M10.9066 37.7658C11.0792 37.5504 11.3942 37.5153 11.6098 37.6877L12.391 38.3137C12.6059 38.4863 12.6413 38.8005 12.4691 39.0158L11.182 40.6252L11.1606 40.6506C10.4818 41.4435 9.93839 42.3557 9.56681 43.3498C9.20101 44.3288 9.00041 45.3903 9.0004 46.5002C9.00041 46.6632 9.00451 46.8257 9.01309 46.9865C9.1744 46.9953 9.33718 47.0002 9.5004 47.0002C10.6102 47.0002 11.6719 46.7996 12.6508 46.4338C13.6449 46.0622 14.5572 45.5197 15.35 44.841L15.3754 44.8196L16.9848 43.5315C17.2004 43.3591 17.5154 43.3941 17.6879 43.6096L18.3129 44.3918C18.4848 44.6074 18.4501 44.9216 18.2348 45.094L16.6264 46.3811H16.6234C15.6615 47.1994 14.5564 47.858 13.35 48.3088C13.0562 48.4186 12.7556 48.5141 12.4506 48.5989C12.4299 48.6046 12.4088 48.6098 12.3881 48.6155C12.2637 48.6492 12.1382 48.6807 12.0121 48.7102C11.971 48.7198 11.9294 48.7294 11.8881 48.7385C11.7826 48.7618 11.6763 48.7836 11.5697 48.8039C11.5169 48.814 11.4636 48.8239 11.4106 48.8332C11.3073 48.8513 11.2032 48.8679 11.099 48.883C11.0485 48.8904 10.9975 48.8978 10.9467 48.9045C10.8337 48.9194 10.7199 48.9322 10.6059 48.9436C10.5634 48.9478 10.5205 48.9525 10.4779 48.9563C10.3198 48.9702 10.1604 48.9823 10.0004 48.9895C9.99703 48.9896 9.99302 48.9885 9.98966 48.9885C9.82756 48.9956 9.66417 49.0002 9.5004 49.0002C9.11831 49.0002 8.7406 48.9799 8.36954 48.9416C7.67672 48.8701 7.12917 48.3227 7.05802 47.6291C7.02008 47.258 7.00041 46.8811 7.0004 46.5002C7.0004 46.3364 7.00405 46.1731 7.01114 46.011C7.01122 46.0079 7.01103 46.0043 7.01114 46.0012C7.01828 45.8417 7.0295 45.6823 7.04337 45.5246C7.0474 45.4788 7.05244 45.4327 7.05704 45.3869C7.06827 45.2753 7.08057 45.1636 7.09513 45.053C7.1018 45.0022 7.10924 44.9512 7.11661 44.9006C7.1317 44.7971 7.14845 44.6937 7.16641 44.591C7.17616 44.5354 7.18611 44.4794 7.19669 44.424C7.21624 44.3217 7.2378 44.2197 7.26016 44.1184C7.26999 44.0739 7.2791 44.0289 7.28946 43.9846C7.31581 43.872 7.34464 43.7599 7.37442 43.6487C7.38539 43.6077 7.3962 43.5664 7.40763 43.5256C7.437 43.4208 7.46899 43.3167 7.50138 43.2131C7.5155 43.168 7.52869 43.1223 7.54337 43.0774C7.59025 42.934 7.64023 42.7913 7.69278 42.6506C8.14372 41.444 8.80099 40.3373 9.61954 39.3752L10.9066 37.7658Z" fill="oklch(0.3523 0 0 / 1)" class="wd-expressive-fill"></path>
</g>
</svg>