<svg role="presentation" width="56" height="56" viewBox="0 0 56 56" xmlns="http://www.w3.org/2000/svg" class="wd-expressive wd-expressive-watch">
<g>
<path d="M35.4189 44.4697C35.7583 44.3196 36.1493 44.5625 36.1494 44.9336V50.5C36.1494 51 36.1494 53 28.1494 53C20.1495 53 20.1494 51 20.1494 50.5V44.9336C20.1496 44.5625 20.5405 44.3196 20.8799 44.4697C23.1031 45.4528 25.5622 46 28.1494 46C30.7366 46 33.1957 45.4528 35.4189 44.4697Z" fill="oklch(0.3057 0.079 256.22 / 0.13)" class="wd-expressive-accent"></path>
<path d="M18.5576 17.8027C17.0395 19.9862 16.1494 22.6391 16.1494 25.5C16.1494 32.9558 22.1936 39 29.6494 39C34.8864 39 39.4263 36.0178 41.665 31.6592C40.0561 37.6164 34.6153 42 28.1494 42C20.4174 42 14.1494 35.732 14.1494 28C14.1494 23.98 15.8441 20.3561 18.5576 17.8027Z" fill="oklch(0.3057 0.079 256.22 / 0.13)" class="wd-expressive-accent"></path>
<path d="M28.1494 3C36.1494 3 36.1494 5 36.1494 5.5V11.0654C36.1493 11.4365 35.7584 11.6793 35.4189 11.5293C33.1957 10.5465 30.7365 10 28.1494 10C25.5623 10 23.1031 10.5465 20.8799 11.5293C20.5405 11.6793 20.1496 11.4365 20.1494 11.0654V5.5C20.1494 5 20.1495 3.00001 28.1494 3Z" fill="oklch(0.3057 0.079 256.22 / 0.13)" class="wd-expressive-accent"></path>
</g>
<g>
<path d="M28.6494 17.2861C28.9256 17.2861 29.1494 17.51 29.1494 17.7861V27H36.2207C36.4968 27 36.7207 27.2239 36.7207 27.5V28.5C36.7206 28.7761 36.4968 29 36.2207 29H28.1494C27.5972 29 27.1496 28.5521 27.1494 28V17.7861C27.1494 17.51 27.3733 17.2862 27.6494 17.2861H28.6494Z" fill="oklch(0.3523 0 0 / 1)" class="wd-expressive-fill"></path>
<path d="M28.1494 2C32.1864 2 34.4051 2.49698 35.6396 3.19141C36.2827 3.5532 36.6941 3.98836 36.9238 4.46191C37.1519 4.93242 37.1494 5.34224 37.1494 5.5V7L37.1582 7.58691C37.2435 10.518 37.9668 13.3984 39.2803 16.0254L39.7666 16.999C42.4829 19.8665 44.1494 23.7385 44.1494 28C44.1494 32.2613 42.4826 36.1326 39.7666 39L39.2803 39.9746C37.8792 42.7768 37.1494 45.8671 37.1494 49V50.5L37.1465 50.6621C37.1367 50.8659 37.0951 51.1849 36.9238 51.5381C36.6941 52.0117 36.2828 52.4468 35.6396 52.8086C34.4051 53.503 32.1864 54 28.1494 54C24.1124 54 21.8937 53.503 20.6592 52.8086C20.0161 52.4468 19.6047 52.0117 19.375 51.5381C19.2038 51.1849 19.1622 50.8659 19.1523 50.6621L19.1494 50.5V49C19.1494 45.8671 18.4196 42.7768 17.0186 39.9746L16.5312 39C14.6958 37.0621 13.3394 34.6657 12.6533 32H12.1494C11.5971 32 11.1494 31.5523 11.1494 31V25C11.1494 24.4477 11.5971 24 12.1494 24H12.6533C13.3395 21.3341 14.6956 18.937 16.5312 16.999L17.0186 16.0254C18.332 13.3984 19.0553 10.518 19.1406 7.58691L19.1494 7V5.5C19.1494 5.34224 19.1469 4.93242 19.375 4.46191C19.6047 3.98836 20.0161 3.5532 20.6592 3.19141C21.8937 2.49698 24.1124 2 28.1494 2ZM36.3789 41.7227C33.9743 43.1678 31.1592 44 28.1494 44C25.1393 44 22.3237 43.1681 19.9189 41.7227C20.7298 44.0567 21.1494 46.5157 21.1494 49V50.5L21.1533 50.6006C21.1568 50.6245 21.163 50.6427 21.1738 50.665C21.1941 50.7069 21.283 50.8658 21.6396 51.0664C22.4052 51.497 24.1867 52 28.1494 52C32.112 52 33.8936 51.497 34.6592 51.0664C35.0158 50.8658 35.1047 50.7069 35.125 50.665C35.1358 50.6427 35.142 50.6245 35.1455 50.6006L35.1494 50.5V49C35.1494 46.5158 35.5681 44.0566 36.3789 41.7227ZM28.1494 14C20.4174 14 14.1494 20.268 14.1494 28C14.1494 35.732 20.4174 42 28.1494 42C35.8814 42 42.1494 35.732 42.1494 28C42.1494 20.268 35.8814 14 28.1494 14ZM28.1494 4C24.1867 4 22.4052 4.50304 21.6396 4.93359C21.2831 5.13417 21.1941 5.29309 21.1738 5.33496C21.1522 5.37974 21.1494 5.40811 21.1494 5.5V7C21.1494 9.48404 20.7296 11.9426 19.9189 14.2764C22.3237 12.8311 25.1395 12 28.1494 12C31.159 12 33.9744 12.8314 36.3789 14.2764C35.5683 11.9427 35.1494 9.48392 35.1494 7V5.5C35.1494 5.40809 35.1466 5.37976 35.125 5.33496C35.1047 5.29309 35.0157 5.13417 34.6592 4.93359C33.8936 4.50305 32.112 4 28.1494 4Z" fill="oklch(0.3523 0 0 / 1)" class="wd-expressive-fill"></path>
</g>
</svg>