<svg role="presentation" width="56" height="56" viewBox="0 0 56 56" xmlns="http://www.w3.org/2000/svg" class="wd-expressive wd-expressive-university">
<g>
<path d="M48.5 43.001C48.7761 43.001 49 43.2248 49 43.501V46.501C48.9995 46.7767 48.7758 47.001 48.5 47.001H8.5C8.22418 47.001 8.00053 46.7767 8 46.501V43.501C8 43.2248 8.22386 43.001 8.5 43.001H48.5Z" fill="oklch(0.3057 0.079 256.22 / 0.13)" class="wd-expressive-accent"></path>
<path d="M48 11.834V19H43V40.999H38V38.1387C38.5911 37.6421 39.2663 37.2416 40 36.9609V22.0391C39.2663 21.7584 38.5911 21.3578 38 20.8613V19H29V40.999H24V38.1387C24.5911 37.6421 25.2663 37.2416 26 36.9609V22.0391C25.2663 21.7584 24.5911 21.3578 24 20.8613V19H15V41.001H10V38.1406C10.5912 37.644 11.2662 37.2436 12 36.9629V22.041C11.2662 21.7603 10.5911 21.3599 10 20.8633V19H9V11.834L11.9971 10.6299C16.6946 14.0173 22.3772 16 28.5 16C34.6225 16 40.3046 14.0171 45.002 10.6299L48 11.834Z" fill="oklch(0.3057 0.079 256.22 / 0.13)" class="wd-expressive-accent"></path>
<path d="M28.5 8C29.8807 8 31 9.12026 31 10.501C30.9995 11.8812 29.8804 13.001 28.5 13.001C27.1196 13.001 26.0005 11.8812 26 10.501C26 9.12026 27.1193 8 28.5 8Z" fill="oklch(0.3057 0.079 256.22 / 0.13)" class="wd-expressive-accent"></path>
</g>
<g>
<path d="M28.5 7.04785C30.433 7.04785 32 8.61486 32 10.5479C32 12.4808 30.433 14.0479 28.5 14.0479C26.567 14.0479 25 12.4808 25 10.5479C25 8.61486 26.567 7.04785 28.5 7.04785ZM28.5 9.04785C27.6716 9.04785 27 9.71943 27 10.5479C27 11.3763 27.6716 12.0479 28.5 12.0479C29.3284 12.0479 30 11.3763 30 10.5479C30 9.71943 29.3284 9.04785 28.5 9.04785Z" fill="oklch(0.3523 0 0 / 1)" class="wd-expressive-fill"></path>
<path d="M27.9375 2.14746C28.2967 2.00289 28.6984 2.00297 29.0576 2.14746L49.0596 10.1963C49.6275 10.4249 50 10.9757 50 11.5879V17.5C49.9998 18.3283 49.3283 19 48.5 19H48V20.8613C48 21.1565 47.8695 21.437 47.6436 21.627C47.1445 22.0462 46.5923 22.4048 46 22.6934V36.3057C46.5925 36.5942 47.1444 36.9538 47.6436 37.373C47.8695 37.563 47.9999 37.8435 48 38.1387V40H48.5C49.3284 40 50 40.6716 50 41.5V46.5C49.9999 47.3284 49.3284 48 48.5 48H8.5C7.67162 48 7.00007 47.3284 7 46.5V41.5C7 40.6716 7.67157 40 8.5 40H9V38.1406C9 37.8454 9.13048 37.565 9.35645 37.375C9.8556 36.9557 10.4075 36.5962 11 36.3076V22.6953C10.4077 22.4068 9.8555 22.0481 9.35645 21.6289C9.13047 21.439 9.00008 21.1585 9 20.8633V19H8.5C7.67167 19 7.00015 18.3283 7 17.5V11.5869C7 10.9747 7.37254 10.4239 7.94043 10.1953L27.9375 2.14746ZM9 46H48V42H47.0205C47.0137 42.0001 47.0069 42.001 47 42.001H38C37.9931 42.001 37.9863 42.0001 37.9795 42H33.041C33.0274 42.0005 33.0138 42.002 33 42.002H24C23.9862 42.002 23.9726 42.0005 23.959 42H19.0508C19.0339 42.0008 19.0171 42.0029 19 42.0029H10C9.98295 42.0029 9.96606 42.0008 9.94922 42H9V46ZM12.1104 38C11.717 38.1711 11.3443 38.3812 11 38.6289V40H18V38.6289C17.6557 38.3812 17.283 38.1711 16.8896 38H12.1104ZM20 20.8633C19.9999 21.1585 19.8695 21.439 19.6436 21.6289C19.1445 22.0481 18.5924 22.4068 18 22.6953V36.3076C18.5925 36.5962 19.1444 36.9557 19.6436 37.375C19.8695 37.565 20 37.8454 20 38.1406V40H23V38.1396C23 37.8444 23.1304 37.564 23.3564 37.374C23.8556 36.9547 24.4075 36.5952 25 36.3066V22.6943C24.4076 22.4058 23.8555 22.0472 23.3564 21.6279C23.1304 21.438 23 21.1576 23 20.8623V19H20V20.8633ZM26.1104 37.999C25.717 38.1702 25.3444 38.3803 25 38.6279V40H32V38.6279C31.6556 38.3803 31.283 38.1702 30.8896 37.999H26.1104ZM34 20.8623C34 21.1576 33.8696 21.438 33.6436 21.6279C33.1445 22.0472 32.5924 22.4058 32 22.6943V36.3066C32.5925 36.5952 33.1444 36.9547 33.6436 37.374C33.8696 37.564 34 37.8444 34 38.1396V40H37V38.1387C37.0001 37.8435 37.1305 37.563 37.3564 37.373C37.8556 36.9538 38.4075 36.5942 39 36.3057V22.6934C38.4077 22.4048 37.8555 22.0462 37.3564 21.627C37.1305 21.437 37 21.1565 37 20.8613V19H34V20.8623ZM40.1104 37.998C39.7171 38.1692 39.3443 38.3793 39 38.627V40H46V38.627C45.6557 38.3793 45.2829 38.1692 44.8896 37.998H40.1104ZM13 36H16V23H13V36ZM27 35.999H30V22.999H27V35.999ZM41 35.998H44V22.998H41V35.998ZM11 20.374C11.3424 20.6203 11.7128 20.8292 12.1035 21H16.8965C17.2872 20.8292 17.6576 20.6203 18 20.374V19.002H11V20.374ZM25 20.373C25.3424 20.6193 25.7128 20.8282 26.1035 20.999H30.8965C31.2872 20.8282 31.6576 20.6193 32 20.373V19.001H25V20.373ZM39 20.3721C39.3424 20.6183 39.7128 20.8272 40.1035 20.998H44.8965C45.2872 20.8272 45.6576 20.6183 46 20.3721V19H39V20.3721ZM9 11.9238V17H48V11.9248L28.498 4.07715L9 11.9238Z" fill="oklch(0.3523 0 0 / 1)" class="wd-expressive-fill"></path>
</g>
</svg>