<svg role="presentation" width="56" height="56" viewBox="0 0 56 56" xmlns="http://www.w3.org/2000/svg" class="wd-expressive wd-expressive-call-bell">
<g>
<path d="M47.3076 40C47.9262 40 48.5108 40.2864 48.8896 40.7754L50.5811 42.959C50.8525 43.3094 50.9999 43.7403 51 44.1836V45.5C51 45.7761 50.7761 46 50.5 46H5.5C5.22386 46 5 45.7761 5 45.5V44.0615C5.00002 43.6943 5.10087 43.3341 5.29199 43.0205L6.5498 40.959C6.91287 40.3636 7.55947 40.0001 8.25684 40H47.3076Z" fill="oklch(0.3057 0.079 256.22 / 0.13)" class="wd-expressive-accent"></path>
<path d="M27.5 12C28.1963 12 28.8851 12.0375 29.5645 12.1094C20.8084 13.0846 14 20.5102 14 29.5264C14 29.84 13.9497 30.1517 13.8506 30.4492L12 36H7.27051C5.57491 36 4.64808 34.0224 5.7334 32.7197L7.4082 30.71C7.79566 30.245 8.05285 29.6849 8.15234 29.0879L8.28711 28.2754C9.85244 18.8836 17.9786 12 27.5 12Z" fill="oklch(0.3057 0.079 256.22 / 0.13)" class="wd-expressive-accent"></path>
</g>
<path d="M33.5 6C33.7761 6 34 6.22386 34 6.5V7.5C34 7.77614 33.7761 8 33.5 8H29V11.0547C38.353 11.7356 46.1364 18.7344 47.6992 28.1113L47.834 28.9238C47.9043 29.3457 48.0866 29.7418 48.3604 30.0703L50.0342 32.0791C51.6625 34.0331 50.273 37 47.7295 37H29V39H47.3076C48.2354 39 49.1115 39.4296 49.6797 40.1631L51.3721 42.3467C51.7792 42.8724 51.9999 43.5187 52 44.1836V45.5C52 46.3284 51.3284 47 50.5 47H5.5C4.72334 47 4.08461 46.4097 4.00781 45.6533L4 45.5V44.0615C4.00002 43.5106 4.15171 42.9704 4.43848 42.5L5.69531 40.4385C6.23991 39.5453 7.2107 39.0001 8.25684 39H27V37H7.27051C4.72699 37 3.3375 34.0331 4.96582 32.0791L6.63965 30.0703C6.91343 29.7418 7.09571 29.3457 7.16602 28.9238L7.30078 28.1113C8.91899 18.4021 17.2065 11.2422 27 11.0059V8H22.5C22.2239 8 22 7.77614 22 7.5V6.5C22 6.22386 22.2239 6 22.5 6H33.5ZM8.25684 41C7.90817 41.0001 7.58484 41.1818 7.40332 41.4795L6.14648 43.541C6.05089 43.6978 6.00002 43.8779 6 44.0615V45H50V44.1836C49.9999 43.962 49.9267 43.7464 49.791 43.5713L48.0986 41.3877C47.9092 41.1432 47.6169 41 47.3076 41H8.25684ZM27.5 13C18.4676 13 10.7585 19.53 9.27344 28.4395L9.18066 29H41.5C41.7761 29 42 29.2239 42 29.5V30.5C42 30.7761 41.7761 31 41.5 31H8.5C8.47975 31 8.46005 30.9965 8.44043 30.9941C8.35784 31.1164 8.27172 31.2366 8.17676 31.3506L6.50195 33.3594C5.95918 34.0107 6.42267 35 7.27051 35H47.7295C48.5773 35 49.0408 34.0107 48.498 33.3594L46.8232 31.3506C46.3221 30.7493 45.99 30.025 45.8613 29.2529L45.7266 28.4395C44.2415 19.53 36.5324 13 27.5 13Z" fill="oklch(0.3523 0 0 / 1)" class="wd-expressive-fill"></path>
</svg>