<svg role="presentation" width="56" height="56" viewBox="0 0 56 56" xmlns="http://www.w3.org/2000/svg" class="wd-expressive wd-expressive-document-back">
<g>
<path d="M14 49.5C14 49.7761 14.2239 50 14.5 50H34V53H11.5C11.2239 53 11 52.7761 11 52.5V3.5C11 3.22386 11.2239 3 11.5 3H14V49.5Z" fill="oklch(0.3057 0.079 256.22 / 0.13)" class="wd-expressive-accent"></path>
<path d="M37.9668 34.1836C38.2644 33.8202 38.8535 34.0302 38.8535 34.5V38.2559C41.1882 38.4939 43.4017 39.143 45.4189 40.1309C48.484 41.6322 49.8534 45.0703 49.8535 48.4834V51.1533C49.8535 51.4293 49.6294 51.6531 49.3535 51.6533H48.8838C48.6552 51.6532 48.457 51.4977 48.3926 51.2783C47.7611 49.1252 46.4626 47.2585 44.3877 46.3008C42.6719 45.509 40.8096 44.9799 38.8535 44.7637V48.8076C38.8531 49.277 38.2644 49.4869 37.9668 49.124L32.1133 41.9697C31.9629 41.7856 31.9628 41.521 32.1133 41.3369L37.9668 34.1836Z" fill="oklch(0.3057 0.079 256.22 / 0.13)" class="wd-expressive-accent"></path>
<path d="M20.5 21C21.8807 21 23 22.1193 23 23.5C23 24.8807 21.8807 26 20.5 26C19.1193 26 18 24.8807 18 23.5C18 22.1193 19.1193 21 20.5 21Z" fill="oklch(0.3057 0.079 256.22 / 0.13)" class="wd-expressive-accent"></path>
<path d="M29.5 21C30.8807 21 32 22.1193 32 23.5C32 24.8807 30.8807 26 29.5 26C28.1193 26 27 24.8807 27 23.5C27 22.1193 28.1193 21 29.5 21Z" fill="oklch(0.3057 0.079 256.22 / 0.13)" class="wd-expressive-accent"></path>
</g>
<g>
<path d="M43 2C44.6569 2 46 3.34315 46 5V34.5C46 34.7761 45.7761 35 45.5 35H44.5C44.2239 35 44 34.7761 44 34.5V5C44 4.44772 43.5523 4 43 4H13C12.4477 4 12 4.44772 12 5V51C12 51.5523 12.4477 52 13 52H33.5C33.7761 52 34 52.2239 34 52.5V53.5C34 53.7761 33.7761 54 33.5 54H13C11.3431 54 10 52.6569 10 51V5C10 3.34315 11.3431 2 13 2H43Z" fill="oklch(0.3523 0 0 / 1)" class="wd-expressive-fill"></path>
<path d="M37.1924 33.5508C38.0847 32.4605 39.8535 33.0898 39.8535 34.5V37.3721C41.9778 37.6837 43.9975 38.3212 45.8584 39.2324C49.3962 40.9653 50.8534 44.8586 50.8535 48.4834V51.1533C50.8535 51.9816 50.1817 52.6531 49.3535 52.6533H48.8838L48.7549 52.6475C48.1196 52.5935 47.6043 52.1449 47.4326 51.5596C46.8595 49.6055 45.7154 48.0153 43.9688 47.209C42.6771 46.6129 41.2964 46.1776 39.8535 45.9209V48.8086C39.8522 50.2169 38.086 50.8469 37.1934 49.7578L37.1924 49.7568L31.3389 42.6025L31.2598 42.4961C30.89 41.9522 30.9153 41.2223 31.3389 40.7041L37.1934 33.5518L37.1924 33.5508ZM33.1465 41.6523L37.8535 47.4062V44.7637C37.8535 44.4793 37.9747 44.2082 38.1865 44.0186C38.3982 43.8292 38.6806 43.7385 38.9629 43.7695C41.0276 43.9977 42.9946 44.5564 44.8066 45.3926C46.7362 46.2832 48.0525 47.841 48.8535 49.6377V48.4834C48.8534 45.2823 47.5715 42.2992 44.9795 41.0293C43.0667 40.0925 40.9671 39.4768 38.752 39.251C38.2416 39.1989 37.8535 38.7688 37.8535 38.2559V35.8994L33.1465 41.6523Z" fill="oklch(0.3523 0 0 / 1)" class="wd-expressive-fill"></path>
<path d="M30.5 35C30.7761 35 31 35.2239 31 35.5V36.5C31 36.7761 30.7761 37 30.5 37H17.5C17.2239 37 17 36.7761 17 36.5V35.5C17 35.2239 17.2239 35 17.5 35H30.5Z" fill="oklch(0.3523 0 0 / 1)" class="wd-expressive-fill"></path>
<path d="M32.5 30C32.7761 30 33 30.2239 33 30.5V31.5C33 31.7761 32.7761 32 32.5 32H17.5C17.2239 32 17 31.7761 17 31.5V30.5C17 30.2239 17.2239 30 17.5 30H32.5Z" fill="oklch(0.3523 0 0 / 1)" class="wd-expressive-fill"></path>
<path d="M20.5 20C22.433 20 24 21.567 24 23.5C24 25.433 22.433 27 20.5 27C18.567 27 17 25.433 17 23.5C17 21.567 18.567 20 20.5 20ZM20.5 22C19.6716 22 19 22.6716 19 23.5C19 24.3284 19.6716 25 20.5 25C21.3284 25 22 24.3284 22 23.5C22 22.6716 21.3284 22 20.5 22Z" fill="oklch(0.3523 0 0 / 1)" class="wd-expressive-fill"></path>
<path d="M29.5 20C31.433 20 33 21.567 33 23.5C33 25.433 31.433 27 29.5 27C27.567 27 26 25.433 26 23.5C26 21.567 27.567 20 29.5 20ZM29.5 22C28.6716 22 28 22.6716 28 23.5C28 24.3284 28.6716 25 29.5 25C30.3284 25 31 24.3284 31 23.5C31 22.6716 30.3284 22 29.5 22Z" fill="oklch(0.3523 0 0 / 1)" class="wd-expressive-fill"></path>
<path d="M32.5 15C32.7761 15 33 15.2239 33 15.5V16.5C33 16.7761 32.7761 17 32.5 17H17.5C17.2239 17 17 16.7761 17 16.5V15.5C17 15.2239 17.2239 15 17.5 15H32.5Z" fill="oklch(0.3523 0 0 / 1)" class="wd-expressive-fill"></path>
<path d="M38.5 10C38.7761 10 39 10.2239 39 10.5V11.5C39 11.7761 38.7761 12 38.5 12H17.5C17.2239 12 17 11.7761 17 11.5V10.5C17 10.2239 17.2239 10 17.5 10H38.5Z" fill="oklch(0.3523 0 0 / 1)" class="wd-expressive-fill"></path>
</g>
</svg>