<svg width="24" height="24" viewBox="0 0 24 24" xmlns="http://www.w3.org/2000/svg" class="wd-icon wd-icon-arrow-right-to-line" role="presentation">
<g>
<path d="M19 5C19.5523 5 20 5.44772 20 6V18C20 18.5523 19.5523 19 19 19C18.4477 19 18 18.5523 18 18V6C18 5.44772 18.4477 5 19 5Z" fill="oklch(0.3523 0 0 / 1)" class="wd-icon-fill"></path>
<path d="M10.293 7.29297C10.6835 6.90279 11.3166 6.9027 11.707 7.29297L15.707 11.293C16.0974 11.6834 16.0972 12.3165 15.707 12.707L11.707 16.707C11.3165 17.0971 10.6834 17.0973 10.293 16.707C9.90268 16.3166 9.90291 15.6835 10.293 15.293L12.5869 12.999H5C4.44788 12.9988 4 12.5512 4 11.999C4.00044 11.4472 4.44815 10.9992 5 10.999H12.585L10.293 8.70703C9.90276 8.31666 9.90299 7.68348 10.293 7.29297Z" fill="oklch(0.3523 0 0 / 1)" class="wd-icon-fill"></path>
</g>
</svg>