<svg width="24" height="24" viewBox="0 0 24 24" xmlns="http://www.w3.org/2000/svg" class="wd-icon wd-icon-bar-cluster-chart" role="presentation">
<g>
<path d="M8.5 8.00001C8.71929 8.00001 8.93381 7.99934 9.11523 8.01172C9.30562 8.02473 9.53161 8.05542 9.76562 8.15235L9.94434 8.23731C10.2918 8.42345 10.5766 8.70819 10.7627 9.05567L10.8477 9.23438C10.9446 9.46839 10.9753 9.69439 10.9883 9.88477C11.0007 10.0662 11 10.2807 11 10.5V18.5C11 18.7193 11.0007 18.9338 10.9883 19.1152C10.9785 19.2579 10.9592 19.4208 10.9092 19.5918L10.8477 19.7656C10.6701 20.1942 10.3497 20.5455 9.94434 20.7627L9.76562 20.8477C9.53161 20.9446 9.30562 20.9753 9.11523 20.9883C8.93381 21.0007 8.7193 21 8.5 21C8.3031 21 8.11466 20.9987 7.94922 20.9902C7.78878 20.9967 7.60702 21 7.40039 21H5.59961C5.33595 21 5.0784 21.0003 4.86133 20.9824C4.68975 20.9683 4.49479 20.9408 4.29395 20.8691L4.0918 20.7813C3.76289 20.6136 3.48793 20.3588 3.2959 20.0459L3.21875 19.9082C3.08068 19.6372 3.03641 19.3674 3.01758 19.1387C2.99973 18.9216 3 18.6641 3 18.4004V14.5996C3 14.336 2.99973 14.0784 3.01758 13.8613C3.03641 13.6326 3.08068 13.3628 3.21875 13.0918L3.2959 12.9541C3.48793 12.6412 3.76289 12.3865 4.0918 12.2188L4.29395 12.1309C4.49479 12.0593 4.68975 12.0317 4.86133 12.0176C5.0784 11.9997 5.33595 12 5.59961 12H6V10.5C6 10.2807 5.99934 10.0662 6.01172 9.88477C6.02472 9.69439 6.05541 9.46839 6.15234 9.23438L6.2373 9.05567C6.45448 8.65026 6.80577 8.32995 7.23438 8.15235L7.4082 8.09083C7.57924 8.04081 7.74205 8.02147 7.88477 8.01172C8.06619 7.99934 8.2807 8.00001 8.5 8.00001ZM5.59961 14C5.30386 14 5.14168 14.0012 5.02539 14.0107C5.02069 14.0111 5.01592 14.0113 5.01172 14.0117C5.01133 14.0159 5.01113 14.0207 5.01074 14.0254C5.00119 14.1417 5 14.3039 5 14.5996V18.4004C5 18.6961 5.00119 18.8583 5.01074 18.9746C5.0111 18.979 5.01136 18.9834 5.01172 18.9873C5.01594 18.9877 5.02065 18.9889 5.02539 18.9893C5.14168 18.9988 5.30386 19 5.59961 19H6V14H5.59961ZM8.02051 10.0068C8.016 10.0072 8.01178 10.0075 8.00781 10.0078C8.0075 10.0118 8.00714 10.016 8.00684 10.0205C8.00017 10.118 8 10.2534 8 10.5V18.9912C8.00782 18.9916 8.01564 18.9917 8.02344 18.9922C8.12212 18.9988 8.2592 19 8.5 19C8.74659 19 8.88196 18.9998 8.97949 18.9932C8.98366 18.9929 8.98751 18.9915 8.99121 18.9912C8.9915 18.9875 8.99288 18.9837 8.99316 18.9795C8.99983 18.882 9 18.7466 9 18.5V10.5C9 10.2534 8.99983 10.118 8.99316 10.0205C8.99285 10.016 8.99153 10.0118 8.99121 10.0078C8.98753 10.0075 8.98363 10.0071 8.97949 10.0068C8.88196 10.0002 8.74659 10 8.5 10C8.25341 10 8.11804 10.0002 8.02051 10.0068Z" fill="oklch(0.3523 0 0 / 1)" class="wd-icon-fill"></path>
<path d="M15.5 3.00001C15.7193 3.00001 15.9338 2.99934 16.1152 3.01173C16.3056 3.02473 16.5316 3.05542 16.7656 3.15235L16.9443 3.23731C17.2918 3.42345 17.5766 3.70819 17.7627 4.05567L17.8477 4.23438C17.9446 4.46839 17.9753 4.69439 17.9883 4.88477C18.0007 5.06619 18 5.28072 18 5.50001V7.00001H18.4004C18.6641 7.00001 18.9216 6.99974 19.1387 7.01758C19.3674 7.03641 19.6372 7.08068 19.9082 7.21876L20.0459 7.2959C20.3141 7.46048 20.5395 7.68594 20.7041 7.95411L20.7812 8.0918C20.9193 8.36279 20.9636 8.6326 20.9824 8.86133C21.0003 9.0784 21 9.33596 21 9.59962V18.4004C21 18.6641 21.0003 18.9216 20.9824 19.1387C20.9683 19.3103 20.9408 19.5052 20.8691 19.7061L20.7812 19.9082C20.6135 20.2371 20.3588 20.5121 20.0459 20.7041L19.9082 20.7813C19.6372 20.9193 19.3674 20.9636 19.1387 20.9824C18.9216 21.0003 18.6641 21 18.4004 21H16.5996C16.3924 21 16.2099 20.9968 16.0488 20.9902C15.8841 20.9986 15.6965 21 15.5 21C15.2807 21 15.0662 21.0007 14.8848 20.9883C14.7421 20.9785 14.5792 20.9592 14.4082 20.9092L14.2344 20.8477C13.8058 20.6701 13.4545 20.3498 13.2373 19.9443L13.1523 19.7656C13.0554 19.5316 13.0247 19.3056 13.0117 19.1152C12.9993 18.9338 13 18.7193 13 18.5V5.50001C13 5.28072 12.9993 5.06619 13.0117 4.88477C13.0247 4.69439 13.0554 4.46839 13.1523 4.23438L13.2373 4.05567C13.4545 3.65026 13.8058 3.32995 14.2344 3.15235L14.4082 3.09083C14.5792 3.04081 14.7421 3.02147 14.8848 3.01173C15.0662 2.99934 15.2807 3.00001 15.5 3.00001ZM15.0205 5.00684C15.016 5.00715 15.0118 5.00751 15.0078 5.00782C15.0075 5.01178 15.0071 5.01602 15.0068 5.02051C15.0002 5.11804 15 5.25343 15 5.50001V18.5C15 18.7466 15.0002 18.882 15.0068 18.9795C15.0071 18.9836 15.0075 18.9875 15.0078 18.9912C15.0118 18.9915 15.016 18.9929 15.0205 18.9932C15.118 18.9998 15.2534 19 15.5 19C15.7395 19 15.8767 18.9987 15.9756 18.9922C15.9837 18.9917 15.9918 18.9916 16 18.9912V5.50001C16 5.25343 15.9998 5.11804 15.9932 5.02051C15.9929 5.01599 15.9915 5.0118 15.9912 5.00782C15.9875 5.00753 15.9836 5.00713 15.9795 5.00684C15.882 5.00018 15.7466 5.00001 15.5 5.00001C15.2534 5.00001 15.118 5.00018 15.0205 5.00684ZM18 19H18.4004C18.6961 19 18.8583 18.9988 18.9746 18.9893C18.979 18.9889 18.9834 18.9877 18.9873 18.9873C18.9877 18.9834 18.9889 18.979 18.9893 18.9746C18.9988 18.8583 19 18.6961 19 18.4004V9.59962C19 9.30387 18.9988 9.14168 18.9893 9.0254C18.9889 9.02066 18.9877 9.01595 18.9873 9.01172C18.9834 9.01136 18.979 9.01111 18.9746 9.01075C18.8583 9.0012 18.6961 9.00001 18.4004 9.00001H18V19Z" fill="oklch(0.3523 0 0 / 1)" class="wd-icon-fill"></path>
</g>
</svg>