<svg width="24" height="24" viewBox="0 0 24 24" xmlns="http://www.w3.org/2000/svg" class="wd-icon wd-icon-sort-z-a" role="presentation">
<g>
<path d="M15.5005 12.75C16.0952 12.7501 16.6292 13.1018 16.8677 13.6387L16.9116 13.748L19.4438 20.917C19.6276 21.4376 19.354 22.0094 18.8335 22.1934C18.3128 22.3772 17.741 22.1037 17.5571 21.583L16.9985 20H14.0024L13.4438 21.583C13.2599 22.1036 12.6881 22.377 12.1675 22.1934C11.6467 22.0095 11.3733 21.4377 11.5571 20.917L14.0893 13.748L14.1333 13.6387C14.3718 13.1018 14.9057 12.75 15.5005 12.75ZM14.7085 18H16.2925L15.5005 15.7578L14.7085 18Z" fill="oklch(0.3523 0 0 / 1)" class="wd-icon-fill"></path>
<path d="M5.99949 7.00098C6.55177 7.00098 6.99949 7.44869 6.99949 8.00098V13.5859L8.29245 12.293C8.68284 11.9026 9.31596 11.9029 9.70652 12.293C10.0969 12.6835 10.097 13.3165 9.70652 13.707L6.70652 16.707C6.316 17.0971 5.68286 17.0973 5.29245 16.707L2.29245 13.707C1.90254 13.3166 1.90249 12.6834 2.29245 12.293C2.68283 11.9027 3.31598 11.9029 3.70652 12.293L4.99949 13.5859V8.00098C4.99949 7.44891 5.4475 7.00133 5.99949 7.00098Z" fill="oklch(0.3523 0 0 / 1)" class="wd-icon-fill"></path>
<path d="M18.0591 1.75C18.4395 1.7502 18.7872 1.96639 18.9555 2.30762C19.1239 2.64892 19.0835 3.05635 18.852 3.3584L14.7192 8.75H18.5005C19.0526 8.75015 19.5005 9.19781 19.5005 9.75C19.5005 10.3022 19.0526 10.7499 18.5005 10.75H12.6919C12.3113 10.7499 11.9638 10.5336 11.7954 10.1924C11.627 9.85101 11.6673 9.44369 11.8989 9.1416L16.0317 3.75H12.5005C11.9482 3.75 11.5005 3.30228 11.5005 2.75C11.5005 2.19772 11.9482 1.75 12.5005 1.75H18.0591Z" fill="oklch(0.3523 0 0 / 1)" class="wd-icon-fill"></path>
</g>
</svg>