<svg width="24" height="24" viewBox="0 0 24 24" xmlns="http://www.w3.org/2000/svg" class="wd-icon wd-icon-barcode" role="presentation">
<g>
<path d="M3 15C3.55228 15 4 15.4477 4 16V17C4 17.5523 4.44772 18 5 18H6C6.55228 18 7 18.4477 7 19C7 19.5523 6.55228 20 6 20H5C3.34315 20 2 18.6569 2 17V16C2 15.4477 2.44772 15 3 15Z" fill="oklch(0.3523 0 0 / 1)" class="wd-icon-fill"></path>
<path d="M21 15C21.5523 15 22 15.4477 22 16V17C22 18.6569 20.6569 20 19 20H18C17.4477 20 17 19.5523 17 19C17 18.4477 17.4477 18 18 18H19C19.5523 18 20 17.5523 20 17V16C20 15.4477 20.4477 15 21 15Z" fill="oklch(0.3523 0 0 / 1)" class="wd-icon-fill"></path>
<path d="M7.5 8C7.77614 8 8 8.22386 8 8.5V15.5C8 15.7761 7.77614 16 7.5 16H6.5C6.22386 16 6 15.7761 6 15.5V8.5C6 8.22386 6.22386 8 6.5 8H7.5Z" fill="oklch(0.3523 0 0 / 1)" class="wd-icon-fill"></path>
<path d="M10.5 8C10.7761 8 11 8.22386 11 8.5V15.5C11 15.7761 10.7761 16 10.5 16H9.5C9.22386 16 9 15.7761 9 15.5V8.5C9 8.22386 9.22386 8 9.5 8H10.5Z" fill="oklch(0.3523 0 0 / 1)" class="wd-icon-fill"></path>
<path d="M14.5 8C14.7761 8 15 8.22386 15 8.5V15.5C15 15.7761 14.7761 16 14.5 16H12.5C12.2239 16 12 15.7761 12 15.5V8.5C12 8.22386 12.2239 8 12.5 8H14.5Z" fill="oklch(0.3523 0 0 / 1)" class="wd-icon-fill"></path>
<path d="M17.5 8C17.7761 8 18 8.22386 18 8.5V15.5C18 15.7761 17.7761 16 17.5 16H16.5C16.2239 16 16 15.7761 16 15.5V8.5C16 8.22386 16.2239 8 16.5 8H17.5Z" fill="oklch(0.3523 0 0 / 1)" class="wd-icon-fill"></path>
<path d="M6 4C6.55228 4 7 4.44772 7 5C7 5.55228 6.55228 6 6 6H5C4.44772 6 4 6.44772 4 7V8C4 8.55228 3.55228 9 3 9C2.44772 9 2 8.55228 2 8V7C2 5.34315 3.34315 4 5 4H6Z" fill="oklch(0.3523 0 0 / 1)" class="wd-icon-fill"></path>
<path d="M19 4C20.6569 4 22 5.34315 22 7V8C22 8.55228 21.5523 9 21 9C20.4477 9 20 8.55228 20 8V7C20 6.44772 19.5523 6 19 6H18C17.4477 6 17 5.55228 17 5C17 4.44772 17.4477 4 18 4H19Z" fill="oklch(0.3523 0 0 / 1)" class="wd-icon-fill"></path>
</g>
</svg>