<svg width="24" height="24" viewBox="0 0 24 24" xmlns="http://www.w3.org/2000/svg" class="wd-icon wd-icon-stopwatch" role="presentation">
<g>
<path d="M12 4C16.9706 4 21 8.02944 21 13C21 17.9706 16.9706 22 12 22C7.02944 22 3 17.9706 3 13C3 8.02944 7.02944 4 12 4ZM12 6C8.13401 6 5 9.13401 5 13C5 16.866 8.13401 20 12 20C15.866 20 19 16.866 19 13C19 9.13401 15.866 6 12 6Z" fill="oklch(0.3523 0 0 / 1)" class="wd-icon-fill"></path>
<path d="M15 1.25C15.4142 1.25 15.75 1.58579 15.75 2C15.75 2.41421 15.4142 2.75 15 2.75H9C8.58579 2.75 8.25 2.41421 8.25 2C8.25 1.58579 8.58579 1.25 9 1.25H15Z" fill="oklch(0.3523 0 0 / 1)" class="wd-icon-fill"></path>
</g>
<path d="M8.13271 9.79577C7.8793 9.3589 8.36074 8.87736 8.79775 9.13073C8.94126 9.21394 9.08466 9.29734 9.22646 9.38073C10.1213 9.90704 10.964 10.4247 11.6561 10.8846C12.375 11.3624 12.8445 11.7225 13.0604 11.9384C13.6459 12.5242 13.6461 13.4738 13.0604 14.0594C12.4748 14.6449 11.5251 14.6448 10.9394 14.0594C10.7235 13.8435 10.3634 13.3739 9.88564 12.6551C9.42564 11.963 8.90905 11.1194 8.38271 10.2245C8.29935 10.0827 8.21596 9.93916 8.13271 9.79577Z" fill="oklch(0.3523 0 0 / 1)" class="wd-icon-accent"></path>
</svg>