<svg width="24" height="24" viewBox="0 0 24 24" xmlns="http://www.w3.org/2000/svg" class="wd-icon wd-icon-desktop-media" role="presentation">
<path d="M18.7998 5C19.3764 5 19.7489 5.00126 20.0322 5.02441C20.3038 5.04661 20.4047 5.08419 20.4541 5.10938C20.6421 5.20521 20.7948 5.35793 20.8906 5.5459C20.9158 5.59534 20.9534 5.69619 20.9756 5.96777C20.9987 6.25111 21 6.62364 21 7.2002V12.7998C21 13.3764 20.9987 13.7489 20.9756 14.0322C20.9534 14.3038 20.9158 14.4047 20.8906 14.4541C20.7948 14.6421 20.6421 14.7948 20.4541 14.8906C20.4047 14.9158 20.3038 14.9534 20.0322 14.9756C19.7489 14.9987 19.3764 15 18.7998 15H5.2002C4.62364 15 4.25111 14.9987 3.96777 14.9756C3.69619 14.9534 3.59534 14.9158 3.5459 14.8906C3.35793 14.7948 3.20521 14.6421 3.10938 14.4541C3.08419 14.4047 3.04661 14.3038 3.02441 14.0322C3.00126 13.7489 3 13.3764 3 12.7998V7.2002C3 6.62364 3.00126 6.25111 3.02441 5.96777C3.04661 5.69619 3.08419 5.59534 3.10938 5.5459C3.20521 5.35793 3.35793 5.20521 3.5459 5.10938C3.59534 5.08419 3.69619 5.04661 3.96777 5.02441C4.25111 5.00126 4.62364 5 5.2002 5H18.7998ZM10.6738 7.20508C10.4619 7.2267 10.269 7.33761 10.1436 7.50977C9.99973 7.70717 10 8.05022 10 8.73535V11.2646C10 11.9498 9.99973 12.2928 10.1436 12.4902C10.269 12.6624 10.4619 12.7733 10.6738 12.7949C10.9168 12.8197 11.2129 12.6469 11.8047 12.3018L13.9727 11.0361C14.5566 10.6955 14.849 10.5255 14.9473 10.3037C15.0329 10.1103 15.0329 9.8897 14.9473 9.69629C14.849 9.47451 14.5566 9.30449 13.9727 8.96387L11.8047 7.69824C11.2129 7.35305 10.9168 7.18031 10.6738 7.20508Z" fill="transparent" class="wd-icon-background"></path>
<path d="M18.7998 3C19.3434 3 19.8116 2.99893 20.1953 3.03028C20.5906 3.06259 20.984 3.1344 21.3623 3.32715C21.9265 3.61473 22.3853 4.07348 22.6729 4.6377C22.8656 5.016 22.9374 5.40944 22.9697 5.80469C23.0011 6.18836 23 6.65665 23 7.2002V12.7998C23 13.3434 23.0011 13.8116 22.9697 14.1953C22.9374 14.5906 22.8656 14.984 22.6729 15.3623C22.3853 15.9265 21.9265 16.3853 21.3623 16.6729C20.984 16.8656 20.5906 16.9374 20.1953 16.9697C19.8116 17.0011 19.3434 17 18.7998 17H13V19H15C15.5523 19 16 19.4477 16 20C16 20.5523 15.5523 21 15 21H9C8.44772 21 8 20.5523 8 20C8 19.4477 8.44772 19 9 19H11V17H5.2002C4.65665 17 4.18836 17.0011 3.80469 16.9697C3.40944 16.9374 3.016 16.8656 2.6377 16.6729C2.07348 16.3853 1.61473 15.9265 1.32715 15.3623C1.1344 14.984 1.06259 14.5906 1.03028 14.1953C0.998931 13.8116 1 13.3434 1 12.7998V7.2002C1 6.65665 0.998931 6.18836 1.03028 5.80469C1.06259 5.40944 1.1344 5.016 1.32715 4.6377C1.61473 4.07348 2.07348 3.61473 2.6377 3.32715C3.016 3.1344 3.40944 3.06259 3.80469 3.03028C4.18836 2.99893 4.65665 3 5.2002 3H18.7998ZM5.2002 5C4.62365 5 4.25111 5.00127 3.96778 5.02442C3.69619 5.04662 3.59534 5.08419 3.5459 5.10938C3.35793 5.20522 3.20522 5.35793 3.10938 5.5459C3.08419 5.59534 3.04662 5.69619 3.02442 5.96778C3.00127 6.25111 3 6.62365 3 7.2002V12.7998C3 13.3764 3.00127 13.7489 3.02442 14.0322C3.04661 14.3038 3.08419 14.4047 3.10938 14.4541C3.20522 14.6421 3.35794 14.7948 3.5459 14.8906C3.59534 14.9158 3.69619 14.9534 3.96778 14.9756C4.25111 14.9987 4.62365 15 5.2002 15H18.7998C19.3764 15 19.7489 14.9987 20.0322 14.9756C20.3038 14.9534 20.4047 14.9158 20.4541 14.8906C20.6421 14.7948 20.7948 14.6421 20.8906 14.4541C20.9158 14.4047 20.9534 14.3038 20.9756 14.0322C20.9987 13.7489 21 13.3764 21 12.7998V7.2002C21 6.62365 20.9987 6.25111 20.9756 5.96778C20.9534 5.69619 20.9158 5.59534 20.8906 5.5459C20.7948 5.35794 20.6421 5.20522 20.4541 5.10938C20.4047 5.08419 20.3038 5.04661 20.0322 5.02442C19.7489 5.00127 19.3764 5 18.7998 5H5.2002Z" fill="oklch(0.3523 0 0 / 1)" class="wd-icon-fill"></path>
<path d="M10.6738 7.20546C10.9168 7.18069 11.2129 7.3534 11.8047 7.69863L13.9727 8.96327C14.5564 9.30378 14.8489 9.47403 14.9473 9.6957C15.033 9.88918 15.033 10.1106 14.9473 10.3041C14.8488 10.5257 14.5563 10.6961 13.9727 11.0365L11.8047 12.3012C11.2129 12.6464 10.9168 12.8191 10.6738 12.7943C10.4619 12.7727 10.269 12.6618 10.1436 12.4896C9.99993 12.2922 10 11.9497 10 11.265V8.73476C10 8.05015 10 7.70761 10.1436 7.51015C10.269 7.33801 10.462 7.2271 10.6738 7.20546Z" fill="oklch(0.3523 0 0 / 1)" class="wd-icon-accent"></path>
</svg>