<svg width="24" height="24" viewBox="0 0 24 24" xmlns="http://www.w3.org/2000/svg" class="wd-icon wd-icon-component" role="presentation">
<g>
<path d="M7.07299 10.4758C7.6753 10.2802 8.32418 10.2802 8.9265 10.4758C9.33025 10.607 9.65936 10.8345 9.96166 11.0911C10.255 11.3401 10.5853 11.6717 10.9695 12.0559L11.9441 13.0305C12.3282 13.4147 12.6598 13.745 12.9089 14.0383C13.1656 14.3406 13.3929 14.6698 13.5242 15.0735C13.7198 15.6758 13.7198 16.3246 13.5242 16.927C13.3929 17.3309 13.1656 17.6598 12.9089 17.9621C12.6598 18.2556 12.3284 18.5857 11.9441 18.97L10.9695 19.9446C10.5852 20.3289 10.2551 20.6603 9.96166 20.9094C9.65928 21.1661 9.33037 21.3934 8.9265 21.5246C8.32413 21.7203 7.67536 21.7203 7.07299 21.5246C6.66927 21.3934 6.34014 21.1661 6.03783 20.9094C5.74448 20.6603 5.41418 20.3287 5.03002 19.9446L4.05541 18.97C3.67123 18.5858 3.33962 18.2555 3.09057 17.9621C2.83396 17.6598 2.60652 17.3307 2.47533 16.927C2.27974 16.3247 2.27967 15.6758 2.47533 15.0735C2.60657 14.6697 2.83389 14.3407 3.09057 14.0383C3.33968 13.7449 3.67112 13.4148 4.05541 13.0305L5.03002 12.0559C5.41431 11.6716 5.74441 11.3402 6.03783 11.0911C6.34018 10.8344 6.66919 10.6071 7.07299 10.4758ZM8.30834 12.3772C8.10791 12.3123 7.89157 12.3122 7.69115 12.3772C7.63837 12.3944 7.54004 12.4395 7.33275 12.6155C7.11605 12.7994 6.85172 13.0623 6.44408 13.47L5.46947 14.4446C5.06183 14.8522 4.79895 15.1165 4.61498 15.3332C4.43905 15.5405 4.39388 15.6389 4.3767 15.6916C4.3117 15.8921 4.31177 16.1084 4.3767 16.3088C4.39383 16.3615 4.43908 16.4599 4.61498 16.6672C4.79891 16.8839 5.06198 17.1484 5.46947 17.5559L6.44408 18.5305C6.85154 18.938 7.1161 19.201 7.33275 19.385C7.53982 19.5607 7.63833 19.6061 7.69115 19.6233C7.89163 19.6883 8.10786 19.6883 8.30834 19.6233C8.36108 19.6061 8.45923 19.5611 8.66674 19.385C8.88345 19.201 9.14775 18.9382 9.55541 18.5305L10.53 17.5559C10.9377 17.1482 11.2005 16.8839 11.3845 16.6672C11.5606 16.4597 11.6057 16.3616 11.6228 16.3088C11.6878 16.1083 11.6878 15.8921 11.6228 15.6916C11.6056 15.6388 11.5602 15.5403 11.3845 15.3332C11.2006 15.1166 10.9375 14.852 10.53 14.4446L9.55541 13.47C9.14792 13.0625 8.8834 12.7994 8.66674 12.6155C8.45943 12.4396 8.36106 12.3943 8.30834 12.3772Z" fill="oklch(0.3523 0 0 / 1)" class="wd-icon-fill"></path>
<path d="M15.073 2.47582C15.6753 2.28016 16.3242 2.28023 16.9265 2.47582C17.3302 2.607 17.6594 2.83445 17.9617 3.09105C18.255 3.34011 18.5853 3.67172 18.9695 4.0559L19.9441 5.03051C20.3282 5.41467 20.6598 5.74497 20.9089 6.03832C21.1656 6.34062 21.3929 6.66976 21.5242 7.07348C21.7198 7.67584 21.7198 8.32462 21.5242 8.92699C21.3929 9.33086 21.1656 9.65976 20.9089 9.96215C20.6598 10.2556 20.3284 10.5857 19.9441 10.97L18.9695 11.9446C18.5852 12.3289 18.2551 12.6603 17.9617 12.9094C17.6593 13.1661 17.3304 13.3934 16.9265 13.5246C16.3241 13.7203 15.6754 13.7203 15.073 13.5246C14.6693 13.3934 14.3401 13.1661 14.0378 12.9094C13.7445 12.6603 13.4142 12.3287 13.03 11.9446L12.0554 10.97C11.6712 10.5858 11.3396 10.2555 11.0906 9.96215C10.834 9.65984 10.6065 9.33073 10.4753 8.92699C10.2797 8.32466 10.2797 7.67579 10.4753 7.07348C10.6066 6.66968 10.8339 6.34067 11.0906 6.03832C11.3397 5.74489 11.6711 5.4148 12.0554 5.03051L13.03 4.0559C13.4143 3.67161 13.7444 3.34017 14.0378 3.09105C14.3402 2.83438 14.6692 2.60706 15.073 2.47582Z" fill="oklch(0.3523 0 0 / 1)" class="wd-icon-fill"></path>
</g>
</svg>