<svg width="24" height="24" viewBox="0 0 24 24" xmlns="http://www.w3.org/2000/svg" class="wd-icon wd-icon-document-plus" role="presentation">
<path d="M11.0117 1.00007C11.6978 1.00007 12.2044 0.99351 12.6914 1.11042C13.0994 1.20839 13.4899 1.37069 13.8477 1.58991C14.2746 1.85161 14.6284 2.21433 15.1133 2.69929L19 6.586C19.6402 7.22622 20 8.09469 20 9.00007C20 9.00683 19.9992 9.01384 19.999 9.02057V11.0001C19.999 11.5524 19.5513 12.0001 18.999 12.0001C18.4468 12 17.999 11.5523 17.999 11.0001V10.0001H14C12.8955 10 12 9.1046 12 8.00007V3.02155C11.8142 3.00453 11.5389 3.00007 11.0117 3.00007H9.79983C8.94349 3.00007 8.36118 3.00042 7.91116 3.03718C7.47282 3.073 7.24821 3.13816 7.09182 3.21784C6.71563 3.40955 6.40954 3.71569 6.2178 4.09186C6.13812 4.24823 6.07296 4.47296 6.03713 4.9112C6.00038 5.36119 6.00002 5.94363 6.00002 6.79987V18.5001C6.00002 18.9955 6.00271 19.1473 6.0176 19.2608C6.13575 20.1582 6.84188 20.8643 7.73928 20.9825C7.85283 20.9974 8.00425 21.0001 8.50002 21.0001H12.999C13.5513 21.0001 13.9989 21.4479 13.999 22.0001C13.999 22.5524 13.5513 23.0001 12.999 23.0001H8.50002C8.06744 23.0001 7.75385 23.0023 7.47756 22.9659C5.68297 22.7294 4.27063 21.3171 4.0342 19.5225C3.99787 19.2463 4.00002 18.9326 4.00002 18.5001V6.79987C4.00002 5.9765 3.99901 5.29843 4.04397 4.74811C4.08991 4.18616 4.18833 3.66889 4.43557 3.18366C4.81905 2.43123 5.43117 1.81905 6.18362 1.43561C6.66889 1.18836 7.18606 1.08994 7.74807 1.04401C8.29843 0.999046 8.97638 1.00007 9.79983 1.00007H11.0117ZM13.5 8.00007C13.5 8.27618 13.7239 8.50001 14 8.50007H17.9073C17.837 8.31444 17.729 8.14312 17.586 8.00007L13.6992 4.11335C13.6266 4.04068 13.5602 3.97487 13.5 3.91511V8.00007Z" fill="oklch(0.3523 0 0 / 1)" class="wd-icon-fill"></path>
<path d="M18 14.25C18.4142 14.25 18.75 14.5858 18.75 15V17.25H21C21.4142 17.25 21.75 17.5858 21.75 18C21.75 18.4142 21.4142 18.75 21 18.75H18.75V21C18.75 21.4142 18.4142 21.75 18 21.75C17.5858 21.75 17.25 21.4142 17.25 21V18.75H15C14.5858 18.75 14.25 18.4142 14.25 18C14.25 17.5858 14.5858 17.25 15 17.25H17.25V15C17.25 14.5858 17.5858 14.25 18 14.25Z" fill="oklch(0.3523 0 0 / 1)" class="wd-icon-accent"></path>
</svg>