<svg width="24" height="24" viewBox="0 0 24 24" xmlns="http://www.w3.org/2000/svg" class="wd-icon wd-icon-arrow-up-left-circle" role="presentation">
<g>
<path d="M13.415 8.17188C13.9669 8.17235 14.415 8.61989 14.415 9.17188C14.4147 9.72362 13.9667 10.1704 13.415 10.1709H11.5859L15.5352 14.1201C15.9256 14.5106 15.9254 15.1446 15.5352 15.5352C15.1447 15.9252 14.5115 15.9254 14.1211 15.5352L10.1719 11.5859V13.4141C10.1719 13.9661 9.72388 14.4137 9.17188 14.4141C8.61977 14.4139 8.17188 13.9662 8.17188 13.4141V9.17188C8.17187 8.61972 8.61977 8.17208 9.17188 8.17188H13.415Z" fill="oklch(0.3523 0 0 / 1)" class="wd-icon-fill"></path>
<path d="M12 2C17.5228 2 22 6.47715 22 12C22 17.5228 17.5228 22 12 22C6.47715 22 2 17.5228 2 12C2 6.47715 6.47715 2 12 2ZM12 4C7.58172 4 4 7.58172 4 12C4 16.4183 7.58172 20 12 20C16.4183 20 20 16.4183 20 12C20 7.58172 16.4183 4 12 4Z" fill="oklch(0.3523 0 0 / 1)" class="wd-icon-fill"></path>
</g>
</svg>