<svg width="24" height="24" viewBox="0 0 24 24" xmlns="http://www.w3.org/2000/svg" class="wd-icon wd-icon-caret-top-small" role="presentation">
<g>
<path d="M16 15C16.5523 15 17 15.4477 17 16C17 16.5523 16.5523 17 16 17H8C7.44772 17 7 16.5523 7 16C7 15.4477 7.44772 15 8 15H16Z" fill="oklch(0.3523 0 0 / 1)" class="wd-icon-fill"></path>
<path d="M12.001 6.5C12.2288 6.50002 12.4446 6.60335 12.5869 6.78125L16.5859 11.7812C16.766 12.0064 16.8017 12.3154 16.6768 12.5752C16.5519 12.8348 16.2891 12.9999 16.001 13H8C7.71181 13 7.44917 12.8349 7.32422 12.5752C7.19935 12.3154 7.23397 12.0064 7.41406 11.7812L11.415 6.78125C11.5574 6.60336 11.7731 6.49998 12.001 6.5Z" fill="oklch(0.3523 0 0 / 1)" class="wd-icon-fill"></path>
</g>
</svg>