<svg width="24" height="24" viewBox="0 0 24 24" xmlns="http://www.w3.org/2000/svg" class="wd-icon wd-icon-edit-sparkle" role="presentation">
<path d="M15.4456 5.14255C16.9407 3.64796 19.3647 3.64763 20.8596 5.14255C22.3543 6.63761 22.3534 9.06164 20.8587 10.5566L11.7796 19.6357C11.695 19.7202 11.5837 19.8346 11.4534 19.9316C11.3497 20.0087 11.2379 20.0761 11.1214 20.1318C10.9752 20.2016 10.8233 20.246 10.7093 20.2812L5.29714 21.955C4.94292 22.0646 4.55649 21.969 4.29421 21.707C4.03194 21.4447 3.93658 21.0584 4.04617 20.7041L5.71999 15.292C5.75533 15.1777 5.79941 15.0254 5.86941 14.8789C5.9252 14.7621 5.99235 14.6507 6.0696 14.5468C6.16664 14.4165 6.28095 14.3062 6.3655 14.2216L15.4456 5.14255ZM19.4446 6.55661C18.7307 5.84294 17.5737 5.84314 16.8596 6.55661L7.77956 15.6357C7.74836 15.6669 7.72546 15.6897 7.70828 15.707L10.2932 18.292C10.3104 18.2749 10.3334 18.2528 10.3645 18.2216L19.4446 9.14255C20.1583 8.42852 20.1585 7.27058 19.4446 6.55661Z" fill="oklch(0.3523 0 0 / 1)" class="wd-icon-fill"></path>
<path d="M6 2C6.27598 2 6.49599 2.22488 6.53516 2.49805C6.75391 4.03209 7.96791 5.24609 9.50195 5.46484C9.77512 5.50401 10 5.72402 10 6C10 6.27598 9.77512 6.49598 9.50195 6.53516C7.96795 6.75392 6.75396 7.96795 6.53516 9.50195C6.49598 9.77512 6.27599 10 6 10C5.72401 10 5.50402 9.77512 5.46484 9.50195C5.24604 7.96795 4.03205 6.75392 2.49805 6.53516C2.22488 6.49598 2 6.27598 2 6C2 5.72402 2.22488 5.50401 2.49805 5.46484C4.03209 5.24609 5.24609 4.03209 5.46484 2.49805C5.50401 2.22488 5.72402 2 6 2Z" fill="oklch(0.3523 0 0 / 1)" class="wd-icon-accent"></path>
</svg>