<svg width="24" height="24" viewBox="0 0 24 24" xmlns="http://www.w3.org/2000/svg" class="wd-icon wd-icon-align-top" role="presentation">
<g>
<path d="M11.584 6.62402C11.782 6.3275 12.2182 6.32732 12.416 6.62402L15.4824 11.2227C15.7034 11.5547 15.4651 11.9994 15.0664 12H13V21.5C12.9999 21.7759 12.7759 21.9998 12.5 22H11.5C11.2241 21.9998 11.0001 21.7759 11 21.5V12H8.93457C8.53525 12 8.29713 11.5549 8.51855 11.2227L11.584 6.62402Z" fill="oklch(0.3523 0 0 / 1)" class="wd-icon-fill"></path>
<path d="M19.5 3C19.7761 3 20 3.22386 20 3.5V4.5C20 4.77614 19.7761 5 19.5 5H4.5C4.22386 5 4 4.77614 4 4.5V3.5C4 3.22386 4.22386 3 4.5 3H19.5Z" fill="oklch(0.3523 0 0 / 1)" class="wd-icon-fill"></path>
</g>
</svg>