<svg width="24" height="24" viewBox="0 0 24 24" xmlns="http://www.w3.org/2000/svg" class="wd-icon wd-icon-webpage-search" role="presentation">
<g>
<path d="M13 14C15.2091 14 17 15.7909 17 18C17 18.7417 16.7971 19.4358 16.4453 20.0312L18.1035 21.6895C18.2985 21.8846 18.2984 22.2012 18.1035 22.3965L17.3965 23.1035C17.2013 23.2987 16.8847 23.2986 16.6895 23.1035L15.0312 21.4453C14.4358 21.7971 13.7417 22 13 22C10.7909 22 9 20.2091 9 18C9 15.7909 10.7909 14 13 14ZM13 16C11.8954 16 11 16.8954 11 18C11 19.1046 11.8954 20 13 20C14.1046 20 15 19.1046 15 18C15 16.8954 14.1046 16 13 16Z" fill="oklch(0.3523 0 0 / 1)" class="wd-icon-fill"></path>
<path d="M20.5 4C21.3284 4 22 4.67157 22 5.5V18.5C22 19.3284 21.3284 20 20.5 20H19.5C19.2239 20 19 19.7761 19 19.5V18.5C19 18.2239 19.2239 18 19.5 18H20V9H4V18H6.5C6.77614 18 7 18.2239 7 18.5V19.5C7 19.7761 6.77614 20 6.5 20H3.5C2.67157 20 2 19.3284 2 18.5V5.5C2 4.67157 2.67157 4 3.5 4H20.5ZM4.5 6C4.22386 6 4 6.22386 4 6.5C4 6.77614 4.22386 7 4.5 7H5.5C5.77614 7 6 6.77614 6 6.5C6 6.22386 5.77614 6 5.5 6H4.5ZM7.5 6C7.22386 6 7 6.22386 7 6.5C7 6.77614 7.22386 7 7.5 7H8.5C8.77614 7 9 6.77614 9 6.5C9 6.22386 8.77614 6 8.5 6H7.5ZM10.5 6C10.2239 6 10 6.22386 10 6.5C10 6.77614 10.2239 7 10.5 7H11.5C11.7761 7 12 6.77614 12 6.5C12 6.22386 11.7761 6 11.5 6H10.5Z" fill="oklch(0.3523 0 0 / 1)" class="wd-icon-fill"></path>
</g>
</svg>