<svg width="24" height="24" viewBox="0 0 24 24" xmlns="http://www.w3.org/2000/svg" class="wd-icon wd-icon-send" role="presentation">
<path d="M5.178 7.12048C4.42865 5.49638 6.14279 3.835 7.74245 4.63513L19.0725 10.3041C20.4664 11.0015 20.4662 12.9912 19.0725 13.6888L7.74245 19.3578C6.14271 20.1579 4.42838 18.4966 5.178 16.8724L7.42898 11.9965L5.178 7.12048ZM9.14675 11.2035C9.15364 11.2184 9.15883 11.2343 9.1653 11.2494H12.5003C12.9144 11.2494 13.2501 11.5853 13.2503 11.9994C13.2503 12.4136 12.9145 12.7494 12.5003 12.7494H9.16237C9.15668 12.7625 9.15275 12.7764 9.14675 12.7894L6.89577 17.6654L18.2259 11.9965L6.89577 6.32751L9.14675 11.2035Z" fill="oklch(0.3523 0 0 / 1)" class="wd-icon-fill"></path>
</svg>