<svg width="24" height="24" viewBox="0 0 24 24" xmlns="http://www.w3.org/2000/svg" class="wd-icon wd-icon-backspace" role="presentation">
<g>
<path d="M14.9407 8.6416C15.1358 8.44642 15.4524 8.44663 15.6477 8.6416L16.3557 9.34863C16.5509 9.54384 16.5508 9.8604 16.3557 10.0557L14.4182 11.9932L16.3625 13.9375C16.5578 14.1328 16.5578 14.4493 16.3625 14.6445L15.6555 15.3516C15.4603 15.5465 15.1437 15.5467 14.9485 15.3516L13.0041 13.4072L11.0598 15.3516C10.8646 15.5466 10.548 15.5467 10.3528 15.3516L9.64575 14.6445C9.45077 14.4493 9.4508 14.1327 9.64575 13.9375L11.5891 11.9922L9.65259 10.0557C9.45763 9.86047 9.45765 9.54384 9.65259 9.34863L10.3596 8.6416C10.5548 8.44642 10.8714 8.44656 11.0666 8.6416L13.0032 10.5781L14.9407 8.6416Z" fill="oklch(0.3523 0 0 / 1)" class="wd-icon-fill"></path>
<path d="M21.4993 4C22.3277 4 22.9993 4.67157 22.9993 5.5V18.5C22.9993 19.3284 22.3277 20 21.4993 20H6.28931C5.75125 19.9998 5.25456 19.7113 4.98755 19.2441L1.2727 12.7441C1.00936 12.2831 1.00936 11.7169 1.2727 11.2559L4.98755 4.75586L5.0979 4.58887C5.37922 4.22086 5.8186 4.00014 6.28931 4H21.4993ZM3.15063 12L6.58032 18H20.9993V6H6.58032L3.15063 12Z" fill="oklch(0.3523 0 0 / 1)" class="wd-icon-fill"></path>
</g>
</svg>