<svg width="24" height="24" viewBox="0 0 24 24" xmlns="http://www.w3.org/2000/svg" class="wd-icon wd-icon-organization" role="presentation">
<g>
<path d="M5.40039 17C5.69665 17 5.85905 17.0012 5.97559 17.0107C5.97968 17.0111 5.9836 17.0114 5.9873 17.0117C5.98768 17.0157 5.98889 17.0199 5.98926 17.0244C5.99878 17.1409 6 17.3033 6 17.5996V18.4004C6 18.6967 5.99878 18.8591 5.98926 18.9756C5.98892 18.9797 5.98765 18.9836 5.9873 18.9873C5.98357 18.9877 5.97971 18.9889 5.97559 18.9893C5.85905 18.9988 5.69665 19 5.40039 19H4.59961C4.30335 19 4.14094 18.9988 4.02441 18.9893C4.01993 18.9889 4.01574 18.9877 4.01172 18.9873C4.01138 18.9836 4.01108 18.9797 4.01074 18.9756C4.00122 18.8591 4 18.6967 4 18.4004V17.5996C4 17.3033 4.00122 17.1409 4.01074 17.0244C4.01111 17.02 4.01135 17.0157 4.01172 17.0117C4.01571 17.0114 4.01997 17.0111 4.02441 17.0107C4.14094 17.0012 4.30335 17 4.59961 17H5.40039Z" fill="transparent" class="wd-icon-background"></path>
<path d="M12.4004 17C12.6966 17 12.8591 17.0012 12.9756 17.0107C12.9797 17.0111 12.9836 17.0114 12.9873 17.0117C12.9877 17.0157 12.9889 17.0199 12.9893 17.0244C12.9988 17.1409 13 17.3033 13 17.5996V18.4004C13 18.6967 12.9988 18.8591 12.9893 18.9756C12.9889 18.9797 12.9876 18.9836 12.9873 18.9873C12.9836 18.9877 12.9797 18.9889 12.9756 18.9893C12.8591 18.9988 12.6966 19 12.4004 19H11.5996C11.3033 19 11.1409 18.9988 11.0244 18.9893C11.0199 18.9889 11.0157 18.9877 11.0117 18.9873C11.0114 18.9836 11.0111 18.9797 11.0107 18.9756C11.0012 18.8591 11 18.6967 11 18.4004V17.5996C11 17.3033 11.0012 17.1409 11.0107 17.0244C11.0111 17.02 11.0114 17.0157 11.0117 17.0117C11.0157 17.0114 11.02 17.0111 11.0244 17.0107C11.1409 17.0012 11.3033 17 11.5996 17H12.4004Z" fill="transparent" class="wd-icon-background"></path>
<path d="M19.4004 17C19.6966 17 19.8591 17.0012 19.9756 17.0107C19.9797 17.0111 19.9836 17.0114 19.9873 17.0117C19.9877 17.0157 19.9889 17.0199 19.9893 17.0244C19.9988 17.1409 20 17.3033 20 17.5996V18.4004C20 18.6967 19.9988 18.8591 19.9893 18.9756C19.9889 18.9797 19.9876 18.9836 19.9873 18.9873C19.9836 18.9877 19.9797 18.9889 19.9756 18.9893C19.8591 18.9988 19.6966 19 19.4004 19H18.5996C18.3033 19 18.1409 18.9988 18.0244 18.9893C18.0199 18.9889 18.0157 18.9877 18.0117 18.9873C18.0114 18.9836 18.0111 18.9797 18.0107 18.9756C18.0012 18.8591 18 18.6967 18 18.4004V17.5996C18 17.3033 18.0012 17.1409 18.0107 17.0244C18.0111 17.02 18.0114 17.0157 18.0117 17.0117C18.0157 17.0114 18.02 17.0111 18.0244 17.0107C18.1409 17.0012 18.3033 17 18.5996 17H19.4004Z" fill="transparent" class="wd-icon-background"></path>
<path d="M12 4C12.4796 4 12.7894 4.00043 13.0264 4.0166C13.2542 4.03216 13.3412 4.05894 13.3828 4.07617C13.6277 4.17766 13.8223 4.37227 13.9238 4.61719C13.9411 4.65879 13.9678 4.74573 13.9834 4.97363C13.9996 5.21061 14 5.52038 14 6C14 6.47962 13.9996 6.78939 13.9834 7.02637C13.9678 7.25428 13.9411 7.34121 13.9238 7.38281C13.8223 7.62773 13.6277 7.82234 13.3828 7.92383C13.3412 7.94106 13.2542 7.96784 13.0264 7.9834C12.7894 7.99957 12.4796 8 12 8C11.5204 8 11.2106 7.99957 10.9736 7.9834C10.7457 7.96784 10.6588 7.94106 10.6172 7.92383C10.3723 7.82233 10.1777 7.62773 10.0762 7.38281C10.0589 7.3412 10.0322 7.25426 10.0166 7.02637C10.0004 6.78939 10 6.47962 10 6C10 5.52038 10.0004 5.21061 10.0166 4.97363C10.0322 4.74574 10.0589 4.6588 10.0762 4.61719C10.1777 4.37227 10.3723 4.17767 10.6172 4.07617C10.6588 4.05894 10.7457 4.03216 10.9736 4.0166C11.2106 4.00043 11.5204 4 12 4Z" fill="transparent" class="wd-icon-background"></path>
</g>
<path d="M12 2C12.4521 2 12.8413 1.99961 13.1621 2.02148C13.4919 2.04399 13.8225 2.09352 14.1485 2.22852C14.8832 2.53299 15.467 3.11679 15.7715 3.85156C15.9065 4.17749 15.956 4.50806 15.9785 4.83789C16.0004 5.15869 16 5.54787 16 6C16 6.45214 16.0004 6.84131 15.9785 7.16211C15.956 7.49194 15.9065 7.82251 15.7715 8.14844C15.467 8.88321 14.8832 9.46701 14.1485 9.77148C13.8225 9.90649 13.4919 9.95601 13.1621 9.97852C13.0353 9.98716 12.8978 9.9891 12.75 9.99219V11.25H15.7998C16.3475 11.25 16.8037 11.249 17.1748 11.2793C17.5545 11.3103 17.9109 11.3781 18.2481 11.5498C18.7655 11.8135 19.1866 12.2345 19.4502 12.752C19.6219 13.0891 19.6897 13.4455 19.7207 13.8252C19.7473 14.1504 19.7488 14.5409 19.749 15.001C19.8874 15.0026 20.0193 15.0068 20.1387 15.0166C20.3672 15.0353 20.637 15.0796 20.9082 15.2178C21.2374 15.3855 21.5129 15.6409 21.7051 15.9541L21.7822 16.0918L21.8692 16.2949C21.9406 16.4958 21.9694 16.6901 21.9834 16.8613C22.0011 17.0781 22 17.3362 22 17.5996V18.4004C22 18.6638 22.0011 18.9219 21.9834 19.1387C21.9647 19.3672 21.9205 19.6369 21.7822 19.9082C21.5905 20.2845 21.2845 20.5905 20.9082 20.7822C20.637 20.9204 20.3672 20.9647 20.1387 20.9834C19.9219 21.0011 19.6638 21 19.4004 21H18.5996C18.3362 21 18.0782 21.0011 17.8613 20.9834C17.6328 20.9647 17.3631 20.9204 17.0918 20.7822C16.7156 20.5905 16.4095 20.2845 16.2178 19.9082C16.0796 19.6369 16.0353 19.3672 16.0166 19.1387C15.9989 18.9219 16 18.6638 16 18.4004V17.5996C16 17.3362 15.9989 17.0781 16.0166 16.8613C16.0353 16.6328 16.0796 16.3631 16.2178 16.0918C16.4095 15.7155 16.7156 15.4095 17.0918 15.2178C17.3631 15.0796 17.6328 15.0353 17.8613 15.0166C17.9802 15.0069 18.1114 15.0027 18.249 15.001C18.2487 14.5362 18.2469 14.2074 18.2256 13.9473C18.2021 13.6603 18.1594 13.5232 18.1133 13.4326C17.9935 13.1975 17.8025 13.0065 17.5674 12.8867C17.4769 12.8406 17.3397 12.7979 17.0527 12.7744C16.7569 12.7502 16.3722 12.75 15.7998 12.75H12.75V15.001C12.8881 15.0027 13.0196 15.0069 13.1387 15.0166C13.3672 15.0353 13.637 15.0796 13.9082 15.2178C14.2375 15.3855 14.5129 15.6409 14.7051 15.9541L14.7822 16.0918L14.8692 16.2949C14.9406 16.4958 14.9694 16.6901 14.9834 16.8613C15.0011 17.0781 15 17.3362 15 17.5996V18.4004C15 18.6638 15.0011 18.9219 14.9834 19.1387C14.9647 19.3672 14.9205 19.6369 14.7822 19.9082C14.5905 20.2845 14.2845 20.5905 13.9082 20.7822C13.637 20.9204 13.3672 20.9647 13.1387 20.9834C12.9219 21.0011 12.6638 21 12.4004 21H11.5996C11.3362 21 11.0782 21.0011 10.8613 20.9834C10.6328 20.9647 10.3631 20.9204 10.0918 20.7822C9.71556 20.5905 9.40952 20.2845 9.21779 19.9082C9.07958 19.6369 9.03531 19.3672 9.01662 19.1387C8.9989 18.9219 9.00001 18.6638 9.00001 18.4004V17.5996C9.00001 17.3362 8.9989 17.0781 9.01662 16.8613C9.03531 16.6328 9.07958 16.3631 9.21779 16.0918C9.40952 15.7155 9.71556 15.4095 10.0918 15.2178C10.3631 15.0796 10.6328 15.0353 10.8613 15.0166C10.9804 15.0069 11.112 15.0027 11.25 15.001V12.75H8.20021C7.62779 12.75 7.24316 12.7502 6.94728 12.7744C6.66029 12.7979 6.52317 12.8406 6.43263 12.8867C6.19752 13.0065 6.00656 13.1975 5.88673 13.4326C5.8406 13.5232 5.79789 13.6603 5.77443 13.9473C5.75317 14.2074 5.75037 14.5362 5.75001 15.001C5.88805 15.0027 6.01959 15.0069 6.13869 15.0166C6.36719 15.0353 6.63696 15.0796 6.90822 15.2178C7.23745 15.3855 7.51295 15.6409 7.70509 15.9541L7.78224 16.0918L7.86915 16.2949C7.94065 16.4958 7.9694 16.6901 7.98341 16.8613C8.00113 17.0781 8.00001 17.3362 8.00001 17.5996V18.4004C8.00001 18.6638 8.00113 18.9219 7.98341 19.1387C7.96472 19.3672 7.92045 19.6369 7.78224 19.9082C7.59051 20.2845 7.28447 20.5905 6.90822 20.7822C6.63696 20.9204 6.36719 20.9647 6.13869 20.9834C5.92188 21.0011 5.66379 21 5.4004 21H4.59962C4.33624 21 4.07815 21.0011 3.86134 20.9834C3.63284 20.9647 3.36307 20.9204 3.09181 20.7822C2.71556 20.5905 2.40952 20.2845 2.21779 19.9082C2.07958 19.6369 2.03531 19.3672 2.01662 19.1387C1.9989 18.9219 2.00001 18.6638 2.00001 18.4004V17.5996C2.00001 17.3362 1.9989 17.0781 2.01662 16.8613C2.03531 16.6328 2.07958 16.3631 2.21779 16.0918C2.40952 15.7155 2.71556 15.4095 3.09181 15.2178C3.36307 15.0796 3.63284 15.0353 3.86134 15.0166C3.98043 15.0069 4.11198 15.0027 4.25001 15.001C4.25023 14.5409 4.25274 14.1504 4.27931 13.8252C4.31034 13.4455 4.37811 13.0891 4.54982 12.752C4.81347 12.2345 5.23453 11.8135 5.75197 11.5498C6.08911 11.3781 6.44548 11.3103 6.82521 11.2793C7.19634 11.249 7.65254 11.25 8.20021 11.25H11.25V9.99219C11.1022 9.9891 10.9647 9.98716 10.8379 9.97852C10.5081 9.95601 10.1775 9.90649 9.85158 9.77148C9.11681 9.46701 8.533 8.88321 8.22853 8.14844C8.09353 7.82251 8.044 7.49194 8.0215 7.16211C7.99963 6.84131 8.00001 6.45214 8.00001 6C8.00001 5.54787 7.99963 5.15869 8.0215 4.83789C8.044 4.50806 8.09353 4.17749 8.22853 3.85156C8.533 3.11679 9.11681 2.53299 9.85158 2.22852C10.1775 2.09351 10.5081 2.04399 10.8379 2.02148C11.1587 1.99961 11.5479 2 12 2ZM4.59962 17C4.30335 17 4.14096 17.0012 4.02443 17.0107C4.01997 17.0111 4.01573 17.0114 4.01173 17.0117C4.01136 17.0157 4.01112 17.02 4.01076 17.0244C4.00124 17.1409 4.00001 17.3033 4.00001 17.5996V18.4004C4.00001 18.6967 4.00124 18.8591 4.01076 18.9756C4.01109 18.9797 4.01139 18.9836 4.01173 18.9873C4.01576 18.9877 4.01994 18.9889 4.02443 18.9893C4.14096 18.9988 4.30335 19 4.59962 19H5.4004C5.69667 19 5.85907 18.9988 5.9756 18.9893C5.97973 18.9889 5.98358 18.9876 5.98732 18.9873C5.98766 18.9836 5.98893 18.9797 5.98927 18.9756C5.99879 18.8591 6.00001 18.6967 6.00001 18.4004V17.5996C6.00001 17.3033 5.99879 17.1409 5.98927 17.0244C5.9889 17.0199 5.98769 17.0157 5.98732 17.0117C5.98361 17.0114 5.9797 17.0111 5.9756 17.0107C5.85907 17.0012 5.69667 17 5.4004 17H4.59962ZM11.5996 17C11.3034 17 11.141 17.0012 11.0244 17.0107C11.02 17.0111 11.0157 17.0114 11.0117 17.0117C11.0114 17.0157 11.0111 17.02 11.0108 17.0244C11.0012 17.1409 11 17.3033 11 17.5996V18.4004C11 18.6967 11.0012 18.8591 11.0108 18.9756C11.0111 18.9797 11.0114 18.9836 11.0117 18.9873C11.0158 18.9877 11.0199 18.9889 11.0244 18.9893C11.141 18.9988 11.3034 19 11.5996 19H12.4004C12.6967 19 12.8591 18.9988 12.9756 18.9893C12.9797 18.9889 12.9836 18.9876 12.9873 18.9873C12.9877 18.9836 12.9889 18.9797 12.9893 18.9756C12.9988 18.8591 13 18.6967 13 18.4004V17.5996C13 17.3033 12.9988 17.1409 12.9893 17.0244C12.9889 17.0199 12.9877 17.0157 12.9873 17.0117C12.9836 17.0114 12.9797 17.0111 12.9756 17.0107C12.8591 17.0012 12.6967 17 12.4004 17H11.5996ZM18.5996 17C18.3034 17 18.141 17.0012 18.0244 17.0107C18.02 17.0111 18.0157 17.0114 18.0117 17.0117C18.0114 17.0157 18.0111 17.02 18.0108 17.0244C18.0012 17.1409 18 17.3033 18 17.5996V18.4004C18 18.6967 18.0012 18.8591 18.0108 18.9756C18.0111 18.9797 18.0114 18.9836 18.0117 18.9873C18.0158 18.9877 18.0199 18.9889 18.0244 18.9893C18.141 18.9988 18.3034 19 18.5996 19H19.4004C19.6967 19 19.8591 18.9988 19.9756 18.9893C19.9797 18.9889 19.9836 18.9876 19.9873 18.9873C19.9877 18.9836 19.9889 18.9797 19.9893 18.9756C19.9988 18.8591 20 18.6967 20 18.4004V17.5996C20 17.3033 19.9988 17.1409 19.9893 17.0244C19.9889 17.0199 19.9877 17.0157 19.9873 17.0117C19.9836 17.0114 19.9797 17.0111 19.9756 17.0107C19.8591 17.0012 19.6967 17 19.4004 17H18.5996ZM12 4C11.5204 4 11.2106 4.00043 10.9736 4.0166C10.7457 4.03216 10.6588 4.05894 10.6172 4.07617C10.3723 4.17766 10.1777 4.37227 10.0762 4.61719C10.059 4.6588 10.0322 4.74573 10.0166 4.97363C10.0004 5.21061 10 5.52038 10 6C10 6.47962 10.0004 6.78939 10.0166 7.02637C10.0322 7.25427 10.059 7.3412 10.0762 7.38281C10.1777 7.62773 10.3723 7.82234 10.6172 7.92383C10.6588 7.94106 10.7457 7.96784 10.9736 7.9834C11.2106 7.99957 11.5204 8 12 8C12.4796 8 12.7894 7.99957 13.0264 7.9834C13.2543 7.96784 13.3412 7.94106 13.3828 7.92383C13.6278 7.82234 13.8224 7.62774 13.9238 7.38281C13.9411 7.34121 13.9679 7.25428 13.9834 7.02637C13.9996 6.78939 14 6.47962 14 6C14 5.52038 13.9996 5.21061 13.9834 4.97363C13.9679 4.74573 13.9411 4.65879 13.9238 4.61719C13.8224 4.37227 13.6277 4.17766 13.3828 4.07617C13.3412 4.05894 13.2543 4.03216 13.0264 4.0166C12.7894 4.00043 12.4796 4 12 4Z" fill="oklch(0.3523 0 0 / 1)" class="wd-icon-fill"></path>
</svg>