<svg width="24" height="24" viewBox="0 0 24 24" xmlns="http://www.w3.org/2000/svg" class="wd-icon wd-icon-social-media" role="presentation">
<g>
<path d="M8 18C8.55228 18 9 18.4477 9 19C9 19.5523 8.55228 20 8 20C7.44772 20 7 19.5523 7 19C7 18.4477 7.44772 18 8 18Z" fill="transparent" class="wd-icon-background"></path>
<path d="M12 10.25C12.9665 10.25 13.75 11.0335 13.75 12C13.75 12.9665 12.9665 13.75 12 13.75C11.0335 13.75 10.25 12.9665 10.25 12C10.25 11.0335 11.0335 10.25 12 10.25Z" fill="transparent" class="wd-icon-background"></path>
<path d="M20 7C20.5523 7 21 7.44772 21 8C21 8.55228 20.5523 9 20 9C19.4477 9 19 8.55228 19 8C19 7.44772 19.4477 7 20 7Z" fill="transparent" class="wd-icon-background"></path>
<path d="M6 4C6.55228 4 7 4.44772 7 5C7 5.55228 6.55228 6 6 6C5.44772 6 5 5.55228 5 5C5 4.44772 5.44772 4 6 4Z" fill="transparent" class="wd-icon-background"></path>
</g>
<path d="M6 2C7.65685 2 9 3.34315 9 5C9 5.63872 8.79825 6.22932 8.45801 6.71582L10.1777 8.72168C10.7172 8.42116 11.3386 8.25 12 8.25C13.1973 8.25 14.2627 8.8119 14.9492 9.68555L17.0664 8.62695C17.0234 8.4247 17 8.21507 17 8C17 6.34315 18.3431 5 20 5C21.6569 5 23 6.34315 23 8C23 9.65685 21.6569 11 20 11C19.0967 11 18.2883 10.5994 17.7383 9.96777L15.6211 11.0264C15.7044 11.337 15.75 11.6631 15.75 12C15.75 14.0711 14.0711 15.75 12 15.75C11.5902 15.75 11.1962 15.683 10.8271 15.5615L10.0898 16.8506C10.6503 17.3957 11 18.1564 11 19C11 20.6569 9.65685 22 8 22C6.34315 22 5 20.6569 5 19C5 17.3431 6.34315 16 8 16C8.27266 16 8.53603 16.0393 8.78711 16.1074L9.52539 14.8154C8.74412 14.1282 8.25 13.1223 8.25 12C8.25 11.1325 8.54445 10.3336 9.03906 9.69824L7.31934 7.69043C6.92071 7.88628 6.47412 8 6 8C4.34315 8 3 6.65685 3 5C3 3.34315 4.34315 2 6 2ZM8 18C7.44772 18 7 18.4477 7 19C7 19.5523 7.44772 20 8 20C8.55228 20 9 19.5523 9 19C9 18.4477 8.55228 18 8 18ZM12 10.25C11.0335 10.25 10.25 11.0335 10.25 12C10.25 12.9665 11.0335 13.75 12 13.75C12.9665 13.75 13.75 12.9665 13.75 12C13.75 11.0335 12.9665 10.25 12 10.25ZM20 7C19.4477 7 19 7.44772 19 8C19 8.55228 19.4477 9 20 9C20.5523 9 21 8.55228 21 8C21 7.44772 20.5523 7 20 7ZM6 4C5.44772 4 5 4.44772 5 5C5 5.55228 5.44772 6 6 6C6.55228 6 7 5.55228 7 5C7 4.44772 6.55228 4 6 4Z" fill="oklch(0.3523 0 0 / 1)" class="wd-icon-fill"></path>
</svg>