<svg width="24" height="24" viewBox="0 0 24 24" xmlns="http://www.w3.org/2000/svg" class="wd-icon wd-icon-box-text-check" role="presentation">
<path d="M17.7998 3C18.3434 3 18.8116 2.99893 19.1953 3.03028C19.5906 3.06259 19.984 3.1344 20.3623 3.32715C20.9265 3.61473 21.3853 4.07348 21.6729 4.6377C21.8656 5.016 21.9374 5.40943 21.9697 5.80469C22.0011 6.18836 22 6.65665 22 7.2002V12C22 12.5523 21.5523 13 21 13C20.4477 13 20 12.5523 20 12V7.2002C20 6.62365 19.9987 6.25112 19.9756 5.96778C19.9534 5.69619 19.9158 5.59534 19.8906 5.5459C19.7948 5.35793 19.6421 5.20522 19.4541 5.10938C19.4047 5.08419 19.3038 5.04662 19.0322 5.02442C18.7489 5.00127 18.3764 5 17.7998 5H6.2002C5.62365 5 5.25112 5.00127 4.96778 5.02442C4.69619 5.04662 4.59534 5.08419 4.5459 5.10938C4.35793 5.20522 4.20522 5.35793 4.10938 5.5459C4.08419 5.59534 4.04662 5.69619 4.02442 5.96778C4.00127 6.25112 4 6.62365 4 7.2002V16.7998C4 17.3764 4.00127 17.7489 4.02442 18.0322C4.04662 18.3038 4.08419 18.4047 4.10938 18.4541C4.20522 18.6421 4.35793 18.7948 4.5459 18.8906C4.59534 18.9158 4.69619 18.9534 4.96778 18.9756C5.25112 18.9987 5.62365 19 6.2002 19H12C12.5523 19 13 19.4477 13 20C13 20.5523 12.5523 21 12 21H6.2002C5.65665 21 5.18836 21.0011 4.80469 20.9697C4.40943 20.9374 4.016 20.8656 3.6377 20.6729C3.07348 20.3853 2.61473 19.9265 2.32715 19.3623C2.1344 18.984 2.06259 18.5906 2.03028 18.1953C1.99893 17.8116 2 17.3434 2 16.7998V7.2002C2 6.65665 1.99893 6.18836 2.03028 5.80469C2.06259 5.40943 2.1344 5.016 2.32715 4.6377C2.61473 4.07348 3.07348 3.61473 3.6377 3.32715C4.016 3.1344 4.40943 3.06259 4.80469 3.03028C5.18836 2.99893 5.65665 3 6.2002 3H17.7998Z" fill="oklch(0.3523 0 0 / 1)" class="wd-icon-fill"></path>
<g>
<path d="M20.7578 17.5195C21.023 17.2016 21.4963 17.1588 21.8145 17.4238C22.1323 17.689 22.175 18.1624 21.9102 18.4805L18.5771 22.4805C18.4348 22.6513 18.2233 22.7498 18.001 22.75C17.7786 22.75 17.5673 22.6512 17.4248 22.4805L15.7578 20.4805C15.4927 20.1623 15.5354 19.689 15.8535 19.4238C16.1716 19.159 16.645 19.2016 16.9102 19.5195L18 20.8281L20.7578 17.5195Z" fill="oklch(0.3523 0 0 / 1)" class="wd-icon-accent"></path>
<path d="M12.25 14.25C12.6642 14.25 13 14.5858 13 15C13 15.4142 12.6642 15.75 12.25 15.75H7.75C7.33579 15.75 7 15.4142 7 15C7 14.5858 7.33579 14.25 7.75 14.25H12.25Z" fill="oklch(0.3523 0 0 / 1)" class="wd-icon-accent"></path>
<path d="M16.25 11.25C16.6642 11.25 17 11.5858 17 12C17 12.4142 16.6642 12.75 16.25 12.75H7.75C7.33579 12.75 7 12.4142 7 12C7 11.5858 7.33579 11.25 7.75 11.25H16.25Z" fill="oklch(0.3523 0 0 / 1)" class="wd-icon-accent"></path>
<path d="M16.25 8.25C16.6642 8.25 17 8.58579 17 9C17 9.41421 16.6642 9.75 16.25 9.75H7.75C7.33579 9.75 7 9.41421 7 9C7 8.58579 7.33579 8.25 7.75 8.25H16.25Z" fill="oklch(0.3523 0 0 / 1)" class="wd-icon-accent"></path>
</g>
</svg>