<svg width="24" height="24" viewBox="0 0 24 24" xmlns="http://www.w3.org/2000/svg" class="wd-icon wd-icon-keyboard" role="presentation">
<path d="M18.7979 5C19.3414 5 19.8097 4.99893 20.1934 5.03028C20.5886 5.06259 20.9821 5.1344 21.3604 5.32715C21.9246 5.61473 22.3833 6.07348 22.6709 6.6377C22.8637 7.016 22.9355 7.40944 22.9678 7.80469C22.9991 8.18836 22.9981 8.65665 22.9981 9.2002V14.7998C22.9981 15.3434 22.9991 15.8116 22.9678 16.1953C22.9355 16.5906 22.8637 16.984 22.6709 17.3623C22.3833 17.9265 21.9246 18.3853 21.3604 18.6729C20.9821 18.8656 20.5886 18.9374 20.1934 18.9697C19.8097 19.0011 19.3414 19 18.7979 19H5.19825C4.65469 19 4.18641 19.0011 3.80274 18.9697C3.40748 18.9374 3.01404 18.8656 2.63575 18.6729C2.07152 18.3853 1.61277 17.9265 1.3252 17.3623C1.13245 16.984 1.06064 16.5906 1.02832 16.1953C0.996978 15.8116 0.998051 15.3434 0.998051 14.7998V9.2002C0.998051 8.65665 0.996978 8.18836 1.02832 7.80469C1.06064 7.40943 1.13245 7.016 1.3252 6.6377C1.61277 6.07348 2.07152 5.61473 2.63575 5.32715C3.01404 5.1344 3.40748 5.06259 3.80274 5.03028C4.18641 4.99893 4.6547 5 5.19825 5H18.7979ZM5.19825 7C4.62169 7 4.24916 7.00127 3.96582 7.02442C3.69424 7.04662 3.59339 7.08419 3.54395 7.10938C3.35598 7.20522 3.20327 7.35793 3.10743 7.5459C3.08224 7.59534 3.04466 7.69619 3.02247 7.96778C2.99932 8.25111 2.99805 8.62365 2.99805 9.2002V14.7998C2.99805 15.3764 2.99932 15.7489 3.02247 16.0322C3.04466 16.3038 3.08224 16.4047 3.10743 16.4541C3.20327 16.6421 3.35598 16.7948 3.54395 16.8906C3.59339 16.9158 3.69424 16.9534 3.96582 16.9756C4.24916 16.9987 4.62169 17 5.19825 17H18.7979C19.3744 17 19.7469 16.9987 20.0303 16.9756C20.3019 16.9534 20.4027 16.9158 20.4522 16.8906C20.6401 16.7948 20.7928 16.6421 20.8887 16.4541C20.9139 16.4047 20.9524 16.3039 20.9746 16.0322C20.9978 15.7489 20.9981 15.3764 20.9981 14.7998V9.2002C20.9981 8.62365 20.9978 8.25111 20.9746 7.96778C20.9524 7.69613 20.9139 7.59535 20.8887 7.5459C20.7928 7.35793 20.6401 7.20522 20.4522 7.10938C20.4027 7.08419 20.3019 7.04661 20.0303 7.02442C19.7469 7.00127 19.3744 7 18.7979 7H5.19825Z" fill="oklch(0.3523 0 0 / 1)" class="wd-icon-fill"></path>
<g>
<path d="M14.1982 14C14.4779 14 14.6177 14.0003 14.7246 14.0547C14.8187 14.1026 14.8954 14.1794 14.9434 14.2734C14.9977 14.3803 14.998 14.5201 14.998 14.7998V15.2002C14.998 15.4799 14.9977 15.6197 14.9434 15.7266C14.8954 15.8206 14.8187 15.8974 14.7246 15.9453C14.6177 15.9997 14.4779 16 14.1982 16H9.79785C9.51819 16 9.37838 15.9997 9.27148 15.9453C9.1774 15.8974 9.10067 15.8206 9.05273 15.7266C8.99839 15.6197 8.99805 15.4799 8.99805 15.2002V14.7998C8.99805 14.5201 8.99839 14.3803 9.05273 14.2734C9.10067 14.1794 9.1774 14.1026 9.27148 14.0547C9.37838 14.0003 9.51819 14 9.79785 14H14.1982Z" fill="oklch(0.3523 0 0 / 1)" class="wd-icon-accent"></path>
<path d="M6.19824 11C6.47791 11 6.61771 11.0003 6.72461 11.0547C6.81869 11.1026 6.89542 11.1794 6.94336 11.2734C6.99771 11.3803 6.99805 11.5201 6.99805 11.7998V12.2002C6.99805 12.4799 6.99771 12.6197 6.94336 12.7266C6.89542 12.8206 6.81869 12.8974 6.72461 12.9453C6.61771 12.9997 6.47791 13 6.19824 13H5.79785C5.51819 13 5.37838 12.9997 5.27148 12.9453C5.1774 12.8974 5.10067 12.8206 5.05273 12.7266C4.99839 12.6197 4.99805 12.4799 4.99805 12.2002V11.7998C4.99805 11.5201 4.99839 11.3803 5.05273 11.2734C5.10067 11.1794 5.1774 11.1026 5.27148 11.0547C5.37838 11.0003 5.51819 11 5.79785 11H6.19824Z" fill="oklch(0.3523 0 0 / 1)" class="wd-icon-accent"></path>
<path d="M9.19824 11C9.47791 11 9.61771 11.0003 9.72461 11.0547C9.81869 11.1026 9.89542 11.1794 9.94336 11.2734C9.99771 11.3803 9.99805 11.5201 9.99805 11.7998V12.2002C9.99805 12.4799 9.99771 12.6197 9.94336 12.7266C9.89542 12.8206 9.81869 12.8974 9.72461 12.9453C9.61771 12.9997 9.47791 13 9.19824 13H8.79785C8.51819 13 8.37838 12.9997 8.27148 12.9453C8.1774 12.8974 8.10067 12.8206 8.05273 12.7266C7.99839 12.6197 7.99805 12.4799 7.99805 12.2002V11.7998C7.99805 11.5201 7.99839 11.3803 8.05273 11.2734C8.10067 11.1794 8.1774 11.1026 8.27148 11.0547C8.37838 11.0003 8.51819 11 8.79785 11H9.19824Z" fill="oklch(0.3523 0 0 / 1)" class="wd-icon-accent"></path>
<path d="M12.1982 11C12.4779 11 12.6177 11.0003 12.7246 11.0547C12.8187 11.1026 12.8954 11.1794 12.9434 11.2734C12.9977 11.3803 12.998 11.5201 12.998 11.7998V12.2002C12.998 12.4799 12.9977 12.6197 12.9434 12.7266C12.8954 12.8206 12.8187 12.8974 12.7246 12.9453C12.6177 12.9997 12.4779 13 12.1982 13H11.7979C11.5182 13 11.3784 12.9997 11.2715 12.9453C11.1774 12.8974 11.1007 12.8206 11.0527 12.7266C10.9984 12.6197 10.998 12.4799 10.998 12.2002V11.7998C10.998 11.5201 10.9984 11.3803 11.0527 11.2734C11.1007 11.1794 11.1774 11.1026 11.2715 11.0547C11.3784 11.0003 11.5182 11 11.7979 11H12.1982Z" fill="oklch(0.3523 0 0 / 1)" class="wd-icon-accent"></path>
<path d="M15.1982 11C15.4779 11 15.6177 11.0003 15.7246 11.0547C15.8187 11.1026 15.8954 11.1794 15.9434 11.2734C15.9977 11.3803 15.998 11.5201 15.998 11.7998V12.2002C15.998 12.4799 15.9977 12.6197 15.9434 12.7266C15.8954 12.8206 15.8187 12.8974 15.7246 12.9453C15.6177 12.9997 15.4779 13 15.1982 13H14.7979C14.5182 13 14.3784 12.9997 14.2715 12.9453C14.1774 12.8974 14.1007 12.8206 14.0527 12.7266C13.9984 12.6197 13.998 12.4799 13.998 12.2002V11.7998C13.998 11.5201 13.9984 11.3803 14.0527 11.2734C14.1007 11.1794 14.1774 11.1026 14.2715 11.0547C14.3784 11.0003 14.5182 11 14.7979 11H15.1982Z" fill="oklch(0.3523 0 0 / 1)" class="wd-icon-accent"></path>
<path d="M18.1982 11C18.4779 11 18.6177 11.0003 18.7246 11.0547C18.8187 11.1026 18.8954 11.1794 18.9434 11.2734C18.9977 11.3803 18.998 11.5201 18.998 11.7998V12.2002C18.998 12.4799 18.9977 12.6197 18.9434 12.7266C18.8954 12.8206 18.8187 12.8974 18.7246 12.9453C18.6177 12.9997 18.4779 13 18.1982 13H17.7979C17.5182 13 17.3784 12.9997 17.2715 12.9453C17.1774 12.8974 17.1007 12.8206 17.0527 12.7266C16.9984 12.6197 16.998 12.4799 16.998 12.2002V11.7998C16.998 11.5201 16.9984 11.3803 17.0527 11.2734C17.1007 11.1794 17.1774 11.1026 17.2715 11.0547C17.3784 11.0003 17.5182 11 17.7979 11H18.1982Z" fill="oklch(0.3523 0 0 / 1)" class="wd-icon-accent"></path>
<path d="M6.19824 8C6.47791 8 6.61771 8.00034 6.72461 8.05469C6.81869 8.10262 6.89542 8.17936 6.94336 8.27344C6.99771 8.38033 6.99805 8.52014 6.99805 8.7998V9.2002C6.99805 9.47986 6.99771 9.61967 6.94336 9.72656C6.89542 9.82064 6.81869 9.89738 6.72461 9.94531C6.61771 9.99966 6.47791 10 6.19824 10H5.79785C5.51819 10 5.37838 9.99966 5.27148 9.94531C5.1774 9.89738 5.10067 9.82064 5.05273 9.72656C4.99839 9.61967 4.99805 9.47986 4.99805 9.2002V8.7998C4.99805 8.52014 4.99839 8.38033 5.05273 8.27344C5.10067 8.17936 5.1774 8.10262 5.27148 8.05469C5.37838 8.00034 5.51819 8 5.79785 8H6.19824Z" fill="oklch(0.3523 0 0 / 1)" class="wd-icon-accent"></path>
<path d="M9.19824 8C9.47791 8 9.61771 8.00034 9.72461 8.05469C9.81869 8.10262 9.89542 8.17936 9.94336 8.27344C9.99771 8.38033 9.99805 8.52014 9.99805 8.7998V9.2002C9.99805 9.47986 9.99771 9.61967 9.94336 9.72656C9.89542 9.82064 9.81869 9.89738 9.72461 9.94531C9.61771 9.99966 9.47791 10 9.19824 10H8.79785C8.51819 10 8.37838 9.99966 8.27148 9.94531C8.1774 9.89738 8.10067 9.82064 8.05273 9.72656C7.99839 9.61967 7.99805 9.47986 7.99805 9.2002V8.7998C7.99805 8.52014 7.99839 8.38033 8.05273 8.27344C8.10067 8.17936 8.1774 8.10262 8.27148 8.05469C8.37838 8.00034 8.51819 8 8.79785 8H9.19824Z" fill="oklch(0.3523 0 0 / 1)" class="wd-icon-accent"></path>
<path d="M12.1982 8C12.4779 8 12.6177 8.00034 12.7246 8.05469C12.8187 8.10262 12.8954 8.17936 12.9434 8.27344C12.9977 8.38033 12.998 8.52014 12.998 8.7998V9.2002C12.998 9.47986 12.9977 9.61967 12.9434 9.72656C12.8954 9.82064 12.8187 9.89738 12.7246 9.94531C12.6177 9.99966 12.4779 10 12.1982 10H11.7979C11.5182 10 11.3784 9.99966 11.2715 9.94531C11.1774 9.89738 11.1007 9.82064 11.0527 9.72656C10.9984 9.61967 10.998 9.47986 10.998 9.2002V8.7998C10.998 8.52014 10.9984 8.38033 11.0527 8.27344C11.1007 8.17936 11.1774 8.10262 11.2715 8.05469C11.3784 8.00034 11.5182 8 11.7979 8H12.1982Z" fill="oklch(0.3523 0 0 / 1)" class="wd-icon-accent"></path>
<path d="M15.1982 8C15.4779 8 15.6177 8.00034 15.7246 8.05469C15.8187 8.10262 15.8954 8.17936 15.9434 8.27344C15.9977 8.38033 15.998 8.52014 15.998 8.7998V9.2002C15.998 9.47986 15.9977 9.61967 15.9434 9.72656C15.8954 9.82064 15.8187 9.89738 15.7246 9.94531C15.6177 9.99966 15.4779 10 15.1982 10H14.7979C14.5182 10 14.3784 9.99966 14.2715 9.94531C14.1774 9.89738 14.1007 9.82064 14.0527 9.72656C13.9984 9.61967 13.998 9.47986 13.998 9.2002V8.7998C13.998 8.52014 13.9984 8.38033 14.0527 8.27344C14.1007 8.17936 14.1774 8.10262 14.2715 8.05469C14.3784 8.00034 14.5182 8 14.7979 8H15.1982Z" fill="oklch(0.3523 0 0 / 1)" class="wd-icon-accent"></path>
<path d="M18.1982 8C18.4779 8 18.6177 8.00034 18.7246 8.05469C18.8187 8.10262 18.8954 8.17936 18.9434 8.27344C18.9977 8.38033 18.998 8.52014 18.998 8.7998V9.2002C18.998 9.47986 18.9977 9.61967 18.9434 9.72656C18.8954 9.82064 18.8187 9.89738 18.7246 9.94531C18.6177 9.99966 18.4779 10 18.1982 10H17.7979C17.5182 10 17.3784 9.99966 17.2715 9.94531C17.1774 9.89738 17.1007 9.82064 17.0527 9.72656C16.9984 9.61967 16.998 9.47986 16.998 9.2002V8.7998C16.998 8.52014 16.9984 8.38033 17.0527 8.27344C17.1007 8.17936 17.1774 8.10262 17.2715 8.05469C17.3784 8.00034 17.5182 8 17.7979 8H18.1982Z" fill="oklch(0.3523 0 0 / 1)" class="wd-icon-accent"></path>
</g>
</svg>