<svg width="24" height="24" viewBox="0 0 24 24" xmlns="http://www.w3.org/2000/svg" class="wd-icon wd-icon-add-left" role="presentation">
<g>
<path d="M6 4C6.55228 4 7 4.44772 7 5V19C7 19.5523 6.55228 20 6 20C5.44772 20 5 19.5523 5 19V5C5 4.44772 5.44772 4 6 4Z" fill="oklch(0.3523 0 0 / 1)" class="wd-icon-fill"></path>
<path d="M15 7C15.5523 7 16 7.44772 16 8V11H19C19.5523 11 20 11.4477 20 12C20 12.5523 19.5523 13 19 13H16V16C16 16.5523 15.5523 17 15 17C14.4477 17 14 16.5523 14 16V13H11C10.4477 13 10 12.5523 10 12C10 11.4477 10.4477 11 11 11H14V8C14 7.44772 14.4477 7 15 7Z" fill="oklch(0.3523 0 0 / 1)" class="wd-icon-fill"></path>
</g>
</svg>