<svg width="24" height="24" viewBox="0 0 24 24" xmlns="http://www.w3.org/2000/svg" class="wd-icon wd-icon-arrow-right-enter" role="presentation">
<g>
<path d="M14.2002 4C15.0237 4 15.7016 3.99898 16.252 4.04395C16.814 4.08988 17.3311 4.18827 17.8164 4.43555C18.5689 4.81902 19.181 5.43109 19.5645 6.1836C19.8117 6.6689 19.9101 7.18599 19.9561 7.74805C20.001 8.29843 20 8.97632 20 9.79981V14.2002C20 15.0237 20.001 15.7016 19.9561 16.252C19.9101 16.814 19.8117 17.3311 19.5645 17.8164C19.181 18.5689 18.5689 19.181 17.8164 19.5645C17.3311 19.8117 16.814 19.9101 16.252 19.9561C15.7016 20.001 15.0237 20 14.2002 20H14C13.4477 20 13 19.5523 13 19C13 18.4477 13.4477 18 14 18H14.2002C15.0566 18 15.6388 17.9997 16.0889 17.9629C16.5273 17.9271 16.7518 17.8619 16.9082 17.7822C17.2845 17.5905 17.5905 17.2845 17.7822 16.9082C17.8619 16.7518 17.9271 16.5273 17.9629 16.0889C17.9997 15.6388 18 15.0566 18 14.2002V9.79981C18 8.94342 17.9997 8.36117 17.9629 7.91113C17.9271 7.47272 17.8619 7.2482 17.7822 7.0918C17.5905 6.71555 17.2845 6.40951 16.9082 6.21778C16.7518 6.13809 16.5273 6.07293 16.0889 6.03711C15.6388 6.00035 15.0566 6 14.2002 6H14C13.4477 6 13 5.55229 13 5C13 4.44772 13.4477 4 14 4H14.2002Z" fill="oklch(0.3523 0 0 / 1)" class="wd-icon-fill"></path>
<path d="M8.29297 8.29297C8.68334 7.90266 9.31649 7.90294 9.70703 8.29297L12.707 11.293C13.0971 11.6835 13.0973 12.3167 12.707 12.707L9.70703 15.707C9.31667 16.0974 8.68353 16.0971 8.29297 15.707C7.90287 15.3165 7.90259 14.6834 8.29297 14.293L9.58594 13H4.00098C3.44882 13 3.00118 12.5521 3.00098 12C3.00116 11.4479 3.4488 11 4.00098 11H9.58594L8.29297 9.70703C7.90294 9.31649 7.90266 8.68334 8.29297 8.29297Z" fill="oklch(0.3523 0 0 / 1)" class="wd-icon-fill"></path>
</g>
</svg>