<svg width="24" height="24" viewBox="0 0 24 24" xmlns="http://www.w3.org/2000/svg" class="wd-icon wd-icon-id-card" role="presentation">
<path d="M14.2002 4C15.0566 4 15.6388 4.00035 16.0889 4.03711C16.5273 4.07293 16.7518 4.13809 16.9082 4.21777C17.2845 4.40951 17.5905 4.71555 17.7822 5.0918C17.8619 5.2482 17.9271 5.47272 17.9629 5.91113C17.9997 6.36117 18 6.94342 18 7.7998V16.2002C18 17.0566 17.9997 17.6388 17.9629 18.0889C17.9271 18.5273 17.8619 18.7518 17.7822 18.9082C17.5905 19.2845 17.2845 19.5905 16.9082 19.7822C16.7518 19.8619 16.5273 19.9271 16.0889 19.9629C15.6388 19.9997 15.0566 20 14.2002 20H9.7998C8.94342 20 8.36117 19.9997 7.91113 19.9629C7.47272 19.9271 7.2482 19.8619 7.0918 19.7822C6.71555 19.5905 6.40951 19.2845 6.21777 18.9082C6.13808 18.7518 6.07293 18.5273 6.03711 18.0889C6.00035 17.6388 6 17.0566 6 16.2002V7.7998C6 6.94342 6.00035 6.36117 6.03711 5.91113C6.07293 5.47273 6.13809 5.2482 6.21777 5.0918C6.40951 4.71555 6.71555 4.40951 7.0918 4.21777C7.2482 4.13809 7.47273 4.07293 7.91113 4.03711C8.36117 4.00035 8.94342 4 9.7998 4H14.2002ZM12 14C10.4479 14 9.10252 14.5012 8.43945 15.6611C8.17792 16.1187 8.49744 16.6497 9.01562 16.7461C9.69445 16.8723 10.7016 17 12 17C13.2987 17 14.3065 16.8723 14.9854 16.7461C15.5032 16.6495 15.8228 16.1186 15.5615 15.6611C14.8985 14.501 13.5522 14 12 14ZM12 9C10.8955 9.00012 10 9.8955 10 11C10 12.1045 10.8955 12.9999 12 13C13.1045 12.9999 14 12.1045 14 11C14 9.8955 13.1045 9.00012 12 9ZM10.75 5C10.3358 5 10 5.33579 10 5.75C10 6.16421 10.3358 6.5 10.75 6.5H13.25C13.6642 6.5 14 6.16421 14 5.75C14 5.33579 13.6642 5 13.25 5H10.75Z" fill="transparent" class="wd-icon-background"></path>
<path d="M14.2002 2C15.0237 2 15.7016 1.99898 16.252 2.04395C16.814 2.08988 17.3311 2.18828 17.8164 2.43555C18.5689 2.81902 19.181 3.43109 19.5645 4.1836C19.8117 4.66889 19.9101 5.186 19.9561 5.74805C20.001 6.29842 20 6.97633 20 7.79981V16.2002C20 17.0237 20.001 17.7016 19.9561 18.252C19.9101 18.814 19.8117 19.3311 19.5645 19.8164C19.181 20.5689 18.5689 21.181 17.8164 21.5645C17.3311 21.8117 16.814 21.9101 16.252 21.9561C15.7016 22.001 15.0237 22 14.2002 22H9.79981C8.97632 22 8.29843 22.001 7.74805 21.9561C7.186 21.9101 6.6689 21.8117 6.1836 21.5645C5.4311 21.181 4.81902 20.5689 4.43555 19.8164C4.18828 19.3311 4.08988 18.814 4.04395 18.252C3.99898 17.7016 4 17.0237 4 16.2002V7.79981C4 6.97633 3.99898 6.29842 4.04395 5.74805C4.08988 5.186 4.18828 4.66889 4.43555 4.1836C4.81902 3.4311 5.4311 2.81902 6.1836 2.43555C6.6689 2.18828 7.186 2.08988 7.74805 2.04395C8.29843 1.99898 8.97632 2 9.79981 2H14.2002ZM9.79981 4C8.94342 4 8.36117 4.00035 7.91113 4.03711C7.47273 4.07293 7.2482 4.13809 7.0918 4.21778C6.71555 4.40951 6.40951 4.71555 6.21778 5.0918C6.13809 5.2482 6.07293 5.47274 6.03711 5.91113C6.00035 6.36117 6 6.94343 6 7.79981V16.2002C6 17.0566 6.00035 17.6388 6.03711 18.0889C6.07293 18.5273 6.13809 18.7518 6.21778 18.9082C6.40951 19.2845 6.71555 19.5905 7.0918 19.7822C7.2482 19.8619 7.47273 19.9271 7.91113 19.9629C8.36117 19.9997 8.94342 20 9.79981 20H14.2002C15.0566 20 15.6388 19.9997 16.0889 19.9629C16.5273 19.9271 16.7518 19.8619 16.9082 19.7822C17.2845 19.5905 17.5905 19.2845 17.7822 18.9082C17.8619 18.7518 17.9271 18.5273 17.9629 18.0889C17.9997 17.6388 18 17.0566 18 16.2002V7.79981C18 6.94343 17.9997 6.36117 17.9629 5.91113C17.9271 5.47273 17.8619 5.2482 17.7822 5.0918C17.5905 4.71555 17.2845 4.40951 16.9082 4.21778C16.7518 4.13809 16.5273 4.07293 16.0889 4.03711C15.6388 4.00035 15.0566 4 14.2002 4H9.79981Z" fill="oklch(0.3523 0 0 / 1)" class="wd-icon-fill"></path>
<g>
<path d="M12 14C13.5521 14.0001 14.8985 14.5011 15.5615 15.6611C15.8227 16.1185 15.503 16.6494 14.9853 16.7461C14.3065 16.8723 13.2985 17 12 17C10.7017 17 9.6944 16.8723 9.01558 16.7461C8.4974 16.6497 8.17788 16.1187 8.43941 15.6611C9.10249 14.5013 10.4479 14 12 14Z" fill="oklch(0.3523 0 0 / 1)" class="wd-icon-accent"></path>
<path d="M12 9C13.1043 9.00021 14 9.89556 14 11C14 12.1044 13.1043 12.9998 12 13C10.8955 12.9999 9.99995 12.1045 9.99995 11C9.99995 9.8955 10.8955 9.00012 12 9Z" fill="oklch(0.3523 0 0 / 1)" class="wd-icon-accent"></path>
<path d="M13.25 5C13.6641 5.00009 14 5.33584 14 5.75C14 6.16416 13.6641 6.49991 13.25 6.5H10.75C10.3357 6.5 9.99995 6.16421 9.99995 5.75C9.99995 5.33579 10.3357 5 10.75 5H13.25Z" fill="oklch(0.3523 0 0 / 1)" class="wd-icon-accent"></path>
</g>
</svg>