<svg width="24" height="24" viewBox="0 0 24 24" xmlns="http://www.w3.org/2000/svg" class="wd-icon wd-icon-mail" role="presentation">
<path d="M21 4C21.5523 4 22 4.44772 22 5V19C22 19.5523 21.5523 20 21 20H3C2.44772 20 2 19.5523 2 19V5C2 4.44772 2.44772 4 3 4H21ZM12.5146 14.8584C12.1981 15.0482 11.8019 15.0482 11.4854 14.8584L9.6543 13.7588L5.41406 18H18.5859L14.3447 13.7588L12.5146 14.8584ZM4 16.5859L7.88672 12.6982L4 10.3662V16.5859ZM16.1123 12.6982L20 16.5859V10.3662L16.1123 12.6982ZM4 8.03418L12 12.834L20 8.03418V6H4V8.03418Z" fill="oklch(0.3523 0 0 / 1)" class="wd-icon-fill"></path>
</svg>