<svg width="24" height="24" viewBox="0 0 24 24" xmlns="http://www.w3.org/2000/svg" class="wd-icon wd-icon-hashmark" role="presentation">
<path d="M11.4141 3C11.7427 3.00017 11.9817 3.31237 11.8965 3.62988L10.7236 8H14.6533L15.8955 3.37012C15.9542 3.15171 16.1527 3 16.3789 3H17.4141C17.7427 3.00017 17.9817 3.31237 17.8965 3.62988L16.7236 8H21.5C21.7761 8 22 8.22386 22 8.5V9.5C22 9.77614 21.7761 10 21.5 10H16.1875L15.1143 14H19.5C19.7761 14 20 14.2239 20 14.5V15.5C20 15.7761 19.7761 16 19.5 16H14.5781L13.3359 20.6299C13.2772 20.8482 13.0787 21 12.8525 21H11.8184C11.4895 21 11.2498 20.6877 11.335 20.3701L12.5068 16H8.57812L7.33594 20.6299C7.27722 20.8482 7.07868 21 6.85254 21H5.81836C5.48953 21 5.24975 20.6877 5.33496 20.3701L6.50684 16H2.5C2.22386 16 2 15.7761 2 15.5V14.5C2 14.2239 2.22386 14 2.5 14H7.04395L8.11719 10H4.5C4.22386 10 4 9.77614 4 9.5V8.5C4 8.22386 4.22386 8 4.5 8H8.65332L9.89551 3.37012C9.9542 3.15171 10.1527 3 10.3789 3H11.4141ZM10.1875 10L9.11426 14H13.0439L14.1172 10H10.1875Z" fill="oklch(0.3523 0 0 / 1)" class="wd-icon-fill"></path>
</svg>