<svg width="24" height="24" viewBox="0 0 24 24" xmlns="http://www.w3.org/2000/svg" class="wd-icon wd-icon-square" role="presentation">
<path d="M3 3.5C3 3.22386 3.22386 3 3.5 3H20.5C20.7761 3 21 3.22386 21 3.5V20.5C21 20.7761 20.7761 21 20.5 21H3.5C3.22386 21 3 20.7761 3 20.5V3.5Z" fill="transparent" class="wd-icon-background"></path>
<path d="M20.5 2C21.3284 2 22 2.67157 22 3.5V20.5C22 21.3284 21.3284 22 20.5 22H3.5C2.67157 22 2 21.3284 2 20.5V3.5C2 2.67157 2.67157 2 3.5 2H20.5ZM4 20H20V4H4V20Z" fill="oklch(0.3523 0 0 / 1)" class="wd-icon-fill"></path>
</svg>