<svg width="24" height="24" viewBox="0 0 24 24" xmlns="http://www.w3.org/2000/svg" class="wd-icon wd-icon-wallet" role="presentation">
<path d="M17 7V2L4.97618 4.57653C3.83036 4.82207 3.00982 5.83009 3.00009 7L3 17C3 18.6569 4.34315 20 6 20H21V7H17Z" fill="transparent" class="wd-icon-background"></path>
<path d="M16.79 1.02317C17.0853 0.959899 17.3941 1.03351 17.6289 1.22337C17.8635 1.41323 18 1.69893 18 2.00071V6.00071H21C21.5523 6.00071 22 6.44843 22 7.00071V20.0007C21.9998 20.5528 21.5522 21.0007 21 21.0007H6C3.79099 21.0007 2.00021 19.2097 2 17.0007V7.00071C2 6.96356 2.00191 6.92647 2.00586 6.89036C2.06524 5.29625 3.19595 3.93596 4.7666 3.59935L16.79 1.02317ZM4 17.0007C4.00021 18.1051 4.89556 19.0007 6 19.0007H20V17.0007H15.877C15.5738 17.0006 15.2864 16.8622 15.0967 16.6257C14.4109 15.7701 14.0001 14.6818 14 13.5007C14 12.3196 14.411 11.2314 15.0967 10.3757C15.2864 10.1391 15.5737 10.0008 15.877 10.0007H20V8.00071H4V17.0007ZM16.4023 12.0007C16.147 12.4418 16 12.9533 16 13.5007C16.0001 14.0481 16.1469 14.5597 16.4023 15.0007H20V12.0007H16.4023ZM5.18555 5.5554C4.87578 5.62185 4.6062 5.78143 4.40234 6.00071H16V3.23704L5.18555 5.5554Z" fill="oklch(0.3523 0 0 / 1)" class="wd-icon-fill"></path>
</svg>