<svg width="24" height="24" viewBox="0 0 24 24" xmlns="http://www.w3.org/2000/svg" class="wd-icon wd-icon-sun" role="presentation">
<path d="M12 9C13.6569 9 15 10.3431 15 12C15 13.6569 13.6569 15 12 15C10.3431 15 9 13.6569 9 12C9 10.3431 10.3431 9 12 9Z" fill="transparent" class="wd-icon-background"></path>
<g>
<path d="M11.998 18.5C12.5503 18.5 12.998 18.9477 12.998 19.5V21.5C12.998 22.0523 12.5503 22.5 11.998 22.5C11.4458 22.5 10.998 22.0523 10.998 21.5V19.5C10.998 18.9477 11.4458 18.5 11.998 18.5Z" fill="oklch(0.3523 0 0 / 1)" class="wd-icon-fill"></path>
<path d="M5.98828 16.5928C6.37881 16.2022 7.01182 16.2022 7.40234 16.5928C7.79287 16.9833 7.79287 17.6163 7.40234 18.0068L5.98828 19.4209C5.59776 19.8114 4.96474 19.8114 4.57422 19.4209C4.18369 19.0304 4.18369 18.3974 4.57422 18.0068L5.98828 16.5928Z" fill="oklch(0.3523 0 0 / 1)" class="wd-icon-fill"></path>
<path d="M16.6035 16.5928C16.994 16.2023 17.627 16.2024 18.0176 16.5928L19.4316 18.0068C19.8222 18.3974 19.8222 19.0304 19.4316 19.4209C19.0411 19.8114 18.4081 19.8114 18.0176 19.4209L16.6035 18.0068C16.2132 17.6163 16.213 16.9832 16.6035 16.5928Z" fill="oklch(0.3523 0 0 / 1)" class="wd-icon-fill"></path>
<path d="M12 7C14.7614 7.00002 17 9.23859 17 12C17 14.7614 14.7614 17 12 17C9.23858 17 7 14.7614 7 12C7 9.23858 9.23858 7 12 7ZM12 9C10.3431 9 9 10.3431 9 12C9 13.6569 10.3431 15 12 15C13.6568 15 15 13.6568 15 12C15 10.3432 13.6568 9.00002 12 9Z" fill="oklch(0.3523 0 0 / 1)" class="wd-icon-fill"></path>
<path d="M4.50391 10.9951C5.05618 10.9951 5.50391 11.4428 5.50391 11.9951C5.50388 12.5474 5.05616 12.9951 4.50391 12.9951H2.50391C1.95164 12.9951 1.50394 12.5474 1.50391 11.9951C1.50391 11.4428 1.95162 10.9951 2.50391 10.9951H4.50391Z" fill="oklch(0.3523 0 0 / 1)" class="wd-icon-fill"></path>
<path d="M21.5039 10.9951C22.0562 10.9951 22.5039 11.4428 22.5039 11.9951C22.5039 12.5474 22.0562 12.9951 21.5039 12.9951H19.5039C18.9516 12.9951 18.5039 12.5474 18.5039 11.9951C18.5039 11.4428 18.9516 10.9951 19.5039 10.9951H21.5039Z" fill="oklch(0.3523 0 0 / 1)" class="wd-icon-fill"></path>
<path d="M4.58203 4.57227C4.97256 4.18174 5.60557 4.18174 5.99609 4.57227L7.41016 5.98633C7.80068 6.37685 7.80068 7.00987 7.41016 7.40039C7.01961 7.79067 6.38654 7.79083 5.99609 7.40039L4.58203 5.98633C4.19159 5.59588 4.19175 4.96281 4.58203 4.57227Z" fill="oklch(0.3523 0 0 / 1)" class="wd-icon-fill"></path>
<path d="M18.0098 4.57129C18.4002 4.18093 19.0333 4.18116 19.4238 4.57129C19.8144 4.96181 19.8144 5.5958 19.4238 5.98633L18.0098 7.40039C17.6193 7.79058 16.9861 7.79071 16.5957 7.40039C16.2053 7.00996 16.2055 6.37688 16.5957 5.98633L18.0098 4.57129Z" fill="oklch(0.3523 0 0 / 1)" class="wd-icon-fill"></path>
<path d="M11.998 1.5C12.5503 1.5 12.998 1.94772 12.998 2.5V4.5C12.998 5.05228 12.5503 5.5 11.998 5.5C11.4458 5.5 10.998 5.05228 10.998 4.5V2.5C10.998 1.94772 11.4458 1.5 11.998 1.5Z" fill="oklch(0.3523 0 0 / 1)" class="wd-icon-fill"></path>
</g>
</svg>