<svg width="24" height="24" viewBox="0 0 24 24" xmlns="http://www.w3.org/2000/svg" class="wd-icon wd-icon-reference-line" role="presentation">
<g>
<path d="M10 2C10.5523 2 11 2.44772 11 3V19C11 19.5523 10.5523 20 10 20H6C5.44772 20 5 19.5523 5 19V3C5 2.44772 5.44772 2 6 2H10ZM7 18H9V4H7V18Z" fill="oklch(0.3523 0 0 / 1)" class="wd-icon-fill"></path>
<path d="M18 11C18.5523 11 19 11.4477 19 12V19C19 19.5523 18.5523 20 18 20H14C13.4477 20 13 19.5523 13 19V12C13 11.4477 13.4477 11 14 11H18ZM15 18H17V13H15V18Z" fill="oklch(0.3523 0 0 / 1)" class="wd-icon-fill"></path>
</g>
<g>
<path d="M3.5 7C3.77614 7 4 7.22386 4 7.5V8.5C4 8.77614 3.77614 9 3.5 9H1.5C1.22386 9 1 8.77614 1 8.5V7.5C1 7.22386 1.22386 7 1.5 7H3.5Z" fill="oklch(0.3523 0 0 / 1)" class="wd-icon-accent"></path>
<path d="M14.5 7C14.7761 7 15 7.22386 15 7.5V8.5C15 8.77614 14.7761 9 14.5 9H12.5C12.2239 9 12 8.77614 12 8.5V7.5C12 7.22386 12.2239 7 12.5 7H14.5Z" fill="oklch(0.3523 0 0 / 1)" class="wd-icon-accent"></path>
<path d="M18.5 7C18.7761 7 19 7.22386 19 7.5V8.5C19 8.77614 18.7761 9 18.5 9H16.5C16.2239 9 16 8.77614 16 8.5V7.5C16 7.22386 16.2239 7 16.5 7H18.5Z" fill="oklch(0.3523 0 0 / 1)" class="wd-icon-accent"></path>
<path d="M22.5 7C22.7761 7 23 7.22386 23 7.5V8.5C23 8.77614 22.7761 9 22.5 9H20.5C20.2239 9 20 8.77614 20 8.5V7.5C20 7.22386 20.2239 7 20.5 7H22.5Z" fill="oklch(0.3523 0 0 / 1)" class="wd-icon-accent"></path>
</g>
</svg>