<svg width="24" height="24" viewBox="0 0 24 24" xmlns="http://www.w3.org/2000/svg" class="wd-icon wd-icon-ribbon" role="presentation">
<path d="M11.6466 2.28261C11.8419 2.08749 12.1584 2.08739 12.3536 2.28261L14.0714 4.00038H16.5001C16.7762 4.00049 17.0001 4.2243 17.0001 4.50038V6.92909L18.7179 8.64686C18.9127 8.84211 18.9129 9.15874 18.7179 9.35389L17.0001 11.0717V13.5004C17 13.7763 16.7761 14.0003 16.5001 14.0004H15.7403L16.8448 21.4545C16.9064 21.8719 16.4548 22.1736 16.0929 21.9564L12.2569 19.6547C12.0986 19.5597 11.9006 19.5597 11.7423 19.6547L7.90636 21.9564C7.54451 22.1731 7.09297 21.8717 7.1544 21.4545L8.2589 14.0004H7.50011C7.22406 14.0004 7.00025 13.7764 7.00011 13.5004V11.0717L5.28233 9.35389C5.08714 9.1587 5.08727 8.84214 5.28233 8.64686L7.00011 6.92909V4.50038C7.00011 4.22424 7.22397 4.00038 7.50011 4.00038H9.92882L11.6466 2.28261Z" fill="transparent" class="wd-icon-background"></path>
<path d="M10.9398 1.57518C11.5252 0.99046 12.4749 0.98937 13.0609 1.57518L14.4857 2.99998H16.5003C17.3278 3.00035 18.0001 3.67144 18.0003 4.49998V6.51463L19.4261 7.94041C19.9733 8.48897 20.0084 9.35715 19.5286 9.94627L19.4251 10.0605L18.0003 11.4853V13.5L17.9925 13.6533C17.929 14.2778 17.4819 14.788 16.8909 14.9472L17.8343 21.3076C18.0196 22.5602 16.6654 23.4643 15.5794 22.8135L12.0003 20.665L8.42122 22.8135C7.3352 23.4646 5.98094 22.5603 6.16634 21.3076L7.10775 14.9463C6.46987 14.7734 6.00058 14.1918 6.00032 13.5V11.4853L4.57552 10.0605C3.98962 9.47448 3.99063 8.52482 4.57552 7.93943L6.00032 6.51463V4.49998C6.00052 3.67172 6.67202 2.99998 7.50032 2.99998H9.51497L10.9398 1.57518ZM8.29915 20.5537L11.2288 18.7969L11.4115 18.7031C11.7871 18.5429 12.2136 18.5428 12.5892 18.7031L12.7718 18.7969L15.7005 20.5537L14.8783 15H14.4857L13.0609 16.4248C12.475 17.0101 11.5261 17.0096 10.9408 16.4258L9.51497 15H9.12142L8.29915 20.5537ZM10.6361 4.70701C10.4486 4.89453 10.1942 4.99996 9.92904 4.99998H8.00032V6.92869C8.00032 7.1938 7.89475 7.44821 7.70736 7.63572L6.3431 8.99998L7.70736 10.3642C7.89481 10.5517 8.00023 10.8062 8.00032 11.0713V13H9.92904C10.1942 13 10.4486 13.1055 10.6361 13.2929L12.0003 14.6572L13.3646 13.2929L13.4378 13.2265C13.6157 13.0808 13.8396 13 14.0716 13H16.0003V11.0713C16.0004 10.8062 16.1058 10.5517 16.2933 10.3642L17.6576 8.99998L16.2933 7.63572C16.1058 7.4482 16.0003 7.19385 16.0003 6.92869V4.99998H14.0716C13.8064 4.99998 13.5521 4.89455 13.3646 4.70701L12.0003 3.34275L10.6361 4.70701Z" fill="oklch(0.3523 0 0 / 1)" class="wd-icon-fill"></path>
<path d="M12 6C13.6569 6 15 7.34315 15 9C15 10.6569 13.6569 12 12 12C10.3431 12 9 10.6569 9 9C9 7.34315 10.3431 6 12 6ZM12 8C11.4477 8 11 8.44772 11 9C11 9.55228 11.4477 10 12 10C12.5523 10 13 9.55228 13 9C13 8.44772 12.5523 8 12 8Z" fill="oklch(0.3523 0 0 / 1)" class="wd-icon-accent"></path>
</svg>