<svg width="24" height="24" viewBox="0 0 24 24" xmlns="http://www.w3.org/2000/svg" class="wd-icon wd-icon-shuffle" role="presentation">
<path d="M17.293 3.29284C17.6835 2.90238 18.3165 2.9024 18.707 3.29284L21.707 6.29284C22.0975 6.68336 22.0975 7.31639 21.707 7.7069L18.707 10.7069C18.3165 11.0974 17.6835 11.0974 17.293 10.7069C16.9025 10.3164 16.9025 9.68336 17.293 9.29284L18.5859 7.99987H15.9668C14.8176 7.99987 14.4812 8.01303 14.2021 8.10925C13.922 8.20589 13.6668 8.3638 13.4551 8.57116C13.2442 8.77773 13.0814 9.07247 12.5674 10.1005L11.6172 11.9999L12.5674 13.8993C13.0814 14.9273 13.2442 15.222 13.4551 15.4286C13.6668 15.6359 13.922 15.7939 14.2021 15.8905C14.4812 15.9867 14.8177 15.9999 15.9668 15.9999H18.5859L17.293 14.7069C16.9025 14.3164 16.9025 13.6833 17.293 13.2928C17.6835 12.9024 18.3165 12.9024 18.707 13.2928L21.707 16.2928C22.0975 16.6834 22.0975 17.3164 21.707 17.7069L18.707 20.7069C18.3165 21.0974 17.6835 21.0974 17.293 20.7069C16.9025 20.3164 16.9025 19.6834 17.293 19.2928L18.5859 17.9999H15.9668C14.9624 17.9999 14.2214 18.0128 13.5498 17.7811C12.9894 17.5878 12.4792 17.2721 12.0557 16.8573C11.5481 16.3602 11.2284 15.692 10.7793 14.7938L10.5 14.2352L10.2207 14.7938C9.77161 15.692 9.45186 16.3602 8.94434 16.8573C8.52079 17.2721 8.01062 17.5878 7.4502 17.7811C6.77855 18.0128 6.03757 17.9999 5.0332 17.9999H3C2.44773 17.9999 2.00003 17.5521 2 16.9999C2 16.4476 2.44772 15.9999 3 15.9999H5.0332C6.18235 15.9999 6.5188 15.9867 6.79785 15.8905C7.07803 15.7939 7.33316 15.6359 7.54492 15.4286C7.75583 15.222 7.91862 14.9273 8.43262 13.8993L9.38184 11.9999L8.43262 10.1005C7.91862 9.07247 7.75582 8.77773 7.54492 8.57116C7.33316 8.3638 7.07803 8.20589 6.79785 8.10925C6.5188 8.01303 6.18237 7.99987 5.0332 7.99987H3C2.44773 7.99987 2.00003 7.55213 2 6.99987C2 6.44759 2.44772 5.99987 3 5.99987H5.0332C6.03758 5.99987 6.77855 5.98695 7.4502 6.21862C8.01062 6.41194 8.52079 6.72765 8.94434 7.14245C9.45185 7.63954 9.7716 8.30772 10.2207 9.20593L10.5 9.76452L10.7793 9.20593C11.2284 8.30772 11.5481 7.63954 12.0557 7.14245C12.4792 6.72765 12.9894 6.41194 13.5498 6.21862C14.2215 5.98695 14.9624 5.99987 15.9668 5.99987H18.5859L17.293 4.7069C16.9025 4.31639 16.9025 3.68334 17.293 3.29284Z" fill="oklch(0.3523 0 0 / 1)" class="wd-icon-fill"></path>
</svg>