<svg width="24" height="24" viewBox="0 0 24 24" xmlns="http://www.w3.org/2000/svg" class="wd-icon wd-icon-suitcase" role="presentation">
<g>
<path d="M16.9902 16.5C16.9848 16.7215 16.9771 16.915 16.9629 17.0889C16.9271 17.5273 16.8619 17.7518 16.7822 17.9082C16.5905 18.2845 16.2845 18.5905 15.9082 18.7822C15.7518 18.8619 15.5273 18.9271 15.0889 18.9629C14.6388 18.9997 14.0566 19 13.2002 19H10.7998C9.94341 19 9.36117 18.9997 8.91113 18.9629C8.47272 18.9271 8.2482 18.8619 8.0918 18.7822C7.71554 18.5905 7.40951 18.2845 7.21777 17.9082C7.13808 17.7518 7.07293 17.5273 7.03711 17.0889C7.02291 16.915 7.01518 16.7215 7.00977 16.5H16.9902Z" fill="transparent" class="wd-icon-background"></path>
<path d="M13.2002 7C14.0566 7 14.6388 7.00035 15.0889 7.03711C15.5273 7.07293 15.7518 7.13808 15.9082 7.21777C16.2845 7.40951 16.5905 7.71554 16.7822 8.0918C16.8619 8.2482 16.9271 8.47272 16.9629 8.91113C16.9997 9.36117 17 9.94341 17 10.7998V15H7V10.7998C7 9.94341 7.00035 9.36117 7.03711 8.91113C7.07293 8.47272 7.13808 8.2482 7.21777 8.0918C7.40951 7.71554 7.71554 7.40951 8.0918 7.21777C8.2482 7.13808 8.47272 7.07293 8.91113 7.03711C9.36117 7.00035 9.94341 7 10.7998 7H13.2002Z" fill="transparent" class="wd-icon-background"></path>
</g>
<path d="M12.25 1C12.5876 1 12.8858 0.999448 13.1318 1.01953C13.3867 1.04035 13.6512 1.0868 13.9082 1.21777C14.2845 1.40951 14.5905 1.71555 14.7822 2.0918C14.9132 2.34884 14.9597 2.61335 14.9805 2.86817C15.0006 3.11419 15 3.41245 15 3.75V5.02832C15.0868 5.0331 15.1708 5.03732 15.252 5.04395C15.814 5.08988 16.3311 5.18827 16.8164 5.43555C17.5689 5.81902 18.181 6.43109 18.5645 7.1836C18.8117 7.6689 18.9101 8.18599 18.9561 8.74805C19.001 9.29843 19 9.97632 19 10.7998V15.2002C19 16.0237 19.001 16.7016 18.9561 17.252C18.9101 17.814 18.8117 18.3311 18.5645 18.8164C18.213 19.5062 17.6677 20.0751 17 20.4609V21C17 21.5523 16.5523 22 16 22C15.4477 22 15 21.5523 15 21V20.9707C14.4984 20.9984 13.9023 21 13.2002 21H10.7998C10.0977 21 9.50162 20.9984 9 20.9707V21C9 21.5523 8.55229 22 8 22C7.44772 22 7 21.5523 7 21V20.4609C6.33227 20.0751 5.78704 19.5062 5.43555 18.8164C5.18827 18.3311 5.08988 17.814 5.04395 17.252C4.99898 16.7016 5 16.0237 5 15.2002V10.7998C5 9.97632 4.99898 9.29843 5.04395 8.74805C5.08988 8.18599 5.18827 7.6689 5.43555 7.1836C5.81902 6.43109 6.43109 5.81902 7.1836 5.43555C7.6689 5.18827 8.18599 5.08988 8.74805 5.04395C8.82921 5.03732 8.91323 5.0331 9 5.02832V3.75C9 3.41245 8.99945 3.11419 9.01953 2.86817C9.04035 2.61335 9.0868 2.34884 9.21778 2.0918C9.40951 1.71555 9.71555 1.40951 10.0918 1.21777C10.3488 1.0868 10.6133 1.04035 10.8682 1.01953C11.1142 0.999448 11.4125 1 11.75 1H12.25ZM10.7998 7C9.94342 7 9.36117 7.00035 8.91113 7.03711C8.47272 7.07293 8.2482 7.13809 8.0918 7.21777C7.71555 7.40951 7.40951 7.71555 7.21778 8.0918C7.13809 8.2482 7.07293 8.47272 7.03711 8.91113C7.00035 9.36117 7 9.94342 7 10.7998V15.2002C7 16.0566 7.00035 16.6388 7.03711 17.0889C7.07293 17.5273 7.13809 17.7518 7.21778 17.9082C7.40951 18.2845 7.71555 18.5905 8.0918 18.7822C8.2482 18.8619 8.47272 18.9271 8.91113 18.9629C9.36117 18.9997 9.94342 19 10.7998 19H13.2002C14.0566 19 14.6388 18.9997 15.0889 18.9629C15.5273 18.9271 15.7518 18.8619 15.9082 18.7822C16.2845 18.5905 16.5905 18.2845 16.7822 17.9082C16.8619 17.7518 16.9271 17.5273 16.9629 17.0889C16.9997 16.6388 17 16.0566 17 15.2002V10.7998C17 9.94342 16.9997 9.36117 16.9629 8.91113C16.9271 8.47272 16.8619 8.2482 16.7822 8.0918C16.5905 7.71555 16.2845 7.40951 15.9082 7.21777C15.7518 7.13809 15.5273 7.07293 15.0889 7.03711C14.6388 7.00035 14.0566 7 13.2002 7H10.7998ZM11.75 2.5C11.3877 2.5 11.161 2.50071 10.9902 2.51465C10.8295 2.52778 10.7843 2.5492 10.7734 2.55469C10.6794 2.60263 10.6026 2.67936 10.5547 2.77344C10.5492 2.78427 10.5278 2.82953 10.5147 2.99024C10.5007 3.16103 10.5 3.3877 10.5 3.75V5.00098C10.5977 5.00092 10.6976 5 10.7998 5H13.2002C13.3024 5 13.4023 5.00092 13.5 5.00098V3.75C13.5 3.3877 13.4993 3.16103 13.4854 2.99024C13.4722 2.82954 13.4508 2.78427 13.4453 2.77344C13.3974 2.67936 13.3206 2.60263 13.2266 2.55469C13.2157 2.54919 13.1705 2.52778 13.0098 2.51465C12.839 2.50071 12.6123 2.5 12.25 2.5H11.75Z" fill="oklch(0.3523 0 0 / 1)" class="wd-icon-fill"></path>
<path d="M17 16.5H7V15H17V16.5Z" fill="oklch(0.3523 0 0 / 1)" class="wd-icon-accent"></path>
</svg>