<svg width="24" height="24" viewBox="0 0 24 24" xmlns="http://www.w3.org/2000/svg" class="wd-icon wd-icon-image-label" role="presentation">
<g>
<path d="M19.251 20.25C19.6652 20.25 20.001 20.5858 20.001 21C20.001 21.4142 19.6652 21.75 19.251 21.75H4.75098C4.33676 21.75 4.00098 21.4142 4.00098 21C4.00098 20.5858 4.33676 20.25 4.75098 20.25H19.251Z" fill="oklch(0.3523 0 0 / 1)" class="wd-icon-fill"></path>
<path d="M9 6.25C9.9665 6.25 10.75 7.0335 10.75 8C10.75 8.9665 9.9665 9.75 9 9.75C8.0335 9.75 7.25 8.9665 7.25 8C7.25 7.0335 8.0335 6.25 9 6.25Z" fill="oklch(0.3523 0 0 / 1)" class="wd-icon-fill"></path>
<path d="M16.2002 3C17.0237 3 17.7016 2.99898 18.252 3.04395C18.814 3.08988 19.3311 3.18827 19.8164 3.43555C20.5689 3.81902 21.181 4.43109 21.5645 5.1836C21.8117 5.6689 21.9101 6.18599 21.9561 6.74805C22.001 7.29843 22 7.97632 22 8.79981V13.2002C22 14.0237 22.001 14.7016 21.9561 15.252C21.9101 15.814 21.8117 16.3311 21.5645 16.8164C21.181 17.5689 20.5689 18.181 19.8164 18.5645C19.3311 18.8117 18.814 18.9101 18.252 18.9561C17.7016 19.001 17.0237 19 16.2002 19H7.79981C6.97632 19 6.29843 19.001 5.74805 18.9561C5.18599 18.9101 4.6689 18.8117 4.1836 18.5645C3.43109 18.181 2.81902 17.5689 2.43555 16.8164C2.18827 16.3311 2.08988 15.814 2.04395 15.252C1.99898 14.7016 2 14.0237 2 13.2002V8.79981C2 7.97632 1.99898 7.29843 2.04395 6.74805C2.08988 6.18599 2.18827 5.6689 2.43555 5.1836C2.81902 4.43109 3.43109 3.81902 4.1836 3.43555C4.6689 3.18827 5.18599 3.08988 5.74805 3.04395C6.29843 2.99898 6.97632 3 7.79981 3H16.2002ZM15.3535 10.9141C15.1583 10.7189 14.8417 10.7189 14.6465 10.9141L11.2373 14.3232C10.5539 15.0066 9.4461 15.0066 8.7627 14.3232L7.35352 12.9141C7.15828 12.7189 6.84172 12.7189 6.64649 12.9141L4.08594 15.4736C4.12146 15.6745 4.16572 15.806 4.21778 15.9082C4.40951 16.2845 4.71555 16.5905 5.0918 16.7822C5.2482 16.8619 5.47272 16.9271 5.91113 16.9629C6.36117 16.9997 6.94342 17 7.79981 17H16.2002C17.0566 17 17.6388 16.9997 18.0889 16.9629C18.5273 16.9271 18.7518 16.8619 18.9082 16.7822C19.2845 16.5905 19.5905 16.2845 19.7822 15.9082C19.8343 15.8061 19.8776 15.6744 19.9131 15.4736L15.3535 10.9141ZM7.79981 5C6.94342 5 6.36117 5.00035 5.91113 5.03711C5.47272 5.07293 5.2482 5.13809 5.0918 5.21778C4.71555 5.40951 4.40951 5.71555 4.21778 6.0918C4.13809 6.2482 4.07293 6.47272 4.03711 6.91113C4.00035 7.36117 4 7.94342 4 8.79981V13.2002C4 13.2817 4.00094 13.3608 4.00098 13.4375L5.58594 11.8535C6.36697 11.0726 7.63304 11.0726 8.41406 11.8535L9.82324 13.2627C9.92086 13.3602 10.0791 13.3602 10.1768 13.2627L13.5859 9.85352C14.367 9.07259 15.633 9.0726 16.4141 9.85352L19.998 13.4375C19.9981 13.3608 20 13.2817 20 13.2002V8.79981C20 7.94342 19.9997 7.36117 19.9629 6.91113C19.9271 6.47272 19.8619 6.2482 19.7822 6.0918C19.5905 5.71555 19.2845 5.40951 18.9082 5.21778C18.7518 5.13809 18.5273 5.07293 18.0889 5.03711C17.6388 5.00035 17.0566 5 16.2002 5H7.79981Z" fill="oklch(0.3523 0 0 / 1)" class="wd-icon-fill"></path>
</g>
</svg>