<svg width="24" height="24" viewBox="0 0 24 24" xmlns="http://www.w3.org/2000/svg" class="wd-icon wd-icon-package-search" role="presentation">
<g>
<path d="M18.9248 9C18.973 9.21432 19.001 9.43417 19.001 9.65723V11C19.001 11.552 19.4482 11.9985 20 11.999V14.3555C19.267 13.5246 18.195 13 17 13C14.7909 13 13 14.7909 13 17C13 18.195 13.5246 19.267 14.3555 20H12.001C12.001 19.4477 11.5533 19 11.001 19H6.00098C5.44869 19 5.00098 18.5523 5.00098 18V9.65723C5.00098 9.43417 5.02897 9.21432 5.07715 9H18.9248Z" fill="transparent" class="wd-icon-background"></path>
<path d="M17 14.5C18.3807 14.5 19.5 15.6193 19.5 17C19.5 18.3807 18.3807 19.5 17 19.5C15.6193 19.5 14.5 18.3807 14.5 17C14.5 15.6193 15.6193 14.5 17 14.5Z" fill="transparent" class="wd-icon-background"></path>
</g>
<path d="M15.1729 3C15.9684 3.00008 16.7314 3.31637 17.2939 3.87891L19.5361 6.12109C20.4738 7.05878 21.001 8.33114 21.001 9.65723V11C21.001 11.5523 20.5533 12 20.001 12C19.4487 12 19.001 11.5523 19.001 11V9.65723C19.001 9.43417 18.973 9.21432 18.9248 9H5.07715C5.02897 9.21432 5.00098 9.43417 5.00098 9.65723V18C5.00098 18.5523 5.44869 19 6.00098 19H11.001C11.5533 19 12.001 19.4477 12.001 20C12.001 20.5523 11.5533 21 11.001 21H6.00098C4.34412 21 3.00098 19.6569 3.00098 18V9.65723C3.00098 8.33114 3.52814 7.05878 4.46582 6.12109L6.70801 3.87891C7.27055 3.31637 8.03356 3.00008 8.8291 3H15.1729ZM8.8291 5C8.56399 5.00008 8.30954 5.1055 8.12207 5.29297L6.41504 7H11V5H8.8291ZM13 7H17.5869L15.8799 5.29297C15.6924 5.1055 15.438 5.00008 15.1729 5H13V7Z" fill="oklch(0.3523 0 0 / 1)" class="wd-icon-fill"></path>
<path d="M17 13C19.2091 13 21 14.7909 21 17C21 17.8334 20.7437 18.6064 20.3076 19.2471L21.7803 20.7197C22.0731 21.0126 22.0731 21.4874 21.7803 21.7803C21.4874 22.073 21.0126 22.0731 20.7197 21.7803L19.2471 20.3076C18.6064 20.7437 17.8334 21 17 21C14.7909 21 13 19.2091 13 17C13 14.7909 14.7909 13 17 13ZM17 14.5C15.6193 14.5 14.5 15.6193 14.5 17C14.5 18.3807 15.6193 19.5 17 19.5C18.3807 19.5 19.5 18.3807 19.5 17C19.5 15.6193 18.3807 14.5 17 14.5Z" fill="oklch(0.3523 0 0 / 1)" class="wd-icon-accent"></path>
</svg>