<svg width="24" height="24" viewBox="0 0 24 24" xmlns="http://www.w3.org/2000/svg" class="wd-icon wd-icon-dropdown-button" role="presentation">
<g>
<path d="M18.7305 10.293C18.9443 10.1181 19.2598 10.1494 19.4346 10.3633L20.0674 11.1377C20.2419 11.3514 20.2096 11.667 19.9961 11.8418L19.3955 12.333C19.3937 12.3345 19.3914 12.3355 19.3896 12.3369L17.6328 13.7744C17.2647 14.0752 16.7353 14.0752 16.3672 13.7744L14.3047 12.0869L14.0049 11.8408C13.7913 11.666 13.759 11.3514 13.9336 11.1377L14.5664 10.3633C14.7412 10.1494 15.0567 10.1181 15.2705 10.293L15.8721 10.7842L15.876 10.7891L17 11.708L18.7305 10.293Z" fill="oklch(0.3523 0 0 / 1)" class="wd-icon-fill"></path>
<path d="M21.5 7C22.3284 7 23 7.67157 23 8.5V15.5C23 16.3284 22.3284 17 21.5 17H2.5C1.67157 17 1 16.3284 1 15.5V8.5C1 7.67157 1.67157 7 2.5 7H21.5ZM3 15H21V9H3V15Z" fill="oklch(0.3523 0 0 / 1)" class="wd-icon-fill"></path>
</g>
</svg>