<svg width="24" height="24" viewBox="0 0 24 24" xmlns="http://www.w3.org/2000/svg" class="wd-icon wd-icon-replay" role="presentation">
<path d="M9.09646 2.43075C11.3103 1.7592 13.6896 1.87561 15.8269 2.76082C17.9642 3.64615 19.7285 5.24601 20.8191 7.28622C21.9096 9.32653 22.2587 11.6822 21.8074 13.9513C21.356 16.2202 20.1318 18.2629 18.3435 19.7306C16.5552 21.198 14.3131 22.0001 11.9998 22.0001C11.4477 21.9999 10.9998 21.5522 10.9998 21.0001C10.9999 20.448 11.4477 20.0003 11.9998 20.0001C13.8505 20.0001 15.6443 19.3586 17.075 18.1847C18.5057 17.0105 19.4854 15.3759 19.8465 13.5606C20.2074 11.7455 19.9279 9.86079 19.0554 8.2286C18.183 6.59656 16.771 5.3177 15.0613 4.60946C13.3514 3.90131 11.4485 3.80758 9.67751 4.34481C7.90652 4.88212 6.37662 6.01694 5.34841 7.55575C4.3202 9.0946 3.85651 10.9424 4.03786 12.7843C4.18828 14.3114 4.7749 15.7561 5.71657 16.9513L6.83669 15.8321C7.12272 15.5461 7.6121 15.7004 7.68239 16.0987L8.4529 20.46C8.51295 20.8017 8.21453 21.0994 7.87282 21.0391L3.5115 20.2696C3.11356 20.1991 2.95946 19.7099 3.2449 19.4239L4.2947 18.3731C3.03052 16.8446 2.24349 14.9686 2.04763 12.9806C1.82092 10.6782 2.40005 8.368 3.68532 6.44442C4.97052 4.52103 6.88287 3.10242 9.09646 2.43075Z" fill="oklch(0.3523 0 0 / 1)" class="wd-icon-fill"></path>
</svg>