<svg width="24" height="24" viewBox="0 0 24 24" xmlns="http://www.w3.org/2000/svg" class="wd-icon wd-icon-cloud-strikethrough" role="presentation">
<g>
<path d="M3.28418 3.29282C3.67463 2.90236 4.30768 2.90243 4.69824 3.29282L6.37793 4.9725C7.26472 4.35956 8.3402 3.99985 9.5 3.99985C11.2344 3.99985 12.7788 4.80536 13.7852 6.05649C14.0184 6.01918 14.2573 5.99985 14.5 5.99985C16.4812 5.99985 18.1603 7.28002 18.7617 9.05747C21.1615 9.42428 22.9998 11.4975 23 13.9998C23 16.0517 21.7632 17.8126 19.9951 18.5829L20.7012 19.2889C21.0915 19.6793 21.0922 20.3124 20.7021 20.703C20.3119 21.0933 19.6787 21.0938 19.2881 20.7039L3.28418 4.70688C2.89376 4.31647 2.89391 3.68338 3.28418 3.29282ZM9.5 5.99985C8.89513 5.99985 8.32556 6.15269 7.8291 6.4227L18.3848 16.9745C19.8598 16.7855 21 15.5263 21 13.9998C20.9998 12.3431 19.6567 10.9998 18 10.9998C17.4762 10.9998 17.0464 10.6149 16.9697 10.1161C16.7854 8.91782 15.7492 7.99985 14.5 7.99985C14.3151 7.99985 14.1356 8.02003 13.9639 8.05747C13.3611 8.18874 12.7114 7.96385 12.3301 7.44125C11.6918 6.56597 10.6618 5.99985 9.5 5.99985Z" fill="oklch(0.3523 0 0 / 1)" class="wd-icon-fill"></path>
<path d="M4.125 9.36411C4.6369 9.15697 5.21955 9.40397 5.42676 9.91586C5.63379 10.4277 5.38685 11.0104 4.875 11.2176C3.77389 11.6634 3.00011 12.7426 3 13.9998C3.00009 15.6566 4.3432 16.9998 6 16.9998H12C12.5522 16.9998 12.9999 17.4477 13 17.9998C12.9999 18.5521 12.5522 18.9998 12 18.9998H6C3.23863 18.9998 1.00009 16.7612 1 13.9998C1.00011 11.9 2.29455 10.1051 4.125 9.36411Z" fill="oklch(0.3523 0 0 / 1)" class="wd-icon-fill"></path>
</g>
</svg>