<svg width="24" height="24" viewBox="0 0 24 24" xmlns="http://www.w3.org/2000/svg" class="wd-icon wd-icon-pie-chart" role="presentation">
<g>
<path d="M18.1611 6.89746C19.3094 8.28237 20 10.0604 20 12C20 13.939 19.3088 15.7158 18.1611 17.1006L13.0605 12L18.1611 6.89746Z" fill="transparent" class="wd-icon-background"></path>
<path d="M12.75 4.03516C14.3954 4.18815 15.8957 4.83967 17.0996 5.83691L12.75 10.1895V4.03516Z" fill="transparent" class="wd-icon-background"></path>
</g>
<path d="M12 2C17.5228 2 22 6.47715 22 12C22 17.5228 17.5228 22 12 22C6.47715 22 2 17.5228 2 12C2 6.47715 6.47715 2 12 2ZM11.25 4.03516C7.18343 4.41328 4 7.83465 4 12C4 16.4183 7.58172 20 12 20C13.939 20 15.7158 19.3088 17.1006 18.1611L11.4697 12.5303C11.4643 12.5249 11.4593 12.5192 11.4541 12.5137C11.4475 12.5066 11.4409 12.4995 11.4346 12.4922C11.4176 12.4727 11.4023 12.4523 11.3877 12.4316C11.358 12.3895 11.333 12.3444 11.3125 12.2969C11.3065 12.283 11.301 12.269 11.2959 12.2549C11.2866 12.2291 11.279 12.2027 11.2725 12.1758C11.2685 12.1592 11.2646 12.1427 11.2617 12.126C11.2547 12.0847 11.25 12.0428 11.25 12V4.03516ZM13.0605 12L18.1611 17.1006C19.3088 15.7158 20 13.939 20 12C20 10.0604 19.3094 8.28237 18.1611 6.89746L13.0605 12ZM12.75 10.1895L17.0996 5.83691C15.8957 4.83967 14.3954 4.18815 12.75 4.03516V10.1895Z" fill="oklch(0.3523 0 0 / 1)" class="wd-icon-fill"></path>
</svg>