<svg width="24" height="24" viewBox="0 0 24 24" xmlns="http://www.w3.org/2000/svg" class="wd-icon wd-icon-paperclip" role="presentation">
<path d="M11.8226 3.33755C13.5799 1.58019 16.4295 1.58019 18.1868 3.33755C19.9439 5.09488 19.944 7.94354 18.1868 9.70083L10.5853 17.3024C9.51136 18.3763 7.77054 18.3762 6.6966 17.3024C5.62267 16.2285 5.62269 14.4877 6.6966 13.4137L12.1761 7.93325C12.5665 7.54282 13.1996 7.54299 13.5902 7.93325C13.9807 8.32378 13.9807 8.95679 13.5902 9.34732L8.11066 14.8278C7.8178 15.1207 7.81778 15.5954 8.11066 15.8883C8.40355 16.1811 8.87835 16.1812 9.17121 15.8883L16.7728 8.28677C17.7489 7.31053 17.7488 5.7279 16.7728 4.75161C15.7965 3.7753 14.2129 3.7753 13.2366 4.75161L5.28254 12.7067C3.62281 14.3664 3.62281 17.0567 5.28254 18.7165C6.94227 20.3761 9.63261 20.3762 11.2923 18.7165L17.1263 12.8834C17.5168 12.4929 18.1498 12.4929 18.5403 12.8834C18.9307 13.274 18.9308 13.9071 18.5403 14.2975L12.7064 20.1305C10.2656 22.5713 6.30827 22.5713 3.8675 20.1305C1.42711 17.6897 1.42685 13.7323 3.8675 11.2917L11.8226 3.33755Z" fill="oklch(0.3523 0 0 / 1)" class="wd-icon-fill"></path>
</svg>