<svg width="24" height="24" viewBox="0 0 24 24" xmlns="http://www.w3.org/2000/svg" class="wd-icon wd-icon-xo-loop" role="presentation">
<g>
<path d="M13.0664 14.6221C13.2642 14.3256 13.7003 14.326 13.8984 14.6221L15.6308 17.2207C15.8523 17.553 15.6141 17.998 15.2148 17.998H14.5332C14.5898 18.2759 14.6933 18.544 14.8408 18.7891C15.075 19.1781 15.4113 19.4964 15.8125 19.709C16.2138 19.9215 16.6666 20.0209 17.1201 19.9961C17.4063 19.9803 17.687 19.9146 17.9492 19.8047C18.2036 19.698 18.5136 19.7525 18.6689 19.9805L18.9502 20.3945L19.2314 20.8076C19.3864 21.036 19.328 21.3496 19.0839 21.4785C18.512 21.7805 17.8791 21.9574 17.2295 21.9932C16.4131 22.0379 15.5994 21.8591 14.8769 21.4766C14.1544 21.0939 13.5487 20.5218 13.1269 19.8213C12.7915 19.2641 12.5824 18.6416 12.5107 17.999L11.75 17.998C11.351 17.9976 11.1126 17.5528 11.3339 17.2207L13.0664 14.6221Z" fill="oklch(0.3523 0 0 / 1)" class="wd-icon-fill"></path>
<path d="M16.7353 13.0068C17.5516 12.962 18.3653 13.141 19.0879 13.5234C19.8105 13.9061 20.416 14.4783 20.8379 15.1787C21.1729 15.7352 21.3831 16.3562 21.455 16.998H22.2148C22.6141 16.998 22.8523 17.4431 22.6308 17.7754L20.8984 20.374C20.7004 20.6708 20.2642 20.6709 20.0664 20.374L18.3349 17.7754C18.1139 17.4432 18.352 16.9983 18.7509 16.998H19.4316C19.3748 16.7213 19.2709 16.455 19.124 16.2109C18.8897 15.8219 18.5536 15.5036 18.1523 15.291C17.7509 15.0786 17.2981 14.979 16.8447 15.0039C16.5588 15.0198 16.2785 15.0845 16.0166 15.1943C15.762 15.301 15.452 15.2467 15.2968 15.0186L15.0146 14.6055L14.7343 14.1914C14.5796 13.9631 14.638 13.6494 14.8818 13.5205C15.4535 13.2186 16.086 13.0427 16.7353 13.0068Z" fill="oklch(0.3523 0 0 / 1)" class="wd-icon-fill"></path>
<path d="M12.7968 5.78613C14.7906 5.78625 16.3779 7.09492 16.3779 9.50781C16.3778 11.9205 14.7905 13.2284 12.7968 13.2285C10.803 13.2285 9.21494 11.9206 9.21481 9.50781C9.21481 7.09481 10.8029 5.78613 12.7968 5.78613ZM12.7968 7.22168C11.8062 7.22168 11.2343 8.00921 11.2343 9.50781C11.2344 11.0062 11.8063 11.7939 12.7968 11.7939C13.7872 11.7938 14.3583 11.0061 14.3584 9.50781C14.3584 8.00935 13.7873 7.22182 12.7968 7.22168Z" fill="oklch(0.3523 0 0 / 1)" class="wd-icon-fill"></path>
<path d="M2.98922 4.11035C3.16102 4.11036 3.32054 4.19837 3.41207 4.34375L5.09469 7.01855H5.13277L6.81441 4.34375C6.90593 4.19837 7.06547 4.11038 7.23727 4.11035H8.42477C8.8271 4.11035 9.06444 4.56078 8.83688 4.89258L6.35152 8.5166L8.8984 12.2168C9.12644 12.5485 8.88891 13 8.48629 13H7.31148C7.14078 13 6.98146 12.9124 6.88961 12.7686L5.13277 10.0156H5.09469L3.34957 12.7676C3.25787 12.9122 3.09796 13 2.92672 13H1.73824C1.33595 13 1.09769 12.5486 1.32516 12.2168L3.86227 8.5166L1.38668 4.8916C1.16024 4.55975 1.39795 4.11035 1.79977 4.11035H2.98922Z" fill="oklch(0.3523 0 0 / 1)" class="wd-icon-fill"></path>
</g>
</svg>