<svg width="24" height="24" viewBox="0 0 24 24" xmlns="http://www.w3.org/2000/svg" class="wd-icon wd-icon-signal-two" role="presentation">
<g>
<path d="M15 7C15.5523 7 16 7.44772 16 8V20C16 20.5523 15.5523 21 15 21H13C12.4477 21 12 20.5523 12 20V8C12 7.44772 12.4477 7 13 7H15Z" fill="transparent" class="wd-icon-background"></path>
<path d="M20 2C20.5523 2 21 2.44772 21 3V20C21 20.5523 20.5523 21 20 21H18C17.4477 21 17 20.5523 17 20V3C17 2.44772 17.4477 2 18 2H20Z" fill="transparent" class="wd-icon-background"></path>
</g>
<g>
<path d="M5 15C5.55228 15 6 15.4477 6 16V20C6 20.5523 5.55228 21 5 21H3C2.44772 21 2 20.5523 2 20V16C2 15.4477 2.44772 15 3 15H5Z" fill="oklch(0.3523 0 0 / 1)" class="wd-icon-fill"></path>
<path d="M10 12C10.5523 12 11 12.4477 11 13V20C11 20.5523 10.5523 21 10 21H8C7.44772 21 7 20.5523 7 20V13C7 12.4477 7.44772 12 8 12H10Z" fill="oklch(0.3523 0 0 / 1)" class="wd-icon-fill"></path>
</g>
</svg>