<svg width="24" height="24" viewBox="0 0 24 24" xmlns="http://www.w3.org/2000/svg" class="wd-icon wd-icon-arrow-u-turn-right" role="presentation">
<path d="M14.293 5.29287C14.6835 4.90239 15.3165 4.90236 15.707 5.29287L18.707 8.29287C19.0973 8.68339 19.0974 9.31648 18.707 9.70693L15.707 12.7069C15.3166 13.0971 14.6834 13.0971 14.293 12.7069C13.9026 12.3165 13.9027 11.6834 14.293 11.2929L15.5859 9.9999H9.5C7.56704 9.9999 6.00005 11.5669 6 13.4999C6 15.4329 7.567 16.9999 9.5 16.9999H15C15.5523 16.9999 15.9999 17.4477 16 17.9999C16 18.5522 15.5523 18.9999 15 18.9999H9.5C6.46243 18.9999 4 16.5375 4 13.4999C4.00005 10.4624 6.46247 7.9999 9.5 7.9999H15.5859L14.293 6.70693C13.9025 6.31648 13.9027 5.68341 14.293 5.29287Z" fill="oklch(0.3523 0 0 / 1)" class="wd-icon-fill"></path>
</svg>