<svg width="24" height="24" viewBox="0 0 24 24" xmlns="http://www.w3.org/2000/svg" class="wd-icon wd-icon-visible" role="presentation">
<g>
<path d="M12 10.25C12.9665 10.25 13.75 11.0335 13.75 12C13.75 12.9665 12.9665 13.75 12 13.75C11.0335 13.75 10.25 12.9665 10.25 12C10.25 11.0335 11.0335 10.25 12 10.25Z" fill="transparent" class="wd-icon-background"></path>
<path d="M12.001 7C15.2409 7.00023 18.0813 8.71235 19.667 11.2861C19.8567 11.5941 19.8734 11.6306 19.9072 11.7812C19.9082 11.788 19.9105 11.8067 19.9131 11.8389C19.9167 11.8844 19.9189 11.9403 19.9189 12C19.9189 12.0597 19.9167 12.1156 19.9131 12.1611C19.9105 12.1933 19.9082 12.212 19.9072 12.2188C19.8734 12.3694 19.8567 12.4059 19.667 12.7139C18.1309 15.2072 15.4173 16.892 12.3037 16.9951L12.001 17C8.76073 17 5.91986 15.2877 4.33398 12.7139C4.14424 12.4059 4.12757 12.3694 4.09375 12.2188C4.09276 12.2121 4.09047 12.1934 4.08789 12.1611C4.08425 12.1156 4.08203 12.0597 4.08203 12C4.08203 11.9403 4.08425 11.8844 4.08789 11.8389C4.09047 11.8066 4.09276 11.7879 4.09375 11.7812C4.12757 11.6306 4.14424 11.5941 4.33398 11.2861C5.91986 8.71227 8.76073 7 12.001 7ZM12 8.25C9.92893 8.25 8.25 9.92893 8.25 12C8.25 14.0711 9.92893 15.75 12 15.75C14.0711 15.75 15.75 14.0711 15.75 12C15.75 9.92893 14.0711 8.25 12 8.25Z" fill="transparent" class="wd-icon-background"></path>
</g>
<path d="M12 5C15.9633 5.00011 19.4347 7.09761 21.3691 10.2373C21.5685 10.5608 21.7457 10.8411 21.8584 11.3428C21.9064 11.5567 21.9189 11.8078 21.9189 12C21.9189 12.1922 21.9064 12.4433 21.8584 12.6572C21.7457 13.1589 21.5685 13.4392 21.3691 13.7627C19.4347 16.9024 15.9633 18.9999 12 19C8.03677 18.9999 4.56617 16.9022 2.63184 13.7627C2.43248 13.4391 2.25525 13.1589 2.14258 12.6572C2.09455 12.4433 2.08203 12.1923 2.08203 12C2.08203 11.8077 2.09455 11.5567 2.14258 11.3428C2.25525 10.8411 2.43248 10.5609 2.63184 10.2373C4.56617 7.09779 8.03677 5.00012 12 5ZM12 7C8.75998 7.00011 5.91974 8.71234 4.33398 11.2861C4.1442 11.5942 4.12757 11.6306 4.09375 11.7812C4.09276 11.7879 4.09047 11.8066 4.08789 11.8389C4.08425 11.8844 4.08203 11.9403 4.08203 12C4.08203 12.0597 4.08425 12.1156 4.08789 12.1611C4.09047 12.1934 4.09276 12.2121 4.09375 12.2188C4.12757 12.3694 4.1442 12.4058 4.33398 12.7139C5.91974 15.2877 8.75998 16.9999 12 17C15.2402 16.9999 18.0812 15.2877 19.667 12.7139C19.8567 12.406 19.8734 12.3694 19.9072 12.2188C19.9082 12.212 19.9105 12.1934 19.9131 12.1611C19.9167 12.1156 19.9189 12.0597 19.9189 12C19.9189 11.9403 19.9167 11.8844 19.9131 11.8389C19.9105 11.8066 19.9082 11.788 19.9072 11.7812C19.8734 11.6306 19.8567 11.594 19.667 11.2861C18.0812 8.71226 15.2402 7.00011 12 7Z" fill="oklch(0.3523 0 0 / 1)" class="wd-icon-fill"></path>
<path d="M12 8.25C14.0711 8.25 15.75 9.92893 15.75 12C15.75 14.0711 14.0711 15.75 12 15.75C9.92893 15.75 8.25 14.0711 8.25 12C8.25 9.92893 9.92893 8.25 12 8.25ZM12 10.25C11.0335 10.25 10.25 11.0335 10.25 12C10.25 12.9665 11.0335 13.75 12 13.75C12.9665 13.75 13.75 12.9665 13.75 12C13.75 11.0335 12.9665 10.25 12 10.25Z" fill="oklch(0.3523 0 0 / 1)" class="wd-icon-accent"></path>
</svg>