<svg width="24" height="24" viewBox="0 0 24 24" xmlns="http://www.w3.org/2000/svg" class="wd-icon wd-icon-clipboard-formula" role="presentation">
<g>
<path d="M15.8721 4C16.4077 4.00014 16.7609 4.00226 17.0322 4.02441C17.3035 4.0466 17.4046 4.08419 17.4541 4.10938C17.642 4.20521 17.7948 4.35799 17.8906 4.5459C17.9158 4.59535 17.9534 4.69629 17.9756 4.96777C17.9987 5.25111 18 5.62365 18 6.2002V18.7998C18 19.3763 17.9987 19.7489 17.9756 20.0322C17.9534 20.3037 17.9158 20.4046 17.8906 20.4541C17.7948 20.642 17.642 20.7948 17.4541 20.8906C17.4046 20.9158 17.3035 20.9534 17.0322 20.9756C16.7489 20.9987 16.3762 21 15.7998 21H8.2002C7.6238 21 7.25107 20.9987 6.96777 20.9756C6.69647 20.9534 6.59536 20.9158 6.5459 20.8906C6.358 20.7948 6.2052 20.642 6.10938 20.4541C6.08419 20.4046 6.0466 20.3037 6.02441 20.0322C6.00127 19.7489 6 19.3763 6 18.7998V6.2002C6 5.62365 6.00126 5.25111 6.02441 4.96777C6.0466 4.69628 6.08419 4.59535 6.10938 4.5459C6.20519 4.35799 6.35801 4.20522 6.5459 4.10938C6.59536 4.08419 6.69652 4.0466 6.96777 4.02441C7.23957 4.00222 7.59357 4.00013 8.13086 4C8.05905 4.27981 8.01704 4.56821 8.00684 4.86035C8.00344 4.91149 8.00098 4.95845 8.00098 5V6C8.00098 7.03522 8.78709 7.88774 9.79785 7.99023C9.81534 7.992 9.83302 7.9933 9.85059 7.99414L9.95312 7.99902C9.96892 7.99978 9.98516 8 10.001 8H14C15.1033 8 16.001 7.10584 16.001 6V5C16.001 4.65953 15.9559 4.32404 15.8721 4ZM13.4336 13.04C13.2549 12.6667 12.8071 12.5082 12.4336 12.6865C12.0602 12.8651 11.9018 13.313 12.0801 13.6865L12.9199 15.4434L10.8643 17.752C10.589 18.0612 10.6158 18.535 10.9248 18.8105C11.234 19.0859 11.7079 19.058 11.9834 18.749L13.6211 16.9102L14.417 18.5742C14.5958 18.9475 15.0435 19.1052 15.417 18.9268C15.7904 18.7481 15.9489 18.3003 15.7705 17.9268L14.7832 15.8633L16.5615 13.8613C16.8361 13.5517 16.8073 13.0776 16.498 12.8027C16.1884 12.5282 15.7144 12.556 15.4395 12.8652L14.0811 14.3945L13.4336 13.04ZM11.0859 9.99805C10.5874 9.98946 9.98613 10.1442 9.55664 10.5244C9.1689 10.8679 8.9215 11.3295 8.77441 11.8154L8.7666 11.8418L8.75977 11.8682L8.61816 12.5H8.09961C7.68569 12.5002 7.34979 12.8361 7.34961 13.25C7.34979 13.6639 7.68569 13.9998 8.09961 14H8.28223L7.36816 18.084C7.27786 18.4879 7.53181 18.8887 7.93555 18.9795C8.33955 19.07 8.74029 18.816 8.83105 18.4121L9.81934 14H10.4355C10.8496 14 11.1854 13.6641 11.1855 13.25C11.1854 12.8359 10.8496 12.5 10.4355 12.5H10.1553L10.2139 12.2373C10.305 11.9421 10.4289 11.7555 10.5508 11.6475C10.6326 11.5751 10.8367 11.4943 11.0596 11.498C11.4735 11.5053 11.8157 11.1756 11.8232 10.7617C11.8304 10.3477 11.5 10.0053 11.0859 9.99805Z" fill="transparent" class="wd-icon-background"></path>
<path d="M12.1982 3.00977C12.656 3.05527 13.0868 3.25774 13.415 3.58594L13.5479 3.73242C13.8397 4.08852 14.001 4.5362 14.001 5V6H10.0283L10.001 5.99805V4.99902C10.0033 4.97638 10.0041 4.95341 10.0049 4.93066C10.0226 4.42254 10.2298 3.94225 10.5859 3.58594L10.7324 3.45312C11.0884 3.16145 11.5368 3.00003 12.001 3L12.1982 3.00977Z" fill="transparent" class="wd-icon-background"></path>
</g>
<path d="M12.001 1C12.9773 1.00015 13.9164 1.35842 14.6445 2H15.7998C16.3431 2 16.8117 1.99896 17.1953 2.03027C17.5904 2.06258 17.9841 2.13453 18.3623 2.32715C18.9264 2.6147 19.3853 3.07358 19.6729 3.6377C19.8656 4.01596 19.9374 4.40946 19.9697 4.80469C20.0011 5.18836 20 5.65665 20 6.2002V18.7998C20 19.3433 20.0011 19.8116 19.9697 20.1953C19.9374 20.5905 19.8656 20.984 19.6729 21.3623C19.3853 21.9264 18.9264 22.3853 18.3623 22.6729C17.9842 22.8655 17.5904 22.9374 17.1953 22.9697C16.8117 23.001 16.3431 23 15.7998 23H8.2002C7.65686 23 7.18825 23.0011 6.80469 22.9697C6.40959 22.9374 6.01585 22.8655 5.6377 22.6729C5.07363 22.3853 4.61468 21.9264 4.32715 21.3623C4.13446 20.9841 4.06258 20.5905 4.03028 20.1953C3.99894 19.8116 4 19.3433 4 18.7998V6.2002C4.00001 5.65666 3.99893 5.18835 4.03028 4.80469C4.06259 4.40948 4.13446 4.01595 4.32715 3.6377C4.61467 3.0736 5.07365 2.61473 5.6377 2.32715C6.01582 2.13451 6.40962 2.0626 6.80469 2.03027C7.18825 1.99894 7.65687 2 8.2002 2H9.35645C10.0848 1.35812 11.0246 1.00009 12.001 1ZM15.8721 4C15.9559 4.32404 16.001 4.65953 16.001 5V6C16.001 7.10584 15.1033 8 14 8H10.001C9.98524 8 9.96885 7.99977 9.95313 7.99902L9.85059 7.99414C9.83311 7.9933 9.81527 7.99199 9.79786 7.99023C8.78721 7.88764 8.00098 7.03514 8.00098 6V5C8.00098 4.95845 8.00442 4.91148 8.00782 4.86035C8.01802 4.56823 8.05906 4.27979 8.13086 4C7.59371 4.00013 7.23953 4.00222 6.96778 4.02441C6.69671 4.0466 6.59535 4.0842 6.5459 4.10938C6.3581 4.20522 6.20516 4.35806 6.10938 4.5459C6.08419 4.59539 6.04659 4.69646 6.02442 4.96777C6.00127 5.25111 6.00001 5.62366 6 6.2002V18.7998C6 19.3763 6.00127 19.7489 6.02442 20.0322C6.04659 20.3035 6.08419 20.4046 6.10938 20.4541C6.20517 20.6419 6.35809 20.7948 6.5459 20.8906C6.59535 20.9158 6.69665 20.9534 6.96778 20.9756C7.25104 20.9987 7.62394 21 8.2002 21H15.7998C16.376 21 16.749 20.9987 17.0322 20.9756C17.3031 20.9534 17.4046 20.9158 17.4541 20.8906C17.642 20.7948 17.7948 20.642 17.8906 20.4541C17.9158 20.4046 17.9534 20.3037 17.9756 20.0322C17.9987 19.7489 18 19.3763 18 18.7998V6.2002C18 5.62365 17.9987 5.25111 17.9756 4.96777C17.9534 4.6963 17.9158 4.59535 17.8906 4.5459C17.7948 4.35803 17.642 4.20519 17.4541 4.10938C17.4046 4.08419 17.3032 4.04657 17.0322 4.02441C16.761 4.00228 16.4075 4.00014 15.8721 4ZM12.001 3C11.5368 3.00009 11.0884 3.1615 10.7324 3.45312L10.5859 3.58594C10.2299 3.94224 10.0226 4.4226 10.0049 4.93066C10.0041 4.95341 10.0033 4.97639 10.001 4.99902V5.99805L10.0283 6H14.001V5C14.001 4.5362 13.8397 4.08852 13.5479 3.73242L13.415 3.58594C13.0868 3.25781 12.656 3.05526 12.1982 3.00977L12.001 3Z" fill="oklch(0.3523 0 0 / 1)" class="wd-icon-fill"></path>
<g>
<path d="M12.4336 12.6859C12.807 12.5078 13.2548 12.6664 13.4336 13.0394L14.0811 14.3939L15.4395 12.8646C15.7143 12.5556 16.1885 12.5278 16.498 12.8021C16.8074 13.0769 16.8359 13.551 16.5615 13.8607L14.7832 15.8626L15.7705 17.9261C15.9491 18.2997 15.7903 18.7473 15.417 18.9261C15.0434 19.1047 14.5958 18.9471 14.417 18.5736L13.6211 16.9095L11.9834 18.7484C11.7079 19.0576 11.2341 19.0854 10.9248 18.8099C10.6159 18.5343 10.5889 18.0604 10.8643 17.7513L12.9199 15.4427L12.0801 13.6859C11.9021 13.3124 12.0602 12.8644 12.4336 12.6859Z" fill="oklch(0.3523 0 0 / 1)" class="wd-icon-accent"></path>
<path d="M11.0859 9.99741C11.4999 10.0047 11.8301 10.3472 11.8232 10.7611C11.8158 11.1751 11.4736 11.5047 11.0596 11.4974C10.8369 11.4937 10.6327 11.5745 10.5508 11.6468C10.4289 11.7548 10.3051 11.9416 10.2139 12.2367L10.1553 12.4994H10.4355C10.8495 12.4994 11.1851 12.8355 11.1855 13.2494C11.1855 13.6636 10.8498 13.9994 10.4355 13.9994H9.81934L8.83105 18.4115C8.74042 18.8156 8.33968 19.0694 7.93555 18.9789C7.53177 18.888 7.27767 18.4873 7.36816 18.0833L8.28223 13.9994H8.09961C7.68558 13.9991 7.34961 13.6634 7.34961 13.2494C7.35005 12.8356 7.68585 12.4996 8.09961 12.4994H8.61816L8.75977 11.8675L8.7666 11.8412L8.77441 11.8148C8.92154 11.3289 9.16892 10.8671 9.55664 10.5238C9.98612 10.1438 10.5875 9.98882 11.0859 9.99741Z" fill="oklch(0.3523 0 0 / 1)" class="wd-icon-accent"></path>
</g>
</svg>