<svg width="24" height="24" viewBox="0 0 24 24" xmlns="http://www.w3.org/2000/svg" class="wd-icon wd-icon-touch-id" role="presentation">
<g>
<path d="M11.8673 2.00003C12.0707 1.99737 12.2377 2.16071 12.2404 2.36485C12.243 2.569 12.0803 2.73664 11.8769 2.7393C8.36991 2.78511 5.23297 4.80476 3.69844 7.90559C3.60795 8.08844 3.3869 8.16304 3.20472 8.07222C3.02253 7.98141 2.9482 7.75956 3.03868 7.57671C4.695 4.2298 8.08149 2.04949 11.8673 2.00003Z" fill="oklch(0.3523 0 0 / 1)" class="wd-icon-fill"></path>
<path d="M22 12.0356C22 12.2397 21.8351 12.4052 21.6317 12.4052C21.4283 12.4052 21.2634 12.2397 21.2634 12.0356C21.2634 7.50416 18.0106 3.65405 13.6138 2.87903C13.4135 2.84371 13.2796 2.65207 13.3148 2.45099C13.3499 2.24991 13.5409 2.11553 13.7412 2.15084C18.4888 2.9877 22 7.14367 22 12.0356Z" fill="oklch(0.3523 0 0 / 1)" class="wd-icon-fill"></path>
<path d="M2.84044 9.01484C2.64488 8.95866 2.44096 9.07224 2.38498 9.26851C2.13049 10.1609 2 11.0897 2 12.0356C2 13.1802 2.19111 14.2992 2.5609 15.3576C2.62821 15.5502 2.83839 15.6516 3.03035 15.5841C3.22231 15.5165 3.32336 15.3056 3.25605 15.1129C2.91364 14.1329 2.73665 13.0966 2.73665 12.0356C2.73665 11.1587 2.85752 10.2983 3.09319 9.47196C3.14917 9.27568 3.03601 9.07102 2.84044 9.01484Z" fill="oklch(0.3523 0 0 / 1)" class="wd-icon-fill"></path>
<path d="M7.15909 5.17031C7.32504 5.05224 7.55494 5.09154 7.67259 5.25809C7.79023 5.42465 7.75108 5.65538 7.58513 5.77346C5.25984 7.42792 3.87552 10.5003 4.53373 13.6793C4.53977 13.7085 4.54221 13.7375 4.54134 13.7661C4.63917 14.3198 4.68877 14.8843 4.68877 15.455C4.68877 16.1717 4.61053 16.8785 4.45687 17.5664C4.41237 17.7656 4.21539 17.8909 4.0169 17.8462C3.8184 17.8016 3.69357 17.6039 3.73807 17.4046C3.87988 16.7698 3.95212 16.1172 3.95212 15.455C3.95212 14.8897 3.8995 14.3315 3.79584 13.7851C3.79129 13.7611 3.78916 13.7372 3.78928 13.7136C3.12533 10.2731 4.63412 6.96686 7.15909 5.17031Z" fill="oklch(0.3523 0 0 / 1)" class="wd-icon-fill"></path>
<path d="M20.7592 16.7414C20.7351 16.9441 20.5518 17.0888 20.3498 17.0647C20.1478 17.0405 20.0036 16.8565 20.0277 16.6538C20.0677 16.3167 20.0878 15.9787 20.0878 15.6398C20.0878 15.4843 20.0836 15.3289 20.0751 15.1738C20.064 14.9699 20.2197 14.7957 20.4228 14.7845C20.6259 14.7734 20.7996 14.9296 20.8107 15.1335C20.8199 15.302 20.8245 15.4708 20.8245 15.6398C20.8245 16.008 20.8027 16.3753 20.7592 16.7414Z" fill="oklch(0.3523 0 0 / 1)" class="wd-icon-fill"></path>
<path d="M20.3437 13.7197C20.5462 13.7005 20.6949 13.5202 20.6758 13.3169C20.5802 12.302 20.4221 11.2987 20.203 10.3113L20.2018 10.3053C19.3959 6.43884 15.985 3.62569 12 3.62569C10.9037 3.62569 9.83607 3.83728 8.84184 4.24358C8.65344 4.32058 8.5629 4.53627 8.63961 4.72536C8.71632 4.91445 8.93124 5.00532 9.11964 4.92833C10.026 4.55792 10.9993 4.36502 12 4.36502C15.6332 4.36502 18.7435 6.92915 19.4799 10.4526L19.4826 10.4661C19.6958 11.4254 19.8495 12.4002 19.9424 13.3865C19.9615 13.5897 20.1412 13.7389 20.3437 13.7197Z" fill="oklch(0.3523 0 0 / 1)" class="wd-icon-fill"></path>
<path d="M17.8906 10.7638C18.2461 12.3391 18.4273 13.959 18.4273 15.6028C18.4273 16.7885 18.333 17.9621 18.1469 19.1161C18.1143 19.3176 18.2508 19.5074 18.4516 19.5401C18.6524 19.5727 18.8415 19.4358 18.874 19.2342C19.0665 18.0413 19.1639 16.8281 19.1639 15.6028C19.1639 13.8934 18.9743 12.2084 18.6021 10.5699C18.5997 10.5592 18.5968 10.5486 18.5935 10.5383C18.1852 8.71986 17.0419 7.15257 15.4529 6.2031C15.2781 6.09866 15.0521 6.1562 14.948 6.33162C14.844 6.50704 14.9013 6.73392 15.0761 6.83836C16.5002 7.68936 17.5227 9.09724 17.8809 10.7282C17.8836 10.7404 17.8868 10.7522 17.8906 10.7638Z" fill="oklch(0.3523 0 0 / 1)" class="wd-icon-fill"></path>
<path d="M16.8704 20.597C16.816 20.7937 16.613 20.9089 16.417 20.8543C16.221 20.7997 16.1062 20.5959 16.1606 20.3992C16.6121 18.767 16.8435 17.0712 16.8435 15.3441C16.8435 13.7796 16.6537 12.2404 16.282 10.7505C16.2326 10.5525 16.3526 10.3517 16.5499 10.3022C16.7472 10.2526 16.9472 10.3729 16.9966 10.571C17.3829 12.1195 17.5801 13.7189 17.5801 15.3441C17.5801 17.1382 17.3397 18.9006 16.8704 20.597Z" fill="oklch(0.3523 0 0 / 1)" class="wd-icon-fill"></path>
<path d="M12.586 21.9728C12.7745 22.0495 12.9893 21.9584 13.0657 21.7692C13.6443 20.3377 14.0263 18.829 14.1979 17.2763C14.2204 17.0734 14.0746 16.8907 13.8725 16.8682C13.6703 16.8457 13.4882 16.9919 13.4658 17.1948C13.3017 18.6798 12.9363 20.1225 12.3831 21.4913C12.3066 21.6805 12.3975 21.8961 12.586 21.9728Z" fill="oklch(0.3523 0 0 / 1)" class="wd-icon-fill"></path>
<path d="M14.302 15.381C14.302 15.5852 14.1371 15.7507 13.9337 15.7507C13.7303 15.7507 13.5654 15.5852 13.5654 15.381C13.5654 14.1584 13.431 12.9536 13.1673 11.7817C13.1623 11.7596 13.1594 11.7374 13.1585 11.7155C13.0244 11.2023 12.559 10.8342 12.0184 10.8342C11.3675 10.8342 10.8398 11.3638 10.8398 12.0171C10.8398 12.1425 10.8564 12.3597 10.9063 12.61C10.9106 12.6317 10.9129 12.6533 10.9134 12.6746C11.0357 13.4549 11.0976 14.2478 11.0976 15.0483C11.0976 17.2784 10.6172 19.4409 9.70205 21.4203C9.61644 21.6055 9.39744 21.686 9.21292 21.6001C9.02839 21.5142 8.94821 21.2944 9.03383 21.1092C9.90409 19.2267 10.361 17.1703 10.361 15.0483C10.361 14.2672 10.2991 13.494 10.1769 12.7338C10.1749 12.7215 10.1736 12.7093 10.1728 12.6971C10.1208 12.4174 10.1031 12.1765 10.1031 12.0171C10.1031 10.9554 10.9606 10.0948 12.0184 10.0948C12.933 10.0948 13.7147 10.7428 13.8951 11.6317C13.8993 11.6523 13.9017 11.6728 13.9024 11.6931C14.1672 12.8949 14.302 14.1293 14.302 15.381Z" fill="oklch(0.3523 0 0 / 1)" class="wd-icon-fill"></path>
<path d="M10.8785 21.9655C11.0674 22.0414 11.2818 21.9494 11.3575 21.7599C11.4187 21.6067 11.5101 21.374 11.6017 21.1329L11.6213 21.0811C11.6922 20.8935 11.7497 20.7358 11.7901 20.6161C11.8553 20.4227 11.752 20.2128 11.5593 20.1474C11.3667 20.0819 11.1576 20.1856 11.0923 20.3789C11.0554 20.4885 11.0006 20.6389 10.9326 20.8188L10.9134 20.8694C10.8236 21.1058 10.7335 21.3351 10.6737 21.4848C10.598 21.6743 10.6897 21.8895 10.8785 21.9655Z" fill="oklch(0.3523 0 0 / 1)" class="wd-icon-fill"></path>
<path d="M12.2594 18.9474C12.2142 19.1465 12.0168 19.2711 11.8185 19.2258C11.6201 19.1805 11.4959 18.9824 11.5411 18.7834C11.8085 17.6037 11.9448 16.3905 11.9448 15.1592C11.9448 14.1314 11.8498 13.116 11.6628 12.1219C11.625 11.9213 11.7564 11.728 11.9563 11.6901C12.1562 11.6522 12.3489 11.7841 12.3866 11.9847C12.5822 13.024 12.6814 14.0854 12.6814 15.1592C12.6814 16.4458 12.539 17.714 12.2594 18.9474Z" fill="oklch(0.3523 0 0 / 1)" class="wd-icon-fill"></path>
<path d="M14.4026 21.6922C14.5946 21.7596 14.8047 21.6581 14.8719 21.4654C15.5646 19.4798 15.9227 17.3807 15.9227 15.2332C15.9227 13.9496 15.7948 12.6824 15.5432 11.4447L15.5426 11.442C15.2573 9.71479 13.7631 8.43133 12 8.43133C11.5844 8.43133 11.1779 8.50237 10.7939 8.63974C10.6023 8.70829 10.5024 8.91976 10.5707 9.11207C10.639 9.30438 10.8497 9.4047 11.0413 9.33614C11.3461 9.22708 11.6689 9.17066 12 9.17066C13.4022 9.17066 14.5907 10.1923 14.8163 11.5654C14.8173 11.5711 14.8183 11.5768 14.8195 11.5823L14.8214 11.5925C15.0631 12.7816 15.186 13.9993 15.186 15.2332C15.186 17.2972 14.8421 19.3137 14.1767 21.2211C14.1094 21.4138 14.2106 21.6247 14.4026 21.6922Z" fill="oklch(0.3523 0 0 / 1)" class="wd-icon-fill"></path>
<path d="M7.68859 21.0333C7.86968 21.1263 8.0916 21.0543 8.18425 20.8726C9.04334 19.1873 9.51381 17.2659 9.51381 15.3441C9.51381 14.7187 9.46387 14.0995 9.3652 13.4907C9.36966 13.4393 9.36344 13.3862 9.34502 13.3344C9.30235 13.2145 9.2643 13.0529 9.23248 12.8621C9.20198 12.6792 9.17892 12.4809 9.1625 12.2824C9.15264 12.1631 9.14724 12.0711 9.14518 12.0205C9.14549 11.3459 9.38865 10.6949 9.82464 10.1805C9.95644 10.025 9.93768 9.79167 9.78273 9.65939C9.62779 9.52711 9.39533 9.54594 9.26353 9.70145C8.71527 10.3483 8.40884 11.1687 8.40884 12.0356C8.4116 12.111 8.41759 12.2131 8.42838 12.3435C8.44636 12.561 8.47169 12.7788 8.50594 12.9841C8.53682 13.1694 8.57354 13.3359 8.61771 13.481C8.6186 13.4907 8.61988 13.5005 8.62156 13.5102C8.72483 14.1117 8.77716 14.7245 8.77716 15.3441C8.77716 17.1477 8.33491 18.9538 7.52845 20.5358C7.4358 20.7176 7.5075 20.9403 7.68859 21.0333Z" fill="oklch(0.3523 0 0 / 1)" class="wd-icon-fill"></path>
<path d="M7.44483 16.662C7.6474 16.6806 7.82665 16.5309 7.84519 16.3276C7.87712 15.9775 7.89319 15.6248 7.89319 15.2701C7.89319 14.6198 7.83917 13.9761 7.7325 13.3438C7.7271 13.3118 7.71774 13.2814 7.70501 13.2531C7.68077 13.1486 7.65864 13.0248 7.639 12.8861C7.61288 12.7017 7.59262 12.5023 7.57766 12.3026C7.56868 12.1827 7.56351 12.09 7.56138 12.0387C7.56169 9.58371 9.55704 7.5811 12.0184 7.5811C13.3812 7.5811 14.6424 8.1984 15.4839 9.24127C15.6119 9.39993 15.8438 9.42439 16.0019 9.29591C16.16 9.16742 16.1844 8.93465 16.0563 8.77599C15.0765 7.56157 13.6059 6.84177 12.0184 6.84177C9.1502 6.84177 6.82505 9.17539 6.82505 12.054C6.82782 12.1286 6.83344 12.2293 6.84309 12.358C6.85917 12.5728 6.88101 12.7878 6.90968 12.9902C6.93965 13.2018 6.97549 13.3881 7.01895 13.5446C7.11029 14.1113 7.15654 14.6877 7.15654 15.2701C7.15654 15.6023 7.1415 15.9325 7.11161 16.2602C7.09307 16.4635 7.24226 16.6434 7.44483 16.662Z" fill="oklch(0.3523 0 0 / 1)" class="wd-icon-fill"></path>
<path d="M6.35875 20.248C6.54345 20.3336 6.76228 20.2527 6.84753 20.0673C7.12833 19.4567 7.35514 18.8216 7.52479 18.1683C7.57609 17.9707 7.45811 17.7689 7.26126 17.7174C7.06442 17.6659 6.86326 17.7843 6.81195 17.9818C6.65333 18.5927 6.44126 19.1865 6.17869 19.7575C6.09344 19.9428 6.17406 20.1625 6.35875 20.248Z" fill="oklch(0.3523 0 0 / 1)" class="wd-icon-fill"></path>
<path d="M13.7682 5.48681C13.9646 5.5401 14.0807 5.74306 14.0276 5.94015C13.9746 6.13723 13.7723 6.2538 13.576 6.20052C13.0666 6.0623 12.5382 5.99155 12 5.99155C8.67409 5.99155 5.9779 8.69754 5.97467 12.0844C5.97608 12.0721 5.97608 12.0721 5.97579 12.0755C5.96632 12.2412 6.00025 12.6629 6.11966 13.4312C6.24547 14.0564 6.30939 14.6962 6.30939 15.3441C6.30939 16.607 6.0664 17.8366 5.59992 18.981C5.5229 19.17 5.30784 19.2605 5.11956 19.1832C4.93129 19.1059 4.8411 18.89 4.91812 18.7011C5.34853 17.6451 5.57274 16.5106 5.57274 15.3441C5.57274 14.738 5.51225 14.14 5.39324 13.5561C5.3905 13.5427 5.38853 13.5293 5.38729 13.516C5.26416 12.7184 5.2275 12.258 5.24035 12.0332L5.24127 12.02L5.24125 12.0355C5.2418 12.0198 5.24194 12.0121 5.24194 12.0121L5.24127 12.02C5.24961 8.28084 8.2724 5.25222 12 5.25222C12.6032 5.25222 13.1963 5.33163 13.7682 5.48681Z" fill="oklch(0.3523 0 0 / 1)" class="wd-icon-fill"></path>
</g>
</svg>