<svg width="24" height="24" viewBox="0 0 24 24" xmlns="http://www.w3.org/2000/svg" class="wd-icon wd-icon-shield-heart" role="presentation">
<path d="M20 9.5C20 12.6826 18.7358 15.7349 16.4854 17.9854C15.2079 19.2628 13.6713 20.2205 12 20.8115C10.3287 20.2205 8.79209 19.2628 7.51465 17.9854C5.26421 15.7349 4 12.6826 4 9.5V6.2793C4 6.1371 4.06029 6.00107 4.16797 5.9082C6.26986 4.09593 9.00695 3.00001 12 3C14.9931 3 17.7301 4.09592 19.832 5.9082C19.9397 6.00108 20 6.13708 20 6.2793V9.5Z" fill="transparent" class="wd-icon-background"></path>
<path d="M12 2C15.2417 2 18.2088 3.18757 20.4854 5.15039C20.8207 5.43958 21 5.85607 21 6.2793V9.5C21 12.9478 19.6304 16.2544 17.1924 18.6924C15.8079 20.0769 14.1428 21.1139 12.333 21.7539C12.1174 21.8301 11.8826 21.8301 11.667 21.7539C9.85721 21.1139 8.19209 20.0769 6.80762 18.6924C4.44592 16.3307 3.08665 13.1539 3.00391 9.82324L3 9.5V6.2793L3.00879 6.12109C3.04778 5.75399 3.22136 5.40335 3.51465 5.15039C5.79116 3.18758 8.75828 2.00001 12 2ZM12 4C9.33915 4.00001 6.90255 4.94555 5 6.51758V9.5L5.01367 10.0459C5.14865 12.7645 6.28783 15.3445 8.22168 17.2783C9.30658 18.3632 10.5965 19.1954 12 19.7432C13.4035 19.1954 14.6934 18.3632 15.7783 17.2783C17.8412 15.2154 19 12.4174 19 9.5V6.51758C17.0974 4.94554 14.6609 4 12 4Z" fill="oklch(0.3523 0 0 / 1)" class="wd-icon-fill"></path>
<path d="M12.2333 9.22755C13.0626 7.90583 14.8668 7.61816 16.0663 8.61622C17.2679 9.61611 17.3101 11.4464 16.1561 12.501L12.4637 15.874L12.4647 15.875L11.9999 16.2998L7.84362 12.501C6.6898 11.4465 6.73207 9.61612 7.93346 8.61622C9.13289 7.6182 10.9371 7.90598 11.7665 9.22755L11.9999 9.59962L12.2333 9.22755Z" fill="oklch(0.3523 0 0 / 1)" class="wd-icon-accent"></path>
</svg>