<svg width="24" height="24" viewBox="0 0 24 24" xmlns="http://www.w3.org/2000/svg" class="wd-icon wd-icon-airplane" role="presentation">
<path d="M17.1337 3.07435C18.2647 2.64428 19.6443 2.50387 20.5693 3.42884L20.7304 3.60755C21.4753 4.52543 21.327 5.80418 20.9238 6.86439C20.4668 8.06608 19.5537 9.39359 18.2793 10.6681C18.1462 10.8011 18.0092 10.9312 17.874 11.0626L19.1025 16.9347C19.3778 18.2507 18.6177 19.5646 17.3388 19.9806C16.5477 20.2372 15.6832 19.9234 15.2402 19.2208L12.8828 15.4786C12.2969 15.959 11.7642 16.3832 11.3203 16.7335L11.2705 18.2716C11.2368 19.2856 10.8193 20.251 10.1015 20.9689L9.72164 21.3488C8.94942 22.1208 7.63809 21.835 7.25582 20.8136L6.1484 17.8507L3.18551 16.7433C2.16399 16.3611 1.8791 15.0506 2.65035 14.2785L3.02926 13.8986L3.03023 13.8976C3.74804 13.18 4.71215 12.7622 5.72652 12.7286L7.26168 12.6769C7.6117 12.233 8.03497 11.699 8.51558 11.1124L4.77828 8.7599C4.07422 8.31654 3.76139 7.45047 4.01851 6.65931C4.43436 5.38091 5.74729 4.62068 7.06344 4.89564L12.9336 6.12318C13.0658 5.98766 13.1972 5.85175 13.33 5.71888C14.6046 4.44442 15.9321 3.5314 17.1337 3.07435ZM19.1552 4.8429C19.104 4.79168 18.7782 4.58852 17.8447 4.94349C16.9818 5.27169 15.8847 5.99241 14.7441 7.13294C14.493 7.38405 14.2409 7.64311 13.9892 7.90638L13.6054 8.30775L6.65328 6.85267C6.38358 6.79661 6.11515 6.9221 5.97945 7.15052L11.5156 10.6368L10.7802 11.5158C9.85754 12.6169 9.07447 13.5993 8.54586 14.2765L8.25875 14.6456L7.79098 14.6603L5.79293 14.7267C5.36903 14.7407 4.96332 14.8909 4.6318 15.1486L7.70308 16.297L8.84957 19.3663C9.1071 19.0349 9.25835 18.6302 9.27242 18.2062L9.33785 16.2062L9.3525 15.7384L9.72164 15.4503C10.3981 14.9223 11.3799 14.1385 12.4814 13.216L13.3593 12.4806L16.8466 18.0187C17.0752 17.883 17.2018 17.6151 17.1455 17.3449L15.6904 10.3908L16.0918 10.007C16.3568 9.75363 16.6159 9.50335 16.8652 9.25404C18.0057 8.11348 18.7265 7.01637 19.0546 6.15345C19.365 5.3374 19.248 4.98589 19.1796 4.87611L19.1552 4.8429Z" fill="oklch(0.3523 0 0 / 1)" class="wd-icon-fill"></path>
</svg>