<svg width="24" height="24" viewBox="0 0 24 24" xmlns="http://www.w3.org/2000/svg" class="wd-icon wd-icon-arrow-up-circle" role="presentation">
<g>
<path d="M11.293 7.29297C11.6833 6.90265 12.3165 6.90294 12.707 7.29297L15.707 10.293C16.0971 10.6835 16.0973 11.3167 15.707 11.707C15.3167 12.0973 14.6835 12.0971 14.293 11.707L13 10.4141V15.999C13 16.5512 12.5521 16.9988 12 16.999C11.4479 16.9988 11 16.5512 11 15.999V10.4141L9.70703 11.707C9.31665 12.0974 8.68352 12.0971 8.29297 11.707C7.90293 11.3165 7.90261 10.6833 8.29297 10.293L11.293 7.29297Z" fill="oklch(0.3523 0 0 / 1)" class="wd-icon-fill"></path>
<path d="M12 2C17.5228 2 22 6.47715 22 12C22 17.5228 17.5228 22 12 22C6.47715 22 2 17.5228 2 12C2 6.47715 6.47715 2 12 2ZM12 4C7.58172 4 4 7.58172 4 12C4 16.4183 7.58172 20 12 20C16.4183 20 20 16.4183 20 12C20 7.58172 16.4183 4 12 4Z" fill="oklch(0.3523 0 0 / 1)" class="wd-icon-fill"></path>
</g>
</svg>