<svg width="24" height="24" viewBox="0 0 24 24" xmlns="http://www.w3.org/2000/svg" class="wd-icon wd-icon-scribble" role="presentation">
<path d="M15.3728 3.19559C15.7709 3.11979 16.2601 3.02149 16.8777 3.35672C17.2758 3.57565 17.5297 4.03739 17.5837 4.37528C17.6472 4.7233 17.6182 4.97576 17.5769 5.23465C17.4962 5.68916 17.3422 6.09791 17.195 6.45145C16.8845 7.18319 16.5216 7.84006 16.1482 8.48954C15.4026 9.77408 14.6035 11.0004 13.8171 12.2239C13.0315 13.4458 12.2427 14.6647 11.5417 15.8948C11.1915 16.5136 10.8593 17.1398 10.612 17.7552C10.4932 18.0513 10.3883 18.3761 10.3562 18.6175C10.3389 18.7376 10.3449 18.8333 10.3523 18.8704C10.6763 19.0537 11.7584 18.602 12.5261 18.0657C13.3783 17.5009 14.1997 16.8272 15.0114 16.139C15.825 15.448 16.6235 14.7326 17.4626 14.0257C17.8831 13.6733 18.309 13.3242 18.778 12.9915C19.0032 12.8332 19.2635 12.6599 19.5456 12.5179C19.7033 12.4403 19.8475 12.3753 20.0612 12.3206C20.251 12.2777 20.5606 12.2166 20.9138 12.3997C21.3091 12.605 21.4751 13.0354 21.5085 13.2962C21.5498 13.5805 21.5286 13.7947 21.4997 14.013C21.4385 14.428 21.328 14.794 21.2126 15.1458C20.9771 15.8494 20.6965 16.5108 20.4177 17.1643C20.1388 17.8163 19.8529 18.4609 19.6023 19.097C19.4773 19.4161 19.3594 19.7361 19.2761 20.0384C19.2399 20.1695 19.2111 20.3092 19.1989 20.4143C19.2633 20.4073 19.3494 20.3906 19.447 20.3489C20.1777 20.0371 20.9543 19.3245 21.5915 18.6585C21.6893 18.5518 21.8264 18.4877 21.9714 18.4807C22.1162 18.4739 22.2576 18.5247 22.365 18.6214C22.4724 18.7183 22.5375 18.8543 22.5456 18.9993C22.5535 19.1443 22.504 19.2866 22.4079 19.3948C21.6748 20.1647 20.9809 20.8964 19.8786 21.4104C19.5367 21.544 18.9988 21.7273 18.4333 21.3723C18.1861 21.2083 18.0873 20.9518 18.0544 20.7903C18.0196 20.6183 18.0225 20.4927 18.03 20.3636C18.0464 20.1323 18.0931 19.9247 18.1403 19.7386C18.2393 19.359 18.3623 19.0124 18.49 18.6702C18.7452 17.993 19.0245 17.34 19.2907 16.6907C19.5562 16.0427 19.8175 15.3946 20.0193 14.7591C20.118 14.4451 20.2051 14.1225 20.2409 13.8421C20.2517 13.7591 20.2541 13.6811 20.2536 13.6165C20.2144 13.6301 20.1725 13.6486 20.1345 13.6751C19.9529 13.7694 19.7338 13.9159 19.5407 14.0569C19.1341 14.3543 18.7301 14.6933 18.3288 15.0403C17.5242 15.7388 16.7334 16.469 15.9148 17.1858C15.0951 17.9013 14.2593 18.6122 13.323 19.2542C12.8512 19.5731 12.3586 19.878 11.7771 20.1145C11.2177 20.3269 10.4294 20.5862 9.58468 20.136C9.24115 19.952 8.99275 19.5802 8.91476 19.2571C8.83316 18.941 8.84416 18.6807 8.87179 18.4319C8.92894 17.9743 9.06563 17.5684 9.20187 17.2063C9.48705 16.4672 9.8335 15.8 10.1921 15.1419C10.9077 13.8416 11.6872 12.5988 12.4558 11.3626C13.2241 10.1274 13.9981 8.89849 14.6911 7.66141C15.037 7.04004 15.3666 6.41284 15.615 5.80008C15.7327 5.50921 15.8411 5.18167 15.8757 4.95047C15.8795 4.92713 15.8784 4.90389 15.8806 4.88309C15.8462 4.88748 15.8063 4.89457 15.7634 4.90653C15.5798 4.95038 15.345 5.04133 15.1091 5.15458C14.6354 5.3828 14.1696 5.67339 13.698 5.99442C12.7616 6.63615 11.8496 7.3704 10.9607 8.12528C9.18138 9.64319 7.46735 11.2745 5.79757 12.9358C5.09181 13.6397 4.39106 14.3522 3.7214 15.0569C3.53947 15.2495 3.28903 15.3617 3.02413 15.3675C2.75926 15.3731 2.50118 15.2718 2.30831 15.0872C2.11553 14.9023 2.00243 14.6481 1.99679 14.3831C1.99133 14.1182 2.09329 13.863 2.27804 13.6731C2.98698 12.9493 3.69891 12.2466 4.42843 11.5403C6.1497 9.87865 7.91337 8.2494 9.77413 6.70926C10.7059 5.94224 11.6628 5.19193 12.697 4.50516C13.2219 4.16022 13.7433 3.8395 14.3591 3.55301C14.6705 3.41066 15.0011 3.27949 15.3728 3.19559Z" fill="oklch(0.3523 0 0 / 1)" class="wd-icon-fill"></path>
</svg>