<svg width="24" height="24" viewBox="0 0 24 24" xmlns="http://www.w3.org/2000/svg" class="wd-icon wd-icon-key-command" role="presentation">
<path d="M16.75 4C18.5449 4 20 5.45507 20 7.25C20 9.04493 18.5449 10.5 16.75 10.5H15.5V13.5H16.75C18.5449 13.5 20 14.9551 20 16.75C20 18.5449 18.5449 20 16.75 20C14.9551 20 13.5 18.5449 13.5 16.75V15.5H10.5V16.75C10.5 18.5449 9.04493 20 7.25 20C5.45507 20 4 18.5449 4 16.75C4 14.9551 5.45507 13.5 7.25 13.5H8.5V10.5H7.25C5.45507 10.5 4 9.04493 4 7.25C4 5.45507 5.45507 4 7.25 4C9.04493 4 10.5 5.45507 10.5 7.25V8.5H13.5V7.25C13.5 5.45507 14.9551 4 16.75 4ZM7.25 15.5C6.55964 15.5 6 16.0596 6 16.75C6 17.4404 6.55964 18 7.25 18C7.94036 18 8.5 17.4404 8.5 16.75V15.5H7.25ZM15.5 16.75C15.5 17.4404 16.0596 18 16.75 18C17.4404 18 18 17.4404 18 16.75C18 16.0596 17.4404 15.5 16.75 15.5H15.5V16.75ZM10.5 13.5H13.5V10.5H10.5V13.5ZM7.25 6C6.55964 6 6 6.55964 6 7.25C6 7.94036 6.55964 8.5 7.25 8.5H8.5V7.25C8.5 6.55964 7.94036 6 7.25 6ZM16.75 6C16.0596 6 15.5 6.55964 15.5 7.25V8.5H16.75C17.4404 8.5 18 7.94036 18 7.25C18 6.55964 17.4404 6 16.75 6Z" fill="oklch(0.3523 0 0 / 1)" class="wd-icon-fill"></path>
</svg>