<svg width="24" height="24" viewBox="0 0 24 24" xmlns="http://www.w3.org/2000/svg" class="wd-icon wd-icon-arrow-down-circle" role="presentation">
<g>
<path d="M12 7.00098C12.5521 7.00118 13 7.44882 13 8.00098V13.5859L14.293 12.293C14.6834 11.9026 15.3165 11.9029 15.707 12.293C16.0971 12.6835 16.0974 13.3167 15.707 13.707L12.707 16.707C12.3167 17.0973 11.6835 17.0971 11.293 16.707L8.29297 13.707C7.90294 13.3165 7.90265 12.6833 8.29297 12.293C8.68334 11.9027 9.31649 11.9029 9.70703 12.293L11 13.5859V8.00098C11 7.4488 11.4479 7.00116 12 7.00098Z" fill="oklch(0.3523 0 0 / 1)" class="wd-icon-fill"></path>
<path d="M12 2C17.5228 2 22 6.47715 22 12C22 17.5228 17.5228 22 12 22C6.47715 22 2 17.5228 2 12C2 6.47715 6.47715 2 12 2ZM12 4C7.58172 4 4 7.58172 4 12C4 16.4183 7.58172 20 12 20C16.4183 20 20 16.4183 20 12C20 7.58172 16.4183 4 12 4Z" fill="oklch(0.3523 0 0 / 1)" class="wd-icon-fill"></path>
</g>
</svg>