<svg width="24" height="24" viewBox="0 0 24 24" xmlns="http://www.w3.org/2000/svg" class="wd-icon wd-icon-filter-x" role="presentation">
<g>
<path d="M14.5 16C15.0523 16 15.5 16.4477 15.5 17C15.5 17.5523 15.0523 18 14.5 18H9.5C8.94772 18 8.5 17.5523 8.5 17C8.5 16.4477 8.94772 16 9.5 16H14.5Z" fill="oklch(0.3523 0 0 / 1)" class="wd-icon-fill"></path>
<path d="M17.5 11C18.0523 11 18.5 11.4477 18.5 12C18.5 12.5523 18.0523 13 17.5 13H6.5C5.94772 13 5.5 12.5523 5.5 12C5.5 11.4477 5.94772 11 6.5 11H17.5Z" fill="oklch(0.3523 0 0 / 1)" class="wd-icon-fill"></path>
<path d="M20.5 6C21.0523 6 21.5 6.44772 21.5 7C21.5 7.55228 21.0523 8 20.5 8H3.5C2.94772 8 2.5 7.55228 2.5 7C2.5 6.44772 2.94772 6 3.5 6H20.5Z" fill="oklch(0.3523 0 0 / 1)" class="wd-icon-fill"></path>
</g>
<path d="M21.7223 16.2157C22.0152 15.923 22.49 15.9229 22.7828 16.2157C23.075 16.5086 23.0753 16.9836 22.7828 17.2763L21.0651 18.994L22.7897 20.7186C23.082 21.0116 23.0824 21.4865 22.7897 21.7792C22.4969 22.0713 22.0219 22.0714 21.7291 21.7792L20.0045 20.0546L18.2799 21.7792C17.9872 22.0712 17.5121 22.0712 17.2194 21.7792C16.9267 21.4865 16.9271 21.0116 17.2194 20.7186L18.944 18.994L17.2262 17.2763C16.9336 16.9835 16.9339 16.5086 17.2262 16.2157C17.5191 15.9229 17.9938 15.9229 18.2867 16.2157L20.0045 17.9335L21.7223 16.2157Z" fill="oklch(0.3523 0 0 / 1)" class="wd-icon-accent"></path>
</svg>