<svg width="24" height="24" viewBox="0 0 24 24" xmlns="http://www.w3.org/2000/svg" class="wd-icon wd-icon-money-search" role="presentation">
<g>
<path d="M17 13C19.2091 13 21 14.7909 21 17C21 17.7417 20.7971 18.4358 20.4453 19.0312L22.1035 20.6895C22.2985 20.8846 22.2984 21.2012 22.1035 21.3965L21.3965 22.1035C21.2013 22.2987 20.8847 22.2986 20.6895 22.1035L19.0312 20.4453C18.4358 20.7971 17.7417 21 17 21C14.7909 21 13 19.2091 13 17C13 14.7909 14.7909 13 17 13ZM17 15C15.8954 15 15 15.8954 15 17C15 18.1046 15.8954 19 17 19C18.1046 19 19 18.1046 19 17C19 15.8954 18.1046 15 17 15Z" fill="oklch(0.3523 0 0 / 1)" class="wd-icon-fill"></path>
<path d="M22 5C22.5523 5 23 5.44772 23 6V13.5C23 13.7761 22.7761 14 22.5 14H21.5C21.2239 14 21 13.7761 21 13.5V11C18.7909 11 17 9.20914 17 7H7C7 9.20914 5.20914 11 3 11V13C5.20914 13 7 14.7909 7 17H10.5C10.7761 17 11 17.2239 11 17.5V18.5C11 18.7761 10.7761 19 10.5 19H2C1.44772 19 1 18.5523 1 18V6C1 5.44772 1.44772 5 2 5H22ZM3 17H5C5 15.8954 4.10457 15 3 15V17ZM3 9C4.10457 9 5 8.10457 5 7H3V9ZM19 7C19 8.10457 19.8954 9 21 9V7H19Z" fill="oklch(0.3523 0 0 / 1)" class="wd-icon-fill"></path>
<path d="M12 8C14.0401 8 15.7231 9.52737 15.9688 11.501C16.0029 11.775 15.7761 12 15.5 12H14.5C14.2239 12 14.0066 11.7725 13.9385 11.5049C13.7182 10.6398 12.9337 10 12 10C10.8954 10 10 10.8954 10 12C10 12.6918 10.3519 13.3036 10.8877 13.6631C11.1168 13.817 11.258 14.0982 11.166 14.3584L11 14.8291L10.833 15.3008C10.741 15.5612 10.4538 15.7002 10.207 15.5762C8.89931 14.9191 8 13.5656 8 12C8 9.79086 9.79086 8 12 8Z" fill="oklch(0.3523 0 0 / 1)" class="wd-icon-fill"></path>
</g>
</svg>