<svg width="24" height="24" viewBox="0 0 24 24" xmlns="http://www.w3.org/2000/svg" class="wd-icon wd-icon-caret-top" role="presentation">
<g>
<path d="M17 15C17.5523 15 18 15.4477 18 16C18 16.5523 17.5523 17 17 17H7C6.44772 17 6 16.5523 6 16C6 15.4477 6.44772 15 7 15H17Z" fill="oklch(0.3523 0 0 / 1)" class="wd-icon-fill"></path>
<path d="M12 5.24902C12.2278 5.24902 12.4436 5.35235 12.5859 5.53027L17.5859 11.7812C17.766 12.0064 17.8017 12.3154 17.6768 12.5752C17.5519 12.8348 17.2891 12.9999 17.001 13H7C6.71182 13 6.44917 12.8349 6.32422 12.5752C6.19932 12.3154 6.23399 12.0064 6.41406 11.7812L11.4141 5.53027C11.5564 5.35234 11.7721 5.24903 12 5.24902Z" fill="oklch(0.3523 0 0 / 1)" class="wd-icon-fill"></path>
</g>
</svg>