<svg width="24" height="24" viewBox="0 0 24 24" xmlns="http://www.w3.org/2000/svg" class="wd-icon wd-icon-search-sparkle" role="presentation">
<path d="M7.68852 2.63184C9.20649 2.03114 10.8563 1.85531 12.461 2.11915C12.7334 2.16396 12.9036 2.43261 12.8438 2.70216L12.627 3.67872C12.5672 3.94818 12.3004 4.11644 12.0274 4.07618C10.8138 3.89621 9.57001 4.03763 8.42387 4.49122C7.12246 5.00635 6.00539 5.90026 5.21684 7.05665C4.4284 8.21297 4.00434 9.57899 4.00004 10.9785C3.99584 12.3783 4.41177 13.748 5.1934 14.9092C5.97497 16.0701 7.08665 16.9703 8.38481 17.4932C9.68323 18.0161 11.1093 18.1381 12.4776 17.8428C13.8457 17.5474 15.0936 16.8478 16.0606 15.8359C16.9123 14.9447 17.5118 13.8465 17.8018 12.6543C17.8671 12.3862 18.1234 12.2023 18.3955 12.2481L18.8887 12.3311L19.3819 12.415C19.6537 12.4614 19.8383 12.7193 19.7774 12.9883C19.4768 14.3155 18.878 15.555 18.0303 16.6162L22.3536 20.9395C22.5488 21.1347 22.5488 21.4512 22.3536 21.6465L21.6465 22.3535C21.4513 22.5487 21.1347 22.5487 20.9395 22.3535L16.6163 18.0303C15.5342 18.8945 14.2637 19.5023 12.8995 19.7969C11.1403 20.1767 9.30715 20.0209 7.63774 19.3486C5.96842 18.6763 4.53916 17.5183 3.53422 16.0254C2.52931 14.5324 1.99464 12.7723 2.00004 10.9727C2.00552 9.17308 2.55064 7.41652 3.56449 5.9297C4.57842 4.4428 6.01511 3.29413 7.68852 2.63184Z" fill="oklch(0.3523 0 0 / 1)" class="wd-icon-fill"></path>
<path d="M18.5 1C18.7761 1 18.9971 1.22499 19.0312 1.49902C19.2565 3.30913 20.6909 4.74346 22.501 4.96875C22.775 5.00285 23 5.22386 23 5.5C23 5.77614 22.775 5.99715 22.501 6.03125C20.6909 6.25654 19.2565 7.69087 19.0312 9.50098C18.9971 9.77501 18.7761 10 18.5 10C18.2239 10 18.0029 9.77501 17.9688 9.50098C17.7435 7.69087 16.3091 6.25654 14.499 6.03125C14.225 5.99715 14 5.77614 14 5.5C14 5.22386 14.225 5.00285 14.499 4.96875C16.3091 4.74346 17.7435 3.30913 17.9688 1.49902C18.0029 1.22499 18.2239 1 18.5 1Z" fill="oklch(0.3523 0 0 / 1)" class="wd-icon-accent"></path>
</svg>