<svg width="24" height="24" viewBox="0 0 24 24" xmlns="http://www.w3.org/2000/svg" class="wd-icon wd-icon-search-sparkle" role="presentation">
<path d="M10.5 2C11.0523 2 11.5 2.44772 11.5 3C11.5 3.55228 11.0523 4 10.5 4C9.35901 4 8.23812 4.3006 7.25 4.87109C6.26196 5.44156 5.44156 6.26196 4.87109 7.25C4.3006 8.23812 4 9.35901 4 10.5C4 11.641 4.3006 12.7619 4.87109 13.75C5.44156 14.738 6.26196 15.5584 7.25 16.1289C8.23812 16.6994 9.35901 17 10.5 17C11.641 17 12.7619 16.6994 13.75 16.1289C14.738 15.5584 15.5584 14.738 16.1289 13.75C16.405 13.2718 17.0168 13.1078 17.4951 13.3838C17.9734 13.6599 18.1374 14.2717 17.8613 14.75C17.6567 15.1044 17.4264 15.4415 17.1748 15.7607L21.707 20.293C22.0974 20.6835 22.0975 21.3165 21.707 21.707C21.3165 22.0974 20.6835 22.0974 20.293 21.707L15.7607 17.1748C15.4415 17.4264 15.1044 17.6567 14.75 17.8613C13.4578 18.6073 11.992 19 10.5 19C9.00796 19 7.54215 18.6073 6.25 17.8613C4.95784 17.1153 3.8847 16.0422 3.13867 14.75C2.39266 13.4578 2 11.992 2 10.5C2 9.00796 2.39266 7.54215 3.13867 6.25C3.8847 4.95784 4.95784 3.8847 6.25 3.13867C7.54215 2.39266 9.00796 2 10.5 2Z" fill="oklch(0.3523 0 0 / 1)" class="wd-icon-fill"></path>
<path d="M17.498 2C17.783 2 18.0151 2.22343 18.0654 2.50391C18.3774 4.24611 19.7509 5.61948 21.4932 5.93164C21.7739 5.98193 21.9978 6.21388 21.998 6.49902C21.998 6.78439 21.7741 7.01704 21.4932 7.06738C19.751 7.37966 18.3775 8.75382 18.0654 10.4961C18.0151 10.7766 17.783 11 17.498 11C17.2131 11 16.981 10.7766 16.9307 10.4961C16.6186 8.75382 15.2451 7.37966 13.5029 7.06738C13.222 7.01704 12.998 6.78439 12.998 6.49902C12.9983 6.21388 13.2222 5.98193 13.5029 5.93164C15.2452 5.61948 16.6187 4.24611 16.9307 2.50391C16.981 2.22343 17.2131 2 17.498 2Z" fill="oklch(0.3523 0 0 / 1)" class="wd-icon-accent"></path>
</svg>