<svg width="24" height="24" viewBox="0 0 24 24" xmlns="http://www.w3.org/2000/svg" class="wd-icon wd-icon-fingerprint-android" role="presentation">
<path d="M17.8137 4.47C17.7337 4.47 17.6537 4.45 17.5837 4.41C15.6637 3.42 14.0037 3 12.0137 3C10.0337 3 8.15365 3.47 6.44365 4.41C6.20365 4.54 5.90365 4.45 5.76365 4.21C5.63391 3.9667 5.72285 3.66431 5.96365 3.53C7.82365 2.52 9.86365 2 12.0137 2C14.1437 2 16.0037 2.47 18.0437 3.52C18.2937 3.65 18.3837 3.95 18.2537 4.19C18.173 4.36012 18.0019 4.46895 17.8137 4.47ZM3.50365 9.72C3.31569 9.72175 3.14269 9.61773 3.0561 9.45088C2.96951 9.28404 2.98403 9.0827 3.09365 8.93C4.08365 7.53 5.34365 6.43 6.84365 5.66C9.98365 4.04 14.0037 4.03 17.1537 5.65C18.6537 6.42 19.9137 7.51 20.9037 8.9C20.9811 9.00855 21.0121 9.14355 20.9895 9.27501C20.967 9.40646 20.8929 9.52346 20.7837 9.6C20.5537 9.76 20.2437 9.71 20.0837 9.48C19.2079 8.24038 18.0447 7.23156 16.6937 6.54C13.8237 5.07 10.1537 5.07 7.29365 6.55C5.93365 7.25 4.79365 8.25 3.89365 9.51C3.81365 9.65 3.66365 9.72 3.50365 9.72ZM9.75365 21.79C9.62105 21.7916 9.49393 21.7371 9.40365 21.64C8.53365 20.77 8.06365 20.21 7.39365 19C6.70365 17.77 6.34365 16.27 6.34365 14.66C6.34365 11.69 8.88365 9.27 12.0037 9.27C15.1237 9.27 17.6637 11.69 17.6637 14.66C17.6637 14.94 17.4437 15.16 17.1637 15.16C16.8837 15.16 16.6637 14.94 16.6637 14.66C16.6637 12.24 14.5737 10.27 12.0037 10.27C9.43365 10.27 7.34365 12.24 7.34365 14.66C7.34365 16.1 7.66365 17.43 8.27365 18.51C8.91365 19.66 9.35365 20.15 10.1237 20.93C10.3137 21.13 10.3137 21.44 10.1237 21.64C10.0137 21.74 9.88365 21.79 9.75365 21.79ZM16.9237 19.94C15.7337 19.94 14.6837 19.64 13.8237 19.05C12.3337 18.04 11.4437 16.4 11.4437 14.66C11.4437 14.38 11.6637 14.16 11.9437 14.16C12.2237 14.16 12.4437 14.38 12.4437 14.66C12.4437 16.07 13.1637 17.4 14.3837 18.22C15.0937 18.7 15.9237 18.93 16.9237 18.93C17.1637 18.93 17.5637 18.9 17.9637 18.83C18.2337 18.78 18.4937 18.96 18.5437 19.24C18.5937 19.51 18.4137 19.77 18.1337 19.82C17.5637 19.93 17.0637 19.94 16.9237 19.94ZM14.9137 22C14.8737 22 14.8237 21.99 14.7837 21.98C13.1937 21.54 12.1537 20.95 11.0637 19.88C9.66832 18.5022 8.88623 16.6209 8.89365 14.66C8.89365 13.04 10.2737 11.72 11.9737 11.72C13.6737 11.72 15.0537 13.04 15.0537 14.66C15.0537 15.73 15.9837 16.6 17.1337 16.6C18.2837 16.6 19.2137 15.73 19.2137 14.66C19.2137 10.89 15.9637 7.83 11.9637 7.83C9.12365 7.83 6.52365 9.41 5.35365 11.86C4.96365 12.67 4.76365 13.62 4.76365 14.66C4.76365 15.44 4.83365 16.67 5.43365 18.27C5.53365 18.53 5.40365 18.82 5.14365 18.91C4.88365 19.01 4.59365 18.87 4.50365 18.62C4.02179 17.3553 3.77442 16.0134 3.77365 14.66C3.77365 13.46 4.00365 12.37 4.45365 11.42C5.78365 8.63 8.73365 6.82 11.9637 6.82C16.5137 6.82 20.2137 10.33 20.2137 14.65C20.2137 16.27 18.8337 17.59 17.1337 17.59C15.4337 17.59 14.0537 16.27 14.0537 14.65C14.0537 13.58 13.1237 12.71 11.9737 12.71C10.8237 12.71 9.89365 13.58 9.89365 14.65C9.89365 16.36 10.5537 17.96 11.7637 19.16C12.7137 20.1 13.6237 20.62 15.0337 21.01C15.3037 21.08 15.4537 21.36 15.3837 21.62C15.3337 21.85 15.1237 22 14.9137 22Z" fill="oklch(0.3523 0 0 / 1)" class="wd-icon-fill"></path>
</svg>