<svg width="24" height="24" viewBox="0 0 24 24" xmlns="http://www.w3.org/2000/svg" class="wd-icon wd-icon-align-bottom" role="presentation">
<g>
<path d="M19 19C19.5523 19 20 19.4477 20 20C20 20.5523 19.5523 21 19 21H5C4.44772 21 4 20.5523 4 20C4 19.4477 4.44772 19 5 19H19Z" fill="oklch(0.3523 0 0 / 1)" class="wd-icon-fill"></path>
<path d="M12 2C12.5521 2.00011 12.9999 2.4479 13 3V12H14.5391C14.9433 12.0002 15.1808 12.4558 14.9492 12.7871L12.4092 16.415C12.2101 16.6994 11.7889 16.6994 11.5898 16.415L9.05078 12.7871C8.81892 12.4558 9.05557 12.0001 9.45996 12H11V3C11.0001 2.4479 11.4479 2.00011 12 2Z" fill="oklch(0.3523 0 0 / 1)" class="wd-icon-fill"></path>
</g>
</svg>