<svg width="24" height="24" viewBox="0 0 24 24" xmlns="http://www.w3.org/2000/svg" class="wd-icon wd-icon-row-clipboard" role="presentation">
<g>
<path d="M17.5 11C18.1529 11 18.707 11.4177 18.9131 12H20.75C21.4404 12 22 12.5596 22 13.25V20.75C22 21.4404 21.4404 22 20.75 22H14.25C13.5596 22 13 21.4404 13 20.75V13.25C13 12.5596 13.5596 12 14.25 12H16.0869C16.293 11.4177 16.8471 11 17.5 11ZM14.5 20.5H20.5V13.5H19V14.5C19 14.7761 18.7761 15 18.5 15H16.5C16.2239 15 16 14.7761 16 14.5V13.5H14.5V20.5Z" fill="oklch(0.3523 0 0 / 1)" class="wd-icon-fill"></path>
<path d="M10.5 3C11.1852 3 11.7497 2.99985 12.21 3.03125C12.679 3.06328 13.1127 3.13178 13.5303 3.30469C14.5104 3.71066 15.2893 4.48962 15.6953 5.46973C15.8682 5.88731 15.9367 6.32105 15.9688 6.79004C16.0002 7.25034 16 7.81477 16 8.5C16 9.05229 15.5523 9.5 15 9.5H5V12.5H10.25C10.6642 12.5 11 12.8358 11 13.25C11 13.6642 10.6642 14 10.25 14H5.00391C5.00691 14.4455 5.01313 14.7953 5.03711 15.0889C5.07293 15.5273 5.13809 15.7518 5.21778 15.9082C5.40951 16.2845 5.71555 16.5905 6.0918 16.7822C6.2482 16.8619 6.47272 16.9271 6.91113 16.9629C7.36117 16.9997 7.94342 17 8.79981 17H10C10.5523 17 11 17.4477 11 18C11 18.5523 10.5523 19 10 19H8.79981C7.97632 19 7.29843 19.001 6.74805 18.9561C6.18599 18.9101 5.6689 18.8117 5.1836 18.5645C4.43109 18.181 3.81902 17.5689 3.43555 16.8164C3.18828 16.3311 3.08988 15.814 3.04395 15.252C2.99898 14.7016 3 14.0237 3 13.2002V8.79981C3 7.97632 2.99898 7.29843 3.04395 6.74805C3.08988 6.18599 3.18827 5.6689 3.43555 5.1836C3.81902 4.43109 4.43109 3.81902 5.1836 3.43555C5.6689 3.18827 6.18599 3.08988 6.74805 3.04395C7.29843 2.99898 7.97632 3 8.79981 3H10.5ZM8.79981 5C7.94342 5 7.36117 5.00035 6.91113 5.03711C6.47272 5.07293 6.2482 5.13809 6.0918 5.21778C5.71555 5.40951 5.40951 5.71555 5.21778 6.0918C5.13809 6.2482 5.07293 6.47272 5.03711 6.91113C5.01313 7.2047 5.00691 7.55453 5.00391 8H13.998C13.9966 7.5488 13.9928 7.20772 13.9736 6.92676C13.9486 6.55931 13.903 6.36788 13.8477 6.23438C13.6447 5.74453 13.2555 5.35533 12.7656 5.15235C12.6321 5.09705 12.4407 5.05144 12.0732 5.02637C11.6968 5.0007 11.2125 5 10.5 5H8.79981Z" fill="oklch(0.3523 0 0 / 1)" class="wd-icon-fill"></path>
</g>
</svg>