<svg width="24" height="24" viewBox="0 0 24 24" xmlns="http://www.w3.org/2000/svg" class="wd-icon wd-icon-microphone" role="presentation">
<path d="M12 2C14.2091 2 16 3.79086 16 6V11C16 13.2091 14.2091 15 12 15C9.79086 15 8 13.2091 8 11V6C8 3.79086 9.79086 2 12 2Z" fill="transparent" class="wd-icon-background"></path>
<g>
<path d="M5.5 10C5.77599 10.0001 5.99991 10.224 6 10.5V11C6 14.3137 8.68629 17 12 17C15.3136 16.9999 18 14.3136 18 11V10.5C18.0001 10.2239 18.2239 10 18.5 10H19.5C19.776 10.0001 19.9999 10.224 20 10.5V11C20 15.0794 16.946 18.4432 13 18.9355V21H14.5C14.776 21.0001 14.9999 21.224 15 21.5V22.5C15 22.7761 14.776 22.9999 14.5 23H9.5C9.22386 23 9 22.7761 9 22.5V21.5C9.00009 21.2239 9.22391 21 9.5 21H11V18.9355C7.05375 18.4434 4 15.0796 4 11V10.5C4.00009 10.2239 4.22391 10 4.5 10H5.5Z" fill="oklch(0.3523 0 0 / 1)" class="wd-icon-fill"></path>
<path d="M12 1C14.7614 1 17 3.23858 17 6V11C17 13.7614 14.7614 16 12 16C9.23861 16 7 13.7614 7 11V6C7 3.2386 9.23861 1.00004 12 1ZM12 3C10.3432 3.00004 9 4.34317 9 6V11C9 12.6568 10.3432 14 12 14C13.6569 14 15 12.6569 15 11V6C15 4.34315 13.6569 3 12 3Z" fill="oklch(0.3523 0 0 / 1)" class="wd-icon-fill"></path>
</g>
</svg>