<svg width="24" height="24" viewBox="0 0 24 24" xmlns="http://www.w3.org/2000/svg" class="wd-icon wd-icon-area-layer-chart" role="presentation">
<path d="M6.75684 11.8291L5 13.5859V6.41406L6.82617 8.24121C7.39184 8.80682 8.24065 8.98058 8.9834 8.68359L12.8027 7.15625L15.6807 9.6748L13.8457 12.4287C13.7167 12.6222 13.641 12.7264 13.5867 12.7965C13.5008 12.7745 13.3778 12.7385 13.1572 12.665L9.25391 11.3643C9.22942 11.3561 9.20423 11.3476 9.17839 11.3388C8.95329 11.2627 8.67898 11.17 8.38867 11.1484L8.24902 11.1445C7.95281 11.1477 7.66088 11.216 7.39453 11.3457C7.14149 11.469 6.93144 11.6574 6.75684 11.8291Z" fill="transparent" class="wd-icon-background"></path>
<path d="M3 5.20688C3.00006 3.91247 4.51586 3.24417 5.46973 4.06235L5.56055 4.14634L8.24121 6.82603L12.0596 5.29868C12.7575 5.0195 13.5533 5.15544 14.1191 5.65024L16.7998 7.99595L19.168 4.44517C19.4124 4.07851 19.8683 3.91512 20.29 4.04282C20.7116 4.17061 21 4.55929 21 4.99985V16.7997C21 17.3431 21.0011 17.8115 20.9697 18.1952C20.9374 18.5904 20.8656 18.9839 20.6729 19.3622C20.3853 19.9263 19.9265 20.3852 19.3623 20.6727C18.984 20.8654 18.5905 20.9373 18.1953 20.9696C17.8116 21.0009 17.3434 20.9999 16.7998 20.9999H7.2002C6.65665 20.9999 6.18836 21.0009 5.80469 20.9696C5.40945 20.9373 5.01597 20.8654 4.6377 20.6727C4.07351 20.3852 3.61473 19.9263 3.32715 19.3622C3.13442 18.9839 3.06259 18.5904 3.03027 18.1952C3.00285 17.8595 3.0012 17.4588 3.00098 16.9999L3 5.20688ZM15.5098 13.5379C15.3174 13.8265 15.0759 14.2217 14.707 14.4696C14.4166 14.6646 14.0795 14.7802 13.7305 14.8045C13.2869 14.8354 12.8535 14.672 12.5244 14.5624L8.62207 13.2616C8.44035 13.201 8.34638 13.1695 8.27734 13.1512C8.27528 13.1507 8.27148 13.1493 8.27148 13.1493C8.26992 13.1506 8.26832 13.1526 8.2666 13.1542C8.21308 13.2014 8.14306 13.2709 8.00781 13.4061L5 16.4139V16.7997C5 17.3761 5.00127 17.7488 5.02441 18.0321C5.04661 18.3036 5.08419 18.4045 5.10938 18.454C5.20522 18.6419 5.35797 18.7947 5.5459 18.8905C5.59536 18.9157 5.69629 18.9533 5.96777 18.9754C6.25111 18.9986 6.62365 18.9999 7.2002 18.9999H16.7998C17.3763 18.9999 17.7489 18.9986 18.0322 18.9754C18.3037 18.9533 18.4046 18.9157 18.4541 18.8905C18.642 18.7947 18.7948 18.6419 18.8906 18.454C18.9158 18.4045 18.9534 18.3036 18.9756 18.0321C18.9987 17.7488 19 17.3761 19 16.7997V8.30259L15.5098 13.5379ZM5 13.5858L6.75684 11.829C6.93144 11.6573 7.14149 11.4688 7.39453 11.3456C7.66088 11.2159 7.95281 11.1475 8.24902 11.1444L8.38867 11.1483C8.7123 11.1723 9.01606 11.2848 9.25391 11.3641L13.1572 12.6649C13.3778 12.7384 13.4942 12.7767 13.5801 12.7987C13.5826 12.7993 13.5855 12.7991 13.5879 12.7997C13.5895 12.7977 13.592 12.796 13.5938 12.7938C13.6481 12.7237 13.7167 12.6221 13.8457 12.4286L15.6807 9.67466L12.8027 7.1561L8.9834 8.68345C8.24065 8.98044 7.39184 8.80667 6.82617 8.24106L5 6.41392V13.5858Z" fill="oklch(0.3523 0 0 / 1)" class="wd-icon-fill"></path>
</svg>