<svg width="24" height="24" viewBox="0 0 24 24" xmlns="http://www.w3.org/2000/svg" class="wd-icon wd-icon-area-stack-chart" role="presentation">
<path d="M3.14644 10.8535L7.72395 6.27587C7.88619 6.11363 8.13802 6.08263 8.33476 6.20067L12.6328 8.77949C12.8442 8.9063 13.1164 8.86018 13.2742 8.67083L17.7124 3.34497C17.876 3.14867 18.1612 3.1073 18.3738 3.24904L20.7773 4.85138C20.9164 4.94411 21 5.10023 21 5.26741V11.9998L13 15.9998L8 12.9998L3 15.9999V11.207C3 11.0744 3.05268 10.9472 3.14644 10.8535Z" fill="transparent" class="wd-icon-background"></path>
<path d="M17.04 2.59965C17.5074 2.13557 18.2267 2.03153 18.8066 2.34379L18.9287 2.41703L21.332 4.01957C21.7493 4.29776 22 4.76612 22 5.26762V20.5C22 21.3285 21.3284 22 20.5 22H3.5C2.67157 22 2 21.3285 2 20.5V11.2071C2.00007 10.8093 2.15821 10.4278 2.43945 10.1465L7.0166 5.56938L7.11133 5.48246C7.565 5.09998 8.2034 5.02135 8.73633 5.28227L8.84961 5.34379L12.7803 7.70121L16.9443 2.70512L17.04 2.59965ZM13.4473 16.8946C13.1415 17.0475 12.7785 17.0334 12.4854 16.8575L8 14.1661L4 16.5655V20H20V13.6182L13.4473 16.8946ZM14.042 9.31156C13.5686 9.87927 12.7521 10.0171 12.1182 9.63676L8.1543 7.25883L4 11.4141V14.2334L7.48535 12.1426L7.60742 12.0801C7.89965 11.9554 8.23751 11.9763 8.51465 12.1426L13.043 14.8594L20 11.3809V5.53422L18.1924 4.33012L14.042 9.31156Z" fill="oklch(0.3523 0 0 / 1)" class="wd-icon-fill"></path>
</svg>