<svg width="24" height="24" viewBox="0 0 24 24" xmlns="http://www.w3.org/2000/svg" class="wd-icon wd-icon-add-below" role="presentation">
<g>
<path d="M19.5 17C19.7761 17 20 17.2239 20 17.5V18.5C20 18.7761 19.7761 19 19.5 19H4.5C4.22386 19 4 18.7761 4 18.5V17.5C4 17.2239 4.22386 17 4.5 17H19.5Z" fill="oklch(0.3523 0 0 / 1)" class="wd-icon-fill"></path>
<path d="M12.4941 4C12.7702 4.00009 12.9941 4.22391 12.9941 4.5V7.99316H16.5C16.7761 7.99316 17 8.21702 17 8.49316V9.49316C17 9.76931 16.7761 9.99316 16.5 9.99316H12.9941V13.5C12.9941 13.7761 12.7702 13.9999 12.4941 14H11.4941C11.218 14 10.9941 13.7761 10.9941 13.5V9.99316H7.5C7.22386 9.99316 7 9.76931 7 9.49316V8.49316C7 8.21702 7.22386 7.99316 7.5 7.99316H10.9941V4.5C10.9941 4.22386 11.218 4 11.4941 4H12.4941Z" fill="oklch(0.3523 0 0 / 1)" class="wd-icon-fill"></path>
</g>
</svg>