<svg width="24" height="24" viewBox="0 0 24 24" xmlns="http://www.w3.org/2000/svg" class="wd-icon wd-icon-heart" role="presentation">
<path d="M11.9978 5.89823C13.3724 4.37387 15.5211 3.63899 17.6521 4.17167C20.7254 4.94026 22.5933 8.05446 21.825 11.1277C21.2268 13.5196 19.6773 15.439 17.9461 17.034C16.2276 18.6171 14.1947 19.9951 12.5974 21.1932C12.2421 21.4593 11.7535 21.4594 11.3982 21.1932C9.80097 19.9951 7.76806 18.6171 6.04959 17.034C4.31838 15.439 2.76883 13.5196 2.17069 11.1277C1.40239 8.05454 3.27042 4.94036 6.34354 4.17167C8.47459 3.63891 10.6232 4.37385 11.9978 5.89823ZM17.1668 6.11112C15.4208 5.67483 13.6522 6.54575 12.8982 8.10526C12.7313 8.45054 12.3814 8.67069 11.9978 8.67069C11.6143 8.67061 11.2644 8.45057 11.0974 8.10526C10.3435 6.5457 8.57491 5.67472 6.82889 6.11112C4.82737 6.61174 3.60983 8.64063 4.11014 10.6424C4.57144 12.4872 5.79854 14.0832 7.40506 15.5633C8.8369 16.8824 10.4612 18.0201 11.9978 19.1502C13.5345 18.0201 15.1588 16.8823 16.5906 15.5633C18.1971 14.0833 19.4242 12.4872 19.8855 10.6424C20.3859 8.64055 19.1684 6.61164 17.1668 6.11112Z" fill="oklch(0.3523 0 0 / 1)" class="wd-icon-fill"></path>
</svg>