<svg width="24" height="24" viewBox="0 0 24 24" xmlns="http://www.w3.org/2000/svg" class="wd-icon wd-icon-comment-plus-fill" role="presentation">
<path d="M12 2C17.4089 2 22 5.92196 22 11C22 16.078 17.4089 20 12 20C11.7859 20 11.5733 19.9914 11.3623 19.9795C9.62998 21.252 7.47856 21.6607 6.06055 21.7461C5.7286 21.7659 5.40806 21.6187 5.20605 21.3545C5.00424 21.0902 4.94741 20.7428 5.05371 20.4277C5.28973 19.7281 5.42269 18.7012 5.45996 17.8096C3.36367 16.1774 2 13.7479 2 11C2 5.92196 6.59113 2 12 2ZM12 7.25C11.5858 7.25 11.25 7.58579 11.25 8V10.25H9C8.58579 10.25 8.25 10.5858 8.25 11C8.25 11.4142 8.58579 11.75 9 11.75H11.25V14C11.25 14.4142 11.5858 14.75 12 14.75C12.4142 14.75 12.75 14.4142 12.75 14V11.75H15C15.4142 11.75 15.75 11.4142 15.75 11C15.75 10.5858 15.4142 10.25 15 10.25H12.75V8C12.75 7.58579 12.4142 7.25 12 7.25Z" fill="oklch(0.3523 0 0 / 1)" class="wd-icon-fill"></path>
</svg>