<svg width="24" height="24" viewBox="0 0 24 24" xmlns="http://www.w3.org/2000/svg" class="wd-icon wd-icon-insert-row-before" role="presentation">
<g>
<path d="M13 16.7998C13 17.3764 12.9987 17.7489 12.9756 18.0322C12.9534 18.3038 12.9158 18.4047 12.8906 18.4541C12.7948 18.6421 12.6421 18.7948 12.4541 18.8906C12.4047 18.9158 12.3038 18.9534 12.0322 18.9756C11.7489 18.9987 11.3764 19 10.7998 19H7.2002C6.62364 19 6.25111 18.9987 5.96777 18.9756C5.69619 18.9534 5.59534 18.9158 5.5459 18.8906C5.35793 18.7948 5.20521 18.6421 5.10938 18.4541C5.08419 18.4047 5.04661 18.3038 5.02441 18.0322C5.00126 17.7489 5 17.3764 5 16.7998V16.75H13V16.7998Z" fill="transparent" class="wd-icon-background"></path>
<path d="M10.7998 13C11.3764 13 11.7489 13.0013 12.0322 13.0244C12.3038 13.0466 12.4047 13.0842 12.4541 13.1094C12.6421 13.2052 12.7948 13.3579 12.8906 13.5459C12.9158 13.5953 12.9534 13.6962 12.9756 13.9678C12.9987 14.2511 13 14.6236 13 15.2002V15.25H5V15.2002C5 14.6236 5.00126 14.2511 5.02441 13.9678C5.04661 13.6962 5.08419 13.5953 5.10938 13.5459C5.20522 13.3579 5.35793 13.2052 5.5459 13.1094C5.59534 13.0842 5.69619 13.0466 5.96777 13.0244C6.25111 13.0013 6.62364 13 7.2002 13H10.7998Z" fill="transparent" class="wd-icon-background"></path>
<path d="M19.501 5.00488C19.5994 5.00937 19.6299 5.0166 19.6299 5.0166C19.8022 5.06289 19.9371 5.19784 19.9834 5.37012C19.9834 5.37012 19.9906 5.40055 19.9951 5.49902C20.0002 5.611 20 5.75876 20 6C20 6.24124 20.0002 6.389 19.9951 6.50098C19.9906 6.59936 19.9834 6.62988 19.9834 6.62988C19.9371 6.80216 19.8022 6.93711 19.6299 6.9834C19.6299 6.9834 19.5994 6.99063 19.501 6.99512C19.389 7.00021 19.2412 7 19 7H13C12.7588 7 12.611 7.00021 12.499 6.99512C12.4006 6.99063 12.3701 6.9834 12.3701 6.9834C12.1978 6.93711 12.0629 6.80216 12.0166 6.62988C12.0166 6.62988 12.0094 6.59936 12.0049 6.50098C11.9998 6.389 12 6.24124 12 6C12 5.75876 11.9998 5.611 12.0049 5.49902C12.0094 5.40056 12.0166 5.37012 12.0166 5.37012C12.0629 5.19784 12.1978 5.06289 12.3701 5.0166C12.3701 5.0166 12.4006 5.00937 12.499 5.00488C12.611 4.99979 12.7588 5 13 5H19C19.2412 5 19.389 4.99979 19.501 5.00488Z" fill="transparent" class="wd-icon-background"></path>
</g>
<g>
<path d="M10.7998 11.0002C11.3434 11.0002 11.8116 10.9991 12.1953 11.0305C12.5906 11.0628 12.984 11.1346 13.3623 11.3274C13.9265 11.6149 14.3853 12.0737 14.6729 12.6379C14.8656 13.0162 14.9374 13.4097 14.9697 13.8049C15.0011 14.1885 15 14.657 15 15.2004V16.8C15 17.3435 15.0011 17.8119 14.9697 18.1955C14.9374 18.5907 14.8656 18.9843 14.6729 19.3625C14.3853 19.9267 13.9265 20.3855 13.3623 20.6731C12.984 20.8658 12.5905 20.9376 12.1953 20.9699C11.8117 21.0013 11.3433 21.0002 10.7998 21.0002H7.2002C6.65666 21.0002 6.18836 21.0013 5.80469 20.9699C5.40946 20.9376 5.01598 20.8658 4.6377 20.6731C4.07352 20.3855 3.61473 19.9267 3.32715 19.3625C3.13443 18.9843 3.0626 18.5907 3.03028 18.1955C2.99893 17.8119 3 17.3435 3 16.8V15.2004C3 14.657 2.99895 14.1885 3.03028 13.8049C3.06258 13.4097 3.13446 13.0162 3.32715 12.6379C3.61471 12.0737 4.07352 11.6149 4.6377 11.3274C5.01598 11.1346 5.40945 11.0628 5.80469 11.0305C6.18836 10.9991 6.65666 11.0002 7.2002 11.0002H10.7998ZM5 16.7502V16.8C5 17.3765 5.00127 17.7491 5.02442 18.0324C5.04662 18.3039 5.0842 18.4049 5.10938 18.4543C5.20522 18.6422 5.35798 18.795 5.5459 18.8908C5.59536 18.916 5.6963 18.9536 5.96778 18.9758C6.25111 18.999 6.62366 19.0002 7.2002 19.0002H10.7998C11.3763 19.0002 11.7489 18.999 12.0322 18.9758C12.3036 18.9536 12.4046 18.916 12.4541 18.8908C12.642 18.795 12.7948 18.6422 12.8906 18.4543C12.9158 18.4049 12.9534 18.3039 12.9756 18.0324C12.9987 17.7491 13 17.3765 13 16.8V16.7502H5ZM7.2002 13.0002C6.62366 13.0002 6.25111 13.0015 5.96778 13.0246C5.69622 13.0468 5.59534 13.0844 5.5459 13.1096C5.35798 13.2054 5.2052 13.3582 5.10938 13.5461C5.08419 13.5956 5.04659 13.6967 5.02442 13.968C5.00128 14.2513 5 14.624 5 15.2004V15.2502H13V15.2004C13 14.624 12.9987 14.2513 12.9756 13.968C12.9534 13.6967 12.9158 13.5956 12.8906 13.5461C12.7948 13.3582 12.642 13.2054 12.4541 13.1096C12.4047 13.0844 12.3038 13.0468 12.0322 13.0246C11.7489 13.0015 11.3764 13.0002 10.7998 13.0002H7.2002Z" fill="oklch(0.3523 0 0 / 1)" class="wd-icon-fill"></path>
<path d="M19 3.00022C19.4006 3.00022 19.7975 2.99141 20.1475 3.08518C21.0099 3.31641 21.6838 3.99031 21.915 4.85276C22.0088 5.20269 22 5.59968 22 6.00022C22 6.40076 22.0088 6.79777 21.915 7.14768C21.6838 8.01006 21.0099 8.68405 20.1475 8.91526C19.7975 9.00901 19.4006 9.00022 19 9.00022H13C12.5994 9.00022 12.2025 9.00903 11.8525 8.91526C10.9901 8.68405 10.3162 8.01006 10.085 7.14768C9.99121 6.79777 10 6.40076 10 6.00022C10 5.59969 9.99124 5.20269 10.085 4.85276C10.3162 3.99032 10.9901 3.31642 11.8525 3.08518C12.2025 2.99141 12.5994 3.00022 13 3.00022H19ZM12.499 5.0051C12.4006 5.00959 12.3701 5.01682 12.3701 5.01682C12.1979 5.06313 12.0629 5.19809 12.0166 5.37034C12.0159 5.3731 12.0092 5.40403 12.0049 5.49924C11.9998 5.6112 12 5.75912 12 6.00022C12 6.24135 11.9998 6.38925 12.0049 6.5012C12.0094 6.59951 12.0166 6.6301 12.0166 6.6301C12.0629 6.8023 12.1979 6.93735 12.3701 6.98362C12.3701 6.98362 12.4013 6.99088 12.499 6.99534C12.611 7.00043 12.7588 7.00022 13 7.00022H19C19.2412 7.00022 19.389 7.00043 19.501 6.99534C19.5978 6.99092 19.6299 6.98362 19.6299 6.98362C19.8021 6.93735 19.9371 6.80229 19.9834 6.6301C19.9834 6.6301 19.9906 6.5995 19.9951 6.5012C20.0002 6.38925 20 6.24135 20 6.00022C20 5.75912 20.0002 5.6112 19.9951 5.49924C19.9908 5.40389 19.9841 5.37302 19.9834 5.37034C19.9371 5.19807 19.8022 5.06312 19.6299 5.01682C19.6299 5.01682 19.5994 5.00959 19.501 5.0051C19.389 5.00001 19.2412 5.00022 19 5.00022H13C12.7588 5.00022 12.611 5.00001 12.499 5.0051Z" fill="oklch(0.3523 0 0 / 1)" class="wd-icon-fill"></path>
</g>
<path d="M5 2.75C5.41421 2.75 5.75 3.08579 5.75 3.5V5.25H7.5C7.91421 5.25 8.25 5.58579 8.25 6C8.25 6.41421 7.91421 6.75 7.5 6.75H5.75V8.5C5.75 8.91421 5.41421 9.25 5 9.25C4.58579 9.25 4.25 8.91421 4.25 8.5V6.75H2.5C2.08579 6.75 1.75 6.41421 1.75 6C1.75 5.58579 2.08579 5.25 2.5 5.25H4.25V3.5C4.25 3.08579 4.58579 2.75 5 2.75Z" fill="oklch(0.3523 0 0 / 1)" class="wd-icon-accent"></path>
</svg>