<svg width="24" height="24" viewBox="0 0 24 24" xmlns="http://www.w3.org/2000/svg" class="wd-icon wd-icon-add-zero" role="presentation">
<g>
<path d="M16 14.9336C16.0004 14.5347 16.4452 14.2965 16.7773 14.5176L21.376 17.583C21.6726 17.7808 21.6724 18.217 21.376 18.415L16.7773 21.4814C16.4452 21.7026 16.0003 21.4644 16 21.0654V18.999H13.5088C13.5059 18.9991 13.5029 19 13.5 19H3.5C3.224 19 3.00023 18.7759 3 18.5V17.5C3.00023 17.2241 3.224 17 3.5 17H6.49121C6.49408 16.9999 6.49712 16.999 6.5 16.999H16V14.9336Z" fill="oklch(0.3523 0 0 / 1)" class="wd-icon-fill"></path>
<path d="M3.5 11C3.77614 11 4 11.2239 4 11.5V12.5C4 12.7761 3.77614 13 3.5 13H2.5C2.22386 13 2 12.7761 2 12.5V11.5C2 11.2239 2.22386 11 2.5 11H3.5Z" fill="oklch(0.3523 0 0 / 1)" class="wd-icon-fill"></path>
<path d="M8.5 3C10.9208 3 12.3076 4.80707 12.3076 8C12.3076 11.1929 10.9208 13 8.5 13C6.0928 13 4.70605 11.1929 4.70605 8C4.70605 4.80707 6.0928 3 8.5 3ZM8.5 4.53516C7.3984 4.53516 6.88184 5.62228 6.88184 8C6.88184 10.3641 7.3984 11.4648 8.5 11.4648C9.6016 11.4648 10.1318 10.3641 10.1318 8C10.1318 5.62228 9.6016 4.53516 8.5 4.53516Z" fill="oklch(0.3523 0 0 / 1)" class="wd-icon-fill"></path>
<path d="M17.5 3C19.9208 3 21.3076 4.80707 21.3076 8C21.3076 11.1929 19.9208 13 17.5 13C15.0928 13 13.7061 11.1929 13.7061 8C13.7061 4.80707 15.0928 3 17.5 3ZM17.5 4.53516C16.3984 4.53516 15.8818 5.62228 15.8818 8C15.8818 10.3641 16.3984 11.4648 17.5 11.4648C18.6016 11.4648 19.1318 10.3641 19.1318 8C19.1318 5.62228 18.6016 4.53516 17.5 4.53516Z" fill="oklch(0.3523 0 0 / 1)" class="wd-icon-fill"></path>
</g>
</svg>