<svg width="24" height="24" viewBox="0 0 24 24" xmlns="http://www.w3.org/2000/svg" class="wd-icon wd-icon-unpivot" role="presentation">
<g>
<path d="M6.99951 8C7.5518 8 7.99951 8.44772 7.99951 9V21C7.99951 21.5523 7.5518 22 6.99951 22H2.99951C2.44745 21.9997 1.99951 21.5521 1.99951 21V9C1.99951 8.44787 2.44745 8.00026 2.99951 8H6.99951ZM3.99951 20H5.99951V10H3.99951V20Z" fill="oklch(0.3523 0 0 / 1)" class="wd-icon-fill"></path>
<path d="M16.5835 9.62402C16.7814 9.32752 17.2175 9.32766 17.4155 9.62402L20.481 14.2227C20.7024 14.5549 20.4643 15 20.0649 15H17.9282C17.8889 15.2723 17.8338 15.5432 17.7622 15.8105C17.4443 16.9971 16.8192 18.0805 15.9507 18.9492C15.082 19.8179 13.9986 20.4427 12.812 20.7607C11.7869 21.0354 10.7143 21.0729 9.67627 20.873C9.40541 20.8207 9.24669 20.5448 9.31787 20.2783L9.57666 19.3125C9.64825 19.0462 9.92257 18.8903 10.1948 18.9346C10.8922 19.0483 11.6084 19.0129 12.2944 18.8291C13.1419 18.6019 13.9152 18.1546 14.5356 17.5342C15.1559 16.9137 15.6035 16.1404 15.8306 15.293C15.8565 15.196 15.8789 15.098 15.8989 15H13.9341C13.5349 14.9998 13.2968 14.5549 13.5181 14.2227L16.5835 9.62402Z" fill="oklch(0.3523 0 0 / 1)" class="wd-icon-fill"></path>
<path d="M20.9995 2C21.5518 2 21.9995 2.44772 21.9995 3V7C21.9995 7.55228 21.5518 8 20.9995 8H8.99951C8.44744 7.99974 7.99951 7.55213 7.99951 7V3C7.99951 2.44787 8.44744 2.00026 8.99951 2H20.9995ZM9.99951 6H19.9995V4H9.99951V6Z" fill="oklch(0.3523 0 0 / 1)" class="wd-icon-fill"></path>
</g>
</svg>