<svg width="24" height="24" viewBox="0 0 24 24" xmlns="http://www.w3.org/2000/svg" class="wd-icon wd-icon-location" role="presentation">
<path d="M12 2C15.866 2 19 5.13401 19 9C19 10.9698 18.5863 12.9204 17.7822 14.7402C16.9782 16.5601 15.7992 18.2136 14.3135 19.6064C13.6794 20.2009 12.994 20.7418 12.2662 21.2263C12.1043 21.3341 11.8937 21.3341 11.7318 21.2262C11.0077 20.7439 10.323 20.2031 9.68652 19.6064C6.68594 16.7934 5 12.9782 5 9C5 5.13401 8.13401 2 12 2Z" fill="transparent" class="wd-icon-background"></path>
<g>
<path d="M12 5C14.2091 5 16 6.79086 16 9C16 11.2091 14.2091 13 12 13C9.79086 13 8 11.2091 8 9C8 6.79086 9.79086 5 12 5ZM12 7C10.8954 7 10 7.89543 10 9C10 10.1046 10.8954 11 12 11C13.1046 11 14 10.1046 14 9C14 7.89543 13.1046 7 12 7Z" fill="oklch(0.3523 0 0 / 1)" class="wd-icon-fill"></path>
<path d="M12 1C16.4183 1 20 4.58172 20 9L19.9951 9.39551C19.9433 11.3709 19.5033 13.3203 18.6973 15.1445C17.8376 17.0903 16.5783 18.8535 14.9971 20.3359C14.3215 20.9692 13.5927 21.5444 12.8203 22.0586C12.3228 22.3897 11.6754 22.3899 11.1777 22.0586C10.4087 21.5464 9.68048 20.9711 9.00293 20.3359C5.90831 17.4347 4.11399 13.5189 4.00488 9.39941L4 9C4 4.58172 7.58172 1 12 1ZM12 3C8.68629 3 6 5.68629 6 9L6.00488 9.3457C6.09928 12.9126 7.65126 16.328 10.3701 18.877C10.8802 19.3551 11.4265 19.7925 11.999 20.1934C12.5746 19.7908 13.1216 19.3535 13.6299 18.877C15.02 17.5737 16.1188 16.0298 16.8672 14.3359C17.6156 12.6421 18 10.8292 18 9C18 5.68629 15.3137 3 12 3Z" fill="oklch(0.3523 0 0 / 1)" class="wd-icon-fill"></path>
</g>
</svg>