<svg width="24" height="24" viewBox="0 0 24 24" xmlns="http://www.w3.org/2000/svg" class="wd-icon wd-icon-area-layer-chart" role="presentation">
<path d="M8.3061 7.8775L12.7156 6.11371C12.8901 6.0439 13.0891 6.07788 13.2305 6.20167L17 9.5L14.2119 13.6822C14.0868 13.8698 13.8516 13.9505 13.6377 13.8792L8.29316 12.0977C8.11349 12.0378 7.91541 12.0845 7.78149 12.2185L3 17.0001V4.20706C3 3.7616 3.53857 3.53852 3.85355 3.8535L7.76685 7.76682C7.90828 7.90825 8.12039 7.95178 8.3061 7.8775Z" fill="transparent" class="wd-icon-background"></path>
<path d="M2 4.20688C2.00006 2.91247 3.51586 2.24417 4.46973 3.06235L4.56055 3.14634L8.24121 6.82603L12.3438 5.1854L12.5439 5.12095C12.9474 5.02192 13.375 5.09464 13.7227 5.32212L13.8887 5.44907L16.7998 7.99595L19.252 4.31919L19.332 4.20884C20.1933 3.12154 22 3.71343 22 5.15122V20.4999C21.9999 21.3282 21.3284 21.9999 20.5 21.9999H3.5C2.67162 21.9999 2.00008 21.3282 2 20.4999V4.20688ZM15.0439 14.2372C14.6687 14.7997 13.9629 15.0418 13.3213 14.828L8.26953 13.1434L4 17.4139V19.9999H20V6.80259L15.0439 14.2372ZM4 14.5858L7.07422 11.5116L7.2334 11.3729C7.56795 11.1212 7.99349 11.021 8.40527 11.0965L8.60938 11.1493L13.5918 12.8094L15.6807 9.67466L12.8027 7.15513L8.67773 8.80552C8.12065 9.02833 7.48385 8.89771 7.05957 8.47349L4 5.41392V14.5858Z" fill="oklch(0.3523 0 0 / 1)" class="wd-icon-fill"></path>
</svg>