<svg width="24" height="24" viewBox="0 0 24 24" xmlns="http://www.w3.org/2000/svg" class="wd-icon wd-icon-shrink" role="presentation">
<g>
<path d="M10.5003 12.9994C10.776 12.9996 10.9999 13.2236 11.0003 13.4994V19.4994C11.0003 19.7754 10.7763 19.9992 10.5003 19.9994H9.5003C9.22415 19.9994 9.0003 19.7755 9.0003 19.4994V16.4134L4.06084 21.3529C3.86558 21.5481 3.54907 21.5481 3.35381 21.3529L2.64678 20.6458C2.45181 20.4506 2.45164 20.134 2.64678 19.9388L7.58623 14.9994H4.5003C4.22415 14.9994 4.0003 14.7755 4.0003 14.4994V13.4994C4.00065 13.2235 4.22437 12.9994 4.5003 12.9994H10.5003Z" fill="oklch(0.3523 0 0 / 1)" class="wd-icon-fill"></path>
<path d="M19.9397 2.64682C20.135 2.45179 20.4516 2.45163 20.6468 2.64682L21.3538 3.35385C21.5486 3.54907 21.5487 3.86573 21.3538 4.06088L16.4144 9.00033H19.5003C19.7762 9.00057 20.0003 9.22434 20.0003 9.50033V10.5003C20.0001 10.7762 19.7761 11.0001 19.5003 11.0003H13.5003C13.2244 11.0002 13.0005 10.7762 13.0003 10.5003V4.50033C13.0003 4.22427 13.2243 4.00047 13.5003 4.00033H14.5003C14.7762 4.00057 15.0003 4.22434 15.0003 4.50033V7.58627L19.9397 2.64682Z" fill="oklch(0.3523 0 0 / 1)" class="wd-icon-fill"></path>
</g>
</svg>