<svg width="24" height="24" viewBox="0 0 24 24" xmlns="http://www.w3.org/2000/svg" class="wd-icon wd-icon-unsort" role="presentation">
<g>
<path d="M16.0004 12.9998C16.5524 13 17.0002 13.4478 17.0004 13.9998V17.5857L18.2934 16.2928C18.6839 15.9027 19.317 15.9025 19.7074 16.2928C20.0978 16.6832 20.0975 17.3163 19.7074 17.7068L16.7074 20.7068C16.3169 21.0972 15.6838 21.0973 15.2934 20.7068L12.2934 17.7068C11.9029 17.3164 11.903 16.6833 12.2934 16.2928C12.6839 15.9026 13.317 15.9024 13.7074 16.2928L15.0004 17.5857V13.9998C15.0006 13.4478 15.4483 12.9999 16.0004 12.9998Z" fill="oklch(0.3523 0 0 / 1)" class="wd-icon-fill"></path>
<path d="M17.2934 5.29375C17.6839 4.90323 18.3169 4.90323 18.7074 5.29375C19.0976 5.6843 19.0978 6.3174 18.7074 6.70782L6.70742 18.7078C6.317 19.0982 5.68389 19.098 5.29336 18.7078C4.90285 18.3173 4.90287 17.6843 5.29336 17.2938L17.2934 5.29375Z" fill="oklch(0.3523 0 0 / 1)" class="wd-icon-fill"></path>
<path d="M7.29336 3.29278C7.6839 2.90248 8.31697 2.90233 8.70742 3.29278L11.7074 6.29278C12.0977 6.68324 12.0977 7.31636 11.7074 7.70684C11.317 8.09731 10.6839 8.09719 10.2934 7.70684L9.00039 6.41387V9.99981C9.00032 10.5519 8.55243 10.9996 8.00039 10.9998C7.44814 10.9998 7.00045 10.552 7.00039 9.99981V6.41387L5.70742 7.70684C5.31697 8.09724 4.68388 8.09712 4.29336 7.70684C3.90285 7.31633 3.90288 6.68331 4.29336 6.29278L7.29336 3.29278Z" fill="oklch(0.3523 0 0 / 1)" class="wd-icon-fill"></path>
</g>
</svg>