<svg width="24" height="24" viewBox="0 0 24 24" xmlns="http://www.w3.org/2000/svg" class="wd-icon wd-icon-link-strikethrough" role="presentation">
<g>
<path d="M5.03078 10.1732C5.24391 9.99788 5.55668 10.055 5.71437 10.2816L6.28566 11.1019C6.44348 11.3285 6.38567 11.6392 6.17921 11.8226C6.1151 11.8796 6.05227 11.9388 5.99074 12.0004L4.22316 13.7679C2.56343 15.4277 2.56343 18.1189 4.22316 19.7787C5.88283 21.4376 8.5734 21.4379 10.2329 19.7787L12.0015 18.0111C12.0631 17.9495 12.1222 17.8859 12.1792 17.8216C12.3625 17.615 12.6724 17.5571 12.8989 17.7152L13.3091 18.0013L13.7193 18.2855C13.9461 18.4432 14.0031 18.7567 13.8277 18.9701C13.6987 19.1268 13.5615 19.2792 13.4155 19.4252L11.648 21.1927C9.20741 23.6333 5.24993 23.6328 2.8091 21.1927C0.368325 18.752 0.368319 14.7946 2.8091 12.3539L4.57667 10.5863C4.72268 10.4403 4.87426 10.3022 5.03078 10.1732Z" fill="oklch(0.3523 0 0 / 1)" class="wd-icon-fill"></path>
<path d="M2.83449 2.14684C3.02975 1.95167 3.34628 1.95162 3.54152 2.14684L21.8355 20.4398C22.0304 20.6351 22.0297 20.9517 21.8345 21.1468L21.1275 21.8539C20.9322 22.049 20.6156 22.0489 20.4204 21.8539L2.12745 3.5609C1.93219 3.36564 1.93219 3.04913 2.12745 2.85387L2.83449 2.14684Z" fill="oklch(0.3523 0 0 / 1)" class="wd-icon-fill"></path>
<path d="M8.43995 14.1468C8.63523 13.9517 8.95178 13.9516 9.14699 14.1468L9.85402 14.8539C10.0489 15.0491 10.049 15.3657 9.85402 15.5609L8.11183 17.3031C7.91668 17.4982 7.60009 17.498 7.4048 17.3031L6.69777 16.5961C6.50251 16.4008 6.50251 16.0843 6.69777 15.889L8.43995 14.1468Z" fill="oklch(0.3523 0 0 / 1)" class="wd-icon-fill"></path>
<path d="M12.354 2.80797C14.7947 0.367296 18.7521 0.367494 21.1929 2.80797C23.6332 5.24878 23.6335 9.20621 21.1929 11.6468L19.4253 13.4144C19.2794 13.5603 19.1276 13.6976 18.9712 13.8265C18.758 14.0022 18.4444 13.9449 18.2866 13.7181L18.0015 13.308L17.7153 12.8978C17.5576 12.6713 17.6157 12.3615 17.8218 12.1781C17.8859 12.1211 17.9497 12.0619 18.0112 12.0004L19.7788 10.2328C21.4384 8.5732 21.4381 5.8818 19.7788 4.22203C18.1192 2.56271 15.4287 2.56272 13.7691 4.22203L12.0005 5.98961C11.9389 6.05123 11.8788 6.1138 11.8218 6.17809C11.6385 6.38474 11.3286 6.44259 11.1021 6.28453L10.6929 5.99938L10.2827 5.71422C10.0557 5.55659 9.99779 5.24309 10.1734 5.02965C10.3023 4.87289 10.4404 4.72156 10.5864 4.57555L12.354 2.80797Z" fill="oklch(0.3523 0 0 / 1)" class="wd-icon-fill"></path>
<path d="M15.8892 6.69762C16.0844 6.50252 16.401 6.50241 16.5962 6.69762L17.3032 7.40465C17.4981 7.59988 17.4982 7.91652 17.3032 8.11168L15.561 9.85387C15.3659 10.049 15.0493 10.0488 14.854 9.85387L14.147 9.14684C13.9517 8.95158 13.9517 8.63507 14.147 8.43981L15.8892 6.69762Z" fill="oklch(0.3523 0 0 / 1)" class="wd-icon-fill"></path>
</g>
<path d="M2.873 2.14687C3.06828 1.95173 3.38482 1.95166 3.58003 2.14687L21.873 20.4398C22.068 20.6351 22.0681 20.9517 21.873 21.1469L21.166 21.8539C20.9708 22.0491 20.6542 22.0489 20.4589 21.8539L2.16499 3.56094C1.96972 3.36568 1.96976 3.04916 2.16499 2.85391L2.873 2.14687Z" fill="oklch(0.3523 0 0 / 1)" class="wd-icon-accent"></path>
</svg>