<svg width="24" height="24" viewBox="0 0 24 24" xmlns="http://www.w3.org/2000/svg" class="wd-icon wd-icon-calendar-day-6" role="presentation">
<g>
<path d="M11.9658 10.3994C12.375 10.3995 12.7433 10.4804 13.0615 10.6523C13.3729 10.8148 13.6258 11.0388 13.8125 11.3223C13.9933 11.597 14.1113 11.8973 14.165 12.2197L14.2139 12.5107H12.7764L12.7373 12.3086C12.6984 12.1092 12.6134 11.9518 12.4854 11.8281L12.4814 11.8252C12.3787 11.7225 12.2217 11.6553 11.9746 11.6553C11.658 11.6553 11.3927 11.8052 11.1709 12.166L11.1699 12.165C11.0315 12.3926 10.9267 12.7039 10.8623 13.1055C10.9043 13.0731 10.9479 13.0418 10.9932 13.0127C11.2922 12.8205 11.6442 12.7305 12.0371 12.7305C12.47 12.7305 12.8631 12.8376 13.207 13.0576C13.5452 13.2741 13.8037 13.5671 13.9795 13.9307C14.1599 14.2918 14.249 14.6878 14.249 15.1133C14.249 15.5344 14.1558 15.9319 13.9707 16.3027L13.9717 16.3037C13.7884 16.6769 13.5127 16.9785 13.1514 17.2061L13.1484 17.208C12.7786 17.4339 12.3446 17.541 11.8574 17.541C11.3512 17.541 10.898 17.412 10.5098 17.1465L10.5088 17.1455C10.1268 16.8795 9.84055 16.4984 9.64551 16.0176C9.45089 15.531 9.35747 14.9594 9.35742 14.3125C9.35742 13.5853 9.44359 12.9298 9.62012 12.3496L9.6211 12.3477C9.80535 11.7631 10.0872 11.2887 10.4756 10.9404L10.6318 10.8125C11.0073 10.5349 11.4563 10.3994 11.9658 10.3994ZM11.8574 13.9688C11.6541 13.9688 11.4818 14.0174 11.333 14.1104C11.1835 14.2038 11.0633 14.3346 10.9746 14.5107C10.8917 14.6816 10.8477 14.8843 10.8477 15.1221C10.8477 15.346 10.8916 15.5467 10.9766 15.7266C11.0653 15.9019 11.1852 16.0363 11.3359 16.1357C11.485 16.2282 11.6539 16.2764 11.8486 16.2764C12.0592 16.2763 12.2251 16.2268 12.3574 16.1387C12.5037 16.0393 12.6151 15.9072 12.6924 15.7383L12.6934 15.7354L12.749 15.5967C12.7972 15.4532 12.8222 15.2952 12.8223 15.1221C12.8222 14.7548 12.7246 14.4806 12.5498 14.2773L12.5459 14.2725C12.3821 14.0724 12.162 13.9688 11.8574 13.9688Z" fill="oklch(0.3523 0 0 / 1)" class="wd-icon-fill"></path>
<path d="M16.2012 2C17.0247 2 17.7026 1.99898 18.2529 2.04395C18.815 2.08988 19.3321 2.18828 19.8174 2.43555C20.5699 2.81902 21.182 3.43109 21.5654 4.1836C21.8127 4.6689 21.9111 5.18599 21.957 5.74805C22.002 6.29843 22.001 6.97632 22.001 7.79981V16.2002C22.001 17.0237 22.002 17.7016 21.957 18.252C21.9111 18.814 21.8127 19.3311 21.5654 19.8164C21.182 20.5689 20.5699 21.181 19.8174 21.5645C19.3321 21.8117 18.815 21.9101 18.2529 21.9561C17.7026 22.001 17.0247 22 16.2012 22H7.80078C6.9773 22 6.2994 22.001 5.74903 21.9561C5.18697 21.9101 4.66988 21.8117 4.18457 21.5645C3.43207 21.181 2.81999 20.5689 2.43653 19.8164C2.18925 19.3311 2.09085 18.814 2.04492 18.252C1.99996 17.7016 2.00098 17.0237 2.00098 16.2002V7.79981C2.00098 6.97632 1.99996 6.29843 2.04492 5.74805C2.09085 5.18599 2.18925 4.6689 2.43653 4.1836C2.81999 3.43109 3.43207 2.81902 4.18457 2.43555C4.66988 2.18827 5.18697 2.08988 5.74903 2.04395C6.2994 1.99898 6.9773 2 7.80078 2H16.2012ZM4.00098 16.2002C4.00098 17.0566 4.00133 17.6388 4.03809 18.0889C4.07391 18.5273 4.13906 18.7518 4.21875 18.9082C4.41049 19.2845 4.71652 19.5905 5.09278 19.7822C5.24917 19.8619 5.4737 19.9271 5.91211 19.9629C6.36215 19.9997 6.9444 20 7.80078 20H16.2012C17.0576 20 17.6398 19.9997 18.0898 19.9629C18.5283 19.9271 18.7528 19.8619 18.9092 19.7822C19.2854 19.5905 19.5915 19.2845 19.7832 18.9082C19.8629 18.7518 19.928 18.5273 19.9639 18.0889C20.0006 17.6388 20.001 17.0566 20.001 16.2002V8H4.00098V16.2002Z" fill="oklch(0.3523 0 0 / 1)" class="wd-icon-fill"></path>
</g>
</svg>