<svg width="24" height="24" viewBox="0 0 24 24" xmlns="http://www.w3.org/2000/svg" class="wd-icon wd-icon-boolean" role="presentation">
<g>
<path d="M12.5 2C12.7761 2.00006 13 2.2239 13 2.5V21.5C13 21.7761 12.7761 21.9999 12.5 22H11.5C11.2239 22 11 21.7761 11 21.5V2.5C11 2.22386 11.2239 2 11.5 2H12.5Z" fill="oklch(0.3523 0 0 / 1)" class="wd-icon-fill"></path>
<path d="M8.5 8C8.77608 8.00006 8.99998 8.22391 9 8.5V9.5C9 9.7761 8.77609 9.99994 8.5 10H6V16.5C6 16.7761 5.77609 16.9999 5.5 17H4.5C4.22386 17 4 16.7761 4 16.5V10H1.5C1.22386 10 1 9.77614 1 9.5V8.5C1.00002 8.22387 1.22387 8 1.5 8H8.5Z" fill="oklch(0.3523 0 0 / 1)" class="wd-icon-fill"></path>
<path d="M22.5 8.04004C22.7761 8.0401 23 8.26393 23 8.54004V9.5C23 9.7761 22.7761 9.99994 22.5 10H18V12H21.5C21.7761 12.0001 22 12.2239 22 12.5V13.5C22 13.7761 21.7761 13.9999 21.5 14H18L17.999 16.5C17.999 16.7761 17.7751 17 17.499 17H16.5664C16.2903 17 16.0664 16.7761 16.0664 16.5V8.54004C16.0664 8.2639 16.2903 8.04004 16.5664 8.04004H22.5Z" fill="oklch(0.3523 0 0 / 1)" class="wd-icon-fill"></path>
</g>
</svg>