<svg width="24" height="24" viewBox="0 0 24 24" xmlns="http://www.w3.org/2000/svg" class="wd-icon wd-icon-grow-chevron" role="presentation">
<g>
<path d="M4.5 13C4.77614 13 5 13.2239 5 13.5V19H10.375C10.7202 19 11 19.2798 11 19.625V20.375C11 20.7202 10.7202 21 10.375 21H3.5C3.22386 21 3 20.7761 3 20.5V13.5C3 13.2239 3.22386 13 3.5 13H4.5Z" fill="oklch(0.3523 0 0 / 1)" class="wd-icon-fill"></path>
<path d="M20.5 3C20.7761 3 21 3.22386 21 3.5V10.5C21 10.7761 20.7761 11 20.5 11H19.5C19.2239 11 19 10.7761 19 10.5V5H13.625C13.2798 5 13 4.72018 13 4.375V3.625C13 3.27982 13.2798 3 13.625 3H20.5Z" fill="oklch(0.3523 0 0 / 1)" class="wd-icon-fill"></path>
</g>
</svg>