<svg width="24" height="24" viewBox="0 0 24 24" xmlns="http://www.w3.org/2000/svg" class="wd-icon wd-icon-arrow-down-circle-fill" role="presentation">
<path d="M12 2C17.5228 2 22 6.47715 22 12C22 17.5228 17.5228 22 12 22C6.47715 22 2 17.5228 2 12C2 6.47715 6.47715 2 12 2ZM12 7.00098C11.4479 7.00116 11 7.4488 11 8.00098V13.5859L9.70703 12.293C9.31651 11.903 8.68334 11.9027 8.29297 12.293C7.9026 12.6833 7.90292 13.3165 8.29297 13.707L11.293 16.707C11.6835 17.0972 12.3166 17.0974 12.707 16.707L15.707 13.707C16.0974 13.3166 16.0972 12.6835 15.707 12.293C15.3165 11.9029 14.6834 11.9027 14.293 12.293L13 13.5859V8.00098C13 7.44882 12.5521 7.00118 12 7.00098Z" fill="oklch(0.3523 0 0 / 1)" class="wd-icon-fill"></path>
</svg>