<svg width="24" height="24" viewBox="0 0 24 24" xmlns="http://www.w3.org/2000/svg" class="wd-icon wd-icon-face-happy" role="presentation">
<path d="M12 4C16.4183 4 20 7.58172 20 12C20 16.4183 16.4183 20 12 20C7.58172 20 4 16.4183 4 12C4 7.58172 7.58172 4 12 4ZM15.1016 13.8623C14.9306 13.829 14.754 13.861 14.6016 13.9395C14.5151 13.9822 14.4284 14.0229 14.3418 14.0615C13.5609 14.4098 12.781 14.5836 12 14.583C11.219 14.5836 10.4391 14.4098 9.6582 14.0615C9.57162 14.0229 9.48486 13.9822 9.39844 13.9395C9.24605 13.861 9.0694 13.829 8.89844 13.8623C8.72745 13.8956 8.57701 13.9905 8.47852 14.1289C8.38002 14.2674 8.33962 14.4408 8.36426 14.6133C8.38888 14.7858 8.47741 14.9423 8.60156 15.0605C8.6898 15.142 8.78167 15.2209 8.87598 15.2969C9.71909 15.9845 10.8487 16.4231 12 16.417C13.1513 16.4231 14.2809 15.9845 15.124 15.2969C15.2183 15.2209 15.3102 15.142 15.3984 15.0605C15.5226 14.9423 15.6111 14.7858 15.6357 14.6133C15.6604 14.4408 15.62 14.2674 15.5215 14.1289C15.423 13.9905 15.2725 13.8956 15.1016 13.8623ZM9 8C8.44772 8 8 8.44772 8 9V11C8 11.5523 8.44772 12 9 12C9.55228 12 10 11.5523 10 11V9C10 8.44772 9.55228 8 9 8ZM15 8C14.4477 8 14 8.44772 14 9V11C14 11.5523 14.4477 12 15 12C15.5523 12 16 11.5523 16 11V9C16 8.44772 15.5523 8 15 8Z" fill="transparent" class="wd-icon-background"></path>
<path d="M12 2C17.5228 2 22 6.47715 22 12C22 17.5228 17.5228 22 12 22C6.47715 22 2 17.5228 2 12C2 6.47715 6.47715 2 12 2ZM12 4C7.58172 4 4 7.58172 4 12C4 16.4183 7.58172 20 12 20C16.4183 20 20 16.4183 20 12C20 7.58172 16.4183 4 12 4Z" fill="oklch(0.3523 0 0 / 1)" class="wd-icon-fill"></path>
<g>
<path d="M15.1016 13.8623C15.2725 13.8956 15.423 13.9905 15.5215 14.1289C15.62 14.2674 15.6604 14.4408 15.6357 14.6133C15.6111 14.7858 15.5226 14.9423 15.3984 15.0605C15.3102 15.142 15.2183 15.2209 15.124 15.2969C14.2809 15.9845 13.1513 16.4231 12 16.417C10.8487 16.4231 9.71909 15.9845 8.87598 15.2969C8.78167 15.2209 8.6898 15.142 8.60156 15.0605C8.47741 14.9423 8.38888 14.7858 8.36426 14.6133C8.33962 14.4408 8.38002 14.2674 8.47852 14.1289C8.57701 13.9905 8.72745 13.8956 8.89844 13.8623C9.0694 13.829 9.24605 13.861 9.39844 13.9395C9.48486 13.9822 9.57162 14.0229 9.6582 14.0615C10.4391 14.4098 11.219 14.5836 12 14.583C12.781 14.5836 13.5609 14.4098 14.3418 14.0615C14.4284 14.0229 14.5151 13.9822 14.6016 13.9395C14.754 13.861 14.9306 13.829 15.1016 13.8623Z" fill="oklch(0.3523 0 0 / 1)" class="wd-icon-accent"></path>
<path d="M9 8C9.55228 8 10 8.44772 10 9V11C10 11.5523 9.55228 12 9 12C8.44772 12 8 11.5523 8 11V9C8 8.44772 8.44772 8 9 8Z" fill="oklch(0.3523 0 0 / 1)" class="wd-icon-accent"></path>
<path d="M15 8C15.5523 8 16 8.44772 16 9V11C16 11.5523 15.5523 12 15 12C14.4477 12 14 11.5523 14 11V9C14 8.44772 14.4477 8 15 8Z" fill="oklch(0.3523 0 0 / 1)" class="wd-icon-accent"></path>
</g>
</svg>