<svg width="24" height="24" viewBox="0 0 24 24" xmlns="http://www.w3.org/2000/svg" class="wd-icon wd-icon-translation" role="presentation">
<path d="M8 2C8.55228 2 9 2.44772 9 3V4H13C13.5523 4 14 4.44772 14 5C14 5.55228 13.5523 6 13 6H11.9473C11.762 7.84376 11.0696 9.60741 9.93359 11.0879C9.79554 11.2678 9.65016 11.4411 9.50098 11.6104C10.2408 12.114 11.0602 12.4945 11.9297 12.7275C12.463 12.8706 12.7796 13.4188 12.6367 13.9521C12.4938 14.4855 11.9455 14.8019 11.4121 14.6592C10.176 14.328 9.0181 13.7625 7.99902 12.998C6.9844 13.7589 5.82886 14.3267 4.58789 14.6592C4.05451 14.8019 3.5062 14.4855 3.36328 13.9521C3.22039 13.4188 3.53702 12.8706 4.07031 12.7275C4.94283 12.4937 5.76207 12.1138 6.49902 11.6123C5.68162 10.6851 5.04042 9.6124 4.6123 8.44629C4.42209 7.92788 4.68864 7.3534 5.20703 7.16309C5.72536 6.97293 6.29986 7.23858 6.49023 7.75684C6.83255 8.68925 7.34659 9.54564 8 10.2871C8.11926 10.1518 8.23631 10.014 8.34668 9.87012C9.21438 8.73931 9.76079 7.40236 9.9375 6H3C2.44772 6 2 5.55228 2 5C2 4.44772 2.44772 4 3 4H7V3C7 2.44772 7.44772 2 8 2Z" fill="oklch(0.3523 0 0 / 1)" class="wd-icon-fill"></path>
<path d="M17.4782 10.0137C18.1361 10.0137 18.7266 10.4041 18.988 10.999L19.0358 11.1201L22.363 20.6709C22.5447 21.1925 22.2683 21.7627 21.7468 21.9443C21.2254 22.1257 20.656 21.8504 20.4743 21.3291L19.6608 18.9951C19.6307 18.9979 19.5999 19 19.569 19H15.3513C15.3322 19 15.3134 18.9981 15.2946 18.9971L14.4831 21.3291C14.3014 21.8506 13.7312 22.126 13.2097 21.9443C12.6884 21.7625 12.4129 21.1923 12.5944 20.6709L15.9216 11.1201L15.9694 10.999C16.2307 10.4043 16.8206 10.0139 17.4782 10.0137ZM15.9909 17H18.9665L17.4782 12.7295L15.9909 17Z" fill="oklch(0.3523 0 0 / 1)" class="wd-icon-accent"></path>
</svg>