<svg width="24" height="24" viewBox="0 0 24 24" xmlns="http://www.w3.org/2000/svg" class="wd-icon wd-icon-compass" role="presentation">
<g>
<path d="M15.6475 6.87109C16.5251 6.67767 17.3241 7.47684 17.1309 8.35449L17.0742 8.54492L15.3027 13.1475C14.9218 14.1369 14.1389 14.9189 13.1494 15.2998L8.5459 17.0723C7.53502 17.4609 6.54176 16.4669 6.93066 15.4561L8.70215 10.8535C9.08306 9.86385 9.86581 9.08111 10.8555 8.7002L15.458 6.92871L15.6475 6.87109ZM10.6113 10.6084C10.3914 10.8284 10.2168 11.0948 10.1025 11.3916L8.5332 15.4697L12.6104 13.8994C12.9071 13.7851 13.1735 13.6106 13.3936 13.3906L10.6113 10.6084Z" fill="oklch(0.3523 0 0 / 1)" class="wd-icon-fill"></path>
<path d="M11.998 2C17.5209 2 21.998 6.47715 21.998 12C21.998 17.5228 17.5209 22 11.998 22C6.47539 21.9998 1.9981 17.5227 1.99805 12C1.99805 6.47727 6.47536 2.00019 11.998 2ZM11.998 4C7.57993 4.00019 3.99805 7.58184 3.99805 12C3.9981 16.4181 7.57996 19.9998 11.998 20C16.4163 20 19.998 16.4182 19.998 12C19.998 7.58172 16.4163 4 11.998 4Z" fill="oklch(0.3523 0 0 / 1)" class="wd-icon-fill"></path>
</g>
</svg>