<svg width="24" height="24" viewBox="0 0 24 24" xmlns="http://www.w3.org/2000/svg" class="wd-icon wd-icon-chevron-right" role="presentation">
<path d="M10.2513 4.18373C10.465 4.00908 10.7796 4.04043 10.9544 4.25405L13.39 7.22963L13.3929 7.23452L16.7747 11.3673C17.0753 11.7355 17.0755 12.2649 16.7747 12.633L10.9544 19.7462C10.7797 19.9598 10.465 19.9911 10.2513 19.8165L9.86361 19.5001L9.47689 19.1837C9.2634 19.0089 9.23201 18.6943 9.40658 18.4806L11.8412 15.504C11.8425 15.5024 11.8437 15.5008 11.8451 15.4992L14.7083 12.0001L11.8451 8.50014L11.8412 8.49623L9.40658 5.51967C9.23193 5.30603 9.26344 4.9914 9.47689 4.81655L9.86361 4.50014L10.2513 4.18373Z" fill="oklch(0.3523 0 0 / 1)" class="wd-icon-fill"></path>
</svg>