<svg width="24" height="24" viewBox="0 0 24 24" xmlns="http://www.w3.org/2000/svg" class="wd-icon wd-icon-attribute" role="presentation">
<path d="M13 2C13.5523 2 14 2.44772 14 3V4H10V6H14V4H16V3C16 2.44772 16.4477 2 17 2H21C21.5523 2 22 2.44772 22 3V7C22 7.55228 21.5523 8 21 8H17C16.4477 8 16 7.55228 16 7V6H14V7C14 7.55228 13.5523 8 13 8H9C8.44772 8 8 7.55228 8 7V6H6C5.44772 6 5 6.44772 5 7V11H8V10C8 9.44772 8.44772 9 9 9H13C13.5523 9 14 9.44772 14 10V14C14 14.5523 13.5523 15 13 15H9C8.44772 15 8 14.5523 8 14V13H5V17C5 17.5523 5.44772 18 6 18H8V17C8 16.4477 8.44772 16 9 16H13C13.5523 16 14 16.4477 14 17V21C14 21.5523 13.5523 22 13 22H9C8.44772 22 8 21.5523 8 21V20H6C4.34315 20 3 18.6569 3 17V7C3 5.34315 4.34315 4 6 4H8V3C8 2.44772 8.44772 2 9 2H13ZM10 20H12V18H10V20ZM10 13H12V11H10V13Z" fill="oklch(0.3523 0 0 / 1)" class="wd-icon-fill"></path>
</svg>