<svg width="24" height="24" viewBox="0 0 24 24" xmlns="http://www.w3.org/2000/svg" class="wd-icon wd-icon-line-chart-double" role="presentation">
<path d="M4 3C4.55229 3 5 3.44772 5 4V13.1777L8.36036 11.04C9.08182 10.5812 10.0149 10.6319 10.6826 11.166L14.5664 14.2725L19.4629 11.1562C19.9288 10.8598 20.5472 10.9971 20.8438 11.4629C21.1402 11.9288 21.003 12.5472 20.5371 12.8438L15.6397 15.96C14.9182 16.4188 13.9851 16.3681 13.3174 15.834L9.4336 12.7275L5 15.5488V16.7998C5 17.3764 5.00127 17.7489 5.02442 18.0322C5.04662 18.3038 5.08419 18.4047 5.10938 18.4541C5.20522 18.6421 5.35793 18.7948 5.5459 18.8906C5.59534 18.9158 5.69619 18.9534 5.96778 18.9756C6.25112 18.9987 6.62365 19 7.2002 19H20C20.5523 19 21 19.4477 21 20C21 20.5523 20.5523 21 20 21H7.2002C6.65665 21 6.18836 21.0011 5.80469 20.9697C5.40943 20.9374 5.016 20.8656 4.6377 20.6729C4.07348 20.3853 3.61473 19.9265 3.32715 19.3623C3.1344 18.984 3.06259 18.5906 3.03028 18.1953C2.99893 17.8116 3 17.3434 3 16.7998V4C3 3.44772 3.44772 3 4 3Z" fill="oklch(0.3523 0 0 / 1)" class="wd-icon-fill"></path>
<path d="M19.3672 4.22548C19.7946 3.8762 20.4248 3.9398 20.7744 4.36709C21.1236 4.79452 21.0601 5.42473 20.6328 5.77431L15.7598 9.76162C15.0294 10.3591 13.98 10.3647 13.2432 9.77529L9.50684 6.78603L5 10.4735V7.88857L8.24023 5.23818C8.97058 4.64062 10.02 4.63501 10.7568 5.22451L14.4932 8.21377L19.3672 4.22548Z" fill="oklch(0.3523 0 0 / 1)" class="wd-icon-accent"></path>
</svg>