<svg width="24" height="24" viewBox="0 0 24 24" xmlns="http://www.w3.org/2000/svg" class="wd-icon wd-icon-sun-min" role="presentation">
<path d="M11.998 9C13.6549 9 14.998 10.3431 14.998 12C14.998 13.6569 13.6549 15 11.998 15C10.3412 15 8.99805 13.6569 8.99805 12C8.99805 10.3431 10.3412 9 11.998 9Z" fill="transparent" class="wd-icon-background"></path>
<g>
<path d="M11.998 19C12.5503 19 12.998 19.4477 12.998 20C12.998 20.5523 12.5503 21 11.998 21C11.4458 21 10.998 20.5523 10.998 20C10.998 19.4477 11.4458 19 11.998 19Z" fill="oklch(0.3523 0 0 / 1)" class="wd-icon-fill"></path>
<path d="M6.33984 16.6562C6.89185 16.6564 7.33958 17.1043 7.33984 17.6562C7.33984 18.2085 6.89202 18.6561 6.33984 18.6562C5.78756 18.6562 5.33984 18.2085 5.33984 17.6562C5.34011 17.1042 5.78772 16.6562 6.33984 16.6562Z" fill="oklch(0.3523 0 0 / 1)" class="wd-icon-fill"></path>
<path d="M17.6543 16.6562C18.2066 16.6562 18.6543 17.104 18.6543 17.6562C18.654 18.2083 18.2064 18.6562 17.6543 18.6562C17.1022 18.6562 16.6546 18.2083 16.6543 17.6562C16.6543 17.104 17.102 16.6563 17.6543 16.6562Z" fill="oklch(0.3523 0 0 / 1)" class="wd-icon-fill"></path>
<path d="M11.998 7C14.7595 7 16.998 9.23858 16.998 12C16.998 14.7614 14.7595 17 11.998 17C9.23662 17 6.99805 14.7614 6.99805 12C6.99805 9.23858 9.23662 7 11.998 7ZM11.998 9C10.3412 9 8.99805 10.3431 8.99805 12C8.99805 13.6569 10.3412 15 11.998 15C13.6549 15 14.998 13.6569 14.998 12C14.998 10.3431 13.6549 9 11.998 9Z" fill="oklch(0.3523 0 0 / 1)" class="wd-icon-fill"></path>
<path d="M3.99805 11C4.55033 11 4.99805 11.4477 4.99805 12C4.99805 12.5523 4.55033 13 3.99805 13C3.44576 13 2.99805 12.5523 2.99805 12C2.99805 11.4477 3.44576 11 3.99805 11Z" fill="oklch(0.3523 0 0 / 1)" class="wd-icon-fill"></path>
<path d="M19.998 11C20.5503 11 20.998 11.4477 20.998 12C20.998 12.5523 20.5503 13 19.998 13C19.4458 13 18.998 12.5523 18.998 12C18.998 11.4477 19.4458 11 19.998 11Z" fill="oklch(0.3523 0 0 / 1)" class="wd-icon-fill"></path>
<path d="M17.6543 5.34277C18.2064 5.34291 18.6542 5.79068 18.6543 6.34277C18.6543 6.89498 18.2065 7.34264 17.6543 7.34277C17.102 7.34277 16.6543 6.89506 16.6543 6.34277C16.6544 5.7906 17.1021 5.34277 17.6543 5.34277Z" fill="oklch(0.3523 0 0 / 1)" class="wd-icon-fill"></path>
<path d="M6.3418 5.34277C6.89408 5.34277 7.3418 5.79049 7.3418 6.34277C7.34153 6.89483 6.89392 7.3418 6.3418 7.3418C5.78968 7.3418 5.34206 6.89483 5.3418 6.34277C5.3418 5.79049 5.78951 5.34277 6.3418 5.34277Z" fill="oklch(0.3523 0 0 / 1)" class="wd-icon-fill"></path>
<path d="M11.998 3C12.5503 3 12.998 3.44772 12.998 4C12.998 4.55228 12.5503 5 11.998 5C11.4458 5 10.998 4.55228 10.998 4C10.998 3.44772 11.4458 3 11.998 3Z" fill="oklch(0.3523 0 0 / 1)" class="wd-icon-fill"></path>
</g>
</svg>