<svg width="24" height="24" viewBox="0 0 24 24" xmlns="http://www.w3.org/2000/svg" class="wd-icon wd-icon-map" role="presentation">
<path d="M8.62988 3.07713C8.91836 3.01169 9.21973 3.03323 9.49609 3.13866L9.63281 3.19823L15.0762 5.91991L20.0254 4.27049C20.9966 3.94676 21.9998 4.66969 22 5.69334V17.6396C21.9999 18.2851 21.5869 18.8583 20.9746 19.0625L15.5127 20.8828C15.1353 21.0086 14.723 20.9796 14.3672 20.8017L8.92285 18.0791L3.97461 19.7295C3.00354 20.0531 2.00041 19.3301 2 18.3066V6.36033C2.00001 5.71483 2.41309 5.14176 3.02539 4.93748L8.4873 3.11717L8.62988 3.07713ZM16 7.71971V18.6113L20 17.2783V6.3867L16 7.71971ZM10 16.3818L14 18.3818V7.61717L10 5.61717V16.3818ZM4 6.72069V17.6123L8 16.2793V5.3867L4 6.72069Z" fill="oklch(0.3523 0 0 / 1)" class="wd-icon-fill"></path>
</svg>