<svg width="24" height="24" viewBox="0 0 24 24" xmlns="http://www.w3.org/2000/svg" class="wd-icon wd-icon-bar-horizontal-chart-line" role="presentation">
<g>
<path d="M4 3.00001C4.5522 3.00001 4.99986 3.44784 5 4.00001V20C5 20.5523 4.55228 21 4 21C3.44772 21 3 20.5523 3 20V4.00001C3.00014 3.44784 3.4478 3.00001 4 3.00001Z" fill="oklch(0.3523 0 0 / 1)" class="wd-icon-fill"></path>
<path d="M11.5 16C11.7193 16 11.9338 15.9993 12.1152 16.0117C12.3056 16.0247 12.5316 16.0554 12.7656 16.1523C13.2554 16.3553 13.6446 16.7446 13.8477 17.2344C13.9446 17.4683 13.9753 17.6945 13.9883 17.8848C14.0007 18.0661 14 18.2808 14 18.5C14 18.7192 14.0006 18.9339 13.9883 19.1152C13.9753 19.3056 13.9445 19.5317 13.8477 19.7656C13.6447 20.2555 13.2554 20.6447 12.7656 20.8477C12.5316 20.9446 12.3056 20.9753 12.1152 20.9883C11.9338 21.0007 11.7193 21 11.5 21H9.5C9.28071 21 9.06616 21.0007 8.88477 20.9883C8.6944 20.9753 8.46841 20.9446 8.23438 20.8477C7.74457 20.6447 7.35531 20.2555 7.15234 19.7656C7.05547 19.5317 7.0247 19.3056 7.01172 19.1152C6.99936 18.9339 7 18.7192 7 18.5C7 18.2808 6.99935 18.0661 7.01172 17.8848C7.02472 17.6945 7.05544 17.4683 7.15234 17.2344C7.35535 16.7446 7.7446 16.3553 8.23438 16.1523C8.46839 16.0554 8.69442 16.0247 8.88477 16.0117C9.06615 15.9993 9.28072 16 9.5 16H11.5ZM9.02051 18.0068C9.01601 18.0071 9.01177 18.0075 9.00781 18.0078C9.00751 18.0117 9.00714 18.0161 9.00684 18.0205C9.00018 18.118 9 18.2535 9 18.5C9 18.7464 9.0002 18.882 9.00684 18.9795C9.00711 18.9835 9.00753 18.9876 9.00781 18.9912C9.01179 18.9915 9.01598 18.9929 9.02051 18.9932C9.11803 18.9998 9.25335 19 9.5 19H11.5C11.7467 19 11.882 18.9998 11.9795 18.9932C11.9837 18.9929 11.9875 18.9915 11.9912 18.9912C11.9915 18.9876 11.9929 18.9836 11.9932 18.9795C11.9998 18.882 12 18.7464 12 18.5C12 18.2535 11.9998 18.118 11.9932 18.0205C11.9928 18.0161 11.9915 18.0117 11.9912 18.0078C11.9875 18.0075 11.9836 18.0071 11.9795 18.0068C11.882 18.0002 11.7466 18 11.5 18H9.5C9.25336 18 9.11803 18.0002 9.02051 18.0068Z" fill="oklch(0.3523 0 0 / 1)" class="wd-icon-fill"></path>
<path d="M19.5 9.50001C19.7193 9.50001 19.9338 9.49935 20.1152 9.51172C20.3056 9.52471 20.5316 9.55544 20.7656 9.65235C21.2554 9.8553 21.6446 10.2446 21.8477 10.7344C21.9446 10.9683 21.9753 11.1945 21.9883 11.3848C22.0007 11.5661 22 11.7808 22 12C22 12.2192 22.0006 12.4339 21.9883 12.6152C21.9753 12.8056 21.9445 13.0317 21.8477 13.2656C21.6447 13.7555 21.2554 14.1447 20.7656 14.3477C20.5316 14.4446 20.3056 14.4753 20.1152 14.4883C19.9338 14.5007 19.7193 14.5 19.5 14.5H9.5C9.28071 14.5 9.06616 14.5007 8.88477 14.4883C8.6944 14.4753 8.46841 14.4446 8.23438 14.3477C7.74457 14.1447 7.35531 13.7555 7.15234 13.2656C7.05547 13.0317 7.0247 12.8056 7.01172 12.6152C6.99936 12.4339 7 12.2192 7 12C7 11.7808 6.99935 11.5661 7.01172 11.3848C7.02472 11.1945 7.05544 10.9683 7.15234 10.7344C7.35535 10.2446 7.7446 9.8553 8.23438 9.65235C8.46839 9.55544 8.69442 9.52471 8.88477 9.51172C9.06615 9.49935 9.28072 9.50001 9.5 9.50001H19.5ZM9.02051 11.5068C9.01601 11.5071 9.01177 11.5075 9.00781 11.5078C9.00751 11.5117 9.00714 11.5161 9.00684 11.5205C9.00018 11.618 9 11.7535 9 12C9 12.2464 9.0002 12.382 9.00684 12.4795C9.00711 12.4835 9.00753 12.4876 9.00781 12.4912C9.01179 12.4915 9.01598 12.4929 9.02051 12.4932C9.11803 12.4998 9.25335 12.5 9.5 12.5H19.5C19.7467 12.5 19.882 12.4998 19.9795 12.4932C19.9837 12.4929 19.9875 12.4915 19.9912 12.4912C19.9915 12.4876 19.9929 12.4836 19.9932 12.4795C19.9998 12.382 20 12.2464 20 12C20 11.7535 19.9998 11.618 19.9932 11.5205C19.9928 11.5161 19.9915 11.5117 19.9912 11.5078C19.9875 11.5075 19.9836 11.5071 19.9795 11.5068C19.882 11.5002 19.7466 11.5 19.5 11.5H9.5C9.25336 11.5 9.11803 11.5002 9.02051 11.5068Z" fill="oklch(0.3523 0 0 / 1)" class="wd-icon-fill"></path>
<path d="M15.5 3.00001C15.7193 3.00001 15.9338 2.99935 16.1152 3.01172C16.3056 3.02471 16.5316 3.05543 16.7656 3.15235C17.2554 3.3553 17.6446 3.74463 17.8477 4.23438C17.9446 4.46832 17.9753 4.69445 17.9883 4.88477C18.0007 5.06609 18 5.2808 18 5.50001C18 5.71919 18.0006 5.9339 17.9883 6.11524C17.9753 6.30555 17.9445 6.53166 17.8477 6.76563C17.6447 7.25545 17.2554 7.64467 16.7656 7.84766C16.5316 7.9446 16.3056 7.9753 16.1152 7.98829C15.9338 8.00066 15.7193 8.00001 15.5 8.00001H9.5C9.28071 8.00001 9.06616 8.00066 8.88477 7.98829C8.6944 7.9753 8.46841 7.9446 8.23438 7.84766C7.74457 7.64467 7.35531 7.25545 7.15234 6.76563C7.05547 6.53166 7.0247 6.30555 7.01172 6.11524C6.99936 5.9339 7 5.71919 7 5.50001C7 5.2808 6.99935 5.06609 7.01172 4.88477C7.02472 4.69445 7.05544 4.46832 7.15234 4.23438C7.35535 3.74463 7.7446 3.3553 8.23438 3.15235C8.46839 3.05543 8.69442 3.02471 8.88477 3.01172C9.06615 2.99935 9.28072 3.00001 9.5 3.00001H15.5ZM9.02051 5.00684C9.01601 5.00715 9.01177 5.00751 9.00781 5.00782C9.00751 5.01171 9.00714 5.0161 9.00684 5.02051C9.00018 5.118 9 5.25351 9 5.50001C9 5.74645 9.0002 5.88199 9.00684 5.9795C9.00711 5.98354 9.00753 5.98761 9.00781 5.99122C9.01179 5.99153 9.01598 5.99286 9.02051 5.99317C9.11803 5.99982 9.25335 6.00001 9.5 6.00001H15.5C15.7467 6.00001 15.882 5.99982 15.9795 5.99317C15.9837 5.99288 15.9875 5.99151 15.9912 5.99122C15.9915 5.98759 15.9929 5.98357 15.9932 5.9795C15.9998 5.88199 16 5.74645 16 5.50001C16 5.25351 15.9998 5.118 15.9932 5.02051C15.9928 5.01608 15.9915 5.01173 15.9912 5.00782C15.9875 5.00753 15.9836 5.00712 15.9795 5.00684C15.882 5.00019 15.7466 5.00001 15.5 5.00001H9.5C9.25336 5.00001 9.11803 5.00019 9.02051 5.00684Z" fill="oklch(0.3523 0 0 / 1)" class="wd-icon-fill"></path>
</g>
</svg>