<svg width="24" height="24" viewBox="0 0 24 24" xmlns="http://www.w3.org/2000/svg" class="wd-icon wd-icon-audio-none-fill" role="presentation">
<path d="M11.4443 5.05865C11.9114 5.04131 12.3599 5.24308 12.6572 5.60357C12.9191 5.92139 12.9644 6.29382 12.9815 6.48345C13.0007 6.69745 13 6.96326 13 7.22564V16.7745C13 17.0368 13.0007 17.3027 12.9815 17.5167C12.9644 17.7062 12.9191 18.0777 12.6572 18.3956C12.3599 18.7564 11.9116 18.9588 11.4443 18.9415C11.0326 18.926 10.7243 18.7119 10.5713 18.5987C10.3985 18.4708 10.2001 18.2935 10.0039 18.1192L7.79005 16.1514C7.70016 16.0715 7.65484 16.0315 7.62111 16.004L7.61915 16.002H7.61525C7.57174 16.0002 7.51169 16.0001 7.39162 16.0001H5.59962C5.33625 16.0001 5.07814 16.0012 4.86134 15.9835C4.63285 15.9648 4.36305 15.9205 4.09181 15.7823C3.71564 15.5906 3.40951 15.2844 3.21779 14.9083C3.0796 14.6369 3.03529 14.3663 3.01662 14.1378C2.99895 13.921 3.00001 13.6627 3.00001 13.3995V10.5997C3.00001 10.3363 2.9989 10.0782 3.01662 9.86138C3.03532 9.63292 3.07961 9.36305 3.21779 9.09185C3.40952 8.71567 3.71562 8.40954 4.09181 8.21783C4.36303 8.07965 4.63287 8.03535 4.86134 8.01666C5.07814 7.99895 5.33626 8.00006 5.59962 8.00006H7.39162C7.51215 8.00006 7.57268 7.99995 7.61622 7.9981L7.61915 7.99713L7.62111 7.99615C7.65484 7.96863 7.70021 7.92855 7.79005 7.84869L10.0039 5.88092C10.2002 5.70648 10.3985 5.5283 10.5713 5.40045C10.7244 5.28722 11.0329 5.07407 11.4443 5.05865Z" fill="oklch(0.3523 0 0 / 1)" class="wd-icon-fill"></path>
</svg>