<svg width="24" height="24" viewBox="0 0 24 24" xmlns="http://www.w3.org/2000/svg" class="wd-icon wd-icon-tag" role="presentation">
<path d="M19.9999 12.2929V4.5C19.9999 4.22386 19.7761 4 19.4999 4H11.707C11.5744 4 11.4472 4.05268 11.3535 4.14645L2.35348 13.1464C2.15822 13.3417 2.15822 13.6583 2.35348 13.8536L10.1464 21.6464C10.3416 21.8417 10.6582 21.8417 10.8535 21.6464L19.8535 12.6464C19.9472 12.5527 19.9999 12.4255 19.9999 12.2929Z" fill="transparent" class="wd-icon-background"></path>
<path d="M19.4998 3C20.3282 3.00008 20.9998 3.67162 20.9998 4.5V12.293C20.9998 12.6907 20.8416 13.0722 20.5604 13.3535L11.5604 22.3535C10.9746 22.9392 10.0251 22.9392 9.4393 22.3535L1.64633 14.5605C1.0606 13.9748 1.0606 13.0252 1.64633 12.4395L10.6463 3.43945L10.7567 3.33984C11.0235 3.12128 11.3589 3.00002 11.7069 3H19.4998ZM3.41391 13.5L10.4998 20.5859L18.9998 12.0859V5H11.9139L3.41391 13.5Z" fill="oklch(0.3523 0 0 / 1)" class="wd-icon-fill"></path>
<path d="M16 6C17.1046 6 18 6.89543 18 8C18 9.10457 17.1046 10 16 10C14.8954 10 14 9.10457 14 8C14 6.89543 14.8954 6 16 6Z" fill="oklch(0.3523 0 0 / 1)" class="wd-icon-accent"></path>
</svg>