<svg width="24" height="24" viewBox="0 0 24 24" xmlns="http://www.w3.org/2000/svg" class="wd-icon wd-icon-component" role="presentation">
<g>
<path d="M7.05401 10.0434C7.64312 9.56317 8.51175 9.59698 9.06084 10.1459L13.8538 14.9389C14.4395 15.5246 14.4393 16.4742 13.8538 17.06L9.06084 21.853C8.47506 22.4387 7.52552 22.4387 6.93975 21.853L2.14678 17.06C1.56113 16.4742 1.56107 15.5247 2.14678 14.9389L6.93975 10.1459L7.05401 10.0434ZM3.91436 15.9995L8.00029 20.0854L12.0862 15.9995L8.00029 11.9135L3.91436 15.9995Z" fill="oklch(0.3523 0 0 / 1)" class="wd-icon-fill"></path>
<path d="M15.054 2.0434C15.6431 1.56317 16.5118 1.59698 17.0608 2.14594L21.8538 6.93891C22.4395 7.52461 22.4393 8.47421 21.8538 9.06001L17.0608 13.853C16.4751 14.4387 15.5255 14.4387 14.9397 13.853L10.1468 9.06001C9.56113 8.47422 9.56107 7.52466 10.1468 6.93891L14.9397 2.14594L15.054 2.0434Z" fill="oklch(0.3523 0 0 / 1)" class="wd-icon-fill"></path>
</g>
</svg>