<svg width="24" height="24" viewBox="0 0 24 24" xmlns="http://www.w3.org/2000/svg" class="wd-icon wd-icon-question" role="presentation">
<g>
<path d="M11.5 17C12.3284 17 13 17.6716 13 18.5C13 19.3284 12.3284 20 11.5 20C10.6716 19.9999 9.99998 19.3284 9.99998 18.5C9.99998 17.6716 10.6716 17.0001 11.5 17Z" fill="oklch(0.3523 0 0 / 1)" class="wd-icon-fill"></path>
<path d="M12.2871 4.00586C15.2025 4.13491 16.6504 6.22664 16.6504 8C16.6504 10.149 15.3521 11.298 14.3447 12.1484C13.2708 13.0549 12.6083 13.5994 12.4941 14.6123C12.4847 14.6955 12.4636 14.7745 12.4355 14.8496C12.4181 14.8963 12.3979 14.9413 12.374 14.9844C12.3675 14.996 12.3604 15.0072 12.3535 15.0186C12.3439 15.0343 12.3346 15.0502 12.3242 15.0654C12.2593 15.1597 12.1787 15.2409 12.0869 15.3076C12.0748 15.3164 12.0632 15.3257 12.0508 15.334C12.0106 15.3605 11.9685 15.3837 11.9248 15.4043C11.9099 15.4113 11.8951 15.4185 11.8799 15.4248C11.861 15.4326 11.8416 15.4387 11.8222 15.4453C11.8131 15.4484 11.8042 15.4522 11.7949 15.4551C11.7699 15.4628 11.7444 15.4688 11.7187 15.4746C11.7119 15.4761 11.7051 15.4781 11.6982 15.4795C11.6795 15.4833 11.6606 15.4856 11.6416 15.4883C11.626 15.4905 11.6105 15.4936 11.5947 15.4951C11.5776 15.4967 11.5603 15.4963 11.5429 15.4971C11.5287 15.4977 11.5143 15.5 11.5 15.5L11.4951 15.499C11.4759 15.4989 11.4568 15.4973 11.4375 15.4961C11.4231 15.4952 11.4087 15.4956 11.3945 15.4941C11.3923 15.4939 11.3899 15.4944 11.3877 15.4941C11.3308 15.4877 11.2759 15.4753 11.2226 15.46C11.2142 15.4575 11.2056 15.4558 11.1972 15.4531C11.1813 15.4481 11.166 15.4414 11.1504 15.4355C11.135 15.4298 11.1195 15.4245 11.1045 15.418C10.9922 15.3696 10.8914 15.3018 10.8056 15.2188C10.8015 15.2147 10.797 15.2111 10.7929 15.207L10.7812 15.1953C10.7444 15.1571 10.711 15.1158 10.6806 15.0723C10.6754 15.0648 10.67 15.0574 10.665 15.0498C10.6188 14.9797 10.5822 14.9035 10.5547 14.8232C10.5408 14.7826 10.5281 14.7411 10.5195 14.6982C10.5138 14.67 10.5101 14.6413 10.5068 14.6123C10.5027 14.5754 10.5 14.538 10.5 14.5C10.5 12.5095 11.9171 11.3812 12.8574 10.5928C13.9252 9.6974 14.5 9.15127 14.5 8.25C14.5 7.21091 13.5647 6 12 6C11.1071 6.00006 10.4711 6.40016 10.0322 6.83496C9.81112 7.05404 9.64827 7.27567 9.54197 7.44043C9.48937 7.52197 9.45112 7.58745 9.42869 7.62891C9.41754 7.64952 9.41081 7.66466 9.4072 7.67188C9.40556 7.67514 9.40427 7.67676 9.40427 7.67676L9.40623 7.67285L9.4072 7.67188L9.40623 7.66992L9.40427 7.67285C9.37731 7.73073 9.34497 7.78458 9.30857 7.83496C9.30391 7.84142 9.29969 7.84817 9.2949 7.85449C9.28071 7.87317 9.26535 7.89069 9.24998 7.9082C9.24007 7.91952 9.23006 7.93061 9.2197 7.94141C9.20658 7.95506 9.19349 7.9686 9.17967 7.98145C9.16883 7.99153 9.1577 8.00119 9.14646 8.01074C9.13566 8.01991 9.12442 8.02842 9.11326 8.03711C9.09831 8.04876 9.0829 8.05957 9.06736 8.07031C9.05344 8.07994 9.03974 8.08973 9.02537 8.09863C9.01505 8.10502 9.00465 8.11118 8.99412 8.11719C8.97802 8.12637 8.96186 8.13528 8.94529 8.14355C8.93053 8.15091 8.91546 8.15744 8.90037 8.16406C8.88579 8.17047 8.8713 8.17691 8.85642 8.18262C8.84198 8.18815 8.82716 8.19241 8.81248 8.19727C8.79624 8.20265 8.78017 8.20834 8.76365 8.21289C8.75359 8.21566 8.74352 8.21825 8.73338 8.2207C8.71172 8.22594 8.68999 8.23059 8.66795 8.23438C8.6566 8.23633 8.64519 8.2377 8.63377 8.23926C8.61398 8.24196 8.59421 8.24459 8.5742 8.24609C8.56152 8.24705 8.54884 8.24757 8.53611 8.24805C8.515 8.24882 8.4939 8.24863 8.47263 8.24805C8.46579 8.24786 8.45898 8.2474 8.45213 8.24707C8.4255 8.24578 8.39879 8.24469 8.37205 8.24121C8.3668 8.24053 8.36167 8.23905 8.35642 8.23828C8.33135 8.23461 8.3063 8.23026 8.28123 8.22461C8.26556 8.22107 8.24995 8.21722 8.23435 8.21289C8.22213 8.20951 8.20943 8.20699 8.19724 8.20312C8.19223 8.20153 8.18756 8.19893 8.18259 8.19727C8.17071 8.19326 8.15925 8.18807 8.14744 8.18359C8.12731 8.17601 8.10723 8.1689 8.08787 8.16016C8.0854 8.15904 8.08252 8.15837 8.08006 8.15723C8.07304 8.15398 8.06645 8.14988 8.05955 8.14648C8.0369 8.13538 8.01464 8.12396 7.99314 8.11133C7.98822 8.10844 7.98335 8.1055 7.97849 8.10254C7.92724 8.07122 7.87991 8.03532 7.83592 7.99609C7.79577 7.96039 7.75897 7.92192 7.72556 7.88086C7.71972 7.87367 7.71362 7.86672 7.70799 7.85938C7.69773 7.84602 7.68823 7.83218 7.67869 7.81836C7.66934 7.80482 7.66001 7.79131 7.65134 7.77734C7.64342 7.76456 7.63622 7.75139 7.62888 7.73828C7.62091 7.72403 7.61272 7.70993 7.60545 7.69531C7.59779 7.6799 7.59081 7.66421 7.58396 7.64844C7.57803 7.6348 7.57171 7.62132 7.56638 7.60742C7.55965 7.58982 7.55454 7.57166 7.54881 7.55371C7.5346 7.50933 7.52255 7.4642 7.51463 7.41797C7.51268 7.40663 7.5113 7.3952 7.50974 7.38379C7.50706 7.36402 7.50441 7.34421 7.50291 7.32422C7.50195 7.31156 7.50142 7.29885 7.50095 7.28613C7.50022 7.26602 7.50046 7.24584 7.50095 7.22559C7.5013 7.21127 7.50194 7.19696 7.50291 7.18262C7.50399 7.1667 7.50495 7.15072 7.50681 7.13477C7.50947 7.11194 7.51328 7.08918 7.51756 7.06641C7.51926 7.05733 7.52047 7.04813 7.52244 7.03906C7.52662 7.01978 7.53171 7.00062 7.53709 6.98145C7.54026 6.97008 7.54326 6.95861 7.54685 6.94727L7.54783 6.94629V6.94336C7.54783 6.94336 7.54915 6.93944 7.54978 6.9375C7.55106 6.93358 7.55297 6.92885 7.55467 6.92383C7.55802 6.91388 7.56232 6.90175 7.56736 6.8877C7.57764 6.85902 7.59146 6.82145 7.60935 6.77734C7.64509 6.68925 7.69773 6.57166 7.76951 6.43457C7.91237 6.16177 8.13819 5.80173 8.47556 5.44141C9.16906 4.7009 10.2995 4.00006 12 4L12.2871 4.00586Z" fill="oklch(0.3523 0 0 / 1)" class="wd-icon-fill"></path>
</g>
</svg>