<svg width="24" height="24" viewBox="0 0 24 24" xmlns="http://www.w3.org/2000/svg" class="wd-icon wd-icon-font-edit" role="presentation">
<g>
<path d="M18.4984 10C19.3939 9.99895 20.2936 10.3412 20.9779 11.0254C21.662 11.7097 22.0034 12.6094 22.0023 13.5049C22.0019 13.7696 21.8966 14.0238 21.7093 14.2109L14.2064 21.707C14.0189 21.8943 13.7644 22 13.4994 22H10.9994C10.4472 21.9999 9.99948 21.5521 9.99938 21V18.5C9.99938 18.2349 10.1049 17.9805 10.2924 17.793L17.7924 10.293L17.8656 10.2266C18.0432 10.081 18.2668 10.0003 18.4984 10ZM11.9994 18.9141V20H13.0843L17.3363 15.751L16.2484 14.6631L11.9994 18.9141ZM17.6625 13.249L18.7504 14.3369L19.9554 13.1348C19.8918 12.8799 19.7622 12.6388 19.5629 12.4395C19.3631 12.2398 19.1218 12.1094 18.8666 12.0459L17.6625 13.249Z" fill="oklch(0.3523 0 0 / 1)" class="wd-icon-fill"></path>
<path d="M7.38805 2.00293C7.59595 2.00304 7.78238 2.13168 7.85583 2.32617L11.6263 12.3232C11.7496 12.6501 11.5078 12.9997 11.1586 13H9.61657C9.40219 13 9.21166 12.8632 9.14294 12.6602L8.47204 10.6748H4.4818L3.79626 12.6631C3.72665 12.8646 3.53684 13 3.3236 13H1.84216C1.49291 12.9997 1.25111 12.6501 1.37438 12.3232L5.14489 2.32617C5.21834 2.13168 5.40477 2.00304 5.61266 2.00293H7.38805ZM6.4613 4.50098C6.25707 5.30217 5.95805 6.32329 5.47106 7.76855L5.12536 8.77441H7.81188L7.43493 7.6582C6.97944 6.32312 6.68113 5.30209 6.47692 4.50098H6.4613Z" fill="oklch(0.3523 0 0 / 1)" class="wd-icon-fill"></path>
</g>
</svg>