<svg width="24" height="24" viewBox="0 0 24 24" xmlns="http://www.w3.org/2000/svg" class="wd-icon wd-icon-formula-brackets" role="presentation">
<g>
<path d="M16 10C16.4142 10 16.75 10.3358 16.75 10.75C16.75 11.1642 16.4142 11.5 16 11.5H15.75C15.0596 11.5 14.5 12.0596 14.5 12.75V14.1787C14.4999 14.8507 14.2668 15.4905 13.8574 16C14.2668 16.5095 14.4999 17.1493 14.5 17.8213V19.25C14.5 19.9404 15.0596 20.5 15.75 20.5H16C16.4142 20.5 16.75 20.8358 16.75 21.25C16.75 21.6642 16.4142 22 16 22H15.75C14.2312 22 13 20.7688 13 19.25V17.8213C12.9999 17.3397 12.7539 16.8914 12.3477 16.6328C12.3425 16.6296 12.338 16.6254 12.333 16.6221C12.326 16.6174 12.3193 16.6123 12.3125 16.6074C12.2791 16.5834 12.248 16.5576 12.2197 16.5293C12.1915 16.501 12.1656 16.47 12.1416 16.4365C12.1364 16.4293 12.1309 16.4224 12.126 16.415C12.1231 16.4108 12.12 16.4067 12.1172 16.4023C12.0974 16.3712 12.0801 16.3393 12.0654 16.3066C12.0633 16.3018 12.0616 16.2968 12.0596 16.292C12.0484 16.2656 12.0412 16.238 12.0332 16.2109C12.0266 16.1886 12.0201 16.1664 12.0156 16.1436C12.0111 16.1205 12.0091 16.0974 12.0068 16.0742C12.0043 16.0495 12.001 16.0249 12.001 16C12.001 15.9747 12.0043 15.9498 12.0068 15.9248C12.0092 15.9016 12.0111 15.8785 12.0156 15.8555C12.0201 15.8326 12.0266 15.8104 12.0332 15.7881C12.0412 15.761 12.0483 15.7334 12.0596 15.707C12.0616 15.7022 12.0633 15.6972 12.0654 15.6924C12.08 15.66 12.0976 15.6285 12.1172 15.5977C12.1203 15.5927 12.1237 15.5879 12.127 15.583C12.1316 15.576 12.1367 15.5693 12.1416 15.5625C12.1631 15.5326 12.186 15.5043 12.2109 15.4785L12.2285 15.4609C12.2543 15.436 12.2826 15.4131 12.3125 15.3916C12.3193 15.3867 12.326 15.3816 12.333 15.377C12.3379 15.3737 12.3427 15.3703 12.3477 15.3672C12.7539 15.1086 12.9999 14.6603 13 14.1787V12.75C13 11.2312 14.2312 10 15.75 10H16Z" fill="oklch(0.3523 0 0 / 1)" class="wd-icon-fill"></path>
<path d="M19.25 10C20.7688 10 22 11.2312 22 12.75V14.1787C22.0001 14.6603 22.2461 15.1086 22.6523 15.3672C22.6571 15.3702 22.6614 15.3739 22.666 15.377C22.673 15.3816 22.6797 15.3867 22.6865 15.3916C22.72 15.4156 22.751 15.4415 22.7793 15.4697C22.8076 15.498 22.8334 15.5291 22.8574 15.5625C22.8623 15.5693 22.8674 15.576 22.8721 15.583C22.8754 15.588 22.8796 15.5925 22.8828 15.5977C22.9023 15.6284 22.919 15.6601 22.9336 15.6924C22.9357 15.6972 22.9374 15.7022 22.9395 15.707C22.9507 15.7335 22.9578 15.761 22.9658 15.7881C22.9724 15.8104 22.9789 15.8326 22.9834 15.8555C22.9879 15.8785 22.9899 15.9016 22.9922 15.9248C22.9947 15.9499 22.998 15.9747 22.998 16C22.998 16.025 22.9947 16.0495 22.9922 16.0742C22.9899 16.0974 22.9879 16.1205 22.9834 16.1436C22.9789 16.1664 22.9724 16.1886 22.9658 16.2109C22.9578 16.2381 22.9507 16.2655 22.9395 16.292C22.9374 16.2968 22.9357 16.3018 22.9336 16.3066C22.919 16.3392 22.9025 16.3714 22.8828 16.4023C22.88 16.4067 22.8769 16.4108 22.874 16.415C22.869 16.4226 22.8627 16.4292 22.8574 16.4365C22.8334 16.47 22.8076 16.501 22.7793 16.5293C22.751 16.5576 22.72 16.5834 22.6865 16.6074C22.6797 16.6123 22.673 16.6174 22.666 16.6221C22.6612 16.6253 22.6572 16.6297 22.6523 16.6328C22.2461 16.8914 22.0001 17.3397 22 17.8213V19.25C22 20.7688 20.7688 22 19.25 22H19C18.5858 22 18.25 21.6642 18.25 21.25C18.25 20.8358 18.5858 20.5 19 20.5H19.25C19.9404 20.5 20.5 19.9404 20.5 19.25V17.8213C20.5001 17.1495 20.7324 16.5094 21.1416 16C20.7324 15.4906 20.5001 14.8505 20.5 14.1787V12.75C20.5 12.0596 19.9404 11.5 19.25 11.5H19C18.5858 11.5 18.25 11.1642 18.25 10.75C18.25 10.3358 18.5858 10 19 10H19.25Z" fill="oklch(0.3523 0 0 / 1)" class="wd-icon-fill"></path>
<path d="M5.4082 2.99805C5.82242 2.99805 6.1582 3.33481 6.1582 3.74902C6.15794 4.16301 5.82225 4.49902 5.4082 4.49902C4.98794 4.49909 4.76566 4.60686 4.6377 4.72754L4.62793 4.7373L4.62695 4.73633C4.48095 4.86942 4.32251 5.1302 4.22363 5.62109L4.2207 5.63281L4.13965 6H4.80664C5.22077 6.0001 5.55664 6.33585 5.55664 6.75C5.55664 7.16415 5.22077 7.4999 4.80664 7.5H3.82227L2.58398 13.4033C2.4986 13.8084 2.10049 14.0685 1.69531 13.9834C1.29022 13.8982 1.03045 13.4999 1.11523 13.0947L2.29004 7.5H1.68066C1.26648 7.49997 0.930664 7.16419 0.930664 6.75C0.930664 6.33581 1.26648 6.00003 1.68066 6H2.60449L2.6084 5.9834L2.61035 5.97754L2.75586 5.3125C2.89213 4.64462 3.1555 4.04798 3.61816 3.62695C4.1009 3.17697 4.73159 2.99811 5.4082 2.99805Z" fill="oklch(0.3523 0 0 / 1)" class="wd-icon-fill"></path>
<path d="M7.01562 6.07324C7.38946 5.89522 7.83644 6.05395 8.01465 6.42773L9.09375 8.69336L11.1143 6.26953C11.3795 5.9515 11.8528 5.90871 12.1709 6.17383C12.4889 6.439 12.5316 6.91233 12.2666 7.23047L9.85742 10.1211L9.92969 10.2549L9.95117 10.2979L11.166 12.9365C11.3391 13.3127 11.1749 13.7584 10.7988 13.9316C10.4226 14.1048 9.97695 13.9397 9.80371 13.5635L8.66211 11.0869L6.46875 13.7295C6.20418 14.0479 5.73074 14.0915 5.41211 13.8271C5.09361 13.5625 5.04995 13.0891 5.31445 12.7705L7.90039 9.6543L7.8291 9.52148C7.82324 9.51061 7.81782 9.49943 7.8125 9.48828L6.66113 7.07227C6.48316 6.69846 6.6419 6.25146 7.01562 6.07324Z" fill="oklch(0.3523 0 0 / 1)" class="wd-icon-fill"></path>
</g>
</svg>