<svg width="24" height="24" viewBox="0 0 24 24" xmlns="http://www.w3.org/2000/svg" class="wd-icon wd-icon-table-axis" role="presentation">
<g>
<path d="M15.2002 6C16.0237 6 16.7016 5.99898 17.252 6.04395C17.814 6.08987 18.3311 6.18827 18.8164 6.43555C19.5689 6.81902 20.181 7.43109 20.5645 8.18359C20.8117 8.6689 20.9101 9.18599 20.9561 9.74805C21.001 10.2984 21 10.9763 21 11.7998V15.2002C21 16.0237 21.001 16.7016 20.9561 17.252C20.9101 17.814 20.8117 18.3311 20.5645 18.8164C20.181 19.5689 19.5689 20.181 18.8164 20.5645C18.3311 20.8117 17.814 20.9101 17.252 20.9561C16.7016 21.001 16.0237 21 15.2002 21H11.7998C10.9763 21 10.2984 21.001 9.74805 20.9561C9.18599 20.9101 8.6689 20.8117 8.18359 20.5645C7.43109 20.181 6.81902 19.5689 6.43555 18.8164C6.18827 18.3311 6.08987 17.814 6.04395 17.252C5.99898 16.7016 6 16.0237 6 15.2002V11.7998C6 10.9763 5.99898 10.2984 6.04395 9.74805C6.08987 9.18599 6.18827 8.6689 6.43555 8.18359C6.81902 7.43109 7.43109 6.81902 8.18359 6.43555C8.6689 6.18827 9.18599 6.08987 9.74805 6.04395C10.2984 5.99898 10.9763 6 11.7998 6H15.2002ZM8 15.2002C8 16.0566 8.00035 16.6388 8.03711 17.0889C8.07293 17.5273 8.13808 17.7518 8.21777 17.9082C8.40951 18.2845 8.71554 18.5905 9.0918 18.7822C9.2482 18.8619 9.47272 18.9271 9.91113 18.9629C10.3612 18.9997 10.9434 19 11.7998 19H12.75V14.25H8V15.2002ZM14.25 19H15.2002C16.0566 19 16.6388 18.9997 17.0889 18.9629C17.5273 18.9271 17.7518 18.8619 17.9082 18.7822C18.2845 18.5905 18.5905 18.2845 18.7822 17.9082C18.8619 17.7518 18.9271 17.5273 18.9629 17.0889C18.9997 16.6388 19 16.0566 19 15.2002V14.25H14.25V19ZM11.7998 8C10.9434 8 10.3612 8.00035 9.91113 8.03711C9.47272 8.07293 9.2482 8.13808 9.0918 8.21777C8.71554 8.40951 8.40951 8.71554 8.21777 9.0918C8.13808 9.2482 8.07293 9.47272 8.03711 9.91113C8.00035 10.3612 8 10.9434 8 11.7998V12.75H12.75V8H11.7998ZM14.25 12.75H19V11.7998C19 10.9434 18.9997 10.3612 18.9629 9.91113C18.9271 9.47272 18.8619 9.2482 18.7822 9.0918C18.5905 8.71554 18.2845 8.40951 17.9082 8.21777C17.7518 8.13808 17.5273 8.07293 17.0889 8.03711C16.6388 8.00035 16.0566 8 15.2002 8H14.25V12.75Z" fill="oklch(0.3523 0 0 / 1)" class="wd-icon-fill"></path>
<path d="M3.75 14.25C4.16421 14.25 4.5 14.5858 4.5 15V18C4.5 18.4142 4.16421 18.75 3.75 18.75C3.33579 18.75 3 18.4142 3 18V15C3 14.5858 3.33579 14.25 3.75 14.25Z" fill="oklch(0.3523 0 0 / 1)" class="wd-icon-fill"></path>
<path d="M3.75 8.25C4.16421 8.25 4.5 8.58579 4.5 9V12C4.5 12.4142 4.16421 12.75 3.75 12.75C3.33579 12.75 3 12.4142 3 12V9C3 8.58579 3.33579 8.25 3.75 8.25Z" fill="oklch(0.3523 0 0 / 1)" class="wd-icon-fill"></path>
<path d="M12 3C12.4142 3 12.75 3.33579 12.75 3.75C12.75 4.16421 12.4142 4.5 12 4.5H9C8.58579 4.5 8.25 4.16421 8.25 3.75C8.25 3.33579 8.58579 3 9 3H12Z" fill="oklch(0.3523 0 0 / 1)" class="wd-icon-fill"></path>
<path d="M18 3C18.4142 3 18.75 3.33579 18.75 3.75C18.75 4.16421 18.4142 4.5 18 4.5H15C14.5858 4.5 14.25 4.16421 14.25 3.75C14.25 3.33579 14.5858 3 15 3H18Z" fill="oklch(0.3523 0 0 / 1)" class="wd-icon-fill"></path>
</g>
</svg>