<svg width="24" height="24" viewBox="0 0 24 24" xmlns="http://www.w3.org/2000/svg" class="wd-icon wd-icon-line-chart" role="presentation">
<path d="M21 4C22.1046 4 23 4.89543 23 6C23 7.10457 22.1046 8 21 8C20.9391 8 20.8789 7.99557 20.8193 7.99023L16.6592 13.8838C16.8741 14.2027 17 14.5865 17 15C17 16.1046 16.1046 17 15 17C13.8954 17 13 16.1046 13 15C13 14.6837 13.0743 14.385 13.2051 14.1191L9.17773 10.0918L4.76953 17.0703C4.91585 17.3482 5 17.6641 5 18C5 19.1046 4.10457 20 3 20C1.89543 20 1 19.1046 1 18C1 16.8954 1.89543 16 3 16C3.02586 16 3.05152 16.0029 3.07715 16.0039L7.38672 9.17871C7.14464 8.84794 7 8.44129 7 8C7 6.89543 7.89543 6 9 6C10.1046 6 11 6.89543 11 8C11 8.31613 10.9246 8.6141 10.7939 8.87988L14.8662 12.9521L19.1846 6.83496C19.0674 6.58061 19 6.29841 19 6C19 4.89543 19.8954 4 21 4Z" fill="oklch(0.3523 0 0 / 1)" class="wd-icon-fill"></path>
</svg>