<svg width="24" height="24" viewBox="0 0 24 24" xmlns="http://www.w3.org/2000/svg" class="wd-icon wd-icon-microphone" role="presentation">
<path d="M12 4C13.1046 4 14 4.89543 14 6V11C14 12.1046 13.1046 13 12 13C10.8954 13 10 12.1046 10 11V6C10 4.89543 10.8954 4 12 4Z" fill="transparent" class="wd-icon-background"></path>
<g>
<path d="M18.5 10C19.0523 10 19.5 10.4477 19.5 11C19.5 12.9891 18.7102 14.8972 17.3037 16.3037C16.1351 17.4723 14.6199 18.2128 13 18.4307V20H15C15.5523 20 16 20.4477 16 21C16 21.5523 15.5523 22 15 22H9C8.44772 22 8 21.5523 8 21C8 20.4477 8.44772 20 9 20H11V18.4307C9.38009 18.2128 7.86491 17.4723 6.69629 16.3037C5.28977 14.8972 4.5 12.9891 4.5 11C4.5 10.4477 4.94772 10 5.5 10C6.05228 10 6.5 10.4477 6.5 11C6.5 12.4587 7.07988 13.8572 8.11133 14.8887C9.14278 15.9201 10.5413 16.5 12 16.5C13.4587 16.5 14.8572 15.9201 15.8887 14.8887C16.9201 13.8572 17.5 12.4587 17.5 11C17.5 10.4477 17.9477 10 18.5 10Z" fill="oklch(0.3523 0 0 / 1)" class="wd-icon-fill"></path>
<path d="M12 2C14.2091 2 16 3.79086 16 6V11C16 13.2091 14.2091 15 12 15C9.79086 15 8 13.2091 8 11V6C8 3.79086 9.79086 2 12 2ZM12 4C10.8954 4 10 4.89543 10 6V11C10 12.1046 10.8954 13 12 13C13.1046 13 14 12.1046 14 11V6C14 4.89543 13.1046 4 12 4Z" fill="oklch(0.3523 0 0 / 1)" class="wd-icon-fill"></path>
</g>
</svg>