<svg width="24" height="24" viewBox="0 0 24 24" xmlns="http://www.w3.org/2000/svg" class="wd-icon wd-icon-visible-strikethrough" role="presentation">
<g>
<path d="M15.8242 17.2412C15.2378 17.4842 14.6238 17.6744 13.9873 17.8027C13.9091 17.2788 13.4342 16.9032 12.9014 16.9561C12.6054 16.9854 12.3043 17.001 12 17.001C8.76023 17.0007 5.92068 15.2874 4.33496 12.7139C4.14545 12.4063 4.12749 12.3699 4.09375 12.2197C4.09559 12.2279 4.09182 12.2101 4.08789 12.1611C4.08428 12.1158 4.08204 12.0593 4.08203 12C4.08204 11.9409 4.0843 11.8851 4.08789 11.8398C4.09048 11.8074 4.09283 11.788 4.09375 11.7812C4.12755 11.6308 4.14546 11.5947 4.33496 11.2871C4.48039 11.0511 4.63673 10.8216 4.80273 10.6006C5.12421 10.1725 5.04882 9.571 4.6416 9.23242C5.14931 8.6803 5.71841 8.18559 6.33789 7.75879L15.8242 17.2412Z" fill="transparent" class="wd-icon-background"></path>
<path d="M12 7C15.2401 7 18.0802 8.7132 19.666 11.2871C19.8555 11.5946 19.8724 11.6317 19.9062 11.7822C19.9073 11.7896 19.9096 11.8089 19.9121 11.8398C19.9157 11.8852 19.918 11.9417 19.918 12.001C19.9179 12.0603 19.9157 12.1168 19.9121 12.1621C19.9096 12.1938 19.9072 12.2131 19.9062 12.2197C19.8726 12.3696 19.8554 12.4074 19.666 12.7148C18.9724 13.8404 18.0368 14.7981 16.9346 15.5225L15.2607 13.8496C15.5711 13.3039 15.7499 12.6736 15.75 12.001C15.75 9.92991 14.0711 8.25098 12 8.25098C11.3264 8.25098 10.6947 8.42922 10.1484 8.74023L8.94238 7.53418C9.89699 7.18904 10.9264 7.00004 12 7Z" fill="transparent" class="wd-icon-background"></path>
</g>
<g>
<path d="M3.28418 3.29181C3.67464 2.90142 4.30771 2.90144 4.69824 3.29181L7.40918 6.00079C8.80621 5.35804 10.3618 4.99981 12.001 4.99981C15.964 5.00006 19.4348 7.09782 21.3691 10.2371C21.5683 10.5604 21.7458 10.8414 21.8584 11.3426C21.9063 11.5562 21.9189 11.8078 21.9189 11.9998C21.9189 12.1919 21.9063 12.4434 21.8584 12.657C21.7458 13.1584 21.5684 13.4391 21.3691 13.7625C20.595 15.0189 19.5736 16.1071 18.374 16.9617L20.7012 19.2879C21.0916 19.6782 21.0922 20.3113 20.7021 20.702C20.3118 21.0925 19.6787 21.093 19.2881 20.7029L3.28418 4.70587C2.89372 4.31542 2.89379 3.68237 3.28418 3.29181ZM12.001 6.99981C10.927 6.99981 9.89659 7.18793 8.94141 7.53302L10.1475 8.73907C10.6941 8.42798 11.3262 8.24981 12 8.24981C14.0711 8.24981 15.75 9.92972 15.75 12.0008C15.7499 12.6734 15.5711 13.3037 15.2607 13.8494L16.9346 15.5223C18.0373 14.7979 18.9733 13.8396 19.667 12.7137C19.8564 12.4062 19.8735 12.3689 19.9072 12.2186C19.9082 12.2115 19.9106 12.1923 19.9131 12.1609C19.9167 12.1156 19.9189 12.0591 19.9189 11.9998C19.9189 11.9405 19.9167 11.884 19.9131 11.8387C19.9106 11.8075 19.9082 11.7881 19.9072 11.7811C19.8735 11.6309 19.8563 11.5932 19.667 11.2859C18.0813 8.71236 15.2408 7.00005 12.001 6.99981Z" fill="oklch(0.3523 0 0 / 1)" class="wd-icon-fill"></path>
<path d="M3.20312 9.39825C3.53488 8.95707 4.16207 8.86752 4.60352 9.19903C5.04489 9.53058 5.1339 10.1579 4.80273 10.5994C4.63676 10.8204 4.48038 11.0499 4.33496 11.2859C4.14546 11.5935 4.12749 11.6299 4.09375 11.7801C4.09296 11.7859 4.09061 11.8049 4.08789 11.8387C4.08429 11.8839 4.08205 11.9397 4.08203 11.9988C4.08203 12.0582 4.08429 12.1146 4.08789 12.16C4.0905 12.1926 4.09284 12.2119 4.09375 12.2186C4.12755 12.3691 4.14533 12.4049 4.33496 12.7127C5.92064 15.2865 8.76008 16.9996 12 16.9998C12.3042 16.9998 12.6055 16.9843 12.9014 16.9549C13.4506 16.9007 13.9404 17.3022 13.9951 17.8514C14.0495 18.4007 13.6479 18.8904 13.0986 18.9451C12.7373 18.981 12.3702 18.9998 12 18.9998C8.03693 18.9996 4.56612 16.9019 2.63184 13.7625C2.4325 13.439 2.25523 13.1578 2.14258 12.6561C2.09469 12.4423 2.08203 12.1909 2.08203 11.9988C2.08207 11.8068 2.09471 11.5561 2.14258 11.3426C2.25526 10.8411 2.43253 10.5596 2.63184 10.2361C2.80948 9.94785 3.00051 9.66803 3.20312 9.39825Z" fill="oklch(0.3523 0 0 / 1)" class="wd-icon-fill"></path>
</g>
</svg>