<svg width="24" height="24" viewBox="0 0 24 24" xmlns="http://www.w3.org/2000/svg" class="wd-icon wd-icon-calendar-day-12" role="presentation">
<g>
<path d="M9.08692 10.5049C9.52536 10.5049 9.88076 10.8604 9.88086 11.2988V16.668C9.88081 17.0694 9.55566 17.3944 9.1543 17.3945C8.75303 17.3943 8.42681 17.0693 8.42676 16.668V12.3936L8.25 12.5254C7.83564 12.8319 7.24805 12.536 7.24805 12.0205C7.24823 11.8259 7.33896 11.6422 7.49317 11.5234L8.60254 10.6699C8.74118 10.5633 8.91202 10.505 9.08692 10.5049Z" fill="oklch(0.3523 0 0 / 1)" class="wd-icon-fill"></path>
<path d="M14.0801 10.3721C14.5419 10.3721 14.9523 10.4619 15.3018 10.6523C15.6519 10.8342 15.9236 11.0888 16.1055 11.416L16.1709 11.5381C16.3121 11.8267 16.3818 12.1405 16.3818 12.4756C16.3818 12.8363 16.3051 13.1845 16.1523 13.5166C16.0043 13.8384 15.8089 14.1427 15.5674 14.4287L15.5664 14.4277C15.337 14.7005 15.0487 15.0006 14.7031 15.3281L14.4522 15.5723L14.4502 15.5732L13.8789 16.1143H15.8174C16.169 16.1144 16.4541 16.3993 16.4541 16.751C16.4541 17.1027 16.169 17.3875 15.8174 17.3877H12.4668C12.047 17.3877 11.7062 17.0477 11.7061 16.6279C11.7061 16.4199 11.7918 16.2207 11.9424 16.0772L13.5029 14.5898L13.5039 14.5889L13.8184 14.292C14.057 14.0471 14.256 13.825 14.416 13.625L14.4189 13.6211C14.5813 13.4251 14.707 13.2296 14.7988 13.0352C14.8865 12.8435 14.9277 12.6573 14.9277 12.4756C14.9276 12.1941 14.8448 12.0016 14.7012 11.8662L14.6982 11.8633C14.5466 11.7161 14.3502 11.6367 14.0889 11.6367C13.8877 11.6368 13.7237 11.6822 13.5879 11.7637C13.4463 11.8486 13.3358 11.9628 13.2549 12.1104C13.2297 12.1563 13.2079 12.2038 13.1895 12.2529C13.0799 12.5446 12.8095 12.8613 12.4082 12.8613C12.0181 12.8611 11.6154 12.5173 11.7432 12.0537C11.7975 11.8568 11.8781 11.6693 11.9844 11.4922L11.9854 11.4912C12.1947 11.1469 12.4823 10.8741 12.8428 10.6738C13.2086 10.4706 13.6234 10.3721 14.0801 10.3721Z" fill="oklch(0.3523 0 0 / 1)" class="wd-icon-fill"></path>
<path d="M16.2012 2C17.0247 2 17.7026 1.99898 18.2529 2.04395C18.815 2.08988 19.3321 2.18828 19.8174 2.43555C20.5699 2.81902 21.182 3.43109 21.5654 4.1836C21.8127 4.6689 21.9111 5.18599 21.957 5.74805C22.002 6.29843 22.001 6.97632 22.001 7.79981V16.2002C22.001 17.0237 22.002 17.7016 21.957 18.252C21.9111 18.814 21.8127 19.3311 21.5654 19.8164C21.182 20.5689 20.5699 21.181 19.8174 21.5645C19.3321 21.8117 18.815 21.9101 18.2529 21.9561C17.7026 22.001 17.0247 22 16.2012 22H7.80078C6.9773 22 6.2994 22.001 5.74903 21.9561C5.18697 21.9101 4.66988 21.8117 4.18457 21.5645C3.43207 21.181 2.81999 20.5689 2.43653 19.8164C2.18925 19.3311 2.09085 18.814 2.04492 18.252C1.99996 17.7016 2.00098 17.0237 2.00098 16.2002V7.79981C2.00098 6.97632 1.99996 6.29843 2.04492 5.74805C2.09085 5.18599 2.18925 4.6689 2.43653 4.1836C2.81999 3.43109 3.43207 2.81902 4.18457 2.43555C4.66988 2.18827 5.18697 2.08988 5.74903 2.04395C6.2994 1.99898 6.9773 2 7.80078 2H16.2012ZM4.00098 16.2002C4.00098 17.0566 4.00133 17.6388 4.03809 18.0889C4.07391 18.5273 4.13906 18.7518 4.21875 18.9082C4.41049 19.2845 4.71652 19.5905 5.09278 19.7822C5.24917 19.8619 5.4737 19.9271 5.91211 19.9629C6.36215 19.9997 6.9444 20 7.80078 20H16.2012C17.0576 20 17.6398 19.9997 18.0898 19.9629C18.5283 19.9271 18.7528 19.8619 18.9092 19.7822C19.2854 19.5905 19.5915 19.2845 19.7832 18.9082C19.8629 18.7518 19.928 18.5273 19.9639 18.0889C20.0006 17.6388 20.001 17.0566 20.001 16.2002V8H4.00098V16.2002Z" fill="oklch(0.3523 0 0 / 1)" class="wd-icon-fill"></path>
</g>
</svg>