<svg width="24" height="24" viewBox="0 0 24 24" xmlns="http://www.w3.org/2000/svg" class="wd-icon wd-icon-hierarchy-chevron" role="presentation">
<path d="M17 10C18.1046 10 19 10.8954 19 12C19 13.1046 18.1046 14 17 14C15.8954 14 15 13.1046 15 12C15 10.8954 15.8954 10 17 10Z" fill="transparent" class="wd-icon-background"></path>
<g>
<path d="M4.29287 8.29297C4.68338 7.90246 5.31641 7.9025 5.70694 8.29297L8.70694 11.293C9.09723 11.6835 9.09738 12.3166 8.70694 12.707L5.70694 15.707C5.31649 16.0974 4.68341 16.0973 4.29287 15.707C3.90236 15.3165 3.90239 14.6835 4.29287 14.293L6.58584 12L4.29287 9.70703C3.90243 9.31653 3.90246 8.68348 4.29287 8.29297Z" fill="oklch(0.3523 0 0 / 1)" class="wd-icon-fill"></path>
<path d="M16.9999 8C19.209 8 20.9999 9.79086 20.9999 12C20.9997 14.209 19.2089 16 16.9999 16C14.7909 16 13.0001 14.209 12.9999 12C12.9999 9.79089 14.7908 8.00005 16.9999 8ZM16.9999 10C15.8954 10 14.9999 10.8955 14.9999 12C15.0001 13.1044 15.8955 14 16.9999 14C18.1044 14 18.9997 13.1044 18.9999 12C18.9999 10.8954 18.1045 10 16.9999 10Z" fill="oklch(0.3523 0 0 / 1)" class="wd-icon-fill"></path>
</g>
</svg>