<svg width="24" height="24" viewBox="0 0 24 24" xmlns="http://www.w3.org/2000/svg" class="wd-icon wd-icon-comment-dashed" role="presentation">
<g>
<path d="M4.56641 15.6084C4.95674 15.2179 5.58983 15.2172 5.98047 15.6074C6.30163 15.9283 6.65645 16.2247 7.04102 16.4912C7.31064 16.678 7.47167 16.9855 7.47168 17.3135C7.47168 17.5589 7.4651 17.8222 7.4502 18.0938C7.44853 18.1238 7.44466 18.1534 7.44043 18.1826C7.41007 18.6762 7.35729 19.2072 7.27051 19.7227C7.6441 19.6873 8.06171 19.6276 8.49805 19.5303C9.2513 19.3622 10.0217 19.0937 10.708 18.6943C10.9509 18.553 11.1829 18.3969 11.3984 18.2227L11.5391 18.127C11.6866 18.0445 11.8536 18.0005 12.0244 18C12.4498 17.9989 12.8671 17.969 13.2734 17.9121C13.8204 17.8355 14.3257 18.2167 14.4023 18.7637C14.4788 19.3105 14.0976 19.816 13.5508 19.8926C13.1651 19.9466 12.7723 19.978 12.374 19.9912C12.1439 20.1592 11.9068 20.3117 11.665 20.4502C11.6383 20.4656 11.6118 20.4811 11.585 20.4961C11.5366 20.5231 11.4881 20.5493 11.4395 20.5752C11.4164 20.5875 11.3942 20.6013 11.3711 20.6133C11.3651 20.6164 11.3585 20.6181 11.3525 20.6211C10.546 21.0381 9.70585 21.3102 8.93359 21.4824C8.41815 21.5974 7.91995 21.6688 7.46484 21.7119C7.45117 21.7137 7.43769 21.7175 7.42383 21.7188C7.38055 21.7227 7.33745 21.7241 7.29492 21.7275C7.2505 21.7311 7.20656 21.7343 7.16309 21.7373C7.07792 21.7431 6.99459 21.7492 6.91309 21.7529C6.86214 21.7553 6.81198 21.7563 6.7627 21.7578C6.68511 21.7602 6.60955 21.7621 6.53613 21.7627C6.49062 21.7631 6.44602 21.762 6.40234 21.7617C6.34307 21.7613 6.28542 21.7623 6.22949 21.7607C6.12252 21.7579 6.02231 21.7536 5.92969 21.7471C5.62071 21.7253 5.33962 21.5616 5.16797 21.3037C4.99636 21.0458 4.95355 20.7231 5.05273 20.4297C5.10122 20.2862 5.14464 20.1237 5.18652 19.9463C5.33945 19.3005 5.42974 18.5114 5.45898 17.8066C5.14469 17.5619 4.84533 17.3012 4.56641 17.0225C4.17594 16.6321 4.17611 15.999 4.56641 15.6084Z" fill="oklch(0.3523 0 0 / 1)" class="wd-icon-fill"></path>
<path d="M18.4111 15.1846C18.77 14.7649 19.4015 14.7155 19.8213 15.0742C20.241 15.433 20.2904 16.0646 19.9316 16.4844C19.2688 17.26 18.4713 17.932 17.5742 18.4746C17.1018 18.7604 16.4871 18.609 16.2012 18.1367C15.9154 17.6642 16.0666 17.0495 16.5391 16.7637C17.2601 16.3276 17.892 15.7921 18.4111 15.1846Z" fill="oklch(0.3523 0 0 / 1)" class="wd-icon-fill"></path>
<path d="M2.15332 9.42383C2.25964 8.88187 2.78519 8.52844 3.32715 8.63477C3.86885 8.74129 4.22152 9.26679 4.11523 9.80859C4.03939 10.1952 4 10.5932 4 11C4 11.4569 4.05028 11.9027 4.14551 12.334C4.26454 12.8731 3.92384 13.4071 3.38477 13.5264C2.8456 13.6454 2.31164 13.3047 2.19238 12.7656C2.06621 12.1942 2 11.6034 2 11C2 10.4629 2.05281 9.9362 2.15332 9.42383Z" fill="oklch(0.3523 0 0 / 1)" class="wd-icon-fill"></path>
<path d="M20.6729 8.63477C21.2148 8.52844 21.7404 8.88187 21.8467 9.42383C21.9472 9.9362 22 10.4629 22 11C22 11.536 21.9478 12.0618 21.8477 12.5732C21.7415 13.1152 21.2158 13.4684 20.6738 13.3623C20.1321 13.256 19.7787 12.7303 19.8848 12.1885C19.9603 11.8027 20 11.4058 20 11C20 10.5932 19.9606 10.1952 19.8848 9.80859C19.7785 9.26679 20.1311 8.74128 20.6729 8.63477Z" fill="oklch(0.3523 0 0 / 1)" class="wd-icon-fill"></path>
<path d="M6.44141 3.51562C6.9145 3.23067 7.52949 3.38335 7.81445 3.85645C8.0994 4.32954 7.94672 4.94454 7.47363 5.22949C6.75029 5.6652 6.11569 6.1996 5.59473 6.80762C5.23551 7.22685 4.60494 7.27591 4.18555 6.91699C3.76623 6.55771 3.71703 5.92623 4.07617 5.50684C4.7413 4.73056 5.5414 4.05773 6.44141 3.51562Z" fill="oklch(0.3523 0 0 / 1)" class="wd-icon-fill"></path>
<path d="M16.1855 3.85645C16.4705 3.38335 17.0855 3.23067 17.5586 3.51562C18.4586 4.05773 19.2587 4.73056 19.9238 5.50684C20.2829 5.92619 20.2347 6.55769 19.8154 6.91699C19.396 7.27633 18.7646 7.227 18.4053 6.80762C17.8843 6.1996 17.2497 5.6652 16.5264 5.22949C16.0533 4.94454 15.9006 4.32954 16.1855 3.85645Z" fill="oklch(0.3523 0 0 / 1)" class="wd-icon-fill"></path>
<path d="M12 2C12.5177 2 13.0269 2.03506 13.5244 2.10352C14.0714 2.17882 14.4539 2.68353 14.3789 3.23047C14.3036 3.77751 13.799 4.16009 13.252 4.08496C12.8447 4.02892 12.4264 4 12 4C11.5736 4 11.1553 4.02892 10.748 4.08496C10.201 4.16009 9.69637 3.77751 9.62109 3.23047C9.54607 2.68353 9.92864 2.17882 10.4756 2.10352C10.9731 2.03506 11.4823 2 12 2Z" fill="oklch(0.3523 0 0 / 1)" class="wd-icon-fill"></path>
</g>
</svg>