<svg width="24" height="24" viewBox="0 0 24 24" xmlns="http://www.w3.org/2000/svg" class="wd-icon wd-icon-split-down" role="presentation">
<path d="M12.0005 3C12.5526 3.00016 13.0005 3.44781 13.0005 4V9.17188C13.0006 9.43698 13.106 9.69144 13.2935 9.87891L19.0005 15.5859V14C19.0005 13.4477 19.4482 13 20.0005 13C20.5526 13.0002 21.0005 13.4478 21.0005 14V18C21.0005 18.5522 20.5526 18.9998 20.0005 19H16.0005C15.4482 19 15.0005 18.5523 15.0005 18C15.0005 17.4477 15.4482 17 16.0005 17H17.5864L12.0005 11.4141L6.41455 17H8.00049C8.55263 17.0002 9.00049 17.4478 9.00049 18C9.00049 18.5522 8.55263 18.9998 8.00049 19H4.00049C3.4482 19 3.00049 18.5523 3.00049 18V14C3.00049 13.4477 3.4482 13 4.00049 13C4.55263 13.0002 5.00049 13.4478 5.00049 14V15.5859L11.0278 9.55762C11.0113 9.43027 11.0005 9.30168 11.0005 9.17188V4C11.0005 3.44771 11.4482 3 12.0005 3Z" fill="oklch(0.3523 0 0 / 1)" class="wd-icon-fill"></path>
</svg>