<svg width="24" height="24" viewBox="0 0 24 24" xmlns="http://www.w3.org/2000/svg" class="wd-icon wd-icon-powerpoint" role="presentation">
<g>
<path d="M17.2002 3C18.0236 3 18.7016 2.99898 19.252 3.04395C19.8138 3.08987 20.3303 3.18846 20.8154 3.43555C21.5679 3.81896 22.18 4.43116 22.5635 5.1836C22.8107 5.66888 22.9091 6.18602 22.9551 6.74805C23 7.29843 23 7.97632 23 8.79981V15.2002C23 16.0237 23 16.7016 22.9551 17.252C22.9091 17.814 22.8107 18.3311 22.5635 18.8164C22.18 19.5688 21.5679 20.181 20.8154 20.5645C20.3303 20.8115 19.8138 20.9101 19.252 20.9561C18.7016 21.001 18.0236 21 17.2002 21H8.7998C7.9763 21 7.29844 21.001 6.74805 20.9561C6.18596 20.9101 5.66892 20.8117 5.18359 20.5645C4.74044 20.3387 4.34622 20.0333 4.01855 19.667C3.65045 19.2554 3.68531 18.6231 4.09668 18.2549C4.50823 17.8868 5.14056 17.9216 5.50879 18.333C5.67267 18.5162 5.87017 18.6693 6.0918 18.7822C6.24819 18.8619 6.47283 18.9271 6.91113 18.9629C7.36117 18.9996 7.94347 19 8.7998 19H17.2002C18.0565 19 18.6389 18.9997 19.0889 18.9629C19.5272 18.9271 19.7518 18.8619 19.9082 18.7822C20.2844 18.5905 20.5905 18.2844 20.7822 17.9082C20.8619 17.7518 20.9261 17.5273 20.9619 17.0889C20.9987 16.6388 21 16.0566 21 15.2002V8.79981C21 7.94338 20.9987 7.36118 20.9619 6.91113C20.9261 6.47273 20.8619 6.2482 20.7822 6.0918C20.5905 5.71557 20.2844 5.40953 19.9082 5.21778C19.7518 5.13809 19.5272 5.07293 19.0889 5.03711C18.6389 5.00034 18.0565 5 17.2002 5H8.7998C7.94347 5 7.36117 5.00037 6.91113 5.03711C6.47283 5.07292 6.24819 5.13811 6.0918 5.21778C5.87017 5.3307 5.67267 5.48377 5.50879 5.66699C5.14056 6.07836 4.50823 6.11322 4.09668 5.74512C3.68531 5.37689 3.65045 4.74456 4.01855 4.33301C4.34622 3.96675 4.74044 3.66135 5.18359 3.43555C5.66892 3.18827 6.18596 3.08987 6.74805 3.04395C7.29844 2.99899 7.9763 3 8.7998 3H17.2002Z" fill="oklch(0.3523 0 0 / 1)" class="wd-icon-fill"></path>
<path d="M5.83008 7C6.68872 7 7.55689 7.17708 8.34766 7.84668C9.1698 8.54297 9.5 9.48325 9.5 10.5C9.5 11.5168 9.1698 12.457 8.34766 13.1533C7.55689 13.8229 6.68872 14 5.83008 14H4V16C4 16.5523 3.55228 17 3 17C2.44772 17 2 16.5523 2 16V8C2 7.44772 2.44772 7 3 7H5.83008ZM4 12H5.83008C6.39074 12 6.73953 11.8938 7.05469 11.627C7.33832 11.3868 7.5 11.0578 7.5 10.5C7.5 9.94223 7.33832 9.61323 7.05469 9.37305C6.73953 9.1062 6.39074 9 5.83008 9H4V12Z" fill="oklch(0.3523 0 0 / 1)" class="wd-icon-fill"></path>
<path d="M14 13H17.9639C17.7212 14.6961 16.2632 16 14.5 16C12.567 16 11 14.433 11 12.5C11 10.7368 12.3039 9.27879 14 9.03613V13Z" fill="oklch(0.3523 0 0 / 1)" class="wd-icon-fill"></path>
<path d="M15 8C15.5252 8 16.0451 8.10376 16.5303 8.30469C17.0156 8.50571 17.4567 8.80044 17.8281 9.17188C18.1996 9.54331 18.4943 9.98443 18.6953 10.4697C18.8962 10.9549 19 11.4748 19 12H15V8Z" fill="oklch(0.3523 0 0 / 1)" class="wd-icon-fill"></path>
</g>
</svg>