<svg width="24" height="24" viewBox="0 0 24 24" xmlns="http://www.w3.org/2000/svg" class="wd-icon wd-icon-search-user" role="presentation">
<g>
<path d="M11 12C12.4564 12 13.7919 12.5189 14.8311 13.3818C14.9403 13.4726 14.9999 13.6089 15 13.751V14.5C15 14.7761 14.7761 15 14.5 15H7.5C7.22386 15 7 14.7761 7 14.5V13.751C7.00009 13.6089 7.05973 13.4726 7.16895 13.3818C8.20815 12.5189 9.54364 12 11 12Z" fill="oklch(0.3523 0 0 / 1)" class="wd-icon-fill"></path>
<path d="M11 7C12.1046 7 13 7.89543 13 9C13 10.1046 12.1046 11 11 11C9.89543 11 9 10.1046 9 9C9 7.89543 9.89543 7 11 7Z" fill="oklch(0.3523 0 0 / 1)" class="wd-icon-fill"></path>
<path d="M11 2C15.9706 2 20 6.02944 20 11C20 13.125 19.2619 15.0766 18.0303 16.6162L22.3535 20.9395C22.5487 21.1347 22.5487 21.4512 22.3535 21.6465L21.6465 22.3535C21.4512 22.5487 21.1347 22.5487 20.9395 22.3535L16.6162 18.0303C15.0766 19.2619 13.125 20 11 20C6.02944 20 2 15.9706 2 11C2 6.02944 6.02944 2 11 2ZM11 4C7.13401 4 4 7.13401 4 11C4 14.866 7.13401 18 11 18C14.866 18 18 14.866 18 11C18 7.13401 14.866 4 11 4Z" fill="oklch(0.3523 0 0 / 1)" class="wd-icon-fill"></path>
</g>
</svg>