<svg width="24" height="24" viewBox="0 0 24 24" xmlns="http://www.w3.org/2000/svg" class="wd-icon wd-icon-audio-min" role="presentation">
<g>
<path d="M10.9248 5.22796C11.5479 5.20464 12.1473 5.47339 12.544 5.95453C12.8626 6.3414 12.9364 6.81849 12.9678 7.16644C13.0013 7.53896 13 8.01721 13 8.56195V15.4369C13 15.9817 13.0013 16.4599 12.9678 16.8325C12.9365 17.1804 12.8625 17.6574 12.544 18.0444C12.1473 18.5257 11.548 18.7943 10.9248 18.7709C10.4236 18.752 10.0182 18.4905 9.73732 18.2827C9.43651 18.0601 9.08019 17.7414 8.67287 17.3793L7.29005 16.1508C7.20023 16.071 7.15483 16.0309 7.12111 16.0034L7.11915 16.0014H7.11622C7.07268 15.9996 7.01217 15.9994 6.89162 15.9994H5.59962C5.33624 15.9994 5.07815 16.0006 4.86134 15.9828C4.63285 15.9641 4.36305 15.9199 4.09181 15.7817C3.71564 15.5899 3.40949 15.2838 3.21779 14.9077C3.07971 14.6365 3.0353 14.3665 3.01662 14.1381C2.99894 13.9214 3.00001 13.6631 3.00001 13.3998V10.5991C3.00001 10.3358 2.99891 10.0775 3.01662 9.86078C3.03533 9.63236 3.07966 9.36234 3.21779 9.09125C3.40953 8.71514 3.71567 8.4089 4.09181 8.21722C4.36302 8.07907 4.63288 8.03474 4.86134 8.01605C5.07815 7.99834 5.33625 7.99945 5.59962 7.99945H6.89162C7.0122 7.99945 7.07267 7.99935 7.11622 7.9975L7.11915 7.99652L7.12111 7.99554C7.15484 7.96802 7.20026 7.92789 7.29005 7.84808L8.67287 6.61957C9.0802 6.25749 9.43651 5.93877 9.73732 5.71625C10.0182 5.50847 10.4237 5.24685 10.9248 5.22796ZM10.9268 7.32464C10.7157 7.4808 10.4379 7.72533 10.001 8.11371L8.61915 9.3432C8.48357 9.46373 8.3069 9.62765 8.09376 9.74652C7.96678 9.81731 7.83238 9.87385 7.69337 9.91546L7.55275 9.95257L7.37404 9.98187C7.19724 10.0026 7.02773 9.99945 6.89162 9.99945H5.59962C5.30337 9.99945 5.14096 10.0007 5.02443 10.0102C5.02034 10.0105 5.01642 10.0108 5.01271 10.0112C5.01235 10.0151 5.01116 10.0195 5.01076 10.0239C5.00124 10.1403 5.00002 10.303 5.00001 10.5991V13.3998C5.00001 13.6958 5.00127 13.8585 5.01076 13.975C5.01108 13.979 5.01232 13.9831 5.01271 13.9868C5.01644 13.9871 5.02031 13.9884 5.02443 13.9887C5.14096 13.9982 5.30335 13.9994 5.59962 13.9994H6.89162C7.07308 13.9994 7.31434 13.9935 7.55275 14.0463C7.74204 14.0883 7.9244 14.158 8.09376 14.2524C8.30686 14.3712 8.48356 14.5352 8.61915 14.6557L10.001 15.8852C10.4379 16.2735 10.7157 16.5181 10.9268 16.6743C10.9409 16.6847 10.9564 16.6919 10.9688 16.7006C10.9704 16.6859 10.9741 16.6698 10.9756 16.6528C10.9991 16.3913 11 16.0213 11 15.4369V8.56195C11 7.97756 10.9991 7.60754 10.9756 7.34613C10.974 7.32869 10.9704 7.31226 10.9688 7.2973C10.9563 7.30613 10.9411 7.31407 10.9268 7.32464Z" fill="oklch(0.3523 0 0 / 1)" class="wd-icon-fill"></path>
<path d="M15.8067 8.30804C16.1418 8.06457 16.611 8.13895 16.8545 8.47406C17.599 9.49902 18 10.7336 18 12.0004L17.9951 12.2368C17.9484 13.4202 17.5526 14.5657 16.8545 15.5268C16.611 15.8617 16.1417 15.9361 15.8067 15.6928C15.4717 15.4495 15.3976 14.981 15.6406 14.6459C16.1294 13.9732 16.4212 13.1795 16.4863 12.3549L16.5 12.0004C16.5 11.0502 16.1991 10.1237 15.6406 9.35492C15.3975 9.01989 15.4718 8.55148 15.8067 8.30804Z" fill="oklch(0.3523 0 0 / 1)" class="wd-icon-fill"></path>
</g>
</svg>