<svg width="24" height="24" viewBox="0 0 24 24" xmlns="http://www.w3.org/2000/svg" class="wd-icon wd-icon-trash" role="presentation">
<path d="M6.11846 20.5383L5.04154 6.53835C5.0192 6.24795 5.24881 6 5.54007 6H18.4602C18.7514 6 18.9811 6.24795 18.9587 6.53835L17.8818 20.5383C17.8618 20.7988 17.6445 21 17.3833 21H6.61699C6.35572 21 6.1385 20.7988 6.11846 20.5383Z" fill="transparent" class="wd-icon-background"></path>
<path d="M12 1C13.6982 1 15.2577 1.6058 16.4697 2.6123C16.823 2.90567 16.9999 3.33176 17 3.75098V5H20.5C20.7761 5 21 5.22386 21 5.5V6.5C21 6.77614 20.7761 7 20.5 7H19.9258L18.8789 20.6152C18.8187 21.3966 18.1666 22 17.3828 22H6.61719C5.83344 22 5.18129 21.3966 5.12109 20.6152L4.07422 7H3.5C3.22386 7 3 6.77614 3 6.5V5.5C3 5.22386 3.22386 5 3.5 5H7V3.75098C7.00009 3.33176 7.177 2.90567 7.53027 2.6123L7.76172 2.42871C8.93796 1.53276 10.4079 1 12 1ZM7.08008 20H16.9199L17.9199 7H6.08008L7.08008 20ZM12 3C10.8733 3 9.83585 3.37186 9 4V5H15V4C14.1641 3.37186 13.1267 3 12 3Z" fill="oklch(0.3523 0 0 / 1)" class="wd-icon-fill"></path>
<g>
<path d="M11 16.5C11 16.7761 10.7761 17 10.5 17H9.5C9.22386 17 9 16.7761 9 16.5V10.5C9 10.2239 9.22386 10 9.5 10H10.5C10.7761 10 11 10.2239 11 10.5V16.5Z" fill="oklch(0.3523 0 0 / 1)" class="wd-icon-accent"></path>
<path d="M15 16.5C15 16.7761 14.7761 17 14.5 17H13.5C13.2239 17 13 16.7761 13 16.5V10.5C13 10.2239 13.2239 10 13.5 10H14.5C14.7761 10 15 10.2239 15 10.5V16.5Z" fill="oklch(0.3523 0 0 / 1)" class="wd-icon-accent"></path>
</g>
</svg>