<svg width="24" height="24" viewBox="0 0 24 24" xmlns="http://www.w3.org/2000/svg" class="wd-icon wd-icon-face-unhappy" role="presentation">
<path d="M12 4C16.4183 4 20 7.58172 20 12C20 16.4183 16.4183 20 12 20C7.58172 20 4 16.4183 4 12C4 7.58172 7.58172 4 12 4ZM12 13.083C10.8487 13.0769 9.71909 13.5155 8.87598 14.2031C8.78167 14.2791 8.6898 14.358 8.60156 14.4395C8.47741 14.5577 8.38888 14.7142 8.36426 14.8867C8.33962 15.0592 8.38002 15.2326 8.47852 15.3711C8.57701 15.5095 8.72745 15.6044 8.89844 15.6377C9.0694 15.671 9.24605 15.639 9.39844 15.5605C9.48486 15.5178 9.57162 15.4771 9.6582 15.4385C10.4391 15.0902 11.219 14.9164 12 14.917C12.781 14.9164 13.5609 15.0902 14.3418 15.4385C14.4284 15.4771 14.5151 15.5178 14.6016 15.5605C14.754 15.639 14.9306 15.671 15.1016 15.6377C15.2725 15.6044 15.423 15.5095 15.5215 15.3711C15.62 15.2326 15.6604 15.0592 15.6357 14.8867C15.6111 14.7142 15.5226 14.5577 15.3984 14.4395C15.3102 14.358 15.2183 14.2791 15.124 14.2031C14.2809 13.5155 13.1513 13.0769 12 13.083ZM9 8C8.44772 8 8 8.44772 8 9V11C8 11.5523 8.44772 12 9 12C9.55228 12 10 11.5523 10 11V9C10 8.44772 9.55228 8 9 8ZM15 8C14.4477 8 14 8.44772 14 9V11C14 11.5523 14.4477 12 15 12C15.5523 12 16 11.5523 16 11V9C16 8.44772 15.5523 8 15 8Z" fill="transparent" class="wd-icon-background"></path>
<path d="M12 2C17.5228 2 22 6.47715 22 12C22 17.5228 17.5228 22 12 22C6.47715 22 2 17.5228 2 12C2 6.47715 6.47715 2 12 2ZM12 4C7.58172 4 4 7.58172 4 12C4 16.4183 7.58172 20 12 20C16.4183 20 20 16.4183 20 12C20 7.58172 16.4183 4 12 4Z" fill="oklch(0.3523 0 0 / 1)" class="wd-icon-fill"></path>
<g>
<path d="M12 13.083C13.1513 13.0769 14.2809 13.5155 15.124 14.2031C15.2183 14.2791 15.3102 14.358 15.3984 14.4395C15.5226 14.5577 15.6111 14.7142 15.6357 14.8867C15.6604 15.0592 15.62 15.2326 15.5215 15.3711C15.423 15.5095 15.2725 15.6044 15.1016 15.6377C14.9306 15.671 14.754 15.639 14.6016 15.5605C14.5151 15.5178 14.4284 15.4771 14.3418 15.4385C13.5609 15.0902 12.781 14.9164 12 14.917C11.219 14.9164 10.4391 15.0902 9.6582 15.4385C9.57162 15.4771 9.48486 15.5178 9.39844 15.5605C9.24605 15.639 9.0694 15.671 8.89844 15.6377C8.72745 15.6044 8.57701 15.5095 8.47852 15.3711C8.38002 15.2326 8.33962 15.0592 8.36426 14.8867C8.38888 14.7142 8.47741 14.5577 8.60156 14.4395C8.6898 14.358 8.78167 14.2791 8.87598 14.2031C9.71909 13.5155 10.8487 13.0769 12 13.083Z" fill="oklch(0.3523 0 0 / 1)" class="wd-icon-accent"></path>
<path d="M9 8C9.55228 8 10 8.44772 10 9V11C10 11.5523 9.55228 12 9 12C8.44772 12 8 11.5523 8 11V9C8 8.44772 8.44772 8 9 8Z" fill="oklch(0.3523 0 0 / 1)" class="wd-icon-accent"></path>
<path d="M15 8C15.5523 8 16 8.44772 16 9V11C16 11.5523 15.5523 12 15 12C14.4477 12 14 11.5523 14 11V9C14 8.44772 14.4477 8 15 8Z" fill="oklch(0.3523 0 0 / 1)" class="wd-icon-accent"></path>
</g>
</svg>