<svg width="24" height="24" viewBox="0 0 24 24" xmlns="http://www.w3.org/2000/svg" class="wd-icon wd-icon-border-all" role="presentation">
<path d="M16.7998 3C17.3434 3 17.8116 2.99893 18.1953 3.03028C18.5906 3.06259 18.984 3.1344 19.3623 3.32715C19.9265 3.61473 20.3853 4.07348 20.6729 4.6377C20.8656 5.016 20.9374 5.40943 20.9697 5.80469C21.0011 6.18836 21 6.65665 21 7.2002V16.7998C21 17.3434 21.0011 17.8116 20.9697 18.1953C20.9374 18.5906 20.8656 18.984 20.6729 19.3623C20.3853 19.9265 19.9265 20.3853 19.3623 20.6729C18.984 20.8656 18.5906 20.9374 18.1953 20.9697C17.8116 21.0011 17.3434 21 16.7998 21H7.2002C6.65665 21 6.18836 21.0011 5.80469 20.9697C5.40943 20.9374 5.016 20.8656 4.6377 20.6729C4.07348 20.3853 3.61473 19.9265 3.32715 19.3623C3.1344 18.984 3.06259 18.5906 3.03028 18.1953C2.99893 17.8116 3 17.3434 3 16.7998V7.2002C3 6.65665 2.99893 6.18836 3.03028 5.80469C3.06259 5.40943 3.1344 5.016 3.32715 4.6377C3.61473 4.07348 4.07348 3.61473 4.6377 3.32715C5.016 3.1344 5.40943 3.06259 5.80469 3.03028C6.18836 2.99893 6.65665 3 7.2002 3H16.7998ZM5 12.9951V16.7998C5 17.3764 5.00127 17.7489 5.02442 18.0322C5.04662 18.3038 5.08419 18.4047 5.10938 18.4541C5.20522 18.6421 5.35793 18.7948 5.5459 18.8906C5.59534 18.9158 5.69619 18.9534 5.96778 18.9756C6.25112 18.9987 6.62365 19 7.2002 19H11V12.9951H5ZM13 12.9951V19H16.7998C17.3764 19 17.7489 18.9987 18.0322 18.9756C18.3038 18.9534 18.4047 18.9158 18.4541 18.8906C18.6421 18.7948 18.7948 18.6421 18.8906 18.4541C18.9158 18.4047 18.9534 18.3038 18.9756 18.0322C18.9987 17.7489 19 17.3764 19 16.7998V12.9951H13ZM7.2002 5C6.62365 5 6.25112 5.00127 5.96778 5.02442C5.69619 5.04662 5.59534 5.08419 5.5459 5.10938C5.35793 5.20522 5.20522 5.35793 5.10938 5.5459C5.08419 5.59534 5.04662 5.69619 5.02442 5.96778C5.00127 6.25112 5 6.62365 5 7.2002V10.9951H11V5H7.2002ZM13 10.9951H19V7.2002C19 6.62365 18.9987 6.25112 18.9756 5.96778C18.9534 5.69619 18.9158 5.59534 18.8906 5.5459C18.7948 5.35793 18.6421 5.20522 18.4541 5.10938C18.4047 5.08419 18.3038 5.04662 18.0322 5.02442C17.7489 5.00127 17.3764 5 16.7998 5H13V10.9951Z" fill="oklch(0.3523 0 0 / 1)" class="wd-icon-fill"></path>
</svg>