<svg width="24" height="24" viewBox="0 0 24 24" xmlns="http://www.w3.org/2000/svg" class="wd-icon wd-icon-numbers" role="presentation">
<g>
<path d="M18.9824 6.4375C21.19 6.4375 22.4275 7.44785 22.4277 8.85742C22.4277 9.90812 21.7486 10.8131 20.4053 10.9727V10.999C21.8417 11.1985 22.7197 12.1433 22.7197 13.46C22.7196 15.1223 21.3366 16.2529 18.9561 16.2529C16.7757 16.2529 15.3758 15.3602 15.1455 13.6162C15.1092 13.3413 15.338 13.1144 15.6152 13.1143H17.0137C17.2868 13.1144 17.4994 13.3372 17.5684 13.6016C17.7338 14.2363 18.2203 14.6034 18.9424 14.6035C19.8201 14.6035 20.3261 14.0715 20.3262 13.2471C20.3262 12.4225 19.8206 11.9571 18.8232 11.957H18.1396C17.8636 11.957 17.6398 11.733 17.6396 11.457V10.8076C17.6396 10.5315 17.8635 10.3076 18.1396 10.3076H18.6367C19.5277 10.3076 20.0331 9.90867 20.0332 9.16406C20.0332 8.44588 19.5678 8.08693 18.9561 8.08691C18.4712 8.08691 18.0742 8.29969 17.8975 8.69922C17.7873 8.94831 17.5809 9.17657 17.3086 9.17676H15.9082C15.6309 9.17651 15.4018 8.94926 15.4473 8.67578C15.6912 7.21628 16.9798 6.43755 18.9824 6.4375Z" fill="oklch(0.3523 0 0 / 1)" class="wd-icon-fill"></path>
<path d="M4.89062 6.69043C5.16663 6.6906 5.39062 6.91439 5.39062 7.19043V15.5C5.39062 15.776 5.16663 15.9998 4.89062 16H3.66895C3.39293 15.9999 3.16895 15.7761 3.16895 15.5V9.5625H3.14258C2.9165 10.1875 2.43781 10.4404 1.71973 10.4404H1.55469C1.27855 10.4404 1.05469 10.2166 1.05469 9.94043V9.18457C1.05492 8.90863 1.27869 8.68457 1.55469 8.68457H1.82617C2.78347 8.68449 3.18252 8.21953 3.18262 7.31543V7.19043C3.18262 6.91429 3.40647 6.69043 3.68262 6.69043H4.89062Z" fill="oklch(0.3523 0 0 / 1)" class="wd-icon-fill"></path>
<path d="M10.5684 6.50391C12.6565 6.50391 13.96 7.44841 13.96 9.27051C13.9599 10.8664 12.9624 11.638 11.167 12.5557L10.1826 13.0479C9.38489 13.4601 9.22559 13.7392 9.22559 14.2578H13.54C13.8161 14.2579 14.04 14.4817 14.04 14.7578V15.5C14.04 15.7761 13.8161 15.9999 13.54 16H7.47754C7.2014 16 6.97754 15.7761 6.97754 15.5V14.8164C6.97754 13.1007 7.60275 12.3295 9.53125 11.332L10.3154 10.9326C11.2065 10.4671 11.5527 10.0016 11.5527 9.25684C11.5527 8.49885 11.1934 8.15332 10.5684 8.15332C10.022 8.15338 9.63975 8.42077 9.51172 9.02539C9.45461 9.29549 9.24089 9.52333 8.96484 9.52344H7.58398C7.30784 9.52344 7.07929 9.29748 7.11328 9.02344C7.31885 7.36733 8.57855 6.50396 10.5684 6.50391Z" fill="oklch(0.3523 0 0 / 1)" class="wd-icon-fill"></path>
</g>
</svg>