<svg width="24" height="24" viewBox="0 0 24 24" xmlns="http://www.w3.org/2000/svg" class="wd-icon wd-icon-next" role="presentation">
<g>
<path d="M19 5C19.5523 5 20 5.44772 20 6V18C20 18.5523 19.5523 19 19 19C18.4477 19 18 18.5523 18 18V6C18 5.44772 18.4477 5 19 5Z" fill="oklch(0.3523 0 0 / 1)" class="wd-icon-fill"></path>
<path d="M5.89844 5.74609C6.22241 5.71307 6.61723 5.94305 7.40625 6.40332L14.6309 10.6182C15.4092 11.0722 15.7986 11.2991 15.9297 11.5947C16.044 11.8527 16.044 12.1473 15.9297 12.4053C15.7987 12.7009 15.4092 12.9278 14.6309 13.3818L7.40625 17.5967C6.61722 18.0569 6.22241 18.2869 5.89844 18.2539C5.61592 18.2251 5.35864 18.0772 5.19141 17.8477C4.99988 17.5844 5 17.1277 5 16.2148V7.78613C5 6.87293 4.99984 6.4156 5.19141 6.15234C5.35864 5.92282 5.61592 5.77493 5.89844 5.74609Z" fill="oklch(0.3523 0 0 / 1)" class="wd-icon-fill"></path>
</g>
</svg>