<svg width="24" height="24" viewBox="0 0 24 24" xmlns="http://www.w3.org/2000/svg" class="wd-icon wd-icon-document-sparkle" role="presentation">
<path d="M12.5 1C12.7761 1 13 1.22386 13 1.5V2.5C13 2.77614 12.7761 3 12.5 3H6V21H18V13.5C18 13.2239 18.2239 13 18.5 13H19.5C19.7761 13 20 13.2239 20 13.5V21.5C20 22.3284 19.3284 23 18.5 23H5.5C4.67157 23 4 22.3284 4 21.5V2.5C4 1.67157 4.67157 1 5.5 1H12.5Z" fill="oklch(0.3523 0 0 / 1)" class="wd-icon-fill"></path>
<g>
<path d="M15.5 14C15.7761 14 16 14.2239 16 14.5V15.5C16 15.7761 15.7761 16 15.5 16H8.5C8.22386 16 8 15.7761 8 15.5V14.5C8 14.2239 8.22386 14 8.5 14H15.5Z" fill="oklch(0.3523 0 0 / 1)" class="wd-icon-accent"></path>
<path d="M15.5 11C15.7761 11 16 11.2239 16 11.5V12.5C16 12.7761 15.7761 13 15.5 13H8.5C8.22386 13 8 12.7761 8 12.5V11.5C8 11.2239 8.22386 11 8.5 11H15.5Z" fill="oklch(0.3523 0 0 / 1)" class="wd-icon-accent"></path>
<path d="M13.5 8C13.7761 8 14 8.22386 14 8.5V9.5C14 9.77614 13.7761 10 13.5 10H8.5C8.22386 10 8 9.77614 8 9.5V8.5C8 8.22386 8.22386 8 8.5 8H13.5Z" fill="oklch(0.3523 0 0 / 1)" class="wd-icon-accent"></path>
<path d="M18.5 1C18.7761 1 18.9971 1.22499 19.0312 1.49902C19.2565 3.30913 20.6909 4.74346 22.501 4.96875C22.775 5.00285 23 5.22386 23 5.5C23 5.77614 22.775 5.99715 22.501 6.03125C20.6909 6.25654 19.2565 7.69087 19.0312 9.50098C18.9971 9.77501 18.7761 10 18.5 10C18.2239 10 18.0029 9.77501 17.9688 9.50098C17.7435 7.69087 16.3091 6.25654 14.499 6.03125C14.225 5.99715 14 5.77614 14 5.5C14 5.22386 14.225 5.00285 14.499 4.96875C16.3091 4.74346 17.7435 3.30913 17.9688 1.49902C18.0029 1.22499 18.2239 1 18.5 1Z" fill="oklch(0.3523 0 0 / 1)" class="wd-icon-accent"></path>
</g>
</svg>