<svg width="24" height="24" viewBox="0 0 24 24" xmlns="http://www.w3.org/2000/svg" class="wd-icon wd-icon-audio-min" role="presentation">
<g>
<path d="M11.5303 2.06236C12.4841 1.24421 14 1.91237 14 3.20689V20.7918C14 22.1283 12.3843 22.7973 11.4395 21.8524L6.58496 16.9989H4C3.98406 16.9989 3.96807 16.9987 3.95215 16.9979L3.74805 16.9881C3.73044 16.9873 3.71285 16.986 3.69531 16.9842C2.27559 16.8403 1.14901 15.7081 1.01367 14.287L1 13.9989V9.99888C1.00043 8.3427 2.34309 6.99888 4 6.99888H6.58594L11.4395 2.14634L11.5303 2.06236ZM7.70703 8.70591C7.5195 8.89341 7.26518 8.99888 7 8.99888H4C3.44822 8.99888 3.00029 9.44653 3 9.99888V13.9989L3.00488 14.0946C3.04943 14.5631 3.41736 14.9368 3.88184 14.9911L4.02734 14.9989H6.99902C7.26419 14.9989 7.51853 15.1044 7.70605 15.2918L12 19.5848V4.41294L7.70703 8.70591Z" fill="oklch(0.3523 0 0 / 1)" class="wd-icon-fill"></path>
<path d="M16.4629 6.66685C16.6686 6.48277 16.9854 6.49954 17.1572 6.71568C18.3098 8.16613 18.9999 10.0035 19 11.9999C19 13.9964 18.3099 15.8345 17.1572 17.285C16.9855 17.5009 16.6686 17.5177 16.4629 17.3338L15.7178 16.6668C15.5121 16.4827 15.4962 16.1673 15.6641 15.9481C16.5025 14.8534 17 13.4854 17 11.9999C16.9999 10.5143 16.5026 9.1463 15.6641 8.05161C15.4963 7.83241 15.5121 7.51797 15.7178 7.33384L16.4629 6.66685Z" fill="oklch(0.3523 0 0 / 1)" class="wd-icon-fill"></path>
</g>
</svg>