<svg width="24" height="24" viewBox="0 0 24 24" xmlns="http://www.w3.org/2000/svg" class="wd-icon wd-icon-font-emphasis" role="presentation">
<g>
<path d="M13.0765 17.001C14.1385 17.0012 15.0003 17.8619 15.0004 18.9238V19C15.0003 20.6567 13.656 22 11.9994 22H10.3832C9.99452 21.9999 9.75445 21.5754 9.95446 21.2422L10.6429 20.0947C10.8789 19.7016 11.0461 19.2709 11.1361 18.8213L11.1908 18.5469C11.3706 17.648 12.1598 17.0011 13.0765 17.001Z" fill="oklch(0.3523 0 0 / 1)" class="wd-icon-fill"></path>
<path d="M20.347 10.1113C20.7889 9.84096 21.3586 9.90817 21.725 10.2744C22.0911 10.641 22.1587 11.2115 21.8881 11.6533L18.8783 16.5664C18.333 17.4562 17.3633 17.9989 16.3197 17.999H15.848C15.5576 17.1292 14.8704 16.4423 14.0004 16.1523V15.6797C14.0004 14.6359 14.543 13.6674 15.433 13.1221L20.347 10.1113Z" fill="oklch(0.3523 0 0 / 1)" class="wd-icon-fill"></path>
<path d="M7.38805 2.00293C7.59595 2.00304 7.78238 2.13168 7.85583 2.32617L11.6263 12.3232C11.7496 12.6501 11.5078 12.9997 11.1586 13H9.61657C9.40219 13 9.21166 12.8632 9.14294 12.6602L8.47204 10.6748H4.4818L3.79626 12.6631C3.72665 12.8646 3.53684 13 3.3236 13H1.84216C1.49291 12.9997 1.25111 12.6501 1.37438 12.3232L5.14489 2.32617C5.21834 2.13168 5.40477 2.00304 5.61266 2.00293H7.38805ZM6.4613 4.50098C6.25707 5.30217 5.95805 6.32329 5.47106 7.76855L5.12536 8.77441H7.81188L7.43493 7.6582C6.97944 6.32312 6.68113 5.30209 6.47692 4.50098H6.4613Z" fill="oklch(0.3523 0 0 / 1)" class="wd-icon-fill"></path>
</g>
</svg>