<svg width="24" height="24" viewBox="0 0 24 24" xmlns="http://www.w3.org/2000/svg" class="wd-icon wd-icon-row-arrow-up" role="presentation">
<g>
<path d="M17.3672 11.2246C17.5975 11.0367 17.8915 10.9663 18.1689 11.0137C18.3351 11.0419 18.4959 11.1129 18.6338 11.2256L22.7461 14.5918C22.9594 14.7666 22.9908 15.0813 22.8164 15.2949L22.5 15.6816L22.1846 16.0684C22.0098 16.2822 21.6943 16.3135 21.4805 16.1387L19 14.1094V22.5C18.9998 22.7759 18.7759 22.9998 18.5 23H17.5C17.2241 22.9998 17.0002 22.7759 17 22.5V14.1094L14.5205 16.1387C14.3069 16.3133 13.9923 16.2818 13.8174 16.0684L13.1836 15.2939C13.0093 15.0803 13.0405 14.7656 13.2539 14.5908L17.3672 11.2246Z" fill="oklch(0.3523 0 0 / 1)" class="wd-icon-fill"></path>
<path d="M14.5 3C15.3284 3 16 3.67157 16 4.5V9.5C16 9.77614 15.7761 10 15.5 10H14.5C14.2239 10 14 9.77614 14 9.5V9H4V11H11.5C11.7761 11 12 11.2239 12 11.5V12.5C12 12.7761 11.7761 13 11.5 13H4V15H10.5C10.7761 15 11 15.2239 11 15.5V16.5C11 16.7761 10.7761 17 10.5 17H3.5C2.67157 17 2 16.3284 2 15.5V4.5C2 3.67157 2.67157 3 3.5 3H14.5ZM4 7H14V5H4V7Z" fill="oklch(0.3523 0 0 / 1)" class="wd-icon-fill"></path>
</g>
</svg>