<svg width="24" height="24" viewBox="0 0 24 24" xmlns="http://www.w3.org/2000/svg" class="wd-icon wd-icon-comment" role="presentation">
<path d="M12 4C16.5323 4 20 7.24148 20 11C20 14.7585 16.5323 18 12 18C11.8284 18 11.6609 18.0443 11.5127 18.127L11.3711 18.2227C10.5396 18.8952 9.49423 19.3034 8.4834 19.5303C8.0525 19.627 7.64008 19.6863 7.27051 19.7217C7.41145 18.8842 7.47168 18.0059 7.47168 17.3135C7.47167 16.9855 7.31064 16.678 7.04102 16.4912C5.16038 15.1881 4 13.1945 4 11C4 7.24148 7.46774 4 12 4ZM8 12C7.58579 12 7.25 12.3358 7.25 12.75C7.25 13.1642 7.58579 13.5 8 13.5H12C12.4142 13.5 12.75 13.1642 12.75 12.75C12.75 12.3358 12.4142 12 12 12H8ZM8 9C7.58579 9 7.25 9.33579 7.25 9.75C7.25 10.1642 7.58579 10.5 8 10.5H16C16.4142 10.5 16.75 10.1642 16.75 9.75C16.75 9.33579 16.4142 9 16 9H8Z" fill="transparent" class="wd-icon-background"></path>
<path d="M12 2C17.4089 2 22 5.92196 22 11C22 15.9688 17.6041 19.8274 12.3477 19.9912C11.2635 20.7833 10.024 21.235 8.92188 21.4824C7.723 21.7515 6.61962 21.7956 5.92969 21.7471C5.62071 21.7253 5.33962 21.5616 5.16797 21.3037C4.99636 21.0458 4.95355 20.7231 5.05273 20.4297C5.28915 19.7301 5.42265 18.7021 5.45996 17.8096C3.36367 16.1774 2 13.7479 2 11C2 5.92196 6.59113 2 12 2ZM12 4C7.46774 4 4 7.24148 4 11C4 13.1945 5.16038 15.1881 7.04102 16.4912C7.31064 16.678 7.47167 16.9855 7.47168 17.3135C7.47168 18.0059 7.41145 18.8842 7.27051 19.7217C7.64008 19.6863 8.0525 19.627 8.4834 19.5303C9.49423 19.3034 10.5396 18.8952 11.3711 18.2227L11.5127 18.127C11.6609 18.0443 11.8284 18 12 18C16.5323 18 20 14.7585 20 11C20 7.24148 16.5323 4 12 4Z" fill="oklch(0.3523 0 0 / 1)" class="wd-icon-fill"></path>
<g>
<path d="M12 12C12.4142 12 12.75 12.3358 12.75 12.75C12.75 13.1642 12.4142 13.5 12 13.5H8C7.58579 13.5 7.25 13.1642 7.25 12.75C7.25 12.3358 7.58579 12 8 12H12Z" fill="oklch(0.3523 0 0 / 1)" class="wd-icon-accent"></path>
<path d="M16 9C16.4142 9 16.75 9.33579 16.75 9.75C16.75 10.1642 16.4142 10.5 16 10.5H8C7.58579 10.5 7.25 10.1642 7.25 9.75C7.25 9.33579 7.58579 9 8 9H16Z" fill="oklch(0.3523 0 0 / 1)" class="wd-icon-accent"></path>
</g>
</svg>