<svg width="24" height="24" viewBox="0 0 24 24" xmlns="http://www.w3.org/2000/svg" class="wd-icon wd-icon-chevron-left" role="presentation">
<path d="M13.0459 4.25389C13.2208 4.04062 13.5354 4.00903 13.7491 4.18358L14.1367 4.49998L14.5225 4.81639C14.7362 4.99123 14.7686 5.30676 14.5938 5.52049L12.1592 8.49608L12.1543 8.49998L9.29202 12L14.5938 18.4805C14.7685 18.6942 14.7362 19.0097 14.5225 19.1846L13.7491 19.8174C13.5353 19.9919 13.2207 19.9597 13.0459 19.7461L10.6104 16.7705C10.6089 16.7687 10.6079 16.7665 10.6065 16.7646L7.22561 12.6328C6.92482 12.2646 6.92477 11.7353 7.22561 11.3672L13.0459 4.25389Z" fill="oklch(0.3523 0 0 / 1)" class="wd-icon-fill"></path>
</svg>