<svg width="24" height="24" viewBox="0 0 24 24" xmlns="http://www.w3.org/2000/svg" class="wd-icon wd-icon-timeline" role="presentation">
<g>
<path d="M7.5 2C7.77614 2 8 2.22386 8 2.5V3.12598C9.72523 3.57002 11 5.13616 11 7C11 8.86384 9.72523 10.43 8 10.874V13.126C9.72523 13.57 11 15.1362 11 17C11 18.8638 9.72523 20.43 8 20.874V21.5C8 21.7761 7.77614 22 7.5 22H6.5C6.22386 22 6 21.7761 6 21.5V20.874C4.27477 20.43 3 18.8638 3 17C3 15.1362 4.27477 13.57 6 13.126V10.874C4.27477 10.43 3 8.86384 3 7C3 5.13616 4.27477 3.57002 6 3.12598V2.5C6 2.22386 6.22386 2 6.5 2H7.5ZM7 15C5.89543 15 5 15.8954 5 17C5 18.1046 5.89543 19 7 19C8.10457 19 9 18.1046 9 17C9 15.8954 8.10457 15 7 15ZM7 5C5.89543 5 5 5.89543 5 7C5 8.10457 5.89543 9 7 9C8.10457 9 9 8.10457 9 7C9 5.89543 8.10457 5 7 5Z" fill="oklch(0.3523 0 0 / 1)" class="wd-icon-fill"></path>
<path d="M20.5 16C20.7761 16 21 16.2239 21 16.5V17.5C21 17.7761 20.7761 18 20.5 18H13.5C13.2239 18 13 17.7761 13 17.5V16.5C13 16.2239 13.2239 16 13.5 16H20.5Z" fill="oklch(0.3523 0 0 / 1)" class="wd-icon-fill"></path>
<path d="M20.5 6C20.7761 6 21 6.22386 21 6.5V7.5C21 7.77614 20.7761 8 20.5 8H13.5C13.2239 8 13 7.77614 13 7.5V6.5C13 6.22386 13.2239 6 13.5 6H20.5Z" fill="oklch(0.3523 0 0 / 1)" class="wd-icon-fill"></path>
</g>
</svg>