<svg width="24" height="24" viewBox="0 0 24 24" xmlns="http://www.w3.org/2000/svg" class="wd-icon wd-icon-hierarchy-full" role="presentation">
<path d="M18 3C19.6569 3 21 4.34315 21 6C21 7.65685 19.6569 9 18 9C16.5135 9 15.2801 7.91882 15.042 6.5H12.75V15.0498C12.75 15.6222 12.7502 16.0069 12.7744 16.3027C12.7979 16.5897 12.8406 16.7268 12.8867 16.8174C13.0065 17.0525 13.1975 17.2435 13.4326 17.3633C13.5232 17.4094 13.6603 17.4521 13.9473 17.4756C14.2148 17.4974 14.555 17.4988 15.041 17.499C15.2794 16.0806 16.5138 15 18 15C19.6569 15 21 16.3431 21 18C21 19.6569 19.6569 21 18 21C16.6938 21 15.5857 20.1642 15.1738 18.999C14.6379 18.999 14.1904 19.0005 13.8252 18.9707C13.4455 18.9397 13.0891 18.8719 12.752 18.7002C12.2345 18.4365 11.8135 18.0155 11.5498 17.498C11.3781 17.1609 11.3103 16.8045 11.2793 16.4248C11.249 16.0537 11.25 15.5975 11.25 15.0498V6.5H8.95801C8.71993 7.91882 7.48647 9 6 9C4.34315 9 3 7.65685 3 6C3 4.34315 4.34315 3 6 3C7.30585 3 8.41406 3.83532 8.82617 5H15.1738C15.5859 3.83532 16.6941 3 18 3ZM18 17C17.4477 17 17 17.4477 17 18C17 18.5523 17.4477 19 18 19C18.5523 19 19 18.5523 19 18C19 17.4477 18.5523 17 18 17ZM6 5C5.44772 5 5 5.44772 5 6C5 6.55228 5.44772 7 6 7C6.55229 7 7 6.55228 7 6C7 5.44772 6.55229 5 6 5ZM18 5C17.4477 5 17 5.44772 17 6C17 6.55228 17.4477 7 18 7C18.5523 7 19 6.55228 19 6C19 5.44772 18.5523 5 18 5Z" fill="oklch(0.3523 0 0 / 1)" class="wd-icon-fill"></path>
<g>
<path d="M18 15C19.6569 15 21 16.3431 21 18C21 19.6569 19.6569 21 18 21C16.3431 21 15 19.6569 15 18C15 16.3431 16.3431 15 18 15Z" fill="oklch(0.3523 0 0 / 1)" class="wd-icon-accent"></path>
<path d="M6 3C7.65685 3 9 4.34315 9 6C9 7.65685 7.65685 9 6 9C4.34315 9 3 7.65685 3 6C3 4.34315 4.34315 3 6 3Z" fill="oklch(0.3523 0 0 / 1)" class="wd-icon-accent"></path>
<path d="M18 3C19.6569 3 21 4.34315 21 6C21 7.65685 19.6569 9 18 9C16.3431 9 15 7.65685 15 6C15 4.34315 16.3431 3 18 3Z" fill="oklch(0.3523 0 0 / 1)" class="wd-icon-accent"></path>
</g>
</svg>