<svg width="24" height="24" viewBox="0 0 24 24" xmlns="http://www.w3.org/2000/svg" class="wd-icon wd-icon-text-edit" role="presentation">
<g>
<path d="M17.0146 11.165C18.0694 10.1103 19.7801 10.1104 20.835 11.165C21.8896 12.2199 21.8897 13.9306 20.835 14.9854L15.4512 20.3691C15.3132 20.5071 15.1833 20.6408 15.0293 20.749C14.9034 20.8375 14.7668 20.9104 14.624 20.9678C14.4494 21.0379 14.267 21.0738 14.0762 21.1143L11.1562 21.7344C10.9081 21.787 10.6492 21.7096 10.4697 21.5303C10.2904 21.3509 10.2141 21.0929 10.2666 20.8447L10.8848 17.9238C10.9252 17.7329 10.9621 17.5507 11.0322 17.376C11.0895 17.2332 11.1635 17.0976 11.252 16.9717C11.3601 16.8177 11.4929 16.6877 11.6309 16.5498L17.0146 11.165ZM19.7744 12.2256C19.3054 11.7567 18.5442 11.7567 18.0752 12.2256L12.6914 17.6104C12.6025 17.6993 12.5526 17.7492 12.5234 17.7803L14.2188 19.4766C14.2498 19.4475 14.3011 19.3982 14.3906 19.3086L19.7744 13.9248C20.2433 13.4558 20.2433 12.6946 19.7744 12.2256Z" fill="oklch(0.3523 0 0 / 1)" class="wd-icon-fill"></path>
<path d="M10 11C10.5523 11 11 11.4477 11 12C11 12.5523 10.5523 13 10 13H4C3.44772 13 3 12.5523 3 12C3 11.4477 3.44772 11 4 11H10Z" fill="oklch(0.3523 0 0 / 1)" class="wd-icon-fill"></path>
<path d="M20 5C20.5523 5 21 5.44772 21 6C21 6.55228 20.5523 7 20 7H4C3.44772 7 3 6.55228 3 6C3 5.44772 3.44772 5 4 5H20Z" fill="oklch(0.3523 0 0 / 1)" class="wd-icon-fill"></path>
</g>
</svg>