<svg width="24" height="24" viewBox="0 0 24 24" xmlns="http://www.w3.org/2000/svg" class="wd-icon wd-icon-exclamation-circle-fill" role="presentation">
<path d="M12 2C17.5228 2 22 6.47715 22 12C22 17.5228 17.5228 22 12 22C6.47715 22 2 17.5228 2 12C2 6.47715 6.47715 2 12 2ZM12 15C11.3096 15 10.75 15.5596 10.75 16.25C10.75 16.9404 11.3096 17.5 12 17.5C12.6904 17.5 13.25 16.9404 13.25 16.25C13.25 15.5596 12.6904 15 12 15ZM12 6.25C11.3201 6.25001 10.7788 6.81905 10.8125 7.49805L11.0811 12.876C11.1055 13.3655 11.5098 13.75 12 13.75C12.4901 13.75 12.8945 13.3655 12.9189 12.876L13.1875 7.49805C13.2212 6.81905 12.6799 6.25001 12 6.25Z" fill="oklch(0.3523 0 0 / 1)" class="wd-icon-fill"></path>
</svg>