<svg width="24" height="24" viewBox="0 0 24 24" xmlns="http://www.w3.org/2000/svg" class="wd-icon wd-icon-area-chart" role="presentation">
<g>
<path d="M13.3174 17.334C13.9851 17.8681 14.9182 17.9188 15.6396 17.46L18.999 15.3213C18.9989 16.112 18.9979 16.6604 18.9629 17.0889C18.9271 17.5273 18.8619 17.7518 18.7822 17.9082C18.5905 18.2845 18.2845 18.5905 17.9082 18.7822C17.7518 18.8619 17.5273 18.9271 17.0889 18.9629C16.6388 18.9997 16.0566 19 15.2002 19H8.7998C7.94342 19 7.36117 18.9997 6.91113 18.9629C6.47272 18.9271 6.2482 18.8619 6.0918 18.7822C5.71554 18.5905 5.40951 18.2845 5.21777 17.9082C5.13808 17.7518 5.07293 17.5273 5.03711 17.0889C5.03546 17.0687 5.03471 17.0481 5.0332 17.0273L9.43359 14.2275L13.3174 17.334Z" fill="transparent" class="wd-icon-background"></path>
<path d="M13.2432 11.7754C13.98 12.3649 15.0294 12.3593 15.7598 11.7617L19 9.11035V12.9502L14.5664 15.7725L10.6826 12.666C10.0149 12.1319 9.08181 12.0812 8.36035 12.54L5 14.6777V12.4736L9.50684 8.78613L13.2432 11.7754Z" fill="transparent" class="wd-icon-background"></path>
<path d="M15.2002 5C16.0566 5 16.6388 5.00035 17.0889 5.03711C17.5273 5.07293 17.7518 5.13808 17.9082 5.21777C18.2845 5.40951 18.5905 5.71554 18.7822 6.0918C18.8393 6.20387 18.8871 6.35123 18.9238 6.58691L14.4932 10.2139L10.7568 7.22461C10.02 6.63512 8.97058 6.64073 8.24023 7.23828L5 9.88867V8.7998C5 7.94341 5.00035 7.36117 5.03711 6.91113C5.07293 6.47272 5.13808 6.2482 5.21777 6.0918C5.40951 5.71554 5.71554 5.40951 6.0918 5.21777C6.2482 5.13808 6.47272 5.07293 6.91113 5.03711C7.36117 5.00035 7.94341 5 8.7998 5H15.2002Z" fill="transparent" class="wd-icon-background"></path>
</g>
<path d="M15.1997 3C16.023 3 16.7012 2.99902 17.2515 3.04395C17.8134 3.08987 18.3307 3.18835 18.8159 3.43555C19.5684 3.81902 20.1805 4.43109 20.564 5.1836C20.8023 5.65145 20.9007 6.14876 20.9487 6.6875C21.0018 6.8492 21.0129 7.02011 20.9819 7.18457C21.0006 7.64602 20.9995 8.18219 20.9995 8.79981V15.2002C20.9995 16.0235 21.0005 16.7017 20.9556 17.252C20.9096 17.8138 20.8112 18.3312 20.564 18.8164C20.1805 19.5687 19.5682 20.1811 18.8159 20.5645C18.3308 20.8115 17.8133 20.9101 17.2515 20.9561C16.7012 21.001 16.0229 21 15.1997 21H8.79932C7.97605 21 7.29783 21.001 6.74756 20.9561C6.18568 20.9101 5.66828 20.8117 5.18311 20.5645C4.43075 20.181 3.8185 19.5688 3.43506 18.8164C3.18785 18.3312 3.0894 17.8139 3.04346 17.252C3.02878 17.0722 3.02067 16.8784 3.01416 16.6709C2.99763 16.5754 2.99524 16.4787 3.00635 16.3838C3.00002 16.028 2.99951 15.6343 2.99951 15.2002V8.79981C2.99951 7.97656 2.99853 7.29834 3.04346 6.74805C3.08937 6.18621 3.18799 5.66874 3.43506 5.1836C3.81843 4.43128 4.43086 3.81904 5.18311 3.43555C5.66826 3.18835 6.18571 3.08989 6.74756 3.04395C7.29783 2.99899 7.97605 3 8.79932 3H15.1997ZM5.03272 17.0283C5.03419 17.0486 5.03501 17.0691 5.03662 17.0889C5.07245 17.527 5.13762 17.7519 5.21729 17.9082C5.40899 18.2843 5.71521 18.5905 6.09131 18.7822C6.24766 18.8619 6.47253 18.9271 6.91065 18.9629C7.3606 18.9996 7.9432 19 8.79932 19H15.1997C16.0558 19 16.6384 18.9996 17.0884 18.9629C17.5263 18.9271 17.7513 18.8618 17.9077 18.7822C18.2838 18.5906 18.59 18.2842 18.7817 17.9082C18.8614 17.7519 18.9266 17.527 18.9624 17.0889C18.9974 16.6606 18.9984 16.1122 18.9985 15.3223L15.6401 17.46C14.9189 17.9187 13.9856 17.8677 13.3179 17.334L9.43408 14.2275L5.03272 17.0283ZM4.99951 12.4746V14.6787L8.36084 12.54C9.08229 12.0813 10.0154 12.132 10.6831 12.666L14.5669 15.7725L18.9995 12.9512V9.11035L15.7603 11.7617C15.0301 12.3591 13.9805 12.3645 13.2437 11.7754L9.50733 8.78613L4.99951 12.4746ZM8.79932 5C7.9432 5 7.3606 5.00036 6.91065 5.03711C6.47258 5.07294 6.24765 5.13812 6.09131 5.21778C5.71532 5.40953 5.40892 5.71574 5.21729 6.0918C5.13773 6.24817 5.0724 6.47324 5.03662 6.91113C4.9999 7.3611 4.99951 7.94373 4.99951 8.79981V9.88965L8.24072 7.23828C8.97107 6.64079 10.0205 6.63514 10.7573 7.22461L14.4937 10.2139L18.9243 6.58692C18.8876 6.35104 18.8389 6.20394 18.7817 6.0918C18.59 5.71555 18.284 5.40951 17.9077 5.21778C17.7513 5.13814 17.5266 5.07291 17.0884 5.03711C16.6384 5.00039 16.0558 5 15.1997 5H8.79932Z" fill="oklch(0.3523 0 0 / 1)" class="wd-icon-fill"></path>
</svg>