<svg width="24" height="24" viewBox="0 0 24 24" xmlns="http://www.w3.org/2000/svg" class="wd-icon wd-icon-chevron-2x-right-small" role="presentation">
<g>
<path d="M6.95752 6.11302C7.17121 5.93818 7.48674 5.96968 7.66162 6.18333L9.27881 8.15892C9.28106 8.16168 9.28347 8.16493 9.28565 8.16771L11.8452 11.2966C12.1459 11.6648 12.146 12.1941 11.8452 12.5622L7.66162 17.6755C7.48688 17.889 7.17121 17.9212 6.95752 17.7468L6.18311 17.114C5.96929 16.9392 5.93804 16.6237 6.1128 16.4099L9.77881 11.9294L6.92139 8.43724L6.92237 8.43626L6.11377 7.44896C5.93908 7.23527 5.97054 6.92066 6.18408 6.74583L6.95752 6.11302Z" fill="oklch(0.3523 0 0 / 1)" class="wd-icon-fill"></path>
<path d="M12.9575 6.11302C13.1712 5.93818 13.4867 5.96968 13.6616 6.18333L15.2788 8.15892C15.2811 8.16168 15.2835 8.16493 15.2856 8.16771L17.8452 11.2966C18.1459 11.6648 18.146 12.1941 17.8452 12.5622L13.6616 17.6755C13.4869 17.889 13.1712 17.9212 12.9575 17.7468L12.1831 17.114C11.9693 16.9392 11.938 16.6237 12.1128 16.4099L15.7788 11.9294L12.9214 8.43724L12.9224 8.43626L12.1138 7.44896C11.9391 7.23527 11.9705 6.92066 12.1841 6.74583L12.9575 6.11302Z" fill="oklch(0.3523 0 0 / 1)" class="wd-icon-fill"></path>
</g>
</svg>