<svg width="24" height="24" viewBox="0 0 24 24" xmlns="http://www.w3.org/2000/svg" class="wd-icon wd-icon-document-survey" role="presentation">
<path d="M18.5 2H5.5C5.22386 2 5 2.22386 5 2.5V21.5C5 21.7761 5.22386 22 5.5 22H18.5C18.7761 22 19 21.7761 19 21.5V2.5C19 2.22386 18.7761 2 18.5 2Z" fill="transparent" class="wd-icon-background"></path>
<path d="M18.5 1C19.3284 1 20 1.67157 20 2.5V21.5C20 22.3284 19.3284 23 18.5 23H5.5C4.67157 23 4 22.3284 4 21.5V2.5C4 1.67157 4.67157 1 5.5 1H18.5ZM6 21H18V3H6V21Z" fill="oklch(0.3523 0 0 / 1)" class="wd-icon-fill"></path>
<g>
<path d="M12.5 16.9999C12.7761 16.9999 13 17.2238 13 17.4999V18.4999C12.9999 18.776 12.7761 18.9999 12.5 18.9999H8.5C8.22394 18.9999 8.00013 18.776 8 18.4999V17.4999C8 17.2238 8.22386 16.9999 8.5 16.9999H12.5Z" fill="oklch(0.3523 0 0 / 1)" class="wd-icon-accent"></path>
<path d="M15.5 13.9999C15.7761 13.9999 16 14.2238 16 14.4999V15.4999C15.9999 15.776 15.7761 15.9999 15.5 15.9999H8.5C8.22394 15.9999 8.00013 15.776 8 15.4999V14.4999C8 14.2238 8.22386 13.9999 8.5 13.9999H15.5Z" fill="oklch(0.3523 0 0 / 1)" class="wd-icon-accent"></path>
<path d="M14.9395 5.64641C15.1347 5.4512 15.4512 5.4512 15.6465 5.64641L16.3535 6.35344C16.5487 6.54869 16.5487 6.86522 16.3535 7.06047L11.707 11.707C11.3166 12.0972 10.6834 12.0972 10.293 11.707L8.14648 9.56047C7.95136 9.3653 7.95151 9.04871 8.14648 8.85344L8.85352 8.14641C9.04877 7.9512 9.36529 7.9512 9.56055 8.14641L11 9.58586L14.9395 5.64641Z" fill="oklch(0.3523 0 0 / 1)" class="wd-icon-accent"></path>
</g>
</svg>