<svg width="24" height="24" viewBox="0 0 24 24" xmlns="http://www.w3.org/2000/svg" class="wd-icon wd-icon-glasses" role="presentation">
<path d="M14.8398 5.74722C16.3378 4.4371 18.6784 4.97403 19.4561 6.80581L21.7598 12.2355C21.9168 12.6058 21.9979 13.0042 21.998 13.4064V14.0002H21.9824C21.9952 14.2873 21.998 14.6216 21.998 15.0002C21.998 15.3053 21.956 15.6091 21.8965 15.8908C21.439 18.0532 19.2937 19.0002 17.498 19.0002C15.7024 19.0002 13.5571 18.0532 13.0996 15.8908C13.0427 15.6217 13.0025 15.3326 12.999 15.0412C12.669 15.016 12.3357 15.0002 11.999 15.0002C11.6614 15.0002 11.327 15.0159 10.9961 15.0412C10.9926 15.3326 10.9534 15.6217 10.8965 15.8908C10.439 18.0532 8.29373 19.0002 6.49805 19.0002C4.70236 19.0002 2.55706 18.0532 2.09961 15.8908C2.04006 15.6091 1.99805 15.3053 1.99805 15.0002C1.99805 14.6216 2.00091 14.2873 2.01367 14.0002H1.99805V13.4064C1.99815 13.0042 2.07926 12.6058 2.23633 12.2355L4.54004 6.80581C5.31765 4.97403 7.65834 4.4371 9.15625 5.74722C9.57172 6.11076 9.61418 6.74271 9.25098 7.15835C8.8874 7.57387 8.25548 7.61644 7.83984 7.25308C7.3666 6.83915 6.62664 7.00842 6.38086 7.58706L4.9248 11.0177C5.22778 11.0013 5.58684 11.0002 5.99805 11.0002H6.99805C7.45017 11.0002 7.83936 10.9998 8.16016 11.0216C8.48995 11.0441 8.82059 11.0937 9.14648 11.2287C9.88118 11.5331 10.465 12.1171 10.7695 12.8517C10.796 12.9156 10.8166 12.9808 10.8369 13.0451C11.2206 13.0155 11.6081 13.0002 11.999 13.0002C12.3889 13.0002 12.7755 13.0157 13.1582 13.0451C13.1786 12.9807 13.2 12.9157 13.2266 12.8517C13.5311 12.117 14.1149 11.5331 14.8496 11.2287C15.1755 11.0937 15.5061 11.0441 15.8359 11.0216C16.1567 10.9998 16.5459 11.0002 16.998 11.0002H17.998C18.4088 11.0002 18.7675 11.0014 19.0703 11.0177L17.6152 7.58706C17.3695 7.00842 16.6295 6.83915 16.1562 7.25308C15.7406 7.61644 15.1087 7.57387 14.7451 7.15835C14.3819 6.74271 14.4244 6.11076 14.8398 5.74722ZM5.99805 13.0002C5.51844 13.0002 5.20866 13.0006 4.97168 13.0168C4.74395 13.0323 4.65688 13.0591 4.61523 13.0763C4.37039 13.1778 4.17574 13.3725 4.07422 13.6173C4.05699 13.6589 4.03021 13.7461 4.01465 13.9738C3.99848 14.2107 3.99805 14.5207 3.99805 15.0002C3.99805 15.1285 4.01677 15.2891 4.05664 15.4777C4.23937 16.34 5.2021 17.0002 6.49805 17.0002C7.794 17.0002 8.75673 16.34 8.93945 15.4777C8.97933 15.2891 8.99805 15.1285 8.99805 15.0002C8.99805 14.5207 8.99761 14.2107 8.98145 13.9738C8.96589 13.7461 8.9391 13.6589 8.92188 13.6173C8.82036 13.3725 8.6257 13.1778 8.38086 13.0763C8.33921 13.0591 8.25214 13.0323 8.02441 13.0168C7.78744 13.0006 7.47766 13.0002 6.99805 13.0002H5.99805ZM16.998 13.0002C16.5184 13.0002 16.2087 13.0006 15.9717 13.0168C15.7439 13.0323 15.6569 13.0591 15.6152 13.0763C15.3704 13.1778 15.1757 13.3725 15.0742 13.6173C15.057 13.6589 15.0302 13.7461 15.0146 13.9738C14.9985 14.2107 14.998 14.5207 14.998 15.0002C14.998 15.1285 15.0168 15.2891 15.0566 15.4777C15.2394 16.34 16.2021 17.0002 17.498 17.0002C18.794 17.0002 19.7567 16.34 19.9395 15.4777C19.9793 15.2891 19.998 15.1285 19.998 15.0002C19.998 14.5207 19.9976 14.2107 19.9814 13.9738C19.9659 13.7461 19.9391 13.6589 19.9219 13.6173C19.8204 13.3725 19.6257 13.1778 19.3809 13.0763C19.3392 13.0591 19.2522 13.0323 19.0244 13.0168C18.7874 13.0006 18.4777 13.0002 17.998 13.0002H16.998Z" fill="oklch(0.3523 0 0 / 1)" class="wd-icon-fill"></path>
</svg>