<svg width="24" height="24" viewBox="0 0 24 24" xmlns="http://www.w3.org/2000/svg" class="wd-icon wd-icon-dollar-sign" role="presentation">
<path d="M12.2616 3.5C12.6746 3.50022 13.0094 3.83501 13.0097 4.24805V5.16113C14.0198 5.31935 14.8534 5.70939 15.5106 6.33008C15.8964 6.68079 16.1897 7.08968 16.3895 7.55762C16.6338 8.12984 16.1338 8.68455 15.5116 8.68457C15.0129 8.68457 14.6124 8.30757 14.3358 7.89258C14.2635 7.78403 14.1804 7.68243 14.0868 7.58887C13.7947 7.28469 13.4355 7.06549 13.0097 6.93164V10.7842C14.3849 11.1493 15.3885 11.6302 16.0214 12.2266C16.6664 12.8229 16.9891 13.632 16.9891 14.6543C16.9891 15.7252 16.6245 16.6199 15.8944 17.3379C15.1642 18.0438 14.2023 18.451 13.0097 18.5605V19.4551C13.0097 19.8683 12.6748 20.2039 12.2616 20.2041C11.8482 20.2041 11.5126 19.8684 11.5126 19.4551V18.543C10.2835 18.4091 9.29791 18.0008 8.55555 17.3193C8.0705 16.8661 7.72849 16.3216 7.52918 15.6865C7.3498 15.1143 7.8406 14.5996 8.44032 14.5996C8.9646 14.5998 9.3776 15.0102 9.62098 15.4746C9.73243 15.6872 9.87637 15.8768 10.0526 16.042C10.4541 16.4068 10.9409 16.6498 11.5126 16.7715V12.4082C10.1375 12.0431 9.15727 11.5813 8.57313 11.0215C8.0012 10.4495 7.71571 9.70027 7.71571 8.77539C7.71578 8.11837 7.88035 7.5217 8.20887 6.98633C8.54961 6.45107 9.00619 6.02531 9.57801 5.70898C10.1621 5.38049 10.8069 5.17947 11.5126 5.10645V4.24805C11.5128 3.83487 11.8484 3.5 12.2616 3.5ZM13.0097 16.8262C13.606 16.741 14.0806 16.5282 14.4335 16.1875C14.7864 15.8346 14.9627 15.3845 14.9628 14.8369C14.9628 14.3137 14.8045 13.9 14.4882 13.5957C14.1718 13.2915 13.679 13.0296 13.0097 12.8105V16.8262ZM11.5126 6.82227C10.9529 6.88312 10.5145 7.07775 10.1981 7.40625C9.89387 7.72268 9.74208 8.11911 9.74208 8.59375C9.74218 9.03166 9.88218 9.38469 10.162 9.65234C10.4419 9.92 10.8921 10.1574 11.5126 10.3643V6.82227Z" fill="oklch(0.3523 0 0 / 1)" class="wd-icon-fill"></path>
</svg>