<svg width="24" height="24" viewBox="0 0 24 24" xmlns="http://www.w3.org/2000/svg" class="wd-icon wd-icon-webpage-search" role="presentation">
<g>
<path d="M13 13C15.2091 13 17 14.7909 17 17C17 17.8334 16.7437 18.6064 16.3076 19.2471L17.7803 20.7197C18.0731 21.0126 18.0731 21.4874 17.7803 21.7803C17.4874 22.073 17.0126 22.0731 16.7197 21.7803L15.2471 20.3076C14.6064 20.7437 13.8334 21 13 21C10.7909 21 9 19.2091 9 17C9 14.7909 10.7909 13 13 13ZM13 14.5C11.6193 14.5 10.5 15.6193 10.5 17C10.5 18.3807 11.6193 19.5 13 19.5C14.3807 19.5 15.5 18.3807 15.5 17C15.5 15.6193 14.3807 14.5 13 14.5Z" fill="oklch(0.3523 0 0 / 1)" class="wd-icon-fill"></path>
<path d="M16.7139 4C17.763 4 18.3531 3.99893 18.8066 4.11231C19.1597 4.17348 19.495 4.27181 19.8164 4.43555C20.5689 4.81902 21.181 5.43109 21.5645 6.18359C21.8117 6.6689 21.9101 7.18599 21.9561 7.74805C22.001 8.29843 22 8.97632 22 9.79981V14.2002C22 15.0237 22.001 15.7016 21.9561 16.252C21.9101 16.814 21.8117 17.3311 21.5645 17.8164C21.2272 18.4781 20.7128 19.0305 20.082 19.415C19.6105 19.7025 18.9955 19.5535 18.708 19.082C18.4206 18.6105 18.5696 17.9955 19.041 17.708C19.3564 17.5157 19.6136 17.2391 19.7822 16.9082C19.8619 16.7518 19.9271 16.5273 19.9629 16.0889C19.9997 15.6388 20 15.0566 20 14.2002V9.79981C20 9.50205 19.9977 9.23744 19.9961 9H4.00391C4.00231 9.23744 4 9.50205 4 9.79981V14.2002C4 15.0566 4.00035 15.6388 4.03711 16.0889C4.07293 16.5273 4.13809 16.7518 4.21778 16.9082C4.40951 17.2845 4.71555 17.5905 5.0918 17.7822C5.3214 17.8992 5.66426 17.9708 6.52344 17.9912C7.07546 18.0043 7.51293 18.4627 7.5 19.0146C7.48691 19.5667 7.02857 20.0042 6.47656 19.9912C5.60549 19.9706 4.85331 19.9057 4.1836 19.5645C3.43109 19.181 2.81902 18.5689 2.43555 17.8164C2.18828 17.3311 2.08988 16.814 2.04395 16.252C1.99898 15.7016 2 15.0237 2 14.2002V9.79981C2 8.97632 1.99898 8.29843 2.04395 7.74805C2.08988 7.18599 2.18827 6.6689 2.43555 6.18359C2.81902 5.43109 3.43109 4.81902 4.1836 4.43555C4.50467 4.27195 4.83966 4.17349 5.19238 4.11231C5.64605 3.9987 6.23625 4 7.28613 4H16.7139ZM5.5 6C5.22386 6 5 6.22386 5 6.5C5 6.77614 5.22386 7 5.5 7H6.5C6.77614 7 7 6.77614 7 6.5C7 6.22386 6.77614 6 6.5 6H5.5ZM8.5 6C8.22386 6 8 6.22386 8 6.5C8 6.77614 8.22386 7 8.5 7H9.5C9.77614 7 10 6.77614 10 6.5C10 6.22386 9.77614 6 9.5 6H8.5ZM11.5 6C11.2239 6 11 6.22386 11 6.5C11 6.77614 11.2239 7 11.5 7H12.5C12.7761 7 13 6.77614 13 6.5C13 6.22386 12.7761 6 12.5 6H11.5Z" fill="oklch(0.3523 0 0 / 1)" class="wd-icon-fill"></path>
</g>
</svg>