<svg width="24" height="24" viewBox="0 0 24 24" xmlns="http://www.w3.org/2000/svg" class="wd-icon wd-icon-sun" role="presentation">
<path d="M16 12C16 14.2091 14.2091 16 12 16C9.79086 16 8 14.2091 8 12C8 9.79086 9.79086 8 12 8C14.2091 8 16 9.79086 16 12Z" fill="transparent" class="wd-icon-background"></path>
<g>
<path d="M12.5 19C12.7761 19 13 19.2239 13 19.5V22.5C13 22.7761 12.7761 23 12.5 23H11.5C11.2239 23 11 22.7761 11 22.5V19.5C11 19.2239 11.2239 19 11.5 19H12.5Z" fill="oklch(0.3523 0 0 / 1)" class="wd-icon-fill"></path>
<path d="M5.93945 16.6465C6.13471 16.4513 6.45124 16.4513 6.64648 16.6465L7.35352 17.3535C7.54876 17.5488 7.54873 17.8653 7.35352 18.0605L5.28223 20.1318C5.08694 20.3268 4.77035 20.327 4.5752 20.1318L3.86816 19.4248C3.67305 19.2296 3.67324 18.913 3.86816 18.7178L5.93945 16.6465Z" fill="oklch(0.3523 0 0 / 1)" class="wd-icon-fill"></path>
<path d="M17.3535 16.6465C17.5487 16.4513 17.8653 16.4514 18.0605 16.6465L20.1318 18.7178C20.3269 18.913 20.327 19.2296 20.1318 19.4248L19.4248 20.1318C19.2296 20.327 18.913 20.3269 18.7178 20.1318L16.6465 18.0605C16.4514 17.8653 16.4513 17.5487 16.6465 17.3535L17.3535 16.6465Z" fill="oklch(0.3523 0 0 / 1)" class="wd-icon-fill"></path>
<path d="M12 7C14.7614 7 17 9.23858 17 12C17 14.7614 14.7614 17 12 17C9.23858 17 7 14.7614 7 12C7 9.23858 9.23858 7 12 7ZM12 9C10.3431 9 9 10.3431 9 12C9 13.6569 10.3431 15 12 15C13.6569 15 15 13.6569 15 12C15 10.3431 13.6569 9 12 9Z" fill="oklch(0.3523 0 0 / 1)" class="wd-icon-fill"></path>
<path d="M4.5 11C4.77614 11 5 11.2239 5 11.5V12.5C4.99987 12.776 4.77606 13 4.5 13H1.5C1.22394 13 1.00013 12.776 1 12.5V11.5C1 11.2239 1.22386 11 1.5 11H4.5Z" fill="oklch(0.3523 0 0 / 1)" class="wd-icon-fill"></path>
<path d="M22.5 11C22.7761 11 23 11.2239 23 11.5V12.5C22.9999 12.776 22.7761 13 22.5 13H19.5C19.2239 13 19.0001 12.776 19 12.5V11.5C19 11.2239 19.2239 11 19.5 11H22.5Z" fill="oklch(0.3523 0 0 / 1)" class="wd-icon-fill"></path>
<path d="M18.7178 3.86816C18.913 3.67295 19.2296 3.67295 19.4248 3.86816L20.1318 4.5752C20.3271 4.77044 20.3271 5.08696 20.1318 5.28223L18.0615 7.35352C17.8663 7.54878 17.5488 7.54878 17.3535 7.35352L16.6465 6.64648C16.4514 6.45133 16.4516 6.13473 16.6465 5.93945L18.7178 3.86816Z" fill="oklch(0.3523 0 0 / 1)" class="wd-icon-fill"></path>
<path d="M4.5752 3.86816C4.77039 3.67297 5.08695 3.67311 5.28223 3.86816L7.35254 5.93848C7.5478 6.13374 7.5478 6.45025 7.35254 6.64551L6.64551 7.35254C6.45024 7.54779 6.13374 7.5478 5.93848 7.35254L3.86816 5.28223C3.67311 5.08695 3.67298 4.77039 3.86816 4.5752L4.5752 3.86816Z" fill="oklch(0.3523 0 0 / 1)" class="wd-icon-fill"></path>
<path d="M12.5 1C12.7761 1 13 1.22386 13 1.5V4.5C13 4.77614 12.7761 5 12.5 5H11.5C11.2239 5 11 4.77614 11 4.5V1.5C11 1.22386 11.2239 1 11.5 1H12.5Z" fill="oklch(0.3523 0 0 / 1)" class="wd-icon-fill"></path>
</g>
</svg>