<svg width="24" height="24" viewBox="0 0 24 24" xmlns="http://www.w3.org/2000/svg" class="wd-icon wd-icon-zoom-out" role="presentation">
<g>
<path d="M12.998 9.75C13.4123 9.75 13.748 10.0858 13.748 10.5C13.748 10.9142 13.4123 11.25 12.998 11.25H7.99805C7.58383 11.25 7.24805 10.9142 7.24805 10.5C7.24805 10.0858 7.58383 9.75 7.99805 9.75H12.998Z" fill="oklch(0.3523 0 0 / 1)" class="wd-icon-fill"></path>
<path d="M10.5 2C15.1944 2 19 5.80558 19 10.5C19 12.4868 18.316 14.3125 17.1738 15.7598L21.707 20.293C22.0974 20.6835 22.0975 21.3165 21.707 21.707C21.3165 22.0974 20.6835 22.0974 20.293 21.707L15.7598 17.1738C14.3125 18.316 12.4868 19 10.5 19C5.80558 19 2 15.1944 2 10.5C2 5.80558 5.80558 2 10.5 2ZM10.5 4C6.91015 4 4 6.91015 4 10.5C4 14.0899 6.91015 17 10.5 17C14.0899 17 17 14.0899 17 10.5C17 6.91015 14.0899 4 10.5 4Z" fill="oklch(0.3523 0 0 / 1)" class="wd-icon-fill"></path>
</g>
</svg>