<svg width="24" height="24" viewBox="0 0 24 24" xmlns="http://www.w3.org/2000/svg" class="wd-icon wd-icon-pill" role="presentation">
<g>
<path d="M7.5 13C9.433 13 11 14.567 11 16.5C11 18.433 9.433 20 7.5 20H5.5C3.567 20 2 18.433 2 16.5C2 14.567 3.567 13 5.5 13H7.5ZM5.5 15C4.67157 15 4 15.6716 4 16.5C4 17.3284 4.67157 18 5.5 18H7.5C8.32843 18 9 17.3284 9 16.5C9 15.6716 8.32843 15 7.5 15H5.5Z" fill="oklch(0.3523 0 0 / 1)" class="wd-icon-fill"></path>
<path d="M18.5 13C20.433 13 22 14.567 22 16.5C22 18.433 20.433 20 18.5 20H16.5C14.567 20 13 18.433 13 16.5C13 14.567 14.567 13 16.5 13H18.5ZM16.5 15C15.6716 15 15 15.6716 15 16.5C15 17.3284 15.6716 18 16.5 18H18.5C19.3284 18 20 17.3284 20 16.5C20 15.6716 19.3284 15 18.5 15H16.5Z" fill="oklch(0.3523 0 0 / 1)" class="wd-icon-fill"></path>
<path d="M7.5 4C9.433 4 11 5.567 11 7.5C11 9.433 9.433 11 7.5 11H5.5C3.567 11 2 9.433 2 7.5C2 5.567 3.567 4 5.5 4H7.5ZM5.5 6C4.67157 6 4 6.67157 4 7.5C4 8.32843 4.67157 9 5.5 9H7.5C8.32843 9 9 8.32843 9 7.5C9 6.67157 8.32843 6 7.5 6H5.5Z" fill="oklch(0.3523 0 0 / 1)" class="wd-icon-fill"></path>
<path d="M18.5 4C20.433 4 22 5.567 22 7.5C22 9.433 20.433 11 18.5 11H16.5C14.567 11 13 9.433 13 7.5C13 5.567 14.567 4 16.5 4H18.5ZM16.5 6C15.6716 6 15 6.67157 15 7.5C15 8.32843 15.6716 9 16.5 9H18.5C19.3284 9 20 8.32843 20 7.5C20 6.67157 19.3284 6 18.5 6H16.5Z" fill="oklch(0.3523 0 0 / 1)" class="wd-icon-fill"></path>
</g>
<g>
<path d="M7.5 15C8.32843 15 9 15.6716 9 16.5C9 17.3284 8.32843 18 7.5 18H5.5C4.67157 18 4 17.3284 4 16.5C4 15.6716 4.67157 15 5.5 15H7.5Z" fill="oklch(0.3523 0 0 / 1)" class="wd-icon-accent"></path>
<path d="M18.5 6C19.3284 6 20 6.67157 20 7.5C20 8.32843 19.3284 9 18.5 9H16.5C15.6716 9 15 8.32843 15 7.5C15 6.67157 15.6716 6 16.5 6H18.5Z" fill="oklch(0.3523 0 0 / 1)" class="wd-icon-accent"></path>
</g>
</svg>