<svg width="24" height="24" viewBox="0 0 24 24" xmlns="http://www.w3.org/2000/svg" class="wd-icon wd-icon-marker" role="presentation">
<path d="M17.5 2C17.7761 2 18 2.22386 18 2.5V8.58594C18 8.8511 17.8945 9.10547 17.707 9.29297L12.3535 14.6465C12.1583 14.8417 11.8417 14.8417 11.6465 14.6465L6.29297 9.29297C6.10547 9.10547 6.00004 8.8511 6 8.58594V2.5C6 2.22386 6.22386 2 6.5 2H17.5Z" fill="transparent" class="wd-icon-background"></path>
<path d="M17.5 1C18.3284 1 19 1.67157 19 2.5V8.58594C19 9.11632 18.7891 9.62496 18.4141 10L13.0605 15.3535C13.0385 15.3755 13.0142 15.3947 12.9912 15.415C12.996 15.4427 13 15.4709 13 15.5V22.5C13 22.7761 12.7761 23 12.5 23H11.5C11.2239 23 11 22.7761 11 22.5V15.5C11 15.471 11.0031 15.4427 11.0078 15.415C10.985 15.3948 10.9613 15.3754 10.9395 15.3535L5.58594 10C5.2109 9.62496 5.00004 9.11632 5 8.58594V2.5C5 1.67157 5.67157 1 6.5 1H17.5ZM7 8.58594L12 13.5859L17 8.58594V3H7V8.58594Z" fill="oklch(0.3523 0 0 / 1)" class="wd-icon-fill"></path>
</svg>