<svg width="24" height="24" viewBox="0 0 24 24" xmlns="http://www.w3.org/2000/svg" class="wd-icon wd-icon-document-edit" role="presentation">
<path d="M11.0117 1.00007C11.6979 1.00007 12.2043 0.993482 12.6914 1.11042C13.0995 1.20841 13.4899 1.37065 13.8477 1.58991C14.2746 1.85164 14.6283 2.21426 15.1133 2.69929L19 6.58601C19.6403 7.22627 20 8.09462 20 9.00007C20 9.55235 19.5523 10.0001 19 10.0001H14C12.8955 10.0001 12 9.10463 12 8.00007V3.02155C11.8142 3.00453 11.539 3.00007 11.0117 3.00007H9.79983C8.94345 3.00007 8.36119 3.00042 7.91116 3.03718C7.47276 3.073 7.24822 3.13815 7.09182 3.21784C6.71558 3.40957 6.40953 3.71563 6.2178 4.09186C6.13811 4.24826 6.07296 4.47283 6.03713 4.9112C6.00038 5.36123 6.00003 5.94352 6.00003 6.79987V18.5001C6.00003 18.9958 6.00269 19.1473 6.0176 19.2608C6.13576 20.1583 6.84183 20.8643 7.73928 20.9825C7.85284 20.9974 8.0042 21.0001 8.50003 21.0001C9.05229 21.0001 9.49999 21.4478 9.50003 22.0001C9.50003 22.5524 9.05231 23.0001 8.50003 23.0001C8.0674 23.0001 7.75387 23.0023 7.47756 22.9659C5.68293 22.7294 4.27063 21.3172 4.0342 19.5225C3.99784 19.2462 4.00003 18.9327 4.00003 18.5001V6.79987C4.00003 5.97641 3.999 5.29848 4.04397 4.74811C4.0899 4.18608 4.18831 3.66895 4.43557 3.18366C4.81904 2.43118 5.43113 1.81908 6.18362 1.43561C6.66892 1.18834 7.18603 1.08994 7.74807 1.04401C8.29845 0.999045 8.97635 1.00007 9.79983 1.00007H11.0117ZM13.5 8.00007C13.5 8.2762 13.7239 8.50005 14 8.50007H17.9073C17.837 8.31436 17.729 8.14317 17.586 8.00007L13.6992 4.11335C13.6265 4.04063 13.5603 3.97491 13.5 3.91511V8.00007Z" fill="oklch(0.3523 0 0 / 1)" class="wd-icon-fill"></path>
<path d="M18.0138 13.1649C19.0685 12.1103 20.7792 12.1105 21.8341 13.1649C22.8888 14.2198 22.8889 15.9305 21.8341 16.9853L16.4503 22.3691C16.3124 22.507 16.1824 22.6408 16.0284 22.7489C15.9026 22.8373 15.7659 22.9104 15.6232 22.9677C15.4486 23.0377 15.2661 23.0738 15.0753 23.1142L12.1554 23.7343C11.9073 23.7867 11.6482 23.7095 11.4689 23.5302C11.2898 23.3508 11.2133 23.0926 11.2657 22.8446L11.8839 19.9237C11.9243 19.7329 11.9613 19.5505 12.0314 19.3759C12.0886 19.2332 12.1627 19.0974 12.2511 18.9716C12.3592 18.8177 12.4921 18.6876 12.63 18.5497L18.0138 13.1649ZM20.7736 14.2255C20.3045 13.7568 19.5432 13.7566 19.0743 14.2255L13.6905 19.6103C13.6017 19.6991 13.5517 19.7491 13.5226 19.7802L15.2179 21.4765C15.2489 21.4474 15.3003 21.398 15.3898 21.3085L20.7736 15.9247C21.2426 15.4557 21.2425 14.6945 20.7736 14.2255Z" fill="oklch(0.3523 0 0 / 1)" class="wd-icon-accent"></path>
</svg>