<svg width="24" height="24" viewBox="0 0 24 24" xmlns="http://www.w3.org/2000/svg" class="wd-icon wd-icon-calendar-day-8" role="presentation">
<g>
<path d="M11.7529 10.3701C12.1683 10.3702 12.5504 10.4518 12.8936 10.6191C13.2366 10.7806 13.5108 11.0131 13.7061 11.3174L13.7773 11.4326C13.9327 11.7055 14.0097 12.0096 14.0098 12.3389C14.0098 12.7064 13.9165 13.0369 13.7217 13.3184C13.6198 13.4654 13.4961 13.5928 13.3535 13.7031C13.5712 13.8397 13.7569 14.0108 13.9072 14.2168C14.1513 14.5515 14.2704 14.9434 14.2705 15.3809C14.2705 15.7864 14.1653 16.1607 13.9531 16.4961L13.9522 16.4951C13.7446 16.8268 13.4466 17.0847 13.0684 17.2705L13.0654 17.2725C12.6836 17.4532 12.2436 17.539 11.7529 17.5391C11.2567 17.539 10.8129 17.4535 10.4307 17.2725L10.4277 17.2705C10.0499 17.0848 9.74833 16.8281 9.53516 16.498L9.53223 16.4932C9.32744 16.1583 9.22559 15.7844 9.22559 15.3809C9.2257 14.9384 9.3448 14.5442 9.59082 14.2139C9.74524 14.0081 9.9335 13.8367 10.1533 13.7002C10.0142 13.5906 9.89256 13.4636 9.79199 13.3184C9.59741 13.037 9.50488 12.7062 9.50488 12.3389C9.50499 11.9643 9.60064 11.6217 9.79688 11.3203L9.79785 11.3193C9.99804 11.0157 10.271 10.7826 10.6094 10.6201C10.9532 10.4519 11.3365 10.3702 11.7529 10.3701ZM11.7432 14.3438C11.5142 14.3439 11.3252 14.3909 11.1699 14.4756C11.0122 14.5617 10.8942 14.6755 10.8105 14.8174L10.7578 14.9307C10.7123 15.0484 10.6885 15.18 10.6885 15.3272C10.6885 15.6122 10.782 15.8342 10.9639 16.0117C11.1478 16.1796 11.3993 16.2743 11.7432 16.2744C11.9816 16.2744 12.1752 16.2287 12.3311 16.1484C12.489 16.067 12.6016 15.9594 12.6777 15.8252L12.6797 15.8223C12.764 15.6768 12.8076 15.5136 12.8076 15.3272C12.8075 15.0366 12.7121 14.808 12.5234 14.624L12.5205 14.6221C12.3432 14.445 12.0937 14.3438 11.7432 14.3438ZM11.7529 11.5986C11.5729 11.5987 11.4218 11.6362 11.2949 11.7041L11.2881 11.708C11.1609 11.7717 11.064 11.8605 10.9932 11.9756C10.9292 12.0833 10.8956 12.2056 10.8955 12.3477C10.8955 12.5759 10.9723 12.7564 11.125 12.9053C11.2818 13.0466 11.4848 13.1239 11.7529 13.124C11.9344 13.124 12.0814 13.0887 12.2012 13.0273C12.3319 12.9573 12.4311 12.8648 12.5029 12.748C12.5726 12.6347 12.6094 12.5032 12.6094 12.3477C12.6092 12.1269 12.5341 11.9585 12.3848 11.8223L12.3818 11.8193C12.2324 11.679 12.0308 11.5987 11.7529 11.5986Z" fill="oklch(0.3523 0 0 / 1)" class="wd-icon-fill"></path>
<path d="M16.2012 2C17.0247 2 17.7026 1.99898 18.2529 2.04395C18.815 2.08988 19.3321 2.18828 19.8174 2.43555C20.5699 2.81902 21.182 3.43109 21.5654 4.1836C21.8127 4.6689 21.9111 5.18599 21.957 5.74805C22.002 6.29843 22.001 6.97632 22.001 7.79981V16.2002C22.001 17.0237 22.002 17.7016 21.957 18.252C21.9111 18.814 21.8127 19.3311 21.5654 19.8164C21.182 20.5689 20.5699 21.181 19.8174 21.5645C19.3321 21.8117 18.815 21.9101 18.2529 21.9561C17.7026 22.001 17.0247 22 16.2012 22H7.80078C6.9773 22 6.2994 22.001 5.74903 21.9561C5.18697 21.9101 4.66988 21.8117 4.18457 21.5645C3.43207 21.181 2.81999 20.5689 2.43653 19.8164C2.18925 19.3311 2.09085 18.814 2.04492 18.252C1.99996 17.7016 2.00098 17.0237 2.00098 16.2002V7.79981C2.00098 6.97632 1.99996 6.29843 2.04492 5.74805C2.09085 5.18599 2.18925 4.6689 2.43653 4.1836C2.81999 3.43109 3.43207 2.81902 4.18457 2.43555C4.66988 2.18827 5.18697 2.08988 5.74903 2.04395C6.2994 1.99898 6.9773 2 7.80078 2H16.2012ZM4.00098 16.2002C4.00098 17.0566 4.00133 17.6388 4.03809 18.0889C4.07391 18.5273 4.13906 18.7518 4.21875 18.9082C4.41049 19.2845 4.71652 19.5905 5.09278 19.7822C5.24917 19.8619 5.4737 19.9271 5.91211 19.9629C6.36215 19.9997 6.9444 20 7.80078 20H16.2012C17.0576 20 17.6398 19.9997 18.0898 19.9629C18.5283 19.9271 18.7528 19.8619 18.9092 19.7822C19.2854 19.5905 19.5915 19.2845 19.7832 18.9082C19.8629 18.7518 19.928 18.5273 19.9639 18.0889C20.0006 17.6388 20.001 17.0566 20.001 16.2002V8H4.00098V16.2002Z" fill="oklch(0.3523 0 0 / 1)" class="wd-icon-fill"></path>
</g>
</svg>