<svg width="24" height="24" viewBox="0 0 24 24" xmlns="http://www.w3.org/2000/svg" class="wd-icon wd-icon-edit" role="presentation">
<path d="M18.7021 2.0341C19.4896 2.16884 20.2446 2.53956 20.8525 3.14738C21.4604 3.75525 21.832 4.51035 21.9668 5.29777C21.9924 5.44732 21.9374 5.59869 21.8301 5.70597L6.68164 20.8534C6.58787 20.9472 6.46073 20.9999 6.32812 20.9999H3.5L3.39941 20.9902C3.17148 20.9436 3 20.7416 3 20.4999V17.6718C3.00001 17.5392 3.05273 17.412 3.14648 17.3183L18.2949 2.16984C18.4022 2.06266 18.5527 2.00853 18.7021 2.0341Z" fill="transparent" class="wd-icon-background"></path>
<path d="M18.8711 1.04803L19.2383 1.12517C20.0891 1.33747 20.8955 1.77661 21.5596 2.4406C22.3185 3.1995 22.7836 4.14443 22.9521 5.12908C23.0378 5.63002 22.8501 6.09923 22.5371 6.41228L7.38867 21.5607C7.10738 21.8419 6.72588 22.0002 6.32812 22.0002H3.5C2.67157 22.0002 2 21.3286 2 20.5002V17.672C2.00005 17.2744 2.15828 16.8928 2.43945 16.6115L17.5879 1.46307L17.7119 1.35174C17.9745 1.14216 18.3162 1.01373 18.6846 1.02849L18.8711 1.04803ZM4 17.8791V20.0002H6.12109L17.8525 8.26678L15.7314 6.14568L4 17.8791ZM17.1455 4.73162L19.2666 6.85271L20.9209 5.19939C20.7896 4.70731 20.5327 4.2419 20.1455 3.85467C19.7579 3.46714 19.2923 3.20946 18.7998 3.0783L17.1455 4.73162Z" fill="oklch(0.3523 0 0 / 1)" class="wd-icon-fill"></path>
</svg>