<svg width="24" height="24" viewBox="0 0 24 24" xmlns="http://www.w3.org/2000/svg" class="wd-icon wd-icon-audio-minus-fill" role="presentation">
<g>
<path d="M11.4443 5.05865C11.9114 5.04131 12.3599 5.24303 12.6572 5.60357C12.9192 5.92145 12.9644 6.29386 12.9815 6.48346C13.0007 6.69748 13 6.96323 13 7.22564V16.7745C13 17.0369 13.0007 17.3027 12.9815 17.5167C12.9644 17.7062 12.9191 18.0777 12.6572 18.3956C12.3599 18.7564 11.9116 18.9588 11.4443 18.9415C11.0326 18.926 10.7243 18.7119 10.5713 18.5987C10.3985 18.4708 10.2001 18.2936 10.0039 18.1192L7.79005 16.1514C7.70011 16.0715 7.65485 16.0315 7.62111 16.004L7.61915 16.002H7.61525C7.57174 16.0002 7.51172 16.0001 7.39162 16.0001H5.59962C5.33624 16.0001 5.07815 16.0012 4.86134 15.9835C4.63284 15.9648 4.36307 15.9205 4.09181 15.7823C3.71561 15.5906 3.40952 15.2845 3.21779 14.9083C3.07955 14.6369 3.03529 14.3663 3.01662 14.1378C2.99894 13.921 3.00001 13.6628 3.00001 13.3995V10.5997C3.00001 10.3363 2.9989 10.0782 3.01662 9.86138C3.03531 9.63289 3.07958 9.36309 3.21779 9.09185C3.40952 8.71563 3.71559 8.40956 4.09181 8.21783C4.36305 8.07964 4.63285 8.03535 4.86134 8.01666C5.07814 7.99894 5.33625 8.00006 5.59962 8.00006H7.39162C7.51217 8.00006 7.57268 7.99995 7.61622 7.9981L7.61915 7.99713L7.62111 7.99615C7.65484 7.96863 7.70018 7.92858 7.79005 7.84869L10.0039 5.88092C10.2002 5.70647 10.3985 5.52831 10.5713 5.40045C10.7244 5.28722 11.0328 5.07406 11.4443 5.05865Z" fill="oklch(0.3523 0 0 / 1)" class="wd-icon-fill"></path>
<path d="M21.5 11.2501C21.9142 11.2501 22.25 11.5859 22.25 12.0001C22.25 12.4143 21.9142 12.7501 21.5 12.7501H16.5C16.0858 12.75 15.75 12.4143 15.75 12.0001C15.75 11.5859 16.0858 11.2501 16.5 11.2501H21.5Z" fill="oklch(0.3523 0 0 / 1)" class="wd-icon-fill"></path>
</g>
</svg>