<svg width="24" height="24" viewBox="0 0 24 24" xmlns="http://www.w3.org/2000/svg" class="wd-icon wd-icon-previous" role="presentation">
<g>
<path d="M6 5C5.44772 5 5 5.44772 5 6V18C5 18.5523 5.44772 19 6 19C6.55228 19 7 18.5523 7 18V6C7 5.44772 6.55228 5 6 5Z" fill="oklch(0.3523 0 0 / 1)" class="wd-icon-fill"></path>
<path d="M19.1016 5.74609C18.7776 5.71307 18.3828 5.94305 17.5938 6.40332L10.3691 10.6182C9.59084 11.0722 9.20142 11.2991 9.07031 11.5947C8.95601 11.8527 8.95601 12.1473 9.07031 12.4053C9.20135 12.7009 9.59075 12.9278 10.3691 13.3818L17.5938 17.5967C18.3828 18.0569 18.7776 18.2869 19.1016 18.2539C19.3841 18.2251 19.6414 18.0772 19.8086 17.8477C20.0001 17.5844 20 17.1277 20 16.2148V7.78613C20 6.87293 20.0002 6.4156 19.8086 6.15234C19.6414 5.92282 19.3841 5.77493 19.1016 5.74609Z" fill="oklch(0.3523 0 0 / 1)" class="wd-icon-fill"></path>
</g>
</svg>