<svg width="24" height="24" viewBox="0 0 24 24" xmlns="http://www.w3.org/2000/svg" class="wd-icon wd-icon-dropdown" role="presentation">
<path d="M12 8C12 7.44772 12.2239 7 12.5 7H21.5C21.7761 7 22 7.44772 22 8V16C22 16.5523 21.7761 17 21.5 17H12.5C12.2239 17 12 16.5523 12 16V8Z" fill="transparent" class="wd-icon-background"></path>
<path d="M21 6C22.1046 6 23 6.89543 23 8V16C23 17.1046 22.1046 18 21 18H3C1.89543 18 1 17.1046 1 16V8C1 6.89543 1.89543 6 3 6H21ZM13 16H21V8H13V16ZM3 16H11V8H3V16Z" fill="oklch(0.3523 0 0 / 1)" class="wd-icon-fill"></path>
<path d="M18.7296 10.2928C18.9434 10.1179 19.2589 10.1493 19.4337 10.3631L20.0665 11.1375C20.2412 11.3513 20.2088 11.6669 19.9952 11.8416L19.3946 12.3329C19.3929 12.3343 19.3905 12.3354 19.3888 12.3368L17.6319 13.7743C17.2638 14.0749 16.7344 14.0751 16.3663 13.7743L14.3038 12.0868L14.004 11.8407C13.7905 11.6659 13.7583 11.3512 13.9327 11.1375L14.5655 10.3631C14.7403 10.1492 15.0558 10.118 15.2696 10.2928L15.8712 10.784C15.8727 10.7853 15.8736 10.7876 15.8751 10.7889L16.9991 11.7079L18.7296 10.2928Z" fill="oklch(0.3523 0 0 / 1)" class="wd-icon-accent"></path>
</svg>