<svg width="24" height="24" viewBox="0 0 24 24" xmlns="http://www.w3.org/2000/svg" class="wd-icon wd-icon-required" role="presentation">
<path d="M11.9997 7C12.552 7 12.9997 7.44772 12.9997 8V10.623L15.4949 9.8125C16.02 9.64201 16.5839 9.93003 16.7546 10.4551C16.925 10.9801 16.638 11.5441 16.113 11.7148L13.6169 12.5244L15.1609 14.6484C15.4855 15.0952 15.386 15.7213 14.9392 16.0459C14.4924 16.3703 13.8673 16.2709 13.5427 15.8242L11.9997 13.7012L10.4568 15.8242C10.1321 16.2708 9.507 16.3704 9.06029 16.0459C8.61367 15.7212 8.51508 15.0952 8.83958 14.6484L10.3816 12.5254L7.88646 11.7148C7.36146 11.5441 7.07343 10.9802 7.24388 10.4551C7.41448 9.93009 7.97861 9.64234 8.50365 9.8125L10.9997 10.623V8C10.9997 7.44785 11.4476 7.00022 11.9997 7Z" fill="oklch(0.3523 0 0 / 1)" class="wd-icon-fill"></path>
</svg>