<svg width="24" height="24" viewBox="0 0 24 24" xmlns="http://www.w3.org/2000/svg" class="wd-icon wd-icon-array" role="presentation">
<g>
<path d="M8.5 3C8.77614 3 9 3.22386 9 3.5V4.5C9 4.77614 8.77614 5 8.5 5H6V19H8.5C8.77614 19 9 19.2239 9 19.5V20.5C9 20.7761 8.77614 21 8.5 21H5C4.44772 21 4 20.5523 4 20V4C4 3.44772 4.44772 3 5 3H8.5Z" fill="oklch(0.3523 0 0 / 1)" class="wd-icon-fill"></path>
<path d="M19 3C19.5523 3 20 3.44772 20 4V20C20 20.5523 19.5523 21 19 21H15.5C15.2239 21 15 20.7761 15 20.5V19.5C15 19.2239 15.2239 19 15.5 19H18V5H15.5C15.2239 5 15 4.77614 15 4.5V3.5C15 3.22386 15.2239 3 15.5 3H19Z" fill="oklch(0.3523 0 0 / 1)" class="wd-icon-fill"></path>
</g>
</svg>