<svg width="24" height="24" viewBox="0 0 24 24" xmlns="http://www.w3.org/2000/svg" class="wd-icon wd-icon-comment-exclamation-fill" role="presentation">
<path d="M12 2C17.4089 2 22 5.92196 22 11C22 16.078 17.4089 20 12 20C11.7859 20 11.5733 19.9914 11.3623 19.9795C9.62998 21.252 7.47856 21.6607 6.06055 21.7461C5.7286 21.7659 5.40806 21.6187 5.20605 21.3545C5.00424 21.0902 4.94741 20.7428 5.05371 20.4277C5.28973 19.7281 5.42269 18.7012 5.45996 17.8096C3.36367 16.1774 2 13.7479 2 11C2 5.92196 6.59113 2 12 2ZM12 12.875C11.3787 12.875 10.875 13.3787 10.875 14C10.875 14.6213 11.3787 15.125 12 15.125C12.6213 15.125 13.125 14.6213 13.125 14C13.125 13.3787 12.6213 12.875 12 12.875ZM12 7C11.456 7 11.0226 7.45569 11.0498 7.99902L11.2129 11.251C11.2339 11.6706 11.5799 12 12 12C12.4201 12 12.7661 11.6706 12.7871 11.251L12.9502 7.99902C12.9774 7.45569 12.544 7 12 7Z" fill="oklch(0.3523 0 0 / 1)" class="wd-icon-fill"></path>
</svg>