<svg width="24" height="24" viewBox="0 0 24 24" xmlns="http://www.w3.org/2000/svg" class="wd-icon wd-icon-code" role="presentation">
<g>
<path d="M13.0303 3.75758C13.1642 3.22187 13.7065 2.89625 14.2422 3.03004C14.7779 3.164 15.1035 3.70626 14.9697 4.24196L10.9697 20.242C10.8357 20.7775 10.2934 21.1032 9.75781 20.9695C9.22217 20.8356 8.89662 20.2932 9.03027 19.7576L13.0303 3.75758Z" fill="oklch(0.3523 0 0 / 1)" class="wd-icon-fill"></path>
<path d="M6.29297 7.29274C6.68349 6.90222 7.31651 6.90222 7.70703 7.29274C8.09744 7.68327 8.09752 8.31632 7.70703 8.7068L4.41406 11.9998L7.70703 15.2927C8.09744 15.6833 8.09752 16.3163 7.70703 16.7068C7.31654 17.0972 6.68346 17.0972 6.29297 16.7068L2.29297 12.7068C2.10549 12.5193 2.00006 12.2649 2 11.9998C2 11.7346 2.1055 11.4803 2.29297 11.2927L6.29297 7.29274Z" fill="oklch(0.3523 0 0 / 1)" class="wd-icon-fill"></path>
<path d="M16.293 7.29274C16.6835 6.90222 17.3165 6.90222 17.707 7.29274L21.707 11.2927C21.8945 11.4803 22 11.7346 22 11.9998C21.9999 12.2649 21.8945 12.5193 21.707 12.7068L17.707 16.7068C17.3165 17.0972 16.6835 17.0972 16.293 16.7068C15.9025 16.3163 15.9026 15.6833 16.293 15.2927L19.5859 11.9998L16.293 8.7068C15.9025 8.31632 15.9026 7.68327 16.293 7.29274Z" fill="oklch(0.3523 0 0 / 1)" class="wd-icon-fill"></path>
</g>
</svg>