<svg width="24" height="24" viewBox="0 0 24 24" xmlns="http://www.w3.org/2000/svg" class="wd-icon wd-icon-wi-fi-exclamation" role="presentation">
<g>
<path d="M11.9998 17.5C12.828 17.5003 13.4998 18.1718 13.4998 19C13.4998 19.8283 12.828 20.4997 11.9998 20.5C11.1714 20.5 10.4998 19.8284 10.4998 19C10.4998 18.1716 11.1714 17.5 11.9998 17.5Z" fill="oklch(0.3523 0 0 / 1)" class="wd-icon-fill"></path>
<path d="M11.9998 3.65039C12.3718 3.65053 12.7274 3.79285 12.9803 4.0459C13.2335 4.29904 13.3635 4.64212 13.3494 5C13.3436 5.15 13.3377 5.3002 13.3318 5.4502C13.2268 8.15005 13.1224 10.8499 13.0174 13.5498C13.0115 13.6998 13.0056 13.85 12.9998 14C12.9897 14.2551 12.8756 14.5003 12.6883 14.6807C12.5007 14.8609 12.2547 14.9618 11.9998 14.9619C11.7449 14.9619 11.499 14.8608 11.3113 14.6807C11.1239 14.5003 11.0098 14.2551 10.9998 14C10.994 13.85 10.988 13.6998 10.9822 13.5498C10.9695 13.2243 10.9568 12.8988 10.9441 12.5732L10.866 10.5693C10.8277 9.58398 10.7891 8.59766 10.7508 7.6123L10.6726 5.61133C10.6706 5.55795 10.6689 5.50357 10.6668 5.4502C10.6609 5.3002 10.655 5.15 10.6492 5C10.6351 4.64215 10.7652 4.29903 11.0183 4.0459C11.2713 3.79279 11.6277 3.65039 11.9998 3.65039Z" fill="oklch(0.3523 0 0 / 1)" class="wd-icon-fill"></path>
<path d="M8.96365 13.1299C8.40675 13.3726 7.88138 13.6812 7.40018 14.0488C6.96157 14.384 6.3317 14.39 5.94119 14C5.55073 13.6095 5.5471 12.9714 5.97635 12.624C6.68641 12.0496 7.47797 11.5794 8.32498 11.2285C8.50821 11.1526 8.6945 11.0837 8.88162 11.0195C8.90887 11.7218 8.93625 12.4249 8.96365 13.1299Z" fill="oklch(0.3523 0 0 / 1)" class="wd-icon-fill"></path>
<path d="M15.115 11.0371C15.2832 11.0959 15.451 11.1592 15.616 11.2275C16.463 11.5784 17.2544 12.0494 17.9646 12.624C18.3934 12.9713 18.3907 13.6096 18.0008 14C17.6104 14.3903 16.9805 14.3838 16.5418 14.0488C16.0765 13.6933 15.5694 13.3933 15.033 13.1543C15.0605 12.447 15.0877 11.7417 15.115 11.0371Z" fill="oklch(0.3523 0 0 / 1)" class="wd-icon-fill"></path>
<path d="M8.76346 7.97461C8.23135 8.11623 7.70699 8.29135 7.19608 8.50293C5.99101 9.00209 4.8728 9.68657 3.8826 10.5293C3.46224 10.887 2.83169 10.89 2.44119 10.5C2.0508 10.1096 2.04844 9.47401 2.46463 9.11133C3.64325 8.08515 4.9827 7.25399 6.43045 6.6543C7.16221 6.35126 7.9165 6.10953 8.68436 5.93066C8.7109 6.61348 8.73707 7.29447 8.76346 7.97461Z" fill="oklch(0.3523 0 0 / 1)" class="wd-icon-fill"></path>
<path d="M15.3133 5.94434C16.0614 6.12185 16.7969 6.3587 17.5105 6.6543C18.9582 7.25404 20.2969 8.08517 21.4754 9.11133C21.8912 9.47388 21.8897 10.1096 21.4998 10.5C21.1094 10.8904 20.4779 10.887 20.0574 10.5293C19.0674 9.68642 17.9497 9.00113 16.7449 8.50195C16.2521 8.29787 15.7468 8.12622 15.2342 7.9873C15.2605 7.30748 15.2867 6.62681 15.3133 5.94434Z" fill="oklch(0.3523 0 0 / 1)" class="wd-icon-fill"></path>
</g>
</svg>