<svg width="24" height="24" viewBox="0 0 24 24" xmlns="http://www.w3.org/2000/svg" class="wd-icon wd-icon-soccer-ball" role="presentation">
<g>
<path d="M13.9775 5.72168C14.3889 5.58986 14.8391 5.73723 15.0928 6.08691L17.2842 9.10742C17.5568 9.48349 17.5345 9.99847 17.2305 10.3496L14.9854 12.9404C14.6973 13.2726 14.2251 13.3776 13.8232 13.1992L10.5938 11.7637C10.2331 11.6032 10.0003 11.2453 10 10.8506V7.72852C10.0003 7.2944 10.281 6.91024 10.6943 6.77734L13.9775 5.72168Z" fill="oklch(0.3523 0 0 / 1)" class="wd-icon-fill"></path>
<path d="M12 1C18.075 1.0001 22.9999 5.92504 23 12C23 12.2964 22.9849 12.5904 22.9619 12.8809C22.9444 13.0964 22.922 13.3106 22.8926 13.5225C22.7891 14.2699 22.6101 14.993 22.3643 15.6846C22.3253 15.7941 22.2845 15.9029 22.2422 16.0107C22.2288 16.0449 22.2158 16.0793 22.2021 16.1133C21.9521 16.7329 21.6465 17.3242 21.293 17.8818C21.1946 18.0369 21.0921 18.1892 20.9863 18.3389C20.7774 18.6347 20.5547 18.9201 20.3184 19.1934C20.0842 19.464 19.8363 19.7222 19.5771 19.9688C19.4439 20.0955 19.3074 20.2188 19.168 20.3389C18.793 20.6615 18.3969 20.9601 17.9805 21.2305C17.8128 21.3394 17.6416 21.4431 17.4678 21.543C16.945 21.8431 16.3964 22.1032 15.8242 22.3154C15.7512 22.3425 15.6772 22.367 15.6035 22.3926C14.4742 22.7841 13.2625 23 12 23L11.4336 22.9854C11.0586 22.9663 10.6884 22.9287 10.3242 22.873C9.59623 22.7618 8.89143 22.5796 8.21777 22.333C7.88064 22.2096 7.55123 22.0696 7.23047 21.915C7.07052 21.838 6.91237 21.7573 6.75684 21.6729C5.35376 20.9107 4.13493 19.8519 3.18457 18.5811C1.81244 16.746 1.00006 14.4676 1 12C1.00013 5.92498 5.92495 1 12 1ZM12 3C10.563 3.00005 9.20503 3.33853 8 3.9375V5.94629C7.99973 6.29065 7.82223 6.61131 7.53027 6.79395L4.19922 8.87598C4.06936 8.95704 3.91871 8.99988 3.76562 9C3.68098 9 3.6007 8.98693 3.52637 8.96484C3.1867 9.91312 3.00002 10.9349 3 12C3.00003 12.9146 3.13797 13.7973 3.3916 14.6289L3.70215 13.542C3.86273 12.9807 4.46894 12.6758 5.01562 12.8809L7.50879 13.8154C7.81637 13.931 8.04822 14.191 8.12793 14.5098L8.80566 17.2217C8.91911 17.676 8.70184 18.1486 8.2832 18.3584L6.69824 19.1514C6.66387 19.1685 6.62723 19.1805 6.5918 19.1934C8.09738 20.327 9.97017 20.9999 12 21C12.3284 21 12.6533 20.9806 12.9727 20.9463L12.3496 19.6982C12.1446 19.288 12.2447 18.7908 12.5928 18.4922L15.0918 16.3506C15.3467 16.1322 15.6948 16.0552 16.0176 16.1475L18.2754 16.793C18.6749 16.9075 18.9552 17.2563 18.9922 17.6641C19.7711 16.7036 20.3558 15.5797 20.6875 14.3516L19.7646 10.9697C19.5931 10.3405 19.6318 9.67201 19.874 9.06641L20.1914 8.27148C19.4373 6.61756 18.1989 5.23071 16.6553 4.2959L15.4844 4.44043C15.179 4.47798 14.873 4.37269 14.6553 4.15527L13.6533 3.15332C13.1175 3.05384 12.5646 3.00003 12 3Z" fill="oklch(0.3523 0 0 / 1)" class="wd-icon-fill"></path>
</g>
</svg>