<svg width="24" height="24" viewBox="0 0 24 24" xmlns="http://www.w3.org/2000/svg" class="wd-icon wd-icon-face-unhappy" role="presentation">
<path d="M22 12C22 17.5228 17.5228 22 12 22C6.47715 22 2 17.5228 2 12C2 6.47715 6.47715 2 12 2C17.5228 2 22 6.47715 22 12Z" fill="transparent" class="wd-icon-background"></path>
<path d="M12 1C18.0751 1 23 5.92487 23 12C23 18.0751 18.0751 23 12 23C5.92487 23 1 18.0751 1 12C1 5.92487 5.92487 1 12 1ZM12 3C7.02944 3 3 7.02944 3 12C3 16.9706 7.02944 21 12 21C16.9706 21 21 16.9706 21 12C21 7.02944 16.9706 3 12 3Z" fill="oklch(0.3523 0 0 / 1)" class="wd-icon-fill"></path>
<g>
<path d="M12.0008 14C13.9971 14.0001 15.8345 14.6903 17.2849 15.8428C17.5011 16.0146 17.518 16.3323 17.3338 16.5381L16.6668 17.2832C16.4827 17.4886 16.1681 17.5045 15.949 17.3369C14.8543 16.4984 13.4863 16.0001 12.0008 16C10.515 16 9.14728 16.4983 8.05252 17.3369C7.83332 17.5048 7.51792 17.4889 7.33377 17.2832L6.66678 16.5381C6.48259 16.3323 6.49941 16.0146 6.71561 15.8428C8.16616 14.69 10.0041 14 12.0008 14Z" fill="oklch(0.3523 0 0 / 1)" class="wd-icon-accent"></path>
<path d="M9.49979 7C9.77593 7 9.99979 7.22386 9.99979 7.5V11.5C9.99979 11.7761 9.77593 12 9.49979 12H8.49979C8.22372 11.9999 7.99979 11.7761 7.99979 11.5V7.5C7.99979 7.22391 8.22372 7.00009 8.49979 7H9.49979Z" fill="oklch(0.3523 0 0 / 1)" class="wd-icon-accent"></path>
<path d="M15.4998 7C15.7759 7 15.9998 7.22386 15.9998 7.5V11.5C15.9998 11.7761 15.7759 12 15.4998 12H14.4998C14.2237 11.9999 13.9998 11.7761 13.9998 11.5V7.5C13.9998 7.22391 14.2237 7.00009 14.4998 7H15.4998Z" fill="oklch(0.3523 0 0 / 1)" class="wd-icon-accent"></path>
</g>
</svg>