<svg width="24" height="24" viewBox="0 0 24 24" xmlns="http://www.w3.org/2000/svg" class="wd-icon wd-icon-user-group" role="presentation">
<g>
<path d="M12.0005 17C12.8699 17 13.5708 17.1818 14.0591 17.4971C14.4693 17.762 14.7754 18.15 14.9155 18.7383C14.2966 18.8602 13.3108 19 12.0005 19C10.6895 19 9.70332 18.8602 9.08447 18.7383C9.22461 18.1499 9.5316 17.7621 9.94189 17.4971C10.4301 17.1818 11.1311 17 12.0005 17Z" fill="transparent" class="wd-icon-background"></path>
<path d="M12.0005 12C12.5527 12.0001 13.0005 12.4478 13.0005 13C13.0005 13.5522 12.5527 13.9999 12.0005 14C11.4483 13.9999 11.0005 13.5522 11.0005 13C11.0005 12.4478 11.4483 12.0001 12.0005 12Z" fill="transparent" class="wd-icon-background"></path>
</g>
<path d="M12.0001 10C13.6569 10 15.0001 11.3431 15.0001 13C15.0001 13.9096 14.5934 14.7223 13.9542 15.2725C14.3751 15.4012 14.7762 15.5792 15.1436 15.8164C16.0848 16.4242 16.7346 17.3733 16.9346 18.6367C17.0913 19.6278 16.411 20.4652 15.5264 20.6572C14.8022 20.8143 13.6059 21 12.0001 21C10.3942 21 9.19794 20.8143 8.4737 20.6572C7.5892 20.4652 6.90889 19.6277 7.06549 18.6367L7.10846 18.4033C7.34802 17.2558 7.97412 16.3862 8.85651 15.8164C9.22359 15.5794 9.62442 15.4012 10.045 15.2725C9.40614 14.7223 9.00006 13.9092 9.00006 13C9.00006 11.3432 10.3433 10.0001 12.0001 10ZM12.0001 17C11.1306 17 10.4297 17.1818 9.94147 17.4971C9.53116 17.7621 9.22418 18.1499 9.08405 18.7383C9.70288 18.8603 10.689 19 12.0001 19C13.3105 19 14.2962 18.8602 14.9151 18.7383C14.7749 18.1499 14.469 17.762 14.0587 17.4971C13.5704 17.1818 12.8695 17 12.0001 17ZM12.0001 12C11.4478 12.0001 11.0001 12.4478 11.0001 13C11.0001 13.5522 11.4478 13.9999 12.0001 14C12.5523 14 13.0001 13.5523 13.0001 13C13.0001 12.4477 12.5523 12 12.0001 12Z" fill="oklch(0.3523 0 0 / 1)" class="wd-icon-fill"></path>
<g>
<path d="M6.00007 4C7.65692 4 9.00007 5.34315 9.00007 7C9.00007 7.91577 8.58829 8.73391 7.94147 9.28418C8.36137 9.49009 8.59171 9.97049 8.46686 10.4395C8.32472 10.9728 7.7767 11.2902 7.24323 11.1484C6.87751 11.0511 6.45887 11 6.00007 11C5.13059 11 4.42974 11.1818 3.94147 11.4971C3.53114 11.7621 3.22419 12.1498 3.08405 12.7383C3.7029 12.8603 4.68894 13 6.00007 13C6.33753 13 6.65367 12.9911 6.94733 12.9756C7.49873 12.9465 7.96979 13.3695 7.99909 13.9209C8.02829 14.4724 7.60431 14.9435 7.0528 14.9727C6.72455 14.99 6.37333 15 6.00007 15C4.3942 15 3.19796 14.8143 2.4737 14.6572C1.58917 14.4652 0.908887 13.6277 1.0655 12.6367L1.10847 12.4033C1.34803 11.2558 1.9741 10.3862 2.85651 9.81641C3.22361 9.57938 3.6244 9.40123 4.04499 9.27246C3.40612 8.7223 3.00007 7.90925 3.00007 7C3.00007 5.34317 4.34325 4.00004 6.00007 4ZM6.00007 6C5.44781 6.00004 5.00007 6.44774 5.00007 7C5.00007 7.55226 5.44781 7.99996 6.00007 8C6.55235 8 7.00007 7.55228 7.00007 7C7.00007 6.44772 6.55235 6 6.00007 6Z" fill="oklch(0.3523 0 0 / 1)" class="wd-icon-accent"></path>
<path d="M18.0001 4C19.6569 4 21.0001 5.34315 21.0001 7C21.0001 7.90955 20.5934 8.72229 19.9542 9.27246C20.3751 9.40125 20.7762 9.5792 21.1436 9.81641C22.0261 10.3862 22.6521 11.2558 22.8917 12.4033L22.9346 12.6367C23.0913 13.6278 22.411 14.4652 21.5264 14.6572C20.8022 14.8143 19.6059 15 18.0001 15C17.6268 15 17.2756 14.99 16.9473 14.9727C16.3959 14.9434 15.9718 14.4724 16.001 13.9209C16.0303 13.3695 16.5014 12.9465 17.0528 12.9756C17.3465 12.9911 17.6626 13 18.0001 13C19.3112 13 20.2972 12.8603 20.9161 12.7383C20.7759 12.1498 20.469 11.7621 20.0587 11.4971C19.5704 11.1818 18.8695 11 18.0001 11C17.5413 11 17.1226 11.0511 16.7569 11.1484C16.2235 11.2901 15.6754 10.9728 15.5333 10.4395C15.4085 9.97083 15.6384 9.49034 16.0577 9.28418C15.4112 8.73391 15.0001 7.91546 15.0001 7C15.0001 5.34317 16.3432 4.00004 18.0001 4ZM18.0001 6C17.4478 6.00004 17.0001 6.44774 17.0001 7C17.0001 7.55226 17.4478 7.99996 18.0001 8C18.5524 8 19.0001 7.55228 19.0001 7C19.0001 6.44772 18.5524 6 18.0001 6Z" fill="oklch(0.3523 0 0 / 1)" class="wd-icon-accent"></path>
</g>
</svg>