<svg width="24" height="24" viewBox="0 0 24 24" xmlns="http://www.w3.org/2000/svg" class="wd-icon wd-icon-pointer-up-right" role="presentation">
<path d="M13.459 18.5557L11.6025 13.5166C11.411 12.9967 11.0014 12.5861 10.4814 12.3945L5.44141 10.5391L17.4619 6.53613L13.459 18.5557Z" fill="transparent" class="wd-icon-background"></path>
<path d="M16.864 4.73978C18.3428 4.24739 19.7499 5.65454 19.2576 7.13333L15.2547 19.1538C14.6892 20.8507 12.3018 20.888 11.6834 19.2095L9.8279 14.1704L4.78786 12.314C3.10952 11.6956 3.14681 9.30823 4.84352 8.74271L16.864 4.73978ZM5.44216 10.5386L10.4812 12.3951C11.0011 12.5866 11.4117 12.9962 11.6033 13.5161L13.4588 18.5552L17.4617 6.53568L5.44216 10.5386Z" fill="oklch(0.3523 0 0 / 1)" class="wd-icon-fill"></path>
</svg>