<svg width="24" height="24" viewBox="0 0 24 24" xmlns="http://www.w3.org/2000/svg" class="wd-icon wd-icon-door-open-right" role="presentation">
<g>
<path d="M14.7998 2C15.3434 2 15.8116 1.99893 16.1953 2.03028C16.5906 2.06259 16.984 2.1344 17.3623 2.32715C17.9265 2.61473 18.3853 3.07348 18.6729 3.6377C18.8656 4.016 18.9374 4.40944 18.9697 4.80469C19.0011 5.18836 19 5.65665 19 6.2002V21C19 21.5523 18.5523 22 18 22C17.4477 22 17 21.5523 17 21V6.2002C17 5.62365 16.9987 5.25111 16.9756 4.96778C16.9534 4.69619 16.9158 4.59534 16.8906 4.5459C16.7948 4.35794 16.6421 4.20522 16.4541 4.10938C16.4047 4.08419 16.3038 4.04661 16.0322 4.02442C15.7489 4.00127 15.3764 4 14.7998 4H9.2002C8.62365 4 8.25111 4.00127 7.96778 4.02442C7.69619 4.04662 7.59534 4.08419 7.5459 4.10938C7.35793 4.20522 7.20522 4.35793 7.10938 4.5459C7.08419 4.59534 7.04662 4.69619 7.02442 4.96778C7.00127 5.25111 7 5.62365 7 6.2002V21C7 21.5523 6.55229 22 6 22C5.44772 22 5 21.5523 5 21V6.2002C5 5.65665 4.99893 5.18836 5.03028 4.80469C5.06259 4.40944 5.1344 4.016 5.32715 3.6377C5.61473 3.07348 6.07348 2.61473 6.6377 2.32715C7.016 2.1344 7.40944 2.06259 7.80469 2.03028C8.18836 1.99893 8.65665 2 9.2002 2H14.7998Z" fill="oklch(0.3523 0 0 / 1)" class="wd-icon-fill"></path>
<path d="M14.6338 5.59082C15.0808 5.51944 15.4998 5.86413 15.5 6.33106V21.1689C15.4998 21.667 15.0229 22.0265 14.544 21.8897L11.5439 21.0322C11.2221 20.9402 11 20.6463 11 20.3115V7.18848C11 6.8537 11.2221 6.5598 11.5439 6.46778L14.544 5.61036L14.6338 5.59082Z" fill="oklch(0.3523 0 0 / 1)" class="wd-icon-fill"></path>
</g>
</svg>