<svg width="24" height="24" viewBox="0 0 24 24" xmlns="http://www.w3.org/2000/svg" class="wd-icon wd-icon-background-color" role="presentation">
<g>
<path d="M10.5855 2.49959C11.3664 1.71877 12.6326 1.719 13.4136 2.49959L19.4996 8.58553C20.2805 9.36656 20.2805 10.6326 19.4996 11.4137L13.4136 17.4996C12.6326 18.2805 11.3665 18.2805 10.5855 17.4996L4.49956 11.4137C3.719 10.6326 3.7188 9.36645 4.49956 8.58553L10.5855 2.49959ZM5.91362 9.99959H18.0855L11.9996 3.91366L5.91362 9.99959Z" fill="oklch(0.3523 0 0 / 1)" class="wd-icon-fill"></path>
<path d="M20.7818 12.3931C20.8771 12.222 21.123 12.2219 21.2183 12.3931L22.7212 15.0972C23.1749 15.9138 22.992 16.9374 22.2837 17.5465C21.5458 18.181 20.4543 18.181 19.7164 17.5465C19.0081 16.9374 18.8252 15.9138 19.2789 15.0972L20.7818 12.3931Z" fill="oklch(0.3523 0 0 / 1)" class="wd-icon-fill"></path>
</g>
<path d="M21 20.5C21 20.7761 20.7761 21 20.5 21H3.5C3.22386 21 3 20.7761 3 20.5V19.5C3 19.2239 3.22386 19 3.5 19H20.5C20.7761 19 21 19.2239 21 19.5V20.5Z" fill="oklch(0.3523 0 0 / 1)" class="wd-icon-accent"></path>
</svg>