<svg width="24" height="24" viewBox="0 0 24 24" xmlns="http://www.w3.org/2000/svg" class="wd-icon wd-icon-document-face-unhappy" role="presentation">
<g>
<path d="M11.998 15.0001C12.9935 14.9945 13.9471 15.4343 14.6016 16.0782C14.6749 16.1494 14.7452 16.2231 14.8125 16.2989C14.8924 16.3923 14.9469 16.5091 14.9561 16.6339C14.9652 16.7586 14.9287 16.8804 14.8525 16.9747C14.7763 17.0689 14.6649 17.1303 14.541 17.1475C14.4172 17.1647 14.2916 17.1357 14.1836 17.0772C14.1096 17.0388 14.0357 17.0014 13.9619 16.9669C13.2958 16.6545 12.6416 16.4997 11.998 16.5001C11.3545 16.4997 10.7003 16.6545 10.0342 16.9669C9.96039 17.0014 9.88648 17.0388 9.8125 17.0772C9.70447 17.1357 9.57888 17.1647 9.45508 17.1475C9.33122 17.1303 9.21976 17.0689 9.14356 16.9747C9.06737 16.8804 9.0309 16.7586 9.04004 16.6339C9.04918 16.5091 9.10366 16.3923 9.1836 16.2989C9.25087 16.2231 9.32117 16.1494 9.39453 16.0782C10.049 15.4343 11.0026 14.9945 11.998 15.0001Z" fill="oklch(0.3523 0 0 / 1)" class="wd-icon-fill"></path>
<path d="M9.74805 11.001C10.1623 11.001 10.498 11.3368 10.498 11.751V13.251C10.4978 13.6651 10.1621 14.001 9.74805 14.001C9.33398 14.001 8.99828 13.6651 8.99805 13.251V11.751C8.99805 11.3368 9.33384 11.001 9.74805 11.001Z" fill="oklch(0.3523 0 0 / 1)" class="wd-icon-fill"></path>
<path d="M14.248 11.001C14.6623 11.001 14.998 11.3368 14.998 11.751V13.251C14.9978 13.6651 14.6621 14.001 14.248 14.001C13.834 14.001 13.4983 13.6651 13.498 13.251V11.751C13.498 11.3368 13.8338 11.001 14.248 11.001Z" fill="oklch(0.3523 0 0 / 1)" class="wd-icon-fill"></path>
<path d="M11.0098 1.00007C11.6959 1.00007 12.2023 0.993481 12.6895 1.11042C13.0975 1.20841 13.4879 1.37065 13.8457 1.58991C14.2726 1.85163 14.6263 2.21427 15.1113 2.69929L18.2988 5.88679C18.7838 6.37179 19.1465 6.7255 19.4082 7.15241C19.6275 7.5102 19.7897 7.90064 19.8877 8.30866C20.0046 8.79575 19.998 9.30224 19.998 9.98835V17.2003C19.998 18.0237 19.9991 18.7017 19.9541 19.252C19.9082 19.814 19.8097 20.3312 19.5625 20.8165C19.179 21.569 18.5669 22.181 17.8145 22.5645C17.3292 22.8118 16.8121 22.9102 16.25 22.9561C15.6996 23.0011 15.0217 23.0001 14.1982 23.0001H9.79785C8.97437 23.0001 8.29647 23.0011 7.7461 22.9561C7.18405 22.9102 6.66694 22.8118 6.18164 22.5645C5.42916 22.181 4.81705 21.569 4.4336 20.8165C4.18636 20.3312 4.08792 19.814 4.04199 19.252C3.99704 18.7017 3.99805 18.0237 3.99805 17.2003V6.79987C3.99805 5.97644 3.99703 5.29846 4.04199 4.74811C4.08793 4.18611 4.18634 3.66893 4.4336 3.18366C4.81707 2.4312 5.42917 1.81907 6.18164 1.43561C6.66693 1.18836 7.18406 1.08994 7.7461 1.04401C8.29647 0.999046 8.97437 1.00007 9.79785 1.00007H11.0098ZM9.79785 3.00007C8.94147 3.00007 8.35922 3.00042 7.90918 3.03718C7.47081 3.07299 7.24624 3.13816 7.08985 3.21784C6.71363 3.40956 6.40756 3.71566 6.21582 4.09186C6.13614 4.24825 6.07098 4.47287 6.03516 4.9112C5.9984 5.36121 5.99805 5.94356 5.99805 6.79987V17.2003C5.99805 18.0566 5.99841 18.6389 6.03516 19.0889C6.07097 19.5272 6.13616 19.7519 6.21582 19.9083C6.40755 20.2845 6.71362 20.5906 7.08985 20.7823C7.24624 20.862 7.47078 20.9271 7.90918 20.963C8.35922 20.9997 8.94147 21.0001 9.79785 21.0001H14.1982C15.0546 21.0001 15.6369 20.9997 16.0869 20.963C16.5253 20.9271 16.7499 20.862 16.9063 20.7823C17.2825 20.5906 17.5885 20.2845 17.7803 19.9083C17.8599 19.7519 17.9251 19.5273 17.9609 19.0889C17.9977 18.6389 17.998 18.0566 17.998 17.2003V10.0001H13.998C12.8935 10.0001 11.998 9.10464 11.998 8.00007V3.02155C11.8122 3.00453 11.537 3.00007 11.0098 3.00007H9.79785ZM13.498 8.00007C13.498 8.27621 13.7219 8.50007 13.998 8.50007H17.8545C17.8126 8.39526 17.7622 8.29377 17.7031 8.19733C17.5938 8.01915 17.4368 7.85288 16.8848 7.30085L13.6973 4.11335C13.6246 4.04064 13.5583 3.9749 13.498 3.91511V8.00007Z" fill="oklch(0.3523 0 0 / 1)" class="wd-icon-fill"></path>
</g>
</svg>