<svg width="24" height="24" viewBox="0 0 24 24" xmlns="http://www.w3.org/2000/svg" class="wd-icon wd-icon-number-input" role="presentation">
<g>
<path d="M12 19C12.8284 19 13.5 19.6716 13.5 20.5C13.5 21.3284 12.8284 22 12 22C11.1716 22 10.5 21.3284 10.5 20.5C10.5 19.6716 11.1716 19 12 19Z" fill="oklch(0.3523 0 0 / 1)" class="wd-icon-fill"></path>
<path d="M7 14C7.82843 14 8.5 14.6716 8.5 15.5C8.5 16.3284 7.82843 17 7 17C6.17157 17 5.5 16.3284 5.5 15.5C5.5 14.6716 6.17157 14 7 14Z" fill="oklch(0.3523 0 0 / 1)" class="wd-icon-fill"></path>
<path d="M12 14C12.8284 14 13.5 14.6716 13.5 15.5C13.5 16.3284 12.8284 17 12 17C11.1716 17 10.5 16.3284 10.5 15.5C10.5 14.6716 11.1716 14 12 14Z" fill="oklch(0.3523 0 0 / 1)" class="wd-icon-fill"></path>
<path d="M17 14C17.8284 14 18.5 14.6716 18.5 15.5C18.5 16.3284 17.8284 17 17 17C16.1716 17 15.5 16.3284 15.5 15.5C15.5 14.6716 16.1716 14 17 14Z" fill="oklch(0.3523 0 0 / 1)" class="wd-icon-fill"></path>
<path d="M7 9C7.82843 9 8.5 9.67157 8.5 10.5C8.5 11.3284 7.82843 12 7 12C6.17157 12 5.5 11.3284 5.5 10.5C5.5 9.67157 6.17157 9 7 9Z" fill="oklch(0.3523 0 0 / 1)" class="wd-icon-fill"></path>
<path d="M12 9C12.8284 9 13.5 9.67157 13.5 10.5C13.5 11.3284 12.8284 12 12 12C11.1716 12 10.5 11.3284 10.5 10.5C10.5 9.67157 11.1716 9 12 9Z" fill="oklch(0.3523 0 0 / 1)" class="wd-icon-fill"></path>
<path d="M17 9C17.8284 9 18.5 9.67157 18.5 10.5C18.5 11.3284 17.8284 12 17 12C16.1716 12 15.5 11.3284 15.5 10.5C15.5 9.67157 16.1716 9 17 9Z" fill="oklch(0.3523 0 0 / 1)" class="wd-icon-fill"></path>
<path d="M7 4C7.82843 4 8.5 4.67157 8.5 5.5C8.5 6.32843 7.82843 7 7 7C6.17157 7 5.5 6.32843 5.5 5.5C5.5 4.67157 6.17157 4 7 4Z" fill="oklch(0.3523 0 0 / 1)" class="wd-icon-fill"></path>
<path d="M12 4C12.8284 4 13.5 4.67157 13.5 5.5C13.5 6.32843 12.8284 7 12 7C11.1716 7 10.5 6.32843 10.5 5.5C10.5 4.67157 11.1716 4 12 4Z" fill="oklch(0.3523 0 0 / 1)" class="wd-icon-fill"></path>
<path d="M17 4C17.8284 4 18.5 4.67157 18.5 5.5C18.5 6.32843 17.8284 7 17 7C16.1716 7 15.5 6.32843 15.5 5.5C15.5 4.67157 16.1716 4 17 4Z" fill="oklch(0.3523 0 0 / 1)" class="wd-icon-fill"></path>
</g>
</svg>