<svg width="24" height="24" viewBox="0 0 24 24" xmlns="http://www.w3.org/2000/svg" class="wd-icon wd-icon-briefcase-search" role="presentation">
<path d="M12 2C14.2091 2 16 3.79086 16 6H16.1982C17.0217 6 17.6996 5.99898 18.25 6.04395C18.8121 6.08987 19.3292 6.18827 19.8145 6.43555C20.567 6.81902 21.179 7.43109 21.5625 8.18359C21.7948 8.63948 21.8948 9.1228 21.9443 9.64453C21.9928 10.1547 21.9975 10.7681 21.998 11.499C21.9985 12.0512 21.5512 12.4994 20.999 12.5C20.4468 12.5004 19.9986 12.0532 19.998 11.501C19.9975 10.7499 19.992 10.2335 19.9541 9.83398C19.9172 9.44595 19.8549 9.23826 19.7803 9.0918C19.5885 8.71554 19.2825 8.40951 18.9063 8.21777C18.7499 8.13808 18.5253 8.07293 18.0869 8.03711C17.6369 8.00035 17.0546 8 16.1982 8H7.79785C6.94146 8 6.35922 8.00035 5.90918 8.03711C5.47077 8.07293 5.24625 8.13808 5.08985 8.21777C4.71359 8.40951 4.40756 8.71554 4.21582 9.0918C4.13793 9.24467 4.07439 9.46267 4.03809 9.88184C4.05175 9.96502 4.06636 10.0103 4.0791 10.04C4.15064 10.2066 4.26605 10.351 4.41309 10.457C4.45496 10.4872 4.53426 10.5326 4.74414 10.5957C4.9661 10.6624 5.2595 10.7286 5.72071 10.8311L12.2148 12.2734C12.7539 12.3932 13.0943 12.9277 12.9746 13.4668C12.8548 14.0059 12.3203 14.3462 11.7813 14.2266L5.28711 12.7832C4.85424 12.687 4.47649 12.6035 4.16797 12.5107C4.11079 12.4936 4.0546 12.4734 3.99805 12.4541V15.2002C3.99805 16.0566 3.9984 16.6388 4.03516 17.0889C4.07098 17.5273 4.13613 17.7518 4.21582 17.9082C4.40756 18.2845 4.71359 18.5905 5.08985 18.7822C5.24625 18.8619 5.47077 18.9271 5.90918 18.9629C6.35922 18.9997 6.94146 19 7.79785 19H11.998C12.5503 19 12.998 19.4477 12.998 20C12.998 20.5523 12.5503 21 11.998 21H7.79785C6.97436 21 6.29647 21.001 5.7461 20.9561C5.18404 20.9101 4.66695 20.8117 4.18164 20.5645C3.42914 20.181 2.81706 19.5689 2.4336 18.8164C2.18632 18.3311 2.08792 17.814 2.04199 17.252C1.99703 16.7016 1.99805 16.0237 1.99805 15.2002V11.7998C1.99805 10.9763 1.99703 10.2984 2.04199 9.74805C2.08792 9.18599 2.18632 8.6689 2.4336 8.18359C2.81706 7.43109 3.42914 6.81902 4.18164 6.43555C4.66695 6.18827 5.18404 6.08987 5.7461 6.04395C6.29648 5.99898 6.97436 6 7.79785 6H8C8 3.79086 9.79086 2 12 2ZM12 4C10.8954 4 10 4.89543 10 6H14C14 4.89543 13.1046 4 12 4Z" fill="oklch(0.3523 0 0 / 1)" class="wd-icon-fill"></path>
<path d="M18 13C20.2091 13 22 14.7909 22 17C22 17.8334 21.7437 18.6064 21.3076 19.2471L22.7803 20.7197C23.0731 21.0126 23.0731 21.4874 22.7803 21.7803C22.4874 22.073 22.0126 22.0731 21.7197 21.7803L20.2471 20.3076C19.6064 20.7437 18.8334 21 18 21C15.7909 21 14 19.2091 14 17C14 14.7909 15.7909 13 18 13ZM18 14.5C16.6193 14.5 15.5 15.6193 15.5 17C15.5 18.3807 16.6193 19.5 18 19.5C19.3807 19.5 20.5 18.3807 20.5 17C20.5 15.6193 19.3807 14.5 18 14.5Z" fill="oklch(0.3523 0 0 / 1)" class="wd-icon-accent"></path>
</svg>