<svg width="24" height="24" viewBox="0 0 24 24" xmlns="http://www.w3.org/2000/svg" class="wd-icon wd-icon-distribute" role="presentation">
<path d="M12.1024 3.00488C12.6065 3.05629 12.9999 3.48238 12.9999 4V6.01172C12.9999 6.79309 13.0067 7.0212 13.0556 7.22461C13.1046 7.42851 13.1852 7.62393 13.2948 7.80273C13.4041 7.98093 13.5611 8.14716 14.1132 8.69922L16.3007 10.8867C16.7857 11.3717 17.1483 11.7254 17.4101 12.1523C17.6293 12.5102 17.7916 12.9006 17.8895 13.3086C18.0065 13.7957 17.9999 14.3021 17.9999 14.9883V16.5859L19.2929 15.293C19.6834 14.9025 20.3164 14.9025 20.7069 15.293C21.0974 15.6835 21.0974 16.3165 20.7069 16.707L17.7069 19.707C17.3164 20.0975 16.6834 20.0975 16.2929 19.707L13.2929 16.707C12.9024 16.3165 12.9024 15.6835 13.2929 15.293C13.6834 14.9025 14.3164 14.9025 14.7069 15.293L15.9999 16.5859V14.9883C15.9999 14.207 15.9931 13.9788 15.9442 13.7754C15.8952 13.5715 15.8145 13.3761 15.705 13.1973C15.5957 13.0191 15.4387 12.8529 14.8866 12.3008L12.6991 10.1133C12.4292 9.84334 12.1977 9.61347 11.9999 9.38965C11.8021 9.6135 11.5707 9.84331 11.3007 10.1133L9.11318 12.3008C8.56112 12.8528 8.40411 13.0191 8.29482 13.1973C8.18525 13.3761 8.10457 13.5715 8.05556 13.7754C8.00673 13.9788 7.9999 14.2069 7.9999 14.9883V16.5859L9.29287 15.293C9.68338 14.9025 10.3164 14.9025 10.7069 15.293C11.0974 15.6835 11.0974 16.3165 10.7069 16.707L7.70693 19.707C7.31642 20.0975 6.68338 20.0975 6.29287 19.707L3.29287 16.707C2.90236 16.3165 2.90239 15.6835 3.29287 15.293C3.68339 14.9025 4.31642 14.9025 4.70693 15.293L5.9999 16.5859V14.9883C5.9999 14.3021 5.9933 13.7957 6.11025 13.3086C6.20824 12.9005 6.37047 12.5102 6.58974 12.1523C6.85147 11.7254 7.2141 11.3717 7.69912 10.8867L9.88662 8.69922C10.4387 8.14715 10.5957 7.98095 10.705 7.80273C10.8145 7.62394 10.8952 7.4285 10.9442 7.22461C10.9931 7.02121 10.9999 6.79304 10.9999 6.01172V4C10.9999 3.96539 11.0013 3.93117 11.0048 3.89746C11.0561 3.39334 11.4822 3 11.9999 3L12.1024 3.00488Z" fill="oklch(0.3523 0 0 / 1)" class="wd-icon-fill"></path>
</svg>