<svg width="24" height="24" viewBox="0 0 24 24" xmlns="http://www.w3.org/2000/svg" class="wd-icon wd-icon-arrow-arc" role="presentation">
<path d="M7.29328 15.7068C6.90292 15.3163 6.90287 14.6832 7.29328 14.2927L11.2933 10.2927C11.6838 9.90243 12.3169 9.90241 12.7073 10.2927L16.7073 14.2927C17.0974 14.6832 17.0976 15.3164 16.7073 15.7068C16.317 16.0972 15.6838 16.0969 15.2933 15.7068L12.9993 13.4129V20.9998C12.9991 21.5519 12.5515 21.9998 11.9993 21.9998C11.4474 21.9995 10.9995 21.5517 10.9993 20.9998L10.9993 13.4148L8.70734 15.7068C8.31697 16.0971 7.68382 16.0968 7.29328 15.7068Z" fill="oklch(0.3523 0 0 / 1)" class="wd-icon-fill"></path>
<path d="M12 3C13.1819 3 14.3524 3.23325 15.4443 3.68555C16.5361 4.13784 17.5286 4.8001 18.3643 5.63574C19.1999 6.47139 19.8622 7.46386 20.3145 8.55566C20.7667 9.64759 21 10.8181 21 12C21 12.5523 20.5523 13 20 13C19.4477 13 19 12.5523 19 12C19 11.0807 18.8186 10.1706 18.4668 9.32129C18.115 8.47204 17.6002 7.6998 16.9502 7.0498C16.3002 6.39981 15.528 5.88499 14.6787 5.5332C13.8294 5.18142 12.9193 5 12 5C11.0807 5 10.1706 5.18142 9.32129 5.5332C8.47204 5.88499 7.6998 6.39981 7.0498 7.0498C6.39981 7.6998 5.88499 8.47204 5.5332 9.32129C5.18142 10.1706 5 11.0807 5 12C5 12.5523 4.55228 13 4 13C3.44772 13 3 12.5523 3 12C3 10.8181 3.23325 9.64759 3.68555 8.55566C4.13784 7.46386 4.8001 6.47139 5.63574 5.63574C6.47139 4.8001 7.46386 4.13784 8.55566 3.68555C9.64759 3.23325 10.8181 3 12 3Z" fill="oklch(0.3523 0 0 / 1)" class="wd-icon-accent"></path>
</svg>