<svg width="24" height="24" viewBox="0 0 24 24" xmlns="http://www.w3.org/2000/svg" class="wd-icon wd-icon-cart" role="presentation">
<path d="M18.7012 10.1426C18.6264 11.189 17.7561 11.9998 16.707 12H7.5459L6.83105 7H18.9258L18.7012 10.1426Z" fill="transparent" class="wd-icon-background"></path>
<g>
<path d="M8.5 19C9.32843 19 10 19.6716 10 20.5C9.99981 21.3283 9.32831 22 8.5 22C7.67169 22 7.00019 21.3283 7 20.5C7 19.6716 7.67157 19 8.5 19Z" fill="oklch(0.3523 0 0 / 1)" class="wd-icon-fill"></path>
<path d="M17 19C17.8284 19 18.5 19.6716 18.5 20.5C18.4998 21.3283 17.8283 22 17 22C16.1717 22 15.5002 21.3283 15.5 20.5C15.5 19.6716 16.1716 19 17 19Z" fill="oklch(0.3523 0 0 / 1)" class="wd-icon-fill"></path>
<path d="M4.38281 2C5.37793 2.00005 6.22138 2.73173 6.3623 3.7168L6.5459 5H19.4629C20.3333 5 21.0208 5.73832 20.959 6.60645L20.6963 10.2852C20.5465 12.378 18.8052 13.9998 16.707 14H7.83203L7.87207 14.2832C8.01312 15.268 8.85664 15.9998 9.85156 16H19C19.5523 16 20 16.4477 20 17C19.9998 17.5521 19.5522 18 19 18H9.85156C7.86122 17.9998 6.17325 16.5357 5.8916 14.5654L4.38281 4H3C2.44783 4 2.00019 3.55212 2 3C2 2.44772 2.44772 2 3 2H4.38281ZM7.5459 12H16.707C17.756 11.9998 18.6262 11.1888 18.7012 10.1426L18.9258 7H6.83105L7.5459 12Z" fill="oklch(0.3523 0 0 / 1)" class="wd-icon-fill"></path>
</g>
</svg>