<svg width="24" height="24" viewBox="0 0 24 24" xmlns="http://www.w3.org/2000/svg" class="wd-icon wd-icon-ranking" role="presentation">
<g>
<path d="M15 9C15.5523 9 16 9.44772 16 10V13H22C22.5523 13 23 13.4477 23 14V19C23 19.5523 22.5523 20 22 20H2C1.44772 20 1 19.5523 1 19V13C1 12.4477 1.44772 12 2 12H8V10C8 9.44772 8.44772 9 9 9H15ZM3 18H8V14H3V18ZM10 18H14V11H10V18ZM16 18H21V15H16V18Z" fill="oklch(0.3523 0 0 / 1)" class="wd-icon-fill"></path>
<path d="M19.4746 5.5293C20.9686 5.5293 21.8056 6.21302 21.8057 7.16699C21.8057 7.87799 21.3465 8.48966 20.4375 8.59766V8.61621C21.4095 8.75121 22.0039 9.39025 22.0039 10.2812C22.0038 11.4061 21.0679 12.1709 19.457 12.1709C18.0499 12.1709 17.1232 11.6215 16.9053 10.5469C16.8504 10.2751 17.0821 10.0469 17.3594 10.0469H17.9834C18.2566 10.0471 18.4616 10.2772 18.5693 10.5283C18.7138 10.8645 19.02 11.0547 19.4482 11.0547C20.0421 11.0546 20.3838 10.6946 20.3838 10.1367C20.3837 9.57899 20.0419 9.26374 19.3672 9.26367H19.0664C18.7903 9.26367 18.5664 9.03981 18.5664 8.76367V8.64844C18.5664 8.3723 18.7903 8.14844 19.0664 8.14844H19.2412C19.8441 8.14836 20.1855 7.87795 20.1855 7.37402C20.1855 6.88807 19.871 6.64554 19.457 6.64551C19.1892 6.64551 18.9611 6.7414 18.8213 6.92383C18.6557 7.14 18.4559 7.38264 18.1836 7.38281H17.5576C17.2801 7.38277 17.0466 7.1525 17.1162 6.88379C17.3454 5.99924 18.1946 5.52938 19.4746 5.5293Z" fill="oklch(0.3523 0 0 / 1)" class="wd-icon-fill"></path>
<path d="M4.53125 4.57422C5.94425 4.57422 6.82617 5.21329 6.82617 6.44629C6.82604 7.52608 6.15141 8.04801 4.93652 8.66895L4.27051 9.00195C3.73054 9.28094 3.62305 9.4703 3.62305 9.82129H6.38086C6.65686 9.82145 6.88086 10.0452 6.88086 10.3213V10.5C6.88085 10.776 6.65686 10.9998 6.38086 11H2.60156C2.32543 11 2.10158 10.7761 2.10156 10.5V10.1992C2.10156 9.03831 2.52434 8.51574 3.8291 7.84082L4.36035 7.57129C4.96335 7.25629 5.19727 6.94052 5.19727 6.43652C5.19712 5.92384 4.95413 5.69043 4.53125 5.69043C4.21221 5.69052 3.97574 5.82497 3.86133 6.125C3.76306 6.38307 3.56032 6.61719 3.28418 6.61719H2.67383C2.39769 6.61719 2.16603 6.3902 2.21875 6.11914C2.41659 5.1028 3.25038 4.5743 4.53125 4.57422Z" fill="oklch(0.3523 0 0 / 1)" class="wd-icon-fill"></path>
<path d="M12.5273 1.7002C12.8034 1.70024 13.0273 1.92408 13.0273 2.2002V7.5C13.0273 7.77609 12.8034 7.99996 12.5273 8H12.0244C11.7483 8 11.5244 7.77612 11.5244 7.5V3.64355H11.5059C11.3529 4.06655 11.029 4.23828 10.543 4.23828C10.2946 4.23812 10.0938 4.03645 10.0938 3.78809V3.5498C10.0938 3.27389 10.3169 3.05007 10.5928 3.0498H10.6152C11.2632 3.0498 11.5332 2.73498 11.5332 2.12305C11.5332 1.8895 11.7225 1.70031 11.9561 1.7002H12.5273Z" fill="oklch(0.3523 0 0 / 1)" class="wd-icon-fill"></path>
</g>
</svg>