<svg width="24" height="24" viewBox="0 0 24 24" xmlns="http://www.w3.org/2000/svg" class="wd-icon wd-icon-arrow-corner-up-left" role="presentation">
<path d="M6.4091 2.25295C6.58384 2.03959 6.89953 2.00733 7.1132 2.18166L7.88762 2.81447C8.10141 2.98922 8.13263 3.30478 7.95793 3.51857L5.11027 6.99904H11.9999C16.9702 6.99921 20.9997 11.0288 20.9999 15.999V20.5C20.9999 20.7762 20.7761 21 20.4999 21H19.4999C19.224 20.9998 18.9999 20.776 18.9999 20.5V15.999C18.9997 12.1333 15.8656 8.99921 11.9999 8.99904H5.11027L7.14934 11.4912L7.14836 11.4922L7.95695 12.4795C8.13164 12.6932 8.10014 13.0078 7.88664 13.1826L7.1132 13.8154C6.89951 13.9903 6.58398 13.9588 6.4091 13.7451L4.79191 11.7696C4.78969 11.7668 4.78724 11.7635 4.78508 11.7608L2.22551 8.63186C1.92491 8.26369 1.92475 7.73431 2.22551 7.36623L6.4091 2.25295Z" fill="oklch(0.3523 0 0 / 1)" class="wd-icon-fill"></path>
</svg>