<svg width="24" height="24" viewBox="0 0 24 24" xmlns="http://www.w3.org/2000/svg" class="wd-icon wd-icon-hour-glass" role="presentation">
<path d="M10.0556 12C8.15541 9.87697 7 7.07342 7 4L7 2L17 2V4C17 7.07342 15.8446 9.87697 13.9444 12C15.8446 14.123 17 16.9266 17 20V22H7L7 20C7 16.9266 8.15541 14.123 10.0556 12Z" fill="transparent" class="wd-icon-background"></path>
<g>
<path d="M13.4316 6.81152C13.8329 6.70026 14.2699 7.03003 14.1562 7.43066C13.7993 8.68919 13.1777 9.86073 12.3623 10.8818C12.1757 11.115 11.8253 11.115 11.6387 10.8818C10.8232 9.86068 10.2007 8.68927 9.84375 7.43066C9.73012 7.02998 10.168 6.70004 10.5693 6.81152C10.9696 6.92271 11.4464 6.99996 12 7C12.5538 6.99997 13.0313 6.9227 13.4316 6.81152Z" fill="oklch(0.3523 0 0 / 1)" class="wd-icon-fill"></path>
<path d="M19.5 1C19.7761 1 20 1.22386 20 1.5V2.5C20 2.77614 19.7761 3 19.5 3H18V4L17.9854 4.62109C17.8546 7.39807 16.8492 9.94626 15.2432 12C16.9682 14.206 18 16.9827 18 20V21H19.5C19.776 21 19.9998 21.224 20 21.5V22.5C20 22.7761 19.7761 23 19.5 23H4.5C4.22386 23 4 22.7761 4 22.5V21.5C4.00017 21.224 4.22396 21 4.5 21H6V20C6 16.9829 7.03102 14.2059 8.75586 12C7.03102 9.79412 6 7.01707 6 4V3H4.5C4.22386 3 4 2.77614 4 2.5V1.5C4 1.22386 4.22386 1 4.5 1H19.5ZM8 4C8 6.81794 9.05838 9.38624 10.8008 11.333C11.1406 11.7127 11.1406 12.2873 10.8008 12.667C9.05838 14.6138 8 17.1821 8 20V21H9L11.6465 18.3535C11.8417 18.1583 12.1583 18.1583 12.3535 18.3535L15 21H16V20C16 17.1821 14.9416 14.6138 13.1992 12.667C12.8594 12.2873 12.8594 11.7127 13.1992 11.333C14.9416 9.38624 16 6.81794 16 4V3H8V4Z" fill="oklch(0.3523 0 0 / 1)" class="wd-icon-fill"></path>
</g>
</svg>