<svg width="24" height="24" viewBox="0 0 24 24" xmlns="http://www.w3.org/2000/svg" class="wd-icon wd-icon-kpi" role="presentation">
<g>
<path d="M16.7246 8.5293C18.2186 8.5293 19.0556 9.21302 19.0557 10.167C19.0557 10.878 18.5965 11.4897 17.6875 11.5977V11.6162C18.6595 11.7512 19.2539 12.3903 19.2539 13.2812C19.2538 14.4061 18.3179 15.1709 16.707 15.1709C15.2999 15.1709 14.3732 14.6215 14.1553 13.5469C14.1004 13.2751 14.3321 13.0469 14.6094 13.0469H15.2334C15.5066 13.0471 15.7116 13.2772 15.8193 13.5283C15.9638 13.8645 16.27 14.0547 16.6982 14.0547C17.2921 14.0546 17.6338 13.6946 17.6338 13.1367C17.6337 12.579 17.2919 12.2637 16.6172 12.2637H16.3164C16.0403 12.2637 15.8164 12.0398 15.8164 11.7637V11.6484C15.8164 11.3723 16.0403 11.1484 16.3164 11.1484H16.4912C17.0941 11.1484 17.4355 10.878 17.4355 10.374C17.4355 9.88807 17.121 9.64554 16.707 9.64551C16.4392 9.64551 16.2111 9.7414 16.0713 9.92383C15.9057 10.14 15.7059 10.3826 15.4336 10.3828H14.8076C14.5301 10.3828 14.2966 10.1525 14.3662 9.88379C14.5954 8.99924 15.4446 8.52938 16.7246 8.5293Z" fill="oklch(0.3523 0 0 / 1)" class="wd-icon-fill"></path>
<path d="M7.02734 8.7002C7.30345 8.70024 7.52734 8.92408 7.52734 9.2002V14.5C7.52732 14.7761 7.30343 15 7.02734 15H6.52441C6.24829 15 6.02444 14.7761 6.02441 14.5V10.6436H6.00586C5.85286 11.0666 5.52897 11.2383 5.04297 11.2383C4.79462 11.2381 4.59382 11.0365 4.59375 10.7881V10.5498C4.59383 10.2739 4.8169 10.0501 5.09277 10.0498H5.11523C5.7632 10.0498 6.03317 9.73498 6.0332 9.12305C6.0332 8.8895 6.22253 8.70031 6.45605 8.7002H7.02734Z" fill="oklch(0.3523 0 0 / 1)" class="wd-icon-fill"></path>
<path d="M11.0312 8.57422C12.4443 8.57422 13.3262 9.21329 13.3262 10.4463C13.326 11.5261 12.6514 12.048 11.4365 12.6689L10.7705 13.002C10.2305 13.2809 10.123 13.4703 10.123 13.8213H12.8809C13.1569 13.8215 13.3809 14.0452 13.3809 14.3213V14.5C13.3808 14.776 13.1569 14.9998 12.8809 15H9.10156C8.82543 15 8.60158 14.7761 8.60156 14.5V14.1992C8.60156 13.0383 9.02434 12.5157 10.3291 11.8408L10.8604 11.5713C11.4634 11.2563 11.6973 10.9405 11.6973 10.4365C11.6971 9.92384 11.4541 9.69043 11.0312 9.69043C10.7122 9.69052 10.4757 9.82497 10.3613 10.125C10.2631 10.3831 10.0603 10.6172 9.78418 10.6172H9.17383C8.89769 10.6172 8.66603 10.3902 8.71875 10.1191C8.91659 9.1028 9.75038 8.5743 11.0312 8.57422Z" fill="oklch(0.3523 0 0 / 1)" class="wd-icon-fill"></path>
<path d="M22 4C22.5523 4 23 4.44772 23 5V19C23 19.5523 22.5523 20 22 20H2C1.44772 20 1 19.5523 1 19V5C1 4.44772 1.44772 4 2 4H22ZM3 18H21V6H3V18Z" fill="oklch(0.3523 0 0 / 1)" class="wd-icon-fill"></path>
</g>
</svg>