<svg width="24" height="24" viewBox="0 0 24 24" xmlns="http://www.w3.org/2000/svg" class="wd-icon wd-icon-comment-active" role="presentation">
<g>
<path d="M12.5 11C12.7761 11 13 11.2239 13 11.5V12.5C13 12.7761 12.7761 13 12.5 13H7.5C7.22386 13 7 12.7761 7 12.5V11.5C7 11.2239 7.22386 11 7.5 11H12.5Z" fill="oklch(0.3523 0 0 / 1)" class="wd-icon-accent"></path>
<path d="M16.5 8C16.7761 8 17 8.22386 17 8.5V9.5C17 9.77614 16.7761 10 16.5 10H7.5C7.22386 10 7 9.77614 7 9.5V8.5C7 8.22386 7.22386 8 7.5 8H16.5Z" fill="oklch(0.3523 0 0 / 1)" class="wd-icon-accent"></path>
<path d="M20 1.75C21.2426 1.75 22.25 2.75736 22.25 4C22.25 5.24264 21.2426 6.25 20 6.25C18.7574 6.25 17.75 5.24264 17.75 4C17.75 2.75736 18.7574 1.75 20 1.75Z" fill="oklch(0.3523 0 0 / 1)" class="wd-icon-accent"></path>
</g>
<path d="M15.5 3C15.7761 3 16 3.22386 16 3.5V4.5C16 4.77614 15.7761 5 15.5 5L6 5.00098C4.89538 5.00101 4.00026 5.89592 4 7V14C4.00021 14.8665 4.55438 15.6068 5.33398 15.8828C5.73307 16.0243 6 16.4017 6 16.8252V19.8086C6.63924 19.6076 7.24107 19.255 7.74805 18.748C8.3192 18.1768 8.69488 17.4866 8.87793 16.7578L8.93262 16.5977C9.09012 16.2399 9.44635 16.001 9.84766 16.001H18C19.0351 16.001 19.8865 15.2135 19.9893 14.2051L20 14.001V8.5C20 8.22386 20.2239 8 20.5 8H21.5C21.7761 8 22 8.22386 22 8.5V14.001L21.9951 14.207C21.8874 16.3198 20.1399 18.001 18 18.001H10.5752C10.2678 18.7883 9.79698 19.5272 9.16211 20.1621C8.02102 21.3031 6.54867 21.9152 5.05566 21.998C4.78139 22.0132 4.5121 21.9153 4.3125 21.7266C4.11301 21.5378 4.00013 21.2746 4 21V17.457C2.8078 16.767 2.00018 15.4819 2 14V7C2.00035 4.79094 3.79135 3.00102 6 3.00098H9.49023C9.49349 3.00091 9.49673 3 9.5 3H15.5Z" fill="oklch(0.3523 0 0 / 1)" class="wd-icon-fill"></path>
</svg>