<svg width="24" height="24" viewBox="0 0 24 24" xmlns="http://www.w3.org/2000/svg" class="wd-icon wd-icon-folder" role="presentation">
<path d="M7.60645 3.00002C8.05752 3.00002 8.39041 2.99759 8.71973 3.04982C9.08036 3.10705 9.4319 3.21277 9.76367 3.36525C10.0667 3.50456 10.3425 3.69203 10.7178 3.9424L11.3457 4.36135C11.8236 4.68017 11.9649 4.77036 12.1084 4.83303C12.2522 4.89584 12.4031 4.9412 12.5576 4.96877C12.7118 4.99626 12.8792 5.00002 13.4541 5.00002H16.2022C17.0256 5.00002 17.7035 4.999 18.2539 5.04396C18.8159 5.08989 19.3331 5.1883 19.8184 5.43556C20.5708 5.81902 21.1829 6.43114 21.5664 7.18361C21.8137 7.66889 21.9121 8.18604 21.958 8.74806C22.003 9.29842 22.002 9.97637 22.002 10.7998V14.2002C22.002 15.0237 22.003 15.7016 21.958 16.252C21.9121 16.814 21.8137 17.3311 21.5664 17.8164C21.1829 18.5689 20.5709 19.181 19.8184 19.5645C19.3331 19.8117 18.816 19.9101 18.2539 19.9561C17.7035 20.001 17.0256 20 16.2022 20H7.80176C6.97827 20 6.30038 20.001 5.75 19.9561C5.18795 19.9101 4.67085 19.8117 4.18555 19.5645C3.43306 19.181 2.82096 18.5689 2.4375 17.8164C2.19025 17.3311 2.09183 16.814 2.0459 16.252C2.00094 15.7016 2.00195 15.0237 2.00196 14.2002V8.60451C2.00195 7.8712 2.00123 7.26723 2.03711 6.77541C2.07373 6.27374 2.15203 5.81041 2.34961 5.36818C2.75138 4.469 3.47093 3.74942 4.37012 3.34767C4.81236 3.15009 5.27565 3.07179 5.77735 3.03517C6.26918 2.99929 6.8731 3.00002 7.60645 3.00002ZM4.00196 11V14.2002C4.00196 15.0565 4.00231 15.6389 4.03906 16.0889C4.07488 16.5272 4.14006 16.7518 4.21973 16.9082C4.41146 17.2845 4.71752 17.5905 5.09375 17.7822C5.25015 17.8619 5.47468 17.9271 5.91309 17.9629C6.36312 17.9997 6.94537 18 7.80176 18H16.2022C17.0585 18 17.6408 17.9997 18.0908 17.9629C18.5292 17.9271 18.7538 17.8619 18.9102 17.7822C19.2864 17.5905 19.5925 17.2845 19.7842 16.9082C19.8639 16.7518 19.929 16.5272 19.9648 16.0889C20.0016 15.6389 20.002 15.0565 20.002 14.2002V11H4.00196ZM7.60645 5.00002C6.84382 5.00002 6.32507 5.00095 5.92285 5.03029C5.53104 5.0589 5.3282 5.11063 5.18653 5.17385C4.73694 5.37472 4.37667 5.73501 4.17578 6.18459C4.11256 6.32625 4.06084 6.52914 4.03223 6.92092C4.00289 7.32312 4.00196 7.84193 4.00196 8.60451V9.50002H19.9922C19.9868 9.2786 19.979 9.08496 19.9648 8.91115C19.929 8.47279 19.8639 8.2482 19.7842 8.09181C19.5924 7.71559 19.2864 7.40951 18.9102 7.21779C18.7538 7.13811 18.5292 7.07294 18.0908 7.03713C17.6408 7.00037 17.0585 7.00002 16.2022 7.00002H13.4541C12.9481 7.00002 12.5745 7.00323 12.2061 6.93752C11.897 6.88236 11.5953 6.79168 11.3076 6.66603C10.9647 6.51626 10.6562 6.30616 10.2354 6.02541L9.60742 5.60646C9.18116 5.3221 9.0555 5.24093 8.92871 5.18263C8.76276 5.10634 8.58664 5.05306 8.40625 5.02443C8.26852 5.00262 8.11846 5.00002 7.60645 5.00002Z" fill="oklch(0.3523 0 0 / 1)" class="wd-icon-fill"></path>
</svg>