<svg width="24" height="24" viewBox="0 0 24 24" xmlns="http://www.w3.org/2000/svg" class="wd-icon wd-icon-wi-fi" role="presentation">
<g>
<path d="M11.9704 15.4521C12.5713 15.4522 13.1662 15.5709 13.7214 15.8008C13.9678 15.9028 14.2042 16.026 14.4282 16.1685C14.8942 16.465 14.8902 17.1096 14.4996 17.5001L12.6775 19.3222C12.287 19.7127 11.6538 19.7127 11.2633 19.3222L9.44123 17.5001C9.0507 17.1096 9.04672 16.465 9.51266 16.1685C9.73664 16.026 9.9731 15.9028 10.2194 15.8008C10.7746 15.5709 11.3696 15.4521 11.9704 15.4521Z" fill="oklch(0.3523 0 0 / 1)" class="wd-icon-fill"></path>
<path d="M11.9704 10.5029C13.2213 10.503 14.4603 10.7489 15.6159 11.2275C16.4633 11.5785 17.2544 12.0494 17.9649 12.6244C18.3942 12.9717 18.3912 13.6095 18.0007 14C17.6102 14.3905 16.9806 14.3843 16.5418 14.049C16.024 13.6533 15.4557 13.3256 14.8513 13.0752C13.9382 12.697 12.9587 12.502 11.9704 12.502C10.9823 12.502 10.0034 12.6972 9.09054 13.0752C8.48604 13.3256 7.91784 13.6533 7.40003 14.049C6.96126 14.3843 6.33162 14.3905 5.94114 14C5.55065 13.6095 5.54768 12.9717 5.97701 12.6244C6.68717 12.0498 7.47775 11.5794 8.32492 11.2285C9.48062 10.7498 10.7195 10.503 11.9704 10.5029Z" fill="oklch(0.3523 0 0 / 1)" class="wd-icon-fill"></path>
<path d="M11.9704 5.55273C13.8714 5.55276 15.7542 5.92681 17.5105 6.6543C18.9584 7.25406 20.2972 8.08452 21.4759 9.11086C21.8924 9.4735 21.8902 10.1095 21.4997 10.5C21.1092 10.8905 20.4786 10.887 20.0581 10.5291C19.0678 9.68593 17.95 9.00119 16.7448 8.50195C15.2313 7.8751 13.6086 7.55276 11.9704 7.55273C10.332 7.55274 8.70968 7.87597 7.19601 8.50293C5.9908 9.00215 4.87308 9.68626 3.88279 10.5291C3.46227 10.887 2.83162 10.8905 2.44114 10.5C2.05065 10.1095 2.0485 9.4735 2.46498 9.11086C3.64368 8.08454 4.98249 7.25405 6.43039 6.6543C8.18666 5.92688 10.0695 5.55274 11.9704 5.55273Z" fill="oklch(0.3523 0 0 / 1)" class="wd-icon-fill"></path>
</g>
</svg>