<svg width="24" height="24" viewBox="0 0 24 24" xmlns="http://www.w3.org/2000/svg" class="wd-icon wd-icon-erase" role="presentation">
<g>
<path d="M12.2618 17.3224L12.1876 17.3976C11.6659 17.9193 11.2851 18.2989 10.964 18.5851C10.7449 18.7803 10.5756 18.91 10.4366 18.9992H8.5636C8.42463 18.91 8.25551 18.7805 8.03626 18.5851C7.87578 18.4421 7.70041 18.2759 7.50012 18.0802L6.81262 17.3976L6.60364 17.1876L6.60169 17.1857L5.82923 16.4064C5.61423 16.1847 5.43826 15.9955 5.29212 15.8234C5.00768 15.4884 4.89519 15.284 4.84094 15.1173C4.71054 14.7158 4.7106 14.2825 4.84094 13.881C4.89523 13.7143 5.00764 13.509 5.29212 13.174C5.58448 12.8297 5.99631 12.417 6.60169 11.8117L6.6759 11.7365L12.2618 17.3224Z" fill="transparent" class="wd-icon-background"></path>
<path d="M13.882 4.83998C14.2835 4.70963 14.7168 4.70955 15.1183 4.83998C15.2855 4.89442 15.4904 5.00717 15.8253 5.29115C15.9975 5.43713 16.1865 5.61333 16.4083 5.82826L17.1876 6.59975L17.3966 6.80971L17.3986 6.81166C18.0041 7.41723 18.4158 7.82966 18.7081 8.17397C18.9215 8.42532 19.0377 8.60367 19.1056 8.74721L19.1593 8.881C19.2896 9.28241 19.2896 9.7159 19.1593 10.1173C19.1051 10.284 18.9924 10.4886 18.7081 10.8234C18.4158 11.1676 18.0042 11.5801 17.3986 12.1857L13.3224 16.2619L7.73645 10.6759L11.8126 6.59975C12.4179 5.99445 12.8307 5.58306 13.1749 5.29115C13.5097 5.00727 13.7148 4.89438 13.882 4.83998Z" fill="transparent" class="wd-icon-background"></path>
</g>
<path d="M13.2644 2.93783C14.0676 2.67697 14.933 2.67697 15.7361 2.93783C16.2542 3.10621 16.6901 3.40196 17.1199 3.76693C17.5407 4.12434 18.0192 4.60473 18.6013 5.18685L18.8133 5.39876C19.3954 5.98089 19.8758 6.45939 20.2332 6.88021C20.5981 7.30994 20.8939 7.74594 21.0623 8.264C21.323 9.06702 21.3231 9.93268 21.0623 10.7357C20.8939 11.2535 20.598 11.6898 20.2332 12.1195C19.8758 12.5403 19.3954 13.0188 18.8133 13.6009L13.6013 18.8128C13.5376 18.8766 13.4741 18.9381 13.4129 18.9993H19.9988C20.551 18.9993 20.9986 19.4472 20.9988 19.9993C20.9988 20.5516 20.5511 20.9993 19.9988 20.9993H3.99881C3.4466 20.9993 2.99881 20.5516 2.99881 19.9993C2.99902 19.4473 3.44673 18.9994 3.99881 18.9993H5.58768C5.5264 18.9381 5.46297 18.8766 5.3992 18.8128L5.18729 18.6009C4.60519 18.0188 4.12478 17.5403 3.76736 17.1195C3.40253 16.6899 3.10669 16.2544 2.93826 15.7367C2.67744 14.9336 2.67752 14.067 2.93826 13.264C3.10661 12.7459 3.40241 12.31 3.76736 11.8802C4.12478 11.4594 4.60513 10.9809 5.18729 10.3988L10.3992 5.18685C10.9814 4.60468 11.4598 4.12435 11.8806 3.76693C12.3105 3.40192 12.7464 3.10622 13.2644 2.93783ZM6.60135 11.8128C5.9957 12.4185 5.58413 12.8309 5.29178 13.1751C5.00741 13.51 4.89483 13.7145 4.84061 13.8812C4.71019 14.2828 4.71013 14.7169 4.84061 15.1185C4.89491 15.2851 5.00756 15.4898 5.29178 15.8245C5.58414 16.1688 5.99581 16.5813 6.60135 17.1868L6.81326 17.3988C7.33453 17.92 7.71501 18.2991 8.03592 18.5853C8.25474 18.7804 8.42353 18.9102 8.56229 18.9993H10.4383C10.577 18.9102 10.7457 18.7805 10.9646 18.5853C11.2855 18.299 11.6659 17.9201 12.1873 17.3988L12.2625 17.3226L6.67654 11.7367L6.60135 11.8128ZM15.1189 4.84017C14.7172 4.70965 14.2833 4.70868 13.8816 4.83919L13.8826 4.84017C13.7158 4.89438 13.5108 5.00665 13.1756 5.29134C12.8313 5.5837 12.4189 5.99529 11.8133 6.60091L7.73709 10.6761L13.323 16.262L17.3992 12.1868C18.0048 11.5812 18.4164 11.1688 18.7088 10.8245C18.9933 10.4895 19.1057 10.2843 19.1599 10.1175C19.2903 9.71608 19.2903 9.28262 19.1599 8.88119C19.1057 8.71453 18.9931 8.50994 18.7088 8.17513C18.4164 7.8309 18.0048 7.41843 17.3992 6.81283L17.1873 6.60091C16.5817 5.99532 16.1692 5.5837 15.825 5.29134C15.4901 5.007 15.2856 4.89444 15.1189 4.84017Z" fill="oklch(0.3523 0 0 / 1)" class="wd-icon-fill"></path>
</svg>