<svg width="24" height="24" viewBox="0 0 24 24" xmlns="http://www.w3.org/2000/svg" class="wd-icon wd-icon-comma" role="presentation">
<path d="M12.4004 7.00195C12.9602 7.00195 13.2402 7.00138 13.4541 7.11035C13.6422 7.20623 13.7948 7.3597 13.8906 7.54785C13.9995 7.76174 14 8.04164 14 8.60156V8.97852C14 10.1053 14.0001 10.6688 13.9229 11.2207C13.8542 11.7107 13.7398 12.1931 13.582 12.6621C13.4043 13.1902 13.1523 13.6944 12.6484 14.7021L11.9551 16.0908C11.8051 16.3907 11.4983 16.5799 11.1631 16.5801C10.5274 16.5801 10.0982 15.93 10.3486 15.3457L11.7822 12H10.5996C10.0398 12 9.75976 11.9996 9.5459 11.8906C9.35793 11.7948 9.20522 11.6421 9.10938 11.4541C9.00041 11.2402 9 10.9602 9 10.4004V8.60156C9 8.04164 9.00046 7.76174 9.10938 7.54785C9.20524 7.3597 9.35776 7.20623 9.5459 7.11035C9.75976 7.00138 10.0398 7.00195 10.5996 7.00195H12.4004Z" fill="oklch(0.3523 0 0 / 1)" class="wd-icon-fill"></path>
</svg>