<svg width="24" height="24" viewBox="0 0 24 24" xmlns="http://www.w3.org/2000/svg" class="wd-icon wd-icon-arrow-switch" role="presentation">
<g>
<path d="M14.9996 16.0016C14.9993 16.5535 14.5515 17.0014 13.9996 17.0016L6.41467 17.0016L8.70666 19.2936C9.09696 19.684 9.09667 20.3171 8.70666 20.7077C8.31613 21.0978 7.68301 21.098 7.2926 20.7077L3.2926 16.7077C2.90242 16.3172 2.90251 15.6841 3.2926 15.2936L7.2926 11.2936C7.68308 10.9036 8.31626 10.9034 8.70666 11.2936C9.09704 11.684 9.09676 12.3171 8.70666 12.7077L6.41272 15.0016L13.9996 15.0016C14.5518 15.0018 14.9996 15.4494 14.9996 16.0016Z" fill="oklch(0.3523 0 0 / 1)" class="wd-icon-fill"></path>
<path d="M20.7067 7.2936C21.0971 7.6841 21.0971 8.31716 20.7067 8.70767L16.7067 12.7077C16.3161 13.0979 15.6831 13.098 15.2926 12.7077C14.9026 12.3172 14.9025 11.684 15.2926 11.2936L17.5846 9.00161L9.99963 9.00161C9.44777 9.00138 9 8.55344 8.99963 8.00161C8.99963 7.44947 9.44754 7.00184 9.99963 7.00161L17.5865 7.00161L15.2926 4.70767C14.9026 4.31716 14.9024 3.684 15.2926 3.2936C15.683 2.90332 16.3161 2.90354 16.7067 3.2936L20.7067 7.2936Z" fill="oklch(0.3523 0 0 / 1)" class="wd-icon-fill"></path>
</g>
</svg>