<svg width="24" height="24" viewBox="0 0 24 24" xmlns="http://www.w3.org/2000/svg" class="wd-icon wd-icon-clipboard-plus" role="presentation">
<g>
<path d="M12.001 1C12.9773 1.00015 13.9164 1.35835 14.6445 2H15.7998C16.3432 2 16.8117 1.99894 17.1953 2.03027C17.5905 2.06259 17.9841 2.13446 18.3623 2.32715C18.9265 2.61471 19.3853 3.07353 19.6729 3.6377C19.8656 4.01597 19.9374 4.40945 19.9697 4.80469C20.0011 5.18836 20 5.65665 20 6.2002V12C20 12.5523 19.5523 13 19 13C18.4477 13 18 12.5523 18 12V6.2002C18 5.62365 17.9987 5.25111 17.9756 4.96777C17.9534 4.69629 17.9158 4.59535 17.8906 4.5459C17.7948 4.35799 17.642 4.20521 17.4541 4.10938C17.4046 4.08419 17.3035 4.04659 17.0322 4.02441C16.761 4.00226 16.4076 4.00014 15.8721 4C15.9559 4.32404 16.001 4.65953 16.001 5V6C16.001 7.10584 15.1033 8 14 8H10.001C9.98517 8 9.96892 7.99978 9.95313 7.99902L9.85059 7.99414C9.83303 7.9933 9.81534 7.992 9.79786 7.99023C8.7871 7.88774 8.00098 7.03521 8.00098 6V5C8.00098 4.95845 8.00442 4.91149 8.00782 4.86035C8.01803 4.56821 8.05906 4.27981 8.13086 4C7.59358 4.00013 7.23957 4.00222 6.96778 4.02441C6.69654 4.0466 6.59536 4.08419 6.5459 4.10938C6.35802 4.20522 6.20519 4.358 6.10938 4.5459C6.08419 4.59536 6.04661 4.6963 6.02442 4.96777C6.00127 5.25111 6.00001 5.62365 6 6.2002V18.7998C6 19.3763 6.00127 19.7489 6.02442 20.0322C6.0466 20.3037 6.08419 20.4046 6.10938 20.4541C6.2052 20.642 6.35801 20.7948 6.5459 20.8906C6.59537 20.9158 6.69649 20.9534 6.96778 20.9756C7.25108 20.9987 7.62382 21 8.2002 21H13C13.5523 21 14 21.4477 14 22C14 22.5523 13.5523 23 13 23H8.2002C7.65677 23 7.18831 23.0011 6.80469 22.9697C6.40952 22.9374 6.01592 22.8655 5.6377 22.6729C5.07355 22.3853 4.61471 21.9265 4.32715 21.3623C4.13443 20.984 4.06259 20.5905 4.03028 20.1953C3.99893 19.8116 4 19.3433 4 18.7998V6.2002C4.00001 5.65665 3.99893 5.18835 4.03028 4.80469C4.06259 4.40945 4.13442 4.01598 4.32715 3.6377C4.6147 3.07354 5.07357 2.61473 5.6377 2.32715C6.01589 2.13447 6.40955 2.06259 6.80469 2.03027C7.1883 1.99894 7.65677 2 8.2002 2H9.35645C10.0849 1.35808 11.0245 1.00004 12.001 1ZM12.001 3C11.5368 3.00003 11.0884 3.16145 10.7324 3.45312L10.5859 3.58594C10.2298 3.94225 10.0226 4.42255 10.0049 4.93066C10.0041 4.95341 10.0033 4.97638 10.001 4.99902V5.99805L10.0283 6H14.001V5C14.001 4.5362 13.8397 4.08852 13.5479 3.73242L13.415 3.58594C13.0868 3.25774 12.656 3.05526 12.1982 3.00977L12.001 3Z" fill="oklch(0.3523 0 0 / 1)" class="wd-icon-fill"></path>
<path d="M9 14C9.55229 14 10 14.4477 10 15C10 15.5523 9.55229 16 9 16C8.44773 16 8 15.5523 8 15C8 14.4477 8.44773 14 9 14Z" fill="oklch(0.3523 0 0 / 1)" class="wd-icon-fill"></path>
<path d="M15.25 14.25C15.6642 14.25 16 14.5858 16 15C16 15.4142 15.6642 15.75 15.25 15.75H11.75C11.3358 15.75 11 15.4142 11 15C11 14.5858 11.3358 14.25 11.75 14.25H15.25Z" fill="oklch(0.3523 0 0 / 1)" class="wd-icon-fill"></path>
<path d="M9 11C9.55229 11 10 11.4477 10 12C10 12.5523 9.55229 13 9 13C8.44773 13 8 12.5523 8 12C8 11.4477 8.44773 11 9 11Z" fill="oklch(0.3523 0 0 / 1)" class="wd-icon-fill"></path>
<path d="M15.25 11.25C15.6642 11.25 16 11.5858 16 12C16 12.4142 15.6642 12.75 15.25 12.75H11.75C11.3358 12.75 11 12.4142 11 12C11 11.5858 11.3358 11.25 11.75 11.25H15.25Z" fill="oklch(0.3523 0 0 / 1)" class="wd-icon-fill"></path>
</g>
<path d="M19.0059 15.25C19.4201 15.25 19.7559 15.5858 19.7559 16V18.25H22.0059C22.4201 18.25 22.7559 18.5858 22.7559 19C22.7559 19.4142 22.4201 19.75 22.0059 19.75H19.7559V22C19.7559 22.4142 19.4201 22.75 19.0059 22.75C18.5916 22.75 18.2559 22.4142 18.2559 22V19.75H16.0059C15.5916 19.75 15.2559 19.4142 15.2559 19C15.2559 18.5858 15.5916 18.25 16.0059 18.25H18.2559V16C18.2559 15.5858 18.5916 15.25 19.0059 15.25Z" fill="oklch(0.3523 0 0 / 1)" class="wd-icon-accent"></path>
</svg>