<svg width="24" height="24" viewBox="0 0 24 24" xmlns="http://www.w3.org/2000/svg" class="wd-icon wd-icon-check-circle-underline" role="presentation">
<path d="M12 4C15.3137 4 18 6.68629 18 10C18 13.3137 15.3137 16 12 16C8.68629 16 6 13.3137 6 10C6 6.68629 8.68629 4 12 4ZM14.9746 7.23145C14.5506 6.8782 13.9201 6.93582 13.5664 7.35938L11.001 10.4375L10.1025 9.35938C9.74905 8.93534 9.11758 8.87827 8.69336 9.23145C8.26912 9.58504 8.21185 10.2164 8.56543 10.6406L10.2324 12.6406C10.4224 12.8684 10.7044 13 11.001 13C11.2975 12.9998 11.5797 12.8684 11.7695 12.6406L15.1025 8.64062C15.4557 8.21649 15.3984 7.58498 14.9746 7.23145Z" fill="transparent" class="wd-icon-background"></path>
<g>
<path d="M19 20C19.5523 20 20 20.4477 20 21C20 21.5523 19.5523 22 19 22H5C4.44772 22 4 21.5523 4 21C4 20.4477 4.44772 20 5 20H19Z" fill="oklch(0.3523 0 0 / 1)" class="wd-icon-fill"></path>
<path d="M12 2C16.4183 2 20 5.58172 20 10C20 14.4183 16.4183 18 12 18C7.58172 18 4 14.4183 4 10C4 5.58172 7.58172 2 12 2ZM12 4C8.68629 4 6 6.68629 6 10C6 13.3137 8.68629 16 12 16C15.3137 16 18 13.3137 18 10C18 6.68629 15.3137 4 12 4Z" fill="oklch(0.3523 0 0 / 1)" class="wd-icon-fill"></path>
</g>
<path d="M13.5658 7.35942C13.9194 6.93581 14.5499 6.87826 14.974 7.23149C15.398 7.58501 15.4552 8.21647 15.1019 8.64067L11.7689 12.6407C11.579 12.8685 11.2969 12.9999 11.0003 13C10.7037 13 10.4218 12.8685 10.2318 12.6407L8.5648 10.6407C8.21126 10.2165 8.26859 9.58509 8.69273 9.23149C9.11694 8.87822 9.74839 8.93537 10.1019 9.35942L11.0003 10.4375L13.5658 7.35942Z" fill="oklch(0.3523 0 0 / 1)" class="wd-icon-accent"></path>
</svg>