<svg width="24" height="24" viewBox="0 0 24 24" xmlns="http://www.w3.org/2000/svg" class="wd-icon wd-icon-alarm-clock-plus" role="presentation">
<g>
<path d="M19.5 15C19.7761 15 20 15.2239 20 15.5V17.9951H22.5049C22.781 17.9951 23.0049 18.219 23.0049 18.4951V19.4951C23.0049 19.7713 22.781 19.9951 22.5049 19.9951H20V22.5C20 22.7761 19.7761 23 19.5 23H18.5C18.2239 23 18 22.7761 18 22.5V19.9951H15.5049C15.2287 19.9951 15.0049 19.7713 15.0049 19.4951V18.4951C15.0049 18.219 15.2287 17.9951 15.5049 17.9951H18V15.5C18 15.2239 18.2239 15 18.5 15H19.5Z" fill="oklch(0.3523 0 0 / 1)" class="wd-icon-accent"></path>
<path d="M12.5 7C12.7761 7 13 7.22386 13 7.5V11H15.5C15.7761 11 16 11.2239 16 11.5V12.5C16 12.7761 15.7761 13 15.5 13H12C11.4477 13 11 12.5523 11 12V7.5C11 7.22386 11.2239 7 11.5 7H12.5Z" fill="oklch(0.3523 0 0 / 1)" class="wd-icon-accent"></path>
</g>
<path d="M17.2452 1.5699C18.5482 1.64224 19.8329 2.17718 20.8282 3.17244C21.8234 4.16775 22.3585 5.45247 22.4307 6.75545C22.4464 7.03936 22.3408 7.31708 22.1397 7.51814L20.5284 9.12654C20.9029 10.2387 21.0584 11.4168 20.9805 12.5943C20.9623 12.8697 20.7115 13.065 20.4376 13.0318L19.9415 12.9713L19.4434 12.9097C19.1697 12.8758 18.9774 12.6266 18.9913 12.3511C19.0556 11.0702 18.7665 9.79247 18.1514 8.65974C17.9303 8.25254 17.6698 7.87045 17.376 7.51814C17.2458 7.36217 17.109 7.21198 16.9659 7.06795C16.4174 6.51569 15.7779 6.055 15.0704 5.70955C13.762 5.07102 12.2867 4.85631 10.8506 5.09529C9.4142 5.33449 8.08773 6.01613 7.0567 7.04451C6.02565 8.07295 5.34055 9.39768 5.09771 10.8336C4.85503 12.2693 5.06676 13.7451 5.70221 15.0553C6.33773 16.3653 7.36586 17.445 8.64361 18.1431C9.77478 18.7611 11.0519 19.0528 12.3331 18.9918C12.6087 18.9788 12.8578 19.1728 12.8907 19.4469L13.0098 20.44C13.0427 20.7142 12.8468 20.9643 12.5713 20.982C10.8764 21.0897 9.181 20.7155 7.68463 19.898C7.0915 19.5739 6.54095 19.1845 6.0401 18.7418L5.10943 20.1383C4.95619 20.3678 4.64574 20.43 4.41607 20.2769L3.58404 19.7222C3.35439 19.5691 3.29244 19.2586 3.44537 19.0289L4.65924 17.2066C4.37357 16.8039 4.11995 16.3767 3.9024 15.9283C3.08534 14.2437 2.81389 12.3457 3.12603 10.4996C3.20516 10.0318 3.32065 9.57303 3.47076 9.12752L1.86041 7.51814C1.65934 7.31707 1.55374 7.03937 1.56939 6.75545C1.64167 5.45235 2.17659 4.16778 3.17193 3.17244C4.16728 2.17709 5.45185 1.64217 6.75494 1.5699C7.03886 1.55425 7.31657 1.65985 7.51764 1.86091L9.12701 3.47127C9.57967 3.31875 10.046 3.20183 10.5215 3.12263C11.9838 2.87918 13.4773 3.00205 14.8712 3.47127L16.4825 1.86091L16.5616 1.78963C16.7532 1.63502 16.9968 1.55614 17.2452 1.5699ZM6.44635 3.61775C5.76496 3.73865 5.11295 4.05955 4.586 4.5865C4.05905 5.11346 3.73815 5.76547 3.61725 6.44685L4.38092 7.21052C4.39005 7.19603 4.40003 7.18199 4.40924 7.16755C4.4866 7.04606 4.56626 6.92597 4.64947 6.80818C4.65636 6.79845 4.66306 6.78859 4.66998 6.77888C4.85646 6.51713 5.05796 6.26552 5.27252 6.024C5.28524 6.00969 5.2978 5.99525 5.31061 5.98103C5.4187 5.86091 5.52974 5.74306 5.64459 5.62849C5.7552 5.51817 5.86868 5.41124 5.98443 5.3072C6.00142 5.29193 6.01909 5.27743 6.03619 5.26228C6.27236 5.05323 6.51807 4.85665 6.7735 4.67439C6.78907 4.66326 6.80472 4.65222 6.82037 4.64119C6.94008 4.55692 7.0621 4.47625 7.18561 4.39802C7.19388 4.39277 7.20173 4.38665 7.21002 4.38142L6.44635 3.61775ZM16.7891 4.38142C16.7917 4.38306 16.7943 4.38467 16.7969 4.3863C17.9355 5.10358 18.8991 6.06857 19.6172 7.21052L20.3819 6.44685C20.261 5.76564 19.9409 5.11336 19.4141 4.5865C18.887 4.05939 18.2344 3.73857 17.5528 3.61775L16.7891 4.38142Z" fill="oklch(0.3523 0 0 / 1)" class="wd-icon-fill"></path>
</svg>