<svg width="24" height="24" viewBox="0 0 24 24" xmlns="http://www.w3.org/2000/svg" class="wd-icon wd-icon-home-building" role="presentation">
<g>
<path d="M17.4999 15C17.776 15 17.9999 15.2239 17.9999 15.5V16.5C17.9999 16.7761 17.776 17 17.4999 17H15.4999C15.2238 17 14.9999 16.7761 14.9999 16.5V15.5C14.9999 15.2239 15.2238 15 15.4999 15H17.4999Z" fill="oklch(0.3523 0 0 / 1)" class="wd-icon-fill"></path>
<path d="M17.4999 12C17.776 12 17.9999 12.2239 17.9999 12.5V13.5C17.9999 13.7761 17.776 14 17.4999 14H15.4999C15.2238 14 14.9999 13.7761 14.9999 13.5V12.5C14.9999 12.2239 15.2238 12 15.4999 12H17.4999Z" fill="oklch(0.3523 0 0 / 1)" class="wd-icon-fill"></path>
<path d="M13.4999 9C13.776 9.00001 13.9999 9.22387 13.9999 9.5V10.5C13.9999 10.7761 13.776 11 13.4999 11H11.4999C11.2238 11 10.9999 10.7761 10.9999 10.5V9.5C10.9999 9.22386 11.2238 9 11.4999 9H13.4999Z" fill="oklch(0.3523 0 0 / 1)" class="wd-icon-fill"></path>
<path d="M17.4999 9C17.776 9.00001 17.9999 9.22387 17.9999 9.5V10.5C17.9999 10.7761 17.776 11 17.4999 11H15.4999C15.2238 11 14.9999 10.7761 14.9999 10.5V9.5C14.9999 9.22386 15.2238 9 15.4999 9H17.4999Z" fill="oklch(0.3523 0 0 / 1)" class="wd-icon-fill"></path>
<path d="M13.4999 6C13.776 6.00001 13.9999 6.22387 13.9999 6.5V7.5C13.9999 7.77613 13.776 7.99999 13.4999 8H11.4999C11.2238 8 10.9999 7.77614 10.9999 7.5V6.5C10.9999 6.22386 11.2238 6 11.4999 6H13.4999Z" fill="oklch(0.3523 0 0 / 1)" class="wd-icon-fill"></path>
<path d="M17.4999 6C17.776 6.00001 17.9999 6.22387 17.9999 6.5V7.5C17.9999 7.77613 17.776 7.99999 17.4999 8H15.4999C15.2238 8 14.9999 7.77614 14.9999 7.5V6.5C14.9999 6.22386 15.2238 6 15.4999 6H17.4999Z" fill="oklch(0.3523 0 0 / 1)" class="wd-icon-fill"></path>
<path d="M21.9999 22H3.99991C2.89534 22 1.99991 21.1046 1.99991 20V16.4141C1.9312 16.3832 1.86713 16.3387 1.81631 16.2764L1.18448 15.501C1.01003 15.2869 1.04266 14.9713 1.25674 14.7969L6.23721 10.7393C6.46682 10.5523 6.72732 10.4228 6.99991 10.3525V2H21.9999V22ZM7.81631 12.5469C7.63244 12.3972 7.3683 12.3971 7.18448 12.5469L3.99991 15.1416V20H5.99991V17.5C5.99991 17.2239 6.22376 17 6.49991 17H8.49991C8.77604 17 8.99991 17.2239 8.99991 17.5V20H10.9999V15.1406L7.81631 12.5469ZM8.99991 10.9307L13.745 14.7969C13.9591 14.9713 13.9908 15.2869 13.8163 15.501L13.1845 16.2764C13.1333 16.3391 13.0691 16.3842 12.9999 16.415V20H19.9999V4H8.99991V10.9307Z" fill="oklch(0.3523 0 0 / 1)" class="wd-icon-fill"></path>
</g>
</svg>