<svg width="24" height="24" viewBox="0 0 24 24" xmlns="http://www.w3.org/2000/svg" class="wd-icon wd-icon-signpost" role="presentation">
<path d="M18.0005 2C19.105 2 20.0005 2.89543 20.0005 4V7C20.0005 8.10457 19.105 9 18.0005 9H13.0005V11H17.52C18.1275 11 18.702 11.2766 19.0815 11.751L20.2817 13.251C20.8657 13.9813 20.8657 15.0187 20.2817 15.749L19.0815 17.249C18.702 17.7234 18.1275 18 17.52 18H13.0005V21C13.0005 21.5523 12.5527 22 12.0005 22C11.4482 22 11.0005 21.5523 11.0005 21V18H6.00046C4.89597 17.9999 4.00046 17.1045 4.00046 16V13C4.00046 11.8955 4.89597 11.0001 6.00046 11H11.0005V9H6.48093C5.87348 8.9999 5.29888 8.72337 4.9194 8.24902L3.71921 6.74902C3.13526 6.01873 3.13526 4.98127 3.71921 4.25098L4.9194 2.75098C5.29888 2.27663 5.87349 2.0001 6.48093 2H18.0005ZM6.00046 16H17.52L18.7202 14.5L17.52 13H6.00046V16ZM5.28073 5.5L6.48093 7H18.0005V4H6.48093L5.28073 5.5Z" fill="oklch(0.3523 0 0 / 1)" class="wd-icon-fill"></path>
</svg>