<svg width="24" height="24" viewBox="0 0 24 24" xmlns="http://www.w3.org/2000/svg" class="wd-icon wd-icon-calculator" role="presentation">
<g>
<path d="M9.50024 16C9.77632 16.0001 10.0002 16.2239 10.0002 16.5V17.5C10.0002 17.7761 9.77632 17.9999 9.50024 18H7.50024C7.2241 18 7.00024 17.7761 7.00024 17.5V16.5C7.00024 16.2239 7.2241 16 7.50024 16H9.50024Z" fill="oklch(0.3523 0 0 / 1)" class="wd-icon-fill"></path>
<path d="M13.5002 16C13.7763 16.0001 14.0002 16.2239 14.0002 16.5V17.5C14.0002 17.7761 13.7763 17.9999 13.5002 18H11.5002C11.2241 18 11.0002 17.7761 11.0002 17.5V16.5C11.0002 16.2239 11.2241 16 11.5002 16H13.5002Z" fill="oklch(0.3523 0 0 / 1)" class="wd-icon-fill"></path>
<path d="M16.4993 13C16.7754 13 16.9993 13.2239 16.9993 13.5V17.5C16.9991 17.776 16.7753 18 16.4993 18H15.4993C15.2235 17.9998 14.9995 17.7758 14.9993 17.5V13.5C14.9993 13.224 15.2233 13.0002 15.4993 13H16.4993Z" fill="oklch(0.3523 0 0 / 1)" class="wd-icon-fill"></path>
<path d="M9.50024 13C9.77632 13.0001 10.0002 13.2239 10.0002 13.5V14.5C10.0002 14.7761 9.77632 14.9999 9.50024 15H7.50024C7.2241 15 7.00024 14.7761 7.00024 14.5V13.5C7.00024 13.2239 7.2241 13 7.50024 13H9.50024Z" fill="oklch(0.3523 0 0 / 1)" class="wd-icon-fill"></path>
<path d="M13.5002 13C13.7763 13.0001 14.0002 13.2239 14.0002 13.5V14.5C14.0002 14.7761 13.7763 14.9999 13.5002 15H11.5002C11.2241 15 11.0002 14.7761 11.0002 14.5V13.5C11.0002 13.2239 11.2241 13 11.5002 13H13.5002Z" fill="oklch(0.3523 0 0 / 1)" class="wd-icon-fill"></path>
<path d="M16.0002 5C16.5525 5.00008 17.0002 5.44777 17.0002 6V10C17.0002 10.5522 16.5525 10.9999 16.0002 11H8.00024C7.44796 11 7.00024 10.5523 7.00024 10V6C7.00024 5.44772 7.44796 5 8.00024 5H16.0002ZM9.00024 9H15.0002V7H9.00024V9Z" fill="oklch(0.3523 0 0 / 1)" class="wd-icon-fill"></path>
<path d="M18.5002 2C19.3286 2.00008 20.0002 2.67163 20.0002 3.5V20.5C20.0002 21.3284 19.3286 21.9999 18.5002 22H5.50024C4.67182 22 4.00024 21.3284 4.00024 20.5V3.5C4.00025 2.67158 4.67182 2 5.50024 2H18.5002ZM6.00024 20H18.0002V4H6.00024V20Z" fill="oklch(0.3523 0 0 / 1)" class="wd-icon-fill"></path>
</g>
</svg>