<svg width="24" height="24" viewBox="0 0 24 24" xmlns="http://www.w3.org/2000/svg" class="wd-icon wd-icon-cell-erase" role="presentation">
<g>
<path d="M16.3379 19.4033C15.8427 19.898 15.599 20.1306 15.4219 20.2539H14.1338C13.9532 20.1282 13.7023 19.8898 13.1865 19.374C12.85 19.0375 12.6239 18.8109 12.4609 18.624C12.3027 18.4425 12.241 18.338 12.209 18.2607C12.0823 17.9548 12.0823 17.6109 12.209 17.3047C12.241 17.2274 12.3026 17.123 12.4609 16.9414C12.619 16.76 12.8361 16.5409 13.1562 16.2207L16.3379 19.4033Z" fill="transparent" class="wd-icon-background"></path>
<path d="M17.1279 12.3857C17.4341 12.2589 17.7777 12.2589 18.084 12.3857C18.1612 12.4178 18.2656 12.4794 18.4473 12.6377C18.6342 12.8007 18.8608 13.0268 19.1973 13.3633C19.5338 13.6998 19.7598 13.9264 19.9229 14.1133C20.0805 14.294 20.1428 14.3977 20.1748 14.4746C20.3015 14.7808 20.3016 15.1264 20.1748 15.4326C20.1428 15.5096 20.0811 15.6136 19.9229 15.7949C19.8413 15.8884 19.7439 15.9923 19.625 16.1143L19.1973 16.5449L17.3984 18.3428L14.2168 15.1602L16.0146 13.3633C16.3511 13.0268 16.5777 12.8007 16.7646 12.6377C16.9463 12.4794 17.0507 12.4178 17.1279 12.3857Z" fill="transparent" class="wd-icon-background"></path>
<path d="M8.25 13H7.2002C6.62365 13 6.25111 12.9987 5.96777 12.9756C5.69619 12.9534 5.59534 12.9158 5.5459 12.8906C5.35793 12.7948 5.20521 12.6421 5.10938 12.4541C5.08419 12.4047 5.04661 12.3038 5.02441 12.0322C5.00127 11.7489 5 11.3764 5 10.7998V9.75H8.25V13Z" fill="transparent" class="wd-icon-background"></path>
<path d="M8.25 8.25H5V7.2002C5 6.62365 5.00126 6.25111 5.02441 5.96777C5.04661 5.69619 5.08419 5.59534 5.10938 5.5459C5.20521 5.35793 5.35793 5.20521 5.5459 5.10938C5.59534 5.08419 5.69619 5.04661 5.96777 5.02441C6.25111 5.00126 6.62365 5 7.2002 5H8.25V8.25Z" fill="transparent" class="wd-icon-background"></path>
<path d="M10.7998 5C11.3764 5 11.7489 5.00127 12.0322 5.02441C12.3038 5.04661 12.4047 5.08419 12.4541 5.10938C12.6421 5.20521 12.7948 5.35793 12.8906 5.5459C12.9158 5.59534 12.9534 5.69619 12.9756 5.96777C12.9987 6.25111 13 6.62365 13 7.2002V8.25H9.75V5H10.7998Z" fill="transparent" class="wd-icon-background"></path>
</g>
<path d="M10.7998 3C11.3434 3 11.8116 2.99893 12.1953 3.03028C12.5906 3.06259 12.984 3.1344 13.3623 3.32715C13.9265 3.61473 14.3853 4.07348 14.6729 4.6377C14.8656 5.016 14.9374 5.40944 14.9697 5.80469C14.9968 6.13637 14.9987 6.53129 14.999 6.9834C14.9991 6.98893 15 6.99445 15 7V8C15 8.01704 14.9989 8.03395 14.9981 8.05079C14.9712 8.99378 14.1995 9.75 13.25 9.75H9.75V13.25C9.75 14.1817 9.02176 14.9405 8.10352 14.9941C8.06947 14.9976 8.03498 15 8 15H7C6.99445 15 6.98893 14.9991 6.9834 14.999C6.53129 14.9987 6.13637 14.9968 5.80469 14.9697C5.40944 14.9374 5.016 14.8656 4.6377 14.6729C4.07348 14.3853 3.61473 13.9265 3.32715 13.3623C3.1344 12.984 3.06259 12.5906 3.03028 12.1953C2.99893 11.8116 3 11.3434 3 10.7998V7.2002C3 6.65665 2.99893 6.18836 3.03028 5.80469C3.06259 5.40944 3.1344 5.016 3.32715 4.6377C3.61473 4.07348 4.07348 3.61473 4.6377 3.32715C5.016 3.1344 5.40944 3.06259 5.80469 3.03028C6.18836 2.99893 6.65665 3 7.2002 3H10.7998ZM5 10.7998C5 11.3764 5.00127 11.7489 5.02442 12.0322C5.04661 12.3038 5.08419 12.4047 5.10938 12.4541C5.20522 12.6421 5.35794 12.7948 5.5459 12.8906C5.59534 12.9158 5.69619 12.9534 5.96778 12.9756C6.25111 12.9987 6.62365 13 7.2002 13H8.25V9.75H5V10.7998ZM7.2002 5C6.62365 5 6.25111 5.00127 5.96778 5.02442C5.69619 5.04662 5.59534 5.08419 5.5459 5.10938C5.35793 5.20522 5.20522 5.35793 5.10938 5.5459C5.08419 5.59534 5.04662 5.69619 5.02442 5.96778C5.00127 6.25111 5 6.62365 5 7.2002V8.25H8.25V5H7.2002ZM9.75 8.25H13V7.2002C13 6.62365 12.9987 6.25111 12.9756 5.96778C12.9534 5.69619 12.9158 5.59534 12.8906 5.5459C12.7948 5.35794 12.6421 5.20522 12.4541 5.10938C12.4047 5.08419 12.3038 5.04661 12.0322 5.02442C11.7489 5.00127 11.3764 5 10.7998 5H9.75V8.25Z" fill="oklch(0.3523 0 0 / 1)" class="wd-icon-fill"></path>
<path d="M16.5537 10.9993C17.2275 10.7202 17.9846 10.7204 18.6582 10.9993C18.9484 11.1195 19.193 11.2992 19.4326 11.5081C19.6672 11.7126 19.9356 11.9808 20.2578 12.303C20.5798 12.6249 20.8483 12.893 21.0527 13.1272C21.2615 13.3665 21.4402 13.6114 21.5605 13.9016C21.8395 14.5753 21.8405 15.3334 21.5615 16.0071C21.4412 16.2974 21.2615 16.5422 21.0527 16.7815C20.9506 16.8986 20.832 17.024 20.6992 17.1604L20.2578 17.6057L17.4297 20.4348C17.4077 20.4568 17.3859 20.4786 17.3643 20.5003H21.25C21.6642 20.5003 22 20.836 22 21.2503C21.9999 21.6644 21.6641 22.0003 21.25 22.0003H9.75C9.33586 22.0003 9.00013 21.6644 9 21.2503C9 20.836 9.33579 20.5003 9.75 20.5003H12.1914C12.1698 20.4786 12.148 20.4568 12.126 20.4348C11.8038 20.1126 11.5356 19.8442 11.3311 19.6096C11.1222 19.37 10.9425 19.1253 10.8223 18.8352C10.5433 18.1616 10.5435 17.4042 10.8223 16.7307C10.9425 16.4406 11.1222 16.1959 11.3311 15.9563C11.5355 15.7218 11.8038 15.4533 12.126 15.1311L14.9541 12.303C15.2763 11.9808 15.5447 11.7126 15.7793 11.5081C16.0189 11.2992 16.2635 11.1195 16.5537 10.9993ZM13.1562 16.221C12.8361 16.5411 12.619 16.7603 12.4609 16.9417C12.3026 17.1233 12.241 17.2277 12.209 17.3049C12.0823 17.6111 12.0823 17.955 12.209 18.261C12.241 18.3382 12.3027 18.4428 12.4609 18.6243C12.6239 18.8112 12.85 19.0378 13.1865 19.3743C13.7023 19.8901 13.9532 20.1284 14.1338 20.2542H15.4219C15.599 20.1308 15.8427 19.8983 16.3379 19.4036L13.1562 16.221ZM18.084 12.386C17.7777 12.2592 17.4341 12.2592 17.1279 12.386C17.0507 12.418 16.9463 12.4796 16.7646 12.638C16.5777 12.8009 16.3511 13.027 16.0146 13.3635L14.2168 15.1604L17.3984 18.343L19.1973 16.5452L19.625 16.1145C19.7439 15.9925 19.8413 15.8886 19.9229 15.7952C20.0811 15.6139 20.1428 15.5098 20.1748 15.4329C20.3016 15.1267 20.3015 14.782 20.1748 14.4758C20.1428 14.399 20.0805 14.2943 19.9229 14.1135C19.7598 13.9267 19.5338 13.7001 19.1973 13.3635C18.8608 13.027 18.6342 12.8009 18.4473 12.638C18.2656 12.4796 18.1612 12.418 18.084 12.386Z" fill="oklch(0.3523 0 0 / 1)" class="wd-icon-accent"></path>
</svg>