<svg width="24" height="24" viewBox="0 0 24 24" xmlns="http://www.w3.org/2000/svg" class="wd-icon wd-icon-print" role="presentation">
<g>
<path d="M11.5 17C11.7761 17 12 17.2239 12 17.5V18.5C12 18.7761 11.7761 19 11.5 19H9.5C9.22386 19 9 18.7761 9 18.5V17.5C9 17.2239 9.22386 17 9.5 17H11.5Z" fill="oklch(0.3523 0 0 / 1)" class="wd-icon-fill"></path>
<path d="M14.5 14C14.7761 14 15 14.2239 15 14.5V15.5C15 15.7761 14.7761 16 14.5 16H9.5C9.22386 16 9 15.7761 9 15.5V14.5C9 14.2239 9.22386 14 9.5 14H14.5Z" fill="oklch(0.3523 0 0 / 1)" class="wd-icon-fill"></path>
<path d="M17 2C17.5523 2 18 2.44772 18 3V6H20C21.1046 6 22 6.89543 22 8V17C22 18.1046 21.1046 19 20 19H18V21C18 21.5523 17.5523 22 17 22H7C6.44772 22 6 21.5523 6 21V19H4C2.89543 19 2 18.1046 2 17V8C2 6.89543 2.89543 6 4 6H6V3C6 2.44772 6.44772 2 7 2H17ZM8 20H16V13H8V20ZM4 17H6V12L6.00488 11.8975C6.05621 11.3933 6.48232 11 7 11H17C17.5523 11 18 11.4477 18 12V17H20V8H4V17ZM8 6H16V4H8V6Z" fill="oklch(0.3523 0 0 / 1)" class="wd-icon-fill"></path>
</g>
</svg>