<svg width="24" height="24" viewBox="0 0 24 24" xmlns="http://www.w3.org/2000/svg" class="wd-icon wd-icon-lock-keyhole" role="presentation">
<g>
<path d="M5.00058 19.4993C5.00058 19.7755 5.22444 19.9993 5.50058 19.9993H18.5006C18.7767 19.9993 19.0006 19.7755 19.0006 19.4993L19.0006 10.5C19.0006 10.2239 18.7767 10 18.5006 10H5.50059C5.22445 10 5.00059 10.2239 5.00059 10.5L5.00058 19.4993Z" fill="transparent" class="wd-icon-background"></path>
<path d="M19.0006 19.4993C19.0006 19.7755 18.7767 19.9993 18.5006 19.9993H5.50058C5.22444 19.9993 5.00058 19.7755 5.00058 19.4993L5.00059 10.5C5.00059 10.2239 5.22445 10 5.50059 10H18.5006C18.7767 10 19.0006 10.2239 19.0006 10.5L19.0006 19.4993Z" fill="transparent" class="wd-icon-background"></path>
</g>
<path d="M12 1C15.3137 1 18 3.68629 18 7V9H18.5C19.3284 9 20 9.67157 20 10.5V19.499C20 20.3274 19.3284 20.999 18.5 20.999H5.5C4.67157 20.999 4 20.3275 4 19.499V10.5C4 9.67158 4.67158 9.00001 5.5 9H6V7C6 3.68629 8.68629 1 12 1ZM6 11V18.999H18V11H6ZM12 3C9.79086 3 8 4.79086 8 7V9H16V7C16 4.79086 14.2091 3 12 3Z" fill="oklch(0.3523 0 0 / 1)" class="wd-icon-fill"></path>
<path d="M12 12C13.1046 12 14 12.8954 14 14C14 14.7398 13.5971 15.3835 13 15.7295V17.5C13 17.7761 12.7761 18 12.5 18H11.5C11.2239 18 11 17.7761 11 17.5V15.7295C10.4029 15.3835 10 14.7398 10 14C10 12.8954 10.8954 12 12 12Z" fill="oklch(0.3523 0 0 / 1)" class="wd-icon-accent"></path>
</svg>