<svg width="24" height="24" viewBox="0 0 24 24" xmlns="http://www.w3.org/2000/svg" class="wd-icon wd-icon-shrink-horizontal" role="presentation">
<g>
<path d="M16.293 8.2948C16.6834 7.90439 17.3165 7.9046 17.707 8.2948C18.0971 8.68536 18.0974 9.31848 17.707 9.70887L16.4141 11.0018H21.999C22.5513 11.0018 22.999 11.4496 22.999 12.0018C22.9988 12.554 22.5512 13.0018 21.999 13.0018H16.4141L17.707 14.2948C18.0971 14.6853 18.0973 15.3185 17.707 15.7089C17.3166 16.099 16.6835 16.0988 16.293 15.7089L13.293 12.7089C12.9028 12.3184 12.9028 11.6852 13.293 11.2948L16.293 8.2948Z" fill="oklch(0.3523 0 0 / 1)" class="wd-icon-fill"></path>
<path d="M6.29297 8.2948C6.6835 7.90436 7.31653 7.90431 7.70703 8.2948L10.707 11.2948C11.0971 11.6853 11.0973 12.3185 10.707 12.7089L7.70703 15.7089C7.31662 16.0988 6.68337 16.0988 6.29297 15.7089C5.90266 15.3185 5.90294 14.6853 6.29297 14.2948L7.58594 13.0018H2.00098C1.44895 13.0018 1.00139 12.5538 1.00098 12.0018C1.00098 11.4495 1.44869 11.0018 2.00098 11.0018H7.58594L6.29297 9.70887C5.90259 9.31848 5.90287 8.68536 6.29297 8.2948Z" fill="oklch(0.3523 0 0 / 1)" class="wd-icon-fill"></path>
</g>
</svg>