<svg width="24" height="24" viewBox="0 0 24 24" xmlns="http://www.w3.org/2000/svg" class="wd-icon wd-icon-arrow-enter" role="presentation">
<path d="M15.2019 5C16.0254 5 16.7033 4.99898 17.2537 5.04395C17.8157 5.08988 18.3328 5.18827 18.8181 5.43555C19.5706 5.81902 20.1827 6.43109 20.5662 7.1836C20.8135 7.6689 20.9119 8.18599 20.9578 8.74805C21.0028 9.29843 21.0017 9.97632 21.0017 10.7998V11.2002C21.0017 12.0237 21.0028 12.7016 20.9578 13.252C20.9119 13.814 20.8135 14.3311 20.5662 14.8164C20.1827 15.5689 19.5706 16.181 18.8181 16.5645C18.3328 16.8117 17.8157 16.9101 17.2537 16.9561C16.7033 17.001 16.0254 17 15.2019 17H7.41677L8.71072 18.2939C9.10102 18.6845 9.10117 19.3176 8.71072 19.708C8.32024 20.0982 7.6871 20.0982 7.29665 19.708L4.29665 16.708C3.90623 16.3176 3.90642 15.6845 4.29665 15.2939L7.29665 12.2939C7.68718 11.9035 8.32021 11.9034 8.71072 12.2939C9.10095 12.6845 9.1011 13.3176 8.71072 13.708L7.41872 15H15.2019C16.0583 15 16.6406 14.9997 17.0906 14.9629C17.529 14.9271 17.7535 14.8619 17.9099 14.7822C18.2862 14.5905 18.5922 14.2845 18.784 13.9082C18.8636 13.7518 18.9288 13.5273 18.9646 13.0889C19.0014 12.6388 19.0017 12.0566 19.0017 11.2002V10.7998C19.0017 9.94342 19.0014 9.36117 18.9646 8.91113C18.9288 8.47272 18.8636 8.2482 18.784 8.0918C18.5922 7.71555 18.2862 7.40951 17.9099 7.21778C17.7535 7.13809 17.529 7.07293 17.0906 7.03711C16.6406 7.00035 16.0583 7 15.2019 7H13.0017C12.4494 7 12.0017 6.55229 12.0017 6C12.0017 5.44772 12.4494 5 13.0017 5H15.2019Z" fill="oklch(0.3523 0 0 / 1)" class="wd-icon-fill"></path>
</svg>