<svg width="24" height="24" viewBox="0 0 24 24" xmlns="http://www.w3.org/2000/svg" class="wd-icon wd-icon-font" role="presentation">
<path d="M13.1076 3.01367C13.3156 3.01367 13.5019 3.1432 13.5753 3.33789L19.9835 20.3271C20.1068 20.6541 19.8652 21.0038 19.5158 21.0039H17.5099C17.2973 21.0039 17.1073 20.8696 17.0372 20.6689L15.5871 16.5068H8.39077L6.91518 20.6709C6.84448 20.8703 6.65607 21.0038 6.44448 21.0039H4.48647C4.13744 21.0037 3.89597 20.6549 4.0187 20.3281L10.4025 3.33789C10.4758 3.14303 10.662 3.01367 10.8703 3.01367H13.1076ZM11.963 6.09766C11.449 7.63966 10.9092 9.31073 10.2667 11.1611L9.2394 14.0908H14.7384L13.6847 11.1094C13.0422 9.31042 12.5024 7.63962 11.9884 6.09766H11.963Z" fill="oklch(0.3523 0 0 / 1)" class="wd-icon-fill"></path>
</svg>