<svg width="24" height="24" viewBox="0 0 24 24" xmlns="http://www.w3.org/2000/svg" class="wd-icon wd-icon-sparkles" role="presentation">
<g>
<path d="M6.5 13C6.78499 13 7.01701 13.2234 7.06738 13.5039C7.37936 15.2461 8.75289 16.6195 10.4951 16.9316C10.7759 16.9819 10.9997 17.2139 11 17.499C11 17.7844 10.776 18.017 10.4951 18.0674C8.75293 18.3797 7.37944 19.7538 7.06738 21.4961C7.017 21.7766 6.78499 22 6.5 22C6.21501 22 5.983 21.7766 5.93262 21.4961C5.62056 19.7538 4.24707 18.3797 2.50488 18.0674C2.22399 18.017 2 17.7844 2 17.499C2.00025 17.2139 2.22415 16.9819 2.50488 16.9316C4.24711 16.6195 5.62064 15.2461 5.93262 13.5039C5.98299 13.2234 6.21501 13 6.5 13Z" fill="oklch(0.3523 0 0 / 1)" class="wd-icon-fill"></path>
<path d="M15 2C15.4342 2 15.7892 2.33705 15.8701 2.76367C16.384 5.47769 18.5223 7.61591 21.2363 8.12988C21.663 8.21081 22 8.56575 22 9C22 9.43425 21.663 9.78918 21.2363 9.87012C18.5224 10.3841 16.3842 12.5224 15.8701 15.2363C15.7892 15.663 15.4343 16 15 16C14.5657 16 14.2108 15.663 14.1299 15.2363C13.6158 12.5224 11.4776 10.3841 8.76367 9.87012C8.33705 9.78918 8 9.43425 8 9C8 8.56575 8.33704 8.21081 8.76367 8.12988C11.4777 7.61591 13.616 5.47769 14.1299 2.76367C14.2108 2.33705 14.5658 2 15 2Z" fill="oklch(0.3523 0 0 / 1)" class="wd-icon-fill"></path>
</g>
</svg>