<svg width="24" height="24" viewBox="0 0 24 24" xmlns="http://www.w3.org/2000/svg" class="wd-icon wd-icon-compare-files" role="presentation">
<g>
<path d="M13.7725 2.25488C13.9473 2.04124 14.2629 2.00974 14.4766 2.18457L15.25 2.81738C15.4634 2.99227 15.4951 3.30687 15.3203 3.52051L14.1104 5H15C15.6565 5.00001 16.3065 5.12965 16.9131 5.38086C17.5196 5.63213 18.0709 6.0006 18.5352 6.46484C18.9993 6.92908 19.3679 7.48041 19.6191 8.08691C19.8702 8.69335 20 9.34364 20 10V15.3369C21.1824 15.8986 21.9999 17.1039 22 18.5C21.9998 20.4328 20.4329 22 18.5 22C16.5671 22 15.0002 20.4328 15 18.5C15.0001 16.7368 16.3039 15.2778 18 15.0352V10C18 9.60621 17.9221 9.2154 17.7715 8.85156C17.6208 8.48786 17.3994 8.15732 17.1211 7.87891C16.8427 7.60048 16.5122 7.37927 16.1484 7.22852C15.8754 7.1154 15.587 7.04352 15.2939 7.01465L15 7H14.1094L15.3203 8.48047C15.495 8.69425 15.4637 9.00885 15.25 9.18359L14.8633 9.5L14.4766 9.81738C14.263 9.99197 13.9473 9.96048 13.7725 9.74707L11.2256 6.63379C11.207 6.61101 11.1892 6.58742 11.1729 6.56348C10.9254 6.20047 10.9434 5.71264 11.2256 5.36719L13.7725 2.25488ZM18.5 17C17.6717 17 17.0001 17.6717 17 18.5C17.0002 19.3283 17.6717 20 18.5 20C19.3283 20 19.9998 19.3283 20 18.5C19.9999 17.6717 19.3283 17 18.5 17Z" fill="oklch(0.3523 0 0 / 1)" class="wd-icon-fill"></path>
<path d="M5.5 2C7.433 2 9 3.567 9 5.5C9 7.2632 7.6961 8.72121 6 8.96387V14C6 14.3938 6.07789 14.7846 6.22852 15.1484C6.37922 15.5121 6.60057 15.8427 6.87891 16.1211C7.15733 16.3995 7.48782 16.6207 7.85156 16.7715C8.12466 16.8846 8.41294 16.9565 8.70605 16.9854L9 17H9.89062L8.67969 15.5195C8.50503 15.3058 8.53626 14.9912 8.75 14.8164L9.13672 14.5L9.52344 14.1826C9.73703 14.008 10.0527 14.0395 10.2275 14.2529L12.7744 17.3662C12.793 17.389 12.8108 17.4126 12.8271 17.4365C13.0746 17.7995 13.0566 18.2874 12.7744 18.6328L10.2275 21.7451C10.0527 21.9588 9.73712 21.9903 9.52344 21.8154L8.75 21.1826C8.53656 21.0077 8.50492 20.6931 8.67969 20.4795L9.88965 19H9L8.75391 18.9941C8.18145 18.9659 7.61757 18.8389 7.08691 18.6191C6.48037 18.3679 5.92908 17.9994 5.46484 17.5352C5.0007 17.0709 4.63208 16.5196 4.38086 15.9131C4.12978 15.3067 4 14.6564 4 14V8.66309C2.81755 8.10135 2 6.89618 2 5.5C2 3.567 3.567 2 5.5 2ZM5.5 4C4.67157 4 4 4.67157 4 5.5C4 6.32843 4.67157 7 5.5 7C6.32843 7 7 6.32843 7 5.5C7 4.67157 6.32843 4 5.5 4Z" fill="oklch(0.3523 0 0 / 1)" class="wd-icon-fill"></path>
</g>
</svg>