<svg width="24" height="24" viewBox="0 0 24 24" xmlns="http://www.w3.org/2000/svg" class="wd-icon wd-icon-highlight" role="presentation">
<path d="M13.5831 1.59842C14.3681 1.33048 15.2287 1.39928 15.961 1.78885C16.282 1.95962 16.5656 2.21399 16.8682 2.5115L17.4893 3.1326C17.7872 3.43553 18.0421 3.71965 18.213 4.0408C18.6024 4.77303 18.6713 5.63386 18.4034 6.41873C18.2468 6.87742 17.9323 7.29428 17.5772 7.78592L14.171 12.5017C13.914 12.8576 13.7262 13.1215 13.4971 13.3533C13.3047 13.548 13.0934 13.7233 12.8653 13.8748C12.5939 14.0551 12.2988 14.188 11.9005 14.3719L9.12996 15.6502C8.80163 15.8017 8.5208 15.9361 8.2325 16.0095C7.62074 16.1652 6.98207 16.1213 6.40437 15.8963L4.64949 16.7078C4.26917 16.8832 3.81969 16.8028 3.52351 16.5066L3.49812 16.4812C3.20196 16.1851 3.12158 15.7356 3.29695 15.3553L4.10652 13.6013C3.88014 13.0227 3.83632 12.3825 3.99226 11.7693C4.06569 11.4809 4.19904 11.1994 4.35066 10.8709L5.62898 8.10135C5.81296 7.70273 5.9467 7.40802 6.12703 7.1365C6.27849 6.90846 6.45279 6.6961 6.64753 6.50369C6.87937 6.27467 7.14329 6.08683 7.4991 5.82986L12.2159 2.42361C12.7074 2.06862 13.1245 1.75501 13.5831 1.59842ZM7.44441 8.93924L6.16707 11.7088C5.9819 12.11 5.94696 12.195 5.92976 12.2625C5.85889 12.5415 5.91221 12.8377 6.07527 13.075C6.11474 13.1324 6.17586 13.2 6.48836 13.5125C6.80054 13.8247 6.8685 13.887 6.92586 13.9265C7.16325 14.0896 7.46021 14.1421 7.73933 14.0711C7.80681 14.0539 7.89208 14.0198 8.29304 13.8347L11.0616 12.5564C11.1815 12.5011 11.2781 12.4536 11.3585 12.4158L7.58406 8.64139C7.54611 8.72182 7.49988 8.81906 7.44441 8.93924ZM15.0216 3.55447C14.7775 3.4247 14.4902 3.40167 14.2286 3.49099C14.1222 3.52739 13.9899 3.60943 13.3858 4.04568L8.67097 7.45096C8.63911 7.47397 8.60857 7.49581 8.58015 7.51639L12.4835 11.4197C12.5039 11.3914 12.527 11.3625 12.5499 11.3308L15.9561 6.61599C16.3928 6.01136 16.4735 5.87867 16.5098 5.77224C16.5992 5.51056 16.5762 5.22339 16.4464 4.97928C16.3934 4.88012 16.291 4.76243 15.7647 4.23611C15.2379 3.70927 15.1208 3.60732 15.0216 3.55447Z" fill="oklch(0.3523 0 0 / 1)" class="wd-icon-fill"></path>
<path d="M19.4004 18C19.9602 18 20.2402 18.0004 20.4541 18.1094C20.6421 18.2052 20.7948 18.3579 20.8906 18.5459C20.9996 18.7598 21 19.0398 21 19.5996V20.4004C21 20.9602 20.9996 21.2402 20.8906 21.4541C20.7948 21.6421 20.6421 21.7948 20.4541 21.8906C20.2402 21.9996 19.9602 22 19.4004 22H4.59961C4.03982 22 3.75976 21.9996 3.5459 21.8906C3.35793 21.7948 3.20522 21.6421 3.10938 21.4541C3.00041 21.2402 3 20.9602 3 20.4004V19.5996C3 19.0398 3.00041 18.7598 3.10938 18.5459C3.20522 18.3579 3.35793 18.2052 3.5459 18.1094C3.75976 18.0004 4.03982 18 4.59961 18H19.4004Z" fill="oklch(0.3523 0 0 / 1)" class="wd-icon-accent"></path>
</svg>