<svg width="24" height="24" viewBox="0 0 24 24" xmlns="http://www.w3.org/2000/svg" class="wd-icon wd-icon-circle-dashed" role="presentation">
<g>
<path d="M12 20C12.1408 20 12.281 19.9964 12.4199 19.9893C12.9714 19.961 13.4413 20.3851 13.4697 20.9365C13.4981 21.488 13.074 21.9579 12.5225 21.9863C12.3493 21.9953 12.1752 22 12 22C11.8248 22 11.6507 21.9953 11.4775 21.9863C10.926 21.9579 10.5019 21.488 10.5303 20.9365C10.5587 20.3851 11.0286 19.961 11.5801 19.9893C11.719 19.9964 11.8592 20 12 20Z" fill="oklch(0.3523 0 0 / 1)" class="wd-icon-fill"></path>
<path d="M6.25977 19.0039C6.56099 18.541 7.18065 18.4097 7.64355 18.7109C7.87696 18.8628 8.11892 19.0026 8.36816 19.1299C8.85997 19.381 9.05482 19.9837 8.80371 20.4756C8.55254 20.9674 7.94985 21.1622 7.45801 20.9111C7.14627 20.752 6.84436 20.5765 6.55273 20.3867C6.08988 20.0855 5.95868 19.4668 6.25977 19.0039Z" fill="oklch(0.3523 0 0 / 1)" class="wd-icon-fill"></path>
<path d="M16.3564 18.7109C16.8194 18.4097 17.439 18.541 17.7402 19.0039C18.0413 19.4668 17.9101 20.0855 17.4473 20.3867C17.1556 20.5765 16.8537 20.752 16.542 20.9111C16.0502 21.1622 15.4475 20.9674 15.1963 20.4756C14.9452 19.9837 15.14 19.381 15.6318 19.1299C15.8811 19.0026 16.123 18.8628 16.3564 18.7109Z" fill="oklch(0.3523 0 0 / 1)" class="wd-icon-fill"></path>
<path d="M3.52441 15.1963C4.01626 14.9452 4.61895 15.14 4.87012 15.6318C4.99737 15.8811 5.13719 16.123 5.28906 16.3564C5.59029 16.8194 5.459 17.439 4.99609 17.7402C4.53321 18.0413 3.91447 17.9101 3.61328 17.4473C3.42352 17.1556 3.24804 16.8537 3.08887 16.542C2.83776 16.0502 3.03263 15.4475 3.52441 15.1963Z" fill="oklch(0.3523 0 0 / 1)" class="wd-icon-fill"></path>
<path d="M19.1299 15.6318C19.381 15.14 19.9837 14.9452 20.4756 15.1963C20.9674 15.4475 21.1622 16.0502 20.9111 16.542C20.752 16.8537 20.5765 17.1556 20.3867 17.4473C20.0855 17.9101 19.4668 18.0413 19.0039 17.7402C18.541 17.439 18.4097 16.8194 18.7109 16.3564C18.8628 16.123 19.0026 15.8811 19.1299 15.6318Z" fill="oklch(0.3523 0 0 / 1)" class="wd-icon-fill"></path>
<path d="M3.06348 10.5303C3.61493 10.5587 4.03903 11.0286 4.01074 11.5801C4.00358 11.719 4 11.8592 4 12C4 12.1408 4.00358 12.281 4.01074 12.4199C4.03903 12.9714 3.61493 13.4413 3.06348 13.4697C2.51199 13.4981 2.04211 13.074 2.01367 12.5225C2.00475 12.3493 2 12.1752 2 12C2 11.8248 2.00475 11.6507 2.01367 11.4775C2.04211 10.926 2.51199 10.5019 3.06348 10.5303Z" fill="oklch(0.3523 0 0 / 1)" class="wd-icon-fill"></path>
<path d="M20.9365 10.5303C21.488 10.5019 21.9579 10.926 21.9863 11.4775C21.9953 11.6507 22 11.8248 22 12C22 12.1752 21.9953 12.3493 21.9863 12.5225C21.9579 13.074 21.488 13.4981 20.9365 13.4697C20.3851 13.4413 19.961 12.9714 19.9893 12.4199C19.9964 12.281 20 12.1408 20 12C20 11.8592 19.9964 11.719 19.9893 11.5801C19.961 11.0286 20.3851 10.5587 20.9365 10.5303Z" fill="oklch(0.3523 0 0 / 1)" class="wd-icon-fill"></path>
<path d="M3.61328 6.55273C3.91447 6.08988 4.53321 5.95868 4.99609 6.25977C5.459 6.56099 5.59029 7.18065 5.28906 7.64355C5.13719 7.87696 4.99737 8.11892 4.87012 8.36816C4.61895 8.85997 4.01626 9.05482 3.52441 8.80371C3.03263 8.55254 2.83776 7.94985 3.08887 7.45801C3.24804 7.14627 3.42352 6.84436 3.61328 6.55273Z" fill="oklch(0.3523 0 0 / 1)" class="wd-icon-fill"></path>
<path d="M19.0039 6.25977C19.4668 5.95868 20.0855 6.08988 20.3867 6.55273C20.5765 6.84436 20.752 7.14627 20.9111 7.45801C21.1622 7.94985 20.9674 8.55254 20.4756 8.80371C19.9837 9.05482 19.381 8.85997 19.1299 8.36816C19.0026 8.11892 18.8628 7.87696 18.7109 7.64355C18.4097 7.18065 18.541 6.56099 19.0039 6.25977Z" fill="oklch(0.3523 0 0 / 1)" class="wd-icon-fill"></path>
<path d="M7.45801 3.08887C7.94985 2.83776 8.55254 3.03263 8.80371 3.52441C9.05482 4.01626 8.85997 4.61895 8.36816 4.87012C8.11892 4.99737 7.87696 5.13719 7.64355 5.28906C7.18065 5.59029 6.56099 5.459 6.25977 4.99609C5.95868 4.53321 6.08988 3.91447 6.55273 3.61328C6.84436 3.42352 7.14627 3.24804 7.45801 3.08887Z" fill="oklch(0.3523 0 0 / 1)" class="wd-icon-fill"></path>
<path d="M15.1963 3.52441C15.4475 3.03263 16.0502 2.83776 16.542 3.08887C16.8537 3.24804 17.1556 3.42352 17.4473 3.61328C17.9101 3.91447 18.0413 4.53321 17.7402 4.99609C17.439 5.459 16.8194 5.59029 16.3564 5.28906C16.123 5.13719 15.8811 4.99737 15.6318 4.87012C15.14 4.61895 14.9452 4.01626 15.1963 3.52441Z" fill="oklch(0.3523 0 0 / 1)" class="wd-icon-fill"></path>
<path d="M12.5225 2.01367C13.074 2.04211 13.4981 2.51199 13.4697 3.06348C13.4413 3.61493 12.9714 4.03903 12.4199 4.01074C12.281 4.00358 12.1408 4 12 4C11.8592 4 11.719 4.00358 11.5801 4.01074C11.0286 4.03903 10.5587 3.61493 10.5303 3.06348C10.5019 2.51199 10.926 2.04211 11.4775 2.01367C11.6507 2.00475 11.8248 2 12 2C12.1752 2 12.3493 2.00475 12.5225 2.01367Z" fill="oklch(0.3523 0 0 / 1)" class="wd-icon-fill"></path>
</g>
</svg>