<svg width="24" height="24" viewBox="0 0 24 24" xmlns="http://www.w3.org/2000/svg" class="wd-icon wd-icon-package-gear" role="presentation">
<path d="M16.793 1C17.1908 1.00002 17.5722 1.15817 17.8535 1.43945L21.5605 5.14648C21.8418 5.42777 22 5.80924 22 6.20703V11.5C22 11.7761 21.7761 12 21.5 12H20.5C20.2239 12 20 11.7761 20 11.5V7H4V20H11.5C11.7761 20 12 20.2239 12 20.5V21.5C12 21.7761 11.7761 22 11.5 22H3.5C2.67157 22 2 21.3284 2 20.5V6.20703C2.00002 5.80923 2.15817 5.42777 2.43945 5.14648L6.14648 1.43945L6.25684 1.33984C6.52371 1.12123 6.85903 1.00002 7.20703 1H16.793ZM5.41406 5H11V3H7.41406L5.41406 5ZM13 5H18.5859L16.5859 3H13V5Z" fill="oklch(0.3523 0 0 / 1)" class="wd-icon-fill"></path>
<path d="M18.5928 13C18.8311 13 19.0363 13.1686 19.083 13.4023L19.2412 14.1982C19.4371 14.2623 19.6264 14.3405 19.8076 14.4326L20.4854 13.9824C20.6835 13.8503 20.9477 13.8767 21.1162 14.0449L21.9551 14.8838C22.1233 15.0523 22.1497 15.3165 22.0176 15.5146L21.5654 16.1914C21.6572 16.3721 21.735 16.5607 21.7988 16.7559L22.5977 16.917C22.8314 16.9637 23 17.1689 23 17.4072V18.5928C22.9999 18.831 22.8313 19.0363 22.5977 19.083L21.7988 19.2412C21.735 19.4368 21.6573 19.6256 21.5654 19.8066L22.0176 20.4854C22.1496 20.6835 22.1233 20.9477 21.9551 21.1162L21.1162 21.9541C20.9477 22.1226 20.6837 22.1488 20.4854 22.0166L19.8086 21.5654C19.6269 21.6579 19.4376 21.7375 19.2412 21.8018L19.083 22.5977C19.0363 22.8314 18.8311 23 18.5928 23H17.4072C17.169 22.9999 16.9637 22.8313 16.917 22.5977L16.7578 21.8027C16.5604 21.7384 16.37 21.6592 16.1875 21.5664L15.5146 22.0166C15.3163 22.1488 15.0523 22.1226 14.8838 21.9541L14.0459 21.1162C13.8774 20.9477 13.8512 20.6837 13.9834 20.4854L14.4316 19.8115C14.3386 19.6287 14.2588 19.438 14.1943 19.2402L13.4023 19.083C13.1687 19.0363 13.0001 18.831 13 18.5928V17.4072C13 17.1689 13.1686 16.9637 13.4023 16.917L14.1953 16.7568C14.2597 16.5599 14.3388 16.3697 14.4316 16.1875L13.9834 15.5146C13.8512 15.3163 13.8774 15.0523 14.0459 14.8838L14.8838 14.0449C15.0523 13.8767 15.3165 13.8504 15.5146 13.9824L16.1885 14.4316C16.3706 14.3391 16.5609 14.2604 16.7578 14.1963L16.917 13.4023C16.9637 13.1687 17.169 13.0001 17.4072 13H18.5928ZM17.998 16C16.8935 16 15.9981 16.8955 15.998 18C15.998 19.1046 16.8935 20 17.998 20C19.1024 19.9997 19.998 19.1044 19.998 18C19.998 16.8956 19.1024 16.0003 17.998 16Z" fill="oklch(0.3523 0 0 / 1)" class="wd-icon-accent"></path>
</svg>