<svg width="24" height="24" viewBox="0 0 24 24" xmlns="http://www.w3.org/2000/svg" class="wd-icon wd-icon-arrow-up-to-line" role="presentation">
<path d="M18 4C18.5523 4 19 4.44772 19 5C19 5.55228 18.5523 6 18 6H6C5.44772 6 5 5.55228 5 5C5 4.44772 5.44772 4 6 4H18Z" fill="oklch(0.3523 0 0 / 1)" class="wd-icon-fill"></path>
<path d="M11.2933 8.29275C11.6838 7.90242 12.3169 7.90241 12.7073 8.29275L16.7073 12.2928C17.0974 12.6833 17.0976 13.3164 16.7073 13.7068C16.317 14.0972 15.6838 14.0969 15.2933 13.7068L12.9993 11.4129V18.9998C12.9991 19.5519 12.5515 19.9998 11.9993 19.9998C11.4474 19.9995 10.9995 19.5517 10.9993 18.9998V11.4148L8.70735 13.7068C8.31698 14.0971 7.68383 14.0968 7.29328 13.7068C6.90291 13.3163 6.90287 12.6832 7.29328 12.2928L11.2933 8.29275Z" fill="oklch(0.3523 0 0 / 1)" class="wd-icon-accent"></path>
</svg>