<svg width="24" height="24" viewBox="0 0 24 24" xmlns="http://www.w3.org/2000/svg" class="wd-icon wd-icon-exclamation-triangle" role="presentation">
<path d="M11.5954 4.07834C11.8539 3.96346 12.1494 3.96348 12.4079 4.07834C12.4535 4.09873 12.5874 4.17973 12.8581 4.56174C13.1266 4.94092 13.4417 5.4825 13.9059 6.2844L19.3551 15.6975C19.8211 16.5023 20.1349 17.0477 20.3307 17.4709C20.5284 17.8983 20.5321 18.0545 20.527 18.1037C20.4976 18.3856 20.35 18.6421 20.1208 18.8088C20.0805 18.838 19.9428 18.9133 19.4743 18.9563C19.01 18.9988 18.3813 19.0002 17.4518 19.0002H6.55143C5.62194 19.0002 4.99326 18.9988 4.52897 18.9563C4.06076 18.9133 3.92283 18.838 3.88249 18.8088C3.65336 18.6421 3.50569 18.3856 3.47624 18.1037C3.47114 18.0545 3.4748 17.8984 3.67253 17.4709C3.86835 17.0476 4.1821 16.5024 4.64811 15.6975L10.0973 6.2844C10.5617 5.48236 10.8766 4.94094 11.1452 4.56174C11.416 4.17949 11.5498 4.0987 11.5954 4.07834ZM12.0016 14.7502C11.3113 14.7502 10.7516 15.3099 10.7516 16.0002C10.7517 16.6905 11.3113 17.2502 12.0016 17.2502C12.6918 17.2501 13.2515 16.6904 13.2516 16.0002C13.2516 15.3099 12.6919 14.7503 12.0016 14.7502ZM12.0016 8.00022C11.4546 8.00022 11.0164 8.45346 11.0339 9.00022L11.1676 13.1926C11.1822 13.6426 11.5514 14.0002 12.0016 14.0002C12.4519 14.0001 12.8211 13.6426 12.8356 13.1926L12.9694 9.00022C12.9869 8.45354 12.5486 8.00033 12.0016 8.00022Z" fill="transparent" class="wd-icon-background"></path>
<path d="M10.7809 2.25084C11.5567 1.90588 12.4426 1.90606 13.2184 2.25084C13.766 2.49436 14.1567 2.93851 14.488 3.40611C14.8221 3.87787 15.1899 4.51428 15.6344 5.28209L21.0846 14.6952C21.5309 15.466 21.9007 16.1044 22.1442 16.6307C22.3855 17.1522 22.5766 17.7138 22.5143 18.3114C22.426 19.1573 21.9825 19.9264 21.2946 20.4266C20.8088 20.7795 20.2269 20.8956 19.6549 20.9481C19.0776 21.001 18.34 20.9999 17.4499 20.9999H6.54948C5.65932 20.9999 4.92165 21.001 4.3444 20.9481C3.77253 20.8956 3.19044 20.7796 2.70475 20.4266C2.01707 19.9264 1.57333 19.1571 1.48502 18.3114C1.42277 17.7139 1.61394 17.1521 1.85514 16.6307C2.09862 16.1044 2.46845 15.466 2.91471 14.6952L8.3649 5.28209C8.80942 4.51429 9.17727 3.8779 9.51139 3.40611C9.84258 2.93854 10.2334 2.49447 10.7809 2.25084ZM12.4059 4.07798C12.1474 3.96323 11.8519 3.96306 11.5934 4.07798C11.5476 4.09853 11.4135 4.17982 11.1432 4.56138C10.8747 4.94058 10.5597 5.48207 10.0954 6.28404L4.64615 15.6971C4.18016 16.502 3.86638 17.0473 3.67057 17.4706C3.473 17.8977 3.4692 18.054 3.47428 18.1034C3.50366 18.3852 3.65148 18.6417 3.88053 18.8085C3.92045 18.8375 4.05783 18.9128 4.52701 18.9559C4.99128 18.9985 5.61994 18.9999 6.54948 18.9999H17.4499C18.3793 18.9999 19.008 18.9984 19.4723 18.9559C19.9404 18.913 20.0783 18.8377 20.1188 18.8085C20.3481 18.6417 20.4956 18.3854 20.5251 18.1034C20.5302 18.054 20.5265 17.8981 20.3288 17.4706C20.1329 17.0473 19.8192 16.502 19.3532 15.6971L13.904 6.28404C13.4397 5.48204 13.1247 4.94054 12.8561 4.56138C12.5849 4.17856 12.4512 4.09811 12.4059 4.07798Z" fill="oklch(0.3523 0 0 / 1)" class="wd-icon-fill"></path>
<g>
<path d="M12 14.75C12.6904 14.75 13.25 15.3096 13.25 16C13.25 16.6904 12.6904 17.25 12 17.25C11.3096 17.25 10.75 16.6904 10.75 16C10.75 15.3096 11.3096 14.75 12 14.75Z" fill="oklch(0.3523 0 0 / 1)" class="wd-icon-accent"></path>
<path d="M12 8C12.547 8.00003 12.9853 8.45327 12.9678 9L12.834 13.1924C12.8196 13.6425 12.4504 14 12 14C11.5497 14 11.1804 13.6425 11.166 13.1924L11.0322 9C11.0147 8.45324 11.453 8 12 8Z" fill="oklch(0.3523 0 0 / 1)" class="wd-icon-accent"></path>
</g>
</svg>