<svg width="24" height="24" viewBox="0 0 24 24" xmlns="http://www.w3.org/2000/svg" class="wd-icon wd-icon-calendar-day-20" role="presentation">
<g>
<path d="M14.9951 10.3799C15.8397 10.38 16.4915 10.7337 16.9111 11.4375C17.3194 12.1059 17.5137 12.9525 17.5137 13.96C17.5137 14.6225 17.4302 15.2226 17.2588 15.7559L17.2578 15.7549C17.09 16.2897 16.8181 16.7257 16.4346 17.0488C16.0462 17.3811 15.5595 17.54 14.9951 17.54C14.1466 17.54 13.4919 17.1907 13.0713 16.4922L13.0693 16.4893C12.6744 15.8158 12.4863 14.9672 12.4863 13.96C12.4863 13.3042 12.5665 12.7112 12.7314 12.1846L12.7324 12.1816C12.9059 11.6484 13.1774 11.2112 13.5527 10.8828C13.9412 10.543 14.4288 10.3799 14.9951 10.3799ZM14.9951 11.6445C14.7508 11.6446 14.5699 11.7286 14.4287 11.8916C14.2722 12.0725 14.1474 12.3319 14.0693 12.6865C13.9956 13.0437 13.958 13.4682 13.958 13.96C13.958 14.72 14.0546 15.3056 14.2334 15.7305C14.3215 15.93 14.4298 16.063 14.5488 16.1465C14.6663 16.2287 14.8116 16.2744 14.9951 16.2744C15.2472 16.2743 15.4311 16.1904 15.5713 16.0283C15.7288 15.8461 15.8529 15.5872 15.9307 15.2373C16.0096 14.8818 16.0508 14.4568 16.0508 13.96C16.0508 13.198 15.9499 12.6158 15.7656 12.1982C15.6775 11.9961 15.5685 11.8601 15.4482 11.7754C15.3295 11.6919 15.1817 11.6446 14.9951 11.6445Z" fill="oklch(0.3523 0 0 / 1)" class="wd-icon-fill"></path>
<path d="M9.08008 10.3721C9.54186 10.3721 9.95231 10.4619 10.3018 10.6523C10.6519 10.8342 10.9236 11.0888 11.1055 11.416L11.1709 11.5381C11.3121 11.8267 11.3818 12.1405 11.3818 12.4756C11.3818 12.8363 11.3051 13.1845 11.1523 13.5166C11.0043 13.8384 10.8089 14.1427 10.5674 14.4287L10.5664 14.4277C10.337 14.7005 10.0487 15.0006 9.70313 15.3281L9.45215 15.5723L9.4502 15.5732L8.87891 16.1143H10.8174C11.169 16.1144 11.4541 16.3993 11.4541 16.751C11.4541 17.1027 11.169 17.3875 10.8174 17.3877H7.4668C7.04696 17.3877 6.7062 17.0477 6.70606 16.6279C6.70606 16.4199 6.7918 16.2207 6.94238 16.0772L8.50293 14.5898L8.50391 14.5889L8.81836 14.292C9.05705 14.0471 9.25605 13.825 9.41602 13.625L9.41895 13.6211C9.58126 13.4251 9.70699 13.2296 9.79883 13.0352C9.88654 12.8435 9.92773 12.6573 9.92774 12.4756C9.92764 12.1941 9.84484 12.0016 9.70117 11.8662L9.69824 11.8633C9.54659 11.7161 9.35023 11.6367 9.08887 11.6367C8.88768 11.6368 8.72367 11.6822 8.58789 11.7637C8.44632 11.8486 8.33581 11.9628 8.25488 12.1104C8.22972 12.1563 8.20791 12.2038 8.18946 12.2529C8.07988 12.5446 7.80952 12.8613 7.40821 12.8613C7.01806 12.8611 6.61537 12.5173 6.74317 12.0537C6.79749 11.8568 6.87811 11.6693 6.98438 11.4922L6.98535 11.4912C7.19467 11.1469 7.48229 10.8741 7.84278 10.6738C8.20862 10.4706 8.62336 10.3721 9.08008 10.3721Z" fill="oklch(0.3523 0 0 / 1)" class="wd-icon-fill"></path>
<path d="M16.2012 2C17.0247 2 17.7026 1.99898 18.2529 2.04395C18.815 2.08988 19.3321 2.18828 19.8174 2.43555C20.5699 2.81902 21.182 3.43109 21.5654 4.1836C21.8127 4.6689 21.9111 5.18599 21.957 5.74805C22.002 6.29843 22.001 6.97632 22.001 7.79981V16.2002C22.001 17.0237 22.002 17.7016 21.957 18.252C21.9111 18.814 21.8127 19.3311 21.5654 19.8164C21.182 20.5689 20.5699 21.181 19.8174 21.5645C19.3321 21.8117 18.815 21.9101 18.2529 21.9561C17.7026 22.001 17.0247 22 16.2012 22H7.80078C6.9773 22 6.2994 22.001 5.74903 21.9561C5.18697 21.9101 4.66988 21.8117 4.18457 21.5645C3.43207 21.181 2.81999 20.5689 2.43653 19.8164C2.18925 19.3311 2.09085 18.814 2.04492 18.252C1.99996 17.7016 2.00098 17.0237 2.00098 16.2002V7.79981C2.00098 6.97632 1.99996 6.29843 2.04492 5.74805C2.09085 5.18599 2.18925 4.6689 2.43653 4.1836C2.81999 3.43109 3.43207 2.81902 4.18457 2.43555C4.66988 2.18827 5.18697 2.08988 5.74903 2.04395C6.2994 1.99898 6.9773 2 7.80078 2H16.2012ZM4.00098 16.2002C4.00098 17.0566 4.00133 17.6388 4.03809 18.0889C4.07391 18.5273 4.13906 18.7518 4.21875 18.9082C4.41049 19.2845 4.71652 19.5905 5.09278 19.7822C5.24917 19.8619 5.4737 19.9271 5.91211 19.9629C6.36215 19.9997 6.9444 20 7.80078 20H16.2012C17.0576 20 17.6398 19.9997 18.0898 19.9629C18.5283 19.9271 18.7528 19.8619 18.9092 19.7822C19.2854 19.5905 19.5915 19.2845 19.7832 18.9082C19.8629 18.7518 19.928 18.5273 19.9639 18.0889C20.0006 17.6388 20.001 17.0566 20.001 16.2002V8H4.00098V16.2002Z" fill="oklch(0.3523 0 0 / 1)" class="wd-icon-fill"></path>
</g>
</svg>