<svg width="24" height="24" viewBox="0 0 24 24" xmlns="http://www.w3.org/2000/svg" class="wd-icon wd-icon-star" role="presentation">
<path d="M11.5518 3.40823C11.7353 3.03707 12.2648 3.03713 12.4483 3.40823L14.9395 8.4551L20.5079 9.26467C20.918 9.32426 21.082 9.82794 20.7852 10.1172L16.7559 14.0449L17.7071 19.5918C17.7771 20.0001 17.3482 20.3117 16.9815 20.1192L12.0001 17.5L7.01862 20.1192C6.65191 20.3115 6.22399 20.0001 6.29401 19.5918L7.24519 14.0449L3.21491 10.1172C2.91822 9.82793 3.08217 9.32426 3.49226 9.26467L9.06159 8.4551L11.5518 3.40823Z" fill="transparent" class="wd-icon-background"></path>
<path d="M10.6554 2.96483C11.189 1.88576 12.6962 1.85303 13.2902 2.86424L13.3449 2.96483L15.6027 7.541L20.6515 8.27537C21.8804 8.45394 22.3744 9.9642 21.4835 10.833L17.8302 14.3935L18.6925 19.4228L18.7081 19.5371C18.8223 20.7051 17.5822 21.5641 16.5167 21.0049L16.5158 21.0039L12.0001 18.6289L7.4845 21.0039L7.48352 21.0049C6.38249 21.5822 5.09892 20.6466 5.30872 19.4228L6.17005 14.3935L2.51673 10.833C1.62617 9.9644 2.11975 8.45406 3.34876 8.27537L8.39759 7.541L10.6554 2.96483ZM9.95813 8.89744C9.81248 9.19255 9.53088 9.39698 9.2052 9.44432L4.63782 10.1074L7.94349 13.3291C8.17898 13.5588 8.28619 13.8896 8.23059 14.2139L7.45032 18.7617L11.5343 16.6152L11.6466 16.5644C11.9123 16.464 12.2111 16.4813 12.4659 16.6152L16.5499 18.7627L15.7706 14.2139C15.715 13.8896 15.8223 13.5588 16.0577 13.3291L19.3615 10.1074L14.796 9.44432C14.4704 9.39694 14.1887 9.1925 14.0431 8.89744L12.0001 4.75877L9.95813 8.89744Z" fill="oklch(0.3523 0 0 / 1)" class="wd-icon-fill"></path>
</svg>