<svg width="24" height="24" viewBox="0 0 24 24" xmlns="http://www.w3.org/2000/svg" class="wd-icon wd-icon-filter-check" role="presentation">
<g>
<path d="M14.5 16C15.0523 16 15.5 16.4477 15.5 17C15.5 17.5523 15.0523 18 14.5 18H9.5C8.94772 18 8.5 17.5523 8.5 17C8.5 16.4477 8.94772 16 9.5 16H14.5Z" fill="oklch(0.3523 0 0 / 1)" class="wd-icon-fill"></path>
<path d="M17.5 11C18.0523 11 18.5 11.4477 18.5 12C18.5 12.5523 18.0523 13 17.5 13H6.5C5.94772 13 5.5 12.5523 5.5 12C5.5 11.4477 5.94772 11 6.5 11H17.5Z" fill="oklch(0.3523 0 0 / 1)" class="wd-icon-fill"></path>
<path d="M20.5 6C21.0523 6 21.5 6.44772 21.5 7C21.5 7.55228 21.0523 8 20.5 8H3.5C2.94772 8 2.5 7.55228 2.5 7C2.5 6.44772 2.94772 6 3.5 6H20.5Z" fill="oklch(0.3523 0 0 / 1)" class="wd-icon-fill"></path>
</g>
<path d="M21.7579 16.5196C22.0231 16.2016 22.4965 16.1588 22.8146 16.4239C23.1324 16.689 23.1751 17.1624 22.9103 17.4805L19.5773 21.4805C19.4349 21.6513 19.2234 21.7499 19.0011 21.75C18.7787 21.75 18.5674 21.6513 18.4249 21.4805L16.7579 19.4805C16.4928 19.1623 16.5355 18.6891 16.8536 18.4239C17.1717 18.159 17.6451 18.2017 17.9103 18.5196L19.0001 19.8282L21.7579 16.5196Z" fill="oklch(0.3523 0 0 / 1)" class="wd-icon-accent"></path>
</svg>