<svg width="24" height="24" viewBox="0 0 24 24" xmlns="http://www.w3.org/2000/svg" class="wd-icon wd-icon-arrow-switch" role="presentation">
<g>
<path d="M4.59123 12.2538C4.76598 12.0404 5.08072 12.0092 5.29435 12.1834L6.06877 12.8172C6.28215 12.9921 6.31369 13.3067 6.13908 13.5204L4.10978 15.9998H15.5004C15.7763 16 16.0002 16.224 16.0004 16.4998V17.4998C16.0004 17.7759 15.7764 17.9997 15.5004 17.9998H4.10978L6.13908 20.4803C6.31396 20.6941 6.28263 21.0096 6.06877 21.1844L5.68205 21.4998L5.29533 21.8163C5.08167 21.9909 4.76707 21.9595 4.5922 21.7459L1.22599 17.6336C1.11326 17.4957 1.04229 17.3351 1.01408 17.1688C0.966693 16.8912 1.03686 16.5974 1.22502 16.367L4.59123 12.2538Z" fill="oklch(0.3523 0 0 / 1)" class="wd-icon-fill"></path>
<path d="M18.7055 2.18344C18.9191 2.00919 19.2338 2.04053 19.4086 2.25375L22.7748 6.36703C22.963 6.59738 23.0331 6.89118 22.9858 7.16879C22.9575 7.33506 22.8866 7.49572 22.7738 7.63364L19.4076 11.7459C19.2327 11.9593 18.9181 11.9909 18.7045 11.8163L18.3178 11.4998L17.9311 11.1844C17.7174 11.0096 17.686 10.6941 17.8608 10.4803L19.8901 7.99985H8.49943C8.22357 7.99952 7.99944 7.77578 7.99943 7.49985V6.49985C7.99964 6.22409 8.2237 6.00018 8.49943 5.99985H19.8901L17.8608 3.52035C17.6863 3.3068 17.7179 2.99209 17.9311 2.81723L18.7055 2.18344Z" fill="oklch(0.3523 0 0 / 1)" class="wd-icon-fill"></path>
</g>
</svg>