<svg width="24" height="24" viewBox="0 0 24 24" xmlns="http://www.w3.org/2000/svg" class="wd-icon wd-icon-playbook" role="presentation">
<path d="M18.4736 3.09495C18.9518 2.81887 19.5636 2.98311 19.8398 3.46116L22.668 8.36058C22.944 8.83872 22.7807 9.44957 22.3027 9.72581C21.8246 10.0018 21.2127 9.83861 20.9365 9.36058L19.3281 6.57445C18.4262 9.59807 16.6497 12.3014 14.2002 14.3284C11.3312 16.7021 7.72369 18.0012 4 18.0012C3.44772 18.0012 3 17.5535 3 17.0012C3.00015 16.449 3.44781 16.0012 4 16.0012C7.25823 16.0012 10.4145 14.8644 12.9248 12.7873C15.0634 11.0178 16.6154 8.65914 17.4062 6.02074L14.5752 7.6555C14.0969 7.93164 13.4851 7.76758 13.209 7.28929C12.9332 6.81108 13.0971 6.20012 13.5752 5.92406L18.4736 3.09495Z" fill="oklch(0.3523 0 0 / 1)" class="wd-icon-fill"></path>
<g>
<path d="M20.5449 16.0391C20.9354 15.6485 21.5694 15.6485 21.96 16.0391C22.3499 16.4296 22.3501 17.0628 21.96 17.4531L20.4189 18.9932L21.9678 20.541C22.3579 20.9315 22.358 21.5656 21.9678 21.9561C21.5774 22.3464 20.9433 22.3462 20.5527 21.9561L19.0049 20.4072L17.457 21.9561C17.0667 22.346 16.4334 22.3459 16.043 21.9561C15.6525 21.5656 15.6526 20.9316 16.043 20.541L17.5898 18.9932L16.0508 17.4531C15.6603 17.0626 15.6603 16.4296 16.0508 16.0391C16.4413 15.6487 17.0744 15.6486 17.4648 16.0391L19.0049 17.5781L20.5449 16.0391Z" fill="oklch(0.3523 0 0 / 1)" class="wd-icon-accent"></path>
<path d="M6.5 4.00098C8.433 4.00098 10 5.56798 10 7.50098C10 9.43397 8.433 11.001 6.5 11.001C4.567 11.001 3 9.43397 3 7.50098C3 5.56798 4.567 4.00098 6.5 4.00098ZM6.5 6.00098C5.67157 6.00098 5 6.67255 5 7.50098C5 8.3294 5.67157 9.00098 6.5 9.00098C7.32843 9.00098 8 8.3294 8 7.50098C8 6.67255 7.32843 6.00098 6.5 6.00098Z" fill="oklch(0.3523 0 0 / 1)" class="wd-icon-accent"></path>
</g>
</svg>