<svg width="24" height="24" viewBox="0 0 24 24" xmlns="http://www.w3.org/2000/svg" class="wd-icon wd-icon-restore" role="presentation">
<path d="M19.0352 17.5381C19.0151 17.7985 18.7983 17.9999 18.5371 18H16.1787C15.8764 15.3047 14.5528 12.145 11.2207 10.7764C10.9587 10.6688 10.6906 10.571 10.4209 10.4795L10 5H20L19.0352 17.5381Z" fill="transparent" class="wd-icon-background"></path>
<g>
<path d="M5.33938 9.34082C6.23175 8.25115 7.99925 8.88125 7.99954 10.291V12.1738C8.82071 12.3178 9.61304 12.5489 10.3648 12.8574C12.8459 13.8763 13.8694 16.4372 13.9878 18.7832L13.9995 19.249V20.5C13.9995 21.3284 13.328 22 12.4995 22H12.2896C11.5583 21.9998 10.9844 21.4856 10.8179 20.8516C10.5357 19.7778 9.95086 18.9783 9.08938 18.6172C8.73881 18.4703 8.37447 18.3478 7.99954 18.252V19.709C7.99954 21.1165 6.23349 21.751 5.33938 20.6602L5.33841 20.6592L1.48489 15.9492L1.40579 15.8428C1.03616 15.2988 1.06167 14.5687 1.48489 14.0508L1.48587 14.0498L5.33938 9.34082ZM3.29348 14.999L5.99954 18.3076V15.9404L7.10891 16.0625C8.07248 16.1688 8.99826 16.4111 9.86282 16.7734C10.7845 17.1598 11.4737 17.7948 11.9663 18.5449C11.7988 16.7628 10.9888 15.2752 9.60501 14.707C8.76024 14.3603 7.85336 14.1314 6.90579 14.042L5.99954 13.957V11.6914L3.29348 14.999Z" fill="oklch(0.3523 0 0 / 1)" class="wd-icon-fill"></path>
<path d="M14.9995 1C16.3088 1 17.514 1.45897 18.4585 2.22363C18.8239 2.51946 18.9995 2.95252 18.9995 3.36914V4H21.4995C21.7757 4 21.9995 4.22386 21.9995 4.5V5.5C21.9995 5.77614 21.7757 6 21.4995 6H20.9253L20.0318 17.6152C19.9715 18.3966 19.3203 18.9999 18.5366 19H16.4995C16.2236 18.9998 15.9995 18.776 15.9995 18.5V17.5C15.9995 17.224 16.2236 17.0002 16.4995 17H18.0728L18.9195 6H11.0806L11.4185 10.3965C11.4395 10.6716 11.2337 10.9113 10.9585 10.9326L9.96145 11.0098C9.68606 11.0311 9.44555 10.8252 9.42434 10.5498L9.07376 6H8.49954C8.22361 5.99975 7.99954 5.77599 7.99954 5.5V4.5C7.99954 4.22401 8.22361 4.00025 8.49954 4H10.9995V3.36914L11.0074 3.21289C11.0459 2.84682 11.2209 2.48258 11.5406 2.22363C12.485 1.45892 13.6903 1.00011 14.9995 1ZM14.9995 3C14.2549 3.0001 13.5664 3.2322 12.9995 3.62793V4H16.9995V3.62793C16.4326 3.23225 15.7442 3 14.9995 3Z" fill="oklch(0.3523 0 0 / 1)" class="wd-icon-fill"></path>
</g>
</svg>