<svg width="24" height="24" viewBox="0 0 24 24" xmlns="http://www.w3.org/2000/svg" class="wd-icon wd-icon-mobile-active" role="presentation">
<g>
<path d="M13.5 1C13.7761 1 14 1.22386 14 1.5V2.5C14 2.77614 13.7761 3 13.5 3H9C7.89543 3 7 3.89543 7 5V19C7 20.1046 7.89543 21 9 21H15C16.1046 21 17 20.1046 17 19V7.5C17 7.22386 17.2239 7 17.5 7H18.5C18.7761 7.00002 19 7.22387 19 7.5V19C19 21.2091 17.2091 23 15 23H9C6.79086 23 5 21.2091 5 19V5C5 2.79086 6.79086 1 9 1H13.5Z" fill="oklch(0.3523 0 0 / 1)" class="wd-icon-fill"></path>
<path d="M13.5 4C13.7761 4 14 4.22386 14 4.5V5.5C14 5.77614 13.7761 6 13.5 6H10.5C10.2239 6 10 5.77614 10 5.5V4.5C10 4.22386 10.2239 4 10.5 4H13.5Z" fill="oklch(0.3523 0 0 / 1)" class="wd-icon-fill"></path>
<path d="M18 1C19.1046 1 20 1.89543 20 3C20 4.10457 19.1046 5 18 5C16.8954 5 16 4.10457 16 3C16 1.89543 16.8954 1 18 1Z" fill="oklch(0.3523 0 0 / 1)" class="wd-icon-fill"></path>
</g>
</svg>