<svg width="24" height="24" viewBox="0 0 24 24" xmlns="http://www.w3.org/2000/svg" class="wd-icon wd-icon-box-text-user" role="presentation">
<path d="M17.7998 5C18.3764 5 18.7489 5.00126 19.0322 5.02441C19.3038 5.04661 19.4047 5.08419 19.4541 5.10938C19.6421 5.20521 19.7948 5.35793 19.8906 5.5459C19.9158 5.59534 19.9534 5.69619 19.9756 5.96777C19.9987 6.25111 20 6.62364 20 7.2002V11C20 11.5523 20.4477 12 21 12V16.7998C21 17.9199 21.0002 18.4804 20.7822 18.9082C20.6676 19.1331 20.5111 19.3318 20.3242 19.4971C19.669 19.157 18.8668 19 18 19C16.7841 19 15.6964 19.3091 14.9629 20H12C12 19.4477 11.5523 19 11 19H6.2002C5.62364 19 5.25111 18.9987 4.96777 18.9756C4.69619 18.9534 4.59534 18.9158 4.5459 18.8906C4.35793 18.7948 4.20521 18.6421 4.10938 18.4541C4.08419 18.4047 4.04661 18.3038 4.02441 18.0322C4.00126 17.7489 4 17.3764 4 16.7998V7.2002C4 6.62364 4.00126 6.25111 4.02441 5.96777C4.04661 5.69619 4.08419 5.59534 4.10938 5.5459C4.20521 5.35793 4.35793 5.20521 4.5459 5.10938C4.59534 5.08419 4.69619 5.04661 4.96777 5.02441C5.25111 5.00126 5.62364 5 6.2002 5H17.7998ZM18 14C16.8955 14.0001 16 14.8955 16 16C16 17.1045 16.8955 17.9999 18 18C19.1045 17.9999 20 17.1045 20 16C20 14.8955 19.1045 14.0001 18 14ZM7.75 14.25C7.33579 14.25 7 14.5858 7 15C7 15.4142 7.33579 15.75 7.75 15.75H13.25C13.6642 15.75 14 15.4142 14 15C14 14.5858 13.6642 14.25 13.25 14.25H7.75ZM7.75 11.25C7.33579 11.25 7 11.5858 7 12C7 12.4142 7.33579 12.75 7.75 12.75H16.25C16.6642 12.75 17 12.4142 17 12C17 11.5858 16.6642 11.25 16.25 11.25H7.75ZM7.75 8.25C7.33579 8.25 7 8.58579 7 9C7 9.41421 7.33579 9.75 7.75 9.75H16.25C16.6642 9.75 17 9.41421 17 9C17 8.58579 16.6642 8.25 16.25 8.25H7.75Z" fill="transparent" class="wd-icon-background"></path>
<path d="M17.7998 3C18.3434 3 18.8116 2.99893 19.1953 3.03028C19.5906 3.06259 19.984 3.1344 20.3623 3.32715C20.9265 3.61473 21.3853 4.07348 21.6729 4.6377C21.8656 5.016 21.9374 5.40943 21.9697 5.80469C22.0011 6.18836 22 6.65665 22 7.2002V11C22 11.5523 21.5523 12 21 12C20.4477 12 20 11.5523 20 11V7.2002C20 6.62365 19.9987 6.25112 19.9756 5.96778C19.9534 5.69619 19.9158 5.59534 19.8906 5.5459C19.7948 5.35793 19.6421 5.20522 19.4541 5.10938C19.4047 5.08419 19.3038 5.04662 19.0322 5.02442C18.7489 5.00127 18.3764 5 17.7998 5H6.2002C5.62365 5 5.25112 5.00127 4.96778 5.02442C4.69619 5.04662 4.59534 5.08419 4.5459 5.10938C4.35793 5.20522 4.20522 5.35793 4.10938 5.5459C4.08419 5.59534 4.04662 5.69619 4.02442 5.96778C4.00127 6.25112 4 6.62365 4 7.2002V16.7998C4 17.3764 4.00127 17.7489 4.02442 18.0322C4.04662 18.3038 4.08419 18.4047 4.10938 18.4541C4.20522 18.6421 4.35793 18.7948 4.5459 18.8906C4.59534 18.9158 4.69619 18.9534 4.96778 18.9756C5.25112 18.9987 5.62365 19 6.2002 19H11C11.5523 19 12 19.4477 12 20C12 20.5523 11.5523 21 11 21H6.2002C5.65665 21 5.18836 21.0011 4.80469 20.9697C4.40943 20.9374 4.016 20.8656 3.6377 20.6729C3.07348 20.3853 2.61473 19.9265 2.32715 19.3623C2.1344 18.984 2.06259 18.5906 2.03028 18.1953C1.99893 17.8116 2 17.3434 2 16.7998V7.2002C2 6.65665 1.99893 6.18836 2.03028 5.80469C2.06259 5.40943 2.1344 5.016 2.32715 4.6377C2.61473 4.07348 3.07348 3.61473 3.6377 3.32715C4.016 3.1344 4.40943 3.06259 4.80469 3.03028C5.18836 2.99893 5.65665 3 6.2002 3H17.7998Z" fill="oklch(0.3523 0 0 / 1)" class="wd-icon-fill"></path>
<g>
<path d="M17.9995 19C19.5518 19 20.898 19.501 21.561 20.6611C21.8225 21.1186 21.5029 21.6496 20.9849 21.7461C20.306 21.8723 19.2981 22 17.9995 22C16.7011 22 15.6939 21.8723 15.0151 21.7461C14.4971 21.6496 14.1776 21.1187 14.439 20.6611C15.102 19.5012 16.4475 19.0001 17.9995 19Z" fill="oklch(0.3523 0 0 / 1)" class="wd-icon-accent"></path>
<path d="M17.9995 14C19.1041 14 19.9995 14.8954 19.9995 16C19.9995 17.1046 19.1041 18 17.9995 18C16.8951 17.9998 15.9995 17.1044 15.9995 16C15.9995 14.8956 16.8951 14.0002 17.9995 14Z" fill="oklch(0.3523 0 0 / 1)" class="wd-icon-accent"></path>
<path d="M13.2495 14.25C13.6637 14.25 13.9995 14.5858 13.9995 15C13.9995 15.4142 13.6637 15.75 13.2495 15.75H7.74951C7.3353 15.75 6.99951 15.4142 6.99951 15C6.99951 14.5858 7.3353 14.25 7.74951 14.25H13.2495Z" fill="oklch(0.3523 0 0 / 1)" class="wd-icon-accent"></path>
<path d="M16.2495 11.25C16.6637 11.25 16.9995 11.5858 16.9995 12C16.9995 12.4142 16.6637 12.75 16.2495 12.75H7.74951C7.3353 12.75 6.99951 12.4142 6.99951 12C6.99951 11.5858 7.3353 11.25 7.74951 11.25H16.2495Z" fill="oklch(0.3523 0 0 / 1)" class="wd-icon-accent"></path>
<path d="M16.2495 8.25C16.6637 8.25 16.9995 8.58579 16.9995 9C16.9995 9.41421 16.6637 9.75 16.2495 9.75H7.74951C7.3353 9.75 6.99951 9.41421 6.99951 9C6.99951 8.58579 7.3353 8.25 7.74951 8.25H16.2495Z" fill="oklch(0.3523 0 0 / 1)" class="wd-icon-accent"></path>
</g>
</svg>