<svg width="24" height="24" viewBox="0 0 24 24" xmlns="http://www.w3.org/2000/svg" class="wd-icon wd-icon-clock-pause" role="presentation">
<g>
<path d="M17.9995 22.5C17.9995 22.7761 17.7757 23 17.4995 23H16.4995C16.2234 23 15.9995 22.7761 15.9995 22.5V16.5C15.9995 16.2239 16.2234 16 16.4995 16H17.4995C17.7757 16 17.9995 16.2239 17.9995 16.5V22.5Z" fill="oklch(0.3523 0 0 / 1)" class="wd-icon-accent"></path>
<path d="M21.9995 22.5C21.9995 22.7761 21.7757 23 21.4995 23H20.4995C20.2234 23 19.9995 22.7761 19.9995 22.5V16.5C19.9995 16.2239 20.2234 16 20.4995 16H21.4995C21.7757 16 21.9995 16.2239 21.9995 16.5V22.5Z" fill="oklch(0.3523 0 0 / 1)" class="wd-icon-accent"></path>
</g>
<g>
<path d="M9.85476 1.21121C11.9882 0.787007 14.2006 1.00485 16.2102 1.83718C18.2198 2.66972 19.9382 4.08035 21.1468 5.88894C22.2624 7.55885 22.8985 9.50027 22.9895 11.5003C23.0021 11.7761 22.7764 12.0003 22.5003 12.0003H21.5003C21.2244 12.0001 21.0021 11.7767 20.9866 11.5012C20.8974 9.89691 20.3796 8.34134 19.4837 7.00027C18.4949 5.52061 17.0887 4.36699 15.4446 3.68582C13.8002 3.00479 11.99 2.82594 10.2444 3.17312C8.49869 3.52042 6.89462 4.37741 5.63601 5.63601C4.37741 6.89462 3.52042 8.49868 3.17312 10.2444C2.82594 11.99 3.00479 13.8002 3.68582 15.4446C4.36699 17.0887 5.52061 18.4949 7.00027 19.4837C8.34134 20.3796 9.89691 20.8974 11.5012 20.9866C11.7767 21.0021 12.0001 21.2244 12.0003 21.5003V22.5003C12.0003 22.7764 11.7761 23.0021 11.5003 22.9895C9.50028 22.8985 7.55885 22.2624 5.88894 21.1468C4.08035 19.9382 2.66973 18.2198 1.83719 16.2102C1.00485 14.2006 0.787005 11.9882 1.21121 9.85476C1.63568 7.72106 2.68363 5.76027 4.22195 4.22195C5.76027 2.68363 7.72107 1.63567 9.85476 1.21121Z" fill="oklch(0.3523 0 0 / 1)" class="wd-icon-fill"></path>
<path d="M12.5003 5.00027C12.7764 5.00028 13.0003 5.22414 13.0003 5.50027V11.0003H16.5003C16.7764 11.0003 17.0003 11.2241 17.0003 11.5003V12.5003C17.0003 12.7764 16.7764 13.0003 16.5003 13.0003H12.0003C11.448 13.0003 11.0003 12.5525 11.0003 12.0003V5.50027C11.0003 5.22413 11.2241 5.00027 11.5003 5.00027H12.5003Z" fill="oklch(0.3523 0 0 / 1)" class="wd-icon-fill"></path>
</g>
</svg>