<svg width="24" height="24" viewBox="0 0 24 24" xmlns="http://www.w3.org/2000/svg" class="wd-icon wd-icon-cloud-lock" role="presentation">
<g>
<path d="M14.5 12C16.433 12 18 13.567 18 15.5V16L18.0986 16.0049C18.3276 16.0276 18.5429 16.1289 18.707 16.293C18.8944 16.4804 18.9999 16.735 19 17V22C18.9998 22.5175 18.6066 22.9438 18.1025 22.9951L18 23H11C10.7349 23 10.4805 22.8945 10.293 22.707C10.1055 22.5196 10.0001 22.2651 10 22V17C10.0002 16.4825 10.3935 16.0563 10.8975 16.0049L11 16V15.5C11 13.567 12.567 12 14.5 12ZM12 21H17V18H12V21ZM14.5 14C13.6716 14 13 14.6716 13 15.5V16H16V15.5C16 14.6716 15.3284 14 14.5 14Z" fill="oklch(0.3523 0 0 / 1)" class="wd-icon-fill"></path>
<path d="M9.5 4C11.2349 4 12.7794 4.8048 13.7861 6.05664C14.019 6.01944 14.2575 6 14.5 6C16.4812 6 18.1604 7.27999 18.7617 9.05762C20.4547 9.31639 21.8669 10.4249 22.5527 11.9336C22.5544 11.937 22.557 11.9399 22.5586 11.9434C22.5635 11.9542 22.5675 11.9657 22.5723 11.9766C22.5892 12.0147 22.6051 12.0532 22.6211 12.0918C22.6364 12.1287 22.6516 12.1657 22.666 12.2031C22.7236 12.3526 22.7751 12.5051 22.8184 12.6611C22.8254 12.6867 22.8312 12.7126 22.8379 12.7383C22.8523 12.7936 22.8664 12.8492 22.8789 12.9053C22.8854 12.9341 22.8905 12.9632 22.8965 12.9922C22.9062 13.0395 22.9155 13.087 22.9238 13.1348C22.9302 13.1715 22.9368 13.2082 22.9424 13.2451C22.9497 13.2937 22.955 13.3426 22.9609 13.3916C22.9647 13.4222 22.9695 13.4527 22.9727 13.4834C22.9901 13.6533 23 13.8265 23 14.001C22.9998 15.0884 22.6516 16.0972 22.0615 16.918C21.9002 17.1419 21.5819 17.1602 21.375 16.9775L21 16.6465L20.625 16.3164C20.4178 16.1337 20.4028 15.8185 20.5488 15.584C20.8349 15.1245 20.9999 14.5825 21 14.001C21 13.7586 20.968 13.5239 20.9141 13.2988C20.598 11.9806 19.4151 11 18 11C17.9754 11 17.9795 10.9999 17.9727 11L17.0977 11.0078L16.9736 10.1416C16.8004 8.93079 15.7583 8 14.5 8C14.2136 8 13.9403 8.04751 13.6865 8.13477L12.9199 8.39844L12.5039 7.7041C11.8905 6.68122 10.7743 6 9.5 6C7.567 6 6 7.567 6 9.5C6 9.65929 6.01224 9.81902 6.03418 9.97949L6.15527 10.8721L5.28125 11.0859C3.97096 11.4077 3 12.5919 3 14C3 15.6569 4.34315 17 6 17H7.5C7.77614 17 8 17.2239 8 17.5V18.5C8 18.7761 7.77614 19 7.5 19H6C3.23858 19 1 16.7614 1 14C1 11.948 2.23522 10.186 4.00195 9.41504C4.04737 6.41666 6.49081 4 9.5 4Z" fill="oklch(0.3523 0 0 / 1)" class="wd-icon-fill"></path>
</g>
</svg>