<svg width="24" height="24" viewBox="0 0 24 24" xmlns="http://www.w3.org/2000/svg" class="wd-icon wd-icon-table-refresh" role="presentation">
<path d="M20.5 3C21.3284 3 22 3.67157 22 4.5V11.5C22 11.7761 21.7761 12 21.5 12H20.5C20.2239 12 20 11.7761 20 11.5V9H16V11.5C16 12.3284 15.3284 13 14.5 13H10V15H12C12.2761 15 12.5 15.2239 12.5 15.5V16.5C12.5 16.7761 12.2761 17 12 17H10V19H12C12.2761 19 12.5 19.2239 12.5 19.5V20.5C12.5 20.7761 12.2761 21 12 21H3.5C2.67157 21 2 20.3284 2 19.5V4.5C2 3.67157 2.67157 3 3.5 3H20.5ZM4 19H8V17H4V19ZM4 15H8V13H4V15ZM4 11H8V9H4V11ZM10 11H14V9H10V11ZM4 7H8V5H4V7ZM10 7H14V5H10V7ZM16 7H20V5H16V7Z" fill="oklch(0.3523 0 0 / 1)" class="wd-icon-fill"></path>
<path d="M18.2245 12.8519C18.5568 12.6304 19.0018 12.8686 19.0019 13.2679V14.0276C19.5672 14.0911 20.1177 14.261 20.622 14.5306C21.2744 14.8793 21.8311 15.3843 22.2421 15.9993C22.653 16.6143 22.9068 17.3218 22.9794 18.0579C23.0519 18.794 22.941 19.5376 22.6581 20.221C22.3751 20.9044 21.9271 21.5085 21.3554 21.9778C20.7836 22.447 20.1042 22.768 19.3788 22.9124C19.089 22.9701 18.7944 22.9981 18.5009 22.9984C18.4788 22.9983 18.4556 22.9977 18.4335 22.9974C18.3666 22.9964 18.2992 22.9954 18.2324 22.9915C18.1973 22.9894 18.1619 22.9856 18.1269 22.9827C18.0618 22.9773 17.9964 22.9714 17.9316 22.9632C17.9004 22.9592 17.8689 22.9542 17.8378 22.9495C17.772 22.9398 17.706 22.9281 17.6406 22.9153C17.6094 22.9093 17.5779 22.9025 17.5468 22.8958C17.4845 22.8823 17.4221 22.8671 17.3603 22.8509C17.3246 22.8415 17.2883 22.8328 17.2529 22.8226C17.2335 22.817 17.2136 22.8118 17.1943 22.806C17.1583 22.795 17.1225 22.7817 17.0869 22.7698C17.0508 22.7579 17.0142 22.7465 16.9785 22.7337C16.9203 22.7128 16.8627 22.6896 16.8056 22.6663C16.771 22.6522 16.7354 22.6393 16.7011 22.6243C16.5228 22.5464 16.349 22.4579 16.1826 22.3577L16.1806 22.3558L16.1777 22.3538C16.0506 22.2772 15.9288 22.1931 15.8105 22.1048C15.7769 22.0797 15.7428 22.0547 15.7099 22.0286C15.6748 22.0008 15.6406 21.9715 15.6064 21.9427C15.5688 21.9111 15.5306 21.8798 15.4941 21.847C15.4481 21.8056 15.4036 21.7623 15.3593 21.7191C15.3464 21.7065 15.3321 21.6947 15.3193 21.6819C15.0038 21.3661 14.7352 21.0029 14.5244 20.6048C14.1418 19.8821 13.9629 19.0687 14.0078 18.2523C14.0436 17.6028 14.2195 16.9706 14.5214 16.3987C14.6503 16.1547 14.964 16.0963 15.1923 16.2513L15.6064 16.5316L16.0195 16.8128C16.2476 16.968 16.3017 17.278 16.1953 17.5325C16.0853 17.7947 16.0207 18.0755 16.0048 18.3616C15.9799 18.8152 16.0794 19.2678 16.2919 19.6692C16.5045 20.0707 16.8227 20.4066 17.2119 20.6409C17.5905 20.8688 18.0224 20.9918 18.4638 20.9984C18.6389 21.0009 18.8152 20.9859 18.9882 20.9515C19.3911 20.8712 19.7693 20.6926 20.0869 20.4319C20.4042 20.1713 20.6533 19.8357 20.8105 19.4564C20.9675 19.0768 21.0295 18.663 20.9892 18.2542C20.9488 17.8455 20.8081 17.4522 20.58 17.1107C20.3517 16.7691 20.042 16.488 19.6796 16.2942C19.4662 16.1802 19.2374 16.0982 19.0019 16.0501V16.7317C19.0019 17.1311 18.5568 17.3692 18.2245 17.1478L15.6259 15.4163C15.3292 15.2184 15.3293 14.7823 15.6259 14.5843L18.2245 12.8519Z" fill="oklch(0.3523 0 0 / 1)" class="wd-icon-accent"></path>
</svg>