<svg width="24" height="24" viewBox="0 0 24 24" xmlns="http://www.w3.org/2000/svg" class="wd-icon wd-icon-collapse" role="presentation">
<g>
<path d="M5 4.5C5 4.22386 4.77614 4 4.5 4L3.5 4C3.22386 4 3 4.22386 3 4.5V19.5C3 19.7761 3.22386 20 3.5 20H4.5C4.77614 20 5 19.7761 5 19.5V4.5Z" fill="oklch(0.3523 0 0 / 1)" class="wd-icon-fill"></path>
<path d="M22 11.5C21.9998 11.2241 21.7759 11.0002 21.5 11L10.1094 11L12.1387 8.52051C12.3133 8.30689 12.2818 7.99226 12.0684 7.81738L11.2939 7.18359C11.0803 7.0093 10.7656 7.04055 10.5908 7.25391L7.22461 11.3672C7.03668 11.5975 6.96631 11.8915 7.01367 12.1689C7.04192 12.3351 7.11293 12.4959 7.22559 12.6338L10.5918 16.7461C10.7666 16.9594 11.0813 16.9908 11.2949 16.8164L11.6816 16.5L12.0684 16.1846C12.2822 16.0098 12.3135 15.6943 12.1387 15.4805L10.1094 13L21.5 13C21.7759 12.9998 21.9998 12.7759 22 12.5L22 11.5Z" fill="oklch(0.3523 0 0 / 1)" class="wd-icon-fill"></path>
</g>
</svg>