<svg width="24" height="24" viewBox="0 0 24 24" xmlns="http://www.w3.org/2000/svg" class="wd-icon wd-icon-exclamation-triangle" role="presentation">
<path d="M2.86598 19.0001H21.1339C21.5188 19.0001 21.7594 18.5834 21.5669 18.2501L12.433 2.42969C12.2405 2.09635 11.7594 2.09635 11.5669 2.42969L2.43297 18.2501C2.24052 18.5834 2.48108 19.0001 2.86598 19.0001Z" fill="transparent" class="wd-icon-background"></path>
<path d="M10.8193 1.75421C11.4133 0.988832 12.5866 0.988832 13.1806 1.75421L13.2988 1.92999L22.4326 17.7503C23.0096 18.7502 22.2882 20.0002 21.1338 20.0003H2.86617C1.71164 20.0002 0.990285 18.7502 1.56735 17.7503L10.7011 1.92999L10.8193 1.75421ZM3.73141 18.0003H20.2685L12 3.67901L3.73141 18.0003Z" fill="oklch(0.3523 0 0 / 1)" class="wd-icon-fill"></path>
<g>
<path d="M12 14.75C12.6904 14.75 13.25 15.3096 13.25 16C13.25 16.6904 12.6904 17.25 12 17.25C11.3096 17.25 10.75 16.6904 10.75 16C10.75 15.3096 11.3096 14.75 12 14.75Z" fill="oklch(0.3523 0 0 / 1)" class="wd-icon-accent"></path>
<path d="M12.5 8C12.7761 8 13 8.22386 13 8.5V9.83984L12.8301 13.5234C12.8176 13.7902 12.5971 14 12.3301 14H11.6699C11.4029 14 11.1824 13.7902 11.1699 13.5234L11 9.83984V8.5C11 8.22386 11.2239 8 11.5 8H12.5Z" fill="oklch(0.3523 0 0 / 1)" class="wd-icon-accent"></path>
</g>
</svg>