<svg width="24" height="24" viewBox="0 0 24 24" xmlns="http://www.w3.org/2000/svg" class="wd-icon wd-icon-calendar-day-30" role="presentation">
<g>
<path d="M10.334 10.5127C10.7778 10.5127 11.1383 10.8727 11.1387 11.3164C11.1387 11.5213 11.0604 11.719 10.9199 11.8682L9.80176 13.0527C9.99711 13.091 10.1831 13.1569 10.3574 13.251L10.4805 13.3213C10.7585 13.4945 10.9824 13.7292 11.1494 14.0205L11.2178 14.1475C11.3653 14.4493 11.4355 14.7908 11.4355 15.1641C11.4355 15.5628 11.3453 15.9453 11.167 16.3086L11.166 16.3105C10.9824 16.6777 10.707 16.9753 10.3467 17.2022C9.9753 17.4359 9.53335 17.5469 9.03418 17.5469C8.59028 17.5468 8.18652 17.4659 7.83008 17.2979L7.82813 17.2969C7.47879 17.1288 7.19282 16.8875 6.97559 16.5752L6.97168 16.5703C6.86338 16.406 6.77883 16.2272 6.71778 16.0361C6.64584 15.8103 6.7083 15.5912 6.8418 15.4365C6.97239 15.2854 7.17072 15.1927 7.38379 15.1924C7.77752 15.1924 8.04273 15.4982 8.16504 15.7686C8.21319 15.8751 8.28132 15.9697 8.36914 16.0527C8.53019 16.1993 8.74699 16.281 9.04297 16.2813C9.23415 16.2813 9.39431 16.2354 9.53028 16.1494L9.53418 16.1475C9.67886 16.0587 9.78702 15.9384 9.86231 15.7832L9.86426 15.7813C9.94749 15.6147 9.99023 15.428 9.99024 15.2178C9.99018 14.883 9.89783 14.6433 9.73535 14.4717L9.73242 14.4688C9.57844 14.302 9.36201 14.2081 9.05274 14.208C8.94106 14.2081 8.83895 14.2249 8.74707 14.2578C8.49162 14.3492 8.10113 14.362 7.86328 14.0703C7.65893 13.8188 7.6721 13.4536 7.89453 13.2178L9.2461 11.7871H7.51367C7.16219 11.7867 6.87598 11.501 6.87598 11.1494C6.87631 10.7981 7.16239 10.5131 7.51367 10.5127H10.334Z" fill="oklch(0.3523 0 0 / 1)" class="wd-icon-fill"></path>
<path d="M14.9941 10.3799C15.8387 10.3799 16.4904 10.7339 16.9102 11.4375C17.3184 12.1059 17.5127 12.9525 17.5127 13.96C17.5127 14.6225 17.4292 15.2226 17.2578 15.7559L17.2568 15.7549C17.089 16.2897 16.8172 16.7257 16.4336 17.0488C16.0452 17.381 15.5585 17.54 14.9941 17.54C14.1459 17.5398 13.4908 17.1906 13.0703 16.4922L13.0684 16.4893C12.6736 15.8158 12.4854 14.967 12.4854 13.96C12.4854 13.3043 12.5656 12.7112 12.7305 12.1846L12.7314 12.1816C12.9049 11.6485 13.1766 11.2112 13.5518 10.8828C13.9401 10.543 14.428 10.3801 14.9941 10.3799ZM14.9941 11.6445C14.75 11.6447 14.5688 11.7285 14.4277 11.8916C14.2713 12.0726 14.1464 12.332 14.0684 12.6865C13.9947 13.0437 13.957 13.4682 13.957 13.96C13.957 14.7198 14.0538 15.3057 14.2324 15.7305C14.3204 15.9297 14.429 16.063 14.5479 16.1465C14.6652 16.2287 14.8108 16.2743 14.9941 16.2744C15.2463 16.2744 15.4301 16.1903 15.5703 16.0283C15.7279 15.8461 15.8519 15.5873 15.9297 15.2373C16.0086 14.8818 16.0498 14.4568 16.0498 13.96C16.0498 13.198 15.949 12.6158 15.7647 12.1982C15.6765 11.9962 15.5675 11.86 15.4473 11.7754C15.3285 11.6921 15.1806 11.6445 14.9941 11.6445Z" fill="oklch(0.3523 0 0 / 1)" class="wd-icon-fill"></path>
<path d="M16.2012 2C17.0247 2 17.7026 1.99898 18.2529 2.04395C18.815 2.08988 19.3321 2.18828 19.8174 2.43555C20.5699 2.81902 21.182 3.43109 21.5654 4.1836C21.8127 4.6689 21.9111 5.18599 21.957 5.74805C22.002 6.29843 22.001 6.97632 22.001 7.79981V16.2002C22.001 17.0237 22.002 17.7016 21.957 18.252C21.9111 18.814 21.8127 19.3311 21.5654 19.8164C21.182 20.5689 20.5699 21.181 19.8174 21.5645C19.3321 21.8117 18.815 21.9101 18.2529 21.9561C17.7026 22.001 17.0247 22 16.2012 22H7.80078C6.9773 22 6.2994 22.001 5.74903 21.9561C5.18697 21.9101 4.66988 21.8117 4.18457 21.5645C3.43207 21.181 2.81999 20.5689 2.43653 19.8164C2.18925 19.3311 2.09085 18.814 2.04492 18.252C1.99996 17.7016 2.00098 17.0237 2.00098 16.2002V7.79981C2.00098 6.97632 1.99996 6.29843 2.04492 5.74805C2.09085 5.18599 2.18925 4.6689 2.43653 4.1836C2.81999 3.43109 3.43207 2.81902 4.18457 2.43555C4.66988 2.18827 5.18697 2.08988 5.74903 2.04395C6.2994 1.99898 6.9773 2 7.80078 2H16.2012ZM4.00098 16.2002C4.00098 17.0566 4.00133 17.6388 4.03809 18.0889C4.07391 18.5273 4.13906 18.7518 4.21875 18.9082C4.41049 19.2845 4.71652 19.5905 5.09278 19.7822C5.24917 19.8619 5.4737 19.9271 5.91211 19.9629C6.36215 19.9997 6.9444 20 7.80078 20H16.2012C17.0576 20 17.6398 19.9997 18.0898 19.9629C18.5283 19.9271 18.7528 19.8619 18.9092 19.7822C19.2854 19.5905 19.5915 19.2845 19.7832 18.9082C19.8629 18.7518 19.928 18.5273 19.9639 18.0889C20.0006 17.6388 20.001 17.0566 20.001 16.2002V8H4.00098V16.2002Z" fill="oklch(0.3523 0 0 / 1)" class="wd-icon-fill"></path>
</g>
</svg>