<svg width="24" height="24" viewBox="0 0 24 24" xmlns="http://www.w3.org/2000/svg" class="wd-icon wd-icon-folder-plus" role="presentation">
<g>
<path d="M20.002 11C20.002 11.5523 20.4497 12 21.002 12V14.2002C21.002 15.7844 21.0017 16.6216 20.7275 17.25H19.75V15C19.75 14.5858 19.4142 14.25 19 14.25C18.5858 14.25 18.25 14.5858 18.25 15V17.25H16C15.5858 17.25 15.25 17.5858 15.25 18C15.25 18.4142 15.5858 18.75 16 18.75H18.25V18.9502C17.7376 18.9979 17.0863 19 16.2021 19H13.002C13.0019 18.4478 12.5542 18 12.002 18H7.80176C6.94537 18 6.36312 17.9997 5.91309 17.9629C5.47469 17.9271 5.25015 17.8619 5.09375 17.7822C4.71752 17.5905 4.41145 17.2844 4.21973 16.9082C4.14006 16.7518 4.07487 16.5272 4.03906 16.0889C4.00231 15.6388 4.00195 15.0565 4.00195 14.2002V11H20.002Z" fill="transparent" class="wd-icon-background"></path>
<path d="M7.60645 5C8.11844 5 8.26852 5.0026 8.40625 5.02441C8.58664 5.05304 8.76276 5.10633 8.92871 5.18262C9.0555 5.24091 9.18117 5.32209 9.60742 5.60645L10.2354 6.02539C10.6562 6.30614 10.9647 6.51624 11.3076 6.66602C11.5953 6.79166 11.897 6.88234 12.2061 6.9375C12.5745 7.00321 12.9481 7 13.4541 7H16.2021C17.0585 7 17.6408 7.00035 18.0908 7.03711C18.5292 7.07292 18.7538 7.1381 18.9102 7.21777C19.2864 7.40949 19.5924 7.71559 19.7842 8.0918C19.8639 8.24818 19.929 8.4728 19.9648 8.91113C19.979 9.08493 19.9868 9.27859 19.9922 9.5H4.00195V8.60449C4.00195 7.84193 4.00288 7.32309 4.03223 6.9209C4.06084 6.52914 4.11256 6.32623 4.17578 6.18457C4.37667 5.73501 4.73695 5.37469 5.18652 5.17383C5.32819 5.11061 5.53105 5.05888 5.92285 5.03027C6.32506 5.00093 6.84382 5 7.60645 5Z" fill="transparent" class="wd-icon-background"></path>
</g>
<path d="M7.60645 3.00002C8.05751 3.00002 8.39041 2.99759 8.71973 3.04982C9.08035 3.10705 9.4319 3.21278 9.76367 3.36525C10.0667 3.50456 10.3425 3.69204 10.7178 3.9424L11.3457 4.36135C11.8236 4.68016 11.9649 4.77036 12.1084 4.83303C12.2522 4.89584 12.4031 4.9412 12.5576 4.96877C12.7118 4.99626 12.8792 5.00002 13.4541 5.00002H16.2022C17.0256 5.00002 17.7035 4.999 18.2539 5.04396C18.8159 5.08989 19.3331 5.18831 19.8184 5.43556C20.5708 5.81902 21.1829 6.43115 21.5664 7.18361C21.8137 7.66888 21.9121 8.18605 21.958 8.74806C22.003 9.29842 22.002 9.97639 22.002 10.7998V11C22.002 11.5523 21.5542 12 21.002 12C20.4497 12 20.002 11.5523 20.002 11H4.00196V14.2002C4.00196 15.0565 4.00231 15.6389 4.03906 16.0889C4.07488 16.5272 4.14006 16.7518 4.21973 16.9082C4.41145 17.2845 4.71753 17.5905 5.09375 17.7822C5.25015 17.8619 5.47469 17.9271 5.91309 17.9629C6.36312 17.9997 6.94538 18 7.80176 18H12.002C12.5542 18 13.0019 18.4478 13.002 19C13.002 19.5523 12.5542 20 12.002 20H7.80176C6.97828 20 6.30038 20.001 5.75 19.9561C5.18795 19.9101 4.67085 19.8117 4.18555 19.5645C3.43307 19.181 2.82096 18.5689 2.4375 17.8164C2.19026 17.3311 2.09183 16.814 2.0459 16.252C2.00094 15.7016 2.00195 15.0236 2.00196 14.2002V8.60451C2.00195 7.87122 2.00123 7.26722 2.03711 6.77541C2.07373 6.27375 2.15203 5.8104 2.34961 5.36818C2.75138 4.46902 3.47094 3.74942 4.37012 3.34767C4.81236 3.15009 5.27566 3.07179 5.77735 3.03517C6.26918 2.99929 6.87311 3.00002 7.60645 3.00002ZM7.60645 5.00002C6.84383 5.00002 6.32507 5.00095 5.92285 5.03029C5.53105 5.0589 5.32819 5.11063 5.18653 5.17385C4.73695 5.37471 4.37667 5.73502 4.17578 6.18459C4.11257 6.32624 4.06084 6.52916 4.03223 6.92092C4.00289 7.32311 4.00196 7.84195 4.00196 8.60451V9.50002H19.9922C19.9868 9.27861 19.979 9.08495 19.9648 8.91115C19.929 8.47281 19.8639 8.2482 19.7842 8.09181C19.5924 7.71561 19.2864 7.40951 18.9102 7.21779C18.7538 7.13812 18.5292 7.07294 18.0908 7.03713C17.6408 7.00037 17.0585 7.00002 16.2022 7.00002H13.4541C12.9481 7.00002 12.5745 7.00323 12.2061 6.93752C11.897 6.88236 11.5953 6.79168 11.3076 6.66603C10.9647 6.51626 10.6562 6.30616 10.2354 6.02541L9.60742 5.60646C9.18117 5.32211 9.0555 5.24093 8.92871 5.18263C8.76277 5.10635 8.58664 5.05306 8.40625 5.02443C8.26852 5.00262 8.11845 5.00002 7.60645 5.00002Z" fill="oklch(0.3523 0 0 / 1)" class="wd-icon-fill"></path>
<path d="M19 14.25C19.4142 14.25 19.75 14.5858 19.75 15V17.25H22C22.4142 17.25 22.75 17.5858 22.75 18C22.75 18.4142 22.4142 18.75 22 18.75H19.75V21C19.75 21.4142 19.4142 21.75 19 21.75C18.5858 21.75 18.25 21.4142 18.25 21V18.75H16C15.5858 18.75 15.25 18.4142 15.25 18C15.25 17.5858 15.5858 17.25 16 17.25H18.25V15C18.25 14.5858 18.5858 14.25 19 14.25Z" fill="oklch(0.3523 0 0 / 1)" class="wd-icon-accent"></path>
</svg>