<svg width="24" height="24" viewBox="0 0 24 24" xmlns="http://www.w3.org/2000/svg" class="wd-icon wd-icon-area-chart" role="presentation">
<path d="M20.5 3C20.7761 3 21 3.22386 21 3.5V5.76562C21 5.91401 20.9343 6.05539 20.8203 6.15039L20.1836 6.67969C20.5092 6.41362 20.9998 6.64536 21 7.06738V13.6914C20.9999 13.8807 20.8929 14.054 20.7236 14.1387L15.2236 16.8887C15.0829 16.959 14.9171 16.959 14.7764 16.8887L9.22363 14.1123C9.08287 14.0419 8.91713 14.0419 8.77637 14.1123L3.72363 16.6387C3.39128 16.8048 3.00017 16.5629 3 16.1914V13.2344C3 13.0861 3.06587 12.9456 3.17969 12.8506L3.82031 12.3164C3.49466 12.5878 3.00003 12.3565 3 11.9326V3.5C3 3.22386 3.22386 3 3.5 3H20.5Z" fill="transparent" class="wd-icon-background"></path>
<path d="M20.5 2C21.3284 2 22 2.67157 22 3.5V20.5C22 21.3284 21.3284 22 20.5 22H3.5C2.67157 22 2 21.3284 2 20.5V3.5C2 2.67157 2.67157 2 3.5 2H20.5ZM4 17.6172V20H20V15.6172L15.6709 17.7822C15.2486 17.9934 14.7514 17.9934 14.3291 17.7822L9 15.1172L4 17.6172ZM15.8916 11.5586C15.4339 11.94 14.7937 12.0144 14.2607 11.748L9.13672 9.18652L4 13.4688V15.3818L8.3291 13.2178C8.69851 13.0331 9.12504 13.01 9.50879 13.1484L9.6709 13.2178L14.999 15.8818L20 13.3809V8.13477L15.8916 11.5586ZM4 10.8643L8.1084 7.44141L8.19629 7.37305C8.6159 7.07286 9.16146 7.00992 9.63867 7.20605L9.73926 7.25195L14.8623 9.8125L20 5.53027V4H4V10.8643Z" fill="oklch(0.3523 0 0 / 1)" class="wd-icon-fill"></path>
</svg>