<svg width="24" height="24" viewBox="0 0 24 24" xmlns="http://www.w3.org/2000/svg" class="wd-icon wd-icon-clipboard-list" role="presentation">
<path d="M12.0016 2C12.6379 2.00014 13.2031 2.29832 13.569 2.76172C13.6795 2.90171 13.8408 2.99996 14.0192 3H15.5006C15.7768 3 16.0006 3.22386 16.0006 3.5V4H18.5006C18.7768 4 19.0006 4.22386 19.0006 4.5V20.5C19.0006 20.7761 18.7767 21 18.5006 21H5.50061C5.22447 21 5.00061 20.7761 5.00061 20.5V4.5C5.00061 4.22389 5.22451 4.00005 5.50061 4H8.00061V3.5C8.00061 3.22386 8.22447 3 8.50061 3H9.98303C10.1614 2.99996 10.3227 2.9017 10.4332 2.76172C10.7992 2.29819 11.3651 2 12.0016 2Z" fill="transparent" class="wd-icon-background"></path>
<path d="M12.1797 1.00488C12.9966 1.05321 13.7236 1.43037 14.2334 2H15.5C16.1529 2.00005 16.707 2.41772 16.9131 3H18.5C19.3283 3.00013 20 3.67165 20 4.5V20.5C20 21.3283 19.3283 21.9998 18.5 22H5.5C4.67163 21.9999 4 21.3284 4 20.5V4.5C4 3.67164 4.67167 3.00011 5.5 3H7.08789C7.29393 2.4177 7.8481 2.00005 8.50098 2H9.76855C10.3156 1.38921 11.1119 1.00004 12.001 1L12.1797 1.00488ZM6 20H18V5H17V6.52734C17 7.35573 16.3284 8.02728 15.5 8.02734H8.50098C7.67261 8.02728 7.00098 7.35573 7.00098 6.52734V5H6V20ZM12.001 3C11.6846 3.00004 11.402 3.14722 11.2168 3.38184C10.9668 3.69823 10.5392 3.99992 9.98242 4H9.00098V6.02734H15V4H14.0186C13.4615 3.99992 13.0341 3.69754 12.7842 3.38086C12.599 3.14632 12.3169 3.00017 12.001 3Z" fill="oklch(0.3523 0 0 / 1)" class="wd-icon-fill"></path>
<g>
<path d="M9.5 16C9.77614 16 10 16.2239 10 16.5V17.5C10 17.7761 9.77614 18 9.5 18H8.5C8.22386 18 8 17.7761 8 17.5V16.5C8 16.2239 8.22386 16 8.5 16H9.5Z" fill="oklch(0.3523 0 0 / 1)" class="wd-icon-accent"></path>
<path d="M15.5 16C15.7761 16 16 16.2239 16 16.5V17.5C16 17.7761 15.7761 18 15.5 18H11.5C11.2239 18 11 17.7761 11 17.5V16.5C11 16.2239 11.2239 16 11.5 16H15.5Z" fill="oklch(0.3523 0 0 / 1)" class="wd-icon-accent"></path>
<path d="M9.5 13C9.77614 13 10 13.2239 10 13.5V14.5C10 14.7761 9.77614 15 9.5 15H8.5C8.22386 15 8 14.7761 8 14.5V13.5C8 13.2239 8.22386 13 8.5 13H9.5Z" fill="oklch(0.3523 0 0 / 1)" class="wd-icon-accent"></path>
<path d="M15.5 13C15.7761 13 16 13.2239 16 13.5V14.5C16 14.7761 15.7761 15 15.5 15H11.5C11.2239 15 11 14.7761 11 14.5V13.5C11 13.2239 11.2239 13 11.5 13H15.5Z" fill="oklch(0.3523 0 0 / 1)" class="wd-icon-accent"></path>
<path d="M9.5 10C9.77614 10 10 10.2239 10 10.5V11.5C10 11.7761 9.77614 12 9.5 12H8.5C8.22386 12 8 11.7761 8 11.5V10.5C8 10.2239 8.22386 10 8.5 10H9.5Z" fill="oklch(0.3523 0 0 / 1)" class="wd-icon-accent"></path>
<path d="M15.5 10C15.7761 10 16 10.2239 16 10.5V11.5C16 11.7761 15.7761 12 15.5 12H11.5C11.2239 12 11 11.7761 11 11.5V10.5C11 10.2239 11.2239 10 11.5 10H15.5Z" fill="oklch(0.3523 0 0 / 1)" class="wd-icon-accent"></path>
</g>
</svg>