<svg width="24" height="24" viewBox="0 0 24 24" xmlns="http://www.w3.org/2000/svg" class="wd-icon wd-icon-chevron-2x-down-small" role="presentation">
<g>
<path d="M16.4809 13.0422C16.6947 12.8675 17.0103 12.8987 17.185 13.1125L17.8179 13.8869C17.9923 14.1006 17.9599 14.4162 17.7466 14.591L12.6333 18.7746C12.2652 19.0754 11.7358 19.0753 11.3677 18.7746L8.23875 16.215C8.23597 16.2128 8.23273 16.2104 8.22997 16.2082L6.25438 14.591C6.04073 14.4161 6.00923 14.1006 6.18407 13.8869L6.81688 13.1135C6.99173 12.9 7.30635 12.8685 7.52 13.0432L8.50731 13.8518L8.50829 13.8508L12.0005 16.7082L16.4809 13.0422Z" fill="oklch(0.3523 0 0 / 1)" class="wd-icon-fill"></path>
<path d="M16.4809 7.04218C16.6947 6.86753 17.0103 6.89872 17.185 7.11249L17.8179 7.88691C17.9923 8.10056 17.9599 8.41623 17.7466 8.59101L12.6333 12.7746C12.2652 13.0754 11.7358 13.0753 11.3677 12.7746L8.23875 10.215C8.23597 10.2129 8.23273 10.2104 8.22997 10.2082L6.25438 8.59101C6.04073 8.41613 6.00923 8.1006 6.18407 7.88691L6.81688 7.11347C6.99172 6.90004 7.30635 6.8685 7.52 7.04316L8.50731 7.85175L8.50829 7.85078L12.0005 10.7082L16.4809 7.04218Z" fill="oklch(0.3523 0 0 / 1)" class="wd-icon-fill"></path>
</g>
</svg>