<svg width="24" height="24" viewBox="0 0 24 24" xmlns="http://www.w3.org/2000/svg" class="wd-icon wd-icon-cloud-settings" role="presentation">
<g>
<path d="M14.5674 10.998C14.8443 11.0035 14.9829 11.0065 15.1201 11.127C15.2208 11.2156 15.2994 11.4114 15.2881 11.5449C15.2725 11.7268 15.147 11.853 14.8965 12.1035L13.8496 13.1504C13.723 13.277 13.6597 13.3408 13.623 13.416C13.5908 13.4824 13.5731 13.5551 13.5723 13.6289C13.5714 13.7127 13.5995 13.7987 13.6562 13.9688L13.874 14.6201C13.9204 14.7589 13.9449 14.8281 13.9844 14.8857C14.0192 14.9365 14.0625 14.9808 14.1133 15.0156C14.171 15.0551 14.241 15.0796 14.3799 15.126L15.0303 15.3438C15.2003 15.4006 15.2864 15.4284 15.3701 15.4277C15.4442 15.427 15.5183 15.4103 15.585 15.3779C15.6602 15.3412 15.7239 15.2771 15.8506 15.1504L16.8945 14.1064C17.1451 13.8559 17.2708 13.7301 17.4531 13.7148C17.5869 13.7038 17.7827 13.7829 17.8711 13.8838C17.9915 14.0214 17.9942 14.1607 17.999 14.4375C17.9994 14.4573 17.999 14.4772 17.999 14.4971C17.999 16.4299 16.4318 17.9977 14.499 17.998L13.2012 17.9971C13.1471 17.997 13.0978 18.0223 13.0596 18.0605L9.55957 21.5605C8.97391 22.1459 8.02422 22.1458 7.43848 21.5605C6.85269 20.9748 6.85269 20.0243 7.43848 19.4385L10.9375 15.9395C10.9749 15.9021 10.999 15.8527 10.999 15.7998V14.4971C10.9994 12.5644 12.5662 10.9971 14.499 10.9971C14.5218 10.9971 14.5447 10.9976 14.5674 10.998Z" fill="oklch(0.3523 0 0 / 1)" class="wd-icon-fill"></path>
<path d="M9.5 4C11.2345 4 12.7788 4.8054 13.7852 6.05664C14.0185 6.01932 14.2573 6 14.5 6C16.4813 6 18.1604 7.28002 18.7617 9.05762C21.1616 9.42445 23 11.4976 23 14C23 15.4935 22.344 16.8353 21.3076 17.75C20.8937 18.1153 20.262 18.0758 19.8965 17.6621C19.531 17.248 19.5703 16.6155 19.9844 16.25C20.6087 15.6988 21 14.8957 21 14C21 12.3431 19.6569 11 18 11C17.4762 11 17.0464 10.615 16.9697 10.1162C16.7856 8.91782 15.7494 8 14.5 8C14.3151 8 14.1356 8.02017 13.9639 8.05762C13.3611 8.18889 12.7114 7.964 12.3301 7.44141C11.6918 6.566 10.6619 6 9.5 6C7.567 6 6 7.567 6 9.5C6 9.54262 6.00127 9.58525 6.00293 9.62793C6.02999 10.3245 5.59776 10.9496 4.95996 11.1855C3.81443 11.6091 3 12.7105 3 14C3 15.6569 4.34315 17 6 17C6.55228 17 7 17.4477 7 18C7 18.5523 6.55228 19 6 19C3.23858 19 1 16.7614 1 14C1 11.9478 2.23678 10.1887 4.00195 9.41797C4.04582 6.41823 6.48983 4 9.5 4Z" fill="oklch(0.3523 0 0 / 1)" class="wd-icon-fill"></path>
</g>
</svg>