<svg width="24" height="24" viewBox="0 0 24 24" xmlns="http://www.w3.org/2000/svg" class="wd-icon wd-icon-e-signature" role="presentation">
<g>
<path d="M20.5 19.0003C20.7761 19.0003 21 19.2242 21 19.5003V20.5003C20.9998 20.7763 20.776 21.0003 20.5 21.0003H3.5C3.22397 21.0003 3.00019 20.7763 3 20.5003V19.5003C3 19.2242 3.22386 19.0003 3.5 19.0003H20.5Z" fill="oklch(0.3523 0 0 / 1)" class="wd-icon-fill"></path>
<path d="M14.9443 1.97393C15.9291 2.14245 16.8738 2.60755 17.6328 3.36651C18.3917 4.12537 18.8578 5.07037 19.0264 6.05499C19.112 6.55617 18.9237 7.02619 18.6104 7.33917L10.2266 15.7073C8.39552 17.5378 5.63289 17.8961 4.56836 17.9749C3.68213 18.0405 2.95813 17.3111 3.02637 16.428C3.0703 15.861 3.18831 14.9068 3.50879 13.8753C3.82738 12.8502 4.36637 11.6838 5.29297 10.7571L13.6611 2.38799C13.9742 2.07515 14.4435 1.88826 14.9443 1.97393ZM6.70703 12.1712C6.09139 12.7869 5.6827 13.6203 5.41895 14.469C5.25865 14.985 5.16201 15.4836 5.10059 15.9017C6.19879 15.7415 7.77552 15.3292 8.8125 14.2923L16.9941 6.1253C16.8629 5.63323 16.606 5.1678 16.2188 4.78057C15.8314 4.39321 15.3663 4.13544 14.874 4.0042L6.70703 12.1712Z" fill="oklch(0.3523 0 0 / 1)" class="wd-icon-fill"></path>
</g>
</svg>