<svg width="24" height="24" viewBox="0 0 24 24" xmlns="http://www.w3.org/2000/svg" class="wd-icon wd-icon-document-star" role="presentation">
<path d="M18.5 2H5.5C5.22386 2 5 2.22386 5 2.5V21.5C5 21.7761 5.22386 22 5.5 22H18.5C18.7761 22 19 21.7761 19 21.5V2.5C19 2.22386 18.7761 2 18.5 2Z" fill="transparent" class="wd-icon-background"></path>
<path d="M18.5 1C19.3284 1 20 1.67157 20 2.5V21.5C20 22.3284 19.3284 23 18.5 23H5.5C4.67157 23 4 22.3284 4 21.5V2.5C4 1.67157 4.67157 1 5.5 1H18.5ZM6 21H18V3H6V21Z" fill="oklch(0.3523 0 0 / 1)" class="wd-icon-fill"></path>
<g>
<path d="M12.4999 17C12.776 17.0001 12.9999 17.224 12.9999 17.5V18.5C12.9999 18.7761 12.776 19 12.4999 19H8.49994C8.2238 19 7.99994 18.7762 7.99994 18.5V17.5C8 17.2239 8.22383 17 8.49994 17H12.4999Z" fill="oklch(0.3523 0 0 / 1)" class="wd-icon-accent"></path>
<path d="M15.4999 14C15.776 14.0001 15.9999 14.224 15.9999 14.5V15.5C15.9999 15.7761 15.776 16 15.4999 16H8.49994C8.2238 16 7.99994 15.7762 7.99994 15.5V14.5C8 14.2239 8.22383 14 8.49994 14H15.4999Z" fill="oklch(0.3523 0 0 / 1)" class="wd-icon-accent"></path>
<path d="M11.5517 4.90823C11.7353 4.53714 12.2647 4.53706 12.4482 4.90823L13.4697 6.97756L15.7529 7.30959C16.1627 7.36946 16.3259 7.87296 16.0292 8.16213L14.3779 9.77248L14.7675 12.0469C14.8374 12.4552 14.4086 12.7669 14.0419 12.5742L11.9999 11.5L9.95795 12.5742C9.59118 12.7671 9.16244 12.4553 9.23236 12.0469L9.62201 9.77248L7.96966 8.16213C7.6732 7.87286 7.83706 7.36924 8.24701 7.30959L10.5302 6.97756L11.5517 4.90823Z" fill="oklch(0.3523 0 0 / 1)" class="wd-icon-accent"></path>
</g>
</svg>