<svg width="24" height="24" viewBox="0 0 24 24" xmlns="http://www.w3.org/2000/svg" class="wd-icon wd-icon-grow" role="presentation">
<g>
<path d="M9.93945 12.6465C10.1347 12.4515 10.4513 12.4515 10.6465 12.6465L11.3535 13.3535C11.5486 13.5487 11.5486 13.8653 11.3535 14.0605L6.41406 19H9.5C9.776 19.0002 9.99999 19.224 10 19.5V20.5C9.99987 20.7759 9.77592 20.9998 9.5 21H3.5C3.22408 20.9998 3.00013 20.7759 3 20.5V14.5C3.00001 14.224 3.224 14.0002 3.5 14H4.5C4.776 14.0002 4.99999 14.224 5 14.5V17.5859L9.93945 12.6465Z" fill="oklch(0.3523 0 0 / 1)" class="wd-icon-fill"></path>
<path d="M20.5 2.99902C20.7758 2.99919 20.9996 3.22329 21 3.49902V9.49902C21 9.77506 20.776 9.99886 20.5 9.99902H19.5C19.224 9.99886 19 9.77506 19 9.49902V6.41309L14.0605 11.3525C13.8653 11.5477 13.5488 11.5476 13.3535 11.3525L12.6465 10.6455C12.4516 10.4502 12.4514 10.1336 12.6465 9.93848L17.5859 4.99902H14.5C14.224 4.99886 14 4.77506 14 4.49902V3.49902C14.0004 3.22329 14.2242 2.99919 14.5 2.99902H20.5Z" fill="oklch(0.3523 0 0 / 1)" class="wd-icon-fill"></path>
</g>
</svg>