<svg width="24" height="24" viewBox="0 0 24 24" xmlns="http://www.w3.org/2000/svg" class="wd-icon wd-icon-calendar-day-2" role="presentation">
<g>
<path d="M11.8301 10.3721C12.2919 10.3721 12.7023 10.4619 13.0518 10.6523C13.4019 10.8342 13.6736 11.0888 13.8555 11.416L13.9209 11.5381C14.0621 11.8267 14.1318 12.1404 14.1318 12.4756C14.1318 12.8363 14.0551 13.1845 13.9023 13.5166C13.7543 13.8384 13.5589 14.1427 13.3174 14.4287L13.3164 14.4277C13.087 14.7005 12.7987 15.0006 12.4531 15.3281L12.2022 15.5723L12.2002 15.5732L11.6289 16.1143H13.5674C13.919 16.1144 14.2041 16.3993 14.2041 16.751C14.2041 17.1027 13.919 17.3875 13.5674 17.3877H10.2168C9.79696 17.3877 9.4562 17.0477 9.45606 16.6279C9.45606 16.4199 9.5418 16.2207 9.69238 16.0772L11.2529 14.5898L11.2539 14.5889L11.5684 14.292C11.807 14.0471 12.006 13.825 12.166 13.625L12.1689 13.6211C12.3313 13.4251 12.457 13.2296 12.5488 13.0352C12.6365 12.8435 12.6777 12.6573 12.6777 12.4756C12.6776 12.1941 12.5948 12.0016 12.4512 11.8662L12.4482 11.8633C12.2966 11.7161 12.1002 11.6367 11.8389 11.6367C11.6377 11.6368 11.4737 11.6822 11.3379 11.7637C11.1963 11.8486 11.0858 11.9628 11.0049 12.1104C10.9797 12.1563 10.9579 12.2038 10.9395 12.2529C10.8299 12.5446 10.5595 12.8613 10.1582 12.8613C9.76806 12.8611 9.36537 12.5173 9.49317 12.0537C9.54749 11.8568 9.62811 11.6693 9.73438 11.4922L9.73535 11.4912C9.94467 11.1469 10.2323 10.8741 10.5928 10.6738C10.9586 10.4706 11.3734 10.3721 11.8301 10.3721Z" fill="oklch(0.3523 0 0 / 1)" class="wd-icon-fill"></path>
<path d="M16.2012 2C17.0247 2 17.7026 1.99898 18.2529 2.04395C18.815 2.08988 19.3321 2.18828 19.8174 2.43555C20.5699 2.81902 21.182 3.43109 21.5654 4.1836C21.8127 4.6689 21.9111 5.18599 21.957 5.74805C22.002 6.29843 22.001 6.97632 22.001 7.79981V16.2002C22.001 17.0237 22.002 17.7016 21.957 18.252C21.9111 18.814 21.8127 19.3311 21.5654 19.8164C21.182 20.5689 20.5699 21.181 19.8174 21.5645C19.3321 21.8117 18.815 21.9101 18.2529 21.9561C17.7026 22.001 17.0247 22 16.2012 22H7.80078C6.9773 22 6.2994 22.001 5.74903 21.9561C5.18697 21.9101 4.66988 21.8117 4.18457 21.5645C3.43207 21.181 2.81999 20.5689 2.43653 19.8164C2.18925 19.3311 2.09085 18.814 2.04492 18.252C1.99996 17.7016 2.00098 17.0237 2.00098 16.2002V7.79981C2.00098 6.97632 1.99996 6.29843 2.04492 5.74805C2.09085 5.18599 2.18925 4.6689 2.43653 4.1836C2.81999 3.43109 3.43207 2.81902 4.18457 2.43555C4.66988 2.18827 5.18697 2.08988 5.74903 2.04395C6.2994 1.99898 6.9773 2 7.80078 2H16.2012ZM4.00098 16.2002C4.00098 17.0566 4.00133 17.6388 4.03809 18.0889C4.07391 18.5273 4.13906 18.7518 4.21875 18.9082C4.41049 19.2845 4.71652 19.5905 5.09278 19.7822C5.24917 19.8619 5.4737 19.9271 5.91211 19.9629C6.36215 19.9997 6.9444 20 7.80078 20H16.2012C17.0576 20 17.6398 19.9997 18.0898 19.9629C18.5283 19.9271 18.7528 19.8619 18.9092 19.7822C19.2854 19.5905 19.5915 19.2845 19.7832 18.9082C19.8629 18.7518 19.928 18.5273 19.9639 18.0889C20.0006 17.6388 20.001 17.0566 20.001 16.2002V8H4.00098V16.2002Z" fill="oklch(0.3523 0 0 / 1)" class="wd-icon-fill"></path>
</g>
</svg>