<svg width="24" height="24" viewBox="0 0 24 24" xmlns="http://www.w3.org/2000/svg" class="wd-icon wd-icon-book-open" role="presentation">
<g>
<path d="M7.5 6C8.59211 6 9.61826 6.26916 10.5195 6.74316C10.7016 6.83893 10.8639 6.92168 11 6.98926V17.752C9.93178 17.2686 8.74615 17 7.5 17C6.87442 17 6.26365 17.0683 5.6748 17.1973C5.01619 17.3415 4.55895 17.441 4.23242 17.4961C4.14818 17.5103 4.08031 17.5188 4.02637 17.5254C4.02361 17.4962 4.01811 17.4615 4.01562 17.4209C4.00045 17.1725 4 16.8241 4 16.2969V7.29883C4 7.22453 4.00034 7.16807 4.00098 7.11914C4.0016 7.07107 4.00157 7.03984 4.00293 7.01855C4.01323 7.01163 4.02887 7.00243 4.05176 6.98828C4.08408 6.9683 4.12228 6.94501 4.17578 6.91309C5.14771 6.33322 6.28346 6 7.5 6Z" fill="transparent" class="wd-icon-background"></path>
<path d="M16.5 6C17.7165 6 18.8523 6.33322 19.8242 6.91309C19.8777 6.94501 19.9159 6.9683 19.9482 6.98828C19.9706 7.00213 19.9858 7.01166 19.9961 7.01855C19.9975 7.03984 19.9984 7.07103 19.999 7.11914C19.9997 7.16807 20 7.22453 20 7.29883V16.2969C20 16.8241 19.9996 17.1725 19.9844 17.4209C19.9819 17.4615 19.9754 17.4961 19.9727 17.5254C19.9189 17.5188 19.8513 17.5102 19.7676 17.4961C19.441 17.441 18.9838 17.3415 18.3252 17.1973C17.7364 17.0683 17.1256 17 16.5 17C15.2539 17 14.0682 17.2686 13 17.752V6.98926C13.1361 6.92168 13.2984 6.83893 13.4805 6.74316C14.3817 6.26916 15.4079 6 16.5 6Z" fill="transparent" class="wd-icon-background"></path>
</g>
<path d="M16.5 4C18.0875 4 19.5756 4.43678 20.8486 5.19629C21.0063 5.29035 21.2149 5.40694 21.415 5.60547L21.5 5.69531L21.625 5.85449C21.7445 6.02412 21.8444 6.22116 21.9043 6.4082C21.9834 6.65524 21.9978 6.89853 22 7.10547V16.2969C22 16.7969 22.0003 17.2196 21.9805 17.5439C21.9632 17.8263 21.9259 18.2378 21.7197 18.585C21.6202 18.7526 21.4824 18.9577 21.2637 19.1338C21.0449 19.3098 20.8149 19.4005 20.6299 19.4619C20.3908 19.5412 20.1558 19.5428 19.9951 19.5352C19.8195 19.5268 19.6286 19.5005 19.4346 19.4678C19.0484 19.4026 18.5339 19.2898 17.8975 19.1504C17.4482 19.052 16.9808 19 16.5 19C15.4079 19 14.3817 19.2692 13.4805 19.7432C13.2613 19.8585 13.0721 19.9576 12.9209 20.0303C12.7852 20.0955 12.5926 20.1838 12.3848 20.2246C12.2951 20.2422 12.1587 20.2676 12 20.2676C11.8413 20.2676 11.7049 20.2422 11.6152 20.2246C11.4074 20.1838 11.2148 20.0955 11.0791 20.0303C10.9279 19.9576 10.7387 19.8585 10.5195 19.7432C9.61826 19.2692 8.59211 19 7.5 19C7.01924 19 6.55175 19.052 6.10254 19.1504C5.46606 19.2898 4.95163 19.4026 4.56543 19.4678C4.37141 19.5005 4.18054 19.5268 4.00488 19.5352C3.84419 19.5428 3.60916 19.5412 3.37012 19.4619C3.18509 19.4005 2.95506 19.3098 2.73633 19.1338C2.5176 18.9577 2.37982 18.7526 2.28027 18.585C2.07411 18.2378 2.03683 17.8263 2.01953 17.5439C1.99968 17.2196 2 16.7969 2 16.2969V7.10547C2.0022 6.89853 2.01661 6.65524 2.0957 6.4082C2.17562 6.15883 2.32679 5.8917 2.5 5.69531L2.58496 5.60547C2.78512 5.40694 2.99373 5.29035 3.15137 5.19629C4.42435 4.43678 5.9125 4 7.5 4C8.92449 4 10.2698 4.35127 11.4512 4.97266C11.684 5.09513 11.8345 5.17425 11.9453 5.22754C11.9669 5.23792 11.9855 5.24538 12 5.25195C12.0145 5.24538 12.0331 5.23792 12.0547 5.22754C12.1655 5.17425 12.316 5.09513 12.5488 4.97266C13.7302 4.35127 15.0755 4 16.5 4ZM7.5 6C6.28346 6 5.14771 6.33322 4.17578 6.91309C4.12228 6.94501 4.08408 6.9683 4.05176 6.98828C4.02887 7.00243 4.01323 7.01163 4.00293 7.01855C4.00157 7.03984 4.0016 7.07107 4.00098 7.11914C4.00034 7.16807 4 7.22453 4 7.29883V16.2969C4 16.8241 4.00045 17.1725 4.01563 17.4209C4.01811 17.4615 4.02361 17.4962 4.02637 17.5254C4.08031 17.5188 4.14818 17.5103 4.23242 17.4961C4.55895 17.441 5.01619 17.3415 5.6748 17.1973C6.26365 17.0683 6.87442 17 7.5 17C8.74615 17 9.93178 17.2686 11 17.752V6.98926C10.8639 6.92168 10.7016 6.83893 10.5195 6.74316C9.61826 6.26916 8.59211 6 7.5 6ZM16.5 6C15.4079 6 14.3817 6.26916 13.4805 6.74316C13.2984 6.83893 13.1361 6.92168 13 6.98926V17.752C14.0682 17.2686 15.2539 17 16.5 17C17.1256 17 17.7364 17.0683 18.3252 17.1973C18.9838 17.3415 19.441 17.441 19.7676 17.4961C19.8513 17.5102 19.9189 17.5188 19.9727 17.5254C19.9754 17.4961 19.9819 17.4615 19.9844 17.4209C19.9996 17.1725 20 16.8241 20 16.2969V7.29883C20 7.22453 19.9997 7.16807 19.999 7.11914C19.9984 7.07103 19.9975 7.03984 19.9961 7.01855C19.9858 7.01166 19.9706 7.00213 19.9482 6.98828C19.9159 6.9683 19.8777 6.94501 19.8242 6.91309C18.8523 6.33322 17.7165 6 16.5 6Z" fill="oklch(0.3523 0 0 / 1)" class="wd-icon-fill"></path>
</svg>