<svg width="24" height="24" viewBox="0 0 24 24" xmlns="http://www.w3.org/2000/svg" class="wd-icon wd-icon-camera-plus" role="presentation">
<path d="M12.4297 3.00009C13.3073 3.00009 13.9549 2.99023 14.5566 3.17295C15.0589 3.3256 15.5272 3.5763 15.9336 3.91025L16.1016 4.05869C16.3767 4.31995 16.6115 4.63295 16.8652 5.00302C17.4153 5.00545 17.8901 5.01242 18.2969 5.04795C18.8415 5.09551 19.3438 5.19581 19.8164 5.43662C20.5685 5.82 21.1801 6.43159 21.5635 7.18369L21.6494 7.36728C21.8346 7.79895 21.9158 8.25631 21.9561 8.74814C22.0011 9.29856 22 9.97654 22 10.7999V12.0001C22 12.5524 21.5523 13.0001 21 13.0001C20.4477 13.0001 20 12.5524 20 12.0001V10.7999C20 9.94371 19.9987 9.36127 19.9619 8.91123C19.935 8.58231 19.8925 8.37334 19.8389 8.22373L19.7822 8.09189C19.5905 7.71583 19.2843 7.40955 18.9082 7.21787C18.7561 7.14044 18.5391 7.07647 18.123 7.04013C17.695 7.00276 17.1413 7.00021 16.3311 7.00009H15.7959L15.499 6.55478C15.1345 6.00861 14.9506 5.74881 14.8037 5.58896L14.6641 5.45517C14.4614 5.28866 14.2265 5.16355 13.9746 5.08701C13.7239 5.01096 13.4299 5.00009 12.4297 5.00009H11.5684C10.5681 5.00009 10.2741 5.01096 10.0234 5.08701C9.83464 5.14438 9.65531 5.229 9.49219 5.33798L9.33399 5.45517C9.14903 5.60734 8.98348 5.8275 8.49805 6.55478L8.20117 7.00009H7.66602C6.8568 7.00021 6.30351 7.00372 5.87598 7.04111C5.46064 7.07747 5.24376 7.14051 5.0918 7.21787C4.76269 7.38561 4.48704 7.64106 4.29492 7.9542L4.21778 8.09189C4.13815 8.24827 4.07393 8.47313 4.03809 8.91123C4.0013 9.36127 4 9.94371 4 10.7999V14.2003C4 15.0565 4.00131 15.6389 4.03809 16.089C4.07391 16.527 4.13818 16.7519 4.21778 16.9083C4.40947 17.2844 4.71569 17.5906 5.0918 17.7823L5.22363 17.839C5.37328 17.8926 5.58209 17.9351 5.91113 17.962C6.36122 17.9988 6.94348 18.0001 7.79981 18.0001H14C14.5522 18.0001 14.9999 18.4479 15 19.0001C15 19.5524 14.5523 20.0001 14 20.0001H7.79981C6.97633 20.0001 6.29852 20.0012 5.74805 19.9561C5.25613 19.9159 4.79892 19.8347 4.36719 19.6495L4.1836 19.5636C3.43145 19.1802 2.81993 18.5687 2.43653 17.8165C2.18933 17.3313 2.08991 16.8141 2.04395 16.252C1.99896 15.7016 2 15.0236 2 14.2003V10.7999C2 9.97654 1.99895 9.29856 2.04395 8.74814C2.08993 8.1861 2.18929 7.66891 2.43653 7.18369L2.59082 6.9083C2.97502 6.2822 3.52551 5.77206 4.1836 5.43662C4.65598 5.19595 5.15792 5.09554 5.70215 5.04795C6.10851 5.01241 6.58266 5.00547 7.13184 5.00302C7.43622 4.55946 7.71335 4.19897 8.06446 3.91025L8.21973 3.78916C8.5885 3.51544 9.00188 3.30653 9.44141 3.17295C10.0431 2.99023 10.6907 3.00009 11.5684 3.00009H12.4297Z" fill="oklch(0.3523 0 0 / 1)" class="wd-icon-fill"></path>
<g>
<path d="M19.998 14.75C20.4123 14.75 20.748 15.0858 20.748 15.5V17.25H22.498C22.9123 17.25 23.248 17.5858 23.248 18C23.248 18.4142 22.9123 18.75 22.498 18.75H20.748V20.5C20.748 20.9142 20.4123 21.25 19.998 21.25C19.5838 21.25 19.248 20.9142 19.248 20.5V18.75H17.498C17.0838 18.75 16.748 18.4142 16.748 18C16.748 17.5858 17.0838 17.25 17.498 17.25H19.248V15.5C19.248 15.0858 19.5838 14.75 19.998 14.75Z" fill="oklch(0.3523 0 0 / 1)" class="wd-icon-accent"></path>
<path d="M12 8C14.2091 8 15.9999 9.79097 16 12C16 14.2091 14.2091 16 12 16C9.79086 16 8 14.2091 8 12C8.00013 9.79097 9.79094 8 12 8ZM12 10C10.8955 10 10.0001 10.8955 10 12C10 13.1046 10.8954 14 12 14C13.1046 14 14 13.1046 14 12C13.9999 10.8955 13.1045 10 12 10Z" fill="oklch(0.3523 0 0 / 1)" class="wd-icon-accent"></path>
</g>
</svg>