<svg width="24" height="24" viewBox="0 0 24 24" xmlns="http://www.w3.org/2000/svg" class="wd-icon wd-icon-bubble-chart" role="presentation">
<g>
<path d="M5 17C5.55228 17 6 17.4477 6 18C6 18.5523 5.55228 19 5 19C4.44772 19 4 18.5523 4 18C4 17.4477 4.44772 17 5 17Z" fill="transparent" class="wd-icon-background"></path>
<path d="M12.5 15C13.3284 15 14 15.6716 14 16.5C14 17.3284 13.3284 18 12.5 18C11.6716 18 11 17.3284 11 16.5C11 15.6716 11.6716 15 12.5 15Z" fill="transparent" class="wd-icon-background"></path>
<path d="M7 10C7.55228 10 8 10.4477 8 11C8 11.5523 7.55228 12 7 12C6.44772 12 6 11.5523 6 11C6 10.4477 6.44772 10 7 10Z" fill="transparent" class="wd-icon-background"></path>
<path d="M17.5 6C18.8807 6 20 7.11929 20 8.5C20 9.88071 18.8807 11 17.5 11C16.1193 11 15 9.88071 15 8.5C15 7.11929 16.1193 6 17.5 6Z" fill="transparent" class="wd-icon-background"></path>
<path d="M10 4C10.5523 4 11 4.44772 11 5C11 5.55228 10.5523 6 10 6C9.44772 6 9 5.55228 9 5C9 4.44772 9.44772 4 10 4Z" fill="transparent" class="wd-icon-background"></path>
</g>
<g>
<path d="M5 15C6.65685 15 8 16.3431 8 18C8 19.6569 6.65685 21 5 21C3.34315 21 2 19.6569 2 18C2 16.3431 3.34315 15 5 15ZM5 17C4.44772 17 4 17.4477 4 18C4 18.5523 4.44772 19 5 19C5.55228 19 6 18.5523 6 18C6 17.4477 5.55228 17 5 17Z" fill="oklch(0.3523 0 0 / 1)" class="wd-icon-fill"></path>
<path d="M12.5 13C14.433 13 16 14.567 16 16.5C16 18.433 14.433 20 12.5 20C10.567 20 9 18.433 9 16.5C9 14.567 10.567 13 12.5 13ZM12.5 15C11.6716 15 11 15.6716 11 16.5C11 17.3284 11.6716 18 12.5 18C13.3284 18 14 17.3284 14 16.5C14 15.6716 13.3284 15 12.5 15Z" fill="oklch(0.3523 0 0 / 1)" class="wd-icon-fill"></path>
<path d="M7 8C8.65685 8 10 9.34315 10 11C10 12.6569 8.65685 14 7 14C5.34315 14 4 12.6569 4 11C4 9.34315 5.34315 8 7 8ZM7 10C6.44772 10 6 10.4477 6 11C6 11.5523 6.44772 12 7 12C7.55228 12 8 11.5523 8 11C8 10.4477 7.55228 10 7 10Z" fill="oklch(0.3523 0 0 / 1)" class="wd-icon-fill"></path>
<path d="M17.5 4C19.9853 4 22 6.01472 22 8.5C22 10.9853 19.9853 13 17.5 13C15.0147 13 13 10.9853 13 8.5C13 6.01472 15.0147 4 17.5 4ZM17.5 6C16.1193 6 15 7.11929 15 8.5C15 9.88071 16.1193 11 17.5 11C18.8807 11 20 9.88071 20 8.5C20 7.11929 18.8807 6 17.5 6Z" fill="oklch(0.3523 0 0 / 1)" class="wd-icon-fill"></path>
<path d="M10 2C11.6569 2 13 3.34315 13 5C13 6.65685 11.6569 8 10 8C8.34315 8 7 6.65685 7 5C7 3.34315 8.34315 2 10 2ZM10 4C9.44772 4 9 4.44772 9 5C9 5.55228 9.44772 6 10 6C10.5523 6 11 5.55228 11 5C11 4.44772 10.5523 4 10 4Z" fill="oklch(0.3523 0 0 / 1)" class="wd-icon-fill"></path>
</g>
</svg>