<svg width="24" height="24" viewBox="0 0 24 24" xmlns="http://www.w3.org/2000/svg" class="wd-icon wd-icon-grid" role="presentation">
<path d="M18 2C18.5523 2 19 2.44772 19 3V5H21C21.5523 5 22 5.44772 22 6C22 6.55228 21.5523 7 21 7H19V11H21C21.5523 11 22 11.4477 22 12C22 12.5523 21.5523 13 21 13H19V17H21C21.5523 17 22 17.4477 22 18C22 18.5523 21.5523 19 21 19H19V21C19 21.5523 18.5523 22 18 22C17.4477 22 17 21.5523 17 21V19H13V21C13 21.5523 12.5523 22 12 22C11.4477 22 11 21.5523 11 21V19H7V21C7 21.5523 6.55228 22 6 22C5.44772 22 5 21.5523 5 21V19H3C2.44772 19 2 18.5523 2 18C2 17.4477 2.44772 17 3 17H5V13H3C2.44772 13 2 12.5523 2 12C2 11.4477 2.44772 11 3 11H5V7H3C2.44772 7 2 6.55228 2 6C2 5.44772 2.44772 5 3 5H5V3C5 2.44772 5.44772 2 6 2C6.55228 2 7 2.44772 7 3V5H11V3C11 2.44772 11.4477 2 12 2C12.5523 2 13 2.44772 13 3V5H17V3C17 2.44772 17.4477 2 18 2ZM7 17H11V13H7V17ZM13 17H17V13H13V17ZM7 11H11V7H7V11ZM13 11H17V7H13V11Z" fill="oklch(0.3523 0 0 / 1)" class="wd-icon-fill"></path>
</svg>