<svg width="24" height="24" viewBox="0 0 24 24" xmlns="http://www.w3.org/2000/svg" class="wd-icon wd-icon-fast-forward-15" role="presentation">
<g>
<path d="M2.7611 15.8274C1.83274 13.5861 1.75095 11.0826 2.53063 8.7854C3.17775 6.87922 4.38342 5.22358 5.97497 4.02172L4.87438 3.8977C4.60014 3.86672 4.40315 3.61927 4.43395 3.34497L4.54528 2.35083C4.57633 2.07666 4.82376 1.8796 5.09802 1.9104L9.07262 2.35669C9.34704 2.3875 9.54485 2.635 9.51403 2.90942L9.06774 6.88403C9.03693 7.15843 8.7894 7.35621 8.51501 7.32544L7.52087 7.21411C7.24668 7.18316 7.04977 6.9356 7.08044 6.66137L7.1986 5.60376C5.91632 6.5664 4.94533 7.8966 4.42516 9.42895C3.8015 11.2667 3.86707 13.2688 4.60973 15.0618C5.3525 16.8546 6.72182 18.3167 8.46227 19.175C10.2027 20.0332 12.1963 20.2299 14.0707 19.7278C15.9452 19.2255 17.5735 18.0581 18.6517 16.4446C19.7299 14.831 20.1851 12.8803 19.932 10.9563C19.6787 9.03213 18.7339 7.26528 17.2748 5.98559C15.9413 4.81626 14.2611 4.1261 12.5004 4.01587C12.2249 3.9986 12.0005 3.77625 12.0004 3.50024V2.50024C12.0004 2.22415 12.2246 1.99924 12.5004 2.01294C14.7468 2.12534 16.8958 2.99229 18.5941 4.48169C20.4178 6.08119 21.5977 8.28956 21.9144 10.6946C22.231 13.0998 21.6626 15.5388 20.3148 17.5559C18.967 19.5728 16.9314 21.0315 14.5883 21.6594C12.2451 22.2871 9.75312 22.0418 7.57751 20.969C5.40185 19.896 3.68954 18.0685 2.7611 15.8274Z" fill="oklch(0.3523 0 0 / 1)" class="wd-icon-fill"></path>
<path d="M11.5795 13.8411C11.5025 13.5719 11.7359 13.3374 12.016 13.3372H12.6508C12.9129 13.3373 13.1122 13.5547 13.2455 13.7805C13.3862 14.0187 13.6328 14.1555 13.9535 14.1555C14.4302 14.1554 14.7805 13.8588 14.7806 13.0852C14.7806 12.3204 14.4303 12.0316 13.9535 12.0315C13.7458 12.0315 13.5667 12.0837 13.43 12.1731C13.2918 12.2635 13.1431 12.3557 12.9779 12.3557H12.1185C11.814 12.3556 11.5799 12.0858 11.6234 11.7844L11.9925 9.22973C12.028 8.98392 12.2384 8.8013 12.4867 8.80102L15.514 8.80102C15.7902 8.80102 16.014 9.0249 16.014 9.30102V9.46215C16.0139 9.73819 15.7901 9.96215 15.514 9.96215H13.3236L13.0258 11.4651H13.0443C13.4043 11.0961 13.8634 10.9251 14.3763 10.925C15.3663 10.9251 16.3919 11.5464 16.392 13.0403C16.3918 14.5339 15.3752 15.2716 13.9535 15.2717C12.7566 15.2717 11.8402 14.7482 11.5795 13.8411Z" fill="oklch(0.3523 0 0 / 1)" class="wd-icon-fill"></path>
<path d="M7.49352 10.6506C7.49376 10.3747 7.71757 10.1507 7.99352 10.1506H8.01598C8.66365 10.1505 8.93395 9.83573 8.93395 9.22387C8.93406 8.99038 9.1233 8.80108 9.3568 8.80102H9.92712C10.2032 8.80102 10.4271 9.0249 10.4271 9.30102V14.6008C10.4271 14.877 10.2033 15.1008 9.92712 15.1008H9.42419C9.14825 15.1006 8.92419 14.8768 8.92419 14.6008V10.7454H8.90661C8.75359 11.1681 8.42951 11.3391 7.94372 11.3391C7.69524 11.3391 7.49352 11.1374 7.49352 10.8889V10.6506Z" fill="oklch(0.3523 0 0 / 1)" class="wd-icon-fill"></path>
</g>
</svg>