<svg width="24" height="24" viewBox="0 0 24 24" xmlns="http://www.w3.org/2000/svg" class="wd-icon wd-icon-comment-arrow-down-fill" role="presentation">
<path d="M12 2C17.4089 2 22 5.92196 22 11C22 16.078 17.4089 20 12 20C11.7859 20 11.5733 19.9914 11.3623 19.9795C9.62998 21.252 7.47856 21.6607 6.06055 21.7461C5.7286 21.7659 5.40806 21.6187 5.20605 21.3545C5.00424 21.0902 4.94741 20.7428 5.05371 20.4277C5.28973 19.7281 5.42269 18.7012 5.45996 17.8096C3.36367 16.1774 2 13.7479 2 11C2 5.92196 6.59113 2 12 2ZM12 7.25C11.586 7.25016 11.2501 7.58595 11.25 8V12.1895L9.53027 10.4697C9.23741 10.177 8.76259 10.177 8.46973 10.4697C8.17702 10.7626 8.17701 11.2374 8.46973 11.5303L11.4697 14.5303C11.7626 14.8231 12.2374 14.823 12.5303 14.5303L15.5303 11.5303C15.823 11.2374 15.8231 10.7626 15.5303 10.4697C15.2374 10.1771 14.7626 10.1771 14.4697 10.4697L12.75 12.1895V8C12.7499 7.58591 12.4141 7.25009 12 7.25Z" fill="oklch(0.3523 0 0 / 1)" class="wd-icon-fill"></path>
</svg>