<svg width="24" height="24" viewBox="0 0 24 24" xmlns="http://www.w3.org/2000/svg" class="wd-icon wd-icon-phone" role="presentation">
<path d="M7.29726 2.11243C7.69732 2.04074 8.11179 2.09233 8.48378 2.26282C8.79564 2.40581 9.01562 2.62472 9.18104 2.81848C9.34036 3.00513 9.51044 3.24546 9.68886 3.49524L11.3383 5.80481C11.4694 5.98841 11.6012 6.17115 11.7006 6.33508C11.8064 6.50978 11.9152 6.72356 11.9682 6.98645C12.0426 7.35635 12.0106 7.74027 11.8764 8.0929C11.781 8.34342 11.6393 8.53664 11.5062 8.69153C11.3813 8.83688 11.2214 8.9949 11.0619 9.15442L9.74745 10.4689C10.8281 12.1817 12.2778 13.6314 13.9906 14.712L15.3041 13.3976C15.4637 13.238 15.6225 13.0782 15.768 12.9532C15.9229 12.8201 16.117 12.6785 16.3676 12.5831C16.72 12.4491 17.1034 12.417 17.473 12.4913C17.7357 12.5442 17.9488 12.6531 18.1234 12.7589C18.2874 12.8583 18.471 12.989 18.6547 13.1202L20.9642 14.7706C21.214 14.949 21.4544 15.1192 21.641 15.2784C21.8347 15.4438 22.0527 15.664 22.1957 15.9757C22.3905 16.4008 22.4303 16.8808 22.308 17.3322C22.2182 17.6634 22.0384 17.9164 21.8744 18.1115C21.7165 18.2992 21.5084 18.5077 21.2914 18.7247L19.5287 20.4865C18.3387 21.6763 16.5611 22.0578 14.9877 21.4611C9.45974 19.3641 5.0943 14.9988 2.99745 9.47083C2.40092 7.89743 2.78316 6.11969 3.97304 4.92981L5.73475 3.16809C5.95172 2.95112 6.15928 2.74201 6.34706 2.58411C6.51777 2.44061 6.73319 2.2843 7.00624 2.18762L7.12733 2.15149L7.29726 2.11243ZM7.63515 4.11438C7.52902 4.20359 7.39112 4.33985 7.14882 4.58215L5.3871 6.34485C4.75373 6.97836 4.54984 7.9252 4.86757 8.76282C6.76157 13.7556 10.7048 17.6971 15.6976 19.5909C16.5352 19.9085 17.4812 19.7057 18.1146 19.0724L19.8773 17.3097C20.1195 17.0676 20.2559 16.9304 20.3451 16.8243C20.3487 16.82 20.3517 16.8156 20.3549 16.8116C20.3508 16.8081 20.3467 16.8038 20.3422 16.7999C20.2368 16.71 20.0806 16.5965 19.8021 16.3976L17.4916 14.7482C17.2836 14.5996 17.1716 14.52 17.0873 14.4689C17.0847 14.4673 17.0819 14.4654 17.0795 14.464C17.0771 14.466 17.0743 14.4677 17.0717 14.4698C16.9969 14.5341 16.8998 14.6309 16.7191 14.8116L15.184 16.3458C14.6623 16.8674 13.8528 16.9675 13.2201 16.588C11.0254 15.2712 9.18831 13.4331 7.87147 11.2384C7.49239 10.6058 7.5922 9.7961 8.11366 9.27454L9.64784 7.74036C9.82855 7.55965 9.92536 7.46261 9.98964 7.38782C9.99185 7.38524 9.99352 7.38235 9.9955 7.38001C9.99391 7.37737 9.9914 7.3751 9.98964 7.37219C9.93853 7.28784 9.8599 7.17591 9.71132 6.9679L8.0619 4.65735C7.86295 4.37882 7.74952 4.22271 7.65956 4.11731C7.65581 4.11292 7.65221 4.1085 7.64882 4.10462C7.64485 4.10787 7.63958 4.11075 7.63515 4.11438Z" fill="oklch(0.3523 0 0 / 1)" class="wd-icon-fill"></path>
</svg>