<svg width="24" height="24" viewBox="0 0 24 24" xmlns="http://www.w3.org/2000/svg" class="wd-icon wd-icon-line-chart-anomaly" role="presentation">
<g>
<path d="M4 3C4.55229 3 5 3.44772 5 4V12.5859L7.51172 10.0742C8.34836 9.23774 9.72437 9.30614 10.4736 10.2217L14.2744 14.8672C14.6237 15.2946 14.56 15.9248 14.1328 16.2744C13.7054 16.6237 13.0752 16.5601 12.7256 16.1328L8.92579 11.4883L5 15.4141V16.7998C5 17.3764 5.00127 17.7489 5.02442 18.0322C5.04662 18.3038 5.08419 18.4047 5.10938 18.4541C5.20522 18.6421 5.35793 18.7948 5.5459 18.8906C5.59534 18.9158 5.69619 18.9534 5.96778 18.9756C6.25111 18.9987 6.62365 19 7.2002 19H20C20.5523 19 21 19.4477 21 20C21 20.5523 20.5523 21 20 21H7.2002C6.65665 21 6.18836 21.0011 5.80469 20.9697C5.40944 20.9374 5.016 20.8656 4.6377 20.6729C4.07348 20.3853 3.61473 19.9265 3.32715 19.3623C3.1344 18.984 3.06259 18.5906 3.03028 18.1953C2.99893 17.8116 3 17.3434 3 16.7998V4C3 3.44772 3.44772 3 4 3Z" fill="oklch(0.3523 0 0 / 1)" class="wd-icon-fill"></path>
<path d="M15.25 11.75C15.8023 11.75 16.25 12.1977 16.25 12.75C16.25 13.3023 15.8023 13.75 15.25 13.75C14.6977 13.75 14.25 13.3023 14.25 12.75C14.25 12.1977 14.6977 11.75 15.25 11.75Z" fill="oklch(0.3523 0 0 / 1)" class="wd-icon-fill"></path>
<path d="M16.75 9.25C17.3023 9.25004 17.75 9.69774 17.75 10.25C17.75 10.8023 17.3023 11.25 16.75 11.25C16.1977 11.25 15.75 10.8023 15.75 10.25C15.75 9.69772 16.1977 9.25 16.75 9.25Z" fill="oklch(0.3523 0 0 / 1)" class="wd-icon-fill"></path>
<path d="M19 3C20.6568 3.00004 22 4.34317 22 6C22 7.65683 20.6568 8.99996 19 9C17.3432 9 16 7.65685 16 6C16 4.34315 17.3432 3 19 3ZM19 5C18.4477 5 18 5.44772 18 6C18 6.55228 18.4477 7 19 7C19.5523 6.99996 20 6.55226 20 6C20 5.44774 19.5523 5.00004 19 5Z" fill="oklch(0.3523 0 0 / 1)" class="wd-icon-fill"></path>
</g>
</svg>