<svg width="24" height="24" viewBox="0 0 24 24" xmlns="http://www.w3.org/2000/svg" class="wd-icon wd-icon-move-row-up" role="presentation">
<g>
<path d="M20 19C20.5523 19 21 19.4477 21 20C21 20.5523 20.5523 21 20 21H4C3.44772 21 3 20.5523 3 20C3.00001 19.4477 3.44772 19 4 19H20Z" fill="oklch(0.3523 0 0 / 1)" class="wd-icon-fill"></path>
<path d="M8.79981 3C9.34335 3 9.81165 2.99893 10.1953 3.03028C10.5906 3.06259 10.984 3.13441 11.3623 3.32715C11.9265 3.61472 12.3853 4.07348 12.6729 4.6377C12.8656 5.01599 12.9374 5.40944 12.9697 5.80469C13.0011 6.18836 13 6.65665 13 7.2002V12.7998C13 13.3434 13.0011 13.8116 12.9697 14.1953C12.9374 14.5906 12.8656 14.984 12.6729 15.3623C12.3853 15.9265 11.9265 16.3853 11.3623 16.6729C10.984 16.8656 10.5906 16.9374 10.1953 16.9697C9.81165 17.0011 9.34335 17 8.79981 17H7.2002C6.65665 17 6.18836 17.0011 5.80469 16.9697C5.40944 16.9374 5.01599 16.8656 4.6377 16.6729C4.07348 16.3853 3.61472 15.9265 3.32715 15.3623C3.13441 14.984 3.06259 14.5906 3.03028 14.1953C2.99893 13.8116 3 13.3434 3 12.7998V7.2002C3 6.65665 2.99893 6.18836 3.03028 5.80469C3.06259 5.40944 3.1344 5.01599 3.32715 4.6377C3.61473 4.07348 4.07348 3.61473 4.6377 3.32715C5.01599 3.1344 5.40944 3.06259 5.80469 3.03028C6.18836 2.99893 6.65665 3 7.2002 3H8.79981ZM5 12.7998C5 13.3764 5.00127 13.7489 5.02442 14.0322C5.04661 14.3038 5.08419 14.4047 5.10938 14.4541C5.20522 14.6421 5.35794 14.7948 5.5459 14.8906C5.59534 14.9158 5.6962 14.9534 5.96778 14.9756C6.25111 14.9987 6.62365 15 7.2002 15H8.79981C9.37635 15 9.74889 14.9987 10.0322 14.9756C10.3038 14.9534 10.4047 14.9158 10.4541 14.8906C10.6421 14.7948 10.7948 14.6421 10.8906 14.4541C10.9158 14.4047 10.9534 14.3038 10.9756 14.0322C10.9987 13.7489 11 13.3764 11 12.7998V12.5H5V12.7998ZM5 11H11V9H5V11ZM7.2002 5C6.62365 5 6.25111 5.00127 5.96778 5.02442C5.6962 5.04662 5.59534 5.08419 5.5459 5.10938C5.35794 5.20522 5.20522 5.35794 5.10938 5.5459C5.08419 5.59534 5.04662 5.6962 5.02442 5.96778C5.00127 6.25111 5 6.62365 5 7.2002V7.5H11V7.2002C11 6.62365 10.9987 6.25111 10.9756 5.96778C10.9534 5.6962 10.9158 5.59534 10.8906 5.5459C10.7948 5.35794 10.6421 5.20522 10.4541 5.10938C10.4047 5.08419 10.3038 5.04661 10.0322 5.02442C9.7489 5.00127 9.37635 5 8.79981 5H7.2002Z" fill="oklch(0.3523 0 0 / 1)" class="wd-icon-fill"></path>
<path d="M17.4717 3.46973C17.7645 3.17716 18.2394 3.1772 18.5322 3.46973L21.5322 6.46973C21.8248 6.76257 21.8248 7.23745 21.5322 7.53028C21.2394 7.82293 20.7645 7.82287 20.4717 7.53028L18.752 5.81055V16C18.752 16.4142 18.4162 16.75 18.002 16.75C17.5877 16.75 17.252 16.4142 17.252 16V5.81055L15.5322 7.53028C15.2394 7.82286 14.7645 7.8228 14.4717 7.53028C14.1792 7.23743 14.1791 6.76254 14.4717 6.46973L17.4717 3.46973Z" fill="oklch(0.3523 0 0 / 1)" class="wd-icon-fill"></path>
</g>
</svg>