<svg width="24" height="24" viewBox="0 0 24 24" xmlns="http://www.w3.org/2000/svg" class="wd-icon wd-icon-comment-plus" role="presentation">
<g>
<path d="M12.5 8C12.7761 8 13 8.22386 13 8.5V10H14.5C14.7761 10 15 10.2239 15 10.5V11.5C15 11.7761 14.7761 12 14.5 12H13V13.5C13 13.7761 12.7761 14 12.5 14H11.5C11.2239 14 11 13.7761 11 13.5V12L9.5 12.001C9.22389 12.001 9.00004 11.7771 9 11.501V10.501C9 10.2249 9.22389 10.001 9.5 10.001L11 10V8.5C11 8.22386 11.2239 8 11.5 8H12.5Z" fill="oklch(0.3523 0 0 / 1)" class="wd-icon-fill"></path>
<path d="M18 3C20.2096 3 22 4.79226 22 7.00098V15C21.9997 17.2085 20.2094 19.001 18 19.001H10.0771C9.8236 19.414 9.51918 19.805 9.16211 20.1621C8.02102 21.3031 6.54867 21.9152 5.05566 21.998C4.78139 22.0132 4.5121 21.9153 4.3125 21.7266C4.11301 21.5378 4.00013 21.2746 4 21V18.457C2.8078 17.767 2.00018 16.4819 2 15V7.00098C2 4.79226 3.7905 3.00004 6 3H18ZM6 5C4.89586 5.00003 4 5.89603 4 7.00098V15C4.00021 15.8665 4.55438 16.6068 5.33398 16.8828C5.73307 17.0243 6 17.4017 6 17.8252V19.8086C6.63924 19.6076 7.24107 19.255 7.74805 18.748C8.10198 18.3941 8.38042 17.9942 8.58496 17.5684L8.65527 17.4443C8.8391 17.1698 9.14976 17.001 9.48633 17.001H18C19.104 17.001 19.9997 16.1048 20 15V7.00098C20 5.89598 19.1041 5 18 5H6Z" fill="oklch(0.3523 0 0 / 1)" class="wd-icon-fill"></path>
</g>
</svg>