<svg width="24" height="24" viewBox="0 0 24 24" xmlns="http://www.w3.org/2000/svg" class="wd-icon wd-icon-calculator-loop" role="presentation">
<g>
<path d="M17.5 1C18.3284 1 19 1.67157 19 2.5V11.5C19 11.7761 18.7761 12 18.5 12H17.5C17.2239 12 17 11.7761 17 11.5V3H5V19H9.5C9.77614 19 10 19.2239 10 19.5V20.5C10 20.7761 9.77614 21 9.5 21H4.5C3.67157 21 3 20.3284 3 19.5V2.5C3 1.67157 3.67157 1 4.5 1H17.5Z" fill="oklch(0.3523 0 0 / 1)" class="wd-icon-fill"></path>
<path d="M8.5 15C8.77614 15 9 15.2239 9 15.5V16.5C9 16.7761 8.77614 17 8.5 17H6.5C6.22386 17 6 16.7761 6 16.5V15.5C6 15.2239 6.22386 15 6.5 15H8.5Z" fill="oklch(0.3523 0 0 / 1)" class="wd-icon-fill"></path>
<path d="M8.5 12C8.77614 12 9 12.2239 9 12.5V13.5C9 13.7761 8.77614 14 8.5 14H6.5C6.22386 14 6 13.7761 6 13.5V12.5C6 12.2239 6.22386 12 6.5 12H8.5Z" fill="oklch(0.3523 0 0 / 1)" class="wd-icon-fill"></path>
<path d="M12.5 12C12.7761 12 13 12.2239 13 12.5V13.5C13 13.7761 12.7761 14 12.5 14H10.5C10.2239 14 10 13.7761 10 13.5V12.5C10 12.2239 10.2239 12 10.5 12H12.5Z" fill="oklch(0.3523 0 0 / 1)" class="wd-icon-fill"></path>
<path d="M15 4C15.5523 4 16 4.44772 16 5V9C16 9.55229 15.5523 10 15 10H7C6.44772 10 6 9.55229 6 9V5C6 4.44772 6.44772 4 7 4H15ZM8 8H14V6H8V8Z" fill="oklch(0.3523 0 0 / 1)" class="wd-icon-fill"></path>
</g>
<g>
<path d="M13.0667 15.622C13.2645 15.3254 13.7007 15.3257 13.8987 15.622L15.6312 18.2206C15.8526 18.5529 15.6144 18.9979 15.2151 18.998H14.5335C14.5902 19.2759 14.6936 19.5439 14.8411 19.789C15.0754 20.1781 15.4115 20.4963 15.8128 20.7089C16.2142 20.9214 16.6669 21.0209 17.1204 20.996C17.4067 20.9802 17.6873 20.9146 17.9495 20.8046C18.2041 20.6979 18.514 20.7523 18.6692 20.9804L18.9505 21.3945L19.2317 21.8075C19.3868 22.0359 19.3284 22.3495 19.0843 22.4784C18.5123 22.7805 17.8795 22.9573 17.2298 22.9931C16.4134 23.0379 15.5999 22.8591 14.8773 22.4765C14.1546 22.0938 13.549 21.5218 13.1273 20.8212C12.7918 20.2639 12.5827 19.6416 12.511 18.999L11.7503 18.998C11.3511 18.9978 11.1128 18.5528 11.3343 18.2206L13.0667 15.622Z" fill="oklch(0.3523 0 0 / 1)" class="wd-icon-accent"></path>
<path d="M16.7357 14.0068C17.5521 13.9619 18.3656 14.1408 19.0882 14.5234C19.8109 14.906 20.4163 15.4781 20.8382 16.1786C21.1733 16.7352 21.3834 17.3561 21.4554 17.998H22.2151C22.6145 17.998 22.8527 18.443 22.6312 18.7753L20.8987 21.374C20.7008 21.6708 20.2646 21.6708 20.0667 21.374L18.3353 18.7753C18.1139 18.4431 18.3521 17.9981 18.7513 17.998H19.4319C19.3751 17.7212 19.2712 17.455 19.1243 17.2109C18.89 16.8218 18.554 16.5035 18.1526 16.2909C17.7512 16.0785 17.2985 15.9789 16.845 16.0038C16.559 16.0197 16.2789 16.0844 16.0169 16.1943C15.7624 16.301 15.4524 16.2467 15.2972 16.0185L15.015 15.6054L14.7347 15.1913C14.5797 14.963 14.6381 14.6493 14.8821 14.5204C15.454 14.2185 16.0862 14.0426 16.7357 14.0068Z" fill="oklch(0.3523 0 0 / 1)" class="wd-icon-accent"></path>
</g>
</svg>