<svg width="24" height="24" viewBox="0 0 24 24" xmlns="http://www.w3.org/2000/svg" class="wd-icon wd-icon-calendar-info" role="presentation">
<g>
<path d="M16.2002 2C17.0237 2 17.7016 1.99898 18.252 2.04395C18.814 2.08988 19.3311 2.18827 19.8164 2.43555C20.5689 2.81902 21.181 3.43109 21.5645 4.1836C21.8117 4.6689 21.9101 5.18599 21.9561 5.74805C22.001 6.29843 22 6.97632 22 7.79981V10C22 10.5523 21.5523 11 21 11C20.4477 11 20 10.5523 20 10V8H4V16.2002C4 17.0566 4.00035 17.6388 4.03711 18.0889C4.07293 18.5273 4.13809 18.7518 4.21778 18.9082C4.40951 19.2845 4.71555 19.5905 5.0918 19.7822C5.2482 19.8619 5.47272 19.9271 5.91113 19.9629C6.36117 19.9997 6.94342 20 7.79981 20H10C10.5523 20 11 20.4477 11 21C11 21.5523 10.5523 22 10 22H7.79981C6.97632 22 6.29843 22.001 5.74805 21.9561C5.18599 21.9101 4.6689 21.8117 4.1836 21.5645C3.43109 21.181 2.81902 20.5689 2.43555 19.8164C2.18827 19.3311 2.08988 18.814 2.04395 18.252C1.99898 17.7016 2 17.0237 2 16.2002V7.79981C2 6.97632 1.99898 6.29843 2.04395 5.74805C2.08988 5.18599 2.18827 4.6689 2.43555 4.1836C2.81902 3.43109 3.43109 2.81902 4.1836 2.43555C4.6689 2.18827 5.18599 2.08988 5.74805 2.04395C6.29843 1.99898 6.97632 2 7.79981 2H16.2002Z" fill="oklch(0.3523 0 0 / 1)" class="wd-icon-fill"></path>
<path d="M8.40039 10C8.96018 10 9.24024 10.0004 9.4541 10.1094C9.64207 10.2052 9.79479 10.3579 9.89063 10.5459C9.9996 10.7598 10 11.0398 10 11.5996V12.4004C10 12.9602 9.9996 13.2402 9.89063 13.4541C9.79479 13.6421 9.64207 13.7948 9.4541 13.8906C9.24024 13.9996 8.96018 14 8.40039 14H7.59961C7.03982 14 6.75976 13.9996 6.5459 13.8906C6.35793 13.7948 6.20522 13.6421 6.10938 13.4541C6.00041 13.2402 6 12.9602 6 12.4004V11.5996C6 11.0398 6.00041 10.7598 6.10938 10.5459C6.20522 10.3579 6.35793 10.2052 6.5459 10.1094C6.75976 10.0004 7.03982 10 7.59961 10H8.40039Z" fill="oklch(0.3523 0 0 / 1)" class="wd-icon-fill"></path>
</g>
<path d="M18 12C21.3137 12 24 14.6863 24 18C24 21.3137 21.3137 24 18 24C14.6863 24 12 21.3137 12 18C12 14.6863 14.6863 12 18 12ZM17.4961 16.8076L17.3145 16.8545L16.7627 17.0381C16.3697 17.1691 16.1571 17.5943 16.2881 17.9873C16.4191 18.3803 16.8443 18.5929 17.2373 18.4619L17.3145 18.4355L16.6045 20.5645C16.2791 21.5414 17.2086 22.4709 18.1855 22.1455L18.7373 21.9619C19.1303 21.8309 19.3429 21.4057 19.2119 21.0127C19.0809 20.6197 18.6557 20.4071 18.2627 20.5381L18.1846 20.5635L18.8955 18.4355C19.2006 17.5194 18.4022 16.6447 17.4961 16.8076ZM17.9961 14C17.4438 14 16.9961 14.4477 16.9961 15C16.9961 15.5523 17.4438 16 17.9961 16C18.5484 16 18.9961 15.5523 18.9961 15C18.9961 14.4477 18.5484 14 17.9961 14Z" fill="oklch(0.3523 0 0 / 1)" class="wd-icon-accent"></path>
</svg>