<svg width="24" height="24" viewBox="0 0 24 24" xmlns="http://www.w3.org/2000/svg" class="wd-icon wd-icon-reorder" role="presentation">
<g>
<path d="M16.4807 14.042C16.6945 13.8672 17.01 13.8985 17.1848 14.1123L17.8176 14.8867C17.992 15.1004 17.9598 15.4161 17.7463 15.5908L12.633 19.7744C12.2649 20.0752 11.7356 20.0751 11.3674 19.7744L8.23851 17.2148C8.23572 17.2127 8.23249 17.2103 8.22972 17.208L6.25414 15.5908C6.04048 15.4159 6.00899 15.1004 6.18382 14.8867L6.81664 14.1133C6.99146 13.8997 7.30607 13.8683 7.51976 14.043L8.50707 14.8516L8.50804 14.8506L12.0002 17.708L16.4807 14.042Z" fill="oklch(0.3523 0 0 / 1)" class="wd-icon-fill"></path>
<path d="M11.3674 4.22559C11.7356 3.92483 12.2649 3.92478 12.633 4.22559L17.7463 8.40918C17.9597 8.58399 17.9921 8.89963 17.8176 9.11329L17.1848 9.8877C17.0101 10.1015 16.6945 10.1327 16.4807 9.95801L12.0002 6.292L8.50804 9.14942L8.50707 9.14844L7.51976 9.95704C7.30611 10.1317 6.99148 10.1001 6.81664 9.88672L6.18382 9.11329C6.00899 8.8996 6.04048 8.58407 6.25414 8.40918L8.22972 6.792C8.23252 6.78971 8.23569 6.78737 8.23851 6.78516L11.3674 4.22559Z" fill="oklch(0.3523 0 0 / 1)" class="wd-icon-fill"></path>
</g>
</svg>