<svg width="24" height="24" viewBox="0 0 24 24" xmlns="http://www.w3.org/2000/svg" class="wd-icon wd-icon-face-very-happy" role="presentation">
<path d="M22 12C22 17.5228 17.5228 22 12 22C6.47715 22 2 17.5228 2 12C2 6.47715 6.47715 2 12 2C17.5228 2 22 6.47715 22 12Z" fill="transparent" class="wd-icon-background"></path>
<path d="M12 1C18.0751 1 23 5.92487 23 12C23 18.0751 18.0751 23 12 23C5.92487 23 1 18.0751 1 12C1 5.92487 5.92487 1 12 1ZM12 3C7.02944 3 3 7.02944 3 12C3 16.9706 7.02944 21 12 21C16.9706 21 21 16.9706 21 12C21 7.02944 16.9706 3 12 3Z" fill="oklch(0.3523 0 0 / 1)" class="wd-icon-fill"></path>
<g>
<path d="M16.5899 13.1855C16.977 13.0171 17.4286 13.1104 17.7178 13.418C18.0067 13.7256 18.0719 14.1818 17.8799 14.5576C16.8252 16.6223 14.5638 17.9999 12.0001 18C9.43636 18 7.17403 16.6227 6.1192 14.5576C5.92713 14.1815 5.99198 13.7246 6.28131 13.417C6.57063 13.1097 7.02227 13.017 7.40924 13.1855C8.52515 13.6717 10.1496 14 12.0001 14C13.8499 14 15.474 13.6716 16.5899 13.1855Z" fill="oklch(0.3523 0 0 / 1)" class="wd-icon-accent"></path>
<path d="M8.50006 8C9.11436 8.00003 9.71806 8.16259 10.2501 8.46973C10.6371 8.69323 10.9766 8.98797 11.251 9.33691C11.4217 9.55397 11.3369 9.86196 11.0977 10L10.2315 10.501C9.99243 10.6387 9.69012 10.5479 9.48151 10.3672C9.40998 10.3052 9.33264 10.2499 9.25006 10.2021C9.02208 10.0705 8.76331 10.001 8.50006 10.001C8.23682 10.001 7.97804 10.0705 7.75006 10.2021C7.66743 10.2499 7.58925 10.3052 7.51764 10.3672C7.30895 10.5478 7.00663 10.6389 6.76764 10.501L5.90143 10C5.66258 9.86182 5.57844 9.55384 5.74909 9.33691C6.02363 8.98794 6.36308 8.69322 6.75006 8.46973C7.28206 8.16259 7.88577 8.00003 8.50006 8Z" fill="oklch(0.3523 0 0 / 1)" class="wd-icon-accent"></path>
<path d="M15.5001 8.00098C16.1143 8.00101 16.7181 8.16261 17.2501 8.46973C17.6371 8.69323 17.9766 8.98796 18.251 9.33691C18.4217 9.55397 18.3369 9.86196 18.0977 10L17.2315 10.501C16.9924 10.6387 16.6901 10.5479 16.4815 10.3672C16.41 10.3052 16.3327 10.2499 16.2501 10.2021C16.0221 10.0705 15.7633 10.001 15.5001 10.001C15.2368 10.001 14.978 10.0705 14.7501 10.2021C14.6674 10.2499 14.5892 10.3052 14.5176 10.3672C14.309 10.5478 14.0066 10.6389 13.7676 10.501L12.9014 10C12.6626 9.86182 12.5784 9.55384 12.7491 9.33691C13.0236 8.98793 13.363 8.69323 13.7501 8.46973C14.2821 8.1626 14.8858 8.00101 15.5001 8.00098Z" fill="oklch(0.3523 0 0 / 1)" class="wd-icon-accent"></path>
</g>
</svg>