<svg width="24" height="24" viewBox="0 0 24 24" xmlns="http://www.w3.org/2000/svg" class="wd-icon wd-icon-drill-down" role="presentation">
<g>
<path d="M9.5 13C10.3284 13 11 13.6716 11 14.5V19.5C11 20.3284 10.3284 21 9.5 21H4.5C3.67157 21 3 20.3284 3 19.5V14.5C3 13.6716 3.67157 13 4.5 13H9.5ZM5 19H9V15H5V19Z" fill="oklch(0.3523 0 0 / 1)" class="wd-icon-fill"></path>
<path d="M18.5 5C18.7759 5.00021 18.9998 5.22412 19 5.5V16.8906L21.4795 14.8613C21.6931 14.6867 22.0077 14.7182 22.1826 14.9316L22.8164 15.7061C22.9907 15.9197 22.9595 16.2344 22.7461 16.4092L18.6328 19.7754C18.4025 19.9633 18.1085 20.0337 17.8311 19.9863C17.6649 19.9581 17.5041 19.8871 17.3662 19.7744L13.2539 16.4082C13.0406 16.2334 13.0092 15.9187 13.1836 15.7051L13.5 15.3184L13.8154 14.9316C13.9902 14.7178 14.3057 14.6865 14.5195 14.8613L17 16.8906V5.5C17.0002 5.22412 17.2241 5.00021 17.5 5H18.5Z" fill="oklch(0.3523 0 0 / 1)" class="wd-icon-fill"></path>
<path d="M9.5 3C10.3284 3 11 3.67157 11 4.5V9.5C11 10.3284 10.3284 11 9.5 11H4.5C3.67157 11 3 10.3284 3 9.5V4.5C3 3.67157 3.67157 3 4.5 3H9.5Z" fill="oklch(0.3523 0 0 / 1)" class="wd-icon-fill"></path>
</g>
</svg>