<svg width="24" height="24" viewBox="0 0 24 24" xmlns="http://www.w3.org/2000/svg" class="wd-icon wd-icon-money" role="presentation">
<g>
<path d="M12 8C12.937 8 13.7057 8.54979 14.208 9.27539C14.7122 10.0039 15 10.9695 15 12C15 13.0305 14.7122 13.9961 14.208 14.7246C13.7057 15.4502 12.937 16 12 16C11.063 16 10.2943 15.4502 9.792 14.7246C9.28781 13.9961 9 13.0305 9 12C9.00001 10.9695 9.28781 10.0039 9.792 9.27539C10.2943 8.54978 11.063 8.00001 12 8ZM12 9.5C11.6944 9.50001 11.3374 9.67826 11.0254 10.1289C10.7155 10.5766 10.5 11.2359 10.5 12C10.5 12.7641 10.7155 13.4234 11.0254 13.8711C11.3374 14.3218 11.6944 14.5 12 14.5C12.3056 14.5 12.6626 14.3218 12.9746 13.8711C13.2845 13.4234 13.5 12.7641 13.5 12C13.5 11.2359 13.2845 10.5766 12.9746 10.1289C12.6626 9.67826 12.3056 9.5 12 9.5Z" fill="oklch(0.3523 0 0 / 1)" class="wd-icon-fill"></path>
<path d="M18.7998 5C19.3434 5 19.8116 4.99893 20.1953 5.03028C20.5906 5.06259 20.984 5.1344 21.3623 5.32715C21.9265 5.61473 22.3853 6.07348 22.6729 6.6377C22.8656 7.016 22.9374 7.40944 22.9697 7.80469C23.0011 8.18836 23 8.65665 23 9.2002V14.7998C23 15.3434 23.0011 15.8116 22.9697 16.1953C22.9374 16.5906 22.8656 16.984 22.6729 17.3623C22.3853 17.9265 21.9265 18.3853 21.3623 18.6729C20.984 18.8656 20.5906 18.9374 20.1953 18.9697C19.8116 19.0011 19.3434 19 18.7998 19H5.2002C4.65665 19 4.18836 19.0011 3.80469 18.9697C3.40944 18.9374 3.016 18.8656 2.6377 18.6729C2.07348 18.3853 1.61473 17.9265 1.32715 17.3623C1.1344 16.984 1.06259 16.5906 1.03028 16.1953C0.998931 15.8116 1 15.3434 1 14.7998V9.2002C1 8.65665 0.998931 8.18836 1.03028 7.80469C1.06259 7.40944 1.1344 7.016 1.32715 6.6377C1.61473 6.07348 2.07348 5.61473 2.6377 5.32715C3.016 5.1344 3.40944 5.06259 3.80469 5.03028C4.18836 4.99893 4.65665 5 5.2002 5H18.7998ZM3 14.7998C3 15.3764 3.00127 15.7489 3.02442 16.0322C3.04661 16.3038 3.08419 16.4047 3.10938 16.4541C3.20522 16.6421 3.35794 16.7948 3.5459 16.8906C3.59534 16.9158 3.69619 16.9534 3.96778 16.9756C4.25111 16.9987 4.62365 17 5.2002 17H5.5C5.5 15.6193 4.38071 14.5 3 14.5V14.7998ZM7 7C7 9.20914 5.20914 11 3 11V13C5.20914 13 7 14.7909 7 17H17C17 14.7909 18.7909 13 21 13V11C18.7909 11 17 9.20914 17 7H7ZM21 14.5C19.6193 14.5 18.5 15.6193 18.5 17H18.7998C19.3764 17 19.7489 16.9987 20.0322 16.9756C20.3038 16.9534 20.4047 16.9158 20.4541 16.8906C20.6421 16.7948 20.7948 16.6421 20.8906 16.4541C20.9158 16.4047 20.9534 16.3038 20.9756 16.0322C20.9987 15.7489 21 15.3764 21 14.7998V14.5ZM18.5 7C18.5 8.38072 19.6193 9.5 21 9.5V9.2002C21 8.62365 20.9987 8.25111 20.9756 7.96778C20.9534 7.69619 20.9158 7.59534 20.8906 7.5459C20.7948 7.35794 20.6421 7.20522 20.4541 7.10938C20.4047 7.08419 20.3038 7.04661 20.0322 7.02442C19.7489 7.00127 19.3764 7 18.7998 7H18.5ZM5.2002 7C4.62365 7 4.25111 7.00127 3.96778 7.02442C3.69619 7.04662 3.59534 7.08419 3.5459 7.10938C3.35793 7.20522 3.20522 7.35793 3.10938 7.5459C3.08419 7.59534 3.04662 7.69619 3.02442 7.96778C3.00127 8.25111 3 8.62365 3 9.2002V9.5C4.38072 9.5 5.5 8.38072 5.5 7H5.2002Z" fill="oklch(0.3523 0 0 / 1)" class="wd-icon-fill"></path>
</g>
</svg>