<svg width="24" height="24" viewBox="0 0 24 24" xmlns="http://www.w3.org/2000/svg" class="wd-icon wd-icon-data-server" role="presentation">
<g>
<path d="M20 15.7998C20 16.3764 19.9987 16.7489 19.9756 17.0322C19.9534 17.3038 19.9158 17.4047 19.8906 17.4541C19.7948 17.6421 19.6421 17.7948 19.4541 17.8906C19.4047 17.9158 19.3038 17.9534 19.0322 17.9756C18.7489 17.9987 18.3764 18 17.7998 18H6.2002C5.62364 18 5.25111 17.9987 4.96777 17.9756C4.69619 17.9534 4.59534 17.9158 4.5459 17.8906C4.35793 17.7948 4.20521 17.6421 4.10938 17.4541C4.08419 17.4047 4.04661 17.3038 4.02441 17.0322C4.00126 16.7489 4 16.3764 4 15.7998V12.75H20V15.7998ZM6.50098 14.749C6.0869 14.7485 5.75071 15.0839 5.75 15.498C5.74946 15.9121 6.08491 16.2483 6.49902 16.249L7.49902 16.251C7.91309 16.2515 8.24929 15.9161 8.25 15.502C8.25067 15.0878 7.91517 14.7517 7.50098 14.751L6.50098 14.749Z" fill="transparent" class="wd-icon-background"></path>
<path d="M17.7998 6C18.3764 6 18.7489 6.00126 19.0322 6.02441C19.3038 6.04661 19.4047 6.08419 19.4541 6.10938C19.6421 6.20521 19.7948 6.35793 19.8906 6.5459C19.9158 6.59534 19.9534 6.69619 19.9756 6.96777C19.9987 7.25111 20 7.62364 20 8.2002V11.25H4V8.2002C4 7.62364 4.00126 7.25111 4.02441 6.96777C4.04661 6.69619 4.08419 6.59534 4.10938 6.5459C4.20522 6.35793 4.35793 6.20521 4.5459 6.10938C4.59534 6.08419 4.69619 6.04661 4.96777 6.02441C5.25111 6.00126 5.62364 6 6.2002 6H17.7998ZM6.50684 7.74512C6.09291 7.74457 5.7568 8.07925 5.75586 8.49316C5.75515 8.90738 6.09067 9.24441 6.50488 9.24512L7.50488 9.24707C7.91889 9.24761 8.25505 8.91207 8.25586 8.49805C8.25657 8.08383 7.92105 7.74778 7.50684 7.74707L6.50684 7.74512Z" fill="transparent" class="wd-icon-background"></path>
</g>
<path d="M17.7998 4C18.3433 4 18.8117 3.99893 19.1953 4.03028C19.5906 4.06259 19.984 4.13441 20.3623 4.32715C20.9265 4.61472 21.3853 5.07349 21.6729 5.6377C21.8656 6.01599 21.9374 6.40945 21.9697 6.80469C22.0011 7.18836 22 7.65666 22 8.2002V15.7998C22 16.3433 22.0011 16.8117 21.9697 17.1953C21.9374 17.5906 21.8656 17.984 21.6729 18.3623C21.3853 18.9265 20.9265 19.3853 20.3623 19.6729C19.984 19.8656 19.5906 19.9374 19.1953 19.9697C18.8116 20.0011 18.3433 20 17.7998 20H6.2002C5.65666 20 5.18836 20.0011 4.80469 19.9697C4.40944 19.9374 4.01599 19.8656 3.6377 19.6729C3.07349 19.3853 2.61472 18.9265 2.32715 18.3623C2.13441 17.984 2.06259 17.5906 2.03028 17.1953C1.99893 16.8117 2 16.3433 2 15.7998V8.2002C2 7.65666 1.99893 7.18836 2.03028 6.80469C2.06259 6.40944 2.13441 6.01599 2.32715 5.6377C2.61473 5.07349 3.07349 4.61473 3.6377 4.32715C4.01599 4.1344 4.40944 4.06259 4.80469 4.03028C5.18836 3.99893 5.65666 4 6.2002 4H17.7998ZM4 12.75V15.7998C4 16.3763 4.00127 16.7489 4.02442 17.0322C4.04661 17.3038 4.08419 17.4047 4.10938 17.4541C4.20521 17.6421 4.35795 17.7948 4.5459 17.8906C4.59534 17.9158 4.69621 17.9534 4.96778 17.9756C5.25111 17.9987 5.62366 18 6.2002 18H17.7998C18.3763 18 18.7489 17.9987 19.0322 17.9756C19.3038 17.9534 19.4047 17.9158 19.4541 17.8906C19.6421 17.7948 19.7948 17.6421 19.8906 17.4541C19.9158 17.4047 19.9534 17.3038 19.9756 17.0322C19.9987 16.7489 20 16.3763 20 15.7998V12.75H4ZM6.2002 6C5.62366 6 5.25111 6.00127 4.96778 6.02442C4.69621 6.04662 4.59534 6.08419 4.5459 6.10938C4.35794 6.20522 4.20522 6.35794 4.10938 6.5459C4.08419 6.59534 4.04662 6.69621 4.02442 6.96778C4.00127 7.25111 4 7.62366 4 8.2002V11.25H20V8.2002C20 7.62366 19.9987 7.25111 19.9756 6.96778C19.9534 6.69622 19.9158 6.59534 19.8906 6.5459C19.7948 6.35795 19.6421 6.20521 19.4541 6.10938C19.4047 6.08419 19.3038 6.04661 19.0322 6.02442C18.7489 6.00127 18.3763 6 17.7998 6H6.2002Z" fill="oklch(0.3523 0 0 / 1)" class="wd-icon-fill"></path>
<g>
<path d="M7.50098 14.751C7.91509 14.7517 8.25054 15.0879 8.25 15.502C8.24929 15.9161 7.9131 16.2515 7.49902 16.251L6.49902 16.249C6.08483 16.2483 5.74933 15.9122 5.75 15.498C5.75071 15.0839 6.08691 14.7485 6.50098 14.749L7.50098 14.751Z" fill="oklch(0.3523 0 0 / 1)" class="wd-icon-accent"></path>
<path d="M7.50684 7.74707C7.92103 7.74778 8.25653 8.08387 8.25586 8.49805C8.25515 8.91216 7.91896 9.24761 7.50488 9.24707L6.50488 9.24512C6.09077 9.24441 5.75532 8.90821 5.75586 8.49414C5.75657 8.08003 6.09277 7.74458 6.50684 7.74512L7.50684 7.74707Z" fill="oklch(0.3523 0 0 / 1)" class="wd-icon-accent"></path>
</g>
</svg>