<svg width="24" height="24" viewBox="0 0 24 24" xmlns="http://www.w3.org/2000/svg" class="wd-icon wd-icon-notifications-active" role="presentation">
<path d="M12.9932 4.59082C13.5744 4.69706 14.124 4.89346 14.626 5.16699C14.2335 5.67416 13.998 6.30908 13.998 7C13.998 8.65685 15.3412 10 16.998 10C17.1678 10 17.3341 9.98509 17.4961 9.95801C17.4962 9.972 17.498 9.98599 17.498 10V12.1348C17.1994 12.3077 16.998 12.63 16.998 13V13.5947C16.9981 14.0843 17.101 14.5683 17.2998 15.0156L17.959 16.5H6.03711L7.24609 13.7793C7.41226 13.4053 7.49805 13.0001 7.49805 12.5908V10C7.49805 7.51472 9.51277 5.5 11.998 5.5C12.5197 5.5 12.9472 5.10051 12.9932 4.59082Z" fill="transparent" class="wd-icon-background"></path>
<path d="M11.9978 3.5C12.55 3.50012 12.9978 3.94779 12.9978 4.5C12.9978 5.05221 12.55 5.49988 11.9978 5.5C9.51254 5.5 7.49782 7.51472 7.49782 10V12.5908C7.49782 13.0001 7.41201 13.4053 7.24586 13.7793L6.03688 16.5H17.9588L17.2996 15.0156C17.1008 14.5683 16.9979 14.0843 16.9978 13.5947V13C16.9978 12.4477 17.4455 12 17.9978 12C18.55 12.0001 18.9978 12.4478 18.9978 13V13.5947C18.9979 13.8045 19.0415 14.0124 19.1267 14.2041L19.4119 14.8438L19.7869 15.6875C20.3746 17.01 19.4059 18.4998 17.9588 18.5H15.9656C15.7195 20.473 14.0375 21.9999 11.9978 22C9.95807 22 8.27618 20.4731 8.03004 18.5H6.03688C4.58956 18.5 3.62094 17.0101 4.20876 15.6875L5.41774 12.9678C5.47036 12.8493 5.49782 12.7204 5.49782 12.5908V10C5.49782 6.41015 8.40797 3.5 11.9978 3.5ZM10.0632 18.5C10.2855 19.3623 11.0661 20 11.9978 20C12.9294 19.9999 13.7102 19.3622 13.9324 18.5H10.0632Z" fill="oklch(0.3523 0 0 / 1)" class="wd-icon-fill"></path>
<path d="M16.998 4C18.6549 4 19.998 5.34315 19.998 7C19.998 8.65685 18.6549 10 16.998 10C15.3412 10 13.998 8.65685 13.998 7C13.998 5.34315 15.3412 4 16.998 4Z" fill="oklch(0.3523 0 0 / 1)" class="wd-icon-accent"></path>
</svg>