<svg width="24" height="24" viewBox="0 0 24 24" xmlns="http://www.w3.org/2000/svg" class="wd-icon wd-icon-endpoints" role="presentation">
<g>
<path d="M12 18C12.5523 18 13 18.4477 13 19C13 19.5523 12.5523 20 12 20C11.4477 20 11 19.5523 11 19C11 18.4477 11.4477 18 12 18Z" fill="transparent" class="wd-icon-background"></path>
<path d="M17 11C17.5523 11 18 11.4477 18 12C18 12.5523 17.5523 13 17 13C16.4477 13 16 12.5523 16 12C16 11.4477 16.4477 11 17 11Z" fill="transparent" class="wd-icon-background"></path>
<path d="M17 4C17.5523 4 18 4.44772 18 5C18 5.55228 17.5523 6 17 6C16.4477 6 16 5.55228 16 5C16 4.44772 16.4477 4 17 4Z" fill="transparent" class="wd-icon-background"></path>
</g>
<path d="M17 2C18.6569 2 20 3.34315 20 5C20 6.65685 18.6569 8 17 8C15.5135 8 14.2801 6.91882 14.042 5.5H7.9502C7.37777 5.5 6.99315 5.50024 6.69727 5.52441C6.41027 5.54788 6.27316 5.59059 6.18262 5.63672C5.94751 5.75655 5.75655 5.9475 5.63672 6.18262C5.59059 6.27316 5.54788 6.41027 5.52442 6.69727C5.50024 6.99314 5.5 7.37777 5.5 7.9502V11.25H14.0977C14.431 9.95647 15.6024 9 17 9C18.6569 9 20 10.3431 20 12C20 13.6569 18.6569 15 17 15C15.6024 15 14.431 14.0435 14.0977 12.75H5.5V16.0498C5.5 16.6222 5.50024 17.0069 5.52442 17.3027C5.54788 17.5897 5.59059 17.7268 5.63672 17.8174C5.75655 18.0525 5.94751 18.2435 6.18262 18.3633C6.27316 18.4094 6.41027 18.4521 6.69727 18.4756C6.99315 18.4998 7.37777 18.5 7.9502 18.5H9.042C9.28007 17.0812 10.5135 16 12 16C13.6569 16 15 17.3431 15 19C15 20.6569 13.6569 22 12 22C10.6942 22 9.58595 21.1647 9.17383 20H7.9502C7.40252 20 6.94633 20.001 6.5752 19.9707C6.19547 19.9397 5.8391 19.8719 5.50196 19.7002C4.98451 19.4365 4.56346 19.0155 4.29981 18.498C4.1281 18.1609 4.06033 17.8045 4.0293 17.4248C3.99898 17.0537 4 16.5975 4 16.0498V7.9502C4 7.40252 3.99898 6.94632 4.0293 6.5752C4.06033 6.19546 4.1281 5.8391 4.29981 5.50195C4.56346 4.98451 4.98451 4.56346 5.50196 4.2998C5.8391 4.12809 6.19547 4.06033 6.5752 4.0293C6.94633 3.99897 7.40252 4 7.9502 4H14.1738C14.5859 2.83532 15.6942 2 17 2ZM12 18C11.4477 18 11 18.4477 11 19C11 19.5523 11.4477 20 12 20C12.5523 20 13 19.5523 13 19C13 18.4477 12.5523 18 12 18ZM17 11C16.4477 11 16 11.4477 16 12C16 12.5523 16.4477 13 17 13C17.5523 13 18 12.5523 18 12C18 11.4477 17.5523 11 17 11ZM17 4C16.4477 4 16 4.44772 16 5C16 5.55228 16.4477 6 17 6C17.5523 6 18 5.55228 18 5C18 4.44772 17.5523 4 17 4Z" fill="oklch(0.3523 0 0 / 1)" class="wd-icon-fill"></path>
</svg>