<svg width="24" height="24" viewBox="0 0 24 24" xmlns="http://www.w3.org/2000/svg" class="wd-icon wd-icon-reorder" role="presentation">
<g>
<path d="M15.2929 14.2929C15.6834 13.9024 16.3164 13.9023 16.7069 14.2929C17.0973 14.6834 17.0974 15.3164 16.7069 15.7069L12.7069 19.7069C12.3164 20.0974 11.6834 20.0973 11.2929 19.7069L7.29286 15.7069C6.9024 15.3164 6.90236 14.6834 7.29286 14.2929C7.68337 13.9025 8.31642 13.9024 8.70692 14.2929L11.9999 17.5858L15.2929 14.2929Z" fill="oklch(0.3523 0 0 / 1)" class="wd-icon-fill"></path>
<path d="M11.2929 4.29286C11.6834 3.9024 12.3164 3.90236 12.7069 4.29286L16.7069 8.29286C17.0973 8.68337 17.0973 9.31644 16.7069 9.70692C16.3164 10.0974 15.6834 10.0973 15.2929 9.70692L11.9999 6.41395L8.70692 9.70692C8.31646 10.0973 7.68337 10.0972 7.29286 9.70692C6.90237 9.31643 6.90243 8.68339 7.29286 8.29286L11.2929 4.29286Z" fill="oklch(0.3523 0 0 / 1)" class="wd-icon-fill"></path>
</g>
</svg>