<svg width="24" height="24" viewBox="0 0 24 24" xmlns="http://www.w3.org/2000/svg" class="wd-icon wd-icon-laurel-wreath" role="presentation">
<path d="M7.35739 4.60601C7.83454 4.28791 9.18475 3.71505 9.78806 4.16753C10.2809 4.53765 9.80588 5.36644 9.44235 5.68121C8.94041 6.11581 8.11307 6.67654 6.99411 6.89996C6.99736 6.93274 6.99997 6.96593 6.99997 6.99956C6.99997 7.5932 7.04864 8.18419 7.14353 8.76714C7.25047 8.64661 7.35467 8.53266 7.4404 8.43511C7.81896 8.00436 8.97491 7.10146 9.67478 7.38238C10.2469 7.6122 10.0021 8.53596 9.73239 8.93413C9.35756 9.48743 8.6975 10.2491 7.66306 10.7544C7.74462 10.979 7.83139 11.2021 7.92771 11.4214C8.12892 11.8798 8.36367 12.3209 8.62399 12.7457C8.72024 12.5537 8.81703 12.3642 8.89255 12.2115C9.14681 11.6974 10.0296 10.5266 10.7783 10.6168C11.3903 10.6906 11.3936 11.6455 11.2363 12.1002C11.0245 12.7113 10.6051 13.5811 9.79099 14.3218C10.0321 14.5922 10.287 14.8511 10.5547 15.0972C11.0046 15.5109 11.4883 15.8836 11.998 16.2154C12.508 15.8834 12.9931 15.5121 13.4433 15.0982C13.7109 14.8522 13.964 14.592 14.205 14.3218C13.3917 13.5814 12.9734 12.712 12.7617 12.1011C12.6043 11.6468 12.6069 10.6909 13.2187 10.6168C13.9674 10.5265 14.8503 11.6984 15.1045 12.2125C15.18 12.3652 15.2768 12.5546 15.373 12.7466C15.6334 12.3218 15.869 11.8809 16.0703 11.4224C16.1666 11.203 16.2514 10.979 16.333 10.7544C15.2991 10.2491 14.6393 9.48722 14.2646 8.93413C13.995 8.53587 13.7505 7.61228 14.3222 7.38238C15.022 7.10152 16.1778 8.00425 16.5566 8.43511C16.6423 8.53259 16.7456 8.64764 16.8525 8.76812C16.9474 8.18509 16.998 7.59425 16.998 7.00054C16.998 6.96678 16.9987 6.93286 17.0019 6.89996C15.8837 6.67634 15.0564 6.1166 14.5547 5.68218C14.1911 5.36735 13.7166 4.53754 14.2099 4.16753C14.8132 3.71556 16.1622 4.28791 16.6396 4.60601C17.1168 4.92411 17.998 5.50054 17.998 5.50054C17.998 5.50054 18.8783 4.92411 19.3554 4.60601C19.8327 4.2879 21.1828 3.71508 21.7861 4.16753C22.2793 4.53757 21.804 5.36737 21.4404 5.68218C20.9384 6.11675 20.1109 6.67656 18.9922 6.89996C18.9954 6.93291 18.998 6.96673 18.998 7.00054C18.998 7.76152 18.9297 8.51878 18.7978 9.26421C18.9358 9.21823 19.0677 9.17611 19.1797 9.13824C19.7228 8.9545 21.1747 8.75047 21.6406 9.34331C22.0214 9.8284 21.3477 10.5064 20.915 10.7164C20.3251 11.0026 19.397 11.3253 18.2773 11.2623C18.1644 11.5876 18.0402 11.9098 17.9013 12.2261C17.6962 12.6934 17.4624 13.1463 17.205 13.5845C17.2948 13.579 17.3797 13.5748 17.456 13.5699C18.0282 13.533 19.4835 13.7117 19.7802 14.4048C20.0224 14.9718 19.1969 15.4525 18.7246 15.5435C18.0641 15.6706 17.0492 15.7434 15.9521 15.3609C15.594 15.7874 15.2087 16.1922 14.7968 16.5709C14.5404 16.8066 14.2736 17.03 14 17.2437C14.145 17.3003 14.2908 17.3563 14.4384 17.4068C15.8785 17.8996 17.4052 18.0881 18.9218 17.9605C19.4721 17.9144 19.9566 18.3233 20.0029 18.8736C20.0491 19.4238 19.64 19.9072 19.0898 19.9537C17.2974 20.1045 15.4929 19.8817 13.791 19.2994C13.1738 19.0881 12.5749 18.8305 11.999 18.5308C11.4229 18.8306 10.8244 19.089 10.207 19.3003C8.50513 19.8827 6.70061 20.1054 4.90817 19.9546C4.35803 19.9084 3.94912 19.4247 3.99509 18.8746C4.0414 18.3242 4.5258 17.9152 5.07614 17.9615C6.59276 18.089 8.11955 17.9006 9.55954 17.4078C9.70707 17.3573 9.85207 17.3003 9.99704 17.2437C9.72342 17.03 9.45758 16.8056 9.20114 16.5699C8.78914 16.1911 8.40313 15.7866 8.04489 15.3599C6.94809 15.7423 5.93389 15.6705 5.27341 15.5435C4.80112 15.4527 3.97464 14.9719 4.21677 14.4048C4.513 13.7113 5.96868 13.533 6.54099 13.5699C6.61731 13.5748 6.70226 13.579 6.79196 13.5845C6.53451 13.1462 6.30187 12.6926 6.09665 12.2252C5.95777 11.9088 5.83164 11.5876 5.71872 11.2623C4.5996 11.325 3.67168 11.0025 3.082 10.7164C2.64936 10.5064 1.976 9.82838 2.35642 9.34331C2.82203 8.75013 4.27406 8.95448 4.81735 9.13824C4.92903 9.17601 5.06061 9.21835 5.19821 9.26421C5.06627 8.51855 4.99997 7.76078 4.99997 6.99956C4.99997 6.96597 5.00064 6.9327 5.00388 6.89996C3.88558 6.67635 3.05835 6.11564 2.55661 5.68121C2.19303 5.36623 1.71864 4.53746 2.21189 4.16753C2.81515 3.71517 4.16429 4.2879 4.64157 4.60601C5.11872 4.92411 5.99997 5.49956 5.99997 5.49956C6.01532 5.48953 6.88444 4.92131 7.35739 4.60601Z" fill="oklch(0.3523 0 0 / 1)" class="wd-icon-fill"></path>
</svg>