<svg width="24" height="24" viewBox="0 0 24 24" xmlns="http://www.w3.org/2000/svg" class="wd-icon wd-icon-row-clipboard" role="presentation">
<g>
<path d="M17 9.5C17.8284 9.5 18.5 10.1716 18.5 11H20.5C21.3284 11 22 11.6716 22 12.5V21.5C22 22.3284 21.3284 23 20.5 23H13.5C12.6716 23 12 22.3284 12 21.5V12.5C12 11.6716 12.6716 11 13.5 11H15.5C15.5 10.1716 16.1716 9.5 17 9.5ZM14 21H20V13H19V13.5C19 13.7761 18.7761 14 18.5 14H15.5C15.2239 14 15 13.7761 15 13.5V13H14V21Z" fill="oklch(0.3523 0 0 / 1)" class="wd-icon-fill"></path>
<path d="M14.5 3C15.3284 3 16 3.67157 16 4.5V7C16 8.10457 15.1046 9 14 9H4V11H9.5C9.77614 11 10 11.2239 10 11.5V12.5C10 12.7761 9.77614 13 9.5 13H4V15H9.5C9.77614 15 10 15.2239 10 15.5V16.5C10 16.7761 9.77614 17 9.5 17H3.5C2.67157 17 2 16.3284 2 15.5V4.5C2 3.67157 2.67157 3 3.5 3H14.5ZM4 7H14V5H4V7Z" fill="oklch(0.3523 0 0 / 1)" class="wd-icon-fill"></path>
</g>
</svg>