<svg width="24" height="24" viewBox="0 0 24 24" xmlns="http://www.w3.org/2000/svg" class="wd-icon wd-icon-heart-fill" role="presentation">
<path d="M14.1159 4.68022C15.809 3.71969 17.916 3.75002 19.7898 5.21244C21.5207 6.56384 22.3935 8.85584 21.8259 11.1275C21.2277 13.5192 19.6781 15.4398 17.947 17.0347C16.2286 18.6178 14.1956 19.9949 12.5983 21.1929C12.2429 21.4594 11.7546 21.4594 11.3991 21.1929C9.80188 19.9949 7.76898 18.6179 6.0505 17.0347C4.31925 15.4398 2.76981 13.5203 2.17159 11.1285C1.60384 8.85672 2.47663 6.56386 4.20772 5.21244C6.08163 3.75004 8.18915 3.7197 9.88253 4.68022C10.7337 5.16305 11.458 5.88281 11.9997 6.75639C12.5415 5.88314 13.2652 5.16299 14.1159 4.68022Z" fill="oklch(0.3523 0 0 / 1)" class="wd-icon-fill"></path>
</svg>