<svg width="24" height="24" viewBox="0 0 24 24" xmlns="http://www.w3.org/2000/svg" class="wd-icon wd-icon-unpivot" role="presentation">
<g>
<path d="M6.4004 9.00001C6.66379 9.00001 6.92188 8.9989 7.13869 9.01662C7.36719 9.03531 7.63696 9.07958 7.90822 9.21779C8.23745 9.38556 8.51295 9.64087 8.70509 9.95412L8.78224 10.0918L8.86915 10.2949C8.94065 10.4958 8.9694 10.6901 8.98341 10.8613C9.00113 11.0781 9.00001 11.3362 9.00001 11.5996V18.4004C9.00001 18.6638 9.00113 18.9219 8.98341 19.1387C8.96472 19.3672 8.92045 19.637 8.78224 19.9082C8.59051 20.2845 8.28447 20.5905 7.90822 20.7822C7.63696 20.9205 7.36719 20.9647 7.13869 20.9834C6.92188 21.0011 6.66379 21 6.4004 21H5.59962C5.33624 21 5.07815 21.0011 4.86134 20.9834C4.63284 20.9647 4.36307 20.9205 4.09181 20.7822C3.71557 20.5905 3.40952 20.2845 3.21779 19.9082C3.07958 19.637 3.03531 19.3672 3.01662 19.1387C2.9989 18.9219 3.00001 18.6638 3.00001 18.4004V11.5996C3.00001 11.3362 2.9989 11.0781 3.01662 10.8613C3.03531 10.6328 3.07958 10.3631 3.21779 10.0918C3.40952 9.71556 3.71556 9.40952 4.09181 9.21779C4.36307 9.07958 4.63284 9.03531 4.86134 9.01662C5.07815 8.9989 5.33624 9.00001 5.59962 9.00001H6.4004ZM5.59962 11C5.30335 11 5.14096 11.0012 5.02443 11.0108C5.01997 11.0111 5.01573 11.0114 5.01173 11.0117C5.01136 11.0157 5.01112 11.02 5.01076 11.0244C5.00124 11.141 5.00001 11.3034 5.00001 11.5996V18.4004C5.00001 18.6967 5.00124 18.8591 5.01076 18.9756C5.01109 18.9797 5.01139 18.9836 5.01173 18.9873C5.01576 18.9877 5.01994 18.9889 5.02443 18.9893C5.14096 18.9988 5.30335 19 5.59962 19H6.4004C6.69667 19 6.85907 18.9988 6.9756 18.9893C6.97973 18.9889 6.98358 18.9877 6.98732 18.9873C6.98766 18.9836 6.98893 18.9797 6.98927 18.9756C6.99879 18.8591 7.00001 18.6967 7.00001 18.4004V11.5996C7.00001 11.3034 6.99879 11.141 6.98927 11.0244C6.9889 11.0199 6.98769 11.0158 6.98732 11.0117C6.98361 11.0114 6.97969 11.0111 6.9756 11.0108C6.85907 11.0012 6.69667 11 6.4004 11H5.59962Z" fill="oklch(0.3523 0 0 / 1)" class="wd-icon-fill"></path>
<path d="M16.5908 10.585C16.7898 10.3007 17.2111 10.3008 17.4102 10.585L19.9492 14.2129C20.1812 14.5443 19.9445 14.9999 19.5401 15H17.9277C17.9101 15.1221 17.8894 15.244 17.8652 15.3652C17.6558 16.4183 17.2073 17.4099 16.5537 18.2617C15.9001 19.1135 15.0586 19.8035 14.0957 20.2783C13.1329 20.753 12.0735 21 11 21C10.4479 20.9999 10.0001 20.5522 10 20C10.0001 19.4479 10.4479 19.0001 11 19C11.7669 19 12.5242 18.8235 13.2119 18.4844C13.8995 18.1452 14.5 17.6522 14.9668 17.044C15.4286 16.4421 15.7477 15.7431 15.8994 15H14.461C14.0566 14.9998 13.819 14.5442 14.0508 14.2129L16.5908 10.585Z" fill="oklch(0.3523 0 0 / 1)" class="wd-icon-fill"></path>
<path d="M18.4004 3.00001C18.6638 3.00001 18.9219 2.9989 19.1387 3.01662C19.3672 3.03531 19.637 3.07958 19.9082 3.21779C20.2374 3.38556 20.5129 3.64087 20.7051 3.95412L20.7822 4.09181L20.8692 4.29494C20.9406 4.49577 20.9694 4.69007 20.9834 4.86134C21.0011 5.07815 21 5.33624 21 5.59962V6.4004C21 6.66379 21.0011 6.92188 20.9834 7.13869C20.9647 7.36719 20.9205 7.63696 20.7822 7.90822C20.5905 8.28447 20.2845 8.59051 19.9082 8.78224C19.637 8.92045 19.3672 8.96472 19.1387 8.98341C18.9219 9.00113 18.6638 9.00001 18.4004 9.00001H11.5996C11.3362 9.00001 11.0781 9.00113 10.8613 8.98341C10.6328 8.96472 10.3631 8.92045 10.0918 8.78224C9.71557 8.59051 9.40952 8.28446 9.21779 7.90822C9.07958 7.63696 9.03531 7.36719 9.01662 7.13869C8.9989 6.92188 9.00001 6.66379 9.00001 6.4004V5.59962C9.00001 5.33624 8.9989 5.07815 9.01662 4.86134C9.03531 4.63284 9.07958 4.36307 9.21779 4.09181C9.40952 3.71556 9.71556 3.40952 10.0918 3.21779C10.3631 3.07958 10.6328 3.03531 10.8613 3.01662C11.0781 2.9989 11.3362 3.00001 11.5996 3.00001H18.4004ZM11.5996 5.00001C11.3034 5.00001 11.141 5.00124 11.0244 5.01076C11.02 5.01112 11.0157 5.01136 11.0117 5.01173C11.0114 5.01573 11.0111 5.01997 11.0108 5.02443C11.0012 5.14096 11 5.30335 11 5.59962V6.4004C11 6.69667 11.0012 6.85907 11.0108 6.9756C11.0111 6.97969 11.0114 6.98361 11.0117 6.98732C11.0158 6.98769 11.0199 6.9889 11.0244 6.98927C11.141 6.99879 11.3034 7.00001 11.5996 7.00001H18.4004C18.6967 7.00001 18.8591 6.99879 18.9756 6.98927C18.9797 6.98893 18.9836 6.98766 18.9873 6.98732C18.9877 6.98358 18.9889 6.97973 18.9893 6.9756C18.9988 6.85907 19 6.69667 19 6.4004V5.59962C19 5.30335 18.9988 5.14096 18.9893 5.02443C18.9889 5.01994 18.9877 5.01576 18.9873 5.01173C18.9836 5.01139 18.9797 5.01109 18.9756 5.01076C18.8591 5.00124 18.6967 5.00001 18.4004 5.00001H11.5996Z" fill="oklch(0.3523 0 0 / 1)" class="wd-icon-fill"></path>
</g>
</svg>