<svg width="24" height="24" viewBox="0 0 24 24" xmlns="http://www.w3.org/2000/svg" class="wd-icon wd-icon-x-circle" role="presentation">
<g>
<path d="M14.043 8.54297C14.4335 8.15251 15.0665 8.15254 15.457 8.54297C15.8474 8.9335 15.8475 9.56656 15.457 9.95703L13.4141 12L15.457 14.043C15.8474 14.4335 15.8475 15.0666 15.457 15.457C15.0666 15.8475 14.4335 15.8474 14.043 15.457L12 13.4141L9.95703 15.457C9.56656 15.8475 8.93349 15.8474 8.54297 15.457C8.15255 15.0665 8.15252 14.4335 8.54297 14.043L10.5859 12L8.54297 9.95703C8.15255 9.56652 8.15252 8.93347 8.54297 8.54297C8.93347 8.1525 9.56651 8.15254 9.95703 8.54297L12 10.5859L14.043 8.54297Z" fill="oklch(0.3523 0 0 / 1)" class="wd-icon-fill"></path>
<path d="M12 2C17.5228 2 22 6.47715 22 12C22 17.5228 17.5228 22 12 22C6.47715 22 2 17.5228 2 12C2 6.47715 6.47715 2 12 2ZM12 4C7.58172 4 4 7.58172 4 12C4 16.4183 7.58172 20 12 20C16.4183 20 20 16.4183 20 12C20 7.58172 16.4183 4 12 4Z" fill="oklch(0.3523 0 0 / 1)" class="wd-icon-fill"></path>
</g>
</svg>