<svg width="24" height="24" viewBox="0 0 24 24" xmlns="http://www.w3.org/2000/svg" class="wd-icon wd-icon-rotate" role="presentation">
<path d="M8.08277 4.48601C10.5309 3.85838 13.2389 3.83921 15.7048 4.4323C18.1615 5.02333 20.2928 6.20293 21.6179 7.83269C22.9668 9.49199 23.3751 11.5048 22.6384 13.4284C21.9699 15.1737 20.4509 16.61 18.4763 17.5817C18.2287 17.7036 17.9327 17.5879 17.8211 17.3356L17.4168 16.4196C17.3055 16.1671 17.4211 15.8735 17.6677 15.7497C19.2873 14.9364 20.3387 13.8398 20.7703 12.7136C21.2225 11.5327 21.0166 10.2637 20.0662 9.09441C19.0913 7.89547 17.3966 6.8962 15.2371 6.37664C13.0869 5.85951 10.7094 5.8763 8.57886 6.42254C6.43851 6.97145 4.78355 7.99229 3.85328 9.19793C2.9483 10.3711 2.77932 11.6387 3.2732 12.82C3.78737 14.049 5.04129 15.2289 6.94898 16.0329C8.41552 16.6508 10.1329 16.985 11.8904 16.9987L9.86109 14.5202C9.68634 14.3064 9.71852 13.9908 9.93238 13.8161L10.3191 13.5007L10.7058 13.1843C10.9195 13.0096 11.2341 13.041 11.4089 13.2546L14.7752 17.3669C14.8877 17.5048 14.9579 17.6654 14.9861 17.8317C14.9956 17.8873 15.0007 17.9435 15.0007 17.9997C15.0008 18.2243 14.9256 18.4494 14.7752 18.6335L11.4089 22.7458C11.2341 22.9594 10.9185 22.9909 10.7048 22.8161L10.3191 22.4997L9.9314 22.1833C9.71771 22.0084 9.68622 21.6929 9.86109 21.4792L11.8904 18.9987C9.88418 18.9851 7.90081 18.6043 6.17164 17.8757C3.94982 16.9392 2.20566 15.4494 1.42847 13.5915C0.631392 11.685 0.968692 9.6633 2.27027 7.97625C3.54675 6.32187 5.64424 5.11134 8.08277 4.48601Z" fill="oklch(0.3523 0 0 / 1)" class="wd-icon-fill"></path>
</svg>