<svg width="24" height="24" viewBox="0 0 24 24" xmlns="http://www.w3.org/2000/svg" class="wd-icon wd-icon-play" role="presentation">
<path d="M7.89844 5.74627C8.22242 5.71325 8.61717 5.94417 9.40625 6.40447L16.6309 10.6183C17.4091 11.0723 17.7985 11.2994 17.9297 11.5949C18.044 11.8528 18.0439 12.1475 17.9297 12.4055C17.7987 12.7012 17.4094 12.9288 16.6309 13.383L9.40625 17.5969C8.61717 18.0571 8.22242 18.2871 7.89844 18.2541C7.61593 18.2252 7.35863 18.0774 7.19141 17.8478C6.99997 17.5846 7 17.1279 7 16.215V7.78631C7 6.87296 6.99974 6.41576 7.19141 6.15252C7.35864 5.92299 7.61592 5.7751 7.89844 5.74627Z" fill="oklch(0.3523 0 0 / 1)" class="wd-icon-fill"></path>
</svg>