<svg width="24" height="24" viewBox="0 0 24 24" xmlns="http://www.w3.org/2000/svg" class="wd-icon wd-icon-shapes" role="presentation">
<path d="M13.8193 1.68147C14.4558 0.861418 15.7576 0.919945 16.2988 1.85725L21.4326 10.7508C22.0098 11.7508 21.2885 13.0009 20.1338 13.0008L17.1953 12.9998C17.7064 13.8823 18 14.9065 18 15.9998C17.9999 19.3135 15.3137 21.9998 12 21.9998C8.68635 21.9998 6.00009 19.3135 6 15.9998H3.5C2.67163 15.9998 2.00009 15.3282 2 14.4998V6.49983C2 5.6714 2.67157 4.99983 3.5 4.99983H11.5C11.6247 4.99983 11.7457 5.01502 11.8613 5.04377L13.7012 1.85725L13.8193 1.68147ZM13 14.4998C12.9999 15.3282 12.3284 15.9998 11.5 15.9998H8C8.00009 18.2089 9.79092 19.9998 12 19.9998C14.2091 19.9998 15.9999 18.2089 16 15.9998C16 14.804 15.4733 13.7328 14.6416 12.9998H13V14.4998ZM4 13.9998H11V12.9998H9.86621C8.71162 12.9997 7.9902 11.7498 8.56738 10.7498L10.7324 6.99983H4V13.9998ZM10.7314 10.9998H19.2676L14.999 3.60627L10.7314 10.9998Z" fill="oklch(0.3523 0 0 / 1)" class="wd-icon-fill"></path>
</svg>