<svg width="24" height="24" viewBox="0 0 24 24" xmlns="http://www.w3.org/2000/svg" class="wd-icon wd-icon-fast-forward-15" role="presentation">
<g>
<path d="M11.9998 2C14.3131 2 16.5552 2.80207 18.3435 4.26953C20.1318 5.73716 21.356 7.77987 21.8074 10.0488C22.2588 12.3179 21.9097 14.6735 20.8191 16.7139C19.7285 18.7541 17.9643 20.3539 15.8269 21.2393C13.6896 22.1245 11.3103 22.2409 9.09647 21.5693C6.88288 20.8977 4.97054 19.4791 3.68534 17.5557C2.40006 15.632 1.82089 13.3219 2.04764 11.0195C2.24351 9.03141 3.03046 7.15547 4.29471 5.62695L3.24491 4.57715C2.95893 4.29117 3.11332 3.80091 3.51151 3.73047L7.87284 2.96094C8.21454 2.90064 8.51198 3.19837 8.45194 3.54004L7.68241 7.90137C7.61211 8.29972 7.12274 8.454 6.83671 8.16797L5.71756 7.04883C4.7756 8.24413 4.18832 9.6884 4.03788 11.2158C3.85648 13.0577 4.32022 14.9055 5.34842 16.4443C6.37663 17.9831 7.90653 19.118 9.67753 19.6553C11.4486 20.1925 13.3514 20.0988 15.0613 19.3906C16.7711 18.6824 18.183 17.4036 19.0555 15.7715C19.9279 14.1393 20.2075 12.2547 19.8465 10.4395C19.4854 8.6242 18.5057 6.98958 17.075 5.81543C15.6443 4.64147 13.8505 4 11.9998 4C11.4476 3.99984 10.9998 3.55219 10.9998 3C10.9998 2.44781 11.4476 2.00016 11.9998 2Z" fill="oklch(0.3523 0 0 / 1)" class="wd-icon-fill"></path>
<path d="M15.2283 8.6377C15.5109 8.6377 15.7397 8.86693 15.74 9.14941C15.74 9.43218 15.5111 9.66211 15.2283 9.66211H13.0662L12.9236 11.2422C13.0213 11.1716 13.1283 11.1112 13.243 11.0605C13.4649 10.9626 13.7138 10.9151 13.9861 10.915C14.3949 10.915 14.7579 11.0061 15.0682 11.1934C15.3822 11.3733 15.6216 11.631 15.7879 11.9619C15.9605 12.288 16.0466 12.6569 16.0467 13.0645C16.0467 13.4424 15.977 13.7945 15.8367 14.1182L15.7713 14.2559C15.5867 14.6121 15.3217 14.8966 14.9783 15.1064C14.6328 15.3174 14.2378 15.4218 13.7976 15.4219C13.3573 15.4218 12.9654 15.3438 12.6277 15.1846C12.2971 15.0254 12.0295 14.7977 11.8308 14.5029L11.8299 14.502C11.7283 14.3478 11.6479 14.1791 11.5887 13.999C11.4674 13.6284 11.7853 13.3179 12.1307 13.3174C12.4472 13.3174 12.6762 13.5622 12.782 13.8135C12.8378 13.9463 12.9165 14.0586 13.0164 14.1504L13.0896 14.209C13.2682 14.3384 13.4958 14.4061 13.7791 14.4062C14.0039 14.4062 14.1888 14.3523 14.3387 14.249L14.3396 14.248C14.4981 14.1424 14.6215 13.9932 14.7088 13.7969C14.7965 13.5993 14.8426 13.3707 14.8426 13.1094C14.8425 12.7233 14.7433 12.431 14.5584 12.2197L14.5564 12.2178C14.3806 12.0061 14.1271 11.8936 13.7791 11.8936C13.5893 11.8937 13.407 11.937 13.2322 12.0244C13.1449 12.0696 13.064 12.1229 12.99 12.1836C12.8306 12.3145 12.6189 12.4165 12.3875 12.3916C12.021 12.3518 11.7523 12.0265 11.784 11.6592L11.9998 9.16309C12.0257 8.86632 12.2742 8.63813 12.5721 8.6377H15.2283Z" fill="oklch(0.3523 0 0 / 1)" class="wd-icon-fill"></path>
<path d="M9.33671 8.62988C9.70611 8.62988 10.0056 8.92944 10.0057 9.29883V14.668C10.0056 15.0003 9.73642 15.2694 9.40409 15.2695C9.07198 15.2691 8.8016 15.0002 8.80155 14.668V10.1455L8.4246 10.4248C8.09275 10.6699 7.62284 10.4333 7.62284 10.0205C7.62301 9.86477 7.69578 9.71715 7.81913 9.62207L8.9285 8.76855C9.04521 8.67878 9.18948 8.63008 9.33671 8.62988Z" fill="oklch(0.3523 0 0 / 1)" class="wd-icon-fill"></path>
</g>
</svg>