<svg width="24" height="24" viewBox="0 0 24 24" xmlns="http://www.w3.org/2000/svg" class="wd-icon wd-icon-calendar-day-19" role="presentation">
<g>
<path d="M13.8897 10.4092C14.4011 10.4092 14.8556 10.5375 15.2393 10.8047C15.628 11.0711 15.9164 11.4559 16.1113 11.9434C16.3061 12.4244 16.3994 12.9915 16.3994 13.6377C16.3994 14.3656 16.3101 15.0225 16.127 15.6035L16.126 15.6025C15.9475 16.188 15.6665 16.6656 15.2725 17.0195L15.2705 17.0205C14.8654 17.3775 14.3631 17.5507 13.7822 17.5508C13.3779 17.5508 13.0123 17.4725 12.6943 17.3066L12.6904 17.3047C12.3817 17.1369 12.129 16.9122 11.9375 16.6318L11.9355 16.6289C11.8682 16.5267 11.809 16.4202 11.7598 16.3105C11.6599 16.0879 11.7078 15.8596 11.8369 15.6963C11.9622 15.5379 12.1621 15.4405 12.3789 15.4404C12.7406 15.4406 12.9906 15.709 13.1201 15.9395C13.1577 16.0061 13.2054 16.0668 13.2627 16.1221C13.3728 16.2281 13.5355 16.2949 13.7822 16.2949C14.1 16.2948 14.3614 16.1468 14.5762 15.7939L14.5772 15.793C14.7197 15.5607 14.8245 15.2454 14.8877 14.8398C14.8452 14.8728 14.8017 14.905 14.7559 14.9346L14.7568 14.9355C14.4625 15.1294 14.1115 15.2197 13.7188 15.2197C13.2807 15.2197 12.8845 15.113 12.54 14.8926L12.5381 14.8916C12.2059 14.6746 11.9487 14.3817 11.7676 14.0195C11.587 13.6583 11.4981 13.2625 11.498 12.8369C11.4981 12.4151 11.5908 12.0187 11.7773 11.6523C11.9665 11.275 12.2447 10.9737 12.6074 10.752C12.9766 10.5203 13.4075 10.4092 13.8897 10.4092ZM13.8994 11.6738C13.6986 11.6738 13.5322 11.7251 13.3916 11.8203L13.3897 11.8213C13.2523 11.9129 13.1392 12.0423 13.0547 12.2197L13.0557 12.2207C12.9766 12.3937 12.9336 12.5949 12.9336 12.8281C12.9336 13.194 13.0279 13.4719 13.1973 13.6816C13.367 13.8788 13.5927 13.9824 13.8994 13.9824C14.0952 13.9823 14.2644 13.9333 14.4141 13.8398L14.417 13.8379C14.5734 13.7431 14.6913 13.6152 14.7725 13.4482L14.7734 13.4453L14.832 13.3076C14.8827 13.1643 14.9092 13.005 14.9092 12.8281C14.9092 12.6064 14.8628 12.4074 14.7734 12.2285L14.7705 12.2236C14.6879 12.0489 14.5726 11.9183 14.4238 11.8252L14.4189 11.8223C14.2708 11.725 14.1 11.6739 13.8994 11.6738Z" fill="oklch(0.3523 0 0 / 1)" class="wd-icon-fill"></path>
<path d="M9.08692 10.5049C9.52536 10.5049 9.88076 10.8604 9.88086 11.2988V16.668C9.88081 17.0694 9.55566 17.3944 9.1543 17.3945C8.75303 17.3943 8.42681 17.0693 8.42676 16.668V12.3936L8.25 12.5254C7.83564 12.8319 7.24805 12.536 7.24805 12.0205C7.24823 11.8259 7.33896 11.6422 7.49317 11.5234L8.60254 10.6699C8.74118 10.5633 8.91202 10.505 9.08692 10.5049Z" fill="oklch(0.3523 0 0 / 1)" class="wd-icon-fill"></path>
<path d="M16.2012 2C17.0247 2 17.7026 1.99898 18.2529 2.04395C18.815 2.08988 19.3321 2.18828 19.8174 2.43555C20.5699 2.81902 21.182 3.43109 21.5654 4.1836C21.8127 4.6689 21.9111 5.18599 21.957 5.74805C22.002 6.29843 22.001 6.97632 22.001 7.79981V16.2002C22.001 17.0237 22.002 17.7016 21.957 18.252C21.9111 18.814 21.8127 19.3311 21.5654 19.8164C21.182 20.5689 20.5699 21.181 19.8174 21.5645C19.3321 21.8117 18.815 21.9101 18.2529 21.9561C17.7026 22.001 17.0247 22 16.2012 22H7.80078C6.9773 22 6.2994 22.001 5.74903 21.9561C5.18697 21.9101 4.66988 21.8117 4.18457 21.5645C3.43207 21.181 2.81999 20.5689 2.43653 19.8164C2.18925 19.3311 2.09085 18.814 2.04492 18.252C1.99996 17.7016 2.00098 17.0237 2.00098 16.2002V7.79981C2.00098 6.97632 1.99996 6.29843 2.04492 5.74805C2.09085 5.18599 2.18925 4.6689 2.43653 4.1836C2.81999 3.43109 3.43207 2.81902 4.18457 2.43555C4.66988 2.18827 5.18697 2.08988 5.74903 2.04395C6.2994 1.99898 6.9773 2 7.80078 2H16.2012ZM4.00098 16.2002C4.00098 17.0566 4.00133 17.6388 4.03809 18.0889C4.07391 18.5273 4.13906 18.7518 4.21875 18.9082C4.41049 19.2845 4.71652 19.5905 5.09278 19.7822C5.24917 19.8619 5.4737 19.9271 5.91211 19.9629C6.36215 19.9997 6.9444 20 7.80078 20H16.2012C17.0576 20 17.6398 19.9997 18.0898 19.9629C18.5283 19.9271 18.7528 19.8619 18.9092 19.7822C19.2854 19.5905 19.5915 19.2845 19.7832 18.9082C19.8629 18.7518 19.928 18.5273 19.9639 18.0889C20.0006 17.6388 20.001 17.0566 20.001 16.2002V8H4.00098V16.2002Z" fill="oklch(0.3523 0 0 / 1)" class="wd-icon-fill"></path>
</g>
</svg>