<svg width="24" height="24" viewBox="0 0 24 24" xmlns="http://www.w3.org/2000/svg" class="wd-icon wd-icon-insert-column-after" role="presentation">
<g>
<path d="M7.25 19H7.2002C6.62364 19 6.25111 18.9987 5.96777 18.9756C5.69619 18.9534 5.59534 18.9158 5.5459 18.8906C5.35793 18.7948 5.20521 18.6421 5.10938 18.4541C5.08419 18.4047 5.04661 18.3038 5.02441 18.0322C5.00126 17.7489 5 17.3764 5 16.7998V13.2002C5 12.6236 5.00126 12.2511 5.02441 11.9678C5.04661 11.6962 5.08419 11.5953 5.10938 11.5459C5.20522 11.3579 5.35793 11.2052 5.5459 11.1094C5.59534 11.0842 5.69619 11.0466 5.96777 11.0244C6.25111 11.0013 6.62364 11 7.2002 11H7.25V19Z" fill="transparent" class="wd-icon-background"></path>
<path d="M8.7998 11C9.37636 11 9.74889 11.0013 10.0322 11.0244C10.3038 11.0466 10.4047 11.0842 10.4541 11.1094C10.6421 11.2052 10.7948 11.3579 10.8906 11.5459C10.9158 11.5953 10.9534 11.6962 10.9756 11.9678C10.9987 12.2511 11 12.6236 11 13.2002V16.7998C11 17.3764 10.9987 17.7489 10.9756 18.0322C10.9534 18.3038 10.9158 18.4047 10.8906 18.4541C10.7948 18.6421 10.6421 18.7948 10.4541 18.8906C10.4047 18.9158 10.3038 18.9534 10.0322 18.9756C9.74889 18.9987 9.37636 19 8.7998 19H8.75V11H8.7998Z" fill="transparent" class="wd-icon-background"></path>
<path d="M18.501 4.00488C18.5994 4.00937 18.6299 4.0166 18.6299 4.0166C18.8022 4.06289 18.9371 4.19784 18.9834 4.37012C18.9834 4.37012 18.9906 4.40056 18.9951 4.49902C19.0002 4.611 19 4.75876 19 5V11C19 11.2412 19.0002 11.389 18.9951 11.501C18.9906 11.5994 18.9834 11.6299 18.9834 11.6299C18.9371 11.8022 18.8022 11.9371 18.6299 11.9834C18.6299 11.9834 18.5994 11.9906 18.501 11.9951C18.389 12.0002 18.2412 12 18 12C17.7588 12 17.611 12.0002 17.499 11.9951C17.4006 11.9906 17.3701 11.9834 17.3701 11.9834C17.1978 11.9371 17.0629 11.8022 17.0166 11.6299C17.0166 11.6299 17.0094 11.5994 17.0049 11.501C16.9998 11.389 17 11.2412 17 11V5C17 4.75876 16.9998 4.611 17.0049 4.49902C17.0094 4.40056 17.0166 4.37012 17.0166 4.37012C17.0629 4.19784 17.1978 4.06289 17.3701 4.0166C17.3701 4.0166 17.4006 4.00937 17.499 4.00488C17.611 3.99979 17.7588 4 18 4C18.2412 4 18.389 3.99979 18.501 4.00488Z" fill="transparent" class="wd-icon-background"></path>
</g>
<g>
<path d="M8.79981 9.0012C9.34336 9.0012 9.81165 9.00012 10.1953 9.03147C10.5906 9.06378 10.984 9.1356 11.3623 9.32834C11.9265 9.61592 12.3853 10.0747 12.6729 10.6389C12.8655 11.0171 12.9374 11.4107 12.9697 11.8059C13.001 12.1895 13 12.658 13 13.2014V16.801C13 17.3444 13.0011 17.8129 12.9697 18.1965C12.9374 18.5916 12.8655 18.9853 12.6729 19.3635C12.3853 19.9276 11.9264 20.3865 11.3623 20.674C10.9841 20.8667 10.5905 20.9386 10.1953 20.9709C9.81165 21.0023 9.34334 21.0012 8.79981 21.0012H7.2002C6.65666 21.0012 6.18836 21.0023 5.80469 20.9709C5.40949 20.9386 5.01595 20.8667 4.6377 20.674C4.07358 20.3865 3.61474 19.9276 3.32715 19.3635C3.13446 18.9853 3.0626 18.5916 3.03028 18.1965C2.99894 17.8129 3 17.3444 3 16.801V13.2014C3 12.658 2.99896 12.1895 3.03028 11.8059C3.06258 11.4107 3.13452 11.0171 3.32715 10.6389C3.6147 10.0747 4.07355 9.61592 4.6377 9.32834C5.01599 9.1356 5.40945 9.06378 5.80469 9.03147C6.18836 9.00012 6.65665 9.0012 7.2002 9.0012H8.79981ZM8.75 19.0012H8.79981C9.37634 19.0012 9.7489 18.9999 10.0322 18.9768C10.3035 18.9546 10.4046 18.917 10.4541 18.8918C10.642 18.796 10.7948 18.6431 10.8906 18.4553C10.9158 18.4059 10.9534 18.3047 10.9756 18.0334C10.9987 17.7501 11 17.3773 11 16.801V13.2014C11 12.6251 10.9987 12.2523 10.9756 11.969C10.9534 11.6979 10.9158 11.5966 10.8906 11.5471C10.7948 11.3592 10.642 11.2064 10.4541 11.1106C10.4047 11.0854 10.3038 11.0478 10.0322 11.0256C9.74889 11.0025 9.37636 11.0012 8.79981 11.0012H8.75V19.0012ZM7.2002 11.0012C6.62365 11.0012 6.25111 11.0025 5.96778 11.0256C5.69622 11.0478 5.59534 11.0854 5.5459 11.1106C5.35801 11.2064 5.20519 11.3592 5.10938 11.5471C5.08419 11.5966 5.04657 11.6979 5.02442 11.969C5.0013 12.2523 5 12.6251 5 13.2014V16.801C5.00001 17.3773 5.00127 17.7501 5.02442 18.0334C5.04662 18.3047 5.0842 18.4059 5.10938 18.4553C5.20523 18.6431 5.35803 18.796 5.5459 18.8918C5.5954 18.917 5.69647 18.9546 5.96778 18.9768C6.25111 18.9999 6.62367 19.0012 7.2002 19.0012H7.25V11.0012H7.2002Z" fill="oklch(0.3523 0 0 / 1)" class="wd-icon-fill"></path>
<path d="M18 2.00022C18.4006 2.00022 18.7975 1.99145 19.1475 2.08518C20.0098 2.31636 20.6837 2.99051 20.915 3.85276C21.0088 4.20259 21 4.59978 21 5.00022V11.0002C21 11.4007 21.0087 11.7978 20.915 12.1477C20.6838 13.0101 20.0099 13.684 19.1475 13.9153C18.7975 14.009 18.4006 14.0002 18 14.0002C17.5994 14.0002 17.2025 14.009 16.8525 13.9153C15.9901 13.684 15.3162 13.0101 15.085 12.1477C14.9913 11.7978 15 11.4007 15 11.0002V5.00022C15 4.59978 14.9912 4.20259 15.085 3.85276C15.3163 2.9905 15.9902 2.31636 16.8525 2.08518C17.2025 1.99143 17.5994 2.00022 18 2.00022ZM17.499 4.0051C17.4025 4.0095 17.3722 4.0163 17.3701 4.01682C17.198 4.06307 17.063 4.19827 17.0166 4.37034C17.0166 4.37034 17.0094 4.40115 17.0049 4.49924C16.9998 4.61114 17 4.75926 17 5.00022V11.0002C17 11.2411 16.9998 11.3893 17.0049 11.5012C17.0091 11.594 17.0157 11.626 17.0166 11.6301C17.0629 11.8023 17.1979 11.9373 17.3701 11.9836C17.3701 11.9836 17.4006 11.9908 17.499 11.9953C17.611 12.0004 17.7588 12.0002 18 12.0002C18.2412 12.0002 18.389 12.0004 18.501 11.9953C18.5994 11.9908 18.6299 11.9836 18.6299 11.9836C18.8021 11.9373 18.9371 11.8023 18.9834 11.6301C18.9843 11.626 18.9909 11.5941 18.9951 11.5012C19.0002 11.3893 19 11.2411 19 11.0002V5.00022C19 4.75926 19.0002 4.61114 18.9951 4.49924C18.9906 4.40116 18.9834 4.37034 18.9834 4.37034C18.937 4.19827 18.802 4.06307 18.6299 4.01682C18.6275 4.01623 18.5969 4.00947 18.501 4.0051C18.389 4.00001 18.2412 4.00022 18 4.00022C17.7588 4.00022 17.611 4.00001 17.499 4.0051Z" fill="oklch(0.3523 0 0 / 1)" class="wd-icon-fill"></path>
</g>
<path d="M18 15.75C18.4142 15.75 18.75 16.0858 18.75 16.5V18.25H20.5C20.9142 18.25 21.25 18.5858 21.25 19C21.25 19.4142 20.9142 19.75 20.5 19.75H18.75V21.5C18.75 21.9142 18.4142 22.25 18 22.25C17.5858 22.25 17.25 21.9142 17.25 21.5V19.75H15.5C15.0858 19.75 14.75 19.4142 14.75 19C14.75 18.5858 15.0858 18.25 15.5 18.25H17.25V16.5C17.25 16.0858 17.5858 15.75 18 15.75Z" fill="oklch(0.3523 0 0 / 1)" class="wd-icon-accent"></path>
</svg>