<svg width="24" height="24" viewBox="0 0 24 24" xmlns="http://www.w3.org/2000/svg" class="wd-icon wd-icon-dashboard-grid-plus" role="presentation">
<g>
<path d="M8.4004 13C8.66379 13 8.92188 12.9989 9.13869 13.0166C9.36719 13.0353 9.63696 13.0796 9.90822 13.2178C10.2374 13.3856 10.5129 13.6409 10.7051 13.9541L10.7822 14.0918L10.8692 14.2949C10.9406 14.4958 10.9694 14.6901 10.9834 14.8613C11.0011 15.0782 11 15.3362 11 15.5996V18.4004C11 18.6638 11.0011 18.9219 10.9834 19.1387C10.9647 19.3672 10.9205 19.637 10.7822 19.9082C10.5905 20.2845 10.2845 20.5905 9.90822 20.7822C9.63696 20.9205 9.36719 20.9647 9.13869 20.9834C8.92188 21.0011 8.66379 21 8.4004 21H5.59962C5.33624 21 5.07815 21.0011 4.86134 20.9834C4.63284 20.9647 4.36307 20.9205 4.09181 20.7822C3.71557 20.5905 3.40952 20.2845 3.21779 19.9082C3.07958 19.637 3.03531 19.3672 3.01662 19.1387C2.9989 18.9219 3.00001 18.6638 3.00001 18.4004V15.5996C3.00001 15.3362 2.9989 15.0782 3.01662 14.8613C3.03531 14.6328 3.07958 14.3631 3.21779 14.0918C3.40952 13.7156 3.71556 13.4095 4.09181 13.2178C4.36307 13.0796 4.63284 13.0353 4.86134 13.0166C5.07815 12.9989 5.33624 13 5.59962 13H8.4004ZM5.59962 15C5.30335 15 5.14096 15.0012 5.02443 15.0108C5.01997 15.0111 5.01573 15.0114 5.01173 15.0117C5.01136 15.0157 5.01112 15.02 5.01076 15.0244C5.00124 15.141 5.00001 15.3034 5.00001 15.5996V18.4004C5.00001 18.6967 5.00124 18.8591 5.01076 18.9756C5.01109 18.9797 5.01139 18.9836 5.01173 18.9873C5.01576 18.9877 5.01994 18.9889 5.02443 18.9893C5.14096 18.9988 5.30335 19 5.59962 19H8.4004C8.69667 19 8.85907 18.9988 8.9756 18.9893C8.97973 18.9889 8.98358 18.9877 8.98732 18.9873C8.98766 18.9836 8.98893 18.9797 8.98927 18.9756C8.99879 18.8591 9.00001 18.6967 9.00001 18.4004V15.5996C9.00001 15.3034 8.99879 15.141 8.98927 15.0244C8.9889 15.0199 8.98769 15.0158 8.98732 15.0117C8.98361 15.0114 8.97969 15.0111 8.9756 15.0108C8.85907 15.0012 8.69667 15 8.4004 15H5.59962Z" fill="oklch(0.3523 0 0 / 1)" class="wd-icon-fill"></path>
<path d="M17 13.25C17.4142 13.25 17.75 13.5858 17.75 14V16.25H20C20.4142 16.25 20.75 16.5858 20.75 17C20.75 17.4142 20.4142 17.75 20 17.75H17.75V20C17.75 20.4142 17.4142 20.75 17 20.75C16.5858 20.75 16.25 20.4142 16.25 20V17.75H14C13.5858 17.75 13.25 17.4142 13.25 17C13.25 16.5858 13.5858 16.25 14 16.25H16.25V14C16.25 13.5858 16.5858 13.25 17 13.25Z" fill="oklch(0.3523 0 0 / 1)" class="wd-icon-fill"></path>
<path d="M8.4004 3.00001C8.66379 3.00001 8.92188 2.9989 9.13869 3.01662C9.36719 3.03531 9.63696 3.07958 9.90822 3.21779C10.2374 3.38556 10.5129 3.64087 10.7051 3.95412L10.7822 4.09181L10.8692 4.29494C10.9406 4.49577 10.9694 4.69007 10.9834 4.86134C11.0011 5.07815 11 5.33624 11 5.59962V8.4004C11 8.66379 11.0011 8.92188 10.9834 9.13869C10.9647 9.36719 10.9205 9.63696 10.7822 9.90822C10.5905 10.2845 10.2845 10.5905 9.90822 10.7822C9.63696 10.9205 9.36719 10.9647 9.13869 10.9834C8.92188 11.0011 8.66379 11 8.4004 11H5.59962C5.33624 11 5.07815 11.0011 4.86134 10.9834C4.63284 10.9647 4.36307 10.9205 4.09181 10.7822C3.71557 10.5905 3.40952 10.2845 3.21779 9.90822C3.07958 9.63696 3.03531 9.36719 3.01662 9.13869C2.9989 8.92188 3.00001 8.66379 3.00001 8.4004V5.59962C3.00001 5.33624 2.9989 5.07815 3.01662 4.86134C3.03531 4.63284 3.07958 4.36307 3.21779 4.09181C3.40952 3.71556 3.71556 3.40952 4.09181 3.21779C4.36307 3.07958 4.63284 3.03531 4.86134 3.01662C5.07815 2.9989 5.33624 3.00001 5.59962 3.00001H8.4004ZM5.59962 5.00001C5.30335 5.00001 5.14096 5.00124 5.02443 5.01076C5.01997 5.01112 5.01573 5.01136 5.01173 5.01173C5.01136 5.01573 5.01112 5.01997 5.01076 5.02443C5.00124 5.14096 5.00001 5.30335 5.00001 5.59962V8.4004C5.00001 8.69667 5.00124 8.85907 5.01076 8.9756C5.01109 8.97969 5.01139 8.98361 5.01173 8.98732C5.01576 8.98769 5.01994 8.9889 5.02443 8.98927C5.14096 8.99879 5.30335 9.00001 5.59962 9.00001H8.4004C8.69667 9.00001 8.85907 8.99879 8.9756 8.98927C8.97973 8.98893 8.98358 8.98766 8.98732 8.98732C8.98766 8.98358 8.98893 8.97973 8.98927 8.9756C8.99879 8.85907 9.00001 8.69667 9.00001 8.4004V5.59962C9.00001 5.30335 8.99879 5.14096 8.98927 5.02443C8.9889 5.01994 8.98769 5.01576 8.98732 5.01173C8.98361 5.01139 8.97969 5.01109 8.9756 5.01076C8.85907 5.00124 8.69667 5.00001 8.4004 5.00001H5.59962Z" fill="oklch(0.3523 0 0 / 1)" class="wd-icon-fill"></path>
<path d="M18.4004 3.00001C18.6638 3.00001 18.9219 2.9989 19.1387 3.01662C19.3672 3.03531 19.637 3.07958 19.9082 3.21779C20.2374 3.38556 20.5129 3.64087 20.7051 3.95412L20.7822 4.09181L20.8692 4.29494C20.9406 4.49577 20.9694 4.69007 20.9834 4.86134C21.0011 5.07815 21 5.33624 21 5.59962V8.4004C21 8.66379 21.0011 8.92188 20.9834 9.13869C20.9647 9.36719 20.9205 9.63696 20.7822 9.90822C20.5905 10.2845 20.2845 10.5905 19.9082 10.7822C19.637 10.9205 19.3672 10.9647 19.1387 10.9834C18.9219 11.0011 18.6638 11 18.4004 11H15.5996C15.3362 11 15.0782 11.0011 14.8613 10.9834C14.6328 10.9647 14.3631 10.9205 14.0918 10.7822C13.7156 10.5905 13.4095 10.2845 13.2178 9.90822C13.0796 9.63696 13.0353 9.36719 13.0166 9.13869C12.9989 8.92188 13 8.66379 13 8.4004V5.59962C13 5.33624 12.9989 5.07815 13.0166 4.86134C13.0353 4.63284 13.0796 4.36307 13.2178 4.09181C13.4095 3.71556 13.7156 3.40952 14.0918 3.21779C14.3631 3.07958 14.6328 3.03531 14.8613 3.01662C15.0782 2.9989 15.3362 3.00001 15.5996 3.00001H18.4004ZM15.5996 5.00001C15.3034 5.00001 15.141 5.00124 15.0244 5.01076C15.02 5.01112 15.0157 5.01136 15.0117 5.01173C15.0114 5.01573 15.0111 5.01997 15.0108 5.02443C15.0012 5.14096 15 5.30335 15 5.59962V8.4004C15 8.69667 15.0012 8.85907 15.0108 8.9756C15.0111 8.97969 15.0114 8.98361 15.0117 8.98732C15.0158 8.98769 15.0199 8.9889 15.0244 8.98927C15.141 8.99879 15.3034 9.00001 15.5996 9.00001H18.4004C18.6967 9.00001 18.8591 8.99879 18.9756 8.98927C18.9797 8.98893 18.9836 8.98766 18.9873 8.98732C18.9877 8.98358 18.9889 8.97973 18.9893 8.9756C18.9988 8.85907 19 8.69667 19 8.4004V5.59962C19 5.30335 18.9988 5.14096 18.9893 5.02443C18.9889 5.01994 18.9877 5.01576 18.9873 5.01173C18.9836 5.01139 18.9797 5.01109 18.9756 5.01076C18.8591 5.00124 18.6967 5.00001 18.4004 5.00001H15.5996Z" fill="oklch(0.3523 0 0 / 1)" class="wd-icon-fill"></path>
</g>
</svg>