<svg width="24" height="24" viewBox="0 0 24 24" xmlns="http://www.w3.org/2000/svg" class="wd-icon wd-icon-document-csv" role="presentation">
<path d="M18.5 2H5.5C5.22386 2 5 2.22386 5 2.5V21.5C5 21.7761 5.22386 22 5.5 22H18.5C18.7761 22 19 21.7761 19 21.5V2.5C19 2.22386 18.7761 2 18.5 2Z" fill="transparent" class="wd-icon-background"></path>
<path d="M18.5 1C19.3284 1 20 1.67157 20 2.5V21.5C20 22.3284 19.3284 23 18.5 23H5.5C4.67157 23 4 22.3284 4 21.5V2.5C4 1.67157 4.67157 1 5.5 1H18.5ZM6 21H18V3H6V21Z" fill="oklch(0.3523 0 0 / 1)" class="wd-icon-fill"></path>
<path d="M9.91016 15.425C9.91016 15.1489 10.1353 14.9297 10.4086 14.8903C11.5309 14.7285 12.2602 14.0169 12.2602 13.075V13H10.5102C10.234 13 10.0102 12.7761 10.0102 12.5V9.5C10.0102 9.22386 10.234 9 10.5102 9H13.5352C13.8113 9 14.0352 9.22386 14.0352 9.5V12.975C14.0352 15.2049 12.546 16.5715 10.41 16.754C10.1348 16.7776 9.91016 16.5511 9.91016 16.275V15.425Z" fill="oklch(0.3523 0 0 / 1)" class="wd-icon-accent"></path>
</svg>