<svg width="24" height="24" viewBox="0 0 24 24" xmlns="http://www.w3.org/2000/svg" class="wd-icon wd-icon-waterfall-chart" role="presentation">
<g>
<path d="M5.50001 9.00001C5.71929 9.00001 5.93385 8.99935 6.11524 9.01172C6.30561 9.02471 6.53159 9.05541 6.76563 9.15235C7.25548 9.35533 7.64468 9.74453 7.84766 10.2344C7.94461 10.4684 7.9753 10.6944 7.98829 10.8848C8.00066 11.0662 8.00001 11.2807 8.00001 11.5V18.5C8.00001 18.7193 8.00066 18.9339 7.98829 19.1152C7.9753 19.3056 7.94461 19.5316 7.84766 19.7656C7.64468 20.2555 7.25548 20.6447 6.76563 20.8477C6.53159 20.9446 6.30561 20.9753 6.11524 20.9883C5.93385 21.0007 5.71929 21 5.50001 21C5.28072 21 5.06616 21.0007 4.88477 20.9883C4.6944 20.9753 4.46842 20.9446 4.23438 20.8477C3.74453 20.6447 3.35533 20.2555 3.15235 19.7656C3.05541 19.5316 3.02471 19.3056 3.01172 19.1152C2.99935 18.9339 3.00001 18.7193 3.00001 18.5V11.5C3.00001 11.2807 2.99935 11.0662 3.01172 10.8848C3.02471 10.6944 3.05541 10.4684 3.15235 10.2344C3.35533 9.74453 3.74453 9.35533 4.23438 9.15235C4.46842 9.05541 4.6944 9.02471 4.88477 9.01172C5.06616 8.99935 5.28072 9.00001 5.50001 9.00001ZM5.02051 11.0068C5.01601 11.0072 5.01178 11.0075 5.00782 11.0078C5.00751 11.0118 5.00715 11.016 5.00684 11.0205C5.00019 11.118 5.00001 11.2534 5.00001 11.5V18.5C5.00001 18.7467 5.00019 18.882 5.00684 18.9795C5.00713 18.9836 5.00753 18.9875 5.00782 18.9912C5.0118 18.9915 5.01598 18.9929 5.02051 18.9932C5.11804 18.9998 5.25336 19 5.50001 19C5.74665 19 5.88198 18.9998 5.9795 18.9932C5.98366 18.9929 5.98752 18.9915 5.99122 18.9912C5.99151 18.9875 5.99288 18.9837 5.99317 18.9795C5.99982 18.882 6.00001 18.7467 6.00001 18.5V11.5C6.00001 11.2534 5.99982 11.118 5.99317 11.0205C5.99286 11.016 5.99153 11.0118 5.99122 11.0078C5.98754 11.0075 5.98363 11.0071 5.9795 11.0068C5.88198 11.0002 5.74665 11 5.50001 11C5.25336 11 5.11804 11.0002 5.02051 11.0068Z" fill="oklch(0.3523 0 0 / 1)" class="wd-icon-fill"></path>
<path d="M18.5 3.00001C18.7193 3.00001 18.9339 2.99935 19.1152 3.01172C19.3056 3.02471 19.5316 3.05541 19.7656 3.15235C20.2555 3.35533 20.6447 3.74453 20.8477 4.23438C20.9446 4.46842 20.9753 4.6944 20.9883 4.88477C21.0007 5.06616 21 5.28072 21 5.50001V14.5C21 14.7193 21.0007 14.9339 20.9883 15.1152C20.9753 15.3056 20.9446 15.5316 20.8477 15.7656C20.6447 16.2555 20.2555 16.6447 19.7656 16.8477C19.5316 16.9446 19.3056 16.9753 19.1152 16.9883C18.9339 17.0007 18.7193 17 18.5 17C18.2807 17 18.0662 17.0007 17.8848 16.9883C17.6944 16.9753 17.4684 16.9446 17.2344 16.8477C16.7445 16.6447 16.3553 16.2555 16.1523 15.7656C16.0554 15.5316 16.0247 15.3056 16.0117 15.1152C15.9993 14.9339 16 14.7193 16 14.5V5.50001C16 5.28072 15.9993 5.06616 16.0117 4.88477C16.0247 4.6944 16.0554 4.46842 16.1523 4.23438C16.3553 3.74453 16.7445 3.35533 17.2344 3.15235C17.4684 3.05541 17.6944 3.02471 17.8848 3.01172C18.0662 2.99935 18.2807 3.00001 18.5 3.00001ZM18.0205 5.00684C18.016 5.00715 18.0118 5.00751 18.0078 5.00782C18.0075 5.01178 18.0072 5.01601 18.0068 5.02051C18.0002 5.11804 18 5.25336 18 5.50001V14.5C18 14.7467 18.0002 14.882 18.0068 14.9795C18.0071 14.9836 18.0075 14.9875 18.0078 14.9912C18.0118 14.9915 18.016 14.9929 18.0205 14.9932C18.118 14.9998 18.2534 15 18.5 15C18.7467 15 18.882 14.9998 18.9795 14.9932C18.9837 14.9929 18.9875 14.9915 18.9912 14.9912C18.9915 14.9875 18.9929 14.9837 18.9932 14.9795C18.9998 14.882 19 14.7467 19 14.5V5.50001C19 5.25336 18.9998 5.11804 18.9932 5.02051C18.9929 5.01598 18.9915 5.0118 18.9912 5.00782C18.9875 5.00753 18.9836 5.00713 18.9795 5.00684C18.882 5.00019 18.7467 5.00001 18.5 5.00001C18.2534 5.00001 18.118 5.00019 18.0205 5.00684Z" fill="oklch(0.3523 0 0 / 1)" class="wd-icon-fill"></path>
<path d="M12 3.00001C12.2193 3.00001 12.4339 2.99935 12.6152 3.01172C12.8056 3.02471 13.0316 3.05541 13.2656 3.15235C13.7555 3.35533 14.1447 3.74453 14.3477 4.23438C14.4446 4.46842 14.4753 4.6944 14.4883 4.88477C14.5007 5.06616 14.5 5.28072 14.5 5.50001V8.50001C14.5 8.71929 14.5007 8.93385 14.4883 9.11524C14.4753 9.30561 14.4446 9.53159 14.3477 9.76563C14.1447 10.2555 13.7555 10.6447 13.2656 10.8477C13.0316 10.9446 12.8056 10.9753 12.6152 10.9883C12.4339 11.0007 12.2193 11 12 11C11.7807 11 11.5662 11.0007 11.3848 10.9883C11.1944 10.9753 10.9684 10.9446 10.7344 10.8477C10.2445 10.6447 9.85533 10.2555 9.65235 9.76563C9.55541 9.53159 9.52471 9.30561 9.51172 9.11524C9.49935 8.93385 9.50001 8.71929 9.50001 8.50001V5.50001C9.50001 5.28072 9.49935 5.06616 9.51172 4.88477C9.52471 4.6944 9.55541 4.46842 9.65235 4.23438C9.85533 3.74453 10.2445 3.35533 10.7344 3.15235C10.9684 3.05541 11.1944 3.02471 11.3848 3.01172C11.5662 2.99935 11.7807 3.00001 12 3.00001ZM11.5205 5.00684C11.516 5.00715 11.5118 5.00751 11.5078 5.00782C11.5075 5.01178 11.5072 5.01601 11.5068 5.02051C11.5002 5.11804 11.5 5.25336 11.5 5.50001V8.50001C11.5 8.74665 11.5002 8.88198 11.5068 8.9795C11.5071 8.98363 11.5075 8.98754 11.5078 8.99122C11.5118 8.99153 11.516 8.99286 11.5205 8.99317C11.618 8.99982 11.7534 9.00001 12 9.00001C12.2467 9.00001 12.382 8.99982 12.4795 8.99317C12.4837 8.99288 12.4875 8.99151 12.4912 8.99122C12.4915 8.98752 12.4929 8.98366 12.4932 8.9795C12.4998 8.88198 12.5 8.74665 12.5 8.50001V5.50001C12.5 5.25336 12.4998 5.11804 12.4932 5.02051C12.4929 5.01598 12.4915 5.0118 12.4912 5.00782C12.4875 5.00753 12.4836 5.00713 12.4795 5.00684C12.382 5.00019 12.2467 5.00001 12 5.00001C11.7534 5.00001 11.618 5.00019 11.5205 5.00684Z" fill="oklch(0.3523 0 0 / 1)" class="wd-icon-fill"></path>
</g>
<g>
<path d="M5.97949 11.0068C5.98363 11.0071 5.98753 11.0075 5.99121 11.0078C5.99153 11.0118 5.99285 11.016 5.99316 11.0205C5.99982 11.118 6 11.2534 6 11.5V18.5C6 18.7466 5.99982 18.882 5.99316 18.9795C5.99288 18.9837 5.9915 18.9875 5.99121 18.9912C5.98751 18.9915 5.98366 18.9929 5.97949 18.9932C5.88197 18.9998 5.74665 19 5.5 19C5.25335 19 5.11803 18.9998 5.02051 18.9932C5.01598 18.9929 5.0118 18.9915 5.00781 18.9912C5.00753 18.9875 5.00712 18.9836 5.00684 18.9795C5.00018 18.882 5 18.7466 5 18.5V11.5C5 11.2534 5.00018 11.118 5.00684 11.0205C5.00714 11.016 5.0075 11.0118 5.00781 11.0078C5.01177 11.0075 5.01601 11.0071 5.02051 11.0068C5.11803 11.0002 5.25335 11 5.5 11C5.74665 11 5.88197 11.0002 5.97949 11.0068Z" fill="oklch(0.3523 0 0 / 1)" class="wd-icon-accent"></path>
<path d="M18.9795 5.00684C18.9836 5.00712 18.9875 5.00753 18.9912 5.00781C18.9915 5.0118 18.9929 5.01598 18.9932 5.02051C18.9998 5.11803 19 5.25335 19 5.5V14.5C19 14.7466 18.9998 14.882 18.9932 14.9795C18.9929 14.9837 18.9915 14.9875 18.9912 14.9912C18.9875 14.9915 18.9837 14.9929 18.9795 14.9932C18.882 14.9998 18.7466 15 18.5 15C18.2534 15 18.118 14.9998 18.0205 14.9932C18.016 14.9929 18.0118 14.9915 18.0078 14.9912C18.0075 14.9875 18.0071 14.9836 18.0068 14.9795C18.0002 14.882 18 14.7466 18 14.5V5.5C18 5.25335 18.0002 5.11803 18.0068 5.02051C18.0071 5.01601 18.0075 5.01177 18.0078 5.00781C18.0118 5.0075 18.016 5.00714 18.0205 5.00684C18.118 5.00018 18.2534 5 18.5 5C18.7466 5 18.882 5.00018 18.9795 5.00684Z" fill="oklch(0.3523 0 0 / 1)" class="wd-icon-accent"></path>
</g>
</svg>