<svg width="24" height="24" viewBox="0 0 24 24" xmlns="http://www.w3.org/2000/svg" class="wd-icon wd-icon-ranking" role="presentation">
<g>
<path d="M14 9C15.1046 9 16 9.89543 16 11V13H20C21.1046 13 22 13.8954 22 15V18C22 19.1046 21.1046 20 20 20H4C2.89543 20 2 19.1046 2 18V14C2 12.8954 2.89543 12 4 12H8V11C8 9.89543 8.89543 9 10 9H14ZM4 18H8.49805V14H4V18ZM10 13C10 13.0138 9.9986 13.0274 9.99805 13.041V18H13.998V13C13.998 12.9869 13.9993 12.9739 14 12.9609V11H10V13ZM15.498 18H20V15H15.498V18Z" fill="oklch(0.3523 0 0 / 1)" class="wd-icon-fill"></path>
<path d="M20.3564 5.73926C20.7079 5.73926 20.9931 6.02449 20.9932 6.37598C20.9931 6.53815 20.9315 6.69444 20.8203 6.8125L19.9355 7.75C20.0902 7.78034 20.237 7.83271 20.375 7.90723C20.6409 8.04829 20.8508 8.25277 21.002 8.5166C21.1554 8.77966 21.2285 9.0841 21.2285 9.42188C21.2285 9.73764 21.1569 10.0404 21.0156 10.3281C20.8703 10.6188 20.6515 10.8555 20.3662 11.0352C20.0723 11.2201 19.7232 11.3085 19.3281 11.3086C18.9764 11.3086 18.6564 11.2445 18.374 11.1113L18.373 11.1104C18.0963 10.9773 17.8694 10.7864 17.6973 10.5391L17.6943 10.5352C17.6085 10.405 17.5415 10.2637 17.4932 10.1123C17.436 9.93337 17.4861 9.76025 17.5918 9.6377C17.6953 9.51787 17.8525 9.44437 18.0215 9.44434C18.3332 9.44447 18.5429 9.68634 18.6396 9.90039C18.6775 9.98414 18.73 10.0586 18.7988 10.124L18.9033 10.2012C19.0168 10.2692 19.158 10.3066 19.335 10.3066C19.4864 10.3066 19.613 10.2703 19.7207 10.2021L19.7227 10.2002C19.8373 10.1299 19.9238 10.0351 19.9834 9.91211L19.9844 9.91016C20.0502 9.77843 20.0849 9.63107 20.085 9.46484C20.085 9.19984 20.0114 9.00992 19.8828 8.87402L19.8809 8.87207C19.7589 8.73964 19.5871 8.66504 19.3418 8.66504C19.2533 8.66508 19.1734 8.67899 19.1006 8.70508C18.8985 8.77746 18.5898 8.78725 18.4014 8.55664C18.2389 8.35741 18.2494 8.06779 18.4258 7.88086L19.4951 6.74805H18.124C17.8457 6.74797 17.6193 6.52244 17.6191 6.24414C17.6191 5.96567 17.8456 5.73933 18.124 5.73926H20.3564Z" fill="oklch(0.3523 0 0 / 1)" class="wd-icon-fill"></path>
<path d="M4.86328 4.62793C5.22852 4.62794 5.55359 4.69911 5.83008 4.84961C6.10714 4.99352 6.32276 5.19526 6.4668 5.4541C6.61305 5.70883 6.68555 5.99059 6.68555 6.29395C6.68548 6.57929 6.62469 6.85449 6.50391 7.11719C6.38671 7.37188 6.23215 7.6135 6.04102 7.83984L6.04004 7.83887C5.85824 8.05501 5.63046 8.2941 5.35645 8.55371L5.1582 8.74512L5.15625 8.74609L4.70508 9.17383H6.23828C6.51677 9.17386 6.74316 9.40022 6.74316 9.67871C6.74272 9.95682 6.51649 10.1826 6.23828 10.1826H3.58594C3.25386 10.1825 2.98482 9.91305 2.98438 9.58105C2.98438 9.41645 3.05178 9.25813 3.1709 9.14453L4.40625 7.96777L4.40723 7.9668L4.65625 7.73145C4.84514 7.53766 5.00326 7.36138 5.12988 7.20312L5.13184 7.20117C5.26039 7.04602 5.35987 6.89031 5.43262 6.73633C5.50194 6.58477 5.53509 6.43761 5.53516 6.29395C5.53516 6.07091 5.46829 5.91875 5.35449 5.81152L5.35254 5.80859C5.2326 5.69232 5.07764 5.62997 4.87109 5.62988C4.71172 5.62988 4.58117 5.66497 4.47363 5.72949C4.36177 5.79664 4.27495 5.88735 4.21094 6.00391C4.19102 6.04025 4.17281 6.07834 4.1582 6.11719C4.07138 6.34803 3.85758 6.5986 3.54004 6.59863C3.23135 6.59847 2.91306 6.32666 3.01367 5.95996C3.05663 5.80425 3.12107 5.65572 3.20508 5.51562C3.37072 5.24311 3.59856 5.02573 3.88379 4.86719C4.17334 4.70633 4.50182 4.62798 4.86328 4.62793Z" fill="oklch(0.3523 0 0 / 1)" class="wd-icon-fill"></path>
<path d="M11.8691 1.73242C12.2162 1.73242 12.4978 2.01436 12.498 2.36133V6.61133C12.498 6.92919 12.2397 7.1875 11.9219 7.1875C11.6043 7.18719 11.3467 6.929 11.3467 6.61133V3.22754L11.2061 3.33203C10.878 3.57494 10.4131 3.34081 10.4131 2.93262C10.4133 2.77858 10.4853 2.633 10.6074 2.53906L11.4863 1.86328C11.5961 1.77891 11.7307 1.73248 11.8691 1.73242Z" fill="oklch(0.3523 0 0 / 1)" class="wd-icon-fill"></path>
</g>
</svg>