<svg width="24" height="24" viewBox="0 0 24 24" xmlns="http://www.w3.org/2000/svg" class="wd-icon wd-icon-utensils" role="presentation">
<g>
<path d="M9 1C9.55228 1 10 1.44772 10 2V16C10 16.1027 9.98385 16.2016 9.95508 16.2949C9.98337 16.3576 10 16.4268 10 16.5V22.5C10 22.7761 9.77614 23 9.5 23H8.5C8.22386 23 8 22.7761 8 22.5V16.999C6.8951 16.995 5.72681 16.5382 5.02148 15.5137C3.74655 13.6616 3 11.4165 3 9C3 6.5835 3.74655 4.33837 5.02148 2.48633C5.72993 1.45723 6.90543 1.00001 8.01465 1H9ZM8 3.00098C7.40935 3.00493 6.92615 3.24669 6.66895 3.62012C5.6163 5.14924 5 7.00128 5 9C5 10.9987 5.6163 12.8508 6.66895 14.3799C6.92615 14.7533 7.40935 14.9951 8 14.999V3.00098Z" fill="oklch(0.3523 0 0 / 1)" class="wd-icon-fill"></path>
<path d="M13.5 2C13.7761 2 14 2.22386 14 2.5V8C14 9.30931 14.7209 10.45 15.7891 11.0498C15.9202 11.1234 16.0798 11.1234 16.2109 11.0498C17.2791 10.45 18 9.30931 18 8V2.5C18 2.22386 18.2239 2 18.5 2H19.5C19.7761 2 20 2.22386 20 2.5V8C20 10.1385 18.7789 11.9869 17 12.8965V22.5C17 22.7761 16.7761 23 16.5 23H15.5C15.2239 23 15 22.7761 15 22.5V12.8965C13.2211 11.9869 12 10.1385 12 8V2.5C12 2.22386 12.2239 2 12.5 2H13.5Z" fill="oklch(0.3523 0 0 / 1)" class="wd-icon-fill"></path>
<path d="M16.5 2C16.7761 2 17 2.22386 17 2.5V8.5C17 8.77614 16.7761 9 16.5 9H15.5C15.2239 9 15 8.77614 15 8.5V2.5C15 2.22386 15.2239 2 15.5 2H16.5Z" fill="oklch(0.3523 0 0 / 1)" class="wd-icon-fill"></path>
</g>
</svg>