<svg width="24" height="24" viewBox="0 0 24 24" xmlns="http://www.w3.org/2000/svg" class="wd-icon wd-icon-highlight" role="presentation">
<path d="M16.7451 1.0689C18.048 1.14116 19.3326 1.6769 20.3281 2.67241C21.2611 3.60553 21.7891 4.79233 21.9112 6.01031L21.9307 6.25542L21.9317 6.34429C21.9246 6.55187 21.8529 6.75349 21.7256 6.91949L14.293 16.608C14.2663 16.6427 14.2367 16.675 14.2061 16.7056L14.2071 16.7066L13.3535 17.5601C13.0723 17.8413 12.6907 17.9994 12.293 17.9996H11.0713C10.0106 17.9996 8.99233 18.4215 8.24221 19.1714L8.06057 19.3531C7.52372 19.8899 6.68166 19.934 6.09377 19.4869L3.97854 20.6265C3.83527 20.7037 3.66314 20.7061 3.5176 20.6334L2.23244 19.9908C1.97216 19.8604 1.87757 19.5363 2.02737 19.2867L3.48147 16.8628C3.06807 16.2775 3.12256 15.463 3.64651 14.939L3.82815 14.7574C4.5781 14.0073 5.00002 12.989 5.00002 11.9283V10.7066C5.0001 10.3089 5.15824 9.92728 5.43948 9.64605L6.30959 8.77593C6.33532 8.75142 6.36314 8.72845 6.39162 8.70659L16.0811 1.27398L16.1543 1.2232C16.3296 1.11218 16.5365 1.05734 16.7451 1.0689ZM7.00002 11.9283C7.00002 13.4384 6.42891 14.8889 5.4092 15.9947L7.00393 17.5894C8.10973 16.5697 9.5612 15.9996 11.0713 15.9996H12.085L7.00002 10.9146V11.9283ZM8.51272 9.59917L13.4004 14.4859L19.8955 6.01812C19.7852 5.31065 19.4593 4.63182 18.9141 4.08648C18.3686 3.54095 17.6893 3.21331 16.9815 3.10308L8.51272 9.59917Z" fill="oklch(0.3523 0 0 / 1)" class="wd-icon-fill"></path>
<path d="M21 20.5C21 20.7761 20.7761 21 20.5 21H11.5C11.2239 21 11 20.7761 11 20.5V19.5C11 19.2239 11.2239 19 11.5 19H20.5C20.7761 19 21 19.2239 21 19.5V20.5Z" fill="oklch(0.3523 0 0 / 1)" class="wd-icon-accent"></path>
</svg>