<svg width="24" height="24" viewBox="0 0 24 24" xmlns="http://www.w3.org/2000/svg" class="wd-icon wd-icon-arrow-up-right-circle-fill" role="presentation">
<path d="M12 2C17.5228 2 22 6.47715 22 12C22 17.5228 17.5228 22 12 22C6.47715 22 2 17.5228 2 12C2 6.47715 6.47715 2 12 2ZM10.585 8.17188C10.0328 8.17188 9.58517 8.61977 9.58496 9.17188C9.58528 9.72388 10.0329 10.1719 10.585 10.1719H12.4131L8.46387 14.1211C8.07363 14.5115 8.07378 15.1447 8.46387 15.5352C8.85441 15.9254 9.48846 15.9256 9.87891 15.5352L13.8281 11.5859V13.415C13.8286 13.9667 14.2754 14.4147 14.8271 14.415C15.3791 14.415 15.8267 13.9669 15.8271 13.415V9.17188C15.8269 8.61977 15.3793 8.17187 14.8271 8.17188H10.585Z" fill="oklch(0.3523 0 0 / 1)" class="wd-icon-fill"></path>
</svg>