<svg width="24" height="24" viewBox="0 0 24 24" xmlns="http://www.w3.org/2000/svg" class="wd-icon wd-icon-arrow-right-from-line" role="presentation">
<g>
<path d="M5 5C5.55228 5 6 5.44772 6 6V18C6 18.5523 5.55228 19 5 19C4.44772 19 4 18.5523 4 18V6C4 5.44772 4.44772 5 5 5Z" fill="oklch(0.3523 0 0 / 1)" class="wd-icon-fill"></path>
<path d="M14.293 7.29297C14.6835 6.90279 15.3166 6.9027 15.707 7.29297L19.707 11.293C20.0974 11.6834 20.0972 12.3165 19.707 12.707L15.707 16.707C15.3165 17.0971 14.6834 17.0973 14.293 16.707C13.9027 16.3166 13.9029 15.6835 14.293 15.293L16.5869 12.999H9C8.44788 12.9988 8 12.5512 8 11.999C8.00044 11.4472 8.44815 10.9992 9 10.999H16.585L14.293 8.70703C13.9028 8.31666 13.903 7.68348 14.293 7.29297Z" fill="oklch(0.3523 0 0 / 1)" class="wd-icon-fill"></path>
</g>
</svg>