<svg width="24" height="24" viewBox="0 0 24 24" xmlns="http://www.w3.org/2000/svg" class="wd-icon wd-icon-data-server" role="presentation">
<path d="M4 3.5C4 3.22386 4.22386 3 4.5 3H19.5C19.7761 3 20 3.22386 20 3.5V20.5C20 20.7761 19.7761 21 19.5 21H4.5C4.22386 21 4 20.7761 4 20.5V3.5Z" fill="transparent" class="wd-icon-background"></path>
<path d="M19.5 2C20.3284 2 21 2.67157 21 3.5V20.5C21 21.3284 20.3284 22 19.5 22H4.5C3.67157 22 3 21.3284 3 20.5V3.5C3 2.67157 3.67157 2 4.5 2H19.5ZM5 16V20H19V16H5ZM5 14H19V10H5V14ZM5 8H19V4H5V8Z" fill="oklch(0.3523 0 0 / 1)" class="wd-icon-fill"></path>
<g>
<path d="M8.49805 17.0029C8.77418 17.0035 8.99761 17.2278 8.99707 17.5039L8.99512 18.5039C8.99454 18.7799 8.77019 19.0034 8.49414 19.0029L6.49902 19C6.22303 18.9995 5.99968 18.775 6 18.499L6.00195 17.499C6.00249 17.2229 6.22685 16.9996 6.50293 17L8.49805 17.0029Z" fill="oklch(0.3523 0 0 / 1)" class="wd-icon-accent"></path>
<path d="M8.49707 11.0039C8.7732 11.0044 8.99663 11.2287 8.99609 11.5049L8.99414 12.5049C8.99343 12.7808 8.76914 13.0044 8.49317 13.0039L6.49805 13C6.22192 12.9995 5.99849 12.7752 5.99902 12.499L6.00098 11.499C6.00169 11.2231 6.22598 10.9996 6.50195 11L8.49707 11.0039Z" fill="oklch(0.3523 0 0 / 1)" class="wd-icon-accent"></path>
<path d="M8.50195 4.99902C8.77809 4.99956 9.00152 5.22385 9.00098 5.5L8.99902 6.5C8.99831 6.77593 8.77402 6.99947 8.49805 6.99902L6.50293 6.99512C6.2268 6.99458 6.00337 6.77029 6.00391 6.49414L6.00586 5.49414C6.00658 5.21821 6.23087 4.99467 6.50684 4.99512L8.50195 4.99902Z" fill="oklch(0.3523 0 0 / 1)" class="wd-icon-accent"></path>
</g>
</svg>