<svg width="24" height="24" viewBox="0 0 24 24" xmlns="http://www.w3.org/2000/svg" class="wd-icon wd-icon-flash-auto" role="presentation">
<path d="M10.9082 3C11.2404 3 11.481 3.31829 11.3897 3.6377L9.85747 9H14.1387C14.5225 9.00015 14.7627 9.41478 14.5723 9.74805L7.78325 21.6289C7.50743 22.1108 6.769 21.8512 6.85551 21.3027L8.32817 12H4.33989C4.03121 11.9997 3.79611 11.7225 3.84672 11.418L5.18071 3.41797C5.22089 3.17687 5.42945 3 5.67387 3H10.9082Z" fill="oklch(0.3523 0 0 / 1)" class="wd-icon-fill"></path>
<path d="M18.1596 13.04C18.3675 13.0401 18.5539 13.1688 18.6273 13.3633L21.6293 21.3232C21.7526 21.6502 21.511 22 21.1615 22H20.1059C19.8914 22 19.7009 21.8633 19.6322 21.6602L19.1068 20.1055H15.8559L15.3188 21.6631C15.2492 21.8647 15.0594 22 14.8461 22H13.8393C13.4898 21.9999 13.2482 21.6502 13.3715 21.3232L16.3734 13.3633C16.4469 13.1688 16.6333 13.0401 16.8412 13.04H18.1596ZM17.4682 15.0752C17.3018 15.728 17.0583 16.5598 16.6615 17.7373L16.3803 18.5566H18.5688L18.2621 17.6484C17.8909 16.5604 17.6473 15.728 17.4809 15.0752H17.4682Z" fill="oklch(0.3523 0 0 / 1)" class="wd-icon-accent"></path>
</svg>