<svg width="24" height="24" viewBox="0 0 24 24" xmlns="http://www.w3.org/2000/svg" class="wd-icon wd-icon-triangle" role="presentation">
<path d="M10.7814 1.25094C11.5573 0.905917 12.443 0.905959 13.2189 1.25094C13.7667 1.49451 14.1572 1.9385 14.4885 2.40621C14.8226 2.87802 15.1904 3.51426 15.6349 4.28219L21.0851 13.6953C21.5314 14.4662 21.9012 15.1045 22.1447 15.6308C22.386 16.1523 22.5771 16.7139 22.5148 17.3115C22.4265 18.1574 21.983 18.9265 21.2951 19.4267C20.8092 19.7798 20.2275 19.8957 19.6554 19.9482C19.0781 20.0011 18.3407 20 17.4504 20H6.54998C5.65959 20 4.92226 20.0011 4.3449 19.9482C3.77286 19.8957 3.19109 19.7798 2.70525 19.4267C2.01737 18.9265 1.57385 18.1574 1.48552 17.3115C1.42323 16.7139 1.61439 16.1523 1.85564 15.6308C2.09915 15.1045 2.46891 14.4662 2.91521 13.6953L8.36541 4.28219C8.80998 3.51428 9.17773 2.87802 9.51189 2.40621C9.84316 1.93852 10.2337 1.49453 10.7814 1.25094ZM12.4064 3.07808C12.1478 2.96313 11.8525 2.96309 11.5939 3.07808C11.5485 3.09833 11.4148 3.17877 11.1437 3.56148C10.8751 3.94069 10.5603 4.48202 10.0959 5.28414L4.64666 14.6972C4.1806 15.5022 3.8669 16.0474 3.67107 16.4707C3.47328 16.8982 3.46969 17.0542 3.47478 17.1035C3.50418 17.3854 3.65178 17.6418 3.88103 17.8086C3.92097 17.8376 4.05791 17.9129 4.52752 17.956C4.99187 17.9986 5.62016 18 6.54998 18H17.4504C18.3802 18 19.0085 17.9986 19.4728 17.956C19.9421 17.913 20.0792 17.8377 20.1193 17.8086C20.3486 17.6418 20.4962 17.3855 20.5256 17.1035C20.5307 17.0542 20.5271 16.8983 20.3293 16.4707C20.1334 16.0474 19.8198 15.5022 19.3537 14.6972L13.9045 5.28414C13.4401 4.482 13.1252 3.94068 12.8566 3.56148C12.5853 3.17842 12.4517 3.09821 12.4064 3.07808Z" fill="oklch(0.3523 0 0 / 1)" class="wd-icon-fill"></path>
</svg>