<svg width="24" height="24" viewBox="0 0 24 24" xmlns="http://www.w3.org/2000/svg" class="wd-icon wd-icon-join-right" role="presentation">
<g>
<path d="M16.5 5C15.2976 5 14.1719 5.327 13.2061 5.89648C14.6217 7.33783 15.5 9.31643 15.5 11.5C15.5 13.6834 14.6209 15.6606 13.2061 17.1016C14.1719 17.6715 15.2972 18 16.5 18C20.0899 18 23 15.0899 23 11.5C23 7.91015 20.0899 5 16.5 5Z" fill="oklch(0.3523 0 0 / 1)" class="wd-icon-fill"></path>
<path d="M7.5 5C3.91015 5 1 7.91015 1 11.5C1 15.0899 3.91015 18 7.5 18C8.70313 18 9.82888 17.6718 10.7949 17.1016C10.4395 16.7396 10.1192 16.3435 9.83691 15.9189C9.13932 16.2888 8.34462 16.5 7.5 16.5C4.73858 16.5 2.5 14.2614 2.5 11.5C2.5 8.73858 4.73858 6.5 7.5 6.5C8.34394 6.5 9.13861 6.70994 9.83594 7.0791C10.1183 6.65445 10.4393 6.25851 10.7949 5.89648C9.82895 5.32674 8.70273 5 7.5 5Z" fill="oklch(0.3523 0 0 / 1)" class="wd-icon-fill"></path>
<path d="M12 6.81152C11.6381 7.15898 11.3181 7.54902 11.0439 7.97168C10.3854 8.9881 10 10.1987 10 11.5C10 12.7961 10.3824 14.0017 11.0361 15.0156C11.3119 15.4428 11.6347 15.8368 12 16.1875C13.2318 15.0047 14 13.3426 14 11.5C14 9.65713 13.2321 7.9944 12 6.81152Z" fill="oklch(0.3523 0 0 / 1)" class="wd-icon-fill"></path>
</g>
</svg>