<svg width="24" height="24" viewBox="0 0 24 24" xmlns="http://www.w3.org/2000/svg" class="wd-icon wd-icon-document-user-minus" role="presentation">
<g>
<path d="M18 12C21.3137 12 24 14.6863 24 18C24 21.3137 21.3137 24 18 24C14.6863 24 12 21.3137 12 18C12 14.6863 14.6863 12 18 12ZM15.5 17C15.2239 17 15 17.2239 15 17.5V18.5C15 18.7761 15.2239 19 15.5 19H20.5C20.7762 19 21 18.7761 21 18.5V17.5C21 17.2239 20.7762 17 20.5 17H15.5Z" fill="oklch(0.3523 0 0 / 1)" class="wd-icon-fill"></path>
<path d="M14.2002 1C15.0237 1 15.7016 0.998983 16.252 1.04395C16.814 1.08987 17.3312 1.18834 17.8164 1.43555C18.5688 1.81897 19.181 2.43128 19.5645 3.1836C19.8116 3.6687 19.9101 4.18627 19.9561 4.74805C20.001 5.29827 20 5.9767 20 6.79981V9.5C19.9998 10.0521 19.5522 10.5 19 10.5C18.4479 10.5 18.0002 10.0521 18 9.5V6.79981C18 5.94389 17.9996 5.36105 17.9629 4.91113C17.9271 4.47327 17.8618 4.24814 17.7823 4.0918C17.5905 3.71574 17.2843 3.40946 16.9082 3.21778C16.7518 3.13812 16.5272 3.07292 16.0889 3.03711C15.6389 3.00035 15.0566 3 14.2002 3H9.79983C8.94349 3 8.36118 3.00035 7.91116 3.03711C7.47295 3.07292 7.2482 3.13813 7.09182 3.21778C6.71577 3.40946 6.40951 3.71576 6.2178 4.0918C6.13821 4.24814 6.07293 4.47331 6.03713 4.91113C6.00041 5.36104 6.00002 5.9439 6.00002 6.79981V18.5C6.00003 18.9949 6.00273 19.1473 6.0176 19.2607C6.13591 20.158 6.84197 20.8643 7.73928 20.9824C7.85284 20.9973 8.00422 21 8.50002 21H10C10.5523 21 11 21.4477 11 22C11 22.5523 10.5523 23 10 23H8.50002L7.93069 22.9961C7.7635 22.9921 7.61585 22.984 7.47756 22.9658C5.68306 22.7294 4.27078 21.3169 4.0342 19.5225C3.99789 19.2463 4.00002 18.9322 4.00002 18.5V6.79981C4.00002 5.9767 3.99904 5.29826 4.04397 4.74805C4.0899 4.18628 4.18848 3.66868 4.43557 3.1836C4.81902 2.43131 5.43131 1.81897 6.18362 1.43555C6.66885 1.18835 7.18611 1.08987 7.74807 1.04395C8.29843 0.998983 8.97638 1 9.79983 1H14.2002Z" fill="oklch(0.3523 0 0 / 1)" class="wd-icon-fill"></path>
<path d="M9.75002 17.25C10.1642 17.25 10.5 17.5858 10.5 18C10.5 18.4142 10.1642 18.75 9.75002 18.75H8.25002C7.83582 18.75 7.50002 18.4142 7.50002 18C7.50002 17.5858 7.83582 17.25 8.25002 17.25H9.75002Z" fill="oklch(0.3523 0 0 / 1)" class="wd-icon-fill"></path>
<path d="M10.25 14.25C10.6642 14.25 11 14.5858 11 15C11 15.4142 10.6642 15.75 10.25 15.75H8.25002C7.83582 15.75 7.50002 15.4142 7.50002 15C7.50002 14.5858 7.83582 14.25 8.25002 14.25H10.25Z" fill="oklch(0.3523 0 0 / 1)" class="wd-icon-fill"></path>
<path d="M11.999 10C12.6913 10 13.3424 10.1007 13.9102 10.3145C14.2728 10.4513 14.2432 10.9275 13.9102 11.126C13.1562 11.5753 12.4821 12.1446 11.9151 12.8086C11.8153 12.9253 11.6701 12.9949 11.5166 12.9912C10.4495 12.9649 9.60673 12.8562 9.01467 12.7461C8.49696 12.6494 8.17736 12.1185 8.4385 11.6611C9.10146 10.5013 10.4472 10.0002 11.999 10Z" fill="oklch(0.3523 0 0 / 1)" class="wd-icon-fill"></path>
<path d="M11.999 5C13.1036 5 13.999 5.89543 13.999 7C13.999 8.10457 13.1036 9 11.999 9C10.8949 8.99953 9.99905 8.10428 9.99905 7C9.99905 5.89572 10.8949 5.00047 11.999 5Z" fill="oklch(0.3523 0 0 / 1)" class="wd-icon-fill"></path>
</g>
</svg>