<svg width="24" height="24" viewBox="0 0 24 24" xmlns="http://www.w3.org/2000/svg" class="wd-icon wd-icon-lock-plus" role="presentation">
<g>
<path d="M5.00055 19.4993C5.00055 19.7755 5.22441 19.9993 5.50055 19.9993H18.5005C18.7767 19.9993 19.0005 19.7755 19.0005 19.4993L19.0006 10.5C19.0006 10.2239 18.7767 10 18.5006 10H5.50056C5.22442 10 5.00056 10.2239 5.00056 10.5L5.00055 19.4993Z" fill="transparent" class="wd-icon-background"></path>
<path d="M19.0005 19.4993C19.0005 19.7755 18.7767 19.9993 18.5005 19.9993H5.50055C5.22441 19.9993 5.00055 19.7755 5.00055 19.4993L5.00056 10.5C5.00056 10.2239 5.22442 10 5.50056 10H18.5006C18.7767 10 19.0006 10.2239 19.0006 10.5L19.0005 19.4993Z" fill="transparent" class="wd-icon-background"></path>
</g>
<path d="M12 1C15.3137 1 18 3.68629 18 7V9H18.5C19.3284 9 20 9.67157 20 10.5V19.499C20 20.3274 19.3284 20.999 18.5 20.999H5.5C4.67157 20.999 4 20.3275 4 19.499V10.5C4 9.67158 4.67158 9.00001 5.5 9H6V7C6 3.68629 8.68629 1 12 1ZM6 11V18.999H18V11H6ZM12 3C9.79086 3 8 4.79086 8 7V9H16V7C16 4.79086 14.2091 3 12 3Z" fill="oklch(0.3523 0 0 / 1)" class="wd-icon-fill"></path>
<path d="M12.5 12C12.7761 12 13 12.2239 13 12.5V13.9951H14.5049C14.781 13.9951 15.0049 14.219 15.0049 14.4951V15.4951C15.0049 15.7713 14.781 15.9951 14.5049 15.9951H13V17.5C13 17.7761 12.7761 18 12.5 18H11.5C11.2239 18 11 17.7761 11 17.5V15.9951H9.50488C9.22874 15.9951 9.00488 15.7713 9.00488 15.4951V14.4951C9.00488 14.219 9.22874 13.9951 9.50488 13.9951H11V12.5C11 12.2239 11.2239 12 11.5 12H12.5Z" fill="oklch(0.3523 0 0 / 1)" class="wd-icon-accent"></path>
</svg>