<svg width="24" height="24" viewBox="0 0 24 24" xmlns="http://www.w3.org/2000/svg" class="wd-icon wd-icon-tokens" role="presentation">
<g>
<path d="M7.382 6.01141C7.73335 5.89724 8.10868 5.88386 8.46598 5.96941L8.61832 6.01141L8.8234 6.09344C9.01597 6.1849 9.17383 6.30255 9.30485 6.41375C9.47067 6.55452 9.65281 6.73729 9.83903 6.92352L13.0763 10.1608C13.2625 10.347 13.4453 10.5292 13.5861 10.695C13.7345 10.8698 13.8943 11.092 13.9884 11.3815C14.1189 11.7831 14.1188 12.2163 13.9884 12.6179C13.8943 12.9075 13.7345 13.1296 13.5861 13.3044C13.4453 13.4702 13.2626 13.6523 13.0763 13.8386L9.83903 17.0759C9.65275 17.2621 9.47072 17.4448 9.30485 17.5856C9.13 17.7341 8.90804 17.8938 8.61832 17.988C8.21664 18.1185 7.78368 18.1185 7.382 17.988C7.09241 17.8938 6.87027 17.734 6.69547 17.5856C6.52965 17.4448 6.34751 17.2621 6.16129 17.0759L2.92399 13.8386C2.73777 13.6523 2.555 13.4702 2.41422 13.3044C2.26587 13.1296 2.10596 12.9074 2.01188 12.6179C1.8815 12.2163 1.88141 11.7831 2.01188 11.3815C2.10603 11.092 2.26585 10.8698 2.41422 10.695C2.55505 10.5291 2.73773 10.3471 2.92399 10.1608L6.16129 6.92352C6.34757 6.73724 6.52961 6.55456 6.69547 6.41375C6.8703 6.26535 7.09236 6.10552 7.382 6.01141ZM7.9904 7.93816C7.90125 8.01385 7.7859 8.12898 7.57633 8.33855L4.33903 11.5759C4.12951 11.7854 4.01434 11.9008 3.93864 11.9899C3.93586 11.9932 3.9333 11.9967 3.93082 11.9997C3.93327 12.0026 3.93591 12.0062 3.93864 12.0095C4.0143 12.0986 4.12955 12.214 4.33903 12.4235L7.57633 15.6608C7.78576 15.8703 7.90127 15.9855 7.9904 16.0612C7.99346 16.0638 7.99731 16.0658 8.00016 16.068C8.00303 16.0657 8.0068 16.0639 8.00993 16.0612C8.09908 15.9855 8.21443 15.8704 8.42399 15.6608L11.6613 12.4235C11.8709 12.2139 11.986 12.0986 12.0617 12.0095C12.0643 12.0063 12.0662 12.0025 12.0685 11.9997C12.0662 11.9968 12.0643 11.993 12.0617 11.9899C11.986 11.9008 11.8707 11.7853 11.6613 11.5759L8.42399 8.33855C8.21451 8.12907 8.09906 8.01383 8.00993 7.93816C8.00668 7.93543 8.00311 7.9328 8.00016 7.93035C7.99716 7.93284 7.9937 7.93537 7.9904 7.93816Z" fill="oklch(0.3523 0 0 / 1)" class="wd-icon-fill"></path>
<path d="M15.383 6.01141C15.7344 5.89734 16.1097 5.88375 16.467 5.96941L16.6183 6.01141L16.8234 6.09344C17.016 6.18488 17.1738 6.30253 17.3048 6.41375C17.4706 6.55448 17.6529 6.73735 17.839 6.92352L21.0763 10.1608C21.2625 10.347 21.4453 10.5292 21.5861 10.695C21.7344 10.8697 21.8943 11.0921 21.9884 11.3815C22.1189 11.7831 22.1188 12.2163 21.9884 12.6179C21.8943 12.9074 21.7345 13.1296 21.5861 13.3044C21.4453 13.4702 21.2625 13.6523 21.0763 13.8386L17.839 17.0759C17.6528 17.2621 17.4707 17.4448 17.3048 17.5856C17.13 17.734 16.9079 17.8939 16.6183 17.988C16.2169 18.1183 15.7844 18.1183 15.383 17.988C15.0936 17.8939 14.8712 17.7339 14.6965 17.5856C14.5307 17.4449 14.3484 17.262 14.1623 17.0759L13.8185 16.7321C13.4283 16.3416 13.4283 15.7085 13.8185 15.318C14.209 14.9278 14.8421 14.9279 15.2326 15.318L15.5763 15.6608C15.7858 15.8703 15.9013 15.9855 15.9904 16.0612C15.9936 16.064 15.9972 16.0666 16.0002 16.069C16.0033 16.0664 16.0074 16.0642 16.0109 16.0612C16.1001 15.9855 16.2154 15.8704 16.425 15.6608L19.6623 12.4235C19.8717 12.2141 19.986 12.0986 20.0617 12.0095C20.0643 12.0063 20.0662 12.0025 20.0685 11.9997C20.0662 11.9968 20.0643 11.993 20.0617 11.9899C19.986 11.9008 19.8715 11.7851 19.6623 11.5759L16.425 8.33855C16.2155 8.12906 16.1 8.01383 16.0109 7.93816C16.0073 7.93509 16.0034 7.93208 16.0002 7.92937C15.997 7.93198 15.9939 7.93521 15.9904 7.93816C15.9012 8.01385 15.7859 8.12897 15.5763 8.33855L15.2326 8.68133C14.8421 9.07185 14.209 9.07185 13.8185 8.68133C13.4285 8.29076 13.4282 7.65763 13.8185 7.26727L14.1623 6.92352C14.3485 6.73733 14.5307 6.55449 14.6965 6.41375C14.8712 6.26542 15.0935 6.10546 15.383 6.01141Z" fill="oklch(0.3523 0 0 / 1)" class="wd-icon-fill"></path>
</g>
</svg>