<svg width="24" height="24" viewBox="0 0 24 24" xmlns="http://www.w3.org/2000/svg" class="wd-icon wd-icon-box-text-circle" role="presentation">
<path d="M3 4.5C3 4.22386 3.22386 4 3.5 4H20.5C20.7761 4 21 4.22386 21 4.5V19.5C21 19.7761 20.7761 20 20.5 20H3.5C3.22386 20 3 19.7761 3 19.5V4.5Z" fill="transparent" class="wd-icon-background"></path>
<path d="M20.5 3C21.3284 3 22 3.67157 22 4.5V19.5C22 20.3284 21.3284 21 20.5 21H3.5C2.67157 21 2 20.3284 2 19.5V4.5C2 3.67157 2.67157 3 3.5 3H20.5ZM4 19H20V5H4V19Z" fill="oklch(0.3523 0 0 / 1)" class="wd-icon-fill"></path>
<g>
<path d="M11.5 14C11.7761 14 12 14.2239 12 14.5V15.5C12 15.7761 11.7761 16 11.5 16H6C5.72386 16 5.5 15.7761 5.5 15.5V14.5C5.5 14.2239 5.72386 14 6 14H11.5Z" fill="oklch(0.3523 0 0 / 1)" class="wd-icon-accent"></path>
<path d="M15.5 11C16.8807 11 18 12.1193 18 13.5C18 14.8807 16.8807 16 15.5 16C14.1193 16 13 14.8807 13 13.5C13 12.1193 14.1193 11 15.5 11Z" fill="oklch(0.3523 0 0 / 1)" class="wd-icon-accent"></path>
<path d="M11.5 11C11.7761 11 12 11.2239 12 11.5V12.5C12 12.7761 11.7761 13 11.5 13H6C5.72386 13 5.5 12.7761 5.5 12.5V11.5C5.5 11.2239 5.72386 11 6 11H11.5Z" fill="oklch(0.3523 0 0 / 1)" class="wd-icon-accent"></path>
<path d="M17.5 8C17.7761 8 18 8.22386 18 8.5V9.5C18 9.77614 17.7761 10 17.5 10H6C5.72386 10 5.5 9.77614 5.5 9.5V8.5C5.5 8.22386 5.72386 8 6 8H17.5Z" fill="oklch(0.3523 0 0 / 1)" class="wd-icon-accent"></path>
</g>
</svg>