<svg width="24" height="24" viewBox="0 0 24 24" xmlns="http://www.w3.org/2000/svg" class="wd-icon wd-icon-loop" role="presentation">
<g>
<path d="M21.5005 11.9996C21.7764 11.9997 22.0014 12.224 21.9878 12.4996C21.8839 14.5751 21.1354 16.5719 19.8403 18.2076C18.4414 19.9742 16.4858 21.2163 14.2925 21.733C12.099 22.2495 9.79471 22.01 7.75438 21.0533C6.27346 20.3588 4.99561 19.315 4.02099 18.024L3.67431 21.1138C3.64347 21.3882 3.39597 21.5861 3.12157 21.5553L2.12841 21.443C1.85399 21.4121 1.65619 21.1646 1.687 20.8902L2.35692 14.9283C2.38772 14.654 2.63445 14.4564 2.90868 14.4869L8.87157 15.1568C9.14599 15.1876 9.34379 15.4351 9.31298 15.7096L9.20067 16.7027C9.16987 16.977 8.92316 17.1747 8.64892 17.1441L5.60302 16.8023C6.38438 17.8433 7.41248 18.684 8.60399 19.2428C10.2362 20.0081 12.0797 20.1999 13.8345 19.7867C15.5888 19.3734 17.1529 18.3794 18.272 16.9664C19.2872 15.6841 19.8832 14.1242 19.9849 12.4996C20.0022 12.2241 20.2244 11.9996 20.5005 11.9996H21.5005Z" fill="oklch(0.3523 0 0 / 1)" class="wd-icon-fill"></path>
<path d="M9.70849 2.26717C11.902 1.75077 14.2063 1.9901 16.2466 2.94686C17.7263 3.64093 19.0037 4.68359 19.978 5.97322L20.3257 2.88631C20.3567 2.61215 20.6042 2.41508 20.8784 2.44588L21.8716 2.55721C22.146 2.58802 22.3438 2.83554 22.313 3.10994L21.6431 9.07283C21.6121 9.34706 21.3646 9.54407 21.0903 9.51326L15.1284 8.84432C14.8541 8.81351 14.6563 8.5659 14.687 8.29158L14.7983 7.29744C14.8292 7.02318 15.0768 6.82541 15.3511 6.85604L18.397 7.19783C17.6157 6.15713 16.5882 5.3161 15.397 4.7574C13.7648 3.99204 11.9212 3.80036 10.1665 4.21346C8.41199 4.62667 6.84815 5.62081 5.72899 7.03377C4.71362 8.31609 4.11785 9.87592 4.0161 11.5006C3.99881 11.7761 3.77652 12.0005 3.50048 12.0006H2.50048C2.22441 12.0006 1.99952 11.7763 2.01317 11.5006C2.11707 9.425 2.86546 7.42826 4.16063 5.79256C5.55967 4.02598 7.51501 2.7837 9.70849 2.26717Z" fill="oklch(0.3523 0 0 / 1)" class="wd-icon-fill"></path>
</g>
</svg>