<svg width="24" height="24" viewBox="0 0 24 24" xmlns="http://www.w3.org/2000/svg" class="wd-icon wd-icon-hierarchy-chevron-open" role="presentation">
<g>
<path d="M19.5 15C20.8807 15 22 16.1193 22 17.5C22 18.8807 20.8807 20 19.5 20C18.1193 20 17 18.8807 17 17.5C17 16.1193 18.1193 15 19.5 15Z" fill="transparent" class="wd-icon-background"></path>
<path d="M19.5 4C20.8807 4 22 5.11929 22 6.5C22 7.88071 20.8807 9 19.5 9C18.1193 9 17 7.88071 17 6.5C17 5.11929 18.1193 4 19.5 4Z" fill="transparent" class="wd-icon-background"></path>
</g>
<g>
<path d="M19.5001 3C21.4331 3 23.0001 4.567 23.0001 6.5C23.0001 8.433 21.4331 10 19.5001 10C18.1039 9.99997 16.8987 9.18245 16.337 8H16.0001C15.4478 8.00004 15.0001 8.44774 15.0001 9V15L15.005 15.1025C15.0563 15.6066 15.4824 16 16.0001 16H16.337C16.8987 14.8176 18.1039 14 19.5001 14C21.4331 14 23.0001 15.567 23.0001 17.5C23.0001 19.433 21.4331 21 19.5001 21C17.7369 21 16.2789 19.6961 16.0362 18H16.0001C14.395 18 13.0843 16.7394 13.004 15.1543L13.0001 15V9C13.0001 7.34317 14.3432 6.00004 16.0001 6H16.0362C16.2789 4.30392 17.7369 3.00003 19.5001 3ZM19.5001 16C18.6717 16 18.0001 16.6716 18.0001 17.5C18.0001 18.3284 18.6717 19 19.5001 19C20.3285 19 21.0001 18.3284 21.0001 17.5C21.0001 16.6716 20.3285 16 19.5001 16ZM19.5001 5C18.6717 5.00004 18.0001 5.6716 18.0001 6.5C18.0001 7.3284 18.6717 7.99996 19.5001 8C20.3285 8 21.0001 7.32843 21.0001 6.5C21.0001 5.67157 20.3285 5 19.5001 5Z" fill="oklch(0.3523 0 0 / 1)" class="wd-icon-fill"></path>
<path d="M1.81648 9.93164C1.99136 9.71795 2.30688 9.68645 2.52058 9.86133L6.00105 12.709L9.47956 9.86133C9.69338 9.68658 10.0089 9.71876 10.1837 9.93262L10.4991 10.3193L10.8155 10.7061C10.9902 10.9197 10.9588 11.2343 10.7452 11.4092L6.63288 14.7754C6.49505 14.8878 6.33421 14.9581 6.16804 14.9863C6.11259 14.9958 6.05616 15.0009 6.00007 15.001C5.77553 15.0009 5.55034 14.9258 5.36628 14.7754L1.25398 11.4092C1.04041 11.2344 1.00914 10.9188 1.18367 10.7051L1.50007 10.3193L1.81648 9.93164Z" fill="oklch(0.3523 0 0 / 1)" class="wd-icon-fill"></path>
</g>
</svg>