<svg width="24" height="24" viewBox="0 0 24 24" xmlns="http://www.w3.org/2000/svg" class="wd-icon wd-icon-arrow-down-from-line" role="presentation">
<g>
<path d="M11.999 8C12.5512 8 12.9988 8.44788 12.999 9V16.5869L15.293 14.293C15.6835 13.9029 16.3166 13.9027 16.707 14.293C17.0973 14.6834 17.0971 15.3165 16.707 15.707L12.707 19.707C12.3165 20.0972 11.6834 20.0974 11.293 19.707L7.29297 15.707C6.9027 15.3166 6.90279 14.6835 7.29297 14.293C7.68348 13.903 8.31666 13.9028 8.70703 14.293L10.999 16.585V9C10.9992 8.44815 11.4472 8.00044 11.999 8Z" fill="oklch(0.3523 0 0 / 1)" class="wd-icon-fill"></path>
<path d="M18 4C18.5523 4 19 4.44772 19 5C19 5.55228 18.5523 6 18 6H6C5.44772 6 5 5.55228 5 5C5 4.44772 5.44772 4 6 4H18Z" fill="oklch(0.3523 0 0 / 1)" class="wd-icon-fill"></path>
</g>
</svg>