<svg width="24" height="24" viewBox="0 0 24 24" xmlns="http://www.w3.org/2000/svg" class="wd-icon wd-icon-scribble-thick" role="presentation">
<path d="M15.2426 2.6286C15.7067 2.54846 16.3178 2.40585 17.1645 2.86493C17.7143 3.16689 18.0697 3.8226 18.1352 4.26434C18.216 4.7215 18.1738 5.02476 18.1244 5.32586C18.0259 5.85196 17.8542 6.28557 17.6947 6.65789C17.3587 7.42492 16.9806 8.08783 16.5932 8.74286C15.8204 10.0358 15.0025 11.2541 14.1996 12.4675C13.3981 13.6782 12.5963 14.8823 11.8871 16.0876C11.533 16.6931 11.1972 17.3056 10.9525 17.8884C10.8522 18.1258 10.7671 18.382 10.725 18.57C10.8352 18.5574 10.9755 18.5274 11.1283 18.4665C11.515 18.326 11.9434 18.0879 12.3617 17.821C13.2028 17.2812 14.0295 16.6235 14.8471 15.9489C15.6672 15.2712 16.4753 14.5662 17.3275 13.8669C17.7547 13.5183 18.187 13.1723 18.6684 12.8395C18.8998 12.6813 19.1681 12.5078 19.4652 12.362C19.6317 12.2822 19.7843 12.2134 20.0189 12.155C20.2265 12.1104 20.5784 12.0394 20.9916 12.2546C21.446 12.4931 21.6312 12.9881 21.6645 13.2712C21.7072 13.5824 21.6809 13.8067 21.6488 14.0339C21.5805 14.4645 21.4643 14.8343 21.3432 15.1891C21.0961 15.8976 20.8058 16.5559 20.518 17.2067C20.23 17.8559 19.9356 18.4963 19.6772 19.1266C19.5483 19.4428 19.4269 19.7595 19.3402 20.0563C19.3096 20.1606 19.2852 20.2703 19.2689 20.361C19.316 20.3521 19.3709 20.337 19.4311 20.3122C20.1549 20.0188 20.9454 19.3154 21.5912 18.6589C21.6891 18.5549 21.826 18.493 21.9701 18.487C22.114 18.4812 22.2538 18.5315 22.3598 18.6266C22.4657 18.7222 22.5304 18.8567 22.5395 19.0007C22.5483 19.1447 22.5011 19.2871 22.4076 19.3952C21.683 20.1746 21.0021 20.9146 19.893 21.447C19.5486 21.585 18.998 21.7834 18.4037 21.4167C18.1404 21.2433 18.0349 20.9711 17.9994 20.8024C17.9618 20.6224 17.9636 20.492 17.9701 20.3591C17.9847 20.1212 18.03 19.9104 18.0756 19.7214C18.1711 19.3364 18.2907 18.9875 18.4145 18.6423C18.662 17.9591 18.9326 17.3015 19.1898 16.6491C19.4464 15.9983 19.6988 15.3482 19.8891 14.7175C19.9712 14.4427 20.0401 14.1612 20.0756 13.9167C19.9391 14.0015 19.7863 14.1049 19.6488 14.2087C19.2546 14.5058 18.8587 14.8492 18.4643 15.1999C17.6728 15.906 16.8906 16.6465 16.0785 17.3766C15.2649 18.1057 14.4341 18.8327 13.4867 19.4997C13.0084 19.8312 12.5065 20.1521 11.892 20.4098C11.304 20.636 10.4299 20.9553 9.41739 20.4294C8.99223 20.2056 8.67498 19.7358 8.58047 19.3464C8.47992 18.9643 8.49478 18.6658 8.52285 18.3884C8.58235 17.8794 8.72262 17.4531 8.85977 17.0739C9.14761 16.3021 9.49135 15.6213 9.8461 14.9499C10.5536 13.6246 11.3199 12.3675 12.0727 11.1198C12.8247 9.87427 13.5805 8.63782 14.2465 7.40887C14.5217 6.89828 14.781 6.38308 14.9897 5.89325C14.6803 6.07224 14.3624 6.2818 14.0414 6.5075C13.1442 7.14176 12.2545 7.8777 11.3871 8.63543C9.64936 10.1597 7.96681 11.8042 6.32949 13.4782C5.63829 14.1864 4.94788 14.9079 4.29922 15.61C3.97623 15.9617 3.52856 16.1673 3.05117 16.1774C2.57425 16.1876 2.10612 16.0018 1.7543 15.6647C1.40253 15.3275 1.19602 14.8673 1.18594 14.3903C1.1758 13.9132 1.36227 13.4574 1.69961 13.1198C2.42941 12.3936 3.15101 11.7005 3.89492 10.9987C5.6486 9.3497 7.44388 7.73362 9.3461 6.19989C10.2995 5.43563 11.2795 4.68718 12.3529 3.99285C12.8989 3.64369 13.4421 3.31694 14.1078 3.01532C14.4453 2.86554 14.8082 2.72334 15.2426 2.6286Z" fill="oklch(0.3523 0 0 / 1)" class="wd-icon-fill"></path>
</svg>