<svg width="24" height="24" viewBox="0 0 24 24" xmlns="http://www.w3.org/2000/svg" class="wd-icon wd-icon-grad-cap" role="presentation">
<path d="M12 19C9.39112 19 7.00446 18.0485 5.16811 16.4737C5.06015 16.3811 5 16.2451 5 16.1029V11.5C5 11.2239 5.22386 11 5.5 11H18.5C18.7761 11 19 11.2239 19 11.5V16.1029C19 16.2451 18.9398 16.3811 18.8319 16.4737C16.9955 18.0485 14.6089 19 12 19Z" fill="transparent" class="wd-icon-background"></path>
<path d="M20.1514 5.01172C20.4977 5.06466 20.7959 5.29683 20.9288 5.62891L22.9288 10.6289C23.0145 10.8436 23.0203 11.0775 22.9542 11.293C22.983 11.3562 23.0001 11.426 23.0001 11.5V19.5C23.0001 19.7761 22.7762 20 22.5001 20H21.5001C21.2239 20 21.0001 19.7761 21.0001 19.5V12H20.0001V16.1025C20.0001 16.5251 19.8205 16.9425 19.4825 17.2324C17.4717 18.9568 14.8566 20 12.0001 20C9.32208 20 6.85602 19.0833 4.90142 17.5479L4.51764 17.2324C4.17961 16.9425 4.00006 16.5251 4.00006 16.1025V12H2.00006C1.66826 12 1.35795 11.8353 1.17193 11.5605C0.986043 11.2859 0.948301 10.9369 1.07135 10.6289L3.07135 5.62891C3.2232 5.24927 3.59118 5.00003 4.00006 5H20.0001L20.1514 5.01172ZM6.00006 15.8633C7.63647 17.1985 9.72307 18 12.0001 18C14.2771 18 16.3636 17.1985 18.0001 15.8633V12H6.00006V15.8633ZM3.4776 10H20.5225L19.3233 7H4.67682L3.4776 10Z" fill="oklch(0.3523 0 0 / 1)" class="wd-icon-fill"></path>
</svg>