<svg width="24" height="24" viewBox="0 0 24 24" xmlns="http://www.w3.org/2000/svg" class="wd-icon wd-icon-background-color" role="presentation">
<g>
<path d="M19.283 12.6291C19.379 12.4614 19.6215 12.4614 19.7175 12.6291L20.8923 14.6858C21.251 15.3135 21.1456 16.1041 20.6345 16.6155C20.0083 17.2417 18.9922 17.2417 18.366 16.6155C17.8549 16.1041 17.7494 15.3135 18.1082 14.6858L19.283 12.6291Z" fill="oklch(0.3523 0 0 / 1)" class="wd-icon-fill"></path>
<path d="M11.073 1.97581C11.6753 1.78016 12.3242 1.78024 12.9265 1.97581C13.3303 2.10701 13.6593 2.33441 13.9617 2.59105C14.2551 2.84013 14.5853 3.17167 14.9695 3.55589L17.4441 6.0305C17.8283 6.41473 18.1598 6.74492 18.4089 7.03831C18.6656 7.3407 18.8929 7.6696 19.0242 8.07347C19.2199 8.6759 19.2199 9.32456 19.0242 9.92699C18.8929 10.3308 18.6656 10.6598 18.4089 10.9621C18.1599 11.2555 17.8283 11.5858 17.4441 11.97L14.9695 14.4446C14.5853 14.8287 14.255 15.1604 13.9617 15.4094C13.6594 15.666 13.3303 15.8935 12.9265 16.0246C12.3242 16.2202 11.6753 16.2203 11.073 16.0246C10.6693 15.8934 10.3401 15.666 10.0378 15.4094C9.74446 15.1603 9.41424 14.8288 9.03003 14.4446L6.55542 11.97C6.1712 11.5857 5.83966 11.2555 5.59058 10.9621C5.33392 10.6598 5.10655 10.3308 4.97534 9.92699C4.77968 9.32465 4.77973 8.67582 4.97534 8.07347C5.10653 7.66972 5.33397 7.34062 5.59058 7.03831C5.83963 6.74496 6.17125 6.41468 6.55542 6.0305L9.03003 3.55589C9.41419 3.17174 9.74449 2.84013 10.0378 2.59105C10.3401 2.33443 10.6693 2.10707 11.073 1.97581ZM12.3084 3.87718C12.1079 3.81227 11.8916 3.81218 11.6912 3.87718C11.6383 3.89443 11.5397 3.93985 11.3328 4.11546C11.1161 4.29942 10.8515 4.5625 10.4441 4.96996L7.96949 7.44456C7.56199 7.85206 7.29892 8.11658 7.11499 8.33324C6.93908 8.54055 6.89384 8.63892 6.87671 8.69163C6.84423 8.79186 6.82885 8.89611 6.82886 9.00023H17.1716C17.1716 8.89602 17.1553 8.79194 17.1228 8.69163C17.1057 8.63888 17.0606 8.54072 16.8845 8.33324C16.7006 8.11656 16.4376 7.85212 16.03 7.44456L13.5554 4.96996C13.1479 4.5624 12.8834 4.29941 12.6668 4.11546C12.4594 3.93949 12.3611 3.89431 12.3084 3.87718Z" fill="oklch(0.3523 0 0 / 1)" class="wd-icon-fill"></path>
</g>
<path d="M19.4004 18C19.9602 18 20.2402 18.0004 20.4541 18.1094C20.6421 18.2052 20.7948 18.3579 20.8906 18.5459C20.9996 18.7598 21 19.0398 21 19.5996V20.4004C21 20.9602 20.9996 21.2402 20.8906 21.4541C20.7948 21.6421 20.6421 21.7948 20.4541 21.8906C20.2402 21.9996 19.9602 22 19.4004 22H4.59961C4.03982 22 3.75976 21.9996 3.5459 21.8906C3.35793 21.7948 3.20522 21.6421 3.10938 21.4541C3.00041 21.2402 3 20.9602 3 20.4004V19.5996C3 19.0398 3.00041 18.7598 3.10938 18.5459C3.20522 18.3579 3.35793 18.2052 3.5459 18.1094C3.75976 18.0004 4.03982 18 4.59961 18H19.4004Z" fill="oklch(0.3523 0 0 / 1)" class="wd-icon-accent"></path>
</svg>