<svg width="24" height="24" viewBox="0 0 24 24" xmlns="http://www.w3.org/2000/svg" class="wd-icon wd-icon-upload" role="presentation">
<path d="M4 3.5C4 3.22386 4.22386 3 4.5 3L19.5 3C19.7761 3 20 3.22386 20 3.5V4.5C20 4.77614 19.7761 5 19.5 5L4.5 5C4.22386 5 4 4.77614 4 4.5L4 3.5Z" fill="oklch(0.3523 0 0 / 1)" class="wd-icon-fill"></path>
<path d="M11.3671 7.22475C11.5974 7.03677 11.8914 6.96644 12.1689 7.01381C12.335 7.04206 12.4959 7.11306 12.6337 7.22572L16.746 10.5919C16.9594 10.7667 16.9907 11.0814 16.8163 11.2951L16.4999 11.6818L16.1845 12.0685C16.0097 12.2824 15.6942 12.3136 15.4804 12.1388L12.9999 10.1095V21.5001C12.9998 21.776 12.7758 21.9999 12.4999 22.0001H11.4999C11.224 21.9999 11.0001 21.776 10.9999 21.5001V10.1095L8.52042 12.1388C8.30681 12.3134 7.99217 12.2819 7.81729 12.0685L7.1835 11.2941C7.00921 11.0804 7.04046 10.7657 7.25382 10.591L11.3671 7.22475Z" fill="oklch(0.3523 0 0 / 1)" class="wd-icon-accent"></path>
</svg>