<svg width="24" height="24" viewBox="0 0 24 24" xmlns="http://www.w3.org/2000/svg" class="wd-icon wd-icon-document-worksheets" role="presentation">
<g>
<path d="M11.248 16.5H9.34961C9.05744 16.5 8.88298 16.4998 8.75391 16.4893C8.63384 16.4794 8.62034 16.4643 8.63672 16.4727C8.58968 16.4487 8.55131 16.4103 8.52734 16.3633C8.53569 16.3797 8.52058 16.3662 8.51074 16.2461C8.5002 16.117 8.5 15.9426 8.5 15.6504V14.5H11.248V16.5Z" fill="transparent" class="wd-icon-background"></path>
<path d="M15.5 15.6504C15.5 15.9426 15.4998 16.117 15.4893 16.2461C15.4794 16.3662 15.4643 16.3797 15.4727 16.3633C15.4487 16.4103 15.4103 16.4487 15.3633 16.4727C15.3797 16.4643 15.3662 16.4794 15.2461 16.4893C15.117 16.4998 14.9426 16.5 14.6504 16.5H12.748V14.5H15.5V15.6504Z" fill="transparent" class="wd-icon-background"></path>
<path d="M11.248 13H8.5V11H11.248V13Z" fill="transparent" class="wd-icon-background"></path>
<path d="M15.5 13H12.748V11H15.5V13Z" fill="transparent" class="wd-icon-background"></path>
<path d="M11.248 9.5H8.5V8.34961C8.5 8.05744 8.5002 7.88298 8.51074 7.75391C8.52058 7.63384 8.53569 7.62034 8.52734 7.63672C8.55131 7.58968 8.58968 7.55131 8.63672 7.52734C8.62034 7.53569 8.63384 7.52058 8.75391 7.51074C8.88298 7.5002 9.05744 7.5 9.34961 7.5H11.248V9.5Z" fill="transparent" class="wd-icon-background"></path>
<path d="M14.6504 7.5C14.9426 7.5 15.117 7.5002 15.2461 7.51074C15.3662 7.52058 15.3797 7.53569 15.3633 7.52734C15.4103 7.55131 15.4487 7.58968 15.4727 7.63672C15.4643 7.62034 15.4794 7.63384 15.4893 7.75391C15.4998 7.88298 15.5 8.05744 15.5 8.34961V9.5H12.748V7.5H14.6504Z" fill="transparent" class="wd-icon-background"></path>
<path d="M14.1982 3C15.0546 3 15.6369 3.00035 16.0869 3.03711C16.5252 3.07292 16.7499 3.13811 16.9062 3.21777C17.2824 3.40948 17.5885 3.71566 17.7803 4.0918C17.8599 4.24816 17.9251 4.47306 17.9609 4.91113C17.9977 5.36109 17.998 5.9437 17.998 6.7998V17.2002C17.998 18.0563 17.9977 18.6389 17.9609 19.0889C17.9251 19.5269 17.8599 19.7518 17.7803 19.9082C17.5885 20.2843 17.2824 20.5905 16.9062 20.7822C16.7499 20.8619 16.5252 20.9271 16.0869 20.9629C15.6369 20.9996 15.0546 21 14.1982 21H9.79785C8.94147 21 8.35921 20.9996 7.90918 20.9629C7.47087 20.9271 7.24624 20.8619 7.08984 20.7822C6.7137 20.5905 6.40754 20.2843 6.21582 19.9082C6.13619 19.7518 6.07097 19.5269 6.03516 19.0889C5.99842 18.6389 5.99805 18.0563 5.99805 17.2002V6.7998C5.99805 5.9437 5.99842 5.36109 6.03516 4.91113C6.07097 4.47306 6.13619 4.24816 6.21582 4.0918C6.40754 3.71567 6.7137 3.40948 7.08984 3.21777C7.24624 3.13811 7.47087 3.07292 7.90918 3.03711C8.35921 3.00035 8.94148 3 9.79785 3H14.1982ZM9.34961 6C9.08211 6 8.83611 5.99991 8.63184 6.0166C8.41879 6.03403 8.18527 6.07314 7.95508 6.19043C7.62597 6.35818 7.35818 6.62597 7.19043 6.95508C7.07314 7.18527 7.03403 7.41879 7.0166 7.63184C6.99991 7.83611 7 8.08211 7 8.34961V15.6504C7 15.9179 6.99991 16.1639 7.0166 16.3682C7.03403 16.5812 7.07314 16.8147 7.19043 17.0449C7.35818 17.374 7.62597 17.6418 7.95508 17.8096C8.18527 17.9269 8.41879 17.966 8.63184 17.9834C8.83611 18.0001 9.08211 18 9.34961 18H14.6504C14.9179 18 15.1639 18.0001 15.3682 17.9834C15.5812 17.966 15.8147 17.9269 16.0449 17.8096C16.374 17.6418 16.6418 17.374 16.8096 17.0449C16.9269 16.8147 16.966 16.5812 16.9834 16.3682C17.0001 16.1639 17 15.9179 17 15.6504V8.34961C17 8.08211 17.0001 7.83611 16.9834 7.63184C16.966 7.41879 16.9269 7.18527 16.8096 6.95508C16.6418 6.62597 16.374 6.35818 16.0449 6.19043C15.8147 6.07314 15.5812 6.03403 15.3682 6.0166C15.1639 5.99991 14.9179 6 14.6504 6H9.34961Z" fill="transparent" class="wd-icon-background"></path>
</g>
<path d="M14.1982 1C15.0216 1 15.6997 0.998999 16.25 1.04395C16.812 1.08987 17.3292 1.18835 17.8145 1.43555C18.5669 1.81898 19.179 2.43118 19.5625 3.1836C19.8097 3.66881 19.9082 4.18612 19.9541 4.74805C19.9991 5.29834 19.998 5.97653 19.998 6.79981V17.2002C19.998 18.0235 19.999 18.7017 19.9541 19.252C19.9082 19.8138 19.8097 20.3312 19.5625 20.8164C19.179 21.5688 18.5668 22.181 17.8145 22.5645C17.3292 22.8116 16.8119 22.9101 16.25 22.9561C15.6997 23.001 15.0216 23 14.1982 23H9.79785C8.97447 23 8.29642 23.001 7.7461 22.9561C7.18413 22.9101 6.66688 22.8117 6.18164 22.5645C5.42925 22.181 4.81703 21.5688 4.4336 20.8164C4.18642 20.3312 4.08792 19.8139 4.04199 19.252C3.99705 18.7017 3.99805 18.0235 3.99805 17.2002V6.79981C3.99805 5.97655 3.99705 5.29833 4.04199 4.74805C4.08792 4.18619 4.18646 3.66875 4.4336 3.1836C4.81702 2.43127 5.42933 1.81899 6.18164 1.43555C6.66685 1.18835 7.18417 1.08988 7.7461 1.04395C8.29642 0.998985 8.97448 1 9.79785 1H14.1982ZM9.79785 3C8.9416 3 8.35918 3.00036 7.90918 3.03711C7.47102 3.07293 7.24621 3.13812 7.08985 3.21778C6.71378 3.40949 6.40752 3.71573 6.21582 4.0918C6.13621 4.24816 6.07096 4.47313 6.03516 4.91113C5.99842 5.3611 5.99805 5.9437 5.99805 6.79981V17.2002C5.99805 18.0563 5.99842 18.6389 6.03516 19.0889C6.07097 19.527 6.13619 19.7518 6.21582 19.9082C6.40753 20.2844 6.71371 20.5905 7.08985 20.7822C7.24622 20.8619 7.47092 20.9271 7.90918 20.9629C8.35918 20.9996 8.94159 21 9.79785 21H14.1982C15.0545 21 15.6369 20.9996 16.0869 20.9629C16.5251 20.9271 16.7499 20.8619 16.9063 20.7822C17.2824 20.5905 17.5885 20.2843 17.7803 19.9082C17.8599 19.7518 17.9251 19.5269 17.9609 19.0889C17.9977 18.6389 17.998 18.0563 17.998 17.2002V6.79981C17.998 5.94368 17.9977 5.3611 17.9609 4.91113C17.9251 4.47296 17.8599 4.24817 17.7803 4.0918C17.5885 3.71563 17.2824 3.40948 16.9063 3.21778C16.7499 3.13813 16.5252 3.07292 16.0869 3.03711C15.6369 3.00037 15.0545 3 14.1982 3H9.79785Z" fill="oklch(0.3523 0 0 / 1)" class="wd-icon-fill"></path>
<path d="M14.6504 6C14.9179 6 15.1639 5.99991 15.3682 6.0166C15.5812 6.03403 15.8147 6.07314 16.0449 6.19043C16.374 6.35818 16.6418 6.62597 16.8096 6.95508C16.9269 7.18527 16.966 7.41879 16.9834 7.63184C17.0001 7.83611 17 8.08211 17 8.34961V15.6504C17 15.9179 17.0001 16.1639 16.9834 16.3682C16.966 16.5812 16.9269 16.8147 16.8096 17.0449C16.6418 17.374 16.374 17.6418 16.0449 17.8096C15.8147 17.9269 15.5812 17.966 15.3682 17.9834C15.1639 18.0001 14.9179 18 14.6504 18H9.34961C9.08211 18 8.83611 18.0001 8.63184 17.9834C8.41879 17.966 8.18527 17.9269 7.95508 17.8096C7.62597 17.6418 7.35818 17.374 7.19043 17.0449C7.07314 16.8147 7.03403 16.5812 7.0166 16.3682C6.99991 16.1639 7 15.9179 7 15.6504V8.34961C7 8.08211 6.99991 7.83611 7.0166 7.63184C7.03403 7.41879 7.07314 7.18527 7.19043 6.95508C7.35818 6.62597 7.62597 6.35818 7.95508 6.19043C8.18527 6.07314 8.41879 6.03403 8.63184 6.0166C8.83611 5.99991 9.08211 6 9.34961 6H14.6504ZM12.748 14.5V16.5H14.6504C14.9426 16.5 15.117 16.4998 15.2461 16.4893C15.3662 16.4794 15.3797 16.4643 15.3633 16.4727C15.4103 16.4487 15.4487 16.4103 15.4727 16.3633C15.4643 16.3797 15.4794 16.3662 15.4893 16.2461C15.4998 16.117 15.5 15.9426 15.5 15.6504V14.5H12.748ZM8.5 15.6504C8.5 15.9426 8.5002 16.117 8.51074 16.2461C8.52058 16.3662 8.53569 16.3797 8.52734 16.3633C8.55131 16.4103 8.58968 16.4487 8.63672 16.4727C8.62034 16.4643 8.63384 16.4794 8.75391 16.4893C8.88298 16.4998 9.05744 16.5 9.34961 16.5H11.248V14.5H8.5V15.6504ZM12.748 11V13H15.5V11H12.748ZM8.5 13H11.248V11H8.5V13ZM12.748 9.5H15.5V8.34961C15.5 8.05744 15.4998 7.88298 15.4893 7.75391C15.4794 7.63384 15.4643 7.62034 15.4727 7.63672C15.4487 7.58968 15.4103 7.55131 15.3633 7.52734C15.3797 7.53569 15.3662 7.52058 15.2461 7.51074C15.117 7.5002 14.9426 7.5 14.6504 7.5H12.748V9.5ZM9.34961 7.5C9.05744 7.5 8.88298 7.5002 8.75391 7.51074C8.63384 7.52058 8.62034 7.53569 8.63672 7.52734C8.58968 7.55131 8.55131 7.58968 8.52734 7.63672C8.53569 7.62034 8.52058 7.63384 8.51074 7.75391C8.5002 7.88298 8.5 8.05744 8.5 8.34961V9.5H11.248V7.5H9.34961Z" fill="oklch(0.3523 0 0 / 1)" class="wd-icon-accent"></path>
</svg>