<svg width="24" height="24" viewBox="0 0 24 24" xmlns="http://www.w3.org/2000/svg" class="wd-icon wd-icon-powerpoint" role="presentation">
<g>
<path d="M21.5 2C22.3284 2 23 2.67157 23 3.5V20.5C23 21.3284 22.3284 22 21.5 22H3.5C2.67157 22 2 21.3284 2 20.5V19.5C2 19.2239 2.22386 19 2.5 19H3.5C3.77614 19 4 19.2239 4 19.5V20H21V4H4V4.5C4 4.77614 3.77614 5 3.5 5H2.5C2.22386 5 2 4.77614 2 4.5V3.5C2 2.67157 2.67157 2 3.5 2H21.5Z" fill="oklch(0.3523 0 0 / 1)" class="wd-icon-fill"></path>
<path d="M5.64844 6.99023C7.65041 6.99023 9.09469 8.14851 9.09473 10.1934C9.09473 12.224 7.65044 13.3682 5.64844 13.3682H3.21777V16.5C3.21777 16.776 2.99377 16.9998 2.71777 17H1.5C1.22386 17 1 16.7761 1 16.5V7.49902C1 7.22329 1.22329 6.9996 1.49902 6.99902L5.64844 6.99023ZM3.21777 11.6377H5.09082C6.14899 11.6377 6.79199 11.0799 6.79199 10.1934C6.79196 9.30682 6.14896 8.72072 5.09082 8.7207H3.21777V11.6377Z" fill="oklch(0.3523 0 0 / 1)" class="wd-icon-fill"></path>
<path d="M14 13H17.9639C17.7212 14.6961 16.2632 16 14.5 16C12.567 16 11 14.433 11 12.5C11 10.7368 12.3039 9.27879 14 9.03613V13Z" fill="oklch(0.3523 0 0 / 1)" class="wd-icon-fill"></path>
<path d="M15 8C15.5252 8 16.0451 8.10376 16.5303 8.30469C17.0156 8.50571 17.4567 8.80044 17.8281 9.17188C18.1996 9.54331 18.4943 9.98442 18.6953 10.4697C18.8962 10.9549 19 11.4748 19 12H15V8Z" fill="oklch(0.3523 0 0 / 1)" class="wd-icon-fill"></path>
</g>
</svg>