<svg width="24" height="24" viewBox="0 0 24 24" xmlns="http://www.w3.org/2000/svg" class="wd-icon wd-icon-range-period" role="presentation">
<path d="M18 9C19.6569 9 21 10.3431 21 12C21 13.6569 19.6569 15 18 15C16.6941 15 15.5859 14.1647 15.1738 13H8.82617C8.41406 14.1647 7.30585 15 6 15C4.34315 15 3 13.6569 3 12C3 10.3431 4.34315 9 6 9C7.30585 9 8.41406 9.83532 8.82617 11H15.1738C15.5859 9.83532 16.6941 9 18 9ZM6 11C5.44772 11 5 11.4477 5 12C5 12.5523 5.44772 13 6 13C6.55228 13 7 12.5523 7 12C7 11.4477 6.55228 11 6 11ZM18 11C17.4477 11 17 11.4477 17 12C17 12.5523 17.4477 13 18 13C18.5523 13 19 12.5523 19 12C19 11.4477 18.5523 11 18 11Z" fill="oklch(0.3523 0 0 / 1)" class="wd-icon-fill"></path>
</svg>