<svg width="24" height="24" viewBox="0 0 24 24" xmlns="http://www.w3.org/2000/svg" class="wd-icon wd-icon-formula-bolt" role="presentation">
<g>
<path d="M19.0502 11C19.3824 11 19.6219 11.3183 19.5307 11.6377L18.5707 15H21.1371C21.521 15 21.762 15.4147 21.5717 15.748L17.64 22.6289C17.3644 23.1113 16.6248 22.8514 16.7113 22.3027L17.5512 17H15.0893C14.7803 17 14.5454 16.7227 14.5961 16.418L15.4291 11.418C15.4693 11.1769 15.6779 11.0001 15.9223 11H19.0502Z" fill="oklch(0.3523 0 0 / 1)" class="wd-icon-fill"></path>
<path d="M8.88712 3C9.04504 3.00023 9.16369 3.14506 9.13223 3.2998L8.93008 4.28613C8.90625 4.40229 8.80351 4.48615 8.68497 4.48633H7.86075C7.21307 4.48633 6.78074 4.79077 6.61563 5.59082L6.52579 6.01465H7.7377C7.89642 6.01487 8.01562 6.16115 7.98282 6.31641L7.77188 7.30273C7.74728 7.41786 7.6454 7.50067 7.52774 7.50098H6.20841L5.0795 12.8018C5.05497 12.9169 4.95302 12.9996 4.83536 13H3.41544C3.25658 12.9999 3.1384 12.8537 3.1713 12.6982L4.27481 7.50098H3.45645C3.29662 7.50086 3.17765 7.35235 3.21231 7.19629L3.43204 6.20996C3.45767 6.09589 3.55921 6.01465 3.67618 6.01465H4.59024L4.77481 5.14648C5.07962 3.73683 5.84164 3 7.41641 3H8.88712Z" fill="oklch(0.3523 0 0 / 1)" class="wd-icon-fill"></path>
<path d="M10.3715 6C10.4688 6.00022 10.5573 6.0572 10.5981 6.14551L11.5033 8.11035H11.5287L13.1293 6.09473C13.1767 6.0351 13.2494 6 13.3256 6H15.1293C15.3461 6.00029 15.4598 6.25752 15.3139 6.41797L12.4301 9.58398L14.0736 12.6318C14.1628 12.7982 14.0417 12.9997 13.8529 13H12.3197C12.2245 13 12.1372 12.9458 12.0951 12.8604L11.0844 10.8027H11.059L9.38126 12.9062C9.3339 12.9655 9.26178 12.9999 9.18594 13H7.36075C7.14318 13 7.02915 12.7414 7.17618 12.5811L10.1957 9.29199L8.62051 6.36914C8.53085 6.20271 8.6513 6.00032 8.84024 6H10.3715Z" fill="oklch(0.3523 0 0 / 1)" class="wd-icon-fill"></path>
</g>
</svg>