<svg width="24" height="24" viewBox="0 0 24 24" xmlns="http://www.w3.org/2000/svg" class="wd-icon wd-icon-x-small" role="presentation">
<path d="M15.9393 6.64582C16.1345 6.45069 16.4511 6.4508 16.6464 6.64582L17.3534 7.35285C17.5486 7.54809 17.5486 7.86461 17.3534 8.05988L13.4139 11.9993L17.3534 15.9388C17.5486 16.134 17.5485 16.4505 17.3534 16.6458L16.6464 17.3528C16.4511 17.5481 16.1346 17.5481 15.9393 17.3528L11.9999 13.4134L8.06043 17.3528C7.86516 17.5481 7.54865 17.5481 7.35339 17.3528L6.64636 16.6458C6.45133 16.4505 6.45119 16.134 6.64636 15.9388L10.5858 11.9993L6.64636 8.05988C6.45127 7.8646 6.45116 7.54805 6.64636 7.35285L7.35339 6.64582C7.54861 6.45073 7.86519 6.45076 8.06043 6.64582L11.9999 10.5853L15.9393 6.64582Z" fill="oklch(0.3523 0 0 / 1)" class="wd-icon-fill"></path>
</svg>