<svg width="24" height="24" viewBox="0 0 24 24" xmlns="http://www.w3.org/2000/svg" class="wd-icon wd-icon-grid-dots" role="presentation">
<g>
<path d="M6.00391 16.5C6.83233 16.5 7.50391 17.1716 7.50391 18C7.50391 18.8284 6.83233 19.5 6.00391 19.5C5.17548 19.5 4.50391 18.8284 4.50391 18C4.50391 17.1716 5.17548 16.5 6.00391 16.5Z" fill="oklch(0.3523 0 0 / 1)" class="wd-icon-fill"></path>
<path d="M12.0039 16.5C12.8323 16.5 13.5039 17.1716 13.5039 18C13.5039 18.8284 12.8323 19.5 12.0039 19.5C11.1755 19.5 10.5039 18.8284 10.5039 18C10.5039 17.1716 11.1755 16.5 12.0039 16.5Z" fill="oklch(0.3523 0 0 / 1)" class="wd-icon-fill"></path>
<path d="M18.0039 16.5C18.8323 16.5 19.5039 17.1716 19.5039 18C19.5039 18.8284 18.8323 19.5 18.0039 19.5C17.1755 19.5 16.5039 18.8284 16.5039 18C16.5039 17.1716 17.1755 16.5 18.0039 16.5Z" fill="oklch(0.3523 0 0 / 1)" class="wd-icon-fill"></path>
<path d="M6.00391 10.5C6.83233 10.5 7.50391 11.1716 7.50391 12C7.50391 12.8284 6.83233 13.5 6.00391 13.5C5.17548 13.5 4.50391 12.8284 4.50391 12C4.50391 11.1716 5.17548 10.5 6.00391 10.5Z" fill="oklch(0.3523 0 0 / 1)" class="wd-icon-fill"></path>
<path d="M12.0039 10.5C12.8323 10.5 13.5039 11.1716 13.5039 12C13.5039 12.8284 12.8323 13.5 12.0039 13.5C11.1755 13.5 10.5039 12.8284 10.5039 12C10.5039 11.1716 11.1755 10.5 12.0039 10.5Z" fill="oklch(0.3523 0 0 / 1)" class="wd-icon-fill"></path>
<path d="M18.0039 10.5C18.8323 10.5 19.5039 11.1716 19.5039 12C19.5039 12.8284 18.8323 13.5 18.0039 13.5C17.1755 13.5 16.5039 12.8284 16.5039 12C16.5039 11.1716 17.1755 10.5 18.0039 10.5Z" fill="oklch(0.3523 0 0 / 1)" class="wd-icon-fill"></path>
<path d="M6.00391 4.5C6.83233 4.5 7.50391 5.17157 7.50391 6C7.50391 6.82843 6.83233 7.5 6.00391 7.5C5.17548 7.5 4.50391 6.82843 4.50391 6C4.50391 5.17157 5.17548 4.5 6.00391 4.5Z" fill="oklch(0.3523 0 0 / 1)" class="wd-icon-fill"></path>
<path d="M12.0039 4.5C12.8323 4.5 13.5039 5.17157 13.5039 6C13.5039 6.82843 12.8323 7.5 12.0039 7.5C11.1755 7.5 10.5039 6.82843 10.5039 6C10.5039 5.17157 11.1755 4.5 12.0039 4.5Z" fill="oklch(0.3523 0 0 / 1)" class="wd-icon-fill"></path>
<path d="M18.0039 4.5C18.8323 4.5 19.5039 5.17157 19.5039 6C19.5039 6.82843 18.8323 7.5 18.0039 7.5C17.1755 7.5 16.5039 6.82843 16.5039 6C16.5039 5.17157 17.1755 4.5 18.0039 4.5Z" fill="oklch(0.3523 0 0 / 1)" class="wd-icon-fill"></path>
</g>
</svg>