<svg width="24" height="24" viewBox="0 0 24 24" xmlns="http://www.w3.org/2000/svg" class="wd-icon wd-icon-audio" role="presentation">
<g>
<path d="M10.9248 5.22894C11.548 5.20562 12.1473 5.4742 12.544 5.9555C12.8627 6.34252 12.9365 6.81945 12.9678 7.16742C13.0013 7.54 13 8.01812 13 8.56293V15.4379C13 15.9827 13.0013 16.4609 12.9678 16.8334C12.9364 17.1814 12.8626 17.6584 12.544 18.0453C12.1473 18.5265 11.5479 18.7952 10.9248 18.7719C10.4237 18.753 10.0182 18.4914 9.73732 18.2836C9.43647 18.0611 9.08027 17.7424 8.67287 17.3803L7.29005 16.1518C7.20009 16.0718 7.15486 16.0319 7.12111 16.0043L7.11915 16.0024H7.11622C7.07269 16.0005 7.01204 16.0004 6.89162 16.0004H5.59962C5.3363 16.0004 5.0781 16.0015 4.86134 15.9838C4.63287 15.9651 4.36301 15.9208 4.09181 15.7827C3.71562 15.5909 3.40952 15.2848 3.21779 14.9086C3.07962 14.6375 3.03532 14.3676 3.01662 14.1391C2.99891 13.9224 3.00001 13.6641 3.00001 13.4008V10.6C3.00001 10.3368 2.99892 10.0785 3.01662 9.86175C3.03531 9.63333 3.07968 9.36339 3.21779 9.09222C3.40948 8.71605 3.71567 8.40994 4.09181 8.2182C4.36299 8.08003 4.63288 8.03573 4.86134 8.01703C5.0781 7.99932 5.3363 8.00043 5.59962 8.00043H6.89162C7.01202 8.00043 7.07269 8.00032 7.11622 7.99847L7.11915 7.9975L7.12111 7.99652C7.15483 7.96902 7.20024 7.92889 7.29005 7.84906L8.67287 6.62054C9.08017 6.25849 9.43651 5.93977 9.73732 5.71722C10.0182 5.50945 10.4237 5.24789 10.9248 5.22894ZM10.9268 7.32562C10.7157 7.48181 10.4379 7.72635 10.001 8.11468L8.61915 9.34418C8.48356 9.46472 8.30685 9.62868 8.09376 9.7475C7.96682 9.81824 7.83232 9.87485 7.69337 9.91644L7.55275 9.95355L7.37404 9.98285C7.19732 10.0036 7.02767 10.0004 6.89162 10.0004H5.59962C5.30346 10.0004 5.14094 10.0016 5.02443 10.0112C5.0204 10.0115 5.01636 10.0118 5.01271 10.0121C5.01231 10.0161 5.01112 10.0204 5.01076 10.0248C5.00125 10.1414 5.00001 10.304 5.00001 10.6V13.4008C5.00002 13.6969 5.00124 13.8595 5.01076 13.976C5.01112 13.9801 5.01237 13.9841 5.01271 13.9877C5.0164 13.9881 5.02036 13.9893 5.02443 13.9897C5.14094 13.9992 5.30346 14.0004 5.59962 14.0004H6.89162C7.07308 14.0004 7.31435 13.9945 7.55275 14.0473C7.7421 14.0893 7.92436 14.1589 8.09376 14.2534C8.30697 14.3722 8.48353 14.5361 8.61915 14.6567L10.001 15.8862C10.438 16.2746 10.7157 16.5191 10.9268 16.6752C10.941 16.6857 10.9564 16.6928 10.9688 16.7016C10.9704 16.6869 10.974 16.6709 10.9756 16.6537C10.9991 16.3923 11 16.0224 11 15.4379V8.56293C11 7.97846 10.9991 7.60857 10.9756 7.34711C10.974 7.32959 10.9704 7.3133 10.9688 7.29828C10.9563 7.30708 10.9411 7.31504 10.9268 7.32562Z" fill="oklch(0.3523 0 0 / 1)" class="wd-icon-fill"></path>
<path d="M19.043 5.95648C19.378 5.71338 19.8464 5.78775 20.0899 6.1225C21.3311 7.83097 22 9.88863 22 12.0004L21.9922 12.3959C21.9141 14.3682 21.2535 16.2767 20.0899 17.8784C19.8464 18.213 19.3779 18.2875 19.043 18.0444C18.708 17.8009 18.6337 17.3316 18.877 16.9965C19.866 15.6351 20.4269 14.0128 20.4932 12.3364L20.5 12.0004C20.5 10.2055 19.932 8.4565 18.877 7.00433C18.6336 6.6693 18.7081 6.19997 19.043 5.95648Z" fill="oklch(0.3523 0 0 / 1)" class="wd-icon-fill"></path>
<path d="M15.8067 8.30804C16.1417 8.06459 16.611 8.13902 16.8545 8.47406C17.5991 9.49906 18 10.7335 18 12.0004L17.9951 12.2377C17.9483 13.4209 17.5525 14.5659 16.8545 15.5268C16.611 15.8618 16.1417 15.9362 15.8067 15.6928C15.4718 15.4494 15.3976 14.981 15.6406 14.6459C16.1295 13.9731 16.4212 13.1795 16.4863 12.3549L16.5 12.0004C16.5 11.0501 16.1992 10.1237 15.6406 9.35492C15.3975 9.01991 15.4719 8.55147 15.8067 8.30804Z" fill="oklch(0.3523 0 0 / 1)" class="wd-icon-fill"></path>
</g>
</svg>