<svg width="24" height="24" viewBox="0 0 24 24" xmlns="http://www.w3.org/2000/svg" class="wd-icon wd-icon-bar-chart-ascending" role="presentation">
<g>
<path d="M5.50001 11C5.71929 11 5.93385 10.9993 6.11524 11.0117C6.30561 11.0247 6.53159 11.0554 6.76563 11.1523C7.25548 11.3553 7.64468 11.7445 7.84766 12.2344C7.94461 12.4684 7.9753 12.6944 7.98829 12.8848C8.00066 13.0662 8.00001 13.2807 8.00001 13.5V18.5C8.00001 18.7193 8.00066 18.9339 7.98829 19.1152C7.9753 19.3056 7.94461 19.5316 7.84766 19.7656C7.64468 20.2555 7.25548 20.6447 6.76563 20.8477C6.53159 20.9446 6.30561 20.9753 6.11524 20.9883C5.93385 21.0007 5.71929 21 5.50001 21C5.28072 21 5.06616 21.0007 4.88477 20.9883C4.6944 20.9753 4.46842 20.9446 4.23438 20.8477C3.74453 20.6447 3.35533 20.2555 3.15235 19.7656C3.05541 19.5316 3.02471 19.3056 3.01172 19.1152C2.99935 18.9339 3.00001 18.7193 3.00001 18.5V13.5C3.00001 13.2807 2.99935 13.0662 3.01172 12.8848C3.02471 12.6944 3.05541 12.4684 3.15235 12.2344C3.35533 11.7445 3.74453 11.3553 4.23438 11.1523C4.46842 11.0554 4.6944 11.0247 4.88477 11.0117C5.06616 10.9993 5.28072 11 5.50001 11ZM5.02051 13.0068C5.01601 13.0072 5.01178 13.0075 5.00782 13.0078C5.00751 13.0118 5.00715 13.016 5.00684 13.0205C5.00019 13.118 5.00001 13.2534 5.00001 13.5V18.5C5.00001 18.7467 5.00019 18.882 5.00684 18.9795C5.00713 18.9836 5.00753 18.9875 5.00782 18.9912C5.0118 18.9915 5.01598 18.9929 5.02051 18.9932C5.11804 18.9998 5.25336 19 5.50001 19C5.74665 19 5.88198 18.9998 5.9795 18.9932C5.98366 18.9929 5.98752 18.9915 5.99122 18.9912C5.99151 18.9875 5.99288 18.9837 5.99317 18.9795C5.99982 18.882 6.00001 18.7467 6.00001 18.5V13.5C6.00001 13.2534 5.99982 13.118 5.99317 13.0205C5.99286 13.016 5.99153 13.0118 5.99122 13.0078C5.98754 13.0075 5.98363 13.0071 5.9795 13.0068C5.88198 13.0002 5.74665 13 5.50001 13C5.25336 13 5.11804 13.0002 5.02051 13.0068Z" fill="oklch(0.3523 0 0 / 1)" class="wd-icon-fill"></path>
<path d="M12 7.00001C12.2193 7.00001 12.4339 6.99935 12.6152 7.01172C12.8056 7.02471 13.0316 7.05541 13.2656 7.15235C13.7555 7.35533 14.1447 7.74453 14.3477 8.23438C14.4446 8.46842 14.4753 8.6944 14.4883 8.88477C14.5007 9.06616 14.5 9.28072 14.5 9.50001V18.5C14.5 18.7193 14.5007 18.9339 14.4883 19.1152C14.4753 19.3056 14.4446 19.5316 14.3477 19.7656C14.1447 20.2555 13.7555 20.6447 13.2656 20.8477C13.0316 20.9446 12.8056 20.9753 12.6152 20.9883C12.4339 21.0007 12.2193 21 12 21C11.7807 21 11.5662 21.0007 11.3848 20.9883C11.1944 20.9753 10.9684 20.9446 10.7344 20.8477C10.2445 20.6447 9.85533 20.2555 9.65235 19.7656C9.55541 19.5316 9.52471 19.3056 9.51172 19.1152C9.49935 18.9339 9.50001 18.7193 9.50001 18.5V9.50001C9.50001 9.28072 9.49935 9.06616 9.51172 8.88477C9.52471 8.6944 9.55541 8.46842 9.65235 8.23438C9.85533 7.74453 10.2445 7.35533 10.7344 7.15235C10.9684 7.05541 11.1944 7.02471 11.3848 7.01172C11.5662 6.99935 11.7807 7.00001 12 7.00001ZM11.5205 9.00684C11.516 9.00715 11.5118 9.00751 11.5078 9.00782C11.5075 9.01178 11.5072 9.01601 11.5068 9.02051C11.5002 9.11804 11.5 9.25336 11.5 9.50001V18.5C11.5 18.7467 11.5002 18.882 11.5068 18.9795C11.5071 18.9836 11.5075 18.9875 11.5078 18.9912C11.5118 18.9915 11.516 18.9929 11.5205 18.9932C11.618 18.9998 11.7534 19 12 19C12.2467 19 12.382 18.9998 12.4795 18.9932C12.4837 18.9929 12.4875 18.9915 12.4912 18.9912C12.4915 18.9875 12.4929 18.9837 12.4932 18.9795C12.4998 18.882 12.5 18.7467 12.5 18.5V9.50001C12.5 9.25336 12.4998 9.11804 12.4932 9.02051C12.4929 9.01598 12.4915 9.0118 12.4912 9.00782C12.4875 9.00753 12.4836 9.00713 12.4795 9.00684C12.382 9.00019 12.2467 9.00001 12 9.00001C11.7534 9.00001 11.618 9.00019 11.5205 9.00684Z" fill="oklch(0.3523 0 0 / 1)" class="wd-icon-fill"></path>
<path d="M18.5 3.00001C18.7193 3.00001 18.9339 2.99935 19.1152 3.01172C19.3056 3.02471 19.5316 3.05541 19.7656 3.15235C20.2555 3.35533 20.6447 3.74453 20.8477 4.23438C20.9446 4.46842 20.9753 4.6944 20.9883 4.88477C21.0007 5.06616 21 5.28072 21 5.50001V18.5C21 18.7193 21.0007 18.9339 20.9883 19.1152C20.9753 19.3056 20.9446 19.5316 20.8477 19.7656C20.6447 20.2555 20.2555 20.6447 19.7656 20.8477C19.5316 20.9446 19.3056 20.9753 19.1152 20.9883C18.9339 21.0007 18.7193 21 18.5 21C18.2807 21 18.0662 21.0007 17.8848 20.9883C17.6944 20.9753 17.4684 20.9446 17.2344 20.8477C16.7445 20.6447 16.3553 20.2555 16.1523 19.7656C16.0554 19.5316 16.0247 19.3056 16.0117 19.1152C15.9993 18.9339 16 18.7193 16 18.5V5.50001C16 5.28072 15.9993 5.06616 16.0117 4.88477C16.0247 4.6944 16.0554 4.46842 16.1523 4.23438C16.3553 3.74453 16.7445 3.35533 17.2344 3.15235C17.4684 3.05541 17.6944 3.02471 17.8848 3.01172C18.0662 2.99935 18.2807 3.00001 18.5 3.00001ZM18.0205 5.00684C18.016 5.00715 18.0118 5.00751 18.0078 5.00782C18.0075 5.01178 18.0072 5.01601 18.0068 5.02051C18.0002 5.11804 18 5.25336 18 5.50001V18.5C18 18.7467 18.0002 18.882 18.0068 18.9795C18.0071 18.9836 18.0075 18.9875 18.0078 18.9912C18.0118 18.9915 18.016 18.9929 18.0205 18.9932C18.118 18.9998 18.2534 19 18.5 19C18.7467 19 18.882 18.9998 18.9795 18.9932C18.9837 18.9929 18.9875 18.9915 18.9912 18.9912C18.9915 18.9875 18.9929 18.9837 18.9932 18.9795C18.9998 18.882 19 18.7467 19 18.5V5.50001C19 5.25336 18.9998 5.11804 18.9932 5.02051C18.9929 5.01598 18.9915 5.0118 18.9912 5.00782C18.9875 5.00753 18.9836 5.00713 18.9795 5.00684C18.882 5.00019 18.7467 5.00001 18.5 5.00001C18.2534 5.00001 18.118 5.00019 18.0205 5.00684Z" fill="oklch(0.3523 0 0 / 1)" class="wd-icon-fill"></path>
</g>
</svg>