<svg width="24" height="24" viewBox="0 0 24 24" xmlns="http://www.w3.org/2000/svg" class="wd-icon wd-icon-check-circle" role="presentation">
<path d="M22 12C22 17.5228 17.5228 22 12 22C6.47715 22 2 17.5228 2 12C2 6.47715 6.47715 2 12 2C17.5228 2 22 6.47715 22 12Z" fill="transparent" class="wd-icon-background"></path>
<path d="M12 1C18.0751 1 23 5.92487 23 12C23 18.0751 18.0751 23 12 23C5.92487 23 1 18.0751 1 12C1 5.92487 5.92487 1 12 1ZM12 3C7.02944 3 3 7.02944 3 12C3 16.9706 7.02944 21 12 21C16.9706 21 21 16.9706 21 12C21 7.02944 16.9706 3 12 3Z" fill="oklch(0.3523 0 0 / 1)" class="wd-icon-fill"></path>
<path d="M15.9394 8.14585C16.1346 7.95075 16.4512 7.95072 16.6464 8.14585L17.3534 8.85288C17.5486 9.0481 17.5485 9.36464 17.3534 9.55991L16.7069 10.2054L16.7079 10.2064L10.7079 16.2064C10.3174 16.5969 9.68438 16.5968 9.29385 16.2064L7.94424 14.8568C7.94276 14.8554 7.94082 14.8543 7.93936 14.8529L6.14639 13.0599C5.95122 12.8647 5.95119 12.5481 6.14639 12.3529L6.85342 11.6458C7.04866 11.4508 7.36523 11.4507 7.56045 11.6458L10.0009 14.0853L15.9394 8.14585Z" fill="oklch(0.3523 0 0 / 1)" class="wd-icon-accent"></path>
</svg>