<svg width="24" height="24" viewBox="0 0 24 24" xmlns="http://www.w3.org/2000/svg" class="wd-icon wd-icon-catalog" role="presentation">
<path d="M18.5 2C18.7761 2 19 2.22386 19 2.5V12H20.5C20.7761 12 21 12.2239 21 12.5V20.5C21 20.7761 20.7761 21 20.5 21H3.5C3.22386 21 3 20.7761 3 20.5V12.5C3 12.2239 3.22386 12 3.5 12H5V2.5C5 2.22386 5.22386 2 5.5 2H18.5Z" fill="transparent" class="wd-icon-background"></path>
<path d="M18.5 1C19.3284 1 20 1.67157 20 2.5V11H20.5C21.3284 11 22 11.6716 22 12.5V20.5C22 21.3284 21.3284 22 20.5 22H3.5C2.67157 22 2 21.3284 2 20.5V12.5C2 11.6716 2.67157 11 3.5 11H4V2.5C4 1.67157 4.67157 1 5.5 1H18.5ZM4 20H20V13H4V20ZM6 11H18V3H6V11Z" fill="oklch(0.3523 0 0 / 1)" class="wd-icon-fill"></path>
<g>
<path d="M8.5 15C8.77614 15 9 15.2239 9 15.5V16H15V15.5C15 15.2239 15.2239 15 15.5 15H16.5C16.7761 15 17 15.2239 17 15.5V16.5C17 17.3284 16.3284 18 15.5 18H8.5C7.67157 18 7 17.3284 7 16.5V15.5C7 15.2239 7.22386 15 7.5 15H8.5Z" fill="oklch(0.3523 0 0 / 1)" class="wd-icon-accent"></path>
<path d="M12.5 8C12.7761 8 13 8.22386 13 8.5V9.5C13 9.77614 12.7761 10 12.5 10H8.5C8.22386 10 8 9.77614 8 9.5V8.5C8 8.22386 8.22386 8 8.5 8H12.5Z" fill="oklch(0.3523 0 0 / 1)" class="wd-icon-accent"></path>
<path d="M15.5 5C15.7761 5 16 5.22386 16 5.5V6.5C16 6.77614 15.7761 7 15.5 7H8.5C8.22386 7 8 6.77614 8 6.5V5.5C8 5.22386 8.22386 5 8.5 5H15.5Z" fill="oklch(0.3523 0 0 / 1)" class="wd-icon-accent"></path>
</g>
</svg>