<svg width="24" height="24" viewBox="0 0 24 24" xmlns="http://www.w3.org/2000/svg" class="wd-icon wd-icon-formula-brackets" role="presentation">
<g>
<path d="M16.7499 10C16.888 10 16.9999 10.1119 16.9999 10.25V11.1699C16.9999 11.3079 16.8879 11.4199 16.7499 11.4199L16.0165 11.4209C15.4323 11.4209 14.9999 11.8396 14.9999 12.5V14.5332C14.9998 15.3585 14.5302 15.9803 13.8954 15.9805V16.0312C14.5301 16.0314 14.9997 16.6534 14.9999 17.4785V19.4727C14.9999 20.1331 15.4323 20.5527 16.0165 20.5527H16.7499C16.888 20.5527 16.9999 20.6647 16.9999 20.8027V21.75C16.9999 21.8881 16.888 22 16.7499 22H15.3612C14.1928 22 13.329 21.1996 13.329 20.0312V17.7715C13.329 17.0984 12.8966 16.7549 12.3124 16.7549H12.2499C12.1119 16.7548 11.9999 16.6429 11.9999 16.5049V15.5068C11.9999 15.3688 12.1119 15.2569 12.2499 15.2568H12.3124C12.8966 15.2568 13.329 14.9133 13.329 14.2402V11.9688C13.329 10.8004 14.1928 10 15.3612 10H16.7499Z" fill="oklch(0.3523 0 0 / 1)" class="wd-icon-fill"></path>
<path d="M19.6395 10C20.8078 10.0001 21.6708 10.8004 21.6708 11.9688V14.2402C21.6708 14.9133 22.1032 15.2568 22.6874 15.2568H22.7499C22.888 15.2568 22.9999 15.3688 22.9999 15.5068V16.5049C22.9999 16.643 22.888 16.7549 22.7499 16.7549H22.6874C22.1032 16.7549 21.6708 17.0984 21.6708 17.7715V20.0322C21.6706 21.2003 20.8077 21.9999 19.6395 22H18.2499C18.1119 21.9999 17.9999 21.888 17.9999 21.75V20.8027C17.9999 20.6647 18.1119 20.5528 18.2499 20.5527H18.9843C19.5683 20.5526 19.9999 20.133 19.9999 19.4727V17.4795C19.9999 16.654 20.4704 16.0312 21.1054 16.0312V15.9814C20.4704 15.9814 19.9999 15.3587 19.9999 14.5332V12.5C19.9998 11.8398 19.5683 11.421 18.9843 11.4209L18.2499 11.4199C18.1119 11.4198 17.9999 11.3079 17.9999 11.1699V10.25C17.9999 10.112 18.1119 10.0001 18.2499 10H19.6395Z" fill="oklch(0.3523 0 0 / 1)" class="wd-icon-fill"></path>
<path d="M6.88759 3C7.04549 3.00029 7.16324 3.14506 7.13173 3.2998L6.92958 4.28613C6.90574 4.4022 6.80388 4.48606 6.68544 4.48633H5.86024C5.21255 4.48633 4.78023 4.79074 4.61512 5.59082L4.52528 6.01465H5.73817C5.89689 6.01492 6.01518 6.16114 5.98231 6.31641L5.77137 7.30273C5.74674 7.41801 5.6451 7.5009 5.52723 7.50098H4.2079L3.07899 12.8018C3.05442 12.9171 2.95272 12.9999 2.83485 13H1.41493C1.25621 12.9998 1.13794 12.8536 1.17079 12.6982L2.2743 7.50098H1.45595C1.29622 7.50072 1.17812 7.35228 1.21278 7.19629L1.43153 6.20996C1.45713 6.09583 1.55866 6.01465 1.67567 6.01465H2.58973L2.7743 5.14648C3.07911 3.7368 3.84111 3 5.41591 3H6.88759Z" fill="oklch(0.3523 0 0 / 1)" class="wd-icon-fill"></path>
<path d="M8.37098 6C8.46852 6.00005 8.55771 6.05691 8.59852 6.14551L9.50282 8.11035H9.52821L11.1288 6.09473C11.1762 6.03503 11.2488 6 11.3251 6H13.1288C13.3457 6.00009 13.46 6.25744 13.3143 6.41797L10.4306 9.58398L12.0731 12.6318C12.1624 12.7982 12.0422 12.9996 11.8534 13H10.3192C10.2239 13 10.1367 12.9459 10.0946 12.8604L9.08387 10.8027H9.05848L7.38075 12.9062C7.33333 12.9655 7.26132 13 7.18544 13H5.36024C5.14273 13 5.02881 12.7414 5.17567 12.5811L8.1952 9.29199L6.62001 6.36914C6.53027 6.20258 6.65152 6 6.84071 6H8.37098Z" fill="oklch(0.3523 0 0 / 1)" class="wd-icon-fill"></path>
</g>
</svg>