<svg width="24" height="24" viewBox="0 0 24 24" xmlns="http://www.w3.org/2000/svg" class="wd-icon wd-icon-line-chart" role="presentation">
<path d="M4 3C4.55229 3 5 3.44772 5 4V12.5859L8.16016 9.42578C8.88072 8.7053 10.0275 8.64188 10.8232 9.27832L14.4287 12.1621L18.8379 7.79004C19.2301 7.40117 19.8641 7.40373 20.2529 7.7959C20.6415 8.18809 20.6382 8.82119 20.2461 9.20996L15.8369 13.583C15.1156 14.298 13.9728 14.3581 13.1797 13.7236L9.57422 10.8398L5 15.4141V16.7998C5 17.3764 5.00127 17.7489 5.02442 18.0322C5.04662 18.3038 5.08419 18.4047 5.10938 18.4541C5.20522 18.6421 5.35793 18.7948 5.5459 18.8906C5.59534 18.9158 5.69619 18.9534 5.96778 18.9756C6.25111 18.9987 6.62365 19 7.2002 19H20C20.5523 19 21 19.4477 21 20C21 20.5523 20.5523 21 20 21H7.2002C6.65665 21 6.18836 21.0011 5.80469 20.9697C5.40944 20.9374 5.016 20.8656 4.6377 20.6729C4.07348 20.3853 3.61473 19.9265 3.32715 19.3623C3.1344 18.984 3.06259 18.5906 3.03028 18.1953C2.99893 17.8116 3 17.3434 3 16.7998V4C3 3.44772 3.44772 3 4 3Z" fill="oklch(0.3523 0 0 / 1)" class="wd-icon-fill"></path>
</svg>