<svg width="24" height="24" viewBox="0 0 24 24" xmlns="http://www.w3.org/2000/svg" class="wd-icon wd-icon-calendar-days" role="presentation">
<path d="M20 16.2002C20 17.0566 19.9997 17.6388 19.9629 18.0889C19.9271 18.5273 19.8619 18.7518 19.7822 18.9082C19.5905 19.2845 19.2845 19.5905 18.9082 19.7822C18.7518 19.8619 18.5273 19.9271 18.0889 19.9629C17.6388 19.9997 17.0566 20 16.2002 20H7.7998C6.94342 20 6.36117 19.9997 5.91113 19.9629C5.47272 19.9271 5.2482 19.8619 5.0918 19.7822C4.71554 19.5905 4.40951 19.2845 4.21777 18.9082C4.13808 18.7518 4.07293 18.5273 4.03711 18.0889C4.00035 17.6388 4 17.0566 4 16.2002V8H20V16.2002ZM7.5 15C7.03406 15 6.80096 15.0001 6.61719 15.0762C6.37226 15.1777 6.17766 15.3723 6.07617 15.6172C6.00005 15.801 6 16.0341 6 16.5C6 16.9659 6.00005 17.199 6.07617 17.3828C6.17766 17.6277 6.37226 17.8223 6.61719 17.9238C6.80096 17.9999 7.03406 18 7.5 18C7.96594 18 8.19904 17.9999 8.38281 17.9238C8.62774 17.8223 8.82234 17.6277 8.92383 17.3828C8.99995 17.199 9 16.9659 9 16.5C9 16.0341 8.99995 15.801 8.92383 15.6172C8.82234 15.3723 8.62774 15.1777 8.38281 15.0762C8.19904 15.0001 7.96594 15 7.5 15ZM12 15C11.5341 15 11.301 15.0001 11.1172 15.0762C10.8723 15.1777 10.6777 15.3723 10.5762 15.6172C10.5001 15.801 10.5 16.0341 10.5 16.5C10.5 16.9659 10.5001 17.199 10.5762 17.3828C10.6777 17.6277 10.8723 17.8223 11.1172 17.9238C11.301 17.9999 11.5341 18 12 18C12.4659 18 12.699 17.9999 12.8828 17.9238C13.1277 17.8223 13.3223 17.6277 13.4238 17.3828C13.4999 17.199 13.5 16.9659 13.5 16.5C13.5 16.0341 13.4999 15.801 13.4238 15.6172C13.3223 15.3723 13.1277 15.1777 12.8828 15.0762C12.699 15.0001 12.4659 15 12 15ZM7.5 10C7.03406 10 6.80096 10.0001 6.61719 10.0762C6.37226 10.1777 6.17766 10.3723 6.07617 10.6172C6.00005 10.801 6 11.0341 6 11.5C6 11.9659 6.00005 12.199 6.07617 12.3828C6.17766 12.6277 6.37226 12.8223 6.61719 12.9238C6.80096 12.9999 7.03406 13 7.5 13C7.96594 13 8.19904 12.9999 8.38281 12.9238C8.62774 12.8223 8.82234 12.6277 8.92383 12.3828C8.99995 12.199 9 11.9659 9 11.5C9 11.0341 8.99995 10.801 8.92383 10.6172C8.82234 10.3723 8.62774 10.1777 8.38281 10.0762C8.19904 10.0001 7.96594 10 7.5 10ZM12 10C11.5341 10 11.301 10.0001 11.1172 10.0762C10.8723 10.1777 10.6777 10.3723 10.5762 10.6172C10.5001 10.801 10.5 11.0341 10.5 11.5C10.5 11.9659 10.5001 12.199 10.5762 12.3828C10.6777 12.6277 10.8723 12.8223 11.1172 12.9238C11.301 12.9999 11.5341 13 12 13C12.4659 13 12.699 12.9999 12.8828 12.9238C13.1277 12.8223 13.3223 12.6277 13.4238 12.3828C13.4999 12.199 13.5 11.9659 13.5 11.5C13.5 11.0341 13.4999 10.801 13.4238 10.6172C13.3223 10.3723 13.1277 10.1777 12.8828 10.0762C12.699 10.0001 12.4659 10 12 10ZM16.5 10C16.0341 10 15.801 10.0001 15.6172 10.0762C15.3723 10.1777 15.1777 10.3723 15.0762 10.6172C15.0001 10.801 15 11.0341 15 11.5C15 11.9659 15.0001 12.199 15.0762 12.3828C15.1777 12.6277 15.3723 12.8223 15.6172 12.9238C15.801 12.9999 16.0341 13 16.5 13C16.9659 13 17.199 12.9999 17.3828 12.9238C17.6277 12.8223 17.8223 12.6277 17.9238 12.3828C17.9999 12.199 18 11.9659 18 11.5C18 11.0341 17.9999 10.801 17.9238 10.6172C17.8223 10.3723 17.6277 10.1777 17.3828 10.0762C17.199 10.0001 16.9659 10 16.5 10Z" fill="transparent" class="wd-icon-background"></path>
<g>
<path d="M7.5 15C7.96594 15 8.19904 15.0001 8.38281 15.0762C8.62774 15.1777 8.82234 15.3723 8.92383 15.6172C8.99995 15.801 9 16.0341 9 16.5C9 16.9659 8.99995 17.199 8.92383 17.3828C8.82234 17.6277 8.62774 17.8223 8.38281 17.9238C8.19904 18 7.96594 18 7.5 18C7.03406 18 6.80096 18 6.61719 17.9238C6.37226 17.8223 6.17766 17.6277 6.07617 17.3828C6.00005 17.199 6 16.9659 6 16.5C6 16.0341 6.00005 15.801 6.07617 15.6172C6.17766 15.3723 6.37226 15.1777 6.61719 15.0762C6.80096 15.0001 7.03406 15 7.5 15Z" fill="oklch(0.3523 0 0 / 1)" class="wd-icon-fill"></path>
<path d="M12 15C12.4659 15 12.699 15.0001 12.8828 15.0762C13.1277 15.1777 13.3223 15.3723 13.4238 15.6172C13.5 15.801 13.5 16.0341 13.5 16.5C13.5 16.9659 13.5 17.199 13.4238 17.3828C13.3223 17.6277 13.1277 17.8223 12.8828 17.9238C12.699 18 12.4659 18 12 18C11.5341 18 11.301 18 11.1172 17.9238C10.8723 17.8223 10.6777 17.6277 10.5762 17.3828C10.5001 17.199 10.5 16.9659 10.5 16.5C10.5 16.0341 10.5001 15.801 10.5762 15.6172C10.6777 15.3723 10.8723 15.1777 11.1172 15.0762C11.301 15.0001 11.5341 15 12 15Z" fill="oklch(0.3523 0 0 / 1)" class="wd-icon-fill"></path>
<path d="M7.5 10C7.96594 10 8.19904 10.0001 8.38281 10.0762C8.62774 10.1777 8.82234 10.3723 8.92383 10.6172C8.99995 10.801 9 11.0341 9 11.5C9 11.9659 8.99995 12.199 8.92383 12.3828C8.82234 12.6277 8.62774 12.8223 8.38281 12.9238C8.19904 13 7.96594 13 7.5 13C7.03406 13 6.80096 13 6.61719 12.9238C6.37226 12.8223 6.17766 12.6277 6.07617 12.3828C6.00005 12.199 6 11.9659 6 11.5C6 11.0341 6.00005 10.801 6.07617 10.6172C6.17766 10.3723 6.37226 10.1777 6.61719 10.0762C6.80096 10.0001 7.03406 10 7.5 10Z" fill="oklch(0.3523 0 0 / 1)" class="wd-icon-fill"></path>
<path d="M12 10C12.4659 10 12.699 10.0001 12.8828 10.0762C13.1277 10.1777 13.3223 10.3723 13.4238 10.6172C13.5 10.801 13.5 11.0341 13.5 11.5C13.5 11.9659 13.5 12.199 13.4238 12.3828C13.3223 12.6277 13.1277 12.8223 12.8828 12.9238C12.699 13 12.4659 13 12 13C11.5341 13 11.301 13 11.1172 12.9238C10.8723 12.8223 10.6777 12.6277 10.5762 12.3828C10.5001 12.199 10.5 11.9659 10.5 11.5C10.5 11.0341 10.5001 10.801 10.5762 10.6172C10.6777 10.3723 10.8723 10.1777 11.1172 10.0762C11.301 10.0001 11.5341 10 12 10Z" fill="oklch(0.3523 0 0 / 1)" class="wd-icon-fill"></path>
<path d="M16.2002 2C17.0237 2 17.7016 1.99898 18.252 2.04395C18.814 2.08988 19.3311 2.18828 19.8164 2.43555C20.5689 2.81902 21.181 3.43109 21.5645 4.1836C21.8117 4.6689 21.9101 5.186 21.9561 5.74805C22.001 6.29843 22 6.97632 22 7.79981V16.2002C22 17.0237 22.001 17.7016 21.9561 18.252C21.9101 18.814 21.8117 19.3311 21.5645 19.8164C21.181 20.5689 20.5689 21.181 19.8164 21.5645C19.3311 21.8117 18.814 21.9101 18.252 21.9561C17.7016 22.001 17.0237 22 16.2002 22H7.79981C6.97632 22 6.29843 22.001 5.74805 21.9561C5.186 21.9101 4.6689 21.8117 4.1836 21.5645C3.43109 21.181 2.81902 20.5689 2.43555 19.8164C2.18828 19.3311 2.08988 18.814 2.04395 18.252C1.99898 17.7016 2 17.0237 2 16.2002V7.79981C2 6.97632 1.99898 6.29843 2.04395 5.74805C2.08988 5.186 2.18827 4.6689 2.43555 4.1836C2.81902 3.43109 3.43109 2.81902 4.1836 2.43555C4.6689 2.18827 5.186 2.08988 5.74805 2.04395C6.29843 1.99898 6.97632 2 7.79981 2H16.2002ZM4 16.2002C4 17.0566 4.00035 17.6388 4.03711 18.0889C4.07293 18.5273 4.13809 18.7518 4.21778 18.9082C4.40951 19.2845 4.71555 19.5905 5.0918 19.7822C5.2482 19.8619 5.47272 19.9271 5.91113 19.9629C6.36117 19.9997 6.94342 20 7.79981 20H16.2002C17.0566 20 17.6388 19.9997 18.0889 19.9629C18.5273 19.9271 18.7518 19.8619 18.9082 19.7822C19.2845 19.5905 19.5905 19.2845 19.7822 18.9082C19.8619 18.7518 19.9271 18.5273 19.9629 18.0889C19.9997 17.6388 20 17.0566 20 16.2002V8H4V16.2002Z" fill="oklch(0.3523 0 0 / 1)" class="wd-icon-fill"></path>
</g>
<path d="M16.5 10C16.9659 10 17.199 10.0001 17.3828 10.0762C17.6277 10.1777 17.8223 10.3723 17.9238 10.6172C17.9999 10.801 18 11.0341 18 11.5C18 11.9659 17.9999 12.199 17.9238 12.3828C17.8223 12.6277 17.6277 12.8223 17.3828 12.9238C17.199 12.9999 16.9659 13 16.5 13C16.0341 13 15.801 12.9999 15.6172 12.9238C15.3723 12.8223 15.1777 12.6277 15.0762 12.3828C15.0001 12.199 15 11.9659 15 11.5C15 11.0341 15.0001 10.801 15.0762 10.6172C15.1777 10.3723 15.3723 10.1777 15.6172 10.0762C15.801 10.0001 16.0341 10 16.5 10Z" fill="oklch(0.3523 0 0 / 1)" class="wd-icon-accent"></path>
</svg>