<svg width="24" height="24" viewBox="0 0 24 24" xmlns="http://www.w3.org/2000/svg" class="wd-icon wd-icon-pi" role="presentation">
<path d="M19.9997 4C20.552 4 20.9997 4.44772 20.9997 5C20.9997 5.55228 20.552 6 19.9997 6H15.9997V17.5C15.9997 18.3283 16.6714 18.9998 17.4997 19C17.9897 19 18.4245 18.7658 18.6999 18.3994C19.0316 17.9579 19.6588 17.8696 20.1003 18.2012C20.5416 18.5329 20.6309 19.1591 20.2995 19.6006C19.6627 20.4482 18.6452 21 17.4997 21C15.5669 20.9998 13.9997 19.4329 13.9997 17.5V6H9.99484C9.94002 12.0203 9.31913 16.582 5.75265 20.6582C5.38905 21.0736 4.75711 21.1162 4.34152 20.7529C3.92622 20.3894 3.88363 19.7574 4.24679 19.3418C7.31545 15.8348 7.93798 11.9144 7.99484 6H7.23605C6.24453 6.00012 5.33768 6.56041 4.89425 7.44727C4.64723 7.94115 4.04639 8.1415 3.55246 7.89453C3.0587 7.64749 2.85834 7.04661 3.10519 6.55273C3.8874 4.98831 5.48699 4.00012 7.23605 4H19.9997Z" fill="oklch(0.3523 0 0 / 1)" class="wd-icon-fill"></path>
</svg>