<svg width="24" height="24" viewBox="0 0 24 24" xmlns="http://www.w3.org/2000/svg" class="wd-icon wd-icon-anomaly-detection" role="presentation">
<g>
<path d="M9 6C10.1046 6 11 6.89543 11 8C11 8.31613 10.9246 8.6141 10.7939 8.87988L13.918 12.0039C13.9452 12.0028 13.9725 12 14 12C15.1046 12 16 12.8954 16 14C16 15.1046 15.1046 16 14 16C12.8954 16 12 15.1046 12 14C12 13.6837 12.0743 13.385 12.2051 13.1191L9.17773 10.0918L4.76953 17.0703C4.91585 17.3482 5 17.6641 5 18C5 19.1046 4.10457 20 3 20C1.89543 20 1 19.1046 1 18C1 16.8954 1.89543 16 3 16C3.02586 16 3.05152 16.0029 3.07715 16.0039L7.38672 9.17871C7.14464 8.84794 7 8.44129 7 8C7 6.89543 7.89543 6 9 6Z" fill="oklch(0.3523 0 0 / 1)" class="wd-icon-fill"></path>
<path d="M15.9512 10.0488C16.1116 9.82415 16.4237 9.77227 16.6484 9.93262L17.0557 10.2227L17.4619 10.5137C17.6867 10.6742 17.7388 10.9862 17.5781 11.2109L17.3135 11.5811L17.0234 11.9883C16.863 12.2132 16.55 12.2652 16.3252 12.1045L15.5117 11.5234C15.2874 11.3628 15.2361 11.0507 15.3965 10.8262L15.6865 10.4189L15.9512 10.0488Z" fill="oklch(0.3523 0 0 / 1)" class="wd-icon-fill"></path>
<path d="M20 3C21.6569 3 23 4.34315 23 6C23 7.65685 21.6569 9 20 9C19.734 9 19.477 8.96148 19.2314 8.89648L18.9795 9.24902L18.7148 9.62012C18.5543 9.84443 18.2422 9.89657 18.0176 9.73633L17.2041 9.15527C16.9794 8.99479 16.9275 8.68269 17.0879 8.45801L17.3525 8.08691L17.5801 7.76855C17.2168 7.27235 17 6.66208 17 6C17 4.34315 18.3431 3 20 3ZM20 5C19.4477 5 19 5.44772 19 6C19 6.55228 19.4477 7 20 7C20.5523 7 21 6.55228 21 6C21 5.44772 20.5523 5 20 5Z" fill="oklch(0.3523 0 0 / 1)" class="wd-icon-fill"></path>
</g>
</svg>