<svg width="24" height="24" viewBox="0 0 24 24" xmlns="http://www.w3.org/2000/svg" class="wd-icon wd-icon-flag-wave" role="presentation">
<path d="M6.5398 3.75885C7.71364 3.31637 8.997 3.25267 10.2087 3.57721C10.6403 3.69285 11.0634 3.8757 11.7273 4.16022L11.8142 4.1983C12.4531 4.47213 12.6928 4.57296 12.9236 4.63873C13.7845 4.88396 14.7033 4.83354 15.532 4.49518C15.7543 4.40437 15.9822 4.27651 16.5876 3.93365C16.6692 3.88742 16.8779 3.76018 17.0935 3.70221C17.7544 3.52483 18.4512 3.81838 18.7878 4.41412C18.8978 4.60883 18.9531 4.8464 18.9773 4.93658L20.947 12.2862C20.9724 12.3809 21.0514 12.6337 21.0427 12.8926L21.032 13.0313C20.9912 13.3532 20.846 13.6544 20.6179 13.8887L20.4753 14.0157C20.3286 14.1295 20.1794 14.2048 20.115 14.2403L19.7175 14.459C19.1774 14.7566 18.8344 14.9482 18.4812 15.0899C17.2001 15.6039 15.7796 15.6606 14.4617 15.2501C14.0984 15.1369 13.7413 14.9734 13.1794 14.7198C12.5717 14.4455 12.3432 14.3438 12.1238 14.2755C11.2451 14.0018 10.2982 14.0392 9.4441 14.3819C9.23079 14.4675 9.01144 14.5866 8.42749 14.9083L8.22144 15.0215L9.31324 19.0958C9.45599 19.6291 9.13954 20.1774 8.6062 20.3204C8.07291 20.4631 7.52463 20.1466 7.3816 19.6133L6.09058 14.7969C6.08929 14.7924 6.0879 14.7878 6.08667 14.7833L3.90699 6.64752C3.8799 6.54653 3.79558 6.27651 3.81031 6.00006C3.82916 5.64769 3.9716 5.31246 4.21265 5.05475C4.40201 4.85247 4.65552 4.72615 4.74683 4.67584L5.08765 4.48834C5.72001 4.13996 6.12192 3.91642 6.5398 3.75885ZM9.69117 5.50885C8.88346 5.29257 8.0283 5.33505 7.24585 5.62994C6.99337 5.72512 6.73635 5.86354 6.05249 6.2403L5.89234 6.32916L7.68921 13.0342C8.10457 12.806 8.39767 12.6474 8.69898 12.5264C9.98011 12.0124 11.4005 11.9558 12.7185 12.3663C13.0818 12.4795 13.4389 12.643 14.0007 12.8965C14.6088 13.1709 14.8379 13.2715 15.0574 13.3399C15.936 13.6135 16.882 13.5761 17.7361 13.2335C17.9494 13.1479 18.1689 13.0297 18.7527 12.7081L18.9587 12.5938L17.1658 5.9024C16.8225 6.09443 16.5594 6.23621 16.2888 6.34674C15.0456 6.85452 13.6673 6.92949 12.3757 6.56158C11.9935 6.45264 11.6167 6.28973 11.0251 6.03619L10.9392 5.99908C10.2216 5.69152 9.95179 5.57869 9.69117 5.50885Z" fill="oklch(0.3523 0 0 / 1)" class="wd-icon-fill"></path>
</svg>