<svg width="24" height="24" viewBox="0 0 24 24" xmlns="http://www.w3.org/2000/svg" class="wd-icon wd-icon-clock-exclamation" role="presentation">
<g>
<path d="M20 20.75C20.6904 20.75 21.25 21.3096 21.25 22C21.25 22.6904 20.6904 23.25 20 23.25C19.3096 23.25 18.75 22.6904 18.75 22C18.75 21.3096 19.3096 20.75 20 20.75Z" fill="oklch(0.3523 0 0 / 1)" class="wd-icon-accent"></path>
<path d="M20.5 14C20.7761 14 21 14.2239 21 14.5V15.8398L20.8301 19.5234C20.8176 19.7902 20.5971 20 20.3301 20H19.6699C19.4029 20 19.1824 19.7902 19.1699 19.5234L19 15.8398V14.5C19 14.2239 19.2239 14 19.5 14H20.5Z" fill="oklch(0.3523 0 0 / 1)" class="wd-icon-accent"></path>
</g>
<g>
<path d="M7.97196 1.76495C10.2043 0.886356 12.6631 0.76126 14.9729 1.40948C17.2826 2.05783 19.3177 3.44401 20.7669 5.35577C22.115 7.13455 22.8875 9.27848 22.9886 11.5003C23.0009 11.7759 22.7762 12.0002 22.5003 12.0003H21.5003C21.2242 12.0003 21.002 11.7759 20.9866 11.5003C20.8873 9.71491 20.2577 7.99487 19.1731 6.56378C17.9874 4.9996 16.3217 3.86571 14.4319 3.33526C12.5422 2.80502 10.5307 2.90657 8.70438 3.6253C6.87784 4.34423 5.33613 5.64142 4.31473 7.31768C3.29363 8.99372 2.84776 10.9579 3.04618 12.9105C3.24485 14.8631 4.07661 16.6988 5.41434 18.1351C6.75218 19.5711 8.52368 20.531 10.4573 20.8675C12.2264 21.1753 14.0438 20.9455 15.6761 20.2151C15.9282 20.1023 16.2292 20.1972 16.3557 20.4427L16.8147 21.3304C16.9415 21.5758 16.845 21.8791 16.594 21.9944C14.5731 22.9232 12.3134 23.2198 10.1145 22.8372C7.75112 22.4259 5.58662 21.2527 3.95145 19.4974C2.31654 17.742 1.2998 15.5 1.05692 13.1136C0.814258 10.7268 1.35848 8.32539 2.60673 6.27667C3.8551 4.22789 5.73951 2.64364 7.97196 1.76495Z" fill="oklch(0.3523 0 0 / 1)" class="wd-icon-fill"></path>
<path d="M12.5003 5.0003C12.7763 5.00041 13.0003 5.22423 13.0003 5.5003V11.0003H16.5003C16.7763 11.0004 17.0003 11.2242 17.0003 11.5003V12.5003C17.0002 12.7763 16.7763 13.0002 16.5003 13.0003H12.0003C11.4481 13.0003 11.0004 12.5525 11.0003 12.0003V5.5003C11.0003 5.22416 11.2241 5.0003 11.5003 5.0003H12.5003Z" fill="oklch(0.3523 0 0 / 1)" class="wd-icon-fill"></path>
</g>
</svg>