<svg width="24" height="24" viewBox="0 0 24 24" xmlns="http://www.w3.org/2000/svg" class="wd-icon wd-icon-sub-organization" role="presentation">
<path d="M18.5 15C19.3284 15 20 15.6716 20 16.5V19.5C20 20.3284 19.3284 21 18.5 21H15.5C14.6716 21 14 20.3284 14 19.5V16.5C14 15.6716 14.6716 15 15.5 15H16V13H8V15H8.5C9.32843 15 10 15.6716 10 16.5V19.5C10 20.3284 9.32843 21 8.5 21H5.5C4.67157 21 4 20.3284 4 19.5V16.5C4 15.6716 4.67157 15 5.5 15H6V13C6 11.8954 6.89543 11 8 11H11V9H9.5C8.67157 9 8 8.32843 8 7.5V2.5C8 1.67157 8.67157 1 9.5 1H14.5C15.3284 1 16 1.67157 16 2.5V7.5C16 8.32843 15.3284 9 14.5 9H13V11H16C17.1046 11 18 11.8954 18 13V15H18.5ZM10 7H14V3H10V7Z" fill="oklch(0.3523 0 0 / 1)" class="wd-icon-fill"></path>
</svg>