<svg width="24" height="24" viewBox="0 0 24 24" xmlns="http://www.w3.org/2000/svg" class="wd-icon wd-icon-actuals-lock" role="presentation">
<path d="M19.2929 3.29289C19.6834 2.90245 20.3164 2.90245 20.7069 3.29289C21.0972 3.68342 21.0973 4.3165 20.7069 4.70696L19.0312 6.38176C19.5693 7.05501 20.0105 7.80519 20.3378 8.61028C20.5455 9.12171 20.2993 9.70592 19.788 9.91399C19.2765 10.1219 18.6924 9.87549 18.4843 9.36418C18.0201 8.22249 17.2629 7.22286 16.289 6.4677C15.3148 5.71254 14.1579 5.22738 12.9364 5.06242C11.715 4.89754 10.4714 5.0585 9.33193 5.52824C8.19236 5.99805 7.1966 6.76033 6.44619 7.73821C5.69584 8.71607 5.21742 9.87529 5.05849 11.0976C4.89965 12.3198 5.06653 13.563 5.54189 14.7001C6.01729 15.837 6.78428 16.8287 7.76552 17.5741C8.74708 18.3196 9.9087 18.7933 11.1317 18.9462C11.6796 19.0148 12.0683 19.5145 11.9999 20.0624C11.9312 20.6101 11.4314 20.9989 10.8837 20.9306C9.31128 20.734 7.8185 20.1253 6.55654 19.1669C6.49787 19.1224 6.44018 19.0761 6.38271 19.0302L4.70693 20.707C4.31648 21.0974 3.68339 21.0972 3.29287 20.707C2.90248 20.3164 2.90243 19.6834 3.29287 19.2929L4.96865 17.6161C4.44954 16.9664 4.01974 16.2454 3.69619 15.4716C3.08499 14.0095 2.87086 12.4112 3.0751 10.8398C3.27941 9.26827 3.89554 7.77866 4.86025 6.52141C4.89597 6.47486 4.93207 6.42852 4.96865 6.38274L3.29287 4.70696C2.90236 4.31645 2.90239 3.68342 3.29287 3.29289C3.68339 2.90237 4.31641 2.90237 4.70693 3.29289L6.38271 4.96867C7.04416 4.4401 7.77972 4.00515 8.56924 3.67961C10.0344 3.0756 11.6335 2.86895 13.204 3.08098C14.7743 3.29304 16.2612 3.9159 17.5136 4.88664C17.5481 4.9134 17.582 4.94145 17.6161 4.96867L19.2929 3.29289Z" fill="oklch(0.3523 0 0 / 1)" class="wd-icon-fill"></path>
<path d="M18.5 12C20.1569 12 21.5 13.3431 21.5 15V16.0732C21.6364 16.1039 21.7734 16.1491 21.9082 16.2178C22.2845 16.4095 22.5905 16.7155 22.7822 17.0918C22.9132 17.3488 22.9597 17.6133 22.9805 17.8682C23.0006 18.1142 23 18.4125 23 18.75V20.25C23 20.5875 23.0006 20.8859 22.9805 21.1318C22.9597 21.3865 22.913 21.6503 22.7822 21.9072C22.5905 22.2834 22.2844 22.5895 21.9082 22.7812C21.6512 22.9122 21.3867 22.9596 21.1318 22.9805C20.8858 23.0006 20.5875 23 20.25 23H16.75C16.4125 23 16.1142 23.0006 15.8682 22.9805C15.6133 22.9596 15.3488 22.9122 15.0918 22.7812C14.7156 22.5895 14.4095 22.2834 14.2178 21.9072C14.087 21.6503 14.0403 21.3865 14.0195 21.1318C13.9994 20.8858 14 20.5875 14 20.25V18.75C14 18.4125 13.9994 18.1142 14.0195 17.8682C14.0404 17.6133 14.0868 17.3488 14.2178 17.0918C14.4095 16.7155 14.7155 16.4095 15.0918 16.2178C15.2266 16.1491 15.3636 16.1039 15.5 16.0732V15C15.5 13.3431 16.8431 12 18.5 12ZM16.75 17.5C16.3877 17.5 16.161 17.5007 15.9902 17.5146C15.8295 17.5278 15.7843 17.5492 15.7734 17.5547C15.6794 17.6026 15.6026 17.6794 15.5547 17.7734C15.5492 17.7843 15.5278 17.8295 15.5146 17.9902C15.5007 18.161 15.5 18.3877 15.5 18.75V20.25C15.5 20.6122 15.5007 20.839 15.5146 21.0098C15.5279 21.1716 15.5494 21.2162 15.5547 21.2266C15.6026 21.3206 15.6794 21.3974 15.7734 21.4453C15.7845 21.4509 15.8302 21.4723 15.9902 21.4854C16.161 21.4993 16.3877 21.5 16.75 21.5H20.25C20.6123 21.5 20.839 21.4993 21.0098 21.4854C21.1698 21.4723 21.2155 21.4509 21.2266 21.4453C21.3206 21.3974 21.3974 21.3206 21.4453 21.2266C21.4506 21.2162 21.4721 21.1716 21.4854 21.0098C21.4993 20.839 21.5 20.6122 21.5 20.25V18.75C21.5 18.3877 21.4993 18.161 21.4854 17.9902C21.4722 17.8295 21.4508 17.7843 21.4453 17.7734C21.3974 17.6794 21.3206 17.6026 21.2266 17.5547C21.2157 17.5492 21.1705 17.5278 21.0098 17.5146C20.839 17.5007 20.6123 17.5 20.25 17.5H16.75ZM18.5 13.5C17.6716 13.5 17 14.1716 17 15V16H20V15C20 14.1716 19.3284 13.5 18.5 13.5Z" fill="oklch(0.3523 0 0 / 1)" class="wd-icon-accent"></path>
</svg>