<svg width="24" height="24" viewBox="0 0 24 24" xmlns="http://www.w3.org/2000/svg" class="wd-icon wd-icon-checkbox-stack-fill" role="presentation">
<path d="M15.2002 3C16.0237 3 16.7016 2.99898 17.252 3.04395C17.814 3.08988 18.3311 3.18829 18.8164 3.43555C19.5689 3.81901 20.181 4.43114 20.5645 5.1836C20.8117 5.66885 20.9101 6.18606 20.9561 6.74805C21.001 7.29839 21 7.97641 21 8.79981V11.2002C21 12.0236 21.001 12.7016 20.9561 13.252C20.9101 13.8139 20.8117 14.3312 20.5645 14.8164C20.181 15.5689 19.5689 16.181 18.8164 16.5645C18.3311 16.8117 17.814 16.9101 17.252 16.9561C17.162 16.9634 17.0685 16.9676 16.9717 16.9727C16.9666 17.0691 16.9634 17.1623 16.9561 17.252C16.9101 17.8139 16.8117 18.3311 16.5645 18.8164C16.181 19.5689 15.5689 20.181 14.8164 20.5645C14.3311 20.8117 13.814 20.9101 13.252 20.9561C12.7016 21.001 12.0237 21 11.2002 21H8.79981C7.97633 21 7.29842 21.001 6.74805 20.9561C6.18602 20.9101 5.66888 20.8117 5.1836 20.5645C4.43114 20.181 3.81901 19.5689 3.43555 18.8164C3.18832 18.3312 3.08988 17.8139 3.04395 17.252C2.99899 16.7016 3 16.0236 3 15.2002V12.7998C3 11.9764 2.99899 11.2984 3.04395 10.748C3.08988 10.1861 3.18832 9.66885 3.43555 9.1836C3.81901 8.43113 4.43113 7.81901 5.1836 7.43555C5.66889 7.18829 6.18601 7.08988 6.74805 7.04395C6.8377 7.03662 6.93084 7.03243 7.02735 7.02735C7.03243 6.93091 7.03663 6.83765 7.04395 6.74805C7.08988 6.18606 7.18831 5.66885 7.43555 5.1836C7.81901 4.43114 8.43113 3.81901 9.1836 3.43555C9.66889 3.18829 10.186 3.08988 10.748 3.04395C11.2984 2.99898 11.9763 3 12.7998 3H15.2002ZM12.9746 11.2314C12.5506 10.8782 11.9201 10.9358 11.5664 11.3594L9.00098 14.4375L8.10254 13.3594C7.74906 12.9353 7.11758 12.8783 6.69336 13.2314C6.26912 13.585 6.21185 14.2164 6.56543 14.6406L8.23242 16.6406C8.42242 16.8684 8.70437 17 9.00098 17C9.29746 16.9998 9.57971 16.8684 9.76953 16.6406L13.1025 12.6406C13.4557 12.2165 13.3984 11.585 12.9746 11.2314ZM12.7998 5C11.9434 5 11.3612 5.00035 10.9111 5.03711C10.4728 5.07293 10.2482 5.13809 10.0918 5.21778C9.71559 5.4095 9.40951 5.71559 9.21778 6.0918C9.13811 6.24818 9.07293 6.47285 9.03711 6.91113C9.03475 6.94009 9.0343 6.96991 9.03223 7H11.2002C12.0237 7 12.7016 6.99898 13.252 7.04395C13.814 7.08988 14.3311 7.18829 14.8164 7.43555C15.5689 7.81901 16.181 8.43114 16.5645 9.1836C16.8117 9.66885 16.9101 10.1861 16.9561 10.748C17.001 11.2984 17 11.9764 17 12.7998V14.9678C17.0302 14.9657 17.0599 14.9653 17.0889 14.9629C17.5273 14.9271 17.7518 14.8619 17.9082 14.7822C18.2844 14.5905 18.5905 14.2844 18.7822 13.9082C18.8619 13.7518 18.9271 13.5272 18.9629 13.0889C18.9996 12.6389 19 12.0565 19 11.2002V8.79981C19 7.94353 18.9996 7.36114 18.9629 6.91113C18.9271 6.47286 18.8619 6.24818 18.7822 6.0918C18.5905 5.7156 18.2844 5.4095 17.9082 5.21778C17.7518 5.1381 17.5272 5.07293 17.0889 5.03711C16.6388 5.00035 16.0566 5 15.2002 5H12.7998Z" fill="oklch(0.3523 0 0 / 1)" class="wd-icon-fill"></path>
</svg>