<svg width="24" height="24" viewBox="0 0 24 24" xmlns="http://www.w3.org/2000/svg" class="wd-icon wd-icon-join-right-anti" role="presentation">
<path d="M7.5 5C3.91015 5 1 7.91015 1 11.5C1 15.0899 3.91015 18 7.5 18C8.88503 17.9999 10.1674 17.5649 11.2217 16.8262C11.2314 16.8194 11.2403 16.8125 11.25 16.8057C11.2901 16.7772 11.3297 16.7481 11.3691 16.7188C11.4115 16.6873 11.4536 16.6555 11.4951 16.623C11.5202 16.6035 11.5456 16.5844 11.5703 16.5645C11.6296 16.5168 11.6876 16.4676 11.7451 16.418C11.7586 16.4063 11.7728 16.3955 11.7861 16.3838C11.8589 16.3199 11.9302 16.2545 12 16.1875C13.168 17.3091 14.7528 18 16.5 18C20.0897 17.9998 23 15.0897 23 11.5C23 7.91026 20.0897 5.00017 16.5 5C14.753 5 13.168 5.6902 12 6.81152C11.93 6.74438 11.859 6.67825 11.7861 6.61426C11.7728 6.60252 11.7586 6.59171 11.7451 6.58008C11.6869 6.52978 11.6274 6.48086 11.5674 6.43262C11.5434 6.41331 11.5194 6.39397 11.4951 6.375C11.4536 6.34256 11.4115 6.31074 11.3691 6.2793C10.2881 5.47637 8.95006 5.00007 7.5 5ZM7.5 7C8.42548 7.00006 9.28496 7.28046 10 7.75977C9.36499 8.86092 9 10.1375 9 11.5C9 12.8619 9.36533 14.1376 10 15.2383C9.2849 15.7181 8.42592 15.9999 7.5 16C5.01472 16 3 13.9853 3 11.5C3 9.01472 5.01472 7 7.5 7ZM12.667 7.55859C13.5023 8.6521 14 10.0177 14 11.5C14 12.9823 13.5023 14.3479 12.667 15.4414C11.6397 14.4421 11 13.0464 11 11.5C11 9.95364 11.6397 8.55785 12.667 7.55859Z" fill="oklch(0.3523 0 0 / 1)" class="wd-icon-fill"></path>
</svg>