<svg width="24" height="24" viewBox="0 0 24 24" xmlns="http://www.w3.org/2000/svg" class="wd-icon wd-icon-user-fill" role="presentation">
<g>
<path d="M12.0009 12C14.1875 12 16.2845 12.4108 17.9189 13.4102C19.5951 14.4352 20.7325 16.0533 20.9589 18.2852C21.0571 19.2539 20.399 20.0811 19.5038 20.2812C18.2934 20.5517 15.7238 21 12.0009 21C8.27814 21 5.70855 20.5517 4.49799 20.2812C3.60276 20.0811 2.94473 19.254 3.04291 18.2852L3.09564 17.874C3.41327 15.8533 4.51133 14.3712 6.08295 13.4102C7.7174 12.4108 9.81434 12 12.0009 12Z" fill="oklch(0.3523 0 0 / 1)" class="wd-icon-fill"></path>
<path d="M12.0009 1.5C14.4861 1.5001 16.5009 3.51478 16.5009 6C16.5009 8.48522 14.4861 10.4999 12.0009 10.5C9.51564 10.5 7.50092 8.48528 7.50092 6C7.50092 3.51472 9.51564 1.5 12.0009 1.5Z" fill="oklch(0.3523 0 0 / 1)" class="wd-icon-fill"></path>
</g>
</svg>