<svg width="24" height="24" viewBox="0 0 24 24" xmlns="http://www.w3.org/2000/svg" class="wd-icon wd-icon-chevron-2x-left" role="presentation">
<g>
<path d="M18.707 5.29289C18.3164 4.90237 17.6834 4.90237 17.2929 5.29289L11.2929 11.2929C10.9024 11.6834 10.9024 12.3164 11.2929 12.707L17.2929 18.707C17.6834 19.0975 18.3164 19.0975 18.707 18.707C19.0975 18.3164 19.0975 17.6834 18.707 17.2929L13.414 11.9999L18.707 6.70696C19.0975 6.31643 19.0975 5.68342 18.707 5.29289Z" fill="oklch(0.3523 0 0 / 1)" class="wd-icon-fill"></path>
<path d="M12.207 5.29289C11.8164 4.90237 11.1834 4.90237 10.7929 5.29289L4.79289 11.2929C4.40237 11.6834 4.40237 12.3164 4.79289 12.707L10.7929 18.707C11.1834 19.0975 11.8164 19.0975 12.207 18.707C12.5975 18.3164 12.5975 17.6834 12.207 17.2929L6.91398 11.9999L12.207 6.70696C12.5975 6.31643 12.5975 5.68342 12.207 5.29289Z" fill="oklch(0.3523 0 0 / 1)" class="wd-icon-fill"></path>
</g>
</svg>