<svg width="24" height="24" viewBox="0 0 24 24" xmlns="http://www.w3.org/2000/svg" class="wd-icon wd-icon-rewind-30" role="presentation">
<g>
<path d="M3.68518 17.5554C2.33744 15.5382 1.76892 13.0993 2.08557 10.6941C2.40237 8.28906 3.58209 6.08065 5.40589 4.48119C7.10425 2.99184 9.25322 2.12482 11.4996 2.01244C11.7754 1.99871 11.9996 2.22364 11.9996 2.49974L11.9996 3.49974C11.9996 3.77588 11.7752 3.99812 11.4996 4.01537C9.73891 4.12559 8.05869 4.81582 6.72522 5.9851C5.26607 7.26474 4.32138 9.03164 4.068 10.9558C3.81475 12.8799 4.27015 14.8304 5.34827 16.4441C6.42652 18.0577 8.05474 19.2249 9.92932 19.7273C11.8039 20.2294 13.7972 20.0328 15.5377 19.1745C17.2783 18.3161 18.6475 16.8542 19.3903 15.0613C20.1329 13.2683 20.1986 11.2662 19.5748 9.42845C19.0547 7.89652 18.0833 6.56782 16.8014 5.60521L16.9205 6.66088C16.9513 6.93515 16.7543 7.18258 16.4801 7.21361L15.486 7.32494C15.2116 7.35575 14.9641 7.15883 14.9332 6.88451L14.4869 2.90892C14.4563 2.63465 14.6541 2.38699 14.9283 2.35619L18.903 1.9099C19.1774 1.87909 19.4249 2.07691 19.4557 2.35131L19.567 3.34545C19.5976 3.61961 19.4007 3.8672 19.1266 3.89818L18.025 4.0222C19.6164 5.22405 20.8223 6.87895 21.4694 8.7849C22.2491 11.0821 22.1672 13.5856 21.2389 15.8269C20.3105 18.0682 18.5982 19.8955 16.4225 20.9685C14.2468 22.0414 11.755 22.2867 9.41175 21.6589C7.0685 21.031 5.03301 19.5724 3.68518 17.5554Z" fill="oklch(0.3523 0 0 / 1)" class="wd-icon-fill"></path>
<path d="M12.4674 11.9499C12.4674 9.82594 13.3945 8.62865 15.0055 8.62865C16.6163 8.62879 17.5436 9.82606 17.5436 11.9499C17.5435 14.0737 16.6163 15.2701 15.0055 15.2703C13.3945 15.2703 12.4675 14.0738 12.4674 11.9499ZM14.0875 11.9499C14.0876 13.4798 14.3665 14.155 15.0055 14.155C15.6533 14.1548 15.9234 13.4796 15.9235 11.9499C15.9235 10.4202 15.6533 9.74505 15.0055 9.74486C14.3665 9.74486 14.0875 10.4199 14.0875 11.9499Z" fill="oklch(0.3523 0 0 / 1)" class="wd-icon-fill"></path>
<path d="M6.50452 13.6472C6.44938 13.3754 6.68127 13.1473 6.95862 13.1472H7.58264C7.8559 13.1472 8.06074 13.3766 8.16858 13.6277C8.31296 13.964 8.61913 14.155 9.04749 14.155C9.64141 14.155 9.98295 13.7949 9.98304 13.237C9.98304 12.679 9.64143 12.364 8.96643 12.364H8.66565C8.38957 12.364 8.16574 12.1401 8.16565 11.864V11.7478C8.16568 11.4717 8.38952 11.2478 8.66565 11.2478H8.84046C9.44346 11.2478 9.78577 10.9774 9.78577 10.4734C9.78557 9.98768 9.47015 9.74486 9.05628 9.74486C8.78857 9.74492 8.56027 9.84082 8.42054 10.0232C8.25482 10.2395 8.05531 10.4831 7.78284 10.4831H7.15686C6.8795 10.4829 6.64609 10.2526 6.71546 9.98412C6.94452 9.09924 7.79445 8.62865 9.07483 8.62865C10.5686 8.62875 11.4059 9.31339 11.4059 10.2673C11.4057 10.9781 10.9464 11.5899 10.0377 11.698V11.7156C11.0095 11.8506 11.603 12.4898 11.6032 13.3806C11.6032 14.5056 10.6673 15.2712 9.05628 15.2712C7.64936 15.2712 6.72253 14.7216 6.50452 13.6472Z" fill="oklch(0.3523 0 0 / 1)" class="wd-icon-fill"></path>
</g>
</svg>