<svg width="24" height="24" viewBox="0 0 24 24" xmlns="http://www.w3.org/2000/svg" class="wd-icon wd-icon-webpage-open" role="presentation">
<path d="M20 9.7998V14.2002C20 15.0566 19.9997 15.6388 19.9629 16.0889C19.9271 16.5273 19.8619 16.7518 19.7822 16.9082C19.5905 17.2845 19.2845 17.5905 18.9082 17.7822C18.7518 17.8619 18.5273 17.9271 18.0889 17.9629C17.6388 17.9997 17.0566 18 16.2002 18H7.7998C6.94342 18 6.36117 17.9997 5.91113 17.9629C5.47272 17.9271 5.2482 17.8619 5.0918 17.7822C4.71554 17.5905 4.40951 17.2845 4.21777 16.9082C4.13808 16.7518 4.07293 16.5273 4.03711 16.0889C4.00035 15.6388 4 15.0566 4 14.2002V9.7998C4 9.50205 4.00231 9.23744 4.00391 9H19.9961C19.9977 9.23744 20 9.50205 20 9.7998ZM14.25 10C13.8358 10 13.5 10.3358 13.5 10.75C13.5 11.1642 13.8358 11.5 14.25 11.5H16.4395L13.2197 14.7197C12.9268 15.0126 12.9268 15.4874 13.2197 15.7803C13.5126 16.0732 13.9874 16.0732 14.2803 15.7803L17.5 12.5605V14.75C17.5 15.1642 17.8358 15.5 18.25 15.5C18.6642 15.5 19 15.1642 19 14.75V10.75C19 10.3358 18.6642 10 18.25 10H14.25Z" fill="transparent" class="wd-icon-background"></path>
<path d="M16.7139 4C17.763 4 18.3531 3.99893 18.8066 4.11231C19.1597 4.17348 19.4951 4.27182 19.8164 4.43555C20.5689 4.81902 21.181 5.43112 21.5645 6.18359C21.8117 6.66888 21.9101 7.18602 21.9561 7.74805C22.001 8.29841 22 8.97635 22 9.79981V14.2002C22 15.0237 22.001 15.7016 21.9561 16.252C21.9101 16.814 21.8117 17.3311 21.5645 17.8164C21.181 18.5689 20.5689 19.181 19.8164 19.5645C19.3311 19.8117 18.814 19.9101 18.252 19.9561C17.7016 20.001 17.0237 20 16.2002 20H7.79981C6.97635 20 6.29842 20.001 5.74805 19.9561C5.18602 19.9101 4.66888 19.8117 4.1836 19.5645C3.43112 19.181 2.81902 18.5689 2.43555 17.8164C2.18829 17.3311 2.08988 16.814 2.04395 16.252C1.99898 15.7016 2 15.0237 2 14.2002V9.79981C2 8.97635 1.99898 8.29842 2.04395 7.74805C2.08988 7.186 2.18828 6.66889 2.43555 6.18359C2.81902 5.43109 3.43109 4.81902 4.1836 4.43555C4.50467 4.27196 4.83967 4.17349 5.19238 4.11231C5.64605 3.99871 6.23627 4 7.28613 4H16.7139ZM4 9.79981V14.2002C4 15.0565 4.00035 15.6388 4.03711 16.0889C4.07293 16.5272 4.13809 16.7518 4.21778 16.9082C4.40951 17.2844 4.71557 17.5905 5.0918 17.7822C5.24819 17.8619 5.47279 17.9271 5.91113 17.9629C6.36116 17.9996 6.94346 18 7.79981 18H16.2002C17.0566 18 17.6388 17.9997 18.0889 17.9629C18.5272 17.9271 18.7518 17.8619 18.9082 17.7822C19.2844 17.5905 19.5905 17.2844 19.7822 16.9082C19.8619 16.7518 19.9271 16.5272 19.9629 16.0889C19.9997 15.6388 20 15.0565 20 14.2002V9.79981C20 9.50207 19.9977 9.23743 19.9961 9H4.00391C4.00231 9.23743 4 9.50207 4 9.79981ZM5.5 6C5.22386 6 5 6.22386 5 6.5C5.00003 6.77612 5.22388 7 5.5 7H6.5C6.7761 6.99997 6.99997 6.7761 7 6.5C7 6.22388 6.77612 6.00003 6.5 6H5.5ZM8.5 6C8.22386 6 8 6.22386 8 6.5C8.00003 6.77612 8.22388 7 8.5 7H9.5C9.7761 6.99997 9.99997 6.7761 10 6.5C10 6.22388 9.77612 6.00003 9.5 6H8.5ZM11.5 6C11.2239 6 11 6.22386 11 6.5C11 6.77612 11.2239 7 11.5 7H12.5C12.7761 6.99997 13 6.7761 13 6.5C13 6.22388 12.7761 6.00003 12.5 6H11.5Z" fill="oklch(0.3523 0 0 / 1)" class="wd-icon-fill"></path>
<path d="M18.2499 10C18.6641 10 18.9999 10.3358 18.9999 10.75V14.75C18.9999 15.1642 18.6641 15.5 18.2499 15.5C17.8357 15.5 17.4999 15.1642 17.4999 14.75V12.5605L14.2802 15.7803C13.9873 16.0732 13.5126 16.0731 13.2197 15.7803C12.9268 15.4874 12.9268 15.0126 13.2197 14.7197L16.4394 11.5H14.2499C13.8357 11.5 13.4999 11.1642 13.4999 10.75C13.4999 10.3358 13.8357 10 14.2499 10H18.2499Z" fill="oklch(0.3523 0 0 / 1)" class="wd-icon-accent"></path>
</svg>