<svg width="24" height="24" viewBox="0 0 24 24" xmlns="http://www.w3.org/2000/svg" class="wd-icon wd-icon-receipt-search" role="presentation">
<g>
<path d="M15.7998 1C16.3434 1 16.8117 0.998931 17.1953 1.03028C17.5906 1.06259 17.984 1.1344 18.3623 1.32715C18.9265 1.61473 19.3853 2.07348 19.6729 2.6377C19.8656 3.016 19.9374 3.40943 19.9697 3.80469C20.0011 4.18836 20 4.65665 20 5.2002V10C20 10.5523 19.5523 11 19 11C18.4477 11 18 10.5523 18 10V5.2002C18 4.62365 17.9987 4.25112 17.9756 3.96778C17.9534 3.69619 17.9158 3.59534 17.8906 3.5459C17.7948 3.35793 17.6421 3.20522 17.4541 3.10938C17.4047 3.08419 17.3038 3.04662 17.0322 3.02442C16.7489 3.00127 16.3764 3 15.7998 3H8.2002C7.62365 3 7.25112 3.00127 6.96778 3.02442C6.6962 3.04662 6.59535 3.08419 6.54591 3.10938C6.35794 3.20522 6.20522 3.35793 6.10938 3.5459C6.08419 3.59534 6.04662 3.69619 6.02442 3.96778C6.00127 4.25112 6.00001 4.62365 6.00001 5.2002V19.7998C6.00001 20.3344 6.00106 20.6662 6.02247 20.9014C6.0238 20.916 6.02694 20.9298 6.02833 20.9424C6.03936 20.9359 6.05281 20.9306 6.06544 20.9229C6.26636 20.7989 6.5324 20.601 6.95997 20.2803L7.44044 19.9199C7.71346 19.7151 8.06731 19.427 8.49122 19.3154C8.82468 19.2277 9.17534 19.2277 9.5088 19.3154C9.93271 19.427 10.2866 19.7151 10.5596 19.9199L12.2666 21.2002C12.7083 21.5315 12.7979 22.1578 12.4668 22.5996C12.1354 23.0414 11.5082 23.1312 11.0664 22.7998L9.36036 21.5195C9.17711 21.3821 9.08002 21.3109 9.00684 21.2637C9.00438 21.2621 9.00225 21.2602 9.00001 21.2588C8.99776 21.2602 8.99564 21.2621 8.99317 21.2637C8.92 21.3109 8.82291 21.3821 8.63966 21.5195L8.16017 21.8799C7.76418 22.1769 7.41242 22.4427 7.11524 22.626C6.83101 22.8012 6.43239 23.0099 5.95802 23C5.35798 22.9874 4.79483 22.706 4.42481 22.2334C4.1323 21.8598 4.06061 21.4156 4.03028 21.083C3.99861 20.7354 4.00001 20.2946 4.00001 19.7998V5.2002C4.00001 4.65665 3.99894 4.18836 4.03028 3.80469C4.06259 3.40943 4.13441 3.016 4.32716 2.6377C4.61473 2.07348 5.07348 1.61473 5.6377 1.32715C6.016 1.1344 6.40944 1.06259 6.8047 1.03028C7.18837 0.998931 7.65665 1 8.2002 1H15.7998Z" fill="oklch(0.3523 0 0 / 1)" class="wd-icon-fill"></path>
<path d="M11.25 12.25C11.6642 12.25 12 12.5858 12 13C12 13.4142 11.6642 13.75 11.25 13.75H8.75001C8.3358 13.75 8.00001 13.4142 8.00001 13C8.00001 12.5858 8.3358 12.25 8.75001 12.25H11.25Z" fill="oklch(0.3523 0 0 / 1)" class="wd-icon-fill"></path>
<path d="M15 9C15.5523 9 16 9.44772 16 10C16 10.5523 15.5523 11 15 11C14.4477 11 14 10.5523 14 10C14 9.44772 14.4477 9 15 9Z" fill="oklch(0.3523 0 0 / 1)" class="wd-icon-fill"></path>
<path d="M12.25 9.25C12.6642 9.25 13 9.58579 13 10C13 10.4142 12.6642 10.75 12.25 10.75H8.75001C8.3358 10.75 8.00001 10.4142 8.00001 10C8.00001 9.58579 8.3358 9.25 8.75001 9.25H12.25Z" fill="oklch(0.3523 0 0 / 1)" class="wd-icon-fill"></path>
<path d="M15 6C15.5523 6 16 6.44772 16 7C16 7.55229 15.5523 8 15 8C14.4477 8 14 7.55229 14 7C14 6.44772 14.4477 6 15 6Z" fill="oklch(0.3523 0 0 / 1)" class="wd-icon-fill"></path>
<path d="M12.25 6.25C12.6642 6.25 13 6.58579 13 7C13 7.41422 12.6642 7.75 12.25 7.75H8.75001C8.3358 7.75 8.00001 7.41422 8.00001 7C8.00001 6.58579 8.3358 6.25 8.75001 6.25H12.25Z" fill="oklch(0.3523 0 0 / 1)" class="wd-icon-fill"></path>
</g>
<path d="M17 13C19.2091 13 21 14.7909 21 17C21 17.8334 20.7437 18.6064 20.3076 19.2471L21.7803 20.7197C22.0731 21.0126 22.0731 21.4874 21.7803 21.7803C21.4874 22.073 21.0126 22.0731 20.7197 21.7803L19.2471 20.3076C18.6064 20.7437 17.8334 21 17 21C14.7909 21 13 19.2091 13 17C13 14.7909 14.7909 13 17 13ZM17 14.5C15.6193 14.5 14.5 15.6193 14.5 17C14.5 18.3807 15.6193 19.5 17 19.5C18.3807 19.5 19.5 18.3807 19.5 17C19.5 15.6193 18.3807 14.5 17 14.5Z" fill="oklch(0.3523 0 0 / 1)" class="wd-icon-accent"></path>
</svg>