<svg width="24" height="24" viewBox="0 0 24 24" xmlns="http://www.w3.org/2000/svg" class="wd-icon wd-icon-closed-caption" role="presentation">
<path d="M16.2002 6C17.0566 6 17.6388 6.00035 18.0889 6.03711C18.5273 6.07293 18.7518 6.13808 18.9082 6.21777C19.2845 6.40951 19.5905 6.71554 19.7822 7.0918C19.8619 7.2482 19.9271 7.47272 19.9629 7.91113C19.9997 8.36117 20 8.94342 20 9.7998V14.2002C20 15.0566 19.9997 15.6388 19.9629 16.0889C19.9271 16.5273 19.8619 16.7518 19.7822 16.9082C19.5905 17.2845 19.2845 17.5905 18.9082 17.7822C18.7518 17.8619 18.5273 17.9271 18.0889 17.9629C17.6388 17.9997 17.0566 18 16.2002 18H7.7998C6.94342 18 6.36117 17.9997 5.91113 17.9629C5.47272 17.9271 5.2482 17.8619 5.0918 17.7822C4.71554 17.5905 4.40951 17.2845 4.21777 16.9082C4.13808 16.7518 4.07293 16.5273 4.03711 16.0889C4.00035 15.6388 4 15.0566 4 14.2002V9.7998C4 8.94341 4.00035 8.36117 4.03711 7.91113C4.07293 7.47272 4.13808 7.2482 4.21777 7.0918C4.40951 6.71554 4.71554 6.40951 5.0918 6.21777C5.2482 6.13808 5.47272 6.07293 5.91113 6.03711C6.36117 6.00035 6.94341 6 7.7998 6H16.2002ZM9.08301 8.85059C7.36051 8.85077 6 10.2814 6 12.001C6.00046 13.7201 7.3608 15.1502 9.08301 15.1504C9.95265 15.1504 10.7362 14.7816 11.293 14.1973C11.5784 13.8976 11.5668 13.4234 11.2676 13.1377C10.9677 12.852 10.4927 12.8632 10.207 13.1631C9.91686 13.4675 9.51887 13.6504 9.08301 13.6504C8.22874 13.6502 7.50046 12.9318 7.5 12.001C7.5 11.0698 8.22847 10.3508 9.08301 10.3506C9.51895 10.3506 9.91684 10.5334 10.207 10.8379C10.4927 11.1375 10.9677 11.1496 11.2676 10.8643C11.5674 10.5786 11.5784 10.1036 11.293 9.80371C10.7362 9.21926 9.95278 8.85059 9.08301 8.85059ZM15.583 8.85059C13.8605 8.85077 12.5 10.2814 12.5 12.001C12.5005 13.7201 13.8608 15.1502 15.583 15.1504C16.4527 15.1504 17.2362 14.7816 17.793 14.1973C18.0784 13.8976 18.0668 13.4234 17.7676 13.1377C17.4677 12.852 16.9927 12.8632 16.707 13.1631C16.4169 13.4675 16.0189 13.6504 15.583 13.6504C14.7287 13.6502 14.0005 12.9318 14 12.001C14 11.0698 14.7285 10.3508 15.583 10.3506C16.0189 10.3506 16.4168 10.5334 16.707 10.8379C16.9927 11.1375 17.4677 11.1496 17.7676 10.8643C18.0674 10.5786 18.0784 10.1036 17.793 9.80371C17.2362 9.21926 16.4528 8.85059 15.583 8.85059Z" fill="transparent" class="wd-icon-background"></path>
<path d="M16.2002 4C17.0237 4 17.7016 3.99898 18.252 4.04395C18.814 4.08988 19.3311 4.18828 19.8164 4.43555C20.5689 4.81902 21.181 5.4311 21.5645 6.1836C21.8117 6.6689 21.9101 7.186 21.9561 7.74805C22.001 8.29843 22 8.97632 22 9.79981V14.2002C22 15.0237 22.001 15.7016 21.9561 16.252C21.9101 16.814 21.8117 17.3311 21.5645 17.8164C21.181 18.5689 20.5689 19.181 19.8164 19.5645C19.3311 19.8117 18.814 19.9101 18.252 19.9561C17.7016 20.001 17.0237 20 16.2002 20H7.79981C6.97632 20 6.29843 20.001 5.74805 19.9561C5.186 19.9101 4.6689 19.8117 4.1836 19.5645C3.43109 19.181 2.81902 18.5689 2.43555 17.8164C2.18828 17.3311 2.08988 16.814 2.04395 16.252C1.99898 15.7016 2 15.0237 2 14.2002V9.79981C2 8.97632 1.99898 8.29843 2.04395 7.74805C2.08988 7.186 2.18827 6.6689 2.43555 6.1836C2.81902 5.43109 3.43109 4.81902 4.1836 4.43555C4.6689 4.18828 5.186 4.08988 5.74805 4.04395C6.29843 3.99898 6.97632 4 7.79981 4H16.2002ZM7.79981 6C6.94342 6 6.36117 6.00035 5.91113 6.03711C5.47273 6.07293 5.2482 6.13809 5.0918 6.21778C4.71555 6.40951 4.40951 6.71555 4.21778 7.0918C4.13809 7.2482 4.07293 7.47272 4.03711 7.91113C4.00035 8.36117 4 8.94342 4 9.79981V14.2002C4 15.0566 4.00035 15.6388 4.03711 16.0889C4.07293 16.5273 4.13809 16.7518 4.21778 16.9082C4.40951 17.2845 4.71555 17.5905 5.0918 17.7822C5.2482 17.8619 5.47273 17.9271 5.91113 17.9629C6.36117 17.9997 6.94342 18 7.79981 18H16.2002C17.0566 18 17.6388 17.9997 18.0889 17.9629C18.5273 17.9271 18.7518 17.8619 18.9082 17.7822C19.2845 17.5905 19.5905 17.2845 19.7822 16.9082C19.8619 16.7518 19.9271 16.5273 19.9629 16.0889C19.9997 15.6388 20 15.0566 20 14.2002V9.79981C20 8.94342 19.9997 8.36117 19.9629 7.91113C19.9271 7.47273 19.8619 7.2482 19.7822 7.0918C19.5905 6.71555 19.2845 6.40951 18.9082 6.21778C18.7518 6.13809 18.5273 6.07293 18.0889 6.03711C17.6388 6.00035 17.0566 6 16.2002 6H7.79981Z" fill="oklch(0.3523 0 0 / 1)" class="wd-icon-fill"></path>
<g>
<path d="M9.08301 8.84961C9.95278 8.84961 10.7362 9.21926 11.293 9.80371C11.5784 10.1036 11.5674 10.5786 11.2676 10.8643C10.9677 11.1496 10.4927 11.1375 10.207 10.8379C9.91684 10.5334 9.51895 10.3506 9.08301 10.3506C8.22847 10.3508 7.5 11.0698 7.5 12.001C7.50046 12.9318 8.22874 13.6502 9.08301 13.6504C9.51887 13.6504 9.91686 13.4675 10.207 13.1631C10.4927 12.8632 10.9677 12.852 11.2676 13.1377C11.5668 13.4234 11.5784 13.8976 11.293 14.1973C10.7362 14.7816 9.95265 15.1504 9.08301 15.1504C7.3608 15.1502 6.00046 13.7201 6 12.001C6 10.2814 7.36051 8.84979 9.08301 8.84961Z" fill="oklch(0.3523 0 0 / 1)" class="wd-icon-accent"></path>
<path d="M15.583 8.84961C16.4528 8.84961 17.2362 9.21926 17.793 9.80371C18.0784 10.1036 18.0674 10.5786 17.7676 10.8643C17.4677 11.1496 16.9927 11.1375 16.707 10.8379C16.4168 10.5334 16.0189 10.3506 15.583 10.3506C14.7285 10.3508 14 11.0698 14 12.001C14.0005 12.9318 14.7287 13.6502 15.583 13.6504C16.0189 13.6504 16.4169 13.4675 16.707 13.1631C16.9927 12.8632 17.4677 12.852 17.7676 13.1377C18.0668 13.4234 18.0784 13.8976 17.793 14.1973C17.2362 14.7816 16.4527 15.1504 15.583 15.1504C13.8608 15.1502 12.5005 13.7201 12.5 12.001C12.5 10.2814 13.8605 8.84979 15.583 8.84961Z" fill="oklch(0.3523 0 0 / 1)" class="wd-icon-accent"></path>
</g>
</svg>