<svg width="24" height="24" viewBox="0 0 24 24" xmlns="http://www.w3.org/2000/svg" class="wd-icon wd-icon-team-fill" role="presentation">
<path d="M19 15C20.1046 15 21 15.8954 21 17V19C21 20.1046 20.1046 21 19 21H17C15.8954 21 15 20.1046 15 19V17C15 15.8954 15.8954 15 17 15H17.25V14C17.25 13.3096 16.6904 12.75 16 12.75H8C7.30964 12.75 6.75 13.3096 6.75 14V15H7C8.10457 15 9 15.8954 9 17V19C9 20.1046 8.10457 21 7 21H5C3.89543 21 3 20.1046 3 19V17C3 15.8954 3.89543 15 5 15H5.25V14C5.25 12.4812 6.48122 11.25 8 11.25H11.25V9H10C8.89543 9 8 8.10457 8 7V3C8 1.89543 8.89543 1 10 1H14C15.1046 1 16 1.89543 16 3V7C16 8.10457 15.1046 9 14 9H12.75V11.25H16C17.5188 11.25 18.75 12.4812 18.75 14V15H19ZM10 7H14V3H10V7Z" fill="oklch(0.3523 0 0 / 1)" class="wd-icon-fill"></path>
</svg>