<svg width="24" height="24" viewBox="0 0 24 24" xmlns="http://www.w3.org/2000/svg" class="wd-icon wd-icon-save" role="presentation">
<path d="M16.793 3C17.1908 3.00002 17.5722 3.15817 17.8535 3.43945L20.5605 6.14648C20.8418 6.42777 21 6.80923 21 7.20703V19.5C21 20.3284 20.3284 21 19.5 21H4.5C3.67157 21 3 20.3284 3 19.5V4.5C3 3.67157 3.67157 3 4.5 3H16.793ZM5 19H7V12C7 11.4477 7.44772 11 8 11H16C16.5523 11 17 11.4477 17 12V19H19V7.41406L17 5.41406V8C17 8.55228 16.5523 9 16 9H8C7.44772 9 7 8.55228 7 8V5H5V19ZM9 19H15V13H9V19ZM9 7H15V5H9V7Z" fill="oklch(0.3523 0 0 / 1)" class="wd-icon-fill"></path>
</svg>