<svg width="24" height="24" viewBox="0 0 24 24" xmlns="http://www.w3.org/2000/svg" class="wd-icon wd-icon-calendar-info" role="presentation">
<path d="M18 12C21.0376 12 23.5 14.4624 23.5 17.5C23.5 20.5376 21.0376 23 18 23C14.9624 23 12.5 20.5376 12.5 17.5C12.5 14.4624 14.9624 12 18 12ZM17.5 17C17.2239 17 17 17.2239 17 17.5V20.5C17 20.7761 17.2239 21 17.5 21H18.5C18.7761 21 19 20.7761 19 20.5V17.5C19 17.2239 18.7761 17 18.5 17H17.5ZM17.5 14C17.2239 14 17 14.2239 17 14.5V15.5C17 15.7761 17.2239 16 17.5 16H18.5C18.7761 16 19 15.7761 19 15.5V14.5C19 14.2239 18.7761 14 18.5 14H17.5Z" fill="oklch(0.3523 0 0 / 1)" class="wd-icon-accent"></path>
<g>
<path d="M7.5 1C7.77614 1 8 1.22386 8 1.5V3H16V1.5C16 1.22386 16.2239 1 16.5 1H17.5C17.7761 1 18 1.22386 18 1.5V3H21C21.5523 3 22 3.44772 22 4V10.5C22 10.7761 21.7761 11 21.5 11H20.5C20.2239 11 20 10.7761 20 10.5V9H4V19H10.5C10.7761 19 11 19.2239 11 19.5V20.5C11 20.7761 10.7761 21 10.5 21H3C2.44772 21 2 20.5523 2 20V4C2 3.44772 2.44772 3 3 3H6V1.5C6 1.22386 6.22386 1 6.5 1H7.5ZM4 7H20V5H4V7Z" fill="oklch(0.3523 0 0 / 1)" class="wd-icon-fill"></path>
<path d="M9.5 11C9.77614 11 10 11.2239 10 11.5V14.5C10 14.7761 9.77614 15 9.5 15H6.5C6.22386 15 6 14.7761 6 14.5V11.5C6 11.2239 6.22386 11 6.5 11H9.5Z" fill="oklch(0.3523 0 0 / 1)" class="wd-icon-fill"></path>
</g>
</svg>