<svg width="24" height="24" viewBox="0 0 24 24" xmlns="http://www.w3.org/2000/svg" class="wd-icon wd-icon-arrow-corner-down-left" role="presentation">
<path d="M2.22558 16.6338C1.92477 16.2657 1.92484 15.7363 2.22558 15.3682L4.78515 12.2393C4.78736 12.2364 4.78971 12.2333 4.79199 12.2305L6.40918 10.2549C6.58406 10.0412 6.89959 10.0097 7.11328 10.1846L7.88672 10.8174C8.10009 10.9922 8.13168 11.3069 7.95703 11.5205L7.14844 12.5078L7.14941 12.5088L5.10937 15.001L12 15.001C15.8657 15.0008 18.9998 11.8667 19 8.00098V3.5C19 3.22389 19.2239 3.00005 19.5 3L20.5 3C20.7761 3 21 3.22386 21 3.5V8.00098C20.9998 12.9713 16.9703 17.0008 12 17.001L5.10937 17.001L7.95801 20.4814C8.13262 20.6952 8.10146 21.0108 7.88769 21.1855L7.11328 21.8184C6.89964 21.9929 6.58399 21.9604 6.40918 21.7471L2.22558 16.6338Z" fill="oklch(0.3523 0 0 / 1)" class="wd-icon-fill"></path>
</svg>