<svg width="24" height="24" viewBox="0 0 24 24" xmlns="http://www.w3.org/2000/svg" class="wd-icon wd-icon-diamond-gem" role="presentation">
<path d="M16.2152 4C16.7809 4.00011 17.3204 4.24021 17.6996 4.66016L21.5179 8.88965C22.2204 9.66785 22.2032 10.8573 21.4779 11.6143L13.4427 19.999C12.6553 20.82 11.3422 20.8203 10.555 19.999L2.52085 11.6143C1.79562 10.8574 1.77768 9.66788 2.47983 8.88965L6.29819 4.66016C6.67732 4.24022 7.2178 4.00011 7.78355 4H16.2152ZM11.9984 18.4795L14.4623 11H9.5355L11.9984 18.4795ZM9.6605 16.1748L7.95737 11H4.70151L9.6605 16.1748ZM14.3373 16.1738L19.2962 11H16.0423L14.3373 16.1738ZM9.62827 9.5H14.3695L12.8959 6H11.1029L9.62827 9.5ZM15.9974 9.5H19.3744L16.2152 6H14.5238L15.9974 9.5ZM4.62339 9.5H8.00132L9.47495 6H7.78355L4.62339 9.5Z" fill="oklch(0.3523 0 0 / 1)" class="wd-icon-fill"></path>
</svg>