<svg width="24" height="24" viewBox="0 0 24 24" xmlns="http://www.w3.org/2000/svg" class="wd-icon wd-icon-visible" role="presentation">
<path d="M12.0019 6C16.2358 6.00003 19.9549 8.19429 22.0906 11.5062C22.2847 11.8071 22.2847 12.1929 22.0906 12.4938C19.9549 15.8057 16.2358 18 12.0019 18C7.76795 18 4.04886 15.8057 1.91309 12.4938C1.71907 12.1929 1.71907 11.8071 1.91309 11.5062C4.04886 8.1943 7.76795 6 12.0019 6Z" fill="transparent" class="wd-icon-background"></path>
<path d="M12.4291 5.00684C16.8386 5.14996 20.6896 7.49133 22.9291 10.9639C23.3358 11.5946 23.3358 12.4054 22.9291 13.0361C20.6896 16.5087 16.8386 18.85 12.4291 18.9932L12.0004 19C7.41239 19 3.38361 16.6207 1.07171 13.0361C0.6649 12.4053 0.6649 11.5947 1.07171 10.9639C3.38361 7.37926 7.41239 5 12.0004 5L12.4291 5.00684ZM12.0004 7C8.14153 7 4.74821 8.98822 2.78362 12C4.74821 15.0118 8.14153 17 12.0004 17L12.3627 16.9941C16.0709 16.874 19.3134 14.9169 21.2162 12C19.2517 8.98847 15.8591 7.00012 12.0004 7Z" fill="oklch(0.3523 0 0 / 1)" class="wd-icon-fill"></path>
<path d="M12 8.25C14.0711 8.25 15.75 9.92893 15.75 12C15.75 14.0711 14.0711 15.75 12 15.75C9.92893 15.75 8.25 14.0711 8.25 12C8.25 9.92893 9.92893 8.25 12 8.25Z" fill="oklch(0.3523 0 0 / 1)" class="wd-icon-accent"></path>
</svg>