<svg width="24" height="24" viewBox="0 0 24 24" xmlns="http://www.w3.org/2000/svg" class="wd-icon wd-icon-lock-authentication" role="presentation">
<g>
<path d="M19 20.25C19.4142 20.25 19.75 20.5858 19.75 21C19.75 21.4142 19.4142 21.75 19 21.75H5C4.58579 21.75 4.25 21.4142 4.25 21C4.25 20.5858 4.58579 20.25 5 20.25H19Z" fill="oklch(0.3523 0 0 / 1)" class="wd-icon-fill"></path>
<path d="M19 17.25C19.4142 17.25 19.75 17.5858 19.75 18C19.75 18.4142 19.4142 18.75 19 18.75H5C4.58579 18.75 4.25 18.4142 4.25 18C4.25 17.5858 4.58579 17.25 5 17.25H19Z" fill="oklch(0.3523 0 0 / 1)" class="wd-icon-fill"></path>
<path d="M12 1C14.2091 1 16 2.79086 16 5V6.17969C16.1219 6.21897 16.243 6.26638 16.3623 6.32715C16.9265 6.61472 17.3853 7.07347 17.6729 7.6377C17.8656 8.01599 17.9374 8.40943 17.9697 8.80469C18.0011 9.18836 18 9.65664 18 10.2002V11.7998C18 12.3434 18.0011 12.8116 17.9697 13.1953C17.9374 13.5906 17.8656 13.984 17.6729 14.3623C17.3853 14.9265 16.9265 15.3853 16.3623 15.6729C15.984 15.8656 15.5906 15.9374 15.1953 15.9697C14.8116 16.0011 14.3434 16 13.7998 16H10.2002C9.65664 16 9.18836 16.0011 8.80469 15.9697C8.40943 15.9374 8.01599 15.8656 7.6377 15.6729C7.07347 15.3853 6.61472 14.9265 6.32715 14.3623C6.1344 13.984 6.06258 13.5906 6.03027 13.1953C5.99893 12.8116 6 12.3434 6 11.7998V10.2002C6 9.65664 5.99893 9.18836 6.03027 8.80469C6.06258 8.40943 6.1344 8.01599 6.32715 7.6377C6.61472 7.07347 7.07347 6.61472 7.6377 6.32715C7.75696 6.26638 7.87815 6.21897 8 6.17969V5C8 2.79086 9.79086 1 12 1ZM10.2002 8C9.62364 8 9.25111 8.00126 8.96777 8.02441C8.69619 8.04661 8.59534 8.08419 8.5459 8.10938C8.35793 8.20522 8.20521 8.35793 8.10938 8.5459C8.08419 8.59534 8.04661 8.69619 8.02441 8.96777C8.00126 9.25111 8 9.62364 8 10.2002V11.7998C8 12.3764 8.00126 12.7489 8.02441 13.0322C8.04661 13.3038 8.08419 13.4047 8.10938 13.4541C8.20521 13.6421 8.35793 13.7948 8.5459 13.8906C8.59534 13.9158 8.69619 13.9534 8.96777 13.9756C9.25111 13.9987 9.62364 14 10.2002 14H13.7998C14.3764 14 14.7489 13.9987 15.0322 13.9756C15.3038 13.9534 15.4047 13.9158 15.4541 13.8906C15.6421 13.7948 15.7948 13.6421 15.8906 13.4541C15.9158 13.4047 15.9534 13.3038 15.9756 13.0322C15.9987 12.7489 16 12.3764 16 11.7998V10.2002C16 9.62364 15.9987 9.25111 15.9756 8.96777C15.9534 8.69619 15.9158 8.59534 15.8906 8.5459C15.7948 8.35793 15.6421 8.20522 15.4541 8.10938C15.4047 8.08419 15.3038 8.04661 15.0322 8.02441C14.7489 8.00126 14.3764 8 13.7998 8H10.2002ZM12 3C10.8954 3 10 3.89543 10 5V6.00098C10.0655 6.00094 10.1323 6 10.2002 6H13.7998C13.8677 6 13.9345 6.00094 14 6.00098V5C14 3.89543 13.1046 3 12 3Z" fill="oklch(0.3523 0 0 / 1)" class="wd-icon-fill"></path>
</g>
</svg>