<svg width="24" height="24" viewBox="0 0 24 24" xmlns="http://www.w3.org/2000/svg" class="wd-icon wd-icon-pie-chart" role="presentation">
<path d="M12 2C14.1118 2 16.1694 2.66855 17.8779 3.90983C19.5863 5.15111 20.858 6.9014 21.5106 8.90983C22.1631 10.9183 22.1631 13.0817 21.5106 15.0902C20.858 17.0986 19.5863 18.8489 17.8779 20.0902L12 12L12 2Z" fill="transparent" class="wd-icon-background"></path>
<path d="M11.9996 1C14.9169 1 17.715 2.1589 19.7779 4.22168C21.1432 5.587 22.1248 7.28826 22.6246 9.15332C23.1242 11.0183 23.1242 12.9817 22.6246 14.8467C22.1248 16.7118 21.1433 18.413 19.7779 19.7783C19.3738 20.1824 18.9395 20.5515 18.481 20.8857C18.4756 20.8899 18.4709 20.8954 18.4654 20.8994C18.458 20.9048 18.4503 20.9097 18.4429 20.915C18.4083 20.9401 18.3734 20.9646 18.3385 20.9893C18.2751 21.0339 18.2113 21.0778 18.147 21.1211C18.1108 21.1455 18.0742 21.1694 18.0377 21.1934C17.9782 21.2324 17.9182 21.2707 17.858 21.3086C17.8201 21.3324 17.7819 21.3556 17.7437 21.3789C17.6822 21.4166 17.6204 21.4538 17.5582 21.4902C17.5224 21.5112 17.4867 21.5322 17.4508 21.5527C17.3712 21.5981 17.2911 21.6422 17.2105 21.6855C17.2015 21.6904 17.1932 21.6964 17.1842 21.7012C17.0909 21.751 16.9965 21.7986 16.9019 21.8457C16.8837 21.8548 16.8655 21.8641 16.8472 21.873C16.779 21.9065 16.7101 21.9386 16.6412 21.9707C16.6001 21.9898 16.5594 22.0097 16.5181 22.0283C16.3109 22.1217 16.1009 22.2087 15.8883 22.2891C15.8673 22.297 15.8458 22.3037 15.8248 22.3115C15.6212 22.387 15.4155 22.4571 15.2076 22.5205C15.1898 22.5259 15.1718 22.5308 15.1539 22.5361C15.0715 22.5608 14.9889 22.5847 14.9058 22.6074C14.886 22.6129 14.8662 22.6197 14.8463 22.625L14.8453 22.623C14.4755 22.7221 14.1002 22.8041 13.7203 22.8643C12.0058 23.1358 10.251 22.9983 8.60017 22.4619C6.94935 21.9255 5.44866 21.0057 4.22127 19.7783C2.99388 18.5509 2.07409 17.0503 1.53767 15.3994C1.00127 13.7485 0.863789 11.9938 1.13533 10.2793C1.40688 8.5648 2.07988 6.93854 3.10017 5.53418C4.12041 4.12995 5.45895 2.9873 7.00545 2.19922C8.55208 1.41117 10.2638 1.00004 11.9996 1ZM10.9996 3.05566C9.92653 3.17566 8.88057 3.48782 7.91365 3.98047C6.64824 4.62527 5.55312 5.56098 4.71834 6.70996C3.88363 7.8589 3.33213 9.18914 3.10994 10.5918C2.88777 11.9946 3.00114 13.4305 3.44002 14.7812C3.8789 16.1319 4.63111 17.36 5.63533 18.3643C6.63956 19.3685 7.86767 20.1207 9.21834 20.5596C10.569 20.9984 12.0051 21.1118 13.4078 20.8896C14.4794 20.7199 15.5083 20.3567 16.4469 19.8232L11.191 12.5879C11.1872 12.5827 11.1849 12.5765 11.1812 12.5713C11.1621 12.5439 11.1448 12.5155 11.1285 12.4863C11.1208 12.4726 11.1121 12.4594 11.1051 12.4453C11.0658 12.3665 11.0385 12.2821 11.0211 12.1943C11.0084 12.1305 10.9996 12.0657 10.9996 12V3.05566ZM13.3101 12.1025L18.065 18.6475C18.1663 18.5551 18.2666 18.4615 18.3638 18.3643C19.4809 17.2472 20.2841 15.8551 20.6929 14.3291C21.1017 12.8033 21.1017 11.1967 20.6929 9.6709C20.3707 8.46833 19.8025 7.35 19.0299 6.38281L13.3101 12.1025ZM12.9996 9.58594L17.6158 4.96875C16.2886 3.90863 14.6877 3.24635 12.9996 3.05762V9.58594Z" fill="oklch(0.3523 0 0 / 1)" class="wd-icon-fill"></path>
</svg>