<svg width="24" height="24" viewBox="0 0 24 24" xmlns="http://www.w3.org/2000/svg" class="wd-icon wd-icon-bar-line-chart" role="presentation">
<g>
<path d="M5.50001 9C5.7181 9 5.93264 8.99971 6.11329 9.01172C6.2555 9.02119 6.41904 9.03981 6.59083 9.08984L6.76563 9.15137L6.94532 9.23633C7.35155 9.45429 7.6707 9.80746 7.84766 10.2344C7.94422 10.4679 7.97526 10.6946 7.98829 10.8848C8.00068 11.0661 8.00001 11.2808 8.00001 11.5V17.5C8.00001 17.7191 8.00069 17.934 7.98829 18.1152C7.97525 18.3053 7.94404 18.5304 7.84766 18.7637C7.64543 19.2518 7.25729 19.6439 6.76563 19.8477C6.53165 19.9446 6.30561 19.9753 6.11524 19.9883C5.93382 20.0007 5.71931 20 5.50001 20C5.28072 20 5.06619 20.0007 4.88477 19.9883C4.69441 19.9753 4.46834 19.9445 4.23438 19.8477C3.74275 19.6439 3.35458 19.2528 3.15235 18.7646C3.05598 18.5314 3.02476 18.3053 3.01173 18.1152C2.99933 17.934 3.00001 17.7191 3.00001 17.5V11.5C3.00001 11.2808 2.99933 11.0661 3.01173 10.8848C3.02476 10.6946 3.0557 10.468 3.15235 10.2344C3.35464 9.74635 3.74278 9.35504 4.23438 9.15137C4.46959 9.05398 4.69699 9.02435 4.88673 9.01172C5.06738 8.99971 5.2819 9 5.50001 9ZM5.01954 11.0068C5.01552 11.0071 5.01141 11.0075 5.00782 11.0078C5.0075 11.0118 5.00716 11.0169 5.00684 11.0215C5.0002 11.119 5.00001 11.2543 5.00001 11.5V17.5C5.00001 17.7458 5.0002 17.8813 5.00684 17.9785C5.00714 17.9829 5.00751 17.9874 5.00782 17.9912C5.01179 17.9915 5.01601 17.9928 5.02051 17.9932C5.11804 17.9998 5.25348 18 5.50001 18C5.74655 18 5.88197 17.9998 5.9795 17.9932C5.98366 17.9929 5.98751 17.9915 5.99122 17.9912C5.99159 17.9873 5.99287 17.9829 5.99317 17.9785C5.99981 17.8813 6.00001 17.7458 6.00001 17.5V11.5C6.00001 11.2543 5.99981 11.119 5.99317 11.0215C5.9928 11.0169 5.99154 11.0118 5.99122 11.0078C5.98793 11.0076 5.98411 11.0071 5.98048 11.0068C5.88225 11.0003 5.74735 11 5.50001 11C5.25264 11 5.11777 11.0003 5.01954 11.0068Z" fill="oklch(0.3523 0 0 / 1)" class="wd-icon-fill"></path>
<path d="M12 12C12.2181 12 12.4326 11.9997 12.6133 12.0117C12.7555 12.0212 12.919 12.0398 13.0908 12.0898L13.2656 12.1514L13.4453 12.2363C13.8516 12.4543 14.1707 12.8075 14.3477 13.2344C14.4442 13.4679 14.4753 13.6946 14.4883 13.8848C14.5007 14.0661 14.5 14.2808 14.5 14.5V17.5C14.5 17.7191 14.5007 17.934 14.4883 18.1152C14.4752 18.3053 14.444 18.5304 14.3477 18.7637C14.1454 19.2518 13.7573 19.6439 13.2656 19.8477C13.0317 19.9446 12.8056 19.9753 12.6152 19.9883C12.4338 20.0007 12.2193 20 12 20C11.7807 20 11.5662 20.0007 11.3848 19.9883C11.1944 19.9753 10.9683 19.9445 10.7344 19.8477C10.2427 19.6439 9.85458 19.2528 9.65235 18.7646C9.55598 18.5314 9.52476 18.3053 9.51173 18.1152C9.49933 17.934 9.50001 17.7191 9.50001 17.5V14.5C9.50001 14.2808 9.49933 14.0661 9.51173 13.8848C9.52476 13.6946 9.5557 13.468 9.65235 13.2344C9.85464 12.7463 10.2428 12.355 10.7344 12.1514L10.9092 12.0898C11.081 12.0398 11.2445 12.0212 11.3867 12.0117C11.5674 11.9997 11.7819 12 12 12ZM11.5195 14.0068C11.5155 14.0071 11.5114 14.0075 11.5078 14.0078C11.5075 14.0118 11.5072 14.0169 11.5068 14.0215C11.5002 14.119 11.5 14.2543 11.5 14.5V17.5C11.5 17.7458 11.5002 17.8813 11.5068 17.9785C11.5071 17.9829 11.5075 17.9874 11.5078 17.9912C11.5118 17.9915 11.516 17.9928 11.5205 17.9932C11.618 17.9998 11.7535 18 12 18C12.2465 18 12.382 17.9998 12.4795 17.9932C12.4837 17.9929 12.4875 17.9915 12.4912 17.9912C12.4916 17.9873 12.4929 17.9829 12.4932 17.9785C12.4998 17.8813 12.5 17.7458 12.5 17.5V14.5C12.5 14.2543 12.4998 14.119 12.4932 14.0215C12.4928 14.0169 12.4915 14.0118 12.4912 14.0078C12.4879 14.0076 12.4841 14.0071 12.4805 14.0068C12.3822 14.0003 12.2473 14 12 14C11.7526 14 11.6178 14.0003 11.5195 14.0068Z" fill="oklch(0.3523 0 0 / 1)" class="wd-icon-fill"></path>
<path d="M18.5 10C18.7181 10 18.9326 9.99971 19.1133 10.0117C19.2555 10.0212 19.419 10.0398 19.5908 10.0898L19.7656 10.1514L19.9453 10.2363C20.3516 10.4543 20.6707 10.8075 20.8477 11.2344C20.9442 11.4679 20.9753 11.6946 20.9883 11.8848C21.0007 12.0661 21 12.2808 21 12.5V17.5C21 17.7191 21.0007 17.934 20.9883 18.1152C20.9752 18.3053 20.944 18.5304 20.8477 18.7637C20.6454 19.2518 20.2573 19.6439 19.7656 19.8477C19.5317 19.9446 19.3056 19.9753 19.1152 19.9883C18.9338 20.0007 18.7193 20 18.5 20C18.2807 20 18.0662 20.0007 17.8848 19.9883C17.6944 19.9753 17.4683 19.9445 17.2344 19.8477C16.7427 19.6439 16.3546 19.2528 16.1524 18.7646C16.056 18.5314 16.0248 18.3053 16.0117 18.1152C15.9993 17.934 16 17.7191 16 17.5V12.5C16 12.2808 15.9993 12.0661 16.0117 11.8848C16.0248 11.6946 16.0557 11.468 16.1524 11.2344C16.3546 10.7463 16.7428 10.355 17.2344 10.1514L17.4092 10.0898C17.581 10.0398 17.7445 10.0212 17.8867 10.0117C18.0674 9.99971 18.2819 10 18.5 10ZM18.0195 12.0068C18.0155 12.0071 18.0114 12.0075 18.0078 12.0078C18.0075 12.0118 18.0072 12.0169 18.0068 12.0215C18.0002 12.119 18 12.2543 18 12.5V17.5C18 17.7458 18.0002 17.8813 18.0068 17.9785C18.0071 17.9829 18.0075 17.9874 18.0078 17.9912C18.0118 17.9915 18.016 17.9928 18.0205 17.9932C18.118 17.9998 18.2535 18 18.5 18C18.7465 18 18.882 17.9998 18.9795 17.9932C18.9837 17.9929 18.9875 17.9915 18.9912 17.9912C18.9916 17.9873 18.9929 17.9829 18.9932 17.9785C18.9998 17.8813 19 17.7458 19 17.5V12.5C19 12.2543 18.9998 12.119 18.9932 12.0215C18.9928 12.0169 18.9915 12.0118 18.9912 12.0078C18.9879 12.0076 18.9841 12.0071 18.9805 12.0068C18.8822 12.0003 18.7473 12 18.5 12C18.2526 12 18.1178 12.0003 18.0195 12.0068Z" fill="oklch(0.3523 0 0 / 1)" class="wd-icon-fill"></path>
</g>
<path d="M8.36433 2.48045C9.14317 2.0557 10.1091 2.19497 10.7364 2.82224L14.6778 6.76365L19.5216 4.12205C20.0063 3.85778 20.6135 4.03594 20.878 4.52049C21.1425 5.00533 20.9634 5.61344 20.4786 5.87791L15.6358 8.51951C14.8569 8.94432 13.8911 8.80506 13.2637 8.17771L9.32136 4.23631L4.47858 6.87791C3.9938 7.14201 3.38651 6.9632 3.12214 6.47849C2.85779 5.99369 3.0368 5.38651 3.52155 5.12205L8.36433 2.48045Z" fill="oklch(0.3523 0 0 / 1)" class="wd-icon-accent"></path>
</svg>