<svg width="24" height="24" viewBox="0 0 24 24" xmlns="http://www.w3.org/2000/svg" class="wd-icon wd-icon-grow" role="presentation">
<g>
<path d="M5 13C5.55226 13 5.99999 13.4477 6 14V16.5859L9.16992 13.416C9.56047 13.0258 10.1936 13.0256 10.584 13.416C10.9744 13.8064 10.9742 14.4395 10.584 14.8301L7.41406 18H10C10.5522 18.0001 10.9999 18.4478 11 19C10.9999 19.5522 10.5522 19.9999 10 20L5 19.999C4.44772 19.999 4 19.5513 4 18.999V14C4.00001 13.4477 4.44772 13 5 13Z" fill="oklch(0.3523 0 0 / 1)" class="wd-icon-fill"></path>
<path d="M18.9922 4C19.5437 4 19.9911 4.44656 19.9922 4.99805L20 9.99902C20.0005 10.5511 19.5531 10.9992 19.001 11C18.4489 11.0005 18.0008 10.5531 18 10.001L17.9961 7.41699L14.8252 10.5889C14.4346 10.9791 13.8015 10.9793 13.4111 10.5889C13.0207 10.1985 13.0209 9.56536 13.4111 9.1748L16.5859 6H14C13.4479 5.99988 13.0001 5.55214 13 5C13.0001 4.44787 13.4479 4.00012 14 4H18.9922Z" fill="oklch(0.3523 0 0 / 1)" class="wd-icon-fill"></path>
</g>
</svg>