<svg width="24" height="24" viewBox="0 0 24 24" xmlns="http://www.w3.org/2000/svg" class="wd-icon wd-icon-cloud-lock" role="presentation">
<g>
<path d="M14.5 12C16.1569 12 17.5 13.3431 17.5 15V16.0732C17.6364 16.1039 17.7734 16.1491 17.9082 16.2178C18.2845 16.4095 18.5905 16.7155 18.7822 17.0918C18.9132 17.3488 18.9596 17.6133 18.9805 17.8682C19.0006 18.1142 19 18.4125 19 18.75V20.25C19 20.5875 19.0006 20.8859 18.9805 21.1318C18.9597 21.3865 18.913 21.6503 18.7822 21.9072C18.5905 22.2834 18.2844 22.5895 17.9082 22.7812C17.6512 22.9122 17.3867 22.9596 17.1318 22.9805C16.8858 23.0006 16.5875 23 16.25 23H12.75C12.4125 23 12.1142 23.0006 11.8682 22.9805C11.6133 22.9596 11.3488 22.9122 11.0918 22.7812C10.7156 22.5895 10.4095 22.2834 10.2178 21.9072C10.087 21.6503 10.0403 21.3865 10.0195 21.1318C9.99943 20.8858 10 20.5875 10 20.25V18.75C10 18.4125 9.99945 18.1142 10.0195 17.8682C10.0404 17.6133 10.0868 17.3488 10.2178 17.0918C10.4095 16.7155 10.7155 16.4095 11.0918 16.2178C11.2266 16.1491 11.3636 16.1039 11.5 16.0732V15C11.5 13.3431 12.8431 12 14.5 12ZM12.75 17.5C12.3877 17.5 12.161 17.5007 11.9902 17.5146C11.8295 17.5278 11.7843 17.5492 11.7734 17.5547C11.6794 17.6026 11.6026 17.6794 11.5547 17.7734C11.5492 17.7843 11.5278 17.8295 11.5146 17.9902C11.5007 18.161 11.5 18.3877 11.5 18.75V20.25C11.5 20.6122 11.5007 20.839 11.5146 21.0098C11.5279 21.1716 11.5494 21.2162 11.5547 21.2266C11.6026 21.3206 11.6794 21.3974 11.7734 21.4453C11.7845 21.4509 11.8302 21.4723 11.9902 21.4854C12.161 21.4993 12.3877 21.5 12.75 21.5H16.25C16.6123 21.5 16.839 21.4993 17.0098 21.4854C17.1698 21.4723 17.2155 21.4509 17.2266 21.4453C17.3206 21.3974 17.3974 21.3206 17.4453 21.2266C17.4506 21.2162 17.4721 21.1716 17.4854 21.0098C17.4993 20.839 17.5 20.6122 17.5 20.25V18.75C17.5 18.3877 17.4993 18.161 17.4854 17.9902C17.4722 17.8295 17.4508 17.7843 17.4453 17.7734C17.3974 17.6794 17.3206 17.6026 17.2266 17.5547C17.2157 17.5492 17.1705 17.5278 17.0098 17.5146C16.839 17.5007 16.6123 17.5 16.25 17.5H12.75ZM14.5 13.5C13.6716 13.5 13 14.1716 13 15V16H16V15C16 14.1716 15.3284 13.5 14.5 13.5Z" fill="oklch(0.3523 0 0 / 1)" class="wd-icon-fill"></path>
<path d="M9.5 4C11.2345 4 12.7788 4.8054 13.7852 6.05664C14.0185 6.01932 14.2573 6 14.5 6C16.4813 6 18.1604 7.28002 18.7617 9.05762C21.1616 9.42445 23 11.4976 23 14C23 14.9091 22.7561 15.7645 22.3301 16.501C22.0534 16.9788 21.4418 17.1417 20.9639 16.8652C20.4861 16.5886 20.3231 15.977 20.5996 15.499C20.8542 15.0589 21 14.548 21 14C21 12.3431 19.6569 11 18 11C17.4762 11 17.0464 10.615 16.9697 10.1162C16.7856 8.91782 15.7494 8 14.5 8C14.3151 8 14.1356 8.02017 13.9639 8.05762C13.3611 8.18889 12.7114 7.964 12.3301 7.44141C11.6918 6.566 10.6619 6 9.5 6C7.567 6 6 7.567 6 9.5C6 9.54262 6.00127 9.58525 6.00293 9.62793C6.02999 10.3245 5.59776 10.9496 4.95996 11.1855C3.81443 11.6091 3 12.7105 3 14C3 15.6569 4.34315 17 6 17H7C7.55228 17 8 17.4477 8 18C8 18.5523 7.55228 19 7 19H6C3.23858 19 1 16.7614 1 14C1 11.9478 2.23678 10.1887 4.00195 9.41797C4.04582 6.41823 6.48983 4 9.5 4Z" fill="oklch(0.3523 0 0 / 1)" class="wd-icon-fill"></path>
</g>
</svg>