<svg width="24" height="24" viewBox="0 0 24 24" xmlns="http://www.w3.org/2000/svg" class="wd-icon wd-icon-history" role="presentation">
<path d="M9.388 3.38731C11.3804 2.78308 13.5211 2.88842 15.4446 3.68516C17.3681 4.48201 18.9563 5.92131 19.9378 7.75743C20.9191 9.59356 21.2335 11.7135 20.8275 13.7555C20.4213 15.7974 19.3195 17.6358 17.7103 18.9566C16.1008 20.2775 14.0824 20.9995 12.0003 20.9996C11.448 20.9996 11.0003 20.5519 11.0003 19.9996C11.0005 19.4475 11.4481 18.9996 12.0003 18.9996C13.6196 18.9995 15.189 18.438 16.4407 17.4107C17.6924 16.3834 18.5496 14.9531 18.8655 13.3649C19.1813 11.7768 18.9374 10.1278 18.1741 8.69981C17.4107 7.27168 16.1751 6.15257 14.679 5.53282C13.1829 4.91312 11.5177 4.83139 9.96808 5.30137C8.4186 5.77148 7.07967 6.76467 6.17999 8.11095C5.28042 9.45737 4.87583 11.0746 5.03449 12.6861C5.16224 13.9824 5.64806 15.2109 6.42902 16.2379L7.54132 15.1266C7.82735 14.8405 8.3177 14.9948 8.388 15.3932L9.15753 19.7545C9.21775 20.0961 8.92004 20.3936 8.57843 20.3336L4.2171 19.5641C3.81875 19.4938 3.66447 19.0044 3.9505 18.7184L5.00617 17.6617C3.90338 16.2994 3.2164 14.6392 3.04327 12.8815C2.83936 10.8096 3.3603 8.73069 4.51691 6.99962C5.67371 5.26852 7.39561 3.9917 9.388 3.38731Z" fill="oklch(0.3523 0 0 / 1)" class="wd-icon-fill"></path>
<path d="M12 6.99902C12.4142 6.99902 12.7499 7.33487 12.75 7.74902V11.6885L15.0303 13.9688C15.3231 14.2616 15.3231 14.7364 15.0303 15.0293C14.7374 15.3222 14.2626 15.3222 13.9697 15.0293L11.6162 12.6758C11.3818 12.4414 11.25 12.1235 11.25 11.792V7.74902C11.2501 7.33487 11.5858 6.99902 12 6.99902Z" fill="oklch(0.3523 0 0 / 1)" class="wd-icon-accent"></path>
</svg>