<svg width="24" height="24" viewBox="0 0 24 24" xmlns="http://www.w3.org/2000/svg" class="wd-icon wd-icon-box-text-check" role="presentation">
<path d="M20.5 3C21.3284 3 22 3.67157 22 4.5V14.5C22 14.7761 21.7761 15 21.5 15H20.5C20.2239 15 20 14.7761 20 14.5V5H4V19H12.5C12.7761 19 13 19.2239 13 19.5V20.5C13 20.7761 12.7761 21 12.5 21H3.5C2.67157 21 2 20.3284 2 19.5V4.5C2 3.67157 2.67157 3 3.5 3H20.5Z" fill="oklch(0.3523 0 0 / 1)" class="wd-icon-fill"></path>
<g>
<path d="M21.9395 16.6465C22.1347 16.4513 22.4512 16.4513 22.6465 16.6465L23.3535 17.3535C23.5487 17.5488 23.5487 17.8653 23.3535 18.0605L18.707 22.707C18.3166 23.0974 17.6835 23.0973 17.293 22.707L15.1465 20.5605C14.9513 20.3653 14.9514 20.0488 15.1465 19.8535L15.8535 19.1465C16.0488 18.9513 16.3653 18.9513 16.5605 19.1465L18 20.5859L21.9395 16.6465Z" fill="oklch(0.3523 0 0 / 1)" class="wd-icon-accent"></path>
<path d="M12.5 14C12.7761 14 13 14.2239 13 14.5V15.5C12.9999 15.776 12.7761 16 12.5 16H7.5C7.22394 16 7.00013 15.776 7 15.5V14.5C7 14.2239 7.22386 14 7.5 14H12.5Z" fill="oklch(0.3523 0 0 / 1)" class="wd-icon-accent"></path>
<path d="M16.5 11C16.7761 11 17 11.2239 17 11.5V12.5C16.9999 12.776 16.7761 13 16.5 13H7.5C7.22394 13 7.00013 12.776 7 12.5V11.5C7 11.2239 7.22386 11 7.5 11H16.5Z" fill="oklch(0.3523 0 0 / 1)" class="wd-icon-accent"></path>
<path d="M16.5 8C16.7761 8 17 8.22386 17 8.5V9.5C16.9999 9.77603 16.7761 10 16.5 10H7.5C7.22394 10 7.00013 9.77603 7 9.5V8.5C7 8.22386 7.22386 8 7.5 8H16.5Z" fill="oklch(0.3523 0 0 / 1)" class="wd-icon-accent"></path>
</g>
</svg>