<svg width="24" height="24" viewBox="0 0 24 24" xmlns="http://www.w3.org/2000/svg" class="wd-icon wd-icon-buildings" role="presentation">
<g>
<path d="M11.7988 4C12.3754 4 12.7479 4.00126 13.0312 4.02441C13.3028 4.04661 13.4037 4.08419 13.4531 4.10938C13.6411 4.20521 13.7938 4.35793 13.8896 4.5459C13.9148 4.59534 13.9524 4.69619 13.9746 4.96777C13.9978 5.25111 13.999 5.62364 13.999 6.2002V16.7998C13.999 17.3764 13.9978 17.7489 13.9746 18.0322C13.9524 18.3038 13.9148 18.4047 13.8896 18.4541C13.7938 18.6421 13.6411 18.7948 13.4531 18.8906C13.4037 18.9158 13.3028 18.9534 13.0312 18.9756C12.7479 18.9987 12.3754 19 11.7988 19H7.19922C6.62267 19 6.25013 18.9987 5.9668 18.9756C5.69521 18.9534 5.59436 18.9158 5.54492 18.8906C5.35695 18.7948 5.20424 18.6421 5.1084 18.4541C5.08321 18.4047 5.04563 18.3038 5.02344 18.0322C5.00029 17.7489 4.99902 17.3764 4.99902 16.7998V6.2002C4.99902 5.62364 5.00029 5.25111 5.02344 4.96777C5.04563 4.69619 5.08321 4.59534 5.1084 4.5459C5.20424 4.35793 5.35695 4.20521 5.54492 4.10938C5.59436 4.08419 5.69521 4.04661 5.9668 4.02441C6.25013 4.00126 6.62267 4 7.19922 4H11.7988ZM6.99902 17H8.99902V15H6.99902V17ZM9.99902 17H11.999V15H9.99902V17ZM6.99902 14H8.99902V12H6.99902V14ZM9.99902 14H11.999V12H9.99902V14ZM6.99902 11H8.99902V9H6.99902V11ZM9.99805 11H11.998V9H9.99805V11ZM6.99902 8H8.99902V6H6.99902V8ZM9.99902 8H11.999V6H9.99902V8Z" fill="transparent" class="wd-icon-background"></path>
<path d="M17.7998 10C18.3764 10 18.7489 10.0013 19.0322 10.0244C19.3038 10.0466 19.4047 10.0842 19.4541 10.1094C19.6421 10.2052 19.7948 10.3579 19.8906 10.5459C19.9158 10.5953 19.9534 10.6962 19.9756 10.9678C19.9987 11.2511 20 11.6236 20 12.2002V16.7998C20 17.3764 19.9987 17.7489 19.9756 18.0322C19.9534 18.3038 19.9158 18.4047 19.8906 18.4541C19.7948 18.6421 19.6421 18.7948 19.4541 18.8906C19.4047 18.9158 19.3038 18.9534 19.0322 18.9756C18.7489 18.9987 18.3764 19 17.7998 19H15.8193C15.9046 18.7353 15.9466 18.466 15.9688 18.1953C16.0001 17.8116 15.999 17.3434 15.999 16.7998V10H17.7998ZM16.999 17H18.999V15H16.999V17ZM16.999 14H18.999V12H16.999V14Z" fill="transparent" class="wd-icon-background"></path>
</g>
<path d="M11.7988 2C12.3424 2 12.8107 1.99893 13.1943 2.03028C13.5896 2.06259 13.983 2.1344 14.3613 2.32715C14.9256 2.61473 15.3843 3.07348 15.6719 3.6377C15.8646 4.016 15.9364 4.40944 15.9688 4.80469C16.0001 5.18836 15.999 5.65665 15.999 6.2002V8H17.7998C18.3434 8 18.8116 7.99893 19.1953 8.03028C19.5906 8.06259 19.984 8.13442 20.3623 8.32715C20.9265 8.61471 21.3853 9.07352 21.6729 9.6377C21.8656 10.016 21.9374 10.4095 21.9697 10.8047C22.0011 11.1883 22 11.6567 22 12.2002V16.7998C22 17.3433 22.0011 17.8117 21.9697 18.1953C21.9374 18.5905 21.8656 18.984 21.6729 19.3623C21.3853 19.9265 20.9265 20.3853 20.3623 20.6729C19.984 20.8656 19.5906 20.9374 19.1953 20.9697C18.8116 21.0011 18.3434 21 17.7998 21H13V20.9805C12.656 20.9986 12.2538 21 11.7988 21H7.19922C6.65567 21 6.18739 21.0011 5.80372 20.9697C5.40846 20.9374 5.01502 20.8656 4.63672 20.6729C4.0725 20.3853 3.61375 19.9265 3.32618 19.3623C3.13343 18.984 3.06161 18.5906 3.0293 18.1953C2.99795 17.8116 2.99903 17.3434 2.99903 16.7998V6.2002C2.99903 5.65665 2.99795 5.18836 3.0293 4.80469C3.06161 4.40944 3.13342 4.016 3.32618 3.6377C3.61375 3.07348 4.0725 2.61473 4.63672 2.32715C5.01502 2.1344 5.40846 2.06259 5.80372 2.03028C6.18739 1.99893 6.65567 2 7.19922 2H11.7988ZM15.999 16.7998C15.999 17.3434 16.0001 17.8116 15.9688 18.1953C15.9466 18.466 15.9047 18.7353 15.8193 19H17.7998C18.3764 19 18.7489 18.9987 19.0322 18.9756C19.3038 18.9534 19.4047 18.9158 19.4541 18.8906C19.6421 18.7948 19.7948 18.6421 19.8906 18.4541C19.9158 18.4046 19.9534 18.3036 19.9756 18.0322C19.9987 17.7489 20 17.3763 20 16.7998V12.2002C20 11.6237 19.9987 11.2511 19.9756 10.9678C19.9534 10.6963 19.9158 10.5953 19.8906 10.5459C19.7948 10.358 19.642 10.2052 19.4541 10.1094C19.4046 10.0842 19.3037 10.0466 19.0322 10.0244C18.7489 10.0013 18.3764 10 17.7998 10H15.999V16.7998ZM7.19922 4C6.62267 4 6.25014 4.00127 5.9668 4.02442C5.69522 4.04662 5.59436 4.08419 5.54493 4.10938C5.35696 4.20522 5.20424 4.35793 5.1084 4.5459C5.08321 4.59534 5.04564 4.69619 5.02344 4.96778C5.00029 5.25111 4.99903 5.62365 4.99903 6.2002V16.7998C4.99903 17.3764 5.00029 17.7489 5.02344 18.0322C5.04564 18.3038 5.08321 18.4047 5.1084 18.4541C5.20424 18.6421 5.35696 18.7948 5.54493 18.8906C5.59436 18.9158 5.69522 18.9534 5.9668 18.9756C6.25014 18.9987 6.62267 19 7.19922 19H11.7988C12.3754 19 12.7479 18.9987 13.0313 18.9756C13.3028 18.9534 13.4037 18.9158 13.4531 18.8906C13.6411 18.7948 13.7938 18.6421 13.8897 18.4541C13.9148 18.4047 13.9524 18.3038 13.9746 18.0322C13.9978 17.7489 13.999 17.3764 13.999 16.7998V6.2002C13.999 5.62365 13.9978 5.25111 13.9746 4.96778C13.9524 4.69619 13.9148 4.59534 13.8897 4.5459C13.7938 4.35794 13.6411 4.20522 13.4531 4.10938C13.4037 4.08419 13.3028 4.04661 13.0313 4.02442C12.7479 4.00127 12.3754 4 11.7988 4H7.19922Z" fill="oklch(0.3523 0 0 / 1)" class="wd-icon-fill"></path>
<g>
<path d="M8.19922 15C8.47888 15 8.61869 15.0003 8.72559 15.0547C8.81967 15.1026 8.8964 15.1794 8.94434 15.2734C8.99868 15.3803 8.99902 15.5201 8.99902 15.7998V16.2002C8.99902 16.4799 8.99868 16.6197 8.94434 16.7266C8.8964 16.8206 8.81967 16.8974 8.72559 16.9453C8.61869 16.9997 8.47888 17 8.19922 17H7.79883C7.51916 17 7.37936 16.9997 7.27246 16.9453C7.17838 16.8974 7.10165 16.8206 7.05371 16.7266C6.99936 16.6197 6.99902 16.4799 6.99902 16.2002V15.7998C6.99902 15.5201 6.99936 15.3803 7.05371 15.2734C7.10165 15.1794 7.17838 15.1026 7.27246 15.0547C7.37936 15.0003 7.51916 15 7.79883 15H8.19922Z" fill="oklch(0.3523 0 0 / 1)" class="wd-icon-accent"></path>
<path d="M11.1992 15C11.4789 15 11.6187 15.0003 11.7256 15.0547C11.8197 15.1026 11.8964 15.1794 11.9443 15.2734C11.9987 15.3803 11.999 15.5201 11.999 15.7998V16.2002C11.999 16.4799 11.9987 16.6197 11.9443 16.7266C11.8964 16.8206 11.8197 16.8974 11.7256 16.9453C11.6187 16.9997 11.4789 17 11.1992 17H10.7988C10.5192 17 10.3794 16.9997 10.2725 16.9453C10.1784 16.8974 10.1016 16.8206 10.0537 16.7266C9.99936 16.6197 9.99902 16.4799 9.99902 16.2002V15.7998C9.99902 15.5201 9.99936 15.3803 10.0537 15.2734C10.1016 15.1794 10.1784 15.1026 10.2725 15.0547C10.3794 15.0003 10.5192 15 10.7988 15H11.1992Z" fill="oklch(0.3523 0 0 / 1)" class="wd-icon-accent"></path>
<path d="M18.1992 15C18.4788 15 18.6187 15.0004 18.7256 15.0547C18.8197 15.1026 18.8964 15.1794 18.9443 15.2734C18.9988 15.3803 18.999 15.5201 18.999 15.7998V16.2002C18.999 16.4802 18.9988 16.6206 18.9443 16.7275C18.8964 16.8215 18.8196 16.8974 18.7256 16.9453C18.6187 16.9997 18.479 17 18.1992 17H17.7988C17.5191 17 17.3794 16.9997 17.2725 16.9453C17.1785 16.8974 17.1017 16.8215 17.0537 16.7275C16.9992 16.6206 16.999 16.4802 16.999 16.2002V15.7998C16.999 15.5201 16.9993 15.3803 17.0537 15.2734C17.1016 15.1794 17.1784 15.1026 17.2725 15.0547C17.3793 15.0004 17.5193 15 17.7988 15H18.1992Z" fill="oklch(0.3523 0 0 / 1)" class="wd-icon-accent"></path>
<path d="M8.19922 12C8.47888 12 8.61869 12.0003 8.72559 12.0547C8.81967 12.1026 8.8964 12.1794 8.94434 12.2734C8.99868 12.3803 8.99902 12.5201 8.99902 12.7998V13.2002C8.99902 13.4799 8.99868 13.6197 8.94434 13.7266C8.8964 13.8206 8.81967 13.8974 8.72559 13.9453C8.61869 13.9997 8.47888 14 8.19922 14H7.79883C7.51916 14 7.37936 13.9997 7.27246 13.9453C7.17838 13.8974 7.10165 13.8206 7.05371 13.7266C6.99936 13.6197 6.99902 13.4799 6.99902 13.2002V12.7998C6.99902 12.5201 6.99936 12.3803 7.05371 12.2734C7.10165 12.1794 7.17838 12.1026 7.27246 12.0547C7.37936 12.0003 7.51916 12 7.79883 12H8.19922Z" fill="oklch(0.3523 0 0 / 1)" class="wd-icon-accent"></path>
<path d="M11.1992 12C11.4789 12 11.6187 12.0003 11.7256 12.0547C11.8197 12.1026 11.8964 12.1794 11.9443 12.2734C11.9987 12.3803 11.999 12.5201 11.999 12.7998V13.2002C11.999 13.4799 11.9987 13.6197 11.9443 13.7266C11.8964 13.8206 11.8197 13.8974 11.7256 13.9453C11.6187 13.9997 11.4789 14 11.1992 14H10.7988C10.5192 14 10.3794 13.9997 10.2725 13.9453C10.1784 13.8974 10.1016 13.8206 10.0537 13.7266C9.99936 13.6197 9.99902 13.4799 9.99902 13.2002V12.7998C9.99902 12.5201 9.99936 12.3803 10.0537 12.2734C10.1016 12.1794 10.1784 12.1026 10.2725 12.0547C10.3794 12.0003 10.5192 12 10.7988 12H11.1992Z" fill="oklch(0.3523 0 0 / 1)" class="wd-icon-accent"></path>
<path d="M18.1992 12C18.4788 12 18.6187 12.0004 18.7256 12.0547C18.8197 12.1026 18.8964 12.1794 18.9443 12.2734C18.9988 12.3803 18.999 12.5201 18.999 12.7998V13.2002C18.999 13.4802 18.9988 13.6206 18.9443 13.7275C18.8964 13.8215 18.8196 13.8974 18.7256 13.9453C18.6187 13.9997 18.479 14 18.1992 14H17.7988C17.5191 14 17.3794 13.9997 17.2725 13.9453C17.1785 13.8974 17.1017 13.8215 17.0537 13.7275C16.9992 13.6206 16.999 13.4802 16.999 13.2002V12.7998C16.999 12.5201 16.9993 12.3803 17.0537 12.2734C17.1016 12.1794 17.1784 12.1026 17.2725 12.0547C17.3793 12.0004 17.5193 12 17.7988 12H18.1992Z" fill="oklch(0.3523 0 0 / 1)" class="wd-icon-accent"></path>
<path d="M8.19922 9C8.47888 9 8.61869 9.00034 8.72559 9.05469C8.81967 9.10262 8.8964 9.17936 8.94434 9.27344C8.99868 9.38033 8.99902 9.52014 8.99902 9.7998V10.2002C8.99902 10.4799 8.99868 10.6197 8.94434 10.7266C8.8964 10.8206 8.81967 10.8974 8.72559 10.9453C8.61869 10.9997 8.47888 11 8.19922 11H7.79883C7.51916 11 7.37936 10.9997 7.27246 10.9453C7.17838 10.8974 7.10165 10.8206 7.05371 10.7266C6.99936 10.6197 6.99902 10.4799 6.99902 10.2002V9.7998C6.99902 9.52014 6.99936 9.38033 7.05371 9.27344C7.10165 9.17936 7.17838 9.10262 7.27246 9.05469C7.37936 9.00034 7.51916 9 7.79883 9H8.19922Z" fill="oklch(0.3523 0 0 / 1)" class="wd-icon-accent"></path>
<path d="M11.1982 9C11.4779 9 11.6177 9.00034 11.7246 9.05469C11.8187 9.10262 11.8954 9.17936 11.9434 9.27344C11.9977 9.38033 11.998 9.52014 11.998 9.7998V10.2002C11.998 10.4799 11.9977 10.6197 11.9434 10.7266C11.8954 10.8206 11.8187 10.8974 11.7246 10.9453C11.6177 10.9997 11.4779 11 11.1982 11H10.7979C10.5182 11 10.3784 10.9997 10.2715 10.9453C10.1774 10.8974 10.1007 10.8206 10.0527 10.7266C9.99839 10.6197 9.99805 10.4799 9.99805 10.2002V9.7998C9.99805 9.52014 9.99839 9.38033 10.0527 9.27344C10.1007 9.17936 10.1774 9.10262 10.2715 9.05469C10.3784 9.00034 10.5182 9 10.7979 9H11.1982Z" fill="oklch(0.3523 0 0 / 1)" class="wd-icon-accent"></path>
<path d="M8.19922 6C8.47888 6 8.61869 6.00034 8.72559 6.05469C8.81967 6.10262 8.8964 6.17936 8.94434 6.27344C8.99868 6.38033 8.99902 6.52014 8.99902 6.7998V7.2002C8.99902 7.47986 8.99868 7.61967 8.94434 7.72656C8.8964 7.82064 8.81967 7.89738 8.72559 7.94531C8.61869 7.99966 8.47888 8 8.19922 8H7.79883C7.51916 8 7.37936 7.99966 7.27246 7.94531C7.17838 7.89738 7.10165 7.82064 7.05371 7.72656C6.99936 7.61967 6.99902 7.47986 6.99902 7.2002V6.7998C6.99902 6.52014 6.99936 6.38033 7.05371 6.27344C7.10165 6.17936 7.17838 6.10262 7.27246 6.05469C7.37936 6.00034 7.51916 6 7.79883 6H8.19922Z" fill="oklch(0.3523 0 0 / 1)" class="wd-icon-accent"></path>
<path d="M11.1992 6C11.4789 6 11.6187 6.00034 11.7256 6.05469C11.8197 6.10262 11.8964 6.17936 11.9443 6.27344C11.9987 6.38033 11.999 6.52014 11.999 6.7998V7.2002C11.999 7.47986 11.9987 7.61967 11.9443 7.72656C11.8964 7.82064 11.8197 7.89738 11.7256 7.94531C11.6187 7.99966 11.4789 8 11.1992 8H10.7988C10.5192 8 10.3794 7.99966 10.2725 7.94531C10.1784 7.89738 10.1016 7.82064 10.0537 7.72656C9.99936 7.61967 9.99902 7.47986 9.99902 7.2002V6.7998C9.99902 6.52014 9.99936 6.38033 10.0537 6.27344C10.1016 6.17936 10.1784 6.10262 10.2725 6.05469C10.3794 6.00034 10.5192 6 10.7988 6H11.1992Z" fill="oklch(0.3523 0 0 / 1)" class="wd-icon-accent"></path>
</g>
</svg>