<svg width="24" height="24" viewBox="0 0 24 24" xmlns="http://www.w3.org/2000/svg" class="wd-icon wd-icon-document-stack" role="presentation">
<g>
<path d="M14.7496 14.2501C15.1637 14.2501 15.4995 14.586 15.4996 15.0001C15.4996 15.4143 15.1638 15.7501 14.7496 15.7501H11.2496C10.8355 15.75 10.4996 15.4143 10.4996 15.0001C10.4997 14.586 10.8355 14.2502 11.2496 14.2501H14.7496Z" fill="oklch(0.3523 0 0 / 1)" class="wd-icon-fill"></path>
<path d="M16.7496 11.2501C17.1637 11.2501 17.4995 11.586 17.4996 12.0001C17.4996 12.4143 17.1638 12.7501 16.7496 12.7501H11.2496C10.8355 12.75 10.4996 12.4143 10.4996 12.0001C10.4997 11.586 10.8355 11.2502 11.2496 11.2501H16.7496Z" fill="oklch(0.3523 0 0 / 1)" class="wd-icon-fill"></path>
<path d="M13.6744 1.00009C14.1158 1.00009 14.4998 0.993855 14.8717 1.0831C15.1776 1.15658 15.4705 1.27809 15.7389 1.44248C16.0649 1.64234 16.332 1.91848 16.6441 2.23056L19.7691 5.35556C20.0812 5.66766 20.3573 5.93483 20.5572 6.26084C20.7216 6.52914 20.8431 6.82206 20.9166 7.12802C21.0059 7.49993 20.9996 7.8839 20.9996 8.32529V15.7999C20.9996 16.3434 21.0007 16.8118 20.9693 17.1954C20.937 17.5906 20.8652 17.9841 20.6724 18.3624C20.3849 18.9266 19.9261 19.3854 19.3619 19.6729C18.9836 19.8657 18.5901 19.9375 18.1949 19.9698C17.8288 19.9997 17.3857 19.9991 16.8736 19.9991C16.4299 21.7249 14.8638 23.0001 12.9996 23.0001H8.7994C7.97599 23.0001 7.29798 23.0011 6.74764 22.9562C6.18566 22.9102 5.66844 22.8118 5.18319 22.5645C4.43078 22.1811 3.81858 21.5689 3.43514 20.8165C3.18795 20.3313 3.08946 19.814 3.04354 19.252C2.99859 18.7017 2.9996 18.0237 2.9996 17.2003V9.00009C2.99959 8.1346 2.99144 7.50562 3.13631 6.96494C3.5062 5.58467 4.58417 4.5067 5.96444 4.13681C6.27642 4.05322 6.61797 4.02252 7.01717 4.00986C7.02081 3.93911 7.02449 3.8706 7.02987 3.80478C7.06219 3.40958 7.13402 3.01603 7.32674 2.63779C7.61431 2.07362 8.07312 1.61481 8.63729 1.32724C9.01554 1.13452 9.40908 1.06269 9.80428 1.03037C10.1879 0.999024 10.6563 1.00009 11.1998 1.00009H13.6744ZM6.9996 6.00986C6.74215 6.0191 6.60078 6.03663 6.48202 6.06845C5.79193 6.2534 5.25291 6.79243 5.06795 7.48252C5.0084 7.70478 4.9996 8.00589 4.9996 9.00009V17.2003C4.9996 18.0566 4.99996 18.639 5.0367 19.089C5.07251 19.5272 5.13773 19.7519 5.21737 19.9083C5.40907 20.2845 5.71523 20.5906 6.09139 20.7823C6.24777 20.862 6.47243 20.9272 6.91073 20.963C7.36074 20.9997 7.9431 21.0001 8.7994 21.0001H12.9996C13.7396 21.0001 14.3841 20.5975 14.7301 20.0001H11.1998C10.6563 20.0001 10.1879 20.0012 9.80428 19.9698C9.40909 19.9375 9.01553 19.8657 8.63729 19.6729C8.07316 19.3854 7.61428 18.9266 7.32674 18.3624C7.13407 17.9842 7.06217 17.5906 7.02987 17.1954C6.99854 16.8118 6.9996 16.3434 6.9996 15.7999V6.00986ZM11.1998 3.00009C10.6233 3.00009 10.2507 3.00136 9.96737 3.02451C9.6959 3.04671 9.59492 3.08428 9.54549 3.10947C9.35758 3.2053 9.2048 3.35808 9.10897 3.54599C9.08379 3.59542 9.04621 3.69641 9.02401 3.96787C9.00086 4.25118 8.9996 4.62384 8.9996 5.20029V15.7999C8.9996 16.3763 9.00088 16.749 9.02401 17.0323C9.04617 17.3035 9.08378 17.4047 9.10897 17.4542C9.20478 17.6421 9.35762 17.7949 9.54549 17.8907C9.59492 17.9159 9.69592 17.9535 9.96737 17.9757C10.2507 17.9988 10.6233 18.0001 11.1998 18.0001H16.7994C17.3759 18.0001 17.7485 17.9988 18.0318 17.9757C18.3033 17.9535 18.4042 17.9159 18.4537 17.8907C18.6417 17.7949 18.7944 17.6422 18.8902 17.4542C18.9154 17.4047 18.953 17.3038 18.9752 17.0323C18.9983 16.749 18.9996 16.3763 18.9996 15.7999V9.00009H14.9996C13.8951 9 12.9996 8.10461 12.9996 7.00009V3.00009H11.1998ZM14.4996 7.00009C14.4996 7.27618 14.7235 7.5 14.9996 7.50009H18.941C18.9174 7.43274 18.8895 7.3667 18.8521 7.30576C18.8047 7.22846 18.7339 7.14846 18.3551 6.76963L15.2301 3.64463C14.851 3.26561 14.7713 3.195 14.6939 3.14756C14.6329 3.11019 14.567 3.0823 14.4996 3.05869V7.00009Z" fill="oklch(0.3523 0 0 / 1)" class="wd-icon-fill"></path>
</g>
</svg>