<svg width="24" height="24" viewBox="0 0 24 24" xmlns="http://www.w3.org/2000/svg" class="wd-icon wd-icon-square-pointer" role="presentation">
<path d="M21.0674 15.2822L17.9551 16.4277C17.6065 16.5562 17.323 16.8136 17.1592 17.1426L17.0957 17.2871L15.9492 20.3994L13.3945 12.7266L21.0674 15.2822Z" fill="transparent" class="wd-icon-background"></path>
<path d="M15.1982 3C16.0217 3 16.6996 2.99898 17.25 3.04395C17.8121 3.08988 18.3292 3.18827 18.8145 3.43555C19.567 3.81902 20.179 4.43109 20.5625 5.1836C20.8098 5.6689 20.9082 6.18599 20.9541 6.74805C20.9991 7.29843 20.998 7.97632 20.998 8.79981V10C20.998 10.5523 20.5503 11 19.998 11C19.4458 11 18.998 10.5523 18.998 10V8.79981C18.998 7.94342 18.9977 7.36117 18.9609 6.91113C18.9251 6.47272 18.86 6.2482 18.7803 6.0918C18.5885 5.71555 18.2825 5.40951 17.9063 5.21778C17.7499 5.13809 17.5253 5.07293 17.0869 5.03711C16.6369 5.00035 16.0546 5 15.1982 5H8.79785C7.94146 5 7.35922 5.00035 6.90918 5.03711C6.47077 5.07293 6.24624 5.13809 6.08985 5.21778C5.71359 5.40951 5.40756 5.71555 5.21582 6.0918C5.13613 6.2482 5.07098 6.47272 5.03516 6.91113C4.9984 7.36117 4.99805 7.94342 4.99805 8.79981V15.2002C4.99805 16.0566 4.9984 16.6388 5.03516 17.0889C5.07098 17.5273 5.13613 17.7518 5.21582 17.9082C5.40756 18.2845 5.71359 18.5905 6.08985 18.7822C6.24624 18.8619 6.47077 18.9271 6.90918 18.9629C7.35922 18.9997 7.94146 19 8.79785 19H10.998C11.5503 19 11.998 19.4477 11.998 20C11.998 20.5523 11.5503 21 10.998 21H8.79785C7.97436 21 7.29647 21.001 6.7461 20.9561C6.18404 20.9101 5.66695 20.8117 5.18164 20.5645C4.42914 20.181 3.81706 19.5689 3.4336 18.8164C3.18632 18.3311 3.08792 17.814 3.04199 17.252C2.99703 16.7016 2.99805 16.0237 2.99805 15.2002V8.79981C2.99805 7.97632 2.99703 7.29843 3.04199 6.74805C3.08792 6.18599 3.18632 5.6689 3.4336 5.1836C3.81706 4.43109 4.42914 3.81902 5.18164 3.43555C5.66695 3.18827 6.18404 3.08988 6.7461 3.04395C7.29648 2.99898 7.97436 3 8.79785 3H15.1982Z" fill="oklch(0.3523 0 0 / 1)" class="wd-icon-fill"></path>
<path d="M11.9378 13.1052C11.573 12.0076 12.5734 10.9622 13.6663 11.2409L13.7728 11.2712L21.6761 13.904C22.9764 14.3371 23.0056 16.166 21.72 16.6403L18.4935 17.8278L17.3069 21.0534C16.8326 22.339 15.0037 22.3098 14.5706 21.0095L11.9378 13.1052ZM15.9485 20.4001L17.095 17.2878L17.1575 17.1433C17.3214 16.8141 17.6058 16.5569 17.9544 16.4284L21.0667 15.2829L13.3929 12.7263L15.9485 20.4001Z" fill="oklch(0.3523 0 0 / 1)" class="wd-icon-accent"></path>
</svg>