<svg width="24" height="24" viewBox="0 0 24 24" xmlns="http://www.w3.org/2000/svg" class="wd-icon wd-icon-rename-split-row" role="presentation">
<g>
<path d="M10.499 10C11.3946 9.99895 12.2942 10.3411 12.9785 11.0254C13.6626 11.7097 14.0041 12.6094 14.0029 13.5049C14.0025 13.7696 13.8973 14.0238 13.71 14.2109L6.20703 21.707C6.01953 21.8944 5.76505 22 5.5 22H3C2.44778 22 2.0001 21.5522 2 21V18.5C2 18.2348 2.10549 17.9805 2.29297 17.793L9.79297 10.293L9.86621 10.2266C10.0438 10.081 10.2674 10.0003 10.499 10ZM4 18.9141V20H5.08496L9.33691 15.751L8.24902 14.6631L4 18.9141ZM9.66309 13.249L10.751 14.3369L11.9561 13.1348C11.8924 12.8799 11.7629 12.6389 11.5635 12.4395C11.3637 12.2397 11.1225 12.1094 10.8672 12.0459L9.66309 13.249Z" fill="oklch(0.3523 0 0 / 1)" class="wd-icon-fill"></path>
<path d="M20.5 15C21.3284 15 22 15.6716 22 16.5V19.5C22 20.3284 21.3284 21 20.5 21H12.5C11.6716 21 11 20.3284 11 19.5C11 19.2239 11.2239 19 11.5 19H20V17H14.5C14.2239 17 14 16.7761 14 16.5V15.5C14 15.2239 14.2239 15 14.5 15H20.5Z" fill="oklch(0.3523 0 0 / 1)" class="wd-icon-fill"></path>
<path d="M20.5 8C21.3284 8 22 8.67157 22 9.5V12.5C22 13.3284 21.3284 14 20.5 14H15.5C15.2239 14 15 13.7761 15 13.5V12.5C15 12.2239 15.2239 12 15.5 12H20V10H13.5C13.2239 10 13 9.77614 13 9.5V8.5C13 8.22386 13.2239 8 13.5 8H20.5Z" fill="oklch(0.3523 0 0 / 1)" class="wd-icon-fill"></path>
<path d="M13.5 1C14.3284 1 15 1.67157 15 2.5V5.5C15 6.32843 14.3284 7 13.5 7H5.5C4.67157 7 4 6.32843 4 5.5V2.5C4 1.67157 4.67157 1 5.5 1H13.5ZM6 5H13V3H6V5Z" fill="oklch(0.3523 0 0 / 1)" class="wd-icon-fill"></path>
</g>
</svg>