<svg width="24" height="24" viewBox="0 0 24 24" xmlns="http://www.w3.org/2000/svg" class="wd-icon wd-icon-strikethrough" role="presentation">
<g>
<path d="M21.5 10C21.7761 10 22 10.2239 22 10.5V12C22 12.2761 21.7761 12.5 21.5 12.5H17.1865C17.7072 12.9033 18.1292 13.3999 18.4512 13.9902C18.7857 14.5925 18.9531 15.3138 18.9531 16.1533C18.9531 17.2117 18.6792 18.1515 18.1318 18.9727C17.5903 19.794 16.8019 20.4424 15.7676 20.917C14.7394 21.3915 13.4953 21.6289 12.0352 21.6289C10.6358 21.6289 9.4245 21.407 8.40234 20.9629C7.38033 20.5188 6.58088 19.8884 6.00293 19.0732C5.60947 18.5141 5.33554 17.8846 5.18164 17.1846C5.12231 16.9147 5.31693 16.6617 5.59082 16.625L7.39062 16.3848C7.66599 16.348 7.9141 16.5451 7.98926 16.8125C8.09925 17.2038 8.27936 17.5471 8.53027 17.8418C8.91965 18.2859 9.41626 18.6169 10.0186 18.8359C10.6268 19.0488 11.2928 19.1553 12.0166 19.1553C12.8136 19.1553 13.523 19.0307 14.1436 18.7812C14.7701 18.5257 15.2631 18.1728 15.6221 17.7227C15.9809 17.2665 16.1601 16.7342 16.1602 16.126C16.1602 15.5723 16.0019 15.1185 15.6855 14.7656C15.3753 14.4128 14.9523 14.1208 14.417 13.8896C13.8877 13.6585 13.2884 13.4548 12.6191 13.2783L10.4102 12.6758C10.2088 12.6209 10.0134 12.5618 9.82324 12.5H2.5C2.22386 12.5 2 12.2761 2 12V10.5C2 10.2239 2.22386 10 2.5 10H21.5Z" fill="oklch(0.3523 0 0 / 1)" class="wd-icon-fill"></path>
<path d="M12.1719 2.37207C13.4374 2.37207 14.5541 2.59393 15.5215 3.03809C16.495 3.48224 17.2615 4.09426 17.8213 4.87305C18.1637 5.34574 18.4057 5.86172 18.5479 6.4209C18.6138 6.68055 18.4349 6.93068 18.1719 6.98145L16.4717 7.30957C16.1929 7.36321 15.9302 7.17151 15.8398 6.90234C15.6506 6.33858 15.2951 5.88121 14.7734 5.53027C14.0677 5.04966 13.1791 4.80864 12.1084 4.80859C11.3418 4.80859 10.6779 4.93046 10.1182 5.17383C9.55866 5.41106 9.12371 5.73955 8.81348 6.15918C8.50926 6.57291 8.35742 7.04489 8.35742 7.57422C8.35744 8.0181 8.46036 8.40129 8.66699 8.72363C8.74203 8.83726 8.66546 9 8.5293 9H6.08789C5.86174 9 5.66073 8.84858 5.62109 8.62598C5.57126 8.34473 5.5459 8.04861 5.5459 7.73828C5.54592 6.66142 5.83781 5.72106 6.42188 4.91797C7.00589 4.11496 7.7973 3.49199 8.79492 3.04785C9.79271 2.59763 10.9186 2.37208 12.1719 2.37207Z" fill="oklch(0.3523 0 0 / 1)" class="wd-icon-fill"></path>
</g>
</svg>