<svg width="24" height="24" viewBox="0 0 24 24" xmlns="http://www.w3.org/2000/svg" class="wd-icon wd-icon-bid" role="presentation">
<path d="M18.4004 5C18.6967 5 18.8591 5.00122 18.9756 5.01074C18.9797 5.01108 18.9836 5.01138 18.9873 5.01172C18.9877 5.01575 18.9889 5.01992 18.9893 5.02441C18.9988 5.14095 19 5.30333 19 5.59961V14.4004C19 14.6967 18.9988 14.8591 18.9893 14.9756C18.9889 14.9797 18.9876 14.9836 18.9873 14.9873C18.9836 14.9876 18.9797 14.9889 18.9756 14.9893C18.8591 14.9988 18.6967 15 18.4004 15H5.59961C5.30333 15 5.14095 14.9988 5.02441 14.9893C5.01992 14.9889 5.01575 14.9877 5.01172 14.9873C5.01138 14.9836 5.01108 14.9797 5.01074 14.9756C5.00122 14.8591 5 14.6967 5 14.4004V5.59961C5 5.30333 5.00122 5.14095 5.01074 5.02441C5.01111 5.01996 5.01135 5.01572 5.01172 5.01172C5.01572 5.01135 5.01996 5.01111 5.02441 5.01074C5.14095 5.00122 5.30333 5 5.59961 5H18.4004ZM14.8145 7.42383C14.4964 7.15877 14.023 7.20164 13.7578 7.51953L11 10.8281L9.91016 9.51953C9.64504 9.20165 9.17164 9.15904 8.85352 9.42383C8.53544 9.68904 8.49266 10.1623 8.75781 10.4805L10.4248 12.4805C10.5673 12.6512 10.7786 12.75 11.001 12.75C11.2233 12.7498 11.4348 12.6512 11.5771 12.4805L14.9102 8.48047C15.1749 8.16238 15.1322 7.68897 14.8145 7.42383Z" fill="transparent" class="wd-icon-background"></path>
<path d="M18.4004 3.00001C18.6638 3.00001 18.9219 2.9989 19.1387 3.01662C19.3672 3.03531 19.637 3.07957 19.9082 3.21779C20.2375 3.38556 20.5129 3.64086 20.7051 3.95412L20.7822 4.09181L20.8692 4.29494C20.9406 4.49578 20.9694 4.69006 20.9834 4.86134C21.0011 5.07815 21 5.33623 21 5.59962V14.4004C21 14.6638 21.0011 14.9219 20.9834 15.1387C20.9647 15.3672 20.9205 15.637 20.7822 15.9082C20.5905 16.2845 20.2845 16.5905 19.9082 16.7822C19.637 16.9205 19.3672 16.9647 19.1387 16.9834C18.9219 17.0011 18.6638 17 18.4004 17H13V20C13 20.5523 12.5523 21 12 21C11.4477 21 11 20.5523 11 20V17H5.59962C5.33623 17 5.07815 17.0011 4.86134 16.9834C4.63284 16.9647 4.36307 16.9205 4.09181 16.7822C3.71556 16.5905 3.40952 16.2845 3.21779 15.9082C3.07957 15.637 3.03531 15.3672 3.01662 15.1387C2.9989 14.9219 3.00001 14.6638 3.00001 14.4004V5.59962C3.00001 5.33623 2.9989 5.07815 3.01662 4.86134C3.03531 4.63284 3.07957 4.36307 3.21779 4.09181C3.40952 3.71556 3.71556 3.40952 4.09181 3.21779C4.36307 3.07957 4.63284 3.03531 4.86134 3.01662C5.07815 2.9989 5.33623 3.00001 5.59962 3.00001H18.4004ZM5.59962 5.00001C5.30334 5.00001 5.14096 5.00124 5.02443 5.01076C5.01997 5.01112 5.01574 5.01136 5.01173 5.01173C5.01136 5.01574 5.01112 5.01997 5.01076 5.02443C5.00124 5.14096 5.00001 5.30334 5.00001 5.59962V14.4004C5.00001 14.6967 5.00124 14.8591 5.01076 14.9756C5.01109 14.9797 5.01139 14.9836 5.01173 14.9873C5.01576 14.9877 5.01994 14.9889 5.02443 14.9893C5.14096 14.9988 5.30334 15 5.59962 15H18.4004C18.6967 15 18.8591 14.9988 18.9756 14.9893C18.9797 14.9889 18.9836 14.9877 18.9873 14.9873C18.9877 14.9836 18.9889 14.9797 18.9893 14.9756C18.9988 14.8591 19 14.6967 19 14.4004V5.59962C19 5.30334 18.9988 5.14096 18.9893 5.02443C18.9889 5.01994 18.9877 5.01576 18.9873 5.01173C18.9836 5.01139 18.9797 5.01109 18.9756 5.01076C18.8591 5.00124 18.6967 5.00001 18.4004 5.00001H5.59962Z" fill="oklch(0.3523 0 0 / 1)" class="wd-icon-fill"></path>
<path d="M13.7579 7.51956C14.0231 7.20162 14.4965 7.15879 14.8146 7.42386C15.1324 7.689 15.1751 8.16238 14.9103 8.4805L11.5773 12.4805C11.4349 12.6513 11.2234 12.7499 11.0011 12.75C10.7787 12.75 10.5674 12.6513 10.4249 12.4805L8.75792 10.4805C8.49276 10.1623 8.53555 9.68907 8.85362 9.42386C9.17175 9.15901 9.64513 9.20165 9.91027 9.51956L11.0001 10.8282L13.7579 7.51956Z" fill="oklch(0.3523 0 0 / 1)" class="wd-icon-accent"></path>
</svg>