<svg width="24" height="24" viewBox="0 0 24 24" xmlns="http://www.w3.org/2000/svg" class="wd-icon wd-icon-document-lightbulb" role="presentation">
<g>
<path d="M18.5 1C19.3284 1 20 1.67157 20 2.5V7.5C20 7.77614 19.7761 8 19.5 8H18.5C18.2239 8 18 7.77614 18 7.5V3H6V21H11.5C11.7761 21 12 21.2239 12 21.5V22.5C12 22.7761 11.7761 23 11.5 23H5.5C4.67157 23 4 22.3284 4 21.5V2.5C4 1.67157 4.67157 1 5.5 1H18.5Z" fill="oklch(0.3523 0 0 / 1)" class="wd-icon-fill"></path>
<path d="M17.5 10C19.9853 10 22 12.0147 22 14.5C22 15.8581 21.3951 17.0725 20.4473 17.8955L19.8057 21.7461C19.6852 22.4688 19.06 23 18.3262 23H16.6738C15.9402 23 15.315 22.4695 15.1943 21.7471L14.5508 17.8955C13.6034 17.0723 13 15.8573 13 14.5C13 12.0147 15.0147 10 17.5 10ZM17.0977 21H17.9023L18.0693 20H16.9307L17.0977 21ZM17.5 12C16.1193 12 15 13.1193 15 14.5C15 15.2872 15.3632 15.9891 15.9355 16.4492C16.2055 16.6663 16.4278 16.9908 16.4951 17.3936L16.5967 18H18.4023L18.5039 17.3936L18.5361 17.2461C18.6275 16.911 18.827 16.6382 19.0635 16.4482C19.6362 15.988 20 15.287 20 14.5C20 13.1193 18.8807 12 17.5 12Z" fill="oklch(0.3523 0 0 / 1)" class="wd-icon-fill"></path>
<path d="M12.5 8C12.7761 8 13 8.22386 13 8.5V9.5C13 9.77614 12.7761 10 12.5 10H8.5C8.22386 10 8 9.77614 8 9.5V8.5C8 8.22386 8.22386 8 8.5 8H12.5Z" fill="oklch(0.3523 0 0 / 1)" class="wd-icon-fill"></path>
<path d="M15.5 5C15.7761 5 16 5.22386 16 5.5V6.5C16 6.77614 15.7761 7 15.5 7H8.5C8.22386 7 8 6.77614 8 6.5V5.5C8 5.22386 8.22386 5 8.5 5H15.5Z" fill="oklch(0.3523 0 0 / 1)" class="wd-icon-fill"></path>
</g>
</svg>