<svg width="24" height="24" viewBox="0 0 24 24" xmlns="http://www.w3.org/2000/svg" class="wd-icon wd-icon-cut" role="presentation">
<path d="M1.57103 3.94013C2.70888 2.04671 5.16578 1.43422 7.05931 2.57197C8.95274 3.70982 9.56522 6.16672 8.42747 8.06025C8.31749 8.24329 8.19519 8.41427 8.06224 8.57294L11.823 10.8327L20.2253 5.78583C21.1721 5.21708 22.4006 5.52278 22.9695 6.46943L13.7644 11.9987L22.9695 17.53C22.4006 18.4768 21.1721 18.7834 20.2253 18.2145L11.823 13.1657L8.06126 15.4265C8.1946 15.5855 8.31818 15.7566 8.42845 15.9401C9.56605 17.8337 8.95283 20.2916 7.05931 21.4294C5.16577 22.5669 2.70877 21.9537 1.57103 20.0602C0.433263 18.1667 1.04569 15.7098 2.93919 14.572C3.9698 13.9527 5.16727 13.8519 6.22825 14.194L9.8806 11.9987L6.22923 9.80537C5.16801 10.1479 3.97013 10.0487 2.93919 9.42939C1.04561 8.29161 0.433281 5.83373 1.57103 3.94013ZM6.71361 16.9704C6.14475 16.0237 4.91624 15.7171 3.96946 16.2858C3.02276 16.8547 2.71624 18.0832 3.28489 19.03C3.85374 19.9767 5.08226 20.2833 6.02904 19.7145C6.97579 19.1457 7.28238 17.9172 6.71361 16.9704ZM6.02904 4.28583C5.08227 3.71718 3.85373 4.0237 3.28489 4.9704C2.71615 5.91718 3.02272 7.14569 3.96946 7.71455C4.9162 8.28317 6.14476 7.97663 6.71361 7.02997C7.28221 6.08327 6.9756 4.85471 6.02904 4.28583Z" fill="oklch(0.3523 0 0 / 1)" class="wd-icon-fill"></path>
</svg>