<svg width="24" height="24" viewBox="0 0 24 24" xmlns="http://www.w3.org/2000/svg" class="wd-icon wd-icon-remove-zero" role="presentation">
<g>
<path d="M7.22297 14.5176C7.55507 14.2967 7.99998 14.5347 8.00031 14.9336V16.999H20.5003C20.7761 16.9992 20.9999 17.2233 21.0003 17.499V18.499C21.0003 18.7751 20.7763 18.9989 20.5003 18.999H8.00031V21.0654C8.00003 21.4644 7.55511 21.7026 7.22297 21.4814L2.62434 18.415C2.32774 18.2171 2.32765 17.7809 2.62434 17.583L7.22297 14.5176Z" fill="oklch(0.3523 0 0 / 1)" class="wd-icon-fill"></path>
<path d="M7.50031 11C7.77634 11.0001 8.00031 11.2239 8.00031 11.5V12.5C8.00031 12.7761 7.77634 12.9999 7.50031 13H6.50031C6.22417 13 6.00031 12.7761 6.00031 12.5V11.5C6.00031 11.2239 6.22417 11 6.50031 11H7.50031Z" fill="oklch(0.3523 0 0 / 1)" class="wd-icon-fill"></path>
<path d="M12.5003 3C14.921 3.00013 16.3079 4.80718 16.3079 8C16.3079 11.1928 14.921 12.9999 12.5003 13C10.0931 13 8.70637 11.1929 8.70637 8C8.70637 4.80707 10.0931 3 12.5003 3ZM12.5003 4.53516C11.3987 4.53516 10.8821 5.62228 10.8821 8C10.8821 10.3641 11.3987 11.4648 12.5003 11.4648C13.6017 11.4647 14.1321 10.364 14.1321 8C14.1321 5.62246 13.6017 4.53532 12.5003 4.53516Z" fill="oklch(0.3523 0 0 / 1)" class="wd-icon-fill"></path>
</g>
</svg>