<svg width="24" height="24" viewBox="0 0 24 24" xmlns="http://www.w3.org/2000/svg" class="wd-icon wd-icon-previous-small" role="presentation">
<g>
<path d="M7 6C7.55228 6 8 6.44772 8 7V17C8 17.5523 7.55228 18 7 18C6.44772 18 6 17.5523 6 17V7C6 6.44772 6.44772 6 7 6Z" fill="oklch(0.3523 0 0 / 1)" class="wd-icon-fill"></path>
<path d="M18.1016 6.91309C18.3841 6.94193 18.6414 7.08982 18.8086 7.31934C19 7.5826 19 8.03932 19 8.95215V15.0479C19 15.9613 19.0004 16.4184 18.8086 16.6816C18.6414 16.9111 18.384 17.0581 18.1016 17.0869C17.7776 17.1199 17.3828 16.89 16.5938 16.4297L11.3691 13.3818C10.5908 12.9278 10.2013 12.7009 10.0703 12.4053C9.95601 12.1473 9.95601 11.8527 10.0703 11.5947C10.2014 11.2991 10.5908 11.0722 11.3691 10.6182L16.5938 7.57031C17.3828 7.11001 17.7776 6.88006 18.1016 6.91309Z" fill="oklch(0.3523 0 0 / 1)" class="wd-icon-fill"></path>
</g>
</svg>