<svg width="24" height="24" viewBox="0 0 24 24" xmlns="http://www.w3.org/2000/svg" class="wd-icon wd-icon-platform-cart" role="presentation">
<g>
<path d="M6.5 18C7.32843 18 8 18.6716 8 19.5C8 20.3284 7.32843 21 6.5 21C5.67157 21 5 20.3284 5 19.5C5 18.6716 5.67157 18 6.5 18Z" fill="oklch(0.3523 0 0 / 1)" class="wd-icon-fill"></path>
<path d="M17.5 18C18.3284 18 19 18.6716 19 19.5C19 20.3284 18.3284 21 17.5 21C16.6716 21 16 20.3284 16 19.5C16 18.6716 16.6716 18 17.5 18Z" fill="oklch(0.3523 0 0 / 1)" class="wd-icon-fill"></path>
<path d="M4 3C5.65685 3 7 4.34315 7 6V14.4004C7 14.6967 7.00122 14.8591 7.01074 14.9756C7.01108 14.9797 7.01138 14.9836 7.01172 14.9873C7.01575 14.9877 7.01992 14.9889 7.02441 14.9893C7.14095 14.9988 7.30333 15 7.59961 15H8V7C8 5.89543 8.89543 5 10 5H14C15.1046 5 16 5.89543 16 7V10H18C19.1046 10 20 10.8954 20 12V15C20.5523 15 21 15.4477 21 16C21 16.5523 20.5523 17 20 17H7.59961C7.33622 17 7.07814 17.0011 6.86133 16.9834C6.63282 16.9647 6.36306 16.9204 6.0918 16.7822C5.71554 16.5905 5.40951 16.2845 5.21777 15.9082C5.07956 15.6369 5.0353 15.3672 5.0166 15.1387C4.99889 14.9219 5 14.6638 5 14.4004V6C5 5.48232 4.60667 5.05621 4.10254 5.00488L3.89746 4.99512C3.39333 4.94379 3 4.51768 3 4C3 3.44772 3.44772 3 4 3ZM10 12V15H18V12H10ZM10 10.5H14V7H10V10.5Z" fill="oklch(0.3523 0 0 / 1)" class="wd-icon-fill"></path>
</g>
</svg>