<svg width="24" height="24" viewBox="0 0 24 24" xmlns="http://www.w3.org/2000/svg" class="wd-icon wd-icon-filter-x" role="presentation">
<g>
<path d="M13.5 17C13.7761 17 14 17.2239 14 17.5V18.5C14 18.7761 13.7761 19 13.5 19H9.5C9.22386 19 9 18.7761 9 18.5V17.5C9 17.2239 9.22386 17 9.5 17H13.5Z" fill="oklch(0.3523 0 0 / 1)" class="wd-icon-fill"></path>
<path d="M13.5 13C13.7761 13 14 13.2239 14 13.5V14.5C14 14.7761 13.7761 15 13.5 15H7.5C7.22386 15 7 14.7761 7 14.5V13.5C7 13.2239 7.22386 13 7.5 13H13.5Z" fill="oklch(0.3523 0 0 / 1)" class="wd-icon-fill"></path>
<path d="M19.5 9C19.7761 9 20 9.22386 20 9.5V10.5C20 10.7761 19.7761 11 19.5 11H4.5C4.22386 11 4 10.7761 4 10.5V9.5C4 9.22386 4.22386 9 4.5 9H19.5Z" fill="oklch(0.3523 0 0 / 1)" class="wd-icon-fill"></path>
<path d="M22.5 5C22.7761 5 23 5.22386 23 5.5V6.5C23 6.77614 22.7761 7 22.5 7H1.5C1.22386 7 1 6.77614 1 6.5V5.5C1 5.22386 1.22386 5 1.5 5H22.5Z" fill="oklch(0.3523 0 0 / 1)" class="wd-icon-fill"></path>
</g>
<path d="M20.9413 15.6415C21.1365 15.4463 21.4531 15.4464 21.6484 15.6415L22.3564 16.3486C22.5514 16.5438 22.5514 16.8604 22.3564 17.0556L20.4189 18.9931L22.3632 20.9374C22.5583 21.1327 22.5584 21.4493 22.3632 21.6445L21.6562 22.3515C21.461 22.5466 21.1444 22.5466 20.9491 22.3515L19.0048 20.4072L17.0605 22.3515C16.8653 22.5466 16.5487 22.5466 16.3534 22.3515L15.6464 21.6445C15.4512 21.4492 15.4512 21.1327 15.6464 20.9374L17.5898 18.9921L15.6533 17.0556C15.458 16.8604 15.4581 16.5438 15.6533 16.3486L16.3603 15.6415C16.5555 15.4463 16.8721 15.4463 17.0673 15.6415L19.0038 17.5781L20.9413 15.6415Z" fill="oklch(0.3523 0 0 / 1)" class="wd-icon-accent"></path>
</svg>