<svg width="24" height="24" viewBox="0 0 24 24" xmlns="http://www.w3.org/2000/svg" class="wd-icon wd-icon-users" role="presentation">
<g>
<path d="M8.00244 17C9.14694 17 10.0917 17.2443 10.7573 17.6914C11.3542 18.0924 11.7903 18.6969 11.9429 19.6191C11.1818 19.7848 9.84349 20 8.00244 20C6.16055 20 4.82186 19.7849 4.06104 19.6191C4.2136 18.6969 4.65074 18.0925 5.24756 17.6914C5.91317 17.2443 6.85796 17 8.00244 17Z" fill="transparent" class="wd-icon-background"></path>
<path d="M8.00244 9C8.83087 9 9.50244 9.67157 9.50244 10.5C9.50244 11.3284 8.83087 12 8.00244 12C7.17417 11.9998 6.50244 11.3283 6.50244 10.5C6.50244 9.67169 7.17417 9.00018 8.00244 9Z" fill="transparent" class="wd-icon-background"></path>
</g>
<g>
<path d="M8.00175 15C9.39801 15.0001 10.7736 15.2935 11.8719 16.0312C13.0029 16.7912 13.7585 17.9706 13.9519 19.5439C14.0697 20.5015 13.4283 21.3299 12.5447 21.5352C11.6834 21.7349 10.137 22 8.00175 22C5.86663 22 4.32022 21.7349 3.45878 21.5352C2.57497 21.3301 1.93378 20.5017 2.05156 19.5439C2.24508 17.9705 3.00042 16.7912 4.13163 16.0312C5.23001 15.2935 6.60547 15 8.00175 15ZM8.00175 17C6.85728 17 5.91253 17.2444 5.24687 17.6914C4.64995 18.0924 4.21294 18.6968 4.06034 19.6191C4.82129 19.7849 6.16001 20 8.00175 20C9.84285 20 11.1812 19.7848 11.9422 19.6191C11.7896 18.697 11.3534 18.0924 10.7566 17.6914C10.091 17.2443 9.1462 17.0001 8.00175 17Z" fill="oklch(0.3523 0 0 / 1)" class="wd-icon-fill"></path>
<path d="M8.00175 7C9.93456 7.00022 11.5018 8.56714 11.5018 10.5C11.5018 12.4329 9.93456 13.9998 8.00175 14C6.06875 14 4.50175 12.433 4.50175 10.5C4.50175 8.567 6.06875 7 8.00175 7ZM8.00175 9C7.17332 9 6.50175 9.67157 6.50175 10.5C6.50175 11.3284 7.17332 12 8.00175 12C8.82999 11.9998 9.50175 11.3283 9.50175 10.5C9.50175 9.67171 8.82999 9.00022 8.00175 9Z" fill="oklch(0.3523 0 0 / 1)" class="wd-icon-fill"></path>
</g>
<g>
<path d="M16.0005 10C17.5149 10 19.0113 10.3451 20.1509 11.2334C21.3296 12.1523 22.0005 13.5548 22.0005 15.375C22.0005 15.7468 21.7952 16.0835 21.4751 16.2559L21.3306 16.3193H21.3286L21.3169 16.3232C21.3107 16.3254 21.3029 16.3289 21.2935 16.332C21.2739 16.3385 21.2467 16.3471 21.2134 16.3574C21.1466 16.3781 21.052 16.4059 20.9312 16.4385C20.6887 16.5037 20.3387 16.5877 19.8872 16.6709C18.9836 16.8373 17.6725 17 16.0005 17C15.4483 16.9999 15.0005 16.5522 15.0005 16C15.0005 15.4478 15.4483 15.0001 16.0005 15C17.5424 15 18.7321 14.8501 19.5249 14.7041C19.6783 14.6758 19.8165 14.645 19.9399 14.6182C19.799 13.7672 19.4175 13.1984 18.9214 12.8115C18.2514 12.2893 17.2472 12 16.0005 12C15.366 12 14.7857 12.0757 14.2798 12.2227C13.7495 12.3766 13.1946 12.0713 13.0405 11.541C12.8865 11.0108 13.1912 10.456 13.7212 10.3018C14.44 10.0929 15.213 10 16.0005 10Z" fill="oklch(0.3523 0 0 / 1)" class="wd-icon-accent"></path>
<path d="M16.0005 2C17.9335 2 19.5005 3.567 19.5005 5.5C19.5005 7.433 17.9335 9 16.0005 9C14.0676 8.99992 12.5005 7.43295 12.5005 5.5C12.5005 3.56705 14.0676 2.00008 16.0005 2ZM16.0005 4C15.1721 4.00008 14.5005 4.67162 14.5005 5.5C14.5005 6.32838 15.1721 6.99992 16.0005 7C16.8289 7 17.5005 6.32843 17.5005 5.5C17.5005 4.67157 16.8289 4 16.0005 4Z" fill="oklch(0.3523 0 0 / 1)" class="wd-icon-accent"></path>
</g>
</svg>