<svg width="24" height="24" viewBox="0 0 24 24" xmlns="http://www.w3.org/2000/svg" class="wd-icon wd-icon-user-lock" role="presentation">
<g>
<path d="M12.0009 12C12.553 12.0002 13.0009 12.4479 13.0009 13C13.0009 13.5521 12.553 13.9998 12.0009 14C10.0287 14 8.33674 14.3759 7.12591 15.1162C5.99039 15.8106 5.23793 16.8454 5.04876 18.3525C6.0711 18.5738 8.10711 18.9234 11.0234 18.9893C11.5753 19.0019 12.0134 19.4597 12.0009 20.0117C11.9883 20.5635 11.5302 21.0005 10.9784 20.9883C7.80745 20.9167 5.59694 20.5262 4.49993 20.2812C3.60681 20.0818 2.94449 19.2563 3.0429 18.2852L3.09563 17.874C3.41327 15.8533 4.51133 14.3711 6.08294 13.4102C7.71736 12.4109 9.81441 12 12.0009 12Z" fill="oklch(0.3523 0 0 / 1)" class="wd-icon-fill"></path>
<path d="M12.0009 1.5C14.486 1.50022 16.5009 3.51486 16.5009 6C16.5009 8.48514 14.486 10.4998 12.0009 10.5C9.51563 10.5 7.50091 8.48528 7.50091 6C7.50091 3.51472 9.51563 1.5 12.0009 1.5ZM12.0009 3.5C10.6202 3.5 9.50091 4.61929 9.50091 6C9.50091 7.38071 10.6202 8.5 12.0009 8.5C13.3814 8.49978 14.5009 7.38057 14.5009 6C14.5009 4.61943 13.3814 3.50022 12.0009 3.5Z" fill="oklch(0.3523 0 0 / 1)" class="wd-icon-fill"></path>
</g>
<path d="M18.502 11C20.1588 11 21.502 12.3431 21.502 14V15.0732C21.6384 15.1039 21.7753 15.1491 21.9102 15.2178C22.2864 15.4095 22.5924 15.7155 22.7842 16.0918C22.9152 16.3488 22.9616 16.6133 22.9824 16.8682C23.0025 17.1142 23.002 17.4125 23.002 17.75V19.25C23.002 19.5875 23.0025 19.8859 22.9824 20.1318C22.9616 20.3865 22.915 20.6503 22.7842 20.9072C22.5925 21.2834 22.2863 21.5895 21.9102 21.7812C21.6531 21.9122 21.3886 21.9596 21.1338 21.9805C20.8878 22.0006 20.5895 22 20.252 22H16.752C16.4144 22 16.1161 22.0006 15.8701 21.9805C15.6153 21.9596 15.3508 21.9122 15.0938 21.7812C14.7176 21.5895 14.4114 21.2834 14.2197 20.9072C14.0889 20.6503 14.0423 20.3865 14.0215 20.1318C14.0014 19.8858 14.002 19.5875 14.002 19.25V17.75C14.002 17.4125 14.0014 17.1142 14.0215 16.8682C14.0423 16.6133 14.0888 16.3488 14.2197 16.0918C14.4115 15.7155 14.7175 15.4095 15.0938 15.2178C15.2286 15.1491 15.3655 15.1039 15.502 15.0732V14C15.502 12.3431 16.8451 11 18.502 11ZM16.752 16.5C16.3897 16.5 16.163 16.5007 15.9922 16.5146C15.8315 16.5278 15.7862 16.5492 15.7754 16.5547C15.6813 16.6026 15.6046 16.6794 15.5566 16.7734C15.5511 16.7843 15.5297 16.8295 15.5166 16.9902C15.5027 17.161 15.502 17.3877 15.502 17.75V19.25C15.502 19.6122 15.5027 19.839 15.5166 20.0098C15.5298 20.1716 15.5514 20.2162 15.5566 20.2266C15.6046 20.3206 15.6813 20.3974 15.7754 20.4453C15.7865 20.4509 15.8321 20.4723 15.9922 20.4854C16.163 20.4993 16.3897 20.5 16.752 20.5H20.252C20.6142 20.5 20.8409 20.4993 21.0117 20.4854C21.1718 20.4723 21.2174 20.4509 21.2285 20.4453C21.3226 20.3974 21.3993 20.3206 21.4473 20.2266C21.4525 20.2162 21.4741 20.1716 21.4873 20.0098C21.5013 19.839 21.502 19.6122 21.502 19.25V17.75C21.502 17.3877 21.5013 17.161 21.4873 16.9902C21.4742 16.8295 21.4528 16.7843 21.4473 16.7734C21.3993 16.6794 21.3226 16.6026 21.2285 16.5547C21.2177 16.5492 21.1724 16.5278 21.0117 16.5146C20.8409 16.5007 20.6143 16.5 20.252 16.5H16.752ZM18.502 12.5C17.6735 12.5 17.002 13.1716 17.002 14V15H20.002V14C20.002 13.1716 19.3304 12.5 18.502 12.5Z" fill="oklch(0.3523 0 0 / 1)" class="wd-icon-accent"></path>
</svg>