<svg width="24" height="24" viewBox="0 0 24 24" xmlns="http://www.w3.org/2000/svg" class="wd-icon wd-icon-map-location" role="presentation">
<g>
<path d="M12 6C12.5523 6 13 6.44773 13 7C13 7.55229 12.5523 8 12 8H6.2002C5.62366 8 5.25111 8.00127 4.96778 8.02442C4.69621 8.04662 4.59534 8.08419 4.5459 8.10938C4.35794 8.20522 4.20522 8.35794 4.10938 8.5459C4.08419 8.59534 4.04662 8.6962 4.02442 8.96778C4.00127 9.25111 4 9.62366 4 10.2002V15.7998C4 16.3763 4.00127 16.7489 4.02442 17.0322C4.04661 17.3038 4.08419 17.4047 4.10938 17.4541C4.20521 17.6421 4.35795 17.7948 4.5459 17.8906C4.59534 17.9158 4.69622 17.9534 4.96778 17.9756C5.25111 17.9987 5.62366 18 6.2002 18H17.7998C18.3763 18 18.7489 17.9987 19.0322 17.9756C19.3038 17.9534 19.4047 17.9158 19.4541 17.8906C19.6421 17.7948 19.7948 17.6421 19.8906 17.4541C19.9158 17.4047 19.9534 17.3038 19.9756 17.0322C19.9987 16.7489 20 16.3764 20 15.7998V13C20 12.4477 20.4477 12 21 12C21.5523 12 22 12.4477 22 13V15.7998C22 16.3434 22.0011 16.8116 21.9697 17.1953C21.9374 17.5906 21.8656 17.984 21.6729 18.3623C21.3853 18.9265 20.9265 19.3853 20.3623 19.6729C19.984 19.8656 19.5906 19.9374 19.1953 19.9697C18.8117 20.0011 18.3433 20 17.7998 20H6.2002C5.65666 20 5.18836 20.0011 4.80469 19.9697C4.40944 19.9374 4.01599 19.8656 3.6377 19.6729C3.07349 19.3853 2.61472 18.9265 2.32715 18.3623C2.13441 17.984 2.06259 17.5906 2.03028 17.1953C1.99893 16.8116 2 16.3434 2 15.7998V10.2002C2 9.65666 1.99893 9.18836 2.03028 8.80469C2.06259 8.40944 2.1344 8.01599 2.32715 7.6377C2.61472 7.07348 3.07348 6.61473 3.6377 6.32715C4.01599 6.13441 4.40944 6.06259 4.80469 6.03028C5.18836 5.99893 5.65666 6 6.2002 6H12Z" fill="oklch(0.3523 0 0 / 1)" class="wd-icon-fill"></path>
<path d="M15.2197 11.7197C15.5126 11.4268 15.9874 11.4268 16.2803 11.7197C16.5732 12.0126 16.5732 12.4874 16.2803 12.7803L13.5606 15.5C12.9748 16.0857 12.0252 16.0857 11.4395 15.5L9.5 13.5606L7.28028 15.7803C6.98738 16.0732 6.51262 16.0732 6.21973 15.7803C5.92684 15.4874 5.92684 15.0126 6.21973 14.7197L8.43946 12.5C9.02523 11.9143 9.97478 11.9143 10.5606 12.5L12.5 14.4395L15.2197 11.7197Z" fill="oklch(0.3523 0 0 / 1)" class="wd-icon-fill"></path>
</g>
<g>
<path d="M18 4C18.5523 4.00003 19 4.44773 19 5C19 5.55227 18.5523 5.99997 18 6C17.4477 6 17 5.55228 17 5C17 4.44772 17.4477 4 18 4Z" fill="oklch(0.3523 0 0 / 1)" class="wd-icon-accent"></path>
<path d="M18 1C20.1953 1.00003 22 2.74923 22 4.9375C22 6.78956 21.0586 8.2877 20.1895 9.28223C19.7494 9.78577 19.3112 10.1805 18.9824 10.4492C18.8176 10.5839 18.6785 10.6878 18.5791 10.7598C18.5294 10.7957 18.4896 10.8241 18.4609 10.8438C18.4467 10.8536 18.4352 10.8615 18.4268 10.8672C18.4225 10.87 18.4187 10.8722 18.416 10.874L18.4131 10.876L18.4111 10.877L18 10.25L18.4102 10.8779C18.161 11.0407 17.839 11.0407 17.5898 10.8779L18 10.25L17.5889 10.877L17.5869 10.876L17.584 10.874C17.5813 10.8722 17.5775 10.87 17.5732 10.8672C17.5648 10.8615 17.5534 10.8536 17.5391 10.8438C17.5104 10.8241 17.4706 10.7957 17.4209 10.7598C17.3215 10.6878 17.1824 10.5839 17.0176 10.4492C16.6888 10.1805 16.2506 9.78577 15.8105 9.28223C14.9414 8.2877 14 6.78958 14 4.9375C14 2.74922 15.8047 1 18 1ZM18 2.5C16.6055 2.5 15.5 3.60497 15.5 4.9375C15.5 6.27287 16.1836 7.43105 16.9395 8.2959C17.3118 8.72189 17.6862 9.05778 17.9668 9.28711C17.9777 9.29601 17.9894 9.30394 18 9.3125C18.0106 9.30394 18.0223 9.29601 18.0332 9.28711C18.3138 9.05777 18.6882 8.72188 19.0605 8.2959C19.8164 7.43106 20.5 6.27286 20.5 4.9375C20.5 3.60499 19.3945 2.50003 18 2.5Z" fill="oklch(0.3523 0 0 / 1)" class="wd-icon-accent"></path>
</g>
</svg>