<svg width="24" height="24" viewBox="0 0 24 24" xmlns="http://www.w3.org/2000/svg" class="wd-icon wd-icon-hierarchy-chevron" role="presentation">
<path d="M20 12C20 13.6569 18.6569 15 17 15C15.3431 15 14 13.6569 14 12C14 10.3431 15.3431 9 17 9C18.6569 9 20 10.3431 20 12Z" fill="transparent" class="wd-icon-background"></path>
<g>
<path d="M4.70518 7.18407C4.91872 7.00948 5.23339 7.04115 5.4083 7.25438L8.77451 11.3667C8.88702 11.5045 8.95716 11.6654 8.98545 11.8315C8.99489 11.8869 9.00004 11.9435 9.0001 11.9995C9.00013 12.2241 8.92493 12.4492 8.77451 12.6333L5.4083 16.7456C5.23343 16.9593 4.91791 16.9908 4.7042 16.8159L4.31846 16.4995L3.93076 16.1831C3.71743 16.0081 3.68568 15.6926 3.86045 15.479L6.70811 11.9985L3.86045 8.52001C3.68608 8.3062 3.71802 7.99054 3.93174 7.81591L4.31846 7.50048L4.70518 7.18407Z" fill="oklch(0.3523 0 0 / 1)" class="wd-icon-fill"></path>
<path d="M17.0001 8.00048C19.2091 8.00066 21.0001 9.79145 21.0001 12.0005C20.9999 14.2094 19.209 16.0003 17.0001 16.0005C14.7911 16.0005 13.0003 14.2095 13.0001 12.0005C13.0001 9.79134 14.791 8.00048 17.0001 8.00048ZM17.0001 10.0005C15.8955 10.0005 15.0001 10.8959 15.0001 12.0005C15.0003 13.1049 15.8956 14.0005 17.0001 14.0005C18.1044 14.0003 18.9999 13.1048 19.0001 12.0005C19.0001 10.896 18.1045 10.0007 17.0001 10.0005Z" fill="oklch(0.3523 0 0 / 1)" class="wd-icon-fill"></path>
</g>
</svg>