<svg width="24" height="24" viewBox="0 0 24 24" xmlns="http://www.w3.org/2000/svg" class="wd-icon wd-icon-bar-chart-growth" role="presentation">
<g>
<path d="M7 13.9998C7.55214 13.9998 7.99976 14.4477 8 14.9998V19.9998C8 20.5521 7.55228 20.9998 7 20.9998H3C2.44772 20.9998 2 20.5521 2 19.9998V14.9998C2.00024 14.4477 2.44786 13.9998 3 13.9998H7ZM4 18.9998H6V15.9998H4V18.9998Z" fill="oklch(0.3523 0 0 / 1)" class="wd-icon-fill"></path>
<path d="M14 11.9998C14.5521 11.9998 14.9998 12.4477 15 12.9998V19.9998C15 20.5521 14.5523 20.9998 14 20.9998H10C9.44772 20.9998 9 20.5521 9 19.9998V12.9998C9.00024 12.4477 9.44786 11.9998 10 11.9998H14ZM11 18.9998H13V13.9998H11V18.9998Z" fill="oklch(0.3523 0 0 / 1)" class="wd-icon-fill"></path>
<path d="M21 9.99977C21.5521 9.99977 21.9998 10.4477 22 10.9998V19.9998C22 20.5521 21.5523 20.9998 21 20.9998H17C16.4477 20.9998 16 20.5521 16 19.9998V10.9998C16.0002 10.4477 16.4479 9.99977 17 9.99977H21ZM18 18.9998H20V11.9998H18V18.9998Z" fill="oklch(0.3523 0 0 / 1)" class="wd-icon-fill"></path>
<path d="M16.583 1.96169C17.1838 2.05009 17.7929 2.09444 18.4043 2.0945C18.8988 2.0945 19.3927 2.0656 19.8809 2.00758C19.9188 2.00307 19.9573 2.00093 19.9951 2.00075C20.071 2.00043 20.1465 2.00864 20.2197 2.02516C20.3158 2.04679 20.4073 2.08479 20.4932 2.13356C20.5376 2.15883 20.5817 2.18547 20.6221 2.21755C20.6514 2.24083 20.6803 2.26696 20.707 2.29372C20.9231 2.51031 21.0282 2.81408 20.9922 3.11794C20.9733 3.27651 20.9582 3.43587 20.9453 3.59548C20.9189 3.92734 20.9053 4.26128 20.9053 4.59548C20.9053 5.20696 20.9497 5.81585 21.0381 6.41676C21.0783 6.68987 20.9011 6.95145 20.6299 7.0027L20.1387 7.09548L19.6475 7.18727C19.3763 7.23806 19.114 7.05965 19.0723 6.78688C19.0017 6.32591 18.9556 5.86073 18.9297 5.39333C14.5912 9.38838 8.83423 11.8705 2.5 11.9949C2.2241 12.0001 2 11.7758 2 11.4998V10.4998C2 10.2237 2.22407 10.0009 2.5 9.99489C8.23875 9.87246 13.458 7.64659 17.4238 4.05837C17.018 4.03075 16.6137 3.98883 16.2129 3.92751C15.9402 3.88561 15.7616 3.62349 15.8125 3.35231L15.9043 2.8611L15.9971 2.36989C16.0483 2.09873 16.31 1.92168 16.583 1.96169Z" fill="oklch(0.3523 0 0 / 1)" class="wd-icon-fill"></path>
</g>
</svg>