<svg width="24" height="24" viewBox="0 0 24 24" xmlns="http://www.w3.org/2000/svg" class="wd-icon wd-icon-magic-wand" role="presentation">
<g>
<path d="M10.8791 8.87891C12.0507 7.70734 13.9507 7.70733 15.1223 8.87891C16.2934 10.0505 16.2936 11.9497 15.1223 13.1211L8.05102 20.1924C6.87952 21.3637 4.98038 21.3636 3.80883 20.1924C2.63728 19.0208 2.63731 17.1208 3.80883 15.9492L10.8791 8.87891ZM5.22289 17.3643C4.83253 17.7548 4.83242 18.3879 5.22289 18.7783C5.61339 19.1685 6.24651 19.1686 6.63695 18.7783L11.677 13.7373L10.2629 12.3232L5.22289 17.3643ZM13.7082 10.293C13.3177 9.90247 12.6847 9.90252 12.2942 10.293L11.3235 11.2627L12.7375 12.6768L13.7082 11.707C14.0985 11.3166 14.0983 10.6835 13.7082 10.293Z" fill="oklch(0.3523 0 0 / 1)" class="wd-icon-fill"></path>
<path d="M18.5002 14C18.7763 14.0001 18.9937 14.2276 19.0618 14.4951C19.2418 15.2019 19.7983 15.7585 20.5051 15.9385C20.7727 16.0066 21.0002 16.2239 21.0002 16.5C21.0002 16.7761 20.7727 16.9934 20.5051 17.0615C19.7983 17.2415 19.2418 17.7981 19.0618 18.5049C18.9937 18.7724 18.7763 18.9999 18.5002 19C18.2241 19 18.0068 18.7725 17.9387 18.5049C17.7588 17.7981 17.2021 17.2416 16.4954 17.0615C16.2277 16.9934 16.0002 16.7761 16.0002 16.5C16.0002 16.2239 16.2277 16.0066 16.4954 15.9385C17.2021 15.7584 17.7588 15.2019 17.9387 14.4951C18.0068 14.2275 18.2241 14 18.5002 14Z" fill="oklch(0.3523 0 0 / 1)" class="wd-icon-fill"></path>
<path d="M17.5002 2C17.7763 2.00014 17.9958 2.22576 18.0413 2.49805C18.2514 3.75591 19.2443 4.74887 20.5022 4.95898C20.7745 5.00453 21.0002 5.2239 21.0002 5.5C21.0002 5.7761 20.7745 5.99547 20.5022 6.04102C19.2443 6.25113 18.2514 7.24409 18.0413 8.50195C17.9958 8.77424 17.7763 8.99986 17.5002 9C17.2241 9 17.0047 8.77432 16.9592 8.50195C16.7491 7.24417 15.756 6.25127 14.4983 6.04102C14.2259 5.99552 14.0002 5.77614 14.0002 5.5C14.0002 5.22386 14.2259 5.00448 14.4983 4.95898C15.756 4.74873 16.7491 3.75583 16.9592 2.49805C17.0047 2.22568 17.2241 2 17.5002 2Z" fill="oklch(0.3523 0 0 / 1)" class="wd-icon-fill"></path>
<path d="M7.50024 3C7.77626 3.00014 7.99365 3.22759 8.06176 3.49512C8.24177 4.20193 8.79828 4.75853 9.50512 4.93848C9.77267 5.00664 10.0002 5.2239 10.0002 5.5C10.0002 5.7761 9.77267 5.99336 9.50512 6.06152C8.79828 6.24147 8.24177 6.79807 8.06176 7.50488C7.99365 7.77241 7.77626 7.99986 7.50024 8C7.22409 8 7.00684 7.77249 6.93871 7.50488C6.75877 6.79814 6.20206 6.24158 5.49535 6.06152C5.22775 5.9934 5.00024 5.77614 5.00024 5.5C5.00024 5.22386 5.22775 5.0066 5.49535 4.93848C6.20206 4.75842 6.75877 4.20186 6.93871 3.49512C7.00684 3.22751 7.22409 3 7.50024 3Z" fill="oklch(0.3523 0 0 / 1)" class="wd-icon-fill"></path>
</g>
</svg>