<svg width="24" height="24" viewBox="0 0 24 24" xmlns="http://www.w3.org/2000/svg" class="wd-icon wd-icon-erase" role="presentation">
<path d="M14.6052 3.04973C14.9958 2.6592 15.6298 2.6592 16.0203 3.04973L21.6765 8.70696C22.067 9.09749 22.067 9.73053 21.6765 10.121L11.7976 19.9999H7.51442L3.29177 15.7773C2.90152 15.3867 2.90136 14.7536 3.29177 14.3632L14.6052 3.04973Z" fill="transparent" class="wd-icon-background"></path>
<path d="M15.3042 1.75686C15.4994 1.756 15.6948 1.78303 15.8833 1.83889C16.1925 1.93044 16.4841 2.0988 16.7281 2.34279L22.3843 7.99904C22.5624 8.1771 22.6976 8.38165 22.7945 8.59865C22.7999 8.61077 22.8059 8.62258 22.8111 8.63479C22.8767 8.79017 22.9212 8.95176 22.9458 9.11623C22.9487 9.13546 22.9523 9.15456 22.9546 9.17385C22.9591 9.21087 22.961 9.248 22.9634 9.28518C22.9652 9.3122 22.9667 9.33917 22.9673 9.36623C22.9682 9.40175 22.9684 9.43716 22.9673 9.47268C22.9667 9.49551 22.9649 9.51823 22.9634 9.54104C22.9608 9.58152 22.9577 9.62184 22.9527 9.66213C22.9502 9.68206 22.947 9.70184 22.9439 9.7217C22.9373 9.76392 22.9297 9.80586 22.9205 9.84768C22.9168 9.86403 22.9128 9.88023 22.9087 9.8965C22.898 9.9398 22.8863 9.98277 22.8726 10.0254C22.8667 10.0438 22.8595 10.0618 22.8531 10.0801C22.8399 10.1175 22.8266 10.1547 22.8111 10.1914C22.8026 10.2114 22.7938 10.2312 22.7847 10.251C22.7669 10.2895 22.7484 10.3277 22.7281 10.3653C22.7165 10.3866 22.7044 10.4077 22.6919 10.4287C22.6727 10.4614 22.6527 10.4937 22.6314 10.5254C22.6118 10.5546 22.5911 10.583 22.5699 10.6113C22.5526 10.6343 22.5355 10.6574 22.5171 10.6797C22.4754 10.7306 22.4318 10.7807 22.3843 10.8281L12.2124 21H7.10112L2.58549 16.4844C1.8053 15.7036 1.80437 14.4375 2.58549 13.6563L13.899 2.34279C13.9965 2.24528 14.1016 2.16009 14.2124 2.08693C14.2351 2.07198 14.2587 2.05888 14.2818 2.04494C14.3866 1.98173 14.4956 1.92901 14.608 1.88674C14.8322 1.80228 15.0678 1.75795 15.3042 1.75686ZM3.99955 15.0703L7.92924 19H11.3843L12.1314 18.252L6.47416 12.5947L3.99955 15.0703ZM7.8892 11.1807L13.5455 16.8379L20.9693 9.41311L15.314 3.75686L7.8892 11.1807Z" fill="oklch(0.3523 0 0 / 1)" class="wd-icon-fill"></path>
<path d="M21 20.5C21 20.7761 20.7761 21 20.5 21H3.5C3.22386 21 3 20.7761 3 20.5V19.5C3 19.2239 3.22386 19 3.5 19H20.5C20.7761 19 21 19.2239 21 19.5V20.5Z" fill="oklch(0.3523 0 0 / 1)" class="wd-icon-accent"></path>
</svg>