<svg width="24" height="24" viewBox="0 0 24 24" xmlns="http://www.w3.org/2000/svg" class="wd-icon wd-icon-thumbs-down" role="presentation">
<path d="M11.8487 22C9.79374 22 7.84696 20.3585 8.10942 18.0723C8.15806 17.6486 8.22324 17.2276 8.30376 16.8105C8.42388 16.1883 8.5799 15.5838 8.76665 15H5.002C3.36395 15 1.95004 13.6504 2.12504 11.9062C2.27497 10.414 2.61687 8.28365 3.42192 6.49805C4.21954 4.72901 5.62629 3.00001 8.002 3H19.502C20.3304 3 21.002 3.67157 21.002 4.5V13.5C21.002 14.3284 20.3304 15 19.502 15H16.502L15.0137 16.9844C14.2939 17.9442 13.7733 19.0381 13.4825 20.2012L13.2227 21.2422L13.167 21.4023C13.0097 21.7605 12.6536 22 12.252 22H11.8487ZM11.5411 19.7168C11.8967 18.2942 12.5348 16.9576 13.4141 15.7852L15.0108 13.6572C15.0054 13.6055 15.002 13.5531 15.002 13.5V5H8.002C6.81107 5.00001 5.92351 5.8158 5.24516 7.32031C4.57444 8.80808 4.25846 10.6806 4.11528 12.1055C4.06969 12.5592 4.43105 13 5.002 13H10.2071C10.5439 13 10.8581 13.1696 11.043 13.4512C11.2279 13.7329 11.2582 14.0893 11.1241 14.3984C10.7507 15.2585 10.4586 16.1952 10.2666 17.1895C10.1956 17.5575 10.1385 17.9286 10.0957 18.3008C10.0084 19.0625 10.5768 19.8054 11.4795 19.9668L11.5411 19.7168ZM19.002 5H17.002V13H19.002V5Z" fill="oklch(0.3523 0 0 / 1)" class="wd-icon-fill"></path>
</svg>