<svg width="24" height="24" viewBox="0 0 24 24" xmlns="http://www.w3.org/2000/svg" class="wd-icon wd-icon-stop-small" role="presentation">
<path d="M13.7998 7C14.9199 7 15.4804 6.99979 15.9082 7.21777C16.2845 7.40951 16.5905 7.71554 16.7822 8.0918C17.0002 8.51962 17 9.08009 17 10.2002V13.7998C17 14.9199 17.0002 15.4804 16.7822 15.9082C16.5905 16.2845 16.2845 16.5905 15.9082 16.7822C15.4804 17.0002 14.9199 17 13.7998 17H10.2002C9.08009 17 8.51962 17.0002 8.0918 16.7822C7.71554 16.5905 7.40951 16.2845 7.21777 15.9082C6.99979 15.4804 7 14.9199 7 13.7998V10.2002C7 9.08009 6.99979 8.51962 7.21777 8.0918C7.40951 7.71554 7.71554 7.40951 8.0918 7.21777C8.51962 6.99979 9.08009 7 10.2002 7H13.7998Z" fill="oklch(0.3523 0 0 / 1)" class="wd-icon-fill"></path>
</svg>