<svg width="24" height="24" viewBox="0 0 24 24" xmlns="http://www.w3.org/2000/svg" class="wd-icon wd-icon-clock-x" role="presentation">
<g>
<path d="M10.2441 3.17278C11.9899 2.82554 13.7998 3.0043 15.4443 3.68548C17.0886 4.36669 18.4945 5.52003 19.4833 6.99993C20.4721 8.47991 20.9999 10.22 20.9999 11.9999C20.9999 12.5521 20.5521 12.9999 19.9999 12.9999C19.4477 12.9999 19 12.5522 18.9999 11.9999C18.9999 10.6156 18.5893 9.26232 17.8202 8.11126C17.0511 6.96018 15.9576 6.06296 14.6786 5.53313C13.3997 5.00337 11.9924 4.86471 10.6347 5.1347C9.27683 5.40479 8.0287 6.07077 7.04974 7.04974C6.07077 8.0287 5.40479 9.27683 5.1347 10.6347C4.86471 11.9924 5.00338 13.3997 5.53313 14.6786C6.06296 15.9576 6.96018 17.0511 8.11126 17.8202C9.26232 18.5893 10.6156 18.9999 11.9999 18.9999C12.5522 19 12.9999 19.4477 12.9999 19.9999C12.9999 20.5521 12.5521 20.9999 11.9999 20.9999C10.22 20.9999 8.47991 20.4721 6.99993 19.4833C5.52003 18.4945 4.36669 17.0886 3.68548 15.4443C3.0043 13.7998 2.82554 11.9899 3.17278 10.2441C3.52005 8.49825 4.37701 6.89434 5.63567 5.63567C6.89434 4.37701 8.49825 3.52005 10.2441 3.17278Z" fill="oklch(0.3523 0 0 / 1)" class="wd-icon-fill"></path>
<path d="M11.9999 6.99993C12.4141 6.99996 12.7499 7.33576 12.7499 7.74993V11.6894L15.0302 13.9697C15.3231 14.2625 15.323 14.7373 15.0302 15.0302C14.7373 15.3231 14.2626 15.3231 13.9697 15.0302L11.6161 12.6767C11.3817 12.4423 11.25 12.1244 11.2499 11.7929V7.74993C11.25 7.33574 11.5857 6.99993 11.9999 6.99993Z" fill="oklch(0.3523 0 0 / 1)" class="wd-icon-fill"></path>
</g>
<path d="M20.719 16.2157C21.0119 15.923 21.4867 15.9229 21.7796 16.2157C22.0717 16.5086 22.072 16.9836 21.7796 17.2763L20.0618 18.994L21.7864 20.7186C22.0788 21.0116 22.0791 21.4865 21.7864 21.7792C21.4936 22.0716 21.0187 22.0715 20.7258 21.7792L19.0012 20.0546L17.2766 21.7792C16.9839 22.0715 16.5089 22.0713 16.2161 21.7792C15.9233 21.4864 15.9235 21.0116 16.2161 20.7186L17.9407 18.994L16.2229 17.2763C15.9302 16.9835 15.9304 16.5086 16.2229 16.2157C16.5158 15.9229 16.9906 15.9229 17.2835 16.2157L19.0012 17.9335L20.719 16.2157Z" fill="oklch(0.3523 0 0 / 1)" class="wd-icon-accent"></path>
</svg>