<svg width="24" height="24" viewBox="0 0 24 24" xmlns="http://www.w3.org/2000/svg" class="wd-icon wd-icon-column-hide" role="presentation">
<path d="M3 4.5C3 4.22386 3.22386 4 3.5 4H20.5C20.7761 4 21 4.22386 21 4.5V7.5C21 7.77614 20.7761 8 20.5 8H3.5C3.22386 8 3 7.77614 3 7.5V4.5Z" fill="transparent" class="wd-icon-background"></path>
<path d="M20.5 3C21.3284 3 22 3.67157 22 4.5V19.5C22 20.3284 21.3284 21 20.5 21H3.5C2.67157 21 2 20.3284 2 19.5V4.5C2 3.67157 2.67157 3 3.5 3H20.5ZM11 19H20V9H11V19ZM4 19H9V9H4V19ZM4 7H20V5H4V7Z" fill="oklch(0.3523 0 0 / 1)" class="wd-icon-fill"></path>
<path d="M16.6979 11.3934C16.8931 11.1982 17.2097 11.1984 17.405 11.3934L18.112 12.1005C18.3072 12.2957 18.3072 12.6122 18.112 12.8075L16.9225 13.9969L18.112 15.1864C18.3071 15.3817 18.3072 15.6982 18.112 15.8934L17.405 16.6005C17.2097 16.7953 16.8931 16.7955 16.6979 16.6005L15.5085 15.411L14.319 16.6005C14.1237 16.7953 13.8071 16.7955 13.612 16.6005L12.905 15.8934C12.71 15.6983 12.7102 15.3816 12.905 15.1864L14.0944 13.9969L12.905 12.8075C12.71 12.6123 12.7101 12.2957 12.905 12.1005L13.612 11.3934C13.8072 11.1982 14.1237 11.1983 14.319 11.3934L15.5085 12.5829L16.6979 11.3934Z" fill="oklch(0.3523 0 0 / 1)" class="wd-icon-accent"></path>
</svg>