<svg width="24" height="24" viewBox="0 0 24 24" xmlns="http://www.w3.org/2000/svg" class="wd-icon wd-icon-actuals" role="presentation">
<path d="M19.9394 2.64643C20.1347 2.4512 20.4512 2.45118 20.6464 2.64643L21.3535 3.35346C21.5486 3.54872 21.5487 3.86526 21.3535 4.06049L19.0605 6.35346C19.0502 6.3637 19.0382 6.37163 19.0273 6.3808C20.2604 7.92094 20.9999 9.87353 20.9999 11.9999C20.9999 14.1261 20.2601 16.0781 19.0273 17.6181C19.0383 17.6274 19.0501 17.636 19.0605 17.6464L21.3535 19.9394C21.5486 20.1347 21.5487 20.4512 21.3535 20.6464L20.6464 21.3535C20.4512 21.5487 20.1347 21.5486 19.9394 21.3535L17.6464 19.0605C17.636 19.0501 17.6274 19.0383 17.6181 19.0273C16.0781 20.2601 14.1261 20.9999 11.9999 20.9999C9.87353 20.9999 7.92094 20.2604 6.3808 19.0273C6.37163 19.0382 6.3637 19.0502 6.35346 19.0605L4.06049 21.3535C3.86526 21.5487 3.54872 21.5486 3.35346 21.3535L2.64643 20.6464C2.45118 20.4512 2.4512 20.1347 2.64643 19.9394L4.9394 17.6464C4.94946 17.6364 4.96094 17.6281 4.97162 17.6191C3.73871 16.079 2.99996 14.1262 2.99994 11.9999C2.99994 9.87345 3.73844 7.91999 4.97162 6.37983C4.96111 6.37092 4.94931 6.36337 4.9394 6.35346L2.64643 4.06049C2.45118 3.86524 2.4512 3.54872 2.64643 3.35346L3.35346 2.64643C3.54872 2.4512 3.86524 2.45118 4.06049 2.64643L6.35346 4.9394C6.36337 4.94931 6.37092 4.96111 6.37983 4.97162C7.91999 3.73844 9.87345 2.99994 11.9999 2.99994C14.1262 2.99996 16.079 3.73871 17.6191 4.97162C17.6281 4.96094 17.6364 4.94946 17.6464 4.9394L19.9394 2.64643ZM11.9999 4.99994C8.13395 4.99994 4.99994 8.13395 4.99994 11.9999C4.99997 15.8659 8.13397 18.9999 11.9999 18.9999C15.8659 18.9999 18.9999 15.8659 18.9999 11.9999C18.9999 8.13397 15.8659 4.99997 11.9999 4.99994Z" fill="oklch(0.3523 0 0 / 1)" class="wd-icon-fill"></path>
</svg>