<svg width="24" height="24" viewBox="0 0 24 24" xmlns="http://www.w3.org/2000/svg" class="wd-icon wd-icon-arrow-right-small" role="presentation">
<path d="M19.7754 12.6333C19.9635 12.4029 20.0337 12.1091 19.9863 11.8315C19.9581 11.6654 19.887 11.5045 19.7744 11.3667L16.4082 7.25436C16.2333 7.04117 15.9186 7.00948 15.7051 7.18405L15.3184 7.50045L14.9316 7.81588C14.7179 7.99058 14.6868 8.30618 14.8613 8.51999L16.8906 11.0005L4.50098 11.0005C4.22485 11.0005 4.001 11.2243 4.00098 11.5005L4.00098 12.5005C4.00098 12.7766 4.22483 13.0005 4.50098 13.0005L16.8906 13.0005L14.8613 15.4799C14.6868 15.6934 14.7185 16.0081 14.9316 16.1831L15.7061 16.8169C15.9197 16.9912 16.2344 16.9599 16.4092 16.7465L19.7754 12.6333Z" fill="oklch(0.3523 0 0 / 1)" class="wd-icon-fill"></path>
</svg>