<svg width="24" height="24" viewBox="0 0 24 24" xmlns="http://www.w3.org/2000/svg" class="wd-icon wd-icon-square-search-dashed" role="presentation">
<g>
<path d="M10 19C10.5523 19 11 19.4477 11 20C11 20.5523 10.5523 21 10 21H9C8.44772 21 8 20.5523 8 20C8 19.4477 8.44772 19 9 19H10Z" fill="oklch(0.3523 0 0 / 1)" class="wd-icon-fill"></path>
<path d="M3.90234 17.6348C4.38043 17.3589 4.99133 17.5222 5.26758 18C5.44299 18.3037 5.69633 18.557 6 18.7324C6.47806 19.0086 6.64223 19.6205 6.36621 20.0986C6.09 20.5765 5.4781 20.7407 5 20.4648C4.39245 20.114 3.88707 19.6085 3.53613 19.001C3.26002 18.5228 3.42422 17.911 3.90234 17.6348Z" fill="oklch(0.3523 0 0 / 1)" class="wd-icon-fill"></path>
<path d="M4 13C4.55228 13 5 13.4477 5 14V15C5 15.5523 4.55228 16 4 16C3.44772 16 3 15.5523 3 15V14C3 13.4477 3.44772 13 4 13Z" fill="oklch(0.3523 0 0 / 1)" class="wd-icon-fill"></path>
<path d="M4 8C4.55228 8 5 8.44772 5 9V10C5 10.5523 4.55228 11 4 11C3.44772 11 3 10.5523 3 10V9C3 8.44772 3.44772 8 4 8Z" fill="oklch(0.3523 0 0 / 1)" class="wd-icon-fill"></path>
<path d="M20 8C20.5523 8 21 8.44772 21 9V10C21 10.5523 20.5523 11 20 11C19.4477 11 19 10.5523 19 10V9C19 8.44772 19.4477 8 20 8Z" fill="oklch(0.3523 0 0 / 1)" class="wd-icon-fill"></path>
<path d="M17.6338 3.90234C17.9099 3.42412 18.5218 3.26007 19 3.53613C19.6076 3.88703 20.1129 4.3924 20.4639 5C20.7398 5.47825 20.5759 6.0901 20.0977 6.36621C19.6197 6.64195 19.0087 6.4786 18.7324 6.00098C18.557 5.6972 18.3037 5.44401 18 5.26855C17.5218 4.99245 17.3579 4.38056 17.6338 3.90234Z" fill="oklch(0.3523 0 0 / 1)" class="wd-icon-fill"></path>
<path d="M5 3.53613C5.47825 3.26007 6.09006 3.42412 6.36621 3.90234C6.64198 4.38054 6.4781 4.99247 6 5.26855C5.6963 5.44401 5.44296 5.69723 5.26758 6.00098C4.99127 6.47845 4.38028 6.64186 3.90234 6.36621C3.42418 6.09013 3.26027 5.47823 3.53613 5C3.88704 4.39243 4.39242 3.88703 5 3.53613Z" fill="oklch(0.3523 0 0 / 1)" class="wd-icon-fill"></path>
<path d="M10 3C10.5523 3 11 3.44772 11 4C11 4.55228 10.5523 5 10 5H9C8.44772 5 8 4.55228 8 4C8 3.44772 8.44772 3 9 3H10Z" fill="oklch(0.3523 0 0 / 1)" class="wd-icon-fill"></path>
<path d="M15 3C15.5523 3 16 3.44772 16 4C16 4.55228 15.5523 5 15 5H14C13.4477 5 13 4.55228 13 4C13 3.44772 13.4477 3 14 3H15Z" fill="oklch(0.3523 0 0 / 1)" class="wd-icon-fill"></path>
</g>
<path d="M17 13C19.2091 13 21 14.7909 21 17C21 17.8334 20.7437 18.6064 20.3076 19.2471L21.7803 20.7197C22.0731 21.0126 22.0731 21.4874 21.7803 21.7803C21.4874 22.073 21.0126 22.0731 20.7197 21.7803L19.2471 20.3076C18.6064 20.7437 17.8334 21 17 21C14.7909 21 13 19.2091 13 17C13 14.7909 14.7909 13 17 13ZM17 14.5C15.6193 14.5 14.5 15.6193 14.5 17C14.5 18.3807 15.6193 19.5 17 19.5C18.3807 19.5 19.5 18.3807 19.5 17C19.5 15.6193 18.3807 14.5 17 14.5Z" fill="oklch(0.3523 0 0 / 1)" class="wd-icon-accent"></path>
</svg>