<svg width="24" height="24" viewBox="0 0 24 24" xmlns="http://www.w3.org/2000/svg" class="wd-icon wd-icon-play-circle" role="presentation">
<g>
<path d="M9 7.7832C9 7.39463 9.4236 7.15475 9.75684 7.35449L16.7852 11.5713C17.1087 11.7655 17.1088 12.2345 16.7852 12.4287L9.75684 16.6455C9.42372 16.845 9.00021 16.6051 9 16.2168V7.7832Z" fill="oklch(0.3523 0 0 / 1)" class="wd-icon-fill"></path>
<path d="M12 1C18.0751 1 23 5.92487 23 12C23 18.0751 18.0751 23 12 23C5.92487 23 1 18.0751 1 12C1 5.92487 5.92487 1 12 1ZM12 3C7.02944 3 3 7.02944 3 12C3 16.9706 7.02944 21 12 21C16.9706 21 21 16.9706 21 12C21 7.02944 16.9706 3 12 3Z" fill="oklch(0.3523 0 0 / 1)" class="wd-icon-fill"></path>
</g>
</svg>