<svg width="24" height="24" viewBox="0 0 24 24" xmlns="http://www.w3.org/2000/svg" class="wd-icon wd-icon-restore" role="presentation">
<path d="M18.2217 16.0771C18.1814 16.5979 17.747 17 17.2246 17H17C16.4477 17 16 17.4477 16 18C15.9998 17.938 15.9991 17.8733 15.9971 17.8115C15.8978 14.7838 13.4662 12.3522 10.4385 12.2529C10.3331 12.2495 10.2193 12.25 10.125 12.25H9.48047L9.38379 10.9971C9.93426 10.9545 10.347 10.4734 10.3047 9.92285L10.0801 7H18.9199L18.2217 16.0771Z" fill="transparent" class="wd-icon-background"></path>
<path d="M14.498 1.5C16.4309 1.50021 17.998 3.06713 17.998 5H21.498C22.0502 5.00021 22.498 5.44784 22.498 6C22.498 6.55216 22.0502 6.99979 21.498 7H20.9258L20.2158 16.2305C20.0954 17.7931 18.7919 18.9998 17.2246 19H17C16.4477 19 16 18.5523 16 18C16 17.4477 16.4477 17 17 17H17.2246C17.7468 16.9998 18.1814 16.5978 18.2217 16.0771L18.9199 7H10.0801L10.3047 9.92285C10.347 10.4732 9.93503 10.9543 9.38477 10.9971C8.83427 11.0394 8.35314 10.6276 8.31055 10.0771L8.07422 7H7.49805C6.94576 7 6.49805 6.55228 6.49805 6C6.49805 5.44772 6.94576 5 7.49805 5H10.998C10.998 3.067 12.5651 1.5 14.498 1.5ZM14.498 3.5C13.6696 3.5 12.998 4.17157 12.998 5H15.998C15.998 4.1717 15.3263 3.50021 14.498 3.5Z" fill="oklch(0.3523 0 0 / 1)" class="wd-icon-fill"></path>
<path d="M5.46957 11.4695C5.76249 11.1769 6.23733 11.1767 6.53011 11.4695C6.8225 11.7623 6.82256 12.2373 6.53011 12.5301L4.81039 14.2498H10.1248C10.2348 14.2498 10.3085 14.2496 10.3729 14.2517C12.3472 14.3167 13.9331 15.9023 13.9979 17.8767C14 17.9411 13.9998 18.0148 13.9998 18.1248C13.9998 18.2348 14 18.3084 13.9979 18.3728C13.933 20.3472 12.3472 21.9328 10.3729 21.9978C10.3085 21.9999 10.2348 21.9998 10.1248 21.9998H7.99984C7.58569 21.9998 7.24994 21.6639 7.24984 21.2498C7.24984 20.8356 7.58563 20.4998 7.99984 20.4998H10.1248C10.2461 20.4998 10.2895 20.4999 10.3231 20.4988C11.5077 20.4598 12.46 19.5077 12.4989 18.323C12.5 18.2894 12.4998 18.2462 12.4998 18.1248C12.4998 18.0035 12.5 17.9602 12.4989 17.9265C12.4601 16.7418 11.5078 15.7897 10.3231 15.7508C10.2895 15.7497 10.2461 15.7498 10.1248 15.7498H4.81039L6.53011 17.4695C6.82257 17.7623 6.82263 18.2373 6.53011 18.5301C6.23732 18.8226 5.76242 18.8225 5.46957 18.5301L2.46957 15.5301C2.17674 15.2372 2.17688 14.7624 2.46957 14.4695L5.46957 11.4695Z" fill="oklch(0.3523 0 0 / 1)" class="wd-icon-accent"></path>
</svg>