<svg width="24" height="24" viewBox="0 0 24 24" xmlns="http://www.w3.org/2000/svg" class="wd-icon wd-icon-font-emphasis" role="presentation">
<g>
<path d="M13.0768 17.001C14.1388 17.0012 14.9996 17.8618 14.9997 18.9238V19C14.9996 20.6568 13.6564 22.0002 11.9997 22H10.3825C9.99416 21.9996 9.75398 21.5753 9.95377 21.2422L10.6432 20.0947C10.8791 19.7017 11.0455 19.2708 11.1354 18.8213L11.1901 18.5469C11.3699 17.648 12.1601 17.0011 13.0768 17.001Z" fill="oklch(0.3523 0 0 / 1)" class="wd-icon-fill"></path>
<path d="M20.3463 10.1113C20.7882 9.84073 21.3578 9.90814 21.7243 10.2744C22.0909 10.641 22.1582 11.2113 21.8874 11.6533L18.8776 16.5664C18.3322 17.4562 17.3627 17.999 16.319 17.999H15.8473C15.5568 17.129 14.87 16.4422 13.9997 16.1523V15.6797C13.9997 14.636 14.5425 13.6675 15.4323 13.1221L20.3463 10.1113Z" fill="oklch(0.3523 0 0 / 1)" class="wd-icon-fill"></path>
<path d="M6.97818 2.01367C7.63611 2.01367 8.22661 2.4041 8.48795 2.99902L8.5358 3.12012L11.8629 12.6709C12.0445 13.1924 11.7682 13.7627 11.2467 13.9443C10.7254 14.1256 10.156 13.8503 9.97428 13.3291L9.1608 10.9951C9.13061 10.9979 9.09991 11 9.069 11H4.85123C4.8322 11 4.81336 10.9981 4.79459 10.9971L3.98307 13.3291C3.8013 13.8505 3.23109 14.126 2.70963 13.9443C2.18837 13.7626 1.91296 13.1923 2.09439 12.6709L5.42154 3.12012L5.46939 2.99902C5.73071 2.40432 6.3205 2.01385 6.97818 2.01367ZM5.49088 9H8.46646L6.97818 4.72949L5.49088 9Z" fill="oklch(0.3523 0 0 / 1)" class="wd-icon-fill"></path>
</g>
</svg>