<svg width="24" height="24" viewBox="0 0 24 24" xmlns="http://www.w3.org/2000/svg" class="wd-icon wd-icon-dashboard-fill" role="presentation">
<g>
<path d="M8.4004 14C8.66379 14 8.92187 13.9989 9.13869 14.0166C9.36719 14.0353 9.63696 14.0796 9.90822 14.2178C10.2375 14.3856 10.5129 14.6409 10.7051 14.9541L10.7822 15.0918L10.8692 15.2949C10.9406 15.4958 10.9694 15.6901 10.9834 15.8613C11.0011 16.0782 11 16.3362 11 16.5996V18.4004C11 18.6638 11.0011 18.9219 10.9834 19.1387C10.9647 19.3672 10.9205 19.637 10.7822 19.9082C10.5905 20.2845 10.2845 20.5905 9.90822 20.7822C9.63696 20.9205 9.36719 20.9647 9.13869 20.9834C8.92187 21.0011 8.66379 21 8.4004 21H5.59962C5.33623 21 5.07815 21.0011 4.86134 20.9834C4.63284 20.9647 4.36307 20.9205 4.09181 20.7822C3.71556 20.5905 3.40952 20.2845 3.21779 19.9082C3.07957 19.637 3.03531 19.3672 3.01662 19.1387C2.9989 18.9219 3.00001 18.6638 3.00001 18.4004V16.5996C3.00001 16.3362 2.9989 16.0782 3.01662 15.8613C3.03531 15.6328 3.07957 15.3631 3.21779 15.0918C3.40952 14.7156 3.71556 14.4095 4.09181 14.2178C4.36307 14.0796 4.63284 14.0353 4.86134 14.0166C5.07815 13.9989 5.33623 14 5.59962 14H8.4004Z" fill="oklch(0.3523 0 0 / 1)" class="wd-icon-fill"></path>
<path d="M18.4004 10C18.6638 10 18.9219 9.9989 19.1387 10.0166C19.3672 10.0353 19.637 10.0796 19.9082 10.2178C20.2375 10.3856 20.5129 10.6409 20.7051 10.9541L20.7822 11.0918L20.8692 11.2949C20.9406 11.4958 20.9694 11.6901 20.9834 11.8613C21.0011 12.0782 21 12.3362 21 12.5996V18.4004C21 18.6638 21.0011 18.9219 20.9834 19.1387C20.9647 19.3672 20.9205 19.637 20.7822 19.9082C20.5905 20.2845 20.2845 20.5905 19.9082 20.7822C19.637 20.9205 19.3672 20.9647 19.1387 20.9834C18.9219 21.0011 18.6638 21 18.4004 21H15.5996C15.3362 21 15.0782 21.0011 14.8613 20.9834C14.6328 20.9647 14.3631 20.9205 14.0918 20.7822C13.7156 20.5905 13.4095 20.2845 13.2178 19.9082C13.0796 19.637 13.0353 19.3672 13.0166 19.1387C12.9989 18.9219 13 18.6638 13 18.4004V12.5996C13 12.3362 12.9989 12.0782 13.0166 11.8613C13.0353 11.6328 13.0796 11.3631 13.2178 11.0918C13.4095 10.7156 13.7156 10.4095 14.0918 10.2178C14.3631 10.0796 14.6328 10.0353 14.8613 10.0166C15.0782 9.9989 15.3362 10 15.5996 10H18.4004Z" fill="oklch(0.3523 0 0 / 1)" class="wd-icon-fill"></path>
<path d="M8.4004 3.00001C8.66379 3.00001 8.92187 2.9989 9.13869 3.01662C9.36719 3.03531 9.63696 3.07957 9.90822 3.21779C10.2375 3.38556 10.5129 3.64086 10.7051 3.95412L10.7822 4.09181L10.8692 4.29494C10.9406 4.49578 10.9694 4.69006 10.9834 4.86134C11.0011 5.07815 11 5.33623 11 5.59962V10.4004C11 10.6638 11.0011 10.9219 10.9834 11.1387C10.9647 11.3672 10.9205 11.637 10.7822 11.9082C10.5905 12.2845 10.2845 12.5905 9.90822 12.7822C9.63696 12.9205 9.36719 12.9647 9.13869 12.9834C8.92187 13.0011 8.66379 13 8.4004 13H5.59962C5.33623 13 5.07815 13.0011 4.86134 12.9834C4.63284 12.9647 4.36307 12.9205 4.09181 12.7822C3.71556 12.5905 3.40952 12.2845 3.21779 11.9082C3.07957 11.637 3.03531 11.3672 3.01662 11.1387C2.9989 10.9219 3.00001 10.6638 3.00001 10.4004V5.59962C3.00001 5.33623 2.9989 5.07815 3.01662 4.86134C3.03531 4.63284 3.07957 4.36307 3.21779 4.09181C3.40952 3.71556 3.71556 3.40952 4.09181 3.21779C4.36307 3.07957 4.63284 3.03531 4.86134 3.01662C5.07815 2.9989 5.33623 3.00001 5.59962 3.00001H8.4004Z" fill="oklch(0.3523 0 0 / 1)" class="wd-icon-fill"></path>
<path d="M18.4004 3.00001C18.6638 3.00001 18.9219 2.9989 19.1387 3.01662C19.3672 3.03531 19.637 3.07957 19.9082 3.21779C20.2375 3.38556 20.5129 3.64086 20.7051 3.95412L20.7822 4.09181L20.8692 4.29494C20.9406 4.49578 20.9694 4.69006 20.9834 4.86134C21.0011 5.07815 21 5.33623 21 5.59962V6.4004C21 6.66379 21.0011 6.92187 20.9834 7.13869C20.9647 7.36719 20.9205 7.63696 20.7822 7.90822C20.5905 8.28447 20.2845 8.59051 19.9082 8.78224C19.637 8.92046 19.3672 8.96472 19.1387 8.98341C18.9219 9.00113 18.6638 9.00001 18.4004 9.00001H15.5996C15.3362 9.00001 15.0782 9.00113 14.8613 8.98341C14.6328 8.96472 14.3631 8.92046 14.0918 8.78224C13.7156 8.59051 13.4095 8.28447 13.2178 7.90822C13.0796 7.63696 13.0353 7.36719 13.0166 7.13869C12.9989 6.92187 13 6.66379 13 6.4004V5.59962C13 5.33623 12.9989 5.07815 13.0166 4.86134C13.0353 4.63284 13.0796 4.36307 13.2178 4.09181C13.4095 3.71556 13.7156 3.40952 14.0918 3.21779C14.3631 3.07957 14.6328 3.03531 14.8613 3.01662C15.0782 2.9989 15.3362 3.00001 15.5996 3.00001H18.4004Z" fill="oklch(0.3523 0 0 / 1)" class="wd-icon-fill"></path>
</g>
</svg>