<svg width="24" height="24" viewBox="0 0 24 24" xmlns="http://www.w3.org/2000/svg" class="wd-icon wd-icon-checkbox" role="presentation">
<path d="M15.2002 5C16.0566 5 16.6388 5.00035 17.0889 5.03711C17.5273 5.07293 17.7518 5.13808 17.9082 5.21777C18.2845 5.40951 18.5905 5.71554 18.7822 6.0918C18.8619 6.2482 18.9271 6.47272 18.9629 6.91113C18.9997 7.36117 19 7.94342 19 8.7998V15.2002C19 16.0566 18.9997 16.6388 18.9629 17.0889C18.9271 17.5273 18.8619 17.7518 18.7822 17.9082C18.5905 18.2845 18.2845 18.5905 17.9082 18.7822C17.7518 18.8619 17.5273 18.9271 17.0889 18.9629C16.6388 18.9997 16.0566 19 15.2002 19H8.7998C7.94342 19 7.36117 18.9997 6.91113 18.9629C6.47272 18.9271 6.2482 18.8619 6.0918 18.7822C5.71554 18.5905 5.40951 18.2845 5.21777 17.9082C5.13808 17.7518 5.07293 17.5273 5.03711 17.0889C5.00035 16.6388 5 16.0566 5 15.2002V8.7998C5 7.94341 5.00035 7.36117 5.03711 6.91113C5.07293 6.47272 5.13808 6.2482 5.21777 6.0918C5.40951 5.71554 5.71554 5.40951 6.0918 5.21777C6.2482 5.13808 6.47272 5.07293 6.91113 5.03711C7.36117 5.00035 7.94341 5 8.7998 5H15.2002ZM15.8066 8.73145C15.3825 8.37841 14.752 8.43565 14.3984 8.85938L10.999 12.9375L9.68457 11.3594C9.33094 10.9355 8.69953 10.878 8.27539 11.2314C7.8515 11.585 7.79421 12.2165 8.14746 12.6406L10.2314 15.1406C10.4213 15.3684 10.7035 15.4999 11 15.5C11.2964 15.4999 11.5777 15.3682 11.7676 15.1406L15.9346 10.1406C16.2881 9.71635 16.2309 9.08499 15.8066 8.73145Z" fill="transparent" class="wd-icon-background"></path>
<path d="M15.2002 3C16.0236 3 16.7016 2.99898 17.252 3.04395C17.814 3.08988 18.3311 3.18829 18.8164 3.43555C19.5689 3.81902 20.181 4.43112 20.5645 5.1836C20.8117 5.66888 20.9101 6.18602 20.9561 6.74805C21.001 7.29841 21 7.97635 21 8.79981V15.2002C21 16.0236 21.001 16.7016 20.9561 17.252C20.9101 17.814 20.8117 18.3311 20.5645 18.8164C20.181 19.5689 19.5689 20.181 18.8164 20.5645C18.3311 20.8117 17.814 20.9101 17.252 20.9561C16.7016 21.001 16.0236 21 15.2002 21H8.79981C7.97638 21 7.2984 21.001 6.74805 20.9561C6.18602 20.9101 5.66888 20.8117 5.1836 20.5645C4.43109 20.181 3.81902 19.5689 3.43555 18.8164C3.18828 18.3311 3.08988 17.814 3.04395 17.252C2.99898 16.7016 3 16.0237 3 15.2002V8.79981C3 7.97635 2.99898 7.29841 3.04395 6.74805C3.08988 6.18603 3.18829 5.66888 3.43555 5.1836C3.81902 4.43114 4.43113 3.819 5.1836 3.43555C5.66886 3.18832 6.18605 3.08987 6.74805 3.04395C7.2984 2.99899 7.97639 3 8.79981 3H15.2002ZM8.79981 5C7.94351 5 7.36115 5.00036 6.91113 5.03711C6.47285 5.07292 6.24819 5.13812 6.0918 5.21778C5.71559 5.40949 5.40951 5.7156 5.21778 6.0918C5.13809 6.24819 5.07293 6.47278 5.03711 6.91113C5.00035 7.36116 5 7.94346 5 8.79981V15.2002C5 16.0565 5.00036 16.6388 5.03711 17.0889C5.07293 17.5273 5.13809 17.7518 5.21778 17.9082C5.40951 18.2845 5.71555 18.5905 6.0918 18.7822C6.24819 18.8619 6.47279 18.9271 6.91113 18.9629C7.36115 18.9996 7.9435 19 8.79981 19H15.2002C16.0565 19 16.6389 18.9997 17.0889 18.9629C17.5272 18.9271 17.7518 18.8619 17.9082 18.7822C18.2844 18.5905 18.5905 18.2844 18.7822 17.9082C18.8619 17.7518 18.9271 17.5272 18.9629 17.0889C18.9996 16.6388 19 16.0565 19 15.2002V8.79981C19 7.94346 18.9997 7.36116 18.9629 6.91113C18.9271 6.47276 18.8619 6.24819 18.7822 6.0918C18.5905 5.71558 18.2844 5.40951 17.9082 5.21778C17.7518 5.1381 17.5272 5.07293 17.0889 5.03711C16.6389 5.00035 16.0565 5 15.2002 5H8.79981Z" fill="oklch(0.3523 0 0 / 1)" class="wd-icon-fill"></path>
<path d="M14.3986 8.85938C14.7521 8.43565 15.3827 8.37842 15.8068 8.73145C16.231 9.085 16.2882 9.71635 15.9347 10.1406L11.7677 15.1406C11.5778 15.3682 11.2965 15.4999 11.0001 15.5C10.7036 15.4999 10.4215 15.3684 10.2316 15.1406L8.14761 12.6406C7.79436 12.2165 7.85165 11.585 8.27554 11.2314C8.69967 10.878 9.33109 10.9355 9.68472 11.3594L10.9992 12.9375L14.3986 8.85938Z" fill="oklch(0.3523 0 0 / 1)" class="wd-icon-accent"></path>
</svg>