<svg width="24" height="24" viewBox="0 0 24 24" xmlns="http://www.w3.org/2000/svg" class="wd-icon wd-icon-actuals-finance" role="presentation">
<path d="M19.293 3.29289C19.6835 2.90245 20.3166 2.90245 20.7071 3.29289C21.0975 3.6834 21.0975 4.31646 20.7071 4.70696L19.0303 6.38274C19.5683 7.05578 20.0105 7.80486 20.3379 8.61028C20.5457 9.12175 20.2995 9.70593 19.7881 9.91399C19.2767 10.1218 18.6925 9.87549 18.4844 9.36418C18.0063 8.18804 17.2176 7.16344 16.2022 6.40129C15.1867 5.63919 13.9827 5.16758 12.7198 5.03703C11.4567 4.90655 10.1812 5.12166 9.03128 5.66008C7.88153 6.19851 6.89994 7.04017 6.19144 8.09367C5.48298 9.14727 5.07376 10.3745 5.00882 11.6425C4.94405 12.9103 5.22518 14.1726 5.8223 15.2929C6.41949 16.4132 7.31077 17.3498 8.39945 18.0029C9.48837 18.6559 10.7352 19.0007 12.0049 18.9999C12.5569 18.9997 13.0043 19.447 13.0049 19.9989C13.0051 20.5511 12.5581 20.9996 12.0059 20.9999C10.3734 21.001 8.77113 20.5582 7.37113 19.7187C7.02521 19.5112 6.69485 19.2813 6.38187 19.0312L4.70706 20.707C4.31656 21.0973 3.68347 21.0973 3.293 20.707C2.90266 20.3165 2.90269 19.6834 3.293 19.2929L4.96878 17.6161C4.62499 17.1857 4.3189 16.7234 4.05765 16.2333C3.28986 14.7928 2.92838 13.1702 3.01175 11.54C3.09523 9.90971 3.62041 8.33209 4.53128 6.97746C4.66896 6.77273 4.8155 6.57457 4.96878 6.38274L3.293 4.70696C2.90254 4.31649 2.90265 3.68343 3.293 3.29289C3.68353 2.90237 4.31654 2.90237 4.70706 3.29289L6.38187 4.9677C6.93358 4.52713 7.53849 4.15164 8.18363 3.84953C9.66206 3.15729 11.301 2.88004 12.9248 3.04778C14.5487 3.21556 16.0967 3.82175 17.4024 4.80168C17.4747 4.856 17.5457 4.91231 17.6162 4.96867L19.293 3.29289Z" fill="oklch(0.3523 0 0 / 1)" class="wd-icon-fill"></path>
<path d="M18.5211 11.9199C18.7972 11.9199 19.0211 12.1438 19.0211 12.4199V12.9297C19.6426 13.0407 20.1571 13.2925 20.5641 13.6846C20.7893 13.9016 20.9603 14.1535 21.0768 14.4385C21.2351 14.8266 20.8925 15.1941 20.4733 15.1943C20.113 15.1943 19.8273 14.901 19.5993 14.6221C19.5918 14.613 19.5845 14.6036 19.5768 14.5947C19.4288 14.4172 19.2431 14.2841 19.0211 14.1953V16.3047C19.8425 16.5267 20.4492 16.8191 20.8414 17.1816C21.2336 17.5442 21.4303 18.0434 21.4303 18.6797C21.4303 19.1014 21.3302 19.4863 21.1305 19.834C20.9307 20.1744 20.6493 20.4557 20.2868 20.6777C19.9242 20.8923 19.5021 21.0253 19.0211 21.0771V21.5762C19.0211 21.8523 18.7973 22.0762 18.5211 22.0762H18.4782C18.202 22.0762 17.9782 21.8523 17.9782 21.5762V21.0664C17.2086 20.9776 16.5975 20.7149 16.1461 20.2783C15.8717 20.0128 15.6758 19.7003 15.5573 19.3418C15.4266 18.9459 15.7731 18.5908 16.1901 18.5908C16.5634 18.5909 16.8493 18.895 17.0573 19.2051C17.1022 19.2721 17.1541 19.3343 17.2125 19.3906C17.4197 19.5902 17.6749 19.7311 17.9782 19.8125V17.4365C17.142 17.2071 16.5463 16.9148 16.1911 16.5596C15.8359 16.2044 15.6579 15.7416 15.6579 15.1719C15.6579 14.7799 15.758 14.4211 15.9577 14.0957C16.1649 13.7701 16.4429 13.5041 16.7907 13.2969C17.1458 13.0823 17.5416 12.9483 17.9782 12.8965V12.4199C17.9782 12.1438 18.2021 11.9199 18.4782 11.9199H18.5211ZM19.0211 19.8564C19.2209 19.812 19.3956 19.746 19.5436 19.6572C19.6915 19.5611 19.806 19.4423 19.8873 19.3018C19.9687 19.1612 20.0094 18.9983 20.0094 18.8135C20.0094 18.5471 19.9281 18.3317 19.7653 18.1689C19.6025 18.0062 19.354 17.8621 19.0211 17.7363V19.8564ZM17.9782 14.0957C17.6896 14.1475 17.4675 14.2585 17.3121 14.4287C17.1568 14.5988 17.0788 14.8058 17.0787 15.0498C17.0787 15.2718 17.1491 15.4575 17.2897 15.6055C17.4303 15.7534 17.66 15.8865 17.9782 16.0049V14.0957Z" fill="oklch(0.3523 0 0 / 1)" class="wd-icon-accent"></path>
</svg>