<svg width="24" height="24" viewBox="0 0 24 24" xmlns="http://www.w3.org/2000/svg" class="wd-icon wd-icon-sign-out" role="presentation">
<g>
<path d="M15 3.1416C15 2.80397 15.3282 2.56349 15.6426 2.68652C19.3638 4.14275 21.9999 7.76272 22 12C22 17.5228 17.5228 22 12 22C6.47715 22 2 17.5228 2 12C2.0001 7.76272 4.63617 4.14275 8.35742 2.68652C8.67184 2.56349 9 2.80397 9 3.1416V4.24609C9 4.44971 8.87571 4.63141 8.69043 4.71582C5.92397 5.97472 4.0001 8.76238 4 12C4 16.4183 7.58172 20 12 20C16.4183 20 20 16.4183 20 12C19.9999 8.76238 18.076 5.97472 15.3096 4.71582C15.1243 4.63141 15 4.44971 15 4.24609V3.1416Z" fill="oklch(0.3523 0 0 / 1)" class="wd-icon-fill"></path>
<path d="M12.5 1C12.7761 1 13 1.22386 13 1.5V11.5C13 11.7761 12.7761 12 12.5 12H11.5C11.2239 12 11 11.7761 11 11.5V1.5C11 1.22386 11.2239 1 11.5 1H12.5Z" fill="oklch(0.3523 0 0 / 1)" class="wd-icon-fill"></path>
</g>
</svg>