<svg width="24" height="24" viewBox="0 0 24 24" xmlns="http://www.w3.org/2000/svg" class="wd-icon wd-icon-clock-minus" role="presentation">
<path d="M23 18.5C23 18.7761 22.7761 19 22.5 19H15.5C15.2239 19 15 18.7761 15 18.5V17.5C15 17.2239 15.2239 17 15.5 17H22.5C22.7761 17 23 17.2239 23 17.5V18.5Z" fill="oklch(0.3523 0 0 / 1)" class="wd-icon-accent"></path>
<g>
<path d="M9.85476 1.2102C11.9881 0.786048 14.2007 1.00389 16.2102 1.83617C18.2199 2.66867 19.9382 4.07937 21.1468 5.88793C22.2626 7.55793 22.8976 9.50009 22.9886 11.5002C23.0008 11.7758 22.7761 11.9991 22.5003 11.9993H21.5003C21.2242 11.9993 21.0011 11.7758 20.9856 11.5002C20.8964 9.89588 20.3797 8.34031 19.4837 6.99926C18.4949 5.51962 17.0887 4.36594 15.4446 3.68481C13.8003 3.00382 11.99 2.82499 10.2444 3.17211C8.49888 3.51938 6.89456 4.37661 5.63601 5.635C4.37753 6.89349 3.52049 8.49787 3.17312 10.2434C2.8259 11.989 3.00486 13.7992 3.68582 15.4436C4.36696 17.0878 5.52053 18.4938 7.00027 19.4827C8.34132 20.3787 9.89594 20.8963 11.5003 20.9856C11.7758 21.001 12.0001 21.2233 12.0003 21.4993V22.4993C12.0003 22.7753 11.776 23.0009 11.5003 22.9885C9.50014 22.8975 7.55893 22.2616 5.88894 21.1457C4.08028 19.9371 2.6697 18.2189 1.83719 16.2092C1.00492 14.1996 0.786967 11.9871 1.21121 9.85375C1.63574 7.72025 2.68375 5.75914 4.22195 4.22094C5.76021 2.68284 7.72126 1.63464 9.85476 1.2102Z" fill="oklch(0.3523 0 0 / 1)" class="wd-icon-fill"></path>
<path d="M12.5003 5.00024C12.7763 5.00033 13.0003 5.22415 13.0003 5.50024V11.0002H16.5003C16.7763 11.0003 17.0003 11.2242 17.0003 11.5002V12.5002C17.0002 12.7762 16.7763 13.0001 16.5003 13.0002H12.0003C11.448 13.0002 11.0004 12.5524 11.0003 12.0002V5.50024C11.0003 5.22409 11.2241 5.00024 11.5003 5.00024H12.5003Z" fill="oklch(0.3523 0 0 / 1)" class="wd-icon-fill"></path>
</g>
</svg>