<svg width="24" height="24" viewBox="0 0 24 24" xmlns="http://www.w3.org/2000/svg" class="wd-icon wd-icon-remove-indent" role="presentation">
<g>
<path d="M20 17C20.5523 17 21 17.4477 21 18C21 18.5523 20.5523 19 20 19H4C3.44772 19 3 18.5523 3 18C3 17.4477 3.44772 17 4 17H20Z" fill="oklch(0.3523 0 0 / 1)" class="wd-icon-fill"></path>
<path d="M7.21289 9.05078C7.54419 8.81887 7.99976 9.05564 8 9.45996V11H11C11.5523 11 12 11.4477 12 12C12 12.5523 11.5523 13 11 13H8V14.54C7.99969 14.9443 7.54417 15.1811 7.21289 14.9492L3.58496 12.4092C3.30069 12.2101 3.30072 11.7899 3.58496 11.5908L7.21289 9.05078Z" fill="oklch(0.3523 0 0 / 1)" class="wd-icon-fill"></path>
<path d="M20 11C20.5523 11 21 11.4477 21 12C21 12.5523 20.5523 13 20 13H15C14.4477 13 14 12.5523 14 12C14 11.4477 14.4477 11 15 11H20Z" fill="oklch(0.3523 0 0 / 1)" class="wd-icon-fill"></path>
<path d="M20 5C20.5523 5 21 5.44772 21 6C21 6.55228 20.5523 7 20 7H4C3.44772 7 3 6.55228 3 6C3 5.44772 3.44772 5 4 5H20Z" fill="oklch(0.3523 0 0 / 1)" class="wd-icon-fill"></path>
</g>
</svg>