<svg width="24" height="24" viewBox="0 0 24 24" xmlns="http://www.w3.org/2000/svg" class="wd-icon wd-icon-pin-strikethrough" role="presentation">
<g>
<path d="M6.10156 10.9258C6.2943 10.7853 6.55977 10.8119 6.72852 10.9805L7.43359 11.6865C7.66349 11.9164 7.616 12.3002 7.35156 12.4893C7.23185 12.5748 7.11466 12.664 7 12.7559V14H9.54102C9.67358 14 9.80079 14.0527 9.89453 14.1465L12.8535 17.1055C12.9473 17.1992 13 17.3264 13 17.459V19.9502C13 19.9831 12.9967 20.0165 12.9902 20.0488L12.4902 22.5488C12.3829 23.0844 11.6171 23.0844 11.5098 22.5488L11.0098 20.0488C11.0033 20.0165 11 19.9831 11 19.9502V16H6C5.44772 16 5 15.5523 5 15V12.292L5.00586 12.1865C5.03186 11.9414 5.14748 11.713 5.33301 11.5469C5.57839 11.3272 5.83501 11.1201 6.10156 10.9258Z" fill="oklch(0.3523 0 0 / 1)" class="wd-icon-fill"></path>
<path d="M16 1C16.5522 1.00013 17 1.4478 17 2V4.47266C17 4.75702 16.8788 5.02808 16.667 5.21777C16.2918 5.55355 15.879 5.84651 15.4385 6.09473L16.2051 9.92773C17.1065 10.3461 17.936 10.8926 18.667 11.5469C18.8788 11.7366 19 12.0076 19 12.292V15C19 15.5522 18.5522 15.9999 18 16H15.9971L13.9961 14H17V12.7559C16.3863 12.2638 15.6987 11.8598 14.957 11.5645C14.6428 11.4392 14.4131 11.1637 14.3467 10.832L13.3271 5.73438C13.2337 5.26711 13.4831 4.7987 13.9229 4.61523C14.3094 4.45393 14.6707 4.24576 15 3.99902V3H9V3.99707C9.23397 4.17251 9.48299 4.33027 9.74707 4.46387C10.1318 4.65859 10.3491 5.07843 10.2852 5.50488L9.66016 9.66602L7.90039 7.90625L8.20508 5.87793C7.89805 5.67981 7.6049 5.46108 7.33301 5.21777C7.12109 5.02807 7 4.75708 7 4.47266V2L7.00488 1.89746C7.05623 1.39334 7.48233 1 8 1H16Z" fill="oklch(0.3523 0 0 / 1)" class="wd-icon-fill"></path>
</g>
<path d="M2.83392 2.14644C3.02918 1.95119 3.34569 1.95119 3.54095 2.14644L21.8349 20.4394C22.0299 20.6347 22.03 20.9513 21.8349 21.1464L21.1269 21.8535C20.9316 22.0486 20.6151 22.0487 20.4199 21.8535L2.12689 3.5605C1.93164 3.36526 1.93168 3.04874 2.12689 2.85347L2.83392 2.14644Z" fill="oklch(0.3523 0 0 / 1)" class="wd-icon-accent"></path>
</svg>