<svg width="24" height="24" viewBox="0 0 24 24" xmlns="http://www.w3.org/2000/svg" class="wd-icon wd-icon-join-left" role="presentation">
<g>
<path d="M7.5 5C8.51678 5 9.4782 5.23484 10.335 5.65137C8.89124 7.17268 8 9.23277 8 11.5C8 13.7671 8.89213 15.8259 10.335 17.3467C9.47811 17.7636 8.51713 18 7.5 18C3.9103 17.9998 1 15.0897 1 11.5C1 7.91026 3.9103 5.00017 7.5 5Z" fill="oklch(0.3523 0 0 / 1)" class="wd-icon-fill"></path>
<path d="M16.5 5C20.0899 5 23 7.91015 23 11.5C23 15.0899 20.0899 18 16.5 18C15.4826 18 14.5211 17.7639 13.6641 17.3467C14.134 16.8514 14.5455 16.2993 14.8867 15.7012C15.3874 15.894 15.9312 16 16.5 16C18.9853 16 21 13.9853 21 11.5C21 9.01472 18.9853 7 16.5 7C15.9314 7.00004 15.3874 7.10523 14.8867 7.29785C14.5454 6.69951 14.1343 6.14682 13.6641 5.65137C14.521 5.23461 15.483 5.00005 16.5 5Z" fill="oklch(0.3523 0 0 / 1)" class="wd-icon-fill"></path>
<path d="M12 6.81152C12.5144 7.30542 12.9459 7.88405 13.2764 8.52344C13.737 9.41561 14 10.4267 14 11.5C14 12.5704 13.7376 13.5784 13.2793 14.4688C12.9483 15.1107 12.5162 15.6918 12 16.1875C10.7682 15.0047 10 13.3426 10 11.5C10 9.65717 10.7679 7.99439 12 6.81152Z" fill="oklch(0.3523 0 0 / 1)" class="wd-icon-fill"></path>
</g>
</svg>