<svg width="24" height="24" viewBox="0 0 24 24" xmlns="http://www.w3.org/2000/svg" class="wd-icon wd-icon-export" role="presentation">
<g>
<path d="M8.5 8C8.77614 8 9 8.22386 9 8.5V9.5C8.99997 9.77612 8.77613 10 8.5 10H6V20H18V10H15.5C15.2239 10 15 9.77612 15 9.5V8.5C15 8.22386 15.2239 8 15.5 8H18.5L18.6533 8.00781C19.4097 8.08461 20 8.72334 20 9.5V20.5C20 21.3284 19.3284 22 18.5 22H5.5C4.67159 22 4.00003 21.3284 4 20.5V9.5C4 8.67157 4.67157 8 5.5 8H8.5Z" fill="oklch(0.3523 0 0 / 1)" class="wd-icon-fill"></path>
<path d="M12 0.999023C12.2244 0.99909 12.4498 1.07431 12.6338 1.22461L16.7461 4.59082C16.9595 4.76562 16.9909 5.08127 16.8164 5.29492L16.5 5.68066L16.1836 6.06836C16.0087 6.28194 15.6932 6.31339 15.4795 6.13867L13 4.11035V13.5C12.9999 13.776 12.776 13.9999 12.5 14H11.5C11.224 13.9999 11.0001 13.776 11 13.5V4.1084L8.52051 6.13867C8.30672 6.31331 7.99115 6.28113 7.81641 6.06738L7.50098 5.68066L7.18457 5.29395C7.00998 5.08029 7.0414 4.76565 7.25488 4.59082L11.3672 1.22461C11.505 1.11222 11.6659 1.0419 11.832 1.01367C11.8874 1.00427 11.944 0.99907 12 0.999023Z" fill="oklch(0.3523 0 0 / 1)" class="wd-icon-fill"></path>
</g>
</svg>