<svg width="24" height="24" viewBox="0 0 24 24" xmlns="http://www.w3.org/2000/svg" class="wd-icon wd-icon-versions" role="presentation">
<path d="M17.7998 13C18.3764 13 18.7489 13.0013 19.0322 13.0244C19.3038 13.0466 19.4047 13.0842 19.4541 13.1094C19.6421 13.2052 19.7948 13.3579 19.8906 13.5459C19.9158 13.5953 19.9534 13.6962 19.9756 13.9678C19.9987 14.2511 20 14.6236 20 15.2002V15.7998C20 16.3764 19.9987 16.7489 19.9756 17.0322C19.9534 17.3038 19.9158 17.4047 19.8906 17.4541C19.7948 17.6421 19.6421 17.7948 19.4541 17.8906C19.4047 17.9158 19.3038 17.9534 19.0322 17.9756C18.7489 17.9987 18.3764 18 17.7998 18H6.2002C5.62364 18 5.25111 17.9987 4.96777 17.9756C4.69619 17.9534 4.59534 17.9158 4.5459 17.8906C4.35793 17.7948 4.20521 17.6421 4.10938 17.4541C4.08419 17.4047 4.04661 17.3038 4.02441 17.0322C4.00126 16.7489 4 16.3764 4 15.7998V15.2002C4 14.6236 4.00126 14.2511 4.02441 13.9678C4.04661 13.6962 4.08419 13.5953 4.10938 13.5459C4.20521 13.3579 4.35793 13.2052 4.5459 13.1094C4.59534 13.0842 4.69619 13.0466 4.96777 13.0244C5.25111 13.0013 5.62364 13 6.2002 13H17.7998Z" fill="transparent" class="wd-icon-background"></path>
<g>
<path d="M17.7998 11C18.3434 11 18.8116 10.9989 19.1953 11.0303C19.5906 11.0626 19.984 11.1344 20.3623 11.3271C20.9265 11.6147 21.3853 12.0735 21.6729 12.6377C21.8656 13.016 21.9374 13.4094 21.9697 13.8047C22.0011 14.1884 22 14.6566 22 15.2002V15.7998C22 16.3434 22.0011 16.8116 21.9697 17.1953C21.9374 17.5906 21.8656 17.984 21.6729 18.3623C21.3853 18.9265 20.9265 19.3853 20.3623 19.6729C19.984 19.8656 19.5906 19.9374 19.1953 19.9697C18.8116 20.0011 18.3434 20 17.7998 20H6.2002C5.65665 20 5.18836 20.0011 4.80469 19.9697C4.40944 19.9374 4.016 19.8656 3.6377 19.6729C3.07348 19.3853 2.61473 18.9265 2.32715 18.3623C2.1344 17.984 2.06259 17.5906 2.03028 17.1953C1.99893 16.8116 2 16.3434 2 15.7998V15.2002C2 14.6566 1.99893 14.1884 2.03028 13.8047C2.06259 13.4094 2.1344 13.016 2.32715 12.6377C2.61473 12.0735 3.07348 11.6147 3.6377 11.3271C4.016 11.1344 4.40944 11.0626 4.80469 11.0303C5.18836 10.9989 5.65665 11 6.2002 11H17.7998ZM6.2002 13C5.62365 13 5.25111 13.0013 4.96778 13.0244C4.69619 13.0466 4.59534 13.0842 4.5459 13.1094C4.35793 13.2052 4.20522 13.3579 4.10938 13.5459C4.08419 13.5953 4.04662 13.6962 4.02442 13.9678C4.00127 14.2511 4 14.6236 4 15.2002V15.7998C4 16.3764 4.00127 16.7489 4.02442 17.0322C4.04662 17.3038 4.08419 17.4047 4.10938 17.4541C4.20522 17.6421 4.35793 17.7948 4.5459 17.8906C4.59534 17.9158 4.69619 17.9534 4.96778 17.9756C5.25111 17.9987 5.62365 18 6.2002 18H17.7998C18.3764 18 18.7489 17.9987 19.0322 17.9756C19.3038 17.9534 19.4047 17.9158 19.4541 17.8906C19.6421 17.7948 19.7948 17.6421 19.8906 17.4541C19.9158 17.4047 19.9534 17.3038 19.9756 17.0322C19.9987 16.7489 20 16.3764 20 15.7998V15.2002C20 14.6236 19.9987 14.2511 19.9756 13.9678C19.9534 13.6962 19.9158 13.5953 19.8906 13.5459C19.7948 13.3579 19.6421 13.2052 19.4541 13.1094C19.4047 13.0842 19.3038 13.0466 19.0322 13.0244C18.7489 13.0013 18.3764 13 17.7998 13H6.2002Z" fill="oklch(0.3523 0 0 / 1)" class="wd-icon-fill"></path>
<path d="M18 7.25C18.4142 7.25 18.75 7.58579 18.75 8C18.75 8.41421 18.4142 8.75 18 8.75H6C5.58579 8.75 5.25 8.41421 5.25 8C5.25 7.58579 5.58579 7.25 6 7.25H18Z" fill="oklch(0.3523 0 0 / 1)" class="wd-icon-fill"></path>
<path d="M16 3.25C16.4142 3.25 16.75 3.58579 16.75 4C16.75 4.41421 16.4142 4.75 16 4.75H8C7.58579 4.75 7.25 4.41421 7.25 4C7.25 3.58579 7.58579 3.25 8 3.25H16Z" fill="oklch(0.3523 0 0 / 1)" class="wd-icon-fill"></path>
</g>
</svg>