<svg width="24" height="24" viewBox="0 0 24 24" xmlns="http://www.w3.org/2000/svg" class="wd-icon wd-icon-minus-square-fill" role="presentation">
<path d="M15.2002 3C16.0237 3 16.7016 2.99898 17.252 3.04395C17.814 3.08988 18.3311 3.18828 18.8164 3.43555C19.5689 3.81902 20.181 4.43109 20.5645 5.1836C20.8117 5.6689 20.9101 6.18599 20.9561 6.74805C21.001 7.29843 21 7.97632 21 8.79981V15.2002C21 16.0237 21.001 16.7016 20.9561 17.252C20.9101 17.814 20.8117 18.3311 20.5645 18.8164C20.181 19.5689 19.5689 20.181 18.8164 20.5645C18.3311 20.8117 17.814 20.9101 17.252 20.9561C16.7016 21.001 16.0237 21 15.2002 21H8.79981C7.97632 21 7.29843 21.001 6.74805 20.9561C6.186 20.9101 5.6689 20.8117 5.1836 20.5645C4.43109 20.181 3.81902 19.5689 3.43555 18.8164C3.18828 18.3311 3.08988 17.814 3.04395 17.252C2.99898 16.7016 3 16.0237 3 15.2002V8.79981C3 7.97632 2.99898 7.29843 3.04395 6.74805C3.08988 6.18599 3.18827 5.6689 3.43555 5.1836C3.81902 4.43109 4.43109 3.81902 5.1836 3.43555C5.6689 3.18827 6.186 3.08988 6.74805 3.04395C7.29843 2.99898 7.97632 3 8.79981 3H15.2002ZM8.5 11C7.94772 11 7.50001 11.4477 7.5 12C7.5 12.5523 7.94772 13 8.5 13H15.5C16.0523 13 16.5 12.5523 16.5 12C16.5 11.4477 16.0523 11 15.5 11H8.5Z" fill="oklch(0.3523 0 0 / 1)" class="wd-icon-fill"></path>
</svg>