<svg width="24" height="24" viewBox="0 0 24 24" xmlns="http://www.w3.org/2000/svg" class="wd-icon wd-icon-calendar-day-29" role="presentation">
<g>
<path d="M14.8897 10.4092C15.4011 10.4092 15.8556 10.5375 16.2393 10.8047C16.628 11.0711 16.9164 11.4559 17.1113 11.9434C17.3061 12.4244 17.3994 12.9915 17.3994 13.6377C17.3994 14.3656 17.3101 15.0225 17.127 15.6035L17.126 15.6025C16.9475 16.188 16.6665 16.6656 16.2725 17.0195L16.2705 17.0205C15.8654 17.3775 15.3631 17.5507 14.7822 17.5508C14.3779 17.5508 14.0123 17.4725 13.6943 17.3066L13.6904 17.3047C13.3817 17.1369 13.129 16.9122 12.9375 16.6318L12.9355 16.6289C12.8682 16.5267 12.809 16.4202 12.7598 16.3105C12.6599 16.0879 12.7078 15.8596 12.8369 15.6963C12.9622 15.5379 13.1621 15.4405 13.3789 15.4404C13.7406 15.4406 13.9906 15.709 14.1201 15.9395C14.1577 16.0061 14.2054 16.0668 14.2627 16.1221C14.3728 16.2281 14.5355 16.2949 14.7822 16.2949C15.1 16.2948 15.3614 16.1468 15.5762 15.7939L15.5772 15.793C15.7197 15.5607 15.8245 15.2454 15.8877 14.8398C15.8452 14.8728 15.8017 14.905 15.7559 14.9346L15.7568 14.9355C15.4625 15.1294 15.1115 15.2197 14.7188 15.2197C14.2807 15.2197 13.8845 15.113 13.54 14.8926L13.5381 14.8916C13.2059 14.6746 12.9487 14.3817 12.7676 14.0195C12.587 13.6583 12.4981 13.2625 12.498 12.8369C12.4981 12.4151 12.5908 12.0187 12.7773 11.6523C12.9665 11.275 13.2447 10.9737 13.6074 10.752C13.9766 10.5203 14.4075 10.4092 14.8897 10.4092ZM14.8994 11.6738C14.6986 11.6738 14.5322 11.7251 14.3916 11.8203L14.3897 11.8213C14.2523 11.9129 14.1392 12.0423 14.0547 12.2197L14.0557 12.2207C13.9766 12.3937 13.9336 12.5949 13.9336 12.8281C13.9336 13.194 14.0279 13.4719 14.1973 13.6816C14.367 13.8788 14.5927 13.9824 14.8994 13.9824C15.0952 13.9823 15.2644 13.9333 15.4141 13.8398L15.417 13.8379C15.5734 13.7431 15.6913 13.6152 15.7725 13.4482L15.7734 13.4453L15.832 13.3076C15.8827 13.1643 15.9092 13.005 15.9092 12.8281C15.9092 12.6064 15.8628 12.4074 15.7734 12.2285L15.7705 12.2236C15.6879 12.0489 15.5726 11.9183 15.4238 11.8252L15.4189 11.8223C15.2708 11.725 15.1 11.6739 14.8994 11.6738Z" fill="oklch(0.3523 0 0 / 1)" class="wd-icon-fill"></path>
<path d="M9.08008 10.3721C9.54186 10.3721 9.95231 10.4619 10.3018 10.6523C10.6519 10.8342 10.9236 11.0888 11.1055 11.416L11.1709 11.5381C11.3121 11.8267 11.3818 12.1405 11.3818 12.4756C11.3818 12.8363 11.3051 13.1845 11.1523 13.5166C11.0043 13.8384 10.8089 14.1427 10.5674 14.4287L10.5664 14.4277C10.337 14.7005 10.0487 15.0006 9.70313 15.3281L9.45215 15.5723L9.4502 15.5732L8.87891 16.1143H10.8174C11.169 16.1144 11.4541 16.3993 11.4541 16.751C11.4541 17.1027 11.169 17.3875 10.8174 17.3877H7.4668C7.04696 17.3877 6.7062 17.0477 6.70606 16.6279C6.70606 16.4199 6.7918 16.2207 6.94238 16.0772L8.50293 14.5898L8.50391 14.5889L8.81836 14.292C9.05705 14.0471 9.25605 13.825 9.41602 13.625L9.41895 13.6211C9.58126 13.4251 9.70699 13.2296 9.79883 13.0352C9.88654 12.8435 9.92773 12.6573 9.92774 12.4756C9.92764 12.1941 9.84484 12.0016 9.70117 11.8662L9.69824 11.8633C9.54659 11.7161 9.35023 11.6367 9.08887 11.6367C8.88768 11.6368 8.72367 11.6822 8.58789 11.7637C8.44632 11.8486 8.33581 11.9628 8.25488 12.1104C8.22972 12.1563 8.20791 12.2038 8.18946 12.2529C8.07988 12.5446 7.80952 12.8613 7.40821 12.8613C7.01806 12.8611 6.61537 12.5173 6.74317 12.0537C6.79749 11.8568 6.87811 11.6693 6.98438 11.4922L6.98535 11.4912C7.19467 11.1469 7.48229 10.8741 7.84278 10.6738C8.20862 10.4706 8.62336 10.3721 9.08008 10.3721Z" fill="oklch(0.3523 0 0 / 1)" class="wd-icon-fill"></path>
<path d="M16.2012 2C17.0247 2 17.7026 1.99898 18.2529 2.04395C18.815 2.08988 19.3321 2.18828 19.8174 2.43555C20.5699 2.81902 21.182 3.43109 21.5654 4.1836C21.8127 4.6689 21.9111 5.18599 21.957 5.74805C22.002 6.29843 22.001 6.97632 22.001 7.79981V16.2002C22.001 17.0237 22.002 17.7016 21.957 18.252C21.9111 18.814 21.8127 19.3311 21.5654 19.8164C21.182 20.5689 20.5699 21.181 19.8174 21.5645C19.3321 21.8117 18.815 21.9101 18.2529 21.9561C17.7026 22.001 17.0247 22 16.2012 22H7.80078C6.9773 22 6.2994 22.001 5.74903 21.9561C5.18697 21.9101 4.66988 21.8117 4.18457 21.5645C3.43207 21.181 2.81999 20.5689 2.43653 19.8164C2.18925 19.3311 2.09085 18.814 2.04492 18.252C1.99996 17.7016 2.00098 17.0237 2.00098 16.2002V7.79981C2.00098 6.97632 1.99996 6.29843 2.04492 5.74805C2.09085 5.18599 2.18925 4.6689 2.43653 4.1836C2.81999 3.43109 3.43207 2.81902 4.18457 2.43555C4.66988 2.18827 5.18697 2.08988 5.74903 2.04395C6.2994 1.99898 6.9773 2 7.80078 2H16.2012ZM4.00098 16.2002C4.00098 17.0566 4.00133 17.6388 4.03809 18.0889C4.07391 18.5273 4.13906 18.7518 4.21875 18.9082C4.41049 19.2845 4.71652 19.5905 5.09278 19.7822C5.24917 19.8619 5.4737 19.9271 5.91211 19.9629C6.36215 19.9997 6.9444 20 7.80078 20H16.2012C17.0576 20 17.6398 19.9997 18.0898 19.9629C18.5283 19.9271 18.7528 19.8619 18.9092 19.7822C19.2854 19.5905 19.5915 19.2845 19.7832 18.9082C19.8629 18.7518 19.928 18.5273 19.9639 18.0889C20.0006 17.6388 20.001 17.0566 20.001 16.2002V8H4.00098V16.2002Z" fill="oklch(0.3523 0 0 / 1)" class="wd-icon-fill"></path>
</g>
</svg>