<svg width="24" height="24" viewBox="0 0 24 24" xmlns="http://www.w3.org/2000/svg" class="wd-icon wd-icon-remove-row-after" role="presentation">
<g>
<path d="M19.0005 15C19.401 15 19.7981 14.9912 20.148 15.085C21.0103 15.3163 21.6843 15.9902 21.9155 16.8525C22.0093 17.2025 22.0005 17.5994 22.0005 18C22.0005 18.4006 22.0093 18.7975 21.9155 19.1475C21.6843 20.0098 21.0103 20.6837 20.148 20.915C19.7981 21.0088 19.401 21 19.0005 21H13.0005C12.6 21 12.2029 21.0087 11.853 20.915C10.9906 20.6838 10.3167 20.0099 10.0855 19.1475C9.99168 18.7975 10.0005 18.4006 10.0005 18C10.0005 17.5994 9.99168 17.2025 10.0855 16.8525C10.3167 15.9901 10.9906 15.3162 11.853 15.085C12.2029 14.9913 12.6 15 13.0005 15H19.0005ZM12.4995 17.0049C12.4056 17.0092 12.3741 17.0158 12.3706 17.0166C12.1984 17.0629 12.0634 17.1979 12.0171 17.3701C12.0171 17.3701 12.0099 17.4006 12.0054 17.499C12.0003 17.611 12.0005 17.7588 12.0005 18C12.0005 18.2412 12.0003 18.389 12.0054 18.501C12.0099 18.5994 12.0171 18.6299 12.0171 18.6299C12.0634 18.8021 12.1984 18.9371 12.3706 18.9834C12.374 18.9842 12.4055 18.9908 12.4995 18.9951C12.6115 19.0002 12.7595 19 13.0005 19H19.0005C19.2415 19 19.3895 19.0002 19.5015 18.9951C19.5997 18.9906 19.6304 18.9834 19.6304 18.9834C19.8025 18.937 19.9376 18.8021 19.9839 18.6299C19.9844 18.6277 19.9912 18.5973 19.9956 18.501C20.0007 18.389 20.0005 18.2412 20.0005 18C20.0005 17.7588 20.0007 17.611 19.9956 17.499C19.9912 17.4019 19.9839 17.3701 19.9839 17.3701C19.9376 17.1979 19.8025 17.063 19.6304 17.0166C19.6304 17.0166 19.5997 17.0094 19.5015 17.0049C19.3895 16.9998 19.2415 17 19.0005 17H13.0005C12.7595 17 12.6115 16.9998 12.4995 17.0049Z" fill="oklch(0.3523 0 0 / 1)" class="wd-icon-fill"></path>
<path d="M10.8003 3C11.3437 3 11.8122 2.99894 12.1958 3.03028C12.591 3.0626 12.9846 3.13445 13.3628 3.32715C13.9269 3.61474 14.3858 4.07356 14.6733 4.6377C14.8661 5.01596 14.9379 5.40947 14.9702 5.80469C15.0016 6.18836 15.0005 6.65666 15.0005 7.2002V8.79981C15.0005 9.34334 15.0016 9.81166 14.9702 10.1953C14.9379 10.5905 14.866 10.9841 14.6733 11.3623C14.3858 11.9264 13.9269 12.3853 13.3628 12.6729C12.9846 12.8656 12.591 12.9374 12.1958 12.9697C11.8122 13.0011 11.3437 13 10.8003 13H7.20069C6.65729 13 6.18879 13.0011 5.80518 12.9697C5.41001 12.9374 5.01641 12.8655 4.63819 12.6729C4.074 12.3853 3.61522 11.9265 3.32764 11.3623C3.13489 10.984 3.06308 10.5906 3.03077 10.1953C2.99942 9.81165 3.00049 9.34336 3.00049 8.79981V7.2002C3.00049 6.65666 2.99942 6.18836 3.03077 5.80469C3.06308 5.40945 3.1349 5.01598 3.32764 4.6377C3.61522 4.07355 4.07402 3.6147 4.63819 3.32715C5.0164 3.1345 5.41002 3.06258 5.80518 3.03028C6.18879 2.99896 6.65729 3 7.20069 3H10.8003ZM5.00049 8.79981C5.00049 9.37636 5.00176 9.74889 5.02491 10.0322C5.0471 10.3038 5.08468 10.4047 5.10987 10.4541C5.20571 10.642 5.35846 10.7948 5.54639 10.8906C5.59592 10.9158 5.69713 10.9534 5.96827 10.9756C6.25156 10.9987 6.62435 11 7.20069 11H10.8003C11.3767 11 11.7494 10.9987 12.0327 10.9756C12.3041 10.9534 12.4052 10.9158 12.4546 10.8906C12.6424 10.7948 12.7953 10.642 12.8911 10.4541C12.9163 10.4046 12.9539 10.3035 12.9761 10.0322C12.9992 9.7489 13.0005 9.37633 13.0005 8.79981V8.75H5.00049V8.79981ZM7.20069 5C6.62435 5 6.25156 5.00129 5.96827 5.02442C5.69717 5.04658 5.59593 5.08419 5.54639 5.10938C5.35847 5.20519 5.20571 5.358 5.10987 5.5459C5.08468 5.59534 5.0471 5.69623 5.02491 5.96778C5.00176 6.25111 5.00049 6.62366 5.00049 7.2002V7.25H13.0005V7.2002C13.0005 6.62366 12.9992 6.25111 12.9761 5.96778C12.9539 5.69639 12.9163 5.59538 12.8911 5.5459C12.7953 5.35801 12.6425 5.20523 12.4546 5.10938C12.4052 5.0842 12.3041 5.04662 12.0327 5.02442C11.7494 5.00127 11.3767 5 10.8003 5H7.20069Z" fill="oklch(0.3523 0 0 / 1)" class="wd-icon-fill"></path>
</g>
<path d="M6.47888 15.4667C6.77177 15.1738 7.24653 15.1738 7.53943 15.4667C7.83189 15.7597 7.83218 16.2345 7.53943 16.5273L6.0697 17.997L7.53943 19.4667C7.83195 19.7597 7.8322 20.2345 7.53943 20.5273C7.24665 20.8199 6.77176 20.8198 6.47888 20.5273L5.00915 19.0576L3.53943 20.5273C3.24666 20.8199 2.77175 20.8197 2.47888 20.5273C2.18605 20.2345 2.18617 19.7596 2.47888 19.4667L3.94861 17.997L2.47888 16.5273C2.18603 16.2344 2.18612 15.7596 2.47888 15.4667C2.77177 15.1738 3.24653 15.1738 3.53943 15.4667L5.00915 16.9365L6.47888 15.4667Z" fill="oklch(0.3523 0 0 / 1)" class="wd-icon-accent"></path>
</svg>