<svg width="24" height="24" viewBox="0 0 24 24" xmlns="http://www.w3.org/2000/svg" class="wd-icon wd-icon-slider" role="presentation">
<g>
<path d="M14 13C15.3059 13 16.4141 13.8353 16.8262 15H21C21.5523 15 22 15.4477 22 16C22 16.5523 21.5523 17 21 17H16.8262C16.4141 18.1647 15.3059 19 14 19C12.6941 19 11.5859 18.1647 11.1738 17H3C2.44772 17 2 16.5523 2 16C2 15.4477 2.44772 15 3 15H11.1738C11.5859 13.8353 12.6941 13 14 13ZM14 15C13.4477 15 13 15.4477 13 16C13 16.5523 13.4477 17 14 17C14.5523 17 15 16.5523 15 16C15 15.4477 14.5523 15 14 15Z" fill="oklch(0.3523 0 0 / 1)" class="wd-icon-fill"></path>
<path d="M10 5C11.3059 5 12.4141 5.83532 12.8262 7H21C21.5523 7 22 7.44772 22 8C22 8.55228 21.5523 9 21 9H12.8262C12.4141 10.1647 11.3059 11 10 11C8.69415 11 7.58594 10.1647 7.17383 9H3C2.44772 9 2 8.55228 2 8C2 7.44772 2.44772 7 3 7H7.17383C7.58594 5.83532 8.69415 5 10 5ZM10 7C9.44772 7 9 7.44772 9 8C9 8.55228 9.44772 9 10 9C10.5523 9 11 8.55228 11 8C11 7.44772 10.5523 7 10 7Z" fill="oklch(0.3523 0 0 / 1)" class="wd-icon-fill"></path>
</g>
</svg>