<svg width="24" height="24" viewBox="0 0 24 24" xmlns="http://www.w3.org/2000/svg" class="wd-icon wd-icon-document-csv" role="presentation">
<path d="M14.1982 3C15.0546 3 15.6369 3.00035 16.0869 3.03711C16.5252 3.07292 16.7499 3.13811 16.9062 3.21777C17.2824 3.40948 17.5885 3.71566 17.7803 4.0918C17.8599 4.24816 17.9251 4.47306 17.9609 4.91113C17.9977 5.36109 17.998 5.9437 17.998 6.7998V17.2002C17.998 18.0563 17.9977 18.6389 17.9609 19.0889C17.9251 19.5269 17.8599 19.7518 17.7803 19.9082C17.5885 20.2843 17.2824 20.5905 16.9062 20.7822C16.7499 20.8619 16.5252 20.9271 16.0869 20.9629C15.6369 20.9996 15.0546 21 14.1982 21H9.79785C8.94147 21 8.35921 20.9996 7.90918 20.9629C7.47087 20.9271 7.24624 20.8619 7.08984 20.7822C6.7137 20.5905 6.40754 20.2843 6.21582 19.9082C6.13619 19.7518 6.07097 19.5269 6.03516 19.0889C5.99842 18.6389 5.99805 18.0563 5.99805 17.2002V6.7998C5.99805 5.9437 5.99842 5.36109 6.03516 4.91113C6.07097 4.47306 6.13619 4.24816 6.21582 4.0918C6.40754 3.71567 6.7137 3.40948 7.08984 3.21777C7.24624 3.13811 7.47087 3.07292 7.90918 3.03711C8.35921 3.00035 8.94148 3 9.79785 3H14.1982ZM11.6006 8.00195C11.0406 8.00195 10.7598 8.00137 10.5459 8.11035C10.3579 8.20622 10.2052 8.35981 10.1094 8.54785C10.0005 8.7617 10.0001 9.04185 10 9.60156V10.3994C9.99995 10.9595 10.0004 11.2402 10.1094 11.4541C10.2052 11.6421 10.358 11.7948 10.5459 11.8906C10.7598 11.9996 11.0405 12 11.6006 12H12.2266L11.0596 14.8418C10.8671 15.3108 11.2118 15.825 11.7188 15.8252C11.9931 15.8252 12.2438 15.6674 12.3623 15.4199L12.8857 14.3262C13.2132 13.6425 13.3772 13.3001 13.5068 12.9482C13.7461 12.2988 13.9 11.6207 13.9648 10.9316C13.9999 10.5583 13.9999 10.1789 14 9.4209C14 9.03047 14.0001 8.83505 13.9463 8.67773C13.8462 8.38531 13.6166 8.1558 13.3242 8.05566C13.1669 8.00186 12.9714 8.00195 12.5811 8.00195H11.6006Z" fill="transparent" class="wd-icon-background"></path>
<path d="M14.1982 1C15.0217 1 15.6996 0.998981 16.25 1.04395C16.812 1.08987 17.3292 1.18831 17.8145 1.43555C18.5669 1.81899 19.179 2.43121 19.5625 3.1836C19.8097 3.66878 19.9082 4.18615 19.9541 4.74805C19.999 5.29833 19.998 5.97654 19.998 6.79981V17.2002C19.998 18.0235 19.999 18.7017 19.9541 19.252C19.9082 19.8138 19.8097 20.3312 19.5625 20.8164C19.179 21.5688 18.5669 22.181 17.8145 22.5645C17.3292 22.8117 16.812 22.9101 16.25 22.9561C15.6996 23.001 15.0217 23 14.1982 23H9.79785C8.97437 23 8.29647 23.001 7.7461 22.9561C7.18408 22.9101 6.66692 22.8117 6.18164 22.5645C5.42924 22.181 4.81705 21.5688 4.4336 20.8164C4.18643 20.3312 4.08792 19.8138 4.04199 19.252C3.99705 18.7017 3.99805 18.0235 3.99805 17.2002V6.79981C3.99805 5.97654 3.99705 5.29833 4.04199 4.74805C4.08793 4.18616 4.18643 3.66878 4.4336 3.1836C4.81705 2.43121 5.42925 1.81899 6.18164 1.43555C6.66691 1.18832 7.18409 1.08987 7.7461 1.04395C8.29647 0.998981 8.97438 1 9.79785 1H14.1982ZM9.79785 3C8.94149 3 8.35921 3.00035 7.90918 3.03711C7.47088 3.07292 7.24624 3.13811 7.08985 3.21778C6.71371 3.40948 6.40754 3.71567 6.21582 4.0918C6.13619 4.24816 6.07097 4.47306 6.03516 4.91113C5.99842 5.3611 5.99805 5.9437 5.99805 6.79981V17.2002C5.99805 18.0563 5.99842 18.6389 6.03516 19.0889C6.07097 19.527 6.13619 19.7518 6.21582 19.9082C6.40755 20.2843 6.7137 20.5905 7.08985 20.7822C7.24624 20.8619 7.47085 20.9271 7.90918 20.9629C8.35922 20.9997 8.94147 21 9.79785 21H14.1982C15.0546 21 15.6369 20.9996 16.0869 20.9629C16.5252 20.9271 16.7499 20.8619 16.9063 20.7822C17.2824 20.5905 17.5886 20.2843 17.7803 19.9082C17.8599 19.7518 17.9251 19.527 17.9609 19.0889C17.9977 18.6389 17.998 18.0563 17.998 17.2002V6.79981C17.998 5.94369 17.9977 5.3611 17.9609 4.91113C17.9251 4.47304 17.8599 4.24816 17.7803 4.0918C17.5885 3.71566 17.2824 3.40948 16.9063 3.21778C16.7499 3.13811 16.5252 3.07292 16.0869 3.03711C15.6369 3.00035 15.0546 3 14.1982 3H9.79785Z" fill="oklch(0.3523 0 0 / 1)" class="wd-icon-fill"></path>
<path d="M12.5811 8.00195C12.9714 8.00195 13.1669 8.00186 13.3242 8.05566C13.6166 8.1558 13.8462 8.38531 13.9463 8.67773C14.0001 8.83505 14 9.03047 14 9.4209C13.9999 10.1789 13.9999 10.5583 13.9648 10.9316C13.9 11.6207 13.7461 12.2988 13.5068 12.9482C13.3772 13.3001 13.2132 13.6425 12.8857 14.3262L12.3623 15.4199C12.2438 15.6674 11.9931 15.8252 11.7188 15.8252C11.2118 15.825 10.8671 15.3108 11.0596 14.8418L12.2266 12H11.6006C11.0405 12 10.7598 11.9996 10.5459 11.8906C10.358 11.7948 10.2052 11.6421 10.1094 11.4541C10.0004 11.2402 9.99995 10.9595 10 10.3994V9.60156C10.0001 9.04185 10.0005 8.7617 10.1094 8.54785C10.2052 8.35981 10.3579 8.20622 10.5459 8.11035C10.7598 8.00137 11.0406 8.00195 11.6006 8.00195H12.5811Z" fill="oklch(0.3523 0 0 / 1)" class="wd-icon-accent"></path>
</svg>