<svg width="24" height="24" viewBox="0 0 24 24" xmlns="http://www.w3.org/2000/svg" class="wd-icon wd-icon-arrow-up-right-square" role="presentation">
<g>
<path d="M15.0005 8C15.5526 8.00007 16.0004 8.44787 16.0005 9V14C16.0003 14.5521 15.5526 14.9999 15.0005 15C14.4483 15 14.0007 14.5521 14.0005 14V11.4141L9.45752 15.957C9.06707 16.3473 8.43396 16.3473 8.04346 15.957C7.65311 15.5665 7.65312 14.9335 8.04346 14.543L12.5864 10H10.0005C9.44831 10 9.00065 9.55215 9.00049 9C9.00062 8.44783 9.44829 8 10.0005 8H15.0005Z" fill="oklch(0.3523 0 0 / 1)" class="wd-icon-fill"></path>
<path d="M15.2007 3C16.024 3 16.7021 2.99899 17.2524 3.04395C17.8144 3.08989 18.3317 3.18832 18.8169 3.43555C19.5693 3.81902 20.1815 4.43117 20.5649 5.1836C20.8122 5.66886 20.9106 6.18604 20.9565 6.74805C21.0015 7.29842 21.0005 7.97633 21.0005 8.79981V15.2002C21.0005 16.0237 21.0015 16.7016 20.9565 17.252C20.9106 17.814 20.8122 18.3311 20.5649 18.8164C20.1815 19.5688 19.5693 20.181 18.8169 20.5645C18.3317 20.8117 17.8144 20.9101 17.2524 20.9561C16.7021 21.001 16.024 21 15.2007 21H8.80029C7.97695 21 7.29886 21.001 6.74854 20.9561C6.18657 20.9101 5.66932 20.8116 5.18408 20.5645C4.43162 20.181 3.81951 19.5689 3.43604 18.8164C3.18877 18.3311 3.09037 17.814 3.04444 17.252C2.99947 16.7016 3.00049 16.0237 3.00049 15.2002V8.79981C3.00049 7.97632 2.99947 7.29843 3.04444 6.74805C3.09036 6.186 3.18877 5.6689 3.43604 5.1836C3.81951 4.43114 4.43162 3.819 5.18408 3.43555C5.66932 3.18836 6.18657 3.08987 6.74854 3.04395C7.29886 2.999 7.97695 3 8.80029 3H15.2007ZM8.80029 5C7.94409 5 7.36162 5.00037 6.91162 5.03711C6.47343 5.07291 6.24868 5.13814 6.09229 5.21778C5.71607 5.40949 5.41 5.7156 5.21826 6.0918C5.13858 6.2482 5.07342 6.47273 5.0376 6.91113C5.00084 7.36117 5.00049 7.94342 5.00049 8.79981V15.2002C5.00049 16.0566 5.00084 16.6388 5.0376 17.0889C5.07342 17.5273 5.13858 17.7518 5.21826 17.9082C5.41 18.2844 5.71608 18.5905 6.09229 18.7822C6.24868 18.8619 6.47343 18.9271 6.91162 18.9629C7.36162 18.9996 7.94409 19 8.80029 19H15.2007C16.0569 19 16.6394 18.9996 17.0894 18.9629C17.5276 18.9271 17.7523 18.8619 17.9087 18.7822C18.2848 18.5905 18.591 18.2844 18.7827 17.9082C18.8624 17.7518 18.9276 17.5272 18.9634 17.0889C19.0001 16.6388 19.0005 16.0566 19.0005 15.2002V8.79981C19.0005 7.94344 19.0001 7.36117 18.9634 6.91113C18.9276 6.47284 18.8624 6.24819 18.7827 6.0918C18.591 5.71563 18.2848 5.40952 17.9087 5.21778C17.7523 5.13811 17.5276 5.07294 17.0894 5.03711C16.6394 5.00036 16.0569 5 15.2007 5H8.80029Z" fill="oklch(0.3523 0 0 / 1)" class="wd-icon-fill"></path>
</g>
</svg>