<svg width="24" height="24" viewBox="0 0 24 24" xmlns="http://www.w3.org/2000/svg" class="wd-icon wd-icon-assistant-sparkle" role="presentation">
<path d="M21.9873 11.5156C21.7192 16.799 17.3501 21.001 12 21.001C10.8876 21.001 9.81829 20.8146 8.81836 20.4785C7.73276 21.4157 6.40347 21.9233 5.05566 21.998C4.78127 22.0132 4.51213 21.9154 4.3125 21.7266C4.1129 21.5377 4 21.2748 4 21V16.9961C2.82935 15.4366 2.10104 13.5235 2.00977 11.4453L2 11.001C2 5.47829 6.47706 1.00005 12 1C17.523 1 22 5.47827 22 11.001L21.9873 11.5156Z" fill="transparent" class="wd-icon-background"></path>
<path d="M12 0.999512C12.2051 0.999521 12.409 1.00498 12.6113 1.01709C12.8868 1.03358 13.0847 1.28186 13.0547 1.55615L12.9453 2.55127C12.9149 2.82563 12.6673 3.02156 12.3916 3.0083C12.2619 3.00207 12.1313 2.99952 12 2.99951C10.7231 2.99957 9.51557 3.29737 8.44434 3.82959L8.44531 3.83057C7.47457 4.3131 6.61443 4.98803 5.91602 5.80518C4.72096 7.20357 4.00006 9.01693 4 11.0005L4.00781 11.355C4.08504 13.121 4.7354 14.7363 5.77734 16.0249C5.92117 16.2028 5.99994 16.4251 6 16.6538V19.8081C6.63914 19.6071 7.24114 19.2544 7.74805 18.7476C7.77462 18.721 7.79389 18.6986 7.84766 18.6411C8.13164 18.3379 8.57472 18.2419 8.95898 18.3999C9.89643 18.7856 10.9227 19.0004 12 19.0005C13.9835 19.0004 15.7972 18.2796 17.1953 17.0845C17.4462 16.87 17.6818 16.6385 17.9043 16.395C18.1162 16.1633 18.3153 15.92 18.499 15.6646C18.7284 15.3455 18.9332 15.0083 19.1143 14.6567C19.6072 13.7 19.9145 12.6321 19.9844 11.4995C20.0015 11.2241 20.224 11.0005 20.5 11.0005H21.5C21.7762 11.0005 22.0009 11.2247 21.9873 11.5005C21.9176 12.9117 21.5524 14.2448 20.957 15.4429L20.96 15.4448C20.9404 15.4841 20.9184 15.5221 20.8984 15.561C20.8637 15.6286 20.8282 15.6956 20.792 15.7622C20.7525 15.835 20.7122 15.9073 20.6709 15.979C20.6269 16.0555 20.5821 16.1314 20.5361 16.2065C20.4959 16.2723 20.4557 16.3381 20.4141 16.4028C20.3646 16.4797 20.3132 16.555 20.2617 16.6304C20.2236 16.6863 20.1857 16.7423 20.1465 16.7974C20.0898 16.8768 20.0315 16.955 19.9727 17.0327C19.9325 17.0857 19.8927 17.1388 19.8516 17.1909C19.7911 17.2676 19.7277 17.3417 19.665 17.4165C19.6227 17.467 19.5814 17.5182 19.5381 17.5679C19.3256 17.8116 19.103 18.0461 18.8682 18.2681C18.7464 18.3831 18.6215 18.4951 18.4941 18.604C16.8566 20.0037 14.7593 20.8851 12.4619 20.9897L12 21.0005C10.8878 21.0004 9.81811 20.814 8.81836 20.478C7.73289 21.415 6.40326 21.9227 5.05566 21.9976C4.78144 22.0127 4.51204 21.9148 4.3125 21.7261C4.11304 21.5373 4.00004 21.2742 4 20.9995V16.9956C2.82924 15.436 2.10088 13.5223 2.00977 11.4438L2 11.0005C2.00006 8.52278 2.90264 6.25223 4.39551 4.50537C4.91401 3.89874 5.50562 3.35649 6.1543 2.88818C6.18543 2.8657 6.21566 2.84195 6.24707 2.81982C6.30226 2.78094 6.35903 2.74434 6.41504 2.70654C6.49829 2.65036 6.581 2.59327 6.66602 2.53955C6.70008 2.51803 6.73519 2.49817 6.76953 2.47705C6.876 2.41156 6.98273 2.34624 7.0918 2.28467C7.17974 2.23503 7.2698 2.18912 7.35938 2.14209C7.41568 2.11252 7.47139 2.08174 7.52832 2.05322C7.53717 2.04879 7.54582 2.04396 7.55469 2.03955C8.89377 1.37363 10.4032 0.999576 12 0.999512Z" fill="oklch(0.3523 0 0 / 1)" class="wd-icon-fill"></path>
<path d="M18.5 1.00049C18.7761 1.00049 18.9971 1.22548 19.0312 1.49951C19.2565 3.30961 20.6909 4.74395 22.501 4.96924C22.775 5.00334 23 5.22435 23 5.50049C23 5.77663 22.775 5.99764 22.501 6.03174C20.6909 6.25703 19.2565 7.69136 19.0312 9.50146C18.9971 9.77549 18.7761 10.0005 18.5 10.0005C18.2239 10.0005 18.0029 9.77549 17.9688 9.50146C17.7435 7.69136 16.3091 6.25703 14.499 6.03174C14.225 5.99764 14 5.77663 14 5.50049C14 5.22435 14.225 5.00334 14.499 4.96924C16.3091 4.74395 17.7435 3.30961 17.9688 1.49951C18.0029 1.22548 18.2239 1.00049 18.5 1.00049Z" fill="oklch(0.3523 0 0 / 1)" class="wd-icon-accent"></path>
</svg>