<svg width="24" height="24" viewBox="0 0 24 24" xmlns="http://www.w3.org/2000/svg" class="wd-icon wd-icon-donut-chart" role="presentation">
<path d="M12 2C17.5228 2 21.9999 6.47731 22 12C22 17.5228 17.5228 22 12 22C6.47715 22 2 17.5228 2 12C2.00015 6.47731 6.47721 2 12 2ZM11 4.06348C7.05389 4.55568 4.00012 7.92053 4 12C4 16.4183 7.58172 20 12 20C13.4385 20 14.7867 19.6177 15.9531 18.9531L14.2207 16.4785C13.5514 16.811 12.798 17 12 17C9.23858 17 7 14.7614 7 12C7 9.58101 8.71772 7.56285 11 7.09961V4.06348ZM16.4785 9.77637C16.8118 10.4462 17 11.201 17 12C17 13.4237 16.4032 14.7066 15.4482 15.6172L17.1807 18.0918C18.9044 16.6244 20 14.4412 20 12C20 10.5605 19.6177 9.21093 18.9521 8.04395L16.4785 9.77637ZM12 9C10.3431 9 9 10.3431 9 12C9 13.6569 10.3431 15 12 15C13.6569 15 15 13.6569 15 12C15 10.3431 13.6569 9 12 9ZM12.5 7.02441C13.7225 7.14579 14.8146 7.70861 15.6172 8.5498L18.0918 6.81738C16.7254 5.21281 14.7379 4.15463 12.5 4.0166V7.02441Z" fill="oklch(0.3523 0 0 / 1)" class="wd-icon-fill"></path>
<g>
<path d="M18.9521 8.04395C19.6177 9.21093 20 10.5605 20 12C20 14.4412 18.9044 16.6244 17.1807 18.0918L15.4482 15.6172C16.4032 14.7066 17 13.4237 17 12C17 11.201 16.8118 10.4462 16.4785 9.77637L18.9521 8.04395Z" fill="transparent" class="wd-icon-background"></path>
<path d="M12.5 4.0166C14.7379 4.15463 16.7254 5.21281 18.0918 6.81738L15.6172 8.5498C14.8146 7.70861 13.7225 7.14579 12.5 7.02441V4.0166Z" fill="transparent" class="wd-icon-background"></path>
</g>
</svg>