<svg width="24" height="24" viewBox="0 0 24 24" xmlns="http://www.w3.org/2000/svg" class="wd-icon wd-icon-calendar-day-16" role="presentation">
<g>
<path d="M14.2158 10.3994C14.625 10.3995 14.9933 10.4804 15.3115 10.6523C15.6229 10.8148 15.8758 11.0388 16.0625 11.3223C16.2433 11.597 16.3613 11.8973 16.415 12.2197L16.4639 12.5107H15.0264L14.9873 12.3086C14.9484 12.1092 14.8634 11.9518 14.7354 11.8281L14.7314 11.8252C14.6287 11.7225 14.4717 11.6553 14.2246 11.6553C13.908 11.6553 13.6427 11.8052 13.4209 12.166L13.4199 12.165C13.2815 12.3926 13.1767 12.7039 13.1123 13.1055C13.1543 13.0731 13.1979 13.0418 13.2432 13.0127C13.5422 12.8205 13.8942 12.7305 14.2871 12.7305C14.72 12.7305 15.1131 12.8376 15.457 13.0576C15.7952 13.2741 16.0537 13.5671 16.2295 13.9307C16.4099 14.2918 16.499 14.6878 16.499 15.1133C16.499 15.5344 16.4058 15.9319 16.2207 16.3027L16.2217 16.3037C16.0384 16.6769 15.7627 16.9785 15.4014 17.2061L15.3984 17.208C15.0286 17.4339 14.5946 17.541 14.1074 17.541C13.6012 17.541 13.148 17.412 12.7598 17.1465L12.7588 17.1455C12.3768 16.8795 12.0905 16.4984 11.8955 16.0176C11.7009 15.531 11.6075 14.9594 11.6074 14.3125C11.6074 13.5854 11.6936 12.9298 11.8701 12.3496L11.8711 12.3477C12.0554 11.7631 12.3372 11.2887 12.7256 10.9404L12.8818 10.8125C13.2573 10.5349 13.7063 10.3994 14.2158 10.3994ZM14.1074 13.9688C13.9041 13.9688 13.7318 14.0174 13.583 14.1104C13.4335 14.2038 13.3133 14.3346 13.2246 14.5107C13.1417 14.6816 13.0977 14.8843 13.0977 15.1221C13.0977 15.346 13.1416 15.5467 13.2266 15.7266C13.3153 15.9019 13.4352 16.0363 13.5859 16.1357C13.735 16.2282 13.9039 16.2764 14.0986 16.2764C14.3092 16.2763 14.4751 16.2268 14.6074 16.1387C14.7537 16.0393 14.8651 15.9072 14.9424 15.7383L14.9434 15.7354L14.999 15.5967C15.0472 15.4532 15.0722 15.2952 15.0723 15.1221C15.0722 14.7548 14.9746 14.4806 14.7998 14.2773L14.7959 14.2725C14.6321 14.0724 14.412 13.9688 14.1074 13.9688Z" fill="oklch(0.3523 0 0 / 1)" class="wd-icon-fill"></path>
<path d="M9.08692 10.5049C9.52536 10.5049 9.88076 10.8604 9.88086 11.2988V16.668C9.88081 17.0694 9.55566 17.3944 9.1543 17.3945C8.75303 17.3943 8.42681 17.0693 8.42676 16.668V12.3936L8.25 12.5254C7.83564 12.8319 7.24805 12.536 7.24805 12.0205C7.24823 11.8259 7.33896 11.6422 7.49317 11.5234L8.60254 10.6699C8.74118 10.5633 8.91202 10.505 9.08692 10.5049Z" fill="oklch(0.3523 0 0 / 1)" class="wd-icon-fill"></path>
<path d="M16.2012 2C17.0247 2 17.7026 1.99898 18.2529 2.04395C18.815 2.08988 19.3321 2.18828 19.8174 2.43555C20.5699 2.81902 21.182 3.43109 21.5654 4.1836C21.8127 4.6689 21.9111 5.18599 21.957 5.74805C22.002 6.29843 22.001 6.97632 22.001 7.79981V16.2002C22.001 17.0237 22.002 17.7016 21.957 18.252C21.9111 18.814 21.8127 19.3311 21.5654 19.8164C21.182 20.5689 20.5699 21.181 19.8174 21.5645C19.3321 21.8117 18.815 21.9101 18.2529 21.9561C17.7026 22.001 17.0247 22 16.2012 22H7.80078C6.9773 22 6.2994 22.001 5.74903 21.9561C5.18697 21.9101 4.66988 21.8117 4.18457 21.5645C3.43207 21.181 2.81999 20.5689 2.43653 19.8164C2.18925 19.3311 2.09085 18.814 2.04492 18.252C1.99996 17.7016 2.00098 17.0237 2.00098 16.2002V7.79981C2.00098 6.97632 1.99996 6.29843 2.04492 5.74805C2.09085 5.18599 2.18925 4.6689 2.43653 4.1836C2.81999 3.43109 3.43207 2.81902 4.18457 2.43555C4.66988 2.18827 5.18697 2.08988 5.74903 2.04395C6.2994 1.99898 6.9773 2 7.80078 2H16.2012ZM4.00098 16.2002C4.00098 17.0566 4.00133 17.6388 4.03809 18.0889C4.07391 18.5273 4.13906 18.7518 4.21875 18.9082C4.41049 19.2845 4.71652 19.5905 5.09278 19.7822C5.24917 19.8619 5.4737 19.9271 5.91211 19.9629C6.36215 19.9997 6.9444 20 7.80078 20H16.2012C17.0576 20 17.6398 19.9997 18.0898 19.9629C18.5283 19.9271 18.7528 19.8619 18.9092 19.7822C19.2854 19.5905 19.5915 19.2845 19.7832 18.9082C19.8629 18.7518 19.928 18.5273 19.9639 18.0889C20.0006 17.6388 20.001 17.0566 20.001 16.2002V8H4.00098V16.2002Z" fill="oklch(0.3523 0 0 / 1)" class="wd-icon-fill"></path>
</g>
</svg>