<svg width="24" height="24" viewBox="0 0 24 24" xmlns="http://www.w3.org/2000/svg" class="wd-icon wd-icon-dashboard-grid" role="presentation">
<g>
<path d="M8.40039 15C8.69667 15 8.85905 15.0012 8.97559 15.0107C8.97969 15.0111 8.98359 15.0114 8.9873 15.0117C8.98768 15.0157 8.98889 15.0199 8.98926 15.0244C8.99878 15.1409 9 15.3033 9 15.5996V18.4004C9 18.6967 8.99878 18.8591 8.98926 18.9756C8.98892 18.9797 8.98765 18.9836 8.9873 18.9873C8.98356 18.9876 8.97972 18.9889 8.97559 18.9893C8.85905 18.9988 8.69667 19 8.40039 19H5.59961C5.30333 19 5.14095 18.9988 5.02441 18.9893C5.01992 18.9889 5.01575 18.9877 5.01172 18.9873C5.01138 18.9836 5.01108 18.9797 5.01074 18.9756C5.00122 18.8591 5 18.6967 5 18.4004V15.5996C5 15.3033 5.00122 15.1409 5.01074 15.0244C5.01111 15.02 5.01135 15.0157 5.01172 15.0117C5.01572 15.0114 5.01996 15.0111 5.02441 15.0107C5.14095 15.0012 5.30333 15 5.59961 15H8.40039Z" fill="transparent" class="wd-icon-background"></path>
<path d="M18.4004 15C18.6967 15 18.8591 15.0012 18.9756 15.0107C18.9797 15.0111 18.9836 15.0114 18.9873 15.0117C18.9877 15.0157 18.9889 15.0199 18.9893 15.0244C18.9988 15.1409 19 15.3033 19 15.5996V18.4004C19 18.6967 18.9988 18.8591 18.9893 18.9756C18.9889 18.9797 18.9876 18.9836 18.9873 18.9873C18.9836 18.9876 18.9797 18.9889 18.9756 18.9893C18.8591 18.9988 18.6967 19 18.4004 19H15.5996C15.3033 19 15.1409 18.9988 15.0244 18.9893C15.0199 18.9889 15.0157 18.9877 15.0117 18.9873C15.0114 18.9836 15.0111 18.9797 15.0107 18.9756C15.0012 18.8591 15 18.6967 15 18.4004V15.5996C15 15.3033 15.0012 15.1409 15.0107 15.0244C15.0111 15.02 15.0114 15.0157 15.0117 15.0117C15.0157 15.0114 15.02 15.0111 15.0244 15.0107C15.1409 15.0012 15.3033 15 15.5996 15H18.4004Z" fill="transparent" class="wd-icon-background"></path>
<path d="M8.40039 5C8.69667 5 8.85905 5.00122 8.97559 5.01074C8.97969 5.01108 8.98359 5.01138 8.9873 5.01172C8.98768 5.01575 8.98889 5.01992 8.98926 5.02441C8.99878 5.14095 9 5.30333 9 5.59961V8.40039C9 8.69667 8.99878 8.85905 8.98926 8.97559C8.98892 8.97972 8.98765 8.98356 8.9873 8.9873C8.98356 8.98765 8.97972 8.98892 8.97559 8.98926C8.85905 8.99878 8.69667 9 8.40039 9H5.59961C5.30333 9 5.14095 8.99878 5.02441 8.98926C5.01992 8.98889 5.01575 8.98768 5.01172 8.9873C5.01138 8.98359 5.01108 8.97969 5.01074 8.97559C5.00122 8.85905 5 8.69667 5 8.40039V5.59961C5 5.30333 5.00122 5.14095 5.01074 5.02441C5.01111 5.01996 5.01135 5.01572 5.01172 5.01172C5.01572 5.01135 5.01996 5.01111 5.02441 5.01074C5.14095 5.00122 5.30333 5 5.59961 5H8.40039Z" fill="transparent" class="wd-icon-background"></path>
<path d="M18.4004 5C18.6967 5 18.8591 5.00122 18.9756 5.01074C18.9797 5.01108 18.9836 5.01138 18.9873 5.01172C18.9877 5.01575 18.9889 5.01992 18.9893 5.02441C18.9988 5.14095 19 5.30333 19 5.59961V8.40039C19 8.69667 18.9988 8.85905 18.9893 8.97559C18.9889 8.97972 18.9876 8.98356 18.9873 8.9873C18.9836 8.98765 18.9797 8.98892 18.9756 8.98926C18.8591 8.99878 18.6967 9 18.4004 9H15.5996C15.3033 9 15.1409 8.99878 15.0244 8.98926C15.0199 8.98889 15.0157 8.98768 15.0117 8.9873C15.0114 8.98359 15.0111 8.97969 15.0107 8.97559C15.0012 8.85905 15 8.69667 15 8.40039V5.59961C15 5.30333 15.0012 5.14095 15.0107 5.02441C15.0111 5.01996 15.0114 5.01572 15.0117 5.01172C15.0157 5.01135 15.02 5.01111 15.0244 5.01074C15.1409 5.00122 15.3033 5 15.5996 5H18.4004Z" fill="transparent" class="wd-icon-background"></path>
</g>
<g>
<path d="M8.4004 13C8.66379 13 8.92187 12.9989 9.13869 13.0166C9.36719 13.0353 9.63696 13.0796 9.90822 13.2178C10.2375 13.3856 10.5129 13.6409 10.7051 13.9541L10.7822 14.0918L10.8692 14.2949C10.9406 14.4958 10.9694 14.6901 10.9834 14.8613C11.0011 15.0782 11 15.3362 11 15.5996V18.4004C11 18.6638 11.0011 18.9219 10.9834 19.1387C10.9647 19.3672 10.9205 19.637 10.7822 19.9082C10.5905 20.2845 10.2845 20.5905 9.90822 20.7822C9.63696 20.9205 9.36719 20.9647 9.13869 20.9834C8.92187 21.0011 8.66379 21 8.4004 21H5.59962C5.33623 21 5.07815 21.0011 4.86134 20.9834C4.63284 20.9647 4.36307 20.9205 4.09181 20.7822C3.71556 20.5905 3.40952 20.2845 3.21779 19.9082C3.07957 19.637 3.03531 19.3672 3.01662 19.1387C2.9989 18.9219 3.00001 18.6638 3.00001 18.4004V15.5996C3.00001 15.3362 2.9989 15.0782 3.01662 14.8613C3.03531 14.6328 3.07957 14.3631 3.21779 14.0918C3.40952 13.7156 3.71556 13.4095 4.09181 13.2178C4.36307 13.0796 4.63284 13.0353 4.86134 13.0166C5.07815 12.9989 5.33623 13 5.59962 13H8.4004ZM5.59962 15C5.30334 15 5.14096 15.0012 5.02443 15.0108C5.01997 15.0111 5.01574 15.0114 5.01173 15.0117C5.01136 15.0157 5.01112 15.02 5.01076 15.0244C5.00124 15.141 5.00001 15.3033 5.00001 15.5996V18.4004C5.00001 18.6967 5.00124 18.8591 5.01076 18.9756C5.01109 18.9797 5.01139 18.9836 5.01173 18.9873C5.01576 18.9877 5.01994 18.9889 5.02443 18.9893C5.14096 18.9988 5.30334 19 5.59962 19H8.4004C8.69668 19 8.85907 18.9988 8.9756 18.9893C8.97973 18.9889 8.98358 18.9877 8.98732 18.9873C8.98766 18.9836 8.98893 18.9797 8.98927 18.9756C8.99879 18.8591 9.00001 18.6967 9.00001 18.4004V15.5996C9.00001 15.3033 8.99879 15.141 8.98927 15.0244C8.9889 15.0199 8.98769 15.0158 8.98732 15.0117C8.9836 15.0114 8.9797 15.0111 8.9756 15.0108C8.85907 15.0012 8.69668 15 8.4004 15H5.59962Z" fill="oklch(0.3523 0 0 / 1)" class="wd-icon-fill"></path>
<path d="M18.4004 13C18.6638 13 18.9219 12.9989 19.1387 13.0166C19.3672 13.0353 19.637 13.0796 19.9082 13.2178C20.2375 13.3856 20.5129 13.6409 20.7051 13.9541L20.7822 14.0918L20.8692 14.2949C20.9406 14.4958 20.9694 14.6901 20.9834 14.8613C21.0011 15.0782 21 15.3362 21 15.5996V18.4004C21 18.6638 21.0011 18.9219 20.9834 19.1387C20.9647 19.3672 20.9205 19.637 20.7822 19.9082C20.5905 20.2845 20.2845 20.5905 19.9082 20.7822C19.637 20.9205 19.3672 20.9647 19.1387 20.9834C18.9219 21.0011 18.6638 21 18.4004 21H15.5996C15.3362 21 15.0782 21.0011 14.8613 20.9834C14.6328 20.9647 14.3631 20.9205 14.0918 20.7822C13.7156 20.5905 13.4095 20.2845 13.2178 19.9082C13.0796 19.637 13.0353 19.3672 13.0166 19.1387C12.9989 18.9219 13 18.6638 13 18.4004V15.5996C13 15.3362 12.9989 15.0782 13.0166 14.8613C13.0353 14.6328 13.0796 14.3631 13.2178 14.0918C13.4095 13.7156 13.7156 13.4095 14.0918 13.2178C14.3631 13.0796 14.6328 13.0353 14.8613 13.0166C15.0782 12.9989 15.3362 13 15.5996 13H18.4004ZM15.5996 15C15.3033 15 15.141 15.0012 15.0244 15.0108C15.02 15.0111 15.0157 15.0114 15.0117 15.0117C15.0114 15.0157 15.0111 15.02 15.0108 15.0244C15.0012 15.141 15 15.3033 15 15.5996V18.4004C15 18.6967 15.0012 18.8591 15.0108 18.9756C15.0111 18.9797 15.0114 18.9836 15.0117 18.9873C15.0158 18.9877 15.0199 18.9889 15.0244 18.9893C15.141 18.9988 15.3033 19 15.5996 19H18.4004C18.6967 19 18.8591 18.9988 18.9756 18.9893C18.9797 18.9889 18.9836 18.9877 18.9873 18.9873C18.9877 18.9836 18.9889 18.9797 18.9893 18.9756C18.9988 18.8591 19 18.6967 19 18.4004V15.5996C19 15.3033 18.9988 15.141 18.9893 15.0244C18.9889 15.0199 18.9877 15.0158 18.9873 15.0117C18.9836 15.0114 18.9797 15.0111 18.9756 15.0108C18.8591 15.0012 18.6967 15 18.4004 15H15.5996Z" fill="oklch(0.3523 0 0 / 1)" class="wd-icon-fill"></path>
<path d="M8.4004 3.00001C8.66379 3.00001 8.92187 2.9989 9.13869 3.01662C9.36719 3.03531 9.63696 3.07957 9.90822 3.21779C10.2375 3.38556 10.5129 3.64086 10.7051 3.95412L10.7822 4.09181L10.8692 4.29494C10.9406 4.49578 10.9694 4.69006 10.9834 4.86134C11.0011 5.07815 11 5.33623 11 5.59962V8.4004C11 8.66379 11.0011 8.92187 10.9834 9.13869C10.9647 9.36719 10.9205 9.63696 10.7822 9.90822C10.5905 10.2845 10.2845 10.5905 9.90822 10.7822C9.63696 10.9205 9.36719 10.9647 9.13869 10.9834C8.92187 11.0011 8.66379 11 8.4004 11H5.59962C5.33623 11 5.07815 11.0011 4.86134 10.9834C4.63284 10.9647 4.36307 10.9205 4.09181 10.7822C3.71556 10.5905 3.40952 10.2845 3.21779 9.90822C3.07957 9.63696 3.03531 9.36719 3.01662 9.13869C2.9989 8.92187 3.00001 8.66379 3.00001 8.4004V5.59962C3.00001 5.33623 2.9989 5.07815 3.01662 4.86134C3.03531 4.63284 3.07957 4.36307 3.21779 4.09181C3.40952 3.71556 3.71556 3.40952 4.09181 3.21779C4.36307 3.07957 4.63284 3.03531 4.86134 3.01662C5.07815 2.9989 5.33623 3.00001 5.59962 3.00001H8.4004ZM5.59962 5.00001C5.30334 5.00001 5.14096 5.00124 5.02443 5.01076C5.01997 5.01112 5.01574 5.01136 5.01173 5.01173C5.01136 5.01574 5.01112 5.01997 5.01076 5.02443C5.00124 5.14096 5.00001 5.30334 5.00001 5.59962V8.4004C5.00001 8.69668 5.00124 8.85907 5.01076 8.9756C5.01109 8.9797 5.01139 8.9836 5.01173 8.98732C5.01576 8.98769 5.01994 8.9889 5.02443 8.98927C5.14096 8.99879 5.30334 9.00001 5.59962 9.00001H8.4004C8.69668 9.00001 8.85907 8.99879 8.9756 8.98927C8.97973 8.98893 8.98358 8.98766 8.98732 8.98732C8.98766 8.98358 8.98893 8.97973 8.98927 8.9756C8.99879 8.85907 9.00001 8.69668 9.00001 8.4004V5.59962C9.00001 5.30334 8.99879 5.14096 8.98927 5.02443C8.9889 5.01994 8.98769 5.01576 8.98732 5.01173C8.9836 5.01139 8.9797 5.01109 8.9756 5.01076C8.85907 5.00124 8.69668 5.00001 8.4004 5.00001H5.59962Z" fill="oklch(0.3523 0 0 / 1)" class="wd-icon-fill"></path>
<path d="M18.4004 3.00001C18.6638 3.00001 18.9219 2.9989 19.1387 3.01662C19.3672 3.03531 19.637 3.07957 19.9082 3.21779C20.2375 3.38556 20.5129 3.64086 20.7051 3.95412L20.7822 4.09181L20.8692 4.29494C20.9406 4.49578 20.9694 4.69006 20.9834 4.86134C21.0011 5.07815 21 5.33623 21 5.59962V8.4004C21 8.66379 21.0011 8.92187 20.9834 9.13869C20.9647 9.36719 20.9205 9.63696 20.7822 9.90822C20.5905 10.2845 20.2845 10.5905 19.9082 10.7822C19.637 10.9205 19.3672 10.9647 19.1387 10.9834C18.9219 11.0011 18.6638 11 18.4004 11H15.5996C15.3362 11 15.0782 11.0011 14.8613 10.9834C14.6328 10.9647 14.3631 10.9205 14.0918 10.7822C13.7156 10.5905 13.4095 10.2845 13.2178 9.90822C13.0796 9.63696 13.0353 9.36719 13.0166 9.13869C12.9989 8.92187 13 8.66379 13 8.4004V5.59962C13 5.33623 12.9989 5.07815 13.0166 4.86134C13.0353 4.63284 13.0796 4.36307 13.2178 4.09181C13.4095 3.71556 13.7156 3.40952 14.0918 3.21779C14.3631 3.07957 14.6328 3.03531 14.8613 3.01662C15.0782 2.9989 15.3362 3.00001 15.5996 3.00001H18.4004ZM15.5996 5.00001C15.3033 5.00001 15.141 5.00124 15.0244 5.01076C15.02 5.01112 15.0157 5.01136 15.0117 5.01173C15.0114 5.01574 15.0111 5.01997 15.0108 5.02443C15.0012 5.14096 15 5.30334 15 5.59962V8.4004C15 8.69668 15.0012 8.85907 15.0108 8.9756C15.0111 8.9797 15.0114 8.9836 15.0117 8.98732C15.0158 8.98769 15.0199 8.9889 15.0244 8.98927C15.141 8.99879 15.3033 9.00001 15.5996 9.00001H18.4004C18.6967 9.00001 18.8591 8.99879 18.9756 8.98927C18.9797 8.98893 18.9836 8.98766 18.9873 8.98732C18.9877 8.98358 18.9889 8.97973 18.9893 8.9756C18.9988 8.85907 19 8.69668 19 8.4004V5.59962C19 5.30334 18.9988 5.14096 18.9893 5.02443C18.9889 5.01994 18.9877 5.01576 18.9873 5.01173C18.9836 5.01139 18.9797 5.01109 18.9756 5.01076C18.8591 5.00124 18.6967 5.00001 18.4004 5.00001H15.5996Z" fill="oklch(0.3523 0 0 / 1)" class="wd-icon-fill"></path>
</g>
</svg>