<svg width="24" height="24" viewBox="0 0 24 24" xmlns="http://www.w3.org/2000/svg" class="wd-icon wd-icon-proxy-user" role="presentation">
<g>
<path d="M12.0004 12C14.1869 12 16.284 12.4109 17.9184 13.4102C19.5947 14.4352 20.732 16.0533 20.9584 18.2852C21.0566 19.254 20.3986 20.0811 19.5034 20.2812C18.2927 20.5517 15.7231 21 12.0004 21C8.27765 21 5.70795 20.5517 4.49749 20.2812C3.60244 20.081 2.94427 19.2538 3.04241 18.2852L3.09515 17.874C3.41275 15.8534 4.51095 14.3712 6.08245 13.4102C7.71684 12.4108 9.81391 12 12.0004 12ZM12.0004 19C15.4409 19 17.8183 18.5977 18.9516 18.3525C18.7624 16.8454 18.0109 15.8106 16.8754 15.1162C15.6646 14.3759 13.9727 14 12.0004 14V19Z" fill="oklch(0.3523 0 0 / 1)" class="wd-icon-fill"></path>
<path d="M12.0004 1.5C14.4857 1.5 16.5004 3.51472 16.5004 6C16.5004 8.48528 14.4857 10.5 12.0004 10.5C9.51529 10.4998 7.50042 8.48517 7.50042 6C7.50042 3.51483 9.51529 1.50018 12.0004 1.5ZM12.0004 8.5C13.3811 8.5 14.5004 7.38071 14.5004 6C14.5004 4.61929 13.3811 3.5 12.0004 3.5V8.5Z" fill="oklch(0.3523 0 0 / 1)" class="wd-icon-fill"></path>
</g>
</svg>