<svg width="24" height="24" viewBox="0 0 24 24" xmlns="http://www.w3.org/2000/svg" class="wd-icon wd-icon-dashboard" role="presentation">
<g>
<path d="M3 3.5C3 3.22386 3.22386 3 3.5 3H9.5C9.77614 3 10 3.22386 10 3.5V11.5C10 11.7761 9.77614 12 9.5 12H3.5C3.22386 12 3 11.7761 3 11.5V3.5Z" fill="transparent" class="wd-icon-background"></path>
<path d="M3 15.5C3 15.2239 3.22386 15 3.5 15H9.5C9.77614 15 10 15.2239 10 15.5V20.5C10 20.7761 9.77614 21 9.5 21H3.5C3.22386 21 3 20.7761 3 20.5V15.5Z" fill="transparent" class="wd-icon-background"></path>
<path d="M14 10.5C14 10.2239 14.2239 10 14.5 10H20.5C20.7761 10 21 10.2239 21 10.5V20.5C21 20.7761 20.7761 21 20.5 21H14.5C14.2239 21 14 20.7761 14 20.5V10.5Z" fill="transparent" class="wd-icon-background"></path>
<path d="M14 3.5C14 3.22386 14.2239 3 14.5 3H20.5C20.7761 3 21 3.22386 21 3.5V6.5C21 6.77614 20.7761 7 20.5 7H14.5C14.2239 7 14 6.77614 14 6.5V3.5Z" fill="transparent" class="wd-icon-background"></path>
</g>
<g>
<path d="M9.5 14C10.3284 14 11 14.6716 11 15.5V20.5C11 21.3284 10.3284 22 9.5 22H3.5C2.67157 22 2 21.3284 2 20.5V15.5C2 14.6716 2.67157 14 3.5 14H9.5ZM4 20H9V16H4V20Z" fill="oklch(0.3523 0 0 / 1)" class="wd-icon-fill"></path>
<path d="M20.5 9C21.3284 9 22 9.67157 22 10.5V20.5C22 21.3284 21.3284 22 20.5 22H14.5C13.7233 22 13.0846 21.4097 13.0078 20.6533L13 20.5V10.5C13 9.67157 13.6716 9 14.5 9H20.5ZM15 20H20V11H15V20Z" fill="oklch(0.3523 0 0 / 1)" class="wd-icon-fill"></path>
<path d="M9.5 2C10.3284 2 11 2.67157 11 3.5V11.5C11 12.3284 10.3284 13 9.5 13H3.5C2.67157 13 2 12.3284 2 11.5V3.5C2 2.67157 2.67157 2 3.5 2H9.5ZM4 11H9V4H4V11Z" fill="oklch(0.3523 0 0 / 1)" class="wd-icon-fill"></path>
<path d="M20.5 2C21.3284 2 22 2.67157 22 3.5V6.5C22 7.32843 21.3284 8 20.5 8H14.5C13.6716 8 13 7.32843 13 6.5V3.5C13 2.67157 13.6716 2 14.5 2H20.5ZM15 6H20V4H15V6Z" fill="oklch(0.3523 0 0 / 1)" class="wd-icon-fill"></path>
</g>
</svg>