<svg width="24" height="24" viewBox="0 0 24 24" xmlns="http://www.w3.org/2000/svg" class="wd-icon wd-icon-social-media" role="presentation">
<g>
<path d="M9 18C10.1046 18 11 18.8954 11 20C11 21.1046 10.1046 22 9 22C7.89543 22 7 21.1046 7 20C7 18.8954 7.89543 18 9 18Z" fill="transparent" class="wd-icon-background"></path>
<path d="M20 6C21.1046 6 22 6.89543 22 8C22 9.10457 21.1046 10 20 10C18.8954 10 18 9.10457 18 8C18 6.89543 18.8954 6 20 6Z" fill="transparent" class="wd-icon-background"></path>
<path d="M7 3C8.10457 3 9 3.89543 9 5C9 6.10457 8.10457 7 7 7C5.89543 7 5 6.10457 5 5C5 3.89543 5.89543 3 7 3Z" fill="transparent" class="wd-icon-background"></path>
</g>
<path d="M7 2C8.65685 2 10 3.34315 10 5C10 5.63998 9.79752 6.2317 9.45605 6.71875L10.5625 8.26758C11.0088 8.09559 11.4931 8 12 8C13.203 8 14.2814 8.53159 15.0146 9.37207L17.0225 8.36816C17.0077 8.24751 17 8.12465 17 8C17 6.34315 18.3431 5 20 5C21.6569 5 23 6.34315 23 8C23 9.65685 21.6569 11 20 11C19.191 11 18.4585 10.6779 17.9189 10.1572L15.9111 11.1611C15.9689 11.4317 16 11.7122 16 12C16 14.2091 14.2091 16 12 16C11.8565 16 11.7148 15.9923 11.5752 15.9775L10.9287 17.7031C11.5834 18.2534 12 19.0778 12 20C12 21.6569 10.6569 23 9 23C7.34315 23 6 21.6569 6 20C6 18.3431 7.34315 17 9 17C9.01827 17 9.03649 17.0007 9.05469 17.001L9.70215 15.2725C8.67327 14.5487 8 13.3535 8 12C8 11.0212 8.35185 10.1249 8.93555 9.42969L7.8291 7.88086C7.56553 7.95657 7.28792 8 7 8C5.34315 8 4 6.65685 4 5C4 3.34315 5.34315 2 7 2ZM9 19C8.44772 19 8 19.4477 8 20C8 20.5523 8.44772 21 9 21C9.55228 21 10 20.5523 10 20C10 19.4477 9.55228 19 9 19ZM12 10C10.8954 10 10 10.8954 10 12C10 13.1046 10.8954 14 12 14C13.1046 14 14 13.1046 14 12C14 10.8954 13.1046 10 12 10ZM20 7C19.4477 7 19 7.44772 19 8C19 8.55228 19.4477 9 20 9C20.5523 9 21 8.55228 21 8C21 7.44772 20.5523 7 20 7ZM7 4C6.44772 4 6 4.44772 6 5C6 5.55228 6.44772 6 7 6C7.55228 6 8 5.55228 8 5C8 4.44772 7.55228 4 7 4Z" fill="oklch(0.3523 0 0 / 1)" class="wd-icon-fill"></path>
</svg>