<svg width="24" height="24" viewBox="0 0 24 24" xmlns="http://www.w3.org/2000/svg" class="wd-icon wd-icon-face-neutral" role="presentation">
<path d="M12 4C16.4183 4 20 7.58172 20 12C20 16.4183 16.4183 20 12 20C7.58172 20 4 16.4183 4 12C4 7.58172 7.58172 4 12 4ZM9 14C8.44772 14 8 14.4477 8 15C8 15.5523 8.44772 16 9 16H15C15.5523 16 16 15.5523 16 15C16 14.4477 15.5523 14 15 14H9ZM9 8C8.44772 8 8 8.44772 8 9V11C8 11.5523 8.44772 12 9 12C9.55228 12 10 11.5523 10 11V9C10 8.44772 9.55228 8 9 8ZM15 8C14.4477 8 14 8.44772 14 9V11C14 11.5523 14.4477 12 15 12C15.5523 12 16 11.5523 16 11V9C16 8.44772 15.5523 8 15 8Z" fill="transparent" class="wd-icon-background"></path>
<path d="M12 2C17.5228 2 22 6.47715 22 12C22 17.5228 17.5228 22 12 22C6.47715 22 2 17.5228 2 12C2 6.47715 6.47715 2 12 2ZM12 4C7.58172 4 4 7.58172 4 12C4 16.4183 7.58172 20 12 20C16.4183 20 20 16.4183 20 12C20 7.58172 16.4183 4 12 4Z" fill="oklch(0.3523 0 0 / 1)" class="wd-icon-fill"></path>
<g>
<path d="M15 14C15.5523 14 16 14.4477 16 15C16 15.5523 15.5523 16 15 16H9C8.44772 16 8 15.5523 8 15C8 14.4477 8.44772 14 9 14H15Z" fill="oklch(0.3523 0 0 / 1)" class="wd-icon-accent"></path>
<path d="M9 8C9.55228 8 10 8.44772 10 9V11C10 11.5523 9.55228 12 9 12C8.44772 12 8 11.5523 8 11V9C8 8.44772 8.44772 8 9 8Z" fill="oklch(0.3523 0 0 / 1)" class="wd-icon-accent"></path>
<path d="M15 8C15.5523 8 16 8.44772 16 9V11C16 11.5523 15.5523 12 15 12C14.4477 12 14 11.5523 14 11V9C14 8.44772 14.4477 8 15 8Z" fill="oklch(0.3523 0 0 / 1)" class="wd-icon-accent"></path>
</g>
</svg>