<svg width="24" height="24" viewBox="0 0 24 24" xmlns="http://www.w3.org/2000/svg" class="wd-icon wd-icon-bid-strikethrough" role="presentation">
<g>
<path d="M3.99785 7.75098C4.55013 7.75098 4.99785 8.1987 4.99785 8.75098V12.8008C4.99785 13.3771 4.99912 13.75 5.02226 14.0332C5.04446 14.3044 5.08205 14.4057 5.10722 14.4551C5.20307 14.6429 5.35591 14.7958 5.54374 14.8916C5.59325 14.9168 5.69439 14.9544 5.96562 14.9766C6.24895 14.9997 6.62152 15.001 7.19804 15.001H10.3982C10.6616 15.001 10.9197 14.9999 11.1365 15.0176C11.365 15.0363 11.6348 15.0806 11.906 15.2188C12.2352 15.3865 12.5108 15.6419 12.7029 15.9551L12.7801 16.0928L12.867 16.2959C12.9384 16.4966 12.9672 16.6912 12.9812 16.8623C12.9989 17.079 12.9978 17.3374 12.9978 17.6006V20.001C12.9976 20.553 12.55 21.001 11.9978 21.001C11.4457 21.001 10.9981 20.553 10.9978 20.001V17.001H7.19804C6.65451 17.001 6.18619 17.0021 5.80253 16.9707C5.40735 16.9384 5.01378 16.8665 4.63554 16.6738C4.07145 16.3863 3.61258 15.9273 3.32499 15.3633C3.13232 14.9851 3.06045 14.5914 3.02812 14.1963C2.99678 13.8127 2.99785 13.3441 2.99785 12.8008V8.75098C2.99785 8.1987 3.44557 7.75099 3.99785 7.75098Z" fill="oklch(0.3523 0 0 / 1)" class="wd-icon-fill"></path>
<path d="M16.7996 3C17.3431 3 17.8115 2.99893 18.1951 3.03028C18.5903 3.06259 18.9838 3.13443 19.3621 3.32715C19.9263 3.6147 20.3851 4.07356 20.6727 4.6377C20.8654 5.01591 20.9372 5.40952 20.9695 5.80469C21.0009 6.1883 20.9998 6.65677 20.9998 7.2002V12.7998C20.9998 13.3432 21.0008 13.8117 20.9695 14.1953C20.9372 14.5905 20.8653 14.9841 20.6727 15.3623C20.3851 15.9265 19.9262 16.3853 19.3621 16.6729C19.0372 16.8384 18.7009 16.9125 18.3621 16.9512L20.701 19.2891C21.0912 19.6794 21.092 20.3126 20.7019 20.7031C20.3117 21.0934 19.6785 21.0939 19.2879 20.7041L3.28398 4.70704C2.89356 4.31662 2.89369 3.68354 3.28398 3.29297C3.47926 3.09769 3.73505 2.99994 3.99101 3H16.7996ZM16.41 15H16.7996C17.3761 15 17.7487 14.9987 18.032 14.9756C18.3035 14.9534 18.4045 14.9158 18.4539 14.8906C18.6418 14.7948 18.7946 14.642 18.8904 14.4541C18.9156 14.4046 18.9532 14.3034 18.9754 14.0322C18.9985 13.7489 18.9998 13.3762 18.9998 12.7998V7.2002C18.9998 6.6238 18.9985 6.25107 18.9754 5.96778C18.9532 5.69639 18.9156 5.59532 18.8904 5.5459C18.7946 5.35802 18.6418 5.20519 18.4539 5.10938C18.4045 5.08419 18.3035 5.04661 18.032 5.02442C17.7487 5.00127 17.3761 5 16.7996 5H6.40605L16.41 15Z" fill="oklch(0.3523 0 0 / 1)" class="wd-icon-fill"></path>
</g>
</svg>