<svg width="24" height="24" viewBox="0 0 24 24" xmlns="http://www.w3.org/2000/svg" class="wd-icon wd-icon-rotate" role="presentation">
<path d="M7.9705 6.40135C10.2269 5.93411 12.7247 5.87348 15.0525 6.22655C17.3685 6.57784 19.4549 7.33008 20.9139 8.42186C22.3745 9.515 23.2608 11.0166 22.9324 12.6836C22.6185 14.2767 21.2738 15.5518 19.5183 16.4297C19.0244 16.6766 18.4236 16.4763 18.1766 15.9824C17.9297 15.4885 18.1299 14.8876 18.6238 14.6406C20.1395 13.8827 20.8308 13.0058 20.9705 12.2969C21.0956 11.6616 20.8253 10.8529 19.7156 10.0224C18.604 9.19064 16.8644 8.52441 14.7527 8.20408C12.653 7.88562 10.394 7.9414 8.37577 8.35936C6.34053 8.78087 4.77228 9.52366 3.86405 10.373C2.98959 11.191 2.86054 11.9506 3.12089 12.6055C3.42668 13.374 4.35631 14.2502 6.03593 14.9394C7.57794 15.5721 9.52518 15.9487 11.5799 15.9941L10.2928 14.707C9.90231 14.3165 9.90231 13.6835 10.2928 13.293C10.6833 12.9026 11.3163 12.9025 11.7068 13.293L14.7068 16.293C15.0972 16.6834 15.0972 17.3165 14.7068 17.707L11.7068 20.707C11.3164 21.0975 10.6833 21.0974 10.2928 20.707C9.90224 20.3165 9.90224 19.6835 10.2928 19.293L11.5896 17.9951C9.31374 17.9506 7.09702 17.5372 5.27616 16.79C3.37912 16.0116 1.85943 14.8451 1.26249 13.3447C0.620593 11.7307 1.19137 10.1352 2.49784 8.91307C3.77088 7.7223 5.73124 6.86511 7.9705 6.40135Z" fill="oklch(0.3523 0 0 / 1)" class="wd-icon-fill"></path>
</svg>