<svg width="24" height="24" viewBox="0 0 24 24" xmlns="http://www.w3.org/2000/svg" class="wd-icon wd-icon-thumbs-down" role="presentation">
<path d="M11.1689 23C12.9873 22.9998 14.7371 21.7344 14.9219 19.75C15.0317 18.5699 15.0267 17.3762 14.9131 16.1982L16.7832 16.4463C19.4733 16.8045 21.7322 14.4369 21.2471 11.7666L20.4326 7.28418C20.0865 5.3822 18.4288 4 16.4961 4H6C4.34315 4 3.00001 5.34315 3 7V13C3 14.6569 4.34315 16 6 16H7.38184L8.0498 17.3359C8.63551 18.5074 8.95802 19.7916 8.99609 21.0986L9 21.3604V21.5C9 22.3284 9.67157 23 10.5 23H11.1689ZM10.9932 21C10.9412 19.4164 10.5487 17.8611 9.83887 16.4414L9.03223 14.8291C9.02286 14.8104 9.01007 14.7936 9 14.7754V6H16.4961C17.4627 6 18.2908 6.69124 18.4639 7.6416L19.2783 12.124C19.5209 13.4591 18.3921 14.6431 17.0469 14.4639L14.5557 14.1328C13.5427 13.9983 12.7357 14.876 12.8604 15.834C13.0208 17.0663 13.0451 18.3249 12.9297 19.5645C12.861 20.3023 12.2216 20.918 11.3467 20.9922L11.1689 21H10.9932ZM6 14C5.44772 14 5 13.5523 5 13V7C5.00001 6.44772 5.44772 6 6 6H7.5V14H6Z" fill="oklch(0.3523 0 0 / 1)" class="wd-icon-fill"></path>
</svg>