<svg width="24" height="24" viewBox="0 0 24 24" xmlns="http://www.w3.org/2000/svg" class="wd-icon wd-icon-button-bar" role="presentation">
<g>
<path d="M9 11.25C9.41422 11.25 9.75 11.5858 9.75 12C9.75 12.4142 9.41422 12.75 9 12.75H7C6.58579 12.75 6.25 12.4142 6.25 12C6.25001 11.5858 6.58579 11.25 7 11.25H9Z" fill="oklch(0.3523 0 0 / 1)" class="wd-icon-fill"></path>
<path d="M14 11.25C14.4142 11.25 14.75 11.5858 14.75 12C14.75 12.4142 14.4142 12.75 14 12.75H12C11.5858 12.75 11.25 12.4142 11.25 12C11.25 11.5858 11.5858 11.25 12 11.25H14Z" fill="oklch(0.3523 0 0 / 1)" class="wd-icon-fill"></path>
<path d="M17.7998 7C18.3434 7 18.8116 6.99893 19.1953 7.03028C19.5906 7.06259 19.984 7.13441 20.3623 7.32715C20.9265 7.61472 21.3853 8.07348 21.6729 8.6377C21.8656 9.01599 21.9374 9.40944 21.9697 9.80469C22.0011 10.1884 22 10.6567 22 11.2002V12.7998C22 13.3434 22.0011 13.8116 21.9697 14.1953C21.9374 14.5906 21.8656 14.984 21.6729 15.3623C21.3853 15.9265 20.9265 16.3853 20.3623 16.6729C19.984 16.8656 19.5906 16.9374 19.1953 16.9697C18.8116 17.0011 18.3434 17 17.7998 17H6.2002C5.65665 17 5.18836 17.0011 4.80469 16.9697C4.40944 16.9374 4.01599 16.8656 3.6377 16.6729C3.07348 16.3853 2.61472 15.9265 2.32715 15.3623C2.13441 14.984 2.06259 14.5906 2.03028 14.1953C1.99893 13.8116 2 13.3434 2 12.7998V11.2002C2 10.6567 1.99893 10.1884 2.03028 9.80469C2.06259 9.40944 2.1344 9.01599 2.32715 8.6377C2.61473 8.07348 3.07348 7.61473 3.6377 7.32715C4.01599 7.1344 4.40944 7.06259 4.80469 7.03028C5.18836 6.99893 5.65665 7 6.2002 7H17.7998ZM6.2002 9C5.62365 9 5.25111 9.00127 4.96778 9.02442C4.6962 9.04662 4.59534 9.08419 4.5459 9.10938C4.35794 9.20522 4.20522 9.35794 4.10938 9.5459C4.08419 9.59534 4.04662 9.6962 4.02442 9.96778C4.00127 10.2511 4 10.6237 4 11.2002V12.7998C4 13.3764 4.00127 13.7489 4.02442 14.0322C4.04661 14.3038 4.08419 14.4047 4.10938 14.4541C4.20522 14.6421 4.35794 14.7948 4.5459 14.8906C4.59534 14.9158 4.6962 14.9534 4.96778 14.9756C5.25111 14.9987 5.62365 15 6.2002 15H17.7998C18.3764 15 18.7489 14.9987 19.0322 14.9756C19.3038 14.9534 19.4047 14.9158 19.4541 14.8906C19.6421 14.7948 19.7948 14.6421 19.8906 14.4541C19.9158 14.4047 19.9534 14.3038 19.9756 14.0322C19.9987 13.7489 20 13.3764 20 12.7998V11.2002C20 10.6237 19.9987 10.2511 19.9756 9.96778C19.9534 9.6962 19.9158 9.59534 19.8906 9.5459C19.7948 9.35794 19.6421 9.20522 19.4541 9.10938C19.4047 9.08419 19.3038 9.04661 19.0322 9.02442C18.7489 9.00127 18.3764 9 17.7998 9H6.2002Z" fill="oklch(0.3523 0 0 / 1)" class="wd-icon-fill"></path>
</g>
</svg>