<svg width="24" height="24" viewBox="0 0 24 24" xmlns="http://www.w3.org/2000/svg" class="wd-icon wd-icon-array" role="presentation">
<g>
<path d="M8.00001 3.00001C8.55229 3.00001 9.00001 3.44774 9.00001 4.00001C9.00001 4.5523 8.5523 5.00001 8.00001 5.00001H6.59962C6.30335 5.00001 6.14096 5.00124 6.02443 5.01076C6.01997 5.01112 6.01573 5.01136 6.01173 5.01173C6.01136 5.01573 6.01112 5.01997 6.01076 5.02443C6.00124 5.14096 6.00001 5.30335 6.00001 5.59962V18.4004C6.00001 18.6967 6.00124 18.8591 6.01076 18.9756C6.01109 18.9797 6.01139 18.9836 6.01173 18.9873C6.01576 18.9877 6.01994 18.9889 6.02443 18.9893C6.14096 18.9988 6.30335 19 6.59962 19H8.00001C8.55229 19 9.00001 19.4477 9.00001 20C9.00001 20.5523 8.5523 21 8.00001 21H6.59962C6.33624 21 6.07815 21.0011 5.86134 20.9834C5.63284 20.9647 5.36307 20.9205 5.09181 20.7822C4.71557 20.5905 4.40952 20.2845 4.21779 19.9082C4.07958 19.637 4.03531 19.3672 4.01662 19.1387C3.9989 18.9219 4.00001 18.6638 4.00001 18.4004V5.59962C4.00001 5.33624 3.9989 5.07815 4.01662 4.86134C4.03531 4.63284 4.07958 4.36307 4.21779 4.09181C4.40952 3.71556 4.71556 3.40952 5.09181 3.21779C5.36307 3.07958 5.63284 3.03531 5.86134 3.01662C6.07815 2.9989 6.33624 3.00001 6.59962 3.00001H8.00001Z" fill="oklch(0.3523 0 0 / 1)" class="wd-icon-fill"></path>
<path d="M17.4004 3.00001C17.6638 3.00001 17.9219 2.9989 18.1387 3.01662C18.3672 3.03531 18.637 3.07958 18.9082 3.21779C19.2845 3.40952 19.5905 3.71557 19.7822 4.09181C19.9205 4.36307 19.9647 4.63284 19.9834 4.86134C20.0011 5.07815 20 5.33624 20 5.59962V18.4004C20 18.6638 20.0011 18.9219 19.9834 19.1387C19.9647 19.3672 19.9205 19.637 19.7822 19.9082C19.5905 20.2845 19.2845 20.5905 18.9082 20.7822C18.637 20.9205 18.3672 20.9647 18.1387 20.9834C17.9219 21.0011 17.6638 21 17.4004 21H16C15.4477 21 15 20.5523 15 20C15 19.4477 15.4477 19 16 19H17.4004C17.6967 19 17.8591 18.9988 17.9756 18.9893C17.9801 18.9889 17.9843 18.9877 17.9883 18.9873C17.9886 18.9836 17.9889 18.9797 17.9893 18.9756C17.9988 18.8591 18 18.6967 18 18.4004V5.59962C18 5.30335 17.9988 5.14096 17.9893 5.02443C17.9889 5.01998 17.9887 5.01573 17.9883 5.01173C17.9843 5.01137 17.9801 5.01112 17.9756 5.01076C17.8591 5.00124 17.6967 5.00001 17.4004 5.00001H16C15.4477 5.00001 15 4.55229 15 4.00001C15 3.44774 15.4477 3.00002 16 3.00001H17.4004Z" fill="oklch(0.3523 0 0 / 1)" class="wd-icon-fill"></path>
</g>
</svg>