<svg width="24" height="24" viewBox="0 0 24 24" xmlns="http://www.w3.org/2000/svg" class="wd-icon wd-icon-align-middle" role="presentation">
<g>
<path d="M11.5908 14.585C11.7899 14.3008 12.2112 14.3007 12.4102 14.585L14.9502 18.2129C15.1816 18.5441 14.9441 18.9997 14.54 19H13V21C13 21.5521 12.5521 21.9997 12 22C11.4479 21.9997 11 21.5521 11 21V19H9.46094C9.05651 19 8.81906 18.5443 9.05078 18.2129L11.5908 14.585Z" fill="oklch(0.3523 0 0 / 1)" class="wd-icon-fill"></path>
<path d="M19 11C19.5523 11 20 11.4477 20 12C20 12.5523 19.5523 13 19 13H5C4.44772 13 4 12.5523 4 12C4 11.4477 4.44772 11 5 11H19Z" fill="oklch(0.3523 0 0 / 1)" class="wd-icon-fill"></path>
<path d="M12 2C12.5521 2.00017 13 2.44782 13 3V5H14.5391C14.9435 5 15.1811 5.45573 14.9492 5.78711L12.4092 9.41504C12.2101 9.69925 11.7889 9.69935 11.5898 9.41504L9.05078 5.78711C8.81906 5.45585 9.05576 5.00031 9.45996 5H11V3C11 2.44782 11.4479 2.00017 12 2Z" fill="oklch(0.3523 0 0 / 1)" class="wd-icon-fill"></path>
</g>
</svg>