<svg width="24" height="24" viewBox="0 0 24 24" xmlns="http://www.w3.org/2000/svg" class="wd-icon wd-icon-credit-card" role="presentation">
<g>
<path d="M21 16C21 17.1046 20.1046 18 19 18H5C3.89543 18 3 17.1046 3 16V10H21V16ZM5.75 14.25C5.33579 14.25 5 14.5858 5 15C5 15.4142 5.33579 15.75 5.75 15.75H10.25C10.6642 15.75 11 15.4142 11 15C11 14.5858 10.6642 14.25 10.25 14.25H5.75Z" fill="transparent" class="wd-icon-background"></path>
<path d="M19 6C20.1046 6 21 6.89543 21 8H3C3 6.89543 3.89543 6 5 6H19Z" fill="transparent" class="wd-icon-background"></path>
</g>
<path d="M19 4C21.2091 4 23 5.79086 23 8V16C23 18.2091 21.2091 20 19 20H5C2.79086 20 1 18.2091 1 16V8C1 5.79086 2.79086 4 5 4H19ZM5 6C3.89543 6 3 6.89543 3 8V16C3 17.1046 3.89543 18 5 18H19C20.1046 18 21 17.1046 21 16V8C21 6.89543 20.1046 6 19 6H5Z" fill="oklch(0.3523 0 0 / 1)" class="wd-icon-fill"></path>
<g>
<path d="M10.25 14.25C10.6642 14.25 11 14.5858 11 15C11 15.4142 10.6642 15.75 10.25 15.75H5.75C5.33579 15.75 5 15.4142 5 15C5 14.5858 5.33579 14.25 5.75 14.25H10.25Z" fill="oklch(0.3523 0 0 / 1)" class="wd-icon-accent"></path>
<path d="M21 10H3V8H21V10Z" fill="oklch(0.3523 0 0 / 1)" class="wd-icon-accent"></path>
</g>
</svg>