<svg width="24" height="24" viewBox="0 0 24 24" xmlns="http://www.w3.org/2000/svg" class="wd-icon wd-icon-folder-minus" role="presentation">
<g>
<path d="M7.60645 3.00002C8.05752 3.00002 8.39041 2.99759 8.71973 3.04982C9.08036 3.10705 9.4319 3.21277 9.76367 3.36525C10.0667 3.50456 10.3425 3.69204 10.7178 3.9424L11.3457 4.36135C11.8236 4.68017 11.9649 4.77036 12.1084 4.83303C12.2522 4.89584 12.4031 4.9412 12.5576 4.96877C12.7118 4.99626 12.8792 5.00002 13.4541 5.00002H16.2022C17.0256 5.00002 17.7035 4.999 18.2539 5.04396C18.8159 5.08989 19.3331 5.18831 19.8184 5.43556C20.5708 5.81902 21.1829 6.43114 21.5664 7.18361C21.8137 7.66889 21.9121 8.18605 21.958 8.74806C21.9868 9.09994 21.9946 9.504 21.998 9.96486C21.9985 9.97655 22 9.98823 22 10V10.3487C22.0002 10.4939 22.002 10.6443 22.002 10.7998V11C22.002 11.0138 22.0006 11.0274 22 11.041V14C22 14.5523 21.5523 15 21 15C20.4477 15 20 14.5523 20 14V11H4.00196V14.2002C4.00196 15.0565 4.00231 15.6389 4.03906 16.0889C4.07488 16.5272 4.14006 16.7518 4.21973 16.9082C4.41145 17.2845 4.71752 17.5905 5.09375 17.7822C5.25015 17.8619 5.47469 17.9271 5.91309 17.9629C6.36312 17.9997 6.94538 18 7.80176 18H13C13.5523 18 14 18.4477 14 19C14 19.5523 13.5523 20 13 20H7.80176C6.97828 20 6.30038 20.001 5.75 19.9561C5.18795 19.9101 4.67085 19.8117 4.18555 19.5645C3.43307 19.181 2.82096 18.5689 2.4375 17.8164C2.19026 17.3311 2.09183 16.814 2.0459 16.252C2.00094 15.7016 2.00195 15.0237 2.00196 14.2002V8.60451C2.00195 7.87121 2.00123 7.26722 2.03711 6.77541C2.07373 6.27374 2.15203 5.8104 2.34961 5.36818C2.75138 4.46901 3.47094 3.74942 4.37012 3.34767C4.81236 3.15009 5.27565 3.07179 5.77735 3.03517C6.26918 2.99929 6.87311 3.00002 7.60645 3.00002ZM7.60645 5.00002C6.84382 5.00002 6.32507 5.00095 5.92285 5.03029C5.53105 5.0589 5.32819 5.11063 5.18653 5.17385C4.73694 5.37471 4.37667 5.73502 4.17578 6.18459C4.11256 6.32625 4.06084 6.52915 4.03223 6.92092C4.00289 7.32311 4.00196 7.84194 4.00196 8.60451V9.50002H19.9922C19.9868 9.2786 19.979 9.08495 19.9648 8.91115C19.929 8.4728 19.8639 8.2482 19.7842 8.09181C19.5924 7.7156 19.2864 7.40951 18.9102 7.21779C18.7538 7.13811 18.5292 7.07294 18.0908 7.03713C17.6408 7.00037 17.0585 7.00002 16.2022 7.00002H13.4541C12.9481 7.00002 12.5745 7.00323 12.2061 6.93752C11.897 6.88236 11.5953 6.79168 11.3076 6.66603C10.9647 6.51626 10.6562 6.30616 10.2354 6.02541L9.60742 5.60646C9.18117 5.32211 9.0555 5.24093 8.92871 5.18263C8.76276 5.10634 8.58664 5.05306 8.40625 5.02443C8.26852 5.00262 8.11845 5.00002 7.60645 5.00002Z" fill="oklch(0.3523 0 0 / 1)" class="wd-icon-fill"></path>
<path d="M21.5 17.25C21.9142 17.25 22.25 17.5858 22.25 18C22.25 18.4142 21.9142 18.75 21.5 18.75H16.5C16.0858 18.75 15.75 18.4142 15.75 18C15.75 17.5858 16.0858 17.25 16.5 17.25H21.5Z" fill="oklch(0.3523 0 0 / 1)" class="wd-icon-fill"></path>
</g>
</svg>