<svg width="24" height="24" viewBox="0 0 24 24" xmlns="http://www.w3.org/2000/svg" class="wd-icon wd-icon-calendar-user" role="presentation">
<path d="M16.2012 2C17.0247 2 17.7026 1.99898 18.2529 2.04395C18.815 2.08988 19.3321 2.18828 19.8174 2.43555C20.5699 2.81902 21.182 3.43109 21.5654 4.1836C21.8127 4.6689 21.9111 5.186 21.957 5.74805C22.002 6.29843 22.001 6.97632 22.001 7.79981V12C22.001 12.5523 21.5533 13 21.001 13C20.4487 13 20.001 12.5523 20.001 12V8H4.00098V16.2002C4.00098 17.0566 4.00133 17.6388 4.03809 18.0889C4.07391 18.5273 4.13906 18.7518 4.21875 18.9082C4.41048 19.2845 4.71653 19.5905 5.09278 19.7822C5.24917 19.8619 5.4737 19.9271 5.91211 19.9629C6.36215 19.9997 6.9444 20 7.80078 20H12.001C12.5533 20 13.001 20.4477 13.001 21C13.001 21.5523 12.5533 22 12.001 22H7.80078C6.9773 22 6.2994 22.001 5.74903 21.9561C5.18697 21.9101 4.66987 21.8117 4.18457 21.5645C3.43207 21.181 2.81999 20.5689 2.43653 19.8164C2.18925 19.3311 2.09085 18.814 2.04492 18.252C1.99996 17.7016 2.00098 17.0237 2.00098 16.2002V7.79981C2.00098 6.97632 1.99996 6.29843 2.04492 5.74805C2.09085 5.186 2.18925 4.6689 2.43653 4.1836C2.81999 3.43109 3.43207 2.81902 4.18457 2.43555C4.66987 2.18827 5.18697 2.08988 5.74903 2.04395C6.2994 1.99898 6.9773 2 7.80078 2H16.2012Z" fill="oklch(0.3523 0 0 / 1)" class="wd-icon-fill"></path>
<g>
<path d="M18.9961 19C20.5483 19 21.8946 19.501 22.5576 20.6611C22.8189 21.1186 22.4993 21.6495 21.9814 21.7461C21.3026 21.8723 20.2948 22 18.9961 22C17.6977 22 16.6905 21.8723 16.0117 21.7461C15.4935 21.6497 15.174 21.1187 15.4355 20.6611C16.0986 19.5012 17.444 19 18.9961 19Z" fill="oklch(0.3523 0 0 / 1)" class="wd-icon-accent"></path>
<path d="M18.9961 14C20.1006 14.0001 20.9961 14.8955 20.9961 16C20.9961 17.1045 20.1006 17.9999 18.9961 18C17.8916 17.9999 16.9961 17.1045 16.9961 16C16.9961 14.8955 17.8916 14.0001 18.9961 14Z" fill="oklch(0.3523 0 0 / 1)" class="wd-icon-accent"></path>
<path d="M8.40039 10C8.96018 10 9.24024 10.0004 9.4541 10.1094C9.64207 10.2052 9.79478 10.3579 9.89062 10.5459C9.99959 10.7598 10 11.0398 10 11.5996V12.4004C10 12.9602 9.99959 13.2402 9.89062 13.4541C9.79478 13.6421 9.64207 13.7948 9.4541 13.8906C9.24024 13.9996 8.96018 14 8.40039 14H7.59961C7.03982 14 6.75976 13.9996 6.5459 13.8906C6.35793 13.7948 6.20522 13.6421 6.10938 13.4541C6.00041 13.2402 6 12.9602 6 12.4004V11.5996C6 11.0398 6.00041 10.7598 6.10938 10.5459C6.20522 10.3579 6.35793 10.2052 6.5459 10.1094C6.75976 10.0004 7.03982 10 7.59961 10H8.40039Z" fill="oklch(0.3523 0 0 / 1)" class="wd-icon-accent"></path>
</g>
</svg>