<svg width="24" height="24" viewBox="0 0 24 24" xmlns="http://www.w3.org/2000/svg" class="wd-icon wd-icon-coin-stack" role="presentation">
<path d="M11 4C13.0165 4 14.8857 4.28989 16.2861 4.79004C16.9819 5.03853 17.6157 5.35825 18.0947 5.7627C18.5692 6.16333 19 6.74631 19 7.5V8.5C19 8.56512 18.9954 8.62884 18.9893 8.69141C19.0902 8.72379 19.1896 8.75555 19.2861 8.79004C19.9819 9.03853 20.6157 9.35825 21.0947 9.7627C21.5692 10.1633 22 10.7463 22 11.5V12.5C22 13.2537 21.5692 13.8367 21.0947 14.2373C20.6157 14.6417 19.9819 14.9615 19.2861 15.21C19.1895 15.2445 19.0903 15.2771 18.9893 15.3096C18.9954 15.3718 19 15.4352 19 15.5V16.5C19 17.2537 18.5692 17.8367 18.0947 18.2373C17.6157 18.6417 16.9819 18.9615 16.2861 19.21C14.8857 19.7101 13.0165 20 11 20C8.98346 20 7.11434 19.7101 5.71387 19.21C5.0181 18.9615 4.38435 18.6417 3.90527 18.2373C3.43081 17.8367 3 17.2537 3 16.5V15.5C3 14.7463 3.43081 14.1633 3.90527 13.7627C4.38435 13.3583 5.0181 13.0385 5.71387 12.79C5.81025 12.7556 5.90903 12.7228 6.00977 12.6904C6.00365 12.6282 6 12.5648 6 12.5V11.5C6 11.4352 6.00365 11.3718 6.00977 11.3096C5.90905 11.2772 5.81025 11.2444 5.71387 11.21C5.0181 10.9615 4.38435 10.6417 3.90527 10.2373C3.43081 9.83667 3 9.25369 3 8.5V7.5C3 6.74631 3.43081 6.16333 3.90527 5.7627C4.38435 5.35825 5.0181 5.03853 5.71387 4.79004C7.11434 4.28989 8.98346 4 11 4ZM7.16895 14.4385C6.88789 14.5106 6.62599 14.5884 6.38672 14.6738C5.81586 14.8777 5.42465 15.0974 5.19531 15.291C5.07074 15.3962 5.02381 15.4667 5.00684 15.5C5.02381 15.5333 5.07074 15.6038 5.19531 15.709C5.42465 15.9026 5.81586 16.1223 6.38672 16.3262C7.51973 16.7308 9.15069 17 11 17C12.8493 17 14.4803 16.7308 15.6133 16.3262C16.0757 16.161 16.4192 15.984 16.6553 15.8203C15.8219 15.935 14.9268 16 14 16C11.9835 16 10.1143 15.7101 8.71387 15.21C8.1387 15.0045 7.60701 14.7489 7.16895 14.4385ZM17.8301 10.4385C17.3921 10.7487 16.861 11.0046 16.2861 11.21C14.8857 11.7101 13.0165 12 11 12C10.0728 12 9.17735 11.9351 8.34375 11.8203C8.57988 11.9841 8.92387 12.1609 9.38672 12.3262C10.5197 12.7308 12.1507 13 14 13C15.8493 13 17.4803 12.7308 18.6133 12.3262C19.1841 12.1223 19.5754 11.9026 19.8047 11.709C19.9288 11.6042 19.975 11.5334 19.9922 11.5C19.975 11.4666 19.9288 11.3958 19.8047 11.291C19.5754 11.0974 19.1841 10.8777 18.6133 10.6738C18.3737 10.5883 18.1115 10.5106 17.8301 10.4385ZM11 6C9.15069 6 7.51973 6.26921 6.38672 6.67383C5.81586 6.87771 5.42465 7.09737 5.19531 7.29102C5.07074 7.3962 5.02381 7.46673 5.00684 7.5C5.02381 7.53327 5.07074 7.6038 5.19531 7.70898C5.42465 7.90263 5.81586 8.12229 6.38672 8.32617C7.51973 8.73079 9.15069 9 11 9C12.8493 9 14.4803 8.73079 15.6133 8.32617C16.1841 8.12229 16.5754 7.90263 16.8047 7.70898C16.9288 7.60422 16.975 7.53344 16.9922 7.5C16.975 7.46656 16.9288 7.39578 16.8047 7.29102C16.5754 7.09737 16.1841 6.87771 15.6133 6.67383C14.4803 6.26921 12.8493 6 11 6Z" fill="oklch(0.3523 0 0 / 1)" class="wd-icon-fill"></path>
</svg>