<svg width="24" height="24" viewBox="0 0 24 24" xmlns="http://www.w3.org/2000/svg" class="wd-icon wd-icon-move-row-down" role="presentation">
<g>
<path d="M10.5 7C11.3284 7 12 7.67157 12 8.5V19.5C12 20.3284 11.3284 21 10.5 21H3.5C2.67157 21 2 20.3284 2 19.5V8.5C2 7.67157 2.67157 7 3.5 7H10.5ZM4 19H10V17H4V19ZM4 15H10V13H4V15ZM4 11H10V9H4V11Z" fill="oklch(0.3523 0 0 / 1)" class="wd-icon-fill"></path>
<path d="M18.5 7C18.7761 7 19 7.22386 19 7.5V17.8896L20.4805 16.6797C20.6942 16.505 21.0088 16.5362 21.1836 16.75L21.5 17.1367L21.8174 17.5234C21.992 17.7371 21.9606 18.0527 21.7471 18.2275L18.6338 20.7744C18.611 20.7931 18.5874 20.8108 18.5635 20.8271C18.2005 21.0746 17.7126 21.0566 17.3672 20.7744L14.2549 18.2275C14.0412 18.0527 14.0097 17.7371 14.1846 17.5234L14.8174 16.75C14.9923 16.5365 15.3069 16.5049 15.5205 16.6797L17 17.8896V7.5C17 7.22386 17.2239 7 17.5 7H18.5Z" fill="oklch(0.3523 0 0 / 1)" class="wd-icon-fill"></path>
<path d="M21.5 3C21.7761 3 22 3.22386 22 3.5V4.5C22 4.77614 21.7761 5 21.5 5H2.5C2.22386 5 2 4.77614 2 4.5V3.5C2 3.22386 2.22386 3 2.5 3H21.5Z" fill="oklch(0.3523 0 0 / 1)" class="wd-icon-fill"></path>
</g>
</svg>