<svg width="24" height="24" viewBox="0 0 24 24" xmlns="http://www.w3.org/2000/svg" class="wd-icon wd-icon-donut-chart-user" role="presentation">
<g>
<path d="M11.5 1.01173C11.7757 0.999189 11.9998 1.22403 12 1.50001V2.50001C12 2.77603 11.7765 2.99917 11.5009 3.01466C10.3912 3.07628 9.29999 3.34195 8.28511 3.80177C7.11846 4.33044 6.07792 5.10248 5.23336 6.06544C4.38873 7.02856 3.75954 8.16187 3.38765 9.38771C3.01589 10.6134 2.90998 11.9049 3.07711 13.1748C3.24434 14.4447 3.68108 15.6652 4.35738 16.7529C5.03376 17.8405 5.93513 18.7718 6.99996 19.4834C8.06494 20.1949 9.27045 20.6712 10.5341 20.8799C11.6331 21.0613 12.7552 21.037 13.8427 20.8096C14.113 20.753 14.3875 20.91 14.4589 21.1768L14.7177 22.1426C14.7891 22.4093 14.6309 22.6849 14.3613 22.7442C12.998 23.0438 11.588 23.0813 10.208 22.8535C8.66339 22.5985 7.19032 22.0162 5.88863 21.1465C4.587 20.2767 3.48588 19.138 2.65914 17.8086C1.83248 16.4791 1.29809 14.9877 1.09371 13.4356C0.889465 11.8834 1.01917 10.3048 1.47359 8.80665C1.92812 7.30849 2.69719 5.92418 3.72945 4.74708C4.76176 3.56997 6.03385 2.62668 7.45992 1.98048C8.73399 1.40322 10.1056 1.07521 11.5 1.01173Z" fill="oklch(0.3523 0 0 / 1)" class="wd-icon-fill"></path>
<path d="M21.0937 6.75001C21.3329 6.61197 21.6395 6.69332 21.7666 6.93849C22.3798 8.12193 22.7741 9.4086 22.9277 10.7354C23.1003 12.2279 22.9654 13.7413 22.5312 15.1797C22.0969 16.6179 21.3719 17.9521 20.4023 19.0996C19.5402 20.1198 18.4997 20.9737 17.3339 21.6201C17.0924 21.754 16.7917 21.6517 16.6689 21.4043L16.2246 20.5088C16.1021 20.2617 16.2037 19.9636 16.4433 19.8272C17.3649 19.3039 18.1893 18.6209 18.875 17.8096C19.6683 16.8707 20.2618 15.7783 20.6171 14.6016C20.9724 13.4249 21.0826 12.1868 20.9414 10.9658C20.8192 9.91038 20.5104 8.88548 20.0322 7.93947C19.9077 7.69306 19.9884 7.38808 20.2275 7.25001L21.0937 6.75001Z" fill="oklch(0.3523 0 0 / 1)" class="wd-icon-fill"></path>
<path d="M12 6.00001C13.6568 6.00001 14.9999 7.34321 15 9.00001C15 9.91104 14.5922 10.7252 13.9511 11.2754C14.9718 11.571 15.8967 12.0929 16.667 12.7822C16.8788 12.9718 16.9998 13.2431 17 13.5274V16C17 16.5523 16.5522 17 16 17H7.99996C7.44772 17 6.99996 16.5523 6.99996 16V13.5274C7.00011 13.2431 7.12116 12.9718 7.33297 12.7822C8.10298 12.0931 9.0275 11.5711 10.0478 11.2754C9.40717 10.7252 8.99996 9.91071 8.99996 9.00001C9.00002 7.34324 10.3432 6.00007 12 6.00001ZM12 13C10.8736 13 9.83587 13.3718 8.99996 14V15H15V14C14.164 13.3718 13.1264 13 12 13ZM12 8.00001C11.4478 8.00007 11 8.44781 11 9.00001C11 9.55226 11.4477 9.99995 12 10C12.5522 10 13 9.5523 13 9.00001C12.9999 8.44778 12.5522 8.00001 12 8.00001Z" fill="oklch(0.3523 0 0 / 1)" class="wd-icon-fill"></path>
<path d="M14.5869 1.30861C16.6503 1.80798 18.5263 2.89426 19.9863 4.43556C20.1762 4.63604 20.1522 4.95321 19.9433 5.1338L19.5654 5.46095L19.1865 5.7881C18.9776 5.96827 18.6634 5.94352 18.4716 5.74513C17.3075 4.54061 15.8291 3.68501 14.205 3.27443C13.9372 3.20672 13.7596 2.945 13.8125 2.67384L13.9082 2.18361L14.0029 1.69337C14.0555 1.42228 14.3185 1.24376 14.5869 1.30861Z" fill="oklch(0.3523 0 0 / 1)" class="wd-icon-fill"></path>
</g>
</svg>