<svg width="24" height="24" viewBox="0 0 24 24" xmlns="http://www.w3.org/2000/svg" class="wd-icon wd-icon-document-user-search" role="presentation">
<g>
<path d="M14.2002 1C15.0237 1 15.7016 0.998983 16.252 1.04395C16.8139 1.08987 17.3312 1.18835 17.8164 1.43555C18.5687 1.81897 19.181 2.43131 19.5645 3.1836C19.8116 3.66868 19.9101 4.18628 19.9561 4.74805C20.001 5.29827 20 5.9767 20 6.79981V9.5C19.9998 10.0521 19.5521 10.5 19 10.5C18.4479 10.5 18.0002 10.0521 18 9.5V6.79981C18 5.9439 17.9996 5.36105 17.9629 4.91113C17.9271 4.47331 17.8618 4.24814 17.7823 4.0918C17.5905 3.71576 17.2843 3.40946 16.9082 3.21778C16.7518 3.13813 16.5271 3.07292 16.0889 3.03711C15.6389 3.00035 15.0566 3 14.2002 3H9.79983C8.94348 3 8.36119 3.00036 7.91116 3.03711C7.4729 3.07292 7.24821 3.13812 7.09182 3.21778C6.71573 3.40946 6.40952 3.71573 6.2178 4.0918C6.1382 4.24814 6.07294 4.47326 6.03713 4.91113C6.00041 5.36105 6.00002 5.94389 6.00002 6.79981V18.5C6.00003 18.9949 6.00273 19.1473 6.0176 19.2607C6.13591 20.158 6.84197 20.8643 7.73928 20.9824C7.85283 20.9973 8.00433 21 8.50002 21H12C12.5521 21 12.9998 21.4479 13 22C12.9998 22.5521 12.5521 23 12 23H8.50002C8.06745 23 7.75385 23.0022 7.47756 22.9658C5.68307 22.7294 4.27079 21.3169 4.0342 19.5225C3.99789 19.2463 4.00002 18.9322 4.00002 18.5V6.79981C4.00002 5.9767 3.99904 5.29827 4.04397 4.74805C4.0899 4.18626 4.18846 3.6687 4.43557 3.1836C4.81903 2.43128 5.43127 1.81897 6.18362 1.43555C6.66887 1.18834 7.18608 1.08987 7.74807 1.04395C8.29844 0.998984 8.97637 1 9.79983 1H14.2002Z" fill="oklch(0.3523 0 0 / 1)" class="wd-icon-fill"></path>
<path d="M12.25 17.25C12.6641 17.25 12.9998 17.586 13 18C12.9998 18.414 12.6641 18.75 12.25 18.75H8.25002C7.83594 18.75 7.50024 18.414 7.50002 18C7.50025 17.586 7.83595 17.25 8.25002 17.25H12.25Z" fill="oklch(0.3523 0 0 / 1)" class="wd-icon-fill"></path>
<path d="M12.25 14.25C12.6641 14.25 12.9998 14.586 13 15C12.9998 15.414 12.6641 15.75 12.25 15.75H8.25002C7.83594 15.75 7.50024 15.414 7.50002 15C7.50024 14.586 7.83595 14.25 8.25002 14.25H12.25Z" fill="oklch(0.3523 0 0 / 1)" class="wd-icon-fill"></path>
<path d="M12 10C13.5522 10 14.8985 10.501 15.5615 11.6611C15.8228 12.1186 15.5032 12.6495 14.9854 12.7461C14.3065 12.8723 13.2987 13 12 13C10.7016 13 9.69447 12.8723 9.01565 12.7461C8.49746 12.6497 8.17795 12.1187 8.43948 11.6611C9.10255 10.5012 10.4479 10.0001 12 10Z" fill="oklch(0.3523 0 0 / 1)" class="wd-icon-fill"></path>
<path d="M12 5C13.1045 5.00012 14 5.89551 14 7C14 8.1045 13.1045 8.99988 12 9C10.8956 8.99988 10 8.1045 10 7C10 5.89551 10.8956 5.00012 12 5Z" fill="oklch(0.3523 0 0 / 1)" class="wd-icon-fill"></path>
</g>
<path d="M18 14C20.2091 14.0001 22 15.7909 22 18C22 18.8334 21.7437 19.6064 21.3076 20.2471L22.7803 21.7197C23.073 22.0126 23.073 22.4874 22.7803 22.7803C22.4874 23.073 22.0126 23.073 21.7197 22.7803L20.2471 21.3076C19.6064 21.7437 18.8334 22 18 22C15.7909 22 14 20.2091 14 18C14 15.7909 15.7909 14 18 14ZM18 15.5C16.6193 15.5 15.5 16.6193 15.5 18C15.5 19.3807 16.6193 20.5 18 20.5C19.3806 20.4999 20.5 19.3807 20.5 18C20.5 16.6193 19.3806 15.5001 18 15.5Z" fill="oklch(0.3523 0 0 / 1)" class="wd-icon-accent"></path>
</svg>