<svg width="24" height="24" viewBox="0 0 24 24" xmlns="http://www.w3.org/2000/svg" class="wd-icon wd-icon-calendar-user" role="presentation">
<g>
<path d="M19 19C20.4564 19 21.7919 19.5189 22.8311 20.3818C22.9403 20.4726 22.9999 20.6089 23 20.751V21.5C23 21.7761 22.7761 22 22.5 22H15.5C15.2239 22 15 21.7761 15 21.5V20.751C15.0001 20.6089 15.0597 20.4726 15.1689 20.3818C16.2081 19.5189 17.5436 19 19 19Z" fill="oklch(0.3523 0 0 / 1)" class="wd-icon-accent"></path>
<path d="M19 14C20.1046 14 21 14.8954 21 16C21 17.1046 20.1046 18 19 18C17.8954 18 17 17.1046 17 16C17 14.8954 17.8954 14 19 14Z" fill="oklch(0.3523 0 0 / 1)" class="wd-icon-accent"></path>
<path d="M9.5 11C9.77614 11 10 11.2239 10 11.5V14.5C10 14.7761 9.77614 15 9.5 15H6.5C6.22386 15 6 14.7761 6 14.5V11.5C6 11.2239 6.22386 11 6.5 11H9.5Z" fill="oklch(0.3523 0 0 / 1)" class="wd-icon-accent"></path>
</g>
<path d="M7.5 1C7.77614 1 8 1.22386 8 1.5V3H16V1.5C16 1.22386 16.2239 1 16.5 1H17.5C17.7761 1 18 1.22386 18 1.5V3H21C21.5523 3 22 3.44772 22 4V11.5C22 11.7761 21.7761 12 21.5 12H20.5C20.2239 12 20 11.7761 20 11.5V9H4V19H12.5C12.7761 19 13 19.2239 13 19.5V20.5C13 20.7761 12.7761 21 12.5 21H3C2.44772 21 2 20.5523 2 20V4C2 3.44772 2.44772 3 3 3H6V1.5C6 1.22386 6.22386 1 6.5 1H7.5ZM4 7H20V5H4V7Z" fill="oklch(0.3523 0 0 / 1)" class="wd-icon-fill"></path>
</svg>