<svg width="24" height="24" viewBox="0 0 24 24" xmlns="http://www.w3.org/2000/svg" class="wd-icon wd-icon-x-circle-fill" role="presentation">
<path d="M12 2C17.5227 2.00008 21.9999 6.47725 22 12C22 17.5228 17.5228 21.9999 12 22C6.47715 22 2 17.5228 2 12C2.00006 6.4772 6.47719 2 12 2ZM15.457 8.54297C15.0665 8.15256 14.4335 8.15258 14.043 8.54297L12 10.5859L9.95703 8.54297C9.56654 8.15255 8.93348 8.15258 8.54297 8.54297C8.15247 8.93347 8.15252 9.5665 8.54297 9.95703L10.5859 12L8.54297 14.043C8.15247 14.4335 8.15252 15.0665 8.54297 15.457C8.93351 15.8474 9.56656 15.8475 9.95703 15.457L12 13.4141L14.043 15.457C14.4335 15.8474 15.0666 15.8475 15.457 15.457C15.8474 15.0666 15.8473 14.4335 15.457 14.043L13.4141 12L15.457 9.95703C15.8474 9.56656 15.8473 8.93347 15.457 8.54297Z" fill="oklch(0.3523 0 0 / 1)" class="wd-icon-fill"></path>
</svg>