<svg width="24" height="24" viewBox="0 0 24 24" xmlns="http://www.w3.org/2000/svg" class="wd-icon wd-icon-font-size" role="presentation">
<path d="M17.1152 0.985352C17.8068 1.04006 18.4081 1.49674 18.6416 2.15918L22.6934 13.668C22.8768 14.1889 22.603 14.76 22.082 14.9434C21.5612 15.1265 20.99 14.8528 20.8066 14.332L19.6279 10.9854C19.576 10.9937 19.523 11 19.4687 11H14.4453C14.4046 11 14.3646 10.9969 14.3252 10.9922L13.1523 14.3311C12.9693 14.852 12.3989 15.1262 11.8779 14.9434C11.3571 14.7603 11.0828 14.1899 11.2656 13.6689L15.3086 2.16113L15.3594 2.03125C15.6403 1.39588 16.2722 0.979498 16.9756 0.979492L17.1152 0.985352ZM15.0254 9H18.9297L16.9756 3.44824L15.0254 9Z" fill="oklch(0.3523 0 0 / 1)" class="wd-icon-fill"></path>
<path d="M6.47823 10.0137C7.13612 10.0137 7.72664 10.4041 7.98799 10.999L8.03585 11.1201L11.363 20.6709C11.5447 21.1925 11.2683 21.7627 10.7468 21.9443C10.2254 22.1257 9.65596 21.8504 9.47432 21.3291L8.66085 18.9951C8.63067 18.9979 8.59994 19 8.56905 19H4.35127C4.33224 19 4.31341 18.9981 4.29463 18.9971L3.48311 21.3291C3.30142 21.8506 2.7312 22.126 2.20967 21.9443C1.68844 21.7625 1.41288 21.1923 1.59444 20.6709L4.92159 11.1201L4.96944 10.999C5.23074 10.4043 5.82057 10.0139 6.47823 10.0137ZM4.99092 17H7.96651L6.47823 12.7295L4.99092 17Z" fill="oklch(0.3523 0 0 / 1)" class="wd-icon-accent"></path>
</svg>