<svg width="24" height="24" viewBox="0 0 24 24" xmlns="http://www.w3.org/2000/svg" class="wd-icon wd-icon-table-refresh" role="presentation">
<path d="M16.2002 4C17.0235 4 17.7016 3.99901 18.252 4.04395C18.8139 4.08987 19.3312 4.18838 19.8164 4.43555C20.5689 4.81899 21.181 5.43116 21.5645 6.1836C21.8117 6.66888 21.9101 7.18602 21.9561 7.74805C22.001 8.29842 22 8.97633 22 9.79981V11C22 11.5523 21.5523 12 21 12C20.4479 11.9998 20 11.5522 20 11V10.5H12.75V18.25C12.75 19.1817 12.0217 19.9405 11.1035 19.9941C11.0696 19.9976 11.0349 20 11 20H7.79981C6.97646 20 6.29836 20.001 5.74805 19.9561C5.18612 19.9101 4.66881 19.8117 4.1836 19.5645C3.43121 19.181 2.81897 18.5688 2.43555 17.8164C2.18833 17.3311 2.08987 16.8139 2.04395 16.252C1.99898 15.7016 2 15.0237 2 14.2002V9.79981C2 8.97633 1.99898 8.29842 2.04395 7.74805C2.08987 7.18604 2.18831 6.66887 2.43555 6.1836C2.81898 5.43117 3.4312 4.81903 4.1836 4.43555C4.66881 4.18832 5.18612 4.08989 5.74805 4.04395C6.29836 3.99899 6.97646 4 7.79981 4H16.2002ZM4.00391 15C4.00691 15.4455 4.01314 15.7953 4.03711 16.0889C4.07292 16.5271 4.13812 16.7518 4.21778 16.9082C4.40946 17.2844 4.71567 17.5905 5.0918 17.7822C5.24816 17.8619 5.47293 17.9271 5.91113 17.9629C6.36112 17.9996 6.94359 18 7.79981 18H11.25V15H4.00391ZM4 13.5H11.25V10.5H4V13.5ZM7.79981 6C6.94359 6 6.36112 6.00036 5.91113 6.03711C5.47293 6.07294 5.24816 6.13811 5.0918 6.21778C4.71566 6.40952 4.40947 6.71563 4.21778 7.0918C4.13811 7.24819 4.07292 7.47282 4.03711 7.91113C4.01313 8.20469 4.00691 8.55455 4.00391 9H11.25V6H7.79981ZM12.75 9H19.9961C19.9931 8.55455 19.9869 8.20469 19.9629 7.91113C19.9271 7.47276 19.8619 7.24819 19.7822 7.0918C19.5905 6.71562 19.2844 6.40948 18.9082 6.21778C18.7518 6.13815 18.527 6.07291 18.0889 6.03711C17.6389 6.00038 17.0564 6 16.2002 6H12.75V9Z" fill="oklch(0.3523 0 0 / 1)" class="wd-icon-fill"></path>
<path d="M18.2254 12.8522C18.5577 12.6311 19.0027 12.869 19.0028 13.2682V14.2839C19.691 14.3659 20.3522 14.6121 20.9256 15.0104C21.6372 15.5049 22.1808 16.2052 22.4832 17.0173C22.7857 17.8294 22.8328 18.7148 22.618 19.5544C22.4031 20.3938 21.9364 21.1476 21.2811 21.7145C20.6258 22.2813 19.8126 22.6354 18.951 22.7272C18.0893 22.8189 17.2189 22.6444 16.4588 22.2282C15.6988 21.8118 15.0839 21.1726 14.6971 20.3971C14.3104 19.6216 14.17 18.7459 14.2948 17.8883C14.3546 17.4786 14.7356 17.195 15.1454 17.2546C15.5549 17.3144 15.8385 17.6946 15.7791 18.1042C15.6984 18.6591 15.7896 19.2263 16.0399 19.7282C16.2902 20.2299 16.6878 20.6434 17.1795 20.9128C17.6713 21.1821 18.2343 21.2943 18.7918 21.235C19.3492 21.1756 19.8756 20.9474 20.2996 20.5807C20.7237 20.2139 21.0258 19.7255 21.1649 19.1823C21.3038 18.6391 21.2737 18.0661 21.078 17.5407C20.8823 17.0153 20.5306 16.5618 20.0702 16.2419C19.7486 16.0185 19.384 15.8693 19.0028 15.7985V16.7331C19.0025 17.132 18.5576 17.37 18.2254 17.1491L15.6268 15.4167C15.33 15.2188 15.33 14.7826 15.6268 14.5846L18.2254 12.8522Z" fill="oklch(0.3523 0 0 / 1)" class="wd-icon-accent"></path>
</svg>