<svg width="24" height="24" viewBox="0 0 24 24" xmlns="http://www.w3.org/2000/svg" class="wd-icon wd-icon-camera" role="presentation">
<path d="M12.4287 3.00009C13.3063 3.00009 13.954 2.99023 14.5557 3.17295C15.0579 3.3256 15.5263 3.57632 15.9326 3.91025L16.1006 4.05869C16.3758 4.31994 16.6105 4.63298 16.8643 5.00302C17.4146 5.00544 17.8899 5.01243 18.2969 5.04795C18.8415 5.0955 19.3438 5.19582 19.8164 5.43662C20.5685 5.81999 21.1801 6.43163 21.5635 7.18369L21.6494 7.36728C21.8346 7.79892 21.9158 8.25634 21.9561 8.74814C22.0011 9.29854 22 9.97658 22 10.7999V14.2003C22 15.0236 22.001 15.7016 21.9561 16.252C21.9101 16.8141 21.8106 17.3313 21.5635 17.8165C21.228 18.4746 20.7179 19.0251 20.0918 19.4093L19.8164 19.5636C19.3311 19.8108 18.8141 19.9102 18.252 19.9561C17.7015 20.0012 17.0237 20.0001 16.2002 20.0001H7.79981C6.97633 20.0001 6.29852 20.0012 5.74805 19.9561C5.25613 19.9159 4.79892 19.8347 4.36719 19.6495L4.1836 19.5636C3.43147 19.1802 2.81992 18.5687 2.43653 17.8165C2.18936 17.3313 2.08991 16.8141 2.04395 16.252C1.99897 15.7016 2 15.0236 2 14.2003V10.7999C2 9.97658 1.99895 9.29854 2.04395 8.74814C2.08993 8.18613 2.18931 7.66888 2.43653 7.18369L2.59082 6.9083C2.97502 6.28223 3.52553 5.77205 4.1836 5.43662C4.65587 5.19601 5.15806 5.09555 5.70215 5.04795C6.10829 5.01243 6.58212 5.00548 7.13086 5.00302C7.43522 4.55948 7.71239 4.19895 8.06348 3.91025L8.21875 3.78916C8.58751 3.51545 9.00092 3.30652 9.44043 3.17295C10.0421 2.99023 10.6898 3.00009 11.5674 3.00009H12.4287ZM11.5674 5.00009C10.5672 5.00009 10.2732 5.01096 10.0225 5.08701C9.83368 5.14437 9.65432 5.22901 9.49121 5.33798L9.33301 5.45517C9.14806 5.60734 8.98246 5.82756 8.49707 6.55478L8.2002 7.00009H7.66504C6.85617 7.00021 6.30334 7.00372 5.87598 7.04111C5.46067 7.07746 5.24376 7.14052 5.0918 7.21787C4.76271 7.38559 4.48704 7.64109 4.29492 7.9542L4.21778 8.09189C4.13815 8.24826 4.07393 8.47319 4.03809 8.91123C4.0013 9.36126 4 9.94376 4 10.7999V14.2003C4 15.0564 4.00132 15.6389 4.03809 16.089C4.07391 16.527 4.13819 16.7519 4.21778 16.9083C4.40946 17.2844 4.71571 17.5906 5.0918 17.7823L5.22363 17.839C5.37328 17.8926 5.5821 17.9351 5.91113 17.962C6.36122 17.9988 6.94349 18.0001 7.79981 18.0001H16.2002C17.0565 18.0001 17.6388 17.9988 18.0889 17.962C18.5271 17.9262 18.7518 17.862 18.9082 17.7823L19.0459 17.7052C19.359 17.5131 19.6145 17.2374 19.7822 16.9083C19.8618 16.7519 19.9261 16.527 19.9619 16.089C19.9987 15.6389 20 15.0564 20 14.2003V10.7999C20 9.94376 19.9987 9.36126 19.9619 8.91123C19.935 8.58236 19.8925 8.37332 19.8389 8.22373L19.7822 8.09189C19.5905 7.71586 19.2843 7.40953 18.9082 7.21787C18.7561 7.14045 18.539 7.07647 18.123 7.04013C17.6949 7.00276 17.1407 7.0002 16.3301 7.00009H15.7949L15.498 6.55478C15.1335 6.00866 14.9496 5.7488 14.8027 5.58896L14.6631 5.45517C14.4605 5.28869 14.2255 5.16355 13.9736 5.08701C13.7229 5.01096 13.4289 5.00009 12.4287 5.00009H11.5674Z" fill="oklch(0.3523 0 0 / 1)" class="wd-icon-fill"></path>
<path d="M12 8C14.2091 8 16 9.79086 16 12C16 14.2091 14.2091 16 12 16C9.79086 16 8 14.2091 8 12C8 9.79086 9.79086 8 12 8ZM12 10C10.8954 10 10 10.8954 10 12C10 13.1046 10.8954 14 12 14C13.1046 14 14 13.1046 14 12C14 10.8954 13.1046 10 12 10Z" fill="oklch(0.3523 0 0 / 1)" class="wd-icon-accent"></path>
</svg>