<svg width="24" height="24" viewBox="0 0 24 24" xmlns="http://www.w3.org/2000/svg" class="wd-icon wd-icon-caret-bottom" role="presentation">
<g>
<path d="M17 9C17.5523 9 18 8.55228 18 8C18 7.44772 17.5523 7 17 7H7C6.44772 7 6 7.44772 6 8C6 8.55228 6.44772 9 7 9H17Z" fill="oklch(0.3523 0 0 / 1)" class="wd-icon-fill"></path>
<path d="M12 18.751C12.2278 18.751 12.4436 18.6476 12.5859 18.4697L17.5859 12.2188C17.766 11.9936 17.8017 11.6846 17.6768 11.4248C17.5519 11.1652 17.2891 11.0001 17.001 11H7C6.71182 11 6.44917 11.1651 6.32422 11.4248C6.19932 11.6846 6.23399 11.9936 6.41406 12.2188L11.4141 18.4697C11.5564 18.6477 11.7721 18.751 12 18.751Z" fill="oklch(0.3523 0 0 / 1)" class="wd-icon-fill"></path>
</g>
</svg>