<svg width="24" height="24" viewBox="0 0 24 24" xmlns="http://www.w3.org/2000/svg" class="wd-icon wd-icon-data-bolt" role="presentation">
<g>
<path d="M19.0518 11C19.3838 11.0002 19.6235 11.3184 19.5322 11.6377L18.5713 15H21.1387C21.5224 15.0002 21.7627 15.4148 21.5723 15.748L17.6406 22.6289C17.3649 23.111 16.6263 22.8513 16.7129 22.3027L17.5518 17H15.0898C14.7811 16.9998 14.5461 16.7225 14.5967 16.418L15.4307 11.418C15.4708 11.1769 15.6794 11 15.9238 11H19.0518Z" fill="oklch(0.3523 0 0 / 1)" class="wd-icon-fill"></path>
<path d="M12 2C14.2972 2 16.4215 2.34755 18.0078 2.94238C18.7973 3.23843 19.5062 3.61502 20.0352 4.08398C20.5628 4.5519 21 5.19722 21 6V8.5C21 8.77614 20.7761 9 20.5 9H19.5C19.2607 9 19.0609 8.83192 19.0117 8.60742C18.6989 8.77374 18.362 8.92479 18.0078 9.05762C16.4215 9.65245 14.2972 10 12 10C9.70276 10 7.57848 9.65245 5.99219 9.05762C5.64251 8.92649 5.30944 8.77802 5 8.61426V10C5 10.0255 5.01023 10.1701 5.29199 10.4199C5.57269 10.6687 6.03643 10.9378 6.69434 11.1846C8.00342 11.6754 9.8792 12 12 12C12.1522 12 12.3033 11.9985 12.4531 11.9951C12.7291 11.9889 12.9635 12.2009 12.9766 12.4766L13.0234 13.4756C13.0364 13.7515 12.823 13.9864 12.5469 13.9932C12.366 13.9976 12.1836 14 12 14C9.70292 14 7.57842 13.6524 5.99219 13.0576C5.64259 12.9265 5.30941 12.778 5 12.6143V14C5 14.0255 5.01023 14.1701 5.29199 14.4199C5.57269 14.6687 6.03643 14.9378 6.69434 15.1846C8.00342 15.6754 9.8792 16 12 16C12.1522 16 12.3033 15.9985 12.4531 15.9951C12.7291 15.9889 12.9635 16.2009 12.9766 16.4766L13.0234 17.4756C13.0364 17.7515 12.823 17.9864 12.5469 17.9932C12.366 17.9976 12.1836 18 12 18C9.70292 18 7.57842 17.6524 5.99219 17.0576C5.6425 16.9265 5.30924 16.7784 5 16.6143V18C5 18.0255 5.01013 18.17 5.29199 18.4199C5.5727 18.6687 6.03626 18.9378 6.69434 19.1846C8.00346 19.6755 9.87903 20 12 20C12.1522 20 12.3033 19.9985 12.4531 19.9951C12.7291 19.9889 12.9634 20.2009 12.9766 20.4766L13.0234 21.4756C13.0364 21.7515 12.823 21.9864 12.5469 21.9932C12.366 21.9976 12.1836 22 12 22C9.70276 22 7.57848 21.6525 5.99219 21.0576C5.20273 20.7616 4.49379 20.385 3.96484 19.916C3.43717 19.4481 3 18.8028 3 18V6C3 5.19722 3.43717 4.5519 3.96484 4.08398C4.49379 3.61502 5.20273 3.23843 5.99219 2.94238C7.57848 2.34755 9.70276 2 12 2ZM12 4C9.87903 4 8.00346 4.32451 6.69434 4.81543C6.03626 5.06222 5.5727 5.33126 5.29199 5.58008C5.01013 5.82998 5 5.97447 5 6C5 6.02553 5.01013 6.17002 5.29199 6.41992C5.5727 6.66874 6.03626 6.93778 6.69434 7.18457C8.00346 7.67549 9.87903 8 12 8C14.121 8 15.9965 7.67549 17.3057 7.18457C17.9637 6.93778 18.4273 6.66874 18.708 6.41992C18.9899 6.17002 19 6.02553 19 6C19 5.97447 18.9899 5.82998 18.708 5.58008C18.4273 5.33126 17.9637 5.06222 17.3057 4.81543C15.9965 4.32451 14.121 4 12 4Z" fill="oklch(0.3523 0 0 / 1)" class="wd-icon-fill"></path>
</g>
</svg>