<svg width="24" height="24" viewBox="0 0 24 24" xmlns="http://www.w3.org/2000/svg" class="wd-icon wd-icon-shield-life" role="presentation">
<path d="M12.0001 2C14.7717 2 17.3435 2.86899 19.4542 4.34863C19.775 4.5735 20.0645 4.76837 20.3488 5.12598C20.5683 5.40229 20.7769 5.8022 20.8771 6.14062C21.0091 6.58641 21.0001 7.00909 21.0001 7.48633V9.5C21.0001 12.9478 19.6305 16.2544 17.1925 18.6924C16.1027 19.7822 14.8391 20.6568 13.4679 21.292C13.1755 21.4274 12.9193 21.5507 12.5177 21.6211C12.2248 21.6724 11.7755 21.6724 11.4825 21.6211C11.081 21.5507 10.8247 21.4274 10.5324 21.292C9.16116 20.6568 7.89751 19.7822 6.80774 18.6924C4.36976 16.2544 3.00013 12.9478 3.00013 9.5V7.48633C3.00013 7.00909 2.9912 6.58641 3.12317 6.14062C3.2234 5.8022 3.4319 5.40229 3.65149 5.12598C3.93573 4.76837 4.22524 4.5735 4.54603 4.34863C6.65678 2.869 9.22852 2.00001 12.0001 2ZM12.0001 4C9.65256 4.00001 7.47979 4.73484 5.69446 5.98633C5.34168 6.23363 5.2933 6.27403 5.21692 6.37012C5.15693 6.44562 5.0685 6.61656 5.04114 6.70898C5.00865 6.81888 5.00013 6.91958 5.00013 7.48633V9.5C5.00013 12.4174 6.15892 15.2154 8.22181 17.2783C9.14315 18.1997 10.2123 18.9398 11.3732 19.4775C11.673 19.6164 11.7134 19.6314 11.8273 19.6514C11.8273 19.6514 11.8425 19.6529 11.879 19.6553C11.9138 19.6576 11.9556 19.6592 12.0001 19.6592C12.0446 19.6592 12.0865 19.6576 12.1212 19.6553C12.1577 19.6529 12.173 19.6514 12.173 19.6514C12.2869 19.6314 12.3272 19.6164 12.6271 19.4775C13.7879 18.9398 14.8571 18.1997 15.7784 17.2783C17.8413 15.2154 19.0001 12.4174 19.0001 9.5V7.48633C19.0001 6.91959 18.9916 6.81888 18.9591 6.70898C18.9318 6.61656 18.8433 6.44562 18.7833 6.37012C18.707 6.27403 18.6586 6.23363 18.3058 5.98633C16.5205 4.73484 14.3477 4 12.0001 4Z" fill="oklch(0.3523 0 0 / 1)" class="wd-icon-fill"></path>
<path d="M11.9492 7.09961C12.3634 7.09964 12.6992 7.43541 12.6992 7.84961V10.2871L14.8115 9.06836C15.1702 8.86152 15.6289 8.98514 15.8359 9.34375C16.0428 9.70242 15.9201 10.1611 15.5615 10.3682L13.501 11.5566L15.5108 12.7178C15.8695 12.9249 15.9923 13.3844 15.7852 13.7432C15.578 14.1016 15.1193 14.2244 14.7608 14.0176L12.6992 12.8271V15.1494C12.6992 15.5636 12.3634 15.8994 11.9492 15.8994C11.535 15.8994 11.1992 15.5636 11.1992 15.1494V12.8857L9.23927 14.0176C8.88055 14.2247 8.42196 14.1019 8.21485 13.7432C8.00787 13.3845 8.13064 12.9258 8.48927 12.7188L10.5 11.5566L8.43848 10.3672C8.07987 10.16 7.957 9.70145 8.16407 9.34277C8.37117 8.98407 8.82977 8.86128 9.18849 9.06836L11.1992 10.2285V7.84961C11.1992 7.4354 11.535 7.09961 11.9492 7.09961Z" fill="oklch(0.3523 0 0 / 1)" class="wd-icon-accent"></path>
</svg>