<svg width="24" height="24" viewBox="0 0 24 24" xmlns="http://www.w3.org/2000/svg" class="wd-icon wd-icon-rocket" role="presentation">
<path d="M20.1909 3.01301C20.6301 3.03456 20.9662 3.37073 20.9878 3.80988C21.0743 5.57253 20.9133 10.1586 17.3894 13.6824C16.7234 14.3485 16.0477 14.9173 15.3834 15.4053L15.1935 18.6336C15.1351 19.6228 14.5917 20.5198 13.742 21.0297L12.1703 21.973C11.8748 22.1502 11.4925 21.9819 11.4232 21.6443L10.6394 17.8194C9.76543 18.0904 9.10461 18.2069 8.77775 18.2517C8.63325 18.2715 8.49148 18.2194 8.38829 18.1164L5.88511 15.6132C5.78189 15.51 5.72924 15.3676 5.74907 15.223C5.79392 14.8961 5.9104 14.2353 6.18134 13.3614L2.35717 12.5783C2.01953 12.5091 1.85136 12.1267 2.02847 11.8311L3.24312 9.80579C3.58313 9.23936 4.18149 8.87784 4.84102 8.83904L8.59407 8.61738C9.08217 7.95287 9.65212 7.27763 10.3183 6.61138C13.8421 3.08764 18.4281 2.92651 20.1909 3.01301Z" fill="transparent" class="wd-icon-background"></path>
<g>
<path d="M9.60986 5.90378C13.4352 2.07842 18.3807 1.92199 20.2388 2.01315L20.4146 2.03073C21.2242 2.14654 21.8524 2.77485 21.9683 3.58444L21.9858 3.76022L21.9985 4.14401C22.0426 6.23219 21.6817 10.8027 18.0952 14.3891L17.5659 14.8979C17.1625 15.2706 16.7555 15.6093 16.353 15.9214L16.1899 18.6919C16.1121 20.0107 15.3881 21.2063 14.2554 21.8862L12.6841 22.8296L12.6831 22.8305C11.7956 23.3624 10.6497 22.8565 10.4419 21.8452L9.87158 19.059C9.45522 19.155 9.12823 19.2131 8.9126 19.2426C8.43696 19.3078 7.98948 19.1314 7.68115 18.8237L5.17725 16.3198C4.86997 16.0125 4.69182 15.5641 4.75732 15.0864C4.78692 14.8707 4.84406 14.5437 4.93994 14.1274L2.15478 13.5581C1.14218 13.3503 0.638204 12.2036 1.16943 11.3169L2.38428 9.29147L2.38525 9.2905C2.89563 8.44061 3.79273 7.89863 4.78076 7.8403L8.07666 7.64499C8.38897 7.24247 8.72847 6.83611 9.10107 6.43307L9.60986 5.90378ZM19.9927 4.00632C18.2341 3.9427 14.1546 4.18715 11.0239 7.31784L10.5688 7.79147C10.1313 8.26475 9.74328 8.73968 9.39892 9.20846L9.1206 9.58835L4.89892 9.83737C4.56884 9.85679 4.26981 10.037 4.1001 10.3188L3.24756 11.7387L7.46142 12.603L7.13525 13.6577C6.94461 14.2727 6.83817 14.7689 6.78076 15.0952L8.90478 17.2192C9.23105 17.1618 9.72728 17.0544 10.3423 16.8637L11.397 16.5376L12.2603 20.7514L13.2261 20.1723C13.7925 19.8324 14.1558 19.234 14.1948 18.5747L14.4116 14.8774L14.7905 14.5991C15.4165 14.1393 16.0531 13.603 16.6812 12.9751C19.8122 9.84406 20.0564 5.76457 19.9927 4.00632Z" fill="oklch(0.3523 0 0 / 1)" class="wd-icon-fill"></path>
<path d="M3.26318 16.5258C3.43993 16.314 3.75844 16.3152 3.95361 16.5102L4.66064 17.2173C4.85581 17.4124 4.85236 17.727 4.68799 17.9487C4.63057 18.0261 4.57762 18.1033 4.53076 18.1801C4.38027 18.4271 4.28034 18.6724 4.21533 18.9057C4.11337 19.2717 4.09676 19.6135 4.11182 19.8862C4.38478 19.9014 4.72753 19.8858 5.09424 19.7837C5.27024 19.7346 5.45309 19.6654 5.63818 19.5698L5.82471 19.4653C5.89932 19.4196 5.97551 19.3693 6.05127 19.313C6.27262 19.1484 6.58652 19.1436 6.78174 19.3383L7.48975 20.0454C7.68475 20.2406 7.68592 20.56 7.47412 20.7368C7.27614 20.9018 7.07353 21.0455 6.86963 21.1704C6.7787 21.226 6.68707 21.2767 6.59619 21.3247C6.5713 21.3378 6.54587 21.3511 6.521 21.3637C6.43282 21.4084 6.34493 21.4498 6.25732 21.4878C6.24375 21.4936 6.22987 21.4986 6.21631 21.5044C6.17891 21.5202 6.14221 21.5376 6.10498 21.5522C6.09707 21.5553 6.08753 21.5545 6.07959 21.5571C5.9277 21.6159 5.77895 21.6693 5.63135 21.7104C4.814 21.9382 4.0838 21.9117 3.60107 21.8462C2.84377 21.7433 2.25676 21.1562 2.15381 20.3989C2.08826 19.9162 2.06084 19.1861 2.28857 18.3686C2.32977 18.2208 2.38299 18.0715 2.44189 17.9194C2.44447 17.9116 2.44473 17.9027 2.44775 17.895C2.45606 17.8739 2.46643 17.8527 2.4751 17.8315C2.50196 17.766 2.5315 17.7002 2.56201 17.6342C2.58624 17.5819 2.60963 17.5285 2.63623 17.476C2.64497 17.4588 2.65456 17.4415 2.66357 17.4243C2.71155 17.3324 2.76318 17.2397 2.81885 17.1479C2.8224 17.142 2.82499 17.1353 2.82861 17.1294H2.83057C2.95473 16.9268 3.09785 16.7244 3.26318 16.5258Z" fill="oklch(0.3523 0 0 / 1)" class="wd-icon-fill"></path>
</g>
<path d="M14.5 7C15.8807 7 17 8.11929 17 9.5C17 10.8807 15.8807 12 14.5 12C13.1193 12 12 10.8807 12 9.5C12 8.11929 13.1193 7 14.5 7Z" fill="oklch(0.3523 0 0 / 1)" class="wd-icon-accent"></path>
</svg>