<svg width="24" height="24" viewBox="0 0 24 24" xmlns="http://www.w3.org/2000/svg" class="wd-icon wd-icon-arrow-up-from-line" role="presentation">
<g>
<path d="M18.0005 17.9999C18.5527 17.9999 19.0003 18.4478 19.0005 18.9999C19.0005 19.5522 18.5528 19.9999 18.0005 19.9999H6.00049C5.4482 19.9999 5.00049 19.5522 5.00049 18.9999C5.00068 18.4478 5.44832 17.9999 6.00049 17.9999H18.0005Z" fill="oklch(0.3523 0 0 / 1)" class="wd-icon-fill"></path>
<path d="M11.2935 4.29382C11.684 3.9034 12.317 3.90333 12.7075 4.29382L16.7075 8.29382C17.0975 8.68435 17.0978 9.31753 16.7075 9.70788C16.3172 10.098 15.684 10.0978 15.2935 9.70788L12.9995 7.41394V15.0008C12.9992 15.5528 12.5516 16.0008 11.9995 16.0008C11.4477 16.0006 10.9999 15.5527 10.9995 15.0008V7.41589L8.70752 9.70788C8.31718 10.0979 7.68394 10.0977 7.29346 9.70788C6.90302 9.31744 6.90319 8.68436 7.29346 8.29382L11.2935 4.29382Z" fill="oklch(0.3523 0 0 / 1)" class="wd-icon-fill"></path>
</g>
</svg>