<svg width="24" height="24" viewBox="0 0 24 24" xmlns="http://www.w3.org/2000/svg" class="wd-icon wd-icon-medal" role="presentation">
<path d="M10.7475 3C11.1607 3 11.5531 3.17014 11.8345 3.46582L11.9477 3.59961L12.2798 4.04297L12.5083 3.68848L12.6216 3.53613C12.9044 3.19892 13.3245 3.00005 13.771 3H18.563C19.761 3 20.4756 4.3352 19.811 5.33203L16.478 10.332C16.1998 10.7493 15.7315 11 15.23 11H12.9975V12.0996C15.2799 12.5628 16.9975 14.581 16.9975 17C16.9975 19.7614 14.759 22 11.9975 22C9.2362 21.9999 6.99754 19.7614 6.99754 17C6.99754 14.5811 8.71534 12.5629 10.9975 12.0996V11H8.99754V10.9727C8.60092 10.9005 8.24487 10.6737 8.01707 10.332L4.68406 5.33203C4.01963 4.33526 4.73421 3.00013 5.93211 3H10.7475ZM11.9975 14C10.3408 14.0001 8.99754 15.3432 8.99754 17C8.99754 18.6568 10.3408 19.9999 11.9975 20C13.6544 20 14.9975 18.6569 14.9975 17C14.9975 15.3431 13.6544 14 11.9975 14ZM9.5327 9H13.4975L10.4975 5H6.86668L9.5327 9ZM13.56 5.75L15.4487 8.26855L17.6284 5H14.0434L13.56 5.75Z" fill="oklch(0.3523 0 0 / 1)" class="wd-icon-fill"></path>
</svg>