<svg width="24" height="24" viewBox="0 0 24 24" xmlns="http://www.w3.org/2000/svg" class="wd-icon wd-icon-package-check" role="presentation">
<path d="M18.9238 9C18.972 9.21432 19 9.43417 19 9.65723V18C19 18.5523 18.5523 19 18 19H6C5.44772 19 5 18.5523 5 18V9.65723C5 9.43417 5.028 9.21432 5.07617 9H18.9238ZM14.8145 11.4238C14.4964 11.1588 14.023 11.2016 13.7578 11.5195L11 14.8281L9.91016 13.5195C9.64504 13.2016 9.17164 13.159 8.85352 13.4238C8.53544 13.689 8.49266 14.1623 8.75781 14.4805L10.4248 16.4805C10.5673 16.6512 10.7786 16.75 11.001 16.75C11.2233 16.7498 11.4348 16.6512 11.5771 16.4805L14.9102 12.4805C15.1749 12.1624 15.1322 11.689 14.8145 11.4238Z" fill="transparent" class="wd-icon-background"></path>
<path d="M15.1719 3C15.9674 3.00008 16.7304 3.31642 17.293 3.87891L19.5352 6.12109C20.4728 7.05875 21 8.33118 21 9.65723V18C21 19.6569 19.6569 21 18 21H6C4.34317 21 3 19.6568 3 18V9.65723C3.00003 8.33118 3.52719 7.05875 4.46484 6.12109L6.70703 3.87891C7.26956 3.3164 8.03262 3.00009 8.82812 3H15.1719ZM5.07617 9C5.028 9.21429 5.00001 9.43421 5 9.65723V18C5 18.5523 5.44774 19 6 19H18C18.5523 19 19 18.5523 19 18V9.65723C19 9.43421 18.972 9.21429 18.9238 9H5.07617ZM8.82812 5C8.56305 5.00009 8.30854 5.10553 8.12109 5.29297L6.41406 7H11V5H8.82812ZM13 7H17.5859L15.8789 5.29297C15.6914 5.10555 15.4369 5.00008 15.1719 5H13V7Z" fill="oklch(0.3523 0 0 / 1)" class="wd-icon-fill"></path>
<path d="M13.7579 11.5196C14.0231 11.2016 14.4965 11.1588 14.8146 11.4239C15.1324 11.689 15.1751 12.1624 14.9103 12.4805L11.5773 16.4805C11.4349 16.6513 11.2234 16.7499 11.0011 16.75C10.7787 16.75 10.5674 16.6513 10.4249 16.4805L8.75792 14.4805C8.49276 14.1623 8.53555 13.6891 8.85362 13.4239C9.17175 13.159 9.64513 13.2017 9.91027 13.5196L11.0001 14.8282L13.7579 11.5196Z" fill="oklch(0.3523 0 0 / 1)" class="wd-icon-accent"></path>
</svg>