<svg width="24" height="24" viewBox="0 0 24 24" xmlns="http://www.w3.org/2000/svg" class="wd-icon wd-icon-sparkle-focus-split" role="presentation">
<g>
<path d="M4 1C4.55228 1 5 1.44772 5 2V22C5 22.5523 4.55228 23 4 23C3.44772 23 3 22.5523 3 22V2C3 1.44772 3.44772 1 4 1Z" fill="oklch(0.3523 0 0 / 1)" class="wd-icon-fill"></path>
<path d="M8 19C8.55206 19.0002 8.99986 19.4479 9 20C8.99991 20.5521 8.55209 20.9998 8 21C7.59241 21 7.2502 21 6.96582 20.9902C6.41414 20.9711 5.98219 20.5087 6.00098 19.957C6.01992 19.4052 6.48244 18.9735 7.03418 18.9922C7.27651 19.0005 7.57951 19 8 19Z" fill="oklch(0.3523 0 0 / 1)" class="wd-icon-fill"></path>
<path d="M20 15C20.5521 15.0002 20.9999 15.4479 21 16C21 16.8654 21.0081 17.4945 20.8633 18.0352C20.4934 19.4153 19.4153 20.4933 18.0352 20.8633C17.4946 21.008 16.8652 21 16 21C15.4479 20.9998 15 20.5521 15 20C15.0001 19.4479 15.4479 19.0002 16 19C16.9935 19 17.2954 18.9911 17.5176 18.9316C18.2075 18.7466 18.7467 18.2076 18.9316 17.5176C18.9911 17.2953 19 16.9939 19 16C19.0001 15.4479 19.4479 15.0002 20 15Z" fill="oklch(0.3523 0 0 / 1)" class="wd-icon-fill"></path>
<path d="M11.2266 7.63086C11.3991 6.78976 12.6008 6.78979 12.7734 7.63086C13.031 8.86872 13.3549 9.62292 13.8672 10.1357C14.3794 10.6481 15.1318 10.9713 16.3691 11.2266C17.2101 11.3993 17.2103 12.601 16.3691 12.7734L15.9277 12.873C14.947 13.1145 14.313 13.4188 13.8643 13.8672C13.3519 14.3794 13.0287 15.1318 12.7734 16.3691C12.6008 17.2102 11.3991 17.2102 11.2266 16.3691L11.127 15.9268C10.8855 14.9463 10.5811 14.313 10.1328 13.8643C9.62056 13.3519 8.86816 13.0287 7.63086 12.7734C6.78899 12.6014 6.79041 11.4001 7.63184 11.2275V11.2256C8.86908 10.9681 9.62306 10.645 10.1357 10.1328C10.6481 9.62056 10.9713 8.86818 11.2266 7.63086Z" fill="oklch(0.3523 0 0 / 1)" class="wd-icon-fill"></path>
<path d="M16 3C16.8652 3 17.4946 2.99195 18.0352 3.13672C19.4154 3.50664 20.4934 4.5846 20.8633 5.96484C21.0082 6.50553 21 7.1345 21 8C21 8.55215 20.5521 8.99984 20 9C19.4479 8.99979 19 8.55212 19 8C19 7.00578 18.9912 6.70469 18.9316 6.48242C18.7467 5.79237 18.2076 5.25335 17.5176 5.06836C17.2954 5.00889 16.9936 5 16 5C15.4479 4.99979 15 4.55212 15 4C15.0001 3.44792 15.4479 3.00021 16 3Z" fill="oklch(0.3523 0 0 / 1)" class="wd-icon-fill"></path>
<path d="M8 3C8.55209 3.00016 8.99991 3.44789 9 4C8.99996 4.55215 8.55212 4.99984 8 5C7.57951 5 7.27651 5.00048 7.03418 5.00879C6.48248 5.02744 6.01996 4.59472 6.00098 4.04297C5.98233 3.49137 6.41422 3.02891 6.96582 3.00977C7.25019 3.00002 7.59241 3 8 3Z" fill="oklch(0.3523 0 0 / 1)" class="wd-icon-fill"></path>
</g>
</svg>