<svg width="24" height="24" viewBox="0 0 24 24" xmlns="http://www.w3.org/2000/svg" class="wd-icon wd-icon-diamond" role="presentation">
<path d="M11.3156 2.42727C11.7023 2.28649 12.1219 2.26896 12.5167 2.37454L12.6847 2.42727L12.8029 2.47512C13.0685 2.59563 13.2704 2.77131 13.4288 2.9302C13.6035 3.10533 13.7941 3.33312 13.9933 3.57083L19.6554 10.3296C19.7989 10.5008 19.943 10.6713 20.0538 10.8257C20.1719 10.9903 20.2951 11.1934 20.3683 11.4488C20.4713 11.8085 20.4713 12.1905 20.3683 12.5503C20.2952 12.8057 20.1719 13.0088 20.0538 13.1734C19.9431 13.3277 19.7988 13.4983 19.6554 13.6695L13.9933 20.4282C13.7942 20.6658 13.6034 20.8938 13.4288 21.0689C13.2477 21.2505 13.0095 21.4534 12.6847 21.5718C12.2426 21.7328 11.7577 21.7328 11.3156 21.5718C10.9906 21.4534 10.7526 21.2505 10.5714 21.0689C10.3968 20.8937 10.2061 20.666 10.007 20.4282L4.34486 13.6695C4.2014 13.4982 4.05722 13.3278 3.94642 13.1734C3.82835 13.0087 3.70515 12.8058 3.63197 12.5503C3.52895 12.1905 3.52891 11.8086 3.63197 11.4488C3.70517 11.1934 3.82838 10.9903 3.94642 10.8257C4.05721 10.6713 4.20148 10.5007 4.34486 10.3296L10.007 3.57083C10.2061 3.33321 10.3968 3.10527 10.5714 2.9302C10.7525 2.74863 10.9908 2.54558 11.3156 2.42727ZM11.9874 4.34231C11.8885 4.44155 11.7622 4.59101 11.5402 4.85598L5.87806 11.6138C5.71562 11.8077 5.62829 11.9125 5.57142 11.9917C5.56951 11.9944 5.56729 11.9971 5.56556 11.9995C5.56732 12.002 5.56945 12.0046 5.57142 12.0073C5.62828 12.0866 5.71544 12.1912 5.87806 12.3853L11.5402 19.1431C11.7623 19.4082 11.8884 19.5575 11.9874 19.6568C11.9915 19.6609 11.9964 19.6639 12.0001 19.6675C12.0038 19.664 12.0088 19.6608 12.0128 19.6568C12.1118 19.5575 12.2381 19.408 12.4601 19.1431L18.1222 12.3853C18.2847 12.1913 18.372 12.0866 18.4288 12.0073C18.4306 12.0048 18.4321 12.0018 18.4337 11.9995C18.4321 11.9972 18.4307 11.9943 18.4288 11.9917C18.372 11.9125 18.2848 11.8079 18.1222 11.6138L12.4601 4.85598C12.238 4.59086 12.1118 4.44158 12.0128 4.34231C12.0086 4.33803 12.004 4.33436 12.0001 4.33059C11.9964 4.33429 11.9916 4.33813 11.9874 4.34231Z" fill="oklch(0.3523 0 0 / 1)" class="wd-icon-fill"></path>
</svg>