<svg width="24" height="24" viewBox="0 0 24 24" xmlns="http://www.w3.org/2000/svg" class="wd-icon wd-icon-bar-stack-chart" role="presentation">
<g>
<path d="M7 10C7.55228 10 8 10.4477 8 11V20C8 20.2652 7.89457 20.5195 7.70703 20.707C7.5195 20.8946 7.26522 21 7 21H3C2.44772 21 2 20.5523 2 20V11C2 10.4477 2.44772 10 3 10H7ZM4 19H6V12H4V19Z" fill="oklch(0.3523 0 0 / 1)" class="wd-icon-fill"></path>
<path d="M14 14C14.2652 14 14.5195 14.1054 14.707 14.293C14.8946 14.4805 15 14.7348 15 15V20C15 20.5523 14.5523 21 14 21H10C9.44772 21 9 20.5523 9 20V15C9 14.4477 9.44772 14 10 14H14ZM11 19H13V16H11V19Z" fill="oklch(0.3523 0 0 / 1)" class="wd-icon-fill"></path>
<path d="M21 12C21.5523 12 22 12.4477 22 13V20C22 20.2652 21.8946 20.5195 21.707 20.707C21.5195 20.8946 21.2652 21 21 21H17C16.4477 21 16 20.5523 16 20V13C16 12.4477 16.4477 12 17 12H21ZM18 19H20V14H18V19Z" fill="oklch(0.3523 0 0 / 1)" class="wd-icon-fill"></path>
</g>
<g>
<path d="M14 1C14.5523 1 15 1.44772 15 2V12C15 12.5523 14.5523 13 14 13H10C9.44772 13 9 12.5523 9 12V2C9 1.44772 9.44772 1 10 1H14Z" fill="oklch(0.3523 0 0 / 1)" class="wd-icon-accent"></path>
<path d="M21 3C21.5523 3 22 3.44772 22 4V10C22 10.5523 21.5523 11 21 11H17C16.4477 11 16 10.5523 16 10V4C16 3.44772 16.4477 3 17 3H21Z" fill="oklch(0.3523 0 0 / 1)" class="wd-icon-accent"></path>
<path d="M7 5C7.55228 5 8 5.44772 8 6V8C8 8.55228 7.55228 9 7 9H3C2.44772 9 2 8.55228 2 8V6L2.00488 5.89746C2.05621 5.39333 2.48232 5 3 5H7Z" fill="oklch(0.3523 0 0 / 1)" class="wd-icon-accent"></path>
</g>
</svg>