<svg width="24" height="24" viewBox="0 0 24 24" xmlns="http://www.w3.org/2000/svg" class="wd-icon wd-icon-clipboard-success" role="presentation">
<path d="M12.1797 1.00488C12.9966 1.05318 13.7235 1.43039 14.2334 2H15.5C16.1529 2 16.707 2.41774 16.9131 3H18.5C19.3283 3.00007 19.9999 3.67166 20 4.5V20.5C20 21.3284 19.3283 21.9999 18.5 22H5.5C4.67166 21.9999 4 21.3284 4 20.5V4.5C4.00006 3.67171 4.67173 3.00014 5.5 3H7.08789C7.29394 2.41773 7.84814 2.00007 8.50098 2H9.76855C10.3156 1.3892 11.1119 1.00005 12.001 1L12.1797 1.00488ZM6 20H18V5H17V6.52734C17 7.35577 16.3284 8.02734 15.5 8.02734H8.50098C7.67263 8.02725 7.00098 7.35571 7.00098 6.52734V5H6V20ZM12.001 3C11.6846 3.00005 11.402 3.14722 11.2168 3.38184C10.9668 3.69825 10.5393 3.99996 9.98242 4H9.00098V6.02734H15V4H14.0186C13.4615 3.9999 13.0341 3.69755 12.7842 3.38086C12.599 3.14634 12.3169 3.00014 12.001 3Z" fill="oklch(0.3523 0 0 / 1)" class="wd-icon-fill"></path>
<path d="M14.9396 10.6464C15.1348 10.4512 15.4513 10.4512 15.6466 10.6464L16.3536 11.3534C16.5488 11.5487 16.5488 11.8652 16.3536 12.0605L11.7071 16.707C11.3167 17.0972 10.6836 17.0972 10.2931 16.707L8.14658 14.5605C7.95142 14.3653 7.95151 14.0487 8.14658 13.8534L8.85361 13.1464C9.04887 12.9512 9.36539 12.9512 9.56064 13.1464L11.0001 14.5859L14.9396 10.6464Z" fill="oklch(0.3523 0 0 / 1)" class="wd-icon-accent"></path>
</svg>