<svg width="24" height="24" viewBox="0 0 24 24" xmlns="http://www.w3.org/2000/svg" class="wd-icon wd-icon-arrow-left" role="presentation">
<path d="M8.04639 4.25412C8.22116 4.04052 8.53578 4.00823 8.74951 4.18283L9.52295 4.81564C9.73663 4.99047 9.76899 5.30602 9.59424 5.51974L7.15967 8.49533L7.15576 8.49826L5.11084 10.9992H21.5005C21.7765 10.9992 22.0003 11.2232 22.0005 11.4992V12.4992C22.0005 12.7754 21.7766 12.9992 21.5005 12.9992H5.11084L9.59424 18.4797C9.76902 18.6934 9.73664 19.009 9.52295 19.1838L9.13721 19.5002L8.74951 19.8166C8.53593 19.9911 8.22124 19.9595 8.04639 19.7463L5.61084 16.7697C5.60936 16.7679 5.60839 16.7657 5.60694 16.7639L2.22608 12.632C1.92534 12.2639 1.92525 11.7346 2.22608 11.3664L8.04639 4.25412Z" fill="oklch(0.3523 0 0 / 1)" class="wd-icon-fill"></path>
</svg>