<svg width="24" height="24" viewBox="0 0 24 24" xmlns="http://www.w3.org/2000/svg" class="wd-icon wd-icon-share" role="presentation">
<path d="M18 2C20.2091 2 22 3.79086 22 6C22 8.20914 20.2091 10 18 10C16.7509 10 15.6359 9.42722 14.9023 8.53027L8.93457 11.2842C8.97656 11.5165 9 11.7556 9 12C9 12.2438 8.97634 12.4821 8.93457 12.7139L14.9023 15.4688C15.6359 14.5721 16.7512 14 18 14C20.2091 14 22 15.7909 22 18C22 20.2091 20.2091 22 18 22C15.7909 22 14 20.2091 14 18C14 17.7556 14.0225 17.5165 14.0645 17.2842L8.09668 14.5303C7.36314 15.4269 6.24886 16 5 16C2.79086 16 1 14.2091 1 12C1 9.79086 2.79086 8 5 8C6.24831 8 7.36313 8.57177 8.09668 9.46777L14.0645 6.71289C14.0228 6.4815 14 6.24338 14 6C14 3.79086 15.7909 2 18 2ZM18 16C16.8954 16 16 16.8954 16 18C16 19.1046 16.8954 20 18 20C19.1046 20 20 19.1046 20 18C20 16.8954 19.1046 16 18 16ZM5 10C3.89543 10 3 10.8954 3 12C3 13.1046 3.89543 14 5 14C6.10457 14 7 13.1046 7 12C7 10.8954 6.10457 10 5 10ZM18 4C16.8954 4 16 4.89543 16 6C16 7.10457 16.8954 8 18 8C19.1046 8 20 7.10457 20 6C20 4.89543 19.1046 4 18 4Z" fill="oklch(0.3523 0 0 / 1)" class="wd-icon-fill"></path>
</svg>