<svg width="24" height="24" viewBox="0 0 24 24" xmlns="http://www.w3.org/2000/svg" class="wd-icon wd-icon-arrow-corner-up-left" role="presentation">
<path d="M8.29476 4.29286C8.68526 3.90236 9.3183 3.9024 9.70882 4.29286C10.0992 4.6834 10.0993 5.31645 9.70882 5.70692L7.41683 7.99892H10.9998C15.9703 7.99892 19.9997 12.0285 19.9998 16.9989V18.9999C19.9996 19.552 19.552 19.9999 18.9998 19.9999C18.4477 19.9999 18 19.552 17.9998 18.9999V16.9989C17.9997 13.133 14.8658 9.99892 10.9998 9.99892H7.41488L9.70882 12.2929C10.0991 12.6834 10.0992 13.3165 9.70882 13.7069C9.31837 14.0973 8.68527 14.0972 8.29476 13.7069L4.29476 9.70692C3.90434 9.31643 3.90436 8.68337 4.29476 8.29286L8.29476 4.29286Z" fill="oklch(0.3523 0 0 / 1)" class="wd-icon-fill"></path>
</svg>