<svg width="24" height="24" viewBox="0 0 24 24" xmlns="http://www.w3.org/2000/svg" class="wd-icon wd-icon-chevron-up" role="presentation">
<path d="M11.3671 7.2256C11.7352 6.92477 12.2645 6.92483 12.6327 7.2256L16.7684 10.6094L16.7694 10.6104L19.746 13.0459C19.9594 13.2207 19.9909 13.5354 19.8163 13.749L19.4999 14.1367L19.1835 14.5234C19.0087 14.7367 18.6939 14.7682 18.4803 14.5938L15.5038 12.1592L15.4999 12.1553L11.9999 9.292L8.49889 12.1553L8.49596 12.1592L5.5194 14.5938C5.30582 14.7682 4.99112 14.7367 4.81628 14.5234L4.49987 14.1367L4.18346 13.749C4.00883 13.5353 4.04022 13.2207 4.25378 13.0459L7.22936 10.6104C7.23093 10.6091 7.23266 10.6077 7.23424 10.6065L11.3671 7.2256Z" fill="oklch(0.3523 0 0 / 1)" class="wd-icon-fill"></path>
</svg>