<svg width="24" height="24" viewBox="0 0 24 24" xmlns="http://www.w3.org/2000/svg" class="wd-icon wd-icon-reference-line" role="presentation">
<g>
<path d="M8.4004 2.00001C8.66379 2.00001 8.92188 1.9989 9.13869 2.01662C9.36718 2.03531 9.63697 2.07958 9.90822 2.21779C10.2374 2.38556 10.5129 2.64088 10.7051 2.95412L10.7822 3.09181L10.8692 3.29494C10.9406 3.49576 10.9694 3.69008 10.9834 3.86134C11.0011 4.07814 11 4.33625 11 4.59962V17.4004C11 17.6638 11.0011 17.9219 10.9834 18.1387C10.9647 18.3672 10.9204 18.637 10.7822 18.9082C10.5905 19.2845 10.2845 19.5905 9.90822 19.7822C9.63696 19.9205 9.36719 19.9647 9.13869 19.9834C8.92188 20.0011 8.66379 20 8.4004 20H7.59962C7.33624 20 7.07815 20.0011 6.86134 19.9834C6.63284 19.9647 6.36307 19.9205 6.09181 19.7822C5.71557 19.5905 5.40952 19.2845 5.21779 18.9082C5.07959 18.637 5.03531 18.3672 5.01662 18.1387C4.99891 17.9219 5.00001 17.6638 5.00001 17.4004V4.59962C5.00001 4.33625 4.9989 4.07814 5.01662 3.86134C5.03531 3.63285 5.07958 3.36306 5.21779 3.09181C5.40952 2.71557 5.71557 2.40952 6.09181 2.21779C6.36307 2.07958 6.63284 2.03531 6.86134 2.01662C7.07815 1.9989 7.33624 2.00001 7.59962 2.00001H8.4004ZM7.59962 4.00001C7.30335 4.00001 7.14096 4.00124 7.02443 4.01076C7.01997 4.01112 7.01573 4.01136 7.01173 4.01173C7.01137 4.01572 7.01112 4.01998 7.01076 4.02443C7.00124 4.14096 7.00001 4.30337 7.00001 4.59962V17.4004C7.00001 17.6966 7.00124 17.8591 7.01076 17.9756C7.01109 17.9797 7.0114 17.9836 7.01173 17.9873C7.01576 17.9877 7.01994 17.9889 7.02443 17.9893C7.14096 17.9988 7.30335 18 7.59962 18H8.4004C8.69667 18 8.85907 17.9988 8.9756 17.9893C8.97973 17.9889 8.98358 17.9877 8.98732 17.9873C8.98767 17.9836 8.98893 17.9797 8.98927 17.9756C8.99879 17.8591 9.00001 17.6966 9.00001 17.4004V4.59962C9.00001 4.30337 8.99879 4.14096 8.98927 4.02443C8.9889 4.01995 8.98769 4.01575 8.98732 4.01173C8.98361 4.01139 8.97969 4.01109 8.9756 4.01076C8.85907 4.00124 8.69667 4.00001 8.4004 4.00001H7.59962Z" fill="oklch(0.3523 0 0 / 1)" class="wd-icon-fill"></path>
<path d="M16.4004 11C16.6638 11 16.9219 10.9989 17.1387 11.0166C17.3672 11.0353 17.637 11.0796 17.9082 11.2178C18.2374 11.3856 18.5129 11.6409 18.7051 11.9541L18.7822 12.0918L18.8692 12.2949C18.9406 12.4958 18.9694 12.6901 18.9834 12.8613C19.0011 13.0781 19 13.3362 19 13.5996V17.4004C19 17.6638 19.0011 17.9219 18.9834 18.1387C18.9647 18.3672 18.9204 18.637 18.7822 18.9082C18.5905 19.2845 18.2845 19.5905 17.9082 19.7822C17.637 19.9205 17.3672 19.9647 17.1387 19.9834C16.9219 20.0011 16.6638 20 16.4004 20H15.5996C15.3362 20 15.0782 20.0011 14.8613 19.9834C14.6328 19.9647 14.3631 19.9205 14.0918 19.7822C13.7156 19.5905 13.4095 19.2845 13.2178 18.9082C13.0796 18.637 13.0353 18.3672 13.0166 18.1387C12.9989 17.9219 13 17.6638 13 17.4004V13.5996C13 13.3362 12.9989 13.0781 13.0166 12.8613C13.0353 12.6328 13.0796 12.3631 13.2178 12.0918C13.4095 11.7156 13.7156 11.4095 14.0918 11.2178C14.3631 11.0796 14.6328 11.0353 14.8613 11.0166C15.0782 10.9989 15.3362 11 15.5996 11H16.4004ZM15.5996 13C15.3034 13 15.141 13.0012 15.0244 13.0108C15.02 13.0111 15.0157 13.0114 15.0117 13.0117C15.0114 13.0157 15.0111 13.02 15.0108 13.0244C15.0012 13.141 15 13.3034 15 13.5996V17.4004C15 17.6966 15.0012 17.8591 15.0108 17.9756C15.0111 17.9797 15.0114 17.9836 15.0117 17.9873C15.0158 17.9877 15.0199 17.9889 15.0244 17.9893C15.141 17.9988 15.3034 18 15.5996 18H16.4004C16.6967 18 16.8591 17.9988 16.9756 17.9893C16.9797 17.9889 16.9836 17.9877 16.9873 17.9873C16.9877 17.9836 16.9889 17.9797 16.9893 17.9756C16.9988 17.8591 17 17.6966 17 17.4004V13.5996C17 13.3034 16.9988 13.141 16.9893 13.0244C16.9889 13.02 16.9877 13.0157 16.9873 13.0117C16.9836 13.0114 16.9797 13.0111 16.9756 13.0108C16.8591 13.0012 16.6967 13 16.4004 13H15.5996Z" fill="oklch(0.3523 0 0 / 1)" class="wd-icon-fill"></path>
</g>
<g>
<path d="M3 7C3.55228 7 4 7.44772 4 8C4 8.55228 3.55228 9 3 9H2C1.44772 9 1 8.55228 1 8C1 7.44772 1.44772 7 2 7H3Z" fill="oklch(0.3523 0 0 / 1)" class="wd-icon-accent"></path>
<path d="M14 7C14.5523 7 15 7.44772 15 8C15 8.55228 14.5523 9 14 9H13C12.4477 9 12 8.55228 12 8C12 7.44772 12.4477 7 13 7H14Z" fill="oklch(0.3523 0 0 / 1)" class="wd-icon-accent"></path>
<path d="M18 7C18.5523 7 19 7.44772 19 8C19 8.55228 18.5523 9 18 9H17C16.4477 9 16 8.55228 16 8C16 7.44772 16.4477 7 17 7H18Z" fill="oklch(0.3523 0 0 / 1)" class="wd-icon-accent"></path>
<path d="M22 7C22.5523 7 23 7.44772 23 8C23 8.55228 22.5523 9 22 9H21C20.4477 9 20 8.55228 20 8C20 7.44772 20.4477 7 21 7H22Z" fill="oklch(0.3523 0 0 / 1)" class="wd-icon-accent"></path>
</g>
</svg>