<svg width="24" height="24" viewBox="0 0 24 24" xmlns="http://www.w3.org/2000/svg" class="wd-icon wd-icon-pause-circle-dashed" role="presentation">
<g>
<path d="M12 20C12.1408 20 12.281 19.9964 12.4199 19.9893C12.9713 19.961 13.4412 20.3851 13.4697 20.9365C13.4981 21.488 13.074 21.9579 12.5225 21.9863C12.3493 21.9953 12.1752 22 12 22C11.8248 22 11.6507 21.9953 11.4775 21.9863C10.926 21.9579 10.5019 21.488 10.5303 20.9365C10.5588 20.3851 11.0287 19.961 11.5801 19.9893C11.719 19.9964 11.8592 20 12 20Z" fill="oklch(0.3523 0 0 / 1)" class="wd-icon-fill"></path>
<path d="M6.25977 19.0039C6.561 18.5411 7.18068 18.4098 7.64355 18.7109C7.87695 18.8628 8.11894 19.0026 8.36816 19.1299C8.85994 19.381 9.05475 19.9838 8.80371 20.4756C8.55254 20.9674 7.94985 21.1622 7.45801 20.9111C7.14629 20.752 6.84435 20.5765 6.55273 20.3867C6.08993 20.0855 5.95869 19.4668 6.25977 19.0039Z" fill="oklch(0.3523 0 0 / 1)" class="wd-icon-fill"></path>
<path d="M16.3564 18.7109C16.8193 18.4098 17.439 18.5411 17.7402 19.0039C18.0413 19.4668 17.9101 20.0855 17.4473 20.3867C17.1557 20.5765 16.8537 20.752 16.542 20.9111C16.0502 21.1622 15.4475 20.9674 15.1963 20.4756C14.9453 19.9838 15.1401 19.381 15.6318 19.1299C15.8811 19.0026 16.1231 18.8628 16.3564 18.7109Z" fill="oklch(0.3523 0 0 / 1)" class="wd-icon-fill"></path>
<path d="M3.52441 15.1963C4.01622 14.9452 4.61893 15.1401 4.87012 15.6318C4.99735 15.881 5.13722 16.1231 5.28906 16.3564C5.59028 16.8193 5.45895 17.439 4.99609 17.7402C4.53321 18.0413 3.91447 17.9101 3.61328 17.4473C3.42354 17.1557 3.24803 16.8537 3.08887 16.542C2.83784 16.0502 3.03267 15.4474 3.52441 15.1963Z" fill="oklch(0.3523 0 0 / 1)" class="wd-icon-fill"></path>
<path d="M19.1299 15.6318C19.3811 15.1401 19.9838 14.9452 20.4756 15.1963C20.9673 15.4474 21.1622 16.0502 20.9111 16.542C20.752 16.8537 20.5765 17.1557 20.3867 17.4473C20.0855 17.9101 19.4668 18.0413 19.0039 17.7402C18.541 17.439 18.4097 16.8193 18.7109 16.3564C18.8628 16.1231 19.0026 15.881 19.1299 15.6318Z" fill="oklch(0.3523 0 0 / 1)" class="wd-icon-fill"></path>
<path d="M9.375 8C9.72369 8 9.89814 7.99998 10.04 8.04297C10.3596 8.13992 10.6101 8.39036 10.707 8.70996C10.75 8.85186 10.75 9.02631 10.75 9.375V14.625C10.75 14.9737 10.75 15.1481 10.707 15.29C10.6101 15.6096 10.3596 15.8601 10.04 15.957C9.89814 16 9.72369 16 9.375 16C9.02631 16 8.85186 16 8.70996 15.957C8.39036 15.8601 8.13992 15.6096 8.04297 15.29C7.99999 15.1481 8 14.9737 8 14.625V9.375C8 9.02631 7.99998 8.85186 8.04297 8.70996C8.13992 8.39036 8.39036 8.13992 8.70996 8.04297C8.85186 7.99998 9.02631 8 9.375 8Z" fill="oklch(0.3523 0 0 / 1)" class="wd-icon-fill"></path>
<path d="M14.625 8C14.9737 8 15.1481 7.99998 15.29 8.04297C15.6096 8.13992 15.8601 8.39036 15.957 8.70996C16 8.85186 16 9.02631 16 9.375V14.625C16 14.9737 16 15.1481 15.957 15.29C15.8601 15.6096 15.6096 15.8601 15.29 15.957C15.1481 16 14.9737 16 14.625 16C14.2763 16 14.1019 16 13.96 15.957C13.6404 15.8601 13.3899 15.6096 13.293 15.29C13.25 15.1481 13.25 14.9737 13.25 14.625V9.375C13.25 9.02631 13.25 8.85186 13.293 8.70996C13.3899 8.39036 13.6404 8.13992 13.96 8.04297C14.1019 7.99998 14.2763 8 14.625 8Z" fill="oklch(0.3523 0 0 / 1)" class="wd-icon-fill"></path>
<path d="M3.06348 10.5303C3.61489 10.5587 4.03896 11.0287 4.01074 11.5801C4.00358 11.7189 4 11.8592 4 12C4 12.1408 4.00358 12.2811 4.01074 12.4199C4.03903 12.9713 3.61493 13.4413 3.06348 13.4697C2.51199 13.4981 2.04211 13.074 2.01367 12.5225C2.00475 12.3494 2 12.1751 2 12C2 11.8249 2.00475 11.6506 2.01367 11.4775C2.04218 10.9261 2.51203 10.5019 3.06348 10.5303Z" fill="oklch(0.3523 0 0 / 1)" class="wd-icon-fill"></path>
<path d="M20.9365 10.5303C21.488 10.5019 21.9578 10.9261 21.9863 11.4775C21.9953 11.6506 22 11.8249 22 12C22 12.1751 21.9952 12.3494 21.9863 12.5225C21.9579 13.074 21.488 13.4981 20.9365 13.4697C20.3851 13.4413 19.961 12.9713 19.9893 12.4199C19.9964 12.2811 20 12.1408 20 12C20 11.8592 19.9964 11.7189 19.9893 11.5801C19.961 11.0287 20.3851 10.5587 20.9365 10.5303Z" fill="oklch(0.3523 0 0 / 1)" class="wd-icon-fill"></path>
<path d="M3.61328 6.55273C3.91448 6.08997 4.53324 5.95875 4.99609 6.25977C5.45897 6.56097 5.59022 7.18066 5.28906 7.64355C5.13721 7.87693 4.99735 8.11896 4.87012 8.36816C4.61895 8.85997 4.01626 9.05482 3.52441 8.80371C3.03267 8.55252 2.83777 7.94983 3.08887 7.45801C3.24803 7.14631 3.42354 6.84433 3.61328 6.55273Z" fill="oklch(0.3523 0 0 / 1)" class="wd-icon-fill"></path>
<path d="M19.0039 6.25977C19.4668 5.95875 20.0855 6.08997 20.3867 6.55273C20.5765 6.84433 20.752 7.1463 20.9111 7.45801C21.1622 7.94983 20.9673 8.55252 20.4756 8.80371C19.9837 9.05482 19.381 8.85997 19.1299 8.36816C19.0026 8.11896 18.8628 7.87693 18.7109 7.64355C18.4098 7.18066 18.541 6.56097 19.0039 6.25977Z" fill="oklch(0.3523 0 0 / 1)" class="wd-icon-fill"></path>
<path d="M7.45801 3.08887C7.9498 2.83782 8.55251 3.03272 8.80371 3.52441C9.05482 4.01625 8.85993 4.61894 8.36816 4.87012C8.11894 4.99736 7.87695 5.13721 7.64355 5.28906C7.18065 5.59029 6.56099 5.459 6.25977 4.99609C5.95875 4.53322 6.08991 3.91445 6.55273 3.61328C6.84434 3.42353 7.14629 3.24803 7.45801 3.08887Z" fill="oklch(0.3523 0 0 / 1)" class="wd-icon-fill"></path>
<path d="M15.1963 3.52441C15.4475 3.03272 16.0502 2.83782 16.542 3.08887C16.8537 3.24803 17.1557 3.42353 17.4473 3.61328C17.9101 3.91445 18.0412 4.53322 17.7402 4.99609C17.439 5.459 16.8194 5.59029 16.3564 5.28906C16.1231 5.13721 15.8811 4.99736 15.6318 4.87012C15.1401 4.61894 14.9452 4.01625 15.1963 3.52441Z" fill="oklch(0.3523 0 0 / 1)" class="wd-icon-fill"></path>
<path d="M12.5225 2.01367C13.0739 2.04211 13.498 2.51204 13.4697 3.06348C13.4413 3.61493 12.9714 4.03903 12.4199 4.01074C12.281 4.00358 12.1408 4 12 4C11.8592 4 11.719 4.00358 11.5801 4.01074C11.0286 4.03903 10.5587 3.61493 10.5303 3.06348C10.502 2.51204 10.9261 2.04211 11.4775 2.01367C11.6507 2.00475 11.8248 2 12 2C12.1752 2 12.3493 2.00475 12.5225 2.01367Z" fill="oklch(0.3523 0 0 / 1)" class="wd-icon-fill"></path>
</g>
</svg>