<svg width="24" height="24" viewBox="0 0 24 24" xmlns="http://www.w3.org/2000/svg" class="wd-icon wd-icon-calendar-day-21" role="presentation">
<g>
<path d="M15.0869 10.5049C15.5254 10.5049 15.8808 10.8604 15.8809 11.2988V16.668C15.8808 17.0694 15.5557 17.3944 15.1543 17.3945C14.753 17.3943 14.4268 17.0693 14.4268 16.668V12.3936L14.25 12.5254C13.8356 12.8319 13.248 12.536 13.248 12.0205C13.2482 11.8259 13.339 11.6422 13.4932 11.5234L14.6025 10.6699C14.7412 10.5633 14.912 10.505 15.0869 10.5049Z" fill="oklch(0.3523 0 0 / 1)" class="wd-icon-fill"></path>
<path d="M9.58008 10.3721C10.0419 10.3721 10.4523 10.4619 10.8018 10.6523C11.1519 10.8342 11.4236 11.0888 11.6055 11.416L11.6709 11.5381C11.8121 11.8267 11.8818 12.1405 11.8818 12.4756C11.8818 12.8363 11.8051 13.1845 11.6523 13.5166C11.5043 13.8384 11.3089 14.1427 11.0674 14.4287L11.0664 14.4277C10.837 14.7005 10.5487 15.0006 10.2031 15.3281L9.95215 15.5723L9.9502 15.5732L9.37891 16.1143H11.3174C11.669 16.1144 11.9541 16.3993 11.9541 16.751C11.9541 17.1027 11.669 17.3875 11.3174 17.3877H7.9668C7.54696 17.3877 7.2062 17.0477 7.20606 16.6279C7.20606 16.4199 7.2918 16.2207 7.44238 16.0772L9.00293 14.5898L9.00391 14.5889L9.31836 14.292C9.55705 14.0471 9.75605 13.825 9.91602 13.625L9.91895 13.6211C10.0813 13.4251 10.207 13.2296 10.2988 13.0352C10.3865 12.8435 10.4277 12.6573 10.4277 12.4756C10.4276 12.1941 10.3448 12.0016 10.2012 11.8662L10.1982 11.8633C10.0466 11.7161 9.85023 11.6367 9.58887 11.6367C9.38768 11.6368 9.22367 11.6822 9.08789 11.7637C8.94632 11.8486 8.83581 11.9628 8.75488 12.1104C8.72972 12.1563 8.70791 12.2038 8.68946 12.2529C8.57988 12.5446 8.30952 12.8613 7.90821 12.8613C7.51806 12.8611 7.11537 12.5173 7.24317 12.0537C7.29749 11.8568 7.37811 11.6693 7.48438 11.4922L7.48535 11.4912C7.69467 11.1469 7.98229 10.8741 8.34278 10.6738C8.70862 10.4706 9.12336 10.3721 9.58008 10.3721Z" fill="oklch(0.3523 0 0 / 1)" class="wd-icon-fill"></path>
<path d="M16.2012 2C17.0247 2 17.7026 1.99898 18.2529 2.04395C18.815 2.08988 19.3321 2.18828 19.8174 2.43555C20.5699 2.81902 21.182 3.43109 21.5654 4.1836C21.8127 4.6689 21.9111 5.18599 21.957 5.74805C22.002 6.29843 22.001 6.97632 22.001 7.79981V16.2002C22.001 17.0237 22.002 17.7016 21.957 18.252C21.9111 18.814 21.8127 19.3311 21.5654 19.8164C21.182 20.5689 20.5699 21.181 19.8174 21.5645C19.3321 21.8117 18.815 21.9101 18.2529 21.9561C17.7026 22.001 17.0247 22 16.2012 22H7.80078C6.9773 22 6.2994 22.001 5.74903 21.9561C5.18697 21.9101 4.66988 21.8117 4.18457 21.5645C3.43207 21.181 2.81999 20.5689 2.43653 19.8164C2.18925 19.3311 2.09085 18.814 2.04492 18.252C1.99996 17.7016 2.00098 17.0237 2.00098 16.2002V7.79981C2.00098 6.97632 1.99996 6.29843 2.04492 5.74805C2.09085 5.18599 2.18925 4.6689 2.43653 4.1836C2.81999 3.43109 3.43207 2.81902 4.18457 2.43555C4.66988 2.18827 5.18697 2.08988 5.74903 2.04395C6.2994 1.99898 6.9773 2 7.80078 2H16.2012ZM4.00098 16.2002C4.00098 17.0566 4.00133 17.6388 4.03809 18.0889C4.07391 18.5273 4.13906 18.7518 4.21875 18.9082C4.41049 19.2845 4.71652 19.5905 5.09278 19.7822C5.24917 19.8619 5.4737 19.9271 5.91211 19.9629C6.36215 19.9997 6.9444 20 7.80078 20H16.2012C17.0576 20 17.6398 19.9997 18.0898 19.9629C18.5283 19.9271 18.7528 19.8619 18.9092 19.7822C19.2854 19.5905 19.5915 19.2845 19.7832 18.9082C19.8629 18.7518 19.928 18.5273 19.9639 18.0889C20.0006 17.6388 20.001 17.0566 20.001 16.2002V8H4.00098V16.2002Z" fill="oklch(0.3523 0 0 / 1)" class="wd-icon-fill"></path>
</g>
</svg>