<svg width="24" height="24" viewBox="0 0 24 24" xmlns="http://www.w3.org/2000/svg" class="wd-icon wd-icon-list-check" role="presentation">
<g>
<path d="M7.42383 14.0195C7.68895 13.7015 8.1623 13.6589 8.48047 13.9238C8.7984 14.189 8.84121 14.6624 8.57617 14.9805L6.07617 17.9805C5.93375 18.1512 5.72236 18.2499 5.5 18.25C5.2777 18.2499 5.06623 18.1512 4.92383 17.9805L3.67383 16.4805C3.40893 16.1624 3.45163 15.689 3.76953 15.4238C4.08759 15.1589 4.56096 15.2017 4.82617 15.5195L5.5 16.3281L7.42383 14.0195Z" fill="oklch(0.3523 0 0 / 1)" class="wd-icon-fill"></path>
<path d="M20.0039 15C20.5562 15 21.0039 15.4477 21.0039 16C21.0039 16.5523 20.5562 17 20.0039 17H11.0039C10.4516 17 10.0039 16.5523 10.0039 16C10.0039 15.4477 10.4516 15 11.0039 15H20.0039Z" fill="oklch(0.3523 0 0 / 1)" class="wd-icon-fill"></path>
<path d="M6.00391 5.25C7.52269 5.25 8.75391 6.48122 8.75391 8C8.75391 9.51878 7.52269 10.75 6.00391 10.75C4.48512 10.75 3.25391 9.51878 3.25391 8C3.25391 6.48122 4.48512 5.25 6.00391 5.25ZM6.00391 6.75C5.31355 6.75 4.75391 7.30964 4.75391 8C4.75391 8.69036 5.31355 9.25 6.00391 9.25C6.69426 9.25 7.25391 8.69036 7.25391 8C7.25391 7.30964 6.69426 6.75 6.00391 6.75Z" fill="oklch(0.3523 0 0 / 1)" class="wd-icon-fill"></path>
<path d="M20.0039 7C20.5562 7 21.0039 7.44772 21.0039 8C21.0039 8.55228 20.5562 9 20.0039 9H11.0039C10.4516 9 10.0039 8.55228 10.0039 8C10.0039 7.44772 10.4516 7 11.0039 7H20.0039Z" fill="oklch(0.3523 0 0 / 1)" class="wd-icon-fill"></path>
</g>
</svg>