<svg width="24" height="24" viewBox="0 0 24 24" xmlns="http://www.w3.org/2000/svg" class="wd-icon wd-icon-add-above" role="presentation">
<g>
<path d="M12.4941 10C12.7702 10.0001 12.9941 10.2239 12.9941 10.5V13.9932H16.5C16.7761 13.9932 17 14.217 17 14.4932V15.4932C17 15.7693 16.7761 15.9932 16.5 15.9932H12.9941V19.5C12.9941 19.7761 12.7702 19.9999 12.4941 20H11.4941C11.218 20 10.9941 19.7761 10.9941 19.5V15.9932H7.5C7.22386 15.9932 7 15.7693 7 15.4932V14.4932C7 14.217 7.22386 13.9932 7.5 13.9932H10.9941V10.5C10.9941 10.2239 11.218 10 11.4941 10H12.4941Z" fill="oklch(0.3523 0 0 / 1)" class="wd-icon-fill"></path>
<path d="M19.5 5C19.7761 5 20 5.22386 20 5.5V6.5C20 6.77614 19.7761 7 19.5 7H4.5C4.22386 7 4 6.77614 4 6.5V5.5C4 5.22386 4.22386 5 4.5 5H19.5Z" fill="oklch(0.3523 0 0 / 1)" class="wd-icon-fill"></path>
</g>
</svg>