<svg width="24" height="24" viewBox="0 0 24 24" xmlns="http://www.w3.org/2000/svg" class="wd-icon wd-icon-configure" role="presentation">
<g>
<path d="M12 15C12.5523 15 13 15.4477 13 16C13 16.5523 12.5523 17 12 17C11.4477 17 11 16.5523 11 16C11 15.4477 11.4477 15 12 15Z" fill="transparent" class="wd-icon-background"></path>
<path d="M19 9C19.5523 9 20 9.44772 20 10C20 10.5523 19.5523 11 19 11C18.4477 11 18 10.5523 18 10C18 9.44772 18.4477 9 19 9Z" fill="transparent" class="wd-icon-background"></path>
<path d="M5 8C5.55228 8 6 8.44772 6 9C6 9.55228 5.55228 10 5 10C4.44772 10 4 9.55228 4 9C4 8.44772 4.44772 8 5 8Z" fill="transparent" class="wd-icon-background"></path>
</g>
<g>
<path d="M5 2C5.55228 2 6 2.44772 6 3V6.17383C7.16468 6.58594 8 7.69415 8 9C8 10.3057 7.16452 11.413 6 11.8252V21C6 21.5523 5.55228 22 5 22C4.44772 22 4 21.5523 4 21V11.8252C2.83548 11.413 2 10.3057 2 9C2 7.69415 2.83532 6.58594 4 6.17383V3C4 2.44772 4.44772 2 5 2ZM5 8C4.44772 8 4 8.44772 4 9C4 9.55228 4.44772 10 5 10C5.55228 10 6 9.55228 6 9C6 8.44772 5.55228 8 5 8Z" fill="oklch(0.3523 0 0 / 1)" class="wd-icon-fill"></path>
<path d="M12 2C12.5523 2 13 2.44772 13 3V13.1738C14.1647 13.5859 15 14.6941 15 16C15 17.3057 14.1645 18.413 13 18.8252V21C13 21.5523 12.5523 22 12 22C11.4477 22 11 21.5523 11 21V18.8252C9.83548 18.413 9 17.3057 9 16C9 14.6941 9.83532 13.5859 11 13.1738V3C11 2.44772 11.4477 2 12 2ZM12 15C11.4477 15 11 15.4477 11 16C11 16.5523 11.4477 17 12 17C12.5523 17 13 16.5523 13 16C13 15.4477 12.5523 15 12 15Z" fill="oklch(0.3523 0 0 / 1)" class="wd-icon-fill"></path>
<path d="M19 2C19.5523 2 20 2.44772 20 3V7.17383C21.1647 7.58594 22 8.69415 22 10C22 11.3057 21.1645 12.413 20 12.8252V21C20 21.5523 19.5523 22 19 22C18.4477 22 18 21.5523 18 21V12.8252C16.8355 12.413 16 11.3057 16 10C16 8.69415 16.8353 7.58594 18 7.17383V3C18 2.44772 18.4477 2 19 2ZM19 9C18.4477 9 18 9.44772 18 10C18 10.5523 18.4477 11 19 11C19.5523 11 20 10.5523 20 10C20 9.44772 19.5523 9 19 9Z" fill="oklch(0.3523 0 0 / 1)" class="wd-icon-fill"></path>
</g>
</svg>