<svg width="24" height="24" viewBox="0 0 24 24" xmlns="http://www.w3.org/2000/svg" class="wd-icon wd-icon-grid-dots-thick" role="presentation">
<g>
<path d="M6.00391 16C7.10848 16 8.00391 16.8954 8.00391 18C8.00391 19.1046 7.10848 20 6.00391 20C4.89934 20 4.00391 19.1046 4.00391 18C4.00391 16.8954 4.89934 16 6.00391 16Z" fill="oklch(0.3523 0 0 / 1)" class="wd-icon-fill"></path>
<path d="M12.0039 16C13.1085 16 14.0039 16.8954 14.0039 18C14.0039 19.1046 13.1085 20 12.0039 20C10.8993 20 10.0039 19.1046 10.0039 18C10.0039 16.8954 10.8993 16 12.0039 16Z" fill="oklch(0.3523 0 0 / 1)" class="wd-icon-fill"></path>
<path d="M18.0039 16C19.1085 16 20.0039 16.8954 20.0039 18C20.0039 19.1046 19.1085 20 18.0039 20C16.8993 20 16.0039 19.1046 16.0039 18C16.0039 16.8954 16.8993 16 18.0039 16Z" fill="oklch(0.3523 0 0 / 1)" class="wd-icon-fill"></path>
<path d="M6.00391 10C7.10848 10 8.00391 10.8954 8.00391 12C8.00391 13.1046 7.10848 14 6.00391 14C4.89934 14 4.00391 13.1046 4.00391 12C4.00391 10.8954 4.89934 10 6.00391 10Z" fill="oklch(0.3523 0 0 / 1)" class="wd-icon-fill"></path>
<path d="M12.0039 10C13.1085 10 14.0039 10.8954 14.0039 12C14.0039 13.1046 13.1085 14 12.0039 14C10.8993 14 10.0039 13.1046 10.0039 12C10.0039 10.8954 10.8993 10 12.0039 10Z" fill="oklch(0.3523 0 0 / 1)" class="wd-icon-fill"></path>
<path d="M18.0039 10C19.1085 10 20.0039 10.8954 20.0039 12C20.0039 13.1046 19.1085 14 18.0039 14C16.8993 14 16.0039 13.1046 16.0039 12C16.0039 10.8954 16.8993 10 18.0039 10Z" fill="oklch(0.3523 0 0 / 1)" class="wd-icon-fill"></path>
<path d="M6.00391 4C7.10848 4 8.00391 4.89543 8.00391 6C8.00391 7.10457 7.10848 8 6.00391 8C4.89934 8 4.00391 7.10457 4.00391 6C4.00391 4.89543 4.89934 4 6.00391 4Z" fill="oklch(0.3523 0 0 / 1)" class="wd-icon-fill"></path>
<path d="M12.0039 4C13.1085 4 14.0039 4.89543 14.0039 6C14.0039 7.10457 13.1085 8 12.0039 8C10.8993 8 10.0039 7.10457 10.0039 6C10.0039 4.89543 10.8993 4 12.0039 4Z" fill="oklch(0.3523 0 0 / 1)" class="wd-icon-fill"></path>
<path d="M18.0039 4C19.1085 4 20.0039 4.89543 20.0039 6C20.0039 7.10457 19.1085 8 18.0039 8C16.8993 8 16.0039 7.10457 16.0039 6C16.0039 4.89543 16.8993 4 18.0039 4Z" fill="oklch(0.3523 0 0 / 1)" class="wd-icon-fill"></path>
</g>
</svg>