<svg width="24" height="24" viewBox="0 0 24 24" xmlns="http://www.w3.org/2000/svg" class="wd-icon wd-icon-pin" role="presentation">
<path d="M16 1C16.5523 1 17 1.44772 17 2V4.47266C17 4.75708 16.8789 5.02807 16.667 5.21777C16.2917 5.55359 15.8791 5.84649 15.4385 6.09473L16.2051 9.92773C17.1065 10.3461 17.9359 10.8925 18.667 11.5469C18.8789 11.7366 19 12.0076 19 12.292V15C19 15.5523 18.5523 16 18 16H13V19.9502C13 19.9831 12.9967 20.0165 12.9902 20.0488L12.4902 22.5488C12.3829 23.0844 11.6171 23.0844 11.5098 22.5488L11.0098 20.0488C11.0033 20.0165 11 19.9831 11 19.9502V16H6C5.44772 16 5 15.5523 5 15V12.292L5.00586 12.1865C5.03186 11.9414 5.14748 11.713 5.33301 11.5469C6.00653 10.9441 6.76308 10.433 7.58203 10.0293L8.20508 5.87793C7.898 5.67978 7.60494 5.46113 7.33301 5.21777C7.12109 5.02807 7 4.75708 7 4.47266V2L7.00488 1.89746C7.05621 1.39333 7.48232 1 8 1H16ZM9 3.99707C9.23401 4.17256 9.48293 4.33024 9.74707 4.46387C10.1319 4.65855 10.3492 5.07835 10.2852 5.50488L9.48145 10.8594C9.4298 11.2035 9.2022 11.4961 8.88184 11.6318C8.20115 11.9203 7.5688 12.3001 7 12.7559V14H17V12.7559C16.3862 12.2638 15.6988 11.8598 14.957 11.5645C14.6428 11.4392 14.4131 11.1638 14.3467 10.832L13.3271 5.73438C13.2337 5.26711 13.4831 4.7987 13.9229 4.61523C14.3095 4.45392 14.6706 4.2458 15 3.99902V3H9V3.99707Z" fill="oklch(0.3523 0 0 / 1)" class="wd-icon-fill"></path>
</svg>