<svg width="24" height="24" viewBox="0 0 24 24" xmlns="http://www.w3.org/2000/svg" class="wd-icon wd-icon-sort-z-a" role="presentation">
<g>
<path d="M17.1598 13C17.3676 13.0001 17.5541 13.1288 17.6276 13.3232L20.6295 21.2832C20.7528 21.6102 20.5112 21.9598 20.1617 21.96H19.1061C18.8918 21.9598 18.7011 21.8231 18.6324 21.6201L18.1071 20.0654H14.8561L14.319 21.623C14.2494 21.8246 14.0596 21.96 13.8463 21.96H12.8395C12.4902 21.9597 12.2485 21.6101 12.3717 21.2832L15.3737 13.3232C15.4471 13.1289 15.6336 13.0002 15.8414 13H17.1598ZM16.4684 15.0352C16.302 15.6879 16.0585 16.5198 15.6617 17.6973L15.3805 18.5166H17.569L17.2623 17.6084C16.8912 16.5205 16.6475 15.6879 16.4811 15.0352H16.4684Z" fill="oklch(0.3523 0 0 / 1)" class="wd-icon-fill"></path>
<path d="M6.50061 5C6.77636 5.00035 7.00046 5.22421 7.00061 5.5V16.8906L9.4801 14.8613C9.69373 14.6867 10.0084 14.7182 10.1832 14.9316L10.817 15.7061C10.991 15.9197 10.9599 16.2345 10.7467 16.4092L6.63342 19.7754C6.40316 19.9635 6.10919 20.0336 5.83167 19.9863C5.6655 19.9581 5.50469 19.887 5.36682 19.7744L1.25452 16.4082C1.04097 16.2334 1.00954 15.9187 1.18421 15.7051L1.50061 15.3184L1.81604 14.9316C1.99085 14.7177 2.30633 14.6864 2.52014 14.8613L5.00061 16.8906V5.5C5.00076 5.22399 5.22456 5 5.50061 5H6.50061Z" fill="oklch(0.3523 0 0 / 1)" class="wd-icon-fill"></path>
<path d="M19.4625 2.04004C19.7387 2.04004 19.9625 2.2639 19.9625 2.54004V3.33105C19.9624 3.44029 19.9271 3.54686 19.861 3.63379L15.5211 9.33594V9.36133H19.5905C19.8665 9.36133 20.0903 9.58533 20.0905 9.86133V10.5C20.0905 10.7761 19.8666 11 19.5905 11H13.4098C13.1339 10.9997 12.9098 10.776 12.9098 10.5V9.6582C12.9098 9.54892 12.9462 9.44247 13.0123 9.35547L17.3512 3.65332V3.62695H13.5377C13.2619 3.62662 13.0377 3.40289 13.0377 3.12695V2.54004C13.0377 2.26411 13.2619 2.04038 13.5377 2.04004H19.4625Z" fill="oklch(0.3523 0 0 / 1)" class="wd-icon-fill"></path>
</g>
</svg>