<svg width="24" height="24" viewBox="0 0 24 24" xmlns="http://www.w3.org/2000/svg" class="wd-icon wd-icon-map" role="presentation">
<path d="M7.65918 3.82049C8.39274 3.56537 9.19717 3.60538 9.90234 3.93084L14.9365 6.25408C15.1715 6.36242 15.4392 6.37519 15.6836 6.29022L19.3438 5.01776L19.4658 4.97967C20.7275 4.62704 22 5.57549 22 6.9074V16.7892C22 17.6414 21.4595 18.3985 20.6562 18.6779L16.3408 20.1799C15.6073 20.435 14.8028 20.395 14.0977 20.0695L9.06348 17.7463C8.82851 17.6379 8.56081 17.6252 8.31641 17.7101L4.65625 18.9826C3.35704 19.434 2.0002 18.4698 2 17.0939V7.21112C2.00019 6.35942 2.54039 5.60189 3.34375 5.32244L7.65918 3.82049ZM16.3408 8.17987C16.2288 8.21881 16.1147 8.24839 16 8.27362V18.1799L20 16.7892V6.90643L16.3408 8.17987ZM9.5 15.7824C9.63649 15.8231 9.7716 15.8705 9.90234 15.9308L14.5 18.0519V8.21698C14.3636 8.17633 14.2283 8.12982 14.0977 8.06951L9.5 5.94744V15.7824ZM4 7.21112V17.0939L7.65918 15.8205C7.77122 15.7815 7.88526 15.751 8 15.7258V5.81951L4 7.21112Z" fill="oklch(0.3523 0 0 / 1)" class="wd-icon-fill"></path>
</svg>