<svg width="24" height="24" viewBox="0 0 24 24" xmlns="http://www.w3.org/2000/svg" class="wd-icon wd-icon-caret-bottom-small" role="presentation">
<g>
<path d="M16 9C16.5523 9 17 8.55228 17 8C17 7.44772 16.5523 7 16 7H8C7.44772 7 7 7.44772 7 8C7 8.55228 7.44772 9 8 9H16Z" fill="oklch(0.3523 0 0 / 1)" class="wd-icon-fill"></path>
<path d="M12.001 17.5C12.2288 17.5 12.4446 17.3966 12.5869 17.2188L16.5859 12.2188C16.766 11.9936 16.8017 11.6846 16.6768 11.4248C16.5519 11.1652 16.2891 11.0001 16.001 11H8C7.71181 11 7.44917 11.1651 7.32422 11.4248C7.19935 11.6846 7.23397 11.9936 7.41406 12.2188L11.415 17.2188C11.5574 17.3966 11.7731 17.5 12.001 17.5Z" fill="oklch(0.3523 0 0 / 1)" class="wd-icon-fill"></path>
</g>
</svg>