<svg width="24" height="24" viewBox="0 0 24 24" xmlns="http://www.w3.org/2000/svg" class="wd-icon wd-icon-arrow-corner-up-right" role="presentation">
<path d="M16.8877 2.18165C17.1014 2.00743 17.4171 2.03947 17.5918 2.25294L21.7754 7.36623C22.0761 7.73426 22.0759 8.2637 21.7754 8.63185L19.2158 11.7608C19.2137 11.7635 19.2112 11.7668 19.209 11.7695L17.5918 13.7451C17.4169 13.9587 17.1014 13.9902 16.8877 13.8154L16.1143 13.1826C15.9006 13.0078 15.8692 12.6932 16.0439 12.4795L16.8525 11.4922L16.8516 11.4912L18.8906 8.99904H12C8.13437 8.99934 5.00017 12.1334 5 15.999V20.5C5 20.7762 4.77614 21 4.5 21H3.5C3.22397 20.9999 3 20.7761 3 20.5V15.999C3.00017 11.0288 7.0298 6.99934 12 6.99904H18.8906L16.043 3.51857C15.8681 3.30477 15.8994 2.98927 16.1133 2.81447L16.8877 2.18165Z" fill="oklch(0.3523 0 0 / 1)" class="wd-icon-fill"></path>
</svg>