<svg width="24" height="24" viewBox="0 0 24 24" xmlns="http://www.w3.org/2000/svg" class="wd-icon wd-icon-power-of-one" role="presentation">
<path d="M12 1C18.0751 1 23 5.92487 23 12C23 18.0751 18.0751 23 12 23C5.92487 23 1 18.0751 1 12C1 5.92487 5.92487 1 12 1ZM11.2158 10.6416C11.2158 11.5119 10.8316 11.9599 9.91016 11.96H9.00098V13.458H9.91016C10.6011 13.458 11.0615 13.1632 11.1768 12.5107H11.2031V17.5156H9.00098V19H15.0176V17.5156H13.0967V10.04H11.2158V10.6416ZM12 3C7.02944 3 3 7.02944 3 12C3 12.2643 3.01382 12.5257 3.03613 12.7842C3.78047 12.3602 4.62446 12.0911 5.52441 12.0205C5.50833 11.8492 5.5 11.6755 5.5 11.5C5.5 8.46243 7.96243 6 11 6C12.818 6 14.4293 6.88263 15.4307 8.24219C15.7551 8.08825 16.117 8 16.5 8C17.8807 8 19 9.11929 19 10.5C19 10.6716 18.9822 10.8391 18.9492 11.001C18.9661 11.0008 18.983 11 19 11C19.7237 11 20.4019 11.193 20.9873 11.5293C20.7425 6.77754 16.8127 3 12 3Z" fill="oklch(0.3523 0 0 / 1)" class="wd-icon-fill"></path>
</svg>