<svg width="24" height="24" viewBox="0 0 24 24" xmlns="http://www.w3.org/2000/svg" class="wd-icon wd-icon-comment-sparkle" role="presentation">
<path d="M12 3C16.9706 3 21 6.58172 21 11C21 15.4183 16.9706 19 12 19C10.0219 20.6 7.18488 20.8333 6 20.75C6.33111 19.7703 6.47168 18.3476 6.47168 17.3135C4.35877 15.8495 3 13.5658 3 11C3 6.58172 7.02944 3 12 3Z" fill="transparent" class="wd-icon-background"></path>
<path d="M12 2C17.4089 2 22 5.92196 22 11C22 15.9688 17.6041 19.8274 12.3477 19.9912C11.2635 20.7833 10.024 21.235 8.92188 21.4824C7.723 21.7515 6.61962 21.7956 5.92969 21.7471C5.62071 21.7253 5.33962 21.5616 5.16797 21.3037C4.99636 21.0458 4.95355 20.7231 5.05273 20.4297C5.28915 19.7301 5.42265 18.7021 5.45996 17.8096C3.36367 16.1774 2 13.7479 2 11C2 5.92196 6.59113 2 12 2ZM12 4C7.46774 4 4 7.24148 4 11C4 13.1945 5.16038 15.1881 7.04102 16.4912C7.31064 16.678 7.47167 16.9855 7.47168 17.3135C7.47168 18.0059 7.41145 18.8842 7.27051 19.7217C7.64008 19.6863 8.0525 19.627 8.4834 19.5303C9.49423 19.3034 10.5396 18.8952 11.3711 18.2227L11.5127 18.127C11.6609 18.0443 11.8284 18 12 18C16.5323 18 20 14.7585 20 11C20 7.24148 16.5323 4 12 4Z" fill="oklch(0.3523 0 0 / 1)" class="wd-icon-fill"></path>
<path d="M12 7C12.276 7 12.496 7.22488 12.5352 7.49805C12.7539 9.03209 13.9679 10.2461 15.502 10.4648C15.7751 10.504 16 10.724 16 11C16 11.276 15.7751 11.496 15.502 11.5352C13.968 11.7539 12.754 12.968 12.5352 14.502C12.496 14.7751 12.276 15 12 15C11.724 15 11.504 14.7751 11.4648 14.502C11.246 12.968 10.032 11.7539 8.49805 11.5352C8.22488 11.496 8 11.276 8 11C8 10.724 8.22488 10.504 8.49805 10.4648C10.0321 10.2461 11.2461 9.03209 11.4648 7.49805C11.504 7.22488 11.724 7 12 7Z" fill="oklch(0.3523 0 0 / 1)" class="wd-icon-accent"></path>
</svg>