<svg width="24" height="24" viewBox="0 0 24 24" xmlns="http://www.w3.org/2000/svg" class="wd-icon wd-icon-multi-instance" role="presentation">
<path d="M18.5 2C20.433 2 22 3.567 22 5.5C22 7.433 20.433 9 18.5 9C17.8971 9 17.3302 8.8466 16.835 8.57812L13.8887 11.5244C14.4036 12.2473 14.762 13.0883 14.915 14H16.1738C16.5859 12.8353 17.6941 12 19 12C20.6569 12 22 13.3431 22 15C22 16.6569 20.6569 18 19 18C17.6941 18 16.5859 17.1647 16.1738 16H14.915C14.4388 18.8376 11.9729 21 9 21C5.68629 21 3 18.3137 3 15C3 12.0271 5.16237 9.56013 8 9.08398V7.8252C6.83548 7.41299 6 6.30574 6 5C6 3.34315 7.34315 2 9 2C10.6569 2 12 3.34315 12 5C12 6.30574 11.1645 7.41299 10 7.8252V9.08398C10.9113 9.23689 11.7519 9.59586 12.4746 10.1104L15.4209 7.16406C15.1528 6.66906 15 6.10247 15 5.5C15 3.567 16.567 2 18.5 2Z" fill="oklch(0.3523 0 0 / 1)" class="wd-icon-fill"></path>
</svg>