<svg width="24" height="24" viewBox="0 0 24 24" xmlns="http://www.w3.org/2000/svg" class="wd-icon wd-icon-font-color" role="presentation">
<path d="M12.1153 1.98535C12.8069 2.04006 13.4082 2.49672 13.6416 3.15918L17.6934 14.668C17.8768 15.1889 17.603 15.76 17.0821 15.9434C16.5612 16.1265 15.99 15.8529 15.8067 15.332L14.628 11.9854C14.576 11.9937 14.523 12 14.4688 12H9.44534C9.40466 12 9.36462 11.9969 9.32522 11.9922L8.15237 15.3311C7.96934 15.852 7.39893 16.1262 6.87795 15.9434C6.35701 15.7603 6.08282 15.1899 6.26565 14.6689L10.3086 3.16113L10.3594 3.03125C10.6403 2.39583 11.2722 1.97944 11.9756 1.97949L12.1153 1.98535ZM10.0254 10H13.9297L11.9756 4.44824L10.0254 10Z" fill="oklch(0.3523 0 0 / 1)" class="wd-icon-fill"></path>
<path d="M19.4004 18C19.9602 18 20.2402 18.0004 20.4541 18.1094C20.6421 18.2052 20.7948 18.3579 20.8906 18.5459C20.9996 18.7598 21 19.0398 21 19.5996V20.4004C21 20.9602 20.9996 21.2402 20.8906 21.4541C20.7948 21.6421 20.6421 21.7948 20.4541 21.8906C20.2402 21.9996 19.9602 22 19.4004 22H4.59961C4.03982 22 3.75976 21.9996 3.5459 21.8906C3.35793 21.7948 3.20522 21.6421 3.10938 21.4541C3.00041 21.2402 3 20.9602 3 20.4004V19.5996C3 19.0398 3.00041 18.7598 3.10938 18.5459C3.20522 18.3579 3.35793 18.2052 3.5459 18.1094C3.75976 18.0004 4.03982 18 4.59961 18H19.4004Z" fill="oklch(0.3523 0 0 / 1)" class="wd-icon-accent"></path>
</svg>