<svg width="24" height="24" viewBox="0 0 24 24" xmlns="http://www.w3.org/2000/svg" class="wd-icon wd-icon-dollar-sign" role="presentation">
<path d="M12.5 2C12.7761 2 13 2.22386 13 2.5V4C15.5929 4 17.725 5.97398 17.9756 8.50098C18.0026 8.77564 17.776 9 17.5 9H16.5C16.2239 9 16.0045 8.77432 15.959 8.50195C15.7218 7.08212 14.4872 6 13 6H10.7334C9.22382 6 8 7.22382 8 8.7334C8.00004 9.98519 9.01481 11 10.2666 11H13.7334C16.0898 11 18 12.9102 18 15.2666C18 17.8807 15.8807 20 13.2666 20H13V21.5C13 21.7761 12.7761 22 12.5 22H11.5C11.2239 22 11 21.7761 11 21.5V20C8.40709 20 6.27495 18.026 6.02441 15.499C5.99736 15.2244 6.22396 15 6.5 15H7.5C7.77614 15 7.99552 15.2257 8.04102 15.498C8.27824 16.9179 9.51281 18 11 18H13.2666C14.7762 18 16 16.7762 16 15.2666C16 14.0148 14.9852 13 13.7334 13H10.2666C7.91024 13 6.00004 11.0898 6 8.7334C6 6.11925 8.11925 4 10.7334 4H11V2.5C11 2.22386 11.2239 2 11.5 2H12.5Z" fill="oklch(0.3523 0 0 / 1)" class="wd-icon-fill"></path>
</svg>