<svg width="24" height="24" viewBox="0 0 24 24" xmlns="http://www.w3.org/2000/svg" class="wd-icon wd-icon-comment-arrow-up-fill" role="presentation">
<path d="M12 2C17.4088 2.00009 22 5.92202 22 11C22 16.078 17.4088 19.9999 12 20C11.7859 20 11.5732 19.9914 11.3623 19.9795C9.63006 21.252 7.47856 21.6606 6.06055 21.7461C5.72864 21.7659 5.40806 21.6186 5.20605 21.3545C5.00424 21.0902 4.94741 20.7428 5.05371 20.4277C5.28972 19.7281 5.42269 18.7011 5.45996 17.8096C3.36368 16.1774 2.00001 13.7479 2 11C2 5.92196 6.59113 2 12 2ZM12.5303 7.46973C12.2374 7.17703 11.7626 7.17702 11.4697 7.46973L8.46973 10.4697C8.17701 10.7626 8.17702 11.2374 8.46973 11.5303C8.7626 11.8229 9.23745 11.823 9.53027 11.5303L11.25 9.81055V14C11.2501 14.414 11.586 14.7498 12 14.75C12.414 14.7498 12.7499 14.414 12.75 14V9.81055L14.4697 11.5303C14.7626 11.8228 15.2375 11.8229 15.5303 11.5303C15.8229 11.2375 15.8228 10.7626 15.5303 10.4697L12.5303 7.46973Z" fill="oklch(0.3523 0 0 / 1)" class="wd-icon-fill"></path>
</svg>