<svg width="24" height="24" viewBox="0 0 24 24" xmlns="http://www.w3.org/2000/svg" class="wd-icon wd-icon-range-period" role="presentation">
<path d="M19 8C21.2091 8 23 9.79086 23 12C23 14.2091 21.2091 16 19 16C17.1362 16 15.57 14.7252 15.126 13H8.87402C8.42998 14.7252 6.86384 16 5 16C2.79086 16 1 14.2091 1 12C1 9.79086 2.79086 8 5 8C6.86384 8 8.42998 9.27477 8.87402 11H15.126C15.57 9.27477 17.1362 8 19 8ZM5 10C3.89543 10 3 10.8954 3 12C3 13.1046 3.89543 14 5 14C6.10457 14 7 13.1046 7 12C7 10.8954 6.10457 10 5 10ZM19 10C17.8954 10 17 10.8954 17 12C17 13.1046 17.8954 14 19 14C20.1046 14 21 13.1046 21 12C21 10.8954 20.1046 10 19 10Z" fill="oklch(0.3523 0 0 / 1)" class="wd-icon-fill"></path>
</svg>