<svg width="24" height="24" viewBox="0 0 24 24" xmlns="http://www.w3.org/2000/svg" class="wd-icon wd-icon-peers" role="presentation">
<g>
<path d="M6.9998 12.5C8.39617 12.5 9.7715 12.7934 10.8699 13.5312C12.0011 14.2912 12.7565 15.4705 12.95 17.0439C13.0678 18.0017 12.4266 18.8301 11.5428 19.0352C10.6814 19.2349 9.13518 19.5 6.9998 19.5C4.86439 19.5 3.31818 19.2349 2.45683 19.0352C1.57306 18.8301 0.931836 18.0016 1.0496 17.0439C1.24311 15.4705 1.99849 14.2912 3.12968 13.5312C4.22808 12.7934 5.60343 12.5 6.9998 12.5ZM6.9998 14.5C5.8552 14.5 4.91058 14.7443 4.24491 15.1914C3.64801 15.5925 3.21097 16.1968 3.05839 17.1191C3.81925 17.2849 5.15778 17.5 6.9998 17.5C8.84104 17.5 10.1792 17.2848 10.9402 17.1191C10.7876 16.1968 10.3516 15.5924 9.75468 15.1914C9.089 14.7443 8.1444 14.5 6.9998 14.5Z" fill="oklch(0.3523 0 0 / 1)" class="wd-icon-fill"></path>
<path d="M16.9988 12.5C18.3951 12.5 19.7706 12.7935 20.8689 13.5312C22.0001 14.2912 22.7555 15.4705 22.949 17.0439C23.0668 18.0016 22.4255 18.8301 21.5418 19.0352C20.6804 19.2349 19.1341 19.5 16.9988 19.5C16.2244 19.5 15.5268 19.4651 14.9119 19.4111C14.362 19.3625 13.9554 18.8771 14.0037 18.3271C14.0522 17.7772 14.5377 17.3708 15.0877 17.4189C15.646 17.468 16.2847 17.5 16.9988 17.5C18.84 17.5 20.1782 17.2848 20.9392 17.1191C20.7866 16.1969 20.3506 15.5924 19.7537 15.1914C19.088 14.7443 18.1433 14.5 16.9988 14.5C16.1251 14.5 15.3605 14.6429 14.7498 14.9141C14.2452 15.1381 13.6537 14.9108 13.4295 14.4062C13.2054 13.9017 13.4329 13.3102 13.9373 13.0859C14.8653 12.6738 15.9218 12.5 16.9988 12.5Z" fill="oklch(0.3523 0 0 / 1)" class="wd-icon-fill"></path>
<path d="M6.9998 4.5C8.93279 4.5 10.4998 6.067 10.4998 8C10.4998 9.933 8.93279 11.5 6.9998 11.5C5.06684 11.5 3.4998 9.93297 3.4998 8C3.4998 6.06703 5.06684 4.50005 6.9998 4.5ZM6.9998 6.5C6.17141 6.50005 5.4998 7.1716 5.4998 8C5.4998 8.8284 6.17141 9.49995 6.9998 9.5C7.82822 9.5 8.4998 8.82843 8.4998 8C8.4998 7.17157 7.82822 6.5 6.9998 6.5Z" fill="oklch(0.3523 0 0 / 1)" class="wd-icon-fill"></path>
<path d="M16.9998 4.5C18.9328 4.5 20.4998 6.067 20.4998 8C20.4998 9.933 18.9328 11.5 16.9998 11.5C15.0668 11.5 13.4998 9.93297 13.4998 8C13.4998 6.06703 15.0668 4.50005 16.9998 4.5ZM16.9998 6.5C16.1714 6.50005 15.4998 7.1716 15.4998 8C15.4998 8.8284 16.1714 9.49995 16.9998 9.5C17.8282 9.5 18.4998 8.82843 18.4998 8C18.4998 7.17157 17.8282 6.5 16.9998 6.5Z" fill="oklch(0.3523 0 0 / 1)" class="wd-icon-fill"></path>
</g>
</svg>