<svg width="24" height="24" viewBox="0 0 24 24" xmlns="http://www.w3.org/2000/svg" class="wd-icon wd-icon-lock-authentication" role="presentation">
<g>
<path d="M19.5 20C19.7761 20 20 20.2239 20 20.5V21.5C20 21.7761 19.7761 22 19.5 22H4.5C4.22386 22 4 21.7761 4 21.5V20.5C4 20.2239 4.22386 20 4.5 20H19.5Z" fill="oklch(0.3523 0 0 / 1)" class="wd-icon-fill"></path>
<path d="M19.5 17C19.7761 17 20 17.2239 20 17.5V18.5C20 18.7761 19.7761 19 19.5 19H4.5C4.22386 19 4 18.7761 4 18.5V17.5C4 17.2239 4.22386 17 4.5 17H19.5Z" fill="oklch(0.3523 0 0 / 1)" class="wd-icon-fill"></path>
<path d="M12 1C14.7614 1 17 3.23858 17 6V7.08691C17.5823 7.29297 18 7.84708 18 8.5V14.5C18 15.3284 17.3284 16 16.5 16H7.5C6.67157 16 6 15.3284 6 14.5V8.5C6 7.84707 6.41766 7.29297 7 7.08691V6C7 3.23858 9.23858 1 12 1ZM8 14H16V9H8V14ZM12 3C10.3431 3 9 4.34315 9 6V7H15V6C15 4.34315 13.6569 3 12 3Z" fill="oklch(0.3523 0 0 / 1)" class="wd-icon-fill"></path>
</g>
</svg>