<svg width="24" height="24" viewBox="0 0 24 24" xmlns="http://www.w3.org/2000/svg" class="wd-icon wd-icon-kpi" role="presentation">
<g>
<path d="M18.085 8.5127C18.5286 8.51288 18.8893 8.87277 18.8897 9.31641C18.8897 9.52116 18.8112 9.71904 18.6709 9.86817L17.5527 11.0527C17.7482 11.0911 17.934 11.1568 18.1084 11.251L18.2314 11.3213C18.5096 11.4946 18.7334 11.729 18.9004 12.0205L18.9688 12.1475C19.1162 12.4493 19.1865 12.7908 19.1865 13.1641C19.1865 13.5627 19.0962 13.9454 18.918 14.3086L18.917 14.3105C18.7334 14.6776 18.4578 14.9753 18.0977 15.2022C17.7263 15.436 17.2843 15.5468 16.7852 15.5469C16.341 15.5468 15.9376 15.466 15.5811 15.2979L15.5791 15.2969C15.2294 15.1288 14.9439 14.8877 14.7266 14.5752L14.7227 14.5703C14.6142 14.4059 14.5299 14.2274 14.4688 14.0361C14.3966 13.81 14.4591 13.5913 14.5928 13.4365C14.7235 13.2854 14.9216 13.1925 15.1348 13.1924C15.5285 13.1926 15.7938 13.4982 15.916 13.7686C15.9643 13.8753 16.032 13.9695 16.1201 14.0527C16.2813 14.1994 16.4976 14.2812 16.7939 14.2813C16.9851 14.2812 17.1453 14.2355 17.2813 14.1494L17.2852 14.1475C17.4297 14.0587 17.5381 13.9384 17.6133 13.7832L17.6152 13.7813C17.6984 13.6148 17.7412 13.4279 17.7412 13.2178C17.7412 12.883 17.6488 12.6433 17.4863 12.4717L17.4834 12.4688C17.3294 12.3017 17.1131 12.2081 16.8037 12.208C16.6919 12.208 16.59 12.2249 16.498 12.2578C16.2426 12.3493 15.8523 12.3622 15.6143 12.0703C15.4094 11.8187 15.4227 11.4538 15.6455 11.2178L16.9971 9.78711H15.2647C14.9128 9.78711 14.627 9.50122 14.627 9.14942C14.6273 8.79789 14.913 8.5127 15.2647 8.5127H18.085Z" fill="oklch(0.3523 0 0 / 1)" class="wd-icon-fill"></path>
<path d="M6.83692 8.50488C7.27536 8.50488 7.63076 8.86041 7.63086 9.29883V14.668C7.63081 15.0694 7.30566 15.3944 6.9043 15.3945C6.50303 15.3943 6.17681 15.0693 6.17676 14.668V10.3936L6 10.5254C5.58564 10.8319 4.99805 10.536 4.99805 10.0205C4.99823 9.8259 5.08896 9.64218 5.24317 9.52344L6.35254 8.66992C6.49118 8.56328 6.66202 8.50502 6.83692 8.50488Z" fill="oklch(0.3523 0 0 / 1)" class="wd-icon-fill"></path>
<path d="M11.3301 8.37207C11.7919 8.37208 12.2023 8.46189 12.5518 8.65235C12.9019 8.83425 13.1736 9.08877 13.3555 9.41602L13.4209 9.53809C13.5621 9.82674 13.6318 10.1404 13.6318 10.4756C13.6318 10.8363 13.5551 11.1845 13.4023 11.5166C13.2543 11.8384 13.0589 12.1427 12.8174 12.4287L12.8164 12.4277C12.587 12.7005 12.2987 13.0006 11.9531 13.3281L11.7022 13.5723L11.7002 13.5732L11.1289 14.1143H13.0674C13.419 14.1144 13.7041 14.3993 13.7041 14.751C13.7041 15.1027 13.419 15.3875 13.0674 15.3877H9.7168C9.29696 15.3877 8.9562 15.0477 8.95606 14.6279C8.95606 14.4199 9.0418 14.2207 9.19238 14.0772L10.7529 12.5898L10.7539 12.5889L11.0684 12.292C11.307 12.0471 11.506 11.825 11.666 11.625L11.6689 11.6211C11.8313 11.4251 11.957 11.2296 12.0488 11.0352C12.1365 10.8435 12.1777 10.6573 12.1777 10.4756C12.1776 10.1941 12.0948 10.0016 11.9512 9.86621L11.9482 9.86328C11.7966 9.71609 11.6002 9.63673 11.3389 9.63672C11.1377 9.63676 10.9737 9.68221 10.8379 9.76367C10.6963 9.84862 10.5858 9.96279 10.5049 10.1104C10.4797 10.1563 10.4579 10.2038 10.4395 10.2529C10.3299 10.5446 10.0595 10.8613 9.65821 10.8613C9.26806 10.8611 8.86537 10.5173 8.99317 10.0537C9.04749 9.85683 9.12811 9.66931 9.23438 9.49219L9.23535 9.49121C9.44467 9.14685 9.73229 8.87412 10.0928 8.67383C10.4586 8.47058 10.8734 8.37208 11.3301 8.37207Z" fill="oklch(0.3523 0 0 / 1)" class="wd-icon-fill"></path>
<path d="M16.2002 4C17.0237 4 17.7016 3.99898 18.252 4.04395C18.814 4.08988 19.3311 4.18828 19.8164 4.43555C20.5689 4.81902 21.181 5.4311 21.5645 6.1836C21.8117 6.6689 21.9101 7.186 21.9561 7.74805C22.001 8.29843 22 8.97632 22 9.79981V14.2002C22 15.0237 22.001 15.7016 21.9561 16.252C21.9101 16.814 21.8117 17.3311 21.5645 17.8164C21.181 18.5689 20.5689 19.181 19.8164 19.5645C19.3311 19.8117 18.814 19.9101 18.252 19.9561C17.7016 20.001 17.0237 20 16.2002 20H7.79981C6.97632 20 6.29843 20.001 5.74805 19.9561C5.186 19.9101 4.6689 19.8117 4.1836 19.5645C3.43109 19.181 2.81902 18.5689 2.43555 17.8164C2.18828 17.3311 2.08988 16.814 2.04395 16.252C1.99898 15.7016 2 15.0237 2 14.2002V9.79981C2 8.97632 1.99898 8.29843 2.04395 7.74805C2.08988 7.186 2.18827 6.6689 2.43555 6.1836C2.81902 5.43109 3.43109 4.81902 4.1836 4.43555C4.6689 4.18828 5.186 4.08988 5.74805 4.04395C6.29843 3.99898 6.97632 4 7.79981 4H16.2002ZM7.79981 6C6.94342 6 6.36117 6.00035 5.91113 6.03711C5.47273 6.07293 5.2482 6.13809 5.0918 6.21778C4.71555 6.40951 4.40951 6.71555 4.21778 7.0918C4.13809 7.2482 4.07293 7.47272 4.03711 7.91113C4.00035 8.36117 4 8.94342 4 9.79981V14.2002C4 15.0566 4.00035 15.6388 4.03711 16.0889C4.07293 16.5273 4.13809 16.7518 4.21778 16.9082C4.40951 17.2845 4.71555 17.5905 5.0918 17.7822C5.2482 17.8619 5.47273 17.9271 5.91113 17.9629C6.36117 17.9997 6.94342 18 7.79981 18H16.2002C17.0566 18 17.6388 17.9997 18.0889 17.9629C18.5273 17.9271 18.7518 17.8619 18.9082 17.7822C19.2845 17.5905 19.5905 17.2845 19.7822 16.9082C19.8619 16.7518 19.9271 16.5273 19.9629 16.0889C19.9997 15.6388 20 15.0566 20 14.2002V9.79981C20 8.94342 19.9997 8.36117 19.9629 7.91113C19.9271 7.47273 19.8619 7.2482 19.7822 7.0918C19.5905 6.71555 19.2845 6.40951 18.9082 6.21778C18.7518 6.13809 18.5273 6.07293 18.0889 6.03711C17.6388 6.00035 17.0566 6 16.2002 6H7.79981Z" fill="oklch(0.3523 0 0 / 1)" class="wd-icon-fill"></path>
</g>
</svg>