<svg width="24" height="24" viewBox="0 0 24 24" xmlns="http://www.w3.org/2000/svg" class="wd-icon wd-icon-list-order" role="presentation">
<g>
<path d="M22.5 16C22.7761 16 23 16.2239 23 16.5V17.5C23 17.7761 22.7761 18 22.5 18H8.5C8.22386 18 8 17.7761 8 17.5V16.5C8 16.2239 8.22386 16 8.5 16H22.5Z" fill="oklch(0.3523 0 0 / 1)" class="wd-icon-fill"></path>
<path d="M22.5 6C22.7761 6 23 6.22386 23 6.5V7.5C23 7.77614 22.7761 8 22.5 8H8.5C8.22386 8 8 7.77614 8 7.5V6.5C8 6.22386 8.22386 6 8.5 6H22.5Z" fill="oklch(0.3523 0 0 / 1)" class="wd-icon-fill"></path>
</g>
<g>
<path d="M4.03125 13.5742C5.44425 13.5742 6.32617 14.2133 6.32617 15.4463C6.32614 16.5262 5.65145 17.048 4.43652 17.6689L3.77051 18.002C3.23051 18.281 3.12305 18.4703 3.12305 18.8213H5.88086C6.15687 18.8215 6.38086 19.0452 6.38086 19.3213V19.5C6.38086 19.776 6.15687 19.9998 5.88086 20H2.10156C1.82542 20 1.60156 19.7761 1.60156 19.5V19.1992C1.60156 18.0383 2.02426 17.5158 3.3291 16.8408L3.86035 16.5713C4.46324 16.2563 4.69718 15.9413 4.69727 15.4375C4.69727 14.9245 4.45425 14.6904 4.03125 14.6904C3.71206 14.6905 3.47568 14.8256 3.36133 15.126C3.26303 15.384 3.06025 15.6172 2.78418 15.6172H2.17383C1.89781 15.6172 1.66631 15.391 1.71875 15.1201C1.91647 14.1036 2.75024 13.5743 4.03125 13.5742Z" fill="oklch(0.3523 0 0 / 1)" class="wd-icon-accent"></path>
<path d="M4.02734 3.7002C4.30349 3.7002 4.52734 3.92405 4.52734 4.2002V9.5C4.52734 9.77614 4.30349 10 4.02734 10H3.52441C3.24843 9.99982 3.02441 9.77603 3.02441 9.5V5.64453H3.00684C2.85382 6.06728 2.52973 6.23824 2.04395 6.23828C1.79542 6.23828 1.59375 6.03661 1.59375 5.78809V5.5498C1.59396 5.27384 1.81774 5.0498 2.09375 5.0498H2.11621C2.76388 5.04966 3.03418 4.7349 3.03418 4.12305C3.03426 3.8895 3.22346 3.7002 3.45703 3.7002H4.02734Z" fill="oklch(0.3523 0 0 / 1)" class="wd-icon-accent"></path>
</g>
</svg>