<svg width="24" height="24" viewBox="0 0 24 24" xmlns="http://www.w3.org/2000/svg" class="wd-icon wd-icon-underline" role="presentation">
<g>
<path d="M19.5 19C19.7761 19 20 19.2239 20 19.5V20.5C20 20.7761 19.7761 21 19.5 21H4.5C4.22386 21 4 20.7761 4 20.5V19.5C4 19.2239 4.22386 19 4.5 19H19.5Z" fill="oklch(0.3523 0 0 / 1)" class="wd-icon-fill"></path>
<path d="M7.7998 3C8.07595 3 8.2998 3.22386 8.2998 3.5V11.5C8.2998 13.5435 9.95655 15.2002 12 15.2002C14.0435 15.2002 15.7002 13.5435 15.7002 11.5V3.5C15.7002 3.22386 15.9241 3 16.2002 3H17.5498C17.8259 3 18.0498 3.22386 18.0498 3.5V11.5C18.0498 14.8413 15.3413 17.5498 12 17.5498C8.65868 17.5498 5.9502 14.8413 5.9502 11.5V3.5C5.9502 3.22386 6.17405 3 6.4502 3H7.7998Z" fill="oklch(0.3523 0 0 / 1)" class="wd-icon-fill"></path>
</g>
</svg>