<svg width="24" height="24" viewBox="0 0 24 24" xmlns="http://www.w3.org/2000/svg" class="wd-icon wd-icon-gear" role="presentation">
<path d="M13.4199 6.14453L13.9492 6.32715C14.7411 6.60013 15.4589 7.03439 16.0625 7.5918L16.4756 7.97363L18.5625 7.37695L19.3965 8.82227L18.1895 9.92773L17.7764 10.3047L17.8828 10.8545C17.9548 11.2271 17.9931 11.6098 17.9932 12C17.9932 12.4515 17.9414 12.8927 17.8457 13.3193L17.7227 13.8672L19.2832 15.376L18.4492 16.8213L16.3496 16.1602L15.9268 16.5273C15.3519 17.0272 14.6826 17.419 13.9492 17.6719L13.4199 17.8545L12.9443 20.001H11.2744L10.75 17.8984L10.2129 17.7314L9.91602 17.6309C9.23147 17.3776 8.60467 17.0005 8.06055 16.5273L7.6377 16.1602L5.54102 16.8223L4.70605 15.375L6.26367 13.8682L6.14062 13.3213C6.04486 12.8947 5.99316 12.4525 5.99316 12C5.99318 11.6088 6.03146 11.225 6.10352 10.8525L6.20996 10.3037L4.59375 8.82129L5.42871 7.37598L7.51172 7.97266L7.9248 7.59082C8.57294 6.99244 9.35192 6.5356 10.2119 6.26855L10.748 6.10156L11.2744 4H12.9443L13.4199 6.14453ZM11.998 8C9.78891 8 7.99805 9.79086 7.99805 12C7.99805 14.2091 9.78891 16 11.998 16C14.2072 16 15.998 14.2091 15.998 12C15.998 9.79086 14.2072 8 11.998 8Z" fill="transparent" class="wd-icon-background"></path>
<g>
<path d="M11.9983 8C14.2073 8.00018 15.9983 9.79097 15.9983 12C15.9981 14.2089 14.2072 15.9998 11.9983 16C9.78921 16 7.9984 14.209 7.99826 12C7.99826 9.79086 9.78913 8 11.9983 8ZM11.9983 10C10.8937 10 9.99826 10.8954 9.99826 12C9.9984 13.1045 10.8938 14 11.9983 14C13.1026 13.9998 13.9981 13.1043 13.9983 12C13.9983 10.8955 13.1027 10.0002 11.9983 10Z" fill="oklch(0.3523 0 0 / 1)" class="wd-icon-fill"></path>
<path d="M13.3459 2.00098C14.0047 2.00098 14.5815 2.42993 14.7766 3.0498L14.8108 3.17578L15.136 4.64453C15.8026 4.92952 16.4214 5.30233 16.9797 5.74805L18.3879 5.3457C19.007 5.16845 19.6671 5.40721 20.0315 5.92969L20.1008 6.03809L21.3313 8.16992C21.6826 8.77984 21.5622 9.55141 21.0451 10.0254L19.9328 11.042C19.9708 11.3555 19.9934 11.6751 19.9934 12C19.9934 12.4055 19.9592 12.8028 19.9006 13.1904L20.9553 14.21C21.4505 14.6893 21.5555 15.4433 21.2121 16.0381L19.9817 18.1689L19.9807 18.1699C19.6305 18.7746 18.9052 19.0627 18.2317 18.8506L16.7903 18.3965C16.2829 18.7776 15.7287 19.0993 15.1369 19.3525L14.8108 20.8252C14.6585 21.5078 14.0517 22.001 13.3459 22.001H10.884C10.2384 22.0001 9.67275 21.587 9.46701 20.9883L9.43088 20.8652L9.07541 19.4473C8.39751 19.1809 7.76671 18.8253 7.19553 18.3955L5.75998 18.8496L5.75803 18.8506C5.13159 19.0467 4.45279 18.8127 4.0803 18.2803L4.00998 18.1699L2.77951 16.0381C2.43542 15.4409 2.54392 14.6869 3.03635 14.21L4.08616 13.1934C4.0274 12.8045 3.9934 12.4061 3.99338 12C3.99339 11.6747 4.01492 11.3543 4.05295 11.04L2.94651 10.0254C2.42689 9.54881 2.31211 8.77637 2.66135 8.16992L3.89182 6.03809L3.96116 5.92969C4.32499 5.40779 4.9837 5.16908 5.60276 5.3457L5.60373 5.34668L7.00608 5.74805C7.62664 5.25232 8.32261 4.84601 9.07541 4.55078L9.43088 3.13574L9.46701 3.0127C9.67345 2.41137 10.2412 2.00188 10.884 2.00098H13.3459ZM10.7492 6.10156L10.2131 6.26855C9.35261 6.53566 8.57313 6.99243 7.92502 7.59082L7.51194 7.97266L5.42893 7.37598L4.59397 8.82129L6.21018 10.3037L6.10373 10.8525C6.03171 11.2249 5.9934 11.6089 5.99338 12C5.9934 12.453 6.04503 12.8958 6.14084 13.3223L6.26389 13.8691L4.70627 15.376L5.54123 16.8223L7.63791 16.1602L8.06076 16.5273C8.60485 17.0005 9.23162 17.3776 9.91623 17.6309L10.2131 17.7314L10.7502 17.8984L11.2756 20.001H12.9446L13.4201 17.8545L13.9494 17.6719C14.6827 17.4191 15.3521 17.0272 15.927 16.5273L16.3498 16.1602L18.4494 16.8213L19.2844 15.375L18.1272 14.2568L17.7229 13.8672L17.8459 13.3193C17.9416 12.8928 17.9934 12.4514 17.9934 12C17.9934 11.6099 17.955 11.227 17.883 10.8545L17.7766 10.3047L18.1897 9.92773L19.3977 8.82129L18.5637 7.37598L17.0168 7.81934L16.4758 7.97363L16.0627 7.5918C15.4591 7.0343 14.7413 6.60011 13.9494 6.32715L13.4201 6.14453L12.9446 4.00098H11.2756L10.7492 6.10156Z" fill="oklch(0.3523 0 0 / 1)" class="wd-icon-fill"></path>
</g>
</svg>