<svg width="24" height="24" viewBox="0 0 24 24" xmlns="http://www.w3.org/2000/svg" class="wd-icon wd-icon-flag" role="presentation">
<path d="M18.6885 4C19.9018 4.00028 20.6128 5.36629 19.917 6.36035L17.7197 9.5L19.917 12.6396C20.6129 13.6338 19.901 15 18.6875 15H6.99805V20C6.99805 20.5523 6.55033 21 5.99805 21C5.44576 21 4.99805 20.5523 4.99805 20V14C4.99805 13.9228 5.00687 13.8476 5.02344 13.7754C5.00687 13.6861 4.99805 13.5941 4.99805 13.5V5.5C4.99806 4.67167 5.66976 4.00015 6.49805 4H18.6885ZM6.99805 13H17.7275L15.8799 10.3604C15.5184 9.84387 15.5184 9.15612 15.8799 8.63965L17.7275 6H6.99805V13Z" fill="oklch(0.3523 0 0 / 1)" class="wd-icon-fill"></path>
</svg>