<svg width="24" height="24" viewBox="0 0 24 24" xmlns="http://www.w3.org/2000/svg" class="wd-icon wd-icon-clock-x" role="presentation">
<g>
<path d="M9.85477 1.2102C11.9881 0.786049 14.2007 1.00388 16.2102 1.83618C18.2199 2.66868 19.9382 4.07936 21.1468 5.88793C22.2626 7.55794 22.8976 9.50008 22.9886 11.5002C23.0008 11.7758 22.7761 11.9991 22.5003 11.9993H21.5003C21.2242 11.9993 21.0011 11.7758 20.9856 11.5002C20.8964 9.89588 20.3797 8.34032 19.4837 6.99926C18.4949 5.51961 17.0887 4.36594 15.4446 3.68481C13.8003 3.00382 11.99 2.82499 10.2444 3.17211C8.49888 3.51938 6.89456 4.37661 5.63602 5.635C4.37753 6.8935 3.52049 8.49787 3.17313 10.2434C2.82591 11.989 3.00485 13.7992 3.68582 15.4436C4.36697 17.0878 5.52052 18.4938 7.00028 19.4827C8.34133 20.3787 9.89594 20.8963 11.5003 20.9856C11.7758 21.001 12.0001 21.2233 12.0003 21.4993V22.4993C12.0003 22.7753 11.776 23.0009 11.5003 22.9885C9.50014 22.8975 7.55894 22.2616 5.88895 21.1457C4.08027 19.9371 2.66971 18.219 1.83719 16.2092C1.00492 14.1996 0.786968 11.9872 1.21121 9.85375C1.63574 7.72024 2.68375 5.75915 4.22196 4.22094C5.76021 2.68284 7.72126 1.63464 9.85477 1.2102Z" fill="oklch(0.3523 0 0 / 1)" class="wd-icon-fill"></path>
<path d="M12.5003 5.00024C12.7763 5.00034 13.0003 5.22416 13.0003 5.50024V11.0002H16.5003C16.7763 11.0003 17.0003 11.2242 17.0003 11.5002V12.5002C17.0002 12.7762 16.7763 13.0001 16.5003 13.0002H12.0003C11.448 13.0002 11.0004 12.5524 11.0003 12.0002V5.50024C11.0003 5.2241 11.2241 5.00024 11.5003 5.00024H12.5003Z" fill="oklch(0.3523 0 0 / 1)" class="wd-icon-fill"></path>
</g>
<path d="M20.9345 15.6464C21.1298 15.4512 21.4463 15.4512 21.6415 15.6464L22.3486 16.3535C22.5437 16.5487 22.5438 16.8653 22.3486 17.0605L20.4091 18.9999L22.3486 20.9394C22.5437 21.1347 22.5438 21.4512 22.3486 21.6464L21.6415 22.3535C21.4463 22.5487 21.1298 22.5486 20.9345 22.3535L18.9951 20.414L17.0556 22.3535C16.8604 22.5487 16.5438 22.5486 16.3486 22.3535L15.6415 21.6464C15.4463 21.4512 15.4463 21.1347 15.6415 20.9394L17.581 18.9999L15.6415 17.0605C15.4463 16.8652 15.4463 16.5487 15.6415 16.3535L16.3486 15.6464C16.5438 15.4512 16.8604 15.4512 17.0556 15.6464L18.9951 17.5859L20.9345 15.6464Z" fill="oklch(0.3523 0 0 / 1)" class="wd-icon-accent"></path>
</svg>