<svg width="24" height="24" viewBox="0 0 24 24" xmlns="http://www.w3.org/2000/svg" class="wd-icon wd-icon-check-circle-fill" role="presentation">
<path d="M12 2C17.5228 2.00007 22 6.47723 22 12C22 17.5228 17.5228 21.9999 12 22C6.47715 22 2 17.5228 2 12C2.00004 6.47719 6.47718 2 12 2ZM15.8066 8.73145C15.3825 8.37841 14.7519 8.43565 14.3984 8.85938L10.999 12.9375L9.68457 11.3594C9.33094 10.9355 8.69953 10.878 8.27539 11.2314C7.8515 11.585 7.79421 12.2165 8.14746 12.6406L10.2314 15.1406C10.4213 15.3684 10.7035 15.4999 11 15.5C11.2964 15.4999 11.5777 15.3682 11.7676 15.1406L15.9346 10.1406C16.2881 9.71635 16.2309 9.085 15.8066 8.73145Z" fill="oklch(0.3523 0 0 / 1)" class="wd-icon-fill"></path>
</svg>