<svg width="24" height="24" viewBox="0 0 24 24" xmlns="http://www.w3.org/2000/svg" class="wd-icon wd-icon-home" role="presentation">
<path d="M10.1259 3.99919L4 8.89992V19.4999C4 19.7761 4.22386 19.9999 4.5 19.9999H9.5C9.77614 19.9999 10 19.7761 10 19.4999V14.4999C10 14.2238 10.2239 13.9999 10.5 13.9999H13.5C13.7761 13.9999 14 14.2238 14 14.4999V19.4999C14 19.7761 14.2239 19.9999 14.5 19.9999H19.5C19.7761 19.9999 20 19.7761 20 19.4999V8.89992L13.8741 3.99919C12.7784 3.12267 11.2216 3.12267 10.1259 3.99919Z" fill="transparent" class="wd-icon-background"></path>
<path d="M9.502 3.21867C10.9629 2.05025 13.0393 2.05006 14.5 3.21867L22.2354 9.40617C22.451 9.57863 22.4859 9.89366 22.3135 10.1093L21.6875 10.8905C21.5186 11.1018 21.2151 11.1381 21 10.9775V19.4999C21 20.3283 20.3285 20.9999 19.5 20.9999H14.5C13.6718 20.9998 13.0001 20.3282 13 19.4999V14.9999H11V19.4999C11 20.3283 10.3285 20.9999 9.50004 20.9999H4.50004C3.67177 20.9998 3.00007 20.3282 3.00004 19.4999V10.9784C2.78502 11.138 2.48216 11.1014 2.31352 10.8905L1.68754 10.1093C1.51529 9.89369 1.55018 9.57862 1.76567 9.40617L9.502 3.21867ZM13.25 4.7802C12.5198 4.19611 11.4824 4.19629 10.752 4.7802L5.00004 9.38078V18.9999H9.00004V14.4999C9.00004 13.6716 9.67176 13.0001 10.5 12.9999H13.5C14.3285 12.9999 15 13.6715 15 14.4999V18.9999H19V9.37981L13.25 4.7802Z" fill="oklch(0.3523 0 0 / 1)" class="wd-icon-fill"></path>
</svg>