<svg width="24" height="24" viewBox="0 0 24 24" xmlns="http://www.w3.org/2000/svg" class="wd-icon wd-icon-grow-chevron" role="presentation">
<g>
<path d="M4 13C4.55217 13 4.99981 13.4479 5 14V19H10C10.5522 19 10.9998 19.4479 11 20C10.9999 20.5522 10.5522 21 10 21H4C3.44784 21 3.00019 20.5521 3 20V14C3.00019 13.4479 3.44783 13 4 13Z" fill="oklch(0.3523 0 0 / 1)" class="wd-icon-fill"></path>
<path d="M20 3C20.5522 3.00001 20.9998 3.44788 21 4V10C20.9998 10.5521 20.5522 11 20 11C19.4478 11 19.0002 10.5521 19 10V5H14C13.4478 4.99999 13.0002 4.55212 13 4C13.0001 3.44783 13.4478 3 14 3H20Z" fill="oklch(0.3523 0 0 / 1)" class="wd-icon-fill"></path>
</g>
</svg>