<svg class="wd-icon wd-icon-sana" role="presentation" width="24" height="24" viewBox="0 0 24 24" xmlns="http://www.w3.org/2000/svg">
<path class="wd-icon-fill" d="M12.0017 9.29011C13.4899 9.29011 14.6963 8.08369 14.6963 6.59549C14.6963 5.1073 13.4899 3.90088 12.0017 3.90088C10.5135 3.90088 9.30704 5.1073 9.30704 6.59549C9.30704 8.08369 10.5135 9.29011 12.0017 9.29011Z" fill="oklch(0.3523 0 0 / 1)"/>
<path class="wd-icon-fill" d="M9.28962 12.0031C9.28962 10.5149 8.0832 9.30845 6.59501 9.30845C5.10681 9.30845 3.90039 10.5149 3.90039 12.0031C3.90039 13.4913 5.10681 14.6977 6.59501 14.6977C8.0832 14.6977 9.28962 13.4913 9.28962 12.0031Z" fill="oklch(0.3523 0 0 / 1)"/>
<path class="wd-icon-fill" d="M14.6963 17.4059C14.6963 18.8941 13.4899 20.1005 12.0017 20.1005C10.5135 20.1005 9.30704 18.8941 9.30704 17.4059C9.30704 15.9177 10.5135 14.7113 12.0017 14.7113C13.4899 14.7113 14.6963 15.9177 14.6963 17.4059Z" fill="oklch(0.3523 0 0 / 1)"/>
<path class="wd-icon-fill" d="M20.1004 12.0031C20.1004 10.5149 18.8939 9.30845 17.4057 9.30845C15.9176 9.30845 14.7111 10.5149 14.7111 12.0031C14.7111 13.4913 15.9176 14.6977 17.4057 14.6977C18.8939 14.6977 20.1004 13.4913 20.1004 12.0031Z" fill="oklch(0.3523 0 0 / 1)"/>
</svg>
