<svg width="24" height="24" viewBox="0 0 24 24" xmlns="http://www.w3.org/2000/svg" class="wd-icon wd-icon-cube" role="presentation">
<path d="M11.2861 3.20244C11.7457 3.02692 12.2543 3.02692 12.7139 3.20244L19.7139 5.87627C20.4883 6.17225 21 6.91532 21 7.74444V16.2562C20.9999 17.0852 20.4883 17.8284 19.7139 18.1243L12.7139 20.7981C12.2544 20.9736 11.7456 20.9736 11.2861 20.7981L4.28613 18.1243C3.5117 17.8284 3.00008 17.0852 3 16.2562V7.74444C3 6.91532 3.51168 6.17225 4.28613 5.87627L11.2861 3.20244ZM5 16.2562L11 18.5472V10.8001L5 8.50811V16.2562ZM13 10.8001V18.5472L19 16.2562V8.50811L13 10.8001ZM6.80273 7.05498L12 9.04033L17.1963 7.05498L12 5.07061L6.80273 7.05498Z" fill="oklch(0.3523 0 0 / 1)" class="wd-icon-fill"></path>
</svg>