<svg width="24" height="24" viewBox="0 0 24 24" xmlns="http://www.w3.org/2000/svg" class="wd-icon wd-icon-chevron-2x-down-small" role="presentation">
<g>
<path d="M18.7069 5.29191C19.0975 5.68244 19.0975 6.31545 18.7069 6.70598L12.7069 12.706C12.3164 13.0965 11.6834 13.0965 11.2929 12.706L5.29289 6.70598C4.90237 6.31545 4.90237 5.68243 5.29289 5.29191C5.68341 4.90139 6.31642 4.9014 6.70695 5.29191L11.9999 10.5849L17.2929 5.29191C17.6834 4.90139 18.3164 4.9014 18.7069 5.29191Z" fill="oklch(0.3523 0 0 / 1)" class="wd-icon-fill"></path>
<path d="M18.7069 11.7929C19.0974 12.1834 19.0974 12.8165 18.7069 13.207L12.7069 19.207C12.3164 19.5971 11.6833 19.5972 11.2929 19.207L5.29289 13.207C4.90249 12.8166 4.90273 12.1834 5.29289 11.7929C5.68341 11.4024 6.31642 11.4024 6.70695 11.7929L11.9999 17.0859L17.2929 11.7929C17.6834 11.4024 18.3164 11.4024 18.7069 11.7929Z" fill="oklch(0.3523 0 0 / 1)" class="wd-icon-fill"></path>
</g>
</svg>