<svg width="24" height="24" viewBox="0 0 24 24" xmlns="http://www.w3.org/2000/svg" class="wd-icon wd-icon-command-line" role="presentation">
<g>
<path d="M4.29289 6.29289C4.68342 5.90237 5.31643 5.90237 5.70696 6.29289L10.707 11.2929C11.0974 11.6834 11.0975 12.3165 10.707 12.707L5.70696 17.707C5.31646 18.0975 4.68342 18.0974 4.29289 17.707C3.90237 17.3164 3.90237 16.6834 4.29289 16.2929L8.58586 11.9999L4.29289 7.70696C3.90237 7.31643 3.90237 6.68342 4.29289 6.29289Z" fill="oklch(0.3523 0 0 / 1)" class="wd-icon-fill"></path>
<path d="M20.9999 15.9999C21.5522 16 21.9999 16.4477 21.9999 16.9999C21.9999 17.5521 21.5521 17.9999 20.9999 17.9999H11.9999C11.4477 17.9999 11 17.5522 10.9999 16.9999C10.9999 16.4476 11.4476 15.9999 11.9999 15.9999H20.9999Z" fill="oklch(0.3523 0 0 / 1)" class="wd-icon-fill"></path>
</g>
</svg>