<svg width="24" height="24" viewBox="0 0 24 24" xmlns="http://www.w3.org/2000/svg" class="wd-icon wd-icon-arrow-corner-down-right" role="presentation">
<path d="M4.5 3C4.77614 3 5 3.22386 5 3.5V8.00098C5.0002 11.8666 8.13438 15.0007 12 15.001H18.8906L16.8516 12.5088L16.8525 12.5078L16.0439 11.5205C15.8692 11.3068 15.9006 10.9922 16.1143 10.8174L16.8877 10.1846C17.1014 10.0098 17.4169 10.0413 17.5918 10.2549L19.209 12.2305C19.2112 12.2332 19.2137 12.2366 19.2158 12.2393L21.7754 15.3682C22.0759 15.7363 22.0761 16.2658 21.7754 16.6338L17.5918 21.7471C17.4171 21.9605 17.1014 21.9926 16.8877 21.8184L16.1133 21.1855C15.8994 21.0107 15.8681 20.6952 16.043 20.4814L18.8906 17.001H12C7.02981 17.0007 3.0002 12.9712 3 8.00098V3.5C3 3.22394 3.22397 3.00013 3.5 3H4.5Z" fill="oklch(0.3523 0 0 / 1)" class="wd-icon-fill"></path>
</svg>