<svg width="24" height="24" viewBox="0 0 24 24" xmlns="http://www.w3.org/2000/svg" class="wd-icon wd-icon-user-check" role="presentation">
<g>
<path d="M12.0009 12C12.5531 12.0001 13.0009 12.4478 13.0009 13C13.0009 13.5522 12.5531 13.9999 12.0009 14C10.0286 14 8.33676 14.3759 7.12592 15.1162C5.99039 15.8106 5.23794 16.8453 5.04877 18.3525C6.18163 18.5977 8.55938 19 12.0009 19C12.5531 19.0001 13.0009 19.4478 13.0009 20C13.0009 20.5522 12.5531 20.9999 12.0009 21C8.27814 21 5.70855 20.5517 4.49799 20.2812C3.60276 20.0811 2.94473 19.254 3.04291 18.2852L3.09564 17.874C3.41327 15.8533 4.51133 14.3712 6.08295 13.4102C7.7174 12.4108 9.81434 12 12.0009 12Z" fill="oklch(0.3523 0 0 / 1)" class="wd-icon-fill"></path>
<path d="M12.0009 1.5C14.4861 1.5001 16.5009 3.51478 16.5009 6C16.5009 8.48522 14.4861 10.4999 12.0009 10.5C9.51564 10.5 7.50092 8.48528 7.50092 6C7.50092 3.51472 9.51564 1.5 12.0009 1.5ZM12.0009 3.5C10.6202 3.5 9.50092 4.61929 9.50092 6C9.50092 7.38071 10.6202 8.5 12.0009 8.5C13.3815 8.4999 14.5009 7.38065 14.5009 6C14.5009 4.61935 13.3815 3.5001 12.0009 3.5Z" fill="oklch(0.3523 0 0 / 1)" class="wd-icon-fill"></path>
</g>
<path d="M20.4716 14.4696C20.7645 14.1768 21.2393 14.1768 21.5321 14.4696C21.8247 14.7625 21.8248 15.2373 21.5321 15.5301L17.5321 19.5301C17.2393 19.8229 16.7645 19.8227 16.4716 19.5301L14.4716 17.5301C14.1788 17.2372 14.1787 16.7624 14.4716 16.4696C14.7645 16.1768 15.2392 16.1768 15.5321 16.4696L17.0019 17.9393L20.4716 14.4696Z" fill="oklch(0.3523 0 0 / 1)" class="wd-icon-accent"></path>
</svg>