<svg width="24" height="24" viewBox="0 0 24 24" xmlns="http://www.w3.org/2000/svg" class="wd-icon wd-icon-copy" role="presentation">
<path d="M11.2002 9C12.0566 9 12.6388 9.00035 13.0889 9.03711C13.5272 9.07293 13.7518 9.13809 13.9082 9.21777C14.2844 9.4095 14.5905 9.71557 14.7822 10.0918C14.8619 10.2482 14.9271 10.4728 14.9629 10.9111C14.9996 11.3612 15 11.9435 15 12.7998V15.2002C15 16.0565 14.9996 16.6388 14.9629 17.0889C14.9271 17.5272 14.8619 17.7518 14.7822 17.9082C14.5905 18.2844 14.2844 18.5905 13.9082 18.7822C13.7518 18.8619 13.5273 18.9271 13.0889 18.9629C12.6388 18.9997 12.0566 19 11.2002 19H8.7998C7.94342 19 7.36117 18.9997 6.91113 18.9629C6.47272 18.9271 6.2482 18.8619 6.0918 18.7822C5.71556 18.5905 5.4095 18.2844 5.21777 17.9082C5.1381 17.7518 5.07292 17.5272 5.03711 17.0889C5.00035 16.6388 5 16.0565 5 15.2002V12.7998C5 11.9435 5.00035 11.3612 5.03711 10.9111C5.07293 10.4728 5.13809 10.2482 5.21777 10.0918C5.40951 9.71557 5.71557 9.4095 6.0918 9.21777C6.2482 9.13809 6.47275 9.07293 6.91113 9.03711C7.36117 9.00035 7.94342 9 8.7998 9H11.2002Z" fill="transparent" class="wd-icon-background"></path>
<path d="M15.2002 3.00008C16.0237 3.00008 16.7016 2.99906 17.252 3.04403C17.814 3.08996 18.3311 3.18837 18.8164 3.43563C19.5689 3.81909 20.181 4.43122 20.5645 5.18368C20.8117 5.66893 20.9101 6.18614 20.9561 6.74813C21.001 7.29847 21 7.97649 21 8.79989V12.0001C21 12.8656 21.0081 13.4946 20.8633 14.0352C20.4934 15.4155 19.4155 16.4935 18.0352 16.8634C17.7201 16.9478 17.375 16.9779 16.9707 16.9903C16.9658 17.0805 16.9629 17.1679 16.9561 17.252C16.9101 17.814 16.8117 18.3312 16.5645 18.8165C16.181 19.5689 15.5689 20.1811 14.8164 20.5645C14.3311 20.8118 13.814 20.9102 13.252 20.9561C12.7016 21.0011 12.0237 21.0001 11.2002 21.0001H8.79981C7.97632 21.0001 7.29843 21.0011 6.74805 20.9561C6.18601 20.9102 5.66889 20.8118 5.1836 20.5645C4.43114 20.1811 3.81901 19.5689 3.43555 18.8165C3.18832 18.3312 3.08988 17.814 3.04395 17.252C2.99899 16.7017 3 16.0237 3 15.2003V12.7999C3 11.9765 2.99899 11.2985 3.04395 10.7481C3.08988 10.1861 3.18832 9.66893 3.43555 9.18368C3.81901 8.43122 4.43113 7.81909 5.1836 7.43563C5.66889 7.18837 6.18601 7.08996 6.74805 7.04403C6.83194 7.03717 6.91891 7.03329 7.00879 7.0284C7.0212 6.62458 7.05239 6.2797 7.13672 5.96493C7.50661 4.58461 8.58452 3.50667 9.96485 3.1368C10.5056 2.99192 11.1344 3.00008 12 3.00008H15.2002ZM8.79981 9.00008C7.94342 9.00008 7.36117 9.00043 6.91113 9.03719C6.47276 9.07301 6.2482 9.13818 6.0918 9.21786C5.71559 9.40958 5.4095 9.71567 5.21778 10.0919C5.13811 10.2483 5.07293 10.4729 5.03711 10.9112C5.00036 11.3612 5 11.9436 5 12.7999V15.2003C5 16.0566 5.00036 16.6389 5.03711 17.089C5.07293 17.5272 5.13811 17.7519 5.21778 17.9083C5.40951 18.2845 5.71559 18.5906 6.0918 18.7823C6.2482 18.862 6.47277 18.9272 6.91113 18.963C7.36117 18.9997 7.94342 19.0001 8.79981 19.0001H11.2002C12.0566 19.0001 12.6388 18.9997 13.0889 18.963C13.5272 18.9272 13.7518 18.862 13.9082 18.7823C14.2844 18.5906 14.5905 18.2845 14.7822 17.9083C14.8619 17.7519 14.9271 17.5272 14.9629 17.089C14.9996 16.6389 15 16.0566 15 15.2003V12.7999C15 11.9436 14.9996 11.3612 14.9629 10.9112C14.9271 10.4729 14.8619 10.2483 14.7822 10.0919C14.5905 9.71567 14.2844 9.40958 13.9082 9.21786C13.7518 9.13818 13.5272 9.07301 13.0889 9.03719C12.6388 9.00043 12.0566 9.00008 11.2002 9.00008H8.79981ZM12 5.00008C11.0057 5.00008 10.7047 5.00889 10.4824 5.06844C9.79228 5.25338 9.25331 5.79237 9.06836 6.48251C9.03656 6.60125 9.01998 6.74269 9.01074 7.00008H11.2002C12.0237 7.00008 12.7016 6.99906 13.252 7.04403C13.814 7.08996 14.3311 7.18837 14.8164 7.43563C15.5689 7.81909 16.181 8.43122 16.5645 9.18368C16.8117 9.66893 16.9101 10.1861 16.9561 10.7481C17.001 11.2985 17 11.9765 17 12.7999V14.9893C17.2575 14.9801 17.3988 14.9635 17.5176 14.9317C18.2077 14.7468 18.7467 14.2078 18.9316 13.5177C18.9912 13.2954 19 12.9942 19 12.0001V8.79989C19 7.94362 18.9996 7.36122 18.9629 6.91122C18.9271 6.47294 18.8619 6.24827 18.7822 6.09188C18.5905 5.71567 18.2844 5.40958 17.9082 5.21786C17.7518 5.13818 17.5272 5.07301 17.0889 5.03719C16.6388 5.00043 16.0566 5.00008 15.2002 5.00008H12Z" fill="oklch(0.3523 0 0 / 1)" class="wd-icon-fill"></path>
</svg>