<svg width="24" height="24" viewBox="0 0 24 24" xmlns="http://www.w3.org/2000/svg" class="wd-icon wd-icon-join-inner" role="presentation">
<path d="M16.5 5C20.0899 5 23 7.91015 23 11.5C23 15.0899 20.0899 18 16.5 18C14.7528 17.9999 13.168 17.3091 12 16.1875C10.832 17.309 9.24714 18 7.5 18C3.91029 17.9998 1 15.0897 1 11.5C1 7.91025 3.91029 5.00016 7.5 5C9.2469 5 10.832 5.69029 12 6.81152C13.1679 5.69018 14.7531 5.00008 16.5 5ZM7.5 7C5.01486 7.00016 3 9.01482 3 11.5C3 13.9852 5.01486 15.9998 7.5 16C8.42596 16 9.2865 15.7197 10.002 15.2402C9.36591 14.1393 9 12.863 9 11.5C9 10.1367 9.36489 8.85916 10.001 7.75781C9.28583 7.27898 8.42528 7 7.5 7ZM16.5 7C15.5742 7.00006 14.7134 7.27937 13.998 7.75879C14.6342 8.85996 15 10.1368 15 11.5C15 12.8629 14.6332 14.1385 13.9971 15.2393C14.7128 15.7193 15.5735 15.9999 16.5 16C18.9853 16 21 13.9853 21 11.5C21 9.01472 18.9853 7 16.5 7Z" fill="oklch(0.3523 0 0 / 1)" class="wd-icon-fill"></path>
</svg>