<svg width="24" height="24" viewBox="0 0 24 24" xmlns="http://www.w3.org/2000/svg" class="wd-icon wd-icon-document-user-search" role="presentation">
<path d="M18.5 1C19.3284 1 20 1.67157 20 2.5V11.5C20 11.7761 19.7761 12 19.5 12H18.5C18.2239 12 18 11.7761 18 11.5V3H6V21H12.5C12.7761 21 13 21.2239 13 21.5V22.5C13 22.7761 12.7761 23 12.5 23H5.5C4.67157 23 4 22.3284 4 21.5V2.5C4 1.67157 4.67157 1 5.5 1H18.5Z" fill="oklch(0.3523 0 0 / 1)" class="wd-icon-fill"></path>
<g>
<path d="M17 13C19.2091 13 21 14.7909 21 17C21 17.7417 20.7971 18.4358 20.4453 19.0312L22.1035 20.6895C22.2985 20.8846 22.2984 21.2012 22.1035 21.3965L21.3965 22.1035C21.2013 22.2987 20.8847 22.2986 20.6895 22.1035L19.0312 20.4453C18.4358 20.7971 17.7417 21 17 21C14.7909 21 13 19.2091 13 17C13 14.7909 14.7909 13 17 13ZM17 15C15.8954 15 15 15.8954 15 17C15 18.1046 15.8954 19 17 19C18.1046 19 19 18.1046 19 17C19 15.8954 18.1046 15 17 15Z" fill="oklch(0.3523 0 0 / 1)" class="wd-icon-accent"></path>
<path d="M11.5 17C11.7761 17 12 17.2239 12 17.5V18.5C12 18.7761 11.7761 19 11.5 19H8.5C8.22386 19 8 18.7761 8 18.5V17.5C8 17.2239 8.22386 17 8.5 17H11.5Z" fill="oklch(0.3523 0 0 / 1)" class="wd-icon-accent"></path>
<path d="M11.5 14C11.7761 14 12 14.2239 12 14.5V15.5C12 15.7761 11.7761 16 11.5 16H8.5C8.22386 16 8 15.7761 8 15.5V14.5C8 14.2239 8.22386 14 8.5 14H11.5Z" fill="oklch(0.3523 0 0 / 1)" class="wd-icon-accent"></path>
<path d="M12 10C13.4564 10 14.7919 10.5189 15.8311 11.3818C15.9403 11.4726 15.9999 11.6089 16 11.751C16 11.9538 15.8565 12.1264 15.6611 12.1807C15.108 12.3342 14.5931 12.5813 14.1348 12.9023C14.0461 12.9643 13.9412 13 13.833 13H8.5L8.39941 12.9902C8.17145 12.9437 8 12.7417 8 12.5V11.751C8.00009 11.6089 8.05973 11.4726 8.16895 11.3818C9.20815 10.5189 10.5436 10 12 10Z" fill="oklch(0.3523 0 0 / 1)" class="wd-icon-accent"></path>
<path d="M12 5C13.1046 5 14 5.89543 14 7C14 8.10457 13.1046 9 12 9C10.8954 9 10 8.10457 10 7C10 5.89543 10.8954 5 12 5Z" fill="oklch(0.3523 0 0 / 1)" class="wd-icon-accent"></path>
</g>
</svg>