<svg width="24" height="24" viewBox="0 0 24 24" xmlns="http://www.w3.org/2000/svg" class="wd-icon wd-icon-megaphone" role="presentation">
<path d="M2 10.5V13.4999L21 19.5311V4.46875L2 10.5Z" fill="transparent" class="wd-icon-background"></path>
<path d="M21.5 3C21.7761 3 22 3.22386 22 3.5V20.5C22 20.7761 21.7761 21 21.5 21H20.5C20.2239 21 20 20.7761 20 20.5V20.2627L13.9404 18.3389L13.4893 19.7646C13.1548 20.8183 12.0294 21.4001 10.9775 21.0664L7.16797 19.8584C6.11591 19.5245 5.53172 18.4005 5.86523 17.3477L6.31738 15.9189L2.875 14.8262C2.78333 14.9315 2.65057 15 2.5 15H1.5C1.22386 15 1 14.7761 1 14.5V9.5C1 9.22386 1.22386 9 1.5 9H2.5C2.65031 9 2.78334 9.06788 2.875 9.17285L20 3.73633V3.5C20 3.22386 20.2239 3 20.5 3H21.5ZM7.77148 17.9512L7.77246 17.9521L11.582 19.1602L12.0332 17.7334L8.22168 16.5234L7.77148 17.9512ZM3 11.2314V12.7676L13.5928 16.1299L13.5967 16.1309L20 18.1641V5.83496L3 11.2314Z" fill="oklch(0.3523 0 0 / 1)" class="wd-icon-fill"></path>
</svg>