<svg width="24" height="24" viewBox="0 0 24 24" xmlns="http://www.w3.org/2000/svg" class="wd-icon wd-icon-pointer" role="presentation">
<path d="M18.5566 10.541L13.5176 12.3975C12.9976 12.589 12.5871 12.9986 12.3955 13.5186L10.54 18.5576L6.53711 6.53809L18.5566 10.541Z" fill="transparent" class="wd-icon-background"></path>
<path d="M4.73981 7.13629C4.24734 5.65741 5.65449 4.25029 7.13337 4.74273L19.1539 8.74566C20.8505 9.31121 20.8878 11.6975 19.2095 12.316L14.1695 14.1724L12.314 19.2125C11.6955 20.8907 9.30809 20.8527 8.74274 19.1558L4.73981 7.13629ZM10.5386 18.5582L12.3951 13.5191C12.5867 12.9992 12.9962 12.5886 13.5162 12.397L18.5552 10.5406L6.53571 6.53765L10.5386 18.5582Z" fill="oklch(0.3523 0 0 / 1)" class="wd-icon-fill"></path>
</svg>