<svg width="24" height="24" viewBox="0 0 24 24" xmlns="http://www.w3.org/2000/svg" class="wd-icon wd-icon-text-input" role="presentation">
<path d="M3 8.5C3 8.22386 3.22386 8 3.5 8H20.5C20.7761 8 21 8.22386 21 8.5V15.5C21 15.7761 20.7761 16 20.5 16H3.5C3.22386 16 3 15.7761 3 15.5V8.5Z" fill="transparent" class="wd-icon-background"></path>
<path d="M20.5 7C21.3284 7 22 7.67157 22 8.5V15.5C22 16.3284 21.3284 17 20.5 17H3.5C2.67157 17 2 16.3284 2 15.5V8.5C2 7.67157 2.67157 7 3.5 7H20.5ZM4 15H20V9H4V15Z" fill="oklch(0.3523 0 0 / 1)" class="wd-icon-fill"></path>
<path d="M18 12.5C18 12.7761 17.7761 13 17.5 13H6.5C6.22386 13 6 12.7761 6 12.5V11.5C6 11.2239 6.22386 11 6.5 11H17.5C17.7761 11 18 11.2239 18 11.5V12.5Z" fill="oklch(0.3523 0 0 / 1)" class="wd-icon-accent"></path>
</svg>