<svg width="24" height="24" viewBox="0 0 24 24" xmlns="http://www.w3.org/2000/svg" class="wd-icon wd-icon-table-swap-axis" role="presentation">
<path d="M16.2002 4C17.0237 4 17.7016 3.99898 18.252 4.04395C18.814 4.08988 19.3311 4.18828 19.8164 4.43555C20.5689 4.81902 21.181 5.4311 21.5645 6.1836C21.8117 6.6689 21.9101 7.186 21.9561 7.74805C22.001 8.29843 22 8.97632 22 9.79981V11C22 11.5523 21.5523 12 21 12C20.4477 12 20 11.5523 20 11V10.5H12.75V13.5H16C16.4142 13.5 16.75 13.8358 16.75 14.25C16.75 14.6642 16.4142 15 16 15H12.75V18.25C12.75 19.1817 12.0217 19.9405 11.1035 19.9941C11.0695 19.9976 11.035 20 11 20H7.79981C6.97632 20 6.29843 20.001 5.74805 19.9561C5.186 19.9101 4.6689 19.8117 4.1836 19.5645C3.4311 19.181 2.81902 18.5689 2.43555 17.8164C2.18828 17.3311 2.08988 16.814 2.04395 16.252C1.99898 15.7016 2 15.0237 2 14.2002V9.79981C2 8.97632 1.99898 8.29843 2.04395 7.74805C2.08988 7.186 2.18827 6.6689 2.43555 6.1836C2.81902 5.43109 3.43109 4.81902 4.1836 4.43555C4.6689 4.18828 5.186 4.08988 5.74805 4.04395C6.29843 3.99898 6.97632 4 7.79981 4H16.2002ZM4.00391 15C4.00691 15.4455 4.01313 15.7953 4.03711 16.0889C4.07293 16.5273 4.13809 16.7518 4.21778 16.9082C4.40951 17.2845 4.71555 17.5905 5.0918 17.7822C5.2482 17.8619 5.47273 17.9271 5.91113 17.9629C6.36117 17.9997 6.94342 18 7.79981 18H11.25V15H4.00391ZM4 13.5H11.25V10.5H4V13.5ZM7.79981 6C6.94342 6 6.36117 6.00035 5.91113 6.03711C5.47273 6.07293 5.2482 6.13809 5.0918 6.21778C4.71555 6.40951 4.40951 6.71555 4.21778 7.0918C4.13809 7.2482 4.07293 7.47273 4.03711 7.91113C4.01313 8.2047 4.00691 8.55454 4.00391 9H11.25V6H7.79981ZM12.75 9H19.9961C19.9931 8.55454 19.9869 8.2047 19.9629 7.91113C19.9271 7.47273 19.8619 7.2482 19.7822 7.0918C19.5905 6.71555 19.2845 6.40951 18.9082 6.21778C18.7518 6.13809 18.5273 6.07293 18.0889 6.03711C17.6388 6.00035 17.0566 6 16.2002 6H12.75V9Z" fill="oklch(0.3523 0 0 / 1)" class="wd-icon-fill"></path>
<path d="M20.3339 13.6239C20.5319 13.3272 20.9681 13.3271 21.166 13.6239L22.8984 16.2226C23.1198 16.5548 22.8816 16.9998 22.4824 16.9999H21.5V18.7499C21.4999 20.2686 20.2686 21.4998 18.75 21.4999H17V22.4823C16.9997 22.8814 16.5548 23.1196 16.2226 22.8983L13.624 21.1659C13.3272 20.968 13.3271 20.5318 13.624 20.3339L16.2226 18.6015C16.5549 18.38 17 18.6181 17 19.0175V19.9999H18.75C19.4402 19.9998 19.9999 19.4402 20 18.7499V16.9999H19.0175C18.6183 16.9998 18.3801 16.5548 18.6015 16.2226L20.3339 13.6239Z" fill="oklch(0.3523 0 0 / 1)" class="wd-icon-accent"></path>
</svg>