<svg width="24" height="24" viewBox="0 0 24 24" xmlns="http://www.w3.org/2000/svg" class="wd-icon wd-icon-shapes-plus" role="presentation">
<g>
<path d="M16.5 12.7498C16.9142 12.7498 17.25 13.0856 17.25 13.4998V15.7498H19.5C19.9142 15.7498 20.25 16.0856 20.25 16.4998C20.25 16.914 19.9142 17.2498 19.5 17.2498H17.25V19.4998C17.25 19.914 16.9142 20.2498 16.5 20.2498C16.0858 20.2498 15.75 19.914 15.75 19.4998V17.2498H13.5C13.0858 17.2498 12.75 16.914 12.75 16.4998C12.75 16.0856 13.0858 15.7498 13.5 15.7498H15.75V13.4998C15.75 13.0856 16.0858 12.7498 16.5 12.7498Z" fill="oklch(0.3523 0 0 / 1)" class="wd-icon-fill"></path>
<path d="M7.5 12.9998C9.433 12.9998 11 14.5668 11 16.4998C10.9999 18.4327 9.43294 19.9998 7.5 19.9998C5.56706 19.9998 4.0001 18.4327 4 16.4998C4 14.5668 5.567 12.9998 7.5 12.9998ZM7.5 14.9998C6.67157 14.9998 6 15.6714 6 16.4998C6.0001 17.3282 6.67163 17.9998 7.5 17.9998C8.32837 17.9998 8.9999 17.3282 9 16.4998C9 15.6714 8.32843 14.9998 7.5 14.9998Z" fill="oklch(0.3523 0 0 / 1)" class="wd-icon-fill"></path>
<path d="M9 3.99982C10.1046 3.99982 11 4.89525 11 5.99982V8.99982C10.9999 10.1043 10.1045 10.9998 9 10.9998H6C4.89549 10.9998 4.0001 10.1043 4 8.99982V5.99982C4 4.89525 4.89543 3.99982 6 3.99982H9ZM6 8.99982H9V5.99982H6V8.99982Z" fill="oklch(0.3523 0 0 / 1)" class="wd-icon-fill"></path>
<path d="M14.7725 4.97638C15.5443 3.6537 17.4557 3.65371 18.2275 4.97638L19.9863 7.992C20.7639 9.3253 19.8023 10.9998 18.2588 10.9998H14.7412C13.1977 10.9998 12.2361 9.32529 13.0137 7.992L14.7725 4.97638ZM14.7412 8.99982H18.2588L16.5 5.98419L14.7412 8.99982Z" fill="oklch(0.3523 0 0 / 1)" class="wd-icon-fill"></path>
</g>
</svg>