<svg width="24" height="24" viewBox="0 0 24 24" xmlns="http://www.w3.org/2000/svg" class="wd-icon wd-icon-face-happy" role="presentation">
<path d="M22 12C22 17.5228 17.5228 22 12 22C6.47715 22 2 17.5228 2 12C2 6.47715 6.47715 2 12 2C17.5228 2 22 6.47715 22 12Z" fill="transparent" class="wd-icon-background"></path>
<path d="M12 1C18.0751 1 23 5.92487 23 12C23 18.0751 18.0751 23 12 23C5.92487 23 1 18.0751 1 12C1 5.92487 5.92487 1 12 1ZM12 3C7.02944 3 3 7.02944 3 12C3 16.9706 7.02944 21 12 21C16.9706 21 21 16.9706 21 12C21 7.02944 16.9706 3 12 3Z" fill="oklch(0.3523 0 0 / 1)" class="wd-icon-fill"></path>
<g>
<path d="M15.949 14.6631C16.1682 14.4952 16.4836 14.5111 16.6678 14.7168L17.3347 15.4619C17.5189 15.6677 17.5021 15.9854 17.2859 16.1572C15.8354 17.3098 13.9971 17.9999 12.0008 18C10.0045 17.9999 8.16698 17.3097 6.71658 16.1572C6.50038 15.9854 6.48357 15.6677 6.66776 15.4619L7.33475 14.7168C7.51892 14.5111 7.83429 14.4952 8.0535 14.6631C9.14811 15.5015 10.5153 15.9999 12.0008 16C13.4863 15.9999 14.8543 15.5016 15.949 14.6631Z" fill="oklch(0.3523 0 0 / 1)" class="wd-icon-accent"></path>
<path d="M9.50076 7C9.77669 7.00026 10.0008 7.22402 10.0008 7.5V11.5C10.0008 11.776 9.77669 11.9997 9.50076 12H8.50076C8.22462 12 8.00076 11.7761 8.00076 11.5V7.5C8.00076 7.22386 8.22462 7 8.50076 7H9.50076Z" fill="oklch(0.3523 0 0 / 1)" class="wd-icon-accent"></path>
<path d="M15.5008 7C15.7767 7.00026 16.0008 7.22402 16.0008 7.5V11.5C16.0008 11.776 15.7767 11.9997 15.5008 12H14.5008C14.2246 12 14.0008 11.7761 14.0008 11.5V7.5C14.0008 7.22386 14.2246 7 14.5008 7H15.5008Z" fill="oklch(0.3523 0 0 / 1)" class="wd-icon-accent"></path>
</g>
</svg>