<svg width="24" height="24" viewBox="0 0 24 24" xmlns="http://www.w3.org/2000/svg" class="wd-icon wd-icon-stapler" role="presentation">
<path d="M7.3418 7.08346C7.52882 7.07156 7.77132 7.10184 8.56055 7.22018L14.8379 8.16158C15.5812 8.27303 15.8642 8.31736 16.0938 8.38229C17.6364 8.81899 18.7697 10.1349 18.9727 11.7251C19.0014 11.9512 19.0037 12.2223 19.0039 12.9057C18.9992 12.9557 18.9982 13.0058 19.001 13.0551V16.9995H15.001V12.0962C15.001 11.6014 14.6386 11.1806 14.1494 11.1069L5.58691 9.82076C5.44858 9.79996 5.37068 9.78839 5.31543 9.77779C5.31126 9.77699 5.30711 9.7756 5.30371 9.77486C5.30409 9.77221 5.30516 9.76913 5.30566 9.76607C5.31415 9.70977 5.32901 9.63245 5.35547 9.49361C5.50526 8.70763 5.55675 8.46968 5.62988 8.29732C5.92538 7.6017 6.58756 7.13208 7.3418 7.08346Z" fill="transparent" class="wd-icon-background"></path>
<path d="M7.21191 5.08708C7.66596 5.05786 8.16828 5.13902 8.85742 5.24235L15.1348 6.18376C15.8204 6.28656 16.2566 6.35006 16.6387 6.45817C18.9524 7.11305 20.6524 9.08668 20.957 11.4718C21.0072 11.8655 21.0049 12.3061 21.0049 13.0002C21.0049 13.0272 21.0022 13.0545 21 13.0812V17.0002C20.9997 18.1041 20.1046 19 19 19.0002H4C3.44776 19.0001 3 18.5524 3 18.0002C3.00015 17.448 3.44786 17.0002 4 17.0002H13V12.9572L5.29004 11.799C5.08224 11.7678 4.80689 11.7325 4.57031 11.6398C3.82874 11.349 3.33042 10.6459 3.30176 9.84977C3.29292 9.59679 3.35009 9.32687 3.38965 9.11931C3.52014 8.43457 3.60947 7.93431 3.78711 7.51579C4.37809 6.12477 5.70354 5.1844 7.21191 5.08708ZM7.34082 7.08317C6.58694 7.1318 5.92457 7.6018 5.62891 8.29704C5.55579 8.46925 5.50439 8.70776 5.35449 9.49431C5.32812 9.63269 5.31322 9.70953 5.30469 9.76579C5.30419 9.76906 5.30319 9.77273 5.30273 9.77556C5.30567 9.77614 5.30903 9.77685 5.3125 9.77751C5.36894 9.78817 5.44646 9.79936 5.58691 9.82048L14.1484 11.1076C14.6376 11.1812 14.9998 11.6022 15 12.0968V17.0002H19V13.0002C18.9999 12.962 18.9995 12.9232 19.0039 12.8849C19.0037 12.2174 19.0012 11.9496 18.9727 11.7258C18.7696 10.1355 17.6363 8.81854 16.0938 8.382C15.8647 8.31721 15.5837 8.2741 14.8379 8.16227L8.56055 7.22087C7.76831 7.10208 7.52736 7.07122 7.34082 7.08317Z" fill="oklch(0.3523 0 0 / 1)" class="wd-icon-fill"></path>
<path d="M5 11.752C5.10193 11.7704 5.20084 11.7864 5.29004 11.7998L6.5 11.9814V14.5H13.001V16H5.75C5.33579 16 5 15.6642 5 15.25V11.752Z" fill="oklch(0.3523 0 0 / 1)" class="wd-icon-accent"></path>
</svg>