<svg width="24" height="24" viewBox="0 0 24 24" xmlns="http://www.w3.org/2000/svg" class="wd-icon wd-icon-document-blank" role="presentation">
<path d="M11.0117 1.00007C11.6979 1.00007 12.2043 0.993476 12.6914 1.11042C13.0995 1.20841 13.4898 1.37064 13.8477 1.58991C14.2746 1.85164 14.6282 2.21425 15.1133 2.69929L18.3008 5.88679C18.7858 6.37182 19.1484 6.72546 19.4102 7.15241C19.6294 7.51023 19.7917 7.9006 19.8897 8.30866C20.0066 8.79577 20 9.30219 20 9.98835V17.2003C20 18.0237 20.001 18.7016 19.9561 19.252C19.9101 19.8141 19.8117 20.3312 19.5645 20.8165C19.181 21.569 18.5689 22.1811 17.8164 22.5645C17.3311 22.8118 16.814 22.9102 16.252 22.9561C15.7016 23.0011 15.0237 23.0001 14.2002 23.0001H9.79981C8.97632 23.0001 8.29843 23.0011 7.74805 22.9561C7.186 22.9102 6.6689 22.8118 6.1836 22.5645C5.4311 22.1811 4.81901 21.569 4.43555 20.8165C4.18828 20.3312 4.08988 19.8141 4.04395 19.252C3.99898 18.7016 4 18.0237 4 17.2003V6.79987C4 5.97639 3.99898 5.29849 4.04395 4.74811C4.08988 4.18607 4.18828 3.66896 4.43555 3.18366C4.81902 2.43116 5.4311 1.81908 6.1836 1.43561C6.6689 1.18834 7.186 1.08994 7.74805 1.04401C8.29843 0.999045 8.97632 1.00007 9.79981 1.00007H11.0117ZM9.79981 3.00007C8.94342 3.00007 8.36117 3.00042 7.91113 3.03718C7.47273 3.073 7.2482 3.13815 7.0918 3.21784C6.71555 3.40957 6.40951 3.71562 6.21778 4.09186C6.13809 4.24826 6.07293 4.4728 6.03711 4.9112C6.00035 5.36123 6 5.9435 6 6.79987V17.2003C6 18.0566 6.00035 18.6389 6.03711 19.0889C6.07293 19.5273 6.13809 19.7519 6.21778 19.9083C6.40951 20.2845 6.71555 20.5906 7.0918 20.7823C7.2482 20.862 7.47273 20.9271 7.91113 20.963C8.36117 20.9997 8.94342 21.0001 9.79981 21.0001H14.2002C15.0566 21.0001 15.6388 20.9997 16.0889 20.963C16.5273 20.9271 16.7518 20.862 16.9082 20.7823C17.2845 20.5906 17.5905 20.2845 17.7822 19.9083C17.8619 19.7519 17.9271 19.5273 17.9629 19.0889C17.9997 18.6389 18 18.0566 18 17.2003V10.0001H14C12.8954 10.0001 12 9.10463 12 8.00007V3.02155C11.8142 3.00453 11.539 3.00007 11.0117 3.00007H9.79981ZM13.5 8.00007C13.5 8.27621 13.7239 8.50006 14 8.50007H17.8564C17.8146 8.39523 17.7642 8.29379 17.7051 8.19733C17.5958 8.01912 17.4388 7.85296 16.8867 7.30085L13.6992 4.11335C13.6265 4.04062 13.5602 3.97492 13.5 3.91511V8.00007Z" fill="oklch(0.3523 0 0 / 1)" class="wd-icon-fill"></path>
</svg>