<svg width="24" height="24" viewBox="0 0 24 24" xmlns="http://www.w3.org/2000/svg" class="wd-icon wd-icon-pi" role="presentation">
<path d="M20.5 4C20.7761 4 21 4.22386 21 4.5V5.5C21 5.77614 20.7761 6 20.5 6H16V17.1084C16 17.2717 16.0784 17.4273 16.2188 17.5107C16.7405 17.821 17.3484 18 18 18C18.7174 18 19.3835 17.7849 19.9385 17.415C20.168 17.2623 20.4819 17.2762 20.666 17.4814L21.333 18.2266C21.5172 18.4323 21.5009 18.7512 21.2793 18.916C20.3639 19.5966 19.228 20 18 20C16.5921 20 15.3054 19.4698 14.333 18.5996C14.1211 18.41 14.0001 18.1388 14 17.8545V6H9V19.5C9 19.7761 8.77614 20 8.5 20H7.5C7.22386 20 7 19.7761 7 19.5V6H3.5C3.22386 6 3 5.77614 3 5.5V4.5C3 4.22386 3.22386 4 3.5 4H20.5Z" fill="oklch(0.3523 0 0 / 1)" class="wd-icon-fill"></path>
</svg>