<svg width="24" height="24" viewBox="0 0 24 24" xmlns="http://www.w3.org/2000/svg" class="wd-icon wd-icon-donut-chart" role="presentation">
<path d="M12 2C15.3887 2 18.3837 3.68621 20.1924 6.26465C20.9454 7.34018 21.4795 8.55415 21.7637 9.83594C22.0478 11.1179 22.0766 12.4442 21.8486 13.7373C21.6206 15.0302 21.1399 16.2658 20.4346 17.373C19.729 18.4805 18.812 19.4392 17.7363 20.1924L14.8682 16.0947C16.1567 15.1905 17.0007 13.6946 17.001 12.001C17.001 10.9338 16.6643 9.94478 16.0947 9.13281C15.1903 7.84392 13.6941 7 12 7V2Z" fill="transparent" class="wd-icon-background"></path>
<path d="M12 1C15.7091 1.00008 18.987 2.83773 20.9795 5.65039C20.99 5.66384 21.0009 5.67729 21.0107 5.69141C21.0219 5.70738 21.0319 5.72421 21.043 5.74023C21.1138 5.84243 21.1825 5.94611 21.25 6.05078C21.28 6.09735 21.3106 6.14344 21.3398 6.19043C21.4064 6.29716 21.4703 6.40552 21.5332 6.51465C21.559 6.55953 21.5852 6.60419 21.6104 6.64941C21.6761 6.76733 21.7383 6.88728 21.7998 7.00781C21.8177 7.04284 21.837 7.07709 21.8545 7.1123C22.0786 7.56332 22.2712 8.0321 22.4326 8.51562C22.4416 8.54238 22.4512 8.56888 22.46 8.5957C22.5076 8.74211 22.5512 8.89003 22.5928 9.03906C22.5997 9.06378 22.6065 9.08851 22.6133 9.11328C22.6512 9.25287 22.6863 9.39342 22.7188 9.53516C22.7252 9.56311 22.733 9.59113 22.7393 9.61914C22.741 9.62686 22.7415 9.63485 22.7432 9.64258C22.7718 9.77387 22.7973 9.90606 22.8213 10.0391C22.8302 10.0883 22.8404 10.1372 22.8486 10.1865C22.8696 10.3127 22.8867 10.4398 22.9033 10.5674C22.911 10.6263 22.919 10.6851 22.9258 10.7441C22.938 10.8518 22.9479 10.9598 22.957 11.0684C22.9644 11.1556 22.9722 11.2427 22.9775 11.3301C22.9827 11.4167 22.9861 11.5036 22.9893 11.5908C22.9928 11.6865 22.9951 11.7822 22.9961 11.8779C22.9965 11.9186 23 11.9592 23 12C23 12.0466 22.9967 12.0932 22.9961 12.1396C22.9948 12.2409 22.9924 12.3421 22.9883 12.4434C22.9847 12.5332 22.9793 12.6226 22.9736 12.7119C22.9691 12.7813 22.9648 12.8506 22.959 12.9199C22.9483 13.0492 22.9351 13.1777 22.9199 13.3057C22.914 13.3549 22.9079 13.404 22.9014 13.4531C22.883 13.5924 22.8614 13.7306 22.8379 13.8682C22.8355 13.8822 22.8345 13.8971 22.832 13.9111C22.8291 13.9279 22.8243 13.9442 22.8213 13.9609C22.7952 14.1061 22.7671 14.2504 22.7354 14.3936C22.7289 14.4226 22.7216 14.4515 22.7148 14.4805C22.6787 14.6374 22.6395 14.793 22.5967 14.9473C22.5931 14.96 22.5895 14.9727 22.5859 14.9854C22.3941 15.6671 22.1383 16.3212 21.8252 16.9424C21.8137 16.9653 21.8017 16.9879 21.79 17.0107C21.7215 17.1444 21.651 17.2768 21.5771 17.4072C21.5605 17.4367 21.5433 17.4658 21.5264 17.4951C21.4567 17.6156 21.3856 17.735 21.3115 17.8525C21.2998 17.8713 21.2892 17.8915 21.2773 17.9102C21.2624 17.9337 21.2456 17.9561 21.2305 17.9795C21.1622 18.0846 21.0922 18.1884 21.0205 18.291C20.9852 18.3416 20.9492 18.3915 20.9131 18.4414C20.8531 18.5242 20.7926 18.6065 20.7305 18.6875C20.6776 18.7565 20.6238 18.8248 20.5693 18.8926C20.5106 18.9656 20.4512 19.0379 20.3906 19.1094C20.3388 19.1705 20.2865 19.2311 20.2334 19.291C20.1675 19.3654 20.1001 19.4382 20.0322 19.5107C19.9776 19.5691 19.923 19.6274 19.8672 19.6846C19.8017 19.7516 19.7351 19.8175 19.668 19.8828C19.6029 19.9461 19.5373 20.0086 19.4707 20.0703C19.4108 20.1258 19.3502 20.1803 19.2891 20.2344C19.2194 20.296 19.1493 20.3571 19.0781 20.417C19.0077 20.4763 18.9362 20.5343 18.8643 20.5918C18.7971 20.6455 18.7296 20.6988 18.6611 20.751C18.5886 20.8063 18.5153 20.8605 18.4414 20.9141C18.397 20.9461 18.3535 20.9803 18.3086 21.0117C18.2967 21.02 18.2837 21.0264 18.2715 21.0342C16.4921 22.2718 14.3317 22.9999 12 23C5.92501 22.9999 1 18.0751 1 12C1.00007 5.925 5.92504 1.00013 12 1ZM11 3.05664C6.50013 3.55417 3.00006 7.36757 3 12C3 16.9705 7.02951 20.9999 12 21C13.5619 21 15.0304 20.6013 16.3105 19.9014L14.5742 17.4199C13.794 17.7912 12.9215 18 12 18C8.68648 17.9999 6 15.3137 6 12C6 9.02702 8.16237 6.56014 11 6.08398V3.05664ZM17.4189 9.42383C17.599 9.80182 17.7397 10.2016 17.8379 10.6182C17.8431 10.6403 17.8485 10.6624 17.8535 10.6846C17.8712 10.7637 17.8868 10.8435 17.9014 10.9238C17.9073 10.956 17.9136 10.9881 17.9189 11.0205C17.9284 11.0782 17.9365 11.1361 17.9443 11.1943C17.9517 11.2488 17.9589 11.3035 17.9648 11.3584C17.9711 11.4177 17.9759 11.4773 17.9805 11.5371C17.9839 11.5816 17.9878 11.6261 17.9902 11.6709C17.9961 11.7799 18 11.8896 18 12C18 12.1157 17.9957 12.2306 17.9893 12.3447L17.9883 12.3799C17.9847 12.4368 17.9788 12.4933 17.9736 12.5498C17.9713 12.5756 17.9695 12.6013 17.9668 12.627C17.9484 12.8036 17.9212 12.9777 17.8877 13.1494C17.8851 13.1626 17.8845 13.1763 17.8818 13.1895C17.8445 13.3743 17.7991 13.5562 17.7451 13.7344C17.4517 14.7078 16.9165 15.5758 16.2109 16.2715L17.9473 18.752C18.0206 18.6873 18.0929 18.6206 18.1641 18.5537C18.1792 18.5395 18.194 18.525 18.209 18.5107C18.4038 18.3251 18.59 18.1309 18.7676 17.9287C18.8817 17.7985 18.992 17.665 19.0986 17.5283C19.2612 17.32 19.4147 17.1045 19.5586 16.8818C19.574 16.8581 19.5894 16.8344 19.6045 16.8105C19.751 16.5789 19.8863 16.3409 20.0107 16.0977C20.0196 16.0803 20.0293 16.0633 20.0381 16.0459C20.2324 15.66 20.3992 15.261 20.5361 14.8516C20.5387 14.8438 20.5414 14.8359 20.5439 14.8281C20.6284 14.5734 20.7003 14.3145 20.7617 14.0527C20.9082 13.4252 20.9896 12.773 20.9971 12.1025C20.9978 12.0394 20.9977 11.9762 20.9971 11.9131C20.9922 11.3968 20.9428 10.8914 20.8545 10.3994C20.8335 10.2836 20.8116 10.1678 20.7861 10.0527C20.6028 9.22569 20.3016 8.43112 19.8975 7.69043L17.4189 9.42383ZM12 8C9.79091 8.00012 8 9.791 8 12C8 14.209 9.79091 15.9999 12 16C12.8578 15.9999 13.6514 15.7283 14.3027 15.2686C14.714 14.9782 15.0673 14.6131 15.3438 14.1934C15.5179 13.9283 15.6617 13.6418 15.7695 13.3379C15.8154 13.2089 15.8551 13.0771 15.8877 12.9424C15.9443 12.7082 15.9798 12.466 15.9932 12.2178L16 12.001C16 11.9145 15.9957 11.8283 15.9902 11.7432C15.988 11.7082 15.9855 11.6734 15.9824 11.6387C15.966 11.4564 15.9376 11.2779 15.8975 11.1035C15.848 10.8877 15.782 10.6785 15.6992 10.4775C15.5862 10.2042 15.4433 9.94637 15.2754 9.70703C15.2727 9.70324 15.2702 9.69914 15.2676 9.69531C14.5434 8.67031 13.3505 8.00008 12 8ZM13 6.08398C14.2701 6.29716 15.4044 6.90915 16.2705 7.78711L18.751 6.05176C17.3091 4.41652 15.2841 3.30926 13 3.05664V6.08398Z" fill="oklch(0.3523 0 0 / 1)" class="wd-icon-fill"></path>
</svg>