<svg width="24" height="24" viewBox="0 0 24 24" xmlns="http://www.w3.org/2000/svg" class="wd-icon wd-icon-puzzle" role="presentation">
<path d="M20.4854 3.51529C21.6569 4.68686 21.6569 6.58636 20.4854 7.75793C19.9413 8.30203 19.24 8.58997 18.5277 8.62869L21.8996 12.0006L18.5277 15.3724C18.489 14.6603 18.2009 13.9588 17.6569 13.4148C16.4854 12.2435 14.5858 12.2435 13.4143 13.4148C12.2429 14.5863 12.243 16.4859 13.4143 17.6574C13.9584 18.2014 14.6598 18.4895 15.372 18.5282L12.0001 21.9001L8.6282 18.5282C8.58948 19.2405 8.30154 19.9417 7.75744 20.4858C6.58587 21.6574 4.68637 21.6574 3.5148 20.4858C2.34323 19.3143 2.34323 17.4148 3.5148 16.2432C4.0589 15.6991 4.76019 15.4112 5.47246 15.3724L2.10059 12.0006L5.47315 8.628C5.51171 9.34032 5.79924 10.0421 6.34323 10.5864C7.51469 11.7578 9.41427 11.7576 10.5859 10.5864C11.7574 9.41478 11.7574 7.51529 10.5859 6.34371C10.0419 5.79997 9.34088 5.51103 8.62889 5.47226L12.0001 2.10107L15.372 5.47295C15.4107 4.76068 15.6986 4.05939 16.2427 3.51529C17.4143 2.34371 19.3138 2.34371 20.4854 3.51529Z" fill="transparent" class="wd-icon-background"></path>
<path d="M11.293 1.39395C11.6835 1.00344 12.3165 1.00346 12.707 1.39395L14.9189 3.60586C15.0861 3.32152 15.2907 3.05248 15.5352 2.80801C17.0972 1.24594 19.6303 1.24599 21.1924 2.80801C22.7544 4.37011 22.7545 6.90315 21.1924 8.46524C20.9479 8.70968 20.6789 8.91424 20.3945 9.08145L22.6064 11.2934C22.7939 11.4809 22.8994 11.7352 22.8994 12.0004C22.8994 12.2656 22.794 12.5199 22.6064 12.7074L19.2344 16.0795C18.9554 16.3583 18.5383 16.447 18.1699 16.3061C17.8018 16.165 17.5509 15.8208 17.5293 15.4272C17.5033 14.9483 17.311 14.4824 16.9502 14.1215C16.1692 13.3407 14.9021 13.3407 14.1211 14.1215C13.3403 14.9024 13.3403 16.1695 14.1211 16.9506C14.482 17.3113 14.9471 17.5036 15.4258 17.5297C15.8197 17.5511 16.1645 17.802 16.3057 18.1703C16.4466 18.5387 16.3579 18.9558 16.0791 19.2348L12.707 22.6068C12.5195 22.7943 12.2652 22.8998 12 22.8998C11.7348 22.8998 11.4805 22.7943 11.293 22.6068L9.08105 20.3949C8.91385 20.6793 8.70929 20.9483 8.46484 21.1928C6.90276 22.7548 4.3697 22.7548 2.80762 21.1928C1.24562 19.6307 1.24559 17.0976 2.80762 15.5355C3.05209 15.2911 3.32113 15.0865 3.60547 14.9193L1.39355 12.7074C1.20607 12.5199 1.10061 12.2656 1.10059 12.0004C1.10061 11.7352 1.20607 11.4809 1.39355 11.2934L4.76562 7.92031C5.04468 7.64129 5.46252 7.55265 5.83105 7.69375C6.19941 7.83489 6.45027 8.17975 6.47168 8.57363C6.49766 9.05309 6.69022 9.51859 7.05078 9.8793C7.8316 10.6597 9.09781 10.66 9.87891 9.8793C10.6598 9.09837 10.6596 7.83225 9.87891 7.05117C9.51733 6.68974 9.05199 6.49711 8.57422 6.4711C8.18038 6.44954 7.83634 6.19785 7.69531 5.82949C7.55429 5.461 7.6429 5.04405 7.92188 4.76504L11.293 1.39395ZM10.4951 5.01895C10.7797 5.18637 11.0485 5.39173 11.293 5.63613L11.4346 5.78555C12.8077 7.30511 12.8076 9.62433 11.4346 11.1439L11.293 11.2934C9.77972 12.8061 7.35534 12.8538 5.78516 11.435L5.63574 11.2934C5.39133 11.0488 5.18662 10.7799 5.01953 10.4955L3.51465 12.0004L6.17969 14.6654C6.45855 14.9445 6.54727 15.3614 6.40625 15.7299C6.26515 16.0983 5.92031 16.3491 5.52637 16.3705C5.04748 16.3966 4.58255 16.5897 4.22168 16.9506C3.441 17.7316 3.44083 18.9978 4.22168 19.7787C5.00272 20.5597 6.26974 20.5597 7.05078 19.7787C7.41155 19.4179 7.60378 18.9528 7.62988 18.474L7.64844 18.3285C7.71592 17.9968 7.94823 17.7176 8.27051 17.5941C8.6389 17.4531 9.05594 17.5419 9.33496 17.8207L12 20.4857L13.5039 18.9809C13.2198 18.8137 12.9513 18.6088 12.707 18.3647C11.1454 16.8026 11.1452 14.2695 12.707 12.7074C14.2691 11.1457 16.8022 11.1458 18.3643 12.7074C18.6084 12.9517 18.8133 13.2202 18.9805 13.5043L20.4854 12.0004L17.8203 9.33535C17.5416 9.05635 17.4528 8.63927 17.5938 8.2709C17.7348 7.90248 18.0797 7.65169 18.4736 7.63028C18.9525 7.6042 19.4174 7.41193 19.7783 7.05117C20.5594 6.27014 20.5593 5.00312 19.7783 4.22207C18.9974 3.4412 17.7312 3.44135 16.9502 4.22207C16.5894 4.58294 16.3962 5.0479 16.3701 5.52676C16.3487 5.9207 16.0979 6.26557 15.7295 6.40664C15.3611 6.54764 14.9441 6.45894 14.665 6.18008L12 3.51504L10.4951 5.01895Z" fill="oklch(0.3523 0 0 / 1)" class="wd-icon-fill"></path>
</svg>