<svg width="24" height="24" viewBox="0 0 24 24" xmlns="http://www.w3.org/2000/svg" class="wd-icon wd-icon-user" role="presentation">
<g>
<path d="M11.9995 14C13.9717 14.0001 15.6638 14.3759 16.8745 15.1162C18.0098 15.8106 18.7615 16.8455 18.9507 18.3525C17.8176 18.5977 15.44 19 11.9995 19C8.55828 19 6.18034 18.5977 5.04736 18.3525C5.23654 16.8454 5.98899 15.8106 7.12451 15.1162C8.33534 14.376 10.0273 14 11.9995 14Z" fill="transparent" class="wd-icon-background"></path>
<path d="M11.9995 3.5C13.38 3.50026 14.4995 4.61945 14.4995 6C14.4995 7.38055 13.38 8.49974 11.9995 8.5C10.6188 8.5 9.49951 7.38071 9.49951 6C9.49951 4.61929 10.6188 3.5 11.9995 3.5Z" fill="transparent" class="wd-icon-background"></path>
</g>
<g>
<path d="M12.0009 12C14.1875 12 16.2845 12.4108 17.9189 13.4102C19.5951 14.4352 20.7325 16.0533 20.9589 18.2852C21.0571 19.2539 20.399 20.0811 19.5038 20.2812C18.2934 20.5517 15.7238 21 12.0009 21C8.27816 21 5.70856 20.5517 4.49799 20.2812C3.60276 20.0811 2.94473 19.254 3.04291 18.2852L3.09564 17.874C3.41327 15.8533 4.51133 14.3712 6.08295 13.4102C7.7174 12.4108 9.81435 12 12.0009 12ZM12.0009 14C10.0286 14 8.33676 14.3759 7.12592 15.1162C5.99039 15.8106 5.23794 16.8453 5.04877 18.3525C6.18164 18.5977 8.55941 19 12.0009 19C15.4416 19 17.8189 18.5977 18.9521 18.3525C18.7629 16.8455 18.0113 15.8106 16.8759 15.1162C15.6651 14.3758 13.9732 14 12.0009 14Z" fill="oklch(0.3523 0 0 / 1)" class="wd-icon-fill"></path>
<path d="M12.0009 1.5C14.4861 1.50011 16.5009 3.51479 16.5009 6C16.5009 8.48521 14.4861 10.4999 12.0009 10.5C9.51564 10.5 7.50092 8.48528 7.50092 6C7.50092 3.51472 9.51564 1.5 12.0009 1.5ZM12.0009 3.5C10.6202 3.5 9.50092 4.61929 9.50092 6C9.50092 7.38071 10.6202 8.5 12.0009 8.5C13.3815 8.49989 14.5009 7.38065 14.5009 6C14.5009 4.61936 13.3815 3.50011 12.0009 3.5Z" fill="oklch(0.3523 0 0 / 1)" class="wd-icon-fill"></path>
</g>
</svg>