<svg width="24" height="24" viewBox="0 0 24 24" xmlns="http://www.w3.org/2000/svg" class="wd-icon wd-icon-arrow-down-left-circle" role="presentation">
<g>
<path d="M14.1211 8.46484C14.5115 8.0744 15.1456 8.07456 15.5361 8.46484C15.9262 8.85535 15.9264 9.4885 15.5361 9.87891L11.5869 13.8281H13.415C13.9671 13.8281 14.4147 14.2761 14.415 14.8281C14.4148 15.3802 13.9672 15.8281 13.415 15.8281H9.17285C8.62069 15.8281 8.17306 15.3802 8.17285 14.8281V10.585C8.17333 10.0331 8.62086 9.58496 9.17285 9.58496C9.72459 9.58525 10.1714 10.0333 10.1719 10.585V12.4141L14.1211 8.46484Z" fill="oklch(0.3523 0 0 / 1)" class="wd-icon-fill"></path>
<path d="M12 2C17.5228 2 22 6.47715 22 12C22 17.5228 17.5228 22 12 22C6.47715 22 2 17.5228 2 12C2 6.47715 6.47715 2 12 2ZM12 4C7.58172 4 4 7.58172 4 12C4 16.4183 7.58172 20 12 20C16.4183 20 20 16.4183 20 12C20 7.58172 16.4183 4 12 4Z" fill="oklch(0.3523 0 0 / 1)" class="wd-icon-fill"></path>
</g>
</svg>