<svg width="24" height="24" viewBox="0 0 24 24" xmlns="http://www.w3.org/2000/svg" class="wd-icon wd-icon-x-circle" role="presentation">
<g>
<path d="M14.9355 7.64648C15.1308 7.45136 15.4473 7.45136 15.6426 7.64648L16.3496 8.35352C16.5447 8.54876 16.5447 8.86532 16.3496 9.06055L13.4189 11.9912L16.3594 14.9316C16.5545 15.1268 16.5544 15.4434 16.3594 15.6387L15.6523 16.3457C15.4571 16.541 15.1406 16.541 14.9453 16.3457L12.0049 13.4053L9.06445 16.3457C8.86924 16.5409 8.5527 16.5408 8.35742 16.3457L7.65039 15.6387C7.45523 15.4434 7.45516 15.1269 7.65039 14.9316L10.5908 11.9912L7.66016 9.06055C7.46523 8.86526 7.46501 8.54867 7.66016 8.35352L8.36719 7.64648C8.56236 7.45162 8.87902 7.45165 9.07422 7.64648L12.0049 10.5771L14.9355 7.64648Z" fill="oklch(0.3523 0 0 / 1)" class="wd-icon-fill"></path>
<path d="M12 1C18.0751 1 23 5.92487 23 12C23 18.0751 18.0751 23 12 23C5.92487 23 1 18.0751 1 12C1 5.92487 5.92487 1 12 1ZM12 3C7.02944 3 3 7.02944 3 12C3 16.9706 7.02944 21 12 21C16.9706 21 21 16.9706 21 12C21 7.02944 16.9706 3 12 3Z" fill="oklch(0.3523 0 0 / 1)" class="wd-icon-fill"></path>
</g>
</svg>