<svg width="24" height="24" viewBox="0 0 24 24" xmlns="http://www.w3.org/2000/svg" class="wd-icon wd-icon-hammer" role="presentation">
<g>
<path d="M6.99984 16.0002C7.55213 16.0002 7.99984 16.4479 7.99984 17.0002C7.99984 17.5525 7.55213 18.0002 6.99984 18.0002H6.74984V20.0002C6.74984 20.4144 6.41406 20.7502 5.99984 20.7502C5.58563 20.7502 5.24984 20.4144 5.24984 20.0002V18.0002H4.99984C4.44756 18.0002 3.99984 17.5525 3.99984 17.0002C3.99984 16.4479 4.44756 16.0002 4.99984 16.0002H6.99984Z" fill="oklch(0.3523 0 0 / 1)" class="wd-icon-fill"></path>
<path d="M13.0301 2.65643C14.4963 1.80992 16.2089 1.78838 17.8329 2.32147C18.5192 2.54686 19.0247 3.03939 19.3377 3.58124L19.3602 3.6203C19.6012 4.03767 19.5507 4.49878 19.3582 4.83222C19.1752 5.14895 18.8585 5.37456 18.4911 5.44257C18.2874 5.48021 18.0846 5.54415 17.8885 5.63593L17.6952 5.73651C16.9722 6.1541 16.5362 6.87809 16.4579 7.6535C16.4364 7.86582 16.3831 8.0912 16.2957 8.31268L20.4461 15.5002C20.7223 15.9785 20.5582 16.5902 20.0799 16.8664C19.6016 17.1425 18.9899 16.9785 18.7137 16.5002L14.7977 9.71796L13.0653 10.7189L17.5584 18.5002C17.8345 18.9785 17.6705 19.5903 17.1922 19.8664C16.7139 20.1425 16.1022 19.9785 15.826 19.5002L11.1024 11.3185C10.953 11.3019 10.8164 11.2755 10.6991 11.2473C10.4576 11.1892 10.1987 11.22 9.96859 11.3527C9.73875 11.4855 9.58293 11.6946 9.51254 11.9328C9.38637 12.3596 9.11416 13.0001 8.47152 13.3713L7.86996 13.7189C6.91345 14.271 5.69077 13.9429 5.13852 12.9865L3.63852 10.3889C3.08626 9.43232 3.41349 8.20876 4.36996 7.65643L4.97152 7.30975C5.6144 6.93869 6.30544 7.02299 6.73813 7.12714C6.97941 7.18523 7.23852 7.15537 7.46859 7.02265C7.69868 6.88974 7.85416 6.6805 7.92465 6.44257C8.05079 6.01601 8.32288 5.37441 8.96566 5.00311L13.0301 2.65643ZM16.6043 4.06073C15.6239 3.8576 14.7445 3.97642 14.0301 4.38886L9.96566 6.73554C9.98138 6.72647 9.97044 6.72604 9.94223 6.77069C9.91207 6.81857 9.87707 6.8959 9.84359 7.00897C9.63399 7.71776 9.16111 8.35411 8.46859 8.75409C7.77599 9.15381 6.98865 9.24528 6.27035 9.07245C6.15542 9.04479 6.07007 9.03606 6.01352 9.03827C5.96102 9.0404 5.95584 9.05026 5.97152 9.0412L5.36996 9.38886L6.86996 11.9865L7.47152 11.6398C7.45609 11.6488 7.46705 11.6488 7.49496 11.6047C7.52515 11.5568 7.56106 11.4788 7.59457 11.3654C7.80401 10.657 8.27598 10.0203 8.96859 9.6203C9.66132 9.22049 10.4492 9.13008 11.1678 9.30292C11.2825 9.33046 11.3672 9.33835 11.4237 9.33612C11.4764 9.33401 11.4814 9.32413 11.4657 9.33319L14.409 7.63397C14.3998 7.63929 14.407 7.63947 14.4227 7.61151C14.4402 7.58008 14.4602 7.52546 14.4676 7.45233C14.6045 6.09765 15.3562 4.82104 16.6043 4.06073Z" fill="oklch(0.3523 0 0 / 1)" class="wd-icon-fill"></path>
</g>
</svg>