<svg width="24" height="24" viewBox="0 0 24 24" xmlns="http://www.w3.org/2000/svg" class="wd-icon wd-icon-text-wrap" role="presentation">
<g>
<path d="M16 5C19.866 5 23 8.13401 23 12C23 15.866 19.866 19 16 19H13.1094L14.3203 20.4805C14.495 20.6942 14.4638 21.0088 14.25 21.1836L13.8633 21.5L13.4766 21.8174C13.2629 21.992 12.9473 21.9606 12.7725 21.7471L10.2256 18.6338C10.1878 18.5876 10.1543 18.5389 10.126 18.4883C9.92871 18.1352 9.96247 17.6893 10.2256 17.3672L12.7725 14.2549C12.9473 14.0412 13.2629 14.0097 13.4766 14.1846L14.25 14.8174C14.4635 14.9923 14.4951 15.3069 14.3203 15.5205L13.1104 17H16C18.7614 17 21 14.7614 21 12C21 9.23858 18.7614 7 16 7H1V5H16Z" fill="oklch(0.3523 0 0 / 1)" class="wd-icon-fill"></path>
<path d="M7.5 17C7.77614 17 8 17.2239 8 17.5V18.5C8 18.7761 7.77614 19 7.5 19H1.5C1.22386 19 1 18.7761 1 18.5V17.5C1 17.2239 1.22386 17 1.5 17H7.5Z" fill="oklch(0.3523 0 0 / 1)" class="wd-icon-fill"></path>
<path d="M10.5 11C10.7761 11 11 11.2239 11 11.5V12.5C11 12.7761 10.7761 13 10.5 13H1.5C1.22386 13 1 12.7761 1 12.5V11.5C1 11.2239 1.22386 11 1.5 11H10.5Z" fill="oklch(0.3523 0 0 / 1)" class="wd-icon-fill"></path>
</g>
</svg>