<svg width="24" height="24" viewBox="0 0 24 24" xmlns="http://www.w3.org/2000/svg" class="wd-icon wd-icon-box-text-search" role="presentation">
<g>
<path d="M17.7998 3C18.3434 3 18.8116 2.99893 19.1953 3.03028C19.5906 3.06259 19.984 3.1344 20.3623 3.32715C20.9265 3.61473 21.3853 4.07348 21.6729 4.6377C21.8656 5.016 21.9374 5.40943 21.9697 5.80469C22.0011 6.18836 22 6.65665 22 7.2002V11C22 11.5523 21.5523 12 21 12C20.4477 12 20 11.5523 20 11V7.2002C20 6.62365 19.9987 6.25112 19.9756 5.96778C19.9534 5.69619 19.9158 5.59534 19.8906 5.5459C19.7948 5.35793 19.6421 5.20522 19.4541 5.10938C19.4047 5.08419 19.3038 5.04662 19.0322 5.02442C18.7489 5.00127 18.3764 5 17.7998 5H6.2002C5.62365 5 5.25112 5.00127 4.96778 5.02442C4.69619 5.04662 4.59534 5.08419 4.5459 5.10938C4.35793 5.20522 4.20522 5.35793 4.10938 5.5459C4.08419 5.59534 4.04662 5.69619 4.02442 5.96778C4.00127 6.25112 4 6.62365 4 7.2002V16.7998C4 17.3764 4.00127 17.7489 4.02442 18.0322C4.04662 18.3038 4.08419 18.4047 4.10938 18.4541C4.20522 18.6421 4.35793 18.7948 4.5459 18.8906C4.59534 18.9158 4.69619 18.9534 4.96778 18.9756C5.25112 18.9987 5.62365 19 6.2002 19H11C11.5523 19 12 19.4477 12 20C12 20.5523 11.5523 21 11 21H6.2002C5.65665 21 5.18836 21.0011 4.80469 20.9697C4.40943 20.9374 4.016 20.8656 3.6377 20.6729C3.07348 20.3853 2.61473 19.9265 2.32715 19.3623C2.1344 18.984 2.06259 18.5906 2.03028 18.1953C1.99893 17.8116 2 17.3434 2 16.7998V7.2002C2 6.65665 1.99893 6.18836 2.03028 5.80469C2.06259 5.40943 2.1344 5.016 2.32715 4.6377C2.61473 4.07348 3.07348 3.61473 3.6377 3.32715C4.016 3.1344 4.40943 3.06259 4.80469 3.03028C5.18836 2.99893 5.65665 3 6.2002 3H17.7998Z" fill="oklch(0.3523 0 0 / 1)" class="wd-icon-fill"></path>
<path d="M11.25 14.25C11.6642 14.25 12 14.5858 12 15C12 15.4142 11.6642 15.75 11.25 15.75H7.75C7.33579 15.75 7 15.4142 7 15C7 14.5858 7.33579 14.25 7.75 14.25H11.25Z" fill="oklch(0.3523 0 0 / 1)" class="wd-icon-fill"></path>
<path d="M13.25 11.25C13.6642 11.25 14 11.5858 14 12C14 12.4142 13.6642 12.75 13.25 12.75H7.75C7.33579 12.75 7 12.4142 7 12C7 11.5858 7.33579 11.25 7.75 11.25H13.25Z" fill="oklch(0.3523 0 0 / 1)" class="wd-icon-fill"></path>
<path d="M16.25 8.25C16.6642 8.25 17 8.58579 17 9C17 9.41422 16.6642 9.75 16.25 9.75H7.75C7.33579 9.75 7 9.41422 7 9C7 8.58579 7.33579 8.25 7.75 8.25H16.25Z" fill="oklch(0.3523 0 0 / 1)" class="wd-icon-fill"></path>
</g>
<path d="M17 13C19.2091 13 21 14.7909 21 17C21 17.8334 20.7437 18.6064 20.3076 19.2471L21.7803 20.7197C22.0731 21.0126 22.0731 21.4874 21.7803 21.7803C21.4874 22.073 21.0126 22.0731 20.7197 21.7803L19.2471 20.3076C18.6064 20.7437 17.8334 21 17 21C14.7909 21 13 19.2091 13 17C13 14.7909 14.7909 13 17 13ZM17 14.5C15.6193 14.5 14.5 15.6193 14.5 17C14.5 18.3807 15.6193 19.5 17 19.5C18.3807 19.5 19.5 18.3807 19.5 17C19.5 15.6193 18.3807 14.5 17 14.5Z" fill="oklch(0.3523 0 0 / 1)" class="wd-icon-accent"></path>
</svg>