<svg width="24" height="24" viewBox="0 0 24 24" xmlns="http://www.w3.org/2000/svg" class="wd-icon wd-icon-document-gear" role="presentation">
<path d="M11.0117 1.00007C11.6979 1.00007 12.2043 0.993501 12.6914 1.11042C13.0994 1.2084 13.4899 1.37068 13.8477 1.58991C14.2746 1.85162 14.6283 2.21431 15.1133 2.69929L19 6.586C19.6402 7.22624 20 8.09467 20 9.00007C20 9.00686 19.9992 9.01382 19.999 9.02057V12.0001C19.999 12.5524 19.5513 13.0001 18.999 13.0001C18.4468 13 17.999 12.5523 17.999 12.0001V10.0001H14C12.8955 10 12 9.10461 12 8.00007V3.02155C11.8142 3.00453 11.5389 3.00007 11.0117 3.00007H9.79983C8.94348 3.00007 8.36118 3.00042 7.91116 3.03718C7.4728 3.073 7.24821 3.13816 7.09182 3.21784C6.71561 3.40955 6.40954 3.71567 6.2178 4.09186C6.13812 4.24824 6.07296 4.47291 6.03713 4.9112C6.00038 5.3612 6.00002 5.94359 6.00002 6.79987V18.5001C6.00002 18.9956 6.0027 19.1473 6.0176 19.2608C6.13575 20.1582 6.84186 20.8643 7.73928 20.9825C7.85283 20.9974 8.00424 21.0001 8.50002 21.0001H11.5C12.0522 21.0001 12.4999 21.4479 12.5 22.0001C12.5 22.5524 12.0523 23.0001 11.5 23.0001H8.50002C8.06743 23.0001 7.75386 23.0023 7.47756 22.9659C5.68296 22.7294 4.27063 21.3172 4.0342 19.5225C3.99786 19.2463 4.00002 18.9326 4.00002 18.5001V6.79987C4.00002 5.97647 3.99901 5.29845 4.04397 4.74811C4.08991 4.18613 4.18832 3.66891 4.43557 3.18366C4.81904 2.43121 5.43116 1.81906 6.18362 1.43561C6.6689 1.18836 7.18605 1.08994 7.74807 1.04401C8.29843 0.999046 8.97637 1.00007 9.79983 1.00007H11.0117ZM13.5 8.00007C13.5 8.27618 13.7239 8.50003 14 8.50007H17.9073C17.837 8.31441 17.729 8.14314 17.586 8.00007L13.6992 4.11335C13.6266 4.04066 13.5602 3.97488 13.5 3.91511V8.00007Z" fill="oklch(0.3523 0 0 / 1)" class="wd-icon-fill"></path>
<path d="M16.4219 14.5018C16.8277 14.2679 17.3425 14.347 17.6592 14.6922L18.498 15.6073L19.3379 14.6922C19.6547 14.3473 20.1695 14.2677 20.5752 14.5018L20.9219 14.703C21.3275 14.9373 21.5163 15.4222 21.376 15.869L21.0029 17.0526L22.2158 17.3231C22.6727 17.425 22.9977 17.8306 22.998 18.2987V18.7C22.9979 19.1683 22.6727 19.5736 22.2158 19.6756L21.0029 19.9452L21.376 21.1297C21.5166 21.5765 21.3273 22.0612 20.9219 22.2958L20.5752 22.4969C20.1693 22.7313 19.6547 22.6519 19.3379 22.3065L18.498 21.3915L17.6592 22.3065C17.3424 22.6518 16.8278 22.7311 16.4219 22.4969L16.0752 22.2967C15.6693 22.0624 15.4804 21.5768 15.6211 21.1297L15.9932 19.9452L14.7812 19.6756C14.324 19.5738 13.9972 19.1685 13.9971 18.7V18.2987C13.9975 17.8305 14.3242 17.4249 14.7812 17.3231L15.9932 17.0526L15.6211 15.869C15.4806 15.422 15.6694 14.9363 16.0752 14.702L16.4219 14.5018ZM18.501 16.9999C17.6727 16.9999 17.0012 17.6716 17.001 18.4999C17.0011 19.3282 17.6726 19.9999 18.501 19.9999C19.3289 19.9993 20.0008 19.3278 20.001 18.4999C20.0007 17.6719 19.3288 17.0004 18.501 16.9999Z" fill="oklch(0.3523 0 0 / 1)" class="wd-icon-accent"></path>
</svg>