<svg width="24" height="24" viewBox="0 0 24 24" xmlns="http://www.w3.org/2000/svg" class="wd-icon wd-icon-placeholder" role="presentation">
<path d="M17 3C19.2091 3 21 4.79086 21 7V17C21 19.2091 19.2091 21 17 21H7C4.79086 21 3 19.2091 3 17V7C3 4.79086 4.79086 3 7 3H17ZM7 5C5.89543 5 5 5.89543 5 7V17C5 18.1046 5.89543 19 7 19H17C18.1046 19 19 18.1046 19 17V7C19 5.89543 18.1046 5 17 5H7Z" fill="oklch(0.3523 0 0 / 1)" class="wd-icon-fill"></path>
<path d="M17.5156 5.06934C18.205 5.25297 18.7457 5.79423 18.9297 6.4834L13.4141 12L18.9297 17.5156C18.7459 18.2052 18.2052 18.7459 17.5156 18.9297L12 13.4141L6.4834 18.9297C5.79423 18.7457 5.25297 18.205 5.06934 17.5156L10.5859 12L5.06934 6.4834C5.25322 5.79441 5.79441 5.25322 6.4834 5.06934L12 10.5859L17.5156 5.06934Z" fill="oklch(0.3523 0 0 / 1)" class="wd-icon-accent"></path>
</svg>