<svg width="24" height="24" viewBox="0 0 24 24" xmlns="http://www.w3.org/2000/svg" class="wd-icon wd-icon-insert-row-after" role="presentation">
<g>
<path d="M19.501 17.0049C19.5994 17.0094 19.6299 17.0166 19.6299 17.0166C19.8022 17.0629 19.9371 17.1978 19.9834 17.3701C19.9834 17.3701 19.9906 17.4006 19.9951 17.499C20.0002 17.611 20 17.7588 20 18C20 18.2412 20.0002 18.389 19.9951 18.501C19.9906 18.5994 19.9834 18.6299 19.9834 18.6299C19.9371 18.8022 19.8022 18.9371 19.6299 18.9834C19.6299 18.9834 19.5994 18.9906 19.501 18.9951C19.389 19.0002 19.2412 19 19 19H13C12.7588 19 12.611 19.0002 12.499 18.9951C12.4006 18.9906 12.3701 18.9834 12.3701 18.9834C12.1978 18.9371 12.0629 18.8022 12.0166 18.6299C12.0166 18.6299 12.0094 18.5994 12.0049 18.501C11.9998 18.389 12 18.2412 12 18C12 17.7588 11.9998 17.611 12.0049 17.499C12.0094 17.4006 12.0166 17.3701 12.0166 17.3701C12.0629 17.1978 12.1978 17.0629 12.3701 17.0166C12.3701 17.0166 12.4006 17.0094 12.499 17.0049C12.611 16.9998 12.7588 17 13 17H19C19.2412 17 19.389 16.9998 19.501 17.0049Z" fill="transparent" class="wd-icon-background"></path>
<path d="M13 8.7998C13 9.37636 12.9987 9.74889 12.9756 10.0322C12.9534 10.3038 12.9158 10.4047 12.8906 10.4541C12.7948 10.6421 12.6421 10.7948 12.4541 10.8906C12.4047 10.9158 12.3038 10.9534 12.0322 10.9756C11.7489 10.9987 11.3764 11 10.7998 11H7.2002C6.62364 11 6.25111 10.9987 5.96777 10.9756C5.69619 10.9534 5.59534 10.9158 5.5459 10.8906C5.35793 10.7948 5.20522 10.6421 5.10938 10.4541C5.08419 10.4047 5.04661 10.3038 5.02441 10.0322C5.00126 9.74889 5 9.37636 5 8.7998V8.75H13V8.7998Z" fill="transparent" class="wd-icon-background"></path>
<path d="M10.7998 5C11.3764 5 11.7489 5.00126 12.0322 5.02441C12.3038 5.04661 12.4047 5.08419 12.4541 5.10938C12.6421 5.20521 12.7948 5.35793 12.8906 5.5459C12.9158 5.59534 12.9534 5.69619 12.9756 5.96777C12.9987 6.25111 13 6.62364 13 7.2002V7.25H5V7.2002C5 6.62364 5.00126 6.25111 5.02441 5.96777C5.04661 5.69619 5.08419 5.59534 5.10938 5.5459C5.20521 5.35793 5.35793 5.20521 5.5459 5.10938C5.59534 5.08419 5.69619 5.04661 5.96777 5.02441C6.25111 5.00126 6.62364 5 7.2002 5H10.7998Z" fill="transparent" class="wd-icon-background"></path>
</g>
<g>
<path d="M19 15C19.4006 15 19.7975 14.9912 20.1475 15.085C21.0099 15.3162 21.6838 15.9901 21.915 16.8525C22.0088 17.2025 22 17.5994 22 18C22 18.4006 22.0088 18.7975 21.915 19.1475C21.6838 20.0099 21.0099 20.6838 20.1475 20.915C19.7975 21.0088 19.4006 21 19 21H13C12.5994 21 12.2025 21.0088 11.8525 20.915C10.9901 20.6838 10.3162 20.0099 10.085 19.1475C9.99121 18.7975 10 18.4006 10 18C10 17.5994 9.9912 17.2025 10.085 16.8525C10.3162 15.9901 10.9901 15.3162 11.8525 15.085C12.2025 14.9912 12.5994 15 13 15H19ZM12.499 17.0049C12.4006 17.0094 12.3701 17.0166 12.3701 17.0166C12.1979 17.0629 12.0629 17.1979 12.0166 17.3701C12.0166 17.3701 12.0094 17.4006 12.0049 17.499C11.9998 17.611 12 17.7588 12 18C12 18.2412 11.9998 18.389 12.0049 18.501C12.0093 18.598 12.0166 18.6299 12.0166 18.6299C12.0629 18.8022 12.1979 18.9371 12.3701 18.9834C12.3701 18.9834 12.4006 18.9906 12.499 18.9951C12.611 19.0002 12.7588 19 13 19H19C19.2412 19 19.389 19.0002 19.501 18.9951C19.5991 18.9906 19.6299 18.9834 19.6299 18.9834C19.8022 18.9371 19.9371 18.8022 19.9834 18.6299C19.9834 18.6299 19.9907 18.5982 19.9951 18.501C20.0002 18.389 20 18.2412 20 18C20 17.7588 20.0002 17.611 19.9951 17.499C19.9906 17.4006 19.9834 17.3701 19.9834 17.3701C19.9371 17.1979 19.8021 17.0629 19.6299 17.0166C19.6299 17.0166 19.5984 17.0093 19.501 17.0049C19.389 16.9998 19.2412 17 19 17H13C12.7588 17 12.611 16.9998 12.499 17.0049Z" fill="oklch(0.3523 0 0 / 1)" class="wd-icon-fill"></path>
<path d="M10.7998 3C11.3433 3 11.8117 2.99893 12.1953 3.03028C12.5906 3.06259 12.984 3.13442 13.3623 3.32715C13.9265 3.61472 14.3853 4.0735 14.6729 4.6377C14.8656 5.01598 14.9374 5.40945 14.9697 5.80469C15.0011 6.18835 15 6.65667 15 7.2002V8.79981C15 9.34333 15.0011 9.81166 14.9697 10.1953C14.9374 10.5906 14.8656 10.984 14.6729 11.3623C14.3853 11.9265 13.9265 12.3853 13.3623 12.6729C12.984 12.8656 12.5906 12.9374 12.1953 12.9697C11.8116 13.0011 11.3434 13 10.7998 13H7.2002C6.65666 13 6.18836 13.0011 5.80469 12.9697C5.40944 12.9374 5.01599 12.8656 4.6377 12.6729C4.0735 12.3853 3.61472 11.9265 3.32715 11.3623C3.13442 10.984 3.06259 10.5906 3.03028 10.1953C2.99894 9.81166 3 9.34333 3 8.79981V7.2002C3 6.65667 2.99893 6.18835 3.03028 5.80469C3.06259 5.40945 3.13441 5.01598 3.32715 4.6377C3.61473 4.07349 4.07349 3.61472 4.6377 3.32715C5.01599 3.13441 5.40944 3.06259 5.80469 3.03028C6.18836 2.99893 6.65666 3 7.2002 3H10.7998ZM5 8.79981C5 9.37632 5.00127 9.7489 5.02442 10.0322C5.04661 10.3037 5.08419 10.4046 5.10938 10.4541C5.20521 10.6421 5.35795 10.7948 5.5459 10.8906C5.59534 10.9158 5.69621 10.9534 5.96778 10.9756C6.25111 10.9987 6.62366 11 7.2002 11H10.7998C11.3763 11 11.7489 10.9987 12.0322 10.9756C12.3038 10.9534 12.4047 10.9158 12.4541 10.8906C12.6421 10.7948 12.7948 10.6421 12.8906 10.4541C12.9158 10.4047 12.9534 10.3038 12.9756 10.0322C12.9987 9.7489 13 9.37633 13 8.79981V8.75H5V8.79981ZM7.2002 5C6.62366 5 6.25111 5.00127 5.96778 5.02442C5.69621 5.04662 5.59534 5.08419 5.5459 5.10938C5.35794 5.20521 5.20522 5.35795 5.10938 5.5459C5.08419 5.59534 5.04662 5.69623 5.02442 5.96778C5.00127 6.25111 5 6.62368 5 7.2002V7.25H13V7.2002C13 6.62368 12.9987 6.25111 12.9756 5.96778C12.9534 5.69624 12.9158 5.59534 12.8906 5.5459C12.7948 5.35796 12.6421 5.20521 12.4541 5.10938C12.4047 5.08419 12.3037 5.04661 12.0322 5.02442C11.7489 5.00127 11.3763 5 10.7998 5H7.2002Z" fill="oklch(0.3523 0 0 / 1)" class="wd-icon-fill"></path>
</g>
<path d="M5 14.75C5.41421 14.75 5.75 15.0858 5.75 15.5V17.25H7.5C7.91421 17.25 8.25 17.5858 8.25 18C8.25 18.4142 7.91421 18.75 7.5 18.75H5.75V20.5C5.75 20.9142 5.41421 21.25 5 21.25C4.58579 21.25 4.25 20.9142 4.25 20.5V18.75H2.5C2.08579 18.75 1.75 18.4142 1.75 18C1.75 17.5858 2.08579 17.25 2.5 17.25H4.25V15.5C4.25 15.0858 4.58579 14.75 5 14.75Z" fill="oklch(0.3523 0 0 / 1)" class="wd-icon-accent"></path>
</svg>