<svg width="24" height="24" viewBox="0 0 24 24" xmlns="http://www.w3.org/2000/svg" class="wd-icon wd-icon-print" role="presentation">
<g>
<path d="M12.25 17C12.6642 17 13 17.3358 13 17.75C13 18.1642 12.6642 18.5 12.25 18.5H10.75C10.3358 18.5 10 18.1642 10 17.75C10 17.3358 10.3358 17 10.75 17H12.25Z" fill="oklch(0.3523 0 0 / 1)" class="wd-icon-fill"></path>
<path d="M13.25 14C13.6642 14 14 14.3358 14 14.75C14 15.1642 13.6642 15.5 13.25 15.5H10.75C10.3358 15.5 10 15.1642 10 14.75C10 14.3358 10.3358 14 10.75 14H13.25Z" fill="oklch(0.3523 0 0 / 1)" class="wd-icon-fill"></path>
<path d="M14.9981 3C16.1026 3 16.9981 3.89543 16.9981 5V7C17.457 7.00024 17.8576 7.0029 18.1934 7.03027C18.5885 7.06252 18.9819 7.13434 19.3604 7.32715C19.9246 7.61472 20.3833 8.07347 20.6709 8.6377C20.8637 9.01611 20.9355 9.40952 20.9678 9.80469C20.9991 10.1884 20.9981 10.6567 20.9981 11.2002V14.7998C20.9981 15.3433 20.9991 15.8116 20.9678 16.1953C20.9355 16.5905 20.8637 16.9839 20.6709 17.3623C20.3833 17.9265 19.9246 18.3853 19.3604 18.6729C18.9819 18.8657 18.5885 18.9375 18.1934 18.9697C17.8576 18.9971 17.4569 18.9978 16.9981 18.998V19.4004C16.9981 19.6641 16.9983 19.9216 16.9805 20.1387C16.9664 20.3103 16.9388 20.5052 16.8672 20.7061L16.7793 20.9082C16.6116 21.2371 16.3569 21.5121 16.0439 21.7041L15.9063 21.7812C15.6353 21.9193 15.3655 21.9636 15.1367 21.9824C14.9197 22.0003 14.6621 22 14.3984 22H9.59766C9.334 22 9.07645 22.0003 8.85938 21.9824C8.6878 21.9683 8.49284 21.9408 8.292 21.8691L8.08985 21.7812C7.76093 21.6135 7.48598 21.3588 7.29395 21.0459L7.2168 20.9082C7.07872 20.6372 7.03446 20.3674 7.01563 20.1387C6.99778 19.9216 6.99805 19.6641 6.99805 19.4004V18.998C6.53915 18.9978 6.13848 18.9971 5.80274 18.9697C5.40757 18.9375 5.01416 18.8657 4.63575 18.6729C4.07152 18.3853 3.61277 17.9265 3.3252 17.3623C3.13239 16.9839 3.06057 16.5905 3.02832 16.1953C2.99705 15.8116 2.99805 15.3433 2.99805 14.7998V11.2002C2.99805 10.6567 2.99705 10.1884 3.02832 9.80469C3.06057 9.40952 3.13239 9.01611 3.3252 8.6377C3.61277 8.07347 4.07152 7.61472 4.63575 7.32715C5.01416 7.13434 5.40757 7.06252 5.80274 7.03027C6.13848 7.0029 6.53906 7.00024 6.99805 7V5C6.99805 3.89543 7.89348 3 8.99805 3H14.9981ZM9.84961 13C9.55745 13 9.38298 13.0002 9.25391 13.0107C9.13386 13.0206 9.12035 13.0357 9.13672 13.0273C9.08968 13.0513 9.05132 13.0897 9.02735 13.1367C9.03569 13.1203 9.02058 13.1338 9.01075 13.2539C9.0002 13.383 9 13.5574 9 13.8496V17.75H8.99805V19.4004C8.99805 19.6961 8.99924 19.8583 9.00879 19.9746C9.00915 19.979 9.00941 19.9834 9.00977 19.9873C9.01399 19.9877 9.0187 19.9889 9.02344 19.9893C9.13973 19.9988 9.30191 20 9.59766 20H14.3984C14.6942 20 14.8564 19.9988 14.9727 19.9893C14.977 19.9889 14.9814 19.9877 14.9854 19.9873C14.9857 19.9834 14.9869 19.979 14.9873 19.9746C14.9969 19.8583 14.9981 19.6961 14.9981 19.4004V17H15V13.8496C15 13.5574 14.9998 13.383 14.9893 13.2539C14.9794 13.1338 14.9643 13.1203 14.9727 13.1367C14.9487 13.0897 14.9103 13.0513 14.8633 13.0273C14.8797 13.0357 14.8662 13.0206 14.7461 13.0107C14.617 13.0002 14.4426 13 14.1504 13H9.84961ZM7.19825 9C6.62172 9 6.24933 9.00034 5.96582 9.02344C5.69437 9.04557 5.59331 9.08329 5.54395 9.1084C5.35582 9.20427 5.20232 9.35777 5.10645 9.5459C5.08134 9.59526 5.04362 9.69632 5.02149 9.96777C4.99839 10.2513 4.99805 10.6237 4.99805 11.2002V14.7998C4.99805 15.3763 4.99839 15.7487 5.02149 16.0322C5.04362 16.3037 5.08134 16.4047 5.10645 16.4541C5.20232 16.6422 5.35582 16.7957 5.54395 16.8916C5.59331 16.9167 5.69437 16.9544 5.96582 16.9766C6.24933 16.9997 6.62172 17 7.19825 17H7.5V13.8496C7.5 13.5821 7.49992 13.3361 7.51661 13.1318C7.53403 12.9188 7.57315 12.6853 7.69043 12.4551C7.85818 12.126 8.12598 11.8582 8.45508 11.6904C8.68527 11.5731 8.9188 11.534 9.13184 11.5166C9.33612 11.4999 9.58212 11.5 9.84961 11.5H14.1504C14.4179 11.5 14.6639 11.4999 14.8682 11.5166C15.0812 11.534 15.3147 11.5731 15.5449 11.6904C15.874 11.8582 16.1418 12.126 16.3096 12.4551C16.4269 12.6853 16.466 12.9188 16.4834 13.1318C16.5001 13.3361 16.5 13.5821 16.5 13.8496V17H16.7979C17.3744 17 17.7468 16.9997 18.0303 16.9766C18.3017 16.9544 18.4028 16.9167 18.4522 16.8916C18.6403 16.7957 18.7938 16.6422 18.8897 16.4541C18.9148 16.4047 18.9525 16.3037 18.9746 16.0322C18.9977 15.7487 18.9981 15.3763 18.9981 14.7998V11.2002C18.9981 10.6237 18.9977 10.2513 18.9746 9.96777C18.9525 9.69632 18.9148 9.59526 18.8897 9.5459C18.7938 9.35777 18.6403 9.20427 18.4522 9.1084C18.4028 9.08329 18.3017 9.04557 18.0303 9.02344C17.7468 9.00034 17.3744 9 16.7979 9H7.19825ZM8.99805 7H14.9981V5H8.99805V7Z" fill="oklch(0.3523 0 0 / 1)" class="wd-icon-fill"></path>
</g>
</svg>