<svg width="24" height="24" viewBox="0 0 24 24" xmlns="http://www.w3.org/2000/svg" class="wd-icon wd-icon-insert-row-after" role="presentation">
<g>
<path d="M20.5 16C20.7761 16 21 16.2239 21 16.5V19.5C21 19.7761 20.7761 20 20.5 20H12.5C12.2239 20 12 19.7761 12 19.5V16.5C12 16.2239 12.2239 16 12.5 16H20.5Z" fill="transparent" class="wd-icon-background"></path>
<path d="M13.5 9C13.7761 9 14 9.22386 14 9.5V12.5C14 12.7761 13.7761 13 13.5 13H5.5C5.22386 13 5 12.7761 5 12.5V9.5C5 9.22386 5.22386 9 5.5 9H13.5Z" fill="transparent" class="wd-icon-background"></path>
<path d="M13.5 2C13.7761 2 14 2.22386 14 2.5V5.5C14 5.77614 13.7761 6 13.5 6H5.5C5.22386 6 5 5.77614 5 5.5V2.5C5 2.22386 5.22386 2 5.5 2H13.5Z" fill="transparent" class="wd-icon-background"></path>
</g>
<g>
<path d="M20.5 15C21.3284 15 22 15.6716 22 16.5V19.5C22 20.3284 21.3284 21 20.5 21H12.5C11.6716 21 11 20.3284 11 19.5V16.5C11 15.6716 11.6716 15 12.5 15H20.5ZM13 19H20V17H13V19Z" fill="oklch(0.3523 0 0 / 1)" class="wd-icon-fill"></path>
<path d="M13.5 8C14.3284 8 15 8.67157 15 9.5V12.5C15 13.3284 14.3284 14 13.5 14H5.5C4.67157 14 4 13.3284 4 12.5V9.5C4 8.67157 4.67157 8 5.5 8H13.5ZM6 12H13V10H6V12Z" fill="oklch(0.3523 0 0 / 1)" class="wd-icon-fill"></path>
<path d="M13.5 1C14.3284 1 15 1.67157 15 2.5V5.5C15 6.32843 14.3284 7 13.5 7H5.5C4.67157 7 4 6.32843 4 5.5V2.5C4 1.67157 4.67157 1 5.5 1H13.5ZM6 5H13V3H6V5Z" fill="oklch(0.3523 0 0 / 1)" class="wd-icon-fill"></path>
</g>
<path d="M6.5 16C6.77614 16 7 16.2239 7 16.5V17.9951H8.50488C8.78102 17.9951 9.00488 18.219 9.00488 18.4951V19.4951C9.00488 19.7713 8.78102 19.9951 8.50488 19.9951H7V21.5C7 21.7761 6.77614 22 6.5 22H5.5C5.22386 22 5 21.7761 5 21.5V19.9951H3.50488C3.22874 19.9951 3.00488 19.7713 3.00488 19.4951V18.4951C3.00488 18.219 3.22874 17.9951 3.50488 17.9951H5V16.5C5 16.2239 5.22386 16 5.5 16H6.5Z" fill="oklch(0.3523 0 0 / 1)" class="wd-icon-accent"></path>
</svg>