<svg width="24" height="24" viewBox="0 0 24 24" xmlns="http://www.w3.org/2000/svg" class="wd-icon wd-icon-lightbulb" role="presentation">
<g>
<path d="M12.499 4.02441C14.8618 4.25867 16.7413 6.13823 16.9756 8.50098C17.0028 8.77571 16.7761 9 16.5 9H15.5C15.2239 9 15.0045 8.77432 14.959 8.50195C14.7487 7.2442 13.7558 6.25116 12.498 6.04102C12.2257 5.99552 12 5.77614 12 5.5V4.5C12.0001 4.22404 12.2244 3.99738 12.499 4.02441Z" fill="oklch(0.3523 0 0 / 1)" class="wd-icon-fill"></path>
<path d="M12 1C16.4183 1 20 4.58172 20 9C20 11.4157 18.928 13.5819 17.2373 15.0469C16.462 15.7187 16 16.4811 16 17.2217V20.6309C15.9999 21.0475 15.8243 21.4805 15.459 21.7764C14.5144 22.5412 13.3094 23 12 23C10.6906 23 9.48558 22.5412 8.54102 21.7764C8.17569 21.4805 8.00006 21.0475 8 20.6309V17.2217C8 16.4811 7.53799 15.7187 6.7627 15.0469C5.072 13.5819 4 11.4157 4 9C4 4.58172 7.58172 1 12 1ZM10 20.3721C10.567 20.7679 11.2552 21 12 21C12.7448 21 13.433 20.7679 14 20.3721V19H10V20.3721ZM12 3C8.68629 3 6 5.68629 6 9C6 10.8111 6.80124 12.4337 8.07227 13.5352C9.00126 14.3401 9.90841 15.5271 9.99219 17H14.0078C14.0916 15.5271 14.9987 14.3401 15.9277 13.5352C17.1988 12.4337 18 10.8111 18 9C18 5.68629 15.3137 3 12 3Z" fill="oklch(0.3523 0 0 / 1)" class="wd-icon-fill"></path>
</g>
</svg>