<svg width="24" height="24" viewBox="0 0 24 24" xmlns="http://www.w3.org/2000/svg" class="wd-icon wd-icon-plus-circle" role="presentation">
<g>
<path d="M12.4941 7C12.7703 7 12.9941 7.22386 12.9941 7.5V10.9941H16.5C16.7761 10.9941 17 11.218 17 11.4941V12.4941C17 12.7703 16.7761 12.9941 16.5 12.9941H12.9941V16.5C12.9941 16.7761 12.7703 17 12.4941 17H11.4941C11.218 17 10.9941 16.7761 10.9941 16.5V12.9941H7.5C7.22386 12.9941 7 12.7703 7 12.4941V11.4941C7 11.218 7.22386 10.9941 7.5 10.9941H10.9941V7.5C10.9941 7.22386 11.218 7 11.4941 7H12.4941Z" fill="oklch(0.3523 0 0 / 1)" class="wd-icon-fill"></path>
<path d="M12 1C18.0751 1 23 5.92487 23 12C23 18.0751 18.0751 23 12 23C5.92487 23 1 18.0751 1 12C1 5.92487 5.92487 1 12 1ZM12 3C7.02944 3 3 7.02944 3 12C3 16.9706 7.02944 21 12 21C16.9706 21 21 16.9706 21 12C21 7.02944 16.9706 3 12 3Z" fill="oklch(0.3523 0 0 / 1)" class="wd-icon-fill"></path>
</g>
</svg>