<svg width="24" height="24" viewBox="0 0 24 24" xmlns="http://www.w3.org/2000/svg" class="wd-icon wd-icon-hierarchy-chevron-open" role="presentation">
<g>
<path d="M19 16C19.5523 16 20 16.4477 20 17C20 17.5523 19.5523 18 19 18C18.4477 18 18 17.5523 18 17C18 16.4477 18.4477 16 19 16Z" fill="transparent" class="wd-icon-background"></path>
<path d="M19 5C19.5523 5 20 5.44772 20 6C20 6.55228 19.5523 7 19 7C18.4477 7 18 6.55228 18 6C18 5.44772 18.4477 5 19 5Z" fill="transparent" class="wd-icon-background"></path>
</g>
<g>
<path d="M18.9994 3C20.6563 3 21.9994 4.34315 21.9994 6C21.9994 7.65685 20.6563 9 18.9994 9C17.5155 8.99988 16.2843 7.92216 16.0434 6.50684C15.9142 6.51045 15.8 6.51597 15.6967 6.52441C15.4098 6.54788 15.2726 6.59059 15.182 6.63672C14.947 6.75655 14.7559 6.94754 14.6361 7.18262C14.59 7.27316 14.5473 7.41033 14.5238 7.69727C14.4997 7.99314 14.4994 8.37777 14.4994 8.9502V14.0498C14.4994 14.6222 14.4997 15.0069 14.5238 15.3027C14.5473 15.5897 14.59 15.7268 14.6361 15.8174C14.7559 16.0525 14.947 16.2435 15.182 16.3633C15.2726 16.4094 15.4098 16.4521 15.6967 16.4756C15.8 16.484 15.9142 16.4886 16.0434 16.4922C16.2847 15.0773 17.5158 14.0001 18.9994 14C20.6563 14 21.9994 15.3431 21.9994 17C21.9994 18.6569 20.6563 20 18.9994 20C17.6922 19.9999 16.5833 19.1627 16.1723 17.9961C15.9528 17.9924 15.7537 17.9853 15.5746 17.9707C15.1949 17.9397 14.8385 17.8719 14.5014 17.7002C13.984 17.4365 13.5628 17.0155 13.2992 16.498C13.1275 16.1609 13.0597 15.8045 13.0287 15.4248C12.9984 15.0537 12.9994 14.5975 12.9994 14.0498V8.9502C12.9994 8.40252 12.9984 7.94632 13.0287 7.5752C13.0597 7.19549 13.1275 6.83908 13.2992 6.50195C13.5628 5.98455 13.984 5.56346 14.5014 5.2998C14.8385 5.12811 15.1949 5.06033 15.5746 5.0293C15.7537 5.01466 15.9528 5.0066 16.1723 5.00293C16.5835 3.83676 17.6925 3.00011 18.9994 3ZM18.9994 16C18.4472 16.0001 17.9994 16.4478 17.9994 17C17.9994 17.5522 18.4472 17.9999 18.9994 18C19.5517 18 19.9994 17.5523 19.9994 17C19.9994 16.4477 19.5517 16 18.9994 16ZM18.9994 5C18.4472 5.00013 17.9994 5.4478 17.9994 6C17.9994 6.5522 18.4472 6.99987 18.9994 7C19.5517 7 19.9994 6.55228 19.9994 6C19.9994 5.44772 19.5517 5 18.9994 5Z" fill="oklch(0.3523 0 0 / 1)" class="wd-icon-fill"></path>
<path d="M8.29238 10.293C8.68289 9.90257 9.31595 9.90253 9.70644 10.293C10.0969 10.6835 10.0968 11.3165 9.70644 11.707L6.70644 14.707C6.31594 15.0975 5.68289 15.0975 5.29238 14.707L2.29238 11.707C1.90187 11.3165 1.90191 10.6835 2.29238 10.293C2.68291 9.9025 3.31594 9.90246 3.70644 10.293L5.99941 12.5859L8.29238 10.293Z" fill="oklch(0.3523 0 0 / 1)" class="wd-icon-fill"></path>
</g>
</svg>