<svg width="24" height="24" viewBox="0 0 24 24" xmlns="http://www.w3.org/2000/svg" class="wd-icon wd-icon-location" role="presentation">
<path d="M11.998 4C15.3118 4 17.998 6.68629 17.998 10L17.9941 10.2666C17.9607 11.4306 17.7085 12.5855 17.2441 13.6875L17.0322 14.1562C16.3921 15.4808 15.4487 16.6966 14.2471 17.7266C13.5694 18.3074 12.8139 18.8199 11.998 19.2607C11.1822 18.8199 10.4267 18.3074 9.74902 17.7266C8.69765 16.8254 7.84368 15.7824 7.21777 14.6484L6.96387 14.1562C6.32436 12.8326 5.99805 11.4209 5.99805 10C5.99805 6.68629 8.68434 4 11.998 4ZM12 6.5C10.067 6.5 8.5 8.067 8.5 10C8.5 11.933 10.067 13.5 12 13.5C13.933 13.5 15.5 11.933 15.5 10C15.5 8.067 13.933 6.5 12 6.5Z" fill="transparent" class="wd-icon-background"></path>
<g>
<path d="M12 6.5C13.933 6.5 15.5 8.067 15.5 10C15.5 11.933 13.933 13.5 12 13.5C10.067 13.5 8.5 11.933 8.5 10C8.5 8.067 10.067 6.5 12 6.5ZM12 8C10.8954 8 10 8.89543 10 10C10 11.1046 10.8954 12 12 12C13.1046 12 14 11.1046 14 10C14 8.89543 13.1046 8 12 8Z" fill="oklch(0.3523 0 0 / 1)" class="wd-icon-fill"></path>
<path d="M11.998 2C16.4163 2 19.998 5.58172 19.998 10V10.0137L19.9941 10.3086V10.3232C19.9506 11.8418 19.5999 13.3386 18.9639 14.7461L18.833 15.0273C18.066 16.6144 16.9461 18.0456 15.5479 19.2441C14.7451 19.9322 13.8592 20.533 12.9111 21.042C12.3409 21.3481 11.6552 21.3481 11.085 21.042C10.1369 20.533 9.25097 19.9322 8.44824 19.2441C7.1371 18.1203 6.07066 16.792 5.31055 15.3223L5.16309 15.0273C4.39586 13.4395 3.99805 11.7304 3.99805 10C3.99805 5.58172 7.57977 2 11.998 2ZM11.998 4C8.68434 4 5.99805 6.68629 5.99805 10C5.99805 11.4209 6.32436 12.8326 6.96387 14.1562L7.21777 14.6484C7.84368 15.7824 8.69765 16.8254 9.74902 17.7266C10.4267 18.3074 11.1822 18.8199 11.998 19.2607C12.8139 18.8199 13.5694 18.3074 14.2471 17.7266C15.4487 16.6966 16.3921 15.4808 17.0322 14.1562L17.2441 13.6875C17.7085 12.5855 17.9607 11.4306 17.9941 10.2666L17.998 10C17.998 6.68629 15.3118 4 11.998 4Z" fill="oklch(0.3523 0 0 / 1)" class="wd-icon-fill"></path>
</g>
</svg>