<svg width="24" height="24" viewBox="0 0 24 24" xmlns="http://www.w3.org/2000/svg" class="wd-icon wd-icon-face-very-happy" role="presentation">
<path d="M12 4C16.4183 4 20 7.58172 20 12C20 16.4183 16.4183 20 12 20C7.58172 20 4 16.4183 4 12C4 7.58172 7.58172 4 12 4ZM15.9727 13.4355C15.8285 13.4277 15.6829 13.4643 15.5479 13.5186C15.4105 13.5661 15.2748 13.6086 15.1416 13.6455C13.9402 13.9645 12.931 13.9902 12 14C11.0691 13.9899 10.0592 13.9721 8.84473 13.6602C8.71024 13.624 8.5735 13.583 8.43457 13.5361C8.30453 13.4852 8.16529 13.4503 8.02734 13.458C7.88927 13.4658 7.76395 13.5159 7.6709 13.6045C7.57785 13.6931 7.52137 13.8156 7.50684 13.9531C7.49234 14.0906 7.52091 14.2318 7.56543 14.3643C7.63101 14.5321 7.70927 14.6962 7.79785 14.8555C8.59916 16.3023 10.2597 17.2561 12 17.25C13.7402 17.2557 15.4015 16.3108 16.2158 14.8711C16.3059 14.7124 16.3848 14.5483 16.4521 14.3809C16.4998 14.2433 16.5304 14.0967 16.5156 13.9531C16.5007 13.8094 16.4421 13.6807 16.3447 13.5879C16.2474 13.4953 16.1167 13.4435 15.9727 13.4355ZM9 8C8.44772 8 8 8.44772 8 9V11C8 11.5523 8.44772 12 9 12C9.55228 12 10 11.5523 10 11V9C10 8.44772 9.55228 8 9 8ZM15 8C14.4477 8 14 8.44772 14 9V11C14 11.5523 14.4477 12 15 12C15.5523 12 16 11.5523 16 11V9C16 8.44772 15.5523 8 15 8Z" fill="transparent" class="wd-icon-background"></path>
<path d="M12 2C17.5227 2.00012 22 6.47722 22 12C22 17.5228 17.5227 21.9999 12 22C6.47715 22 2 17.5228 2 12C2 6.47715 6.47715 2 12 2ZM12 4C7.58172 4 4 7.58172 4 12C4 16.4183 7.58172 20 12 20C16.4182 19.9999 20 16.4182 20 12C20 7.58179 16.4182 4.00012 12 4Z" fill="oklch(0.3523 0 0 / 1)" class="wd-icon-fill"></path>
<g>
<path d="M15.9725 13.4355C16.1166 13.4435 16.2473 13.4953 16.3446 13.5879C16.442 13.6807 16.5006 13.8094 16.5155 13.9531C16.5303 14.0967 16.4997 14.2433 16.452 14.3809C16.3847 14.5482 16.3058 14.7124 16.2157 14.8711C15.4014 16.3108 13.7401 17.2557 11.9999 17.25C10.2596 17.2561 8.59906 16.3023 7.79774 14.8555C7.70917 14.6962 7.63091 14.5321 7.56532 14.3643C7.52081 14.2318 7.49223 14.0906 7.50673 13.9531C7.52126 13.8156 7.57774 13.6931 7.67079 13.6045C7.76384 13.5159 7.8892 13.4658 8.02724 13.458C8.16514 13.4503 8.30446 13.4853 8.43446 13.5361C8.57336 13.583 8.71016 13.624 8.84462 13.6602C10.059 13.9721 11.069 13.9899 11.9999 14C12.9309 13.9902 13.9401 13.9645 15.1415 13.6455C15.2747 13.6086 15.4104 13.5661 15.5477 13.5186C15.6828 13.4643 15.8285 13.4277 15.9725 13.4355Z" fill="oklch(0.3523 0 0 / 1)" class="wd-icon-accent"></path>
<path d="M8.99989 8C9.55213 8.00006 9.99989 8.44775 9.99989 9V11C9.99989 11.5522 9.55213 11.9999 8.99989 12C8.44761 12 7.99989 11.5523 7.99989 11V9C7.99989 8.44772 8.44761 8 8.99989 8Z" fill="oklch(0.3523 0 0 / 1)" class="wd-icon-accent"></path>
<path d="M14.9999 8C15.5521 8.00006 15.9999 8.44775 15.9999 9V11C15.9999 11.5522 15.5521 11.9999 14.9999 12C14.4476 12 13.9999 11.5523 13.9999 11V9C13.9999 8.44772 14.4476 8 14.9999 8Z" fill="oklch(0.3523 0 0 / 1)" class="wd-icon-accent"></path>
</g>
</svg>