<svg width="24" height="24" viewBox="0 0 24 24" xmlns="http://www.w3.org/2000/svg" class="wd-icon wd-icon-document-task" role="presentation">
<path d="M14.2002 3C15.0566 3 15.6388 3.00035 16.0889 3.03711C16.5272 3.07292 16.7518 3.13811 16.9082 3.21777C17.2843 3.40948 17.5905 3.71566 17.7822 4.0918C17.8619 4.24816 17.9271 4.47306 17.9629 4.91113C17.9996 5.36109 18 5.9437 18 6.7998V17.2002C18 18.0563 17.9996 18.6389 17.9629 19.0889C17.9271 19.5269 17.8619 19.7518 17.7822 19.9082C17.5905 20.2843 17.2843 20.5905 16.9082 20.7822C16.7518 20.8619 16.5272 20.9271 16.0889 20.9629C15.6388 20.9996 15.0566 21 14.2002 21H9.7998C8.94343 21 8.36117 20.9996 7.91113 20.9629C7.47282 20.9271 7.24819 20.8619 7.0918 20.7822C6.71565 20.5905 6.4095 20.2843 6.21777 19.9082C6.13814 19.7518 6.07292 19.5269 6.03711 19.0889C6.00037 18.6389 6 18.0563 6 17.2002V6.7998C6 5.9437 6.00037 5.36109 6.03711 4.91113C6.07292 4.47306 6.13814 4.24816 6.21777 4.0918C6.4095 3.71567 6.71565 3.40948 7.0918 3.21777C7.24819 3.13811 7.47282 3.07292 7.91113 3.03711C8.36117 3.00035 8.94343 3 9.7998 3H14.2002ZM8.25 17.25C7.83579 17.25 7.5 17.5858 7.5 18C7.5 18.4142 7.83579 18.75 8.25 18.75H13.75C14.1642 18.75 14.5 18.4142 14.5 18C14.5 17.5858 14.1642 17.25 13.75 17.25H8.25ZM8.25 14.25C7.83579 14.25 7.5 14.5858 7.5 15C7.5 15.4142 7.83579 15.75 8.25 15.75H15.75C16.1642 15.75 16.5 15.4142 16.5 15C16.5 14.5858 16.1642 14.25 15.75 14.25H8.25Z" fill="transparent" class="wd-icon-background"></path>
<path d="M14.2002 1C15.0237 1 15.7016 0.998981 16.252 1.04395C16.814 1.08987 17.3311 1.18831 17.8164 1.43555C18.5688 1.81899 19.181 2.43121 19.5645 3.1836C19.8116 3.66878 19.9101 4.18616 19.9561 4.74805C20.001 5.29833 20 5.97654 20 6.79981V17.2002C20 18.0235 20.001 18.7017 19.9561 19.252C19.9101 19.8138 19.8116 20.3312 19.5645 20.8164C19.181 21.5688 18.5688 22.181 17.8164 22.5645C17.3311 22.8117 16.814 22.9101 16.252 22.9561C15.7016 23.001 15.0237 23 14.2002 23H9.79981C8.97633 23 8.29842 23.001 7.74805 22.9561C7.18603 22.9101 6.66887 22.8117 6.1836 22.5645C5.4312 22.181 4.81901 21.5688 4.43555 20.8164C4.18838 20.3312 4.08988 19.8138 4.04395 19.252C3.999 18.7017 4 18.0235 4 17.2002V6.79981C4 5.97654 3.999 5.29833 4.04395 4.74805C4.08988 4.18616 4.18838 3.66878 4.43555 3.1836C4.81901 2.43121 5.4312 1.81899 6.1836 1.43555C6.66886 1.18831 7.18604 1.08987 7.74805 1.04395C8.29842 0.998981 8.97633 1 9.79981 1H14.2002ZM9.79981 3C8.94343 3 8.36117 3.00035 7.91113 3.03711C7.47283 3.07292 7.24819 3.13811 7.0918 3.21778C6.71566 3.40948 6.4095 3.71567 6.21778 4.0918C6.13814 4.24816 6.07292 4.47306 6.03711 4.91113C6.00037 5.3611 6 5.9437 6 6.79981V17.2002C6 18.0563 6.00037 18.6389 6.03711 19.0889C6.07292 19.5269 6.13814 19.7518 6.21778 19.9082C6.4095 20.2843 6.71565 20.5905 7.0918 20.7822C7.24819 20.8619 7.47282 20.9271 7.91113 20.9629C8.36117 20.9997 8.94343 21 9.79981 21H14.2002C15.0566 21 15.6388 20.9997 16.0889 20.9629C16.5272 20.9271 16.7518 20.8619 16.9082 20.7822C17.2844 20.5905 17.5905 20.2843 17.7822 19.9082C17.8619 19.7518 17.9271 19.5269 17.9629 19.0889C17.9996 18.6389 18 18.0563 18 17.2002V6.79981C18 5.9437 17.9996 5.3611 17.9629 4.91113C17.9271 4.47305 17.8619 4.24816 17.7822 4.0918C17.5905 3.71566 17.2844 3.40948 16.9082 3.21778C16.7518 3.13811 16.5272 3.07292 16.0889 3.03711C15.6388 3.00035 15.0566 3 14.2002 3H9.79981Z" fill="oklch(0.3523 0 0 / 1)" class="wd-icon-fill"></path>
<g>
<path d="M13.75 17.25C14.1642 17.25 14.5 17.5858 14.5 18C14.5 18.4142 14.1642 18.75 13.75 18.75H8.25C7.83579 18.75 7.5 18.4142 7.5 18C7.5 17.5858 7.83579 17.25 8.25 17.25H13.75Z" fill="oklch(0.3523 0 0 / 1)" class="wd-icon-accent"></path>
<path d="M15.75 14.25C16.1642 14.25 16.5 14.5858 16.5 15C16.5 15.4142 16.1642 15.75 15.75 15.75H8.25C7.83579 15.75 7.5 15.4142 7.5 15C7.5 14.5858 7.83579 14.25 8.25 14.25H15.75Z" fill="oklch(0.3523 0 0 / 1)" class="wd-icon-accent"></path>
</g>
</svg>