<svg width="24" height="24" viewBox="0 0 24 24" xmlns="http://www.w3.org/2000/svg" class="wd-icon wd-icon-airplane" role="presentation">
<path d="M17.4531 2.27829C18.756 1.83684 20.2204 1.80653 21.207 2.79294C22.1934 3.77952 22.1631 5.24387 21.7216 6.54685C21.2655 7.8929 20.2935 9.36365 18.9013 10.7558C18.495 11.1621 18.0725 11.5641 17.6464 11.9619L18.7558 18.8935C18.9625 20.1871 18.3056 21.4653 17.1347 22.0508L16.8652 22.1855C16.1601 22.538 15.3025 22.2845 14.9023 21.6054L14.9013 21.6045L12.0312 16.7265C11.6489 17.0269 11.3017 17.2963 10.9999 17.5273V19.5459L10.9951 19.7148C10.9506 20.501 10.5985 21.2387 10.0156 21.7675L9.88665 21.8779L8.98431 22.6084C8.13751 23.2932 6.86367 22.8762 6.5888 21.8203L5.67962 18.3193L2.1806 17.4111C1.12538 17.1363 0.707544 15.8635 1.39154 15.0166L2.122 14.1133L2.23236 13.9843C2.79894 13.3598 3.60541 13.0002 4.45404 13H6.47161C6.70237 12.6981 6.97096 12.3498 7.27142 11.9668L2.39544 9.09958C1.71402 8.69865 1.46255 7.83852 1.81439 7.13474L1.94915 6.86521C2.5348 5.69392 3.81378 5.03719 5.10736 5.24411L12.0361 6.35251C12.4348 5.92596 12.8381 5.5046 13.2441 5.0986C14.6362 3.70644 16.107 2.73443 17.4531 2.27829ZM19.7929 4.207C19.6078 4.02202 19.1143 3.82736 18.0947 4.17282C17.1181 4.50384 15.9004 5.27037 14.6581 6.51267C14.1498 7.02104 13.6403 7.55627 13.1396 8.10153L12.7763 8.49704L4.79095 7.21872C4.41522 7.15874 4.04186 7.31732 3.82318 7.61814L10.2704 11.4101L9.54779 12.3125C8.79964 13.2457 8.18124 14.0488 7.76263 14.6025L7.46282 15H4.45404C4.19012 15.0001 3.93794 15.1046 3.75189 15.2881L3.67669 15.3711L3.43353 15.6699L7.32025 16.6797L8.32904 20.5654L8.62884 20.3232L8.71185 20.248C8.89535 20.0619 8.99984 19.8098 8.99993 19.5459V16.5371L9.3974 16.2373C9.94989 15.8196 10.7516 15.1998 11.6855 14.4511L12.5878 13.7285L16.3808 20.1748C16.6814 19.9562 16.841 19.5853 16.7812 19.2099L15.5029 11.2217L15.8984 10.8584C16.4443 10.357 16.98 9.84902 17.4872 9.34177C18.7296 8.09945 19.4961 6.88179 19.8271 5.90524C20.1726 4.8855 19.9779 4.39207 19.7929 4.207Z" fill="oklch(0.3523 0 0 / 1)" class="wd-icon-fill"></path>
</svg>