<svg width="24" height="24" viewBox="0 0 24 24" xmlns="http://www.w3.org/2000/svg" class="wd-icon wd-icon-face-id" role="presentation">
<g>
<path d="M4.00008 15.0001C4.55234 15.0001 5.00004 15.4478 5.00008 16.0001C5.00008 16.9943 5.00891 17.2954 5.06844 17.5177C5.25337 18.2078 5.79237 18.7468 6.48251 18.9317C6.70478 18.9913 7.0058 19.0001 8.00008 19.0001C8.55234 19.0001 9.00004 19.4478 9.00008 20.0001C9.00008 20.5524 8.55237 21.0001 8.00008 21.0001C7.13454 21.0001 6.50563 21.0082 5.96493 20.8634C4.58461 20.4935 3.50666 19.4156 3.1368 18.0352C2.99195 17.4945 3.00008 16.8656 3.00008 16.0001C3.00013 15.4479 3.44787 15.0001 4.00008 15.0001Z" fill="oklch(0.3523 0 0 / 1)" class="wd-icon-fill"></path>
<path d="M20.0001 15.0001C20.5523 15.0001 21 15.4478 21.0001 16.0001C21.0001 16.8656 21.0082 17.4945 20.8634 18.0352C20.4935 19.4156 19.4156 20.4935 18.0352 20.8634C17.4945 21.0082 16.8656 21.0001 16.0001 21.0001C15.4478 21 15.0001 20.5523 15.0001 20.0001C15.0001 19.4479 15.4479 19.0001 16.0001 19.0001C16.9943 19.0001 17.2954 18.9913 17.5177 18.9317C18.2078 18.7468 18.7468 18.2078 18.9317 17.5177C18.9913 17.2954 19.0001 16.9943 19.0001 16.0001C19.0001 15.4479 19.4479 15.0001 20.0001 15.0001Z" fill="oklch(0.3523 0 0 / 1)" class="wd-icon-fill"></path>
<path d="M14.4747 14.4747C14.7675 14.1819 15.2423 14.1822 15.5352 14.4747C15.8281 14.7676 15.8281 15.2423 15.5352 15.5352C14.5976 16.4729 13.3262 17.0001 12.0001 17.0001C10.674 17.0001 9.40259 16.4729 8.46493 15.5352C8.17212 15.2423 8.17206 14.7676 8.46493 14.4747C8.75782 14.1821 9.23268 14.182 9.52547 14.4747C10.1818 15.1311 11.0719 15.5001 12.0001 15.5001C12.9283 15.5001 13.8183 15.1311 14.4747 14.4747Z" fill="oklch(0.3523 0 0 / 1)" class="wd-icon-fill"></path>
<path d="M12.2501 8.62508C12.6643 8.62508 13 8.96091 13.0001 9.37508V12.2501C13.0001 12.9404 12.4404 13.5001 11.7501 13.5001H11.2501C10.8359 13.5 10.5001 13.1643 10.5001 12.7501C10.5001 12.3359 10.8359 12.0001 11.2501 12.0001H11.5001V9.37508C11.5001 8.96094 11.8359 8.62513 12.2501 8.62508Z" fill="oklch(0.3523 0 0 / 1)" class="wd-icon-fill"></path>
<path d="M8.50008 8.62508C8.98331 8.62508 9.37504 9.01687 9.37508 9.50008V10.5001C9.37508 10.9833 8.98333 11.3751 8.50008 11.3751C8.01687 11.375 7.62508 10.9833 7.62508 10.5001V9.50008C7.62513 9.0169 8.0169 8.62513 8.50008 8.62508Z" fill="oklch(0.3523 0 0 / 1)" class="wd-icon-fill"></path>
<path d="M15.5001 8.62508C15.9833 8.62508 16.375 9.01687 16.3751 9.50008V10.5001C16.3751 10.9833 15.9833 11.3751 15.5001 11.3751C15.0169 11.375 14.6251 10.9833 14.6251 10.5001V9.50008C14.6251 9.0169 15.0169 8.62513 15.5001 8.62508Z" fill="oklch(0.3523 0 0 / 1)" class="wd-icon-fill"></path>
<path d="M8.00008 3.00008C8.55234 3.00008 9.00004 3.44784 9.00008 4.00008C9.00008 4.55237 8.55237 5.00008 8.00008 5.00008C7.0058 5.00008 6.70478 5.00889 6.48251 5.06844C5.79237 5.25339 5.25339 5.79237 5.06844 6.48251C5.00889 6.70478 5.00008 7.0058 5.00008 8.00008C5.00008 8.55237 4.55237 9.00008 4.00008 9.00008C3.44784 9.00004 3.00008 8.55234 3.00008 8.00008C3.00008 7.13454 2.99192 6.50563 3.1368 5.96493C3.50668 4.58461 4.58461 3.50668 5.96493 3.1368C6.50563 2.99192 7.13454 3.00008 8.00008 3.00008Z" fill="oklch(0.3523 0 0 / 1)" class="wd-icon-fill"></path>
<path d="M16.0001 3.00008C16.8656 3.00008 17.4945 2.99195 18.0352 3.1368C19.4156 3.50666 20.4935 4.58461 20.8634 5.96493C21.0082 6.50563 21.0001 7.13454 21.0001 8.00008C21.0001 8.55237 20.5524 9.00008 20.0001 9.00008C19.4478 9.00004 19.0001 8.55234 19.0001 8.00008C19.0001 7.0058 18.9913 6.70478 18.9317 6.48251C18.7468 5.79237 18.2078 5.25337 17.5177 5.06844C17.2954 5.00891 16.9943 5.00008 16.0001 5.00008C15.4478 5.00004 15.0001 4.55234 15.0001 4.00008C15.0001 3.44787 15.4479 3.00013 16.0001 3.00008Z" fill="oklch(0.3523 0 0 / 1)" class="wd-icon-fill"></path>
</g>
</svg>