<svg width="24" height="24" viewBox="0 0 24 24" xmlns="http://www.w3.org/2000/svg" class="wd-icon wd-icon-formula-edit" role="presentation">
<path d="M19.499 11C20.3946 10.9989 21.2942 11.3411 21.9785 12.0254C22.6626 12.7097 23.0041 13.6094 23.0029 14.5049C23.0025 14.7696 22.8973 15.0238 22.71 15.2109L15.207 22.707C15.0195 22.8944 14.7651 23 14.5 23H12C11.4478 23 11.0001 22.5522 11 22V19.5C11 19.2348 11.1055 18.9805 11.293 18.793L18.793 11.293L18.8662 11.2266C19.0438 11.081 19.2674 11.0003 19.499 11ZM13 19.9141V21H14.085L18.3369 16.751L17.249 15.6631L13 19.9141ZM18.6631 14.249L19.751 15.3369L20.9561 14.1348C20.8924 13.8799 20.7629 13.6389 20.5635 13.4395C20.3637 13.2398 20.1225 13.1094 19.8672 13.0459L18.6631 14.249Z" fill="oklch(0.3523 0 0 / 1)" class="wd-icon-accent"></path>
<g>
<path d="M8.88755 3C9.04537 3.00031 9.16404 3.14514 9.13267 3.2998L8.93052 4.28613C8.90671 4.40223 8.80386 4.48605 8.6854 4.48633H7.86021C7.21269 4.48641 6.78116 4.79091 6.61607 5.59082L6.52622 6.01465H7.73814C7.89684 6.01493 8.01514 6.16115 7.98228 6.31641L7.77232 7.30273C7.7477 7.41793 7.64495 7.50077 7.5272 7.50098H6.20884L5.07993 12.8018C5.05538 12.917 4.95262 12.9998 4.83482 13H3.41587C3.25699 13 3.13793 12.8536 3.17075 12.6982L4.27427 7.50098H3.45689C3.29695 7.50098 3.17805 7.35242 3.21275 7.19629L3.4315 6.20996C3.45709 6.09586 3.55867 6.01469 3.67564 6.01465H4.5897L4.77427 5.14648C5.07908 3.73688 5.84118 3.00003 7.41587 3H8.88755Z" fill="oklch(0.3523 0 0 / 1)" class="wd-icon-fill"></path>
<path d="M10.3709 6C10.4683 6.00017 10.5577 6.05707 10.5985 6.14551L11.5038 8.11035H11.5292L13.1297 6.09473C13.1771 6.0352 13.249 6.00005 13.3251 6H15.1297C15.3463 6.00054 15.4598 6.25758 15.3143 6.41797L12.4305 9.58398L14.0731 12.6318C14.1624 12.7982 14.0421 12.9996 13.8534 13H12.3192C12.2241 12.9999 12.1376 12.9456 12.0956 12.8604L11.0838 10.8027H11.0584L9.38169 12.9062C9.33444 12.9655 9.26212 12.9997 9.18638 13H7.36021C7.1428 12.9998 7.02954 12.7413 7.17661 12.5811L10.1952 9.29199L8.62095 6.36914C8.53122 6.20259 8.65149 6.00001 8.84068 6H10.3709Z" fill="oklch(0.3523 0 0 / 1)" class="wd-icon-fill"></path>
</g>
</svg>