<svg width="24" height="24" viewBox="0 0 24 24" xmlns="http://www.w3.org/2000/svg" class="wd-icon wd-icon-pointer-up" role="presentation">
<path d="M17.6672 16.6057L12.7906 14.3545C12.2876 14.1225 11.7082 14.1225 11.2052 14.3545L6.32861 16.6057L11.9979 5.27539L17.6672 16.6057Z" fill="transparent" class="wd-icon-background"></path>
<path d="M10.3064 4.42777C11.0041 3.03415 12.9933 3.03461 13.6907 4.42846L19.3593 15.758C20.1594 17.3577 18.4988 19.0719 16.8748 18.3227L11.9982 16.0715L7.12234 18.322C5.49817 19.0716 3.83694 17.3578 4.63711 15.758L10.3064 4.42777ZM6.32892 16.6046L11.2055 14.3535C11.7085 14.1214 12.2886 14.122 12.7916 14.3542L17.6675 16.6046L11.9982 5.27436L6.32892 16.6046Z" fill="oklch(0.3523 0 0 / 1)" class="wd-icon-fill"></path>
</svg>