<svg width="24" height="24" viewBox="0 0 24 24" xmlns="http://www.w3.org/2000/svg" class="wd-icon wd-icon-star-half-fill" role="presentation">
<path d="M12.1855 4.64551L13.6357 8.25781C13.7101 8.44303 13.8258 8.76543 14.0479 9.01953C14.2207 9.21719 14.4363 9.37333 14.6777 9.47656C14.9882 9.6092 15.3303 9.61932 15.5293 9.63281L19.4121 9.89648C19.6025 9.9094 19.7643 9.92101 19.9023 9.93164C19.7969 10.0214 19.6738 10.1267 19.5273 10.249L16.54 12.7451C16.4061 12.857 16.1816 13.0308 16.0117 13.2666L15.9434 13.3721C15.8424 13.5412 15.7708 13.726 15.7314 13.918L15.7021 14.1123C15.672 14.4484 15.7687 14.7773 15.8174 14.9707L16.7666 18.7451C16.8132 18.9303 16.8512 19.0881 16.8838 19.2227C16.7659 19.1501 16.6284 19.0644 16.4668 18.9629L13.1699 16.8936C13.0222 16.8008 12.7874 16.6415 12.5107 16.5527L12.3887 16.5195L12.1953 16.4863C12.1304 16.479 12.0652 16.4746 12 16.4746V4.1875L12.1855 4.64551Z" fill="transparent" class="wd-icon-background"></path>
<path d="M11.3919 1.87184C11.7843 1.72634 12.2163 1.72629 12.6087 1.87184L12.8011 1.9568L12.9534 2.04762C13.2861 2.27647 13.4729 2.61227 13.5833 2.82985C13.726 3.1111 13.8758 3.48543 14.0423 3.90016L15.4925 7.51247C15.5107 7.55792 15.5259 7.59568 15.5394 7.62868C15.5749 7.63128 15.6156 7.63416 15.6644 7.63747L19.5482 7.90114C19.9938 7.93135 20.3959 7.95685 20.7073 8.00563C20.9828 8.04882 21.4364 8.1393 21.7796 8.47926C22.1812 8.87739 22.3656 9.44556 22.2747 10.0037C22.197 10.4807 21.8834 10.8204 21.6859 11.0173C21.4625 11.2399 21.1527 11.4975 20.8099 11.784L17.8226 14.28C17.785 14.3115 17.7531 14.3371 17.7259 14.3601C17.7344 14.3949 17.7451 14.4345 17.7571 14.4822L18.7064 18.2566C18.8154 18.69 18.9153 19.0809 18.9652 19.3923C19.0092 19.6677 19.0634 20.1268 18.846 20.5584C18.5915 21.0633 18.108 21.4146 17.5491 21.5007C17.0716 21.5742 16.652 21.3807 16.4036 21.2537C16.1229 21.1101 15.7821 20.8946 15.4036 20.657L12.1068 18.5877C12.0652 18.5616 12.0306 18.5391 12.0003 18.5203C11.97 18.5391 11.9354 18.5616 11.8939 18.5877L8.59699 20.657C8.21858 20.8946 7.87772 21.1101 7.59699 21.2537C7.3487 21.3807 6.929 21.5741 6.45148 21.5007C5.89254 21.4147 5.40917 21.0634 5.1546 20.5584C4.93712 20.1267 4.9914 19.6677 5.03546 19.3923C5.08531 19.0809 5.18522 18.69 5.29425 18.2566L6.24347 14.4822C6.25544 14.4346 6.26523 14.3948 6.27374 14.3601C6.24663 14.3372 6.21541 14.3113 6.17804 14.28L3.19074 11.784C2.84791 11.4975 2.53812 11.2399 2.31476 11.0173C2.11722 10.8204 1.80358 10.4808 1.72589 10.0037C1.63502 9.44551 1.8194 8.87741 2.22101 8.47926L2.35382 8.36305C2.67428 8.11733 3.05221 8.04342 3.29328 8.00563C3.60478 7.95686 4.00687 7.93135 4.45246 7.90114L8.33624 7.63747C8.38459 7.63419 8.425 7.63126 8.46027 7.62868C8.47376 7.59562 8.48982 7.55803 8.50812 7.51247L9.95831 3.90016C10.1248 3.48546 10.2746 3.11108 10.4173 2.82985C10.5435 2.58112 10.7698 2.1781 11.1995 1.9568L11.3919 1.87184ZM11.8148 4.64528L10.3646 8.25758C10.2902 8.44271 10.1746 8.76503 9.95245 9.0193C9.77962 9.21704 9.56403 9.37305 9.32257 9.47633C9.01219 9.609 8.67007 9.6191 8.47101 9.63258L4.5882 9.89626C4.3974 9.90919 4.23521 9.92076 4.09699 9.93141C4.20256 10.0213 4.32617 10.1262 4.47296 10.2488L7.46027 12.7449C7.59423 12.8568 7.81868 13.0305 7.98859 13.2664L8.05695 13.3718L8.14874 13.5457C8.20277 13.6647 8.24261 13.7897 8.26886 13.9177L8.29816 14.1121L8.30402 14.2371C8.30528 14.528 8.22554 14.8011 8.18292 14.9705L7.23371 18.7449C7.18706 18.9303 7.14812 19.0877 7.11554 19.2224C7.23365 19.1498 7.37152 19.0644 7.53351 18.9627L10.8304 16.8933C10.9994 16.7872 11.2825 16.5944 11.6116 16.5193L11.805 16.4861C11.9347 16.4715 12.0659 16.4715 12.1956 16.4861L12.389 16.5193L12.511 16.5525C12.7877 16.6413 13.0225 16.8006 13.1702 16.8933L16.4671 18.9627C16.6288 19.0642 16.7661 19.1499 16.8841 19.2224C16.8515 19.0877 16.8135 18.9302 16.7669 18.7449L15.8177 14.9705C15.769 14.777 15.6722 14.4484 15.7025 14.1121L15.7318 13.9177C15.7711 13.7256 15.8426 13.541 15.9437 13.3718L16.012 13.2664C16.182 13.0305 16.4064 12.8568 16.5403 12.7449L19.5277 10.2488C19.6742 10.1264 19.7972 10.0212 19.9027 9.93141C19.7646 9.92078 19.6028 9.90916 19.4124 9.89626L15.5296 9.63258C15.3306 9.61909 14.9885 9.60899 14.678 9.47633C14.4365 9.37306 14.221 9.21706 14.0482 9.0193C13.8259 8.76502 13.7104 8.44274 13.636 8.25758L12.1859 4.64528C12.1142 4.46683 12.0534 4.3159 12.0003 4.18727C11.9473 4.31588 11.8864 4.46687 11.8148 4.64528Z" fill="oklch(0.3523 0 0 / 1)" class="wd-icon-fill"></path>
<path d="M11.999 16.4756C11.9338 16.4756 11.8686 16.479 11.8037 16.4863L11.6104 16.5195C11.2811 16.5946 10.9981 16.7875 10.8291 16.8936L7.53223 18.9629C7.37016 19.0646 7.2324 19.15 7.11426 19.2227C7.14684 19.0879 7.18577 18.9306 7.23242 18.7451L8.18164 14.9707C8.22425 14.8013 8.304 14.5282 8.30273 14.2373L8.29688 14.1123L8.26758 13.918C8.24132 13.7899 8.2015 13.665 8.14746 13.5459L8.05566 13.3721L7.9873 13.2666C7.81736 13.0307 7.59293 12.857 7.45898 12.7451L4.47168 10.249C4.32485 10.1263 4.2013 10.0215 4.0957 9.93164C4.23397 9.92099 4.39603 9.90943 4.58691 9.89648L8.46973 9.63281C8.66876 9.61932 9.01081 9.60928 9.32129 9.47656C9.56282 9.37328 9.7783 9.21732 9.95117 9.01953C10.1734 8.76524 10.2889 8.44297 10.3633 8.25781L11.8135 4.64551C11.8851 4.46705 11.946 4.31614 11.999 4.1875V16.4756Z" fill="oklch(0.3523 0 0 / 1)" class="wd-icon-accent"></path>
</svg>