<svg width="24" height="24" viewBox="0 0 24 24" xmlns="http://www.w3.org/2000/svg" class="wd-icon wd-icon-gauge" role="presentation">
<g>
<path d="M11.9997 3C13.8972 3 15.7559 3.53992 17.3581 4.55664C18.9602 5.57338 20.2396 7.02532 21.0475 8.74219C21.8554 10.4591 22.1583 12.3704 21.9206 14.2529C21.6828 16.1355 20.9143 17.9119 19.7048 19.374C19.3527 19.7994 18.7221 19.8598 18.2966 19.5078C17.8713 19.1558 17.812 18.5251 18.1637 18.0996C19.1313 16.93 19.7459 15.5089 19.9362 14.0029C20.1265 12.4968 19.8843 10.9674 19.238 9.59375C18.5916 8.22025 17.5675 7.0585 16.2858 6.24512C15.0042 5.43195 13.5175 5 11.9997 5C10.4819 5.00005 8.99514 5.43192 7.71355 6.24512C6.43192 7.05852 5.40775 8.22027 4.7614 9.59375C4.11507 10.9673 3.87291 12.4969 4.06316 14.0029C4.25347 15.5089 4.86808 16.93 5.83562 18.0996C6.18752 18.5252 6.1283 19.1558 5.70281 19.5078C5.27727 19.8597 4.64659 19.7995 4.29461 19.374C3.08513 17.9119 2.31661 16.1355 2.07879 14.2529C1.84105 12.3704 2.14396 10.4591 2.95183 8.74219C3.75976 7.02534 5.03925 5.57339 6.64129 4.55664C8.24342 3.5399 10.1022 3.00005 11.9997 3Z" fill="oklch(0.3523 0 0 / 1)" class="wd-icon-fill"></path>
<path d="M15.8444 8.61719C16.165 8.56394 16.4346 8.83371 16.3815 9.1543C16.1541 10.5232 15.4919 13.7509 14.1218 15.1211C12.9502 16.2925 11.0501 16.2925 9.87859 15.1211C8.70706 13.9496 8.70712 12.0495 9.87859 10.8779C11.2487 9.50797 14.4752 8.84462 15.8444 8.61719ZM11.9997 12C11.4475 12.0001 10.9997 12.4478 10.9997 13C10.9999 13.5521 11.4476 13.9999 11.9997 14C12.5519 14 12.9995 13.5521 12.9997 13C12.9997 12.4477 12.552 12 11.9997 12Z" fill="oklch(0.3523 0 0 / 1)" class="wd-icon-fill"></path>
</g>
</svg>