<svg width="24" height="24" viewBox="0 0 24 24" xmlns="http://www.w3.org/2000/svg" class="wd-icon wd-icon-line-chart-dashed" role="presentation">
<g>
<path d="M10 19C10.5523 19 11 19.4477 11 20C11 20.5523 10.5523 21 10 21H9C8.44772 21 8 20.5523 8 20C8 19.4477 8.44772 19 9 19H10Z" fill="oklch(0.3523 0 0 / 1)" class="wd-icon-fill"></path>
<path d="M15 19C15.5523 19 16 19.4477 16 20C16 20.5523 15.5523 21 15 21H14C13.4477 21 13 20.5523 13 20C13 19.4477 13.4477 19 14 19H15Z" fill="oklch(0.3523 0 0 / 1)" class="wd-icon-fill"></path>
<path d="M20 19C20.5523 19 21 19.4477 21 20C21 20.5523 20.5523 21 20 21H19C18.4477 21 18 20.5523 18 20C18 19.4477 18.4477 19 19 19H20Z" fill="oklch(0.3523 0 0 / 1)" class="wd-icon-fill"></path>
<path d="M3.76465 18.0176C4.25666 17.7669 4.85857 17.9622 5.10938 18.4541C5.20525 18.6422 5.35878 18.7958 5.54688 18.8916C6.03872 19.1424 6.23407 19.7443 5.9834 20.2363C5.73255 20.7281 5.1306 20.9234 4.63867 20.6729C4.07445 20.3853 3.61572 19.9265 3.32812 19.3623C3.07745 18.8703 3.27281 18.2684 3.76465 18.0176Z" fill="oklch(0.3523 0 0 / 1)" class="wd-icon-fill"></path>
<path d="M18.8379 7.79004C19.2301 7.40117 19.8641 7.40373 20.2529 7.7959C20.6416 8.18809 20.6382 8.82117 20.2461 9.20996L15.8369 13.583C15.1155 14.2981 13.9729 14.3582 13.1797 13.7236L9.57422 10.8398L4.70703 15.707C4.31651 16.0976 3.68349 16.0976 3.29297 15.707C2.90244 15.3165 2.90244 14.6835 3.29297 14.293L8.16016 9.42578C8.88071 8.7053 10.0275 8.64188 10.8232 9.27832L14.4287 12.1621L18.8379 7.79004Z" fill="oklch(0.3523 0 0 / 1)" class="wd-icon-fill"></path>
<path d="M4 8C4.55228 8 5 8.44772 5 9V10C5 10.5523 4.55228 11 4 11C3.44772 11 3 10.5523 3 10V9C3 8.44772 3.44772 8 4 8Z" fill="oklch(0.3523 0 0 / 1)" class="wd-icon-fill"></path>
<path d="M4 3C4.55228 3 5 3.44772 5 4V5C5 5.55228 4.55228 6 4 6C3.44772 6 3 5.55228 3 5V4C3 3.44772 3.44772 3 4 3Z" fill="oklch(0.3523 0 0 / 1)" class="wd-icon-fill"></path>
</g>
</svg>