<svg width="24" height="24" viewBox="0 0 24 24" xmlns="http://www.w3.org/2000/svg" class="wd-icon wd-icon-hourglass" role="presentation">
<path d="M17 5L16.9932 5.28809C16.9245 6.72723 16.3414 8.14379 15.2432 9.24219L13.8994 10.5859C13.1185 11.367 13.1185 12.633 13.8994 13.4141L15.2432 14.7578C16.4146 15.9294 16.9999 17.4631 17 19V20H7V19C7.00006 17.4631 7.5854 15.9294 8.75684 14.7578L10.1006 13.4141C10.8815 12.633 10.8815 11.367 10.1006 10.5859L8.75684 9.24219C7.65863 8.14379 7.0755 6.7272 7.00684 5.28809L7 5V4H17V5ZM12.7051 14.8438C12.3145 14.453 11.6816 14.453 11.291 14.8438L9.81641 16.3184C9.34712 16.7876 9.00363 17.3334 8.78516 17.916C8.57599 18.474 9.0477 19 9.64355 19H14.3525C14.9484 19 15.4201 18.474 15.2109 17.916C14.9925 17.3334 14.649 16.7876 14.1797 16.3184L12.7051 14.8438ZM9.86328 6C9.22187 6 8.74487 6.60483 9.05371 7.16699C9.2536 7.53077 9.5076 7.87283 9.81641 8.18164L11.291 9.65625C11.6816 10.047 12.3145 10.047 12.7051 9.65625L14.1797 8.18164C14.4885 7.87283 14.7425 7.53077 14.9424 7.16699C15.2512 6.60483 14.7742 6 14.1328 6H9.86328Z" fill="transparent" class="wd-icon-background"></path>
<g>
<path d="M11.291 14.8438C11.6816 14.453 12.3145 14.453 12.7051 14.8438L14.1797 16.3184C14.649 16.7876 14.9925 17.3334 15.2109 17.916C15.4201 18.474 14.9484 19 14.3525 19H9.64355C9.0477 19 8.57599 18.474 8.78516 17.916C9.00363 17.3334 9.34712 16.7876 9.81641 16.3184L11.291 14.8438Z" fill="oklch(0.3523 0 0 / 1)" class="wd-icon-fill"></path>
<path d="M14.1328 6C14.7742 6 15.2512 6.60483 14.9424 7.16699C14.7425 7.53077 14.4885 7.87283 14.1797 8.18164L12.7051 9.65625C12.3145 10.047 11.6816 10.047 11.291 9.65625L9.81641 8.18164C9.5076 7.87283 9.2536 7.53077 9.05371 7.16699C8.74487 6.60483 9.22187 6 9.86328 6H14.1328Z" fill="oklch(0.3523 0 0 / 1)" class="wd-icon-fill"></path>
<path d="M19 2C19.5523 2 20 2.44772 20 3C20 3.55228 19.5523 4 19 4V5C18.9999 7.04553 18.2189 9.09442 16.6572 10.6562L15.3135 12L16.6572 13.3438C18.2189 14.9056 18.9999 16.9545 19 19V20C19.5523 20 20 20.4477 20 21C20 21.5523 19.5523 22 19 22H5C4.44772 22 4 21.5523 4 21C4 20.4477 4.44772 20 5 20V19C5.00007 16.9545 5.78119 14.9056 7.34277 13.3438L8.68652 12L7.34277 10.6562C5.78119 9.09444 5.00007 7.04551 5 5V4C4.44772 4 4 3.55228 4 3C4 2.44772 4.44772 2 5 2H19ZM7 5L7.00684 5.28809C7.0755 6.7272 7.65863 8.14379 8.75684 9.24219L10.1006 10.5859C10.8815 11.367 10.8815 12.633 10.1006 13.4141L8.75684 14.7578C7.5854 15.9294 7.00006 17.4631 7 19V20H17V19C16.9999 17.4631 16.4146 15.9294 15.2432 14.7578L13.8994 13.4141C13.1185 12.633 13.1185 11.367 13.8994 10.5859L15.2432 9.24219C16.3414 8.14379 16.9245 6.72723 16.9932 5.28809L17 5V4H7V5Z" fill="oklch(0.3523 0 0 / 1)" class="wd-icon-fill"></path>
</g>
</svg>