<svg width="24" height="24" viewBox="0 0 24 24" xmlns="http://www.w3.org/2000/svg" class="wd-icon wd-icon-inbox-fill" role="presentation">
<path d="M14.0997 4.0001C14.9217 4.0001 15.5286 3.99063 16.0987 4.15342C16.5755 4.28962 17.0229 4.51381 17.418 4.81358C17.8903 5.17195 18.2471 5.66285 18.7403 6.32042L20.8399 9.12022C21.1732 9.5647 21.4223 9.89016 21.6006 10.2589C21.7502 10.5682 21.8599 10.8953 21.9258 11.2325C22.0044 11.6344 22 12.0443 22 12.5997V14.2003C22 15.0237 22.0011 15.7017 21.9561 16.2521C21.9102 16.8141 21.8117 17.3312 21.5645 17.8165C21.181 18.569 20.569 19.1811 19.8165 19.5646C19.3311 19.8118 18.8141 19.9102 18.252 19.9562C17.7016 20.0011 17.0237 20.0001 16.2002 20.0001H7.79985C6.97638 20.0001 6.29846 20.0011 5.74809 19.9562C5.18605 19.9102 4.66893 19.8118 4.18364 19.5646C3.43117 19.1811 2.81905 18.569 2.43559 17.8165C2.18835 17.3312 2.08991 16.8141 2.04399 16.2521C1.99903 15.7017 2.00004 15.0237 2.00004 14.2003V12.5997C2.00004 12.0443 1.9957 11.6344 2.07426 11.2325C2.1402 10.8953 2.24988 10.5682 2.39946 10.2589C2.5778 9.89015 2.82683 9.56471 3.1602 9.12022L5.25981 6.32042C5.753 5.66283 6.10979 5.17196 6.58208 4.81358C6.97716 4.51379 7.42453 4.28963 7.90141 4.15342C8.4715 3.99061 9.07842 4.0001 9.90043 4.0001H14.0997ZM9.90043 6.0001C8.96291 6.0001 8.68874 6.00948 8.45122 6.07725C8.21277 6.14535 7.98861 6.25744 7.79106 6.40733C7.59437 6.55665 7.42263 6.77 6.8604 7.51963L5.00004 10.0001H8.00004C9.1523 10.0001 9.85621 10.9235 10.1094 11.6544C10.381 12.4388 11.1263 13.0001 12 13.0001C12.8738 13.0001 13.6191 12.4388 13.8907 11.6544C14.1439 10.9235 14.8478 10.0001 16 10.0001H19L17.1397 7.51963C16.5775 6.77004 16.4057 6.55665 16.209 6.40733C16.0115 6.25746 15.7873 6.14534 15.5489 6.07725C15.3114 6.00949 15.0371 6.0001 14.0997 6.0001H9.90043Z" fill="oklch(0.3523 0 0 / 1)" class="wd-icon-fill"></path>
</svg>