<svg width="24" height="24" viewBox="0 0 24 24" xmlns="http://www.w3.org/2000/svg" class="wd-icon wd-icon-slider" role="presentation">
<path d="M18.5 7C19.3284 7 20 7.67157 20 8.5V10.9951H22.5049C22.781 10.9951 23.0049 11.219 23.0049 11.4951V12.4951C23.0049 12.7713 22.781 12.9951 22.5049 12.9951H20V15.5C20 16.3284 19.3284 17 18.5 17H15.5C14.6716 17 14 16.3284 14 15.5V12.9951H1.50488C1.22874 12.9951 1.00488 12.7713 1.00488 12.4951V11.4951C1.00488 11.219 1.22874 10.9951 1.50488 10.9951H14V8.5C14 7.67157 14.6716 7 15.5 7H18.5ZM16 15H18V9H16V15Z" fill="oklch(0.3523 0 0 / 1)" class="wd-icon-fill"></path>
</svg>