<svg width="24" height="24" viewBox="0 0 24 24" xmlns="http://www.w3.org/2000/svg" class="wd-icon wd-icon-bar-horizontal-chart" role="presentation">
<g>
<path d="M11 16C12.1046 16 13 16.8954 13 18V19C13 20.1046 12.1046 21 11 21H5C3.89543 21 3 20.1046 3 19V18C3 16.8954 3.89543 16 5 16H11ZM5 19H11V18H5V19Z" fill="oklch(0.3523 0 0 / 1)" class="wd-icon-fill"></path>
<path d="M19 9.5C20.1046 9.5 21 10.3954 21 11.5V12.5C21 13.6046 20.1046 14.5 19 14.5H5C3.89543 14.5 3 13.6046 3 12.5V11.5C3 10.3954 3.89543 9.5 5 9.5H19ZM5 12.5H19V11.5H5V12.5Z" fill="oklch(0.3523 0 0 / 1)" class="wd-icon-fill"></path>
<path d="M15 3C16.1046 3 17 3.89543 17 5V6C17 7.10457 16.1046 8 15 8H5C3.89543 8 3 7.10457 3 6V5C3 3.89543 3.89543 3 5 3H15ZM5 5V6H15V5H5Z" fill="oklch(0.3523 0 0 / 1)" class="wd-icon-fill"></path>
</g>
<g>
<path d="M11 19H5V18H11V19Z" fill="oklch(0.3523 0 0 / 1)" class="wd-icon-accent"></path>
<path d="M19 12.5H5V11.5H19V12.5Z" fill="oklch(0.3523 0 0 / 1)" class="wd-icon-accent"></path>
</g>
</svg>