<svg width="24" height="24" viewBox="0 0 24 24" xmlns="http://www.w3.org/2000/svg" class="wd-icon wd-icon-formula-loop" role="presentation">
<g>
<path d="M13.0674 14.6221C13.2654 14.3258 13.7015 14.3258 13.8994 14.6221L15.6309 17.2207C15.8523 17.553 15.6142 17.998 15.2148 17.998H14.2793C14.325 18.246 14.4035 18.4882 14.5156 18.7158C14.7021 19.0939 14.9742 19.4249 15.3086 19.6816C15.643 19.9382 16.0329 20.1149 16.4463 20.1973C16.8597 20.2794 17.2872 20.2653 17.6943 20.1562C18.0941 20.0492 18.5048 20.2869 18.6123 20.6865C18.7194 21.0866 18.4821 21.4983 18.082 21.6055C17.4526 21.774 16.7924 21.7951 16.1533 21.668C15.5143 21.5408 14.9124 21.2686 14.3955 20.8721C13.8786 20.4753 13.4591 19.9643 13.1709 19.3799C12.9566 18.9451 12.8193 18.4771 12.7627 17.998H11.75C11.3511 17.9976 11.1127 17.5528 11.334 17.2207L13.0674 14.6221Z" fill="oklch(0.3523 0 0 / 1)" class="wd-icon-fill"></path>
<path d="M15.5674 13.4033C16.2339 13.2247 16.9336 13.2024 17.6104 13.3369C18.287 13.4715 18.9243 13.7598 19.4717 14.1797C20.0191 14.5998 20.4633 15.1409 20.7686 15.7598C20.9619 16.152 21.0963 16.5695 21.1689 16.998H22.2148C22.6141 16.998 22.8522 17.4431 22.6309 17.7754L20.8984 20.374C20.7005 20.6708 20.2643 20.6709 20.0664 20.374L18.335 17.7754C18.1141 17.4432 18.352 16.9983 18.751 16.998H19.6357C19.5845 16.8004 19.5137 16.6071 19.4229 16.4229C19.2193 16.0105 18.9234 15.6501 18.5586 15.3701C18.1936 15.0902 17.7685 14.8973 17.3174 14.8076C16.8664 14.7181 16.4002 14.7335 15.9561 14.8525C15.5562 14.9594 15.1444 14.722 15.0371 14.3223C14.9303 13.9226 15.1679 13.5108 15.5674 13.4033Z" fill="oklch(0.3523 0 0 / 1)" class="wd-icon-fill"></path>
<path d="M6.4082 2.99805C6.82242 2.99805 7.1582 3.33481 7.1582 3.74902C7.15794 4.16301 6.82225 4.49902 6.4082 4.49902C5.98794 4.49909 5.76566 4.60686 5.6377 4.72754L5.62793 4.7373L5.62695 4.73633C5.48095 4.86942 5.32251 5.1302 5.22363 5.62109L5.2207 5.63281L5.13965 6H5.80664C6.22077 6.0001 6.55664 6.33585 6.55664 6.75C6.55664 7.16415 6.22077 7.4999 5.80664 7.5H4.82227L3.58398 13.4033C3.4986 13.8084 3.10049 14.0685 2.69531 13.9834C2.29022 13.8982 2.03045 13.4999 2.11523 13.0947L3.29004 7.5H2.68066C2.26648 7.49997 1.93066 7.16419 1.93066 6.75C1.93066 6.33581 2.26648 6.00003 2.68066 6H3.60449L3.6084 5.9834L3.61035 5.97754L3.75586 5.3125C3.89213 4.64462 4.1555 4.04798 4.61816 3.62695C5.1009 3.17697 5.73159 2.99811 6.4082 2.99805Z" fill="oklch(0.3523 0 0 / 1)" class="wd-icon-fill"></path>
<path d="M8.01562 6.07324C8.38946 5.89522 8.83644 6.05395 9.01465 6.42773L10.0938 8.69336L12.1143 6.26953C12.3795 5.9515 12.8528 5.90871 13.1709 6.17383C13.4889 6.439 13.5316 6.91233 13.2666 7.23047L10.8574 10.1211L10.9297 10.2549L10.9512 10.2979L12.166 12.9365C12.3391 13.3127 12.1749 13.7584 11.7988 13.9316C11.4226 14.1048 10.977 13.9397 10.8037 13.5635L9.66211 11.0869L7.46875 13.7295C7.20418 14.0479 6.73074 14.0915 6.41211 13.8271C6.09361 13.5625 6.04995 13.0891 6.31445 12.7705L8.90039 9.6543L8.8291 9.52148C8.82324 9.51061 8.81782 9.49943 8.8125 9.48828L7.66113 7.07227C7.48316 6.69846 7.6419 6.25146 8.01562 6.07324Z" fill="oklch(0.3523 0 0 / 1)" class="wd-icon-fill"></path>
</g>
</svg>