<svg width="24" height="24" viewBox="0 0 24 24" xmlns="http://www.w3.org/2000/svg" class="wd-icon wd-icon-screen-reader" role="presentation">
<g>
<path d="M15.3091 9.80469C15.6441 9.56151 16.1135 9.63587 16.3569 9.9707C17.1013 10.9956 17.5024 12.2304 17.5024 13.4971C17.5024 14.7638 17.1014 15.9985 16.3569 17.0234C16.1136 17.3584 15.6442 17.4326 15.3091 17.1895C14.9743 16.946 14.8999 16.4776 15.1431 16.1426C15.7015 15.3738 16.0024 14.4472 16.0024 13.4971C16.0024 12.547 15.7015 11.6203 15.1431 10.8516C14.9001 10.5165 14.9742 10.048 15.3091 9.80469Z" fill="oklch(0.3523 0 0 / 1)" class="wd-icon-fill"></path>
<path d="M10.9624 10.6113C11.235 10.6011 11.4985 10.7029 11.6929 10.8896L11.772 10.9746L11.8257 11.0488C11.9398 11.2265 11.9702 11.4288 11.9839 11.5811C12.0006 11.7672 11.9995 12.0062 11.9995 12.2783V14.7197C11.9995 14.9918 12.0006 15.2308 11.9839 15.417C11.9682 15.5909 11.9313 15.8299 11.772 16.0234C11.5737 16.2641 11.274 16.3984 10.9624 16.3867C10.7119 16.3773 10.5091 16.2464 10.3687 16.1426C10.2184 16.0314 10.0398 15.8722 9.83643 15.6914L9.05713 14.999H8.49951C8.03404 14.999 7.80133 14.9989 7.61768 14.9229C7.37254 14.8214 7.17718 14.627 7.07569 14.3818C6.99963 14.1981 7.00049 13.9648 7.00049 13.499C7.00049 13.0337 6.99977 12.8008 7.07569 12.6172C7.17718 12.3721 7.37254 12.1767 7.61768 12.0752C7.8013 11.9993 8.03423 12 8.49951 12H9.05615L9.83643 11.3066C10.04 11.1257 10.2183 10.9667 10.3687 10.8555C10.5091 10.7516 10.7119 10.6208 10.9624 10.6113Z" fill="oklch(0.3523 0 0 / 1)" class="wd-icon-fill"></path>
<path d="M13.2886 11.2744C13.6236 11.0316 14.0931 11.1057 14.3364 11.4404C14.7707 12.0383 15.0044 12.7591 15.0044 13.498C15.0044 14.237 14.7707 14.9578 14.3364 15.5557C14.0931 15.8905 13.6236 15.9645 13.2886 15.7217C12.9537 15.4782 12.8792 15.0089 13.1226 14.6738C13.3707 14.3322 13.5044 13.9203 13.5044 13.498C13.5044 13.0759 13.3706 12.6638 13.1226 12.3223C12.8794 11.9872 12.9536 11.5178 13.2886 11.2744Z" fill="oklch(0.3523 0 0 / 1)" class="wd-icon-fill"></path>
<path d="M16.7144 4C17.7634 4 18.3536 3.99894 18.8071 4.11231C19.1601 4.17348 19.4956 4.27186 19.8169 4.43555C20.5692 4.81903 21.1815 5.43123 21.5649 6.18359C21.812 6.66876 21.9106 7.18617 21.9565 7.74805C22.0015 8.29834 22.0005 8.97655 22.0005 9.79981V14.2002C22.0005 15.0235 22.0015 15.7017 21.9565 16.252C21.9106 16.8139 21.8122 17.3312 21.5649 17.8164C21.1815 18.5688 20.5693 19.181 19.8169 19.5645C19.3317 19.8117 18.8144 19.9101 18.2524 19.9561C17.7021 20.001 17.024 20 16.2007 20H7.80029C6.97697 20 6.29886 20.001 5.74854 19.9561C5.18664 19.9101 4.66927 19.8116 4.18408 19.5645C3.43174 19.1811 2.81952 18.5687 2.43604 17.8164C2.18883 17.3312 2.09038 16.8138 2.04444 16.252C1.99948 15.7017 2.00049 15.0235 2.00049 14.2002V9.79981C2.00049 8.97652 1.9995 8.29835 2.04444 7.74805C2.09036 7.18608 2.18885 6.66883 2.43604 6.18359C2.81951 5.43109 3.43158 4.81902 4.18408 4.43555C4.50514 4.27197 4.84017 4.17349 5.19287 4.11231C5.64652 3.99874 6.23687 4 7.28662 4H16.7144ZM4.00049 9.79981V14.2002C4.00049 15.0563 4.00085 15.6389 4.0376 16.0889C4.07343 16.527 4.1386 16.7519 4.21826 16.9082C4.41001 17.2842 4.71619 17.5906 5.09229 17.7822C5.24867 17.8618 5.4736 17.9271 5.91162 17.9629C6.36161 17.9996 6.94412 18 7.80029 18H16.2007C17.0569 18 17.6394 17.9996 18.0894 17.9629C18.5276 17.9271 18.7523 17.8619 18.9087 17.7822C19.2848 17.5905 19.591 17.2843 19.7827 16.9082C19.8624 16.7519 19.9276 16.527 19.9634 16.0889C20.0001 15.6389 20.0005 15.0563 20.0005 14.2002V9.79981C20.0005 9.50223 19.9982 9.23733 19.9966 9H4.0044C4.0028 9.23733 4.00049 9.50223 4.00049 9.79981ZM5.50049 6C5.22435 6 5.00049 6.22386 5.00049 6.5C5.00072 6.77594 5.22449 7 5.50049 7H6.50049C6.77636 6.99984 7.00026 6.77585 7.00049 6.5C7.00049 6.22396 6.7765 6.00016 6.50049 6H5.50049ZM8.50049 6C8.22435 6 8.00049 6.22386 8.00049 6.5C8.00072 6.77594 8.22449 7 8.50049 7H9.50049C9.77636 6.99984 10.0003 6.77585 10.0005 6.5C10.0005 6.22396 9.7765 6.00016 9.50049 6H8.50049ZM11.5005 6C11.2243 6 11.0005 6.22386 11.0005 6.5C11.0007 6.77594 11.2245 7 11.5005 7H12.5005C12.7764 6.99984 13.0003 6.77585 13.0005 6.5C13.0005 6.22396 12.7765 6.00016 12.5005 6H11.5005Z" fill="oklch(0.3523 0 0 / 1)" class="wd-icon-fill"></path>
</g>
</svg>