<svg width="24" height="24" viewBox="0 0 24 24" xmlns="http://www.w3.org/2000/svg" class="wd-icon wd-icon-lock-open" role="presentation">
<path d="M14.7979 11C15.3744 11 15.7469 11.0013 16.0303 11.0244C16.3019 11.0466 16.4027 11.0842 16.4521 11.1094C16.6401 11.2052 16.7928 11.3579 16.8887 11.5459C16.9139 11.5953 16.9514 11.6962 16.9736 11.9678C16.9968 12.2511 16.998 12.6236 16.998 13.2002V16.7998C16.998 17.3764 16.9968 17.7489 16.9736 18.0322C16.9514 18.3038 16.9139 18.4047 16.8887 18.4541C16.7928 18.6421 16.6401 18.7948 16.4521 18.8906C16.4027 18.9158 16.3019 18.9534 16.0303 18.9756C15.7469 18.9987 15.3744 19 14.7979 19H9.19824C8.62169 19 8.24916 18.9987 7.96582 18.9756C7.69423 18.9534 7.59338 18.9158 7.54395 18.8906C7.35598 18.7948 7.20326 18.6421 7.10742 18.4541C7.08223 18.4047 7.04466 18.3038 7.02246 18.0322C6.99931 17.7489 6.99805 17.3764 6.99805 16.7998V13.2002C6.99805 12.6236 6.99931 12.2511 7.02246 11.9678C7.04466 11.6962 7.08223 11.5953 7.10742 11.5459C7.20326 11.3579 7.35598 11.2052 7.54395 11.1094C7.59338 11.0842 7.69423 11.0466 7.96582 11.0244C8.24916 11.0013 8.62169 11 9.19824 11H14.7979Z" fill="transparent" class="wd-icon-background"></path>
<path d="M11.9981 2C14.038 2 15.7585 3.35674 16.3115 5.21484C16.469 5.74402 16.1677 6.30031 15.6387 6.45801C15.1093 6.61555 14.5521 6.3145 14.3945 5.78516C14.0869 4.75183 13.129 4 11.9981 4C10.6173 4 9.49805 5.11929 9.49805 6.5V9H14.7979C15.3414 9 15.8097 8.99893 16.1934 9.03027C16.5886 9.06258 16.9821 9.1344 17.3604 9.32715C17.9246 9.61472 18.3833 10.0735 18.6709 10.6377C18.8637 11.016 18.9355 11.4094 18.9678 11.8047C18.9991 12.1884 18.9981 12.6566 18.9981 13.2002V16.7998C18.9981 17.3434 18.9991 17.8116 18.9678 18.1953C18.9355 18.5906 18.8637 18.984 18.6709 19.3623C18.3833 19.9265 17.9246 20.3853 17.3604 20.6729C16.9821 20.8656 16.5886 20.9374 16.1934 20.9697C15.8097 21.0011 15.3414 21 14.7979 21H9.19825C8.6547 21 8.18641 21.0011 7.80274 20.9697C7.40748 20.9374 7.01404 20.8656 6.63575 20.6729C6.07152 20.3853 5.61277 19.9265 5.3252 19.3623C5.13245 18.984 5.06064 18.5906 5.02832 18.1953C4.99698 17.8116 4.99805 17.3434 4.99805 16.7998V13.2002C4.99805 12.6566 4.99698 12.1884 5.02832 11.8047C5.06064 11.4094 5.13245 11.016 5.3252 10.6377C5.61277 10.0735 6.07152 9.61472 6.63575 9.32715C6.91665 9.18402 7.2059 9.10756 7.49805 9.06445V6.5C7.49805 4.01472 9.51277 2 11.9981 2ZM9.19825 11C8.62169 11 8.24916 11.0013 7.96582 11.0244C7.69424 11.0466 7.59339 11.0842 7.54395 11.1094C7.35598 11.2052 7.20327 11.3579 7.10743 11.5459C7.08224 11.5953 7.04466 11.6962 7.02247 11.9678C6.99932 12.2511 6.99805 12.6236 6.99805 13.2002V16.7998C6.99805 17.3764 6.99932 17.7489 7.02247 18.0322C7.04466 18.3038 7.08224 18.4047 7.10743 18.4541C7.20327 18.6421 7.35598 18.7948 7.54395 18.8906C7.59339 18.9158 7.69424 18.9534 7.96582 18.9756C8.24916 18.9987 8.62169 19 9.19825 19H14.7979C15.3744 19 15.7469 18.9987 16.0303 18.9756C16.3019 18.9534 16.4027 18.9158 16.4522 18.8906C16.6401 18.7948 16.7928 18.6421 16.8887 18.4541C16.9139 18.4047 16.9514 18.3038 16.9736 18.0322C16.9968 17.7489 16.9981 17.3764 16.9981 16.7998V13.2002C16.9981 12.6236 16.9968 12.2511 16.9736 11.9678C16.9514 11.6962 16.9139 11.5953 16.8887 11.5459C16.7928 11.3579 16.6401 11.2052 16.4522 11.1094C16.4027 11.0842 16.3019 11.0466 16.0303 11.0244C15.7469 11.0013 15.3744 11 14.7979 11H9.19825Z" fill="oklch(0.3523 0 0 / 1)" class="wd-icon-fill"></path>
</svg>