<svg width="24" height="24" viewBox="0 0 24 24" xmlns="http://www.w3.org/2000/svg" class="wd-icon wd-icon-text-area" role="presentation">
<path d="M3 6.5C3 6.22386 3.22386 6 3.5 6H20.5C20.7761 6 21 6.22386 21 6.5V17.5C21 17.7761 20.7761 18 20.5 18H3.5C3.22386 18 3 17.7761 3 17.5V6.5Z" fill="transparent" class="wd-icon-background"></path>
<path d="M20.5 5C21.3284 5 22 5.67157 22 6.5V17.5C22 18.3284 21.3284 19 20.5 19H3.5C2.67157 19 2 18.3284 2 17.5V6.5C2 5.67157 2.67157 5 3.5 5H20.5ZM4 17H20V7H4V17Z" fill="oklch(0.3523 0 0 / 1)" class="wd-icon-fill"></path>
<g>
<path d="M14.5 13C14.7761 13 15 13.2239 15 13.5V14.5C15 14.7761 14.7761 15 14.5 15H6.5C6.22386 15 6 14.7761 6 14.5V13.5C6 13.2239 6.22386 13 6.5 13H14.5Z" fill="oklch(0.3523 0 0 / 1)" class="wd-icon-accent"></path>
<path d="M17.5 9C17.7761 9 18 9.22386 18 9.5V10.5C18 10.7761 17.7761 11 17.5 11H6.5C6.22386 11 6 10.7761 6 10.5V9.5C6 9.22386 6.22386 9 6.5 9H17.5Z" fill="oklch(0.3523 0 0 / 1)" class="wd-icon-accent"></path>
</g>
</svg>