<svg width="24" height="24" viewBox="0 0 24 24" xmlns="http://www.w3.org/2000/svg" class="wd-icon wd-icon-formula-edit" role="presentation">
<g>
<path d="M6.4082 2.99805C6.82242 2.99805 7.1582 3.33481 7.1582 3.74902C7.15794 4.16301 6.82225 4.49902 6.4082 4.49902C5.98794 4.49909 5.76566 4.60686 5.6377 4.72754L5.62793 4.7373L5.62695 4.73633C5.48095 4.86942 5.32251 5.1302 5.22363 5.62109L5.2207 5.63281L5.13965 6H5.80664C6.22077 6.0001 6.55664 6.33585 6.55664 6.75C6.55664 7.16415 6.22077 7.4999 5.80664 7.5H4.82227L3.58398 13.4033C3.4986 13.8084 3.10049 14.0685 2.69531 13.9834C2.29022 13.8982 2.03045 13.4999 2.11523 13.0947L3.29004 7.5H2.68066C2.26648 7.49997 1.93066 7.16419 1.93066 6.75C1.93066 6.33581 2.26648 6.00003 2.68066 6H3.60449L3.6084 5.9834L3.61035 5.97754L3.75586 5.3125C3.89213 4.64462 4.1555 4.04798 4.61816 3.62695C5.1009 3.17697 5.73159 2.99811 6.4082 2.99805Z" fill="oklch(0.3523 0 0 / 1)" class="wd-icon-fill"></path>
<path d="M8.01562 6.07324C8.38946 5.89522 8.83644 6.05395 9.01465 6.42773L10.0938 8.69336L12.1143 6.26953C12.3795 5.9515 12.8528 5.90871 13.1709 6.17383C13.4889 6.439 13.5316 6.91233 13.2666 7.23047L10.8574 10.1211L10.9297 10.2549L10.9512 10.2979L12.166 12.9365C12.3391 13.3127 12.1749 13.7584 11.7988 13.9316C11.4226 14.1048 10.977 13.9397 10.8037 13.5635L9.66211 11.0869L7.46875 13.7295C7.20418 14.0479 6.73074 14.0915 6.41211 13.8271C6.09361 13.5625 6.04995 13.0891 6.31445 12.7705L8.90039 9.6543L8.8291 9.52148C8.82324 9.51061 8.81782 9.49943 8.8125 9.48828L7.66113 7.07227C7.48316 6.69846 7.6419 6.25146 8.01562 6.07324Z" fill="oklch(0.3523 0 0 / 1)" class="wd-icon-fill"></path>
</g>
<path d="M17.0143 11.165C18.069 10.1103 19.7797 10.1105 20.8346 11.165C21.8893 12.2198 21.8894 13.9305 20.8346 14.9853L15.4508 20.3691C15.3129 20.507 15.1829 20.6408 15.0289 20.749C14.9031 20.8374 14.7664 20.9104 14.6237 20.9677C14.449 21.0378 14.2666 21.0738 14.0758 21.1142L11.1559 21.7343C10.9077 21.7868 10.6487 21.7096 10.4694 21.5302C10.2902 21.3509 10.2138 21.0927 10.2662 20.8447L10.8844 17.9238C10.9248 17.733 10.9618 17.5506 11.0319 17.3759C11.0892 17.2332 11.1632 17.0975 11.2516 16.9716C11.3597 16.8177 11.4926 16.6876 11.6305 16.5498L17.0143 11.165ZM19.7741 12.2255C19.305 11.7568 18.5438 11.7566 18.0748 12.2255L12.691 17.6103C12.6022 17.6992 12.5522 17.7492 12.5231 17.7802L14.2184 19.4765C14.2495 19.4475 14.3008 19.3981 14.3903 19.3086L19.7741 13.9248C20.2431 13.4558 20.243 12.6946 19.7741 12.2255Z" fill="oklch(0.3523 0 0 / 1)" class="wd-icon-accent"></path>
</svg>