<svg width="24" height="24" viewBox="0 0 24 24" xmlns="http://www.w3.org/2000/svg" class="wd-icon wd-icon-bar-line-chart" role="presentation">
<path d="M11.9999 10C12.5522 10 12.9999 10.4477 12.9999 11V13H14.9999C14.9999 12.4478 15.4477 12.0002 15.9999 12H19.9999C20.5522 12 20.9999 12.4477 20.9999 13V20C20.9998 20.5522 20.5521 21 19.9999 21H3.99988C3.44777 20.9998 2.99994 20.5521 2.99988 20V14C2.99988 13.4478 3.44773 13.0002 3.99988 13H6.99988V11C6.99988 10.4478 7.44773 10.0002 7.99988 10H11.9999ZM4.99988 19H6.99988V15H4.99988V19ZM8.99988 19H10.9999V12H8.99988V19ZM12.9999 19H14.9999V15H12.9999V19ZM16.9999 19H18.9999V14H16.9999V19Z" fill="oklch(0.3523 0 0 / 1)" class="wd-icon-fill"></path>
<path d="M9.49531 2.13709C9.88408 1.90944 10.3832 1.96955 10.7072 2.29334L15.1271 6.71326L16.4103 5.85682L16.4133 5.85584L20.0295 3.44471C20.2592 3.29153 20.5706 3.35366 20.7238 3.58338L21.2775 4.41541C21.4306 4.645 21.3692 4.95547 21.1398 5.10877L18.5539 6.83143L18.5549 6.8324L15.5549 8.8324C15.1584 9.09666 14.6302 9.04422 14.2932 8.7074L9.89179 4.30604L8.43574 5.3451L8.43379 5.34803L3.98847 8.52283C3.76377 8.68336 3.45172 8.63134 3.29121 8.40662L2.71015 7.59412C2.54972 7.36951 2.6019 7.05742 2.82636 6.89686L9.41914 2.1869L9.49531 2.13709Z" fill="oklch(0.3523 0 0 / 1)" class="wd-icon-accent"></path>
</svg>