<svg width="24" height="24" viewBox="0 0 24 24" xmlns="http://www.w3.org/2000/svg" class="wd-icon wd-icon-word" role="presentation">
<g>
<path d="M15.2001 1C16.0235 1 16.7015 0.998993 17.2518 1.04395C17.8139 1.08987 18.331 1.18829 18.8163 1.43555C19.5688 1.81899 20.1809 2.43111 20.5643 3.1836C20.8116 3.66888 20.91 4.18602 20.9559 4.74805C21.0009 5.29843 20.9999 5.97632 20.9999 6.79981V17.2002C20.9999 18.0237 21.0009 18.7016 20.9559 19.252C20.91 19.814 20.8116 20.3311 20.5643 20.8164C20.1809 21.5689 19.5688 22.181 18.8163 22.5645C18.331 22.8117 17.8138 22.9101 17.2518 22.9561C16.7015 23.001 16.0235 23 15.2001 23H10.8007C9.97732 23 9.29925 23.001 8.74891 22.9561C8.18692 22.9101 7.66971 22.8116 7.18446 22.5645C6.43195 22.181 5.81992 21.5689 5.43641 20.8164C5.16251 20.2789 5.07012 19.699 5.03114 19.0605C4.9977 18.5095 5.41751 18.0356 5.96864 18.002C6.51968 17.9686 6.99358 18.3884 7.02723 18.9395C7.0601 19.4773 7.12951 19.7333 7.21864 19.9082C7.41039 20.2844 7.71644 20.5905 8.09266 20.7822C8.249 20.8618 8.4732 20.9271 8.91102 20.9629C9.36109 20.9997 9.94416 21 10.8007 21H15.2001C16.0566 21 16.6397 20.9997 17.0897 20.9629C17.5276 20.9271 17.7517 20.8619 17.9081 20.7822C18.2843 20.5905 18.5904 20.2844 18.7821 19.9082C18.8618 19.7518 18.927 19.5272 18.9628 19.0889C18.9995 18.6388 18.9999 18.0566 18.9999 17.2002V6.79981C18.9999 5.94341 18.9995 5.36117 18.9628 4.91113C18.927 4.47276 18.8618 4.2482 18.7821 4.0918C18.5904 3.7156 18.2843 3.40949 17.9081 3.21778C17.7517 3.13813 17.527 3.07292 17.0888 3.03711C16.6387 3.00037 16.0563 3 15.2001 3H10.8007C9.94416 3 9.36109 3.00035 8.91102 3.03711C8.4732 3.07291 8.249 3.13819 8.09266 3.21778C7.71644 3.40947 7.41039 3.71562 7.21864 4.0918C7.12951 4.26672 7.0601 4.52268 7.02723 5.06055C6.99358 5.61164 6.51968 6.03142 5.96864 5.99805C5.41751 5.9644 4.9977 5.49055 5.03114 4.93946C5.07012 4.30097 5.16251 3.72115 5.43641 3.1836C5.81992 2.43114 6.43195 1.81897 7.18446 1.43555C7.66971 1.18836 8.18692 1.08986 8.74891 1.04395C9.29925 0.999014 9.97732 1 10.8007 1H15.2001Z" fill="oklch(0.3523 0 0 / 1)" class="wd-icon-fill"></path>
<path d="M11.0233 7.78613C11.1415 7.24676 11.6743 6.90544 12.2138 7.02344C12.7531 7.14161 13.0944 7.67446 12.9764 8.21387L11.2264 16.2139C11.1259 16.6728 10.7197 16.9999 10.2499 17H9.62489C9.16328 17 8.76188 16.684 8.65321 16.2354L7.49989 11.4678L6.34657 16.2354C6.23792 16.6839 5.83646 17 5.37489 17H4.74989C4.28003 17 3.87384 16.6728 3.77332 16.2139L2.02332 8.21387C1.90532 7.67442 2.24663 7.14156 2.78602 7.02344C3.32543 6.9055 3.85833 7.24678 3.97645 7.78613L5.09559 12.9023L6.27821 8.01465L6.33192 7.85352C6.48779 7.49223 6.84579 7.25 7.24989 7.25H7.74989C8.21146 7.25005 8.61292 7.56606 8.72157 8.01465L9.90321 12.9023L11.0233 7.78613Z" fill="oklch(0.3523 0 0 / 1)" class="wd-icon-fill"></path>
<path d="M17.2499 15.25C17.664 15.2501 17.9999 15.5858 17.9999 16C17.9999 16.4142 17.664 16.7499 17.2499 16.75H14.2499C13.8357 16.75 13.4999 16.4142 13.4999 16C13.4999 15.5858 13.8357 15.25 14.2499 15.25H17.2499Z" fill="oklch(0.3523 0 0 / 1)" class="wd-icon-fill"></path>
<path d="M17.2499 12.25C17.664 12.2501 17.9999 12.5858 17.9999 13C17.9999 13.4142 17.664 13.7499 17.2499 13.75H14.7499C14.3357 13.75 13.9999 13.4142 13.9999 13C13.9999 12.5858 14.3357 12.25 14.7499 12.25H17.2499Z" fill="oklch(0.3523 0 0 / 1)" class="wd-icon-fill"></path>
<path d="M17.2499 9.25C17.664 9.25006 17.9999 9.58583 17.9999 10C17.9999 10.4142 17.664 10.7499 17.2499 10.75H15.2499C14.8357 10.75 14.4999 10.4142 14.4999 10C14.4999 9.58579 14.8357 9.25 15.2499 9.25H17.2499Z" fill="oklch(0.3523 0 0 / 1)" class="wd-icon-fill"></path>
<path d="M17.2499 6.25C17.664 6.25006 17.9999 6.58583 17.9999 7C17.9999 7.41418 17.664 7.74994 17.2499 7.75H15.7499C15.3357 7.75 14.9999 7.41422 14.9999 7C14.9999 6.58579 15.3357 6.25 15.7499 6.25H17.2499Z" fill="oklch(0.3523 0 0 / 1)" class="wd-icon-fill"></path>
</g>
</svg>