<svg width="24" height="24" viewBox="0 0 24 24" xmlns="http://www.w3.org/2000/svg" class="wd-icon wd-icon-pill" role="presentation">
<g>
<path d="M7.5 14C8.88071 14 10 15.1193 10 16.5C10 17.8807 8.88071 19 7.5 19H4.5C3.11929 19 2 17.8807 2 16.5C2 15.1193 3.11929 14 4.5 14H7.5Z" fill="oklch(0.3523 0 0 / 1)" class="wd-icon-accent"></path>
<path d="M19.5 5C20.8807 5 22 6.11929 22 7.5C22 8.88071 20.8807 10 19.5 10H16.5C15.1193 10 14 8.88071 14 7.5C14 6.11929 15.1193 5 16.5 5H19.5Z" fill="oklch(0.3523 0 0 / 1)" class="wd-icon-accent"></path>
</g>
<g>
<path d="M7.5 13C9.433 13 11 14.567 11 16.5C11 18.433 9.433 20 7.5 20H4.5C2.567 20 1 18.433 1 16.5C1 14.567 2.567 13 4.5 13H7.5ZM4.5 15C3.67157 15 3 15.6716 3 16.5C3 17.3284 3.67157 18 4.5 18H7.5C8.32843 18 9 17.3284 9 16.5C9 15.6716 8.32843 15 7.5 15H4.5Z" fill="oklch(0.3523 0 0 / 1)" class="wd-icon-fill"></path>
<path d="M19.5 13C21.433 13 23 14.567 23 16.5C23 18.433 21.433 20 19.5 20H16.5C14.567 20 13 18.433 13 16.5C13 14.567 14.567 13 16.5 13H19.5ZM16.5 15C15.6716 15 15 15.6716 15 16.5C15 17.3284 15.6716 18 16.5 18H19.5C20.3284 18 21 17.3284 21 16.5C21 15.6716 20.3284 15 19.5 15H16.5Z" fill="oklch(0.3523 0 0 / 1)" class="wd-icon-fill"></path>
<path d="M7.5 4C9.433 4 11 5.567 11 7.5C11 9.433 9.433 11 7.5 11H4.5C2.567 11 1 9.433 1 7.5C1 5.567 2.567 4 4.5 4H7.5ZM4.5 6C3.67157 6 3 6.67157 3 7.5C3 8.32843 3.67157 9 4.5 9H7.5C8.32843 9 9 8.32843 9 7.5C9 6.67157 8.32843 6 7.5 6H4.5Z" fill="oklch(0.3523 0 0 / 1)" class="wd-icon-fill"></path>
<path d="M19.5 4C21.433 4 23 5.567 23 7.5C23 9.433 21.433 11 19.5 11H16.5C14.567 11 13 9.433 13 7.5C13 5.567 14.567 4 16.5 4H19.5ZM16.5 6C15.6716 6 15 6.67157 15 7.5C15 8.32843 15.6716 9 16.5 9H19.5C20.3284 9 21 8.32843 21 7.5C21 6.67157 20.3284 6 19.5 6H16.5Z" fill="oklch(0.3523 0 0 / 1)" class="wd-icon-fill"></path>
</g>
</svg>