<svg width="24" height="24" viewBox="0 0 24 24" xmlns="http://www.w3.org/2000/svg" class="wd-icon wd-icon-bar-full-stack-chart" role="presentation">
<g>
<path d="M7 9C7.26522 9 7.5195 9.10543 7.70703 9.29297C7.89457 9.48051 8 9.73478 8 10V20C8 20.2652 7.89457 20.5195 7.70703 20.707C7.5195 20.8946 7.26522 21 7 21H3C2.44772 21 2 20.5523 2 20V10C2 9.44772 2.44772 9 3 9H7ZM4 19H6V11H4V19Z" fill="oklch(0.3523 0 0 / 1)" class="wd-icon-fill"></path>
<path d="M14 14C14.2652 14 14.5195 14.1054 14.707 14.293C14.8946 14.4805 15 14.7348 15 15V20C15 20.5523 14.5523 21 14 21H10C9.44772 21 9 20.5523 9 20V15C9 14.4477 9.44772 14 10 14H14ZM11 19H13V16H11V19Z" fill="oklch(0.3523 0 0 / 1)" class="wd-icon-fill"></path>
<path d="M21 13C21.2652 13 21.5195 13.1054 21.707 13.293C21.8946 13.4805 22 13.7348 22 14V20C22 20.5523 21.5523 21 21 21H17C16.4477 21 16 20.5523 16 20V14C16 13.4477 16.4477 13 17 13H21ZM18 19H20V15H18V19Z" fill="oklch(0.3523 0 0 / 1)" class="wd-icon-fill"></path>
</g>
<g>
<path d="M14 3C14.5523 3 15 3.44772 15 4V12C15 12.2652 14.8946 12.5195 14.707 12.707C14.5195 12.8946 14.2652 13 14 13H10C9.44772 13 9 12.5523 9 12V4C9 3.44772 9.44772 3 10 3H14Z" fill="oklch(0.3523 0 0 / 1)" class="wd-icon-accent"></path>
<path d="M21 3C21.5523 3 22 3.44772 22 4V11C22 11.2652 21.8946 11.5195 21.707 11.707C21.5195 11.8946 21.2652 12 21 12H17C16.4477 12 16 11.5523 16 11V4C16 3.44772 16.4477 3 17 3H21Z" fill="oklch(0.3523 0 0 / 1)" class="wd-icon-accent"></path>
<path d="M7 3C7.26522 3 7.5195 3.10543 7.70703 3.29297C7.89457 3.48051 8 3.73478 8 4V7C8 7.55228 7.55228 8 7 8H3C2.44772 8 2 7.55228 2 7V4C2 3.73478 2.10543 3.48051 2.29297 3.29297C2.48051 3.10543 2.73478 3 3 3H7Z" fill="oklch(0.3523 0 0 / 1)" class="wd-icon-accent"></path>
</g>
</svg>