<svg width="24" height="24" viewBox="0 0 24 24" xmlns="http://www.w3.org/2000/svg" class="wd-icon wd-icon-sparkle-focus" role="presentation">
<g>
<path d="M4.00008 15.0001C4.55234 15.0001 5.00004 15.4478 5.00008 16.0001C5.00008 16.9943 5.00891 17.2954 5.06844 17.5177C5.25337 18.2078 5.79237 18.7468 6.48251 18.9317C6.70478 18.9913 7.0058 19.0001 8.00008 19.0001C8.55234 19.0001 9.00004 19.4478 9.00008 20.0001C9.00008 20.5524 8.55237 21.0001 8.00008 21.0001C7.13454 21.0001 6.50563 21.0082 5.96493 20.8634C4.58461 20.4935 3.50666 19.4156 3.1368 18.0352C2.99195 17.4945 3.00008 16.8656 3.00008 16.0001C3.00013 15.4479 3.44787 15.0001 4.00008 15.0001Z" fill="oklch(0.3523 0 0 / 1)" class="wd-icon-fill"></path>
<path d="M20.0001 15.0001C20.5523 15.0001 21 15.4478 21.0001 16.0001C21.0001 16.8656 21.0082 17.4945 20.8634 18.0352C20.4935 19.4156 19.4156 20.4935 18.0352 20.8634C17.4945 21.0082 16.8656 21.0001 16.0001 21.0001C15.4478 21 15.0001 20.5523 15.0001 20.0001C15.0001 19.4479 15.4479 19.0001 16.0001 19.0001C16.9943 19.0001 17.2954 18.9913 17.5177 18.9317C18.2078 18.7468 18.7468 18.2078 18.9317 17.5177C18.9913 17.2954 19.0001 16.9943 19.0001 16.0001C19.0001 15.4479 19.4479 15.0001 20.0001 15.0001Z" fill="oklch(0.3523 0 0 / 1)" class="wd-icon-fill"></path>
<path d="M11.2266 7.63094C11.3992 6.78984 12.6009 6.78988 12.7735 7.63094C13.031 8.8688 13.355 9.62301 13.8673 10.1358C14.3795 10.6482 15.1319 10.9714 16.3692 11.2266C17.2102 11.3994 17.2104 12.6011 16.3692 12.7735L15.9278 12.8731C14.9471 13.1146 14.3131 13.4189 13.8643 13.8673C13.352 14.3795 13.0288 15.1319 12.7735 16.3692C12.6009 17.2103 11.3992 17.2103 11.2266 16.3692L11.127 15.9268C10.8856 14.9464 10.5812 14.3131 10.1329 13.8643C9.62065 13.352 8.86825 13.0288 7.63094 12.7735C6.78872 12.6014 6.79041 11.3994 7.6329 11.2276L7.63094 11.2266C8.86881 10.9691 9.623 10.6452 10.1358 10.1329C10.6482 9.62065 10.9714 8.86827 11.2266 7.63094Z" fill="oklch(0.3523 0 0 / 1)" class="wd-icon-fill"></path>
<path d="M8.00008 3.00008C8.55234 3.00008 9.00004 3.44784 9.00008 4.00008C9.00008 4.55237 8.55237 5.00008 8.00008 5.00008C7.0058 5.00008 6.70478 5.00889 6.48251 5.06844C5.79237 5.25339 5.25339 5.79237 5.06844 6.48251C5.00889 6.70478 5.00008 7.0058 5.00008 8.00008C5.00008 8.55237 4.55237 9.00008 4.00008 9.00008C3.44784 9.00004 3.00008 8.55234 3.00008 8.00008C3.00008 7.13454 2.99192 6.50563 3.1368 5.96493C3.50668 4.58461 4.58461 3.50668 5.96493 3.1368C6.50563 2.99192 7.13454 3.00008 8.00008 3.00008Z" fill="oklch(0.3523 0 0 / 1)" class="wd-icon-fill"></path>
<path d="M16.0001 3.00008C16.8656 3.00008 17.4945 2.99195 18.0352 3.1368C19.4156 3.50666 20.4935 4.58461 20.8634 5.96493C21.0082 6.50563 21.0001 7.13454 21.0001 8.00008C21.0001 8.55237 20.5524 9.00008 20.0001 9.00008C19.4478 9.00004 19.0001 8.55234 19.0001 8.00008C19.0001 7.0058 18.9913 6.70478 18.9317 6.48251C18.7468 5.79237 18.2078 5.25337 17.5177 5.06844C17.2954 5.00891 16.9943 5.00008 16.0001 5.00008C15.4478 5.00004 15.0001 4.55234 15.0001 4.00008C15.0001 3.44787 15.4479 3.00013 16.0001 3.00008Z" fill="oklch(0.3523 0 0 / 1)" class="wd-icon-fill"></path>
</g>
</svg>