<svg width="24" height="24" viewBox="0 0 24 24" xmlns="http://www.w3.org/2000/svg" class="wd-icon wd-icon-clock-plus" role="presentation">
<g>
<path d="M9.85435 1.21079C11.988 0.786503 14.2 1.00428 16.2098 1.83677C18.2197 2.66934 19.9377 4.07966 21.1463 5.88853C22.2622 7.55858 22.8972 9.49968 22.9881 11.4999C23.0007 11.7757 22.776 11.9999 22.4999 11.9999H21.4999C21.2237 11.9998 21.0015 11.7756 20.9862 11.4999C20.8969 9.89552 20.3793 8.34093 19.4833 6.99985C18.4944 5.51992 17.0886 4.3666 15.4442 3.6854C13.7997 3.00422 11.9898 2.82544 10.244 3.17271C8.49818 3.51998 6.89426 4.37694 5.6356 5.6356C4.37694 6.89426 3.51998 8.49819 3.17271 10.244C2.82544 11.9898 3.00422 13.7997 3.6854 15.4442C4.3666 17.0886 5.51992 18.4944 6.99985 19.4833C8.34094 20.3793 9.89552 20.8969 11.4999 20.9862C11.7756 21.0015 11.9998 21.2237 11.9999 21.4999V22.4999C11.9999 22.776 11.7757 23.0007 11.4999 22.9881C9.49967 22.8972 7.55858 22.2622 5.88853 21.1463C4.07966 19.9377 2.66934 18.2197 1.83677 16.2098C1.00428 14.2 0.786502 11.988 1.21079 9.85435C1.63523 7.72056 2.68316 5.75991 4.22153 4.22153C5.75991 2.68316 7.72056 1.63523 9.85435 1.21079Z" fill="oklch(0.3523 0 0 / 1)" class="wd-icon-fill"></path>
<path d="M12.4999 4.99985C12.776 4.99985 12.9998 5.22377 12.9999 5.49985V10.9999H16.4999C16.776 10.9999 16.9998 11.2238 16.9999 11.4999V12.4999C16.9999 12.776 16.776 12.9999 16.4999 12.9999H11.9999C11.4476 12.9998 10.9999 12.5521 10.9999 11.9999V5.49985C10.9999 5.22382 11.2238 4.99993 11.4999 4.99985H12.4999Z" fill="oklch(0.3523 0 0 / 1)" class="wd-icon-fill"></path>
</g>
<path d="M19.4951 15C19.7713 15 19.9951 15.2239 19.9951 15.5V17.9951H22.5C22.7761 17.9951 23 18.219 23 18.4951V19.4951C23 19.7713 22.7761 19.9951 22.5 19.9951H19.9951V22.5C19.9951 22.7761 19.7713 23 19.4951 23H18.4951C18.219 23 17.9951 22.7761 17.9951 22.5V19.9951H15.5C15.2239 19.9951 15 19.7713 15 19.4951V18.4951C15 18.219 15.2239 17.9951 15.5 17.9951H17.9951V15.5C17.9951 15.2239 18.219 15 18.4951 15H19.4951Z" fill="oklch(0.3523 0 0 / 1)" class="wd-icon-accent"></path>
</svg>