<svg width="24" height="24" viewBox="0 0 24 24" xmlns="http://www.w3.org/2000/svg" class="wd-icon wd-icon-arrows-counterclockwise" role="presentation">
<g>
<path d="M4.97949 12.8457C5.51264 12.7031 6.06095 13.0197 6.2041 13.5527C6.51122 14.6986 7.1521 15.7284 8.04395 16.5107C8.93593 17.2929 10.0406 17.7933 11.2168 17.9482C12.393 18.103 13.5893 17.9055 14.6533 17.3809C15.3453 17.0396 15.9611 16.5692 16.4707 16H15C14.4479 15.9998 14 15.5521 14 15C14.0001 14.448 14.448 14.0002 15 14H19C19.552 14.0003 19.9999 14.448 20 15V19C20 19.5521 19.5521 19.9997 19 20C18.4479 19.9998 18 19.5521 18 19V17.2881C17.3132 18.0674 16.4788 18.7108 15.5381 19.1748C14.1193 19.8744 12.5244 20.138 10.9561 19.9316C9.38776 19.7251 7.91497 19.0575 6.72559 18.0146C5.53627 16.9715 4.68197 15.5984 4.27246 14.0703C4.12996 13.5372 4.44654 12.9888 4.97949 12.8457Z" fill="oklch(0.3523 0 0 / 1)" class="wd-icon-fill"></path>
<path d="M4.99902 4C5.55131 4 5.99902 4.44772 5.99902 5V6.71191C6.68574 5.93266 7.52034 5.28917 8.46094 4.8252C9.87962 4.12561 11.4747 3.86213 13.043 4.06836C14.6114 4.27484 16.084 4.94246 17.2734 5.98535C18.463 7.02853 19.317 8.40148 19.7266 9.92969C19.8693 10.463 19.5528 11.0113 19.0195 11.1543C18.4865 11.2966 17.9379 10.9802 17.7949 10.4473C17.4878 9.3012 16.8471 8.27161 15.9551 7.48926C15.063 6.70712 13.9585 6.20664 12.7822 6.05176C11.6061 5.8971 10.4097 6.09449 9.3457 6.61914C8.65389 6.96043 8.03779 7.43086 7.52832 8H8.99902C9.55131 8 9.99902 8.44772 9.99902 9C9.99889 9.55217 9.55123 10 8.99902 10H4.99902C4.44726 9.99948 3.99915 9.55185 3.99902 9V5C3.99902 4.44803 4.44718 4.00052 4.99902 4Z" fill="oklch(0.3523 0 0 / 1)" class="wd-icon-fill"></path>
</g>
</svg>