<svg width="24" height="24" viewBox="0 0 24 24" xmlns="http://www.w3.org/2000/svg" class="wd-icon wd-icon-playbook" role="presentation">
<path d="M18.3125 2.04706C18.5293 1.94941 18.7665 1.93519 18.9834 1.99335C19.0376 2.00792 19.0905 2.02749 19.1416 2.05097C19.2949 2.12128 19.4321 2.23074 19.5361 2.37518L22.6367 6.69061C22.7978 6.9148 22.7465 7.2267 22.5225 7.38788L21.7119 7.97186C21.4878 8.133 21.1749 8.08261 21.0137 7.85858L19.1934 5.32538C18.1622 8.65445 16.182 11.6282 13.4746 13.8683C10.3756 16.4324 6.51111 17.8819 2.5 17.9933C2.22404 18.001 2.0001 17.7762 2 17.5002V16.5002C2 16.224 2.224 16.001 2.5 15.9924C6.04559 15.8816 9.45985 14.5947 12.2002 12.3273C14.6147 10.3294 16.3772 7.67452 17.291 4.70331L14.292 6.0578C14.0403 6.17139 13.7435 6.05849 13.6299 5.80682L13.4248 5.35077L13.2188 4.89667C13.1052 4.64507 13.2173 4.34825 13.4688 4.23456L18.3125 2.04706Z" fill="oklch(0.3523 0 0 / 1)" class="wd-icon-fill"></path>
<g>
<path d="M20.9395 14.6465C21.1347 14.4513 21.4512 14.4514 21.6465 14.6465L22.3535 15.3535C22.5488 15.5488 22.5488 15.8653 22.3535 16.0605L20.4141 18L22.3535 19.9395C22.5488 20.1347 22.5487 20.4512 22.3535 20.6465L21.6465 21.3535C21.4512 21.5487 21.1347 21.5488 20.9395 21.3535L19 19.4141L17.0605 21.3535C16.8653 21.5487 16.5488 21.5488 16.3535 21.3535L15.6465 20.6465C15.4514 20.4512 15.4513 20.1347 15.6465 19.9395L17.5859 18L15.6465 16.0605C15.4516 15.8653 15.4514 15.5487 15.6465 15.3535L16.3535 14.6465C16.5487 14.4514 16.8653 14.4516 17.0605 14.6465L19 16.5859L20.9395 14.6465Z" fill="oklch(0.3523 0 0 / 1)" class="wd-icon-accent"></path>
<path d="M6.5 4C8.433 4 10 5.567 10 7.5C10 9.433 8.433 11 6.5 11C4.567 11 3 9.433 3 7.5C3 5.567 4.567 4 6.5 4ZM6.5 6C5.67157 6 5 6.67157 5 7.5C5 8.32843 5.67157 9 6.5 9C7.32843 9 8 8.32843 8 7.5C8 6.67157 7.32843 6 6.5 6Z" fill="oklch(0.3523 0 0 / 1)" class="wd-icon-accent"></path>
</g>
</svg>