<svg width="24" height="24" viewBox="0 0 24 24" xmlns="http://www.w3.org/2000/svg" class="wd-icon wd-icon-image" role="presentation">
<path d="M3 4.5C3 4.22386 3.22386 4 3.5 4H20.5C20.7761 4 21 4.22386 21 4.5V19.5C21 19.7761 20.7761 20 20.5 20H3.5C3.22386 20 3 19.7761 3 19.5V4.5Z" fill="transparent" class="wd-icon-background"></path>
<path d="M20.5 3C21.3284 3 22 3.67157 22 4.5V19.5C22 20.3284 21.3284 21 20.5 21H3.5C2.67157 21 2 20.3284 2 19.5V4.5C2 3.67157 2.67157 3 3.5 3H20.5ZM4 19H20V5H4V19Z" fill="oklch(0.3523 0 0 / 1)" class="wd-icon-fill"></path>
<g>
<path d="M7.87109 8.66309C8.50621 7.93225 9.69135 7.98431 10.248 8.81934L13 12.9473L14.752 10.3193L14.8711 10.1631C15.5062 9.43225 16.6914 9.48431 17.248 10.3193L20 14.4473V18.0527L16 12.0527L14.2012 14.749L14.8047 15.6533C14.9578 15.883 14.8957 16.1935 14.666 16.3467L13.834 16.9014C13.6043 17.0547 13.294 16.9933 13.1406 16.7637L9 10.5527L4 18.0527V14.4473L7.75195 8.81934L7.87109 8.66309Z" fill="oklch(0.3523 0 0 / 1)" class="wd-icon-accent"></path>
<path d="M13.5 6C14.3284 6 15 6.67157 15 7.5C15 8.32843 14.3284 9 13.5 9C12.6716 9 12 8.32843 12 7.5C12 6.67157 12.6716 6 13.5 6Z" fill="oklch(0.3523 0 0 / 1)" class="wd-icon-accent"></path>
</g>
</svg>