<svg width="24" height="24" viewBox="0 0 24 24" xmlns="http://www.w3.org/2000/svg" class="wd-icon wd-icon-backspace" role="presentation">
<g>
<path d="M13.7226 9.21594C14.0155 8.92326 14.4903 8.92312 14.7831 9.21594C15.0753 9.50881 15.0756 9.98378 14.7831 10.2765L13.0653 11.9943L14.7899 13.7189C15.0824 14.0118 15.0827 14.4867 14.7899 14.7794C14.4972 15.0718 14.0222 15.0717 13.7294 14.7794L12.0048 13.0548L10.2802 14.7794C9.98744 15.0717 9.51244 15.0716 9.21962 14.7794C8.92686 14.4867 8.92711 14.0118 9.21962 13.7189L10.9442 11.9943L9.22646 10.2765C8.93378 9.9837 8.93394 9.50883 9.22646 9.21594C9.51932 8.92308 9.9941 8.92315 10.287 9.21594L12.0048 10.9337L13.7226 9.21594Z" fill="oklch(0.3523 0 0 / 1)" class="wd-icon-fill"></path>
<path d="M16.2001 4.00012C17.0235 4.00012 17.7015 3.9991 18.2518 4.04406C18.8138 4.08999 19.331 4.18843 19.8163 4.43567C20.5687 4.81908 21.1809 5.43134 21.5643 6.18371C21.8116 6.66889 21.91 7.18628 21.9559 7.74817C22.0009 8.29845 21.9999 8.97664 21.9999 9.79992V14.2003C21.9999 15.0236 22.0009 15.7018 21.9559 16.2521C21.91 16.814 21.8115 17.3313 21.5643 17.8165C21.1809 18.5689 20.5687 19.1811 19.8163 19.5646C19.331 19.8118 18.8138 19.9102 18.2518 19.9562C17.7015 20.0011 17.0235 20.0001 16.2001 20.0001H8.28505C7.33865 20.0001 6.64054 20.0119 5.9999 19.8029C5.46476 19.6282 4.97272 19.3419 4.55556 18.964C4.05613 18.5114 3.71955 17.8992 3.2499 17.0773L1.53896 14.0841C1.24145 13.5635 0.972835 13.1156 0.86806 12.6183C0.782289 12.2107 0.782233 11.7895 0.86806 11.382C0.972922 10.8848 1.24148 10.4367 1.53896 9.91613L3.2499 6.92297C3.71947 6.1012 4.05613 5.48877 4.55556 5.03625C4.97266 4.65843 5.46489 4.37201 5.9999 4.19739C6.64047 3.98842 7.33878 4.00012 8.28505 4.00012H16.2001ZM8.28505 6.00012C7.20336 6.00012 6.88645 6.01185 6.62001 6.09875C6.35279 6.18601 6.10673 6.32904 5.89833 6.5177C5.6906 6.70592 5.52304 6.97574 4.98622 7.91516L3.27529 10.9083C2.91198 11.5441 2.84985 11.677 2.82509 11.7941C2.79649 11.9298 2.79655 12.0704 2.82509 12.2062C2.84978 12.3234 2.91165 12.4555 3.27529 13.0919L4.98622 16.0851C5.52309 17.0246 5.69064 17.2943 5.89833 17.4825C6.10679 17.6713 6.35267 17.8142 6.62001 17.9015C6.8865 17.9885 7.20302 18.0001 8.28505 18.0001H16.2001C17.0564 18.0001 17.6387 17.9998 18.0888 17.963C18.5271 17.9272 18.7517 17.862 18.9081 17.7823C19.2842 17.5906 19.5904 17.2845 19.7821 16.9083C19.8617 16.7519 19.927 16.527 19.9628 16.089C19.9995 15.639 19.9999 15.0564 19.9999 14.2003V9.79992C19.9999 8.94378 19.9995 8.36121 19.9628 7.91125C19.927 7.47312 19.8618 7.24826 19.7821 7.09192C19.5904 6.7158 19.2843 6.40958 18.9081 6.21789C18.7517 6.13823 18.527 6.07304 18.0888 6.03723C17.6387 6.00047 17.0564 6.00012 16.2001 6.00012H8.28505Z" fill="oklch(0.3523 0 0 / 1)" class="wd-icon-fill"></path>
</g>
</svg>