<svg width="24" height="24" viewBox="0 0 24 24" xmlns="http://www.w3.org/2000/svg" class="wd-icon wd-icon-star" role="presentation">
<path d="M12.1855 4.64551L13.6357 8.25781C13.7101 8.44303 13.8258 8.76543 14.0479 9.01953C14.2207 9.21719 14.4363 9.37333 14.6777 9.47656C14.9882 9.6092 15.3303 9.61932 15.5293 9.63281L19.4121 9.89648C19.6025 9.9094 19.7643 9.92101 19.9023 9.93164C19.7969 10.0214 19.6738 10.1267 19.5273 10.249L16.54 12.7451C16.4061 12.857 16.1816 13.0308 16.0117 13.2666L15.9434 13.3721C15.8424 13.5412 15.7708 13.726 15.7314 13.918L15.7021 14.1123C15.672 14.4484 15.7687 14.7773 15.8174 14.9707L16.7666 18.7451C16.8132 18.9303 16.8512 19.0881 16.8838 19.2227C16.7659 19.1501 16.6284 19.0644 16.4668 18.9629L13.1699 16.8936C13.0222 16.8008 12.7874 16.6415 12.5107 16.5527L12.3887 16.5195L12.1953 16.4863C12.0655 16.4718 11.9345 16.4718 11.8047 16.4863L11.6113 16.5195C11.2821 16.5946 10.999 16.7875 10.8301 16.8936L7.5332 18.9629C7.37123 19.0646 7.23332 19.15 7.11523 19.2227C7.14779 19.088 7.1868 18.9304 7.2334 18.7451L8.18262 14.9707C8.2252 14.8014 8.30489 14.5281 8.30371 14.2373L8.29785 14.1123L8.26855 13.918C8.24233 13.79 8.20238 13.6648 8.14844 13.5459L8.05664 13.3721L7.98828 13.2666C7.81844 13.0308 7.59394 12.857 7.45996 12.7451L4.47266 10.249C4.32594 10.1264 4.20222 10.0215 4.09668 9.93164C4.23494 9.92099 4.39702 9.90943 4.58789 9.89648L8.4707 9.63281C8.6697 9.61932 9.01183 9.6092 9.32227 9.47656C9.56369 9.37333 9.77931 9.21719 9.95215 9.01953C10.1742 8.76543 10.2899 8.44304 10.3643 8.25781L11.8145 4.64551C11.886 4.46724 11.947 4.31605 12 4.1875C12.053 4.31605 12.114 4.46724 12.1855 4.64551Z" fill="transparent" class="wd-icon-background"></path>
<path d="M11.3919 1.87178C11.7842 1.7264 12.2164 1.72627 12.6087 1.87178L12.8011 1.95674L12.9534 2.04756C13.286 2.27637 13.4729 2.61222 13.5833 2.82979C13.726 3.11102 13.8757 3.4854 14.0423 3.9001L15.4925 7.5124C15.5107 7.55781 15.5259 7.59564 15.5393 7.62862C15.5748 7.63122 15.6157 7.6341 15.6643 7.6374L19.5481 7.90108C19.9936 7.93128 20.3959 7.9568 20.7073 8.00557C20.9828 8.04877 21.4365 8.13932 21.7796 8.4792C22.181 8.87725 22.3654 9.4456 22.2747 10.0036C22.197 10.4804 21.8834 10.8203 21.6858 11.0173C21.4625 11.2398 21.1525 11.4976 20.8098 11.7839L17.8225 14.28C17.7851 14.3113 17.753 14.3371 17.7259 14.3601C17.7344 14.3947 17.7451 14.4345 17.7571 14.4821L18.7063 18.2565C18.8153 18.6898 18.9153 19.0809 18.9651 19.3923C19.0092 19.6676 19.0632 20.1268 18.846 20.5583C18.5915 21.0632 18.1078 21.4145 17.5491 21.5007C17.0716 21.5741 16.6519 21.3806 16.4036 21.2536C16.1229 21.11 15.782 20.8945 15.4036 20.6569L12.1067 18.5876C12.0652 18.5615 12.0306 18.539 12.0003 18.5202C11.97 18.539 11.9352 18.5616 11.8938 18.5876L8.59695 20.6569C8.21869 20.8944 7.87762 21.11 7.59695 21.2536C7.3487 21.3806 6.92887 21.574 6.45144 21.5007C5.89249 21.4146 5.40913 21.0633 5.15457 20.5583C4.93714 20.1267 4.99136 19.6676 5.03543 19.3923C5.08529 19.0809 5.18523 18.6898 5.29422 18.2565L6.24343 14.4821C6.25537 14.4347 6.26521 14.3946 6.27371 14.3601C6.2466 14.3372 6.21537 14.3112 6.178 14.28L3.1907 11.7839C2.84787 11.4975 2.53808 11.2399 2.31472 11.0173C2.11718 10.8204 1.80355 10.4807 1.72586 10.0036C1.63508 9.44552 1.81942 8.87729 2.22097 8.4792L2.35379 8.36299C2.67418 8.11745 3.05225 8.04334 3.29324 8.00557C3.6047 7.95683 4.00698 7.93128 4.45242 7.90108L8.33621 7.6374C8.38442 7.63413 8.42503 7.6312 8.46023 7.62862C8.47369 7.59564 8.48985 7.55781 8.50808 7.5124L9.95828 3.9001C10.1248 3.48553 10.2746 3.11094 10.4173 2.82979C10.5435 2.58103 10.77 2.17794 11.1995 1.95674L11.3919 1.87178ZM11.8147 4.64522L10.3645 8.25752C10.2902 8.44257 10.1744 8.76501 9.95242 9.01924C9.77967 9.21689 9.56386 9.37299 9.32254 9.47627C9.01231 9.60888 8.67008 9.61904 8.47097 9.63252L4.58816 9.89619C4.3975 9.90912 4.23511 9.92071 4.09695 9.93135C4.20252 10.0212 4.32614 10.1261 4.47293 10.2487L7.46023 12.7448C7.59419 12.8567 7.81865 13.0305 7.98855 13.2663L8.05691 13.3718L8.14871 13.5456C8.20271 13.6646 8.24257 13.7897 8.26883 13.9177L8.29812 14.112L8.30398 14.237C8.30525 14.5277 8.22553 14.801 8.18289 14.9704L7.23367 18.7448C7.18707 18.9301 7.14807 19.0877 7.1155 19.2224C7.23354 19.1498 7.37163 19.0642 7.53347 18.9626L10.8303 16.8933C10.9994 16.7871 11.2827 16.5943 11.6116 16.5192L11.805 16.486C11.9346 16.4715 12.066 16.4715 12.1956 16.486L12.3889 16.5192L12.511 16.5524C12.7876 16.6412 13.0225 16.8005 13.1702 16.8933L16.4671 18.9626C16.6287 19.0641 16.7661 19.1498 16.8841 19.2224C16.8515 19.0877 16.8135 18.9301 16.7669 18.7448L15.8177 14.9704C15.769 14.7769 15.6722 14.4482 15.7024 14.112L15.7317 13.9177C15.7711 13.7257 15.8427 13.5408 15.9436 13.3718L16.012 13.2663C16.1819 13.0306 16.4064 12.8567 16.5403 12.7448L19.5276 10.2487C19.674 10.1264 19.7972 10.021 19.9026 9.93135C19.7647 9.92073 19.6026 9.90909 19.4124 9.89619L15.5296 9.63252C15.3306 9.61903 14.9884 9.60888 14.678 9.47627C14.4365 9.373 14.221 9.21701 14.0481 9.01924C13.8259 8.76495 13.7104 8.44268 13.636 8.25752L12.1858 4.64522C12.1142 4.46682 12.0533 4.31582 12.0003 4.18721C11.9473 4.31574 11.8863 4.46696 11.8147 4.64522Z" fill="oklch(0.3523 0 0 / 1)" class="wd-icon-fill"></path>
</svg>