<svg width="24" height="24" viewBox="0 0 24 24" xmlns="http://www.w3.org/2000/svg" class="wd-icon wd-icon-comment-sana" role="presentation">
<path d="M12 4C16.5323 4 20 7.24148 20 11C20 14.7585 16.5323 18 12 18C11.8284 18 11.6609 18.0443 11.5127 18.127L11.3711 18.2227C10.5396 18.8952 9.49423 19.3034 8.4834 19.5303C8.0525 19.627 7.64008 19.6863 7.27051 19.7217C7.41145 18.8842 7.47168 18.0059 7.47168 17.3135C7.47167 16.9855 7.31064 16.678 7.04102 16.4912C5.16038 15.1881 4 13.1945 4 11C4 7.24148 7.46774 4 12 4ZM12.0039 12.4053C11.26 12.4053 10.6565 13.0081 10.6562 13.752C10.6562 14.496 11.2598 15.0996 12.0039 15.0996C12.7479 15.0995 13.3506 14.4959 13.3506 13.752C13.3504 13.0081 12.7477 12.4054 12.0039 12.4053ZM9.30078 9.7041C8.55677 9.7041 7.95324 10.3068 7.95312 11.0508C7.95312 11.7949 8.5567 12.3984 9.30078 12.3984C10.0447 12.3982 10.6475 11.7947 10.6475 11.0508C10.6474 10.3069 10.0446 9.70431 9.30078 9.7041ZM14.7061 9.7041C13.962 9.7041 13.3585 10.3068 13.3584 11.0508C13.3584 11.7949 13.962 12.3984 14.7061 12.3984C15.4499 12.3982 16.0527 11.7947 16.0527 11.0508C16.0526 10.3069 15.4499 9.70434 14.7061 9.7041ZM12.0039 7C11.2598 7 10.6562 7.60358 10.6562 8.34766C10.6565 9.09156 11.26 9.69434 12.0039 9.69434C12.7477 9.6942 13.3504 9.09147 13.3506 8.34766C13.3506 7.60366 12.7479 7.00014 12.0039 7Z" fill="transparent" class="wd-icon-background"></path>
<path d="M12 2C17.4089 2 22 5.92196 22 11C22 15.9688 17.6041 19.8274 12.3477 19.9912C11.2635 20.7833 10.024 21.235 8.92188 21.4824C7.723 21.7515 6.61962 21.7956 5.92969 21.7471C5.62071 21.7253 5.33962 21.5616 5.16797 21.3037C4.99636 21.0458 4.95355 20.7231 5.05273 20.4297C5.28915 19.7301 5.42265 18.7021 5.45996 17.8096C3.36367 16.1774 2 13.7479 2 11C2 5.92196 6.59113 2 12 2ZM12 4C7.46774 4 4 7.24148 4 11C4 13.1945 5.16038 15.1881 7.04102 16.4912C7.31064 16.678 7.47167 16.9855 7.47168 17.3135C7.47168 18.0059 7.41145 18.8842 7.27051 19.7217C7.64008 19.6863 8.0525 19.627 8.4834 19.5303C9.49423 19.3034 10.5396 18.8952 11.3711 18.2227L11.5127 18.127C11.6609 18.0443 11.8284 18 12 18C16.5323 18 20 14.7585 20 11C20 7.24148 16.5323 4 12 4Z" fill="oklch(0.3523 0 0 / 1)" class="wd-icon-fill"></path>
<g>
<path d="M12.0039 12.4053C12.7477 12.4054 13.3504 13.0081 13.3506 13.752C13.3506 14.4959 12.7479 15.0995 12.0039 15.0996C11.2598 15.0996 10.6562 14.496 10.6562 13.752C10.6565 13.0081 11.26 12.4053 12.0039 12.4053Z" fill="oklch(0.3523 0 0 / 1)" class="wd-icon-accent"></path>
<path d="M9.30078 9.7041C10.0446 9.70431 10.6474 10.3069 10.6475 11.0508C10.6475 11.7947 10.0447 12.3982 9.30078 12.3984C8.5567 12.3984 7.95312 11.7949 7.95312 11.0508C7.95324 10.3068 8.55677 9.7041 9.30078 9.7041Z" fill="oklch(0.3523 0 0 / 1)" class="wd-icon-accent"></path>
<path d="M14.7061 9.7041C15.4499 9.70434 16.0526 10.3069 16.0527 11.0508C16.0527 11.7947 15.4499 12.3982 14.7061 12.3984C13.962 12.3984 13.3584 11.7949 13.3584 11.0508C13.3585 10.3068 13.962 9.7041 14.7061 9.7041Z" fill="oklch(0.3523 0 0 / 1)" class="wd-icon-accent"></path>
<path d="M12.0039 7C12.7479 7.00014 13.3506 7.60366 13.3506 8.34766C13.3504 9.09147 12.7477 9.6942 12.0039 9.69434C11.26 9.69434 10.6565 9.09156 10.6562 8.34766C10.6562 7.60358 11.2598 7 12.0039 7Z" fill="oklch(0.3523 0 0 / 1)" class="wd-icon-accent"></path>
</g>
</svg>