<svg width="24" height="24" viewBox="0 0 24 24" xmlns="http://www.w3.org/2000/svg" class="wd-icon wd-icon-flags" role="presentation">
<g>
<path d="M16.8179 5.38658C18.0975 5.4774 19.2368 6.23122 19.8199 7.37389L20.0074 7.74108C20.2663 8.24822 20.7448 8.60764 21.3043 8.71373C22.6215 8.96361 23.2977 10.4392 22.6275 11.6005L20.9576 14.493C20.5252 15.242 19.6603 15.628 18.814 15.4501L18.1129 15.3036C16.9116 15.0509 15.8984 14.2501 15.3736 13.1405C15.1149 12.5933 14.6161 12.2047 14.0338 12.0809L10.0572 18.9667C9.78094 19.4449 9.16921 19.6081 8.69098 19.3319C8.21303 19.0557 8.04894 18.4448 8.32477 17.9667L13.4234 9.14049C13.4274 9.13351 13.4319 9.12683 13.4361 9.11998L15.0504 6.32506C15.4114 5.6999 16.0978 5.3355 16.8179 5.38658ZM15.0591 10.3094C15.9793 10.6687 16.7456 11.3668 17.1802 12.286C17.4376 12.8301 17.9359 13.2217 18.525 13.3456L19.2252 13.493L20.8599 10.663C19.7237 10.425 18.754 9.68661 18.2252 8.65026L18.0377 8.28307C17.7835 7.78519 17.2962 7.45354 16.7437 7.39147L15.0591 10.3094Z" fill="oklch(0.3523 0 0 / 1)" class="wd-icon-fill"></path>
<path d="M13.4839 15.8319C13.9622 15.5558 14.574 15.7198 14.8502 16.1981L15.8541 17.9374C16.1301 18.4155 15.9668 19.0273 15.4888 19.3036C15.0105 19.5797 14.3988 19.4157 14.1226 18.9374L13.1177 17.1981C12.8417 16.7198 13.0057 16.108 13.4839 15.8319Z" fill="oklch(0.3523 0 0 / 1)" class="wd-icon-fill"></path>
<path d="M7.06012 5.48619C7.78038 5.4351 8.46764 5.80031 8.82867 6.42565L10.7603 9.77233C11.319 10.74 10.7472 11.944 9.69391 12.16L9.47711 12.1883C9.17428 12.2099 8.90575 12.3934 8.77594 12.6678L8.50445 13.2411C7.97963 14.3506 6.96636 15.1515 5.7652 15.4042L5.06402 15.5506C4.21775 15.7285 3.35286 15.3425 2.92047 14.5936L1.25055 11.701C0.580405 10.5399 1.25665 9.06432 2.57379 8.81432C3.13323 8.70823 3.61275 8.3488 3.87164 7.84166L4.05816 7.47447C4.6412 6.33179 5.78052 5.57706 7.06012 5.48619ZM7.13434 7.49205C6.58178 7.55413 6.09452 7.88571 5.84039 8.38365L5.65289 8.75084C5.12406 9.78714 4.15429 10.5256 3.01813 10.7635L4.65289 13.5936L5.35309 13.4462C5.94207 13.3223 6.44046 12.9306 6.69781 12.3866L6.96832 11.8133C7.32161 11.0661 7.9778 10.5202 8.75445 10.2977L7.13434 7.49205Z" fill="oklch(0.3523 0 0 / 1)" class="wd-icon-fill"></path>
</g>
</svg>