<svg width="24" height="24" viewBox="0 0 24 24" xmlns="http://www.w3.org/2000/svg" class="wd-icon wd-icon-exclamation-circle" role="presentation">
<path d="M12 4C16.4183 4 20 7.58172 20 12C20 16.4183 16.4183 20 12 20C7.58172 20 4 16.4183 4 12C4 7.58172 7.58172 4 12 4ZM12 15C11.3096 15 10.75 15.5596 10.75 16.25C10.75 16.9404 11.3096 17.5 12 17.5C12.6904 17.5 13.25 16.9404 13.25 16.25C13.25 15.5596 12.6904 15 12 15ZM12 6.25C11.3201 6.25001 10.7788 6.81905 10.8125 7.49805L11.0811 12.876C11.1055 13.3655 11.5098 13.75 12 13.75C12.4901 13.75 12.8945 13.3655 12.9189 12.876L13.1875 7.49805C13.2212 6.81905 12.6799 6.25001 12 6.25Z" fill="transparent" class="wd-icon-background"></path>
<path d="M12 2C17.5228 2 22 6.47715 22 12C22 17.5228 17.5228 22 12 22C6.47715 22 2 17.5228 2 12C2 6.47715 6.47715 2 12 2ZM12 4C7.58172 4 4 7.58172 4 12C4 16.4183 7.58172 20 12 20C16.4183 20 20 16.4183 20 12C20 7.58172 16.4183 4 12 4Z" fill="oklch(0.3523 0 0 / 1)" class="wd-icon-fill"></path>
<g>
<path d="M12 15C12.6904 15 13.25 15.5596 13.25 16.25C13.25 16.9404 12.6904 17.5 12 17.5C11.3096 17.5 10.75 16.9404 10.75 16.25C10.75 15.5596 11.3096 15 12 15Z" fill="oklch(0.3523 0 0 / 1)" class="wd-icon-accent"></path>
<path d="M12 6.25C12.6799 6.25001 13.2212 6.81905 13.1875 7.49805L12.9189 12.876C12.8945 13.3655 12.4901 13.75 12 13.75C11.5098 13.75 11.1055 13.3655 11.0811 12.876L10.8125 7.49805C10.7788 6.81905 11.3201 6.25001 12 6.25Z" fill="oklch(0.3523 0 0 / 1)" class="wd-icon-accent"></path>
</g>
</svg>