<svg width="24" height="24" viewBox="0 0 24 24" xmlns="http://www.w3.org/2000/svg" class="wd-icon wd-icon-user-plus" role="presentation">
<g>
<path d="M12.0009 12C12.5532 12.0001 13.0009 12.4478 13.0009 13C13.0009 13.5522 12.5532 13.9999 12.0009 14C10.0286 14 8.33677 14.3758 7.12592 15.1162C5.99039 15.8106 5.23794 16.8453 5.04877 18.3525C6.1816 18.5977 8.55932 19 12.0009 19C12.5532 19.0001 13.0009 19.4478 13.0009 20C13.0009 20.5522 12.5532 20.9999 12.0009 21C8.27807 21 5.70852 20.5517 4.49799 20.2812C3.60276 20.0811 2.94473 19.254 3.04291 18.2852L3.09564 17.874C3.41327 15.8533 4.51132 14.3712 6.08295 13.4102C7.71741 12.4108 9.81432 12 12.0009 12Z" fill="oklch(0.3523 0 0 / 1)" class="wd-icon-fill"></path>
<path d="M12.0009 1.5C14.4861 1.50006 16.5009 3.51475 16.5009 6C16.5009 8.48525 14.4861 10.4999 12.0009 10.5C9.51564 10.5 7.50092 8.48528 7.50092 6C7.50092 3.51472 9.51564 1.5 12.0009 1.5ZM12.0009 3.5C10.6202 3.5 9.50092 4.61929 9.50092 6C9.50092 7.38071 10.6202 8.5 12.0009 8.5C13.3816 8.49994 14.5009 7.38068 14.5009 6C14.5009 4.61932 13.3816 3.50006 12.0009 3.5Z" fill="oklch(0.3523 0 0 / 1)" class="wd-icon-fill"></path>
</g>
<path d="M18 13.25C18.4142 13.25 18.75 13.5858 18.75 14V16.25H21C21.4142 16.25 21.75 16.5858 21.75 17C21.75 17.4142 21.4142 17.75 21 17.75H18.75V20C18.75 20.4142 18.4142 20.75 18 20.75C17.5858 20.75 17.25 20.4142 17.25 20V17.75H15C14.5858 17.75 14.25 17.4142 14.25 17C14.25 16.5858 14.5858 16.25 15 16.25H17.25V14C17.25 13.5858 17.5858 13.25 18 13.25Z" fill="oklch(0.3523 0 0 / 1)" class="wd-icon-accent"></path>
</svg>