<svg width="24" height="24" viewBox="0 0 24 24" xmlns="http://www.w3.org/2000/svg" class="wd-icon wd-icon-utensils" role="presentation">
<g>
<path d="M8 2C9.10398 2.00049 9.99872 2.89597 9.99902 4V13.9795C9.99916 13.9863 10 13.9931 10 14V21C10 21.5523 9.55228 22 9 22C8.44776 22 8 21.5523 8 21V16H7.99707C5.78869 15.9995 3.99859 14.2094 3.99805 12.001V5.99902C3.99863 3.79069 5.78872 2.00054 7.99707 2H8ZM7.99805 4C6.89387 4.00025 5.99835 4.89583 5.99805 6V12C5.9983 13.1042 6.89384 13.9997 7.99805 14V4Z" fill="oklch(0.3523 0 0 / 1)" class="wd-icon-fill"></path>
<path d="M19 2C19.5523 2 20 2.44772 20 3V8C20 9.86384 18.7252 11.43 17 11.874V21C17 21.5523 16.5523 22 16 22C15.4477 22 15 21.5523 15 21V11.874C13.2748 11.43 12 9.86384 12 8V3C12 2.44772 12.4477 2 13 2C13.5523 2 14 2.44772 14 3V8C14 9.10457 14.8954 10 16 10C17.1046 10 18 9.10457 18 8V3C18 2.44772 18.4477 2 19 2Z" fill="oklch(0.3523 0 0 / 1)" class="wd-icon-fill"></path>
<path d="M16 2C16.5523 2 17 2.44772 17 3V8C17 8.55228 16.5523 9 16 9C15.4477 9 15 8.55228 15 8V3C15 2.44772 15.4477 2 16 2Z" fill="oklch(0.3523 0 0 / 1)" class="wd-icon-fill"></path>
</g>
</svg>