<svg width="24" height="24" viewBox="0 0 24 24" xmlns="http://www.w3.org/2000/svg" class="wd-icon wd-icon-x" role="presentation">
<path d="M18.9394 3.64641C19.1346 3.4512 19.4512 3.4512 19.6464 3.64641L20.3534 4.35344C20.5487 4.54869 20.5487 4.86522 20.3534 5.06047L13.414 11.9999L20.3534 18.9394C20.5487 19.1346 20.5487 19.4512 20.3534 19.6464L19.6464 20.3534C19.4512 20.5487 19.1346 20.5487 18.9394 20.3534L11.9999 13.414L5.06047 20.3534C4.86522 20.5487 4.54869 20.5487 4.35344 20.3534L3.64641 19.6464C3.4512 19.4512 3.4512 19.1346 3.64641 18.9394L10.5859 11.9999L3.64641 5.06047C3.4512 4.86522 3.4512 4.54869 3.64641 4.35344L4.35344 3.64641C4.54869 3.4512 4.86522 3.4512 5.06047 3.64641L11.9999 10.5859L18.9394 3.64641Z" fill="oklch(0.3523 0 0 / 1)" class="wd-icon-fill"></path>
</svg>