<svg width="24" height="24" viewBox="0 0 24 24" xmlns="http://www.w3.org/2000/svg" class="wd-icon wd-icon-delta" role="presentation">
<path d="M12.2858 1.99975C12.4067 1.99968 12.7368 1.98406 13.0397 2.10132C13.2704 2.19083 13.4764 2.33622 13.6373 2.52417C13.8489 2.77141 13.9441 3.08853 13.984 3.2019L19.4069 18.6023C19.4637 18.7638 19.529 18.9487 19.5699 19.1101C19.612 19.276 19.6639 19.5441 19.5914 19.8484C19.5017 20.224 19.2693 20.551 18.9449 20.7605C18.6823 20.9298 18.4123 20.9706 18.2418 20.9861C18.0761 21.001 17.8797 20.9998 17.7086 20.9998H6.2926C6.1216 20.9998 5.92526 21.0009 5.7594 20.9861C5.58906 20.9707 5.31917 20.9298 5.05627 20.7605C4.73156 20.5511 4.49961 20.2242 4.40979 19.8484C4.33718 19.544 4.38915 19.2761 4.43127 19.1101C4.47228 18.9487 4.53751 18.7637 4.59436 18.6023L10.0172 3.2019C10.0572 3.08815 10.1524 2.77118 10.3639 2.52417L10.4928 2.39135C10.6292 2.26716 10.7885 2.16835 10.9615 2.10132L11.0758 2.06323C11.3438 1.98778 11.6104 1.99975 11.7155 1.99975H12.2858ZM6.82483 18.9998H17.1764L12.0006 4.30151L6.82483 18.9998Z" fill="oklch(0.3523 0 0 / 1)" class="wd-icon-fill"></path>
</svg>