<svg width="24" height="24" viewBox="0 0 24 24" xmlns="http://www.w3.org/2000/svg" class="wd-icon wd-icon-flash-auto" role="presentation">
<path d="M10.0783 2.43368C10.6641 1.49673 12.113 2.06238 11.9094 3.14853L10.8117 9.00009H14.5705C15.3559 9.00017 15.8344 9.86435 15.4181 10.5304L9.80681 19.5089C9.22111 20.446 7.7722 19.8812 7.97576 18.795L9.0617 13.0001H5.27947C4.49404 13.0001 4.01457 12.1359 4.43084 11.4698L10.0783 2.43368Z" fill="oklch(0.3523 0 0 / 1)" class="wd-icon-fill"></path>
<path d="M17.5 13C17.9955 13 18.4401 13.293 18.6387 13.7402L18.6758 13.8311L21.2071 21C21.345 21.3905 21.1404 21.819 20.75 21.957C20.3596 22.0949 19.931 21.8904 19.793 21.5L19.2637 20H15.7364L15.2071 21.5C15.069 21.8904 14.6405 22.0949 14.25 21.957C13.8597 21.819 13.6551 21.3905 13.793 21L16.3243 13.8311C16.5003 13.3329 16.9717 13 17.5 13ZM16.2666 18.5H18.7334L17.5 15.0078L16.2666 18.5Z" fill="oklch(0.3523 0 0 / 1)" class="wd-icon-accent"></path>
</svg>