<svg width="24" height="24" viewBox="0 0 24 24" xmlns="http://www.w3.org/2000/svg" class="wd-icon wd-icon-birthday" role="presentation">
<g>
<path d="M17 6C17.5523 6 18 6.44772 18 7V9.17383C19.1647 9.58594 20 10.6941 20 12V18H21C21.5523 18 22 18.4477 22 19C22 19.5523 21.5523 20 21 20H3C2.44772 20 2 19.5523 2 19C2 18.4477 2.44772 18 3 18H4V12C4 10.6941 4.83532 9.58594 6 9.17383V7C6 6.44772 6.44772 6 7 6C7.55228 6 8 6.44772 8 7V9H11V7C11 6.44772 11.4477 6 12 6C12.5523 6 13 6.44772 13 7V9H16V7C16 6.44772 16.4477 6 17 6ZM7 11C6.44772 11 6 11.4477 6 12V18H18V12C18 11.4477 17.5523 11 17 11H7Z" fill="oklch(0.3523 0 0 / 1)" class="wd-icon-fill"></path>
<path d="M6.99902 1.7998C6.99902 1.7998 8.19922 2.60078 8.19922 3.80078C8.19896 4.46323 7.66151 4.99989 6.99902 5C6.33644 5 5.79909 4.4633 5.79883 3.80078C5.79883 2.60078 6.99902 1.7998 6.99902 1.7998Z" fill="oklch(0.3523 0 0 / 1)" class="wd-icon-fill"></path>
<path d="M11.999 1.7998C11.999 1.7998 13.1992 2.60078 13.1992 3.80078C13.199 4.46323 12.6615 4.99989 11.999 5C11.3364 5 10.7991 4.4633 10.7988 3.80078C10.7988 2.60078 11.999 1.7998 11.999 1.7998Z" fill="oklch(0.3523 0 0 / 1)" class="wd-icon-fill"></path>
<path d="M16.999 1.7998C16.999 1.7998 18.1992 2.60078 18.1992 3.80078C18.199 4.46323 17.6615 4.99989 16.999 5C16.3364 5 15.7991 4.4633 15.7988 3.80078C15.7988 2.60078 16.999 1.7998 16.999 1.7998Z" fill="oklch(0.3523 0 0 / 1)" class="wd-icon-fill"></path>
</g>
<path d="M15.1777 13.1279L15.3105 13.1514L15.4375 13.1855C15.5576 13.2242 15.6545 13.2732 15.7129 13.3037C15.7996 13.349 15.9016 13.4079 16 13.4648C16.5874 13.8048 17.2684 14 17.998 14L18 13.999V15.999L17.998 16C17.043 16 16.1387 15.7754 15.3359 15.377L14.998 15.1963C14.1151 15.7073 13.0895 16 11.998 16C11.043 16 10.1387 15.7754 9.33594 15.377L8.99805 15.1963C8.1156 15.707 7.09075 15.9987 6 15.999V13.999C6.72886 13.9987 7.40924 13.8045 7.99609 13.4648C8.09447 13.4079 8.19654 13.349 8.2832 13.3037C8.36105 13.263 8.50707 13.1894 8.68555 13.1514L8.81836 13.1279C8.87106 13.1209 8.93162 13.1162 8.99805 13.1162C9.06448 13.1162 9.12503 13.1209 9.17773 13.1279L9.31055 13.1514L9.4375 13.1855C9.55761 13.2242 9.65447 13.2732 9.71289 13.3037C9.79955 13.349 9.90163 13.4079 10 13.4648C10.5874 13.8048 11.2684 14 11.998 14C12.7276 14 13.4087 13.8048 13.9961 13.4648C14.0945 13.4079 14.1965 13.349 14.2832 13.3037C14.3611 13.263 14.5071 13.1894 14.6855 13.1514L14.8184 13.1279C14.8711 13.1209 14.9316 13.1162 14.998 13.1162C15.0645 13.1162 15.125 13.1209 15.1777 13.1279Z" fill="oklch(0.3523 0 0 / 1)" class="wd-icon-accent"></path>
</svg>