<svg width="24" height="24" viewBox="0 0 24 24" xmlns="http://www.w3.org/2000/svg" class="wd-icon wd-icon-face-id" role="presentation">
<g>
<path d="M3.5 16C3.77614 16 4 16.2239 4 16.5V20H7.5C7.77614 20 8 20.2239 8 20.5V21.5C8 21.7761 7.77614 22 7.5 22H4C2.89543 22 2 21.1046 2 20V16.5C2 16.2239 2.22386 16 2.5 16H3.5Z" fill="oklch(0.3523 0 0 / 1)" class="wd-icon-fill"></path>
<path d="M21.5 16C21.7761 16 22 16.2239 22 16.5V20C22 21.1046 21.1046 22 20 22H16.5C16.2239 22 16 21.7761 16 21.5V20.5C16 20.2239 16.2239 20 16.5 20H20V16.5C20 16.2239 20.2239 16 20.5 16H21.5Z" fill="oklch(0.3523 0 0 / 1)" class="wd-icon-fill"></path>
<path d="M14.4531 15.1602C14.6712 14.9907 14.9864 14.9874 15.1816 15.1826L15.8887 15.8896C16.0838 16.0849 16.0848 16.4037 15.874 16.582C14.7952 17.4947 13.4238 18.0009 12 18.001C10.5761 18.0009 9.20393 17.4948 8.125 16.582C7.91431 16.4037 7.91611 16.0849 8.11133 15.8896L8.81836 15.1826C9.01362 14.9877 9.32797 14.9909 9.5459 15.1602C10.2439 15.7024 11.1068 16.0009 12 16.001C12.8931 16.0009 13.7553 15.7023 14.4531 15.1602Z" fill="oklch(0.3523 0 0 / 1)" class="wd-icon-fill"></path>
<path d="M12.5 8C12.7761 8 13 8.22386 13 8.5V12.2363C12.9999 12.5206 12.8788 12.7918 12.667 12.9814C12.546 13.0897 12.4171 13.1891 12.2832 13.2822C12.28 13.2846 12.2777 13.2887 12.2744 13.291C12.2612 13.3002 12.2467 13.3074 12.2334 13.3164C12.2016 13.3378 12.1692 13.3584 12.1367 13.3789C12.111 13.3952 12.0857 13.412 12.0596 13.4277C11.9386 13.5004 11.8136 13.5671 11.6846 13.627C11.6508 13.6427 11.6164 13.6571 11.582 13.6719C11.5508 13.6853 11.5199 13.6993 11.4883 13.7119C11.4499 13.7273 11.411 13.7416 11.3721 13.7559C11.3589 13.7607 11.3462 13.7668 11.333 13.7715L11.332 13.7695C11.0658 13.8636 10.7876 13.9328 10.499 13.9688C10.225 14.0029 10 13.7761 10 13.5V12.5C10 12.2239 10.2275 12.0065 10.4951 11.9385C10.5632 11.9212 10.6293 11.8991 10.6943 11.875C10.8004 11.8356 10.9029 11.7886 11 11.7324V8.5C11 8.22386 11.2239 8 11.5 8H12.5Z" fill="oklch(0.3523 0 0 / 1)" class="wd-icon-fill"></path>
<path d="M8.5 8C8.77614 8 9 8.22386 9 8.5V10.5C9 10.7761 8.77614 11 8.5 11H7.5C7.22386 11 7 10.7761 7 10.5V8.5C7 8.22386 7.22386 8 7.5 8H8.5Z" fill="oklch(0.3523 0 0 / 1)" class="wd-icon-fill"></path>
<path d="M16.5 8C16.7761 8 17 8.22386 17 8.5V10.5C17 10.7761 16.7761 11 16.5 11H15.5C15.2239 11 15 10.7761 15 10.5V8.5C15 8.22386 15.2239 8 15.5 8H16.5Z" fill="oklch(0.3523 0 0 / 1)" class="wd-icon-fill"></path>
<path d="M7.5 2C7.77614 2 8 2.22386 8 2.5V3.5C8 3.77614 7.77614 4 7.5 4H4V7.5C4 7.77614 3.77614 8 3.5 8H2.5C2.22386 8 2 7.77614 2 7.5V4C2 2.89543 2.89543 2 4 2H7.5Z" fill="oklch(0.3523 0 0 / 1)" class="wd-icon-fill"></path>
<path d="M20 2C21.1046 2 22 2.89543 22 4V7.5C22 7.77614 21.7761 8 21.5 8H20.5C20.2239 8 20 7.77614 20 7.5V4H16.5C16.2239 4 16 3.77614 16 3.5V2.5C16 2.22386 16.2239 2 16.5 2H20Z" fill="oklch(0.3523 0 0 / 1)" class="wd-icon-fill"></path>
</g>
</svg>