<svg width="24" height="24" viewBox="0 0 24 24" xmlns="http://www.w3.org/2000/svg" class="wd-icon wd-icon-clipboard-plus" role="presentation">
<g>
<path d="M19.5 15C19.7761 15 20 15.2239 20 15.5V17.9951H22.5049C22.781 17.9951 23.0049 18.219 23.0049 18.4951V19.4951C23.0049 19.7713 22.781 19.9951 22.5049 19.9951H20V22.5C20 22.7761 19.7761 23 19.5 23H18.5C18.2239 23 18 22.7761 18 22.5V19.9951H15.5049C15.2287 19.9951 15.0049 19.7713 15.0049 19.4951V18.4951C15.0049 18.219 15.2287 17.9951 15.5049 17.9951H18V15.5C18 15.2239 18.2239 15 18.5 15H19.5Z" fill="oklch(0.3523 0 0 / 1)" class="wd-icon-fill"></path>
<path d="M12.1797 1.00488C12.9965 1.05331 13.7236 1.43042 14.2334 2H15.5C16.1528 2.00021 16.7071 2.41775 16.9131 3H18.5C19.3283 3.00013 20 3.67165 20 4.5V12.5C20 12.7761 19.7761 13 19.5 13H18.5C18.2239 13 18 12.7761 18 12.5V5H17V6.52734C17 7.35561 16.3282 8.02708 15.5 8.02734H8.5C7.67157 8.02734 7 7.35577 7 6.52734V5H6V20H13.5C13.7761 20 14 20.2239 14 20.5V21.5C14 21.7761 13.7761 22 13.5 22H5.5C4.67163 21.9999 4 21.3284 4 20.5V4.5C4 3.67164 4.67167 3.00011 5.5 3H7.08691C7.29301 2.41774 7.84713 2 8.5 2H9.76855C10.3156 1.38928 11.1119 1 12.001 1L12.1797 1.00488ZM12.001 3C11.6847 3 11.4021 3.14729 11.2168 3.38184C10.9669 3.69818 10.5391 3.99978 9.98242 4H9V6.02734H15V4H14.0186C13.4615 3.99996 13.0342 3.6975 12.7842 3.38086C12.5991 3.14637 12.3168 3.00029 12.001 3Z" fill="oklch(0.3523 0 0 / 1)" class="wd-icon-fill"></path>
<path d="M9.5 13C9.77614 13 10 13.2239 10 13.5V14.5C10 14.7761 9.77614 15 9.5 15H8.5C8.22386 15 8 14.7761 8 14.5V13.5C8 13.2239 8.22386 13 8.5 13H9.5Z" fill="oklch(0.3523 0 0 / 1)" class="wd-icon-fill"></path>
<path d="M15.5 13C15.7761 13 16 13.2239 16 13.5V14.5C16 14.7761 15.7761 15 15.5 15H11.5C11.2239 15 11 14.7761 11 14.5V13.5C11 13.2239 11.2239 13 11.5 13H15.5Z" fill="oklch(0.3523 0 0 / 1)" class="wd-icon-fill"></path>
<path d="M9.5 10C9.77614 10 10 10.2239 10 10.5V11.5C10 11.7761 9.77614 12 9.5 12H8.5C8.22386 12 8 11.7761 8 11.5V10.5C8 10.2239 8.22386 10 8.5 10H9.5Z" fill="oklch(0.3523 0 0 / 1)" class="wd-icon-fill"></path>
<path d="M15.5 10C15.7761 10 16 10.2239 16 10.5V11.5C16 11.7761 15.7761 12 15.5 12H11.5C11.2239 12 11 11.7761 11 11.5V10.5C11 10.2239 11.2239 10 11.5 10H15.5Z" fill="oklch(0.3523 0 0 / 1)" class="wd-icon-fill"></path>
</g>
</svg>