<svg width="24" height="24" viewBox="0 0 24 24" xmlns="http://www.w3.org/2000/svg" class="wd-icon wd-icon-mobile" role="presentation">
<path d="M6 5C6 3.34315 7.34315 2 9 2H15C16.6569 2 18 3.34315 18 5V19C18 20.6569 16.6569 22 15 22H9C7.34315 22 6 20.6569 6 19V5Z" fill="transparent" class="wd-icon-background"></path>
<g>
<path d="M13.5 4C13.7761 4 14 4.22386 14 4.5V5.5C14 5.77614 13.7761 6 13.5 6H10.5C10.2239 6 10 5.77614 10 5.5V4.5C10 4.22386 10.2239 4 10.5 4H13.5Z" fill="oklch(0.3523 0 0 / 1)" class="wd-icon-fill"></path>
<path d="M15 1C17.2091 1 19 2.79086 19 5V19C19 21.2091 17.2091 23 15 23H9C6.79086 23 5 21.2091 5 19V5C5 2.79086 6.79086 1 9 1H15ZM9 3C7.89543 3 7 3.89543 7 5V19C7 20.1046 7.89543 21 9 21H15C16.1046 21 17 20.1046 17 19V5C17 3.89543 16.1046 3 15 3H9Z" fill="oklch(0.3523 0 0 / 1)" class="wd-icon-fill"></path>
</g>
</svg>