<svg width="24" height="24" viewBox="0 0 24 24" xmlns="http://www.w3.org/2000/svg" class="wd-icon wd-icon-font" role="presentation">
<path d="M12.1503 2.00684C12.9309 2.06846 13.6162 2.55475 13.9316 3.27148L13.9931 3.42773L19.6044 19.5039C19.8092 20.0905 19.4996 20.7327 18.913 20.9375C18.3266 21.142 17.6852 20.8324 17.4804 20.2461L15.7362 15.25H8.23624L6.49601 20.2451C6.29163 20.8318 5.65011 21.1418 5.06339 20.9375C4.47666 20.7331 4.16664 20.0916 4.37101 19.5049L9.97062 3.42969L10.0321 3.27246C10.3697 2.50414 11.1326 2 11.9823 2L12.1503 2.00684ZM9.01944 13H14.9511L11.9823 4.49414L9.01944 13Z" fill="oklch(0.3523 0 0 / 1)" class="wd-icon-fill"></path>
</svg>