<svg width="24" height="24" viewBox="0 0 24 24" xmlns="http://www.w3.org/2000/svg" class="wd-icon wd-icon-card-stack" role="presentation">
<g>
<path d="M17.25 10.25C17.6642 10.25 18 10.5858 18 11C18 11.4142 17.6642 11.75 17.25 11.75H13.75C13.3358 11.75 13 11.4142 13 11C13 10.5858 13.3358 10.25 13.75 10.25H17.25Z" fill="oklch(0.3523 0 0 / 1)" class="wd-icon-fill"></path>
<path d="M11 6.75C11.6904 6.75 12.25 7.30965 12.25 8C12.25 8.69036 11.6904 9.25 11 9.25C10.3097 9.25 9.75 8.69036 9.75 8C9.75001 7.30965 10.3097 6.75001 11 6.75Z" fill="oklch(0.3523 0 0 / 1)" class="wd-icon-fill"></path>
<path d="M17.25 7.25C17.6642 7.25 18 7.58579 18 8C18 8.41422 17.6642 8.75 17.25 8.75H13.75C13.3358 8.75 13 8.41422 13 8C13 7.58579 13.3358 7.25001 13.75 7.25H17.25Z" fill="oklch(0.3523 0 0 / 1)" class="wd-icon-fill"></path>
<path d="M17.7998 3C18.3434 3 18.8116 2.99893 19.1953 3.03028C19.5906 3.06259 19.984 3.1344 20.3623 3.32715C20.9265 3.61473 21.3853 4.07348 21.6729 4.6377C21.8656 5.016 21.9374 5.40944 21.9697 5.80469C22.0011 6.18836 22 6.65665 22 7.2002V11.7998C22 12.3434 22.0011 12.8116 21.9697 13.1953C21.9374 13.5906 21.8656 13.984 21.6729 14.3623C21.3853 14.9265 20.9265 15.3853 20.3623 15.6729C19.984 15.8656 19.5906 15.9374 19.1953 15.9697C18.8596 15.9972 18.4591 15.9988 18 15.999V16.7998C18 17.3434 18.0011 17.8116 17.9697 18.1953C17.9374 18.5906 17.8656 18.984 17.6729 19.3623C17.3853 19.9265 16.9265 20.3853 16.3623 20.6729C15.984 20.8656 15.5906 20.9374 15.1953 20.9697C14.8116 21.0011 14.3434 21 13.7998 21H6.2002C5.65665 21 5.18836 21.0011 4.80469 20.9697C4.40944 20.9374 4.016 20.8656 3.6377 20.6729C3.07348 20.3853 2.61473 19.9265 2.32715 19.3623C2.1344 18.984 2.06259 18.5906 2.03028 18.1953C1.99893 17.8116 2 17.3434 2 16.7998V12.2002C2 11.6567 1.99893 11.1883 2.03028 10.8047C2.06259 10.4096 2.13454 10.0168 2.32715 9.63868C2.61473 9.07424 3.0733 8.6148 3.6377 8.32715C4.01603 8.13435 4.40939 8.06359 4.80469 8.03125C5.14054 8.00378 5.54085 8.00141 6 8.00098V7.2002C6 6.65665 5.99893 6.18836 6.03028 5.80469C6.06259 5.40944 6.1344 5.016 6.32715 4.6377C6.61473 4.07348 7.07348 3.61473 7.6377 3.32715C8.016 3.1344 8.40944 3.06259 8.80469 3.03028C9.18836 2.99893 9.65665 3 10.2002 3H17.7998ZM6 10.001C5.53499 10.0015 5.21686 10.004 4.96778 10.0244C4.69615 10.0466 4.59534 10.0842 4.5459 10.1094C4.35795 10.2052 4.20524 10.358 4.10938 10.5459C4.0842 10.5953 4.04564 10.6963 4.02344 10.9678C4.0003 11.2511 4 11.6237 4 12.2002V16.7998C4 17.3764 4.00127 17.7489 4.02442 18.0322C4.04661 18.3038 4.08419 18.4047 4.10938 18.4541C4.20522 18.6421 4.35793 18.7948 4.5459 18.8906C4.59534 18.9158 4.69619 18.9534 4.96778 18.9756C5.25111 18.9987 5.62365 19 6.2002 19H13.7998C14.3764 19 14.7489 18.9987 15.0322 18.9756C15.3038 18.9534 15.4047 18.9158 15.4541 18.8906C15.6421 18.7948 15.7948 18.6421 15.8906 18.4541C15.9158 18.4047 15.9534 18.3038 15.9756 18.0322C15.9987 17.7489 16 17.3764 16 16.7998V16H10.2002C9.65665 16 9.18836 16.0011 8.80469 15.9697C8.40944 15.9374 8.016 15.8656 7.6377 15.6729C7.07348 15.3853 6.61473 14.9265 6.32715 14.3623C6.1344 13.984 6.06259 13.5906 6.03028 13.1953C5.99893 12.8116 6 12.3434 6 11.7998V10.001ZM10.2002 5C9.62365 5 9.25111 5.00127 8.96778 5.02442C8.69619 5.04662 8.59534 5.08419 8.5459 5.10938C8.35793 5.20522 8.20522 5.35793 8.10938 5.5459C8.08419 5.59534 8.04662 5.69619 8.02442 5.96778C8.00127 6.25111 8 6.62365 8 7.2002V11.7998C8 12.3764 8.00127 12.7489 8.02442 13.0322C8.04661 13.3038 8.08419 13.4047 8.10938 13.4541C8.20522 13.6421 8.35793 13.7948 8.5459 13.8906C8.59534 13.9158 8.69619 13.9534 8.96778 13.9756C9.25111 13.9987 9.62365 14 10.2002 14H17.7998C18.3764 14 18.7489 13.9987 19.0322 13.9756C19.3038 13.9534 19.4047 13.9158 19.4541 13.8906C19.6421 13.7948 19.7948 13.6421 19.8906 13.4541C19.9158 13.4047 19.9534 13.3038 19.9756 13.0322C19.9987 12.7489 20 12.3764 20 11.7998V7.2002C20 6.62365 19.9987 6.25111 19.9756 5.96778C19.9534 5.69619 19.9158 5.59534 19.8906 5.5459C19.7948 5.35794 19.6421 5.20522 19.4541 5.10938C19.4047 5.08419 19.3038 5.04661 19.0322 5.02442C18.7489 5.00127 18.3764 5 17.7998 5H10.2002Z" fill="oklch(0.3523 0 0 / 1)" class="wd-icon-fill"></path>
</g>
</svg>