<svg width="24" height="24" viewBox="0 0 24 24" xmlns="http://www.w3.org/2000/svg" class="wd-icon wd-icon-desk" role="presentation">
<g>
<path d="M10 18H4V12.75H10V18ZM6 14C5.58579 14 5.25 14.3358 5.25 14.75C5.25 15.1642 5.58579 15.5 6 15.5H8C8.41421 15.5 8.75 15.1642 8.75 14.75C8.75 14.3358 8.41421 14 8 14H6Z" fill="transparent" class="wd-icon-background"></path>
<path d="M10 11.25H4V6H10V11.25ZM6 7C5.58579 7 5.25 7.33579 5.25 7.75C5.25 8.16421 5.58579 8.5 6 8.5H8C8.41421 8.5 8.75 8.16421 8.75 7.75C8.75 7.33579 8.41421 7 8 7H6Z" fill="transparent" class="wd-icon-background"></path>
</g>
<path d="M21 4C21.5523 4 22 4.44772 22 5V19C22 19.5523 21.5523 20 21 20C20.4477 20 20 19.5523 20 19V6H12V18C12 19.1046 11.1046 20 10 20H4C2.89543 20 2 19.1046 2 18V5C2 4.44772 2.44772 4 3 4H21ZM4 12.75V18H10V12.75H4ZM4 11.25H10V6H4V11.25Z" fill="oklch(0.3523 0 0 / 1)" class="wd-icon-fill"></path>
<g>
<path d="M8 14C8.41421 14 8.75 14.3358 8.75 14.75C8.75 15.1642 8.41421 15.5 8 15.5H6C5.58579 15.5 5.25 15.1642 5.25 14.75C5.25 14.3358 5.58579 14 6 14H8Z" fill="oklch(0.3523 0 0 / 1)" class="wd-icon-accent"></path>
<path d="M8 7C8.41421 7 8.75 7.33579 8.75 7.75C8.75 8.16421 8.41421 8.5 8 8.5H6C5.58579 8.5 5.25 8.16421 5.25 7.75C5.25 7.33579 5.58579 7 6 7H8Z" fill="oklch(0.3523 0 0 / 1)" class="wd-icon-accent"></path>
</g>
</svg>