<svg width="24" height="24" viewBox="0 0 24 24" xmlns="http://www.w3.org/2000/svg" class="wd-icon wd-icon-numbers" role="presentation">
<g>
<path d="M20.5002 7.00032C21.0524 7.00042 21.5002 7.44809 21.5002 8.00032V8.47786C21.5 8.73263 21.4025 8.97803 21.2277 9.1634L19.9025 10.5667C21.2264 10.985 22.087 12.2308 22.0871 13.6673C22.0869 15.4808 20.5158 17.1223 18.6838 17.1224C16.9974 17.1224 15.4144 16.023 15.2521 14.1107C15.2057 13.5605 15.6141 13.0772 16.1643 13.0306C16.7142 12.9843 17.1975 13.3918 17.2443 13.9417C17.3033 14.6349 17.8411 15.1224 18.6838 15.1224C19.3695 15.1223 20.0869 14.4184 20.0871 13.6673C20.087 12.8986 19.5731 12.401 18.8752 12.4173C18.6461 12.4227 18.48 12.4538 18.34 12.4876C18.0015 12.5693 17.6449 12.4681 17.3986 12.222L17.1555 11.9798C16.773 11.5974 16.7639 10.9797 17.135 10.5863L18.632 9.00032H16.5002C15.948 9.00032 15.5004 8.55244 15.5002 8.00032C15.5002 7.44803 15.9479 7.00032 16.5002 7.00032H20.5002Z" fill="oklch(0.3523 0 0 / 1)" class="wd-icon-fill"></path>
<path d="M10.8215 7.00715C12.4876 7.00728 14.0402 8.17979 14.0402 10.0863C14.0401 11.1743 13.5268 12.1297 12.8771 12.9075L12.8781 12.9085C12.3951 13.4963 11.8582 14.0147 11.3596 14.4906L11.3576 14.4925L10.8166 15.0072H13.4992C14.0514 15.0073 14.4992 15.4549 14.4992 16.0072C14.499 16.5592 14.0513 17.0071 13.4992 17.0072H8.74921C8.19704 17.0072 7.7494 16.5593 7.74921 16.0072C7.74921 15.4686 7.97027 14.9535 8.36054 14.5823L9.97968 13.0433C10.4817 12.5642 10.9365 12.1218 11.3332 11.639L11.3391 11.6312C11.8279 11.0474 12.0401 10.5305 12.0402 10.0863C12.0402 9.47718 11.5863 9.00727 10.8215 9.00715C10.505 9.00715 10.2694 9.07514 10.0842 9.18098L10.0832 9.18C9.86545 9.30464 9.69432 9.48711 9.58027 9.70832C9.32722 10.199 8.72436 10.3917 8.23359 10.139C7.74278 9.88598 7.55008 9.28316 7.80293 8.79231C8.08981 8.23579 8.53054 7.76466 9.09199 7.44368C9.61878 7.14273 10.2056 7.00715 10.8215 7.00715Z" fill="oklch(0.3523 0 0 / 1)" class="wd-icon-fill"></path>
<path d="M4.00019 7.25032C4.82424 6.63228 6.00019 7.22026 6.00019 8.25032V16.0003C6.00001 16.5524 5.55228 17.0002 5.00019 17.0003C4.44802 17.0003 4.00037 16.5524 4.00019 16.0003V9.74934L3.5998 10.0501C3.15809 10.3812 2.53177 10.2914 2.20039 9.84993C1.86916 9.40812 1.95884 8.78185 2.40058 8.45051L4.00019 7.25032Z" fill="oklch(0.3523 0 0 / 1)" class="wd-icon-fill"></path>
</g>
</svg>