<svg width="24" height="24" viewBox="0 0 24 24" xmlns="http://www.w3.org/2000/svg" class="wd-icon wd-icon-percentage" role="presentation">
<g>
<path d="M16.5002 13C17.4795 13.0001 18.4381 13.3261 19.1536 14.0449C19.8727 14.7677 20.2502 15.7902 20.2502 17C20.2502 18.2098 19.8727 19.2323 19.1536 19.9551C18.4381 20.6739 17.4795 20.9999 16.5002 21C15.521 21 14.5624 20.6739 13.8469 19.9551C13.1277 19.2323 12.7502 18.2098 12.7502 17C12.7502 15.7902 13.1277 14.7677 13.8469 14.0449C14.5624 13.3261 15.521 13 16.5002 13ZM16.5002 15C15.9611 15 15.5447 15.1743 15.2649 15.4551C14.989 15.7323 14.7502 16.2099 14.7502 17C14.7502 17.7901 14.989 18.2677 15.2649 18.5449C15.5447 18.8257 15.9611 19 16.5002 19C17.0393 18.9999 17.4559 18.8258 17.7356 18.5449C18.0115 18.2677 18.2502 17.79 18.2502 17C18.2502 16.21 18.0115 15.7323 17.7356 15.4551C17.4559 15.1742 17.0393 15.0001 16.5002 15Z" fill="oklch(0.3523 0 0 / 1)" class="wd-icon-fill"></path>
<path d="M16.3928 3.84473C16.5492 3.61723 16.8606 3.55948 17.0881 3.71582L17.9124 4.28223C18.14 4.43865 18.1977 4.74995 18.0413 4.97754L7.60767 20.1533C7.45128 20.3808 7.1399 20.4385 6.91235 20.2822L6.08813 19.7158C5.86052 19.5595 5.802 19.2481 5.95825 19.0205L16.3928 3.84473Z" fill="oklch(0.3523 0 0 / 1)" class="wd-icon-fill"></path>
<path d="M7.50024 3C8.47949 3.00005 9.43811 3.32609 10.1536 4.04492C10.8727 4.76767 11.2502 5.79025 11.2502 7C11.2502 8.20975 10.8727 9.23233 10.1536 9.95508C9.43811 10.6739 8.47949 10.9999 7.50024 11C6.52097 11 5.56243 10.6739 4.84692 9.95508C4.12767 9.23232 3.75024 8.20982 3.75024 7C3.75024 5.79018 4.12767 4.76768 4.84692 4.04492C5.56243 3.32612 6.52097 3 7.50024 3ZM7.50024 5C6.96112 5 6.54468 5.17427 6.26489 5.45508C5.98896 5.73231 5.75024 6.20993 5.75024 7C5.75024 7.79007 5.98896 8.26769 6.26489 8.54492C6.54468 8.82573 6.96112 9 7.50024 9C8.03933 8.99995 8.45585 8.82576 8.7356 8.54492C9.01148 8.26767 9.25024 7.78996 9.25024 7C9.25024 6.21004 9.01148 5.73233 8.7356 5.45508C8.45585 5.17424 8.03933 5.00005 7.50024 5Z" fill="oklch(0.3523 0 0 / 1)" class="wd-icon-fill"></path>
</g>
</svg>