<svg width="24" height="24" viewBox="0 0 24 24" xmlns="http://www.w3.org/2000/svg" class="wd-icon wd-icon-chevron-2x-left" role="presentation">
<g>
<path d="M10.0459 4.25383C10.2207 4.04063 10.5354 4.00906 10.749 4.18352L11.1367 4.49993L11.5225 4.81633C11.7361 4.99117 11.7685 5.30671 11.5937 5.52044L9.15918 8.49602L9.15429 8.49993L6.29199 11.9999L11.5937 18.4804C11.7685 18.6941 11.7361 19.0097 11.5225 19.1845L11.1367 19.5009L10.749 19.8173C10.5354 19.9918 10.2207 19.9602 10.0459 19.747L7.61035 16.7704C7.60886 16.7686 7.60789 16.7664 7.60644 16.7646L4.22558 12.6327C3.92486 12.2646 3.92475 11.7352 4.22558 11.3671L10.0459 4.25383Z" fill="oklch(0.3523 0 0 / 1)" class="wd-icon-fill"></path>
<path d="M17.0459 4.25383C17.2207 4.04063 17.5354 4.00906 17.749 4.18352L18.1367 4.49993L18.5225 4.81633C18.7361 4.99117 18.7685 5.30671 18.5937 5.52044L16.1592 8.49602L16.1543 8.49993L13.292 11.9999L18.5937 18.4804C18.7685 18.6941 18.7362 19.0097 18.5225 19.1845L18.1367 19.5009L17.749 19.8173C17.5354 19.9918 17.2207 19.9602 17.0459 19.747L14.6103 16.7704C14.6089 16.7686 14.6079 16.7664 14.6064 16.7646L11.2256 12.6327C10.9249 12.2646 10.9248 11.7352 11.2256 11.3671L17.0459 4.25383Z" fill="oklch(0.3523 0 0 / 1)" class="wd-icon-fill"></path>
</g>
</svg>