<svg width="24" height="24" viewBox="0 0 24 24" xmlns="http://www.w3.org/2000/svg" class="wd-icon wd-icon-tag" role="presentation">
<path d="M16.7998 5C17.3762 5 17.7489 5.00127 18.0322 5.02441C18.3037 5.04661 18.4046 5.08419 18.4541 5.10938C18.642 5.20522 18.7948 5.35797 18.8906 5.5459C18.9158 5.59536 18.9533 5.69629 18.9755 5.96777C18.9987 6.25111 19 6.62365 19 7.2002V10.0117C19 10.793 18.9931 11.0212 18.9443 11.2246C18.8953 11.4285 18.8146 11.6239 18.705 11.8027C18.5957 11.9809 18.4387 12.1471 17.8867 12.6992L12.5556 18.0303C12.148 18.4379 11.8836 18.7008 11.6669 18.8848C11.4596 19.0607 11.3613 19.1059 11.3085 19.123C11.1081 19.1881 10.8919 19.188 10.6914 19.123C10.6386 19.1059 10.5404 19.0608 10.333 18.8848C10.1163 18.7008 9.8519 18.4379 9.44429 18.0303L5.96968 14.5557C5.56206 14.148 5.29916 13.8837 5.11519 13.667C4.93911 13.4595 4.89405 13.3613 4.8769 13.3086C4.81187 13.1081 4.81187 12.8919 4.8769 12.6914C4.89405 12.6387 4.93911 12.5405 5.11519 12.333C5.29916 12.1163 5.56206 11.8519 5.96968 11.4443L11.3007 6.11328C11.8528 5.56121 12.019 5.40421 12.1972 5.29492C12.376 5.18537 12.5715 5.10466 12.7753 5.05566C12.9787 5.00686 13.207 5 13.9882 5H16.7998ZM16 6.5C15.1715 6.5 14.5 7.17157 14.5 8C14.5 8.82843 15.1715 9.5 16 9.5C16.8283 9.49995 17.5 8.82839 17.5 8C17.5 7.17161 16.8283 6.50005 16 6.5Z" fill="transparent" class="wd-icon-background"></path>
<path d="M16.7995 3.00007C17.3429 3.00007 17.8115 2.99903 18.195 3.03034C18.5902 3.06264 18.9839 3.13463 19.362 3.32722C19.9261 3.61472 20.385 4.07373 20.6726 4.63776C20.8653 5.01594 20.9371 5.40962 20.9695 5.80476C21.0008 6.18835 20.9997 6.65685 20.9997 7.20026V10.4952C20.9961 10.95 20.9771 11.3261 20.8894 11.6915C20.7914 12.0995 20.6291 12.4899 20.4099 12.8477C20.2136 13.1679 19.9612 13.4475 19.6423 13.7716L13.9695 19.4444C13.5852 19.8287 13.2551 20.1601 12.9616 20.4092C12.6593 20.6659 12.3303 20.8933 11.9265 21.0245C11.3241 21.2201 10.6753 21.2202 10.073 21.0245C9.6693 20.8932 9.3401 20.6659 9.03782 20.4092C8.74449 20.1602 8.41414 19.8285 8.03001 19.4444L4.5554 15.9698C4.17125 15.5856 3.83959 15.2553 3.59056 14.962C3.33398 14.6597 3.10649 14.3305 2.97532 13.9268C2.77976 13.3245 2.77967 12.6756 2.97532 12.0733C3.10656 11.6695 3.33389 11.3405 3.59056 11.0382C3.83966 10.7447 4.17111 10.4146 4.5554 10.0303L9.88645 4.69929C10.3715 4.21429 10.7252 3.85164 11.1521 3.58991C11.5098 3.37069 11.9004 3.20842 12.3083 3.11042C12.7954 2.99349 13.302 3.00007 13.988 3.00007H16.7995ZM13.988 5.00007C13.207 5.00007 12.9785 5.00691 12.7751 5.05573C12.5713 5.10474 12.3757 5.18546 12.197 5.29499C12.0188 5.40428 11.8525 5.56135 11.3005 6.11335L5.96946 11.4444C5.56182 11.852 5.29894 12.1164 5.11497 12.3331C4.93906 12.5403 4.89387 12.6387 4.87669 12.6915C4.81169 12.8919 4.81178 13.1082 4.87669 13.3087C4.89382 13.3614 4.93912 13.4598 5.11497 13.6671C5.29889 13.8837 5.56201 14.1483 5.96946 14.5557L9.44407 18.0303C9.85149 18.4378 10.1161 18.7009 10.3327 18.8848C10.5397 19.0605 10.6383 19.1059 10.6911 19.1231C10.8916 19.1881 11.1079 19.1881 11.3083 19.1231C11.3611 19.106 11.4592 19.0609 11.6667 18.8848C11.8834 18.7009 12.1478 18.438 12.5554 18.0303L17.8865 12.6993C18.4386 12.1472 18.5955 11.981 18.7048 11.8028C18.8144 11.624 18.8951 11.4286 18.9441 11.2247C18.9929 11.0213 18.9997 10.7929 18.9997 10.0118V7.20026C18.9997 6.6239 18.9985 6.25112 18.9753 5.96784C18.9531 5.69653 18.9155 5.59538 18.8904 5.54597C18.7945 5.35819 18.6417 5.20521 18.4538 5.10944C18.4042 5.08425 18.3027 5.04661 18.032 5.02448C17.7487 5.00136 17.3758 5.00007 16.7995 5.00007H13.988Z" fill="oklch(0.3523 0 0 / 1)" class="wd-icon-fill"></path>
<path d="M17.5 8C17.5 8.82843 16.8284 9.5 16 9.5C15.1716 9.5 14.5 8.82843 14.5 8C14.5 7.17157 15.1716 6.5 16 6.5C16.8284 6.5 17.5 7.17157 17.5 8Z" fill="oklch(0.3523 0 0 / 1)" class="wd-icon-accent"></path>
</svg>