<svg width="24" height="24" viewBox="0 0 24 24" xmlns="http://www.w3.org/2000/svg" class="wd-icon wd-icon-group" role="presentation">
<g>
<path d="M12 14.25C12.9665 14.25 13.75 15.0335 13.75 16C13.75 16.9665 12.9665 17.75 12 17.75C11.0335 17.75 10.25 16.9665 10.25 16C10.25 15.0335 11.0335 14.25 12 14.25Z" fill="oklch(0.3523 0 0 / 1)" class="wd-icon-fill"></path>
<path d="M12 6.25C12.9665 6.25 13.75 7.03351 13.75 8C13.75 8.9665 12.9665 9.75 12 9.75C11.0335 9.75 10.25 8.9665 10.25 8C10.25 7.03351 11.0335 6.25001 12 6.25Z" fill="oklch(0.3523 0 0 / 1)" class="wd-icon-fill"></path>
<path d="M13.7998 2C14.3434 2 14.8116 1.99893 15.1953 2.03028C15.5906 2.06259 15.984 2.1344 16.3623 2.32715C16.9265 2.61473 17.3853 3.07348 17.6729 3.6377C17.8656 4.016 17.9374 4.40944 17.9697 4.80469C18.0011 5.18836 18 5.65665 18 6.2002V17.7998C18 18.3434 18.0011 18.8116 17.9697 19.1953C17.9374 19.5906 17.8656 19.984 17.6729 20.3623C17.3853 20.9265 16.9265 21.3853 16.3623 21.6729C15.984 21.8656 15.5906 21.9374 15.1953 21.9697C14.8116 22.0011 14.3434 22 13.7998 22H10.2002C9.65665 22 9.18836 22.0011 8.80469 21.9697C8.40944 21.9374 8.016 21.8656 7.6377 21.6729C7.07348 21.3853 6.61473 20.9265 6.32715 20.3623C6.1344 19.984 6.06259 19.5906 6.03028 19.1953C5.99893 18.8116 6 18.3434 6 17.7998V6.2002C6 5.65665 5.99893 5.18836 6.03028 4.80469C6.06259 4.40944 6.1344 4.016 6.32715 3.6377C6.61473 3.07348 7.07348 2.61473 7.6377 2.32715C8.016 2.1344 8.40944 2.06259 8.80469 2.03028C9.18836 1.99893 9.65665 2 10.2002 2H13.7998ZM10.2002 4C9.62365 4 9.25111 4.00127 8.96778 4.02442C8.69619 4.04662 8.59534 4.08419 8.5459 4.10938C8.35793 4.20522 8.20522 4.35793 8.10938 4.5459C8.08419 4.59534 8.04662 4.69619 8.02442 4.96778C8.00127 5.25111 8 5.62365 8 6.2002V17.7998C8 18.3764 8.00127 18.7489 8.02442 19.0322C8.04661 19.3038 8.08419 19.4047 8.10938 19.4541C8.20522 19.6421 8.35794 19.7948 8.5459 19.8906C8.59534 19.9158 8.69619 19.9534 8.96778 19.9756C9.25111 19.9987 9.62365 20 10.2002 20H13.7998C14.3764 20 14.7489 19.9987 15.0322 19.9756C15.3038 19.9534 15.4047 19.9158 15.4541 19.8906C15.6421 19.7948 15.7948 19.6421 15.8906 19.4541C15.9158 19.4047 15.9534 19.3038 15.9756 19.0322C15.9987 18.7489 16 18.3764 16 17.7998V6.2002C16 5.62365 15.9987 5.25111 15.9756 4.96778C15.9534 4.69619 15.9158 4.59534 15.8906 4.5459C15.7948 4.35794 15.6421 4.20522 15.4541 4.10938C15.4047 4.08419 15.3038 4.04661 15.0322 4.02442C14.7489 4.00127 14.3764 4 13.7998 4H10.2002Z" fill="oklch(0.3523 0 0 / 1)" class="wd-icon-fill"></path>
</g>
</svg>