<svg width="24" height="24" viewBox="0 0 24 24" xmlns="http://www.w3.org/2000/svg" class="wd-icon wd-icon-clipboard-check" role="presentation">
<path d="M12.1797 1.00488C12.9965 1.05328 13.7236 1.43039 14.2334 2H15.5C16.1528 2.00016 16.7071 2.41771 16.9131 3H18.5C19.3284 3.00007 20 3.67161 20 4.5V14.5C20 14.7761 19.7761 15 19.5 15H18.5C18.2239 15 18 14.7761 18 14.5V5H17V6.52734C17 7.35565 16.3283 8.02715 15.5 8.02734H8.5C7.67157 8.02734 7 7.35577 7 6.52734V5H6V20H11.5C11.7761 20 12 20.2239 12 20.5V21.5C12 21.7761 11.7761 22 11.5 22H5.5C4.67163 21.9999 4 21.3284 4 20.5V4.5C4 3.67164 4.67167 3.00011 5.5 3H7.08691C7.293 2.41772 7.84712 2 8.5 2H9.76855C10.3156 1.38925 11.1119 1 12.001 1L12.1797 1.00488ZM12.001 3C11.6846 3 11.4021 3.14726 11.2168 3.38184C10.9669 3.6982 10.5391 3.99983 9.98242 4H9V6.02734H15V4H14.0186C13.4615 3.99996 13.0342 3.69752 12.7842 3.38086C12.5991 3.14634 12.3168 3.00025 12.001 3Z" fill="oklch(0.3523 0 0 / 1)" class="wd-icon-fill"></path>
<g>
<path d="M20.9395 16.6465C21.1347 16.4513 21.4512 16.4514 21.6465 16.6465L22.3535 17.3535C22.5487 17.5488 22.5487 17.8653 22.3535 18.0605L17.707 22.707C17.3166 23.0974 16.6835 23.0973 16.293 22.707L14.1465 20.5605C13.9514 20.3653 13.9514 20.0487 14.1465 19.8535L14.8535 19.1465C15.0487 18.9513 15.3653 18.9514 15.5605 19.1465L17 20.5859L20.9395 16.6465Z" fill="oklch(0.3523 0 0 / 1)" class="wd-icon-accent"></path>
<path d="M12.5 13C12.7761 13 13 13.2239 13 13.5V14.5C13 14.7761 12.7761 15 12.5 15H8.5C8.22386 15 8 14.7761 8 14.5V13.5C8 13.2239 8.22386 13 8.5 13H12.5Z" fill="oklch(0.3523 0 0 / 1)" class="wd-icon-accent"></path>
<path d="M15.5 10C15.7761 10 16 10.2239 16 10.5V11.5C16 11.7761 15.7761 12 15.5 12H8.5C8.22386 12 8 11.7761 8 11.5V10.5C8 10.2239 8.22386 10 8.5 10H15.5Z" fill="oklch(0.3523 0 0 / 1)" class="wd-icon-accent"></path>
</g>
</svg>