<svg width="24" height="24" viewBox="0 0 24 24" xmlns="http://www.w3.org/2000/svg" class="wd-icon wd-icon-info-sparkle" role="presentation">
<path d="M12.9967 3.05566C14.0031 3.16657 14.9591 3.44359 15.8375 3.8584C15.7282 3.88727 15.6172 3.91243 15.5045 3.93262C15.2237 3.98301 14.9997 4.2147 14.9997 4.5C14.9997 4.78536 15.2237 5.01801 15.5045 5.06836C17.2466 5.38063 18.6201 6.75393 18.9323 8.49609C18.9825 8.77662 19.2147 9.00083 19.4997 9.00098C19.7847 9.00089 20.0168 8.77667 20.067 8.49609C20.0873 8.38289 20.1112 8.27103 20.1403 8.16113C20.5553 9.03963 20.832 9.99549 20.943 11.002C20.4171 11.0313 19.9997 11.4667 19.9997 12C19.9997 13.5822 19.53 15.1288 18.651 16.4443C17.772 17.7598 16.5228 18.7851 15.0612 19.3906C13.5995 19.996 11.9908 20.1552 10.4391 19.8467C8.88737 19.538 7.4612 18.776 6.34243 17.6572C5.22367 16.5384 4.46165 15.1123 4.15298 13.5605C3.84437 12.0088 4.00359 10.4002 4.60903 8.93848C5.21452 7.47683 6.23987 6.22763 7.55532 5.34863C8.87084 4.46967 10.4175 4.00003 11.9997 4C12.5332 3.99991 12.9678 3.58197 12.9967 3.05566ZM12.237 9.36621C11.9333 9.29091 11.6136 9.30263 11.3161 9.39941L11.1696 9.45508L10.4245 9.77734C9.96851 9.97474 9.75852 10.5048 9.95571 10.9609C10.1531 11.4168 10.6832 11.6259 11.1393 11.4287L11.6139 11.2246L10.029 15.5918C9.71193 16.4658 10.1679 17.4305 11.0446 17.7402C11.4434 17.8811 11.8812 17.8659 12.2692 17.6973L13.0124 17.374C13.4678 17.1759 13.6777 16.646 13.4801 16.1904C13.2821 15.7347 12.7513 15.5259 12.2956 15.7236L11.8209 15.9297L13.4059 11.5615C13.7235 10.6863 13.2659 9.71912 12.3874 9.41113L12.237 9.36621ZM12.4499 5.75C11.7871 5.75004 11.2497 6.28748 11.2497 6.9502C11.2498 7.61282 11.7872 8.15035 12.4499 8.15039C13.1124 8.1503 13.6499 7.61279 13.65 6.9502C13.65 6.28751 13.1125 5.75009 12.4499 5.75Z" fill="transparent" class="wd-icon-background"></path>
<g>
<path d="M11.9999 2C12.5522 2 12.9999 2.44772 12.9999 3C12.9999 3.55228 12.5522 4 11.9999 4C10.4178 4.00005 8.87112 4.46963 7.5556 5.34863C6.24015 6.22764 5.21479 7.47682 4.60931 8.93848C4.00387 10.4002 3.84466 12.0088 4.15325 13.5605C4.46192 15.1123 5.22395 16.5384 6.34271 17.6572C7.46147 18.776 8.88763 19.538 10.4394 19.8467C11.9911 20.1553 13.5998 19.996 15.0615 19.3906C16.5231 18.7851 17.7723 17.7598 18.6513 16.4443C19.5304 15.1287 19.9999 13.5823 19.9999 12C19.9999 11.4478 20.4478 11.0001 20.9999 11C21.5522 11 21.9999 11.4477 21.9999 12C21.9999 13.9778 21.4132 15.9112 20.3144 17.5557C19.2156 19.2 17.6542 20.4824 15.8271 21.2393C13.9999 21.9961 11.9885 22.1935 10.0488 21.8076C8.10916 21.4217 6.32704 20.4697 4.92864 19.0713C3.53026 17.6729 2.5782 15.8908 2.19232 13.9512C1.80648 12.0114 2.00383 10.0001 2.76068 8.17285C3.51752 6.34573 4.79993 4.78433 6.44427 3.68555C8.08869 2.58678 10.0222 2.00005 11.9999 2Z" fill="oklch(0.3523 0 0 / 1)" class="wd-icon-fill"></path>
<path d="M11.3163 9.39941C11.6139 9.30258 11.9335 9.2909 12.2372 9.36621L12.3876 9.41113C13.2663 9.71905 13.7248 10.6862 13.4072 11.5615L11.8212 15.9297L12.2958 15.7236C12.7516 15.5258 13.2824 15.7347 13.4804 16.1904C13.6781 16.6461 13.4682 17.176 13.0126 17.374L12.2695 17.6973C11.8814 17.8659 11.4438 17.8811 11.0449 17.7402C10.1682 17.4305 9.71223 16.4658 10.0292 15.5918L11.6142 11.2246L11.1396 11.4287C10.6835 11.6259 10.1534 11.4169 9.95599 10.9609C9.7588 10.5049 9.96882 9.97476 10.4247 9.77734L11.1699 9.45508L11.3163 9.39941Z" fill="oklch(0.3523 0 0 / 1)" class="wd-icon-fill"></path>
<path d="M19.4999 0C19.785 0 20.0171 0.224256 20.0673 0.504883C20.3793 2.24709 21.7538 3.62051 23.496 3.93262C23.7767 3.98314 23.9999 4.21482 23.9999 4.5C23.9999 4.78524 23.7767 5.01788 23.496 5.06836C21.7538 5.38058 20.3794 6.75382 20.0673 8.49609C20.0171 8.77672 19.785 9.00098 19.4999 9.00098C19.215 9.0008 18.9828 8.77661 18.9326 8.49609C18.6204 6.75388 17.247 5.38057 15.5048 5.06836C15.224 5.01799 14.9999 4.78534 14.9999 4.5C14.9999 4.21472 15.224 3.98303 15.5048 3.93262C17.247 3.62052 18.6205 2.24703 18.9326 0.504883C18.9828 0.224368 19.215 0.000177789 19.4999 0Z" fill="oklch(0.3523 0 0 / 1)" class="wd-icon-fill"></path>
<path d="M12.4501 5.75C13.1129 5.75 13.6503 6.28745 13.6503 6.9502C13.6502 7.61285 13.1128 8.15039 12.4501 8.15039C11.7875 8.15031 11.25 7.6128 11.2499 6.9502C11.2499 6.2875 11.7875 5.75008 12.4501 5.75Z" fill="oklch(0.3523 0 0 / 1)" class="wd-icon-fill"></path>
</g>
</svg>