<svg width="24" height="24" viewBox="0 0 24 24" xmlns="http://www.w3.org/2000/svg" class="wd-icon wd-icon-add-right" role="presentation">
<g>
<path d="M18.5049 3.99512C18.781 3.99512 19.0049 4.21897 19.0049 4.49512V19.4951C19.0049 19.7713 18.781 19.9951 18.5049 19.9951H17.5049C17.2287 19.9951 17.0049 19.7713 17.0049 19.4951V4.49512C17.0049 4.21898 17.2287 3.99512 17.5049 3.99512H18.5049Z" fill="oklch(0.3523 0 0 / 1)" class="wd-icon-fill"></path>
<path d="M9.49414 7C9.77021 7.00009 9.99414 7.22391 9.99414 7.5V10.9932H13.5C13.7761 10.9932 14 11.217 14 11.4932V12.4932C14 12.7693 13.7761 12.9932 13.5 12.9932H9.99414V16.5C9.99414 16.7761 9.77021 16.9999 9.49414 17H8.49414C8.218 17 7.99414 16.7761 7.99414 16.5V12.9932H4.5C4.22386 12.9932 4 12.7693 4 12.4932V11.4932C4 11.217 4.22386 10.9932 4.5 10.9932H7.99414V7.5C7.99414 7.22386 8.218 7 8.49414 7H9.49414Z" fill="oklch(0.3523 0 0 / 1)" class="wd-icon-fill"></path>
</g>
</svg>