<svg width="24" height="24" viewBox="0 0 24 24" xmlns="http://www.w3.org/2000/svg" class="wd-icon wd-icon-compare-files" role="presentation">
<g>
<path d="M13.2148 3.63379C13.5461 3.40239 14.0017 3.63883 14.002 4.04297V5.24902H14.8027C15.35 5.24902 15.8068 5.24802 16.1777 5.27832C16.5571 5.30939 16.9141 5.37726 17.251 5.54883C17.7681 5.81249 18.1896 6.23377 18.4531 6.75098C18.6247 7.08798 18.6926 7.44466 18.7236 7.82422C18.7539 8.19526 18.7529 8.65171 18.7529 9.19922V15.0977C20.0459 15.4313 21.0028 16.6029 21.0029 18C21.0027 19.6563 19.6592 20.9995 18.0029 21C16.3462 21 15.0032 19.6566 15.0029 18C15.0031 16.6024 15.9593 15.4308 17.2529 15.0977V9.19922C17.2529 8.627 17.2527 8.2421 17.2285 7.94629C17.2051 7.65967 17.1623 7.52215 17.1162 7.43164C16.9965 7.19676 16.8051 7.00558 16.5703 6.88574C16.4799 6.83966 16.342 6.79692 16.0557 6.77344C15.76 6.74928 15.3746 6.74902 14.8027 6.74902H14.002V7.95605C14.0019 8.36048 13.5462 8.59705 13.2148 8.36523L10.4209 6.40918C10.1366 6.21013 10.1367 5.78891 10.4209 5.58984L13.2148 3.63379ZM18.0029 17C17.4508 17 17.0031 17.4479 17.0029 18C17.0032 18.5521 17.4508 19 18.0029 19C18.5546 18.9995 19.0027 18.5517 19.0029 18C19.0027 17.4482 18.5547 17.0005 18.0029 17Z" fill="oklch(0.3523 0 0 / 1)" class="wd-icon-fill"></path>
<path d="M6 3C7.65673 3.00008 8.99992 4.34326 9 6C8.99987 7.48635 7.91874 8.71996 6.5 8.95801V14.7998C6.5 15.3719 6.50028 15.7569 6.52441 16.0527C6.54784 16.3393 6.59067 16.4768 6.63672 16.5674C6.75648 16.8024 6.94767 16.9934 7.18262 17.1133C7.27312 17.1594 7.41056 17.2021 7.69727 17.2256C7.99307 17.2497 8.37803 17.25 8.9502 17.25H10.001V16.043C10.0013 15.6388 10.4559 15.4021 10.7871 15.6338L13.582 17.5898C13.8661 17.7888 13.8659 18.21 13.582 18.4092L10.7871 20.3662C10.4558 20.5977 10.001 20.3604 10.001 19.9561V18.75H8.9502C8.40273 18.75 7.94623 18.751 7.5752 18.7207C7.19561 18.6897 6.83898 18.6218 6.50195 18.4502C5.98468 18.1865 5.56339 17.7654 5.2998 17.248C5.12825 16.911 5.06032 16.5544 5.0293 16.1748C4.99901 15.8038 5 15.3473 5 14.7998V8.82617C3.83543 8.41407 3.00012 7.30572 3 6C3.00008 4.34326 4.34327 3.00008 6 3ZM6 5C5.44783 5.00008 5.00008 5.44783 5 6C5.00015 6.55211 5.44788 6.99992 6 7C6.55212 6.99992 6.99985 6.55211 7 6C6.99992 5.44783 6.55217 5.00008 6 5Z" fill="oklch(0.3523 0 0 / 1)" class="wd-icon-fill"></path>
</g>
</svg>