<svg width="24" height="24" viewBox="0 0 24 24" xmlns="http://www.w3.org/2000/svg" class="wd-icon wd-icon-stop-circle" role="presentation">
<g>
<path d="M14.1504 8.25C14.7102 8.25 14.9902 8.25041 15.2041 8.35938C15.3921 8.45522 15.5448 8.60793 15.6406 8.7959C15.7496 9.00976 15.75 9.28982 15.75 9.84961V14.1504C15.75 14.7102 15.7496 14.9902 15.6406 15.2041C15.5448 15.3921 15.3921 15.5448 15.2041 15.6406C14.9902 15.7496 14.7102 15.75 14.1504 15.75H9.84961C9.28982 15.75 9.00976 15.7496 8.7959 15.6406C8.60793 15.5448 8.45522 15.3921 8.35938 15.2041C8.25041 14.9902 8.25 14.7102 8.25 14.1504V9.84961C8.25 9.28982 8.25041 9.00976 8.35938 8.7959C8.45522 8.60793 8.60793 8.45522 8.7959 8.35938C9.00976 8.25041 9.28982 8.25 9.84961 8.25H14.1504Z" fill="oklch(0.3523 0 0 / 1)" class="wd-icon-fill"></path>
<path d="M12 2C17.5228 2 21.9999 6.47721 22 12C22 17.5228 17.5228 22 12 22C6.47715 22 2 17.5228 2 12C2.00007 6.47721 6.47719 2 12 2ZM12 4C7.58176 4 4.00007 7.58178 4 12C4 16.4183 7.58172 20 12 20C16.4183 20 20 16.4183 20 12C19.9999 7.58178 16.4182 4 12 4Z" fill="oklch(0.3523 0 0 / 1)" class="wd-icon-fill"></path>
</g>
</svg>