<svg width="24" height="24" viewBox="0 0 24 24" xmlns="http://www.w3.org/2000/svg" class="wd-icon wd-icon-attribute" role="presentation">
<path d="M12.2002 2.00003C12.3235 2.00003 12.476 1.99894 12.6094 2.0098C12.7184 2.0187 12.8631 2.0387 13.0205 2.09476L13.1807 2.16312L13.2842 2.22171C13.4855 2.34522 13.6548 2.51451 13.7783 2.71585L13.8369 2.81937L13.9053 2.97952C13.9613 3.1369 13.9813 3.28166 13.9902 3.39066C14.0011 3.524 14 3.67651 14 3.79984V4.00003H10V6.00003H14V4.00003H16V3.79984C16 3.67651 15.9989 3.52401 16.0098 3.39066C16.0216 3.24553 16.0522 3.03716 16.1631 2.81937L16.2217 2.71585C16.3658 2.48091 16.5724 2.28894 16.8193 2.16312L16.9795 2.09476C17.1369 2.03869 17.2816 2.0187 17.3906 2.0098C17.524 1.99893 17.6765 2.00003 17.7998 2.00003H20.2002C20.3235 2.00003 20.476 1.99893 20.6094 2.0098C20.7184 2.0187 20.8631 2.03869 21.0205 2.09476L21.1807 2.16312L21.2842 2.22171C21.4855 2.34523 21.6548 2.51449 21.7783 2.71585L21.8369 2.81937L21.9053 2.97952C21.9613 3.13692 21.9813 3.28166 21.9902 3.39066C22.0011 3.52401 22 3.67651 22 3.79984V6.20023C22 6.32356 22.0011 6.47605 21.9902 6.60941C21.9784 6.75453 21.9478 6.9629 21.8369 7.1807C21.6931 7.46294 21.4629 7.69314 21.1807 7.83695C20.9629 7.94782 20.7545 7.97841 20.6094 7.99027C20.476 8.00113 20.3235 8.00003 20.2002 8.00003H17.7998C17.6765 8.00003 17.524 8.00113 17.3906 7.99027C17.2455 7.97841 17.0371 7.94782 16.8193 7.83695C16.5371 7.69314 16.3069 7.46294 16.1631 7.1807C16.0522 6.9629 16.0216 6.75453 16.0098 6.60941C15.9989 6.47605 16 6.32356 16 6.20023V6.00003H14V6.20023C14 6.32355 14.0011 6.47606 13.9902 6.60941C13.9784 6.75453 13.9478 6.96291 13.8369 7.1807C13.6931 7.46294 13.4629 7.69314 13.1807 7.83695C12.9629 7.94782 12.7545 7.97841 12.6094 7.99027C12.476 8.00113 12.3235 8.00003 12.2002 8.00003H9.79981C9.67649 8.00003 9.52398 8.00113 9.39063 7.99027C9.24551 7.97841 9.03712 7.94781 8.81934 7.83695C8.53711 7.69313 8.30689 7.46293 8.16309 7.1807C8.05223 6.96292 8.02163 6.75452 8.00977 6.60941C7.99891 6.47606 8 6.32355 8 6.20023V5.50003H6.9502C6.37777 5.50003 5.99315 5.50027 5.69727 5.52445C5.41027 5.54791 5.27316 5.59062 5.18262 5.63675C4.94751 5.75658 4.75655 5.94753 4.63672 6.18265C4.59059 6.27319 4.54788 6.4103 4.52442 6.6973C4.50024 6.99318 4.5 7.3778 4.5 7.95023V11.25H8V10.7998C8 10.6765 7.99891 10.524 8.00977 10.3907C8.02163 10.2455 8.05222 10.0372 8.16309 9.81937L8.22168 9.71585C8.3658 9.48091 8.5724 9.28894 8.81934 9.16312L8.9795 9.09476C9.13689 9.03869 9.28163 9.0187 9.39063 9.0098C9.52399 8.99893 9.67648 9.00003 9.79981 9.00003H12.2002C12.3235 9.00003 12.476 8.99893 12.6094 9.0098C12.7184 9.0187 12.8631 9.03869 13.0205 9.09476L13.1807 9.16312L13.2842 9.22171C13.4855 9.34523 13.6548 9.51449 13.7783 9.71585L13.8369 9.81937L13.9053 9.97952C13.9613 10.1369 13.9813 10.2817 13.9902 10.3907C14.0011 10.524 14 10.6765 14 10.7998V13.2002C14 13.3236 14.0011 13.476 13.9902 13.6094C13.9784 13.7545 13.9478 13.9629 13.8369 14.1807C13.6931 14.4629 13.4629 14.6931 13.1807 14.8369C12.9629 14.9478 12.7545 14.9784 12.6094 14.9903C12.476 15.0011 12.3235 15 12.2002 15H9.79981C9.67648 15 9.52399 15.0011 9.39063 14.9903C9.24551 14.9784 9.03713 14.9478 8.81934 14.8369C8.5371 14.6931 8.3069 14.4629 8.16309 14.1807C8.05222 13.9629 8.02163 13.7545 8.00977 13.6094C7.99891 13.476 8 13.3236 8 13.2002V12.75H4.5V16.0498C4.5 16.6223 4.50024 17.0069 4.52442 17.3028C4.54788 17.5898 4.59059 17.7269 4.63672 17.8174C4.75655 18.0525 4.94751 18.2435 5.18262 18.3633C5.27316 18.4094 5.41027 18.4522 5.69727 18.4756C5.99315 18.4998 6.37777 18.5 6.9502 18.5H8V17.7998C8 17.6765 7.99891 17.524 8.00977 17.3907C8.02163 17.2455 8.05222 17.0372 8.16309 16.8194L8.22168 16.7159C8.3658 16.4809 8.5724 16.2889 8.81934 16.1631L8.9795 16.0948C9.13689 16.0387 9.28163 16.0187 9.39063 16.0098C9.52399 15.9989 9.67648 16 9.79981 16H12.2002C12.3235 16 12.476 15.9989 12.6094 16.0098C12.7184 16.0187 12.8631 16.0387 13.0205 16.0948L13.1807 16.1631L13.2842 16.2217C13.4855 16.3452 13.6548 16.5145 13.7783 16.7159L13.8369 16.8194L13.9053 16.9795C13.9613 17.1369 13.9813 17.2817 13.9902 17.3907C14.0011 17.524 14 17.6765 14 17.7998V20.2002C14 20.3236 14.0011 20.476 13.9902 20.6094C13.9784 20.7545 13.9478 20.9629 13.8369 21.1807C13.6931 21.4629 13.4629 21.6931 13.1807 21.8369C12.9629 21.9478 12.7545 21.9784 12.6094 21.9903C12.476 22.0011 12.3235 22 12.2002 22H9.79981C9.67648 22 9.52399 22.0011 9.39063 21.9903C9.24551 21.9784 9.03713 21.9478 8.81934 21.8369C8.5371 21.6931 8.3069 21.4629 8.16309 21.1807C8.05222 20.9629 8.02163 20.7545 8.00977 20.6094C7.99891 20.476 8 20.3236 8 20.2002V20H6.9502C6.40252 20 5.94633 20.0011 5.5752 19.9707C5.19547 19.9397 4.8391 19.8719 4.50196 19.7002C3.98451 19.4366 3.56346 19.0155 3.29981 18.4981C3.1281 18.1609 3.06033 17.8046 3.0293 17.4248C2.99898 17.0537 3 16.5975 3 16.0498V7.95023C3 7.40255 2.99898 6.94636 3.0293 6.57523C3.06033 6.19549 3.1281 5.83913 3.29981 5.50198C3.56346 4.98454 3.98451 4.56349 4.50196 4.29984C4.8391 4.12812 5.19547 4.06036 5.5752 4.02933C5.94633 3.99901 6.40252 4.00003 6.9502 4.00003H8V3.79984C8 3.67651 7.99891 3.524 8.00977 3.39066C8.02163 3.24553 8.05222 3.03715 8.16309 2.81937L8.22168 2.71585C8.3658 2.48092 8.57241 2.28894 8.81934 2.16312L8.9795 2.09476C9.13688 2.03869 9.28163 2.0187 9.39063 2.0098C9.52398 1.99893 9.67649 2.00003 9.79981 2.00003H12.2002ZM10 20H12V18H10V20ZM10 13H12V11H10V13Z" fill="oklch(0.3523 0 0 / 1)" class="wd-icon-fill"></path>
</svg>