<svg width="24" height="24" viewBox="0 0 24 24" xmlns="http://www.w3.org/2000/svg" class="wd-icon wd-icon-text-paragraph" role="presentation">
<g>
<path d="M4.00196 4C3.44967 4 3.00196 4.44772 3.00196 5V13.2002C3.00195 14.0237 3.00093 14.7016 3.0459 15.252C3.09183 15.814 3.19023 16.3311 3.4375 16.8164C3.82097 17.5689 4.43304 18.181 5.18555 18.5645C5.67085 18.8117 6.18795 18.9101 6.75 18.9561C7.30038 19.001 7.97827 19 8.80176 19H17.5869L16.293 20.2939C15.9027 20.6845 15.9025 21.3176 16.293 21.708C16.6834 22.0982 17.3166 22.0982 17.707 21.708L20.707 18.708C21.0975 18.3176 21.0973 17.6845 20.707 17.2939L17.707 14.2939C17.3165 13.9035 16.6835 13.9034 16.293 14.2939C15.9027 14.6845 15.9026 15.3176 16.293 15.708L17.585 17H8.80176C7.94537 17 7.36313 16.9997 6.91309 16.9629C6.47467 16.9271 6.25015 16.8619 6.09375 16.7822C5.7175 16.5905 5.41146 16.2845 5.21973 15.9082C5.14004 15.7518 5.07488 15.5273 5.03906 15.0889C5.0023 14.6388 5.00196 14.0566 5.00196 13.2002V5C5.00196 4.44772 4.55424 4 4.00196 4Z" fill="oklch(0.3523 0 0 / 1)" class="wd-icon-fill"></path>
<path d="M9 11C8.44772 11 8 11.4477 8 12C8 12.5523 8.44772 13 9 13H14C14.5523 13 15 12.5523 15 12C15 11.4477 14.5523 11 14 11H9Z" fill="oklch(0.3523 0 0 / 1)" class="wd-icon-fill"></path>
<path d="M9 7C8.44772 7 8 7.44772 8 8C8 8.55228 8.44772 9 9 9H18C18.5523 9 19 8.55228 19 8C19 7.44772 18.5523 7 18 7H9Z" fill="oklch(0.3523 0 0 / 1)" class="wd-icon-fill"></path>
</g>
</svg>