<svg width="24" height="24" viewBox="0 0 24 24" xmlns="http://www.w3.org/2000/svg" class="wd-icon wd-icon-package-arrow-down" role="presentation">
<path d="M16.793 1C17.1908 1.00002 17.5722 1.15817 17.8535 1.43945L21.5605 5.14648C21.8418 5.42777 22 5.80924 22 6.20703V20.5C22 21.3284 21.3284 22 20.5 22H3.5C2.67157 22 2 21.3284 2 20.5V6.20703C2.00002 5.80923 2.15817 5.42777 2.43945 5.14648L6.14648 1.43945L6.25684 1.33984C6.52371 1.12123 6.85903 1.00002 7.20703 1H16.793ZM4 20H20V7H4V20ZM13 5H18.5859L16.5859 3H13V5ZM5.41406 5H11V3H7.41406L5.41406 5Z" fill="oklch(0.3523 0 0 / 1)" class="wd-icon-fill"></path>
<path d="M12.5008 9C12.7767 9.00025 13.0008 9.22401 13.0008 9.5V13H15.0662C15.4652 13.0003 15.7034 13.4452 15.4822 13.7773L12.4158 18.376C12.2179 18.6726 11.7817 18.6727 11.5838 18.376L8.51835 13.7773C8.29694 13.4451 8.5351 13.0001 8.93437 13H11.0008V9.5C11.0008 9.22386 11.2246 9 11.5008 9H12.5008Z" fill="oklch(0.3523 0 0 / 1)" class="wd-icon-accent"></path>
</svg>