<svg width="24" height="24" viewBox="0 0 24 24" xmlns="http://www.w3.org/2000/svg" class="wd-icon wd-icon-plus-small" role="presentation">
<path d="M12.4941 7C12.7702 7 12.9941 7.22386 12.9941 7.5V10.9941H16.4999C16.7761 10.9941 16.9999 11.218 16.9999 11.4941V12.4941C16.9999 12.7703 16.7761 12.9941 16.4999 12.9941H12.9941V16.5C12.9941 16.7761 12.7702 17 12.4941 17H11.4941C11.2179 17 10.9941 16.7761 10.9941 16.5V12.9941H7.49994C7.2238 12.9941 6.99994 12.7703 6.99994 12.4941V11.4941C6.99994 11.218 7.2238 10.9941 7.49994 10.9941H10.9941V7.5C10.9941 7.22386 11.2179 7 11.4941 7H12.4941Z" fill="oklch(0.3523 0 0 / 1)" class="wd-icon-fill"></path>
</svg>