<svg width="24" height="24" viewBox="0 0 24 24" xmlns="http://www.w3.org/2000/svg" class="wd-icon wd-icon-tokens" role="presentation">
<g>
<path d="M7.05405 6.04342C7.64319 5.56321 8.51182 5.59693 9.06088 6.14596L13.8539 10.9389C14.4394 11.5246 14.4393 12.4742 13.8539 13.06L9.06088 17.853C8.47513 18.4387 7.52557 18.4386 6.93979 17.853L2.14682 13.06C1.56109 12.4742 1.56108 11.5247 2.14682 10.9389L6.93979 6.14596L7.05405 6.04342ZM3.9144 11.9995L8.00034 16.0854L12.0863 11.9995L8.00034 7.91353L3.9144 11.9995Z" fill="oklch(0.3523 0 0 / 1)" class="wd-icon-fill"></path>
<path d="M15.0531 6.04439C15.6422 5.56394 16.5107 5.59789 17.0599 6.14693L21.8529 10.9399C22.4384 11.5257 22.4386 12.4753 21.8529 13.061L17.0599 17.854C16.4741 18.4391 15.5244 18.4393 14.9388 17.854L13.9173 16.8325L13.9183 16.8315L13.4476 16.3608C13.2523 16.1655 13.2523 15.849 13.4476 15.6538L14.1546 14.9467C14.3499 14.7518 14.6665 14.7516 14.8617 14.9467L15.7171 15.8022C15.7201 15.8052 15.7221 15.809 15.7249 15.812L15.9994 16.0864L20.0853 12.0004L15.9994 7.91451L14.8617 9.05221C14.6664 9.24747 14.3499 9.24747 14.1546 9.05221L13.4476 8.34518C13.2527 8.14989 13.2524 7.8333 13.4476 7.63814L14.9388 6.14693L15.0531 6.04439Z" fill="oklch(0.3523 0 0 / 1)" class="wd-icon-fill"></path>
</g>
</svg>