<svg width="24" height="24" viewBox="0 0 24 24" xmlns="http://www.w3.org/2000/svg" class="wd-icon wd-icon-link-strikethrough" role="presentation">
<g>
<path d="M4.57471 10.5863C4.96521 10.196 5.59828 10.196 5.98877 10.5863C6.37913 10.9768 6.37911 11.6099 5.98877 12.0004L5.24658 12.7426C3.58687 14.4023 3.58688 17.0936 5.24658 18.7533C6.90631 20.4129 9.59763 20.413 11.2573 18.7533L11.9995 18.0111C12.39 17.6208 13.0231 17.6207 13.4136 18.0111C13.8039 18.4016 13.8039 19.0347 13.4136 19.4252L12.6714 20.1674C10.2306 22.6081 6.2733 22.608 3.83252 20.1674C1.39177 17.7266 1.39176 13.7693 3.83252 11.3285L4.57471 10.5863Z" fill="oklch(0.3523 0 0 / 1)" class="wd-icon-fill"></path>
<path d="M8.29248 14.2934C8.68301 13.903 9.31606 13.9029 9.70654 14.2934C10.0969 14.6839 10.0969 15.3169 9.70654 15.7074L9.17139 16.2426C8.7809 16.6331 8.14786 16.633 7.75732 16.2426C7.36681 15.8521 7.3668 15.219 7.75732 14.8285L8.29248 14.2934Z" fill="oklch(0.3523 0 0 / 1)" class="wd-icon-fill"></path>
<path d="M11.3276 3.83341C13.7684 1.39283 17.7258 1.39271 20.1665 3.83341C22.6071 6.27414 22.6071 10.2315 20.1665 12.6723L19.4243 13.4145C19.0339 13.8049 18.4008 13.8048 18.0103 13.4145C17.6197 13.0239 17.6197 12.3909 18.0103 12.0004L18.7524 11.2582C20.4119 9.59851 20.412 6.90715 18.7524 5.24747C17.0928 3.58782 14.4014 3.58794 12.7417 5.24747L11.9995 5.98966C11.609 6.38015 10.976 6.38007 10.5854 5.98966C10.195 5.59913 10.195 4.96609 10.5854 4.5756L11.3276 3.83341Z" fill="oklch(0.3523 0 0 / 1)" class="wd-icon-fill"></path>
<path d="M14.8276 7.75822C15.2182 7.36784 15.8512 7.36776 16.2417 7.75822C16.6321 8.1487 16.632 8.78178 16.2417 9.17228L15.5269 9.88712C15.1364 10.2776 14.5033 10.2775 14.1128 9.88712C13.7223 9.4966 13.7223 8.86358 14.1128 8.47306L14.8276 7.75822Z" fill="oklch(0.3523 0 0 / 1)" class="wd-icon-fill"></path>
</g>
<path d="M3.28447 3.29282C3.67492 2.90236 4.30798 2.90243 4.69853 3.29282L20.7015 19.2889C21.0916 19.6793 21.0925 20.3125 20.7024 20.703C20.3122 21.0933 19.679 21.0936 19.2884 20.7039L3.28447 4.70688C2.89405 4.31646 2.89417 3.68338 3.28447 3.29282Z" fill="oklch(0.3523 0 0 / 1)" class="wd-icon-accent"></path>
</svg>