<svg width="24" height="24" viewBox="0 0 24 24" xmlns="http://www.w3.org/2000/svg" class="wd-icon wd-icon-stop" role="presentation">
<path d="M14.7998 6C15.9199 6 16.4804 5.99979 16.9082 6.21777C17.2845 6.40951 17.5905 6.71554 17.7822 7.0918C18.0002 7.51962 18 8.08009 18 9.2002V14.7998C18 15.9199 18.0002 16.4804 17.7822 16.9082C17.5905 17.2845 17.2845 17.5905 16.9082 17.7822C16.4804 18.0002 15.9199 18 14.7998 18H9.2002C8.08009 18 7.51962 18.0002 7.0918 17.7822C6.71554 17.5905 6.40951 17.2845 6.21777 16.9082C5.99979 16.4804 6 15.9199 6 14.7998V9.2002C6 8.08009 5.99979 7.51962 6.21777 7.0918C6.40951 6.71554 6.71554 6.40951 7.0918 6.21777C7.51962 5.99979 8.08009 6 9.2002 6H14.7998Z" fill="oklch(0.3523 0 0 / 1)" class="wd-icon-fill"></path>
</svg>