<svg width="24" height="24" viewBox="0 0 24 24" xmlns="http://www.w3.org/2000/svg" class="wd-icon wd-icon-instance" role="presentation">
<path d="M18.5 2C20.433 2 22 3.567 22 5.5C22 7.433 20.433 9 18.5 9C17.8971 9 17.3302 8.8466 16.835 8.57812L13.8887 11.5244C14.5873 12.5053 15 13.704 15 15C15 18.3137 12.3137 21 9 21C5.68629 21 3 18.3137 3 15C3 11.6863 5.68629 9 9 9C10.2955 9 11.4939 9.41222 12.4746 10.1104L15.4209 7.16406C15.1528 6.66906 15 6.10247 15 5.5C15 3.567 16.567 2 18.5 2Z" fill="oklch(0.3523 0 0 / 1)" class="wd-icon-fill"></path>
</svg>