<svg width="24" height="24" viewBox="0 0 24 24" xmlns="http://www.w3.org/2000/svg" class="wd-icon wd-icon-clipboard-search" role="presentation">
<g>
<path d="M16 13C18.2091 13 20 14.7909 20 17C20 17.7417 19.7971 18.4358 19.4453 19.0312L21.1035 20.6895C21.2985 20.8846 21.2984 21.2012 21.1035 21.3965L20.3965 22.1035C20.2013 22.2987 19.8847 22.2986 19.6895 22.1035L18.0312 20.4453C17.4358 20.7971 16.7417 21 16 21C13.7909 21 12 19.2091 12 17C12 14.7909 13.7909 13 16 13ZM16 15C14.8954 15 14 15.8954 14 17C14 18.1046 14.8954 19 16 19C17.1046 19 18 18.1046 18 17C18 15.8954 17.1046 15 16 15Z" fill="oklch(0.3523 0 0 / 1)" class="wd-icon-fill"></path>
<path d="M12.1797 1.00488C12.9965 1.05328 13.7236 1.43039 14.2334 2H15.5C16.1528 2.00016 16.7071 2.41771 16.9131 3H18.5C19.3284 3.00007 20 3.67161 20 4.5V11.5C20 11.7761 19.7761 12 19.5 12H18.5C18.2239 12 18 11.7761 18 11.5V5H17V6.52734C17 7.35565 16.3283 8.02715 15.5 8.02734H8.5C7.67157 8.02734 7 7.35577 7 6.52734V5H6V20H10.5C10.7761 20 11 20.2239 11 20.5V21.5C11 21.7761 10.7761 22 10.5 22H5.5C4.67163 21.9999 4 21.3284 4 20.5V4.5C4 3.67164 4.67167 3.00011 5.5 3H7.08691C7.293 2.41772 7.84712 2 8.5 2H9.76855C10.3156 1.38925 11.1119 1 12.001 1L12.1797 1.00488ZM12.001 3C11.6846 3 11.4021 3.14726 11.2168 3.38184C10.9669 3.6982 10.5391 3.99983 9.98242 4H9V6.02734H15V4H14.0186C13.4615 3.99996 13.0342 3.69752 12.7842 3.38086C12.5991 3.14634 12.3168 3.00025 12.001 3Z" fill="oklch(0.3523 0 0 / 1)" class="wd-icon-fill"></path>
<path d="M9.5 13C9.77614 13 10 13.2239 10 13.5V14.5C10 14.7761 9.77614 15 9.5 15H8.5C8.22386 15 8 14.7761 8 14.5V13.5C8 13.2239 8.22386 13 8.5 13H9.5Z" fill="oklch(0.3523 0 0 / 1)" class="wd-icon-fill"></path>
<path d="M9.5 10C9.77614 10 10 10.2239 10 10.5V11.5C10 11.7761 9.77614 12 9.5 12H8.5C8.22386 12 8 11.7761 8 11.5V10.5C8 10.2239 8.22386 10 8.5 10H9.5Z" fill="oklch(0.3523 0 0 / 1)" class="wd-icon-fill"></path>
<path d="M15.5 10C15.7761 10 16 10.2239 16 10.5V11.5C16 11.7761 15.7761 12 15.5 12H11.5C11.2239 12 11 11.7761 11 11.5V10.5C11 10.2239 11.2239 10 11.5 10H15.5Z" fill="oklch(0.3523 0 0 / 1)" class="wd-icon-fill"></path>
</g>
</svg>