<svg width="24" height="24" viewBox="0 0 24 24" xmlns="http://www.w3.org/2000/svg" class="wd-icon wd-icon-zoom-area" role="presentation">
<g>
<path d="M4.5 17C4.77614 17 5 17.2239 5 17.5V19H6.5C6.77614 19 7 19.2239 7 19.5V20.5C7 20.7761 6.77614 21 6.5 21H5C3.89543 21 3 20.1046 3 19V17.5C3 17.2239 3.22386 17 3.5 17H4.5Z" fill="oklch(0.3523 0 0 / 1)" class="wd-icon-fill"></path>
<path d="M11.5 19C11.7761 19 12 19.2239 12 19.5V20.5C12 20.7761 11.7761 21 11.5 21H9.5C9.22386 21 9 20.7761 9 20.5V19.5C9 19.2239 9.22386 19 9.5 19H11.5Z" fill="oklch(0.3523 0 0 / 1)" class="wd-icon-fill"></path>
<path d="M4.5 9C4.77614 9 5 9.22386 5 9.5V14.5C5 14.7761 4.77614 15 4.5 15H3.5C3.22386 15 3 14.7761 3 14.5V9.5C3 9.22386 3.22386 9 3.5 9H4.5Z" fill="oklch(0.3523 0 0 / 1)" class="wd-icon-fill"></path>
<path d="M20.5 9C20.7761 9 21 9.22386 21 9.5V11.5C21 11.7761 20.7761 12 20.5 12H19.5C19.2239 12 19 11.7761 19 11.5V9.5C19 9.22386 19.2239 9 19.5 9H20.5Z" fill="oklch(0.3523 0 0 / 1)" class="wd-icon-fill"></path>
<path d="M6.5 3C6.77614 3 7 3.22386 7 3.5V4.5C7 4.77614 6.77614 5 6.5 5H5V6.5C5 6.77614 4.77614 7 4.5 7H3.5C3.22386 7 3 6.77614 3 6.5V5C3 3.89543 3.89543 3 5 3H6.5Z" fill="oklch(0.3523 0 0 / 1)" class="wd-icon-fill"></path>
<path d="M19 3C20.1046 3 21 3.89543 21 5V6.5C21 6.77614 20.7761 7 20.5 7H19.5C19.2239 7 19 6.77614 19 6.5V5H17.5C17.2239 5 17 4.77614 17 4.5V3.5C17 3.22386 17.2239 3 17.5 3H19Z" fill="oklch(0.3523 0 0 / 1)" class="wd-icon-fill"></path>
<path d="M14.5 3C14.7761 3 15 3.22386 15 3.5V4.5C15 4.77614 14.7761 5 14.5 5H9.5C9.22386 5 9 4.77614 9 4.5V3.5C9 3.22386 9.22386 3 9.5 3H14.5Z" fill="oklch(0.3523 0 0 / 1)" class="wd-icon-fill"></path>
</g>
<path d="M17 13C19.2091 13 21 14.7909 21 17C21 17.7417 20.7971 18.4358 20.4453 19.0312L22.1035 20.6895C22.2985 20.8846 22.2984 21.2012 22.1035 21.3965L21.3965 22.1035C21.2013 22.2987 20.8847 22.2986 20.6895 22.1035L19.0312 20.4453C18.4358 20.7971 17.7417 21 17 21C14.7909 21 13 19.2091 13 17C13 14.7909 14.7909 13 17 13ZM17 15C15.8954 15 15 15.8954 15 17C15 18.1046 15.8954 19 17 19C18.1046 19 19 18.1046 19 17C19 15.8954 18.1046 15 17 15Z" fill="oklch(0.3523 0 0 / 1)" class="wd-icon-accent"></path>
</svg>