<svg width="24" height="24" viewBox="0 0 24 24" xmlns="http://www.w3.org/2000/svg" class="wd-icon wd-icon-save" role="presentation">
<path d="M14.0117 3.00007C14.6979 3.00007 15.2043 2.99347 15.6914 3.11042C16.0995 3.20841 16.4898 3.37063 16.8477 3.58991C17.2746 3.85164 17.6282 4.21424 18.1133 4.69929L19.3008 5.88679C19.7858 6.37183 20.1484 6.72545 20.4102 7.15241C20.6294 7.51024 20.7917 7.90059 20.8897 8.30866C21.0066 8.79578 21 9.30218 21 9.98835V15.2003C21 16.0238 21.001 16.7016 20.9561 17.252C20.9101 17.8141 20.8117 18.3312 20.5645 18.8165C20.181 19.569 19.5689 20.1811 18.8164 20.5645C18.3311 20.8118 17.814 20.9102 17.252 20.9561C16.7016 21.0011 16.0237 21.0001 15.2002 21.0001H8.79981C7.97632 21.0001 7.29843 21.0011 6.74805 20.9561C6.18599 20.9102 5.6689 20.8118 5.1836 20.5645C4.43109 20.1811 3.81902 19.569 3.43555 18.8165C3.18827 18.3312 3.08988 17.8141 3.04395 17.252C2.99898 16.7016 3 16.0238 3 15.2003V8.79987C3 7.97638 2.99898 7.29849 3.04395 6.74811C3.08988 6.18606 3.18827 5.66897 3.43555 5.18366C3.81902 4.43116 4.43109 3.81908 5.1836 3.43561C5.6689 3.18834 6.18599 3.08994 6.74805 3.04401C7.29843 2.99905 7.97632 3.00007 8.79981 3.00007H14.0117ZM10.9502 12.5001C10.3778 12.5001 9.99315 12.5003 9.69727 12.5245C9.41027 12.5479 9.27316 12.5907 9.18262 12.6368C8.9475 12.7566 8.75655 12.9476 8.63672 13.1827C8.59059 13.2732 8.54788 13.4103 8.52442 13.6973C8.50024 13.9932 8.5 14.3778 8.5 14.9503V18.9981C8.59607 18.9982 8.69592 19.0001 8.79981 19.0001H15.2002C15.3041 19.0001 15.4039 18.9982 15.5 18.9981V14.9503C15.5 14.3778 15.4998 13.9932 15.4756 13.6973C15.4521 13.4103 15.4094 13.2732 15.3633 13.1827C15.2435 12.9476 15.0525 12.7566 14.8174 12.6368C14.7268 12.5907 14.5897 12.5479 14.3027 12.5245C14.0069 12.5003 13.6222 12.5001 13.0498 12.5001H10.9502ZM6.91113 5.03718C6.47272 5.073 6.2482 5.13815 6.0918 5.21784C5.71555 5.40958 5.40951 5.71561 5.21778 6.09186C5.13809 6.24826 5.07293 6.47279 5.03711 6.9112C5.00035 7.36124 5 7.94348 5 8.79987V15.2003C5 16.0567 5.00035 16.6389 5.03711 17.0889C5.07293 17.5273 5.13809 17.7519 5.21778 17.9083C5.40951 18.2845 5.71555 18.5906 6.0918 18.7823C6.2482 18.862 6.47272 18.9271 6.91113 18.963C6.94015 18.9653 6.96985 18.9658 7 18.9678V14.9503C7 14.4026 6.99898 13.9464 7.0293 13.5753C7.06033 13.1955 7.12809 12.8392 7.29981 12.502C7.56346 11.9846 7.98451 11.5635 8.50196 11.2999C8.8391 11.1282 9.19547 11.0604 9.5752 11.0294C9.94633 10.999 10.4025 11.0001 10.9502 11.0001H13.0498C13.5975 11.0001 14.0537 10.999 14.4248 11.0294C14.8045 11.0604 15.1609 11.1282 15.498 11.2999C16.0155 11.5635 16.4365 11.9846 16.7002 12.502C16.8719 12.8392 16.9397 13.1955 16.9707 13.5753C17.001 13.9464 17 14.4026 17 14.9503V18.9678C17.0302 18.9658 17.0599 18.9653 17.0889 18.963C17.5273 18.9271 17.7518 18.862 17.9082 18.7823C18.2845 18.5906 18.5905 18.2845 18.7822 17.9083C18.8619 17.7519 18.9271 17.5273 18.9629 17.0889C18.9997 16.6389 19 16.0567 19 15.2003V9.98835C19 9.20698 18.9932 8.97886 18.9443 8.77546C18.8953 8.57154 18.8147 8.37615 18.7051 8.19733C18.5958 8.01911 18.4389 7.85298 17.8867 7.30085L16.9727 6.38679C16.9717 6.39955 16.9717 6.4123 16.9707 6.42487C16.9397 6.8046 16.8719 7.16097 16.7002 7.49811C16.4365 8.01556 16.0155 8.43661 15.498 8.70026C15.1609 8.87198 14.8045 8.93974 14.4248 8.97077C14.0537 9.00109 13.5975 9.00007 13.0498 9.00007H10.9502C10.4025 9.00007 9.94633 9.00109 9.5752 8.97077C9.19547 8.93974 8.8391 8.87198 8.50196 8.70026C7.98451 8.43661 7.56346 8.01556 7.29981 7.49811C7.12809 7.16097 7.06033 6.8046 7.0293 6.42487C6.99898 6.05374 7 5.59755 7 5.04987V5.03132C6.96982 5.0334 6.94018 5.0348 6.91113 5.03718ZM8.5 5.00104V5.04987C8.5 5.6223 8.50024 6.00692 8.52442 6.3028C8.54788 6.5898 8.59059 6.72691 8.63672 6.81745C8.75655 7.05257 8.9475 7.24352 9.18262 7.36335C9.27316 7.40948 9.41027 7.45219 9.69727 7.47565C9.99315 7.49983 10.3778 7.50007 10.9502 7.50007H13.0498C13.6222 7.50007 14.0069 7.49983 14.3027 7.47565C14.5897 7.45219 14.7268 7.40948 14.8174 7.36335C15.0525 7.24352 15.2435 7.05257 15.3633 6.81745C15.4094 6.72691 15.4521 6.5898 15.4756 6.3028C15.4984 6.02337 15.4989 5.66479 15.499 5.14362C15.4098 5.10804 15.3182 5.07823 15.2246 5.05573C15.0212 5.0069 14.7931 5.00007 14.0117 5.00007H8.79981C8.69592 5.00007 8.59607 5.00097 8.5 5.00104Z" fill="oklch(0.3523 0 0 / 1)" class="wd-icon-fill"></path>
</svg>