<svg width="24" height="24" viewBox="0 0 24 24" xmlns="http://www.w3.org/2000/svg" class="wd-icon wd-icon-signpost" role="presentation">
<path d="M18.4996 2C19.3281 2 19.9996 2.67157 19.9996 3.5V8.5C19.9996 9.32843 19.3281 10 18.4996 10H12.9996V12H17.7321C18.2335 12 18.7019 12.2508 18.9801 12.668L20.6471 15.168L20.7057 15.2637C20.9632 15.7204 20.9632 16.2796 20.7057 16.7363L20.6471 16.832L18.9801 19.332C18.7019 19.7492 18.2335 20 17.7321 20H12.9996V22.5C12.9996 22.7761 12.7758 23 12.4996 23H11.4996C11.2237 22.9997 10.9996 22.776 10.9996 22.5V20H5.49964C4.67143 19.9997 3.99964 19.3283 3.99964 18.5V13.5C3.99964 12.6717 4.67143 12.0003 5.49964 12H10.9996V10H6.26721C5.76587 9.99984 5.29728 9.74919 5.01917 9.33203L3.35218 6.83203L3.29358 6.73633C3.03625 6.27971 3.03625 5.72029 3.29358 5.26367L3.35218 5.16797L5.01917 2.66797C5.29727 2.25081 5.76587 2.00016 6.26721 2H18.4996ZM5.99964 18H17.4655L18.7985 16L17.4655 14H5.99964V18ZM5.20081 6L6.53382 8H17.9996V4H6.53382L5.20081 6Z" fill="oklch(0.3523 0 0 / 1)" class="wd-icon-fill"></path>
</svg>