<svg width="24" height="24" viewBox="0 0 24 24" xmlns="http://www.w3.org/2000/svg" class="wd-icon wd-icon-operator" role="presentation">
<g>
<path d="M17 18.75C17.6904 18.75 18.25 19.3096 18.25 20C18.25 20.6904 17.6904 21.25 17 21.25C16.3096 21.25 15.75 20.6904 15.75 20C15.75 19.3096 16.3096 18.75 17 18.75Z" fill="oklch(0.3523 0 0 / 1)" class="wd-icon-fill"></path>
<path d="M8.54492 14.0381C8.93544 13.6478 9.56951 13.6477 9.95996 14.0381C10.35 14.4285 10.3499 15.0617 9.95996 15.4521L8.41895 16.9922L9.96777 18.54C10.358 18.9305 10.3579 19.5646 9.96777 19.9551C9.57731 20.3455 8.94327 20.3454 8.55273 19.9551L7.00488 18.4062L5.45703 19.9551C5.0666 20.3451 4.4334 20.3451 4.04297 19.9551C3.65256 19.5646 3.65263 18.9306 4.04297 18.54L5.58984 16.9922L4.05078 15.4521C3.66032 15.0616 3.66028 14.4286 4.05078 14.0381C4.44132 13.648 5.07444 13.6478 5.46484 14.0381L7.00488 15.5771L8.54492 14.0381Z" fill="oklch(0.3523 0 0 / 1)" class="wd-icon-fill"></path>
<path d="M20 16C20.5523 16 21 16.4477 21 17C21 17.5523 20.5523 18 20 18H14C13.4477 18 13 17.5523 13 17C13 16.4477 13.4477 16 14 16H20Z" fill="oklch(0.3523 0 0 / 1)" class="wd-icon-fill"></path>
<path d="M17 12.75C17.6904 12.75 18.25 13.3096 18.25 14C18.25 14.6904 17.6904 15.25 17 15.25C16.3096 15.25 15.75 14.6904 15.75 14C15.75 13.3096 16.3096 12.75 17 12.75Z" fill="oklch(0.3523 0 0 / 1)" class="wd-icon-fill"></path>
<path d="M7 3C7.55228 3 8 3.44772 8 4V6H10C10.5523 6 11 6.44772 11 7C11 7.55228 10.5523 8 10 8H8V10C8 10.5523 7.55228 11 7 11C6.44772 11 6 10.5523 6 10V8H4C3.44772 8 3 7.55228 3 7C3 6.44772 3.44772 6 4 6H6V4C6 3.44772 6.44772 3 7 3Z" fill="oklch(0.3523 0 0 / 1)" class="wd-icon-fill"></path>
<path d="M19.5 6C20.0523 6 20.5 6.44772 20.5 7C20.5 7.55228 20.0523 8 19.5 8H14.5C13.9477 8 13.5 7.55228 13.5 7C13.5 6.44772 13.9477 6 14.5 6H19.5Z" fill="oklch(0.3523 0 0 / 1)" class="wd-icon-fill"></path>
</g>
</svg>