<svg width="24" height="24" viewBox="0 0 24 24" xmlns="http://www.w3.org/2000/svg" class="wd-icon wd-icon-data-source" role="presentation">
<path d="M12 2C14.3307 2 16.4907 2.47043 18.1045 3.27734C19.6583 4.05437 21 5.31275 21 7V17C21 17.8025 20.6809 18.5416 20.1611 19.1689C19.6472 19.7893 18.9338 20.308 18.1045 20.7227C17.271 21.1394 16.3041 21.4595 15.2646 21.6748C14.2235 21.8904 13.1147 22 12 22C10.8853 22 9.77653 21.8904 8.73535 21.6748C7.69589 21.4595 6.72896 21.1394 5.89551 20.7227C5.06623 20.308 4.35283 19.7893 3.83887 19.1689C3.31914 18.5416 3 17.8025 3 17V7C3 5.31275 4.34167 4.05437 5.89551 3.27734C7.50934 2.47043 9.66928 2 12 2ZM19 10.1992C18.7157 10.3923 18.4147 10.5675 18.1045 10.7227C16.4907 11.5296 14.3307 12 12 12C9.66928 12 7.50934 11.5296 5.89551 10.7227C5.58533 10.5675 5.28428 10.3923 5 10.1992V17C5 17.2481 5.09468 17.5494 5.37891 17.8926C5.66886 18.2426 6.13404 18.6055 6.79004 18.9336C7.44223 19.2597 8.23998 19.5291 9.1416 19.7158C10.0416 19.9022 11.0136 20 12 20C12.9864 20 13.9584 19.9022 14.8584 19.7158C15.76 19.5291 16.5578 19.2597 17.21 18.9336C17.866 18.6055 18.3311 18.2426 18.6211 17.8926C18.9053 17.5494 19 17.2481 19 17V10.1992ZM12 4C9.91244 4 8.07164 4.42561 6.79004 5.06641C5.44895 5.73706 5 6.47831 5 7C5 7.52169 5.44895 8.26294 6.79004 8.93359C8.07164 9.57439 9.91244 10 12 10C14.0876 10 15.9284 9.57439 17.21 8.93359C18.551 8.26294 19 7.52169 19 7C19 6.47831 18.551 5.73706 17.21 5.06641C15.9284 4.42561 14.0876 4 12 4Z" fill="oklch(0.3523 0 0 / 1)" class="wd-icon-fill"></path>
</svg>