<svg width="24" height="24" viewBox="0 0 24 24" xmlns="http://www.w3.org/2000/svg" class="wd-icon wd-icon-sparkle" role="presentation">
<path d="M12 2C12.5523 2 12.9942 2.44945 13.0548 2.9984C13.5153 7.1713 16.8287 10.4847 21.0016 10.9452C21.5506 11.0058 22 11.4477 22 12C22 12.5523 21.5506 12.9942 21.0016 13.0548C16.8287 13.5153 13.5153 16.8287 13.0548 21.0016C12.9942 21.5506 12.5523 22 12 22C11.4477 22 11.0058 21.5506 10.9452 21.0016C10.4847 16.8287 7.1713 13.5153 2.9984 13.0548C2.44945 12.9942 2 12.5523 2 12C2 11.4477 2.44945 11.0058 2.9984 10.9452C7.1713 10.4847 10.4847 7.1713 10.9452 2.9984C11.0058 2.44945 11.4477 2 12 2Z" fill="oklch(0.3523 0 0 / 1)" class="wd-icon-fill"></path>
</svg>