<svg width="24" height="24" viewBox="0 0 24 24" xmlns="http://www.w3.org/2000/svg" class="wd-icon wd-icon-document-list" role="presentation">
<path d="M18.5 2H5.5C5.22386 2 5 2.22386 5 2.5V21.5C5 21.7761 5.22386 22 5.5 22H18.5C18.7761 22 19 21.7761 19 21.5V2.5C19 2.22386 18.7761 2 18.5 2Z" fill="transparent" class="wd-icon-background"></path>
<path d="M18.5 1C19.3284 1 20 1.67157 20 2.5V21.5C20 22.3284 19.3284 23 18.5 23H5.5C4.67157 23 4 22.3284 4 21.5V2.5C4 1.67157 4.67157 1 5.5 1H18.5ZM6 21H18V3H6V21Z" fill="oklch(0.3523 0 0 / 1)" class="wd-icon-fill"></path>
<g>
<path d="M10 13.5C10 13.7761 9.77614 14 9.5 14H8.5C8.22386 14 8 13.7761 8 13.5V12.5C8 12.2239 8.22386 12 8.5 12H9.5C9.77614 12 10 12.2239 10 12.5V13.5Z" fill="oklch(0.3523 0 0 / 1)" class="wd-icon-accent"></path>
<path d="M16 13.5C16 13.7761 15.7761 14 15.5 14H11.5C11.2239 14 11 13.7761 11 13.5V12.5C11 12.2239 11.2239 12 11.5 12H15.5C15.7761 12 16 12.2239 16 12.5V13.5Z" fill="oklch(0.3523 0 0 / 1)" class="wd-icon-accent"></path>
<path d="M10 10.5C10 10.7761 9.77614 11 9.5 11H8.5C8.22386 11 8 10.7761 8 10.5V9.5C8 9.22386 8.22386 9 8.5 9H9.5C9.77614 9 10 9.22386 10 9.5V10.5Z" fill="oklch(0.3523 0 0 / 1)" class="wd-icon-accent"></path>
<path d="M16 10.5C16 10.7761 15.7761 11 15.5 11H11.5C11.2239 11 11 10.7761 11 10.5V9.5C11 9.22386 11.2239 9 11.5 9H15.5C15.7761 9 16 9.22386 16 9.5V10.5Z" fill="oklch(0.3523 0 0 / 1)" class="wd-icon-accent"></path>
<path d="M10 7.5C10 7.77614 9.77614 8 9.5 8H8.5C8.22386 8 8 7.77614 8 7.5V6.5C8 6.22386 8.22386 6 8.5 6H9.5C9.77614 6 10 6.22386 10 6.5V7.5Z" fill="oklch(0.3523 0 0 / 1)" class="wd-icon-accent"></path>
<path d="M16 7.5C16 7.77614 15.7761 8 15.5 8H11.5C11.2239 8 11 7.77614 11 7.5V6.5C11 6.22386 11.2239 6 11.5 6H15.5C15.7761 6 16 6.22386 16 6.5V7.5Z" fill="oklch(0.3523 0 0 / 1)" class="wd-icon-accent"></path>
</g>
</svg>