<svg width="24" height="24" viewBox="0 0 24 24" xmlns="http://www.w3.org/2000/svg" class="wd-icon wd-icon-fan-chart" role="presentation">
<path d="M2 16L10 7L14 9L21 3.75V9.625L14 14L10 12L2 16Z" fill="transparent" class="wd-icon-background"></path>
<path d="M20.4008 2.95002C20.7037 2.72316 21.1091 2.68602 21.4476 2.85529C21.7862 3.02464 22.0002 3.37127 22.0004 3.74983V16.4998C22.0004 16.8784 21.7861 17.2249 21.4476 17.3944L14.4476 20.8944C14.0626 21.0868 13.5977 21.0112 13.2933 20.7069L9.58631 16.9998H2.00037C1.60658 16.9998 1.24958 16.7682 1.08826 16.409C0.927279 16.0499 0.991823 15.6299 1.2533 15.3358L9.2533 6.33576L9.37439 6.22053C9.67488 5.97924 10.094 5.92847 10.4476 6.10529L13.8949 7.82893L20.4008 2.95002ZM14.5306 14.8475C14.2353 15.0321 13.8647 15.0501 13.5531 14.8944L10.0004 13.118L6.2367 14.9998H10.0004C10.2654 14.9999 10.52 15.1054 10.7074 15.2928L14.1976 18.783L20.0004 15.8817V11.4285L14.5306 14.8475ZM14.6 9.79963C14.297 10.0268 13.8918 10.0637 13.5531 9.89436L10.2377 8.23615L6.19568 12.783L9.55311 11.1053C9.83453 10.9648 10.1663 10.9646 10.4476 11.1053L13.9457 12.8543L20.0004 9.07014V5.74885L14.6 9.79963Z" fill="oklch(0.3523 0 0 / 1)" class="wd-icon-fill"></path>
</svg>