<svg width="24" height="24" viewBox="0 0 24 24" xmlns="http://www.w3.org/2000/svg" class="wd-icon wd-icon-info-sparkle" role="presentation">
<path d="M23 12C23 18.0751 18.0751 23 12 23C5.92487 23 1 18.0751 1 12C1 5.92487 5.92487 1 12 1C18.0751 1 23 5.92487 23 12Z" fill="transparent" class="wd-icon-background"></path>
<g>
<path d="M7.24286 2.08203C9.21389 1.13671 11.4198 0.801381 13.5759 1.11328C13.8487 1.15317 14.027 1.41664 13.9753 1.6875L13.8806 2.17871L13.7878 2.66895C13.7359 2.93988 13.4733 3.11545 13.1999 3.0791C11.4643 2.84598 9.69247 3.12534 8.10711 3.88574C6.37153 4.71867 4.94758 6.08685 4.04657 7.78809C3.14562 9.48976 2.81452 11.4368 3.10125 13.3408C3.3882 15.2447 4.27805 17.0075 5.64032 18.3682C7.00263 19.7286 8.76643 20.6167 10.6706 20.9014C12.5745 21.1857 14.5211 20.8519 16.2214 19.9492C17.9216 19.0461 19.289 17.6204 20.1198 15.8838C20.8784 14.2976 21.1548 12.5254 20.9196 10.79C20.8829 10.5165 21.0597 10.2542 21.3307 10.2021L22.3122 10.0137C22.5829 9.96208 22.8465 10.1394 22.8864 10.4121C23.2007 12.568 22.8667 14.7739 21.9235 16.7461C20.9081 18.8688 19.238 20.611 17.1598 21.7148C15.0815 22.8184 12.702 23.2265 10.3747 22.8789C8.04751 22.531 5.89221 21.4459 4.22723 19.7832C2.56218 18.1201 1.47439 15.9658 1.12371 13.6387C0.773254 11.3116 1.17788 8.93235 2.27899 6.85254C3.38034 4.77292 5.1212 3.10007 7.24286 2.08203Z" fill="oklch(0.3523 0 0 / 1)" class="wd-icon-fill"></path>
<path d="M12.6257 10C12.9013 10.0004 13.1255 10.2243 13.1257 10.5V16.5C13.1255 16.7757 12.9013 16.9996 12.6257 17H11.3757C11.0997 16.9999 10.8758 16.7759 10.8757 16.5V10.5C10.8759 10.2241 11.0998 10.0001 11.3757 10H12.6257Z" fill="oklch(0.3523 0 0 / 1)" class="wd-icon-fill"></path>
<path d="M12.0007 6C12.8287 6.0003 13.5005 6.67193 13.5007 7.5C13.5005 8.3281 12.8287 8.9997 12.0007 9C11.1723 9 10.5008 8.32828 10.5007 7.5C10.5009 6.67175 11.1724 6 12.0007 6Z" fill="oklch(0.3523 0 0 / 1)" class="wd-icon-fill"></path>
<path d="M19.4997 0C19.7757 0 19.9967 0.225173 20.0309 0.499023C20.2562 2.30917 21.6905 3.74445 23.5007 3.96973C23.7745 4.00381 23.9994 4.22408 23.9997 4.5C23.9997 4.77614 23.7747 4.99715 23.5007 5.03125C21.6907 5.25651 20.2564 6.69108 20.0309 8.50098C19.9968 8.77501 19.7758 9 19.4997 9C19.2236 8.99999 19.0025 8.775 18.9684 8.50098C18.743 6.69107 17.3087 5.25649 15.4987 5.03125C15.2247 4.99714 14.9997 4.77614 14.9997 4.5C14.9999 4.22408 15.2248 4.00382 15.4987 3.96973C17.3089 3.74446 18.7432 2.30918 18.9684 0.499023C19.0027 0.225178 19.2237 1.39657e-05 19.4997 0Z" fill="oklch(0.3523 0 0 / 1)" class="wd-icon-fill"></path>
</g>
</svg>