<svg width="24" height="24" viewBox="0 0 24 24" xmlns="http://www.w3.org/2000/svg" class="wd-icon wd-icon-actuals-finance" role="presentation">
<path d="M19.5 12C19.7761 12 20 12.2239 20 12.5V13.2627C21.0974 13.3717 21.9857 14.1901 22.2002 15.2529C22.2548 15.5236 22.0261 15.75 21.75 15.75H21.25C20.9739 15.75 20.7605 15.5127 20.6279 15.2705C20.4581 14.9603 20.1285 14.7501 19.75 14.75H18.7334C18.1903 14.75 17.75 15.1903 17.75 15.7334C17.75 16.1568 18.0932 16.5 18.5166 16.5H19.9834C21.2351 16.5 22.2499 17.5149 22.25 18.7666C22.25 20.0594 21.2621 21.1206 20 21.2383V21.5C20 21.7761 19.7761 22 19.5 22H19C18.7239 22 18.5 21.7761 18.5 21.5V21.2363C17.4027 21.1272 16.5144 20.3099 16.2998 19.2471C16.2452 18.9764 16.4739 18.75 16.75 18.75H17.25C17.5261 18.75 17.7395 18.9873 17.8721 19.2295C18.0419 19.5397 18.3715 19.7499 18.75 19.75H19.7666C20.3097 19.75 20.75 19.3097 20.75 18.7666C20.7499 18.3432 20.4068 18 19.9834 18H18.5166C17.2648 18 16.25 16.9852 16.25 15.7334C16.25 14.4406 17.2379 13.3784 18.5 13.2607V12.5C18.5 12.2239 18.7239 12 19 12H19.5Z" fill="oklch(0.3523 0 0 / 1)" class="wd-icon-accent"></path>
<path d="M19.9394 2.64643C20.1347 2.4512 20.4512 2.45118 20.6464 2.64643L21.3535 3.35346C21.5486 3.54872 21.5487 3.86526 21.3535 4.06049L19.0605 6.35346C19.0504 6.36355 19.038 6.37078 19.0273 6.37983C19.6963 7.21644 20.2135 8.16767 20.5497 9.19135C20.6359 9.4537 20.4766 9.72925 20.2099 9.80072L19.2441 10.0595C18.9776 10.1307 18.7056 9.97148 18.6152 9.71088C18.2093 8.538 17.4975 7.49014 16.5497 6.67963C15.4751 5.76064 14.1463 5.18865 12.7402 5.03901C11.3343 4.88956 9.91561 5.16962 8.67182 5.84174C7.42789 6.51415 6.41562 7.54831 5.77045 8.80658C5.12551 10.0648 4.87651 11.4892 5.05658 12.8915C5.23675 14.2941 5.83802 15.6095 6.78022 16.664C7.72244 17.7184 8.9624 18.4625 10.3359 18.7988C11.547 19.0951 12.8128 19.0627 14.0019 18.708C14.2665 18.6292 14.5547 18.7573 14.6523 19.0156L14.829 19.4833L15.0048 19.9501C15.1025 20.2084 14.9732 20.4988 14.7099 20.582C13.1416 21.0773 11.464 21.1346 9.86029 20.7421C8.58354 20.4296 7.3972 19.8418 6.37983 19.0283C6.37092 19.0388 6.36337 19.0506 6.35346 19.0605L4.06049 21.3535C3.86526 21.5487 3.54872 21.5486 3.35346 21.3535L2.64643 20.6464C2.45118 20.4512 2.4512 20.1347 2.64643 19.9394L4.9394 17.6464C4.94929 17.6365 4.96017 17.628 4.97065 17.6191C3.94231 16.3326 3.28381 14.7861 3.07319 13.1464C2.84158 11.3431 3.16169 9.5114 3.99115 7.8935C4.26747 7.35462 4.59615 6.84801 4.97065 6.37983C4.96034 6.37107 4.94913 6.36319 4.9394 6.35346L2.64643 4.06049C2.45118 3.86524 2.4512 3.54872 2.64643 3.35346L3.35346 2.64643C3.54872 2.4512 3.86524 2.45118 4.06049 2.64643L6.35346 4.9394C6.36337 4.94931 6.37092 4.96111 6.37983 4.97162C6.79747 4.63778 7.24584 4.33961 7.72065 4.08295C9.32005 3.21853 11.1442 2.85846 12.9521 3.05072C14.661 3.2326 16.2799 3.90019 17.6191 4.97065C17.628 4.96017 17.6365 4.94929 17.6464 4.9394L19.9394 2.64643Z" fill="oklch(0.3523 0 0 / 1)" class="wd-icon-fill"></path>
</svg>