<svg width="24" height="24" viewBox="0 0 24 24" xmlns="http://www.w3.org/2000/svg" class="wd-icon wd-icon-remove-zero" role="presentation">
<g>
<path d="M8.21276 15.0244C8.54409 14.7926 8.99973 15.0292 8.99987 15.4336V16.9736H17.9999C18.552 16.9737 18.9997 17.4215 18.9999 17.9736C18.9999 18.5259 18.5521 18.9736 17.9999 18.9736H8.99987V20.5127C8.99987 20.9172 8.54414 21.1547 8.21276 20.9229L4.58483 18.3828C4.30052 18.1837 4.30048 17.7625 4.58483 17.5635L8.21276 15.0244Z" fill="oklch(0.3523 0 0 / 1)" class="wd-icon-fill"></path>
<path d="M12.6385 2.87109C13.8339 2.87109 14.7558 3.37212 15.3505 4.36719L15.4559 4.54785C15.9635 5.46541 16.2059 6.60438 16.2059 7.94336C16.2059 8.88069 16.0867 9.72871 15.8446 10.4834C15.6069 11.2421 15.2217 11.8611 14.6776 12.3193L14.6766 12.3184C14.1264 12.789 13.4382 13.0146 12.6385 13.0146C11.4364 13.0145 10.5088 12.52 9.91295 11.5303L9.911 11.5264C9.35151 10.5723 9.08388 9.37019 9.08385 7.94336C9.08387 7.01426 9.19782 6.17388 9.43151 5.42773L9.43346 5.42383C9.6792 4.66849 10.063 4.04923 10.5946 3.58398C11.145 3.1024 11.8361 2.87118 12.6385 2.87109ZM12.6385 4.66309C12.2924 4.66319 12.0357 4.78162 11.8358 5.0127C11.6141 5.26912 11.4376 5.63704 11.327 6.13965C11.2226 6.64566 11.1698 7.24666 11.1698 7.94336C11.1698 9.02048 11.307 9.85026 11.5604 10.4521L11.659 10.6465C11.7625 10.8242 11.8802 10.9523 12.0067 11.041C12.1732 11.1575 12.3785 11.2226 12.6385 11.2227C12.9959 11.2227 13.2563 11.1027 13.4549 10.873C13.6781 10.6149 13.8526 10.2485 13.9628 9.75293C14.0746 9.24929 14.1336 8.64734 14.1337 7.94336C14.1336 6.86396 13.9914 6.03884 13.7303 5.44727L13.6307 5.24805C13.5268 5.06778 13.4081 4.93762 13.2801 4.84766C13.1118 4.7295 12.9029 4.66309 12.6385 4.66309Z" fill="oklch(0.3523 0 0 / 1)" class="wd-icon-fill"></path>
<path d="M7.49987 11C7.77601 11 7.99987 11.2239 7.99987 11.5V12.5C7.99987 12.7761 7.77601 13 7.49987 13H6.49987C6.2239 12.9998 5.99987 12.776 5.99987 12.5V11.5C5.99987 11.224 6.2239 11.0002 6.49987 11H7.49987Z" fill="oklch(0.3523 0 0 / 1)" class="wd-icon-fill"></path>
</g>
</svg>