<svg width="24" height="24" viewBox="0 0 24 24" xmlns="http://www.w3.org/2000/svg" class="wd-icon wd-icon-puzzle" role="presentation">
<path d="M14.2832 7.21094C14.5797 7.50731 15.0272 7.58796 15.4062 7.41797C15.7738 7.25288 16 6.88833 16 6.49902C16.0002 5.67107 16.6719 4.99931 17.5 4.99902C18.3283 4.99902 19.0007 5.67079 19.001 6.49902C19.0009 7.27568 18.4097 7.91436 17.6533 7.99121L17.5 8C17.1107 8.00013 16.747 8.22626 16.582 8.59375C16.412 8.9728 16.4925 9.42027 16.7891 9.7168L19.7754 12.7031L18.5381 13.9404C17.9937 13.3992 17.2562 13.0491 16.4375 13.002L16.248 12.9961C14.4537 12.9966 12.999 14.4513 12.999 16.2461C12.9992 17.1402 13.3618 17.9486 13.9443 18.5342L12.7041 19.7744L9.71777 16.7881C9.41881 16.4893 8.97248 16.4132 8.59766 16.5801C8.23278 16.7428 8.00098 17.1047 8.00098 17.5L7.99219 17.6533C7.92024 18.3588 7.35985 18.9193 6.6543 18.9912L6.50098 18.999C5.72435 18.999 5.08568 18.4087 5.00879 17.6523L5 17.499C5.00022 16.671 5.67197 15.9993 6.5 15.999L6.64648 15.9883C6.98261 15.9389 7.27759 15.7216 7.41992 15.4023C7.58681 15.0275 7.51059 14.5812 7.21191 14.2822L4.22168 11.292L5.46094 10.0527C6.04641 10.6358 6.85529 10.9998 7.75 11L7.91699 10.9951C9.63428 10.9081 11 9.4879 11 7.74902C10.9999 6.85463 10.6375 6.04566 10.0547 5.45996L11.293 4.2207L14.2832 7.21094Z" fill="transparent" class="wd-icon-background"></path>
<path d="M9.8793 2.80625C10.6605 2.02515 11.9266 2.02589 12.7074 2.80625L14.5375 4.63633C15.1573 3.65279 16.2523 2.99872 17.5004 2.99863C19.4332 2.99866 21.0002 4.56583 21.0004 6.49863C21.0004 7.74681 20.3463 8.84179 19.3627 9.46152L21.1898 11.2887C21.9701 12.0695 21.9709 13.3356 21.1898 14.1168L19.6498 15.6568C19.2427 16.0638 18.7127 16.1466 18.2914 16.0768C17.8798 16.0083 17.487 15.7878 17.2133 15.4537C17.0116 15.2076 16.7218 15.0412 16.392 15.0035L16.2484 14.9957C15.5582 14.9959 14.9987 15.5549 14.9984 16.2447C14.9985 16.633 15.1751 16.9791 15.4564 17.2096L15.5775 17.318C15.8445 17.5817 16.0205 17.9267 16.0805 18.2867C16.1505 18.7082 16.0677 19.2389 15.6605 19.6461L14.1186 21.1881C13.3376 21.9686 12.0713 21.9684 11.2904 21.1881L9.46328 19.3609C8.87378 20.2969 7.85411 20.9341 6.68105 20.9937L6.50039 20.9986C4.62804 20.9984 3.0991 19.5274 3.00527 17.6783L3.00039 17.4986C3.00059 16.2505 3.65454 15.1552 4.63809 14.5357L2.80801 12.7057C2.02756 11.9248 2.02752 10.6585 2.80801 9.87754L4.34902 8.33554C4.75629 7.92858 5.28699 7.84548 5.7084 7.91562C6.1201 7.98422 6.51199 8.20608 6.78555 8.54062C7.0161 8.82244 7.36238 8.99945 7.75039 8.99961L7.87734 8.99277C8.50776 8.92875 9.00039 8.39587 9.00039 7.74863C9.0003 7.36039 8.82394 7.01437 8.54238 6.78379C8.20796 6.51021 7.98596 6.11831 7.91738 5.70664C7.84729 5.28526 7.93033 4.75451 8.3373 4.34726L9.8793 2.80625ZM10.0541 5.45859C10.6371 6.04433 11.0003 6.854 11.0004 7.74863C11.0004 9.48741 9.63453 10.9076 7.91738 10.9947L7.75039 10.9996C6.85575 10.9994 6.04679 10.6353 5.46133 10.0523L4.22207 11.2916L7.2123 14.2809C7.51108 14.5798 7.58717 15.0271 7.42031 15.4019C7.27802 15.7211 6.98287 15.9384 6.64687 15.9879L6.50039 15.9986C5.67229 15.9988 5.00061 16.6705 5.00039 17.4986L5.0082 17.6519C5.08508 18.4082 5.72395 18.9984 6.50039 18.9986L6.65371 18.9908C7.35934 18.919 7.92062 18.3585 7.99258 17.6529L8.00039 17.4996C8.00039 17.1044 8.23235 16.7424 8.59707 16.5797C8.97195 16.4127 9.41914 16.4888 9.71816 16.7877L12.7045 19.774L13.9447 18.5338C13.362 17.9481 12.9985 17.1391 12.9984 16.2447C12.9987 14.45 14.4541 12.996 16.2484 12.9957L16.4379 13.0016C17.2566 13.0488 17.9942 13.3988 18.5385 13.94L19.7758 12.7027L16.7895 9.7164C16.493 9.41992 16.4115 8.97238 16.5814 8.59336C16.7465 8.22569 17.111 7.99961 17.5004 7.99961L17.6537 7.99082C18.41 7.91391 19.0004 7.27525 19.0004 6.49863C19.0002 5.67039 18.3287 4.99866 17.5004 4.99863C16.6721 4.99873 15.9996 5.67054 15.9994 6.49863C15.9994 6.88801 15.7734 7.25253 15.4057 7.41758C15.0268 7.58735 14.58 7.50665 14.2836 7.21054L11.2934 4.22031L10.0541 5.45859Z" fill="oklch(0.3523 0 0 / 1)" class="wd-icon-fill"></path>
</svg>