<svg width="24" height="24" viewBox="0 0 24 24" xmlns="http://www.w3.org/2000/svg" class="wd-icon wd-icon-button-edit" role="presentation">
<g>
<path d="M5.5 8C5.77614 8 6 8.22386 6 8.5V9.5C6 9.77614 5.77614 10 5.5 10H3V16H21V10H18.5C18.2239 10 18 9.77614 18 9.5V8.5C18 8.22386 18.2239 8 18.5 8H21.5C22.3284 8 23 8.67158 23 9.5V16.5C23 17.3284 22.3284 18 21.5 18H2.5C1.67157 18 1 17.3284 1 16.5V9.5C1 8.67158 1.67158 8 2.5 8H5.5Z" fill="oklch(0.3523 0 0 / 1)" class="wd-icon-fill"></path>
<path d="M14.499 3C15.3946 2.99895 16.2942 3.34112 16.9785 4.02539C17.6626 4.7097 18.0041 5.60941 18.0029 6.50489C18.0025 6.76965 17.8973 7.0238 17.71 7.21094L10.207 14.707C10.0195 14.8944 9.76505 15 9.5 15H7C6.44778 15 6.0001 14.5522 6 14V11.5C6 11.2348 6.10549 10.9805 6.29297 10.793L13.793 3.29297L13.8662 3.22656C14.0438 3.081 14.2674 3.00029 14.499 3ZM8 11.9141V13H9.08496L13.3369 8.75098L12.249 7.66309L8 11.9141ZM13.6631 6.24903L14.751 7.33692L15.9561 6.13477C15.8924 5.87993 15.7629 5.63885 15.5635 5.43946C15.3637 5.23975 15.1225 5.10941 14.8672 5.0459L13.6631 6.24903Z" fill="oklch(0.3523 0 0 / 1)" class="wd-icon-fill"></path>
</g>
</svg>