<svg width="24" height="24" viewBox="0 0 24 24" xmlns="http://www.w3.org/2000/svg" class="wd-icon wd-icon-laptop" role="presentation">
<path d="M16.7998 5C17.3434 5 17.8116 4.99893 18.1953 5.03028C18.5906 5.06259 18.984 5.1344 19.3623 5.32715C19.9265 5.61473 20.3853 6.07348 20.6729 6.6377C20.8656 7.016 20.9374 7.40944 20.9697 7.80469C21.0011 8.18836 21 8.65665 21 9.2002V17H22.5C22.7761 17 23 17.2239 23 17.5C23 18.3284 22.3284 19 21.5 19H2.5C1.67157 19 1 18.3284 1 17.5C1.00001 17.2239 1.22386 17 1.5 17H3V9.2002C3 8.65665 2.99893 8.18836 3.03027 7.80469C3.06258 7.40944 3.1344 7.016 3.32715 6.6377C3.61472 6.07348 4.07347 5.61473 4.6377 5.32715C5.01599 5.1344 5.40943 5.06259 5.80469 5.03028C6.18836 4.99893 6.65664 5 7.2002 5H16.7998ZM7.2002 7C6.62364 7 6.25111 7.00127 5.96777 7.02442C5.69619 7.04662 5.59534 7.08419 5.5459 7.10938C5.35793 7.20522 5.20522 7.35793 5.10938 7.5459C5.08419 7.59534 5.04661 7.69619 5.02441 7.96778C5.00126 8.25111 5 8.62365 5 9.2002V17H19V9.2002C19 8.62365 18.9987 8.25111 18.9756 7.96778C18.9534 7.69619 18.9158 7.59534 18.8906 7.5459C18.7948 7.35793 18.6421 7.20522 18.4541 7.10938C18.4047 7.08419 18.3038 7.04662 18.0322 7.02442C17.7489 7.00127 17.3764 7 16.7998 7H7.2002Z" fill="oklch(0.3523 0 0 / 1)" class="wd-icon-fill"></path>
</svg>