<svg width="24" height="24" viewBox="0 0 24 24" xmlns="http://www.w3.org/2000/svg" class="wd-icon wd-icon-user-x" role="presentation">
<g>
<path d="M12.0009 12C12.5531 12.0001 13.0009 12.4478 13.0009 13C13.0009 13.5522 12.5531 13.9999 12.0009 14C10.0286 14 8.33676 14.3759 7.12592 15.1162C5.99039 15.8106 5.23794 16.8453 5.04877 18.3525C6.18163 18.5977 8.55938 19 12.0009 19C12.5531 19.0001 13.0009 19.4478 13.0009 20C13.0009 20.5522 12.5531 20.9999 12.0009 21C8.27814 21 5.70855 20.5517 4.49799 20.2812C3.60276 20.0811 2.94473 19.254 3.04291 18.2852L3.09564 17.874C3.41327 15.8533 4.51133 14.3712 6.08295 13.4102C7.7174 12.4108 9.81434 12 12.0009 12Z" fill="oklch(0.3523 0 0 / 1)" class="wd-icon-fill"></path>
<path d="M12.0009 1.5C14.4861 1.5001 16.5009 3.51478 16.5009 6C16.5009 8.48522 14.4861 10.4999 12.0009 10.5C9.51564 10.5 7.50092 8.48528 7.50092 6C7.50092 3.51472 9.51564 1.5 12.0009 1.5ZM12.0009 3.5C10.6202 3.5 9.50092 4.61929 9.50092 6C9.50092 7.38071 10.6202 8.5 12.0009 8.5C13.3815 8.4999 14.5009 7.38065 14.5009 6C14.5009 4.61935 13.3815 3.5001 12.0009 3.5Z" fill="oklch(0.3523 0 0 / 1)" class="wd-icon-fill"></path>
</g>
<path d="M15.2322 14.2146C15.5251 13.922 15.9999 13.9219 16.2927 14.2146L18.0105 15.9323L19.7283 14.2146C20.0212 13.9222 20.4961 13.9219 20.7888 14.2146C21.081 14.5073 21.081 14.9824 20.7888 15.2751L19.0711 16.9929L20.7957 18.7175C21.088 19.0103 21.0881 19.4853 20.7957 19.778C20.5029 20.0705 20.028 20.0704 19.7351 19.778L18.0105 18.0534L16.2859 19.778C15.9932 20.0704 15.5182 20.0703 15.2254 19.778C14.9326 19.4853 14.9328 19.0104 15.2254 18.7175L16.95 16.9929L15.2322 15.2751C14.9395 14.9823 14.9396 14.5074 15.2322 14.2146Z" fill="oklch(0.3523 0 0 / 1)" class="wd-icon-accent"></path>
</svg>