<svg width="24" height="24" viewBox="0 0 24 24" xmlns="http://www.w3.org/2000/svg" class="wd-icon wd-icon-pyramid-chart" role="presentation">
<path d="M11.1606 2.32252C11.6933 2.07613 12.3076 2.07604 12.8403 2.32252C13.2575 2.51573 13.5198 2.85949 13.6977 3.1321C13.8816 3.41389 14.0783 3.78777 14.2983 4.20338L20.6411 16.1839C20.837 16.554 21.017 16.8925 21.1362 17.178C21.2543 17.4608 21.3781 17.8366 21.3227 18.26C21.2504 18.8117 20.9511 19.3089 20.4975 19.6311C20.1493 19.8783 19.7589 19.9449 19.4536 19.9729C19.1455 20.0011 18.7619 20.0003 18.3432 20.0003H5.65767C5.23901 20.0003 4.8554 20.0011 4.54732 19.9729C4.24202 19.9449 3.85171 19.8783 3.50337 19.6311C3.04961 19.3089 2.75055 18.8118 2.67818 18.26C2.62277 17.8366 2.74662 17.4609 2.8647 17.178C2.98392 16.8925 3.16393 16.5539 3.35982 16.1839L9.70259 4.20338C9.92257 3.78787 10.1193 3.41383 10.3032 3.1321C10.4811 2.8595 10.7434 2.51565 11.1606 2.32252ZM6.24947 15.0003L5.1274 17.1194C4.91318 17.524 4.78597 17.7676 4.7104 17.9485C4.70629 17.9584 4.7031 17.9681 4.69966 17.9768C4.70904 17.9779 4.71917 17.9807 4.72993 17.9817C4.92516 17.9996 5.19996 18.0003 5.65767 18.0003H18.3432C18.801 18.0003 19.0757 17.9996 19.271 17.9817C19.2813 17.9807 19.2912 17.9778 19.3002 17.9768C19.2968 17.9682 19.2946 17.9583 19.2905 17.9485C19.2149 17.7676 19.0878 17.5242 18.8735 17.1194L17.7514 15.0003H6.24947ZM7.30806 13.0003H16.6928L15.104 10.0003H8.89693L7.30806 13.0003ZM11.978 4.22585C11.8561 4.41258 11.7085 4.6887 11.4702 5.13893L9.95552 8.00026H14.0454L12.5307 5.13893C12.2923 4.68856 12.1448 4.41262 12.0229 4.22585C12.0155 4.21445 12.0071 4.20433 12.0004 4.1946C11.9939 4.20426 11.9854 4.21455 11.978 4.22585Z" fill="oklch(0.3523 0 0 / 1)" class="wd-icon-fill"></path>
</svg>