<svg width="24" height="24" viewBox="0 0 24 24" xmlns="http://www.w3.org/2000/svg" class="wd-icon wd-icon-bold" role="presentation">
<path d="M13.5459 3.00977C16.8096 3.00977 18.9939 4.80857 18.9941 7.50684C18.9941 9.63994 17.6577 11.1056 15.3447 11.3369V11.3877C18.4285 11.4905 20.2283 13.2639 20.2285 15.7822C20.2285 18.7119 17.8381 20.9998 13.9834 21H5.51367C5.23761 21 5.0138 20.776 5.01367 20.5V3.50977C5.01367 3.23362 5.23753 3.00977 5.51367 3.00977H13.5459ZM9.02246 17.8896H13.1348C15.1137 17.8896 16.0908 16.9646 16.0908 15.5254C16.0907 14.0607 15.0878 13.1357 13.1348 13.1357H9.02246V17.8896ZM9.02246 10.1797H12.5439C14.0601 10.1796 14.8828 9.40867 14.8828 8.14941C14.8827 6.91606 14.0857 6.1192 12.5439 6.11914H9.02246V10.1797Z" fill="oklch(0.3523 0 0 / 1)" class="wd-icon-fill"></path>
</svg>