<svg width="24" height="24" viewBox="0 0 24 24" xmlns="http://www.w3.org/2000/svg" class="wd-icon wd-icon-cart" role="presentation">
<path d="M17.7083 12.5C19.1334 10.9077 20 8.80506 20 6.5L6.5 6L8 13L17.7083 12.5Z" fill="transparent" class="wd-icon-background"></path>
<g>
<path d="M7.5 19C8.32843 19 9 19.6716 9 20.5C9 21.3284 8.32843 22 7.5 22C6.67157 22 6 21.3284 6 20.5C6 19.6716 6.67157 19 7.5 19Z" fill="oklch(0.3523 0 0 / 1)" class="wd-icon-fill"></path>
<path d="M17.5 19C18.3284 19 19 19.6716 19 20.5C19 21.3284 18.3284 22 17.5 22C16.6716 22 16 21.3284 16 20.5C16 19.6716 16.6716 19 17.5 19Z" fill="oklch(0.3523 0 0 / 1)" class="wd-icon-fill"></path>
<path d="M6 3C6.4687 3 6.87489 3.32567 6.97656 3.7832L7.25293 5.02734L20.0371 5.50098C20.5746 5.52094 21 5.96215 21 6.5L20.9893 6.97754C20.8776 9.35064 19.937 11.509 18.4531 13.167C18.2754 13.3655 18.0259 13.4853 17.7598 13.499L8.78906 13.9609L8.28027 16H18.5C18.7761 16 19 16.2239 19 16.5V17.5C19 17.7761 18.7761 18 18.5 18H7C6.69206 18 6.40142 17.858 6.21191 17.6152C6.02249 17.3726 5.95569 17.0565 6.03027 16.7578L6.97266 12.9883L5.19727 5H2.5C2.22386 5 2 4.77614 2 4.5V3.5C2 3.22386 2.22386 3 2.5 3H6ZM8.79297 11.957L17.2256 11.5225C18.1456 10.3837 18.7576 8.98925 18.9404 7.46094L7.70117 7.04395L8.79297 11.957Z" fill="oklch(0.3523 0 0 / 1)" class="wd-icon-fill"></path>
</g>
</svg>