<svg width="24" height="24" viewBox="0 0 24 24" xmlns="http://www.w3.org/2000/svg" class="wd-icon wd-icon-moon" role="presentation">
<path d="M9.34519 2.35849C9.76182 2.24406 10.0784 2.70817 9.89055 3.09725C9.32049 4.27794 9 5.60167 9 7.00057C9.00021 11.971 13.0296 16.0006 18 16.0006C18.8227 16.0006 19.6192 15.8888 20.376 15.6811C20.7929 15.5667 21.1921 15.9621 21.0038 16.3511C19.386 19.6943 15.9632 22.0006 12 22.0006C6.47721 22.0006 2.00009 17.5233 2 12.0006C2 7.39699 5.11099 3.52138 9.34519 2.35849Z" fill="transparent" class="wd-icon-background"></path>
<path d="M9.2041 1.36545C9.81708 1.24995 10.3581 1.53892 10.6572 1.95627C10.9644 2.3849 11.0539 2.98671 10.791 3.53146C10.2848 4.57995 10 5.75563 10 7.00021L10.0107 7.41232C10.2254 11.639 13.7201 15.0002 18 15.0002C18.7318 15.0002 19.4396 14.9018 20.1113 14.718L20.2197 14.6916C20.7651 14.583 21.2926 14.7789 21.6357 15.135C22.0159 15.5296 22.2023 16.1688 21.9023 16.7883C20.1236 20.462 16.3605 23.0002 12 23.0002C6.11484 23.0002 1.30945 18.3785 1.01465 12.5666L1 12.0002C1.00003 6.93478 4.42318 2.67286 9.08008 1.39377L9.2041 1.36545ZM8.56543 3.6799C5.29811 5.0295 3.00003 8.2472 3 12.0002L3.01172 12.4631C3.25265 17.2185 7.18469 21.0002 12 21.0002C15.1711 21.0002 17.9575 19.3583 19.5605 16.8762C19.0517 16.9564 18.5307 17.0002 18 17.0002C12.4772 17.0002 8.00015 12.5229 8 7.00021C8.00001 5.83709 8.19894 4.71919 8.56543 3.6799Z" fill="oklch(0.3523 0 0 / 1)" class="wd-icon-fill"></path>
</svg>