<svg width="24" height="24" viewBox="0 0 24 24" xmlns="http://www.w3.org/2000/svg" class="wd-icon wd-icon-redo" role="presentation">
<path d="M15 2.84654C15 2.37665 15.5892 2.16646 15.8867 2.53014L21.7402 9.68346C21.8907 9.86753 21.8906 10.1322 21.7402 10.3163L15.8867 17.4706C15.5891 17.8338 15 17.6229 15 17.1532V13.1102C13.0437 13.3264 11.1817 13.8554 9.46582 14.6473C7.3906 15.605 6.09239 17.4716 5.46094 19.6249C5.39659 19.8443 5.19837 19.9998 4.96973 19.9999H4.5C4.22386 19.9999 4 19.776 4 19.4999V16.829C4.00013 13.4158 5.36923 9.97763 8.43457 8.47642C10.4519 7.48851 12.6651 6.8392 15 6.60142V2.84654Z" fill="transparent" class="wd-icon-background"></path>
<path d="M14 2.84666C14 1.43644 15.7688 0.806925 16.6611 1.89745L16.6602 1.89842L22.5137 9.05077C22.9369 9.56863 22.9638 10.2986 22.5938 10.8428L22.5146 10.9492L16.6611 18.1035L16.6602 18.1045C15.766 19.1956 14 18.5607 14 17.1533V14.2676C12.557 14.5245 11.1767 14.9604 9.88477 15.5566C8.13821 16.3629 6.99499 17.9524 6.42188 19.9062L6.4209 19.9072C6.24907 20.4912 5.73518 20.9401 5.09961 20.9941L4.9707 21H4.5C3.6713 21 3.00068 20.3281 3 19.501V16.8301C3.00001 13.205 4.45699 9.31191 7.99512 7.57909C9.85598 6.66782 11.8753 6.02956 14 5.71776V2.84666ZM16 6.60155C16 7.11452 15.6119 7.54458 15.1016 7.59666C12.8865 7.82247 10.7872 8.43899 8.87402 9.37596C6.28166 10.6459 5.00001 13.6287 5 16.8301V17.9863C5.80077 16.1891 7.11672 14.6311 9.04688 13.7402C10.8587 12.9041 12.8248 12.3447 14.8896 12.1162C15.1722 12.0849 15.4552 12.1756 15.667 12.3652C15.8788 12.5549 16 12.826 16 13.1103V15.7529L20.707 9.99901L16 4.24608V6.60155Z" fill="oklch(0.3523 0 0 / 1)" class="wd-icon-fill"></path>
</svg>