<svg width="24" height="24" viewBox="0 0 24 24" xmlns="http://www.w3.org/2000/svg" class="wd-icon wd-icon-formula-loop" role="presentation">
<g>
<path d="M13.0668 14.6221C13.2646 14.3257 13.7007 14.326 13.8988 14.6221L15.6312 17.2207C15.8526 17.5529 15.6144 17.9979 15.2152 17.998H14.5335C14.5902 18.276 14.6937 18.544 14.8412 18.7891C15.0754 19.1781 15.4116 19.4964 15.8128 19.709C16.2142 19.9215 16.667 20.0209 17.1205 19.9961C17.4067 19.9803 17.6873 19.9146 17.9496 19.8047C18.204 19.698 18.514 19.7524 18.6693 19.9805L18.9505 20.3945L19.2318 20.8076C19.3868 21.036 19.3283 21.3496 19.0843 21.4785C18.5123 21.7806 17.8795 21.9574 17.2298 21.9932C16.4135 22.0379 15.5999 21.8591 14.8773 21.4766C14.1547 21.0939 13.5491 20.5218 13.1273 19.8213C12.7919 19.264 12.5828 18.6416 12.5111 17.999L11.7503 17.998C11.3512 17.9978 11.1129 17.5529 11.3343 17.2207L13.0668 14.6221Z" fill="oklch(0.3523 0 0 / 1)" class="wd-icon-fill"></path>
<path d="M16.7357 13.0068C17.552 12.962 18.3657 13.1409 19.0882 13.5234C19.8109 13.9061 20.4164 14.4782 20.8382 15.1787C21.1733 15.7352 21.3834 16.3563 21.4554 16.998H22.2152C22.6145 16.9981 22.8526 17.4432 22.6312 17.7754L20.8988 20.374C20.7008 20.6709 20.2646 20.6709 20.0668 20.374L18.3353 17.7754C18.1141 17.4432 18.3522 16.9982 18.7513 16.998H19.432C19.3752 16.7213 19.2713 16.455 19.1244 16.2109C18.8901 15.8219 18.554 15.5036 18.1527 15.291C17.7513 15.0786 17.2985 14.979 16.8451 15.0039C16.5591 15.0197 16.2789 15.0845 16.0169 15.1943C15.7624 15.3011 15.4524 15.2468 15.2972 15.0186L15.015 14.6055L14.7347 14.1914C14.5799 13.963 14.6382 13.6494 14.8822 13.5205C15.454 13.2186 16.0863 13.0427 16.7357 13.0068Z" fill="oklch(0.3523 0 0 / 1)" class="wd-icon-fill"></path>
<path d="M7.88706 3C8.04503 3.00023 8.16274 3.14502 8.1312 3.2998L7.92906 4.28613C7.90518 4.40219 7.80338 4.48611 7.68492 4.48633H6.85972C6.21227 4.48647 5.77967 4.7909 5.6146 5.59082L5.52476 6.01465H6.73765C6.89643 6.01485 7.01468 6.16109 6.98179 6.31641L6.77085 7.30273C6.74618 7.418 6.6446 7.50095 6.52671 7.50098H5.20738L4.07847 12.8018C4.05386 12.9171 3.95222 12.9999 3.83433 13H2.41441C2.25593 12.9995 2.13752 12.8534 2.17027 12.6982L3.27378 7.50098H2.45542C2.29595 7.50045 2.17769 7.3521 2.21226 7.19629L2.43101 6.20996C2.45657 6.09596 2.55832 6.01485 2.67515 6.01465H3.58921L3.77378 5.14648C4.07855 3.73692 4.84088 3.00014 6.41538 3H7.88706Z" fill="oklch(0.3523 0 0 / 1)" class="wd-icon-fill"></path>
<path d="M9.37046 6C9.46798 6 9.55714 6.05697 9.598 6.14551L10.5023 8.11035H10.5277L12.1283 6.09473C12.1756 6.03511 12.2485 6.00013 12.3246 6H14.1283C14.3453 6 14.4596 6.25741 14.3138 6.41797L11.43 9.58398L13.0726 12.6318C13.162 12.7982 13.0417 12.9997 12.8529 13H11.3187C11.2236 12.9998 11.1361 12.9458 11.0941 12.8604L10.0834 10.8027H10.058L8.38023 12.9062C8.33279 12.9654 8.26075 13 8.18492 13H6.35972C6.1426 12.9997 6.02869 12.7413 6.17515 12.5811L9.19468 9.29199L7.61949 6.36914C7.53001 6.20275 7.65132 6.00032 7.84019 6H9.37046Z" fill="oklch(0.3523 0 0 / 1)" class="wd-icon-fill"></path>
</g>
</svg>