<svg width="24" height="24" viewBox="0 0 24 24" xmlns="http://www.w3.org/2000/svg" class="wd-icon wd-icon-export" role="presentation">
<g>
<path d="M16 8.00079C18.2091 8.00079 20 9.79165 20 12.0008V16.201C20 17.0243 20.001 17.7024 19.9561 18.2527C19.9101 18.8147 19.8117 19.332 19.5645 19.8172C19.181 20.5696 18.5688 21.1818 17.8164 21.5652C17.3311 21.8125 16.814 21.9109 16.252 21.9568C15.7016 22.0018 15.0237 22.0008 14.2002 22.0008H9.79981C8.97633 22.0008 8.29842 22.0018 7.74805 21.9568C7.18604 21.9109 6.66886 21.8125 6.1836 21.5652C5.43118 21.1818 4.81903 20.5696 4.43555 19.8172C4.18832 19.332 4.08989 18.8147 4.04395 18.2527C3.99899 17.7024 4 17.0243 4 16.201V12.0008C4 9.79166 5.79086 8.0008 8 8.00079C8.55229 8.00079 9 8.44851 9 9.00079C8.99983 9.55293 8.55218 10.0008 8 10.0008C6.89543 10.0008 6 10.8962 6 12.0008V16.201C6 17.0572 6.00036 17.6397 6.03711 18.0897C6.07294 18.5279 6.13811 18.7526 6.21778 18.909C6.40952 19.2851 6.71563 19.5913 7.0918 19.783C7.24819 19.8627 7.47284 19.9279 7.91113 19.9637C8.36117 20.0004 8.94343 20.0008 9.79981 20.0008H14.2002C15.0566 20.0008 15.6388 20.0004 16.0889 19.9637C16.5272 19.9279 16.7518 19.8627 16.9082 19.783C17.2844 19.5913 17.5905 19.2851 17.7822 18.909C17.8619 18.7526 17.9271 18.5279 17.9629 18.0897C17.9996 17.6397 18 17.0572 18 16.201V12.0008C18 10.8962 17.1046 10.0008 16 10.0008C15.4478 10.0008 15.0002 9.55293 15 9.00079C15 8.44851 15.4477 8.0008 16 8.00079Z" fill="oklch(0.3523 0 0 / 1)" class="wd-icon-fill"></path>
<path d="M11.293 1.29376C11.6835 0.903397 12.3165 0.903365 12.707 1.29376L15.707 4.29376C16.0973 4.68426 16.0973 5.31738 15.707 5.70783C15.3166 6.09777 14.6833 6.09793 14.293 5.70783L13 4.41486V12.9998C13 13.5521 12.5523 13.9998 12 13.9998C11.4478 13.9997 11 13.552 11 12.9998V4.41486L9.70703 5.70783C9.31657 6.0977 8.68334 6.09786 8.29297 5.70783C7.90271 5.31748 7.90302 4.6843 8.29297 4.29376L11.293 1.29376Z" fill="oklch(0.3523 0 0 / 1)" class="wd-icon-fill"></path>
</g>
</svg>