<svg width="24" height="24" viewBox="0 0 24 24" xmlns="http://www.w3.org/2000/svg" class="wd-icon wd-icon-merge-small" role="presentation">
<g>
<path d="M10.1467 13.6464C9.95143 13.4512 9.63395 13.4512 9.43868 13.6464L6.14669 16.9394C5.95143 17.1347 5.95143 17.4512 6.14669 17.6464L6.85275 18.3535C7.04801 18.5487 7.36549 18.5487 7.56075 18.3535L10.8527 15.0605C11.048 14.8652 11.048 14.5487 10.8527 14.3535L10.1467 13.6464Z" fill="oklch(0.3523 0 0 / 1)" class="wd-icon-fill"></path>
<path d="M7.56075 5.64645C7.36549 5.45118 7.04801 5.45118 6.85275 5.64645L6.14669 6.35348C5.95143 6.54874 5.95143 6.86525 6.14669 7.06051L11.7922 12.707C11.9796 12.8944 12.2342 12.9998 12.4992 13H15.8899L14.6799 14.4795C14.5051 14.6932 14.5366 15.0077 14.7502 15.1826L15.5236 15.8154C15.7373 15.9902 16.0529 15.9587 16.2277 15.7451L18.7746 12.6328C19.0567 12.2873 19.0748 11.7995 18.8274 11.4365C18.811 11.4125 18.7933 11.389 18.7746 11.3662L16.2277 8.25289C16.0529 8.03936 15.7373 8.00804 15.5236 8.18258L15.1369 8.49996L14.7502 8.81637C14.5364 8.99116 14.5051 9.30571 14.6799 9.51949L15.8908 11H13.1213C12.9888 11 12.8615 10.9471 12.7678 10.8535L7.56075 5.64645Z" fill="oklch(0.3523 0 0 / 1)" class="wd-icon-fill"></path>
</g>
</svg>