<svg width="24" height="24" viewBox="0 0 24 24" xmlns="http://www.w3.org/2000/svg" class="wd-icon wd-icon-multi-instance" role="presentation">
<path d="M9 3C10.3807 3 11.5 4.11929 11.5 5.5C11.5 6.61933 10.7642 7.56613 9.75 7.88477V10.0557C10.5706 10.1791 11.3258 10.5023 11.9648 10.9736L14.417 8.52051C14.1538 8.07429 14 7.55558 14 7C14 5.34315 15.3431 4 17 4C18.6569 4 20 5.34315 20 7C20 8.65685 18.6569 10 17 10C16.4435 10 15.9243 9.84513 15.4775 9.58105L13.0254 12.0342C13.4972 12.6735 13.8208 13.4289 13.9443 14.25H15.6152C15.9339 13.2358 16.8807 12.5 18 12.5C19.3807 12.5 20.5 13.6193 20.5 15C20.5 16.3807 19.3807 17.5 18 17.5C16.8807 17.5 15.9339 16.7642 15.6152 15.75H13.9443C13.5825 18.1556 11.5065 20 9 20C6.23858 20 4 17.7614 4 15C4 12.4935 5.84435 10.4175 8.25 10.0557V7.88477C7.23584 7.56613 6.5 6.61933 6.5 5.5C6.5 4.11929 7.61929 3 9 3Z" fill="oklch(0.3523 0 0 / 1)" class="wd-icon-fill"></path>
</svg>