<svg width="24" height="24" viewBox="0 0 24 24" xmlns="http://www.w3.org/2000/svg" class="wd-icon wd-icon-qr-code" role="presentation">
<g>
<path d="M9.5 13C10.3284 13 11 13.6716 11 14.5V19.5C11 20.3284 10.3284 21 9.5 21H4.5C3.67157 21 3 20.3284 3 19.5V14.5C3 13.6716 3.67157 13 4.5 13H9.5ZM5 19H9V15H5V19Z" fill="oklch(0.3523 0 0 / 1)" class="wd-icon-fill"></path>
<path d="M9.5 3C10.3284 3 11 3.67157 11 4.5V9.5C11 10.3284 10.3284 11 9.5 11H4.5C3.67157 11 3 10.3284 3 9.5V4.5C3 3.67157 3.67157 3 4.5 3H9.5ZM5 9H9V5H5V9Z" fill="oklch(0.3523 0 0 / 1)" class="wd-icon-fill"></path>
<path d="M19.5 3C20.3284 3 21 3.67157 21 4.5V9.5C21 10.3284 20.3284 11 19.5 11H14.5C13.6716 11 13 10.3284 13 9.5V4.5C13 3.67157 13.6716 3 14.5 3H19.5ZM15 9H19V5H15V9Z" fill="oklch(0.3523 0 0 / 1)" class="wd-icon-fill"></path>
</g>
<g>
<path d="M14.5 19C14.7761 19 15 19.2239 15 19.5V20.5C15 20.7761 14.7761 21 14.5 21H13.5C13.2239 21 13 20.7761 13 20.5V19.5C13 19.2239 13.2239 19 13.5 19H14.5Z" fill="oklch(0.3523 0 0 / 1)" class="wd-icon-accent"></path>
<path d="M20.5 13C20.7761 13 21 13.2239 21 13.5V19.5C21 20.3284 20.3284 21 19.5 21H17.5C17.2239 21 17 20.7761 17 20.5V19.5C17 19.2239 17.2239 19 17.5 19H19V17H17.5C17.2239 17 17 16.7761 17 16.5V15.5C17 15.2239 17.2239 15 17.5 15H19V13.5C19 13.2239 19.2239 13 19.5 13H20.5Z" fill="oklch(0.3523 0 0 / 1)" class="wd-icon-accent"></path>
<path d="M16.5 17C16.7761 17 17 17.2239 17 17.5V18.5C17 18.7761 16.7761 19 16.5 19H15.5C15.2239 19 15 18.7761 15 18.5V17.5C15 17.2239 15.2239 17 15.5 17H16.5Z" fill="oklch(0.3523 0 0 / 1)" class="wd-icon-accent"></path>
<path d="M7.5 16C7.77614 16 8 16.2239 8 16.5V17.5C8 17.7761 7.77614 18 7.5 18H6.5C6.22386 18 6 17.7761 6 17.5V16.5C6 16.2239 6.22386 16 6.5 16H7.5Z" fill="oklch(0.3523 0 0 / 1)" class="wd-icon-accent"></path>
<path d="M16.5 13C16.7761 13 17 13.2239 17 13.5V14.5C17 14.7761 16.7761 15 16.5 15H15V16.5C15 16.7761 14.7761 17 14.5 17H13.5C13.2239 17 13 16.7761 13 16.5V14.5C13 13.6716 13.6716 13 14.5 13H16.5Z" fill="oklch(0.3523 0 0 / 1)" class="wd-icon-accent"></path>
<path d="M7.5 6C7.77614 6 8 6.22386 8 6.5V7.5C8 7.77614 7.77614 8 7.5 8H6.5C6.22386 8 6 7.77614 6 7.5V6.5C6 6.22386 6.22386 6 6.5 6H7.5Z" fill="oklch(0.3523 0 0 / 1)" class="wd-icon-accent"></path>
<path d="M17.5 6C17.7761 6 18 6.22386 18 6.5V7.5C18 7.77614 17.7761 8 17.5 8H16.5C16.2239 8 16 7.77614 16 7.5V6.5C16 6.22386 16.2239 6 16.5 6H17.5Z" fill="oklch(0.3523 0 0 / 1)" class="wd-icon-accent"></path>
</g>
</svg>