<svg width="24" height="24" viewBox="0 0 24 24" xmlns="http://www.w3.org/2000/svg" class="wd-icon wd-icon-insert-row-before" role="presentation">
<g>
<path d="M13.5 18C13.7761 18 14 18.2239 14 18.5V21.5C14 21.7761 13.7761 22 13.5 22H5.5C5.22386 22 5 21.7761 5 21.5V18.5C5 18.2239 5.22386 18 5.5 18H13.5Z" fill="transparent" class="wd-icon-background"></path>
<path d="M13.5 11C13.7761 11 14 11.2239 14 11.5V14.5C14 14.7761 13.7761 15 13.5 15H5.5C5.22386 15 5 14.7761 5 14.5V11.5C5 11.2239 5.22386 11 5.5 11H13.5Z" fill="transparent" class="wd-icon-background"></path>
<path d="M20.5 4C20.7761 4 21 4.22386 21 4.5V7.5C21 7.77614 20.7761 8 20.5 8H12.5C12.2239 8 12 7.77614 12 7.5V4.5C12 4.22386 12.2239 4 12.5 4H20.5Z" fill="transparent" class="wd-icon-background"></path>
</g>
<g>
<path d="M13.5 17C14.3284 17 15 17.6716 15 18.5V21.5C15 22.3284 14.3284 23 13.5 23H5.5C4.67157 23 4 22.3284 4 21.5V18.5C4 17.6716 4.67157 17 5.5 17H13.5ZM6 21H13V19H6V21Z" fill="oklch(0.3523 0 0 / 1)" class="wd-icon-fill"></path>
<path d="M13.5 10C14.3284 10 15 10.6716 15 11.5V14.5C15 15.3284 14.3284 16 13.5 16H5.5C4.67157 16 4 15.3284 4 14.5V11.5C4 10.6716 4.67157 10 5.5 10H13.5ZM6 14H13V12H6V14Z" fill="oklch(0.3523 0 0 / 1)" class="wd-icon-fill"></path>
<path d="M20.5 3C21.3284 3 22 3.67157 22 4.5V7.5C22 8.32843 21.3284 9 20.5 9H12.5C11.6716 9 11 8.32843 11 7.5V4.5C11 3.67157 11.6716 3 12.5 3H20.5ZM13 7H20V5H13V7Z" fill="oklch(0.3523 0 0 / 1)" class="wd-icon-fill"></path>
</g>
<path d="M6.5 2C6.77614 2 7 2.22386 7 2.5V3.99512H8.50488C8.78102 3.99512 9.00488 4.21897 9.00488 4.49512V5.49512C9.00488 5.77126 8.78102 5.99512 8.50488 5.99512H7V7.5C7 7.77614 6.77614 8 6.5 8H5.5C5.22386 8 5 7.77614 5 7.5V5.99512H3.50488C3.22874 5.99512 3.00488 5.77126 3.00488 5.49512V4.49512C3.00488 4.21897 3.22874 3.99512 3.50488 3.99512H5V2.5C5 2.22386 5.22386 2 5.5 2H6.5Z" fill="oklch(0.3523 0 0 / 1)" class="wd-icon-accent"></path>
</svg>