<svg width="24" height="24" viewBox="0 0 24 24" xmlns="http://www.w3.org/2000/svg" class="wd-icon wd-icon-exclamation-circle" role="presentation">
<path d="M22 12C22 17.5228 17.5228 22 12 22C6.47715 22 2 17.5228 2 12C2 6.47715 6.47715 2 12 2C17.5228 2 22 6.47715 22 12Z" fill="transparent" class="wd-icon-background"></path>
<path d="M12 1C18.0751 1 23 5.92487 23 12C23 18.0751 18.0751 23 12 23C5.92487 23 1 18.0751 1 12C1 5.92487 5.92487 1 12 1ZM12 3C7.02944 3 3 7.02944 3 12C3 16.9706 7.02944 21 12 21C16.9706 21 21 16.9706 21 12C21 7.02944 16.9706 3 12 3Z" fill="oklch(0.3523 0 0 / 1)" class="wd-icon-fill"></path>
<g>
<path d="M12 15.75C12.6904 15.75 13.25 16.3096 13.25 17C13.25 17.6904 12.6904 18.25 12 18.25C11.3096 18.25 10.75 17.6904 10.75 17C10.75 16.3096 11.3096 15.75 12 15.75Z" fill="oklch(0.3523 0 0 / 1)" class="wd-icon-accent"></path>
<path d="M12.5 6C12.7761 6 13 6.22386 13 6.5V7.83984L12.8213 14.0146C12.8134 14.2848 12.5925 14.4998 12.3223 14.5H11.6777C11.4075 14.4998 11.1866 14.2848 11.1787 14.0146L11 7.83984V6.5C11 6.22386 11.2239 6 11.5 6H12.5Z" fill="oklch(0.3523 0 0 / 1)" class="wd-icon-accent"></path>
</g>
</svg>