<svg width="24" height="24" viewBox="0 0 24 24" xmlns="http://www.w3.org/2000/svg" class="wd-icon wd-icon-filter-exclamation" role="presentation">
<g>
<path d="M14.5 17C14.7761 17 15 17.2239 15 17.5V18.5C15 18.7761 14.7761 19 14.5 19H9.5C9.22386 19 9 18.7761 9 18.5V17.5C9 17.2239 9.22386 17 9.5 17H14.5Z" fill="oklch(0.3523 0 0 / 1)" class="wd-icon-fill"></path>
<path d="M16.5 13C16.7761 13 17 13.2239 17 13.5V14.5C17 14.7761 16.7761 15 16.5 15H7.5C7.22386 15 7 14.7761 7 14.5V13.5C7 13.2239 7.22386 13 7.5 13H16.5Z" fill="oklch(0.3523 0 0 / 1)" class="wd-icon-fill"></path>
<path d="M19.5 9C19.7761 9 20 9.22386 20 9.5V10.5C20 10.7761 19.7761 11 19.5 11H4.5C4.22386 11 4 10.7761 4 10.5V9.5C4 9.22386 4.22386 9 4.5 9H19.5Z" fill="oklch(0.3523 0 0 / 1)" class="wd-icon-fill"></path>
<path d="M22.5 5C22.7761 5 23 5.22386 23 5.5V6.5C23 6.77614 22.7761 7 22.5 7H1.5C1.22386 7 1 6.77614 1 6.5V5.5C1 5.22386 1.22386 5 1.5 5H22.5Z" fill="oklch(0.3523 0 0 / 1)" class="wd-icon-fill"></path>
</g>
<g>
<path d="M21 19.75C21.6904 19.75 22.25 20.3096 22.25 21C22.25 21.6904 21.6904 22.25 21 22.25C20.3096 22.25 19.75 21.6904 19.75 21C19.75 20.3096 20.3096 19.75 21 19.75Z" fill="oklch(0.3523 0 0 / 1)" class="wd-icon-accent"></path>
<path d="M21.5 13C21.7761 13 22 13.2239 22 13.5V14.8398L21.8301 18.5234C21.8176 18.7902 21.5971 19 21.3301 19H20.6699C20.4029 19 20.1824 18.7902 20.1699 18.5234L20 14.8398V13.5C20 13.2239 20.2239 13 20.5 13H21.5Z" fill="oklch(0.3523 0 0 / 1)" class="wd-icon-accent"></path>
</g>
</svg>