<svg width="24" height="24" viewBox="0 0 24 24" xmlns="http://www.w3.org/2000/svg" class="wd-icon wd-icon-mention" role="presentation">
<path d="M12.2217 2.1582C13.9588 2.15826 15.5298 2.53016 16.9316 3.27539L17.1943 3.41602C18.4871 4.13854 19.5057 5.13788 20.248 6.41211L20.3945 6.66992C21.1039 7.96961 21.457 9.45023 21.457 11.1084C21.457 12.3267 21.2641 13.4101 20.874 14.3555C20.4987 15.286 19.9622 16.0075 19.2607 16.5107C18.5739 17.014 17.7803 17.2646 16.8857 17.2646C15.97 17.2646 15.2579 17.0466 14.7793 16.584C14.4095 16.2265 14.1534 15.8084 14.0098 15.332C13.6567 15.8887 13.2126 16.3364 12.6738 16.6699C12.0324 17.0669 11.3079 17.2646 10.5049 17.2646C9.40048 17.2646 8.52695 16.9149 7.90625 16.2012C7.30588 15.493 7.01178 14.5595 7.01172 13.4189C7.01172 12.3717 7.22065 11.347 7.63867 10.3467C8.07254 9.3294 8.6813 8.5011 9.46484 7.86816C10.2539 7.21602 11.1604 6.88867 12.1777 6.88867C12.8891 6.88873 13.4925 7.04744 13.9775 7.37598C14.3012 7.59522 14.5513 7.86337 14.7295 8.17676L14.7715 7.91797C14.8511 7.42608 15.2761 7.06445 15.7744 7.06445C16.4195 7.06458 16.9006 7.65876 16.7676 8.29004L15.7783 12.9873C15.6205 13.7479 15.6384 14.3701 15.8164 14.8633C15.9012 15.0981 16.038 15.2674 16.2256 15.3799C16.4155 15.4938 16.6687 15.5566 16.9951 15.5566C17.4346 15.5566 17.8308 15.385 18.1875 15.0283C18.5623 14.6535 18.8595 14.1338 19.0742 13.4609C19.3028 12.7751 19.4189 11.9901 19.4189 11.1084C19.4189 9.5601 19.0933 8.26928 18.4512 7.22754C17.8057 6.16616 16.9397 5.37155 15.8516 4.8418C14.7739 4.31021 13.5857 4.04297 12.2871 4.04297C10.772 4.043 9.44368 4.40336 8.29688 5.12012C7.14895 5.82322 6.25644 6.80588 5.62305 8.07227C5.00406 9.32463 4.69336 10.7616 4.69336 12.3848C4.69338 13.8741 4.98987 15.1911 5.57812 16.3398L5.69336 16.5498C6.28914 17.5835 7.11813 18.402 8.18164 19.0078C9.32865 19.653 10.6879 19.9785 12.2656 19.9785C13.0613 19.9785 13.8043 19.8914 14.4951 19.7188C14.8457 19.6329 15.16 19.5352 15.4365 19.4258C15.9142 19.2367 16.5192 19.3796 16.7734 19.8643C16.9948 20.2868 16.8604 20.833 16.4053 21.043C15.9333 21.2607 15.4147 21.4288 14.8506 21.5498C14.0313 21.7434 13.1407 21.8408 12.1777 21.8408C10.3567 21.8408 8.74375 21.4886 7.34375 20.7803L7.06738 20.6338C5.62001 19.8429 4.4992 18.73 3.70801 17.2969C2.93193 15.864 2.54492 14.2168 2.54492 12.3623C2.54496 10.4336 2.96078 8.69276 3.79492 7.14355L3.95508 6.85449C4.77335 5.42928 5.86824 4.30334 7.23828 3.47852C8.71527 2.59829 10.3781 2.1582 12.2217 2.1582ZM12.3311 8.77246C11.7735 8.77253 11.2591 8.98866 10.7842 9.43555C10.3047 9.88679 9.92699 10.4673 9.65527 11.1816C9.39709 11.8845 9.26953 12.5937 9.26953 13.3086C9.26953 13.9937 9.41223 14.508 9.67969 14.8691C9.94338 15.2251 10.3014 15.4023 10.7695 15.4023C11.4419 15.4023 12.0021 15.1376 12.459 14.5977C12.9427 14.0428 13.3003 13.3854 13.5293 12.627C13.7611 11.8592 13.875 11.185 13.875 10.6025C13.875 9.99334 13.7331 9.54968 13.4717 9.24902C13.2283 8.94154 12.8547 8.77246 12.3311 8.77246Z" fill="oklch(0.3523 0 0 / 1)" class="wd-icon-fill"></path>
</svg>