<svg width="24" height="24" viewBox="0 0 24 24" xmlns="http://www.w3.org/2000/svg" class="wd-icon wd-icon-document-stack-user" role="presentation">
<g>
<path d="M5.5 4C5.77614 4 6 4.22386 6 4.5V21H17.5C17.7761 21 18 21.2239 18 21.5V22.5C18 22.7761 17.7761 23 17.5 23H5.5C4.67157 23 4 22.3284 4 21.5V4.5C4 4.22386 4.22386 4 4.5 4H5.5Z" fill="oklch(0.3523 0 0 / 1)" class="wd-icon-fill"></path>
<path d="M11.5 14C11.7761 14 12 14.2239 12 14.5V15.5C12 15.7761 11.7761 16 11.5 16H10.5C10.2239 16 10 15.7761 10 15.5V14.5C10 14.2239 10.2239 14 10.5 14H11.5Z" fill="oklch(0.3523 0 0 / 1)" class="wd-icon-fill"></path>
<path d="M17.5 14C17.7761 14 18 14.2239 18 14.5V15.5C18 15.7761 17.7761 16 17.5 16H13.5C13.2239 16 13 15.7761 13 15.5V14.5C13 14.2239 13.2239 14 13.5 14H17.5Z" fill="oklch(0.3523 0 0 / 1)" class="wd-icon-fill"></path>
<path d="M11.5 11C11.7761 11 12 11.2239 12 11.5V12.5C12 12.7761 11.7761 13 11.5 13H10.5C10.2239 13 10 12.7761 10 12.5V11.5C10 11.2239 10.2239 11 10.5 11H11.5Z" fill="oklch(0.3523 0 0 / 1)" class="wd-icon-fill"></path>
<path d="M17.5 11C17.7761 11 18 11.2239 18 11.5V12.5C18 12.7761 17.7761 13 17.5 13H13.5C13.2239 13 13 12.7761 13 12.5V11.5C13 11.2239 13.2239 11 13.5 11H17.5Z" fill="oklch(0.3523 0 0 / 1)" class="wd-icon-fill"></path>
<path d="M13 8C14.0722 8 15.057 8.375 15.8301 9.00098C15.9405 9.09044 15.9999 9.22706 16 9.36914V9.5C16 9.77614 15.7761 10 15.5 10H10.5L10.3994 9.99023C10.1714 9.94371 10 9.74171 10 9.5V9.36914C10.0001 9.22706 10.0595 9.09044 10.1699 9.00098C10.943 8.375 11.9278 8 13 8Z" fill="oklch(0.3523 0 0 / 1)" class="wd-icon-fill"></path>
<path d="M13 4C13.8284 4 14.5 4.67157 14.5 5.5C14.5 6.32843 13.8284 7 13 7C12.1716 7 11.5 6.32843 11.5 5.5C11.5 4.67157 12.1716 4 13 4Z" fill="oklch(0.3523 0 0 / 1)" class="wd-icon-fill"></path>
<path d="M19.5 1C20.3284 1 21 1.67157 21 2.5V18.5C21 19.3284 20.3284 20 19.5 20H8.5C7.67157 20 7 19.3284 7 18.5V2.5C7 1.67157 7.67157 1 8.5 1H19.5ZM9 18H19V3H9V18Z" fill="oklch(0.3523 0 0 / 1)" class="wd-icon-fill"></path>
</g>
</svg>