<svg width="24" height="24" viewBox="0 0 24 24" xmlns="http://www.w3.org/2000/svg" class="wd-icon wd-icon-italics" role="presentation">
<path d="M17.5 3C17.7761 3 18 3.22386 18 3.5V4.75C18 5.02614 17.7761 5.25 17.5 5.25H14.7188L11.9141 18.75H14.5C14.7761 18.75 15 18.9739 15 19.25V20.5C15 20.7761 14.7761 21 14.5 21H6.5C6.22386 21 6 20.7761 6 20.5V19.25C6 18.9739 6.22386 18.75 6.5 18.75H9.10547L11.9102 5.25H9.5C9.22386 5.25 9 5.02614 9 4.75V3.5C9 3.22386 9.22386 3 9.5 3H17.5Z" fill="oklch(0.3523 0 0 / 1)" class="wd-icon-fill"></path>
</svg>