<svg width="24" height="24" viewBox="0 0 24 24" xmlns="http://www.w3.org/2000/svg" class="wd-icon wd-icon-arrow-corner-down-left" role="presentation">
<path d="M4.29476 15.708C3.90436 15.3175 3.90434 14.6844 4.29476 14.2939L8.29476 10.2939C8.68527 9.90368 9.31837 9.9036 9.70882 10.2939C10.0992 10.6844 10.0991 11.3175 9.70882 11.708L7.41488 14.002L10.9998 14.002C14.8657 14.002 17.9996 10.8677 17.9998 7.00195L17.9998 5.00098C18 4.44886 18.4477 4.00098 18.9998 4.00098C19.552 4.00098 19.9996 4.44886 19.9998 5.00098L19.9998 7.00195C19.9996 11.9723 15.9702 16.002 10.9998 16.002L7.41683 16.002L9.70882 18.2939C10.0993 18.6844 10.0992 19.3175 9.70882 19.708C9.3183 20.0985 8.68526 20.0985 8.29476 19.708L4.29476 15.708Z" fill="oklch(0.3523 0 0 / 1)" class="wd-icon-fill"></path>
</svg>