<svg width="24" height="24" viewBox="0 0 24 24" xmlns="http://www.w3.org/2000/svg" class="wd-icon wd-icon-magic-wand" role="presentation">
<g>
<path d="M11.9997 7.75684C12.7807 6.9761 14.0468 6.97627 14.8279 7.75684L16.2429 9.17188C17.0235 9.9529 17.0236 11.2191 16.2429 12L6.3425 21.8994C5.56144 22.6802 4.29535 22.6804 3.51438 21.8994L2.10032 20.4854C1.31935 19.7044 1.3195 18.4383 2.10032 17.6572L11.9997 7.75684ZM3.51438 19.0713L4.92844 20.4854L11.9997 13.4141L10.5857 12L3.51438 19.0713ZM11.9997 10.5859L13.4138 12L14.8279 10.5859L13.4138 9.17188L11.9997 10.5859Z" fill="oklch(0.3523 0 0 / 1)" class="wd-icon-fill"></path>
<path d="M19.4997 13C19.7759 13 19.9941 13.2275 20.0622 13.4951C20.2423 14.2019 20.7988 14.7585 21.5056 14.9385C21.773 15.0067 21.9997 15.224 21.9997 15.5C21.9997 15.776 21.773 15.9933 21.5056 16.0615C20.7988 16.2415 20.2423 16.7981 20.0622 17.5049C19.9941 17.7725 19.7759 18 19.4997 18C19.2237 17.9998 19.0063 17.7724 18.9382 17.5049C18.7582 16.7981 18.2017 16.2415 17.4948 16.0615C17.2273 15.9933 16.9997 15.7761 16.9997 15.5C16.9997 15.2239 17.2273 15.0067 17.4948 14.9385C18.2017 14.7585 18.7582 14.2019 18.9382 13.4951C19.0063 13.2276 19.2237 13.0002 19.4997 13Z" fill="oklch(0.3523 0 0 / 1)" class="wd-icon-fill"></path>
<path d="M18.4997 1C18.7759 1 18.9953 1.22568 19.0407 1.49805C19.2509 2.75581 20.244 3.74871 21.5017 3.95898C21.7741 4.00448 21.9997 4.22386 21.9997 4.5C21.9997 4.77614 21.7741 4.99552 21.5017 5.04102C20.244 5.25129 19.2509 6.24418 19.0407 7.50195C18.9953 7.77432 18.7759 8 18.4997 8C18.2237 7.99983 18.0042 7.77422 17.9587 7.50195C17.7485 6.24409 16.7557 5.25113 15.4978 5.04102C15.2255 4.99545 14.9997 4.77608 14.9997 4.5C14.9997 4.22392 15.2255 4.00455 15.4978 3.95898C16.7557 3.74887 17.7485 2.75591 17.9587 1.49805C18.0042 1.22578 18.2237 1.00017 18.4997 1Z" fill="oklch(0.3523 0 0 / 1)" class="wd-icon-fill"></path>
<path d="M8.49973 2C8.77587 2 8.9941 2.22751 9.06223 2.49512C9.24227 3.20188 9.79879 3.75854 10.5056 3.93848C10.773 4.00675 10.9997 4.22403 10.9997 4.5C10.9997 4.77597 10.773 4.99325 10.5056 5.06152C9.79879 5.24146 9.24227 5.79812 9.06223 6.50488C8.9941 6.77249 8.77587 7 8.49973 7C8.22374 6.99983 8.00631 6.77239 7.93821 6.50488C7.75819 5.79808 7.20168 5.24147 6.49485 5.06152C6.22732 4.99335 5.99973 4.77608 5.99973 4.5C5.99973 4.22392 6.22732 4.00665 6.49485 3.93848C7.20168 3.75853 7.75819 3.20192 7.93821 2.49512C8.00631 2.22761 8.22374 2.00017 8.49973 2Z" fill="oklch(0.3523 0 0 / 1)" class="wd-icon-fill"></path>
</g>
</svg>