<svg width="24" height="24" viewBox="0 0 24 24" xmlns="http://www.w3.org/2000/svg" class="wd-icon wd-icon-rename-split-row" role="presentation">
<g>
<path d="M9.01481 11.1643C10.0696 10.1099 11.7804 10.1098 12.8351 11.1643C13.8898 12.219 13.8896 13.9298 12.8351 14.9846L7.45133 20.3684C7.31342 20.5063 7.18335 20.6401 7.02946 20.7483C6.90361 20.8367 6.76689 20.9097 6.62418 20.967C6.44957 21.0371 6.26713 21.0731 6.07633 21.1135L3.15641 21.7336C2.90817 21.7862 2.64934 21.7089 2.46988 21.5295C2.29064 21.3501 2.21425 21.0921 2.26676 20.844L2.88492 17.9231C2.92532 17.7324 2.96232 17.5498 3.03238 17.3752C3.08968 17.2326 3.16377 17.0967 3.25211 16.9709C3.36026 16.8171 3.49319 16.6869 3.63102 16.549L9.01481 11.1643ZM11.7746 12.2248C11.3056 11.7562 10.5443 11.7562 10.0754 12.2248L4.69156 17.6096C4.60291 17.6982 4.55276 17.7484 4.5236 17.7795L6.21891 19.4758C6.25003 19.4467 6.30148 19.3971 6.39078 19.3078L11.7746 13.924C12.2433 13.455 12.2434 12.6938 11.7746 12.2248Z" fill="oklch(0.3523 0 0 / 1)" class="wd-icon-fill"></path>
<path d="M17.8 10.9992C18.3432 10.9992 18.811 10.9982 19.1945 11.0295C19.5897 11.0618 19.9833 11.1338 20.3615 11.3264C20.9258 11.6139 21.3854 12.0727 21.673 12.6369C21.8657 13.0151 21.9366 13.4088 21.9689 13.8039C22.0002 14.1875 22.0002 14.6561 22.0002 15.1994V16.799C22.0002 17.3424 22.0002 17.811 21.9689 18.1946C21.9366 18.5897 21.8656 18.9834 21.673 19.3615C21.3854 19.9259 20.9259 20.3845 20.3615 20.6721C19.9832 20.8648 19.5897 20.9367 19.1945 20.969C18.8109 21.0003 18.3432 20.9992 17.8 20.9992H15.2004C14.6569 20.9992 14.1885 21.0003 13.8048 20.969C13.4096 20.9367 13.0162 20.8649 12.6379 20.6721C12.1461 20.4212 11.9507 19.8193 12.2013 19.3274C12.4521 18.8357 13.0542 18.6395 13.5461 18.8899C13.5955 18.9151 13.6964 18.9526 13.9679 18.9748C14.2512 18.998 14.6239 18.9992 15.2004 18.9992H17.8C18.3764 18.9992 18.7491 18.998 19.0324 18.9748C19.3038 18.9526 19.4048 18.9151 19.4543 18.8899C19.6421 18.794 19.795 18.6413 19.8908 18.4533C19.916 18.4038 19.9536 18.3025 19.9757 18.0315C19.9989 17.7482 20.0002 17.3753 20.0002 16.799V16.7492H15.7502C15.3359 16.7492 15.0002 16.4135 15.0002 15.9992C15.0004 15.5852 15.3361 15.2492 15.7502 15.2492H20.0002V15.1994C20.0002 14.6231 19.9989 14.2503 19.9757 13.967C19.9535 13.6958 19.916 13.5946 19.8908 13.5451C19.795 13.3574 19.642 13.2044 19.4543 13.1086C19.4047 13.0834 19.3033 13.0458 19.0324 13.0237C18.7491 13.0005 18.3764 12.9992 17.8 12.9992H17.0002C16.4479 12.9992 16.0002 12.5515 16.0002 11.9992C16.0004 11.4472 16.4481 10.9993 17.0002 10.9992H17.8Z" fill="oklch(0.3523 0 0 / 1)" class="wd-icon-fill"></path>
<path d="M12.0002 2.99924C12.4007 2.99924 12.7977 2.99044 13.1476 3.0842C14.01 3.31539 14.6839 3.98951 14.9152 4.85178C15.0089 5.20163 15.0002 5.59879 15.0002 5.99924C15.0002 6.39968 15.0088 6.79684 14.9152 7.1467C14.684 8.0091 14.01 8.68301 13.1476 8.91428C12.7977 9.00805 12.4007 8.99925 12.0002 8.99924H6.00016C5.59955 8.99924 5.20267 9.00806 4.8527 8.91428C3.99024 8.68306 3.31634 8.00916 3.08512 7.1467C2.99145 6.79683 3.00016 6.3997 3.00016 5.99924C3.00015 5.59879 2.99138 5.20163 3.08512 4.85178C3.31645 3.98953 3.99038 3.31539 4.8527 3.0842C5.20262 2.99049 5.59963 2.99924 6.00016 2.99924H12.0002ZM5.49918 5.00413C5.40408 5.00846 5.3731 5.01516 5.37028 5.01585C5.19815 5.06209 5.06316 5.19729 5.01676 5.36936C5.01676 5.36936 5.00953 5.40016 5.00504 5.49827C4.99995 5.61017 5.00016 5.75826 5.00016 5.99924C5.00016 6.24017 4.99997 6.3883 5.00504 6.50022C5.00929 6.59346 5.01586 6.62527 5.01676 6.62913C5.06305 6.8014 5.19801 6.93635 5.37028 6.98264C5.37028 6.98264 5.40071 6.98987 5.49918 6.99436C5.61115 6.99945 5.75898 6.99924 6.00016 6.99924H12.0002C12.2413 6.99924 12.3892 6.99945 12.5011 6.99436C12.5995 6.98987 12.63 6.98264 12.63 6.98264C12.8022 6.9363 12.9373 6.80133 12.9836 6.62913C12.9845 6.62507 12.991 6.5931 12.9953 6.50022C13.0003 6.3883 13.0002 6.24016 13.0002 5.99924C13.0002 5.75826 13.0004 5.61017 12.9953 5.49827C12.9908 5.40014 12.9836 5.36936 12.9836 5.36936C12.9372 5.19727 12.8022 5.0621 12.63 5.01585C12.63 5.01585 12.599 5.00859 12.5011 5.00413C12.3892 4.99904 12.2413 4.99924 12.0002 4.99924H6.00016C5.759 4.99924 5.61114 4.99904 5.49918 5.00413Z" fill="oklch(0.3523 0 0 / 1)" class="wd-icon-fill"></path>
</g>
</svg>