<svg width="24" height="24" viewBox="0 0 24 24" xmlns="http://www.w3.org/2000/svg" class="wd-icon wd-icon-trash" role="presentation">
<path d="M17.3008 16.4531C17.2471 17.2579 17.2102 17.8037 17.1484 18.2246C17.0884 18.6334 17.0145 18.8431 16.9307 18.9902C16.7306 19.3413 16.429 19.6236 16.0654 19.7998C15.913 19.8736 15.699 19.9331 15.2871 19.9658C14.863 19.9995 14.3163 20 13.5098 20H10.4902C9.6837 20 9.13698 19.9995 8.71289 19.9658C8.30099 19.9331 8.08696 19.8736 7.93457 19.7998C7.57098 19.6236 7.26941 19.3413 7.06934 18.9902C6.98552 18.8431 6.91159 18.6334 6.85156 18.2246C6.78976 17.8037 6.75287 17.2579 6.69922 16.4531L6.06934 7H17.9307L17.3008 16.4531ZM9.71387 9.00098C9.16215 9.02093 8.73127 9.48435 8.75098 10.0361L9.00098 17.0361C9.02093 17.5878 9.48435 18.0187 10.0361 17.999C10.5878 17.9791 11.0187 17.5156 10.999 16.9639L10.749 9.96387C10.7291 9.41215 10.2656 8.98127 9.71387 9.00098ZM14.2861 9.00098C13.7344 8.98127 13.2709 9.41215 13.251 9.96387L13.001 16.9639C12.9813 17.5156 13.4122 17.9791 13.9639 17.999C14.5156 18.0187 14.9791 17.5878 14.999 17.0361L15.249 10.0361C15.2687 9.48435 14.8378 9.02093 14.2861 9.00098Z" fill="transparent" class="wd-icon-background"></path>
<path d="M12 1C14.2091 1 16 2.79086 16 5H21C21.5523 5 22 5.44772 22 6C22 6.55228 21.5523 7 21 7H19.9355L19.2969 16.5859C19.2453 17.359 19.2029 17.997 19.127 18.5146C19.0492 19.0444 18.926 19.5293 18.6689 19.9805C18.2688 20.6827 17.6648 21.2471 16.9375 21.5996C16.4703 21.826 15.979 21.9166 15.4453 21.959C14.9238 22.0004 14.2845 22 13.5098 22H10.4902C9.71551 22 9.07621 22.0004 8.55469 21.959C8.02098 21.9166 7.52973 21.826 7.0625 21.5996C6.33518 21.2471 5.7312 20.6827 5.33105 19.9805C5.07401 19.5293 4.95083 19.0444 4.87305 18.5146C4.79705 17.997 4.75466 17.359 4.70312 16.5859L4.06445 7H3C2.44772 7 2 6.55228 2 6C2 5.44772 2.44772 5 3 5H8C8 2.79086 9.79086 1 12 1ZM6.69922 16.4531C6.75287 17.2579 6.78976 17.8037 6.85156 18.2246C6.91159 18.6334 6.98552 18.8431 7.06934 18.9902C7.26941 19.3413 7.57098 19.6236 7.93457 19.7998C8.08696 19.8736 8.30099 19.9331 8.71289 19.9658C9.13698 19.9995 9.6837 20 10.4902 20H13.5098C14.3163 20 14.863 19.9995 15.2871 19.9658C15.699 19.9331 15.913 19.8736 16.0654 19.7998C16.429 19.6236 16.7306 19.3413 16.9307 18.9902C17.0145 18.8431 17.0884 18.6334 17.1484 18.2246C17.2102 17.8037 17.2471 17.2579 17.3008 16.4531L17.9307 7H6.06934L6.69922 16.4531ZM12 3C10.8954 3 10 3.89543 10 5H14C14 3.89543 13.1046 3 12 3Z" fill="oklch(0.3523 0 0 / 1)" class="wd-icon-fill"></path>
<g>
<path d="M9.71452 9.00163C10.2662 8.98209 10.7297 9.41291 10.7497 9.96452L10.9997 16.9645C11.0192 17.516 10.5882 17.9796 10.0368 17.9997C9.48511 18.0194 9.02175 17.5883 9.00163 17.0368L8.75163 10.0368C8.73192 9.485 9.1628 9.02158 9.71452 9.00163Z" fill="oklch(0.3523 0 0 / 1)" class="wd-icon-accent"></path>
<path d="M14.2868 9.00163C14.8383 9.02175 15.2694 9.48511 15.2497 10.0368L14.9997 17.0368C14.9796 17.5882 14.516 18.0192 13.9645 17.9997C13.4129 17.9797 12.9821 17.5162 13.0016 16.9645L13.2516 9.96452C13.2716 9.4128 13.735 8.98192 14.2868 9.00163Z" fill="oklch(0.3523 0 0 / 1)" class="wd-icon-accent"></path>
</g>
</svg>