<svg width="24" height="24" viewBox="0 0 24 24" xmlns="http://www.w3.org/2000/svg" class="wd-icon wd-icon-arrow-left-from-line" role="presentation">
<g>
<path d="M19.0003 5C19.5524 5.00015 20.0003 5.44781 20.0003 6V18C20.0003 18.5522 19.5524 18.9999 19.0003 19C18.448 19 18.0003 18.5523 18.0003 18V6C18.0003 5.44772 18.448 5 19.0003 5Z" fill="oklch(0.3523 0 0 / 1)" class="wd-icon-fill"></path>
<path d="M8.29325 7.29297C8.68375 6.90279 9.31687 6.9027 9.70731 7.29297C10.0972 7.68344 10.0974 8.31665 9.70731 8.70703L7.41532 10.999H15.0003C15.5521 10.9993 15.9998 11.4473 16.0003 11.999C16.0003 12.5512 15.5524 12.9988 15.0003 12.999H7.41337L9.70731 15.293C10.0973 15.6835 10.0975 16.3166 9.70731 16.707C9.31692 17.0973 8.68378 17.0971 8.29325 16.707L4.29325 12.707C3.90292 12.3165 3.90288 11.6834 4.29325 11.293L8.29325 7.29297Z" fill="oklch(0.3523 0 0 / 1)" class="wd-icon-fill"></path>
</g>
</svg>