<svg width="24" height="24" viewBox="0 0 24 24" xmlns="http://www.w3.org/2000/svg" class="wd-icon wd-icon-join-right-anti" role="presentation">
<path d="M7.5 5C3.91015 5 1 7.91015 1 11.5C1 15.0899 3.91015 18 7.5 18C9.24722 18 10.832 17.3091 12 16.1875C13.168 17.3091 14.7528 18 16.5 18C20.0899 18 23 15.0899 23 11.5C23 7.91015 20.0899 5 16.5 5C14.753 5 13.168 5.6902 12 6.81152C10.832 5.6902 9.24698 5 7.5 5ZM7.5 6.5C8.88444 6.5 10.1386 7.06255 11.0439 7.97168C11.01 8.02395 10.9768 8.07659 10.9443 8.12988C10.9299 8.15358 10.9155 8.17728 10.9014 8.20117C10.7975 8.37694 10.7025 8.55825 10.6152 8.74414C10.6072 8.76113 10.5987 8.77785 10.5908 8.79492C10.5654 8.85024 10.5405 8.90578 10.5166 8.96191C10.5042 8.99104 10.4925 9.02046 10.4805 9.0498C10.4102 9.22213 10.3466 9.39781 10.291 9.57715C10.2761 9.6253 10.2629 9.67403 10.249 9.72266C10.2367 9.76592 10.2233 9.80891 10.2119 9.85254C10.1903 9.93489 10.1708 10.018 10.1523 10.1016C10.1459 10.1311 10.1399 10.1607 10.1338 10.1904C10.1186 10.2642 10.1044 10.3384 10.0918 10.4131C10.0872 10.4404 10.0824 10.4677 10.0781 10.4951C10.0635 10.5889 10.0506 10.6833 10.04 10.7783C10.0361 10.814 10.0336 10.8499 10.0303 10.8857C10.0236 10.9567 10.018 11.028 10.0137 11.0996C10.0115 11.1354 10.0094 11.1711 10.0078 11.207C10.0035 11.3042 10 11.4018 10 11.5C10 11.5979 10.0035 11.6952 10.0078 11.792C10.0094 11.8279 10.0115 11.8637 10.0137 11.8994C10.0172 11.9573 10.0213 12.0149 10.0264 12.0723C10.0304 12.1186 10.035 12.1648 10.04 12.2109C10.0502 12.3034 10.0622 12.3951 10.0762 12.4863C10.0809 12.5174 10.0866 12.5482 10.0918 12.5791C10.1014 12.6363 10.111 12.6933 10.1221 12.75C10.1303 12.7921 10.1384 12.8342 10.1475 12.876C10.163 12.9475 10.1804 13.0183 10.1982 13.0889C10.2148 13.1547 10.2324 13.2201 10.251 13.2852C10.2617 13.3227 10.2728 13.3602 10.2842 13.3975C10.3694 13.6766 10.4733 13.9472 10.5938 14.209C10.6007 14.2241 10.6082 14.2389 10.6152 14.2539C10.6997 14.4337 10.7916 14.6089 10.8916 14.7793C10.9081 14.8074 10.9245 14.8355 10.9414 14.8633C10.9725 14.9144 11.0037 14.9654 11.0361 15.0156C11.0386 15.0194 11.0405 15.0236 11.043 15.0273C10.1375 15.9368 8.88469 16.5 7.5 16.5C4.73858 16.5 2.5 14.2614 2.5 11.5C2.5 8.73858 4.73858 6.5 7.5 6.5ZM12.7412 7.6582C13.5316 8.7346 14 10.0622 14 11.5C14 12.9822 13.5032 14.3479 12.668 15.4414L12.666 15.4375C12.7675 15.3043 12.8657 15.1683 12.957 15.0273C12.0568 14.1231 11.5 12.8767 11.5 11.5C11.5 10.123 12.0565 8.87592 12.957 7.97168C12.888 7.86507 12.8161 7.76042 12.7412 7.6582ZM12.666 7.56055L12.668 7.55859C12.693 7.59134 12.7168 7.62497 12.7412 7.6582C12.7169 7.62506 12.6909 7.59321 12.666 7.56055Z" fill="oklch(0.3523 0 0 / 1)" class="wd-icon-fill"></path>
</svg>