<svg width="24" height="24" viewBox="0 0 24 24" xmlns="http://www.w3.org/2000/svg" class="wd-icon wd-icon-user-group-circle" role="presentation">
<g>
<path d="M12 14C13.5522 14 14.8985 14.501 15.5615 15.6611C15.8228 16.1186 15.5032 16.6495 14.9854 16.7461C14.3065 16.8723 13.2987 17 12 17C10.7016 17 9.69445 16.8723 9.01562 16.7461C8.49744 16.6497 8.17792 16.1187 8.43945 15.6611C9.10252 14.5012 10.4479 14 12 14Z" fill="oklch(0.3523 0 0 / 1)" class="wd-icon-fill"></path>
<path d="M9.17383 12.0049C9.35083 12.5008 9.65437 12.9366 10.0459 13.2734C9.13774 13.5505 8.31957 14.0564 7.75195 14.876L7.70215 14.9551C7.01328 14.9069 6.44789 14.8265 6.01562 14.7461C5.49744 14.6497 5.17792 14.1187 5.43945 13.6611C6.10255 12.5013 7.44799 12 9 12C9.05827 12 9.11617 12.0035 9.17383 12.0049Z" fill="oklch(0.3523 0 0 / 1)" class="wd-icon-fill"></path>
<path d="M14.998 12C16.5501 12.0001 17.8966 12.5011 18.5596 13.6611C18.8206 14.1184 18.501 14.6493 17.9834 14.7461C17.5518 14.8264 16.9867 14.9068 16.2988 14.9551C15.7295 14.0891 14.8892 13.5591 13.9521 13.2734C14.3441 12.9366 14.6478 12.5008 14.8252 12.0049C14.8824 12.0035 14.9402 12 14.998 12Z" fill="oklch(0.3523 0 0 / 1)" class="wd-icon-fill"></path>
<path d="M12 9C13.1045 9.00012 14 9.8955 14 11C14 12.1045 13.1045 12.9999 12 13C10.8955 12.9999 10 12.1045 10 11C10 9.8955 10.8955 9.00012 12 9Z" fill="oklch(0.3523 0 0 / 1)" class="wd-icon-fill"></path>
<path d="M9 7C9.83155 7.00023 10.5442 7.50814 10.8457 8.23047C9.76186 8.6827 9 9.75223 9 11L8.79492 10.9893C7.78663 10.8866 7 10.0354 7 9C7 7.8955 7.89553 7.00012 9 7Z" fill="oklch(0.3523 0 0 / 1)" class="wd-icon-fill"></path>
<path d="M14.998 7C16.1024 7.00031 16.998 7.89562 16.998 9C16.998 10.1041 16.1029 10.9982 14.999 10.999C14.9986 9.75088 14.2359 8.68311 13.1514 8.23145C13.4527 7.50851 14.166 7.00009 14.998 7Z" fill="oklch(0.3523 0 0 / 1)" class="wd-icon-fill"></path>
<path d="M12 2C17.5228 2 22 6.47715 22 12C22 17.5228 17.5228 22 12 22C6.47715 22 2 17.5228 2 12C2 6.47715 6.47715 2 12 2ZM12 4C7.58172 4 4 7.58172 4 12C4 16.4183 7.58172 20 12 20C16.4183 20 20 16.4183 20 12C20 7.58172 16.4183 4 12 4Z" fill="oklch(0.3523 0 0 / 1)" class="wd-icon-fill"></path>
</g>
</svg>