<svg width="24" height="24" viewBox="0 0 24 24" xmlns="http://www.w3.org/2000/svg" class="wd-icon wd-icon-font-size" role="presentation">
<path d="M18.1136 1.00098C18.3215 1.0011 18.508 1.12973 18.5814 1.32422L23.1068 13.3232C23.2301 13.6501 22.9883 13.9998 22.639 14H20.6195C20.4051 14 20.2146 13.8632 20.1459 13.6602L19.3324 11.252H14.6156L13.7845 13.6631C13.715 13.8646 13.5251 13.9999 13.3119 14H11.3636C11.0144 13.9997 10.7726 13.6501 10.8959 13.3232L15.4213 1.32422C15.4947 1.12975 15.6812 1.00115 15.889 1.00098H18.1136ZM16.9554 3.95312C16.714 4.90019 16.3612 6.10797 15.7855 7.81641L15.3763 9.00488H18.5521L18.1058 7.68652C17.5673 6.10807 17.2154 4.90019 16.974 3.95312H16.9554Z" fill="oklch(0.3523 0 0 / 1)" class="wd-icon-fill"></path>
<path d="M7.38906 10.0029C7.59695 10.0031 7.7834 10.1317 7.85684 10.3262L11.6273 20.3232C11.7507 20.6503 11.5081 21 11.1586 21H9.61758C9.40322 20.9999 9.21261 20.8632 9.14395 20.6602L8.47305 18.6748H4.48281L3.79824 20.6631C3.72876 20.8646 3.53877 20.9998 3.32559 21H1.84317C1.49371 20.9999 1.25207 20.6502 1.37539 20.3232L5.1459 10.3262C5.21941 10.1317 5.40571 10.0029 5.61367 10.0029H7.38906ZM6.46231 12.501C6.25809 13.3021 5.96 14.3234 5.47305 15.7686L5.12735 16.7744H7.81387L7.43594 15.6582C6.98046 14.3231 6.68214 13.3021 6.47793 12.501H6.46231Z" fill="oklch(0.3523 0 0 / 1)" class="wd-icon-accent"></path>
</svg>