<svg width="24" height="24" viewBox="0 0 24 24" xmlns="http://www.w3.org/2000/svg" class="wd-icon wd-icon-bid-strikethrough" role="presentation">
<g>
<path d="M4.5004 8.99992C4.77632 9.00017 5.00039 9.22394 5.0004 9.49992V14.9999H12.5004C12.7763 15.0002 13.0004 15.224 13.0004 15.4999V21.4999C13.0003 21.7758 12.7762 21.9996 12.5004 21.9999H11.5004C11.2243 21.9999 11.0005 21.776 11.0004 21.4999V16.9999H4.0004C3.44821 16.9999 3.00054 16.5521 3.0004 15.9999V9.49992C3.00042 9.22379 3.22427 8.99992 3.5004 8.99992H4.5004Z" fill="oklch(0.3523 0 0 / 1)" class="wd-icon-fill"></path>
<path d="M2.83439 2.1464C3.02965 1.95123 3.34619 1.95117 3.54142 2.1464L4.39494 2.99992H20.0004C20.5525 3.00016 21.0004 3.4478 21.0004 3.99992V15.9999C21.0002 16.5519 20.5524 16.9997 20.0004 16.9999H18.3959L21.8354 20.4394C22.0302 20.6346 22.0304 20.9513 21.8354 21.1464L21.1274 21.8534C20.9321 22.0485 20.6156 22.0484 20.4203 21.8534L2.12736 3.56046C1.93213 3.36523 1.93219 3.0487 2.12736 2.85343L2.83439 2.1464ZM16.3959 14.9999H19.0004V4.99992H6.39494L16.3959 14.9999Z" fill="oklch(0.3523 0 0 / 1)" class="wd-icon-fill"></path>
</g>
</svg>