<svg width="24" height="24" viewBox="0 0 24 24" xmlns="http://www.w3.org/2000/svg" class="wd-icon wd-icon-users-plus" role="presentation">
<g>
<path d="M8.00049 17C9.14501 17 10.0897 17.2443 10.7554 17.6914C11.3523 18.0924 11.7883 18.6968 11.9409 19.6191C11.1798 19.7848 9.84158 20 8.00049 20C6.15857 20 4.81992 19.7849 4.05908 19.6191C4.21165 18.6968 4.64877 18.0925 5.24561 17.6914C5.91123 17.2443 6.85598 17 8.00049 17Z" fill="transparent" class="wd-icon-background"></path>
<path d="M8.00049 9C8.82892 9 9.50049 9.67157 9.50049 10.5C9.50049 11.3284 8.82892 12 8.00049 12C7.17219 11.9998 6.50049 11.3283 6.50049 10.5C6.50049 9.67167 7.17219 9.00015 8.00049 9Z" fill="transparent" class="wd-icon-background"></path>
</g>
<g>
<path d="M7.9998 15C9.39618 15 10.7715 15.2934 11.8699 16.0312C13.0011 16.7912 13.7565 17.9705 13.95 19.5439C14.0678 20.5017 13.4266 21.3301 12.5428 21.5352C11.6814 21.7349 10.1352 22 7.9998 22C5.86437 22 4.31819 21.7349 3.45683 21.5352C2.57304 21.3301 1.93183 20.5016 2.0496 19.5439C2.24311 17.9705 2.99847 16.7912 4.12968 16.0312C5.22809 15.2934 6.60341 15 7.9998 15ZM7.9998 17C6.85518 17 5.91059 17.2443 5.24491 17.6914C4.64799 18.0925 4.21098 18.6967 4.05839 19.6191C4.81926 19.7849 6.15776 20 7.9998 20C9.84107 20 11.1792 19.7848 11.9402 19.6191C11.7876 18.6968 11.3516 18.0924 10.7547 17.6914C10.089 17.2443 9.14442 17 7.9998 17Z" fill="oklch(0.3523 0 0 / 1)" class="wd-icon-fill"></path>
<path d="M15.9998 10C18.5228 10 21.0501 10.9966 21.7937 13.7383C21.9383 14.2713 21.6236 14.8202 21.0906 14.9648C20.5577 15.1093 20.0086 14.7947 19.8641 14.2617C19.4624 12.7807 18.0994 12 15.9998 12C15.3653 12 14.7851 12.0757 14.2791 12.2227C13.7488 12.3767 13.1939 12.0713 13.0398 11.541C12.8858 11.0108 13.1904 10.456 13.7205 10.3018C14.4393 10.0929 15.2123 10 15.9998 10Z" fill="oklch(0.3523 0 0 / 1)" class="wd-icon-fill"></path>
<path d="M7.9998 7C9.93279 7 11.4998 8.567 11.4998 10.5C11.4998 12.433 9.93279 14 7.9998 14C6.06682 14 4.4998 12.433 4.4998 10.5C4.4998 8.56702 6.06682 7.00002 7.9998 7ZM7.9998 9C7.17139 9.00002 6.4998 9.67159 6.4998 10.5C6.4998 11.3284 7.17139 12 7.9998 12C8.82822 12 9.4998 11.3284 9.4998 10.5C9.4998 9.67157 8.82822 9 7.9998 9Z" fill="oklch(0.3523 0 0 / 1)" class="wd-icon-fill"></path>
<path d="M15.9998 2C17.9328 2 19.4998 3.567 19.4998 5.5C19.4998 7.433 17.9328 9 15.9998 9C14.0668 8.99998 12.4998 7.43298 12.4998 5.5C12.4998 3.56702 14.0668 2.00002 15.9998 2ZM15.9998 4C15.1714 4.00002 14.4998 4.67159 14.4998 5.5C14.4998 6.32841 15.1714 6.99998 15.9998 7C16.8282 7 17.4998 6.32843 17.4998 5.5C17.4998 4.67157 16.8282 4 15.9998 4Z" fill="oklch(0.3523 0 0 / 1)" class="wd-icon-fill"></path>
</g>
<path d="M20 16.75C20.4142 16.75 20.75 17.0858 20.75 17.5V19.25H22.5C22.9142 19.25 23.25 19.5858 23.25 20C23.25 20.4142 22.9142 20.75 22.5 20.75H20.75V22.5C20.75 22.9142 20.4142 23.25 20 23.25C19.5858 23.25 19.25 22.9142 19.25 22.5V20.75H17.5C17.0858 20.75 16.75 20.4142 16.75 20C16.75 19.5858 17.0858 19.25 17.5 19.25H19.25V17.5C19.25 17.0858 19.5858 16.75 20 16.75Z" fill="oklch(0.3523 0 0 / 1)" class="wd-icon-accent"></path>
</svg>