<svg width="24" height="24" viewBox="0 0 24 24" xmlns="http://www.w3.org/2000/svg" class="wd-icon wd-icon-remove-row-after" role="presentation">
<g>
<path d="M20.5 15C21.3284 15.0001 22 15.6716 22 16.5V19.5C22 20.3284 21.3284 20.9999 20.5 21H12.5C11.6716 21 11 20.3284 11 19.5V16.5C11 15.6716 11.6716 15 12.5 15H20.5ZM13 19H20V17H13V19Z" fill="oklch(0.3523 0 0 / 1)" class="wd-icon-fill"></path>
<path d="M13.5 8C14.3284 8.00009 15 8.67163 15 9.5V12.5C15 13.3284 14.3284 13.9999 13.5 14H5.5C4.67157 14 4 13.3284 4 12.5V9.5C4 8.67157 4.67157 8 5.5 8H13.5ZM6 12H13V10H6V12Z" fill="oklch(0.3523 0 0 / 1)" class="wd-icon-fill"></path>
<path d="M13.5 1C14.3284 1.00009 15 1.67163 15 2.5V5.5C15 6.32837 14.3284 6.99991 13.5 7H5.5C4.67157 7 4 6.32843 4 5.5V2.5C4 1.67157 4.67157 1 5.5 1H13.5ZM6 5H13V3H6V5Z" fill="oklch(0.3523 0 0 / 1)" class="wd-icon-fill"></path>
</g>
<path d="M7.4394 16.1464C7.63466 15.9512 7.95118 15.9512 8.14643 16.1464L8.85346 16.8535C9.04843 17.0487 9.04859 17.3653 8.85346 17.5605L7.41401 18.9999L8.85346 20.4394C9.0487 20.6347 9.04872 20.9512 8.85346 21.1464L8.14643 21.8535C7.95116 22.0486 7.63462 22.0487 7.4394 21.8535L5.99994 20.414L4.56049 21.8535C4.36532 22.0486 4.04873 22.0484 3.85346 21.8535L3.14643 21.1464C2.95118 20.9512 2.9512 20.6347 3.14643 20.4394L4.58588 18.9999L3.14643 17.5605C2.95126 17.3653 2.95131 17.0487 3.14643 16.8535L3.85346 16.1464C4.0487 15.9512 4.36522 15.9512 4.56049 16.1464L5.99994 17.5859L7.4394 16.1464Z" fill="oklch(0.3523 0 0 / 1)" class="wd-icon-accent"></path>
</svg>