<svg width="24" height="24" viewBox="0 0 24 24" xmlns="http://www.w3.org/2000/svg" class="wd-icon wd-icon-insert-column-before" role="presentation">
<g>
<path d="M11 10.5C11 10.2239 11.2239 10 11.5 10H14.5C14.7761 10 15 10.2239 15 10.5V18.5C15 18.7761 14.7761 19 14.5 19H11.5C11.2239 19 11 18.7761 11 18.5V10.5Z" fill="transparent" class="wd-icon-background"></path>
<path d="M4 3.5C4 3.22386 4.22386 3 4.5 3H7.5C7.77614 3 8 3.22386 8 3.5V11.5C8 11.7761 7.77614 12 7.5 12H4.5C4.22386 12 4 11.7761 4 11.5V3.5Z" fill="transparent" class="wd-icon-background"></path>
<path d="M18 10.5C18 10.2239 18.2239 10 18.5 10H21.5C21.7761 10 22 10.2239 22 10.5V18.5C22 18.7761 21.7761 19 21.5 19H18.5C18.2239 19 18 18.7761 18 18.5V10.5Z" fill="transparent" class="wd-icon-background"></path>
</g>
<g>
<path d="M14.5 9C15.3284 9 16 9.67157 16 10.5V18.5C16 19.3284 15.3284 20 14.5 20H11.5C10.6716 20 10 19.3284 10 18.5V10.5C10 9.67157 10.6716 9 11.5 9H14.5ZM12 18H14V11H12V18Z" fill="oklch(0.3523 0 0 / 1)" class="wd-icon-fill"></path>
<path d="M21.5 9C22.3284 9 23 9.67157 23 10.5V18.5C23 19.3284 22.3284 20 21.5 20H18.5C17.6716 20 17 19.3284 17 18.5V10.5C17 9.67157 17.6716 9 18.5 9H21.5ZM19 18H21V11H19V18Z" fill="oklch(0.3523 0 0 / 1)" class="wd-icon-fill"></path>
<path d="M7.5 2C8.32843 2 9 2.67157 9 3.5V11.5C9 12.3284 8.32843 13 7.5 13H4.5C3.67157 13 3 12.3284 3 11.5V3.5C3 2.67157 3.67157 2 4.5 2H7.5ZM5 11H7V4H5V11Z" fill="oklch(0.3523 0 0 / 1)" class="wd-icon-fill"></path>
</g>
<path d="M5.5 15C5.77614 15 6 15.2239 6 15.5V16.9951H7.50488C7.78102 16.9951 8.00488 17.219 8.00488 17.4951V18.4951C8.00488 18.7713 7.78102 18.9951 7.50488 18.9951H6V20.5C6 20.7761 5.77614 21 5.5 21H4.5C4.22386 21 4 20.7761 4 20.5V18.9951H2.50488C2.22874 18.9951 2.00488 18.7713 2.00488 18.4951V17.4951C2.00488 17.219 2.22874 16.9951 2.50488 16.9951H4V15.5C4 15.2239 4.22386 15 4.5 15H5.5Z" fill="oklch(0.3523 0 0 / 1)" class="wd-icon-accent"></path>
</svg>