<svg width="24" height="24" viewBox="0 0 24 24" xmlns="http://www.w3.org/2000/svg" class="wd-icon wd-icon-prism" role="presentation">
<path d="M10.7814 2.25086C11.5573 1.90595 12.4431 1.90598 13.2189 2.25086C13.7664 2.49446 14.1573 2.93858 14.4885 3.40614C14.8225 3.8779 15.1905 4.51443 15.6349 5.28211L21.0851 14.6952C21.5313 15.4659 21.9012 16.1045 22.1447 16.6307C22.3859 17.1522 22.5771 17.714 22.5148 18.3114C22.4264 19.1572 21.9829 19.9265 21.2951 20.4266C20.8094 20.7795 20.2273 20.8956 19.6554 20.9481C19.0782 21.001 18.3405 20.9999 17.4504 20.9999H6.54997C5.65987 20.9999 4.92216 21.001 4.3449 20.9481C3.77308 20.8956 3.19095 20.7794 2.70525 20.4266C2.01752 19.9265 1.57393 19.1571 1.48552 18.3114C1.42323 17.7139 1.61444 17.1522 1.85564 16.6307C2.09912 16.1044 2.46895 15.466 2.91521 14.6952L8.3654 5.28211C8.80993 4.51429 9.17776 3.87794 9.51189 3.40614C9.84312 2.93849 10.2338 2.49448 10.7814 2.25086ZM4.78728 18.9725C5.22113 18.9968 5.78323 18.9999 6.54997 18.9999H17.4504C18.2168 18.9999 18.7783 18.9967 19.2121 18.9725L12.0002 14.8192L4.78728 18.9725ZM11.0002 4.77528C10.7624 5.1376 10.4795 5.62152 10.0959 6.28407L4.64665 15.6972C4.26009 16.3648 3.979 16.8541 3.7824 17.2431L11.0002 13.0878V4.77528ZM13.0002 13.0878L20.216 17.2421C20.0194 16.8534 19.7398 16.364 19.3537 15.6972L13.9045 6.28407C13.5212 5.62209 13.2378 5.13844 13.0002 4.77625V13.0878Z" fill="oklch(0.3523 0 0 / 1)" class="wd-icon-fill"></path>
</svg>