<svg width="24" height="24" viewBox="0 0 24 24" xmlns="http://www.w3.org/2000/svg" class="wd-icon wd-icon-union" role="presentation">
<path d="M6.25 3C6.52614 3 6.75 3.22386 6.75 3.5V13.5C6.75 16.3995 9.10051 18.75 12 18.75C14.8995 18.75 17.25 16.3995 17.25 13.5V3.5C17.25 3.22386 17.4739 3 17.75 3H19.5C19.7761 3 20 3.22386 20 3.5V13.25C20 17.5307 16.6378 21.0257 12.4102 21.2393C12.2743 21.2463 12.1376 21.25 12 21.25C11.8621 21.25 11.725 21.2464 11.5889 21.2393C7.36166 21.0253 4 17.5304 4 13.25V3.5C4 3.22386 4.22386 3 4.5 3H6.25Z" fill="oklch(0.3523 0 0 / 1)" class="wd-icon-fill"></path>
</svg>