<svg width="24" height="24" viewBox="0 0 24 24" xmlns="http://www.w3.org/2000/svg" class="wd-icon wd-icon-arrow-u-turn-left" role="presentation">
<path d="M8.29475 5.29287C8.68525 4.90236 9.31828 4.90239 9.70881 5.29287C10.0992 5.6834 10.0993 6.31645 9.70881 6.70693L8.41584 7.9999H14.4998C17.5373 7.9999 19.9997 10.4624 19.9998 13.4999C19.9998 16.5375 17.5374 18.9999 14.4998 18.9999H8.99983C8.44754 18.9999 7.99983 18.5522 7.99983 17.9999C7.99996 17.4477 8.44762 16.9999 8.99983 16.9999H14.4998C16.4328 16.9999 17.9998 15.4329 17.9998 13.4999C17.9997 11.567 16.4327 9.9999 14.4998 9.9999H8.41584L9.70881 11.2929C10.0991 11.6834 10.0992 12.3165 9.70881 12.7069C9.31833 13.0972 8.68524 13.0972 8.29475 12.7069L5.29475 9.70693C4.90432 9.31645 4.90439 8.68339 5.29475 8.29287L8.29475 5.29287Z" fill="oklch(0.3523 0 0 / 1)" class="wd-icon-fill"></path>
</svg>