<svg width="24" height="24" viewBox="0 0 24 24" xmlns="http://www.w3.org/2000/svg" class="wd-icon wd-icon-list-bullet" role="presentation">
<g>
<path d="M4 15C5.10457 15 6 15.8954 6 17C6 18.1046 5.10457 19 4 19C2.89543 19 2 18.1046 2 17C2 15.8954 2.89543 15 4 15Z" fill="oklch(0.3523 0 0 / 1)" class="wd-icon-fill"></path>
<path d="M22.5 16C22.7761 16 23 16.2239 23 16.5V17.5C23 17.7761 22.7761 18 22.5 18H8.5C8.22386 18 8 17.7761 8 17.5V16.5C8 16.2239 8.22386 16 8.5 16H22.5Z" fill="oklch(0.3523 0 0 / 1)" class="wd-icon-fill"></path>
<path d="M4 5C5.10457 5 6 5.89543 6 7C6 8.10457 5.10457 9 4 9C2.89543 9 2 8.10457 2 7C2 5.89543 2.89543 5 4 5Z" fill="oklch(0.3523 0 0 / 1)" class="wd-icon-fill"></path>
<path d="M22.5 6C22.7761 6 23 6.22386 23 6.5V7.5C23 7.77614 22.7761 8 22.5 8H8.5C8.22386 8 8 7.77614 8 7.5V6.5C8 6.22386 8.22386 6 8.5 6H22.5Z" fill="oklch(0.3523 0 0 / 1)" class="wd-icon-fill"></path>
</g>
</svg>