<svg width="24" height="24" viewBox="0 0 24 24" xmlns="http://www.w3.org/2000/svg" class="wd-icon wd-icon-tag-merge" role="presentation">
<g>
<path d="M11.1698 11.5479C11.2983 11.5624 11.433 11.6401 11.5721 11.7793C11.7043 11.9115 11.8329 12.0869 11.9579 12.3047C12.083 12.5228 12.1584 12.7481 12.1835 12.9805C12.2121 13.2092 12.1472 13.4023 11.9901 13.5596C11.8794 13.6703 11.7521 13.712 11.6093 13.6836C11.4628 13.6514 11.3176 13.5637 11.1747 13.4209C11.0102 13.2564 10.876 13.0647 10.7723 12.8467C10.6651 12.6251 10.6113 12.4104 10.6112 12.2031C10.6112 11.9957 10.6781 11.8257 10.8104 11.6934C10.9248 11.5791 11.0447 11.53 11.1698 11.5479Z" fill="transparent" class="wd-icon-background"></path>
<path d="M16.7997 4.99902C17.3756 4.99902 17.7489 5.00033 18.0321 5.02344C18.3024 5.04558 18.4044 5.08323 18.454 5.1084C18.6416 5.20418 18.7947 5.3573 18.8905 5.54492C18.9157 5.59441 18.9533 5.69586 18.9755 5.9668C18.9986 6.25007 18.9999 6.62291 18.9999 7.19922V10.0107C18.9999 10.7916 18.993 11.0203 18.9442 11.2236C18.8953 11.4274 18.8144 11.623 18.705 11.8018C18.5957 11.9799 18.4385 12.1464 17.8866 12.6982L12.5555 18.0293C12.1481 18.4367 11.8835 18.6998 11.6669 18.8838C11.4601 19.0592 11.3614 19.1048 11.3085 19.1221C11.1082 19.187 10.8916 19.1869 10.6913 19.1221C10.6385 19.1048 10.5396 19.0592 10.3329 18.8838C10.1163 18.6999 9.85148 18.4366 9.44422 18.0293L5.96961 14.5547C5.56232 14.1474 5.29903 13.8826 5.11512 13.666C4.9394 13.4589 4.89399 13.3604 4.87684 13.3076C4.81193 13.1072 4.81184 12.8908 4.87684 12.6904C4.89408 12.6376 4.93947 12.539 5.11512 12.332C5.29907 12.1154 5.56218 11.8508 5.96961 11.4434L11.3007 6.1123C11.8524 5.56058 12.019 5.40321 12.1971 5.29395C12.3758 5.18456 12.5716 5.10365 12.7753 5.05469C12.9785 5.00599 13.2079 4.99903 13.9882 4.99902H16.7997ZM12.1571 9.09082C11.6208 8.95496 11.0853 8.97172 10.5526 9.13965C10.0234 9.30414 9.54192 9.60259 9.10926 10.0352C8.65153 10.4929 8.34967 11.0138 8.20301 11.5967C8.05284 12.176 8.06716 12.7628 8.24598 13.3564C8.42484 13.95 8.75773 14.4903 9.24402 14.9766C9.69809 15.4305 10.1954 15.7349 10.7352 15.8887C11.275 16.0422 11.8205 16.0364 12.371 15.8721C12.9251 15.7039 13.4427 15.3804 13.9218 14.9014C14.1684 14.6547 14.3709 14.4019 14.5282 14.1445C14.6241 13.9876 14.7045 13.8273 14.7684 13.665C14.8356 13.4935 14.7308 13.3085 14.5546 13.2549C14.3619 13.1968 14.158 13.3175 14.0731 13.5C14.0382 13.5754 13.9959 13.655 13.9481 13.7373C13.823 13.9552 13.6549 14.1701 13.4442 14.3809C13.0724 14.7526 12.6733 15.0017 12.2479 15.127C11.8297 15.2521 11.4103 15.252 10.9921 15.127C10.5774 14.9982 10.1891 14.7526 9.82801 14.3916C9.42754 13.9911 9.14846 13.5612 8.99109 13.1035C8.83392 12.646 8.81103 12.1939 8.92176 11.7471C9.02908 11.2965 9.26729 10.8859 9.63563 10.5176C9.95726 10.1962 10.3113 9.96686 10.6971 9.83105C11.0831 9.69537 11.4789 9.67963 11.8827 9.7832C12.2902 9.88343 12.6795 10.1181 13.0477 10.4863C13.2476 10.6863 13.4064 10.8919 13.5243 11.1025C13.6387 11.3099 13.6998 11.5039 13.7069 11.6826C13.7175 11.8575 13.6671 12.0006 13.5565 12.1113C13.4101 12.2577 13.2599 12.2971 13.1063 12.2295C12.9526 12.1544 12.804 12.0094 12.661 11.7949L11.7841 10.4541C11.6501 10.2494 11.3615 10.22 11.1884 10.3926C11.0519 10.5291 11.0373 10.7448 11.1542 10.8984L11.2235 10.9902C11.0664 10.926 10.8994 10.9167 10.7245 10.9629C10.5529 11.0058 10.3876 11.1065 10.2304 11.2637C9.99081 11.5033 9.85664 11.7954 9.82801 12.1387C9.79591 12.4782 9.84982 12.8213 9.98914 13.168C10.1322 13.5113 10.3309 13.8106 10.5848 14.0645C10.8672 14.3467 11.1695 14.5062 11.4911 14.542C11.8128 14.5704 12.1173 14.4412 12.4032 14.1553C12.5783 13.9801 12.6969 13.7763 12.7577 13.5439C12.8184 13.3045 12.8148 13.0682 12.747 12.8359C12.9256 12.9287 13.1225 12.9647 13.3368 12.9434C13.5476 12.9182 13.7611 12.7983 13.9755 12.584C14.2006 12.3587 14.3385 12.0988 14.3886 11.8057C14.435 11.5089 14.3919 11.201 14.2596 10.8828C14.1273 10.5575 13.9092 10.2424 13.6054 9.93848C13.1728 9.50597 12.6897 9.22325 12.1571 9.09082ZM16.0009 6.5C15.1725 6.5 14.5009 7.1716 14.5009 8C14.5009 8.82843 15.1724 9.5 16.0009 9.5C16.8288 9.49941 17.5009 8.82806 17.5009 8C17.5008 7.17197 16.8288 6.50059 16.0009 6.5Z" fill="transparent" class="wd-icon-background"></path>
</g>
<g>
<path d="M10.5525 9.13972C11.0854 8.97161 11.6205 8.95498 12.157 9.09089C12.6897 9.22325 13.1725 9.50588 13.6052 9.93854C13.9092 10.2425 14.1272 10.5574 14.2595 10.8829C14.3918 11.2012 14.4349 11.5089 14.3884 11.8057C14.3383 12.099 14.2006 12.3587 13.9753 12.5841C13.7608 12.7985 13.5476 12.9184 13.3366 12.9434C13.1222 12.9648 12.9255 12.9289 12.7468 12.836C12.8147 13.0684 12.8183 13.3045 12.7575 13.544C12.6967 13.7765 12.5783 13.9801 12.4031 14.1553C12.1169 14.4414 11.8128 14.5707 11.4909 14.5421C11.1692 14.5062 10.8671 14.3469 10.5847 14.0645C10.3308 13.8106 10.1321 13.5114 9.98899 13.168C9.84967 12.8214 9.79577 12.4783 9.82786 12.1387C9.85647 11.7954 9.99064 11.5034 10.2302 11.2637C10.3876 11.1064 10.5527 11.0059 10.7243 10.963C10.8995 10.9166 11.0661 10.926 11.2234 10.9903L11.154 10.8985C11.0372 10.7449 11.0517 10.5291 11.1882 10.3926C11.3613 10.2197 11.6499 10.2493 11.7839 10.4542L12.6609 11.795C12.8039 12.0096 12.9524 12.1545 13.1062 12.2296C13.2599 12.2975 13.4098 12.2579 13.5564 12.1114C13.6672 12.0006 13.7174 11.8578 13.7068 11.6827C13.6996 11.5039 13.6386 11.3101 13.5241 11.1026C13.4062 10.8919 13.2475 10.6864 13.0476 10.4864C12.6792 10.118 12.2903 9.88342 11.8825 9.78327C11.4785 9.67965 11.0832 9.69525 10.697 9.83112C10.311 9.96698 9.9572 10.196 9.63548 10.5176C9.26708 10.886 9.02891 11.2965 8.92161 11.7471C8.81088 12.1939 8.83377 12.6461 8.99095 13.1036C9.1483 13.5613 9.42735 13.9911 9.82786 14.3917C10.189 14.7528 10.5771 14.9982 10.9919 15.127C11.4104 15.2522 11.8293 15.2522 12.2478 15.127C12.6734 15.0018 13.0721 14.7529 13.4441 14.3809C13.655 14.17 13.8228 13.9554 13.948 13.7374C13.9958 13.655 14.038 13.5756 14.073 13.5001C14.1578 13.3175 14.3616 13.1968 14.5544 13.255C14.7311 13.3084 14.8358 13.4933 14.7683 13.6651C14.7043 13.8275 14.624 13.9875 14.5281 14.1446C14.3707 14.4021 14.1684 14.6546 13.9216 14.9014C13.4424 15.3807 12.9252 15.704 12.3708 15.8721C11.8202 16.0366 11.275 16.0424 10.7351 15.8887C10.1952 15.735 9.69802 15.4307 9.24388 14.9766C8.75756 14.4903 8.42469 13.9501 8.24583 13.3565C8.06702 12.7629 8.05269 12.1761 8.20286 11.5967C8.3495 11.0138 8.65133 10.493 9.10911 10.0352C9.54186 9.60247 10.0232 9.30425 10.5525 9.13972ZM11.1697 11.5479C11.0445 11.53 10.9247 11.579 10.8103 11.6934C10.678 11.8258 10.6111 11.9958 10.6111 12.2032C10.6111 12.4105 10.665 12.6252 10.7722 12.8467C10.8759 13.0649 11.01 13.2565 11.1745 13.421C11.3175 13.5639 11.4626 13.6514 11.6091 13.6837C11.7522 13.7123 11.8791 13.6705 11.99 13.5596C12.1473 13.4023 12.2119 13.2094 12.1833 12.9805C12.1583 12.7481 12.0829 12.5229 11.9577 12.3048C11.8327 12.0868 11.7042 11.9116 11.572 11.7794C11.4326 11.64 11.2984 11.5623 11.1697 11.5479Z" fill="oklch(0.3523 0 0 / 1)" class="wd-icon-fill"></path>
<path d="M16.0007 6.50007C16.8289 6.50033 17.5007 7.1718 17.5007 8.00007C17.5007 8.82833 16.8289 9.4998 16.0007 9.50007C15.1723 9.50007 14.5007 8.82849 14.5007 8.00007C14.5007 7.17164 15.1723 6.50007 16.0007 6.50007Z" fill="oklch(0.3523 0 0 / 1)" class="wd-icon-fill"></path>
<path d="M16.7995 2.99909C17.3429 2.99909 17.8115 2.99805 18.195 3.02936C18.5902 3.06166 18.9839 3.13366 19.362 3.32624C19.9261 3.61374 20.385 4.07276 20.6726 4.63679C20.8653 5.01497 20.9371 5.40864 20.9695 5.80378C21.0008 6.18737 20.9997 6.65588 20.9997 7.19929V10.4942C20.9961 10.949 20.9771 11.3251 20.8894 11.6905C20.7914 12.0985 20.6291 12.4889 20.4099 12.8467C20.2136 13.167 19.9612 13.4465 19.6423 13.7706L13.9695 19.4434C13.5852 19.8277 13.2551 20.1592 12.9616 20.4083C12.6593 20.665 12.3303 20.8923 11.9265 21.0235C11.3241 21.2191 10.6753 21.2192 10.073 21.0235C9.6693 20.8923 9.3401 20.6649 9.03782 20.4083C8.74449 20.1592 8.41414 19.8276 8.03001 19.4434L4.5554 15.9688C4.17125 15.5847 3.83959 15.2543 3.59056 14.961C3.33398 14.6587 3.10649 14.3296 2.97532 13.9258C2.77976 13.3235 2.77967 12.6746 2.97532 12.0723C3.10656 11.6685 3.33389 11.3395 3.59056 11.0372C3.83966 10.7438 4.17111 10.4137 4.5554 10.0294L9.88645 4.69831C10.3715 4.21331 10.7252 3.85066 11.1521 3.58893C11.5098 3.36971 11.9004 3.20744 12.3083 3.10944C12.7954 2.99252 13.302 2.99909 13.988 2.99909H16.7995ZM13.988 4.99909C13.207 4.99909 12.9785 5.00593 12.7751 5.05476C12.5713 5.10377 12.3757 5.18448 12.197 5.29401C12.0188 5.4033 11.8525 5.56037 11.3005 6.11237L5.96946 11.4434C5.56182 11.8511 5.29894 12.1154 5.11497 12.3321C4.93906 12.5394 4.89387 12.6377 4.87669 12.6905C4.81169 12.8909 4.81178 13.1073 4.87669 13.3077C4.89382 13.3604 4.93912 13.4588 5.11497 13.6661C5.29889 13.8827 5.56201 14.1473 5.96946 14.5548L9.44407 18.0294C9.85149 18.4368 10.1161 18.6999 10.3327 18.8839C10.5397 19.0595 10.6383 19.1049 10.6911 19.1221C10.8916 19.1872 11.1079 19.1871 11.3083 19.1221C11.3611 19.105 11.4592 19.0599 11.6667 18.8839C11.8834 18.6999 12.1478 18.437 12.5554 18.0294L17.8865 12.6983C18.4386 12.1462 18.5955 11.98 18.7048 11.8018C18.8144 11.623 18.8951 11.4276 18.9441 11.2237C18.9929 11.0204 18.9997 10.7919 18.9997 10.0108V7.19929C18.9997 6.62292 18.9985 6.25015 18.9753 5.96686C18.9531 5.69555 18.9155 5.59441 18.8904 5.54499C18.7945 5.35721 18.6417 5.20423 18.4538 5.10847C18.4042 5.08328 18.3027 5.04564 18.032 5.02351C17.7487 5.00039 17.3758 4.99909 16.7995 4.99909H13.988Z" fill="oklch(0.3523 0 0 / 1)" class="wd-icon-fill"></path>
</g>
</svg>