<svg width="24" height="24" viewBox="0 0 24 24" xmlns="http://www.w3.org/2000/svg" class="wd-icon wd-icon-scatter-chart" role="presentation">
<g>
<path d="M5.5 14C6.32843 14 7 14.6716 7 15.5C7 16.3284 6.32843 17 5.5 17C4.67157 17 4 16.3284 4 15.5C4 14.6716 4.67157 14 5.5 14Z" fill="oklch(0.3523 0 0 / 1)" class="wd-icon-fill"></path>
<path d="M14 15C14.5523 15 15 15.4477 15 16C15 16.5523 14.5523 17 14 17C13.4477 17 13 16.5523 13 16C13 15.4477 13.4477 15 14 15Z" fill="oklch(0.3523 0 0 / 1)" class="wd-icon-fill"></path>
<path d="M10.5 12C11.3284 12 12 12.6716 12 13.5C12 14.3284 11.3284 15 10.5 15C9.67157 15 9 14.3284 9 13.5C9 12.6716 9.67157 12 10.5 12Z" fill="oklch(0.3523 0 0 / 1)" class="wd-icon-fill"></path>
<path d="M7 10C7.55228 10 8 10.4477 8 11C8 11.5523 7.55228 12 7 12C6.44772 12 6 11.5523 6 11C6 10.4477 6.44772 10 7 10Z" fill="oklch(0.3523 0 0 / 1)" class="wd-icon-fill"></path>
<path d="M19 8C19.5523 8 20 8.44772 20 9C20 9.55228 19.5523 10 19 10C18.4477 10 18 9.55228 18 9C18 8.44772 18.4477 8 19 8Z" fill="oklch(0.3523 0 0 / 1)" class="wd-icon-fill"></path>
<path d="M20 3C20.5523 3 21 3.44772 21 4C21 4.55228 20.5523 5 20 5C19.4477 5 19 4.55228 19 4C19 3.44772 19.4477 3 20 3Z" fill="oklch(0.3523 0 0 / 1)" class="wd-icon-fill"></path>
</g>
<g>
<path d="M4 19C4.55228 19 5 19.4477 5 20C5 20.5523 4.55228 21 4 21C3.44772 21 3 20.5523 3 20C3 19.4477 3.44772 19 4 19Z" fill="oklch(0.3523 0 0 / 1)" class="wd-icon-accent"></path>
<path d="M9 17C9.55228 17 10 17.4477 10 18C10 18.5523 9.55228 19 9 19C8.44772 19 8 18.5523 8 18C8 17.4477 8.44772 17 9 17Z" fill="oklch(0.3523 0 0 / 1)" class="wd-icon-accent"></path>
<path d="M15.5 10C16.3284 10 17 10.6716 17 11.5C17 12.3284 16.3284 13 15.5 13C14.6716 13 14 12.3284 14 11.5C14 10.6716 14.6716 10 15.5 10Z" fill="oklch(0.3523 0 0 / 1)" class="wd-icon-accent"></path>
<path d="M11 8C11.5523 8 12 8.44772 12 9C12 9.55228 11.5523 10 11 10C10.4477 10 10 9.55228 10 9C10 8.44772 10.4477 8 11 8Z" fill="oklch(0.3523 0 0 / 1)" class="wd-icon-accent"></path>
<path d="M15.5 5C16.3284 5 17 5.67157 17 6.5C17 7.32843 16.3284 8 15.5 8C14.6716 8 14 7.32843 14 6.5C14 5.67157 14.6716 5 15.5 5Z" fill="oklch(0.3523 0 0 / 1)" class="wd-icon-accent"></path>
</g>
</svg>