<svg width="24" height="24" viewBox="0 0 24 24" xmlns="http://www.w3.org/2000/svg" class="wd-icon wd-icon-package-arrow-down" role="presentation">
<path d="M15.1719 3C15.9674 3.00008 16.7304 3.31637 17.293 3.87891L19.5352 6.12109C20.4728 7.05878 21 8.33114 21 9.65723V18C21 19.6569 19.6569 21 18 21H6C4.34315 21 3 19.6569 3 18V9.65723C3 8.33114 3.52716 7.05878 4.46484 6.12109L6.70703 3.87891C7.26957 3.31637 8.03258 3.00008 8.82812 3H15.1719ZM5.07617 9C5.028 9.21432 5 9.43417 5 9.65723V18C5 18.5523 5.44772 19 6 19H18C18.5523 19 19 18.5523 19 18V9.65723C19 9.43417 18.972 9.21432 18.9238 9H5.07617ZM8.82812 5C8.56302 5.00008 8.30856 5.1055 8.12109 5.29297L6.41406 7H11V5H8.82812ZM13 7H17.5859L15.8789 5.29297C15.6914 5.1055 15.437 5.00008 15.1719 5H13V7Z" fill="oklch(0.3523 0 0 / 1)" class="wd-icon-fill"></path>
<path d="M11.9998 10.25C12.4138 10.2502 12.7497 10.586 12.7498 11V15.1895L14.4695 13.4697C14.7624 13.1772 15.2373 13.1771 15.5301 13.4697C15.8227 13.7625 15.8227 14.2374 15.5301 14.5303L12.5301 17.5303C12.2372 17.823 11.7624 17.823 11.4695 17.5303L8.46953 14.5303C8.17681 14.2374 8.17683 13.7626 8.46953 13.4697C8.7624 13.1771 9.23725 13.177 9.53008 13.4697L11.2498 15.1895V11C11.2499 10.586 11.5858 10.2502 11.9998 10.25Z" fill="oklch(0.3523 0 0 / 1)" class="wd-icon-accent"></path>
</svg>