<svg width="24" height="24" viewBox="0 0 24 24" xmlns="http://www.w3.org/2000/svg" class="wd-icon wd-icon-paragraph" role="presentation">
<path d="M17.5 3C18.3284 3 19 3.67157 19 4.5C19 5.32843 18.3284 6 17.5 6H16V20C16 20.5523 15.5523 21 15 21C14.4477 21 14 20.5523 14 20V6H11V20C11 20.5523 10.5523 21 10 21C9.44772 21 9 20.5523 9 20V12H7.5C6.30653 12 5.16227 11.5256 4.31836 10.6816C3.47445 9.83773 3 8.69347 3 7.5C3 6.30653 3.47445 5.16227 4.31836 4.31836C5.16227 3.47445 6.30653 3 7.5 3H17.5Z" fill="oklch(0.3523 0 0 / 1)" class="wd-icon-fill"></path>
</svg>