<svg width="24" height="24" viewBox="0 0 24 24" xmlns="http://www.w3.org/2000/svg" class="wd-icon wd-icon-cut" role="presentation">
<path d="M6.99805 2C9.20719 2 10.998 3.79086 10.998 6C10.998 7.44169 10.2347 8.70429 9.09082 9.4082L11.7734 10.8623L20.5215 6.12109C21.007 5.85792 21.6137 6.03802 21.877 6.52344C22.1401 7.00897 21.9601 7.61571 21.4746 7.87891L13.8721 12L21.4746 16.1211C21.9601 16.3843 22.1401 16.991 21.877 17.4766C21.6137 17.962 21.007 18.1421 20.5215 17.8789L11.7734 13.1367L9.09082 14.5908C10.235 15.2947 10.998 16.5581 10.998 18C10.998 20.2091 9.20719 22 6.99805 22C4.78891 22 2.99805 20.2091 2.99805 18C2.99805 16.4462 3.88435 15.0998 5.17871 14.4375C5.18164 14.4359 5.18455 14.4342 5.1875 14.4326L9.6748 12L5.1875 9.56738C5.18441 9.56571 5.18178 9.56323 5.17871 9.56152C3.88457 8.89911 2.99805 7.55369 2.99805 6C2.99805 3.79086 4.78891 2 6.99805 2ZM6.99805 16C5.89348 16 4.99805 16.8954 4.99805 18C4.99805 19.1046 5.89348 20 6.99805 20C8.10262 20 8.99805 19.1046 8.99805 18C8.99805 16.8954 8.10262 16 6.99805 16ZM6.99805 4C5.89348 4 4.99805 4.89543 4.99805 6C4.99805 7.10457 5.89348 8 6.99805 8C8.10262 8 8.99805 7.10457 8.99805 6C8.99805 4.89543 8.10262 4 6.99805 4Z" fill="oklch(0.3523 0 0 / 1)" class="wd-icon-fill"></path>
</svg>