<svg width="24" height="24" viewBox="0 0 24 24" xmlns="http://www.w3.org/2000/svg" class="wd-icon wd-icon-split" role="presentation">
<path d="M18 3C18.5523 3 19 3.44772 19 4V8C18.9998 8.55215 18.5522 9 18 9C17.4478 9 17.0002 8.55215 17 8V6.41406L11.4141 12L17 17.5859V16C17 15.4477 17.4477 15 18 15C18.5523 15 19 15.4477 19 16V20C18.9998 20.5521 18.5522 21 18 21H14C13.4478 21 13.0002 20.5521 13 20C13 19.4477 13.4477 19 14 19H15.5859L9.55762 12.9717C9.43026 12.9882 9.3017 13 9.17188 13H4C3.44782 13 3.00016 12.5521 3 12C3 11.4477 3.44771 11 4 11H9.17188C9.43691 10.9999 9.69146 10.8944 9.87891 10.707L15.5859 5H14C13.4478 5 13.0002 4.55215 13 4C13 3.44772 13.4477 3 14 3H18Z" fill="oklch(0.3523 0 0 / 1)" class="wd-icon-fill"></path>
</svg>