<svg width="24" height="24" viewBox="0 0 24 24" xmlns="http://www.w3.org/2000/svg" class="wd-icon wd-icon-pause-circle-fill" role="presentation">
<path d="M12 2C17.5228 2 22 6.47715 22 12C22 17.5228 17.5228 22 12 22C6.47715 22 2 17.5228 2 12C2 6.47715 6.47715 2 12 2ZM9.375 8C9.02631 8 8.85186 7.99998 8.70996 8.04297C8.39036 8.13992 8.13992 8.39036 8.04297 8.70996C7.99998 8.85186 8 9.02631 8 9.375V14.625C8 14.9737 7.99999 15.1481 8.04297 15.29C8.13992 15.6096 8.39036 15.8601 8.70996 15.957C8.85186 16 9.02631 16 9.375 16C9.72369 16 9.89814 16 10.04 15.957C10.3596 15.8601 10.6101 15.6096 10.707 15.29C10.75 15.1481 10.75 14.9737 10.75 14.625V9.375C10.75 9.02631 10.75 8.85186 10.707 8.70996C10.6101 8.39036 10.3596 8.13992 10.04 8.04297C9.89814 7.99998 9.72369 8 9.375 8ZM14.625 8C14.2763 8 14.1019 7.99998 13.96 8.04297C13.6404 8.13992 13.3899 8.39036 13.293 8.70996C13.25 8.85186 13.25 9.02631 13.25 9.375V14.625C13.25 14.9737 13.25 15.1481 13.293 15.29C13.3899 15.6096 13.6404 15.8601 13.96 15.957C14.1019 16 14.2763 16 14.625 16C14.9737 16 15.1481 16 15.29 15.957C15.6096 15.8601 15.8601 15.6096 15.957 15.29C16 15.1481 16 14.9737 16 14.625V9.375C16 9.02631 16 8.85186 15.957 8.70996C15.8601 8.39036 15.6096 8.13992 15.29 8.04297C15.1481 7.99998 14.9737 8 14.625 8Z" fill="oklch(0.3523 0 0 / 1)" class="wd-icon-fill"></path>
</svg>