<svg width="24" height="24" viewBox="0 0 24 24" xmlns="http://www.w3.org/2000/svg" class="wd-icon wd-icon-book" role="presentation">
<g>
<path d="M8.5 17H7C6.649 17 6.31306 17.0631 6 17.1738V5C6 3.89543 6.89543 3 8 3H8.5V17Z" fill="transparent" class="wd-icon-background"></path>
<path d="M18 17H10V3H18V17Z" fill="transparent" class="wd-icon-background"></path>
</g>
<path d="M18 1C19.1046 1 20 1.89543 20 3V17C20 18.1046 19.1046 19 18 19V21H19C19.5523 21 20 21.4477 20 22C20 22.5523 19.5523 23 19 23H7C5.51353 23 4.28007 21.9188 4.04199 20.5H4V5C4 2.79086 5.79086 1 8 1H18ZM7 19C6.44772 19 6 19.4477 6 20C6 20.5523 6.44772 21 7 21H16V19H7ZM8 3C6.89543 3 6 3.89543 6 5V17.1738C6.31306 17.0631 6.649 17 7 17H18V3H8Z" fill="oklch(0.3523 0 0 / 1)" class="wd-icon-fill"></path>
<path d="M10 17H8.5V3H10V17Z" fill="oklch(0.3523 0 0 / 1)" class="wd-icon-accent"></path>
</svg>