<svg width="24" height="24" viewBox="0 0 24 24" xmlns="http://www.w3.org/2000/svg" class="wd-icon wd-icon-list-order" role="presentation">
<g>
<path d="M20.0039 15C20.5562 15 21.0039 15.4477 21.0039 16C21.0039 16.5523 20.5562 17 20.0039 17H10.0039C9.45162 17 9.00391 16.5523 9.00391 16C9.00391 15.4477 9.45162 15 10.0039 15H20.0039Z" fill="oklch(0.3523 0 0 / 1)" class="wd-icon-fill"></path>
<path d="M20.0039 7C20.5562 7 21.0039 7.44772 21.0039 8C21.0039 8.55228 20.5562 9 20.0039 9H10.0039C9.45162 9 9.00391 8.55228 9.00391 8C9.00391 7.44772 9.45162 7 10.0039 7H20.0039Z" fill="oklch(0.3523 0 0 / 1)" class="wd-icon-fill"></path>
</g>
<g>
<path d="M5.13867 12.3398C5.56148 12.3398 5.93551 12.4216 6.25195 12.5947C6.56655 12.7638 6.80639 12.9932 6.96484 13.2842C7.12555 13.5699 7.20605 13.885 7.20605 14.2246C7.20601 14.5788 7.12331 14.9136 6.96094 15.2275L6.96191 15.2285C6.81038 15.526 6.6168 15.8033 6.38281 16.0596C6.15481 16.3093 5.84832 16.6104 5.46484 16.9619L5.46387 16.9609L5.13477 17.2656H6.63672C6.97736 17.2658 7.25386 17.5421 7.25391 17.8828C7.25391 18.2235 6.97739 18.4998 6.63672 18.5H3.74805C3.33505 18.4999 3 18.165 3 17.752C3.00005 17.5443 3.08718 17.3456 3.23926 17.2041L4.54199 15.9922C4.96113 15.6045 5.27492 15.2695 5.4873 14.9863L5.48828 14.9844C5.69574 14.7142 5.78906 14.4562 5.78906 14.208C5.78897 13.9993 5.7252 13.8503 5.61133 13.7402L5.60938 13.7383C5.49966 13.6286 5.34961 13.5664 5.13867 13.5664C4.91524 13.5664 4.74078 13.6416 4.60059 13.79L4.59961 13.7891C4.5438 13.8484 4.49955 13.9164 4.46387 13.9912C4.3337 14.2642 4.07029 14.5829 3.6748 14.583C3.47278 14.583 3.2832 14.4983 3.15723 14.3574C3.02838 14.2131 2.96676 14.0083 3.03516 13.7939C3.08595 13.635 3.15591 13.4831 3.24512 13.3398C3.43881 13.0288 3.70307 12.7851 4.03418 12.6104C4.36764 12.429 4.73731 12.3399 5.13867 12.3398Z" fill="oklch(0.3523 0 0 / 1)" class="wd-icon-accent"></path>
<path d="M5.17285 4.5C5.61267 4.50003 5.96875 4.85705 5.96875 5.29688V9.83301C5.96875 10.224 5.65176 10.541 5.26074 10.541C4.86972 10.541 4.55273 10.224 4.55273 9.83301V6.2793L4.25879 6.47461C3.85051 6.74506 3.30471 6.45261 3.30469 5.96289C3.30469 5.76391 3.40124 5.5771 3.56348 5.46191L4.71191 4.64746C4.8466 4.55188 5.00769 4.5 5.17285 4.5Z" fill="oklch(0.3523 0 0 / 1)" class="wd-icon-accent"></path>
</g>
</svg>