<svg width="24" height="24" viewBox="0 0 24 24" xmlns="http://www.w3.org/2000/svg" class="wd-icon wd-icon-box-text-search" role="presentation">
<path d="M20.5 3C21.3284 3 22 3.67157 22 4.5V11.5C22 11.7761 21.7761 12 21.5 12H20.5C20.2239 12 20 11.7761 20 11.5V5H4V19H11.5C11.7761 19 12 19.2239 12 19.5V20.5C12 20.7761 11.7761 21 11.5 21H3.5C2.67157 21 2 20.3284 2 19.5V4.5C2 3.67157 2.67157 3 3.5 3H20.5Z" fill="oklch(0.3523 0 0 / 1)" class="wd-icon-fill"></path>
<g>
<path d="M17 13C19.2091 13 21 14.7909 21 17C21 17.7417 20.7971 18.4358 20.4453 19.0312L22.1035 20.6895C22.2985 20.8846 22.2984 21.2012 22.1035 21.3965L21.3965 22.1035C21.2013 22.2987 20.8847 22.2986 20.6895 22.1035L19.0312 20.4453C18.4358 20.7971 17.7417 21 17 21C14.7909 21 13 19.2091 13 17C13 14.7909 14.7909 13 17 13ZM17 15C15.8954 15 15 15.8954 15 17C15 18.1046 15.8954 19 17 19C18.1046 19 19 18.1046 19 17C19 15.8954 18.1046 15 17 15Z" fill="oklch(0.3523 0 0 / 1)" class="wd-icon-accent"></path>
<path d="M10.5 14C10.7761 14 11 14.2239 11 14.5V15.5C11 15.7761 10.7761 16 10.5 16H7.5C7.22386 16 7 15.7761 7 15.5V14.5C7 14.2239 7.22386 14 7.5 14H10.5Z" fill="oklch(0.3523 0 0 / 1)" class="wd-icon-accent"></path>
<path d="M13.5 11C13.7761 11 14 11.2239 14 11.5V12.5C14 12.7761 13.7761 13 13.5 13H7.5C7.22386 13 7 12.7761 7 12.5V11.5C7 11.2239 7.22386 11 7.5 11H13.5Z" fill="oklch(0.3523 0 0 / 1)" class="wd-icon-accent"></path>
<path d="M16.5 8C16.7761 8 17 8.22386 17 8.5V9.5C17 9.77614 16.7761 10 16.5 10H7.5C7.22386 10 7 9.77614 7 9.5V8.5C7 8.22386 7.22386 8 7.5 8H16.5Z" fill="oklch(0.3523 0 0 / 1)" class="wd-icon-accent"></path>
</g>
</svg>