<svg width="24" height="24" viewBox="0 0 24 24" xmlns="http://www.w3.org/2000/svg" class="wd-icon wd-icon-bank" role="presentation">
<g>
<path d="M19.9998 18.9992C20.5519 18.9992 20.9995 19.4471 20.9998 19.9992C20.9998 20.5515 20.5521 20.9992 19.9998 20.9992H3.99979C3.44764 20.999 2.99978 20.5514 2.99979 19.9992C3.00002 19.4472 3.44778 18.9993 3.99979 18.9992H19.9998Z" fill="oklch(0.3523 0 0 / 1)" class="wd-icon-fill"></path>
<path d="M9.99978 8.99918C10.5519 8.99918 10.9995 9.4471 10.9998 9.99918C10.9998 10.5515 10.5521 10.9992 9.99978 10.9992V15.9992C10.5519 15.9992 10.9995 16.4471 10.9998 16.9992C10.9998 17.5515 10.5521 17.9992 9.99978 17.9992H4.99978C4.44764 17.999 3.99979 17.5514 3.99979 16.9992C4.00002 16.4472 4.44778 15.9993 4.99978 15.9992V10.9992C4.44764 10.999 3.99979 10.5514 3.99979 9.99918C4.00002 9.4472 4.44778 8.99934 4.99978 8.99918H9.99978ZM6.99978 15.9992H7.99978V10.9992H6.99978V15.9992Z" fill="oklch(0.3523 0 0 / 1)" class="wd-icon-fill"></path>
<path d="M18.9998 8.99918C19.5519 8.99918 19.9995 9.4471 19.9998 9.99918C19.9998 10.5515 19.5521 10.9992 18.9998 10.9992V15.9992C19.5519 15.9992 19.9995 16.4471 19.9998 16.9992C19.9998 17.5515 19.5521 17.9992 18.9998 17.9992H13.9998C13.4476 17.999 12.9998 17.5514 12.9998 16.9992C13 16.4472 13.4478 15.9993 13.9998 15.9992V10.9992C13.4476 10.999 12.9998 10.5514 12.9998 9.99918C13 9.4472 13.4478 8.99934 13.9998 8.99918H18.9998ZM15.9998 15.9992H16.9998V10.9992H15.9998V15.9992Z" fill="oklch(0.3523 0 0 / 1)" class="wd-icon-fill"></path>
<path d="M10.8816 2.44059C11.5853 2.08875 12.4142 2.08888 13.1179 2.44059L20.4471 6.10465C20.8617 6.31195 21.0796 6.77751 20.9734 7.22867C20.8669 7.68004 20.4636 7.99918 19.9998 7.99918H3.99979C3.53613 7.99904 3.13268 7.67995 3.02615 7.22867C2.92006 6.77758 3.138 6.31195 3.55252 6.10465L10.8816 2.44059ZM12.2234 4.22867C12.0828 4.15858 11.9167 4.15844 11.7762 4.22867L8.23514 5.99918H15.7644L12.2234 4.22867Z" fill="oklch(0.3523 0 0 / 1)" class="wd-icon-fill"></path>
</g>
</svg>