<svg width="24" height="24" viewBox="0 0 24 24" xmlns="http://www.w3.org/2000/svg" class="wd-icon wd-icon-arrow-left-circle" role="presentation">
<g>
<path d="M10.293 8.29297C10.6835 7.90294 11.3167 7.90265 11.707 8.29297C12.0973 8.68334 12.0971 9.31649 11.707 9.70703L10.4141 11H15.999C16.5512 11 16.9988 11.4479 16.999 12C16.9988 12.5521 16.5512 13 15.999 13H10.4141L11.707 14.293C12.0974 14.6834 12.0971 15.3165 11.707 15.707C11.3165 16.0971 10.6833 16.0974 10.293 15.707L7.29297 12.707C6.90265 12.3167 6.90295 11.6835 7.29297 11.293L10.293 8.29297Z" fill="oklch(0.3523 0 0 / 1)" class="wd-icon-fill"></path>
<path d="M12 2C17.5228 2 22 6.47715 22 12C22 17.5228 17.5228 22 12 22C6.47715 22 2 17.5228 2 12C2 6.47715 6.47715 2 12 2ZM12 4C7.58172 4 4 7.58172 4 12C4 16.4183 7.58172 20 12 20C16.4183 20 20 16.4183 20 12C20 7.58172 16.4183 4 12 4Z" fill="oklch(0.3523 0 0 / 1)" class="wd-icon-fill"></path>
</g>
</svg>