<svg width="24" height="24" viewBox="0 0 24 24" xmlns="http://www.w3.org/2000/svg" class="wd-icon wd-icon-arrow-up-circle-fill" role="presentation">
<path d="M12 2C17.5228 2 22 6.47715 22 12C22 17.5228 17.5228 22 12 22C6.47715 22 2 17.5228 2 12C2 6.47715 6.47715 2 12 2ZM12.707 7.29297C12.3165 6.90294 11.6833 6.90265 11.293 7.29297L8.29297 10.293C7.90261 10.6833 7.90293 11.3165 8.29297 11.707C8.68352 12.0971 9.31665 12.0974 9.70703 11.707L11 10.4141V15.999C11 16.5512 11.4479 16.9988 12 16.999C12.5521 16.9988 13 16.5512 13 15.999V10.4141L14.293 11.707C14.6835 12.0971 15.3167 12.0973 15.707 11.707C16.0973 11.3167 16.0971 10.6835 15.707 10.293L12.707 7.29297Z" fill="oklch(0.3523 0 0 / 1)" class="wd-icon-fill"></path>
</svg>