<svg width="24" height="24" viewBox="0 0 24 24" xmlns="http://www.w3.org/2000/svg" class="wd-icon wd-icon-x-small" role="presentation">
<path d="M15.7927 6.79289C16.1833 6.40237 16.8163 6.40237 17.2068 6.79289C17.5972 7.18343 17.5973 7.81649 17.2068 8.20696L13.4138 11.9999L17.2068 15.7929C17.5972 16.1834 17.5973 16.8165 17.2068 17.207C16.8163 17.5971 16.1832 17.5972 15.7927 17.207L11.9998 13.414L8.20681 17.207C7.81631 17.5971 7.18318 17.5972 6.79274 17.207C6.40232 16.8165 6.40252 16.1834 6.79274 15.7929L10.5857 11.9999L6.79274 8.20696C6.40232 7.81653 6.40252 7.18344 6.79274 6.79289C7.18327 6.40237 7.81628 6.40237 8.20681 6.79289L11.9998 10.5859L15.7927 6.79289Z" fill="oklch(0.3523 0 0 / 1)" class="wd-icon-fill"></path>
</svg>