<svg width="24" height="24" viewBox="0 0 24 24" xmlns="http://www.w3.org/2000/svg" class="wd-icon wd-icon-bar-horizontal-full-stack-chart" role="presentation">
<g>
<path d="M7.50001 16C7.71929 16 7.93385 15.9993 8.11524 16.0117C8.30561 16.0247 8.53159 16.0554 8.76563 16.1523C9.25548 16.3553 9.64468 16.7445 9.84766 17.2344C9.94461 17.4684 9.9753 17.6944 9.98829 17.8848C10.0007 18.0662 10 18.2807 10 18.5C10 18.7193 10.0007 18.9339 9.98829 19.1152C9.9753 19.3056 9.94461 19.5316 9.84766 19.7656C9.64468 20.2555 9.25548 20.6447 8.76563 20.8477C8.53159 20.9446 8.30561 20.9753 8.11524 20.9883C7.93385 21.0007 7.71929 21 7.50001 21H5.50001C5.28072 21 5.06616 21.0007 4.88477 20.9883C4.6944 20.9753 4.46842 20.9446 4.23438 20.8477C3.74453 20.6447 3.35533 20.2555 3.15235 19.7656C3.05541 19.5316 3.02471 19.3056 3.01172 19.1152C2.99935 18.9339 3.00001 18.7193 3.00001 18.5C3.00001 18.2807 2.99935 18.0662 3.01172 17.8848C3.02471 17.6944 3.05541 17.4684 3.15235 17.2344C3.35533 16.7445 3.74453 16.3553 4.23438 16.1523C4.46842 16.0554 4.6944 16.0247 4.88477 16.0117C5.06616 15.9993 5.28072 16 5.50001 16H7.50001ZM5.02051 18.0068C5.01638 18.0071 5.01247 18.0075 5.0088 18.0078C5.00848 18.0118 5.00715 18.016 5.00684 18.0205C5.00019 18.118 5.00001 18.2534 5.00001 18.5C5.00001 18.7467 5.00019 18.882 5.00684 18.9795C5.00713 18.9837 5.0085 18.9875 5.0088 18.9912C5.0125 18.9915 5.01635 18.9929 5.02051 18.9932C5.11804 18.9998 5.25336 19 5.50001 19H7.50001C7.74665 19 7.88198 18.9998 7.9795 18.9932C7.98403 18.9929 7.98821 18.9915 7.99219 18.9912C7.99248 18.9875 7.99289 18.9836 7.99317 18.9795C7.99982 18.882 8.00001 18.7467 8.00001 18.5C8.00001 18.2534 7.99982 18.118 7.99317 18.0205C7.99286 18.016 7.99251 18.0118 7.99219 18.0078C7.98823 18.0075 7.984 18.0072 7.9795 18.0068C7.88198 18.0002 7.74665 18 7.50001 18H5.50001C5.25336 18 5.11804 18.0002 5.02051 18.0068Z" fill="oklch(0.3523 0 0 / 1)" class="wd-icon-fill"></path>
<path d="M12.5 9.50001C12.7193 9.50001 12.9339 9.49935 13.1152 9.51172C13.3056 9.52471 13.5316 9.55541 13.7656 9.65235C14.2555 9.85533 14.6447 10.2445 14.8477 10.7344C14.9446 10.9684 14.9753 11.1944 14.9883 11.3848C15.0007 11.5662 15 11.7807 15 12C15 12.2193 15.0007 12.4339 14.9883 12.6152C14.9753 12.8056 14.9446 13.0316 14.8477 13.2656C14.6447 13.7555 14.2555 14.1447 13.7656 14.3477C13.5316 14.4446 13.3056 14.4753 13.1152 14.4883C12.9339 14.5007 12.7193 14.5 12.5 14.5H5.50001C5.28072 14.5 5.06616 14.5007 4.88477 14.4883C4.6944 14.4753 4.46842 14.4446 4.23438 14.3477C3.74453 14.1447 3.35533 13.7555 3.15235 13.2656C3.05541 13.0316 3.02471 12.8056 3.01172 12.6152C2.99935 12.4339 3.00001 12.2193 3.00001 12C3.00001 11.7807 2.99935 11.5662 3.01172 11.3848C3.02471 11.1944 3.05541 10.9684 3.15235 10.7344C3.35533 10.2445 3.74453 9.85533 4.23438 9.65235C4.46842 9.55541 4.6944 9.52471 4.88477 9.51172C5.06616 9.49935 5.28072 9.50001 5.50001 9.50001H12.5ZM5.02051 11.5068C5.01635 11.5071 5.0125 11.5085 5.0088 11.5088C5.00851 11.5125 5.00713 11.5163 5.00684 11.5205C5.00019 11.618 5.00001 11.7534 5.00001 12C5.00001 12.2467 5.00019 12.382 5.00684 12.4795C5.00715 12.484 5.00848 12.4882 5.0088 12.4922C5.01247 12.4925 5.01638 12.4929 5.02051 12.4932C5.11804 12.4998 5.25336 12.5 5.50001 12.5H12.5C12.7467 12.5 12.882 12.4998 12.9795 12.4932C12.984 12.4929 12.9882 12.4925 12.9922 12.4922C12.9925 12.4882 12.9929 12.484 12.9932 12.4795C12.9998 12.382 13 12.2467 13 12C13 11.7534 12.9998 11.618 12.9932 11.5205C12.9929 11.5164 12.9925 11.5125 12.9922 11.5088C12.9882 11.5085 12.984 11.5072 12.9795 11.5068C12.882 11.5002 12.7467 11.5 12.5 11.5H5.50001C5.25336 11.5 5.11804 11.5002 5.02051 11.5068Z" fill="oklch(0.3523 0 0 / 1)" class="wd-icon-fill"></path>
<path d="M10.5 3.00001C10.7193 3.00001 10.9339 2.99935 11.1152 3.01172C11.3056 3.02471 11.5316 3.05541 11.7656 3.15235C12.2555 3.35533 12.6447 3.74453 12.8477 4.23438C12.9446 4.46842 12.9753 4.6944 12.9883 4.88477C13.0007 5.06616 13 5.28072 13 5.50001C13 5.71929 13.0007 5.93385 12.9883 6.11524C12.9753 6.30561 12.9446 6.53159 12.8477 6.76563C12.6447 7.25548 12.2555 7.64468 11.7656 7.84766C11.5316 7.94461 11.3056 7.9753 11.1152 7.98829C10.9339 8.00066 10.7193 8.00001 10.5 8.00001H5.50001C5.28072 8.00001 5.06616 8.00066 4.88477 7.98829C4.6944 7.9753 4.46842 7.94461 4.23438 7.84766C3.74453 7.64468 3.35533 7.25548 3.15235 6.76563C3.05541 6.53159 3.02471 6.30561 3.01172 6.11524C2.99935 5.93385 3.00001 5.71929 3.00001 5.50001C3.00001 5.28072 2.99935 5.06616 3.01172 4.88477C3.02471 4.6944 3.05541 4.46842 3.15235 4.23438C3.35533 3.74453 3.74453 3.35533 4.23438 3.15235C4.46842 3.05541 4.6944 3.02471 4.88477 3.01172C5.06616 2.99935 5.28072 3.00001 5.50001 3.00001H10.5ZM5.02051 5.00684C5.01635 5.00713 5.0125 5.00851 5.0088 5.0088C5.00851 5.0125 5.00713 5.01635 5.00684 5.02051C5.00019 5.11804 5.00001 5.25336 5.00001 5.50001C5.00001 5.74665 5.00019 5.88198 5.00684 5.9795C5.00715 5.98403 5.00848 5.98821 5.0088 5.99219C5.01247 5.99248 5.01638 5.99289 5.02051 5.99317C5.11804 5.99982 5.25336 6.00001 5.50001 6.00001H10.5C10.7467 6.00001 10.882 5.99982 10.9795 5.99317C10.984 5.99286 10.9882 5.99251 10.9922 5.99219C10.9925 5.98823 10.9929 5.984 10.9932 5.9795C10.9998 5.88198 11 5.74665 11 5.50001C11 5.25336 10.9998 5.11804 10.9932 5.02051C10.9929 5.01638 10.9925 5.01247 10.9922 5.0088C10.9882 5.00848 10.984 5.00715 10.9795 5.00684C10.882 5.00019 10.7467 5.00001 10.5 5.00001H5.50001C5.25336 5.00001 5.11804 5.00019 5.02051 5.00684Z" fill="oklch(0.3523 0 0 / 1)" class="wd-icon-fill"></path>
</g>
<g>
<path d="M18.5 16C18.7193 16 18.9339 15.9993 19.1152 16.0117C19.3056 16.0247 19.5316 16.0554 19.7656 16.1523C20.2555 16.3553 20.6447 16.7445 20.8477 17.2344C20.9446 17.4684 20.9753 17.6944 20.9883 17.8848C21.0007 18.0662 21 18.2807 21 18.5C21 18.7193 21.0007 18.9339 20.9883 19.1152C20.9753 19.3056 20.9446 19.5316 20.8477 19.7656C20.6447 20.2555 20.2555 20.6447 19.7656 20.8477C19.5316 20.9446 19.3056 20.9753 19.1152 20.9883C18.9339 21.0007 18.7193 21 18.5 21H13.5C13.2807 21 13.0662 21.0007 12.8848 20.9883C12.6944 20.9753 12.4684 20.9446 12.2344 20.8477C11.7445 20.6447 11.3553 20.2555 11.1523 19.7656C11.0554 19.5316 11.0247 19.3056 11.0117 19.1152C10.9993 18.9339 11 18.7193 11 18.5C11 18.2807 10.9993 18.0662 11.0117 17.8848C11.0247 17.6944 11.0554 17.4684 11.1523 17.2344C11.3553 16.7445 11.7445 16.3553 12.2344 16.1523C12.4684 16.0554 12.6944 16.0247 12.8848 16.0117C13.0662 15.9993 13.2807 16 13.5 16H18.5Z" fill="oklch(0.3523 0 0 / 1)" class="wd-icon-accent"></path>
<path d="M18.5 9.50001C18.7193 9.50001 18.9339 9.49935 19.1152 9.51172C19.3056 9.52471 19.5316 9.55541 19.7656 9.65235C20.2555 9.85533 20.6447 10.2445 20.8477 10.7344C20.9446 10.9684 20.9753 11.1944 20.9883 11.3848C21.0007 11.5662 21 11.7807 21 12C21 12.2193 21.0007 12.4339 20.9883 12.6152C20.9753 12.8056 20.9446 13.0316 20.8477 13.2656C20.6447 13.7555 20.2555 14.1447 19.7656 14.3477C19.5316 14.4446 19.3056 14.4753 19.1152 14.4883C18.9339 14.5007 18.7193 14.5 18.5 14.5C18.2807 14.5 18.0662 14.5007 17.8848 14.4883C17.6944 14.4753 17.4684 14.4446 17.2344 14.3477C16.7445 14.1447 16.3553 13.7555 16.1523 13.2656C16.0554 13.0316 16.0247 12.8056 16.0117 12.6152C15.9993 12.4339 16 12.2193 16 12C16 11.7807 15.9993 11.5662 16.0117 11.3848C16.0247 11.1944 16.0554 10.9684 16.1523 10.7344C16.3553 10.2445 16.7445 9.85533 17.2344 9.65235C17.4684 9.55541 17.6944 9.52471 17.8848 9.51172C18.0662 9.49935 18.2807 9.50001 18.5 9.50001Z" fill="oklch(0.3523 0 0 / 1)" class="wd-icon-accent"></path>
<path d="M18.5 3.00001C18.7193 3.00001 18.9339 2.99935 19.1152 3.01172C19.3056 3.02471 19.5316 3.05541 19.7656 3.15235C20.2555 3.35533 20.6447 3.74453 20.8477 4.23438C20.9446 4.46842 20.9753 4.6944 20.9883 4.88477C21.0007 5.06616 21 5.28072 21 5.50001C21 5.71929 21.0007 5.93385 20.9883 6.11524C20.9753 6.30561 20.9446 6.53159 20.8477 6.76563C20.6447 7.25548 20.2555 7.64468 19.7656 7.84766C19.5316 7.94461 19.3056 7.9753 19.1152 7.98829C18.9339 8.00066 18.7193 8.00001 18.5 8.00001H16.5C16.2807 8.00001 16.0662 8.00066 15.8848 7.98829C15.6944 7.9753 15.4684 7.94461 15.2344 7.84766C14.7445 7.64468 14.3553 7.25548 14.1523 6.76563C14.0554 6.53159 14.0247 6.30561 14.0117 6.11524C13.9993 5.93385 14 5.71929 14 5.50001C14 5.28072 13.9993 5.06616 14.0117 4.88477C14.0247 4.6944 14.0554 4.46842 14.1523 4.23438C14.3553 3.74453 14.7445 3.35533 15.2344 3.15235C15.4684 3.05541 15.6944 3.02471 15.8848 3.01172C16.0662 2.99935 16.2807 3.00001 16.5 3.00001H18.5Z" fill="oklch(0.3523 0 0 / 1)" class="wd-icon-accent"></path>
</g>
</svg>