<svg width="24" height="24" viewBox="0 0 24 24" xmlns="http://www.w3.org/2000/svg" class="wd-icon wd-icon-briefcase-search" role="presentation">
<g>
<path d="M18 13C20.2091 13 22 14.7909 22 17C22 17.7417 21.7971 18.4358 21.4453 19.0312L23.1035 20.6895C23.2985 20.8846 23.2984 21.2012 23.1035 21.3965L22.3965 22.1035C22.2013 22.2987 21.8847 22.2986 21.6895 22.1035L20.0312 20.4453C19.4358 20.7971 18.7417 21 18 21C15.7909 21 14 19.2091 14 17C14 14.7909 15.7909 13 18 13ZM18 15C16.8954 15 16 15.8954 16 17C16 18.1046 16.8954 19 18 19C19.1046 19 20 18.1046 20 17C20 15.8954 19.1046 15 18 15Z" fill="oklch(0.3523 0 0 / 1)" class="wd-icon-fill"></path>
<path d="M12 2C13.6982 2 15.2577 2.6058 16.4697 3.6123C16.823 3.90567 16.9999 4.33176 17 4.75098V6H20C21.1046 6 22 6.89543 22 8V11.5C22 11.7761 21.7761 12 21.5 12H20.5C20.2239 12 20 11.7761 20 11.5V8H4V11.1025C5.92859 12.7112 8.3466 13.7471 11 13.957V13.5C11 13.2239 11.2239 13 11.5 13H12.5C12.7761 13 13 13.2239 13 13.5V16.5C13 16.7761 12.7761 17 12.5 17H11.5C11.2239 17 11 16.7761 11 16.5V15.9658C8.42357 15.7902 6.03257 14.939 4 13.5918V20H12.5C12.7761 20 13 20.2239 13 20.5V21.5C13 21.7761 12.7761 22 12.5 22H4C2.89543 22 2 21.1046 2 20V8C2 6.89543 2.89543 6 4 6H7V4.75098C7.00009 4.33176 7.177 3.90567 7.53027 3.6123L7.76172 3.42871C8.93796 2.53276 10.4079 2 12 2ZM12 4C10.8733 4 9.83585 4.37186 9 5V6H15V5C14.1641 4.37186 13.1267 4 12 4Z" fill="oklch(0.3523 0 0 / 1)" class="wd-icon-fill"></path>
</g>
</svg>