<svg width="24" height="24" viewBox="0 0 24 24" xmlns="http://www.w3.org/2000/svg" class="wd-icon wd-icon-coffee" role="presentation">
<g>
<path d="M20.5 18C20.7761 18 21 18.2239 21 18.5V19.5C21 19.7761 20.7761 20 20.5 20H1.5C1.22386 20 1 19.7761 1 19.5V18.5C1 18.2239 1.22386 18 1.5 18H20.5Z" fill="oklch(0.3523 0 0 / 1)" class="wd-icon-fill"></path>
<path d="M19.5 4C21.433 4 23 5.567 23 7.5C23 9.433 21.433 11 19.5 11H18.748C17.86 14.4505 14.7277 17 11 17C6.58172 17 3 13.4183 3 9V5C3 4.44772 3.44772 4 4 4H19.5ZM5 9C5 12.3137 7.68629 15 11 15C14.3137 15 17 12.3137 17 9V6H5V9ZM19 9H19.5C20.3284 9 21 8.32843 21 7.5C21 6.67157 20.3284 6 19.5 6H19V9Z" fill="oklch(0.3523 0 0 / 1)" class="wd-icon-fill"></path>
</g>
</svg>