<svg width="24" height="24" viewBox="0 0 24 24" xmlns="http://www.w3.org/2000/svg" class="wd-icon wd-icon-join-full" role="presentation">
<g>
<path d="M7.5 5C8.70243 5 9.82814 5.327 10.7939 5.89648C9.37834 7.33783 8.5 9.31643 8.5 11.5C8.5 13.6834 9.37914 15.6606 10.7939 17.1016C9.82807 17.6715 8.70283 18 7.5 18C3.91015 18 1 15.0899 1 11.5C1 7.91015 3.91015 5 7.5 5Z" fill="oklch(0.3523 0 0 / 1)" class="wd-icon-fill"></path>
<path d="M16.5 5C20.0899 5 23 7.91015 23 11.5C23 15.0899 20.0899 18 16.5 18C15.2969 18 14.1711 17.6718 13.2051 17.1016C14.6202 15.6606 15.5 13.6837 15.5 11.5C15.5 9.31618 14.621 7.33788 13.2051 5.89648C14.171 5.32674 15.2973 5 16.5 5Z" fill="oklch(0.3523 0 0 / 1)" class="wd-icon-fill"></path>
<path d="M12 6.81152C13.2321 7.9944 14 9.65713 14 11.5C14 13.3426 13.2318 15.0047 12 16.1875C10.7682 15.0047 10 13.3426 10 11.5C10 9.65713 10.7679 7.9944 12 6.81152Z" fill="oklch(0.3523 0 0 / 1)" class="wd-icon-fill"></path>
</g>
</svg>