<svg width="24" height="24" viewBox="0 0 24 24" xmlns="http://www.w3.org/2000/svg" class="wd-icon wd-icon-dashboard-fill" role="presentation">
<g>
<path d="M9.5 14C10.3284 14 11 14.6716 11 15.5V20.5C11 21.3284 10.3284 22 9.5 22H3.5C2.67157 22 2 21.3284 2 20.5V15.5C2 14.6716 2.67157 14 3.5 14H9.5Z" fill="oklch(0.3523 0 0 / 1)" class="wd-icon-fill"></path>
<path d="M20.5 9C21.3284 9 22 9.67157 22 10.5V20.5C22 21.3284 21.3284 22 20.5 22H14.5C13.7233 22 13.0846 21.4097 13.0078 20.6533L13 20.5V10.5C13 9.67157 13.6716 9 14.5 9H20.5Z" fill="oklch(0.3523 0 0 / 1)" class="wd-icon-fill"></path>
<path d="M9.5 2C10.3284 2 11 2.67157 11 3.5V11.5C11 12.3284 10.3284 13 9.5 13H3.5C2.67157 13 2 12.3284 2 11.5V3.5C2 2.67157 2.67157 2 3.5 2H9.5Z" fill="oklch(0.3523 0 0 / 1)" class="wd-icon-fill"></path>
<path d="M20.5 2C21.3284 2 22 2.67157 22 3.5V6.5C22 7.32843 21.3284 8 20.5 8H14.5C13.6716 8 13 7.32843 13 6.5V3.5C13 2.67157 13.6716 2 14.5 2H20.5Z" fill="oklch(0.3523 0 0 / 1)" class="wd-icon-fill"></path>
</g>
</svg>