<svg width="24" height="24" viewBox="0 0 24 24" xmlns="http://www.w3.org/2000/svg" class="wd-icon wd-icon-clock-check" role="presentation">
<g>
<path d="M9.85431 1.21076C11.9878 0.786495 14.2001 1.00435 16.2098 1.83674C18.2195 2.66927 19.9377 4.07977 21.1463 5.88849C22.2621 7.55849 22.8971 9.49969 22.9881 11.4998C23.0006 11.7757 22.7759 11.9998 22.4998 11.9998H21.4998C21.2237 11.9998 21.0015 11.7755 20.9861 11.4998C20.8969 9.89553 20.3792 8.34084 19.4832 6.99982C18.4944 5.52002 17.0884 4.36653 15.4442 3.68537C13.7997 3.00428 11.9897 2.82543 10.244 3.17267C8.49822 3.51997 6.89418 4.37694 5.63556 5.63556C4.37694 6.89418 3.51997 8.49822 3.17267 10.244C2.82543 11.9897 3.00428 13.7997 3.68537 15.4442C4.36653 17.0884 5.52002 18.4944 6.99982 19.4832C8.34084 20.3792 9.89553 20.8969 11.4998 20.9861C11.7755 21.0015 11.9998 21.2237 11.9998 21.4998V22.4998C11.9998 22.7759 11.7757 23.0006 11.4998 22.9881C9.49969 22.8971 7.55849 22.2621 5.88849 21.1463C4.07977 19.9377 2.66927 18.2195 1.83674 16.2098C1.00435 14.2001 0.786495 11.9878 1.21076 9.85431C1.63522 7.7206 2.68317 5.75983 4.2215 4.2215C5.75983 2.68317 7.7206 1.63522 9.85431 1.21076Z" fill="oklch(0.3523 0 0 / 1)" class="wd-icon-fill"></path>
<path d="M12.4998 4.99982C12.7759 4.99982 12.9998 5.22373 12.9998 5.49982V10.9998H16.4998C16.7759 10.9998 16.9998 11.2237 16.9998 11.4998V12.4998C16.9998 12.776 16.776 12.9998 16.4998 12.9998H11.9998C11.4476 12.9998 10.9998 12.5521 10.9998 11.9998V5.49982C10.9999 5.22377 11.2238 4.99988 11.4998 4.99982H12.4998Z" fill="oklch(0.3523 0 0 / 1)" class="wd-icon-fill"></path>
</g>
<path d="M20.9403 15.6464C21.1356 15.4512 21.4521 15.4512 21.6474 15.6464L22.3544 16.3534C22.5496 16.5487 22.5496 16.8652 22.3544 17.0605L17.7079 21.707C17.3175 22.0974 16.6844 22.0973 16.2939 21.707L14.1474 19.5605C13.9522 19.3652 13.9522 19.0487 14.1474 18.8534L14.8544 18.1464C15.0497 17.9512 15.3662 17.9512 15.5614 18.1464L17.0009 19.5859L20.9403 15.6464Z" fill="oklch(0.3523 0 0 / 1)" class="wd-icon-accent"></path>
</svg>