<svg width="24" height="24" viewBox="0 0 24 24" xmlns="http://www.w3.org/2000/svg" class="wd-icon wd-icon-split-up" role="presentation">
<path d="M8.00049 5C8.55263 5.00016 9.00049 5.44782 9.00049 6C9.00033 6.55205 8.55253 6.99984 8.00049 7H6.41455L12.0005 12.5859L17.5864 7H16.0005C15.4483 7 15.0007 6.55215 15.0005 6C15.0005 5.44772 15.4482 5 16.0005 5H20.0005C20.5526 5.00016 21.0005 5.44782 21.0005 6V10C21.0003 10.552 20.5525 10.9998 20.0005 11C19.4483 11 19.0007 10.5521 19.0005 10V8.41406L12.9722 14.4414C12.9888 14.569 13.0005 14.6981 13.0005 14.8281V20C13.0003 20.552 12.5525 20.9998 12.0005 21C11.4483 21 11.0007 20.5521 11.0005 20V14.8281C11.0004 14.5632 10.8948 14.3085 10.7075 14.1211L5.00049 8.41406V10C5.00033 10.552 4.55253 10.9998 4.00049 11C3.4483 11 3.00065 10.5521 3.00049 10V6C3.00049 5.44772 3.4482 5 4.00049 5H8.00049Z" fill="oklch(0.3523 0 0 / 1)" class="wd-icon-fill"></path>
</svg>