<svg width="24" height="24" viewBox="0 0 24 24" xmlns="http://www.w3.org/2000/svg" class="wd-icon wd-icon-download" role="presentation">
<g>
<path d="M19.5 19C19.7761 19 20 19.2239 20 19.5V20.5C20 20.7761 19.7761 21 19.5 21H4.5C4.22386 21 4 20.7761 4 20.5V19.5C4 19.2239 4.22386 19 4.5 19H19.5Z" fill="oklch(0.3523 0 0 / 1)" class="wd-icon-fill"></path>
<path d="M12.5 2C12.7759 2.00021 12.9998 2.22412 13 2.5V13.8906L15.4795 11.8613C15.6931 11.6867 16.0077 11.7182 16.1826 11.9316L16.8164 12.7061C16.9907 12.9197 16.9595 13.2344 16.7461 13.4092L12.6328 16.7754C12.4025 16.9633 12.1085 17.0337 11.8311 16.9863C11.6649 16.9581 11.5041 16.8871 11.3662 16.7744L7.25391 13.4082C7.04055 13.2334 7.00925 12.9187 7.18359 12.7051L7.5 12.3184L7.81543 11.9316C7.99021 11.7178 8.30572 11.6865 8.51953 11.8613L11 13.8906V2.5C11.0002 2.22412 11.2241 2.00021 11.5 2H12.5Z" fill="oklch(0.3523 0 0 / 1)" class="wd-icon-fill"></path>
</g>
</svg>