<svg width="24" height="24" viewBox="0 0 24 24" xmlns="http://www.w3.org/2000/svg" class="wd-icon wd-icon-sort" role="presentation">
<g>
<path d="M16.4991 7.99966C16.7752 7.99966 16.999 8.22365 16.9991 8.49966V19.8903L19.4796 17.861C19.6934 17.6861 20.0089 17.7175 20.1837 17.9313L20.4991 18.318L20.8155 18.7047C20.9902 18.9184 20.9588 19.233 20.7452 19.4079L16.6329 22.7741C16.4951 22.8866 16.3342 22.9578 16.1681 22.986C15.8906 23.0332 15.5965 22.9631 15.3663 22.7751L11.253 19.4088C11.0399 19.2342 11.0087 18.9193 11.1827 18.7057L11.8165 17.9313C11.9913 17.7179 12.306 17.6865 12.5196 17.861L14.9991 19.8903V8.49966C14.9993 8.22391 15.2234 8.00009 15.4991 7.99966H16.4991Z" fill="oklch(0.3523 0 0 / 1)" class="wd-icon-fill"></path>
<path d="M7.36631 1.22427C7.59663 1.03618 7.8905 0.965965 8.16806 1.01333C8.33431 1.04154 8.495 1.11256 8.63291 1.22525L12.7452 4.59146C12.9587 4.76628 12.9901 5.08092 12.8155 5.29458L12.4991 5.6813L12.1837 6.06802C12.0089 6.28194 11.6934 6.31327 11.4796 6.13833L8.99912 4.10904V15.4997C8.99897 15.7757 8.77517 15.9997 8.49912 15.9997H7.49912C7.22325 15.9995 6.99927 15.7755 6.99912 15.4997V4.10904L4.51963 6.13833C4.306 6.31299 3.99137 6.28146 3.8165 6.06802L3.18271 5.29361C3.00853 5.07996 3.03971 4.7652 3.25303 4.59048L7.36631 1.22427Z" fill="oklch(0.3523 0 0 / 1)" class="wd-icon-fill"></path>
</g>
</svg>