<svg width="24" height="24" viewBox="0 0 24 24" xmlns="http://www.w3.org/2000/svg" class="wd-icon wd-icon-clock" role="presentation">
<path d="M12 5C15.866 5 19 8.13401 19 12C19 15.866 15.866 19 12 19C8.13401 19 5 15.866 5 12C5 8.13401 8.13401 5 12 5ZM12 7C11.5858 7 11.2501 7.33584 11.25 7.75V11.793C11.25 12.1244 11.3818 12.4424 11.6162 12.6768L13.9697 15.0303C14.2626 15.3232 14.7374 15.3232 15.0303 15.0303C15.3231 14.7374 15.3231 14.2626 15.0303 13.9697L12.75 11.6895V7.75C12.7499 7.33584 12.4142 7 12 7Z" fill="transparent" class="wd-icon-background"></path>
<path d="M12 3C16.9706 3 21 7.02944 21 12C21 16.9706 16.9706 21 12 21C7.02944 21 3 16.9706 3 12C3 7.02944 7.02944 3 12 3ZM12 5C8.13401 5 5 8.13401 5 12C5 15.866 8.13401 19 12 19C15.866 19 19 15.866 19 12C19 8.13401 15.866 5 12 5Z" fill="oklch(0.3523 0 0 / 1)" class="wd-icon-fill"></path>
<path d="M12 7C12.4142 7 12.7499 7.33584 12.75 7.75V11.6895L15.0303 13.9697C15.3231 14.2626 15.3231 14.7374 15.0303 15.0303C14.7374 15.3232 14.2626 15.3232 13.9697 15.0303L11.6162 12.6768C11.3818 12.4424 11.25 12.1244 11.25 11.793V7.75C11.2501 7.33584 11.5858 7 12 7Z" fill="oklch(0.3523 0 0 / 1)" class="wd-icon-accent"></path>
</svg>