<svg width="24" height="24" viewBox="0 0 24 24" xmlns="http://www.w3.org/2000/svg" class="wd-icon wd-icon-component-edit" role="presentation">
<g>
<path d="M18.207 10.3271C18.6448 9.88977 19.3552 9.88989 19.793 10.3271C20.2307 10.7649 20.2305 11.4752 19.793 11.9131L13.291 18.4141L11.7051 16.8281L18.207 10.3271Z" fill="transparent" class="wd-icon-background"></path>
<path d="M6.00977 9.93848C6.09885 10.0142 6.2146 10.1296 6.42383 10.3389L7.66113 11.5762C7.87039 11.7854 7.98586 11.9011 8.06152 11.9902C8.06397 11.9932 8.06613 11.9972 8.06836 12C8.06611 12.0028 8.06409 12.0067 8.06152 12.0098C7.98582 12.0989 7.87049 12.2145 7.66113 12.4238L6.42383 13.6611C6.21439 13.8706 6.09889 13.9859 6.00977 14.0615C6.00668 14.064 6.00278 14.066 6 14.0684C5.99724 14.0661 5.99322 14.064 5.99023 14.0615C5.90115 13.9859 5.7854 13.8704 5.57617 13.6611L4.33887 12.4238C4.12965 12.2146 4.01415 12.0988 3.93848 12.0098C3.93583 12.0066 3.93302 12.0029 3.93066 12C3.93309 11.9971 3.93577 11.9935 3.93848 11.9902C4.01413 11.9011 4.12943 11.7856 4.33887 11.5762L5.57617 10.3389C5.78554 10.1295 5.90112 10.0142 5.99023 9.93848C5.99344 9.93575 5.99706 9.93308 6 9.93066C6.00286 9.93301 6.00662 9.93583 6.00977 9.93848Z" fill="transparent" class="wd-icon-background"></path>
<path d="M12.0098 3.93848C12.0989 4.01415 12.2146 4.12964 12.4238 4.33887L13.6611 5.57617C13.8704 5.78543 13.9859 5.90114 14.0615 5.99023C14.064 5.99323 14.0661 5.99724 14.0684 6C14.0661 6.00284 14.0641 6.00674 14.0615 6.00977C13.9858 6.09888 13.8705 6.21447 13.6611 6.42383L12.4238 7.66113C12.2144 7.87057 12.0989 7.98587 12.0098 8.06152C12.0067 8.06404 12.0028 8.06605 12 8.06836C11.9972 8.06614 11.9932 8.06396 11.9902 8.06152C11.9012 7.98586 11.7854 7.87036 11.5762 7.66113L10.3389 6.42383C10.1297 6.21461 10.0142 6.09885 9.93848 6.00977C9.93583 6.00662 9.93302 6.00287 9.93066 6C9.93309 5.99708 9.93577 5.99346 9.93848 5.99023C10.0141 5.90111 10.1294 5.78561 10.3389 5.57617L11.5762 4.33887C11.7855 4.1295 11.9011 4.01418 11.9902 3.93848C11.9934 3.93575 11.9971 3.93308 12 3.93066C12.0029 3.93301 12.0066 3.93583 12.0098 3.93848Z" fill="transparent" class="wd-icon-background"></path>
</g>
<g>
<path d="M5.38204 8.01141C5.73343 7.89726 6.10869 7.88381 6.46602 7.96942L6.61836 8.01141L6.82344 8.09344C7.01612 8.18496 7.17382 8.3025 7.30489 8.41375C7.47076 8.55458 7.65278 8.73723 7.83907 8.92352L9.07637 10.1608C9.26265 10.3471 9.44531 10.5291 9.58614 10.695C9.73454 10.8698 9.89434 11.0919 9.98848 11.3815C10.119 11.7831 10.1189 12.2162 9.98848 12.6179C9.89438 12.9075 9.73453 13.1296 9.58614 13.3044C9.44533 13.4702 9.26265 13.6523 9.07637 13.8386L7.83907 15.0759C7.6528 15.2621 7.47075 15.4448 7.30489 15.5856C7.13006 15.734 6.90802 15.8938 6.61836 15.988C6.21668 16.1185 5.78372 16.1185 5.38204 15.988C5.09233 15.8938 4.87035 15.7341 4.69551 15.5856C4.52963 15.4448 4.34762 15.2622 4.16133 15.0759L2.92403 13.8386C2.73774 13.6523 2.55508 13.4703 2.41426 13.3044C2.26586 13.1296 2.10603 12.9075 2.01192 12.6179C1.88146 12.2162 1.88142 11.7832 2.01192 11.3815C2.10606 11.0919 2.26587 10.8698 2.41426 10.695C2.55509 10.5291 2.73776 10.3471 2.92403 10.1608L4.16133 8.92352C4.34761 8.73725 4.52965 8.55456 4.69551 8.41375C4.87034 8.26536 5.0924 8.10552 5.38204 8.01141ZM5.99043 9.93817C5.90128 10.0139 5.78595 10.129 5.57637 10.3386L4.33907 11.5759C4.12953 11.7854 4.01438 11.9008 3.93868 11.9899C3.93589 11.9932 3.93334 11.9967 3.93086 11.9997C3.93336 12.0027 3.93588 12.0061 3.93868 12.0095C4.01437 12.0986 4.12946 12.2139 4.33907 12.4235L5.57637 13.6608C5.78597 13.8704 5.90127 13.9855 5.99043 14.0612C5.99358 14.0639 5.99732 14.0657 6.0002 14.0681C6.00307 14.0657 6.00685 14.0639 6.00997 14.0612C6.09912 13.9855 6.21448 13.8704 6.42403 13.6608L7.66133 12.4235C7.87091 12.2139 7.98604 12.0986 8.06172 12.0095C8.06434 12.0063 8.06619 12.0025 8.06856 11.9997C8.0662 11.9968 8.06438 11.9931 8.06172 11.9899C7.98602 11.9008 7.87091 11.7854 7.66133 11.5759L6.42403 10.3386C6.21442 10.129 6.09912 10.0139 6.00997 9.93817C6.00665 9.93536 6.00321 9.93286 6.0002 9.93036C5.99721 9.93285 5.99373 9.93538 5.99043 9.93817Z" fill="oklch(0.3523 0 0 / 1)" class="wd-icon-fill"></path>
<path d="M11.382 2.01141C11.7334 1.89726 12.1087 1.88381 12.466 1.96942L12.6184 2.01141L12.8234 2.09344C13.0161 2.18496 13.1738 2.3025 13.3049 2.41375C13.4708 2.55458 13.6528 2.73723 13.8391 2.92352L15.0764 4.16083C15.2627 4.34711 15.4453 4.52913 15.5861 4.695C15.7345 4.86981 15.8943 5.09191 15.9885 5.38153C16.119 5.78314 16.1189 6.21623 15.9885 6.61786C15.8944 6.90748 15.7345 7.12956 15.5861 7.30438C15.4453 7.47024 15.2626 7.65229 15.0764 7.83856L13.8391 9.07586C13.6528 9.26213 13.4708 9.4448 13.3049 9.58563C13.1301 9.73404 12.908 9.89383 12.6184 9.98797C12.2167 10.1185 11.7837 10.1185 11.382 9.98797C11.0923 9.89384 10.8704 9.73406 10.6955 9.58563C10.5296 9.4448 10.3476 9.26216 10.1613 9.07586L8.92403 7.83856C8.73774 7.65227 8.55508 7.47026 8.41426 7.30438C8.26586 7.12955 8.10603 6.90751 8.01192 6.61786C7.88146 6.21622 7.88142 5.78315 8.01192 5.38153C8.10606 5.09192 8.26587 4.86981 8.41426 4.695C8.55509 4.52914 8.73776 4.34709 8.92403 4.16083L10.1613 2.92352C10.3476 2.73725 10.5297 2.55456 10.6955 2.41375C10.8703 2.26536 11.0924 2.10552 11.382 2.01141ZM11.9904 3.93817C11.9013 4.01385 11.7859 4.12899 11.5764 4.33856L10.3391 5.57586C10.1295 5.7854 10.0144 5.90078 9.93868 5.98993C9.93589 5.99321 9.93334 5.9967 9.93086 5.99969C9.93336 6.0027 9.93588 6.00615 9.93868 6.00946C10.0144 6.09862 10.1295 6.21391 10.3391 6.42352L11.5764 7.66083C11.786 7.87042 11.9013 7.98552 11.9904 8.06122C11.9936 8.06388 11.9973 8.06568 12.0002 8.06805C12.0031 8.0657 12.0068 8.06386 12.01 8.06122C12.0991 7.98551 12.2145 7.87038 12.424 7.66083L13.6613 6.42352C13.8709 6.21395 13.986 6.09861 14.0617 6.00946C14.0643 6.00632 14.0662 6.00254 14.0686 5.99969C14.0662 5.99682 14.0644 5.99306 14.0617 5.98993C13.986 5.90077 13.8709 5.78544 13.6613 5.57586L12.424 4.33856C12.2144 4.12895 12.0991 4.01386 12.01 3.93817C12.0066 3.93536 12.0032 3.93286 12.0002 3.93036C11.9972 3.93285 11.9937 3.93538 11.9904 3.93817Z" fill="oklch(0.3523 0 0 / 1)" class="wd-icon-fill"></path>
</g>
<path d="M16.7927 8.91297C18.0116 7.69444 19.988 7.69431 21.2068 8.91297C22.4256 10.1318 22.4254 12.1081 21.2068 13.327L14.6101 19.9237C14.4213 20.1125 14.2587 20.2783 14.0701 20.4188C13.9143 20.5347 13.7472 20.6359 13.572 20.7196C13.3597 20.821 13.1367 20.8868 12.8816 20.9657L9.29565 22.0751C8.94138 22.1846 8.55499 22.0892 8.29272 21.827C8.03055 21.5648 7.93512 21.1784 8.04467 20.8241L9.15307 17.2382C9.23195 16.9831 9.29873 16.7601 9.40014 16.5477C9.48382 16.3727 9.5841 16.2054 9.69995 16.0497C9.84052 15.8609 10.0071 15.6986 10.196 15.5097L16.7927 8.91297ZM19.7927 10.327C19.3549 9.88941 18.6446 9.88953 18.2068 10.327L11.7048 16.828L13.2908 18.4139L19.7927 11.913C20.2303 11.4751 20.2304 10.7648 19.7927 10.327Z" fill="oklch(0.3523 0 0 / 1)" class="wd-icon-accent"></path>
</svg>