<svg width="24" height="24" viewBox="0 0 24 24" xmlns="http://www.w3.org/2000/svg" class="wd-icon wd-icon-grid" role="presentation">
<path d="M6.5 2C6.77614 2 7 2.22386 7 2.5V5H11V2.5C11 2.22386 11.2239 2 11.5 2H12.5C12.7761 2 13 2.22386 13 2.5V5H17V2.5C17 2.22386 17.2239 2 17.5 2H18.5C18.7761 2 19 2.22386 19 2.5V5H21.5C21.7761 5 22 5.22386 22 5.5V6.5C22 6.77614 21.7761 7 21.5 7H19V11H21.5C21.7761 11 22 11.2239 22 11.5V12.5C22 12.7761 21.7761 13 21.5 13H19V17H21.5C21.7761 17 22 17.2239 22 17.5V18.5C22 18.7761 21.7761 19 21.5 19H19V21.5C19 21.7761 18.7761 22 18.5 22H17.5C17.2239 22 17 21.7761 17 21.5V19H13V21.5C13 21.7761 12.7761 22 12.5 22H11.5C11.2239 22 11 21.7761 11 21.5V19H7V21.5C7 21.7761 6.77614 22 6.5 22H5.5C5.22386 22 5 21.7761 5 21.5V19H2.5C2.22386 19 2 18.7761 2 18.5V17.5C2 17.2239 2.22386 17 2.5 17H5V13H2.5C2.22386 13 2 12.7761 2 12.5V11.5C2 11.2239 2.22386 11 2.5 11H5V7H2.5C2.22386 7 2 6.77614 2 6.5V5.5C2 5.22386 2.22386 5 2.5 5H5V2.5C5 2.22386 5.22386 2 5.5 2H6.5ZM7 17H11V13H7V17ZM13 17H17V13H13V17ZM7 11H11V7H7V11ZM13 11H17V7H13V11Z" fill="oklch(0.3523 0 0 / 1)" class="wd-icon-fill"></path>
</svg>