<svg width="24" height="24" viewBox="0 0 24 24" xmlns="http://www.w3.org/2000/svg" class="wd-icon wd-icon-folder-plus" role="presentation">
<path d="M7 4L7.34375 4.00879C8.14556 4.04821 8.93546 4.22534 9.67871 4.5332C10.5056 4.87573 11.2584 5.37401 11.8975 6H20.5C20.7761 6 21 6.22386 21 6.5V19.5C21 19.7761 20.7761 20 20.5 20H3.5C3.22386 20 3 19.7761 3 19.5V4.5C3 4.22386 3.22386 4 3.5 4H7Z" fill="transparent" class="wd-icon-background"></path>
<path d="M7.36914 3.00879L7.38086 3.00977H7.39258C8.30896 3.05482 9.21211 3.25754 10.0615 3.60938C10.8773 3.94729 11.6291 4.41807 12.2891 5H20.5C21.3284 5 22 5.67157 22 6.5V19.5C22 20.3284 21.3284 21 20.5 21H3.5C2.72334 21 2.08461 20.4097 2.00781 19.6533L2 19.5V4.5C2 3.67157 2.67157 3 3.5 3H7.02539L7.36914 3.00879ZM4 19H20V7H11.4893L11.1973 6.71484C10.6491 6.17791 10.0042 5.75043 9.2959 5.45703C8.66164 5.19433 7.9878 5.04248 7.30371 5.00781L6.97461 5H4V19Z" fill="oklch(0.3523 0 0 / 1)" class="wd-icon-fill"></path>
<path d="M12.4951 9C12.7713 9 12.9951 9.22386 12.9951 9.5V11.9951H15.5C15.7761 11.9951 16 12.219 16 12.4951V13.4951C16 13.7713 15.7761 13.9951 15.5 13.9951H12.9951V16.5C12.9951 16.7761 12.7713 17 12.4951 17H11.4951C11.219 17 10.9951 16.7761 10.9951 16.5V13.9951H8.5C8.22386 13.9951 8 13.7713 8 13.4951V12.4951C8 12.219 8.22386 11.9951 8.5 11.9951H10.9951V9.5C10.9951 9.22386 11.219 9 11.4951 9H12.4951Z" fill="oklch(0.3523 0 0 / 1)" class="wd-icon-accent"></path>
</svg>