<svg width="24" height="24" viewBox="0 0 24 24" xmlns="http://www.w3.org/2000/svg" class="wd-icon wd-icon-component-edit" role="presentation">
<g>
<path d="M18.7021 8.03315C19.4896 8.16789 20.2445 8.53947 20.8525 9.1474C21.4604 9.75535 21.832 10.5103 21.9667 11.2978C21.9923 11.4473 21.9373 11.5978 21.83 11.705L11.6816 21.8535C11.5878 21.9471 11.4606 21.9999 11.3281 21.9999H8.49994L8.39936 21.9902C8.17137 21.9437 7.99998 21.7417 7.99994 21.4999V18.6718C7.99994 18.5393 8.05275 18.4121 8.14643 18.3183L18.2949 8.16987C18.4021 8.06258 18.5525 8.00756 18.7021 8.03315Z" fill="transparent" class="wd-icon-background"></path>
<path d="M5.64643 8.85346C5.84169 8.65823 6.15821 8.65821 6.35346 8.85346L9.14643 11.6464C9.34156 11.8417 9.34161 12.1582 9.14643 12.3535L6.35346 15.1464C6.15823 15.3416 5.84169 15.3416 5.64643 15.1464L2.85346 12.3535C2.65821 12.1582 2.65823 11.8417 2.85346 11.6464L5.64643 8.85346Z" fill="transparent" class="wd-icon-background"></path>
<path d="M11.6464 2.85346C11.8417 2.65823 12.1582 2.65821 12.3535 2.85346L15.1464 5.64643C15.3416 5.84169 15.3416 6.15823 15.1464 6.35346L12.3535 9.14643C12.1582 9.34162 11.8417 9.34156 11.6464 9.14643L8.85346 6.35346C8.65821 6.15821 8.65823 5.84169 8.85346 5.64643L11.6464 2.85346Z" fill="transparent" class="wd-icon-background"></path>
</g>
<g>
<path d="M5.05405 8.04342C5.64319 7.5632 6.51182 7.59693 7.06088 8.14596L9.85385 10.9389C10.4394 11.5246 10.4393 12.4742 9.85385 13.06L7.06088 15.853C6.47513 16.4387 5.52557 16.4386 4.93979 15.853L2.14682 13.06C1.56108 12.4742 1.56109 11.5247 2.14682 10.9389L4.93979 8.14596L5.05405 8.04342ZM3.9144 11.9995L6.00034 14.0854L8.08628 11.9995L6.00034 9.91354L3.9144 11.9995Z" fill="oklch(0.3523 0 0 / 1)" class="wd-icon-fill"></path>
<path d="M11.054 2.04342C11.6432 1.56321 12.5118 1.59693 13.0609 2.14596L15.8539 4.93893C16.4394 5.52462 16.4393 6.47425 15.8539 7.06002L13.0609 9.85299C12.4751 10.4387 11.5256 10.4386 10.9398 9.85299L8.14682 7.06002C7.56108 6.47424 7.56109 5.5247 8.14682 4.93893L10.9398 2.14596L11.054 2.04342ZM9.9144 5.99947L12.0003 8.08541L14.0863 5.99947L12.0003 3.91354L9.9144 5.99947Z" fill="oklch(0.3523 0 0 / 1)" class="wd-icon-fill"></path>
</g>
<path d="M18.8711 7.04754L19.2383 7.12469C20.0891 7.337 20.8956 7.7761 21.5596 8.44012C22.3185 9.19901 22.7836 10.1439 22.9521 11.1286C23.0378 11.6295 22.8501 12.0987 22.5371 12.4118L12.3887 22.5602C12.1074 22.8414 11.7258 22.9996 11.3281 22.9997H8.5C7.67157 22.9997 7 22.3281 7 21.4997V18.6716C7.00005 18.2739 7.15828 17.8923 7.43945 17.611L17.5879 7.46258L17.7119 7.35125C17.9745 7.14171 18.3163 7.01324 18.6846 7.02801L18.8711 7.04754ZM9 18.8786V20.9997H11.1211L17.8525 14.2663L15.7314 12.1452L9 18.8786ZM17.1455 10.7311L19.2666 12.8522L20.9209 11.1989C20.7896 10.7068 20.5328 10.2414 20.1455 9.85418C19.758 9.46663 19.2923 9.20899 18.7998 9.07781L17.1455 10.7311Z" fill="oklch(0.3523 0 0 / 1)" class="wd-icon-accent"></path>
</svg>