<svg width="24" height="24" viewBox="0 0 24 24" xmlns="http://www.w3.org/2000/svg" class="wd-icon wd-icon-chevron-2x-left-small" role="presentation">
<g>
<path d="M17.7069 6.29289C17.3164 5.90243 16.6834 5.90239 16.2928 6.29289L11.2928 11.2929C10.9025 11.6834 10.9024 12.3165 11.2928 12.707L16.2928 17.707C16.6833 18.0974 17.3164 18.0974 17.7069 17.707C18.0974 17.3164 18.0974 16.6834 17.7069 16.2929L13.4139 11.9999L17.7069 7.70696C18.0974 7.31643 18.0974 6.68342 17.7069 6.29289Z" fill="oklch(0.3523 0 0 / 1)" class="wd-icon-fill"></path>
<path d="M11.2069 6.29289C10.8164 5.90237 10.1834 5.90237 9.79285 6.29289L4.79285 11.2929C4.40242 11.6834 4.40235 12.3165 4.79285 12.707L9.79285 17.707C10.1833 18.0974 10.8164 18.0974 11.2069 17.707C11.5974 17.3164 11.5974 16.6834 11.2069 16.2929L6.91394 11.9999L11.2069 7.70696C11.5974 7.31644 11.5974 6.68342 11.2069 6.29289Z" fill="oklch(0.3523 0 0 / 1)" class="wd-icon-fill"></path>
</g>
</svg>