<svg width="24" height="24" viewBox="0 0 24 24" xmlns="http://www.w3.org/2000/svg" class="wd-icon wd-icon-paragraph" role="presentation">
<path d="M18.5 3C18.7761 3 19 3.22386 19 3.5V5.5C19 5.77614 18.7761 6 18.5 6H16V21.5C16 21.7761 15.7761 22 15.5 22H14.5C14.2239 22 14 21.7761 14 21.5V6H11V21.5C11 21.7761 10.7761 22 10.5 22H9.5C9.22386 22 9 21.7761 9 21.5V13H7.5C6.17392 13 4.90253 12.4728 3.96484 11.5352C3.02716 10.5975 2.5 9.32608 2.5 8C2.5 6.67392 3.02716 5.40253 3.96484 4.46484C4.90253 3.52716 6.17392 3 7.5 3H18.5Z" fill="oklch(0.3523 0 0 / 1)" class="wd-icon-fill"></path>
</svg>