<svg width="24" height="24" viewBox="0 0 24 24" xmlns="http://www.w3.org/2000/svg" class="wd-icon wd-icon-calendar-day-5" role="presentation">
<g>
<path d="M13.2285 10.5127C13.5801 10.5127 13.8649 10.7979 13.8652 11.1494C13.8652 11.5012 13.5803 11.7871 13.2285 11.7871H11.1797L11.0703 13.0059C11.11 12.9849 11.1507 12.9647 11.1924 12.9463C11.4326 12.8403 11.6992 12.7901 11.9863 12.79C12.4123 12.79 12.7963 12.885 13.1279 13.084L13.251 13.1602C13.5276 13.3463 13.7445 13.5958 13.8994 13.9033C14.0827 14.2496 14.1718 14.6391 14.1719 15.0645C14.1719 15.5146 14.077 15.9327 13.8838 16.3125L13.8828 16.3135C13.6878 16.6901 13.4067 16.9912 13.0439 17.2129C12.6767 17.4373 12.2587 17.5468 11.7979 17.5469C11.3429 17.5468 10.9327 17.4664 10.5752 17.2979L10.5732 17.2969C10.2231 17.1285 9.93927 16.8864 9.72754 16.5723L9.72559 16.5703C9.6177 16.4066 9.5323 16.2283 9.46973 16.0381C9.31506 15.5659 9.72328 15.1928 10.1309 15.1924C10.5182 15.1924 10.7815 15.4898 10.8975 15.7656C10.9463 15.8819 11.0143 15.9779 11.0996 16.0566C11.2608 16.1999 11.4797 16.2811 11.7793 16.2813C11.9831 16.2813 12.1418 16.2322 12.2676 16.1455L12.2705 16.1436C12.4075 16.0523 12.5161 15.9229 12.5947 15.7461C12.6743 15.567 12.7178 15.3561 12.7178 15.1094C12.7177 14.7452 12.6245 14.4855 12.4648 14.3027L12.46 14.2969C12.3123 14.1193 12.0976 14.0186 11.7793 14.0186C11.6092 14.0187 11.446 14.0578 11.2881 14.1367C11.209 14.1778 11.1359 14.2256 11.0693 14.2803C10.8951 14.4234 10.6509 14.5464 10.374 14.5166C9.93991 14.4695 9.62267 14.0836 9.66016 13.6484L9.875 11.1523C9.90643 10.7908 10.2094 10.513 10.5723 10.5127H13.2285Z" fill="oklch(0.3523 0 0 / 1)" class="wd-icon-fill"></path>
<path d="M16.2012 2C17.0247 2 17.7026 1.99898 18.2529 2.04395C18.815 2.08988 19.3321 2.18828 19.8174 2.43555C20.5699 2.81902 21.182 3.43109 21.5654 4.1836C21.8127 4.6689 21.9111 5.18599 21.957 5.74805C22.002 6.29843 22.001 6.97632 22.001 7.79981V16.2002C22.001 17.0237 22.002 17.7016 21.957 18.252C21.9111 18.814 21.8127 19.3311 21.5654 19.8164C21.182 20.5689 20.5699 21.181 19.8174 21.5645C19.3321 21.8117 18.815 21.9101 18.2529 21.9561C17.7026 22.001 17.0247 22 16.2012 22H7.80078C6.9773 22 6.2994 22.001 5.74903 21.9561C5.18697 21.9101 4.66988 21.8117 4.18457 21.5645C3.43207 21.181 2.81999 20.5689 2.43653 19.8164C2.18925 19.3311 2.09085 18.814 2.04492 18.252C1.99996 17.7016 2.00098 17.0237 2.00098 16.2002V7.79981C2.00098 6.97632 1.99996 6.29843 2.04492 5.74805C2.09085 5.18599 2.18925 4.6689 2.43653 4.1836C2.81999 3.43109 3.43207 2.81902 4.18457 2.43555C4.66988 2.18827 5.18697 2.08988 5.74903 2.04395C6.2994 1.99898 6.9773 2 7.80078 2H16.2012ZM4.00098 16.2002C4.00098 17.0566 4.00133 17.6388 4.03809 18.0889C4.07391 18.5273 4.13906 18.7518 4.21875 18.9082C4.41049 19.2845 4.71652 19.5905 5.09278 19.7822C5.24917 19.8619 5.4737 19.9271 5.91211 19.9629C6.36215 19.9997 6.9444 20 7.80078 20H16.2012C17.0576 20 17.6398 19.9997 18.0898 19.9629C18.5283 19.9271 18.7528 19.8619 18.9092 19.7822C19.2854 19.5905 19.5915 19.2845 19.7832 18.9082C19.8629 18.7518 19.928 18.5273 19.9639 18.0889C20.0006 17.6388 20.001 17.0566 20.001 16.2002V8H4.00098V16.2002Z" fill="oklch(0.3523 0 0 / 1)" class="wd-icon-fill"></path>
</g>
</svg>