<svg width="24" height="24" viewBox="0 0 24 24" xmlns="http://www.w3.org/2000/svg" class="wd-icon wd-icon-shield-check" role="presentation">
<g>
<path d="M14.3995 7.85938C14.7531 7.43563 15.3836 7.37819 15.8077 7.73145C16.2318 8.08501 16.2891 8.71642 15.9357 9.14062L11.7687 14.1406C11.5788 14.3683 11.2975 14.4998 11.0011 14.5C10.7045 14.5 10.4225 14.3684 10.2325 14.1406L8.14856 11.6406C7.79504 11.2164 7.85228 10.585 8.27649 10.2314C8.7007 9.87805 9.33211 9.93531 9.68567 10.3594L11.0001 11.9375L14.3995 7.85938Z" fill="oklch(0.3523 0 0 / 1)" class="wd-icon-fill"></path>
<path d="M12.0001 2C14.7717 2 17.3435 2.86903 19.4542 4.34863C19.775 4.57349 20.0645 4.76841 20.3488 5.12598C20.5683 5.40228 20.7769 5.80221 20.8771 6.14062C21.0091 6.58641 21.0001 7.00909 21.0001 7.48633V9.5C21.0001 12.9478 19.6305 16.2544 17.1925 18.6924C16.1028 19.7821 14.8391 20.6569 13.4679 21.292C13.1756 21.4274 12.9192 21.5507 12.5177 21.6211C12.2248 21.6724 11.7755 21.6724 11.4825 21.6211C11.0811 21.5507 10.8247 21.4274 10.5324 21.292C9.1612 20.6568 7.89749 19.7821 6.80774 18.6924C4.3698 16.2544 3.00013 12.9478 3.00013 9.5V7.48633C3.00013 7.0091 2.99121 6.5864 3.12317 6.14062C3.22339 5.80222 3.43192 5.40229 3.65149 5.12598C3.93571 4.7684 4.22528 4.57347 4.54602 4.34863C6.65675 2.86902 9.22857 2.00004 12.0001 2ZM12.0001 4C9.65261 4.00004 7.47975 4.73487 5.69446 5.98633C5.34176 6.23358 5.29329 6.27404 5.21692 6.37012C5.15693 6.44565 5.0685 6.61659 5.04114 6.70898C5.00866 6.81886 5.00013 6.91964 5.00013 7.48633V9.5C5.00013 12.4174 6.15896 15.2154 8.22181 17.2783C9.14312 18.1996 10.2124 18.9398 11.3732 19.4775C11.6729 19.6164 11.7135 19.6314 11.8273 19.6514C11.8273 19.6514 11.8439 19.6529 11.879 19.6553C11.9137 19.6576 11.9557 19.6592 12.0001 19.6592C12.0445 19.6592 12.0865 19.6576 12.1212 19.6553C12.1543 19.6531 12.173 19.6514 12.173 19.6514C12.2868 19.6314 12.3273 19.6164 12.6271 19.4775C13.7879 18.9398 14.8571 18.1996 15.7784 17.2783C17.8413 15.2154 19.0001 12.4174 19.0001 9.5V7.48633C19.0001 6.91959 18.9916 6.81888 18.9591 6.70898C18.9317 6.61655 18.8433 6.44561 18.7833 6.37012C18.707 6.27407 18.6585 6.23358 18.3058 5.98633C16.5205 4.73487 14.3477 4 12.0001 4Z" fill="oklch(0.3523 0 0 / 1)" class="wd-icon-fill"></path>
</g>
</svg>