<svg width="24" height="24" viewBox="0 0 24 24" xmlns="http://www.w3.org/2000/svg" class="wd-icon wd-icon-data-source" role="presentation">
<path d="M12 2C14.2972 2 16.4215 2.34755 18.0078 2.94238C18.7973 3.23843 19.5062 3.61502 20.0352 4.08398C20.5628 4.5519 21 5.19722 21 6V18C21 18.8028 20.5628 19.4481 20.0352 19.916C19.5062 20.385 18.7973 20.7616 18.0078 21.0576C16.4215 21.6525 14.2972 22 12 22C9.70276 22 7.57848 21.6525 5.99219 21.0576C5.20273 20.7616 4.49379 20.385 3.96484 19.916C3.43717 19.4481 3 18.8028 3 18V6C3 5.19722 3.43717 4.5519 3.96484 4.08398C4.49379 3.61502 5.20273 3.23843 5.99219 2.94238C7.57848 2.34755 9.70276 2 12 2ZM19 16.6143C18.6906 16.778 18.3575 16.9265 18.0078 17.0576C16.4215 17.6525 14.2972 18 12 18C9.70276 18 7.57848 17.6525 5.99219 17.0576C5.64251 16.9265 5.30944 16.778 5 16.6143V18C5 18.0255 5.01013 18.17 5.29199 18.4199C5.5727 18.6687 6.03626 18.9378 6.69434 19.1846C8.00346 19.6755 9.87903 20 12 20C14.121 20 15.9965 19.6755 17.3057 19.1846C17.9637 18.9378 18.4273 18.6687 18.708 18.4199C18.9899 18.17 19 18.0255 19 18V16.6143ZM19 12.6143C18.6906 12.778 18.3575 12.9265 18.0078 13.0576C16.4215 13.6525 14.2972 14 12 14C9.70276 14 7.57848 13.6525 5.99219 13.0576C5.64251 12.9265 5.30944 12.778 5 12.6143V14C5 14.0255 5.01013 14.17 5.29199 14.4199C5.5727 14.6687 6.03626 14.9378 6.69434 15.1846C8.00346 15.6755 9.87903 16 12 16C14.121 16 15.9965 15.6755 17.3057 15.1846C17.9637 14.9378 18.4273 14.6687 18.708 14.4199C18.9899 14.17 19 14.0255 19 14V12.6143ZM19 8.61426C18.6906 8.77802 18.3575 8.92649 18.0078 9.05762C16.4215 9.65245 14.2972 10 12 10C9.70276 10 7.57848 9.65245 5.99219 9.05762C5.64251 8.92649 5.30944 8.77802 5 8.61426V10C5 10.0255 5.01013 10.17 5.29199 10.4199C5.5727 10.6687 6.03626 10.9378 6.69434 11.1846C8.00346 11.6755 9.87903 12 12 12C14.121 12 15.9965 11.6755 17.3057 11.1846C17.9637 10.9378 18.4273 10.6687 18.708 10.4199C18.9899 10.17 19 10.0255 19 10V8.61426ZM12 4C9.87903 4 8.00346 4.32451 6.69434 4.81543C6.03626 5.06222 5.5727 5.33126 5.29199 5.58008C5.01013 5.82998 5 5.97447 5 6C5 6.02553 5.01013 6.17002 5.29199 6.41992C5.5727 6.66874 6.03626 6.93778 6.69434 7.18457C8.00346 7.67549 9.87903 8 12 8C14.121 8 15.9965 7.67549 17.3057 7.18457C17.9637 6.93778 18.4273 6.66874 18.708 6.41992C18.9899 6.17002 19 6.02553 19 6C19 5.97447 18.9899 5.82998 18.708 5.58008C18.4273 5.33126 17.9637 5.06222 17.3057 4.81543C15.9965 4.32451 14.121 4 12 4Z" fill="oklch(0.3523 0 0 / 1)" class="wd-icon-fill"></path>
</svg>