<svg width="24" height="24" viewBox="0 0 24 24" xmlns="http://www.w3.org/2000/svg" class="wd-icon wd-icon-bar-horizontal-chart" role="presentation">
<g>
<path d="M12 21H3V17H12V21Z" fill="oklch(0.3523 0 0 / 1)" class="wd-icon-accent"></path>
<path d="M21 14H3V10H21V14Z" fill="oklch(0.3523 0 0 / 1)" class="wd-icon-accent"></path>
</g>
<g>
<path d="M12 16C12.5523 16 13 16.4477 13 17V21C13 21.2652 12.8946 21.5195 12.707 21.707C12.5195 21.8946 12.2652 22 12 22H3C2.44772 22 2 21.5523 2 21V17C2 16.7348 2.10543 16.4805 2.29297 16.293C2.48051 16.1054 2.73478 16 3 16H12ZM4 20H11V18H4V20Z" fill="oklch(0.3523 0 0 / 1)" class="wd-icon-fill"></path>
<path d="M21 9C21.5523 9 22 9.44772 22 10V14C22 14.2652 21.8946 14.5195 21.707 14.707C21.5195 14.8946 21.2652 15 21 15H3C2.44772 15 2 14.5523 2 14V10C2 9.44772 2.44772 9 3 9H21ZM4 13H20V11H4V13Z" fill="oklch(0.3523 0 0 / 1)" class="wd-icon-fill"></path>
<path d="M15 2C15.5523 2 16 2.44772 16 3V7C16 7.26522 15.8946 7.5195 15.707 7.70703C15.5195 7.89457 15.2652 8 15 8H3C2.73478 8 2.48051 7.89457 2.29297 7.70703C2.10543 7.5195 2 7.26522 2 7V3C2 2.44772 2.44772 2 3 2H15ZM4 6H14V4H4V6Z" fill="oklch(0.3523 0 0 / 1)" class="wd-icon-fill"></path>
</g>
</svg>