<svg width="24" height="24" viewBox="0 0 24 24" xmlns="http://www.w3.org/2000/svg" class="wd-icon wd-icon-share" role="presentation">
<path d="M17.5 3C19.433 3 21 4.567 21 6.5C21 8.433 19.433 10 17.5 10C16.4502 10 15.5087 9.53761 14.8672 8.80566L8.96484 11.5098C8.98731 11.67 9 11.8336 9 12C9 12.1658 8.98713 12.3287 8.96484 12.4883L14.8682 15.1934C15.5097 14.462 16.4507 14 17.5 14C19.433 14 21 15.567 21 17.5C21 19.433 19.433 21 17.5 21C15.567 21 14 19.433 14 17.5C14 17.3339 14.0118 17.1706 14.0342 17.0107L8.13184 14.3057C7.49033 15.0373 6.54953 15.5 5.5 15.5C3.567 15.5 2 13.933 2 12C2 10.067 3.567 8.5 5.5 8.5C6.54877 8.5 7.48939 8.96164 8.13086 9.69238L14.0342 6.98633C14.0121 6.82736 14 6.66506 14 6.5C14 4.567 15.567 3 17.5 3ZM17.5 16C16.6716 16 16 16.6716 16 17.5C16 18.3284 16.6716 19 17.5 19C18.3284 19 19 18.3284 19 17.5C19 16.6716 18.3284 16 17.5 16ZM5.5 10.5C4.67157 10.5 4 11.1716 4 12C4 12.8284 4.67157 13.5 5.5 13.5C6.32843 13.5 7 12.8284 7 12C7 11.1716 6.32843 10.5 5.5 10.5ZM17.5 5C16.6716 5 16 5.67157 16 6.5C16 7.32843 16.6716 8 17.5 8C18.3284 8 19 7.32843 19 6.5C19 5.67157 18.3284 5 17.5 5Z" fill="oklch(0.3523 0 0 / 1)" class="wd-icon-fill"></path>
</svg>