<svg width="24" height="24" viewBox="0 0 24 24" xmlns="http://www.w3.org/2000/svg" class="wd-icon wd-icon-video" role="presentation">
<g>
<path d="M11.2002 7C12.0566 7 12.6388 7.00035 13.0889 7.03711C13.5273 7.07293 13.7518 7.13808 13.9082 7.21777C14.2845 7.40951 14.5905 7.71554 14.7822 8.0918C14.8619 8.2482 14.9271 8.47272 14.9629 8.91113C14.9997 9.36117 15 9.94341 15 10.7998V13.2002C15 14.0566 14.9997 14.6388 14.9629 15.0889C14.9271 15.5273 14.8619 15.7518 14.7822 15.9082C14.5905 16.2845 14.2845 16.5905 13.9082 16.7822C13.7518 16.8619 13.5273 16.9271 13.0889 16.9629C12.6388 16.9997 12.0566 17 11.2002 17H7.7998C6.94341 17 6.36117 16.9997 5.91113 16.9629C5.47272 16.9271 5.2482 16.8619 5.0918 16.7822C4.71554 16.5905 4.40951 16.2845 4.21777 15.9082C4.13808 15.7518 4.07293 15.5273 4.03711 15.0889C4.00035 14.6388 4 14.0566 4 13.2002V10.7998C4 9.94341 4.00035 9.36117 4.03711 8.91113C4.07293 8.47272 4.13808 8.2482 4.21777 8.0918C4.40951 7.71554 4.71554 7.40951 5.0918 7.21777C5.2482 7.13808 5.47272 7.07293 5.91113 7.03711C6.36117 7.00035 6.94341 7 7.7998 7H11.2002Z" fill="transparent" class="wd-icon-background"></path>
<path d="M20 15.4648L17 13.4648V10.5352L20 8.53516V15.4648Z" fill="transparent" class="wd-icon-background"></path>
</g>
<path d="M11.2002 5C12.0237 5 12.7016 4.99898 13.252 5.04395C13.814 5.08988 14.3311 5.18827 14.8164 5.43555C15.5689 5.81902 16.181 6.43109 16.5645 7.1836C16.73 7.50846 16.8277 7.84777 16.8887 8.20508L18.8906 6.8711C20.2196 5.98528 21.9997 6.93804 22 8.53516V15.4648C21.9998 17.062 20.2197 18.0148 18.8906 17.1289L16.8887 15.7939C16.8277 16.1516 16.7301 16.4913 16.5645 16.8164C16.181 17.5689 15.5689 18.181 14.8164 18.5645C14.3311 18.8117 13.814 18.9101 13.252 18.9561C12.7016 19.001 12.0237 19 11.2002 19H7.79981C6.97632 19 6.29843 19.001 5.74805 18.9561C5.18599 18.9101 4.6689 18.8117 4.1836 18.5645C3.43109 18.181 2.81902 17.5689 2.43555 16.8164C2.18827 16.3311 2.08988 15.814 2.04395 15.252C1.99898 14.7016 2 14.0237 2 13.2002V10.7998C2 9.97632 1.99898 9.29843 2.04395 8.74805C2.08988 8.18599 2.18827 7.6689 2.43555 7.1836C2.81902 6.43109 3.43109 5.81902 4.1836 5.43555C4.6689 5.18827 5.18599 5.08988 5.74805 5.04395C6.29843 4.99898 6.97632 5 7.79981 5H11.2002ZM7.79981 7C6.94342 7 6.36117 7.00035 5.91113 7.03711C5.47272 7.07293 5.2482 7.13809 5.0918 7.21778C4.71555 7.40951 4.40951 7.71555 4.21778 8.0918C4.13809 8.2482 4.07293 8.47272 4.03711 8.91113C4.00035 9.36117 4 9.94342 4 10.7998V13.2002C4 14.0566 4.00035 14.6388 4.03711 15.0889C4.07293 15.5273 4.13809 15.7518 4.21778 15.9082C4.40951 16.2845 4.71555 16.5905 5.0918 16.7822C5.2482 16.8619 5.47272 16.9271 5.91113 16.9629C6.36117 16.9997 6.94342 17 7.79981 17H11.2002C12.0566 17 12.6388 16.9997 13.0889 16.9629C13.5273 16.9271 13.7518 16.8619 13.9082 16.7822C14.2845 16.5905 14.5905 16.2845 14.7822 15.9082C14.8619 15.7518 14.9271 15.5273 14.9629 15.0889C14.9997 14.6388 15 14.0566 15 13.2002V10.7998C15 9.94342 14.9997 9.36117 14.9629 8.91113C14.9271 8.47272 14.8619 8.2482 14.7822 8.0918C14.5905 7.71555 14.2845 7.40951 13.9082 7.21778C13.7518 7.13809 13.5273 7.07293 13.0889 7.03711C12.6388 7.00035 12.0566 7 11.2002 7H7.79981ZM17 10.5352V13.4648L20 15.4648V8.53516L17 10.5352Z" fill="oklch(0.3523 0 0 / 1)" class="wd-icon-fill"></path>
</svg>