<svg width="24" height="24" viewBox="0 0 24 24" xmlns="http://www.w3.org/2000/svg" class="wd-icon wd-icon-donut-chart-user" role="presentation">
<g>
<path d="M12 2C12.5523 2 13 2.44772 13 3C13 3.55228 12.5523 4 12 4C10.9494 4 9.90908 4.20734 8.93848 4.60938C7.96795 5.01141 7.08559 5.59995 6.34277 6.34277C5.59995 7.08559 5.01141 7.96795 4.60938 8.93848C4.20734 9.90908 4 10.9494 4 12C4 13.0506 4.20734 14.0909 4.60938 15.0615C5.01141 16.0321 5.59995 16.9144 6.34277 17.6572C7.08559 18.4 7.96795 18.9886 8.93848 19.3906C9.90908 19.7927 10.9494 20 12 20C12.699 20 13.3951 19.9084 14.0703 19.7275C14.6038 19.5846 15.152 19.9011 15.2949 20.4346C15.4379 20.968 15.1214 21.5162 14.5879 21.6592C13.7438 21.8853 12.8738 22 12 22C10.6868 22 9.38611 21.7418 8.17285 21.2393C6.95964 20.7367 5.85727 19.9998 4.92871 19.0713C4.00015 18.1427 3.26329 17.0404 2.76074 15.8271C2.2582 14.6139 2 13.3132 2 12C2 10.6868 2.2582 9.38611 2.76074 8.17285C3.26329 6.95964 4.00015 5.85727 4.92871 4.92871C5.85727 4.00015 6.95964 3.26329 8.17285 2.76074C9.38611 2.2582 10.6868 2 12 2Z" fill="oklch(0.3523 0 0 / 1)" class="wd-icon-fill"></path>
<path d="M20.6895 9.45215C21.2333 9.35625 21.7518 9.71978 21.8477 10.2637C22.1524 11.9923 21.9968 13.7705 21.3965 15.4199C20.7961 17.0694 19.7724 18.5318 18.4277 19.6602C18.0047 20.0152 17.3736 19.9602 17.0186 19.5371C16.6638 19.114 16.7196 18.4829 17.1426 18.1279C18.2181 17.2253 19.0373 16.0557 19.5176 14.7363C19.9979 13.4167 20.1228 11.9933 19.8789 10.6104C19.7832 10.0666 20.1458 9.54809 20.6895 9.45215Z" fill="oklch(0.3523 0 0 / 1)" class="wd-icon-fill"></path>
<path d="M12 13C13.5522 13 14.8985 13.501 15.5615 14.6611C15.8228 15.1186 15.5032 15.6495 14.9854 15.7461C14.3065 15.8723 13.2987 16 12 16C10.7016 16 9.69445 15.8723 9.01562 15.7461C8.49744 15.6497 8.17792 15.1187 8.43945 14.6611C9.10252 13.5012 10.4479 13 12 13Z" fill="oklch(0.3523 0 0 / 1)" class="wd-icon-fill"></path>
<path d="M12 8C13.1045 8.00012 14 8.8955 14 10C14 11.1045 13.1045 11.9999 12 12C10.8955 11.9999 10 11.1045 10 10C10 8.8955 10.8955 8.00012 12 8Z" fill="oklch(0.3523 0 0 / 1)" class="wd-icon-fill"></path>
<path d="M14.8975 3.4209C15.1309 2.92036 15.726 2.70312 16.2266 2.93652C17.8174 3.67838 19.1846 4.82678 20.1914 6.26465C20.508 6.717 20.3985 7.34048 19.9463 7.65723C19.4939 7.974 18.8695 7.86354 18.5527 7.41113C17.7473 6.26102 16.6534 5.34341 15.3809 4.75C14.8804 4.51662 14.6642 3.92141 14.8975 3.4209Z" fill="oklch(0.3523 0 0 / 1)" class="wd-icon-fill"></path>
</g>
</svg>