<svg width="24" height="24" viewBox="0 0 24 24" xmlns="http://www.w3.org/2000/svg" class="wd-icon wd-icon-box-text-circle" role="presentation">
<path d="M17.7998 5C18.3764 5 18.7489 5.00126 19.0322 5.02441C19.3038 5.04661 19.4047 5.08419 19.4541 5.10938C19.6421 5.20521 19.7948 5.35793 19.8906 5.5459C19.9158 5.59534 19.9534 5.69619 19.9756 5.96777C19.9987 6.25111 20 6.62364 20 7.2002V16.7998C20 17.3764 19.9987 17.7489 19.9756 18.0322C19.9534 18.3038 19.9158 18.4047 19.8906 18.4541C19.7948 18.6421 19.6421 18.7948 19.4541 18.8906C19.4047 18.9158 19.3038 18.9534 19.0322 18.9756C18.7489 18.9987 18.3764 19 17.7998 19H6.2002C5.62364 19 5.25111 18.9987 4.96777 18.9756C4.69619 18.9534 4.59534 18.9158 4.5459 18.8906C4.35793 18.7948 4.20521 18.6421 4.10938 18.4541C4.08419 18.4047 4.04661 18.3038 4.02441 18.0322C4.00126 17.7489 4 17.3764 4 16.7998V7.2002C4 6.62364 4.00126 6.25111 4.02441 5.96777C4.04661 5.69619 4.08419 5.59534 4.10938 5.5459C4.20521 5.35793 4.35793 5.20521 4.5459 5.10938C4.59534 5.08419 4.69619 5.04661 4.96777 5.02441C5.25111 5.00126 5.62364 5 6.2002 5H17.7998ZM7.75 14.25C7.33579 14.25 7 14.5858 7 15C7 15.4142 7.33579 15.75 7.75 15.75H11.25C11.6642 15.75 12 15.4142 12 15C12 14.5858 11.6642 14.25 11.25 14.25H7.75ZM15.5 11.5C14.3954 11.5 13.5 12.3954 13.5 13.5C13.5 14.6046 14.3954 15.5 15.5 15.5C16.6046 15.5 17.5 14.6046 17.5 13.5C17.5 12.3954 16.6046 11.5 15.5 11.5ZM7.75 11.25C7.33579 11.25 7 11.5858 7 12C7 12.4142 7.33579 12.75 7.75 12.75H11.25C11.6642 12.75 12 12.4142 12 12C12 11.5858 11.6642 11.25 11.25 11.25H7.75ZM7.75 8.25C7.33579 8.25 7 8.58579 7 9C7 9.41421 7.33579 9.75 7.75 9.75H16.25C16.6642 9.75 17 9.41421 17 9C17 8.58579 16.6642 8.25 16.25 8.25H7.75Z" fill="transparent" class="wd-icon-background"></path>
<path d="M17.7998 3C18.3434 3 18.8116 2.99893 19.1953 3.03028C19.5906 3.06259 19.984 3.1344 20.3623 3.32715C20.9265 3.61473 21.3853 4.07348 21.6729 4.6377C21.8656 5.016 21.9374 5.40943 21.9697 5.80469C22.0011 6.18836 22 6.65665 22 7.2002V16.7998C22 17.3434 22.0011 17.8116 21.9697 18.1953C21.9374 18.5906 21.8656 18.984 21.6729 19.3623C21.3853 19.9265 20.9265 20.3853 20.3623 20.6729C19.984 20.8656 19.5906 20.9374 19.1953 20.9697C18.8116 21.0011 18.3434 21 17.7998 21H6.2002C5.65665 21 5.18836 21.0011 4.80469 20.9697C4.40943 20.9374 4.016 20.8656 3.6377 20.6729C3.07348 20.3853 2.61473 19.9265 2.32715 19.3623C2.1344 18.984 2.06259 18.5906 2.03028 18.1953C1.99893 17.8116 2 17.3434 2 16.7998V7.2002C2 6.65665 1.99893 6.18836 2.03028 5.80469C2.06259 5.40943 2.1344 5.016 2.32715 4.6377C2.61473 4.07348 3.07348 3.61473 3.6377 3.32715C4.016 3.1344 4.40943 3.06259 4.80469 3.03028C5.18836 2.99893 5.65665 3 6.2002 3H17.7998ZM6.2002 5C5.62365 5 5.25112 5.00127 4.96778 5.02442C4.69619 5.04662 4.59534 5.08419 4.5459 5.10938C4.35793 5.20522 4.20522 5.35793 4.10938 5.5459C4.08419 5.59534 4.04662 5.69619 4.02442 5.96778C4.00127 6.25112 4 6.62365 4 7.2002V16.7998C4 17.3764 4.00127 17.7489 4.02442 18.0322C4.04662 18.3038 4.08419 18.4047 4.10938 18.4541C4.20522 18.6421 4.35793 18.7948 4.5459 18.8906C4.59534 18.9158 4.69619 18.9534 4.96778 18.9756C5.25112 18.9987 5.62365 19 6.2002 19H17.7998C18.3764 19 18.7489 18.9987 19.0322 18.9756C19.3038 18.9534 19.4047 18.9158 19.4541 18.8906C19.6421 18.7948 19.7948 18.6421 19.8906 18.4541C19.9158 18.4047 19.9534 18.3038 19.9756 18.0322C19.9987 17.7489 20 17.3764 20 16.7998V7.2002C20 6.62365 19.9987 6.25112 19.9756 5.96778C19.9534 5.69619 19.9158 5.59534 19.8906 5.5459C19.7948 5.35793 19.6421 5.20522 19.4541 5.10938C19.4047 5.08419 19.3038 5.04662 19.0322 5.02442C18.7489 5.00127 18.3764 5 17.7998 5H6.2002Z" fill="oklch(0.3523 0 0 / 1)" class="wd-icon-fill"></path>
<g>
<path d="M11.25 14.25C11.6642 14.25 12 14.5858 12 15C12 15.4142 11.6642 15.75 11.25 15.75H7.75C7.33579 15.75 7 15.4142 7 15C7 14.5858 7.33579 14.25 7.75 14.25H11.25Z" fill="oklch(0.3523 0 0 / 1)" class="wd-icon-accent"></path>
<path d="M15.5 11.5C16.6046 11.5 17.5 12.3954 17.5 13.5C17.5 14.6046 16.6046 15.5 15.5 15.5C14.3954 15.5 13.5 14.6046 13.5 13.5C13.5 12.3954 14.3954 11.5 15.5 11.5Z" fill="oklch(0.3523 0 0 / 1)" class="wd-icon-accent"></path>
<path d="M11.25 11.25C11.6642 11.25 12 11.5858 12 12C12 12.4142 11.6642 12.75 11.25 12.75H7.75C7.33579 12.75 7 12.4142 7 12C7 11.5858 7.33579 11.25 7.75 11.25H11.25Z" fill="oklch(0.3523 0 0 / 1)" class="wd-icon-accent"></path>
<path d="M16.25 8.25C16.6642 8.25 17 8.58579 17 9C17 9.41421 16.6642 9.75 16.25 9.75H7.75C7.33579 9.75 7 9.41421 7 9C7 8.58579 7.33579 8.25 7.75 8.25H16.25Z" fill="oklch(0.3523 0 0 / 1)" class="wd-icon-accent"></path>
</g>
</svg>