<svg width="24" height="24" viewBox="0 0 24 24" xmlns="http://www.w3.org/2000/svg" class="wd-icon wd-icon-box-text" role="presentation">
<path d="M20.5 3C21.3284 3 22 3.67157 22 4.5V19.5C22 20.3284 21.3284 21 20.5 21H3.5C2.67157 21 2 20.3284 2 19.5V4.5C2 3.67157 2.67157 3 3.5 3H20.5ZM4 19H20V5H4V19Z" fill="oklch(0.3523 0 0 / 1)" class="wd-icon-fill"></path>
<g>
<path d="M13 15.5C13 15.7761 12.7761 16 12.5 16H7.5C7.22386 16 7 15.7761 7 15.5V14.5C7 14.2239 7.22386 14 7.5 14H12.5C12.7761 14 13 14.2239 13 14.5V15.5Z" fill="oklch(0.3523 0 0 / 1)" class="wd-icon-accent"></path>
<path d="M17 12.5C17 12.7761 16.7761 13 16.5 13H7.5C7.22386 13 7 12.7761 7 12.5V11.5C7 11.2239 7.22386 11 7.5 11H16.5C16.7761 11 17 11.2239 17 11.5V12.5Z" fill="oklch(0.3523 0 0 / 1)" class="wd-icon-accent"></path>
<path d="M17 9.5C17 9.77614 16.7761 10 16.5 10H7.5C7.22386 10 7 9.77614 7 9.5V8.5C7 8.22386 7.22386 8 7.5 8H16.5C16.7761 8 17 8.22386 17 8.5V9.5Z" fill="oklch(0.3523 0 0 / 1)" class="wd-icon-accent"></path>
</g>
</svg>