<svg width="24" height="24" viewBox="0 0 24 24" xmlns="http://www.w3.org/2000/svg" class="wd-icon wd-icon-gear" role="presentation">
<path d="M13.1855 2C13.6621 2.00005 14.0725 2.33641 14.166 2.80371L14.7002 5.47949L16.9717 3.9668C17.3683 3.70249 17.8964 3.75477 18.2334 4.0918L19.9092 5.76758C20.2462 6.1046 20.2985 6.63269 20.0342 7.0293L18.5215 9.29785L21.1963 9.83301C21.6636 9.92655 22 10.3369 22 10.8135V13.1846C21.9998 13.661 21.6635 14.0715 21.1963 14.165L18.5195 14.7002L20.0342 16.9717C20.2986 17.3683 20.2461 17.8963 19.9092 18.2334L18.2334 19.9102C17.8964 20.2471 17.3683 20.2993 16.9717 20.0352L14.7002 18.5205L14.166 21.1963C14.0725 21.6636 13.6621 22 13.1855 22H10.8145C10.338 21.9998 9.92748 21.6635 9.83398 21.1963L9.29785 18.5215L7.0293 20.0352C6.63279 20.2995 6.10466 20.247 5.76758 19.9102L4.09082 18.2334C3.75398 17.8963 3.70147 17.3682 3.96582 16.9717L5.47949 14.6992L2.80371 14.165C2.33649 14.0715 2.00022 13.661 2 13.1846V10.8135C2.00005 10.3369 2.33641 9.92655 2.80371 9.83301L5.47754 9.29785L3.96582 7.0293C3.70164 6.63271 3.75384 6.10455 4.09082 5.76758L5.76758 4.0918C6.10465 3.75483 6.63272 3.70241 7.0293 3.9668L9.29883 5.47949L9.83398 2.80371C9.92748 2.33649 10.338 2.00022 10.8145 2H13.1855ZM11.9951 8C9.78598 8 7.99512 9.79086 7.99512 12C7.99512 14.2091 9.78598 16 11.9951 16C14.2043 16 15.9951 14.2091 15.9951 12C15.9951 9.79086 14.2043 8 11.9951 8Z" fill="transparent" class="wd-icon-background"></path>
<g>
<path d="M11.9951 7C14.7565 7 16.9951 9.23858 16.9951 12C16.9951 14.7614 14.7565 17 11.9951 17C9.23369 17 6.99512 14.7614 6.99512 12C6.99512 9.23858 9.23369 7 11.9951 7ZM11.9951 9C10.3383 9 8.99512 10.3431 8.99512 12C8.99512 13.6569 10.3383 15 11.9951 15C13.652 15 14.9951 13.6569 14.9951 12C14.9951 10.3431 13.652 9 11.9951 9Z" fill="oklch(0.3523 0 0 / 1)" class="wd-icon-fill"></path>
<path d="M13.3623 1.00781C14.2387 1.08507 14.9711 1.73108 15.1465 2.60742L15.3535 3.65137C15.4127 3.67528 15.4717 3.6995 15.5303 3.72461L16.417 3.13477L16.5684 3.04297C17.3404 2.62118 18.3084 2.7527 18.9404 3.38477L20.6162 5.06055C21.2903 5.73465 21.3948 6.79082 20.8662 7.58398L20.2725 8.47266C20.2964 8.52869 20.3199 8.58495 20.3428 8.6416L21.3926 8.85254L21.5645 8.89453C22.4086 9.14226 22.9999 9.91983 23 10.8135V13.1846L22.9922 13.3623C22.9144 14.2377 22.269 14.9701 21.3926 15.1455L20.3447 15.3535C20.3213 15.4118 20.2971 15.4697 20.2725 15.5273L20.8662 16.417L20.958 16.5684C21.38 17.3406 21.2479 18.3086 20.6162 18.9404L18.9404 20.6172C18.3084 21.2492 17.341 21.38 16.5693 20.959L16.417 20.8672L15.5283 20.2744C15.4704 20.2992 15.4121 20.3231 15.3535 20.3467L15.1465 21.3916C14.9711 22.2679 14.2387 22.9149 13.3623 22.9922L13.1855 23H10.8145C9.86247 22.9996 9.04101 22.328 8.85352 21.3936L8.64355 20.3516C8.5843 20.3277 8.52536 20.3034 8.4668 20.2783L7.58496 20.8672C6.84105 21.3631 5.86544 21.3015 5.19141 20.7373L5.06055 20.6172L3.38379 18.9404C2.75251 18.3087 2.61999 17.3407 3.04199 16.5684L3.13379 16.417L3.71973 15.5361C3.69351 15.4751 3.66848 15.4134 3.64355 15.3516L2.6084 15.1455C1.73201 14.9701 1.08558 14.2377 1.00781 13.3623L1 13.1846V10.8135C1.0001 9.86068 1.6723 9.04 2.60645 8.85254L3.64453 8.64355C3.66898 8.58297 3.69403 8.52275 3.71973 8.46289L3.13379 7.58398C2.60561 6.79108 2.7096 5.73473 3.38379 5.06055L5.06055 3.38477C5.73446 2.71106 6.79056 2.60582 7.58398 3.13477L8.46484 3.72168C8.52444 3.69615 8.58421 3.67078 8.64453 3.64648L8.85352 2.60742L8.89551 2.43555C9.14329 1.59116 9.92155 1.00041 10.8145 1H13.1855L13.3623 1.00781ZM10.3809 5.16211L9.8252 5.34375C9.48255 5.45537 9.15042 5.59407 8.83008 5.75684L8.30859 6.02148L6.47461 4.79883L4.79785 6.47461L6.01953 8.30859L5.75488 8.83008C5.59184 9.15031 5.45181 9.48235 5.33984 9.8252L5.15918 10.3799L3.00098 10.8135L3 13.1846L5.1582 13.6152L5.33984 14.1719C5.45181 14.5152 5.59144 14.8478 5.75488 15.1689L6.01953 15.6904L4.79785 17.5254L6.47363 19.2021L7.82227 18.3027L8.30957 17.9785L8.83105 18.2432C9.15053 18.4054 9.482 18.5437 9.82422 18.6553L10.3799 18.8369L10.8145 20.999L13.1855 21L13.6172 18.834L14.1729 18.6523C14.5156 18.5402 14.8467 18.4018 15.1641 18.2402L15.6855 17.9756L17.5264 19.2031L19.2021 17.5264L17.9736 15.6846L18.2383 15.1631C18.3996 14.8453 18.5379 14.5147 18.6494 14.1729L18.8301 13.6172L21 13.1846V10.8135L18.8291 10.3779L18.6484 9.82324C18.5372 9.48306 18.3993 9.15402 18.2383 8.83691L17.9736 8.31543L18.2979 7.82812L19.2012 6.47363L17.5264 4.79883L16.1709 5.7002L15.6846 6.02441L15.1641 5.75977C14.8452 5.59751 14.5143 5.45835 14.1729 5.34668L13.6172 5.16504L13.1855 3H10.8145L10.3809 5.16211Z" fill="oklch(0.3523 0 0 / 1)" class="wd-icon-fill"></path>
</g>
</svg>