<svg width="24" height="24" viewBox="0 0 24 24" xmlns="http://www.w3.org/2000/svg" class="wd-icon wd-icon-check-seal-fill" role="presentation">
<path d="M9.86416 1.60202C11.1686 0.778473 12.8312 0.77851 14.1356 1.60202C14.5335 1.85322 14.9033 2.23082 15.4188 2.7446C15.6369 2.96192 15.7023 3.02561 15.7665 3.07859C16.0152 3.28364 16.3105 3.42601 16.6259 3.49265C16.7074 3.50986 16.7972 3.52108 17.1034 3.55613C17.8269 3.63893 18.3532 3.69266 18.7978 3.84714C20.2548 4.35361 21.2904 5.65376 21.4599 7.18699C21.5115 7.6547 21.4473 8.17923 21.3671 8.90281C21.3331 9.20886 21.3245 9.29905 21.3231 9.3823C21.3179 9.7046 21.3905 10.0239 21.5351 10.312C21.5724 10.3865 21.6195 10.4637 21.7831 10.7251C22.1694 11.3422 22.4548 11.7871 22.6112 12.2309C23.1239 13.686 22.7542 15.3065 21.661 16.395C21.3276 16.727 20.8774 17.0036 20.2616 17.3921C20.0007 17.5567 19.9243 17.6058 19.8583 17.6567C19.6032 17.8535 19.3997 18.1094 19.2645 18.4018C19.2296 18.4775 19.198 18.563 19.0956 18.854C18.8539 19.5408 18.684 20.0419 18.4345 20.4409C17.6164 21.7486 16.1192 22.4694 14.5868 22.2934C14.1193 22.2397 13.6221 22.06 12.9345 21.8208C12.6433 21.7194 12.5574 21.6912 12.4765 21.6714C12.1634 21.5946 11.8364 21.5945 11.5233 21.6714C11.4424 21.6912 11.3566 21.7194 11.0653 21.8208C10.3777 22.06 9.8805 22.2397 9.41299 22.2934C7.88059 22.4694 6.38336 21.7485 5.56533 20.4409C5.31582 20.0419 5.14588 19.5408 4.9042 18.854C4.8018 18.563 4.77021 18.4775 4.73525 18.4018C4.60011 18.1094 4.3966 17.8535 4.1415 17.6567C4.07548 17.6058 3.99904 17.5566 3.73818 17.3921C3.12246 17.0037 2.67223 16.727 2.33877 16.395C1.24563 15.3065 0.875936 13.6859 1.38857 12.2309C1.54501 11.7871 1.83042 11.3422 2.2167 10.7251C2.38033 10.4636 2.42735 10.3865 2.46474 10.312C2.6093 10.0238 2.68189 9.70462 2.67666 9.3823C2.67528 9.29905 2.66665 9.20886 2.63271 8.90281C2.55247 8.17923 2.48833 7.65469 2.53994 7.18699C2.70939 5.65377 3.74503 4.35362 5.20205 3.84714C5.64663 3.69264 6.17287 3.63893 6.89638 3.55613C7.20257 3.52108 7.2924 3.50985 7.37392 3.49265C7.68936 3.42602 7.98454 3.28366 8.2333 3.07859C8.29753 3.0256 8.36278 2.96201 8.58095 2.7446C9.09657 2.23079 9.4663 1.85323 9.86416 1.60202ZM15.8075 8.73093C15.3834 8.3777 14.7529 8.43519 14.3993 8.85886L10.9999 12.937L9.68545 11.3589C9.3319 10.9348 8.70047 10.8776 8.27627 11.2309C7.85205 11.5845 7.79481 12.2159 8.14834 12.6401L10.2323 15.1401C10.4223 15.3679 10.7043 15.4995 11.0009 15.4995C11.2973 15.4993 11.5786 15.3677 11.7685 15.1401L15.9354 10.1401C16.2888 9.7159 16.2315 9.08447 15.8075 8.73093Z" fill="oklch(0.3523 0 0 / 1)" class="wd-icon-fill"></path>
</svg>