<svg width="24" height="24" viewBox="0 0 24 24" xmlns="http://www.w3.org/2000/svg" class="wd-icon wd-icon-data-arrow-right" role="presentation">
<g>
<path d="M18.4697 15.4697C18.7626 15.1772 19.2375 15.1771 19.5303 15.4697L22.5303 18.4697C22.8228 18.7625 22.8228 19.2374 22.5303 19.5303L19.5303 22.5303C19.2374 22.8228 18.7626 22.8229 18.4697 22.5303C18.1771 22.2375 18.1771 21.7626 18.4697 21.4697L20.1895 19.75H14C13.586 19.7498 13.25 19.414 13.25 19C13.25 18.5859 13.586 18.2502 14 18.25H20.1895L18.4697 16.5303C18.1771 16.2375 18.1772 15.7626 18.4697 15.4697Z" fill="oklch(0.3523 0 0 / 1)" class="wd-icon-fill"></path>
<path d="M12 2C14.3307 2 16.4907 2.47043 18.1045 3.27734C19.6583 4.05437 21 5.31275 21 7V12C21 12.5523 20.5523 13 20 13C19.4477 13 19 12.5523 19 12V10.1992C18.7157 10.3923 18.4147 10.5675 18.1045 10.7227C16.4907 11.5296 14.3307 12 12 12C9.66928 12 7.50934 11.5296 5.89551 10.7227C5.58533 10.5675 5.28428 10.3923 5 10.1992V17C5 17.2481 5.09468 17.5494 5.37891 17.8926C5.66886 18.2426 6.13404 18.6055 6.79004 18.9336C7.44223 19.2597 8.23998 19.5291 9.1416 19.7158C9.7539 19.8426 10.4001 19.929 11.0625 19.9707C11.6136 20.0054 12.0326 20.4802 11.998 21.0312C11.9633 21.5823 11.4885 22.0013 10.9375 21.9668C10.1861 21.9195 9.44506 21.8218 8.73535 21.6748C7.69589 21.4595 6.72896 21.1394 5.89551 20.7227C5.06623 20.308 4.35283 19.7893 3.83887 19.1689C3.31914 18.5416 3 17.8025 3 17V7C3 5.31275 4.34167 4.05437 5.89551 3.27734C7.50934 2.47043 9.66928 2 12 2ZM12 4C9.91244 4 8.07164 4.42561 6.79004 5.06641C5.44895 5.73706 5 6.47831 5 7C5 7.52169 5.44895 8.26294 6.79004 8.93359C8.07164 9.57439 9.91244 10 12 10C14.0876 10 15.9284 9.57439 17.21 8.93359C18.551 8.26294 19 7.52169 19 7C19 6.47831 18.551 5.73706 17.21 5.06641C15.9284 4.42561 14.0876 4 12 4Z" fill="oklch(0.3523 0 0 / 1)" class="wd-icon-fill"></path>
</g>
</svg>