<svg width="24" height="24" viewBox="0 0 24 24" xmlns="http://www.w3.org/2000/svg" class="wd-icon wd-icon-webpage" role="presentation">
<path d="M20.5 8H3.5C3.22386 8 3 8.22386 3 8.5V19.5C3 19.7761 3.22386 20 3.5 20H20.5C20.7761 20 21 19.7761 21 19.5V8.5C21 8.22386 20.7761 8 20.5 8Z" fill="transparent" class="wd-icon-background"></path>
<path d="M20.5 4C21.3284 4 22 4.67157 22 5.5V19.5C22 20.3284 21.3284 21 20.5 21H3.5C2.72334 21 2.08461 20.4097 2.00781 19.6533L2 19.5V5.5C2 4.67157 2.67157 4 3.5 4H20.5ZM4 19H20V9H4V19ZM4.5 6C4.22386 6 4 6.22386 4 6.5C4 6.77614 4.22386 7 4.5 7H5.5C5.77614 7 6 6.77614 6 6.5C6 6.22386 5.77614 6 5.5 6H4.5ZM7.5 6C7.22386 6 7 6.22386 7 6.5C7 6.77614 7.22386 7 7.5 7H8.5C8.77614 7 9 6.77614 9 6.5C9 6.22386 8.77614 6 8.5 6H7.5ZM10.5 6C10.2239 6 10 6.22386 10 6.5C10 6.77614 10.2239 7 10.5 7H11.5C11.7761 7 12 6.77614 12 6.5C12 6.22386 11.7761 6 11.5 6H10.5Z" fill="oklch(0.3523 0 0 / 1)" class="wd-icon-fill"></path>
<g>
<path d="M9.5 14C9.77614 14 10 14.2239 10 14.5V16.5C10 16.7761 9.77614 17 9.5 17H6.5C6.22386 17 6 16.7761 6 16.5V14.5C6 14.2239 6.22386 14 6.5 14H9.5Z" fill="oklch(0.3523 0 0 / 1)" class="wd-icon-accent"></path>
<path d="M17.5 14C17.7761 14 18 14.2239 18 14.5V16.5C18 16.7761 17.7761 17 17.5 17H11.5C11.2239 17 11 16.7761 11 16.5V14.5C11 14.2239 11.2239 14 11.5 14H17.5Z" fill="oklch(0.3523 0 0 / 1)" class="wd-icon-accent"></path>
<path d="M17.5 11C17.7761 11 18 11.2239 18 11.5V12.5C18 12.7761 17.7761 13 17.5 13H6.5C6.22386 13 6 12.7761 6 12.5V11.5C6 11.2239 6.22386 11 6.5 11H17.5Z" fill="oklch(0.3523 0 0 / 1)" class="wd-icon-accent"></path>
</g>
</svg>