<svg width="24" height="24" viewBox="0 0 24 24" xmlns="http://www.w3.org/2000/svg" class="wd-icon wd-icon-pattern" role="presentation">
<g>
<path d="M11.6464 14.8535C11.8417 14.6582 12.1582 14.6582 12.3535 14.8535L15.1464 17.6464C15.3416 17.8417 15.3416 18.1582 15.1464 18.3535L12.3535 21.1464C12.1582 21.3416 11.8417 21.3416 11.6464 21.1464L8.85346 18.3535C8.65821 18.1582 8.65823 17.8417 8.85346 17.6464L11.6464 14.8535Z" fill="transparent" class="wd-icon-background"></path>
<path d="M5.64643 8.85346C5.84169 8.65823 6.15821 8.65821 6.35346 8.85346L9.14643 11.6464C9.34156 11.8417 9.34161 12.1582 9.14643 12.3535L6.35346 15.1464C6.15823 15.3416 5.84169 15.3416 5.64643 15.1464L2.85346 12.3535C2.65821 12.1582 2.65823 11.8417 2.85346 11.6464L5.64643 8.85346Z" fill="transparent" class="wd-icon-background"></path>
<path d="M11.6464 2.85346C11.8417 2.65823 12.1582 2.65821 12.3535 2.85346L15.1464 5.64643C15.3416 5.84169 15.3416 6.15823 15.1464 6.35346L12.3535 9.14643C12.1582 9.34162 11.8417 9.34156 11.6464 9.14643L8.85346 6.35346C8.65821 6.15821 8.65823 5.84169 8.85346 5.64643L11.6464 2.85346Z" fill="transparent" class="wd-icon-background"></path>
</g>
<path d="M14.8535 12.3535C14.6582 12.1582 14.6582 11.8416 14.8535 11.6464L17.6464 8.85348C17.8416 8.65822 18.1582 8.65822 18.3535 8.85348L21.1464 11.6464C21.3416 11.8416 21.3416 12.1582 21.1464 12.3535L18.3535 15.1464C18.1582 15.3416 17.8416 15.3416 17.6464 15.1464L14.8535 12.3535Z" fill="oklch(0.3523 0 0 / 1)" class="wd-icon-accent"></path>
<g>
<path d="M11.0535 14.0435C11.6426 13.5631 12.5112 13.597 13.0603 14.146L15.8533 16.939C16.439 17.5247 16.4389 18.4743 15.8533 19.0601L13.0603 21.853C12.4745 22.4388 11.525 22.4388 10.9392 21.853L8.14625 19.0601C7.56068 18.4743 7.56057 17.5247 8.14625 16.939L10.9392 14.146L11.0535 14.0435ZM9.91383 17.9995L11.9998 20.0855L14.0857 17.9995L11.9998 15.9136L9.91383 17.9995Z" fill="oklch(0.3523 0 0 / 1)" class="wd-icon-fill"></path>
<path d="M5.05348 8.04346C5.64257 7.56308 6.51116 7.59705 7.06032 8.146L9.85328 10.939C10.439 11.5247 10.4389 12.4743 9.85328 13.0601L7.06032 15.853C6.47454 16.4388 5.525 16.4388 4.93922 15.853L2.14625 13.0601C1.56068 12.4743 1.56057 11.5247 2.14625 10.939L4.93922 8.146L5.05348 8.04346ZM3.91383 11.9995L5.99977 14.0855L8.08571 11.9995L5.99977 9.91358L3.91383 11.9995Z" fill="oklch(0.3523 0 0 / 1)" class="wd-icon-fill"></path>
<path d="M17.0535 8.04346C17.6426 7.56308 18.5112 7.59705 19.0603 8.146L21.8533 10.939C22.439 11.5247 22.4389 12.4743 21.8533 13.0601L19.0603 15.853C18.4745 16.4388 17.525 16.4388 16.9392 15.853L14.1463 13.0601C13.5607 12.4743 13.5606 11.5247 14.1463 10.939L16.9392 8.146L17.0535 8.04346ZM15.9138 11.9995L17.9998 14.0855L20.0857 11.9995L17.9998 9.91358L15.9138 11.9995Z" fill="oklch(0.3523 0 0 / 1)" class="wd-icon-fill"></path>
<path d="M11.0535 2.04346C11.6426 1.56308 12.5112 1.59705 13.0603 2.146L15.8533 4.93897C16.439 5.52472 16.4389 6.47428 15.8533 7.06006L13.0603 9.85303C12.4745 10.4388 11.525 10.4388 10.9392 9.85303L8.14625 7.06006C7.56068 6.47427 7.56057 5.52469 8.14625 4.93897L10.9392 2.146L11.0535 2.04346ZM9.91383 5.99951L11.9998 8.08545L14.0857 5.99951L11.9998 3.91358L9.91383 5.99951Z" fill="oklch(0.3523 0 0 / 1)" class="wd-icon-fill"></path>
</g>
</svg>