<svg width="24" height="24" viewBox="0 0 24 24" xmlns="http://www.w3.org/2000/svg" class="wd-icon wd-icon-object" role="presentation">
<g>
<path d="M9.5 3C9.77614 3 10 3.22386 10 3.5V4.5C10 4.77614 9.77614 5 9.5 5H8C7.44772 5 7 5.44772 7 6V10C7 11.1046 6.10457 12 5 12C6.10457 12 7 12.8954 7 14V18C7 18.5523 7.44772 19 8 19H9.5C9.77614 19 10 19.2239 10 19.5V20.5C10 20.7761 9.77614 21 9.5 21H8C6.34315 21 5 19.6569 5 18V14C5 13.4477 4.55228 13 4 13H3.5C3.22386 13 3 12.7761 3 12.5V11.5C3 11.2239 3.22386 11 3.5 11H4C4.55228 11 5 10.5523 5 10V6C5 4.34315 6.34315 3 8 3H9.5Z" fill="oklch(0.3523 0 0 / 1)" class="wd-icon-fill"></path>
<path d="M16 3C17.6569 3 19 4.34315 19 6V10C19 10.5523 19.4477 11 20 11H20.5C20.7761 11 21 11.2239 21 11.5V12.5C21 12.7761 20.7761 13 20.5 13H20C19.4477 13 19 13.4477 19 14V18C19 19.6569 17.6569 21 16 21H14.5C14.2239 21 14 20.7761 14 20.5V19.5C14 19.2239 14.2239 19 14.5 19H16C16.5523 19 17 18.5523 17 18V14C17 12.8954 17.8954 12 19 12C17.8954 12 17 11.1046 17 10V6C17 5.44772 16.5523 5 16 5H14.5C14.2239 5 14 4.77614 14 4.5V3.5C14 3.22386 14.2239 3 14.5 3H16Z" fill="oklch(0.3523 0 0 / 1)" class="wd-icon-fill"></path>
</g>
</svg>