<svg width="24" height="24" viewBox="0 0 24 24" xmlns="http://www.w3.org/2000/svg" class="wd-icon wd-icon-arrow-corner-down-right" role="presentation">
<path d="M5 4C5.55216 4 5.9998 4.44788 6 5V7.00098C6 10.867 9.13401 14.001 13 14.001H16.5859L14.293 11.708C13.9026 11.3176 13.9028 10.6845 14.293 10.2939C14.6835 9.90344 15.3165 9.90349 15.707 10.2939L19.707 14.2939C20.0973 14.6845 20.0975 15.3176 19.707 15.708L15.707 19.708C15.3166 20.0982 14.6834 20.0982 14.293 19.708C13.9025 19.3176 13.9027 18.6845 14.293 18.2939L16.5859 16.001H13C8.02944 16.001 4 11.9715 4 7.00098V5C4.0002 4.44788 4.44784 4 5 4Z" fill="oklch(0.3523 0 0 / 1)" class="wd-icon-fill"></path>
</svg>