<svg width="24" height="24" viewBox="0 0 24 24" xmlns="http://www.w3.org/2000/svg" class="wd-icon wd-icon-boolean" role="presentation">
<g>
<path d="M12 3C12.5523 3 13 3.44772 13 4V20C13 20.5523 12.5523 21 12 21C11.4477 21 11 20.5523 11 20V4C11 3.44772 11.4477 3 12 3Z" fill="oklch(0.3523 0 0 / 1)" class="wd-icon-fill"></path>
<path d="M9 8C9.55228 8 10 8.44772 10 9C10 9.55228 9.55228 10 9 10H7V16C7 16.5523 6.55228 17 6 17C5.44772 17 5 16.5523 5 16V10H3C2.44773 9.99999 2.00001 9.55227 2 9C2 8.44772 2.44772 8 3 8H9Z" fill="oklch(0.3523 0 0 / 1)" class="wd-icon-fill"></path>
<path d="M21.0195 8.04004C21.5608 8.04004 22 8.47928 22 9.02051C21.9997 9.56151 21.5606 10 21.0195 10H17V12H20C20.5522 12.0001 21 12.4478 21 13C21 13.5522 20.5522 13.9999 20 14H17L16.999 16.0342C16.9987 16.5676 16.5666 16.9998 16.0332 17C15.4994 17 15.0664 16.567 15.0664 16.0332V9.04004C15.0664 8.48776 15.5141 8.04004 16.0664 8.04004H21.0195Z" fill="oklch(0.3523 0 0 / 1)" class="wd-icon-fill"></path>
</g>
</svg>