<svg width="24" height="24" viewBox="0 0 24 24" xmlns="http://www.w3.org/2000/svg" class="wd-icon wd-icon-arrow-up" role="presentation">
<path d="M11.3676 2.22509C11.7358 1.92437 12.2651 1.92427 12.6332 2.22509L16.769 5.60888L16.7699 5.60986L19.7465 8.0454C19.9598 8.22022 19.9913 8.53491 19.8168 8.74853L19.5004 9.13622L19.184 9.52294C19.0091 9.73654 18.6936 9.76804 18.4799 9.59325L15.5043 7.15868C15.5023 7.15701 15.5005 7.15452 15.4985 7.15282L13.0004 5.10888V21.4995C13.0004 21.7756 12.7765 21.9994 12.5004 21.9995H11.5004C11.2243 21.9995 11.0004 21.7756 11.0004 21.4995V5.10888L8.4965 7.15673L8.49552 7.15868L5.51994 9.59325C5.30624 9.76804 4.99069 9.73658 4.81584 9.52294L4.50041 9.13622L4.18302 8.74853C4.00851 8.5348 4.04074 8.22015 4.25431 8.0454L7.2299 5.60986C7.23151 5.60854 7.23316 5.60725 7.23478 5.60595L11.3676 2.22509Z" fill="oklch(0.3523 0 0 / 1)" class="wd-icon-fill"></path>
</svg>