<svg width="24" height="24" viewBox="0 0 24 24" xmlns="http://www.w3.org/2000/svg" class="wd-icon wd-icon-remove-split-row" role="presentation">
<g>
<path d="M16.8005 9.00022C17.3439 9.00022 17.8124 8.99915 18.196 9.03049C18.5912 9.06282 18.9848 9.13468 19.363 9.32737C19.9271 9.61493 20.386 10.0738 20.6736 10.6379C20.8663 11.0161 20.9381 11.4097 20.9704 11.8049C21.0018 12.1885 21.0007 12.657 21.0007 13.2004V16.8C21.0007 17.3434 21.0018 17.8119 20.9704 18.1955C20.9381 18.5906 20.8662 18.9844 20.6736 19.3625C20.3861 19.9266 19.927 20.3855 19.363 20.6731C18.9849 20.8658 18.5911 20.9376 18.196 20.9699C17.8124 21.0013 17.3439 21.0002 16.8005 21.0002H15.2009C14.6575 21.0002 14.189 21.0013 13.8054 20.9699C13.4102 20.9376 13.0166 20.8658 12.6384 20.6731C12.0742 20.3855 11.6154 19.9267 11.3279 19.3625C11.1351 18.9843 11.0633 18.5908 11.031 18.1955C10.9997 17.8119 11.0007 17.3434 11.0007 16.8V13.2004C11.0007 12.657 10.9996 12.1885 11.031 11.8049C11.0633 11.4098 11.1352 11.0161 11.3279 10.6379C11.6154 10.0739 12.0743 9.61487 12.6384 9.32737C13.0166 9.13479 13.4103 9.06279 13.8054 9.03049C14.189 8.99918 14.6576 9.00022 15.2009 9.00022H16.8005ZM16.7507 19.0002H16.8005C17.3768 19.0002 17.7497 18.999 18.0329 18.9758C18.3042 18.9536 18.4054 18.916 18.4548 18.8908C18.6426 18.795 18.7956 18.6421 18.8913 18.4543C18.9165 18.4047 18.9542 18.3033 18.9763 18.0324C18.9994 17.7492 19.0007 17.3763 19.0007 16.8V13.2004C19.0007 12.624 18.9994 12.2513 18.9763 11.968C18.9541 11.6966 18.9165 11.5955 18.8913 11.5461C18.7955 11.3583 18.6427 11.2054 18.4548 11.1096C18.4054 11.0844 18.3042 11.0468 18.0329 11.0246C17.7497 11.0015 17.3768 11.0002 16.8005 11.0002H16.7507V19.0002ZM15.2009 11.0002C14.6246 11.0002 14.2518 11.0015 13.9685 11.0246C13.6977 11.0468 13.5962 11.0844 13.5466 11.1096C13.3588 11.2054 13.2059 11.3583 13.1101 11.5461C13.0849 11.5955 13.0473 11.6967 13.0251 11.968C13.002 12.2513 13.0007 12.624 13.0007 13.2004V16.8C13.0007 17.3764 13.002 17.7491 13.0251 18.0324C13.0473 18.3039 13.0849 18.4049 13.1101 18.4543C13.2059 18.6423 13.3586 18.795 13.5466 18.8908C13.5961 18.916 13.6973 18.9536 13.9685 18.9758C14.2518 18.9989 14.6246 19.0002 15.2009 19.0002H15.2507V11.0002H15.2009Z" fill="oklch(0.3523 0 0 / 1)" class="wd-icon-fill"></path>
<path d="M5.99973 2.00022C6.40013 2.00022 6.79735 1.99156 7.14719 2.08518C8.0095 2.31636 8.68343 2.99052 8.91477 3.85276C9.00852 4.20262 8.99974 4.59975 8.99973 5.00022V11.0002C8.99973 11.4007 9.00848 11.7978 8.91477 12.1477C8.68355 13.0101 8.00966 13.684 7.14719 13.9153C6.79731 14.0089 6.4002 14.0002 5.99973 14.0002C5.59929 14.0002 5.20211 14.009 4.85227 13.9153C3.99007 13.6839 3.31587 13.01 3.08469 12.1477C2.99105 11.7978 2.99973 11.4006 2.99973 11.0002V5.00022C2.99973 4.59975 2.99095 4.20262 3.08469 3.85276C3.31594 2.99053 3.99005 2.31647 4.85227 2.08518C5.20211 1.99144 5.59929 2.00021 5.99973 2.00022ZM5.49876 4.0051C5.40066 4.00959 5.36985 4.01682 5.36985 4.01682C5.19782 4.06318 5.06265 4.19829 5.01633 4.37034C5.01633 4.37034 5.00911 4.40107 5.00462 4.49924C4.99953 4.61116 4.99973 4.7592 4.99973 5.00022V11.0002C4.99973 11.2412 4.99954 11.3893 5.00462 11.5012C5.00884 11.5939 5.01538 11.626 5.01633 11.6301C5.06257 11.8022 5.19783 11.9372 5.36985 11.9836C5.36985 11.9836 5.40068 11.9908 5.49876 11.9953C5.61066 12.0004 5.75877 12.0002 5.99973 12.0002C6.24065 12.0002 6.38879 12.0004 6.50071 11.9953C6.59421 11.9911 6.6259 11.9845 6.62962 11.9836C6.80189 11.9373 6.93684 11.8024 6.98313 11.6301C6.98389 11.6269 6.99054 11.5957 6.99485 11.5012C6.99992 11.3893 6.99973 11.2412 6.99973 11.0002V5.00022C6.99973 4.7592 6.99994 4.61116 6.99485 4.49924C6.99036 4.4011 6.98313 4.37034 6.98313 4.37034C6.93672 4.19829 6.80173 4.06307 6.62962 4.01682C6.6252 4.01582 6.59293 4.00931 6.50071 4.0051C6.38879 4.00004 6.24062 4.00022 5.99973 4.00022C5.75877 4.00022 5.61066 4.00002 5.49876 4.0051Z" fill="oklch(0.3523 0 0 / 1)" class="wd-icon-fill"></path>
</g>
<path d="M7.47888 16.4667C7.77177 16.1738 8.24653 16.1738 8.53943 16.4667C8.83189 16.7597 8.83218 17.2345 8.53943 17.5273L7.0697 18.997L8.53943 20.4667C8.83195 20.7597 8.8322 21.2345 8.53943 21.5273C8.24665 21.8199 7.77176 21.8198 7.47888 21.5273L6.00915 20.0576L4.53943 21.5273C4.24666 21.8199 3.77175 21.8197 3.47888 21.5273C3.18605 21.2345 3.18617 20.7596 3.47888 20.4667L4.94861 18.997L3.47888 17.5273C3.18603 17.2344 3.18612 16.7596 3.47888 16.4667C3.77177 16.1738 4.24653 16.1738 4.53943 16.4667L6.00915 17.9365L7.47888 16.4667Z" fill="oklch(0.3523 0 0 / 1)" class="wd-icon-accent"></path>
</svg>