<svg width="24" height="24" viewBox="0 0 24 24" xmlns="http://www.w3.org/2000/svg" class="wd-icon wd-icon-arrow-arc" role="presentation">
<path d="M11.831 9.01381C12.1085 8.96644 12.4025 9.03676 12.6328 9.22475L16.746 12.591C16.9594 12.7657 16.9906 13.0804 16.8164 13.2941L16.1826 14.0685C16.0077 14.2818 15.693 14.3134 15.4794 14.1388L12.9999 12.1095V21.5001C12.9999 21.7762 12.776 22.0001 12.4999 22.0001H11.4999C11.2239 22.0001 11 21.7762 10.9999 21.5001V12.1095L8.51948 14.1388C8.30566 14.3136 7.99013 14.2824 7.81537 14.0685L7.49994 13.6818L7.18354 13.2951C7.00912 13.0815 7.04054 12.7667 7.25385 12.5919L11.3662 9.22572C11.504 9.11307 11.6648 9.04206 11.831 9.01381Z" fill="oklch(0.3523 0 0 / 1)" class="wd-icon-fill"></path>
<path d="M12.0003 2C13.3135 2.00002 14.6143 2.25822 15.8275 2.76074C17.0406 3.26329 18.1431 4.00019 19.0716 4.92871C20.0001 5.85725 20.7371 6.95967 21.2396 8.17285C21.6783 9.23194 21.9308 10.3577 21.9879 11.5002C22.0016 11.776 21.7765 12 21.5003 12H20.5003C20.2242 12 20.002 11.7759 19.9847 11.5003C19.9295 10.6206 19.7291 9.75487 19.391 8.93848C18.9889 7.96798 18.4003 7.08558 17.6576 6.34277C16.9148 5.59999 16.0323 5.01141 15.0619 4.60938C14.0913 4.20736 13.0509 4.00002 12.0003 4C10.9498 4 9.90937 4.20737 8.93881 4.60938C7.96831 5.0114 7.08591 5.59999 6.3431 6.34277C5.6003 7.08558 5.01174 7.96797 4.60971 8.93848C4.27154 9.75489 4.07112 10.6206 4.01598 11.5003C3.9987 11.7759 3.77647 12 3.50033 12H2.50033C2.22419 12 1.99903 11.776 2.01281 11.5002C2.06989 10.3577 2.32238 9.23196 2.76107 8.17285C3.26362 6.95966 4.0005 5.85726 4.92904 4.92871C5.85759 4.00019 6.96 3.26327 8.17318 2.76074C9.3864 2.25823 10.6872 2 12.0003 2Z" fill="oklch(0.3523 0 0 / 1)" class="wd-icon-accent"></path>
</svg>