<svg width="24" height="24" viewBox="0 0 24 24" xmlns="http://www.w3.org/2000/svg" class="wd-icon wd-icon-document-lock-dashed" role="presentation">
<g>
<path d="M5 19C5.51768 19 5.94379 19.3933 5.99512 19.8975L6.00488 20.1025C6.05278 20.573 6.42703 20.9472 6.89746 20.9951L7.10254 21.0049C7.60667 21.0562 8 21.4823 8 22C8 22.5523 7.55228 23 7 23C5.34315 23 4 21.6569 4 20C4 19.4477 4.44772 19 5 19Z" fill="oklch(0.3523 0 0 / 1)" class="wd-icon-fill"></path>
<path d="M11.5 21C12.0523 21 12.5 21.4477 12.5 22C12.5 22.5523 12.0523 23 11.5 23H11C10.4477 23 10 22.5523 10 22C10 21.4477 10.4477 21 11 21H11.5Z" fill="oklch(0.3523 0 0 / 1)" class="wd-icon-fill"></path>
<path d="M5 13C5.55228 13 6 13.4477 6 14V16C6 16.5523 5.55228 17 5 17C4.44772 17 4 16.5523 4 16V14C4 13.4477 4.44772 13 5 13Z" fill="oklch(0.3523 0 0 / 1)" class="wd-icon-fill"></path>
<path d="M5 7C5.55228 7 6 7.44772 6 8V10C6 10.5523 5.55228 11 5 11C4.44772 11 4 10.5523 4 10V8C4 7.44772 4.44772 7 5 7Z" fill="oklch(0.3523 0 0 / 1)" class="wd-icon-fill"></path>
<path d="M12.25 9.25C12.6642 9.25 13 9.58579 13 10C13 10.4142 12.6642 10.75 12.25 10.75H8.75C8.33579 10.75 8 10.4142 8 10C8 9.58579 8.33579 9.25 8.75 9.25H12.25Z" fill="oklch(0.3523 0 0 / 1)" class="wd-icon-fill"></path>
<path d="M19 7C19.5523 7 20 7.44772 20 8V9C20 9.55228 19.5523 10 19 10C18.4477 10 18 9.55228 18 9V8C18 7.44772 18.4477 7 19 7Z" fill="oklch(0.3523 0 0 / 1)" class="wd-icon-fill"></path>
<path d="M15.25 6.25C15.6642 6.25 16 6.58579 16 7C16 7.41421 15.6642 7.75 15.25 7.75H8.75C8.33579 7.75 8 7.41421 8 7C8 6.58579 8.33579 6.25 8.75 6.25H15.25Z" fill="oklch(0.3523 0 0 / 1)" class="wd-icon-fill"></path>
<path d="M7 1C7.55228 1 8 1.44772 8 2C8 2.51768 7.60667 2.94379 7.10254 2.99512L6.89746 3.00488C6.42703 3.05278 6.05278 3.42703 6.00488 3.89746L5.99512 4.10254C5.94379 4.60667 5.51768 5 5 5C4.44772 5 4 4.55228 4 4C4 2.34315 5.34315 1 7 1Z" fill="oklch(0.3523 0 0 / 1)" class="wd-icon-fill"></path>
<path d="M17 1C18.6569 1 20 2.34315 20 4C20 4.55228 19.5523 5 19 5C18.4823 5 18.0562 4.60667 18.0049 4.10254L17.9951 3.89746C17.9472 3.42703 17.573 3.05278 17.1025 3.00488L16.8975 2.99512C16.3933 2.94379 16 2.51768 16 2C16 1.44772 16.4477 1 17 1Z" fill="oklch(0.3523 0 0 / 1)" class="wd-icon-fill"></path>
<path d="M13 1C13.5523 1 14 1.44772 14 2C14 2.55228 13.5523 3 13 3H11C10.4477 3 10 2.55228 10 2C10 1.44772 10.4477 1 11 1H13Z" fill="oklch(0.3523 0 0 / 1)" class="wd-icon-fill"></path>
</g>
<path d="M18.5 12C20.1569 12 21.5 13.3431 21.5 15V16.0732C21.6364 16.1039 21.7734 16.1491 21.9082 16.2178C22.2845 16.4095 22.5905 16.7155 22.7822 17.0918C22.9132 17.3488 22.9597 17.6133 22.9805 17.8682C23.0006 18.1142 23 18.4125 23 18.75V20.25C23 20.5875 23.0006 20.8859 22.9805 21.1318C22.9597 21.3865 22.913 21.6503 22.7822 21.9072C22.5905 22.2834 22.2844 22.5895 21.9082 22.7812C21.6512 22.9122 21.3867 22.9596 21.1318 22.9805C20.8858 23.0006 20.5875 23 20.25 23H16.75C16.4125 23 16.1142 23.0006 15.8682 22.9805C15.6133 22.9596 15.3488 22.9122 15.0918 22.7812C14.7156 22.5895 14.4095 22.2834 14.2178 21.9072C14.087 21.6503 14.0403 21.3865 14.0195 21.1318C13.9994 20.8858 14 20.5875 14 20.25V18.75C14 18.4125 13.9994 18.1142 14.0195 17.8682C14.0404 17.6133 14.0868 17.3488 14.2178 17.0918C14.4095 16.7155 14.7155 16.4095 15.0918 16.2178C15.2266 16.1491 15.3636 16.1039 15.5 16.0732V15C15.5 13.3431 16.8431 12 18.5 12ZM16.75 17.5C16.3877 17.5 16.161 17.5007 15.9902 17.5146C15.8295 17.5278 15.7843 17.5492 15.7734 17.5547C15.6794 17.6026 15.6026 17.6794 15.5547 17.7734C15.5492 17.7843 15.5278 17.8295 15.5146 17.9902C15.5007 18.161 15.5 18.3877 15.5 18.75V20.25C15.5 20.6122 15.5007 20.839 15.5146 21.0098C15.5279 21.1716 15.5494 21.2162 15.5547 21.2266C15.6026 21.3206 15.6794 21.3974 15.7734 21.4453C15.7845 21.4509 15.8302 21.4723 15.9902 21.4854C16.161 21.4993 16.3877 21.5 16.75 21.5H20.25C20.6123 21.5 20.839 21.4993 21.0098 21.4854C21.1698 21.4723 21.2155 21.4509 21.2266 21.4453C21.3206 21.3974 21.3974 21.3206 21.4453 21.2266C21.4506 21.2162 21.4721 21.1716 21.4854 21.0098C21.4993 20.839 21.5 20.6122 21.5 20.25V18.75C21.5 18.3877 21.4993 18.161 21.4854 17.9902C21.4722 17.8295 21.4508 17.7843 21.4453 17.7734C21.3974 17.6794 21.3206 17.6026 21.2266 17.5547C21.2157 17.5492 21.1705 17.5278 21.0098 17.5146C20.839 17.5007 20.6123 17.5 20.25 17.5H16.75ZM18.5 13.5C17.6716 13.5 17 14.1716 17 15V16H20V15C20 14.1716 19.3284 13.5 18.5 13.5Z" fill="oklch(0.3523 0 0 / 1)" class="wd-icon-accent"></path>
</svg>