<svg width="24" height="24" viewBox="0 0 24 24" xmlns="http://www.w3.org/2000/svg" class="wd-icon wd-icon-pivot" role="presentation">
<g>
<path d="M21 8C21.5523 8 22 8.44772 22 9V21C22 21.5523 21.5523 22 21 22H17C16.4477 22 16 21.5523 16 21V9C16 8.44772 16.4477 8 17 8H21ZM18 20H20V10H18V20Z" fill="oklch(0.3523 0 0 / 1)" class="wd-icon-fill"></path>
<path d="M3.72168 9.31836L4.6875 9.57715C4.95387 9.64882 5.1098 9.923 5.06543 10.1953C4.9517 10.8927 4.98712 11.6089 5.1709 12.2949C5.39815 13.1423 5.84546 13.9158 6.46582 14.5361C7.08628 15.1563 7.85968 15.604 8.70703 15.8311C8.80392 15.857 8.90206 15.8794 9 15.8994V13.9346C9 13.5353 9.44509 13.2972 9.77734 13.5186L14.376 16.584C14.6723 16.782 14.6725 17.2181 14.376 17.416L9.77734 20.4814C9.44515 20.7028 9.0002 20.4646 9 20.0654V17.9287C8.72777 17.8894 8.45672 17.8342 8.18945 17.7627C7.00299 17.4448 5.91949 16.8196 5.05078 15.9512C4.18218 15.0826 3.55737 13.999 3.23926 12.8125C2.96462 11.7874 2.92709 10.7147 3.12695 9.67676C3.17916 9.40572 3.45505 9.24715 3.72168 9.31836Z" fill="oklch(0.3523 0 0 / 1)" class="wd-icon-fill"></path>
<path d="M15 2C15.5523 2 16 2.44772 16 3V7C16 7.55228 15.5523 8 15 8H3C2.44772 8 2 7.55228 2 7V3C2 2.44772 2.44772 2 3 2H15ZM4 6H14V4H4V6Z" fill="oklch(0.3523 0 0 / 1)" class="wd-icon-fill"></path>
</g>
</svg>