<svg width="24" height="24" viewBox="0 0 24 24" xmlns="http://www.w3.org/2000/svg" class="wd-icon wd-icon-grid-view" role="presentation">
<g>
<path d="M22.5 17C22.7761 17 23 17.2239 23 17.5V18.5C23 18.7761 22.7761 19 22.5 19H1.5C1.22386 19 1 18.7761 1 18.5V17.5C1 17.2239 1.22386 17 1.5 17H22.5Z" fill="oklch(0.3523 0 0 / 1)" class="wd-icon-fill"></path>
<path d="M22.5 13C22.7761 13 23 13.2239 23 13.5V14.5C23 14.7761 22.7761 15 22.5 15H1.5C1.22386 15 1 14.7761 1 14.5V13.5C1 13.2239 1.22386 13 1.5 13H22.5Z" fill="oklch(0.3523 0 0 / 1)" class="wd-icon-fill"></path>
<path d="M22.5 9C22.7761 9 23 9.22386 23 9.5V10.5C23 10.7761 22.7761 11 22.5 11H1.5C1.22386 11 1 10.7761 1 10.5V9.5C1 9.22386 1.22386 9 1.5 9H22.5Z" fill="oklch(0.3523 0 0 / 1)" class="wd-icon-fill"></path>
<path d="M22.5 5C22.7761 5 23 5.22386 23 5.5V6.5C23 6.77614 22.7761 7 22.5 7H1.5C1.22386 7 1 6.77614 1 6.5V5.5C1 5.22386 1.22386 5 1.5 5H22.5Z" fill="oklch(0.3523 0 0 / 1)" class="wd-icon-fill"></path>
</g>
</svg>