<svg width="24" height="24" viewBox="0 0 24 24" xmlns="http://www.w3.org/2000/svg" class="wd-icon wd-icon-calendar-day-9" role="presentation">
<g>
<path d="M11.6397 10.4092C12.1511 10.4092 12.6056 10.5375 12.9893 10.8047C13.378 11.0711 13.6664 11.4559 13.8613 11.9434C14.0561 12.4244 14.1494 12.9915 14.1494 13.6377C14.1494 14.3656 14.0601 15.0225 13.877 15.6035L13.876 15.6025C13.6975 16.188 13.4165 16.6656 13.0225 17.0195L13.0205 17.0205C12.6154 17.3775 12.1131 17.5507 11.5322 17.5508C11.1279 17.5508 10.7623 17.4725 10.4443 17.3066L10.4404 17.3047C10.1317 17.1369 9.87902 16.9122 9.6875 16.6318L9.68555 16.6289C9.61824 16.5267 9.559 16.4202 9.50977 16.3105C9.40994 16.0879 9.45779 15.8596 9.58692 15.6963C9.71222 15.5379 9.91209 15.4405 10.1289 15.4404C10.4906 15.4406 10.7406 15.709 10.8701 15.9395C10.9077 16.0061 10.9554 16.0668 11.0127 16.1221C11.1228 16.2281 11.2855 16.2949 11.5322 16.2949C11.85 16.2948 12.1114 16.1468 12.3262 15.7939L12.3272 15.793C12.4697 15.5607 12.5745 15.2454 12.6377 14.8398C12.5952 14.8728 12.5517 14.905 12.5059 14.9346L12.5068 14.9355C12.2125 15.1294 11.8615 15.2197 11.4688 15.2197C11.0307 15.2197 10.6345 15.113 10.29 14.8926L10.2881 14.8916C9.95593 14.6746 9.69871 14.3817 9.51758 14.0195C9.33704 13.6583 9.24808 13.2625 9.24805 12.8369C9.24809 12.4151 9.34085 12.0187 9.52735 11.6523C9.71648 11.275 9.99465 10.9737 10.3574 10.752C10.7266 10.5203 11.1575 10.4092 11.6397 10.4092ZM11.6494 11.6738C11.4486 11.6738 11.2822 11.7251 11.1416 11.8203L11.1397 11.8213C11.0023 11.9129 10.8892 12.0423 10.8047 12.2197L10.8057 12.2207C10.7266 12.3937 10.6836 12.5949 10.6836 12.8281C10.6836 13.194 10.7779 13.4719 10.9473 13.6816C11.117 13.8788 11.3427 13.9824 11.6494 13.9824C11.8452 13.9823 12.0144 13.9333 12.1641 13.8398L12.167 13.8379C12.3234 13.7431 12.4413 13.6152 12.5225 13.4482L12.5234 13.4453L12.582 13.3076C12.6327 13.1643 12.6592 13.005 12.6592 12.8281C12.6592 12.6064 12.6128 12.4074 12.5234 12.2285L12.5205 12.2236C12.4379 12.0489 12.3226 11.9183 12.1738 11.8252L12.1689 11.8223C12.0208 11.725 11.85 11.6739 11.6494 11.6738Z" fill="oklch(0.3523 0 0 / 1)" class="wd-icon-fill"></path>
<path d="M16.2012 2C17.0247 2 17.7026 1.99898 18.2529 2.04395C18.815 2.08988 19.3321 2.18828 19.8174 2.43555C20.5699 2.81902 21.182 3.43109 21.5654 4.1836C21.8127 4.6689 21.9111 5.18599 21.957 5.74805C22.002 6.29843 22.001 6.97632 22.001 7.79981V16.2002C22.001 17.0237 22.002 17.7016 21.957 18.252C21.9111 18.814 21.8127 19.3311 21.5654 19.8164C21.182 20.5689 20.5699 21.181 19.8174 21.5645C19.3321 21.8117 18.815 21.9101 18.2529 21.9561C17.7026 22.001 17.0247 22 16.2012 22H7.80078C6.9773 22 6.2994 22.001 5.74903 21.9561C5.18697 21.9101 4.66988 21.8117 4.18457 21.5645C3.43207 21.181 2.81999 20.5689 2.43653 19.8164C2.18925 19.3311 2.09085 18.814 2.04492 18.252C1.99996 17.7016 2.00098 17.0237 2.00098 16.2002V7.79981C2.00098 6.97632 1.99996 6.29843 2.04492 5.74805C2.09085 5.18599 2.18925 4.6689 2.43653 4.1836C2.81999 3.43109 3.43207 2.81902 4.18457 2.43555C4.66988 2.18827 5.18697 2.08988 5.74903 2.04395C6.2994 1.99898 6.9773 2 7.80078 2H16.2012ZM4.00098 16.2002C4.00098 17.0566 4.00133 17.6388 4.03809 18.0889C4.07391 18.5273 4.13906 18.7518 4.21875 18.9082C4.41049 19.2845 4.71652 19.5905 5.09278 19.7822C5.24917 19.8619 5.4737 19.9271 5.91211 19.9629C6.36215 19.9997 6.9444 20 7.80078 20H16.2012C17.0576 20 17.6398 19.9997 18.0898 19.9629C18.5283 19.9271 18.7528 19.8619 18.9092 19.7822C19.2854 19.5905 19.5915 19.2845 19.7832 18.9082C19.8629 18.7518 19.928 18.5273 19.9639 18.0889C20.0006 17.6388 20.001 17.0566 20.001 16.2002V8H4.00098V16.2002Z" fill="oklch(0.3523 0 0 / 1)" class="wd-icon-fill"></path>
</g>
</svg>