<svg width="24" height="24" viewBox="0 0 24 24" xmlns="http://www.w3.org/2000/svg" class="wd-icon wd-icon-cloud-search" role="presentation">
<path d="M9.5 4C11.2349 4 12.7794 4.8048 13.7861 6.05664C14.019 6.01944 14.2575 6 14.5 6C16.4812 6 18.1604 7.27999 18.7617 9.05762C21.1616 9.42445 23 11.4976 23 14C23 16.7614 20.7614 19 18 19H6C3.23858 19 1 16.7614 1 14C1 11.948 2.23522 10.186 4.00195 9.41504C4.04737 6.41666 6.49081 4 9.5 4Z" fill="transparent" class="wd-icon-background"></path>
<path d="M9.5 4C11.2349 4 12.7794 4.8048 13.7861 6.05664C14.019 6.01944 14.2575 6 14.5 6C16.4812 6 18.1604 7.27999 18.7617 9.05762C20.4562 9.31662 21.8695 10.4268 22.5547 11.9375C22.5558 11.9399 22.5575 11.9419 22.5586 11.9443C22.5619 11.9516 22.5641 11.9595 22.5674 11.9668C22.5858 12.0082 22.6037 12.0498 22.6211 12.0918C22.6364 12.1287 22.6516 12.1657 22.666 12.2031C22.7236 12.3526 22.7751 12.5051 22.8184 12.6611C22.8255 12.6867 22.8312 12.7126 22.8379 12.7383C22.8523 12.7936 22.8664 12.8492 22.8789 12.9053C22.8854 12.9341 22.8905 12.9632 22.8965 12.9922C22.9062 13.0395 22.9155 13.087 22.9238 13.1348C22.9303 13.1715 22.9368 13.2082 22.9424 13.2451C22.948 13.2821 22.9522 13.3192 22.957 13.3564C22.9639 13.4099 22.9704 13.4636 22.9756 13.5176C22.9788 13.5513 22.9818 13.5852 22.9844 13.6191C22.9874 13.6588 22.9911 13.6984 22.9932 13.7383C22.9976 13.825 23 13.9132 23 14.001C22.9997 15.6729 22.1785 17.152 20.9209 18.0586C20.697 18.22 20.3894 18.1371 20.251 17.8984L19.75 17.0332C19.6116 16.7942 19.6963 16.4904 19.9092 16.3145C20.5763 15.7632 20.9997 14.931 21 14.001C21 12.3441 19.6569 11 18 11C17.9754 11 17.9795 10.9999 17.9727 11L17.0977 11.0078L16.9736 10.1416C16.8004 8.93079 15.7583 8 14.5 8C14.2136 8 13.9403 8.04751 13.6865 8.13477L12.9199 8.39844L12.5039 7.7041C11.8905 6.68122 10.7743 6 9.5 6C7.567 6 6 7.567 6 9.5C6 9.65929 6.01224 9.81902 6.03418 9.97949L6.15527 10.8721L5.28125 11.0859C3.97096 11.4077 3 12.5919 3 14C3 15.6569 4.34315 17 6 17H7.5C7.77614 17 8 17.2239 8 17.5V18.5C8 18.7761 7.77614 19 7.5 19H6C3.23858 19 1 16.7614 1 14C1 11.948 2.23522 10.186 4.00195 9.41504C4.04737 6.41666 6.49081 4 9.5 4Z" fill="oklch(0.3523 0 0 / 1)" class="wd-icon-fill"></path>
<path d="M14 13C16.2091 13 18 14.7909 18 17C18 17.7417 17.7971 18.4358 17.4453 19.0312L19.1035 20.6895C19.2985 20.8846 19.2984 21.2012 19.1035 21.3965L18.3965 22.1035C18.2013 22.2987 17.8847 22.2986 17.6895 22.1035L16.0312 20.4453C15.4358 20.7971 14.7417 21 14 21C11.7909 21 10 19.2091 10 17C10 14.7909 11.7909 13 14 13ZM14 15C12.8954 15 12 15.8954 12 17C12 18.1046 12.8954 19 14 19C15.1046 19 16 18.1046 16 17C16 15.8954 15.1046 15 14 15Z" fill="oklch(0.3523 0 0 / 1)" class="wd-icon-accent"></path>
</svg>