<svg width="24" height="24" viewBox="0 0 24 24" xmlns="http://www.w3.org/2000/svg" class="wd-icon wd-icon-shield-exclamation-fill" role="presentation">
<path d="M12.0005 2C14.772 2.00005 17.3439 2.86903 19.4546 4.34863C19.7753 4.57345 20.0649 4.76842 20.3491 5.12598C20.5687 5.40229 20.7772 5.80225 20.8774 6.14062C21.0094 6.58639 21.0005 7.00911 21.0005 7.48633V9.5C21.0005 12.9477 19.6308 16.2544 17.1929 18.6924C16.1032 19.7821 14.8394 20.6569 13.4683 21.292C13.176 21.4274 12.9195 21.5507 12.5181 21.6211C12.2252 21.6724 11.7759 21.6723 11.4829 21.6211C11.0814 21.5507 10.825 21.4274 10.5327 21.292C9.16157 20.6569 7.89785 19.7821 6.80811 18.6924C4.37012 16.2544 3.00049 12.9478 3.00049 9.5V7.1377C3.00416 6.79648 3.02453 6.47506 3.12354 6.14062C3.22377 5.80221 3.43228 5.40227 3.65186 5.12598C3.93607 4.76844 4.22564 4.57347 4.54639 4.34863C6.65711 2.86906 9.22895 2.00001 12.0005 2ZM12.0005 14.5C11.3101 14.5 10.7505 15.0596 10.7505 15.75C10.7505 16.4404 11.3101 17 12.0005 17C12.6907 16.9998 13.2505 16.4402 13.2505 15.75C13.2505 15.0598 12.6907 14.5002 12.0005 14.5ZM12.0005 5.75C11.3206 5.75 10.7792 6.31905 10.813 6.99805L11.0815 12.376C11.106 12.8655 11.5103 13.25 12.0005 13.25C12.4905 13.2498 12.895 12.8654 12.9194 12.376L13.188 6.99805C13.2217 6.31918 12.6802 5.7502 12.0005 5.75Z" fill="oklch(0.3523 0 0 / 1)" class="wd-icon-fill"></path>
</svg>