<svg width="24" height="24" viewBox="0 0 24 24" xmlns="http://www.w3.org/2000/svg" class="wd-icon wd-icon-arrow-left-to-line" role="presentation">
<g>
<path d="M5 5C5.55228 5 6 5.44772 6 6V18C6 18.5523 5.55228 19 5 19C4.44772 19 4 18.5523 4 18V6C4 5.44772 4.44772 5 5 5Z" fill="oklch(0.3523 0 0 / 1)" class="wd-icon-fill"></path>
<path d="M12.293 7.29297C12.6834 6.9027 13.3165 6.90279 13.707 7.29297C14.097 7.68348 14.0972 8.31666 13.707 8.70703L11.415 10.999H19C19.5518 10.9992 19.9996 11.4472 20 11.999C20 12.5512 19.5521 12.9988 19 12.999H11.4131L13.707 15.293C14.0971 15.6835 14.0973 16.3166 13.707 16.707C13.3166 17.0973 12.6835 17.0971 12.293 16.707L8.29297 12.707C7.90278 12.3165 7.90265 11.6834 8.29297 11.293L12.293 7.29297Z" fill="oklch(0.3523 0 0 / 1)" class="wd-icon-fill"></path>
</g>
</svg>