<svg width="24" height="24" viewBox="0 0 24 24" xmlns="http://www.w3.org/2000/svg" class="wd-icon wd-icon-clipboard-check" role="presentation">
<path d="M12.001 1C12.9773 1.00015 13.9164 1.35835 14.6445 2H15.7998C16.3432 2 16.8117 1.99894 17.1953 2.03027C17.5905 2.06259 17.9841 2.13446 18.3623 2.32715C18.9265 2.61471 19.3853 3.07353 19.6729 3.6377C19.8656 4.01597 19.9374 4.40945 19.9697 4.80469C19.9968 5.13589 19.9987 5.53015 19.999 5.98145C19.9991 5.98762 20 5.9938 20 6V14C20 14.5523 19.5523 15 19 15C18.4477 15 18 14.5523 18 14V6.19141C18 5.61986 17.9986 5.24967 17.9756 4.96777C17.9534 4.69629 17.9158 4.59535 17.8906 4.5459C17.7948 4.35799 17.642 4.20521 17.4541 4.10938C17.4046 4.08419 17.3035 4.04659 17.0322 4.02441C16.761 4.00226 16.4076 4.00014 15.8721 4C15.9559 4.32404 16.001 4.65953 16.001 5V6C16.001 7.10584 15.1033 8 14 8H10.001C9.98517 8 9.96892 7.99978 9.95313 7.99902L9.85059 7.99414C9.83303 7.9933 9.81534 7.992 9.79786 7.99023C8.7871 7.88774 8.00098 7.03521 8.00098 6V5C8.00098 4.95845 8.00442 4.91149 8.00782 4.86035C8.01803 4.56821 8.05906 4.27981 8.13086 4C7.59358 4.00013 7.23957 4.00222 6.96778 4.02441C6.69654 4.0466 6.59536 4.08419 6.5459 4.10938C6.35802 4.20522 6.20519 4.358 6.10938 4.5459C6.08419 4.59536 6.04661 4.6963 6.02442 4.96777C6.00127 5.25111 6.00001 5.62365 6 6.2002V18.7998C6 19.3763 6.00127 19.7489 6.02442 20.0322C6.0466 20.3037 6.08419 20.4046 6.10938 20.4541C6.2052 20.642 6.35801 20.7948 6.5459 20.8906C6.59537 20.9158 6.69649 20.9534 6.96778 20.9756C7.25108 20.9987 7.62382 21 8.2002 21H13C13.5523 21 14 21.4477 14 22C14 22.5523 13.5523 23 13 23H8.2002C7.65677 23 7.18831 23.0011 6.80469 22.9697C6.40952 22.9374 6.01592 22.8655 5.6377 22.6729C5.07355 22.3853 4.61471 21.9265 4.32715 21.3623C4.13443 20.984 4.06259 20.5905 4.03028 20.1953C3.99893 19.8116 4 19.3433 4 18.7998V6.2002C4.00001 5.65665 3.99893 5.18835 4.03028 4.80469C4.06259 4.40945 4.13442 4.01598 4.32715 3.6377C4.6147 3.07354 5.07357 2.61473 5.6377 2.32715C6.01589 2.13447 6.40955 2.06259 6.80469 2.03027C7.1883 1.99894 7.65677 2 8.2002 2H9.35645C10.0849 1.35808 11.0245 1.00004 12.001 1ZM12.001 3C11.5368 3.00003 11.0884 3.16145 10.7324 3.45312L10.5859 3.58594C10.2298 3.94225 10.0226 4.42255 10.0049 4.93066C10.0041 4.95341 10.0033 4.97638 10.001 4.99902V5.99805L10.0283 6H14.001V5C14.001 4.5362 13.8397 4.08852 13.5479 3.73242L13.415 3.58594C13.0868 3.25774 12.656 3.05526 12.1982 3.00977L12.001 3Z" fill="oklch(0.3523 0 0 / 1)" class="wd-icon-fill"></path>
<g>
<path d="M20.7578 17.5195C21.023 17.2016 21.4963 17.1588 21.8145 17.4238C22.1323 17.689 22.175 18.1624 21.9102 18.4805L18.5771 22.4805C18.4348 22.6513 18.2233 22.7498 18.001 22.75C17.7786 22.75 17.5673 22.6512 17.4248 22.4805L15.7578 20.4805C15.4927 20.1623 15.5354 19.689 15.8535 19.4238C16.1716 19.159 16.645 19.2016 16.9102 19.5195L18 20.8281L20.7578 17.5195Z" fill="oklch(0.3523 0 0 / 1)" class="wd-icon-accent"></path>
<path d="M12 14.25C12.4142 14.25 12.75 14.5858 12.75 15C12.75 15.4142 12.4142 15.75 12 15.75H9C8.58579 15.75 8.25 15.4142 8.25 15C8.25 14.5858 8.58579 14.25 9 14.25H12Z" fill="oklch(0.3523 0 0 / 1)" class="wd-icon-accent"></path>
<path d="M15 11.25C15.4142 11.25 15.75 11.5858 15.75 12C15.75 12.4142 15.4142 12.75 15 12.75H9C8.58579 12.75 8.25 12.4142 8.25 12C8.25 11.5858 8.58579 11.25 9 11.25H15Z" fill="oklch(0.3523 0 0 / 1)" class="wd-icon-accent"></path>
</g>
</svg>