<svg width="24" height="24" viewBox="0 0 24 24" xmlns="http://www.w3.org/2000/svg" class="wd-icon wd-icon-cloud-settings" role="presentation">
<g>
<path d="M15.5 12C15.638 12 15.7744 12.0079 15.9082 12.0234C16.2725 12.0659 16.3764 12.5011 16.1172 12.7607L14.6523 14.2275C14.552 14.328 14.4959 14.4671 14.5176 14.6074C14.5883 15.0626 14.7988 15.5009 15.1494 15.8516C15.5 16.2021 15.9376 16.4126 16.3926 16.4834C16.5332 16.5052 16.6729 16.4493 16.7734 16.3486L18.2383 14.8838C18.4979 14.6241 18.934 14.7281 18.9766 15.0928C18.9921 15.2263 19 15.3622 19 15.5C19 17.433 17.433 19 15.5 19C15.1867 19 14.8827 18.9591 14.5938 18.8818C14.4153 18.8342 14.2263 18.9016 14.0957 19.0322L10.5605 22.5674C9.97477 23.1532 9.02524 23.1532 8.43945 22.5674C7.85367 21.9816 7.85367 21.0321 8.43945 20.4463L11.9746 16.9111C12.1036 16.7821 12.1685 16.5932 12.1211 16.417C12.0422 16.1248 12 15.8171 12 15.5C12 13.567 13.567 12 15.5 12Z" fill="oklch(0.3523 0 0 / 1)" class="wd-icon-fill"></path>
<path d="M9.5 4C11.2349 4 12.7794 4.8048 13.7861 6.05664C14.019 6.01944 14.2575 6 14.5 6C16.4812 6 18.1604 7.27999 18.7617 9.05762C20.8877 9.38257 22.5707 11.0469 22.9277 13.1621C22.9316 13.1852 22.9359 13.2082 22.9395 13.2314C22.9479 13.2859 22.9553 13.3405 22.9619 13.3955C22.9655 13.4248 22.9696 13.454 22.9727 13.4834C22.9901 13.6533 23 13.8255 23 14L22.9922 14.2725C22.9581 14.9045 22.8058 15.5071 22.5576 16.0566C22.4438 16.308 22.1354 16.3883 21.8965 16.25L21.0312 15.75C20.7925 15.6117 20.7162 15.3065 20.8125 15.0479C20.9337 14.7224 21 14.3695 21 14C21 13.7592 20.9682 13.5264 20.915 13.3027C20.6004 11.9825 19.4165 11 18 11C17.9754 11 17.9795 10.9999 17.9727 11L17.0977 11.0078L16.9736 10.1416C16.8004 8.93079 15.7583 8 14.5 8C14.2136 8 13.9403 8.04751 13.6865 8.13477L12.9199 8.39844L12.5039 7.7041C11.8905 6.68122 10.7743 6 9.5 6C7.567 6 6 7.567 6 9.5C6 9.65929 6.01224 9.81902 6.03418 9.97949L6.15527 10.8721L5.28125 11.0859C3.97096 11.4077 3 12.5919 3 14C3 15.6569 4.34315 17 6 17H7.5C7.77614 17 8 17.2239 8 17.5V18.5C8 18.7761 7.77614 19 7.5 19H6C3.23858 19 1 16.7614 1 14C1 11.948 2.23522 10.186 4.00195 9.41504C4.04737 6.41666 6.49081 4 9.5 4Z" fill="oklch(0.3523 0 0 / 1)" class="wd-icon-fill"></path>
</g>
</svg>