<svg width="24" height="24" viewBox="0 0 24 24" xmlns="http://www.w3.org/2000/svg" class="wd-icon wd-icon-document-download" role="presentation">
<g>
<path d="M18.5 1C19.3284 1 20 1.67157 20 2.5V10.5C20 10.7761 19.7761 11 19.5 11H18.5C18.2239 11 18 10.7761 18 10.5V3H6V21H12.5C12.7761 21 13 21.2239 13 21.5V22.5C13 22.7761 12.7761 23 12.5 23H5.5C4.67157 23 4 22.3284 4 21.5V2.5C4 1.67157 4.67157 1 5.5 1H18.5Z" fill="oklch(0.3523 0 0 / 1)" class="wd-icon-fill"></path>
<path d="M18.5 13C18.7759 13.0002 18.9998 13.2241 19 13.5V19.8906L21.4795 17.8613C21.6931 17.6867 22.0077 17.7182 22.1826 17.9316L22.8164 18.7061C22.9907 18.9197 22.9595 19.2344 22.7461 19.4092L18.6328 22.7754C18.4025 22.9633 18.1085 23.0337 17.8311 22.9863C17.6649 22.9581 17.5041 22.8871 17.3662 22.7744L13.2539 19.4082C13.0406 19.2334 13.0092 18.9187 13.1836 18.7051L13.5 18.3184L13.8154 17.9316C13.9902 17.7178 14.3057 17.6865 14.5195 17.8613L17 19.8906V13.5C17.0002 13.2241 17.2241 13.0002 17.5 13H18.5Z" fill="oklch(0.3523 0 0 / 1)" class="wd-icon-fill"></path>
<path d="M12.5 8C12.7761 8 13 8.22386 13 8.5V9.5C13 9.77614 12.7761 10 12.5 10H8.5C8.22386 10 8 9.77614 8 9.5V8.5C8 8.22386 8.22386 8 8.5 8H12.5Z" fill="oklch(0.3523 0 0 / 1)" class="wd-icon-fill"></path>
<path d="M15.5 5C15.7761 5 16 5.22386 16 5.5V6.5C16 6.77614 15.7761 7 15.5 7H8.5C8.22386 7 8 6.77614 8 6.5V5.5C8 5.22386 8.22386 5 8.5 5H15.5Z" fill="oklch(0.3523 0 0 / 1)" class="wd-icon-fill"></path>
</g>
</svg>