<svg width="24" height="24" viewBox="0 0 24 24" xmlns="http://www.w3.org/2000/svg" class="wd-icon wd-icon-lightbulb" role="presentation">
<g>
<path d="M12.5 6.25C14.2949 6.25 15.75 7.70507 15.75 9.5C15.75 9.91421 15.4142 10.25 15 10.25C14.5858 10.25 14.25 9.91421 14.25 9.5C14.25 8.5335 13.4665 7.75 12.5 7.75C12.0858 7.75 11.75 7.41421 11.75 7C11.75 6.58579 12.0858 6.25 12.5 6.25Z" fill="oklch(0.3523 0 0 / 1)" class="wd-icon-fill"></path>
<path d="M12 3C15.866 3 19 6.13401 19 10C19 11.8657 18.2685 13.5621 17.0791 14.8154C16.4023 15.5285 16 16.2409 16 16.9258V18C16 20.2091 14.2091 22 12 22C9.79086 22 8 20.2091 8 18V16.9258C8 16.2409 7.59769 15.5285 6.9209 14.8154C5.73147 13.5621 5 11.8657 5 10C5 6.13401 8.13401 3 12 3ZM10 18C10 19.1046 10.8954 20 12 20C13.1046 20 14 19.1046 14 18V17.5H10V18ZM12 5C9.23858 5 7 7.23858 7 10C7 11.333 7.52088 12.5416 8.37207 13.4385C8.99313 14.0929 9.63256 14.9603 9.88574 16H14.1143C14.3674 14.9603 15.0069 14.0929 15.6279 13.4385C16.4791 12.5416 17 11.333 17 10C17 7.23858 14.7614 5 12 5Z" fill="oklch(0.3523 0 0 / 1)" class="wd-icon-fill"></path>
</g>
</svg>