<svg width="24" height="24" viewBox="0 0 24 24" xmlns="http://www.w3.org/2000/svg" class="wd-icon wd-icon-calendar-day-3" role="presentation">
<g>
<path d="M13.085 10.5127C13.5286 10.5129 13.8893 10.8728 13.8897 11.3164C13.8897 11.5212 13.8112 11.719 13.6709 11.8682L12.5527 13.0527C12.7482 13.0911 12.934 13.1568 13.1084 13.251L13.2314 13.3213C13.5096 13.4946 13.7334 13.729 13.9004 14.0205L13.9688 14.1475C14.1162 14.4493 14.1865 14.7908 14.1865 15.1641C14.1865 15.5627 14.0962 15.9454 13.918 16.3086L13.917 16.3105C13.7334 16.6776 13.4578 16.9753 13.0977 17.2022C12.7263 17.436 12.2843 17.5468 11.7852 17.5469C11.341 17.5468 10.9376 17.466 10.5811 17.2979L10.5791 17.2969C10.2294 17.1288 9.94394 16.8877 9.72656 16.5752L9.72266 16.5703C9.61421 16.4059 9.52986 16.2274 9.46875 16.0361C9.39663 15.81 9.45908 15.5913 9.59278 15.4365C9.72351 15.2854 9.92156 15.1925 10.1348 15.1924C10.5285 15.1926 10.7938 15.4982 10.916 15.7686C10.9643 15.8753 11.032 15.9695 11.1201 16.0527C11.2813 16.1994 11.4976 16.2812 11.7939 16.2813C11.9851 16.2812 12.1453 16.2355 12.2813 16.1494L12.2852 16.1475C12.4297 16.0587 12.5381 15.9384 12.6133 15.7832L12.6152 15.7813C12.6984 15.6148 12.7412 15.4279 12.7412 15.2178C12.7412 14.883 12.6488 14.6433 12.4863 14.4717L12.4834 14.4688C12.3294 14.3017 12.1131 14.2081 11.8037 14.208C11.6919 14.208 11.59 14.2249 11.498 14.2578C11.2426 14.3493 10.8523 14.3622 10.6143 14.0703C10.4094 13.8187 10.4227 13.4538 10.6455 13.2178L11.9971 11.7871H10.2647C9.91285 11.7871 9.62696 11.5012 9.62696 11.1494C9.62729 10.7979 9.91305 10.5127 10.2647 10.5127H13.085Z" fill="oklch(0.3523 0 0 / 1)" class="wd-icon-fill"></path>
<path d="M16.2012 2C17.0247 2 17.7026 1.99898 18.2529 2.04395C18.815 2.08988 19.3321 2.18828 19.8174 2.43555C20.5699 2.81902 21.182 3.43109 21.5654 4.1836C21.8127 4.6689 21.9111 5.18599 21.957 5.74805C22.002 6.29843 22.001 6.97632 22.001 7.79981V16.2002C22.001 17.0237 22.002 17.7016 21.957 18.252C21.9111 18.814 21.8127 19.3311 21.5654 19.8164C21.182 20.5689 20.5699 21.181 19.8174 21.5645C19.3321 21.8117 18.815 21.9101 18.2529 21.9561C17.7026 22.001 17.0247 22 16.2012 22H7.80078C6.9773 22 6.2994 22.001 5.74903 21.9561C5.18697 21.9101 4.66988 21.8117 4.18457 21.5645C3.43207 21.181 2.81999 20.5689 2.43653 19.8164C2.18925 19.3311 2.09085 18.814 2.04492 18.252C1.99996 17.7016 2.00098 17.0237 2.00098 16.2002V7.79981C2.00098 6.97632 1.99996 6.29843 2.04492 5.74805C2.09085 5.18599 2.18925 4.6689 2.43653 4.1836C2.81999 3.43109 3.43207 2.81902 4.18457 2.43555C4.66988 2.18827 5.18697 2.08988 5.74903 2.04395C6.2994 1.99898 6.9773 2 7.80078 2H16.2012ZM4.00098 16.2002C4.00098 17.0566 4.00133 17.6388 4.03809 18.0889C4.07391 18.5273 4.13906 18.7518 4.21875 18.9082C4.41049 19.2845 4.71652 19.5905 5.09278 19.7822C5.24917 19.8619 5.4737 19.9271 5.91211 19.9629C6.36215 19.9997 6.9444 20 7.80078 20H16.2012C17.0576 20 17.6398 19.9997 18.0898 19.9629C18.5283 19.9271 18.7528 19.8619 18.9092 19.7822C19.2854 19.5905 19.5915 19.2845 19.7832 18.9082C19.8629 18.7518 19.928 18.5273 19.9639 18.0889C20.0006 17.6388 20.001 17.0566 20.001 16.2002V8H4.00098V16.2002Z" fill="oklch(0.3523 0 0 / 1)" class="wd-icon-fill"></path>
</g>
</svg>