<svg width="24" height="24" viewBox="0 0 24 24" xmlns="http://www.w3.org/2000/svg" class="wd-icon wd-icon-merge-down" role="presentation">
<path d="M18.2929 4.29387C18.6834 3.90335 19.3164 3.90335 19.707 4.29387C20.0973 4.68441 20.0974 5.31747 19.707 5.70793L13.2929 12.122C13.1054 12.3095 13 12.5639 12.9999 12.829V17.5859L14.2929 16.2929C14.6834 15.9027 15.3165 15.9025 15.707 16.2929C16.0974 16.6833 16.0972 17.3164 15.707 17.707L12.707 20.707C12.3164 21.0974 11.6834 21.0975 11.2929 20.707L8.29289 17.707C7.90241 17.3164 7.90243 16.6834 8.29289 16.2929C8.68343 15.9026 9.31651 15.9025 9.70696 16.2929L10.9999 17.5859V12.829C10.9999 12.699 11.0107 12.5699 11.0273 12.4423L4.29289 5.70793C3.90237 5.31741 3.90237 4.68439 4.29289 4.29387C4.68342 3.90335 5.31643 3.90335 5.70696 4.29387L11.9999 10.5868L18.2929 4.29387Z" fill="oklch(0.3523 0 0 / 1)" class="wd-icon-fill"></path>
</svg>