<svg width="24" height="24" viewBox="0 0 24 24" xmlns="http://www.w3.org/2000/svg" class="wd-icon wd-icon-chevron-2x-right" role="presentation">
<g>
<path d="M5.29289 5.29289C5.68341 4.90237 6.31643 4.90237 6.70695 5.29289L12.707 11.2929C13.0975 11.6834 13.0975 12.3164 12.707 12.707L6.70695 18.707C6.31643 19.0975 5.68341 19.0975 5.29289 18.707C4.90237 18.3164 4.90237 17.6834 5.29289 17.2929L10.5859 11.9999L5.29289 6.70696C4.90237 6.31643 4.90237 5.68342 5.29289 5.29289Z" fill="oklch(0.3523 0 0 / 1)" class="wd-icon-fill"></path>
<path d="M11.7929 5.29289C12.1834 4.90237 12.8164 4.90237 13.207 5.29289L19.207 11.2929C19.5975 11.6834 19.5975 12.3164 19.207 12.707L13.207 18.707C12.8164 19.0975 12.1834 19.0975 11.7929 18.707C11.4024 18.3164 11.4024 17.6834 11.7929 17.2929L17.0859 11.9999L11.7929 6.70696C11.4024 6.31643 11.4024 5.68342 11.7929 5.29289Z" fill="oklch(0.3523 0 0 / 1)" class="wd-icon-fill"></path>
</g>
</svg>