<svg width="24" height="24" viewBox="0 0 24 24" xmlns="http://www.w3.org/2000/svg" class="wd-icon wd-icon-document-survey" role="presentation">
<path d="M14.2002 3C15.0566 3 15.6388 3.00035 16.0889 3.03711C16.5272 3.07292 16.7518 3.13811 16.9082 3.21777C17.2843 3.40948 17.5905 3.71566 17.7822 4.0918C17.8619 4.24816 17.9271 4.47306 17.9629 4.91113C17.9996 5.36109 18 5.9437 18 6.7998V17.2002C18 18.0563 17.9996 18.6389 17.9629 19.0889C17.9271 19.5269 17.8619 19.7518 17.7822 19.9082C17.5905 20.2843 17.2843 20.5905 16.9082 20.7822C16.7518 20.8619 16.5272 20.9271 16.0889 20.9629C15.6388 20.9996 15.0566 21 14.2002 21H9.7998C8.94343 21 8.36117 20.9996 7.91113 20.9629C7.47282 20.9271 7.24819 20.8619 7.0918 20.7822C6.71565 20.5905 6.4095 20.2843 6.21777 19.9082C6.13814 19.7518 6.07292 19.5269 6.03711 19.0889C6.00037 18.6389 6 18.0563 6 17.2002V6.7998C6 5.9437 6.00037 5.36109 6.03711 4.91113C6.07292 4.47306 6.13814 4.24816 6.21777 4.0918C6.4095 3.71567 6.71565 3.40948 7.0918 3.21777C7.24819 3.13811 7.47282 3.07292 7.91113 3.03711C8.36117 3.00035 8.94343 3 9.7998 3H14.2002ZM8.25 17.25C7.83579 17.25 7.5 17.5858 7.5 18C7.5 18.4142 7.83579 18.75 8.25 18.75H13.75C14.1642 18.75 14.5 18.4142 14.5 18C14.5 17.5858 14.1642 17.25 13.75 17.25H8.25ZM8.25 14.25C7.83579 14.25 7.5 14.5858 7.5 15C7.5 15.4142 7.83579 15.75 8.25 15.75H15.75C16.1642 15.75 16.5 15.4142 16.5 15C16.5 14.5858 16.1642 14.25 15.75 14.25H8.25ZM15.707 6.29297C15.3165 5.90261 14.6835 5.90261 14.293 6.29297L11 9.58594L9.70703 8.29297C9.31652 7.90259 8.68346 7.90255 8.29297 8.29297C7.90261 8.68346 7.90261 9.31654 8.29297 9.70703L10.293 11.707C10.6835 12.0973 11.3166 12.0974 11.707 11.707L15.707 7.70703C16.0974 7.31656 16.0973 6.68347 15.707 6.29297Z" fill="transparent" class="wd-icon-background"></path>
<path d="M14.2002 1C15.0236 1 15.7016 0.998985 16.252 1.04395C16.8139 1.08988 17.3312 1.18834 17.8164 1.43555C18.5687 1.81899 19.181 2.43125 19.5645 3.1836C19.8116 3.66876 19.9101 4.18617 19.9561 4.74805C20.001 5.29834 20 5.97653 20 6.79981V17.2002C20 18.0235 20.001 18.7017 19.9561 19.252C19.9101 19.8139 19.8116 20.3312 19.5645 20.8164C19.181 21.5688 18.5688 22.181 17.8164 22.5645C17.3312 22.8117 16.8139 22.9101 16.252 22.9561C15.7016 23.001 15.0236 23 14.2002 23H9.79981C8.97642 23 8.29839 23.001 7.74805 22.9561C7.18609 22.9101 6.66883 22.8116 6.1836 22.5645C5.43121 22.181 4.81901 21.5688 4.43555 20.8164C4.18838 20.3312 4.08988 19.8139 4.04395 19.252C3.999 18.7017 4 18.0235 4 17.2002V6.79981C4 5.97651 3.999 5.29834 4.04395 4.74805C4.08988 4.18611 4.18834 3.66881 4.43555 3.1836C4.81902 2.43118 5.43115 1.81898 6.1836 1.43555C6.66885 1.18834 7.18606 1.08987 7.74805 1.04395C8.29839 0.998996 8.97641 1 9.79981 1H14.2002ZM9.79981 3C8.94354 3 8.36115 3.00037 7.91113 3.03711C7.47288 3.07292 7.24819 3.13813 7.0918 3.21778C6.71561 3.40948 6.40952 3.71563 6.21778 4.0918C6.13812 4.24817 6.07293 4.47295 6.03711 4.91113C6.00037 5.36111 6 5.94366 6 6.79981V17.2002C6 18.0563 6.00037 18.6389 6.03711 19.0889C6.07292 19.527 6.13814 19.7518 6.21778 19.9082C6.4095 20.2843 6.71567 20.5905 7.0918 20.7822C7.24819 20.8619 7.47295 20.9271 7.91113 20.9629C8.36114 20.9996 8.94355 21 9.79981 21H14.2002C15.0565 21 15.6389 20.9997 16.0889 20.9629C16.5272 20.9271 16.7518 20.8619 16.9082 20.7822C17.2844 20.5905 17.5905 20.2844 17.7822 19.9082C17.8619 19.7518 17.9271 19.527 17.9629 19.0889C17.9996 18.6389 18 18.0563 18 17.2002V6.79981C18 5.94368 17.9996 5.3611 17.9629 4.91113C17.9271 4.47309 17.8619 4.24816 17.7822 4.0918C17.5905 3.71571 17.2843 3.40948 16.9082 3.21778C16.7518 3.13812 16.5271 3.07293 16.0889 3.03711C15.6389 3.00036 15.0565 3 14.2002 3H9.79981Z" fill="oklch(0.3523 0 0 / 1)" class="wd-icon-fill"></path>
<g>
<path d="M13.75 17.2499C14.1642 17.2499 14.5 17.5856 14.5 17.9999C14.4999 18.414 14.1641 18.7499 13.75 18.7499H8.25C7.83585 18.7499 7.50011 18.414 7.5 17.9999C7.5 17.5856 7.83579 17.2499 8.25 17.2499H13.75Z" fill="oklch(0.3523 0 0 / 1)" class="wd-icon-accent"></path>
<path d="M15.75 14.2499C16.1642 14.2499 16.5 14.5856 16.5 14.9999C16.4999 15.414 16.1641 15.7499 15.75 15.7499H8.25C7.83585 15.7499 7.50011 15.414 7.5 14.9999C7.5 14.5856 7.83579 14.2499 8.25 14.2499H15.75Z" fill="oklch(0.3523 0 0 / 1)" class="wd-icon-accent"></path>
<path d="M14.293 6.29282C14.6835 5.90243 15.3165 5.90236 15.707 6.29282C16.0973 6.68332 16.0974 7.31641 15.707 7.70688L11.707 11.7069C11.3166 12.0971 10.6834 12.0971 10.293 11.7069L8.29297 9.70688C7.90254 9.31643 7.90268 8.68336 8.29297 8.29282C8.68349 7.90236 9.31653 7.90234 9.70703 8.29282L11 9.58579L14.293 6.29282Z" fill="oklch(0.3523 0 0 / 1)" class="wd-icon-accent"></path>
</g>
</svg>