<svg width="24" height="24" viewBox="0 0 24 24" xmlns="http://www.w3.org/2000/svg" class="wd-icon wd-icon-font-erase" role="presentation">
<g>
<path d="M16.3386 19.4037C15.8432 19.8985 15.5987 20.1309 15.4216 20.2543H14.1335C13.9529 20.1285 13.702 19.8902 13.1863 19.3744C12.8498 19.0379 12.6236 18.8113 12.4607 18.6244C12.3025 18.443 12.2408 18.3383 12.2087 18.2611C12.082 17.9552 12.0822 17.6112 12.2087 17.305C12.2407 17.2279 12.3026 17.1232 12.4607 16.9418C12.6187 16.7605 12.836 16.5411 13.156 16.2211L16.3386 19.4037Z" fill="transparent" class="wd-icon-background"></path>
<path d="M17.1277 12.3861C17.4337 12.2593 17.7774 12.2593 18.0837 12.3861C18.161 12.4181 18.2653 12.4797 18.447 12.6381C18.6339 12.801 18.8605 13.0271 19.197 13.3636C19.5336 13.7002 19.7595 13.9268 19.9226 14.1136C20.0803 14.2944 20.1425 14.3981 20.1745 14.475C20.3012 14.7811 20.3013 15.1268 20.1745 15.433C20.1425 15.5099 20.0806 15.6142 19.9226 15.7953C19.8411 15.8887 19.7435 15.9927 19.6247 16.1146L19.197 16.5453L17.3991 18.3431L14.2165 15.1605L16.0144 13.3636C16.3507 13.0273 16.5775 12.801 16.7644 12.6381C16.9457 12.48 17.0504 12.4182 17.1277 12.3861Z" fill="transparent" class="wd-icon-background"></path>
</g>
<path d="M6.97867 2.01367C7.6366 2.01367 8.2271 2.4041 8.48844 2.99902L8.53629 3.12012L11.8634 12.6709C12.045 13.1924 11.7687 13.7627 11.2472 13.9443C10.7259 14.1256 10.1565 13.8503 9.97476 13.3291L9.16129 10.9951C9.1311 10.9979 9.1004 11 9.06949 11H4.85172C4.83268 11 4.81385 10.9981 4.79508 10.9971L3.98355 13.3291C3.80179 13.8505 3.23158 14.126 2.71012 13.9443C2.18886 13.7626 1.91345 13.1923 2.09488 12.6709L5.42203 3.12012L5.46988 2.99902C5.73119 2.40432 6.32099 2.01385 6.97867 2.01367ZM5.49137 9H8.46695L6.97867 4.72949L5.49137 9Z" fill="oklch(0.3523 0 0 / 1)" class="wd-icon-fill"></path>
<path d="M16.5537 10.9993C17.2275 10.7202 17.9846 10.7204 18.6582 10.9993C18.9484 11.1195 19.193 11.2992 19.4326 11.5081C19.6672 11.7126 19.9356 11.9808 20.2578 12.303C20.5798 12.6249 20.8483 12.893 21.0527 13.1272C21.2615 13.3665 21.4402 13.6114 21.5605 13.9016C21.8395 14.5753 21.8405 15.3334 21.5615 16.0071C21.4412 16.2974 21.2615 16.5422 21.0527 16.7815C20.9506 16.8986 20.832 17.024 20.6992 17.1604L20.2578 17.6057L17.4297 20.4348C17.4077 20.4568 17.3859 20.4786 17.3643 20.5003H21.25C21.6642 20.5003 22 20.836 22 21.2503C21.9999 21.6643 21.6641 22.0003 21.25 22.0003H9.75C9.33588 22.0003 9.00015 21.6643 9 21.2503C9 20.836 9.33579 20.5003 9.75 20.5003H12.1914C12.1698 20.4786 12.148 20.4568 12.126 20.4348C11.8038 20.1127 11.5355 19.8442 11.3311 19.6096C11.1222 19.3701 10.9425 19.1253 10.8223 18.8352C10.5433 18.1616 10.5436 17.4042 10.8223 16.7307C10.9424 16.4406 11.1222 16.1959 11.3311 15.9563C11.5355 15.7218 11.8038 15.4533 12.126 15.1311L14.9541 12.303C15.2763 11.9808 15.5447 11.7126 15.7793 11.5081C16.0189 11.2992 16.2635 11.1195 16.5537 10.9993ZM13.1562 16.221C12.8361 16.5411 12.619 16.7603 12.4609 16.9417C12.3027 17.1233 12.241 17.2277 12.209 17.3049C12.0824 17.6111 12.0823 17.955 12.209 18.261C12.241 18.3382 12.3028 18.4428 12.4609 18.6243C12.6239 18.8112 12.8501 19.0378 13.1865 19.3743C13.7023 19.8901 13.9532 20.1284 14.1338 20.2542H15.4219C15.599 20.1308 15.8427 19.8983 16.3379 19.4036L13.1562 16.221ZM18.084 12.386C17.7777 12.2592 17.4341 12.2592 17.1279 12.386C17.0507 12.418 16.9463 12.4796 16.7646 12.638C16.5777 12.8009 16.3511 13.0271 16.0146 13.3635L14.2168 15.1604L17.3984 18.343L19.1973 16.5452L19.625 16.1145C19.7439 15.9925 19.8413 15.8886 19.9229 15.7952C20.0811 15.6139 20.1428 15.5098 20.1748 15.4329C20.3016 15.1267 20.3015 14.782 20.1748 14.4758C20.1428 14.399 20.0805 14.2943 19.9229 14.1135C19.7598 13.9267 19.5338 13.7001 19.1973 13.3635C18.8608 13.0271 18.6342 12.8009 18.4473 12.638C18.2656 12.4796 18.1612 12.418 18.084 12.386Z" fill="oklch(0.3523 0 0 / 1)" class="wd-icon-accent"></path>
</svg>