<svg width="24" height="24" viewBox="0 0 24 24" xmlns="http://www.w3.org/2000/svg" class="wd-icon wd-icon-audio-none" role="presentation">
<path d="M10.9248 5.22894C11.548 5.20562 12.1473 5.4742 12.544 5.9555C12.8626 6.34249 12.9365 6.81951 12.9678 7.16742C13.0013 7.53998 13 8.01821 13 8.56293V15.4379C13 15.9827 13.0013 16.4609 12.9678 16.8334C12.9364 17.1814 12.8626 17.6585 12.544 18.0453C12.1473 18.5265 11.5479 18.7952 10.9248 18.7719C10.4237 18.753 10.0182 18.4914 9.73732 18.2836C9.43651 18.0611 9.0802 17.7424 8.67287 17.3803L7.29005 16.1518C7.20025 16.072 7.15484 16.0319 7.12111 16.0043L7.11915 16.0024H7.11622C7.07268 16.0005 7.01218 16.0004 6.89162 16.0004H5.59962C5.33625 16.0004 5.07814 16.0015 4.86134 15.9838C4.63288 15.9651 4.36302 15.9208 4.09181 15.7827C3.71567 15.591 3.40953 15.2847 3.21779 14.9086C3.07966 14.6375 3.03533 14.3675 3.01662 14.1391C2.99891 13.9224 3.00001 13.6641 3.00001 13.4008V10.6C3.00001 10.3368 2.99894 10.0785 3.01662 9.86175C3.0353 9.63335 3.07972 9.36336 3.21779 9.09222C3.40949 8.71604 3.71565 8.40994 4.09181 8.2182C4.36304 8.08 4.63285 8.03573 4.86134 8.01703C5.07814 7.99931 5.33625 8.00043 5.59962 8.00043H6.89162C7.01214 8.00043 7.07268 8.00032 7.11622 7.99847L7.11915 7.9975L7.12111 7.99652C7.15483 7.96902 7.20024 7.92889 7.29005 7.84906L8.67287 6.62054C9.08018 6.25849 9.43651 5.93977 9.73732 5.71722C10.0182 5.50943 10.4236 5.24785 10.9248 5.22894ZM10.9268 7.32562C10.7157 7.48181 10.4379 7.72635 10.001 8.11468L8.61915 9.34418C8.48356 9.46472 8.30685 9.62868 8.09376 9.7475C7.96681 9.81825 7.83233 9.87484 7.69337 9.91644L7.55275 9.95355L7.37404 9.98285C7.19728 10.0036 7.0277 10.0004 6.89162 10.0004H5.59962C5.30337 10.0004 5.14096 10.0016 5.02443 10.0112C5.02036 10.0115 5.0164 10.0118 5.01271 10.0121C5.0123 10.016 5.01111 10.0205 5.01076 10.0248C5.00127 10.1413 5.00001 10.3041 5.00001 10.6V13.4008C5.00002 13.6968 5.00124 13.8595 5.01076 13.976C5.01114 13.98 5.01238 13.9841 5.01271 13.9877C5.01645 13.9881 5.0203 13.9893 5.02443 13.9897C5.14096 13.9992 5.30337 14.0004 5.59962 14.0004H6.89162C7.07311 14.0004 7.31431 13.9945 7.55275 14.0473C7.74209 14.0893 7.92436 14.1589 8.09376 14.2534C8.3069 14.3722 8.48356 14.5361 8.61915 14.6567L10.001 15.8862C10.4379 16.2746 10.7157 16.5191 10.9268 16.6752C10.9409 16.6857 10.9564 16.6929 10.9688 16.7016C10.9704 16.6869 10.974 16.6708 10.9756 16.6537C10.9991 16.3923 11 16.0223 11 15.4379V8.56293C11 7.97861 10.9991 7.60856 10.9756 7.34711C10.974 7.32966 10.9704 7.31324 10.9688 7.29828C10.9563 7.30708 10.9411 7.31504 10.9268 7.32562Z" fill="oklch(0.3523 0 0 / 1)" class="wd-icon-fill"></path>
</svg>