<svg width="24" height="24" viewBox="0 0 24 24" xmlns="http://www.w3.org/2000/svg" class="wd-icon wd-icon-box-text-x" role="presentation">
<path d="M20.5 3C21.3284 3 22 3.67157 22 4.5V13.5C22 13.7761 21.7761 14 21.5 14H20.5C20.2239 14 20 13.7761 20 13.5V5H4V19H13.5C13.7761 19 14 19.2239 14 19.5V20.5C14 20.7761 13.7761 21 13.5 21H3.5C2.67157 21 2 20.3284 2 19.5V4.5C2 3.67157 2.67157 3 3.5 3H20.5Z" fill="oklch(0.3523 0 0 / 1)" class="wd-icon-fill"></path>
<g>
<path d="M20.9414 15.6416C21.1366 15.4464 21.4531 15.4464 21.6484 15.6416L22.3564 16.3486C22.5515 16.5438 22.5515 16.8604 22.3564 17.0557L20.4189 18.9932L22.3633 20.9375C22.5584 21.1328 22.5585 21.4493 22.3633 21.6445L21.6562 22.3516C21.461 22.5467 21.1445 22.5467 20.9492 22.3516L19.0049 20.4072L17.0605 22.3516C16.8653 22.5467 16.5488 22.5467 16.3535 22.3516L15.6465 21.6445C15.4512 21.4493 15.4513 21.1328 15.6465 20.9375L17.5898 18.9922L15.6533 17.0557C15.4581 16.8604 15.4581 16.5439 15.6533 16.3486L16.3604 15.6416C16.5556 15.4464 16.8721 15.4464 17.0674 15.6416L19.0039 17.5781L20.9414 15.6416Z" fill="oklch(0.3523 0 0 / 1)" class="wd-icon-accent"></path>
<path d="M12.5 14C12.7761 14 13 14.2239 13 14.5V15.5C13 15.7761 12.7761 16 12.5 16H7.5C7.22386 16 7 15.7761 7 15.5V14.5C7 14.2239 7.22386 14 7.5 14H12.5Z" fill="oklch(0.3523 0 0 / 1)" class="wd-icon-accent"></path>
<path d="M16.5 11C16.7761 11 17 11.2239 17 11.5V12.5C17 12.7761 16.7761 13 16.5 13H7.5C7.22386 13 7 12.7761 7 12.5V11.5C7 11.2239 7.22386 11 7.5 11H16.5Z" fill="oklch(0.3523 0 0 / 1)" class="wd-icon-accent"></path>
<path d="M16.5 8C16.7761 8 17 8.22386 17 8.5V9.5C17 9.77614 16.7761 10 16.5 10H7.5C7.22386 10 7 9.77614 7 9.5V8.5C7 8.22386 7.22386 8 7.5 8H16.5Z" fill="oklch(0.3523 0 0 / 1)" class="wd-icon-accent"></path>
</g>
</svg>