<svg width="24" height="24" viewBox="0 0 24 24" xmlns="http://www.w3.org/2000/svg" class="wd-icon wd-icon-comment-active" role="presentation">
<path d="M12 2C13.1538 2 14.2647 2.17575 15.2998 2.50098C15.8267 2.66651 16.1196 3.22802 15.9541 3.75488C15.7886 4.28178 15.2271 4.57472 14.7002 4.40918C13.8587 4.14481 12.95 4 12 4C7.46774 4 4 7.24148 4 11C4 13.1945 5.16038 15.1881 7.04102 16.4912C7.31064 16.678 7.47167 16.9855 7.47168 17.3135C7.47168 18.0059 7.41145 18.8842 7.27051 19.7217C7.64008 19.6863 8.0525 19.627 8.4834 19.5303C9.49423 19.3034 10.5396 18.8952 11.3711 18.2227L11.5127 18.127C11.6609 18.0443 11.8284 18 12 18C16.5323 18 20 14.7585 20 11C20 10.4051 19.9152 9.82864 19.7559 9.27832C19.6023 8.74783 19.908 8.19267 20.4385 8.03906C20.9688 7.88564 21.5231 8.19141 21.6768 8.72168C21.8876 9.44979 22 10.2137 22 11C22 15.9688 17.6041 19.8274 12.3477 19.9912C11.2635 20.7833 10.024 21.235 8.92188 21.4824C7.723 21.7515 6.61962 21.7956 5.92969 21.7471C5.62071 21.7253 5.33962 21.5616 5.16797 21.3037C4.99636 21.0458 4.95355 20.7231 5.05273 20.4297C5.28915 19.7301 5.42265 18.7021 5.45996 17.8096C3.36367 16.1774 2 13.7479 2 11C2 5.92196 6.59113 2 12 2Z" fill="oklch(0.3523 0 0 / 1)" class="wd-icon-fill"></path>
<g>
<path d="M12 12C12.4142 12 12.75 12.3358 12.75 12.75C12.75 13.1642 12.4142 13.5 12 13.5H8C7.58579 13.5 7.25 13.1642 7.25 12.75C7.25 12.3358 7.58579 12 8 12H12Z" fill="oklch(0.3523 0 0 / 1)" class="wd-icon-accent"></path>
<path d="M16 9C16.4142 9 16.75 9.33579 16.75 9.75C16.75 10.1642 16.4142 10.5 16 10.5H8C7.58579 10.5 7.25 10.1642 7.25 9.75C7.25 9.33579 7.58579 9 8 9H16Z" fill="oklch(0.3523 0 0 / 1)" class="wd-icon-accent"></path>
<path d="M20 1.75C21.2426 1.75 22.25 2.75736 22.25 4C22.25 5.24264 21.2426 6.25 20 6.25C18.7574 6.25 17.75 5.24264 17.75 4C17.75 2.75736 18.7574 1.75 20 1.75Z" fill="oklch(0.3523 0 0 / 1)" class="wd-icon-accent"></path>
</g>
</svg>