<svg width="24" height="24" viewBox="0 0 24 24" xmlns="http://www.w3.org/2000/svg" class="wd-icon wd-icon-document-sparkle" role="presentation">
<path d="M11.0117 1.00007C11.6978 1.00007 12.2044 0.993513 12.6914 1.11042C13.0994 1.20839 13.4899 1.37069 13.8477 1.58991C14.2746 1.85161 14.6283 2.21432 15.1133 2.69929L19 6.586C19.6402 7.22624 20 8.09467 20 9.00007C20 9.00685 19.9992 9.01382 19.999 9.02057V11.0001C19.999 11.5524 19.5513 12.0001 18.999 12.0001C18.4468 12 17.999 11.5523 17.999 11.0001V10.0001H14C12.8955 10 12 9.10459 12 8.00007V3.02155C11.8142 3.00454 11.5389 3.00007 11.0117 3.00007H9.79983C8.94351 3.00007 8.36117 3.00042 7.91116 3.03718C7.47281 3.073 7.24821 3.13816 7.09182 3.21784C6.71561 3.40955 6.40953 3.71567 6.2178 4.09186C6.13812 4.24824 6.07296 4.47292 6.03713 4.9112C6.00038 5.3612 6.00002 5.9436 6.00002 6.79987V18.5001C6.00002 18.9956 6.0027 19.1473 6.0176 19.2608C6.13575 20.1582 6.84189 20.8643 7.73928 20.9825C7.85283 20.9974 8.00427 21.0001 8.50002 21.0001H11.5C12.0522 21.0001 12.4999 21.4479 12.5 22.0001C12.5 22.5524 12.0523 23.0001 11.5 23.0001H8.50002C8.06745 23.0001 7.75385 23.0023 7.47756 22.9659C5.68298 22.7294 4.27063 21.3171 4.0342 19.5225C3.99786 19.2463 4.00002 18.9326 4.00002 18.5001V6.79987C4.00002 5.97648 3.99901 5.29845 4.04397 4.74811C4.08991 4.18614 4.18833 3.66891 4.43557 3.18366C4.81904 2.43121 5.43116 1.81906 6.18362 1.43561C6.66889 1.18835 7.18606 1.08994 7.74807 1.04401C8.29842 0.999046 8.9764 1.00007 9.79983 1.00007H11.0117ZM13.5 8.00007C13.5 8.27617 13.7239 8.5 14 8.50007H17.9073C17.837 8.31442 17.729 8.14313 17.586 8.00007L13.6992 4.11335C13.6266 4.04068 13.5602 3.97487 13.5 3.91511V8.00007Z" fill="oklch(0.3523 0 0 / 1)" class="wd-icon-fill"></path>
<path d="M18.5 14C18.785 14 19.017 14.2234 19.0674 14.5039C19.3794 16.2461 20.7529 17.6195 22.4951 17.9316C22.7759 17.9819 22.9997 18.2139 23 18.499C23 18.7844 22.776 19.017 22.4951 19.0674C20.7529 19.3797 19.3794 20.7538 19.0674 22.4961C19.017 22.7766 18.785 23 18.5 23C18.215 23 17.983 22.7766 17.9326 22.4961C17.6206 20.7538 16.2471 19.3797 14.5049 19.0674C14.224 19.017 14 18.7844 14 18.499C14.0003 18.2139 14.2241 17.9819 14.5049 17.9316C16.2471 17.6195 17.6206 16.2461 17.9326 14.5039C17.983 14.2234 18.215 14 18.5 14Z" fill="oklch(0.3523 0 0 / 1)" class="wd-icon-accent"></path>
</svg>