<svg width="24" height="24" viewBox="0 0 24 24" xmlns="http://www.w3.org/2000/svg" class="wd-icon wd-icon-edit-sparkle" role="presentation">
<path d="M18.8711 1.04754L19.2383 1.12469C20.0891 1.33698 20.8956 1.77617 21.5596 2.44011C22.3184 3.19896 22.7836 4.144 22.9521 5.12859C23.0378 5.62948 22.8501 6.09874 22.5371 6.41179L7.38867 21.5602C7.10738 21.8414 6.72588 21.9997 6.32812 21.9997H3.5C2.67157 21.9997 2 21.3281 2 20.4997V17.6716C2.00009 17.2739 2.15833 16.8922 2.43945 16.611L17.5879 1.46258L17.7119 1.35125C17.9745 1.14171 18.3163 1.01324 18.6846 1.02801L18.8711 1.04754ZM4 17.8786V19.9997H6.12109L17.8525 8.26629L15.7314 6.14519L4 17.8786ZM17.1455 4.73113L19.2666 6.85222L20.9209 5.1989C20.7896 4.70688 20.5327 4.24137 20.1455 3.85418C19.758 3.4667 19.2923 3.20896 18.7998 3.07781L17.1455 4.73113Z" fill="oklch(0.3523 0 0 / 1)" class="wd-icon-fill"></path>
<path d="M5.5 1C5.77614 1 5.99715 1.22499 6.03125 1.49902C6.25654 3.30913 7.69087 4.74346 9.50098 4.96875C9.77501 5.00285 10 5.22386 10 5.5C10 5.77614 9.77501 5.99715 9.50098 6.03125C7.69087 6.25654 6.25654 7.69087 6.03125 9.50098C5.99715 9.77501 5.77614 10 5.5 10C5.22386 10 5.00285 9.77501 4.96875 9.50098C4.74346 7.69087 3.30913 6.25654 1.49902 6.03125C1.22499 5.99715 1 5.77614 1 5.5C1 5.22386 1.22499 5.00285 1.49902 4.96875C3.30913 4.74346 4.74346 3.30913 4.96875 1.49902C5.00285 1.22499 5.22386 1 5.5 1Z" fill="oklch(0.3523 0 0 / 1)" class="wd-icon-accent"></path>
</svg>