<svg width="24" height="24" viewBox="0 0 24 24" xmlns="http://www.w3.org/2000/svg" class="wd-icon wd-icon-document-zip" role="presentation">
<g>
<path d="M11.9976 18H10.7476C10.3335 17.9998 9.99756 17.6641 9.99756 17.25C9.99756 16.8359 10.3335 16.5002 10.7476 16.5H11.9976V18Z" fill="oklch(0.3523 0 0 / 1)" class="wd-icon-fill"></path>
<path d="M13.2476 15C13.6618 15 13.9976 15.3358 13.9976 15.75C13.9976 16.1642 13.6618 16.5 13.2476 16.5H11.9976V15H13.2476Z" fill="oklch(0.3523 0 0 / 1)" class="wd-icon-fill"></path>
<path d="M11.9976 15H10.7476C10.3335 14.9998 9.99756 14.6641 9.99756 14.25C9.99756 13.8359 10.3335 13.5002 10.7476 13.5H11.9976V15Z" fill="oklch(0.3523 0 0 / 1)" class="wd-icon-fill"></path>
<path d="M13.2476 12C13.6618 12 13.9976 12.3358 13.9976 12.75C13.9976 13.1642 13.6618 13.5 13.2476 13.5H11.9976V12H13.2476Z" fill="oklch(0.3523 0 0 / 1)" class="wd-icon-fill"></path>
<path d="M11.9976 12H10.7476C10.3335 11.9998 9.99756 11.6641 9.99756 11.25C9.99756 10.8359 10.3335 10.5002 10.7476 10.5H11.9976V12Z" fill="oklch(0.3523 0 0 / 1)" class="wd-icon-fill"></path>
<path d="M13.2476 9C13.6618 9 13.9976 9.33579 13.9976 9.75C13.9976 10.1642 13.6618 10.5 13.2476 10.5H11.9976V9H13.2476Z" fill="oklch(0.3523 0 0 / 1)" class="wd-icon-fill"></path>
<path d="M11.9995 0C12.685 0.000138419 13.2858 0.404546 13.561 1H14.1978C15.0211 1 15.6992 0.999002 16.2495 1.04395C16.8115 1.08987 17.3287 1.18836 17.814 1.43555C18.5664 1.81898 19.1785 2.43118 19.562 3.18359C19.8092 3.66881 19.9077 4.18611 19.9536 4.74805C19.9986 5.29833 19.9976 5.97653 19.9976 6.7998V17.2002C19.9976 18.0235 19.9986 18.7017 19.9536 19.252C19.9077 19.8138 19.8092 20.3312 19.562 20.8164C19.1786 21.5687 18.5663 22.181 17.814 22.5645C17.3288 22.8116 16.8114 22.9101 16.2495 22.9561C15.6992 23.001 15.0211 23 14.1978 23H9.79737C8.97401 23 8.29592 23.001 7.74561 22.9561C7.18366 22.9101 6.66637 22.8117 6.18115 22.5645C5.42878 22.181 4.81654 21.5688 4.43311 20.8164C4.18594 20.3312 4.08744 19.8139 4.04151 19.252C3.99656 18.7017 3.99756 18.0235 3.99756 17.2002V6.7998C3.99756 5.97656 3.99656 5.29833 4.04151 4.74805C4.08743 4.1862 4.18598 3.66874 4.43311 3.18359C4.81653 2.43129 5.42886 1.81899 6.18115 1.43555C6.66634 1.18835 7.18371 1.08988 7.74561 1.04395C8.29592 0.998985 8.97402 1 9.79737 1H10.439C10.7141 0.404618 11.314 0.000115273 11.9995 0ZM9.79737 3C8.94115 3 8.35868 3.00035 7.90869 3.03711C7.47058 3.07293 7.24572 3.13813 7.08936 3.21777C6.71332 3.40949 6.40702 3.71574 6.21533 4.0918C6.13573 4.24815 6.07047 4.47317 6.03467 4.91113C5.99793 5.36109 5.99756 5.94372 5.99756 6.7998V17.2002C5.99756 18.0563 5.99793 18.6389 6.03467 19.0889C6.07048 19.527 6.1357 19.7518 6.21533 19.9082C6.40703 20.2843 6.71324 20.5905 7.08936 20.7822C7.24572 20.8619 7.47047 20.9271 7.90869 20.9629C8.35868 20.9996 8.94114 21 9.79737 21H14.1978C15.0539 21 15.6364 20.9996 16.0864 20.9629C16.5245 20.9271 16.7494 20.8618 16.9058 20.7822C17.2819 20.5905 17.5881 20.2843 17.7798 19.9082C17.8594 19.7518 17.9246 19.5269 17.9605 19.0889C17.9972 18.6389 17.9976 18.0563 17.9976 17.2002V6.7998C17.9976 5.94368 17.9972 5.3611 17.9605 4.91113C17.9246 4.47294 17.8594 4.24816 17.7798 4.0918C17.588 3.71563 17.282 3.40947 16.9058 3.21777C16.7494 3.13814 16.5246 3.07291 16.0864 3.03711C15.6364 3.00037 15.054 3 14.1978 3H13.9136L14.1577 4.77344C14.3383 6.08262 13.321 7.24979 11.9995 7.25C10.678 7.24983 9.65981 6.0826 9.84033 4.77344L10.0855 3H9.79737ZM11.9995 4C11.4474 4.00016 10.9995 4.44781 10.9995 5C10.9995 5.55219 11.4474 5.99984 11.9995 6C12.5516 5.99981 12.9995 5.55217 12.9995 5C12.9995 4.44783 12.5516 4.00019 11.9995 4Z" fill="oklch(0.3523 0 0 / 1)" class="wd-icon-fill"></path>
</g>
</svg>