<svg width="24" height="24" viewBox="0 0 24 24" xmlns="http://www.w3.org/2000/svg" class="wd-icon wd-icon-comment-arrow-down" role="presentation">
<g>
<path d="M12 7.25C12.4141 7.25009 12.7499 7.58591 12.75 8V12.1895L14.4697 10.4697C14.7626 10.1771 15.2374 10.1771 15.5303 10.4697C15.8231 10.7626 15.823 11.2374 15.5303 11.5303L12.5303 14.5303C12.2374 14.823 11.7626 14.8231 11.4697 14.5303L8.46973 11.5303C8.17701 11.2374 8.17702 10.7626 8.46973 10.4697C8.76259 10.177 9.23741 10.177 9.53027 10.4697L11.25 12.1895V8C11.2501 7.58595 11.586 7.25016 12 7.25Z" fill="oklch(0.3523 0 0 / 1)" class="wd-icon-fill"></path>
<path d="M12 2C17.4088 2.00009 22 5.92202 22 11C22 15.9688 17.604 19.8273 12.3477 19.9912C11.2636 20.7832 10.024 21.235 8.92188 21.4824C7.72311 21.7515 6.61963 21.7956 5.92969 21.7471C5.62075 21.7253 5.33962 21.5615 5.16797 21.3037C4.99636 21.0458 4.95355 20.7231 5.05273 20.4297C5.28914 19.7301 5.42266 18.7021 5.45996 17.8096C3.36367 16.1774 2 13.7479 2 11C2 5.92196 6.59113 2 12 2ZM12 4C7.46774 4 4 7.24148 4 11C4 13.1945 5.16038 15.1881 7.04102 16.4912C7.31057 16.678 7.47167 16.9855 7.47168 17.3135C7.47168 18.0059 7.41145 18.8842 7.27051 19.7217C7.64003 19.6863 8.05257 19.627 8.4834 19.5303C9.49417 19.3034 10.5396 18.8951 11.3711 18.2227L11.5127 18.127C11.6608 18.0443 11.8285 18 12 18C16.5322 17.9999 20 14.7585 20 11C20 7.24153 16.5322 4.00009 12 4Z" fill="oklch(0.3523 0 0 / 1)" class="wd-icon-fill"></path>
</g>
</svg>