<svg width="24" height="24" viewBox="0 0 24 24" xmlns="http://www.w3.org/2000/svg" class="wd-icon wd-icon-credit-card" role="presentation">
<path d="M2 6C2 5.44772 2.44772 5 3 5H21C21.5523 5 22 5.44772 22 6V18C22 18.5523 21.5523 19 21 19H3C2.44772 19 2 18.5523 2 18V6Z" fill="transparent" class="wd-icon-background"></path>
<path d="M21 4C22.1046 4 23 4.89543 23 6V18C23 19.1046 22.1046 20 21 20H3C1.89543 20 1 19.1046 1 18V6C1 4.89543 1.89543 4 3 4H21ZM3 18H21V6H3V18Z" fill="oklch(0.3523 0 0 / 1)" class="wd-icon-fill"></path>
<g>
<path d="M10.5 14C10.7761 14 11 14.2239 11 14.5V15.5C11 15.7761 10.7761 16 10.5 16H5.5C5.22386 16 5 15.7761 5 15.5V14.5C5 14.2239 5.22386 14 5.5 14H10.5Z" fill="oklch(0.3523 0 0 / 1)" class="wd-icon-accent"></path>
<path d="M21 10H3V8H21V10Z" fill="oklch(0.3523 0 0 / 1)" class="wd-icon-accent"></path>
</g>
</svg>