<svg width="24" height="24" viewBox="0 0 24 24" xmlns="http://www.w3.org/2000/svg" class="wd-icon wd-icon-add-zero" role="presentation">
<g>
<path d="M15 15.4336C15.0001 15.0293 15.4558 14.7927 15.7871 15.0244L19.415 17.5635C19.6994 17.7625 19.6994 18.1837 19.415 18.3828L15.7871 20.9229C15.4557 21.1546 15 20.9171 15 20.5127V18.9736H6C5.44783 18.9735 5 18.5258 5 17.9736C5.00013 17.4215 5.44792 16.9738 6 16.9736H15V15.4336Z" fill="oklch(0.3523 0 0 / 1)" class="wd-icon-fill"></path>
<path d="M8.63867 2.87109C9.83414 2.87109 10.7559 3.37201 11.3506 4.36719L11.4561 4.54785C11.9636 5.46541 12.206 6.60438 12.2061 7.94336C12.206 8.88064 12.0869 9.72874 11.8447 10.4834C11.6071 11.2421 11.2217 11.8611 10.6777 12.3193L10.6768 12.3184C10.1265 12.7891 9.43836 13.0146 8.63867 13.0146C7.43638 13.0146 6.50902 12.5201 5.91309 11.5303L5.91113 11.5264C5.35158 10.5723 5.08402 9.37027 5.08398 7.94336C5.08401 7.01426 5.19796 6.17388 5.43164 5.42773L5.43359 5.42383C5.67935 4.66849 6.06313 4.04922 6.59473 3.58398C7.14518 3.10239 7.83616 2.87111 8.63867 2.87109ZM8.63867 4.66309C8.29236 4.6631 8.03594 4.78162 7.83594 5.0127C7.61418 5.26911 7.4377 5.63705 7.32715 6.13965C7.22273 6.64566 7.16994 7.24666 7.16992 7.94336C7.16995 9.02056 7.3071 9.85025 7.56055 10.4521L7.65918 10.6465C7.76273 10.8243 7.88019 10.9523 8.00684 11.041C8.17337 11.1576 8.37841 11.2226 8.63867 11.2227C8.99603 11.2227 9.25645 11.1027 9.45508 10.873C9.67816 10.6149 9.85278 10.2484 9.96289 9.75293C10.0748 9.24931 10.1338 8.6473 10.1338 7.94336C10.1338 6.86396 9.99156 6.03884 9.73047 5.44727L9.63086 5.24805C9.5269 5.06769 9.40824 4.93765 9.28027 4.84766C9.11191 4.72939 8.90319 4.66309 8.63867 4.66309Z" fill="oklch(0.3523 0 0 / 1)" class="wd-icon-fill"></path>
<path d="M16.6387 2.87109C17.8341 2.87109 18.7559 3.37201 19.3506 4.36719L19.4561 4.54785C19.9636 5.46541 20.206 6.60438 20.2061 7.94336C20.206 8.88064 20.0869 9.72874 19.8447 10.4834C19.6071 11.2421 19.2217 11.8611 18.6777 12.3193L18.6768 12.3184C18.1265 12.7891 17.4384 13.0146 16.6387 13.0146C15.4364 13.0146 14.509 12.5201 13.9131 11.5303L13.9111 11.5264C13.3516 10.5723 13.084 9.37027 13.084 7.94336C13.084 7.01426 13.198 6.17388 13.4316 5.42773L13.4336 5.42383C13.6794 4.66849 14.0631 4.04922 14.5947 3.58398C15.1452 3.10239 15.8362 2.87111 16.6387 2.87109ZM16.6387 4.66309C16.2924 4.6631 16.0359 4.78162 15.8359 5.0127C15.6142 5.26911 15.4377 5.63705 15.3271 6.13965C15.2227 6.64566 15.1699 7.24666 15.1699 7.94336C15.1699 9.02056 15.3071 9.85025 15.5605 10.4521L15.6592 10.6465C15.7627 10.8243 15.8802 10.9523 16.0068 11.041C16.1734 11.1576 16.3784 11.2226 16.6387 11.2227C16.996 11.2227 17.2564 11.1027 17.4551 10.873C17.6782 10.6149 17.8528 10.2484 17.9629 9.75293C18.0748 9.24931 18.1338 8.6473 18.1338 7.94336C18.1338 6.86396 17.9916 6.03884 17.7305 5.44727L17.6309 5.24805C17.5269 5.06769 17.4082 4.93765 17.2803 4.84766C17.1119 4.72939 16.9032 4.66309 16.6387 4.66309Z" fill="oklch(0.3523 0 0 / 1)" class="wd-icon-fill"></path>
<path d="M3.5 11C3.77614 11 4 11.2239 4 11.5V12.5C4 12.7761 3.77614 13 3.5 13H2.5C2.22386 13 2 12.7761 2 12.5V11.5C2 11.2239 2.22386 11 2.5 11H3.5Z" fill="oklch(0.3523 0 0 / 1)" class="wd-icon-fill"></path>
</g>
</svg>