<svg width="24" height="24" viewBox="0 0 24 24" xmlns="http://www.w3.org/2000/svg" class="wd-icon wd-icon-funnel" role="presentation">
<path d="M20.4385 4C20.8613 4.0001 21.0933 4.49234 20.8243 4.81836L14.0001 13.0791V17.9785C14 18.0946 13.9598 18.2074 13.8858 18.2969L10.8858 21.9277C10.5873 22.2891 10.0001 22.0781 10.0001 21.6094V13.0791L3.17585 4.81836C2.90673 4.49231 3.13875 4 3.56159 4H20.4385Z" fill="transparent" class="wd-icon-background"></path>
<path d="M20.5552 3.00391C21.7095 3.08864 22.3359 4.41661 21.6665 5.36133L21.5952 5.45508L14.9995 13.4385V17.9795C14.9992 18.3253 14.8798 18.6635 14.6568 18.9336L11.6568 22.5645C10.7617 23.6478 8.99953 23.0163 8.99953 21.6094V13.4375L2.4048 5.45508C1.59749 4.47673 2.29305 3.0002 3.56105 3H20.438L20.5552 3.00391ZM10.771 12.4424C10.9189 12.6216 10.9995 12.8468 10.9995 13.0791V20.2197L12.9995 17.7988V13.0791C12.9995 12.8467 13.081 12.6216 13.229 12.4424L19.3775 5H4.62258L10.771 12.4424Z" fill="oklch(0.3523 0 0 / 1)" class="wd-icon-fill"></path>
</svg>