<svg width="24" height="24" viewBox="0 0 24 24" xmlns="http://www.w3.org/2000/svg" class="wd-icon wd-icon-bag" role="presentation">
<path d="M11.9996 2C14.2088 2 15.9996 3.79086 15.9996 6V7H19.8668C21.0698 7 22.0004 8.05434 21.8512 9.24805L20.8199 17.4961C20.5697 19.4978 18.8685 21 16.8512 21H7.14806C5.13083 20.9999 3.42853 19.4978 3.17833 17.4961L2.14806 9.24805C1.99887 8.05441 2.92953 7.0001 4.13243 7H7.99962V6C7.99962 3.79092 9.79056 2.00009 11.9996 2ZM5.16368 17.248C5.28879 18.2488 6.13949 18.9999 7.14806 19H16.8512C17.8598 19 18.7104 18.2489 18.8356 17.248L19.8668 9H4.13243L5.16368 17.248ZM11.9996 4C10.8951 4.00009 9.99962 4.89549 9.99962 6V7H13.9996V6C13.9996 4.89543 13.1042 4 11.9996 4Z" fill="oklch(0.3523 0 0 / 1)" class="wd-icon-fill"></path>
</svg>