<svg width="24" height="24" viewBox="0 0 24 24" xmlns="http://www.w3.org/2000/svg" class="wd-icon wd-icon-xo-loop" role="presentation">
<g>
<path d="M13.067 14.6221C13.265 14.3258 13.7011 14.3258 13.8991 14.6221L15.6305 17.2207C15.852 17.553 15.6138 17.998 15.2145 17.998H14.2789C14.3246 18.246 14.4032 18.4882 14.5153 18.7158C14.7017 19.0939 14.9739 19.4249 15.3082 19.6816C15.6427 19.9382 16.0325 20.1149 16.4459 20.1973C16.8594 20.2794 17.2868 20.2653 17.694 20.1562C18.0938 20.0492 18.5045 20.2869 18.612 20.6865C18.7191 21.0866 18.4817 21.4983 18.0817 21.6055C17.4523 21.774 16.792 21.7951 16.153 21.668C15.514 21.5408 14.9121 21.2686 14.3952 20.8721C13.8783 20.4753 13.4588 19.9643 13.1706 19.3799C12.9562 18.9451 12.819 18.4771 12.7623 17.998H11.7497C11.3508 17.9975 11.1124 17.5528 11.3336 17.2207L13.067 14.6221Z" fill="oklch(0.3523 0 0 / 1)" class="wd-icon-fill"></path>
<path d="M15.567 13.4033C16.2335 13.2247 16.9332 13.2024 17.61 13.3369C18.2866 13.4715 18.9239 13.7598 19.4713 14.1797C20.0188 14.5998 20.4629 15.1409 20.7682 15.7598C20.9616 16.152 21.096 16.5695 21.1686 16.998H22.2145C22.6138 16.998 22.8518 17.4431 22.6305 17.7754L20.8981 20.374C20.7001 20.6708 20.2639 20.6709 20.0661 20.374L18.3346 17.7754C18.1137 17.4432 18.3517 16.9983 18.7506 16.998H19.6354C19.5842 16.8004 19.5134 16.6071 19.4225 16.4229C19.219 16.0105 18.9231 15.6501 18.5582 15.3701C18.1933 15.0902 17.7681 14.8973 17.317 14.8076C16.866 14.7181 16.3999 14.7335 15.9557 14.8525C15.5559 14.9594 15.1441 14.722 15.0368 14.3223C14.93 13.9226 15.1676 13.5108 15.567 13.4033Z" fill="oklch(0.3523 0 0 / 1)" class="wd-icon-fill"></path>
<path d="M13.8961 5.20508C14.5648 5.20513 15.1614 5.35417 15.6862 5.65039C16.2111 5.93825 16.6223 6.34846 16.9186 6.88184C17.2149 7.41523 17.3629 8.02515 17.3629 8.71094C17.3629 9.39646 17.2147 10.0058 16.9186 10.5391C16.6223 11.0724 16.2111 11.4879 15.6862 11.7842C15.1614 12.0719 14.5647 12.2158 13.8961 12.2158C13.2273 12.2158 12.63 12.0678 12.1051 11.7715C11.5887 11.4752 11.1827 11.064 10.8864 10.5391C10.5986 10.0058 10.4538 9.39656 10.4538 8.71094C10.4538 8.02516 10.5985 7.41522 10.8864 6.88184C11.1826 6.34864 11.5889 5.93821 12.1051 5.65039C12.63 5.35408 13.2273 5.2051 13.8961 5.20508ZM13.8961 6.57715C13.5575 6.57717 13.2605 6.66597 13.0065 6.84375C12.7611 7.02149 12.5706 7.27127 12.4352 7.59277C12.2997 7.9145 12.2321 8.28762 12.2321 8.71094C12.2321 9.34563 12.3803 9.8577 12.6764 10.2471C12.9812 10.628 13.3882 10.8193 13.8961 10.8193C14.2431 10.8193 14.5436 10.7337 14.7975 10.5645C15.0514 10.3951 15.2461 10.154 15.3815 9.84082C15.5169 9.51916 15.5846 9.14261 15.5846 8.71094C15.5846 8.06747 15.4324 7.5506 15.1276 7.16113C14.8229 6.7719 14.4123 6.57723 13.8961 6.57715Z" fill="oklch(0.3523 0 0 / 1)" class="wd-icon-fill"></path>
<path d="M4.09145 2.9834C4.17594 2.9834 4.25526 3.02591 4.30141 3.09668L6.14516 5.92969L7.98891 3.09668C8.03505 3.02585 8.11433 2.9834 8.19887 2.9834H9.61098C9.81158 2.98342 9.93067 3.20804 9.81801 3.37402L7.21254 7.21191L10.1872 11.6104C10.2991 11.7763 10.1804 12 9.98012 12H8.52797C8.44394 11.9999 8.36518 11.9579 8.31899 11.8877L6.10707 8.52051L3.86977 11.8887C3.82344 11.9582 3.74533 12 3.66176 12H2.27016C2.07063 11.9996 1.95221 11.7773 2.06313 11.6113L5.01528 7.19922L2.40004 3.375C2.28664 3.20916 2.40527 2.98363 2.6061 2.9834H4.09145Z" fill="oklch(0.3523 0 0 / 1)" class="wd-icon-fill"></path>
</g>
</svg>