<svg width="24" height="24" viewBox="0 0 24 24" xmlns="http://www.w3.org/2000/svg" class="wd-icon wd-icon-cloud" role="presentation">
<path d="M9.5 4C11.2345 4 12.7788 4.8054 13.7852 6.05664C14.0185 6.01932 14.2573 6 14.5 6C16.4813 6 18.1604 7.28002 18.7617 9.05762C21.1616 9.42445 23 11.4976 23 14C23 16.7614 20.7614 19 18 19H6C3.23858 19 1 16.7614 1 14C1 11.9478 2.23678 10.1887 4.00195 9.41797C4.04582 6.41823 6.48983 4 9.5 4ZM9.5 6C7.567 6 6 7.567 6 9.5C6 9.54262 6.00127 9.58525 6.00293 9.62793C6.02999 10.3245 5.59776 10.9496 4.95996 11.1855C3.81443 11.6092 3 12.7105 3 14C3 15.6569 4.34315 17 6 17H18C19.6569 17 21 15.6569 21 14C21 12.3431 19.6569 11 18 11C17.4762 11 17.0464 10.615 16.9697 10.1162C16.7856 8.91782 15.7494 8 14.5 8C14.3151 8 14.1356 8.02017 13.9639 8.05762C13.3611 8.18889 12.7114 7.964 12.3301 7.44141C11.6918 6.566 10.6619 6 9.5 6Z" fill="oklch(0.3523 0 0 / 1)" class="wd-icon-fill"></path>
</svg>