<svg width="24" height="24" viewBox="0 0 24 24" xmlns="http://www.w3.org/2000/svg" class="wd-icon wd-icon-join-inner" role="presentation">
<path d="M16.5 5C20.0899 5 23 7.91015 23 11.5C23 15.0899 20.0899 18 16.5 18C14.7528 18 13.168 17.3091 12 16.1875C10.832 17.3091 9.24722 18 7.5 18C3.91015 18 1 15.0899 1 11.5C1 7.91015 3.91015 5 7.5 5C9.24698 5 10.832 5.6902 12 6.81152C13.168 5.6902 14.753 5 16.5 5ZM7.5 6.5C4.73858 6.5 2.5 8.73858 2.5 11.5C2.5 14.2614 4.73858 16.5 7.5 16.5C8.70212 16.5 9.80459 16.0751 10.667 15.3682C9.93013 14.2601 9.5 12.9306 9.5 11.5C9.5 10.0691 9.92985 8.73908 10.667 7.63086C9.80466 6.92418 8.7019 6.5 7.5 6.5ZM16.5 6.5C15.2976 6.5 14.1936 6.92361 13.3311 7.63086C14.0687 8.73919 14.5 10.0687 14.5 11.5C14.5 12.931 14.0684 14.26 13.3311 15.3682C14.1936 16.0757 15.2973 16.5 16.5 16.5C19.2614 16.5 21.5 14.2614 21.5 11.5C21.5 8.73858 19.2614 6.5 16.5 6.5Z" fill="oklch(0.3523 0 0 / 1)" class="wd-icon-fill"></path>
</svg>