<svg width="24" height="24" viewBox="0 0 24 24" xmlns="http://www.w3.org/2000/svg" class="wd-icon wd-icon-user-lock" role="presentation">
<g>
<path d="M12.417 12.0059C12.8328 12.0177 13.2447 12.0476 13.6514 12.0938C13.9256 12.125 14.1137 12.3803 14.0732 12.6533L13.9268 13.6416C13.8862 13.9147 13.632 14.1018 13.3574 14.0723C12.9119 14.0244 12.4587 14 12 14C11.5967 14 11.1979 14.0194 10.8047 14.0566C8.22794 14.3014 5.88125 15.3291 4 16.8984V20H11.5C11.7761 20 12 20.2239 12 20.5V21.5C12 21.7761 11.7761 22 11.5 22H3.5C2.72334 22 2.08461 21.4097 2.00781 20.6533L2 20.5V16.6611L2.00879 16.5029C2.04773 16.1358 2.2218 15.7869 2.51367 15.5342L2.99902 15.1318C4.50729 13.9362 6.25981 13.0346 8.16895 12.5127C8.17406 12.5111 8.17937 12.5092 8.18457 12.5078C8.20019 12.5036 8.21581 12.4993 8.23145 12.4951C8.31439 12.4728 8.39792 12.4525 8.48145 12.4316C8.57938 12.4072 8.67767 12.3837 8.77637 12.3613C8.84877 12.3449 8.92133 12.3288 8.99414 12.3135C9.11561 12.2878 9.2378 12.2648 9.36035 12.2422C9.4254 12.2302 9.49031 12.2172 9.55566 12.2061C9.73107 12.1762 9.90751 12.1494 10.085 12.126C10.1534 12.1169 10.2222 12.1096 10.291 12.1016C10.3952 12.0893 10.4996 12.0774 10.6045 12.0674C10.6999 12.0583 10.7956 12.0502 10.8916 12.043C10.9968 12.035 11.1023 12.0291 11.208 12.0234C11.286 12.0192 11.3641 12.0147 11.4424 12.0117C11.6274 12.0047 11.8133 12 12 12C12.1395 12 12.2785 12.0017 12.417 12.0059Z" fill="oklch(0.3523 0 0 / 1)" class="wd-icon-fill"></path>
<path d="M12 1C14.7614 1 17 3.23858 17 6C17 8.76142 14.7614 11 12 11C9.23858 11 7 8.76142 7 6C7 3.23858 9.23858 1 12 1ZM12 3C10.3431 3 9 4.34315 9 6C9 7.65685 10.3431 9 12 9C13.6569 9 15 7.65685 15 6C15 4.34315 13.6569 3 12 3Z" fill="oklch(0.3523 0 0 / 1)" class="wd-icon-fill"></path>
</g>
<path d="M18.5 12C20.433 12 22 13.567 22 15.5V16L22.0986 16.0049C22.3276 16.0276 22.5429 16.1289 22.707 16.293C22.8944 16.4804 22.9999 16.735 23 17V22C22.9998 22.5175 22.6066 22.9438 22.1025 22.9951L22 23H15C14.7349 23 14.4805 22.8945 14.293 22.707C14.1055 22.5196 14.0001 22.2651 14 22V17C14.0002 16.4825 14.3935 16.0563 14.8975 16.0049L15 16V15.5C15 13.567 16.567 12 18.5 12ZM16 18V21H21V18H16ZM18.5 14C17.6716 14 17 14.6716 17 15.5V16H20V15.5C20 14.6716 19.3284 14 18.5 14Z" fill="oklch(0.3523 0 0 / 1)" class="wd-icon-accent"></path>
</svg>