<svg width="24" height="24" viewBox="0 0 24 24" xmlns="http://www.w3.org/2000/svg" class="wd-icon wd-icon-audio" role="presentation">
<g>
<path d="M18.5527 1.66611C18.7583 1.48205 19.0752 1.49908 19.2529 1.71005C21.5905 4.49117 22.9999 8.08274 23 12.0001C22.9999 15.9173 21.5904 19.5081 19.2529 22.2892C19.0752 22.5002 18.7584 22.5172 18.5527 22.3331L17.8076 21.6661C17.6021 21.4819 17.586 21.1663 17.7627 20.9542C19.7847 18.5267 20.9999 15.4062 21 12.0001C20.9999 8.59377 19.7848 5.47254 17.7627 3.04501C17.586 2.83291 17.602 2.51729 17.8076 2.3331L18.5527 1.66611Z" fill="oklch(0.3523 0 0 / 1)" class="wd-icon-fill"></path>
<path d="M11.5303 2.06259C12.484 1.24469 13.9997 1.91284 14 3.20712V20.7921C14 22.1285 12.3843 22.7975 11.4395 21.8526L6.58496 16.9991H4C3.98406 16.9991 3.96807 16.9989 3.95215 16.9981L3.74805 16.9884C3.73044 16.9875 3.71285 16.9862 3.69531 16.9845C2.27559 16.8406 1.14901 15.7083 1.01367 14.2872L1 13.9991V9.99911C1.00057 8.34306 2.34318 6.99911 4 6.99911H6.58594L11.4395 2.14657L11.5303 2.06259ZM7.70703 8.70614C7.5195 8.89364 7.26518 8.99911 7 8.99911H4C3.4483 8.99911 3.00044 9.44689 3 9.99911V13.9991L3.00488 14.0948C3.04943 14.5634 3.41736 14.937 3.88184 14.9913L4.02734 14.9991H6.99902C7.26413 14.9991 7.51854 15.1047 7.70605 15.2921L12 19.5851V4.41318L7.70703 8.70614Z" fill="oklch(0.3523 0 0 / 1)" class="wd-icon-fill"></path>
<path d="M16.4619 6.66611C16.6677 6.48199 16.9854 6.49876 17.1572 6.71493C18.3099 8.16544 19 10.0036 19 12.0001C18.9999 13.9964 18.3097 15.8339 17.1572 17.2843C16.9854 17.5005 16.6677 17.5173 16.4619 17.3331L15.7168 16.6661C15.5112 16.482 15.4955 16.1675 15.6631 15.9483C16.5016 14.8537 16.9999 13.4857 17 12.0001C17 10.5145 16.5016 9.14657 15.6631 8.05185C15.4952 7.83264 15.5111 7.51727 15.7168 7.3331L16.4619 6.66611Z" fill="oklch(0.3523 0 0 / 1)" class="wd-icon-fill"></path>
</g>
</svg>