<svg width="24" height="24" viewBox="0 0 24 24" xmlns="http://www.w3.org/2000/svg" class="wd-icon wd-icon-megaphone" role="presentation">
<path d="M18.9844 6.19922C18.9987 6.35951 19 6.58454 19 6.97266V17.0273C19 17.4154 18.9987 17.6406 18.9844 17.8008C18.9837 17.8079 18.9821 17.815 18.9814 17.8213C18.9749 17.8199 18.9673 17.82 18.96 17.8184C18.8029 17.7836 18.5887 17.7161 18.2188 17.5986L7.87598 14.3154C7.87257 14.3143 7.86865 14.3135 7.86523 14.3125L4.41895 13.2188C4.20571 13.1511 4.09358 13.1142 4.01465 13.083C4.0119 13.0819 4.0093 13.0801 4.00684 13.0791C4.00684 13.0791 4.00693 13.0744 4.00684 13.0723C4.00095 12.9876 4 12.87 4 12.6465V11.3535C4 11.1303 4.00099 11.0124 4.00684 10.9277C4.00703 10.925 4.00671 10.9215 4.00684 10.9189C4.00913 10.918 4.0121 10.917 4.01465 10.916C4.09356 10.8848 4.20588 10.8489 4.41895 10.7812L18.2188 6.40039C18.5886 6.283 18.8029 6.21646 18.96 6.18164C18.9674 6.17999 18.9748 6.17813 18.9814 6.17676C18.9821 6.1835 18.9837 6.19157 18.9844 6.19922Z" fill="transparent" class="wd-icon-background"></path>
<path d="M18.5273 4.2278C18.798 4.16786 19.1406 4.12119 19.5068 4.21706C19.9356 4.32938 20.313 4.5811 20.582 4.92897L20.6904 5.08425L20.7598 5.20436C20.9069 5.48753 20.9549 5.77816 20.9766 6.01979C21.0008 6.29031 21 6.62105 21 6.97194V17.0266C21 17.3774 21.0008 17.7083 20.9766 17.9788C20.9518 18.2548 20.8924 18.5945 20.6904 18.9143C20.4198 19.3427 19.997 19.6531 19.5068 19.7815C19.1405 19.8774 18.7981 19.8307 18.5273 19.7708C18.2621 19.712 17.9477 19.6103 17.6133 19.5042L13.9395 18.3382L13.791 18.8098C13.29 20.3885 11.6038 21.2638 10.0244 20.763L8.11914 20.1585C6.5409 19.6572 5.66673 17.9717 6.16699 16.3928L6.31641 15.9182L3.81348 15.1243C3.49529 15.0233 3.06512 14.9046 2.73242 14.6321C2.47051 14.4175 2.2669 14.1391 2.1416 13.8245C2.02245 13.5249 2.0026 13.1991 2 12.9143V11.0833C2.00265 10.7986 2.02234 10.4725 2.1416 10.1731C2.26695 9.85868 2.47059 9.581 2.73242 9.36647C3.06514 9.09397 3.49531 8.97528 3.81348 8.87429L17.6133 4.49343C17.9477 4.38727 18.2622 4.28655 18.5273 4.2278ZM8.07324 16.9964C7.90647 17.5225 8.19853 18.085 8.72461 18.2522L10.6299 18.8567C11.1559 19.0233 11.7177 18.7318 11.8848 18.2053L12.0332 17.7327L8.22168 16.5227L8.07324 16.9964ZM18.96 6.18093C18.8029 6.21573 18.5886 6.28228 18.2188 6.39968L4.41895 10.7805C4.20591 10.8482 4.09357 10.8841 4.01465 10.9153C4.01211 10.9163 4.00915 10.9173 4.00684 10.9182C4.00664 10.9208 4.00698 10.9242 4.00684 10.927C4.00096 11.0116 4 11.1294 4 11.3528V12.6458C4 12.8693 4.00097 12.9869 4.00684 13.0716C4.00699 13.0737 4.00674 13.0764 4.00684 13.0784C4.00932 13.0794 4.01189 13.0812 4.01465 13.0823C4.09358 13.1135 4.20563 13.1503 4.41895 13.218L7.87109 14.3137L7.875 14.3147L13.5918 16.1292L13.5947 16.1301L18.2188 17.5979C18.5888 17.7154 18.8028 17.7828 18.96 17.8176C18.9673 17.8193 18.9749 17.8192 18.9814 17.8206C18.9821 17.8142 18.9837 17.8072 18.9844 17.8001C18.9987 17.6398 19 17.4147 19 17.0266V6.97194C19 6.58368 18.9987 6.35877 18.9844 6.1985C18.9837 6.19101 18.9821 6.18365 18.9814 6.17702C18.9749 6.17838 18.9674 6.17929 18.96 6.18093Z" fill="oklch(0.3523 0 0 / 1)" class="wd-icon-fill"></path>
</svg>