<svg width="24" height="24" viewBox="0 0 24 24" xmlns="http://www.w3.org/2000/svg" class="wd-icon wd-icon-clock-pause" role="presentation">
<g>
<path d="M10.2441 3.1728C11.9899 2.82553 13.7997 3.0043 15.4443 3.68549C17.0887 4.3667 18.4945 5.52 19.4833 6.99994C20.4722 8.47995 20.9999 10.22 20.9999 11.9999C20.9999 12.5522 20.5522 12.9999 19.9999 12.9999C19.4477 12.9999 18.9999 12.5522 18.9999 11.9999C18.9999 10.6156 18.5893 9.26237 17.8203 8.11127C17.0511 6.96015 15.9577 6.06296 14.6787 5.53315C13.3997 5.00338 11.9925 4.8647 10.6347 5.13471C9.27684 5.40481 8.02872 6.07078 7.04975 7.04975C6.07078 8.02872 5.40481 9.27684 5.13471 10.6347C4.8647 11.9925 5.00338 13.3997 5.53315 14.6787C6.06296 15.9577 6.96015 17.0511 8.11127 17.8203C9.26237 18.5893 10.6156 18.9999 11.9999 18.9999C12.5522 18.9999 12.9999 19.4477 12.9999 19.9999C12.9999 20.5522 12.5522 20.9999 11.9999 20.9999C10.22 20.9999 8.47995 20.4722 6.99994 19.4833C5.52 18.4945 4.3667 17.0887 3.68549 15.4443C3.0043 13.7997 2.82553 11.9899 3.1728 10.2441C3.52007 8.49827 4.37702 6.89435 5.63569 5.63569C6.89435 4.37702 8.49827 3.52007 10.2441 3.1728Z" fill="oklch(0.3523 0 0 / 1)" class="wd-icon-fill"></path>
<path d="M12.0009 6.99994C12.4149 7.00021 12.7509 7.33595 12.7509 7.74994V11.6894L15.0312 13.9697C15.3238 14.2625 15.3237 14.7374 15.0312 15.0302C14.7384 15.323 14.2636 15.3229 13.9706 15.0302L11.6171 12.6767C11.3827 12.4423 11.2509 12.1244 11.2509 11.7929V7.74994C11.251 7.33579 11.5867 6.99994 12.0009 6.99994Z" fill="oklch(0.3523 0 0 / 1)" class="wd-icon-fill"></path>
</g>
<g>
<path d="M16.9966 16C17.5489 16 17.9966 16.4477 17.9966 17V21C17.9966 21.5523 17.5489 22 16.9966 22C16.4443 22 15.9966 21.5523 15.9966 21V17C15.9966 16.4477 16.4443 16 16.9966 16Z" fill="oklch(0.3523 0 0 / 1)" class="wd-icon-accent"></path>
<path d="M20.9966 16C21.5489 16 21.9966 16.4477 21.9966 17V21C21.9966 21.5523 21.5489 22 20.9966 22C20.4443 22 19.9966 21.5523 19.9966 21V17C19.9966 16.4477 20.4443 16 20.9966 16Z" fill="oklch(0.3523 0 0 / 1)" class="wd-icon-accent"></path>
</g>
</svg>