<svg width="24" height="24" viewBox="0 0 24 24" xmlns="http://www.w3.org/2000/svg" class="wd-icon wd-icon-external-link" role="presentation">
<g>
<path d="M11.5 4C11.776 4 11.9998 4.22403 12 4.5V5.5C12 5.77614 11.7761 6 11.5 6L6 6.00098V18.001H18V12.5C18.0002 12.224 18.224 12 18.5 12H19.5C19.776 12 19.9998 12.224 20 12.5V18.501C19.9997 19.3292 19.3283 20.001 18.5 20.001H5.5C4.67173 20.001 4.00026 19.3292 4 18.501V5.50098C4 4.67255 4.67157 4.00098 5.5 4.00098H7.49121C7.49414 4.00093 7.49706 4 7.5 4H11.5Z" fill="oklch(0.3523 0 0 / 1)" class="wd-icon-fill"></path>
<path d="M20.5 3C20.7759 3.00016 20.9998 3.22411 21 3.5V9.5C21 9.77604 20.776 9.99984 20.5 10H19.5C19.224 9.99984 19 9.77604 19 9.5V6.41504L11.5605 13.8535C11.3653 14.0487 11.0487 14.0487 10.8535 13.8535L10.1465 13.1465C9.95155 12.9512 9.95143 12.6346 10.1465 12.4395L17.5869 5H14.5C14.224 4.99984 14 4.77604 14 4.5V3.5C14.0002 3.22411 14.2241 3.00016 14.5 3H20.5Z" fill="oklch(0.3523 0 0 / 1)" class="wd-icon-fill"></path>
</g>
</svg>