<svg width="24" height="24" viewBox="0 0 24 24" xmlns="http://www.w3.org/2000/svg" class="wd-icon wd-icon-join-left-anti" role="presentation">
<path d="M16.5 5C20.0899 5 23 7.91015 23 11.5C23 15.0899 20.0899 18 16.5 18C14.7528 18 13.168 17.3091 12 16.1875C10.832 17.3091 9.24722 18 7.5 18C3.91015 18 1 15.0899 1 11.5C1 7.91015 3.91015 5 7.5 5C9.24698 5 10.832 5.6902 12 6.81152C13.168 5.6902 14.753 5 16.5 5ZM16.5 6.5C15.1156 6.5 13.8614 7.06255 12.9561 7.97168C12.9916 8.02652 13.0266 8.08173 13.0605 8.1377C13.0721 8.15679 13.0833 8.17609 13.0947 8.19531C13.1925 8.36039 13.283 8.53005 13.3662 8.7041C13.3845 8.74231 13.4024 8.78072 13.4199 8.81934C13.4401 8.86376 13.4603 8.90817 13.4795 8.95312C13.4962 8.99228 13.5123 9.03174 13.5283 9.07129C13.5631 9.15732 13.5958 9.24422 13.627 9.33203C13.6386 9.3648 13.65 9.39766 13.6611 9.43066C13.6764 9.47609 13.6918 9.52151 13.7061 9.56738C13.7246 9.62688 13.7419 9.68686 13.7588 9.74707C13.7672 9.77702 13.7762 9.80679 13.7842 9.83691C13.8074 9.92437 13.8281 10.0127 13.8477 10.1016C13.8541 10.1311 13.8601 10.1607 13.8662 10.1904C13.8814 10.2642 13.8956 10.3384 13.9082 10.4131C13.9128 10.4404 13.9176 10.4677 13.9219 10.4951C13.9346 10.5766 13.9454 10.6587 13.9551 10.7412C13.9607 10.7892 13.9652 10.8374 13.9697 10.8857C13.9764 10.9567 13.982 11.028 13.9863 11.0996C13.9885 11.1354 13.9906 11.1711 13.9922 11.207C13.9965 11.3042 14 11.4018 14 11.5C14 11.5979 13.9965 11.6952 13.9922 11.792C13.9906 11.8269 13.9884 11.8617 13.9863 11.8965C13.9828 11.9553 13.9788 12.0139 13.9736 12.0723C13.9696 12.1186 13.965 12.1648 13.96 12.2109C13.9498 12.3034 13.9378 12.3951 13.9238 12.4863C13.9192 12.5167 13.9142 12.5469 13.9092 12.5771C13.8995 12.635 13.8892 12.6926 13.8779 12.75C13.8701 12.7902 13.8621 12.8302 13.8535 12.8701C13.8372 12.9456 13.8187 13.0203 13.7998 13.0947C13.7845 13.1553 13.768 13.2155 13.751 13.2754C13.7388 13.3182 13.7269 13.3609 13.7139 13.4033C13.6298 13.6775 13.5282 13.9437 13.4102 14.2012C13.3999 14.2234 13.3894 14.2455 13.3789 14.2676C13.2936 14.4481 13.2006 14.624 13.0996 14.7949C13.0853 14.8192 13.0703 14.8431 13.0557 14.8672C13.0276 14.9133 12.9999 14.9595 12.9707 15.0049C12.966 15.0123 12.9618 15.02 12.957 15.0273C13.8625 15.9368 15.1153 16.5 16.5 16.5C19.2614 16.5 21.5 14.2614 21.5 11.5C21.5 8.73858 19.2614 6.5 16.5 6.5ZM11.332 7.55859C10.4968 8.65205 10 10.0178 10 11.5C10 12.9822 10.4968 14.3479 11.332 15.4414L11.335 15.4365C11.2332 15.3032 11.1344 15.1675 11.043 15.0264C11.9429 14.1222 12.5 12.8765 12.5 11.5C12.5 10.1233 11.9432 8.87685 11.043 7.97266C11.1345 7.83128 11.233 7.695 11.335 7.56152L11.332 7.55859Z" fill="oklch(0.3523 0 0 / 1)" class="wd-icon-fill"></path>
</svg>