<svg width="24" height="24" viewBox="0 0 24 24" xmlns="http://www.w3.org/2000/svg" class="wd-icon wd-icon-catalog" role="presentation">
<g>
<path d="M18.4004 14C18.6967 14 18.8591 14.0012 18.9756 14.0107C18.9797 14.0111 18.9836 14.0114 18.9873 14.0117C18.9877 14.0157 18.9889 14.0199 18.9893 14.0244C18.9988 14.1409 19 14.3033 19 14.5996V19.4004C19 19.6967 18.9988 19.8591 18.9893 19.9756C18.9889 19.9797 18.9876 19.9836 18.9873 19.9873C18.9836 19.9876 18.9797 19.9889 18.9756 19.9893C18.8591 19.9988 18.6967 20 18.4004 20H5.59961C5.30333 20 5.14095 19.9988 5.02441 19.9893C5.01992 19.9889 5.01575 19.9877 5.01172 19.9873C5.01138 19.9836 5.01108 19.9797 5.01074 19.9756C5.00122 19.8591 5 19.6967 5 19.4004V14.5996C5 14.3033 5.00122 14.1409 5.01074 14.0244C5.01111 14.02 5.01135 14.0157 5.01172 14.0117C5.01572 14.0114 5.01996 14.0111 5.02441 14.0107C5.14095 14.0012 5.30333 14 5.59961 14H18.4004ZM16.25 15C15.8358 15 15.5 15.3358 15.5 15.75V16C15.5 16.2761 15.2761 16.5 15 16.5H9C8.72386 16.5 8.5 16.2761 8.5 16V15.75C8.5 15.3358 8.16421 15 7.75 15C7.33579 15 7 15.3358 7 15.75V16C7 17.1046 7.89543 18 9 18H15C16.1046 18 17 17.1046 17 16V15.75C17 15.3358 16.6642 15 16.25 15Z" fill="transparent" class="wd-icon-background"></path>
<path d="M16.4004 4C16.6967 4 16.8591 4.00122 16.9756 4.01074C16.9797 4.01108 16.9836 4.01138 16.9873 4.01172C16.9877 4.01575 16.9889 4.01992 16.9893 4.02441C16.9988 4.14095 17 4.30333 17 4.59961V12H7V4.59961C7 4.30333 7.00122 4.14095 7.01074 4.02441C7.01111 4.01996 7.01135 4.01572 7.01172 4.01172C7.01572 4.01135 7.01996 4.01111 7.02441 4.01074C7.14095 4.00122 7.30333 4 7.59961 4H16.4004ZM9.25 9.25C8.83579 9.25 8.5 9.58579 8.5 10C8.5 10.4142 8.83579 10.75 9.25 10.75H12.75C13.1642 10.75 13.5 10.4142 13.5 10C13.5 9.58579 13.1642 9.25 12.75 9.25H9.25ZM9.25 6.25C8.83579 6.25 8.5 6.58579 8.5 7C8.5 7.41421 8.83579 7.75 9.25 7.75H14.75C15.1642 7.75 15.5 7.41421 15.5 7C15.5 6.58579 15.1642 6.25 14.75 6.25H9.25Z" fill="transparent" class="wd-icon-background"></path>
</g>
<path d="M16.4004 2.00001C16.6638 2.00001 16.9219 1.9989 17.1387 2.01662C17.3672 2.03531 17.637 2.07958 17.9082 2.21779C18.2375 2.38556 18.5129 2.64087 18.7051 2.95412L18.7822 3.09181L18.8692 3.29494C18.9406 3.49578 18.9694 3.69007 18.9834 3.86134C19.0011 4.07815 19 4.33623 19 4.59962V12.0108C19.0477 12.013 19.0941 12.013 19.1387 12.0166C19.3672 12.0353 19.637 12.0796 19.9082 12.2178C20.2374 12.3856 20.5129 12.6409 20.7051 12.9541L20.7822 13.0918L20.8692 13.2949C20.9406 13.4958 20.9694 13.6901 20.9834 13.8613C21.0011 14.0782 21 14.3362 21 14.5996V19.4004C21 19.6638 21.0011 19.9219 20.9834 20.1387C20.9647 20.3672 20.9205 20.637 20.7822 20.9082C20.5905 21.2845 20.2845 21.5905 19.9082 21.7822C19.637 21.9204 19.3672 21.9647 19.1387 21.9834C18.9219 22.0011 18.6638 22 18.4004 22H5.59962C5.33624 22 5.07815 22.0011 4.86134 21.9834C4.63284 21.9647 4.36307 21.9205 4.09181 21.7822C3.71556 21.5905 3.40952 21.2845 3.21779 20.9082C3.07958 20.637 3.03531 20.3672 3.01662 20.1387C2.9989 19.9219 3.00001 19.6638 3.00001 19.4004V14.5996C3.00001 14.3362 2.9989 14.0782 3.01662 13.8613C3.03531 13.6328 3.07958 13.3631 3.21779 13.0918C3.40952 12.7156 3.71556 12.4095 4.09181 12.2178C4.36307 12.0796 4.63284 12.0353 4.86134 12.0166C4.90588 12.013 4.95231 12.013 5.00001 12.0108V4.59962C5.00001 4.33623 4.9989 4.07815 5.01662 3.86134C5.03531 3.63284 5.07958 3.36307 5.21779 3.09181C5.40952 2.71556 5.71556 2.40952 6.09181 2.21779C6.36307 2.07958 6.63284 2.03531 6.86134 2.01662C7.07815 1.9989 7.33624 2.00001 7.59962 2.00001H16.4004ZM5.59962 14C5.30335 14 5.14096 14.0012 5.02443 14.0108C5.01997 14.0111 5.01573 14.0114 5.01173 14.0117C5.01136 14.0157 5.01112 14.02 5.01076 14.0244C5.00124 14.141 5.00001 14.3033 5.00001 14.5996V19.4004C5.00001 19.6967 5.00124 19.8591 5.01076 19.9756C5.01109 19.9797 5.01139 19.9836 5.01173 19.9873C5.01576 19.9877 5.01994 19.9889 5.02443 19.9893C5.14096 19.9988 5.30335 20 5.59962 20H18.4004C18.6967 20 18.8591 19.9988 18.9756 19.9893C18.9797 19.9889 18.9836 19.9877 18.9873 19.9873C18.9877 19.9836 18.9889 19.9797 18.9893 19.9756C18.9988 19.8591 19 19.6967 19 19.4004V14.5996C19 14.3033 18.9988 14.141 18.9893 14.0244C18.9889 14.0199 18.9877 14.0158 18.9873 14.0117C18.9836 14.0114 18.9797 14.0111 18.9756 14.0108C18.8591 14.0012 18.6967 14 18.4004 14H5.59962ZM7.59962 4.00001C7.30335 4.00001 7.14096 4.00124 7.02443 4.01076C7.01997 4.01112 7.01573 4.01136 7.01173 4.01173C7.01136 4.01574 7.01112 4.01997 7.01076 4.02443C7.00123 4.14096 7.00001 4.30335 7.00001 4.59962V12H17V4.59962C17 4.30334 16.9988 4.14096 16.9893 4.02443C16.9889 4.01994 16.9877 4.01576 16.9873 4.01173C16.9836 4.01139 16.9797 4.01109 16.9756 4.01076C16.8591 4.00124 16.6967 4.00001 16.4004 4.00001H7.59962Z" fill="oklch(0.3523 0 0 / 1)" class="wd-icon-fill"></path>
<g>
<path d="M16.25 15C16.6642 15 17 15.3358 17 15.75V16C17 17.1046 16.1046 18 15 18H9C7.89543 18 7 17.1046 7 16V15.75C7 15.3358 7.33579 15 7.75 15C8.16421 15 8.5 15.3358 8.5 15.75V16C8.5 16.2761 8.72386 16.5 9 16.5H15C15.2761 16.5 15.5 16.2761 15.5 16V15.75C15.5 15.3358 15.8358 15 16.25 15Z" fill="oklch(0.3523 0 0 / 1)" class="wd-icon-accent"></path>
<path d="M12.75 9.25C13.1642 9.25 13.5 9.58579 13.5 10C13.5 10.4142 13.1642 10.75 12.75 10.75H9.25C8.83579 10.75 8.5 10.4142 8.5 10C8.5 9.58579 8.83579 9.25 9.25 9.25H12.75Z" fill="oklch(0.3523 0 0 / 1)" class="wd-icon-accent"></path>
<path d="M14.75 6.25C15.1642 6.25 15.5 6.58579 15.5 7C15.5 7.41421 15.1642 7.75 14.75 7.75H9.25C8.83579 7.75 8.5 7.41421 8.5 7C8.5 6.58579 8.83579 6.25 9.25 6.25H14.75Z" fill="oklch(0.3523 0 0 / 1)" class="wd-icon-accent"></path>
</g>
</svg>