<svg width="24" height="24" viewBox="0 0 24 24" xmlns="http://www.w3.org/2000/svg" class="wd-icon wd-icon-arrow-down-to-line" role="presentation">
<g>
<path d="M18 18C18.5523 18 19 18.4477 19 19C19 19.5523 18.5523 20 18 20H6C5.44772 20 5 19.5523 5 19C5 18.4477 5.44772 18 6 18H18Z" fill="oklch(0.3523 0 0 / 1)" class="wd-icon-fill"></path>
<path d="M11.999 4C12.5512 4 12.9988 4.44788 12.999 5V12.5869L15.293 10.293C15.6835 9.90291 16.3166 9.90268 16.707 10.293C17.0973 10.6834 17.0971 11.3165 16.707 11.707L12.707 15.707C12.3165 16.0972 11.6834 16.0974 11.293 15.707L7.29297 11.707C6.9027 11.3166 6.90279 10.6835 7.29297 10.293C7.68348 9.90299 8.31666 9.90276 8.70703 10.293L10.999 12.585V5C10.9992 4.44815 11.4472 4.00044 11.999 4Z" fill="oklch(0.3523 0 0 / 1)" class="wd-icon-fill"></path>
</g>
</svg>