<svg width="24" height="24" viewBox="0 0 24 24" xmlns="http://www.w3.org/2000/svg" class="wd-icon wd-icon-home-building" role="presentation">
<g>
<path d="M8.19922 15C8.47888 15 8.61869 15.0003 8.72559 15.0547C8.81967 15.1026 8.8964 15.1794 8.94434 15.2734C8.99869 15.3803 8.99903 15.5201 8.99903 15.7998V16.2002C8.99903 16.4799 8.99869 16.6197 8.94434 16.7266C8.8964 16.8206 8.81967 16.8974 8.72559 16.9453C8.61869 16.9997 8.47889 17 8.19922 17H7.79883C7.51917 17 7.37936 16.9997 7.27247 16.9453C7.17838 16.8974 7.10165 16.8206 7.05372 16.7266C6.99937 16.6197 6.99903 16.4799 6.99903 16.2002V15.7998C6.99903 15.5201 6.99937 15.3803 7.05372 15.2734C7.10165 15.1794 7.17838 15.1026 7.27247 15.0547C7.37936 15.0003 7.51917 15 7.79883 15H8.19922Z" fill="oklch(0.3523 0 0 / 1)" class="wd-icon-fill"></path>
<path d="M8.19922 12C8.47888 12 8.61869 12.0003 8.72559 12.0547C8.81967 12.1026 8.8964 12.1794 8.94434 12.2734C8.99869 12.3803 8.99903 12.5201 8.99903 12.7998V13.2002C8.99903 13.4799 8.99869 13.6197 8.94434 13.7266C8.8964 13.8206 8.81967 13.8974 8.72559 13.9453C8.61869 13.9997 8.47889 14 8.19922 14H7.79883C7.51917 14 7.37936 13.9997 7.27247 13.9453C7.17838 13.8974 7.10165 13.8206 7.05372 13.7266C6.99937 13.6197 6.99903 13.4799 6.99903 13.2002V12.7998C6.99903 12.5201 6.99937 12.3803 7.05372 12.2734C7.10165 12.1794 7.17838 12.1026 7.27247 12.0547C7.37936 12.0003 7.51917 12 7.79883 12H8.19922Z" fill="oklch(0.3523 0 0 / 1)" class="wd-icon-fill"></path>
<path d="M8.19922 9C8.47888 9 8.61869 9.00035 8.72559 9.05469C8.81967 9.10263 8.8964 9.17936 8.94434 9.27344C8.99869 9.38034 8.99903 9.52014 8.99903 9.79981V10.2002C8.99903 10.4799 8.99869 10.6197 8.94434 10.7266C8.8964 10.8206 8.81967 10.8974 8.72559 10.9453C8.61869 10.9997 8.47889 11 8.19922 11H7.79883C7.51917 11 7.37936 10.9997 7.27247 10.9453C7.17838 10.8974 7.10165 10.8206 7.05372 10.7266C6.99937 10.6197 6.99903 10.4799 6.99903 10.2002V9.79981C6.99903 9.52015 6.99937 9.38034 7.05372 9.27344C7.10165 9.17936 7.17838 9.10263 7.27247 9.05469C7.37936 9.00034 7.51917 9 7.79883 9H8.19922Z" fill="oklch(0.3523 0 0 / 1)" class="wd-icon-fill"></path>
<path d="M11.1982 9C11.4779 9 11.6177 9.00035 11.7246 9.05469C11.8187 9.10263 11.8954 9.17936 11.9434 9.27344C11.9977 9.38034 11.9981 9.52014 11.9981 9.79981V10.2002C11.9981 10.4799 11.9977 10.6197 11.9434 10.7266C11.8954 10.8206 11.8187 10.8974 11.7246 10.9453C11.6177 10.9997 11.4779 11 11.1982 11H10.7979C10.5182 11 10.3784 10.9997 10.2715 10.9453C10.1774 10.8974 10.1007 10.8206 10.0527 10.7266C9.99839 10.6197 9.99805 10.4799 9.99805 10.2002V9.79981C9.99805 9.52015 9.99839 9.38034 10.0527 9.27344C10.1007 9.17936 10.1774 9.10263 10.2715 9.05469C10.3784 9.00034 10.5182 9 10.7979 9H11.1982Z" fill="oklch(0.3523 0 0 / 1)" class="wd-icon-fill"></path>
<path d="M8.19922 6C8.47888 6 8.61869 6.00035 8.72559 6.05469C8.81967 6.10263 8.8964 6.17936 8.94434 6.27344C8.99869 6.38034 8.99903 6.52014 8.99903 6.79981V7.2002C8.99903 7.47986 8.99869 7.61967 8.94434 7.72657C8.8964 7.82065 8.81967 7.89738 8.72559 7.94532C8.61869 7.99966 8.47889 8 8.19922 8H7.79883C7.51917 8 7.37936 7.99967 7.27247 7.94532C7.17838 7.89738 7.10165 7.82065 7.05372 7.72657C6.99937 7.61967 6.99903 7.47986 6.99903 7.2002V6.79981C6.99903 6.52015 6.99937 6.38034 7.05372 6.27344C7.10165 6.17936 7.17838 6.10263 7.27247 6.05469C7.37936 6.00034 7.51917 6 7.79883 6H8.19922Z" fill="oklch(0.3523 0 0 / 1)" class="wd-icon-fill"></path>
<path d="M11.1992 6C11.4789 6 11.6187 6.00035 11.7256 6.05469C11.8197 6.10263 11.8964 6.17936 11.9443 6.27344C11.9987 6.38034 11.999 6.52014 11.999 6.79981V7.2002C11.999 7.47986 11.9987 7.61967 11.9443 7.72657C11.8964 7.82065 11.8197 7.89738 11.7256 7.94532C11.6187 7.99966 11.4789 8 11.1992 8H10.7988C10.5192 8 10.3794 7.99967 10.2725 7.94532C10.1784 7.89738 10.1017 7.82065 10.0537 7.72657C9.99937 7.61967 9.99903 7.47986 9.99903 7.2002V6.79981C9.99903 6.52015 9.99937 6.38034 10.0537 6.27344C10.1017 6.17936 10.1784 6.10263 10.2725 6.05469C10.3794 6.00034 10.5192 6 10.7988 6H11.1992Z" fill="oklch(0.3523 0 0 / 1)" class="wd-icon-fill"></path>
<path d="M11.7988 2C12.3424 2 12.8107 1.99893 13.1943 2.03028C13.5896 2.06259 13.983 2.1344 14.3613 2.32715C14.9256 2.61473 15.3843 3.07348 15.6719 3.6377C15.8646 4.016 15.9364 4.40944 15.9688 4.80469C16.0001 5.18836 15.999 5.65665 15.999 6.2002V9.62305C16.435 9.5491 16.8834 9.57131 17.3115 9.69141C17.662 9.78976 17.9565 9.95924 18.2344 10.1533C18.5019 10.3402 18.8055 10.5879 19.1543 10.8721L22.6553 13.7246C23.0834 14.0735 23.1477 14.7037 22.7988 15.1318C22.5962 15.3804 22.2987 15.5045 22.001 15.4981V18.4004C22.001 18.6637 22.0021 18.9219 21.9844 19.1387C21.9657 19.3672 21.9214 19.637 21.7832 19.9082C21.5915 20.2844 21.2854 20.5905 20.9092 20.7822C20.6379 20.9204 20.3681 20.9647 20.1397 20.9834C19.9228 21.0011 19.6648 21 19.4014 21H7.19922C6.65567 21 6.18739 21.0011 5.80372 20.9697C5.40846 20.9374 5.01502 20.8656 4.63672 20.6729C4.0725 20.3853 3.61375 19.9265 3.32618 19.3623C3.13343 18.984 3.06161 18.5906 3.0293 18.1953C2.99795 17.8116 2.99903 17.3434 2.99903 16.7998V6.2002C2.99903 5.65665 2.99795 5.18836 3.0293 4.80469C3.06161 4.40944 3.13342 4.016 3.32618 3.6377C3.61375 3.07348 4.0725 2.61473 4.63672 2.32715C5.01502 2.1344 5.40846 2.06259 5.80372 2.03028C6.18739 1.99893 6.65567 2 7.19922 2H11.7988ZM7.19922 4C6.62267 4 6.25014 4.00127 5.9668 4.02442C5.69522 4.04662 5.59436 4.08419 5.54493 4.10938C5.35696 4.20522 5.20424 4.35793 5.1084 4.5459C5.08321 4.59534 5.04564 4.69619 5.02344 4.96778C5.00029 5.25111 4.99903 5.62365 4.99903 6.2002V16.7998C4.99903 17.3764 5.00029 17.7489 5.02344 18.0322C5.04564 18.3038 5.08321 18.4047 5.1084 18.4541C5.20424 18.6421 5.35696 18.7948 5.54493 18.8906C5.59436 18.9158 5.69522 18.9534 5.9668 18.9756C6.25014 18.9987 6.62267 19 7.19922 19H11.0117C11.0031 18.8155 11.001 18.6097 11.001 18.4004V15.4981C10.7033 15.5045 10.4058 15.3805 10.2031 15.1318C9.85429 14.7037 9.91861 14.0735 10.3467 13.7246L13.8477 10.8721C13.8991 10.8302 13.9496 10.7892 13.999 10.749V6.2002C13.999 5.62365 13.9978 5.25111 13.9746 4.96778C13.9524 4.69619 13.9148 4.59534 13.8897 4.5459C13.7938 4.35794 13.6411 4.20522 13.4531 4.10938C13.4037 4.08419 13.3028 4.04661 13.0313 4.02442C12.7479 4.00127 12.3754 4 11.7988 4H7.19922ZM16.7715 11.6172C16.595 11.5677 16.408 11.5677 16.2315 11.6172C16.1815 11.6312 16.0953 11.6647 15.9131 11.792C15.7203 11.9267 15.4828 12.1192 15.1113 12.4219L13.001 14.1416V18.4004C13.001 18.6966 13.0022 18.8591 13.0117 18.9756C13.0121 18.9796 13.0124 18.9836 13.0127 18.9873C13.0167 18.9877 13.0209 18.9889 13.0254 18.9893C13.1419 18.9988 13.3043 19 13.6006 19H15.001V16.5C15.001 16.2239 15.2248 16 15.501 16H17.501C17.7771 16 18.001 16.2239 18.001 16.5V19H19.4014C19.6976 19 19.86 18.9988 19.9766 18.9893C19.9807 18.9889 19.9845 18.9877 19.9883 18.9873C19.9886 18.9836 19.9899 18.9797 19.9902 18.9756C19.9998 18.8591 20.001 18.6966 20.001 18.4004V14.1416L17.8906 12.4219C17.5192 12.1193 17.2816 11.9266 17.0889 11.792C16.9071 11.6651 16.8215 11.6313 16.7715 11.6172Z" fill="oklch(0.3523 0 0 / 1)" class="wd-icon-fill"></path>
</g>
</svg>