<svg width="24" height="24" viewBox="0 0 24 24" xmlns="http://www.w3.org/2000/svg" class="wd-icon wd-icon-text-area" role="presentation">
<path d="M17.7998 7C18.3764 7 18.7489 7.00126 19.0322 7.02441C19.3038 7.04661 19.4047 7.08419 19.4541 7.10938C19.6421 7.20521 19.7948 7.35793 19.8906 7.5459C19.9158 7.59534 19.9534 7.69619 19.9756 7.96777C19.9987 8.25111 20 8.62364 20 9.2002V14.7998C20 15.3764 19.9987 15.7489 19.9756 16.0322C19.9534 16.3038 19.9158 16.4047 19.8906 16.4541C19.7948 16.6421 19.6421 16.7948 19.4541 16.8906C19.4047 16.9158 19.3038 16.9534 19.0322 16.9756C18.7489 16.9987 18.3764 17 17.7998 17H6.2002C5.62364 17 5.25111 16.9987 4.96777 16.9756C4.69619 16.9534 4.59534 16.9158 4.5459 16.8906C4.35793 16.7948 4.20521 16.6421 4.10938 16.4541C4.08419 16.4047 4.04661 16.3038 4.02441 16.0322C4.00126 15.7489 4 15.3764 4 14.7998V9.2002C4 8.62364 4.00126 8.25111 4.02441 7.96777C4.04661 7.69619 4.08419 7.59534 4.10938 7.5459C4.20521 7.35793 4.35793 7.20521 4.5459 7.10938C4.59534 7.08419 4.69619 7.04661 4.96777 7.02441C5.25111 7.00126 5.62364 7 6.2002 7H17.7998ZM7 13.25C6.58579 13.25 6.25 13.5858 6.25 14C6.25 14.4142 6.58579 14.75 7 14.75H14C14.4142 14.75 14.75 14.4142 14.75 14C14.75 13.5858 14.4142 13.25 14 13.25H7ZM7 9.25C6.58579 9.25 6.25 9.58579 6.25 10C6.25 10.4142 6.58579 10.75 7 10.75H17C17.4142 10.75 17.75 10.4142 17.75 10C17.75 9.58579 17.4142 9.25 17 9.25H7Z" fill="transparent" class="wd-icon-background"></path>
<path d="M17.7998 5C18.3434 5 18.8116 4.99893 19.1953 5.03028C19.5906 5.06259 19.984 5.1344 20.3623 5.32715C20.9265 5.61473 21.3853 6.07348 21.6729 6.6377C21.8656 7.016 21.9374 7.40943 21.9697 7.80469C22.0011 8.18836 22 8.65665 22 9.2002V14.7998C22 15.3434 22.0011 15.8116 21.9697 16.1953C21.9374 16.5906 21.8656 16.984 21.6729 17.3623C21.3853 17.9265 20.9265 18.3853 20.3623 18.6729C19.984 18.8656 19.5906 18.9374 19.1953 18.9697C18.8116 19.0011 18.3434 19 17.7998 19H6.2002C5.65665 19 5.18836 19.0011 4.80469 18.9697C4.40943 18.9374 4.016 18.8656 3.6377 18.6729C3.07348 18.3853 2.61473 17.9265 2.32715 17.3623C2.1344 16.984 2.06259 16.5906 2.03028 16.1953C1.99893 15.8116 2 15.3434 2 14.7998V9.2002C2 8.65665 1.99893 8.18836 2.03028 7.80469C2.06259 7.40943 2.1344 7.016 2.32715 6.6377C2.61473 6.07348 3.07348 5.61473 3.6377 5.32715C4.016 5.1344 4.40943 5.06259 4.80469 5.03028C5.18836 4.99893 5.65665 5 6.2002 5H17.7998ZM6.2002 7C5.62365 7 5.25112 7.00127 4.96778 7.02442C4.69619 7.04662 4.59534 7.08419 4.5459 7.10938C4.35793 7.20522 4.20522 7.35793 4.10938 7.5459C4.08419 7.59534 4.04662 7.69619 4.02442 7.96778C4.00127 8.25112 4 8.62365 4 9.2002V14.7998C4 15.3764 4.00127 15.7489 4.02442 16.0322C4.04662 16.3038 4.08419 16.4047 4.10938 16.4541C4.20522 16.6421 4.35793 16.7948 4.5459 16.8906C4.59534 16.9158 4.69619 16.9534 4.96778 16.9756C5.25112 16.9987 5.62365 17 6.2002 17H17.7998C18.3764 17 18.7489 16.9987 19.0322 16.9756C19.3038 16.9534 19.4047 16.9158 19.4541 16.8906C19.6421 16.7948 19.7948 16.6421 19.8906 16.4541C19.9158 16.4047 19.9534 16.3038 19.9756 16.0322C19.9987 15.7489 20 15.3764 20 14.7998V9.2002C20 8.62365 19.9987 8.25112 19.9756 7.96778C19.9534 7.69619 19.9158 7.59534 19.8906 7.5459C19.7948 7.35793 19.6421 7.20522 19.4541 7.10938C19.4047 7.08419 19.3038 7.04662 19.0322 7.02442C18.7489 7.00127 18.3764 7 17.7998 7H6.2002Z" fill="oklch(0.3523 0 0 / 1)" class="wd-icon-fill"></path>
<g>
<path d="M14 13.25C14.4142 13.25 14.75 13.5858 14.75 14C14.75 14.4142 14.4142 14.75 14 14.75H7C6.58579 14.75 6.25 14.4142 6.25 14C6.25 13.5858 6.58579 13.25 7 13.25H14Z" fill="oklch(0.3523 0 0 / 1)" class="wd-icon-accent"></path>
<path d="M17 9.25C17.4142 9.25 17.75 9.58579 17.75 10C17.75 10.4142 17.4142 10.75 17 10.75H7C6.58579 10.75 6.25 10.4142 6.25 10C6.25 9.58579 6.58579 9.25 7 9.25H17Z" fill="oklch(0.3523 0 0 / 1)" class="wd-icon-accent"></path>
</g>
</svg>