<svg width="24" height="24" viewBox="0 0 24 24" xmlns="http://www.w3.org/2000/svg" class="wd-icon wd-icon-endpoints" role="presentation">
<g>
<path d="M12.5 17C13.8807 17 15 18.1193 15 19.5C15 20.8807 13.8807 22 12.5 22C11.1193 22 10 20.8807 10 19.5C10 18.1193 11.1193 17 12.5 17Z" fill="transparent" class="wd-icon-background"></path>
<path d="M17.5 10C18.8807 10 20 11.1193 20 12.5C20 13.8807 18.8807 15 17.5 15C16.1193 15 15 13.8807 15 12.5C15 11.1193 16.1193 10 17.5 10Z" fill="transparent" class="wd-icon-background"></path>
<path d="M17.5 2C18.8807 2 20 3.11929 20 4.5C20 5.88071 18.8807 7 17.5 7C16.1193 7 15 5.88071 15 4.5C15 3.11929 16.1193 2 17.5 2Z" fill="transparent" class="wd-icon-background"></path>
</g>
<path d="M17.5 1C19.433 1 21 2.567 21 4.5C21 6.433 19.433 8 17.5 8C16.1038 8 14.8987 7.18245 14.3369 6H7C6.44772 6 6 6.44772 6 7V11H14.3369C14.8987 9.81755 16.1038 9 17.5 9C19.433 9 21 10.567 21 12.5C21 14.433 19.433 16 17.5 16C15.7368 16 14.2788 14.6961 14.0361 13H6V17C6 17.5523 6.44772 18 7 18H9.33691C9.89865 16.8175 11.1038 16 12.5 16C14.433 16 16 17.567 16 19.5C16 21.433 14.433 23 12.5 23C10.7368 23 9.27879 21.6961 9.03613 20H7C5.34315 20 4 18.6569 4 17V7C4 5.34315 5.34315 4 7 4H14.0361C14.2788 2.3039 15.7368 1 17.5 1ZM12.5 18C11.6716 18 11 18.6716 11 19.5C11 20.3284 11.6716 21 12.5 21C13.3284 21 14 20.3284 14 19.5C14 18.6716 13.3284 18 12.5 18ZM17.5 11C16.6716 11 16 11.6716 16 12.5C16 13.3284 16.6716 14 17.5 14C18.3284 14 19 13.3284 19 12.5C19 11.6716 18.3284 11 17.5 11ZM17.5 3C16.6716 3 16 3.67157 16 4.5C16 5.32843 16.6716 6 17.5 6C18.3284 6 19 5.32843 19 4.5C19 3.67157 18.3284 3 17.5 3Z" fill="oklch(0.3523 0 0 / 1)" class="wd-icon-fill"></path>
</svg>