<svg width="24" height="24" viewBox="0 0 24 24" xmlns="http://www.w3.org/2000/svg" class="wd-icon wd-icon-edit" role="presentation">
<path d="M15.8584 5.55664C16.5724 4.84314 17.7294 4.84306 18.4434 5.55664C19.1572 6.27063 19.1572 7.42856 18.4434 8.14257L9.36328 17.2217C9.33213 17.2528 9.30917 17.275 9.29199 17.292L6.70703 14.707C6.72423 14.6897 6.74707 14.667 6.77832 14.6357L15.8584 5.55664Z" fill="transparent" class="wd-icon-background"></path>
<path d="M14.4441 4.14258C15.9392 2.64784 18.3632 2.64773 19.8582 4.14258C21.353 5.63771 21.3522 8.06166 19.8572 9.55665L10.7781 18.6357C10.6935 18.7203 10.5823 18.8346 10.4519 18.9316C10.3481 19.0088 10.2366 19.0761 10.1199 19.1318C9.97351 19.2017 9.82189 19.246 9.70776 19.2813L4.29566 20.9551C3.94138 21.0646 3.555 20.9692 3.29273 20.707C3.03054 20.4448 2.93511 20.0584 3.04468 19.7041L4.71851 14.292C4.75385 14.1777 4.7979 14.0255 4.86792 13.8789C4.92373 13.7621 4.99083 13.6507 5.06812 13.5469C5.16518 13.4165 5.27942 13.3063 5.36401 13.2217L14.4441 4.14258ZM18.4431 5.55665C17.7292 4.84303 16.5721 4.84303 15.8582 5.55665L6.77808 14.6357C6.74675 14.6671 6.724 14.6897 6.70679 14.707L9.29175 17.292C9.30894 17.275 9.33181 17.2529 9.36304 17.2217L18.4431 8.14258C19.1571 7.42854 19.1571 6.27067 18.4431 5.55665Z" fill="oklch(0.3523 0 0 / 1)" class="wd-icon-fill"></path>
</svg>