<svg width="24" height="24" viewBox="0 0 24 24" xmlns="http://www.w3.org/2000/svg" class="wd-icon wd-icon-external-link" role="presentation">
<g>
<path d="M9.625 4C10.1772 4 10.6249 4.44783 10.625 5C10.625 5.55228 10.1773 6 9.625 6H8.79981C7.94343 6 7.36117 6.00035 6.91113 6.03711C6.47281 6.07292 6.24819 6.13811 6.0918 6.21777C5.71561 6.40947 5.40952 6.71563 5.21778 7.0918C5.1381 7.24817 5.07294 7.47288 5.03711 7.91113C5.00035 8.36113 5 8.94355 5 9.7998V15.2002C5 16.0564 5.00037 16.6389 5.03711 17.0889C5.07292 17.5271 5.13813 17.7518 5.21778 17.9082C5.40949 18.2844 5.71559 18.5905 6.0918 18.7822C6.2482 18.8619 6.47274 18.9271 6.91113 18.9629C7.36117 18.9997 7.94342 19 8.79981 19H14.2002C15.0566 19 15.6388 18.9997 16.0889 18.9629C16.5273 18.9271 16.7518 18.8619 16.9082 18.7822C17.2844 18.5905 17.5905 18.2844 17.7822 17.9082C17.8619 17.7518 17.9271 17.5271 17.9629 17.0889C17.9996 16.6389 18 16.0564 18 15.2002V14.375C18.0001 13.8228 18.4478 13.375 19 13.375C19.5522 13.375 19.9999 13.8228 20 14.375V15.2002C20 16.0236 20.001 16.7016 19.9561 17.252C19.9101 17.8139 19.8117 18.3312 19.5645 18.8164C19.181 19.5689 18.5689 20.181 17.8164 20.5645C17.3311 20.8117 16.814 20.9101 16.252 20.9561C15.7016 21.001 15.0237 21 14.2002 21H8.79981C7.97632 21 7.29843 21.001 6.74805 20.9561C6.186 20.9101 5.66889 20.8117 5.1836 20.5645C4.43114 20.181 3.819 19.5689 3.43555 18.8164C3.18835 18.3312 3.08987 17.8139 3.04395 17.252C2.999 16.7016 3 16.0236 3 15.2002V9.7998C3 8.97643 2.99898 8.29837 3.04395 7.74805C3.08988 7.18609 3.18831 6.66883 3.43555 6.18359C3.81902 5.43118 4.43115 4.81898 5.1836 4.43555C5.66887 4.18831 6.18603 4.08987 6.74805 4.04395C7.29842 3.99898 7.97633 4 8.79981 4H9.625Z" fill="oklch(0.3523 0 0 / 1)" class="wd-icon-fill"></path>
<path d="M20 3C20.552 3.00019 20.9999 3.44795 21 4V10C20.9999 10.5521 20.5521 10.9999 20 11C19.4479 10.9998 19.0001 10.5521 19 10V6.41406L13.457 11.957C13.0665 12.3473 12.4334 12.3475 12.043 11.957C11.6527 11.5666 11.6528 10.9335 12.043 10.543L17.5859 5H14C13.4479 4.99981 13.0001 4.5521 13 4C13.0001 3.44795 13.448 3.00019 14 3H20Z" fill="oklch(0.3523 0 0 / 1)" class="wd-icon-fill"></path>
</g>
</svg>