<svg width="24" height="24" viewBox="0 0 24 24" xmlns="http://www.w3.org/2000/svg" class="wd-icon wd-icon-progress-indicator" role="presentation">
<g>
<path d="M12 17C12.5523 17 13 17.4477 13 18V21C13 21.5523 12.5523 22 12 22C11.4477 22 11 21.5523 11 21V18C11 17.4477 11.4477 17 12 17Z" fill="oklch(0.3523 0 0 / 1)" class="wd-icon-fill"></path>
<path d="M7.05078 15.5361C7.44131 15.1456 8.07432 15.1456 8.46484 15.5361C8.85537 15.9267 8.85537 16.5597 8.46484 16.9502L6.34375 19.0713C5.95323 19.4618 5.32021 19.4618 4.92969 19.0713C4.53916 18.6808 4.53916 18.0478 4.92969 17.6572L7.05078 15.5361Z" fill="oklch(0.3523 0 0 / 1)" class="wd-icon-fill"></path>
<path d="M15.5352 15.5361C15.9257 15.1456 16.5587 15.1456 16.9492 15.5361L19.0703 17.6572C19.4608 18.0478 19.4608 18.6808 19.0703 19.0713C18.6798 19.4618 18.0468 19.4618 17.6562 19.0713L15.5352 16.9502C15.1446 16.5597 15.1446 15.9267 15.5352 15.5361Z" fill="oklch(0.3523 0 0 / 1)" class="wd-icon-fill"></path>
<path d="M6 11C6.55228 11 7 11.4477 7 12C7 12.5523 6.55228 13 6 13H3C2.44772 13 2 12.5523 2 12C2 11.4477 2.44772 11 3 11H6Z" fill="oklch(0.3523 0 0 / 1)" class="wd-icon-fill"></path>
<path d="M21 11C21.5523 11 22 11.4477 22 12C22 12.5523 21.5523 13 21 13H18C17.4477 13 17 12.5523 17 12C17 11.4477 17.4477 11 18 11H21Z" fill="oklch(0.3523 0 0 / 1)" class="wd-icon-fill"></path>
<path d="M4.92969 4.92871C5.32021 4.53819 5.95323 4.53819 6.34375 4.92871L8.46484 7.0498C8.85537 7.44033 8.85537 8.07334 8.46484 8.46387C8.07432 8.85439 7.44131 8.85439 7.05078 8.46387L4.92969 6.34277C4.53916 5.95225 4.53916 5.31924 4.92969 4.92871Z" fill="oklch(0.3523 0 0 / 1)" class="wd-icon-fill"></path>
<path d="M17.6562 4.92871C18.0468 4.53819 18.6798 4.53819 19.0703 4.92871C19.4608 5.31924 19.4608 5.95225 19.0703 6.34277L16.9492 8.46387C16.5587 8.85439 15.9257 8.85439 15.5352 8.46387C15.1446 8.07334 15.1446 7.44033 15.5352 7.0498L17.6562 4.92871Z" fill="oklch(0.3523 0 0 / 1)" class="wd-icon-fill"></path>
<path d="M12 2C12.5523 2 13 2.44772 13 3V6C13 6.55228 12.5523 7 12 7C11.4477 7 11 6.55228 11 6V3C11 2.44772 11.4477 2 12 2Z" fill="oklch(0.3523 0 0 / 1)" class="wd-icon-fill"></path>
</g>
</svg>