<svg width="24" height="24" viewBox="0 0 24 24" xmlns="http://www.w3.org/2000/svg" class="wd-icon wd-icon-formula" role="presentation">
<g>
<path d="M18.4957 8.3522C18.8537 7.93179 19.4854 7.88098 19.9059 8.23892C20.3262 8.59697 20.3771 9.22863 20.0191 9.64907L16.7008 13.5446L18.6383 17.567C18.8776 18.0645 18.6689 18.6624 18.1715 18.902C17.6741 19.1412 17.0762 18.9314 16.8365 18.4342L15.1334 14.9L11.9273 18.651C11.5683 19.07 10.9367 19.1191 10.5172 18.7604C10.0979 18.4015 10.0493 17.7698 10.4078 17.3502L14.1852 12.9323L12.5006 9.43423C12.2613 8.93686 12.4712 8.33896 12.9684 8.09927C13.4658 7.85996 14.0637 8.06965 14.3033 8.56704L15.7506 11.5729L18.4957 8.3522Z" fill="oklch(0.3523 0 0 / 1)" class="wd-icon-fill"></path>
<path d="M11.0201 3.00063C11.5717 3.0118 12.0099 3.46763 11.9996 4.01919C11.9888 4.57125 11.5321 5.01034 10.9801 4.99966C10.5886 4.99214 10.1929 5.14535 9.99277 5.34243C9.73192 5.59976 9.4903 6.02287 9.31992 6.64028L9.02695 8.00063H9.99961C10.5519 8.00063 10.9996 8.44835 10.9996 9.00063C10.9994 9.55272 10.5517 10.0006 9.99961 10.0006H8.59531L6.82578 18.2106C6.70934 18.7504 6.1771 19.0935 5.6373 18.9772C5.09775 18.8607 4.75466 18.3293 4.8707 17.7897L6.55039 10.0006H5.99961C5.44761 10.0005 4.99984 9.55262 4.99961 9.00063C4.99961 8.44845 5.44746 8.0008 5.99961 8.00063H6.98105L7.37265 6.18618L7.37851 6.16079L7.38535 6.13442C7.61473 5.29081 7.99505 4.50394 8.58847 3.9186C9.24586 3.27056 10.202 2.98464 11.0201 3.00063Z" fill="oklch(0.3523 0 0 / 1)" class="wd-icon-fill"></path>
</g>
</svg>