<svg width="24" height="24" viewBox="0 0 24 24" xmlns="http://www.w3.org/2000/svg" class="wd-icon wd-icon-bar-chart-fill" role="presentation">
<g>
<path d="M6 7.00001C7.10457 7.00001 8 7.89544 8 9.00001V19C8 20.1046 7.10457 21 6 21H5C3.89543 21 3 20.1046 3 19V9.00001C3 7.89544 3.89543 7.00001 5 7.00001H6ZM5 19H6V9.00001H5V19Z" fill="oklch(0.3523 0 0 / 1)" class="wd-icon-fill"></path>
<path d="M12 3.00001C12.2193 3.00001 12.4338 2.99935 12.6152 3.01172C12.8056 3.02471 13.0316 3.05541 13.2656 3.15235C13.7555 3.35533 14.1447 3.74453 14.3477 4.23438C14.4446 4.46842 14.4753 4.6944 14.4883 4.88477C14.5007 5.06616 14.5 5.28072 14.5 5.50001V18.5C14.5 18.7193 14.5007 18.9339 14.4883 19.1152C14.4753 19.3056 14.4446 19.5316 14.3477 19.7656C14.1447 20.2555 13.7555 20.6447 13.2656 20.8477C13.0316 20.9446 12.8056 20.9753 12.6152 20.9883C12.4338 21.0007 12.2193 21 12 21C11.7807 21 11.5662 21.0007 11.3848 20.9883C11.1944 20.9753 10.9684 20.9446 10.7344 20.8477C10.2445 20.6447 9.85533 20.2555 9.65234 19.7656C9.5554 19.5316 9.52471 19.3056 9.51172 19.1152C9.49934 18.9339 9.5 18.7193 9.5 18.5V5.50001C9.5 5.28072 9.49934 5.06616 9.51172 4.88477C9.52471 4.6944 9.5554 4.46842 9.65234 4.23438C9.85533 3.74453 10.2445 3.35533 10.7344 3.15235C10.9684 3.05541 11.1944 3.02471 11.3848 3.01172C11.5662 2.99935 11.7807 3.00001 12 3.00001ZM11.5205 5.00684C11.5164 5.00713 11.5125 5.00753 11.5088 5.00782C11.5085 5.0118 11.5071 5.01598 11.5068 5.02051C11.5002 5.11804 11.5 5.25336 11.5 5.50001V18.5C11.5 18.7467 11.5002 18.882 11.5068 18.9795C11.5071 18.9837 11.5085 18.9875 11.5088 18.9912C11.5125 18.9915 11.5163 18.9929 11.5205 18.9932C11.618 18.9998 11.7533 19 12 19C12.2467 19 12.382 18.9998 12.4795 18.9932C12.484 18.9929 12.4882 18.9915 12.4922 18.9912C12.4925 18.9875 12.4929 18.9836 12.4932 18.9795C12.4998 18.882 12.5 18.7467 12.5 18.5V5.50001C12.5 5.25336 12.4998 5.11804 12.4932 5.02051C12.4929 5.01601 12.4925 5.01178 12.4922 5.00782C12.4882 5.00751 12.484 5.00715 12.4795 5.00684C12.382 5.00019 12.2467 5.00001 12 5.00001C11.7533 5.00001 11.618 5.00019 11.5205 5.00684Z" fill="oklch(0.3523 0 0 / 1)" class="wd-icon-fill"></path>
<path d="M18.5 11C18.7193 11 18.9338 10.9993 19.1152 11.0117C19.3056 11.0247 19.5316 11.0554 19.7656 11.1523C20.2555 11.3553 20.6447 11.7445 20.8477 12.2344C20.9446 12.4684 20.9753 12.6944 20.9883 12.8848C21.0007 13.0662 21 13.2807 21 13.5V18.5C21 18.7193 21.0007 18.9339 20.9883 19.1152C20.9753 19.3056 20.9446 19.5316 20.8477 19.7656C20.6447 20.2555 20.2555 20.6447 19.7656 20.8477C19.5316 20.9446 19.3056 20.9753 19.1152 20.9883C18.9338 21.0007 18.7193 21 18.5 21C18.2807 21 18.0662 21.0007 17.8848 20.9883C17.6944 20.9753 17.4684 20.9446 17.2344 20.8477C16.7445 20.6447 16.3553 20.2555 16.1523 19.7656C16.0554 19.5316 16.0247 19.3056 16.0117 19.1152C15.9993 18.9339 16 18.7193 16 18.5V13.5C16 13.2807 15.9993 13.0662 16.0117 12.8848C16.0247 12.6944 16.0554 12.4684 16.1523 12.2344C16.3553 11.7445 16.7445 11.3553 17.2344 11.1523C17.4684 11.0554 17.6944 11.0247 17.8848 11.0117C18.0662 10.9993 18.2807 11 18.5 11ZM18.0205 13.0068C18.0164 13.0071 18.0125 13.0075 18.0088 13.0078C18.0085 13.0118 18.0071 13.016 18.0068 13.0205C18.0002 13.118 18 13.2534 18 13.5V18.5C18 18.7467 18.0002 18.882 18.0068 18.9795C18.0071 18.9837 18.0085 18.9875 18.0088 18.9912C18.0125 18.9915 18.0163 18.9929 18.0205 18.9932C18.118 18.9998 18.2533 19 18.5 19C18.7467 19 18.882 18.9998 18.9795 18.9932C18.984 18.9929 18.9882 18.9915 18.9922 18.9912C18.9925 18.9875 18.9929 18.9836 18.9932 18.9795C18.9998 18.882 19 18.7467 19 18.5V13.5C19 13.2534 18.9998 13.118 18.9932 13.0205C18.9929 13.016 18.9925 13.0118 18.9922 13.0078C18.9882 13.0075 18.984 13.0072 18.9795 13.0068C18.882 13.0002 18.7467 13 18.5 13C18.2533 13 18.118 13.0002 18.0205 13.0068Z" fill="oklch(0.3523 0 0 / 1)" class="wd-icon-fill"></path>
</g>
<g>
<path d="M12.4795 5.00684C12.484 5.00714 12.4882 5.0075 12.4922 5.00781C12.4925 5.01177 12.4929 5.01601 12.4932 5.02051C12.4998 5.11803 12.5 5.25335 12.5 5.5V18.5C12.5 18.7466 12.4998 18.882 12.4932 18.9795C12.4929 18.9836 12.4925 18.9875 12.4922 18.9912C12.4882 18.9915 12.484 18.9929 12.4795 18.9932C12.382 18.9998 12.2466 19 12 19C11.7534 19 11.618 18.9998 11.5205 18.9932C11.5163 18.9929 11.5125 18.9915 11.5088 18.9912C11.5085 18.9875 11.5071 18.9837 11.5068 18.9795C11.5002 18.882 11.5 18.7466 11.5 18.5V5.5C11.5 5.25335 11.5002 5.11803 11.5068 5.02051C11.5071 5.01598 11.5085 5.0118 11.5088 5.00781C11.5125 5.00753 11.5164 5.00712 11.5205 5.00684C11.618 5.00018 11.7534 5 12 5C12.2466 5 12.382 5.00018 12.4795 5.00684Z" fill="oklch(0.3523 0 0 / 1)" class="wd-icon-accent"></path>
<path d="M18.9795 13.0068C18.984 13.0071 18.9882 13.0075 18.9922 13.0078C18.9925 13.0118 18.9929 13.016 18.9932 13.0205C18.9998 13.118 19 13.2534 19 13.5V18.5C19 18.7466 18.9998 18.882 18.9932 18.9795C18.9929 18.9836 18.9925 18.9875 18.9922 18.9912C18.9882 18.9915 18.984 18.9929 18.9795 18.9932C18.882 18.9998 18.7466 19 18.5 19C18.2534 19 18.118 18.9998 18.0205 18.9932C18.0163 18.9929 18.0125 18.9915 18.0088 18.9912C18.0085 18.9875 18.0071 18.9837 18.0068 18.9795C18.0002 18.882 18 18.7466 18 18.5V13.5C18 13.2534 18.0002 13.118 18.0068 13.0205C18.0071 13.016 18.0085 13.0118 18.0088 13.0078C18.0125 13.0075 18.0164 13.0071 18.0205 13.0068C18.118 13.0002 18.2534 13 18.5 13C18.7466 13 18.882 13.0002 18.9795 13.0068Z" fill="oklch(0.3523 0 0 / 1)" class="wd-icon-accent"></path>
</g>
</svg>