<svg width="24" height="24" viewBox="0 0 24 24" xmlns="http://www.w3.org/2000/svg" class="wd-icon wd-icon-bar-chart-line" role="presentation">
<g>
<path d="M20 19C20.5523 19 21 19.4477 21 20C21 20.5523 20.5523 21 20 21H4.00001C3.44772 21 3.00001 20.5523 3.00001 20C3.00001 19.4477 3.44773 19 4.00001 19H20Z" fill="oklch(0.3523 0 0 / 1)" class="wd-icon-fill"></path>
<path d="M5.50001 6.00001C5.71929 6.00001 5.93385 5.99935 6.11524 6.01172C6.30561 6.02471 6.53159 6.05541 6.76563 6.15235C7.25548 6.35533 7.64468 6.74453 7.84766 7.23438C7.94461 7.46842 7.9753 7.6944 7.98829 7.88477C8.00066 8.06616 8.00001 8.28072 8.00001 8.50001V14.5C8.00001 14.7193 8.00066 14.9339 7.98829 15.1152C7.9753 15.3056 7.94461 15.5316 7.84766 15.7656C7.64468 16.2555 7.25548 16.6447 6.76563 16.8477C6.53159 16.9446 6.30561 16.9753 6.11524 16.9883C5.93385 17.0007 5.71929 17 5.50001 17C5.28072 17 5.06616 17.0007 4.88477 16.9883C4.6944 16.9753 4.46842 16.9446 4.23438 16.8477C3.74453 16.6447 3.35533 16.2555 3.15235 15.7656C3.05541 15.5316 3.02471 15.3056 3.01172 15.1152C2.99935 14.9339 3.00001 14.7193 3.00001 14.5V8.50001C3.00001 8.28072 2.99935 8.06616 3.01172 7.88477C3.02471 7.6944 3.05541 7.46842 3.15235 7.23438C3.35533 6.74453 3.74453 6.35533 4.23438 6.15235C4.46842 6.05541 4.6944 6.02471 4.88477 6.01172C5.06616 5.99935 5.28072 6.00001 5.50001 6.00001ZM5.02051 8.00684C5.01601 8.00715 5.01178 8.00751 5.00782 8.00782C5.00751 8.01178 5.00715 8.01601 5.00684 8.02051C5.00019 8.11804 5.00001 8.25336 5.00001 8.50001V14.5C5.00001 14.7467 5.00019 14.882 5.00684 14.9795C5.00713 14.9836 5.00753 14.9875 5.00782 14.9912C5.0118 14.9915 5.01598 14.9929 5.02051 14.9932C5.11804 14.9998 5.25336 15 5.50001 15C5.74665 15 5.88198 14.9998 5.9795 14.9932C5.98366 14.9929 5.98752 14.9915 5.99122 14.9912C5.99151 14.9875 5.99288 14.9837 5.99317 14.9795C5.99982 14.882 6.00001 14.7467 6.00001 14.5V8.50001C6.00001 8.25336 5.99982 8.11804 5.99317 8.02051C5.99286 8.01598 5.99153 8.0118 5.99122 8.00782C5.98754 8.00753 5.98363 8.00713 5.9795 8.00684C5.88198 8.00019 5.74665 8.00001 5.50001 8.00001C5.25336 8.00001 5.11804 8.00019 5.02051 8.00684Z" fill="oklch(0.3523 0 0 / 1)" class="wd-icon-fill"></path>
<path d="M12 2.00001C12.2193 2.00001 12.4339 1.99935 12.6152 2.01172C12.8056 2.02471 13.0316 2.05541 13.2656 2.15235C13.7555 2.35533 14.1447 2.74453 14.3477 3.23438C14.4446 3.46842 14.4753 3.6944 14.4883 3.88477C14.5007 4.06616 14.5 4.28072 14.5 4.50001V14.5C14.5 14.7193 14.5007 14.9339 14.4883 15.1152C14.4753 15.3056 14.4446 15.5316 14.3477 15.7656C14.1447 16.2555 13.7555 16.6447 13.2656 16.8477C13.0316 16.9446 12.8056 16.9753 12.6152 16.9883C12.4339 17.0007 12.2193 17 12 17C11.7807 17 11.5662 17.0007 11.3848 16.9883C11.1944 16.9753 10.9684 16.9446 10.7344 16.8477C10.2445 16.6447 9.85533 16.2555 9.65235 15.7656C9.55541 15.5316 9.52471 15.3056 9.51172 15.1152C9.49935 14.9339 9.50001 14.7193 9.50001 14.5V4.50001C9.50001 4.28072 9.49935 4.06616 9.51172 3.88477C9.52471 3.6944 9.55541 3.46842 9.65235 3.23438C9.85533 2.74453 10.2445 2.35533 10.7344 2.15235C10.9684 2.05541 11.1944 2.02471 11.3848 2.01172C11.5662 1.99935 11.7807 2.00001 12 2.00001ZM11.5205 4.00684C11.516 4.00715 11.5118 4.00751 11.5078 4.00782C11.5075 4.01178 11.5072 4.01601 11.5068 4.02051C11.5002 4.11804 11.5 4.25336 11.5 4.50001V14.5C11.5 14.7467 11.5002 14.882 11.5068 14.9795C11.5071 14.9836 11.5075 14.9875 11.5078 14.9912C11.5118 14.9915 11.516 14.9929 11.5205 14.9932C11.618 14.9998 11.7534 15 12 15C12.2467 15 12.382 14.9998 12.4795 14.9932C12.4837 14.9929 12.4875 14.9915 12.4912 14.9912C12.4915 14.9875 12.4929 14.9837 12.4932 14.9795C12.4998 14.882 12.5 14.7467 12.5 14.5V4.50001C12.5 4.25336 12.4998 4.11804 12.4932 4.02051C12.4929 4.01598 12.4915 4.0118 12.4912 4.00782C12.4875 4.00753 12.4836 4.00713 12.4795 4.00684C12.382 4.00019 12.2467 4.00001 12 4.00001C11.7534 4.00001 11.618 4.00019 11.5205 4.00684Z" fill="oklch(0.3523 0 0 / 1)" class="wd-icon-fill"></path>
<path d="M18.5 10C18.7193 10 18.9339 9.99935 19.1152 10.0117C19.3056 10.0247 19.5316 10.0554 19.7656 10.1523C20.2555 10.3553 20.6447 10.7445 20.8477 11.2344C20.9446 11.4684 20.9753 11.6944 20.9883 11.8848C21.0007 12.0662 21 12.2807 21 12.5V14.5C21 14.7193 21.0007 14.9339 20.9883 15.1152C20.9753 15.3056 20.9446 15.5316 20.8477 15.7656C20.6447 16.2555 20.2555 16.6447 19.7656 16.8477C19.5316 16.9446 19.3056 16.9753 19.1152 16.9883C18.9339 17.0007 18.7193 17 18.5 17C18.2807 17 18.0662 17.0007 17.8848 16.9883C17.6944 16.9753 17.4684 16.9446 17.2344 16.8477C16.7445 16.6447 16.3553 16.2555 16.1523 15.7656C16.0554 15.5316 16.0247 15.3056 16.0117 15.1152C15.9993 14.9339 16 14.7193 16 14.5V12.5C16 12.2807 15.9993 12.0662 16.0117 11.8848C16.0247 11.6944 16.0554 11.4684 16.1523 11.2344C16.3553 10.7445 16.7445 10.3553 17.2344 10.1523C17.4684 10.0554 17.6944 10.0247 17.8848 10.0117C18.0662 9.99935 18.2807 10 18.5 10ZM18.0205 12.0068C18.016 12.0072 18.0118 12.0075 18.0078 12.0078C18.0075 12.0118 18.0072 12.016 18.0068 12.0205C18.0002 12.118 18 12.2534 18 12.5V14.5C18 14.7467 18.0002 14.882 18.0068 14.9795C18.0071 14.9836 18.0075 14.9875 18.0078 14.9912C18.0118 14.9915 18.016 14.9929 18.0205 14.9932C18.118 14.9998 18.2534 15 18.5 15C18.7467 15 18.882 14.9998 18.9795 14.9932C18.9837 14.9929 18.9875 14.9915 18.9912 14.9912C18.9915 14.9875 18.9929 14.9837 18.9932 14.9795C18.9998 14.882 19 14.7467 19 14.5V12.5C19 12.2534 18.9998 12.118 18.9932 12.0205C18.9929 12.016 18.9915 12.0118 18.9912 12.0078C18.9875 12.0075 18.9836 12.0071 18.9795 12.0068C18.882 12.0002 18.7467 12 18.5 12C18.2534 12 18.118 12.0002 18.0205 12.0068Z" fill="oklch(0.3523 0 0 / 1)" class="wd-icon-fill"></path>
</g>
</svg>