<svg width="24" height="24" viewBox="0 0 24 24" xmlns="http://www.w3.org/2000/svg" class="wd-icon wd-icon-table-filter" role="presentation">
<path d="M16.2002 4C17.0237 4 17.7016 3.99898 18.252 4.04395C18.814 4.08988 19.3311 4.18828 19.8164 4.43555C20.4749 4.77109 21.0258 5.28167 21.4102 5.90821C21.4651 5.99769 21.5165 6.08955 21.5645 6.1836C21.5954 6.24428 21.6239 6.30548 21.6504 6.36719C21.7826 6.67564 21.8613 6.99716 21.9102 7.33496C21.9297 7.46999 21.9446 7.60761 21.9561 7.74805C21.9673 7.8855 21.9752 8.03093 21.9815 8.18457C21.9877 8.33864 21.9924 8.50097 21.9951 8.67188C22.0005 9.01298 22 9.38821 22 9.79981V11C22 11.0346 21.9986 11.0688 21.9951 11.1025C21.9438 11.6067 21.5177 12 21 12C20.4823 12 20.0562 11.6067 20.0049 11.1025C20.0015 11.0688 20 11.0346 20 11V10.5H12.75V18.25C12.75 19.176 12.0305 19.9304 11.1201 19.9922C11.0807 19.9969 11.0407 20 11 20H7.79982C7.18199 20 6.64614 20.0001 6.18458 19.9814C6.03094 19.9752 5.88551 19.9673 5.74806 19.9561C5.60762 19.9446 5.47 19.9297 5.33497 19.9102C4.99717 19.8613 4.67565 19.7826 4.3672 19.6504C4.30549 19.6239 4.24429 19.5954 4.1836 19.5645C4.08956 19.5165 3.9977 19.4651 3.90821 19.4102C3.37116 19.0807 2.9193 18.6289 2.58985 18.0918C2.53496 18.0023 2.48348 17.9105 2.43556 17.8164C2.37374 17.6951 2.32109 17.5718 2.27638 17.4463C2.18693 17.1952 2.12895 16.9353 2.08985 16.665C2.07032 16.53 2.05543 16.3924 2.04396 16.252C2.03273 16.1145 2.02479 15.9691 2.01857 15.8154C2.01232 15.6614 2.00758 15.499 2.00489 15.3281C1.99953 14.987 2.00001 14.6118 2.00001 14.2002V9.79981C2.00001 9.38821 1.99953 9.01298 2.00489 8.67188C2.00758 8.50097 2.01232 8.33864 2.01857 8.18457C2.02479 8.03093 2.03273 7.8855 2.04396 7.74805C2.05543 7.60761 2.07032 7.46999 2.08985 7.33496C2.13872 6.99716 2.21739 6.67564 2.34962 6.36719C2.37607 6.30548 2.40464 6.24428 2.43556 6.1836C2.48348 6.08955 2.53496 5.99769 2.58985 5.90821C2.97419 5.28166 3.52515 4.77109 4.1836 4.43555C4.30494 4.37373 4.42821 4.32109 4.55372 4.27637C4.93023 4.14223 5.32652 4.07839 5.74806 4.04395C6.29844 3.99898 6.97633 4 7.79982 4H16.2002ZM4.00392 15C4.00692 15.4455 4.01314 15.7953 4.03712 16.0889C4.07294 16.5273 4.1381 16.7518 4.21778 16.9082C4.40952 17.2845 4.71556 17.5905 5.09181 17.7822C5.24821 17.8619 5.47273 17.9271 5.91114 17.9629C6.36118 17.9997 6.94343 18 7.79982 18H11.25V15H4.00392ZM4.00001 13.5H11.25V10.5H4.00001V13.5ZM7.79982 6C6.94343 6 6.36118 6.00035 5.91114 6.03711C5.47273 6.07293 5.24821 6.13809 5.09181 6.21778C4.71556 6.40951 4.40952 6.71555 4.21778 7.0918C4.1381 7.2482 4.07294 7.47272 4.03712 7.91113C4.01314 8.2047 4.00692 8.55453 4.00392 9H11.25V6H7.79982ZM12.75 9H19.9961C19.9931 8.55454 19.9869 8.2047 19.9629 7.91113C19.9271 7.47272 19.8619 7.2482 19.7822 7.0918C19.5905 6.71555 19.2845 6.40951 18.9082 6.21778C18.7518 6.13809 18.5273 6.07293 18.0889 6.03711C17.6388 6.00035 17.0566 6 16.2002 6H12.75V9Z" fill="oklch(0.3523 0 0 / 1)" class="wd-icon-fill"></path>
<path d="M20.1027 13C20.6298 13 21.0775 12.9997 21.4249 13.0313C21.7157 13.0577 22.0566 13.1134 22.3517 13.2998L22.4747 13.3877L22.6232 13.5215C22.9026 13.8049 23.0768 14.1757 23.1173 14.5713L23.1261 14.7705C23.1211 15.1816 22.9209 15.5321 22.7325 15.8076C22.5356 16.0957 22.25 16.4402 21.9142 16.8467L20.5001 18.5576V19.543C20.5001 19.8332 20.3989 20.1128 20.2169 20.335L20.1339 20.4268L18.6339 21.9268C17.8463 22.714 16.5003 22.1562 16.5001 21.043V18.5586L15.0851 16.8467C14.7493 16.4402 14.4637 16.0957 14.2667 15.8076C14.1019 15.5665 13.9281 15.268 13.8839 14.9219L13.8732 14.7705C13.8669 14.2344 14.1071 13.7245 14.5245 13.3877L14.6476 13.2998C14.9426 13.1133 15.2835 13.0577 15.5743 13.0313C15.9217 12.9997 16.3695 13 16.8966 13H20.1027ZM16.8966 14.5C16.3399 14.5 15.9734 14.5005 15.7101 14.5244C15.5467 14.5393 15.475 14.5603 15.4532 14.5674C15.4061 14.6113 15.3777 14.6718 15.3741 14.7363C15.3829 14.7584 15.4132 14.8267 15.505 14.9609C15.6543 15.1792 15.8867 15.4623 16.2413 15.8916L17.8282 17.8115C17.9393 17.9459 18.0001 18.1147 18.0001 18.2891V20.4395L19.0001 19.4395V18.2891C19.0001 18.1148 19.0611 17.9459 19.172 17.8115L20.7579 15.8916C21.1125 15.4624 21.345 15.1793 21.4943 14.9609C21.5855 14.8275 21.6152 14.7589 21.6241 14.7363C21.6206 14.6708 21.5923 14.6104 21.5441 14.5664C21.5197 14.5587 21.4472 14.5388 21.2892 14.5244C21.0258 14.5005 20.6594 14.5 20.1027 14.5H16.8966Z" fill="oklch(0.3523 0 0 / 1)" class="wd-icon-accent"></path>
</svg>