<svg width="24" height="24" viewBox="0 0 24 24" xmlns="http://www.w3.org/2000/svg" class="wd-icon wd-icon-italics" role="presentation">
<path d="M16.875 3C17.4963 3 18 3.50368 18 4.125C18 4.74632 17.4963 5.25 16.875 5.25H14.5098L11.6152 18.75H13.875C14.4963 18.75 15 19.2537 15 19.875C15 20.4963 14.4963 21 13.875 21H7.125C6.50368 21 6 20.4963 6 19.875C6 19.2537 6.50368 18.75 7.125 18.75H9.31445L12.209 5.25H10.125C9.50368 5.25 9 4.74632 9 4.125C9 3.50368 9.50368 3 10.125 3H16.875Z" fill="oklch(0.3523 0 0 / 1)" class="wd-icon-fill"></path>
</svg>