<svg width="24" height="24" viewBox="0 0 24 24" xmlns="http://www.w3.org/2000/svg" class="wd-icon wd-icon-flow" role="presentation">
<g>
<path d="M9.5 4.00098C9.77614 4.00098 10 4.22483 10 4.50098V5.50098C10 5.77712 9.77614 6.00098 9.5 6.00098H7.41504L12.707 11.293C12.8945 11.4804 12.9999 11.7349 13 12V19.5C13 19.7761 12.7761 20 12.5 20H11.5C11.2239 19.9999 11 19.7761 11 19.5V12.6211C11 12.4885 10.9473 12.3613 10.8535 12.2676L6 7.41406V9.50098C6 9.77712 5.77614 10.001 5.5 10.001H4.5C4.22397 10.0008 4 9.77704 4 9.50098V4.50098C4 4.22492 4.22397 4.00111 4.5 4.00098H9.5Z" fill="oklch(0.3523 0 0 / 1)" class="wd-icon-fill"></path>
<path d="M19.5 4.00098C19.7761 4.00098 20 4.22483 20 4.50098V9.50098C20 9.77712 19.7761 10.001 19.5 10.001H18.5C18.224 10.0008 18 9.77704 18 9.50098V7.41406L15.0605 10.3535C14.8653 10.5487 14.5488 10.5487 14.3535 10.3535L13.6465 9.64648C13.4513 9.45123 13.4513 9.13471 13.6465 8.93945L16.585 6.00098H14.5C14.224 6.00084 14 5.77704 14 5.50098V4.50098C14 4.22492 14.224 4.00111 14.5 4.00098H19.5Z" fill="oklch(0.3523 0 0 / 1)" class="wd-icon-fill"></path>
</g>
</svg>