<svg width="24" height="24" viewBox="0 0 24 24" xmlns="http://www.w3.org/2000/svg" class="wd-icon wd-icon-substitute" role="presentation">
<path d="M17 15C17.4796 15 17.7894 15.0004 18.0264 15.0166C18.2543 15.0322 18.3412 15.0589 18.3828 15.0762C18.6277 15.1777 18.8223 15.3723 18.9238 15.6172C18.9411 15.6588 18.9678 15.7457 18.9834 15.9736C18.9996 16.2106 19 16.5204 19 17C19 17.4796 18.9996 17.7894 18.9834 18.0264C18.9678 18.2543 18.9411 18.3412 18.9238 18.3828C18.8223 18.6277 18.6277 18.8223 18.3828 18.9238C18.3412 18.9411 18.2543 18.9678 18.0264 18.9834C17.7894 18.9996 17.4796 19 17 19C16.5204 19 16.2106 18.9996 15.9736 18.9834C15.7457 18.9678 15.6588 18.9411 15.6172 18.9238C15.3723 18.8223 15.1777 18.6277 15.0762 18.3828C15.0589 18.3412 15.0322 18.2543 15.0166 18.0264C15.0004 17.7894 15 17.4796 15 17C15 16.5204 15.0004 16.2106 15.0166 15.9736C15.0322 15.7457 15.0589 15.6588 15.0762 15.6172C15.1777 15.3723 15.3723 15.1777 15.6172 15.0762C15.6588 15.0589 15.7457 15.0322 15.9736 15.0166C16.2106 15.0004 16.5204 15 17 15Z" fill="transparent" class="wd-icon-background"></path>
<g>
<path d="M8 14C8.55206 14.0002 8.99987 14.4479 9 15C8.99992 15.5521 8.55209 15.9998 8 16H6.41797C6.75475 16.7712 7.28211 17.4496 7.95605 17.9668C8.82918 18.6367 9.8995 19 11 19C11.5521 19.0002 11.9999 19.4479 12 20C11.9999 20.5521 11.5521 20.9998 11 21C9.45923 21 7.9607 20.4916 6.73828 19.5537C6.0368 19.0154 5.44937 18.3518 5 17.6035V19C4.99992 19.5521 4.55209 19.9998 4 20C3.44791 19.9998 3.00008 19.5521 3 19V15C3.00013 14.4479 3.44794 14.0002 4 14H8Z" fill="oklch(0.3523 0 0 / 1)" class="wd-icon-fill"></path>
<path d="M17 13C17.4521 13 17.8413 12.9996 18.1621 13.0215C18.4919 13.044 18.8225 13.0935 19.1484 13.2285C19.8832 13.533 20.467 14.1168 20.7715 14.8516C20.9065 15.1775 20.956 15.5081 20.9785 15.8379C21.0004 16.1587 21 16.5479 21 17C21 17.4521 21.0004 17.8413 20.9785 18.1621C20.956 18.4919 20.9065 18.8225 20.7715 19.1484C20.467 19.8832 19.8832 20.467 19.1484 20.7715C18.8225 20.9065 18.4919 20.956 18.1621 20.9785C17.8413 21.0004 17.4521 21 17 21C16.5479 21 16.1587 21.0004 15.8379 20.9785C15.5081 20.956 15.1775 20.9065 14.8516 20.7715C14.1168 20.467 13.533 19.8832 13.2285 19.1484C13.0935 18.8225 13.044 18.4919 13.0215 18.1621C12.9996 17.8413 13 17.4521 13 17C13 16.5479 12.9996 16.1587 13.0215 15.8379C13.044 15.5081 13.0935 15.1775 13.2285 14.8516C13.533 14.1168 14.1168 13.533 14.8516 13.2285C15.1775 13.0935 15.5081 13.044 15.8379 13.0215C16.1587 12.9996 16.5479 13 17 13ZM17 15C16.5204 15 16.2106 15.0004 15.9736 15.0166C15.7457 15.0322 15.6588 15.0589 15.6172 15.0762C15.3723 15.1777 15.1777 15.3723 15.0762 15.6172C15.0589 15.6588 15.0322 15.7457 15.0166 15.9736C15.0004 16.2106 15 16.5204 15 17C15 17.4796 15.0004 17.7894 15.0166 18.0264C15.0322 18.2543 15.0589 18.3412 15.0762 18.3828C15.1777 18.6277 15.3723 18.8223 15.6172 18.9238C15.6588 18.9411 15.7457 18.9678 15.9736 18.9834C16.2106 18.9996 16.5204 19 17 19C17.4796 19 17.7894 18.9996 18.0264 18.9834C18.2543 18.9678 18.3412 18.9411 18.3828 18.9238C18.6277 18.8223 18.8223 18.6277 18.9238 18.3828C18.9411 18.3412 18.9678 18.2543 18.9834 18.0264C18.9996 17.7894 19 17.4796 19 17C19 16.5204 18.9996 16.2106 18.9834 15.9736C18.9678 15.7457 18.9411 15.6588 18.9238 15.6172C18.8223 15.3723 18.6277 15.1777 18.3828 15.0762C18.3412 15.0589 18.2543 15.0322 18.0264 15.0166C17.7894 15.0004 17.4796 15 17 15Z" fill="oklch(0.3523 0 0 / 1)" class="wd-icon-fill"></path>
<path d="M13 3C14.5409 3.00004 16.0393 3.50829 17.2617 4.44629C18.1315 5.11377 18.8261 5.97317 19.2988 6.94922L19.7334 5.32617C19.8764 4.79281 20.4246 4.4763 20.958 4.61914C21.4914 4.76212 21.8079 5.31036 21.665 5.84375L20.6299 9.70801C20.4867 10.241 19.9384 10.5577 19.4053 10.415L15.541 9.37891C15.0079 9.23577 14.6912 8.68754 14.834 8.1543C14.977 7.62117 15.5254 7.30469 16.0586 7.44727L17.5059 7.83496C17.168 7.13206 16.6694 6.51315 16.0439 6.0332C15.1708 5.36322 14.1006 5.00004 13 5C12.4479 4.9999 12.0001 4.55216 12 4C12.0001 3.44784 12.4479 3.0001 13 3Z" fill="oklch(0.3523 0 0 / 1)" class="wd-icon-fill"></path>
</g>
<path d="M6 3C6.45214 3 6.84131 2.99961 7.16211 3.02148C7.49194 3.04399 7.82251 3.09351 8.14844 3.22852C8.88321 3.53299 9.46701 4.11679 9.77148 4.85156C9.90649 5.17749 9.95601 5.50806 9.97852 5.83789C10.0004 6.15869 10 6.54786 10 7C10 7.45214 10.0004 7.84131 9.97852 8.16211C9.95601 8.49194 9.90649 8.82251 9.77148 9.14844C9.46701 9.88321 8.88321 10.467 8.14844 10.7715C7.82251 10.9065 7.49194 10.956 7.16211 10.9785C6.84131 11.0004 6.45214 11 6 11C5.54786 11 5.15869 11.0004 4.83789 10.9785C4.50806 10.956 4.17749 10.9065 3.85156 10.7715C3.11679 10.467 2.53299 9.88321 2.22852 9.14844C2.09351 8.82251 2.04399 8.49194 2.02148 8.16211C1.99961 7.84131 2 7.45214 2 7C2 6.54786 1.99961 6.15869 2.02148 5.83789C2.04399 5.50806 2.09351 5.17749 2.22852 4.85156C2.53299 4.11679 3.11679 3.53299 3.85156 3.22852C4.17749 3.09351 4.50806 3.04399 4.83789 3.02148C5.15869 2.99961 5.54786 3 6 3Z" fill="oklch(0.3523 0 0 / 1)" class="wd-icon-accent"></path>
</svg>