<svg width="24" height="24" viewBox="0 0 24 24" xmlns="http://www.w3.org/2000/svg" class="wd-icon wd-icon-calculator" role="presentation">
<g>
<path d="M9.25 16.5C9.66421 16.5 9.99999 16.8358 10 17.25C10 17.6642 9.66422 18 9.25 18H8.25C7.83579 18 7.5 17.6642 7.5 17.25C7.50001 16.8358 7.8358 16.5 8.25 16.5H9.25Z" fill="oklch(0.3523 0 0 / 1)" class="wd-icon-fill"></path>
<path d="M12.5 16.5C12.9142 16.5 13.25 16.8358 13.25 17.25C13.25 17.6642 12.9142 18 12.5 18H11.5C11.0858 18 10.75 17.6642 10.75 17.25C10.75 16.8358 11.0858 16.5 11.5 16.5H12.5Z" fill="oklch(0.3523 0 0 / 1)" class="wd-icon-fill"></path>
<path d="M15.75 16.5C16.1642 16.5 16.5 16.8358 16.5 17.25C16.5 17.6642 16.1642 18 15.75 18H14.75C14.3358 18 14 17.6642 14 17.25C14 16.8358 14.3358 16.5 14.75 16.5H15.75Z" fill="oklch(0.3523 0 0 / 1)" class="wd-icon-fill"></path>
<path d="M9.25 13.5C9.66421 13.5 9.99999 13.8358 10 14.25C10 14.6642 9.66422 15 9.25 15H8.25C7.83579 15 7.5 14.6642 7.5 14.25C7.50001 13.8358 7.8358 13.5 8.25 13.5H9.25Z" fill="oklch(0.3523 0 0 / 1)" class="wd-icon-fill"></path>
<path d="M12.5 13.5C12.9142 13.5 13.25 13.8358 13.25 14.25C13.25 14.6642 12.9142 15 12.5 15H11.5C11.0858 15 10.75 14.6642 10.75 14.25C10.75 13.8358 11.0858 13.5 11.5 13.5H12.5Z" fill="oklch(0.3523 0 0 / 1)" class="wd-icon-fill"></path>
<path d="M15.75 13.5C16.1642 13.5 16.5 13.8358 16.5 14.25C16.5 14.6642 16.1642 15 15.75 15H14.75C14.3358 15 14 14.6642 14 14.25C14 13.8358 14.3358 13.5 14.75 13.5H15.75Z" fill="oklch(0.3523 0 0 / 1)" class="wd-icon-fill"></path>
<path d="M9.25 10.5C9.66421 10.5 9.99999 10.8358 10 11.25C10 11.6642 9.66422 12 9.25 12H8.25C7.83579 12 7.5 11.6642 7.5 11.25C7.50001 10.8358 7.8358 10.5 8.25 10.5H9.25Z" fill="oklch(0.3523 0 0 / 1)" class="wd-icon-fill"></path>
<path d="M12.5 10.5C12.9142 10.5 13.25 10.8358 13.25 11.25C13.25 11.6642 12.9142 12 12.5 12H11.5C11.0858 12 10.75 11.6642 10.75 11.25C10.75 10.8358 11.0858 10.5 11.5 10.5H12.5Z" fill="oklch(0.3523 0 0 / 1)" class="wd-icon-fill"></path>
<path d="M15.75 10.5C16.1642 10.5 16.5 10.8358 16.5 11.25C16.5 11.6642 16.1642 12 15.75 12H14.75C14.3358 12 14 11.6642 14 11.25C14 10.8358 14.3358 10.5 14.75 10.5H15.75Z" fill="oklch(0.3523 0 0 / 1)" class="wd-icon-fill"></path>
<path d="M15.5 6C15.9659 6 16.199 6.00005 16.3828 6.07617C16.6277 6.17766 16.8223 6.37227 16.9238 6.61719C16.9999 6.80096 17 7.03407 17 7.5C17 7.96594 17 8.19904 16.9238 8.38281C16.8223 8.62774 16.6277 8.82234 16.3828 8.92383C16.199 8.99995 15.9659 9 15.5 9H8.5C8.03406 9 7.80096 8.99995 7.61719 8.92383C7.37226 8.82234 7.17766 8.62774 7.07617 8.38281C7.00005 8.19904 7 7.96594 7 7.5C7 7.03407 7.00005 6.80096 7.07617 6.61719C7.17767 6.37227 7.37227 6.17766 7.61719 6.07617C7.80096 6.00005 8.03406 6 8.5 6H15.5Z" fill="oklch(0.3523 0 0 / 1)" class="wd-icon-fill"></path>
<path d="M14.2002 2C15.0237 2 15.7016 1.99898 16.252 2.04395C16.814 2.08988 17.3311 2.18828 17.8164 2.43555C18.5689 2.81902 19.181 3.43109 19.5645 4.1836C19.8117 4.6689 19.9101 5.18599 19.9561 5.74805C20.001 6.29843 20 6.97632 20 7.79981V16.2002C20 17.0237 20.001 17.7016 19.9561 18.252C19.9101 18.814 19.8117 19.3311 19.5645 19.8164C19.181 20.5689 18.5689 21.181 17.8164 21.5645C17.3311 21.8117 16.814 21.9101 16.252 21.9561C15.7016 22.001 15.0237 22 14.2002 22H9.79981C8.97632 22 8.29843 22.001 7.74805 21.9561C7.18599 21.9101 6.6689 21.8117 6.1836 21.5645C5.43109 21.181 4.81902 20.5689 4.43555 19.8164C4.18828 19.3311 4.08988 18.814 4.04395 18.252C3.99898 17.7016 4 17.0237 4 16.2002V7.79981C4 6.97632 3.99898 6.29843 4.04395 5.74805C4.08988 5.18599 4.18827 4.6689 4.43555 4.1836C4.81902 3.43109 5.43109 2.81902 6.1836 2.43555C6.6689 2.18828 7.186 2.08988 7.74805 2.04395C8.29843 1.99898 8.97632 2 9.79981 2H14.2002ZM9.79981 4C8.94342 4 8.36117 4.00035 7.91113 4.03711C7.47273 4.07293 7.2482 4.13809 7.0918 4.21778C6.71555 4.40951 6.40951 4.71555 6.21778 5.0918C6.13809 5.2482 6.07293 5.47273 6.03711 5.91113C6.00035 6.36117 6 6.94343 6 7.79981V16.2002C6 17.0566 6.00035 17.6388 6.03711 18.0889C6.07293 18.5273 6.13809 18.7518 6.21778 18.9082C6.40951 19.2845 6.71555 19.5905 7.0918 19.7822C7.2482 19.8619 7.47272 19.9271 7.91113 19.9629C8.36117 19.9997 8.94342 20 9.79981 20H14.2002C15.0566 20 15.6388 19.9997 16.0889 19.9629C16.5273 19.9271 16.7518 19.8619 16.9082 19.7822C17.2845 19.5905 17.5905 19.2845 17.7822 18.9082C17.8619 18.7518 17.9271 18.5273 17.9629 18.0889C17.9997 17.6388 18 17.0566 18 16.2002V7.79981C18 6.94343 17.9997 6.36117 17.9629 5.91113C17.9271 5.47273 17.8619 5.2482 17.7822 5.0918C17.5905 4.71555 17.2845 4.40951 16.9082 4.21778C16.7518 4.13809 16.5273 4.07293 16.0889 4.03711C15.6388 4.00035 15.0566 4 14.2002 4H9.79981Z" fill="oklch(0.3523 0 0 / 1)" class="wd-icon-fill"></path>
</g>
</svg>