<svg width="24" height="24" viewBox="0 0 24 24" xmlns="http://www.w3.org/2000/svg" class="wd-icon wd-icon-paperclip" role="presentation">
<path d="M12.8841 2.27691C14.6414 0.519614 17.491 0.519737 19.2484 2.27691C21.0057 4.03427 21.0057 6.88381 19.2484 8.64117L9.70249 18.1871C8.6286 19.2609 6.88776 19.2608 5.81382 18.1871C4.73989 17.1131 4.73992 15.3723 5.81382 14.2984L13.2376 6.87359C13.4329 6.67833 13.7504 6.67833 13.9457 6.87359L14.6527 7.58062C14.8476 7.77586 14.8477 8.09247 14.6527 8.28765L7.22788 15.7125C6.93503 16.0054 6.935 16.4801 7.22788 16.773C7.52077 17.0657 7.99559 17.0658 8.28843 16.773L17.8343 7.22711C18.8106 6.2508 18.8106 4.66728 17.8343 3.69097C16.8581 2.71498 15.2754 2.71512 14.2992 3.69097L4.39975 13.5904C2.74003 15.2501 2.74003 17.9414 4.39975 19.6011C6.05949 21.2607 8.74985 21.2608 10.4095 19.6011L18.1878 11.8228C18.3831 11.6277 18.6996 11.6278 18.8949 11.8228L19.6019 12.5298C19.7971 12.7251 19.797 13.0416 19.6019 13.2369L11.8236 21.0152C9.3828 23.456 5.42549 23.456 2.98472 21.0152C0.544259 18.5744 0.544055 14.617 2.98472 12.1763L12.8841 2.27691Z" fill="oklch(0.3523 0 0 / 1)" class="wd-icon-fill"></path>
</svg>