<svg width="24" height="24" viewBox="0 0 24 24" xmlns="http://www.w3.org/2000/svg" class="wd-icon wd-icon-move-row-up" role="presentation">
<g>
<path d="M21.5 19.0005C21.7761 19.0005 22 19.2244 22 19.5005V20.5005C21.9999 20.7766 21.7761 21.0005 21.5 21.0005H2.5C2.22393 21.0005 2.00012 20.7766 2 20.5005V19.5005C2 19.2244 2.22386 19.0005 2.5 19.0005H21.5Z" fill="oklch(0.3523 0 0 / 1)" class="wd-icon-fill"></path>
<path d="M10.5 3.00052C11.3284 3.00052 12 3.67209 12 4.50052V15.5005C11.9999 16.3288 11.3284 17.0005 10.5 17.0005H3.5C2.67165 17.0005 2.00013 16.3288 2 15.5005V4.50052C2 3.67209 2.67157 3.00052 3.5 3.00052H10.5ZM4 15.0005H10V13.0005H4V15.0005ZM4 11.0005H10V9.00052H4V11.0005ZM4 7.00052H10V5.00052H4V7.00052Z" fill="oklch(0.3523 0 0 / 1)" class="wd-icon-fill"></path>
<path d="M17.3672 3.2261C17.6893 2.96291 18.1352 2.92921 18.4883 3.1265C18.5389 3.15477 18.5876 3.18836 18.6338 3.2261L21.7471 5.77298C21.9605 5.94792 21.9921 6.2635 21.8174 6.47708L21.5 6.8638L21.1836 7.25052C21.0089 7.46423 20.6942 7.49544 20.4805 7.32083L19 6.10989V16.5005C18.9999 16.7766 18.7761 17.0005 18.5 17.0005H17.5C17.2239 17.0005 17.0001 16.7766 17 16.5005V6.10989L15.5205 7.32083C15.3069 7.49558 14.9923 7.46387 14.8174 7.25052L14.1846 6.47708C14.0097 6.2634 14.0412 5.94787 14.2549 5.77298L17.3672 3.2261Z" fill="oklch(0.3523 0 0 / 1)" class="wd-icon-fill"></path>
</g>
</svg>