<svg width="24" height="24" viewBox="0 0 24 24" xmlns="http://www.w3.org/2000/svg" class="wd-icon wd-icon-txt" role="presentation">
<g>
<path d="M7.25 8.00003C7.6642 8.00003 7.99997 8.33584 8 8.75003C8 9.16425 7.66421 9.50003 7.25 9.50003H5.78125V15.25C5.78125 15.6642 5.44546 16 5.03125 16C4.61704 16 4.28125 15.6642 4.28125 15.25V9.50003H2.75C2.33579 9.50003 2 9.16425 2 8.75003C2.00003 8.33584 2.3358 8.00003 2.75 8.00003H7.25Z" fill="oklch(0.3523 0 0 / 1)" class="wd-icon-fill"></path>
<path d="M13.4521 8.33988C13.6786 7.9932 14.1435 7.8957 14.4902 8.1221C14.8369 8.34859 14.9344 8.81341 14.708 9.16019L12.9697 11.8203L14.9424 14.8399C15.1688 15.1867 15.0714 15.6515 14.7246 15.878C14.3778 16.1044 13.913 16.007 13.6865 15.6602L12.001 13.0791L10.3105 15.6612C10.0835 16.0075 9.61885 16.104 9.27246 15.877C8.92618 15.6499 8.82964 15.1853 9.05664 14.8389L11.0361 11.8174L9.2998 9.16019C9.07336 8.81347 9.1709 8.34866 9.51758 8.1221C9.86428 7.89565 10.3291 7.99323 10.5557 8.33988L12.0039 10.5547L13.4521 8.33988Z" fill="oklch(0.3523 0 0 / 1)" class="wd-icon-fill"></path>
<path d="M21.25 8.00003C21.6642 8.00003 22 8.33584 22 8.75003C22 9.16425 21.6642 9.50003 21.25 9.50003H19.7812V15.25C19.7812 15.6642 19.4455 16 19.0312 16C18.617 16 18.2812 15.6642 18.2812 15.25V9.50003H16.75C16.3358 9.50003 16 9.16425 16 8.75003C16 8.33584 16.3358 8.00003 16.75 8.00003H21.25Z" fill="oklch(0.3523 0 0 / 1)" class="wd-icon-fill"></path>
</g>
</svg>