<svg width="24" height="24" viewBox="0 0 24 24" xmlns="http://www.w3.org/2000/svg" class="wd-icon wd-icon-globe" role="presentation">
<path d="M12 1C18.0751 1 23 5.92487 23 12C23 18.0751 18.0751 23 12 23C5.92487 23 1 18.0751 1 12C1 5.92487 5.92487 1 12 1ZM8.58203 16C9.0917 17.7126 9.92096 19.286 11 20.6553V16H8.58203ZM13 16V20.6553C14.079 19.286 14.9083 17.7126 15.418 16H13ZM3.9375 16C4.85184 17.8394 6.37651 19.32 8.24707 20.1797C7.47983 18.8922 6.88797 17.4881 6.50488 16H3.9375ZM17.4951 16C17.112 17.4882 16.5193 18.8921 15.752 20.1797C17.6229 19.3201 19.148 17.8397 20.0625 16H17.4951ZM3.22559 10C3.07955 10.6434 3 11.3124 3 12C3 12.6876 3.07955 13.3566 3.22559 14H6.12402C6.04228 13.3448 6 12.6773 6 12C6 11.3227 6.04228 10.6552 6.12402 10H3.22559ZM8.1416 10C8.04823 10.6531 8 11.3209 8 12C8 12.6791 8.04823 13.3469 8.1416 14H11V10H8.1416ZM13 14H15.8584C15.9518 13.3469 16 12.6791 16 12C16 11.3209 15.9518 10.6531 15.8584 10H13V14ZM17.876 10C17.9577 10.6552 18 11.3227 18 12C18 12.6773 17.9577 13.3448 17.876 14H20.7744C20.9205 13.3566 21 12.6876 21 12C21 11.3124 20.9205 10.6434 20.7744 10H17.876ZM8.24707 3.81934C6.37634 4.67896 4.8519 6.16047 3.9375 8H6.50488C6.88804 6.51164 7.47962 5.10698 8.24707 3.81934ZM11 3.34375C9.92073 4.71318 9.09177 6.28718 8.58203 8H11V3.34375ZM13 8H15.418C14.9082 6.28718 14.0793 4.71318 13 3.34375V8ZM15.752 3.81934C16.5195 5.10709 17.1119 6.51147 17.4951 8H20.0625C19.148 6.1602 17.6231 4.6789 15.752 3.81934Z" fill="oklch(0.3523 0 0 / 1)" class="wd-icon-fill"></path>
</svg>