<svg width="24" height="24" viewBox="0 0 24 24" xmlns="http://www.w3.org/2000/svg" class="wd-icon wd-icon-join-left" role="presentation">
<g>
<path d="M7.5 5C8.70243 5 9.82814 5.327 10.7939 5.89648C9.37834 7.33783 8.5 9.31643 8.5 11.5C8.5 13.6834 9.37914 15.6606 10.7939 17.1016C9.82807 17.6715 8.70283 18 7.5 18C3.91015 18 1 15.0899 1 11.5C1 7.91015 3.91015 5 7.5 5Z" fill="oklch(0.3523 0 0 / 1)" class="wd-icon-fill"></path>
<path d="M16.5 5C20.0899 5 23 7.91015 23 11.5C23 15.0899 20.0899 18 16.5 18C15.2969 18 14.1711 17.6718 13.2051 17.1016C13.5605 16.7396 13.8808 16.3435 14.1631 15.9189C14.8607 16.2888 15.6554 16.5 16.5 16.5C19.2614 16.5 21.5 14.2614 21.5 11.5C21.5 8.73858 19.2614 6.5 16.5 6.5C15.6561 6.5 14.8614 6.70994 14.1641 7.0791C13.8817 6.65445 13.5607 6.25851 13.2051 5.89648C14.171 5.32674 15.2973 5 16.5 5Z" fill="oklch(0.3523 0 0 / 1)" class="wd-icon-fill"></path>
<path d="M12 6.81152C12.3619 7.15898 12.6819 7.54902 12.9561 7.97168C13.6146 8.9881 14 10.1987 14 11.5C14 12.7961 13.6176 14.0017 12.9639 15.0156C12.6881 15.4428 12.3653 15.8368 12 16.1875C10.7682 15.0047 10 13.3426 10 11.5C10 9.65713 10.7679 7.9944 12 6.81152Z" fill="oklch(0.3523 0 0 / 1)" class="wd-icon-fill"></path>
</g>
</svg>