<svg width="24" height="24" viewBox="0 0 24 24" xmlns="http://www.w3.org/2000/svg" class="wd-icon wd-icon-calendar-day-13" role="presentation">
<g>
<path d="M15.335 10.5127C15.7786 10.5129 16.1393 10.8728 16.1397 11.3164C16.1397 11.5212 16.0612 11.719 15.9209 11.8682L14.8027 13.0527C14.9982 13.0911 15.184 13.1568 15.3584 13.251L15.4814 13.3213C15.7596 13.4946 15.9834 13.729 16.1504 14.0205L16.2188 14.1475C16.3662 14.4493 16.4365 14.7908 16.4365 15.1641C16.4365 15.5627 16.3462 15.9454 16.168 16.3086L16.167 16.3105C15.9834 16.6776 15.7078 16.9753 15.3477 17.2022C14.9763 17.436 14.5343 17.5468 14.0352 17.5469C13.591 17.5468 13.1876 17.466 12.8311 17.2979L12.8291 17.2969C12.4794 17.1288 12.1939 16.8877 11.9766 16.5752L11.9727 16.5703C11.8642 16.4059 11.7799 16.2274 11.7188 16.0361C11.6466 15.81 11.7091 15.5913 11.8428 15.4365C11.9735 15.2854 12.1716 15.1925 12.3848 15.1924C12.7785 15.1926 13.0438 15.4982 13.166 15.7686C13.2143 15.8753 13.282 15.9695 13.3701 16.0527C13.5313 16.1994 13.7476 16.2812 14.0439 16.2813C14.2351 16.2812 14.3953 16.2355 14.5313 16.1494L14.5352 16.1475C14.6797 16.0587 14.7881 15.9384 14.8633 15.7832L14.8652 15.7813C14.9484 15.6148 14.9912 15.4279 14.9912 15.2178C14.9912 14.883 14.8988 14.6433 14.7363 14.4717L14.7334 14.4688C14.5794 14.3017 14.3631 14.2081 14.0537 14.208C13.9419 14.208 13.84 14.2249 13.748 14.2578C13.4926 14.3493 13.1023 14.3622 12.8643 14.0703C12.6594 13.8187 12.6727 13.4538 12.8955 13.2178L14.2471 11.7871H12.5147C12.1628 11.7871 11.877 11.5012 11.877 11.1494C11.8773 10.7979 12.163 10.5127 12.5147 10.5127H15.335Z" fill="oklch(0.3523 0 0 / 1)" class="wd-icon-fill"></path>
<path d="M9.08692 10.5049C9.52536 10.5049 9.88076 10.8604 9.88086 11.2988V16.668C9.88081 17.0694 9.55566 17.3944 9.1543 17.3945C8.75303 17.3943 8.42681 17.0693 8.42676 16.668V12.3936L8.25 12.5254C7.83564 12.8319 7.24805 12.536 7.24805 12.0205C7.24823 11.8259 7.33896 11.6422 7.49317 11.5234L8.60254 10.6699C8.74118 10.5633 8.91202 10.505 9.08692 10.5049Z" fill="oklch(0.3523 0 0 / 1)" class="wd-icon-fill"></path>
<path d="M16.2012 2C17.0247 2 17.7026 1.99898 18.2529 2.04395C18.815 2.08988 19.3321 2.18828 19.8174 2.43555C20.5699 2.81902 21.182 3.43109 21.5654 4.1836C21.8127 4.6689 21.9111 5.18599 21.957 5.74805C22.002 6.29843 22.001 6.97632 22.001 7.79981V16.2002C22.001 17.0237 22.002 17.7016 21.957 18.252C21.9111 18.814 21.8127 19.3311 21.5654 19.8164C21.182 20.5689 20.5699 21.181 19.8174 21.5645C19.3321 21.8117 18.815 21.9101 18.2529 21.9561C17.7026 22.001 17.0247 22 16.2012 22H7.80078C6.9773 22 6.2994 22.001 5.74903 21.9561C5.18697 21.9101 4.66988 21.8117 4.18457 21.5645C3.43207 21.181 2.81999 20.5689 2.43653 19.8164C2.18925 19.3311 2.09085 18.814 2.04492 18.252C1.99996 17.7016 2.00098 17.0237 2.00098 16.2002V7.79981C2.00098 6.97632 1.99996 6.29843 2.04492 5.74805C2.09085 5.18599 2.18925 4.6689 2.43653 4.1836C2.81999 3.43109 3.43207 2.81902 4.18457 2.43555C4.66988 2.18827 5.18697 2.08988 5.74903 2.04395C6.2994 1.99898 6.9773 2 7.80078 2H16.2012ZM4.00098 16.2002C4.00098 17.0566 4.00133 17.6388 4.03809 18.0889C4.07391 18.5273 4.13906 18.7518 4.21875 18.9082C4.41049 19.2845 4.71652 19.5905 5.09278 19.7822C5.24917 19.8619 5.4737 19.9271 5.91211 19.9629C6.36215 19.9997 6.9444 20 7.80078 20H16.2012C17.0576 20 17.6398 19.9997 18.0898 19.9629C18.5283 19.9271 18.7528 19.8619 18.9092 19.7822C19.2854 19.5905 19.5915 19.2845 19.7832 18.9082C19.8629 18.7518 19.928 18.5273 19.9639 18.0889C20.0006 17.6388 20.001 17.0566 20.001 16.2002V8H4.00098V16.2002Z" fill="oklch(0.3523 0 0 / 1)" class="wd-icon-fill"></path>
</g>
</svg>