<svg width="24" height="24" viewBox="0 0 24 24" xmlns="http://www.w3.org/2000/svg" class="wd-icon wd-icon-bookmark" role="presentation">
<path d="M14.7998 5C15.3764 5 15.7489 5.00126 16.0322 5.02441C16.3038 5.04661 16.4047 5.08419 16.4541 5.10938C16.6421 5.20521 16.7948 5.35793 16.8906 5.5459C16.9158 5.59534 16.9544 5.69613 16.9766 5.96777C16.9997 6.25111 17 6.62364 17 7.2002V17.6133C17 18.2081 16.9995 18.5857 16.9756 18.8525C16.9739 18.871 16.9685 18.8876 16.9668 18.9033C16.9542 18.8941 16.9393 18.8851 16.9248 18.874C16.7119 18.7113 16.4325 18.4565 15.9941 18.0547L13.2158 15.5088C13.1321 15.4321 13.028 15.3345 12.9287 15.2568C12.8196 15.1716 12.6571 15.061 12.4385 14.9941C12.1882 14.9176 11.9229 14.9074 11.6689 14.9648L11.5615 14.9941L11.4082 15.0508C11.2651 15.1142 11.1532 15.1928 11.0713 15.2568C10.972 15.3345 10.8679 15.4321 10.7842 15.5088L8.00586 18.0547C7.56747 18.4565 7.28808 18.7113 7.0752 18.874C7.06048 18.8853 7.04501 18.894 7.03223 18.9033C7.0305 18.8876 7.02704 18.8709 7.02539 18.8525C7.00147 18.5857 7 18.2081 7 17.6133V7.2002C7 6.62364 7.00126 6.25111 7.02441 5.96777C7.04661 5.69619 7.08419 5.59534 7.10938 5.5459C7.20522 5.35793 7.35793 5.20521 7.5459 5.10938C7.59534 5.08419 7.69619 5.04661 7.96777 5.02441C8.25111 5.00126 8.62364 5 9.2002 5H14.7998Z" fill="transparent" class="wd-icon-background"></path>
<path d="M14.7998 3C15.3434 3 15.8116 2.99893 16.1953 3.03028C16.5906 3.06259 16.984 3.1344 17.3623 3.32715C17.9265 3.61473 18.3853 4.07348 18.6729 4.6377C18.8656 5.016 18.9374 5.40944 18.9697 5.80469C19.0011 6.18836 19 6.65665 19 7.2002V17.6133C19 18.1684 19.0007 18.6536 18.9668 19.0313C18.9353 19.3823 18.8621 19.8662 18.5381 20.2559C18.1365 20.7386 17.5306 21.0048 16.9033 20.9746C16.3973 20.9501 15.9909 20.6778 15.7109 20.4639C15.4097 20.2336 15.0528 19.9044 14.6436 19.5293L12 17.1065L9.35645 19.5293C8.9472 19.9044 8.59035 20.2336 8.28907 20.4639C8.00907 20.6778 7.60268 20.9501 7.09668 20.9746C6.46944 21.0048 5.86349 20.7386 5.46192 20.2559C5.13791 19.8662 5.0647 19.3823 5.03321 19.0313C4.99935 18.6536 5 18.1684 5 17.6133V7.2002C5 6.65665 4.99893 6.18836 5.03028 5.80469C5.06259 5.40944 5.1344 5.016 5.32715 4.6377C5.61473 4.07348 6.07348 3.61473 6.6377 3.32715C7.016 3.1344 7.40944 3.06259 7.80469 3.03028C8.18836 2.99893 8.65665 3 9.2002 3H14.7998ZM9.2002 5C8.62365 5 8.25111 5.00127 7.96778 5.02442C7.69619 5.04662 7.59534 5.08419 7.5459 5.10938C7.35793 5.20522 7.20522 5.35793 7.10938 5.5459C7.08419 5.59534 7.04662 5.6962 7.02442 5.96778C7.00127 6.25111 7 6.62365 7 7.2002V17.6133C7.00001 18.2081 7.00147 18.5857 7.0254 18.8525C7.02704 18.8709 7.0305 18.8877 7.03223 18.9033C7.04502 18.894 7.06048 18.8853 7.0752 18.874C7.28808 18.7113 7.56747 18.4565 8.00586 18.0547L10.7842 15.5088C10.8679 15.4321 10.972 15.3345 11.0713 15.2568C11.1532 15.1928 11.2651 15.1142 11.4082 15.0508L11.5615 14.9941L11.6689 14.9648C11.9229 14.9074 12.1882 14.9176 12.4385 14.9941C12.6571 15.061 12.8196 15.1716 12.9287 15.2568C13.028 15.3345 13.1321 15.4321 13.2158 15.5088L15.9941 18.0547C16.4325 18.4565 16.7119 18.7113 16.9248 18.874C16.9393 18.8851 16.9542 18.8941 16.9668 18.9033C16.9685 18.8876 16.9739 18.871 16.9756 18.8525C16.9995 18.5857 17 18.2081 17 17.6133V7.2002C17 6.62365 16.9997 6.25112 16.9766 5.96778C16.9544 5.69614 16.9158 5.59535 16.8906 5.5459C16.7948 5.35794 16.6421 5.20522 16.4541 5.10938C16.4047 5.08419 16.3038 5.04661 16.0322 5.02442C15.7489 5.00127 15.3764 5 14.7998 5H9.2002Z" fill="oklch(0.3523 0 0 / 1)" class="wd-icon-fill"></path>
</svg>