<svg width="24" height="24" viewBox="0 0 24 24" xmlns="http://www.w3.org/2000/svg" class="wd-icon wd-icon-remove-column-after" role="presentation">
<g>
<path d="M8.79981 9.00022C9.34335 9.00022 9.81165 8.99915 10.1953 9.03049C10.5905 9.0628 10.984 9.13465 11.3623 9.32737C11.9265 9.61491 12.3853 10.0738 12.6729 10.6379C12.8656 11.0161 12.9374 11.4097 12.9697 11.8049C13.0011 12.1885 13 12.657 13 13.2004V16.8C13 17.3435 13.0011 17.8119 12.9697 18.1955C12.9374 18.5907 12.8655 18.9843 12.6729 19.3625C12.3853 19.9267 11.9265 20.3855 11.3623 20.6731C10.984 20.8658 10.5906 20.9376 10.1953 20.9699C9.81165 21.0013 9.34336 21.0002 8.79981 21.0002H7.2002C6.65665 21.0002 6.18836 21.0013 5.80469 20.9699C5.40944 20.9376 5.01599 20.8658 4.6377 20.6731C4.07352 20.3855 3.61471 19.9267 3.32715 19.3625C3.13448 18.9843 3.06258 18.5907 3.03028 18.1955C2.99895 17.8119 3 17.3435 3 16.8V13.2004C3 12.657 2.99894 12.1885 3.03028 11.8049C3.0626 11.4097 3.13444 11.0161 3.32715 10.6379C3.61473 10.0738 4.07354 9.61491 4.6377 9.32737C5.01597 9.13465 5.40947 9.0628 5.80469 9.03049C6.18836 8.99915 6.65666 9.00022 7.2002 9.00022H8.79981ZM8.75 19.0002H8.79981C9.37636 19.0002 9.74889 18.999 10.0322 18.9758C10.3038 18.9536 10.4047 18.916 10.4541 18.8908C10.642 18.795 10.7948 18.6423 10.8906 18.4543C10.9158 18.4048 10.9534 18.3037 10.9756 18.0324C10.9987 17.7491 11 17.3764 11 16.8V13.2004C11 12.624 10.9987 12.2513 10.9756 11.968C10.9534 11.6966 10.9158 11.5955 10.8906 11.5461C10.7948 11.3582 10.642 11.2054 10.4541 11.1096C10.4046 11.0844 10.3036 11.0468 10.0322 11.0246C9.7489 11.0015 9.37635 11.0002 8.79981 11.0002H8.75V19.0002ZM7.2002 11.0002C6.62366 11.0002 6.25111 11.0015 5.96778 11.0246C5.69637 11.0468 5.59538 11.0844 5.5459 11.1096C5.358 11.2054 5.20523 11.3582 5.10938 11.5461C5.0842 11.5955 5.04662 11.6966 5.02442 11.968C5.00127 12.2513 5 12.624 5 13.2004V16.8C5 17.3764 5.00129 17.7491 5.02442 18.0324C5.04659 18.3037 5.08419 18.4048 5.10938 18.4543C5.2052 18.6423 5.35798 18.795 5.5459 18.8908C5.59534 18.916 5.69621 18.9536 5.96778 18.9758C6.25111 18.999 6.62365 19.0002 7.2002 19.0002H7.25V11.0002H7.2002Z" fill="oklch(0.3523 0 0 / 1)" class="wd-icon-fill"></path>
<path d="M18 2.00022C18.4006 2.00022 18.7975 1.99142 19.1475 2.08518C20.0099 2.31639 20.6838 2.99035 20.915 3.85276C21.0088 4.20269 21 4.59966 21 5.00022V11.0002C21 11.4008 21.0088 11.7977 20.915 12.1477C20.6838 13.0101 20.0099 13.684 19.1475 13.9153C18.7975 14.009 18.4006 14.0002 18 14.0002C17.5994 14.0002 17.2025 14.009 16.8525 13.9153C15.9901 13.684 15.3162 13.0101 15.085 12.1477C14.9912 11.7977 15 11.4008 15 11.0002V5.00022C15 4.59966 14.9912 4.20269 15.085 3.85276C15.3162 2.99035 15.9901 2.31639 16.8525 2.08518C17.2025 1.99141 17.5994 2.00022 18 2.00022ZM17.499 4.0051C17.401 4.00957 17.3701 4.01682 17.3701 4.01682C17.1979 4.0631 17.0629 4.19811 17.0166 4.37034C17.0166 4.37034 17.0094 4.40088 17.0049 4.49924C16.9998 4.6112 17 4.75905 17 5.00022V11.0002C17 11.2414 16.9998 11.3892 17.0049 11.5012C17.0093 11.5972 17.016 11.6278 17.0166 11.6301C17.0629 11.8024 17.1979 11.9373 17.3701 11.9836C17.3701 11.9836 17.4006 11.9908 17.499 11.9953C17.611 12.0004 17.7588 12.0002 18 12.0002C18.2412 12.0002 18.389 12.0004 18.501 11.9953C18.5994 11.9908 18.6299 11.9836 18.6299 11.9836C18.8022 11.9373 18.9371 11.8024 18.9834 11.6301C18.984 11.6279 18.9907 11.5974 18.9951 11.5012C19.0002 11.3892 19 11.2414 19 11.0002V5.00022C19 4.75905 19.0002 4.6112 18.9951 4.49924C18.9906 4.40088 18.9834 4.37034 18.9834 4.37034C18.9371 4.19812 18.8021 4.0631 18.6299 4.01682C18.6299 4.01682 18.5982 4.00954 18.501 4.0051C18.389 4.00001 18.2412 4.00022 18 4.00022C17.7588 4.00022 17.611 4.00001 17.499 4.0051Z" fill="oklch(0.3523 0 0 / 1)" class="wd-icon-fill"></path>
</g>
<path d="M19.4789 16.4677C19.7718 16.1748 20.2465 16.1748 20.5394 16.4677C20.8319 16.7606 20.8322 17.2355 20.5394 17.5283L19.0697 18.998L20.5394 20.4677C20.832 20.7606 20.8322 21.2355 20.5394 21.5283C20.2466 21.8209 19.7718 21.8207 19.4789 21.5283L18.0092 20.0585L16.5394 21.5283C16.2467 21.8208 15.7717 21.8207 15.4789 21.5283C15.186 21.2354 15.1862 20.7606 15.4789 20.4677L16.9486 18.998L15.4789 17.5283C15.186 17.2354 15.1861 16.7606 15.4789 16.4677C15.7718 16.1748 16.2465 16.1748 16.5394 16.4677L18.0092 17.9374L19.4789 16.4677Z" fill="oklch(0.3523 0 0 / 1)" class="wd-icon-accent"></path>
</svg>