<svg width="24" height="24" viewBox="0 0 24 24" xmlns="http://www.w3.org/2000/svg" class="wd-icon wd-icon-phone" role="presentation">
<path d="M5.22492 2.36115C6.20559 1.38051 7.79819 1.38527 8.77277 2.37287L11.303 4.93732C12.0748 5.71978 12.0703 6.97837 11.2933 7.75568L9.84699 9.20197C10.042 10.4005 10.5999 11.5505 11.5247 12.4754C12.449 13.3997 13.5978 13.9567 14.7952 14.1522L16.1907 12.7576C16.9755 11.9729 18.2491 11.9774 19.0286 12.7674L21.5648 15.3377C22.5296 16.3157 22.5249 17.8893 21.553 18.8612L19.5618 20.8524C18.7647 21.6495 17.619 22.1263 16.4134 21.951C12.9151 21.4421 9.54297 19.8413 6.85187 17.1502C4.32774 14.626 2.76195 11.5029 2.15754 8.23811L2.05012 7.58381C1.8753 6.37801 2.35335 5.23274 3.14973 4.43635L5.22492 2.36115ZM7.34894 3.77717C7.15429 3.58015 6.83533 3.57888 6.63898 3.77522L4.56379 5.85041C4.14644 6.26777 3.95722 6.8038 4.02863 7.2967L4.12434 7.87385C4.65745 10.7539 6.03735 13.5075 8.26594 15.7362C10.6418 18.112 13.614 19.5234 16.7005 19.9725C17.1942 20.0443 17.7306 19.8554 18.1478 19.4383L20.139 17.4471C20.3331 17.2529 20.3342 16.9378 20.1409 16.742L17.6048 14.1717L16.1946 15.5828C15.7866 15.991 15.1843 16.2375 14.5423 16.1385C12.9204 15.8883 11.3591 15.1379 10.1107 13.8895C8.86185 12.6406 8.1116 11.0781 7.86164 9.45588C7.76298 8.81453 8.00874 8.21335 8.41633 7.80549L9.87922 6.34162L7.34894 3.77717Z" fill="oklch(0.3523 0 0 / 1)" class="wd-icon-fill"></path>
</svg>