<svg width="24" height="24" viewBox="0 0 24 24" xmlns="http://www.w3.org/2000/svg" class="wd-icon wd-icon-thumbs-up" role="presentation">
<path d="M12.1533 2C14.2082 2 16.1548 3.64165 15.8926 5.92773C15.8439 6.35127 15.7787 6.77246 15.6982 7.18945C15.5781 7.81162 15.4221 8.41628 15.2354 9H19C20.638 9 22.0518 10.3498 21.877 12.0938C21.727 13.586 21.385 15.7164 20.5801 17.502C19.7825 19.271 18.3757 21 16 21H4.5C3.67157 21 3 20.3284 3 19.5V10.5C3.00017 9.67171 3.67167 9 4.5 9H7.5L8.98828 7.01562C9.70806 6.05584 10.2287 4.96184 10.5195 3.79883L10.7793 2.75781L10.835 2.59766C10.9923 2.23962 11.3484 2 11.75 2H12.1533ZM12.4609 4.2832C12.1053 5.70577 11.4671 7.04242 10.5879 8.21484L8.99121 10.3428C8.99661 10.3945 8.99999 10.4469 9 10.5V19H16C17.1909 19 18.0785 18.1842 18.7568 16.6797C19.4275 15.192 19.7435 13.3193 19.8867 11.8945C19.9321 11.4409 19.5708 11 19 11H13.7949C13.4581 11 13.1439 10.8304 12.959 10.5488C12.7743 10.2671 12.7438 9.91058 12.8779 9.60156C13.2512 8.74155 13.5434 7.80467 13.7354 6.81055C13.8064 6.44258 13.8635 6.07134 13.9062 5.69922C13.9934 4.93758 13.4251 4.19458 12.5225 4.0332L12.4609 4.2832ZM5 19H7V11H5V19Z" fill="oklch(0.3523 0 0 / 1)" class="wd-icon-fill"></path>
</svg>