<svg width="24" height="24" viewBox="0 0 24 24" xmlns="http://www.w3.org/2000/svg" class="wd-icon wd-icon-row-arrow-up" role="presentation">
<g>
<path d="M16.4717 12.4697C16.7645 12.1772 17.2394 12.1772 17.5322 12.4697L20.5322 15.4697C20.8248 15.7626 20.8248 16.2374 20.5322 16.5303C20.2394 16.8229 19.7645 16.8229 19.4717 16.5303L17.752 14.8105V21C17.7517 21.414 17.416 21.75 17.002 21.75C16.5879 21.75 16.2522 21.414 16.252 21V14.8105L14.5322 16.5303C14.2394 16.8229 13.7645 16.8228 13.4717 16.5303C13.1792 16.2374 13.1791 15.7625 13.4717 15.4697L16.4717 12.4697Z" fill="oklch(0.3523 0 0 / 1)" class="wd-icon-fill"></path>
<path d="M10.2002 3C11.0237 3 11.7016 2.99898 12.252 3.04395C12.814 3.08988 13.3311 3.18828 13.8164 3.43555C14.5689 3.81902 15.181 4.43109 15.5645 5.1836C15.8117 5.6689 15.9101 6.18599 15.9561 6.74805C16.001 7.29843 16 7.97632 16 8.79981V10C16 10.5523 15.5523 11 15 11C14.4477 11 14 10.5523 14 10V9.5H5V12.5H11.25C11.6642 12.5 12 12.8358 12 13.25C12 13.6642 11.6642 14 11.25 14H5.00391C5.00691 14.4455 5.01313 14.7953 5.03711 15.0889C5.07293 15.5273 5.13809 15.7518 5.21778 15.9082C5.40951 16.2845 5.71555 16.5905 6.0918 16.7822C6.2482 16.8619 6.47272 16.9271 6.91113 16.9629C7.36117 16.9997 7.94342 17 8.79981 17H11C11.5523 17 12 17.4477 12 18C12 18.5523 11.5523 19 11 19H8.79981C7.97632 19 7.29843 19.001 6.74805 18.9561C6.18599 18.9101 5.6689 18.8117 5.1836 18.5645C4.43109 18.181 3.81902 17.5689 3.43555 16.8164C3.18828 16.3311 3.08988 15.814 3.04395 15.252C2.99898 14.7016 3 14.0237 3 13.2002V8.79981C3 7.97632 2.99898 7.29843 3.04395 6.74805C3.08988 6.18599 3.18827 5.6689 3.43555 5.1836C3.81902 4.43109 4.43109 3.81902 5.1836 3.43555C5.6689 3.18827 6.18599 3.08988 6.74805 3.04395C7.29843 2.99898 7.97632 3 8.79981 3H10.2002ZM8.79981 5C7.94342 5 7.36117 5.00035 6.91113 5.03711C6.47272 5.07293 6.2482 5.13809 6.0918 5.21778C5.71555 5.40951 5.40951 5.71555 5.21778 6.0918C5.13809 6.2482 5.07293 6.47272 5.03711 6.91113C5.01313 7.2047 5.00691 7.55453 5.00391 8H13.9961C13.9931 7.55453 13.9869 7.2047 13.9629 6.91113C13.9271 6.47272 13.8619 6.2482 13.7822 6.0918C13.5905 5.71555 13.2845 5.40951 12.9082 5.21778C12.7518 5.13809 12.5273 5.07293 12.0889 5.03711C11.6388 5.00035 11.0566 5 10.2002 5H8.79981Z" fill="oklch(0.3523 0 0 / 1)" class="wd-icon-fill"></path>
</g>
</svg>