<svg width="24" height="24" viewBox="0 0 24 24" xmlns="http://www.w3.org/2000/svg" class="wd-icon wd-icon-mobile-unlock" role="presentation">
<g>
<path d="M13.2002 1C14.0237 1 14.7016 0.998983 15.252 1.04395C15.814 1.08988 16.3312 1.18829 16.8165 1.43555C17.569 1.81901 18.181 2.4311 18.5645 3.1836C18.8118 3.6689 18.9102 4.18599 18.9561 4.74805C19.0011 5.29843 19 5.97632 19 6.79981V9C19 9.55229 18.5523 10 18 10C17.4478 9.99998 17 9.55227 17 9V6.79981C17 5.94342 16.9997 5.36117 16.9629 4.91113C16.9271 4.47272 16.862 4.2482 16.7823 4.0918C16.5905 3.71555 16.2845 3.40951 15.9082 3.21778C15.7519 3.13809 15.5273 3.07293 15.0889 3.03711C14.6389 3.00035 14.0566 3 13.2002 3H10.7999C9.94349 3 9.36121 3.00035 8.91118 3.03711C8.47279 3.07293 8.24824 3.13809 8.09184 3.21778C7.71561 3.40951 7.40955 3.71556 7.21782 4.0918C7.13813 4.2482 7.07297 4.47274 7.03715 4.91113C7.00039 5.36117 7.00005 5.94342 7.00005 6.79981V18.25C7.00005 18.9949 7.00455 19.2218 7.03813 19.3906C7.19603 20.1837 7.81635 20.804 8.60942 20.9619C8.77826 20.9955 9.00517 21 9.75005 21C10.3023 21 10.75 21.4477 10.75 22C10.75 22.5523 10.3023 23 9.75005 23C9.10103 23 8.6305 23.0045 8.21977 22.9229C6.63303 22.6072 5.39282 21.367 5.07719 19.7803C4.9955 19.3695 5.00005 18.899 5.00005 18.25V6.79981C5.00005 5.97632 4.99902 5.29843 5.04399 4.74805C5.08992 4.186 5.18832 3.6689 5.43559 3.1836C5.81906 2.4311 6.43115 1.81902 7.18364 1.43555C7.66893 1.18828 8.18605 1.08988 8.74809 1.04395C9.29846 0.99898 9.97638 1 10.7999 1H13.2002Z" fill="oklch(0.3523 0 0 / 1)" class="wd-icon-fill"></path>
<path d="M17.5 12C19.1568 12.0001 20.5 13.3432 20.5 15V16.0732C20.6365 16.1039 20.7734 16.1491 20.9082 16.2178C21.2845 16.4095 21.5905 16.7156 21.7823 17.0918C21.9132 17.3488 21.9597 17.6133 21.9805 17.8682C22.0006 18.1142 22 18.4125 22 18.75V20.25C22 20.5875 22.0006 20.8859 21.9805 21.1318C21.9597 21.3865 21.9131 21.6503 21.7823 21.9072C21.5906 22.2834 21.2844 22.5895 20.9082 22.7813C20.6512 22.9122 20.3867 22.9597 20.1319 22.9805C19.8859 23.0005 19.5876 23 19.25 23H15.75C15.4125 23 15.1142 23.0006 14.8682 22.9805C14.6134 22.9596 14.3489 22.9122 14.0918 22.7813C13.7157 22.5895 13.4095 22.2834 13.2178 21.9072C13.087 21.6504 13.0404 21.3865 13.0196 21.1318C12.9995 20.8859 13 20.5875 13 20.25V18.75C13 18.4125 12.9995 18.1142 13.0196 17.8682C13.0404 17.6134 13.0869 17.3488 13.2178 17.0918C13.4095 16.7156 13.7156 16.4095 14.0918 16.2178C14.3489 16.0868 14.6134 16.0404 14.8682 16.0195C15.1142 15.9994 15.4125 16 15.75 16H19V15C19 14.1716 18.3284 13.5001 17.5 13.5C17.0857 13.5 16.7117 13.6673 16.4395 13.9395C16.1466 14.2322 15.6718 14.2322 15.379 13.9395C15.0861 13.6466 15.0861 13.1718 15.379 12.8789C15.921 12.3369 16.6719 12 17.5 12ZM15.75 17.5C15.3878 17.5 15.1611 17.5007 14.9903 17.5147C14.8296 17.5278 14.7843 17.5492 14.7735 17.5547C14.6794 17.6026 14.6027 17.6794 14.5547 17.7734C14.5492 17.7843 14.5278 17.8296 14.5147 17.9902C14.5008 18.161 14.5 18.3877 14.5 18.75V20.25C14.5 20.6122 14.5007 20.839 14.5147 21.0098C14.5279 21.1715 14.5494 21.2162 14.5547 21.2266C14.6027 21.3206 14.6794 21.3974 14.7735 21.4453C14.7845 21.4509 14.8302 21.4723 14.9903 21.4854C15.1611 21.4993 15.3878 21.5 15.75 21.5H19.25C19.6123 21.5 19.839 21.4993 20.0098 21.4854C20.1697 21.4723 20.2155 21.4509 20.2266 21.4453C20.3207 21.3974 20.3974 21.3206 20.4454 21.2266C20.4506 21.2162 20.4722 21.1717 20.4854 21.0098C20.4993 20.839 20.5 20.6122 20.5 20.25V18.75C20.5 18.3877 20.4993 18.161 20.4854 17.9902C20.4723 17.8295 20.4509 17.7843 20.4454 17.7734C20.3974 17.6794 20.3207 17.6026 20.2266 17.5547C20.2157 17.5492 20.1703 17.5278 20.0098 17.5147C19.839 17.5007 19.6123 17.5 19.25 17.5H15.75Z" fill="oklch(0.3523 0 0 / 1)" class="wd-icon-fill"></path>
<path d="M13 4C13.5523 4 14 4.44772 14 5C14 5.55229 13.5523 6 13 6H11C10.4478 5.99998 10 5.55227 10 5C10 4.44773 10.4478 4.00003 11 4H13Z" fill="oklch(0.3523 0 0 / 1)" class="wd-icon-fill"></path>
</g>
</svg>