<svg width="24" height="24" viewBox="0 0 24 24" xmlns="http://www.w3.org/2000/svg" class="wd-icon wd-icon-marker" role="presentation">
<path d="M13.7998 4C14.3764 4 14.7489 4.00126 15.0322 4.02441C15.3038 4.04661 15.4047 4.08419 15.4541 4.10938C15.6421 4.20521 15.7948 4.35793 15.8906 4.5459C15.9158 4.59534 15.9534 4.69619 15.9756 4.96777C15.9987 5.25111 16 5.62364 16 6.2002V8.01172C16 8.79309 15.9932 9.0212 15.9443 9.22461C15.8953 9.42853 15.8147 9.62392 15.7051 9.80273C15.5958 9.98096 15.4389 10.1471 14.8867 10.6992L12 13.5859L9.11328 10.6992C8.56115 10.1471 8.40421 9.98096 8.29492 9.80273C8.18534 9.62392 8.10467 9.42853 8.05566 9.22461C8.00683 9.0212 8 8.79309 8 8.01172V6.2002C8 5.62364 8.00126 5.25111 8.02441 4.96777C8.04661 4.69619 8.08419 4.59534 8.10938 4.5459C8.20521 4.35793 8.35793 4.20521 8.5459 4.10938C8.59534 4.08419 8.69619 4.04661 8.96777 4.02441C9.25111 4.00126 9.62364 4 10.2002 4H13.7998Z" fill="transparent" class="wd-icon-background"></path>
<path d="M13.7999 2C14.3434 2 14.8117 1.99894 15.1954 2.03028C15.5906 2.06259 15.9841 2.13442 16.3624 2.32715C16.9266 2.61472 17.3853 3.07349 17.6729 3.6377C17.8657 4.01599 17.9375 4.40944 17.9698 4.80469C18.0011 5.18836 18.0001 5.65665 18.0001 6.2002V8.01172C18.0001 8.6979 18.0067 9.20429 17.8897 9.69141C17.7917 10.0995 17.6295 10.4898 17.4102 10.8477C17.1485 11.2746 16.7859 11.6282 16.3008 12.1133L13.0001 15.4141V21C13.0001 21.5523 12.5524 22 12.0001 22C11.4478 22 11.0001 21.5523 11.0001 21V15.4141L7.69929 12.1133C7.21426 11.6283 6.85164 11.2746 6.58991 10.8477C6.37065 10.4898 6.20841 10.0995 6.11042 9.69141C5.99348 9.2043 6.00007 8.69789 6.00007 8.01172V6.2002C6.00007 5.65665 5.99899 5.18836 6.03034 4.80469C6.06265 4.40944 6.13447 4.01599 6.32722 3.6377C6.61478 3.07349 7.07356 2.61473 7.63776 2.32715C8.01604 2.13441 8.40952 2.06259 8.80476 2.03028C9.18841 1.99893 9.65674 2 10.2003 2H13.7999ZM10.2003 4C9.62375 4 9.25117 4.00127 8.96784 4.02442C8.6963 4.04662 8.5954 4.08419 8.54597 4.10938C8.35802 4.20522 8.20527 4.35795 8.10944 4.5459C8.08425 4.59535 8.04667 4.69623 8.02448 4.96778C8.00133 5.25111 8.00007 5.62365 8.00007 6.2002V8.01172C8.00007 8.79307 8.0069 9.02121 8.05573 9.22461C8.10473 9.42852 8.18542 9.62393 8.29499 9.80274C8.40428 9.98096 8.56124 10.1471 9.11335 10.6992L12.0001 13.5859L14.8868 10.6992C15.4389 10.1471 15.5959 9.98095 15.7051 9.80274C15.8147 9.62392 15.8954 9.42853 15.9444 9.22461C15.9932 9.02121 16.0001 8.79309 16.0001 8.01172V6.2002C16.0001 5.62365 15.9988 5.25111 15.9757 4.96778C15.9535 4.6962 15.9159 4.59534 15.8907 4.5459C15.7949 4.35795 15.6421 4.20521 15.4542 4.10938C15.4047 4.08419 15.3038 4.04661 15.0323 4.02442C14.749 4.00127 14.3764 4 13.7999 4H10.2003Z" fill="oklch(0.3523 0 0 / 1)" class="wd-icon-fill"></path>
</svg>