<svg width="24" height="24" viewBox="0 0 24 24" xmlns="http://www.w3.org/2000/svg" class="wd-icon wd-icon-rewind-30" role="presentation">
<g>
<path d="M11.9998 2C12.552 2.00009 12.9998 2.44777 12.9998 3C12.9998 3.55223 12.552 3.99991 11.9998 4C10.1491 4 8.35531 4.64143 6.92464 5.81543C5.49393 6.98959 4.51424 8.62419 4.15316 10.4395C3.79215 12.2547 4.07173 14.1393 4.94417 15.7715C5.81663 17.4036 7.22851 18.6823 8.93831 19.3906C10.6482 20.0989 12.551 20.1925 14.3221 19.6553C16.0932 19.118 17.623 17.9832 18.6512 16.4443C19.6794 14.9054 20.1432 13.0577 19.9618 11.2158C19.8113 9.68817 19.2233 8.24423 18.2811 7.04883L17.1629 8.16797C16.8769 8.454 16.3875 8.29972 16.3172 7.90137L15.5477 3.54004C15.4877 3.19838 15.7851 2.90064 16.1268 2.96094L20.4881 3.73047C20.8864 3.80083 21.0407 4.29114 20.7547 4.57715L19.7039 5.62695C20.9684 7.15557 21.7561 9.03117 21.952 11.0195C22.1787 13.3219 21.5996 15.632 20.3143 17.5557C19.0291 19.4791 17.1168 20.8977 14.9032 21.5693C12.6893 22.2409 10.3101 22.1246 8.17269 21.2393C6.03532 20.3539 4.27109 18.7542 3.1805 16.7139C2.08995 14.6735 1.74088 12.3179 2.19222 10.0488C2.64363 7.77986 3.86777 5.73716 5.65609 4.26953C7.44442 2.80203 9.68645 2 11.9998 2Z" fill="oklch(0.3523 0 0 / 1)" class="wd-icon-fill"></path>
<path d="M10.5848 8.6377C10.9593 8.63805 11.2641 8.9419 11.2645 9.31641C11.2645 9.48934 11.1974 9.65629 11.0789 9.78223L9.79574 11.1436C10.0679 11.1648 10.3206 11.2368 10.5506 11.3613C10.8654 11.5284 11.1124 11.7704 11.2918 12.084L11.3553 12.2021C11.4934 12.4847 11.5613 12.8068 11.5614 13.1641C11.5613 13.5433 11.4755 13.9074 11.3055 14.2539C11.1328 14.5993 10.8729 14.8813 10.5311 15.0967C10.1835 15.3155 9.76538 15.4218 9.28499 15.4219C8.85608 15.4218 8.47084 15.3436 8.13363 15.1846C7.80297 15.0255 7.53356 14.798 7.32894 14.5039L7.32699 14.502C7.22494 14.3472 7.14451 14.1789 7.08675 13.998C7.0291 13.8173 7.07929 13.6427 7.18734 13.5176C7.2939 13.3948 7.45732 13.3175 7.6346 13.3174C7.9571 13.3177 8.1897 13.5706 8.30257 13.8203C8.35743 13.9415 8.43402 14.0488 8.53304 14.1426L8.60628 14.2031C8.78486 14.3364 9.01142 14.4062 9.29378 14.4062C9.50624 14.4061 9.69058 14.3549 9.84847 14.2549L9.84945 14.2539C10.0144 14.1526 10.1399 14.0142 10.2254 13.8379L10.2264 13.8369C10.3189 13.6518 10.366 13.4457 10.366 13.2178C10.366 12.8587 10.266 12.5855 10.077 12.3857L10.075 12.3848C9.89316 12.1873 9.64102 12.0832 9.30355 12.083C9.17859 12.083 9.0623 12.1026 8.95589 12.1406C8.7233 12.224 8.40119 12.2234 8.21175 11.9912C8.0463 11.7882 8.05645 11.4942 8.23617 11.3037L9.78695 9.66211H7.76449C7.48172 9.66211 7.25179 9.43218 7.25179 9.14941C7.25212 8.86693 7.48192 8.6377 7.76449 8.6377H10.5848Z" fill="oklch(0.3523 0 0 / 1)" class="wd-icon-fill"></path>
<path d="M14.745 8.50488C15.5476 8.50505 16.1568 8.83784 16.5526 9.50098L16.6912 9.75C16.9916 10.352 17.1385 11.091 17.1385 11.96C17.1385 12.612 17.056 13.1983 16.8895 13.7168C16.7277 14.233 16.4659 14.6466 16.1034 14.9521L16.1043 14.9531C15.7422 15.2634 15.2852 15.4149 14.745 15.415C13.9369 15.415 13.3249 15.0857 12.9285 14.4277L12.9276 14.4258C12.5471 13.777 12.3612 12.9525 12.3612 11.96C12.3612 11.3141 12.44 10.734 12.6004 10.2217L12.6014 10.2197C12.7692 9.70441 13.0291 9.28764 13.3846 8.97656C13.7468 8.65984 14.204 8.50492 14.745 8.50488ZM14.745 9.51953C14.467 9.51958 14.2503 9.61729 14.0838 9.80957C13.9093 10.0113 13.7781 10.2939 13.6971 10.6641C13.6215 11.0312 13.5829 11.463 13.5828 11.96C13.5829 12.73 13.6806 13.3349 13.869 13.7812C13.9641 13.9965 14.0853 14.1496 14.2274 14.249C14.3685 14.3477 14.5393 14.3994 14.745 14.3994C15.0298 14.3993 15.2499 14.3023 15.4159 14.1104C15.5905 13.9082 15.7217 13.6284 15.8026 13.2646C15.884 12.898 15.9256 12.4633 15.9256 11.96C15.9256 11.189 15.8239 10.5872 15.6297 10.1475C15.5347 9.92949 15.4127 9.77366 15.2694 9.67285C15.1268 9.5727 14.9536 9.51963 14.745 9.51953Z" fill="oklch(0.3523 0 0 / 1)" class="wd-icon-fill"></path>
</g>
</svg>