<svg width="24" height="24" viewBox="0 0 24 24" xmlns="http://www.w3.org/2000/svg" class="wd-icon wd-icon-pause" role="presentation">
<g>
<path d="M8.40039 6C8.96018 6 9.24024 6.00041 9.4541 6.10938C9.64207 6.20522 9.79479 6.35793 9.89062 6.5459C9.99959 6.75976 10 7.03982 10 7.59961V16.4004C10 16.9602 9.99959 17.2402 9.89062 17.4541C9.79479 17.6421 9.64207 17.7948 9.4541 17.8906C9.24024 17.9996 8.96018 18 8.40039 18H7.59961C7.03982 18 6.75976 17.9996 6.5459 17.8906C6.35793 17.7948 6.20521 17.6421 6.10938 17.4541C6.00041 17.2402 6 16.9602 6 16.4004V7.59961C6 7.03982 6.00041 6.75976 6.10938 6.5459C6.20522 6.35793 6.35793 6.20522 6.5459 6.10938C6.75976 6.00041 7.03982 6 7.59961 6H8.40039Z" fill="oklch(0.3523 0 0 / 1)" class="wd-icon-fill"></path>
<path d="M16.4004 6C16.9602 6 17.2402 6.00041 17.4541 6.10938C17.6421 6.20522 17.7948 6.35793 17.8906 6.5459C17.9996 6.75976 18 7.03982 18 7.59961V16.4004C18 16.9602 17.9996 17.2402 17.8906 17.4541C17.7948 17.6421 17.6421 17.7948 17.4541 17.8906C17.2402 17.9996 16.9602 18 16.4004 18H15.5996C15.0398 18 14.7598 17.9996 14.5459 17.8906C14.3579 17.7948 14.2052 17.6421 14.1094 17.4541C14.0004 17.2402 14 16.9602 14 16.4004V7.59961C14 7.03982 14.0004 6.75976 14.1094 6.5459C14.2052 6.35793 14.3579 6.20522 14.5459 6.10938C14.7598 6.00041 15.0398 6 15.5996 6H16.4004Z" fill="oklch(0.3523 0 0 / 1)" class="wd-icon-fill"></path>
</g>
</svg>