<svg width="24" height="24" viewBox="0 0 24 24" xmlns="http://www.w3.org/2000/svg" class="wd-icon wd-icon-required" role="presentation">
<path d="M12.5011 8C12.7773 8 13.0011 8.22386 13.0011 8.5V10.624L15.0206 9.96777C15.2834 9.88246 15.5654 10.0263 15.6505 10.2891L15.9591 11.2402C16.0446 11.5028 15.9014 11.7847 15.6388 11.8701L13.6193 12.5264L14.8663 14.2441C15.0286 14.4675 14.9793 14.7801 14.756 14.9424L13.9474 15.5303C13.7241 15.6924 13.4115 15.6432 13.2492 15.4199L12.0001 13.7002L10.7521 15.4199C10.5898 15.6431 10.2772 15.6924 10.0538 15.5303L9.24525 14.9424C9.02199 14.7801 8.97271 14.4675 9.1349 14.2441L10.381 12.5264L8.36342 11.8701C8.10087 11.7848 7.95685 11.5028 8.04213 11.2402L8.19643 10.7656L8.35072 10.2891C8.43603 10.0266 8.71809 9.88271 8.98061 9.96777L11.0011 10.624V8.5C11.0011 8.22386 11.225 8 11.5011 8H12.5011Z" fill="oklch(0.3523 0 0 / 1)" class="wd-icon-fill"></path>
</svg>