<svg width="24" height="24" viewBox="0 0 24 24" xmlns="http://www.w3.org/2000/svg" class="wd-icon wd-icon-document-user-star" role="presentation">
<g>
<path d="M18.5 1C19.3284 1 20 1.67157 20 2.5V11.5C20 11.7761 19.7761 12 19.5 12H18.5C18.2239 12 18 11.7761 18 11.5V3H6V21H12.5C12.7761 21 13 21.2239 13 21.5V22.5C13 22.7761 12.7761 23 12.5 23H5.5C4.67157 23 4 22.3284 4 21.5V2.5C4 1.67157 4.67157 1 5.5 1H18.5Z" fill="oklch(0.3523 0 0 / 1)" class="wd-icon-fill"></path>
<path d="M17.5518 14.9082C17.7352 14.537 18.2648 14.537 18.4482 14.9082L19.4697 16.9775L21.7529 17.3096C22.1627 17.3693 22.3267 17.8729 22.0303 18.1621L20.3779 19.7725L20.7676 22.0469C20.8374 22.4552 20.4087 22.766 20.042 22.5732L18 21.5L15.958 22.5732C15.5913 22.766 15.1626 22.4552 15.2324 22.0469L15.6221 19.7725L13.9697 18.1621C13.6733 17.8729 13.8373 17.3693 14.2471 17.3096L16.5303 16.9775L17.5518 14.9082Z" fill="oklch(0.3523 0 0 / 1)" class="wd-icon-fill"></path>
<path d="M11.5 17C11.7761 17 12 17.2239 12 17.5V18.5C12 18.7761 11.7761 19 11.5 19H8.5C8.22386 19 8 18.7761 8 18.5V17.5C8 17.2239 8.22386 17 8.5 17H11.5Z" fill="oklch(0.3523 0 0 / 1)" class="wd-icon-fill"></path>
<path d="M14.5 14C14.7761 14 15 14.2239 15 14.5V15.5C15 15.7761 14.7761 16 14.5 16H8.5C8.22386 16 8 15.7761 8 15.5V14.5C8 14.2239 8.22386 14 8.5 14H14.5Z" fill="oklch(0.3523 0 0 / 1)" class="wd-icon-fill"></path>
<path d="M12 10C13.4564 10 14.7919 10.5189 15.8311 11.3818C15.9403 11.4726 15.9999 11.6089 16 11.751V12.5C16 12.7761 15.7761 13 15.5 13H8.5C8.22386 13 8 12.7761 8 12.5V11.751C8.00009 11.6089 8.05973 11.4726 8.16895 11.3818C9.20815 10.5189 10.5436 10 12 10Z" fill="oklch(0.3523 0 0 / 1)" class="wd-icon-fill"></path>
<path d="M12 5C13.1046 5 14 5.89543 14 7C14 8.10457 13.1046 9 12 9C10.8954 9 10 8.10457 10 7C10 5.89543 10.8954 5 12 5Z" fill="oklch(0.3523 0 0 / 1)" class="wd-icon-fill"></path>
</g>
<path d="M17.5518 14.9082C17.7354 14.5371 18.2649 14.5371 18.4483 14.9082L19.4698 16.9776L21.753 17.3096C22.1628 17.3695 22.326 17.873 22.0294 18.1621L20.378 19.7725L20.7677 22.0469C20.8375 22.4552 20.4088 22.7669 20.0421 22.5742L18.0001 21.5L15.9581 22.5742C15.5913 22.7671 15.1626 22.4553 15.2325 22.0469L15.6222 19.7725L13.9698 18.1621C13.6734 17.8729 13.8372 17.3692 14.2472 17.3096L16.5304 16.9776L17.5518 14.9082Z" fill="oklch(0.3523 0 0 / 1)" class="wd-icon-accent"></path>
</svg>