<svg width="24" height="24" viewBox="0 0 24 24" xmlns="http://www.w3.org/2000/svg" class="wd-icon wd-icon-table-gear" role="presentation">
<path d="M16.2002 4C17.0237 4 17.7016 3.99898 18.252 4.04395C18.814 4.08988 19.3311 4.18828 19.8164 4.43555C20.5689 4.81902 21.181 5.43109 21.5645 6.1836C21.8117 6.6689 21.9101 7.186 21.9561 7.74805C22.001 8.29843 22 8.97632 22 9.79981V11C22 11.5523 21.5523 12 21 12C20.4477 12 20 11.5523 20 11V10.5H12.75V18.25C12.75 19.1817 12.0217 19.9405 11.1035 19.9941C11.0695 19.9976 11.035 20 11 20H7.79981C6.97632 20 6.29843 20.001 5.74805 19.9561C5.186 19.9101 4.6689 19.8117 4.1836 19.5645C3.43109 19.181 2.81902 18.5689 2.43555 17.8164C2.18828 17.3311 2.08988 16.814 2.04395 16.252C1.99898 15.7016 2 15.0237 2 14.2002V9.79981C2 8.97632 1.99898 8.29843 2.04395 7.74805C2.08988 7.18599 2.18827 6.6689 2.43555 6.1836C2.81902 5.43109 3.43109 4.81902 4.1836 4.43555C4.6689 4.18827 5.186 4.08988 5.74805 4.04395C6.29843 3.99898 6.97632 4 7.79981 4H16.2002ZM4.00391 15C4.00691 15.4455 4.01313 15.7953 4.03711 16.0889C4.07293 16.5273 4.13809 16.7518 4.21778 16.9082C4.40951 17.2845 4.71555 17.5905 5.0918 17.7822C5.2482 17.8619 5.47272 17.9271 5.91113 17.9629C6.36117 17.9997 6.94342 18 7.79981 18H11.25V15H4.00391ZM4 13.5H11.25V10.5H4V13.5ZM7.79981 6C6.94342 6 6.36117 6.00035 5.91113 6.03711C5.47272 6.07293 5.2482 6.13809 5.0918 6.21778C4.71555 6.40951 4.40951 6.71555 4.21778 7.0918C4.13809 7.2482 4.07293 7.47272 4.03711 7.91113C4.01313 8.2047 4.00691 8.55453 4.00391 9H11.25V6H7.79981ZM12.75 9H19.9961C19.9931 8.55454 19.9869 8.2047 19.9629 7.91113C19.9271 7.47272 19.8619 7.2482 19.7822 7.0918C19.5905 6.71555 19.2845 6.40951 18.9082 6.21778C18.7518 6.13809 18.5273 6.07293 18.0889 6.03711C17.6388 6.00035 17.0566 6 16.2002 6H12.75V9Z" fill="oklch(0.3523 0 0 / 1)" class="wd-icon-fill"></path>
<path d="M19.3379 13.6923C19.6547 13.3473 20.1695 13.2677 20.5752 13.5019L20.9219 13.703C21.3275 13.9374 21.5164 14.4222 21.376 14.869L21.0029 16.0526L22.2158 16.3231C22.6727 16.4251 22.9978 16.8306 22.998 17.2987V17.7001C22.9979 18.1683 22.6728 18.5737 22.2158 18.6757L21.0029 18.9452L21.376 20.1298C21.5166 20.5766 21.3274 21.0613 20.9219 21.2958L20.5752 21.497C20.1694 21.7313 19.6547 21.6518 19.3379 21.3065L18.498 20.3915L17.6592 21.3065C17.3424 21.6519 16.8277 21.7311 16.4219 21.497L16.0752 21.2968C15.6693 21.0624 15.4804 20.5768 15.6211 20.1298L15.9932 18.9452L14.7812 18.6757C14.324 18.5739 13.9972 18.1685 13.9971 17.7001V17.2987C13.9974 16.8304 14.3241 16.4249 14.7812 16.3231L15.9932 16.0526L15.6211 14.869C15.4804 14.422 15.6693 13.9364 16.0752 13.702L16.4219 13.5019C16.8277 13.2679 17.3425 13.3471 17.6592 13.6923L18.498 14.6073L19.3379 13.6923ZM18.501 15.9999C17.6726 15.9999 17.0011 16.6716 17.001 17.4999C17.0011 18.3282 17.6726 18.9999 18.501 18.9999C19.3289 18.9994 20.0008 18.3279 20.001 17.4999C20.0009 16.6719 19.3289 16.0004 18.501 15.9999Z" fill="oklch(0.3523 0 0 / 1)" class="wd-icon-accent"></path>
</svg>