<svg width="24" height="24" viewBox="0 0 24 24" xmlns="http://www.w3.org/2000/svg" class="wd-icon wd-icon-arrow-down-right-circle" role="presentation">
<g>
<path d="M8.46289 8.46484C8.85339 8.07475 9.48654 8.07461 9.87695 8.46484L13.8262 12.4141V10.5859C13.8262 10.0339 14.2742 9.58626 14.8262 9.58594C15.3783 9.58614 15.8262 10.0338 15.8262 10.5859V14.8281C15.8262 15.3803 15.3783 15.8279 14.8262 15.8281H10.583C10.0311 15.8276 9.58301 15.3801 9.58301 14.8281C9.5833 14.2764 10.0313 13.8296 10.583 13.8291H12.4121L8.46289 9.87988C8.07245 9.48944 8.0726 8.85539 8.46289 8.46484Z" fill="oklch(0.3523 0 0 / 1)" class="wd-icon-fill"></path>
<path d="M12 2C17.5228 2 22 6.47715 22 12C22 17.5228 17.5228 22 12 22C6.47715 22 2 17.5228 2 12C2 6.47715 6.47715 2 12 2ZM12 4C7.58172 4 4 7.58172 4 12C4 16.4183 7.58172 20 12 20C16.4183 20 20 16.4183 20 12C20 7.58172 16.4183 4 12 4Z" fill="oklch(0.3523 0 0 / 1)" class="wd-icon-fill"></path>
</g>
</svg>