<svg width="24" height="24" viewBox="0 0 24 24" xmlns="http://www.w3.org/2000/svg" class="wd-icon wd-icon-line-spacing-grow" role="presentation">
<g>
<path d="M7.99982 13.9998C8.55193 13.9999 8.99969 14.4477 8.99982 14.9998V18.5858L10.2928 17.2928C10.6833 16.9024 11.3163 16.9025 11.7069 17.2928C12.0972 17.6833 12.0972 18.3164 11.7069 18.7069L8.70685 21.7069C8.31639 22.0973 7.68333 22.0972 7.29279 21.7069L4.29279 18.7069C3.90247 18.3163 3.90234 17.6833 4.29279 17.2928C4.68326 16.9025 5.31636 16.9025 5.70685 17.2928L6.99982 18.5858V14.9998C6.99995 14.4477 7.44765 13.9999 7.99982 13.9998Z" fill="oklch(0.3523 0 0 / 1)" class="wd-icon-fill"></path>
<path d="M17.9998 13.0008C18.5521 13.0008 18.9998 13.4485 18.9998 14.0008C18.9996 14.5529 18.5519 15.0008 17.9998 15.0008H12.9998C12.4477 15.0008 12.0001 14.5529 11.9998 14.0008C11.9998 13.4485 12.4475 13.0008 12.9998 13.0008H17.9998Z" fill="oklch(0.3523 0 0 / 1)" class="wd-icon-fill"></path>
<path d="M21.9998 8.99983C22.5521 8.99983 22.9998 9.44755 22.9998 9.99983C22.9998 10.5521 22.5521 10.9998 21.9998 10.9998H12.9998C12.4475 10.9998 11.9998 10.5521 11.9998 9.99983C11.9998 9.44755 12.4475 8.99983 12.9998 8.99983H21.9998Z" fill="oklch(0.3523 0 0 / 1)" class="wd-icon-fill"></path>
<path d="M7.29279 2.2928C7.68333 1.90246 8.31639 1.90234 8.70685 2.2928L11.7069 5.2928C12.0972 5.68327 12.0972 6.31636 11.7069 6.70687C11.3163 7.09721 10.6833 7.09725 10.2928 6.70687L8.99982 5.4139V8.99983C8.99969 9.55194 8.55193 9.99972 7.99982 9.99983C7.44765 9.9998 6.99995 9.55199 6.99982 8.99983V5.4139L5.70685 6.70687C5.31636 7.09714 4.68326 7.09718 4.29279 6.70687C3.90234 6.31641 3.90247 5.68334 4.29279 5.2928L7.29279 2.2928Z" fill="oklch(0.3523 0 0 / 1)" class="wd-icon-fill"></path>
</g>
</svg>