<svg width="24" height="24" viewBox="0 0 24 24" xmlns="http://www.w3.org/2000/svg" class="wd-icon wd-icon-arrow-right-exit" role="presentation">
<g>
<path d="M10 4C10.5523 4 11 4.44772 11 5C11 5.55229 10.5523 6 10 6H9.79981C8.94342 6 8.36117 6.00035 7.91113 6.03711C7.47272 6.07293 7.2482 6.13809 7.0918 6.21778C6.71555 6.40951 6.40951 6.71555 6.21778 7.0918C6.13809 7.2482 6.07293 7.47272 6.03711 7.91113C6.00035 8.36117 6 8.94342 6 9.79981V14.2002C6 15.0566 6.00035 15.6388 6.03711 16.0889C6.07293 16.5273 6.13809 16.7518 6.21778 16.9082C6.40951 17.2845 6.71555 17.5905 7.0918 17.7822C7.2482 17.8619 7.47272 17.9271 7.91113 17.9629C8.36117 17.9997 8.94342 18 9.79981 18H10C10.5523 18 11 18.4477 11 19C11 19.5523 10.5523 20 10 20H9.79981C8.97632 20 8.29843 20.001 7.74805 19.9561C7.18599 19.9101 6.6689 19.8117 6.1836 19.5645C5.43109 19.181 4.81902 18.5689 4.43555 17.8164C4.18827 17.3311 4.08988 16.814 4.04395 16.252C3.99898 15.7016 4 15.0237 4 14.2002V9.79981C4 8.97632 3.99898 8.29843 4.04395 7.74805C4.08988 7.18599 4.18827 6.6689 4.43555 6.1836C4.81902 5.43109 5.43109 4.81902 6.1836 4.43555C6.6689 4.18827 7.18599 4.08988 7.74805 4.04395C8.29843 3.99898 8.97632 4 9.79981 4H10Z" fill="oklch(0.3523 0 0 / 1)" class="wd-icon-fill"></path>
<path d="M15.293 8.29297C15.6833 7.90265 16.3165 7.90294 16.707 8.29297L19.707 11.293C20.0971 11.6835 20.0973 12.3167 19.707 12.707L16.707 15.707C16.3167 16.0974 15.6835 16.0971 15.293 15.707C14.9029 15.3165 14.9026 14.6834 15.293 14.293L16.5859 13H11.001C10.4488 13 10.0012 12.5521 10.001 12C10.0012 11.4479 10.4488 11 11.001 11H16.5859L15.293 9.70703C14.9029 9.31649 14.9027 8.68334 15.293 8.29297Z" fill="oklch(0.3523 0 0 / 1)" class="wd-icon-fill"></path>
</g>
</svg>