<svg width="24" height="24" viewBox="0 0 24 24" xmlns="http://www.w3.org/2000/svg" class="wd-icon wd-icon-book-open" role="presentation">
<path d="M17 4C18.8404 4 20.5261 4.6627 21.8311 5.7627C21.9397 5.85427 21.9999 5.99074 22 6.13281V18.791C22 19.2232 21.4754 19.4659 21.1143 19.2285C19.933 18.452 18.5193 18 17 18C15.24 18 13.6212 18.606 12.3418 19.6211C12.1422 19.7794 11.8578 19.7794 11.6582 19.6211C10.3788 18.606 8.76004 18 7 18C5.48071 18 4.06701 18.452 2.88574 19.2285C2.52456 19.4659 2 19.2232 2 18.791V6.13281C2.00012 5.99074 2.06032 5.85427 2.16895 5.7627C3.47395 4.6627 5.15963 4 7 4C8.76004 4 10.3788 4.60601 11.6582 5.62109C11.8578 5.77937 12.1422 5.77937 12.3418 5.62109C13.6212 4.60601 15.24 4 17 4Z" fill="transparent" class="wd-icon-background"></path>
<path d="M17 3C19.085 3.00004 20.997 3.75258 22.4756 4.99902C22.8216 5.29077 22.9999 5.71217 23 6.13281V18.791C23 19.4537 22.5882 19.9395 22.126 20.1621C21.6716 20.3808 21.0722 20.3972 20.5645 20.0635C19.5415 19.3912 18.3179 19 17 19C15.4739 19 14.0727 19.5247 12.9639 20.4043C12.4003 20.8514 11.5997 20.8514 11.0361 20.4043C9.92727 19.5246 8.52615 19 7 19C5.6819 19 4.45767 19.391 3.43457 20.0635C2.92664 20.3973 2.32751 20.381 1.87305 20.1621C1.4109 19.9394 1 19.4536 1 18.791V6.13281C1.00012 5.71214 1.1784 5.29077 1.52441 4.99902L1.80664 4.77051C3.24262 3.66096 5.04542 3.00004 7 3C8.86756 3.00004 10.597 3.60313 12 4.625C13.403 3.60318 15.1325 3.00004 17 3ZM17 5C15.4903 5.00004 14.1031 5.51344 13 6.37598V17.999C14.1926 17.362 15.5547 17 17 17C18.445 17 19.8071 17.3626 21 18V6.37695C19.8967 5.5141 18.5096 5.00004 17 5ZM7 5C5.49042 5.00004 4.10324 5.51414 3 6.37695V17.999C4.19274 17.3618 5.55527 17 7 17C8.44528 17 9.80747 17.3621 11 17.999V6.37598C9.8969 5.51344 8.50965 5.00004 7 5Z" fill="oklch(0.3523 0 0 / 1)" class="wd-icon-fill"></path>
</svg>