<svg width="24" height="24" viewBox="0 0 24 24" xmlns="http://www.w3.org/2000/svg" class="wd-icon wd-icon-question-circle" role="presentation">
<path d="M12 4C16.4183 4 20 7.58172 20 12C20 16.4183 16.4183 20 12 20C7.58172 20 4 16.4183 4 12C4 7.58172 7.58172 4 12 4ZM12 14.875C11.3787 14.875 10.875 15.3787 10.875 16C10.875 16.6213 11.3787 17.125 12 17.125C12.6213 17.125 13.125 16.6213 13.125 16C13.125 15.3787 12.6213 14.875 12 14.875ZM12.375 6.625C11.2352 6.625 10.4513 6.95483 9.92773 7.42871C9.41743 7.89077 9.23592 8.41919 9.16309 8.6377C9.15403 8.66486 9.14743 8.69236 9.1416 8.71973C9.13974 8.72855 9.13728 8.73724 9.13574 8.74609C9.13061 8.77537 9.13052 8.80482 9.12891 8.83398C9.12765 8.85719 9.12606 8.88019 9.12695 8.90332C9.12791 8.92838 9.13133 8.9529 9.13477 8.97754C9.13804 9.00115 9.14099 9.02467 9.14648 9.04785C9.15172 9.06979 9.15886 9.09099 9.16602 9.1123C9.17409 9.13649 9.18283 9.16028 9.19336 9.18359C9.20392 9.2069 9.21662 9.22886 9.22949 9.25098C9.24008 9.26918 9.25052 9.28733 9.2627 9.30469C9.27999 9.32939 9.29909 9.35245 9.31934 9.375C9.33393 9.39119 9.34809 9.40781 9.36426 9.42285C9.37267 9.43071 9.38084 9.4388 9.38965 9.44629C9.41157 9.46486 9.4345 9.4827 9.45898 9.49902C9.46715 9.50447 9.47608 9.50859 9.48438 9.51367C9.49655 9.52111 9.50879 9.52837 9.52148 9.53516L9.52539 9.53809L9.56641 9.55859C9.56987 9.56015 9.57365 9.56099 9.57715 9.5625C9.58617 9.56642 9.59538 9.5697 9.60449 9.57324C9.6156 9.57754 9.62628 9.58311 9.6377 9.58691C9.66679 9.59661 9.69627 9.60338 9.72559 9.60938C9.73242 9.61076 9.73924 9.61209 9.74609 9.61328C9.7754 9.61843 9.80478 9.6185 9.83398 9.62012C9.85722 9.62137 9.88016 9.62297 9.90332 9.62207C9.92939 9.62107 9.95486 9.61794 9.98047 9.61426C10.0031 9.61102 10.0256 9.60782 10.0479 9.60254C10.0705 9.59712 10.0923 9.5895 10.1143 9.58203C10.1384 9.57387 10.1622 9.56531 10.1855 9.55469C10.2084 9.54422 10.2302 9.53223 10.252 9.51953C10.2699 9.50904 10.2876 9.49837 10.3047 9.48633C10.3294 9.46899 10.3524 9.44997 10.375 9.42969C10.3912 9.41507 10.4078 9.40097 10.4229 9.38477C10.4307 9.37634 10.4388 9.36819 10.4463 9.35938C10.4647 9.33762 10.4828 9.31529 10.499 9.29102C10.7368 8.9344 11.1903 8.25 12.25 8.25C13.1117 8.25 13.75 8.80047 13.75 9.5C13.75 10.0276 13.447 10.3207 12.791 10.8291C12.2293 11.2645 11.25 11.9497 11.25 13.25C11.25 13.3132 11.2597 13.374 11.2744 13.4326C11.2804 13.4562 11.2877 13.4791 11.2959 13.502C11.3045 13.5261 11.3142 13.5494 11.3252 13.5723C11.3352 13.5931 11.3466 13.613 11.3584 13.6328C11.3707 13.6533 11.3834 13.6732 11.3975 13.6924C11.4121 13.7124 11.4277 13.7315 11.4443 13.75C11.4601 13.7675 11.4768 13.7838 11.4941 13.7998C11.512 13.8162 11.5303 13.8319 11.5498 13.8467C11.5693 13.8614 11.5894 13.8749 11.6104 13.8877C11.6392 13.9053 11.6685 13.9227 11.7002 13.9365C11.7061 13.9391 11.7118 13.9419 11.7178 13.9443C11.7378 13.9525 11.7582 13.9603 11.7793 13.9668C11.8006 13.9734 11.8223 13.9778 11.8438 13.9824C11.8461 13.9829 11.8483 13.9839 11.8506 13.9844C11.8806 13.9905 11.9105 13.9937 11.9404 13.9961C11.9601 13.9976 11.9799 14 12 14C12.0632 14 12.1239 13.9893 12.1826 13.9746C12.2062 13.9686 12.2291 13.9613 12.252 13.9531C12.2761 13.9445 12.2994 13.9348 12.3223 13.9238C12.3431 13.9138 12.363 13.9025 12.3828 13.8906C12.4033 13.8783 12.4232 13.8657 12.4424 13.8516C12.4624 13.8369 12.4815 13.8214 12.5 13.8047C12.5175 13.7889 12.5338 13.7723 12.5498 13.7549C12.5662 13.737 12.5819 13.7188 12.5967 13.6992C12.6114 13.6797 12.6249 13.6596 12.6377 13.6387C12.6565 13.6078 12.676 13.577 12.6904 13.543C12.692 13.5392 12.6928 13.5351 12.6943 13.5312C12.7023 13.5114 12.7104 13.4915 12.7168 13.4707C12.8854 12.9227 13.3424 12.5756 14.04 12C14.6568 11.4912 15.5 10.7581 15.5 9.5C15.5 8.77187 15.2553 8.03853 14.7021 7.48535C14.1445 6.92767 13.3457 6.625 12.375 6.625Z" fill="transparent" class="wd-icon-background"></path>
<path d="M12 2C17.5228 2 22 6.47715 22 12C22 17.5228 17.5228 22 12 22C6.47715 22 2 17.5228 2 12C2 6.47715 6.47715 2 12 2ZM12 4C7.58172 4 4 7.58172 4 12C4 16.4183 7.58172 20 12 20C16.4183 20 20 16.4183 20 12C20 7.58172 16.4183 4 12 4Z" fill="oklch(0.3523 0 0 / 1)" class="wd-icon-fill"></path>
<g>
<path d="M12.0003 14.875C12.6215 14.8751 13.1253 15.3788 13.1253 16C13.1253 16.6212 12.6215 17.1249 12.0003 17.125C11.3789 17.125 10.8753 16.6213 10.8753 16C10.8753 15.3787 11.3789 14.875 12.0003 14.875Z" fill="oklch(0.3523 0 0 / 1)" class="wd-icon-accent"></path>
<path d="M12.3753 6.625C13.3458 6.62505 14.1448 6.92771 14.7024 7.48535C15.2555 8.03852 15.5003 8.77192 15.5003 9.5C15.5003 10.758 14.657 11.4912 14.0403 12C13.3427 12.5755 12.8857 12.9227 12.7171 13.4707C12.6987 13.5304 12.6707 13.5845 12.6399 13.6357C12.6261 13.6585 12.611 13.68 12.595 13.7012C12.5807 13.7199 12.5659 13.7377 12.5501 13.7549C12.5341 13.7723 12.5178 13.7889 12.5003 13.8047C12.4817 13.8214 12.4627 13.8369 12.4426 13.8516C12.4235 13.8657 12.4036 13.8783 12.3831 13.8906C12.3632 13.9025 12.3434 13.9138 12.3225 13.9238C12.2996 13.9348 12.2763 13.9445 12.2522 13.9531C12.2294 13.9613 12.2065 13.9686 12.1829 13.9746C12.1242 13.9894 12.0635 14 12.0003 14C11.9802 14 11.9603 13.9976 11.9407 13.9961C11.9108 13.9937 11.8808 13.9905 11.8508 13.9844C11.8485 13.9839 11.8463 13.9829 11.844 13.9824C11.8226 13.9778 11.8009 13.9734 11.7796 13.9668C11.7585 13.9603 11.738 13.9524 11.718 13.9443C11.7121 13.9419 11.7063 13.9391 11.7005 13.9365C11.6685 13.9226 11.6388 13.9055 11.6096 13.8877C11.588 13.8744 11.5673 13.8601 11.5471 13.8447C11.529 13.8309 11.5121 13.8161 11.4954 13.8008C11.4777 13.7845 11.4607 13.7679 11.4446 13.75C11.428 13.7315 11.4124 13.7124 11.3977 13.6924C11.3836 13.6732 11.3709 13.6533 11.3587 13.6328C11.3468 13.613 11.3354 13.5931 11.3255 13.5723C11.3141 13.5484 11.3041 13.5242 11.2952 13.499C11.2882 13.4794 11.2819 13.4597 11.2766 13.4395C11.2608 13.3788 11.2503 13.3157 11.2503 13.25C11.2503 11.9497 12.2295 11.2645 12.7913 10.8291C13.4471 10.3208 13.7503 10.0276 13.7503 9.5C13.7503 8.80053 13.1118 8.2501 12.2503 8.25C11.1906 8.25 10.737 8.93437 10.4993 9.29102C10.4831 9.31524 10.4649 9.33766 10.4466 9.35938C10.4392 9.36801 10.4308 9.37553 10.4231 9.38379C10.4065 9.40174 10.3884 9.41758 10.3704 9.43359C10.3501 9.45151 10.3298 9.46881 10.3079 9.48438C10.2883 9.4983 10.268 9.51058 10.2473 9.52246C10.2272 9.53405 10.207 9.54501 10.1858 9.55469C10.1632 9.56502 10.1399 9.57305 10.1165 9.58105C10.0932 9.58903 10.0702 9.59686 10.0462 9.60254C10.0248 9.60755 10.0034 9.61112 9.98171 9.61426C9.95578 9.61803 9.92998 9.62105 9.90358 9.62207C9.88042 9.62297 9.85748 9.62137 9.83425 9.62012C9.80504 9.61851 9.77567 9.61842 9.74635 9.61328C9.7395 9.61209 9.73268 9.61076 9.72585 9.60938C9.69653 9.60339 9.66705 9.5966 9.63796 9.58691C9.62661 9.58313 9.6158 9.57751 9.60475 9.57324C9.59496 9.56944 9.58514 9.56576 9.57546 9.56152C9.5639 9.55649 9.55247 9.55145 9.54128 9.5459C9.53244 9.54149 9.52363 9.53702 9.51491 9.53223C9.50511 9.52687 9.49608 9.5204 9.48659 9.51465C9.47766 9.50922 9.46802 9.50487 9.45925 9.49902C9.43481 9.48273 9.41179 9.46482 9.38991 9.44629C9.3811 9.4388 9.37294 9.43071 9.36452 9.42285C9.34834 9.40781 9.3342 9.39119 9.3196 9.375C9.29935 9.35245 9.28026 9.32939 9.26296 9.30469C9.24941 9.28539 9.23742 9.26546 9.22585 9.24512C9.21434 9.22492 9.20321 9.20476 9.19362 9.18359C9.18437 9.16311 9.17657 9.14226 9.16921 9.12109C9.16011 9.09508 9.15198 9.06895 9.14577 9.04199C9.14089 9.02069 9.13803 8.99919 9.13503 8.97754C9.13159 8.9529 9.12818 8.92839 9.12721 8.90332C9.12632 8.88018 9.12791 8.8572 9.12917 8.83398C9.13078 8.80481 9.13087 8.77537 9.136 8.74609C9.13754 8.73724 9.14 8.72855 9.14186 8.71973C9.14769 8.69237 9.1543 8.66485 9.16335 8.6377C9.2362 8.41915 9.41775 7.89072 9.928 7.42871C10.4515 6.95489 11.2356 6.625 12.3753 6.625Z" fill="oklch(0.3523 0 0 / 1)" class="wd-icon-accent"></path>
</g>
</svg>