<svg width="24" height="24" viewBox="0 0 24 24" xmlns="http://www.w3.org/2000/svg" class="wd-icon wd-icon-pause" role="presentation">
<g>
<path d="M8.5 2C8.77614 2 9 2.22386 9 2.5V21.5C9 21.7761 8.77614 22 8.5 22H5.5C5.22386 22 5 21.7761 5 21.5V2.5C5 2.22386 5.22386 2 5.5 2H8.5Z" fill="oklch(0.3523 0 0 / 1)" class="wd-icon-fill"></path>
<path d="M18.5 2C18.7761 2 19 2.22386 19 2.5V21.5C19 21.7761 18.7761 22 18.5 22H15.5C15.2239 22 15 21.7761 15 21.5V2.5C15 2.22386 15.2239 2 15.5 2H18.5Z" fill="oklch(0.3523 0 0 / 1)" class="wd-icon-fill"></path>
</g>
</svg>