<svg width="24" height="24" viewBox="0 0 24 24" xmlns="http://www.w3.org/2000/svg" class="wd-icon wd-icon-align-top" role="presentation">
<g>
<path d="M11.5898 7.58496C11.7889 7.30062 12.2101 7.30065 12.4092 7.58496L14.9492 11.2129C15.1808 11.5442 14.9433 11.9998 14.5391 12H13V21C12.9999 21.5521 12.5521 21.9999 12 22C11.4479 21.9999 11.0001 21.5521 11 21V12H9.45996C9.05557 11.9999 8.81892 11.5442 9.05078 11.2129L11.5898 7.58496Z" fill="oklch(0.3523 0 0 / 1)" class="wd-icon-fill"></path>
<path d="M19 3C19.5523 3 20 3.44772 20 4C20 4.55228 19.5523 5 19 5H5C4.44772 5 4 4.55228 4 4C4 3.44772 4.44772 3 5 3H19Z" fill="oklch(0.3523 0 0 / 1)" class="wd-icon-fill"></path>
</g>
</svg>