<svg width="24" height="24" viewBox="0 0 24 24" xmlns="http://www.w3.org/2000/svg" class="wd-icon wd-icon-home" role="presentation">
<path d="M11.7329 4.09772C11.9074 4.04946 12.0916 4.04946 12.2661 4.09772C12.3158 4.11148 12.4006 4.14416 12.5806 4.26764C12.7711 4.39843 13.0058 4.58576 13.3735 4.87995L18.9995 9.38092V16.7999C18.9995 17.3761 18.9982 17.749 18.9751 18.0323C18.9529 18.3035 18.9153 18.4047 18.8901 18.4542C18.7943 18.642 18.6415 18.7949 18.4536 18.8907C18.4041 18.9159 18.303 18.9535 18.0317 18.9756C17.7484 18.9988 17.3758 19.0001 16.7993 19.0001H14.9995V16.0001C14.9995 15.0683 14.9994 14.602 14.8472 14.2344C14.6442 13.7444 14.2551 13.3544 13.7651 13.1514C13.3976 12.9992 12.9314 13.0001 11.9995 13.0001C11.0676 13.0001 10.6014 12.9992 10.2339 13.1514C9.74388 13.3544 9.35484 13.7444 9.15186 14.2344C8.99966 14.602 8.99951 15.0683 8.99951 16.0001V19.0001H7.19971C6.62318 19.0001 6.25062 18.9988 5.96729 18.9756C5.69601 18.9535 5.59491 18.9159 5.54541 18.8907C5.35756 18.7949 5.20473 18.642 5.10889 18.4542C5.08371 18.4047 5.04612 18.3035 5.02393 18.0323C5.00079 17.749 4.99951 17.3761 4.99951 16.7999V9.38092L10.6255 4.87995C10.9932 4.58576 11.2279 4.39843 11.4185 4.26764C11.5984 4.14416 11.6832 4.11148 11.7329 4.09772Z" fill="transparent" class="wd-icon-background"></path>
<path d="M11.1999 2.17005C11.7232 2.02531 12.2762 2.02538 12.7995 2.17005C13.1453 2.26571 13.4373 2.43035 13.7126 2.61927C13.9775 2.8011 14.2785 3.04234 14.6237 3.31849L22.6247 9.71888C23.0559 10.0639 23.1259 10.6939 22.781 11.1251C22.4359 11.5564 21.806 11.6264 21.3747 11.2814L20.9997 10.9806V16.7999C20.9997 17.3433 21.0007 17.8118 20.9694 18.1954C20.9371 18.5906 20.8652 18.9842 20.6726 19.3624C20.385 19.9267 19.9262 20.3854 19.362 20.673C18.9837 20.8657 18.5902 20.9375 18.195 20.9699C17.8114 21.0012 17.3429 21.0001 16.7995 21.0001H7.1999C6.65648 21.0001 6.18799 21.0012 5.80439 20.9699C5.40925 20.9375 5.01558 20.8657 4.6374 20.673C4.07337 20.3854 3.61435 19.9265 3.32685 19.3624C3.13427 18.9843 3.06227 18.5905 3.02998 18.1954C2.99866 17.8119 2.9997 17.3433 2.9997 16.7999V10.9806L2.6247 11.2814C2.19344 11.6264 1.56346 11.5564 1.21845 11.1251C0.873812 10.6939 0.943576 10.0638 1.3747 9.71888L9.37568 3.31849C9.72101 3.04222 10.0218 2.80116 10.2868 2.61927C10.5622 2.43027 10.8541 2.26576 11.1999 2.17005ZM12.2663 4.09779C12.0919 4.04963 11.9074 4.04956 11.7331 4.09779C11.6834 4.11156 11.5985 4.14428 11.4186 4.26771C11.2281 4.39851 10.9935 4.58573 10.6257 4.88002L4.9997 9.38099V16.7999C4.9997 17.3762 5.001 17.7491 5.02412 18.0324C5.04624 18.3031 5.08389 18.4046 5.10908 18.4542C5.20485 18.6421 5.35782 18.7949 5.5456 18.8908C5.59502 18.9159 5.69615 18.9535 5.96748 18.9757C6.25076 18.9989 6.62352 19.0001 7.1999 19.0001H8.9997V16.0001C8.9997 15.0688 8.99997 14.6029 9.15205 14.2355C9.35503 13.7454 9.745 13.3555 10.2351 13.1525C10.6025 13.0004 11.0684 13.0001 11.9997 13.0001C12.9314 13.0001 13.3978 13.0003 13.7653 13.1525C14.2554 13.3555 14.6444 13.7454 14.8474 14.2355C14.9995 14.603 14.9997 15.0686 14.9997 16.0001V19.0001H16.7995C17.3759 19.0001 17.7486 18.9988 18.0319 18.9757C18.3034 18.9535 18.4043 18.9159 18.4538 18.8908C18.6418 18.7949 18.7945 18.6422 18.8903 18.4542C18.9155 18.4047 18.9531 18.3036 18.9753 18.0324C18.9984 17.7491 18.9997 17.3762 18.9997 16.7999V9.38099L13.3737 4.88002C13.0061 4.58589 12.7712 4.39846 12.5808 4.26771C12.401 4.14435 12.3159 4.11152 12.2663 4.09779Z" fill="oklch(0.3523 0 0 / 1)" class="wd-icon-fill"></path>
</svg>