<svg width="24" height="24" viewBox="0 0 24 24" xmlns="http://www.w3.org/2000/svg" class="wd-icon wd-icon-actuals" role="presentation">
<path d="M19.293 3.29297C19.6835 2.90253 20.3165 2.90253 20.707 3.29297C21.0975 3.68347 21.0975 4.3165 20.707 4.70703L19.0303 6.38281C20.2621 7.92254 21 9.87477 21 12C21 14.1249 20.2618 16.0766 19.0303 17.6162L20.707 19.293C21.0975 19.6835 21.0975 20.3165 20.707 20.707C20.3165 21.0976 19.6835 21.0976 19.293 20.707L17.6162 19.0303C16.0765 20.2619 14.125 21 12 21C9.87473 21 7.92257 20.2622 6.38281 19.0303L4.70703 20.707C4.31651 21.0976 3.68349 21.0976 3.29297 20.707C2.90257 20.3165 2.90249 19.6835 3.29297 19.293L4.96875 17.6162C3.73744 16.0766 3 14.1247 3 12C3.00003 9.87499 3.7371 7.92247 4.96875 6.38281L3.29297 4.70703C2.90244 4.31651 2.90244 3.68349 3.29297 3.29297C3.68349 2.90244 4.31651 2.90244 4.70703 3.29297L6.38379 4.96973C7.92343 3.73818 9.87506 3 12 3C14.1247 3 16.0757 3.73847 17.6152 4.96973L19.293 3.29297ZM12 5C8.13405 5 5.00007 8.13406 5 12C5 15.866 8.13401 19 12 19C15.866 19 19 15.866 19 12C18.9999 8.13406 15.866 5 12 5Z" fill="oklch(0.3523 0 0 / 1)" class="wd-icon-fill"></path>
</svg>