<svg width="24" height="24" viewBox="0 0 24 24" xmlns="http://www.w3.org/2000/svg" class="wd-icon wd-icon-package-arrow-up" role="presentation">
<path d="M16.793 1C17.1908 1.00002 17.5722 1.15817 17.8535 1.43945L21.5605 5.14648C21.8418 5.42777 22 5.80924 22 6.20703V20.5C22 21.3284 21.3284 22 20.5 22H3.5C2.67157 22 2 21.3284 2 20.5V6.20703C2.00002 5.80923 2.15817 5.42777 2.43945 5.14648L6.14648 1.43945L6.25684 1.33984C6.52371 1.12123 6.85903 1.00002 7.20703 1H16.793ZM4 20H20V7H4V20ZM13 5H18.5859L16.5859 3H13V5ZM5.41406 5H11V3H7.41406L5.41406 5Z" fill="oklch(0.3523 0 0 / 1)" class="wd-icon-fill"></path>
<path d="M11.5837 8.62399C11.7816 8.32714 12.2178 8.32718 12.4158 8.62399L15.4822 13.2226C15.7032 13.5548 15.4651 13.9997 15.0662 14H12.9998V17.5C12.9996 17.776 12.7758 18 12.4998 18H11.4998C11.2239 17.9997 10.9999 17.7758 10.9998 17.5V14H8.93433C8.53505 14 8.29699 13.5549 8.51832 13.2226L11.5837 8.62399Z" fill="oklch(0.3523 0 0 / 1)" class="wd-icon-accent"></path>
</svg>