<svg width="24" height="24" viewBox="0 0 24 24" xmlns="http://www.w3.org/2000/svg" class="wd-icon wd-icon-comment-sparkle" role="presentation">
<path d="M12 4C16.5323 4 20 7.24148 20 11C20 14.7585 16.5323 18 12 18C11.8284 18 11.6609 18.0443 11.5127 18.127L11.3711 18.2227C10.5396 18.8952 9.49423 19.3034 8.4834 19.5303C8.0525 19.627 7.64008 19.6863 7.27051 19.7217C7.41145 18.8842 7.47168 18.0059 7.47168 17.3135C7.47167 16.9855 7.31064 16.678 7.04102 16.4912C5.16038 15.1881 4 13.1945 4 11C4 7.24148 7.46774 4 12 4ZM12 7C11.724 7 11.504 7.22488 11.4648 7.49805C11.2461 9.03209 10.0321 10.2461 8.49805 10.4648C8.22488 10.504 8 10.724 8 11C8 11.276 8.22488 11.496 8.49805 11.5352C10.032 11.7539 11.246 12.968 11.4648 14.502C11.504 14.7751 11.724 15 12 15C12.276 15 12.496 14.7751 12.5352 14.502C12.754 12.968 13.968 11.7539 15.502 11.5352C15.7751 11.496 16 11.276 16 11C16 10.724 15.7751 10.504 15.502 10.4648C13.9679 10.2461 12.7539 9.03209 12.5352 7.49805C12.496 7.22488 12.276 7 12 7Z" fill="transparent" class="wd-icon-background"></path>
<path d="M12 2C17.4089 2 22 5.92196 22 11C22 15.9688 17.6041 19.8274 12.3477 19.9912C11.2635 20.7833 10.024 21.235 8.92188 21.4824C7.723 21.7515 6.61962 21.7956 5.92969 21.7471C5.62071 21.7253 5.33962 21.5616 5.16797 21.3037C4.99636 21.0458 4.95355 20.7231 5.05273 20.4297C5.28915 19.7301 5.42265 18.7021 5.45996 17.8096C3.36367 16.1774 2 13.7479 2 11C2 5.92196 6.59113 2 12 2ZM12 4C7.46774 4 4 7.24148 4 11C4 13.1945 5.16038 15.1881 7.04102 16.4912C7.31064 16.678 7.47167 16.9855 7.47168 17.3135C7.47168 18.0059 7.41145 18.8842 7.27051 19.7217C7.64008 19.6863 8.0525 19.627 8.4834 19.5303C9.49423 19.3034 10.5396 18.8952 11.3711 18.2227L11.5127 18.127C11.6609 18.0443 11.8284 18 12 18C16.5323 18 20 14.7585 20 11C20 7.24148 16.5323 4 12 4Z" fill="oklch(0.3523 0 0 / 1)" class="wd-icon-fill"></path>
<path d="M12 7C12.276 7 12.496 7.22488 12.5352 7.49805C12.7539 9.03209 13.9679 10.2461 15.502 10.4648C15.7751 10.504 16 10.724 16 11C16 11.276 15.7751 11.496 15.502 11.5352C13.968 11.7539 12.754 12.968 12.5352 14.502C12.496 14.7751 12.276 15 12 15C11.724 15 11.504 14.7751 11.4648 14.502C11.246 12.968 10.032 11.7539 8.49805 11.5352C8.22488 11.496 8 11.276 8 11C8 10.724 8.22488 10.504 8.49805 10.4648C10.0321 10.2461 11.2461 9.03209 11.4648 7.49805C11.504 7.22488 11.724 7 12 7Z" fill="oklch(0.3523 0 0 / 1)" class="wd-icon-accent"></path>
</svg>