<svg width="24" height="24" viewBox="0 0 24 24" xmlns="http://www.w3.org/2000/svg" class="wd-icon wd-icon-move-row-down" role="presentation">
<g>
<path d="M8.79981 7C9.34336 7 9.81165 6.99893 10.1953 7.03027C10.5906 7.06258 10.984 7.1344 11.3623 7.32715C11.9265 7.61472 12.3853 8.07348 12.6729 8.6377C12.8656 9.01599 12.9374 9.40943 12.9697 9.80469C13.0011 10.1884 13 10.6566 13 11.2002V16.7998C13 17.3434 13.0011 17.8116 12.9697 18.1953C12.9374 18.5906 12.8656 18.984 12.6729 19.3623C12.3853 19.9265 11.9265 20.3853 11.3623 20.6729C10.984 20.8656 10.5906 20.9374 10.1953 20.9697C9.81165 21.0011 9.34336 21 8.79981 21H7.2002C6.65665 21 6.18836 21.0011 5.80469 20.9697C5.40944 20.9374 5.01599 20.8656 4.6377 20.6729C4.07348 20.3853 3.61473 19.9265 3.32715 19.3623C3.1344 18.984 3.06259 18.5906 3.03028 18.1953C2.99893 17.8116 3 17.3434 3 16.7998V11.2002C3 10.6566 2.99893 10.1884 3.03028 9.80469C3.06259 9.40943 3.1344 9.01599 3.32715 8.6377C3.61473 8.07347 4.07348 7.61472 4.6377 7.32715C5.01599 7.1344 5.40944 7.06258 5.80469 7.03027C6.18836 6.99893 6.65665 7 7.2002 7H8.79981ZM5 16.7998C5 17.3764 5.00127 17.7489 5.02442 18.0322C5.04661 18.3038 5.08419 18.4047 5.10938 18.4541C5.20522 18.6421 5.35794 18.7948 5.5459 18.8906C5.59534 18.9158 5.6962 18.9534 5.96778 18.9756C6.25111 18.9987 6.62365 19 7.2002 19H8.79981C9.37636 19 9.74889 18.9987 10.0322 18.9756C10.3038 18.9534 10.4047 18.9158 10.4541 18.8906C10.6421 18.7948 10.7948 18.6421 10.8906 18.4541C10.9158 18.4047 10.9534 18.3038 10.9756 18.0322C10.9987 17.7489 11 17.3764 11 16.7998V16.5H5V16.7998ZM5 15H11V13H5V15ZM7.2002 9C6.62365 9 6.25111 9.00126 5.96778 9.02441C5.6962 9.04661 5.59534 9.08419 5.5459 9.10938C5.35794 9.20522 5.20522 9.35793 5.10938 9.5459C5.08419 9.59534 5.04662 9.69619 5.02442 9.96777C5.00127 10.2511 5 10.6236 5 11.2002V11.5H11V11.2002C11 10.6236 10.9987 10.2511 10.9756 9.96777C10.9534 9.69619 10.9158 9.59534 10.8906 9.5459C10.7948 9.35793 10.6421 9.20521 10.4541 9.10938C10.4047 9.08419 10.3038 9.04661 10.0322 9.02441C9.74889 9.00127 9.37636 9 8.79981 9H7.2002Z" fill="oklch(0.3523 0 0 / 1)" class="wd-icon-fill"></path>
<path d="M18 7.25C18.4142 7.25 18.75 7.58579 18.75 8V18.1895L20.4697 16.4697C20.7626 16.1771 21.2375 16.1771 21.5303 16.4697C21.8229 16.7626 21.8228 17.2374 21.5303 17.5303L18.5303 20.5303C18.2374 20.8228 17.7625 20.8228 17.4697 20.5303L14.4697 17.5303C14.1772 17.2375 14.1772 16.7626 14.4697 16.4697C14.7626 16.1772 15.2375 16.1771 15.5303 16.4697L17.25 18.1895V8C17.25 7.58579 17.5858 7.25 18 7.25Z" fill="oklch(0.3523 0 0 / 1)" class="wd-icon-fill"></path>
<path d="M20 3C20.5523 3 21 3.44772 21 4C21 4.55228 20.5523 5 20 5H4C3.44772 5 3 4.55228 3 4C3 3.44772 3.44772 3 4 3H20Z" fill="oklch(0.3523 0 0 / 1)" class="wd-icon-fill"></path>
</g>
</svg>