<svg width="24" height="24" viewBox="0 0 24 24" xmlns="http://www.w3.org/2000/svg" class="wd-icon wd-icon-arrow-left-circle-fill" role="presentation">
<path d="M12 2C17.5228 2 22 6.47715 22 12C22 17.5228 17.5228 22 12 22C6.47715 22 2 17.5228 2 12C2 6.47715 6.47715 2 12 2ZM11.707 8.29297C11.3167 7.9026 10.6835 7.90292 10.293 8.29297L7.29297 11.293C6.90282 11.6835 6.90257 12.3166 7.29297 12.707L10.293 15.707C10.6834 16.0974 11.3165 16.0972 11.707 15.707C12.0971 15.3165 12.0973 14.6834 11.707 14.293L10.4141 13H15.999C16.5512 13 16.9988 12.5521 16.999 12C16.9988 11.4479 16.5512 11 15.999 11H10.4141L11.707 9.70703C12.097 9.31651 12.0973 8.68334 11.707 8.29297Z" fill="oklch(0.3523 0 0 / 1)" class="wd-icon-fill"></path>
</svg>