<svg width="24" height="24" viewBox="0 0 24 24" xmlns="http://www.w3.org/2000/svg" class="wd-icon wd-icon-arrow-down-left-circle-fill" role="presentation">
<path d="M12 2C17.5228 2 22 6.47715 22 12C22 17.5228 17.5228 22 12 22C6.47715 22 2 17.5228 2 12C2 6.47715 6.47715 2 12 2ZM15.5361 8.46484C15.1456 8.07456 14.5115 8.0744 14.1211 8.46484L10.1719 12.4141V10.585C10.1714 10.0333 9.72459 9.58525 9.17285 9.58496C8.62086 9.58496 8.17333 10.0331 8.17285 10.585V14.8281C8.17306 15.3802 8.62069 15.8281 9.17285 15.8281H13.415C13.9672 15.8281 14.4148 15.3802 14.415 14.8281C14.4147 14.2761 13.9671 13.8281 13.415 13.8281H11.5869L15.5361 9.87891C15.9264 9.4885 15.9262 8.85535 15.5361 8.46484Z" fill="oklch(0.3523 0 0 / 1)" class="wd-icon-fill"></path>
</svg>