<svg width="24" height="24" viewBox="0 0 24 24" xmlns="http://www.w3.org/2000/svg" class="wd-icon wd-icon-x" role="presentation">
<path d="M17.2928 5.29289C17.6834 4.90237 18.3164 4.90237 18.7069 5.29289C19.0972 5.68344 19.0974 6.31651 18.7069 6.70696L13.4139 11.9999L18.7069 17.2929C19.0972 17.6834 19.0974 18.3165 18.7069 18.707C18.3165 19.0973 17.6834 19.0972 17.2928 18.707L11.9999 13.414L6.70691 18.707C6.31646 19.0973 5.68336 19.0972 5.29285 18.707C4.90235 18.3165 4.90241 17.6834 5.29285 17.2929L10.5858 11.9999L5.29285 6.70696C4.90235 6.31646 4.90242 5.68342 5.29285 5.29289C5.68337 4.90237 6.31639 4.90237 6.70691 5.29289L11.9999 10.5859L17.2928 5.29289Z" fill="oklch(0.3523 0 0 / 1)" class="wd-icon-fill"></path>
</svg>