<svg width="24" height="24" viewBox="0 0 24 24" xmlns="http://www.w3.org/2000/svg" class="wd-icon wd-icon-finder" role="presentation">
<g>
<path d="M7 7C7.55229 7 8 7.44772 8 8V10C8 10.5523 7.55229 11 7 11C6.44772 11 6 10.5523 6 10V8C6 7.44772 6.44772 7 7 7Z" fill="oklch(0.3523 0 0 / 1)" class="wd-icon-fill"></path>
<path d="M16 7C16.5523 7 17 7.44772 17 8V10C17 10.5523 16.5523 11 16 11C15.4477 11 15 10.5523 15 10V8C15 7.44772 15.4477 7 16 7Z" fill="oklch(0.3523 0 0 / 1)" class="wd-icon-fill"></path>
<path d="M14.7939 2.00781C14.8627 2.00452 14.9316 2 15.001 2V2.01172C15.5058 2.02119 15.9582 2.03804 16.3652 2.07129C17.2608 2.14446 18.0244 2.29805 18.7236 2.6543C19.8526 3.22954 20.7705 4.1474 21.3457 5.27637C21.7019 5.97558 21.8555 6.73921 21.9287 7.63477C22.0009 8.51866 22 9.61647 22 11V13C22 14.3835 22.0009 15.4813 21.9287 16.3652C21.8555 17.2608 21.7019 18.0244 21.3457 18.7236C20.7705 19.8526 19.8526 20.7705 18.7236 21.3457C18.0244 21.7019 17.2608 21.8555 16.3652 21.9287C15.9582 21.962 15.5058 21.9778 15.001 21.9873V22C14.9252 22 14.85 21.996 14.7754 21.9912C14.2422 21.9986 13.6529 22 13 22H11C9.61647 22 8.51866 22.0009 7.63477 21.9287C6.73921 21.8555 5.97558 21.7019 5.27637 21.3457C4.1474 20.7705 3.22954 19.8526 2.6543 18.7236C2.29805 18.0244 2.14446 17.2608 2.07129 16.3652C1.99909 15.4813 2 14.3835 2 13V11C2 9.61647 1.99909 8.51866 2.07129 7.63477C2.14446 6.73921 2.29805 5.97558 2.6543 5.27637C3.22954 4.1474 4.1474 3.22954 5.27637 2.6543C5.97558 2.29805 6.73921 2.14446 7.63477 2.07129C8.51866 1.99909 9.61647 2 11 2H13C13.6605 2 14.2559 2.00017 14.7939 2.00781ZM11 4C9.58363 4 8.58138 4.00047 7.79785 4.06445C7.02593 4.12752 6.55391 4.24686 6.18359 4.43555C5.43109 4.81902 4.81902 5.43109 4.43555 6.18359C4.24686 6.55391 4.12752 7.02593 4.06445 7.79785C4.00047 8.58138 4 9.58363 4 11V13C4 14.4164 4.00047 15.4186 4.06445 16.2021C4.12752 16.9741 4.24686 17.4461 4.43555 17.8164C4.81902 18.5689 5.43109 19.181 6.18359 19.5645C6.55391 19.7531 7.02593 19.8725 7.79785 19.9355C8.58138 19.9995 9.58363 20 11 20H11.8379C11.6219 19.5454 11.501 19.0368 11.501 18.5V17.9863C10.1425 17.914 8.80465 17.5392 7.62402 16.9229C7.47658 16.8463 7.33133 16.7661 7.18848 16.6826C7.02555 16.5858 6.89479 16.4362 6.83106 16.2549C6.76731 16.0736 6.77528 15.8766 6.85352 15.7051C6.93176 15.5336 7.07525 15.3988 7.25391 15.3281C7.43271 15.2574 7.63155 15.2577 7.81152 15.3174C7.95046 15.3625 8.08942 15.4055 8.22852 15.4463C9.31572 15.7652 10.4073 15.9469 11.501 15.9893V14H9.6875C9.37442 14 9.07967 13.8531 8.89063 13.6035C8.7017 13.3541 8.63998 13.0307 8.72461 12.7295L10.8613 5.13574C10.9766 4.72605 11.1517 4.3461 11.3711 4H11ZM14.8115 4.00684C13.8609 4.08494 13.048 4.74697 12.7861 5.67773L11.0078 12H12.501C13.0533 12 13.501 12.4477 13.501 13V15.9102C14.2593 15.8214 15.0166 15.6677 15.7715 15.4463C15.9106 15.4055 16.0495 15.3625 16.1885 15.3174C16.3684 15.2577 16.5673 15.2574 16.7461 15.3281C16.9248 15.3988 17.0682 15.5336 17.1465 15.7051C17.2247 15.8766 17.2327 16.0736 17.1689 16.2549C17.1052 16.4362 16.9745 16.5858 16.8115 16.6826C16.6687 16.7661 16.5234 16.8463 16.376 16.9229C15.4874 17.3867 14.5095 17.7125 13.501 17.877V18.5C13.501 19.276 14.0903 19.9135 14.8457 19.9912C15.3681 19.9831 15.8122 19.9674 16.2021 19.9355C16.9741 19.8725 17.4461 19.7531 17.8164 19.5645C18.5689 19.181 19.181 18.5689 19.5645 17.8164C19.7531 17.4461 19.8725 16.9741 19.9355 16.2021C19.9995 15.4186 20 14.4164 20 13V11C20 9.58363 19.9995 8.58138 19.9355 7.79785C19.8725 7.02593 19.7531 6.55391 19.5645 6.18359C19.181 5.43109 18.5689 4.81902 17.8164 4.43555C17.4461 4.24686 16.9741 4.12752 16.2021 4.06445C15.8037 4.03192 15.3488 4.01481 14.8115 4.00684Z" fill="oklch(0.3523 0 0 / 1)" class="wd-icon-fill"></path>
</g>
</svg>