<svg width="24" height="24" viewBox="0 0 24 24" xmlns="http://www.w3.org/2000/svg" class="wd-icon wd-icon-add-left" role="presentation">
<g>
<path d="M6.50488 3.99512C6.78103 3.99512 7.00488 4.21897 7.00488 4.49512V19.4951C7.00488 19.7713 6.78103 19.9951 6.50488 19.9951H5.50488C5.22875 19.9951 5.00488 19.7713 5.00488 19.4951V4.49512C5.00488 4.21898 5.22875 3.99512 5.50488 3.99512H6.50488Z" fill="oklch(0.3523 0 0 / 1)" class="wd-icon-fill"></path>
<path d="M15.4941 7C15.7702 7.00009 15.9941 7.22391 15.9941 7.5V10.9932H19.5C19.7761 10.9932 20 11.217 20 11.4932V12.4932C20 12.7693 19.7761 12.9932 19.5 12.9932H15.9941V16.5C15.9941 16.7761 15.7702 16.9999 15.4941 17H14.4941C14.218 17 13.9941 16.7761 13.9941 16.5V12.9932H10.5C10.2239 12.9932 10 12.7693 10 12.4932V11.4932C10 11.217 10.2239 10.9932 10.5 10.9932H13.9941V7.5C13.9941 7.22386 14.218 7 14.4941 7H15.4941Z" fill="oklch(0.3523 0 0 / 1)" class="wd-icon-fill"></path>
</g>
</svg>