<svg width="24" height="24" viewBox="0 0 24 24" xmlns="http://www.w3.org/2000/svg" class="wd-icon wd-icon-team" role="presentation">
<g>
<path d="M6.40039 17C6.69666 17 6.85905 17.0012 6.97559 17.0107C6.97968 17.0111 6.98359 17.0114 6.9873 17.0117C6.98768 17.0157 6.98889 17.0199 6.98926 17.0244C6.99878 17.1409 7 17.3033 7 17.5996V18.4004C7 18.6967 6.99878 18.8591 6.98926 18.9756C6.98892 18.9797 6.98765 18.9836 6.9873 18.9873C6.98357 18.9876 6.97971 18.9889 6.97559 18.9893C6.85905 18.9988 6.69666 19 6.40039 19H5.59961C5.30334 19 5.14095 18.9988 5.02441 18.9893C5.01993 18.9889 5.01574 18.9877 5.01172 18.9873C5.01138 18.9836 5.01108 18.9797 5.01074 18.9756C5.00122 18.8591 5 18.6967 5 18.4004V17.5996C5 17.3033 5.00122 17.1409 5.01074 17.0244C5.01111 17.02 5.01135 17.0157 5.01172 17.0117C5.01572 17.0114 5.01996 17.0111 5.02441 17.0107C5.14095 17.0012 5.30334 17 5.59961 17H6.40039Z" fill="transparent" class="wd-icon-background"></path>
<path d="M18.4004 17C18.6967 17 18.8591 17.0012 18.9756 17.0107C18.9797 17.0111 18.9836 17.0114 18.9873 17.0117C18.9877 17.0157 18.9889 17.0199 18.9893 17.0244C18.9988 17.1409 19 17.3033 19 17.5996V18.4004C19 18.6967 18.9988 18.8591 18.9893 18.9756C18.9889 18.9797 18.9876 18.9836 18.9873 18.9873C18.9836 18.9876 18.9797 18.9889 18.9756 18.9893C18.8591 18.9988 18.6967 19 18.4004 19H17.5996C17.3033 19 17.1409 18.9988 17.0244 18.9893C17.0199 18.9889 17.0157 18.9877 17.0117 18.9873C17.0114 18.9836 17.0111 18.9797 17.0107 18.9756C17.0012 18.8591 17 18.6967 17 18.4004V17.5996C17 17.3033 17.0012 17.1409 17.0107 17.0244C17.0111 17.02 17.0114 17.0157 17.0117 17.0117C17.0157 17.0114 17.02 17.0111 17.0244 17.0107C17.1409 17.0012 17.3033 17 17.5996 17H18.4004Z" fill="transparent" class="wd-icon-background"></path>
<path d="M12 3C12.4796 3 12.7894 3.00043 13.0264 3.0166C13.2543 3.03216 13.3412 3.05894 13.3828 3.07617C13.6277 3.17766 13.8223 3.37227 13.9238 3.61719C13.9411 3.65879 13.9678 3.74572 13.9834 3.97363C13.9996 4.21061 14 4.52038 14 5C14 5.47962 13.9996 5.78939 13.9834 6.02637C13.9678 6.25428 13.9411 6.34121 13.9238 6.38281C13.8223 6.62774 13.6277 6.82234 13.3828 6.92383C13.3412 6.94106 13.2543 6.96784 13.0264 6.9834C12.7894 6.99957 12.4796 7 12 7C11.5204 7 11.2106 6.99957 10.9736 6.9834C10.7457 6.96784 10.6588 6.94106 10.6172 6.92383C10.3723 6.82234 10.1777 6.62773 10.0762 6.38281C10.0589 6.3412 10.0322 6.25427 10.0166 6.02637C10.0004 5.78939 10 5.47962 10 5C10 4.52038 10.0004 4.21061 10.0166 3.97363C10.0322 3.74573 10.0589 3.6588 10.0762 3.61719C10.1777 3.37227 10.3723 3.17766 10.6172 3.07617C10.6588 3.05894 10.7457 3.03216 10.9736 3.0166C11.2106 3.00043 11.5204 3 12 3Z" fill="transparent" class="wd-icon-background"></path>
</g>
<path d="M12 1C12.4522 1 12.8413 0.999612 13.1621 1.02148C13.492 1.04399 13.8225 1.09351 14.1485 1.22852C14.8832 1.53299 15.467 2.11679 15.7715 2.85156C15.9065 3.17749 15.956 3.50806 15.9785 3.83789C16.0004 4.15869 16 4.54786 16 5C16 5.45214 16.0004 5.84131 15.9785 6.16211C15.956 6.49194 15.9065 6.82251 15.7715 7.14844C15.467 7.88321 14.8832 8.46701 14.1485 8.77148C13.8225 8.90649 13.492 8.95601 13.1621 8.97852C13.0353 8.98716 12.8978 8.9891 12.75 8.99219V11.25H14.7998C15.3475 11.25 15.8037 11.249 16.1748 11.2793C16.5546 11.3103 16.9109 11.3781 17.2481 11.5498C17.7655 11.8135 18.1866 12.2345 18.4502 12.752C18.6219 13.0891 18.6897 13.4455 18.7207 13.8252C18.7473 14.1504 18.7488 14.5409 18.749 15.001C18.8874 15.0026 19.0193 15.0068 19.1387 15.0166C19.3672 15.0353 19.637 15.0796 19.9082 15.2178C20.2375 15.3855 20.5129 15.6408 20.7051 15.9541L20.7822 16.0918L20.8692 16.2949C20.9406 16.4958 20.9694 16.6901 20.9834 16.8613C21.0011 17.0781 21 17.3362 21 17.5996V18.4004C21 18.6638 21.0011 18.9219 20.9834 19.1387C20.9647 19.3672 20.9205 19.6369 20.7822 19.9082C20.5905 20.2845 20.2845 20.5905 19.9082 20.7822C19.637 20.9204 19.3672 20.9647 19.1387 20.9834C18.9219 21.0011 18.6638 21 18.4004 21H17.5996C17.3362 21 17.0782 21.0011 16.8613 20.9834C16.6328 20.9647 16.3631 20.9204 16.0918 20.7822C15.7156 20.5905 15.4095 20.2845 15.2178 19.9082C15.0796 19.6369 15.0353 19.3672 15.0166 19.1387C14.9989 18.9219 15 18.6638 15 18.4004V17.5996C15 17.3362 14.9989 17.0781 15.0166 16.8613C15.0353 16.6328 15.0796 16.3631 15.2178 16.0918C15.4095 15.7155 15.7156 15.4095 16.0918 15.2178C16.3631 15.0796 16.6328 15.0353 16.8613 15.0166C16.9802 15.0069 17.1114 15.0027 17.249 15.001C17.2487 14.5362 17.2469 14.2074 17.2256 13.9473C17.2021 13.6603 17.1594 13.5232 17.1133 13.4326C16.9935 13.1975 16.8025 13.0065 16.5674 12.8867C16.4769 12.8406 16.3397 12.7979 16.0527 12.7744C15.7569 12.7502 15.3722 12.75 14.7998 12.75H9.20021C8.62778 12.75 8.24316 12.7502 7.94728 12.7744C7.66028 12.7979 7.52317 12.8406 7.43263 12.8867C7.19751 13.0065 7.00656 13.1975 6.88673 13.4326C6.8406 13.5232 6.79789 13.6603 6.77443 13.9473C6.75317 14.2074 6.75037 14.5362 6.75001 15.001C6.88805 15.0027 7.01959 15.0069 7.13869 15.0166C7.36719 15.0353 7.63696 15.0796 7.90822 15.2178C8.23745 15.3855 8.51295 15.6408 8.70509 15.9541L8.78224 16.0918L8.86915 16.2949C8.94065 16.4958 8.9694 16.6901 8.98341 16.8613C9.00113 17.0781 9.00001 17.3362 9.00001 17.5996V18.4004C9.00001 18.6638 9.00113 18.9219 8.98341 19.1387C8.96472 19.3672 8.92046 19.6369 8.78224 19.9082C8.59051 20.2845 8.28447 20.5905 7.90822 20.7822C7.63696 20.9204 7.36719 20.9647 7.13869 20.9834C6.92187 21.0011 6.66379 21 6.4004 21H5.59962C5.33623 21 5.07815 21.0011 4.86134 20.9834C4.63284 20.9647 4.36307 20.9204 4.09181 20.7822C3.71556 20.5905 3.40952 20.2845 3.21779 19.9082C3.07957 19.6369 3.03531 19.3672 3.01662 19.1387C2.9989 18.9219 3.00001 18.6638 3.00001 18.4004V17.5996C3.00001 17.3362 2.9989 17.0781 3.01662 16.8613C3.03531 16.6328 3.07957 16.3631 3.21779 16.0918C3.40952 15.7155 3.71556 15.4095 4.09181 15.2178C4.36307 15.0796 4.63284 15.0353 4.86134 15.0166C4.98044 15.0069 5.11198 15.0027 5.25001 15.001C5.25023 14.5409 5.25274 14.1504 5.27931 13.8252C5.31034 13.4455 5.37811 13.0891 5.54982 12.752C5.81347 12.2345 6.23452 11.8135 6.75197 11.5498C7.08911 11.3781 7.44548 11.3103 7.82521 11.2793C8.19634 11.249 8.65253 11.25 9.20021 11.25H11.25V8.99219C11.1022 8.9891 10.9647 8.98716 10.8379 8.97852C10.5081 8.95601 10.1775 8.90649 9.85158 8.77148C9.1168 8.46701 8.533 7.88321 8.22853 7.14844C8.09353 6.82251 8.044 6.49194 8.0215 6.16211C7.99963 5.84131 8.00001 5.45214 8.00001 5C8.00001 4.54786 7.99963 4.15869 8.0215 3.83789C8.044 3.50806 8.09353 3.17749 8.22853 2.85156C8.533 2.11679 9.1168 1.53299 9.85158 1.22852C10.1775 1.09351 10.5081 1.04399 10.8379 1.02148C11.1587 0.999612 11.5479 1 12 1ZM5.59962 17C5.30334 17 5.14096 17.0012 5.02443 17.0107C5.01997 17.0111 5.01574 17.0114 5.01173 17.0117C5.01136 17.0157 5.01112 17.02 5.01076 17.0244C5.00124 17.1409 5.00001 17.3033 5.00001 17.5996V18.4004C5.00001 18.6967 5.00124 18.8591 5.01076 18.9756C5.01109 18.9797 5.01139 18.9836 5.01173 18.9873C5.01576 18.9877 5.01994 18.9889 5.02443 18.9893C5.14096 18.9988 5.30334 19 5.59962 19H6.4004C6.69668 19 6.85907 18.9988 6.9756 18.9893C6.97973 18.9889 6.98358 18.9876 6.98732 18.9873C6.98766 18.9836 6.98893 18.9797 6.98927 18.9756C6.99879 18.8591 7.00001 18.6967 7.00001 18.4004V17.5996C7.00001 17.3033 6.99879 17.1409 6.98927 17.0244C6.9889 17.0199 6.98769 17.0157 6.98732 17.0117C6.9836 17.0114 6.9797 17.0111 6.9756 17.0107C6.85907 17.0012 6.69668 17 6.4004 17H5.59962ZM17.5996 17C17.3033 17 17.141 17.0012 17.0244 17.0107C17.02 17.0111 17.0157 17.0114 17.0117 17.0117C17.0114 17.0157 17.0111 17.02 17.0108 17.0244C17.0012 17.1409 17 17.3033 17 17.5996V18.4004C17 18.6967 17.0012 18.8591 17.0108 18.9756C17.0111 18.9797 17.0114 18.9836 17.0117 18.9873C17.0158 18.9877 17.0199 18.9889 17.0244 18.9893C17.141 18.9988 17.3033 19 17.5996 19H18.4004C18.6967 19 18.8591 18.9988 18.9756 18.9893C18.9797 18.9889 18.9836 18.9876 18.9873 18.9873C18.9877 18.9836 18.9889 18.9797 18.9893 18.9756C18.9988 18.8591 19 18.6967 19 18.4004V17.5996C19 17.3033 18.9988 17.1409 18.9893 17.0244C18.9889 17.0199 18.9877 17.0157 18.9873 17.0117C18.9836 17.0114 18.9797 17.0111 18.9756 17.0107C18.8591 17.0012 18.6967 17 18.4004 17H17.5996ZM12 3C11.5204 3 11.2106 3.00043 10.9736 3.0166C10.7457 3.03216 10.6588 3.05894 10.6172 3.07617C10.3723 3.17766 10.1777 3.37226 10.0762 3.61719C10.059 3.65879 10.0322 3.74572 10.0166 3.97363C10.0004 4.21061 10 4.52038 10 5C10 5.47962 10.0004 5.78939 10.0166 6.02637C10.0322 6.25428 10.059 6.34121 10.0762 6.38281C10.1777 6.62774 10.3723 6.82234 10.6172 6.92383C10.6588 6.94106 10.7457 6.96784 10.9736 6.9834C11.2106 6.99957 11.5204 7 12 7C12.4796 7 12.7894 6.99957 13.0264 6.9834C13.2543 6.96784 13.3412 6.94106 13.3828 6.92383C13.6278 6.82234 13.8224 6.62774 13.9238 6.38281C13.9411 6.34121 13.9679 6.25428 13.9834 6.02637C13.9996 5.78939 14 5.47962 14 5C14 4.52038 13.9996 4.21061 13.9834 3.97363C13.9679 3.74572 13.9411 3.65879 13.9238 3.61719C13.8224 3.37226 13.6278 3.17766 13.3828 3.07617C13.3412 3.05894 13.2543 3.03216 13.0264 3.0166C12.7894 3.00043 12.4796 3 12 3Z" fill="oklch(0.3523 0 0 / 1)" class="wd-icon-fill"></path>
</svg>