<svg width="24" height="24" viewBox="0 0 24 24" xmlns="http://www.w3.org/2000/svg" class="wd-icon wd-icon-bar-horizontal-stack-chart" role="presentation">
<g>
<path d="M9.50001 16C9.71929 16 9.93385 15.9993 10.1152 16.0117C10.3056 16.0247 10.5316 16.0554 10.7656 16.1523C11.2555 16.3553 11.6447 16.7445 11.8477 17.2344C11.9446 17.4684 11.9753 17.6944 11.9883 17.8848C12.0007 18.0662 12 18.2807 12 18.5C12 18.7193 12.0007 18.9339 11.9883 19.1152C11.9753 19.3056 11.9446 19.5316 11.8477 19.7656C11.6447 20.2555 11.2555 20.6447 10.7656 20.8477C10.5316 20.9446 10.3056 20.9753 10.1152 20.9883C9.93385 21.0007 9.71929 21 9.50001 21H5.50001C5.28072 21 5.06616 21.0007 4.88477 20.9883C4.6944 20.9753 4.46842 20.9446 4.23438 20.8477C3.74453 20.6447 3.35533 20.2555 3.15235 19.7656C3.05541 19.5316 3.02471 19.3056 3.01172 19.1152C2.99935 18.9339 3.00001 18.7193 3.00001 18.5C3.00001 18.2807 2.99935 18.0662 3.01172 17.8848C3.02471 17.6944 3.05541 17.4684 3.15235 17.2344C3.35533 16.7445 3.74453 16.3553 4.23438 16.1523C4.46842 16.0554 4.6944 16.0247 4.88477 16.0117C5.06616 15.9993 5.28072 16 5.50001 16H9.50001ZM5.02051 18.0068C5.01601 18.0072 5.01178 18.0075 5.00782 18.0078C5.00751 18.0118 5.00715 18.016 5.00684 18.0205C5.00019 18.118 5.00001 18.2534 5.00001 18.5C5.00001 18.7467 5.00019 18.882 5.00684 18.9795C5.00713 18.9836 5.00753 18.9875 5.00782 18.9912C5.0118 18.9915 5.01598 18.9929 5.02051 18.9932C5.11804 18.9998 5.25336 19 5.50001 19H9.50001C9.74665 19 9.88198 18.9998 9.9795 18.9932C9.98366 18.9929 9.98752 18.9915 9.99122 18.9912C9.99151 18.9875 9.99288 18.9837 9.99317 18.9795C9.99982 18.882 10 18.7467 10 18.5C10 18.2534 9.99982 18.118 9.99317 18.0205C9.99286 18.016 9.99153 18.0118 9.99122 18.0078C9.98754 18.0075 9.98363 18.0071 9.9795 18.0068C9.88198 18.0002 9.74665 18 9.50001 18H5.50001C5.25336 18 5.11804 18.0002 5.02051 18.0068Z" fill="oklch(0.3523 0 0 / 1)" class="wd-icon-fill"></path>
<path d="M7.50001 9.50001C7.71929 9.50001 7.93385 9.49935 8.11524 9.51172C8.30561 9.52471 8.53159 9.55541 8.76563 9.65235C9.25548 9.85533 9.64468 10.2445 9.84766 10.7344C9.9446 10.9684 9.9753 11.1944 9.98829 11.3848C10.0007 11.5662 10 11.7807 10 12C10 12.2193 10.0007 12.4339 9.98829 12.6152C9.9753 12.8056 9.9446 13.0316 9.84766 13.2656C9.64468 13.7555 9.25548 14.1447 8.76563 14.3477C8.53159 14.4446 8.30561 14.4753 8.11524 14.4883C7.93385 14.5007 7.71929 14.5 7.50001 14.5H5.50001C5.28072 14.5 5.06616 14.5007 4.88477 14.4883C4.6944 14.4753 4.46842 14.4446 4.23438 14.3477C3.74453 14.1447 3.35533 13.7555 3.15235 13.2656C3.05541 13.0316 3.02471 12.8056 3.01172 12.6152C2.99935 12.4339 3.00001 12.2193 3.00001 12C3.00001 11.7807 2.99935 11.5662 3.01172 11.3848C3.02471 11.1944 3.05541 10.9684 3.15235 10.7344C3.35533 10.2445 3.74453 9.85533 4.23438 9.65235C4.46842 9.55541 4.6944 9.52471 4.88477 9.51172C5.06616 9.49935 5.28072 9.50001 5.50001 9.50001H7.50001ZM5.02051 11.5068C5.01601 11.5072 5.01178 11.5075 5.00782 11.5078C5.00751 11.5118 5.00715 11.516 5.00684 11.5205C5.00019 11.618 5.00001 11.7534 5.00001 12C5.00001 12.2467 5.00019 12.382 5.00684 12.4795C5.00713 12.4836 5.00753 12.4875 5.00782 12.4912C5.0118 12.4915 5.01598 12.4929 5.02051 12.4932C5.11804 12.4998 5.25336 12.5 5.50001 12.5H7.50001C7.74665 12.5 7.88198 12.4998 7.9795 12.4932C7.98366 12.4929 7.98752 12.4915 7.99122 12.4912C7.99151 12.4875 7.99288 12.4837 7.99317 12.4795C7.99982 12.382 8.00001 12.2467 8.00001 12C8.00001 11.7534 7.99982 11.618 7.99317 11.5205C7.99286 11.516 7.99153 11.5118 7.99122 11.5078C7.98754 11.5075 7.98363 11.5071 7.9795 11.5068C7.88198 11.5002 7.74665 11.5 7.50001 11.5H5.50001C5.25336 11.5 5.11804 11.5002 5.02051 11.5068Z" fill="oklch(0.3523 0 0 / 1)" class="wd-icon-fill"></path>
<path d="M10.5 3.00001C10.7193 3.00001 10.9339 2.99935 11.1152 3.01172C11.3056 3.02471 11.5316 3.05541 11.7656 3.15235C12.2555 3.35533 12.6447 3.74453 12.8477 4.23438C12.9446 4.46842 12.9753 4.6944 12.9883 4.88477C13.0007 5.06616 13 5.28072 13 5.50001C13 5.71929 13.0007 5.93385 12.9883 6.11524C12.9753 6.30561 12.9446 6.53159 12.8477 6.76563C12.6447 7.25548 12.2555 7.64468 11.7656 7.84766C11.5316 7.94461 11.3056 7.9753 11.1152 7.98829C10.9339 8.00066 10.7193 8.00001 10.5 8.00001H5.50001C5.28072 8.00001 5.06616 8.00066 4.88477 7.98829C4.6944 7.9753 4.46842 7.94461 4.23438 7.84766C3.74453 7.64468 3.35533 7.25548 3.15235 6.76563C3.05541 6.53159 3.02471 6.30561 3.01172 6.11524C2.99935 5.93385 3.00001 5.71929 3.00001 5.50001C3.00001 5.28072 2.99935 5.06616 3.01172 4.88477C3.02471 4.6944 3.05541 4.46842 3.15235 4.23438C3.35533 3.74453 3.74453 3.35533 4.23438 3.15235C4.46842 3.05541 4.6944 3.02471 4.88477 3.01172C5.06616 2.99935 5.28072 3.00001 5.50001 3.00001H10.5ZM5.02051 5.00684C5.01601 5.00715 5.01178 5.00751 5.00782 5.00782C5.00751 5.01178 5.00715 5.01601 5.00684 5.02051C5.00019 5.11804 5.00001 5.25336 5.00001 5.50001C5.00001 5.74665 5.00019 5.88198 5.00684 5.9795C5.00713 5.98363 5.00753 5.98754 5.00782 5.99122C5.0118 5.99153 5.01598 5.99286 5.02051 5.99317C5.11804 5.99982 5.25336 6.00001 5.50001 6.00001H10.5C10.7467 6.00001 10.882 5.99982 10.9795 5.99317C10.9837 5.99288 10.9875 5.99151 10.9912 5.99122C10.9915 5.98752 10.9929 5.98366 10.9932 5.9795C10.9998 5.88198 11 5.74665 11 5.50001C11 5.25336 10.9998 5.11804 10.9932 5.02051C10.9929 5.01598 10.9915 5.0118 10.9912 5.00782C10.9875 5.00753 10.9836 5.00713 10.9795 5.00684C10.882 5.00019 10.7467 5.00001 10.5 5.00001H5.50001C5.25336 5.00001 5.11804 5.00019 5.02051 5.00684Z" fill="oklch(0.3523 0 0 / 1)" class="wd-icon-fill"></path>
</g>
<g>
<path d="M17.5 16C17.7193 16 17.9339 15.9993 18.1152 16.0117C18.3056 16.0247 18.5316 16.0554 18.7656 16.1523C19.2555 16.3553 19.6447 16.7445 19.8477 17.2344C19.9446 17.4684 19.9753 17.6944 19.9883 17.8848C20.0007 18.0662 20 18.2807 20 18.5C20 18.7193 20.0007 18.9339 19.9883 19.1152C19.9753 19.3056 19.9446 19.5316 19.8477 19.7656C19.6447 20.2555 19.2555 20.6447 18.7656 20.8477C18.5316 20.9446 18.3056 20.9753 18.1152 20.9883C17.9339 21.0007 17.7193 21 17.5 21H15.5C15.2807 21 15.0662 21.0007 14.8848 20.9883C14.6944 20.9753 14.4684 20.9446 14.2344 20.8477C13.7445 20.6447 13.3553 20.2555 13.1523 19.7656C13.0554 19.5316 13.0247 19.3056 13.0117 19.1152C12.9993 18.9339 13 18.7193 13 18.5C13 18.2807 12.9993 18.0662 13.0117 17.8848C13.0247 17.6944 13.0554 17.4684 13.1523 17.2344C13.3553 16.7445 13.7445 16.3553 14.2344 16.1523C14.4684 16.0554 14.6944 16.0247 14.8848 16.0117C15.0662 15.9993 15.2807 16 15.5 16H17.5Z" fill="oklch(0.3523 0 0 / 1)" class="wd-icon-accent"></path>
<path d="M19.5 9.50001C19.7193 9.50001 19.9339 9.49935 20.1152 9.51172C20.3056 9.52471 20.5316 9.55541 20.7656 9.65235C21.2555 9.85533 21.6447 10.2445 21.8477 10.7344C21.9446 10.9684 21.9753 11.1944 21.9883 11.3848C22.0007 11.5662 22 11.7807 22 12C22 12.2193 22.0007 12.4339 21.9883 12.6152C21.9753 12.8056 21.9446 13.0316 21.8477 13.2656C21.6447 13.7555 21.2555 14.1447 20.7656 14.3477C20.5316 14.4446 20.3056 14.4753 20.1152 14.4883C19.9339 14.5007 19.7193 14.5 19.5 14.5H13.5C13.2807 14.5 13.0662 14.5007 12.8848 14.4883C12.6944 14.4753 12.4684 14.4446 12.2344 14.3477C11.7445 14.1447 11.3553 13.7555 11.1523 13.2656C11.0554 13.0316 11.0247 12.8056 11.0117 12.6152C10.9993 12.4339 11 12.2193 11 12C11 11.7807 10.9993 11.5662 11.0117 11.3848C11.0247 11.1944 11.0554 10.9684 11.1523 10.7344C11.3553 10.2445 11.7445 9.85533 12.2344 9.65235C12.4684 9.55541 12.6944 9.52471 12.8848 9.51172C13.0662 9.49935 13.2807 9.50001 13.5 9.50001H19.5Z" fill="oklch(0.3523 0 0 / 1)" class="wd-icon-accent"></path>
<path d="M16.5 3.00001C16.7193 3.00001 16.9339 2.99935 17.1152 3.01172C17.3056 3.02471 17.5316 3.05541 17.7656 3.15235C18.2555 3.35533 18.6447 3.74453 18.8477 4.23438C18.9446 4.46842 18.9753 4.6944 18.9883 4.88477C19.0007 5.06616 19 5.28072 19 5.50001C19 5.71929 19.0007 5.93385 18.9883 6.11524C18.9753 6.30561 18.9446 6.53159 18.8477 6.76563C18.6447 7.25548 18.2555 7.64468 17.7656 7.84766C17.5316 7.94461 17.3056 7.9753 17.1152 7.98829C16.9339 8.00066 16.7193 8.00001 16.5 8.00001C16.2807 8.00001 16.0662 8.00066 15.8848 7.98829C15.6944 7.9753 15.4684 7.94461 15.2344 7.84766C14.7445 7.64468 14.3553 7.25548 14.1523 6.76563C14.0554 6.53159 14.0247 6.30561 14.0117 6.11524C13.9993 5.93385 14 5.71929 14 5.50001C14 5.28072 13.9993 5.06616 14.0117 4.88477C14.0247 4.6944 14.0554 4.46842 14.1523 4.23438C14.3553 3.74453 14.7445 3.35533 15.2344 3.15235C15.4684 3.05541 15.6944 3.02471 15.8848 3.01172C16.0662 2.99935 16.2807 3.00001 16.5 3.00001Z" fill="oklch(0.3523 0 0 / 1)" class="wd-icon-accent"></path>
</g>
</svg>