<svg width="24" height="24" viewBox="0 0 24 24" xmlns="http://www.w3.org/2000/svg" class="wd-icon wd-icon-list-bullet" role="presentation">
<g>
<path d="M6.00391 13.25C7.52269 13.25 8.75391 14.4812 8.75391 16C8.75391 17.5188 7.52269 18.75 6.00391 18.75C4.48512 18.75 3.25391 17.5188 3.25391 16C3.25391 14.4812 4.48512 13.25 6.00391 13.25ZM6.00391 14.75C5.31355 14.75 4.75391 15.3096 4.75391 16C4.75391 16.6904 5.31355 17.25 6.00391 17.25C6.69426 17.25 7.25391 16.6904 7.25391 16C7.25391 15.3096 6.69426 14.75 6.00391 14.75Z" fill="oklch(0.3523 0 0 / 1)" class="wd-icon-fill"></path>
<path d="M20.0039 15C20.5562 15 21.0039 15.4477 21.0039 16C21.0039 16.5523 20.5562 17 20.0039 17H11.0039C10.4516 17 10.0039 16.5523 10.0039 16C10.0039 15.4477 10.4516 15 11.0039 15H20.0039Z" fill="oklch(0.3523 0 0 / 1)" class="wd-icon-fill"></path>
<path d="M6.00391 5.25C7.52269 5.25 8.75391 6.48122 8.75391 8C8.75391 9.51878 7.52269 10.75 6.00391 10.75C4.48512 10.75 3.25391 9.51878 3.25391 8C3.25391 6.48122 4.48512 5.25 6.00391 5.25ZM6.00391 6.75C5.31355 6.75 4.75391 7.30964 4.75391 8C4.75391 8.69036 5.31355 9.25 6.00391 9.25C6.69426 9.25 7.25391 8.69036 7.25391 8C7.25391 7.30964 6.69426 6.75 6.00391 6.75Z" fill="oklch(0.3523 0 0 / 1)" class="wd-icon-fill"></path>
<path d="M20.0039 7C20.5562 7 21.0039 7.44772 21.0039 8C21.0039 8.55228 20.5562 9 20.0039 9H11.0039C10.4516 9 10.0039 8.55228 10.0039 8C10.0039 7.44772 10.4516 7 11.0039 7H20.0039Z" fill="oklch(0.3523 0 0 / 1)" class="wd-icon-fill"></path>
</g>
</svg>