<svg width="24" height="24" viewBox="0 0 24 24" xmlns="http://www.w3.org/2000/svg" class="wd-icon wd-icon-arrow-up-left-circle-fill" role="presentation">
<path d="M12 2C17.5228 2 22 6.47715 22 12C22 17.5228 17.5228 22 12 22C6.47715 22 2 17.5228 2 12C2 6.47715 6.47715 2 12 2ZM9.17188 8.17188C8.61977 8.17208 8.17187 8.61972 8.17188 9.17188V13.4141C8.17188 13.9662 8.61977 14.4139 9.17188 14.4141C9.72388 14.4137 10.1719 13.9661 10.1719 13.4141V11.5859L14.1211 15.5352C14.5115 15.9255 15.1446 15.9254 15.5352 15.5352C15.9254 15.1446 15.9256 14.5115 15.5352 14.1211L11.5859 10.1719H13.415C13.9668 10.1714 14.4149 9.72372 14.415 9.17188C14.415 8.61989 13.9669 8.17235 13.415 8.17188H9.17188Z" fill="oklch(0.3523 0 0 / 1)" class="wd-icon-fill"></path>
</svg>