<svg width="24" height="24" viewBox="0 0 24 24" xmlns="http://www.w3.org/2000/svg" class="wd-icon wd-icon-actuals-lock" role="presentation">
<path d="M18.5 12C20.433 12 22 13.567 22 15.5V16L22.0986 16.0049C22.3276 16.0276 22.5429 16.1289 22.707 16.293C22.8944 16.4804 22.9999 16.735 23 17V22C22.9998 22.5175 22.6066 22.9438 22.1025 22.9951L22 23H15C14.7349 23 14.4805 22.8945 14.293 22.707C14.1055 22.5196 14.0001 22.2651 14 22V17C14.0002 16.4825 14.3935 16.0563 14.8975 16.0049L15 16V15.5C15 13.567 16.567 12 18.5 12ZM16 18V21H21V18H16ZM18.5 14C17.6716 14 17 14.6716 17 15.5V16H20V15.5C20 14.6716 19.3284 14 18.5 14Z" fill="oklch(0.3523 0 0 / 1)" class="wd-icon-accent"></path>
<path d="M19.9394 2.64643C20.1347 2.4512 20.4512 2.45118 20.6464 2.64643L21.3535 3.35346C21.5486 3.54872 21.5486 3.86528 21.3535 4.06049L19.0605 6.35346C19.0504 6.36355 19.038 6.37078 19.0273 6.37983C19.6972 7.2174 20.2147 8.16943 20.5507 9.19233C20.6366 9.45456 20.4765 9.72927 20.2099 9.80072L19.2441 10.0595C18.9775 10.1308 18.7055 9.97167 18.6152 9.71088C18.2441 8.63874 17.6167 7.66948 16.7851 6.89057C15.8316 5.99762 14.6464 5.38961 13.3652 5.13471C12.0841 4.87997 10.7566 4.98817 9.53412 5.44819C8.31169 5.90835 7.24148 6.70204 6.44623 7.73822C5.65123 8.77444 5.16231 10.0137 5.03412 11.3134C4.9062 12.6133 5.14405 13.9242 5.72162 15.0956C6.29949 16.2673 7.19427 17.2544 8.30365 17.9443C9.27114 18.5459 10.3685 18.9013 11.4999 18.9824C11.7752 19.0021 11.9997 19.224 11.9999 19.4999V20.4999C11.9999 20.776 11.7756 21.0016 11.4999 20.9863C9.99479 20.9025 8.53163 20.4413 7.24701 19.6425C6.94497 19.4547 6.65586 19.249 6.37983 19.0283C6.37092 19.0388 6.36337 19.0506 6.35346 19.0605L4.06049 21.3535C3.86528 21.5486 3.54872 21.5486 3.35346 21.3535L2.64643 20.6464C2.45118 20.4512 2.4512 20.1347 2.64643 19.9394L4.9394 17.6464C4.94913 17.6367 4.96034 17.6288 4.97065 17.6201C4.56677 17.115 4.2163 16.5656 3.92768 15.9804C3.18503 14.4742 2.87847 12.7894 3.04291 11.1181C3.2076 9.44689 3.83718 7.85382 4.85932 6.52143C4.8959 6.47376 4.93317 6.42668 4.97065 6.37983C4.96036 6.37108 4.94912 6.36316 4.9394 6.35346L2.64643 4.06049C2.45118 3.86524 2.4512 3.54872 2.64643 3.35346L3.35346 2.64643C3.54872 2.4512 3.86524 2.45118 4.06049 2.64643L6.35346 4.9394C6.36301 4.94897 6.37023 4.96053 6.37885 4.97065C7.114 4.38306 7.94109 3.9117 8.83002 3.57709C10.402 2.98558 12.1085 2.84515 13.7558 3.17279C15.1724 3.45461 16.4963 4.0739 17.6191 4.97162C17.6281 4.96094 17.6364 4.94946 17.6464 4.9394L19.9394 2.64643Z" fill="oklch(0.3523 0 0 / 1)" class="wd-icon-fill"></path>
</svg>