<svg width="24" height="24" viewBox="0 0 24 24" xmlns="http://www.w3.org/2000/svg" class="wd-icon wd-icon-sign-out" role="presentation">
<g>
<path d="M15.1336 4.57227C15.4098 4.09404 16.0215 3.92993 16.4998 4.20605C18.2154 5.19661 19.5561 6.7255 20.3143 8.55566C21.0724 10.3859 21.2058 12.4155 20.6932 14.3291C20.1804 16.2428 19.0501 17.9345 17.4783 19.1406C15.9067 20.3465 13.9808 21 11.9998 21C10.0188 21 8.093 20.3464 6.5213 19.1406C4.94951 17.9346 3.81923 16.2428 3.30645 14.3291C2.79376 12.4155 2.92722 10.386 3.68536 8.55566C4.44355 6.72548 5.78422 5.19659 7.49981 4.20605C7.97808 3.93003 8.58991 4.09402 8.86602 4.57227C9.1417 5.05039 8.97772 5.66138 8.49981 5.9375C7.16536 6.70795 6.12272 7.8977 5.53302 9.32129C4.94336 10.7449 4.83935 12.3232 5.23809 13.8115C5.63691 15.2999 6.51567 16.6157 7.73809 17.5537C8.96058 18.4917 10.4589 19 11.9998 19C13.5407 19 15.0391 18.4917 16.2615 17.5537C17.4839 16.6157 18.3627 15.2999 18.7615 13.8115C19.1603 12.3232 19.0562 10.7448 18.4666 9.32129C17.8769 7.89772 16.8342 6.70796 15.4998 5.9375C15.0218 5.6614 14.8578 5.05045 15.1336 4.57227Z" fill="oklch(0.3523 0 0 / 1)" class="wd-icon-fill"></path>
<path d="M12.9998 11C12.9998 11.5523 12.5521 12 11.9998 12C11.4475 12 10.9998 11.5523 10.9998 11V3C10.9998 2.44772 11.4475 2 11.9998 2C12.5521 2 12.9998 2.44772 12.9998 3V11Z" fill="oklch(0.3523 0 0 / 1)" class="wd-icon-fill"></path>
</g>
</svg>