<svg width="24" height="24" viewBox="0 0 24 24" xmlns="http://www.w3.org/2000/svg" class="wd-icon wd-icon-border-color" role="presentation">
<path d="M19.4004 18C19.9602 18 20.2402 18.0004 20.4541 18.1094C20.6421 18.2052 20.7948 18.3579 20.8906 18.5459C20.9996 18.7598 21 19.0398 21 19.5996V20.4004C21 20.9602 20.9996 21.2402 20.8906 21.4541C20.7948 21.6421 20.6421 21.7948 20.4541 21.8906C20.2402 21.9996 19.9602 22 19.4004 22H4.59961C4.03982 22 3.75976 21.9996 3.5459 21.8906C3.35793 21.7948 3.20522 21.6421 3.10938 21.4541C3.00041 21.2402 3 20.9602 3 20.4004V19.5996C3 19.0398 3.00041 18.7598 3.10938 18.5459C3.20522 18.3579 3.35793 18.2052 3.5459 18.1094C3.75976 18.0004 4.03982 18 4.59961 18H19.4004Z" fill="oklch(0.3523 0 0 / 1)" class="wd-icon-accent"></path>
<path d="M11.7937 2.9129C13.0126 1.6945 14.989 1.69429 16.2078 2.9129C17.4263 4.1317 17.4262 6.10809 16.2078 7.32697L9.61108 13.9236C9.42237 14.1124 9.25962 14.2783 9.07104 14.4188C8.91537 14.5346 8.74807 14.6359 8.573 14.7195C8.36074 14.8209 8.13752 14.8868 7.88257 14.9656L4.29663 16.075C3.94243 16.1845 3.55597 16.089 3.2937 15.827C3.03153 15.5647 2.93609 15.1783 3.04565 14.824L4.15405 11.2381C4.23292 10.983 4.29971 10.76 4.40112 10.5477C4.48479 10.3726 4.58509 10.2053 4.70093 10.0496C4.84148 9.86085 5.00813 9.69847 5.19702 9.50958L11.7937 2.9129ZM14.7937 4.32697C14.356 3.88939 13.6456 3.8896 13.2078 4.32697L6.70581 10.8279L8.29175 12.4139L14.7937 5.9129C15.2311 5.47507 15.2312 4.76471 14.7937 4.32697Z" fill="oklch(0.3523 0 0 / 1)" class="wd-icon-fill"></path>
</svg>