<svg width="24" height="24" viewBox="0 0 24 24" xmlns="http://www.w3.org/2000/svg" class="wd-icon wd-icon-question" role="presentation">
<g>
<path d="M11.9995 14.75C12.6898 14.75 13.2495 15.3097 13.2495 16C13.2495 16.6903 12.6898 17.25 11.9995 17.25C11.3091 17.25 10.7495 16.6904 10.7495 16C10.7495 15.3096 11.3091 14.75 11.9995 14.75Z" fill="oklch(0.3523 0 0 / 1)" class="wd-icon-fill"></path>
<path d="M12.4009 6C13.7591 6.00017 15.0013 6.76762 15.6089 7.98242C16.561 9.88686 15.654 12.1973 13.6606 12.9453L13.31 13.0762C13.1237 13.1458 12.9995 13.3245 12.9995 13.5234C12.9994 13.7867 12.7862 14 12.5229 14H11.4995C11.2235 13.9998 10.9995 13.776 10.9995 13.5V13.1885C10.9995 12.3579 11.5149 11.614 12.2925 11.3223L12.9575 11.0723C13.8394 10.7414 14.241 9.71946 13.8198 8.87695C13.551 8.33972 13.0016 8.00017 12.4009 8H11.9995C11.0659 8.00013 10.2813 8.63982 10.061 9.50488C9.99289 9.77249 9.77564 10 9.4995 10H8.4995C8.22348 9.99985 7.99666 9.77491 8.03075 9.50098C8.27636 7.52745 9.95948 6.00014 11.9995 6H12.4009Z" fill="oklch(0.3523 0 0 / 1)" class="wd-icon-fill"></path>
</g>
</svg>