<svg width="24" height="24" viewBox="0 0 24 24" xmlns="http://www.w3.org/2000/svg" class="wd-icon wd-icon-calendar-day-31" role="presentation">
<g>
<path d="M11.085 10.5127C11.5287 10.5128 11.8893 10.8727 11.8897 11.3164C11.8897 11.5212 11.8113 11.719 11.6709 11.8682L10.5527 13.0527C10.7481 13.0911 10.9341 13.1569 11.1084 13.251L11.2314 13.3213C11.5095 13.4946 11.7334 13.7291 11.9004 14.0205L11.9688 14.1475C12.1162 14.4493 12.1865 14.7909 12.1865 15.1641C12.1865 15.5628 12.0962 15.9453 11.918 16.3086L11.917 16.3105C11.7334 16.6777 11.4579 16.9753 11.0977 17.2022C10.7263 17.436 10.2844 17.5468 9.78516 17.5469C9.34116 17.5468 8.93757 17.4659 8.58106 17.2979L8.5791 17.2969C8.22964 17.1288 7.94387 16.8875 7.72656 16.5752L7.72266 16.5703C7.6143 16.406 7.52983 16.2273 7.46875 16.0361C7.39671 15.8101 7.45911 15.5913 7.59278 15.4365C7.72346 15.2854 7.92158 15.1925 8.13477 15.1924C8.52843 15.1925 8.79377 15.4982 8.91602 15.7686C8.96421 15.8752 9.03221 15.9696 9.12012 16.0527C9.28124 16.1993 9.49781 16.2811 9.79395 16.2813C9.98517 16.2812 10.1453 16.2355 10.2813 16.1494L10.2852 16.1475C10.4298 16.0587 10.538 15.9384 10.6133 15.7832L10.6152 15.7813C10.6984 15.6147 10.7412 15.4279 10.7412 15.2178C10.7412 14.8831 10.6487 14.6433 10.4863 14.4717L10.4834 14.4688C10.3294 14.3019 10.113 14.2081 9.80371 14.208C9.69195 14.208 9.58999 14.2249 9.49805 14.2578C9.24264 14.3493 8.85224 14.362 8.61426 14.0703C8.40964 13.8187 8.4228 13.4537 8.64551 13.2178L9.99707 11.7871H8.26465C7.91295 11.787 7.62696 11.5011 7.62696 11.1494C7.62729 10.798 7.91315 10.5128 8.26465 10.5127H11.085Z" fill="oklch(0.3523 0 0 / 1)" class="wd-icon-fill"></path>
<path d="M15.0879 10.5049C15.5261 10.5052 15.8817 10.8606 15.8818 11.2988V16.668C15.8818 17.0692 15.5564 17.3941 15.1553 17.3945C14.7538 17.3945 14.4278 17.0694 14.4277 16.668V12.3936L14.251 12.5254C13.8366 12.8322 13.249 12.5361 13.249 12.0205C13.2492 11.8258 13.3398 11.6422 13.4941 11.5234L14.6035 10.6699C14.7422 10.5634 14.913 10.5049 15.0879 10.5049Z" fill="oklch(0.3523 0 0 / 1)" class="wd-icon-fill"></path>
<path d="M16.2012 2C17.0247 2 17.7026 1.99898 18.2529 2.04395C18.815 2.08988 19.3321 2.18828 19.8174 2.43555C20.5699 2.81902 21.182 3.43109 21.5654 4.1836C21.8127 4.6689 21.9111 5.18599 21.957 5.74805C22.002 6.29843 22.001 6.97632 22.001 7.79981V16.2002C22.001 17.0237 22.002 17.7016 21.957 18.252C21.9111 18.814 21.8127 19.3311 21.5654 19.8164C21.182 20.5689 20.5699 21.181 19.8174 21.5645C19.3321 21.8117 18.815 21.9101 18.2529 21.9561C17.7026 22.001 17.0247 22 16.2012 22H7.80078C6.9773 22 6.2994 22.001 5.74903 21.9561C5.18697 21.9101 4.66988 21.8117 4.18457 21.5645C3.43207 21.181 2.81999 20.5689 2.43653 19.8164C2.18925 19.3311 2.09085 18.814 2.04492 18.252C1.99996 17.7016 2.00098 17.0237 2.00098 16.2002V7.79981C2.00098 6.97632 1.99996 6.29843 2.04492 5.74805C2.09085 5.18599 2.18925 4.6689 2.43653 4.1836C2.81999 3.43109 3.43207 2.81902 4.18457 2.43555C4.66988 2.18827 5.18697 2.08988 5.74903 2.04395C6.2994 1.99898 6.9773 2 7.80078 2H16.2012ZM4.00098 16.2002C4.00098 17.0566 4.00133 17.6388 4.03809 18.0889C4.07391 18.5273 4.13906 18.7518 4.21875 18.9082C4.41049 19.2845 4.71652 19.5905 5.09278 19.7822C5.24917 19.8619 5.4737 19.9271 5.91211 19.9629C6.36215 19.9997 6.9444 20 7.80078 20H16.2012C17.0576 20 17.6398 19.9997 18.0898 19.9629C18.5283 19.9271 18.7528 19.8619 18.9092 19.7822C19.2854 19.5905 19.5915 19.2845 19.7832 18.9082C19.8629 18.7518 19.928 18.5273 19.9639 18.0889C20.0006 17.6388 20.001 17.0566 20.001 16.2002V8H4.00098V16.2002Z" fill="oklch(0.3523 0 0 / 1)" class="wd-icon-fill"></path>
</g>
</svg>