<svg width="24" height="24" viewBox="0 0 24 24" xmlns="http://www.w3.org/2000/svg" class="wd-icon wd-icon-shapes" role="presentation">
<path d="M13.7676 3.90628C14.5374 2.57293 16.4627 2.57289 17.2324 3.90628L20.75 10C21.5198 11.3334 20.5572 13.0002 19.0176 13H17.3994C17.7831 13.7501 18 14.5996 18 15.5C18 18.5376 15.5376 21 12.5 21C9.63101 21 7.27609 18.8032 7.02344 16H6C4.89543 16 4 15.1046 4 14V8.00003C4.00004 6.89549 4.89545 6.00003 6 6.00003H12C12.1792 6.00003 12.3525 6.02503 12.5176 6.06937L13.7676 3.90628ZM14 13V14C14 15.1046 13.1046 16 12 16H9.03613C9.27879 17.6961 10.7368 19 12.5 19C14.433 19 16 17.433 16 15.5C16 14.5191 15.5948 13.6348 14.9443 13H14ZM6 14H12V13H11.9814C10.4422 12.9996 9.48061 11.3331 10.25 10L11.4043 8.00003H6V14ZM11.9824 11H19.0176L15.5 4.90628L11.9824 11Z" fill="oklch(0.3523 0 0 / 1)" class="wd-icon-fill"></path>
</svg>