<svg width="24" height="24" viewBox="0 0 24 24" xmlns="http://www.w3.org/2000/svg" class="wd-icon wd-icon-shield-heart" role="presentation">
<path d="M12 4C14.3476 4 16.5203 4.73484 18.3057 5.98633C18.6584 6.23363 18.7068 6.27403 18.7832 6.37012C18.8432 6.44562 18.9316 6.61656 18.959 6.70898C18.9915 6.81888 19 6.91959 19 7.48633V9.5C19 12.4174 17.8412 15.2154 15.7783 17.2783C14.857 18.1997 13.7878 18.9398 12.627 19.4775C12.3271 19.6164 12.2867 19.6314 12.1729 19.6514C12.1729 19.6514 12.1576 19.6529 12.1211 19.6553C12.0864 19.6576 12.0445 19.6592 12 19.6592C11.9555 19.6592 11.9136 19.6576 11.8789 19.6553C11.8424 19.6529 11.8271 19.6514 11.8271 19.6514C11.7133 19.6314 11.6729 19.6164 11.373 19.4775C10.2122 18.9398 9.14302 18.1997 8.22168 17.2783C6.1588 15.2154 5 12.4174 5 9.5V7.48633C5 6.91958 5.00852 6.81888 5.04102 6.70898C5.06838 6.61656 5.15681 6.44562 5.2168 6.37012C5.29317 6.27403 5.34155 6.23363 5.69434 5.98633C7.47966 4.73484 9.65243 4.00001 12 4ZM16 10C16 8.54693 14.1231 7.09368 12.1875 8.91309L12 9.09961C10 6.99991 8 8.50003 8 10C8.00001 12.1876 11.0626 14.222 11.8281 14.6963L12 14.7998C12.0166 14.7902 16 12.4948 16 10Z" fill="transparent" class="wd-icon-background"></path>
<path d="M12.0001 2C14.7717 2 17.3435 2.86899 19.4542 4.34863C19.775 4.5735 20.0645 4.76837 20.3488 5.12598C20.5683 5.40229 20.7769 5.8022 20.8771 6.14062C21.0091 6.58641 21.0001 7.00909 21.0001 7.48633V9.5C21.0001 12.9478 19.6305 16.2544 17.1925 18.6924C16.1027 19.7822 14.8391 20.6568 13.4679 21.292C13.1755 21.4274 12.9193 21.5507 12.5177 21.6211C12.2248 21.6724 11.7755 21.6724 11.4825 21.6211C11.081 21.5507 10.8247 21.4274 10.5324 21.292C9.16116 20.6568 7.89751 19.7822 6.80774 18.6924C4.36976 16.2544 3.00013 12.9478 3.00013 9.5V7.48633C3.00013 7.00909 2.9912 6.58641 3.12317 6.14062C3.2234 5.8022 3.4319 5.40229 3.65149 5.12598C3.93573 4.76837 4.22524 4.5735 4.54603 4.34863C6.65678 2.869 9.22852 2.00001 12.0001 2ZM12.0001 4C9.65256 4.00001 7.47979 4.73484 5.69446 5.98633C5.34168 6.23363 5.2933 6.27403 5.21692 6.37012C5.15693 6.44562 5.0685 6.61656 5.04114 6.70898C5.00865 6.81888 5.00013 6.91958 5.00013 7.48633V9.5C5.00013 12.4174 6.15892 15.2154 8.22181 17.2783C9.14315 18.1997 10.2123 18.9398 11.3732 19.4775C11.673 19.6164 11.7134 19.6314 11.8273 19.6514C11.8273 19.6514 11.8425 19.6529 11.879 19.6553C11.9138 19.6576 11.9556 19.6592 12.0001 19.6592C12.0446 19.6592 12.0865 19.6576 12.1212 19.6553C12.1577 19.6529 12.173 19.6514 12.173 19.6514C12.2869 19.6314 12.3272 19.6164 12.6271 19.4775C13.7879 18.9398 14.8571 18.1997 15.7784 17.2783C17.8413 15.2154 19.0001 12.4174 19.0001 9.5V7.48633C19.0001 6.91959 18.9916 6.81888 18.9591 6.70898C18.9318 6.61656 18.8433 6.44562 18.7833 6.37012C18.707 6.27403 18.6586 6.23363 18.3058 5.98633C16.5205 4.73484 14.3477 4 12.0001 4Z" fill="oklch(0.3523 0 0 / 1)" class="wd-icon-fill"></path>
<path d="M12 9.1001C14 7.00016 15.9998 8.49956 16 9.99951C16 12.4995 12 14.7993 12 14.7993C11.962 14.7774 8 12.4875 8 9.99951C8.00018 8.49956 10 7.00016 12 9.1001Z" fill="oklch(0.3523 0 0 / 1)" class="wd-icon-accent"></path>
</svg>