<svg width="24" height="24" viewBox="0 0 24 24" xmlns="http://www.w3.org/2000/svg" class="wd-icon wd-icon-text-edit" role="presentation">
<g>
<path d="M19.499 11C20.3946 10.9989 21.2942 11.3411 21.9785 12.0254C22.6626 12.7097 23.0041 13.6094 23.0029 14.5049C23.0025 14.7696 22.8973 15.0238 22.71 15.2109L15.207 22.707C15.0195 22.8944 14.7651 23 14.5 23H12C11.4478 23 11.0001 22.5522 11 22V19.5C11 19.2348 11.1055 18.9805 11.293 18.793L18.793 11.293L18.8662 11.2266C19.0438 11.081 19.2674 11.0003 19.499 11ZM13 19.9141V21H14.085L18.3369 16.751L17.249 15.6631L13 19.9141ZM18.6631 14.249L19.751 15.3369L20.9561 14.1348C20.8924 13.8799 20.7629 13.6389 20.5635 13.4395C20.3637 13.2397 20.1225 13.1094 19.8672 13.0459L18.6631 14.249Z" fill="oklch(0.3523 0 0 / 1)" class="wd-icon-fill"></path>
<path d="M9.5 15C9.77614 15 10 15.2239 10 15.5V16.5C10 16.7761 9.77614 17 9.5 17H1.5C1.22386 17 1 16.7761 1 16.5V15.5C1 15.2239 1.22386 15 1.5 15H9.5Z" fill="oklch(0.3523 0 0 / 1)" class="wd-icon-fill"></path>
<path d="M14.5 10C14.7761 10 15 10.2239 15 10.5V11.5C15 11.7761 14.7761 12 14.5 12H1.5C1.22386 12 1 11.7761 1 11.5V10.5C1 10.2239 1.22386 10 1.5 10H14.5Z" fill="oklch(0.3523 0 0 / 1)" class="wd-icon-fill"></path>
<path d="M19.5 5C19.7761 5 20 5.22386 20 5.5V6.5C20 6.77614 19.7761 7 19.5 7H1.5C1.22386 7 1 6.77614 1 6.5V5.5C1 5.22386 1.22386 5 1.5 5H19.5Z" fill="oklch(0.3523 0 0 / 1)" class="wd-icon-fill"></path>
</g>
</svg>