<svg width="24" height="24" viewBox="0 0 24 24" xmlns="http://www.w3.org/2000/svg" class="wd-icon wd-icon-next-small" role="presentation">
<g>
<path d="M18 6C17.4477 6 17 6.44772 17 7V17C17 17.5523 17.4477 18 18 18C18.5523 18 19 17.5523 19 17V7C19 6.44772 18.5523 6 18 6Z" fill="oklch(0.3523 0 0 / 1)" class="wd-icon-fill"></path>
<path d="M6.89844 6.91309C6.61594 6.94193 6.35863 7.08982 6.19141 7.31934C6 7.5826 6 8.03932 6 8.95215V15.0479C6 15.9613 5.99964 16.4184 6.19141 16.6816C6.35863 16.9111 6.61598 17.0581 6.89844 17.0869C7.22242 17.1199 7.61717 16.89 8.40625 16.4297L13.6309 13.3818C14.4092 12.9278 14.7987 12.7009 14.9297 12.4053C15.044 12.1473 15.044 11.8527 14.9297 11.5947C14.7986 11.2991 14.4092 11.0722 13.6309 10.6182L8.40625 7.57031C7.61717 7.11001 7.22242 6.88006 6.89844 6.91309Z" fill="oklch(0.3523 0 0 / 1)" class="wd-icon-fill"></path>
</g>
</svg>