<svg width="24" height="24" viewBox="0 0 24 24" xmlns="http://www.w3.org/2000/svg" class="wd-icon wd-icon-fan-chart" role="presentation">
<path d="M19.0405 6.46973C19.468 6.1491 19.7342 5.95107 19.9351 5.82715C19.9422 5.82275 19.9495 5.81877 19.9564 5.81496C19.9615 5.81213 19.9665 5.80939 19.9712 5.80664C19.9718 5.81241 19.973 5.81849 19.9742 5.82478C19.9757 5.83245 19.9773 5.84045 19.978 5.84863C19.9994 6.08374 20.0005 6.41586 20.0005 6.9502V9.07031L14.231 12.6768C14.0834 12.769 13.9976 12.8166 13.9409 12.8477C13.8815 12.8222 13.8012 12.7822 13.645 12.7041L11.1636 11.4629C11.1467 11.4545 11.1295 11.4458 11.1118 11.4369C10.9362 11.3485 10.7206 11.2399 10.4829 11.1777L10.3696 11.1523L10.1851 11.127C10.0007 11.1099 9.81392 11.1181 9.63135 11.1523C9.34882 11.2054 9.09255 11.3345 8.88955 11.4367C8.87175 11.4457 8.85436 11.4544 8.8374 11.4629L6.19678 12.7822L9.93311 8.58105C10.0883 8.40647 10.1711 8.31507 10.2349 8.25293C10.2349 8.25293 10.2455 8.25026 10.2485 8.25C10.3307 8.28403 10.4416 8.33823 10.6499 8.44238L12.6685 9.45215C12.6897 9.46276 12.7115 9.47375 12.7338 9.485C12.9805 9.60947 13.2915 9.76635 13.6323 9.81152C13.9259 9.8503 14.2254 9.82408 14.5073 9.7334C14.8337 9.62829 15.1108 9.41882 15.331 9.25236C15.3515 9.23684 15.3716 9.22169 15.3911 9.20703L19.0405 6.46973Z" fill="transparent" class="wd-icon-background"></path>
<path d="M20.0419 3.75034C20.5668 3.76136 21.0629 3.97861 21.4267 4.34897L21.5751 4.51694L21.6747 4.66049C21.8847 5.00008 21.9431 5.37644 21.9697 5.66733C22.0013 6.01496 21.9999 6.45575 21.9999 6.95053V15.7425C21.9979 15.9873 21.9823 16.2686 21.8906 16.5345C21.7939 16.8147 21.636 17.0698 21.4286 17.2816C21.2318 17.4826 20.9875 17.6224 20.7695 17.7337L15.4785 20.3792C15.1839 20.5265 14.7982 20.738 14.3749 20.7757C14.0416 20.8054 13.7062 20.751 13.3994 20.6175C13.107 20.4902 12.8656 20.2764 12.665 20.0794L9.76166 17.1761C9.66905 17.0835 9.62196 17.0373 9.58685 17.0052L9.58295 17.0023H9.58099C9.53351 17.0001 9.46774 17.0003 9.33685 17.0003H5.56244C5.01753 17.0003 4.53954 17.0016 4.16693 16.9681C3.81895 16.9368 3.34204 16.863 2.95502 16.5443C2.47374 16.1477 2.20513 15.5483 2.22845 14.9251C2.24736 14.424 2.50894 14.0185 2.71673 13.7376C2.93929 13.4368 3.25792 13.0806 3.62006 12.6732L8.43744 7.25229C8.66863 6.9922 8.96403 6.63251 9.36517 6.43784C9.64132 6.30388 9.94418 6.23585 10.2499 6.23764L10.3808 6.24252L10.5458 6.26303C10.9259 6.32941 11.2716 6.51849 11.5439 6.65463L13.5624 7.66342C13.7333 7.74886 13.8219 7.79273 13.8876 7.82065L13.8935 7.8226C13.8935 7.8226 13.8976 7.82083 13.8994 7.81967C13.959 7.78045 14.0384 7.72147 14.1913 7.60678L17.8398 4.87045C18.2358 4.57347 18.5875 4.30762 18.8847 4.12436C19.1689 3.9491 19.5676 3.74048 20.0419 3.75034ZM15.291 14.3724C15.0688 14.5112 14.779 14.7061 14.4443 14.7923C14.1794 14.8605 13.9029 14.8732 13.6328 14.8304C13.2914 14.7763 12.9842 14.6106 12.7499 14.4935L10.2685 13.2523C10.1282 13.1821 10.0566 13.1473 10.0038 13.1244L9.99994 13.1224L9.99603 13.1244C9.94326 13.1473 9.87171 13.1821 9.73138 13.2523L6.23627 15.0003H9.33685C9.53384 15.0003 9.79574 14.9943 10.0527 15.056C10.2058 15.0928 10.3541 15.1468 10.4941 15.2181L10.6308 15.2953L10.791 15.4066C10.9434 15.5247 11.0712 15.6575 11.1757 15.7621L13.8915 18.4779C14.0477 18.634 14.1303 18.715 14.1933 18.7699C14.1949 18.7713 14.1982 18.7738 14.1982 18.7738C14.2005 18.7728 14.2035 18.7729 14.206 18.7718C14.2831 18.7397 14.3867 18.6888 14.5839 18.5902L19.6679 16.0482C19.8392 15.9626 19.9274 15.918 19.9892 15.8822C19.991 15.8811 19.9941 15.8783 19.9941 15.8783L19.9951 15.8724C19.9995 15.8012 19.9999 15.7022 19.9999 15.5111V11.429L15.291 14.3724ZM19.9345 5.82748C19.7336 5.95142 19.4675 6.14939 19.04 6.47006L15.3906 9.20737C15.1615 9.37922 14.8637 9.61885 14.5068 9.73374C14.2247 9.82446 13.9255 9.85071 13.6318 9.81186C13.2599 9.76258 12.924 9.58055 12.6679 9.45249L10.6494 8.44272C10.4407 8.33839 10.3302 8.28435 10.248 8.25034C10.2454 8.24925 10.2426 8.24838 10.2402 8.24741C10.2383 8.24922 10.2364 8.25125 10.2343 8.25327C10.1706 8.31541 10.0878 8.40679 9.93256 8.58139L6.19623 12.7826L8.83685 11.4632C9.04729 11.358 9.32341 11.2104 9.6308 11.1527C9.81346 11.1184 10 11.1102 10.1845 11.1273L10.3691 11.1527L10.4824 11.1781C10.7441 11.2465 10.9788 11.3711 11.163 11.4632L13.6445 12.7044C13.8009 12.7826 13.8809 12.8225 13.9404 12.848L13.9443 12.849C13.9443 12.849 13.9484 12.848 13.9501 12.847C14.0068 12.816 14.0827 12.7694 14.2304 12.6771L19.9999 9.07065V6.95053C19.9999 6.41599 19.9989 6.08408 19.9775 5.84897C19.9761 5.83398 19.9721 5.81986 19.9706 5.80698C19.9597 5.81344 19.947 5.81977 19.9345 5.82748Z" fill="oklch(0.3523 0 0 / 1)" class="wd-icon-fill"></path>
</svg>