<svg width="24" height="24" viewBox="0 0 24 24" xmlns="http://www.w3.org/2000/svg" class="wd-icon wd-icon-merge" role="presentation">
<path d="M5.70672 5.29286C5.31618 4.9024 4.68315 4.90236 4.29265 5.29286C3.90258 5.68341 3.90232 6.31655 4.29265 6.70692L8.88738 11.3016C9.15704 11.5713 9.3874 11.8015 9.61101 11.9989C9.38721 12.1965 9.15728 12.4282 8.88738 12.6981L4.29265 17.2929C3.90257 17.6834 3.90233 18.3165 4.29265 18.7069C4.68303 19.0973 5.31615 19.097 5.70672 18.7069L10.3014 14.1132C10.8534 13.5612 11.0198 13.4041 11.1979 13.2948C11.3767 13.1853 11.5722 13.1046 11.7761 13.0556C11.9794 13.0068 12.2074 12.9999 12.988 12.9999H17.5876L15.2936 15.2938C14.9031 15.6844 14.9031 16.3174 15.2936 16.7079C15.6842 17.0979 16.3173 17.0983 16.7077 16.7079L20.7077 12.7079C21.098 12.3175 21.0977 11.6844 20.7077 11.2938L16.7077 7.29384C16.3172 6.9034 15.6841 6.90339 15.2936 7.29384C14.9032 7.68434 14.9032 8.31739 15.2936 8.7079L17.5856 10.9999H12.988C12.2074 10.9999 11.9794 10.993 11.7761 10.9442C11.5721 10.8952 11.3768 10.8146 11.1979 10.705C11.0196 10.5957 10.8538 10.4389 10.3014 9.88661L5.70672 5.29286Z" fill="oklch(0.3523 0 0 / 1)" class="wd-icon-fill"></path>
</svg>