<svg width="24" height="24" viewBox="0 0 24 24" xmlns="http://www.w3.org/2000/svg" class="wd-icon wd-icon-arrow-right-circle" role="presentation">
<g>
<path d="M12.293 8.29297C12.6835 7.90293 13.3167 7.90261 13.707 8.29297L16.707 11.293C17.0973 11.6833 17.0971 12.3165 16.707 12.707L13.707 15.707C13.3165 16.0971 12.6833 16.0973 12.293 15.707C11.9027 15.3167 11.9029 14.6835 12.293 14.293L13.5859 13H8.00098C7.4488 13 7.00116 12.5521 7.00098 12C7.00118 11.4479 7.44882 11 8.00098 11H13.5859L12.293 9.70703C11.9026 9.31665 11.9029 8.68352 12.293 8.29297Z" fill="oklch(0.3523 0 0 / 1)" class="wd-icon-fill"></path>
<path d="M12 2C17.5228 2 22 6.47715 22 12C22 17.5228 17.5228 22 12 22C6.47715 22 2 17.5228 2 12C2 6.47715 6.47715 2 12 2ZM12 4C7.58172 4 4 7.58172 4 12C4 16.4183 7.58172 20 12 20C16.4183 20 20 16.4183 20 12C20 7.58172 16.4183 4 12 4Z" fill="oklch(0.3523 0 0 / 1)" class="wd-icon-fill"></path>
</g>
</svg>