<svg width="24" height="24" viewBox="0 0 24 24" xmlns="http://www.w3.org/2000/svg" class="wd-icon wd-icon-gift" role="presentation">
<path d="M8.7168 2C10.0937 2 11.3089 2.6907 12.0361 3.74414C12.7704 2.75164 13.9499 2.1084 15.2793 2.1084C16.79 2.1084 17.998 3.35349 17.998 4.8457C17.998 5.25597 17.9051 5.64663 17.7432 6H18.4023C18.666 6 18.9236 5.99973 19.1406 6.01758C19.3694 6.03641 19.6392 6.08067 19.9102 6.21875L20.0479 6.2959C20.316 6.46047 20.5415 6.68593 20.7061 6.9541L20.7832 7.0918C20.9213 7.36279 20.9655 7.6326 20.9844 7.86133C21.0022 8.0784 21.002 8.33595 21.002 8.59961V10.4004C21.002 10.6641 21.0022 10.9216 20.9844 11.1387C20.9703 11.3103 20.9427 11.5052 20.8711 11.7061L20.7832 11.9082C20.6075 12.2528 20.3355 12.5367 20.002 12.7295V16.7998C20.002 17.3433 20.003 17.8116 19.9717 18.1953C19.9394 18.5905 19.8676 18.9839 19.6748 19.3623C19.3872 19.9265 18.9285 20.3853 18.3643 20.6729C17.9858 20.8657 17.5924 20.9375 17.1973 20.9697C16.8136 21.001 16.3452 21 15.8018 21H8.20215C7.65869 21 7.19033 21.001 6.80664 20.9697C6.41147 20.9375 6.01806 20.8657 5.63965 20.6729C5.07543 20.3853 4.61668 19.9265 4.3291 19.3623C4.13629 18.9839 4.06447 18.5905 4.03223 18.1953C4.00095 17.8116 4.00195 17.3433 4.00195 16.7998V12.7295C3.71395 12.563 3.47157 12.329 3.29785 12.0459L3.2207 11.9082C3.08263 11.6372 3.03836 11.3674 3.01953 11.1387C3.00168 10.9216 3.00195 10.6641 3.00195 10.4004V8.59961C3.00195 8.33595 3.00168 8.0784 3.01953 7.86133C3.03836 7.6326 3.08263 7.36279 3.2207 7.0918L3.29785 6.9541C3.48988 6.64119 3.76484 6.38645 4.09375 6.21875L4.2959 6.13086C4.49674 6.05925 4.6917 6.0317 4.86328 6.01758C5.08035 5.99973 5.3379 6 5.60156 6H6.30371C6.10902 5.61927 5.99805 5.18977 5.99805 4.7373C5.99812 3.24509 7.20613 2 8.7168 2ZM6.00195 16.7998C6.00195 17.3763 6.00229 17.7487 6.02539 18.0322C6.04752 18.3037 6.08525 18.4047 6.11035 18.4541C6.20622 18.6422 6.35973 18.7957 6.54785 18.8916C6.59721 18.9167 6.69827 18.9544 6.96973 18.9766C7.25323 18.9997 7.62562 19 8.20215 19H11.248V12.5049H6.00195V16.7998ZM12.748 19H15.8018C16.3783 19 16.7507 18.9997 17.0342 18.9766C17.3056 18.9544 17.4067 18.9167 17.4561 18.8916C17.6442 18.7957 17.7977 18.6422 17.8936 18.4541C17.9187 18.4047 17.9564 18.3037 17.9785 18.0322C18.0016 17.7487 18.002 17.3763 18.002 16.7998V12.5049H12.748V19ZM12.748 11.0049H18.4941V11.0176L18.9414 10.9902C18.9597 10.9891 18.9755 10.9865 18.9893 10.9854C18.9896 10.982 18.9909 10.9783 18.9912 10.9746C19.0008 10.8583 19.002 10.6961 19.002 10.4004V8.59961C19.002 8.30386 19.0008 8.14168 18.9912 8.02539C18.9908 8.02065 18.9897 8.01595 18.9893 8.01172C18.9853 8.01136 18.9809 8.0111 18.9766 8.01074C18.8603 8.00119 18.6981 8 18.4023 8H12.748V11.0049ZM5.60156 8C5.30581 8 5.14363 8.00119 5.02734 8.01074C5.02264 8.01113 5.01787 8.01133 5.01367 8.01172C5.01328 8.01592 5.01308 8.02069 5.0127 8.02539C5.00315 8.14168 5.00195 8.30386 5.00195 8.59961V10.4004C5.00195 10.6961 5.00315 10.8583 5.0127 10.9746C5.01299 10.9782 5.01337 10.982 5.01367 10.9854C5.02766 10.9866 5.04374 10.9891 5.0625 10.9902L5.49414 11.0166V11.0049H11.248V8H5.60156ZM15.2793 3.6084C13.9282 3.6084 12.8284 4.66706 12.7559 6H15.7695C16.1966 5.79622 16.498 5.35573 16.498 4.8457C16.498 4.16342 15.9432 3.6084 15.2793 3.6084ZM8.7168 3.5C8.05293 3.5 7.49812 4.05503 7.49805 4.7373C7.49805 5.38243 7.97973 5.91668 8.58887 6H11.2451C11.2284 4.61644 10.1043 3.5 8.7168 3.5Z" fill="oklch(0.3523 0 0 / 1)" class="wd-icon-fill"></path>
</svg>