<svg width="24" height="24" viewBox="0 0 24 24" xmlns="http://www.w3.org/2000/svg" class="wd-icon wd-icon-arrow-corner-up-right" role="presentation">
<path d="M14.293 4.29286C14.6835 3.9024 15.3165 3.90236 15.707 4.29286L19.707 8.29286C20.0974 8.68337 20.0975 9.31643 19.707 9.70692L15.707 13.7069C15.3165 14.0972 14.6834 14.0973 14.293 13.7069C13.9026 13.3165 13.9027 12.6834 14.293 12.2929L16.5869 9.99892H13C9.13412 9.99892 6.00018 13.1331 6 16.9989V18.9999C5.9998 19.552 5.55216 19.9999 5 19.9999C4.44784 19.9999 4.0002 19.552 4 18.9999V16.9989C4.00018 12.0285 8.02955 7.99892 13 7.99892H16.585L14.293 5.70692C13.9025 5.31645 13.9026 4.6834 14.293 4.29286Z" fill="oklch(0.3523 0 0 / 1)" class="wd-icon-fill"></path>
</svg>