<svg width="24" height="24" viewBox="0 0 24 24" xmlns="http://www.w3.org/2000/svg" class="wd-icon wd-icon-table-header-freeze" role="presentation">
<path d="M16.2002 4C17.0237 4 17.7016 3.99898 18.252 4.04395C18.814 4.08988 19.3311 4.18828 19.8164 4.43555C20.5689 4.81902 21.181 5.4311 21.5645 6.1836C21.8117 6.6689 21.9101 7.186 21.9561 7.74805C22.001 8.29842 22 8.97632 22 9.79981V14.2002C22 15.0237 22.001 15.7016 21.9561 16.252C21.9101 16.814 21.8117 17.3311 21.5645 17.8164C21.181 18.5689 20.5689 19.181 19.8164 19.5645C19.3311 19.8117 18.814 19.9101 18.252 19.9561C17.7016 20.001 17.0237 20 16.2002 20H7.79981C6.97632 20 6.29842 20.001 5.74805 19.9561C5.186 19.9101 4.6689 19.8117 4.1836 19.5645C3.4311 19.181 2.81902 18.5689 2.43555 17.8164C2.18828 17.3311 2.08988 16.814 2.04395 16.252C1.99898 15.7016 2 15.0237 2 14.2002V9.79981C2 8.97632 1.99898 8.29843 2.04395 7.74805C2.08988 7.186 2.18828 6.6689 2.43555 6.1836C2.81902 5.43109 3.43109 4.81902 4.1836 4.43555C4.6689 4.18828 5.186 4.08988 5.74805 4.04395C6.29842 3.99898 6.97632 4 7.79981 4H16.2002ZM14.75 14.75V18H16.2002C17.0566 18 17.6388 17.9997 18.0889 17.9629C18.5273 17.9271 18.7518 17.8619 18.9082 17.7822C19.2845 17.5905 19.5905 17.2845 19.7822 16.9082C19.8619 16.7518 19.9271 16.5273 19.9629 16.0889C19.9912 15.7425 19.9955 15.3178 19.9971 14.75H14.75ZM8 18H13.25V14.75H8V18ZM14.75 10V13.25H20V10H14.75ZM8 13.25H13.25V10H8V13.25Z" fill="oklch(0.3523 0 0 / 1)" class="wd-icon-fill"></path>
</svg>