<svg width="24" height="24" viewBox="0 0 24 24" xmlns="http://www.w3.org/2000/svg" class="wd-icon wd-icon-font-edit" role="presentation">
<g>
<path d="M17.0143 11.165C18.0691 10.1103 19.7798 10.1104 20.8346 11.165C21.8894 12.2199 21.8894 13.9306 20.8346 14.9854L15.4508 20.3691C15.3128 20.5071 15.183 20.6408 15.029 20.749C14.903 20.8375 14.7665 20.9104 14.6237 20.9678C14.449 21.0379 14.2667 21.0738 14.0758 21.1143L11.1559 21.7344C10.9077 21.787 10.6488 21.7097 10.4694 21.5303C10.2901 21.3509 10.2138 21.0929 10.2663 20.8447L10.8844 17.9238C10.9249 17.733 10.9618 17.5506 11.0319 17.376C11.0892 17.2332 11.1632 17.0976 11.2516 16.9717C11.3598 16.8177 11.4926 16.6877 11.6305 16.5498L17.0143 11.165ZM19.7741 12.2256C19.305 11.7567 18.5438 11.7566 18.0749 12.2256L12.6911 17.6104C12.6021 17.6993 12.5522 17.7492 12.5231 17.7803L14.2184 19.4766C14.2495 19.4475 14.3007 19.3982 14.3903 19.3086L19.7741 13.9248C20.2431 13.4558 20.243 12.6946 19.7741 12.2256Z" fill="oklch(0.3523 0 0 / 1)" class="wd-icon-fill"></path>
<path d="M6.97818 2.01367C7.63611 2.01367 8.22661 2.4041 8.48795 2.99902L8.5358 3.12012L11.8629 12.6709C12.0445 13.1924 11.7682 13.7627 11.2467 13.9443C10.7254 14.1256 10.156 13.8503 9.97428 13.3291L9.1608 10.9951C9.13061 10.9979 9.09991 11 9.069 11H4.85123C4.8322 11 4.81336 10.9981 4.79459 10.9971L3.98307 13.3291C3.8013 13.8505 3.23109 14.126 2.70963 13.9443C2.18837 13.7626 1.91296 13.1923 2.09439 12.6709L5.42154 3.12012L5.46939 2.99902C5.73071 2.40432 6.3205 2.01385 6.97818 2.01367ZM5.49088 9H8.46646L6.97818 4.72949L5.49088 9Z" fill="oklch(0.3523 0 0 / 1)" class="wd-icon-fill"></path>
</g>
</svg>