<svg width="24" height="24" viewBox="0 0 24 24" xmlns="http://www.w3.org/2000/svg" class="wd-icon wd-icon-shrink-chevron" role="presentation">
<g>
<path d="M10 13C10.5522 13 10.9998 13.4479 11 14V20C10.9998 20.5521 10.5522 21 10 21C9.44783 21 9.00019 20.5521 9 20V15H4C3.44784 15 3.00019 14.5521 3 14C3.00014 13.4478 3.4478 13 4 13H10Z" fill="oklch(0.3523 0 0 / 1)" class="wd-icon-fill"></path>
<path d="M14 3C14.5522 3 14.9998 3.44787 15 4V9H20C20.5522 9.00001 20.9998 9.44788 21 10C20.9999 10.5522 20.5522 11 20 11H14C13.4478 11 13.0002 10.5521 13 10V4C13.0002 3.44787 13.4478 3 14 3Z" fill="oklch(0.3523 0 0 / 1)" class="wd-icon-fill"></path>
</g>
</svg>