<svg width="24" height="24" viewBox="0 0 24 24" xmlns="http://www.w3.org/2000/svg" class="wd-icon wd-icon-pause-small" role="presentation">
<g>
<path d="M8.65039 7C9.21018 7 9.49024 7.00041 9.7041 7.10938C9.89207 7.20522 10.0448 7.35793 10.1406 7.5459C10.2496 7.75976 10.25 8.03982 10.25 8.59961V15.4004C10.25 15.9602 10.2496 16.2402 10.1406 16.4541C10.0448 16.6421 9.89207 16.7948 9.7041 16.8906C9.49024 16.9996 9.21018 17 8.65039 17H8.59961C8.03982 17 7.75976 16.9996 7.5459 16.8906C7.35793 16.7948 7.20522 16.6421 7.10938 16.4541C7.00041 16.2402 7 15.9602 7 15.4004V8.59961C7 8.03982 7.00041 7.75976 7.10938 7.5459C7.20522 7.35793 7.35793 7.20522 7.5459 7.10938C7.75976 7.00041 8.03982 7 8.59961 7H8.65039Z" fill="oklch(0.3523 0 0 / 1)" class="wd-icon-fill"></path>
<path d="M15.4004 7C15.9602 7 16.2402 7.00041 16.4541 7.10938C16.6421 7.20522 16.7948 7.35793 16.8906 7.5459C16.9996 7.75976 17 8.03982 17 8.59961V15.4004C17 15.9602 16.9996 16.2402 16.8906 16.4541C16.7948 16.6421 16.6421 16.7948 16.4541 16.8906C16.2402 16.9996 15.9602 17 15.4004 17H15.3496C14.7898 17 14.5098 16.9996 14.2959 16.8906C14.1079 16.7948 13.9552 16.6421 13.8594 16.4541C13.7504 16.2402 13.75 15.9602 13.75 15.4004V8.59961C13.75 8.03982 13.7504 7.75976 13.8594 7.5459C13.9552 7.35793 14.1079 7.20522 14.2959 7.10938C14.5098 7.00041 14.7898 7 15.3496 7H15.4004Z" fill="oklch(0.3523 0 0 / 1)" class="wd-icon-fill"></path>
</g>
</svg>