<svg width="24" height="24" viewBox="0 0 24 24" xmlns="http://www.w3.org/2000/svg" class="wd-icon wd-icon-alarm-clock" role="presentation">
<path d="M18 2C20.2091 2 22 3.79086 22 6C22 7.25492 21.4192 8.36675 20.5195 9.09766C20.8297 10.0085 21 10.9842 21 12C21 14.3143 20.1258 16.424 18.6904 18.0186L19.5977 19.4697C19.8903 19.9379 19.7483 20.5549 19.2803 20.8477C18.8121 21.1403 18.1951 20.9983 17.9023 20.5303L17.1719 19.3623C15.7083 20.3924 13.9257 21 12 21C10.074 21 8.29089 20.3926 6.82715 19.3623L6.09766 20.5303C5.80486 20.9983 5.18795 21.1403 4.71973 20.8477C4.25167 20.5549 4.10971 19.9379 4.40234 19.4697L5.30859 18.0186C3.87351 16.4241 3 14.3141 3 12C3 10.9847 3.16955 10.0091 3.47949 9.09863C2.57993 8.36751 2 7.25459 2 6C2 3.79086 3.79086 2 6 2C7.25459 2 8.36751 2.57993 9.09863 3.47949C10.0091 3.16955 10.9847 3 12 3C13.0147 3 13.9894 3.16993 14.8994 3.47949C15.6309 2.57933 16.7453 2 18 2ZM12 5C10.851 5 9.76718 5.27793 8.81055 5.76855C7.50657 6.43744 6.44003 7.50402 5.77051 8.80762C5.27889 9.76501 5 10.8497 5 12C5 15.866 8.13401 19 12 19C15.866 19 19 15.866 19 12C19 10.9758 18.7781 10.0038 18.3828 9.12695C18.3813 9.12366 18.3794 9.1205 18.3779 9.11719C17.677 7.56915 16.4297 6.32165 14.8818 5.62109L14.8799 5.62012C14.0013 5.2229 13.0269 5 12 5ZM6 4C4.89543 4 4 4.89543 4 6C4 6.44518 4.1463 6.85671 4.39453 7.18945C4.47705 7.05926 4.56246 6.93121 4.65137 6.80566C4.6651 6.78627 4.67948 6.76733 4.69336 6.74805C4.78076 6.62667 4.87068 6.50737 4.96387 6.39062C4.9698 6.38319 4.97549 6.37558 4.98145 6.36816C5.39206 5.8571 5.8571 5.39206 6.36816 4.98145C6.37863 4.97304 6.38891 4.96441 6.39941 4.95605C6.51322 4.86545 6.62985 4.77847 6.74805 4.69336C6.76733 4.67948 6.78627 4.6651 6.80566 4.65137C6.92775 4.56491 7.05223 4.48179 7.17871 4.40137C7.18229 4.39909 7.18587 4.3968 7.18945 4.39453C6.85671 4.1463 6.44518 4 6 4ZM18 4C17.5544 4 17.1416 4.14523 16.8086 4.39355C17.9347 5.10691 18.8907 6.06272 19.6045 7.18848C19.8528 6.8558 20 6.44507 20 6C20 4.89543 19.1046 4 18 4Z" fill="oklch(0.3523 0 0 / 1)" class="wd-icon-fill"></path>
<path d="M12 7C12.4142 7 12.7499 7.33584 12.75 7.75V11.6895L15.0303 13.9697C15.3231 14.2626 15.3231 14.7374 15.0303 15.0303C14.7374 15.3232 14.2626 15.3232 13.9697 15.0303L11.6162 12.6768C11.3818 12.4424 11.25 12.1244 11.25 11.793V7.75C11.2501 7.33584 11.5858 7 12 7Z" fill="oklch(0.3523 0 0 / 1)" class="wd-icon-accent"></path>
</svg>