<svg width="24" height="24" viewBox="0 0 24 24" xmlns="http://www.w3.org/2000/svg" class="wd-icon wd-icon-hashmark" role="presentation">
<path d="M16.6416 4.00918C17.1881 4.08733 17.5681 4.5945 17.4902 5.14101L17.1533 7.49941H19C19.5521 7.49941 19.9998 7.94734 20 8.49941C20 9.0517 19.5523 9.49941 19 9.49941H16.8672L16.1533 14.4994H19C19.5521 14.4994 19.9998 14.9473 20 15.4994C20 16.0517 19.5523 16.4994 19 16.4994H15.8672L15.4902 19.141C15.4121 19.6877 14.9051 20.0677 14.3584 19.9896C13.8118 19.9114 13.4317 19.4045 13.5098 18.8578L13.8467 16.4994H8.86719L8.49023 19.141C8.41206 19.6877 7.90509 20.0677 7.3584 19.9896C6.81177 19.9114 6.43167 19.4045 6.50977 18.8578L6.84668 16.4994H5C4.44772 16.4994 4 16.0517 4 15.4994C4.00025 14.9473 4.44787 14.4994 5 14.4994H7.13281L7.84668 9.49941H5C4.44772 9.49941 4 9.0517 4 8.49941C4.00025 7.94734 4.44787 7.49941 5 7.49941H8.13281L8.50977 4.85781C8.58815 4.31141 9.09509 3.93114 9.6416 4.00918C10.1881 4.08733 10.5681 4.5945 10.4902 5.14101L10.1533 7.49941H15.1328L15.5098 4.85781C15.5881 4.31141 16.0951 3.93114 16.6416 4.00918ZM9.86719 9.49941L9.15332 14.4994H14.1328L14.8467 9.49941H9.86719Z" fill="oklch(0.3523 0 0 / 1)" class="wd-icon-fill"></path>
</svg>