<svg width="24" height="24" viewBox="0 0 24 24" xmlns="http://www.w3.org/2000/svg" class="wd-icon wd-icon-region" role="presentation">
<path d="M21.5 5C22.3284 5 23 5.67157 23 6.5V12.5C23 12.7761 22.7761 13 22.5 13H21.5C21.2239 13 21 12.7761 21 12.5V7H3V17H14.5C14.7761 17 15 17.2239 15 17.5V18.5C15 18.7761 14.7761 19 14.5 19H2.5C1.67157 19 1 18.3284 1 17.5V6.5C1 5.67157 1.67157 5 2.5 5H21.5Z" fill="oklch(0.3523 0 0 / 1)" class="wd-icon-fill"></path>
<path d="M20 15C21.6569 15 23 16.3431 23 18C23 19.6569 21.6569 21 20 21C18.3431 21 17 19.6569 17 18C17 16.3431 18.3431 15 20 15Z" fill="oklch(0.3523 0 0 / 1)" class="wd-icon-accent"></path>
</svg>