<svg width="24" height="24" viewBox="0 0 24 24" xmlns="http://www.w3.org/2000/svg" class="wd-icon wd-icon-virtual-version" role="presentation">
<g>
<path d="M5.5 19C5.77614 19 6 19.2239 6 19.5V21H7.5C7.77614 21 8 21.2239 8 21.5V22.5C8 22.7761 7.77614 23 7.5 23H5.5C4.67157 23 4 22.3284 4 21.5V19.5C4 19.2239 4.22386 19 4.5 19H5.5Z" fill="oklch(0.3523 0 0 / 1)" class="wd-icon-fill"></path>
<path d="M13.5 21C13.7761 21 14 21.2239 14 21.5V22.5C14 22.7761 13.7761 23 13.5 23H10.5C10.2239 23 10 22.7761 10 22.5V21.5C10 21.2239 10.2239 21 10.5 21H13.5Z" fill="oklch(0.3523 0 0 / 1)" class="wd-icon-fill"></path>
<path d="M19.5 19C19.7761 19 20 19.2239 20 19.5V21.5C20 22.3284 19.3284 23 18.5 23H16.5C16.2239 23 16 22.7761 16 22.5V21.5C16 21.2239 16.2239 21 16.5 21H18V19.5C18 19.2239 18.2239 19 18.5 19H19.5Z" fill="oklch(0.3523 0 0 / 1)" class="wd-icon-fill"></path>
<path d="M5.5 13C5.77614 13 6 13.2239 6 13.5V16.5C6 16.7761 5.77614 17 5.5 17H4.5C4.22386 17 4 16.7761 4 16.5V13.5C4 13.2239 4.22386 13 4.5 13H5.5Z" fill="oklch(0.3523 0 0 / 1)" class="wd-icon-fill"></path>
<path d="M19.5 13C19.7761 13 20 13.2239 20 13.5V16.5C20 16.7761 19.7761 17 19.5 17H18.5C18.2239 17 18 16.7761 18 16.5V13.5C18 13.2239 18.2239 13 18.5 13H19.5Z" fill="oklch(0.3523 0 0 / 1)" class="wd-icon-fill"></path>
<path d="M5.5 7C5.77614 7 6 7.22386 6 7.5V10.5C6 10.7761 5.77614 11 5.5 11H4.5C4.22386 11 4 10.7761 4 10.5V7.5C4 7.22386 4.22386 7 4.5 7H5.5Z" fill="oklch(0.3523 0 0 / 1)" class="wd-icon-fill"></path>
<path d="M19.5 7C19.7761 7 20 7.22386 20 7.5V10.5C20 10.7761 19.7761 11 19.5 11H18.5C18.2239 11 18 10.7761 18 10.5V7.5C18 7.22386 18.2239 7 18.5 7H19.5Z" fill="oklch(0.3523 0 0 / 1)" class="wd-icon-fill"></path>
<path d="M12.5 8C12.7761 8 13 8.22386 13 8.5V9.5C13 9.77614 12.7761 10 12.5 10H8.5C8.22386 10 8 9.77614 8 9.5V8.5C8 8.22386 8.22386 8 8.5 8H12.5Z" fill="oklch(0.3523 0 0 / 1)" class="wd-icon-fill"></path>
<path d="M15.5 5C15.7761 5 16 5.22386 16 5.5V6.5C16 6.77614 15.7761 7 15.5 7H8.5C8.22386 7 8 6.77614 8 6.5V5.5C8 5.22386 8.22386 5 8.5 5H15.5Z" fill="oklch(0.3523 0 0 / 1)" class="wd-icon-fill"></path>
<path d="M7.5 1C7.77614 1 8 1.22386 8 1.5V2.5C8 2.77614 7.77614 3 7.5 3H6V4.5C6 4.77614 5.77614 5 5.5 5H4.5C4.22386 5 4 4.77614 4 4.5V2.5C4 1.67157 4.67157 1 5.5 1H7.5Z" fill="oklch(0.3523 0 0 / 1)" class="wd-icon-fill"></path>
<path d="M18.5 1C19.3284 1 20 1.67157 20 2.5V4.5C20 4.77614 19.7761 5 19.5 5H18.5C18.2239 5 18 4.77614 18 4.5V3H16.5C16.2239 3 16 2.77614 16 2.5V1.5C16 1.22386 16.2239 1 16.5 1H18.5Z" fill="oklch(0.3523 0 0 / 1)" class="wd-icon-fill"></path>
<path d="M13.5 1C13.7761 1 14 1.22386 14 1.5V2.5C14 2.77614 13.7761 3 13.5 3H10.5C10.2239 3 10 2.77614 10 2.5V1.5C10 1.22386 10.2239 1 10.5 1H13.5Z" fill="oklch(0.3523 0 0 / 1)" class="wd-icon-fill"></path>
</g>
</svg>