<svg width="24" height="24" viewBox="0 0 24 24" xmlns="http://www.w3.org/2000/svg" class="wd-icon wd-icon-wallet" role="presentation">
<g>
<path d="M19 8.00108C19.5522 8.00108 19.9999 8.44885 20 9.00108V11.0011H17.5C16.1193 11.0011 15.0001 12.1204 15 13.5011C15.0002 14.8816 16.1194 16.0011 17.5 16.0011H20V18.0011C19.9998 18.5532 19.5522 19.0011 19 19.0011H6C4.89555 19.0011 4.0002 18.1055 4 17.0011V8.00108H19Z" fill="transparent" class="wd-icon-background"></path>
<path d="M20 14.5011H17.5C16.9478 14.5011 16.5002 14.0532 16.5 13.5011C16.5001 12.9489 16.9478 12.5011 17.5 12.5011H20V14.5011Z" fill="transparent" class="wd-icon-background"></path>
<path d="M14.79 3.49718C15.4124 3.36383 15.9997 3.83831 16 4.47472V6.00108H4.59863C4.86229 5.74165 5.1986 5.55278 5.58105 5.47081L14.79 3.49718Z" fill="transparent" class="wd-icon-background"></path>
</g>
<path d="M14.3711 1.54139C16.2385 1.14123 17.9998 2.56424 18 4.474V6.00037H19C20.6569 6.00037 22 7.34352 22 9.00037V18.0004C21.9998 19.657 20.6567 21.0004 19 21.0004H6C3.791 21.0004 2.00023 19.2093 2 17.0004V7.42518C2.00021 5.53924 3.31802 3.90925 5.16211 3.51404L14.3711 1.54139ZM4 17.0004C4.00023 18.1047 4.89557 19.0004 6 19.0004H19C19.5521 19.0004 19.9998 18.5525 20 18.0004V16.0004H17.5C16.1194 16.0004 15.0002 14.8809 15 13.5004C15 12.1197 16.1193 11.0004 17.5 11.0004H20V9.00037C20 8.44809 19.5523 8.00037 19 8.00037H4V17.0004ZM17.5 12.5004C16.9477 12.5004 16.5 12.9481 16.5 13.5004C16.5002 14.0525 16.9479 14.5004 17.5 14.5004H20V12.5004H17.5ZM16 4.474C15.9998 3.83753 15.4124 3.36309 14.79 3.49647L5.58105 5.4701C5.19856 5.55208 4.8623 5.7409 4.59863 6.00037H16V4.474Z" fill="oklch(0.3523 0 0 / 1)" class="wd-icon-fill"></path>
</svg>