<svg width="24" height="24" viewBox="0 0 24 24" xmlns="http://www.w3.org/2000/svg" class="wd-icon wd-icon-merge-small" role="presentation">
<path d="M6.70744 6.29387C6.31692 5.90335 5.6839 5.90335 5.29338 6.29387C4.90286 6.68439 4.90286 7.31741 5.29338 7.70793L8.88713 11.3017C9.15691 11.5715 9.38704 11.8022 9.61076 11.9999C9.4873 12.109 9.36158 12.2278 9.22893 12.3583L5.29338 16.2939C4.90286 16.6844 4.90286 17.3174 5.29338 17.7079C5.68394 18.098 6.31706 18.0983 6.70744 17.7079L10.3012 14.1142C10.8533 13.562 11.0195 13.4051 11.1977 13.2958C11.3765 13.1863 11.5719 13.1056 11.7758 13.0566C11.9791 13.0078 12.2077 13.0009 12.9887 13.0009H16.5854L15.2934 14.2929C14.9029 14.6834 14.9029 15.3164 15.2934 15.707C15.6839 16.0974 16.3169 16.0974 16.7074 15.707L19.7074 12.707C20.0975 12.3164 20.0977 11.6833 19.7074 11.2929L16.7074 8.29289C16.3171 7.90251 15.6839 7.90278 15.2934 8.29289C14.9029 8.68342 14.9029 9.31643 15.2934 9.70696L16.5873 11.0009H12.9887C12.208 11.0009 11.9791 10.994 11.7758 10.9452C11.5721 10.8963 11.3764 10.8154 11.1977 10.706C11.0195 10.5967 10.853 10.4394 10.3012 9.88762L6.70744 6.29387Z" fill="oklch(0.3523 0 0 / 1)" class="wd-icon-fill"></path>
</svg>