<svg class="wd-icon wd-icon-workday" role="presentation" width="24" height="24" viewBox="0 0 24 24" xmlns="http://www.w3.org/2000/svg">
<path class="wd-icon-fill" d="M14.7202 21.9986C14.4512 21.9986 14.2302 21.8756 14.1572 21.5796L11.9972 13.9756L9.83721 21.5816C9.76421 21.8776 9.54321 22.0006 9.27421 22.0006H7.48121C7.18721 22.0006 7.01421 21.8776 6.91821 21.5816C5.76321 18.3736 4.97921 15.1856 4.31621 11.9776C4.24321 11.6546 4.38921 11.4336 4.73121 11.4336H6.32821C6.62221 11.4336 6.81821 11.5816 6.87021 11.8526C7.28521 14.1256 7.77921 16.4676 8.44221 18.7676L10.3562 11.8526C10.4292 11.5816 10.6252 11.4336 10.9192 11.4336H13.0792C13.3732 11.4336 13.5692 11.5816 13.6422 11.8526L15.5562 18.7676C16.2192 16.4736 16.7132 14.1256 17.1282 11.8526C17.1762 11.5816 17.3742 11.4336 17.6702 11.4336H19.2672C19.6092 11.4336 19.7572 11.6566 19.6822 11.9776C19.0192 15.1866 18.2352 18.3736 17.0812 21.5816C16.9812 21.8776 16.8102 21.9986 16.5162 21.9986H14.7202Z" fill="oklch(0.3523 0 0 / 1)"/>
<path class="wd-icon-accent" d="M12.0009 2C14.1428 2 16.1569 2.83591 17.6718 4.34766C18.6188 5.29666 19.2997 6.44045 19.6767 7.68945C19.7573 7.9582 19.5492 8.22835 19.2675 8.22852H17.58C17.4071 8.22841 17.2495 8.12284 17.1865 7.96191C16.9095 7.26397 16.4913 6.62317 15.9433 6.0752C14.8913 5.0222 13.49 4.44238 11.999 4.44238C10.5062 4.44446 9.10468 5.02426 8.04978 6.08105C7.50482 6.62701 7.08747 7.26693 6.81247 7.96387C6.74847 8.12487 6.59094 8.23145 6.41794 8.23145H4.73142C4.44955 8.23145 4.24155 7.96028 4.32224 7.69141C4.69624 6.44641 5.37519 5.30252 6.32419 4.35352C7.84009 2.83572 9.85917 2.00009 12.0009 2Z" fill="oklch(0.3523 0 0 / 1)"/>
</svg>
