<svg width="24" height="24" viewBox="0 0 24 24" xmlns="http://www.w3.org/2000/svg" class="wd-icon wd-icon-underline" role="presentation">
<g>
<path d="M19 19C19.5523 19 20 19.4477 20 20C20 20.5523 19.5523 21 19 21H5C4.44772 21 4 20.5523 4 20C4 19.4477 4.44772 19 5 19H19Z" fill="oklch(0.3523 0 0 / 1)" class="wd-icon-fill"></path>
<path d="M16.875 3C17.4963 3 18 3.50368 18 4.125V12C18 15.3137 15.3137 18 12 18C8.68629 18 6 15.3137 6 12V4.125C6 3.50368 6.50368 3 7.125 3C7.74632 3 8.25 3.50368 8.25 4.125V12C8.25 14.0711 9.92893 15.75 12 15.75C14.0711 15.75 15.75 14.0711 15.75 12V4.125C15.75 3.50368 16.2537 3 16.875 3Z" fill="oklch(0.3523 0 0 / 1)" class="wd-icon-fill"></path>
</g>
</svg>