<svg width="24" height="24" viewBox="0 0 24 24" xmlns="http://www.w3.org/2000/svg" class="wd-icon wd-icon-birthday" role="presentation">
<path d="M7.5 6C7.77614 6 8 6.22386 8 6.5V9H11V6.5C11 6.22386 11.2239 6 11.5 6H12.5C12.7761 6 13 6.22386 13 6.5V9H16V6.5C16 6.22386 16.2239 6 16.5 6H17.5C17.7761 6 18 6.22386 18 6.5V9H18.5C19.3284 9 20 9.67157 20 10.5V18H21.5C21.7761 18 22 18.2239 22 18.5V19.5C22 19.7761 21.7761 20 21.5 20H2.5C2.22386 20 2 19.7761 2 19.5V18.5C2 18.2239 2.22386 18 2.5 18H4V10.5C4 9.67157 4.67157 9 5.5 9H6V6.5C6 6.22386 6.22386 6 6.5 6H7.5ZM6 18H18V11H6V18Z" fill="oklch(0.3523 0 0 / 1)" class="wd-icon-fill"></path>
<g>
<path d="M14.9346 12.918C15.299 12.668 15.7903 12.6859 16.1367 12.9717C16.6692 13.4114 17.3038 13.7308 18 13.8887V15.9229C17.0911 15.7822 16.2436 15.4535 15.5 14.9775C14.4896 15.6243 13.2878 16 12 16C10.7122 16 9.51043 15.6243 8.5 14.9775C7.75636 15.4535 6.90887 15.7822 6 15.9229V13.8887C6.69619 13.7308 7.33083 13.4114 7.86328 12.9717L7.93457 12.918C8.29902 12.668 8.79035 12.6859 9.13672 12.9717C9.91504 13.6144 10.9113 14 12 14C13.0887 14 14.085 13.6144 14.8633 12.9717L14.9346 12.918Z" fill="oklch(0.3523 0 0 / 1)" class="wd-icon-accent"></path>
<path d="M7 1.80078C7.02362 1.81665 8.2002 2.61283 8.2002 3.80078C8.19993 4.46323 7.66249 4.99989 7 5C6.33742 5 5.80007 4.4633 5.7998 3.80078C5.7998 2.60682 6.98803 1.80879 7 1.80078Z" fill="oklch(0.3523 0 0 / 1)" class="wd-icon-accent"></path>
<path d="M12 1.80078C12.0236 1.81665 13.2002 2.61283 13.2002 3.80078C13.1999 4.46323 12.6625 4.99989 12 5C11.3374 5 10.8001 4.4633 10.7998 3.80078C10.7998 2.60682 11.988 1.80879 12 1.80078Z" fill="oklch(0.3523 0 0 / 1)" class="wd-icon-accent"></path>
<path d="M17 1.80078C17.0236 1.81665 18.2002 2.61283 18.2002 3.80078C18.1999 4.46323 17.6625 4.99989 17 5C16.3374 5 15.8001 4.4633 15.7998 3.80078C15.7998 2.60682 16.988 1.80879 17 1.80078Z" fill="oklch(0.3523 0 0 / 1)" class="wd-icon-accent"></path>
</g>
</svg>