<svg width="24" height="24" viewBox="0 0 24 24" xmlns="http://www.w3.org/2000/svg" class="wd-icon wd-icon-play-circle" role="presentation">
<g>
<path d="M9.89844 7.93359C10.2224 7.90057 10.6172 8.13055 11.4062 8.59082L14.8809 10.6182C15.6592 11.0722 16.0486 11.2991 16.1797 11.5947C16.294 11.8527 16.294 12.1473 16.1797 12.4053C16.0486 12.7009 15.6592 12.9278 14.8809 13.3818L11.4062 15.4092C10.6172 15.8694 10.2224 16.0994 9.89844 16.0664C9.61592 16.0376 9.35864 15.8897 9.19141 15.6602C8.99988 15.3969 9 14.9402 9 14.0273V9.97363C9 9.06043 8.99984 8.6031 9.19141 8.33984C9.35864 8.11032 9.61592 7.96243 9.89844 7.93359Z" fill="oklch(0.3523 0 0 / 1)" class="wd-icon-fill"></path>
<path d="M12 2C17.5228 2 21.9999 6.47721 22 12C22 17.5228 17.5228 22 12 22C6.47715 22 2 17.5228 2 12C2.00007 6.47721 6.47719 2 12 2ZM12 4C7.58176 4 4.00007 7.58178 4 12C4 16.4183 7.58172 20 12 20C16.4183 20 20 16.4183 20 12C19.9999 7.58178 16.4182 4 12 4Z" fill="oklch(0.3523 0 0 / 1)" class="wd-icon-fill"></path>
</g>
</svg>