<svg width="24" height="24" viewBox="0 0 24 24" xmlns="http://www.w3.org/2000/svg" class="wd-icon wd-icon-clock-check" role="presentation">
<g>
<path d="M10.2441 3.17278C11.9899 2.82554 13.7998 3.0043 15.4443 3.68548C17.0886 4.36669 18.4945 5.52003 19.4833 6.99993C20.4721 8.47991 20.9999 10.22 20.9999 11.9999C20.9999 12.5521 20.5521 12.9999 19.9999 12.9999C19.4477 12.9999 19 12.5522 18.9999 11.9999C18.9999 10.6156 18.5893 9.26232 17.8202 8.11126C17.0511 6.96018 15.9576 6.06296 14.6786 5.53313C13.3997 5.00337 11.9924 4.86471 10.6347 5.1347C9.27683 5.40479 8.0287 6.07077 7.04974 7.04974C6.07077 8.0287 5.40479 9.27683 5.1347 10.6347C4.86471 11.9924 5.00338 13.3997 5.53313 14.6786C6.06296 15.9576 6.96018 17.0511 8.11126 17.8202C9.26232 18.5893 10.6156 18.9999 11.9999 18.9999C12.5522 19 12.9999 19.4477 12.9999 19.9999C12.9999 20.5521 12.5521 20.9999 11.9999 20.9999C10.22 20.9999 8.47991 20.4721 6.99993 19.4833C5.52003 18.4945 4.36669 17.0886 3.68548 15.4443C3.0043 13.7998 2.82554 11.9899 3.17278 10.2441C3.52005 8.49825 4.37701 6.89434 5.63567 5.63567C6.89434 4.37701 8.49825 3.52005 10.2441 3.17278Z" fill="oklch(0.3523 0 0 / 1)" class="wd-icon-fill"></path>
<path d="M11.9999 6.99993C12.4141 6.99996 12.7499 7.33576 12.7499 7.74993V11.6894L15.0302 13.9697C15.3231 14.2625 15.323 14.7373 15.0302 15.0302C14.7373 15.3231 14.2626 15.3231 13.9697 15.0302L11.6161 12.6767C11.3817 12.4423 11.25 12.1244 11.2499 11.7929V7.74993C11.25 7.33574 11.5857 6.99993 11.9999 6.99993Z" fill="oklch(0.3523 0 0 / 1)" class="wd-icon-fill"></path>
</g>
<path d="M20.754 16.5196C21.0192 16.2016 21.4925 16.1588 21.8107 16.4239C22.1285 16.689 22.1712 17.1624 21.9064 17.4805L18.5734 21.4805C18.431 21.6513 18.2195 21.7499 17.9972 21.75C17.7748 21.75 17.5635 21.6513 17.421 21.4805L15.754 19.4805C15.4889 19.1623 15.5316 18.6891 15.8497 18.4239C16.1678 18.159 16.6412 18.2017 16.9064 18.5196L17.9962 19.8282L20.754 16.5196Z" fill="oklch(0.3523 0 0 / 1)" class="wd-icon-accent"></path>
</svg>