<svg width="24" height="24" viewBox="0 0 24 24" xmlns="http://www.w3.org/2000/svg" class="wd-icon wd-icon-accessibility" role="presentation">
<path d="M22 12C22 17.5228 17.5228 22 12 22C6.47715 22 2 17.5228 2 12C2 6.47715 6.47715 2 12 2C17.5228 2 22 6.47715 22 12Z" fill="transparent" class="wd-icon-background"></path>
<path d="M12 1C18.0751 1 23 5.92487 23 12C23 18.0751 18.0751 23 12 23C5.92487 23 1 18.0751 1 12C1 5.92487 5.92487 1 12 1ZM12 3C7.02944 3 3 7.02944 3 12C3 16.9706 7.02944 21 12 21C16.9706 21 21 16.9706 21 12C21 7.02944 16.9706 3 12 3Z" fill="oklch(0.3523 0 0 / 1)" class="wd-icon-fill"></path>
<g>
<path d="M17.0098 7.57324C17.2442 7.42739 17.5559 7.48154 17.7139 7.70801L18.2861 8.52832C18.4441 8.75479 18.3893 9.06783 18.1563 9.21582C16.8017 10.0757 15.254 10.6583 13.5947 10.8887C13.7825 13.564 14.8094 16.0063 16.418 17.9541C16.5937 18.1669 16.5775 18.4818 16.3721 18.666L15.627 19.333C15.4212 19.5172 15.1038 19.501 14.9268 19.2891C13.5784 17.6743 12.5764 15.7601 12.0303 13.6621C11.4841 15.76 10.483 17.6744 9.13478 19.2891C8.95777 19.501 8.64033 19.5172 8.43458 19.333L7.68946 18.666C7.48408 18.4818 7.46785 18.1669 7.64357 17.9541C9.25052 16.0082 10.2766 13.5687 10.4658 10.8965C8.78361 10.6721 7.21484 10.0861 5.84376 9.21582C5.61061 9.06782 5.55587 8.75481 5.71388 8.52832L6.28614 7.70801C6.44413 7.48155 6.75481 7.42739 6.98927 7.57324C8.44336 8.47783 10.1597 9 12 9C13.8401 8.99993 15.5558 8.4776 17.0098 7.57324Z" fill="oklch(0.3523 0 0 / 1)" class="wd-icon-accent"></path>
<path d="M12 4C13.1045 4.00009 14 4.89549 14 6C14 7.10451 13.1045 7.99991 12 8C10.8954 8 10 7.10457 10 6C10 4.89543 10.8954 4 12 4Z" fill="oklch(0.3523 0 0 / 1)" class="wd-icon-accent"></path>
</g>
</svg>