<svg width="24" height="24" viewBox="0 0 24 24" xmlns="http://www.w3.org/2000/svg" class="wd-icon wd-icon-fill-strikethrough" role="presentation">
<g>
<path d="M5.40113 11.7217C5.5549 11.1913 6.10998 10.8854 6.64038 11.0391C7.17066 11.1928 7.47558 11.748 7.32202 12.2783C7.11533 12.9917 6.99978 13.7042 6.99976 14.4004C6.99999 16.8769 9.17238 19 11.9998 19C12.7554 19 13.4686 18.8464 14.1062 18.5732C14.6138 18.356 15.2012 18.5911 15.4187 19.0986C15.6361 19.6062 15.4008 20.1936 14.8933 20.4111C14.0089 20.79 13.0284 21 11.9998 21C8.2 21 4.99998 18.1091 4.99976 14.4004C4.99978 13.4838 5.15177 12.5823 5.40113 11.7217Z" fill="oklch(0.3523 0 0 / 1)" class="wd-icon-fill"></path>
<path d="M11.9998 3C12.2231 3 12.3956 3.07329 12.4519 3.09766C12.5332 3.13284 12.6053 3.17362 12.6599 3.20703C12.7709 3.27495 12.8874 3.35975 12.9998 3.44824C13.2286 3.62858 13.5084 3.87731 13.8162 4.17773C14.4346 4.78148 15.2072 5.63449 15.9636 6.6543C17.4519 8.66076 18.9996 11.4765 18.9998 14.4004C18.9997 15.3359 18.7928 16.2179 18.4265 17.0156L20.7009 19.2891C21.0913 19.6794 21.092 20.3125 20.7019 20.7031C20.3116 21.0934 19.6784 21.094 19.2878 20.7041L3.28394 4.70703C2.89354 4.31664 2.89373 3.68354 3.28394 3.29297C3.67439 2.90251 4.30744 2.90258 4.698 3.29297L8.04566 6.63965C8.79881 5.62603 9.56774 4.77872 10.1834 4.17773C10.4912 3.87725 10.7709 3.62861 10.9998 3.44824C11.1121 3.35971 11.2286 3.27498 11.3396 3.20703C11.3943 3.1736 11.4662 3.13289 11.5476 3.09766C11.6037 3.0734 11.7762 3.00003 11.9998 3ZM11.5798 5.60938C11.0332 6.14302 10.3321 6.91581 9.64234 7.8457C9.5872 7.92004 9.53384 7.99647 9.47925 8.07227L16.864 15.4541C16.952 15.1141 16.9997 14.7611 16.9998 14.4004C16.9996 12.1245 15.7616 9.73907 14.3572 7.8457C13.6674 6.91587 12.9663 6.143 12.4197 5.60938C12.2631 5.45655 12.121 5.32732 11.9998 5.2207C11.8785 5.32736 11.7364 5.45649 11.5798 5.60938Z" fill="oklch(0.3523 0 0 / 1)" class="wd-icon-fill"></path>
</g>
</svg>