<svg width="24" height="24" viewBox="0 0 24 24" xmlns="http://www.w3.org/2000/svg" class="wd-icon wd-icon-computer-chip" role="presentation">
<path d="M15.248 2.5C15.6623 2.5 15.998 2.83579 15.998 3.25V4.02832C16.0848 4.0331 16.1688 4.03731 16.25 4.04395C16.8121 4.08987 17.3291 4.18827 17.8145 4.43555C18.567 4.81902 19.179 5.43109 19.5625 6.18359C19.8098 6.6689 19.9082 7.18599 19.9541 7.74805C19.9607 7.8292 19.964 7.91325 19.9688 8H20.748C21.1623 8 21.498 8.33579 21.498 8.75C21.498 9.16421 21.1623 9.5 20.748 9.5H19.9971C19.9971 9.59772 19.998 9.69764 19.998 9.7998V11.25H20.748C21.1623 11.25 21.498 11.5858 21.498 12C21.498 12.4142 21.1623 12.75 20.748 12.75H19.998V14.2002C19.998 14.3024 19.9971 14.4023 19.9971 14.5H20.748C21.1623 14.5 21.498 14.8358 21.498 15.25C21.498 15.6642 21.1623 16 20.748 16H19.9688C19.964 16.0868 19.9607 16.1708 19.9541 16.252C19.9082 16.814 19.8098 17.3311 19.5625 17.8164C19.179 18.5689 18.567 19.181 17.8145 19.5645C17.3291 19.8117 16.8121 19.9101 16.25 19.9561C16.1689 19.9627 16.0848 19.9659 15.998 19.9707V20.75C15.998 21.1642 15.6623 21.5 15.248 21.5C14.8338 21.5 14.498 21.1642 14.498 20.75V19.998C14.4003 19.9981 14.3004 20 14.1982 20H12.748V20.75C12.748 21.1642 12.4123 21.5 11.998 21.5C11.5838 21.5 11.248 21.1642 11.248 20.75V20H9.79785C9.69569 20 9.59576 19.9981 9.49805 19.998V20.75C9.49805 21.1642 9.16226 21.5 8.74805 21.5C8.33383 21.5 7.99805 21.1642 7.99805 20.75V19.9707C7.9113 19.9659 7.82724 19.9627 7.74609 19.9561C7.18404 19.9101 6.66695 19.8117 6.18164 19.5645C5.42913 19.181 4.81706 18.5689 4.43359 17.8164C4.18632 17.3311 4.08792 16.814 4.04199 16.252C4.03536 16.1708 4.03213 16.0868 4.02734 16H3.24805C2.83383 16 2.49805 15.6642 2.49805 15.25C2.49805 14.8358 2.83383 14.5 3.24805 14.5H3.99902C3.99897 14.4023 3.99805 14.3024 3.99805 14.2002V12.75H3.24805C2.83383 12.75 2.49805 12.4142 2.49805 12C2.49805 11.5858 2.83383 11.25 3.24805 11.25H3.99805V9.7998C3.99805 9.69764 3.99897 9.59772 3.99902 9.5H3.24805C2.83383 9.5 2.49805 9.16421 2.49805 8.75C2.49805 8.33579 2.83383 8 3.24805 8H4.02734C4.03213 7.91325 4.03536 7.8292 4.04199 7.74805C4.08792 7.18599 4.18632 6.6689 4.43359 6.18359C4.81706 5.43109 5.42913 4.81902 6.18164 4.43555C6.66695 4.18827 7.18404 4.08987 7.74609 4.04395C7.82726 4.03731 7.91128 4.0331 7.99805 4.02832V3.25C7.99805 2.83579 8.33383 2.5 8.74805 2.5C9.16226 2.5 9.49805 2.83579 9.49805 3.25V4.00098C9.59576 4.00092 9.69569 4 9.79785 4H11.248V3.25C11.248 2.83579 11.5838 2.5 11.998 2.5C12.4123 2.5 12.748 2.83579 12.748 3.25V4H14.1982C14.3004 4 14.4003 4.00092 14.498 4.00098V3.25C14.498 2.83579 14.8338 2.5 15.248 2.5ZM9.79785 6C8.94146 6 8.35922 6.00035 7.90918 6.03711C7.47076 6.07293 7.24624 6.13808 7.08984 6.21777C6.71359 6.40951 6.40755 6.71554 6.21582 7.0918C6.13613 7.2482 6.07098 7.47272 6.03516 7.91113C5.9984 8.36117 5.99805 8.94341 5.99805 9.7998V14.2002C5.99805 15.0566 5.9984 15.6388 6.03516 16.0889C6.07098 16.5273 6.13613 16.7518 6.21582 16.9082C6.40755 17.2845 6.71359 17.5905 7.08984 17.7822C7.24624 17.8619 7.47076 17.9271 7.90918 17.9629C8.35922 17.9997 8.94146 18 9.79785 18H14.1982C15.0546 18 15.6369 17.9997 16.0869 17.9629C16.5253 17.9271 16.7499 17.8619 16.9062 17.7822C17.2825 17.5905 17.5885 17.2845 17.7803 16.9082C17.86 16.7518 17.9251 16.5273 17.9609 16.0889C17.9977 15.6388 17.998 15.0566 17.998 14.2002V9.7998C17.998 8.94341 17.9977 8.36117 17.9609 7.91113C17.9251 7.47272 17.86 7.2482 17.7803 7.0918C17.5885 6.71554 17.2825 6.40951 16.9062 6.21777C16.7499 6.13808 16.5253 6.07293 16.0869 6.03711C15.6369 6.00035 15.0546 6 14.1982 6H9.79785Z" fill="oklch(0.3523 0 0 / 1)" class="wd-icon-fill"></path>
<path d="M14.248 8C15.2145 8 15.998 8.7835 15.998 9.75V14.25C15.998 15.2165 15.2145 16 14.248 16H9.74805C8.78155 16 7.99805 15.2165 7.99805 14.25V9.75C7.99805 8.7835 8.78155 8 9.74805 8H14.248ZM9.74805 9.5C9.60998 9.5 9.49805 9.61193 9.49805 9.75V14.25C9.49805 14.3881 9.60998 14.5 9.74805 14.5H14.248C14.3861 14.5 14.498 14.3881 14.498 14.25V9.75C14.498 9.61193 14.3861 9.5 14.248 9.5H9.74805Z" fill="oklch(0.3523 0 0 / 1)" class="wd-icon-accent"></path>
</svg>