<svg width="24" height="24" viewBox="0 0 24 24" xmlns="http://www.w3.org/2000/svg" class="wd-icon wd-icon-archive-arrow-down" role="presentation">
<path d="M19.3985 3.00001C19.6618 3.00001 19.9199 2.9989 20.1367 3.01662C20.3652 3.03531 20.635 3.07958 20.9063 3.21779C21.2355 3.38556 21.511 3.64087 21.7031 3.95412L21.7803 4.09181L21.8672 4.29494C21.9387 4.49577 21.9674 4.69007 21.9815 4.86134C21.9992 5.07815 21.9981 5.33624 21.9981 5.59962V6.4004C21.9981 6.66379 21.9992 6.92188 21.9815 7.13869C21.9628 7.36719 21.9185 7.63696 21.7803 7.90822C21.5886 8.28447 21.2825 8.59051 20.9063 8.78224C20.7421 8.86586 20.5781 8.91241 20.4238 8.9424L19.8633 15.6817C19.7999 16.4422 19.7482 17.0706 19.6651 17.5801C19.5799 18.1016 19.4514 18.5778 19.1924 19.0205C18.7887 19.7104 18.1868 20.2634 17.4658 20.6084C17.0032 20.8297 16.518 20.9185 15.9912 20.96C15.4766 21.0005 14.8461 21 14.083 21H9.91701C9.15388 21 8.52338 21.0005 8.0088 20.96C7.48205 20.9185 6.99685 20.8297 6.53419 20.6084C5.81319 20.2634 5.21132 19.7104 4.80763 19.0205C4.54859 18.5778 4.42009 18.1016 4.33498 17.5801C4.25184 17.0706 4.20011 16.4422 4.13673 15.6817L3.57521 8.94337C3.42012 8.91344 3.25503 8.8664 3.08986 8.78224C2.71362 8.59051 2.40756 8.28446 2.21583 7.90822C2.07763 7.63696 2.03336 7.36718 2.01466 7.13869C1.99695 6.92188 1.99806 6.66379 1.99806 6.4004V5.59962C1.99806 5.33624 1.99695 5.07815 2.01466 4.86134C2.03336 4.63284 2.07762 4.36306 2.21583 4.09181C2.40757 3.71556 2.71361 3.40952 3.08986 3.21779C3.36111 3.07958 3.63089 3.03531 3.85939 3.01662C4.0762 2.9989 4.33429 3.00001 4.59767 3.00001H19.3985ZM6.1299 15.5156C6.1959 16.3076 6.2411 16.8441 6.30861 17.2578C6.37409 17.6591 6.44953 17.865 6.53419 18.0098C6.73604 18.3547 7.03697 18.6312 7.39747 18.8037C7.54881 18.8761 7.76048 18.9349 8.16603 18.9668C8.58388 18.9997 9.12249 19 9.91701 19H14.083C14.8775 19 15.4161 18.9997 15.834 18.9668C16.2395 18.9349 16.4512 18.8761 16.6026 18.8037C16.9631 18.6312 17.264 18.3547 17.4658 18.0098C17.5505 17.865 17.6259 17.6591 17.6914 17.2578C17.7589 16.8441 17.8041 16.3076 17.8701 15.5156L18.4141 9.00001H5.58595L6.1299 15.5156ZM4.59767 5.00001C4.3014 5.00001 4.13901 5.00124 4.02248 5.01076C4.01802 5.01112 4.01378 5.01136 4.00978 5.01173C4.00941 5.01573 4.00917 5.01998 4.0088 5.02443C3.99928 5.14096 3.99806 5.30336 3.99806 5.59962V6.4004C3.99806 6.69667 3.99928 6.85907 4.0088 6.9756C4.00914 6.97969 4.00944 6.98361 4.00978 6.98732C4.0138 6.98769 4.01799 6.9889 4.02248 6.98927C4.13901 6.99879 4.3014 7.00001 4.59767 7.00001H19.3985C19.6947 7.00001 19.8571 6.99879 19.9736 6.98927C19.9778 6.98893 19.9816 6.98766 19.9854 6.98732C19.9857 6.98358 19.987 6.97973 19.9873 6.9756C19.9968 6.85907 19.9981 6.69667 19.9981 6.4004V5.59962C19.9981 5.30336 19.9968 5.14096 19.9873 5.02443C19.9869 5.01994 19.9857 5.01576 19.9854 5.01173C19.9817 5.01139 19.9777 5.01109 19.9736 5.01076C19.8571 5.00124 19.6947 5.00001 19.3985 5.00001H4.59767Z" fill="oklch(0.3523 0 0 / 1)" class="wd-icon-fill"></path>
<path d="M11.9979 10.25C12.4119 10.2502 12.7478 10.586 12.7479 11V15.1895L14.4676 13.4697C14.7604 13.1772 15.2353 13.1771 15.5281 13.4697C15.8208 13.7625 15.8207 14.2374 15.5281 14.5303L12.5281 17.5303C12.2353 17.823 11.7604 17.823 11.4676 17.5303L8.46758 14.5303C8.17486 14.2374 8.17488 13.7626 8.46758 13.4697C8.76045 13.1771 9.23529 13.177 9.52813 13.4697L11.2479 15.1895V11C11.2479 10.586 11.5838 10.2502 11.9979 10.25Z" fill="oklch(0.3523 0 0 / 1)" class="wd-icon-accent"></path>
</svg>