<svg width="24" height="24" viewBox="0 0 24 24" xmlns="http://www.w3.org/2000/svg" class="wd-icon wd-icon-document-stack" role="presentation">
<g>
<path d="M5.5 4C5.77614 4 6 4.22386 6 4.5V21H17.5C17.7761 21 18 21.2239 18 21.5V22.5C18 22.7761 17.7761 23 17.5 23H5.5C4.67157 23 4 22.3284 4 21.5V4.5C4 4.22386 4.22386 4 4.5 4H5.5Z" fill="oklch(0.3523 0 0 / 1)" class="wd-icon-fill"></path>
<path d="M16.5 13C16.7761 13 17 13.2239 17 13.5V14.5C17 14.7761 16.7761 15 16.5 15H11.5C11.2239 15 11 14.7761 11 14.5V13.5C11 13.2239 11.2239 13 11.5 13H16.5Z" fill="oklch(0.3523 0 0 / 1)" class="wd-icon-fill"></path>
<path d="M16.5 10C16.7761 10 17 10.2239 17 10.5V11.5C17 11.7761 16.7761 12 16.5 12H11.5C11.2239 12 11 11.7761 11 11.5V10.5C11 10.2239 11.2239 10 11.5 10H16.5Z" fill="oklch(0.3523 0 0 / 1)" class="wd-icon-fill"></path>
<path d="M15.5 5C15.7761 5 16 5.22386 16 5.5V6.5C16 6.77614 15.7761 7 15.5 7H12.5C12.2239 7 12 6.77614 12 6.5V5.5C12 5.22386 12.2239 5 12.5 5H15.5Z" fill="oklch(0.3523 0 0 / 1)" class="wd-icon-fill"></path>
<path d="M19.5 1C20.3284 1 21 1.67157 21 2.5V18.5C21 19.3284 20.3284 20 19.5 20H8.5C7.67157 20 7 19.3284 7 18.5V2.5C7 1.67157 7.67157 1 8.5 1H19.5ZM9 18H19V3H9V18Z" fill="oklch(0.3523 0 0 / 1)" class="wd-icon-fill"></path>
</g>
</svg>