<svg width="24" height="24" viewBox="0 0 24 24" xmlns="http://www.w3.org/2000/svg" class="wd-icon wd-icon-calendar-day-26" role="presentation">
<g>
<path d="M15.2158 10.3994C15.625 10.3995 15.9933 10.4804 16.3115 10.6523C16.6229 10.8148 16.8758 11.0388 17.0625 11.3223C17.2433 11.597 17.3613 11.8973 17.415 12.2197L17.4639 12.5107H16.0264L15.9873 12.3086C15.9484 12.1092 15.8634 11.9518 15.7354 11.8281L15.7314 11.8252C15.6287 11.7225 15.4717 11.6553 15.2246 11.6553C14.908 11.6553 14.6427 11.8052 14.4209 12.166L14.4199 12.165C14.2815 12.3926 14.1767 12.7039 14.1123 13.1055C14.1543 13.0731 14.1979 13.0418 14.2432 13.0127C14.5422 12.8205 14.8942 12.7305 15.2871 12.7305C15.72 12.7305 16.1131 12.8376 16.457 13.0576C16.7952 13.2741 17.0537 13.5671 17.2295 13.9307C17.4099 14.2918 17.499 14.6878 17.499 15.1133C17.499 15.5344 17.4058 15.9319 17.2207 16.3027L17.2217 16.3037C17.0384 16.6769 16.7627 16.9785 16.4014 17.2061L16.3984 17.208C16.0286 17.4339 15.5946 17.541 15.1074 17.541C14.6012 17.541 14.148 17.412 13.7598 17.1465L13.7588 17.1455C13.3768 16.8795 13.0905 16.4984 12.8955 16.0176C12.7009 15.531 12.6075 14.9594 12.6074 14.3125C12.6074 13.5854 12.6936 12.9298 12.8701 12.3496L12.8711 12.3477C13.0554 11.7631 13.3372 11.2887 13.7256 10.9404L13.8818 10.8125C14.2573 10.5349 14.7063 10.3994 15.2158 10.3994ZM15.1074 13.9688C14.9041 13.9688 14.7318 14.0174 14.583 14.1104C14.4335 14.2038 14.3133 14.3346 14.2246 14.5107C14.1417 14.6816 14.0977 14.8843 14.0977 15.1221C14.0977 15.346 14.1416 15.5467 14.2266 15.7266C14.3153 15.9019 14.4352 16.0363 14.5859 16.1357C14.735 16.2282 14.9039 16.2764 15.0986 16.2764C15.3092 16.2763 15.4751 16.2268 15.6074 16.1387C15.7537 16.0393 15.8651 15.9072 15.9424 15.7383L15.9434 15.7354L15.999 15.5967C16.0472 15.4532 16.0722 15.2952 16.0723 15.1221C16.0722 14.7548 15.9746 14.4806 15.7998 14.2773L15.7959 14.2725C15.6321 14.0724 15.412 13.9688 15.1074 13.9688Z" fill="oklch(0.3523 0 0 / 1)" class="wd-icon-fill"></path>
<path d="M9.08008 10.3721C9.54186 10.3721 9.95231 10.4619 10.3018 10.6523C10.6519 10.8342 10.9236 11.0888 11.1055 11.416L11.1709 11.5381C11.3121 11.8267 11.3818 12.1405 11.3818 12.4756C11.3818 12.8363 11.3051 13.1845 11.1523 13.5166C11.0043 13.8384 10.8089 14.1427 10.5674 14.4287L10.5664 14.4277C10.337 14.7005 10.0487 15.0006 9.70313 15.3281L9.45215 15.5723L9.4502 15.5732L8.87891 16.1143H10.8174C11.169 16.1144 11.4541 16.3993 11.4541 16.751C11.4541 17.1027 11.169 17.3875 10.8174 17.3877H7.4668C7.04696 17.3877 6.7062 17.0477 6.70606 16.6279C6.70606 16.4199 6.7918 16.2207 6.94238 16.0772L8.50293 14.5898L8.50391 14.5889L8.81836 14.292C9.05705 14.0471 9.25605 13.825 9.41602 13.625L9.41895 13.6211C9.58126 13.4251 9.70699 13.2296 9.79883 13.0352C9.88654 12.8435 9.92773 12.6573 9.92774 12.4756C9.92764 12.1941 9.84484 12.0016 9.70117 11.8662L9.69824 11.8633C9.54659 11.7161 9.35023 11.6367 9.08887 11.6367C8.88768 11.6368 8.72367 11.6822 8.58789 11.7637C8.44632 11.8486 8.33581 11.9628 8.25488 12.1104C8.22972 12.1563 8.20791 12.2038 8.18946 12.2529C8.07988 12.5446 7.80952 12.8613 7.40821 12.8613C7.01806 12.8611 6.61537 12.5173 6.74317 12.0537C6.79749 11.8568 6.87811 11.6693 6.98438 11.4922L6.98535 11.4912C7.19467 11.1469 7.48229 10.8741 7.84278 10.6738C8.20862 10.4706 8.62336 10.3721 9.08008 10.3721Z" fill="oklch(0.3523 0 0 / 1)" class="wd-icon-fill"></path>
<path d="M16.2012 2C17.0247 2 17.7026 1.99898 18.2529 2.04395C18.815 2.08988 19.3321 2.18828 19.8174 2.43555C20.5699 2.81902 21.182 3.43109 21.5654 4.1836C21.8127 4.6689 21.9111 5.18599 21.957 5.74805C22.002 6.29843 22.001 6.97632 22.001 7.79981V16.2002C22.001 17.0237 22.002 17.7016 21.957 18.252C21.9111 18.814 21.8127 19.3311 21.5654 19.8164C21.182 20.5689 20.5699 21.181 19.8174 21.5645C19.3321 21.8117 18.815 21.9101 18.2529 21.9561C17.7026 22.001 17.0247 22 16.2012 22H7.80078C6.9773 22 6.2994 22.001 5.74903 21.9561C5.18697 21.9101 4.66988 21.8117 4.18457 21.5645C3.43207 21.181 2.81999 20.5689 2.43653 19.8164C2.18925 19.3311 2.09085 18.814 2.04492 18.252C1.99996 17.7016 2.00098 17.0237 2.00098 16.2002V7.79981C2.00098 6.97632 1.99996 6.29843 2.04492 5.74805C2.09085 5.18599 2.18925 4.6689 2.43653 4.1836C2.81999 3.43109 3.43207 2.81902 4.18457 2.43555C4.66988 2.18827 5.18697 2.08988 5.74903 2.04395C6.2994 1.99898 6.9773 2 7.80078 2H16.2012ZM4.00098 16.2002C4.00098 17.0566 4.00133 17.6388 4.03809 18.0889C4.07391 18.5273 4.13906 18.7518 4.21875 18.9082C4.41049 19.2845 4.71652 19.5905 5.09278 19.7822C5.24917 19.8619 5.4737 19.9271 5.91211 19.9629C6.36215 19.9997 6.9444 20 7.80078 20H16.2012C17.0576 20 17.6398 19.9997 18.0898 19.9629C18.5283 19.9271 18.7528 19.8619 18.9092 19.7822C19.2854 19.5905 19.5915 19.2845 19.7832 18.9082C19.8629 18.7518 19.928 18.5273 19.9639 18.0889C20.0006 17.6388 20.001 17.0566 20.001 16.2002V8H4.00098V16.2002Z" fill="oklch(0.3523 0 0 / 1)" class="wd-icon-fill"></path>
</g>
</svg>