<svg width="24" height="24" viewBox="0 0 24 24" xmlns="http://www.w3.org/2000/svg" class="wd-icon wd-icon-check-in" role="presentation">
<g>
<path d="M16.1963 6C17.0198 6 17.6977 5.99898 18.248 6.04395C18.8101 6.08987 19.3272 6.18827 19.8125 6.43555C20.565 6.81902 21.1771 7.43109 21.5605 8.18359C21.8078 8.6689 21.9062 9.18599 21.9522 9.74805C21.9971 10.2984 21.9961 10.9763 21.9961 11.7998V16.2002C21.9961 17.0237 21.9971 17.7016 21.9522 18.252C21.9062 18.814 21.8078 19.3311 21.5605 19.8164C21.1771 20.5689 20.565 21.181 19.8125 21.5645C19.3272 21.8117 18.8101 21.9101 18.248 21.9561C17.6977 22.001 17.0198 22 16.1963 22H7.7959C6.97241 22 6.29452 22.001 5.74414 21.9561C5.18209 21.9101 4.66499 21.8117 4.17969 21.5645C3.42718 21.181 2.81511 20.5689 2.43164 19.8164C2.18437 19.3311 2.08597 18.814 2.04004 18.252C1.99507 17.7016 1.9961 17.0237 1.9961 16.2002V11.7998C1.9961 10.9763 1.99507 10.2984 2.04004 9.74805C2.08597 9.18599 2.18437 8.6689 2.43164 8.18359C2.81511 7.43109 3.42718 6.81902 4.17969 6.43555C4.66499 6.18827 5.18209 6.08987 5.74414 6.04395C6.29452 5.99898 6.97241 6 7.7959 6H16.1963ZM7.7959 8C6.93951 8 6.35727 8.00035 5.90723 8.03711C5.46881 8.07293 5.24429 8.13808 5.08789 8.21777C4.71164 8.40951 4.4056 8.71554 4.21387 9.0918C4.13418 9.2482 4.06902 9.47272 4.03321 9.91113C3.99644 10.3612 3.9961 10.9434 3.9961 11.7998V16.2002C3.9961 17.0566 3.99644 17.6388 4.03321 18.0889C4.06902 18.5273 4.13418 18.7518 4.21387 18.9082C4.4056 19.2845 4.71164 19.5905 5.08789 19.7822C5.24429 19.8619 5.46881 19.9271 5.90723 19.9629C6.35727 19.9997 6.93951 20 7.7959 20H16.1963C17.0527 20 17.6349 19.9997 18.085 19.9629C18.5234 19.9271 18.7479 19.8619 18.9043 19.7822C19.2806 19.5905 19.5866 19.2845 19.7783 18.9082C19.858 18.7518 19.9232 18.5273 19.959 18.0889C19.9957 17.6388 19.9961 17.0566 19.9961 16.2002V11.7998C19.9961 10.9434 19.9957 10.3612 19.959 9.91113C19.9232 9.47272 19.858 9.2482 19.7783 9.0918C19.5866 8.71554 19.2806 8.40951 18.9043 8.21777C18.7479 8.13808 18.5234 8.07293 18.085 8.03711C17.6349 8.00035 17.0527 8 16.1963 8H7.7959Z" fill="oklch(0.3523 0 0 / 1)" class="wd-icon-fill"></path>
<path d="M17.9961 2.25C18.4103 2.25 18.7461 2.58579 18.7461 3C18.7461 3.41421 18.4103 3.75 17.9961 3.75H5.9961C5.58188 3.75 5.2461 3.41421 5.2461 3C5.2461 2.58579 5.58188 2.25 5.9961 2.25H17.9961Z" fill="oklch(0.3523 0 0 / 1)" class="wd-icon-fill"></path>
</g>
<path d="M12 9C12.4142 9 12.75 9.33579 12.75 9.75V13.6895L15.0303 15.9697C15.3232 16.2626 15.3232 16.7374 15.0303 17.0303C14.7374 17.3232 14.2626 17.3232 13.9697 17.0303L11.6162 14.6768C11.3818 14.4424 11.25 14.1245 11.25 13.793V9.75C11.25 9.33579 11.5858 9 12 9Z" fill="oklch(0.3523 0 0 / 1)" class="wd-icon-accent"></path>
</svg>