<svg width="24" height="24" viewBox="0 0 24 24" xmlns="http://www.w3.org/2000/svg" class="wd-icon wd-icon-folder-open" role="presentation">
<path d="M7.60645 3.00002C8.05744 3.00002 8.39046 2.99761 8.71973 3.04982C9.0803 3.10705 9.43194 3.2128 9.76367 3.36525C10.0666 3.50455 10.3425 3.69207 10.7178 3.9424L11.3457 4.36135C11.8235 4.68009 11.965 4.77036 12.1084 4.83302C12.2522 4.89581 12.4031 4.9412 12.5576 4.96877C12.7118 4.99625 12.8794 5.00002 13.4541 5.00002H16.2022C17.0256 5.00002 17.7036 4.999 18.2539 5.04396C18.8159 5.08989 19.3331 5.18834 19.8184 5.43556C20.5708 5.81901 21.1829 6.43118 21.5664 7.18361C21.7369 7.51818 21.835 7.86819 21.8955 8.23732C22.0284 8.28687 22.1592 8.34719 22.2861 8.42287C22.9084 8.7939 23.3761 9.37788 23.6016 10.0664C23.7554 10.5365 23.7416 11.009 23.6797 11.4697C23.6188 11.9224 23.4937 12.473 23.3477 13.1221L22.8184 15.4736C22.6712 16.1278 22.5494 16.6707 22.416 17.1104C22.279 17.5622 22.1112 17.9698 21.8408 18.3438C21.4165 18.9304 20.8413 19.3916 20.1758 19.6768C19.7516 19.8586 19.3166 19.9323 18.8457 19.9668C18.3874 20.0004 17.8308 20 17.1602 20H7.80176C6.97835 20 6.30035 20.001 5.75 19.9561C5.18801 19.9101 4.67081 19.8117 4.18555 19.5645C3.4331 19.181 2.82095 18.5689 2.4375 17.8164C2.19027 17.3312 2.09183 16.814 2.0459 16.252C2.00094 15.7016 2.00195 15.0236 2.00196 14.2002V8.60451C2.00195 7.87122 2.00123 7.26722 2.03711 6.77541C2.07373 6.27375 2.15203 5.8104 2.34961 5.36818C2.75137 4.46903 3.47096 3.74942 4.37012 3.34767C4.81232 3.15012 5.2757 3.07179 5.77735 3.03517C6.26915 2.9993 6.87318 3.00002 7.60645 3.00002ZM7.78028 10C7.31781 10 7.01068 10.0002 6.77149 10.0176C6.54176 10.0343 6.42499 10.0647 6.34278 10.0996C6.13653 10.1873 5.95702 10.3293 5.82422 10.5098C5.77144 10.5817 5.71554 10.6882 5.64649 10.9072C5.57441 11.136 5.50307 11.4358 5.39649 11.8858L4.66211 14.9854C4.49986 15.6704 4.39056 16.1374 4.33789 16.499C4.2862 16.8543 4.30412 17.0237 4.33789 17.1299C4.43019 17.4191 4.62551 17.6649 4.88574 17.8213C4.98136 17.8787 5.14124 17.9353 5.49903 17.9668C5.8631 17.9989 6.34258 18 7.04688 18H17.1602C17.8597 18 18.3309 17.9997 18.6992 17.9727C19.055 17.9466 19.246 17.8986 19.3877 17.8379C19.7204 17.6953 20.0085 17.4652 20.2207 17.1719C20.311 17.047 20.3995 16.8713 20.5029 16.5303C20.6101 16.1769 20.7136 15.7168 20.8672 15.0342L21.3965 12.6826C21.5505 11.9981 21.6509 11.5482 21.6973 11.2031C21.7426 10.8661 21.7177 10.742 21.7002 10.6885C21.625 10.4592 21.469 10.2642 21.2617 10.1406C21.2327 10.1234 21.1792 10.1008 21.0693 10.0772C20.9851 10.0602 20.8812 10.0447 20.751 10.0332C20.3869 10.0011 19.9074 10 19.2031 10H7.78028ZM7.60645 5.00002C6.84392 5.00002 6.32504 5.00095 5.92285 5.03029C5.53114 5.05889 5.32818 5.11064 5.18653 5.17385C4.73697 5.37471 4.37667 5.73504 4.17578 6.18459C4.11257 6.32624 4.06084 6.52916 4.03223 6.92092C4.00289 7.32311 4.00196 7.84195 4.00196 8.60451V11.2676C4.0766 10.9556 4.14377 10.6847 4.21582 10.4561C4.31092 10.1544 4.42829 9.87675 4.61621 9.62111C4.90857 9.22359 5.30265 8.91164 5.75684 8.71877C6.0491 8.59472 6.34646 8.54452 6.66211 8.5215C6.96837 8.49919 7.33927 8.50002 7.78028 8.50002H19.2031C19.4553 8.50002 19.6908 8.50096 19.9102 8.50295C19.8753 8.31537 19.8341 8.18988 19.7842 8.09181C19.5925 7.71563 19.2863 7.40951 18.9102 7.21779C18.7538 7.13813 18.5291 7.07294 18.0908 7.03713C17.6408 7.00038 17.0584 7.00002 16.2022 7.00002H13.4541C12.9482 7.00002 12.5744 7.00321 12.2061 6.93752C11.8971 6.88236 11.5953 6.79166 11.3076 6.66603C10.9648 6.51626 10.6562 6.30612 10.2354 6.02541L9.60742 5.60646C9.18128 5.32218 9.05548 5.24092 8.92871 5.18263C8.76281 5.10637 8.58659 5.05305 8.40625 5.02443C8.26855 5.00263 8.11829 5.00002 7.60645 5.00002Z" fill="oklch(0.3523 0 0 / 1)" class="wd-icon-fill"></path>
</svg>