<svg width="24" height="24" viewBox="0 0 24 24" xmlns="http://www.w3.org/2000/svg" class="wd-icon wd-icon-save-as" role="presentation">
<path d="M16.793 3C17.1908 3.00002 17.5722 3.15817 17.8535 3.43945L20.5605 6.14648C20.8418 6.42777 21 6.80923 21 7.20703V8.5C21 8.77614 20.7761 9 20.5 9H19.5C19.2239 9 19 8.77614 19 8.5V7.41406L17 5.41406V7.5C17 8.32843 16.3284 9 15.5 9H8.5C7.67157 9 7 8.32843 7 7.5V5H5V19H7V12.5C7 11.6716 7.67157 11 8.5 11H14.5C14.7761 11 15 11.2239 15 11.5V12.5C15 12.7761 14.7761 13 14.5 13H9V19.5C9 20.3284 8.32843 21 7.5 21H4.5C3.67157 21 3 20.3284 3 19.5V4.5C3 3.67157 3.67157 3 4.5 3H16.793ZM9 7H15V5H9V7Z" fill="oklch(0.3523 0 0 / 1)" class="wd-icon-fill"></path>
<path d="M19.499 11C20.3946 10.9989 21.2942 11.3411 21.9785 12.0254C22.6626 12.7097 23.0041 13.6094 23.0029 14.5049C23.0025 14.7696 22.8973 15.0238 22.71 15.2109L15.207 22.707C15.0195 22.8944 14.7651 23 14.5 23H12C11.4478 23 11.0001 22.5522 11 22V19.5C11 19.2348 11.1055 18.9805 11.293 18.793L18.793 11.293L18.8662 11.2266C19.0438 11.081 19.2674 11.0003 19.499 11ZM13 19.9141V21H14.085L18.3369 16.751L17.249 15.6631L13 19.9141ZM18.6631 14.249L19.751 15.3369L20.9561 14.1348C20.8924 13.8799 20.7629 13.6389 20.5635 13.4395C20.3637 13.2398 20.1225 13.1094 19.8672 13.0459L18.6631 14.249Z" fill="oklch(0.3523 0 0 / 1)" class="wd-icon-accent"></path>
</svg>