<svg width="24" height="24" viewBox="0 0 24 24" xmlns="http://www.w3.org/2000/svg" class="wd-icon wd-icon-proxy-user" role="presentation">
<g>
<path d="M12 12C15.6266 12 18.9441 13.3331 21.4863 15.5342C21.8199 15.823 22 16.2376 22 16.6611V20.5C22 21.3284 21.3284 22 20.5 22H3.5C2.72334 22 2.08461 21.4097 2.00781 20.6533L2 20.5V16.6611L2.00879 16.5029C2.04773 16.1358 2.2218 15.7869 2.51367 15.5342L2.99902 15.1318C5.47159 13.1717 8.59996 12 12 12ZM12 20H20V16.8984C17.8315 15.0895 15.0448 14 12 14V20Z" fill="oklch(0.3523 0 0 / 1)" class="wd-icon-fill"></path>
<path d="M12 1C14.7614 1 17 3.23858 17 6C17 8.76142 14.7614 11 12 11C9.23858 11 7 8.76142 7 6C7 3.23858 9.23858 1 12 1ZM12 9C13.6569 9 15 7.65685 15 6C15 4.34315 13.6569 3 12 3V9Z" fill="oklch(0.3523 0 0 / 1)" class="wd-icon-fill"></path>
</g>
</svg>