<svg width="24" height="24" viewBox="0 0 24 24" xmlns="http://www.w3.org/2000/svg" class="wd-icon wd-icon-mail-open" role="presentation">
<g>
<path d="M11.2501 9.25C11.6643 9.25 12.0001 9.58579 12.0001 10C12.0001 10.4142 11.6643 10.75 11.2501 10.75H9.75007C9.33585 10.75 9.00007 10.4142 9.00007 10C9.00007 9.58579 9.33585 9.25 9.75007 9.25H11.2501Z" fill="oklch(0.3523 0 0 / 1)" class="wd-icon-fill"></path>
<path d="M14.2501 6.25C14.6643 6.25 15.0001 6.58579 15.0001 7C15.0001 7.41421 14.6643 7.75 14.2501 7.75H9.75007C9.33585 7.75 9.00007 7.41421 9.00007 7C9.00007 6.58579 9.33585 6.25 9.75007 6.25H14.2501Z" fill="oklch(0.3523 0 0 / 1)" class="wd-icon-fill"></path>
<path d="M16.0001 2C17.6569 2 19.0001 3.34315 19.0001 5V5.58594L20.3008 6.88672C20.7859 7.37177 21.1485 7.72538 21.4102 8.15234C21.6295 8.51017 21.7917 8.90053 21.8897 9.30859C22.0067 9.79571 22.0001 10.3021 22.0001 10.9883V15.2002C22.0001 16.0237 22.0011 16.7016 21.9561 17.252C21.9102 17.814 21.8118 18.3311 21.5645 18.8164C21.1811 19.5689 20.569 20.181 19.8165 20.5645C19.3312 20.8117 18.8141 20.9101 18.252 20.9561C17.7016 21.001 17.0238 21 16.2003 21H7.79987C6.97638 21 6.29849 21.001 5.74811 20.9561C5.18606 20.9101 4.66897 20.8117 4.18366 20.5645C3.43116 20.181 2.81908 19.5689 2.43561 18.8164C2.18834 18.3311 2.08994 17.814 2.04401 17.252C1.99905 16.7016 2.00007 16.0237 2.00007 15.2002V10.9883C2.00007 10.3021 1.99347 9.79571 2.11042 9.30859C2.20841 8.90053 2.37063 8.51017 2.58991 8.15234C2.85164 7.72538 3.21424 7.37177 3.69929 6.88672L5.00007 5.58594V5C5.00007 3.34315 6.34321 2 8.00007 2H16.0001ZM9.30964 14.751L5.22175 18.8379C5.37161 18.8919 5.58052 18.9359 5.9112 18.9629C6.36124 18.9997 6.94348 19 7.79987 19H16.2003C17.0567 19 17.6389 18.9997 18.0889 18.9629C18.419 18.9359 18.6276 18.8918 18.7774 18.8379L14.6905 14.751H9.30964ZM4.00007 15.2002C4.00007 16.0566 4.00042 16.6388 4.03718 17.0889C4.06412 17.4187 4.10735 17.6276 4.1612 17.7773L7.66413 14.2734L4.00007 12.0752V15.2002ZM16.335 14.2744L19.838 17.7773C19.8919 17.6275 19.936 17.4189 19.963 17.0889C19.9997 16.6388 20.0001 16.0566 20.0001 15.2002V12.0752L16.335 14.2744ZM8.00007 4C7.44778 4 7.00007 4.44772 7.00007 5V12.125L8.87507 13.251H15.1251L17.0001 12.125V5C17.0001 4.44772 16.5524 4 16.0001 4H8.00007ZM5.00007 8.41406C4.53879 8.87681 4.39641 9.03187 4.29499 9.19727C4.18541 9.37608 4.10474 9.57147 4.05573 9.77539C4.02469 9.9047 4.01206 10.044 4.00593 10.3291L5.00007 10.9248V8.41406ZM19.0001 10.9248L19.9932 10.3291C19.9871 10.044 19.9754 9.9047 19.9444 9.77539C19.8954 9.57147 19.8147 9.37608 19.7051 9.19727C19.6037 9.03187 19.4613 8.87681 19.0001 8.41406V10.9248Z" fill="oklch(0.3523 0 0 / 1)" class="wd-icon-fill"></path>
</g>
</svg>