<svg width="24" height="24" viewBox="0 0 24 24" xmlns="http://www.w3.org/2000/svg" class="wd-icon wd-icon-word" role="presentation">
<g>
<path d="M20.5 1C21.3284 1 22 1.67157 22 2.5V21.5C22 22.3284 21.3284 23 20.5 23H7.5C6.67167 22.9999 6 22.3284 6 21.5V19.5C6 19.2239 6.22396 19.0001 6.5 19H7.5C7.77614 19 8 19.2239 8 19.5V21H20V3H8V4.5C8 4.77614 7.77614 5 7.5 5H6.5C6.22396 4.99988 6 4.77607 6 4.5V2.5C6 1.67165 6.67168 1.00012 7.5 1H20.5Z" fill="oklch(0.3523 0 0 / 1)" class="wd-icon-fill"></path>
<path d="M2.80078 6.99023C3.03215 6.99027 3.23335 7.14901 3.28711 7.37402L4.7832 13.6543H4.81152L6.22461 7.37988C6.27612 7.15197 6.4792 6.99023 6.71289 6.99023H8.28613C8.52016 6.99026 8.72327 7.15252 8.77441 7.38086L10.1738 13.6543H10.2021L11.6846 7.375C11.7379 7.14961 11.9393 6.99042 12.1709 6.99023H13.4316C13.7587 6.99047 13.9973 7.29963 13.915 7.61621L11.5723 16.626C11.515 16.8463 11.3165 16.9999 11.0889 17H9.40723C9.17089 17 8.9668 16.8347 8.91797 16.6035L7.48535 9.80762H7.45703L6.03808 16.6025C5.98962 16.8342 5.78552 17 5.54883 17H3.86914C3.64121 17 3.44182 16.8457 3.38476 16.625L1.05469 7.61523C0.973007 7.29877 1.21219 6.99023 1.53906 6.99023H2.80078Z" fill="oklch(0.3523 0 0 / 1)" class="wd-icon-fill"></path>
<path d="M18.5 15C18.7761 15 19 15.2239 19 15.5V16.5C19 16.7761 18.7761 17 18.5 17H14.5C14.224 16.9999 14 16.7761 14 16.5V15.5C14 15.2239 14.224 15.0001 14.5 15H18.5Z" fill="oklch(0.3523 0 0 / 1)" class="wd-icon-fill"></path>
<path d="M18.5 12C18.7761 12 19 12.2239 19 12.5V13.5C19 13.7761 18.7761 14 18.5 14H15.25C14.974 13.9999 14.75 13.7761 14.75 13.5V12.5C14.75 12.2239 14.974 12.0001 15.25 12H18.5Z" fill="oklch(0.3523 0 0 / 1)" class="wd-icon-fill"></path>
<path d="M18.5 9C18.7761 9 19 9.22386 19 9.5V10.5C19 10.7761 18.7761 11 18.5 11H16C15.724 10.9999 15.5 10.7761 15.5 10.5V9.5C15.5 9.22393 15.724 9.00012 16 9H18.5Z" fill="oklch(0.3523 0 0 / 1)" class="wd-icon-fill"></path>
<path d="M18.5 6C18.7761 6 19 6.22386 19 6.5V7.5C19 7.77614 18.7761 8 18.5 8H16.75C16.474 7.99988 16.25 7.77607 16.25 7.5V6.5C16.25 6.22393 16.474 6.00012 16.75 6H18.5Z" fill="oklch(0.3523 0 0 / 1)" class="wd-icon-fill"></path>
</g>
</svg>