<svg width="24" height="24" viewBox="0 0 24 24" xmlns="http://www.w3.org/2000/svg" class="wd-icon wd-icon-cloud-search" role="presentation">
<g>
<path d="M14 14.5C15.3807 14.5 16.5 15.6193 16.5 17C16.5 18.3807 15.3807 19.5 14 19.5C12.6193 19.5 11.5 18.3807 11.5 17C11.5 15.6193 12.6193 14.5 14 14.5Z" fill="transparent" class="wd-icon-background"></path>
<path d="M9.5 6C10.6619 6 11.6918 6.566 12.3301 7.44141C12.7114 7.964 13.3611 8.18889 13.9639 8.05762C14.1356 8.02017 14.3151 8 14.5 8C15.7494 8 16.7856 8.91782 16.9697 10.1162C17.0464 10.615 17.4762 11 18 11C19.6569 11 21 12.3431 21 14C21 14.548 20.8542 15.0589 20.5996 15.499C20.3445 15.9401 20.464 16.4945 20.8594 16.7949C20.1331 17.5378 19.121 18 18 18H17.8711C17.9538 17.6803 18 17.3456 18 17C18 14.7909 16.2091 13 14 13C11.7909 13 10 14.7909 10 17C10 17.3453 10.0437 17.6804 10.126 18H8C8 17.4477 7.55228 17 7 17H6C4.34315 17 3 15.6569 3 14C3 12.7105 3.81443 11.6091 4.95996 11.1855C5.59776 10.9496 6.02999 10.3245 6.00293 9.62793C6.00127 9.58525 6 9.54262 6 9.5C6 7.567 7.567 6 9.5 6Z" fill="transparent" class="wd-icon-background"></path>
</g>
<path d="M9.5 4C11.2345 4 12.7788 4.8054 13.7852 6.05664C14.0185 6.01932 14.2573 6 14.5 6C16.4813 6 18.1604 7.28002 18.7617 9.05762C21.1616 9.42445 23 11.4976 23 14C23 14.9091 22.7561 15.7645 22.3301 16.501C22.0534 16.9788 21.4418 17.1417 20.9639 16.8652C20.4861 16.5886 20.3231 15.977 20.5996 15.499C20.8542 15.0589 21 14.548 21 14C21 12.3431 19.6569 11 18 11C17.4762 11 17.0464 10.615 16.9697 10.1162C16.7856 8.91782 15.7494 8 14.5 8C14.3151 8 14.1356 8.02017 13.9639 8.05762C13.3611 8.18889 12.7114 7.964 12.3301 7.44141C11.6918 6.566 10.6619 6 9.5 6C7.567 6 6 7.567 6 9.5C6 9.54262 6.00127 9.58525 6.00293 9.62793C6.02999 10.3245 5.59776 10.9496 4.95996 11.1855C3.81443 11.6091 3 12.7105 3 14C3 15.6569 4.34315 17 6 17H7C7.55228 17 8 17.4477 8 18C8 18.5523 7.55228 19 7 19H6C3.23858 19 1 16.7614 1 14C1 11.9478 2.23678 10.1887 4.00195 9.41797C4.04582 6.41823 6.48983 4 9.5 4Z" fill="oklch(0.3523 0 0 / 1)" class="wd-icon-fill"></path>
<path d="M14 13C16.2091 13 18 14.7909 18 17C18 17.8334 17.7437 18.6064 17.3076 19.2471L18.7803 20.7197C19.0731 21.0126 19.0731 21.4874 18.7803 21.7803C18.4874 22.073 18.0126 22.0731 17.7197 21.7803L16.2471 20.3076C15.6064 20.7437 14.8334 21 14 21C11.7909 21 10 19.2091 10 17C10 14.7909 11.7909 13 14 13ZM14 14.5C12.6193 14.5 11.5 15.6193 11.5 17C11.5 18.3807 12.6193 19.5 14 19.5C15.3807 19.5 16.5 18.3807 16.5 17C16.5 15.6193 15.3807 14.5 14 14.5Z" fill="oklch(0.3523 0 0 / 1)" class="wd-icon-accent"></path>
</svg>