<svg width="24" height="24" viewBox="0 0 24 24" xmlns="http://www.w3.org/2000/svg" class="wd-icon wd-icon-operator" role="presentation">
<g>
<path d="M17 18.75C17.6904 18.75 18.25 19.3096 18.25 20C18.25 20.6904 17.6904 21.25 17 21.25C16.3096 21.25 15.75 20.6904 15.75 20C15.75 19.3096 16.3096 18.75 17 18.75Z" fill="oklch(0.3523 0 0 / 1)" class="wd-icon-fill"></path>
<path d="M8.93457 13.6465C9.12984 13.4513 9.44636 13.4513 9.6416 13.6465L10.3486 14.3535C10.5438 14.5488 10.5438 14.8653 10.3486 15.0605L8.40918 17L10.3486 18.9395C10.5438 19.1347 10.5438 19.4512 10.3486 19.6465L9.6416 20.3535C9.44636 20.5487 9.12984 20.5487 8.93457 20.3535L6.99512 18.4141L5.05566 20.3535C4.86042 20.5487 4.5439 20.5487 4.34863 20.3535L3.6416 19.6465C3.44635 19.4512 3.44635 19.1347 3.6416 18.9395L5.58105 17L3.6416 15.0605C3.44635 14.8653 3.44635 14.5488 3.6416 14.3535L4.34863 13.6465C4.5439 13.4513 4.86042 13.4513 5.05566 13.6465L6.99512 15.5859L8.93457 13.6465Z" fill="oklch(0.3523 0 0 / 1)" class="wd-icon-fill"></path>
<path d="M20.5 16C20.7761 16 21 16.2239 21 16.5V17.5C21 17.7761 20.7761 18 20.5 18H13.5C13.2239 18 13 17.7761 13 17.5V16.5C13 16.2239 13.2239 16 13.5 16H20.5Z" fill="oklch(0.3523 0 0 / 1)" class="wd-icon-fill"></path>
<path d="M17 12.75C17.6904 12.75 18.25 13.3096 18.25 14C18.25 14.6904 17.6904 15.25 17 15.25C16.3096 15.25 15.75 14.6904 15.75 14C15.75 13.3096 16.3096 12.75 17 12.75Z" fill="oklch(0.3523 0 0 / 1)" class="wd-icon-fill"></path>
<path d="M7.49512 3C7.77126 3 7.99512 3.22386 7.99512 3.5V5.99512H10.5C10.7761 5.99512 11 6.21897 11 6.49512V7.49512C11 7.77126 10.7761 7.99512 10.5 7.99512H7.99512V10.5C7.99512 10.7761 7.77126 11 7.49512 11H6.49512C6.21897 11 5.99512 10.7761 5.99512 10.5V7.99512H3.5C3.22386 7.99512 3 7.77126 3 7.49512V6.49512C3 6.21897 3.22386 5.99512 3.5 5.99512H5.99512V3.5C5.99512 3.22386 6.21897 3 6.49512 3H7.49512Z" fill="oklch(0.3523 0 0 / 1)" class="wd-icon-fill"></path>
<path d="M20.5 6C20.7761 6 21 6.22386 21 6.5V7.5C21 7.77614 20.7761 8 20.5 8H13.5C13.2239 8 13 7.77614 13 7.5V6.5C13 6.22386 13.2239 6 13.5 6H20.5Z" fill="oklch(0.3523 0 0 / 1)" class="wd-icon-fill"></path>
</g>
</svg>