<svg width="24" height="24" viewBox="0 0 24 24" xmlns="http://www.w3.org/2000/svg" class="wd-icon wd-icon-thumbs-up-down" role="presentation">
<g>
<path d="M15.8767 9C17.3471 9.00017 18.7876 10.0262 18.9402 11.6641C19.0043 12.3527 19.0163 13.0471 18.9802 13.7373C19.2679 13.7028 19.5303 13.6776 19.7654 13.666C20.2657 13.6415 20.7764 13.6708 21.2585 13.8926C21.9579 14.2146 22.5062 14.7935 22.7908 15.5078C22.987 16.0008 22.9898 16.5127 22.9392 17.0117C22.8891 17.5059 22.7705 18.1141 22.6306 18.8369L22.4832 19.5986C22.3967 20.0452 22.3226 20.4339 22.2361 20.752C22.1462 21.0822 22.0261 21.4038 21.8171 21.7061C21.501 22.1632 21.0644 22.5239 20.5564 22.7471C20.22 22.8948 19.881 22.9501 19.5398 22.9756C19.2111 23.0001 18.8151 23 18.3601 23H14.1999C13.6566 23 13.1881 23.001 12.8044 22.9697C12.4094 22.9375 12.0158 22.8656 11.6374 22.6729C11.0733 22.3853 10.6144 21.9265 10.3269 21.3623C10.1341 20.9839 10.0623 20.5904 10.03 20.1953C9.99875 19.8116 9.99975 19.3432 9.99975 18.7998V18.2002C9.99975 17.6567 9.99875 17.1884 10.03 16.8047C10.0623 16.4096 10.1341 16.0161 10.3269 15.6377C10.6144 15.0735 11.0733 14.6147 11.6374 14.3272C12.0265 14.1289 12.4493 14.0538 12.8914 14.0234L13.2058 13.4492C13.6614 12.6138 13.9277 11.6903 13.9871 10.7441L13.9998 10.3379C13.9998 9.5991 14.5989 9.00016 15.3376 9H15.8767ZM15.9724 11.0039C15.8787 12.1945 15.5358 13.3545 14.9617 14.4072L14.4998 15.2529V21H18.3601C18.8442 21 19.1533 20.9991 19.3904 20.9814C19.6146 20.9647 19.7038 20.9361 19.7517 20.915C19.9215 20.8405 20.0676 20.721 20.1726 20.5693C20.2023 20.5263 20.2472 20.4439 20.3064 20.2266C20.3688 19.9971 20.4282 19.6933 20.5203 19.2178L20.6677 18.4561C20.8147 17.6968 20.9111 17.1927 20.9499 16.8096C20.9882 16.432 20.9539 16.2999 20.9333 16.2481C20.8383 16.0094 20.655 15.8161 20.4226 15.709C20.3724 15.686 20.2424 15.6454 19.863 15.6641C19.4782 15.683 18.9698 15.7525 18.2039 15.8594L18.1999 15.8604L17.9988 15.8877C17.688 15.9298 17.375 15.8232 17.1541 15.6006C16.9334 15.378 16.8292 15.0642 16.8738 14.7539C17.0114 13.7957 17.0378 12.8144 16.948 11.8496C16.9091 11.4323 16.5361 11.0438 15.9724 11.0039ZM12.9998 16.0234C12.7165 16.0441 12.6104 16.0754 12.5457 16.1084C12.3576 16.2043 12.204 16.3578 12.1082 16.5459C12.083 16.5953 12.0453 16.6965 12.0232 16.9678C12.0001 17.2513 11.9998 17.6237 11.9998 18.2002V18.7998C11.9998 19.3763 12.0001 19.7487 12.0232 20.0322C12.0453 20.3035 12.083 20.4047 12.1082 20.4541C12.204 20.6422 12.3576 20.7957 12.5457 20.8916C12.595 20.9167 12.6963 20.9544 12.9675 20.9766C12.978 20.9774 12.989 20.9768 12.9998 20.9775V16.0234Z" fill="oklch(0.3523 0 0 / 1)" class="wd-icon-fill"></path>
<path d="M9.79956 1C10.3429 1 10.8114 0.999023 11.1951 1.03028C11.5901 1.06251 11.9837 1.13443 12.3621 1.32715C12.9262 1.6147 13.385 2.07354 13.6726 2.6377C13.8654 3.0161 13.9372 3.40954 13.9695 3.80469C14.0008 4.18838 13.9998 4.65675 13.9998 5.2002V5.79981C13.9998 6.34327 14.0008 6.81162 13.9695 7.19532C13.9372 7.59048 13.8654 7.9839 13.6726 8.36231C13.385 8.92648 12.9262 9.3853 12.3621 9.67286C11.9729 9.87109 11.5502 9.94622 11.1082 9.97657L10.7957 10.5498L10.6121 10.9131C10.2108 11.7724 10.0018 12.7107 10.0017 13.6621C10.0017 14.4017 9.40194 14.9993 8.66479 15H8.12475C6.6544 14.9997 5.21386 13.9737 5.06128 12.3359C4.9972 11.6475 4.98541 10.9531 5.02124 10.2627C4.73276 10.2973 4.46977 10.3224 4.23413 10.334C3.7338 10.3585 3.2231 10.3293 2.74096 10.1074C2.0417 9.78534 1.49326 9.20645 1.20874 8.49219C1.01254 7.99926 1.00975 7.48723 1.0603 6.98828C1.1104 6.49412 1.229 5.88585 1.36889 5.16309L1.51635 4.40137C1.60279 3.95477 1.67689 3.56608 1.76343 3.24805C1.85329 2.91784 1.97344 2.59618 2.18237 2.29395C2.4985 1.83686 2.93518 1.4761 3.44311 1.25293C3.77952 1.10517 4.11849 1.04992 4.45971 1.02442C4.78842 0.999872 5.18442 1 5.6394 1H9.79956ZM5.6394 3C5.15531 3 4.84619 3.00088 4.60913 3.01856C4.38475 3.03533 4.29564 3.06395 4.2478 3.08496C4.07806 3.15958 3.93186 3.27899 3.8269 3.43067C3.79716 3.47372 3.75223 3.55623 3.69311 3.77344C3.63068 4.00294 3.57128 4.30673 3.47925 4.78223L3.33178 5.54395C3.18483 6.3032 3.08838 6.80726 3.04956 7.19043C3.01134 7.56773 3.04561 7.70007 3.06616 7.75196C3.1612 7.99059 3.34459 8.1839 3.5769 8.29102C3.62695 8.31402 3.7567 8.35457 4.13647 8.33594C4.5213 8.31704 5.02967 8.24751 5.79565 8.14063L5.80053 8.13965L6.00268 8.11231C6.31326 8.07039 6.62569 8.17695 6.84643 8.39942C7.06723 8.62205 7.17128 8.93572 7.12671 9.2461C6.98921 10.2037 6.96361 11.1851 7.05346 12.1504C7.09236 12.5677 7.46551 12.9561 8.02905 12.9961C8.11581 11.8937 8.41583 10.8172 8.91577 9.82813L9.03979 9.59278L9.49975 8.75098V3H5.6394ZM10.9998 7.97754C11.283 7.95684 11.3891 7.92452 11.4539 7.8916C11.6419 7.79575 11.7955 7.64218 11.8914 7.4541C11.9165 7.40474 11.9542 7.30368 11.9763 7.03223C11.9994 6.74873 11.9998 6.37634 11.9998 5.79981V5.2002C11.9998 4.62368 11.9994 4.25128 11.9763 3.96778C11.9542 3.69636 11.9165 3.59526 11.8914 3.5459C11.7955 3.35784 11.6419 3.20425 11.4539 3.1084C11.4044 3.0833 11.303 3.04553 11.032 3.02344C11.0215 3.02261 11.0105 3.02326 10.9998 3.02246V7.97754Z" fill="oklch(0.3523 0 0 / 1)" class="wd-icon-fill"></path>
</g>
</svg>