<svg width="24" height="24" viewBox="0 0 24 24" xmlns="http://www.w3.org/2000/svg" class="wd-icon wd-icon-info" role="presentation">
<path d="M12 4C16.4183 4 20 7.58172 20 12C20 16.4183 16.4183 20 12 20C7.58172 20 4 16.4183 4 12C4 7.58172 7.58172 4 12 4ZM12.2363 9.36621C11.9327 9.291 11.6138 9.30264 11.3164 9.39941L11.1699 9.45508L10.4248 9.77734C9.9687 9.97467 9.75785 10.5048 9.95508 10.9609C10.1524 11.417 10.6825 11.6258 11.1387 11.4287L11.6133 11.2246L10.0293 15.5918C9.71222 16.4658 10.1682 17.4305 11.0449 17.7402C11.4436 17.881 11.8807 17.8657 12.2686 17.6973L13.0117 17.374C13.4675 17.176 13.6774 16.6462 13.4795 16.1904C13.2815 15.7347 12.7517 15.5258 12.2959 15.7236L11.8213 15.9297L13.4062 11.5615C13.7239 10.6863 13.2662 9.71915 12.3877 9.41113L12.2363 9.36621ZM12.4502 5.75C11.7875 5.75 11.25 6.28745 11.25 6.9502C11.2501 7.61285 11.7875 8.15039 12.4502 8.15039C13.1128 8.15029 13.6503 7.61278 13.6504 6.9502C13.6504 6.28752 13.1128 5.75011 12.4502 5.75Z" fill="transparent" class="wd-icon-background"></path>
<path d="M12 2C17.5228 2.00006 22 6.47719 22 12C22 17.5228 17.5228 21.9999 12 22C6.47715 22 2 17.5228 2 12C2 6.47715 6.47715 2 12 2ZM12 4C7.58172 4 4 7.58172 4 12C4 16.4183 7.58172 20 12 20C16.4182 19.9999 20 16.4182 20 12C20 7.58176 16.4182 4.00006 12 4Z" fill="oklch(0.3523 0 0 / 1)" class="wd-icon-fill"></path>
<g>
<path d="M11.3167 9.39941C11.6141 9.30268 11.933 9.29095 12.2366 9.36621L12.387 9.41113C13.2657 9.71905 13.7242 10.6862 13.4065 11.5615L11.8216 15.9297L12.2962 15.7236C12.7519 15.526 13.2818 15.7348 13.4798 16.1904C13.6776 16.6462 13.4677 17.176 13.012 17.374L12.2688 17.6973C11.881 17.8657 11.4439 17.8809 11.0452 17.7402C10.1685 17.4305 9.71243 16.4659 10.0296 15.5918L11.6136 11.2246L11.1389 11.4287C10.6828 11.6259 10.1527 11.417 9.95535 10.9609C9.7581 10.5047 9.96885 9.97461 10.4251 9.77734L11.1702 9.45508L11.3167 9.39941Z" fill="oklch(0.3523 0 0 / 1)" class="wd-icon-accent"></path>
<path d="M12.4505 5.75C13.113 5.75024 13.6497 6.2876 13.6497 6.9502C13.6496 7.6127 13.1129 8.15015 12.4505 8.15039C11.7878 8.15039 11.2504 7.61285 11.2503 6.9502C11.2503 6.28745 11.7877 5.75 12.4505 5.75Z" fill="oklch(0.3523 0 0 / 1)" class="wd-icon-accent"></path>
</g>
</svg>