<svg width="24" height="24" viewBox="0 0 24 24" xmlns="http://www.w3.org/2000/svg" class="wd-icon wd-icon-font-face" role="presentation">
<path d="M19.5 3C19.7761 3 20 3.22386 20 3.5V6.5C20 6.77614 19.7761 7 19.5 7H18.25C17.9739 7 17.75 6.77614 17.75 6.5V5.5H13.375V18.75H15.5C15.7761 18.75 16 18.9739 16 19.25V20.5C16 20.7761 15.7761 21 15.5 21H8.5C8.22386 21 8 20.7761 8 20.5V19.25C8 18.9739 8.22386 18.75 8.5 18.75H10.625V5.5H6.25V6.5C6.25 6.77614 6.02614 7 5.75 7H4.5C4.22386 7 4 6.77614 4 6.5V3.5C4 3.22386 4.22386 3 4.5 3H19.5Z" fill="oklch(0.3523 0 0 / 1)" class="wd-icon-fill"></path>
</svg>