<svg width="24" height="24" viewBox="0 0 24 24" xmlns="http://www.w3.org/2000/svg" class="wd-icon wd-icon-calendar-day-18" role="presentation">
<g>
<path d="M14.0029 10.3701C14.4183 10.3702 14.8004 10.4518 15.1436 10.6191C15.4866 10.7806 15.7608 11.0131 15.9561 11.3174L16.0273 11.4326C16.1827 11.7055 16.2597 12.0096 16.2598 12.3389C16.2598 12.7064 16.1665 13.0369 15.9717 13.3184C15.8698 13.4654 15.7461 13.5928 15.6035 13.7031C15.8212 13.8397 16.0069 14.0108 16.1572 14.2168C16.4013 14.5515 16.5204 14.9434 16.5205 15.3809C16.5205 15.7864 16.4153 16.1607 16.2031 16.4961L16.2022 16.4951C15.9946 16.8268 15.6966 17.0847 15.3184 17.2705L15.3154 17.2725C14.9336 17.4532 14.4936 17.539 14.0029 17.5391C13.5067 17.539 13.0629 17.4535 12.6807 17.2725L12.6777 17.2705C12.2999 17.0848 11.9983 16.8281 11.7852 16.498L11.7822 16.4932C11.5774 16.1583 11.4756 15.7844 11.4756 15.3809C11.4757 14.9384 11.5948 14.5442 11.8408 14.2139C11.9952 14.0081 12.1835 13.8367 12.4033 13.7002C12.2642 13.5906 12.1426 13.4636 12.042 13.3184C11.8474 13.037 11.7549 12.7062 11.7549 12.3389C11.755 11.9643 11.8506 11.6217 12.0469 11.3203L12.0479 11.3193C12.248 11.0157 12.521 10.7826 12.8594 10.6201C13.2032 10.4519 13.5865 10.3702 14.0029 10.3701ZM13.9932 14.3438C13.7642 14.3439 13.5752 14.3909 13.4199 14.4756C13.2622 14.5617 13.1442 14.6755 13.0605 14.8174L13.0078 14.9307C12.9623 15.0484 12.9385 15.18 12.9385 15.3272C12.9385 15.6122 13.032 15.8342 13.2139 16.0117C13.3978 16.1796 13.6493 16.2743 13.9932 16.2744C14.2316 16.2744 14.4252 16.2287 14.5811 16.1484C14.739 16.067 14.8516 15.9594 14.9277 15.8252L14.9297 15.8223C15.014 15.6768 15.0576 15.5136 15.0576 15.3272C15.0575 15.0366 14.9621 14.808 14.7734 14.624L14.7705 14.6221C14.5932 14.445 14.3437 14.3438 13.9932 14.3438ZM14.0029 11.5986C13.8229 11.5987 13.6718 11.6362 13.5449 11.7041L13.5381 11.708C13.4109 11.7717 13.314 11.8605 13.2432 11.9756C13.1792 12.0833 13.1456 12.2056 13.1455 12.3477C13.1455 12.5759 13.2223 12.7564 13.375 12.9053C13.5318 13.0466 13.7348 13.1239 14.0029 13.124C14.1844 13.124 14.3314 13.0887 14.4512 13.0273C14.5819 12.9573 14.6811 12.8648 14.7529 12.748C14.8226 12.6347 14.8594 12.5032 14.8594 12.3477C14.8592 12.1269 14.7841 11.9585 14.6348 11.8223L14.6318 11.8193C14.4824 11.679 14.2808 11.5987 14.0029 11.5986Z" fill="oklch(0.3523 0 0 / 1)" class="wd-icon-fill"></path>
<path d="M9.08692 10.5049C9.52536 10.5049 9.88076 10.8604 9.88086 11.2988V16.668C9.88081 17.0694 9.55566 17.3944 9.1543 17.3945C8.75303 17.3943 8.42681 17.0693 8.42676 16.668V12.3936L8.25 12.5254C7.83564 12.8319 7.24805 12.536 7.24805 12.0205C7.24823 11.8259 7.33896 11.6422 7.49317 11.5234L8.60254 10.6699C8.74118 10.5633 8.91202 10.505 9.08692 10.5049Z" fill="oklch(0.3523 0 0 / 1)" class="wd-icon-fill"></path>
<path d="M16.2012 2C17.0247 2 17.7026 1.99898 18.2529 2.04395C18.815 2.08988 19.3321 2.18828 19.8174 2.43555C20.5699 2.81902 21.182 3.43109 21.5654 4.1836C21.8127 4.6689 21.9111 5.18599 21.957 5.74805C22.002 6.29843 22.001 6.97632 22.001 7.79981V16.2002C22.001 17.0237 22.002 17.7016 21.957 18.252C21.9111 18.814 21.8127 19.3311 21.5654 19.8164C21.182 20.5689 20.5699 21.181 19.8174 21.5645C19.3321 21.8117 18.815 21.9101 18.2529 21.9561C17.7026 22.001 17.0247 22 16.2012 22H7.80078C6.9773 22 6.2994 22.001 5.74903 21.9561C5.18697 21.9101 4.66988 21.8117 4.18457 21.5645C3.43207 21.181 2.81999 20.5689 2.43653 19.8164C2.18925 19.3311 2.09085 18.814 2.04492 18.252C1.99996 17.7016 2.00098 17.0237 2.00098 16.2002V7.79981C2.00098 6.97632 1.99996 6.29843 2.04492 5.74805C2.09085 5.18599 2.18925 4.6689 2.43653 4.1836C2.81999 3.43109 3.43207 2.81902 4.18457 2.43555C4.66988 2.18827 5.18697 2.08988 5.74903 2.04395C6.2994 1.99898 6.9773 2 7.80078 2H16.2012ZM4.00098 16.2002C4.00098 17.0566 4.00133 17.6388 4.03809 18.0889C4.07391 18.5273 4.13906 18.7518 4.21875 18.9082C4.41049 19.2845 4.71652 19.5905 5.09278 19.7822C5.24917 19.8619 5.4737 19.9271 5.91211 19.9629C6.36215 19.9997 6.9444 20 7.80078 20H16.2012C17.0576 20 17.6398 19.9997 18.0898 19.9629C18.5283 19.9271 18.7528 19.8619 18.9092 19.7822C19.2854 19.5905 19.5915 19.2845 19.7832 18.9082C19.8629 18.7518 19.928 18.5273 19.9639 18.0889C20.0006 17.6388 20.001 17.0566 20.001 16.2002V8H4.00098V16.2002Z" fill="oklch(0.3523 0 0 / 1)" class="wd-icon-fill"></path>
</g>
</svg>