<svg width="24" height="24" viewBox="0 0 24 24" xmlns="http://www.w3.org/2000/svg" class="wd-icon wd-icon-fill-strikethrough" role="presentation">
<g>
<path d="M6.78365 11.0352C6.30256 12.3302 6.00045 13.6747 6.00045 15C6.00045 18.3137 8.68674 21 12.0005 21C13.3378 20.9999 14.5722 20.561 15.5698 19.8213L16.9946 21.2461C15.6257 22.3421 13.8904 22.9999 12.0005 23C7.58217 23 4.00045 19.4183 4.00045 15C4.00045 13.0934 4.50941 11.2157 5.24654 9.49805L6.78365 11.0352Z" fill="oklch(0.3523 0 0 / 1)" class="wd-icon-fill"></path>
<path d="M12.0005 1C12.2405 1.00007 12.4252 1.08368 12.4848 1.11133C12.5719 1.15173 12.6494 1.19892 12.7094 1.23828C12.8316 1.31835 12.9621 1.42007 13.0903 1.52832C13.3508 1.74832 13.6722 2.05383 14.0278 2.42578C14.7421 3.17297 15.6354 4.22951 16.5102 5.49316C18.2396 7.99125 20.0005 11.4471 20.0005 15C20.0005 16.0667 19.7894 17.0836 19.4096 18.0137L21.8354 20.4395C22.0304 20.6347 22.0304 20.9513 21.8354 21.1465L21.1274 21.8535C20.9321 22.0487 20.6156 22.0487 20.4204 21.8535L2.1274 3.56055C1.93214 3.36528 1.93214 3.04878 2.1274 2.85352L2.83444 2.14648C3.0297 1.95134 3.34624 1.95127 3.54147 2.14648L7.24752 5.85254C7.32865 5.73085 7.40937 5.61062 7.49069 5.49316C8.36555 4.22949 9.25878 3.17295 9.97311 2.42578C10.3287 2.05381 10.6501 1.7483 10.9106 1.52832C11.0389 1.42007 11.1693 1.31834 11.2915 1.23828C11.3516 1.19891 11.429 1.15171 11.5161 1.11133C11.576 1.08355 11.7606 1 12.0005 1ZM12.0005 3.2373C11.8379 3.38668 11.64 3.5768 11.4184 3.80859C10.7735 4.48322 9.94766 5.45832 9.13522 6.63184C8.98563 6.8479 8.83677 7.06931 8.69088 7.2959L17.8247 16.4287C17.9374 15.9707 18.0005 15.4928 18.0005 15C18.0005 12.053 16.5112 9.00871 14.8657 6.63184C14.0533 5.45835 13.2274 4.48324 12.5825 3.80859C12.3609 3.57681 12.163 3.38668 12.0005 3.2373Z" fill="oklch(0.3523 0 0 / 1)" class="wd-icon-fill"></path>
</g>
</svg>