<svg width="24" height="24" viewBox="0 0 24 24" xmlns="http://www.w3.org/2000/svg" class="wd-icon wd-icon-mail" role="presentation">
<path d="M16.2002 4C17.0237 4 17.7016 3.99898 18.252 4.04395C18.814 4.08988 19.3311 4.18827 19.8164 4.43555C20.5689 4.81902 21.181 5.43109 21.5645 6.1836C21.8117 6.6689 21.9101 7.18599 21.9561 7.74805C22.001 8.29843 22 8.97632 22 9.79981V14.2002C22 15.0237 22.001 15.7016 21.9561 16.252C21.9101 16.814 21.8117 17.3311 21.5645 17.8164C21.181 18.5689 20.5689 19.181 19.8164 19.5645C19.3311 19.8117 18.814 19.9101 18.252 19.9561C17.7016 20.001 17.0237 20 16.2002 20H7.79981C6.97632 20 6.29843 20.001 5.74805 19.9561C5.18599 19.9101 4.6689 19.8117 4.1836 19.5645C3.43109 19.181 2.81902 18.5689 2.43555 17.8164C2.18827 17.3311 2.08988 16.814 2.04395 16.252C1.99898 15.7016 2 15.0237 2 14.2002V9.79981C2 8.97632 1.99898 8.29843 2.04395 7.74805C2.08988 7.18599 2.18827 6.6689 2.43555 6.1836C2.81902 5.43109 3.43109 4.81902 4.1836 4.43555C4.6689 4.18827 5.18599 4.08988 5.74805 4.04395C6.29843 3.99898 6.97632 4 7.79981 4H16.2002ZM13.0293 14.2578C12.396 14.6377 11.604 14.6377 10.9707 14.2578L9.61524 13.4443L5.22168 17.8379C5.37154 17.8919 5.58045 17.9359 5.91113 17.9629C6.36117 17.9997 6.94342 18 7.79981 18H16.2002C17.0566 18 17.6388 17.9997 18.0889 17.9629C18.4189 17.9359 18.6275 17.8918 18.7773 17.8379L14.3838 13.4443L13.0293 14.2578ZM4 14.2002C4 15.0566 4.00035 15.6388 4.03711 16.0889C4.06406 16.4187 4.10728 16.6276 4.16113 16.7773L8.28906 12.6484L4 10.0752V14.2002ZM15.71 12.6494L19.8379 16.7773C19.8918 16.6275 19.9359 16.4189 19.9629 16.0889C19.9997 15.6388 20 15.0566 20 14.2002V10.0752L15.71 12.6494ZM7.79981 6C6.94342 6 6.36117 6.00035 5.91113 6.03711C5.47272 6.07293 5.2482 6.13809 5.0918 6.21778C4.71555 6.40951 4.40951 6.71555 4.21778 7.0918C4.13809 7.2482 4.07293 7.47272 4.03711 7.91113C4.02658 8.04011 4.01908 8.17995 4.01367 8.33399L11.7432 12.9717C11.9012 13.0662 12.0988 13.0662 12.2568 12.9717L19.9854 8.33399C19.98 8.17996 19.9734 8.0401 19.9629 7.91113C19.9271 7.47272 19.8619 7.2482 19.7822 7.0918C19.5905 6.71555 19.2845 6.40951 18.9082 6.21778C18.7518 6.13809 18.5273 6.07293 18.0889 6.03711C17.6388 6.00035 17.0566 6 16.2002 6H7.79981Z" fill="oklch(0.3523 0 0 / 1)" class="wd-icon-fill"></path>
</svg>