<svg width="24" height="24" viewBox="0 0 24 24" xmlns="http://www.w3.org/2000/svg" class="wd-icon wd-icon-list-detail" role="presentation">
<path d="M18.7998 7C19.3764 7 19.7489 7.00126 20.0322 7.02441C20.3038 7.04661 20.4047 7.08419 20.4541 7.10938C20.6421 7.20521 20.7948 7.35793 20.8906 7.5459C20.9158 7.59534 20.9534 7.69619 20.9756 7.96777C20.9987 8.25111 21 8.62364 21 9.2002V14.7998C21 15.3764 20.9987 15.7489 20.9756 16.0322C20.9534 16.3038 20.9158 16.4047 20.8906 16.4541C20.7948 16.6421 20.6421 16.7948 20.4541 16.8906C20.4047 16.9158 20.3038 16.9534 20.0322 16.9756C19.7489 16.9987 19.3764 17 18.7998 17H13.2002C12.6236 17 12.2511 16.9987 11.9678 16.9756C11.6962 16.9534 11.5953 16.9158 11.5459 16.8906C11.3579 16.7948 11.2052 16.6421 11.1094 16.4541C11.0842 16.4047 11.0466 16.3038 11.0244 16.0322C11.0013 15.7489 11 15.3764 11 14.7998V9.2002C11 8.62364 11.0013 8.25111 11.0244 7.96777C11.0466 7.69619 11.0842 7.59534 11.1094 7.5459C11.2052 7.35793 11.3579 7.20521 11.5459 7.10938C11.5953 7.08419 11.6962 7.04661 11.9678 7.02441C12.2511 7.00126 12.6236 7 13.2002 7H18.7998Z" fill="transparent" class="wd-icon-background"></path>
<g>
<path d="M6 17C6.55228 17 7 17.4477 7 18C7 18.5523 6.55228 19 6 19H3C2.44772 19 2 18.5523 2 18C2 17.4477 2.44772 17 3 17H6Z" fill="oklch(0.3523 0 0 / 1)" class="wd-icon-fill"></path>
<path d="M18.7998 5C19.3434 5 19.8116 4.99893 20.1953 5.03028C20.5906 5.06259 20.984 5.1344 21.3623 5.32715C21.9265 5.61473 22.3853 6.07348 22.6729 6.6377C22.8656 7.016 22.9374 7.40943 22.9697 7.80469C23.0011 8.18836 23 8.65665 23 9.2002V14.7998C23 15.3434 23.0011 15.8116 22.9697 16.1953C22.9374 16.5906 22.8656 16.984 22.6729 17.3623C22.3853 17.9265 21.9265 18.3853 21.3623 18.6729C20.984 18.8656 20.5906 18.9374 20.1953 18.9697C19.8116 19.0011 19.3434 19 18.7998 19H13.2002C12.6566 19 12.1884 19.0011 11.8047 18.9697C11.4094 18.9374 11.016 18.8656 10.6377 18.6729C10.0735 18.3853 9.61472 17.9265 9.32715 17.3623C9.1344 16.984 9.06258 16.5906 9.03027 16.1953C8.99893 15.8116 9 15.3434 9 14.7998V9.2002C9 8.65665 8.99893 8.18836 9.03027 7.80469C9.06258 7.40943 9.1344 7.016 9.32715 6.6377C9.61472 6.07348 10.0735 5.61473 10.6377 5.32715C11.016 5.1344 11.4094 5.06259 11.8047 5.03028C12.1884 4.99893 12.6566 5 13.2002 5H18.7998ZM13.2002 7C12.6236 7 12.2511 7.00127 11.9678 7.02442C11.6962 7.04662 11.5953 7.08419 11.5459 7.10938C11.3579 7.20522 11.2052 7.35793 11.1094 7.5459C11.0842 7.59534 11.0466 7.69619 11.0244 7.96778C11.0013 8.25112 11 8.62365 11 9.2002V14.7998C11 15.3764 11.0013 15.7489 11.0244 16.0322C11.0466 16.3038 11.0842 16.4047 11.1094 16.4541C11.2052 16.6421 11.3579 16.7948 11.5459 16.8906C11.5953 16.9158 11.6962 16.9534 11.9678 16.9756C12.2511 16.9987 12.6236 17 13.2002 17H18.7998C19.3764 17 19.7489 16.9987 20.0322 16.9756C20.3038 16.9534 20.4047 16.9158 20.4541 16.8906C20.6421 16.7948 20.7948 16.6421 20.8906 16.4541C20.9158 16.4047 20.9534 16.3038 20.9756 16.0322C20.9987 15.7489 21 15.3764 21 14.7998V9.2002C21 8.62365 20.9987 8.25112 20.9756 7.96778C20.9534 7.69619 20.9158 7.59534 20.8906 7.5459C20.7948 7.35793 20.6421 7.20522 20.4541 7.10938C20.4047 7.08419 20.3038 7.04662 20.0322 7.02442C19.7489 7.00127 19.3764 7 18.7998 7H13.2002Z" fill="oklch(0.3523 0 0 / 1)" class="wd-icon-fill"></path>
<path d="M6 13C6.55228 13 7 13.4477 7 14C7 14.5523 6.55228 15 6 15H3C2.44772 15 2 14.5523 2 14C2 13.4477 2.44772 13 3 13H6Z" fill="oklch(0.3523 0 0 / 1)" class="wd-icon-fill"></path>
<path d="M6 9C6.55228 9 7 9.44772 7 10C7 10.5523 6.55228 11 6 11H3C2.44772 11 2 10.5523 2 10C2 9.44772 2.44772 9 3 9H6Z" fill="oklch(0.3523 0 0 / 1)" class="wd-icon-fill"></path>
<path d="M6 5C6.55228 5 7 5.44772 7 6C7 6.55229 6.55228 7 6 7H3C2.44772 7 2 6.55229 2 6C2 5.44772 2.44772 5 3 5H6Z" fill="oklch(0.3523 0 0 / 1)" class="wd-icon-fill"></path>
</g>
</svg>