<svg width="24" height="24" viewBox="0 0 24 24" xmlns="http://www.w3.org/2000/svg" class="wd-icon wd-icon-workflow" role="presentation">
<g>
<path d="M12.002 18.499C12.5542 18.499 13.002 18.9467 13.002 19.499V20.999C13.002 21.5513 12.5542 21.999 12.002 21.999C11.4497 21.999 11.002 21.5513 11.002 20.999V19.499C11.002 18.9467 11.4497 18.499 12.002 18.499Z" fill="oklch(0.3523 0 0 / 1)" class="wd-icon-fill"></path>
<path d="M14 15.4697C14.4783 15.1936 15.0901 15.3577 15.3662 15.8359L17.3662 19.2998C17.6423 19.7781 17.4783 20.3899 17 20.666C16.5217 20.9422 15.9099 20.7781 15.6338 20.2998L13.6338 16.8359C13.3577 16.3577 13.5217 15.7459 14 15.4697Z" fill="oklch(0.3523 0 0 / 1)" class="wd-icon-fill"></path>
<path d="M8.63379 15.8301C8.90993 15.3518 9.52171 15.1877 10 15.4639C10.4783 15.74 10.6423 16.3518 10.3662 16.8301L8.36621 20.2939C8.09008 20.7722 7.47828 20.9362 7 20.6602C6.52173 20.384 6.35771 19.7722 6.63379 19.2939L8.63379 15.8301Z" fill="oklch(0.3523 0 0 / 1)" class="wd-icon-fill"></path>
<path d="M5.00586 14.8828C5.48415 14.6067 6.09593 14.7707 6.37207 15.249C6.64821 15.7273 6.48415 16.3391 6.00586 16.6152L4.70703 17.3652C4.22875 17.6413 3.61695 17.4773 3.34082 16.999C3.06474 16.5207 3.22877 15.9089 3.70703 15.6328L5.00586 14.8828Z" fill="oklch(0.3523 0 0 / 1)" class="wd-icon-fill"></path>
<path d="M17.6318 15.249C17.908 14.7707 18.5198 14.6067 18.998 14.8828L20.2969 15.6328C20.7751 15.9089 20.9392 16.5207 20.6631 16.999C20.387 17.4773 19.7752 17.6413 19.2969 17.3652L17.998 16.6152C17.5198 16.3391 17.3557 15.7273 17.6318 15.249Z" fill="oklch(0.3523 0 0 / 1)" class="wd-icon-fill"></path>
<path d="M7 11.0059C7.55228 11.0059 8 11.4536 8 12.0059C8 12.5581 7.55228 13.0059 7 13.0059H3C2.44772 13.0059 2 12.5581 2 12.0059C2 11.4536 2.44772 11.0059 3 11.0059H7Z" fill="oklch(0.3523 0 0 / 1)" class="wd-icon-fill"></path>
<path d="M21 11.0059C21.5523 11.0059 22 11.4536 22 12.0059C22 12.5581 21.5523 13.0059 21 13.0059H17C16.4477 13.0059 16 12.5581 16 12.0059C16 11.4536 16.4477 11.0059 17 11.0059H21Z" fill="oklch(0.3523 0 0 / 1)" class="wd-icon-fill"></path>
<path d="M3.34082 6.99902C3.61695 6.52076 4.22875 6.35673 4.70703 6.63281L6.00586 7.38281C6.48415 7.65895 6.64821 8.27073 6.37207 8.74902C6.09593 9.22731 5.48415 9.39137 5.00586 9.11523L3.70703 8.36523C3.22877 8.08911 3.06474 7.4773 3.34082 6.99902Z" fill="oklch(0.3523 0 0 / 1)" class="wd-icon-fill"></path>
<path d="M19.2969 6.63281C19.7752 6.35673 20.387 6.52076 20.6631 6.99902C20.9392 7.4773 20.7751 8.08911 20.2969 8.36523L18.998 9.11523C18.5198 9.39137 17.908 9.22731 17.6318 8.74902C17.3557 8.27073 17.5198 7.65895 17.998 7.38281L19.2969 6.63281Z" fill="oklch(0.3523 0 0 / 1)" class="wd-icon-fill"></path>
<path d="M7 3.3457C7.47829 3.06956 8.09007 3.23362 8.36621 3.71191L10.3662 7.17578C10.6421 7.65403 10.4782 8.2659 10 8.54199C9.52177 8.81796 8.90993 8.65393 8.63379 8.17578L6.63379 4.71094C6.35803 4.23275 6.52196 3.6218 7 3.3457Z" fill="oklch(0.3523 0 0 / 1)" class="wd-icon-fill"></path>
<path d="M15.6338 3.70508C15.9099 3.22681 16.5217 3.06279 17 3.33887C17.4783 3.61499 17.6423 4.2268 17.3662 4.70508L15.3662 8.16895C15.0901 8.64724 14.4783 8.8113 14 8.53516C13.5217 8.25901 13.3577 7.64723 13.6338 7.16895L15.6338 3.70508Z" fill="oklch(0.3523 0 0 / 1)" class="wd-icon-fill"></path>
<path d="M12.002 1.99902C12.5542 1.99902 13.002 2.44674 13.002 2.99902V4.49902C13.002 5.05131 12.5542 5.49902 12.002 5.49902C11.4497 5.49902 11.002 5.05131 11.002 4.49902V2.99902C11.002 2.44674 11.4497 1.99902 12.002 1.99902Z" fill="oklch(0.3523 0 0 / 1)" class="wd-icon-fill"></path>
</g>
</svg>