<svg width="24" height="24" viewBox="0 0 24 24" xmlns="http://www.w3.org/2000/svg" class="wd-icon wd-icon-tools" role="presentation">
<g>
<path d="M3.11966 4.11816C4.67522 2.5627 7.22928 2.6713 8.64798 4.35254L11.1714 7.3418C11.3284 7.52787 11.484 7.71207 11.6031 7.87793C11.7291 8.05368 11.8611 8.2727 11.9331 8.54883C12.0081 8.83642 12.0181 9.13623 11.9634 9.42578L16.939 14.4014C16.9902 14.4526 17.0165 14.4789 17.0357 14.4971L17.0367 14.498H17.0396C17.066 14.4987 17.103 14.499 17.1753 14.499C17.3352 14.499 17.5458 14.4951 17.7495 14.5332C18.177 14.6133 18.5656 14.8301 18.857 15.1484L18.9751 15.291L19.063 15.4189C19.1444 15.5485 19.2087 15.682 19.2622 15.7891L20.1285 17.5205C20.2757 17.815 20.4872 18.2009 20.5249 18.624C20.5546 18.9572 20.5002 19.2929 20.3667 19.5996C20.2394 19.8919 20.0256 20.1334 19.8286 20.334L19.3345 20.8281C19.1339 21.0251 18.8924 21.2389 18.6001 21.3662C18.2934 21.4997 17.9577 21.554 17.6245 21.5244C17.2014 21.4867 16.8156 21.2752 16.521 21.1279L14.7915 20.2637C14.6471 20.1915 14.4554 20.0995 14.2886 19.9727C13.8954 19.6734 13.6267 19.2384 13.5347 18.7529C13.4957 18.5468 13.4995 18.3335 13.4995 18.1719C13.4995 18.0989 13.4993 18.0619 13.4986 18.0352V18.0332L13.4966 18.0312C13.4782 18.0119 13.4525 17.9852 13.4009 17.9336L8.42728 12.96C8.18615 13.0056 7.93807 13.009 7.69584 12.9648L7.55033 12.9316L7.35404 12.8682C7.16752 12.7946 7.01041 12.6963 6.87845 12.6016C6.71265 12.4825 6.52931 12.3269 6.3433 12.1699L3.35404 9.64551C1.67334 8.22676 1.56457 5.67357 3.11966 4.11816ZM10.0874 11.792L14.815 16.5195C14.8934 16.5979 14.9986 16.6999 15.0884 16.8174C15.3 17.0943 15.4358 17.4222 15.482 17.7676C15.5015 17.9143 15.4996 18.061 15.4995 18.1719C15.4995 18.2788 15.5001 18.3348 15.5015 18.375V18.3789L15.5054 18.3818C15.5408 18.4011 15.5903 18.4267 15.6861 18.4746L17.4156 19.3389C17.6126 19.4374 17.7164 19.4884 17.7935 19.5205C17.7956 19.5213 17.7984 19.5217 17.8003 19.5225C17.802 19.521 17.8044 19.5201 17.8062 19.5186C17.8692 19.4637 17.9518 19.3827 18.1079 19.2266L18.2271 19.1074C18.3832 18.9513 18.4642 18.8687 18.5191 18.8057C18.5207 18.8038 18.5215 18.8015 18.523 18.7998C18.5222 18.7979 18.5218 18.7951 18.521 18.793C18.4889 18.7159 18.4379 18.612 18.3394 18.415L17.4742 16.6836C17.4268 16.5889 17.4014 16.5399 17.3824 16.5049L17.3794 16.501H17.3765C17.3367 16.4996 17.2814 16.499 17.1753 16.499C17.0656 16.499 16.9202 16.5006 16.7749 16.4814C16.4275 16.4356 16.098 16.2991 15.8199 16.0859C15.7037 15.9969 15.6025 15.893 15.5249 15.8154L10.7945 11.085L10.0874 11.792ZM7.11869 5.64258C6.45534 4.8565 5.26214 4.80513 4.5347 5.53223C3.80746 6.25947 3.85742 7.45365 4.6431 8.11719L7.63334 10.6406C7.84352 10.818 7.95831 10.914 8.04545 10.9766C8.04869 10.9788 8.05227 10.9804 8.05521 10.9824C8.05781 10.9802 8.06116 10.978 8.064 10.9756C8.14289 10.9082 8.24376 10.8075 8.4263 10.625C8.43254 10.6186 8.43851 10.6118 8.44486 10.6055L9.83939 9.21094C9.89863 9.15008 9.94224 9.10327 9.97709 9.0625C9.97962 9.05953 9.98263 9.05642 9.9849 9.05371C9.98282 9.05075 9.98041 9.04722 9.97806 9.04395C9.91554 8.95681 9.81952 8.84206 9.64213 8.63184L7.11869 5.64258Z" fill="oklch(0.3523 0 0 / 1)" class="wd-icon-fill"></path>
<path d="M5.6392 14.293C6.02974 13.9027 6.6628 13.9025 7.05326 14.293C7.4435 14.6834 7.4435 15.3166 7.05326 15.707L5.2808 17.4805C4.93917 17.8222 4.93839 18.3763 5.27884 18.7178C5.62054 19.0592 6.17646 19.0593 6.5181 18.7178L8.69486 16.542C9.0854 16.1517 9.71847 16.1515 10.1089 16.542C10.4992 16.9325 10.4992 17.5656 10.1089 17.9561L7.93314 20.1328C6.81058 21.2553 4.98854 21.2549 3.86576 20.1328C2.74316 19.0097 2.74354 17.1877 3.86576 16.0654L5.6392 14.293Z" fill="oklch(0.3523 0 0 / 1)" class="wd-icon-fill"></path>
<path d="M16.7505 1.99707C17.0701 1.99713 17.3858 2.02673 17.6939 2.08301C17.876 2.11621 18.41 2.17266 18.7964 2.59766L18.9087 2.73926C19.0085 2.88367 19.0732 3.03359 19.1128 3.16016C19.1656 3.32905 19.2057 3.55703 19.1734 3.80273V3.80469C19.1308 4.12259 18.989 4.35918 18.8589 4.52637C18.7473 4.66966 18.6024 4.81319 18.4947 4.9209L17.1441 6.26953L17.2906 6.70898L17.731 6.85547L19.0796 5.50781C19.186 5.40143 19.3283 5.25667 19.4703 5.14551C19.6369 5.0151 19.8744 4.87083 20.1949 4.82812C20.4421 4.79553 20.6717 4.83664 20.8404 4.88965C20.9669 4.92946 21.117 4.99379 21.2613 5.09375L21.4029 5.20605C21.8278 5.59379 21.8832 6.13082 21.9156 6.30957C21.9706 6.61353 22.0005 6.92807 22.0005 7.24805C22 10.0435 19.8141 12.3289 17.0581 12.4893C16.507 12.5212 16.0348 12.0999 16.0025 11.5488C15.9707 10.9978 16.3909 10.5254 16.9419 10.4932C18.5896 10.3972 19.9093 9.07086 19.9956 7.41992L19.0581 8.3584C18.982 8.43452 18.7843 8.64886 18.523 8.77637C18.3216 8.87438 18.1009 8.92642 17.8804 8.92871H17.8785C17.733 8.92993 17.5914 8.90329 17.4742 8.87305L17.2144 8.79199L16.563 8.57422C16.4815 8.54696 16.2488 8.47885 16.0484 8.3418C15.8957 8.23721 15.7627 8.10434 15.6578 7.95117L15.6568 7.9502C15.5203 7.75024 15.4528 7.51703 15.4263 7.4375L15.2085 6.78613C15.1761 6.68889 15.0692 6.41198 15.0718 6.12012C15.0741 5.89223 15.1294 5.67328 15.2242 5.47852L15.2759 5.38281C15.4036 5.16887 15.5767 5.00971 15.6431 4.94336L16.5816 4.00391C15.1944 4.0749 14.0344 5.01519 13.6421 6.29395C13.48 6.82142 12.9207 7.11752 12.3931 6.95605C11.8652 6.79411 11.5683 6.23493 11.73 5.70703C12.3885 3.5608 14.386 1.99712 16.7505 1.99707Z" fill="oklch(0.3523 0 0 / 1)" class="wd-icon-fill"></path>
</g>
</svg>