<svg width="24" height="24" viewBox="0 0 24 24" xmlns="http://www.w3.org/2000/svg" class="wd-icon wd-icon-list-check" role="presentation">
<g>
<path d="M6.19817 14.3935C6.39343 14.1984 6.70999 14.1983 6.9052 14.3935L7.61223 15.1005C7.80709 15.2957 7.8072 15.6124 7.61223 15.8075L6.42278 16.997L7.61223 18.1864C7.80702 18.3817 7.80718 18.6983 7.61223 18.8935L6.9052 19.6005C6.71006 19.7955 6.39341 19.7953 6.19817 19.6005L5.00871 18.4111L3.81926 19.6005C3.6241 19.7955 3.30746 19.7954 3.11223 19.6005L2.4052 18.8935C2.21004 18.6983 2.21014 18.3817 2.4052 18.1864L3.59465 16.997L2.4052 15.8075C2.20999 15.6123 2.21009 15.2958 2.4052 15.1005L3.11223 14.3935C3.30751 14.1984 3.62406 14.1983 3.81926 14.3935L5.00871 15.5829L6.19817 14.3935Z" fill="oklch(0.3523 0 0 / 1)" class="wd-icon-fill"></path>
<path d="M22.4999 15.9999C22.776 16 22.9999 16.2238 22.9999 16.4999V17.4999C22.9998 17.7759 22.7759 17.9998 22.4999 17.9999H10.4999C10.2238 17.9999 10 17.776 9.99992 17.4999V16.4999C9.99992 16.2238 10.2238 15.9999 10.4999 15.9999H22.4999Z" fill="oklch(0.3523 0 0 / 1)" class="wd-icon-fill"></path>
<path d="M6.93938 4.14641C7.13463 3.9512 7.45116 3.9512 7.64641 4.14641L8.35344 4.85344C8.54843 5.04871 8.54858 5.36529 8.35344 5.56047L5.20696 8.70696C5.01949 8.89442 4.76503 8.99984 4.49992 8.99992C4.23485 8.99992 3.9804 8.8943 3.79289 8.70696L2.14641 7.06047C1.9512 6.86522 1.9512 6.54869 2.14641 6.35344L2.85344 5.64641C3.04869 5.4512 3.36522 5.4512 3.56047 5.64641L4.49992 6.58586L6.93938 4.14641Z" fill="oklch(0.3523 0 0 / 1)" class="wd-icon-fill"></path>
<path d="M22.4999 5.99992C22.776 6.00001 22.9999 6.22383 22.9999 6.49992V7.49992C22.9998 7.77595 22.7759 7.99984 22.4999 7.99992H10.4999C10.2238 7.99992 10 7.776 9.99992 7.49992V6.49992C9.99992 6.22378 10.2238 5.99992 10.4999 5.99992H22.4999Z" fill="oklch(0.3523 0 0 / 1)" class="wd-icon-fill"></path>
</g>
</svg>