<svg width="24" height="24" viewBox="0 0 24 24" xmlns="http://www.w3.org/2000/svg" class="wd-icon wd-icon-translation" role="presentation">
<path d="M8.5 2C8.77614 2 9 2.22386 9 2.5V4H13.5C13.7761 4 14 4.22386 14 4.5V5.5C14 5.77614 13.7761 6 13.5 6H12.416C11.8482 7.90469 10.881 9.67138 9.57227 11.1787C9.53103 11.2262 9.48812 11.2724 9.44629 11.3193C10.3499 12.0519 11.354 12.6521 12.4307 13.0957C12.6858 13.2009 12.8199 13.4867 12.7256 13.7461L12.3838 14.6855C12.2893 14.9449 12.002 15.0792 11.7461 14.9756C10.3868 14.4251 9.12443 13.6628 8.00195 12.7207C6.88131 13.6614 5.6185 14.4248 4.25586 14.9766C3.99992 15.0801 3.71257 14.945 3.61816 14.6855L3.27637 13.7461C3.1823 13.4868 3.31627 13.2009 3.57129 13.0957C4.65007 12.6513 5.65556 12.0526 6.55762 11.3213C5.68521 10.344 4.95155 9.24924 4.38281 8.06641C4.26338 7.81768 4.38006 7.52286 4.63281 7.41211L5.09082 7.21094L5.5498 7.01074C5.80268 6.90033 6.09667 7.01575 6.21777 7.26367C6.6899 8.23091 7.28953 9.12957 8 9.93555C8.02036 9.91245 8.0423 9.89045 8.0625 9.86719C9.05212 8.72729 9.81426 7.41446 10.3145 6H2.5C2.22386 6 2 5.77614 2 5.5V4.5C2 4.22386 2.22386 4 2.5 4H7V2.5C7 2.22386 7.22386 2 7.5 2H8.5Z" fill="oklch(0.3523 0 0 / 1)" class="wd-icon-fill"></path>
<path d="M17.8898 11.9902C18.0977 11.9903 18.2841 12.119 18.3576 12.3135L21.756 21.3242C21.8788 21.6509 21.6373 21.9997 21.2882 22H19.9816C19.7671 22 19.5766 21.8633 19.508 21.6602L18.9074 19.8838H15.2755L14.6622 21.6631C14.5927 21.8648 14.4029 22 14.1896 22H12.9386C12.5893 22 12.347 21.6511 12.4699 21.3242L15.8683 12.3135C15.9418 12.119 16.1281 11.9903 16.3361 11.9902H17.8898ZM17.0773 14.2637C16.8914 14.993 16.6192 15.9227 16.1759 17.2383L15.8615 18.1533H18.3068L17.964 17.1387C17.5493 15.9232 17.2778 14.993 17.0919 14.2637H17.0773Z" fill="oklch(0.3523 0 0 / 1)" class="wd-icon-accent"></path>
</svg>