<svg width="24" height="24" viewBox="0 0 24 24" xmlns="http://www.w3.org/2000/svg" class="wd-icon wd-icon-table-axis" role="presentation">
<g>
<path d="M19.5 5C20.3284 5 21 5.67157 21 6.5V19.5C21 20.3284 20.3284 21 19.5 21H6.5C5.67157 21 5 20.3284 5 19.5V6.5C5 5.67157 5.67157 5 6.5 5H19.5ZM7 19H12V14H7V19ZM14 19H19V14H14V19ZM7 12H12V7H7V12ZM14 12H19V7H14V12Z" fill="oklch(0.3523 0 0 / 1)" class="wd-icon-fill"></path>
<path d="M2.5 14C2.77614 14 3 14.2239 3 14.5V18.5C3 18.7761 2.77614 19 2.5 19H1.5C1.22386 19 1 18.7761 1 18.5V14.5C1 14.2239 1.22386 14 1.5 14H2.5Z" fill="oklch(0.3523 0 0 / 1)" class="wd-icon-fill"></path>
<path d="M2.5 7C2.77614 7 3 7.22386 3 7.5V11.5C3 11.7761 2.77614 12 2.5 12H1.5C1.22386 12 1 11.7761 1 11.5V7.5C1 7.22386 1.22386 7 1.5 7H2.5Z" fill="oklch(0.3523 0 0 / 1)" class="wd-icon-fill"></path>
<path d="M11.5 1C11.7761 1 12 1.22386 12 1.5V2.5C12 2.77614 11.7761 3 11.5 3H7.5C7.22386 3 7 2.77614 7 2.5V1.5C7 1.22386 7.22386 1 7.5 1H11.5Z" fill="oklch(0.3523 0 0 / 1)" class="wd-icon-fill"></path>
<path d="M18.5 1C18.7761 1 19 1.22386 19 1.5V2.5C19 2.77614 18.7761 3 18.5 3H14.5C14.2239 3 14 2.77614 14 2.5V1.5C14 1.22386 14.2239 1 14.5 1H18.5Z" fill="oklch(0.3523 0 0 / 1)" class="wd-icon-fill"></path>
</g>
</svg>