<svg width="24" height="24" viewBox="0 0 24 24" xmlns="http://www.w3.org/2000/svg" class="wd-icon wd-icon-pin-strikethrough" role="presentation">
<g>
<path d="M7.09082 11.873C7.59464 11.6473 8.18609 11.8724 8.41211 12.376C8.62385 12.8485 8.43934 13.3985 8 13.6514L7.90918 13.6973C7.90827 13.6976 7.90718 13.6983 7.90527 13.6992C7.90004 13.7016 7.89107 13.7056 7.87988 13.7109C7.85603 13.7224 7.82138 13.7396 7.7832 13.7598C7.69529 13.8062 7.63025 13.8472 7.60352 13.8682C6.94375 14.3867 6.54422 15.1654 6.50391 15.999H12V16.0322C12.1836 16.0564 12.3875 16.104 12.5918 16.2041C13.1013 16.454 13.4811 16.9091 13.6357 17.4551C13.7175 17.7441 13.7079 18.0165 13.6846 18.2383C13.662 18.4529 13.6158 18.7072 13.5674 18.9727L13.1396 21.3164C13.12 21.424 13.0974 21.5535 13.0723 21.6553C13.0599 21.7054 13.0355 21.7944 12.9941 21.8896C12.9698 21.9456 12.8832 22.1451 12.6758 22.3096L12.5791 22.377L12.4424 22.4492C12.1131 22.5944 11.7292 22.5704 11.418 22.377C11.1403 22.2042 11.0306 21.9533 11.0029 21.8896C10.9616 21.7944 10.9382 21.7053 10.9258 21.6553C10.9006 21.5534 10.877 21.424 10.8574 21.3164L10.2529 17.999H6.36035C5.33305 17.9986 4.5 17.1661 4.5 16.1387C4.5 14.6391 5.1891 13.2224 6.36816 12.2959C6.53825 12.1623 6.73009 12.0543 6.84961 11.9912C6.91502 11.9567 6.97287 11.9282 7.01465 11.9082C7.03554 11.8982 7.05349 11.8898 7.06641 11.8838C7.07246 11.881 7.078 11.8788 7.08203 11.877L7.09082 11.873Z" fill="oklch(0.3523 0 0 / 1)" class="wd-icon-fill"></path>
<path d="M15.9043 2.99902C17.1147 2.99927 17.9962 4.14681 17.6846 5.31641L16.627 9.28125C16.3296 10.3965 16.7253 11.5827 17.6328 12.2959C18.812 13.2224 19.5009 14.6391 19.501 16.1387V16.7822C19.5009 17.141 19.3437 17.4619 19.0967 17.6846L17.4111 15.999H17.4971C17.4568 15.1653 17.0574 14.3867 16.3975 13.8682C14.8611 12.6608 14.1919 10.6536 14.6953 8.76562L15.6992 4.99902H8.30273L8.99121 7.58301L6.25586 4.84863C6.25028 3.85915 7.05012 2.9994 8.09766 2.99902H15.9043Z" fill="oklch(0.3523 0 0 / 1)" class="wd-icon-fill"></path>
</g>
<path d="M3.28403 3.2917C3.6745 2.90152 4.30763 2.9014 4.69809 3.2917L20.701 19.2878C21.0914 19.678 21.0919 20.3112 20.702 20.7019C20.3117 21.0923 19.6786 21.0929 19.2879 20.7028L3.28403 4.70576C2.89357 4.31531 2.89364 3.68226 3.28403 3.2917Z" fill="oklch(0.3523 0 0 / 1)" class="wd-icon-accent"></path>
</svg>