<svg width="24" height="24" viewBox="0 0 24 24" xmlns="http://www.w3.org/2000/svg" class="wd-icon wd-icon-canvas" role="presentation">
<path d="M16 1C16.5523 1 17 1.44772 17 2V7.5C17 7.77614 16.7761 8 16.5 8H11C10.4477 8 10 8.44772 10 9V14C10 14.5523 10.4477 15 11 15H16C16.5523 15 17 15.4477 17 16V21.0664C17 21.5819 16.5819 22 16.0664 22C8.85009 21.9999 3.00014 16.1499 3 8.93359C3 8.41813 3.41813 8 3.93359 8H9C9.55228 8 10 7.55228 10 7V2C10 1.44772 10.4477 1 11 1H16Z" fill="oklch(0.3523 0 0 / 1)" class="wd-icon-fill"></path>
</svg>