<svg width="24" height="24" viewBox="0 0 24 24" xmlns="http://www.w3.org/2000/svg" class="wd-icon wd-icon-link" role="presentation">
<g>
<path d="M7.42717 8.95458C7.72495 8.87783 8.00108 9.11391 8.00139 9.42138V10.477C8.00147 10.7084 7.84151 10.9064 7.62248 10.9809C7.02609 11.184 6.46626 11.524 5.99065 11.9995L4.22209 13.7671C2.56251 15.4268 2.56246 18.1181 4.22209 19.7778C5.88178 21.4375 8.5731 21.4374 10.2328 19.7778L12.0004 18.0102C12.4762 17.5344 12.8152 16.9732 13.018 16.3765C13.0924 16.1575 13.2907 15.9976 13.5219 15.9976L14.5776 15.9985C14.8851 15.9986 15.1209 16.274 15.0444 16.5718C14.7752 17.6166 14.2327 18.6061 13.4145 19.4243L11.6469 21.1919C9.20611 23.6325 5.24877 23.6326 2.80803 21.1919C0.367353 18.7511 0.367397 14.7938 2.80803 12.353L4.57561 10.5854C5.39367 9.76742 6.38255 9.22392 7.42717 8.95458Z" fill="oklch(0.3523 0 0 / 1)" class="wd-icon-fill"></path>
<path d="M15.8891 6.69579C16.0843 6.50055 16.4018 6.50055 16.5971 6.69579L17.3041 7.4038C17.499 7.59909 17.4992 7.9157 17.3041 8.11083L8.11174 17.3032C7.91661 17.4983 7.60001 17.4981 7.40471 17.3032L6.6967 16.5962C6.50145 16.4009 6.50145 16.0834 6.6967 15.8882L15.8891 6.69579Z" fill="oklch(0.3523 0 0 / 1)" class="wd-icon-fill"></path>
<path d="M12.3539 2.80712C14.7947 0.36636 18.752 0.366393 21.1928 2.80712C23.6336 5.2479 23.6336 9.20521 21.1928 11.646L19.4252 13.4136C18.6057 14.2331 17.6145 14.7758 16.5678 15.0444C16.27 15.1207 15.9946 14.8851 15.9946 14.5776V13.5229C15.9946 13.2916 16.1544 13.0935 16.3735 13.019C16.9716 12.8163 17.5343 12.4763 18.0112 11.9995L19.7787 10.2319C21.4385 8.5722 21.4385 5.88091 19.7787 4.22118C18.119 2.5615 15.4277 2.56147 13.768 4.22118L12.0004 5.98876C11.5237 6.46544 11.1838 7.02756 10.9809 7.62548C10.9065 7.84456 10.7083 8.00421 10.477 8.00439H9.42229C9.11474 8.00439 8.87801 7.72901 8.95452 7.43114C9.2234 6.38468 9.767 5.39405 10.5864 4.5747L12.3539 2.80712Z" fill="oklch(0.3523 0 0 / 1)" class="wd-icon-fill"></path>
</g>
</svg>