<svg width="24" height="24" viewBox="0 0 24 24" xmlns="http://www.w3.org/2000/svg" class="wd-icon wd-icon-note" role="presentation">
<path d="M16.7998 3C17.3434 3 17.8116 2.99893 18.1953 3.03028C18.5906 3.06259 18.984 3.1344 19.3623 3.32715C19.9265 3.61473 20.3853 4.07348 20.6729 4.6377C20.8656 5.016 20.9374 5.40943 20.9697 5.80469C21.0011 6.18836 21 6.65665 21 7.2002V12.5117C21 13.1979 21.0066 13.7043 20.8897 14.1914C20.7917 14.5995 20.6294 14.9898 20.4102 15.3477C20.1484 15.7746 19.7858 16.1282 19.3008 16.6133L16.6133 19.3008C16.1282 19.7858 15.7746 20.1484 15.3477 20.4102C14.9898 20.6294 14.5995 20.7917 14.1914 20.8897C13.7043 21.0066 13.1979 21 12.5117 21H7.2002C6.65665 21 6.18836 21.0011 5.80469 20.9697C5.40943 20.9374 5.016 20.8656 4.6377 20.6729C4.07348 20.3853 3.61473 19.9265 3.32715 19.3623C3.1344 18.984 3.06259 18.5906 3.03028 18.1953C2.99893 17.8116 3 17.3434 3 16.7998V7.2002C3 6.65665 2.99893 6.18836 3.03028 5.80469C3.06259 5.40943 3.1344 5.016 3.32715 4.6377C3.61473 4.07348 4.07348 3.61473 4.6377 3.32715C5.016 3.1344 5.40943 3.06259 5.80469 3.03028C6.18836 2.99893 6.65665 3 7.2002 3H16.7998ZM7.2002 5C6.62365 5 6.25112 5.00127 5.96778 5.02442C5.69619 5.04662 5.59534 5.08419 5.5459 5.10938C5.35793 5.20522 5.20522 5.35793 5.10938 5.5459C5.08419 5.59534 5.04662 5.69619 5.02442 5.96778C5.00127 6.25112 5 6.62365 5 7.2002V16.7998C5 17.3764 5.00127 17.7489 5.02442 18.0322C5.04662 18.3038 5.08419 18.4047 5.10938 18.4541C5.20522 18.6421 5.35793 18.7948 5.5459 18.8906C5.59534 18.9158 5.69619 18.9534 5.96778 18.9756C6.25112 18.9987 6.62365 19 7.2002 19H12V15C12 13.3432 13.3432 12 15 12H19V7.2002C19 6.62365 18.9987 6.25112 18.9756 5.96778C18.9534 5.69619 18.9158 5.59534 18.8906 5.5459C18.7948 5.35793 18.6421 5.20522 18.4541 5.10938C18.4047 5.08419 18.3038 5.04662 18.0322 5.02442C17.7489 5.00127 17.3764 5 16.7998 5H7.2002ZM15 13.5C14.1716 13.5 13.5 14.1716 13.5 15V18.9775C13.5895 18.9693 13.6585 18.9602 13.7246 18.9443C13.9285 18.8953 14.1239 18.8147 14.3027 18.7051C14.481 18.5958 14.6471 18.4389 15.1992 17.8867L17.8867 15.1992C18.4389 14.6471 18.5958 14.481 18.7051 14.3027C18.8147 14.1239 18.8953 13.9285 18.9443 13.7246C18.9602 13.6585 18.9703 13.5896 18.9785 13.5H15Z" fill="oklch(0.3523 0 0 / 1)" class="wd-icon-fill"></path>
</svg>