<svg width="24" height="24" viewBox="0 0 24 24" xmlns="http://www.w3.org/2000/svg" class="wd-icon wd-icon-closed-caption-fill" role="presentation">
<path d="M16.2002 4C17.0237 4 17.7016 3.99898 18.252 4.04395C18.814 4.08988 19.3311 4.18828 19.8164 4.43555C20.5689 4.81901 21.181 5.4311 21.5645 6.1836C21.8117 6.6689 21.9101 7.186 21.9561 7.74805C22.001 8.29842 22 8.97632 22 9.79981V14.2002C22 15.0237 22.001 15.7016 21.9561 16.252C21.9101 16.814 21.8117 17.3311 21.5645 17.8164C21.181 18.5689 20.5689 19.181 19.8164 19.5645C19.3311 19.8117 18.814 19.9101 18.252 19.9561C17.7016 20.001 17.0237 20 16.2002 20H7.79981C6.97632 20 6.29843 20.001 5.74805 19.9561C5.186 19.9101 4.6689 19.8117 4.1836 19.5645C3.4311 19.181 2.81901 18.5689 2.43555 17.8164C2.18828 17.3311 2.08988 16.814 2.04395 16.252C1.99898 15.7016 2 15.0237 2 14.2002V9.79981C2 8.97632 1.99898 8.29843 2.04395 7.74805C2.08988 7.186 2.18828 6.6689 2.43555 6.1836C2.81902 5.43109 3.43109 4.81902 4.1836 4.43555C4.6689 4.18828 5.186 4.08988 5.74805 4.04395C6.29842 3.99898 6.97632 4 7.79981 4H16.2002ZM9.08301 8.85059C7.36052 8.85078 6 10.2815 6 12.001C6.00046 13.7201 7.36081 15.1502 9.08301 15.1504C9.95265 15.1504 10.7362 14.7816 11.293 14.1973C11.5784 13.8976 11.5669 13.4234 11.2676 13.1377C10.9677 12.852 10.4927 12.8632 10.207 13.1631C9.91686 13.4675 9.51888 13.6504 9.08301 13.6504C8.22875 13.6502 7.50045 12.9318 7.5 12.001C7.5 11.0698 8.22848 10.3508 9.08301 10.3506C9.51895 10.3506 9.91684 10.5334 10.207 10.8379C10.4927 11.1375 10.9677 11.1496 11.2676 10.8643C11.5674 10.5786 11.5784 10.1036 11.293 9.80371C10.7362 9.21926 9.95278 8.85059 9.08301 8.85059ZM15.583 8.85059C13.8605 8.85078 12.5 10.2815 12.5 12.001C12.5005 13.7201 13.8608 15.1502 15.583 15.1504C16.4527 15.1504 17.2362 14.7816 17.793 14.1973C18.0784 13.8976 18.0669 13.4234 17.7676 13.1377C17.4677 12.852 16.9927 12.8632 16.707 13.1631C16.4169 13.4675 16.0189 13.6504 15.583 13.6504C14.7287 13.6502 14.0004 12.9318 14 12.001C14 11.0698 14.7285 10.3508 15.583 10.3506C16.0189 10.3506 16.4168 10.5334 16.707 10.8379C16.9927 11.1375 17.4677 11.1496 17.7676 10.8643C18.0674 10.5786 18.0784 10.1036 17.793 9.80371C17.2362 9.21926 16.4528 8.85059 15.583 8.85059Z" fill="oklch(0.3523 0 0 / 1)" class="wd-icon-fill"></path>
</svg>