<svg width="24" height="24" viewBox="0 0 24 24" xmlns="http://www.w3.org/2000/svg" class="wd-icon wd-icon-clipboard-chart" role="presentation">
<g>
<path d="M15.8721 4C16.4077 4.00014 16.7609 4.00226 17.0322 4.02441C17.3035 4.0466 17.4046 4.08419 17.4541 4.10938C17.642 4.20521 17.7948 4.35799 17.8906 4.5459C17.9158 4.59535 17.9534 4.69629 17.9756 4.96777C17.9987 5.25111 18 5.62365 18 6.2002V18.7998C18 19.3763 17.9987 19.7489 17.9756 20.0322C17.9534 20.3037 17.9158 20.4046 17.8906 20.4541C17.7948 20.642 17.642 20.7948 17.4541 20.8906C17.4046 20.9158 17.3035 20.9534 17.0322 20.9756C16.7489 20.9987 16.3762 21 15.7998 21H8.2002C7.6238 21 7.25108 20.9987 6.96777 20.9756C6.69647 20.9534 6.59536 20.9158 6.5459 20.8906C6.358 20.7948 6.2052 20.642 6.10938 20.4541C6.08419 20.4046 6.0466 20.3037 6.02441 20.0322C6.00127 19.7489 6 19.3763 6 18.7998V6.2002C6 5.62365 6.00126 5.25111 6.02441 4.96777C6.0466 4.69628 6.08419 4.59535 6.10938 4.5459C6.20519 4.35799 6.35801 4.20522 6.5459 4.10938C6.59536 4.08419 6.69652 4.0466 6.96777 4.02441C7.23957 4.00222 7.59357 4.00013 8.13086 4C8.05905 4.27981 8.01704 4.56821 8.00684 4.86035C8.00344 4.91149 8.00098 4.95845 8.00098 5V6C8.00098 7.03522 8.78709 7.88775 9.79785 7.99023C9.81535 7.992 9.83302 7.9933 9.85059 7.99414L9.95312 7.99902C9.96893 7.99978 9.98516 8 10.001 8H14C15.1033 8 16.001 7.10584 16.001 6V5C16.001 4.65953 15.9559 4.32404 15.8721 4ZM9 12.25C8.58579 12.25 8.25 12.5858 8.25 13V16C8.25 16.4142 8.58579 16.75 9 16.75C9.41421 16.75 9.75 16.4142 9.75 16V13C9.75 12.5858 9.41421 12.25 9 12.25ZM12 10.25C11.5858 10.25 11.25 10.5858 11.25 11V16C11.25 16.4142 11.5858 16.75 12 16.75C12.4142 16.75 12.75 16.4142 12.75 16V11C12.75 10.5858 12.4142 10.25 12 10.25ZM15 13.25C14.5858 13.25 14.25 13.5858 14.25 14V16C14.25 16.4142 14.5858 16.75 15 16.75C15.4142 16.75 15.75 16.4142 15.75 16V14C15.75 13.5858 15.4142 13.25 15 13.25Z" fill="transparent" class="wd-icon-background"></path>
<path d="M12.1982 3.00977C12.656 3.05527 13.0868 3.25773 13.415 3.58594L13.5479 3.73242C13.8397 4.08852 14.001 4.5362 14.001 5V6H10.0283L10.001 5.99805V4.99902C10.0033 4.97638 10.0041 4.95341 10.0049 4.93066C10.0226 4.42254 10.2298 3.94225 10.5859 3.58594L10.7324 3.45312C11.0884 3.16145 11.5368 3.00003 12.001 3L12.1982 3.00977Z" fill="transparent" class="wd-icon-background"></path>
</g>
<path d="M12.001 1C12.9773 1.00015 13.9164 1.35835 14.6445 2H15.7998C16.3432 2 16.8117 1.99894 17.1953 2.03027C17.5905 2.06259 17.9841 2.13446 18.3623 2.32715C18.9265 2.61472 19.3853 3.07354 19.6729 3.6377C19.8656 4.01597 19.9374 4.40946 19.9697 4.80469C20.0011 5.18836 20 5.65665 20 6.2002V18.7998C20 19.3433 20.0011 19.8116 19.9697 20.1953C19.9374 20.5906 19.8656 20.984 19.6729 21.3623C19.3853 21.9265 18.9265 22.3853 18.3623 22.6729C17.9841 22.8655 17.5905 22.9374 17.1953 22.9697C16.8117 23.0011 16.3432 23 15.7998 23H8.2002C7.65677 23 7.18831 23.0011 6.80469 22.9697C6.40952 22.9374 6.01592 22.8655 5.6377 22.6729C5.07355 22.3853 4.61471 21.9265 4.32715 21.3623C4.13443 20.984 4.06259 20.5905 4.03028 20.1953C3.99893 19.8116 4 19.3433 4 18.7998V6.2002C4.00001 5.65665 3.99893 5.18835 4.03028 4.80469C4.06259 4.40945 4.13442 4.01598 4.32715 3.6377C4.6147 3.07354 5.07357 2.61473 5.6377 2.32715C6.01589 2.13447 6.40955 2.06259 6.80469 2.03027C7.1883 1.99894 7.65677 2 8.2002 2H9.35645C10.0849 1.35808 11.0245 1.00004 12.001 1ZM15.8721 4C15.9559 4.32404 16.001 4.65953 16.001 5V6C16.001 7.10584 15.1033 8 14 8H10.001C9.98517 8 9.96892 7.99978 9.95313 7.99902L9.85059 7.99414C9.83303 7.9933 9.81534 7.992 9.79786 7.99023C8.7871 7.88774 8.00098 7.03521 8.00098 6V5C8.00098 4.95845 8.00442 4.91149 8.00782 4.86035C8.01803 4.56821 8.05906 4.27981 8.13086 4C7.59358 4.00013 7.23957 4.00222 6.96778 4.02441C6.69654 4.0466 6.59536 4.08419 6.5459 4.10938C6.35802 4.20522 6.20519 4.358 6.10938 4.5459C6.08419 4.59536 6.04661 4.6963 6.02442 4.96777C6.00127 5.25111 6.00001 5.62365 6 6.2002V18.7998C6 19.3763 6.00127 19.7489 6.02442 20.0322C6.0466 20.3037 6.08419 20.4046 6.10938 20.4541C6.2052 20.642 6.35801 20.7948 6.5459 20.8906C6.59537 20.9158 6.69649 20.9534 6.96778 20.9756C7.25108 20.9987 7.62381 21 8.2002 21H15.7998C16.3762 21 16.7489 20.9987 17.0322 20.9756C17.3034 20.9534 17.4046 20.9158 17.4541 20.8906C17.642 20.7948 17.7948 20.642 17.8906 20.4541C17.9158 20.4046 17.9534 20.3037 17.9756 20.0322C17.9987 19.7489 18 19.3763 18 18.7998V6.2002C18 5.62365 17.9987 5.25111 17.9756 4.96777C17.9534 4.69629 17.9158 4.59535 17.8906 4.5459C17.7948 4.35799 17.642 4.20521 17.4541 4.10938C17.4046 4.08419 17.3035 4.04659 17.0322 4.02441C16.761 4.00226 16.4076 4.00014 15.8721 4ZM12.001 3C11.5368 3.00003 11.0884 3.16145 10.7324 3.45312L10.5859 3.58594C10.2298 3.94225 10.0226 4.42255 10.0049 4.93066C10.0041 4.95341 10.0033 4.97638 10.001 4.99902V5.99805L10.0283 6H14.001V5C14.001 4.5362 13.8397 4.08852 13.5479 3.73242L13.415 3.58594C13.0868 3.25774 12.656 3.05526 12.1982 3.00977L12.001 3Z" fill="oklch(0.3523 0 0 / 1)" class="wd-icon-fill"></path>
<g>
<path d="M9 12.25C9.41421 12.25 9.75 12.5858 9.75 13V16C9.75 16.4142 9.41421 16.75 9 16.75C8.58579 16.75 8.25 16.4142 8.25 16V13C8.25 12.5858 8.58579 12.25 9 12.25Z" fill="oklch(0.3523 0 0 / 1)" class="wd-icon-accent"></path>
<path d="M12 10.25C12.4142 10.25 12.75 10.5858 12.75 11V16C12.75 16.4142 12.4142 16.75 12 16.75C11.5858 16.75 11.25 16.4142 11.25 16V11C11.25 10.5858 11.5858 10.25 12 10.25Z" fill="oklch(0.3523 0 0 / 1)" class="wd-icon-accent"></path>
<path d="M15 13.25C15.4142 13.25 15.75 13.5858 15.75 14V16C15.75 16.4142 15.4142 16.75 15 16.75C14.5858 16.75 14.25 16.4142 14.25 16V14C14.25 13.5858 14.5858 13.25 15 13.25Z" fill="oklch(0.3523 0 0 / 1)" class="wd-icon-accent"></path>
</g>
</svg>