<svg width="24" height="24" viewBox="0 0 24 24" xmlns="http://www.w3.org/2000/svg" class="wd-icon wd-icon-pdf" role="presentation">
<g>
<path d="M5.5 18C5.77614 18 6 18.2239 6 18.5V21H18V18.5C18 18.2239 18.2239 18 18.5 18H19.5C19.7761 18 20 18.2239 20 18.5V21.5C20 22.3284 19.3284 23 18.5 23H5.5C4.67157 23 4 22.3284 4 21.5V18.5C4 18.2239 4.22386 18 4.5 18H5.5Z" fill="oklch(0.3523 0 0 / 1)" class="wd-icon-fill"></path>
<path d="M5.80566 8C7.40566 8 8.55957 8.93758 8.55957 10.5947C8.55937 12.263 7.40552 13.1885 5.80566 13.1885H4V15.5C4 15.7761 3.77614 16 3.5 16H2.5C2.22386 16 2 15.7761 2 15.5V8.5C2 8.22386 2.22386 8 2.5 8H5.80566ZM4 11.6689H5.26855C6.0341 11.6689 6.50272 11.2459 6.50293 10.5947C6.50293 9.9433 6.03427 9.51953 5.26855 9.51953H4V11.6689Z" fill="oklch(0.3523 0 0 / 1)" class="wd-icon-fill"></path>
<path d="M12.3145 8C14.5544 8.00007 16.2227 9.44006 16.2227 12C16.2227 14.5599 14.5544 15.9999 12.3145 16H9.5C9.22386 16 9 15.7761 9 15.5V8.5C9 8.22386 9.22386 8 9.5 8H12.3145ZM11 14.4805H12.04C13.3886 14.4805 14.0742 13.6457 14.0742 12C14.0742 10.3429 13.3886 9.51955 12.04 9.51953H11V14.4805Z" fill="oklch(0.3523 0 0 / 1)" class="wd-icon-fill"></path>
<path d="M22.5 8C22.7761 8 23 8.22386 23 8.5V9C23 9.27614 22.7761 9.5 22.5 9.5H19V11H21.5C21.7761 11 22 11.2239 22 11.5V12C22 12.2761 21.7761 12.5 21.5 12.5H19V15.5C19 15.7761 18.7761 16 18.5 16H17.5C17.2239 16 17 15.7761 17 15.5V8.5C17 8.22386 17.2239 8 17.5 8H22.5Z" fill="oklch(0.3523 0 0 / 1)" class="wd-icon-fill"></path>
<path d="M18.5 1C19.3284 1 20 1.67157 20 2.5V5.5C20 5.77614 19.7761 6 19.5 6H18.5C18.2239 6 18 5.77614 18 5.5V3H6V5.5C6 5.77614 5.77614 6 5.5 6H4.5C4.22386 6 4 5.77614 4 5.5V2.5C4 1.67157 4.67157 1 5.5 1H18.5Z" fill="oklch(0.3523 0 0 / 1)" class="wd-icon-fill"></path>
</g>
</svg>