<svg width="24" height="24" viewBox="0 0 24 24" xmlns="http://www.w3.org/2000/svg" class="wd-icon wd-icon-user" role="presentation">
<g>
<path d="M16.0001 6C16.0001 8.20914 14.2093 10 12.0001 10C9.79098 10 8.00012 8.20914 8.00012 6C8.00012 3.79086 9.79098 2 12.0001 2C14.2093 2 16.0001 3.79086 16.0001 6Z" fill="transparent" class="wd-icon-background"></path>
<path d="M3.00012 16.661C3.00012 16.5188 3.06036 16.3829 3.16788 16.2898C5.53529 14.2401 8.62288 13 12.0001 13C15.3774 13 18.465 14.2401 20.8324 16.2898C20.9399 16.3829 21.0001 16.5188 21.0001 16.661V20.5C21.0001 20.7761 20.7763 21 20.5001 21H3.50012C3.22398 21 3.00012 20.7761 3.00012 20.5V16.661Z" fill="transparent" class="wd-icon-background"></path>
<path d="M21.0001 16.661C21.0001 16.5188 20.9399 16.3829 20.8324 16.2898C18.465 14.2401 15.3774 13 12.0001 13C8.62288 13 5.53529 14.2401 3.16788 16.2898C3.06036 16.3829 3.00012 16.5188 3.00012 16.661V20.5C3.00012 20.7761 3.22398 21 3.50012 21H20.5001C20.7763 21 21.0001 20.7761 21.0001 20.5V16.661Z" fill="transparent" class="wd-icon-background"></path>
</g>
<g>
<path d="M12 12C15.6266 12 18.9441 13.3331 21.4863 15.5342C21.8199 15.823 22 16.2376 22 16.6611V20.5C22 21.3284 21.3284 22 20.5 22H3.5C2.72334 22 2.08461 21.4097 2.00781 20.6533L2 20.5V16.6611L2.00879 16.5029C2.04773 16.1358 2.2218 15.7869 2.51367 15.5342L2.99902 15.1318C5.47159 13.1717 8.59996 12 12 12ZM12 14C8.95518 14 6.16846 15.0895 4 16.8984V20H20V16.8984C17.8315 15.0895 15.0448 14 12 14Z" fill="oklch(0.3523 0 0 / 1)" class="wd-icon-fill"></path>
<path d="M12 1C14.7614 1 17 3.23858 17 6C17 8.76142 14.7614 11 12 11C9.23858 11 7 8.76142 7 6C7 3.23858 9.23858 1 12 1ZM12 3C10.3431 3 9 4.34315 9 6C9 7.65685 10.3431 9 12 9C13.6569 9 15 7.65685 15 6C15 4.34315 13.6569 3 12 3Z" fill="oklch(0.3523 0 0 / 1)" class="wd-icon-fill"></path>
</g>
</svg>