<svg width="24" height="24" viewBox="0 0 24 24" xmlns="http://www.w3.org/2000/svg" class="wd-icon wd-icon-strikethrough" role="presentation">
<path d="M11.623 2.79785C12.9687 2.79785 14.3137 3.12127 15.4473 3.89551L15.4463 3.89648C16.4412 4.56323 17.1828 5.5327 17.5029 6.70312C17.6666 7.30238 17.3131 7.92112 16.7139 8.08496C16.1147 8.24858 15.496 7.89595 15.332 7.29688C15.1651 6.6865 14.7735 6.15091 14.1885 5.76074L14.1777 5.75391C13.4947 5.28739 12.6185 5.04785 11.623 5.04785C10.7789 5.04791 10.0201 5.23401 9.41992 5.59473L9.4043 5.60449L9.3877 5.61328C8.99576 5.83166 8.70135 6.10371 8.4834 6.42871C8.23222 6.81051 8.10449 7.23471 8.10449 7.73047C8.10459 8.26129 8.2258 8.62543 8.40332 8.88672C8.58731 9.14944 8.92169 9.43849 9.50195 9.71094C10.1178 9.9877 11.0168 10.2625 12.2334 10.5215L12.2383 10.5225C12.9031 10.6668 13.5116 10.8259 14.0596 11H20C20.5523 11 21 11.4477 21 12C21 12.5523 20.5523 13 20 13H17.3301C17.3748 13.06 17.4204 13.1198 17.4619 13.1826H17.4639C17.9837 13.9451 18.2051 14.8529 18.2051 15.8301C18.2049 17.5808 17.3954 19.1208 15.9443 20.085L15.9434 20.084C14.7656 20.8806 13.375 21.2109 11.9512 21.2109C10.5118 21.2109 9.06896 20.8911 7.82422 20.0977C6.79298 19.445 6.03503 18.5084 5.62891 17.3818C5.41829 16.7975 5.72152 16.1533 6.30566 15.9424C6.89017 15.7317 7.53541 16.0346 7.74609 16.6191C7.95005 17.1846 8.30508 17.6698 8.80469 18.0439L9.02734 18.1973L9.03125 18.1992C9.83512 18.7123 10.8335 18.9609 11.9512 18.9609C13.0391 18.9609 13.9649 18.7089 14.6895 18.2168L14.6992 18.2109C15.5088 17.673 15.9549 16.8441 15.9551 15.8301C15.9551 15.1908 15.812 14.7547 15.6045 14.4502L15.5977 14.4404L15.5918 14.4307C15.3893 14.1199 15.0433 13.8167 14.4648 13.5596L14.4531 13.5547L14.4414 13.5488C14.0433 13.361 13.53 13.1771 12.8926 13H4C3.44772 13 3 12.5523 3 12C3 11.4477 3.44772 11 4 11H7.33691C7.03557 10.7546 6.76999 10.4795 6.55273 10.167L6.54785 10.1592C6.06394 9.45098 5.85459 8.61955 5.85449 7.73047C5.85449 6.8063 6.10545 5.94603 6.61133 5.18164L6.61523 5.17578C7.03643 4.54773 7.59225 4.0455 8.26074 3.66699C9.2824 3.05291 10.4629 2.79791 11.623 2.79785Z" fill="oklch(0.3523 0 0 / 1)" class="wd-icon-fill"></path>
</svg>