<svg width="24" height="24" viewBox="0 0 24 24" xmlns="http://www.w3.org/2000/svg" class="wd-icon wd-icon-funnel" role="presentation">
<path d="M17.2534 5C18.0464 5 18.5035 5.86532 18.1138 6.51074L18.0239 6.63672L14.3286 11.1104C13.9477 11.5715 13.6628 11.9085 13.4585 12.2979C13.2872 12.6243 13.1623 12.9732 13.0864 13.334C12.996 13.7644 13.0005 14.2064 13.0005 14.8047V16.7314L11.0005 18.6533V14.8057C11.0005 14.2073 11.005 13.7653 10.9145 13.335C10.8387 12.9742 10.7138 12.6253 10.5425 12.2988C10.3381 11.9095 10.0533 11.5725 9.67236 11.1113L5.97607 6.63672C5.43757 5.9847 5.90076 5.00006 6.74658 5H17.2534Z" fill="transparent" class="wd-icon-background"></path>
<path d="M17.2536 3C19.7908 3 21.1826 5.95378 19.5671 7.91016L15.8708 12.3838C15.4376 12.9082 15.3156 13.0648 15.2302 13.2275C15.1445 13.3908 15.0816 13.5656 15.0437 13.7461C15.0059 13.9259 15.0007 14.1247 15.0007 14.8047V16.9463C15.0003 17.357 14.8308 17.7468 14.5388 18.0273L14.5378 18.0264L11.5388 20.9082C10.5836 21.8242 9.00071 21.1452 9.00071 19.8262V14.8057C9.00071 14.1256 8.99548 13.9269 8.95774 13.7471C8.91981 13.5666 8.85691 13.3918 8.77121 13.2285C8.68579 13.0658 8.56381 12.9092 8.13059 12.3848L4.4343 7.91016C2.81879 5.95379 4.20961 3.00002 6.7468 3H17.2536ZM6.7468 5C5.90094 5.00002 5.43775 5.98469 5.97629 6.63672L9.67258 11.1113C10.0535 11.5725 10.3383 11.9095 10.5427 12.2988C10.714 12.6253 10.8389 12.9742 10.9148 13.335C11.0052 13.7653 11.0007 14.2073 11.0007 14.8057V18.6533L13.0007 16.7314V14.8047C13.0007 14.2064 12.9962 13.7644 13.0866 13.334C13.1625 12.9732 13.2874 12.6243 13.4587 12.2979C13.6631 11.9085 13.9479 11.5715 14.3288 11.1104L18.0241 6.63672L18.114 6.51074C18.5037 5.86532 18.0467 5 17.2536 5H6.7468Z" fill="oklch(0.3523 0 0 / 1)" class="wd-icon-fill"></path>
</svg>