<svg width="24" height="24" viewBox="0 0 24 24" xmlns="http://www.w3.org/2000/svg" class="wd-icon wd-icon-thumbs-up-fill" role="presentation">
<path d="M11.6436 1.12946L11.8389 1.17634L12.085 1.26032C13.3033 1.72447 14.2869 2.80138 14.4219 4.24958C14.5338 5.45185 14.5272 6.66913 14.4072 7.8697L16.7832 7.55329C19.4737 7.19505 21.7316 9.56359 21.2461 12.234L20.4316 16.7154C20.0964 18.558 18.5313 19.9128 16.6768 19.9957L16.4961 19.9996H6C4.34315 19.9996 3 18.6564 3 16.9996V10.9996C3.00023 9.34292 4.34329 7.99958 6 7.99958H8.38281L9.0498 6.66364C9.67443 5.41425 9.99987 4.03599 10 2.63923V2.5777C10.0002 1.8053 10.6839 0.963874 11.6436 1.12946ZM6 9.99958C5.44786 9.99958 5.00023 10.4475 5 10.9996V16.9996C5 17.5519 5.44772 17.9996 6 17.9996H7.5V9.99958H6Z" fill="oklch(0.3523 0 0 / 1)" class="wd-icon-fill"></path>
</svg>