<svg width="24" height="24" viewBox="0 0 24 24" xmlns="http://www.w3.org/2000/svg" class="wd-icon wd-icon-line-spacing-shrink" role="presentation">
<g>
<path d="M7.29279 14.293C7.68333 13.9026 8.31639 13.9025 8.70685 14.293L11.7069 17.293C12.0972 17.6834 12.0972 18.3165 11.7069 18.707C11.3163 19.0974 10.6833 19.0974 10.2928 18.707L8.99982 17.4141V21C8.99969 21.5521 8.55193 21.9999 7.99982 22C7.44765 22 6.99995 21.5522 6.99982 21V17.4141L5.70685 18.707C5.31636 19.0973 4.68326 19.0973 4.29279 18.707C3.90234 18.3166 3.90247 17.6835 4.29279 17.293L7.29279 14.293Z" fill="oklch(0.3523 0 0 / 1)" class="wd-icon-fill"></path>
<path d="M17.9998 13C18.5521 13 18.9998 13.4477 18.9998 14C18.9998 14.5523 18.5521 15 17.9998 15H12.9998C12.4475 15 11.9998 14.5523 11.9998 14C11.9998 13.4477 12.4475 13 12.9998 13H17.9998Z" fill="oklch(0.3523 0 0 / 1)" class="wd-icon-fill"></path>
<path d="M21.9998 9C22.5521 9 22.9998 9.44772 22.9998 10C22.9998 10.5523 22.5521 11 21.9998 11H12.9998C12.4475 11 11.9998 10.5523 11.9998 10C11.9998 9.44772 12.4475 9 12.9998 9H21.9998Z" fill="oklch(0.3523 0 0 / 1)" class="wd-icon-fill"></path>
<path d="M7.99982 2C8.55193 2.00012 8.99969 2.4479 8.99982 3V6.58594L10.2928 5.29297C10.6833 4.90259 11.3163 4.90263 11.7069 5.29297C12.0972 5.68348 12.0972 6.31656 11.7069 6.70703L8.70685 9.70703C8.31639 10.0975 7.68333 10.0974 7.29279 9.70703L4.29279 6.70703C3.90247 6.31649 3.90234 5.68343 4.29279 5.29297C4.68326 4.90266 5.31636 4.9027 5.70685 5.29297L6.99982 6.58594V3C6.99995 2.44785 7.44765 2.00004 7.99982 2Z" fill="oklch(0.3523 0 0 / 1)" class="wd-icon-fill"></path>
</g>
</svg>