<svg width="24" height="24" viewBox="0 0 24 24" xmlns="http://www.w3.org/2000/svg" class="wd-icon wd-icon-sort-a-z" role="presentation">
<g>
<path d="M19.464 13.04C19.7399 13.0404 19.964 13.2641 19.964 13.54V14.3311C19.964 14.4402 19.9276 14.5469 19.8615 14.6338L15.5226 20.3359V20.3613H19.592C19.8677 20.3617 20.0918 20.5855 20.092 20.8613V21.5C20.092 21.7759 19.8678 21.9997 19.592 22H13.4113C13.1352 22 12.9113 21.7761 12.9113 21.5V20.6582C12.9113 20.5489 12.9467 20.4425 13.0129 20.3555L17.3527 14.6533V14.627H13.5392C13.2631 14.627 13.0392 14.4031 13.0392 14.127V13.54C13.0392 13.2639 13.2631 13.04 13.5392 13.04H19.464Z" fill="oklch(0.3523 0 0 / 1)" class="wd-icon-fill"></path>
<path d="M6.50018 5C6.77605 5.00021 7.00002 5.22412 7.00018 5.5V16.8906L9.47967 14.8613C9.69329 14.6867 10.0079 14.7182 10.1828 14.9316L10.8166 15.7061C10.9909 15.9197 10.9596 16.2344 10.7463 16.4092L6.63299 19.7754C6.4027 19.9633 6.1087 20.0337 5.83123 19.9863C5.66506 19.9581 5.50423 19.8871 5.36639 19.7744L1.25408 16.4082C1.04072 16.2334 1.00942 15.9187 1.18377 15.7051L1.50018 15.3184L1.81561 14.9316C1.99039 14.7178 2.30589 14.6865 2.51971 14.8613L5.00018 16.8906V5.5C5.00033 5.22412 5.2243 5.00021 5.50018 5H6.50018Z" fill="oklch(0.3523 0 0 / 1)" class="wd-icon-fill"></path>
<path d="M17.1603 2.04004C17.3681 2.0402 17.5546 2.16891 17.6281 2.36328L20.6301 10.3232C20.7532 10.6501 20.5115 10.9997 20.1623 11H19.1066C18.8923 10.9999 18.7017 10.8632 18.633 10.6602L18.1076 9.10547H14.8566L14.3205 10.6631C14.251 10.8647 14.0601 10.9998 13.8469 11H12.84C12.4908 10.9997 12.249 10.6501 12.3722 10.3232L15.3742 2.36328C15.4477 2.16873 15.635 2.04004 15.843 2.04004H17.1603ZM16.4699 4.0752C16.3035 4.72791 16.06 5.55995 15.6633 6.7373L15.381 7.55664H17.5705L17.2629 6.64844C16.8917 5.56051 16.649 4.72798 16.4826 4.0752H16.4699Z" fill="oklch(0.3523 0 0 / 1)" class="wd-icon-fill"></path>
</g>
</svg>