<svg width="24" height="24" viewBox="0 0 24 24" xmlns="http://www.w3.org/2000/svg" class="wd-icon wd-icon-medal" role="presentation">
<path d="M9.67214 2C10.2307 2.00001 10.74 2.3104 10.9983 2.79883L11.0462 2.89844L11.7493 4.50684L12.4534 2.89844L12.5012 2.79883C12.7595 2.31017 13.2687 2 13.8274 2H19.0003L19.1253 2.00781C19.4142 2.04423 19.6755 2.20597 19.8372 2.45312C20.0216 2.73538 20.0513 3.09145 19.9163 3.40039L16.5471 11.1016C16.3082 11.6473 15.7688 11.9999 15.1731 12H12.9993V13.0996C15.2817 13.5627 16.9993 15.5809 16.9993 18C16.9993 20.7614 14.7607 23 11.9993 23C9.23825 22.9995 6.99929 20.7611 6.99929 18C6.99929 15.5813 8.71741 13.5632 10.9993 13.0996V12H8.32644C7.73105 11.9997 7.19129 11.6469 6.95241 11.1016L3.58327 3.40039C3.44849 3.09166 3.47825 2.73522 3.66237 2.45312C3.84693 2.17093 4.16214 2.00029 4.49929 2H9.67214ZM11.9993 15C10.3428 15.0005 8.99929 16.3434 8.99929 18C8.99929 19.6566 10.3428 20.9995 11.9993 21C13.6561 21 14.9993 19.6569 14.9993 18C14.9993 16.3431 13.6561 15 11.9993 15ZM12.8577 6.96289L14.1594 10H14.846L17.4719 4H14.1546L12.8577 6.96289ZM8.65359 10H11.97L9.34499 4H6.02761L8.65359 10Z" fill="oklch(0.3523 0 0 / 1)" class="wd-icon-fill"></path>
</svg>