<svg width="24" height="24" viewBox="0 0 24 24" xmlns="http://www.w3.org/2000/svg" class="wd-icon wd-icon-pattern" role="presentation">
<g>
<path d="M12.0103 15.9395C12.0994 16.0151 12.2149 16.1304 12.4243 16.3398L13.6616 17.5771C13.8711 17.7866 13.9863 17.9021 14.062 17.9912C14.0646 17.9943 14.0665 17.9982 14.0688 18.001C14.0667 18.0037 14.0645 18.0077 14.062 18.0107C13.9863 18.0998 13.8708 18.2156 13.6616 18.4248L12.4243 19.6621C12.2151 19.8713 12.0993 19.9868 12.0103 20.0625C12.0073 20.0649 12.0032 20.0671 12.0005 20.0693C11.9977 20.067 11.9938 20.065 11.9907 20.0625C11.9016 19.9868 11.7861 19.8715 11.5767 19.6621L10.3394 18.4248C10.1299 18.2154 10.0147 18.0999 9.93896 18.0107C9.93621 18.0075 9.9336 18.0039 9.93115 18.001C9.93353 17.9981 9.93633 17.9943 9.93896 17.9912C10.0146 17.9021 10.1301 17.7864 10.3394 17.5771L11.5767 16.3398C11.7859 16.1306 11.9016 16.0151 11.9907 15.9395C11.9939 15.9368 11.9976 15.934 12.0005 15.9316C12.0034 15.9341 12.007 15.9367 12.0103 15.9395Z" fill="transparent" class="wd-icon-background"></path>
<path d="M6.01025 9.93945C6.09938 10.0151 6.21491 10.1304 6.42432 10.3398L7.66162 11.5771C7.87111 11.7866 7.98634 11.9021 8.06201 11.9912C8.06458 11.9943 8.06651 11.9982 8.06885 12.001C8.06665 12.0037 8.06449 12.0077 8.06201 12.0107C7.98634 12.0998 7.87084 12.2156 7.66162 12.4248L6.42432 13.6621C6.2151 13.8713 6.09934 13.9868 6.01025 14.0625C6.00728 14.0649 6.00324 14.0671 6.00049 14.0693C5.9977 14.067 5.9938 14.065 5.99072 14.0625C5.9016 13.9868 5.7861 13.8715 5.57666 13.6621L4.33936 12.4248C4.12992 12.2154 4.01466 12.0999 3.93896 12.0107C3.93621 12.0075 3.9336 12.0039 3.93115 12.001C3.93353 11.9981 3.93633 11.9943 3.93896 11.9912C4.01463 11.9021 4.1301 11.7864 4.33936 11.5771L5.57666 10.3398C5.78587 10.1306 5.90164 10.0151 5.99072 9.93945C5.99386 9.93682 5.99764 9.93398 6.00049 9.93164C6.00343 9.93406 6.00704 9.93674 6.01025 9.93945Z" fill="transparent" class="wd-icon-background"></path>
<path d="M12.0103 3.93945C12.0994 4.01515 12.2149 4.13044 12.4243 4.33984L13.6616 5.57715C13.8711 5.78663 13.9863 5.90208 14.062 5.99121C14.0646 5.99432 14.0665 5.99816 14.0688 6.00098C14.0667 6.00374 14.0645 6.00774 14.062 6.01074C13.9863 6.09983 13.8708 6.21559 13.6616 6.4248L12.4243 7.66211C12.2151 7.87133 12.0993 7.98684 12.0103 8.0625C12.0073 8.06492 12.0032 8.06712 12.0005 8.06934C11.9977 8.06704 11.9938 8.06503 11.9907 8.0625C11.9016 7.98683 11.7861 7.87155 11.5767 7.66211L10.3394 6.4248C10.1299 6.21537 10.0147 6.09987 9.93896 6.01074C9.93621 6.00749 9.9336 6.00394 9.93115 6.00098C9.93353 5.99809 9.93633 5.99435 9.93896 5.99121C10.0146 5.90212 10.1301 5.7864 10.3394 5.57715L11.5767 4.33984C11.7859 4.13063 11.9016 4.01513 11.9907 3.93945C11.9939 3.93682 11.9976 3.93398 12.0005 3.93164C12.0034 3.93406 12.007 3.93674 12.0103 3.93945Z" fill="transparent" class="wd-icon-background"></path>
</g>
<g>
<path d="M11.3816 14.0114C11.7329 13.8972 12.1082 13.8838 12.4655 13.9694L12.6179 14.0114L12.823 14.0934C13.0156 14.1849 13.1734 14.3025 13.3044 14.4137C13.4703 14.5546 13.6523 14.7372 13.8386 14.9235L15.0759 16.1608C15.2622 16.3471 15.4448 16.5291 15.5857 16.695C15.7341 16.8698 15.8939 17.0918 15.988 17.3815C16.1185 17.7832 16.1185 18.2162 15.988 18.6178C15.8939 18.9075 15.7341 19.1295 15.5857 19.3044C15.4448 19.4703 15.2622 19.6523 15.0759 19.8385L13.8386 21.0759C13.6523 21.2621 13.4703 21.4448 13.3044 21.5856C13.1296 21.734 12.9075 21.8938 12.6179 21.988C12.2162 22.1184 11.7832 22.1185 11.3816 21.988C11.0919 21.8938 10.8698 21.734 10.695 21.5856C10.5292 21.4448 10.3471 21.2621 10.1609 21.0759L8.92355 19.8385C8.73727 19.6523 8.5546 19.4702 8.41379 19.3044C8.26538 19.1295 8.10556 18.9075 8.01144 18.6178C7.88096 18.2162 7.88095 17.7832 8.01144 17.3815C8.10556 17.0918 8.26537 16.8698 8.41379 16.695C8.55461 16.5291 8.73726 16.3471 8.92355 16.1608L10.1609 14.9235C10.3471 14.7372 10.5292 14.5546 10.695 14.4137C10.8698 14.2653 11.0919 14.1055 11.3816 14.0114ZM11.99 15.9382C11.9008 16.0139 11.7855 16.129 11.5759 16.3385L10.3386 17.5759C10.129 17.7855 10.0139 17.9008 9.9382 17.9899C9.93539 17.9932 9.93289 17.9967 9.93039 17.9997C9.93289 18.0027 9.9354 18.0061 9.9382 18.0094C10.0139 18.0986 10.129 18.2139 10.3386 18.4235L11.5759 19.6608C11.7855 19.8704 11.9008 19.9855 11.99 20.0612C11.9931 20.0639 11.9969 20.0657 11.9997 20.068C12.0026 20.0657 12.0063 20.0638 12.0095 20.0612C12.0986 19.9855 12.2139 19.8704 12.4236 19.6608L13.6609 18.4235C13.8705 18.2139 13.9855 18.0986 14.0612 18.0094C14.0639 18.0063 14.0657 18.0026 14.0681 17.9997C14.0657 17.9968 14.0639 17.993 14.0612 17.9899C13.9855 17.9008 13.8704 17.7854 13.6609 17.5759L12.4236 16.3385C12.214 16.129 12.0986 16.0138 12.0095 15.9382C12.0062 15.9354 12.0027 15.9328 11.9997 15.9303C11.9967 15.9328 11.9933 15.9353 11.99 15.9382Z" fill="oklch(0.3523 0 0 / 1)" class="wd-icon-fill"></path>
<path d="M5.38156 8.0114C5.73293 7.89723 6.10823 7.88384 6.46554 7.96941L6.61789 8.0114L6.82297 8.09343C7.01562 8.18494 7.17336 8.3025 7.30441 8.41374C7.47028 8.55456 7.65231 8.73722 7.83859 8.92351L9.0759 10.1608C9.26218 10.3471 9.44483 10.5291 9.58566 10.695C9.73408 10.8698 9.89387 11.0918 9.98801 11.3815C10.1185 11.7832 10.1185 12.2162 9.98801 12.6178C9.89387 12.9075 9.73409 13.1295 9.58566 13.3044C9.44483 13.4702 9.26219 13.6523 9.0759 13.8385L7.83859 15.0759C7.6523 15.2621 7.47029 15.4448 7.30441 15.5856C7.12958 15.734 6.90755 15.8938 6.61789 15.988C6.21625 16.1184 5.78319 16.1185 5.38156 15.988C5.09193 15.8938 4.86985 15.734 4.69504 15.5856C4.52917 15.4448 4.34713 15.2621 4.16086 15.0759L2.92355 13.8385C2.73727 13.6523 2.5546 13.4702 2.41379 13.3044C2.26538 13.1295 2.10556 12.9075 2.01144 12.6178C1.88096 12.2162 1.88095 11.7832 2.01144 11.3815C2.10556 11.0918 2.26537 10.8698 2.41379 10.695C2.55461 10.5291 2.73726 10.3471 2.92355 10.1608L4.16086 8.92351C4.34714 8.73722 4.52916 8.55458 4.69504 8.41374C4.86985 8.26534 5.09193 8.10554 5.38156 8.0114ZM5.98996 9.93816C5.9008 10.0139 5.78548 10.129 5.5759 10.3385L4.33859 11.5759C4.12898 11.7855 4.01389 11.9008 3.9382 11.9899C3.93539 11.9932 3.93289 11.9967 3.93039 11.9997C3.93289 12.0027 3.9354 12.0061 3.9382 12.0094C4.01389 12.0986 4.129 12.2139 4.33859 12.4235L5.5759 13.6608C5.78546 13.8704 5.90081 13.9855 5.98996 14.0612C5.99308 14.0639 5.99685 14.0657 5.99972 14.068C6.00259 14.0657 6.00634 14.0638 6.00949 14.0612C6.09865 13.9855 6.21394 13.8704 6.42355 13.6608L7.66086 12.4235C7.87046 12.2139 7.98555 12.0986 8.06125 12.0094C8.06391 12.0063 8.06571 12.0026 8.06808 11.9997C8.06572 11.9968 8.0639 11.993 8.06125 11.9899C7.98555 11.9008 7.87043 11.7854 7.66086 11.5759L6.42355 10.3385C6.21396 10.129 6.09865 10.0138 6.00949 9.93816C6.00618 9.93536 6.00272 9.93284 5.99972 9.93034C5.99671 9.93284 5.99327 9.93535 5.98996 9.93816Z" fill="oklch(0.3523 0 0 / 1)" class="wd-icon-fill"></path>
<path d="M11.3816 2.0114C11.7329 1.89723 12.1082 1.88384 12.4655 1.96941L12.6179 2.0114L12.823 2.09343C13.0156 2.18494 13.1734 2.3025 13.3044 2.41374C13.4703 2.55456 13.6523 2.73722 13.8386 2.92351L15.0759 4.16081C15.2622 4.34709 15.4448 4.52912 15.5857 4.69499C15.7341 4.86982 15.8939 5.09184 15.988 5.38152C16.1185 5.7832 16.1185 6.21616 15.988 6.61784C15.8939 6.90754 15.7341 7.12953 15.5857 7.30437C15.4448 7.47025 15.2622 7.65226 15.0759 7.83855L13.8386 9.07585C13.6523 9.26215 13.4703 9.44479 13.3044 9.58562C13.1296 9.73403 12.9075 9.89384 12.6179 9.98796C12.2162 10.1184 11.7832 10.1185 11.3816 9.98796C11.0919 9.89382 10.8698 9.73402 10.695 9.58562C10.5292 9.44479 10.3471 9.26213 10.1609 9.07585L8.92355 7.83855C8.73727 7.65226 8.5546 7.47024 8.41379 7.30437C8.26538 7.12954 8.10556 6.9075 8.01144 6.61784C7.88096 6.21619 7.88095 5.78317 8.01144 5.38152C8.10556 5.09185 8.26537 4.86983 8.41379 4.69499C8.55461 4.52912 8.73726 4.34711 8.92355 4.16081L10.1609 2.92351C10.3471 2.73722 10.5292 2.55458 10.695 2.41374C10.8698 2.26534 11.0919 2.10554 11.3816 2.0114ZM11.99 3.93816C11.9008 4.01386 11.7855 4.12896 11.5759 4.33855L10.3386 5.57585C10.129 5.78546 10.0139 5.90076 9.9382 5.98991C9.93539 5.99324 9.93289 5.99667 9.93039 5.99968C9.93289 6.00269 9.9354 6.00614 9.9382 6.00945C10.0139 6.0986 10.129 6.21391 10.3386 6.42351L11.5759 7.66081C11.7855 7.87038 11.9008 7.9855 11.99 8.0612C11.9931 8.06385 11.9969 8.06569 11.9997 8.06804C12.0026 8.06566 12.0063 8.06385 12.0095 8.0612C12.0986 7.98551 12.2139 7.87042 12.4236 7.66081L13.6609 6.42351C13.8705 6.21391 13.9855 6.09861 14.0612 6.00945C14.0639 6.0063 14.0657 6.00256 14.0681 5.99968C14.0657 5.9968 14.0639 5.99305 14.0612 5.98991C13.9855 5.90076 13.8704 5.78543 13.6609 5.57585L12.4236 4.33855C12.214 4.12895 12.0986 4.01384 12.0095 3.93816C12.0062 3.93536 12.0027 3.93284 11.9997 3.93034C11.9967 3.93284 11.9933 3.93535 11.99 3.93816Z" fill="oklch(0.3523 0 0 / 1)" class="wd-icon-fill"></path>
</g>
<path d="M17.3815 8.0114C17.7329 7.89723 18.1082 7.88384 18.4655 7.96941L18.6179 8.0114L18.8229 8.09343C19.0156 8.18492 19.1734 8.30251 19.3044 8.41374C19.4702 8.55454 19.6523 8.73725 19.8386 8.92351L21.0759 10.1608C21.2621 10.3471 21.4448 10.5291 21.5856 10.695C21.734 10.8698 21.8938 11.0919 21.988 11.3815C22.1185 11.7832 22.1185 12.2162 21.988 12.6178C21.8939 12.9075 21.7341 13.1295 21.5856 13.3044C21.4448 13.4703 21.2622 13.6522 21.0759 13.8385L19.8386 15.0759C19.6523 15.2622 19.4703 15.4448 19.3044 15.5856C19.1295 15.734 18.9076 15.8938 18.6179 15.988C18.2162 16.1184 17.7832 16.1185 17.3815 15.988C17.0919 15.8938 16.8698 15.734 16.695 15.5856C16.5292 15.4448 16.3471 15.2621 16.1608 15.0759L14.9235 13.8385C14.7373 13.6523 14.5546 13.4702 14.4138 13.3044C14.2654 13.1296 14.1055 12.9075 14.0114 12.6178C13.881 12.2162 13.8809 11.7831 14.0114 11.3815C14.1056 11.0919 14.2654 10.8698 14.4138 10.695C14.5546 10.5291 14.7372 10.3471 14.9235 10.1608L16.1608 8.92351C16.3472 8.73719 16.5291 8.55458 16.695 8.41374C16.8698 8.26533 17.0919 8.10554 17.3815 8.0114Z" fill="oklch(0.3523 0 0 / 1)" class="wd-icon-accent"></path>
</svg>