<svg width="24" height="24" viewBox="0 0 24 24" xmlns="http://www.w3.org/2000/svg" class="wd-icon wd-icon-replay" role="presentation">
<path d="M7.57691 3.0311C9.75261 1.95821 12.2444 1.71293 14.5877 2.34067C16.9308 2.96855 18.9664 4.42634 20.3142 6.44321C21.6621 8.46042 22.2305 10.9002 21.9138 13.3055C21.597 15.7103 20.417 17.918 18.5935 19.5174C16.8951 21.0068 14.7461 21.8748 12.4998 21.9872C12.224 22.0009 11.9998 21.775 11.9998 21.4989V20.4998C11.9998 20.2237 12.2242 20.0015 12.4998 19.9842C14.2604 19.874 15.9407 19.1837 17.2742 18.0145C18.7333 16.7349 19.679 14.9679 19.9324 13.0438C20.1856 11.1197 19.7293 9.16917 18.6511 7.55551C17.5728 5.94175 15.9448 4.77366 14.0701 4.27133C12.1955 3.7692 10.2022 3.96675 8.46168 4.82504C6.72118 5.68346 5.35185 7.14539 4.60914 8.93832C3.86658 10.7313 3.80079 12.7335 4.42457 14.5711C4.9446 16.1029 5.91534 17.4319 7.19703 18.3944L6.85621 15.3514C6.82539 15.077 7.0232 14.8295 7.29761 14.7987L8.29078 14.6864C8.56516 14.6556 8.81265 14.8534 8.84351 15.1278L9.51343 21.0907C9.54407 21.365 9.34634 21.6126 9.07203 21.6434L3.11011 22.3123C2.83584 22.3431 2.5884 22.1461 2.55738 21.8719L2.44508 20.8778C2.41428 20.6034 2.61209 20.3559 2.88648 20.325L5.9734 19.9784C4.38211 18.7764 3.1781 17.1198 2.53101 15.2137C1.75132 12.9166 1.83228 10.4139 2.7605 8.1727C3.68887 5.9315 5.40127 4.10414 7.57691 3.0311Z" fill="oklch(0.3523 0 0 / 1)" class="wd-icon-fill"></path>
</svg>