<svg width="24" height="24" viewBox="0 0 24 24" xmlns="http://www.w3.org/2000/svg" class="wd-icon wd-icon-question-circle-fill" role="presentation">
<path d="M12 2C17.5228 2 22 6.47715 22 12C22 17.5228 17.5228 22 12 22C6.47715 22 2 17.5228 2 12C2 6.47715 6.47715 2 12 2ZM12 14.875C11.3787 14.875 10.875 15.3787 10.875 16C10.875 16.6213 11.3787 17.125 12 17.125C12.6213 17.125 13.125 16.6213 13.125 16C13.125 15.3787 12.6213 14.875 12 14.875ZM12.375 6.625C11.2352 6.625 10.4513 6.95483 9.92773 7.42871C9.41743 7.89077 9.23592 8.41919 9.16309 8.6377C9.15403 8.66486 9.14743 8.69236 9.1416 8.71973C9.13974 8.72855 9.13728 8.73724 9.13574 8.74609C9.13061 8.77537 9.13052 8.80482 9.12891 8.83398C9.12765 8.85719 9.12606 8.88019 9.12695 8.90332C9.12791 8.92838 9.13133 8.9529 9.13477 8.97754C9.13804 9.00115 9.14099 9.02467 9.14648 9.04785C9.15172 9.06979 9.15886 9.09099 9.16602 9.1123C9.17409 9.13649 9.18283 9.16028 9.19336 9.18359C9.20295 9.20476 9.21409 9.22492 9.22559 9.24512C9.23715 9.26545 9.24916 9.28539 9.2627 9.30469C9.27999 9.32939 9.29909 9.35245 9.31934 9.375C9.33393 9.39119 9.34809 9.40781 9.36426 9.42285C9.37267 9.43071 9.38084 9.4388 9.38965 9.44629C9.41157 9.46486 9.4345 9.4827 9.45898 9.49902C9.46715 9.50447 9.47608 9.50859 9.48438 9.51367C9.49655 9.52111 9.50879 9.52837 9.52148 9.53516L9.52539 9.53809L9.56641 9.55859C9.56987 9.56015 9.57365 9.56099 9.57715 9.5625C9.58617 9.56642 9.59538 9.5697 9.60449 9.57324C9.6156 9.57754 9.62628 9.58311 9.6377 9.58691C9.66679 9.59661 9.69627 9.60338 9.72559 9.60938C9.73242 9.61076 9.73924 9.61209 9.74609 9.61328C9.7754 9.61843 9.80478 9.6185 9.83398 9.62012C9.85722 9.62137 9.88016 9.62297 9.90332 9.62207C9.92939 9.62107 9.95486 9.61794 9.98047 9.61426C10.0031 9.61102 10.0256 9.60782 10.0479 9.60254C10.0705 9.59712 10.0923 9.5895 10.1143 9.58203C10.1384 9.57387 10.1622 9.56531 10.1855 9.55469C10.2084 9.54422 10.2302 9.53223 10.252 9.51953C10.2699 9.50904 10.2876 9.49837 10.3047 9.48633C10.3294 9.46899 10.3524 9.44997 10.375 9.42969C10.3912 9.41507 10.4078 9.40097 10.4229 9.38477C10.4307 9.37634 10.4388 9.36819 10.4463 9.35938C10.4647 9.33762 10.4828 9.31529 10.499 9.29102C10.7368 8.9344 11.1903 8.25 12.25 8.25C13.1117 8.25 13.75 8.80047 13.75 9.5C13.75 10.0276 13.447 10.3207 12.791 10.8291C12.2293 11.2645 11.25 11.9497 11.25 13.25C11.25 13.3132 11.2597 13.374 11.2744 13.4326C11.2804 13.4562 11.2877 13.4791 11.2959 13.502C11.3045 13.5261 11.3142 13.5494 11.3252 13.5723C11.3352 13.5931 11.3466 13.613 11.3584 13.6328C11.3707 13.6533 11.3834 13.6732 11.3975 13.6924C11.4121 13.7124 11.4277 13.7315 11.4443 13.75C11.4601 13.7675 11.4768 13.7838 11.4941 13.7998C11.512 13.8162 11.5303 13.8319 11.5498 13.8467C11.5693 13.8614 11.5894 13.8749 11.6104 13.8877C11.6392 13.9053 11.6685 13.9227 11.7002 13.9365C11.7061 13.9391 11.7118 13.9419 11.7178 13.9443C11.7378 13.9525 11.7582 13.9603 11.7793 13.9668C11.8006 13.9734 11.8223 13.9778 11.8438 13.9824C11.8461 13.9829 11.8483 13.9839 11.8506 13.9844C11.8806 13.9905 11.9105 13.9937 11.9404 13.9961C11.9601 13.9976 11.9799 14 12 14C12.0632 14 12.1239 13.9893 12.1826 13.9746C12.2062 13.9686 12.2291 13.9613 12.252 13.9531C12.2761 13.9445 12.2994 13.9348 12.3223 13.9238C12.3431 13.9138 12.363 13.9025 12.3828 13.8906C12.4033 13.8783 12.4232 13.8657 12.4424 13.8516C12.4624 13.8369 12.4815 13.8214 12.5 13.8047C12.5175 13.7889 12.5338 13.7723 12.5498 13.7549C12.5662 13.737 12.5819 13.7188 12.5967 13.6992C12.6114 13.6797 12.6249 13.6596 12.6377 13.6387C12.6565 13.6078 12.676 13.577 12.6904 13.543C12.692 13.5392 12.6928 13.5351 12.6943 13.5312C12.7023 13.5114 12.7104 13.4915 12.7168 13.4707C12.8854 12.9227 13.3424 12.5756 14.04 12C14.6568 11.4912 15.5 10.7581 15.5 9.5C15.5 8.77187 15.2553 8.03853 14.7021 7.48535C14.1445 6.92767 13.3457 6.625 12.375 6.625Z" fill="oklch(0.3523 0 0 / 1)" class="wd-icon-fill"></path>
</svg>