<svg width="24" height="24" viewBox="0 0 24 24" xmlns="http://www.w3.org/2000/svg" class="wd-icon wd-icon-cube" role="presentation">
<path d="M10.2158 3.61133C11.3647 3.17252 12.6353 3.17252 13.7842 3.61133L19.0703 5.62989C20.2323 6.07371 21 7.18876 21 8.43262V15.5674C21 16.8113 20.2323 17.9263 19.0703 18.3701L13.7842 20.3887C12.6353 20.8275 11.3647 20.8275 10.2158 20.3887L4.92969 18.3701C3.7677 17.9263 3 16.8113 3 15.5674V8.43262C3.00001 7.18876 3.7677 6.07371 4.92969 5.62989L10.2158 3.61133ZM5 15.5674C5 15.982 5.25623 16.354 5.64355 16.502L10.9297 18.5205C10.9527 18.5293 10.9768 18.5348 11 18.543V10.7998L5 8.50782V15.5674ZM13 10.7998V18.543C13.0232 18.5348 13.0473 18.5293 13.0703 18.5205L18.3564 16.502C18.7438 16.354 19 15.982 19 15.5674V8.50782L13 10.7998ZM13.0703 5.4795C12.381 5.21623 11.619 5.21623 10.9297 5.4795L6.80273 7.05469L12 9.04004L17.1963 7.05469L13.0703 5.4795Z" fill="oklch(0.3523 0 0 / 1)" class="wd-icon-fill"></path>
</svg>