<svg width="24" height="24" viewBox="0 0 24 24" xmlns="http://www.w3.org/2000/svg" class="wd-icon wd-icon-gavel" role="presentation">
<g>
<path d="M12 17C12.5523 17 13 17.4477 13 18V20H14.5C14.7761 20 15 20.2238 15 20.5V21.5C14.9999 21.7761 14.7761 22 14.5 22H2.5C2.22389 22 2.00005 21.7761 2 21.5V20.5C2 20.2238 2.22386 20 2.5 20H4V18C4 17.7348 4.10546 17.4805 4.29297 17.2929C4.48051 17.1054 4.73478 17 5 17H12ZM6 20H11V19H6V20Z" fill="oklch(0.3523 0 0 / 1)" class="wd-icon-fill"></path>
<path d="M12.1719 3.51461C12.5624 3.12419 13.1954 3.12414 13.5859 3.51461L16.4141 6.34274C16.8046 6.73326 16.8046 7.36725 16.4141 7.75777L15.707 8.46383L22.4248 15.1816C23.0106 15.7674 23.0106 16.7179 22.4248 17.3037L21.0107 18.7177C20.4616 19.2669 19.5921 19.3008 19.0029 18.8203L18.8896 18.7177L12.1719 12L11.4648 12.707C11.0744 13.0975 10.4413 13.0974 10.0508 12.707L7.22168 9.87887C6.8313 9.48846 6.83152 8.85535 7.22168 8.46481L12.1719 3.51461ZM13.5859 10.5859L19.9502 16.9502L20.6572 16.2421L14.293 9.87887L13.5859 10.5859ZM9.34375 9.17184L10.7578 10.5859L14.293 7.04977L12.8789 5.6357L9.34375 9.17184Z" fill="oklch(0.3523 0 0 / 1)" class="wd-icon-fill"></path>
<path d="M5.4541 10.2324C5.64936 10.0371 5.96587 10.0371 6.16113 10.2324L9.69727 13.7675C9.8923 13.9627 9.89216 14.2793 9.69727 14.4746L8.99023 15.1816C8.79497 15.3769 8.47749 15.3769 8.28223 15.1816L4.74707 11.6464C4.55184 11.4512 4.5519 11.1347 4.74707 10.9394L5.4541 10.2324Z" fill="oklch(0.3523 0 0 / 1)" class="wd-icon-fill"></path>
<path d="M14.6465 1.04C14.8417 0.844739 15.1583 0.844739 15.3535 1.04L18.8896 4.57516C19.0847 4.77032 19.0845 5.08694 18.8896 5.28219L18.1826 5.98922C17.9874 6.18448 17.6699 6.18448 17.4746 5.98922L13.9395 2.45406C13.7442 2.25883 13.7443 1.9423 13.9395 1.74703L14.6465 1.04Z" fill="oklch(0.3523 0 0 / 1)" class="wd-icon-fill"></path>
</g>
</svg>