<svg width="24" height="24" viewBox="0 0 24 24" xmlns="http://www.w3.org/2000/svg" class="wd-icon wd-icon-bolt" role="presentation">
<path d="M14.4802 1.04785C15.4451 1.04793 16.1418 1.97165 15.8767 2.89941L14.4051 8.04785H18.1863C19.3014 8.0479 20.0003 9.25249 19.447 10.2207L12.6795 22.0635C11.6027 23.9468 8.71718 22.9321 9.05642 20.7891L10.1394 13.9521H6.75661C5.85942 13.9518 5.1765 13.1458 5.324 12.2607L6.99099 2.26074C7.10788 1.56075 7.7139 1.04798 8.42361 1.04785H14.4802ZM7.29079 12.0479H12.3689L10.9373 21.0869C10.9351 21.101 10.9352 21.1109 10.9353 21.1162V21.1191C10.9387 21.1226 10.9484 21.1325 10.9685 21.1396C10.9871 21.1462 11.0007 21.1451 11.0066 21.1445L11.0095 21.1426C11.0129 21.1385 11.0191 21.1305 11.0261 21.1182L17.407 9.95215H11.8806L13.8797 2.95215H8.80642L7.29079 12.0479Z" fill="oklch(0.3523 0 0 / 1)" class="wd-icon-fill"></path>
</svg>