<svg width="24" height="24" viewBox="0 0 24 24" xmlns="http://www.w3.org/2000/svg" class="wd-icon wd-icon-resizable" role="presentation">
<g>
<path d="M18.2929 14.2938C18.6834 13.9033 19.3164 13.9033 19.7069 14.2938C20.0975 14.6843 20.0975 15.3173 19.7069 15.7079L15.7069 19.7079C15.3164 20.0984 14.6834 20.0984 14.2929 19.7079C13.9023 19.3173 13.9023 18.6843 14.2929 18.2938L18.2929 14.2938Z" fill="oklch(0.3523 0 0 / 1)" class="wd-icon-fill"></path>
<path d="M18.2929 7.29283C18.6834 6.90241 19.3164 6.90237 19.7069 7.29283C20.0974 7.68332 20.0974 8.31636 19.7069 8.70689L8.70694 19.7069C8.31641 20.0974 7.6834 20.0974 7.29287 19.7069C6.90239 19.3164 6.90236 18.6833 7.29287 18.2928L18.2929 7.29283Z" fill="oklch(0.3523 0 0 / 1)" class="wd-icon-fill"></path>
</g>
</svg>