<svg width="24" height="24" viewBox="0 0 24 24" xmlns="http://www.w3.org/2000/svg" class="wd-icon wd-icon-signal-two" role="presentation">
<g>
<path d="M14.5 8C15.3284 8 16 8.67157 16 9.5V18.5C16 19.3284 15.3284 20 14.5 20C13.6716 20 13 19.3284 13 18.5V9.5C13 8.67157 13.6716 8 14.5 8Z" fill="transparent" class="wd-icon-background"></path>
<path d="M19.5 3C20.3284 3 21 3.67157 21 4.5V18.5C21 19.3284 20.3284 20 19.5 20C18.6716 20 18 19.3284 18 18.5V4.5C18 3.67157 18.6716 3 19.5 3Z" fill="transparent" class="wd-icon-background"></path>
</g>
<g>
<path d="M4.5 15C5.32843 15 6 15.6716 6 16.5V18.5C6 19.3284 5.32843 20 4.5 20C3.67157 20 3 19.3284 3 18.5V16.5C3 15.6716 3.67157 15 4.5 15Z" fill="oklch(0.3523 0 0 / 1)" class="wd-icon-fill"></path>
<path d="M9.5 12C10.3284 12 11 12.6716 11 13.5V18.5C11 19.3284 10.3284 20 9.5 20C8.67157 20 8 19.3284 8 18.5V13.5C8 12.6716 8.67157 12 9.5 12Z" fill="oklch(0.3523 0 0 / 1)" class="wd-icon-fill"></path>
</g>
</svg>