<svg width="24" height="24" viewBox="0 0 24 24" xmlns="http://www.w3.org/2000/svg" class="wd-icon wd-icon-calendar-day-15" role="presentation">
<g>
<path d="M15.4785 10.5127C15.8301 10.5127 16.1149 10.7979 16.1152 11.1494C16.1152 11.5012 15.8303 11.7871 15.4785 11.7871H13.4297L13.3203 13.0059C13.36 12.9849 13.4007 12.9647 13.4424 12.9463C13.6826 12.8403 13.9492 12.7901 14.2363 12.79C14.6623 12.79 15.0463 12.885 15.3779 13.084L15.501 13.1602C15.7776 13.3463 15.9945 13.5958 16.1494 13.9033C16.3327 14.2496 16.4218 14.6391 16.4219 15.0645C16.4219 15.5146 16.327 15.9327 16.1338 16.3125L16.1328 16.3135C15.9378 16.6901 15.6567 16.9912 15.2939 17.2129C14.9267 17.4373 14.5087 17.5468 14.0479 17.5469C13.5929 17.5468 13.1827 17.4664 12.8252 17.2979L12.8232 17.2969C12.4731 17.1285 12.1893 16.8864 11.9775 16.5723L11.9756 16.5703C11.8677 16.4066 11.7823 16.2283 11.7197 16.0381C11.5651 15.5659 11.9733 15.1928 12.3809 15.1924C12.7682 15.1924 13.0315 15.4898 13.1475 15.7656C13.1963 15.8819 13.2643 15.9779 13.3496 16.0566C13.5108 16.1999 13.7297 16.2811 14.0293 16.2813C14.2331 16.2813 14.3918 16.2322 14.5176 16.1455L14.5205 16.1436C14.6575 16.0523 14.7661 15.9229 14.8447 15.7461C14.9243 15.567 14.9678 15.3561 14.9678 15.1094C14.9677 14.7452 14.8745 14.4855 14.7148 14.3027L14.71 14.2969C14.5623 14.1193 14.3476 14.0186 14.0293 14.0186C13.8592 14.0187 13.696 14.0578 13.5381 14.1367C13.459 14.1778 13.3859 14.2256 13.3193 14.2803C13.1451 14.4234 12.9009 14.5464 12.624 14.5166C12.1899 14.4695 11.8727 14.0836 11.9102 13.6484L12.125 11.1523C12.1564 10.7908 12.4594 10.513 12.8223 10.5127H15.4785Z" fill="oklch(0.3523 0 0 / 1)" class="wd-icon-fill"></path>
<path d="M9.08692 10.5049C9.52536 10.5049 9.88076 10.8604 9.88086 11.2988V16.668C9.88081 17.0694 9.55566 17.3944 9.1543 17.3945C8.75303 17.3943 8.42681 17.0693 8.42676 16.668V12.3936L8.25 12.5254C7.83564 12.8319 7.24805 12.536 7.24805 12.0205C7.24823 11.8259 7.33896 11.6422 7.49317 11.5234L8.60254 10.6699C8.74118 10.5633 8.91202 10.505 9.08692 10.5049Z" fill="oklch(0.3523 0 0 / 1)" class="wd-icon-fill"></path>
<path d="M16.2012 2C17.0247 2 17.7026 1.99898 18.2529 2.04395C18.815 2.08988 19.3321 2.18828 19.8174 2.43555C20.5699 2.81902 21.182 3.43109 21.5654 4.1836C21.8127 4.6689 21.9111 5.18599 21.957 5.74805C22.002 6.29843 22.001 6.97632 22.001 7.79981V16.2002C22.001 17.0237 22.002 17.7016 21.957 18.252C21.9111 18.814 21.8127 19.3311 21.5654 19.8164C21.182 20.5689 20.5699 21.181 19.8174 21.5645C19.3321 21.8117 18.815 21.9101 18.2529 21.9561C17.7026 22.001 17.0247 22 16.2012 22H7.80078C6.9773 22 6.2994 22.001 5.74903 21.9561C5.18697 21.9101 4.66988 21.8117 4.18457 21.5645C3.43207 21.181 2.81999 20.5689 2.43653 19.8164C2.18925 19.3311 2.09085 18.814 2.04492 18.252C1.99996 17.7016 2.00098 17.0237 2.00098 16.2002V7.79981C2.00098 6.97632 1.99996 6.29843 2.04492 5.74805C2.09085 5.18599 2.18925 4.6689 2.43653 4.1836C2.81999 3.43109 3.43207 2.81902 4.18457 2.43555C4.66988 2.18827 5.18697 2.08988 5.74903 2.04395C6.2994 1.99898 6.9773 2 7.80078 2H16.2012ZM4.00098 16.2002C4.00098 17.0566 4.00133 17.6388 4.03809 18.0889C4.07391 18.5273 4.13906 18.7518 4.21875 18.9082C4.41049 19.2845 4.71652 19.5905 5.09278 19.7822C5.24917 19.8619 5.4737 19.9271 5.91211 19.9629C6.36215 19.9997 6.9444 20 7.80078 20H16.2012C17.0576 20 17.6398 19.9997 18.0898 19.9629C18.5283 19.9271 18.7528 19.8619 18.9092 19.7822C19.2854 19.5905 19.5915 19.2845 19.7832 18.9082C19.8629 18.7518 19.928 18.5273 19.9639 18.0889C20.0006 17.6388 20.001 17.0566 20.001 16.2002V8H4.00098V16.2002Z" fill="oklch(0.3523 0 0 / 1)" class="wd-icon-fill"></path>
</g>
</svg>