<svg width="24" height="24" viewBox="0 0 24 24" xmlns="http://www.w3.org/2000/svg" class="wd-icon wd-icon-user-focus" role="presentation">
<g>
<path d="M4.00008 15.0001C4.55234 15.0001 5.00004 15.4478 5.00008 16.0001C5.00008 16.9943 5.00891 17.2954 5.06844 17.5177C5.25337 18.2078 5.79237 18.7468 6.48251 18.9317C6.70478 18.9913 7.0058 19.0001 8.00008 19.0001C8.55234 19.0001 9.00004 19.4478 9.00008 20.0001C9.00008 20.5524 8.55237 21.0001 8.00008 21.0001C7.13454 21.0001 6.50563 21.0082 5.96493 20.8634C4.58461 20.4935 3.50666 19.4156 3.1368 18.0352C2.99195 17.4945 3.00008 16.8656 3.00008 16.0001C3.00013 15.4479 3.44787 15.0001 4.00008 15.0001Z" fill="oklch(0.3523 0 0 / 1)" class="wd-icon-fill"></path>
<path d="M20.0001 15.0001C20.5523 15.0001 21 15.4478 21.0001 16.0001C21.0001 16.8656 21.0082 17.4945 20.8634 18.0352C20.4935 19.4156 19.4156 20.4935 18.0352 20.8634C17.4945 21.0082 16.8656 21.0001 16.0001 21.0001C15.4478 21 15.0001 20.5523 15.0001 20.0001C15.0001 19.4479 15.4479 19.0001 16.0001 19.0001C16.9943 19.0001 17.2954 18.9913 17.5177 18.9317C18.2078 18.7468 18.7468 18.2078 18.9317 17.5177C18.9913 17.2954 19.0001 16.9943 19.0001 16.0001C19.0001 15.4479 19.4479 15.0001 20.0001 15.0001Z" fill="oklch(0.3523 0 0 / 1)" class="wd-icon-fill"></path>
<path d="M12.0001 13.0001C13.5523 13.0001 14.8986 13.5011 15.5616 14.6612C15.823 15.1187 15.5034 15.6496 14.9854 15.7462C14.3066 15.8724 13.2988 16.0001 12.0001 16.0001C10.7016 16.0001 9.69453 15.8724 9.01571 15.7462C8.49752 15.6498 8.17801 15.1188 8.43954 14.6612C9.10261 13.5013 10.448 13.0001 12.0001 13.0001Z" fill="oklch(0.3523 0 0 / 1)" class="wd-icon-fill"></path>
<path d="M12.0001 8.00008C13.1046 8.00016 14 8.8956 14.0001 10.0001C14.0001 11.1046 13.1046 12 12.0001 12.0001C10.8956 12 10.0001 11.1046 10.0001 10.0001C10.0001 8.89563 10.8956 8.0002 12.0001 8.00008Z" fill="oklch(0.3523 0 0 / 1)" class="wd-icon-fill"></path>
<path d="M8.00008 3.00008C8.55234 3.00008 9.00004 3.44784 9.00008 4.00008C9.00008 4.55237 8.55237 5.00008 8.00008 5.00008C7.0058 5.00008 6.70478 5.00889 6.48251 5.06844C5.79237 5.25339 5.25339 5.79237 5.06844 6.48251C5.00889 6.70478 5.00008 7.0058 5.00008 8.00008C5.00008 8.55237 4.55237 9.00008 4.00008 9.00008C3.44784 9.00004 3.00008 8.55234 3.00008 8.00008C3.00008 7.13454 2.99192 6.50563 3.1368 5.96493C3.50668 4.58461 4.58461 3.50668 5.96493 3.1368C6.50563 2.99192 7.13454 3.00008 8.00008 3.00008Z" fill="oklch(0.3523 0 0 / 1)" class="wd-icon-fill"></path>
<path d="M16.0001 3.00008C16.8656 3.00008 17.4945 2.99195 18.0352 3.1368C19.4156 3.50666 20.4935 4.58461 20.8634 5.96493C21.0082 6.50563 21.0001 7.13454 21.0001 8.00008C21.0001 8.55237 20.5524 9.00008 20.0001 9.00008C19.4478 9.00004 19.0001 8.55234 19.0001 8.00008C19.0001 7.0058 18.9913 6.70478 18.9317 6.48251C18.7468 5.79237 18.2078 5.25337 17.5177 5.06844C17.2954 5.00891 16.9943 5.00008 16.0001 5.00008C15.4478 5.00004 15.0001 4.55234 15.0001 4.00008C15.0001 3.44787 15.4479 3.00013 16.0001 3.00008Z" fill="oklch(0.3523 0 0 / 1)" class="wd-icon-fill"></path>
</g>
</svg>