<svg width="24" height="24" viewBox="0 0 24 24" xmlns="http://www.w3.org/2000/svg" class="wd-icon wd-icon-comment-arrow-up" role="presentation">
<g>
<path d="M11.4697 7.46973C11.7626 7.17694 12.2374 7.177 12.5303 7.46973L15.5303 10.4697C15.823 10.7626 15.8231 11.2374 15.5303 11.5303C15.2374 11.8229 14.7626 11.8229 14.4697 11.5303L12.75 9.81055V14C12.7499 14.4141 12.4141 14.7499 12 14.75C11.586 14.7498 11.2501 14.414 11.25 14V9.81055L9.53027 11.5303C9.23741 11.823 8.76259 11.823 8.46973 11.5303C8.17702 11.2374 8.17701 10.7626 8.46973 10.4697L11.4697 7.46973Z" fill="oklch(0.3523 0 0 / 1)" class="wd-icon-fill"></path>
<path d="M12 2C17.4089 2 22 5.92196 22 11C22 15.9688 17.6041 19.8274 12.3477 19.9912C11.2635 20.7833 10.024 21.235 8.92188 21.4824C7.723 21.7515 6.61962 21.7956 5.92969 21.7471C5.62071 21.7253 5.33962 21.5616 5.16797 21.3037C4.99636 21.0458 4.95355 20.7231 5.05273 20.4297C5.28915 19.7301 5.42265 18.7021 5.45996 17.8096C3.36367 16.1774 2 13.7479 2 11C2 5.92196 6.59113 2 12 2ZM12 4C7.46774 4 4 7.24148 4 11C4 13.1945 5.16038 15.1881 7.04102 16.4912C7.31064 16.678 7.47167 16.9855 7.47168 17.3135C7.47168 18.0059 7.41145 18.8842 7.27051 19.7217C7.64008 19.6863 8.0525 19.627 8.4834 19.5303C9.49423 19.3034 10.5396 18.8952 11.3711 18.2227L11.5127 18.127C11.6609 18.0443 11.8284 18 12 18C16.5323 18 20 14.7585 20 11C20 7.24148 16.5323 4 12 4Z" fill="oklch(0.3523 0 0 / 1)" class="wd-icon-fill"></path>
</g>
</svg>