<svg width="24" height="24" viewBox="0 0 24 24" xmlns="http://www.w3.org/2000/svg" class="wd-icon wd-icon-alarm-clock" role="presentation">
<path d="M12.5 7C12.7761 7 13 7.22386 13 7.5V11H15.5C15.7761 11 16 11.2239 16 11.5V12.5C16 12.7761 15.7761 13 15.5 13H12C11.4477 13 11 12.5523 11 12V7.5C11 7.22386 11.2239 7 11.5 7H12.5Z" fill="oklch(0.3523 0 0 / 1)" class="wd-icon-accent"></path>
<path d="M17.2452 1.5699C18.5482 1.64224 19.8329 2.17718 20.8282 3.17244C21.8234 4.16775 22.3585 5.45247 22.4307 6.75545C22.4464 7.03936 22.3408 7.31708 22.1397 7.51814L20.5284 9.12752C20.8322 10.03 21.0001 10.9957 21.0001 12.0006C21 13.9408 20.3832 15.7359 19.3389 17.2056L20.5547 19.0299C20.7078 19.2596 20.6458 19.5701 20.4161 19.7232L19.584 20.2779C19.3543 20.4308 19.0438 20.3688 18.8907 20.1392L17.959 18.7418C16.3716 20.1461 14.2861 21.0005 12.0001 21.0006C9.71376 21.0006 7.62763 20.1463 6.0401 18.7418L5.10943 20.1383C4.95619 20.3678 4.64574 20.43 4.41607 20.2769L3.58404 19.7222C3.35439 19.5691 3.29244 19.2586 3.44537 19.0289L4.66021 17.2056C3.61599 15.7359 3.00012 13.9407 3.00006 12.0006C3.00006 10.9957 3.16693 10.0299 3.47076 9.12752L1.86041 7.51814C1.65934 7.31707 1.55374 7.03937 1.56939 6.75545C1.64167 5.45235 2.17659 4.16778 3.17193 3.17244C4.16728 2.17709 5.45185 1.64217 6.75494 1.5699C7.03886 1.55425 7.31657 1.65985 7.51764 1.86091L9.12701 3.47127C10.0294 3.16744 10.9952 3.00056 12.0001 3.00056C13.0043 3.00059 13.9692 3.16773 14.8712 3.47127L16.4825 1.86091L16.5616 1.78963C16.7532 1.63502 16.9968 1.55614 17.2452 1.5699ZM12.0001 5.00056C8.13406 5.00056 5.00006 8.13457 5.00006 12.0006C5.0002 15.8664 8.13415 19.0006 12.0001 19.0006C15.8658 19.0004 18.9999 15.8663 19.0001 12.0006C19.0001 10.5907 18.5814 9.27892 17.8643 8.18025C17.5756 7.73814 17.2388 7.33071 16.8604 6.96541C16.4928 6.61045 16.0876 6.29419 15.6495 6.02595C15.5843 5.98607 15.5178 5.94851 15.4512 5.91072C14.4326 5.33212 13.2553 5.00061 12.0001 5.00056ZM6.44635 3.61775C5.76496 3.73865 5.11295 4.05955 4.586 4.5865C4.05905 5.11346 3.73815 5.76547 3.61725 6.44685L4.38092 7.21052C4.39005 7.19603 4.40003 7.18199 4.40924 7.16755C4.48466 7.04935 4.56291 6.93328 4.64361 6.81892C4.65913 6.79693 4.67381 6.77436 4.68951 6.75252C4.77032 6.64014 4.85373 6.52987 4.93951 6.42146C4.95289 6.40455 4.96606 6.38749 4.97955 6.37068C5.39118 5.85804 5.85753 5.39168 6.37018 4.98005C6.38698 4.96656 6.40405 4.95339 6.42096 4.94002C6.52937 4.85424 6.63964 4.77083 6.75201 4.69002C6.7765 4.67241 6.80156 4.65562 6.82623 4.63826C6.944 4.55535 7.06378 4.47533 7.18561 4.39802C7.19388 4.39277 7.20173 4.38665 7.21002 4.38142L6.44635 3.61775ZM16.7891 4.38142C16.7943 4.3847 16.7996 4.3879 16.8047 4.39119C16.9318 4.47158 17.0561 4.55569 17.1788 4.64216C17.1975 4.65534 17.2159 4.66889 17.2344 4.6822C18.1832 5.36206 18.9936 6.22081 19.6172 7.21052L20.3819 6.44685C20.261 5.76564 19.9409 5.11336 19.4141 4.5865C18.887 4.05939 18.2344 3.73857 17.5528 3.61775L16.7891 4.38142Z" fill="oklch(0.3523 0 0 / 1)" class="wd-icon-fill"></path>
</svg>