<svg width="24" height="24" viewBox="0 0 24 24" xmlns="http://www.w3.org/2000/svg" class="wd-icon wd-icon-cloud-strikethrough" role="presentation">
<g>
<path d="M2.83398 2.14643C3.02924 1.95118 3.34575 1.9512 3.54102 2.14643L6.37109 4.97651C7.25916 4.36075 8.33729 3.99995 9.5 3.99995C11.2349 3.99995 12.7794 4.80475 13.7861 6.05659C14.019 6.01939 14.2575 5.99995 14.5 5.99995C16.4812 5.99995 18.1604 7.27994 18.7617 9.05757C21.1616 9.42441 23 11.4975 23 13.9999C22.9999 16.0563 21.7578 17.8203 19.9834 18.5878L21.835 20.4394C22.0301 20.6347 22.0303 20.9512 21.835 21.1464L21.127 21.8535C20.9317 22.0486 20.6151 22.0487 20.4199 21.8535L2.12695 3.5605C1.93178 3.36529 1.93188 3.04873 2.12695 2.85347L2.83398 2.14643ZM9.5 5.99995C8.89224 5.99995 8.3204 6.15429 7.82227 6.42671L18.3711 16.9755C19.8527 16.7927 20.9999 15.531 21 13.9999C21 12.3431 19.6569 10.9999 18 10.9999C17.9754 10.9999 17.9795 10.9999 17.9727 10.9999L17.0977 11.0078L16.9736 10.1416C16.8004 8.93074 15.7583 7.99995 14.5 7.99995C14.2136 7.99995 13.9403 8.04746 13.6865 8.13472L12.9199 8.39839L12.5039 7.70405C11.8905 6.68117 10.7743 5.99995 9.5 5.99995Z" fill="oklch(0.3523 0 0 / 1)" class="wd-icon-fill"></path>
<path d="M3.67188 9.57515C3.91617 9.44636 4.20891 9.57207 4.3125 9.82807L4.6875 10.7539C4.79106 11.0098 4.66476 11.2985 4.42969 11.4433C3.57109 11.972 3.00009 12.9202 3 13.9999C3.00029 15.6566 4.34333 16.9999 6 16.9999H13.5C13.7761 16.9999 14 17.2238 14 17.4999V18.5C13.9999 18.776 13.7761 19 13.5 19H6C3.23876 19 1.00029 16.7611 1 13.9999C1.0001 12.0781 2.08473 10.4119 3.67188 9.57515Z" fill="oklch(0.3523 0 0 / 1)" class="wd-icon-fill"></path>
</g>
</svg>