<svg width="24" height="24" viewBox="0 0 24 24" xmlns="http://www.w3.org/2000/svg" class="wd-icon wd-icon-document-image" role="presentation">
<g>
<path d="M13.75 17.25C14.1642 17.25 14.5 17.5858 14.5 18C14.5 18.4142 14.1642 18.75 13.75 18.75H8.25C7.83579 18.75 7.5 18.4142 7.5 18C7.5 17.5858 7.83579 17.25 8.25 17.25H13.75Z" fill="oklch(0.3523 0 0 / 1)" class="wd-icon-fill"></path>
<path d="M15.75 14.25C16.1642 14.25 16.5 14.5858 16.5 15C16.5 15.4142 16.1642 15.75 15.75 15.75H8.25C7.83579 15.75 7.5 15.4142 7.5 15C7.5 14.5858 7.83579 14.25 8.25 14.25H15.75Z" fill="oklch(0.3523 0 0 / 1)" class="wd-icon-fill"></path>
<path d="M15.5 4.5C16.0521 4.5 16.4998 4.94792 16.5 5.5V11.1465C16.4997 11.3415 16.3416 11.5 16.1465 11.5C16.0528 11.5 15.9628 11.4626 15.8965 11.3965L13.6768 9.17676C13.5792 9.07944 13.4208 9.07944 13.3232 9.17676L11.3535 11.1465C11.1583 11.3414 10.8417 11.3414 10.6465 11.1465L9.67676 10.1768C9.57919 10.0794 9.42082 10.0794 9.32324 10.1768L8.10352 11.3965C8.03724 11.4626 7.94717 11.5 7.85352 11.5C7.65844 11.5 7.50026 11.3415 7.5 11.1465V5.5C7.50024 4.94792 7.94786 4.5 8.5 4.5H15.5ZM11 5.75098C10.3096 5.75098 9.75 6.31062 9.75 7.00098C9.75053 7.69089 10.31 8.25098 11 8.25098C11.69 8.25098 12.2495 7.69089 12.25 7.00098C12.25 6.31062 11.6904 5.75098 11 5.75098Z" fill="oklch(0.3523 0 0 / 1)" class="wd-icon-fill"></path>
<path d="M14.2002 1C15.0237 1 15.7016 0.998981 16.252 1.04395C16.814 1.08987 17.3311 1.18831 17.8164 1.43555C18.5688 1.81899 19.181 2.43121 19.5645 3.1836C19.8116 3.66878 19.9101 4.18616 19.9561 4.74805C20.001 5.29833 20 5.97655 20 6.79981V17.2002C20 18.0235 20.001 18.7017 19.9561 19.252C19.9101 19.8138 19.8116 20.3312 19.5645 20.8164C19.181 21.5688 18.5688 22.181 17.8164 22.5645C17.3311 22.8117 16.814 22.9101 16.252 22.9561C15.7016 23.001 15.0237 23 14.2002 23H9.79981C8.97633 23 8.29842 23.001 7.74805 22.9561C7.18604 22.9101 6.66887 22.8117 6.1836 22.5645C5.4312 22.181 4.81901 21.5688 4.43555 20.8164C4.18838 20.3312 4.08988 19.8138 4.04395 19.252C3.999 18.7017 4 18.0235 4 17.2002V6.79981C4 5.97655 3.999 5.29833 4.04395 4.74805C4.08988 4.18616 4.18838 3.66878 4.43555 3.1836C4.81901 2.43121 5.4312 1.81899 6.1836 1.43555C6.66887 1.18831 7.18604 1.08987 7.74805 1.04395C8.29842 0.998981 8.97633 1 9.79981 1H14.2002ZM9.79981 3C8.94343 3 8.36117 3.00035 7.91113 3.03711C7.47283 3.07292 7.24819 3.13811 7.0918 3.21778C6.71566 3.40948 6.4095 3.71567 6.21778 4.0918C6.13814 4.24816 6.07292 4.47306 6.03711 4.91113C6.00037 5.3611 6 5.9437 6 6.79981V17.2002C6 18.0563 6.00037 18.6389 6.03711 19.0889C6.07292 19.5269 6.13815 19.7518 6.21778 19.9082C6.4095 20.2843 6.71565 20.5905 7.0918 20.7822C7.24819 20.8619 7.47282 20.9271 7.91113 20.9629C8.36117 20.9997 8.94343 21 9.79981 21H14.2002C15.0566 21 15.6388 20.9997 16.0889 20.9629C16.5272 20.9271 16.7518 20.8619 16.9082 20.7822C17.2843 20.5905 17.5905 20.2843 17.7822 19.9082C17.8619 19.7518 17.9271 19.5269 17.9629 19.0889C17.9996 18.6389 18 18.0563 18 17.2002V6.79981C18 5.9437 17.9996 5.3611 17.9629 4.91113C17.9271 4.47306 17.8619 4.24816 17.7822 4.0918C17.5905 3.71567 17.2844 3.40948 16.9082 3.21778C16.7518 3.13811 16.5272 3.07292 16.0889 3.03711C15.6388 3.00035 15.0566 3 14.2002 3H9.79981Z" fill="oklch(0.3523 0 0 / 1)" class="wd-icon-fill"></path>
</g>
</svg>