<svg width="24" height="24" viewBox="0 0 24 24" xmlns="http://www.w3.org/2000/svg" class="wd-icon wd-icon-calculator-lock" role="presentation">
<g>
<path d="M13.2002 2C14.0237 2 14.7016 1.99898 15.252 2.04395C15.814 2.08988 16.3311 2.18828 16.8164 2.43555C17.5689 2.81902 18.181 3.43109 18.5645 4.1836C18.8117 4.6689 18.9101 5.18599 18.9561 5.74805C19.001 6.29843 19 6.97632 19 7.79981V9C19 9.55228 18.5523 10 18 10C17.4477 10 17 9.55228 17 9V7.79981C17 6.94343 16.9997 6.36117 16.9629 5.91113C16.9271 5.47273 16.8619 5.2482 16.7822 5.0918C16.5905 4.71555 16.2845 4.40951 15.9082 4.21778C15.7518 4.13809 15.5273 4.07293 15.0889 4.03711C14.6388 4.00035 14.0566 4 13.2002 4H8.79981C7.94342 4 7.36117 4.00035 6.91113 4.03711C6.47273 4.07293 6.2482 4.13809 6.0918 4.21778C5.71555 4.40951 5.40951 4.71555 5.21778 5.0918C5.13809 5.2482 5.07293 5.47273 5.03711 5.91113C5.00035 6.36117 5 6.94343 5 7.79981V16.2002C5 17.0566 5.00035 17.6388 5.03711 18.0889C5.07293 18.5273 5.13809 18.7518 5.21778 18.9082C5.40951 19.2845 5.71555 19.5905 6.0918 19.7822C6.2482 19.8619 6.47272 19.9271 6.91113 19.9629C7.36117 19.9997 7.94342 20 8.79981 20H11C11.5523 20 12 20.4477 12 21C12 21.5523 11.5523 22 11 22H8.79981C7.97632 22 7.29843 22.001 6.74805 21.9561C6.18599 21.9101 5.6689 21.8117 5.1836 21.5645C4.43109 21.181 3.81902 20.5689 3.43555 19.8164C3.18828 19.3311 3.08988 18.814 3.04395 18.252C2.99898 17.7016 3 17.0237 3 16.2002V7.79981C3 6.97632 2.99898 6.29843 3.04395 5.74805C3.08988 5.18599 3.18827 4.6689 3.43555 4.1836C3.81902 3.43109 4.43109 2.81902 5.1836 2.43555C5.6689 2.18828 6.186 2.08988 6.74805 2.04395C7.29843 1.99898 7.97632 2 8.79981 2H13.2002Z" fill="oklch(0.3523 0 0 / 1)" class="wd-icon-fill"></path>
<path d="M8.25 16.5C8.66421 16.5 8.99999 16.8358 9 17.25C9 17.6642 8.66422 18 8.25 18H7.25C6.83579 18 6.5 17.6642 6.5 17.25C6.50001 16.8358 6.8358 16.5 7.25 16.5H8.25Z" fill="oklch(0.3523 0 0 / 1)" class="wd-icon-fill"></path>
<path d="M11.5 16.5C11.9142 16.5 12.25 16.8358 12.25 17.25C12.25 17.6642 11.9142 18 11.5 18H10.5C10.0858 18 9.75 17.6642 9.75 17.25C9.75001 16.8358 10.0858 16.5 10.5 16.5H11.5Z" fill="oklch(0.3523 0 0 / 1)" class="wd-icon-fill"></path>
<path d="M8.25 13.5C8.66421 13.5 8.99999 13.8358 9 14.25C9 14.6642 8.66422 15 8.25 15H7.25C6.83579 15 6.5 14.6642 6.5 14.25C6.50001 13.8358 6.8358 13.5 7.25 13.5H8.25Z" fill="oklch(0.3523 0 0 / 1)" class="wd-icon-fill"></path>
<path d="M11.5 13.5C11.9142 13.5 12.25 13.8358 12.25 14.25C12.25 14.6642 11.9142 15 11.5 15H10.5C10.0858 15 9.75 14.6642 9.75 14.25C9.75001 13.8358 10.0858 13.5 10.5 13.5H11.5Z" fill="oklch(0.3523 0 0 / 1)" class="wd-icon-fill"></path>
<path d="M8.25 10.5C8.66421 10.5 8.99999 10.8358 9 11.25C9 11.6642 8.66422 12 8.25 12H7.25C6.83579 12 6.5 11.6642 6.5 11.25C6.50001 10.8358 6.8358 10.5 7.25 10.5H8.25Z" fill="oklch(0.3523 0 0 / 1)" class="wd-icon-fill"></path>
<path d="M11.5 10.5C11.9142 10.5 12.25 10.8358 12.25 11.25C12.25 11.6642 11.9142 12 11.5 12H10.5C10.0858 12 9.75 11.6642 9.75 11.25C9.75001 10.8358 10.0858 10.5 10.5 10.5H11.5Z" fill="oklch(0.3523 0 0 / 1)" class="wd-icon-fill"></path>
<path d="M14.75 10.5C15.1642 10.5 15.5 10.8358 15.5 11.25C15.5 11.6642 15.1642 12 14.75 12H13.75C13.3358 12 13 11.6642 13 11.25C13 10.8358 13.3358 10.5 13.75 10.5H14.75Z" fill="oklch(0.3523 0 0 / 1)" class="wd-icon-fill"></path>
<path d="M14.5 6C14.9659 6 15.199 6.00005 15.3828 6.07617C15.6277 6.17766 15.8223 6.37227 15.9238 6.61719C15.9999 6.80096 16 7.03407 16 7.5C16 7.96594 16 8.19904 15.9238 8.38281C15.8223 8.62774 15.6277 8.82234 15.3828 8.92383C15.199 8.99995 14.9659 9 14.5 9H7.5C7.03406 9 6.80096 8.99995 6.61719 8.92383C6.37226 8.82234 6.17766 8.62774 6.07617 8.38281C6.00005 8.19904 6 7.96594 6 7.5C6 7.03407 6.00005 6.80096 6.07617 6.61719C6.17767 6.37227 6.37227 6.17766 6.61719 6.07617C6.80096 6.00005 7.03406 6 7.5 6H14.5Z" fill="oklch(0.3523 0 0 / 1)" class="wd-icon-fill"></path>
</g>
<path d="M18.5 12C20.1569 12 21.5 13.3431 21.5 15V16.0732C21.6364 16.1039 21.7734 16.1491 21.9082 16.2178C22.2845 16.4095 22.5905 16.7155 22.7822 17.0918C22.9132 17.3488 22.9597 17.6133 22.9805 17.8682C23.0006 18.1142 23 18.4125 23 18.75V20.25C23 20.5875 23.0006 20.8859 22.9805 21.1318C22.9597 21.3865 22.913 21.6503 22.7822 21.9072C22.5905 22.2834 22.2844 22.5895 21.9082 22.7812C21.6512 22.9122 21.3867 22.9596 21.1318 22.9805C20.8858 23.0006 20.5875 23 20.25 23H16.75C16.4125 23 16.1142 23.0006 15.8682 22.9805C15.6133 22.9596 15.3488 22.9122 15.0918 22.7812C14.7156 22.5895 14.4095 22.2834 14.2178 21.9072C14.087 21.6503 14.0403 21.3865 14.0195 21.1318C13.9994 20.8858 14 20.5875 14 20.25V18.75C14 18.4125 13.9994 18.1142 14.0195 17.8682C14.0404 17.6133 14.0868 17.3488 14.2178 17.0918C14.4095 16.7155 14.7155 16.4095 15.0918 16.2178C15.2266 16.1491 15.3636 16.1039 15.5 16.0732V15C15.5 13.3431 16.8431 12 18.5 12ZM16.75 17.5C16.3877 17.5 16.161 17.5007 15.9902 17.5146C15.8295 17.5278 15.7843 17.5492 15.7734 17.5547C15.6794 17.6026 15.6026 17.6794 15.5547 17.7734C15.5492 17.7843 15.5278 17.8295 15.5146 17.9902C15.5007 18.161 15.5 18.3877 15.5 18.75V20.25C15.5 20.6122 15.5007 20.839 15.5146 21.0098C15.5279 21.1716 15.5494 21.2162 15.5547 21.2266C15.6026 21.3206 15.6794 21.3974 15.7734 21.4453C15.7845 21.4509 15.8302 21.4723 15.9902 21.4854C16.161 21.4993 16.3877 21.5 16.75 21.5H20.25C20.6123 21.5 20.839 21.4993 21.0098 21.4854C21.1698 21.4723 21.2155 21.4509 21.2266 21.4453C21.3206 21.3974 21.3974 21.3206 21.4453 21.2266C21.4506 21.2162 21.4721 21.1716 21.4854 21.0098C21.4993 20.839 21.5 20.6122 21.5 20.25V18.75C21.5 18.3877 21.4993 18.161 21.4854 17.9902C21.4722 17.8295 21.4508 17.7843 21.4453 17.7734C21.3974 17.6794 21.3206 17.6026 21.2266 17.5547C21.2157 17.5492 21.1705 17.5278 21.0098 17.5146C20.839 17.5007 20.6123 17.5 20.25 17.5H16.75ZM18.5 13.5C17.6716 13.5 17 14.1716 17 15V16H20V15C20 14.1716 19.3284 13.5 18.5 13.5Z" fill="oklch(0.3523 0 0 / 1)" class="wd-icon-accent"></path>
</svg>