<svg width="24" height="24" viewBox="0 0 24 24" xmlns="http://www.w3.org/2000/svg" class="wd-icon wd-icon-check-seal" role="presentation">
<g>
<path d="M14.3988 8.8598C14.7524 8.43603 15.3829 8.37872 15.807 8.73187C16.2313 9.08542 16.2885 9.71678 15.935 10.1411L11.768 15.1411C11.5781 15.3686 11.2968 15.5003 11.0004 15.5004C10.7038 15.5003 10.4218 15.3688 10.2318 15.1411L8.14787 12.6411C7.79449 12.2169 7.85181 11.5855 8.27579 11.2319C8.69997 10.8784 9.33137 10.9358 9.68497 11.3598L10.9994 12.9379L14.3988 8.8598Z" fill="oklch(0.3523 0 0 / 1)" class="wd-icon-fill"></path>
<path d="M9.86466 1.60297C11.1691 0.779523 12.8317 0.779438 14.1361 1.60297C14.5339 1.85417 14.9038 2.23181 15.4193 2.74554C15.6374 2.96284 15.7028 3.02655 15.767 3.07953C16.0157 3.28453 16.311 3.42698 16.6264 3.49359C16.7078 3.51077 16.798 3.52206 17.1039 3.55707C17.8273 3.63986 18.3537 3.6936 18.7983 3.84808C20.2552 4.35462 21.2909 5.65475 21.4604 7.18793C21.512 7.65564 21.4478 8.18016 21.3676 8.90375C21.3336 9.20989 21.325 9.29997 21.3236 9.38324C21.3184 9.70558 21.391 10.0248 21.5356 10.3129C21.5729 10.3874 21.62 10.4647 21.7836 10.726C22.1699 11.3431 22.4553 11.7881 22.6117 12.2319C23.1243 13.6868 22.7546 15.3074 21.6615 16.3959C21.3281 16.7279 20.8778 17.0047 20.2621 17.393C20.0014 17.5575 19.9248 17.6068 19.8588 17.6577C19.6037 17.8544 19.4002 18.1103 19.2651 18.4028C19.2301 18.4785 19.1985 18.5639 19.0961 18.8549C18.8544 19.5417 18.6845 20.0428 18.435 20.4418C17.617 21.7494 16.1196 22.4702 14.5873 22.2944C14.1198 22.2406 13.6225 22.061 12.935 21.8217C12.644 21.7205 12.5579 21.6922 12.477 21.6723C12.164 21.5955 11.8369 21.5955 11.5238 21.6723C11.4429 21.6922 11.3569 21.7204 11.0658 21.8217C10.3783 22.0609 9.88093 22.2406 9.41349 22.2944C7.88112 22.4704 6.38389 21.7494 5.56583 20.4418C5.31631 20.0428 5.14639 19.5418 4.9047 18.8549C4.80233 18.564 4.7707 18.4785 4.73576 18.4028C4.60065 18.1103 4.39705 17.8544 4.14201 17.6577C4.07598 17.6067 3.9995 17.5575 3.73869 17.393C3.123 17.0046 2.67273 16.7279 2.33927 16.3959C1.24607 15.3074 0.876428 13.6869 1.38908 12.2319C1.54552 11.7881 1.83093 11.3432 2.2172 10.726C2.38078 10.4647 2.42786 10.3874 2.46525 10.3129C2.60978 10.0248 2.68239 9.70554 2.67716 9.38324C2.67579 9.29997 2.66717 9.20988 2.63322 8.90375C2.55297 8.18013 2.48884 7.65565 2.54044 7.18793C2.70988 5.65468 3.7455 4.35455 5.20255 3.84808C5.6471 3.69365 6.17348 3.63986 6.89689 3.55707C7.20291 3.52204 7.29292 3.51079 7.37443 3.49359C7.68976 3.42694 7.98511 3.28454 8.2338 3.07953C8.29799 3.02656 8.36348 2.96276 8.58146 2.74554C9.09701 2.2318 9.46684 1.85415 9.86466 1.60297ZM13.0678 3.29437C12.4157 2.88286 11.5851 2.88294 10.933 3.29437C10.7694 3.39767 10.5847 3.57249 9.99259 4.16254C9.80026 4.35419 9.65912 4.49664 9.50529 4.62347C9.00792 5.03337 8.4181 5.31738 7.78751 5.45062C7.59261 5.49175 7.39389 5.51353 7.12443 5.54437C6.29444 5.63936 6.04253 5.67431 5.85978 5.73773C5.1313 5.99088 4.61261 6.64018 4.52775 7.40668C4.5065 7.59899 4.52839 7.85228 4.62052 8.68304C4.65045 8.95294 4.67392 9.15164 4.67716 9.35101C4.68762 9.99547 4.54227 10.6333 4.25333 11.2094C4.1639 11.3877 4.05659 11.5573 3.91251 11.7875C3.46911 12.496 3.33913 12.7144 3.27482 12.8969C3.01862 13.6244 3.20387 14.4347 3.7504 14.9789C3.88754 15.1154 4.09952 15.2559 4.80607 15.7016C5.03566 15.8464 5.20484 15.9529 5.36271 16.0746C5.8732 16.4684 6.28189 16.9795 6.55216 17.5649C6.63571 17.7459 6.70131 17.9348 6.79142 18.1909C7.06889 18.9794 7.15855 19.2172 7.26115 19.3813C7.67018 20.035 8.41881 20.3951 9.18497 20.3071C9.37717 20.2849 9.61937 20.2077 10.4086 19.933C10.665 19.8438 10.8536 19.7774 11.0473 19.7299C11.6734 19.5763 12.3274 19.5763 12.9535 19.7299C13.1471 19.7774 13.3358 19.8438 13.5922 19.933C14.3816 20.2077 14.6236 20.285 14.8158 20.3071C15.5819 20.3949 16.3307 20.035 16.7397 19.3813C16.8422 19.2172 16.932 18.9793 17.2094 18.1909C17.2995 17.9348 17.3651 17.7459 17.4486 17.5649C17.7189 16.9795 18.1276 16.4684 18.6381 16.0746C18.796 15.9529 18.9651 15.8464 19.1947 15.7016C19.9014 15.2559 20.1133 15.1154 20.2504 14.9789C20.7968 14.4348 20.9821 13.6243 20.726 12.8969C20.6617 12.7144 20.5317 12.496 20.0883 11.7875C19.9442 11.5573 19.8369 11.3877 19.7475 11.2094C19.4585 10.6332 19.3132 9.99551 19.3236 9.35101C19.3269 9.15163 19.3504 8.95295 19.3803 8.68304C19.4724 7.85235 19.4943 7.59899 19.4731 7.40668C19.3882 6.64025 18.8694 5.99095 18.141 5.73773C17.9583 5.67426 17.7065 5.63938 16.8764 5.54437C16.6069 5.51353 16.4082 5.49173 16.2133 5.45062C15.5827 5.31742 14.9929 5.03336 14.4955 4.62347C14.3417 4.49663 14.2005 4.35419 14.0082 4.16254C13.4162 3.57262 13.2314 3.39769 13.0678 3.29437Z" fill="oklch(0.3523 0 0 / 1)" class="wd-icon-fill"></path>
</g>
</svg>