<svg width="24" height="24" viewBox="0 0 24 24" xmlns="http://www.w3.org/2000/svg" class="wd-icon wd-icon-play" role="presentation">
<path d="M7.89844 5.74603C8.22242 5.713 8.61717 5.94392 9.40625 6.40423L16.6309 10.6181C17.4091 11.0721 17.7985 11.2991 17.9297 11.5947C18.044 11.8526 18.0439 12.1473 17.9297 12.4052C17.7987 12.7009 17.4094 12.9286 16.6309 13.3827L9.40625 17.5966C8.61717 18.0569 8.22242 18.2869 7.89844 18.2538C7.61593 18.225 7.35863 18.0771 7.19141 17.8476C6.99997 17.5843 7 17.1276 7 16.2148V7.78607C7 6.87272 6.99974 6.41551 7.19141 6.15228C7.35864 5.92275 7.61592 5.77486 7.89844 5.74603Z" fill="oklch(0.3523 0 0 / 1)" class="wd-icon-fill"></path>
</svg>