<svg width="24" height="24" viewBox="0 0 24 24" xmlns="http://www.w3.org/2000/svg" class="wd-icon wd-icon-document-lock" role="presentation">
<g>
<path d="M14.2002 1C15.0236 1 15.7016 0.998989 16.252 1.04395C16.814 1.08987 17.3312 1.18834 17.8164 1.43555C18.5688 1.81896 19.181 2.43126 19.5645 3.1836C19.8116 3.66871 19.9101 4.18625 19.9561 4.74805C20.001 5.29827 20 5.97669 20 6.79981V9.5C19.9998 10.0521 19.5522 10.5 19 10.5C18.4479 10.4999 18.0002 10.0521 18 9.5V6.79981C18 5.94389 17.9996 5.36105 17.9629 4.91113C17.9271 4.47324 17.8619 4.24814 17.7823 4.0918C17.5905 3.71572 17.2843 3.40946 16.9082 3.21778C16.7518 3.13812 16.5272 3.07292 16.0889 3.03711C15.6389 3.00036 15.0565 3 14.2002 3H9.79983C8.94352 3 8.36117 3.00036 7.91116 3.03711C7.473 3.07292 7.2482 3.13813 7.09182 3.21778C6.71579 3.40946 6.4095 3.71578 6.2178 4.0918C6.13822 4.24813 6.07293 4.47333 6.03713 4.91113C6.00041 5.36104 6.00002 5.9439 6.00002 6.79981V18.5C6.00003 18.9949 6.00273 19.1473 6.0176 19.2607C6.1359 20.158 6.842 20.8642 7.73928 20.9824C7.85283 20.9973 8.00427 21 8.50002 21H12C12.5522 21 12.9998 21.4479 13 22C12.9998 22.5521 12.5522 23 12 23H8.50002C8.06745 23 7.75385 23.0022 7.47756 22.9658C5.68309 22.7294 4.27077 21.3169 4.0342 19.5225C3.99789 19.2463 4.00002 18.9322 4.00002 18.5V6.79981C4.00002 5.9767 3.99904 5.29826 4.04397 4.74805C4.0899 4.18629 4.18849 3.66868 4.43557 3.1836C4.81901 2.43132 5.43134 1.81897 6.18362 1.43555C6.66883 1.18836 7.18614 1.08988 7.74807 1.04395C8.29842 0.998984 8.97641 1 9.79983 1H14.2002Z" fill="oklch(0.3523 0 0 / 1)" class="wd-icon-fill"></path>
<path d="M9.00002 12C9.55231 12 10 12.4477 10 13C10 13.5523 9.55231 14 9.00002 14C8.44774 14 8.00002 13.5523 8.00002 13C8.00002 12.4477 8.44774 12 9.00002 12Z" fill="oklch(0.3523 0 0 / 1)" class="wd-icon-fill"></path>
<path d="M13.25 12.25C13.6642 12.25 14 12.5858 14 13C14 13.4142 13.6642 13.75 13.25 13.75H11.75C11.3358 13.75 11 13.4142 11 13C11 12.5858 11.3358 12.25 11.75 12.25H13.25Z" fill="oklch(0.3523 0 0 / 1)" class="wd-icon-fill"></path>
<path d="M9.00002 9C9.55231 9 10 9.44772 10 10C10 10.5523 9.55231 11 9.00002 11C8.44774 11 8.00002 10.5523 8.00002 10C8.00002 9.44772 8.44774 9 9.00002 9Z" fill="oklch(0.3523 0 0 / 1)" class="wd-icon-fill"></path>
<path d="M15.25 9.25C15.6642 9.25 16 9.58579 16 10C16 10.4142 15.6642 10.75 15.25 10.75H11.75C11.3358 10.75 11 10.4142 11 10C11 9.58579 11.3358 9.25 11.75 9.25H15.25Z" fill="oklch(0.3523 0 0 / 1)" class="wd-icon-fill"></path>
<path d="M9.00002 6C9.55231 6 10 6.44772 10 7C10 7.55229 9.55231 8 9.00002 8C8.44774 8 8.00002 7.55229 8.00002 7C8.00002 6.44772 8.44774 6 9.00002 6Z" fill="oklch(0.3523 0 0 / 1)" class="wd-icon-fill"></path>
<path d="M15.25 6.25C15.6642 6.25 16 6.58579 16 7C16 7.41422 15.6642 7.75 15.25 7.75H11.75C11.3358 7.75 11 7.41422 11 7C11 6.58579 11.3358 6.25 11.75 6.25H15.25Z" fill="oklch(0.3523 0 0 / 1)" class="wd-icon-fill"></path>
</g>
<path d="M18.5 12C20.1569 12 21.5 13.3431 21.5 15V16.0732C21.6364 16.1039 21.7734 16.1491 21.9082 16.2178C22.2845 16.4095 22.5905 16.7155 22.7822 17.0918C22.9132 17.3488 22.9597 17.6133 22.9805 17.8682C23.0006 18.1142 23 18.4125 23 18.75V20.25C23 20.5875 23.0006 20.8859 22.9805 21.1318C22.9597 21.3865 22.913 21.6503 22.7822 21.9072C22.5905 22.2834 22.2844 22.5895 21.9082 22.7812C21.6512 22.9122 21.3867 22.9596 21.1318 22.9805C20.8858 23.0006 20.5875 23 20.25 23H16.75C16.4125 23 16.1142 23.0006 15.8682 22.9805C15.6133 22.9596 15.3488 22.9122 15.0918 22.7812C14.7156 22.5895 14.4095 22.2834 14.2178 21.9072C14.087 21.6503 14.0403 21.3865 14.0195 21.1318C13.9994 20.8858 14 20.5875 14 20.25V18.75C14 18.4125 13.9994 18.1142 14.0195 17.8682C14.0404 17.6133 14.0868 17.3488 14.2178 17.0918C14.4095 16.7155 14.7155 16.4095 15.0918 16.2178C15.2266 16.1491 15.3636 16.1039 15.5 16.0732V15C15.5 13.3431 16.8431 12 18.5 12ZM16.75 17.5C16.3877 17.5 16.161 17.5007 15.9902 17.5146C15.8295 17.5278 15.7843 17.5492 15.7734 17.5547C15.6794 17.6026 15.6026 17.6794 15.5547 17.7734C15.5492 17.7843 15.5278 17.8295 15.5146 17.9902C15.5007 18.161 15.5 18.3877 15.5 18.75V20.25C15.5 20.6122 15.5007 20.839 15.5146 21.0098C15.5279 21.1716 15.5494 21.2162 15.5547 21.2266C15.6026 21.3206 15.6794 21.3974 15.7734 21.4453C15.7845 21.4509 15.8302 21.4723 15.9902 21.4854C16.161 21.4993 16.3877 21.5 16.75 21.5H20.25C20.6123 21.5 20.839 21.4993 21.0098 21.4854C21.1698 21.4723 21.2155 21.4509 21.2266 21.4453C21.3206 21.3974 21.3974 21.3206 21.4453 21.2266C21.4506 21.2162 21.4721 21.1716 21.4854 21.0098C21.4993 20.839 21.5 20.6122 21.5 20.25V18.75C21.5 18.3877 21.4993 18.161 21.4854 17.9902C21.4722 17.8295 21.4508 17.7843 21.4453 17.7734C21.3974 17.6794 21.3206 17.6026 21.2266 17.5547C21.2157 17.5492 21.1705 17.5278 21.0098 17.5146C20.839 17.5007 20.6123 17.5 20.25 17.5H16.75ZM18.5 13.5C17.6716 13.5 17 14.1716 17 15V16H20V15C20 14.1716 19.3284 13.5 18.5 13.5Z" fill="oklch(0.3523 0 0 / 1)" class="wd-icon-accent"></path>
</svg>