<svg width="24" height="24" viewBox="0 0 24 24" xmlns="http://www.w3.org/2000/svg" class="wd-icon wd-icon-document-view" role="presentation">
<g>
<path d="M13.2002 2C14.0237 2 14.7016 1.99898 15.252 2.04395C15.814 2.08988 16.3311 2.18827 16.8164 2.43555C17.5689 2.81902 18.181 3.43109 18.5645 4.1836C18.8117 4.6689 18.9101 5.18599 18.9561 5.74805C19.001 6.29843 19 6.97632 19 7.79981V16.2002C19 17.0237 19.001 17.7016 18.9561 18.252C18.9101 18.814 18.8117 19.3311 18.5645 19.8164C18.181 20.5689 17.5689 21.181 16.8164 21.5645C16.3311 21.8117 15.814 21.9101 15.252 21.9561C14.7016 22.001 14.0237 22 13.2002 22H10.7998C9.97631 22 9.29843 22.001 8.74805 21.9561C8.18599 21.9101 7.6689 21.8117 7.18359 21.5645C6.43109 21.181 5.81902 20.5689 5.43555 19.8164C5.18827 19.3311 5.08987 18.814 5.04395 18.252C4.99898 17.7016 5 17.0237 5 16.2002V7.79981C5 6.97632 4.99898 6.29843 5.04395 5.74805C5.08987 5.18599 5.18827 4.6689 5.43555 4.1836C5.81902 3.43109 6.43109 2.81902 7.18359 2.43555C7.6689 2.18827 8.18599 2.08988 8.74805 2.04395C9.29843 1.99898 9.97631 2 10.7998 2H13.2002ZM10.7998 4C9.94341 4 9.36117 4.00035 8.91113 4.03711C8.47272 4.07293 8.2482 4.13809 8.0918 4.21778C7.71554 4.40951 7.40951 4.71555 7.21777 5.0918C7.13808 5.2482 7.07293 5.47272 7.03711 5.91113C7.00035 6.36117 7 6.94342 7 7.79981V16.2002C7 17.0566 7.00035 17.6388 7.03711 18.0889C7.07293 18.5273 7.13808 18.7518 7.21777 18.9082C7.40951 19.2845 7.71554 19.5905 8.0918 19.7822C8.2482 19.8619 8.47272 19.9271 8.91113 19.9629C9.36117 19.9997 9.94341 20 10.7998 20H13.2002C14.0566 20 14.6388 19.9997 15.0889 19.9629C15.5273 19.9271 15.7518 19.8619 15.9082 19.7822C16.2845 19.5905 16.5905 19.2845 16.7822 18.9082C16.8619 18.7518 16.9271 18.5273 16.9629 18.0889C16.9997 17.6388 17 17.0566 17 16.2002V7.79981C17 6.94342 16.9997 6.36117 16.9629 5.91113C16.9271 5.47272 16.8619 5.2482 16.7822 5.0918C16.5905 4.71555 16.2845 4.40951 15.9082 4.21778C15.7518 4.13809 15.5273 4.07293 15.0889 4.03711C14.6388 4.00035 14.0566 4 13.2002 4H10.7998Z" fill="oklch(0.3523 0 0 / 1)" class="wd-icon-fill"></path>
<path d="M3 4C3.41421 4 3.75 4.33579 3.75 4.75V19.25C3.75 19.6642 3.41421 20 3 20C2.58579 20 2.25 19.6642 2.25 19.25V4.75C2.25 4.33579 2.58579 4 3 4Z" fill="oklch(0.3523 0 0 / 1)" class="wd-icon-fill"></path>
<path d="M21 4C21.4142 4 21.75 4.33579 21.75 4.75V19.25C21.75 19.6642 21.4142 20 21 20C20.5858 20 20.25 19.6642 20.25 19.25V4.75C20.25 4.33579 20.5858 4 21 4Z" fill="oklch(0.3523 0 0 / 1)" class="wd-icon-fill"></path>
</g>
<g>
<path d="M12.25 13.25C12.6642 13.25 13 13.5858 13 14C13 14.4142 12.6642 14.75 12.25 14.75H9.75C9.33579 14.75 9 14.4142 9 14C9 13.5858 9.33579 13.25 9.75 13.25H12.25Z" fill="oklch(0.3523 0 0 / 1)" class="wd-icon-accent"></path>
<path d="M14.25 10.25C14.6642 10.25 15 10.5858 15 11C15 11.4142 14.6642 11.75 14.25 11.75H9.75C9.33579 11.75 9 11.4142 9 11C9 10.5858 9.33579 10.25 9.75 10.25H14.25Z" fill="oklch(0.3523 0 0 / 1)" class="wd-icon-accent"></path>
<path d="M14.25 7.25C14.6642 7.25 15 7.58579 15 8C15 8.41421 14.6642 8.75 14.25 8.75H9.75C9.33579 8.75 9 8.41421 9 8C9 7.58579 9.33579 7.25 9.75 7.25H14.25Z" fill="oklch(0.3523 0 0 / 1)" class="wd-icon-accent"></path>
</g>
</svg>