<svg width="24" height="24" viewBox="0 0 24 24" xmlns="http://www.w3.org/2000/svg" class="wd-icon wd-icon-hierarchy-diagonal-parent-child-child" role="presentation">
<g>
<path d="M18.5 15C20.433 15 22 16.567 22 18.5C22 20.433 20.433 22 18.5 22C16.567 22 15 20.433 15 18.5C15 16.567 16.567 15 18.5 15ZM18.5 17C17.6716 17 17 17.6716 17 18.5C17 19.3284 17.6716 20 18.5 20C19.3284 20 20 19.3284 20 18.5C20 17.6716 19.3284 17 18.5 17Z" fill="oklch(0.3523 0 0 / 1)" class="wd-icon-fill"></path>
<path d="M12 8.5C13.933 8.5 15.5 10.067 15.5 12C15.5 13.933 13.933 15.5 12 15.5C10.067 15.5 8.5 13.933 8.5 12C8.5 10.067 10.067 8.5 12 8.5ZM12 10.5C11.1716 10.5 10.5 11.1716 10.5 12C10.5 12.8284 11.1716 13.5 12 13.5C12.8284 13.5 13.5 12.8284 13.5 12C13.5 11.1716 12.8284 10.5 12 10.5Z" fill="oklch(0.3523 0 0 / 1)" class="wd-icon-fill"></path>
<path d="M5.5 2C7.433 2 9 3.567 9 5.5C9 7.433 7.433 9 5.5 9C3.567 9 2 7.433 2 5.5C2 3.567 3.567 2 5.5 2ZM5.5 4C4.67157 4 4 4.67157 4 5.5C4 6.32843 4.67157 7 5.5 7C6.32843 7 7 6.32843 7 5.5C7 4.67157 6.32843 4 5.5 4Z" fill="oklch(0.3523 0 0 / 1)" class="wd-icon-fill"></path>
</g>
<path d="M5.5 2C7.433 2 9 3.567 9 5.5C9 7.2632 7.6961 8.72121 6 8.96387V10C6 10.5523 6.44772 11 7 11H8.64551C9.07583 9.55434 10.4145 8.5 12 8.5C13.933 8.5 15.5 10.067 15.5 12C15.5 13.5854 14.4455 14.9231 13 15.3535V17C13 17.5523 13.4477 18 14 18H15.0361C15.2788 16.3039 16.7368 15 18.5 15C20.433 15 22 16.567 22 18.5C22 20.433 20.433 22 18.5 22C17.1038 22 15.8987 21.1825 15.3369 20H14C12.3431 20 11 18.6569 11 17V15.3535C9.87136 15.0175 8.98148 14.1287 8.64551 13H7C5.34315 13 4 11.6569 4 10V8.66309C2.81755 8.10135 2 6.89618 2 5.5C2 3.567 3.567 2 5.5 2Z" fill="oklch(0.3523 0 0 / 1)" class="wd-icon-accent"></path>
</svg>