<svg width="24" height="24" viewBox="0 0 24 24" xmlns="http://www.w3.org/2000/svg" class="wd-icon wd-icon-presentation-image" role="presentation">
<path d="M12 1C12.5523 1 13 1.44772 13 2H17.7998C18.3434 2 18.8116 1.99893 19.1953 2.03027C19.5906 2.06258 19.984 2.1344 20.3623 2.32715C20.9265 2.61472 21.3853 3.07348 21.6729 3.6377C21.8656 4.01599 21.9374 4.40943 21.9697 4.80469C22.0011 5.18836 22 5.65664 22 6.2002V12.7998C22 13.3434 22.0011 13.8116 21.9697 14.1953C21.9374 14.5906 21.8656 14.984 21.6729 15.3623C21.3853 15.9265 20.9265 16.3853 20.3623 16.6729C19.984 16.8656 19.5906 16.9374 19.1953 16.9697C18.8116 17.0011 18.3433 17 17.7998 17H13V19.2227L16.2471 20.0352C16.7828 20.1691 17.1083 20.7114 16.9746 21.2471C16.8407 21.7828 16.2984 22.1084 15.7627 21.9746L12.0049 21.0352L8.24707 21.9746C7.71135 22.1084 7.16909 21.7828 7.03516 21.2471C6.90144 20.7114 7.22702 20.1691 7.7627 20.0352L11 19.2256V17H6.2002C5.65666 17 5.18836 17.0011 4.80469 16.9697C4.40944 16.9374 4.01599 16.8656 3.6377 16.6729C3.07348 16.3853 2.61472 15.9265 2.32715 15.3623C2.1344 14.984 2.06259 14.5906 2.03028 14.1953C1.99893 13.8116 2 13.3434 2 12.7998V6.2002C2 5.65664 1.99893 5.18836 2.03028 4.80469C2.06259 4.40943 2.1344 4.01599 2.32715 3.6377C2.61472 3.07348 3.07348 2.61472 3.6377 2.32715C4.01599 2.1344 4.40944 2.06259 4.80469 2.03027C5.18836 1.99893 5.65666 2 6.2002 2H11C11 1.44772 11.4477 1.00001 12 1ZM6.2002 4C5.62366 4 5.25111 4.00126 4.96778 4.02441C4.69621 4.04661 4.59534 4.08419 4.5459 4.10938C4.35794 4.20522 4.20522 4.35793 4.10938 4.5459C4.08419 4.59534 4.04661 4.6962 4.02442 4.96777C4.00127 5.25111 4 5.62364 4 6.2002V12.7998C4 13.3764 4.00127 13.7489 4.02442 14.0322C4.04661 14.3038 4.08419 14.4047 4.10938 14.4541C4.20522 14.6421 4.35794 14.7948 4.5459 14.8906C4.59534 14.9158 4.69621 14.9534 4.96778 14.9756C5.25111 14.9987 5.62366 15 6.2002 15H17.7998C18.3763 15 18.7489 14.9987 19.0322 14.9756C19.3038 14.9534 19.4047 14.9158 19.4541 14.8906C19.6421 14.7948 19.7948 14.6421 19.8906 14.4541C19.9158 14.4047 19.9534 14.3038 19.9756 14.0322C19.9987 13.7489 20 13.3764 20 12.7998V6.2002C20 5.62364 19.9987 5.25111 19.9756 4.96777C19.9534 4.69619 19.9158 4.59534 19.8906 4.5459C19.7948 4.35793 19.6421 4.20521 19.4541 4.10938C19.4047 4.08418 19.3038 4.04661 19.0322 4.02441C18.7489 4.00127 18.3763 4 17.7998 4H6.2002Z" fill="oklch(0.3523 0 0 / 1)" class="wd-icon-fill"></path>
<path d="M18.002 5.5C18.2781 5.5 18.502 5.72386 18.502 6V12.5C18.502 12.7761 18.2781 13 18.002 13H17.959C17.8264 13 17.6992 12.9473 17.6055 12.8535L14.6787 9.92676C14.5811 9.82915 14.4228 9.82915 14.3252 9.92676L11.3984 12.8535C11.3047 12.9473 11.1775 13 11.0449 13H10.958C10.8254 13 10.6982 12.9473 10.6045 12.8535L8.67871 10.9268C8.5811 10.8292 8.42283 10.8292 8.3252 10.9268L6.39844 12.8535C6.30469 12.9473 6.1775 13 6.04492 13H6.00195C5.72581 13 5.50195 12.7761 5.50195 12.5V6C5.50195 5.72386 5.72581 5.5 6.00195 5.5H18.002ZM10.502 7.25C9.8116 7.25 9.25195 7.80964 9.25195 8.5C9.25195 9.19036 9.8116 9.75 10.502 9.75C11.1923 9.75 11.752 9.19036 11.752 8.5C11.752 7.80964 11.1923 7.25 10.502 7.25Z" fill="oklch(0.3523 0 0 / 1)" class="wd-icon-accent"></path>
</svg>