<svg width="24" height="24" viewBox="0 0 24 24" xmlns="http://www.w3.org/2000/svg" class="wd-icon wd-icon-money-ribbon" role="presentation">
<g>
<path d="M17.5 13C19.433 13 21 14.567 21 16.5C21 17.4531 20.6179 18.3161 20 18.9473V22.4932C19.9998 22.9384 19.4614 23.1614 19.1465 22.8467L17.5 21.2002L15.8535 22.8467C15.5386 23.1614 15.0002 22.9384 15 22.4932V18.9473C14.3821 18.3161 14 17.4531 14 16.5C14 14.567 15.567 13 17.5 13ZM17.5 15C16.6716 15 16 15.6716 16 16.5C16 17.3284 16.6716 18 17.5 18C18.3284 18 19 17.3284 19 16.5C19 15.6716 18.3284 15 17.5 15Z" fill="oklch(0.3523 0 0 / 1)" class="wd-icon-fill"></path>
<path d="M22 5C22.5523 5 23 5.44772 23 6V13.5C23 13.7761 22.7761 14 22.5 14H21.5C21.2239 14 21 13.7761 21 13.5V11C18.7909 11 17 9.20914 17 7H7C7 9.20914 5.20914 11 3 11V13C5.20914 13 7 14.7909 7 17H11.5C11.7761 17 12 17.2239 12 17.5V18.5C12 18.7761 11.7761 19 11.5 19H2C1.44772 19 1 18.5523 1 18V6C1 5.44772 1.44772 5 2 5H22ZM3 17H5C5 15.8954 4.10457 15 3 15V17ZM3 9C4.10457 9 5 8.10457 5 7H3V9ZM19 7C19 8.10457 19.8954 9 21 9V7H19Z" fill="oklch(0.3523 0 0 / 1)" class="wd-icon-fill"></path>
<path d="M12 8C14.0401 8.00011 15.7241 9.52741 15.9697 11.501C16.0038 11.775 15.7761 12 15.5 12H14.5C14.224 11.9999 14.0066 11.7724 13.9385 11.5049C13.7181 10.6399 12.9336 10.0001 12 10C10.8955 10.0001 10 10.8955 10 12C10 12.9336 10.6399 13.7181 11.5049 13.9385C11.7725 14.0066 12 14.2239 12 14.5V15.5C12 15.7761 11.775 16.0029 11.501 15.9688C9.52747 15.723 8 14.0401 8 12C8 9.79093 9.79096 8.00011 12 8Z" fill="oklch(0.3523 0 0 / 1)" class="wd-icon-fill"></path>
</g>
</svg>