<svg width="24" height="24" viewBox="0 0 24 24" xmlns="http://www.w3.org/2000/svg" class="wd-icon wd-icon-arrows-clockwise" role="presentation">
<g>
<path d="M17.7949 13.5527C17.9379 13.0197 18.4864 12.7034 19.0195 12.8457C19.5528 12.9887 19.8693 13.537 19.7266 14.0703C19.317 15.5985 18.4629 16.9715 17.2734 18.0146C16.084 19.0575 14.6113 19.7252 13.043 19.9316C11.4747 20.1379 9.87962 19.8744 8.46094 19.1748C7.52032 18.7108 6.68575 18.0673 5.99902 17.2881V19C5.99902 19.5523 5.55131 20 4.99902 20C4.44718 19.9995 3.99902 19.552 3.99902 19V15C3.99909 14.4481 4.44722 14.0005 4.99902 14H8.99902C9.55127 14 9.99895 14.4478 9.99902 15C9.99902 15.5523 9.55131 16 8.99902 16H7.52832C8.03781 16.5692 8.65387 17.0396 9.3457 17.3809C10.4097 17.9055 11.6061 18.1029 12.7822 17.9482C13.9585 17.7934 15.063 17.2929 15.9551 16.5107C16.8471 15.7284 17.4878 14.6988 17.7949 13.5527Z" fill="oklch(0.3523 0 0 / 1)" class="wd-icon-fill"></path>
<path d="M19 4C19.5521 4.00026 20 4.44787 20 5V9C19.9998 9.55196 19.5519 9.99974 19 10H15C14.448 9.99976 14.0002 9.55197 14 9C14 8.44787 14.4479 8.00024 15 8H16.4707C15.9611 7.43074 15.3453 6.96044 14.6533 6.61914C13.5893 6.09451 12.393 5.897 11.2168 6.05176C10.0406 6.20672 8.93593 6.70714 8.04395 7.48926C7.15212 8.27156 6.51121 9.30139 6.2041 10.4473C6.06091 10.9802 5.51261 11.2969 4.97949 11.1543C4.44656 11.0112 4.13002 10.4628 4.27246 9.92969C4.68196 8.40167 5.53629 7.02848 6.72559 5.98535C7.91497 4.94248 9.38776 4.27493 10.9561 4.06836C12.5244 3.86204 14.1193 4.12562 15.5381 4.8252C16.4789 5.28918 17.3132 5.93255 18 6.71191V5C18 4.44787 18.4479 4.00024 19 4Z" fill="oklch(0.3523 0 0 / 1)" class="wd-icon-fill"></path>
</g>
</svg>