<svg width="24" height="24" viewBox="0 0 24 24" xmlns="http://www.w3.org/2000/svg" class="wd-icon wd-icon-document-copy" role="presentation">
<g>
<path d="M13 10C13 11.1046 13.8954 12 15 12H19V18.7998C19 19.3764 18.9987 19.7489 18.9756 20.0322C18.9534 20.3038 18.9158 20.4047 18.8906 20.4541C18.7948 20.6421 18.6421 20.7948 18.4541 20.8906C18.4047 20.9158 18.3038 20.9534 18.0322 20.9756C17.7489 20.9987 17.3764 21 16.7998 21H11.2002C10.6236 21 10.2511 20.9987 9.96777 20.9756C9.69619 20.9534 9.59534 20.9158 9.5459 20.8906C9.35793 20.7948 9.20521 20.6421 9.10938 20.4541C9.08419 20.4047 9.04661 20.3038 9.02441 20.0322C9.00126 19.7489 9 19.3764 9 18.7998V8.2002C9 7.62364 9.00126 7.25111 9.02441 6.96777C9.04661 6.69619 9.08419 6.59534 9.10938 6.5459C9.20521 6.35793 9.35793 6.20521 9.5459 6.10938C9.59534 6.08419 9.69619 6.04661 9.96777 6.02441C10.2511 6.00126 10.6236 6 11.2002 6H13V10ZM11.25 17.25C10.8358 17.25 10.5 17.5858 10.5 18C10.5 18.4142 10.8358 18.75 11.25 18.75H14.75C15.1642 18.75 15.5 18.4142 15.5 18C15.5 17.5858 15.1642 17.25 14.75 17.25H11.25ZM11.25 14.25C10.8358 14.25 10.5 14.5858 10.5 15C10.5 15.4142 10.8358 15.75 11.25 15.75H16.75C17.1642 15.75 17.5 15.4142 17.5 15C17.5 14.5858 17.1642 14.25 16.75 14.25H11.25Z" fill="transparent" class="wd-icon-background"></path>
<path d="M14.5 6.05762C14.5675 6.08126 14.6332 6.11002 14.6943 6.14746C14.7717 6.19492 14.8513 6.26536 15.2305 6.64453L18.3555 9.76953C18.7346 10.1487 18.8051 10.2283 18.8525 10.3057C18.8899 10.3667 18.9178 10.4326 18.9414 10.5H15C14.7239 10.5 14.5 10.2761 14.5 10V6.05762Z" fill="transparent" class="wd-icon-background"></path>
</g>
<path d="M12.7998 1C13.3434 1 13.8116 0.998931 14.1953 1.03028C14.5906 1.06259 14.984 1.1344 15.3623 1.32715C15.9265 1.61473 16.3853 2.07348 16.6729 2.6377C16.8656 3.016 16.9374 3.40943 16.9697 3.80469C17.0011 4.18836 17 4.65665 17 5.2002V5.58594L19.7695 8.35547C20.0817 8.66763 20.3577 8.93465 20.5576 9.26075C20.7221 9.52911 20.8435 9.82189 20.917 10.1279C21.0063 10.4999 21 10.8837 21 11.3252V18.7998C21 19.3434 21.0011 19.8116 20.9697 20.1953C20.9374 20.5906 20.8656 20.984 20.6729 21.3623C20.3853 21.9265 19.9265 22.3853 19.3623 22.6729C18.984 22.8656 18.5906 22.9374 18.1953 22.9697C17.8116 23.0011 17.3434 23 16.7998 23H11.2002C10.6566 23 10.1884 23.0011 9.80469 22.9697C9.40943 22.9374 9.016 22.8656 8.6377 22.6729C8.07348 22.3853 7.61473 21.9265 7.32715 21.3623C7.1344 20.984 7.06259 20.5906 7.03028 20.1953C7.02512 20.1322 7.02211 20.0667 7.01856 19.999C6.55174 19.9989 6.14494 19.9975 5.80469 19.9697C5.40943 19.9374 5.016 19.8656 4.6377 19.6729C4.07348 19.3853 3.61473 18.9265 3.32715 18.3623C3.1344 17.984 3.06259 17.5906 3.03028 17.1953C2.99893 16.8116 3 16.3434 3 15.7998V5.2002C3 4.65665 2.99893 4.18836 3.03028 3.80469C3.06259 3.40943 3.1344 3.016 3.32715 2.6377C3.61473 2.07348 4.07348 1.61473 4.6377 1.32715C5.016 1.1344 5.40943 1.06259 5.80469 1.03028C6.18836 0.998931 6.65665 1 7.2002 1H12.7998ZM11.2002 6C10.6236 6 10.2511 6.00127 9.96778 6.02442C9.69619 6.04662 9.59534 6.08419 9.5459 6.10938C9.35793 6.20522 9.20522 6.35793 9.10938 6.5459C9.08419 6.59534 9.04662 6.69619 9.02442 6.96778C9.00127 7.25111 9 7.62365 9 8.2002V18.7998C9 19.3764 9.00127 19.7489 9.02442 20.0322C9.04662 20.3038 9.08419 20.4047 9.10938 20.4541C9.20522 20.6421 9.35793 20.7948 9.5459 20.8906C9.59534 20.9158 9.69619 20.9534 9.96778 20.9756C10.2511 20.9987 10.6236 21 11.2002 21H16.7998C17.3764 21 17.7489 20.9987 18.0322 20.9756C18.3038 20.9534 18.4047 20.9158 18.4541 20.8906C18.6421 20.7948 18.7948 20.6421 18.8906 20.4541C18.9158 20.4047 18.9534 20.3038 18.9756 20.0322C18.9987 19.7489 19 19.3764 19 18.7998V12H15C13.8954 12 13 11.1046 13 10V6H11.2002ZM7.2002 3C6.62365 3 6.25112 3.00127 5.96778 3.02442C5.69619 3.04662 5.59534 3.08419 5.5459 3.10938C5.35793 3.20522 5.20522 3.35793 5.10938 3.5459C5.08419 3.59534 5.04662 3.69619 5.02442 3.96778C5.00127 4.25112 5 4.62365 5 5.2002V15.7998C5 16.3764 5.00127 16.7489 5.02442 17.0322C5.04662 17.3038 5.08419 17.4047 5.10938 17.4541C5.20522 17.6421 5.35793 17.7948 5.5459 17.8906C5.59534 17.9158 5.69619 17.9534 5.96778 17.9756C6.21689 17.9959 6.53495 17.9975 7 17.9981V8.2002C7 7.65665 6.99893 7.18836 7.03028 6.80469C7.06259 6.40943 7.1344 6.016 7.32715 5.6377C7.61473 5.07348 8.07348 4.61473 8.6377 4.32715C9.016 4.1344 9.40943 4.06259 9.80469 4.03028C10.1884 3.99893 10.6566 4 11.2002 4H13.6748C14.1163 4 14.5001 3.99371 14.8721 4.08301C14.9096 4.09202 14.9463 4.10382 14.9834 4.11426C14.9807 4.06276 14.9794 4.01403 14.9756 3.96778C14.9534 3.69619 14.9158 3.59534 14.8906 3.5459C14.7948 3.35793 14.6421 3.20522 14.4541 3.10938C14.4047 3.08419 14.3038 3.04662 14.0322 3.02442C13.7489 3.00127 13.3764 3 12.7998 3H7.2002ZM14.5 10C14.5 10.2761 14.7239 10.5 15 10.5H18.9414C18.9178 10.4326 18.8899 10.3667 18.8525 10.3057C18.8051 10.2283 18.7346 10.1487 18.3555 9.76954L15.2305 6.64454C14.8513 6.26536 14.7717 6.19492 14.6943 6.14747C14.6332 6.11003 14.5675 6.08126 14.5 6.05762V10Z" fill="oklch(0.3523 0 0 / 1)" class="wd-icon-fill"></path>
<g>
<path d="M14.75 17.25C15.1642 17.25 15.5 17.5858 15.5 18C15.5 18.4142 15.1642 18.75 14.75 18.75H11.25C10.8358 18.75 10.5 18.4142 10.5 18C10.5 17.5858 10.8358 17.25 11.25 17.25H14.75Z" fill="oklch(0.3523 0 0 / 1)" class="wd-icon-accent"></path>
<path d="M16.75 14.25C17.1642 14.25 17.5 14.5858 17.5 15C17.5 15.4142 17.1642 15.75 16.75 15.75H11.25C10.8358 15.75 10.5 15.4142 10.5 15C10.5 14.5858 10.8358 14.25 11.25 14.25H16.75Z" fill="oklch(0.3523 0 0 / 1)" class="wd-icon-accent"></path>
</g>
</svg>