<svg width="24" height="24" viewBox="0 0 24 24" xmlns="http://www.w3.org/2000/svg" class="wd-icon wd-icon-checkbox" role="presentation">
<path d="M3 6C3 4.34315 4.34315 3 6 3H18C19.6569 3 21 4.34315 21 6V18C21 19.6569 19.6569 21 18 21H6C4.34315 21 3 19.6569 3 18V6Z" fill="transparent" class="wd-icon-background"></path>
<path d="M18 2C20.2091 2 22 3.79086 22 6V18C22 20.2091 20.2091 22 18 22H6C3.79086 22 2 20.2091 2 18V6C2 3.79086 3.79086 2 6 2H18ZM6 4C4.89543 4 4 4.89543 4 6V18C4 19.1046 4.89543 20 6 20H18C19.1046 20 20 19.1046 20 18V6C20 4.89543 19.1046 4 18 4H6Z" fill="oklch(0.3523 0 0 / 1)" class="wd-icon-fill"></path>
<path d="M15.9394 8.14585C16.1346 7.95075 16.4512 7.95072 16.6464 8.14585L17.3534 8.85288C17.5486 9.0481 17.5485 9.36464 17.3534 9.55991L16.7069 10.2054L16.7079 10.2064L10.7079 16.2064C10.3174 16.5969 9.68438 16.5968 9.29385 16.2064L7.94424 14.8568C7.94276 14.8554 7.94082 14.8543 7.93936 14.8529L6.14639 13.0599C5.95122 12.8647 5.95119 12.5481 6.14639 12.3529L6.85342 11.6458C7.04866 11.4508 7.36523 11.4507 7.56045 11.6458L10.0009 14.0853L15.9394 8.14585Z" fill="oklch(0.3523 0 0 / 1)" class="wd-icon-accent"></path>
</svg>