<svg width="24" height="24" viewBox="0 0 24 24" xmlns="http://www.w3.org/2000/svg" class="wd-icon wd-icon-book-user" role="presentation">
<path d="M18 17H7C6.649 17 6.31306 17.0631 6 17.1738V5C6 3.89543 6.89543 3 8 3H18V17ZM12 11C10.4479 11 9.10252 11.5012 8.43945 12.6611C8.17792 13.1187 8.49744 13.6497 9.01562 13.7461C9.69445 13.8723 10.7016 14 12 14C13.2987 14 14.3065 13.8723 14.9854 13.7461C15.5032 13.6495 15.8228 13.1186 15.5615 12.6611C14.8985 11.501 13.5522 11 12 11ZM12 6C10.8955 6.00012 10 6.8955 10 8C10 9.1045 10.8955 9.99988 12 10C13.1045 9.99988 14 9.1045 14 8C14 6.8955 13.1045 6.00012 12 6Z" fill="transparent" class="wd-icon-background"></path>
<path d="M18 1C19.1046 1 20 1.89543 20 3V17C20 18.1046 19.1046 19 18 19V21H19C19.5523 21 20 21.4477 20 22C20 22.5523 19.5523 23 19 23H7C5.51353 23 4.28007 21.9188 4.04199 20.5H4V5C4 2.79086 5.79086 1 8 1H18ZM7 19C6.44772 19 6 19.4477 6 20C6 20.5523 6.44772 21 7 21H16V19H7ZM8 3C6.89543 3 6 3.89543 6 5V17.1738C6.31306 17.0631 6.649 17 7 17H18V3H8Z" fill="oklch(0.3523 0 0 / 1)" class="wd-icon-fill"></path>
<g>
<path d="M11.9994 11C13.5516 11 14.8978 11.501 15.5609 12.6611C15.8223 13.1186 15.5027 13.6496 14.9847 13.7461C14.3059 13.8723 13.298 14 11.9994 14C10.701 14 9.6938 13.8723 9.01501 13.7461C8.49699 13.6496 8.17745 13.1187 8.43884 12.6611C9.10186 11.5012 10.4474 11.0001 11.9994 11Z" fill="oklch(0.3523 0 0 / 1)" class="wd-icon-accent"></path>
<path d="M11.9994 6C13.104 6 13.9994 6.89543 13.9994 8C13.9994 9.10457 13.104 10 11.9994 10C10.895 9.99976 9.99939 9.10442 9.99939 8C9.99939 6.89558 10.895 6.00024 11.9994 6Z" fill="oklch(0.3523 0 0 / 1)" class="wd-icon-accent"></path>
</g>
</svg>