<svg width="24" height="24" viewBox="0 0 24 24" xmlns="http://www.w3.org/2000/svg" class="wd-icon wd-icon-bar-horizontal-cluster-chart" role="presentation">
<g>
<path d="M18.5 13C18.7193 13 18.9338 12.9993 19.1152 13.0117C19.3056 13.0247 19.5316 13.0554 19.7656 13.1523L19.9443 13.2373C20.2918 13.4234 20.5766 13.7082 20.7627 14.0557L20.8477 14.2344C20.9446 14.4684 20.9753 14.6944 20.9883 14.8848C21.0007 15.0662 21 15.2807 21 15.5C21 15.7193 21.0007 15.9338 20.9883 16.1152C20.9785 16.2579 20.9592 16.4208 20.9092 16.5918L20.8477 16.7656C20.6701 17.1942 20.3498 17.5455 19.9443 17.7627L19.7656 17.8477C19.5316 17.9446 19.3056 17.9753 19.1152 17.9883C18.9338 18.0007 18.7193 18 18.5 18H17V18.4004C17 18.6641 17.0003 18.9216 16.9824 19.1387C16.9683 19.3103 16.9408 19.5052 16.8691 19.7061L16.7813 19.9082C16.6136 20.2371 16.3588 20.5121 16.0459 20.7041L15.9082 20.7812C15.6372 20.9193 15.3674 20.9636 15.1387 20.9824C14.9216 21.0003 14.6641 21 14.4004 21H5.59962C5.33596 21 5.0784 21.0003 4.86133 20.9824C4.68976 20.9683 4.49479 20.9408 4.29395 20.8691L4.0918 20.7812C3.76289 20.6135 3.48794 20.3588 3.2959 20.0459L3.21876 19.9082C3.08068 19.6372 3.03641 19.3674 3.01758 19.1387C2.99974 18.9216 3.00001 18.6641 3.00001 18.4004V16.5996C3.00001 16.3937 3.00211 16.2069 3.0088 16.042C3.00085 15.877 3.00001 15.6889 3.00001 15.5C3.00001 15.2807 2.99934 15.0662 3.01173 14.8848C3.02473 14.6944 3.05542 14.4684 3.15235 14.2344L3.23731 14.0557C3.45449 13.6503 3.80578 13.3299 4.23438 13.1523L4.40821 13.0908C4.57924 13.0408 4.74206 13.0215 4.88477 13.0117C5.06619 12.9993 5.28072 13 5.50001 13H18.5ZM5.00001 18V18.4004C5.00001 18.6961 5.0012 18.8583 5.01075 18.9746C5.01111 18.979 5.01136 18.9834 5.01172 18.9873C5.01595 18.9877 5.02066 18.9889 5.0254 18.9893C5.14168 18.9988 5.30387 19 5.59962 19H14.4004C14.6961 19 14.8583 18.9988 14.9746 18.9893C14.979 18.9889 14.9834 18.9877 14.9873 18.9873C14.9877 18.9834 14.9889 18.979 14.9893 18.9746C14.9988 18.8583 15 18.6961 15 18.4004V18H5.00001ZM5.02051 15.0068C5.01602 15.0071 5.01178 15.0075 5.00782 15.0078C5.00751 15.0118 5.00715 15.016 5.00684 15.0205C5.00018 15.118 5.00001 15.2534 5.00001 15.5C5.00001 15.7452 5.00042 15.8782 5.00684 15.9756C5.00738 15.9837 5.0065 15.9919 5.00684 16H18.5C18.7466 16 18.882 15.9998 18.9795 15.9932C18.9837 15.9929 18.9875 15.9915 18.9912 15.9912C18.9915 15.9875 18.9929 15.9837 18.9932 15.9795C18.9998 15.882 19 15.7466 19 15.5C19 15.2534 18.9998 15.118 18.9932 15.0205C18.9929 15.016 18.9915 15.0118 18.9912 15.0078C18.9875 15.0075 18.9836 15.0071 18.9795 15.0068C18.882 15.0002 18.7466 15 18.5 15H5.50001C5.25343 15 5.11804 15.0002 5.02051 15.0068Z" fill="oklch(0.3523 0 0 / 1)" class="wd-icon-fill"></path>
<path d="M9.4004 3C9.66405 3 9.92161 2.99973 10.1387 3.01758C10.3674 3.03641 10.6372 3.08068 10.9082 3.21875L11.0459 3.2959C11.3141 3.46047 11.5395 3.68593 11.7041 3.9541L11.7813 4.0918C11.9193 4.36279 11.9636 4.6326 11.9824 4.86133C12.0003 5.0784 12 5.33595 12 5.59961V6H13.5C13.7193 6 13.9338 5.99934 14.1152 6.01172C14.3056 6.02472 14.5316 6.05542 14.7656 6.15234L14.9443 6.2373C15.2918 6.42345 15.5766 6.70819 15.7627 7.05566L15.8477 7.23438C15.9446 7.46839 15.9753 7.69438 15.9883 7.88477C16.0007 8.06619 16 8.2807 16 8.5C16 8.7193 16.0007 8.93381 15.9883 9.11523C15.9785 9.25795 15.9592 9.42076 15.9092 9.5918L15.8477 9.76562C15.6701 10.1942 15.3498 10.5455 14.9443 10.7627L14.7656 10.8477C14.5316 10.9446 14.3056 10.9753 14.1152 10.9883C13.9338 11.0007 13.7193 11 13.5 11H5.50001C5.28072 11 5.06619 11.0007 4.88477 10.9883C4.74206 10.9785 4.57924 10.9592 4.40821 10.9092L4.23438 10.8477C3.80578 10.6701 3.45449 10.3497 3.23731 9.94434L3.15235 9.76562C3.05542 9.53161 3.02473 9.30562 3.01173 9.11523C2.99934 8.93381 3.00001 8.71929 3.00001 8.5C3.00001 8.30132 3.00083 8.10882 3.00977 7.94043C3.00361 7.78285 3.00001 7.60435 3.00001 7.40039V5.59961C3.00001 5.33595 2.99974 5.0784 3.01758 4.86133C3.03641 4.6326 3.08068 4.36279 3.21876 4.0918L3.2959 3.9541C3.48794 3.64119 3.7629 3.38645 4.0918 3.21875L4.29395 3.13086C4.49479 3.05925 4.68976 3.0317 4.86133 3.01758C5.0784 2.99973 5.33596 3 5.59962 3H9.4004ZM5.00782 8.02148C5.00117 8.1194 5.00001 8.25542 5.00001 8.5C5.00001 8.74659 5.00018 8.88196 5.00684 8.97949C5.00713 8.98363 5.00753 8.98753 5.00782 8.99121C5.0118 8.99153 5.01599 8.99285 5.02051 8.99316C5.11804 8.99983 5.25343 9 5.50001 9H13.5C13.7466 9 13.882 8.99983 13.9795 8.99316C13.9837 8.99288 13.9875 8.9915 13.9912 8.99121C13.9915 8.98751 13.9929 8.98366 13.9932 8.97949C13.9998 8.88196 14 8.74659 14 8.5C14 8.25341 13.9998 8.11804 13.9932 8.02051C13.9929 8.01598 13.9915 8.0118 13.9912 8.00781C13.9875 8.00753 13.9836 8.00712 13.9795 8.00684C13.882 8.00018 13.7466 8 13.5 8H5.00782C5.0075 8.00716 5.0083 8.01437 5.00782 8.02148ZM5.59962 5C5.30387 5 5.14168 5.00119 5.0254 5.01074C5.0207 5.01113 5.01592 5.01133 5.01172 5.01172C5.01133 5.01592 5.01114 5.02069 5.01075 5.02539C5.0012 5.14168 5.00001 5.30386 5.00001 5.59961V6H10V5.59961C10 5.30386 9.99881 5.14168 9.98926 5.02539C9.98887 5.02065 9.9877 5.01594 9.98731 5.01172C9.9834 5.01136 9.97896 5.0111 9.97462 5.01074C9.85833 5.00119 9.69614 5 9.4004 5H5.59962Z" fill="oklch(0.3523 0 0 / 1)" class="wd-icon-fill"></path>
</g>
</svg>