<svg width="24" height="24" viewBox="0 0 24 24" xmlns="http://www.w3.org/2000/svg" class="wd-icon wd-icon-notifications" role="presentation">
<path d="M11.998 5.5C14.4833 5.5 16.498 7.51472 16.498 10V12.5908C16.498 13.0001 16.5838 13.4053 16.75 13.7793L17.959 16.5H6.03711L7.24609 13.7793C7.41226 13.4053 7.49805 13.0001 7.49805 12.5908V10C7.49805 7.51472 9.51277 5.5 11.998 5.5Z" fill="transparent" class="wd-icon-background"></path>
<path d="M11.9978 2C12.8261 2.00012 13.4978 2.67165 13.4978 3.5V3.67578C16.3642 4.35317 18.4978 6.92664 18.4978 10V12.5908C18.4978 12.7205 18.5252 12.8493 18.5779 12.9678L19.7869 15.6875C20.3746 17.01 19.4059 18.4998 17.9588 18.5H15.9656C15.7195 20.473 14.0375 21.9999 11.9978 22C9.95807 22 8.27618 20.4731 8.03004 18.5H6.03688C4.58956 18.5 3.62094 17.0101 4.20876 15.6875L5.41774 12.9678C5.47036 12.8493 5.49782 12.7204 5.49782 12.5908V10C5.49782 6.92649 7.63122 4.35302 10.4978 3.67578V3.5C10.4978 2.67157 11.1694 2 11.9978 2ZM10.0632 18.5C10.2855 19.3623 11.0661 20 11.9978 20C12.9294 19.9999 13.7102 19.3622 13.9324 18.5H10.0632ZM11.9978 5.5C9.51254 5.5 7.49782 7.51472 7.49782 10V12.5908C7.49782 13.0001 7.41201 13.4053 7.24586 13.7793L6.03688 16.5H17.9588L16.7498 13.7793C16.5836 13.4053 16.4978 13.0001 16.4978 12.5908V10C16.4978 7.5148 14.483 5.50012 11.9978 5.5Z" fill="oklch(0.3523 0 0 / 1)" class="wd-icon-fill"></path>
</svg>