<svg width="24" height="24" viewBox="0 0 24 24" xmlns="http://www.w3.org/2000/svg" class="wd-icon wd-icon-mobile" role="presentation">
<path d="M13.2002 3C14.0566 3 14.6388 3.00035 15.0889 3.03711C15.5273 3.07293 15.7518 3.13808 15.9082 3.21777C16.2845 3.40951 16.5905 3.71554 16.7822 4.0918C16.8619 4.2482 16.9271 4.47272 16.9629 4.91113C16.9997 5.36117 17 5.94341 17 6.7998V17.2002C17 18.0566 16.9997 18.6388 16.9629 19.0889C16.9271 19.5273 16.8619 19.7518 16.7822 19.9082C16.5905 20.2845 16.2845 20.5905 15.9082 20.7822C15.7518 20.8619 15.5273 20.9271 15.0889 20.9629C14.6388 20.9997 14.0566 21 13.2002 21H10.7998C9.94341 21 9.36117 20.9997 8.91113 20.9629C8.47272 20.9271 8.2482 20.8619 8.0918 20.7822C7.71554 20.5905 7.40951 20.2845 7.21777 19.9082C7.13808 19.7518 7.07293 19.5273 7.03711 19.0889C7.00035 18.6388 7 18.0566 7 17.2002V6.7998C7 5.94341 7.00035 5.36117 7.03711 4.91113C7.07293 4.47272 7.13808 4.2482 7.21777 4.0918C7.40951 3.71554 7.71554 3.40951 8.0918 3.21777C8.2482 3.13808 8.47272 3.07293 8.91113 3.03711C9.36117 3.00035 9.94341 3 10.7998 3H13.2002ZM11 4C10.4477 4 10 4.44772 10 5C10 5.55228 10.4477 6 11 6H13C13.5523 6 14 5.55228 14 5C14 4.44772 13.5523 4 13 4H11Z" fill="transparent" class="wd-icon-background"></path>
<g>
<path d="M13 4C13.5523 4 14 4.44772 14 5C14 5.55229 13.5523 6 13 6H11C10.4477 6 10 5.55229 10 5C10 4.44772 10.4477 4 11 4H13Z" fill="oklch(0.3523 0 0 / 1)" class="wd-icon-fill"></path>
<path d="M13.2002 1C14.0237 1 14.7016 0.998979 15.252 1.04395C15.814 1.08988 16.3311 1.18827 16.8164 1.43555C17.5689 1.81902 18.181 2.43109 18.5645 3.1836C18.8117 3.6689 18.9101 4.18599 18.9561 4.74805C19.001 5.29843 19 5.97632 19 6.79981V17.2002C19 18.0237 19.001 18.7016 18.9561 19.252C18.9101 19.814 18.8117 20.3311 18.5645 20.8164C18.181 21.5689 17.5689 22.181 16.8164 22.5645C16.3311 22.8117 15.814 22.9101 15.252 22.9561C14.7016 23.001 14.0237 23 13.2002 23H10.7998C9.97632 23 9.29843 23.001 8.74805 22.9561C8.18599 22.9101 7.6689 22.8117 7.1836 22.5645C6.43109 22.181 5.81902 21.5689 5.43555 20.8164C5.18827 20.3311 5.08988 19.814 5.04395 19.252C4.99898 18.7016 5 18.0237 5 17.2002V6.79981C5 5.97632 4.99898 5.29843 5.04395 4.74805C5.08988 4.18599 5.18827 3.6689 5.43555 3.1836C5.81902 2.43109 6.43109 1.81902 7.1836 1.43555C7.6689 1.18827 8.18599 1.08988 8.74805 1.04395C9.29843 0.998979 9.97632 1 10.7998 1H13.2002ZM10.7998 3C9.94342 3 9.36117 3.00035 8.91113 3.03711C8.47272 3.07293 8.2482 3.13809 8.0918 3.21778C7.71555 3.40951 7.40951 3.71555 7.21778 4.0918C7.13809 4.2482 7.07293 4.47272 7.03711 4.91113C7.00035 5.36117 7 5.94342 7 6.79981V17.2002C7 18.0566 7.00035 18.6388 7.03711 19.0889C7.07293 19.5273 7.13809 19.7518 7.21778 19.9082C7.40951 20.2845 7.71555 20.5905 8.0918 20.7822C8.2482 20.8619 8.47272 20.9271 8.91113 20.9629C9.36117 20.9997 9.94342 21 10.7998 21H13.2002C14.0566 21 14.6388 20.9997 15.0889 20.9629C15.5273 20.9271 15.7518 20.8619 15.9082 20.7822C16.2845 20.5905 16.5905 20.2845 16.7822 19.9082C16.8619 19.7518 16.9271 19.5273 16.9629 19.0889C16.9997 18.6388 17 18.0566 17 17.2002V6.79981C17 5.94342 16.9997 5.36117 16.9629 4.91113C16.9271 4.47272 16.8619 4.2482 16.7822 4.0918C16.5905 3.71555 16.2845 3.40951 15.9082 3.21778C15.7518 3.13809 15.5273 3.07293 15.0889 3.03711C14.6388 3.00035 14.0566 3 13.2002 3H10.7998Z" fill="oklch(0.3523 0 0 / 1)" class="wd-icon-fill"></path>
</g>
</svg>