<svg width="24" height="24" viewBox="0 0 24 24" xmlns="http://www.w3.org/2000/svg" class="wd-icon wd-icon-join-full" role="presentation">
<g>
<path d="M7.5 5C8.51678 5 9.4782 5.23484 10.335 5.65137C8.89124 7.17268 8 9.23277 8 11.5C8 13.7671 8.89213 15.8259 10.335 17.3467C9.47811 17.7636 8.51713 18 7.5 18C3.9103 17.9998 1 15.0897 1 11.5C1 7.91026 3.9103 5.00017 7.5 5Z" fill="oklch(0.3523 0 0 / 1)" class="wd-icon-fill"></path>
<path d="M16.5 5C20.0899 5 23 7.91015 23 11.5C23 15.0899 20.0899 18 16.5 18C15.4826 18 14.5211 17.7639 13.6641 17.3467C15.1071 15.8258 16 13.7675 16 11.5C16 9.23245 15.108 7.1727 13.6641 5.65137C14.521 5.23461 15.483 5.00005 16.5 5Z" fill="oklch(0.3523 0 0 / 1)" class="wd-icon-fill"></path>
<path d="M12 6.81152C13.2321 7.9944 14 9.65713 14 11.5C14 13.3426 13.2318 15.0047 12 16.1875C10.7682 15.0047 10 13.3426 10 11.5C10 9.65717 10.7679 7.99439 12 6.81152Z" fill="oklch(0.3523 0 0 / 1)" class="wd-icon-fill"></path>
</g>
</svg>