<svg width="24" height="24" viewBox="0 0 24 24" xmlns="http://www.w3.org/2000/svg" class="wd-icon wd-icon-sparkle" role="presentation">
<path d="M12.1807 2.00879C13.0681 2.09479 13.7141 2.80949 13.8311 3.61816C14.3195 7.0024 16.9978 9.68143 20.3818 10.1699C21.2442 10.2944 22 11.0208 22 12C22 12.9792 21.2442 13.7056 20.3818 13.8301C16.998 14.3186 14.3207 16.9977 13.832 20.3818C13.7074 21.2442 12.9801 21.9997 12.001 22C11.0216 22 10.2936 21.2443 10.1689 20.3818C9.68028 16.9976 7.00237 14.3184 3.61816 13.8301C2.8097 13.7134 2.09502 13.0677 2.00879 12.1807L2 12L2.00879 11.8193C2.09502 10.9323 2.80969 10.2866 3.61816 10.1699L3.93359 10.1172C7.16791 9.51281 9.69573 6.89662 10.1689 3.61816C10.2936 2.75566 11.0216 2 12.001 2L12.1807 2.00879ZM12 4.69727C11.1661 8.31755 8.31923 11.1654 4.69922 12C8.31883 12.8346 11.1657 15.6821 12 19.3018C12.8341 15.6825 15.6808 12.835 19.2998 12C15.6804 11.165 12.8337 8.31714 12 4.69727Z" fill="oklch(0.3523 0 0 / 1)" class="wd-icon-fill"></path>
</svg>