<svg width="24" height="24" viewBox="0 0 24 24" xmlns="http://www.w3.org/2000/svg" class="wd-icon wd-icon-bar-horizontal-stack-chart" role="presentation">
<g>
<path d="M11 16C11.5523 16 12 16.4477 12 17V21C12 21.5523 11.5523 22 11 22H4C3.44772 22 3 21.5523 3 21V17C3 16.4477 3.44772 16 4 16H11ZM5 20H10V18H5V20Z" fill="oklch(0.3523 0 0 / 1)" class="wd-icon-fill"></path>
<path d="M9 9C9.55228 9 10 9.44772 10 10V14C10 14.5523 9.55228 15 9 15H4C3.44772 15 3 14.5523 3 14V10C3 9.44772 3.44772 9 4 9H9ZM5 13H8V11H5V13Z" fill="oklch(0.3523 0 0 / 1)" class="wd-icon-fill"></path>
<path d="M13 2C13.5523 2 14 2.44772 14 3V7C14 7.55228 13.5523 8 13 8H4C3.44772 8 3 7.55228 3 7V3C3 2.44772 3.44772 2 4 2H13ZM5 6H12V4H5V6Z" fill="oklch(0.3523 0 0 / 1)" class="wd-icon-fill"></path>
</g>
<g>
<path d="M20 16C20.5523 16 21 16.4477 21 17V21C21 21.5523 20.5523 22 20 22H14C13.4477 22 13 21.5523 13 21V17C13 16.4477 13.4477 16 14 16H20Z" fill="oklch(0.3523 0 0 / 1)" class="wd-icon-accent"></path>
<path d="M22 9C22.5523 9 23 9.44772 23 10V14C23 14.5523 22.5523 15 22 15H12C11.4477 15 11 14.5523 11 14V10C11 9.44772 11.4477 9 12 9H22Z" fill="oklch(0.3523 0 0 / 1)" class="wd-icon-accent"></path>
<path d="M18.1025 2.00488C18.6067 2.05621 19 2.48232 19 3V7C19 7.55228 18.5523 8 18 8H16C15.4477 8 15 7.55228 15 7V3C15 2.44772 15.4477 2 16 2H18L18.1025 2.00488Z" fill="oklch(0.3523 0 0 / 1)" class="wd-icon-accent"></path>
</g>
</svg>