<svg width="24" height="24" viewBox="0 0 24 24" xmlns="http://www.w3.org/2000/svg" class="wd-icon wd-icon-briefcase-info" role="presentation">
<path d="M12 2C14.2091 2 16 3.79086 16 6H16.2002C17.0237 6 17.7016 5.99898 18.252 6.04395C18.814 6.08987 19.3311 6.18827 19.8164 6.43555C20.5689 6.81902 21.181 7.43109 21.5645 8.18359C21.7542 8.55603 21.856 8.94616 21.9141 9.36133C21.9906 9.90828 21.6085 10.4137 21.0615 10.4902C20.5147 10.5665 20.0092 10.1855 19.9326 9.63867C19.8954 9.37262 19.8432 9.21153 19.7822 9.0918C19.5905 8.71554 19.2845 8.40951 18.9082 8.21777C18.7518 8.13808 18.5273 8.07293 18.0889 8.03711C17.6388 8.00035 17.0566 8 16.2002 8H7.79981C6.94342 8 6.36117 8.00035 5.91113 8.03711C5.47272 8.07293 5.2482 8.13808 5.0918 8.21777C4.71555 8.40951 4.40951 8.71554 4.21778 9.0918C4.13946 9.2455 4.07526 9.46501 4.03906 9.88867C4.05244 9.96753 4.06671 10.0111 4.0791 10.04C4.15064 10.2066 4.26605 10.351 4.41309 10.457C4.45496 10.4872 4.53426 10.5326 4.74414 10.5957C4.9661 10.6624 5.2595 10.7286 5.72071 10.8311L9.2168 11.6074C9.75593 11.7272 10.0964 12.2616 9.97656 12.8008C9.85676 13.3399 9.32232 13.6793 8.78321 13.5596L5.28711 12.7832C4.85424 12.687 4.47649 12.6035 4.16797 12.5107C4.11148 12.4938 4.05588 12.4741 4 12.4551V15.2002C4 16.0566 4.00035 16.6388 4.03711 17.0889C4.07293 17.5273 4.13809 17.7518 4.21778 17.9082C4.40951 18.2845 4.71555 18.5905 5.0918 18.7822C5.2482 18.8619 5.47272 18.9271 5.91113 18.9629C6.36117 18.9997 6.94342 19 7.79981 19H9C9.55229 19 10 19.4477 10 20C10 20.5523 9.55229 21 9 21H7.79981C6.97632 21 6.29843 21.001 5.74805 20.9561C5.18599 20.9101 4.6689 20.8117 4.1836 20.5645C3.43109 20.181 2.81902 19.5689 2.43555 18.8164C2.18827 18.3311 2.08988 17.814 2.04395 17.252C1.99898 16.7016 2 16.0237 2 15.2002V11.7998C2 10.9763 1.99898 10.2984 2.04395 9.74805C2.08988 9.18599 2.18827 8.6689 2.43555 8.18359C2.81902 7.43109 3.43109 6.81902 4.1836 6.43555C4.6689 6.18827 5.18599 6.08987 5.74805 6.04395C6.29843 5.99898 6.97632 6 7.79981 6H8C8 3.79086 9.79086 2 12 2ZM12 4C10.8954 4 10 4.89543 10 6H14C14 4.89543 13.1046 4 12 4Z" fill="oklch(0.3523 0 0 / 1)" class="wd-icon-fill"></path>
<path d="M17 11C20.3137 11 23 13.6863 23 17C23 20.3137 20.3137 23 17 23C13.6863 23 11 20.3137 11 17C11 13.6863 13.6863 11 17 11ZM16.4961 15.8076L16.3145 15.8545L15.7627 16.0381C15.3697 16.1691 15.1571 16.5943 15.2881 16.9873C15.4191 17.3803 15.8443 17.5929 16.2373 17.4619L16.3145 17.4355L15.6045 19.5645C15.2791 20.5414 16.2086 21.4709 17.1855 21.1455L17.7373 20.9619C18.1303 20.8309 18.3429 20.4057 18.2119 20.0127C18.0809 19.6197 17.6557 19.4071 17.2627 19.5381L17.1846 19.5635L17.8955 17.4355C18.2006 16.5194 17.4022 15.6447 16.4961 15.8076ZM16.9961 13C16.4438 13 15.9961 13.4477 15.9961 14C15.9961 14.5523 16.4438 15 16.9961 15C17.5484 15 17.9961 14.5523 17.9961 14C17.9961 13.4477 17.5484 13 16.9961 13Z" fill="oklch(0.3523 0 0 / 1)" class="wd-icon-accent"></path>
</svg>