<svg width="24" height="24" viewBox="0 0 24 24" xmlns="http://www.w3.org/2000/svg" class="wd-icon wd-icon-users-plus" role="presentation">
<g>
<path d="M8.99939 12C11.9441 12 14.6325 13.1083 16.6664 14.9287C16.8782 15.1184 16.9994 15.3894 16.9994 15.6738V19C16.9994 19.5523 16.5517 20 15.9994 20H1.99939C1.4471 20 0.99939 19.5523 0.99939 19V15.6738C0.99939 15.3894 1.12054 15.1184 1.3324 14.9287C3.3663 13.1083 6.05467 12 8.99939 12Z" fill="transparent" class="wd-icon-background"></path>
<path d="M8.99939 3C11.2085 3 12.9994 4.79086 12.9994 7C12.9994 9.20914 11.2085 11 8.99939 11C6.79025 11 4.99939 9.20914 4.99939 7C4.99939 4.79086 6.79025 3 8.99939 3Z" fill="transparent" class="wd-icon-background"></path>
</g>
<g>
<path d="M9 12C9.1626 12 9.32439 12.004 9.48535 12.0107C9.49019 12.0108 9.49512 12.0105 9.5 12.0107C9.54566 12.0127 9.5912 12.0161 9.63672 12.0186C9.70426 12.0223 9.77164 12.0264 9.83887 12.0312C9.88419 12.0345 9.92943 12.0382 9.97461 12.042C10.0644 12.0496 10.154 12.0578 10.2432 12.0674C10.2679 12.07 10.2926 12.0733 10.3174 12.0762C10.4184 12.0877 10.519 12.1001 10.6191 12.1143C10.6508 12.1187 10.6823 12.1232 10.7139 12.1279C10.8044 12.1415 10.8945 12.1562 10.9844 12.1719C11.0274 12.1794 11.0704 12.1873 11.1133 12.1953C11.1848 12.2086 11.2561 12.2217 11.3271 12.2363C11.4046 12.2523 11.4817 12.2696 11.5586 12.2871C11.5905 12.2944 11.6225 12.3011 11.6543 12.3086C11.7403 12.3289 11.8258 12.3508 11.9111 12.373C11.9559 12.3847 12.0004 12.397 12.0449 12.4092C12.1146 12.4283 12.1838 12.4484 12.2529 12.4688C12.2986 12.4822 12.3442 12.4957 12.3896 12.5098C12.4761 12.5364 12.5619 12.5642 12.6475 12.5928C12.6683 12.5997 12.6892 12.6062 12.71 12.6133C12.8135 12.6486 12.9163 12.6855 13.0186 12.7236C13.0273 12.7269 13.0361 12.7301 13.0449 12.7334C13.1356 12.7675 13.2258 12.8026 13.3154 12.8389C13.3506 12.8531 13.3859 12.8672 13.4209 12.8818C13.5081 12.9182 13.5946 12.9557 13.6807 12.9941C13.6973 13.0016 13.7139 13.0091 13.7305 13.0166C13.8134 13.0541 13.8957 13.0925 13.9775 13.1318C14.0148 13.1498 14.0518 13.1682 14.0889 13.1865C14.1684 13.2258 14.2477 13.2656 14.3262 13.3066C14.3471 13.3176 14.3678 13.3288 14.3887 13.3398C14.4753 13.3859 14.5612 13.4333 14.6465 13.4814C14.6559 13.4867 14.6654 13.4917 14.6748 13.4971C14.8378 13.5897 14.9984 13.6849 15.1562 13.7852C15.3891 13.9332 15.4439 14.2453 15.2861 14.4717L14.7139 15.293C14.5559 15.5191 14.2451 15.5732 14.0107 15.4277C13.7655 15.2752 13.5124 15.1331 13.2529 15.0029C12.4558 14.6031 11.5951 14.3122 10.6895 14.1494C10.5019 14.1158 10.3123 14.0879 10.1211 14.0654C9.99587 14.0507 9.86984 14.0391 9.74316 14.0293C9.66239 14.0231 9.58134 14.0179 9.5 14.0137L9.49805 14.0127C9.33313 14.0042 9.16707 14 9 14C6.72381 14 4.63625 14.7992 3 16.1338V18H12.5C12.7761 18 13 18.2239 13 18.5V19.5C13 19.7761 12.7761 20 12.5 20H2C1.44772 20 1 19.5523 1 19V15.6738C1 15.3894 1.12115 15.1184 1.33301 14.9287C3.36691 13.1083 6.05528 12 9 12Z" fill="oklch(0.3523 0 0 / 1)" class="wd-icon-fill"></path>
<path d="M9 3C11.2091 3 13 4.79086 13 7C13 9.20914 11.2091 11 9 11C6.79086 11 5 9.20914 5 7C5 4.79086 6.79086 3 9 3ZM9 5C7.89543 5 7 5.89543 7 7C7 8.10457 7.89543 9 9 9C10.1046 9 11 8.10457 11 7C11 5.89543 10.1046 5 9 5Z" fill="oklch(0.3523 0 0 / 1)" class="wd-icon-fill"></path>
</g>
<g>
<path d="M19.4951 15C19.7713 15 19.9951 15.2239 19.9951 15.5V17.9951H22.5C22.7761 17.9951 23 18.219 23 18.4951V19.4951C23 19.7713 22.7761 19.9951 22.5 19.9951H19.9951V22.5C19.9951 22.7761 19.7713 23 19.4951 23H18.4951C18.219 23 17.9951 22.7761 17.9951 22.5V19.9951H15.5C15.2239 19.9951 15 19.7713 15 19.4951V18.4951C15 18.219 15.2239 17.9951 15.5 17.9951H17.9951V15.5C17.9951 15.2239 18.219 15 18.4951 15H19.4951Z" fill="oklch(0.3523 0 0 / 1)" class="wd-icon-accent"></path>
<path d="M15 10C17.9447 10 20.6331 11.1083 22.667 12.9287C22.8788 13.1184 23 13.3894 23 13.6738C23 14.004 22.5999 14.1881 22.3252 14.0049C21.3735 13.3699 20.2299 13 19 13C18.5414 13 18.095 13.052 17.666 13.1494C16.4774 12.1542 15.1128 11.3608 13.627 10.8184C13.8306 10.5719 14.014 10.3084 14.1768 10.0312C14.4487 10.012 14.7232 10 15 10Z" fill="oklch(0.3523 0 0 / 1)" class="wd-icon-accent"></path>
<path d="M15 1C17.2091 1 19 2.79086 19 5C19 7.20914 17.2091 9 15 9C14.8858 9 14.7729 8.99375 14.6611 8.98438C14.8792 8.3631 15 7.69584 15 7C15 4.92232 13.9444 3.09056 12.3398 2.01367C13.0468 1.38349 13.9784 1 15 1Z" fill="oklch(0.3523 0 0 / 1)" class="wd-icon-accent"></path>
</g>
</svg>