<svg width="24" height="24" viewBox="0 0 24 24" xmlns="http://www.w3.org/2000/svg" class="wd-icon wd-icon-resizable" role="presentation">
<g>
<path d="M18.9384 11.6464C19.1337 11.4512 19.4502 11.4511 19.6455 11.6464L20.3525 12.3544C20.5476 12.5497 20.5477 12.8663 20.3525 13.0615L13.0595 20.3544C12.8643 20.5495 12.5477 20.5495 12.3525 20.3544L11.6455 19.6474C11.4502 19.4522 11.4503 19.1357 11.6455 18.9404L18.9384 11.6464Z" fill="oklch(0.3523 0 0 / 1)" class="wd-icon-fill"></path>
<path d="M18.9394 3.64643C19.1347 3.4512 19.4512 3.45118 19.6464 3.64643L20.3535 4.35346C20.5486 4.54872 20.5486 4.86526 20.3535 5.06049L5.06049 20.3535C4.86526 20.5486 4.54872 20.5486 4.35346 20.3535L3.64643 19.6464C3.45118 19.4512 3.4512 19.1347 3.64643 18.9394L18.9394 3.64643Z" fill="oklch(0.3523 0 0 / 1)" class="wd-icon-fill"></path>
</g>
</svg>