<svg width="24" height="24" viewBox="0 0 24 24" xmlns="http://www.w3.org/2000/svg" class="wd-icon wd-icon-document" role="presentation">
<g>
<path d="M11.0117 3C11.539 3 11.8142 3.00446 12 3.02148V8C12 9.10457 12.8954 10 14 10H18V17.2002C18 18.0565 17.9996 18.6388 17.9629 19.0889C17.9271 19.5272 17.8619 19.7518 17.7822 19.9082C17.5905 20.2844 17.2844 20.5905 16.9082 20.7822C16.7518 20.8619 16.5273 20.9271 16.0889 20.9629C15.6388 20.9997 15.0566 21 14.2002 21H9.7998C8.94342 21 8.36117 20.9997 7.91113 20.9629C7.47272 20.9271 7.2482 20.8619 7.0918 20.7822C6.71556 20.5905 6.4095 20.2844 6.21777 19.9082C6.1381 19.7518 6.07293 19.5272 6.03711 19.0889C6.00035 18.6388 6 18.0565 6 17.2002V6.7998C6 5.94345 6.00035 5.36116 6.03711 4.91113C6.07293 4.47276 6.13809 4.24819 6.21777 4.0918C6.40951 3.71557 6.71556 3.4095 7.0918 3.21777C7.2482 3.13809 7.47274 3.07293 7.91113 3.03711C8.36117 3.00035 8.94342 3 9.7998 3H11.0117ZM8.25 17.25C7.83579 17.25 7.5 17.5858 7.5 18C7.5 18.4142 7.83579 18.75 8.25 18.75H13.75C14.1642 18.75 14.5 18.4142 14.5 18C14.5 17.5858 14.1642 17.25 13.75 17.25H8.25ZM8.25 14.25C7.83579 14.25 7.5 14.5858 7.5 15C7.5 15.4142 7.83579 15.75 8.25 15.75H15.75C16.1642 15.75 16.5 15.4142 16.5 15C16.5 14.5858 16.1642 14.25 15.75 14.25H8.25Z" fill="transparent" class="wd-icon-background"></path>
<path d="M13.6992 4.11328L16.8867 7.30078C17.4388 7.85286 17.5958 8.01906 17.7051 8.19727C17.7642 8.29372 17.8146 8.39517 17.8564 8.5H14C13.7239 8.5 13.5 8.27614 13.5 8V3.91504C13.5602 3.97485 13.6265 4.04056 13.6992 4.11328Z" fill="transparent" class="wd-icon-background"></path>
</g>
<path d="M11.0117 1.00007C11.6979 1.00007 12.2043 0.993482 12.6914 1.11042C13.0994 1.2084 13.4899 1.37066 13.8477 1.58991C14.2746 1.85163 14.6283 2.21428 15.1133 2.69929L18.3008 5.88679C18.7858 6.37179 19.1484 6.7255 19.4102 7.15241C19.6294 7.5102 19.7917 7.90065 19.8897 8.30866C20.0066 8.79575 20 9.30225 20 9.98835V17.2003C20 18.0237 20.001 18.7017 19.9561 19.252C19.9101 19.814 19.8117 20.3312 19.5645 20.8165C19.181 21.569 18.5689 22.181 17.8164 22.5645C17.3311 22.8118 16.814 22.9102 16.252 22.9561C15.7016 23.0011 15.0237 23.0001 14.2002 23.0001H9.79981C8.97632 23.0001 8.29843 23.0011 7.74805 22.9561C7.186 22.9102 6.66889 22.8118 6.1836 22.5645C5.43112 22.181 4.81901 21.569 4.43555 20.8165C4.18832 20.3312 4.08987 19.814 4.04395 19.252C3.99899 18.7017 4 18.0237 4 17.2003V6.79987C4 5.97645 3.99898 5.29846 4.04395 4.74811C4.08988 4.18611 4.1883 3.66892 4.43555 3.18366C4.81902 2.43121 5.43113 1.81906 6.1836 1.43561C6.66889 1.18836 7.18601 1.08994 7.74805 1.04401C8.29843 0.999045 8.97632 1.00007 9.79981 1.00007H11.0117ZM9.79981 3.00007C8.94342 3.00007 8.36117 3.00042 7.91113 3.03718C7.47277 3.07299 7.2482 3.13816 7.0918 3.21784C6.71558 3.40956 6.40951 3.71566 6.21778 4.09186C6.13809 4.24825 6.07293 4.47288 6.03711 4.9112C6.00035 5.36121 6 5.94356 6 6.79987V17.2003C6 18.0566 6.00036 18.6389 6.03711 19.0889C6.07292 19.5272 6.13811 19.7519 6.21778 19.9083C6.4095 20.2845 6.71558 20.5906 7.0918 20.7823C7.2482 20.862 7.47273 20.9271 7.91113 20.963C8.36117 20.9997 8.94342 21.0001 9.79981 21.0001H14.2002C15.0566 21.0001 15.6388 20.9997 16.0889 20.963C16.5273 20.9271 16.7518 20.862 16.9082 20.7823C17.2844 20.5906 17.5905 20.2845 17.7822 19.9083C17.8619 19.7519 17.9271 19.5272 17.9629 19.0889C17.9996 18.6389 18 18.0566 18 17.2003V10.0001H14C12.8954 10.0001 12 9.10463 12 8.00007V3.02155C11.8142 3.00453 11.5389 3.00007 11.0117 3.00007H9.79981ZM13.5 8.00007C13.5 8.27621 13.7239 8.50006 14 8.50007H17.8564C17.8146 8.39526 17.7642 8.29376 17.7051 8.19733C17.5958 8.01915 17.4387 7.85287 16.8867 7.30085L13.6992 4.11335C13.6265 4.04064 13.5602 3.9749 13.5 3.91511V8.00007Z" fill="oklch(0.3523 0 0 / 1)" class="wd-icon-fill"></path>
<g>
<path d="M13.75 17.25C14.1642 17.25 14.5 17.5858 14.5 18C14.5 18.4142 14.1642 18.75 13.75 18.75H8.25C7.83579 18.75 7.5 18.4142 7.5 18C7.5 17.5858 7.83579 17.25 8.25 17.25H13.75Z" fill="oklch(0.3523 0 0 / 1)" class="wd-icon-accent"></path>
<path d="M15.75 14.25C16.1642 14.25 16.5 14.5858 16.5 15C16.5 15.4142 16.1642 15.75 15.75 15.75H8.25C7.83579 15.75 7.5 15.4142 7.5 15C7.5 14.5858 7.83579 14.25 8.25 14.25H15.75Z" fill="oklch(0.3523 0 0 / 1)" class="wd-icon-accent"></path>
</g>
</svg>