<svg width="24" height="24" viewBox="0 0 24 24" xmlns="http://www.w3.org/2000/svg" class="wd-icon wd-icon-exclamation" role="presentation">
<g>
<path d="M12 18.75C13.2426 18.75 14.25 19.7574 14.25 21C14.25 22.2426 13.2426 23.25 12 23.25C10.7574 23.25 9.75 22.2426 9.75 21C9.75 19.7574 10.7574 18.75 12 18.75Z" fill="oklch(0.3523 0 0 / 1)" class="wd-icon-fill"></path>
<path d="M13.5 1C13.7761 1 14 1.22386 14 1.5V5.5L13.5205 16.5215C13.5089 16.7889 13.2891 16.9999 13.0215 17H10.9785C10.7109 16.9999 10.4911 16.7889 10.4795 16.5215L10 5.5V1.5C10 1.22386 10.2239 1 10.5 1H13.5Z" fill="oklch(0.3523 0 0 / 1)" class="wd-icon-fill"></path>
</g>
</svg>