<svg width="24" height="24" viewBox="0 0 24 24" xmlns="http://www.w3.org/2000/svg" class="wd-icon wd-icon-document-download" role="presentation">
<g>
<path d="M11.0117 1.00007C11.6979 1.00007 12.2043 0.993491 12.6914 1.11042C13.0995 1.2084 13.4899 1.37066 13.8477 1.58991C14.2746 1.85163 14.6283 2.21429 15.1133 2.69929L19 6.586C19.6402 7.22625 20 8.09465 20 9.00007C20 9.55235 19.5523 10.0001 19 10.0001H14C12.8955 10 12 9.10462 12 8.00007V3.02155C11.8142 3.00453 11.5389 3.00007 11.0117 3.00007H9.79983C8.94347 3.00007 8.36119 3.00042 7.91116 3.03718C7.47278 3.073 7.24822 3.13816 7.09182 3.21784C6.7156 3.40956 6.40954 3.71565 6.2178 4.09186C6.13812 4.24825 6.07296 4.47287 6.03713 4.9112C6.00038 5.36121 6.00003 5.94356 6.00003 6.79987V18.5001C6.00003 18.9957 6.00269 19.1473 6.0176 19.2608C6.13575 20.1583 6.84185 20.8643 7.73928 20.9825C7.85284 20.9974 8.00422 21.0001 8.50002 21.0001H11.5C12.0523 21.0001 12.5 21.4478 12.5 22.0001C12.5 22.5524 12.0523 23.0001 11.5 23.0001H8.50002C8.06742 23.0001 7.75386 23.0023 7.47756 22.9659C5.68294 22.7294 4.27063 21.3172 4.0342 19.5225C3.99785 19.2462 4.00002 18.9326 4.00002 18.5001V6.79987C4.00002 5.97644 3.999 5.29846 4.04397 4.74811C4.0899 4.18611 4.18832 3.66893 4.43557 3.18366C4.81904 2.43119 5.43114 1.81907 6.18362 1.43561C6.66891 1.18835 7.18604 1.08994 7.74807 1.04401C8.29844 0.999046 8.97636 1.00007 9.79983 1.00007H11.0117ZM13.5 8.00007C13.5 8.27619 13.7239 8.50004 14 8.50007H17.9073C17.837 8.31439 17.729 8.14315 17.586 8.00007L13.6992 4.11335C13.6265 4.04065 13.5602 3.9749 13.5 3.91511V8.00007Z" fill="oklch(0.3523 0 0 / 1)" class="wd-icon-fill"></path>
<path d="M18 13.2501C18.4139 13.2503 18.7498 13.5862 18.75 14.0001V20.1895L20.4698 18.4698C20.7627 18.1773 21.2375 18.1771 21.5303 18.4698C21.8228 18.7626 21.8227 19.2375 21.5303 19.5303L18.5303 22.5303C18.2375 22.8229 17.7626 22.8229 17.4698 22.5303L14.4698 19.5303C14.1771 19.2375 14.1772 18.7627 14.4698 18.4698C14.7626 18.1774 15.2376 18.1772 15.5303 18.4698L17.25 20.1895V14.0001C17.2503 13.5861 17.586 13.2501 18 13.2501Z" fill="oklch(0.3523 0 0 / 1)" class="wd-icon-fill"></path>
</g>
</svg>