<svg width="24" height="24" viewBox="0 0 24 24" xmlns="http://www.w3.org/2000/svg" class="wd-icon wd-icon-alarm-clock-plus" role="presentation">
<path d="M18 2C20.2091 2 22 3.79086 22 6C22 7.25541 21.4188 8.36774 20.5186 9.09863C20.8351 10.028 21 11.0077 21 12C21 12.5523 20.5523 13 20 13C19.4477 13 19 12.5523 19 12C19 10.9951 18.7819 10.0073 18.3691 9.10059C17.7161 7.66862 16.5959 6.49511 15.2021 5.77637C15.0314 5.68854 14.857 5.60706 14.6787 5.5332C13.3997 5.00343 11.9925 4.86476 10.6348 5.13477C9.98849 5.26332 9.36745 5.48228 8.78809 5.78125C7.5041 6.44589 6.45256 7.49639 5.78613 8.7793C5.48479 9.36121 5.26398 9.98517 5.13477 10.6348C4.86476 11.9925 5.00343 13.3997 5.5332 14.6787C6.06302 15.9578 6.9602 17.0512 8.11133 17.8203C9.26242 18.5894 10.6156 19 12 19C12.5523 19 13 19.4477 13 20C13 20.5523 12.5523 21 12 21C10.22 21 8.48001 20.4723 7 19.4834C6.94145 19.4443 6.88467 19.4027 6.82715 19.3623L6.09766 20.5303C5.80486 20.9983 5.18795 21.1403 4.71973 20.8477C4.25167 20.5549 4.10971 19.9379 4.40234 19.4697L5.30859 18.0176C4.62922 17.2619 4.07857 16.3931 3.68555 15.4443C3.00436 13.7998 2.82558 11.99 3.17285 10.2441C3.2503 9.85477 3.35351 9.4726 3.48047 9.09961C2.5803 8.3685 2 7.25509 2 6C2 3.79086 3.79086 2 6 2C7.25509 2 8.3685 2.5803 9.09961 3.48047C9.4726 3.35351 9.85477 3.2503 10.2441 3.17285C11.799 2.86358 13.4041 2.97295 14.8984 3.48145C15.6299 2.58034 16.7445 2 18 2ZM18 4C17.5544 4 17.1416 4.14523 16.8086 4.39355C17.8678 5.06304 18.781 5.94878 19.4834 7C19.5249 7.06215 19.5646 7.12542 19.6045 7.18848C19.8528 6.8558 20 6.44507 20 6C20 4.89543 19.1046 4 18 4ZM6 4C4.89543 4 4 4.89543 4 6C4 6.44441 4.1461 6.85506 4.39355 7.1875C4.47837 7.05342 4.56825 6.92254 4.66016 6.79297C4.66906 6.78044 4.67854 6.76834 4.6875 6.75586C4.97183 6.35931 5.28769 5.98379 5.63574 5.63574C5.98509 5.28639 6.36157 4.96874 6.75977 4.68359C6.77077 4.6757 6.78193 4.668 6.79297 4.66016C6.92254 4.56825 7.05342 4.47837 7.1875 4.39355C6.85506 4.1461 6.44441 4 6 4Z" fill="oklch(0.3523 0 0 / 1)" class="wd-icon-fill"></path>
<g>
<path d="M19.002 15.25C19.4162 15.25 19.752 15.5858 19.752 16V18.25H22.002C22.4162 18.25 22.752 18.5858 22.752 19C22.752 19.4142 22.4162 19.75 22.002 19.75H19.752V22C19.752 22.4142 19.4162 22.75 19.002 22.75C18.5877 22.75 18.252 22.4142 18.252 22V19.75H16.002C15.5877 19.75 15.252 19.4142 15.252 19C15.252 18.5858 15.5877 18.25 16.002 18.25H18.252V16C18.252 15.5858 18.5877 15.25 19.002 15.25Z" fill="oklch(0.3523 0 0 / 1)" class="wd-icon-accent"></path>
<path d="M12 7C12.4142 7 12.7499 7.33584 12.75 7.75V11.6895L15.0303 13.9697C15.3231 14.2626 15.3231 14.7374 15.0303 15.0303C14.7374 15.3232 14.2626 15.3232 13.9697 15.0303L11.6162 12.6768C11.3818 12.4424 11.25 12.1244 11.25 11.793V7.75C11.2501 7.33584 11.5858 7 12 7Z" fill="oklch(0.3523 0 0 / 1)" class="wd-icon-accent"></path>
</g>
</svg>