<svg width="24" height="24" viewBox="0 0 24 24" xmlns="http://www.w3.org/2000/svg" class="wd-icon wd-icon-bar-full-stack-chart" role="presentation">
<g>
<path d="M5.50001 11C5.71929 11 5.93385 10.9993 6.11524 11.0117C6.30561 11.0247 6.53159 11.0554 6.76563 11.1523C7.25548 11.3553 7.64468 11.7445 7.84766 12.2344C7.9446 12.4684 7.9753 12.6944 7.98829 12.8848C8.00066 13.0662 8.00001 13.2807 8.00001 13.5V18.5C8.00001 18.7193 8.00066 18.9339 7.98829 19.1152C7.9753 19.3056 7.9446 19.5316 7.84766 19.7656C7.64468 20.2555 7.25548 20.6447 6.76563 20.8477C6.53159 20.9446 6.30561 20.9753 6.11524 20.9883C5.93385 21.0007 5.71929 21 5.50001 21C5.28072 21 5.06616 21.0007 4.88477 20.9883C4.6944 20.9753 4.46842 20.9446 4.23438 20.8477C3.74454 20.6447 3.35533 20.2555 3.15235 19.7656C3.05541 19.5316 3.02471 19.3056 3.01172 19.1152C2.99935 18.9339 3.00001 18.7193 3.00001 18.5V13.5C3.00001 13.2807 2.99935 13.0662 3.01172 12.8848C3.02471 12.6944 3.05541 12.4684 3.15235 12.2344C3.35533 11.7445 3.74454 11.3553 4.23438 11.1523C4.46842 11.0554 4.6944 11.0247 4.88477 11.0117C5.06616 10.9993 5.28072 11 5.50001 11ZM5.02051 13.0068C5.01638 13.0071 5.01247 13.0075 5.0088 13.0078C5.00848 13.0118 5.00715 13.016 5.00684 13.0205C5.00019 13.118 5.00001 13.2534 5.00001 13.5V18.5C5.00001 18.7466 5.00019 18.882 5.00684 18.9795C5.00713 18.9837 5.0085 18.9875 5.0088 18.9912C5.01249 18.9915 5.01635 18.9929 5.02051 18.9932C5.11804 18.9998 5.25336 19 5.50001 19C5.74665 19 5.88198 18.9998 5.9795 18.9932C5.98403 18.9929 5.98821 18.9915 5.99219 18.9912C5.99248 18.9875 5.99289 18.9836 5.99317 18.9795C5.99982 18.882 6.00001 18.7466 6.00001 18.5V13.5C6.00001 13.2534 5.99982 13.118 5.99317 13.0205C5.99286 13.016 5.99251 13.0118 5.99219 13.0078C5.98823 13.0075 5.984 13.0072 5.9795 13.0068C5.88198 13.0002 5.74665 13 5.50001 13C5.25336 13 5.11804 13.0002 5.02051 13.0068Z" fill="oklch(0.3523 0 0 / 1)" class="wd-icon-fill"></path>
<path d="M12 9.00001C12.2193 9.00001 12.4339 8.99935 12.6152 9.01172C12.8056 9.02471 13.0316 9.05541 13.2656 9.15235C13.7555 9.35533 14.1447 9.74454 14.3477 10.2344C14.4446 10.4684 14.4753 10.6944 14.4883 10.8848C14.5007 11.0662 14.5 11.2807 14.5 11.5V18.5C14.5 18.7193 14.5007 18.9339 14.4883 19.1152C14.4753 19.3056 14.4446 19.5316 14.3477 19.7656C14.1447 20.2555 13.7555 20.6447 13.2656 20.8477C13.0316 20.9446 12.8056 20.9753 12.6152 20.9883C12.4339 21.0007 12.2193 21 12 21C11.7807 21 11.5662 21.0007 11.3848 20.9883C11.1944 20.9753 10.9684 20.9446 10.7344 20.8477C10.2445 20.6447 9.85533 20.2555 9.65235 19.7656C9.55541 19.5316 9.52471 19.3056 9.51172 19.1152C9.49935 18.9339 9.50001 18.7193 9.50001 18.5V11.5C9.50001 11.2807 9.49935 11.0662 9.51172 10.8848C9.52471 10.6944 9.55541 10.4684 9.65235 10.2344C9.85533 9.74454 10.2445 9.35533 10.7344 9.15235C10.9684 9.05541 11.1944 9.02471 11.3848 9.01172C11.5662 8.99935 11.7807 9.00001 12 9.00001ZM11.5205 11.0068C11.5164 11.0071 11.5125 11.0075 11.5088 11.0078C11.5085 11.0118 11.5072 11.016 11.5068 11.0205C11.5002 11.118 11.5 11.2534 11.5 11.5V18.5C11.5 18.7466 11.5002 18.882 11.5068 18.9795C11.5071 18.9837 11.5085 18.9875 11.5088 18.9912C11.5125 18.9915 11.5164 18.9929 11.5205 18.9932C11.618 18.9998 11.7534 19 12 19C12.2466 19 12.382 18.9998 12.4795 18.9932C12.484 18.9929 12.4882 18.9915 12.4922 18.9912C12.4925 18.9875 12.4929 18.9836 12.4932 18.9795C12.4998 18.882 12.5 18.7466 12.5 18.5V11.5C12.5 11.2534 12.4998 11.118 12.4932 11.0205C12.4929 11.016 12.4925 11.0118 12.4922 11.0078C12.4882 11.0075 12.484 11.0072 12.4795 11.0068C12.382 11.0002 12.2466 11 12 11C11.7534 11 11.618 11.0002 11.5205 11.0068Z" fill="oklch(0.3523 0 0 / 1)" class="wd-icon-fill"></path>
<path d="M18.5 14C18.7193 14 18.9339 13.9993 19.1152 14.0117C19.3056 14.0247 19.5316 14.0554 19.7656 14.1523C20.2555 14.3553 20.6447 14.7445 20.8477 15.2344C20.9446 15.4684 20.9753 15.6944 20.9883 15.8848C21.0007 16.0662 21 16.2807 21 16.5V18.5C21 18.7193 21.0007 18.9339 20.9883 19.1152C20.9753 19.3056 20.9446 19.5316 20.8477 19.7656C20.6447 20.2555 20.2555 20.6447 19.7656 20.8477C19.5316 20.9446 19.3056 20.9753 19.1152 20.9883C18.9339 21.0007 18.7193 21 18.5 21C18.2807 21 18.0662 21.0007 17.8848 20.9883C17.6944 20.9753 17.4684 20.9446 17.2344 20.8477C16.7445 20.6447 16.3553 20.2555 16.1523 19.7656C16.0554 19.5316 16.0247 19.3056 16.0117 19.1152C15.9993 18.9339 16 18.7193 16 18.5V16.5C16 16.2807 15.9993 16.0662 16.0117 15.8848C16.0247 15.6944 16.0554 15.4684 16.1523 15.2344C16.3553 14.7445 16.7445 14.3553 17.2344 14.1523C17.4684 14.0554 17.6944 14.0247 17.8848 14.0117C18.0662 13.9993 18.2807 14 18.5 14ZM18.0205 16.0068C18.016 16.0072 18.0118 16.0075 18.0078 16.0078C18.0075 16.0118 18.0072 16.016 18.0068 16.0205C18.0002 16.118 18 16.2534 18 16.5V18.5C18 18.7466 18.0002 18.882 18.0068 18.9795C18.0071 18.9836 18.0075 18.9875 18.0078 18.9912C18.0118 18.9915 18.016 18.9929 18.0205 18.9932C18.118 18.9998 18.2534 19 18.5 19C18.7466 19 18.882 18.9998 18.9795 18.9932C18.9837 18.9929 18.9875 18.9915 18.9912 18.9912C18.9915 18.9875 18.9929 18.9837 18.9932 18.9795C18.9998 18.882 19 18.7466 19 18.5V16.5C19 16.2534 18.9998 16.118 18.9932 16.0205C18.9929 16.016 18.9915 16.0118 18.9912 16.0078C18.9875 16.0075 18.9836 16.0071 18.9795 16.0068C18.882 16.0002 18.7466 16 18.5 16C18.2534 16 18.118 16.0002 18.0205 16.0068Z" fill="oklch(0.3523 0 0 / 1)" class="wd-icon-fill"></path>
</g>
<g>
<path d="M18.5 3.00001C18.7193 3.00001 18.9339 2.99935 19.1152 3.01172C19.3056 3.02471 19.5316 3.05541 19.7656 3.15235C20.2555 3.35533 20.6447 3.74453 20.8477 4.23438C20.9446 4.46842 20.9753 4.6944 20.9883 4.88477C21.0007 5.06616 21 5.28072 21 5.50001V10.5C21 10.7193 21.0007 10.9339 20.9883 11.1152C20.9753 11.3056 20.9446 11.5316 20.8477 11.7656C20.6447 12.2555 20.2555 12.6447 19.7656 12.8477C19.5316 12.9446 19.3056 12.9753 19.1152 12.9883C18.9339 13.0007 18.7193 13 18.5 13C18.2807 13 18.0662 13.0007 17.8848 12.9883C17.6944 12.9753 17.4684 12.9446 17.2344 12.8477C16.7445 12.6447 16.3553 12.2555 16.1523 11.7656C16.0554 11.5316 16.0247 11.3056 16.0117 11.1152C15.9993 10.9339 16 10.7193 16 10.5V5.50001C16 5.28072 15.9993 5.06616 16.0117 4.88477C16.0247 4.6944 16.0554 4.46842 16.1523 4.23438C16.3553 3.74453 16.7445 3.35533 17.2344 3.15235C17.4684 3.05541 17.6944 3.02471 17.8848 3.01172C18.0662 2.99935 18.2807 3.00001 18.5 3.00001Z" fill="oklch(0.3523 0 0 / 1)" class="wd-icon-accent"></path>
<path d="M5.50001 3.00001C5.71929 3.00001 5.93385 2.99935 6.11524 3.01172C6.30561 3.02471 6.53159 3.05541 6.76563 3.15235C7.25548 3.35533 7.64468 3.74453 7.84766 4.23438C7.94461 4.46842 7.9753 4.6944 7.98829 4.88477C8.00066 5.06616 8.00001 5.28072 8.00001 5.50001V7.50001C8.00001 7.71929 8.00066 7.93385 7.98829 8.11524C7.9753 8.30561 7.94461 8.53159 7.84766 8.76563C7.64468 9.25548 7.25548 9.64468 6.76563 9.84766C6.53159 9.94461 6.30561 9.9753 6.11524 9.98829C5.93385 10.0007 5.71929 10 5.50001 10C5.28072 10 5.06616 10.0007 4.88477 9.98829C4.6944 9.9753 4.46842 9.94461 4.23438 9.84766C3.74453 9.64468 3.35533 9.25548 3.15235 8.76563C3.05541 8.53159 3.02471 8.30561 3.01172 8.11524C2.99935 7.93385 3.00001 7.71929 3.00001 7.50001V5.50001C3.00001 5.28072 2.99935 5.06616 3.01172 4.88477C3.02471 4.6944 3.05541 4.46842 3.15235 4.23438C3.35533 3.74453 3.74453 3.35533 4.23438 3.15235C4.46842 3.05541 4.6944 3.02471 4.88477 3.01172C5.06616 2.99935 5.28072 3.00001 5.50001 3.00001Z" fill="oklch(0.3523 0 0 / 1)" class="wd-icon-accent"></path>
<path d="M12 3.00001C12.2193 3.00001 12.4339 2.99935 12.6152 3.01172C12.8056 3.02471 13.0316 3.05541 13.2656 3.15235C13.7555 3.35533 14.1447 3.74453 14.3477 4.23438C14.4446 4.46842 14.4753 4.6944 14.4883 4.88477C14.5007 5.06616 14.5 5.28072 14.5 5.50001C14.5 5.71929 14.5007 5.93385 14.4883 6.11524C14.4753 6.30561 14.4446 6.53159 14.3477 6.76563C14.1447 7.25548 13.7555 7.64468 13.2656 7.84766C13.0316 7.94461 12.8056 7.9753 12.6152 7.98829C12.4339 8.00066 12.2193 8.00001 12 8.00001C11.7807 8.00001 11.5662 8.00066 11.3848 7.98829C11.1944 7.9753 10.9684 7.94461 10.7344 7.84766C10.2445 7.64468 9.85533 7.25548 9.65235 6.76563C9.55541 6.53159 9.52471 6.30561 9.51172 6.11524C9.49935 5.93385 9.50001 5.71929 9.50001 5.50001C9.50001 5.28072 9.49935 5.06616 9.51172 4.88477C9.52471 4.6944 9.55541 4.46842 9.65235 4.23438C9.85533 3.74453 10.2445 3.35533 10.7344 3.15235C10.9684 3.05541 11.1944 3.02471 11.3848 3.01172C11.5662 2.99935 11.7807 3.00001 12 3.00001Z" fill="oklch(0.3523 0 0 / 1)" class="wd-icon-accent"></path>
</g>
</svg>