<svg width="24" height="24" viewBox="0 0 24 24" xmlns="http://www.w3.org/2000/svg" class="wd-icon wd-icon-power-of-one" role="presentation">
<path d="M12 2C17.5228 2 22 6.47715 22 12C22 17.5228 17.5228 22 12 22C6.47715 22 2 17.5228 2 12C2 6.47715 6.47715 2 12 2ZM11.9609 9.91699C11.9395 9.92127 11.9181 9.9278 11.8984 9.9375C11.8764 9.94843 11.8563 9.9644 11.8164 9.99512L10.084 11.3281C10.0268 11.3721 9.99817 11.3942 9.97754 11.4219C9.95926 11.4464 9.94579 11.4745 9.9375 11.5039C9.92823 11.5371 9.92773 11.5735 9.92773 11.6455V11.9854C9.92773 12.2408 9.92782 12.3687 9.98047 12.4365C10.0265 12.4955 10.0971 12.5313 10.1719 12.5332C10.2577 12.5351 10.3603 12.4586 10.5654 12.3066L11.6045 11.5381V18.6006C11.6045 18.7401 11.6047 18.8099 11.6318 18.8633C11.6558 18.9103 11.6942 18.9487 11.7412 18.9727C11.7947 18.9999 11.8649 19 12.0049 19H12.5615C12.7014 19 12.7717 18.9999 12.8252 18.9727C12.8721 18.9487 12.9107 18.9102 12.9346 18.8633C12.9616 18.8099 12.9609 18.7399 12.9609 18.6006V10.3125C12.9609 10.1728 12.9616 10.1023 12.9346 10.0488C12.9107 10.0019 12.8721 9.96343 12.8252 9.93945C12.7717 9.91222 12.7014 9.91211 12.5615 9.91211H12.0605C12.0103 9.91211 11.9851 9.91221 11.9609 9.91699ZM12 4C7.58172 4 4 7.58172 4 12C4 12.4847 4.04438 12.959 4.12695 13.4199C4.7657 12.879 5.51896 12.4691 6.3457 12.2324C6.12307 11.6992 6 11.114 6 10.5C6 8.01472 8.01472 6 10.5 6C12.1266 6 13.5512 6.86317 14.3418 8.15625C14.6264 8.05662 14.9314 8 15.25 8C16.7688 8 18 9.23122 18 10.75C18 10.8804 17.9873 11.0082 17.9697 11.1338C18.2984 11.0464 18.6438 11 19 11C19.3276 11 19.6455 11.0409 19.9502 11.1152C19.5098 7.11337 16.1192 4 12 4Z" fill="oklch(0.3523 0 0 / 1)" class="wd-icon-fill"></path>
</svg>