<svg width="24" height="24" viewBox="0 0 24 24" xmlns="http://www.w3.org/2000/svg" class="wd-icon wd-icon-hierarchy-diagonal-parent-child" role="presentation">
<g>
<path d="M18 15C19.6569 15 21 16.3431 21 18C21 19.6569 19.6569 21 18 21C16.3431 21 15 19.6569 15 18C15 16.3431 16.3431 15 18 15ZM18 17C17.4477 17 17 17.4477 17 18C17 18.5523 17.4477 19 18 19C18.5523 19 19 18.5523 19 18C19 17.4477 18.5523 17 18 17Z" fill="oklch(0.3523 0 0 / 1)" class="wd-icon-fill"></path>
<path d="M12 9C13.6569 9 15 10.3431 15 12C15 13.6569 13.6569 15 12 15C10.3431 15 9 13.6569 9 12C9 10.3431 10.3431 9 12 9ZM12 11C11.4477 11 11 11.4477 11 12C11 12.5523 11.4477 13 12 13C12.5523 13 13 12.5523 13 12C13 11.4477 12.5523 11 12 11Z" fill="oklch(0.3523 0 0 / 1)" class="wd-icon-fill"></path>
<path d="M6 3C7.65685 3 9 4.34315 9 6C9 7.65685 7.65685 9 6 9C4.34315 9 3 7.65685 3 6C3 4.34315 4.34315 3 6 3ZM6 5C5.44772 5 5 5.44772 5 6C5 6.55228 5.44772 7 6 7C6.55229 7 7 6.55228 7 6C7 5.44772 6.55229 5 6 5Z" fill="oklch(0.3523 0 0 / 1)" class="wd-icon-fill"></path>
</g>
<path d="M6 3C7.65685 3 9 4.34315 9 6C9 7.48647 7.91882 8.71993 6.5 8.95801V9.0498C6.5 9.62223 6.50024 10.0069 6.52441 10.3027C6.54788 10.5897 6.59059 10.7268 6.63672 10.8174C6.75655 11.0525 6.9475 11.2435 7.18262 11.3633C7.27316 11.4094 7.41027 11.4521 7.69727 11.4756C7.99314 11.4998 8.37777 11.5 8.9502 11.5H9.04199C9.28007 10.0812 10.5135 9 12 9C13.6569 9 15 10.3431 15 12C15 13.6569 13.6569 15 12 15C10.6941 15 9.58594 14.1647 9.17383 13H8.9502C8.40252 13 7.94632 13.001 7.5752 12.9707C7.19546 12.9397 6.8391 12.8719 6.50195 12.7002C5.98451 12.4365 5.56346 12.0155 5.2998 11.498C5.12809 11.1609 5.06033 10.8045 5.0293 10.4248C4.99897 10.0537 5 9.59748 5 9.0498V8.8252C3.83548 8.41299 3 7.30574 3 6C3 4.34315 4.34315 3 6 3Z" fill="oklch(0.3523 0 0 / 1)" class="wd-icon-accent"></path>
</svg>