<svg width="24" height="24" viewBox="0 0 24 24" xmlns="http://www.w3.org/2000/svg" class="wd-icon wd-icon-tablet" role="presentation">
<path d="M14.2002 4C15.0566 4 15.6388 4.00035 16.0889 4.03711C16.5273 4.07293 16.7518 4.13808 16.9082 4.21777C17.2845 4.40951 17.5905 4.71554 17.7822 5.0918C17.8619 5.2482 17.9271 5.47272 17.9629 5.91113C17.9997 6.36117 18 6.94341 18 7.7998V16.2002C18 17.0566 17.9997 17.6388 17.9629 18.0889C17.9271 18.5273 17.8619 18.7518 17.7822 18.9082C17.5905 19.2845 17.2845 19.5905 16.9082 19.7822C16.7518 19.8619 16.5273 19.9271 16.0889 19.9629C15.6388 19.9997 15.0566 20 14.2002 20H9.7998C8.94341 20 8.36117 19.9997 7.91113 19.9629C7.47272 19.9271 7.2482 19.8619 7.0918 19.7822C6.71554 19.5905 6.40951 19.2845 6.21777 18.9082C6.13808 18.7518 6.07293 18.5273 6.03711 18.0889C6.00035 17.6388 6 17.0566 6 16.2002V7.7998C6 6.94341 6.00035 6.36117 6.03711 5.91113C6.07293 5.47272 6.13808 5.2482 6.21777 5.0918C6.40951 4.71554 6.71554 4.40951 7.0918 4.21777C7.2482 4.13808 7.47272 4.07293 7.91113 4.03711C8.36117 4.00035 8.94341 4 9.7998 4H14.2002ZM11 17C10.4477 17 10 17.4477 10 18C10 18.5523 10.4477 19 11 19H13C13.5523 19 14 18.5523 14 18C14 17.4477 13.5523 17 13 17H11Z" fill="transparent" class="wd-icon-background"></path>
<g>
<path d="M13 17C13.5523 17 14 17.4477 14 18C14 18.5523 13.5523 19 13 19H11C10.4477 19 10 18.5523 10 18C10 17.4477 10.4477 17 11 17H13Z" fill="oklch(0.3523 0 0 / 1)" class="wd-icon-fill"></path>
<path d="M14.2002 2C15.0237 2 15.7016 1.99898 16.252 2.04395C16.814 2.08988 17.3311 2.18827 17.8164 2.43555C18.5689 2.81902 19.181 3.43109 19.5645 4.1836C19.8117 4.6689 19.9101 5.18599 19.9561 5.74805C20.001 6.29843 20 6.97632 20 7.79981V16.2002C20 17.0237 20.001 17.7016 19.9561 18.252C19.9101 18.814 19.8117 19.3311 19.5645 19.8164C19.181 20.5689 18.5689 21.181 17.8164 21.5645C17.3311 21.8117 16.814 21.9101 16.252 21.9561C15.7016 22.001 15.0237 22 14.2002 22H9.79981C8.97632 22 8.29843 22.001 7.74805 21.9561C7.18599 21.9101 6.6689 21.8117 6.1836 21.5645C5.43109 21.181 4.81902 20.5689 4.43555 19.8164C4.18827 19.3311 4.08988 18.814 4.04395 18.252C3.99898 17.7016 4 17.0237 4 16.2002V7.79981C4 6.97632 3.99898 6.29843 4.04395 5.74805C4.08988 5.18599 4.18827 4.6689 4.43555 4.1836C4.81902 3.43109 5.43109 2.81902 6.1836 2.43555C6.6689 2.18827 7.18599 2.08988 7.74805 2.04395C8.29843 1.99898 8.97632 2 9.79981 2H14.2002ZM9.79981 4C8.94342 4 8.36117 4.00035 7.91113 4.03711C7.47272 4.07293 7.2482 4.13809 7.0918 4.21778C6.71555 4.40951 6.40951 4.71555 6.21778 5.0918C6.13809 5.2482 6.07293 5.47272 6.03711 5.91113C6.00035 6.36117 6 6.94342 6 7.79981V16.2002C6 17.0566 6.00035 17.6388 6.03711 18.0889C6.07293 18.5273 6.13809 18.7518 6.21778 18.9082C6.40951 19.2845 6.71555 19.5905 7.0918 19.7822C7.2482 19.8619 7.47272 19.9271 7.91113 19.9629C8.36117 19.9997 8.94342 20 9.79981 20H14.2002C15.0566 20 15.6388 19.9997 16.0889 19.9629C16.5273 19.9271 16.7518 19.8619 16.9082 19.7822C17.2845 19.5905 17.5905 19.2845 17.7822 18.9082C17.8619 18.7518 17.9271 18.5273 17.9629 18.0889C17.9997 17.6388 18 17.0566 18 16.2002V7.79981C18 6.94342 17.9997 6.36117 17.9629 5.91113C17.9271 5.47272 17.8619 5.2482 17.7822 5.0918C17.5905 4.71555 17.2845 4.40951 16.9082 4.21778C16.7518 4.13809 16.5273 4.07293 16.0889 4.03711C15.6388 4.00035 15.0566 4 14.2002 4H9.79981Z" fill="oklch(0.3523 0 0 / 1)" class="wd-icon-fill"></path>
</g>
</svg>