<svg width="24" height="24" viewBox="0 0 24 24" xmlns="http://www.w3.org/2000/svg" class="wd-icon wd-icon-chevron-2x-up-small" role="presentation">
<g>
<path d="M17.7069 17.707C18.0974 17.3164 18.0974 16.6834 17.7069 16.2929L12.7069 11.2929C12.3164 10.9024 11.6834 10.9024 11.2929 11.2929L6.29286 16.2929C5.9024 16.6834 5.90236 17.3165 6.29286 17.707C6.68336 18.0975 7.31639 18.0974 7.70692 17.707L11.9999 13.414L16.2929 17.707C16.6834 18.0975 17.3164 18.0974 17.7069 17.707Z" fill="oklch(0.3523 0 0 / 1)" class="wd-icon-fill"></path>
<path d="M17.7069 11.207C18.0974 10.8164 18.0974 10.1834 17.7069 9.79289L12.7069 4.79289C12.3164 4.40237 11.6834 4.40237 11.2929 4.79289L6.29286 9.79289C5.90248 10.1834 5.90238 10.8165 6.29286 11.207C6.68334 11.5974 7.3164 11.5973 7.70692 11.207L11.9999 6.91399L16.2929 11.207C16.6833 11.5974 17.3164 11.5973 17.7069 11.207Z" fill="oklch(0.3523 0 0 / 1)" class="wd-icon-fill"></path>
</g>
</svg>