<svg width="24" height="24" viewBox="0 0 24 24" xmlns="http://www.w3.org/2000/svg" class="wd-icon wd-icon-chevron-2x-up-small" role="presentation">
<g>
<path d="M11.2964 11.2256C11.6645 10.9249 12.1939 10.9248 12.562 11.2256L17.6753 15.4092C17.8887 15.5839 17.921 15.8996 17.7466 16.1133L17.1138 16.8877C16.939 17.1015 16.6234 17.1327 16.4097 16.958L11.9292 13.292L8.437 16.1494L8.43602 16.1484L7.44872 16.957C7.23505 17.1317 6.92043 17.1002 6.74559 16.8867L6.11278 16.1133C5.93794 15.8996 5.96944 15.584 6.18309 15.4092L8.15868 13.792C8.16145 13.7897 8.16467 13.7873 8.16747 13.7851L11.2964 11.2256Z" fill="oklch(0.3523 0 0 / 1)" class="wd-icon-fill"></path>
<path d="M11.2964 5.22556C11.6645 4.92486 12.1939 4.92477 12.562 5.22556L17.6753 9.40915C17.8887 9.58393 17.921 9.89959 17.7466 10.1133L17.1138 10.8877C16.939 11.1015 16.6234 11.1327 16.4097 10.958L11.9292 7.29197L8.437 10.1494L8.43602 10.1484L7.44872 10.957C7.23505 11.1317 6.92043 11.1002 6.74559 10.8867L6.11278 10.1133C5.93794 9.89956 5.96944 9.58404 6.18309 9.40915L8.15868 7.79197C8.16145 7.78971 8.16467 7.78732 8.16747 7.78513L11.2964 5.22556Z" fill="oklch(0.3523 0 0 / 1)" class="wd-icon-fill"></path>
</g>
</svg>