<svg width="24" height="24" viewBox="0 0 24 24" xmlns="http://www.w3.org/2000/svg" class="wd-icon wd-icon-text-wrap" role="presentation">
<g>
<path d="M15 5C18.866 5 22 8.13401 22 12C22 15.866 18.866 19 15 19V20.54C14.9997 20.9443 14.5442 21.1811 14.2129 20.9492L10.585 18.4092C10.3007 18.2101 10.3007 17.7899 10.585 17.5908L14.2129 15.0508C14.5442 14.8189 14.9998 15.0556 15 15.46V17C17.7614 17 20 14.7614 20 12C20 9.23858 17.7614 7 15 7H4C3.44772 7 3 6.55228 3 6C3 5.44772 3.44772 5 4 5H15Z" fill="oklch(0.3523 0 0 / 1)" class="wd-icon-fill"></path>
<path d="M7 17C7.55228 17 8 17.4477 8 18C8 18.5523 7.55228 19 7 19H4C3.44772 19 3 18.5523 3 18C3 17.4477 3.44772 17 4 17H7Z" fill="oklch(0.3523 0 0 / 1)" class="wd-icon-fill"></path>
<path d="M14 11C14.5523 11 15 11.4477 15 12C15 12.5523 14.5523 13 14 13H4C3.44772 13 3 12.5523 3 12C3 11.4477 3.44772 11 4 11H14Z" fill="oklch(0.3523 0 0 / 1)" class="wd-icon-fill"></path>
</g>
</svg>