<svg width="24" height="24" viewBox="0 0 24 24" xmlns="http://www.w3.org/2000/svg" class="wd-icon wd-icon-user-plus" role="presentation">
<path d="M19.4951 15C19.7713 15 19.9951 15.2239 19.9951 15.5V17.9951H22.5C22.7761 17.9951 23 18.219 23 18.4951V19.4951C23 19.7713 22.7761 19.9951 22.5 19.9951H19.9951V22.5C19.9951 22.7761 19.7713 23 19.4951 23H18.4951C18.219 23 17.9951 22.7761 17.9951 22.5V19.9951H15.5C15.2239 19.9951 15 19.7713 15 19.4951V18.4951C15 18.219 15.2239 17.9951 15.5 17.9951H17.9951V15.5C17.9951 15.2239 18.219 15 18.4951 15H19.4951Z" fill="oklch(0.3523 0 0 / 1)" class="wd-icon-accent"></path>
<g>
<path d="M12 12C12.1618 12 12.3229 12.0035 12.4834 12.0088C12.4889 12.0088 12.4945 12.0076 12.5 12.0078C12.5453 12.0094 12.5905 12.0127 12.6357 12.0146C12.6876 12.0169 12.7393 12.0197 12.791 12.0225C12.8523 12.0258 12.9135 12.0282 12.9746 12.0322C13.0389 12.0365 13.103 12.0417 13.167 12.0469C13.4562 12.07 13.743 12.1018 14.0273 12.1416C14.0348 12.1427 14.0423 12.1435 14.0498 12.1445C14.1504 12.1588 14.2506 12.1741 14.3506 12.1904C14.3653 12.1928 14.3799 12.1958 14.3945 12.1982C14.8764 12.2784 15.3506 12.3813 15.8154 12.5078C16.0819 12.5803 16.2292 12.8612 16.1475 13.125L15.8525 14.0801C15.7707 14.3437 15.4904 14.4899 15.2236 14.4189C14.4242 14.2062 13.5926 14.0712 12.7373 14.0215V14.0234C12.4933 14.0092 12.2476 14 12 14C8.95518 14 6.16846 15.0895 4 16.8984V20H12.5C12.7761 20 13 20.2239 13 20.5V21.5C13 21.7761 12.7761 22 12.5 22H3.5C2.72334 22 2.08461 21.4097 2.00781 20.6533L2 20.5V16.6611L2.00879 16.5029C2.04773 16.1358 2.2218 15.7869 2.51367 15.5342L2.99902 15.1318C5.47159 13.1717 8.59996 12 12 12Z" fill="oklch(0.3523 0 0 / 1)" class="wd-icon-fill"></path>
<path d="M12 1C14.7614 1 17 3.23858 17 6C17 8.76142 14.7614 11 12 11C9.23858 11 7 8.76142 7 6C7 3.23858 9.23858 1 12 1ZM12 3C10.3431 3 9 4.34315 9 6C9 7.65685 10.3431 9 12 9C13.6569 9 15 7.65685 15 6C15 4.34315 13.6569 3 12 3Z" fill="oklch(0.3523 0 0 / 1)" class="wd-icon-fill"></path>
</g>
</svg>