<svg width="24" height="24" viewBox="0 0 24 24" xmlns="http://www.w3.org/2000/svg" class="wd-icon wd-icon-ribbon" role="presentation">
<g>
<path d="M11.999 15.2275C12.025 15.2329 12.0604 15.2419 12.1328 15.2588L13.3369 15.5381C13.5463 15.5868 13.7557 15.6366 13.9375 15.665C14.1318 15.6954 14.3609 15.7135 14.6143 15.668C14.7584 15.642 14.8983 15.5999 15.0322 15.5439L15.6719 19.5381L13.0283 17.9512C12.395 17.5713 11.603 17.5712 10.9697 17.9512L8.32617 19.5381L8.96387 15.5449C9.09726 15.6004 9.23642 15.6432 9.37988 15.6689C9.6332 15.7145 9.86234 15.6964 10.0566 15.666C10.2385 15.6376 10.4479 15.5878 10.6572 15.5391L11.8613 15.2588C11.9337 15.2419 11.9691 15.2329 11.9951 15.2275C12.0155 15.2234 12.0113 15.2253 11.9971 15.2266C11.9828 15.2253 11.9786 15.2234 11.999 15.2275Z" fill="transparent" class="wd-icon-background"></path>
<path d="M11.9971 7.49902C12.8255 7.49902 13.4971 8.1706 13.4971 8.99902C13.4971 9.82745 12.8255 10.499 11.9971 10.499C11.1686 10.499 10.4971 9.82745 10.4971 8.99902C10.4971 8.1706 11.1686 7.49902 11.9971 7.49902Z" fill="transparent" class="wd-icon-background"></path>
<path d="M12.0049 3.79883C12.0819 3.85194 12.183 3.93307 12.373 4.08594L13.3359 4.86035C13.4236 4.93088 13.5387 5.02674 13.6699 5.10547C13.7745 5.16816 13.8848 5.22102 13.999 5.26367C14.1424 5.31721 14.2886 5.34749 14.3984 5.37207L15.6045 5.64258C15.8426 5.69586 15.969 5.72392 16.0586 5.75098C16.0613 5.7518 16.0639 5.75312 16.0664 5.75391C16.0666 5.75675 16.068 5.76051 16.0684 5.76367C16.0748 5.85692 16.0743 5.98701 16.0732 6.23047L16.0684 7.4668C16.0679 7.5792 16.0648 7.72851 16.085 7.87988C16.1011 8.00051 16.1292 8.11966 16.167 8.23535C16.2144 8.38056 16.2808 8.5141 16.3301 8.61523L16.8721 9.72656C16.9786 9.94542 17.0346 10.0626 17.0693 10.1494C17.0703 10.1518 17.0714 10.1549 17.0723 10.1572C17.0701 10.1593 17.0679 10.1627 17.0654 10.165C16.9965 10.2282 16.8951 10.3089 16.7041 10.46L15.7344 11.2266C15.6461 11.2963 15.5278 11.3877 15.4219 11.498C15.3376 11.5859 15.2612 11.6815 15.1943 11.7832C15.1103 11.911 15.0484 12.0468 15 12.1484L14.4678 13.2646C14.3631 13.4844 14.307 13.6014 14.2607 13.6826C14.2592 13.6853 14.2573 13.688 14.2559 13.6904C14.2531 13.69 14.2501 13.6899 14.2471 13.6895C14.1546 13.675 14.0278 13.6461 13.79 13.5908L12.5859 13.3105C12.5313 13.2978 12.468 13.2824 12.3994 13.2686L12.1797 13.2354L11.9971 13.2266C11.9361 13.2266 11.8752 13.2298 11.8145 13.2354C11.6622 13.2493 11.5178 13.285 11.4082 13.3105L10.2041 13.5918C9.96639 13.6471 9.8395 13.676 9.74707 13.6904C9.74369 13.6909 9.74034 13.691 9.7373 13.6914C9.73598 13.6891 9.73479 13.6861 9.7334 13.6836C9.68713 13.6024 9.6311 13.4855 9.52637 13.2656L8.99414 12.1494C8.94577 12.0479 8.88382 11.912 8.7998 11.7842C8.7329 11.6825 8.65651 11.5869 8.57227 11.499C8.46637 11.3886 8.34805 11.2973 8.25977 11.2275L7.29004 10.4609C7.09909 10.31 6.99764 10.2292 6.92871 10.166C6.92606 10.1636 6.92325 10.1604 6.9209 10.1582C6.92181 10.1559 6.92371 10.1529 6.9248 10.1504C6.95947 10.0636 7.01548 9.9465 7.12207 9.72754L7.66406 8.61621C7.71328 8.51513 7.77964 8.38155 7.82715 8.23633C7.86494 8.12065 7.893 8.00148 7.90918 7.88086C7.92942 7.72954 7.92627 7.58024 7.92578 7.46777L7.9209 6.23047C7.91987 5.98701 7.91935 5.85692 7.92578 5.76367C7.92602 5.76053 7.92654 5.75672 7.92676 5.75391C7.92951 5.75304 7.93251 5.7519 7.93555 5.75098C8.02509 5.72392 8.15157 5.69586 8.38965 5.64258L9.5957 5.37207C9.70555 5.34749 9.85173 5.31721 9.99512 5.26367C10.1093 5.22102 10.2197 5.16816 10.3242 5.10547C10.4554 5.02674 10.5705 4.93088 10.6582 4.86035L11.6211 4.08594C11.8111 3.93307 11.9123 3.85194 11.9893 3.79883C11.992 3.79692 11.9946 3.79465 11.9971 3.79297C11.9995 3.79465 12.0022 3.79692 12.0049 3.79883ZM11.9971 5.99902C10.3402 5.99902 8.99707 7.34217 8.99707 8.99902C8.99707 10.6559 10.3402 11.999 11.9971 11.999C13.6539 11.999 14.9971 10.6559 14.9971 8.99902C14.9971 7.34217 13.6539 5.99902 11.9971 5.99902Z" fill="transparent" class="wd-icon-background"></path>
</g>
<path d="M11.4631 1.85809C11.8133 1.76084 12.1832 1.76084 12.5334 1.85809C12.7814 1.927 12.9799 2.04326 13.1418 2.15497C13.2932 2.25949 13.4607 2.3943 13.6281 2.52899L14.591 3.30438C14.6486 3.35068 14.6774 3.37329 14.6984 3.38934L14.6994 3.39032L14.7023 3.3913C14.7281 3.39779 14.7637 3.40633 14.8361 3.42255L16.0422 3.69208C16.252 3.73903 16.4627 3.78529 16.6389 3.83856C16.8271 3.89548 17.0408 3.97872 17.2492 4.12958C17.5067 4.316 17.7161 4.56028 17.8596 4.84247L17.9172 4.96649L17.9807 5.1413C18.0331 5.31442 18.0544 5.47943 18.0646 5.62665C18.0773 5.81011 18.0753 6.02516 18.0744 6.23993L18.0695 7.47626V7.61493L18.0705 7.61786C18.0815 7.64201 18.0977 7.67535 18.1301 7.74188L18.6711 8.85321C18.7651 9.04641 18.8598 9.23996 18.9279 9.41083C19.0007 9.59333 19.0702 9.81228 19.0822 10.069C19.0991 10.4319 19.0166 10.7933 18.8439 11.113C18.7216 11.3393 18.564 11.5074 18.4191 11.6403C18.2835 11.7647 18.1141 11.8977 17.9455 12.0309L16.9758 12.7975C16.9176 12.8435 16.8877 12.8665 16.8674 12.8835L16.8664 12.8864C16.8544 12.9101 16.8387 12.9436 16.8068 13.0104L16.6916 13.2497L17.6486 19.2224C17.9169 20.9005 16.1021 22.1277 14.6447 21.2536L12.0002 19.6667L9.35567 21.2536C7.89835 22.1274 6.08357 20.9004 6.35176 19.2224L7.30586 13.2536L7.18965 13.0104C7.15779 12.9436 7.14212 12.9101 7.13008 12.8864L7.12813 12.8835C7.10778 12.8665 7.07894 12.8436 7.0207 12.7975L6.05098 12.0309C5.8824 11.8977 5.71295 11.7647 5.57734 11.6403C5.43246 11.5074 5.2749 11.3394 5.15254 11.113C4.97989 10.7933 4.89741 10.4319 4.91426 10.069C4.92627 9.8123 4.99579 9.59332 5.06856 9.41083C5.13672 9.23998 5.23135 9.04639 5.32539 8.85321L5.86641 7.74188C5.89877 7.6754 5.91501 7.64201 5.92598 7.61786V7.61493L5.92695 7.61395C5.92756 7.58743 5.92727 7.55048 5.92695 7.47626L5.92207 6.23993C5.92116 6.02517 5.91914 5.81011 5.93184 5.62665C5.94542 5.43057 5.97871 5.20319 6.0793 4.96649C6.22157 4.63205 6.4529 4.34274 6.74727 4.12958C6.9556 3.97876 7.16947 3.89548 7.35762 3.83856C7.53379 3.7853 7.74451 3.73902 7.9543 3.69208L9.16035 3.42255C9.23271 3.40635 9.26841 3.39778 9.29414 3.3913L9.29805 3.38934C9.31912 3.3733 9.34796 3.35064 9.40547 3.30438L10.3684 2.52899C10.5358 2.39433 10.7033 2.25948 10.8547 2.15497C11.0166 2.04327 11.2151 1.92701 11.4631 1.85809ZM11.9963 15.2292C11.9703 15.2345 11.9348 15.2436 11.8625 15.2604L10.6584 15.5397C10.4491 15.5885 10.2396 15.6382 10.0578 15.6667C9.8635 15.6971 9.63439 15.7151 9.38106 15.6696C9.23756 15.6438 9.09847 15.6011 8.96504 15.5456L8.32734 19.5388L10.9709 17.9518C11.6042 17.5718 12.3961 17.5719 13.0295 17.9518L15.673 19.5388L15.0334 15.5446C14.8994 15.6006 14.7596 15.6437 14.6154 15.6696C14.3621 15.7151 14.133 15.6971 13.9387 15.6667C13.7568 15.6382 13.5475 15.5885 13.3381 15.5397L12.134 15.2604C12.0615 15.2436 12.0262 15.2345 12.0002 15.2292L11.9982 15.2282L11.9963 15.2292ZM11.9904 3.80048C11.9135 3.85361 11.8123 3.93473 11.6223 4.08758L10.6594 4.862C10.5717 4.93255 10.4566 5.02843 10.3254 5.10712C10.2209 5.16979 10.1105 5.22268 9.99629 5.26532C9.85291 5.31883 9.70669 5.34914 9.59688 5.37372L8.39082 5.64423C8.15271 5.69751 8.02626 5.72556 7.93672 5.75262C7.93369 5.75355 7.93067 5.7547 7.92793 5.75555C7.92769 5.75844 7.92717 5.76216 7.92695 5.76532C7.92054 5.8586 7.92104 5.98864 7.92207 6.23212L7.92695 7.46844C7.92744 7.58092 7.9306 7.73014 7.91035 7.88153C7.89417 8.00219 7.86613 8.12128 7.82832 8.237C7.78081 8.38226 7.71446 8.51577 7.66524 8.61688L7.12324 9.72821C7.01663 9.94722 6.96064 10.0642 6.92598 10.1511C6.92489 10.1536 6.923 10.1565 6.92207 10.1589C6.92445 10.1611 6.9272 10.1642 6.92988 10.1667C6.99882 10.2299 7.10016 10.3106 7.29121 10.4616L8.26094 11.2282C8.34924 11.298 8.4675 11.3893 8.57344 11.4997C8.65773 11.5876 8.73405 11.6831 8.80098 11.7849C8.88504 11.9127 8.94693 12.0485 8.99531 12.1501L9.52754 13.2663C9.63232 13.4862 9.68829 13.6031 9.73457 13.6843C9.736 13.6868 9.73713 13.6898 9.73848 13.6921C9.7415 13.6916 9.74488 13.6916 9.74824 13.6911C9.84067 13.6766 9.96758 13.6478 10.2053 13.5925L11.4094 13.3122C11.519 13.2867 11.6634 13.251 11.8156 13.237C11.8764 13.2314 11.9373 13.2282 11.9982 13.2282L12.1809 13.237L12.4006 13.2702C12.4692 13.284 12.5325 13.2995 12.5871 13.3122L13.7912 13.5925C14.029 13.6478 14.1558 13.6766 14.2482 13.6911C14.2513 13.6916 14.2543 13.6917 14.257 13.6921C14.2584 13.6896 14.2604 13.6869 14.2619 13.6843C14.3082 13.6031 14.3642 13.4862 14.4689 13.2663L15.0012 12.1501C15.0496 12.0485 15.1115 11.9127 15.1955 11.7849C15.2624 11.6831 15.3388 11.5876 15.423 11.4997C15.529 11.3893 15.6473 11.298 15.7355 11.2282L16.7053 10.4616C16.8963 10.3106 16.9977 10.2299 17.0666 10.1667C17.0691 10.1644 17.0713 10.161 17.0734 10.1589C17.0725 10.1566 17.0715 10.1536 17.0705 10.1511C17.0358 10.0642 16.9799 9.94726 16.8732 9.72821L16.3313 8.61688C16.282 8.51576 16.2157 8.38228 16.1682 8.237C16.1304 8.12127 16.1023 8.0022 16.0861 7.88153C16.0659 7.73014 16.069 7.58092 16.0695 7.46844L16.0744 6.23212C16.0754 5.98864 16.0759 5.8586 16.0695 5.76532C16.0693 5.76213 16.0679 5.75846 16.0676 5.75555C16.0651 5.75477 16.0625 5.75346 16.0598 5.75262C15.9702 5.72555 15.8439 5.69753 15.6057 5.64423L14.3996 5.37372C14.2898 5.34914 14.1436 5.31886 14.0002 5.26532C13.886 5.22267 13.7757 5.16981 13.6711 5.10712C13.5399 5.0284 13.4248 4.93255 13.3371 4.862L12.3742 4.08758C12.1841 3.93467 12.083 3.85361 12.0061 3.80048C12.0033 3.79856 12.0007 3.79633 11.9982 3.79462C11.9958 3.79632 11.9932 3.79858 11.9904 3.80048Z" fill="oklch(0.3523 0 0 / 1)" class="wd-icon-fill"></path>
<path d="M11.998 6C13.6549 6 14.998 7.34315 14.998 9C14.998 10.6569 13.6549 12 11.998 12C10.3412 12 8.99805 10.6569 8.99805 9C8.99805 7.34315 10.3412 6 11.998 6ZM11.998 7.5C11.1696 7.5 10.498 8.17157 10.498 9C10.498 9.82843 11.1696 10.5 11.998 10.5C12.8265 10.5 13.498 9.82843 13.498 9C13.498 8.17157 12.8265 7.5 11.998 7.5Z" fill="oklch(0.3523 0 0 / 1)" class="wd-icon-accent"></path>
</svg>