<svg width="24" height="24" viewBox="0 0 24 24" xmlns="http://www.w3.org/2000/svg" class="wd-icon wd-icon-user-star" role="presentation">
<g>
<path d="M13.0005 20C13.0005 19.4479 12.5516 19.0003 11.9995 19C8.55828 19 6.18034 18.5977 5.04736 18.3525C5.23654 16.8454 5.98899 15.8106 7.12451 15.1162C8.33534 14.376 10.0273 14 11.9995 14C12.517 13.9998 12.9423 13.6065 12.9937 13.1025L12.9995 13L13.0005 20Z" fill="transparent" class="wd-icon-background"></path>
<path d="M11.9995 3.5C13.38 3.50026 14.4995 4.61945 14.4995 6C14.4995 7.38055 13.38 8.49974 11.9995 8.5C10.6188 8.5 9.49951 7.38071 9.49951 6C9.49951 4.61929 10.6188 3.5 11.9995 3.5Z" fill="transparent" class="wd-icon-background"></path>
</g>
<g>
<path d="M12.0009 12C12.5531 12.0001 13.0009 12.4478 13.0009 13C13.0009 13.5522 12.5531 13.9999 12.0009 14C10.0286 14 8.33676 14.3759 7.12592 15.1162C5.99039 15.8106 5.23794 16.8453 5.04877 18.3525C6.18165 18.5977 8.55944 19 12.0009 19C12.5531 19.0001 13.0009 19.4478 13.0009 20C13.0009 20.5522 12.5531 20.9999 12.0009 21C8.2782 21 5.70857 20.5517 4.49799 20.2812C3.60276 20.0811 2.94473 19.254 3.04291 18.2852L3.09564 17.874C3.41327 15.8533 4.51133 14.3712 6.08295 13.4102C7.71739 12.4108 9.81436 12 12.0009 12Z" fill="oklch(0.3523 0 0 / 1)" class="wd-icon-fill"></path>
<path d="M12.0009 1.5C14.4861 1.50013 16.5009 3.5148 16.5009 6C16.5009 8.4852 14.4861 10.4999 12.0009 10.5C9.51564 10.5 7.50092 8.48528 7.50092 6C7.50092 3.51472 9.51564 1.5 12.0009 1.5ZM12.0009 3.5C10.6202 3.5 9.50092 4.61929 9.50092 6C9.50092 7.38071 10.6202 8.5 12.0009 8.5C13.3815 8.49987 14.5009 7.38063 14.5009 6C14.5009 4.61937 13.3815 3.50013 12.0009 3.5Z" fill="oklch(0.3523 0 0 / 1)" class="wd-icon-fill"></path>
</g>
<path d="M17.8615 12.7811C18.1471 12.3008 18.8589 12.3009 19.1447 12.7811L19.1993 12.8915L19.8849 14.5976L21.7199 14.7226C22.3942 14.7683 22.669 15.6133 22.1505 16.0468L20.7384 17.2265L21.1876 19.0106C21.352 19.666 20.6331 20.1873 20.0607 19.828L18.5031 18.8495L16.9454 19.828C16.3731 20.187 15.6542 19.6659 15.8185 19.0106L16.2667 17.2265L14.8556 16.0468C14.3375 15.6133 14.6122 14.7686 15.2863 14.7226L17.1202 14.5976L17.8068 12.8915L17.8615 12.7811Z" fill="oklch(0.3523 0 0 / 1)" class="wd-icon-accent"></path>
</svg>