<svg width="24" height="24" viewBox="0 0 24 24" xmlns="http://www.w3.org/2000/svg" class="wd-icon wd-icon-document-html" role="presentation">
<path d="M18.5 2H5.5C5.22386 2 5 2.22386 5 2.5V21.5C5 21.7761 5.22386 22 5.5 22H18.5C18.7761 22 19 21.7761 19 21.5V2.5C19 2.22386 18.7761 2 18.5 2Z" fill="transparent" class="wd-icon-background"></path>
<path d="M18.5 1C19.3284 1 20 1.67157 20 2.5V21.5C20 22.3284 19.3284 23 18.5 23H5.5C4.67157 23 4 22.3284 4 21.5V2.5C4 1.67157 4.67157 1 5.5 1H18.5ZM6 21H18V3H6V21Z" fill="oklch(0.3523 0 0 / 1)" class="wd-icon-fill"></path>
<g>
<path d="M13.1328 8C13.458 8 13.6969 8.30558 13.6182 8.62109L11.8682 15.6211C11.8125 15.8437 11.6122 16 11.3828 16H10.8682C10.5429 16 10.3041 15.6944 10.3828 15.3789L12.1328 8.37891C12.1885 8.15632 12.3887 8 12.6182 8H13.1328Z" fill="oklch(0.3523 0 0 / 1)" class="wd-icon-accent"></path>
<path d="M9.2334 9.84766C9.56624 9.63841 9.99877 9.87739 9.99902 10.2705V10.8613C9.99889 11.033 9.9109 11.1927 9.76562 11.2842L9.20801 11.6338L9.20898 11.6348L8.62793 12L8.94531 12.2002L9.7666 12.7158C9.91204 12.8073 10 12.9678 10 13.1396V13.7305C9.99994 14.1238 9.56634 14.3628 9.2334 14.1533L8.02344 13.3926L8.02148 13.3906L7.35059 12.9688C7.13254 12.8315 7.00014 12.5916 7 12.334V11.667C7 11.4092 7.13243 11.1695 7.35059 11.0322L9.2334 9.84766Z" fill="oklch(0.3523 0 0 / 1)" class="wd-icon-accent"></path>
<path d="M13.999 10.2705C13.9993 9.87735 14.4328 9.63829 14.7656 9.84766L16.6494 11.0322C16.8676 11.1695 17 11.4092 17 11.667V12.334C16.9999 12.5916 16.8675 12.8315 16.6494 12.9688L15.9775 13.3906L15.9766 13.3926L14.7666 14.1533C14.4337 14.3628 14.0001 14.1238 14 13.7305V13.1396C14 12.9678 14.088 12.8073 14.2334 12.7158L14.9287 12.2793L15.3711 12L14.2334 11.2842C14.0881 11.1927 13.9992 11.033 13.999 10.8613V10.2705Z" fill="oklch(0.3523 0 0 / 1)" class="wd-icon-accent"></path>
</g>
</svg>