<svg width="24" height="24" viewBox="0 0 24 24" xmlns="http://www.w3.org/2000/svg" class="wd-icon wd-icon-remove-column-after" role="presentation">
<g>
<path d="M5.5 9C6.32843 9 7 9.67157 7 10.5V18.5C7 19.3284 6.32843 20 5.5 20H2.5C1.67157 20 1 19.3284 1 18.5V10.5C1 9.67157 1.67157 9 2.5 9H5.5ZM3 18H5V11H3V18Z" fill="oklch(0.3523 0 0 / 1)" class="wd-icon-fill"></path>
<path d="M12.5 9C13.3284 9 14 9.67157 14 10.5V18.5C14 19.3284 13.3284 20 12.5 20H9.5C8.67157 20 8 19.3284 8 18.5V10.5C8 9.67157 8.67157 9 9.5 9H12.5ZM10 18H12V11H10V18Z" fill="oklch(0.3523 0 0 / 1)" class="wd-icon-fill"></path>
<path d="M19.5 2C20.3284 2 21 2.67157 21 3.5V11.5C21 12.3284 20.3284 13 19.5 13H16.5C15.6716 13 15 12.3284 15 11.5V3.5C15 2.67157 15.6716 2 16.5 2H19.5ZM17 11H19V4H17V11Z" fill="oklch(0.3523 0 0 / 1)" class="wd-icon-fill"></path>
</g>
<path d="M20.4394 15.1464C20.6347 14.9512 20.9512 14.9512 21.1464 15.1464L21.8535 15.8535C22.0484 16.0487 22.0486 16.3653 21.8535 16.5605L20.414 17.9999L21.8535 19.4394C22.0487 19.6347 22.0487 19.9512 21.8535 20.1464L21.1464 20.8535C20.9512 21.0486 20.6346 21.0487 20.4394 20.8535L18.9999 19.414L17.5605 20.8535C17.3653 21.0486 17.0487 21.0484 16.8535 20.8535L16.1464 20.1464C15.9512 19.9512 15.9512 19.6347 16.1464 19.4394L17.5859 17.9999L16.1464 16.5605C15.9513 16.3653 15.9513 16.0487 16.1464 15.8535L16.8535 15.1464C17.0487 14.9512 17.3652 14.9512 17.5605 15.1464L18.9999 16.5859L20.4394 15.1464Z" fill="oklch(0.3523 0 0 / 1)" class="wd-icon-accent"></path>
</svg>