<svg width="24" height="24" viewBox="0 0 24 24" xmlns="http://www.w3.org/2000/svg" class="wd-icon wd-icon-platform-cart" role="presentation">
<g>
<path d="M6 18C7.10457 18 8 18.8954 8 20C8 21.1046 7.10457 22 6 22C4.89543 22 4 21.1046 4 20C4 18.8954 4.89543 18 6 18Z" fill="oklch(0.3523 0 0 / 1)" class="wd-icon-fill"></path>
<path d="M19 18C20.1046 18 21 18.8954 21 20C21 21.1046 20.1046 22 19 22C17.8954 22 17 21.1046 17 20C17 18.8954 17.8954 18 19 18Z" fill="oklch(0.3523 0 0 / 1)" class="wd-icon-fill"></path>
<path d="M5.10254 2.00488C5.60667 2.05621 6 2.48232 6 3V15H7V6.5C7 5.67157 7.67157 5 8.5 5H14.5C15.3284 5 16 5.67157 16 6.5V10H18.5C19.3284 10 20 10.6716 20 11.5V15H21.5C21.7761 15 22 15.2239 22 15.5V16.5C22 16.7761 21.7761 17 21.5 17H5C4.44772 17 4 16.5523 4 16V4H2.5C2.22386 4 2 3.77614 2 3.5V2.5C2 2.22386 2.22386 2 2.5 2H5L5.10254 2.00488ZM9 15H18V12H9V15ZM9 10H14V7H9V10Z" fill="oklch(0.3523 0 0 / 1)" class="wd-icon-fill"></path>
</g>
</svg>