<svg width="24" height="24" viewBox="0 0 24 24" xmlns="http://www.w3.org/2000/svg" class="wd-icon wd-icon-moon" role="presentation">
<path d="M9.55176 3.78125C9.55952 3.83201 9.55454 3.88126 9.53906 3.92383C9.19005 4.88355 9.00004 5.9187 9 6.99609C9.00007 11.9666 13.0295 15.9961 18 15.9961C18.3856 15.9961 18.7662 15.9713 19.1396 15.9238C19.1847 15.9182 19.2341 15.9244 19.2822 15.9434C17.8164 17.8049 15.5497 19 13 19C8.72003 19 5.22534 15.6388 5.01074 11.4121L5 11C5 7.81841 6.858 5.07014 9.55176 3.78125Z" fill="transparent" class="wd-icon-background"></path>
<path d="M8.88672 1.8824C9.80273 1.46871 10.6554 1.86337 11.1123 2.47224C11.5396 3.04193 11.692 3.85536 11.4189 4.60603C11.1481 5.3503 11 6.15476 11 6.99568L11.0088 7.35603C11.1965 11.0545 14.255 13.9957 18 13.9957C18.3008 13.9957 18.5967 13.9768 18.8867 13.94C19.6796 13.8393 20.4396 14.1682 20.9014 14.7105C21.3947 15.2902 21.5934 16.2089 20.9883 17.0123C19.1657 19.4313 16.2664 20.9986 13 20.9986C7.47715 20.9986 3 16.5215 3 10.9986C3.00025 6.94049 5.41773 3.44944 8.88672 1.8824ZM9.55273 3.77888C6.85846 5.06746 5.00023 7.81675 5 10.9986C5 15.4169 8.58172 18.9986 13 18.9986C15.5496 18.9986 17.8163 17.8041 19.2822 15.9429C19.2342 15.924 19.1847 15.9178 19.1396 15.9234C18.7662 15.9709 18.3855 15.9957 18 15.9957C13.0295 15.9957 9.00019 11.966 9 6.99568C9.00004 5.91788 9.1907 4.88239 9.54004 3.92244C9.5478 3.90101 9.55254 3.87722 9.55469 3.8531L9.55273 3.77888Z" fill="oklch(0.3523 0 0 / 1)" class="wd-icon-fill"></path>
</svg>