<svg width="24" height="24" viewBox="0 0 24 24" xmlns="http://www.w3.org/2000/svg" class="wd-icon wd-icon-gavel" role="presentation">
<g>
<path d="M9.99805 15.9999C11.6549 15.9999 12.998 17.3431 12.998 18.9999L13.1006 19.0048C13.6047 19.0561 13.998 19.4823 13.998 19.9999C13.998 20.5522 13.5503 20.9999 12.998 20.9999H3.99805C3.44579 20.9999 2.9981 20.5522 2.99805 19.9999C2.99805 19.4823 3.39138 19.0561 3.89551 19.0048L3.99805 18.9999C3.99805 17.3431 5.34119 15.9999 6.99805 15.9999H9.99805ZM6.99805 17.9999C6.44576 17.9999 5.99805 18.4476 5.99805 18.9999H10.998C10.998 18.4476 10.5503 17.9999 9.99805 17.9999H6.99805Z" fill="oklch(0.3523 0 0 / 1)" class="wd-icon-fill"></path>
<path d="M13.0244 2.24699C13.4149 1.85647 14.048 1.85647 14.4385 2.24699L18.6816 6.48918C19.0719 6.87955 19.0717 7.51271 18.6816 7.90324C18.3155 8.26935 17.7355 8.2929 17.3428 7.97258L17.2666 7.90324L16.2051 8.96477L20.8027 13.5605C21.7788 14.5367 21.7787 16.1193 20.8027 17.0956C19.8264 18.0719 18.2429 18.0719 17.2666 17.0956L12.6699 12.4999L11.6104 13.5605L11.6787 13.6366C11.9989 14.0293 11.9762 14.6084 11.6104 14.9745C11.2199 15.365 10.5868 15.365 10.1963 14.9745L8.78711 13.5673C8.78507 13.5653 8.78328 13.5625 8.78125 13.5605L5.95312 10.7323C5.56268 10.3419 5.56284 9.70883 5.95312 9.31828C6.34365 8.92776 6.97666 8.92776 7.36719 9.31828L13.0244 3.66106C12.6339 3.27054 12.6339 2.63752 13.0244 2.24699ZM14.084 11.0859L18.6816 15.6816C18.8769 15.8767 19.1934 15.8768 19.3887 15.6816C19.5835 15.4863 19.5837 15.1697 19.3887 14.9745L14.791 10.3788L14.084 11.0859ZM8.78125 10.7323L10.1963 12.1464L15.8525 6.48918L14.4385 5.07512L8.78125 10.7323Z" fill="oklch(0.3523 0 0 / 1)" class="wd-icon-fill"></path>
</g>
</svg>