<svg width="24" height="24" viewBox="0 0 24 24" xmlns="http://www.w3.org/2000/svg" class="wd-icon wd-icon-bar-horizontal-cluster-chart" role="presentation">
<g>
<path d="M22 13C22.5523 13 23 13.4477 23 14V18C23 18.2652 22.8946 18.5195 22.707 18.707C22.5195 18.8946 22.2652 19 22 19H18V22C18 22.2652 17.8946 22.5195 17.707 22.707C17.5195 22.8946 17.2652 23 17 23H4C3.73478 23 3.48051 22.8946 3.29297 22.707C3.10543 22.5195 3 22.2652 3 22V14C3 13.4477 3.44772 13 4 13H22ZM5 21H16V19H5V21ZM5 17H21V15H5V17Z" fill="oklch(0.3523 0 0 / 1)" class="wd-icon-fill"></path>
<path d="M13 1C13.5523 1 14 1.44772 14 2V5H17C17.5523 5 18 5.44772 18 6V10C18 10.2652 17.8946 10.5195 17.707 10.707C17.5195 10.8946 17.2652 11 17 11H4C3.73478 11 3.48051 10.8946 3.29297 10.707C3.10543 10.5195 3 10.2652 3 10V2C3 1.44772 3.44772 1 4 1H13ZM5 9H16V7H5V9ZM5 5H12V3H5V5Z" fill="oklch(0.3523 0 0 / 1)" class="wd-icon-fill"></path>
</g>
</svg>