<svg width="24" height="24" viewBox="0 0 24 24" xmlns="http://www.w3.org/2000/svg" class="wd-icon wd-icon-briefcase" role="presentation">
<g>
<path d="M19.998 15.2002C19.998 16.0566 19.9977 16.6388 19.9609 17.0889C19.9251 17.5273 19.86 17.7518 19.7803 17.9082C19.5885 18.2845 19.2825 18.5905 18.9062 18.7822C18.7499 18.8619 18.5253 18.9271 18.0869 18.9629C17.6369 18.9997 17.0546 19 16.1982 19H7.79785C6.94146 19 6.35922 18.9997 5.90918 18.9629C5.47076 18.9271 5.24624 18.8619 5.08984 18.7822C4.71359 18.5905 4.40755 18.2845 4.21582 17.9082C4.13613 17.7518 4.07098 17.5273 4.03516 17.0889C3.9984 16.6388 3.99805 16.0566 3.99805 15.2002V12.4541C4.0546 12.4734 4.11079 12.4936 4.16797 12.5107C4.47649 12.6035 4.85424 12.687 5.28711 12.7832L10.7402 13.9951C11.104 14.076 11.3719 14.1369 11.6484 14.1611C11.8809 14.1815 12.1152 14.1815 12.3477 14.1611C12.6242 14.1369 12.8921 14.076 13.2559 13.9951L18.709 12.7832C19.1419 12.687 19.5196 12.6035 19.8281 12.5107C19.8853 12.4936 19.9415 12.4734 19.998 12.4541V15.2002Z" fill="transparent" class="wd-icon-background"></path>
<path d="M16.1982 8C17.0546 8 17.6369 8.00035 18.0869 8.03711C18.5253 8.07293 18.7499 8.13808 18.9062 8.21777C19.2825 8.40951 19.5885 8.71554 19.7803 9.0918C19.8582 9.24466 19.9207 9.46272 19.957 9.88184C19.9434 9.96492 19.9297 10.0103 19.917 10.04C19.8455 10.2066 19.7301 10.351 19.583 10.457C19.5411 10.4872 19.4618 10.5326 19.252 10.5957C19.03 10.6624 18.7366 10.7286 18.2754 10.8311L12.8223 12.042C12.4093 12.1338 12.2888 12.1588 12.1729 12.1689C12.0566 12.1791 11.9395 12.1791 11.8232 12.1689C11.7073 12.1588 11.5868 12.1338 11.1738 12.042L5.7207 10.8311C5.25949 10.7286 4.9661 10.6624 4.74414 10.5957C4.53426 10.5326 4.45496 10.4872 4.41309 10.457C4.26604 10.351 4.15063 10.2066 4.0791 10.04C4.06636 10.0103 4.05174 9.96502 4.03809 9.88184C4.07438 9.46267 4.13793 9.24467 4.21582 9.0918C4.40755 8.71554 4.71359 8.40951 5.08984 8.21777C5.24624 8.13808 5.47076 8.07293 5.90918 8.03711C6.35922 8.00035 6.94146 8 7.79785 8H16.1982Z" fill="transparent" class="wd-icon-background"></path>
</g>
<path d="M11.998 2C14.2072 2 15.998 3.79086 15.998 6H16.1982C17.0217 6 17.6996 5.99898 18.25 6.04395C18.8121 6.08987 19.3292 6.18827 19.8145 6.43555C20.567 6.81902 21.179 7.43109 21.5625 8.18359C21.8098 8.6689 21.9082 9.18599 21.9541 9.74805C21.9991 10.2984 21.998 10.9763 21.998 11.7998V15.2002C21.998 16.0237 21.9991 16.7016 21.9541 17.252C21.9082 17.814 21.8098 18.3311 21.5625 18.8164C21.179 19.5689 20.567 20.181 19.8145 20.5645C19.3292 20.8117 18.8121 20.9101 18.25 20.9561C17.6996 21.001 17.0217 21 16.1982 21H7.79785C6.97437 21 6.29647 21.001 5.7461 20.9561C5.18404 20.9101 4.66695 20.8117 4.18164 20.5645C3.42914 20.181 2.81706 19.5689 2.4336 18.8164C2.18632 18.3311 2.08792 17.814 2.04199 17.252C1.99703 16.7016 1.99805 16.0237 1.99805 15.2002V11.7998C1.99805 10.9763 1.99703 10.2984 2.04199 9.74805C2.08792 9.18599 2.18632 8.6689 2.4336 8.18359C2.81706 7.43109 3.42914 6.81902 4.18164 6.43555C4.66695 6.18827 5.18404 6.08987 5.7461 6.04395C6.29647 5.99898 6.97437 6 7.79785 6H7.99805C7.99805 3.79086 9.78891 2 11.998 2ZM7.79785 8C6.94147 8 6.35922 8.00035 5.90918 8.03711C5.47077 8.07293 5.24624 8.13808 5.08985 8.21777C4.7136 8.40951 4.40756 8.71555 4.21582 9.0918C4.13613 9.2482 4.07098 9.47272 4.03516 9.91113C3.9984 10.3612 3.99805 10.9434 3.99805 11.7998V15.2002C3.99805 16.0566 3.9984 16.6388 4.03516 17.0889C4.07098 17.5273 4.13613 17.7518 4.21582 17.9082C4.40756 18.2845 4.7136 18.5905 5.08985 18.7822C5.24624 18.8619 5.47077 18.9271 5.90918 18.9629C6.35922 18.9997 6.94147 19 7.79785 19H16.1982C17.0546 19 17.6369 18.9997 18.0869 18.9629C18.5253 18.9271 18.7499 18.8619 18.9063 18.7822C19.2825 18.5905 19.5885 18.2845 19.7803 17.9082C19.86 17.7518 19.9251 17.5273 19.9609 17.0889C19.9977 16.6388 19.998 16.0566 19.998 15.2002V11.7998C19.998 10.9434 19.9977 10.3612 19.9609 9.91113C19.9251 9.47272 19.86 9.2482 19.7803 9.0918C19.5885 8.71555 19.2825 8.40951 18.9063 8.21777C18.7499 8.13809 18.5253 8.07293 18.0869 8.03711C17.6369 8.00035 17.0546 8 16.1982 8H7.79785ZM11.998 4C10.8935 4 9.99805 4.89543 9.99805 6H13.998C13.998 4.89543 13.1026 4 11.998 4Z" fill="oklch(0.3523 0 0 / 1)" class="wd-icon-fill"></path>
<path d="M19.9609 9.91113C19.9977 10.3612 19.998 10.9434 19.998 11.7998V12.4541C19.9415 12.4734 19.8853 12.4936 19.8281 12.5107C19.5196 12.6035 19.1419 12.687 18.709 12.7832L13.2559 13.9951C12.8921 14.076 12.6242 14.1369 12.3477 14.1611C12.1152 14.1815 11.8809 14.1815 11.6484 14.1611C11.3719 14.1369 11.104 14.076 10.7402 13.9951L5.28711 12.7832C4.85424 12.687 4.47649 12.6035 4.16797 12.5107C4.11079 12.4936 4.0546 12.4734 3.99805 12.4541V11.7998C3.99805 10.9434 3.9984 10.3612 4.03516 9.91113C4.03596 9.90125 4.03725 9.89151 4.03809 9.88184C4.05174 9.96502 4.06636 10.0103 4.0791 10.04C4.15063 10.2066 4.26604 10.351 4.41309 10.457C4.45496 10.4872 4.53426 10.5326 4.74414 10.5957C4.9661 10.6624 5.25949 10.7286 5.7207 10.8311L11.1738 12.042C11.5868 12.1338 11.7073 12.1588 11.8232 12.1689C11.9395 12.1791 12.0566 12.1791 12.1729 12.1689C12.2888 12.1588 12.4093 12.1338 12.8223 12.042L18.2754 10.8311C18.7366 10.7286 19.03 10.6624 19.252 10.5957C19.4618 10.5326 19.5411 10.4872 19.583 10.457C19.7301 10.351 19.8455 10.2066 19.917 10.04C19.9297 10.0103 19.9434 9.96492 19.957 9.88184C19.9579 9.89153 19.9601 9.90122 19.9609 9.91113Z" fill="oklch(0.3523 0 0 / 1)" class="wd-icon-accent"></path>
</svg>