<svg width="24" height="24" viewBox="0 0 24 24" xmlns="http://www.w3.org/2000/svg" class="wd-icon wd-icon-bow-compass" role="presentation">
<path d="M12 1C12.4142 1 12.75 1.33579 12.75 1.75V3.58105C14.3225 3.92443 15.5 5.32448 15.5 7C15.5 7.66784 15.3119 8.29133 14.9873 8.82227L17.9707 17.9053C18.0733 18.2179 18.1442 18.5405 18.1836 18.8672L18.4356 20.9551C18.5005 21.4973 17.773 21.736 17.5039 21.2607L16.4688 19.4307C16.3066 19.144 16.1721 18.8422 16.0693 18.5293L15.0615 15.4609C13.5248 16.0171 11.8594 16.148 10.2441 15.8271C9.79805 15.7385 9.3621 15.6151 8.93848 15.4619L7.93262 18.5293C7.82991 18.842 7.69621 19.1441 7.53418 19.4307L6.49903 21.2607C6.22998 21.7362 5.50235 21.4974 5.56739 20.9551L5.81836 18.8672C5.85772 18.5404 5.92957 18.218 6.03223 17.9053L7.12793 14.5664C6.4284 14.1161 5.78935 13.5692 5.2334 12.9355C4.96028 12.6242 4.99048 12.1501 5.30176 11.877C5.61305 11.6039 6.08715 11.6351 6.36036 11.9463C6.73591 12.3743 7.15778 12.754 7.61426 13.083L9.0127 8.82422C8.6876 8.29298 8.5 7.66844 8.5 7C8.5 5.32448 9.67747 3.92443 11.25 3.58105V1.75C11.25 1.33579 11.5858 1 12 1ZM13.3447 10.2305C12.9305 10.4031 12.4767 10.5 12 10.5C11.5234 10.5 11.0694 10.404 10.6553 10.2314L9.40625 14.0361C9.77272 14.1712 10.1503 14.2796 10.5371 14.3564C11.8981 14.6267 13.3015 14.5111 14.5938 14.0342L13.3447 10.2305ZM12 5.5C11.1716 5.5 10.5 6.17157 10.5 7C10.5 7.82843 11.1716 8.5 12 8.5C12.8284 8.5 13.5 7.82843 13.5 7C13.5 6.17157 12.8284 5.5 12 5.5Z" fill="oklch(0.3523 0 0 / 1)" class="wd-icon-fill"></path>
</svg>