<svg width="24" height="24" viewBox="0 0 24 24" xmlns="http://www.w3.org/2000/svg" class="wd-icon wd-icon-table-filter" role="presentation">
<path d="M20.5 3C21.3284 3 22 3.67157 22 4.5V10.5C22 10.7761 21.7761 11 21.5 11H20.5C20.2239 11 20 10.7761 20 10.5V9H16V10.5C16 10.7761 15.7761 11 15.5 11H14.5C14.2239 11 14 10.7761 14 10.5V9H10V11H10.5C10.7761 11 11 11.2239 11 11.5V12.5C11 12.7761 10.7761 13 10.5 13H10V15H10.5C10.7761 15 11 15.2239 11 15.5V16.5C11 16.7761 10.7761 17 10.5 17H10V19H12.5C12.7761 19 13 19.2239 13 19.5V20.5C13 20.7761 12.7761 21 12.5 21H3.5C2.67157 21 2 20.3284 2 19.5V4.5C2 3.67157 2.67157 3 3.5 3H20.5ZM4 19H8V17H4V19ZM4 15H8V13H4V15ZM4 11H8V9H4V11ZM4 7H8V5H4V7ZM10 7H14V5H10V7ZM16 7H20V5H16V7Z" fill="oklch(0.3523 0 0 / 1)" class="wd-icon-fill"></path>
<path d="M21.4315 12C22.7012 12 23.4002 13.4824 22.5849 14.4609L19.9989 17.5625V19.793L19.9921 19.9395C19.9588 20.2801 19.8099 20.6047 19.5614 20.8535L17.5605 22.8535C16.6166 23.7974 14.9991 23.1307 14.9989 21.793V17.5615L12.414 14.4609C11.5985 13.4823 12.2976 12 13.5673 12H21.4315ZM16.7675 16.5586C16.9173 16.7383 16.9989 16.9653 16.9989 17.1992V20.5869L17.9989 19.5869V17.2002C17.9989 16.9662 18.0806 16.7393 18.2304 16.5596L20.3642 14H14.6347L16.7675 16.5586Z" fill="oklch(0.3523 0 0 / 1)" class="wd-icon-accent"></path>
</svg>