<svg width="24" height="24" viewBox="0 0 24 24" xmlns="http://www.w3.org/2000/svg" class="wd-icon wd-icon-globe" role="presentation">
<path d="M12 2C17.2741 2 21.5913 6.08321 21.9697 11.2607C21.9886 11.3375 22 11.4174 22 11.5C22 11.5483 21.9959 11.5948 21.9902 11.6396C21.9945 11.7593 22 11.8793 22 12C22 17.5228 17.5228 22 12 22C6.47715 22 2 17.5228 2 12C2 11.8793 2.00455 11.7593 2.00879 11.6396C2.00317 11.5948 2 11.5483 2 11.5C2 11.4175 2.01046 11.3374 2.0293 11.2607C2.40772 6.08318 6.72585 2 12 2ZM14.4502 13.4609C13.6573 13.4855 12.8336 13.5 12 13.5C11.1661 13.5 10.342 13.4855 9.54883 13.4609C9.66786 15.2522 9.9997 16.826 10.457 18.002C10.7473 18.7482 11.0687 19.2841 11.374 19.6162C11.6785 19.9473 11.8912 20 12 20C12.1088 20 12.3215 19.9473 12.626 19.6162C12.9313 19.2841 13.2527 18.7482 13.543 18.002C14.0003 16.826 14.3312 15.2522 14.4502 13.4609ZM4.0625 12.9873C4.4164 15.862 6.2936 18.2638 8.86328 19.3604C8.76743 19.1563 8.67749 18.9444 8.59277 18.7266C8.02799 17.2743 7.65513 15.4132 7.53906 13.3691C6.8101 13.3238 6.13157 13.2685 5.52539 13.2012C4.9738 13.1399 4.48199 13.0664 4.0625 12.9873ZM19.9365 12.9873C19.5172 13.0663 19.0258 13.1399 18.4746 13.2012C17.8682 13.2686 17.1893 13.3238 16.46 13.3691C16.3439 15.4131 15.972 17.2743 15.4072 18.7266C15.3225 18.9445 15.2317 19.1562 15.1357 19.3604C17.7058 18.264 19.5825 15.8623 19.9365 12.9873ZM12 4C11.8912 4 11.6785 4.05275 11.374 4.38379C11.0687 4.71589 10.7473 5.25181 10.457 5.99805C9.92291 7.37151 9.55911 9.28752 9.50684 11.459C10.3075 11.4851 11.1464 11.5 12 11.5C12.8533 11.5 13.6918 11.485 14.4922 11.459C14.4399 9.28753 14.0771 7.37151 13.543 5.99805C13.2527 5.25181 12.9313 4.71589 12.626 4.38379C12.3215 4.05275 12.1088 4 12 4ZM8.86328 4.63867C6.31321 5.72667 4.44477 8.10087 4.07031 10.9463C4.44877 11.0368 5.00697 11.1308 5.74609 11.2129C6.27554 11.2717 6.86877 11.3205 7.50879 11.3623C7.56958 9.03209 7.96129 6.89726 8.59277 5.27344C8.6776 5.05532 8.76729 4.843 8.86328 4.63867ZM15.1357 4.63867C15.2318 4.84312 15.3223 5.05518 15.4072 5.27344C16.0387 6.89725 16.4294 9.0321 16.4902 11.3623C17.1306 11.3205 17.7242 11.2717 18.2539 11.2129C18.9924 11.1308 19.5503 11.0368 19.9287 10.9463C19.5542 8.10062 17.6862 5.72649 15.1357 4.63867Z" fill="oklch(0.3523 0 0 / 1)" class="wd-icon-fill"></path>
</svg>