<svg width="24" height="24" viewBox="0 0 24 24" xmlns="http://www.w3.org/2000/svg" class="wd-icon wd-icon-substitute" role="presentation">
<path d="M15 14.5C15 14.2239 15.2239 14 15.5 14H20.5C20.7761 14 21 14.2239 21 14.5V19.5C21 19.7761 20.7761 20 20.5 20H15.5C15.2239 20 15 19.7761 15 19.5V14.5Z" fill="transparent" class="wd-icon-background"></path>
<g>
<path d="M9.5 13.9995C9.77586 13.9997 9.99977 14.2237 10 14.4995V15.4995C10 15.7756 9.776 15.9993 9.5 15.9995H6.41992C6.5818 16.37 6.78607 16.7214 7.0332 17.0435C7.43286 17.5643 7.93148 18.0013 8.5 18.3296C9.06855 18.6578 9.69679 18.8708 10.3477 18.9565C10.8328 19.0204 11.3245 19.0134 11.8057 18.9351C12.078 18.891 12.3514 19.0465 12.4229 19.313L12.6816 20.2788C12.7529 20.5453 12.5951 20.8212 12.3242 20.8735C11.5877 21.0154 10.8316 21.0381 10.0859 20.9399C9.17484 20.8199 8.29587 20.5215 7.5 20.062C6.70404 19.6024 6.00583 18.9904 5.44629 18.2612C5.28482 18.0508 5.13608 17.8315 5 17.605V20.4995C5 20.7756 4.776 20.9993 4.5 20.9995H3.5C3.224 20.9993 3 20.7756 3 20.4995V14.4995C3.00023 14.2237 3.22414 13.9997 3.5 13.9995H9.5Z" fill="oklch(0.3523 0 0 / 1)" class="wd-icon-fill"></path>
<path d="M20.5 12.9995C21.3283 12.9995 21.9998 13.6712 22 14.4995V19.4995C22 20.3279 21.3284 20.9995 20.5 20.9995H15.5C14.6716 20.9995 14 20.3279 14 19.4995V14.4995C14.0002 13.6712 14.6717 12.9995 15.5 12.9995H20.5ZM16 18.9995H20V14.9995H16V18.9995Z" fill="oklch(0.3523 0 0 / 1)" class="wd-icon-fill"></path>
<path d="M8.5 2.99951C9.32832 2.99951 9.99982 3.67124 10 4.49951V9.49951C10 10.3279 9.32843 10.9995 8.5 10.9995H3.5C2.67157 10.9995 2 10.3279 2 9.49951V4.49951C2.00018 3.67124 2.67168 2.99951 3.5 2.99951H8.5Z" fill="oklch(0.3523 0 0 / 1)" class="wd-icon-fill"></path>
<path d="M20.5 3.00049C20.776 3.00065 21 3.22445 21 3.50049V9.50049C20.9996 9.77619 20.7758 10.0003 20.5 10.0005H14.5C14.2242 10.0003 14.0004 9.77619 14 9.50049V8.50049C14 8.22445 14.224 8.00065 14.5 8.00049H17.5801C17.4182 7.63008 17.2139 7.27859 16.9668 6.95654C16.5671 6.43571 16.0685 5.99869 15.5 5.67041C14.9314 5.34214 14.3033 5.12918 13.6523 5.04346C13.1672 4.97964 12.6756 4.9866 12.1943 5.06494C11.9221 5.10894 11.6487 4.95329 11.5771 4.68701L11.3184 3.72119C11.2471 3.45467 11.405 3.17887 11.6758 3.12646C12.4123 2.98457 13.1684 2.96192 13.9141 3.06006C14.8252 3.18008 15.7041 3.4785 16.5 3.93799C17.296 4.39758 17.9942 5.00959 18.5537 5.73877C18.7151 5.94916 18.864 6.16853 19 6.39502V3.50049C19 3.22445 19.224 3.00065 19.5 3.00049H20.5Z" fill="oklch(0.3523 0 0 / 1)" class="wd-icon-fill"></path>
</g>
<path d="M4 5H8V9H4V5Z" fill="oklch(0.3523 0 0 / 1)" class="wd-icon-accent"></path>
</svg>