<svg width="24" height="24" viewBox="0 0 24 24" xmlns="http://www.w3.org/2000/svg" class="wd-icon wd-icon-screen-reader" role="presentation">
<g>
<path d="M15.1387 10.1123C15.3339 9.91712 15.6517 9.9154 15.8301 10.126C16.2298 10.5985 16.5554 11.1315 16.793 11.7051C17.0943 12.4328 17.25 13.2134 17.25 14.001C17.2499 14.7886 17.0944 15.5692 16.793 16.2969C16.5554 16.8704 16.2297 17.4026 15.8301 17.875C15.6517 18.0854 15.3338 18.0837 15.1387 17.8887L14.7852 17.5361C14.5899 17.3409 14.5924 17.0253 14.7646 16.8096C15.0282 16.4799 15.245 16.1141 15.4072 15.7227C15.6332 15.177 15.7499 14.5916 15.75 14.001C15.75 13.4104 15.6331 12.8249 15.4072 12.2793C15.245 11.8878 15.0282 11.5212 14.7646 11.1914C14.5923 10.9758 14.59 10.6601 14.7852 10.4648L15.1387 10.1123Z" fill="oklch(0.3523 0 0 / 1)" class="wd-icon-fill"></path>
<path d="M10.1465 10.3545C10.4615 10.0395 11 10.2626 11 10.708V17.293C10.9996 17.738 10.4614 17.9611 10.1465 17.6465L8.49902 16H7C6.44792 16 6.00026 15.552 6 15V13C6.00026 12.448 6.44792 12 7 12H8.50098L10.1465 10.3545Z" fill="oklch(0.3523 0 0 / 1)" class="wd-icon-fill"></path>
<path d="M12.625 11.6191C12.7631 11.3801 13.072 11.2957 13.2871 11.4688C13.5988 11.7195 13.863 12.0271 14.0645 12.376C14.3494 12.8699 14.5 13.4308 14.5 14.001C14.4998 14.5711 14.3495 15.1322 14.0645 15.626C13.863 15.9746 13.5986 16.2815 13.2871 16.5322C13.072 16.7051 12.7631 16.6208 12.625 16.3818L12.375 15.9492C12.2369 15.7101 12.3262 15.4079 12.5166 15.208C12.6119 15.108 12.6959 14.9965 12.7656 14.876C12.919 14.6102 12.9998 14.3078 13 14.001C13 13.6941 12.9189 13.3918 12.7656 13.126C12.6959 13.0052 12.612 12.8931 12.5166 12.793C12.3261 12.5931 12.2371 12.2909 12.375 12.0518L12.625 11.6191Z" fill="oklch(0.3523 0 0 / 1)" class="wd-icon-fill"></path>
<path d="M20.5 4C21.3284 4 22 4.67157 22 5.5V19.5C22 20.3284 21.3284 21 20.5 21H3.5C2.72334 21 2.08461 20.4097 2.00781 19.6533L2 19.5V5.5C2 4.67157 2.67157 4 3.5 4H20.5ZM4 19H20V9H4V19ZM4.5 6C4.22386 6 4 6.22386 4 6.5C4 6.77614 4.22386 7 4.5 7H5.5C5.77614 7 6 6.77614 6 6.5C6 6.22386 5.77614 6 5.5 6H4.5ZM7.5 6C7.22386 6 7 6.22386 7 6.5C7 6.77614 7.22386 7 7.5 7H8.5C8.77614 7 9 6.77614 9 6.5C9 6.22386 8.77614 6 8.5 6H7.5ZM10.5 6C10.2239 6 10 6.22386 10 6.5C10 6.77614 10.2239 7 10.5 7H11.5C11.7761 7 12 6.77614 12 6.5C12 6.22386 11.7761 6 11.5 6H10.5Z" fill="oklch(0.3523 0 0 / 1)" class="wd-icon-fill"></path>
</g>
</svg>