<svg width="24" height="24" viewBox="0 0 24 24" xmlns="http://www.w3.org/2000/svg" class="wd-icon wd-icon-join-right" role="presentation">
<g>
<path d="M16.5 5C15.4832 5 14.5218 5.23484 13.665 5.65137C15.1088 7.17268 16 9.23277 16 11.5C16 13.7671 15.1079 15.8259 13.665 17.3467C14.5219 17.7636 15.4829 18 16.5 18C20.0897 17.9998 23 15.0897 23 11.5C23 7.91026 20.0897 5.00017 16.5 5Z" fill="oklch(0.3523 0 0 / 1)" class="wd-icon-fill"></path>
<path d="M7.5 5C3.91015 5 1 7.91015 1 11.5C1 15.0899 3.91015 18 7.5 18C8.5174 18 9.47887 17.7639 10.3359 17.3467C9.86597 16.8514 9.45454 16.2993 9.11328 15.7012C8.61258 15.894 8.06876 16 7.5 16C5.01472 16 3 13.9853 3 11.5C3 9.01472 5.01472 7 7.5 7C8.06859 7.00004 8.61259 7.10523 9.11328 7.29785C9.45461 6.69951 9.86568 6.14682 10.3359 5.65137C9.47896 5.23461 8.51705 5.00005 7.5 5Z" fill="oklch(0.3523 0 0 / 1)" class="wd-icon-fill"></path>
<path d="M12 6.81152C11.4856 7.30542 11.0541 7.88405 10.7236 8.52344C10.263 9.41561 10 10.4267 10 11.5C10 12.5704 10.2624 13.5784 10.7207 14.4688C11.0517 15.1107 11.4838 15.6918 12 16.1875C13.2318 15.0047 14 13.3426 14 11.5C14 9.65717 13.2321 7.99439 12 6.81152Z" fill="oklch(0.3523 0 0 / 1)" class="wd-icon-fill"></path>
</g>
</svg>