<svg width="24" height="24" viewBox="0 0 24 24" xmlns="http://www.w3.org/2000/svg" class="wd-icon wd-icon-flag" role="presentation">
<path d="M5.5 1C5.77614 1 6 1.22386 6 1.5V2.2373C6.64207 2.08228 7.3119 2 8 2C10.1765 2 12.164 2.81979 13.667 4.16504C14.8175 5.19464 16.3346 5.81934 18 5.81934C18.4027 5.81934 18.7965 5.78242 19.1787 5.71191L19.3438 5.69043C20.1717 5.63065 21 6.25325 21 7.20508V16.167C21 16.8296 20.554 17.4589 19.8477 17.6162C19.253 17.7486 18.6347 17.8193 18 17.8193C15.8239 17.8193 13.8363 17.0006 12.333 15.6553C11.1823 14.6253 9.66523 14 8 14C7.30759 14 6.64185 14.1075 6.01855 14.3066C6.01255 14.3086 6.00602 14.3087 6 14.3105V22.5C6 22.7761 5.77614 23 5.5 23H4.5C4.22386 23 4 22.7761 4 22.5V1.5C4 1.22386 4.22386 1 4.5 1H5.5ZM8 4C7.30077 4 6.62903 4.11031 6 4.31348V12.2363C6.64216 12.0814 7.31214 12 8 12C10.1765 12 12.164 12.8198 13.667 14.165C14.8175 15.1946 16.3346 15.8193 18 15.8193C18.3403 15.8193 18.6739 15.7901 19 15.7393V7.75781C18.6719 7.79671 18.3384 7.81934 18 7.81934C15.8239 7.81934 13.8363 7.00061 12.333 5.65527C11.1823 4.62535 9.66523 4 8 4Z" fill="oklch(0.3523 0 0 / 1)" class="wd-icon-fill"></path>
</svg>