<svg width="24" height="24" viewBox="0 0 24 24" xmlns="http://www.w3.org/2000/svg" class="wd-icon wd-icon-qr-code" role="presentation">
<g>
<path d="M6.91993 16C7.29796 16 7.48745 15.9997 7.63184 16.0732C7.75871 16.1379 7.86207 16.2413 7.92676 16.3682C8.00033 16.5126 8 16.702 8 17.0801V17.9199C8 18.298 8.00033 18.4874 7.92676 18.6318C7.86207 18.7587 7.75871 18.8621 7.63184 18.9268C7.48745 19.0003 7.29796 19 6.91993 19H6.08008C5.70205 19 5.51256 19.0003 5.36817 18.9268C5.2413 18.8621 5.13794 18.7587 5.07325 18.6318C4.99968 18.4874 5 18.298 5 17.9199V17.0801C5 16.702 4.99968 16.5126 5.07325 16.3682C5.13794 16.2413 5.2413 16.1379 5.36817 16.0732C5.51256 15.9997 5.70205 16 6.08008 16H6.91993Z" fill="oklch(0.3523 0 0 / 1)" class="wd-icon-fill"></path>
<path d="M6.79981 13C7.34336 13 7.81165 12.9989 8.19532 13.0303C8.59057 13.0626 8.98401 13.1344 9.36231 13.3272C9.92653 13.6147 10.3853 14.0735 10.6729 14.6377C10.8656 15.016 10.9374 15.4094 10.9697 15.8047C11.0011 16.1884 11 16.6567 11 17.2002V17.7998C11 18.3434 11.0011 18.8116 10.9697 19.1953C10.9374 19.5906 10.8656 19.984 10.6729 20.3623C10.3853 20.9265 9.92653 21.3853 9.36231 21.6729C8.98401 21.8656 8.59057 21.9374 8.19532 21.9697C7.81165 22.0011 7.34336 22 6.79981 22H6.2002C5.65665 22 5.18836 22.0011 4.80469 21.9697C4.40944 21.9374 4.016 21.8656 3.6377 21.6729C3.07348 21.3853 2.61473 20.9265 2.32715 20.3623C2.1344 19.984 2.06259 19.5906 2.03028 19.1953C1.99893 18.8116 2 18.3434 2 17.7998V17.2002C2 16.6567 1.99893 16.1884 2.03028 15.8047C2.06259 15.4094 2.1344 15.016 2.32715 14.6377C2.61473 14.0735 3.07348 13.6147 3.6377 13.3272C4.016 13.1344 4.40944 13.0626 4.80469 13.0303C5.18836 12.9989 5.65665 13 6.2002 13H6.79981ZM6.2002 15C5.62365 15 5.25111 15.0013 4.96778 15.0244C4.69619 15.0466 4.59534 15.0842 4.5459 15.1094C4.35793 15.2052 4.20522 15.3579 4.10938 15.5459C4.08419 15.5953 4.04662 15.6962 4.02442 15.9678C4.00127 16.2511 4 16.6236 4 17.2002V17.7998C4 18.3764 4.00127 18.7489 4.02442 19.0322C4.04661 19.3038 4.08419 19.4047 4.10938 19.4541C4.20522 19.6421 4.35794 19.7948 4.5459 19.8906C4.59534 19.9158 4.69619 19.9534 4.96778 19.9756C5.25111 19.9987 5.62365 20 6.2002 20H6.79981C7.37636 20 7.74889 19.9987 8.03223 19.9756C8.30382 19.9534 8.40467 19.9158 8.45411 19.8906C8.64208 19.7948 8.79479 19.6421 8.89063 19.4541C8.91582 19.4047 8.95339 19.3038 8.97559 19.0322C8.99874 18.7489 9 18.3764 9 17.7998V17.2002C9 16.6236 8.99874 16.2511 8.97559 15.9678C8.95339 15.6962 8.91582 15.5953 8.89063 15.5459C8.79479 15.3579 8.64207 15.2052 8.45411 15.1094C8.40467 15.0842 8.30381 15.0466 8.03223 15.0244C7.74889 15.0013 7.37636 15 6.79981 15H6.2002Z" fill="oklch(0.3523 0 0 / 1)" class="wd-icon-fill"></path>
<path d="M6.91993 5C7.29796 5 7.48745 4.99968 7.63184 5.07325C7.75871 5.13794 7.86207 5.2413 7.92676 5.36817C8.00033 5.51256 8 5.70205 8 6.08008V6.91993C8 7.29796 8.00033 7.48745 7.92676 7.63184C7.86207 7.75871 7.75871 7.86207 7.63184 7.92676C7.48745 8.00033 7.29796 8 6.91993 8H6.08008C5.70205 8 5.51256 8.00033 5.36817 7.92676C5.2413 7.86207 5.13794 7.75871 5.07325 7.63184C4.99968 7.48745 5 7.29796 5 6.91993V6.08008C5 5.70205 4.99968 5.51256 5.07325 5.36817C5.13794 5.2413 5.2413 5.13794 5.36817 5.07325C5.51256 4.99968 5.70205 5 6.08008 5H6.91993Z" fill="oklch(0.3523 0 0 / 1)" class="wd-icon-fill"></path>
<path d="M6.79981 2C7.34336 2 7.81165 1.99893 8.19532 2.03028C8.59057 2.06259 8.98401 2.1344 9.36231 2.32715C9.92653 2.61473 10.3853 3.07348 10.6729 3.6377C10.8656 4.016 10.9374 4.40944 10.9697 4.80469C11.0011 5.18836 11 5.65665 11 6.2002V6.79981C11 7.34336 11.0011 7.81165 10.9697 8.19532C10.9374 8.59057 10.8656 8.98401 10.6729 9.36231C10.3853 9.92653 9.92653 10.3853 9.36231 10.6729C8.98401 10.8656 8.59057 10.9374 8.19532 10.9697C7.81165 11.0011 7.34336 11 6.79981 11H6.2002C5.65665 11 5.18836 11.0011 4.80469 10.9697C4.40944 10.9374 4.016 10.8656 3.6377 10.6729C3.07348 10.3853 2.61473 9.92653 2.32715 9.36231C2.1344 8.98401 2.06259 8.59057 2.03028 8.19532C1.99893 7.81165 2 7.34336 2 6.79981V6.2002C2 5.65665 1.99893 5.18836 2.03028 4.80469C2.06259 4.40944 2.1344 4.016 2.32715 3.6377C2.61473 3.07348 3.07348 2.61473 3.6377 2.32715C4.016 2.1344 4.40944 2.06259 4.80469 2.03028C5.18836 1.99893 5.65665 2 6.2002 2H6.79981ZM6.2002 4C5.62365 4 5.25111 4.00127 4.96778 4.02442C4.69619 4.04662 4.59534 4.08419 4.5459 4.10938C4.35793 4.20522 4.20522 4.35793 4.10938 4.5459C4.08419 4.59534 4.04662 4.69619 4.02442 4.96778C4.00127 5.25111 4 5.62365 4 6.2002V6.79981C4 7.37636 4.00127 7.74889 4.02442 8.03223C4.04661 8.30381 4.08419 8.40467 4.10938 8.45411C4.20522 8.64207 4.35794 8.79479 4.5459 8.89063C4.59534 8.91582 4.69619 8.95339 4.96778 8.97559C5.25111 8.99874 5.62365 9 6.2002 9H6.79981C7.37636 9 7.74889 8.99874 8.03223 8.97559C8.30381 8.95339 8.40467 8.91582 8.45411 8.89063C8.64208 8.79479 8.79479 8.64208 8.89063 8.45411C8.91582 8.40467 8.95339 8.30381 8.97559 8.03223C8.99874 7.74889 9 7.37636 9 6.79981V6.2002C9 5.62365 8.99874 5.25111 8.97559 4.96778C8.95339 4.69619 8.91582 4.59534 8.89063 4.5459C8.79479 4.35794 8.64207 4.20522 8.45411 4.10938C8.40467 4.08419 8.30381 4.04661 8.03223 4.02442C7.74889 4.00127 7.37636 4 6.79981 4H6.2002Z" fill="oklch(0.3523 0 0 / 1)" class="wd-icon-fill"></path>
<path d="M17.9199 5C18.298 5 18.4874 4.99968 18.6318 5.07325C18.7587 5.13794 18.8621 5.2413 18.9268 5.36817C19.0003 5.51256 19 5.70205 19 6.08008V6.91993C19 7.29796 19.0003 7.48745 18.9268 7.63184C18.8621 7.75871 18.7587 7.86207 18.6318 7.92676C18.4874 8.00033 18.298 8 17.9199 8H17.0801C16.702 8 16.5126 8.00033 16.3682 7.92676C16.2413 7.86207 16.1379 7.75871 16.0732 7.63184C15.9997 7.48745 16 7.29796 16 6.91993V6.08008C16 5.70205 15.9997 5.51256 16.0732 5.36817C16.1379 5.2413 16.2413 5.13794 16.3682 5.07325C16.5126 4.99968 16.702 5 17.0801 5H17.9199Z" fill="oklch(0.3523 0 0 / 1)" class="wd-icon-fill"></path>
<path d="M17.7998 2C18.3434 2 18.8116 1.99893 19.1953 2.03028C19.5906 2.06259 19.984 2.1344 20.3623 2.32715C20.9265 2.61473 21.3853 3.07348 21.6729 3.6377C21.8656 4.016 21.9374 4.40944 21.9697 4.80469C22.0011 5.18836 22 5.65665 22 6.2002V6.79981C22 7.34336 22.0011 7.81165 21.9697 8.19532C21.9374 8.59057 21.8656 8.98401 21.6729 9.36231C21.3853 9.92653 20.9265 10.3853 20.3623 10.6729C19.984 10.8656 19.5906 10.9374 19.1953 10.9697C18.8116 11.0011 18.3434 11 17.7998 11H17.2002C16.6567 11 16.1884 11.0011 15.8047 10.9697C15.4094 10.9374 15.016 10.8656 14.6377 10.6729C14.0735 10.3853 13.6147 9.92653 13.3272 9.36231C13.1344 8.98401 13.0626 8.59057 13.0303 8.19532C12.9989 7.81165 13 7.34336 13 6.79981V6.2002C13 5.65665 12.9989 5.18836 13.0303 4.80469C13.0626 4.40944 13.1344 4.016 13.3272 3.6377C13.6147 3.07348 14.0735 2.61473 14.6377 2.32715C15.016 2.1344 15.4094 2.06259 15.8047 2.03028C16.1884 1.99893 16.6567 2 17.2002 2H17.7998ZM17.2002 4C16.6236 4 16.2511 4.00127 15.9678 4.02442C15.6962 4.04662 15.5953 4.08419 15.5459 4.10938C15.3579 4.20522 15.2052 4.35793 15.1094 4.5459C15.0842 4.59534 15.0466 4.69619 15.0244 4.96778C15.0013 5.25111 15 5.62365 15 6.2002V6.79981C15 7.37636 15.0013 7.74889 15.0244 8.03223C15.0466 8.30381 15.0842 8.40467 15.1094 8.45411C15.2052 8.64207 15.3579 8.79479 15.5459 8.89063C15.5953 8.91582 15.6962 8.95339 15.9678 8.97559C16.2511 8.99874 16.6236 9 17.2002 9H17.7998C18.3764 9 18.7489 8.99874 19.0322 8.97559C19.3038 8.95339 19.4047 8.91582 19.4541 8.89063C19.6421 8.79479 19.7948 8.64208 19.8906 8.45411C19.9158 8.40467 19.9534 8.30382 19.9756 8.03223C19.9987 7.74889 20 7.37636 20 6.79981V6.2002C20 5.62365 19.9987 5.25111 19.9756 4.96778C19.9534 4.69619 19.9158 4.59534 19.8906 4.5459C19.7948 4.35794 19.6421 4.20522 19.4541 4.10938C19.4047 4.08419 19.3038 4.04661 19.0322 4.02442C18.7489 4.00127 18.3764 4 17.7998 4H17.2002Z" fill="oklch(0.3523 0 0 / 1)" class="wd-icon-fill"></path>
</g>
<g>
<path d="M14.9199 19C15.298 19 15.4874 18.9997 15.6318 19.0732C15.7587 19.1379 15.8621 19.2413 15.9268 19.3682C16.0003 19.5126 16 19.702 16 20.0801V20.9199C16 21.298 16.0003 21.4874 15.9268 21.6318C15.8621 21.7587 15.7587 21.8621 15.6318 21.9268C15.4874 22.0003 15.298 22 14.9199 22H14.0801C13.702 22 13.5126 22.0003 13.3682 21.9268C13.2413 21.8621 13.1379 21.7587 13.0732 21.6318C12.9997 21.4874 13 21.298 13 20.9199V20.0801C13 19.702 12.9997 19.5126 13.0732 19.3682C13.1379 19.2413 13.2413 19.1379 13.3682 19.0732C13.5126 18.9997 13.702 19 14.0801 19H14.9199Z" fill="oklch(0.3523 0 0 / 1)" class="wd-icon-accent"></path>
<path d="M20.9199 19C21.298 19 21.4874 18.9997 21.6318 19.0732C21.7587 19.1379 21.8621 19.2413 21.9268 19.3682C22.0003 19.5126 22 19.702 22 20.0801V20.9199C22 21.298 22.0003 21.4874 21.9268 21.6318C21.8621 21.7587 21.7587 21.8621 21.6318 21.9268C21.4874 22.0003 21.298 22 20.9199 22H20.0801C19.702 22 19.5126 22.0003 19.3682 21.9268C19.2413 21.8621 19.1379 21.7587 19.0732 21.6318C18.9997 21.4874 19 21.298 19 20.9199V20.0801C19 19.702 18.9997 19.5126 19.0732 19.3682C19.1379 19.2413 19.2413 19.1379 19.3682 19.0732C19.5126 18.9997 19.702 19 20.0801 19H20.9199Z" fill="oklch(0.3523 0 0 / 1)" class="wd-icon-accent"></path>
<path d="M17.9199 16C18.298 16 18.4874 15.9997 18.6318 16.0732C18.7587 16.1379 18.8621 16.2413 18.9268 16.3682C19.0003 16.5126 19 16.702 19 17.0801V17.9199C19 18.298 19.0003 18.4874 18.9268 18.6318C18.8621 18.7587 18.7587 18.8621 18.6318 18.9268C18.4874 19.0003 18.298 19 17.9199 19H17.0801C16.702 19 16.5126 19.0003 16.3682 18.9268C16.2413 18.8621 16.1379 18.7587 16.0732 18.6318C15.9997 18.4874 16 18.298 16 17.9199V17.0801C16 16.702 15.9997 16.5126 16.0732 16.3682C16.1379 16.2413 16.2413 16.1379 16.3682 16.0732C16.5126 15.9997 16.702 16 17.0801 16H17.9199Z" fill="oklch(0.3523 0 0 / 1)" class="wd-icon-accent"></path>
<path d="M14.9199 13C15.298 13 15.4874 12.9997 15.6318 13.0732C15.7587 13.1379 15.8621 13.2413 15.9268 13.3682C16.0003 13.5126 16 13.702 16 14.0801V14.9199C16 15.298 16.0003 15.4874 15.9268 15.6318C15.8621 15.7587 15.7587 15.8621 15.6318 15.9268C15.4874 16.0003 15.298 16 14.9199 16H14.0801C13.702 16 13.5126 16.0003 13.3682 15.9268C13.2413 15.8621 13.1379 15.7587 13.0732 15.6318C12.9997 15.4874 13 15.298 13 14.9199V14.0801C13 13.702 12.9997 13.5126 13.0732 13.3682C13.1379 13.2413 13.2413 13.1379 13.3682 13.0732C13.5126 12.9997 13.702 13 14.0801 13H14.9199Z" fill="oklch(0.3523 0 0 / 1)" class="wd-icon-accent"></path>
<path d="M20.9199 13C21.298 13 21.4874 12.9997 21.6318 13.0732C21.7587 13.1379 21.8621 13.2413 21.9268 13.3682C22.0003 13.5126 22 13.702 22 14.0801V14.9199C22 15.298 22.0003 15.4874 21.9268 15.6318C21.8621 15.7587 21.7587 15.8621 21.6318 15.9268C21.4874 16.0003 21.298 16 20.9199 16H20.0801C19.702 16 19.5126 16.0003 19.3682 15.9268C19.2413 15.8621 19.1379 15.7587 19.0732 15.6318C18.9997 15.4874 19 15.298 19 14.9199V14.0801C19 13.702 18.9997 13.5126 19.0732 13.3682C19.1379 13.2413 19.2413 13.1379 19.3682 13.0732C19.5126 12.9997 19.702 13 20.0801 13H20.9199Z" fill="oklch(0.3523 0 0 / 1)" class="wd-icon-accent"></path>
</g>
</svg>