<svg width="24" height="24" viewBox="0 0 24 24" xmlns="http://www.w3.org/2000/svg" class="wd-icon wd-icon-tools" role="presentation">
<g>
<path d="M2.11885 3.11816C3.67428 1.56296 6.22646 1.67077 7.64522 3.35156L10.5261 6.76367C10.951 7.26757 11.0848 7.92462 10.9392 8.52539L16.4148 14H17.3815L17.5231 14.0049C18.2243 14.0546 18.853 14.4709 19.1706 15.1055L20.8132 18.3916C21.0354 18.8361 20.9745 19.3763 20.6491 19.7598L20.5798 19.835L18.8327 21.5811C18.4543 21.9579 17.8748 22.0552 17.3923 21.8145L14.1052 20.1709C13.4278 19.8321 12.9998 19.1392 12.9997 18.3818V17.4131L7.52413 11.9385C6.92357 12.0836 6.26695 11.9503 5.76338 11.5254L2.35225 8.64551C0.671346 7.2267 0.563427 4.67359 2.11885 3.11816ZM9.1462 10.7314L14.9997 16.585V18.3818L17.8015 19.7832L18.7819 18.8027L17.3815 16H15.5866L9.73213 10.1455L9.1462 10.7314ZM6.11788 4.6416C5.45448 3.85551 4.26033 3.80503 3.53291 4.53223C2.80565 5.25949 2.85558 6.45365 3.64131 7.11719L7.05342 9.99609L8.99678 8.05371L6.11788 4.6416Z" fill="oklch(0.3523 0 0 / 1)" class="wd-icon-fill"></path>
<path d="M6.10323 13.6465C6.29849 13.4513 6.61501 13.4512 6.81026 13.6465L7.51729 14.3535C7.71208 14.5488 7.71235 14.8654 7.51729 15.0605L4.40108 18.1768C4.01062 18.5673 4.01067 19.2013 4.40108 19.5918C4.79154 19.9814 5.42477 19.9811 5.81514 19.5908L8.94014 16.4668C9.13541 16.2716 9.45193 16.2716 9.64717 16.4668L10.3542 17.1738C10.549 17.3691 10.5493 17.6857 10.3542 17.8809L7.2292 21.0059C6.05797 22.1767 4.15863 22.1766 2.98702 21.0059C1.81565 19.8343 1.81577 17.9342 2.98702 16.7627L6.10323 13.6465Z" fill="oklch(0.3523 0 0 / 1)" class="wd-icon-fill"></path>
<path d="M17.7585 1.00488C18.3602 1.0332 18.9374 1.15971 19.4733 1.36621C20.3668 1.71067 20.4845 2.80659 19.8962 3.39551L17.7292 5.56152C17.79 5.71722 17.8835 5.8631 18.0095 5.98926C18.1352 6.11502 18.281 6.20773 18.4362 6.26855L20.6032 4.10352L20.7194 4.00098C21.2859 3.56345 22.1798 3.66995 22.5593 4.36621L22.6325 4.52441C22.8686 5.13736 22.9986 5.80422 22.9987 6.49902C22.9987 6.66023 22.9899 6.81986 22.9763 6.97754C22.976 6.98464 22.9779 6.99186 22.9772 6.99902C22.9758 7.0153 22.973 7.03161 22.9714 7.04785C22.9706 7.05633 22.9693 7.06477 22.9685 7.07324C22.9503 7.24875 22.9237 7.42159 22.8894 7.5918C22.8879 7.59925 22.887 7.60682 22.8855 7.61426C22.8687 7.69537 22.85 7.77571 22.8298 7.85547C22.8265 7.86857 22.8225 7.88147 22.819 7.89453C22.7996 7.96873 22.7789 8.04229 22.7565 8.11523C22.7515 8.13158 22.7461 8.14778 22.7409 8.16406C22.7257 8.21213 22.7106 8.26013 22.694 8.30762C22.6789 8.35126 22.6624 8.39437 22.6462 8.4375C22.6269 8.48861 22.6074 8.53947 22.5866 8.58984C22.5758 8.61604 22.5646 8.64198 22.5534 8.66797C22.5276 8.72805 22.5012 8.78773 22.4733 8.84668C22.4645 8.86538 22.455 8.88376 22.446 8.90234C22.4179 8.96016 22.3892 9.01756 22.3591 9.07422C22.3484 9.09429 22.3387 9.11485 22.3278 9.13477C22.2961 9.19268 22.2619 9.24904 22.2282 9.30566C22.2164 9.32549 22.2051 9.34557 22.1931 9.36523C21.8758 9.88347 21.4758 10.345 21.0105 10.7314C20.9923 10.7466 20.9732 10.7605 20.9548 10.7754C20.8346 10.8726 20.711 10.9657 20.5827 11.0527C20.5685 11.0624 20.554 11.0716 20.5397 11.0811C20.4904 11.1139 20.4408 11.1465 20.3903 11.1777C20.3566 11.1986 20.322 11.2181 20.2878 11.2383C20.2418 11.2654 20.1959 11.2926 20.1491 11.3184C20.1253 11.3315 20.1009 11.3437 20.0769 11.3564C20.028 11.3824 19.9791 11.4081 19.9294 11.4326C19.8947 11.4497 19.86 11.467 19.8249 11.4834C19.7852 11.502 19.745 11.5195 19.7048 11.5371C19.6621 11.5558 19.6192 11.5741 19.5759 11.5918C19.5425 11.6054 19.509 11.6188 19.4753 11.6318C19.4249 11.6513 19.3741 11.6695 19.323 11.6875C19.2886 11.6996 19.2541 11.7112 19.2194 11.7227C19.1799 11.7357 19.1403 11.7486 19.1003 11.7607C19.0457 11.7773 18.9906 11.7927 18.9353 11.8076C18.905 11.8158 18.8749 11.8244 18.8444 11.832C18.792 11.8452 18.7393 11.8575 18.6862 11.8691C18.6499 11.8771 18.6135 11.8853 18.5769 11.8926C18.526 11.9027 18.4749 11.9112 18.4235 11.9199C18.3875 11.926 18.3514 11.9321 18.3151 11.9375C18.263 11.9453 18.2105 11.9517 18.1579 11.958C18.1202 11.9625 18.0826 11.9679 18.0446 11.9717C17.976 11.9784 17.907 11.9831 17.8376 11.9873C17.8177 11.9885 17.7979 11.9912 17.778 11.9922C17.6856 11.9968 17.5923 11.999 17.4987 11.999C17.2654 11.999 17.0351 11.9835 16.8093 11.9551L15.4733 10.6143C15.2906 10.4179 15.293 10.1034 15.5358 9.98535C15.8781 9.81919 16.265 9.7933 16.6091 9.88379C16.893 9.95858 17.1912 9.99894 17.4987 9.99902C18.699 9.99902 19.7575 9.39432 20.3884 8.47363C20.4071 8.4463 20.4251 8.41851 20.4431 8.39062C20.4795 8.33406 20.5144 8.27651 20.5476 8.21777C20.5654 8.18609 20.5814 8.15338 20.5983 8.12109C20.7718 7.79054 20.8946 7.43011 20.9548 7.04785C20.981 6.88095 20.996 6.71 20.9978 6.53613L19.5544 7.98047L19.5524 7.98145C19.3084 8.22464 18.9486 8.37946 18.5524 8.33789C17.8391 8.26286 17.1425 7.95122 16.5954 7.4043L16.5944 7.40332C16.048 6.85633 15.7358 6.15965 15.6608 5.44629V5.44434C15.6204 5.05069 15.7735 4.691 16.0173 4.44629L17.4626 2.99902C16.5692 3.00828 15.7559 3.35268 15.1423 3.91211C14.4393 4.55334 14 5.47549 13.9997 6.49902L14.0075 6.72461C14.0221 6.94887 14.0579 7.16856 14.113 7.37988C14.2 7.71344 14.1781 8.07901 14.029 8.41016C14.0232 8.42306 14.0176 8.43643 14.0114 8.44922C13.8908 8.69768 13.5642 8.69622 13.3689 8.50098L12.612 7.74414L12.0417 7.17188C12.0288 7.06743 12.0184 6.96164 12.0114 6.85547L11.9997 6.49902C11.9997 6.27891 12.0136 6.06199 12.0388 5.84863V5.84473C12.0496 5.75319 12.0625 5.66236 12.0778 5.57227C12.0802 5.55822 12.0832 5.54428 12.0856 5.53027C12.1009 5.44458 12.1182 5.35966 12.1374 5.27539C12.1411 5.25937 12.1453 5.24351 12.1491 5.22754C12.3588 4.34266 12.7814 3.54091 13.361 2.87891C13.3677 2.87126 13.3738 2.86308 13.3806 2.85547C14.3882 1.71748 15.8595 0.999275 17.4987 0.999023L17.7585 1.00488Z" fill="oklch(0.3523 0 0 / 1)" class="wd-icon-fill"></path>
</g>
</svg>