<svg width="24" height="24" viewBox="0 0 24 24" xmlns="http://www.w3.org/2000/svg" class="wd-icon wd-icon-sort-a-z" role="presentation">
<g>
<path d="M18.0591 13C18.4395 13.0002 18.7872 13.2164 18.9556 13.5576C19.1239 13.8989 19.0835 14.3064 18.852 14.6084L14.7192 20H18.5005C19.0526 20.0002 19.5005 20.4478 19.5005 21C19.5005 21.5522 19.0526 21.9998 18.5005 22H12.6919C12.3114 21.9999 11.9638 21.7836 11.7954 21.4424C11.627 21.101 11.6673 20.6937 11.8989 20.3916L16.0317 15H12.5005C11.9482 15 11.5005 14.5523 11.5005 14C11.5005 13.4477 11.9482 13 12.5005 13H18.0591Z" fill="oklch(0.3523 0 0 / 1)" class="wd-icon-fill"></path>
<path d="M5.9995 7.00098C6.55178 7.00098 6.9995 7.44869 6.9995 8.00098V13.5859L8.29247 12.293C8.68285 11.9026 9.31598 11.9029 9.70653 12.293C10.0969 12.6835 10.097 13.3166 9.70653 13.707L6.70653 16.707C6.31603 17.0971 5.68288 17.0973 5.29247 16.707L2.29247 13.707C1.90254 13.3166 1.90248 12.6834 2.29247 12.293C2.68284 11.9027 3.31599 11.9029 3.70653 12.293L4.9995 13.5859V8.00098C4.9995 7.44889 5.44749 7.0013 5.9995 7.00098Z" fill="oklch(0.3523 0 0 / 1)" class="wd-icon-fill"></path>
<path d="M15.5005 1.75C16.0951 1.75013 16.6292 2.10185 16.8677 2.63867L16.9116 2.74805L19.4438 9.91699C19.6275 10.4376 19.354 11.0094 18.8335 11.1934C18.3128 11.3772 17.7411 11.1037 17.5571 10.583L16.9985 9H14.0024L13.4438 10.583C13.26 11.1036 12.6881 11.377 12.1675 11.1934C11.6468 11.0095 11.3733 10.4377 11.5571 9.91699L14.0893 2.74805L14.1333 2.63867C14.3718 2.10182 14.9057 1.75 15.5005 1.75ZM14.7085 7H16.2925L15.5005 4.75781L14.7085 7Z" fill="oklch(0.3523 0 0 / 1)" class="wd-icon-fill"></path>
</g>
</svg>