<svg width="24" height="24" viewBox="0 0 24 24" xmlns="http://www.w3.org/2000/svg" class="wd-icon wd-icon-lock-keyhole-open" role="presentation">
<g>
<path d="M5 19.4993C5 19.7755 5.22386 19.9993 5.5 19.9993H18.5C18.7761 19.9993 19 19.7755 19 19.4993L19 10.5C19 10.2239 18.7762 10 18.5 10H5.50001C5.22387 10 5.00001 10.2239 5.00001 10.5L5 19.4993Z" fill="transparent" class="wd-icon-background"></path>
<path d="M19 19.4993C19 19.7755 18.7761 19.9993 18.5 19.9993H5.5C5.22386 19.9993 5 19.7755 5 19.4993L5.00001 10.5C5.00001 10.2239 5.22387 10 5.50001 10H18.5C18.7762 10 19 10.2239 19 10.5L19 19.4993Z" fill="transparent" class="wd-icon-background"></path>
</g>
<path d="M11.9459 1C15.2892 1.00014 17.9995 3.7104 17.9996 7.05371V9H18.4996C19.328 9 19.9996 9.67157 19.9996 10.5V19.499C19.9996 20.3274 19.328 20.999 18.4996 20.999H5.4996C4.67118 20.999 3.9996 20.3275 3.9996 19.499V10.5C3.9996 9.67158 4.67118 9.00001 5.4996 9H15.9996V7.05371C15.9995 4.81497 14.1846 3.00014 11.9459 3C10.6847 3.00005 9.532 3.58161 8.77988 4.52051C8.49134 4.88074 8.27192 5.29831 8.11093 5.7627C8.02051 6.02356 7.75184 6.18799 7.48398 6.12109L6.51523 5.87891C6.24727 5.81198 6.08255 5.53946 6.1666 5.27637C6.39127 4.57318 6.72636 3.88596 7.21933 3.27051C8.34062 1.87073 10.0611 1.00005 11.9459 1ZM5.9996 11V18.999H17.9996V11H5.9996Z" fill="oklch(0.3523 0 0 / 1)" class="wd-icon-fill"></path>
<path d="M12 12C13.1046 12 14 12.8954 14 14C14 14.7398 13.5971 15.3835 13 15.7295V17.5C13 17.7761 12.7761 18 12.5 18H11.5C11.2239 18 11 17.7761 11 17.5V15.7295C10.4029 15.3835 10 14.7398 10 14C10 12.8954 10.8954 12 12 12Z" fill="oklch(0.3523 0 0 / 1)" class="wd-icon-accent"></path>
</svg>