<svg width="24" height="24" viewBox="0 0 24 24" xmlns="http://www.w3.org/2000/svg" class="wd-icon wd-icon-split" role="presentation">
<g>
<path d="M15.0596 13.6465C14.8643 13.4512 14.5478 13.4512 14.3525 13.6465L13.6455 14.3535C13.4505 14.5488 13.4503 14.8654 13.6455 15.0605L16.585 18H14.499C14.223 18.0001 13.9991 18.224 13.999 18.5V19.5C13.999 19.7761 14.2229 19.9999 14.499 20H19.499C19.7752 20 19.999 19.7761 19.999 19.5V14.5C19.999 14.2239 19.7751 14 19.499 14H18.499C18.223 14.0001 17.9991 14.224 17.999 14.5V16.5859L15.0596 13.6465Z" fill="oklch(0.3523 0 0 / 1)" class="wd-icon-fill"></path>
<path d="M14.499 4C14.223 4.00007 13.9991 4.22395 13.999 4.5V5.5C13.999 5.7761 14.2229 5.99993 14.499 6H16.585L11.7314 10.8535C11.6377 10.9472 11.5104 11 11.3779 11H4.49902C4.2231 11.0003 3.99902 11.224 3.99902 11.5V12.5C3.99904 12.776 4.22311 12.9997 4.49902 13H11.999C12.264 12.9999 12.5186 12.8943 12.7061 12.707L17.999 7.41406V9.5C17.999 9.7761 18.2229 9.99993 18.499 10H19.499C19.7752 10 19.999 9.77614 19.999 9.5V4.5C19.999 4.22391 19.7751 4 19.499 4H14.499Z" fill="oklch(0.3523 0 0 / 1)" class="wd-icon-fill"></path>
</g>
</svg>