<svg width="24" height="24" viewBox="0 0 24 24" xmlns="http://www.w3.org/2000/svg" class="wd-icon wd-icon-arrow-left-small" role="presentation">
<path d="M4.22574 12.6333C4.03765 12.4029 3.96742 12.1091 4.0148 11.8315C4.04307 11.6654 4.11409 11.5045 4.22672 11.3667L7.59293 7.25436C7.76784 7.04117 8.08252 7.00948 8.29605 7.18405L8.68277 7.50045L9.06949 7.81588C9.28327 7.99058 9.31436 8.30618 9.1398 8.51999L7.1105 11.0005L19.5002 11.0005C19.7763 11.0005 20.0001 11.2243 20.0002 11.5005V12.5005C20.0002 12.7766 19.7763 13.0005 19.5002 13.0005L7.1105 13.0005L9.1398 15.4799C9.31435 15.6934 9.28258 16.0081 9.06949 16.1831L8.29508 16.8169C8.08143 16.9912 7.7667 16.9599 7.59195 16.7465L4.22574 12.6333Z" fill="oklch(0.3523 0 0 / 1)" class="wd-icon-fill"></path>
</svg>