<svg width="24" height="24" viewBox="0 0 24 24" xmlns="http://www.w3.org/2000/svg" class="wd-icon wd-icon-rectangle-split" role="presentation">
<g>
<path d="M8.25391 2.25C8.66812 2.25 9.00391 2.58579 9.00391 3V21C9.00391 21.4142 8.66812 21.75 8.25391 21.75C7.8397 21.75 7.50391 21.4142 7.50391 21V3C7.50391 2.58579 7.8397 2.25 8.25391 2.25Z" fill="oklch(0.3523 0 0 / 1)" class="wd-icon-fill"></path>
<path d="M16.2002 4C17.0237 4 17.7016 3.99898 18.252 4.04395C18.814 4.08987 19.3311 4.18827 19.8164 4.43555C20.5689 4.81902 21.181 5.43109 21.5645 6.18359C21.8117 6.6689 21.9101 7.18599 21.9561 7.74805C22.001 8.29843 22 8.97632 22 9.7998V14.2002C22 15.0237 22.001 15.7016 21.9561 16.252C21.9101 16.814 21.8117 17.3311 21.5645 17.8164C21.181 18.5689 20.5689 19.181 19.8164 19.5645C19.3311 19.8117 18.814 19.9101 18.252 19.9561C17.7016 20.001 17.0237 20 16.2002 20H11.5029C10.9506 20 10.5029 19.5523 10.5029 19C10.5029 18.4477 10.9506 18 11.5029 18H16.2002C17.0566 18 17.6388 17.9997 18.0889 17.9629C18.5273 17.9271 18.7518 17.8619 18.9082 17.7822C19.2845 17.5905 19.5905 17.2845 19.7822 16.9082C19.8619 16.7518 19.9271 16.5273 19.9629 16.0889C19.9997 15.6388 20 15.0566 20 14.2002V9.7998C20 8.94341 19.9997 8.36117 19.9629 7.91113C19.9271 7.47272 19.8619 7.2482 19.7822 7.0918C19.5905 6.71554 19.2845 6.40951 18.9082 6.21777C18.7518 6.13808 18.5273 6.07293 18.0889 6.03711C17.6388 6.00035 17.0566 6 16.2002 6H11.5029C10.9506 6 10.5029 5.55228 10.5029 5C10.5029 4.44772 10.9506 4 11.5029 4H16.2002Z" fill="oklch(0.3523 0 0 / 1)" class="wd-icon-fill"></path>
<path d="M4.71387 4.22461C5.24249 4.06514 5.80031 4.36406 5.95996 4.89258C6.11943 5.42121 5.82053 5.97903 5.29199 6.13867C5.21414 6.16216 5.14898 6.18864 5.0918 6.21777C4.71555 6.40951 4.40951 6.71554 4.21778 7.0918C4.13809 7.2482 4.07293 7.47272 4.03711 7.91113C4.00035 8.36117 4 8.94341 4 9.7998V14.2002C4 15.0566 4.00035 15.6388 4.03711 16.0889C4.07293 16.5273 4.13809 16.7518 4.21778 16.9082C4.40951 17.2845 4.71555 17.5905 5.0918 17.7822C5.14898 17.8114 5.21414 17.8378 5.29199 17.8613C5.82053 18.021 6.11943 18.5788 5.95996 19.1074C5.80031 19.6359 5.24249 19.9349 4.71387 19.7754C4.5312 19.7203 4.35462 19.6516 4.1836 19.5645C3.43109 19.181 2.81902 18.5689 2.43555 17.8164C2.18827 17.3311 2.08988 16.814 2.04395 16.252C1.99898 15.7016 2 15.0237 2 14.2002V9.7998C2 8.97631 1.99898 8.29843 2.04395 7.74805C2.08988 7.18599 2.18827 6.6689 2.43555 6.18359C2.81902 5.43109 3.43109 4.81902 4.1836 4.43555C4.35463 4.3484 4.53121 4.27973 4.71387 4.22461Z" fill="oklch(0.3523 0 0 / 1)" class="wd-icon-fill"></path>
</g>
</svg>