<svg width="24" height="24" viewBox="0 0 24 24" xmlns="http://www.w3.org/2000/svg" class="wd-icon wd-icon-calculator-loop" role="presentation">
<g>
<path d="M13.2002 2C14.0237 2 14.7016 1.99898 15.252 2.04395C15.814 2.08988 16.3311 2.18828 16.8164 2.43555C17.5689 2.81902 18.181 3.43109 18.5645 4.1836C18.8117 4.6689 18.9101 5.18599 18.9561 5.74805C19.001 6.29843 19 6.97632 19 7.79981V11C19 11.5523 18.5523 12 18 12C17.4477 12 17 11.5523 17 11V7.79981C17 6.94343 16.9997 6.36117 16.9629 5.91113C16.9271 5.47273 16.8619 5.2482 16.7822 5.0918C16.5905 4.71555 16.2845 4.40951 15.9082 4.21778C15.7518 4.13809 15.5273 4.07293 15.0889 4.03711C14.6388 4.00035 14.0566 4 13.2002 4H8.79981C7.94342 4 7.36117 4.00035 6.91113 4.03711C6.47273 4.07293 6.2482 4.13809 6.0918 4.21778C5.71555 4.40951 5.40951 4.71555 5.21778 5.0918C5.13809 5.2482 5.07293 5.47273 5.03711 5.91113C5.00035 6.36117 5 6.94343 5 7.79981V16.2002C5 17.0566 5.00035 17.6388 5.03711 18.0889C5.07293 18.5273 5.13809 18.7518 5.21778 18.9082C5.40951 19.2845 5.71555 19.5905 6.0918 19.7822C6.2482 19.8619 6.47272 19.9271 6.91113 19.9629C7.36117 19.9997 7.94342 20 8.79981 20H9C9.55228 20 9.99999 20.4477 10 21C10 21.5523 9.55229 22 9 22H8.79981C7.97632 22 7.29843 22.001 6.74805 21.9561C6.18599 21.9101 5.6689 21.8117 5.1836 21.5645C4.43109 21.181 3.81902 20.5689 3.43555 19.8164C3.18828 19.3311 3.08988 18.814 3.04395 18.252C2.99898 17.7016 3 17.0237 3 16.2002V7.79981C3 6.97632 2.99898 6.29843 3.04395 5.74805C3.08988 5.18599 3.18827 4.6689 3.43555 4.1836C3.81902 3.43109 4.43109 2.81902 5.1836 2.43555C5.6689 2.18828 6.186 2.08988 6.74805 2.04395C7.29843 1.99898 7.97632 2 8.79981 2H13.2002Z" fill="oklch(0.3523 0 0 / 1)" class="wd-icon-fill"></path>
<path d="M8.25 16.5C8.66421 16.5 8.99999 16.8358 9 17.25C9 17.6642 8.66422 18 8.25 18H7.25C6.83579 18 6.5 17.6642 6.5 17.25C6.50001 16.8358 6.8358 16.5 7.25 16.5H8.25Z" fill="oklch(0.3523 0 0 / 1)" class="wd-icon-fill"></path>
<path d="M8.25 13.5C8.66421 13.5 8.99999 13.8358 9 14.25C9 14.6642 8.66422 15 8.25 15H7.25C6.83579 15 6.5 14.6642 6.5 14.25C6.50001 13.8358 6.8358 13.5 7.25 13.5H8.25Z" fill="oklch(0.3523 0 0 / 1)" class="wd-icon-fill"></path>
<path d="M11.5 13.5C11.9142 13.5 12.25 13.8358 12.25 14.25C12.25 14.6642 11.9142 15 11.5 15H10.5C10.0858 15 9.75 14.6642 9.75 14.25C9.75001 13.8358 10.0858 13.5 10.5 13.5H11.5Z" fill="oklch(0.3523 0 0 / 1)" class="wd-icon-fill"></path>
<path d="M8.25 10.5C8.66421 10.5 8.99999 10.8358 9 11.25C9 11.6642 8.66422 12 8.25 12H7.25C6.83579 12 6.5 11.6642 6.5 11.25C6.50001 10.8358 6.8358 10.5 7.25 10.5H8.25Z" fill="oklch(0.3523 0 0 / 1)" class="wd-icon-fill"></path>
<path d="M11.5 10.5C11.9142 10.5 12.25 10.8358 12.25 11.25C12.25 11.6642 11.9142 12 11.5 12H10.5C10.0858 12 9.75 11.6642 9.75 11.25C9.75001 10.8358 10.0858 10.5 10.5 10.5H11.5Z" fill="oklch(0.3523 0 0 / 1)" class="wd-icon-fill"></path>
<path d="M14.75 10.5C15.1642 10.5 15.5 10.8358 15.5 11.25C15.5 11.6642 15.1642 12 14.75 12H13.75C13.3358 12 13 11.6642 13 11.25C13 10.8358 13.3358 10.5 13.75 10.5H14.75Z" fill="oklch(0.3523 0 0 / 1)" class="wd-icon-fill"></path>
<path d="M14.5 6C14.9659 6 15.199 6.00005 15.3828 6.07617C15.6277 6.17766 15.8223 6.37227 15.9238 6.61719C15.9999 6.80096 16 7.03407 16 7.5C16 7.96594 16 8.19904 15.9238 8.38281C15.8223 8.62774 15.6277 8.82234 15.3828 8.92383C15.199 8.99995 14.9659 9 14.5 9H7.5C7.03406 9 6.80096 8.99995 6.61719 8.92383C6.37226 8.82234 6.17766 8.62774 6.07617 8.38281C6.00005 8.19904 6 7.96594 6 7.5C6 7.03407 6.00005 6.80096 6.07617 6.61719C6.17767 6.37227 6.37227 6.17766 6.61719 6.07617C6.80096 6.00005 7.03406 6 7.5 6H14.5Z" fill="oklch(0.3523 0 0 / 1)" class="wd-icon-fill"></path>
</g>
<g>
<path d="M13.0681 15.6227C13.2662 15.3263 13.7023 15.326 13.9001 15.6227L15.6316 18.2213C15.8528 18.5535 15.6146 18.9984 15.2155 18.9987H14.28C14.3257 19.2468 14.4041 19.4887 14.5163 19.7165C14.7029 20.0947 14.9748 20.4256 15.3093 20.6823C15.6438 20.9389 16.0335 21.1156 16.447 21.1979C16.8604 21.28 17.2879 21.2659 17.695 21.1569C18.0949 21.05 18.5058 21.2874 18.613 21.6872C18.72 22.0871 18.4826 22.4988 18.0827 22.6061C17.4534 22.7746 16.793 22.7957 16.154 22.6686C15.515 22.5415 14.9132 22.2693 14.3962 21.8727C13.8792 21.476 13.4599 20.965 13.1716 20.3805C12.9571 19.9456 12.82 19.4779 12.7634 18.9987H11.7507C11.3516 18.9984 11.1134 18.5535 11.3347 18.2213L13.0681 15.6227Z" fill="oklch(0.3523 0 0 / 1)" class="wd-icon-accent"></path>
<path d="M15.5681 14.404C16.2346 14.2254 16.9343 14.203 17.6111 14.3376C18.2877 14.4722 18.925 14.7604 19.4724 15.1803C20.0199 15.6005 20.464 16.1414 20.7693 16.7604C20.9627 17.1527 21.0971 17.57 21.1696 17.9987H22.2155C22.6146 17.999 22.8528 18.4439 22.6316 18.776L20.8991 21.3747C20.7012 21.6714 20.265 21.6713 20.0671 21.3747L18.3357 18.776C18.1142 18.4438 18.3524 17.9987 18.7517 17.9987H19.6364C19.5852 17.8009 19.5145 17.6079 19.4236 17.4235C19.2201 17.011 18.9242 16.6508 18.5593 16.3708C18.1943 16.0907 17.7692 15.8981 17.3181 15.8083C16.8671 15.7186 16.4009 15.7342 15.9568 15.8532C15.5569 15.9601 15.1452 15.7226 15.0378 15.3229C14.9307 14.923 15.1684 14.5114 15.5681 14.404Z" fill="oklch(0.3523 0 0 / 1)" class="wd-icon-accent"></path>
</g>
</svg>