<svg width="24" height="24" viewBox="0 0 24 24" xmlns="http://www.w3.org/2000/svg" class="wd-icon wd-icon-split-small" role="presentation">
<g>
<path d="M14.0601 13.6465C13.8648 13.4514 13.5482 13.4514 13.353 13.6465L12.646 14.3535C12.4508 14.5487 12.4509 14.8653 12.646 15.0605L14.5854 17H13.4995C13.2236 17.0002 12.9995 17.224 12.9995 17.5V18.5C12.9995 18.776 13.2236 18.9998 13.4995 19H17.4995C17.7757 19 17.9995 18.7761 17.9995 18.5V14.5C17.9995 14.2239 17.7756 14 17.4995 14H16.4995C16.2236 14.0002 15.9995 14.224 15.9995 14.5V15.5859L14.0601 13.6465Z" fill="oklch(0.3523 0 0 / 1)" class="wd-icon-fill"></path>
<path d="M13.4995 5C13.2236 5.00025 12.9995 5.22402 12.9995 5.5V6.5C12.9995 6.77599 13.2236 6.99975 13.4995 7H14.5854L10.7319 10.8535C10.6382 10.9472 10.5109 11 10.3784 11H6.49951C6.2234 11 5.99951 11.2239 5.99951 11.5V12.5C5.99971 12.776 6.22352 13 6.49951 13H10.9995C11.2646 13 11.519 12.8944 11.7065 12.707L15.9995 8.41406V9.5C15.9995 9.77599 16.2236 9.99975 16.4995 10H17.4995C17.7757 10 17.9995 9.77614 17.9995 9.5V5.5C17.9995 5.22387 17.7756 5 17.4995 5H13.4995Z" fill="oklch(0.3523 0 0 / 1)" class="wd-icon-fill"></path>
</g>
</svg>