<svg width="24" height="24" viewBox="0 0 24 24" xmlns="http://www.w3.org/2000/svg" class="wd-icon wd-icon-webpage" role="presentation">
<path d="M20 9.7998V14.2002C20 15.0566 19.9997 15.6388 19.9629 16.0889C19.9271 16.5273 19.8619 16.7518 19.7822 16.9082C19.5905 17.2845 19.2845 17.5905 18.9082 17.7822C18.7518 17.8619 18.5273 17.9271 18.0889 17.9629C17.6388 17.9997 17.0566 18 16.2002 18H7.7998C6.94342 18 6.36117 17.9997 5.91113 17.9629C5.47273 17.9271 5.24819 17.8619 5.0918 17.7822C4.71555 17.5905 4.40951 17.2844 4.21777 16.9082C4.13809 16.7518 4.07293 16.5273 4.03711 16.0889C4.00035 15.6388 4 15.0566 4 14.2002V9.7998C4 9.50205 4.00231 9.23744 4.00391 9H19.9961C19.9977 9.23744 20 9.50205 20 9.7998ZM6.7998 14C6.52014 14 6.38033 14.0003 6.27344 14.0547C6.17936 14.1026 6.10262 14.1794 6.05469 14.2734C6.00034 14.3803 6 14.5201 6 14.7998V15.2002C6 15.4799 6.00034 15.6197 6.05469 15.7266C6.10262 15.8206 6.17936 15.8974 6.27344 15.9453C6.38033 15.9997 6.52014 16 6.7998 16H9.2002C9.47986 16 9.61967 15.9997 9.72656 15.9453C9.82064 15.8974 9.89738 15.8206 9.94531 15.7266C9.99966 15.6197 10 15.4799 10 15.2002V14.7998C10 14.5201 9.99966 14.3803 9.94531 14.2734C9.89738 14.1794 9.82064 14.1026 9.72656 14.0547C9.61967 14.0003 9.47986 14 9.2002 14H6.7998ZM11.7998 14C11.5201 14 11.3803 14.0003 11.2734 14.0547C11.1794 14.1026 11.1026 14.1794 11.0547 14.2734C11.0003 14.3803 11 14.5201 11 14.7998V15.2002C11 15.4799 11.0003 15.6197 11.0547 15.7266C11.1026 15.8206 11.1794 15.8974 11.2734 15.9453C11.3803 15.9997 11.5201 16 11.7998 16H17.2002C17.4799 16 17.6197 15.9997 17.7266 15.9453C17.8206 15.8974 17.8974 15.8206 17.9453 15.7266C17.9997 15.6197 18 15.4799 18 15.2002V14.7998C18 14.5201 17.9997 14.3803 17.9453 14.2734C17.8974 14.1794 17.8206 14.1026 17.7266 14.0547C17.6197 14.0003 17.4799 14 17.2002 14H11.7998ZM6 13H18V11H6V13Z" fill="transparent" class="wd-icon-background"></path>
<path d="M16.7139 4C17.763 4 18.3531 3.99893 18.8066 4.11231C19.1597 4.17348 19.495 4.27181 19.8164 4.43555C20.5689 4.81901 21.181 5.4311 21.5645 6.18359C21.8117 6.66889 21.9101 7.186 21.9561 7.74805C22.001 8.29842 22 8.97632 22 9.79981V14.2002C22 15.0237 22.001 15.7016 21.9561 16.252C21.9101 16.814 21.8117 17.3311 21.5645 17.8164C21.181 18.5689 20.5689 19.181 19.8164 19.5645C19.3311 19.8117 18.814 19.9101 18.252 19.9561C17.7016 20.001 17.0237 20 16.2002 20H7.79981C6.97632 20 6.29842 20.001 5.74805 19.9561C5.186 19.9101 4.6689 19.8117 4.1836 19.5645C3.4311 19.181 2.81902 18.5689 2.43555 17.8164C2.18828 17.3311 2.08988 16.814 2.04395 16.252C1.99898 15.7016 2 15.0237 2 14.2002V9.79981C2 8.97632 1.99898 8.29842 2.04395 7.74805C2.08988 7.186 2.18828 6.6689 2.43555 6.18359C2.81902 5.43109 3.43109 4.81902 4.1836 4.43555C4.50467 4.27195 4.83966 4.17349 5.19238 4.11231C5.64605 3.9987 6.23625 4 7.28613 4H16.7139ZM4 9.79981V14.2002C4 15.0566 4.00035 15.6388 4.03711 16.0889C4.07293 16.5273 4.13809 16.7518 4.21778 16.9082C4.40951 17.2845 4.71555 17.5905 5.0918 17.7822C5.2482 17.8619 5.47273 17.9271 5.91113 17.9629C6.36117 17.9997 6.94343 18 7.79981 18H16.2002C17.0566 18 17.6388 17.9997 18.0889 17.9629C18.5273 17.9271 18.7518 17.8619 18.9082 17.7822C19.2845 17.5905 19.5905 17.2845 19.7822 16.9082C19.8619 16.7518 19.9271 16.5273 19.9629 16.0889C19.9997 15.6388 20 15.0566 20 14.2002V9.79981C20 9.50205 19.9977 9.23744 19.9961 9H4.00391C4.00231 9.23744 4 9.50205 4 9.79981ZM5.5 6C5.22386 6 5 6.22386 5 6.5C5 6.77614 5.22386 7 5.5 7H6.5C6.77614 7 7 6.77614 7 6.5C7 6.22386 6.77614 6 6.5 6H5.5ZM8.5 6C8.22386 6 8 6.22386 8 6.5C8 6.77614 8.22386 7 8.5 7H9.5C9.77614 7 10 6.77614 10 6.5C10 6.22386 9.77614 6 9.5 6H8.5ZM11.5 6C11.2239 6 11 6.22386 11 6.5C11 6.77614 11.2239 7 11.5 7H12.5C12.7761 7 13 6.77614 13 6.5C13 6.22386 12.7761 6 12.5 6H11.5Z" fill="oklch(0.3523 0 0 / 1)" class="wd-icon-fill"></path>
<g>
<path d="M9.2002 14C9.47986 14 9.61967 14.0003 9.72656 14.0547C9.82064 14.1026 9.89738 14.1794 9.94531 14.2734C9.99966 14.3803 10 14.5201 10 14.7998V15.2002C10 15.4799 9.99966 15.6197 9.94531 15.7266C9.89738 15.8206 9.82064 15.8974 9.72656 15.9453C9.61967 15.9997 9.47986 16 9.2002 16H6.7998C6.52014 16 6.38033 15.9997 6.27344 15.9453C6.17936 15.8974 6.10262 15.8206 6.05469 15.7266C6.00034 15.6197 6 15.4799 6 15.2002V14.7998C6 14.5201 6.00034 14.3803 6.05469 14.2734C6.10262 14.1794 6.17936 14.1026 6.27344 14.0547C6.38033 14.0003 6.52014 14 6.7998 14H9.2002Z" fill="oklch(0.3523 0 0 / 1)" class="wd-icon-accent"></path>
<path d="M17.2002 14C17.4799 14 17.6197 14.0003 17.7266 14.0547C17.8206 14.1026 17.8974 14.1794 17.9453 14.2734C17.9997 14.3803 18 14.5201 18 14.7998V15.2002C18 15.4799 17.9997 15.6197 17.9453 15.7266C17.8974 15.8206 17.8206 15.8974 17.7266 15.9453C17.6197 15.9997 17.4799 16 17.2002 16H11.7998C11.5201 16 11.3803 15.9997 11.2734 15.9453C11.1794 15.8974 11.1026 15.8206 11.0547 15.7266C11.0003 15.6197 11 15.4799 11 15.2002V14.7998C11 14.5201 11.0003 14.3803 11.0547 14.2734C11.1026 14.1794 11.1794 14.1026 11.2734 14.0547C11.3803 14.0003 11.5201 14 11.7998 14H17.2002Z" fill="oklch(0.3523 0 0 / 1)" class="wd-icon-accent"></path>
<path d="M18 13H6V11H18V13Z" fill="oklch(0.3523 0 0 / 1)" class="wd-icon-accent"></path>
</g>
</svg>