<svg width="24" height="24" viewBox="0 0 24 24" xmlns="http://www.w3.org/2000/svg" class="wd-icon wd-icon-pause-circle" role="presentation">
<g>
<path d="M9.375 8C9.72369 8 9.89814 7.99998 10.04 8.04297C10.3596 8.13992 10.6101 8.39036 10.707 8.70996C10.75 8.85186 10.75 9.02631 10.75 9.375V14.625C10.75 14.9737 10.75 15.1481 10.707 15.29C10.6101 15.6096 10.3596 15.8601 10.04 15.957C9.89814 16 9.72369 16 9.375 16C9.02631 16 8.85186 16 8.70996 15.957C8.39036 15.8601 8.13992 15.6096 8.04297 15.29C7.99999 15.1481 8 14.9737 8 14.625V9.375C8 9.02631 7.99998 8.85186 8.04297 8.70996C8.13992 8.39036 8.39036 8.13992 8.70996 8.04297C8.85186 7.99998 9.02631 8 9.375 8Z" fill="oklch(0.3523 0 0 / 1)" class="wd-icon-fill"></path>
<path d="M14.625 8C14.9737 8 15.1481 7.99998 15.29 8.04297C15.6096 8.13992 15.8601 8.39036 15.957 8.70996C16 8.85186 16 9.02631 16 9.375V14.625C16 14.9737 16 15.1481 15.957 15.29C15.8601 15.6096 15.6096 15.8601 15.29 15.957C15.1481 16 14.9737 16 14.625 16C14.2763 16 14.1019 16 13.96 15.957C13.6404 15.8601 13.3899 15.6096 13.293 15.29C13.25 15.1481 13.25 14.9737 13.25 14.625V9.375C13.25 9.02631 13.25 8.85186 13.293 8.70996C13.3899 8.39036 13.6404 8.13992 13.96 8.04297C14.1019 7.99998 14.2763 8 14.625 8Z" fill="oklch(0.3523 0 0 / 1)" class="wd-icon-fill"></path>
<path d="M12 2C17.5228 2 21.9999 6.47721 22 12C22 17.5228 17.5228 22 12 22C6.47715 22 2 17.5228 2 12C2.00007 6.47721 6.47719 2 12 2ZM12 4C7.58176 4 4.00007 7.58178 4 12C4 16.4183 7.58172 20 12 20C16.4183 20 20 16.4183 20 12C19.9999 7.58178 16.4182 4 12 4Z" fill="oklch(0.3523 0 0 / 1)" class="wd-icon-fill"></path>
</g>
</svg>