<svg width="24" height="24" viewBox="0 0 24 24" xmlns="http://www.w3.org/2000/svg" class="wd-icon wd-icon-reset" role="presentation">
<path d="M3.68574 15.444C2.8503 13.427 2.77613 11.1745 3.47773 9.10711C3.95568 7.6993 4.77128 6.44259 5.84003 5.43915L4.69453 5.31024C4.14583 5.24848 3.75107 4.75352 3.81269 4.20477C3.87444 3.65606 4.36941 3.26131 4.91816 3.32294L8.89277 3.76922C9.4416 3.83086 9.83721 4.32586 9.77558 4.87469L9.32832 8.8493C9.2667 9.39799 8.77249 9.79349 8.22382 9.73211C7.67508 9.67049 7.27954 9.17537 7.34101 8.62665L7.5705 6.58075C6.56108 7.40588 5.79517 8.50119 5.37128 9.74969C4.82559 11.3576 4.88361 13.1096 5.53339 14.6784C6.18332 16.2473 7.38147 17.5269 8.90449 18.278C10.4274 19.0288 12.1716 19.2008 13.8117 18.7614C15.4518 18.3218 16.8771 17.3002 17.8205 15.8884C18.7637 14.4765 19.1622 12.769 18.9406 11.0856C18.7189 9.40219 17.892 7.8566 16.6154 6.737C15.5907 5.83832 14.3313 5.26307 12.9963 5.07098C12.4497 4.99223 12.0002 4.55189 12.0002 3.99969C12.0003 3.44754 12.4495 2.99414 12.9982 3.05536C14.8196 3.2586 16.545 4.01431 17.9348 5.23309C19.5761 6.67265 20.638 8.6604 20.923 10.8249C21.2079 12.9894 20.6964 15.1844 19.4836 16.9997C18.2706 18.8149 16.4381 20.1279 14.3293 20.6931C12.2205 21.258 9.97778 21.0374 8.01972 20.072C6.06161 19.1063 4.52137 17.461 3.68574 15.444Z" fill="oklch(0.3523 0 0 / 1)" class="wd-icon-fill"></path>
</svg>