<svg width="24" height="24" viewBox="0 0 24 24" xmlns="http://www.w3.org/2000/svg" class="wd-icon wd-icon-data-bolt" role="presentation">
<g>
<path d="M20.2646 11.3955C20.5576 10.9272 21.2815 11.2099 21.1797 11.7529L20.3857 15.9893H22.7412C23.1338 15.9893 23.3728 16.4209 23.165 16.7539L19.5 22.6191C19.2071 23.0876 18.4822 22.8048 18.584 22.2617L19.3857 17.9893H17.0459C16.6533 17.9893 16.4133 17.5576 16.6211 17.2246L20.2646 11.3955Z" fill="oklch(0.3523 0 0 / 1)" class="wd-icon-fill"></path>
<path d="M12 2C14.3307 2 16.4907 2.47043 18.1045 3.27734C19.6583 4.05437 21 5.31275 21 7C21 8.68725 19.6583 9.94563 18.1045 10.7227C16.4907 11.5296 14.3307 12 12 12C9.66928 12 7.50934 11.5296 5.89551 10.7227C5.58533 10.5675 5.28428 10.3923 5 10.1992V17C5 17.5217 5.44895 18.2629 6.79004 18.9336C8.07164 19.5744 9.91244 20 12 20C12.9969 20 13.9432 19.9033 14.8018 19.7295C15.343 19.62 15.8709 19.9695 15.9805 20.5107C16.09 21.0521 15.7396 21.5799 15.1982 21.6895C14.204 21.8907 13.1248 22 12 22C9.66928 22 7.50934 21.5296 5.89551 20.7227C4.34167 19.9456 3 18.6872 3 17V7C3 5.31275 4.34167 4.05437 5.89551 3.27734C7.50934 2.47043 9.66928 2 12 2ZM12 4C9.91244 4 8.07164 4.42561 6.79004 5.06641C5.44895 5.73706 5 6.47831 5 7C5 7.52169 5.44895 8.26294 6.79004 8.93359C8.07164 9.57439 9.91244 10 12 10C14.0876 10 15.9284 9.57439 17.21 8.93359C18.551 8.26294 19 7.52169 19 7C19 6.47831 18.551 5.73706 17.21 5.06641C15.9284 4.42561 14.0876 4 12 4Z" fill="oklch(0.3523 0 0 / 1)" class="wd-icon-fill"></path>
</g>
</svg>