<svg width="24" height="24" viewBox="0 0 24 24" xmlns="http://www.w3.org/2000/svg" class="wd-icon wd-icon-pin" role="presentation">
<path d="M20.2715 9.45801L16.8984 11.4121C15.2074 12.3912 14.2613 14.2835 14.4941 16.2236C14.594 17.0569 14.3258 17.8898 13.7646 18.5078L5.99219 10.7354C6.61023 10.1742 7.443 9.90588 8.27637 10.0059C10.2165 10.2387 12.1088 9.29254 13.0879 7.60156L15.042 4.22852L20.2715 9.45801Z" fill="transparent" class="wd-icon-background"></path>
<path d="M13.4139 3.04836C14.0205 2.00092 15.4552 1.81274 16.3113 2.66848L21.8318 8.18898C22.6873 9.04507 22.4992 10.4798 21.452 11.0864L17.9002 13.1421C16.9012 13.7205 16.3418 14.8387 16.4793 15.9849C16.658 17.4737 16.144 18.9626 15.0838 20.023L14.6287 20.478C14.1535 20.953 13.3833 20.953 12.908 20.478L9.69805 17.2681L6.65508 19.3736C5.64901 20.0688 4.4295 18.8493 5.12481 17.8433L7.2293 14.7993L4.02227 11.5923C3.54726 11.117 3.54727 10.3469 4.02227 9.8716L4.47734 9.41652C5.53776 8.35627 7.02657 7.84137 8.51543 8.02004C9.6615 8.15744 10.7798 7.59905 11.3582 6.60012L13.4139 3.04836ZM13.0887 7.60109C12.1096 9.29219 10.2173 10.2381 8.27715 10.0054C7.44384 9.90539 6.61101 10.1738 5.99297 10.7349L13.7654 18.5073C14.3265 17.8893 14.5949 17.0565 14.4949 16.2232C14.2621 14.283 15.2081 12.3907 16.8992 11.4116L20.2723 9.45851L15.0418 4.22805L13.0887 7.60109Z" fill="oklch(0.3523 0 0 / 1)" class="wd-icon-fill"></path>
</svg>