<svg width="24" height="24" viewBox="0 0 24 24" xmlns="http://www.w3.org/2000/svg" class="wd-icon wd-icon-audio-mute" role="presentation">
<g>
<path d="M11.5303 2.06239C12.4841 1.2442 14 1.91235 14 3.20692V20.7919C13.9999 22.1282 12.3843 22.7972 11.4395 21.8524L6.58496 16.9989H4C3.98406 16.9989 3.96807 16.9987 3.95215 16.9979L3.74805 16.9882C3.73044 16.9873 3.71285 16.986 3.69531 16.9843C2.27562 16.8404 1.14906 15.7081 1.01367 14.287L1 13.9989V9.99891C1.0004 8.34271 2.34307 6.99891 4 6.99891H6.58594L11.4395 2.14637L11.5303 2.06239ZM7.70703 8.70594C7.51951 8.8934 7.26516 8.99891 7 8.99891H4C3.4482 8.99891 3.00026 9.44654 3 9.99891V13.9989L3.00488 14.0946C3.04948 14.5631 3.41739 14.9369 3.88184 14.9911L4.02734 14.9989H6.99902C7.26421 14.9989 7.51852 15.1044 7.70605 15.2919L12 19.5849V4.41298L7.70703 8.70594Z" fill="oklch(0.3523 0 0 / 1)" class="wd-icon-fill"></path>
<path d="M20.9414 8.64149C21.1366 8.44625 21.4531 8.44633 21.6484 8.64149L22.3564 9.34852C22.5516 9.54374 22.5515 9.8603 22.3564 10.0556L20.4189 11.9931L22.3633 13.9374C22.5585 14.1327 22.5585 14.4492 22.3633 14.6444L21.6562 15.3515C21.461 15.5465 21.1444 15.5466 20.9492 15.3515L19.0049 13.4071L17.0605 15.3515C16.8653 15.5465 16.5487 15.5466 16.3535 15.3515L15.6465 14.6444C15.4513 14.4492 15.4514 14.1327 15.6465 13.9374L17.5898 11.9921L15.6533 10.0556C15.4581 9.86034 15.4582 9.54379 15.6533 9.34852L16.3604 8.64149C16.5556 8.44625 16.8721 8.44626 17.0674 8.64149L19.0039 10.578L20.9414 8.64149Z" fill="oklch(0.3523 0 0 / 1)" class="wd-icon-fill"></path>
</g>
</svg>