<svg width="24" height="24" viewBox="0 0 24 24" xmlns="http://www.w3.org/2000/svg" class="wd-icon wd-icon-thumbs-up" role="presentation">
<path d="M11.1689 1C12.9873 1.00021 14.7371 2.26555 14.9219 4.25C15.0317 5.43006 15.0267 6.62378 14.9131 7.80176L16.7832 7.55371C19.4733 7.1955 21.7322 9.56308 21.2471 12.2334L20.4326 16.7158C20.0865 18.6178 18.4288 20 16.4961 20H6C4.34315 20 3.00001 18.6568 3 17V11C3 9.34315 4.34315 8 6 8H7.38184L8.0498 6.66406C8.63551 5.49261 8.95802 4.20843 8.99609 2.90137L9 2.63965V2.5C9 1.67157 9.67157 1 10.5 1H11.1689ZM10.9932 3C10.9412 4.58358 10.5487 6.13889 9.83887 7.55859L9.03223 9.1709C9.02286 9.18962 9.01007 9.2064 9 9.22461V18H16.4961C17.4627 18 18.2908 17.3088 18.4639 16.3584L19.2783 11.876C19.5209 10.5409 18.3921 9.35694 17.0469 9.53613L14.5557 9.86719C13.5427 10.0017 12.7357 9.12399 12.8604 8.16602C13.0208 6.93366 13.0451 5.67512 12.9297 4.43555C12.861 3.69772 12.2216 3.08197 11.3467 3.00781L11.1689 3H10.9932ZM6 10C5.44772 10 5 10.4477 5 11V17C5.00001 17.5523 5.44772 18 6 18H7.5V10H6Z" fill="oklch(0.3523 0 0 / 1)" class="wd-icon-fill"></path>
</svg>