<svg width="24" height="24" viewBox="0 0 24 24" xmlns="http://www.w3.org/2000/svg" class="wd-icon wd-icon-document-stack-check" role="presentation">
<path d="M13.6748 1.0001C14.1163 1.00009 14.5001 0.993807 14.8721 1.0831C15.1781 1.1566 15.4709 1.27803 15.7393 1.44248C16.0654 1.64238 16.3324 1.91841 16.6445 2.23057L19.7695 5.35557C20.0817 5.66772 20.3577 5.93474 20.5576 6.26084C20.7221 6.5292 20.8435 6.82198 20.917 7.12803C21.0063 7.49998 21 7.88383 21 8.32529V14.0001C21 14.5524 20.5523 15.0001 20 15.0001C19.4477 15.0001 19 14.5524 19 14.0001V9.0001H15C13.8954 9.0001 13 8.10467 13 7.0001V3.0001H11.2002C10.6236 3.0001 10.2511 3.00136 9.96778 3.02451C9.69619 3.04671 9.59534 3.08428 9.5459 3.10947C9.35793 3.20531 9.20522 3.35803 9.10938 3.546C9.08419 3.59543 9.04662 3.69628 9.02442 3.96787C9.00127 4.25121 9 4.62374 9 5.20029V15.7999C9 16.3765 9.00127 16.749 9.02442 17.0323C9.04662 17.3039 9.08419 17.4048 9.10938 17.4542C9.20522 17.6422 9.35793 17.7949 9.5459 17.8907C9.59534 17.9159 9.69619 17.9535 9.96778 17.9757C10.2511 17.9988 10.6236 18.0001 11.2002 18.0001H12.5C13.0523 18.0001 13.5 18.4478 13.5 19.0001C13.5 19.5524 13.0523 20.0001 12.5 20.0001H11.2002C10.6566 20.0001 10.1884 20.0012 9.80469 19.9698C9.40943 19.9375 9.016 19.8657 8.6377 19.6729C8.07348 19.3854 7.61473 18.9266 7.32715 18.3624C7.1344 17.9841 7.06259 17.5907 7.03028 17.1954C6.99893 16.8117 7 16.3435 7 15.7999V6.00107C6.53495 6.00161 6.21689 6.00416 5.96778 6.02451C5.69619 6.04671 5.59534 6.08428 5.5459 6.10947C5.35793 6.20531 5.20522 6.35803 5.10938 6.546C5.08419 6.59543 5.04662 6.69628 5.02442 6.96787C5.00127 7.25121 5 7.62374 5 8.20029V18.7999C5 19.3765 5.00127 19.749 5.02442 20.0323C5.04662 20.3039 5.08419 20.4048 5.10938 20.4542C5.20522 20.6422 5.35793 20.7949 5.5459 20.8907C5.59534 20.9159 5.69619 20.9535 5.96778 20.9757C6.25112 20.9988 6.62365 21.0001 7.2002 21.0001H12.5C13.0523 21.0001 13.5 21.4478 13.5 22.0001C13.5 22.5524 13.0523 23.0001 12.5 23.0001H7.2002C6.65665 23.0001 6.18836 23.0012 5.80469 22.9698C5.40943 22.9375 5.016 22.8657 4.6377 22.6729C4.07348 22.3854 3.61473 21.9266 3.32715 21.3624C3.1344 20.9841 3.06259 20.5907 3.03028 20.1954C2.99893 19.8117 3 19.3435 3 18.7999V8.20029C3 7.65674 2.99893 7.18846 3.03028 6.80478C3.06259 6.40953 3.1344 6.01609 3.32715 5.63779C3.61473 5.07357 4.07348 4.61482 4.6377 4.32725C5.016 4.13449 5.40943 4.06268 5.80469 4.03037C6.14494 4.00257 6.55174 4.00026 7.01856 4.0001C7.0221 3.93277 7.02514 3.86761 7.03028 3.80478C7.06259 3.40953 7.1344 3.01609 7.32715 2.63779C7.61473 2.07357 8.07348 1.61482 8.6377 1.32725C9.016 1.13449 9.40943 1.06268 9.80469 1.03037C10.1884 0.999023 10.6566 1.0001 11.2002 1.0001H13.6748ZM14.5 7.0001C14.5 7.27624 14.7239 7.5001 15 7.5001H18.9414C18.9178 7.43267 18.8899 7.36676 18.8525 7.30576C18.8051 7.22839 18.7346 7.1488 18.3555 6.76963L15.2305 3.64463C14.8513 3.26546 14.7717 3.19501 14.6943 3.14756C14.6332 3.11012 14.5675 3.08136 14.5 3.05771V7.0001Z" fill="oklch(0.3523 0 0 / 1)" class="wd-icon-fill"></path>
<path d="M20.7579 17.5196C21.0231 17.2016 21.4965 17.1588 21.8146 17.4239C22.1324 17.689 22.1751 18.1624 21.9103 18.4805L18.5773 22.4805C18.4349 22.6513 18.2234 22.7499 18.0011 22.75C17.7787 22.75 17.5674 22.6513 17.4249 22.4805L15.7579 20.4805C15.4928 20.1623 15.5355 19.6891 15.8536 19.4239C16.1717 19.159 16.6451 19.2017 16.9103 19.5196L18.0001 20.8282L20.7579 17.5196Z" fill="oklch(0.3523 0 0 / 1)" class="wd-icon-accent"></path>
</svg>