<svg width="24" height="24" viewBox="0 0 24 24" xmlns="http://www.w3.org/2000/svg" class="wd-icon wd-icon-assistant" role="presentation">
<path d="M12 2.00098C16.9706 2.00098 21 6.03041 21 11.001C20.9997 15.9713 16.9704 20.001 12 20.001C10.7883 20.001 9.63322 19.7594 8.57812 19.3252C8.53752 19.3686 8.49741 19.4127 8.45508 19.4551C7.49464 20.4156 6.25725 20.9304 5 21V16.6543C3.75035 15.109 3.00011 13.1431 3 11.001C3 6.03044 7.02947 2.00102 12 2.00098Z" fill="transparent" class="wd-icon-background"></path>
<path d="M12 1.00098C17.5228 1.00104 22 5.47817 22 11.001L21.9873 11.5156C21.7192 16.799 17.3501 21.0009 12 21.001C10.8877 21.001 9.81825 20.8146 8.81836 20.4785C7.73279 21.4157 6.40343 21.9233 5.05566 21.998C4.78132 22.0132 4.51212 21.9154 4.3125 21.7266C4.11292 21.5377 4.00003 21.2748 4 21V16.9961C2.82937 15.4367 2.10106 13.5235 2.00977 11.4453L2 11.001C2 5.47815 6.4772 1.00102 12 1.00098ZM12 3.00098C7.58175 3.00102 4 6.58274 4 11.001L4.00781 11.3564C4.08523 13.1221 4.73553 14.737 5.77734 16.0254C5.92121 16.2033 6 16.4255 6 16.6543V19.8086C6.63931 19.6076 7.24104 19.2551 7.74805 18.748C7.77476 18.7213 7.79362 18.6993 7.84766 18.6416C8.13171 18.3381 8.57456 18.2422 8.95898 18.4004C9.89657 18.7861 10.9225 19.001 12 19.001C16.418 19.0009 19.9997 15.419 20 11.001C20 6.58274 16.4182 3.00104 12 3.00098Z" fill="oklch(0.3523 0 0 / 1)" class="wd-icon-fill"></path>
</svg>