<svg width="24" height="24" viewBox="0 0 24 24" xmlns="http://www.w3.org/2000/svg" class="wd-icon wd-icon-stop-circle-fill" role="presentation">
<path d="M12 2C17.5228 2 22 6.47717 22 12C22 17.5228 17.5228 22 12 22C6.47715 22 2 17.5228 2 12C2.00002 6.47717 6.47717 2 12 2ZM9.84961 8.25C9.28982 8.25 9.00976 8.25041 8.7959 8.35938C8.60793 8.45522 8.45522 8.60793 8.35938 8.7959C8.25041 9.00976 8.25 9.28982 8.25 9.84961V14.1504C8.25 14.7102 8.25041 14.9902 8.35938 15.2041C8.45522 15.3921 8.60793 15.5448 8.7959 15.6406C9.00976 15.7496 9.28982 15.75 9.84961 15.75H14.1504C14.7102 15.75 14.9902 15.7496 15.2041 15.6406C15.3921 15.5448 15.5448 15.3921 15.6406 15.2041C15.7496 14.9902 15.75 14.7102 15.75 14.1504V9.84961C15.75 9.28982 15.7496 9.00976 15.6406 8.7959C15.5448 8.60793 15.3921 8.45522 15.2041 8.35938C14.9902 8.25041 14.7102 8.25 14.1504 8.25H9.84961Z" fill="oklch(0.3523 0 0 / 1)" class="wd-icon-fill"></path>
</svg>