<svg width="24" height="24" viewBox="0 0 24 24" xmlns="http://www.w3.org/2000/svg" class="wd-icon wd-icon-list-view" role="presentation">
<g>
<path d="M5 17C5.55228 17 6 17.4477 6 18C6 18.5523 5.55228 19 5 19H3C2.44772 19 2 18.5523 2 18C2 17.4477 2.44772 17 3 17H5Z" fill="oklch(0.3523 0 0 / 1)" class="wd-icon-fill"></path>
<path d="M21 17C21.5523 17 22 17.4477 22 18C22 18.5523 21.5523 19 21 19H9C8.44772 19 8 18.5523 8 18C8 17.4477 8.44772 17 9 17H21Z" fill="oklch(0.3523 0 0 / 1)" class="wd-icon-fill"></path>
<path d="M5 13C5.55228 13 6 13.4477 6 14C6 14.5523 5.55228 15 5 15H3C2.44772 15 2 14.5523 2 14C2 13.4477 2.44772 13 3 13H5Z" fill="oklch(0.3523 0 0 / 1)" class="wd-icon-fill"></path>
<path d="M21 13C21.5523 13 22 13.4477 22 14C22 14.5523 21.5523 15 21 15H9C8.44772 15 8 14.5523 8 14C8 13.4477 8.44772 13 9 13H21Z" fill="oklch(0.3523 0 0 / 1)" class="wd-icon-fill"></path>
<path d="M5 9C5.55228 9 6 9.44772 6 10C6 10.5523 5.55228 11 5 11H3C2.44772 11 2 10.5523 2 10C2 9.44772 2.44772 9 3 9H5Z" fill="oklch(0.3523 0 0 / 1)" class="wd-icon-fill"></path>
<path d="M21 9C21.5523 9 22 9.44772 22 10C22 10.5523 21.5523 11 21 11H9C8.44772 11 8 10.5523 8 10C8 9.44772 8.44772 9 9 9H21Z" fill="oklch(0.3523 0 0 / 1)" class="wd-icon-fill"></path>
<path d="M5 5C5.55228 5 6 5.44772 6 6C6 6.55228 5.55228 7 5 7H3C2.44772 7 2 6.55228 2 6C2 5.44772 2.44772 5 3 5H5Z" fill="oklch(0.3523 0 0 / 1)" class="wd-icon-fill"></path>
<path d="M21 5C21.5523 5 22 5.44772 22 6C22 6.55228 21.5523 7 21 7H9C8.44772 7 8 6.55228 8 6C8 5.44772 8.44772 5 9 5H21Z" fill="oklch(0.3523 0 0 / 1)" class="wd-icon-fill"></path>
</g>
</svg>