<svg width="24" height="24" viewBox="0 0 24 24" xmlns="http://www.w3.org/2000/svg" class="wd-icon wd-icon-package-gear" role="presentation">
<path d="M15.1748 3C15.9703 3.00008 16.7334 3.31637 17.2959 3.87891L19.5381 6.12109C20.4758 7.05878 21.0029 8.33114 21.0029 9.65723V11C21.0029 11.5523 20.5552 12 20.0029 12C19.4506 12 19.0029 11.5523 19.0029 11V9.65723C19.0029 9.43417 18.9749 9.21432 18.9268 9H5.0791C5.03093 9.21432 5.00293 9.43417 5.00293 9.65723V18C5.00293 18.5523 5.45064 19 6.00293 19H11.0029C11.5552 19 12.0029 19.4477 12.0029 20C12.0029 20.5523 11.5552 21 11.0029 21H6.00293C4.34608 21 3.00293 19.6569 3.00293 18V9.65723C3.00293 8.33114 3.53009 7.05878 4.46777 6.12109L6.70996 3.87891C7.2725 3.31637 8.03551 3.00008 8.83105 3H15.1748ZM8.83105 5C8.56595 5.00008 8.31149 5.1055 8.12402 5.29297L6.41699 7H11.002V5H8.83105ZM13.002 7H17.5889L15.8818 5.29297C15.6944 5.1055 15.4399 5.00008 15.1748 5H13.002V7Z" fill="oklch(0.3523 0 0 / 1)" class="wd-icon-fill"></path>
<path d="M18.3398 13.6923C18.6566 13.3473 19.1714 13.2677 19.5771 13.5019L19.9238 13.703C20.3294 13.9374 20.5184 14.4222 20.3779 14.869L20.0049 16.0526L21.2178 16.3231C21.6747 16.4251 21.9997 16.8306 22 17.2987V17.7001C21.9999 18.1683 21.6747 18.5737 21.2178 18.6757L20.0049 18.9452L20.3779 20.1298C20.5186 20.5766 20.3293 21.0613 19.9238 21.2958L19.5771 21.497C19.1713 21.7313 18.6567 21.6518 18.3398 21.3065L17.5 20.3915L16.6611 21.3065C16.3444 21.6519 15.8297 21.7311 15.4238 21.497L15.0771 21.2968C14.6713 21.0624 14.4823 20.5768 14.623 20.1298L14.9951 18.9452L13.7832 18.6757C13.326 18.5739 12.9992 18.1685 12.999 17.7001V17.2987C12.9993 16.8304 13.3261 16.4249 13.7832 16.3231L14.9951 16.0526L14.623 14.869C14.4824 14.422 14.6713 13.9364 15.0771 13.702L15.4238 13.5019C15.8296 13.2679 16.3444 13.3471 16.6611 13.6923L17.5 14.6073L18.3398 13.6923ZM17.5029 15.9999C16.6746 15.9999 16.003 16.6716 16.0029 17.4999C16.0031 18.3282 16.6746 18.9999 17.5029 18.9999C18.3308 18.9994 19.0028 18.3279 19.0029 17.4999C19.0028 16.6719 18.3309 16.0004 17.5029 15.9999Z" fill="oklch(0.3523 0 0 / 1)" class="wd-icon-accent"></path>
</svg>