<svg width="24" height="24" viewBox="0 0 24 24" xmlns="http://www.w3.org/2000/svg" class="wd-icon wd-icon-bar-stack-chart" role="presentation">
<g>
<path d="M5.50001 11C5.71929 11 5.93385 10.9993 6.11524 11.0117C6.30561 11.0247 6.53159 11.0554 6.76563 11.1523C7.25548 11.3553 7.64468 11.7445 7.84766 12.2344C7.9446 12.4684 7.9753 12.6944 7.98829 12.8848C8.00066 13.0662 8.00001 13.2807 8.00001 13.5V18.5C8.00001 18.7193 8.00066 18.9339 7.98829 19.1152C7.9753 19.3056 7.9446 19.5316 7.84766 19.7656C7.64468 20.2555 7.25548 20.6447 6.76563 20.8477C6.53159 20.9446 6.30561 20.9753 6.11524 20.9883C5.93385 21.0007 5.71929 21 5.50001 21C5.28072 21 5.06616 21.0007 4.88477 20.9883C4.6944 20.9753 4.46842 20.9446 4.23438 20.8477C3.74454 20.6447 3.35533 20.2555 3.15235 19.7656C3.05541 19.5316 3.02471 19.3056 3.01172 19.1152C2.99935 18.9339 3.00001 18.7193 3.00001 18.5V13.5C3.00001 13.2807 2.99935 13.0662 3.01172 12.8848C3.02471 12.6944 3.05541 12.4684 3.15235 12.2344C3.35533 11.7445 3.74454 11.3553 4.23438 11.1523C4.46842 11.0554 4.6944 11.0247 4.88477 11.0117C5.06616 10.9993 5.28072 11 5.50001 11ZM5.02051 13.0068C5.01601 13.0072 5.01178 13.0075 5.00782 13.0078C5.00751 13.0118 5.00715 13.016 5.00684 13.0205C5.00019 13.118 5.00001 13.2534 5.00001 13.5V18.5C5.00001 18.7466 5.00019 18.882 5.00684 18.9795C5.00713 18.9836 5.00753 18.9875 5.00782 18.9912C5.0118 18.9915 5.01599 18.9929 5.02051 18.9932C5.11804 18.9998 5.25336 19 5.50001 19C5.74665 19 5.88198 18.9998 5.9795 18.9932C5.98366 18.9929 5.98752 18.9915 5.99122 18.9912C5.99151 18.9875 5.99288 18.9837 5.99317 18.9795C5.99982 18.882 6.00001 18.7467 6.00001 18.5V13.5C6.00001 13.2534 5.99982 13.118 5.99317 13.0205C5.99286 13.016 5.99153 13.0118 5.99122 13.0078C5.98754 13.0075 5.98363 13.0071 5.9795 13.0068C5.88198 13.0002 5.74665 13 5.50001 13C5.25336 13 5.11804 13.0002 5.02051 13.0068Z" fill="oklch(0.3523 0 0 / 1)" class="wd-icon-fill"></path>
<path d="M12 14C12.2193 14 12.4339 13.9993 12.6152 14.0117C12.8056 14.0247 13.0316 14.0554 13.2656 14.1523C13.7555 14.3553 14.1447 14.7445 14.3477 15.2344C14.4446 15.4684 14.4753 15.6944 14.4883 15.8848C14.5007 16.0662 14.5 16.2807 14.5 16.5V18.5C14.5 18.7193 14.5007 18.9339 14.4883 19.1152C14.4753 19.3056 14.4446 19.5316 14.3477 19.7656C14.1447 20.2555 13.7555 20.6447 13.2656 20.8477C13.0316 20.9446 12.8056 20.9753 12.6152 20.9883C12.4339 21.0007 12.2193 21 12 21C11.7807 21 11.5662 21.0007 11.3848 20.9883C11.1944 20.9753 10.9684 20.9446 10.7344 20.8477C10.2445 20.6447 9.85533 20.2555 9.65235 19.7656C9.55541 19.5316 9.52471 19.3056 9.51172 19.1152C9.49935 18.9339 9.50001 18.7193 9.50001 18.5V16.5C9.50001 16.2807 9.49935 16.0662 9.51172 15.8848C9.52471 15.6944 9.55541 15.4684 9.65235 15.2344C9.85533 14.7445 10.2445 14.3553 10.7344 14.1523C10.9684 14.0554 11.1944 14.0247 11.3848 14.0117C11.5662 13.9993 11.7807 14 12 14ZM11.5205 16.0068C11.516 16.0072 11.5118 16.0075 11.5078 16.0078C11.5075 16.0118 11.5072 16.016 11.5068 16.0205C11.5002 16.118 11.5 16.2534 11.5 16.5V18.5C11.5 18.7466 11.5002 18.882 11.5068 18.9795C11.5071 18.9836 11.5075 18.9875 11.5078 18.9912C11.5118 18.9915 11.516 18.9929 11.5205 18.9932C11.618 18.9998 11.7534 19 12 19C12.2466 19 12.382 18.9998 12.4795 18.9932C12.4837 18.9929 12.4875 18.9915 12.4912 18.9912C12.4915 18.9875 12.4929 18.9837 12.4932 18.9795C12.4998 18.882 12.5 18.7467 12.5 18.5V16.5C12.5 16.2534 12.4998 16.118 12.4932 16.0205C12.4929 16.016 12.4915 16.0118 12.4912 16.0078C12.4875 16.0075 12.4836 16.0071 12.4795 16.0068C12.382 16.0002 12.2466 16 12 16C11.7534 16 11.618 16.0002 11.5205 16.0068Z" fill="oklch(0.3523 0 0 / 1)" class="wd-icon-fill"></path>
<path d="M18.5 12C18.7193 12 18.9339 11.9993 19.1152 12.0117C19.3056 12.0247 19.5316 12.0554 19.7656 12.1523C20.2555 12.3553 20.6447 12.7445 20.8477 13.2344C20.9446 13.4684 20.9753 13.6944 20.9883 13.8848C21.0007 14.0662 21 14.2807 21 14.5V18.5C21 18.7193 21.0007 18.9339 20.9883 19.1152C20.9753 19.3056 20.9446 19.5316 20.8477 19.7656C20.6447 20.2555 20.2555 20.6447 19.7656 20.8477C19.5316 20.9446 19.3056 20.9753 19.1152 20.9883C18.9339 21.0007 18.7193 21 18.5 21C18.2807 21 18.0662 21.0007 17.8848 20.9883C17.6944 20.9753 17.4684 20.9446 17.2344 20.8477C16.7445 20.6447 16.3553 20.2555 16.1523 19.7656C16.0554 19.5316 16.0247 19.3056 16.0117 19.1152C15.9993 18.9339 16 18.7193 16 18.5V14.5C16 14.2807 15.9993 14.0662 16.0117 13.8848C16.0247 13.6944 16.0554 13.4684 16.1523 13.2344C16.3553 12.7445 16.7445 12.3553 17.2344 12.1523C17.4684 12.0554 17.6944 12.0247 17.8848 12.0117C18.0662 11.9993 18.2807 12 18.5 12ZM18.0205 14.0068C18.016 14.0072 18.0118 14.0075 18.0078 14.0078C18.0075 14.0118 18.0072 14.016 18.0068 14.0205C18.0002 14.118 18 14.2534 18 14.5V18.5C18 18.7466 18.0002 18.882 18.0068 18.9795C18.0071 18.9836 18.0075 18.9875 18.0078 18.9912C18.0118 18.9915 18.016 18.9929 18.0205 18.9932C18.118 18.9998 18.2534 19 18.5 19C18.7466 19 18.882 18.9998 18.9795 18.9932C18.9837 18.9929 18.9875 18.9915 18.9912 18.9912C18.9915 18.9875 18.9929 18.9837 18.9932 18.9795C18.9998 18.882 19 18.7467 19 18.5V14.5C19 14.2534 18.9998 14.118 18.9932 14.0205C18.9929 14.016 18.9915 14.0118 18.9912 14.0078C18.9875 14.0075 18.9836 14.0071 18.9795 14.0068C18.882 14.0002 18.7466 14 18.5 14C18.2534 14 18.118 14.0002 18.0205 14.0068Z" fill="oklch(0.3523 0 0 / 1)" class="wd-icon-fill"></path>
</g>
<g>
<path d="M12 2.00001C12.2193 2.00001 12.4339 1.99935 12.6152 2.01172C12.8056 2.02471 13.0316 2.05541 13.2656 2.15235C13.7555 2.35533 14.1447 2.74453 14.3477 3.23438C14.4446 3.46842 14.4753 3.6944 14.4883 3.88477C14.5007 4.06616 14.5 4.28072 14.5 4.50001V10.5C14.5 10.7193 14.5007 10.9339 14.4883 11.1152C14.4753 11.3056 14.4446 11.5316 14.3477 11.7656C14.1447 12.2555 13.7555 12.6447 13.2656 12.8477C13.0316 12.9446 12.8056 12.9753 12.6152 12.9883C12.4339 13.0007 12.2193 13 12 13C11.7807 13 11.5662 13.0007 11.3848 12.9883C11.1944 12.9753 10.9684 12.9446 10.7344 12.8477C10.2445 12.6447 9.85533 12.2555 9.65235 11.7656C9.55541 11.5316 9.52471 11.3056 9.51172 11.1152C9.49935 10.9339 9.50001 10.7193 9.50001 10.5V4.50001C9.50001 4.28072 9.49935 4.06616 9.51172 3.88477C9.52471 3.6944 9.55541 3.46842 9.65235 3.23438C9.85533 2.74453 10.2445 2.35533 10.7344 2.15235C10.9684 2.05541 11.1944 2.02471 11.3848 2.01172C11.5662 1.99935 11.7807 2.00001 12 2.00001Z" fill="oklch(0.3523 0 0 / 1)" class="wd-icon-accent"></path>
<path d="M18.5 4.00001C18.7193 4.00001 18.9339 3.99935 19.1152 4.01172C19.3056 4.02471 19.5316 4.05541 19.7656 4.15235C20.2555 4.35533 20.6447 4.74453 20.8477 5.23438C20.9446 5.46842 20.9753 5.6944 20.9883 5.88477C21.0007 6.06616 21 6.28072 21 6.50001V8.50001C21 8.71929 21.0007 8.93385 20.9883 9.11524C20.9753 9.30561 20.9446 9.53159 20.8477 9.76563C20.6447 10.2555 20.2555 10.6447 19.7656 10.8477C19.5316 10.9446 19.3056 10.9753 19.1152 10.9883C18.9339 11.0007 18.7193 11 18.5 11C18.2807 11 18.0662 11.0007 17.8848 10.9883C17.6944 10.9753 17.4684 10.9446 17.2344 10.8477C16.7445 10.6447 16.3553 10.2555 16.1523 9.76563C16.0554 9.53159 16.0247 9.30561 16.0117 9.11524C15.9993 8.93385 16 8.71929 16 8.50001V6.50001C16 6.28072 15.9993 6.06616 16.0117 5.88477C16.0247 5.6944 16.0554 5.46842 16.1523 5.23438C16.3553 4.74453 16.7445 4.35533 17.2344 4.15235C17.4684 4.05541 17.6944 4.02471 17.8848 4.01172C18.0662 3.99935 18.2807 4.00001 18.5 4.00001Z" fill="oklch(0.3523 0 0 / 1)" class="wd-icon-accent"></path>
<path d="M5.50001 5.00001C5.71929 5.00001 5.93385 4.99935 6.11524 5.01172C6.30561 5.02471 6.53159 5.05541 6.76563 5.15235C7.25548 5.35533 7.64468 5.74453 7.84766 6.23438C7.94461 6.46842 7.9753 6.6944 7.98829 6.88477C8.00066 7.06616 8.00001 7.28072 8.00001 7.50001C8.00001 7.71929 8.00066 7.93385 7.98829 8.11524C7.9753 8.30561 7.94461 8.53159 7.84766 8.76563C7.64468 9.25548 7.25548 9.64468 6.76563 9.84766C6.53159 9.94461 6.30561 9.9753 6.11524 9.98829C5.93385 10.0007 5.71929 10 5.50001 10C5.28072 10 5.06616 10.0007 4.88477 9.98829C4.6944 9.9753 4.46842 9.9446 4.23438 9.84766C3.74453 9.64468 3.35533 9.25548 3.15235 8.76563C3.05541 8.53159 3.02471 8.30561 3.01172 8.11524C2.99935 7.93385 3.00001 7.71929 3.00001 7.50001C3.00001 7.28072 2.99935 7.06616 3.01172 6.88477C3.02471 6.6944 3.05541 6.46842 3.15235 6.23438C3.35533 5.74453 3.74453 5.35533 4.23438 5.15235C4.46842 5.05541 4.6944 5.02471 4.88477 5.01172C5.06616 4.99935 5.28072 5.00001 5.50001 5.00001Z" fill="oklch(0.3523 0 0 / 1)" class="wd-icon-accent"></path>
</g>
</svg>