<svg width="24" height="24" viewBox="0 0 24 24" xmlns="http://www.w3.org/2000/svg" class="wd-icon wd-icon-user-check" role="presentation">
<g>
<path d="M12 12C12.1644 12 12.3281 12.0033 12.4912 12.0088C12.4941 12.0088 12.4971 12.0087 12.5 12.0088C12.5251 12.0096 12.5501 12.0107 12.5752 12.0117C12.6587 12.015 12.742 12.0197 12.8252 12.0244C12.8734 12.0271 12.9216 12.029 12.9697 12.0322C13.0713 12.039 13.1725 12.0468 13.2734 12.0557C13.3112 12.059 13.349 12.0618 13.3867 12.0654C13.4112 12.0678 13.4355 12.0718 13.46 12.0742C13.6334 12.0916 13.8059 12.1113 13.9775 12.1348C14.0078 12.1389 14.0381 12.1431 14.0684 12.1475C14.1627 12.161 14.2568 12.1751 14.3506 12.1904C14.3653 12.1928 14.3799 12.1958 14.3945 12.1982C14.4902 12.2142 14.5856 12.2303 14.6807 12.248C14.7394 12.259 14.798 12.2705 14.8564 12.2822C14.9256 12.2961 14.9946 12.3104 15.0635 12.3252C15.1452 12.3428 15.2264 12.3619 15.3076 12.3809C15.366 12.3945 15.4244 12.4076 15.4824 12.4219C15.5536 12.4394 15.6245 12.458 15.6953 12.4766C15.7353 12.4871 15.7755 12.497 15.8154 12.5078C15.8207 12.5092 15.8259 12.5121 15.8311 12.5137C17.0101 12.8358 18.1299 13.3015 19.1689 13.8936C19.4088 14.0302 19.4817 14.3392 19.3369 14.5742L18.8125 15.4258C18.6677 15.6609 18.3598 15.7338 18.1191 15.5986C17.0814 15.0148 15.9516 14.5746 14.7568 14.3057C14.5013 14.2482 14.2428 14.1988 13.9814 14.1572C13.7571 14.1215 13.5309 14.091 13.3027 14.0674C13.2816 14.0652 13.2604 14.0626 13.2393 14.0605C13.0697 14.0439 12.899 14.0323 12.7275 14.0225C12.4868 14.0086 12.2443 14 12 14C8.95518 14 6.16846 15.0895 4 16.8984V20H11.5C11.7761 20 12 20.2239 12 20.5V21.5C12 21.7488 11.818 21.9527 11.5801 21.9912C11.5813 21.9942 11.5828 21.997 11.584 22H3.5C2.72334 22 2.08461 21.4097 2.00781 20.6533L2 20.5V16.6611L2.00879 16.5029C2.04773 16.1358 2.2218 15.7869 2.51367 15.5342L2.99902 15.1318C5.47159 13.1717 8.59996 12 12 12Z" fill="oklch(0.3523 0 0 / 1)" class="wd-icon-fill"></path>
<path d="M12 1C14.7614 1 17 3.23858 17 6C17 8.76142 14.7614 11 12 11C9.23858 11 7 8.76142 7 6C7 3.23858 9.23858 1 12 1ZM12 3C10.3431 3 9 4.34315 9 6C9 7.65685 10.3431 9 12 9C13.6569 9 15 7.65685 15 6C15 4.34315 13.6569 3 12 3Z" fill="oklch(0.3523 0 0 / 1)" class="wd-icon-fill"></path>
</g>
<path d="M20.9394 16.6464C21.1346 16.4512 21.4512 16.4512 21.6464 16.6464L22.3534 17.3534C22.5485 17.5487 22.5486 17.8653 22.3534 18.0605L17.707 22.7069C17.3165 23.0974 16.6834 23.0971 16.2929 22.7069L14.1464 20.5605C13.9512 20.3652 13.9512 20.0487 14.1464 19.8534L14.8534 19.1464C15.0487 18.9512 15.3652 18.9512 15.5605 19.1464L16.9999 20.5859L20.9394 16.6464Z" fill="oklch(0.3523 0 0 / 1)" class="wd-icon-accent"></path>
</svg>