<svg width="24" height="24" viewBox="0 0 24 24" xmlns="http://www.w3.org/2000/svg" class="wd-icon wd-icon-question-sparkle" role="presentation">
<path d="M12.9972 3.05566C14.0036 3.16657 14.9596 3.44359 15.838 3.8584C15.7287 3.88727 15.6177 3.91243 15.505 3.93262C15.2242 3.98301 15.0001 4.2147 15.0001 4.5C15.0001 4.78536 15.2241 5.01801 15.505 5.06836C17.2471 5.38063 18.6206 6.75393 18.9328 8.49609C18.983 8.77662 19.2152 9.00083 19.5001 9.00098C19.7852 9.00088 20.0173 8.77666 20.0675 8.49609C20.0878 8.38289 20.1117 8.27103 20.1408 8.16113C20.5558 9.03963 20.8324 9.99549 20.9435 11.002C20.4176 11.0313 20.0001 11.4667 20.0001 12C20.0001 13.5822 19.5305 15.1288 18.6515 16.4443C17.7725 17.7598 16.5233 18.7851 15.0617 19.3906C13.6 19.996 11.9913 20.1552 10.4396 19.8467C8.88786 19.538 7.46168 18.776 6.34292 17.6572C5.22415 16.5384 4.46214 15.1123 4.15346 13.5605C3.84486 12.0088 4.00408 10.4002 4.60952 8.93848C5.21501 7.47683 6.24036 6.22763 7.55581 5.34863C8.87133 4.46967 10.418 4.00003 12.0001 4C12.5336 3.99991 12.9683 3.58197 12.9972 3.05566ZM12.0001 14.875C11.379 14.8751 10.8751 15.3788 10.8751 16C10.8751 16.6212 11.379 17.1249 12.0001 17.125C12.6214 17.1249 13.1251 16.6213 13.1251 16C13.1251 15.3787 12.6214 14.8751 12.0001 14.875ZM12.3751 6.625C11.2356 6.62505 10.4514 6.95492 9.92788 7.42871C9.41773 7.8907 9.23607 8.41918 9.16323 8.6377C9.14115 8.70396 9.13139 8.77135 9.12807 8.83789C9.12701 8.85977 9.12625 8.88151 9.1271 8.90332C9.12806 8.92837 9.13147 8.95291 9.13491 8.97754C9.13814 9.00081 9.14124 9.02401 9.14663 9.04688C9.15272 9.07254 9.16135 9.09727 9.17007 9.12207C9.17697 9.14184 9.18397 9.16149 9.19253 9.18066C9.2034 9.20492 9.21627 9.22799 9.22964 9.25098C9.2402 9.26915 9.25069 9.28736 9.26284 9.30469C9.27918 9.32802 9.29758 9.34967 9.31655 9.37109C9.33373 9.39043 9.35085 9.41004 9.37026 9.42773C9.37583 9.43284 9.38112 9.43842 9.38686 9.44336C9.40966 9.4629 9.43352 9.48194 9.45913 9.49902C9.4672 9.50438 9.47633 9.50865 9.48452 9.51367C9.49665 9.52108 9.50898 9.5284 9.52163 9.53516L9.52554 9.53809L9.56655 9.55859C9.57157 9.56083 9.5771 9.5623 9.58218 9.56445C9.5886 9.56719 9.59524 9.56972 9.60171 9.57227C9.61369 9.57697 9.62549 9.58279 9.63784 9.58691C9.66679 9.59655 9.69656 9.6034 9.72573 9.60938C9.73251 9.61075 9.73944 9.6121 9.74624 9.61328C9.77549 9.61841 9.80499 9.61849 9.83413 9.62012C9.8573 9.62138 9.88036 9.62296 9.90346 9.62207C9.92948 9.62107 9.95506 9.61792 9.98061 9.61426C10.0032 9.61103 10.0258 9.6078 10.048 9.60254C10.0706 9.59713 10.0924 9.58947 10.1144 9.58203C10.1385 9.57389 10.1624 9.56528 10.1857 9.55469C10.2085 9.54424 10.2304 9.5322 10.2521 9.51953C10.27 9.50907 10.2877 9.49833 10.3048 9.48633C10.3295 9.46902 10.3526 9.44994 10.3751 9.42969C10.3913 9.4151 10.408 9.40093 10.423 9.38477C10.431 9.37618 10.4388 9.36739 10.4464 9.3584C10.4646 9.33684 10.4831 9.31504 10.4992 9.29102C10.7369 8.93441 11.1907 8.25012 12.2501 8.25C13.1117 8.25008 13.7501 8.80052 13.7501 9.5C13.7501 10.0276 13.447 10.3208 12.7912 10.8291C12.2294 11.2645 11.2501 11.9498 11.2501 13.25C11.2501 13.3125 11.2602 13.3726 11.2746 13.4307C11.281 13.4563 11.289 13.4812 11.298 13.5059C11.3064 13.5289 11.3158 13.5513 11.3263 13.5732C11.3352 13.5917 11.3453 13.6093 11.3556 13.627C11.3701 13.6516 11.3854 13.6755 11.4025 13.6982C11.4146 13.7144 11.4272 13.73 11.4406 13.7451C11.4579 13.7646 11.476 13.7832 11.4953 13.8008C11.5128 13.8169 11.5308 13.8322 11.5499 13.8467C11.5694 13.8614 11.5896 13.8749 11.6105 13.8877C11.6393 13.9053 11.6687 13.9227 11.7003 13.9365C11.7062 13.9391 11.712 13.9419 11.7179 13.9443C11.7379 13.9525 11.7584 13.9603 11.7794 13.9668C11.8328 13.9832 11.8871 13.9918 11.9406 13.9961C11.9602 13.9977 11.9801 14 12.0001 14C12.0632 14 12.1242 13.9893 12.1828 13.9746C12.2063 13.9687 12.2293 13.9613 12.2521 13.9531C12.2765 13.9444 12.3003 13.9349 12.3234 13.9238C12.3431 13.9144 12.3622 13.9037 12.381 13.8926C12.4025 13.8798 12.4234 13.8664 12.4435 13.8516C12.4649 13.8358 12.4853 13.8188 12.505 13.8008C12.5193 13.7877 12.5328 13.7739 12.546 13.7598C12.5654 13.739 12.5837 13.7174 12.6007 13.6943C12.6136 13.677 12.6255 13.6591 12.6369 13.6406C12.6561 13.6092 12.6759 13.5777 12.6906 13.543C12.6924 13.5386 12.6927 13.5337 12.6945 13.5293C12.7022 13.51 12.7107 13.4909 12.7169 13.4707C12.8856 12.9228 13.3427 12.5755 14.0402 12C14.6569 11.4912 15.5001 10.758 15.5001 9.5C15.5001 8.77191 15.2554 8.03852 14.7023 7.48535C14.1447 6.92779 13.3457 6.62504 12.3751 6.625Z" fill="transparent" class="wd-icon-background"></path>
<g>
<path d="M11.9999 2C12.5522 2 12.9999 2.44772 12.9999 3C12.9999 3.55228 12.5522 4 11.9999 4C10.4178 4.00005 8.87112 4.46963 7.5556 5.34863C6.24015 6.22764 5.21479 7.47682 4.60931 8.93848C4.00387 10.4002 3.84466 12.0088 4.15325 13.5605C4.46192 15.1123 5.22395 16.5384 6.34271 17.6572C7.46147 18.776 8.88763 19.538 10.4394 19.8467C11.9911 20.1553 13.5998 19.996 15.0615 19.3906C16.5231 18.7851 17.7723 17.7598 18.6513 16.4443C19.5304 15.1287 19.9999 13.5823 19.9999 12C19.9999 11.4478 20.4478 11.0001 20.9999 11C21.5522 11 21.9999 11.4477 21.9999 12C21.9999 13.9778 21.4132 15.9112 20.3144 17.5557C19.2156 19.2 17.6542 20.4824 15.8271 21.2393C13.9999 21.9961 11.9885 22.1935 10.0488 21.8076C8.10916 21.4217 6.32704 20.4697 4.92864 19.0713C3.53026 17.6729 2.5782 15.8908 2.19232 13.9512C1.80648 12.0114 2.00383 10.0001 2.76068 8.17285C3.51752 6.34573 4.79993 4.78433 6.44427 3.68555C8.08869 2.58678 10.0222 2.00005 11.9999 2Z" fill="oklch(0.3523 0 0 / 1)" class="wd-icon-fill"></path>
<path d="M11.9999 14.875C12.6213 14.875 13.1249 15.3787 13.1249 16C13.1249 16.6213 12.6213 17.125 11.9999 17.125C11.3788 17.1248 10.8749 16.6212 10.8749 16C10.8749 15.3788 11.3788 14.8752 11.9999 14.875Z" fill="oklch(0.3523 0 0 / 1)" class="wd-icon-fill"></path>
<path d="M12.3749 6.625C13.3455 6.625 14.1444 6.92778 14.7021 7.48535C15.2553 8.03853 15.4999 8.77187 15.4999 9.5C15.4999 10.7581 14.6567 11.4912 14.04 12C13.3424 12.5755 12.8853 12.9227 12.7167 13.4707C12.7105 13.4909 12.702 13.51 12.6943 13.5293C12.6925 13.5337 12.6922 13.5386 12.6904 13.543C12.6757 13.5777 12.6559 13.6092 12.6367 13.6406C12.6253 13.6591 12.6134 13.6769 12.6005 13.6943C12.5834 13.7174 12.5653 13.739 12.5458 13.7598C12.5326 13.774 12.5191 13.7877 12.5048 13.8008C12.4847 13.8192 12.4642 13.8365 12.4423 13.8525C12.4237 13.8662 12.4045 13.8787 12.3847 13.8906C12.364 13.903 12.343 13.9144 12.3212 13.9248C12.2989 13.9354 12.2763 13.9447 12.2529 13.9531C12.2297 13.9614 12.2065 13.9686 12.1826 13.9746C12.124 13.9893 12.0631 14 11.9999 14C11.9798 14 11.9601 13.9977 11.9404 13.9961C11.9108 13.9937 11.8811 13.9904 11.8515 13.9844C11.8492 13.9839 11.847 13.9829 11.8447 13.9824C11.823 13.9778 11.8008 13.9734 11.7792 13.9668C11.7582 13.9603 11.7378 13.9525 11.7177 13.9443C11.7118 13.9419 11.706 13.9391 11.7001 13.9365C11.6684 13.9227 11.6392 13.9053 11.6103 13.8877C11.5894 13.8749 11.5692 13.8614 11.5497 13.8467C11.5306 13.8322 11.5126 13.8169 11.4951 13.8008C11.4765 13.7837 11.4591 13.7659 11.4423 13.7471C11.4272 13.73 11.4128 13.7126 11.3993 13.6943C11.3847 13.6746 11.372 13.6539 11.3593 13.6328C11.3472 13.6126 11.3353 13.5926 11.3251 13.5713C11.315 13.55 11.3059 13.5282 11.2978 13.5059C11.2888 13.4812 11.2807 13.4563 11.2743 13.4307C11.26 13.3726 11.2499 13.3125 11.2499 13.25C11.2499 11.9498 12.2292 11.2645 12.7909 10.8291C13.4469 10.3207 13.7499 10.0276 13.7499 9.5C13.7499 8.80047 13.1116 8.25 12.2499 8.25C11.1905 8.25015 10.7367 8.93444 10.499 9.29102C10.4828 9.31529 10.4646 9.33762 10.4462 9.35938C10.4396 9.36714 10.4326 9.37438 10.4257 9.38184C10.4084 9.40072 10.3889 9.41684 10.3701 9.43359C10.3491 9.45211 10.3284 9.47032 10.3056 9.48633C10.2882 9.49854 10.2701 9.50891 10.2519 9.51953C10.2301 9.53222 10.2084 9.54423 10.1855 9.55469C10.1622 9.5653 10.1384 9.57387 10.1142 9.58203C10.0922 9.58949 10.0705 9.59713 10.0478 9.60254C10.0255 9.60782 10.0031 9.61103 9.9804 9.61426C9.95479 9.61793 9.92933 9.62108 9.90325 9.62207C9.88009 9.62296 9.85715 9.62138 9.83392 9.62012C9.80435 9.61847 9.77473 9.61758 9.74505 9.6123C9.7392 9.61127 9.73331 9.61055 9.72747 9.60938C9.69764 9.60334 9.66723 9.59678 9.63763 9.58691C9.62523 9.58277 9.61353 9.57698 9.6015 9.57227C9.59498 9.5697 9.58844 9.56721 9.58196 9.56445C9.57683 9.56228 9.5714 9.56087 9.56634 9.55859L9.52532 9.53809L9.52142 9.53516C9.50873 9.52837 9.49648 9.52111 9.48431 9.51367C9.4761 9.50864 9.467 9.50441 9.45892 9.49902C9.43327 9.48191 9.40948 9.46293 9.38665 9.44336C9.38088 9.43839 9.37566 9.43287 9.37005 9.42773C9.35061 9.41001 9.33355 9.39046 9.31634 9.37109C9.29735 9.34964 9.27898 9.32806 9.26263 9.30469C9.25046 9.28733 9.24 9.26918 9.22943 9.25098C9.21605 9.22797 9.20319 9.20494 9.19232 9.18066C9.18375 9.16147 9.17677 9.14185 9.16986 9.12207C9.16114 9.09726 9.15251 9.07256 9.14642 9.04688C9.14103 9.024 9.13793 9.00082 9.1347 8.97754C9.13126 8.95291 9.12785 8.92837 9.12689 8.90332C9.12604 8.88151 9.1268 8.85977 9.12786 8.83789C9.13118 8.77136 9.14094 8.70396 9.16302 8.6377C9.23584 8.41922 9.41751 7.89072 9.92767 7.42871C10.4511 6.95488 11.2353 6.62507 12.3749 6.625Z" fill="oklch(0.3523 0 0 / 1)" class="wd-icon-fill"></path>
<path d="M19.4999 0C19.785 0 20.0171 0.224256 20.0673 0.504883C20.3793 2.24709 21.7538 3.62051 23.496 3.93262C23.7767 3.98314 23.9999 4.21482 23.9999 4.5C23.9999 4.78524 23.7767 5.01788 23.496 5.06836C21.7538 5.38058 20.3794 6.75382 20.0673 8.49609C20.0171 8.77672 19.785 9.00098 19.4999 9.00098C19.215 9.0008 18.9828 8.77661 18.9326 8.49609C18.6204 6.75388 17.247 5.38057 15.5048 5.06836C15.224 5.01799 14.9999 4.78534 14.9999 4.5C14.9999 4.21472 15.224 3.98303 15.5048 3.93262C17.247 3.62052 18.6205 2.24703 18.9326 0.504883C18.9828 0.224368 19.215 0.000177789 19.4999 0Z" fill="oklch(0.3523 0 0 / 1)" class="wd-icon-fill"></path>
</g>
</svg>