<svg width="24" height="24" viewBox="0 0 24 24" xmlns="http://www.w3.org/2000/svg" class="wd-icon wd-icon-camera-plus" role="presentation">
<path d="M12 2C13.7337 2 15.3225 2.63147 16.5449 3.67578C16.7102 3.81698 16.8364 3.98923 16.9229 4.1748L16.9961 4.36523L17.1924 5H21.5C22.3284 5 23 5.67157 23 6.5V13.5C23 13.7761 22.7761 14 22.5 14H21.5C21.2239 14 21 13.7761 21 13.5V7H15.7178L15.1318 5.10352C14.2743 4.41317 13.1868 4 12 4C10.8129 4 9.7248 4.41288 8.86719 5.10352L8.28223 7H3V18H12.5C12.7761 18 13 18.2239 13 18.5V19.5C13 19.7761 12.7761 20 12.5 20H2.5C1.72334 20 1.08461 19.4097 1.00781 18.6533L1 18.5V6.5C1 5.67157 1.67157 5 2.5 5H6.80762L7.00391 4.36523L7.07715 4.1748C7.16359 3.98923 7.28984 3.81698 7.45508 3.67578L7.68848 3.48535C8.87661 2.55534 10.3745 2 12 2Z" fill="oklch(0.3523 0 0 / 1)" class="wd-icon-fill"></path>
<g>
<path d="M19.4951 15C19.7713 15 19.9951 15.2239 19.9951 15.5V17.9951H22.5C22.7761 17.9951 23 18.219 23 18.4951V19.4951C23 19.7713 22.7761 19.9951 22.5 19.9951H19.9951V22.5C19.9951 22.7761 19.7713 23 19.4951 23H18.4951C18.219 23 17.9951 22.7761 17.9951 22.5V19.9951H15.5C15.2239 19.9951 15 19.7713 15 19.4951V18.4951C15 18.219 15.2239 17.9951 15.5 17.9951H17.9951V15.5C17.9951 15.2239 18.219 15 18.4951 15H19.4951Z" fill="oklch(0.3523 0 0 / 1)" class="wd-icon-accent"></path>
<path d="M12 7C14.7614 7 17 9.23858 17 12C17 14.7614 14.7614 17 12 17C9.23858 17 7 14.7614 7 12C7 9.23858 9.23858 7 12 7ZM12 9C10.3431 9 9 10.3431 9 12C9 13.6569 10.3431 15 12 15C13.6569 15 15 13.6569 15 12C15 10.3431 13.6569 9 12 9Z" fill="oklch(0.3523 0 0 / 1)" class="wd-icon-accent"></path>
</g>
</svg>