<svg width="24" height="24" viewBox="0 0 24 24" xmlns="http://www.w3.org/2000/svg" class="wd-icon wd-icon-toggle" role="presentation">
<path d="M15 7C17.7614 7 20 9.23858 20 12C20 14.7614 17.7614 17 15 17H9C6.23858 17 4 14.7614 4 12C4 9.23858 6.23858 7 9 7H15ZM9 8.25C6.92893 8.25 5.25 9.92893 5.25 12C5.25 14.0711 6.92893 15.75 9 15.75C11.0711 15.75 12.75 14.0711 12.75 12C12.75 9.92893 11.0711 8.25 9 8.25Z" fill="transparent" class="wd-icon-background"></path>
<path d="M15 5C18.866 5 22 8.13401 22 12C22 15.866 18.866 19 15 19H9C5.13401 19 2 15.866 2 12C2 8.13401 5.13401 5 9 5H15ZM9 7C6.23858 7 4 9.23858 4 12C4 14.7614 6.23858 17 9 17H15C17.7614 17 20 14.7614 20 12C20 9.23858 17.7614 7 15 7H9Z" fill="oklch(0.3523 0 0 / 1)" class="wd-icon-fill"></path>
<path d="M9 8.25C11.0711 8.25 12.75 9.92893 12.75 12C12.75 14.0711 11.0711 15.75 9 15.75C6.92893 15.75 5.25 14.0711 5.25 12C5.25 9.92893 6.92893 8.25 9 8.25Z" fill="oklch(0.3523 0 0 / 1)" class="wd-icon-accent"></path>
</svg>