<svg width="24" height="24" viewBox="0 0 24 24" xmlns="http://www.w3.org/2000/svg" class="wd-icon wd-icon-clock-exclamation" role="presentation">
<g>
<path d="M7.24722 4.35814C8.84414 3.36512 10.7126 2.89726 12.589 3.02025C14.4654 3.14329 16.2565 3.85077 17.7101 5.04369C19.1635 6.23663 20.2068 7.85537 20.6935 9.67162C20.8361 10.2049 20.5198 10.7533 19.9865 10.8962C19.4532 11.0391 18.905 10.7224 18.7619 10.1892C18.3833 8.77648 17.5711 7.51745 16.4406 6.58959C15.3101 5.66187 13.9175 5.11105 12.4582 5.01537C10.9987 4.91971 9.54589 5.28407 8.30386 6.05639C7.0619 6.82873 6.09306 7.97081 5.53336 9.32201C4.97372 10.6732 4.85067 12.1662 5.18277 13.5906C5.51495 15.0148 6.2854 16.2992 7.38492 17.2634C8.48443 18.2276 9.85829 18.8231 11.3136 18.9665C12.7691 19.1099 14.2336 18.7944 15.5002 18.0632C15.9784 17.7871 16.5901 17.9504 16.8664 18.4285C17.1423 18.9067 16.9783 19.5185 16.5002 19.7947C14.8717 20.7348 12.9896 21.142 11.1183 20.9578C9.24693 20.7734 7.47939 20.0072 6.06558 18.7673C4.65202 17.5276 3.66256 15.8757 3.23551 14.0447C2.80851 12.2134 2.96614 10.2937 3.6857 8.55639C4.40529 6.81934 5.65063 5.3511 7.24722 4.35814Z" fill="oklch(0.3523 0 0 / 1)" class="wd-icon-fill"></path>
<path d="M12.0002 7.00072C12.4144 7.00072 12.7502 7.33651 12.7502 7.75072V11.6902L15.0304 13.9704C15.3233 14.2633 15.3233 14.7381 15.0304 15.031C14.7375 15.3238 14.2627 15.3238 13.9699 15.031L11.6164 12.6775C11.382 12.4431 11.2502 12.1251 11.2502 11.7937V7.75072C11.2502 7.33656 11.586 7.00081 12.0002 7.00072Z" fill="oklch(0.3523 0 0 / 1)" class="wd-icon-fill"></path>
</g>
<g>
<path d="M19.9961 20.001C20.5484 20.001 20.9961 20.4487 20.9961 21.001C20.9961 21.5533 20.5484 22.001 19.9961 22.001C19.4438 22.001 18.9961 21.5533 18.9961 21.001C18.9961 20.4487 19.4438 20.001 19.9961 20.001Z" fill="oklch(0.3523 0 0 / 1)" class="wd-icon-accent"></path>
<path d="M19.9961 13.001C20.5374 13.001 20.9661 13.4589 20.9307 13.999L20.6416 18.3965C20.6192 18.7366 20.337 19.001 19.9961 19.001C19.6552 19.0009 19.373 18.7366 19.3506 18.3965L19.0615 13.999C19.0261 13.4588 19.4547 13.001 19.9961 13.001Z" fill="oklch(0.3523 0 0 / 1)" class="wd-icon-accent"></path>
</g>
</svg>