<svg width="24" height="24" viewBox="0 0 24 24" xmlns="http://www.w3.org/2000/svg" class="wd-icon wd-icon-insert-column-after" role="presentation">
<g>
<path d="M9 10.5C9 10.2239 9.22386 10 9.5 10H12.5C12.7761 10 13 10.2239 13 10.5V18.5C13 18.7761 12.7761 19 12.5 19H9.5C9.22386 19 9 18.7761 9 18.5V10.5Z" fill="transparent" class="wd-icon-background"></path>
<path d="M16 3.5C16 3.22386 16.2239 3 16.5 3H19.5C19.7761 3 20 3.22386 20 3.5V11.5C20 11.7761 19.7761 12 19.5 12H16.5C16.2239 12 16 11.7761 16 11.5V3.5Z" fill="transparent" class="wd-icon-background"></path>
<path d="M2 10.5C2 10.2239 2.22386 10 2.5 10H5.5C5.77614 10 6 10.2239 6 10.5V18.5C6 18.7761 5.77614 19 5.5 19H2.5C2.22386 19 2 18.7761 2 18.5V10.5Z" fill="transparent" class="wd-icon-background"></path>
</g>
<g>
<path d="M5.5 9C6.32843 9 7 9.67157 7 10.5V18.5C7 19.3284 6.32843 20 5.5 20H2.5C1.67157 20 1 19.3284 1 18.5V10.5C1 9.67157 1.67157 9 2.5 9H5.5ZM3 18H5V11H3V18Z" fill="oklch(0.3523 0 0 / 1)" class="wd-icon-fill"></path>
<path d="M12.5 9C13.3284 9 14 9.67157 14 10.5V18.5C14 19.3284 13.3284 20 12.5 20H9.5C8.67157 20 8 19.3284 8 18.5V10.5C8 9.67157 8.67157 9 9.5 9H12.5ZM10 18H12V11H10V18Z" fill="oklch(0.3523 0 0 / 1)" class="wd-icon-fill"></path>
<path d="M19.5 2C20.3284 2 21 2.67157 21 3.5V11.5C21 12.3284 20.3284 13 19.5 13H16.5C15.6716 13 15 12.3284 15 11.5V3.5C15 2.67157 15.6716 2 16.5 2H19.5ZM17 11H19V4H17V11Z" fill="oklch(0.3523 0 0 / 1)" class="wd-icon-fill"></path>
</g>
<path d="M19.5 15C19.7761 15 20 15.2239 20 15.5V16.9951H21.5049C21.781 16.9951 22.0049 17.219 22.0049 17.4951V18.4951C22.0049 18.7713 21.781 18.9951 21.5049 18.9951H20V20.5C20 20.7761 19.7761 21 19.5 21H18.5C18.2239 21 18 20.7761 18 20.5V18.9951H16.5049C16.2287 18.9951 16.0049 18.7713 16.0049 18.4951V17.4951C16.0049 17.219 16.2287 16.9951 16.5049 16.9951H18V15.5C18 15.2239 18.2239 15 18.5 15H19.5Z" fill="oklch(0.3523 0 0 / 1)" class="wd-icon-accent"></path>
</svg>