<svg width="24" height="24" viewBox="0 0 24 24" xmlns="http://www.w3.org/2000/svg" class="wd-icon wd-icon-chevron-2x-right-small" role="presentation">
<g>
<path d="M6.29289 6.29289C6.68342 5.90243 7.31645 5.90239 7.70696 6.29289L12.707 11.2929C13.0973 11.6834 13.0974 12.3165 12.707 12.707L7.70696 17.707C7.31647 18.0974 6.68343 18.0974 6.29289 17.707C5.90237 17.3164 5.90237 16.6834 6.29289 16.2929L10.5859 11.9999L6.29289 7.70696C5.90237 7.31643 5.90237 6.68342 6.29289 6.29289Z" fill="oklch(0.3523 0 0 / 1)" class="wd-icon-fill"></path>
<path d="M13.2929 6.29289C13.6834 5.90237 14.3164 5.90237 14.707 6.29289L19.707 11.2929C20.0975 11.6834 20.0975 12.3164 19.707 12.707L14.707 17.707C14.3164 18.0975 13.6834 18.0975 13.2929 17.707C12.9024 17.3164 12.9024 16.6834 13.2929 16.2929L17.5859 11.9999L13.2929 7.70696C12.9024 7.31643 12.9024 6.68342 13.2929 6.29289Z" fill="oklch(0.3523 0 0 / 1)" class="wd-icon-fill"></path>
</g>
</svg>