<svg width="24" height="24" viewBox="0 0 24 24" xmlns="http://www.w3.org/2000/svg" class="wd-icon wd-icon-terminal" role="presentation">
<g>
<path d="M7 3C7.55229 3 8 3.44772 8 4C8 4.55229 7.55229 5 7 5H6.79981C5.94342 5 5.36117 5.00035 4.91113 5.03711C4.47272 5.07293 4.2482 5.13809 4.0918 5.21778C3.71555 5.40951 3.40951 5.71555 3.21778 6.0918C3.13809 6.2482 3.07293 6.47272 3.03711 6.91113C3.00035 7.36117 3 7.94342 3 8.79981V15.2002C3 16.0566 3.00035 16.6388 3.03711 17.0889C3.07293 17.5273 3.13809 17.7518 3.21778 17.9082C3.40951 18.2845 3.71555 18.5905 4.0918 18.7822C4.2482 18.8619 4.47272 18.9271 4.91113 18.9629C5.36117 18.9997 5.94342 19 6.79981 19H7C7.55229 19 8 19.4477 8 20C8 20.5523 7.55229 21 7 21H6.79981C5.97632 21 5.29843 21.001 4.74805 20.9561C4.18599 20.9101 3.6689 20.8117 3.1836 20.5645C2.43109 20.181 1.81902 19.5689 1.43555 18.8164C1.18827 18.3311 1.08988 17.814 1.04395 17.252C0.99898 16.7016 1 16.0237 1 15.2002V8.79981C1 7.97632 0.998979 7.29843 1.04395 6.74805C1.08988 6.18599 1.18827 5.6689 1.43555 5.1836C1.81902 4.43109 2.43109 3.81902 3.1836 3.43555C3.6689 3.18827 4.18599 3.08988 4.74805 3.04395C5.29843 2.99898 5.97632 3 6.79981 3H7Z" fill="oklch(0.3523 0 0 / 1)" class="wd-icon-fill"></path>
<path d="M17.2002 3C18.0237 3 18.7016 2.99898 19.252 3.04395C19.814 3.08988 20.3311 3.18827 20.8164 3.43555C21.5689 3.81902 22.181 4.43109 22.5645 5.1836C22.8117 5.6689 22.9101 6.18599 22.9561 6.74805C23.001 7.29843 23 7.97632 23 8.79981V15.2002C23 16.0237 23.001 16.7016 22.9561 17.252C22.9101 17.814 22.8117 18.3311 22.5645 18.8164C22.181 19.5689 21.5689 20.181 20.8164 20.5645C20.3311 20.8117 19.814 20.9101 19.252 20.9561C18.7016 21.001 18.0237 21 17.2002 21H17C16.4477 21 16 20.5523 16 20C16 19.4477 16.4477 19 17 19H17.2002C18.0566 19 18.6388 18.9997 19.0889 18.9629C19.5273 18.9271 19.7518 18.8619 19.9082 18.7822C20.2845 18.5905 20.5905 18.2845 20.7822 17.9082C20.8619 17.7518 20.9271 17.5273 20.9629 17.0889C20.9997 16.6388 21 16.0566 21 15.2002V8.79981C21 7.94342 20.9997 7.36117 20.9629 6.91113C20.9271 6.47272 20.8619 6.2482 20.7822 6.0918C20.5905 5.71555 20.2845 5.40951 19.9082 5.21778C19.7518 5.13809 19.5273 5.07293 19.0889 5.03711C18.6388 5.00035 18.0566 5 17.2002 5H17C16.4477 5 16 4.55229 16 4C16 3.44772 16.4477 3 17 3H17.2002Z" fill="oklch(0.3523 0 0 / 1)" class="wd-icon-fill"></path>
<path d="M6.21875 9.375C6.56376 8.94374 7.19374 8.87374 7.625 9.21875L10.125 11.2188C10.3622 11.4085 10.5 11.6962 10.5 12C10.5 12.3038 10.3622 12.5915 10.125 12.7813L7.625 14.7813C7.19374 15.1263 6.56376 15.0563 6.21875 14.625C5.87374 14.1937 5.94374 13.5638 6.375 13.2188L7.89844 12L6.375 10.7813C5.94374 10.4362 5.87374 9.80626 6.21875 9.375Z" fill="oklch(0.3523 0 0 / 1)" class="wd-icon-fill"></path>
<path d="M17 13C17.5523 13 18 13.4477 18 14C18 14.5523 17.5523 15 17 15H13C12.4477 15 12 14.5523 12 14C12 13.4477 12.4477 13 13 13H17Z" fill="oklch(0.3523 0 0 / 1)" class="wd-icon-fill"></path>
</g>
</svg>