<svg width="24" height="24" viewBox="0 0 24 24" xmlns="http://www.w3.org/2000/svg" class="wd-icon wd-icon-loupe" role="presentation">
<g>
<path d="M16.5156 11.7393C16.5362 11.9445 16.5764 12.1476 16.6387 12.3447L17.9912 16.6289C17.9339 17.2044 17.4659 17.9018 16.376 18.5029C15.2888 19.1024 13.7472 19.4999 11.999 19.5C10.2508 19.5 8.70933 19.1023 7.62207 18.5029C6.53186 17.9018 6.06317 17.2045 6.00586 16.6289L7.35938 12.3447C7.42159 12.1476 7.46082 11.9445 7.48145 11.7393C7.57621 11.7785 7.67117 11.8191 7.76855 11.8545C8.89929 12.2655 10.3954 12.5 11.999 12.5C13.6027 12.5 15.0988 12.2656 16.2295 11.8545C16.3266 11.8192 16.4211 11.7784 16.5156 11.7393Z" fill="transparent" class="wd-icon-background"></path>
<path d="M11.999 5C13.4085 5.00005 14.6368 5.26176 15.4746 5.64258C16.4022 6.06436 16.499 6.44293 16.499 6.5C16.499 6.55707 16.4022 6.93564 15.4746 7.35742C14.6368 7.73824 13.4085 7.99995 11.999 8C11.8229 8 11.6496 7.99618 11.4795 7.98828C11.1393 7.9725 10.812 7.9415 10.501 7.89746C9.72332 7.7873 9.04715 7.59542 8.52344 7.35742C7.5955 6.93558 7.49902 6.55707 7.49902 6.5C7.49902 6.44293 7.5955 6.06442 8.52344 5.64258C9.36132 5.2618 10.5896 5 11.999 5Z" fill="transparent" class="wd-icon-background"></path>
</g>
<path d="M11.9978 3C13.6257 3.00002 15.1478 3.29831 16.3005 3.82227C17.3629 4.30521 18.4978 5.17642 18.4978 6.5V11.4414C18.4978 11.5436 18.5139 11.6457 18.5446 11.7432L19.905 16.0518C19.9625 16.2339 20.008 16.4635 19.9909 16.7207C19.8877 18.275 18.7423 19.4819 17.3405 20.2549C15.9098 21.0437 14.0247 21.5 11.9978 21.5C9.97085 21.5 8.08574 21.0437 6.655 20.2549C5.25319 19.4819 4.10784 18.275 4.00461 16.7207C3.98754 16.4635 4.03302 16.2339 4.09055 16.0518L5.4509 11.7432C5.48165 11.6458 5.49777 11.5436 5.49777 11.4414V6.5C5.49777 5.17637 6.63259 4.3052 7.69504 3.82227C8.84775 3.29833 10.3699 3 11.9978 3ZM16.2282 11.8545C15.0975 12.2656 13.6015 12.5 11.9978 12.5C10.394 12.5 8.89807 12.2656 7.7673 11.8545C7.66992 11.8191 7.57496 11.7785 7.48019 11.7393C7.45957 11.9445 7.42035 12.1476 7.35812 12.3447L6.00461 16.6289C6.0619 17.2045 6.53059 17.9018 7.62082 18.5029C8.70809 19.1024 10.2494 19.5 11.9978 19.5C13.7461 19.5 15.2875 19.1024 16.3747 18.5029C17.4648 17.9018 17.9326 17.2045 17.99 16.6289L16.6374 12.3447C16.5752 12.1476 16.535 11.9445 16.5144 11.7393C16.4199 11.7784 16.3253 11.8192 16.2282 11.8545ZM11.9978 5C10.5882 5 9.36007 5.26175 8.52219 5.64258C7.59425 6.06442 7.49777 6.44293 7.49777 6.5C7.49777 6.51425 7.5036 6.54863 7.52707 6.59863C7.57412 6.69883 7.69121 6.86222 7.97043 7.05371C8.10997 7.14942 8.29017 7.25195 8.52219 7.35742C8.83652 7.50029 9.20571 7.6267 9.61887 7.72852C10.0318 7.83027 10.4886 7.90742 10.9782 7.95312C11.3046 7.98359 11.6455 8 11.9978 8C12.1739 8 12.3472 7.99618 12.5173 7.98828C13.7082 7.93298 14.7402 7.69068 15.4734 7.35742C16.4012 6.9356 16.4978 6.55707 16.4978 6.5C16.4978 6.44293 16.4012 6.0644 15.4734 5.64258C14.6355 5.26173 13.4074 5.00002 11.9978 5Z" fill="oklch(0.3523 0 0 / 1)" class="wd-icon-fill"></path>
</svg>