<svg width="24" height="24" viewBox="0 0 24 24" xmlns="http://www.w3.org/2000/svg" class="wd-icon wd-icon-table" role="presentation">
<path d="M16.2002 4C17.0237 4 17.7016 3.99898 18.252 4.04395C18.814 4.08988 19.3311 4.18828 19.8164 4.43555C20.4749 4.77109 21.0258 5.28167 21.4102 5.90821C21.4651 5.99769 21.5165 6.08955 21.5645 6.1836C21.5954 6.24428 21.6239 6.30548 21.6504 6.36719C21.7826 6.67564 21.8613 6.99716 21.9102 7.33496C21.9297 7.46999 21.9446 7.60761 21.9561 7.74805C21.9673 7.8855 21.9752 8.03093 21.9815 8.18457C21.9877 8.33864 21.9924 8.50097 21.9951 8.67188C22.0005 9.01298 22 9.38821 22 9.79981V14.2002C22 14.6118 22.0005 14.987 21.9951 15.3281C21.9924 15.499 21.9877 15.6614 21.9815 15.8154C21.9752 15.9691 21.9673 16.1145 21.9561 16.252C21.9446 16.3924 21.9297 16.53 21.9102 16.665C21.8711 16.9353 21.8131 17.1952 21.7236 17.4463C21.6789 17.5718 21.6263 17.6951 21.5645 17.8164C21.5165 17.9105 21.4651 18.0023 21.4102 18.0918C21.0807 18.6289 20.6289 19.0807 20.0918 19.4102C20.0023 19.4651 19.9105 19.5165 19.8164 19.5645C19.7557 19.5954 19.6945 19.6239 19.6328 19.6504C19.3244 19.7826 19.0028 19.8613 18.6651 19.9102C18.53 19.9297 18.3924 19.9446 18.252 19.9561C18.1145 19.9673 17.9691 19.9752 17.8154 19.9814C17.6614 19.9877 17.499 19.9924 17.3281 19.9951C16.987 20.0005 16.6118 20 16.2002 20H7.79982C7.18199 20 6.64614 20.0001 6.18458 19.9814C6.03094 19.9752 5.88551 19.9673 5.74806 19.9561C5.60762 19.9446 5.47 19.9297 5.33497 19.9102C4.99717 19.8613 4.67565 19.7826 4.3672 19.6504C4.30549 19.6239 4.24429 19.5954 4.1836 19.5645C4.08956 19.5165 3.9977 19.4651 3.90821 19.4102C3.37116 19.0807 2.9193 18.6289 2.58985 18.0918C2.53496 18.0023 2.48348 17.9105 2.43556 17.8164C2.37374 17.6951 2.32109 17.5718 2.27638 17.4463C2.18693 17.1952 2.12895 16.9353 2.08985 16.665C2.07032 16.53 2.05543 16.3924 2.04396 16.252C2.03273 16.1145 2.02479 15.9691 2.01857 15.8154C2.01232 15.6614 2.00758 15.499 2.00489 15.3281C1.99953 14.987 2.00001 14.6118 2.00001 14.2002V9.79981C2.00001 9.38821 1.99953 9.01298 2.00489 8.67188C2.00758 8.50097 2.01232 8.33864 2.01857 8.18457C2.02479 8.03093 2.03273 7.8855 2.04396 7.74805C2.05543 7.60761 2.07032 7.46999 2.08985 7.33496C2.12895 7.0647 2.18693 6.80478 2.27638 6.55371C2.32109 6.4282 2.37374 6.30493 2.43556 6.1836C2.48348 6.08955 2.53496 5.99769 2.58985 5.90821C2.97419 5.28167 3.52515 4.77109 4.1836 4.43555C4.30494 4.37373 4.42821 4.32109 4.55372 4.27637C4.93023 4.14223 5.32653 4.07839 5.74806 4.04395C6.29843 3.99898 6.97633 4 7.79982 4H16.2002ZM16 18H16.2002C17.0566 18 17.6388 17.9997 18.0889 17.9629C18.5273 17.9271 18.7518 17.8619 18.9082 17.7822C19.2845 17.5905 19.5905 17.2845 19.7822 16.9082C19.8619 16.7518 19.9271 16.5273 19.9629 16.0889C19.9653 16.0599 19.9657 16.0302 19.9678 16H16V18ZM9.50001 18H14.5V16H9.50001V18ZM4.03712 16.0889C4.07294 16.5273 4.1381 16.7518 4.21778 16.9082C4.40952 17.2845 4.71556 17.5905 5.09181 17.7822C5.24821 17.8619 5.47274 17.9271 5.91114 17.9629C6.36118 17.9997 6.94343 18 7.79982 18H8.00001V16H4.03224C4.03431 16.0302 4.03475 16.0599 4.03712 16.0889ZM4.00001 14.2002C4.00001 14.3041 4.00091 14.4039 4.00099 14.5H8.00001V12.75H4.00001V14.2002ZM9.50001 14.5H14.5V12.75H9.50001V14.5ZM16 14.5H19.999C19.9991 14.4039 20 14.3041 20 14.2002V12.75H16V14.5ZM4.00001 9.79981V11.25H8.00001V9.5H4.00099C4.00091 9.59607 4.00001 9.69592 4.00001 9.79981ZM9.50001 11.25H14.5V9.5H9.50001V11.25ZM16 11.25H20V9.79981C20 9.69592 19.9991 9.59607 19.999 9.5H16V11.25ZM7.79982 6C6.94343 6 6.36118 6.00035 5.91114 6.03711C5.47274 6.07293 5.24821 6.13809 5.09181 6.21778C4.71556 6.40951 4.40952 6.71555 4.21778 7.0918C4.1381 7.2482 4.07294 7.47273 4.03712 7.91113C4.03475 7.94015 4.03431 7.96985 4.03224 8H8.00001V6H7.79982ZM9.50001 8H14.5V6H9.50001V8ZM16 8H19.9678C19.9657 7.96985 19.9653 7.94015 19.9629 7.91113C19.9271 7.47273 19.8619 7.2482 19.7822 7.0918C19.5905 6.71555 19.2845 6.40951 18.9082 6.21778C18.7518 6.13809 18.5273 6.07293 18.0889 6.03711C17.6388 6.00035 17.0566 6 16.2002 6H16V8Z" fill="oklch(0.3523 0 0 / 1)" class="wd-icon-fill"></path>
</svg>