<svg width="24" height="24" viewBox="0 0 24 24" xmlns="http://www.w3.org/2000/svg" class="wd-icon wd-icon-border-color" role="presentation">
<path d="M14.8711 2.04754L15.2383 2.12469C16.0891 2.33699 16.8955 2.77612 17.5596 3.44012C18.3185 4.19901 18.7836 5.14394 18.9521 6.12859C19.0378 6.62953 18.8501 7.09874 18.5371 7.4118L8.38867 17.5602C8.10738 17.8414 7.72588 17.9997 7.32812 17.9997H4.5C3.67158 17.9997 3 17.3281 3 16.4997V13.6716C3.00005 13.2739 3.15828 12.8923 3.43945 12.611L13.5879 2.46258L13.7119 2.35125C13.9745 2.14167 14.3162 2.01324 14.6846 2.02801L14.8711 2.04754ZM5 13.8786V15.9997H7.12109L13.8525 9.26629L11.7314 7.14519L5 13.8786ZM13.1455 5.73113L15.2666 7.85222L16.9209 6.1989C16.7896 5.70682 16.5327 5.24141 16.1455 4.85418C15.7579 4.46665 15.2923 4.20897 14.7998 4.07781L13.1455 5.73113Z" fill="oklch(0.3523 0 0 / 1)" class="wd-icon-fill"></path>
<path d="M21 20.5C21 20.7761 20.7761 21 20.5 21H3.5C3.22386 21 3 20.7761 3 20.5V19.5C3 19.2239 3.22386 19 3.5 19H20.5C20.7761 19 21 19.2239 21 19.5V20.5Z" fill="oklch(0.3523 0 0 / 1)" class="wd-icon-accent"></path>
</svg>