<svg width="24" height="24" viewBox="0 0 24 24" xmlns="http://www.w3.org/2000/svg" class="wd-icon wd-icon-list" role="presentation">
<g>
<path d="M3.5 15.5C4.32843 15.5 5 16.1716 5 17C5 17.8284 4.32843 18.5 3.5 18.5C2.67157 18.5 2 17.8284 2 17C2 16.1716 2.67157 15.5 3.5 15.5Z" fill="oklch(0.3523 0 0 / 1)" class="wd-icon-fill"></path>
<path d="M21 16C21.5523 16 22 16.4477 22 17C22 17.5523 21.5523 18 21 18H8C7.44772 18 7 17.5523 7 17C7 16.4477 7.44772 16 8 16H21Z" fill="oklch(0.3523 0 0 / 1)" class="wd-icon-fill"></path>
<path d="M3.5 10.5C4.32843 10.5 5 11.1716 5 12C5 12.8284 4.32843 13.5 3.5 13.5C2.67157 13.5 2 12.8284 2 12C2 11.1716 2.67157 10.5 3.5 10.5Z" fill="oklch(0.3523 0 0 / 1)" class="wd-icon-fill"></path>
<path d="M21 11C21.5523 11 22 11.4477 22 12C22 12.5523 21.5523 13 21 13H8C7.44772 13 7 12.5523 7 12C7 11.4477 7.44772 11 8 11H21Z" fill="oklch(0.3523 0 0 / 1)" class="wd-icon-fill"></path>
<path d="M3.5 5.5C4.32843 5.5 5 6.17157 5 7C5 7.82843 4.32843 8.5 3.5 8.5C2.67157 8.5 2 7.82843 2 7C2 6.17157 2.67157 5.5 3.5 5.5Z" fill="oklch(0.3523 0 0 / 1)" class="wd-icon-fill"></path>
<path d="M21 6C21.5523 6 22 6.44772 22 7C22 7.55228 21.5523 8 21 8H8C7.44772 8 7 7.55228 7 7C7 6.44772 7.44772 6 8 6H21Z" fill="oklch(0.3523 0 0 / 1)" class="wd-icon-fill"></path>
</g>
</svg>