<svg width="24" height="24" viewBox="0 0 24 24" xmlns="http://www.w3.org/2000/svg" class="wd-icon wd-icon-auto-sum" role="presentation">
<path d="M15.9998 3C17.1043 3.0001 17.9998 3.89549 17.9998 5V6C17.9998 6.55222 17.552 6.9999 16.9998 7C16.4475 7 15.9998 6.55228 15.9998 6V5H7.60041L12.5301 11.0664C12.9639 11.6006 12.9781 12.3616 12.5652 12.9121L7.99982 19H15.9998V18C15.9998 17.4477 16.4475 17 16.9998 17C17.552 17.0001 17.9998 17.4478 17.9998 18V19C17.9998 20.1045 17.1043 20.9999 15.9998 21H6.99982C5.76375 21 5.05798 19.5885 5.79963 18.5996L10.7313 12.0234L5.38654 5.44629C4.59007 4.46602 5.28755 3 6.5506 3H15.9998Z" fill="oklch(0.3523 0 0 / 1)" class="wd-icon-fill"></path>
</svg>