<svg width="24" height="24" viewBox="0 0 24 24" xmlns="http://www.w3.org/2000/svg" class="wd-icon wd-icon-unsort" role="presentation">
<g>
<path d="M17.5 11.9997C17.7758 11.9999 17.9998 12.2238 18 12.4997V18.8903L20.4805 16.861C20.6943 16.6863 21.0098 16.7175 21.1846 16.9313L21.5 17.318L21.8164 17.7048C21.9908 17.9183 21.9593 18.233 21.7461 18.4079L17.6338 21.7741C17.496 21.8867 17.3351 21.9577 17.1689 21.986C16.8914 22.0334 16.5975 21.9631 16.3672 21.7751L12.2539 18.4089C12.0405 18.2341 12.0093 17.9194 12.1836 17.7057L12.8174 16.9313C12.9923 16.7181 13.307 16.6864 13.5205 16.861L16 18.8903V12.4997C16.0002 12.2238 16.2241 11.9999 16.5 11.9997H17.5Z" fill="oklch(0.3523 0 0 / 1)" class="wd-icon-fill"></path>
<path d="M19.9395 2.64616C20.1347 2.45124 20.4513 2.45119 20.6465 2.64616L21.3535 3.35319C21.5487 3.54836 21.5485 3.86494 21.3535 4.06022L4.06054 21.3532C3.86528 21.5485 3.54878 21.5485 3.35351 21.3532L2.64648 20.6462C2.45142 20.4509 2.45129 20.1343 2.64648 19.9391L19.9395 2.64616Z" fill="oklch(0.3523 0 0 / 1)" class="wd-icon-fill"></path>
<path d="M6.83105 2.01432C7.10866 1.96694 7.40247 2.03711 7.63281 2.22526L11.7461 5.59147C11.9594 5.76622 11.9907 6.08095 11.8164 6.29459L11.1826 7.06901C11.0077 7.28212 10.693 7.31388 10.4795 7.13932L8 5.11002V11.5006C7.99965 11.7764 7.77575 12.0004 7.5 12.0006H6.5C6.22421 12.0005 6.00034 11.7764 6 11.5006V5.11002L3.51953 7.13932C3.30574 7.31391 2.99014 7.28276 2.81543 7.06901L2.5 6.68229L2.18359 6.29557C2.00899 6.08202 2.04067 5.76736 2.2539 5.59245L6.36621 2.22624C6.50404 2.11358 6.66489 2.04258 6.83105 2.01432Z" fill="oklch(0.3523 0 0 / 1)" class="wd-icon-fill"></path>
</g>
</svg>