<svg width="24" height="24" viewBox="0 0 24 24" xmlns="http://www.w3.org/2000/svg" class="wd-icon wd-icon-excel" role="presentation">
<g>
<path d="M20.4997 1C21.3282 1 21.9997 1.67157 21.9997 2.5V21.5C21.9997 22.3284 21.3282 23 20.4997 23H7.49974C6.67154 22.9997 5.99974 22.3283 5.99974 21.5V19.5C5.99974 19.224 6.22382 19.0003 6.49974 19H7.49974C7.77588 19 7.99974 19.2239 7.99974 19.5V21H19.9997V3H7.99974V4.5C7.99974 4.77614 7.77588 5 7.49974 5H6.49974C6.22382 4.99974 5.99974 4.77598 5.99974 4.5V2.5C5.99974 1.67173 6.67154 1.00026 7.49974 1H20.4997Z" fill="oklch(0.3523 0 0 / 1)" class="wd-icon-fill"></path>
<path d="M18.2497 6C18.664 6 18.9997 6.33579 18.9997 6.75V13.75C18.9997 14.1642 18.664 14.5 18.2497 14.5H15.9997V17.25C15.9997 17.6642 15.664 18 15.2497 18H11.4997C11.2238 17.9997 10.9997 17.776 10.9997 17.5V17C10.9997 16.724 11.2238 16.5003 11.4997 16.5H14.4997V14.5H11.4997C11.2238 14.4997 10.9997 14.276 10.9997 14V13.5C10.9997 13.224 11.2238 13.0003 11.4997 13H14.4997V11H11.4997C11.2238 10.9997 10.9997 10.776 10.9997 10.5V10C10.9997 9.72402 11.2238 9.50026 11.4997 9.5H14.4997V7.5H11.4997C11.2238 7.49974 10.9997 7.27598 10.9997 7V6.5C10.9997 6.22402 11.2238 6.00026 11.4997 6H18.2497ZM15.9997 13H17.4997V11H15.9997V13ZM15.9997 9.5H17.4997V7.5H15.9997V9.5Z" fill="oklch(0.3523 0 0 / 1)" class="wd-icon-fill"></path>
<path d="M3.11302 6.99023C3.28465 6.99038 3.44441 7.07841 3.53588 7.22363L5.44798 10.2646H5.49095L7.40306 7.22363C7.49453 7.07841 7.65429 6.99038 7.82591 6.99023H9.3181C9.72031 6.9904 9.95774 7.4417 9.73021 7.77344L6.864 11.9521L9.79955 16.2168C10.0277 16.5485 9.79008 17 9.38744 17H7.9099C7.73921 17 7.57986 16.9134 7.48802 16.7695L5.49095 13.6396H5.44798L3.46459 16.7676C3.37296 16.9121 3.2138 16.9999 3.04271 17H1.54955C1.14742 17 0.909443 16.5495 1.13646 16.2178L4.06127 11.9521L1.2058 7.77246C0.979129 7.44059 1.21699 6.99023 1.61888 6.99023H3.11302Z" fill="oklch(0.3523 0 0 / 1)" class="wd-icon-fill"></path>
</g>
</svg>