<svg width="24" height="24" viewBox="0 0 24 24" xmlns="http://www.w3.org/2000/svg" class="wd-icon wd-icon-book-open-page" role="presentation">
<path d="M6.78224 1.86432C7.27667 1.49848 7.95908 1.37694 8.60841 1.67291C10.9256 2.7296 12.612 4.93326 12.9404 7.56061L18.458 5.4151C18.8056 5.27994 19.1293 5.15298 19.4024 5.07428C19.6786 4.99471 20.0336 4.92298 20.4199 5.00592C20.9323 5.116 21.3814 5.42291 21.6699 5.86041C21.8873 6.19031 21.9496 6.54781 21.9756 6.83404C22.0012 7.11703 22 7.46512 22 7.83795V17.1573C21.9976 17.4255 21.9797 17.7334 21.8721 18.0196C21.7589 18.3203 21.5741 18.5892 21.335 18.8038C21.0315 19.0758 20.6356 19.2143 20.3428 19.3282L12.9424 22.2051C12.7696 22.2723 12.5424 22.3675 12.2959 22.4044C12.0999 22.4336 11.9001 22.4336 11.7041 22.4044C11.4576 22.3675 11.2304 22.2723 11.0576 22.2051L3.65724 19.3282C3.36444 19.2143 2.9685 19.0758 2.66505 18.8038C2.4259 18.5892 2.24111 18.3203 2.12794 18.0196C2.02036 17.7334 2.00238 17.4255 2.00001 17.1573V7.83795C2.00001 7.46512 1.99879 7.11703 2.02442 6.83404C2.05041 6.5478 2.11276 6.19031 2.33009 5.86041C2.61858 5.42288 3.06768 5.116 3.58009 5.00592C3.96644 4.92296 4.32145 4.99472 4.59767 5.07428C4.87074 5.15297 5.19447 5.27995 5.542 5.4151L6.00001 5.59283V3.43756C6.00003 2.79914 6.30146 2.22011 6.78224 1.86432ZM19.9561 6.99615C19.7905 7.04387 19.5656 7.12945 19.1826 7.27838L13 9.68268V20.0372L19.6172 17.4639C19.8133 17.3877 19.9156 17.3471 19.9873 17.3135C19.9894 17.3125 19.9912 17.3106 19.9932 17.3096L19.9942 17.3038C19.9994 17.2247 20 17.1143 20 16.9044V7.83795C20 7.42728 19.9989 7.18625 19.9834 7.01471C19.9826 7.00633 19.9803 6.99767 19.9795 6.99029C19.9723 6.99225 19.9642 6.99383 19.9561 6.99615ZM4.01661 7.01471C4.00109 7.18625 4.00001 7.42728 4.00001 7.83795V16.9044C4.00001 17.1143 4.00063 17.2247 4.00587 17.3038V17.3096C4.00802 17.3107 4.01033 17.3124 4.0127 17.3135C4.08445 17.3471 4.18679 17.3877 4.38282 17.4639L10.7744 19.9493C10.2854 18.2821 9.02943 16.9416 7.41017 16.3419C6.65142 16.0609 6.0002 15.3351 6.00001 14.3848V7.73736L4.81739 7.27838C4.43447 7.12947 4.2095 7.04387 4.04395 6.99615C4.03555 6.99375 4.02695 6.99231 4.01954 6.99029C4.01877 6.99764 4.0174 7.00636 4.01661 7.01471ZM8.00001 14.3838C8.00072 14.3858 8.00361 14.392 8.01075 14.4014C8.02696 14.4226 8.05879 14.4499 8.1045 14.4669C9.21857 14.8794 10.2074 15.5495 11 16.4044V8.50006C11 6.36483 9.78181 4.51423 8.00001 3.6026V14.3838Z" fill="oklch(0.3523 0 0 / 1)" class="wd-icon-fill"></path>
</svg>