<svg width="24" height="24" viewBox="0 0 24 24" xmlns="http://www.w3.org/2000/svg" class="wd-icon wd-icon-arrow-right-circle-fill" role="presentation">
<path d="M12 2C17.5228 2 22 6.47715 22 12C22 17.5228 17.5228 22 12 22C6.47715 22 2 17.5228 2 12C2 6.47715 6.47715 2 12 2ZM13.707 8.29297C13.3166 7.90264 12.6835 7.90284 12.293 8.29297C11.9029 8.6835 11.9027 9.31664 12.293 9.70703L13.5859 11H8.00098C7.44882 11 7.00118 11.4479 7.00098 12C7.00116 12.5521 7.4488 13 8.00098 13H13.5859L12.293 14.293C11.903 14.6835 11.9027 15.3167 12.293 15.707C12.6833 16.0974 13.3165 16.0971 13.707 15.707L16.707 12.707C17.0972 12.3165 17.0974 11.6834 16.707 11.293L13.707 8.29297Z" fill="oklch(0.3523 0 0 / 1)" class="wd-icon-fill"></path>
</svg>