<svg width="24" height="24" viewBox="0 0 24 24" xmlns="http://www.w3.org/2000/svg" class="wd-icon wd-icon-code" role="presentation">
<g>
<path d="M14.3896 4C14.7149 4 14.9538 4.30558 14.875 4.62109L11.125 19.6211C11.0694 19.8437 10.8691 20 10.6396 20H9.60938C9.28415 20 9.04527 19.6944 9.12402 19.3789L12.874 4.37891C12.9297 4.15632 13.1299 4 13.3594 4H14.3896Z" fill="oklch(0.3523 0 0 / 1)" class="wd-icon-fill"></path>
<path d="M7.23438 7.48633C7.56729 7.27723 8 7.5169 8 7.91016V9.09082C7.99992 9.26257 7.91197 9.42219 7.7666 9.51367L5.65137 10.8447L5.65234 10.8467L4 11.8857V12.1152L7.7666 14.4854C7.91185 14.5769 8 14.7365 8 14.9082V16.0898C8 16.4832 7.56637 16.7222 7.2334 16.5127L3.39062 14.0957C3.38787 14.094 3.38552 14.0916 3.38281 14.0898L2.46777 13.5137C2.17689 13.3306 2 13.0107 2 12.667V11.334C2 10.9903 2.17689 10.6704 2.46777 10.4873L3.38281 9.91016C3.38537 9.90848 3.38802 9.90691 3.39062 9.90527L7.23438 7.48633Z" fill="oklch(0.3523 0 0 / 1)" class="wd-icon-fill"></path>
<path d="M16 7.91016C16 7.51681 16.4337 7.27699 16.7666 7.48633L20.6094 9.90527L20.6143 9.9082L21.5332 10.4873C21.8239 10.6704 22 10.9904 22 11.334V12.667C22 13.0105 21.8239 13.3306 21.5332 13.5137L20.6143 14.0918C20.6125 14.0929 20.6111 14.0946 20.6094 14.0957L16.7666 16.5127C16.4336 16.7222 16 16.4832 16 16.0898V14.9082C16 14.7365 16.0882 14.5769 16.2334 14.4854L20 12.1152V11.8857L18.3486 10.8467V10.8447L16.2344 9.51367C16.089 9.42219 16.0001 9.26257 16 9.09082V7.91016Z" fill="oklch(0.3523 0 0 / 1)" class="wd-icon-fill"></path>
</g>
</svg>