<svg width="24" height="24" viewBox="0 0 24 24" xmlns="http://www.w3.org/2000/svg" class="wd-icon wd-icon-chevron-2x-left-small" role="presentation">
<g>
<path d="M9.40939 6.25414C9.58428 6.04048 9.8998 6.00899 10.1135 6.18382L10.8869 6.81664C11.1004 6.99147 11.1319 7.30608 10.9572 7.51976L10.1487 8.50707L10.1496 8.50804L7.29221 12.0002L10.9582 16.4807C11.133 16.6945 11.1017 17.01 10.8879 17.1848L10.1135 17.8176C9.89981 17.9921 9.58416 17.9597 9.40939 17.7463L5.2258 12.633C4.92501 12.2649 4.92511 11.7356 5.2258 11.3674L7.78537 8.23851C7.78756 8.23572 7.78995 8.23249 7.79221 8.22972L9.40939 6.25414Z" fill="oklch(0.3523 0 0 / 1)" class="wd-icon-fill"></path>
<path d="M15.4094 6.25414C15.5843 6.04048 15.8998 6.00899 16.1135 6.18382L16.8869 6.81664C17.1004 6.99147 17.1319 7.30608 16.9572 7.51976L16.1487 8.50707L16.1496 8.50804L13.2922 12.0002L16.9582 16.4807C17.133 16.6945 17.1017 17.01 16.8879 17.1848L16.1135 17.8176C15.8998 17.9921 15.5842 17.9597 15.4094 17.7463L11.2258 12.633C10.925 12.2649 10.9251 11.7356 11.2258 11.3674L13.7854 8.23851C13.7876 8.23572 13.7899 8.23249 13.7922 8.22972L15.4094 6.25414Z" fill="oklch(0.3523 0 0 / 1)" class="wd-icon-fill"></path>
</g>
</svg>