<svg width="24" height="24" viewBox="0 0 24 24" xmlns="http://www.w3.org/2000/svg" class="wd-icon wd-icon-add-right" role="presentation">
<g>
<path d="M18 4C18.5523 4 19 4.44772 19 5V19C19 19.5523 18.5523 20 18 20C17.4477 20 17 19.5523 17 19V5C17 4.44772 17.4477 4 18 4Z" fill="oklch(0.3523 0 0 / 1)" class="wd-icon-fill"></path>
<path d="M9 7C9.55228 7 10 7.44772 10 8V11H13C13.5523 11 14 11.4477 14 12C14 12.5523 13.5523 13 13 13H10V16C10 16.5523 9.55228 17 9 17C8.44772 17 8 16.5523 8 16V13H5C4.44771 13 4 12.5523 4 12C4 11.4477 4.44771 11 5 11H8V8C8 7.44772 8.44772 7 9 7Z" fill="oklch(0.3523 0 0 / 1)" class="wd-icon-fill"></path>
</g>
</svg>