<svg width="24" height="24" viewBox="0 0 24 24" xmlns="http://www.w3.org/2000/svg" class="wd-icon wd-icon-clipboard-formula" role="presentation">
<path d="M12.001 2C12.6372 2.00014 13.2025 2.29832 13.5684 2.76172C13.6788 2.90171 13.8402 2.99996 14.0186 3H15.5C15.7761 3 16 3.22386 16 3.5V4H18.5C18.7761 4 19 4.22386 19 4.5V20.5C19 20.7761 18.7761 21 18.5 21H5.5C5.22386 21 5 20.7761 5 20.5V4.5C5 4.22389 5.2239 4.00005 5.5 4H8.00098V3.5C8.00098 3.22386 8.22483 3 8.50098 3H9.98242C10.1608 2.99996 10.3221 2.9017 10.4326 2.76172C10.7986 2.29819 11.3645 2 12.001 2Z" fill="transparent" class="wd-icon-background"></path>
<path d="M12.1794 1.00488C12.9964 1.05318 13.7233 1.43041 14.2332 2H15.4998C16.1526 2 16.7068 2.41772 16.9128 3H18.4998C19.3281 3.00007 19.9998 3.67161 19.9998 4.5V20.5C19.9998 21.3284 19.3281 21.9999 18.4998 22H5.49976C4.6715 21.9998 3.99976 21.3283 3.99976 20.5V4.5C3.99976 3.67172 4.67154 3.00024 5.49976 3H7.08765C7.29365 2.41775 7.84795 2.00015 8.50073 2H9.76831C10.3153 1.38923 11.1117 1.00011 12.0007 1L12.1794 1.00488ZM5.99976 20H17.9998V5H16.9998V6.52734C16.9998 7.35577 16.3282 8.02734 15.4998 8.02734H8.50073C7.67247 8.02715 7.00073 7.35565 7.00073 6.52734V5H5.99976V20ZM12.0007 3C11.6845 3.00011 11.4017 3.14724 11.2166 3.38184C10.9665 3.69821 10.539 3.99996 9.98218 4H9.00073V6.02734H14.9998V4H14.0183C13.4613 3.99983 13.0339 3.69752 12.7839 3.38086C12.5988 3.14636 12.3166 3.00014 12.0007 3Z" fill="oklch(0.3523 0 0 / 1)" class="wd-icon-fill"></path>
<g>
<path d="M11.9731 10C12.1318 10.0001 12.2509 10.1464 12.2182 10.3018L12.0815 10.9473C12.0571 11.0627 11.9553 11.1453 11.8373 11.1455H11.2787C10.8404 11.1456 10.563 11.352 10.4467 11.8799L10.4213 12H11.1899C11.349 12.0002 11.4676 12.1472 11.434 12.3027L11.3256 12.8027C11.3007 12.9175 11.1989 12.9998 11.0815 13H10.2094L9.40373 16.8018C9.37928 16.9171 9.27745 16.9997 9.15959 17H8.14005C7.98112 17 7.86299 16.8537 7.89591 16.6982L8.68205 13H8.14689C7.98759 12.9999 7.86913 12.8529 7.90275 12.6973L8.01115 12.1973C8.0361 12.0824 8.13775 12.0001 8.25529 12H8.89494L8.9965 11.5215C9.2113 10.528 9.7578 10 10.8676 10H11.9731Z" fill="oklch(0.3523 0 0 / 1)" class="wd-icon-accent"></path>
<path d="M13.1615 12C13.2613 12 13.3515 12.0598 13.391 12.1514L13.9584 13.4639H13.977L14.9877 12.1006C15.0349 12.0372 15.1098 12 15.1889 12H16.4643C16.6808 12 16.7947 12.2561 16.6498 12.417L14.684 14.6006L15.7748 16.6309C15.8643 16.7974 15.7432 16.999 15.5541 16.999H14.4731C14.3774 16.9989 14.2902 16.9445 14.2485 16.8584L13.6186 15.5586H13.601L12.602 16.8984C12.5548 16.9617 12.4797 16.999 12.4008 16.999H11.1137C10.8967 16.999 10.7823 16.7417 10.9281 16.5811L12.9291 14.377L11.8588 12.3682C11.7701 12.2018 11.8901 12.0003 12.0785 12H13.1615Z" fill="oklch(0.3523 0 0 / 1)" class="wd-icon-accent"></path>
</g>
</svg>