<svg width="24" height="24" viewBox="0 0 24 24" xmlns="http://www.w3.org/2000/svg" class="wd-icon wd-icon-receipt" role="presentation">
<path d="M15.7998 1C16.3434 1 16.8117 0.998931 17.1953 1.03028C17.5906 1.06259 17.984 1.1344 18.3623 1.32715C18.9265 1.61473 19.3853 2.07348 19.6729 2.6377C19.8656 3.016 19.9374 3.40943 19.9697 3.80469C20.0011 4.18836 20 4.65665 20 5.2002V19.7998C20 20.2946 20.0014 20.7354 19.9697 21.083C19.9394 21.4156 19.8677 21.8598 19.5752 22.2334C19.2052 22.706 18.642 22.9874 18.042 23C17.5676 23.0099 17.169 22.8012 16.8848 22.626C16.5876 22.4427 16.2358 22.1769 15.8399 21.8799L15.3604 21.5195C15.1771 21.3821 15.08 21.3109 15.0068 21.2637C15.0044 21.2621 15.0023 21.2602 15 21.2588C14.9978 21.2602 14.9956 21.2621 14.9932 21.2637C14.92 21.3109 14.8229 21.3821 14.6397 21.5195L13.5596 22.3301C13.2866 22.5349 12.9327 22.823 12.5088 22.9346C12.1753 23.0223 11.8247 23.0223 11.4912 22.9346C11.0673 22.823 10.7135 22.5349 10.4404 22.3301L9.36036 21.5195C9.17711 21.3821 9.08002 21.3109 9.00684 21.2637C9.00438 21.2621 9.00225 21.2602 9.00001 21.2588C8.99776 21.2602 8.99564 21.2621 8.99317 21.2637C8.92 21.3109 8.82291 21.3821 8.63966 21.5195L8.16017 21.8799C7.76418 22.1769 7.41242 22.4427 7.11524 22.626C6.83101 22.8012 6.43239 23.0099 5.95802 23C5.35798 22.9874 4.79483 22.706 4.42481 22.2334C4.1323 21.8598 4.06061 21.4156 4.03028 21.083C3.99861 20.7354 4.00001 20.2946 4.00001 19.7998V5.2002C4.00001 4.65665 3.99894 4.18836 4.03028 3.80469C4.06259 3.40943 4.13441 3.016 4.32716 2.6377C4.61473 2.07348 5.07348 1.61473 5.6377 1.32715C6.016 1.1344 6.40944 1.06259 6.8047 1.03028C7.18837 0.998931 7.65665 1 8.2002 1H15.7998ZM8.2002 3C7.62365 3 7.25112 3.00127 6.96778 3.02442C6.6962 3.04662 6.59535 3.08419 6.54591 3.10938C6.35794 3.20522 6.20522 3.35793 6.10938 3.5459C6.08419 3.59534 6.04662 3.69619 6.02442 3.96778C6.00127 4.25112 6.00001 4.62365 6.00001 5.2002V19.7998C6.00001 20.3344 6.00106 20.6662 6.02247 20.9014C6.0238 20.916 6.02694 20.9298 6.02833 20.9424C6.03936 20.9359 6.05281 20.9306 6.06544 20.9229C6.26636 20.7989 6.5324 20.601 6.95997 20.2803L7.44044 19.9199C7.71346 19.7151 8.06731 19.427 8.49122 19.3154C8.82468 19.2277 9.17534 19.2277 9.5088 19.3154C9.93271 19.427 10.2866 19.7151 10.5596 19.9199L11.6397 20.7305C11.8229 20.8679 11.92 20.9391 11.9932 20.9863C11.9955 20.9878 11.9979 20.9889 12 20.9902C12.0021 20.9889 12.0045 20.9878 12.0068 20.9863C12.08 20.9391 12.1771 20.8679 12.3604 20.7305L13.4404 19.9199C13.7135 19.7151 14.0673 19.427 14.4912 19.3154C14.8247 19.2277 15.1753 19.2277 15.5088 19.3154C15.9327 19.427 16.2866 19.7151 16.5596 19.9199L17.04 20.2803C17.4676 20.601 17.7337 20.7989 17.9346 20.9229C17.9469 20.9305 17.9599 20.936 17.9707 20.9424C17.9721 20.9298 17.9762 20.916 17.9775 20.9014C17.999 20.6662 18 20.3344 18 19.7998V5.2002C18 4.62365 17.9987 4.25112 17.9756 3.96778C17.9534 3.69619 17.9158 3.59534 17.8906 3.5459C17.7948 3.35793 17.6421 3.20522 17.4541 3.10938C17.4047 3.08419 17.3038 3.04662 17.0322 3.02442C16.7489 3.00127 16.3764 3 15.7998 3H8.2002Z" fill="oklch(0.3523 0 0 / 1)" class="wd-icon-fill"></path>
<g>
<path d="M15.25 12.25C15.6642 12.25 16 12.5858 16 13C16 13.4142 15.6642 13.75 15.25 13.75H8.75C8.33579 13.75 8 13.4142 8 13C8 12.5858 8.33579 12.25 8.75 12.25H15.25Z" fill="oklch(0.3523 0 0 / 1)" class="wd-icon-accent"></path>
<path d="M15 9C15.5523 9 16 9.44772 16 10C16 10.5523 15.5523 11 15 11C14.4477 11 14 10.5523 14 10C14 9.44772 14.4477 9 15 9Z" fill="oklch(0.3523 0 0 / 1)" class="wd-icon-accent"></path>
<path d="M12.25 9.25C12.6642 9.25 13 9.58579 13 10C13 10.4142 12.6642 10.75 12.25 10.75H8.75C8.33579 10.75 8 10.4142 8 10C8 9.58579 8.33579 9.25 8.75 9.25H12.25Z" fill="oklch(0.3523 0 0 / 1)" class="wd-icon-accent"></path>
<path d="M15 6C15.5523 6 16 6.44772 16 7C16 7.55228 15.5523 8 15 8C14.4477 8 14 7.55228 14 7C14 6.44772 14.4477 6 15 6Z" fill="oklch(0.3523 0 0 / 1)" class="wd-icon-accent"></path>
<path d="M12.25 6.25C12.6642 6.25 13 6.58579 13 7C13 7.41421 12.6642 7.75 12.25 7.75H8.75C8.33579 7.75 8 7.41421 8 7C8 6.58579 8.33579 6.25 8.75 6.25H12.25Z" fill="oklch(0.3523 0 0 / 1)" class="wd-icon-accent"></path>
</g>
</svg>