<svg width="24" height="24" viewBox="0 0 24 24" xmlns="http://www.w3.org/2000/svg" class="wd-icon wd-icon-pivot" role="presentation">
<g>
<path d="M18.4004 9.00001C18.6638 9.00001 18.9219 8.9989 19.1387 9.01662C19.3672 9.03531 19.637 9.07958 19.9082 9.21779C20.2374 9.38556 20.5129 9.64087 20.7051 9.95412L20.7822 10.0918L20.8692 10.2949C20.9406 10.4958 20.9694 10.6901 20.9834 10.8613C21.0011 11.0781 21 11.3362 21 11.5996V18.4004C21 18.6638 21.0011 18.9219 20.9834 19.1387C20.9647 19.3672 20.9205 19.637 20.7822 19.9082C20.5905 20.2845 20.2845 20.5905 19.9082 20.7822C19.637 20.9205 19.3672 20.9647 19.1387 20.9834C18.9219 21.0011 18.6638 21 18.4004 21H17.5996C17.3362 21 17.0782 21.0011 16.8613 20.9834C16.6328 20.9647 16.3631 20.9205 16.0918 20.7822C15.7156 20.5905 15.4095 20.2845 15.2178 19.9082C15.0796 19.637 15.0353 19.3672 15.0166 19.1387C14.9989 18.9219 15 18.6638 15 18.4004V11.5996C15 11.3362 14.9989 11.0781 15.0166 10.8613C15.0353 10.6328 15.0796 10.3631 15.2178 10.0918C15.4095 9.71556 15.7156 9.40952 16.0918 9.21779C16.3631 9.07958 16.6328 9.03531 16.8613 9.01662C17.0782 8.9989 17.3362 9.00001 17.5996 9.00001H18.4004ZM17.5996 11C17.3034 11 17.141 11.0012 17.0244 11.0108C17.02 11.0111 17.0157 11.0114 17.0117 11.0117C17.0114 11.0157 17.0111 11.02 17.0108 11.0244C17.0012 11.141 17 11.3034 17 11.5996V18.4004C17 18.6967 17.0012 18.8591 17.0108 18.9756C17.0111 18.9797 17.0114 18.9836 17.0117 18.9873C17.0158 18.9877 17.0199 18.9889 17.0244 18.9893C17.141 18.9988 17.3034 19 17.5996 19H18.4004C18.6967 19 18.8591 18.9988 18.9756 18.9893C18.9797 18.9889 18.9836 18.9877 18.9873 18.9873C18.9877 18.9836 18.9889 18.9797 18.9893 18.9756C18.9988 18.8591 19 18.6967 19 18.4004V11.5996C19 11.3034 18.9988 11.141 18.9893 11.0244C18.9889 11.0199 18.9877 11.0158 18.9873 11.0117C18.9836 11.0114 18.9797 11.0111 18.9756 11.0108C18.8591 11.0012 18.6967 11 18.4004 11H17.5996Z" fill="oklch(0.3523 0 0 / 1)" class="wd-icon-fill"></path>
<path d="M4.00001 10C4.55218 10.0001 4.99988 10.4479 5.00001 11C5.00003 11.7669 5.1765 12.5242 5.51564 13.2119C5.85482 13.8995 6.34781 14.5 6.95607 14.9668C7.5579 15.4286 8.25696 15.7477 9.00001 15.8994V14.461C9.00019 14.0566 9.45581 13.819 9.78712 14.0508L13.4151 16.5908C13.6994 16.7898 13.6992 17.2111 13.4151 17.4102L9.78712 19.9492C9.45577 20.1812 9.00011 19.9445 9.00001 19.5401V17.9277C8.87794 17.9101 8.75607 17.8894 8.63478 17.8652C7.58172 17.6558 6.59011 17.2073 5.7383 16.5537C4.88657 15.9001 4.19655 15.0586 3.72169 14.0957C3.24698 13.1329 3.00003 12.0735 3.00001 11C3.00014 10.4479 3.44785 10.0001 4.00001 10Z" fill="oklch(0.3523 0 0 / 1)" class="wd-icon-fill"></path>
<path d="M12.4004 3.00001C12.6638 3.00001 12.9219 2.9989 13.1387 3.01662C13.3672 3.03531 13.637 3.07958 13.9082 3.21779C14.2374 3.38556 14.5129 3.64087 14.7051 3.95412L14.7822 4.09181L14.8692 4.29494C14.9406 4.49577 14.9694 4.69007 14.9834 4.86134C15.0011 5.07815 15 5.33624 15 5.59962V6.4004C15 6.66379 15.0011 6.92188 14.9834 7.13869C14.9647 7.36719 14.9205 7.63696 14.7822 7.90822C14.5905 8.28447 14.2845 8.59051 13.9082 8.78224C13.637 8.92045 13.3672 8.96472 13.1387 8.98341C12.9219 9.00113 12.6638 9.00001 12.4004 9.00001H5.59962C5.33624 9.00001 5.07815 9.00113 4.86134 8.98341C4.63284 8.96472 4.36307 8.92045 4.09181 8.78224C3.71557 8.59051 3.40952 8.28446 3.21779 7.90822C3.07958 7.63696 3.03531 7.36719 3.01662 7.13869C2.9989 6.92188 3.00001 6.66379 3.00001 6.4004V5.59962C3.00001 5.33624 2.9989 5.07815 3.01662 4.86134C3.03531 4.63284 3.07958 4.36307 3.21779 4.09181C3.40952 3.71556 3.71556 3.40952 4.09181 3.21779C4.36307 3.07958 4.63284 3.03531 4.86134 3.01662C5.07815 2.9989 5.33624 3.00001 5.59962 3.00001H12.4004ZM5.59962 5.00001C5.30335 5.00001 5.14096 5.00124 5.02443 5.01076C5.01997 5.01112 5.01573 5.01136 5.01173 5.01173C5.01136 5.01573 5.01112 5.01997 5.01076 5.02443C5.00124 5.14096 5.00001 5.30335 5.00001 5.59962V6.4004C5.00001 6.69667 5.00124 6.85907 5.01076 6.9756C5.01109 6.97969 5.01139 6.98361 5.01173 6.98732C5.01576 6.98769 5.01994 6.9889 5.02443 6.98927C5.14096 6.99879 5.30335 7.00001 5.59962 7.00001H12.4004C12.6967 7.00001 12.8591 6.99879 12.9756 6.98927C12.9797 6.98893 12.9836 6.98766 12.9873 6.98732C12.9877 6.98358 12.9889 6.97973 12.9893 6.9756C12.9988 6.85907 13 6.69667 13 6.4004V5.59962C13 5.30335 12.9988 5.14096 12.9893 5.02443C12.9889 5.01994 12.9877 5.01576 12.9873 5.01173C12.9836 5.01139 12.9797 5.01109 12.9756 5.01076C12.8591 5.00124 12.6967 5.00001 12.4004 5.00001H5.59962Z" fill="oklch(0.3523 0 0 / 1)" class="wd-icon-fill"></path>
</g>
</svg>