<svg width="24" height="24" viewBox="0 0 24 24" xmlns="http://www.w3.org/2000/svg" class="wd-icon wd-icon-folder-arrow-right" role="presentation">
<path d="M7 4L7.34375 4.00879C8.14556 4.04821 8.93546 4.22534 9.67871 4.5332C10.5056 4.87573 11.2584 5.37401 11.8975 6H20.5C20.7761 6 21 6.22386 21 6.5V19.5C21 19.7761 20.7761 20 20.5 20H3.5C3.22386 20 3 19.7761 3 19.5V4.5C3 4.22386 3.22386 4 3.5 4H7Z" fill="transparent" class="wd-icon-background"></path>
<path d="M7.36914 3.00879L7.38086 3.00977H7.39258C8.30896 3.05482 9.21211 3.25754 10.0615 3.60938C10.8773 3.94729 11.6291 4.41807 12.2891 5H20.5C21.3284 5 22 5.67157 22 6.5V19.5C22 20.3284 21.3284 21 20.5 21H3.5C2.72334 21 2.08461 20.4097 2.00781 19.6533L2 19.5V4.5C2 3.67157 2.67157 3 3.5 3H7.02539L7.36914 3.00879ZM4 19H20V7H11.4893L11.1973 6.71484C10.6491 6.17791 10.0042 5.75043 9.2959 5.45703C8.66164 5.19433 7.9878 5.04248 7.30371 5.00781L6.97461 5H4V19Z" fill="oklch(0.3523 0 0 / 1)" class="wd-icon-fill"></path>
<path d="M13.5234 9.18286C13.7371 9.00803 14.0527 9.03947 14.2275 9.25317L16.7744 12.3665C16.8122 12.4127 16.8457 12.4612 16.874 12.512C17.0713 12.8651 17.0377 13.311 16.7744 13.6331L14.2275 16.7454C14.0526 16.959 13.7371 16.9905 13.5234 16.8157L12.75 16.1829C12.5364 16.008 12.5049 15.6934 12.6797 15.4797L13.8896 14.0002H7.5C7.22397 14.0002 7.00018 13.7762 7 13.5002V12.5002C7 12.2241 7.22386 12.0002 7.5 12.0002H13.8906L12.6797 10.5198C12.5048 10.306 12.5362 9.99147 12.75 9.81665L13.1367 9.50024L13.5234 9.18286Z" fill="oklch(0.3523 0 0 / 1)" class="wd-icon-accent"></path>
</svg>