<svg width="24" height="24" viewBox="0 0 24 24" xmlns="http://www.w3.org/2000/svg" class="wd-icon wd-icon-timeline" role="presentation">
<g>
<path d="M7 3C7.55228 3 8 3.44772 8 4V5.17383C9.16468 5.58594 10 6.69415 10 8C10 9.30574 9.16452 10.413 8 10.8252V13.1738C9.16468 13.5859 10 14.6941 10 16C10 17.3057 9.16452 18.413 8 18.8252V20C8 20.5523 7.55228 21 7 21C6.44772 21 6 20.5523 6 20V18.8252C4.83548 18.413 4 17.3057 4 16C4 14.6941 4.83532 13.5859 6 13.1738V10.8252C4.83548 10.413 4 9.30574 4 8C4 6.69415 4.83532 5.58594 6 5.17383V4C6 3.44772 6.44772 3 7 3ZM7 15C6.44772 15 6 15.4477 6 16C6 16.5523 6.44772 17 7 17C7.55228 17 8 16.5523 8 16C8 15.4477 7.55228 15 7 15ZM7 7C6.44772 7 6 7.44772 6 8C6 8.55228 6.44772 9 7 9C7.55228 9 8 8.55228 8 8C8 7.44772 7.55228 7 7 7Z" fill="oklch(0.3523 0 0 / 1)" class="wd-icon-fill"></path>
<path d="M20 15C20.5523 15 21 15.4477 21 16C21 16.5523 20.5523 17 20 17H13C12.4477 17 12 16.5523 12 16C12 15.4477 12.4477 15 13 15H20Z" fill="oklch(0.3523 0 0 / 1)" class="wd-icon-fill"></path>
<path d="M20 7C20.5523 7 21 7.44772 21 8C21 8.55228 20.5523 9 20 9H13C12.4477 9 12 8.55228 12 8C12 7.44772 12.4477 7 13 7H20Z" fill="oklch(0.3523 0 0 / 1)" class="wd-icon-fill"></path>
</g>
</svg>