<svg width="24" height="24" viewBox="0 0 24 24" xmlns="http://www.w3.org/2000/svg" class="wd-icon wd-icon-user-circle" role="presentation">
<path d="M12 2C17.5228 2 22 6.47715 22 12C22 17.5228 17.5228 22 12 22C6.47715 22 2 17.5228 2 12C2 6.47715 6.47715 2 12 2ZM12 4C7.58172 4 4 7.58172 4 12C4 16.4183 7.58172 20 12 20C16.4183 20 20 16.4183 20 12C20 7.58172 16.4183 4 12 4Z" fill="oklch(0.3523 0 0 / 1)" class="wd-icon-fill"></path>
<g>
<path d="M12.0005 15C13.3966 15.0001 14.7723 15.2936 15.8706 16.0312C16.5487 16.4869 17.09 17.094 17.4575 17.8457C16.028 19.1809 14.1099 20 11.9995 20C9.88931 19.9999 7.97093 19.1817 6.5415 17.8467C6.90924 17.0943 7.45183 16.4872 8.13037 16.0312C9.22864 15.2936 10.6044 15.0001 12.0005 15Z" fill="oklch(0.3523 0 0 / 1)" class="wd-icon-accent"></path>
<path d="M12.0005 7C13.9333 7.00022 15.5005 8.56714 15.5005 10.5C15.5005 12.4329 13.9333 13.9998 12.0005 14C10.0677 13.9998 8.50049 12.4329 8.50049 10.5C8.50049 8.56714 10.0677 7.00022 12.0005 7Z" fill="oklch(0.3523 0 0 / 1)" class="wd-icon-accent"></path>
</g>
</svg>