<svg width="24" height="24" viewBox="0 0 24 24" xmlns="http://www.w3.org/2000/svg" class="wd-icon wd-icon-thumbs-down-fill" role="presentation">
<path d="M11.6436 22.8701L11.8389 22.8232L12.085 22.7393C13.3034 22.2751 14.287 21.1985 14.4219 19.75C14.5338 18.5475 14.5262 17.3303 14.4062 16.1299L16.7832 16.4463C19.4738 16.8046 21.7316 14.436 21.2461 11.7656L20.4316 7.28418C20.0854 5.38236 18.4288 3.99989 16.4961 4H6C4.34315 4 3 5.34315 3 7V13C3.00001 14.6568 4.34315 16 6 16H8.38184L9.0498 17.3359C9.67448 18.5853 9.99986 19.9635 10 21.3604V21.4219C10.0002 22.1943 10.6839 23.0357 11.6436 22.8701ZM6 14C5.44772 14 5.00001 13.5523 5 13V7C5 6.44771 5.44772 6 6 6H7.5V14H6Z" fill="oklch(0.3523 0 0 / 1)" class="wd-icon-fill"></path>
</svg>