<svg width="24" height="24" viewBox="0 0 24 24" xmlns="http://www.w3.org/2000/svg" class="wd-icon wd-icon-area-stack-chart" role="presentation">
<g>
<path d="M18.2725 4.39551C18.2743 4.39663 18.2705 4.3944 18.2725 4.39551Z" fill="transparent" class="wd-icon-background"></path>
<path d="M17.9287 4.8457C18.0922 4.6122 18.1815 4.48495 18.2529 4.39844L18.2607 4.38867C18.2627 4.38972 18.2704 4.39429 18.2725 4.39551C18.2743 4.39663 18.2705 4.3944 18.2725 4.39551C18.3704 4.45013 18.5003 4.53536 18.7373 4.69336C18.8739 4.7844 18.9476 4.83968 18.9961 4.87598C18.9994 4.93639 19 5.01974 19 5.18359V11.9502L14.5664 14.7725L10.6826 11.666C10.0149 11.1319 9.08181 11.0812 8.36035 11.54L5 13.6777V10.708C5 10.5685 5.00341 10.4922 5.00586 10.4414C5.04177 10.4054 5.09303 10.3575 5.19629 10.2637L9.29297 6.54004C9.46099 6.38729 9.54945 6.30732 9.61719 6.25391C9.61719 6.25391 9.62787 6.25278 9.63086 6.25293C9.70775 6.29202 9.81019 6.35291 10.0049 6.46973L12.7382 8.10857C12.9391 8.22911 13.1358 8.34721 13.3115 8.43457C13.5073 8.5319 13.7474 8.62923 14.0352 8.65527C14.4366 8.69157 14.8396 8.60496 15.1914 8.4082C15.4435 8.2672 15.6236 8.08172 15.7627 7.91309C15.8888 7.76021 16.0222 7.56968 16.1579 7.37576L17.9287 4.8457Z" fill="transparent" class="wd-icon-background"></path>
</g>
<path d="M18.3635 2.37676L18.5226 2.39141L18.7316 2.43242C18.9309 2.48475 19.1021 2.5673 19.2473 2.64824C19.4306 2.75049 19.6364 2.88881 19.8469 3.0291C20.0517 3.16563 20.33 3.33918 20.5383 3.58965C20.6679 3.7456 20.7729 3.92043 20.8498 4.10723L20.9172 4.29766L20.9474 4.41484C21.0079 4.69014 21.0002 4.9679 21.0002 5.1834V16.7996C21.0002 17.3432 21.0013 17.8114 20.9699 18.1951C20.9376 18.5904 20.8658 18.9838 20.673 19.3621C20.3855 19.9263 19.9267 20.3851 19.3625 20.6727C18.9842 20.8654 18.5908 20.9372 18.1955 20.9695C17.8118 21.0009 17.3435 20.9998 16.8 20.9998H7.20038C6.65683 20.9998 6.18854 21.0009 5.80487 20.9695C5.40961 20.9372 5.01618 20.8654 4.63788 20.6727C4.07366 20.3851 3.61491 19.9263 3.32733 19.3621C3.13458 18.9838 3.06277 18.5904 3.03046 18.1951C2.99911 17.8114 3.00018 17.3432 3.00018 16.7996V10.7078C3.00018 10.4982 2.99339 10.2198 3.06268 9.94805C3.11774 9.73232 3.20768 9.52648 3.33026 9.34062C3.4846 9.10668 3.69566 8.92498 3.85077 8.78398L7.94745 5.05937C8.19792 4.83167 8.52064 4.51515 8.92889 4.36406C9.21029 4.25995 9.51112 4.22008 9.80878 4.24785L9.93573 4.26445L10.0939 4.29766C10.4585 4.39296 10.7803 4.60125 11.0344 4.75371L13.7355 6.3748C13.9745 6.51815 14.1049 6.59492 14.2023 6.64336C14.2056 6.64499 14.2091 6.64581 14.2121 6.64726C14.2142 6.64477 14.2176 6.64319 14.2199 6.64043C14.2892 6.5565 14.3766 6.43308 14.5363 6.20488L16.2902 3.69902C16.4354 3.49161 16.5774 3.28781 16.7111 3.12578C16.8522 2.9548 17.0358 2.76485 17.2932 2.62285C17.6209 2.44211 17.9918 2.35728 18.3635 2.37676ZM5.00018 16.0486V16.7996C5.00018 17.3762 5.00145 17.7487 5.0246 18.032C5.04679 18.3036 5.08437 18.4045 5.10956 18.4539C5.2054 18.6419 5.35811 18.7946 5.54608 18.8904C5.59552 18.9156 5.69637 18.9532 5.96796 18.9754C6.25129 18.9985 6.62382 18.9998 7.20038 18.9998H16.8C17.3765 18.9998 17.7491 18.9985 18.0324 18.9754C18.304 18.9532 18.4048 18.9156 18.4543 18.8904C18.6423 18.7946 18.795 18.6419 18.8908 18.4539C18.916 18.4045 18.9536 18.3036 18.9758 18.032C18.9989 17.7487 19.0002 17.3762 19.0002 16.7996V14.3211L15.6398 16.4598C14.9184 16.9186 13.9853 16.8679 13.3176 16.3338L9.43378 13.2273L5.00018 16.0486ZM18.2531 4.39824C18.1817 4.48475 18.0923 4.61201 17.9289 4.84551L16.175 7.35137C16.0334 7.55358 15.8942 7.75366 15.7629 7.91289C15.6238 8.08152 15.4437 8.26701 15.1916 8.40801C14.8398 8.60476 14.4368 8.69137 14.0353 8.65508C13.7476 8.62903 13.5075 8.53171 13.3117 8.43437C13.1269 8.3425 12.9188 8.21661 12.7072 8.08965L10.0051 6.46953C9.81038 6.35272 9.70793 6.29182 9.63104 6.25273C9.62835 6.25137 9.62566 6.25004 9.62323 6.24883C9.62134 6.2503 9.61943 6.25209 9.61737 6.25371C9.54964 6.30712 9.46118 6.38709 9.29315 6.53984L5.19647 10.2635C5.09321 10.3574 5.04195 10.4053 5.00604 10.4412L5.00311 10.4432V10.4471C5.00066 10.4978 5.00018 10.5683 5.00018 10.7078V13.6775L8.36053 11.5398C9.082 11.081 10.0151 11.1317 10.6828 11.6658L14.5666 14.7723L19.0002 11.95V5.1834C19.0002 5.01954 18.9996 4.9362 18.9963 4.87578C18.9961 4.87347 18.9954 4.87099 18.9953 4.86894L18.9924 4.86699C18.9439 4.83069 18.874 4.7842 18.7375 4.69316C18.5005 4.53516 18.3706 4.44994 18.2726 4.39531C18.2685 4.39299 18.2646 4.39049 18.2609 4.38848C18.2584 4.39149 18.2559 4.39485 18.2531 4.39824Z" fill="oklch(0.3523 0 0 / 1)" class="wd-icon-fill"></path>
</svg>