<svg width="24" height="24" viewBox="0 0 24 24" xmlns="http://www.w3.org/2000/svg" class="wd-icon wd-icon-image-fill" role="presentation">
<path d="M16.2002 4C17.0237 4 17.7016 3.99898 18.252 4.04395C18.814 4.08988 19.3311 4.18828 19.8164 4.43555C20.5688 4.81902 21.181 5.43115 21.5645 6.1836C21.8116 6.66879 21.9101 7.18613 21.9561 7.74805C22.001 8.29835 22 8.97654 22 9.79981V14.2002C22 15.0235 22.001 15.7017 21.9561 16.252C21.9101 16.8138 21.8117 17.3312 21.5645 17.8164C21.181 18.5687 20.5688 19.181 19.8164 19.5645C19.3312 19.8117 18.8139 19.9101 18.252 19.9561C17.7016 20.001 17.0237 20 16.2002 20H7.79981C6.97634 20 6.29842 20.001 5.74805 19.9561C5.18606 19.9101 4.66885 19.8117 4.1836 19.5645C3.43121 19.181 2.81903 18.5687 2.43555 17.8164C2.18834 17.3312 2.08989 16.8138 2.04395 16.252C1.99899 15.7017 2 15.0235 2 14.2002V9.79981C2 8.97654 1.99902 8.29835 2.04395 7.74805C2.08986 7.18613 2.18841 6.66879 2.43555 6.1836C2.81899 5.43115 3.43118 4.81902 4.1836 4.43555C4.66889 4.18828 5.18601 4.08988 5.74805 4.04395C6.29843 3.99898 6.97632 4 7.79981 4H16.2002ZM17.207 11.207C16.8165 10.8165 16.1835 10.8165 15.793 11.207L11.207 15.793C10.8166 16.183 10.1834 16.183 9.79297 15.793L7.20703 13.207C6.81651 12.8165 6.18349 12.8165 5.79297 13.207L4.00293 14.9961C4.00591 15.4432 4.01307 15.7946 4.03711 16.0889C4.07294 16.527 4.13812 16.7519 4.21778 16.9082C4.40952 17.2843 4.71568 17.5906 5.0918 17.7822C5.24819 17.8619 5.47291 17.9271 5.91113 17.9629C6.36117 17.9997 6.94344 18 7.79981 18H16.2002C17.0566 18 17.6388 17.9997 18.0889 17.9629C18.5271 17.9271 18.7518 17.8619 18.9082 17.7822C19.2843 17.5906 19.5905 17.2843 19.7822 16.9082C19.8619 16.7519 19.9271 16.527 19.9629 16.0889C19.9996 15.6389 20 15.0563 20 14.2002V14L17.207 11.207ZM9.5 7.75C8.53351 7.75001 7.75 8.53351 7.75 9.5C7.75023 10.4663 8.53365 11.25 9.5 11.25C10.4664 11.25 11.2498 10.4663 11.25 9.5C11.25 8.5335 10.4665 7.75 9.5 7.75Z" fill="oklch(0.3523 0 0 / 1)" class="wd-icon-fill"></path>
</svg>