<svg width="24" height="24" viewBox="0 0 24 24" xmlns="http://www.w3.org/2000/svg" class="wd-icon wd-icon-home-fill" role="presentation">
<path d="M11.1999 2.17005C11.7232 2.02531 12.2762 2.02538 12.7995 2.17005C13.1453 2.26571 13.4373 2.43035 13.7126 2.61927C13.9775 2.8011 14.2785 3.04234 14.6237 3.31849L22.6247 9.71888C23.0559 10.0639 23.1259 10.6939 22.781 11.1251C22.4359 11.5564 21.806 11.6264 21.3747 11.2814L20.9997 10.9806V16.7999C20.9997 17.3433 21.0007 17.8118 20.9694 18.1954C20.9371 18.5906 20.8652 18.9842 20.6726 19.3624C20.385 19.9267 19.9262 20.3854 19.362 20.673C18.9837 20.8657 18.5902 20.9375 18.195 20.9699C17.8114 21.0012 17.3429 21.0001 16.7995 21.0001H7.1999C6.65648 21.0001 6.18799 21.0012 5.80439 20.9699C5.40925 20.9375 5.01558 20.8657 4.6374 20.673C4.07337 20.3854 3.61435 19.9265 3.32685 19.3624C3.13427 18.9843 3.06227 18.5905 3.02998 18.1954C2.99866 17.8119 2.9997 17.3433 2.9997 16.7999V10.9806L2.6247 11.2814C2.19344 11.6264 1.56346 11.5564 1.21845 11.1251C0.873812 10.6939 0.943576 10.0638 1.3747 9.71888L9.37568 3.31849C9.72101 3.04222 10.0218 2.80116 10.2868 2.61927C10.5622 2.43027 10.8541 2.26576 11.1999 2.17005ZM11.9997 13.0001C11.068 13.0001 10.6016 13.0003 10.2341 13.1525C9.74422 13.3555 9.355 13.7456 9.15205 14.2355C8.99999 14.6029 8.9997 15.0689 8.9997 16.0001V19.0001H14.9997V16.0001C14.9997 15.0689 14.9994 14.6029 14.8474 14.2355C14.6444 13.7457 14.2552 13.3554 13.7653 13.1525C13.3978 13.0004 12.9313 13.0001 11.9997 13.0001Z" fill="oklch(0.3523 0 0 / 1)" class="wd-icon-fill"></path>
</svg>