<svg width="24" height="24" viewBox="0 0 24 24" xmlns="http://www.w3.org/2000/svg" class="wd-icon wd-icon-heading" role="presentation">
<g>
<path d="M4.61328 5C4.88942 5 5.11328 5.22386 5.11328 5.5V11.0195H11.6533V5.5C11.6533 5.22392 11.8773 5.00009 12.1533 5H13.4131C13.6892 5 13.9131 5.22386 13.9131 5.5V18.5C13.9131 18.7761 13.6892 19 13.4131 19H12.1533C11.8773 18.9999 11.6533 18.7761 11.6533 18.5V12.9199H5.11328V18.5C5.11328 18.7761 4.88942 19 4.61328 19H3.35352C3.07737 19 2.85352 18.7761 2.85352 18.5V5.5C2.85352 5.22386 3.07737 5 3.35352 5H4.61328Z" fill="oklch(0.3523 0 0 / 1)" class="wd-icon-fill"></path>
<path d="M20.3604 5C20.6365 5 20.8604 5.22386 20.8604 5.5V18.5C20.8604 18.7761 20.6365 19 20.3604 19H19.2002C18.9243 18.9997 18.7002 18.776 18.7002 18.5V8.54004H18.6611C18.4411 9.54004 17.7206 9.98047 16.6406 9.98047H16.0205C15.7446 9.98038 15.5208 9.75634 15.5205 9.48047V8.5C15.5205 8.22391 15.7444 8.00009 16.0205 8H16.6807C18.1205 8 18.7206 7.30015 18.7207 5.94043V5.5C18.7207 5.22386 18.9446 5 19.2207 5H20.3604Z" fill="oklch(0.3523 0 0 / 1)" class="wd-icon-fill"></path>
</g>
</svg>