<svg width="24" height="24" viewBox="0 0 24 24" xmlns="http://www.w3.org/2000/svg" class="wd-icon wd-icon-id-card-search" role="presentation">
<g>
<path d="M14.2002 2C15.0236 2 15.7016 1.99898 16.252 2.04395C16.8139 2.08988 17.3312 2.1883 17.8164 2.43555C18.5689 2.81902 19.181 3.43113 19.5645 4.1836C19.8117 4.66888 19.9101 5.18602 19.9561 5.74805C20.001 6.29843 20 6.97632 20 7.79981V12C20 12.5522 19.5522 12.9999 19 13C18.4477 13 18 12.5523 18 12V7.79981C18 6.94343 17.9997 6.36117 17.9629 5.91113C17.9271 5.47278 17.8619 5.2482 17.7822 5.0918C17.5905 4.71559 17.2844 4.40951 16.9082 4.21778C16.7518 4.1381 16.5272 4.07293 16.0889 4.03711C15.6389 4.00035 15.0565 4 14.2002 4H9.79981C8.94352 4 8.36115 4.00036 7.91113 4.03711C7.47285 4.07292 7.24819 4.13812 7.0918 4.21778C6.71557 4.4095 6.40951 4.71558 6.21778 5.0918C6.13809 5.2482 6.07293 5.47273 6.03711 5.91113C6.00035 6.36117 6 6.94342 6 7.79981V16.2002C6 17.0566 6.00035 17.6388 6.03711 18.0889C6.07293 18.5273 6.13809 18.7518 6.21778 18.9082C6.40951 19.2844 6.71557 19.5905 7.0918 19.7822C7.24819 19.8619 7.47285 19.9271 7.91113 19.9629C8.36115 19.9996 8.94352 20 9.79981 20H12C12.5522 20.0001 13 20.4478 13 21C13 21.5522 12.5522 21.9999 12 22H9.79981C8.9764 22 8.2984 22.001 7.74805 21.9561C7.18604 21.9101 6.66886 21.8117 6.1836 21.5645C5.43111 21.181 4.81902 20.5689 4.43555 19.8164C4.18828 19.3311 4.08988 18.814 4.04395 18.252C3.99898 17.7016 4 17.0237 4 16.2002V7.79981C4 6.97632 3.99898 6.29843 4.04395 5.74805C4.08988 5.186 4.18828 4.6689 4.43555 4.1836C4.81902 3.43112 5.43111 2.81901 6.1836 2.43555C6.66886 2.18832 7.18605 2.08987 7.74805 2.04395C8.2984 1.99899 8.9764 2 9.79981 2H14.2002Z" fill="oklch(0.3523 0 0 / 1)" class="wd-icon-fill"></path>
<path d="M12 14C12.7965 14.0001 13.5386 14.1337 14.1621 14.4189C13.5073 15.1205 13.0423 16.0015 12.8496 16.9805C12.5823 16.9924 12.2985 17 12 17C10.7019 17 9.69441 16.8723 9.01563 16.7461C8.4976 16.6496 8.17806 16.1187 8.43946 15.6611C9.10251 14.5013 10.4481 14.0001 12 14Z" fill="oklch(0.3523 0 0 / 1)" class="wd-icon-fill"></path>
<path d="M12 9C13.1044 9.00024 14 9.89558 14 11C14 12.1044 13.1044 12.9998 12 13C10.8956 12.9998 10 12.1044 10 11C10 9.89558 10.8956 9.00024 12 9Z" fill="oklch(0.3523 0 0 / 1)" class="wd-icon-fill"></path>
<path d="M13.25 5C13.6642 5 14 5.33579 14 5.75C14 6.16422 13.6642 6.5 13.25 6.5H10.75C10.3358 6.5 10 6.16422 10 5.75C10 5.33579 10.3358 5 10.75 5H13.25Z" fill="oklch(0.3523 0 0 / 1)" class="wd-icon-fill"></path>
</g>
<path d="M18 14C20.2091 14 22 15.7909 22 18C22 18.8334 21.7437 19.6064 21.3076 20.2471L22.7803 21.7197C23.0731 22.0126 23.0731 22.4874 22.7803 22.7803C22.4874 23.073 22.0126 23.0731 21.7197 22.7803L20.2471 21.3076C19.6064 21.7437 18.8334 22 18 22C15.7909 22 14 20.2091 14 18C14 15.7909 15.7909 14 18 14ZM18 15.5C16.6193 15.5 15.5 16.6193 15.5 18C15.5 19.3807 16.6193 20.5 18 20.5C19.3807 20.5 20.5 19.3807 20.5 18C20.5 16.6193 19.3807 15.5 18 15.5Z" fill="oklch(0.3523 0 0 / 1)" class="wd-icon-accent"></path>
</svg>