<svg width="24" height="24" viewBox="0 0 24 24" xmlns="http://www.w3.org/2000/svg" class="wd-icon wd-icon-toggle" role="presentation">
<path d="M16 8.25C18.0711 8.25 19.75 9.92893 19.75 12C19.75 14.0711 18.0711 15.75 16 15.75C13.9289 15.75 12.25 14.0711 12.25 12C12.25 9.92893 13.9289 8.25 16 8.25Z" fill="transparent" class="wd-icon-background"></path>
<path d="M16 5C19.866 5 23 8.13401 23 12C23 15.866 19.866 19 16 19H8C4.13401 19 1 15.866 1 12C1 8.13401 4.13401 5 8 5H16ZM8 7C5.23858 7 3 9.23858 3 12C3 14.7614 5.23858 17 8 17H16C18.7614 17 21 14.7614 21 12C21 9.23858 18.7614 7 16 7H8Z" fill="oklch(0.3523 0 0 / 1)" class="wd-icon-fill"></path>
<path d="M8 8.25C10.0711 8.25 11.75 9.92893 11.75 12C11.75 14.0711 10.0711 15.75 8 15.75C5.92893 15.75 4.25 14.0711 4.25 12C4.25 9.92893 5.92893 8.25 8 8.25Z" fill="oklch(0.3523 0 0 / 1)" class="wd-icon-accent"></path>
</svg>