<svg width="24" height="24" viewBox="0 0 24 24" xmlns="http://www.w3.org/2000/svg" class="wd-icon wd-icon-face-neutral" role="presentation">
<path d="M22 12C22 17.5228 17.5228 22 12 22C6.47715 22 2 17.5228 2 12C2 6.47715 6.47715 2 12 2C17.5228 2 22 6.47715 22 12Z" fill="transparent" class="wd-icon-background"></path>
<path d="M12 1C18.0751 1 23 5.92487 23 12C23 18.0751 18.0751 23 12 23C5.92487 23 1 18.0751 1 12C1 5.92487 5.92487 1 12 1ZM12 3C7.02944 3 3 7.02944 3 12C3 16.9706 7.02944 21 12 21C16.9706 21 21 16.9706 21 12C21 7.02944 16.9706 3 12 3Z" fill="oklch(0.3523 0 0 / 1)" class="wd-icon-fill"></path>
<g>
<path d="M16.5 15C16.7761 15 17 15.2239 17 15.5V16.5C17 16.7761 16.7761 17 16.5 17H7.5C7.22386 17 7 16.7761 7 16.5V15.5C7 15.2239 7.22386 15 7.5 15H16.5Z" fill="oklch(0.3523 0 0 / 1)" class="wd-icon-accent"></path>
<path d="M9.5 7C9.77614 7 10 7.22386 10 7.5V11.5C10 11.7761 9.77614 12 9.5 12H8.5C8.22386 12 8 11.7761 8 11.5V7.5C8 7.22386 8.22386 7 8.5 7H9.5Z" fill="oklch(0.3523 0 0 / 1)" class="wd-icon-accent"></path>
<path d="M15.5 7C15.7761 7 16 7.22386 16 7.5V11.5C16 11.7761 15.7761 12 15.5 12H14.5C14.2239 12 14 11.7761 14 11.5V7.5C14 7.22386 14.2239 7 14.5 7H15.5Z" fill="oklch(0.3523 0 0 / 1)" class="wd-icon-accent"></path>
</g>
</svg>