<svg width="24" height="24" viewBox="0 0 24 24" xmlns="http://www.w3.org/2000/svg" class="wd-icon wd-icon-arrow-up-right-circle" role="presentation">
<g>
<path d="M14.8252 8.17188C15.3774 8.17187 15.825 8.61977 15.8252 9.17188V13.415C15.8247 13.9669 15.3772 14.415 14.8252 14.415C14.2735 14.4147 13.8267 13.9667 13.8262 13.415V11.5859L9.87695 15.5352C9.48651 15.9256 8.85246 15.9254 8.46191 15.5352C8.07182 15.1447 8.07168 14.5115 8.46191 14.1211L12.4111 10.1719H10.583C10.0309 10.1719 9.58333 9.72388 9.58301 9.17188C9.58321 8.61977 10.0309 8.17188 10.583 8.17188H14.8252Z" fill="oklch(0.3523 0 0 / 1)" class="wd-icon-fill"></path>
<path d="M12 2C17.5228 2 22 6.47715 22 12C22 17.5228 17.5228 22 12 22C6.47715 22 2 17.5228 2 12C2 6.47715 6.47715 2 12 2ZM12 4C7.58172 4 4 7.58172 4 12C4 16.4183 7.58172 20 12 20C16.4183 20 20 16.4183 20 12C20 7.58172 16.4183 4 12 4Z" fill="oklch(0.3523 0 0 / 1)" class="wd-icon-fill"></path>
</g>
</svg>