<svg width="24" height="24" viewBox="0 0 24 24" xmlns="http://www.w3.org/2000/svg" class="wd-icon wd-icon-split-small" role="presentation">
<path d="M17 5C17.5523 5 18 5.44772 18 6V9C17.9998 9.55215 17.5522 10 17 10C16.4478 10 16.0002 9.55215 16 9V8.41406L12.4141 12L16 15.5859V15C16 14.4477 16.4477 14 17 14C17.5523 14 18 14.4477 18 15V18C17.9998 18.5521 17.5522 19 17 19H14C13.4478 19 13.0002 18.5521 13 18C13 17.4477 13.4477 17 14 17H14.5859L10.5576 12.9717C10.4303 12.9882 10.3017 13 10.1719 13H6C5.44782 13 5.00016 12.5521 5 12C5 11.4477 5.44771 11 6 11H10.1719C10.4369 10.9999 10.6915 10.8944 10.8789 10.707L14.5859 7H14C13.4478 7 13.0002 6.55215 13 6C13 5.44772 13.4477 5 14 5H17Z" fill="oklch(0.3523 0 0 / 1)" class="wd-icon-fill"></path>
</svg>