<svg width="24" height="24" viewBox="0 0 24 24" xmlns="http://www.w3.org/2000/svg" class="wd-icon wd-icon-touch-id" role="presentation">
<g>
<path d="M11.8678 2.00003C12.0712 1.99737 12.2383 2.16071 12.2409 2.36485C12.2436 2.569 12.0808 2.73664 11.8774 2.7393C8.37046 2.78511 5.23352 4.80476 3.69898 7.90559C3.6085 8.08844 3.38745 8.16304 3.20527 8.07222C3.02308 7.98141 2.94874 7.75956 3.03923 7.57671C4.69555 4.2298 8.08204 2.04949 11.8678 2.00003Z" fill="oklch(0.3523 0 0 / 1)" class="wd-icon-fill"></path>
<path d="M22.0005 12.0356C22.0005 12.2397 21.8356 12.4052 21.6322 12.4052C21.4288 12.4052 21.2639 12.2397 21.2639 12.0356C21.2639 7.50416 18.0111 3.65405 13.6144 2.87903C13.414 2.84371 13.2801 2.65207 13.3153 2.45099C13.3505 2.24991 13.5414 2.11553 13.7418 2.15084C18.4894 2.9877 22.0005 7.14367 22.0005 12.0356Z" fill="oklch(0.3523 0 0 / 1)" class="wd-icon-fill"></path>
<path d="M2.84099 9.01484C2.64543 8.95866 2.44151 9.07224 2.38553 9.26851C2.13104 10.1609 2.00055 11.0897 2.00055 12.0356C2.00055 13.1802 2.19166 14.2992 2.56144 15.3576C2.62876 15.5502 2.83894 15.6516 3.0309 15.5841C3.22286 15.5165 3.32391 15.3056 3.2566 15.1129C2.91419 14.1329 2.7372 13.0966 2.7372 12.0356C2.7372 11.1587 2.85806 10.2983 3.09374 9.47196C3.14972 9.27568 3.03656 9.07102 2.84099 9.01484Z" fill="oklch(0.3523 0 0 / 1)" class="wd-icon-fill"></path>
<path d="M7.15964 5.17031C7.32559 5.05224 7.55549 5.09154 7.67314 5.25809C7.79078 5.42465 7.75163 5.65538 7.58568 5.77346C5.26039 7.42792 3.87607 10.5003 4.53428 13.6793C4.54032 13.7085 4.54276 13.7375 4.54189 13.7661C4.63972 14.3198 4.68932 14.8843 4.68932 15.455C4.68932 16.1717 4.61108 16.8785 4.45742 17.5664C4.41292 17.7656 4.21594 17.8909 4.01744 17.8462C3.81895 17.8016 3.69412 17.6039 3.73862 17.4046C3.88043 16.7698 3.95267 16.1172 3.95267 15.455C3.95267 14.8897 3.90005 14.3315 3.79639 13.7851C3.79184 13.7611 3.78971 13.7372 3.78983 13.7136C3.12588 10.2731 4.63467 6.96686 7.15964 5.17031Z" fill="oklch(0.3523 0 0 / 1)" class="wd-icon-fill"></path>
<path d="M20.7597 16.7414C20.7356 16.9441 20.5524 17.0888 20.3504 17.0647C20.1484 17.0405 20.0042 16.8565 20.0282 16.6538C20.0683 16.3167 20.0884 15.9787 20.0884 15.6398C20.0884 15.4843 20.0841 15.3289 20.0757 15.1738C20.0646 14.9699 20.2203 14.7957 20.4234 14.7845C20.6265 14.7734 20.8001 14.9296 20.8112 15.1335C20.8204 15.302 20.825 15.4708 20.825 15.6398C20.825 16.008 20.8032 16.3753 20.7597 16.7414Z" fill="oklch(0.3523 0 0 / 1)" class="wd-icon-fill"></path>
<path d="M20.3443 13.7197C20.5468 13.7005 20.6954 13.5202 20.6763 13.3169C20.5808 12.302 20.4227 11.2987 20.2035 10.3113L20.2023 10.3053C19.3964 6.43884 15.9856 3.62569 12.0005 3.62569C10.9042 3.62569 9.83662 3.83728 8.84239 4.24358C8.65399 4.32058 8.56345 4.53627 8.64016 4.72536C8.71687 4.91445 8.93179 5.00532 9.12019 4.92833C10.0266 4.55792 10.9999 4.36502 12.0005 4.36502C15.6338 4.36502 18.7441 6.92915 19.4804 10.4526L19.4832 10.4661C19.6964 11.4254 19.8501 12.4002 19.9429 13.3865C19.9621 13.5897 20.1417 13.7389 20.3443 13.7197Z" fill="oklch(0.3523 0 0 / 1)" class="wd-icon-fill"></path>
<path d="M17.8911 10.7638C18.2467 12.3391 18.4278 13.959 18.4278 15.6028C18.4278 16.7885 18.3336 17.9621 18.1474 19.1161C18.1149 19.3176 18.2513 19.5074 18.4521 19.5401C18.6529 19.5727 18.8421 19.4358 18.8746 19.2342C19.067 18.0413 19.1645 16.8281 19.1645 15.6028C19.1645 13.8934 18.9749 12.2084 18.6027 10.5699C18.6002 10.5592 18.5973 10.5486 18.594 10.5383C18.1857 8.71986 17.0424 7.15257 15.4535 6.2031C15.2787 6.09866 15.0526 6.1562 14.9486 6.33162C14.8445 6.50704 14.9018 6.73392 15.0766 6.83836C16.5008 7.68936 17.5233 9.09724 17.8815 10.7282C17.8841 10.7404 17.8874 10.7522 17.8911 10.7638Z" fill="oklch(0.3523 0 0 / 1)" class="wd-icon-fill"></path>
<path d="M16.871 20.597C16.8166 20.7937 16.6136 20.9089 16.4176 20.8543C16.2215 20.7997 16.1068 20.5959 16.1612 20.3992C16.6127 18.767 16.844 17.0712 16.844 15.3441C16.844 13.7796 16.6542 12.2404 16.2826 10.7505C16.2332 10.5525 16.3531 10.3517 16.5504 10.3022C16.7478 10.2526 16.9478 10.3729 16.9972 10.571C17.3834 12.1195 17.5807 13.7189 17.5807 15.3441C17.5807 17.1382 17.3403 18.9006 16.871 20.597Z" fill="oklch(0.3523 0 0 / 1)" class="wd-icon-fill"></path>
<path d="M12.5865 21.9728C12.775 22.0495 12.9898 21.9584 13.0663 21.7692C13.6448 20.3377 14.0269 18.829 14.1985 17.2763C14.2209 17.0734 14.0752 16.8907 13.873 16.8682C13.6708 16.8457 13.4888 16.9919 13.4663 17.1948C13.3022 18.6798 12.9369 20.1225 12.3836 21.4913C12.3072 21.6805 12.398 21.8961 12.5865 21.9728Z" fill="oklch(0.3523 0 0 / 1)" class="wd-icon-fill"></path>
<path d="M14.3026 15.381C14.3026 15.5852 14.1377 15.7507 13.9343 15.7507C13.7308 15.7507 13.5659 15.5852 13.5659 15.381C13.5659 14.1584 13.4316 12.9536 13.1679 11.7817C13.1629 11.7596 13.16 11.7374 13.1591 11.7155C13.025 11.2023 12.5595 10.8342 12.019 10.8342C11.368 10.8342 10.8403 11.3638 10.8403 12.0171C10.8403 12.1425 10.857 12.3597 10.9068 12.61C10.9112 12.6317 10.9135 12.6533 10.914 12.6746C11.0363 13.4549 11.0982 14.2478 11.0982 15.0483C11.0982 17.2784 10.6177 19.4409 9.7026 21.4203C9.61699 21.6055 9.39799 21.686 9.21347 21.6001C9.02894 21.5142 8.94876 21.2944 9.03438 21.1092C9.90464 19.2267 10.3615 17.1703 10.3615 15.0483C10.3615 14.2672 10.2996 13.494 10.1774 12.7338C10.1755 12.7215 10.1741 12.7093 10.1734 12.6971C10.1214 12.4174 10.1037 12.1765 10.1037 12.0171C10.1037 10.9554 10.9612 10.0948 12.019 10.0948C12.9335 10.0948 13.7152 10.7428 13.8957 11.6317C13.8998 11.6523 13.9022 11.6728 13.9029 11.6931C14.1678 12.8949 14.3026 14.1293 14.3026 15.381Z" fill="oklch(0.3523 0 0 / 1)" class="wd-icon-fill"></path>
<path d="M10.8791 21.9655C11.0679 22.0414 11.2823 21.9494 11.358 21.7599C11.4192 21.6067 11.5106 21.374 11.6022 21.1329L11.6219 21.0811C11.6928 20.8935 11.7502 20.7358 11.7906 20.6161C11.8559 20.4227 11.7526 20.2128 11.5599 20.1474C11.3672 20.0819 11.1581 20.1856 11.0929 20.3789C11.0559 20.4885 11.0011 20.6389 10.9331 20.8188L10.914 20.8694C10.8241 21.1058 10.734 21.3351 10.6743 21.4848C10.5986 21.6743 10.6903 21.8895 10.8791 21.9655Z" fill="oklch(0.3523 0 0 / 1)" class="wd-icon-fill"></path>
<path d="M12.2599 18.9474C12.2148 19.1465 12.0174 19.2711 11.819 19.2258C11.6207 19.1805 11.4965 18.9824 11.5416 18.7834C11.809 17.6037 11.9453 16.3905 11.9453 15.1592C11.9453 14.1314 11.8504 13.116 11.6633 12.1219C11.6256 11.9213 11.757 11.728 11.9569 11.6901C12.1568 11.6522 12.3494 11.7841 12.3872 11.9847C12.5827 13.024 12.6819 14.0854 12.6819 15.1592C12.6819 16.4458 12.5395 17.714 12.2599 18.9474Z" fill="oklch(0.3523 0 0 / 1)" class="wd-icon-fill"></path>
<path d="M14.4031 21.6922C14.5951 21.7596 14.8052 21.6581 14.8725 21.4654C15.5652 19.4798 15.9232 17.3807 15.9232 15.2332C15.9232 13.9496 15.7953 12.6824 15.5437 11.4447L15.5432 11.442C15.2578 9.71479 13.7636 8.43133 12.0005 8.43133C11.5849 8.43133 11.1784 8.50237 10.7945 8.63974C10.6029 8.70829 10.5029 8.91976 10.5712 9.11207C10.6395 9.30438 10.8502 9.4047 11.0418 9.33614C11.3467 9.22708 11.6695 9.17066 12.0005 9.17066C13.4027 9.17066 14.5912 10.1923 14.8169 11.5654C14.8178 11.5711 14.8189 11.5768 14.82 11.5823L14.822 11.5925C15.0637 12.7816 15.1866 13.9993 15.1866 15.2332C15.1866 17.2972 14.8426 19.3137 14.1772 21.2211C14.11 21.4138 14.2111 21.6247 14.4031 21.6922Z" fill="oklch(0.3523 0 0 / 1)" class="wd-icon-fill"></path>
<path d="M7.68914 21.0333C7.87023 21.1263 8.09215 21.0543 8.1848 20.8726C9.04389 19.1873 9.51436 17.2659 9.51436 15.3441C9.51436 14.7187 9.46442 14.0995 9.36575 13.4907C9.37021 13.4393 9.36399 13.3862 9.34557 13.3344C9.3029 13.2145 9.26485 13.0529 9.23303 12.8621C9.20253 12.6792 9.17947 12.4809 9.16305 12.2824C9.15319 12.1631 9.14779 12.0711 9.14573 12.0205C9.14604 11.3459 9.3892 10.6949 9.82519 10.1805C9.95699 10.025 9.93823 9.79167 9.78328 9.65939C9.62834 9.52711 9.39588 9.54594 9.26408 9.70145C8.71582 10.3483 8.40939 11.1687 8.40939 12.0356C8.41215 12.111 8.41814 12.2131 8.42892 12.3435C8.44691 12.561 8.47224 12.7788 8.50648 12.9841C8.53737 13.1694 8.57409 13.3359 8.61826 13.481C8.61915 13.4907 8.62043 13.5005 8.62211 13.5102C8.72538 14.1117 8.77771 14.7245 8.77771 15.3441C8.77771 17.1477 8.33546 18.9538 7.529 20.5358C7.43635 20.7176 7.50805 20.9403 7.68914 21.0333Z" fill="oklch(0.3523 0 0 / 1)" class="wd-icon-fill"></path>
<path d="M7.44538 16.662C7.64795 16.6806 7.8272 16.5309 7.84574 16.3276C7.87767 15.9775 7.89374 15.6248 7.89374 15.2701C7.89374 14.6198 7.83972 13.9761 7.73305 13.3438C7.72765 13.3118 7.71829 13.2814 7.70556 13.2531C7.68132 13.1486 7.65918 13.0248 7.63954 12.8861C7.61343 12.7017 7.59317 12.5023 7.57821 12.3026C7.56923 12.1827 7.56406 12.09 7.56192 12.0387C7.56224 9.58371 9.55759 7.5811 12.019 7.5811C13.3818 7.5811 14.643 8.1984 15.4844 9.24127C15.6124 9.39993 15.8444 9.42439 16.0025 9.29591C16.1605 9.16742 16.1849 8.93465 16.0569 8.77599C15.077 7.56157 13.6064 6.84177 12.019 6.84177C9.15075 6.84177 6.8256 9.17539 6.8256 12.054C6.82837 12.1286 6.83399 12.2293 6.84363 12.358C6.85972 12.5728 6.88156 12.7878 6.91023 12.9902C6.94019 13.2018 6.97604 13.3881 7.0195 13.5446C7.11084 14.1113 7.15709 14.6877 7.15709 15.2701C7.15709 15.6023 7.14205 15.9325 7.11216 16.2602C7.09362 16.4635 7.24281 16.6434 7.44538 16.662Z" fill="oklch(0.3523 0 0 / 1)" class="wd-icon-fill"></path>
<path d="M6.3593 20.248C6.544 20.3336 6.76283 20.2527 6.84808 20.0673C7.12888 19.4567 7.35569 18.8216 7.52534 18.1683C7.57664 17.9707 7.45866 17.7689 7.26181 17.7174C7.06497 17.6659 6.86381 17.7843 6.8125 17.9818C6.65388 18.5927 6.44181 19.1865 6.17924 19.7575C6.09399 19.9428 6.17461 20.1625 6.3593 20.248Z" fill="oklch(0.3523 0 0 / 1)" class="wd-icon-fill"></path>
<path d="M13.7688 5.48681C13.9651 5.5401 14.0813 5.74306 14.0282 5.94015C13.9751 6.13723 13.7729 6.2538 13.5765 6.20052C13.0672 6.0623 12.5387 5.99155 12.0005 5.99155C8.67464 5.99155 5.97845 8.69754 5.97522 12.0844C5.97663 12.0721 5.97663 12.0721 5.97634 12.0755C5.96687 12.2412 6.0008 12.6629 6.12021 13.4312C6.24602 14.0564 6.30994 14.6962 6.30994 15.3441C6.30994 16.607 6.06695 17.8366 5.60047 18.981C5.52345 19.17 5.30839 19.2605 5.12011 19.1832C4.93184 19.1059 4.84165 18.89 4.91867 18.7011C5.34908 17.6451 5.57329 16.5106 5.57329 15.3441C5.57329 14.738 5.5128 14.14 5.39379 13.5561C5.39105 13.5427 5.38908 13.5293 5.38784 13.516C5.26471 12.7184 5.22805 12.258 5.2409 12.0332L5.24182 12.02L5.2418 12.0355C5.24235 12.0198 5.24249 12.0121 5.24249 12.0121L5.24182 12.02C5.25016 8.28084 8.27295 5.25222 12.0005 5.25222C12.6038 5.25222 13.1969 5.33163 13.7688 5.48681Z" fill="oklch(0.3523 0 0 / 1)" class="wd-icon-fill"></path>
</g>
</svg>