<svg width="24" height="24" viewBox="0 0 24 24" xmlns="http://www.w3.org/2000/svg" class="wd-icon wd-icon-document-dashed" role="presentation">
<g>
<path d="M5 19C5.51768 19 5.94379 19.3933 5.99512 19.8975L6.00488 20.1025C6.05278 20.573 6.42703 20.9472 6.89746 20.9951L7.10254 21.0049C7.60667 21.0562 8 21.4823 8 22C8 22.5523 7.55228 23 7 23C5.34315 23 4 21.6569 4 20C4 19.4477 4.44772 19 5 19Z" fill="oklch(0.3523 0 0 / 1)" class="wd-icon-fill"></path>
<path d="M13 21C13.5523 21 14 21.4477 14 22C14 22.5523 13.5523 23 13 23H11C10.4477 23 10 22.5523 10 22C10 21.4477 10.4477 21 11 21H13Z" fill="oklch(0.3523 0 0 / 1)" class="wd-icon-fill"></path>
<path d="M19 19C19.5523 19 20 19.4477 20 20C20 21.6569 18.6569 23 17 23C16.4477 23 16 22.5523 16 22C16 21.4823 16.3933 21.0562 16.8975 21.0049L17.1025 20.9951C17.573 20.9472 17.9472 20.573 17.9951 20.1025L18.0049 19.8975C18.0562 19.3933 18.4823 19 19 19Z" fill="oklch(0.3523 0 0 / 1)" class="wd-icon-fill"></path>
<path d="M5 13C5.55228 13 6 13.4477 6 14V16C6 16.5523 5.55228 17 5 17C4.44772 17 4 16.5523 4 16V14C4 13.4477 4.44772 13 5 13Z" fill="oklch(0.3523 0 0 / 1)" class="wd-icon-fill"></path>
<path d="M19 13C19.5523 13 20 13.4477 20 14V16C20 16.5523 19.5523 17 19 17C18.4477 17 18 16.5523 18 16V14C18 13.4477 18.4477 13 19 13Z" fill="oklch(0.3523 0 0 / 1)" class="wd-icon-fill"></path>
<path d="M5 7C5.55228 7 6 7.44772 6 8V10C6 10.5523 5.55228 11 5 11C4.44772 11 4 10.5523 4 10V8C4 7.44772 4.44772 7 5 7Z" fill="oklch(0.3523 0 0 / 1)" class="wd-icon-fill"></path>
<path d="M19 7C19.5523 7 20 7.44772 20 8V10C20 10.5523 19.5523 11 19 11C18.4477 11 18 10.5523 18 10V8C18 7.44772 18.4477 7 19 7Z" fill="oklch(0.3523 0 0 / 1)" class="wd-icon-fill"></path>
<path d="M12.25 9.25C12.6642 9.25 13 9.58579 13 10C13 10.4142 12.6642 10.75 12.25 10.75H8.75C8.33579 10.75 8 10.4142 8 10C8 9.58579 8.33579 9.25 8.75 9.25H12.25Z" fill="oklch(0.3523 0 0 / 1)" class="wd-icon-fill"></path>
<path d="M15.25 6.25C15.6642 6.25 16 6.58579 16 7C16 7.41421 15.6642 7.75 15.25 7.75H8.75C8.33579 7.75 8 7.41421 8 7C8 6.58579 8.33579 6.25 8.75 6.25H15.25Z" fill="oklch(0.3523 0 0 / 1)" class="wd-icon-fill"></path>
<path d="M7 1C7.55228 1 8 1.44772 8 2C8 2.51768 7.60667 2.94379 7.10254 2.99512L6.89746 3.00488C6.42703 3.05278 6.05278 3.42703 6.00488 3.89746L5.99512 4.10254C5.94379 4.60667 5.51768 5 5 5C4.44772 5 4 4.55228 4 4C4 2.34315 5.34315 1 7 1Z" fill="oklch(0.3523 0 0 / 1)" class="wd-icon-fill"></path>
<path d="M17 1C18.6569 1 20 2.34315 20 4C20 4.55228 19.5523 5 19 5C18.4823 5 18.0562 4.60667 18.0049 4.10254L17.9951 3.89746C17.9472 3.42703 17.573 3.05278 17.1025 3.00488L16.8975 2.99512C16.3933 2.94379 16 2.51768 16 2C16 1.44772 16.4477 1 17 1Z" fill="oklch(0.3523 0 0 / 1)" class="wd-icon-fill"></path>
<path d="M13 1C13.5523 1 14 1.44772 14 2C14 2.55228 13.5523 3 13 3H11C10.4477 3 10 2.55228 10 2C10 1.44772 10.4477 1 11 1H13Z" fill="oklch(0.3523 0 0 / 1)" class="wd-icon-fill"></path>
</g>
</svg>