<svg width="24" height="24" viewBox="0 0 24 24" xmlns="http://www.w3.org/2000/svg" class="wd-icon wd-icon-document-user-text" role="presentation">
<path d="M18.5 2H5.5C5.22386 2 5 2.22386 5 2.5V21.5C5 21.7761 5.22386 22 5.5 22H18.5C18.7761 22 19 21.7761 19 21.5V2.5C19 2.22386 18.7761 2 18.5 2Z" fill="transparent" class="wd-icon-background"></path>
<path d="M18.5 1C19.3284 1 20 1.67157 20 2.5V21.5C20 22.3284 19.3284 23 18.5 23H5.5C4.67157 23 4 22.3284 4 21.5V2.5C4 1.67157 4.67157 1 5.5 1H18.5ZM6 21H18V3H6V21Z" fill="oklch(0.3523 0 0 / 1)" class="wd-icon-fill"></path>
<g>
<path d="M12.5 17C12.7761 17 13 17.2239 13 17.5V18.5C13 18.7761 12.7761 19 12.5 19H8.5C8.22386 19 8 18.7761 8 18.5V17.5C8 17.2239 8.22386 17 8.5 17H12.5Z" fill="oklch(0.3523 0 0 / 1)" class="wd-icon-accent"></path>
<path d="M15.5 14C15.7761 14 16 14.2239 16 14.5V15.5C16 15.7761 15.7761 16 15.5 16H8.5C8.22386 16 8 15.7761 8 15.5V14.5C8 14.2239 8.22386 14 8.5 14H15.5Z" fill="oklch(0.3523 0 0 / 1)" class="wd-icon-accent"></path>
<path d="M12 10C13.4564 10 14.7919 10.5189 15.8311 11.3818C15.9403 11.4726 15.9999 11.6089 16 11.751V12.5C16 12.7761 15.7761 13 15.5 13H8.5L8.39941 12.9902C8.17145 12.9437 8 12.7417 8 12.5V11.751C8.00009 11.6089 8.05973 11.4726 8.16895 11.3818C9.20815 10.5189 10.5436 10 12 10Z" fill="oklch(0.3523 0 0 / 1)" class="wd-icon-accent"></path>
<path d="M12 5C13.1046 5 14 5.89543 14 7C14 8.10457 13.1046 9 12 9C10.8954 9 10 8.10457 10 7C10 5.89543 10.8954 5 12 5Z" fill="oklch(0.3523 0 0 / 1)" class="wd-icon-accent"></path>
</g>
</svg>