<svg width="24" height="24" viewBox="0 0 24 24" xmlns="http://www.w3.org/2000/svg" class="wd-icon wd-icon-e-signature" role="presentation">
<g>
<path d="M19.999 19.0001C20.5513 19.0001 20.999 19.4479 20.999 20.0001C20.999 20.5524 20.5513 21.0001 19.999 21.0001H3.99902C3.44674 21.0001 2.99902 20.5524 2.99902 20.0001C2.99908 19.4479 3.44677 19.0001 3.99902 19.0001H19.999Z" fill="oklch(0.3523 0 0 / 1)" class="wd-icon-fill"></path>
<path d="M11.793 2.91417C13.0119 1.69528 14.9881 1.69527 16.207 2.91417C17.4259 4.1331 17.4259 6.10935 16.207 7.32823L10.4268 13.1085C8.72722 14.808 6.49343 15.8699 4.10254 16.1153C3.80339 16.146 3.50567 16.0408 3.29297 15.8282C3.08028 15.6155 2.97423 15.3179 3.00488 15.0187C3.25017 12.6279 4.31241 10.3949 6.01172 8.69542L11.793 2.91417ZM14.793 4.32823C14.3551 3.89037 13.6449 3.89038 13.207 4.32823L7.42578 10.1095C6.37727 11.1581 5.629 12.4581 5.24512 13.8741C6.66181 13.4903 7.96267 12.7434 9.01172 11.6944L14.793 5.91417C15.2308 5.47634 15.2308 4.76611 14.793 4.32823Z" fill="oklch(0.3523 0 0 / 1)" class="wd-icon-fill"></path>
</g>
</svg>