<svg width="24" height="24" viewBox="0 0 24 24" xmlns="http://www.w3.org/2000/svg" class="wd-icon wd-icon-drill-down" role="presentation">
<g>
<path d="M10 13C11.1046 13 12 13.8954 12 15V19C12 20.1046 11.1046 21 10 21H6C4.89543 21 4 20.1046 4 19V15C4 13.8954 4.89543 13 6 13H10ZM6 19H10V15H6V19Z" fill="oklch(0.3523 0 0 / 1)" class="wd-icon-fill"></path>
<path d="M18 7.00098C18.5521 7.00116 19 7.4488 19 8.00098V13.5859L20.293 12.293C20.6835 11.9029 21.3167 11.9027 21.707 12.293C22.0973 12.6833 22.0971 13.3165 21.707 13.707L18.707 16.707C18.3165 17.0971 17.6833 17.0973 17.293 16.707L14.293 13.707C13.9026 13.3167 13.9029 12.6835 14.293 12.293C14.6835 11.9029 15.3166 11.9026 15.707 12.293L17 13.5859V8.00098C17 7.44882 17.4479 7.00118 18 7.00098Z" fill="oklch(0.3523 0 0 / 1)" class="wd-icon-fill"></path>
<path d="M10 3C11.1046 3 12 3.89543 12 5V9C12 10.1046 11.1046 11 10 11H6C4.89543 11 4 10.1046 4 9V5C4 3.89543 4.89543 3 6 3H10Z" fill="oklch(0.3523 0 0 / 1)" class="wd-icon-fill"></path>
</g>
</svg>