<svg width="24" height="24" viewBox="0 0 24 24" xmlns="http://www.w3.org/2000/svg" class="wd-icon wd-icon-key-option" role="presentation">
<g>
<path d="M8.34082 4C9.14069 4.00009 9.86352 4.47677 10.1787 5.21191L15.6592 18H20C20.5523 18 21 18.4477 21 19C21 19.5523 20.5523 20 20 20H15.6592C14.8593 19.9999 14.1365 19.5232 13.8213 18.7881L8.34082 6H4C3.44772 6 3 5.55228 3 5C3 4.44772 3.44772 4 4 4H8.34082Z" fill="oklch(0.3523 0 0 / 1)" class="wd-icon-fill"></path>
<path d="M19 4C19.5523 4 20 4.44772 20 5C20 5.55228 19.5523 6 19 6H14C13.4477 6 13 5.55228 13 5C13 4.44772 13.4477 4 14 4H19Z" fill="oklch(0.3523 0 0 / 1)" class="wd-icon-fill"></path>
</g>
</svg>