<svg width="24" height="24" viewBox="0 0 24 24" xmlns="http://www.w3.org/2000/svg" class="wd-icon wd-icon-bold" role="presentation">
<path d="M13.6846 3.00195C14.6986 3.00195 15.6117 3.17928 16.4229 3.53418C17.2508 3.88908 17.8934 4.41267 18.3496 5.10547C18.8227 5.79834 19.0586 6.62661 19.0586 7.58984C19.0586 8.55312 18.7888 9.38982 18.248 10.0996C17.7241 10.7925 17.0224 11.282 16.1436 11.5693C17.2083 11.8566 18.0619 12.3811 18.7041 13.1416C19.3631 13.8851 19.6923 14.8145 19.6924 15.9297C19.6924 16.9775 19.4641 17.8821 19.0078 18.6426C18.5516 19.4029 17.9014 19.9861 17.0566 20.3916C16.2285 20.7972 15.2645 21 14.166 21H7C6.44772 21 6 20.5523 6 20V4.00195C6 3.44967 6.44772 3.00195 7 3.00195H13.6846ZM9.14746 18.4141H13.1016C14.1494 18.4141 14.9436 18.1773 15.4844 17.7041C16.0251 17.2141 16.2958 16.547 16.2959 15.7021C16.2959 14.8402 16.0167 14.1639 15.459 13.6738C14.9013 13.1669 14.107 12.9131 13.0762 12.9131H9.14746V18.4141ZM9.14746 10.3281H12.9492C13.8617 10.3281 14.5636 10.1082 15.0537 9.66895C15.5437 9.22964 15.789 8.6379 15.7891 7.89453C15.7891 7.15093 15.5438 6.58401 15.0537 6.19531C14.5805 5.78978 13.8871 5.58691 12.9746 5.58691H9.14746V10.3281Z" fill="oklch(0.3523 0 0 / 1)" class="wd-icon-fill"></path>
</svg>