<svg width="24" height="24" viewBox="0 0 24 24" xmlns="http://www.w3.org/2000/svg" class="wd-icon wd-icon-document-lightbulb" role="presentation">
<g>
<path d="M11.0117 1.00007C11.6979 1.00007 12.2043 0.993491 12.6914 1.11042C13.0995 1.2084 13.4899 1.37066 13.8477 1.58991C14.2746 1.85163 14.6283 2.21429 15.1133 2.69929L19 6.586C19.6402 7.22625 20 8.09465 20 9.00007C20 9.55235 19.5523 10.0001 19 10.0001H14C12.8955 10 12 9.10462 12 8.00007V3.02155C11.8142 3.00453 11.5389 3.00007 11.0117 3.00007H9.79983C8.94347 3.00007 8.36119 3.00042 7.91116 3.03718C7.47278 3.073 7.24822 3.13816 7.09182 3.21784C6.7156 3.40956 6.40954 3.71565 6.2178 4.09186C6.13812 4.24825 6.07296 4.47287 6.03713 4.9112C6.00038 5.36121 6.00003 5.94356 6.00003 6.79987V18.5001C6.00003 18.9957 6.00269 19.1473 6.0176 19.2608C6.13575 20.1583 6.84185 20.8643 7.73928 20.9825C7.85284 20.9974 8.00422 21.0001 8.50002 21.0001H11.5C12.0523 21.0001 12.5 21.4478 12.5 22.0001C12.5 22.5524 12.0523 23.0001 11.5 23.0001H8.50002C8.06742 23.0001 7.75386 23.0023 7.47756 22.9659C5.68294 22.7294 4.27063 21.3172 4.0342 19.5225C3.99785 19.2462 4.00002 18.9326 4.00002 18.5001V6.79987C4.00002 5.97644 3.999 5.29846 4.04397 4.74811C4.0899 4.18611 4.18832 3.66893 4.43557 3.18366C4.81904 2.43119 5.43114 1.81907 6.18362 1.43561C6.66891 1.18835 7.18604 1.08994 7.74807 1.04401C8.29844 0.999046 8.97636 1.00007 9.79983 1.00007H11.0117ZM13.5 8.00007C13.5 8.27619 13.7239 8.50004 14 8.50007H17.9073C17.837 8.31439 17.729 8.14315 17.586 8.00007L13.6992 4.11335C13.6265 4.04065 13.5602 3.9749 13.5 3.91511V8.00007Z" fill="oklch(0.3523 0 0 / 1)" class="wd-icon-fill"></path>
<path d="M17.5 12.2501C19.8472 12.2501 21.75 14.1529 21.75 16.5001C21.75 17.957 21.0156 19.2408 19.9014 20.0049C19.6497 20.1775 19.5326 20.3638 19.5078 20.5128L19.4043 21.1368C19.2491 22.0672 18.4439 22.7501 17.5 22.7501C16.5563 22.7501 15.7511 22.0679 15.5957 21.1378L15.4922 20.5128C15.4673 20.3641 15.3498 20.1783 15.0987 20.0059C13.9844 19.2417 13.25 17.957 13.25 16.5001C13.2501 14.1529 15.1528 12.2501 17.5 12.2501ZM17.5 13.7501C15.9813 13.7501 14.7501 14.9813 14.75 16.5001C14.75 17.4411 15.2222 18.2718 15.9463 18.7686C16.2075 18.9477 16.4694 19.1927 16.668 19.5001H18.3311C18.5294 19.1926 18.7914 18.9479 19.0528 18.7686C19.7772 18.2719 20.25 17.4411 20.25 16.5001C20.25 14.9813 19.0188 13.7501 17.5 13.7501Z" fill="oklch(0.3523 0 0 / 1)" class="wd-icon-fill"></path>
</g>
</svg>