<svg width="24" height="24" viewBox="0 0 24 24" xmlns="http://www.w3.org/2000/svg" class="wd-icon wd-icon-document-stack-user" role="presentation">
<g>
<path d="M11.5 14C12.0523 14 12.5 14.4477 12.5 15C12.5 15.5523 12.0523 16 11.5 16C10.9477 16 10.5 15.5523 10.5 15C10.5 14.4477 10.9477 14 11.5 14Z" fill="oklch(0.3523 0 0 / 1)" class="wd-icon-fill"></path>
<path d="M16.75 14.25C17.1642 14.25 17.5 14.5858 17.5 15C17.5 15.4142 17.1642 15.75 16.75 15.75H14.25C13.8358 15.75 13.5 15.4142 13.5 15C13.5 14.5858 13.8358 14.25 14.25 14.25H16.75Z" fill="oklch(0.3523 0 0 / 1)" class="wd-icon-fill"></path>
<path d="M11.5 11C12.0523 11 12.5 11.4477 12.5 12C12.5 12.5523 12.0523 13 11.5 13C10.9477 13 10.5 12.5523 10.5 12C10.5 11.4477 10.9477 11 11.5 11Z" fill="oklch(0.3523 0 0 / 1)" class="wd-icon-fill"></path>
<path d="M16.75 11.25C17.1642 11.25 17.5 11.5858 17.5 12C17.5 12.4142 17.1642 12.75 16.75 12.75H14.25C13.8358 12.75 13.5 12.4142 13.5 12C13.5 11.5858 13.8358 11.25 14.25 11.25H16.75Z" fill="oklch(0.3523 0 0 / 1)" class="wd-icon-fill"></path>
<path d="M14 8C15.0577 8 16.0306 8.3648 16.7988 8.97559C16.9301 9.08009 17 9.24235 17 9.41016C16.9998 9.73582 16.7358 9.99976 16.4102 10H11.5898C11.2642 9.99976 11.0002 9.73582 11 9.41016C11 9.24235 11.0699 9.08009 11.2012 8.97559C11.9694 8.3648 12.9423 8 14 8Z" fill="oklch(0.3523 0 0 / 1)" class="wd-icon-fill"></path>
<path d="M14 4C14.8284 4 15.5 4.67158 15.5 5.5C15.5 6.32843 14.8284 7 14 7C13.1716 7 12.5 6.32843 12.5 5.5C12.5 4.67158 13.1716 4 14 4Z" fill="oklch(0.3523 0 0 / 1)" class="wd-icon-fill"></path>
<path d="M16.7998 1C17.3434 1 17.8116 0.998931 18.1953 1.03028C18.5906 1.06259 18.984 1.1344 19.3623 1.32715C19.9265 1.61473 20.3853 2.07348 20.6729 2.6377C20.8656 3.016 20.9374 3.40944 20.9697 3.80469C21.0011 4.18836 21 4.65665 21 5.2002V15.7998C21 16.3434 21.0011 16.8116 20.9697 17.1953C20.9374 17.5906 20.8656 17.984 20.6729 18.3623C20.3853 18.9265 19.9265 19.3853 19.3623 19.6729C18.984 19.8656 18.5906 19.9374 18.1953 19.9697C17.8596 19.9972 17.4591 19.9988 17 19.999C17 21.6559 15.6569 23 14 23H6C4.34315 23 3 21.6569 3 20V7C3 5.34315 4.34315 4 6 4H7.01855C7.0221 3.93268 7.02514 3.86752 7.03027 3.80469C7.06258 3.40944 7.1344 3.016 7.32715 2.6377C7.61472 2.07348 8.07347 1.61473 8.6377 1.32715C9.01599 1.1344 9.40943 1.06259 9.80469 1.03028C10.1884 0.998931 10.6566 1 11.2002 1H16.7998ZM6 6C5.44772 6 5 6.44772 5 7V20C5 20.5523 5.44772 21 6 21H14C14.5523 21 15 20.5523 15 20H11.2002C10.6566 20 10.1884 20.0011 9.80469 19.9697C9.40943 19.9374 9.01599 19.8656 8.6377 19.6729C8.07347 19.3853 7.61472 18.9265 7.32715 18.3623C7.1344 17.984 7.06258 17.5906 7.03027 17.1953C6.99893 16.8116 7 16.3434 7 15.7998V6H6ZM11.2002 3C10.6236 3 10.2511 3.00127 9.96777 3.02442C9.69619 3.04662 9.59534 3.08419 9.5459 3.10938C9.35793 3.20522 9.20522 3.35793 9.10938 3.5459C9.08419 3.59534 9.04661 3.69619 9.02441 3.96778C9.00126 4.25111 9 4.62365 9 5.2002V15.7998C9 16.3764 9.00126 16.7489 9.02441 17.0322C9.04661 17.3038 9.08419 17.4047 9.10938 17.4541C9.20521 17.6421 9.35793 17.7948 9.5459 17.8906C9.59534 17.9158 9.69619 17.9534 9.96777 17.9756C10.2511 17.9987 10.6236 18 11.2002 18H16.7998C17.3764 18 17.7489 17.9987 18.0322 17.9756C18.3038 17.9534 18.4047 17.9158 18.4541 17.8906C18.6421 17.7948 18.7948 17.6421 18.8906 17.4541C18.9158 17.4047 18.9534 17.3038 18.9756 17.0322C18.9987 16.7489 19 16.3764 19 15.7998V5.2002C19 4.62365 18.9987 4.25111 18.9756 3.96778C18.9534 3.69619 18.9158 3.59534 18.8906 3.5459C18.7948 3.35793 18.6421 3.20522 18.4541 3.10938C18.4047 3.08419 18.3038 3.04662 18.0322 3.02442C17.7489 3.00127 17.3764 3 16.7998 3H11.2002Z" fill="oklch(0.3523 0 0 / 1)" class="wd-icon-fill"></path>
</g>
</svg>