<svg width="24" height="24" viewBox="0 0 24 24" xmlns="http://www.w3.org/2000/svg" class="wd-icon wd-icon-note" role="presentation">
<path d="M19.5 3C20.3284 3 21 3.67157 21 4.5V13.2578C20.9999 14.3185 20.5782 15.3359 19.8281 16.0859L16.0859 19.8281C15.3359 20.5782 14.3185 20.9999 13.2578 21H4.5C3.67157 21 3 20.3284 3 19.5V4.5C3 3.67157 3.67157 3 4.5 3H19.5ZM5 19H12V13.5C12 12.6716 12.6716 12 13.5 12H19V5H5V19ZM14 14V18.8555C14.2491 18.7558 14.4785 18.6074 14.6719 18.4141L18.4141 14.6719C18.6075 14.4785 18.7568 14.2492 18.8564 14H14Z" fill="oklch(0.3523 0 0 / 1)" class="wd-icon-fill"></path>
</svg>