<svg width="24" height="24" viewBox="0 0 24 24" xmlns="http://www.w3.org/2000/svg" class="wd-icon wd-icon-user-group" role="presentation">
<g>
<path d="M8.00049 17.5278C9.062 16.5777 10.4638 16 12.0005 16C13.5372 16 14.939 16.5777 16.0005 17.5278V20H8.00049V17.5278Z" fill="transparent" class="wd-icon-background"></path>
<path d="M16.0005 17.5278C14.939 16.5777 13.5372 16 12.0005 16C10.4638 16 9.062 16.5777 8.00049 17.5278V20H16.0005V17.5278Z" fill="transparent" class="wd-icon-background"></path>
<path d="M14.0005 13C14.0005 14.1046 13.1051 15 12.0005 15C10.8959 15 10.0005 14.1046 10.0005 13C10.0005 11.8954 10.8959 11 12.0005 11C13.1051 11 14.0005 11.8954 14.0005 13Z" fill="transparent" class="wd-icon-background"></path>
</g>
<path d="M12 10C13.6569 10 15 11.3431 15 13C15 13.911 14.5922 14.7252 13.9512 15.2754C14.9719 15.571 15.8967 16.0929 16.667 16.7822C16.8788 16.9718 16.9999 17.2431 17 17.5273V20C17 20.5523 16.5523 21 16 21H8C7.44772 21 7 20.5523 7 20V17.5273C7.00013 17.2431 7.12117 16.9718 7.33301 16.7822C8.10304 16.0931 9.02751 15.5711 10.0479 15.2754C9.40715 14.7252 9 13.9108 9 13C9 11.3431 10.3431 10 12 10ZM12 17C10.8736 17 9.83594 17.3718 9 18V19H15V18C14.1641 17.3718 13.1264 17 12 17ZM12 12C11.4477 12 11 12.4477 11 13C11 13.5523 11.4477 14 12 14C12.5523 14 13 13.5523 13 13C13 12.4477 12.5523 12 12 12Z" fill="oklch(0.3523 0 0 / 1)" class="wd-icon-fill"></path>
<g>
<path d="M6 4C7.65685 4 9 5.34315 9 7C9 7.91102 8.5922 8.72519 7.95117 9.27539C7.95246 9.27576 7.95379 9.27599 7.95508 9.27637C8.12446 9.32552 8.29119 9.38102 8.45508 9.44238C8.71357 9.53919 8.82392 9.83795 8.70898 10.0889L8.29199 10.998C8.1769 11.249 7.88038 11.3567 7.61914 11.2676C7.52799 11.2364 7.43528 11.2076 7.3418 11.1816C6.91492 11.063 6.46511 11 6 11C4.87355 11 3.83594 11.3718 3 12V13H7.5C7.77614 13 8 13.2239 8 13.5V14.5C8 14.7761 7.77614 15 7.5 15H2C1.44772 15 1 14.5523 1 14V11.5273C1.00013 11.2431 1.12117 10.9718 1.33301 10.7822C2.10304 10.0931 3.02751 9.57108 4.04785 9.27539C3.40715 8.7252 3 7.91075 3 7C3 5.34315 4.34315 4 6 4ZM6 6C5.44772 6 5 6.44772 5 7C5 7.55228 5.44772 8 6 8C6.55228 8 7 7.55228 7 7C7 6.44772 6.55228 6 6 6Z" fill="oklch(0.3523 0 0 / 1)" class="wd-icon-accent"></path>
<path d="M18 4C19.6569 4 21 5.34315 21 7C21 7.91075 20.5928 8.7252 19.9521 9.27539C20.9725 9.57108 21.897 10.0931 22.667 10.7822C22.8788 10.9718 22.9999 11.2431 23 11.5273V14C23 14.5523 22.5523 15 22 15H16.5C16.2239 15 16 14.7761 16 14.5V13.5C16 13.2239 16.2239 13 16.5 13H21V12C20.1641 11.3718 19.1264 11 18 11C17.5349 11 17.0851 11.064 16.6582 11.1826C16.5647 11.2086 16.472 11.2364 16.3809 11.2676C16.1196 11.3567 15.8231 11.249 15.708 10.998L15.291 10.0889C15.1761 9.83795 15.2864 9.53919 15.5449 9.44238C15.7088 9.38102 15.8755 9.32552 16.0449 9.27637C16.0462 9.27599 16.0475 9.27576 16.0488 9.27539C15.4078 8.72519 15 7.91102 15 7C15 5.34315 16.3431 4 18 4ZM18 6C17.4477 6 17 6.44772 17 7C17 7.55228 17.4477 8 18 8C18.5523 8 19 7.55228 19 7C19 6.44772 18.5523 6 18 6Z" fill="oklch(0.3523 0 0 / 1)" class="wd-icon-accent"></path>
</g>
</svg>