<svg width="24" height="24" viewBox="0 0 24 24" xmlns="http://www.w3.org/2000/svg" class="wd-icon wd-icon-calendar-day-14" role="presentation">
<g>
<path d="M9.08692 10.5049C9.52536 10.5049 9.88076 10.8604 9.88086 11.2988V16.668C9.88081 17.0694 9.55566 17.3944 9.1543 17.3945C8.75303 17.3943 8.42681 17.0693 8.42676 16.668V12.3936L8.25 12.5254C7.83564 12.8319 7.24805 12.536 7.24805 12.0205C7.24823 11.8259 7.33896 11.6422 7.49317 11.5234L8.60254 10.6699C8.74118 10.5633 8.91202 10.505 9.08692 10.5049Z" fill="oklch(0.3523 0 0 / 1)" class="wd-icon-fill"></path>
<path d="M14.6953 10.5049C15.33 10.505 15.8456 11.02 15.8457 11.6553V14.6631H16.0772C16.4263 14.6631 16.7096 14.9459 16.71 15.2949C16.71 15.6442 16.4265 15.9277 16.0772 15.9277H15.8457V16.6816C15.8456 17.0755 15.5266 17.3944 15.1328 17.3945C14.7391 17.3943 14.4191 17.0754 14.4189 16.6816V15.9277H12.3076C11.8386 15.9273 11.4581 15.5472 11.458 15.0781C11.458 14.9254 11.4991 14.7749 11.5772 14.6436L13.7061 11.0664C13.9134 10.7181 14.2903 10.505 14.6953 10.5049ZM13.0654 14.6631H14.4189V12.3848L13.0654 14.6631Z" fill="oklch(0.3523 0 0 / 1)" class="wd-icon-fill"></path>
<path d="M16.2012 2C17.0247 2 17.7026 1.99898 18.2529 2.04395C18.815 2.08988 19.3321 2.18828 19.8174 2.43555C20.5699 2.81902 21.182 3.43109 21.5654 4.1836C21.8127 4.6689 21.9111 5.18599 21.957 5.74805C22.002 6.29843 22.001 6.97632 22.001 7.79981V16.2002C22.001 17.0237 22.002 17.7016 21.957 18.252C21.9111 18.814 21.8127 19.3311 21.5654 19.8164C21.182 20.5689 20.5699 21.181 19.8174 21.5645C19.3321 21.8117 18.815 21.9101 18.2529 21.9561C17.7026 22.001 17.0247 22 16.2012 22H7.80078C6.9773 22 6.2994 22.001 5.74903 21.9561C5.18697 21.9101 4.66988 21.8117 4.18457 21.5645C3.43207 21.181 2.81999 20.5689 2.43653 19.8164C2.18925 19.3311 2.09085 18.814 2.04492 18.252C1.99996 17.7016 2.00098 17.0237 2.00098 16.2002V7.79981C2.00098 6.97632 1.99996 6.29843 2.04492 5.74805C2.09085 5.18599 2.18925 4.6689 2.43653 4.1836C2.81999 3.43109 3.43207 2.81902 4.18457 2.43555C4.66988 2.18827 5.18697 2.08988 5.74903 2.04395C6.2994 1.99898 6.9773 2 7.80078 2H16.2012ZM4.00098 16.2002C4.00098 17.0566 4.00133 17.6388 4.03809 18.0889C4.07391 18.5273 4.13906 18.7518 4.21875 18.9082C4.41049 19.2845 4.71652 19.5905 5.09278 19.7822C5.24917 19.8619 5.4737 19.9271 5.91211 19.9629C6.36215 19.9997 6.9444 20 7.80078 20H16.2012C17.0576 20 17.6398 19.9997 18.0898 19.9629C18.5283 19.9271 18.7528 19.8619 18.9092 19.7822C19.2854 19.5905 19.5915 19.2845 19.7832 18.9082C19.8629 18.7518 19.928 18.5273 19.9639 18.0889C20.0006 17.6388 20.001 17.0566 20.001 16.2002V8H4.00098V16.2002Z" fill="oklch(0.3523 0 0 / 1)" class="wd-icon-fill"></path>
</g>
</svg>