<svg width="24" height="24" viewBox="0 0 24 24" xmlns="http://www.w3.org/2000/svg" class="wd-icon wd-icon-document-user-exclamation" role="presentation">
<g>
<path d="M18 12C21.3137 12 24 14.6863 24 18C24 21.3137 21.3137 24 18 24C14.6863 24 12 21.3137 12 18C12 14.6863 14.6863 12 18 12ZM18 19.875C17.3787 19.875 16.875 20.3787 16.875 21C16.875 21.6213 17.3787 22.125 18 22.125C18.6213 22.125 19.125 21.6213 19.125 21C19.125 20.3787 18.6213 19.875 18 19.875ZM18 14C17.456 14 17.0227 14.4557 17.0498 14.999L17.2129 18.251C17.2339 18.6706 17.5799 19 18 19C18.4201 19 18.7661 18.6706 18.7871 18.251L18.9502 14.999C18.9774 14.4557 18.544 14 18 14Z" fill="oklch(0.3523 0 0 / 1)" class="wd-icon-fill"></path>
<path d="M14.2002 1C15.0237 1 15.7016 0.998983 16.252 1.04395C16.814 1.08987 17.3312 1.18834 17.8164 1.43555C18.5688 1.81897 19.181 2.43128 19.5645 3.1836C19.8116 3.6687 19.9101 4.18627 19.9561 4.74805C20.001 5.29827 20 5.9767 20 6.79981V9.5C19.9998 10.0521 19.5522 10.5 19 10.5C18.4479 10.5 18.0002 10.0521 18 9.5V6.79981C18 5.94389 17.9996 5.36105 17.9629 4.91113C17.9271 4.47327 17.8618 4.24814 17.7823 4.0918C17.5905 3.71574 17.2843 3.40946 16.9082 3.21778C16.7518 3.13812 16.5272 3.07292 16.0889 3.03711C15.6389 3.00035 15.0566 3 14.2002 3H9.79983C8.94349 3 8.36118 3.00035 7.91116 3.03711C7.47295 3.07292 7.2482 3.13813 7.09182 3.21778C6.71577 3.40946 6.40951 3.71576 6.2178 4.0918C6.13821 4.24814 6.07293 4.47331 6.03713 4.91113C6.00041 5.36104 6.00002 5.9439 6.00002 6.79981V18.5C6.00003 18.9949 6.00273 19.1473 6.0176 19.2607C6.13591 20.158 6.84197 20.8643 7.73928 20.9824C7.85284 20.9973 8.00422 21 8.50002 21H10C10.5523 21 11 21.4477 11 22C11 22.5523 10.5523 23 10 23H8.50002L7.93069 22.9961C7.7635 22.9921 7.61585 22.984 7.47756 22.9658C5.68306 22.7294 4.27078 21.3169 4.0342 19.5225C3.99789 19.2463 4.00002 18.9322 4.00002 18.5V6.79981C4.00002 5.9767 3.99904 5.29826 4.04397 4.74805C4.0899 4.18628 4.18848 3.66868 4.43557 3.1836C4.81902 2.43131 5.43131 1.81897 6.18362 1.43555C6.66885 1.18835 7.18611 1.08987 7.74807 1.04395C8.29843 0.998983 8.97638 1 9.79983 1H14.2002Z" fill="oklch(0.3523 0 0 / 1)" class="wd-icon-fill"></path>
<path d="M9.75002 17.25C10.1642 17.25 10.5 17.5858 10.5 18C10.5 18.4142 10.1642 18.75 9.75002 18.75H8.25002C7.83582 18.75 7.50002 18.4142 7.50002 18C7.50002 17.5858 7.83582 17.25 8.25002 17.25H9.75002Z" fill="oklch(0.3523 0 0 / 1)" class="wd-icon-fill"></path>
<path d="M10.25 14.25C10.6642 14.25 11 14.5858 11 15C11 15.4142 10.6642 15.75 10.25 15.75H8.25002C7.83582 15.75 7.50002 15.4142 7.50002 15C7.50002 14.5858 7.83582 14.25 8.25002 14.25H10.25Z" fill="oklch(0.3523 0 0 / 1)" class="wd-icon-fill"></path>
<path d="M11.9981 10C12.6903 10 13.3415 10.1007 13.9092 10.3145C14.2718 10.4513 14.2422 10.9275 13.9092 11.126C13.1552 11.5753 12.4811 12.1446 11.9141 12.8086C11.8143 12.9253 11.6691 12.9949 11.5156 12.9912C10.4485 12.9649 9.60575 12.8562 9.0137 12.7461C8.49599 12.6494 8.17639 12.1185 8.43752 11.6611C9.10048 10.5013 10.4462 10.0002 11.9981 10Z" fill="oklch(0.3523 0 0 / 1)" class="wd-icon-fill"></path>
<path d="M11.9981 5C13.1026 5 13.9981 5.89543 13.9981 7C13.9981 8.10457 13.1026 9 11.9981 9C10.8939 8.99953 9.99807 8.10428 9.99807 7C9.99807 5.89572 10.8939 5.00047 11.9981 5Z" fill="oklch(0.3523 0 0 / 1)" class="wd-icon-fill"></path>
</g>
</svg>