<svg width="24" height="24" viewBox="0 0 24 24" xmlns="http://www.w3.org/2000/svg" class="wd-icon wd-icon-excel" role="presentation">
<g>
<path d="M15.2004 1C16.0237 1 16.7018 0.998997 17.2522 1.04395C17.8141 1.08988 18.3314 1.18832 18.8166 1.43555C19.569 1.819 20.1812 2.43116 20.5647 3.1836C20.8119 3.66886 20.9103 4.18605 20.9563 4.74805C21.0012 5.29842 21.0002 5.97633 21.0002 6.79981V17.2002C21.0002 18.0237 21.0012 18.7016 20.9563 19.252C20.9103 19.814 20.8119 20.3311 20.5647 20.8164C20.1812 21.5688 19.569 22.181 18.8166 22.5645C18.3314 22.8117 17.8141 22.9101 17.2522 22.9561C16.7019 23.001 16.0237 23 15.2004 23H10.801C9.97773 23 9.29953 23.001 8.74923 22.9561C8.18729 22.9101 7.66998 22.8116 7.18477 22.5645C6.43229 22.181 5.82023 21.5688 5.43673 20.8164C5.16283 20.2789 5.07044 19.699 5.03145 19.0605C4.99801 18.5095 5.41782 18.0356 5.96895 18.002C6.51992 17.9687 6.9939 18.3884 7.02755 18.9395C7.06041 19.4773 7.12982 19.7333 7.21895 19.9082C7.41071 20.2843 7.71678 20.5905 8.09298 20.7822C8.24931 20.8618 8.47365 20.9271 8.91133 20.9629C9.36138 20.9996 9.94459 21 10.801 21H15.2004C16.0568 21 16.6401 20.9997 17.09 20.9629C17.5278 20.9271 17.7521 20.8619 17.9084 20.7822C18.2846 20.5905 18.5907 20.2844 18.7824 19.9082C18.8621 19.7518 18.9273 19.5272 18.9631 19.0889C18.9999 18.6388 19.0002 18.0566 19.0002 17.2002V6.79981C19.0002 5.94342 18.9999 5.36117 18.9631 4.91113C18.9273 4.47283 18.8621 4.24819 18.7824 4.0918C18.5907 3.71565 18.2846 3.40949 17.9084 3.21778C17.752 3.13814 17.5272 3.07293 17.0891 3.03711C16.6391 3.00038 16.0565 3 15.2004 3H10.801C9.94459 3 9.36138 3.00036 8.91133 3.03711C8.47365 3.0729 8.24931 3.13823 8.09298 3.21778C7.71678 3.40945 7.41071 3.71566 7.21895 4.0918C7.12983 4.26672 7.06041 4.52268 7.02755 5.06055C6.9939 5.61158 6.51992 6.03132 5.96895 5.99805C5.41782 5.9644 4.99801 5.49055 5.03145 4.93946C5.07044 4.30097 5.16283 3.72115 5.43673 3.1836C5.82023 2.43117 6.43229 1.81896 7.18477 1.43555C7.66998 1.18842 8.18729 1.08986 8.74923 1.04395C9.29953 0.99903 9.97773 1 10.801 1H15.2004Z" fill="oklch(0.3523 0 0 / 1)" class="wd-icon-fill"></path>
<path d="M13.6506 6C14.2678 6 14.7761 5.99952 15.1887 6.03321C15.6101 6.06766 15.9986 6.14173 16.3625 6.32715C16.9266 6.61473 17.3855 7.07356 17.6731 7.6377C17.8585 8.00166 17.9326 8.39001 17.967 8.81153C18.0007 9.22418 18.0002 9.73232 18.0002 10.3496V13.6504C18.0002 14.2677 18.0007 14.7758 17.967 15.1885C17.9326 15.61 17.8585 15.9983 17.6731 16.3623C17.3855 16.9264 16.9266 17.3853 16.3625 17.6729C15.9986 17.8583 15.6101 17.9323 15.1887 17.9668C14.7761 18.0005 14.2678 18 13.6506 18H11.9982C11.5842 17.9989 11.2494 17.6621 11.2502 17.248C11.2512 16.8339 11.588 16.4992 12.0022 16.5H13.0002V14.5H12.0002C11.586 14.5 11.2502 14.1642 11.2502 13.75C11.2502 13.3358 11.586 13 12.0002 13H13.0002V11H12.0002C11.586 11 11.2502 10.6642 11.2502 10.25C11.2502 9.8358 11.586 9.50001 12.0002 9.5H13.0002V7.5H12.0022C11.588 7.50084 11.2512 7.16606 11.2502 6.75196C11.2494 6.33789 11.5842 6.00108 11.9982 6H13.6506ZM14.5002 16.4951C14.7196 16.4914 14.9047 16.4849 15.0666 16.4717C15.3948 16.4448 15.5636 16.3966 15.6809 16.3369C15.963 16.1931 16.1933 15.9628 16.3371 15.6807C16.3968 15.5634 16.4451 15.3947 16.4719 15.0664C16.4851 14.9044 16.4916 14.7195 16.4953 14.5H14.5002V16.4951ZM14.5002 13H16.5002V11H14.5002V13ZM14.5002 9.5H16.4953C16.4916 9.28052 16.4851 9.09562 16.4719 8.9336C16.4451 8.6053 16.3968 8.43661 16.3371 8.31934C16.1933 8.03718 15.963 7.80691 15.6809 7.66309C15.5636 7.60344 15.3948 7.55516 15.0666 7.52832C14.9047 7.5151 14.7196 7.50767 14.5002 7.50391V9.5Z" fill="oklch(0.3523 0 0 / 1)" class="wd-icon-fill"></path>
<path d="M7.54903 7.45313C7.85108 6.99102 8.47052 6.86123 8.93282 7.16309C9.39483 7.46512 9.5246 8.08461 9.22286 8.54688L7.11251 11.7773L9.51192 15.4531C9.81364 15.9154 9.68385 16.5349 9.22188 16.8369C8.75959 17.1388 8.14014 17.009 7.83809 16.5469L5.82735 13.4688L3.81075 16.5479C3.50806 17.0097 2.88886 17.1385 2.42696 16.8359C1.96504 16.5332 1.83614 15.9141 2.13887 15.4522L4.54708 11.7744L2.43868 8.54688C2.13659 8.08457 2.26642 7.46521 2.72872 7.16309C3.191 6.86117 3.81043 6.9909 4.11251 7.45313L5.83028 10.082L7.54903 7.45313Z" fill="oklch(0.3523 0 0 / 1)" class="wd-icon-fill"></path>
</g>
</svg>