<svg width="24" height="24" viewBox="0 0 24 24" xmlns="http://www.w3.org/2000/svg" class="wd-icon wd-icon-save-as" role="presentation">
<path d="M14.0117 3.00007C14.6979 3.00007 15.2043 2.99349 15.6914 3.11042C16.0995 3.2084 16.4899 3.37066 16.8477 3.58991C17.2746 3.85163 17.6283 4.21429 18.1133 4.69929L19.3008 5.88679C19.7858 6.37179 20.1485 6.72551 20.4102 7.15241C20.4958 7.29211 20.573 7.43732 20.6406 7.586C20.8693 8.08866 20.6472 8.68147 20.1446 8.91022C19.6419 9.13886 19.0491 8.91675 18.8203 8.41413C18.7865 8.33986 18.7479 8.26712 18.7051 8.19733C18.5958 8.01916 18.4388 7.85286 17.8867 7.30085L16.9727 6.38679C16.9717 6.39951 16.9717 6.41234 16.9707 6.42487C16.9397 6.80457 16.8719 7.161 16.7002 7.49811C16.4366 8.01556 16.0155 8.43661 15.4981 8.70026C15.1609 8.87198 14.8046 8.93974 14.4248 8.97077C14.0537 9.00109 13.5975 9.00007 13.0498 9.00007H10.9502C10.4026 9.00007 9.94634 9.00109 9.57522 8.97077C9.19551 8.93974 8.8391 8.87197 8.50198 8.70026C7.98458 8.43661 7.56347 8.01553 7.29983 7.49811C7.12816 7.16101 7.06035 6.80456 7.02932 6.42487C6.99901 6.05377 7.00002 5.59748 7.00002 5.04987V5.03132C6.96986 5.03339 6.94019 5.03481 6.91116 5.03718C6.47278 5.073 6.24822 5.13816 6.09182 5.21784C5.7156 5.40956 5.40954 5.71565 5.2178 6.09186C5.13812 6.24825 5.07296 6.47287 5.03713 6.9112C5.00038 7.36121 5.00003 7.94356 5.00003 8.79987V16.5001C5.00003 16.9957 5.00269 17.1473 5.0176 17.2608C5.13575 18.1583 5.84185 18.8643 6.73928 18.9825C6.79988 18.9905 6.8713 18.9947 7.00002 18.9971V14.9503C7.00002 14.4026 6.999 13.9464 7.02932 13.5753C7.06036 13.1956 7.12813 12.8391 7.29983 12.502C7.56348 11.9846 7.98455 11.5635 8.50198 11.2999C8.83911 11.1282 9.1955 11.0604 9.57522 11.0294C9.94634 10.999 10.4026 11.0001 10.9502 11.0001H13.0498C13.4195 11.0001 13.7438 11.0003 14.0225 11.0089C14.4365 11.0215 14.7626 11.3673 14.75 11.7813C14.7373 12.1951 14.3913 12.5203 13.9776 12.5079C13.7266 12.5002 13.4273 12.5001 13.0498 12.5001H10.9502C10.3778 12.5001 9.99317 12.5003 9.69729 12.5245C9.41031 12.5479 9.27318 12.5907 9.18264 12.6368C8.94754 12.7566 8.75657 12.9476 8.63674 13.1827C8.59061 13.2732 8.5479 13.4104 8.52444 13.6973C8.50027 13.9932 8.50002 14.3779 8.50002 14.9503V20.0001C8.50002 20.5524 8.05231 21.0001 7.50002 21.0001C7.06742 21.0001 6.75386 21.0023 6.47756 20.9659C4.68294 20.7294 3.27063 19.3172 3.0342 17.5225C2.99785 17.2463 3.00002 16.9326 3.00002 16.5001V8.79987C3.00002 7.97644 2.999 7.29846 3.04397 6.74811C3.0899 6.18611 3.18832 5.66893 3.43557 5.18366C3.81904 4.43119 4.43114 3.81907 5.18362 3.43561C5.66891 3.18835 6.18604 3.08994 6.74807 3.04401C7.29844 2.99905 7.97636 3.00007 8.79983 3.00007H14.0117ZM8.50002 5.00104V5.04987C8.50002 5.62221 8.50028 6.00694 8.52444 6.3028C8.54789 6.58967 8.59064 6.72691 8.63674 6.81745C8.75655 7.05253 8.94757 7.24352 9.18264 7.36335C9.27318 7.40948 9.41033 7.45219 9.69729 7.47565C9.99316 7.49983 10.3778 7.50007 10.9502 7.50007H13.0498C13.6222 7.50007 14.0069 7.49982 14.3028 7.47565C14.5898 7.45219 14.7269 7.40948 14.8174 7.36335C15.0525 7.24352 15.2435 7.05256 15.3633 6.81745C15.4094 6.72691 15.4522 6.58971 15.4756 6.3028C15.4984 6.02339 15.499 5.66471 15.499 5.14362C15.4098 5.10806 15.3182 5.07822 15.2246 5.05573C15.0212 5.00691 14.793 5.00007 14.0117 5.00007H8.79983C8.69596 5.00007 8.59608 5.00097 8.50002 5.00104Z" fill="oklch(0.3523 0 0 / 1)" class="wd-icon-fill"></path>
<path d="M18.0143 12.165C19.069 11.1103 20.7797 11.1105 21.8346 12.165C22.8893 13.2198 22.8894 14.9305 21.8346 15.9853L16.4508 21.3691C16.3129 21.507 16.1829 21.6408 16.0289 21.749C15.9031 21.8374 15.7664 21.9104 15.6237 21.9677C15.449 22.0378 15.2666 22.0738 15.0758 22.1142L12.1559 22.7343C11.9077 22.7868 11.6487 22.7096 11.4694 22.5302C11.2902 22.3509 11.2138 22.0927 11.2662 21.8447L11.8844 18.9238C11.9248 18.733 11.9618 18.5506 12.0319 18.3759C12.0892 18.2332 12.1632 18.0975 12.2516 17.9716C12.3597 17.8177 12.4926 17.6876 12.6305 17.5498L18.0143 12.165ZM20.7741 13.2255C20.305 12.7568 19.5438 12.7566 19.0748 13.2255L13.691 18.6103C13.6022 18.6992 13.5522 18.7492 13.5231 18.7802L15.2184 20.4765C15.2495 20.4475 15.3008 20.3981 15.3903 20.3086L20.7741 14.9248C21.2431 14.4558 21.243 13.6946 20.7741 13.2255Z" fill="oklch(0.3523 0 0 / 1)" class="wd-icon-accent"></path>
</svg>