<svg width="24" height="24" viewBox="0 0 24 24" xmlns="http://www.w3.org/2000/svg" class="wd-icon wd-icon-folder-open" role="presentation">
<path d="M7.36914 3.00879L7.38086 3.00977H7.39258C8.30896 3.05482 9.21211 3.25754 10.0615 3.60938C10.8773 3.94729 11.6291 4.41807 12.2891 5H20.5C21.3284 5 22 5.67157 22 6.5V9H22.3066C23.3303 9.00023 24.0532 10.0034 23.7295 10.9746L21.0625 18.9746C20.8582 19.587 20.2852 20 19.6396 20H3.5C2.67157 20 2 19.3284 2 18.5V4.5C2 3.67157 2.67157 3 3.5 3H7.02539L7.36914 3.00879ZM4.3877 18H19.2793L21.6123 11H6.7207L4.3877 18ZM4 12.8369L4.9375 10.0254L4.97949 9.91309C5.21305 9.36298 5.75506 9.00001 6.36035 9H20V7H11.4893L11.1973 6.71484C10.6491 6.17791 10.0042 5.75043 9.2959 5.45703C8.66164 5.19433 7.9878 5.04248 7.30371 5.00781L6.97461 5H4V12.8369Z" fill="oklch(0.3523 0 0 / 1)" class="wd-icon-fill"></path>
</svg>