<svg width="24" height="24" viewBox="0 0 24 24" xmlns="http://www.w3.org/2000/svg" class="wd-icon wd-icon-nearby" role="presentation">
<path d="M12 1C18.0751 1 23 5.92487 23 12C23 18.0751 18.0751 23 12 23C5.92487 23 1 18.0751 1 12C1 5.92487 5.92487 1 12 1ZM12 3C7.02944 3 3 7.02944 3 12C3 14.4853 4.00706 16.7356 5.63574 18.3643L8.46484 15.5352C7.56002 14.6303 7 13.3807 7 12C7 9.23858 9.23858 7 12 7C14.7614 7 17 9.23858 17 12C17 13.3807 16.44 14.6303 15.5352 15.5352L18.3643 18.3643C19.9929 16.7356 21 14.4853 21 12C21 7.02944 16.9706 3 12 3ZM12 9C10.3431 9 9 10.3431 9 12C9 12.8284 9.33601 13.5782 9.87891 14.1211L11.293 12.707C11.6835 12.3166 12.3165 12.3166 12.707 12.707L14.1211 14.1211C14.664 13.5782 15 12.8284 15 12C15 10.3431 13.6569 9 12 9Z" fill="oklch(0.3523 0 0 / 1)" class="wd-icon-fill"></path>
</svg>