<svg width="24" height="24" viewBox="0 0 24 24" xmlns="http://www.w3.org/2000/svg" class="wd-icon wd-icon-compass" role="presentation">
<g>
<path d="M15.4805 6.65625C16.6149 6.31477 17.6864 7.38607 17.3447 8.52051L17.3057 8.63477L15.5332 13.2373C15.1269 14.2927 14.2926 15.1269 13.2373 15.5332L8.63477 17.3057C7.42147 17.7726 6.22836 16.5795 6.69531 15.3662L8.4668 10.7637C8.8731 9.70825 9.70826 8.87312 10.7637 8.4668L15.3662 6.69531L15.4805 6.65625ZM10.7861 10.7852C10.5902 10.9809 10.4357 11.2183 10.334 11.4824L8.9668 15.0342L12.5186 13.667C12.7826 13.5653 13.0191 13.4098 13.2148 13.2139L10.7861 10.7852Z" fill="oklch(0.3523 0 0 / 1)" class="wd-icon-fill"></path>
<path d="M12 1C18.0751 1 23 5.92487 23 12C23 18.0751 18.0751 23 12 23C5.92487 23 1 18.0751 1 12C1 5.92487 5.92487 1 12 1ZM13 4.5C13 4.77614 12.7761 5.00098 12.5 5.00098H11.5C11.2239 5.00098 11 4.77614 11 4.5V3.05664C6.82625 3.51811 3.51401 6.83214 3.05566 11.0068H4.50586C4.782 11.0068 5.00586 11.2307 5.00586 11.5068V12.5068C5.0056 12.7828 4.78184 13.0068 4.50586 13.0068H3.05762C3.52211 17.1786 6.83652 20.4879 11.0107 20.9443V19.5C11.0109 19.2241 11.2348 19.0001 11.5107 19H12.5107C12.7869 19 13.0107 19.2238 13.0107 19.5V20.9414C17.1787 20.4755 20.4846 17.1652 20.9434 12.9951H19.5059C19.2297 12.9951 19.0059 12.7713 19.0059 12.4951V11.4951C19.0061 11.2192 19.2299 10.9951 19.5059 10.9951H20.9424C20.4791 6.82597 17.1698 3.51768 13 3.05664V4.5Z" fill="oklch(0.3523 0 0 / 1)" class="wd-icon-fill"></path>
</g>
</svg>