<svg width="24" height="24" viewBox="0 0 24 24" xmlns="http://www.w3.org/2000/svg" class="wd-icon wd-icon-align-middle" role="presentation">
<g>
<path d="M11.584 14.624C11.7819 14.3274 12.2181 14.3274 12.416 14.624L15.4824 19.2227C15.7033 19.5547 15.4651 19.9994 15.0664 20H13V22.5C13 22.776 12.7759 22.9998 12.5 23H11.5C11.224 22.9998 11 22.776 11 22.5V20H8.93457C8.53522 20 8.29704 19.5549 8.51855 19.2227L11.584 14.624Z" fill="oklch(0.3523 0 0 / 1)" class="wd-icon-fill"></path>
<path d="M19.5 11C19.7761 11 20 11.2239 20 11.5V12.5C20 12.7761 19.7761 13 19.5 13H4.5C4.22386 13 4 12.7761 4 12.5V11.5C4 11.2239 4.22386 11 4.5 11H19.5Z" fill="oklch(0.3523 0 0 / 1)" class="wd-icon-fill"></path>
<path d="M12.5 1C12.7761 1.00006 13 1.22389 13 1.5V4H15.0654C15.4647 4.00008 15.7029 4.4451 15.4814 4.77734L12.416 9.37598C12.2181 9.67281 11.7819 9.67273 11.584 9.37598L8.51855 4.77734C8.29704 4.44507 8.53522 4 8.93457 4H11V1.5C11 1.22389 11.2239 1.00005 11.5 1H12.5Z" fill="oklch(0.3523 0 0 / 1)" class="wd-icon-fill"></path>
</g>
</svg>