<svg width="24" height="24" viewBox="0 0 24 24" xmlns="http://www.w3.org/2000/svg" class="wd-icon wd-icon-coffee" role="presentation">
<g>
<path d="M20 17C20.5523 17 21 17.4477 21 18C21 18.5523 20.5523 19 20 19H4C3.44772 19 3 18.5523 3 18C3 17.4477 3.44772 17 4 17H20Z" fill="oklch(0.3523 0 0 / 1)" class="wd-icon-fill"></path>
<path d="M19.5 5C21.433 5 23 6.567 23 8.5C23 10.433 21.433 12 19.5 12H18.3252C17.2016 14.3647 14.7922 16 12 16C8.13401 16 5 12.866 5 9V6C5 5.44772 5.44772 5 6 5H19.5ZM7 9C7 11.7614 9.23858 14 12 14C14.7614 14 17 11.7614 17 9V7H7V9ZM19 9C19 9.33959 18.9745 9.67334 18.9277 10H19.5C20.3284 10 21 9.32843 21 8.5C21 7.67157 20.3284 7 19.5 7H19V9Z" fill="oklch(0.3523 0 0 / 1)" class="wd-icon-fill"></path>
</g>
</svg>