<svg width="24" height="24" viewBox="0 0 24 24" xmlns="http://www.w3.org/2000/svg" class="wd-icon wd-icon-check-circle" role="presentation">
<path d="M12 4C16.4183 4 20 7.58172 20 12C20 16.4183 16.4183 20 12 20C7.58172 20 4 16.4183 4 12C4 7.58172 7.58172 4 12 4ZM15.8076 8.73145C15.3836 8.37823 14.753 8.43575 14.3994 8.85938L11 12.9375L9.68555 11.3594C9.33203 10.9354 8.70057 10.8782 8.27637 11.2314C7.85215 11.585 7.79491 12.2164 8.14844 12.6406L10.2324 15.1406C10.4224 15.3683 10.7044 15.5 11.001 15.5C11.2973 15.4997 11.5788 15.3682 11.7686 15.1406L15.9355 10.1406C16.2888 9.71647 16.2315 9.08499 15.8076 8.73145Z" fill="transparent" class="wd-icon-background"></path>
<path d="M12 2C17.5228 2 22 6.47715 22 12C22 17.5228 17.5228 22 12 22C6.47715 22 2 17.5228 2 12C2 6.47715 6.47715 2 12 2ZM12 4C7.58172 4 4 7.58172 4 12C4 16.4183 7.58172 20 12 20C16.4183 20 20 16.4183 20 12C20 7.58172 16.4183 4 12 4Z" fill="oklch(0.3523 0 0 / 1)" class="wd-icon-fill"></path>
<path d="M14.3986 8.85939C14.7521 8.43566 15.3827 8.3784 15.8068 8.73146C16.231 9.08501 16.2882 9.71637 15.9347 10.1406L11.7677 15.1406C11.5778 15.3682 11.2965 15.4999 11.0002 15.5C10.7036 15.4999 10.4215 15.3684 10.2316 15.1406L8.14761 12.6406C7.79434 12.2165 7.85167 11.585 8.27554 11.2315C8.69969 10.878 9.3311 10.9354 9.68472 11.3594L10.9992 12.9375L14.3986 8.85939Z" fill="oklch(0.3523 0 0 / 1)" class="wd-icon-accent"></path>
</svg>