<svg width="24" height="24" viewBox="0 0 24 24" xmlns="http://www.w3.org/2000/svg" class="wd-icon wd-icon-percentage" role="presentation">
<g>
<path d="M16.5 12.9999C17.3859 12.9999 18.2712 13.2687 18.9453 13.8896C19.6327 14.5229 20 15.4302 20 16.4999C19.9999 17.5696 19.6328 18.4771 18.9453 19.1103C18.2712 19.7311 17.3858 19.9999 16.5 19.9999C15.6142 19.9999 14.7288 19.7311 14.0547 19.1103C13.3672 18.4771 13.0001 17.5696 13 16.4999C13 15.4302 13.3673 14.5229 14.0547 13.8896C14.7288 13.2687 15.6141 12.9999 16.5 12.9999ZM16.5 14.9999C16.0054 14.9999 15.6408 15.148 15.4102 15.3603C15.193 15.5604 15 15.9032 15 16.4999C15.0001 17.0966 15.193 17.4396 15.4102 17.6396C15.6409 17.8518 16.0055 17.9999 16.5 17.9999C16.9945 17.9999 17.3591 17.8518 17.5898 17.6396C17.807 17.4396 17.9999 17.0966 18 16.4999C18 15.9032 17.807 15.5604 17.5898 15.3603C17.3592 15.148 16.9946 14.9999 16.5 14.9999Z" fill="oklch(0.3523 0 0 / 1)" class="wd-icon-fill"></path>
<path d="M16.7139 4.3808C17.0551 3.9468 17.684 3.8717 18.1182 4.21283C18.5521 4.55411 18.6273 5.18297 18.2861 5.61713L7.28613 19.6171C6.94487 20.0511 6.31599 20.1262 5.88184 19.7851C5.44785 19.4438 5.37277 18.815 5.71387 18.3808L16.7139 4.3808Z" fill="oklch(0.3523 0 0 / 1)" class="wd-icon-fill"></path>
<path d="M7.5 3.99994C8.38588 3.99994 9.27116 4.26871 9.94531 4.88959C10.6328 5.52287 11 6.4302 11 7.49994C11 8.56968 10.6328 9.47702 9.94531 10.1103C9.27117 10.7312 8.38587 10.9999 7.5 10.9999C6.61413 10.9999 5.72883 10.7312 5.05469 10.1103C4.36719 9.47702 4.00001 8.56968 4 7.49994C4 6.4302 4.36719 5.52287 5.05469 4.88959C5.72884 4.26871 6.61412 3.99994 7.5 3.99994ZM7.5 5.99994C7.00543 5.99994 6.64085 6.14803 6.41016 6.3603C6.19296 6.56034 6 6.90314 6 7.49994C6.00001 8.09674 6.19296 8.43955 6.41016 8.63959C6.64085 8.85185 7.00545 8.99994 7.5 8.99994C7.99455 8.99994 8.35915 8.85185 8.58984 8.63959C8.80704 8.43955 8.99999 8.09674 9 7.49994C9 6.90314 8.80704 6.56034 8.58984 6.3603C8.35915 6.14803 7.99457 5.99994 7.5 5.99994Z" fill="oklch(0.3523 0 0 / 1)" class="wd-icon-fill"></path>
</g>
</svg>