<svg width="24" height="24" viewBox="0 0 24 24" xmlns="http://www.w3.org/2000/svg" class="wd-icon wd-icon-link" role="presentation">
<g>
<path d="M5.98905 9.1714C6.37957 8.78111 7.01265 8.78101 7.40311 9.1714C7.79356 9.56186 7.79342 10.1949 7.40311 10.5855L5.24686 12.7427C3.58713 14.4024 3.58713 17.0927 5.24686 18.7525C6.90659 20.4121 9.59691 20.4122 11.2566 18.7525L13.4139 16.5962C13.8044 16.2059 14.4375 16.2058 14.8279 16.5962C15.2182 16.9867 15.2182 17.6198 14.8279 18.0103L12.6707 20.1665C10.2299 22.6073 6.2726 22.6073 3.83182 20.1665C1.3915 17.7257 1.3912 13.7683 3.83182 11.3277L5.98905 9.1714Z" fill="oklch(0.3523 0 0 / 1)" class="wd-icon-fill"></path>
<path d="M14.8279 7.75734C15.2185 7.36696 15.8515 7.36686 16.242 7.75734C16.6324 8.14782 16.6323 8.78088 16.242 9.1714L9.17069 16.2427C8.78017 16.6331 8.14713 16.6332 7.75663 16.2427C7.36613 15.8522 7.36618 15.2192 7.75663 14.8286L14.8279 7.75734Z" fill="oklch(0.3523 0 0 / 1)" class="wd-icon-fill"></path>
<path d="M11.3269 3.83351C13.7677 1.39274 17.725 1.39274 20.1658 3.83351C22.6065 6.27429 22.6066 10.2316 20.1658 12.6724L18.0096 14.8286C17.6191 15.219 16.986 15.219 16.5955 14.8286C16.205 14.4381 16.2051 13.8051 16.5955 13.4146L18.7517 11.2573C20.4114 9.59762 20.4114 6.90728 18.7517 5.24757C17.092 3.58787 14.4017 3.58792 12.742 5.24757L10.5848 7.40382C10.1942 7.79422 9.56117 7.79431 9.17069 7.40382C8.78026 7.01334 8.78031 6.38028 9.17069 5.98976L11.3269 3.83351Z" fill="oklch(0.3523 0 0 / 1)" class="wd-icon-fill"></path>
</g>
</svg>