<svg width="24" height="24" viewBox="0 0 24 24" xmlns="http://www.w3.org/2000/svg" class="wd-icon wd-icon-package-loop" role="presentation">
<path d="M15.1738 3C15.9694 3.00008 16.7324 3.31637 17.2949 3.87891L19.5371 6.12109C20.4748 7.05878 21.002 8.33114 21.002 9.65723V11C21.002 11.5523 20.5542 12 20.002 12C19.4497 12 19.002 11.5523 19.002 11V9.65723C19.002 9.43417 18.974 9.21432 18.9258 9H5.07812C5.02995 9.21432 5.00195 9.43417 5.00195 9.65723V18C5.00195 18.5523 5.44967 19 6.00195 19H10.002C10.5542 19 11.002 19.4477 11.002 20C11.002 20.5523 10.5542 21 10.002 21H6.00195C4.3451 21 3.00195 19.6569 3.00195 18V9.65723C3.00195 8.33114 3.52912 7.05878 4.4668 6.12109L6.70898 3.87891C7.27152 3.31637 8.03454 3.00008 8.83008 3H15.1738ZM13 7H17.5879L15.8809 5.29297C15.6934 5.1055 15.4389 5.00008 15.1738 5H13V7ZM8.83008 5C8.56497 5.00008 8.31051 5.1055 8.12305 5.29297L6.41602 7H11V5H8.83008Z" fill="oklch(0.3523 0 0 / 1)" class="wd-icon-fill"></path>
<g>
<path d="M14.0667 15.6227C14.2647 15.3261 14.7009 15.3259 14.8988 15.6227L16.6302 18.2213C16.8516 18.5536 16.6135 18.9987 16.2142 18.9987H15.2786C15.3243 19.2467 15.4028 19.4888 15.515 19.7165C15.7015 20.0946 15.9734 20.4256 16.3079 20.6823C16.6424 20.9389 17.0322 21.1156 17.4456 21.1979C17.8589 21.28 18.2866 21.2658 18.6937 21.1569C19.0937 21.0498 19.5044 21.2872 19.6117 21.6872C19.7186 22.0871 19.4813 22.4989 19.0814 22.6061C18.4521 22.7745 17.7916 22.7957 17.1527 22.6686C16.5137 22.5414 15.9118 22.2693 15.3949 21.8727C14.8779 21.476 14.4585 20.9649 14.1702 20.3805C13.9558 19.9457 13.8187 19.4778 13.762 18.9987H12.7493C12.3508 18.9981 12.1127 18.5533 12.3333 18.2213L14.0667 15.6227Z" fill="oklch(0.3523 0 0 / 1)" class="wd-icon-accent"></path>
<path d="M16.5667 14.404C17.2332 14.2254 17.9329 14.203 18.6097 14.3375C19.2865 14.4722 19.9235 14.7603 20.471 15.1803C21.0186 15.6005 21.4626 16.1413 21.7679 16.7604C21.9613 17.1527 22.0957 17.57 22.1683 17.9987H23.2142C23.6136 17.9987 23.8518 18.4437 23.6302 18.776L21.8978 21.3747C21.6997 21.6709 21.2635 21.6712 21.0658 21.3747L19.3343 18.776C19.1129 18.4439 19.3513 17.999 19.7503 17.9987H20.6351C20.5839 17.8009 20.5131 17.6079 20.4222 17.4235C20.2187 17.0109 19.9229 16.6508 19.5579 16.3708C19.1929 16.0907 18.768 15.898 18.3167 15.8083C17.8657 15.7187 17.3996 15.7342 16.9554 15.8532C16.5558 15.9597 16.1439 15.7223 16.0365 15.3229C15.9294 14.9232 16.1674 14.5117 16.5667 14.404Z" fill="oklch(0.3523 0 0 / 1)" class="wd-icon-accent"></path>
</g>
</svg>