<svg width="24" height="24" viewBox="0 0 24 24" xmlns="http://www.w3.org/2000/svg" class="wd-icon wd-icon-arrow-right" role="presentation">
<path d="M21.7747 11.3664C22.0755 11.7345 22.0754 12.2639 21.7747 12.632L18.3938 16.7639C18.3923 16.7657 18.3914 16.7679 18.3899 16.7697L15.9543 19.7463C15.7795 19.9595 15.4648 19.9911 15.2512 19.8166L14.8635 19.5002L14.4778 19.1838C14.2641 19.009 14.2317 18.6934 14.4065 18.4797L16.8411 15.5041L16.843 15.5022L18.8909 12.9992L2.50024 12.9992C2.22411 12.9992 2.00024 12.7754 2.00024 12.4992L2.00024 11.4992C2.00041 11.2232 2.22422 10.9992 2.50024 10.9992L18.8909 10.9992L16.8469 8.50021C16.8454 8.49843 16.8425 8.49713 16.8411 8.49533L14.4065 5.51974C14.2318 5.30602 14.2641 4.99046 14.4778 4.81564L15.2512 4.18283C15.465 4.00823 15.7796 4.04051 15.9543 4.25412L21.7747 11.3664Z" fill="oklch(0.3523 0 0 / 1)" class="wd-icon-fill"></path>
</svg>