<svg width="24" height="24" viewBox="0 0 24 24" xmlns="http://www.w3.org/2000/svg" class="wd-icon wd-icon-play-small" role="presentation">
<path d="M8.89844 6.91327C9.22241 6.88025 9.6172 7.11022 10.4062 7.5705L15.6309 10.6184C16.4091 11.0723 16.7985 11.2994 16.9297 11.5949C17.044 11.8528 17.0439 12.1475 16.9297 12.4055C16.7987 12.7012 16.4094 12.9288 15.6309 13.383L10.4062 16.4299C9.61717 16.8902 9.22242 17.1201 8.89844 17.0871C8.61595 17.0583 8.35863 16.9113 8.19141 16.6818C7.99965 16.4186 8 15.9615 8 15.048V8.95234C8 8.03949 7.99992 7.58275 8.19141 7.31952C8.35864 7.09 8.61593 6.94212 8.89844 6.91327Z" fill="oklch(0.3523 0 0 / 1)" class="wd-icon-fill"></path>
</svg>