<svg width="24" height="24" viewBox="0 0 24 24" xmlns="http://www.w3.org/2000/svg" class="wd-icon wd-icon-add-above" role="presentation">
<g>
<path d="M12 10C12.5523 10 13 10.4477 13 11V14H16C16.5523 14 17 14.4477 17 15C17 15.5523 16.5523 16 16 16H13V19C13 19.5523 12.5523 20 12 20C11.4477 20 11 19.5523 11 19V16H8C7.44771 16 7 15.5523 7 15C7 14.4477 7.44771 14 8 14H11V11C11 10.4477 11.4477 10 12 10Z" fill="oklch(0.3523 0 0 / 1)" class="wd-icon-fill"></path>
<path d="M19 5C19.5523 5 20 5.44772 20 6C20 6.55228 19.5523 7 19 7H5C4.44772 7 4 6.55228 4 6C4 5.44772 4.44772 5 5 5H19Z" fill="oklch(0.3523 0 0 / 1)" class="wd-icon-fill"></path>
</g>
</svg>