<svg width="24" height="24" viewBox="0 0 24 24" xmlns="http://www.w3.org/2000/svg" class="wd-icon wd-icon-calendar-list" role="presentation">
<g>
<path d="M7 15.75C7.69036 15.75 8.25 16.3096 8.25 17C8.25 17.6904 7.69036 18.25 7 18.25C6.30964 18.25 5.75 17.6904 5.75 17C5.75 16.3096 6.30964 15.75 7 15.75Z" fill="oklch(0.3523 0 0 / 1)" class="wd-icon-fill"></path>
<path d="M7 9.75C7.69036 9.75 8.25 10.3096 8.25 11C8.25 11.6904 7.69036 12.25 7 12.25C6.30964 12.25 5.75 11.6904 5.75 11C5.75 10.3096 6.30964 9.75 7 9.75Z" fill="oklch(0.3523 0 0 / 1)" class="wd-icon-fill"></path>
<path d="M7.5 1C7.77614 1 8 1.22386 8 1.5V3H16V1.5C16 1.22386 16.2239 1 16.5 1H17.5C17.7761 1 18 1.22386 18 1.5V3H20.5C21.3284 3 22 3.67157 22 4.5V19.5C22 20.3284 21.3284 21 20.5 21H3.5C2.67157 21 2 20.3284 2 19.5V4.5C2 3.67157 2.67157 3 3.5 3H6V1.5C6 1.22386 6.22386 1 6.5 1H7.5ZM4 19H10V14.9932L4 14.9902V19ZM12 19H20V14.999L12 14.9941V19ZM12 12.9941L20 12.999V9H12V12.9941ZM4 12.9902L10 12.9932V9H4V12.9902ZM4 7H20V5H4V7Z" fill="oklch(0.3523 0 0 / 1)" class="wd-icon-fill"></path>
</g>
</svg>