<svg width="24" height="24" viewBox="0 0 24 24" xmlns="http://www.w3.org/2000/svg" class="wd-icon wd-icon-join-left-anti" role="presentation">
<path d="M16.5 5C20.0899 5 23 7.91015 23 11.5C23 15.0899 20.0899 18 16.5 18C15.115 17.9999 13.8326 17.5649 12.7783 16.8262C12.7686 16.8194 12.7597 16.8125 12.75 16.8057C12.7099 16.7772 12.6703 16.7481 12.6309 16.7188C12.5885 16.6873 12.5464 16.6555 12.5049 16.623C12.4798 16.6035 12.4544 16.5844 12.4297 16.5645C12.3704 16.5168 12.3124 16.4676 12.2549 16.418C12.2414 16.4063 12.2272 16.3955 12.2139 16.3838C12.1411 16.3199 12.0698 16.2545 12 16.1875C10.832 17.3091 9.24722 18 7.5 18C3.9103 17.9998 1 15.0897 1 11.5C1 7.91026 3.9103 5.00017 7.5 5C9.24698 5 10.832 5.6902 12 6.81152C12.07 6.74438 12.141 6.67825 12.2139 6.61426C12.2272 6.60252 12.2414 6.59171 12.2549 6.58008C12.3131 6.52978 12.3726 6.48086 12.4326 6.43262C12.4566 6.41331 12.4806 6.39397 12.5049 6.375C12.5464 6.34256 12.5885 6.31074 12.6309 6.2793C13.7119 5.47637 15.0499 5.00007 16.5 5ZM16.5 7C15.5745 7.00006 14.715 7.28046 14 7.75977C14.635 8.86092 15 10.1375 15 11.5C15 12.8619 14.6347 14.1376 14 15.2383C14.7151 15.7181 15.5741 15.9999 16.5 16C18.9853 16 21 13.9853 21 11.5C21 9.01472 18.9853 7 16.5 7ZM11.333 7.55859C10.4977 8.6521 10 10.0177 10 11.5C10 12.9823 10.4977 14.3479 11.333 15.4414C12.3603 14.4421 13 13.0464 13 11.5C13 9.95364 12.3603 8.55785 11.333 7.55859Z" fill="oklch(0.3523 0 0 / 1)" class="wd-icon-fill"></path>
</svg>