<svg width="24" height="24" viewBox="0 0 24 24" xmlns="http://www.w3.org/2000/svg" class="wd-icon wd-icon-user-forward" role="presentation">
<g>
<path d="M10.9374 12.0332C11.4884 11.9978 11.9643 12.4158 11.9999 12.9668C12.0355 13.5178 11.6173 13.9935 11.0663 14.0293C9.33037 14.1415 7.87722 14.5723 6.8427 15.3018C5.87226 15.9862 5.222 16.9646 5.04778 18.3516C5.82397 18.5195 7.18448 18.7624 9.07121 18.8975C9.62195 18.937 10.0364 19.416 9.99699 19.9668C9.95753 20.5175 9.47932 20.9318 8.92864 20.8926C6.84136 20.7431 5.34156 20.4694 4.49895 20.2812C3.6061 20.0818 2.94248 19.2567 3.04094 18.2852L3.08879 17.9082C3.37169 16.0514 4.31317 14.6387 5.68938 13.668C7.12464 12.6558 8.97709 12.1599 10.9374 12.0332Z" fill="oklch(0.3523 0 0 / 1)" class="wd-icon-fill"></path>
<path d="M11.9999 1.5C14.4851 1.50014 16.4999 3.5148 16.4999 6C16.4997 8.48503 14.485 10.4999 11.9999 10.5C9.51476 10.5 7.50012 8.48512 7.49992 6C7.49992 3.51472 9.51464 1.5 11.9999 1.5ZM11.9999 3.5C10.6192 3.5 9.49992 4.61929 9.49992 6C9.50012 7.38055 10.6193 8.5 11.9999 8.5C13.3804 8.49986 14.4997 7.38047 14.4999 6C14.4999 4.61937 13.3805 3.50014 11.9999 3.5Z" fill="oklch(0.3523 0 0 / 1)" class="wd-icon-fill"></path>
</g>
<path d="M18.4697 11.4695C18.7625 11.1767 19.2374 11.1769 19.5303 11.4695L22.5303 14.4695C22.8228 14.7624 22.8231 15.2373 22.5303 15.5301L19.5303 18.5301C19.2375 18.8226 18.7626 18.8225 18.4697 18.5301C18.1772 18.2372 18.1772 17.7623 18.4697 17.4695L20.1895 15.7498H14.875C14.7539 15.7498 14.7104 15.7497 14.6768 15.7508C13.492 15.7897 12.5398 16.7418 12.501 17.9265C12.4999 17.9602 12.5 18.0035 12.5 18.1248C12.5 18.2461 12.4999 18.2894 12.501 18.323C12.5399 19.5077 13.4921 20.4599 14.6768 20.4988C14.7104 20.4999 14.7539 20.4998 14.875 20.4998H17C17.4141 20.4999 17.75 20.8356 17.75 21.2498C17.7499 21.6638 17.4141 21.9997 17 21.9998H14.875C14.7651 21.9998 14.6913 21.9999 14.627 21.9978C12.6527 21.9329 11.0669 20.3471 11.002 18.3728C10.9998 18.3085 11 18.2348 11 18.1248C11 18.0148 10.9999 17.9411 11.002 17.8767C11.0668 15.9023 12.6526 14.3167 14.627 14.2517C14.6913 14.2496 14.7651 14.2498 14.875 14.2498H20.1895L18.4697 12.5301C18.1773 12.2372 18.1773 11.7623 18.4697 11.4695Z" fill="oklch(0.3523 0 0 / 1)" class="wd-icon-accent"></path>
</svg>