<svg width="24" height="24" viewBox="0 0 24 24" xmlns="http://www.w3.org/2000/svg" class="wd-icon wd-icon-remove-indent" role="presentation">
<g>
<path d="M22.5 17C22.7761 17 23 17.2239 23 17.5V18.5C23 18.7761 22.7761 19 22.5 19H1.5C1.22386 19 1 18.7761 1 18.5V17.5C1 17.2239 1.22386 17 1.5 17H22.5Z" fill="oklch(0.3523 0 0 / 1)" class="wd-icon-fill"></path>
<path d="M6.22266 8.51758C6.55491 8.2963 7 8.53531 7 8.93457V11H10.5C10.7761 11 11 11.2239 11 11.5V12.5C11 12.7761 10.7761 13 10.5 13H7V15.0654C7 15.4648 6.55493 15.703 6.22266 15.4814L1.62402 12.416C1.32719 12.2181 1.32727 11.7819 1.62402 11.584L6.22266 8.51758Z" fill="oklch(0.3523 0 0 / 1)" class="wd-icon-fill"></path>
<path d="M22.5 11C22.7761 11 23 11.2239 23 11.5V12.5C23 12.7761 22.7761 13 22.5 13H13.5C13.2239 13 13 12.7761 13 12.5V11.5C13 11.2239 13.2239 11 13.5 11H22.5Z" fill="oklch(0.3523 0 0 / 1)" class="wd-icon-fill"></path>
<path d="M22.5 5C22.7761 5 23 5.22386 23 5.5V6.5C23 6.77614 22.7761 7 22.5 7H1.5C1.22386 7 1 6.77614 1 6.5V5.5C1 5.22386 1.22386 5 1.5 5H22.5Z" fill="oklch(0.3523 0 0 / 1)" class="wd-icon-fill"></path>
</g>
</svg>