<svg width="24" height="24" viewBox="0 0 24 24" xmlns="http://www.w3.org/2000/svg" class="wd-icon wd-icon-user-group-circle" role="presentation">
<g>
<path d="M12 14C13.4564 14 14.7919 14.5189 15.8311 15.3818C15.9403 15.4726 15.9999 15.6089 16 15.751V16.5C16 16.7761 15.7761 17 15.5 17H8.5C8.22386 17 8 16.7761 8 16.5V15.751C8.00009 15.6089 8.05973 15.4726 8.16895 15.3818C9.20815 14.5189 10.5436 14 12 14Z" fill="oklch(0.3523 0 0 / 1)" class="wd-icon-fill"></path>
<path d="M8 12C8.41798 12 8.82581 12.0437 9.21973 12.125C9.40122 12.5731 9.68766 12.9665 10.0488 13.2764C9.21118 13.5192 8.43786 13.9137 7.76172 14.4287L7.53027 14.6123C7.39498 14.7247 7.28568 14.8566 7.20215 15H4.5L4.39941 14.9902C4.17145 14.9437 4 14.7417 4 14.5V13.751C4.00009 13.6089 4.05973 13.4726 4.16895 13.3818C5.20815 12.5189 6.54364 12 8 12Z" fill="oklch(0.3523 0 0 / 1)" class="wd-icon-fill"></path>
<path d="M16 12C17.4564 12 18.7919 12.5189 19.8311 13.3818C19.9403 13.4726 19.9999 13.6089 20 13.751V14.5C20 14.7761 19.7761 15 19.5 15H16.7979C16.7143 14.8566 16.605 14.7247 16.4697 14.6123C15.7403 14.0066 14.8848 13.5471 13.9492 13.2764C14.3108 12.9664 14.5976 12.5734 14.7793 12.125C15.1735 12.0435 15.5817 12 16 12Z" fill="oklch(0.3523 0 0 / 1)" class="wd-icon-fill"></path>
<path d="M12 9C13.1046 9 14 9.89543 14 11C14 12.1046 13.1046 13 12 13C10.8954 13 10 12.1046 10 11C10 9.89543 10.8954 9 12 9Z" fill="oklch(0.3523 0 0 / 1)" class="wd-icon-fill"></path>
<path d="M8 7C9.03025 7 9.87683 7.77917 9.98633 8.78027C9.44611 9.27064 9.0834 9.95307 9.0127 10.7217C8.71534 10.897 8.37015 11 8 11C6.89543 11 6 10.1046 6 9C6 7.89543 6.89543 7 8 7Z" fill="oklch(0.3523 0 0 / 1)" class="wd-icon-fill"></path>
<path d="M16 7C17.1046 7 18 7.89543 18 9C18 10.1046 17.1046 11 16 11C15.6296 11 15.2838 10.8972 14.9863 10.7217C14.9156 9.95285 14.5532 9.27065 14.0127 8.78027C14.1221 7.77912 14.9697 7 16 7Z" fill="oklch(0.3523 0 0 / 1)" class="wd-icon-fill"></path>
<path d="M12 1C18.0751 1 23 5.92487 23 12C23 18.0751 18.0751 23 12 23C5.92487 23 1 18.0751 1 12C1 5.92487 5.92487 1 12 1ZM12 3C7.02944 3 3 7.02944 3 12C3 16.9706 7.02944 21 12 21C16.9706 21 21 16.9706 21 12C21 7.02944 16.9706 3 12 3Z" fill="oklch(0.3523 0 0 / 1)" class="wd-icon-fill"></path>
</g>
</svg>