<svg width="24" height="24" viewBox="0 0 24 24" xmlns="http://www.w3.org/2000/svg" class="wd-icon wd-icon-audio-none" role="presentation">
<path d="M11.5303 2.06239C12.4841 1.24419 14 1.91235 14 3.20692V20.7919C13.9999 22.1282 12.3843 22.7972 11.4395 21.8524L6.58496 16.9989H4C3.98406 16.9989 3.96807 16.9987 3.95215 16.9979L3.74805 16.9882C3.73044 16.9873 3.71285 16.986 3.69531 16.9843C2.27562 16.8404 1.14906 15.7081 1.01367 14.287L1 13.9989V9.99891C1.0004 8.34271 2.34307 6.99891 4 6.99891H6.58594L11.4395 2.14637L11.5303 2.06239ZM7.70703 8.70595C7.51951 8.89341 7.26516 8.99891 7 8.99891H4C3.44819 8.99891 3.00026 9.44654 3 9.99891V13.9989L3.00488 14.0946C3.04948 14.5631 3.41739 14.9369 3.88184 14.9911L4.02734 14.9989H6.99902L7.09766 15.0038C7.32662 15.0265 7.54192 15.1278 7.70605 15.2919L12 19.5849V4.41298L7.70703 8.70595Z" fill="oklch(0.3523 0 0 / 1)" class="wd-icon-fill"></path>
</svg>