<svg width="24" height="24" viewBox="0 0 24 24" xmlns="http://www.w3.org/2000/svg" class="wd-icon wd-icon-grad-cap" role="presentation">
<path d="M17 15.5C17 15.8148 16.8514 16.1109 16.5996 16.2998L16.2002 16.6006C13.7113 18.4672 10.2887 18.4672 7.7998 16.6006L7.40039 16.2998C7.14859 16.1109 7 15.8148 7 15.5V12.3838L11.1924 14.2256C11.7045 14.4503 12.2877 14.4503 12.7998 14.2256L17 12.3809V15.5Z" fill="transparent" class="wd-icon-background"></path>
<path d="M11.1924 3.74672C11.7046 3.52192 12.2876 3.52193 12.7998 3.74672L21.6055 7.61293C22.8011 8.13813 22.8011 9.83382 21.6055 10.359L21.4981 10.4059V14.2506C21.4979 14.6646 21.1622 15.0006 20.7481 15.0006C20.3341 15.0005 19.9983 14.6646 19.9981 14.2506V11.0641L19 11.5026V15.4996C19 16.4439 18.5552 17.3335 17.7998 17.9L17.4004 18.1998C14.2004 20.5998 9.79962 20.5999 6.59964 18.1998L6.20022 17.9C5.44492 17.3335 5.00003 16.4438 5.00003 15.4996V11.5055L2.38675 10.359C1.19129 9.83386 1.1915 8.13829 2.38675 7.61293L11.1924 3.74672ZM12.7998 14.2252C12.2877 14.4499 11.7045 14.45 11.1924 14.2252L7.00003 12.3844V15.4996C7.00003 15.8143 7.14872 16.1106 7.40042 16.2995L7.79983 16.6002C10.2887 18.4668 13.7114 18.4668 16.2002 16.6002L16.5996 16.2995C16.8514 16.1106 17 15.8144 17 15.4996V12.3805L12.7998 14.2252ZM4.23343 8.98597L11.9961 12.3942L19.7578 8.98597L11.9961 5.57777L4.23343 8.98597Z" fill="oklch(0.3523 0 0 / 1)" class="wd-icon-fill"></path>
</svg>