<svg width="24" height="24" viewBox="0 0 24 24" xmlns="http://www.w3.org/2000/svg" class="wd-icon wd-icon-search-user" role="presentation">
<g>
<path d="M10.5 11.5C12.0522 11.5 13.3985 12.001 14.0615 13.1611C14.3228 13.6186 14.0032 14.1495 13.4854 14.2461C12.8065 14.3723 11.7987 14.5 10.5 14.5C9.20163 14.5 8.19445 14.3723 7.51562 14.2461C6.99744 14.1497 6.67792 13.6187 6.93945 13.1611C7.60252 12.0012 8.94793 11.5 10.5 11.5Z" fill="oklch(0.3523 0 0 / 1)" class="wd-icon-fill"></path>
<path d="M10.5 6.5C11.6045 6.50012 12.5 7.3955 12.5 8.5C12.5 9.6045 11.6045 10.4999 10.5 10.5C9.39553 10.4999 8.5 9.6045 8.5 8.5C8.5 7.3955 9.39553 6.50012 10.5 6.5Z" fill="oklch(0.3523 0 0 / 1)" class="wd-icon-fill"></path>
<path d="M10.5 2C15.1944 2 19 5.80558 19 10.5C19 12.4868 18.316 14.3125 17.1738 15.7598L21.707 20.293C22.0974 20.6835 22.0975 21.3165 21.707 21.707C21.3165 22.0974 20.6835 22.0974 20.293 21.707L15.7598 17.1738C14.3125 18.316 12.4868 19 10.5 19C5.80558 19 2 15.1944 2 10.5C2 5.80558 5.80558 2 10.5 2ZM10.5 4C6.91015 4 4 6.91015 4 10.5C4 14.0899 6.91015 17 10.5 17C14.0899 17 17 14.0899 17 10.5C17 6.91015 14.0899 4 10.5 4Z" fill="oklch(0.3523 0 0 / 1)" class="wd-icon-fill"></path>
</g>
</svg>