<svg width="24" height="24" viewBox="0 0 24 24" xmlns="http://www.w3.org/2000/svg" class="wd-icon wd-icon-bubble-chart" role="presentation">
<g>
<path d="M14 14C15.6569 14 17 15.3431 17 17C17 18.6569 15.6569 20 14 20C12.3431 20 11 18.6569 11 17C11 15.3431 12.3431 14 14 14Z" fill="transparent" class="wd-icon-background"></path>
<path d="M8.5 8C10.433 8 12 9.567 12 11.5C12 13.433 10.433 15 8.5 15C6.567 15 5 13.433 5 11.5C5 9.567 6.567 8 8.5 8Z" fill="transparent" class="wd-icon-background"></path>
<path d="M18 4C20.7614 4 23 6.23858 23 9C23 11.7614 20.7614 14 18 14C15.2386 14 13 11.7614 13 9C13 6.23858 15.2386 4 18 4Z" fill="transparent" class="wd-icon-background"></path>
<path d="M11 1C12.6569 1 14 2.34315 14 4C14 5.65685 12.6569 7 11 7C9.34315 7 8 5.65685 8 4C8 2.34315 9.34315 1 11 1Z" fill="transparent" class="wd-icon-background"></path>
</g>
<g>
<path d="M6 16C7.65685 16 9 17.3431 9 19C9 20.6569 7.65685 22 6 22C4.34315 22 3 20.6569 3 19C3 17.3431 4.34315 16 6 16ZM6 18C5.44772 18 5 18.4477 5 19C5 19.5523 5.44772 20 6 20C6.55228 20 7 19.5523 7 19C7 18.4477 6.55228 18 6 18Z" fill="oklch(0.3523 0 0 / 1)" class="wd-icon-fill"></path>
<path d="M14 14C15.6569 14 17 15.3431 17 17C17 18.6569 15.6569 20 14 20C12.3431 20 11 18.6569 11 17C11 15.3431 12.3431 14 14 14ZM14 16C13.4477 16 13 16.4477 13 17C13 17.5523 13.4477 18 14 18C14.5523 18 15 17.5523 15 17C15 16.4477 14.5523 16 14 16Z" fill="oklch(0.3523 0 0 / 1)" class="wd-icon-fill"></path>
<path d="M8.5 8C10.433 8 12 9.567 12 11.5C12 13.433 10.433 15 8.5 15C6.567 15 5 13.433 5 11.5C5 9.567 6.567 8 8.5 8ZM8.5 10C7.67157 10 7 10.6716 7 11.5C7 12.3284 7.67157 13 8.5 13C9.32843 13 10 12.3284 10 11.5C10 10.6716 9.32843 10 8.5 10Z" fill="oklch(0.3523 0 0 / 1)" class="wd-icon-fill"></path>
<path d="M18 4C20.7614 4 23 6.23858 23 9C23 11.7614 20.7614 14 18 14C15.2386 14 13 11.7614 13 9C13 6.23858 15.2386 4 18 4ZM18 6C16.3431 6 15 7.34315 15 9C15 10.6569 16.3431 12 18 12C19.6569 12 21 10.6569 21 9C21 7.34315 19.6569 6 18 6Z" fill="oklch(0.3523 0 0 / 1)" class="wd-icon-fill"></path>
<path d="M11 1C12.6569 1 14 2.34315 14 4C14 5.65685 12.6569 7 11 7C9.34315 7 8 5.65685 8 4C8 2.34315 9.34315 1 11 1ZM11 3C10.4477 3 10 3.44772 10 4C10 4.55228 10.4477 5 11 5C11.5523 5 12 4.55228 12 4C12 3.44772 11.5523 3 11 3Z" fill="oklch(0.3523 0 0 / 1)" class="wd-icon-fill"></path>
</g>
</svg>