<svg width="24" height="24" viewBox="0 0 24 24" xmlns="http://www.w3.org/2000/svg" class="wd-icon wd-icon-merge" role="presentation">
<g>
<path d="M9.64644 13.6464C9.45116 13.4514 9.1346 13.4512 8.93941 13.6464L5.14644 17.4394C4.95148 17.6346 4.95148 17.9512 5.14644 18.1464L5.85347 18.8534C6.04866 19.0486 6.36522 19.0485 6.5605 18.8534L10.3535 15.0605C10.5487 14.8652 10.5487 14.5487 10.3535 14.3534L9.64644 13.6464Z" fill="oklch(0.3523 0 0 / 1)" class="wd-icon-fill"></path>
<path d="M6.5605 5.14642C6.36526 4.95117 6.04874 4.95121 5.85347 5.14642L5.14644 5.85345C4.95119 6.04871 4.95118 6.36522 5.14644 6.56048L11.2929 12.707C11.4804 12.8944 11.7348 12.9999 12 12.9999H17.8906L15.8613 15.4804C15.6864 15.6941 15.7179 16.0096 15.9316 16.1845L16.3193 16.5009L16.705 16.8173C16.9187 16.9919 17.2343 16.9606 17.4091 16.747L20.7753 12.6347C20.9258 12.4506 21.0009 12.2255 21.0009 12.0009C21.0009 11.9448 20.9957 11.8884 20.9863 11.8329C20.9581 11.6667 20.8878 11.5059 20.7753 11.3681L17.4091 7.25579C17.2343 7.04221 16.9197 7.01083 16.706 7.18548L16.3193 7.50189L15.9326 7.81732C15.7187 7.99207 15.6865 8.3076 15.8613 8.52142L17.8906 10.9999H12.621C12.4885 10.9999 12.3613 10.9472 12.2675 10.8534L6.5605 5.14642Z" fill="oklch(0.3523 0 0 / 1)" class="wd-icon-fill"></path>
</g>
</svg>