<svg width="24" height="24" viewBox="0 0 24 24" xmlns="http://www.w3.org/2000/svg" class="wd-icon wd-icon-dollar-sign-circle" role="presentation">
<g>
<path d="M12.2305 6C12.5201 6 12.7549 6.23479 12.7549 6.52441V7.16406C13.4626 7.27492 14.0473 7.54755 14.5078 7.98242C14.778 8.22809 14.983 8.515 15.123 8.84277C15.2942 9.24358 14.9445 9.63254 14.5088 9.63281C14.1593 9.63281 13.8784 9.36798 13.6846 9.07715C13.6339 9.00118 13.5753 8.93073 13.5098 8.86523C13.3051 8.6521 13.0533 8.49808 12.7549 8.4043V11.1035C13.7185 11.3593 14.4228 11.6964 14.8662 12.1143C15.318 12.5321 15.5439 13.0993 15.5439 13.8154C15.5439 14.5657 15.2879 15.1923 14.7764 15.6953C14.2647 16.1899 13.5906 16.476 12.7549 16.5527V17.1797C12.7547 17.4692 12.52 17.7041 12.2305 17.7041C11.9412 17.7039 11.7063 17.469 11.7061 17.1797V16.54C10.8451 16.4462 10.1548 16.16 9.63477 15.6826C9.29493 15.3651 9.05469 14.984 8.91504 14.5391C8.7892 14.1381 9.13345 13.7773 9.55371 13.7773C9.92108 13.7774 10.2103 14.0652 10.3809 14.3906C10.4589 14.5395 10.5602 14.6714 10.6836 14.7871C10.9649 15.0428 11.3055 15.2135 11.7061 15.2988V12.2422C10.7427 11.9864 10.0567 11.6617 9.64746 11.2695C9.24669 10.8687 9.0459 10.3444 9.0459 9.69629C9.04595 9.23596 9.16145 8.81846 9.3916 8.44336C9.63035 8.06819 9.94985 7.76956 10.3506 7.54785C10.7598 7.31769 11.2116 7.17718 11.7061 7.12598V6.52441C11.7061 6.23493 11.941 6.00024 12.2305 6ZM12.7549 15.3379C13.1727 15.2782 13.5056 15.1284 13.7529 14.8896C14.0002 14.6424 14.124 14.327 14.124 13.9434C14.124 13.5767 14.0127 13.2864 13.791 13.0732C13.5693 12.8602 13.2237 12.6769 12.7549 12.5234V15.3379ZM11.7061 8.32812C11.314 8.37082 11.0068 8.50715 10.7852 8.7373C10.5722 8.95891 10.4659 9.23604 10.4658 9.56836C10.4658 9.87529 10.5637 10.123 10.7598 10.3105C10.9558 10.4981 11.2713 10.6646 11.7061 10.8096V8.32812Z" fill="oklch(0.3523 0 0 / 1)" class="wd-icon-fill"></path>
<path d="M12 2C17.5228 2 22 6.47715 22 12C22 17.5228 17.5228 22 12 22C6.47715 22 2 17.5228 2 12C2 6.47715 6.47715 2 12 2ZM12 4C7.58172 4 4 7.58172 4 12C4 16.4183 7.58172 20 12 20C16.4183 20 20 16.4183 20 12C20 7.58172 16.4183 4 12 4Z" fill="oklch(0.3523 0 0 / 1)" class="wd-icon-fill"></path>
</g>
</svg>