<svg width="24" height="24" viewBox="0 0 24 24" xmlns="http://www.w3.org/2000/svg" class="wd-icon wd-icon-align-bottom" role="presentation">
<g>
<path d="M19.5 19C19.7761 19 20 19.2239 20 19.5V20.5C20 20.7761 19.7761 21 19.5 21H4.5C4.22386 21 4 20.7761 4 20.5V19.5C4 19.2239 4.22386 19 4.5 19H19.5Z" fill="oklch(0.3523 0 0 / 1)" class="wd-icon-fill"></path>
<path d="M12.5 2C12.7759 2.00024 12.9999 2.22408 13 2.5V12H15.0664C15.4651 12.0006 15.7034 12.4453 15.4824 12.7773L12.416 17.376C12.2182 17.6727 11.782 17.6725 11.584 17.376L8.51855 12.7773C8.29713 12.4451 8.53525 12 8.93457 12H11V2.5C11.0001 2.22408 11.2241 2.00024 11.5 2H12.5Z" fill="oklch(0.3523 0 0 / 1)" class="wd-icon-fill"></path>
</g>
</svg>