<svg width="24" height="24" viewBox="0 0 24 24" xmlns="http://www.w3.org/2000/svg" class="wd-icon wd-icon-video" role="presentation">
<path d="M21.2227 5.51841C21.5549 5.29689 22 5.53508 22 5.93443V18.0653C22 18.4646 21.5549 18.7028 21.2227 18.4813L15.2227 14.4813C15.0836 14.3886 15 14.2324 15 14.0653V17.4999C14.9999 17.7759 14.7761 17.9999 14.5 17.9999H2.5C2.22391 17.9999 2.00008 17.7759 2 17.4999V6.49986C2 6.22371 2.22386 5.99986 2.5 5.99986H14.5C14.7761 5.99986 15 6.22371 15 6.49986V9.93443C15 9.76733 15.0837 9.61116 15.2227 9.51841L21.2227 5.51841Z" fill="transparent" class="wd-icon-background"></path>
<path d="M20.7627 4.62764C21.7472 4.06676 23 4.77377 23 5.93428V18.0651C23 19.2632 21.6648 19.9777 20.668 19.3132L16 16.2009V17.4997C16 18.3281 15.3284 18.9997 14.5 18.9997H2.5C1.67158 18.9997 1.00002 18.3281 1 17.4997V6.49971C1 5.67129 1.67157 4.99971 2.5 4.99971H14.5C15.3284 4.99971 16 5.67128 16 6.49971V7.79756L20.668 4.68624L20.7627 4.62764ZM16 10.2019V13.7976L21 17.1306V6.86788L16 10.2019ZM3 16.9997H14V6.99971H3V16.9997Z" fill="oklch(0.3523 0 0 / 1)" class="wd-icon-fill"></path>
<path d="M12 10.5C12 10.7761 11.7761 11 11.5 11H5.5C5.22386 11 5 10.7761 5 10.5V9.5C5 9.22386 5.22386 9 5.5 9H11.5C11.7761 9 12 9.22386 12 9.5V10.5Z" fill="oklch(0.3523 0 0 / 1)" class="wd-icon-accent"></path>
</svg>