<svg width="24" height="24" viewBox="0 0 24 24" xmlns="http://www.w3.org/2000/svg" class="wd-icon wd-icon-list-plus" role="presentation">
<g>
<path d="M19.4951 15C19.7713 15 19.9951 15.2239 19.9951 15.5V17.9951H22.5C22.7761 17.9951 23 18.219 23 18.4951V19.4951C23 19.7713 22.7761 19.9951 22.5 19.9951H19.9951V22.5C19.9951 22.7761 19.7713 23 19.4951 23H18.4951C18.219 23 17.9951 22.7761 17.9951 22.5V19.9951H15.5C15.2239 19.9951 15 19.7713 15 19.4951V18.4951C15 18.219 15.2239 17.9951 15.5 17.9951H17.9951V15.5C17.9951 15.2239 18.219 15 18.4951 15H19.4951Z" fill="oklch(0.3523 0 0 / 1)" class="wd-icon-fill"></path>
<path d="M3 16.5C3.82843 16.5 4.5 17.1716 4.5 18C4.5 18.8284 3.82843 19.5 3 19.5C2.17157 19.5 1.5 18.8284 1.5 18C1.5 17.1716 2.17157 16.5 3 16.5Z" fill="oklch(0.3523 0 0 / 1)" class="wd-icon-fill"></path>
<path d="M12.5 17C12.7761 17 13 17.2239 13 17.5V18.5C13 18.7761 12.7761 19 12.5 19H6.5C6.22386 19 6 18.7761 6 18.5V17.5C6 17.2239 6.22386 17 6.5 17H12.5Z" fill="oklch(0.3523 0 0 / 1)" class="wd-icon-fill"></path>
<path d="M3 10.5C3.82843 10.5 4.5 11.1716 4.5 12C4.5 12.8284 3.82843 13.5 3 13.5C2.17157 13.5 1.5 12.8284 1.5 12C1.5 11.1716 2.17157 10.5 3 10.5Z" fill="oklch(0.3523 0 0 / 1)" class="wd-icon-fill"></path>
<path d="M22.5 11C22.7761 11 23 11.2239 23 11.5V12.5C23 12.7761 22.7761 13 22.5 13H6.5C6.22386 13 6 12.7761 6 12.5V11.5C6 11.2239 6.22386 11 6.5 11H22.5Z" fill="oklch(0.3523 0 0 / 1)" class="wd-icon-fill"></path>
<path d="M3 4.5C3.82843 4.5 4.5 5.17157 4.5 6C4.5 6.82843 3.82843 7.5 3 7.5C2.17157 7.5 1.5 6.82843 1.5 6C1.5 5.17157 2.17157 4.5 3 4.5Z" fill="oklch(0.3523 0 0 / 1)" class="wd-icon-fill"></path>
<path d="M22.5 5C22.7761 5 23 5.22386 23 5.5V6.5C23 6.77614 22.7761 7 22.5 7H6.5C6.22386 7 6 6.77614 6 6.5V5.5C6 5.22386 6.22386 5 6.5 5H22.5Z" fill="oklch(0.3523 0 0 / 1)" class="wd-icon-fill"></path>
</g>
</svg>