<svg width="24" height="24" viewBox="0 0 24 24" xmlns="http://www.w3.org/2000/svg" class="wd-icon wd-icon-join-dashed" role="presentation">
<g>
<path d="M8.51758 16.9736C9.06673 16.9176 9.55784 17.3171 9.61426 17.8662C9.67057 18.4156 9.27011 18.9066 8.7207 18.9629C8.48346 18.9872 8.24304 19 8 19C7.75696 19 7.51654 18.9872 7.2793 18.9629C6.72989 18.9066 6.32943 18.4156 6.38574 17.8662C6.44216 17.3171 6.93327 16.9176 7.48242 16.9736C7.65212 16.991 7.82508 17 8 17C8.17492 17 8.34788 16.991 8.51758 16.9736Z" fill="oklch(0.3523 0 0 / 1)" class="wd-icon-fill"></path>
<path d="M13.8662 10.3857C14.4156 10.3294 14.9066 10.7299 14.9629 11.2793C14.9872 11.5165 15 11.757 15 12C15 12.243 14.9872 12.4835 14.9629 12.7207C14.9066 13.2701 14.4156 13.6706 13.8662 13.6143C13.3171 13.5578 12.9176 13.0667 12.9736 12.5176C12.991 12.3479 13 12.1749 13 12C13 11.8251 12.991 11.6521 12.9736 11.4824C12.9176 10.9333 13.3171 10.4422 13.8662 10.3857Z" fill="oklch(0.3523 0 0 / 1)" class="wd-icon-fill"></path>
<path d="M16 5C19.866 5 23 8.13401 23 12C23 15.866 19.866 19 16 19C12.134 19 9 15.866 9 12C9 8.13401 12.134 5 16 5ZM16 7C15.0871 7 14.2318 7.2455 13.4951 7.67285C13.7712 8.09598 13.6896 8.66721 13.2891 8.99316C12.9102 9.30122 12.3737 9.28618 12.0137 8.98242C11.3778 9.82114 11 10.8663 11 12C11 13.1334 11.3781 14.178 12.0137 15.0166C12.3737 14.7132 12.9103 14.6989 13.2891 15.0068C13.6894 15.3326 13.7707 15.9031 13.4951 16.3262C14.2319 16.7537 15.0869 17 16 17C18.7614 17 21 14.7614 21 12C21 9.23858 18.7614 7 16 7Z" fill="oklch(0.3523 0 0 / 1)" class="wd-icon-fill"></path>
<path d="M2.71094 15.0068C3.13944 14.6584 3.76975 14.7229 4.11816 15.1514C4.33588 15.4191 4.58085 15.6641 4.84863 15.8818C5.27709 16.2303 5.34155 16.8606 4.99316 17.2891C4.6447 17.7172 4.01531 17.7819 3.58691 17.4336C3.21274 17.1294 2.87063 16.7873 2.56641 16.4131C2.21813 15.9847 2.28276 15.3553 2.71094 15.0068Z" fill="oklch(0.3523 0 0 / 1)" class="wd-icon-fill"></path>
<path d="M2.13379 10.3857C2.68293 10.4422 3.08241 10.9333 3.02637 11.4824C3.00897 11.6521 3 11.8251 3 12C3 12.1749 3.00897 12.3479 3.02637 12.5176C3.08241 13.0667 2.68293 13.5578 2.13379 13.6143C1.58438 13.6706 1.09343 13.2701 1.03711 12.7207C1.0128 12.4835 1 12.243 1 12C1 11.757 1.0128 11.5165 1.03711 11.2793C1.09343 10.7299 1.58438 10.3294 2.13379 10.3857Z" fill="oklch(0.3523 0 0 / 1)" class="wd-icon-fill"></path>
<path d="M3.58691 6.56641C4.01531 6.21813 4.6447 6.28276 4.99316 6.71094C5.34155 7.13944 5.27709 7.76975 4.84863 8.11816C4.58085 8.33588 4.33588 8.58085 4.11816 8.84863C3.76975 9.27709 3.13944 9.34155 2.71094 8.99316C2.28276 8.6447 2.21813 8.01531 2.56641 7.58691C2.87063 7.21274 3.21274 6.87063 3.58691 6.56641Z" fill="oklch(0.3523 0 0 / 1)" class="wd-icon-fill"></path>
<path d="M8 5C8.24304 5 8.48346 5.0128 8.7207 5.03711C9.27011 5.09343 9.67057 5.58438 9.61426 6.13379C9.55785 6.68293 9.06673 7.08241 8.51758 7.02637C8.34788 7.00897 8.17492 7 8 7C7.82508 7 7.65212 7.00897 7.48242 7.02637C6.93327 7.08241 6.44215 6.68293 6.38574 6.13379C6.32943 5.58438 6.72989 5.09343 7.2793 5.03711C7.51654 5.0128 7.75696 5 8 5Z" fill="oklch(0.3523 0 0 / 1)" class="wd-icon-fill"></path>
</g>
</svg>