<svg width="24" height="24" viewBox="0 0 24 24" xmlns="http://www.w3.org/2000/svg" class="wd-icon wd-icon-laurel-wreath" role="presentation">
<path d="M20.3578 3.80877C20.835 3.38464 22.1852 2.6205 22.7885 3.22381C23.2813 3.71731 22.8063 4.82269 22.4428 5.24236C21.9418 5.82075 21.1161 6.5664 20.0004 6.86541V7.00018C20.0004 7.82192 19.9307 8.6404 19.7973 9.44744C19.8799 9.40633 19.9589 9.36871 20.0297 9.33319C20.6004 9.047 22.1021 8.65873 22.5287 9.39764C22.8774 10.0019 22.1321 10.9466 21.6723 11.258C21.0715 11.6647 20.1501 12.143 19.0717 12.1916C19.0038 12.3756 18.934 12.5589 18.8588 12.7404C18.564 13.452 18.2143 14.138 17.8158 14.7931C17.9018 14.7757 17.9839 14.7606 18.058 14.7453C18.6835 14.6166 20.2346 14.6294 20.4555 15.4533C20.636 16.1272 19.6707 16.8477 19.1459 17.0295C18.3827 17.2937 17.2131 17.54 16.0336 17.1603C15.8943 17.3116 15.7525 17.4609 15.6068 17.6066C15.1039 18.1095 14.5659 18.5743 13.9994 18.9992C14.0082 19.0029 14.017 19.0073 14.0258 19.0109C15.4487 19.6002 16.964 19.9313 18.5004 19.9904C18.7761 20.0011 19.0002 20.2242 19.0004 20.5002V21.5002C19.0004 21.7762 18.7763 22.0014 18.5004 21.9924C16.7012 21.9324 14.9258 21.5485 13.2602 20.8586C12.8302 20.6805 12.4096 20.4823 11.9994 20.2658C11.5897 20.482 11.1701 20.6807 10.7406 20.8586C9.07505 21.5484 7.29951 21.9323 5.5004 21.9924C5.22441 22.0016 5.0004 21.7763 5.0004 21.5002V20.5002C5.00056 20.2242 5.22456 20.001 5.5004 19.9904C7.03668 19.9313 8.55218 19.6002 9.97501 19.0109C9.98361 19.0074 9.9918 19.0028 10.0004 18.9992C9.434 18.5743 8.89682 18.1095 8.39395 17.6066C8.24793 17.4606 8.10584 17.311 7.96622 17.1594C6.78656 17.5391 5.61708 17.2937 4.85391 17.0295C4.32913 16.8477 3.36474 16.1272 3.54532 15.4533C3.76645 14.6295 5.31757 14.6166 5.94278 14.7453C6.01646 14.7605 6.0976 14.7758 6.18301 14.7931C5.7847 14.1382 5.43669 13.4518 5.142 12.7404C5.06674 12.5587 4.99509 12.3758 4.92715 12.1916C3.84914 12.1426 2.92809 11.6646 2.32754 11.258C1.86774 10.9467 1.12258 10.0019 1.4711 9.39764C1.89765 8.65883 3.3993 9.04701 3.97012 9.33319C4.04068 9.36857 4.11927 9.40652 4.20157 9.44744C4.06817 8.64046 4.00042 7.82185 4.0004 7.00018V6.86541C2.88428 6.5665 2.05814 5.82087 1.55704 5.24236C1.19356 4.82267 0.718799 3.71735 1.21133 3.22381C1.81465 2.6205 3.16485 3.38464 3.642 3.80877C4.11914 4.2329 5.0004 5.00018 5.0004 5.00018C5.01288 4.9893 5.88406 4.22989 6.35782 3.80877C6.83496 3.38464 8.18517 2.6205 8.78848 3.22381C9.28128 3.71731 8.8063 4.82269 8.44278 5.24236C7.94177 5.82075 7.11615 6.5664 6.0004 6.86541V7.00018C6.00042 7.74912 6.06498 8.49521 6.19278 9.22967C6.33557 9.01577 6.48075 8.80174 6.59317 8.63104C6.94428 8.09786 8.05055 7.01009 8.78946 7.4367C9.39353 7.78562 9.22048 8.9762 8.97793 9.47576C8.62846 10.1955 7.98493 11.1857 6.90079 11.7541C6.92978 11.8279 6.95929 11.9015 6.98965 11.9748C7.28837 12.6959 7.65088 13.387 8.07168 14.0402C8.15098 13.8062 8.23249 13.5732 8.29434 13.3869C8.4957 12.7808 9.28288 11.4444 10.1068 11.6652C10.7803 11.846 10.9216 13.0407 10.8168 13.5861C10.6816 14.2882 10.3741 15.2591 9.66836 16.05C9.71466 16.0977 9.76096 16.1455 9.80801 16.1926C10.4742 16.8587 11.2092 17.4492 11.9994 17.9543C12.79 17.449 13.5263 16.859 14.1928 16.1926C14.2395 16.1458 14.2845 16.0974 14.3305 16.05C13.6251 15.2592 13.3182 14.288 13.183 13.5861C13.0782 13.0406 13.2202 11.8457 13.894 11.6652C14.7177 11.4449 15.5041 12.7809 15.7055 13.3869C15.7673 13.5731 15.8479 13.8063 15.9272 14.0402C16.3481 13.3869 16.7123 12.6961 17.0111 11.9748C17.0414 11.9017 17.0691 11.8276 17.0981 11.7541C16.0145 11.1856 15.3712 10.1953 15.0219 9.47576C14.7794 8.97619 14.6066 7.78575 15.2104 7.4367C15.9493 7.01009 17.0555 8.09786 17.4066 8.63104C17.5192 8.8019 17.6641 9.01651 17.807 9.23065C17.9349 8.49586 18.0004 7.74946 18.0004 7.00018V6.86541C16.8843 6.5665 16.0581 5.82087 15.557 5.24236C15.1936 4.82267 14.7188 3.71735 15.2113 3.22381C15.8146 2.6205 17.1649 3.38464 17.642 3.80877C18.1191 4.2329 19.0004 5.00018 19.0004 5.00018C19.0129 4.98931 19.8841 4.22989 20.3578 3.80877Z" fill="oklch(0.3523 0 0 / 1)" class="wd-icon-fill"></path>
</svg>