<svg width="24" height="24" viewBox="0 0 24 24" xmlns="http://www.w3.org/2000/svg" class="wd-icon wd-icon-face-unhappy-sweat" role="presentation">
<path d="M11.4774 4.01807C13.1729 3.9071 14.8601 4.33857 16.2938 5.25049C16.7436 5.53611 17.3336 5.41635 17.6405 4.98877C18.1471 5.39685 18.6079 5.85878 19.0155 6.36573C18.5773 7.22243 17.9999 8.5729 17.9999 9.75049C18.0001 10.5787 18.6716 11.2505 19.4999 11.2505C20.0985 11.2505 20.6128 10.8982 20.8534 10.3911C20.9477 10.9133 20.9999 11.4511 20.9999 12.0005C20.9999 12.3419 20.9783 12.6787 20.9413 13.0103C20.4223 12.9228 19.919 13.2544 19.8007 13.7739C19.4239 15.4306 18.5295 16.9252 17.247 18.0396C15.9642 19.1539 14.3592 19.8316 12.6659 19.9731C10.9727 20.1146 9.27783 19.7126 7.82801 18.8267C6.37834 17.9407 5.24801 16.6156 4.60144 15.0444C3.95499 13.4732 3.82595 11.7362 4.2323 10.0864C4.63881 8.43675 5.55983 6.95879 6.86219 5.86768C8.16479 4.77647 9.78179 4.12913 11.4774 4.01807ZM11.9999 13.0835C10.8486 13.0774 9.71898 13.516 8.87586 14.2036C8.78162 14.2796 8.68961 14.3585 8.60144 14.4399C8.47741 14.5582 8.38875 14.7148 8.36414 14.8872C8.33964 15.0596 8.37999 15.2332 8.4784 15.3716C8.5769 15.5098 8.72747 15.6049 8.89832 15.6382C9.06918 15.6715 9.246 15.6394 9.39832 15.561C9.4847 15.5183 9.57155 15.4775 9.65809 15.439C10.4389 15.0906 11.2189 14.9169 11.9999 14.9175C12.7808 14.9169 13.5608 15.0906 14.3417 15.439C14.4282 15.4775 14.5151 15.5184 14.6014 15.561C14.7538 15.6394 14.9306 15.6715 15.1014 15.6382C15.2723 15.6049 15.4229 15.5098 15.5214 15.3716C15.6198 15.2332 15.6601 15.0596 15.6356 14.8872C15.611 14.7148 15.5223 14.5582 15.3983 14.4399C15.3102 14.3585 15.2181 14.2796 15.1239 14.2036C14.2808 13.516 13.1511 13.0774 11.9999 13.0835ZM8.99988 8.00049C8.4476 8.00049 7.99988 8.44821 7.99988 9.00049V11.0005C8.00014 11.5526 8.44776 12.0005 8.99988 12.0005C9.55199 12.0005 9.99962 11.5525 9.99988 11.0005V9.00049C9.99988 8.44822 9.55215 8.00052 8.99988 8.00049ZM14.9999 8.00049C14.4476 8.00049 13.9999 8.44821 13.9999 9.00049V11.0005C14.0001 11.5526 14.4478 12.0005 14.9999 12.0005C15.552 12.0005 15.9996 11.5525 15.9999 11.0005V9.00049C15.9999 8.44822 15.5521 8.00052 14.9999 8.00049Z" fill="transparent" class="wd-icon-background"></path>
<path d="M11.3464 2.02136C13.4658 1.8826 15.5748 2.42256 17.3669 3.56238C17.8326 3.85883 17.9698 4.47637 17.6736 4.94226C17.3772 5.40801 16.7596 5.54593 16.2937 5.24988C14.86 4.33808 13.1727 3.90649 11.4773 4.01746C9.78177 4.12858 8.16453 4.77594 6.86203 5.86706C5.55967 6.95818 4.63866 8.43614 4.23215 10.0858C3.82569 11.7356 3.95484 13.4725 4.60129 15.0438C5.24778 16.615 6.37819 17.94 7.82785 18.826C9.27762 19.712 10.9726 20.1139 12.6657 19.9725C14.359 19.831 15.9641 19.1533 17.2468 18.0389C18.5294 16.9245 19.4238 15.4301 19.8005 13.7733C19.9231 13.2351 20.4595 12.8982 20.9978 13.0204C21.536 13.143 21.8729 13.6784 21.7507 14.2167C21.2797 16.2878 20.1617 18.1557 18.5583 19.5487C16.9549 20.9416 14.9493 21.7878 12.8327 21.9647C10.7162 22.1415 8.59723 21.6406 6.78488 20.5331C4.97267 19.4255 3.55984 17.7687 2.75168 15.8046C1.94367 13.8404 1.78171 11.6695 2.28976 9.6073C2.7979 7.54508 3.94978 5.69779 5.57785 4.33386C7.206 2.96995 9.22701 2.16025 11.3464 2.02136Z" fill="oklch(0.3523 0 0 / 1)" class="wd-icon-fill"></path>
<g>
<path d="M12 13.0828C13.1513 13.0767 14.2809 13.5153 15.124 14.203C15.2183 14.2789 15.3102 14.3578 15.3984 14.4393C15.5225 14.5575 15.6111 14.7141 15.6357 14.8866C15.6603 15.059 15.6199 15.2325 15.5215 15.3709C15.423 15.5092 15.2725 15.6042 15.1016 15.6375C14.9307 15.6708 14.7539 15.6387 14.6016 15.5604C14.5152 15.5177 14.4284 15.4769 14.3418 15.4383C13.5609 15.09 12.781 14.9162 12 14.9168C11.219 14.9162 10.4391 15.09 9.6582 15.4383C9.57165 15.4769 9.48483 15.5177 9.39844 15.5604C9.24609 15.6387 9.06934 15.6708 8.89844 15.6375C8.72753 15.6042 8.57701 15.5092 8.47852 15.3709C8.38007 15.2325 8.3397 15.059 8.36426 14.8866C8.38887 14.7141 8.47748 14.5575 8.60156 14.4393C8.68975 14.3578 8.78171 14.2789 8.87598 14.203C9.71909 13.5153 10.8487 13.0767 12 13.0828Z" fill="oklch(0.3523 0 0 / 1)" class="wd-icon-accent"></path>
<path d="M9 7.99984C9.55228 7.99984 10 8.44755 10 8.99984V10.9998C9.99985 11.552 9.55219 11.9998 9 11.9998C8.44781 11.9998 8.00015 11.552 8 10.9998V8.99984C8 8.44755 8.44772 7.99984 9 7.99984Z" fill="oklch(0.3523 0 0 / 1)" class="wd-icon-accent"></path>
<path d="M15 7.99984C15.5523 7.99984 16 8.44755 16 8.99984V10.9998C15.9999 11.552 15.5522 11.9998 15 11.9998C14.4478 11.9998 14.0001 11.552 14 10.9998V8.99984C14 8.44755 14.4477 7.99984 15 7.99984Z" fill="oklch(0.3523 0 0 / 1)" class="wd-icon-accent"></path>
<path d="M19.1113 6.17855C19.2827 5.85585 19.7173 5.85585 19.8887 6.17855C20.3331 7.01552 21 8.48296 21 9.74984C20.9999 10.5781 20.3283 11.2498 19.5 11.2498C18.6717 11.2498 18.0001 10.5781 18 9.74984C18 8.48296 18.6669 7.01552 19.1113 6.17855Z" fill="oklch(0.3523 0 0 / 1)" class="wd-icon-accent"></path>
</g>
</svg>