<svg width="24" height="24" viewBox="0 0 24 24" xmlns="http://www.w3.org/2000/svg" class="wd-icon wd-icon-question-sparkle" role="presentation">
<path d="M23 12C23 18.0751 18.0751 23 12 23C5.92487 23 1 18.0751 1 12C1 5.92487 5.92487 1 12 1C18.0751 1 23 5.92487 23 12Z" fill="transparent" class="wd-icon-background"></path>
<g>
<path d="M7.24193 2.08203C9.21322 1.1364 11.4185 0.801294 13.5749 1.11328C13.8483 1.15283 14.0263 1.41627 13.9744 1.6875L13.8796 2.17871L13.7859 2.66895C13.734 2.94011 13.4726 3.1167 13.199 3.08008C11.4631 2.8469 9.69176 3.12505 8.10619 3.88574C6.37026 4.71876 4.94669 6.08647 4.04564 7.78809C3.14454 9.4899 2.81352 11.4366 3.10033 13.3408C3.38723 15.2448 4.27709 17.0074 5.63939 18.3682C7.00178 19.7288 8.76533 20.6168 10.6697 20.9014C12.574 21.1859 14.5199 20.8521 16.2204 19.9492C17.9211 19.0461 19.2879 17.6208 20.1189 15.8838C20.8776 14.2975 21.1538 12.5265 20.9187 10.791C20.8816 10.5174 21.0577 10.2544 21.3288 10.2021L21.8191 10.1084L22.3103 10.0137C22.5815 9.96138 22.8456 10.1388 22.8855 10.4121C23.1999 12.5683 22.866 14.7736 21.9226 16.7461C20.907 18.8692 19.2375 20.611 17.1589 21.7148C15.0803 22.8186 12.7015 23.2267 10.3738 22.8789C8.04641 22.531 5.89136 21.4461 4.2263 19.7832C2.56122 18.12 1.47343 15.9658 1.12279 13.6387C0.772254 11.3114 1.17679 8.93249 2.27806 6.85254C3.37945 4.77254 5.11994 3.10015 7.24193 2.08203Z" fill="oklch(0.3523 0 0 / 1)" class="wd-icon-fill"></path>
<path d="M11.9997 14.75C12.6901 14.75 13.2497 15.3097 13.2497 16C13.2497 16.6903 12.6901 17.25 11.9997 17.25C11.3095 17.2498 10.7497 16.6903 10.7497 16C10.7498 15.3098 11.3095 14.7502 11.9997 14.75Z" fill="oklch(0.3523 0 0 / 1)" class="wd-icon-fill"></path>
<path d="M12.4011 6C13.7593 6.00017 15.0015 6.76772 15.6091 7.98242C16.5612 9.88686 15.6543 12.1973 13.6609 12.9453L13.3103 13.0762C13.1241 13.1459 12.9998 13.3246 12.9997 13.5234C12.9996 13.7867 12.7864 14 12.5232 14H11.4997C11.2239 13.9997 10.9997 13.7759 10.9997 13.5V13.1885C10.9998 12.3581 11.5153 11.6141 12.2927 11.3223L12.9578 11.0723C13.8396 10.7414 14.2412 9.71946 13.8201 8.87695C13.5512 8.33982 13.0018 8.00017 12.4011 8H11.9997C11.0664 8.00028 10.2825 8.64003 10.0622 9.50488C9.99411 9.77248 9.77588 10 9.49974 10H8.49974C8.22388 9.99967 7.99692 9.7748 8.03099 9.50098C8.2766 7.52756 9.95988 6.00031 11.9997 6H12.4011Z" fill="oklch(0.3523 0 0 / 1)" class="wd-icon-fill"></path>
<path d="M19.4997 0.000976562C19.7759 0.000976562 19.9969 0.225971 20.031 0.5C20.2564 2.30985 21.6908 3.74437 23.5007 3.96973C23.7747 4.00383 23.9997 4.22483 23.9997 4.50098C23.9995 4.77692 23.7746 4.99717 23.5007 5.03125C21.6907 5.25662 20.2562 6.69188 20.031 8.50195C19.9967 8.77581 19.7758 9.00098 19.4997 9.00098C19.2239 9.00084 19.0037 8.7757 18.9695 8.50195C18.7442 6.6918 17.3089 5.25651 15.4988 5.03125C15.225 4.99706 15 4.77683 14.9997 4.50098C14.9997 4.22491 15.2248 4.00392 15.4988 3.96973C17.3088 3.74448 18.744 2.30997 18.9695 0.5C19.0036 0.226055 19.2237 0.00111389 19.4997 0.000976562Z" fill="oklch(0.3523 0 0 / 1)" class="wd-icon-fill"></path>
</g>
</svg>