<svg width="24" height="24" viewBox="0 0 24 24" xmlns="http://www.w3.org/2000/svg" class="wd-icon wd-icon-layers" role="presentation">
<g>
<path d="M17.668 15.4553C18.1887 15.6946 18.5176 15.8462 18.7402 15.9739C18.7548 15.9822 18.7679 15.9927 18.7803 16.0002C18.768 16.0077 18.7546 16.0183 18.7402 16.0266C18.5176 16.1542 18.1885 16.306 17.668 16.5452L13.5869 18.4211C12.8027 18.7814 12.5686 18.8798 12.3428 18.9192C12.1163 18.9585 11.8837 18.9585 11.6572 18.9192C11.4314 18.8798 11.1974 18.7815 10.4131 18.4211L6.33203 16.5452C5.81121 16.3059 5.48238 16.1542 5.25977 16.0266C5.24494 16.018 5.23133 16.0078 5.21875 16.0002C5.2312 15.9927 5.24513 15.9823 5.25977 15.9739C5.48236 15.8463 5.81153 15.6945 6.33203 15.4553L7.10254 15.0998L9.57812 16.2385C10.2666 16.5549 10.7728 16.7955 11.3145 16.8899C11.7677 16.9687 12.2323 16.9686 12.6855 16.8899C13.2271 16.7956 13.7335 16.5548 14.4219 16.2385L16.8965 15.0998L17.668 15.4553Z" fill="transparent" class="wd-icon-background"></path>
<path d="M17.668 11.4553C18.1887 11.6946 18.5176 11.8462 18.7402 11.9739C18.7548 11.9822 18.7679 11.9927 18.7803 12.0002C18.768 12.0077 18.7546 12.0183 18.7402 12.0266C18.5176 12.1542 18.1885 12.306 17.668 12.5452L13.5869 14.4211C12.8027 14.7814 12.5686 14.8798 12.3428 14.9192C12.1163 14.9585 11.8837 14.9585 11.6572 14.9192C11.4314 14.8798 11.1974 14.7815 10.4131 14.4211L6.33203 12.5452C5.81121 12.3059 5.48238 12.1542 5.25977 12.0266C5.24494 12.018 5.23133 12.0078 5.21875 12.0002C5.2312 11.9927 5.24513 11.9823 5.25977 11.9739C5.48236 11.8463 5.81154 11.6945 6.33203 11.4553L7.10254 11.0998L9.57812 12.2385C10.2669 12.555 10.7727 12.7955 11.3145 12.8899C11.7678 12.9687 12.2321 12.9687 12.6855 12.8899C13.2273 12.7956 13.7333 12.5549 14.4219 12.2385L16.8965 11.0998L17.668 11.4553Z" fill="transparent" class="wd-icon-background"></path>
<path d="M11.6572 5.08129C11.8838 5.0419 12.1162 5.04193 12.3428 5.08129C12.5688 5.12063 12.802 5.2187 13.5869 5.57934L17.668 7.45531C18.189 7.6947 18.5175 7.8462 18.7402 7.97387C18.7549 7.98229 18.7678 7.99269 18.7803 8.00023C18.7679 8.00771 18.7548 8.01823 18.7402 8.0266C18.5176 8.15423 18.1887 8.30588 17.668 8.54516L13.5869 10.4211C12.8022 10.7817 12.5687 10.8798 12.3428 10.9192C12.1162 10.9585 11.8838 10.9586 11.6572 10.9192C11.4313 10.8798 11.1979 10.7817 10.4131 10.4211L6.33203 8.54516C5.81094 8.30573 5.48242 8.15428 5.25977 8.0266C5.24481 8.01798 5.23143 8.00785 5.21875 8.00023C5.23131 7.99265 5.24497 7.9824 5.25977 7.97387C5.4824 7.84624 5.81125 7.69459 6.33203 7.45531L10.4131 5.57934C11.1976 5.2189 11.4313 5.12068 11.6572 5.08129Z" fill="transparent" class="wd-icon-background"></path>
</g>
<path d="M11.3146 3.11091C11.7681 3.03205 12.2322 3.03203 12.6857 3.11091C13.2275 3.20526 13.7332 3.44581 14.422 3.76228L18.5031 5.63826C18.9882 5.86115 19.4157 6.05641 19.7355 6.23982C20.0357 6.41205 20.4322 6.67466 20.6505 7.1197C20.9229 7.6752 20.923 8.32596 20.6505 8.88142C20.4321 9.32651 20.0357 9.58908 19.7355 9.7613C19.6002 9.8389 19.4445 9.91658 19.2746 9.99958C19.4446 10.0826 19.5992 10.1622 19.7345 10.2398C20.0348 10.412 20.4311 10.6746 20.6496 11.1197C20.9221 11.6753 20.9221 12.3259 20.6496 12.8814C20.4311 13.3263 20.0347 13.5891 19.7345 13.7613C19.5994 13.8388 19.4443 13.9167 19.2746 13.9996C19.4446 14.0826 19.5992 14.1622 19.7345 14.2398C20.0348 14.412 20.4311 14.6746 20.6496 15.1197C20.9221 15.6753 20.9221 16.3259 20.6496 16.8814C20.4311 17.3263 20.0347 17.5891 19.7345 17.7613C19.4147 17.9446 18.987 18.1401 18.5021 18.3629L14.421 20.2388C13.7325 20.5552 13.2265 20.7959 12.6847 20.8902C12.2314 20.969 11.767 20.9691 11.3136 20.8902C10.7719 20.7958 10.2659 20.5553 9.57729 20.2388L5.49623 18.3629C5.01116 18.14 4.58357 17.9447 4.26381 17.7613C3.96359 17.5891 3.56708 17.3264 3.34877 16.8814C3.07639 16.326 3.07651 15.6751 3.34877 15.1197C3.56702 14.6748 3.96361 14.4121 4.26381 14.2398C4.39899 14.1623 4.5539 14.0825 4.72377 13.9996C4.55412 13.9167 4.39885 13.8387 4.26381 13.7613C3.96359 13.5891 3.56708 13.3264 3.34877 12.8814C3.07639 12.326 3.07651 11.6751 3.34877 11.1197C3.56702 10.6748 3.96361 10.4121 4.26381 10.2398C4.39899 10.1623 4.5539 10.0825 4.72377 9.99958C4.55436 9.91685 4.39971 9.83867 4.26479 9.7613C3.96458 9.58911 3.56819 9.32642 3.34975 8.88142C3.07724 8.32588 3.07727 7.67525 3.34975 7.1197C3.56816 6.67449 3.9645 6.41205 4.26479 6.23982C4.58464 6.05638 5.01199 5.86119 5.49721 5.63826L9.57827 3.76228C10.2671 3.44577 10.7727 3.20521 11.3146 3.11091ZM14.421 16.2388C13.7325 16.5552 13.2265 16.7959 12.6847 16.8902C12.2314 16.969 11.767 16.9691 11.3136 16.8902C10.7719 16.7958 10.2659 16.5553 9.57729 16.2388L7.1017 15.1002L6.3312 15.4556C5.81027 15.695 5.48154 15.8465 5.25893 15.9742C5.24408 15.9828 5.23052 15.993 5.21791 16.0006C5.23059 16.0082 5.24398 16.0183 5.25893 16.0269C5.48157 16.1546 5.81015 16.3061 6.3312 16.5455L10.4123 18.4215C11.1968 18.7819 11.4305 18.8801 11.6564 18.9195C11.883 18.9589 12.1154 18.9588 12.3419 18.9195C12.568 18.8802 12.8013 18.782 13.5861 18.4215L17.6671 16.5455C18.1879 16.3062 18.5167 16.1546 18.7394 16.0269C18.754 16.0186 18.7671 16.0081 18.7794 16.0006C18.767 15.993 18.7541 15.9826 18.7394 15.9742C18.5167 15.8465 18.1881 15.695 17.6671 15.4556L16.8956 15.1002L14.421 16.2388ZM6.3312 11.4556C5.81027 11.695 5.48154 11.8465 5.25893 11.9742C5.24408 11.9828 5.23052 11.993 5.21791 12.0006C5.23059 12.0082 5.24398 12.0183 5.25893 12.0269C5.48157 12.1546 5.81015 12.3061 6.3312 12.5455L10.4123 14.4215C11.1968 14.7819 11.4305 14.8801 11.6564 14.9195C11.883 14.9589 12.1154 14.9588 12.3419 14.9195C12.568 14.8802 12.8013 14.782 13.5861 14.4215L17.6671 12.5455C18.1879 12.3062 18.5167 12.1546 18.7394 12.0269C18.754 12.0186 18.7671 12.0081 18.7794 12.0006C18.767 11.993 18.7541 11.9826 18.7394 11.9742C18.5167 11.8465 18.1881 11.695 17.6671 11.4556L16.8956 11.1011L14.422 12.2388C13.7332 12.5553 13.2276 12.7959 12.6857 12.8902C12.2322 12.9691 11.7681 12.9691 11.3146 12.8902C10.7727 12.7959 10.267 12.5553 9.57827 12.2388L7.1017 11.1002L6.3312 11.4556ZM12.3429 5.08161C12.1162 5.04217 11.8841 5.0422 11.6574 5.08161C11.4313 5.12095 11.1984 5.21889 10.4132 5.57966L6.33217 7.45564C5.81093 7.69513 5.48261 7.84649 5.25991 7.97419C5.24482 7.98284 5.23165 7.99288 5.21889 8.00056C5.23158 8.00822 5.24492 8.01833 5.25991 8.02693C5.48261 8.1546 5.81111 8.30607 6.33217 8.54548L10.4132 10.4215C11.1983 10.7822 11.4313 10.8802 11.6574 10.9195C11.8841 10.9589 12.1162 10.9589 12.3429 10.9195C12.5689 10.8801 12.802 10.7822 13.5871 10.4215L17.6681 8.54548C18.1894 8.30599 18.5177 8.15463 18.7404 8.02693C18.7552 8.01843 18.7678 8.0081 18.7804 8.00056C18.7679 7.99306 18.7551 7.98267 18.7404 7.97419C18.5177 7.84651 18.1892 7.69507 17.6681 7.45564L13.5871 5.57966C12.8021 5.21901 12.5689 5.12099 12.3429 5.08161Z" fill="oklch(0.3523 0 0 / 1)" class="wd-icon-fill"></path>
</svg>