<svg width="24" height="24" viewBox="0 0 24 24" xmlns="http://www.w3.org/2000/svg" class="wd-icon wd-icon-plus" role="presentation">
<path d="M12.4906 4C12.7667 4 12.9906 4.22386 12.9906 4.5V10.9902H19.5004C19.7765 10.9902 20.0004 11.2141 20.0004 11.4902V12.4902C20.0004 12.7664 19.7765 12.9902 19.5004 12.9902H12.9906V19.5C12.9906 19.7761 12.7667 20 12.4906 20H11.4906C11.2145 20 10.9906 19.7761 10.9906 19.5V12.9902H4.50037C4.22422 12.9902 4.00037 12.7664 4.00037 12.4902V11.4902C4.00037 11.2141 4.22422 10.9902 4.50037 10.9902H10.9906V4.5C10.9906 4.22386 11.2145 4 11.4906 4H12.4906Z" fill="oklch(0.3523 0 0 / 1)" class="wd-icon-fill"></path>
</svg>