<svg width="24" height="24" viewBox="0 0 24 24" xmlns="http://www.w3.org/2000/svg" class="wd-icon wd-icon-notifications" role="presentation">
<path d="M12 2C13.1046 2 14 2.89543 14 4C14 4.16099 14.0927 4.31188 14.2453 4.36323C16.4465 5.10396 18 6.90025 18 9V11.3069C18 13.205 19.1299 14.8795 20.5934 16.0882C20.6737 16.1546 20.7533 16.2219 20.832 16.29C20.9396 16.3831 21 16.5189 21 16.6611V17.5C21 17.7761 20.7761 18 20.5 18H3.5C3.22386 18 3 17.7761 3 17.5V16.6611C3 16.5189 3.06045 16.3831 3.16797 16.29C3.24672 16.2219 3.32627 16.1546 3.40661 16.0882C4.87011 14.8795 6 13.205 6 11.3069V9C6 6.90051 7.55307 5.10417 9.75384 4.36324C9.90638 4.31188 10 4.16096 10 4C10 2.89543 10.8954 2 12 2Z" fill="transparent" class="wd-icon-background"></path>
<path d="M16 19C16 20.0609 15.5783 21.078 14.8281 21.8281C14.078 22.5783 13.0609 23 12 23C10.9391 23 9.92202 22.5783 9.17188 21.8281C8.42173 21.078 8 20.0609 8 19H3.5C2.67157 19 2 18.3284 2 17.5V16.6611C2 16.2364 2.18102 15.8222 2.51367 15.5342L2.76953 15.3174C4.10543 14.214 5 12.7951 5 11.3066V9C5 6.51037 6.7304 4.48864 9.03125 3.56445C9.24219 2.11401 10.4911 1 12 1C13.5089 1 14.7568 2.11407 14.9678 3.56445C17.269 4.48842 19 6.50999 19 9V11.3066C19 12.7951 19.8946 14.214 21.2305 15.3174C21.3167 15.3886 21.4018 15.461 21.4863 15.5342C21.819 15.8222 22 16.2364 22 16.6611V17.5C22 18.3284 21.3284 19 20.5 19H16ZM10 19C10 19.5304 10.2109 20.039 10.5859 20.4141C10.961 20.7891 11.4696 21 12 21C12.5304 21 13.039 20.7891 13.4141 20.4141C13.7891 20.039 14 19.5304 14 19H10ZM12 3C11.4477 3 11 3.44772 11 4C11 4.52428 10.6915 5.10218 10.0732 5.31055C8.17077 5.95105 7 7.43424 7 9V11.3066C7 13.6144 5.63407 15.5452 4.04297 16.8594C4.02854 16.8713 4.01437 16.8835 4 16.8955V17H20V16.8955C19.9856 16.8835 19.9715 16.8713 19.957 16.8594C18.3659 15.5452 17 13.6144 17 11.3066V9C17 7.43419 15.8296 5.95096 13.9268 5.31055C13.3044 5.10113 13 4.52018 13 4C13 3.44772 12.5523 3 12 3Z" fill="oklch(0.3523 0 0 / 1)" class="wd-icon-fill"></path>
</svg>