<svg width="24" height="24" viewBox="0 0 24 24" xmlns="http://www.w3.org/2000/svg" class="wd-icon wd-icon-bid" role="presentation">
<path d="M4 4H20V16H4V4Z" fill="transparent" class="wd-icon-background"></path>
<path d="M20 3C20.5523 3 21 3.44772 21 4V16C21 16.5523 20.5523 17 20 17H13V21.5C13 21.7761 12.7761 22 12.5 22H11.5C11.2239 22 11 21.7761 11 21.5V17H4C3.44772 17 3 16.5523 3 16V4C3 3.44772 3.44772 3 4 3H20ZM5 15H19V5H5V15Z" fill="oklch(0.3523 0 0 / 1)" class="wd-icon-fill"></path>
<path d="M14.9399 6.6464C15.1351 6.45121 15.4517 6.45119 15.6469 6.6464L16.3539 7.35343C16.5491 7.54868 16.5491 7.86522 16.3539 8.06046L11.7074 12.7069C11.317 13.0974 10.6839 13.0972 10.2934 12.7069L8.1469 10.5605C7.95169 10.3652 7.95169 10.0487 8.1469 9.85343L8.85393 9.1464C9.04918 8.95121 9.36571 8.95119 9.56096 9.1464L11.0004 10.5859L14.9399 6.6464Z" fill="oklch(0.3523 0 0 / 1)" class="wd-icon-accent"></path>
</svg>